<?xml version="1.0" encoding="utf-8" ?>
<svg baseProfile="full" height="256.46841600000005cm" version="1.1" viewBox="0 0 118.0 256.46841600000005" width="118.0cm" xmlns="http://www.w3.org/2000/svg" xmlns:ev="http://www.w3.org/2001/xml-events" xmlns:xlink="http://www.w3.org/1999/xlink"><defs /><rect fill="#f7f3ea" height="248.46841600000002" stroke="#333" stroke-width="0.15" width="110.0" x="4.0" y="4.0" /><text fill="#000" font-family="sans-serif" font-size="1.4" x="4.0" y="3.0">PLANO DE CORTE — ancho 110 cm — largo 2.48 m</text><polygon fill="#cfe3f7" fill-opacity="0.5" points="4.0,82.262635 11.993651,82.262635 12.399021000000001,18.619500000000002 16.610011,5.249607 14.110797999999999,4.0 13.390118000000001,4.9347 13.171828000000001,5.2184349999999995 12.953497,5.503465 12.735429,5.790026 12.517933,6.078352 12.301321000000002,6.368679 12.085905,6.6612469999999995 11.872003,6.956296 11.659936,7.254066 11.450028,7.554798 11.242606,7.858734 11.038002,8.166116 10.836551,8.477183 10.638761,8.791909 10.445774,9.108748 10.257824,9.425224 10.073997,9.74 9.893162,10.052193 9.714225,10.360931 9.53614,10.665351 9.357904,10.964606 9.178556,11.257859999999999 8.997176,11.544303 8.812882,11.823155 8.624824,12.093675 8.432172000000001,12.355179 8.234093,12.607067 8.028761,12.850002 7.813345,13.086982 7.586873000000001,13.32073 7.350139,13.552152999999999 7.104169000000001,13.782013 6.850054,14.011099 6.588939,14.240245 6.330935,14.462634999999999 4.0,14.462634999999999 4.0,82.262635" stroke="#1f6fb2" stroke-width="0.1" /><text fill="#0a3d62" font-family="sans-serif" font-size="1.6" text-anchor="middle" x="10.3050055" y="43.1313175">09</text><polygon fill="#cfe3f7" fill-opacity="0.5" points="17.610011,82.262635 25.603662,82.262635 26.009032,18.619500000000002 30.220022,5.249607 27.720809,4.0 27.000129,4.9347 26.781839,5.2184349999999995 26.563508,5.503465 26.34544,5.790026 26.127944,6.078352 25.911332,6.368679 25.695916,6.6612469999999995 25.482014,6.956296 25.269947000000002,7.254066 25.060039,7.554798 24.852617000000002,7.858734 24.648013,8.166116 24.446562,8.477183 24.248772000000002,8.791909 24.055785,9.108748 23.867835,9.425224 23.684008,9.74 23.503173,10.052193 23.324236,10.360931 23.146151,10.665351 22.967914999999998,10.964606 22.788567,11.257859999999999 22.607187,11.544303 22.422893000000002,11.823155 22.234835,12.093675 22.042183,12.355179 21.844104,12.607067 21.638772,12.850002 21.423356,13.086982 21.196884,13.32073 20.96015,13.552152999999999 20.71418,13.782013 20.460065,14.011099 20.19895,14.240245 19.940946,14.462634999999999 17.610011,14.462634999999999 17.610011,82.262635" stroke="#1f6fb2" stroke-width="0.1" /><text fill="#0a3d62" font-family="sans-serif" font-size="1.6" text-anchor="middle" x="23.9150165" y="43.1313175">09</text><polygon fill="#cfe3f7" fill-opacity="0.5" points="31.220022,82.19168 62.920022,82.19168 62.920022,28.802211000000003 62.249429,28.071892000000002 61.841316,27.628201 61.430461,27.183065000000003 61.016226,26.736565000000002 60.597685999999996,26.288473000000003 60.173917,25.838563 59.743999,25.386616 59.30704,24.932442 58.863254,24.476921 58.416643,24.022007000000002 57.973468999999994,23.568316000000003 57.538798,23.115164 57.117614,22.661980000000003 56.714894,22.208414 56.335554,21.754340000000003 55.984382,21.299861 55.665934,20.845291 55.384395999999995,20.391081 55.143423999999996,19.937671 54.945936,19.485042999999997 54.792825,19.028939 54.681371,18.561197999999997 54.608308,18.077061 54.571763000000004,17.575670000000002 54.570014,17.057012 54.601247,16.521655 54.663436000000004,15.970575 54.754301999999996,15.404993 54.871327,14.826247 55.011783,14.235699 55.172776,13.634685 55.351284,13.024478 55.54419,12.406274 55.748307999999994,11.781185 55.960398,11.150237 56.492385,9.589837 41.276111,4.0 40.61014,4.863745 40.391850000000005,5.14748 40.173519,5.432510000000001 39.955451,5.719071 39.737955,6.007397 39.521343,6.2977240000000005 39.305927,6.590292 39.092025,6.885341 38.879958,7.183111 38.67005,7.483843 38.462628,7.7877790000000005 38.258024,8.095161000000001 38.056573,8.406228 37.858783,8.720953999999999 37.665796,9.037793 37.477846,9.354268999999999 37.294019,9.669045 37.113184000000004,9.981238000000001 36.934247,10.289976 36.756162,10.594396 36.577926,10.893651 36.398578,11.186905 36.217197999999996,11.473348 36.032904,11.7522 35.844846000000004,12.02272 35.652194,12.284224 35.454115,12.536112000000001 35.248783,12.779047 35.033367,13.016027000000001 34.806895,13.249775 34.570161,13.481198 34.324191,13.711058 34.070076,13.940144 33.808961000000004,14.16929 33.550957,14.39168 31.220022,14.39168 31.220022,82.19168" stroke="#1f6fb2" stroke-width="0.1" /><text fill="#0a3d62" font-family="sans-serif" font-size="1.6" text-anchor="middle" x="47.070022" y="43.09584">01</text><polygon fill="#cfe3f7" fill-opacity="0.5" points="63.920022,82.19168 95.620022,82.19168 95.620022,28.802211000000003 94.94942900000001,28.071892000000002 94.541316,27.628201 94.130461,27.183065000000003 93.716226,26.736565000000002 93.297686,26.288473000000003 92.873917,25.838563 92.443999,25.386616 92.00704,24.932442 91.563254,24.476921 91.11664300000001,24.022007000000002 90.673469,23.568316000000003 90.238798,23.115164 89.817614,22.661980000000003 89.414894,22.208414 89.035554,21.754340000000003 88.684382,21.299861 88.36593400000001,20.845291 88.084396,20.391081 87.843424,19.937671 87.645936,19.485042999999997 87.49282500000001,19.028939 87.381371,18.561197999999997 87.30830800000001,18.077061 87.271763,17.575670000000002 87.270014,17.057012 87.301247,16.521655 87.36343600000001,15.970575 87.454302,15.404993 87.571327,14.826247 87.711783,14.235699 87.872776,13.634685 88.05128400000001,13.024478 88.24419,12.406274 88.448308,11.781185 88.660398,11.150237 89.192385,9.589837 73.976111,4.0 73.31014,4.863745 73.09185000000001,5.14748 72.873519,5.432510000000001 72.655451,5.719071 72.437955,6.007397 72.221343,6.2977240000000005 72.005927,6.590292 71.79202500000001,6.885341 71.579958,7.183111 71.37005,7.483843 71.162628,7.7877790000000005 70.95802400000001,8.095161000000001 70.756573,8.406228 70.558783,8.720953999999999 70.365796,9.037793 70.177846,9.354268999999999 69.99401900000001,9.669045 69.813184,9.981238000000001 69.634247,10.289976 69.456162,10.594396 69.27792600000001,10.893651 69.098578,11.186905 68.917198,11.473348 68.732904,11.7522 68.544846,12.02272 68.352194,12.284224 68.154115,12.536112000000001 67.948783,12.779047 67.733367,13.016027000000001 67.506895,13.249775 67.270161,13.481198 67.024191,13.711058 66.770076,13.940144 66.508961,14.16929 66.250957,14.39168 63.920022,14.39168 63.920022,82.19168" stroke="#1f6fb2" stroke-width="0.1" /><text fill="#0a3d62" font-family="sans-serif" font-size="1.6" text-anchor="middle" x="79.770022" y="43.09584">01</text><polygon fill="#cfe3f7" fill-opacity="0.5" points="9.405757999999999,151.265779 39.226098,151.265779 44.641813,93.812397 43.786456,92.99774400000001 43.275687,92.51701800000001 42.755363,92.03881200000001 42.223541999999995,91.567245 41.681019,91.106804 41.130216000000004,90.65866 40.572061,90.22202800000001 40.007222999999996,89.79590900000001 39.436358999999996,89.37930300000001 38.860115,88.971211 38.279126,88.570637 37.694017,88.17659 37.105356,87.788045 36.512562,87.40335300000001 35.913410999999996,87.022085 35.306129,86.646355 34.689949999999996,86.279079 34.064118,85.92323900000001 33.427846,85.581864 32.780331000000004,85.258041 32.120772,84.954926 31.44839,84.675756 30.762548,84.423889 30.064937999999998,84.203321 29.360554,84.01510400000001 28.653273,83.85579 27.944555,83.72108 27.235629,83.606724 26.52765,83.508568 25.821737,83.422561 25.118999,83.344746 24.338496,83.262635 23.545410999999998,83.310142 22.830499,83.356699 22.112368,83.410995 21.391976,83.476872 20.670278,83.558265 19.948254,83.659204 19.226941,83.78381 18.507472999999997,83.936289 17.79217,84.120642 17.085955,84.338316 16.392008,84.58606300000001 15.710281,84.860625 15.040154,85.158969 14.380958,85.478137 13.731999,85.815239 13.092583999999999,86.16744700000001 12.462029,86.531981 11.839672,86.906107 11.224667,87.28725200000001 10.614353,87.674481 10.007043,88.07051200000001 9.404145,88.478541 8.808247999999999,88.90112500000001 8.222005,89.340875 7.6481439999999985,89.800444 7.089493000000001,90.282511 6.549007,90.789749 6.030024000000001,91.32454100000001 5.539075,91.88485200000001 5.078696000000001,92.459784 4.643018999999999,93.038027 4.0,93.918028 9.405757999999999,151.265779" stroke="#1f6fb2" stroke-width="0.1" /><text fill="#0a3d62" font-family="sans-serif" font-size="1.6" text-anchor="middle" x="24.3209065" y="117.264207">04</text><polygon fill="#cfe3f7" fill-opacity="0.5" points="51.047571,151.265779 80.86791099999999,151.265779 86.283626,93.812397 85.428269,92.99774400000001 84.91749999999999,92.51701800000001 84.397176,92.03881200000001 83.865355,91.567245 83.322832,91.106804 82.772029,90.65866 82.213874,90.22202800000001 81.649036,89.79590900000001 81.078172,89.37930300000001 80.50192799999999,88.971211 79.920939,88.570637 79.33583,88.17659 78.747169,87.788045 78.154375,87.40335300000001 77.555224,87.022085 76.947942,86.646355 76.331763,86.279079 75.70593099999999,85.92323900000001 75.069659,85.581864 74.422144,85.258041 73.762585,84.954926 73.090203,84.675756 72.404361,84.423889 71.706751,84.203321 71.00236699999999,84.01510400000001 70.295086,83.85579 69.586368,83.72108 68.877442,83.606724 68.16946300000001,83.508568 67.46355,83.422561 66.760812,83.344746 65.980309,83.262635 65.187224,83.310142 64.472312,83.356699 63.754181,83.410995 63.033789,83.476872 62.312090999999995,83.558265 61.590067,83.659204 60.868753999999996,83.78381 60.149286,83.936289 59.433983,84.120642 58.727768,84.338316 58.033821,84.58606300000001 57.352094,84.860625 56.681967,85.158969 56.022771,85.478137 55.373812,85.815239 54.734397,86.16744700000001 54.103842,86.531981 53.481485,86.906107 52.866479999999996,87.28725200000001 52.256166,87.674481 51.648855999999995,88.07051200000001 51.045958,88.478541 50.450061,88.90112500000001 49.863817999999995,89.340875 49.289957,89.800444 48.731306000000004,90.282511 48.19082,90.789749 47.671837,91.32454100000001 47.180887999999996,91.88485200000001 46.720509,92.459784 46.284831999999994,93.038027 45.641813,93.918028 51.047571,151.265779" stroke="#1f6fb2" stroke-width="0.1" /><text fill="#0a3d62" font-family="sans-serif" font-size="1.6" text-anchor="middle" x="65.96271949999999" y="117.264207">04</text><polygon fill="#cfe3f7" fill-opacity="0.5" points="62.0,166.94362900000002 61.468792,166.20472 61.125776,165.727236 60.782849999999996,165.24918000000002 60.439955999999995,164.770124 60.097036,164.28963800000002 59.754029,163.80729200000002 59.410876,163.322655 59.067533999999995,162.835325 58.724468,162.34555 58.383798,161.854311 58.048428,161.36209200000002 57.720839,160.86877700000002 57.403475,160.374269 57.098754,159.878523 56.809058,159.38154 56.536716999999996,158.883355 56.283996,158.38403300000002 56.053078,157.883641 55.846043,157.38223200000002 55.664861,156.87980000000002 55.51132,156.376024 55.386334000000005,155.86811400000002 55.288478,155.352123 55.215773999999996,154.82657 55.166596999999996,154.291563 55.139309999999995,153.74737900000002 55.120367,152.265779 33.0,152.265779 33.0,220.265779 62.0,220.265779 62.0,166.94362900000002 4.0,166.94362900000002 4.5312079999999995,166.20472 4.874224000000002,165.727236 5.21715,165.24918000000002 5.560044000000001,164.770124 5.902964000000001,164.28963800000002 6.245971000000001,163.80729200000002 6.589124000000002,163.322655 6.932466000000002,162.835325 7.275531999999998,162.34555 7.616202000000001,161.854311 7.951571999999999,161.36209200000002 8.279160999999998,160.86877700000002 8.596525,160.374269 8.901246,159.878523 9.190942,159.38154 9.463283,158.883355 9.716004000000002,158.38403300000002 9.946922,157.883641 10.153956999999998,157.38223200000002 10.335139000000002,156.87980000000002 10.488679999999999,156.376024 10.613665999999998,155.86811400000002 10.711521999999999,155.352123 10.784226,154.82657 10.833403,154.291563 10.860690000000002,153.74737900000002 10.879632999999998,152.265779 33.0,152.265779 33.0,220.265779 4.0,220.265779 4.0,166.94362900000002" stroke="#1f6fb2" stroke-width="0.1" /><text fill="#0a3d62" font-family="sans-serif" font-size="1.6" text-anchor="middle" x="33.0" y="186.265779">02</text><polygon fill="#cfe3f7" fill-opacity="0.5" points="63.0,163.537684 70.0,167.947684 77.0,163.537684 77.0,152.265779 63.0,152.265779 63.0,163.537684" stroke="#1f6fb2" stroke-width="0.1" /><text fill="#0a3d62" font-family="sans-serif" font-size="1.6" text-anchor="middle" x="70.0" y="160.10673150000002">10</text><polygon fill="#cfe3f7" fill-opacity="0.5" points="78.0,164.514906 78.029841,164.81788600000002 78.132547,165.156461 78.299332,165.46849400000002 78.523786,165.741993 78.797285,165.96644700000002 79.109318,166.13323200000002 79.447893,166.235938 79.750873,166.265779 105.249127,166.265779 105.552107,166.235938 105.890682,166.13323200000002 106.202715,165.96644700000002 106.476214,165.741993 106.70066800000001,165.46849400000002 106.867453,165.156461 106.970159,164.81788600000002 107.0,164.514906 107.0,154.01665200000002 106.970159,153.713672 106.867453,153.375097 106.70066800000001,153.063064 106.476214,152.789565 106.202715,152.565111 105.890682,152.398326 105.552107,152.29562 105.249127,152.265779 79.750873,152.265779 79.447893,152.29562 79.109318,152.398326 78.797285,152.565111 78.523786,152.789565 78.299332,153.063064 78.132547,153.375097 78.029841,153.713672 78.0,154.01665200000002 78.0,164.514906" stroke="#1f6fb2" stroke-width="0.1" /><text fill="#0a3d62" font-family="sans-serif" font-size="1.6" text-anchor="middle" x="92.5" y="159.265779">05</text><polygon fill="#cfe3f7" fill-opacity="0.5" points="4.0,233.514906 4.029841,233.81788600000002 4.132547,234.156461 4.299332,234.46849400000002 4.523786,234.741993 4.7972850000000005,234.96644700000002 5.109318,235.13323200000002 5.4478930000000005,235.235938 5.750873,235.265779 31.249127,235.265779 31.552107,235.235938 31.890682,235.13323200000002 32.202715,234.96644700000002 32.476214,234.741993 32.700668,234.46849400000002 32.867453,234.156461 32.970158999999995,233.81788600000002 33.0,233.514906 33.0,223.01665200000002 32.970158999999995,222.713672 32.867453,222.375097 32.700668,222.063064 32.476214,221.789565 32.202715,221.565111 31.890682,221.398326 31.552107,221.29562 31.249127,221.265779 5.750873,221.265779 5.4478930000000005,221.29562 5.109318,221.398326 4.7972850000000005,221.565111 4.523786,221.789565 4.299332,222.063064 4.132547,222.375097 4.029841,222.713672 4.0,223.01665200000002 4.0,233.514906" stroke="#1f6fb2" stroke-width="0.1" /><text fill="#0a3d62" font-family="sans-serif" font-size="1.6" text-anchor="middle" x="18.5" y="228.265779">05</text><polygon fill="#cfe3f7" fill-opacity="0.5" points="78.929359,232.28793000000002 78.940774,231.72667 78.96888,231.157656 79.011821,230.581464 79.06768199999999,229.998684 79.134495,229.409905 79.21024299999999,228.815704 79.29287,228.21663800000002 79.38028,227.61323900000002 79.59423799999999,226.17073200000002 64.569769,221.265779 63.942375999999996,221.648222 63.711164,221.787834 63.48247,221.923318 63.255801,222.05376900000002 63.03068,222.178337 62.806615,222.29623700000002 62.582285,222.40716700000002 62.355665,222.511613 62.125896,222.610005 61.8932,222.70227500000001 61.657864,222.78833 61.42018,222.86808000000002 61.180441,222.94144 60.93894,223.008328 60.695974,223.068665 60.451839,223.122376 60.206703,223.169418 59.95998,223.209926 59.71077,223.244389 59.458825,223.27328300000002 59.204161,223.29705 58.946811,223.316144 58.686824,223.331031 58.424259,223.34218800000002 58.159181000000004,223.350107 57.891662999999994,223.35529300000002 57.621776,223.35826600000001 57.349594999999994,223.35955800000002 57.07519,223.35971500000002 56.797118999999995,223.359294 56.797118999999995,233.359295 78.943057,233.359295 78.929359,232.28793000000002 34.664879,232.28793000000002 34.653464,231.72667 34.625358,231.157656 34.582417,230.581464 34.526556,229.998684 34.459743,229.409905 34.383995,228.815704 34.301368,228.21663800000002 34.213958,227.61323900000002 34.0,226.17073200000002 49.024468999999996,221.265779 49.651861999999994,221.648222 49.883074,221.787834 50.111768,221.923318 50.338437,222.05376900000002 50.563558,222.178337 50.787622999999996,222.29623700000002 51.011953,222.40716700000002 51.238573,222.511613 51.468342,222.610005 51.701038,222.70227500000001 51.936374,222.78833 52.174058,222.86808000000002 52.413797,222.94144 52.655298,223.008328 52.898264,223.068665 53.142399,223.122376 53.387535,223.169418 53.634258,223.209926 53.88346799999999,223.244389 54.135413,223.27328300000002 54.390077,223.29705 54.647427,223.316144 54.907414,223.331031 55.169979,223.34218800000002 55.435057,223.350107 55.702574999999996,223.35529300000002 55.972462,223.35826600000001 56.244642999999996,223.35955800000002 56.519048,223.35971500000002 56.797118999999995,223.359294 56.797118999999995,233.359295 34.651180999999994,233.359295 34.664879,232.28793000000002" stroke="#1f6fb2" stroke-width="0.1" /><text fill="#0a3d62" font-family="sans-serif" font-size="1.6" text-anchor="middle" x="56.797118999999995" y="227.31253700000002">03</text><polygon fill="#cfe3f7" fill-opacity="0.5" points="28.652002,243.10633 29.189843999999997,243.195332 29.727728,243.279256 30.265649,243.358098 30.803607,243.431859 31.341597999999998,243.500537 31.879621999999998,243.564132 32.417675,243.622642 32.955754999999996,243.67606700000002 33.493859,243.72440600000002 34.031987,243.767659 34.570133999999996,243.805825 35.108299,243.83890300000002 35.646479,243.866892 36.184670999999994,243.889794 36.722874,243.90760600000002 37.261084,243.920329 37.799299,243.927963 38.337517,243.930508 38.875735,243.927963 39.41395,243.920329 39.95216,243.90760600000002 40.490363,243.889794 41.028555999999995,243.866892 41.566734999999994,243.83890300000002 42.1049,243.805825 42.643048,243.767659 43.181174999999996,243.72440600000002 43.71928,243.67606700000002 44.25736,243.622642 44.795412999999996,243.564132 45.333436,243.500537 45.871427999999995,243.431859 46.409385,243.358098 46.947306999999995,243.279256 47.48519,243.195332 48.023032,243.10633 48.411317,243.038404 50.469324,246.46841600000002 51.524542,246.069433 49.714636999999996,236.265779 48.20716899999999,236.543745 47.687445,236.63466400000001 47.167762999999994,236.720662 46.648121,236.801738 46.128518,236.87789600000002 45.608951,236.949135 45.089417999999995,237.015457 44.569917,237.076862 44.050444999999996,237.133352 43.531000999999996,237.18492700000002 43.011581,237.23158800000002 42.492183999999995,237.273335 41.972806,237.310169 41.453446,237.342091 40.934101999999996,237.369102 40.41477,237.3912 39.895448,237.408388 39.376132999999996,237.420665 38.856823999999996,237.428031 38.337517,237.430486 37.81821,237.428031 37.298901,237.420665 36.779587,237.408388 36.260265,237.3912 35.740933,237.369102 35.221588,237.342091 34.702228,237.310169 34.182851,237.273335 33.663453,237.23158800000002 33.144034,237.18492700000002 32.624589,237.133352 32.105117,237.076862 31.585615999999998,237.015457 31.066083,236.949135 30.546515999999997,236.87789600000002 30.026912999999997,236.801738 29.507271,236.720662 28.987589,236.63466400000001 28.467865,236.543745 27.762271,236.41363900000002 27.762271,242.94735500000002 28.114202,243.012249 28.652002,243.10633 26.872539999999997,243.10633 26.334698,243.195332 25.796813999999998,243.279256 25.258892999999997,243.358098 24.720934999999997,243.431859 24.182944,243.500537 23.64492,243.564132 23.106866999999998,243.622642 22.568787,243.67606700000002 22.030682999999996,243.72440600000002 21.492555,243.767659 20.954407999999997,243.805825 20.416242999999998,243.83890300000002 19.878062999999997,243.866892 19.339871,243.889794 18.801668,243.90760600000002 18.263458,243.920329 17.725243,243.927963 17.187025,243.930508 16.648806999999998,243.927963 16.110591999999997,243.920329 15.572381999999998,243.90760600000002 15.034178999999998,243.889794 14.495985999999998,243.866892 13.957806999999999,243.83890300000002 13.419641999999998,243.805825 12.881493999999998,243.767659 12.343366999999999,243.72440600000002 11.805261999999999,243.67606700000002 11.267181999999998,243.622642 10.729128999999997,243.564132 10.191105999999998,243.500537 9.653113999999999,243.431859 9.115157,243.358098 8.577234999999998,243.279256 8.039351999999997,243.195332 7.50151,243.10633 7.113225,243.038404 5.055218,246.46841600000002 4.0,246.069433 5.809904999999997,236.265779 7.317373,236.543745 7.837097,236.63466400000001 8.356779,236.720662 8.876420999999997,236.801738 9.396023999999997,236.87789600000002 9.915591,236.949135 10.435123999999998,237.015457 10.954625,237.076862 11.474096999999997,237.133352 11.993540999999999,237.18492700000002 12.512960999999999,237.23158800000002 13.032357999999999,237.273335 13.551735999999998,237.310169 14.071095999999999,237.342091 14.59044,237.369102 15.109771999999998,237.3912 15.629093999999998,237.408388 16.148409,237.420665 16.667718,237.428031 17.187025,237.430486 17.706331999999996,237.428031 18.225640999999996,237.420665 18.744954999999997,237.408388 19.264277,237.3912 19.783609,237.369102 20.302954,237.342091 20.822314,237.310169 21.341690999999997,237.273335 21.861089,237.23158800000002 22.380508,237.18492700000002 22.899952999999996,237.133352 23.419424999999997,237.076862 23.938926,237.015457 24.458458999999998,236.949135 24.978026,236.87789600000002 25.497629,236.801738 26.017270999999997,236.720662 26.536952999999997,236.63466400000001 27.056676999999997,236.543745 27.762271,236.41363900000002 27.762271,242.94735500000002 27.410339999999998,243.012249 26.872539999999997,243.10633" stroke="#1f6fb2" stroke-width="0.1" /><text fill="#0a3d62" font-family="sans-serif" font-size="1.6" text-anchor="middle" x="27.762271" y="241.3670975">07</text><polygon fill="#cfe3f7" fill-opacity="0.5" points="77.392512,241.555754 77.970621,241.626593 78.54874799999999,241.693386 79.12689,241.756133 79.70504799999999,241.81483300000002 80.283219,241.869486 80.861404,241.920092 81.4396,241.96665000000002 82.017808,242.009161 82.596026,242.04762300000002 83.174253,242.082038 83.752489,242.112404 84.330731,242.138722 84.90898,242.160991 85.487234,242.179211 86.06549199999999,242.193383 86.643753,242.203505 87.222016,242.20957900000002 87.80027999999999,242.211603 88.378544,242.20957900000002 88.956807,242.203505 89.535068,242.193383 90.113326,242.179211 90.69157999999999,242.160991 91.26982899999999,242.138722 91.848071,242.112404 92.426307,242.082038 93.00453399999999,242.04762300000002 93.582752,242.009161 94.16095999999999,241.96665000000002 94.73915699999999,241.920092 95.317341,241.869486 95.895513,241.81483300000002 96.47367,241.756133 97.051812,241.693386 97.629939,241.626593 98.20804799999999,241.555754 98.78613999999999,241.480869 100.225526,241.284336 100.225526,236.265779 98.52238799999999,236.49832500000002 97.957955,236.57144 97.39354,236.640601 96.82914199999999,236.70580800000002 96.264759,236.767061 95.700392,236.824361 95.136039,236.877708 94.571699,236.92710200000002 94.00737099999999,236.972544 93.44305399999999,237.014033 92.878748,237.051571 92.31445,237.085156 91.75016099999999,237.11479 91.185879,237.14047200000002 90.621603,237.162203 90.057332,237.17998300000002 89.493066,237.193811 88.92880199999999,237.203689 88.364541,237.209615 87.80027999999999,237.211591 87.23602,237.209615 86.671758,237.203689 86.107495,237.193811 85.543228,237.17998300000002 84.978957,237.162203 84.414681,237.14047200000002 83.850399,237.11479 83.28611,237.085156 82.721813,237.051571 82.157506,237.014033 81.593189,236.972544 81.02886099999999,236.92710200000002 80.46452099999999,236.877708 79.900168,236.824361 79.335801,236.767061 78.771419,236.70580800000002 78.20702,236.640601 77.642605,236.57144 77.078172,236.49832500000002 76.375034,236.402318 76.375034,241.42087600000002 76.81442,241.480869 77.392512,241.555754 75.35755599999999,241.555754 74.779447,241.626593 74.20132,241.693386 73.623178,241.756133 73.04502,241.81483300000002 72.466849,241.869486 71.88866399999999,241.920092 71.310468,241.96665000000002 70.73226,242.009161 70.154042,242.04762300000002 69.57581499999999,242.082038 68.997579,242.112404 68.419337,242.138722 67.841088,242.160991 67.262834,242.179211 66.68457599999999,242.193383 66.106315,242.203505 65.528052,242.20957900000002 64.949788,242.211603 64.371524,242.20957900000002 63.793260999999994,242.203505 63.214999999999996,242.193383 62.636742,242.179211 62.058488,242.160991 61.480239,242.138722 60.901996999999994,242.112404 60.323761,242.082038 59.74553399999999,242.04762300000002 59.167316,242.009161 58.589107999999996,241.96665000000002 58.01091099999999,241.920092 57.432727,241.869486 56.85455499999999,241.81483300000002 56.276398,241.756133 55.698256,241.693386 55.12012899999999,241.626593 54.542019999999994,241.555754 53.963927999999996,241.480869 52.524542,241.284336 52.524542,236.265779 54.22767999999999,236.49832500000002 54.792113,236.57144 55.356528,236.640601 55.920925999999994,236.70580800000002 56.485309,236.767061 57.04967599999999,236.824361 57.614028999999995,236.877708 58.178368999999996,236.92710200000002 58.74269699999999,236.972544 59.307013999999995,237.014033 59.87132,237.051571 60.435618,237.085156 60.99990699999999,237.11479 61.564189,237.14047200000002 62.128465,237.162203 62.692736,237.17998300000002 63.257002,237.193811 63.821265999999994,237.203689 64.385527,237.209615 64.949788,237.211591 65.514048,237.209615 66.07831,237.203689 66.642573,237.193811 67.20684,237.17998300000002 67.77111099999999,237.162203 68.335387,237.14047200000002 68.89966899999999,237.11479 69.46395799999999,237.085156 70.028255,237.051571 70.59256199999999,237.014033 71.156879,236.972544 71.72120699999999,236.92710200000002 72.285547,236.877708 72.84989999999999,236.824361 73.414267,236.767061 73.97864899999999,236.70580800000002 74.543048,236.640601 75.107463,236.57144 75.671896,236.49832500000002 76.375034,236.402318 76.375034,241.42087600000002 75.935648,241.480869 75.35755599999999,241.555754" stroke="#1f6fb2" stroke-width="0.1" /><text fill="#0a3d62" font-family="sans-serif" font-size="1.6" text-anchor="middle" x="76.375034" y="239.23869100000002">08</text><polygon fill="#cfe3f7" fill-opacity="0.5" points="4.0,251.117543 4.022155,251.342486 4.102098,251.60602400000002 4.2319189999999995,251.848902 4.406629,252.061787 4.619514,252.236497 4.862392,252.366318 5.12593,252.44626100000002 5.350873,252.46841600000002 16.649127,252.46841600000002 16.87407,252.44626100000002 17.137608,252.366318 17.380485999999998,252.236497 17.593370999999998,252.061787 17.768081000000002,251.848902 17.897902000000002,251.60602400000002 17.977845000000002,251.342486 18.0,251.117543 18.0,248.81928900000003 17.977845000000002,248.59434600000003 17.897902000000002,248.33080800000002 17.768081000000002,248.08793000000003 17.593370999999998,247.87504500000003 17.380485999999998,247.70033500000002 17.137608,247.57051400000003 16.87407,247.49057100000002 16.649127,247.46841600000002 5.350873,247.46841600000002 5.12593,247.49057100000002 4.862392,247.57051400000003 4.619514,247.70033500000002 4.406629,247.87504500000003 4.2319189999999995,248.08793000000003 4.102098,248.33080800000002 4.022155,248.59434600000003 4.0,248.81928900000003 4.0,251.117543" stroke="#1f6fb2" stroke-width="0.1" /><text fill="#0a3d62" font-family="sans-serif" font-size="1.6" text-anchor="middle" x="11.0" y="249.96841600000002">06</text><polygon fill="#cfe3f7" fill-opacity="0.5" points="19.0,251.117543 19.022155,251.342486 19.102098,251.60602400000002 19.231919,251.848902 19.406629,252.061787 19.619514,252.236497 19.862392,252.366318 20.12593,252.44626100000002 20.350873,252.46841600000002 31.649127,252.46841600000002 31.87407,252.44626100000002 32.137608,252.366318 32.380486,252.236497 32.593371,252.061787 32.768081,251.848902 32.897902,251.60602400000002 32.977845,251.342486 33.0,251.117543 33.0,248.81928900000003 32.977845,248.59434600000003 32.897902,248.33080800000002 32.768081,248.08793000000003 32.593371,247.87504500000003 32.380486,247.70033500000002 32.137608,247.57051400000003 31.87407,247.49057100000002 31.649127,247.46841600000002 20.350873,247.46841600000002 20.12593,247.49057100000002 19.862392,247.57051400000003 19.619514,247.70033500000002 19.406629,247.87504500000003 19.231919,248.08793000000003 19.102098,248.33080800000002 19.022155,248.59434600000003 19.0,248.81928900000003 19.0,251.117543" stroke="#1f6fb2" stroke-width="0.1" /><text fill="#0a3d62" font-family="sans-serif" font-size="1.6" text-anchor="middle" x="26.0" y="249.96841600000002">06</text></svg>