<?xml version="1.0" encoding="utf-8" ?>
<svg baseProfile="full" height="177.211603cm" version="1.1" viewBox="0 0 158.0 177.211603" width="158.0cm" xmlns="http://www.w3.org/2000/svg" xmlns:ev="http://www.w3.org/2001/xml-events" xmlns:xlink="http://www.w3.org/1999/xlink"><defs /><rect fill="#f7f3ea" height="169.211603" stroke="#333" stroke-width="0.15" width="150.0" x="4.0" y="4.0" /><text fill="#000" font-family="sans-serif" font-size="1.4" x="4.0" y="3.0">PLANO DE CORTE — ancho 150 cm — largo 1.69 m</text><polygon fill="#cfe3f7" fill-opacity="0.5" points="4.0,82.262635 11.993651,82.262635 12.399021000000001,18.619500000000002 16.610011,5.249607 14.110797999999999,4.0 13.390118000000001,4.9347 13.171828000000001,5.2184349999999995 12.953497,5.503465 12.735429,5.790026 12.517933,6.078352 12.301321000000002,6.368679 12.085905,6.6612469999999995 11.872003,6.956296 11.659936,7.254066 11.450028,7.554798 11.242606,7.858734 11.038002,8.166116 10.836551,8.477183 10.638761,8.791909 10.445774,9.108748 10.257824,9.425224 10.073997,9.74 9.893162,10.052193 9.714225,10.360931 9.53614,10.665351 9.357904,10.964606 9.178556,11.257859999999999 8.997176,11.544303 8.812882,11.823155 8.624824,12.093675 8.432172000000001,12.355179 8.234093,12.607067 8.028761,12.850002 7.813345,13.086982 7.586873000000001,13.32073 7.350139,13.552152999999999 7.104169000000001,13.782013 6.850054,14.011099 6.588939,14.240245 6.330935,14.462634999999999 4.0,14.462634999999999 4.0,82.262635" stroke="#1f6fb2" stroke-width="0.1" /><text fill="#0a3d62" font-family="sans-serif" font-size="1.6" text-anchor="middle" x="10.3050055" y="43.1313175">09</text><polygon fill="#cfe3f7" fill-opacity="0.5" points="17.610011,82.262635 25.603662,82.262635 26.009032,18.619500000000002 30.220022,5.249607 27.720809,4.0 27.000129,4.9347 26.781839,5.2184349999999995 26.563508,5.503465 26.34544,5.790026 26.127944,6.078352 25.911332,6.368679 25.695916,6.6612469999999995 25.482014,6.956296 25.269947000000002,7.254066 25.060039,7.554798 24.852617000000002,7.858734 24.648013,8.166116 24.446562,8.477183 24.248772000000002,8.791909 24.055785,9.108748 23.867835,9.425224 23.684008,9.74 23.503173,10.052193 23.324236,10.360931 23.146151,10.665351 22.967914999999998,10.964606 22.788567,11.257859999999999 22.607187,11.544303 22.422893000000002,11.823155 22.234835,12.093675 22.042183,12.355179 21.844104,12.607067 21.638772,12.850002 21.423356,13.086982 21.196884,13.32073 20.96015,13.552152999999999 20.71418,13.782013 20.460065,14.011099 20.19895,14.240245 19.940946,14.462634999999999 17.610011,14.462634999999999 17.610011,82.262635" stroke="#1f6fb2" stroke-width="0.1" /><text fill="#0a3d62" font-family="sans-serif" font-size="1.6" text-anchor="middle" x="23.9150165" y="43.1313175">09</text><polygon fill="#cfe3f7" fill-opacity="0.5" points="31.220022,82.19168 62.920022,82.19168 62.920022,28.802211000000003 62.249429,28.071892000000002 61.841316,27.628201 61.430461,27.183065000000003 61.016226,26.736565000000002 60.597685999999996,26.288473000000003 60.173917,25.838563 59.743999,25.386616 59.30704,24.932442 58.863254,24.476921 58.416643,24.022007000000002 57.973468999999994,23.568316000000003 57.538798,23.115164 57.117614,22.661980000000003 56.714894,22.208414 56.335554,21.754340000000003 55.984382,21.299861 55.665934,20.845291 55.384395999999995,20.391081 55.143423999999996,19.937671 54.945936,19.485042999999997 54.792825,19.028939 54.681371,18.561197999999997 54.608308,18.077061 54.571763000000004,17.575670000000002 54.570014,17.057012 54.601247,16.521655 54.663436000000004,15.970575 54.754301999999996,15.404993 54.871327,14.826247 55.011783,14.235699 55.172776,13.634685 55.351284,13.024478 55.54419,12.406274 55.748307999999994,11.781185 55.960398,11.150237 56.492385,9.589837 41.276111,4.0 40.61014,4.863745 40.391850000000005,5.14748 40.173519,5.432510000000001 39.955451,5.719071 39.737955,6.007397 39.521343,6.2977240000000005 39.305927,6.590292 39.092025,6.885341 38.879958,7.183111 38.67005,7.483843 38.462628,7.7877790000000005 38.258024,8.095161000000001 38.056573,8.406228 37.858783,8.720953999999999 37.665796,9.037793 37.477846,9.354268999999999 37.294019,9.669045 37.113184000000004,9.981238000000001 36.934247,10.289976 36.756162,10.594396 36.577926,10.893651 36.398578,11.186905 36.217197999999996,11.473348 36.032904,11.7522 35.844846000000004,12.02272 35.652194,12.284224 35.454115,12.536112000000001 35.248783,12.779047 35.033367,13.016027000000001 34.806895,13.249775 34.570161,13.481198 34.324191,13.711058 34.070076,13.940144 33.808961000000004,14.16929 33.550957,14.39168 31.220022,14.39168 31.220022,82.19168" stroke="#1f6fb2" stroke-width="0.1" /><text fill="#0a3d62" font-family="sans-serif" font-size="1.6" text-anchor="middle" x="47.070022" y="43.09584">01</text><polygon fill="#cfe3f7" fill-opacity="0.5" points="63.920022,82.19168 95.620022,82.19168 95.620022,28.802211000000003 94.94942900000001,28.071892000000002 94.541316,27.628201 94.130461,27.183065000000003 93.716226,26.736565000000002 93.297686,26.288473000000003 92.873917,25.838563 92.443999,25.386616 92.00704,24.932442 91.563254,24.476921 91.11664300000001,24.022007000000002 90.673469,23.568316000000003 90.238798,23.115164 89.817614,22.661980000000003 89.414894,22.208414 89.035554,21.754340000000003 88.684382,21.299861 88.36593400000001,20.845291 88.084396,20.391081 87.843424,19.937671 87.645936,19.485042999999997 87.49282500000001,19.028939 87.381371,18.561197999999997 87.30830800000001,18.077061 87.271763,17.575670000000002 87.270014,17.057012 87.301247,16.521655 87.36343600000001,15.970575 87.454302,15.404993 87.571327,14.826247 87.711783,14.235699 87.872776,13.634685 88.05128400000001,13.024478 88.24419,12.406274 88.448308,11.781185 88.660398,11.150237 89.192385,9.589837 73.976111,4.0 73.31014,4.863745 73.09185000000001,5.14748 72.873519,5.432510000000001 72.655451,5.719071 72.437955,6.007397 72.221343,6.2977240000000005 72.005927,6.590292 71.79202500000001,6.885341 71.579958,7.183111 71.37005,7.483843 71.162628,7.7877790000000005 70.95802400000001,8.095161000000001 70.756573,8.406228 70.558783,8.720953999999999 70.365796,9.037793 70.177846,9.354268999999999 69.99401900000001,9.669045 69.813184,9.981238000000001 69.634247,10.289976 69.456162,10.594396 69.27792600000001,10.893651 69.098578,11.186905 68.917198,11.473348 68.732904,11.7522 68.544846,12.02272 68.352194,12.284224 68.154115,12.536112000000001 67.948783,12.779047 67.733367,13.016027000000001 67.506895,13.249775 67.270161,13.481198 67.024191,13.711058 66.770076,13.940144 66.508961,14.16929 66.250957,14.39168 63.920022,14.39168 63.920022,82.19168" stroke="#1f6fb2" stroke-width="0.1" /><text fill="#0a3d62" font-family="sans-serif" font-size="1.6" text-anchor="middle" x="79.770022" y="43.09584">01</text><polygon fill="#cfe3f7" fill-opacity="0.5" points="102.02578,72.003144 131.84612,72.003144 137.26183500000002,14.549762000000001 136.406478,13.735109000000001 135.895709,13.254383 135.375385,12.776177 134.84356400000001,12.30461 134.301041,11.844169 133.75023800000002,11.396025 133.192083,10.959392999999999 132.62724500000002,10.533273999999999 132.056381,10.116668 131.480137,9.708576 130.899148,9.308002 130.314039,8.913955 129.725378,8.52541 129.132584,8.140718 128.533433,7.75945 127.926151,7.38372 127.309972,7.016444 126.68414000000001,6.660604 126.04786800000001,6.319229 125.40035300000001,5.995406 124.74079400000001,5.692291 124.06841200000001,5.413121 123.38257,5.161254 122.68496,4.940686 121.98057600000001,4.752469 121.273295,4.593155 120.56457700000001,4.458445 119.85565100000001,4.344089 119.147672,4.245933 118.441759,4.1599260000000005 117.73902100000001,4.082111 116.958518,4.0 116.16543300000001,4.047507 115.45052100000001,4.094064 114.73239000000001,4.14836 114.011998,4.214237 113.2903,4.29563 112.568276,4.396569 111.846963,4.521175 111.12749500000001,4.673654 110.412192,4.858007 109.705977,5.075681 109.01203000000001,5.323428 108.330303,5.59799 107.660176,5.8963339999999995 107.00098,6.215502 106.35202100000001,6.5526040000000005 105.71260600000001,6.904812 105.082051,7.269346 104.45969400000001,7.643472 103.844689,8.024617 103.234375,8.411846 102.627065,8.807877000000001 102.024167,9.215906 101.42827,9.638490000000001 100.842027,10.078240000000001 100.26816600000001,10.537809 99.70951500000001,11.019876 99.16902900000001,11.527114000000001 98.650046,12.061906 98.159097,12.622217000000001 97.69871800000001,13.197149000000001 97.263041,13.775392 96.620022,14.655393 102.02578,72.003144" stroke="#1f6fb2" stroke-width="0.1" /><text fill="#0a3d62" font-family="sans-serif" font-size="1.6" text-anchor="middle" x="116.94092850000001" y="38.001572">04</text><polygon fill="#cfe3f7" fill-opacity="0.5" points="9.405757999999999,151.265779 39.226098,151.265779 44.641813,93.812397 43.786456,92.99774400000001 43.275687,92.51701800000001 42.755363,92.03881200000001 42.223541999999995,91.567245 41.681019,91.106804 41.130216000000004,90.65866 40.572061,90.22202800000001 40.007222999999996,89.79590900000001 39.436358999999996,89.37930300000001 38.860115,88.971211 38.279126,88.570637 37.694017,88.17659 37.105356,87.788045 36.512562,87.40335300000001 35.913410999999996,87.022085 35.306129,86.646355 34.689949999999996,86.279079 34.064118,85.92323900000001 33.427846,85.581864 32.780331000000004,85.258041 32.120772,84.954926 31.44839,84.675756 30.762548,84.423889 30.064937999999998,84.203321 29.360554,84.01510400000001 28.653273,83.85579 27.944555,83.72108 27.235629,83.606724 26.52765,83.508568 25.821737,83.422561 25.118999,83.344746 24.338496,83.262635 23.545410999999998,83.310142 22.830499,83.356699 22.112368,83.410995 21.391976,83.476872 20.670278,83.558265 19.948254,83.659204 19.226941,83.78381 18.507472999999997,83.936289 17.79217,84.120642 17.085955,84.338316 16.392008,84.58606300000001 15.710281,84.860625 15.040154,85.158969 14.380958,85.478137 13.731999,85.815239 13.092583999999999,86.16744700000001 12.462029,86.531981 11.839672,86.906107 11.224667,87.28725200000001 10.614353,87.674481 10.007043,88.07051200000001 9.404145,88.478541 8.808247999999999,88.90112500000001 8.222005,89.340875 7.6481439999999985,89.800444 7.089493000000001,90.282511 6.549007,90.789749 6.030024000000001,91.32454100000001 5.539075,91.88485200000001 5.078696000000001,92.459784 4.643018999999999,93.038027 4.0,93.918028 9.405757999999999,151.265779" stroke="#1f6fb2" stroke-width="0.1" /><text fill="#0a3d62" font-family="sans-serif" font-size="1.6" text-anchor="middle" x="24.3209065" y="117.264207">04</text><polygon fill="#cfe3f7" fill-opacity="0.5" points="103.641813,97.940485 103.11060499999999,97.201576 102.767589,96.724092 102.424663,96.246036 102.081769,95.76698 101.738849,95.286494 101.395842,94.804148 101.052689,94.319511 100.709347,93.832181 100.366281,93.34240600000001 100.025611,92.851167 99.690241,92.358948 99.362652,91.865633 99.045288,91.371125 98.740567,90.87537900000001 98.450871,90.37839600000001 98.17853,89.880211 97.925809,89.380889 97.694891,88.880497 97.487856,88.379088 97.306674,87.876656 97.153133,87.37288000000001 97.028147,86.86497 96.930291,86.348979 96.857587,85.823426 96.80841,85.288419 96.781123,84.744235 96.76218,83.262635 74.641813,83.262635 74.641813,151.262635 103.641813,151.262635 103.641813,97.940485 45.641813,97.940485 46.173021,97.201576 46.516037,96.724092 46.858963,96.246036 47.201857000000004,95.76698 47.544776999999996,95.286494 47.887783999999996,94.804148 48.230937,94.319511 48.574279000000004,93.832181 48.917345,93.34240600000001 49.258015,92.851167 49.593385,92.358948 49.920974,91.865633 50.238338,91.371125 50.543059,90.87537900000001 50.832755,90.37839600000001 51.105096,89.880211 51.357817,89.380889 51.588735,88.880497 51.79577,88.379088 51.976952,87.876656 52.130493,87.37288000000001 52.255478999999994,86.86497 52.353335,86.348979 52.426039,85.823426 52.475216,85.288419 52.502503000000004,84.744235 52.521446,83.262635 74.641813,83.262635 74.641813,151.262635 45.641813,151.262635 45.641813,97.940485" stroke="#1f6fb2" stroke-width="0.1" /><text fill="#0a3d62" font-family="sans-serif" font-size="1.6" text-anchor="middle" x="74.641813" y="117.262635">02</text><polygon fill="#cfe3f7" fill-opacity="0.5" points="104.641813,94.53454 111.641813,98.94454 118.641813,94.53454 118.641813,83.262635 104.641813,83.262635 104.641813,94.53454" stroke="#1f6fb2" stroke-width="0.1" /><text fill="#0a3d62" font-family="sans-serif" font-size="1.6" text-anchor="middle" x="111.641813" y="91.1035875">10</text><polygon fill="#cfe3f7" fill-opacity="0.5" points="119.641813,95.511762 119.671654,95.814742 119.77436,96.153317 119.941145,96.46535 120.165599,96.738849 120.439098,96.963303 120.751131,97.130088 121.08970599999999,97.232794 121.392686,97.262635 146.89094,97.262635 147.19392,97.232794 147.532495,97.130088 147.844528,96.963303 148.11802699999998,96.738849 148.342481,96.46535 148.509266,96.153317 148.611972,95.814742 148.641813,95.511762 148.641813,85.013508 148.611972,84.710528 148.509266,84.371953 148.342481,84.05992 148.11802699999998,83.786421 147.844528,83.56196700000001 147.532495,83.395182 147.19392,83.29247600000001 146.89094,83.262635 121.392686,83.262635 121.08970599999999,83.29247600000001 120.751131,83.395182 120.439098,83.56196700000001 120.165599,83.786421 119.941145,84.05992 119.77436,84.371953 119.671654,84.710528 119.641813,85.013508 119.641813,95.511762" stroke="#1f6fb2" stroke-width="0.1" /><text fill="#0a3d62" font-family="sans-serif" font-size="1.6" text-anchor="middle" x="134.141813" y="90.262635">05</text><polygon fill="#cfe3f7" fill-opacity="0.5" points="4.0,164.514906 4.029841,164.81788600000002 4.132547,165.156461 4.299332,165.46849400000002 4.523786,165.741993 4.7972850000000005,165.96644700000002 5.109318,166.13323200000002 5.4478930000000005,166.235938 5.750873,166.265779 31.249127,166.265779 31.552107,166.235938 31.890682,166.13323200000002 32.202715,165.96644700000002 32.476214,165.741993 32.700668,165.46849400000002 32.867453,165.156461 32.970158999999995,164.81788600000002 33.0,164.514906 33.0,154.01665200000002 32.970158999999995,153.713672 32.867453,153.375097 32.700668,153.063064 32.476214,152.789565 32.202715,152.565111 31.890682,152.398326 31.552107,152.29562 31.249127,152.265779 5.750873,152.265779 5.4478930000000005,152.29562 5.109318,152.398326 4.7972850000000005,152.565111 4.523786,152.789565 4.299332,153.063064 4.132547,153.375097 4.029841,153.713672 4.0,154.01665200000002 4.0,164.514906" stroke="#1f6fb2" stroke-width="0.1" /><text fill="#0a3d62" font-family="sans-serif" font-size="1.6" text-anchor="middle" x="18.5" y="159.265779">05</text><polygon fill="#cfe3f7" fill-opacity="0.5" points="78.929359,163.28793000000002 78.940774,162.72667 78.96888,162.157656 79.011821,161.581464 79.06768199999999,160.998684 79.134495,160.409905 79.21024299999999,159.815704 79.29287,159.21663800000002 79.38028,158.61323900000002 79.59423799999999,157.17073200000002 64.569769,152.265779 63.942375999999996,152.648222 63.711164,152.787834 63.48247,152.923318 63.255801,153.05376900000002 63.03068,153.178337 62.806615,153.29623700000002 62.582285,153.40716700000002 62.355665,153.511613 62.125896,153.610005 61.8932,153.70227500000001 61.657864,153.78833 61.42018,153.86808000000002 61.180441,153.94144 60.93894,154.008328 60.695974,154.068665 60.451839,154.122376 60.206703,154.169418 59.95998,154.209926 59.71077,154.244389 59.458825,154.27328300000002 59.204161,154.29705 58.946811,154.316144 58.686824,154.331031 58.424259,154.34218800000002 58.159181000000004,154.350107 57.891662999999994,154.35529300000002 57.621776,154.35826600000001 57.349594999999994,154.35955800000002 57.07519,154.35971500000002 56.797118999999995,154.359294 56.797118999999995,164.359295 78.943057,164.359295 78.929359,163.28793000000002 34.664879,163.28793000000002 34.653464,162.72667 34.625358,162.157656 34.582417,161.581464 34.526556,160.998684 34.459743,160.409905 34.383995,159.815704 34.301368,159.21663800000002 34.213958,158.61323900000002 34.0,157.17073200000002 49.024468999999996,152.265779 49.651861999999994,152.648222 49.883074,152.787834 50.111768,152.923318 50.338437,153.05376900000002 50.563558,153.178337 50.787622999999996,153.29623700000002 51.011953,153.40716700000002 51.238573,153.511613 51.468342,153.610005 51.701038,153.70227500000001 51.936374,153.78833 52.174058,153.86808000000002 52.413797,153.94144 52.655298,154.008328 52.898264,154.068665 53.142399,154.122376 53.387535,154.169418 53.634258,154.209926 53.88346799999999,154.244389 54.135413,154.27328300000002 54.390077,154.29705 54.647427,154.316144 54.907414,154.331031 55.169979,154.34218800000002 55.435057,154.350107 55.702574999999996,154.35529300000002 55.972462,154.35826600000001 56.244642999999996,154.35955800000002 56.519048,154.35971500000002 56.797118999999995,154.359294 56.797118999999995,164.359295 34.651180999999994,164.359295 34.664879,163.28793000000002" stroke="#1f6fb2" stroke-width="0.1" /><text fill="#0a3d62" font-family="sans-serif" font-size="1.6" text-anchor="middle" x="56.797118999999995" y="158.31253700000002">03</text><polygon fill="#cfe3f7" fill-opacity="0.5" points="105.24623999999999,159.10633 105.78408199999998,159.195332 106.32196599999999,159.279256 106.85988699999999,159.358098 107.39784499999999,159.431859 107.935836,159.500537 108.47385999999999,159.564132 109.01191299999999,159.622642 109.54999299999999,159.67606700000002 110.08809699999999,159.72440600000002 110.62622499999999,159.767659 111.16437199999999,159.805825 111.70253699999999,159.83890300000002 112.24071699999999,159.866892 112.77890899999998,159.889794 113.31711199999998,159.90760600000002 113.85532199999999,159.920329 114.39353699999998,159.927963 114.93175499999998,159.930508 115.46997299999998,159.927963 116.00818799999999,159.920329 116.54639799999998,159.90760600000002 117.08460099999999,159.889794 117.62279399999998,159.866892 118.16097299999998,159.83890300000002 118.69913799999999,159.805825 119.23728599999998,159.767659 119.77541299999999,159.72440600000002 120.31351799999999,159.67606700000002 120.851598,159.622642 121.38965099999999,159.564132 121.927674,159.500537 122.46566599999998,159.431859 123.00362299999999,159.358098 123.54154499999999,159.279256 124.079428,159.195332 124.61726999999999,159.10633 125.00555499999999,159.038404 127.06356199999999,162.46841600000002 128.11878,162.069433 126.30887499999999,152.265779 124.80140699999998,152.543745 124.28168299999999,152.63466400000001 123.76200099999998,152.720662 123.242359,152.801738 122.72275599999999,152.87789600000002 122.20318899999998,152.949135 121.68365599999998,153.015457 121.164155,153.076862 120.64468299999999,153.133352 120.125239,153.18492700000002 119.605819,153.23158800000002 119.08642199999998,153.273335 118.56704399999998,153.310169 118.04768399999999,153.342091 117.52833999999999,153.369102 117.009008,153.3912 116.48968599999999,153.408388 115.97037099999999,153.420665 115.45106199999998,153.428031 114.93175499999998,153.430486 114.41244799999998,153.428031 113.89313899999999,153.420665 113.37382499999998,153.408388 112.854503,153.3912 112.33517099999999,153.369102 111.81582599999999,153.342091 111.29646599999998,153.310169 110.77708899999999,153.273335 110.257691,153.23158800000002 109.738272,153.18492700000002 109.21882699999999,153.133352 108.699355,153.076862 108.17985399999999,153.015457 107.66032099999998,152.949135 107.14075399999999,152.87789600000002 106.62115099999998,152.801738 106.101509,152.720662 105.58182699999999,152.63466400000001 105.062103,152.543745 104.35650899999999,152.41363900000002 104.35650899999999,158.94735500000002 104.70844,159.012249 105.24623999999999,159.10633 103.46677799999999,159.10633 102.928936,159.195332 102.39105199999999,159.279256 101.85313099999999,159.358098 101.31517299999999,159.431859 100.77718199999998,159.500537 100.23915799999999,159.564132 99.70110499999998,159.622642 99.16302499999999,159.67606700000002 98.62492099999999,159.72440600000002 98.08679299999999,159.767659 97.54864599999999,159.805825 97.01048099999998,159.83890300000002 96.47230099999999,159.866892 95.93410899999999,159.889794 95.39590599999998,159.90760600000002 94.85769599999999,159.920329 94.319481,159.927963 93.781263,159.930508 93.243045,159.927963 92.70482999999999,159.920329 92.16662,159.90760600000002 91.62841699999998,159.889794 91.09022399999999,159.866892 90.55204499999999,159.83890300000002 90.01387999999999,159.805825 89.475732,159.767659 88.93760499999999,159.72440600000002 88.39949999999999,159.67606700000002 87.86141999999998,159.622642 87.32336699999999,159.564132 86.78534399999998,159.500537 86.24735199999999,159.431859 85.70939499999999,159.358098 85.17147299999999,159.279256 84.63358999999998,159.195332 84.09574799999999,159.10633 83.70746299999999,159.038404 81.64945599999999,162.46841600000002 80.59423799999999,162.069433 82.40414299999999,152.265779 83.911611,152.543745 84.43133499999999,152.63466400000001 84.951017,152.720662 85.47065899999998,152.801738 85.99026199999999,152.87789600000002 86.509829,152.949135 87.02936199999999,153.015457 87.54886299999998,153.076862 88.06833499999999,153.133352 88.58777899999998,153.18492700000002 89.107199,153.23158800000002 89.62659599999999,153.273335 90.145974,153.310169 90.66533399999999,153.342091 91.18467799999999,153.369102 91.70400999999998,153.3912 92.22333199999998,153.408388 92.74264699999999,153.420665 93.26195599999998,153.428031 93.781263,153.430486 94.30057,153.428031 94.81987899999999,153.420665 95.339193,153.408388 95.85851499999998,153.3912 96.37784699999999,153.369102 96.89719199999999,153.342091 97.416552,153.310169 97.93592899999999,153.273335 98.45532699999998,153.23158800000002 98.97474599999998,153.18492700000002 99.49419099999999,153.133352 100.01366299999998,153.076862 100.53316399999999,153.015457 101.052697,152.949135 101.57226399999999,152.87789600000002 102.091867,152.801738 102.61150899999998,152.720662 103.13119099999999,152.63466400000001 103.65091499999998,152.543745 104.35650899999999,152.41363900000002 104.35650899999999,158.94735500000002 104.00457799999998,159.012249 103.46677799999999,159.10633" stroke="#1f6fb2" stroke-width="0.1" /><text fill="#0a3d62" font-family="sans-serif" font-size="1.6" text-anchor="middle" x="104.35650899999999" y="157.3670975">07</text><polygon fill="#cfe3f7" fill-opacity="0.5" points="28.86797,172.555754 29.446078999999997,172.626593 30.024206,172.693386 30.602348,172.756133 31.180505999999998,172.81483300000002 31.758677,172.869486 32.336861999999996,172.920092 32.915058,172.96665000000002 33.493266,173.009161 34.071484,173.04762300000002 34.649710999999996,173.082038 35.227947,173.112404 35.806189,173.138722 36.384438,173.160991 36.962692,173.179211 37.540949999999995,173.193383 38.119211,173.203505 38.697474,173.20957900000002 39.275738,173.211603 39.854002,173.20957900000002 40.432265,173.203505 41.010526,173.193383 41.588784,173.179211 42.167038,173.160991 42.745287,173.138722 43.323529,173.112404 43.901765,173.082038 44.479991999999996,173.04762300000002 45.05821,173.009161 45.636418,172.96665000000002 46.214614999999995,172.920092 46.792799,172.869486 47.370971,172.81483300000002 47.949128,172.756133 48.52727,172.693386 49.105396999999996,172.626593 49.683505999999994,172.555754 50.261598,172.480869 51.700984,172.284336 51.700984,167.265779 49.997845999999996,167.49832500000002 49.433413,167.57144 48.868998,167.640601 48.3046,167.70580800000002 47.740217,167.767061 47.17585,167.824361 46.611497,167.877708 46.047157,167.92710200000002 45.482828999999995,167.972544 44.918512,168.014033 44.354206,168.051571 43.789908,168.085156 43.225619,168.11479 42.661337,168.14047200000002 42.097061,168.162203 41.53279,168.17998300000002 40.968524,168.193811 40.40426,168.203689 39.839999,168.209615 39.275738,168.211591 38.711478,168.209615 38.147216,168.203689 37.582953,168.193811 37.018686,168.17998300000002 36.454415,168.162203 35.890139,168.14047200000002 35.325857,168.11479 34.761568,168.085156 34.197271,168.051571 33.632964,168.014033 33.068647,167.972544 32.504318999999995,167.92710200000002 31.939979,167.877708 31.375626,167.824361 30.811259,167.767061 30.246876999999998,167.70580800000002 29.682478,167.640601 29.118063,167.57144 28.55363,167.49832500000002 27.850492,167.402318 27.850492,172.42087600000002 28.289877999999998,172.480869 28.86797,172.555754 26.833014,172.555754 26.254905,172.626593 25.676778,172.693386 25.098636,172.756133 24.520478,172.81483300000002 23.942307,172.869486 23.364122,172.920092 22.785926,172.96665000000002 22.207718,173.009161 21.6295,173.04762300000002 21.051273,173.082038 20.473036999999998,173.112404 19.894795,173.138722 19.316546,173.160991 18.738292,173.179211 18.160034,173.193383 17.581773,173.203505 17.00351,173.20957900000002 16.425246,173.211603 15.846981999999999,173.20957900000002 15.268718999999999,173.203505 14.690458,173.193383 14.1122,173.179211 13.533945999999998,173.160991 12.955696999999999,173.138722 12.377455,173.112404 11.799219,173.082038 11.220991999999999,173.04762300000002 10.642774,173.009161 10.064566,172.96665000000002 9.486369,172.920092 8.908185,172.869486 8.330012999999997,172.81483300000002 7.751856,172.756133 7.173714,172.693386 6.595586999999998,172.626593 6.0174780000000005,172.555754 5.439385999999999,172.480869 4.0,172.284336 4.0,167.265779 5.703137999999999,167.49832500000002 6.267571,167.57144 6.831986000000001,167.640601 7.396383999999998,167.70580800000002 7.960767000000001,167.767061 8.525133999999998,167.824361 9.089486999999998,167.877708 9.653827,167.92710200000002 10.218155,167.972544 10.782471999999999,168.014033 11.346778,168.051571 11.911076,168.085156 12.475364999999998,168.11479 13.039646999999999,168.14047200000002 13.603923,168.162203 14.168194,168.17998300000002 14.73246,168.193811 15.296724,168.203689 15.860985,168.209615 16.425246,168.211591 16.989506,168.209615 17.553767999999998,168.203689 18.118031,168.193811 18.682298,168.17998300000002 19.246569,168.162203 19.810845,168.14047200000002 20.375127,168.11479 20.939415999999998,168.085156 21.503712999999998,168.051571 22.068019999999997,168.014033 22.632337,167.972544 23.196665,167.92710200000002 23.761004999999997,167.877708 24.325357999999998,167.824361 24.889725,167.767061 25.454107,167.70580800000002 26.018506,167.640601 26.582921,167.57144 27.147354,167.49832500000002 27.850492,167.402318 27.850492,172.42087600000002 27.411106,172.480869 26.833014,172.555754" stroke="#1f6fb2" stroke-width="0.1" /><text fill="#0a3d62" font-family="sans-serif" font-size="1.6" text-anchor="middle" x="27.850492" y="170.23869100000002">08</text><polygon fill="#cfe3f7" fill-opacity="0.5" points="52.700984,170.914906 52.723138999999996,171.139849 52.803081999999996,171.403387 52.932902999999996,171.646265 53.107613,171.85915 53.320498,172.03386 53.563376,172.163681 53.826913999999995,172.243624 54.051857,172.265779 65.350111,172.265779 65.575054,172.243624 65.838592,172.163681 66.08147,172.03386 66.294355,171.85915 66.469065,171.646265 66.598886,171.403387 66.678829,171.139849 66.700984,170.914906 66.700984,168.61665200000002 66.678829,168.39170900000002 66.598886,168.128171 66.469065,167.88529300000002 66.294355,167.67240800000002 66.08147,167.497698 65.838592,167.36787700000002 65.575054,167.287934 65.350111,167.265779 54.051857,167.265779 53.826913999999995,167.287934 53.563376,167.36787700000002 53.320498,167.497698 53.107613,167.67240800000002 52.932902999999996,167.88529300000002 52.803081999999996,168.128171 52.723138999999996,168.39170900000002 52.700984,168.61665200000002 52.700984,170.914906" stroke="#1f6fb2" stroke-width="0.1" /><text fill="#0a3d62" font-family="sans-serif" font-size="1.6" text-anchor="middle" x="59.700984" y="169.765779">06</text><polygon fill="#cfe3f7" fill-opacity="0.5" points="67.700984,170.914906 67.723139,171.139849 67.803082,171.403387 67.93290300000001,171.646265 68.107613,171.85915 68.320498,172.03386 68.563376,172.163681 68.826914,172.243624 69.05185700000001,172.265779 80.350111,172.265779 80.57505400000001,172.243624 80.838592,172.163681 81.08147000000001,172.03386 81.29435500000001,171.85915 81.469065,171.646265 81.59888600000001,171.403387 81.67882900000001,171.139849 81.700984,170.914906 81.700984,168.61665200000002 81.67882900000001,168.39170900000002 81.59888600000001,168.128171 81.469065,167.88529300000002 81.29435500000001,167.67240800000002 81.08147000000001,167.497698 80.838592,167.36787700000002 80.57505400000001,167.287934 80.350111,167.265779 69.05185700000001,167.265779 68.826914,167.287934 68.563376,167.36787700000002 68.320498,167.497698 68.107613,167.67240800000002 67.93290300000001,167.88529300000002 67.803082,168.128171 67.723139,168.39170900000002 67.700984,168.61665200000002 67.700984,170.914906" stroke="#1f6fb2" stroke-width="0.1" /><text fill="#0a3d62" font-family="sans-serif" font-size="1.6" text-anchor="middle" x="74.700984" y="169.765779">06</text></svg>