<?xml version="1.0" encoding="utf-8" ?>
<svg baseProfile="full" height="166.19168cm" version="1.1" viewBox="0 0 144.60098438145667 166.19168" width="144.60098438145667cm" xmlns="http://www.w3.org/2000/svg" xmlns:ev="http://www.w3.org/2001/xml-events" xmlns:xlink="http://www.w3.org/1999/xlink"><defs /><g fill="none" id="CONSTRUCCION" stroke="#888888" stroke-width="0.08"><line x1="5.7" x2="5.7" y1="14.39168" y2="80.19168" /><line x1="125.48998344804427" x2="125.48998344804427" y1="70.19168" y2="58.19168" /><line x1="4.0" x2="31.0" y1="92.19168" y2="92.19168" /><line x1="128.60098438145667" x2="140.60098438145667" y1="93.41168" y2="93.41168" /></g><g fill="none" id="CORTE" stroke="#d00000" stroke-width="0.08"><polygon points="3.0,81.19168 34.7,81.19168 34.7,27.802211000000003 34.029407,27.071892000000002 33.621294,26.628201 33.210439,26.183065000000003 32.796204,25.736565000000002 32.377663999999996,25.288473000000003 31.953895,24.838563 31.523977,24.386616 31.087018,23.932442 30.643231999999998,23.476921 30.196621,23.022007000000002 29.753446999999998,22.568316000000003 29.318776,22.115164 28.897592,21.661980000000003 28.494872,21.208414 28.115531999999998,20.754340000000003 27.76436,20.299861 27.445912,19.845291 27.164374,19.391081 26.923402,18.937671 26.725914,18.485042999999997 26.572803,18.028939 26.461349,17.561197999999997 26.388286,17.077061 26.351741,16.575670000000002 26.349992,16.057012 26.381225,15.521654999999999 26.443414,14.970575 26.53428,14.404993 26.651305,13.826247 26.791761,13.235699 26.952754,12.634685 27.131262,12.024478 27.324168,11.406274 27.528285999999998,10.781185 27.740375999999998,10.150237 28.272363,8.589837 13.056089,3.0 12.390118,3.863745 12.171828,4.14748 11.953497,4.432510000000001 11.735429,4.719071 11.517933000000001,5.007397 11.301321000000002,5.2977240000000005 11.085905,5.590292 10.872003,5.885341 10.659936,6.183111 10.450028,6.483843 10.242606,6.7877790000000005 10.038002,7.095161 9.836551,7.4062280000000005 9.638760999999999,7.720954 9.445774,8.037793 9.257824,8.354268999999999 9.073997,8.669045 8.893162,8.981238000000001 8.714224999999999,9.289976 8.53614,9.594396 8.357904,9.893651 8.178556,10.186905 7.997176,10.473348 7.812882,10.7522 7.624824,11.02272 7.4321720000000004,11.284224 7.234093,11.536112000000001 7.028761,11.779047 6.813345,12.016027000000001 6.586873,12.249775 6.350139,12.481198 6.104169,12.711058 5.850054,12.940144 5.588939,13.16929 5.330935,13.39168 3.0,13.39168 3.0,81.19168" /><polygon points="68.7,17.869529999999997 68.168792,17.130620999999998 67.825776,16.653137 67.48285,16.175081 67.139956,15.696025 66.797036,15.215539000000001 66.454029,14.733192999999998 66.110876,14.248555999999999 65.767534,13.761225999999999 65.424468,13.271451 65.083798,12.780212 64.748428,12.287992999999998 64.420839,11.794678 64.103475,11.30017 63.798754,10.804424 63.509058,10.307440999999999 63.236717,9.809256 62.983996000000005,9.309934 62.753078,8.809542 62.546043000000004,8.308133 62.364861000000005,7.805700999999999 62.21132,7.301925000000001 62.08633400000001,6.794015 61.988478,6.278024 61.915774,5.752471 61.866597,5.217464 61.83931,4.67328 61.820367000000005,3.19168 39.7,3.19168 39.7,71.19168 68.7,71.19168 68.7,17.869529999999997" /><polygon points="95.83224,14.120315 95.843655,13.559054999999999 95.871761,12.990041 95.914702,12.413848999999999 95.970563,11.831069000000001 96.037376,11.24229 96.113124,10.648088999999999 96.195751,10.049023 96.283161,9.445623999999999 96.497119,8.003117 81.47265,3.098164 80.845257,3.480607 80.614045,3.620219 80.385351,3.755703 80.158682,3.8861540000000003 79.933561,4.010722 79.709496,4.128622 79.485166,4.239552 79.258546,4.343998 79.028777,4.44239 78.796081,4.534660000000001 78.560745,4.620715000000001 78.323061,4.700465 78.08332200000001,4.773825 77.84182100000001,4.840713 77.598855,4.90105 77.35472,4.9547609999999995 77.109584,5.001803000000001 76.86286100000001,5.042311 76.613651,5.076774 76.361706,5.105668 76.107042,5.129435 75.849692,5.148529 75.58970500000001,5.163416 75.32714,5.1745730000000005 75.062062,5.182492 74.794544,5.187678 74.524657,5.190651 74.252476,5.191943 73.978071,5.1921 73.7,5.191679000000001 73.7,15.19168 95.845938,15.19168 95.83224,14.120315" /><polygon points="105.75862650885347,71.19168 135.57896650885345,71.19168 140.99468150885346,13.738298 140.13932450885346,12.923645 139.62855550885345,12.442919 139.10823150885346,11.964713 138.57641050885346,11.493146 138.03388750885347,11.032705 137.48308450885347,10.584561 136.92492950885347,10.147929 136.36009150885346,9.72181 135.78922750885346,9.305204 135.21298350885345,8.897112 134.63199450885347,8.496538000000001 134.04688550885345,8.102491 133.45822450885345,7.713946 132.86543050885345,7.329254 132.26627950885347,6.947986 131.65899750885347,6.572256 131.04281850885346,6.20498 130.41698650885346,5.84914 129.78071450885346,5.507765 129.13319950885347,5.183942 128.47364050885346,4.880827 127.80125850885346,4.601657 127.11541650885346,4.3497900000000005 126.41780650885346,4.129222 125.71342250885345,3.941005 125.00614150885346,3.7816910000000004 124.29742350885346,3.6469810000000003 123.58849750885346,3.5326250000000003 122.88051850885346,3.434469 122.17460550885346,3.348462 121.47186750885346,3.2706470000000003 120.69136450885347,3.188536 119.89827950885346,3.236043 119.18336750885346,3.2826 118.46523650885347,3.3368960000000003 117.74484450885346,3.402773 117.02314650885346,3.484166 116.30112250885347,3.585105 115.57980950885346,3.709711 114.86034150885347,3.86219 114.14503850885346,4.046543 113.43882350885346,4.264217 112.74487650885347,4.511964 112.06314950885346,4.786526 111.39302250885346,5.0848700000000004 110.73382650885347,5.404038 110.08486750885346,5.74114 109.44545250885346,6.093348 108.81489750885346,6.457882 108.19254050885345,6.832008 107.57753550885346,7.213153 106.96722150885346,7.600382 106.35991150885346,7.996413 105.75701350885346,8.404442 105.16111650885347,8.827026 104.57487350885346,9.266776 104.00101250885346,9.726345 103.44236150885347,10.208412 102.90187550885346,10.71565 102.38289250885346,11.250442 101.89194350885346,11.810753 101.43156450885346,12.385685 100.99588750885346,12.963928 100.35286850885346,13.843929 105.75862650885347,71.19168" /><polygon points="3.0,97.440807 3.0298410000000002,97.74378700000001 3.132547,98.082362 3.299332,98.394395 3.5237860000000003,98.667894 3.7972850000000005,98.89234800000001 4.109318,99.059133 4.4478930000000005,99.161839 4.750873,99.19168 30.249127,99.19168 30.552107,99.161839 30.890682,99.059133 31.202715,98.89234800000001 31.476214,98.667894 31.700668,98.394395 31.867453,98.082362 31.970159,97.74378700000001 32.0,97.440807 32.0,86.942553 31.970159,86.639573 31.867453,86.300998 31.700668,85.98896500000001 31.476214,85.715466 31.202715,85.49101200000001 30.890682,85.32422700000001 30.552107,85.22152100000001 30.249127,85.19168 4.750873,85.19168 4.4478930000000005,85.22152100000001 4.109318,85.32422700000001 3.7972850000000005,85.49101200000001 3.5237860000000003,85.715466 3.299332,85.98896500000001 3.132547,86.300998 3.0298410000000002,86.639573 3.0,86.942553 3.0,97.440807" /><polygon points="36.0,88.840807 36.022155,89.06575000000001 36.102098,89.329288 36.231919,89.57216600000001 36.406629,89.78505100000001 36.619514,89.959761 36.862392,90.08958200000001 37.12593,90.16952500000001 37.350873,90.19168 48.649127,90.19168 48.87407,90.16952500000001 49.137608,90.08958200000001 49.380486,89.959761 49.593371,89.78505100000001 49.768081,89.57216600000001 49.897902,89.329288 49.977845,89.06575000000001 50.0,88.840807 50.0,86.54255300000001 49.977845,86.31761 49.897902,86.054072 49.768081,85.811194 49.593371,85.598309 49.380486,85.42359900000001 49.137608,85.293778 48.87407,85.213835 48.649127,85.19168 37.350873,85.19168 37.12593,85.213835 36.862392,85.293778 36.619514,85.42359900000001 36.406629,85.598309 36.231919,85.811194 36.102098,86.054072 36.022155,86.31761 36.0,86.54255300000001 36.0,88.840807" /><polygon points="55.889731,91.867513 56.427573,91.95651500000001 56.965457,92.040439 57.503378,92.119281 58.041336,92.193042 58.579327,92.26172000000001 59.117351,92.325315 59.655404,92.383825 60.193484,92.43725 60.731588,92.485589 61.269716,92.52884200000001 61.807863,92.567008 62.346028,92.600086 62.884208,92.62807500000001 63.422399999999996,92.65097700000001 63.960603,92.668789 64.498813,92.68151200000001 65.03702799999999,92.68914600000001 65.57524599999999,92.691691 66.113464,92.68914600000001 66.651679,92.68151200000001 67.18988900000001,92.668789 67.728092,92.65097700000001 68.266285,92.62807500000001 68.804464,92.600086 69.342629,92.567008 69.880777,92.52884200000001 70.418904,92.485589 70.957009,92.43725 71.49508900000001,92.383825 72.033142,92.325315 72.57116500000001,92.26172000000001 73.109157,92.193042 73.647114,92.119281 74.185036,92.040439 74.722919,91.95651500000001 75.260761,91.867513 75.649046,91.799587 77.707053,95.22959900000001 78.762271,94.830616 76.952366,85.02696200000001 75.444898,85.304928 74.925174,85.395847 74.405492,85.481845 73.88585,85.562921 73.366247,85.63907900000001 72.84667999999999,85.710318 72.327147,85.77664 71.807646,85.83804500000001 71.288174,85.894535 70.76873,85.94611 70.24931,85.992771 69.729913,86.034518 69.210535,86.071352 68.691175,86.103274 68.171831,86.130285 67.652499,86.152383 67.133177,86.169571 66.613862,86.181848 66.09455299999999,86.189214 65.57524599999999,86.191669 65.055939,86.189214 64.53663,86.181848 64.017316,86.169571 63.497994,86.152383 62.978662,86.130285 62.459317,86.103274 61.939957,86.071352 61.42058,86.034518 60.901182,85.992771 60.381763,85.94611 59.862318,85.894535 59.342846,85.83804500000001 58.823345,85.77664 58.303812,85.710318 57.784245,85.63907900000001 57.264642,85.562921 56.745,85.481845 56.225318,85.395847 55.705594,85.304928 55.0,85.174822 55.0,91.708538 55.351931,91.773432 55.889731,91.867513" /><polygon points="84.36797019072833,90.33583700000001 84.94607919072833,90.406676 85.52420619072834,90.47346900000001 86.10234819072834,90.53621600000001 86.68050619072834,90.594916 87.25867719072833,90.649569 87.83686219072833,90.700175 88.41505819072833,90.746733 88.99326619072833,90.78924400000001 89.57148419072833,90.827706 90.14971119072833,90.862121 90.72794719072833,90.892487 91.30618919072833,90.918805 91.88443819072833,90.941074 92.46269219072833,90.959294 93.04095019072832,90.973466 93.61921119072834,90.98358800000001 94.19747419072833,90.98966200000001 94.77573819072833,90.991686 95.35400219072834,90.98966200000001 95.93226519072833,90.98358800000001 96.51052619072833,90.973466 97.08878419072833,90.959294 97.66703819072833,90.941074 98.24528719072833,90.918805 98.82352919072834,90.892487 99.40176519072833,90.862121 99.97999219072832,90.827706 100.55821019072833,90.78924400000001 101.13641819072834,90.746733 101.71461519072832,90.700175 102.29279919072833,90.649569 102.87097119072834,90.594916 103.44912819072833,90.53621600000001 104.02727019072833,90.47346900000001 104.60539719072833,90.406676 105.18350619072834,90.33583700000001 105.76159819072834,90.260952 107.20098419072833,90.064419 107.20098419072833,85.045862 105.49784619072832,85.278408 104.93341319072833,85.351523 104.36899819072833,85.42068400000001 103.80460019072834,85.48589100000001 103.24021719072833,85.547144 102.67585019072834,85.604444 102.11149719072833,85.657791 101.54715719072833,85.70718500000001 100.98282919072832,85.752627 100.41851219072834,85.794116 99.85420619072833,85.831654 99.28990819072833,85.865239 98.72561919072834,85.894873 98.16133719072833,85.92055500000001 97.59706119072833,85.94228600000001 97.03279019072833,85.96006600000001 96.46852419072833,85.973894 95.90426019072834,85.983772 95.33999919072834,85.989698 94.77573819072833,85.991674 94.21147819072833,85.989698 93.64721619072833,85.983772 93.08295319072833,85.973894 92.51868619072833,85.96006600000001 91.95441519072833,85.94228600000001 91.39013919072833,85.92055500000001 90.82585719072833,85.894873 90.26156819072833,85.865239 89.69727119072833,85.831654 89.13296419072833,85.794116 88.56864719072833,85.752627 88.00431919072832,85.70718500000001 87.43997919072834,85.657791 86.87562619072833,85.604444 86.31125919072834,85.547144 85.74687719072833,85.48589100000001 85.18247819072833,85.42068400000001 84.61806319072834,85.351523 84.05363019072833,85.278408 83.35049219072833,85.182401 83.35049219072833,90.20095900000001 83.78987819072833,90.260952 84.36797019072833,90.33583700000001" /><polygon points="111.20098438145666,163.19168 119.19463538145666,163.19168 119.60000538145667,99.548545 123.81099538145666,86.178652 121.31178238145667,84.929045 120.59110238145666,85.86374500000001 120.37281238145667,86.14748 120.15448138145666,86.43251000000001 119.93641338145666,86.719071 119.71891738145666,87.00739700000001 119.50230538145667,87.297724 119.28688938145666,87.590292 119.07298738145667,87.88534100000001 118.86092038145667,88.18311100000001 118.65101238145667,88.48384300000001 118.44359038145667,88.787779 118.23898638145667,89.095161 118.03753538145666,89.406228 117.83974538145667,89.720954 117.64675838145666,90.03779300000001 117.45880838145666,90.354269 117.27498138145667,90.66904500000001 117.09414638145667,90.981238 116.91520938145666,91.28997600000001 116.73712438145667,91.594396 116.55888838145667,91.893651 116.37954038145666,92.18690500000001 116.19816038145666,92.473348 116.01386638145667,92.7522 115.82580838145667,93.02272 115.63315638145667,93.28422400000001 115.43507738145667,93.536112 115.22974538145667,93.779047 115.01432938145666,94.01602700000001 114.78785738145666,94.249775 114.55112338145666,94.481198 114.30515338145666,94.71105800000001 114.05103838145666,94.940144 113.78992338145666,95.16929 113.53191938145666,95.39168000000001 111.20098438145666,95.39168000000001 111.20098438145666,163.19168" /><polygon points="127.60098438145667,96.46358500000001 134.60098438145667,100.873585 141.60098438145667,96.46358500000001 141.60098438145667,85.19168 127.60098438145667,85.19168 127.60098438145667,96.46358500000001" /></g><g fill="none" id="COSTURA" stroke="#00a000" stroke-width="0.08"><polygon points="4.0,14.39168 5.7,14.39168 5.97322309224137,14.158271665326833 6.245197104607772,13.923838668981665 6.514672957224245,13.687356349292491 6.780401570215815,13.447800044587314 7.041133863707521,13.204145093194127 7.295620757824393,12.955366833440928 7.542613172691465,12.700440603655721 7.780862028433773,12.4383417421665 8.009237792253327,12.168142770594468 8.227955220661608,11.890009022408815 8.438075250928389,11.604793716009231 8.640672004851584,11.3133607878815 8.836819604229113,11.01657417451141 9.027592170858892,10.715297812384742 9.214063826538833,10.410395637987286 9.397308693066854,10.10273158780483 9.578400892240875,9.793169598323157 9.758414545858805,9.482573606028055 9.938423775718563,9.171807547405306 10.119502703618068,8.861735358940699 10.302725451355233,8.553220977120024 10.489166021061454,8.247128243209833 10.679610215527912,7.944091676867058 10.873937191842117,7.644024375374903 11.071848274477324,7.346697933744857 11.273044787906777,7.051883946988413 11.477228056603728,6.759354010117061 11.68409940504143,6.468879718142291 11.893360157693127,6.180232666075595 12.104711639032075,5.893184448928461 12.317855173531521,5.607506661712384 12.532492085664718,5.322970899438852 12.748323699904914,5.039348757119357 12.96505134072536,4.75641182976539 13.182376332599304,4.47393171238844 13.399999999999999,4.19168 27.010657588816198,9.19168 26.793179708657007,9.829576772395896 26.579026794428597,10.466659937929634 26.37152381206174,11.102115889739057 26.173995727487227,11.735131020962012 25.989767506635825,12.364891724736337 25.822164115438326,12.990584394199878 25.6745105198255,13.61139542249048 25.550131685728125,14.22651120274598 25.452352579076987,14.835118128104229 25.38449816580286,15.436402591703063 25.349893411836526,16.029550986680327 25.351863283108766,16.61374970617387 25.393732745550352,17.188185143321526 25.478826765092073,17.752043691261143 25.610470307664702,18.30451174313056 25.791842422021578,18.844805291139423 26.02226796517015,19.37292214428 26.29691872180985,19.889702555782947 26.61076067880374,20.396028524648948 26.958759823014898,20.89278204987869 27.335882141306385,21.380845130472853 27.737093620541277,21.861099765432133 28.15736024758264,22.334427953757206 28.59164800929355,22.801711694448763 29.034922892537075,23.263832986507488 29.482150884176278,23.721673828934073 29.928297971074233,24.176116220729195 30.368558329371023,24.62801810192383 30.801382430275687,25.07789408745733 31.227648974349925,25.52600277368124 31.648294755426676,25.972596631925494 32.06425656733884,26.417928133520046 32.47647120391934,26.862249749794827 32.885875459001085,27.30581395207979 33.293406126417,27.748873211704865 33.7,28.19168 33.7,80.19168 4.0,80.19168" /><polygon points="39.7,4.19168 60.83307085508476,4.19168 60.83963056095192,4.704722393059674 60.868892143368384,5.288300755108514 60.92206898336494,5.8668145807981755 61.00133519526704,6.439803457732367 61.108864893400145,7.006806973514804 61.24680776193241,7.567368379676649 61.41562999531672,8.121283410126297 61.61305486263652,8.668759170645385 61.83655335655092,9.210040602323229 62.083596469719055,9.745372646249152 62.351655194800024,10.275000243512467 62.63820052445297,10.799168335202479 62.940703451337,11.318121862408516 63.25663496811124,11.832105766219884 63.58346606743481,12.341364987725894 63.91866774196684,12.846144468015874 64.25971098436645,13.346689148179129 64.60406678729274,13.843243969304973 64.94926158170944,14.336057758265158 65.29406793201512,14.825466685933792 65.63848866311307,15.311893154621712 65.98257886346151,15.7957632298976 66.3263936215187,16.277502977330116 66.66998802574291,16.757538462487936 67.01341716459235,17.236295750939753 67.3567361265253,17.714200908254213 67.7,18.191679999999998 67.7,70.19168 39.7,70.19168" /><polygon points="73.7,6.19168 73.97760022778756,6.192100168915569 74.25513466394335,6.19194141544763 74.53253751683557,6.190624817212673 74.80974299483246,6.187571451827192 75.08668530630226,6.182202396907677 75.36329865961314,6.17393873007062 75.63951726313337,6.162201528932513 75.91527532523115,6.146411871109848 76.1905070542747,6.125990834219115 76.46514665863226,6.100359495876807 76.73912834667203,6.068938933699416 77.01238632676225,6.031150225303432 77.28485476191544,5.98641459199642 77.55642107108571,5.934301344635042 77.82683766766857,5.874807504312647 78.09583273542339,5.8080068538761065 78.36313445810954,5.73397317617229 78.6284710194864,5.652780254048068 78.89157060331334,5.564501870350309 79.15216139334973,5.469211807925886 79.40997157335495,5.366983849621667 79.66472932708835,5.257891778284524 79.91616283830933,5.142009376761326 80.1640278571573,5.019441510002542 80.40852197478985,4.890791234896738 80.65019858669943,4.757062790757504 80.88962119403065,4.6192718113915285 81.12735329792808,4.478433930605496 81.36395839953634,4.335564782206091 81.60000000000001,4.19168 95.38404875209022,8.69168 95.29373404660626,9.300581043844737 95.20559345544777,9.909021675293182 95.1218010929402,10.516541481949051 95.04453107340902,11.122680051416054 94.97595751117969,11.7269769712979 94.91825452057766,12.3289718291983 94.87359621592842,12.928204212720969 94.84415671155739,13.52421370946961 94.83211012179008,14.116539907047942 94.83307085508477,14.19168 73.7,14.19168" /><polygon points="101.38404875209022,14.127680000000002 101.79897687819734,13.559832120480484 102.22136521674355,12.99922629206567 102.65867398016798,12.453104565860254 103.1182490483839,11.928599896265174 103.60323695355615,11.428838197741978 104.11146695629984,10.951871615980352 104.64042648799425,10.4954261213965 105.18760298001868,10.05722768440662 105.75048386375244,9.635002275426913 106.3265565705748,9.226475864873576 106.91330853186507,8.829374423162808 107.50822717900255,8.441423920710811 108.10881082299873,8.060367940962529 108.71356306407476,7.685577529340943 109.32279160778567,7.319344396095742 109.93699213843254,6.964264570133291 110.55666034031643,6.622934080359953 111.1822918977384,6.297948955682092 111.8143824949995,5.991905225006072 112.45342781640085,5.707398917238256 113.09992354624347,5.44702606128501 113.75436536882846,5.2133826860526975 114.41724896845686,5.009064820447682 115.08889890204381,4.835962382286384 115.76865434347084,4.691899371566297 116.45550248866755,4.573247446019925 117.14843009423826,4.476376450622452 117.8464239167873,4.397656230349063 118.54847071291901,4.33345663017494 119.25355723923772,4.280147495075266 119.96067025234775,4.234098670025224 120.66879650885346,4.19168 121.3645249071671,4.264873108659035 122.05910129002596,4.341783787168553 122.75137364197526,4.426129605379032 123.44018994756024,4.521628133140956 124.12439819132611,4.631996940304805 124.8028463578181,4.76095359672106 125.4743824315814,4.912215672240203 126.13785439716129,5.089500736712716 126.79215047810581,5.296374420674999 127.43700940683796,5.533190899957681 128.07298073963108,5.7972427432214015 128.70064632907489,6.085700570772934 129.32058802775904,6.395735002919052 129.93338768827329,6.724516659966527 130.53962716320729,7.069216162222136 131.13988830515078,7.427004129992651 131.73475296669346,7.795051183584846 132.32480300042505,8.170527943305494 132.9105975016805,8.550678029739839 133.4921409471496,8.93452415836284 134.06886528595643,9.322925587425472 134.64017612705214,9.716826068672258 135.20547907938794,10.117169353847732 135.764179751915,10.524899194696427 136.31568375358455,10.94095934296287 136.85939669334778,11.36629355039159 137.39472418015583,11.80184556872712 137.92107182295996,12.24855914971399 138.43811387770762,12.707021094603403 138.94750832901005,13.175182430061945 139.4518015939132,13.649813725128874 139.9535442656167,14.127680000000002 134.66879650885346,70.19168 106.66879650885346,70.19168" /><polygon points="4.0,86.99168 4.015371775677416,86.8356077423871 4.060896373990971,86.68553325410794 4.134824310157963,86.54722381358432 4.234314575050762,86.42599457505077 4.355543813584319,86.32650431015797 4.493853254107928,86.25257637399098 4.643927742387097,86.20705177567743 4.800000000000001,86.19168 30.2,86.19168 30.3560722576129,86.20705177567741 30.50614674589207,86.25257637399098 30.64445618641568,86.32650431015797 30.765685424949236,86.42599457505077 30.865175689842037,86.54722381358432 30.93910362600903,86.68553325410794 30.984628224322584,86.8356077423871 31.0,86.99168 31.0,97.39168000000001 30.984628224322584,97.54775225761291 30.93910362600903,97.69782674589207 30.865175689842037,97.83613618641569 30.765685424949236,97.95736542494924 30.64445618641568,98.05685568984204 30.50614674589207,98.13078362600903 30.3560722576129,98.1763082243226 30.2,98.19168 4.800000000000001,98.19168 4.643927742387097,98.1763082243226 4.493853254107929,98.13078362600903 4.355543813584319,98.05685568984204 4.234314575050762,97.95736542494924 4.134824310157963,97.83613618641569 4.060896373990971,97.69782674589207 4.015371775677416,97.54775225761291 4.0,97.39168000000001" /><polygon points="37.0,86.59168000000001 37.007685887838704,86.51364387119355 37.030448186995486,86.43860662705397 37.06741215507898,86.36945190679216 37.11715728752538,86.30883728752539 37.17777190679216,86.25909215507899 37.246926627053966,86.22212818699549 37.321963871193546,86.19936588783871 37.4,86.19168 48.6,86.19168 48.678036128806454,86.19936588783871 48.753073372946034,86.22212818699549 48.82222809320784,86.25909215507899 48.88284271247462,86.30883728752539 48.93258784492102,86.36945190679216 48.969551813004514,86.43860662705397 48.992314112161296,86.51364387119355 49.0,86.59168000000001 49.0,88.79168 48.992314112161296,88.86971612880646 48.969551813004514,88.94475337294604 48.93258784492102,89.01390809320785 48.88284271247462,89.07452271247462 48.82222809320784,89.12426784492102 48.753073372946034,89.16123181300452 48.678036128806454,89.1839941121613 48.6,89.19168 37.4,89.19168 37.321963871193546,89.1839941121613 37.246926627053966,89.16123181300452 37.17777190679216,89.12426784492102 37.11715728752538,89.07452271247462 37.06741215507898,89.01390809320785 37.030448186995486,88.94475337294604 37.007685887838704,88.86971612880646 37.0,88.79168" /><polygon points="55.0,86.19168 55.52876230476821,86.28918 56.057524609536415,86.38168 56.58628691430462,86.46918000000001 57.11504921907283,86.55168 57.643811523841045,86.62918 58.17257382860925,86.70168000000001 58.70133613337746,86.76918 59.23009843814567,86.83168 59.758860742913875,86.88918000000001 60.28762304768208,86.94168 60.8163853524503,86.98918 61.345147657218504,87.03168000000001 61.87390996198671,87.06918 62.40267226675492,87.10168 62.93143457152313,87.12918 63.460196876291334,87.15168 63.98895918105954,87.16918000000001 64.51772148582775,87.18168 65.04648379059596,87.18918000000001 65.57524609536416,87.19168 66.10400840013239,87.18918000000001 66.6327707049006,87.18168 67.1615330096688,87.16918000000001 67.69029531443701,87.15168 68.21905761920522,87.12918 68.74781992397342,87.10168 69.27658222874163,87.06918 69.80534453350984,87.03168000000001 70.33410683827805,86.98918 70.86286914304625,86.94168 71.39163144781446,86.88918000000001 71.92039375258267,86.83168 72.44915605735088,86.76918 72.97791836211908,86.70168000000001 73.50668066688729,86.62918 74.0354429716555,86.55168 74.5642052764237,86.46918000000001 75.09296758119191,86.38168 75.62172988596012,86.28918 76.15049219072833,86.19168 77.35049219072833,92.69168 76.15049219072833,90.69168 75.62172988596012,90.78918 75.09296758119191,90.88168 74.5642052764237,90.96918000000001 74.0354429716555,91.05168 73.50668066688729,91.12918 72.97791836211908,91.20168000000001 72.44915605735088,91.26918 71.92039375258267,91.33168 71.39163144781446,91.38918000000001 70.86286914304625,91.44168 70.33410683827805,91.48918 69.80534453350984,91.53168000000001 69.27658222874163,91.56918 68.74781992397342,91.60168 68.21905761920522,91.62918 67.69029531443701,91.65168 67.1615330096688,91.66918000000001 66.6327707049006,91.68168 66.10400840013239,91.68918000000001 65.57524609536416,91.69168 65.04648379059596,91.68918000000001 64.51772148582775,91.68168 63.98895918105954,91.66918000000001 63.460196876291334,91.65168 62.93143457152313,91.62918 62.40267226675492,91.60168 61.87390996198671,91.56918 61.345147657218504,91.53168000000001 60.8163853524503,91.48918 60.28762304768208,91.44168 59.758860742913875,91.38918000000001 59.23009843814567,91.33168 58.70133613337746,91.26918 58.17257382860925,91.20168000000001 57.643811523841045,91.12918 57.11504921907283,91.05168 56.58628691430462,90.96918000000001 56.057524609536415,90.88168 55.52876230476821,90.78918 55.0,90.69168" /><polygon points="83.35049219072833,86.19168 83.92175449549654,86.26968000000001 84.49301680026475,86.34368 85.06427910503295,86.41368 85.63554140980116,86.47968 86.20680371456938,86.54168 86.77806601933759,86.59968 87.34932832410578,86.65368000000001 87.920590628874,86.70368 88.4918529336422,86.74968000000001 89.06311523841042,86.79168 89.63437754317863,86.82968000000001 90.20563984794683,86.86368 90.77690215271504,86.89368 91.34816445748325,86.91968 91.91942676225146,86.94168 92.49068906701967,86.95968 93.06195137178787,86.97368 93.63321367655608,86.98368 94.2044759813243,86.98968 94.7757382860925,86.99168 95.34700059086072,86.98968 95.91826289562891,86.98368 96.48952520039713,86.97368 97.06078750516534,86.95968 97.63204980993353,86.94168 98.20331211470175,86.91968 98.77457441946996,86.89368 99.34583672423817,86.86368 99.91709902900638,86.82968000000001 100.48836133377458,86.79168 101.05962363854279,86.74968000000001 101.630885943311,86.70368 102.20214824807921,86.65368000000001 102.77341055284742,86.59968 103.34467285761562,86.54168 103.91593516238383,86.47968 104.48719746715204,86.41368 105.05845977192024,86.34368 105.62972207668847,86.26968000000001 106.20098438145666,86.19168 106.20098438145666,89.19168 105.62972207668847,89.26968000000001 105.05845977192024,89.34368 104.48719746715204,89.41368 103.91593516238383,89.47968 103.34467285761562,89.54168 102.77341055284742,89.59968 102.20214824807921,89.65368000000001 101.630885943311,89.70368 101.05962363854279,89.74968 100.48836133377458,89.79168 99.91709902900638,89.82968000000001 99.34583672423817,89.86368 98.77457441946996,89.89368 98.20331211470175,89.91968 97.63204980993353,89.94168 97.06078750516534,89.95968 96.48952520039713,89.97368 95.91826289562891,89.98368 95.34700059086072,89.98968 94.7757382860925,89.99168 94.2044759813243,89.98968 93.63321367655608,89.98368 93.06195137178787,89.97368 92.49068906701967,89.95968 91.91942676225146,89.94168 91.34816445748325,89.91968 90.77690215271504,89.89368 90.20563984794683,89.86368 89.63437754317863,89.82968000000001 89.06311523841042,89.79168 88.4918529336422,89.74968 87.920590628874,89.70368 87.34932832410578,89.65368000000001 86.77806601933759,89.59968 86.20680371456938,89.54168 85.63554140980116,89.47968 85.06427910503295,89.41368 84.49301680026475,89.34368 83.92175449549654,89.26968000000001 83.35049219072833,89.19168" /><polygon points="112.20098438145666,96.39168000000001 113.90098438145667,96.39168000000001 114.17420747369803,96.15827166532684 114.44618148606443,95.92383866898167 114.71565733868091,95.6873563492925 114.98138595167248,95.44780004458732 115.24211824516419,95.20414509319413 115.49660513928106,94.95536683344093 115.74359755414812,94.70044060365572 115.98184640989044,94.4383417421665 116.21022217371,94.16814277059447 116.42893960211828,93.89000902240882 116.63905963238506,93.60479371600924 116.84165638630824,93.3133607878815 117.03780398568578,93.01657417451142 117.22857655231556,92.71529781238475 117.4150482079955,92.41039563798729 117.59829307452353,92.10273158780484 117.77938527369754,91.79316959832316 117.95939892731548,91.48257360602805 118.13940815717523,91.17180754740531 118.32048708507473,90.8617353589407 118.5037098328119,90.55322097712003 118.69015040251811,90.24712824320984 118.88059459698458,89.94409167686706 119.07492157329878,89.64402437537491 119.272832655934,89.34669793374486 119.47402916936345,89.05188394698841 119.6782124380604,88.75935401011706 119.8850837864981,88.46887971814229 120.09434453914979,88.1802326660756 120.30569602048874,87.89318444892847 120.51883955498819,87.60750666171239 120.73347646712139,87.32297089943886 120.94930808136158,87.03934875711936 121.16603572218203,86.7564118297654 121.38336071405597,86.47393171238845 121.60098438145667,86.19168 122.60098438145667,86.69168 118.60098438145667,99.39168000000001 118.20098438145666,162.19168 112.20098438145666,162.19168" /><polygon points="128.60098438145667,86.19168 140.60098438145667,86.19168 140.60098438145667,95.91168 134.60098438145667,99.69168 128.60098438145667,95.91168" /></g><g fill="none" id="PIQUETES" stroke="#00b0b0" stroke-width="0.08"><line x1="25.1284733923967" x2="25.219986912954266" y1="16.691816305554088" y2="17.331523485094195" /><line x1="25.5948958667161" x2="25.219986912954266" y1="16.8051744788358" y2="17.331523485094195" /><line x1="33.78380390238858" x2="33.13776725268552" y1="51.366786901074214" y2="51.38217024402856" /><line x1="33.61619609761142" x2="33.13776725268552" y1="51.816573098925794" y2="51.38217024402856" /><line x1="50.02749732320257" x2="50.320200166526085" y1="4.213145895593482" y2="4.789275260849524" /><line x1="50.50557353188219" x2="50.320200166526085" y1="4.170214104406519" y2="4.789275260849524" /><line x1="84.50515644133904" x2="84.20230869174172" y1="14.165989305679735" y2="13.595127465508366" /><line x1="84.02791441374572" x2="84.20230869174172" y1="14.217370694320264" y2="13.595127465508366" /><line x1="129.69200125676855" x2="129.74515579478754" y1="6.647588964424383" y2="7.291618928857709" /><line x1="130.15082317376232" x2="129.74515579478754" y1="6.788594100806707" y2="7.291618928857709" /><line x1="110.8006467387186" x2="111.20910064263632" y1="6.449007536800362" y2="6.94977236021988" /><line x1="111.25867872836454" x2="111.20910064263632" y1="6.305457209524566" y2="6.94977236021988" /><line x1="109.23932861906114" x2="109.67476836130787" y1="7.321978233548333" y2="7.799463553607598" /><line x1="109.68875014799765" x2="109.67476836130787" y1="7.153395051325557" y2="7.799463553607598" /></g><g fill="none" id="TEXTOS" stroke="#000000" stroke-width="0.08"><text fill="#000000" font-family="sans-serif" font-size="0.9" stroke="none" text-anchor="middle" x="18.28916807221791" y="43.1490055436852">DELANTERO</text><text fill="#000000" font-family="sans-serif" font-size="0.6" stroke="none" text-anchor="middle" x="18.28916807221791" y="44.5490055436852">Pieza N.01</text><text fill="#000000" font-family="sans-serif" font-size="0.6" stroke="none" text-anchor="middle" x="18.28916807221791" y="45.949005543685196">Talla: XXL</text><text fill="#000000" font-family="sans-serif" font-size="0.6" stroke="none" text-anchor="middle" x="18.28916807221791" y="47.3490055436852">Cortar: 2  (par: izq + der)</text><text fill="#000000" font-family="sans-serif" font-size="0.9" stroke="none" text-anchor="middle" x="53.31552321220709" y="34.54434025717575">ESPALDA</text><text fill="#000000" font-family="sans-serif" font-size="0.6" stroke="none" text-anchor="middle" x="53.31552321220709" y="35.94434025717574">Pieza N.02</text><text fill="#000000" font-family="sans-serif" font-size="0.6" stroke="none" text-anchor="middle" x="53.31552321220709" y="37.34434025717574">Talla: XXL</text><text fill="#000000" font-family="sans-serif" font-size="0.6" stroke="none" text-anchor="middle" x="53.31552321220709" y="38.74434025717574">Cortar: 1  (al doblez)</text><text fill="#000000" font-family="sans-serif" font-size="0.6" stroke="none" text-anchor="middle" x="53.31552321220709" y="40.14434025717574">AL DOBLEZ</text><text fill="#000000" font-family="sans-serif" font-size="0.9" stroke="none" text-anchor="middle" x="83.82254244040365" y="6.467772121571185">CANESU</text><text fill="#000000" font-family="sans-serif" font-size="0.6" stroke="none" text-anchor="middle" x="83.82254244040365" y="7.867772121571185">Pieza N.03</text><text fill="#000000" font-family="sans-serif" font-size="0.6" stroke="none" text-anchor="middle" x="83.82254244040365" y="9.267772121571184">Talla: XXL</text><text fill="#000000" font-family="sans-serif" font-size="0.6" stroke="none" text-anchor="middle" x="83.82254244040365" y="10.667772121571184">Cortar: 2  (al doblez x2 (exterior+interior))</text><text fill="#000000" font-family="sans-serif" font-size="0.6" stroke="none" text-anchor="middle" x="83.82254244040365" y="12.067772121571185">AL DOBLEZ</text><text fill="#000000" font-family="sans-serif" font-size="0.9" stroke="none" text-anchor="middle" x="120.6210531023558" y="34.280879870659675">MANGA</text><text fill="#000000" font-family="sans-serif" font-size="0.6" stroke="none" text-anchor="middle" x="120.6210531023558" y="35.68087987065967">Pieza N.04</text><text fill="#000000" font-family="sans-serif" font-size="0.6" stroke="none" text-anchor="middle" x="120.6210531023558" y="37.08087987065967">Talla: XXL</text><text fill="#000000" font-family="sans-serif" font-size="0.6" stroke="none" text-anchor="middle" x="120.6210531023558" y="38.48087987065967">Cortar: 2  (par: izq + der)</text><text fill="#000000" font-family="sans-serif" font-size="0.9" stroke="none" text-anchor="middle" x="17.5" y="89.49168">PUNO</text><text fill="#000000" font-family="sans-serif" font-size="0.6" stroke="none" text-anchor="middle" x="17.5" y="90.89168000000001">Pieza N.05</text><text fill="#000000" font-family="sans-serif" font-size="0.6" stroke="none" text-anchor="middle" x="17.5" y="92.29168">Talla: XXL</text><text fill="#000000" font-family="sans-serif" font-size="0.6" stroke="none" text-anchor="middle" x="17.5" y="93.69168">Cortar: 4  (4 (2 tela + 2 entretela))</text><text fill="#000000" font-family="sans-serif" font-size="0.9" stroke="none" text-anchor="middle" x="43.0" y="84.99168">TAPETA MANGA</text><text fill="#000000" font-family="sans-serif" font-size="0.6" stroke="none" text-anchor="middle" x="43.0" y="86.39168000000001">Pieza N.06</text><text fill="#000000" font-family="sans-serif" font-size="0.6" stroke="none" text-anchor="middle" x="43.0" y="87.79168">Talla: XXL</text><text fill="#000000" font-family="sans-serif" font-size="0.6" stroke="none" text-anchor="middle" x="43.0" y="89.19168">Cortar: 2  (par)</text><text fill="#000000" font-family="sans-serif" font-size="0.9" stroke="none" text-anchor="middle" x="65.87800465362915" y="85.52863068098009">CUELLO</text><text fill="#000000" font-family="sans-serif" font-size="0.6" stroke="none" text-anchor="middle" x="65.87800465362915" y="86.92863068098009">Pieza N.07</text><text fill="#000000" font-family="sans-serif" font-size="0.6" stroke="none" text-anchor="middle" x="65.87800465362915" y="88.32863068098008">Talla: XXL</text><text fill="#000000" font-family="sans-serif" font-size="0.6" stroke="none" text-anchor="middle" x="65.87800465362915" y="89.72863068098009">Cortar: 2  (al doblez x2 (+ entretela))</text><text fill="#000000" font-family="sans-serif" font-size="0.6" stroke="none" text-anchor="middle" x="65.87800465362915" y="91.12863068098008">AL DOBLEZ</text><text fill="#000000" font-family="sans-serif" font-size="0.9" stroke="none" text-anchor="middle" x="94.7757382860925" y="84.62468">PIE DE CUELLO</text><text fill="#000000" font-family="sans-serif" font-size="0.6" stroke="none" text-anchor="middle" x="94.7757382860925" y="86.02468">Pieza N.08</text><text fill="#000000" font-family="sans-serif" font-size="0.6" stroke="none" text-anchor="middle" x="94.7757382860925" y="87.42468000000001">Talla: XXL</text><text fill="#000000" font-family="sans-serif" font-size="0.6" stroke="none" text-anchor="middle" x="94.7757382860925" y="88.82468">Cortar: 2  (al doblez x2 (+ entretela))</text><text fill="#000000" font-family="sans-serif" font-size="0.6" stroke="none" text-anchor="middle" x="94.7757382860925" y="90.22468">AL DOBLEZ</text><text fill="#000000" font-family="sans-serif" font-size="0.9" stroke="none" text-anchor="middle" x="115.58481688828729" y="123.50128060433111">VISTA DELANTERA</text><text fill="#000000" font-family="sans-serif" font-size="0.6" stroke="none" text-anchor="middle" x="115.58481688828729" y="124.90128060433112">Pieza N.09</text><text fill="#000000" font-family="sans-serif" font-size="0.6" stroke="none" text-anchor="middle" x="115.58481688828729" y="126.30128060433113">Talla: XXL</text><text fill="#000000" font-family="sans-serif" font-size="0.6" stroke="none" text-anchor="middle" x="115.58481688828729" y="127.70128060433112">Cortar: 2  (par: izq + der)</text><text fill="#000000" font-family="sans-serif" font-size="0.9" stroke="none" text-anchor="middle" x="134.60098438145667" y="89.34795906976744">BOLSILLO</text><text fill="#000000" font-family="sans-serif" font-size="0.6" stroke="none" text-anchor="middle" x="134.60098438145667" y="90.74795906976745">Pieza N.10</text><text fill="#000000" font-family="sans-serif" font-size="0.6" stroke="none" text-anchor="middle" x="134.60098438145667" y="92.14795906976745">Talla: XXL</text><text fill="#000000" font-family="sans-serif" font-size="0.6" stroke="none" text-anchor="middle" x="134.60098438145667" y="93.54795906976744">Cortar: 1  (1 (opcional))</text></g><g fill="none" id="CENTROS" stroke="#0050ff" stroke-width="0.08"><circle cx="21.1" cy="31.19168" fill="#0050ff" r="0.15" /><circle cx="125.48998344804427" cy="58.19168" fill="#0050ff" r="0.15" /></g><g fill="none" id="HILO" stroke="#c0a000" stroke-width="0.08"><line x1="19.7" x2="19.7" y1="17.39168" y2="77.19168" /><line x1="19.7" x2="20.16730201077038" y1="77.19168" y2="76.08640680719654" /><line x1="19.7" x2="19.232697989229617" y1="77.19168" y2="76.08640680719654" /><line x1="19.7" x2="19.23269798922962" y1="17.39168" y2="18.49695319280346" /><line x1="19.7" x2="20.16730201077038" y1="17.39168" y2="18.49695319280346" /><line x1="40.2" x2="40.2" y1="7.19168" y2="67.19168" /><line x1="40.2" x2="40.667302010770385" y1="67.19168" y2="66.08640680719654" /><line x1="40.2" x2="39.73269798922962" y1="67.19168" y2="66.08640680719654" /><line x1="40.2" x2="39.73269798922962" y1="7.19168" y2="8.296953192803462" /><line x1="40.2" x2="40.667302010770385" y1="7.19168" y2="8.296953192803462" /><line x1="78.44" x2="78.44" y1="5.19168" y2="13.69168" /><line x1="78.44" x2="78.90730201077038" y1="13.69168" y2="12.586406807196537" /><line x1="78.44" x2="77.97269798922962" y1="13.69168" y2="12.586406807196537" /><line x1="78.44" x2="77.97269798922962" y1="5.19168" y2="6.296953192803462" /><line x1="78.44" x2="78.90730201077038" y1="5.19168" y2="6.296953192803462" /><line x1="120.66879650885346" x2="120.66879650885346" y1="8.166080000000001" y2="68.19168" /><line x1="120.66879650885346" x2="121.13609851962384" y1="68.19168" y2="67.08640680719654" /><line x1="120.66879650885346" x2="120.20149449808308" y1="68.19168" y2="67.08640680719654" /><line x1="120.66879650885346" x2="120.20149449808308" y1="8.166080000000001" y2="9.271353192803463" /><line x1="120.66879650885346" x2="121.13609851962384" y1="8.166080000000001" y2="9.271353192803463" /><line x1="17.5" x2="17.5" y1="86.69168" y2="97.69168" /><line x1="17.5" x2="17.967302010770382" y1="97.69168" y2="96.58640680719654" /><line x1="17.5" x2="17.032697989229618" y1="97.69168" y2="96.58640680719654" /><line x1="17.5" x2="17.032697989229618" y1="86.69168" y2="87.79695319280347" /><line x1="17.5" x2="17.967302010770382" y1="86.69168" y2="87.79695319280347" /><line x1="43.0" x2="43.0" y1="86.59168000000001" y2="88.79168" /><line x1="43.0" x2="43.46730201077038" y1="88.79168" y2="87.68640680719655" /><line x1="43.0" x2="42.53269798922962" y1="88.79168" y2="87.68640680719655" /><line x1="43.0" x2="42.53269798922962" y1="86.59168000000001" y2="87.69695319280346" /><line x1="43.0" x2="43.46730201077038" y1="86.59168000000001" y2="87.69695319280346" /><line x1="55.5" x2="75.65049219072833" y1="86.69168" y2="86.69168" /><line x1="75.65049219072833" x2="74.54521899792488" y1="86.69168" y2="86.22437798922962" /><line x1="75.65049219072833" x2="74.54521899792488" y1="86.69168" y2="87.15898201077039" /><line x1="55.5" x2="56.60527319280346" y1="86.69168" y2="87.15898201077039" /><line x1="55.5" x2="56.60527319280346" y1="86.69168" y2="86.22437798922962" /><line x1="83.85049219072833" x2="105.70098438145666" y1="86.59168000000001" y2="86.59168000000001" /><line x1="105.70098438145666" x2="104.59571118865321" y1="86.59168000000001" y2="86.12437798922963" /><line x1="105.70098438145666" x2="104.59571118865321" y1="86.59168000000001" y2="87.05898201077038" /><line x1="83.85049219072833" x2="84.9557653835318" y1="86.59168000000001" y2="87.05898201077038" /><line x1="83.85049219072833" x2="84.9557653835318" y1="86.59168000000001" y2="86.12437798922963" /><line x1="115.20098438145666" x2="115.20098438145666" y1="101.39168000000001" y2="159.19168" /><line x1="115.20098438145666" x2="115.66828639222705" y1="159.19168" y2="158.08640680719654" /><line x1="115.20098438145666" x2="114.73368237068628" y1="159.19168" y2="158.08640680719654" /><line x1="115.20098438145666" x2="114.73368237068628" y1="101.39168000000001" y2="102.49695319280347" /><line x1="115.20098438145666" x2="115.66828639222705" y1="101.39168000000001" y2="102.49695319280347" /><line x1="134.60098438145667" x2="134.60098438145667" y1="87.19168" y2="95.91168" /><line x1="134.60098438145667" x2="135.06828639222704" y1="95.91168" y2="94.80640680719654" /><line x1="134.60098438145667" x2="134.1336823706863" y1="95.91168" y2="94.80640680719654" /><line x1="134.60098438145667" x2="134.1336823706863" y1="87.19168" y2="88.29695319280347" /><line x1="134.60098438145667" x2="135.06828639222704" y1="87.19168" y2="88.29695319280347" /></g><g fill="none" id="DOBLEZ" stroke="#c000c0" stroke-width="0.08"><line x1="39.7" x2="39.7" y1="4.19168" y2="70.19168" /><line x1="73.7" x2="73.7" y1="4.19168" y2="14.19168" /><line x1="55.0" x2="55.0" y1="86.19168" y2="92.69168" /><line x1="83.35049219072833" x2="83.35049219072833" y1="86.19168" y2="89.99168" /></g><g fill="none" id="BOTONES" stroke="#ff8000" stroke-width="0.08"><circle cx="5.7" cy="15.89168" fill="#ff8000" r="0.55" /><circle cx="5.7" cy="25.608346666666666" fill="#ff8000" r="0.55" /><circle cx="5.7" cy="35.32501333333333" fill="#ff8000" r="0.55" /><circle cx="5.7" cy="45.04167999999999" fill="#ff8000" r="0.55" /><circle cx="5.7" cy="54.75834666666666" fill="#ff8000" r="0.55" /><circle cx="5.7" cy="64.47501333333332" fill="#ff8000" r="0.55" /><circle cx="5.7" cy="74.19167999999999" fill="#ff8000" r="0.55" /><circle cx="5.2" cy="92.19168" fill="#ff8000" r="0.55" /><circle cx="105.20098438145666" cy="87.69168" fill="#ff8000" r="0.55" /></g><g fill="none" id="OJAL" stroke="#ff40a0" stroke-width="0.08"><line x1="4.9" x2="6.5" y1="15.89168" y2="15.89168" /><line x1="4.9" x2="6.5" y1="25.608346666666666" y2="25.608346666666666" /><line x1="4.9" x2="6.5" y1="35.32501333333333" y2="35.32501333333333" /><line x1="4.9" x2="6.5" y1="45.04167999999999" y2="45.04167999999999" /><line x1="4.9" x2="6.5" y1="54.75834666666666" y2="54.75834666666666" /><line x1="4.9" x2="6.5" y1="64.47501333333332" y2="64.47501333333332" /><line x1="4.9" x2="6.5" y1="74.19167999999999" y2="74.19167999999999" /><line x1="29.8" x2="29.8" y1="91.39168000000001" y2="92.99168" /></g><g fill="none" id="REFERENCIAS" stroke="#b0b0b0" stroke-width="0.08"><text fill="#000000" font-family="sans-serif" font-size="0.5" stroke="none" text-anchor="start" x="5.7" y="13.39168">CF</text><text fill="#000000" font-family="sans-serif" font-size="0.5" stroke="none" text-anchor="start" x="40.0" y="37.19168">CB</text><text fill="#000000" font-family="sans-serif" font-size="0.5" stroke="none" text-anchor="start" x="17.5" y="91.39168000000001">DOBLEZ</text><text fill="#000000" font-family="sans-serif" font-size="0.5" stroke="none" text-anchor="start" x="134.60098438145667" y="87.69168">boca</text></g></svg>