<?xml version="1.0" encoding="utf-8" ?>
<svg baseProfile="full" height="234.49221699999998cm" version="1.1" viewBox="0 0 118.0 234.49221699999998" width="118.0cm" xmlns="http://www.w3.org/2000/svg" xmlns:ev="http://www.w3.org/2001/xml-events" xmlns:xlink="http://www.w3.org/1999/xlink"><defs /><rect fill="#f7f3ea" height="226.49221699999998" stroke="#333" stroke-width="0.15" width="110.0" x="4.0" y="4.0" /><text fill="#000" font-family="sans-serif" font-size="1.4" x="4.0" y="3.0">PLANO DE CORTE — ancho 110 cm — largo 2.26 m</text><polygon fill="#cfe3f7" fill-opacity="0.5" points="4.0,74.267704 12.00722,74.267704 11.601177,17.827772 15.824922,5.262131 13.300661,4.0 12.604548000000001,4.928368 12.408809,5.189983 12.212994,5.452847 12.017382000000001,5.717166 11.822256,5.98315 11.6279,6.251011999999999 11.434603,6.520965 11.242656,6.793221 11.052355,7.067997 10.863996,7.345508 10.677882,7.6259689999999996 10.494319,7.909597 10.313615,8.196606 10.136242,8.486951000000001 9.963303,8.779094 9.795078,9.070626 9.63075,9.360295 9.469275,9.647313 9.309653,9.930903 9.150927,10.210297 8.992184,10.484739000000001 8.832553,10.753489 8.671203,11.015827 8.507341,11.271062 8.340206,11.518545 8.169058,11.757678 7.993161000000001,11.987943000000001 7.810869,12.210004 7.619404,12.426846 7.41765,12.641195 7.206278,12.853889 6.986212,13.065588 6.7584420000000005,13.27698 6.524011,13.488792 6.322425,13.667704 4.0,13.667704 4.0,74.267704" stroke="#1f6fb2" stroke-width="0.1" /><text fill="#0a3d62" font-family="sans-serif" font-size="1.6" text-anchor="middle" x="9.912461" y="39.133852">09</text><polygon fill="#cfe3f7" fill-opacity="0.5" points="16.824922,74.267704 24.832142,74.267704 24.426099,17.827772 28.649844,5.262131 26.125583,4.0 25.429470000000002,4.928368 25.233731,5.189983 25.037916000000003,5.452847 24.842304000000002,5.717166 24.647178,5.98315 24.452822,6.251011999999999 24.259525,6.520965 24.067578,6.793221 23.877277,7.067997 23.688918,7.345508 23.502804,7.6259689999999996 23.319241,7.909597 23.138537,8.196606 22.961164,8.486951000000001 22.788225,8.779094 22.62,9.070626 22.455672,9.360295 22.294197,9.647313 22.134575,9.930903 21.975849,10.210297 21.817106000000003,10.484739000000001 21.657475,10.753489 21.496125,11.015827 21.332263,11.271062 21.165128000000003,11.518545 20.99398,11.757678 20.818083,11.987943000000001 20.635791,12.210004 20.444326,12.426846 20.242572000000003,12.641195 20.031200000000002,12.853889 19.811134000000003,13.065588 19.583364,13.27698 19.348933000000002,13.488792 19.147347,13.667704 16.824922,13.667704 16.824922,74.267704" stroke="#1f6fb2" stroke-width="0.1" /><text fill="#0a3d62" font-family="sans-serif" font-size="1.6" text-anchor="middle" x="22.737383" y="39.133852">09</text><polygon fill="#cfe3f7" fill-opacity="0.5" points="29.649844,74.233067 57.349844000000004,74.233067 57.349844000000004,26.857360999999997 56.749912,26.171653999999997 56.396521,25.768483 56.040528,25.363836 55.681394,24.957849 55.318277,24.550319 54.95034,24.141047999999998 54.576750000000004,23.729844999999997 54.196687,23.316536 53.810258000000005,22.901911 53.420919,22.488083 53.034441,22.076037 52.655385,21.665301 52.288183000000004,21.255467 51.937261,20.846346999999998 51.606989,20.437973 51.30162,20.030609 51.025183999999996,19.624724 50.781365,19.22094 50.57334,18.819888 50.40363,18.421923 50.273231,18.024288 50.180244,17.618925 50.12149,17.199514999999998 50.095352000000005,16.764596 50.100468,16.313914 50.135391999999996,15.847847 50.198454,15.367222 50.287714,14.873137 50.400976,14.366815 50.535817,13.849511 50.689639,13.32245 50.859709,12.78679 51.043189999999996,12.243606999999999 51.237178,11.693886 51.438712,11.138521 51.970248,9.693617 38.924533000000004,4.0 38.254392,4.893731 38.058653,5.155346 37.862838,5.41821 37.667226,5.682529 37.472100000000005,5.948513 37.277744,6.216374999999999 37.084447000000004,6.486328 36.8925,6.758584 36.702199,7.03336 36.51384,7.310871 36.327726,7.5913319999999995 36.144163000000006,7.87496 35.963459,8.161969 35.786086000000005,8.452314000000001 35.613147,8.744457 35.444922000000005,9.035989 35.280594,9.325658 35.119119,9.612676 34.959497,9.896266 34.800771000000005,10.17566 34.642028,10.450102000000001 34.482397000000006,10.718852 34.321047,10.98119 34.157185,11.236425 33.990050000000004,11.483908 33.818902,11.723041 33.643005,11.953306000000001 33.460713,12.175367 33.269248000000005,12.392209 33.067494,12.606558 32.856122,12.819252 32.636056,13.030951 32.408286000000004,13.242343 32.173855,13.454155 31.972269,13.633067 29.649844,13.633067 29.649844,74.233067" stroke="#1f6fb2" stroke-width="0.1" /><text fill="#0a3d62" font-family="sans-serif" font-size="1.6" text-anchor="middle" x="43.499844" y="39.1165335">01</text><polygon fill="#cfe3f7" fill-opacity="0.5" points="58.349844000000004,74.233067 86.04984400000001,74.233067 86.04984400000001,26.857360999999997 85.44991200000001,26.171653999999997 85.096521,25.768483 84.74052800000001,25.363836 84.381394,24.957849 84.01827700000001,24.550319 83.65034,24.141047999999998 83.27675,23.729844999999997 82.896687,23.316536 82.51025800000001,22.901911 82.120919,22.488083 81.734441,22.076037 81.35538500000001,21.665301 80.988183,21.255467 80.637261,20.846346999999998 80.306989,20.437973 80.00162,20.030609 79.725184,19.624724 79.48136500000001,19.22094 79.27334,18.819888 79.10363000000001,18.421923 78.973231,18.024288 78.880244,17.618925 78.82149000000001,17.199514999999998 78.79535200000001,16.764596 78.800468,16.313914 78.835392,15.847847 78.898454,15.367222 78.98771400000001,14.873137 79.100976,14.366815 79.235817,13.849511 79.389639,13.32245 79.559709,12.78679 79.74319,12.243606999999999 79.937178,11.693886 80.138712,11.138521 80.670248,9.693617 67.624533,4.0 66.95439200000001,4.893731 66.75865300000001,5.155346 66.562838,5.41821 66.367226,5.682529 66.1721,5.948513 65.977744,6.216374999999999 65.784447,6.486328 65.5925,6.758584 65.40219900000001,7.03336 65.21384,7.310871 65.027726,7.5913319999999995 64.84416300000001,7.87496 64.663459,8.161969 64.486086,8.452314000000001 64.313147,8.744457 64.14492200000001,9.035989 63.980594,9.325658 63.819119,9.612676 63.659497,9.896266 63.50077100000001,10.17566 63.342028000000006,10.450102000000001 63.18239700000001,10.718852 63.021047,10.98119 62.857185,11.236425 62.69005000000001,11.483908 62.518902000000004,11.723041 62.343005000000005,11.953306000000001 62.160713,12.175367 61.96924800000001,12.392209 61.767494000000006,12.606558 61.556122,12.819252 61.336056000000006,13.030951 61.10828600000001,13.242343 60.873855000000006,13.454155 60.67226900000001,13.633067 58.349844000000004,13.633067 58.349844000000004,74.233067" stroke="#1f6fb2" stroke-width="0.1" /><text fill="#0a3d62" font-family="sans-serif" font-size="1.6" text-anchor="middle" x="72.199844" y="39.1165335">01</text><polygon fill="#cfe3f7" fill-opacity="0.5" points="8.603537000000001,137.272317 34.432241,137.272317 39.044742,85.827327 38.338398999999995,85.042694 37.917592,84.580552 37.488116,84.11954 37.047919,83.662943 36.597245,83.215104 36.138323,82.77776399999999 35.672148,82.350409 35.19934,81.93216199999999 34.720508,81.522143 34.236247,81.11947099999999 33.747142,80.723265 33.253769,80.332647 32.756689,79.94673999999999 32.255796000000004,79.56416999999999 31.749057,79.183459 31.233977,78.80596299999999 30.709418,78.43459999999999 30.174402999999998,78.072496 29.6279,77.722833 29.068843,77.38886699999999 28.496148,77.073954 27.908752,76.781561 27.305661,76.515294 26.687530000000002,76.279466 26.059449,76.07732 25.427158,75.906295 24.792906000000002,75.761815 24.158237,75.639246 23.52457,75.53408599999999 22.893254,75.441976 22.265622,75.358699 21.544124,75.267704 20.808963,75.32164399999999 20.168217,75.372666 19.523647,75.432109 18.8764,75.504142 18.227627,75.59307299999999 17.578525,75.703347 16.930396000000002,75.83954399999999 16.284807,76.00634 15.645945000000001,76.20758599999999 15.019679,76.442509 14.408314,76.70685599999999 13.811256,76.997118 13.227674,77.309958 12.656686,77.642151 12.097394,77.99057599999999 11.548913,78.352193 11.010392,78.72402699999999 10.481016,79.103155 9.959197,79.487304 9.441979,79.87699699999999 8.928751,80.275463 8.421351,80.684888 7.9219930000000005,81.10725099999999 7.432948,81.544568 6.956562,81.99888 6.495274,82.472229 6.051633000000001,82.966628 5.628798,83.48342799999999 5.232445000000002,84.018686 4.862674000000002,84.561902 4.513476000000001,85.105098 4.0,85.927312 8.603537000000001,137.272317" stroke="#1f6fb2" stroke-width="0.1" /><text fill="#0a3d62" font-family="sans-serif" font-size="1.6" text-anchor="middle" x="21.522371" y="106.2700105">04</text><polygon fill="#cfe3f7" fill-opacity="0.5" points="44.648279,137.272317 70.47698299999999,137.272317 75.089484,85.827327 74.383141,85.042694 73.962334,84.580552 73.532858,84.11954 73.09266099999999,83.662943 72.641987,83.215104 72.183065,82.77776399999999 71.71689,82.350409 71.24408199999999,81.93216199999999 70.76525000000001,81.522143 70.280989,81.11947099999999 69.791884,80.723265 69.29851099999999,80.332647 68.80143100000001,79.94673999999999 68.300538,79.56416999999999 67.793799,79.183459 67.278719,78.80596299999999 66.75416,78.43459999999999 66.219145,78.072496 65.672642,77.722833 65.113585,77.38886699999999 64.54089,77.073954 63.953494,76.781561 63.350403,76.515294 62.732272,76.279466 62.104191,76.07732 61.4719,75.906295 60.837648,75.761815 60.202979,75.639246 59.569312,75.53408599999999 58.937996,75.441976 58.310364,75.358699 57.588865999999996,75.267704 56.853705,75.32164399999999 56.212959,75.372666 55.568388999999996,75.432109 54.921142,75.504142 54.272369,75.59307299999999 53.623267,75.703347 52.975138,75.83954399999999 52.329549,76.00634 51.690687,76.20758599999999 51.064420999999996,76.442509 50.453056000000004,76.70685599999999 49.855998,76.997118 49.272416,77.309958 48.701428,77.642151 48.142136,77.99057599999999 47.593655,78.352193 47.055133999999995,78.72402699999999 46.525757999999996,79.103155 46.003939,79.487304 45.486721,79.87699699999999 44.973493,80.275463 44.466093,80.684888 43.966735,81.10725099999999 43.477689999999996,81.544568 43.001304,81.99888 42.540016,82.472229 42.096375,82.966628 41.67354,83.48342799999999 41.277187,84.018686 40.907416,84.561902 40.558218,85.105098 40.044742,85.927312 44.648279,137.272317" stroke="#1f6fb2" stroke-width="0.1" /><text fill="#0a3d62" font-family="sans-serif" font-size="1.6" text-anchor="middle" x="57.567113" y="106.2700105">04</text><polygon fill="#cfe3f7" fill-opacity="0.5" points="54.0,150.971005 53.54488,150.28434199999998 53.256333999999995,149.848727 52.967847,149.41266099999999 52.679368,148.975797 52.390845,148.53778899999998 52.102226,148.098289 51.81346,147.656951 51.524504,147.21344399999998 51.235746,146.76805299999998 50.948979,146.32182899999998 50.666720999999995,145.87536899999998 50.391082,145.428621 50.124128999999996,144.981539 49.867903,144.534122 49.624413000000004,144.08641 49.39562,143.638475 49.18343,143.19041299999998 48.989674,142.742325 48.816095000000004,142.294299 48.664342000000005,141.846373 48.535945,141.39844499999998 48.431893,140.948557 48.351451,140.492776 48.292833,140.02890599999998 48.254642000000004,139.55688099999998 48.203385999999995,138.272317 29.0,138.272317 29.0,198.272317 54.0,198.272317 54.0,150.971005 4.0,150.971005 4.455120000000001,150.28434199999998 4.743666000000001,149.848727 5.032153000000001,149.41266099999999 5.320632,148.975797 5.609155000000001,148.53778899999998 5.897773999999998,148.098289 6.186540000000001,147.656951 6.475496,147.21344399999998 6.764254000000001,146.76805299999998 7.051020999999999,146.32182899999998 7.333279000000001,145.87536899999998 7.608917999999999,145.428621 7.875871,144.981539 8.132097000000002,144.534122 8.375587,144.08641 8.604379999999999,143.638475 8.816569999999999,143.19041299999998 9.010326,142.742325 9.183905,142.294299 9.335657999999999,141.846373 9.464054999999998,141.39844499999998 9.568107000000001,140.948557 9.648549,140.492776 9.707166999999998,140.02890599999998 9.745358,139.55688099999998 9.796614000000002,138.272317 29.0,138.272317 29.0,198.272317 4.0,198.272317 4.0,150.971005" stroke="#1f6fb2" stroke-width="0.1" /><text fill="#0a3d62" font-family="sans-serif" font-size="1.6" text-anchor="middle" x="29.0" y="168.272317">02</text><polygon fill="#cfe3f7" fill-opacity="0.5" points="55.0,149.544222 62.0,153.954222 69.0,149.544222 69.0,138.272317 55.0,138.272317 55.0,149.544222" stroke="#1f6fb2" stroke-width="0.1" /><text fill="#0a3d62" font-family="sans-serif" font-size="1.6" text-anchor="middle" x="62.0" y="146.1132695">10</text><polygon fill="#cfe3f7" fill-opacity="0.5" points="70.0,150.52144399999997 70.029841,150.824424 70.132547,151.16299899999999 70.299332,151.475032 70.523786,151.74853099999999 70.797285,151.972985 71.109318,152.13977 71.447893,152.24247599999998 71.750873,152.272317 93.249127,152.272317 93.552107,152.24247599999998 93.890682,152.13977 94.202715,151.972985 94.476214,151.74853099999999 94.70066800000001,151.475032 94.867453,151.16299899999999 94.970159,150.824424 95.0,150.52144399999997 95.0,140.02319 94.970159,139.72020999999998 94.867453,139.381635 94.70066800000001,139.06960199999997 94.476214,138.796103 94.202715,138.57164899999998 93.890682,138.40486399999998 93.552107,138.302158 93.249127,138.272317 71.750873,138.272317 71.447893,138.302158 71.109318,138.40486399999998 70.797285,138.57164899999998 70.523786,138.796103 70.299332,139.06960199999997 70.132547,139.381635 70.029841,139.72020999999998 70.0,140.02319 70.0,150.52144399999997" stroke="#1f6fb2" stroke-width="0.1" /><text fill="#0a3d62" font-family="sans-serif" font-size="1.6" text-anchor="middle" x="82.5" y="145.272317">05</text><polygon fill="#cfe3f7" fill-opacity="0.5" points="4.0,211.52144399999997 4.029841,211.824424 4.132547,212.16299899999999 4.299332,212.475032 4.523786,212.74853099999999 4.7972850000000005,212.972985 5.109318,213.13977 5.4478930000000005,213.24247599999998 5.750873,213.272317 27.249127,213.272317 27.552107,213.24247599999998 27.890682,213.13977 28.202715,212.972985 28.476214,212.74853099999999 28.700668,212.475032 28.867453,212.16299899999999 28.970159,211.824424 29.0,211.52144399999997 29.0,201.02319 28.970159,200.72020999999998 28.867453,200.381635 28.700668,200.06960199999997 28.476214,199.796103 28.202715,199.57164899999998 27.890682,199.40486399999998 27.552107,199.302158 27.249127,199.272317 5.750873,199.272317 5.4478930000000005,199.302158 5.109318,199.40486399999998 4.7972850000000005,199.57164899999998 4.523786,199.796103 4.299332,200.06960199999997 4.132547,200.381635 4.029841,200.72020999999998 4.0,201.02319 4.0,211.52144399999997" stroke="#1f6fb2" stroke-width="0.1" /><text fill="#0a3d62" font-family="sans-serif" font-size="1.6" text-anchor="middle" x="16.5" y="206.272317">05</text><polygon fill="#cfe3f7" fill-opacity="0.5" points="69.109812,210.19838099999998 69.10827,209.71069999999997 69.12286,209.21571699999998 69.152042,208.713866 69.194218,208.205613 69.247736,207.69143799999998 69.310889,207.171822 69.381927,206.647235 69.459058,206.11812899999998 69.540457,205.58493199999998 69.74864600000001,204.25120299999998 56.845692,199.272317 56.206584,199.706428 56.003755,199.842917 55.803425000000004,199.975215 55.605097,200.10251399999999 55.408291,200.224064 55.212533,200.33917599999998 55.016683,200.44759399999998 54.818733,200.54986799999998 54.617676,200.64650699999999 54.4137,200.737418 54.207108000000005,200.822456 53.998204,200.90148 53.787293000000005,200.974357 53.574684000000005,201.040958 53.360684,201.101159 53.145601,201.154845 52.929643999999996,201.201926 52.712165999999996,201.242515 52.492015,201.27710199999999 52.268762,201.306177 52.042410000000004,201.33016199999997 51.81299,201.34948999999997 51.580557,201.36460899999997 51.345178000000004,201.375983 51.106932,201.38409499999997 50.865904,201.389443 50.622182,201.39254699999998 50.375856,201.393939 50.127012,201.394174 49.874323000000004,201.39381699999998 49.874323000000004,211.39381799999998 69.157512,211.39381799999998 69.109812,210.19838099999998 30.638834,210.19838099999998 30.640376,209.71069999999997 30.625786,209.21571699999998 30.596604,208.713866 30.554428,208.205613 30.50091,207.69143799999998 30.437757,207.171822 30.366719,206.647235 30.289588000000002,206.11812899999998 30.208189,205.58493199999998 30.0,204.25120299999998 42.902954,199.272317 43.542062,199.706428 43.744890999999996,199.842917 43.945221000000004,199.975215 44.143549,200.10251399999999 44.340355,200.224064 44.536113,200.33917599999998 44.731963,200.44759399999998 44.929913,200.54986799999998 45.130970000000005,200.64650699999999 45.334946,200.737418 45.541538,200.822456 45.750442,200.90148 45.961353,200.974357 46.173962,201.040958 46.387962,201.101159 46.603045,201.154845 46.819002,201.201926 47.03648,201.242515 47.256631,201.27710199999999 47.479884,201.306177 47.706236000000004,201.33016199999997 47.935656,201.34948999999997 48.168089,201.36460899999997 48.403468000000004,201.375983 48.641714,201.38409499999997 48.882742,201.389443 49.126464,201.39254699999998 49.37279,201.393939 49.621634,201.394174 49.874323000000004,201.39381699999998 49.874323000000004,211.39381799999998 30.591134,211.39381799999998 30.638834,210.19838099999998" stroke="#1f6fb2" stroke-width="0.1" /><text fill="#0a3d62" font-family="sans-serif" font-size="1.6" text-anchor="middle" x="49.874323000000004" y="205.3330675">03</text><polygon fill="#cfe3f7" fill-opacity="0.5" points="26.655368999999997,221.12729399999998 27.146859,221.216591 27.638402,221.300794 28.129994999999997,221.379902 28.621636,221.453913 29.113321,221.52282599999998 29.605047999999996,221.58664 30.096814,221.645353 30.588614999999997,221.698965 31.080448999999998,221.74747399999998 31.572312999999998,221.79088 32.064203,221.82918099999998 32.556116,221.86237699999998 33.048049,221.890467 33.539998999999995,221.91344999999998 34.031962,221.93132699999998 34.523936,221.944096 35.015916,221.95175799999998 35.507898999999995,221.954311 35.999882,221.95175799999998 36.491862,221.944096 36.983836,221.93132699999998 37.475798999999995,221.91344999999998 37.967749,221.890467 38.459682,221.86237699999998 38.951595,221.82918099999998 39.443484999999995,221.79088 39.935349,221.74747399999998 40.427183,221.698965 40.918983999999995,221.645353 41.41075,221.58664 41.902477,221.52282599999998 42.394161999999994,221.453913 42.885802999999996,221.379902 43.377396,221.300794 43.868939,221.216591 44.360428999999996,221.12729399999998 44.644778,221.07268 46.6965,224.49221699999998 47.751718,224.093234 45.938626,214.272317 44.46481,214.57068999999998 43.993041,214.66130199999998 43.521327,214.74700499999997 43.049666,214.827802 42.578055,214.90369399999997 42.106492,214.974683 41.634973,215.04076999999998 41.163495999999995,215.10195599999997 40.692057999999996,215.158243 40.220655,215.20963099999997 39.749285,215.25612199999998 39.277945,215.29771599999998 38.806630999999996,215.33441499999998 38.33534,215.366219 37.864069,215.393129 37.392815,215.415146 36.921574,215.432269 36.450344,215.44449999999998 35.979119999999995,215.45183799999998 35.507898999999995,215.454285 35.036677999999995,215.45183799999998 34.565454,215.44449999999998 34.094224,215.432269 33.622983,215.415146 33.151729,215.393129 32.680458,215.366219 32.209166999999994,215.33441499999998 31.737852999999998,215.29771599999998 31.266512999999996,215.25612199999998 30.795143,215.20963099999997 30.323739999999997,215.158243 29.852301999999998,215.10195599999997 29.380824999999998,215.04076999999998 28.909305999999997,214.974683 28.437742999999998,214.90369399999997 27.966131999999998,214.827802 27.494470999999997,214.74700499999997 27.022757,214.66130199999998 26.550987999999997,214.57068999999998 25.875859,214.434011 25.875859,220.974585 26.163933999999998,221.032906 26.655368999999997,221.12729399999998 25.096349,221.12729399999998 24.604858999999998,221.216591 24.113315999999998,221.300794 23.621723,221.379902 23.130081999999998,221.453913 22.638396999999998,221.52282599999998 22.14667,221.58664 21.654904,221.645353 21.163103,221.698965 20.671269,221.74747399999998 20.179405,221.79088 19.687514999999998,221.82918099999998 19.195601999999997,221.86237699999998 18.703668999999998,221.890467 18.211719,221.91344999999998 17.719755999999997,221.93132699999998 17.227781999999998,221.944096 16.735802,221.95175799999998 16.243819,221.954311 15.751835999999999,221.95175799999998 15.259856,221.944096 14.767881999999998,221.93132699999998 14.275918999999998,221.91344999999998 13.783968999999999,221.890467 13.292035999999998,221.86237699999998 12.800123,221.82918099999998 12.308232999999998,221.79088 11.816368999999998,221.74747399999998 11.324535,221.698965 10.832733999999999,221.645353 10.340967999999998,221.58664 9.849241,221.52282599999998 9.357555999999999,221.453913 8.865914999999998,221.379902 8.374322,221.300794 7.882778999999999,221.216591 7.391288999999997,221.12729399999998 7.106939999999998,221.07268 5.055218,224.49221699999998 4.0,224.093234 5.8130919999999975,214.272317 7.286907999999997,214.57068999999998 7.758676999999999,214.66130199999998 8.230390999999997,214.74700499999997 8.702051999999998,214.827802 9.173662999999998,214.90369399999997 9.645225999999997,214.974683 10.116744999999998,215.04076999999998 10.588221999999998,215.10195599999997 11.05966,215.158243 11.531062999999998,215.20963099999997 12.002432999999998,215.25612199999998 12.473772999999998,215.29771599999998 12.945087,215.33441499999998 13.416377999999998,215.366219 13.887648999999998,215.393129 14.358902999999998,215.415146 14.830143999999999,215.432269 15.301374,215.44449999999998 15.772597999999999,215.45183799999998 16.243819,215.454285 16.71504,215.45183799999998 17.186263999999998,215.44449999999998 17.657494,215.432269 18.128735,215.415146 18.599988999999997,215.393129 19.07126,215.366219 19.542551,215.33441499999998 20.013865,215.29771599999998 20.485205,215.25612199999998 20.956574999999997,215.20963099999997 21.427978,215.158243 21.899416,215.10195599999997 22.370893,215.04076999999998 22.842412,214.974683 23.313975,214.90369399999997 23.785586,214.827802 24.257247,214.74700499999997 24.728960999999998,214.66130199999998 25.20073,214.57068999999998 25.875859,214.434011 25.875859,220.974585 25.587784,221.032906 25.096349,221.12729399999998" stroke="#1f6fb2" stroke-width="0.1" /><text fill="#0a3d62" font-family="sans-serif" font-size="1.6" text-anchor="middle" x="25.875859" y="219.38226699999998">07</text><polygon fill="#cfe3f7" fill-opacity="0.5" points="71.627903,219.57485899999998 72.159438,219.645852 72.69099399999999,219.71279099999998 73.22256999999999,219.77567499999998 73.754166,219.83450399999998 74.28577999999999,219.889278 74.81741099999999,219.93999699999998 75.349058,219.98665899999997 75.880719,220.02926399999998 76.412393,220.067813 76.94407899999999,220.102305 77.475776,220.13273999999998 78.007482,220.15911699999998 78.539196,220.181437 79.070916,220.19969899999998 79.602642,220.213902 80.134372,220.22404799999998 80.66610399999999,220.230135 81.19783799999999,220.23216399999998 81.72957199999999,220.230135 82.261304,220.22404799999998 82.79303399999999,220.213902 83.32476,220.19969899999998 83.85648,220.181437 84.388194,220.15911699999998 84.9199,220.13273999999998 85.45159699999999,220.102305 85.983283,220.067813 86.514957,220.02926399999998 87.046618,219.98665899999997 87.57826499999999,219.93999699999998 88.10989599999999,219.889278 88.64151,219.83450399999998 89.17310599999999,219.77567499999998 89.70468199999999,219.71279099999998 90.236238,219.645852 90.76777299999999,219.57485899999998 91.299284,219.499813 92.679878,219.294345 92.679878,214.272317 91.01226799999999,214.520501 90.495575,214.59345499999998 89.978906,214.66246199999998 89.46225799999999,214.727523 88.94563,214.788639 88.429022,214.84581 87.912432,214.899036 87.395859,214.94831699999997 86.879302,214.993655 86.362759,215.03504999999998 85.846229,215.072501 85.329711,215.106009 84.813204,215.135574 84.296706,215.161197 83.780216,215.182877 83.263732,215.200615 82.747254,215.21441199999998 82.23078,215.224266 81.71430799999999,215.230179 81.19783799999999,215.23215 80.68136799999999,215.230179 80.164896,215.224266 79.648422,215.21441199999998 79.131944,215.200615 78.61546,215.182877 78.09897,215.161197 77.582472,215.135574 77.06596499999999,215.106009 76.549447,215.072501 76.032917,215.03504999999998 75.516374,214.993655 74.999817,214.94831699999997 74.483244,214.899036 73.96665399999999,214.84581 73.450046,214.788639 72.93341799999999,214.727523 72.41677,214.66246199999998 71.90010099999999,214.59345499999998 71.383408,214.520501 70.71579799999999,214.421143 70.71579799999999,219.44317099999998 71.096392,219.499813 71.627903,219.57485899999998 69.803693,219.57485899999998 69.27215799999999,219.645852 68.740602,219.71279099999998 68.209026,219.77567499999998 67.67742999999999,219.83450399999998 67.145816,219.889278 66.61418499999999,219.93999699999998 66.082538,219.98665899999997 65.550877,220.02926399999998 65.019203,220.067813 64.487517,220.102305 63.955819999999996,220.13273999999998 63.424113999999996,220.15911699999998 62.892399999999995,220.181437 62.360679999999995,220.19969899999998 61.828953999999996,220.213902 61.297224,220.22404799999998 60.765491999999995,220.230135 60.233757999999995,220.23216399999998 59.702023999999994,220.230135 59.170291999999996,220.22404799999998 58.63856199999999,220.213902 58.106835999999994,220.19969899999998 57.575115999999994,220.181437 57.04340199999999,220.15911699999998 56.51169599999999,220.13273999999998 55.97999899999999,220.102305 55.448313,220.067813 54.916638999999996,220.02926399999998 54.384978,219.98665899999997 53.853331,219.93999699999998 53.32169999999999,219.889278 52.790085999999995,219.83450399999998 52.258489999999995,219.77567499999998 51.726913999999994,219.71279099999998 51.195358,219.645852 50.663822999999994,219.57485899999998 50.132312,219.499813 48.751718,219.294345 48.751718,214.272317 50.41932799999999,214.520501 50.936021,214.59345499999998 51.45269,214.66246199999998 51.96933799999999,214.727523 52.485966,214.788639 53.002573999999996,214.84581 53.519163999999996,214.899036 54.035737,214.94831699999997 54.552293999999996,214.993655 55.068836999999995,215.03504999999998 55.585367,215.072501 56.101884999999996,215.106009 56.618392,215.135574 57.13489,215.161197 57.651379999999996,215.182877 58.167863999999994,215.200615 58.684341999999994,215.21441199999998 59.200815999999996,215.224266 59.717287999999996,215.230179 60.233757999999995,215.23215 60.75022799999999,215.230179 61.2667,215.224266 61.783173999999995,215.21441199999998 62.299651999999995,215.200615 62.816136,215.182877 63.332626,215.161197 63.849123999999996,215.135574 64.365631,215.106009 64.882149,215.072501 65.39867899999999,215.03504999999998 65.915222,214.993655 66.43177899999999,214.94831699999997 66.948352,214.899036 67.464942,214.84581 67.98155,214.788639 68.498178,214.727523 69.014826,214.66246199999998 69.53149499999999,214.59345499999998 70.048188,214.520501 70.71579799999999,214.421143 70.71579799999999,219.44317099999998 70.335204,219.499813 69.803693,219.57485899999998" stroke="#1f6fb2" stroke-width="0.1" /><text fill="#0a3d62" font-family="sans-serif" font-size="1.6" text-anchor="middle" x="70.71579799999999" y="217.2522405">08</text><polygon fill="#cfe3f7" fill-opacity="0.5" points="93.679878,217.92144399999998 93.702033,218.14638699999998 93.781976,218.409925 93.911797,218.65280299999998 94.086507,218.86568799999998 94.299392,219.04039799999998 94.54227,219.17021899999997 94.805808,219.250162 95.03075100000001,219.272317 106.329005,219.272317 106.553948,219.250162 106.817486,219.17021899999997 107.060364,219.04039799999998 107.273249,218.86568799999998 107.447959,218.65280299999998 107.57778,218.409925 107.657723,218.14638699999998 107.679878,217.92144399999998 107.679878,215.62319 107.657723,215.398247 107.57778,215.134709 107.447959,214.891831 107.273249,214.678946 107.060364,214.504236 106.817486,214.374415 106.553948,214.29447199999998 106.329005,214.272317 95.03075100000001,214.272317 94.805808,214.29447199999998 94.54227,214.374415 94.299392,214.504236 94.086507,214.678946 93.911797,214.891831 93.781976,215.134709 93.702033,215.398247 93.679878,215.62319 93.679878,217.92144399999998" stroke="#1f6fb2" stroke-width="0.1" /><text fill="#0a3d62" font-family="sans-serif" font-size="1.6" text-anchor="middle" x="100.679878" y="216.772317">06</text><polygon fill="#cfe3f7" fill-opacity="0.5" points="4.0,229.14134399999998 4.022155,229.36628699999997 4.102098,229.62982499999998 4.2319189999999995,229.87270299999997 4.406629,230.08558799999997 4.619514,230.26029799999998 4.862392,230.39011899999997 5.12593,230.47006199999998 5.350873,230.49221699999998 16.649127,230.49221699999998 16.87407,230.47006199999998 17.137608,230.39011899999997 17.380485999999998,230.26029799999998 17.593370999999998,230.08558799999997 17.768081000000002,229.87270299999997 17.897902000000002,229.62982499999998 17.977845000000002,229.36628699999997 18.0,229.14134399999998 18.0,226.84309 17.977845000000002,226.618147 17.897902000000002,226.35460899999998 17.768081000000002,226.111731 17.593370999999998,225.898846 17.380485999999998,225.724136 17.137608,225.594315 16.87407,225.51437199999998 16.649127,225.49221699999998 5.350873,225.49221699999998 5.12593,225.51437199999998 4.862392,225.594315 4.619514,225.724136 4.406629,225.898846 4.2319189999999995,226.111731 4.102098,226.35460899999998 4.022155,226.618147 4.0,226.84309 4.0,229.14134399999998" stroke="#1f6fb2" stroke-width="0.1" /><text fill="#0a3d62" font-family="sans-serif" font-size="1.6" text-anchor="middle" x="11.0" y="227.99221699999998">06</text></svg>