<?xml version="1.0" encoding="utf-8" ?>
<svg baseProfile="full" height="150.48760399999998cm" version="1.1" viewBox="0 0 168.0 150.48760399999998" width="168.0cm" xmlns="http://www.w3.org/2000/svg" xmlns:ev="http://www.w3.org/2001/xml-events" xmlns:xlink="http://www.w3.org/1999/xlink"><defs /><rect fill="#f7f3ea" height="142.48760399999998" stroke="#333" stroke-width="0.15" width="160.0" x="4.0" y="4.0" /><text fill="#000" font-family="sans-serif" font-size="1.4" x="4.0" y="3.0">PLANO DE CORTE — ancho 160 cm — largo 1.42 m</text><polygon fill="#cfe3f7" fill-opacity="0.5" points="4.0,74.267704 12.00722,74.267704 11.601177,17.827772 15.824922,5.262131 13.300661,4.0 12.604548000000001,4.928368 12.408809,5.189983 12.212994,5.452847 12.017382000000001,5.717166 11.822256,5.98315 11.6279,6.251011999999999 11.434603,6.520965 11.242656,6.793221 11.052355,7.067997 10.863996,7.345508 10.677882,7.6259689999999996 10.494319,7.909597 10.313615,8.196606 10.136242,8.486951000000001 9.963303,8.779094 9.795078,9.070626 9.63075,9.360295 9.469275,9.647313 9.309653,9.930903 9.150927,10.210297 8.992184,10.484739000000001 8.832553,10.753489 8.671203,11.015827 8.507341,11.271062 8.340206,11.518545 8.169058,11.757678 7.993161000000001,11.987943000000001 7.810869,12.210004 7.619404,12.426846 7.41765,12.641195 7.206278,12.853889 6.986212,13.065588 6.7584420000000005,13.27698 6.524011,13.488792 6.322425,13.667704 4.0,13.667704 4.0,74.267704" stroke="#1f6fb2" stroke-width="0.1" /><text fill="#0a3d62" font-family="sans-serif" font-size="1.6" text-anchor="middle" x="9.912461" y="39.133852">09</text><polygon fill="#cfe3f7" fill-opacity="0.5" points="16.824922,74.267704 24.832142,74.267704 24.426099,17.827772 28.649844,5.262131 26.125583,4.0 25.429470000000002,4.928368 25.233731,5.189983 25.037916000000003,5.452847 24.842304000000002,5.717166 24.647178,5.98315 24.452822,6.251011999999999 24.259525,6.520965 24.067578,6.793221 23.877277,7.067997 23.688918,7.345508 23.502804,7.6259689999999996 23.319241,7.909597 23.138537,8.196606 22.961164,8.486951000000001 22.788225,8.779094 22.62,9.070626 22.455672,9.360295 22.294197,9.647313 22.134575,9.930903 21.975849,10.210297 21.817106000000003,10.484739000000001 21.657475,10.753489 21.496125,11.015827 21.332263,11.271062 21.165128000000003,11.518545 20.99398,11.757678 20.818083,11.987943000000001 20.635791,12.210004 20.444326,12.426846 20.242572000000003,12.641195 20.031200000000002,12.853889 19.811134000000003,13.065588 19.583364,13.27698 19.348933000000002,13.488792 19.147347,13.667704 16.824922,13.667704 16.824922,74.267704" stroke="#1f6fb2" stroke-width="0.1" /><text fill="#0a3d62" font-family="sans-serif" font-size="1.6" text-anchor="middle" x="22.737383" y="39.133852">09</text><polygon fill="#cfe3f7" fill-opacity="0.5" points="29.649844,74.233067 57.349844000000004,74.233067 57.349844000000004,26.857360999999997 56.749912,26.171653999999997 56.396521,25.768483 56.040528,25.363836 55.681394,24.957849 55.318277,24.550319 54.95034,24.141047999999998 54.576750000000004,23.729844999999997 54.196687,23.316536 53.810258000000005,22.901911 53.420919,22.488083 53.034441,22.076037 52.655385,21.665301 52.288183000000004,21.255467 51.937261,20.846346999999998 51.606989,20.437973 51.30162,20.030609 51.025183999999996,19.624724 50.781365,19.22094 50.57334,18.819888 50.40363,18.421923 50.273231,18.024288 50.180244,17.618925 50.12149,17.199514999999998 50.095352000000005,16.764596 50.100468,16.313914 50.135391999999996,15.847847 50.198454,15.367222 50.287714,14.873137 50.400976,14.366815 50.535817,13.849511 50.689639,13.32245 50.859709,12.78679 51.043189999999996,12.243606999999999 51.237178,11.693886 51.438712,11.138521 51.970248,9.693617 38.924533000000004,4.0 38.254392,4.893731 38.058653,5.155346 37.862838,5.41821 37.667226,5.682529 37.472100000000005,5.948513 37.277744,6.216374999999999 37.084447000000004,6.486328 36.8925,6.758584 36.702199,7.03336 36.51384,7.310871 36.327726,7.5913319999999995 36.144163000000006,7.87496 35.963459,8.161969 35.786086000000005,8.452314000000001 35.613147,8.744457 35.444922000000005,9.035989 35.280594,9.325658 35.119119,9.612676 34.959497,9.896266 34.800771000000005,10.17566 34.642028,10.450102000000001 34.482397000000006,10.718852 34.321047,10.98119 34.157185,11.236425 33.990050000000004,11.483908 33.818902,11.723041 33.643005,11.953306000000001 33.460713,12.175367 33.269248000000005,12.392209 33.067494,12.606558 32.856122,12.819252 32.636056,13.030951 32.408286000000004,13.242343 32.173855,13.454155 31.972269,13.633067 29.649844,13.633067 29.649844,74.233067" stroke="#1f6fb2" stroke-width="0.1" /><text fill="#0a3d62" font-family="sans-serif" font-size="1.6" text-anchor="middle" x="43.499844" y="39.1165335">01</text><polygon fill="#cfe3f7" fill-opacity="0.5" points="58.349844000000004,74.233067 86.04984400000001,74.233067 86.04984400000001,26.857360999999997 85.44991200000001,26.171653999999997 85.096521,25.768483 84.74052800000001,25.363836 84.381394,24.957849 84.01827700000001,24.550319 83.65034,24.141047999999998 83.27675,23.729844999999997 82.896687,23.316536 82.51025800000001,22.901911 82.120919,22.488083 81.734441,22.076037 81.35538500000001,21.665301 80.988183,21.255467 80.637261,20.846346999999998 80.306989,20.437973 80.00162,20.030609 79.725184,19.624724 79.48136500000001,19.22094 79.27334,18.819888 79.10363000000001,18.421923 78.973231,18.024288 78.880244,17.618925 78.82149000000001,17.199514999999998 78.79535200000001,16.764596 78.800468,16.313914 78.835392,15.847847 78.898454,15.367222 78.98771400000001,14.873137 79.100976,14.366815 79.235817,13.849511 79.389639,13.32245 79.559709,12.78679 79.74319,12.243606999999999 79.937178,11.693886 80.138712,11.138521 80.670248,9.693617 67.624533,4.0 66.95439200000001,4.893731 66.75865300000001,5.155346 66.562838,5.41821 66.367226,5.682529 66.1721,5.948513 65.977744,6.216374999999999 65.784447,6.486328 65.5925,6.758584 65.40219900000001,7.03336 65.21384,7.310871 65.027726,7.5913319999999995 64.84416300000001,7.87496 64.663459,8.161969 64.486086,8.452314000000001 64.313147,8.744457 64.14492200000001,9.035989 63.980594,9.325658 63.819119,9.612676 63.659497,9.896266 63.50077100000001,10.17566 63.342028000000006,10.450102000000001 63.18239700000001,10.718852 63.021047,10.98119 62.857185,11.236425 62.69005000000001,11.483908 62.518902000000004,11.723041 62.343005000000005,11.953306000000001 62.160713,12.175367 61.96924800000001,12.392209 61.767494000000006,12.606558 61.556122,12.819252 61.336056000000006,13.030951 61.10828600000001,13.242343 60.873855000000006,13.454155 60.67226900000001,13.633067 58.349844000000004,13.633067 58.349844000000004,74.233067" stroke="#1f6fb2" stroke-width="0.1" /><text fill="#0a3d62" font-family="sans-serif" font-size="1.6" text-anchor="middle" x="72.199844" y="39.1165335">01</text><polygon fill="#cfe3f7" fill-opacity="0.5" points="91.65338100000001,66.004613 117.48208500000001,66.004613 122.094586,14.559622999999998 121.388243,13.774989999999999 120.967436,13.312847999999999 120.53796,12.851835999999999 120.09776300000001,12.395239 119.64708900000001,11.9474 119.188167,11.51006 118.721992,11.082705 118.24918400000001,10.664458 117.770352,10.254439 117.286091,9.851766999999999 116.796986,9.455561 116.30361300000001,9.064943 115.806533,8.679036 115.30564000000001,8.296466 114.798901,7.915755 114.283821,7.538259 113.759262,7.1668959999999995 113.224247,6.804792 112.677744,6.4551289999999995 112.11868700000001,6.121163 111.54599200000001,5.80625 110.958596,5.513857 110.35550500000001,5.24759 109.73737400000002,5.011762 109.10929300000001,4.809616 108.477002,4.638591 107.84275000000001,4.494111 107.208081,4.371542 106.574414,4.266382 105.943098,4.174272 105.31546600000001,4.0909949999999995 104.593968,4.0 103.85880700000001,4.05394 103.218061,4.104962 102.573491,4.164405 101.92624400000001,4.236438 101.277471,4.325369 100.628369,4.435643 99.98024000000001,4.57184 99.33465100000001,4.738636 98.695789,4.939882 98.069523,5.174805 97.45815800000001,5.439152 96.86110000000001,5.729414 96.27751800000001,6.042254 95.70653000000001,6.374447 95.147238,6.722872 94.598757,7.084489 94.060236,7.456322999999999 93.53086,7.835451 93.00904100000001,8.2196 92.49182300000001,8.609293000000001 91.97859500000001,9.007759 91.47119500000001,9.417183999999999 90.97183700000001,9.839547 90.482792,10.276864 90.00640600000001,10.731176 89.545118,11.204525 89.101477,11.698924 88.67864200000001,12.215724 88.282289,12.750982 87.912518,13.294198000000002 87.56332,13.837394 87.04984400000001,14.659607999999999 91.65338100000001,66.004613" stroke="#1f6fb2" stroke-width="0.1" /><text fill="#0a3d62" font-family="sans-serif" font-size="1.6" text-anchor="middle" x="104.572215" y="35.0023065">04</text><polygon fill="#cfe3f7" fill-opacity="0.5" points="127.69812300000001,66.004613 153.526827,66.004613 158.139328,14.559622999999998 157.432985,13.774989999999999 157.012178,13.312847999999999 156.582702,12.851835999999999 156.142505,12.395239 155.691831,11.9474 155.232909,11.51006 154.766734,11.082705 154.293926,10.664458 153.81509400000002,10.254439 153.330833,9.851766999999999 152.84172800000002,9.455561 152.348355,9.064943 151.85127500000002,8.679036 151.350382,8.296466 150.84364300000001,7.915755 150.328563,7.538259 149.80400400000002,7.1668959999999995 149.268989,6.804792 148.722486,6.4551289999999995 148.163429,6.121163 147.590734,5.80625 147.003338,5.513857 146.400247,5.24759 145.782116,5.011762 145.15403500000002,4.809616 144.521744,4.638591 143.887492,4.494111 143.252823,4.371542 142.619156,4.266382 141.98784,4.174272 141.360208,4.0909949999999995 140.63871,4.0 139.903549,4.05394 139.26280300000002,4.104962 138.618233,4.164405 137.970986,4.236438 137.322213,4.325369 136.673111,4.435643 136.024982,4.57184 135.379393,4.738636 134.740531,4.939882 134.11426500000002,5.174805 133.5029,5.439152 132.905842,5.729414 132.32226,6.042254 131.751272,6.374447 131.19198,6.722872 130.64349900000002,7.084489 130.10497800000002,7.456322999999999 129.575602,7.835451 129.053783,8.2196 128.536565,8.609293000000001 128.023337,9.007759 127.51593700000001,9.417183999999999 127.01657900000001,9.839547 126.527534,10.276864 126.05114800000001,10.731176 125.58986,11.204525 125.146219,11.698924 124.72338400000001,12.215724 124.327031,12.750982 123.95726,13.294198000000002 123.608062,13.837394 123.094586,14.659607999999999 127.69812300000001,66.004613" stroke="#1f6fb2" stroke-width="0.1" /><text fill="#0a3d62" font-family="sans-serif" font-size="1.6" text-anchor="middle" x="140.616957" y="35.0023065">04</text><polygon fill="#cfe3f7" fill-opacity="0.5" points="54.0,87.966392 53.54488,87.279729 53.256333999999995,86.84411399999999 52.967847,86.408048 52.679368,85.971184 52.390845,85.533176 52.102226,85.09367599999999 51.81346,84.65233799999999 51.524504,84.208831 51.235746,83.76344 50.948979,83.317216 50.666720999999995,82.870756 50.391082,82.42400799999999 50.124128999999996,81.97692599999999 49.867903,81.52950899999999 49.624413000000004,81.081797 49.39562,80.633862 49.18343,80.1858 48.989674,79.73771199999999 48.816095000000004,79.28968599999999 48.664342000000005,78.84176 48.535945,78.39383199999999 48.431893,77.94394399999999 48.351451,77.488163 48.292833,77.024293 48.254642000000004,76.552268 48.203385999999995,75.267704 29.0,75.267704 29.0,135.26770399999998 54.0,135.26770399999998 54.0,87.966392 4.0,87.966392 4.455120000000001,87.279729 4.743666000000001,86.84411399999999 5.032153000000001,86.408048 5.320632,85.971184 5.609155000000001,85.533176 5.897773999999998,85.09367599999999 6.186540000000001,84.65233799999999 6.475496,84.208831 6.764254000000001,83.76344 7.051020999999999,83.317216 7.333279000000001,82.870756 7.608917999999999,82.42400799999999 7.875871,81.97692599999999 8.132097000000002,81.52950899999999 8.375587,81.081797 8.604379999999999,80.633862 8.816569999999999,80.1858 9.010326,79.73771199999999 9.183905,79.28968599999999 9.335657999999999,78.84176 9.464054999999998,78.39383199999999 9.568107000000001,77.94394399999999 9.648549,77.488163 9.707166999999998,77.024293 9.745358,76.552268 9.796614000000002,75.267704 29.0,75.267704 29.0,135.26770399999998 4.0,135.26770399999998 4.0,87.966392" stroke="#1f6fb2" stroke-width="0.1" /><text fill="#0a3d62" font-family="sans-serif" font-size="1.6" text-anchor="middle" x="29.0" y="105.267704">02</text><polygon fill="#cfe3f7" fill-opacity="0.5" points="55.0,86.539609 62.0,90.949609 69.0,86.539609 69.0,75.267704 55.0,75.267704 55.0,86.539609" stroke="#1f6fb2" stroke-width="0.1" /><text fill="#0a3d62" font-family="sans-serif" font-size="1.6" text-anchor="middle" x="62.0" y="83.1086565">10</text><polygon fill="#cfe3f7" fill-opacity="0.5" points="70.0,87.516831 70.029841,87.81981099999999 70.132547,88.158386 70.299332,88.47041899999999 70.523786,88.743918 70.797285,88.96837199999999 71.109318,89.13515699999999 71.447893,89.23786299999999 71.750873,89.267704 93.249127,89.267704 93.552107,89.23786299999999 93.890682,89.13515699999999 94.202715,88.96837199999999 94.476214,88.743918 94.70066800000001,88.47041899999999 94.867453,88.158386 94.970159,87.81981099999999 95.0,87.516831 95.0,77.018577 94.970159,76.71559699999999 94.867453,76.377022 94.70066800000001,76.064989 94.476214,75.79149 94.202715,75.567036 93.890682,75.400251 93.552107,75.297545 93.249127,75.267704 71.750873,75.267704 71.447893,75.297545 71.109318,75.400251 70.797285,75.567036 70.523786,75.79149 70.299332,76.064989 70.132547,76.377022 70.029841,76.71559699999999 70.0,77.018577 70.0,87.516831" stroke="#1f6fb2" stroke-width="0.1" /><text fill="#0a3d62" font-family="sans-serif" font-size="1.6" text-anchor="middle" x="82.5" y="82.267704">05</text><polygon fill="#cfe3f7" fill-opacity="0.5" points="96.0,87.516831 96.029841,87.81981099999999 96.132547,88.158386 96.299332,88.47041899999999 96.523786,88.743918 96.797285,88.96837199999999 97.109318,89.13515699999999 97.447893,89.23786299999999 97.750873,89.267704 119.249127,89.267704 119.552107,89.23786299999999 119.890682,89.13515699999999 120.202715,88.96837199999999 120.476214,88.743918 120.70066800000001,88.47041899999999 120.867453,88.158386 120.970159,87.81981099999999 121.0,87.516831 121.0,77.018577 120.970159,76.71559699999999 120.867453,76.377022 120.70066800000001,76.064989 120.476214,75.79149 120.202715,75.567036 119.890682,75.400251 119.552107,75.297545 119.249127,75.267704 97.750873,75.267704 97.447893,75.297545 97.109318,75.400251 96.797285,75.567036 96.523786,75.79149 96.299332,76.064989 96.132547,76.377022 96.029841,76.71559699999999 96.0,77.018577 96.0,87.516831" stroke="#1f6fb2" stroke-width="0.1" /><text fill="#0a3d62" font-family="sans-serif" font-size="1.6" text-anchor="middle" x="108.5" y="82.267704">05</text><polygon fill="#cfe3f7" fill-opacity="0.5" points="161.109812,86.19376799999999 161.10827,85.706087 161.12286,85.21110399999999 161.152042,84.70925299999999 161.194218,84.201 161.247736,83.686825 161.310889,83.167209 161.38192700000002,82.64262199999999 161.459058,82.11351599999999 161.540457,81.58031899999999 161.748646,80.24659 148.84569199999999,75.267704 148.206584,75.701815 148.003755,75.838304 147.803425,75.970602 147.605097,76.097901 147.408291,76.21945099999999 147.212533,76.33456299999999 147.016683,76.44298099999999 146.818733,76.545255 146.617676,76.641894 146.4137,76.732805 146.207108,76.817843 145.998204,76.896867 145.787293,76.96974399999999 145.574684,77.036345 145.360684,77.09654599999999 145.145601,77.15023199999999 144.929644,77.197313 144.712166,77.23790199999999 144.492015,77.272489 144.268762,77.301564 144.04241,77.325549 143.81299,77.344877 143.580557,77.359996 143.345178,77.37137 143.106932,77.379482 142.865904,77.38483 142.622182,77.387934 142.375856,77.389326 142.127012,77.389561 141.874323,77.38920399999999 141.874323,87.38920499999999 161.157512,87.38920499999999 161.109812,86.19376799999999 122.638834,86.19376799999999 122.640376,85.706087 122.625786,85.21110399999999 122.596604,84.70925299999999 122.554428,84.201 122.50091,83.686825 122.437757,83.167209 122.366719,82.64262199999999 122.28958800000001,82.11351599999999 122.208189,81.58031899999999 122.0,80.24659 134.902954,75.267704 135.542062,75.701815 135.744891,75.838304 135.945221,75.970602 136.143549,76.097901 136.340355,76.21945099999999 136.536113,76.33456299999999 136.731963,76.44298099999999 136.929913,76.545255 137.13097,76.641894 137.334946,76.732805 137.541538,76.817843 137.750442,76.896867 137.961353,76.96974399999999 138.173962,77.036345 138.38796200000002,77.09654599999999 138.603045,77.15023199999999 138.819002,77.197313 139.03648,77.23790199999999 139.256631,77.272489 139.479884,77.301564 139.706236,77.325549 139.935656,77.344877 140.168089,77.359996 140.403468,77.37137 140.641714,77.379482 140.882742,77.38483 141.126464,77.387934 141.37279,77.389326 141.621634,77.389561 141.874323,77.38920399999999 141.874323,87.38920499999999 122.591134,87.38920499999999 122.638834,86.19376799999999" stroke="#1f6fb2" stroke-width="0.1" /><text fill="#0a3d62" font-family="sans-serif" font-size="1.6" text-anchor="middle" x="141.874323" y="81.32845449999999">03</text><polygon fill="#cfe3f7" fill-opacity="0.5" points="26.655368999999997,143.12268099999997 27.146859,143.211978 27.638402,143.296181 28.129994999999997,143.37528899999998 28.621636,143.4493 29.113321,143.51821299999997 29.605047999999996,143.58202699999998 30.096814,143.64074 30.588614999999997,143.69435199999998 31.080448999999998,143.74286099999998 31.572312999999998,143.78626699999998 32.064203,143.82456799999997 32.556116,143.85776399999997 33.048049,143.885854 33.539998999999995,143.90883699999998 34.031962,143.92671399999998 34.523936,143.939483 35.015916,143.94714499999998 35.507898999999995,143.94969799999998 35.999882,143.94714499999998 36.491862,143.939483 36.983836,143.92671399999998 37.475798999999995,143.90883699999998 37.967749,143.885854 38.459682,143.85776399999997 38.951595,143.82456799999997 39.443484999999995,143.78626699999998 39.935349,143.74286099999998 40.427183,143.69435199999998 40.918983999999995,143.64074 41.41075,143.58202699999998 41.902477,143.51821299999997 42.394161999999994,143.4493 42.885802999999996,143.37528899999998 43.377396,143.296181 43.868939,143.211978 44.360428999999996,143.12268099999997 44.644778,143.06806699999999 46.6965,146.48760399999998 47.751718,146.088621 45.938626,136.26770399999998 44.46481,136.56607699999998 43.993041,136.65668899999997 43.521327,136.74239199999997 43.049666,136.82318899999999 42.578055,136.89908099999997 42.106492,136.97007 41.634973,137.03615699999997 41.163495999999995,137.09734299999997 40.692057999999996,137.15363 40.220655,137.20501799999997 39.749285,137.25150899999997 39.277945,137.29310299999997 38.806630999999996,137.32980199999997 38.33534,137.361606 37.864069,137.38851599999998 37.392815,137.410533 36.921574,137.42765599999998 36.450344,137.43988699999997 35.979119999999995,137.44722499999997 35.507898999999995,137.449672 35.036677999999995,137.44722499999997 34.565454,137.43988699999997 34.094224,137.42765599999998 33.622983,137.410533 33.151729,137.38851599999998 32.680458,137.361606 32.209166999999994,137.32980199999997 31.737852999999998,137.29310299999997 31.266512999999996,137.25150899999997 30.795143,137.20501799999997 30.323739999999997,137.15363 29.852301999999998,137.09734299999997 29.380824999999998,137.03615699999997 28.909305999999997,136.97007 28.437742999999998,136.89908099999997 27.966131999999998,136.82318899999999 27.494470999999997,136.74239199999997 27.022757,136.65668899999997 26.550987999999997,136.56607699999998 25.875859,136.429398 25.875859,142.96997199999998 26.163933999999998,143.028293 26.655368999999997,143.12268099999997 25.096349,143.12268099999997 24.604858999999998,143.211978 24.113315999999998,143.296181 23.621723,143.37528899999998 23.130081999999998,143.4493 22.638396999999998,143.51821299999997 22.14667,143.58202699999998 21.654904,143.64074 21.163103,143.69435199999998 20.671269,143.74286099999998 20.179405,143.78626699999998 19.687514999999998,143.82456799999997 19.195601999999997,143.85776399999997 18.703668999999998,143.885854 18.211719,143.90883699999998 17.719755999999997,143.92671399999998 17.227781999999998,143.939483 16.735802,143.94714499999998 16.243819,143.94969799999998 15.751835999999999,143.94714499999998 15.259856,143.939483 14.767881999999998,143.92671399999998 14.275918999999998,143.90883699999998 13.783968999999999,143.885854 13.292035999999998,143.85776399999997 12.800123,143.82456799999997 12.308232999999998,143.78626699999998 11.816368999999998,143.74286099999998 11.324535,143.69435199999998 10.832733999999999,143.64074 10.340967999999998,143.58202699999998 9.849241,143.51821299999997 9.357555999999999,143.4493 8.865914999999998,143.37528899999998 8.374322,143.296181 7.882778999999999,143.211978 7.391288999999997,143.12268099999997 7.106939999999998,143.06806699999999 5.055218,146.48760399999998 4.0,146.088621 5.8130919999999975,136.26770399999998 7.286907999999997,136.56607699999998 7.758676999999999,136.65668899999997 8.230390999999997,136.74239199999997 8.702051999999998,136.82318899999999 9.173662999999998,136.89908099999997 9.645225999999997,136.97007 10.116744999999998,137.03615699999997 10.588221999999998,137.09734299999997 11.05966,137.15363 11.531062999999998,137.20501799999997 12.002432999999998,137.25150899999997 12.473772999999998,137.29310299999997 12.945087,137.32980199999997 13.416377999999998,137.361606 13.887648999999998,137.38851599999998 14.358902999999998,137.410533 14.830143999999999,137.42765599999998 15.301374,137.43988699999997 15.772597999999999,137.44722499999997 16.243819,137.449672 16.71504,137.44722499999997 17.186263999999998,137.43988699999997 17.657494,137.42765599999998 18.128735,137.410533 18.599988999999997,137.38851599999998 19.07126,137.361606 19.542551,137.32980199999997 20.013865,137.29310299999997 20.485205,137.25150899999997 20.956574999999997,137.20501799999997 21.427978,137.15363 21.899416,137.09734299999997 22.370893,137.03615699999997 22.842412,136.97007 23.313975,136.89908099999997 23.785586,136.82318899999999 24.257247,136.74239199999997 24.728960999999998,136.65668899999997 25.20073,136.56607699999998 25.875859,136.429398 25.875859,142.96997199999998 25.587784,143.028293 25.096349,143.12268099999997" stroke="#1f6fb2" stroke-width="0.1" /><text fill="#0a3d62" font-family="sans-serif" font-size="1.6" text-anchor="middle" x="25.875859" y="141.37765399999998">07</text><polygon fill="#cfe3f7" fill-opacity="0.5" points="71.627903,141.57024599999997 72.159438,141.64123899999998 72.69099399999999,141.70817799999998 73.22256999999999,141.77106199999997 73.754166,141.82989099999998 74.28577999999999,141.88466499999998 74.81741099999999,141.93538399999997 75.349058,141.98204599999997 75.880719,142.02465099999998 76.412393,142.0632 76.94407899999999,142.097692 77.475776,142.12812699999998 78.007482,142.15450399999997 78.539196,142.17682399999998 79.070916,142.19508599999998 79.602642,142.20928899999998 80.134372,142.21943499999998 80.66610399999999,142.22552199999998 81.19783799999999,142.22755099999998 81.72957199999999,142.22552199999998 82.261304,142.21943499999998 82.79303399999999,142.20928899999998 83.32476,142.19508599999998 83.85648,142.17682399999998 84.388194,142.15450399999997 84.9199,142.12812699999998 85.45159699999999,142.097692 85.983283,142.0632 86.514957,142.02465099999998 87.046618,141.98204599999997 87.57826499999999,141.93538399999997 88.10989599999999,141.88466499999998 88.64151,141.82989099999998 89.17310599999999,141.77106199999997 89.70468199999999,141.70817799999998 90.236238,141.64123899999998 90.76777299999999,141.57024599999997 91.299284,141.49519999999998 92.679878,141.289732 92.679878,136.26770399999998 91.01226799999999,136.515888 90.495575,136.58884199999997 89.978906,136.65784899999997 89.46225799999999,136.72290999999998 88.94563,136.78402599999998 88.429022,136.841197 87.912432,136.894423 87.395859,136.94370399999997 86.879302,136.98904199999998 86.362759,137.03043699999998 85.846229,137.06788799999998 85.329711,137.101396 84.813204,137.13096099999999 84.296706,137.15658399999998 83.780216,137.17826399999998 83.263732,137.196002 82.747254,137.20979899999998 82.23078,137.219653 81.71430799999999,137.225566 81.19783799999999,137.22753699999998 80.68136799999999,137.225566 80.164896,137.219653 79.648422,137.20979899999998 79.131944,137.196002 78.61546,137.17826399999998 78.09897,137.15658399999998 77.582472,137.13096099999999 77.06596499999999,137.101396 76.549447,137.06788799999998 76.032917,137.03043699999998 75.516374,136.98904199999998 74.999817,136.94370399999997 74.483244,136.894423 73.96665399999999,136.841197 73.450046,136.78402599999998 72.93341799999999,136.72290999999998 72.41677,136.65784899999997 71.90010099999999,136.58884199999997 71.383408,136.515888 70.71579799999999,136.41653 70.71579799999999,141.43855799999997 71.096392,141.49519999999998 71.627903,141.57024599999997 69.803693,141.57024599999997 69.27215799999999,141.64123899999998 68.740602,141.70817799999998 68.209026,141.77106199999997 67.67742999999999,141.82989099999998 67.145816,141.88466499999998 66.61418499999999,141.93538399999997 66.082538,141.98204599999997 65.550877,142.02465099999998 65.019203,142.0632 64.487517,142.097692 63.955819999999996,142.12812699999998 63.424113999999996,142.15450399999997 62.892399999999995,142.17682399999998 62.360679999999995,142.19508599999998 61.828953999999996,142.20928899999998 61.297224,142.21943499999998 60.765491999999995,142.22552199999998 60.233757999999995,142.22755099999998 59.702023999999994,142.22552199999998 59.170291999999996,142.21943499999998 58.63856199999999,142.20928899999998 58.106835999999994,142.19508599999998 57.575115999999994,142.17682399999998 57.04340199999999,142.15450399999997 56.51169599999999,142.12812699999998 55.97999899999999,142.097692 55.448313,142.0632 54.916638999999996,142.02465099999998 54.384978,141.98204599999997 53.853331,141.93538399999997 53.32169999999999,141.88466499999998 52.790085999999995,141.82989099999998 52.258489999999995,141.77106199999997 51.726913999999994,141.70817799999998 51.195358,141.64123899999998 50.663822999999994,141.57024599999997 50.132312,141.49519999999998 48.751718,141.289732 48.751718,136.26770399999998 50.41932799999999,136.515888 50.936021,136.58884199999997 51.45269,136.65784899999997 51.96933799999999,136.72290999999998 52.485966,136.78402599999998 53.002573999999996,136.841197 53.519163999999996,136.894423 54.035737,136.94370399999997 54.552293999999996,136.98904199999998 55.068836999999995,137.03043699999998 55.585367,137.06788799999998 56.101884999999996,137.101396 56.618392,137.13096099999999 57.13489,137.15658399999998 57.651379999999996,137.17826399999998 58.167863999999994,137.196002 58.684341999999994,137.20979899999998 59.200815999999996,137.219653 59.717287999999996,137.225566 60.233757999999995,137.22753699999998 60.75022799999999,137.225566 61.2667,137.219653 61.783173999999995,137.20979899999998 62.299651999999995,137.196002 62.816136,137.17826399999998 63.332626,137.15658399999998 63.849123999999996,137.13096099999999 64.365631,137.101396 64.882149,137.06788799999998 65.39867899999999,137.03043699999998 65.915222,136.98904199999998 66.43177899999999,136.94370399999997 66.948352,136.894423 67.464942,136.841197 67.98155,136.78402599999998 68.498178,136.72290999999998 69.014826,136.65784899999997 69.53149499999999,136.58884199999997 70.048188,136.515888 70.71579799999999,136.41653 70.71579799999999,141.43855799999997 70.335204,141.49519999999998 69.803693,141.57024599999997" stroke="#1f6fb2" stroke-width="0.1" /><text fill="#0a3d62" font-family="sans-serif" font-size="1.6" text-anchor="middle" x="70.71579799999999" y="139.2476275">08</text><polygon fill="#cfe3f7" fill-opacity="0.5" points="93.679878,139.91683099999997 93.702033,140.14177399999997 93.781976,140.40531199999998 93.911797,140.64818999999997 94.086507,140.86107499999997 94.299392,141.03578499999998 94.54227,141.16560599999997 94.805808,141.24554899999998 95.03075100000001,141.26770399999998 106.329005,141.26770399999998 106.553948,141.24554899999998 106.817486,141.16560599999997 107.060364,141.03578499999998 107.273249,140.86107499999997 107.447959,140.64818999999997 107.57778,140.40531199999998 107.657723,140.14177399999997 107.679878,139.91683099999997 107.679878,137.618577 107.657723,137.393634 107.57778,137.13009599999998 107.447959,136.887218 107.273249,136.674333 107.060364,136.49962299999999 106.817486,136.369802 106.553948,136.28985899999998 106.329005,136.26770399999998 95.03075100000001,136.26770399999998 94.805808,136.28985899999998 94.54227,136.369802 94.299392,136.49962299999999 94.086507,136.674333 93.911797,136.887218 93.781976,137.13009599999998 93.702033,137.393634 93.679878,137.618577 93.679878,139.91683099999997" stroke="#1f6fb2" stroke-width="0.1" /><text fill="#0a3d62" font-family="sans-serif" font-size="1.6" text-anchor="middle" x="100.679878" y="138.76770399999998">06</text><polygon fill="#cfe3f7" fill-opacity="0.5" points="108.679878,139.91683099999997 108.702033,140.14177399999997 108.781976,140.40531199999998 108.911797,140.64818999999997 109.086507,140.86107499999997 109.299392,141.03578499999998 109.54227,141.16560599999997 109.805808,141.24554899999998 110.03075100000001,141.26770399999998 121.329005,141.26770399999998 121.553948,141.24554899999998 121.817486,141.16560599999997 122.060364,141.03578499999998 122.273249,140.86107499999997 122.447959,140.64818999999997 122.57778,140.40531199999998 122.657723,140.14177399999997 122.679878,139.91683099999997 122.679878,137.618577 122.657723,137.393634 122.57778,137.13009599999998 122.447959,136.887218 122.273249,136.674333 122.060364,136.49962299999999 121.817486,136.369802 121.553948,136.28985899999998 121.329005,136.26770399999998 110.03075100000001,136.26770399999998 109.805808,136.28985899999998 109.54227,136.369802 109.299392,136.49962299999999 109.086507,136.674333 108.911797,136.887218 108.781976,137.13009599999998 108.702033,137.393634 108.679878,137.618577 108.679878,139.91683099999997" stroke="#1f6fb2" stroke-width="0.1" /><text fill="#0a3d62" font-family="sans-serif" font-size="1.6" text-anchor="middle" x="115.679878" y="138.76770399999998">06</text></svg>