<?xml version="1.0" encoding="utf-8" ?>
<svg baseProfile="full" height="150.455245cm" version="1.1" viewBox="0 0 168.0 150.455245" width="168.0cm" xmlns="http://www.w3.org/2000/svg" xmlns:ev="http://www.w3.org/2001/xml-events" xmlns:xlink="http://www.w3.org/1999/xlink"><defs /><rect fill="#f7f3ea" height="142.455245" stroke="#333" stroke-width="0.15" width="160.0" x="4.0" y="4.0" /><text fill="#000" font-family="sans-serif" font-size="1.4" x="4.0" y="3.0">PLANO DE CORTE — ancho 160 cm — largo 1.42 m</text><polygon fill="#cfe3f7" fill-opacity="0.5" points="4.0,74.22502 12.004204999999999,74.22502 11.767353,17.786548 15.991589000000001,5.219447 13.552695,4.0 12.843099,4.744645 12.642945000000001,4.955145 12.442503,5.166875 12.242009,5.380059 12.041703,5.594919 11.841828,5.811685 11.642628,6.030584 11.444354,6.251848 11.247258,6.475709 11.051596,6.702399 10.857628,6.932153 10.665619,7.165203 10.475837,7.401785 10.28881,7.641801 10.105879,7.883639 9.927577,8.124932000000001 9.753237,8.36448 9.581977,8.601444 9.412961,8.835002 9.245398,9.064347999999999 9.078543,9.288692999999999 8.911695,9.507271 8.744194,9.719344 8.575414,9.924214 8.404759,10.121234 8.231647,10.309816 8.055375,10.489571 7.873572,10.661846 7.683351,10.829644 7.483987,10.994762999999999 7.276093,11.157837 7.060393,11.319497 6.8376660000000005,11.480412999999999 6.608735,11.641299 6.001597,12.060154 5.813181,13.625020000000001 4.0,13.625020000000001 4.0,74.22502" stroke="#1f6fb2" stroke-width="0.1" /><text fill="#0a3d62" font-family="sans-serif" font-size="1.6" text-anchor="middle" x="9.9957945" y="39.11251">09</text><polygon fill="#cfe3f7" fill-opacity="0.5" points="16.991589,74.22502 24.995794,74.22502 24.758942,17.786548 28.983178000000002,5.219447 26.544284,4.0 25.834688,4.744645 25.634534000000002,4.955145 25.434092,5.166875 25.233598,5.380059 25.033292000000003,5.594919 24.833417,5.811685 24.634217,6.030584 24.435943,6.251848 24.238847,6.475709 24.043185,6.702399 23.849217000000003,6.932153 23.657208,7.165203 23.467426000000003,7.401785 23.280399000000003,7.641801 23.097468,7.883639 22.919166,8.124932000000001 22.744826000000003,8.36448 22.573566,8.601444 22.40455,8.835002 22.236987,9.064347999999999 22.070132,9.288692999999999 21.903284,9.507271 21.735783,9.719344 21.567003,9.924214 21.396348000000003,10.121234 21.223236,10.309816 21.046964000000003,10.489571 20.865161,10.661846 20.67494,10.829644 20.475576,10.994762999999999 20.267682,11.157837 20.051982000000002,11.319497 19.829255,11.480412999999999 19.600324,11.641299 18.993186,12.060154 18.80477,13.625020000000001 16.991589,13.625020000000001 16.991589,74.22502" stroke="#1f6fb2" stroke-width="0.1" /><text fill="#0a3d62" font-family="sans-serif" font-size="1.6" text-anchor="middle" x="22.9873835" y="39.11251">09</text><polygon fill="#cfe3f7" fill-opacity="0.5" points="29.983178000000002,74.220528 57.683178,74.220528 57.683178,25.909930000000003 57.172303,25.255083000000003 56.871525000000005,24.870417000000003 56.568516,24.484644000000003 56.262502,24.097658000000003 55.95271,23.709359000000003 55.63837100000001,23.319657000000003 55.318718000000004,22.928466 54.992988,22.535707000000002 54.66042,22.141308000000002 54.32086700000001,21.745907000000003 53.976829,21.351646000000002 53.633258,20.95986 53.294026,20.570247000000002 52.962793000000005,20.182426 52.643219,19.796194 52.33894,19.411521999999998 52.053525,19.028567000000002 51.790427,18.647662 51.552894,18.2693 51.343873,17.894072 51.165893,17.522548999999998 51.020964000000006,17.155077 50.910515000000004,16.791349 50.834788,16.426736 50.792038000000005,16.052101999999998 50.780072000000004,15.662021 50.797525,15.255987 50.842863,14.834503999999999 50.914204,14.398591999999999 51.009297000000004,13.949536 51.125555000000006,13.48871 51.260126,13.017463000000001 51.409953,12.537056 51.571832,12.048626 51.742454,11.553177999999999 52.212496,10.213376 39.531592,4.0 38.826277000000005,4.740153 38.62612300000001,4.950653 38.425681000000004,5.162383 38.225187000000005,5.375567 38.024881,5.590427 37.825006,5.807193 37.625806000000004,6.026092 37.427532,6.247356 37.230436000000005,6.471217 37.034774,6.697907 36.840806,6.9276610000000005 36.648797,7.160711 36.459015,7.397293 36.271988,7.637309 36.089057000000004,7.879147 35.910755,8.12044 35.736415,8.359988000000001 35.565155000000004,8.596952 35.396139000000005,8.83051 35.228576000000004,9.059856 35.061721000000006,9.284201 34.894873000000004,9.502779 34.727372,9.714852 34.558592000000004,9.919722 34.387937,10.116741999999999 34.214825000000005,10.305323999999999 34.038553,10.485078999999999 33.856750000000005,10.657354 33.666529000000004,10.825152 33.467165,10.990271 33.259271000000005,11.153345 33.043571,11.315005 32.820844,11.475921 32.591913000000005,11.636807000000001 31.984775000000003,12.055662 31.796359000000002,13.620528 29.983178000000002,13.620528 29.983178000000002,74.220528" stroke="#1f6fb2" stroke-width="0.1" /><text fill="#0a3d62" font-family="sans-serif" font-size="1.6" text-anchor="middle" x="43.833178000000004" y="39.110264">01</text><polygon fill="#cfe3f7" fill-opacity="0.5" points="58.683178,74.220528 86.383178,74.220528 86.383178,25.909930000000003 85.872303,25.255083000000003 85.571525,24.870417000000003 85.268516,24.484644000000003 84.962502,24.097658000000003 84.65271,23.709359000000003 84.338371,23.319657000000003 84.01871799999999,22.928466 83.692988,22.535707000000002 83.36042,22.141308000000002 83.020867,21.745907000000003 82.676829,21.351646000000002 82.333258,20.95986 81.99402599999999,20.570247000000002 81.662793,20.182426 81.343219,19.796194 81.03894,19.411521999999998 80.753525,19.028567000000002 80.490427,18.647662 80.252894,18.2693 80.04387299999999,17.894072 79.865893,17.522548999999998 79.720964,17.155077 79.61051499999999,16.791349 79.53478799999999,16.426736 79.492038,16.052101999999998 79.48007199999999,15.662021 79.497525,15.255987 79.542863,14.834503999999999 79.614204,14.398591999999999 79.70929699999999,13.949536 79.825555,13.48871 79.960126,13.017463000000001 80.10995299999999,12.537056 80.27183199999999,12.048626 80.442454,11.553177999999999 80.912496,10.213376 68.231592,4.0 67.526277,4.740153 67.326123,4.950653 67.125681,5.162383 66.925187,5.375567 66.724881,5.590427 66.525006,5.807193 66.325806,6.026092 66.127532,6.247356 65.930436,6.471217 65.734774,6.697907 65.540806,6.9276610000000005 65.34879699999999,7.160711 65.159015,7.397293 64.971988,7.637309 64.789057,7.879147 64.610755,8.12044 64.436415,8.359988000000001 64.265155,8.596952 64.096139,8.83051 63.928576,9.059856 63.761720999999994,9.284201 63.594873,9.502779 63.427372,9.714852 63.258592,9.919722 63.087937,10.116741999999999 62.914825,10.305323999999999 62.738552999999996,10.485078999999999 62.55675,10.657354 62.366529,10.825152 62.167165,10.990271 61.959271,11.153345 61.743570999999996,11.315005 61.520844,11.475921 61.291913,11.636807000000001 60.684775,12.055662 60.496359,13.620528 58.683178,13.620528 58.683178,74.220528" stroke="#1f6fb2" stroke-width="0.1" /><text fill="#0a3d62" font-family="sans-serif" font-size="1.6" text-anchor="middle" x="72.53317799999999" y="39.110264">01</text><polygon fill="#cfe3f7" fill-opacity="0.5" points="91.48449600000001,66.00359399999999 117.334558,66.00359399999999 121.443937,13.323665 120.707373,12.583144 120.288124,12.166549 119.860219,11.75121 119.42197,11.34058 118.974187,10.938876 118.519211,10.547537 118.05792,10.16598 117.590896,9.793364 117.118709,9.428844 116.641917,9.071578 116.161067,8.720724 115.676697,8.375443 115.189311,8.034885 114.698421,7.697569 114.201826,7.362601 113.69756699999999,7.031548 113.184855,6.706991 112.662939,6.391611 112.13103000000001,6.088133 111.588319,5.799352 111.033992,5.528138 110.46726,5.277456 109.887437,5.050387000000001 109.295972,4.850729 108.697957,4.680252 108.097735,4.536151 107.496827,4.414488 106.896409,4.311355 106.29757000000001,4.222953 105.70135,4.145593 105.108782,4.075702 104.43332000000001,4.0 103.746486,4.044157 103.143011,4.08631 102.535849,4.135506 101.925884,4.195236 101.314001,4.269096 100.701115,4.36079 100.088213,4.474127 99.476409,4.613012 98.868435,4.780999 98.269532,4.978663 97.682707,5.202616 97.107778,5.449848 96.544126,5.717555 95.991083,6.003019 95.447961,6.303598 94.914069,6.616722 94.388738,6.939874 93.871323,7.2705839999999995 93.360851,7.606654000000001 92.854489,7.947855000000001 92.350705,8.297102 91.850824,8.656963000000001 91.35701900000001,9.029521 90.871521,9.416908 90.396634,9.821291 89.934762,10.244858 89.488431,10.689781 89.060619,11.157833 88.657398,11.646064 88.280829,12.143974 87.925781,12.642255 87.383178,13.427 91.48449600000001,66.00359399999999" stroke="#1f6fb2" stroke-width="0.1" /><text fill="#0a3d62" font-family="sans-serif" font-size="1.6" text-anchor="middle" x="104.4135575" y="35.001796999999996">04</text><polygon fill="#cfe3f7" fill-opacity="0.5" points="126.545255,66.00359399999999 152.395317,66.00359399999999 156.50469600000002,13.323665 155.768132,12.583144 155.348883,12.166549 154.920978,11.75121 154.482729,11.34058 154.034946,10.938876 153.57997,10.547537 153.11867900000001,10.16598 152.651655,9.793364 152.179468,9.428844 151.702676,9.071578 151.22182600000002,8.720724 150.737456,8.375443 150.25007,8.034885 149.75918000000001,7.697569 149.262585,7.362601 148.758326,7.031548 148.245614,6.706991 147.723698,6.391611 147.191789,6.088133 146.649078,5.799352 146.094751,5.528138 145.528019,5.277456 144.948196,5.050387000000001 144.356731,4.850729 143.758716,4.680252 143.15849400000002,4.536151 142.55758600000001,4.414488 141.957168,4.311355 141.358329,4.222953 140.762109,4.145593 140.169541,4.075702 139.494079,4.0 138.807245,4.044157 138.20377000000002,4.08631 137.596608,4.135506 136.98664300000002,4.195236 136.37476,4.269096 135.761874,4.36079 135.14897200000001,4.474127 134.537168,4.613012 133.929194,4.780999 133.33029100000002,4.978663 132.743466,5.202616 132.16853700000001,5.449848 131.604885,5.717555 131.051842,6.003019 130.50872,6.303598 129.974828,6.616722 129.449497,6.939874 128.932082,7.2705839999999995 128.42161000000002,7.606654000000001 127.915248,7.947855000000001 127.41146400000001,8.297102 126.91158300000001,8.656963000000001 126.417778,9.029521 125.93228,9.416908 125.45739300000001,9.821291 124.99552100000001,10.244858 124.54919000000001,10.689781 124.121378,11.157833 123.718157,11.646064 123.341588,12.143974 122.98654,12.642255 122.443937,13.427 126.545255,66.00359399999999" stroke="#1f6fb2" stroke-width="0.1" /><text fill="#0a3d62" font-family="sans-serif" font-size="1.6" text-anchor="middle" x="139.47431650000001" y="35.001796999999996">04</text><polygon fill="#cfe3f7" fill-opacity="0.5" points="54.0,86.970571 53.576683,86.296001 53.305985,85.86478600000001 53.034673,85.432895 52.762482,85.000057 52.489147,84.566003 52.214404,84.130463 51.938275000000004,83.693619 51.659963000000005,83.254361 51.379282,82.812546 51.097791,82.370414 50.817353,81.928128 50.540913,81.48647 50.270819,81.045375 50.009404,80.604842 49.758966,80.164932 49.521767,79.725762 49.300011,79.2875 49.095827,78.850348 48.911248,78.414527 48.748188,77.980242 48.608427,77.547638 48.493601,77.116741 48.405138,76.687033 48.3437,76.254745 48.25981,75.22502 29.0,75.22502 29.0,135.22502 54.0,135.22502 54.0,86.970571 4.0,86.970571 4.423317000000001,86.296001 4.694015,85.86478600000001 4.9653269999999985,85.432895 5.2375180000000015,85.000057 5.510853000000001,84.566003 5.785596000000002,84.130463 6.061724999999999,83.693619 6.340036999999999,83.254361 6.620718,82.812546 6.902208999999999,82.370414 7.182646999999999,81.928128 7.459087,81.48647 7.7291810000000005,81.045375 7.990596,80.604842 8.241033999999999,80.164932 8.478233,79.725762 8.699988999999999,79.2875 8.904173,78.850348 9.088752,78.414527 9.251812000000001,77.980242 9.391573000000001,77.547638 9.506398999999998,77.116741 9.594862,76.687033 9.656300000000002,76.254745 9.740189999999998,75.22502 29.0,75.22502 29.0,135.22502 4.0,135.22502 4.0,86.970571" stroke="#1f6fb2" stroke-width="0.1" /><text fill="#0a3d62" font-family="sans-serif" font-size="1.6" text-anchor="middle" x="29.0" y="105.22502">02</text><polygon fill="#cfe3f7" fill-opacity="0.5" points="55.0,86.496925 62.0,90.906925 69.0,86.496925 69.0,75.22502 55.0,75.22502 55.0,86.496925" stroke="#1f6fb2" stroke-width="0.1" /><text fill="#0a3d62" font-family="sans-serif" font-size="1.6" text-anchor="middle" x="62.0" y="83.0659725">10</text><polygon fill="#cfe3f7" fill-opacity="0.5" points="70.0,87.474147 70.029841,87.77712700000001 70.132547,88.115702 70.299332,88.427735 70.523786,88.701234 70.797285,88.92568800000001 71.109318,89.092473 71.447893,89.195179 71.750873,89.22502 93.249127,89.22502 93.552107,89.195179 93.890682,89.092473 94.202715,88.92568800000001 94.476214,88.701234 94.70066800000001,88.427735 94.867453,88.115702 94.970159,87.77712700000001 95.0,87.474147 95.0,76.975893 94.970159,76.672913 94.867453,76.334338 94.70066800000001,76.022305 94.476214,75.748806 94.202715,75.52435200000001 93.890682,75.357567 93.552107,75.254861 93.249127,75.22502 71.750873,75.22502 71.447893,75.254861 71.109318,75.357567 70.797285,75.52435200000001 70.523786,75.748806 70.299332,76.022305 70.132547,76.334338 70.029841,76.672913 70.0,76.975893 70.0,87.474147" stroke="#1f6fb2" stroke-width="0.1" /><text fill="#0a3d62" font-family="sans-serif" font-size="1.6" text-anchor="middle" x="82.5" y="82.22502">05</text><polygon fill="#cfe3f7" fill-opacity="0.5" points="96.0,87.474147 96.029841,87.77712700000001 96.132547,88.115702 96.299332,88.427735 96.523786,88.701234 96.797285,88.92568800000001 97.109318,89.092473 97.447893,89.195179 97.750873,89.22502 119.249127,89.22502 119.552107,89.195179 119.890682,89.092473 120.202715,88.92568800000001 120.476214,88.701234 120.70066800000001,88.427735 120.867453,88.115702 120.970159,87.77712700000001 121.0,87.474147 121.0,76.975893 120.970159,76.672913 120.867453,76.334338 120.70066800000001,76.022305 120.476214,75.748806 120.202715,75.52435200000001 119.890682,75.357567 119.552107,75.254861 119.249127,75.22502 97.750873,75.22502 97.447893,75.254861 97.109318,75.357567 96.797285,75.52435200000001 96.523786,75.748806 96.299332,76.022305 96.132547,76.334338 96.029841,76.672913 96.0,76.975893 96.0,87.474147" stroke="#1f6fb2" stroke-width="0.1" /><text fill="#0a3d62" font-family="sans-serif" font-size="1.6" text-anchor="middle" x="108.5" y="82.22502">05</text><polygon fill="#cfe3f7" fill-opacity="0.5" points="161.598388,85.938046 161.586378,85.489102 161.59657099999998,85.031071 161.627278,84.564254 161.676698,84.089102 161.742919,83.606153 161.823914,83.115987 161.91756,82.619189 162.021649,82.116326 162.133901,81.60793100000001 162.251976,81.094491 162.581032,79.691533 149.35711700000002,75.22502 148.727291,75.732581 148.527648,75.892012 148.330127,76.046897 148.13411,76.196428 147.939008,76.339854 147.744241,76.476482 147.548881,76.605922 147.351035,76.728622 147.149542,76.845157 146.944542,76.95538 146.736416,77.059008 146.525546,77.155765 146.31231400000001,77.24539 146.097104,77.327629 145.88029699999998,77.402244 145.662271,77.469008 145.443359,77.52771800000001 145.222986,77.578406 144.999549,77.621628 144.77212,77.658068 144.540658,77.688235 144.305205,77.712644 144.06583799999999,77.731831 143.822666,77.746356 143.575813,77.756805 143.325418,77.763792 143.07162399999999,77.767957 142.814574,77.769967 142.554409,77.770514 142.290516,77.770317 142.290516,87.348095 161.71326299999998,87.348095 161.598388,85.938046 122.982644,85.938046 122.994654,85.489102 122.984461,85.031071 122.953754,84.564254 122.904334,84.089102 122.83811299999999,83.606153 122.757118,83.115987 122.663472,82.619189 122.559383,82.116326 122.447131,81.60793100000001 122.32905600000001,81.094491 122.0,79.691533 135.223915,75.22502 135.853741,75.732581 136.053384,75.892012 136.250905,76.046897 136.446922,76.196428 136.642024,76.339854 136.836791,76.476482 137.032151,76.605922 137.229997,76.728622 137.43149,76.845157 137.63649,76.95538 137.844616,77.059008 138.055486,77.155765 138.268718,77.24539 138.483928,77.327629 138.700735,77.402244 138.918761,77.469008 139.137673,77.52771800000001 139.358046,77.578406 139.581483,77.621628 139.808912,77.658068 140.04037399999999,77.688235 140.275827,77.712644 140.515194,77.731831 140.758366,77.746356 141.005219,77.756805 141.255614,77.763792 141.509408,77.767957 141.766458,77.769967 142.026623,77.770514 142.290516,77.770317 142.290516,87.348095 122.867769,87.348095 122.982644,85.938046" stroke="#1f6fb2" stroke-width="0.1" /><text fill="#0a3d62" font-family="sans-serif" font-size="1.6" text-anchor="middle" x="142.290516" y="81.2865575">03</text><polygon fill="#cfe3f7" fill-opacity="0.5" points="25.629846999999998,143.088528 26.097611999999998,143.178009 26.565438,143.262388 27.033322,143.341663 27.501261,143.415832 27.969252,143.484894 28.437292,143.548847 28.905376,143.607689 29.373502,143.661419 29.841667,143.710036 30.309865,143.753539 30.778094,143.791926 31.246351,143.825197 31.71463,143.853351 32.182929,143.876386 32.651244,143.894304 33.119569999999996,143.907102 33.587904,143.914781 34.056242,143.917341 34.52458,143.914781 34.992914999999996,143.907102 35.461241,143.894304 35.929556,143.876386 36.397855,143.853351 36.866134,143.825197 37.33439,143.791926 37.80262,143.753539 38.270818,143.710036 38.738982,143.661419 39.207108,143.607689 39.675193,143.548847 40.143232,143.484894 40.611222999999995,143.415832 41.079162999999994,143.341663 41.547047,143.262388 42.014872999999994,143.178009 42.482637999999994,143.088528 42.712979000000004,143.041947 44.760958,146.455245 45.816176,146.056262 44.001177,136.22502 42.543639,136.535706 42.096525,136.626124 41.649474,136.711643 41.202484999999996,136.792264 40.755554000000004,136.867989 40.308677,136.93882 39.861852999999996,137.004758 39.415077,137.065805 38.968346,137.121963 38.521657,137.173233 38.075005,137.219616 37.628389,137.261113 37.181802,137.297726 36.735243,137.329455 36.288707,137.356301 35.842191,137.378266 35.39569,137.395348 34.949201,137.40755000000001 34.50272,137.414871 34.056242,137.417311 33.609764999999996,137.414871 33.163284,137.40755000000001 32.716795,137.395348 32.270294,137.378266 31.823777,137.356301 31.377240999999998,137.329455 30.930681999999997,137.297726 30.484096,137.261113 30.037478999999998,137.219616 29.590828,137.173233 29.144139,137.121963 28.697408,137.065805 28.250632,137.004758 27.803807,136.93882 27.356931,136.867989 26.91,136.792264 26.463010999999998,136.711643 26.01596,136.626124 25.568845,136.535706 24.908088,136.39486 24.908088,142.939792 25.162146,142.993946 25.629846999999998,143.088528 24.186329,143.088528 23.718564,143.178009 23.250738,143.262388 22.782854,143.341663 22.314915,143.415832 21.846923999999998,143.484894 21.378884,143.548847 20.9108,143.607689 20.442674,143.661419 19.974508999999998,143.710036 19.506311,143.753539 19.038082,143.791926 18.569824999999998,143.825197 18.101546,143.853351 17.633246999999997,143.876386 17.164932,143.894304 16.696606,143.907102 16.228271999999997,143.914781 15.759934,143.917341 15.291596,143.914781 14.823260999999999,143.907102 14.354935,143.894304 13.886619999999999,143.876386 13.418320999999999,143.853351 12.950042,143.825197 12.481786,143.791926 12.013556,143.753539 11.545357999999998,143.710036 11.077193999999999,143.661419 10.609067999999999,143.607689 10.140982999999999,143.548847 9.672944,143.484894 9.204953,143.415832 8.737013000000001,143.341663 8.269129,143.262388 7.801303000000001,143.178009 7.333538000000001,143.088528 7.103196999999998,143.041947 5.055218,146.455245 4.0,146.056262 5.814999,136.22502 7.272537,136.535706 7.719650999999999,136.626124 8.166702,136.711643 8.613691,136.792264 9.060621999999999,136.867989 9.507499,136.93882 9.954322999999999,137.004758 10.401098999999999,137.065805 10.84783,137.121963 11.294519,137.173233 11.741171,137.219616 12.187787,137.261113 12.634374,137.297726 13.080933,137.329455 13.527469,137.356301 13.973984999999999,137.378266 14.420485999999999,137.395348 14.866975,137.40755000000001 15.313455999999999,137.414871 15.759934,137.417311 16.206411,137.414871 16.652892,137.40755000000001 17.099381,137.395348 17.545882,137.378266 17.992399,137.356301 18.438935,137.329455 18.885494,137.297726 19.332079999999998,137.261113 19.778697,137.219616 20.225348,137.173233 20.672037,137.121963 21.118768,137.065805 21.565544,137.004758 22.012369,136.93882 22.459245,136.867989 22.906176,136.792264 23.353165,136.711643 23.800216,136.626124 24.247331,136.535706 24.908088,136.39486 24.908088,142.939792 24.65403,142.993946 24.186329,143.088528" stroke="#1f6fb2" stroke-width="0.1" /><text fill="#0a3d62" font-family="sans-serif" font-size="1.6" text-anchor="middle" x="24.908088" y="141.3401325">07</text><polygon fill="#cfe3f7" fill-opacity="0.5" points="68.669746,141.534943 69.177425,141.606031 69.68513,141.67306 70.192858,141.73603 70.700608,141.79494 71.20837900000001,141.849789 71.71616900000001,141.900578 72.223978,141.947305 72.731803,141.98997 73.239643,142.028573 73.747497,142.063114 74.255363,142.093591 74.76324,142.120006 75.271126,142.142357 75.779019,142.160644 76.286919,142.174868 76.79482300000001,142.185028 77.30273,142.191124 77.810639,142.193156 78.31854799999999,142.191124 78.82645600000001,142.185028 79.33436,142.174868 79.84226,142.160644 80.350153,142.142357 80.85803899999999,142.120006 81.365916,142.093591 81.873782,142.063114 82.381636,142.028573 82.889476,141.98997 83.397301,141.947305 83.905109,141.900578 84.41290000000001,141.849789 84.920671,141.79494 85.428421,141.73603 85.936149,141.67306 86.44385299999999,141.606031 86.951533,141.534943 87.459186,141.459796 88.808794,141.249218 88.808794,136.22502 87.158586,136.4825 86.666424,136.555353 86.17428799999999,136.624265 85.682177,136.689236 85.190089,136.750266 84.698024,136.807356 84.20598,136.860507 83.713955,136.909718 83.221948,136.954991 82.729957,136.996326 82.237982,137.033723 81.746021,137.067182 81.254071,137.09670500000001 80.76213200000001,137.12229 80.270203,137.143939 79.77828099999999,137.161652 79.28636499999999,137.175428 78.794454,137.185268 78.302546,137.191172 77.810639,137.19314 77.318733,137.191172 76.826825,137.185268 76.334914,137.175428 75.842998,137.161652 75.351076,137.143939 74.859146,137.12229 74.367208,137.09670500000001 73.875258,137.067182 73.383297,137.033723 72.891321,136.996326 72.399331,136.954991 71.907324,136.909718 71.415299,136.860507 70.923255,136.807356 70.43119,136.750266 69.93910199999999,136.689236 69.446991,136.624265 68.954855,136.555353 68.462693,136.4825 67.812485,136.381049 67.812485,141.405247 68.162093,141.459796 68.669746,141.534943 66.955224,141.534943 66.44754499999999,141.606031 65.93984,141.67306 65.432112,141.73603 64.924362,141.79494 64.416591,141.849789 63.908801,141.900578 63.400992,141.947305 62.893167,141.98997 62.385327,142.028573 61.877472999999995,142.063114 61.369607,142.093591 60.861729999999994,142.120006 60.353843999999995,142.142357 59.845951,142.160644 59.338051,142.174868 58.830147,142.185028 58.32224,142.191124 57.814330999999996,142.193156 57.306422,142.191124 56.798514,142.185028 56.29061,142.174868 55.782709999999994,142.160644 55.274817,142.142357 54.766931,142.120006 54.259054,142.093591 53.751188,142.063114 53.243334,142.028573 52.735494,141.98997 52.227669,141.947305 51.719860999999995,141.900578 51.21207,141.849789 50.704299,141.79494 50.196549,141.73603 49.688821,141.67306 49.181117,141.606031 48.673437,141.534943 48.165784,141.459796 46.816176,141.249218 46.816176,136.22502 48.466384,136.4825 48.958546,136.555353 49.450682,136.624265 49.942792999999995,136.689236 50.434881,136.750266 50.926946,136.807356 51.418989999999994,136.860507 51.911015,136.909718 52.403022,136.954991 52.895013,136.996326 53.386988,137.033723 53.878949,137.067182 54.370899,137.09670500000001 54.862837999999996,137.12229 55.354766999999995,137.143939 55.846689,137.161652 56.338605,137.175428 56.830516,137.185268 57.322424,137.191172 57.814330999999996,137.19314 58.306236999999996,137.191172 58.798145,137.185268 59.290056,137.175428 59.781971999999996,137.161652 60.273894,137.143939 60.765823999999995,137.12229 61.257762,137.09670500000001 61.749712,137.067182 62.241673,137.033723 62.733649,136.996326 63.225639,136.954991 63.717646,136.909718 64.209671,136.860507 64.70171500000001,136.807356 65.19378,136.750266 65.685868,136.689236 66.177979,136.624265 66.670115,136.555353 67.162277,136.4825 67.812485,136.381049 67.812485,141.405247 67.46287699999999,141.459796 66.955224,141.534943" stroke="#1f6fb2" stroke-width="0.1" /><text fill="#0a3d62" font-family="sans-serif" font-size="1.6" text-anchor="middle" x="67.812485" y="139.209088">08</text><polygon fill="#cfe3f7" fill-opacity="0.5" points="89.808794,139.874147 89.830949,140.09909 89.910892,140.362628 90.04071300000001,140.605506 90.215423,140.818391 90.428308,140.993101 90.671186,141.122922 90.934724,141.202865 91.15966700000001,141.22502 102.457921,141.22502 102.68286400000001,141.202865 102.946402,141.122922 103.18928000000001,140.993101 103.40216500000001,140.818391 103.576875,140.605506 103.70669600000001,140.362628 103.78663900000001,140.09909 103.808794,139.874147 103.808794,137.575893 103.78663900000001,137.35095 103.70669600000001,137.087412 103.576875,136.844534 103.40216500000001,136.631649 103.18928000000001,136.456939 102.946402,136.327118 102.68286400000001,136.247175 102.457921,136.22502 91.15966700000001,136.22502 90.934724,136.247175 90.671186,136.327118 90.428308,136.456939 90.215423,136.631649 90.04071300000001,136.844534 89.910892,137.087412 89.830949,137.35095 89.808794,137.575893 89.808794,139.874147" stroke="#1f6fb2" stroke-width="0.1" /><text fill="#0a3d62" font-family="sans-serif" font-size="1.6" text-anchor="middle" x="96.808794" y="138.72502">06</text><polygon fill="#cfe3f7" fill-opacity="0.5" points="104.808794,139.874147 104.830949,140.09909 104.910892,140.362628 105.04071300000001,140.605506 105.215423,140.818391 105.428308,140.993101 105.671186,141.122922 105.934724,141.202865 106.15966700000001,141.22502 117.457921,141.22502 117.68286400000001,141.202865 117.946402,141.122922 118.18928000000001,140.993101 118.40216500000001,140.818391 118.576875,140.605506 118.70669600000001,140.362628 118.78663900000001,140.09909 118.808794,139.874147 118.808794,137.575893 118.78663900000001,137.35095 118.70669600000001,137.087412 118.576875,136.844534 118.40216500000001,136.631649 118.18928000000001,136.456939 117.946402,136.327118 117.68286400000001,136.247175 117.457921,136.22502 106.15966700000001,136.22502 105.934724,136.247175 105.671186,136.327118 105.428308,136.456939 105.215423,136.631649 105.04071300000001,136.844534 104.910892,137.087412 104.830949,137.35095 104.808794,137.575893 104.808794,139.874147" stroke="#1f6fb2" stroke-width="0.1" /><text fill="#0a3d62" font-family="sans-serif" font-size="1.6" text-anchor="middle" x="111.808794" y="138.72502">06</text></svg>