<?xml version="1.0" encoding="utf-8" ?>
<svg baseProfile="full" height="150.330346cm" version="1.1" viewBox="0 0 156.4457246725638 150.330346" width="156.4457246725638cm" xmlns="http://www.w3.org/2000/svg" xmlns:ev="http://www.w3.org/2001/xml-events" xmlns:xlink="http://www.w3.org/1999/xlink"><defs /><g fill="none" id="CONSTRUCCION" stroke="#888888" stroke-width="0.08"><line x1="5.7" x2="5.7" y1="13.730346" y2="72.330346" /><line x1="111.07679184148637" x2="111.07679184148637" y1="64.33034599999999" y2="52.330346" /><line x1="129.4457246725638" x2="152.4457246725638" y1="10.330346" y2="10.330346" /><line x1="37.6" x2="49.6" y1="85.550346" y2="85.550346" /></g><g fill="none" id="CORTE" stroke="#d00000" stroke-width="0.08"><polygon points="3.0,73.330346 30.7,73.330346 30.7,25.954639999999998 30.100068,25.268932999999997 29.746677,24.865762 29.390684,24.461115 29.03155,24.055128 28.668433,23.647598 28.300496,23.238326999999998 27.926906,22.827123999999998 27.546843,22.413815 27.160414,21.99919 26.771075,21.585362 26.384597,21.173316 26.005541,20.76258 25.638339,20.352746 25.287416999999998,19.943626 24.957145,19.535252 24.651775999999998,19.127888 24.375339999999998,18.722003 24.131521,18.318219 23.923496,17.917167 23.753785999999998,17.519202 23.623387,17.121567 23.5304,16.716204 23.471646,16.296794 23.445508,15.861875000000001 23.450623999999998,15.411193 23.485547999999998,14.945126 23.54861,14.464501 23.63787,13.970416 23.751132,13.464094000000001 23.885973,12.94679 24.039794999999998,12.419729 24.209865,11.884069 24.393345999999998,11.340886 24.587334,10.791165 24.788868,10.2358 25.320404,8.790896 12.051794,3.0 5.020795000000001,20.730345999999997 3.0,20.730345999999997 3.0,73.330346" /><polygon points="60.7,16.029034000000003 60.244879999999995,15.342371000000002 59.956334,14.906756 59.667846999999995,14.47069 59.379368,14.033826 59.090845,13.595818 58.802226000000005,13.156318 58.513459999999995,12.714979999999999 58.224503999999996,12.271473000000002 57.935745999999995,11.826082000000001 57.648979,11.379858 57.366721,10.933398000000002 57.091082,10.48665 56.824129,10.039568000000001 56.567903,9.592151000000001 56.324413,9.144439 56.09562,8.696504000000001 55.883430000000004,8.248442 55.689674,7.8003540000000005 55.516095,7.352328 55.364342,6.904402000000001 55.235945,6.456474 55.131893,6.006586 55.051451,5.550805 54.992833000000005,5.086935 54.954642,4.61491 54.903386,3.330346 35.7,3.330346 35.7,63.330346 60.7,63.330346 60.7,16.029034000000003" /><polygon points="84.935489,14.134909 84.933947,13.647228 84.948537,13.152245 84.97771900000001,12.650394 85.019895,12.142141 85.073413,11.627966 85.136566,11.10835 85.207604,10.583763 85.284735,10.054657 85.366134,9.52146 85.574323,8.187731 72.671369,3.208845 72.032261,3.642956 71.829432,3.779445 71.629102,3.911743 71.430774,4.039042 71.233968,4.160592 71.03821,4.275704 70.84236,4.384122 70.64441000000001,4.486396 70.443353,4.583035 70.239377,4.673946 70.032785,4.758984 69.823881,4.838008 69.61297,4.910885 69.400361,4.977486 69.186361,5.037687 68.971278,5.091373 68.75532100000001,5.138454 68.53784300000001,5.179043 68.31769200000001,5.21363 68.09443900000001,5.242705 67.868087,5.2666900000000005 67.63866700000001,5.286018 67.40623400000001,5.301137 67.170855,5.312511 66.932609,5.320622999999999 66.691581,5.325971 66.447859,5.329075 66.20153300000001,5.3304670000000005 65.95268899999999,5.3307020000000005 65.7,5.3303449999999994 65.7,15.330346 84.98318900000001,15.330346 84.935489,14.134909" /><polygon points="94.03946223112722,65.33034599999999 119.8681662311272,65.33034599999999 124.48066723112721,13.885356 123.77432423112721,13.100723 123.35351723112721,12.638581 122.9240412311272,12.177569 122.48384423112721,11.720972 122.03317023112722,11.273133 121.57424823112721,10.835793 121.10807323112721,10.408438 120.6352652311272,9.990191 120.15643323112721,9.580172 119.6721722311272,9.1775 119.18306723112721,8.781294 118.6896942311272,8.390676000000001 118.19261423112721,8.004769 117.69172123112722,7.622199 117.18498223112721,7.241488 116.66990223112721,6.863992 116.14534323112721,6.492629 115.61032823112721,6.1305250000000004 115.06382523112721,5.780862 114.50476823112722,5.446896 113.9320732311272,5.131983 113.3446772311272,4.83959 112.74158623112722,4.573323 112.12345523112721,4.3374950000000005 111.49537423112722,4.135349 110.8630832311272,3.964324 110.22883123112722,3.819844 109.59416223112721,3.697275 108.96049523112721,3.592115 108.32917923112721,3.500005 107.70154723112721,3.416728 106.98004923112721,3.325733 106.2448882311272,3.379673 105.60414223112721,3.430695 104.95957223112721,3.490138 104.3123252311272,3.562171 103.66355223112721,3.651102 103.01445023112721,3.7613760000000003 102.36632123112722,3.897573 101.72073223112722,4.064369 101.08187023112721,4.265615 100.45560423112721,4.500538000000001 99.8442392311272,4.764885 99.24718123112721,5.055147 98.66359923112721,5.367987 98.09261123112721,5.70018 97.53331923112721,6.048605 96.98483823112721,6.410222 96.44631723112721,6.782056 95.91694123112721,7.161184 95.3951222311272,7.545332999999999 94.87790423112722,7.935026000000001 94.3646762311272,8.333492 93.85727623112722,8.742917 93.35791823112721,9.16528 92.86887323112721,9.602597 92.3924872311272,10.056909 91.93119923112721,10.530258 91.48755823112721,11.024657 91.0647232311272,11.541457 90.66837023112721,12.076715 90.29859923112721,12.619931000000001 89.94940123112721,13.163127000000001 89.43592523112721,13.985341 94.03946223112722,65.33034599999999" /><polygon points="128.4457246725638,15.579473 128.47556567256382,15.882453 128.5782716725638,16.221028 128.7450566725638,16.533061 128.9695106725638,16.80656 129.2430096725638,17.031014 129.55504267256381,17.197799 129.8936176725638,17.300505 130.19659767256383,17.330346 151.6948516725638,17.330346 151.99783167256382,17.300505 152.3364066725638,17.197799 152.64843967256382,17.031014 152.9219386725638,16.80656 153.14639267256382,16.533061 153.31317767256382,16.221028 153.4158836725638,15.882453 153.4457246725638,15.579473 153.4457246725638,5.081219 153.4158836725638,4.778239 153.31317767256382,4.4396640000000005 153.14639267256382,4.127631 152.9219386725638,3.854132 152.64843967256382,3.629678 152.3364066725638,3.462893 151.99783167256382,3.360187 151.6948516725638,3.330346 130.19659767256383,3.330346 129.8936176725638,3.360187 129.55504267256381,3.462893 129.2430096725638,3.629678 128.9695106725638,3.854132 128.7450566725638,4.127631 128.5782716725638,4.4396640000000005 128.47556567256382,4.778239 128.4457246725638,5.081219 128.4457246725638,15.579473" /><polygon points="3.0,80.979473 3.022155,81.20441600000001 3.1020980000000002,81.467954 3.2319190000000004,81.71083200000001 3.406629,81.92371700000001 3.619514,82.098427 3.8623920000000003,82.22824800000001 4.12593,82.30819100000001 4.350873,82.330346 15.649127,82.330346 15.87407,82.30819100000001 16.137608,82.22824800000001 16.380485999999998,82.098427 16.593370999999998,81.92371700000001 16.768081000000002,81.71083200000001 16.897902000000002,81.467954 16.977845000000002,81.20441600000001 17.0,80.979473 17.0,78.68121900000001 16.977845000000002,78.456276 16.897902000000002,78.192738 16.768081000000002,77.94986 16.593370999999998,77.736975 16.380485999999998,77.56226500000001 16.137608,77.432444 15.87407,77.352501 15.649127,77.330346 4.350873,77.330346 4.12593,77.352501 3.8623920000000003,77.432444 3.619514,77.56226500000001 3.406629,77.736975 3.2319190000000004,77.94986 3.1020980000000002,78.192738 3.022155,78.456276 3.0,78.68121900000001 3.0,80.979473" /><polygon points="21.0,147.330346 29.00722,147.330346 28.601177,90.890414 32.824922,78.32477300000001 30.300660999999998,77.06264200000001 29.604548,77.99101 29.408808999999998,78.25262500000001 29.212994,78.515489 29.017381999999998,78.779808 28.822256,79.045792 28.6279,79.313654 28.434603,79.583607 28.242656,79.855863 28.052355,80.130639 27.863996,80.40815 27.677882,80.68861100000001 27.494319,80.972239 27.313615,81.259248 27.136242,81.549593 26.963303,81.84173600000001 26.795078,82.133268 26.63075,82.422937 26.469275,82.70995500000001 26.309652999999997,82.99354500000001 26.150927,83.27293900000001 25.992183999999998,83.547381 25.832553,83.816131 25.671203,84.078469 25.507341,84.33370400000001 25.340206,84.581187 25.169058,84.82032000000001 24.993161,85.05058500000001 24.810869,85.27264600000001 24.619404,85.48948800000001 24.41765,85.70383700000001 24.206277999999998,85.916531 23.986212,86.12823 23.758442,86.339622 23.524010999999998,86.551434 23.322425,86.73034600000001 21.0,86.73034600000001 21.0,147.330346" /><polygon points="36.6,88.60225100000001 43.6,93.012251 50.6,88.60225100000001 50.6,77.330346 36.6,77.330346 36.6,88.60225100000001" /></g><g fill="none" id="COSTURA" stroke="#00a000" stroke-width="0.08"><polygon points="4.0,21.730345999999997 5.7,21.730345999999997 12.6,4.3303460000000005 24.0564392373896,9.330346 23.84959802771455,9.892613580940363 23.645801650517317,10.454212169710791 23.4480949382757,11.014472774141343 23.25952272346752,11.572726402062086 23.08312983857059,12.128304061303078 22.92196111606271,12.68053675969439 22.779061388421706,13.228755505066076 22.657475488125385,13.772291305248205 22.560248247651558,14.310475168070836 22.49042449947803,14.842638101364034 22.451049076082626,15.368111112957864 22.445166809943142,15.886225210682387 22.4758225335374,16.396311402367665 22.54606107934321,16.89770069584376 22.658927279838384,17.38972409894074 22.817015777873205,17.87179362039634 23.018439554671197,18.344127637281662 23.25874127090857,18.807406994669332 23.533433110351083,19.26231802122656 23.838027256764505,19.70954704562056 24.168035893914595,20.149780396518548 24.518971205567123,20.583704402587745 24.886345375487853,21.01200539249535 25.265670587442546,21.435369694908598 25.652459025196965,21.854483638494692 26.04222287251688,22.270033551920843 26.43047431316805,22.682705763854276 26.813017247128172,23.093161540544653 27.188779993915375,23.50179371781536 27.558586779631288,23.908832247150556 27.923288455857527,24.314504792541026 28.283735874175697,24.71903901797755 28.64077988616742,25.122662587450918 28.9952713434143,25.52560316495193 29.348061097497954,25.928088414471354 29.7,26.330346 29.7,72.330346 4.0,72.330346" /><polygon points="35.7,4.3303460000000005 53.94249141613642,4.3303460000000005 53.956251337565014,4.675192270350051 53.997903441584135,5.189995994128569 54.06241306962703,5.700483386473422 54.15168501536235,6.2062947530984705 54.267509273000805,6.707085492642356 54.40960019683117,7.202783892464549 54.57586886747531,7.693555320084238 54.76416637745514,8.17957302978155 54.97234381929262,8.661010275836617 55.19825228550965,9.138040312529574 55.4397428686282,9.610836394140543 55.69466666117018,10.07957177494966 55.960874755657535,10.544419709237046 56.236218244612196,11.005553451282841 56.5185482205561,11.46314625536717 56.80571577601117,11.917371375770161 57.095572003499356,12.368402066771948 57.386030449882966,12.81641643899347 57.676130805337365,13.261680169999925 57.965889496115864,13.704534886654121 58.255355331457864,14.145324733863534 58.54457712060278,14.584393856535614 58.83360367279005,15.022086399577839 59.12248379725906,15.45874650789767 59.411266303249235,15.894718326402566 59.7,16.330346 59.7,62.330346 35.7,62.330346" /><polygon points="65.7,6.3303460000000005 65.95245430921341,6.330702362819071 66.20483086291523,6.330464589548962 66.45705190559389,6.329038544100493 66.70903968173775,6.3258300903844855 66.96071643583525,6.320245092311757 67.21200441237482,6.311689413793131 67.46282585584484,6.299568918739425 67.71310301073372,6.28328947106146 67.96275812152989,6.262256934670056 68.21171343272172,6.235877173476034 68.45989118879767,6.203556051390212 68.70721363424613,6.164699432323413 68.95360257343721,6.118714816906703 69.19891975774915,6.065233031978915 69.44290645846002,6.0043329480655805 69.6852895518145,5.936146968215919 69.9257959140573,5.86080749547915 70.16415242143313,5.778446932904493 70.40008595018666,5.689197683541167 70.63332337656261,5.5931921504383935 70.86359157680567,5.4905627366453915 71.09061742716054,5.38144184521138 71.31412780387191,5.2659618791855785 71.53389863733646,5.144300848373325 71.75020863974197,5.017104210198594 71.96363149198662,4.885291661176141 72.17474462410257,4.749786383475511 72.384125466122,4.611511559266248 72.5923514480771,4.471390370717897 72.8,4.3303460000000005 84.46190378969061,8.830346 84.37783951157896,9.368889546663693 84.29568002713596,9.907073399041247 84.21733013003025,10.444537862846524 84.14469461393048,10.98092324379338 84.07967827250532,11.515869847595685 84.02418589942339,12.049017979967294 83.98012228835334,12.58000794662207 83.94939223296385,13.10848005327387 83.93390052692352,13.634074605636561 83.93555196390102,14.156431909424 83.94249141613642,14.330346 65.7,14.330346" /><polygon points="90.46190378969061,14.230346 90.79412029060265,13.698376985769025 91.13265986170111,13.17176006878231 91.48384557317247,12.655847346284105 91.85399060030421,12.155982603203356 92.24707228144396,11.67554737975066 92.661734298511,11.213442621204111 93.09587934488307,10.767946797519526 93.54741011393791,10.337338378652719 94.0142292990533,9.919895834559496 94.49423959360695,9.513897635195669 94.98534369097663,9.11762225051705 95.48544428454008,8.729348150479453 95.99244406767505,8.347353805038686 96.50452008290287,7.970378052810096 97.02158256530028,7.600068097724244 97.54421667417024,7.239203693123902 98.07300909005681,6.8905671450542885 98.60854649350404,6.556940759560623 99.151415565056,6.241106842688129 99.70220298525676,5.945847700482023 100.26149543465036,5.673945638987529 100.82987959378087,5.428182964249865 101.40794214319236,5.211341982314252 101.996221611122,5.026029228471964 102.59433814198778,4.871498854155839 103.2010876915075,4.743996468142566 103.81523697130204,4.639660929246023 104.43555269299226,4.554631096280088 105.06080156819903,4.48504582805864 105.6897503085432,4.427043983395557 106.32116562564563,4.376764421104718 106.95381423112721,4.3303460000000005 107.5732154165973,4.408464854731643 108.1912211806063,4.490464375692935 108.80643610169321,4.580225229113522 109.41746475839695,4.681628081223054 110.02291172925645,4.798553598251178 110.62138159281068,4.934882446427542 111.21147892759856,5.094495291981794 111.79180831215906,5.281272801143583 112.36116343653823,5.498491000570606 112.91969566990625,5.745085057197888 113.46814960016144,6.0180934605805145 114.00727230078793,6.314546753197476 114.53781084526987,6.631475477527764 115.06051230709137,6.965910176050368 115.57612375973659,7.314881391244281 116.08539227668966,7.675419665588491 116.58906493143469,8.044555541561989 117.08788879745585,8.419319561643766 117.58249433656607,8.797087623983247 118.0726952347304,9.17765457989049 118.55795601311776,9.561849362779292 119.03773987758073,9.950504801488009 119.51151003397186,10.344453724854993 119.9787296881437,10.744528961718595 120.43886204594884,11.15156334091717 120.89137031323982,11.566389691289066 121.3357176958692,11.98984084167264 121.77136739968957,12.422749620906243 122.19818439132484,12.865468022952523 122.61794912571278,13.316055549199232 123.03301229133078,13.771889234768883 123.44572467256381,14.230346 118.95381423112721,64.33034599999999 94.95381423112721,64.33034599999999" /><polygon points="129.4457246725638,5.130346 129.46109644824122,4.974273742387098 129.50662104655478,4.824199254107929 129.58054898272178,4.6858898135843186 129.68003924761456,4.5646605750507625 129.80126848614813,4.465170310157964 129.93957792667175,4.391242373990971 130.0896524149509,4.345717775677416 130.24572467256382,4.3303460000000005 151.6457246725638,4.3303460000000005 151.80179693017672,4.345717775677416 151.95187141845588,4.391242373990971 152.0901808589795,4.465170310157964 152.21141009751304,4.5646605750507625 152.31090036240585,4.6858898135843186 152.38482829857284,4.824199254107929 152.4303528968864,4.974273742387098 152.4457246725638,5.130346 152.4457246725638,15.530346 152.4303528968864,15.686418257612903 152.38482829857284,15.836492745892071 152.31090036240585,15.974802186415682 152.21141009751304,16.09603142494924 152.0901808589795,16.195521689842035 151.95187141845588,16.269449626009028 151.80179693017672,16.314974224322583 151.6457246725638,16.330346 130.24572467256382,16.330346 130.0896524149509,16.314974224322583 129.93957792667175,16.269449626009028 129.80126848614813,16.19552168984204 129.68003924761456,16.09603142494924 129.58054898272178,15.974802186415682 129.50662104655478,15.836492745892071 129.46109644824122,15.686418257612903 129.4457246725638,15.530346" /><polygon points="4.0,78.73034600000001 4.007685887838708,78.65230987119355 4.030448186995486,78.57727262705397 4.067412155078982,78.50811790679217 4.117157287525381,78.4475032875254 4.1777719067921595,78.39775815507899 4.2469266270539645,78.36079418699549 4.321963871193549,78.33803188783871 4.4,78.330346 15.6,78.330346 15.67803612880645,78.33803188783871 15.753073372946035,78.36079418699549 15.82222809320784,78.39775815507899 15.882842712474618,78.4475032875254 15.932587844921018,78.50811790679217 15.969551813004514,78.57727262705397 15.992314112161292,78.65230987119355 16.0,78.73034600000001 16.0,80.930346 15.992314112161292,81.00838212880646 15.969551813004514,81.08341937294604 15.932587844921018,81.15257409320785 15.882842712474618,81.21318871247462 15.82222809320784,81.26293384492102 15.753073372946035,81.29989781300452 15.67803612880645,81.3226601121613 15.6,81.330346 4.4,81.330346 4.3219638711935495,81.3226601121613 4.2469266270539645,81.29989781300452 4.1777719067921595,81.26293384492102 4.117157287525381,81.21318871247462 4.067412155078982,81.15257409320785 4.030448186995486,81.08341937294604 4.007685887838708,81.00838212880646 4.0,80.930346" /><polygon points="22.0,87.73034600000001 23.7,87.73034600000001 23.94613721143092,87.51383507067132 24.191123035168626,87.29640494386801 24.433806083519894,87.07713642211546 24.673034968791512,86.85511030793903 24.907658303290262,86.62940740386409 25.136524699322923,86.39910851241605 25.358482769196286,86.16329443612025 25.572381125217127,85.92104597750209 25.777197617466953,85.67154619116356 25.973182834463884,85.41498511397953 26.161311146615965,85.15212543429173 26.342565282091677,84.88373645304691 26.517927969059485,84.61058747119179 26.68838193568788,84.33344778967313 26.854909910145324,84.05308670943768 27.018494620600304,83.77027353143218 27.180118795221286,83.48577755660337 27.34076516217675,83.20036808589798 27.501416449635176,82.91481442026279 27.663055385765034,82.6298858606445 27.8266646987348,82.3463517079899 27.993226961401806,82.06498114296426 28.16345393201771,81.78633361259904 28.337230036760207,81.51032783274412 28.514282265311873,81.23676059182178 28.694337607355273,80.96542867825431 28.877123052572976,80.696128880464 29.062365590647556,80.42865798687312 29.24979221126158,80.16281278590397 29.439129904097612,79.89839006597882 29.630105658838232,79.63518661551996 29.822446465166003,79.37299922294967 30.015879312763495,79.11162467669025 30.21013119131328,78.85085976516397 30.404929090497923,78.59050127679313 30.6,78.330346 31.6,78.830346 27.6,90.73034600000001 28.0,146.330346 22.0,146.330346" /><polygon points="37.6,78.330346 49.6,78.330346 49.6,88.050346 43.6,91.830346 37.6,88.050346" /></g><g fill="none" id="PIQUETES" stroke="#00b0b0" stroke-width="0.08"><line x1="22.21866325965685" x2="22.323447461200782" y1="15.964769914608953" y2="16.602437752206868" /><line x1="22.68734016877098" x2="22.323447461200782" y1="16.068413317019456" y2="16.602437752206868" /><line x1="29.77924707683837" x2="29.13365259771181" y1="46.803807039084724" y2="46.832228307904074" /><line x1="29.62075292316163" x2="29.13365259771181" y1="47.25688496091528" y2="46.832228307904074" /><line x1="44.582135899574205" x2="44.872875367782875" y1="4.350997863885865" y2="4.928120521235012" /><line x1="45.06035551656222" x2="44.872875367782875" y1="4.309694136114135" y2="4.928120521235012" /><line x1="75.06032306347002" x2="74.76868513978756" y1="14.30932177268774" y2="13.73265261149548" /><line x1="74.58216835266641" x2="74.76868513978756" y1="14.35137022731226" y2="13.73265261149548" /><line x1="114.81327557532029" x2="114.8721152952529" y1="6.886423563438985" y2="7.529959022724835" /><line x1="115.27332478032642" x2="114.8721152952529" y1="7.023371469495347" y2="7.529959022724835" /><line x1="98.23824420365625" x2="98.64304932039887" y1="6.714746993310714" y2="7.2184659799084026" /><line x1="98.69730698523884" x2="98.64304932039887" y1="6.574528012549656" y2="7.2184659799084026" /><line x1="96.91239064068058" x2="97.3436232145085" y1="7.602117025251973" y2="8.083405366342584" /><line x1="97.36327434455767" x2="97.3436232145085" y1="7.437484447740475" y2="8.083405366342584" /></g><g fill="none" id="TEXTOS" stroke="#000000" stroke-width="0.08"><text fill="#000000" font-family="sans-serif" font-size="0.9" stroke="none" text-anchor="middle" x="16.6074299861779" y="39.75034837970039">DELANTERO (escote V)</text><text fill="#000000" font-family="sans-serif" font-size="0.6" stroke="none" text-anchor="middle" x="16.6074299861779" y="41.15034837970039">Pieza N.01</text><text fill="#000000" font-family="sans-serif" font-size="0.6" stroke="none" text-anchor="middle" x="16.6074299861779" y="42.55034837970039">Talla: S</text><text fill="#000000" font-family="sans-serif" font-size="0.6" stroke="none" text-anchor="middle" x="16.6074299861779" y="43.950348379700394">Cortar: 2  (par: izq + der)</text><text fill="#000000" font-family="sans-serif" font-size="0.9" stroke="none" text-anchor="middle" x="47.39306647024231" y="30.507201654431576">ESPALDA</text><text fill="#000000" font-family="sans-serif" font-size="0.6" stroke="none" text-anchor="middle" x="47.39306647024231" y="31.907201654431574">Pieza N.02</text><text fill="#000000" font-family="sans-serif" font-size="0.6" stroke="none" text-anchor="middle" x="47.39306647024231" y="33.30720165443157">Talla: S</text><text fill="#000000" font-family="sans-serif" font-size="0.6" stroke="none" text-anchor="middle" x="47.39306647024231" y="34.70720165443158">Cortar: 1  (al doblez)</text><text fill="#000000" font-family="sans-serif" font-size="0.6" stroke="none" text-anchor="middle" x="47.39306647024231" y="36.10720165443158">AL DOBLEZ</text><text fill="#000000" font-family="sans-serif" font-size="0.9" stroke="none" text-anchor="middle" x="74.4579030326492" y="6.598588639616993">CANESU</text><text fill="#000000" font-family="sans-serif" font-size="0.6" stroke="none" text-anchor="middle" x="74.4579030326492" y="7.998588639616992">Pieza N.03</text><text fill="#000000" font-family="sans-serif" font-size="0.6" stroke="none" text-anchor="middle" x="74.4579030326492" y="9.398588639616992">Talla: S</text><text fill="#000000" font-family="sans-serif" font-size="0.6" stroke="none" text-anchor="middle" x="74.4579030326492" y="10.798588639616993">Cortar: 2  (al doblez x2 (exterior+interior))</text><text fill="#000000" font-family="sans-serif" font-size="0.6" stroke="none" text-anchor="middle" x="74.4579030326492" y="12.198588639616993">AL DOBLEZ</text><text fill="#000000" font-family="sans-serif" font-size="0.9" stroke="none" text-anchor="middle" x="106.90901577036908" y="31.580405315053056">MANGA</text><text fill="#000000" font-family="sans-serif" font-size="0.6" stroke="none" text-anchor="middle" x="106.90901577036908" y="32.980405315053055">Pieza N.04</text><text fill="#000000" font-family="sans-serif" font-size="0.6" stroke="none" text-anchor="middle" x="106.90901577036908" y="34.38040531505305">Talla: S</text><text fill="#000000" font-family="sans-serif" font-size="0.6" stroke="none" text-anchor="middle" x="106.90901577036908" y="35.78040531505306">Cortar: 2  (par: izq + der)</text><text fill="#000000" font-family="sans-serif" font-size="0.9" stroke="none" text-anchor="middle" x="140.9457246725638" y="7.630346000000003">PUNO</text><text fill="#000000" font-family="sans-serif" font-size="0.6" stroke="none" text-anchor="middle" x="140.9457246725638" y="9.030346000000003">Pieza N.05</text><text fill="#000000" font-family="sans-serif" font-size="0.6" stroke="none" text-anchor="middle" x="140.9457246725638" y="10.430346000000004">Talla: S</text><text fill="#000000" font-family="sans-serif" font-size="0.6" stroke="none" text-anchor="middle" x="140.9457246725638" y="11.830346000000002">Cortar: 4  (4 (2 tela + 2 entretela))</text><text fill="#000000" font-family="sans-serif" font-size="0.9" stroke="none" text-anchor="middle" x="9.999999999999996" y="77.130346">TAPETA MANGA</text><text fill="#000000" font-family="sans-serif" font-size="0.6" stroke="none" text-anchor="middle" x="9.999999999999996" y="78.53034600000001">Pieza N.06</text><text fill="#000000" font-family="sans-serif" font-size="0.6" stroke="none" text-anchor="middle" x="9.999999999999996" y="79.930346">Talla: S</text><text fill="#000000" font-family="sans-serif" font-size="0.6" stroke="none" text-anchor="middle" x="9.999999999999996" y="81.330346">Cortar: 2  (par)</text><text fill="#000000" font-family="sans-serif" font-size="0.9" stroke="none" text-anchor="middle" x="25.150212866252474" y="112.1949341491815">VISTA DELANTERA</text><text fill="#000000" font-family="sans-serif" font-size="0.6" stroke="none" text-anchor="middle" x="25.150212866252474" y="113.5949341491815">Pieza N.09</text><text fill="#000000" font-family="sans-serif" font-size="0.6" stroke="none" text-anchor="middle" x="25.150212866252474" y="114.9949341491815">Talla: S</text><text fill="#000000" font-family="sans-serif" font-size="0.6" stroke="none" text-anchor="middle" x="25.150212866252474" y="116.39493414918151">Cortar: 2  (par: izq + der)</text><text fill="#000000" font-family="sans-serif" font-size="0.9" stroke="none" text-anchor="middle" x="43.6" y="81.48662506976744">BOLSILLO</text><text fill="#000000" font-family="sans-serif" font-size="0.6" stroke="none" text-anchor="middle" x="43.6" y="82.88662506976745">Pieza N.10</text><text fill="#000000" font-family="sans-serif" font-size="0.6" stroke="none" text-anchor="middle" x="43.6" y="84.28662506976745">Talla: S</text><text fill="#000000" font-family="sans-serif" font-size="0.6" stroke="none" text-anchor="middle" x="43.6" y="85.68662506976744">Cortar: 1  (1 (opcional))</text></g><g fill="none" id="CENTROS" stroke="#0050ff" stroke-width="0.08"><circle cx="18.9" cy="29.330346" fill="#0050ff" r="0.15" /><circle cx="111.07679184148637" cy="52.330346" fill="#0050ff" r="0.15" /></g><g fill="none" id="HILO" stroke="#c0a000" stroke-width="0.08"><line x1="17.7" x2="17.7" y1="16.730346" y2="69.330346" /><line x1="17.7" x2="18.167302010770378" y1="69.330346" y2="68.22507280719654" /><line x1="17.7" x2="17.232697989229617" y1="69.330346" y2="68.22507280719654" /><line x1="17.7" x2="17.23269798922962" y1="16.730346" y2="17.835619192803463" /><line x1="17.7" x2="18.167302010770378" y1="16.730346" y2="17.835619192803463" /><line x1="36.2" x2="36.2" y1="7.3303460000000005" y2="59.330346" /><line x1="36.2" x2="36.66730201077038" y1="59.330346" y2="58.22507280719654" /><line x1="36.2" x2="35.73269798922962" y1="59.330346" y2="58.22507280719654" /><line x1="36.2" x2="35.73269798922962" y1="7.3303460000000005" y2="8.435619192803463" /><line x1="36.2" x2="36.66730201077038" y1="7.3303460000000005" y2="8.435619192803463" /><line x1="69.96000000000001" x2="69.96000000000001" y1="5.3303460000000005" y2="13.830346" /><line x1="69.96000000000001" x2="70.42730201077039" y1="13.830346" y2="12.725072807196538" /><line x1="69.96000000000001" x2="69.49269798922963" y1="13.830346" y2="12.725072807196538" /><line x1="69.96000000000001" x2="69.49269798922963" y1="5.3303460000000005" y2="6.435619192803462" /><line x1="69.96000000000001" x2="70.42730201077038" y1="5.3303460000000005" y2="6.435619192803462" /><line x1="106.95381423112721" x2="106.95381423112721" y1="8.290346" y2="62.330346" /><line x1="106.95381423112721" x2="107.4211162418976" y1="62.330346" y2="61.22507280719654" /><line x1="106.95381423112721" x2="106.48651222035683" y1="62.330346" y2="61.22507280719654" /><line x1="106.95381423112721" x2="106.48651222035683" y1="8.290346" y2="9.395619192803462" /><line x1="106.95381423112721" x2="107.4211162418976" y1="8.290346" y2="9.395619192803462" /><line x1="140.9457246725638" x2="140.9457246725638" y1="4.8303460000000005" y2="15.830346" /><line x1="140.9457246725638" x2="141.41302668333418" y1="15.830346" y2="14.725072807196538" /><line x1="140.9457246725638" x2="140.47842266179345" y1="15.830346" y2="14.725072807196538" /><line x1="140.9457246725638" x2="140.47842266179345" y1="4.8303460000000005" y2="5.935619192803462" /><line x1="140.9457246725638" x2="141.41302668333418" y1="4.8303460000000005" y2="5.935619192803462" /><line x1="10.0" x2="10.0" y1="78.73034600000001" y2="80.930346" /><line x1="10.0" x2="10.467302010770382" y1="80.930346" y2="79.82507280719655" /><line x1="10.0" x2="9.532697989229618" y1="80.930346" y2="79.82507280719655" /><line x1="10.0" x2="9.53269798922962" y1="78.73034600000001" y2="79.83561919280346" /><line x1="10.0" x2="10.46730201077038" y1="78.73034600000001" y2="79.83561919280346" /><line x1="25.0" x2="25.0" y1="92.73034600000001" y2="143.330346" /><line x1="25.0" x2="25.46730201077038" y1="143.330346" y2="142.22507280719654" /><line x1="25.0" x2="24.532697989229618" y1="143.330346" y2="142.22507280719654" /><line x1="25.0" x2="24.532697989229618" y1="92.73034600000001" y2="93.83561919280346" /><line x1="25.0" x2="25.46730201077038" y1="92.73034600000001" y2="93.83561919280346" /><line x1="43.6" x2="43.6" y1="79.330346" y2="88.050346" /><line x1="43.6" x2="44.06730201077038" y1="88.050346" y2="86.94507280719654" /><line x1="43.6" x2="43.13269798922962" y1="88.050346" y2="86.94507280719654" /><line x1="43.6" x2="43.13269798922962" y1="79.330346" y2="80.43561919280347" /><line x1="43.6" x2="44.06730201077038" y1="79.330346" y2="80.43561919280347" /></g><g fill="none" id="DOBLEZ" stroke="#c000c0" stroke-width="0.08"><line x1="35.7" x2="35.7" y1="4.3303460000000005" y2="62.330346" /><line x1="65.7" x2="65.7" y1="4.3303460000000005" y2="14.330346" /></g><g fill="none" id="BOTONES" stroke="#ff8000" stroke-width="0.08"><circle cx="5.7" cy="23.747012666666667" fill="#ff8000" r="0.55" /><circle cx="5.7" cy="32.263679333333336" fill="#ff8000" r="0.55" /><circle cx="5.7" cy="40.780346" fill="#ff8000" r="0.55" /><circle cx="5.7" cy="49.29701266666667" fill="#ff8000" r="0.55" /><circle cx="5.7" cy="57.81367933333333" fill="#ff8000" r="0.55" /><circle cx="5.7" cy="66.33034599999999" fill="#ff8000" r="0.55" /><circle cx="130.6457246725638" cy="10.330346" fill="#ff8000" r="0.55" /></g><g fill="none" id="OJAL" stroke="#ff40a0" stroke-width="0.08"><line x1="4.9" x2="6.5" y1="23.747012666666667" y2="23.747012666666667" /><line x1="4.9" x2="6.5" y1="32.263679333333336" y2="32.263679333333336" /><line x1="4.9" x2="6.5" y1="40.780346" y2="40.780346" /><line x1="4.9" x2="6.5" y1="49.29701266666667" y2="49.29701266666667" /><line x1="4.9" x2="6.5" y1="57.81367933333333" y2="57.81367933333333" /><line x1="4.9" x2="6.5" y1="66.33034599999999" y2="66.33034599999999" /><line x1="151.24572467256382" x2="151.24572467256382" y1="9.530346" y2="11.130346" /></g><g fill="none" id="REFERENCIAS" stroke="#b0b0b0" stroke-width="0.08"><text fill="#000000" font-family="sans-serif" font-size="0.5" stroke="none" text-anchor="start" x="5.7" y="12.730346">CF</text><text fill="#000000" font-family="sans-serif" font-size="0.5" stroke="none" text-anchor="start" x="36.0" y="33.330346">CB</text><text fill="#000000" font-family="sans-serif" font-size="0.5" stroke="none" text-anchor="start" x="140.9457246725638" y="9.530346">DOBLEZ</text><text fill="#000000" font-family="sans-serif" font-size="0.5" stroke="none" text-anchor="start" x="43.6" y="79.830346">boca</text></g></svg>