<?xml version="1.0" encoding="utf-8" ?>
<svg baseProfile="full" height="234.49221699999998cm" version="1.1" viewBox="0 0 118.0 234.49221699999998" width="118.0cm" xmlns="http://www.w3.org/2000/svg" xmlns:ev="http://www.w3.org/2001/xml-events" xmlns:xlink="http://www.w3.org/1999/xlink"><defs /><rect fill="#f7f3ea" height="226.49221699999998" stroke="#333" stroke-width="0.15" width="110.0" x="4.0" y="4.0" /><text fill="#000" font-family="sans-serif" font-size="1.4" x="4.0" y="3.0">PLANO DE CORTE — ancho 110 cm — largo 2.26 m</text><polygon fill="#cfe3f7" fill-opacity="0.5" points="4.0,74.267704 12.00722,74.267704 11.601177,17.827772 15.824922,5.262131 13.300661,4.0 12.604548000000001,4.928368 12.408809,5.189983 12.212994,5.452847 12.017382000000001,5.717166 11.822256,5.98315 11.6279,6.251011999999999 11.434603,6.520965 11.242656,6.793221 11.052355,7.067997 10.863996,7.345508 10.677882,7.6259689999999996 10.494319,7.909597 10.313615,8.196606 10.136242,8.486951000000001 9.963303,8.779094 9.795078,9.070626 9.63075,9.360295 9.469275,9.647313 9.309653,9.930903 9.150927,10.210297 8.992184,10.484739000000001 8.832553,10.753489 8.671203,11.015827 8.507341,11.271062 8.340206,11.518545 8.169058,11.757678 7.993161000000001,11.987943000000001 7.810869,12.210004 7.619404,12.426846 7.41765,12.641195 7.206278,12.853889 6.986212,13.065588 6.7584420000000005,13.27698 6.524011,13.488792 6.322425,13.667704 4.0,13.667704 4.0,74.267704" stroke="#1f6fb2" stroke-width="0.1" /><text fill="#0a3d62" font-family="sans-serif" font-size="1.6" text-anchor="middle" x="9.912461" y="39.133852">09</text><polygon fill="#cfe3f7" fill-opacity="0.5" points="16.824922,74.267704 24.832142,74.267704 24.426099,17.827772 28.649844,5.262131 26.125583,4.0 25.429470000000002,4.928368 25.233731,5.189983 25.037916000000003,5.452847 24.842304000000002,5.717166 24.647178,5.98315 24.452822,6.251011999999999 24.259525,6.520965 24.067578,6.793221 23.877277,7.067997 23.688918,7.345508 23.502804,7.6259689999999996 23.319241,7.909597 23.138537,8.196606 22.961164,8.486951000000001 22.788225,8.779094 22.62,9.070626 22.455672,9.360295 22.294197,9.647313 22.134575,9.930903 21.975849,10.210297 21.817106000000003,10.484739000000001 21.657475,10.753489 21.496125,11.015827 21.332263,11.271062 21.165128000000003,11.518545 20.99398,11.757678 20.818083,11.987943000000001 20.635791,12.210004 20.444326,12.426846 20.242572000000003,12.641195 20.031200000000002,12.853889 19.811134000000003,13.065588 19.583364,13.27698 19.348933000000002,13.488792 19.147347,13.667704 16.824922,13.667704 16.824922,74.267704" stroke="#1f6fb2" stroke-width="0.1" /><text fill="#0a3d62" font-family="sans-serif" font-size="1.6" text-anchor="middle" x="22.737383" y="39.133852">09</text><polygon fill="#cfe3f7" fill-opacity="0.5" points="29.649844,74.233067 67.59059200000002,74.233067 57.272244,26.768666 56.749912,26.171653999999997 56.396521,25.768483 56.040528,25.363836 55.681394,24.957849 55.318277,24.550319 54.95034,24.141047999999998 54.576750000000004,23.729844999999997 54.196687,23.316536 53.810258000000005,22.901911 53.420919,22.488083 53.034441,22.076037 52.655385,21.665301 52.288183000000004,21.255467 51.937261,20.846346999999998 51.606989,20.437973 51.30162,20.030609 51.025183999999996,19.624724 50.781365,19.22094 50.57334,18.819888 50.40363,18.421923 50.273231,18.024288 50.180244,17.618925 50.12149,17.199514999999998 50.095352000000005,16.764596 50.100468,16.313914 50.135391999999996,15.847847 50.198454,15.367222 50.287714,14.873137 50.400976,14.366815 50.535817,13.849511 50.689639,13.32245 50.859709,12.78679 51.043189999999996,12.243606999999999 51.237178,11.693886 51.438712,11.138521 51.970248,9.693617 38.924533000000004,4.0 38.254392,4.893731 38.058653,5.155346 37.862838,5.41821 37.667226,5.682529 37.472100000000005,5.948513 37.277744,6.216374999999999 37.084447000000004,6.486328 36.8925,6.758584 36.702199,7.03336 36.51384,7.310871 36.327726,7.5913319999999995 36.144163000000006,7.87496 35.963459,8.161969 35.786086000000005,8.452314000000001 35.613147,8.744457 35.444922000000005,9.035989 35.280594,9.325658 35.119119,9.612676 34.959497,9.896266 34.800771000000005,10.17566 34.642028,10.450102000000001 34.482397000000006,10.718852 34.321047,10.98119 34.157185,11.236425 33.990050000000004,11.483908 33.818902,11.723041 33.643005,11.953306000000001 33.460713,12.175367 33.269248000000005,12.392209 33.067494,12.606558 32.856122,12.819252 32.636056,13.030951 32.408286000000004,13.242343 32.173855,13.454155 31.972269,13.633067 29.649844,13.633067 29.649844,74.233067" stroke="#1f6fb2" stroke-width="0.1" /><text fill="#0a3d62" font-family="sans-serif" font-size="1.6" text-anchor="middle" x="48.62021800000001" y="39.1165335">01</text><polygon fill="#cfe3f7" fill-opacity="0.5" points="68.59059200000002,74.233067 106.53134000000003,74.233067 96.21299200000001,26.768666 95.69066000000001,26.171653999999997 95.33726900000002,25.768483 94.98127600000001,25.363836 94.62214200000001,24.957849 94.25902500000001,24.550319 93.89108800000001,24.141047999999998 93.51749800000002,23.729844999999997 93.13743500000001,23.316536 92.75100600000002,22.901911 92.36166700000001,22.488083 91.97518900000001,22.076037 91.59613300000001,21.665301 91.22893100000002,21.255467 90.87800900000002,20.846346999999998 90.54773700000001,20.437973 90.24236800000001,20.030609 89.96593200000001,19.624724 89.72211300000001,19.22094 89.51408800000002,18.819888 89.344378,18.421923 89.21397900000002,18.024288 89.12099200000002,17.618925 89.06223800000001,17.199514999999998 89.03610000000002,16.764596 89.04121600000002,16.313914 89.07614000000001,15.847847 89.13920200000001,15.367222 89.22846200000001,14.873137 89.34172400000001,14.366815 89.47656500000002,13.849511 89.63038700000001,13.32245 89.80045700000002,12.78679 89.98393800000001,12.243606999999999 90.17792600000001,11.693886 90.37946000000002,11.138521 90.91099600000001,9.693617 77.86528100000001,4.0 77.19514000000001,4.893731 76.99940100000002,5.155346 76.80358600000001,5.41821 76.60797400000001,5.682529 76.41284800000001,5.948513 76.21849200000001,6.216374999999999 76.02519500000001,6.486328 75.83324800000001,6.758584 75.64294700000002,7.03336 75.45458800000002,7.310871 75.26847400000001,7.5913319999999995 75.08491100000002,7.87496 74.90420700000001,8.161969 74.72683400000001,8.452314000000001 74.55389500000001,8.744457 74.38567000000002,9.035989 74.22134200000002,9.325658 74.05986700000001,9.612676 73.90024500000001,9.896266 73.74151900000001,10.17566 73.58277600000001,10.450102000000001 73.42314500000002,10.718852 73.26179500000002,10.98119 73.09793300000001,11.236425 72.93079800000001,11.483908 72.75965000000002,11.723041 72.58375300000002,11.953306000000001 72.40146100000001,12.175367 72.20999600000002,12.392209 72.00824200000001,12.606558 71.79687000000001,12.819252 71.57680400000001,13.030951 71.34903400000002,13.242343 71.11460300000002,13.454155 70.91301700000001,13.633067 68.59059200000002,13.633067 68.59059200000002,74.233067" stroke="#1f6fb2" stroke-width="0.1" /><text fill="#0a3d62" font-family="sans-serif" font-size="1.6" text-anchor="middle" x="87.56096600000002" y="39.1165335">01</text><polygon fill="#cfe3f7" fill-opacity="0.5" points="8.603537000000001,137.272317 34.432241,137.272317 39.044742,85.827327 38.338398999999995,85.042694 37.917592,84.580552 37.488116,84.11954 37.047919,83.662943 36.597245,83.215104 36.138323,82.77776399999999 35.672148,82.350409 35.19934,81.93216199999999 34.720508,81.522143 34.236247,81.11947099999999 33.747142,80.723265 33.253769,80.332647 32.756689,79.94673999999999 32.255796000000004,79.56416999999999 31.749057,79.183459 31.233977,78.80596299999999 30.709418,78.43459999999999 30.174402999999998,78.072496 29.6279,77.722833 29.068843,77.38886699999999 28.496148,77.073954 27.908752,76.781561 27.305661,76.515294 26.687530000000002,76.279466 26.059449,76.07732 25.427158,75.906295 24.792906000000002,75.761815 24.158237,75.639246 23.52457,75.53408599999999 22.893254,75.441976 22.265622,75.358699 21.544124,75.267704 20.808963,75.32164399999999 20.168217,75.372666 19.523647,75.432109 18.8764,75.504142 18.227627,75.59307299999999 17.578525,75.703347 16.930396000000002,75.83954399999999 16.284807,76.00634 15.645945000000001,76.20758599999999 15.019679,76.442509 14.408314,76.70685599999999 13.811256,76.997118 13.227674,77.309958 12.656686,77.642151 12.097394,77.99057599999999 11.548913,78.352193 11.010392,78.72402699999999 10.481016,79.103155 9.959197,79.487304 9.441979,79.87699699999999 8.928751,80.275463 8.421351,80.684888 7.9219930000000005,81.10725099999999 7.432948,81.544568 6.956562,81.99888 6.495274,82.472229 6.051633000000001,82.966628 5.628798,83.48342799999999 5.232445000000002,84.018686 4.862674000000002,84.561902 4.513476000000001,85.105098 4.0,85.927312 8.603537000000001,137.272317" stroke="#1f6fb2" stroke-width="0.1" /><text fill="#0a3d62" font-family="sans-serif" font-size="1.6" text-anchor="middle" x="21.522371" y="106.2700105">04</text><polygon fill="#cfe3f7" fill-opacity="0.5" points="44.648279,137.272317 70.47698299999999,137.272317 75.089484,85.827327 74.383141,85.042694 73.962334,84.580552 73.532858,84.11954 73.09266099999999,83.662943 72.641987,83.215104 72.183065,82.77776399999999 71.71689,82.350409 71.24408199999999,81.93216199999999 70.76525000000001,81.522143 70.280989,81.11947099999999 69.791884,80.723265 69.29851099999999,80.332647 68.80143100000001,79.94673999999999 68.300538,79.56416999999999 67.793799,79.183459 67.278719,78.80596299999999 66.75416,78.43459999999999 66.219145,78.072496 65.672642,77.722833 65.113585,77.38886699999999 64.54089,77.073954 63.953494,76.781561 63.350403,76.515294 62.732272,76.279466 62.104191,76.07732 61.4719,75.906295 60.837648,75.761815 60.202979,75.639246 59.569312,75.53408599999999 58.937996,75.441976 58.310364,75.358699 57.588865999999996,75.267704 56.853705,75.32164399999999 56.212959,75.372666 55.568388999999996,75.432109 54.921142,75.504142 54.272369,75.59307299999999 53.623267,75.703347 52.975138,75.83954399999999 52.329549,76.00634 51.690687,76.20758599999999 51.064420999999996,76.442509 50.453056000000004,76.70685599999999 49.855998,76.997118 49.272416,77.309958 48.701428,77.642151 48.142136,77.99057599999999 47.593655,78.352193 47.055133999999995,78.72402699999999 46.525757999999996,79.103155 46.003939,79.487304 45.486721,79.87699699999999 44.973493,80.275463 44.466093,80.684888 43.966735,81.10725099999999 43.477689999999996,81.544568 43.001304,81.99888 42.540016,82.472229 42.096375,82.966628 41.67354,83.48342799999999 41.277187,84.018686 40.907416,84.561902 40.558218,85.105098 40.044742,85.927312 44.648279,137.272317" stroke="#1f6fb2" stroke-width="0.1" /><text fill="#0a3d62" font-family="sans-serif" font-size="1.6" text-anchor="middle" x="57.567113" y="106.2700105">04</text><polygon fill="#cfe3f7" fill-opacity="0.5" points="64.178032,150.87638199999998 63.785628,150.28434199999998 63.497082000000006,149.848727 63.208595,149.41266099999999 62.92011600000001,148.975797 62.631593,148.53778899999998 62.342974000000005,148.098289 62.054208,147.656951 61.765252000000004,147.21344399999998 61.476494,146.76805299999998 61.189727000000005,146.32182899999998 60.907469000000006,145.87536899999998 60.63183000000001,145.428621 60.36487700000001,144.981539 60.108651,144.534122 59.865161,144.08641 59.636368000000004,143.638475 59.424178000000005,143.19041299999998 59.230422000000004,142.742325 59.056843,142.294299 58.90509,141.846373 58.77669300000001,141.39844499999998 58.672641,140.948557 58.59219900000001,140.492776 58.533581000000005,140.02890599999998 58.49539,139.55688099999998 58.444134000000005,138.272317 39.240748,138.272317 39.240748,198.272317 74.481496,198.272317 64.178032,150.87638199999998 14.303464000000005,150.87638199999998 14.695868000000004,150.28434199999998 14.984414000000005,149.848727 15.272901000000005,149.41266099999999 15.561380000000003,148.975797 15.849903000000005,148.53778899999998 16.138522000000002,148.098289 16.427288000000004,147.656951 16.716244000000003,147.21344399999998 17.005002000000005,146.76805299999998 17.291769000000002,146.32182899999998 17.574027000000005,145.87536899999998 17.849666000000003,145.428621 18.116619000000004,144.981539 18.372845000000005,144.534122 18.616335000000003,144.08641 18.845128000000003,143.638475 19.057318000000002,143.19041299999998 19.251074000000003,142.742325 19.424653000000003,142.294299 19.576406000000002,141.846373 19.704803000000002,141.39844499999998 19.808855000000005,140.948557 19.889297000000003,140.492776 19.947915000000002,140.02890599999998 19.986106000000003,139.55688099999998 20.037362000000005,138.272317 39.240748,138.272317 39.240748,198.272317 4.0,198.272317 14.303464000000005,150.87638199999998" stroke="#1f6fb2" stroke-width="0.1" /><text fill="#0a3d62" font-family="sans-serif" font-size="1.6" text-anchor="middle" x="39.240748" y="168.272317">02</text><polygon fill="#cfe3f7" fill-opacity="0.5" points="75.481496,149.544222 82.481496,153.954222 89.481496,149.544222 89.481496,138.272317 75.481496,138.272317 75.481496,149.544222" stroke="#1f6fb2" stroke-width="0.1" /><text fill="#0a3d62" font-family="sans-serif" font-size="1.6" text-anchor="middle" x="82.481496" y="146.1132695">10</text><polygon fill="#cfe3f7" fill-opacity="0.5" points="4.0,211.52144399999997 4.029841,211.824424 4.132547,212.16299899999999 4.299332,212.475032 4.523786,212.74853099999999 4.7972850000000005,212.972985 5.109318,213.13977 5.4478930000000005,213.24247599999998 5.750873,213.272317 27.249127,213.272317 27.552107,213.24247599999998 27.890682,213.13977 28.202715,212.972985 28.476214,212.74853099999999 28.700668,212.475032 28.867453,212.16299899999999 28.970159,211.824424 29.0,211.52144399999997 29.0,201.02319 28.970159,200.72020999999998 28.867453,200.381635 28.700668,200.06960199999997 28.476214,199.796103 28.202715,199.57164899999998 27.890682,199.40486399999998 27.552107,199.302158 27.249127,199.272317 5.750873,199.272317 5.4478930000000005,199.302158 5.109318,199.40486399999998 4.7972850000000005,199.57164899999998 4.523786,199.796103 4.299332,200.06960199999997 4.132547,200.381635 4.029841,200.72020999999998 4.0,201.02319 4.0,211.52144399999997" stroke="#1f6fb2" stroke-width="0.1" /><text fill="#0a3d62" font-family="sans-serif" font-size="1.6" text-anchor="middle" x="16.5" y="206.272317">05</text><polygon fill="#cfe3f7" fill-opacity="0.5" points="30.0,211.52144399999997 30.029841,211.824424 30.132547,212.16299899999999 30.299332,212.475032 30.523786,212.74853099999999 30.797285,212.972985 31.109318000000002,213.13977 31.447893,213.24247599999998 31.750873,213.272317 53.249127,213.272317 53.552107,213.24247599999998 53.890682,213.13977 54.202715,212.972985 54.476214,212.74853099999999 54.700668,212.475032 54.867453,212.16299899999999 54.970158999999995,211.824424 55.0,211.52144399999997 55.0,201.02319 54.970158999999995,200.72020999999998 54.867453,200.381635 54.700668,200.06960199999997 54.476214,199.796103 54.202715,199.57164899999998 53.890682,199.40486399999998 53.552107,199.302158 53.249127,199.272317 31.750873,199.272317 31.447893,199.302158 31.109318000000002,199.40486399999998 30.797285,199.57164899999998 30.523786,199.796103 30.299332,200.06960199999997 30.132547,200.381635 30.029841,200.72020999999998 30.0,201.02319 30.0,211.52144399999997" stroke="#1f6fb2" stroke-width="0.1" /><text fill="#0a3d62" font-family="sans-serif" font-size="1.6" text-anchor="middle" x="42.5" y="206.272317">05</text><polygon fill="#cfe3f7" fill-opacity="0.5" points="95.109812,210.19838099999998 95.10827,209.71069999999997 95.12286,209.21571699999998 95.152042,208.713866 95.194218,208.205613 95.247736,207.69143799999998 95.310889,207.171822 95.381927,206.647235 95.459058,206.11812899999998 95.540457,205.58493199999998 95.74864600000001,204.25120299999998 82.845692,199.272317 82.20658399999999,199.706428 82.003755,199.842917 81.803425,199.975215 81.605097,200.10251399999999 81.40829099999999,200.224064 81.21253300000001,200.33917599999998 81.016683,200.44759399999998 80.81873300000001,200.54986799999998 80.617676,200.64650699999999 80.4137,200.737418 80.207108,200.822456 79.998204,200.90148 79.787293,200.974357 79.574684,201.040958 79.36068399999999,201.101159 79.145601,201.154845 78.929644,201.201926 78.712166,201.242515 78.49201500000001,201.27710199999999 78.26876200000001,201.306177 78.04241,201.33016199999997 77.81299,201.34948999999997 77.580557,201.36460899999997 77.345178,201.375983 77.106932,201.38409499999997 76.865904,201.389443 76.62218200000001,201.39254699999998 76.375856,201.393939 76.12701200000001,201.394174 75.874323,201.39381699999998 75.874323,211.39381799999998 95.157512,211.39381799999998 95.109812,210.19838099999998 56.638834,210.19838099999998 56.640376,209.71069999999997 56.625786000000005,209.21571699999998 56.596604,208.713866 56.554428,208.205613 56.500910000000005,207.69143799999998 56.437757000000005,207.171822 56.366719,206.647235 56.289588,206.11812899999998 56.208189000000004,205.58493199999998 56.0,204.25120299999998 68.902954,199.272317 69.542062,199.706428 69.744891,199.842917 69.945221,199.975215 70.14354900000001,200.10251399999999 70.340355,200.224064 70.536113,200.33917599999998 70.73196300000001,200.44759399999998 70.929913,200.54986799999998 71.13097,200.64650699999999 71.334946,200.737418 71.541538,200.822456 71.75044199999999,200.90148 71.961353,200.974357 72.173962,201.040958 72.387962,201.101159 72.60304500000001,201.154845 72.819002,201.201926 73.03648,201.242515 73.256631,201.27710199999999 73.479884,201.306177 73.706236,201.33016199999997 73.935656,201.34948999999997 74.16808900000001,201.36460899999997 74.403468,201.375983 74.64171400000001,201.38409499999997 74.88274200000001,201.389443 75.126464,201.39254699999998 75.37279000000001,201.393939 75.621634,201.394174 75.874323,201.39381699999998 75.874323,211.39381799999998 56.591134,211.39381799999998 56.638834,210.19838099999998" stroke="#1f6fb2" stroke-width="0.1" /><text fill="#0a3d62" font-family="sans-serif" font-size="1.6" text-anchor="middle" x="75.874323" y="205.3330675">03</text><polygon fill="#cfe3f7" fill-opacity="0.5" points="26.655368999999997,221.12729399999998 27.146859,221.216591 27.638402,221.300794 28.129994999999997,221.379902 28.621636,221.453913 29.113321,221.52282599999998 29.605047999999996,221.58664 30.096814,221.645353 30.588614999999997,221.698965 31.080448999999998,221.74747399999998 31.572312999999998,221.79088 32.064203,221.82918099999998 32.556116,221.86237699999998 33.048049,221.890467 33.539998999999995,221.91344999999998 34.031962,221.93132699999998 34.523936,221.944096 35.015916,221.95175799999998 35.507898999999995,221.954311 35.999882,221.95175799999998 36.491862,221.944096 36.983836,221.93132699999998 37.475798999999995,221.91344999999998 37.967749,221.890467 38.459682,221.86237699999998 38.951595,221.82918099999998 39.443484999999995,221.79088 39.935349,221.74747399999998 40.427183,221.698965 40.918983999999995,221.645353 41.41075,221.58664 41.902477,221.52282599999998 42.394161999999994,221.453913 42.885802999999996,221.379902 43.377396,221.300794 43.868939,221.216591 44.360428999999996,221.12729399999998 44.644778,221.07268 46.6965,224.49221699999998 47.751718,224.093234 45.938626,214.272317 44.46481,214.57068999999998 43.993041,214.66130199999998 43.521327,214.74700499999997 43.049666,214.827802 42.578055,214.90369399999997 42.106492,214.974683 41.634973,215.04076999999998 41.163495999999995,215.10195599999997 40.692057999999996,215.158243 40.220655,215.20963099999997 39.749285,215.25612199999998 39.277945,215.29771599999998 38.806630999999996,215.33441499999998 38.33534,215.366219 37.864069,215.393129 37.392815,215.415146 36.921574,215.432269 36.450344,215.44449999999998 35.979119999999995,215.45183799999998 35.507898999999995,215.454285 35.036677999999995,215.45183799999998 34.565454,215.44449999999998 34.094224,215.432269 33.622983,215.415146 33.151729,215.393129 32.680458,215.366219 32.209166999999994,215.33441499999998 31.737852999999998,215.29771599999998 31.266512999999996,215.25612199999998 30.795143,215.20963099999997 30.323739999999997,215.158243 29.852301999999998,215.10195599999997 29.380824999999998,215.04076999999998 28.909305999999997,214.974683 28.437742999999998,214.90369399999997 27.966131999999998,214.827802 27.494470999999997,214.74700499999997 27.022757,214.66130199999998 26.550987999999997,214.57068999999998 25.875859,214.434011 25.875859,220.974585 26.163933999999998,221.032906 26.655368999999997,221.12729399999998 25.096349,221.12729399999998 24.604858999999998,221.216591 24.113315999999998,221.300794 23.621723,221.379902 23.130081999999998,221.453913 22.638396999999998,221.52282599999998 22.14667,221.58664 21.654904,221.645353 21.163103,221.698965 20.671269,221.74747399999998 20.179405,221.79088 19.687514999999998,221.82918099999998 19.195601999999997,221.86237699999998 18.703668999999998,221.890467 18.211719,221.91344999999998 17.719755999999997,221.93132699999998 17.227781999999998,221.944096 16.735802,221.95175799999998 16.243819,221.954311 15.751835999999999,221.95175799999998 15.259856,221.944096 14.767881999999998,221.93132699999998 14.275918999999998,221.91344999999998 13.783968999999999,221.890467 13.292035999999998,221.86237699999998 12.800123,221.82918099999998 12.308232999999998,221.79088 11.816368999999998,221.74747399999998 11.324535,221.698965 10.832733999999999,221.645353 10.340967999999998,221.58664 9.849241,221.52282599999998 9.357555999999999,221.453913 8.865914999999998,221.379902 8.374322,221.300794 7.882778999999999,221.216591 7.391288999999997,221.12729399999998 7.106939999999998,221.07268 5.055218,224.49221699999998 4.0,224.093234 5.8130919999999975,214.272317 7.286907999999997,214.57068999999998 7.758676999999999,214.66130199999998 8.230390999999997,214.74700499999997 8.702051999999998,214.827802 9.173662999999998,214.90369399999997 9.645225999999997,214.974683 10.116744999999998,215.04076999999998 10.588221999999998,215.10195599999997 11.05966,215.158243 11.531062999999998,215.20963099999997 12.002432999999998,215.25612199999998 12.473772999999998,215.29771599999998 12.945087,215.33441499999998 13.416377999999998,215.366219 13.887648999999998,215.393129 14.358902999999998,215.415146 14.830143999999999,215.432269 15.301374,215.44449999999998 15.772597999999999,215.45183799999998 16.243819,215.454285 16.71504,215.45183799999998 17.186263999999998,215.44449999999998 17.657494,215.432269 18.128735,215.415146 18.599988999999997,215.393129 19.07126,215.366219 19.542551,215.33441499999998 20.013865,215.29771599999998 20.485205,215.25612199999998 20.956574999999997,215.20963099999997 21.427978,215.158243 21.899416,215.10195599999997 22.370893,215.04076999999998 22.842412,214.974683 23.313975,214.90369399999997 23.785586,214.827802 24.257247,214.74700499999997 24.728960999999998,214.66130199999998 25.20073,214.57068999999998 25.875859,214.434011 25.875859,220.974585 25.587784,221.032906 25.096349,221.12729399999998" stroke="#1f6fb2" stroke-width="0.1" /><text fill="#0a3d62" font-family="sans-serif" font-size="1.6" text-anchor="middle" x="25.875859" y="219.38226699999998">07</text><polygon fill="#cfe3f7" fill-opacity="0.5" points="71.627903,219.57485899999998 72.159438,219.645852 72.69099399999999,219.71279099999998 73.22256999999999,219.77567499999998 73.754166,219.83450399999998 74.28577999999999,219.889278 74.81741099999999,219.93999699999998 75.349058,219.98665899999997 75.880719,220.02926399999998 76.412393,220.067813 76.94407899999999,220.102305 77.475776,220.13273999999998 78.007482,220.15911699999998 78.539196,220.181437 79.070916,220.19969899999998 79.602642,220.213902 80.134372,220.22404799999998 80.66610399999999,220.230135 81.19783799999999,220.23216399999998 81.72957199999999,220.230135 82.261304,220.22404799999998 82.79303399999999,220.213902 83.32476,220.19969899999998 83.85648,220.181437 84.388194,220.15911699999998 84.9199,220.13273999999998 85.45159699999999,220.102305 85.983283,220.067813 86.514957,220.02926399999998 87.046618,219.98665899999997 87.57826499999999,219.93999699999998 88.10989599999999,219.889278 88.64151,219.83450399999998 89.17310599999999,219.77567499999998 89.70468199999999,219.71279099999998 90.236238,219.645852 90.76777299999999,219.57485899999998 91.299284,219.499813 92.679878,219.294345 92.679878,214.272317 91.01226799999999,214.520501 90.495575,214.59345499999998 89.978906,214.66246199999998 89.46225799999999,214.727523 88.94563,214.788639 88.429022,214.84581 87.912432,214.899036 87.395859,214.94831699999997 86.879302,214.993655 86.362759,215.03504999999998 85.846229,215.072501 85.329711,215.106009 84.813204,215.135574 84.296706,215.161197 83.780216,215.182877 83.263732,215.200615 82.747254,215.21441199999998 82.23078,215.224266 81.71430799999999,215.230179 81.19783799999999,215.23215 80.68136799999999,215.230179 80.164896,215.224266 79.648422,215.21441199999998 79.131944,215.200615 78.61546,215.182877 78.09897,215.161197 77.582472,215.135574 77.06596499999999,215.106009 76.549447,215.072501 76.032917,215.03504999999998 75.516374,214.993655 74.999817,214.94831699999997 74.483244,214.899036 73.96665399999999,214.84581 73.450046,214.788639 72.93341799999999,214.727523 72.41677,214.66246199999998 71.90010099999999,214.59345499999998 71.383408,214.520501 70.71579799999999,214.421143 70.71579799999999,219.44317099999998 71.096392,219.499813 71.627903,219.57485899999998 69.803693,219.57485899999998 69.27215799999999,219.645852 68.740602,219.71279099999998 68.209026,219.77567499999998 67.67742999999999,219.83450399999998 67.145816,219.889278 66.61418499999999,219.93999699999998 66.082538,219.98665899999997 65.550877,220.02926399999998 65.019203,220.067813 64.487517,220.102305 63.955819999999996,220.13273999999998 63.424113999999996,220.15911699999998 62.892399999999995,220.181437 62.360679999999995,220.19969899999998 61.828953999999996,220.213902 61.297224,220.22404799999998 60.765491999999995,220.230135 60.233757999999995,220.23216399999998 59.702023999999994,220.230135 59.170291999999996,220.22404799999998 58.63856199999999,220.213902 58.106835999999994,220.19969899999998 57.575115999999994,220.181437 57.04340199999999,220.15911699999998 56.51169599999999,220.13273999999998 55.97999899999999,220.102305 55.448313,220.067813 54.916638999999996,220.02926399999998 54.384978,219.98665899999997 53.853331,219.93999699999998 53.32169999999999,219.889278 52.790085999999995,219.83450399999998 52.258489999999995,219.77567499999998 51.726913999999994,219.71279099999998 51.195358,219.645852 50.663822999999994,219.57485899999998 50.132312,219.499813 48.751718,219.294345 48.751718,214.272317 50.41932799999999,214.520501 50.936021,214.59345499999998 51.45269,214.66246199999998 51.96933799999999,214.727523 52.485966,214.788639 53.002573999999996,214.84581 53.519163999999996,214.899036 54.035737,214.94831699999997 54.552293999999996,214.993655 55.068836999999995,215.03504999999998 55.585367,215.072501 56.101884999999996,215.106009 56.618392,215.135574 57.13489,215.161197 57.651379999999996,215.182877 58.167863999999994,215.200615 58.684341999999994,215.21441199999998 59.200815999999996,215.224266 59.717287999999996,215.230179 60.233757999999995,215.23215 60.75022799999999,215.230179 61.2667,215.224266 61.783173999999995,215.21441199999998 62.299651999999995,215.200615 62.816136,215.182877 63.332626,215.161197 63.849123999999996,215.135574 64.365631,215.106009 64.882149,215.072501 65.39867899999999,215.03504999999998 65.915222,214.993655 66.43177899999999,214.94831699999997 66.948352,214.899036 67.464942,214.84581 67.98155,214.788639 68.498178,214.727523 69.014826,214.66246199999998 69.53149499999999,214.59345499999998 70.048188,214.520501 70.71579799999999,214.421143 70.71579799999999,219.44317099999998 70.335204,219.499813 69.803693,219.57485899999998" stroke="#1f6fb2" stroke-width="0.1" /><text fill="#0a3d62" font-family="sans-serif" font-size="1.6" text-anchor="middle" x="70.71579799999999" y="217.2522405">08</text><polygon fill="#cfe3f7" fill-opacity="0.5" points="93.679878,217.92144399999998 93.702033,218.14638699999998 93.781976,218.409925 93.911797,218.65280299999998 94.086507,218.86568799999998 94.299392,219.04039799999998 94.54227,219.17021899999997 94.805808,219.250162 95.03075100000001,219.272317 106.329005,219.272317 106.553948,219.250162 106.817486,219.17021899999997 107.060364,219.04039799999998 107.273249,218.86568799999998 107.447959,218.65280299999998 107.57778,218.409925 107.657723,218.14638699999998 107.679878,217.92144399999998 107.679878,215.62319 107.657723,215.398247 107.57778,215.134709 107.447959,214.891831 107.273249,214.678946 107.060364,214.504236 106.817486,214.374415 106.553948,214.29447199999998 106.329005,214.272317 95.03075100000001,214.272317 94.805808,214.29447199999998 94.54227,214.374415 94.299392,214.504236 94.086507,214.678946 93.911797,214.891831 93.781976,215.134709 93.702033,215.398247 93.679878,215.62319 93.679878,217.92144399999998" stroke="#1f6fb2" stroke-width="0.1" /><text fill="#0a3d62" font-family="sans-serif" font-size="1.6" text-anchor="middle" x="100.679878" y="216.772317">06</text><polygon fill="#cfe3f7" fill-opacity="0.5" points="4.0,229.14134399999998 4.022155,229.36628699999997 4.102098,229.62982499999998 4.2319189999999995,229.87270299999997 4.406629,230.08558799999997 4.619514,230.26029799999998 4.862392,230.39011899999997 5.12593,230.47006199999998 5.350873,230.49221699999998 16.649127,230.49221699999998 16.87407,230.47006199999998 17.137608,230.39011899999997 17.380485999999998,230.26029799999998 17.593370999999998,230.08558799999997 17.768081000000002,229.87270299999997 17.897902000000002,229.62982499999998 17.977845000000002,229.36628699999997 18.0,229.14134399999998 18.0,226.84309 17.977845000000002,226.618147 17.897902000000002,226.35460899999998 17.768081000000002,226.111731 17.593370999999998,225.898846 17.380485999999998,225.724136 17.137608,225.594315 16.87407,225.51437199999998 16.649127,225.49221699999998 5.350873,225.49221699999998 5.12593,225.51437199999998 4.862392,225.594315 4.619514,225.724136 4.406629,225.898846 4.2319189999999995,226.111731 4.102098,226.35460899999998 4.022155,226.618147 4.0,226.84309 4.0,229.14134399999998" stroke="#1f6fb2" stroke-width="0.1" /><text fill="#0a3d62" font-family="sans-serif" font-size="1.6" text-anchor="middle" x="11.0" y="227.99221699999998">06</text></svg>