  0
SECTION
  2
HEADER
  9
$ACADVER
  1
AC1027
  9
$ACADMAINTVER
 70
105
  9
$DWGCODEPAGE
  3
ANSI_1252
  9
$LASTSAVEDBY
  1
ezdxf
  9
$REQUIREDVERSIONS
160
0
  9
$INSBASE
 10
0.0
 20
0.0
 30
0.0
  9
$EXTMIN
 10
1e+20
 20
1e+20
 30
1e+20
  9
$EXTMAX
 10
-1e+20
 20
-1e+20
 30
-1e+20
  9
$LIMMIN
 10
0.0
 20
0.0
  9
$LIMMAX
 10
420.0
 20
297.0
  9
$ORTHOMODE
 70
0
  9
$REGENMODE
 70
1
  9
$FILLMODE
 70
1
  9
$QTEXTMODE
 70
0
  9
$MIRRTEXT
 70
1
  9
$LTSCALE
 40
1.0
  9
$ATTMODE
 70
1
  9
$TEXTSIZE
 40
2.5
  9
$TRACEWID
 40
1.0
  9
$TEXTSTYLE
  7
OpenSans
  9
$CLAYER
  8
0
  9
$CELTYPE
  6
ByLayer
  9
$CECOLOR
 62
256
  9
$CELTSCALE
 40
1.0
  9
$DISPSILH
 70
0
  9
$DIMSCALE
 40
1.0
  9
$DIMASZ
 40
0.175
  9
$DIMEXO
 40
0.125
  9
$DIMDLI
 40
3.75
  9
$DIMRND
 40
0.0
  9
$DIMDLE
 40
0.0
  9
$DIMEXE
 40
0.375
  9
$DIMTP
 40
0.0
  9
$DIMTM
 40
0.0
  9
$DIMTXT
 40
0.25
  9
$DIMCEN
 40
2.5
  9
$DIMTSZ
 40
0.0
  9
$DIMTOL
 70
0
  9
$DIMLIM
 70
0
  9
$DIMTIH
 70
0
  9
$DIMTOH
 70
0
  9
$DIMSE1
 70
0
  9
$DIMSE2
 70
0
  9
$DIMTAD
 70
1
  9
$DIMZIN
 70
12
  9
$DIMBLK
  1
ARCHTICK
  9
$DIMASO
 70
1
  9
$DIMSHO
 70
1
  9
$DIMPOST
  1

  9
$DIMAPOST
  1

  9
$DIMALT
 70
0
  9
$DIMALTD
 70
3
  9
$DIMALTF
 40
0.03937007874
  9
$DIMLFAC
 40
100.0
  9
$DIMTOFL
 70
1
  9
$DIMTVP
 40
0.0
  9
$DIMTIX
 70
0
  9
$DIMSOXD
 70
0
  9
$DIMSAH
 70
0
  9
$DIMBLK1
  1

  9
$DIMBLK2
  1

  9
$DIMSTYLE
  2
EZDXF
  9
$DIMCLRD
 70
0
  9
$DIMCLRE
 70
0
  9
$DIMCLRT
 70
0
  9
$DIMTFAC
 40
0.5
  9
$DIMGAP
 40
0.1
  9
$DIMJUST
 70
0
  9
$DIMSD1
 70
0
  9
$DIMSD2
 70
0
  9
$DIMTOLJ
 70
0
  9
$DIMTZIN
 70
8
  9
$DIMALTZ
 70
0
  9
$DIMALTTZ
 70
0
  9
$DIMUPT
 70
1
  9
$DIMDEC
 70
2
  9
$DIMTDEC
 70
2
  9
$DIMALTU
 70
2
  9
$DIMALTTD
 70
3
  9
$DIMTXSTY
  7
OpenSansCondensed-Light
  9
$DIMAUNIT
 70
0
  9
$DIMADEC
 70
2
  9
$DIMALTRND
 40
0.0
  9
$DIMAZIN
 70
3
  9
$DIMDSEP
 70
46
  9
$DIMATFIT
 70
3
  9
$DIMFRAC
 70
0
  9
$DIMLDRBLK
  1

  9
$DIMLUNIT
 70
2
  9
$DIMLWD
 70
-2
  9
$DIMLWE
 70
-2
  9
$DIMTMOVE
 70
2
  9
$DIMFXL
 40
1.0
  9
$DIMFXLON
 70
0
  9
$DIMJOGANG
 40
0.785398163397
  9
$DIMTFILL
 70
0
  9
$DIMTFILLCLR
 70
0
  9
$DIMARCSYM
 70
0
  9
$DIMLTYPE
  6

  9
$DIMLTEX1
  6

  9
$DIMLTEX2
  6

  9
$DIMTXTDIRECTION
 70
0
  9
$LUNITS
 70
2
  9
$LUPREC
 70
4
  9
$SKETCHINC
 40
1.0
  9
$FILLETRAD
 40
10.0
  9
$AUNITS
 70
0
  9
$AUPREC
 70
2
  9
$MENU
  1
.
  9
$ELEVATION
 40
0.0
  9
$PELEVATION
 40
0.0
  9
$THICKNESS
 40
0.0
  9
$LIMCHECK
 70
0
  9
$CHAMFERA
 40
0.0
  9
$CHAMFERB
 40
0.0
  9
$CHAMFERC
 40
0.0
  9
$CHAMFERD
 40
0.0
  9
$SKPOLY
 70
0
  9
$TDCREATE
 40
2461240.7775462964
  9
$TDUCREATE
 40
2458532.153996898
  9
$TDUPDATE
 40
2461240.7775462964
  9
$TDUUPDATE
 40
2458532.1544311
  9
$TDINDWG
 40
0.0
  9
$TDUSRTIMER
 40
0.0
  9
$USRTIMER
 70
1
  9
$ANGBASE
 50
0.0
  9
$ANGDIR
 70
0
  9
$PDMODE
 70
0
  9
$PDSIZE
 40
0.0
  9
$PLINEWID
 40
0.0
  9
$SPLFRAME
 70
0
  9
$SPLINETYPE
 70
6
  9
$SPLINESEGS
 70
8
  9
$HANDSEED
  5
12E
  9
$SURFTAB1
 70
6
  9
$SURFTAB2
 70
6
  9
$SURFTYPE
 70
6
  9
$SURFU
 70
6
  9
$SURFV
 70
6
  9
$UCSBASE
  2

  9
$UCSNAME
  2

  9
$UCSORG
 10
0.0
 20
0.0
 30
0.0
  9
$UCSXDIR
 10
1.0
 20
0.0
 30
0.0
  9
$UCSYDIR
 10
0.0
 20
1.0
 30
0.0
  9
$UCSORTHOREF
  2

  9
$UCSORTHOVIEW
 70
0
  9
$UCSORGTOP
 10
0.0
 20
0.0
 30
0.0
  9
$UCSORGBOTTOM
 10
0.0
 20
0.0
 30
0.0
  9
$UCSORGLEFT
 10
0.0
 20
0.0
 30
0.0
  9
$UCSORGRIGHT
 10
0.0
 20
0.0
 30
0.0
  9
$UCSORGFRONT
 10
0.0
 20
0.0
 30
0.0
  9
$UCSORGBACK
 10
0.0
 20
0.0
 30
0.0
  9
$PUCSBASE
  2

  9
$PUCSNAME
  2

  9
$PUCSORG
 10
0.0
 20
0.0
 30
0.0
  9
$PUCSXDIR
 10
1.0
 20
0.0
 30
0.0
  9
$PUCSYDIR
 10
0.0
 20
1.0
 30
0.0
  9
$PUCSORTHOREF
  2

  9
$PUCSORTHOVIEW
 70
0
  9
$PUCSORGTOP
 10
0.0
 20
0.0
 30
0.0
  9
$PUCSORGBOTTOM
 10
0.0
 20
0.0
 30
0.0
  9
$PUCSORGLEFT
 10
0.0
 20
0.0
 30
0.0
  9
$PUCSORGRIGHT
 10
0.0
 20
0.0
 30
0.0
  9
$PUCSORGFRONT
 10
0.0
 20
0.0
 30
0.0
  9
$PUCSORGBACK
 10
0.0
 20
0.0
 30
0.0
  9
$USERI1
 70
0
  9
$USERI2
 70
0
  9
$USERI3
 70
0
  9
$USERI4
 70
0
  9
$USERI5
 70
0
  9
$USERR1
 40
0.0
  9
$USERR2
 40
0.0
  9
$USERR3
 40
0.0
  9
$USERR4
 40
0.0
  9
$USERR5
 40
0.0
  9
$WORLDVIEW
 70
1
  9
$SHADEDGE
 70
3
  9
$SHADEDIF
 70
70
  9
$TILEMODE
 70
1
  9
$MAXACTVP
 70
64
  9
$PINSBASE
 10
0.0
 20
0.0
 30
0.0
  9
$PLIMCHECK
 70
0
  9
$PEXTMIN
 10
1e+20
 20
1e+20
 30
1e+20
  9
$PEXTMAX
 10
-1e+20
 20
-1e+20
 30
-1e+20
  9
$PLIMMIN
 10
0.0
 20
0.0
  9
$PLIMMAX
 10
420.0
 20
297.0
  9
$UNITMODE
 70
0
  9
$VISRETAIN
 70
1
  9
$PLINEGEN
 70
0
  9
$PSLTSCALE
 70
1
  9
$TREEDEPTH
 70
3020
  9
$CMLSTYLE
  2
Standard
  9
$CMLJUST
 70
0
  9
$CMLSCALE
 40
20.0
  9
$PROXYGRAPHICS
 70
1
  9
$MEASUREMENT
 70
1
  9
$CELWEIGHT
370
-1
  9
$ENDCAPS
280
0
  9
$JOINSTYLE
280
0
  9
$LWDISPLAY
290
0
  9
$INSUNITS
 70
5
  9
$HYPERLINKBASE
  1

  9
$STYLESHEET
  1

  9
$XEDIT
290
1
  9
$CEPSNTYPE
380
0
  9
$PSTYLEMODE
290
1
  9
$FINGERPRINTGUID
  2
{87672FF7-9DF3-4693-87AE-604B85570DE5}
  9
$VERSIONGUID
  2
{37F96DBD-3B9D-43A6-A76E-9E50DF4E1C32}
  9
$EXTNAMES
290
1
  9
$PSVPSCALE
 40
0.0
  9
$OLESTARTUP
290
0
  9
$SORTENTS
280
127
  9
$INDEXCTL
280
0
  9
$HIDETEXT
280
1
  9
$XCLIPFRAME
280
1
  9
$HALOGAP
280
0
  9
$OBSCOLOR
 70
257
  9
$OBSLTYPE
280
0
  9
$INTERSECTIONDISPLAY
280
0
  9
$INTERSECTIONCOLOR
 70
257
  9
$DIMASSOC
280
2
  9
$PROJECTNAME
  1

  9
$CAMERADISPLAY
290
0
  9
$LENSLENGTH
 40
50.0
  9
$CAMERAHEIGHT
 40
0.0
  9
$STEPSPERSEC
 40
24.0
  9
$STEPSIZE
 40
100.0
  9
$3DDWFPREC
 40
2.0
  9
$PSOLWIDTH
 40
0.005
  9
$PSOLHEIGHT
 40
0.08
  9
$LOFTANG1
 40
1.570796326795
  9
$LOFTANG2
 40
1.570796326795
  9
$LOFTMAG1
 40
0.0
  9
$LOFTMAG2
 40
0.0
  9
$LOFTPARAM
 70
7
  9
$LOFTNORMALS
280
1
  9
$LATITUDE
 40
37.795
  9
$LONGITUDE
 40
-122.394
  9
$NORTHDIRECTION
 40
0.0
  9
$TIMEZONE
 70
-8000
  9
$LIGHTGLYPHDISPLAY
280
1
  9
$TILEMODELIGHTSYNCH
280
1
  9
$CMATERIAL
347
20
  9
$SOLIDHIST
280
0
  9
$SHOWHIST
280
1
  9
$DWFFRAME
280
2
  9
$DGNFRAME
280
2
  9
$REALWORLDSCALE
290
1
  9
$INTERFERECOLOR
 62
256
  9
$CSHADOW
280
0
  9
$SHADOWPLANELOCATION
 40
0.0
  0
ENDSEC
  0
SECTION
  2
CLASSES
  0
CLASS
  1
ACDBDICTIONARYWDFLT
  2
AcDbDictionaryWithDefault
  3
ObjectDBX Classes
 90
0
 91
0
280
0
281
0
  0
CLASS
  1
SUN
  2
AcDbSun
  3
SCENEOE
 90
1153
 91
0
280
0
281
0
  0
CLASS
  1
VISUALSTYLE
  2
AcDbVisualStyle
  3
ObjectDBX Classes
 90
4095
 91
0
280
0
281
0
  0
CLASS
  1
MATERIAL
  2
AcDbMaterial
  3
ObjectDBX Classes
 90
1153
 91
0
280
0
281
0
  0
CLASS
  1
SCALE
  2
AcDbScale
  3
ObjectDBX Classes
 90
1153
 91
0
280
0
281
0
  0
CLASS
  1
TABLESTYLE
  2
AcDbTableStyle
  3
ObjectDBX Classes
 90
4095
 91
0
280
0
281
0
  0
CLASS
  1
MLEADERSTYLE
  2
AcDbMLeaderStyle
  3
ACDB_MLEADERSTYLE_CLASS
 90
4095
 91
0
280
0
281
0
  0
CLASS
  1
DICTIONARYVAR
  2
AcDbDictionaryVar
  3
ObjectDBX Classes
 90
0
 91
0
280
0
281
0
  0
CLASS
  1
CELLSTYLEMAP
  2
AcDbCellStyleMap
  3
ObjectDBX Classes
 90
1152
 91
0
280
0
281
0
  0
CLASS
  1
MENTALRAYRENDERSETTINGS
  2
AcDbMentalRayRenderSettings
  3
SCENEOE
 90
1024
 91
0
280
0
281
0
  0
CLASS
  1
ACDBDETAILVIEWSTYLE
  2
AcDbDetailViewStyle
  3
ObjectDBX Classes
 90
1025
 91
0
280
0
281
0
  0
CLASS
  1
ACDBSECTIONVIEWSTYLE
  2
AcDbSectionViewStyle
  3
ObjectDBX Classes
 90
1025
 91
0
280
0
281
0
  0
CLASS
  1
RASTERVARIABLES
  2
AcDbRasterVariables
  3
ISM
 90
0
 91
0
280
0
281
0
  0
CLASS
  1
ACDBPLACEHOLDER
  2
AcDbPlaceHolder
  3
ObjectDBX Classes
 90
0
 91
0
280
0
281
0
  0
CLASS
  1
LAYOUT
  2
AcDbLayout
  3
ObjectDBX Classes
 90
0
 91
0
280
0
281
0
  0
ENDSEC
  0
SECTION
  2
TABLES
  0
TABLE
  2
VPORT
  5
8
330
0
100
AcDbSymbolTable
 70
1
  0
VPORT
  5
23
330
8
100
AcDbSymbolTableRecord
100
AcDbViewportTableRecord
  2
*Active
 70
0
 10
0.0
 20
0.0
 11
1.0
 21
1.0
 12
0.0
 22
0.0
 13
0.0
 23
0.0
 14
0.5
 24
0.5
 15
0.5
 25
0.5
 16
0.0
 26
0.0
 36
1.0
 17
0.0
 27
0.0
 37
0.0
 40
1000.0
 41
1.34
 42
50.0
 43
0.0
 44
0.0
 50
0.0
 51
0.0
 71
0
 72
1000
 73
1
 74
3
 75
0
 76
0
 77
0
 78
0
281
0
 65
0
146
0.0
  0
ENDTAB
  0
TABLE
  2
LTYPE
  5
2
330
0
100
AcDbSymbolTable
 70
21
  0
LTYPE
  5
24
330
2
100
AcDbSymbolTableRecord
100
AcDbLinetypeTableRecord
  2
ByBlock
 70
0
  3

 72
65
 73
0
 40
0.0
  0
LTYPE
  5
25
330
2
100
AcDbSymbolTableRecord
100
AcDbLinetypeTableRecord
  2
ByLayer
 70
0
  3

 72
65
 73
0
 40
0.0
  0
LTYPE
  5
26
330
2
100
AcDbSymbolTableRecord
100
AcDbLinetypeTableRecord
  2
Continuous
 70
0
  3

 72
65
 73
0
 40
0.0
  0
LTYPE
  5
2F
330
2
100
AcDbSymbolTableRecord
100
AcDbLinetypeTableRecord
  2
CENTER
 70
0
  3
Center ____ _ ____ _ ____ _ ____ _ ____ _ ____
 72
65
 73
4
 40
5.08
 49
3.175
 74
0
 49
-0.635
 74
0
 49
0.635
 74
0
 49
-0.635
 74
0
  0
LTYPE
  5
30
330
2
100
AcDbSymbolTableRecord
100
AcDbLinetypeTableRecord
  2
CENTERX2
 70
0
  3
Center (2x) ________  __  ________  __  ________
 72
65
 73
4
 40
8.89
 49
6.35
 74
0
 49
-0.635
 74
0
 49
1.27
 74
0
 49
-0.635
 74
0
  0
LTYPE
  5
31
330
2
100
AcDbSymbolTableRecord
100
AcDbLinetypeTableRecord
  2
CENTER2
 70
0
  3
Center (.5x) ____ _ ____ _ ____ _ ____ _ ____
 72
65
 73
4
 40
2.54
 49
1.587
 74
0
 49
-0.318
 74
0
 49
0.318
 74
0
 49
-0.318
 74
0
  0
LTYPE
  5
32
330
2
100
AcDbSymbolTableRecord
100
AcDbLinetypeTableRecord
  2
DASHED
 70
0
  3
Dashed __ __ __ __ __ __ __ __ __ __ __ __ __ _
 72
65
 73
2
 40
1.524
 49
1.27
 74
0
 49
-0.254
 74
0
  0
LTYPE
  5
33
330
2
100
AcDbSymbolTableRecord
100
AcDbLinetypeTableRecord
  2
DASHEDX2
 70
0
  3
Dashed (2x) ____  ____  ____  ____  ____  ____
 72
65
 73
2
 40
3.048
 49
2.54
 74
0
 49
-0.508
 74
0
  0
LTYPE
  5
34
330
2
100
AcDbSymbolTableRecord
100
AcDbLinetypeTableRecord
  2
DASHED2
 70
0
  3
Dashed (.5x) _ _ _ _ _ _ _ _ _ _ _ _ _ _
 72
65
 73
2
 40
0.762
 49
0.635
 74
0
 49
-0.127
 74
0
  0
LTYPE
  5
35
330
2
100
AcDbSymbolTableRecord
100
AcDbLinetypeTableRecord
  2
PHANTOM
 70
0
  3
Phantom ______  __  __  ______  __  __  ______
 72
65
 73
6
 40
6.35
 49
3.175
 74
0
 49
-0.635
 74
0
 49
0.635
 74
0
 49
-0.635
 74
0
 49
0.635
 74
0
 49
-0.635
 74
0
  0
LTYPE
  5
36
330
2
100
AcDbSymbolTableRecord
100
AcDbLinetypeTableRecord
  2
PHANTOMX2
 70
0
  3
Phantom (2x)____________    ____    ____    ____________
 72
65
 73
6
 40
10.795
 49
6.35
 74
0
 49
-0.635
 74
0
 49
1.27
 74
0
 49
-0.635
 74
0
 49
1.27
 74
0
 49
-0.635
 74
0
  0
LTYPE
  5
37
330
2
100
AcDbSymbolTableRecord
100
AcDbLinetypeTableRecord
  2
PHANTOM2
 70
0
  3
Phantom (.5x) ___ _ _ ___ _ _ ___ _ _ ___ _ _ ___
 72
65
 73
6
 40
3.175
 49
1.587
 74
0
 49
-0.318
 74
0
 49
0.318
 74
0
 49
-0.318
 74
0
 49
0.318
 74
0
 49
-0.318
 74
0
  0
LTYPE
  5
38
330
2
100
AcDbSymbolTableRecord
100
AcDbLinetypeTableRecord
  2
DASHDOT
 70
0
  3
Dash dot __ . __ . __ . __ . __ . __ . __ . __
 72
65
 73
4
 40
3.556
 49
2.54
 74
0
 49
-0.508
 74
0
 49
0.0
 74
0
 49
-0.508
 74
0
  0
LTYPE
  5
39
330
2
100
AcDbSymbolTableRecord
100
AcDbLinetypeTableRecord
  2
DASHDOTX2
 70
0
  3
Dash dot (2x) ____  .  ____  .  ____  .  ____
 72
65
 73
4
 40
6.096
 49
5.08
 74
0
 49
-0.508
 74
0
 49
0.0
 74
0
 49
-0.508
 74
0
  0
LTYPE
  5
3A
330
2
100
AcDbSymbolTableRecord
100
AcDbLinetypeTableRecord
  2
DASHDOT2
 70
0
  3
Dash dot (.5x) _ . _ . _ . _ . _ . _ . _ . _
 72
65
 73
4
 40
1.778
 49
1.27
 74
0
 49
-0.254
 74
0
 49
0.0
 74
0
 49
-0.254
 74
0
  0
LTYPE
  5
3B
330
2
100
AcDbSymbolTableRecord
100
AcDbLinetypeTableRecord
  2
DOT
 70
0
  3
Dot .  .  .  .  .  .  .  .  .  .  .  .  .  .  .  .
 72
65
 73
2
 40
0.508
 49
0.0
 74
0
 49
-0.508
 74
0
  0
LTYPE
  5
3C
330
2
100
AcDbSymbolTableRecord
100
AcDbLinetypeTableRecord
  2
DOTX2
 70
0
  3
Dot (2x) .    .    .    .    .    .    .    . 
 72
65
 73
2
 40
1.016
 49
0.0
 74
0
 49
-1.016
 74
0
  0
LTYPE
  5
3D
330
2
100
AcDbSymbolTableRecord
100
AcDbLinetypeTableRecord
  2
DOT2
 70
0
  3
Dot (.5) . . . . . . . . . . . . . . . . . . . 
 72
65
 73
2
 40
0.254
 49
0.0
 74
0
 49
-0.254
 74
0
  0
LTYPE
  5
3E
330
2
100
AcDbSymbolTableRecord
100
AcDbLinetypeTableRecord
  2
DIVIDE
 70
0
  3
Divide __ . . __ . . __ . . __ . . __ . . __
 72
65
 73
6
 40
4.064
 49
2.54
 74
0
 49
-0.508
 74
0
 49
0.0
 74
0
 49
-0.508
 74
0
 49
0.0
 74
0
 49
-0.508
 74
0
  0
LTYPE
  5
3F
330
2
100
AcDbSymbolTableRecord
100
AcDbLinetypeTableRecord
  2
DIVIDEX2
 70
0
  3
Divide (2x) ____  . .  ____  . .  ____  . .  ____
 72
65
 73
6
 40
6.604
 49
5.08
 74
0
 49
-0.508
 74
0
 49
0.0
 74
0
 49
-0.508
 74
0
 49
0.0
 74
0
 49
-0.508
 74
0
  0
LTYPE
  5
40
330
2
100
AcDbSymbolTableRecord
100
AcDbLinetypeTableRecord
  2
DIVIDE2
 70
0
  3
Divide(.5x) _ . _ . _ . _ . _ . _ . _ . _
 72
65
 73
6
 40
2.032
 49
1.27
 74
0
 49
-0.254
 74
0
 49
0.0
 74
0
 49
-0.254
 74
0
 49
0.0
 74
0
 49
-0.254
 74
0
  0
ENDTAB
  0
TABLE
  2
LAYER
  5
1
330
0
100
AcDbSymbolTable
 70
10
  0
LAYER
  5
27
330
1
100
AcDbSymbolTableRecord
100
AcDbLayerTableRecord
  2
0
 70
0
 62
7
  6
Continuous
370
-3
390
13
347
21
  0
LAYER
  5
28
330
1
100
AcDbSymbolTableRecord
100
AcDbLayerTableRecord
  2
Defpoints
 70
0
 62
7
  6
Continuous
290
0
370
-3
390
13
347
21
  0
LAYER
  5
8A
330
1
100
AcDbSymbolTableRecord
100
AcDbLayerTableRecord
  2
1
 70
0
 62
1
  6
Continuous
370
-3
390
13
347
21
  0
LAYER
  5
8B
330
1
100
AcDbSymbolTableRecord
100
AcDbLayerTableRecord
  2
4
 70
0
 62
4
  6
Continuous
370
-3
390
13
347
21
  0
LAYER
  5
8C
330
1
100
AcDbSymbolTableRecord
100
AcDbLayerTableRecord
  2
6
 70
0
 62
2
  6
Continuous
370
-3
390
13
347
21
  0
LAYER
  5
8D
330
1
100
AcDbSymbolTableRecord
100
AcDbLayerTableRecord
  2
7
 70
0
 62
3
  6
Continuous
370
-3
390
13
347
21
  0
LAYER
  5
8E
330
1
100
AcDbSymbolTableRecord
100
AcDbLayerTableRecord
  2
8
 70
0
 62
5
  6
Continuous
370
-3
390
13
347
21
  0
LAYER
  5
8F
330
1
100
AcDbSymbolTableRecord
100
AcDbLayerTableRecord
  2
11
 70
0
 62
8
  6
Continuous
370
-3
390
13
347
21
  0
LAYER
  5
90
330
1
100
AcDbSymbolTableRecord
100
AcDbLayerTableRecord
  2
13
 70
0
 62
7
  6
Continuous
370
-3
390
13
347
21
  0
LAYER
  5
91
330
1
100
AcDbSymbolTableRecord
100
AcDbLayerTableRecord
  2
15
 70
0
 62
6
  6
Continuous
370
-3
390
13
347
21
  0
ENDTAB
  0
TABLE
  2
STYLE
  5
5
330
0
100
AcDbSymbolTable
 70
26
  0
STYLE
  5
29
330
5
100
AcDbSymbolTableRecord
100
AcDbTextStyleTableRecord
  2
Standard
 70
0
 40
0.0
 41
1.0
 50
0.0
 71
0
 42
2.5
  3
txt
  4

  0
STYLE
  5
41
330
5
100
AcDbSymbolTableRecord
100
AcDbTextStyleTableRecord
  2
OpenSans-Light
 70
0
 40
0.0
 41
1.0
 50
0.0
 71
0
 42
2.5
  3
OpenSans-Light.ttf
  4

  0
STYLE
  5
42
330
5
100
AcDbSymbolTableRecord
100
AcDbTextStyleTableRecord
  2
OpenSans-Light-Italic
 70
0
 40
0.0
 41
1.0
 50
0.0
 71
0
 42
2.5
  3
OpenSans-LightItalic.ttf
  4

  0
STYLE
  5
43
330
5
100
AcDbSymbolTableRecord
100
AcDbTextStyleTableRecord
  2
OpenSans
 70
0
 40
0.0
 41
1.0
 50
0.0
 71
0
 42
2.5
  3
OpenSans-Regular.ttf
  4

  0
STYLE
  5
44
330
5
100
AcDbSymbolTableRecord
100
AcDbTextStyleTableRecord
  2
OpenSans-Italic
 70
0
 40
0.0
 41
1.0
 50
0.0
 71
0
 42
2.5
  3
OpenSans-Italic.ttf
  4

  0
STYLE
  5
45
330
5
100
AcDbSymbolTableRecord
100
AcDbTextStyleTableRecord
  2
OpenSans-SemiBold
 70
0
 40
0.0
 41
1.0
 50
0.0
 71
0
 42
2.5
  3
OpenSans-SemiBold.ttf
  4

  0
STYLE
  5
46
330
5
100
AcDbSymbolTableRecord
100
AcDbTextStyleTableRecord
  2
OpenSans-SemiBoldItalic
 70
0
 40
0.0
 41
1.0
 50
0.0
 71
0
 42
2.5
  3
OpenSans-SemiBoldItalic.ttf
  4

  0
STYLE
  5
47
330
5
100
AcDbSymbolTableRecord
100
AcDbTextStyleTableRecord
  2
OpenSans-Bold
 70
0
 40
0.0
 41
1.0
 50
0.0
 71
0
 42
2.5
  3
OpenSans-Bold.ttf
  4

  0
STYLE
  5
48
330
5
100
AcDbSymbolTableRecord
100
AcDbTextStyleTableRecord
  2
OpenSans-BoldItalic
 70
0
 40
0.0
 41
1.0
 50
0.0
 71
0
 42
2.5
  3
OpenSans-BoldItalic.ttf
  4

  0
STYLE
  5
49
330
5
100
AcDbSymbolTableRecord
100
AcDbTextStyleTableRecord
  2
OpenSans-ExtraBold
 70
0
 40
0.0
 41
1.0
 50
0.0
 71
0
 42
2.5
  3
OpenSans-ExtraBold.ttf
  4

  0
STYLE
  5
4A
330
5
100
AcDbSymbolTableRecord
100
AcDbTextStyleTableRecord
  2
OpenSans-ExtraBoldItalic
 70
0
 40
0.0
 41
1.0
 50
0.0
 71
0
 42
2.5
  3
OpenSans-ExtraBoldItalic.ttf
  4

  0
STYLE
  5
4B
330
5
100
AcDbSymbolTableRecord
100
AcDbTextStyleTableRecord
  2
OpenSansCondensed-Bold
 70
0
 40
0.0
 41
1.0
 50
0.0
 71
0
 42
2.5
  3
OpenSansCondensed-Bold.ttf
  4

  0
STYLE
  5
4C
330
5
100
AcDbSymbolTableRecord
100
AcDbTextStyleTableRecord
  2
OpenSansCondensed-Light
 70
0
 40
0.0
 41
1.0
 50
0.0
 71
0
 42
2.5
  3
OpenSansCondensed-Light.ttf
  4

  0
STYLE
  5
4D
330
5
100
AcDbSymbolTableRecord
100
AcDbTextStyleTableRecord
  2
OpenSansCondensed-Italic
 70
0
 40
0.0
 41
1.0
 50
0.0
 71
0
 42
2.5
  3
OpenSansCondensed-LightItalic.ttf
  4

  0
STYLE
  5
4E
330
5
100
AcDbSymbolTableRecord
100
AcDbTextStyleTableRecord
  2
LiberationSans
 70
0
 40
0.0
 41
1.0
 50
0.0
 71
0
 42
2.5
  3
LiberationSans-Regular.ttf
  4

  0
STYLE
  5
4F
330
5
100
AcDbSymbolTableRecord
100
AcDbTextStyleTableRecord
  2
LiberationSans-Bold
 70
0
 40
0.0
 41
1.0
 50
0.0
 71
0
 42
2.5
  3
LiberationSans-Bold.ttf
  4

  0
STYLE
  5
50
330
5
100
AcDbSymbolTableRecord
100
AcDbTextStyleTableRecord
  2
LiberationSans-BoldItalic
 70
0
 40
0.0
 41
1.0
 50
0.0
 71
0
 42
2.5
  3
LiberationSans-BoldItalic.ttf
  4

  0
STYLE
  5
51
330
5
100
AcDbSymbolTableRecord
100
AcDbTextStyleTableRecord
  2
LiberationSans-Italic
 70
0
 40
0.0
 41
1.0
 50
0.0
 71
0
 42
2.5
  3
LiberationSans-Italic.ttf
  4

  0
STYLE
  5
52
330
5
100
AcDbSymbolTableRecord
100
AcDbTextStyleTableRecord
  2
LiberationSerif
 70
0
 40
0.0
 41
1.0
 50
0.0
 71
0
 42
2.5
  3
LiberationSerif-Regular.ttf
  4

  0
STYLE
  5
53
330
5
100
AcDbSymbolTableRecord
100
AcDbTextStyleTableRecord
  2
LiberationSerif-Bold
 70
0
 40
0.0
 41
1.0
 50
0.0
 71
0
 42
2.5
  3
LiberationSerif-Bold.ttf
  4

  0
STYLE
  5
54
330
5
100
AcDbSymbolTableRecord
100
AcDbTextStyleTableRecord
  2
LiberationSerif-BoldItalic
 70
0
 40
0.0
 41
1.0
 50
0.0
 71
0
 42
2.5
  3
LiberationSerif-BoldItalic.ttf
  4

  0
STYLE
  5
55
330
5
100
AcDbSymbolTableRecord
100
AcDbTextStyleTableRecord
  2
LiberationSerif-Italic
 70
0
 40
0.0
 41
1.0
 50
0.0
 71
0
 42
2.5
  3
LiberationSerif-Italic.ttf
  4

  0
STYLE
  5
56
330
5
100
AcDbSymbolTableRecord
100
AcDbTextStyleTableRecord
  2
LiberationMono
 70
0
 40
0.0
 41
1.0
 50
0.0
 71
0
 42
2.5
  3
LiberationMono-Regular.ttf
  4

  0
STYLE
  5
57
330
5
100
AcDbSymbolTableRecord
100
AcDbTextStyleTableRecord
  2
LiberationMono-Bold
 70
0
 40
0.0
 41
1.0
 50
0.0
 71
0
 42
2.5
  3
LiberationMono-Bold.ttf
  4

  0
STYLE
  5
58
330
5
100
AcDbSymbolTableRecord
100
AcDbTextStyleTableRecord
  2
LiberationMono-BoldItalic
 70
0
 40
0.0
 41
1.0
 50
0.0
 71
0
 42
2.5
  3
LiberationMono-BoldItalic.ttf
  4

  0
STYLE
  5
59
330
5
100
AcDbSymbolTableRecord
100
AcDbTextStyleTableRecord
  2
LiberationMono-Italic
 70
0
 40
0.0
 41
1.0
 50
0.0
 71
0
 42
2.5
  3
LiberationMono-Italic.ttf
  4

  0
ENDTAB
  0
TABLE
  2
VIEW
  5
7
330
0
100
AcDbSymbolTable
 70
0
  0
ENDTAB
  0
TABLE
  2
UCS
  5
6
330
0
100
AcDbSymbolTable
 70
0
  0
ENDTAB
  0
TABLE
  2
APPID
  5
3
330
0
100
AcDbSymbolTable
 70
3
  0
APPID
  5
2A
330
3
100
AcDbSymbolTableRecord
100
AcDbRegAppTableRecord
  2
ACAD
 70
0
  0
APPID
  5
12B
330
3
100
AcDbSymbolTableRecord
100
AcDbRegAppTableRecord
  2
HATCHBACKGROUNDCOLOR
 70
0
  0
APPID
  5
12C
330
3
100
AcDbSymbolTableRecord
100
AcDbRegAppTableRecord
  2
EZDXF
 70
0
  0
ENDTAB
  0
TABLE
  2
DIMSTYLE
  5
4
330
0
100
AcDbSymbolTable
 70
12
100
AcDbDimStyleTable
  0
DIMSTYLE
105
2B
330
4
100
AcDbSymbolTableRecord
100
AcDbDimStyleTableRecord
  2
Standard
 70
0
 40
1.0
 41
2.5
 42
0.625
 43
3.75
 44
1.25
 45
0.0
 46
0.0
 47
0.0
 48
0.0
 49
2.5
140
2.5
141
2.5
142
0.0
143
0.03937007874
144
1.0
145
0.0
146
1.0
147
0.625
148
0.0
 69
0
 70
0
 71
0
 72
0
 73
0
 74
0
 75
0
 76
0
 77
1
 78
8
 79
3
170
0
171
3
172
1
173
0
174
0
175
0
176
0
177
0
178
0
179
2
271
2
272
2
273
2
274
3
275
0
276
0
277
2
278
44
279
0
280
0
281
0
282
0
283
0
284
8
285
0
286
0
288
0
289
3
290
0
371
-2
372
-2
  0
DIMSTYLE
105
73
330
4
100
AcDbSymbolTableRecord
100
AcDbDimStyleTableRecord
  2
EZDXF
 70
0
 40
1.0
 41
0.175
 42
0.125
 43
3.75
 44
0.375
 45
0.0
 46
0.0
 47
0.0
 48
0.0
 49
2.5
140
0.25
141
2.5
142
0.0
143
0.03937007874
144
100.0
145
0.0
146
0.5
147
0.1
148
0.0
 69
0
 70
0
 71
0
 72
0
 73
0
 74
0
 75
0
 76
0
 77
1
 78
12
 79
3
170
0
171
3
172
1
173
0
174
0
175
0
176
0
177
0
178
0
179
2
271
2
272
2
273
2
274
3
275
0
276
0
277
2
278
46
279
2
280
0
281
0
282
0
283
0
284
8
285
0
286
0
288
1
289
3
290
0
340
4C
342
74
371
-2
372
-2
  0
DIMSTYLE
105
7C
330
4
100
AcDbSymbolTableRecord
100
AcDbDimStyleTableRecord
  2
EZ_M_100_H25_CM
 70
0
 40
1.0
 41
0.25
 42
0.125
 43
3.75
 44
0.375
 45
0.0
 46
0.0
 47
0.0
 48
0.0
 49
2.5
140
0.25
141
2.5
142
0.125
143
0.03937007874
144
100.0
145
0.0
146
0.5
147
0.1
148
0.0
 69
0
 70
0
 71
0
 72
0
 73
0
 74
0
 75
0
 76
0
 77
1
 78
12
 79
3
170
0
171
3
172
1
173
0
174
0
175
0
176
0
177
0
178
0
179
2
271
2
272
2
273
2
274
3
275
0
276
0
277
2
278
46
279
2
280
0
281
0
282
0
283
0
284
8
285
0
286
0
288
1
289
3
290
0
340
4C
371
-2
372
-2
  0
DIMSTYLE
105
7D
330
4
100
AcDbSymbolTableRecord
100
AcDbDimStyleTableRecord
  2
EZ_M_50_H25_CM
 70
0
 40
1.0
 41
0.125
 42
0.0625
 43
3.75
 44
0.1875
 45
0.0
 46
0.0
 47
0.0
 48
0.0
 49
2.5
140
0.125
141
2.5
142
0.0625
143
0.03937007874
144
100.0
145
0.0
146
0.5
147
0.05
148
0.0
 69
0
 70
0
 71
0
 72
0
 73
0
 74
0
 75
0
 76
0
 77
1
 78
12
 79
3
170
0
171
3
172
1
173
0
174
0
175
0
176
0
177
0
178
0
179
2
271
2
272
2
273
2
274
3
275
0
276
0
277
2
278
46
279
2
280
0
281
0
282
0
283
0
284
8
285
0
286
0
288
1
289
3
290
0
340
4C
371
-2
372
-2
  0
DIMSTYLE
105
7E
330
4
100
AcDbSymbolTableRecord
100
AcDbDimStyleTableRecord
  2
EZ_M_25_H25_CM
 70
0
 40
1.0
 41
0.0625
 42
0.03125
 43
3.75
 44
0.09375
 45
0.0
 46
0.0
 47
0.0
 48
0.0
 49
2.5
140
0.0625
141
2.5
142
0.03125
143
0.03937007874
144
100.0
145
0.0
146
0.5
147
0.025
148
0.0
 69
0
 70
0
 71
0
 72
0
 73
0
 74
0
 75
0
 76
0
 77
1
 78
12
 79
3
170
0
171
3
172
1
173
0
174
0
175
0
176
0
177
0
178
0
179
2
271
2
272
2
273
2
274
3
275
0
276
0
277
2
278
46
279
2
280
0
281
0
282
0
283
0
284
8
285
0
286
0
288
1
289
3
290
0
340
4C
371
-2
372
-2
  0
DIMSTYLE
105
7F
330
4
100
AcDbSymbolTableRecord
100
AcDbDimStyleTableRecord
  2
EZ_M_20_H25_CM
 70
0
 40
1.0
 41
0.05
 42
0.025
 43
3.75
 44
0.07500000000000001
 45
0.0
 46
0.0
 47
0.0
 48
0.0
 49
2.5
140
0.05
141
2.5
142
0.025
143
0.03937007874
144
100.0
145
0.0
146
0.5
147
0.020000000000000004
148
0.0
 69
0
 70
0
 71
0
 72
0
 73
0
 74
0
 75
0
 76
0
 77
1
 78
12
 79
3
170
0
171
3
172
1
173
0
174
0
175
0
176
0
177
0
178
0
179
2
271
2
272
2
273
2
274
3
275
0
276
0
277
2
278
46
279
2
280
0
281
0
282
0
283
0
284
8
285
0
286
0
288
1
289
3
290
0
340
4C
371
-2
372
-2
  0
DIMSTYLE
105
80
330
4
100
AcDbSymbolTableRecord
100
AcDbDimStyleTableRecord
  2
EZ_M_10_H25_CM
 70
0
 40
1.0
 41
0.025
 42
0.0125
 43
3.75
 44
0.037500000000000006
 45
0.0
 46
0.0
 47
0.0
 48
0.0
 49
2.5
140
0.025
141
2.5
142
0.0125
143
0.03937007874
144
100.0
145
0.0
146
0.5
147
0.010000000000000002
148
0.0
 69
0
 70
0
 71
0
 72
0
 73
0
 74
0
 75
0
 76
0
 77
1
 78
12
 79
3
170
0
171
3
172
1
173
0
174
0
175
0
176
0
177
0
178
0
179
2
271
2
272
2
273
2
274
3
275
0
276
0
277
2
278
46
279
2
280
0
281
0
282
0
283
0
284
8
285
0
286
0
288
1
289
3
290
0
340
4C
371
-2
372
-2
  0
DIMSTYLE
105
81
330
4
100
AcDbSymbolTableRecord
100
AcDbDimStyleTableRecord
  2
EZ_M_5_H25_CM
 70
0
 40
1.0
 41
0.0125
 42
0.00625
 43
3.75
 44
0.018750000000000003
 45
0.0
 46
0.0
 47
0.0
 48
0.0
 49
2.5
140
0.0125
141
2.5
142
0.00625
143
0.03937007874
144
100.0
145
0.0
146
0.5
147
0.005000000000000001
148
0.0
 69
0
 70
0
 71
0
 72
0
 73
0
 74
0
 75
0
 76
0
 77
1
 78
12
 79
3
170
0
171
3
172
1
173
0
174
0
175
0
176
0
177
0
178
0
179
2
271
2
272
2
273
2
274
3
275
0
276
0
277
2
278
46
279
2
280
0
281
0
282
0
283
0
284
8
285
0
286
0
288
1
289
3
290
0
340
4C
371
-2
372
-2
  0
DIMSTYLE
105
82
330
4
100
AcDbSymbolTableRecord
100
AcDbDimStyleTableRecord
  2
EZ_M_1_H25_CM
 70
0
 40
1.0
 41
0.0025
 42
0.00125
 43
3.75
 44
0.00375
 45
0.0
 46
0.0
 47
0.0
 48
0.0
 49
2.5
140
0.0025
141
2.5
142
0.00125
143
0.03937007874
144
100.0
145
0.0
146
0.5
147
0.001
148
0.0
 69
0
 70
0
 71
0
 72
0
 73
0
 74
0
 75
0
 76
0
 77
1
 78
12
 79
3
170
0
171
3
172
1
173
0
174
0
175
0
176
0
177
0
178
0
179
2
271
2
272
2
273
2
274
3
275
0
276
0
277
2
278
46
279
2
280
0
281
0
282
0
283
0
284
8
285
0
286
0
288
1
289
3
290
0
340
4C
371
-2
372
-2
  0
DIMSTYLE
105
83
330
4
100
AcDbSymbolTableRecord
100
AcDbDimStyleTableRecord
  2
EZ_RADIUS
 70
0
 40
1.0
 41
0.25
 42
0.125
 43
3.75
 44
0.375
 45
0.0
 46
0.0
 47
0.0
 48
0.0
 49
2.5
140
0.25
141
0.0
142
0.0
143
0.03937007874
144
100.0
145
0.0
146
0.5
147
0.1
148
0.0
 69
0
 70
0
 71
0
 72
0
 73
0
 74
0
 75
0
 76
0
 77
1
 78
12
 79
3
170
0
171
3
172
0
173
0
174
0
175
0
176
0
177
0
178
0
179
2
271
2
272
2
273
2
274
3
275
0
276
0
277
2
278
46
279
1
280
0
281
0
282
0
283
0
284
8
285
0
286
0
288
1
289
3
290
0
340
4C
342
84
371
-2
372
-2
  0
DIMSTYLE
105
88
330
4
100
AcDbSymbolTableRecord
100
AcDbDimStyleTableRecord
  2
EZ_RADIUS_INSIDE
 70
0
 40
1.0
 41
0.25
 42
0.125
 43
3.75
 44
0.375
 45
0.0
 46
0.0
 47
0.0
 48
0.0
 49
2.5
140
0.25
141
0.0
142
0.0
143
0.03937007874
144
100.0
145
0.0
146
0.5
147
0.1
148
0.0
 69
0
 70
0
 71
0
 72
0
 73
0
 74
0
 75
0
 76
0
 77
0
 78
12
 79
3
170
0
171
3
172
0
173
0
174
1
175
0
176
0
177
0
178
0
179
2
271
2
272
2
273
2
274
3
275
0
276
0
277
2
278
46
279
0
280
0
281
0
282
0
283
0
284
8
285
0
286
0
288
1
289
0
290
0
340
4C
342
84
371
-2
372
-2
  0
DIMSTYLE
105
89
330
4
100
AcDbSymbolTableRecord
100
AcDbDimStyleTableRecord
  2
EZ_CURVED
 70
0
 40
1.0
 41
0.25
 42
0.125
 43
3.75
 44
0.375
 45
0.0
 46
0.0
 47
0.0
 48
0.0
 49
2.5
140
0.25
141
2.5
142
0.0
143
0.03937007874
144
100.0
145
0.0
146
0.5
147
0.1
148
0.0
 69
0
 70
0
 71
0
 72
0
 73
0
 74
0
 75
0
 76
0
 77
1
 78
12
 79
2
 90
2
170
0
171
3
172
1
173
0
174
0
175
0
176
0
177
0
178
0
179
2
271
2
272
2
273
2
274
3
275
0
276
0
277
2
278
46
279
2
280
0
281
0
282
0
283
0
284
8
285
0
286
0
288
1
289
3
290
0
340
4C
371
-2
372
-2
  0
ENDTAB
  0
TABLE
  2
BLOCK_RECORD
  5
9
330
0
100
AcDbSymbolTable
 70
15
  0
BLOCK_RECORD
  5
17
330
9
100
AcDbSymbolTableRecord
100
AcDbBlockTableRecord
  2
*Model_Space
340
1A
 70
0
280
1
281
0
  0
BLOCK_RECORD
  5
1B
330
9
100
AcDbSymbolTableRecord
100
AcDbBlockTableRecord
  2
*Paper_Space
340
1E
 70
0
280
1
281
0
  0
BLOCK_RECORD
  5
74
330
9
100
AcDbSymbolTableRecord
100
AcDbBlockTableRecord
  2
_ARCHTICK
340
0
 70
0
280
1
281
0
  0
BLOCK_RECORD
  5
78
330
9
100
AcDbSymbolTableRecord
100
AcDbBlockTableRecord
  2
_CLOSEDFILLED
340
0
 70
0
280
1
281
0
  0
BLOCK_RECORD
  5
84
330
9
100
AcDbSymbolTableRecord
100
AcDbBlockTableRecord
  2
_CLOSEDBLANK
340
0
 70
0
280
1
281
0
  0
BLOCK_RECORD
  5
92
330
9
100
AcDbSymbolTableRecord
100
AcDbBlockTableRecord
  2
P01_DELANTERO
340
0
 70
0
280
1
281
0
  0
BLOCK_RECORD
  5
A4
330
9
100
AcDbSymbolTableRecord
100
AcDbBlockTableRecord
  2
P02_ESPALDA
340
0
 70
0
280
1
281
0
  0
BLOCK_RECORD
  5
B3
330
9
100
AcDbSymbolTableRecord
100
AcDbBlockTableRecord
  2
P03_CANESU
340
0
 70
0
280
1
281
0
  0
BLOCK_RECORD
  5
C2
330
9
100
AcDbSymbolTableRecord
100
AcDbBlockTableRecord
  2
P04_MANGA
340
0
 70
0
280
1
281
0
  0
BLOCK_RECORD
  5
D5
330
9
100
AcDbSymbolTableRecord
100
AcDbBlockTableRecord
  2
P05_PUNO
340
0
 70
0
280
1
281
0
  0
BLOCK_RECORD
  5
E4
330
9
100
AcDbSymbolTableRecord
100
AcDbBlockTableRecord
  2
P06_TAPETA_MANGA
340
0
 70
0
280
1
281
0
  0
BLOCK_RECORD
  5
F2
330
9
100
AcDbSymbolTableRecord
100
AcDbBlockTableRecord
  2
P07_CUELLO
340
0
 70
0
280
1
281
0
  0
BLOCK_RECORD
  5
100
330
9
100
AcDbSymbolTableRecord
100
AcDbBlockTableRecord
  2
P08_PIE_DE_CUELLO
340
0
 70
0
280
1
281
0
  0
BLOCK_RECORD
  5
10E
330
9
100
AcDbSymbolTableRecord
100
AcDbBlockTableRecord
  2
P09_VISTA_DELANTERA
340
0
 70
0
280
1
281
0
  0
BLOCK_RECORD
  5
11C
330
9
100
AcDbSymbolTableRecord
100
AcDbBlockTableRecord
  2
P10_BOLSILLO
340
0
 70
0
280
1
281
0
  0
ENDTAB
  0
ENDSEC
  0
SECTION
  2
BLOCKS
  0
BLOCK
  5
18
330
17
100
AcDbEntity
  8
0
100
AcDbBlockBegin
  2
*Model_Space
 70
0
 10
0.0
 20
0.0
 30
0.0
  3
*Model_Space
  1

  0
ENDBLK
  5
19
330
17
100
AcDbEntity
  8
0
100
AcDbBlockEnd
  0
BLOCK
  5
1C
330
1B
100
AcDbEntity
  8
0
100
AcDbBlockBegin
  2
*Paper_Space
 70
0
 10
0.0
 20
0.0
 30
0.0
  3
*Paper_Space
  1

  0
ENDBLK
  5
1D
330
1B
100
AcDbEntity
  8
0
100
AcDbBlockEnd
  0
BLOCK
  5
75
330
74
100
AcDbEntity
  8
0
100
AcDbBlockBegin
  2
_ARCHTICK
 70
0
 10
0.0
 20
0.0
 30
0.0
  3
_ARCHTICK
  1

  0
LWPOLYLINE
  5
77
330
74
100
AcDbEntity
  8
0
  6
BYBLOCK
 62
0
100
AcDbPolyline
 90
2
 70
0
 43
0.15
 10
-0.5
 20
-0.5
 10
0.5
 20
0.5
  0
ENDBLK
  5
76
330
74
100
AcDbEntity
  8
0
100
AcDbBlockEnd
  0
BLOCK
  5
79
330
78
100
AcDbEntity
  8
0
100
AcDbBlockBegin
  2
_CLOSEDFILLED
 70
0
 10
0.0
 20
0.0
 30
0.0
  3
_CLOSEDFILLED
  1

  0
SOLID
  5
7B
330
78
100
AcDbEntity
  8
0
  6
BYBLOCK
 62
0
100
AcDbTrace
 10
-1.0
 20
0.16439898372402537
 30
0.0
 11
0.0
 21
0.0
 31
0.0
 12
-1.0
 22
-0.16439898372402537
 32
0.0
 13
-1.0
 23
-0.16439898372402537
 33
0.0
  0
ENDBLK
  5
7A
330
78
100
AcDbEntity
  8
0
100
AcDbBlockEnd
  0
BLOCK
  5
85
330
84
100
AcDbEntity
  8
0
100
AcDbBlockBegin
  2
_CLOSEDBLANK
 70
0
 10
0.0
 20
0.0
 30
0.0
  3
_CLOSEDBLANK
  1

  0
LWPOLYLINE
  5
87
330
84
100
AcDbEntity
  8
0
  6
BYBLOCK
 62
0
100
AcDbPolyline
 90
3
 70
1
 10
-1.0
 20
0.16439898372402537
 10
0.0
 20
0.0
 10
-1.0
 20
-0.16439898372402537
  0
ENDBLK
  5
86
330
84
100
AcDbEntity
  8
0
100
AcDbBlockEnd
  0
BLOCK
  5
93
330
92
100
AcDbEntity
  8
0
100
AcDbBlockBegin
  2
P01_DELANTERO
 70
0
 10
0.0
 20
0.0
 30
0.0
  3
P01_DELANTERO
  1

  0
LWPOLYLINE
  5
95
330
92
100
AcDbEntity
  8
1
100
AcDbPolyline
 90
78
 70
1
 10
-2.7
 20
-69.0
 10
25.0
 20
-69.0
 10
25.0
 20
-22.706734
 10
24.556921
 20
-22.016282
 10
24.271815
 20
-21.572511
 10
23.985459
 20
-21.127811
 10
23.697579
 20
-20.68227
 10
23.407763
 20
-20.235758
 10
23.115597
 20
-19.788147
 10
22.82067
 20
-19.339311
 10
22.52257
 20
-18.889126
 10
22.220965
 20
-18.437588
 10
21.916524
 20
-17.985895
 10
21.612152
 20
-17.535653
 10
21.310988
 20
-17.087176
 10
21.015676
 20
-16.640123
 10
20.728826
 20
-16.194224
 10
20.453018
 20
-15.749283
 10
20.190788
 20
-15.305174
 10
19.944604
 20
-14.861832
 10
19.716849
 20
-14.419235
 10
19.509793
 20
-13.977384
 10
19.325568
 20
-13.536263
 10
19.166143
 20
-13.095782
 10
19.033297
 20
-12.655624
 10
18.928068
 20
-12.213031
 10
18.849411
 20
-11.762899
 10
18.795209
 20
-11.30251
 10
18.763858
 20
-10.831813
 10
18.753743
 20
-10.351102
 10
18.763176
 20
-9.860841
 10
18.790378
 20
-9.361608
 10
18.833471
 20
-8.854051
 10
18.890487
 20
-8.338848
 10
18.959371
 20
-7.816684
 10
19.037998
 20
-7.288226
 10
19.12418
 20
-6.754113
 10
19.215675
 20
-6.214947
 10
19.438703
 20
-4.932116
 10
6.814619
 20
1.253419
 10
6.113661
 20
0.364034
 10
5.912329
 20
0.108024
 10
5.710888
 20
-0.149247
 10
5.509615
 20
-0.407996
 10
5.308791
 20
-0.668441
 10
5.108698
 20
-0.930804
 10
4.909625
 20
-1.195305
 10
4.711859
 20
-1.46217
 10
4.515695
 20
-1.731621
 10
4.321428
 20
-2.003884
 10
4.129358
 20
-2.279185
 10
3.939791
 20
-2.557748
 10
3.753034
 20
-2.839798
 10
3.569574
 20
-3.125284
 10
3.390569
 20
-3.412644
 10
3.216335
 20
-3.699449
 10
3.046062
 20
-3.984436
 10
2.878716
 20
-4.266784
 10
2.713305
 20
-4.545685
 10
2.548885
 20
-4.820341
 10
2.384552
 20
-5.089967
 10
2.219448
 20
-5.353796
 10
2.052755
 20
-5.611081
 10
1.883692
 20
-5.861109
 10
1.71151
 20
-6.10321
 10
1.535482
 20
-6.336767
 10
1.354869
 20
-6.561256
 10
1.167871
 20
-6.777474
 10
0.971651
 20
-6.988453
 10
0.765174
 20
-7.196762
 10
0.549131
 20
-7.403201
 10
0.324428
 20
-7.608447
 10
0.092037
 20
-7.813207
 10
-0.147019
 20
-8.018232
 10
-0.517202
 20
-8.330057
 10
-0.560058
 20
-8.4
 10
-2.7
 20
-8.4
 10
-2.7
 20
-69.0
  0
LWPOLYLINE
  5
96
330
92
100
AcDbEntity
  8
8
100
AcDbPolyline
 90
77
 70
1
 10
-1.7
 20
-9.4
 10
0.0
 20
-9.4
 10
0.2508739606478579
 20
-8.990567010277546
 10
0.500622111835088
 20
-8.780190515583907
 10
0.7481186441010651
 20
-8.567927010947892
 10
0.9922377479851628
 20
-8.352832991398314
 10
1.2318536140267546
 20
-8.133964951963987
 10
1.4658404327652141
 20
-7.91037938767372
 10
1.6930723947399149
 20
-7.68113279355633
 10
1.9124236904902305
 20
-7.445281664640625
 10
2.1228627980921893
 20
-7.201960797370921
 10
2.324541311190337
 20
-6.951287510664872
 10
2.518417586610294
 20
-6.694049102753349
 10
2.705465522025081
 20
-6.431045777818461
 10
2.886659015107722
 20
-6.163077740042314
 10
3.0629719635312393
 20
-5.890945193607015
 10
3.2353782649686553
 20
-5.615448342694669
 10
3.4048518170929922
 20
-5.337387391487387
 10
3.572366517577273
 20
-5.057562544167272
 10
3.7388962640945205
 20
-4.776774004916432
 10
3.905414954317757
 20
-4.495821977916973
 10
4.072896485920004
 20
-4.215506667351004
 10
4.2423147565742845
 20
-3.93662827740063
 10
4.414643584302775
 20
-3.6599869475047417
 10
4.590601016213617
 20
-3.3861749168446855
 10
4.7700815015997815
 20
-3.1151149731963126
 10
4.952814036347784
 20
-2.8465954175587243
 10
5.13852761634414
 20
-2.580404550931022
 10
5.3269512374753605
 20
-2.3163306743123067
 10
5.517813895627959
 20
-2.0541620887016796
 10
5.71084458668845
 20
-1.7936870950982424
 10
5.905772306543347
 20
-1.534693994501096
 10
6.102326051079164
 20
-1.2769710879093417
 10
6.300234816182411
 20
-1.0203066763220812
 10
6.499227597739606
 20
-0.7644890607384154
 10
6.6990333916372595
 20
-0.5093065421574458
 10
6.899381193761887
 20
-0.25454742157827354
 10
7.1000000000000005
 20
-0.0
 10
18.324972160321824
 20
-5.5
 10
18.230107323608458
 20
-6.045650653064262
 10
18.137595420766246
 20
-6.590810861647165
 10
18.049789385666372
 20
-7.134990181267346
 10
17.96904215217998
 20
-7.677698167443449
 10
17.897706654178243
 20
-8.218444375694109
 10
17.838135825532323
 20
-8.75673836153797
 10
17.792682600113384
 20
-9.292089680493671
 10
17.763699911792585
 20
-9.824007888079853
 10
17.75354069444109
 20
-10.352002539815151
 10
17.764557881930063
 20
-10.875583191218212
 10
17.799104408130674
 20
-11.39425939780767
 10
17.859533206914076
 20
-11.907540715102167
 10
17.948197212151438
 20
-12.414936698620345
 10
18.067322564819342
 20
-12.915979376956436
 10
18.216619992058263
 20
-13.410646616663321
 10
18.393489184792593
 20
-13.899325897874805
 10
18.595244008614294
 20
-14.382419912611699
 10
18.81919832911533
 20
-14.860331352894796
 10
19.06266601188766
 20
-15.333462910744903
 10
19.322960922523254
 20
-15.802217278182821
 10
19.59739692661407
 20
-16.26699714722935
 10
19.883287889752065
 20
-16.728205209905294
 10
20.17794767752921
 20
-17.186244158231446
 10
20.478690155537464
 20
-17.64151668422862
 10
20.782829189368787
 20
-18.09442547991761
 10
21.087678644615142
 20
-18.545373237319225
 10
21.390566366575275
 20
-18.994761451732277
 10
21.689900151830614
 20
-19.442899170062294
 10
21.98591744948308
 20
-19.88993881322751
 10
22.279032820483028
 20
-20.336017640623524
 10
22.569660825780815
 20
-20.781272911645935
 10
22.858216026326804
 20
-21.225841885690347
 10
23.145112983071368
 20
-21.66986182215236
 10
23.43076625696484
 20
-22.113469980427578
 10
23.7155904089576
 20
-22.556803619911587
 10
24.0
 20
-23.0
 10
24.0
 20
-68.0
 10
-1.7
 20
-68.0
  0
LINE
  5
97
330
92
100
AcDbEntity
  8
7
100
AcDbLine
 10
12.0
 20
-12.4
 30
0.0
 11
12.0
 21
-65.0
 31
0.0
  0
LINE
  5
98
330
92
100
AcDbEntity
  8
7
100
AcDbLine
 10
12.0
 20
-65.0
 30
0.0
 11
11.53269798922962
 21
-63.89472680719654
 31
0.0
  0
LINE
  5
99
330
92
100
AcDbEntity
  8
7
100
AcDbLine
 10
12.0
 20
-65.0
 30
0.0
 11
12.46730201077038
 21
-63.89472680719654
 31
0.0
  0
LINE
  5
9A
330
92
100
AcDbEntity
  8
7
100
AcDbLine
 10
12.0
 20
-12.4
 30
0.0
 11
12.46730201077038
 21
-13.505273192803463
 31
0.0
  0
LINE
  5
9B
330
92
100
AcDbEntity
  8
7
100
AcDbLine
 10
12.0
 20
-12.4
 30
0.0
 11
11.53269798922962
 21
-13.505273192803463
 31
0.0
  0
LINE
  5
9C
330
92
100
AcDbEntity
  8
4
100
AcDbLine
 10
17.907032165803834
 20
-12.179362193248101
 30
0.0
 11
17.215312296463708
 21
-12.072014056980716
 31
0.0
  0
LINE
  5
9D
330
92
100
AcDbEntity
  8
4
100
AcDbLine
 10
24.0
 20
-42.7
 30
0.0
 11
23.7424132600173
 21
-42.04911669910415
 31
0.0
  0
CIRCLE
  5
9E
330
92
100
AcDbEntity
  8
6
100
AcDbCircle
 10
13.200000000000001
 20
-25.0
 30
0.0
 40
0.15
  0
LINE
  5
9F
330
92
100
AcDbEntity
  8
11
100
AcDbLine
 10
0.0
 20
-9.4
 30
0.0
 11
0.0
 21
-68.0
 31
0.0
  0
TEXT
  5
A0
330
92
100
AcDbEntity
  8
13
100
AcDbText
 10
11.529806393632013
 20
-10.18967932950147
 30
0.0
 40
0.9
  1
DELANTERO #01
 72
1
 11
11.529806393632013
 21
-10.18967932950147
 31
0.0
100
AcDbText
 73
2
  0
TEXT
  5
A1
330
92
100
AcDbEntity
  8
15
100
AcDbText
 10
11.529806393632013
 20
-11.58967932950147
 30
0.0
 40
0.6
  1
T:S  x2
 72
1
 11
11.529806393632013
 21
-11.58967932950147
 31
0.0
100
AcDbText
 73
2
  0
ENDBLK
  5
94
330
92
100
AcDbEntity
  8
0
100
AcDbBlockEnd
  0
BLOCK
  5
A5
330
A4
100
AcDbEntity
  8
0
100
AcDbBlockBegin
  2
P02_ESPALDA
 70
0
 10
0.0
 20
0.0
 30
0.0
  3
P02_ESPALDA
  1

  0
LWPOLYLINE
  5
A7
330
A4
100
AcDbEntity
  8
1
100
AcDbPolyline
 90
31
 70
1
 10
25.0
 20
-22.682284
 10
24.480294
 20
-21.946966
 10
24.143131
 20
-21.470631
 10
23.803697
 20
-20.992501
 10
23.461366
 20
-20.512403
 10
23.11531
 20
-20.02988
 10
22.764706
 20
-19.544484
 10
22.408731
 20
-19.055769
 10
22.046565
 20
-18.563293
 10
21.677642
 20
-18.066957
 10
21.303278
 20
-17.568272
 10
20.928727
 20
-17.0696
 10
20.558576
 20
-16.571183
 10
20.197327
 20
-16.073312
 10
19.849404
 20
-15.576348
 10
19.519198
 20
-15.080825
 10
19.211031
 20
-14.587457
 10
18.929101
 20
-14.097127
 10
18.677403
 20
-13.610879
 10
18.459631
 20
-13.129851
 10
18.279063
 20
-12.655163
 10
18.138459
 20
-12.187711
 10
18.04003
 20
-11.727819
 10
17.985233
 20
-11.272282
 10
17.973767
 20
-10.812177
 10
18.003435
 20
-10.34064
 10
18.194523
 20
-9.0
 10
0.0
 20
-9.0
 10
0.0
 20
-69.0
 10
25.0
 20
-69.0
 10
25.0
 20
-22.682284
  0
LWPOLYLINE
  5
A8
330
A4
100
AcDbEntity
  8
8
100
AcDbPolyline
 90
30
 70
1
 10
0.0
 20
-10.0
 10
17.04188132371213
 20
-10.0
 10
17.007882394293567
 20
-10.238531451376709
 10
16.972984006788284
 20
-10.793199750263039
 10
16.986724859412853
 20
-11.344614764636475
 10
17.052632576556608
 20
-11.89251887360885
 10
17.169120063848442
 20
-12.43678568137023
 10
17.331718987353103
 20
-12.977362714237195
 10
17.535928723718573
 20
-13.514198326955285
 10
17.777248649592877
 20
-14.047240874270052
 10
18.051178141624018
 20
-14.576438710927047
 10
18.353216576459985
 20
-15.101740191671821
 10
18.678863330748797
 20
-15.62309367124992
 10
19.023617781138462
 20
-16.140447504406897
 10
19.382979304276972
 20
-16.653750045888305
 10
19.75244727681234
 20
-17.16294965043968
 10
20.127521075392565
 20
-17.667994672806586
 10
20.50370007666566
 20
-18.16883346773456
 10
20.87648398374023
 20
-18.665414422171146
 10
21.242465471373485
 20
-19.15779373347272
 10
21.601767846362048
 20
-19.646375859523886
 10
21.955225997786517
 20
-20.13163544848095
 10
22.303674814727472
 20
-20.614047148500212
 10
22.647949186265492
 20
-21.094085607737973
 10
22.988884001481168
 20
-21.572225474350528
 10
23.32731414945509
 20
-22.048941396494193
 10
23.66407451926784
 20
-22.524708022325242
 10
24.0
 20
-23.0
 10
24.0
 20
-68.0
 10
0.0
 20
-68.0
  0
LINE
  5
A9
330
A4
100
AcDbEntity
  8
7
100
AcDbLine
 10
0.5
 20
-13.0
 30
0.0
 11
0.5
 21
-65.0
 31
0.0
  0
LINE
  5
AA
330
A4
100
AcDbEntity
  8
7
100
AcDbLine
 10
0.5
 20
-65.0
 30
0.0
 11
0.032697989229619584
 21
-63.89472680719654
 31
0.0
  0
LINE
  5
AB
330
A4
100
AcDbEntity
  8
7
100
AcDbLine
 10
0.5
 20
-65.0
 30
0.0
 11
0.9673020107703805
 21
-63.89472680719654
 31
0.0
  0
LINE
  5
AC
330
A4
100
AcDbEntity
  8
7
100
AcDbLine
 10
0.5
 20
-13.0
 30
0.0
 11
0.9673020107703805
 21
-14.105273192803462
 31
0.0
  0
LINE
  5
AD
330
A4
100
AcDbEntity
  8
7
100
AcDbLine
 10
0.5
 20
-13.0
 30
0.0
 11
0.032697989229619584
 21
-14.105273192803462
 31
0.0
  0
LINE
  5
AE
330
A4
100
AcDbEntity
  8
4
100
AcDbLine
 10
8.520940661856065
 20
-10.0
 30
0.0
 11
9.023297025279662
 21
-10.48748136798017
 31
0.0
  0
TEXT
  5
AF
330
A4
100
AcDbEntity
  8
13
100
AcDbText
 10
18.57858283729515
 20
-18.75983091549665
 30
0.0
 40
0.9
  1
ESPALDA #02
 72
1
 11
18.57858283729515
 21
-18.75983091549665
 31
0.0
100
AcDbText
 73
2
  0
TEXT
  5
B0
330
A4
100
AcDbEntity
  8
15
100
AcDbText
 10
18.57858283729515
 20
-20.15983091549665
 30
0.0
 40
0.6
  1
T:S  x1  AL DOBLEZ
 72
1
 11
18.57858283729515
 21
-20.15983091549665
 31
0.0
100
AcDbText
 73
2
  0
ENDBLK
  5
A6
330
A4
100
AcDbEntity
  8
0
100
AcDbBlockEnd
  0
BLOCK
  5
B4
330
B3
100
AcDbEntity
  8
0
100
AcDbBlockBegin
  2
P03_CANESU
 70
0
 10
0.0
 20
0.0
 30
0.0
  3
P03_CANESU
  1

  0
LWPOLYLINE
  5
B6
330
B3
100
AcDbEntity
  8
1
100
AcDbPolyline
 90
45
 70
1
 10
18.072462
 20
-9.85636
 10
18.178899
 20
-9.359401
 10
18.320428
 20
-8.85043
 10
18.49431
 20
-8.330438
 10
18.697434
 20
-7.800539
 10
18.926389
 20
-7.261831
 10
19.177542
 20
-6.715328
 10
19.447101
 20
-6.161916
 10
19.731173
 20
-5.602346
 10
20.025795
 20
-5.037228
 10
20.87552
 20
-3.428442
 10
7.441537
 20
1.109023
 10
6.808316
 20
0.66685
 10
6.592112
 20
0.517275
 10
6.378277
 20
0.372083
 10
6.166257
 20
0.232144
 10
5.955516
 20
0.098275
 10
5.745524
 20
-0.028772
 10
5.535136
 20
-0.14866
 10
5.322331
 20
-0.261884
 10
5.106088
 20
-0.368957
 10
4.886609
 20
-0.469766
 10
4.664228
 20
-0.564138
 10
4.439281
 20
-0.651904
 10
4.212103
 20
-0.732902
 10
3.983033
 20
-0.806976
 10
3.752408
 20
-0.873979
 10
3.520567
 20
-0.933768
 10
3.287756
 20
-0.986228
 10
3.053347
 20
-1.031456
 10
2.816128
 20
-1.069979
 10
2.575617
 20
-1.102352
 10
2.33182
 20
-1.12905
 10
2.084776
 20
-1.15056
 10
1.834547
 20
-1.167385
 10
1.581212
 20
-1.180044
 10
1.324862
 20
-1.189076
 10
1.065593
 20
-1.195039
 10
0.803508
 20
-1.198508
 10
0.538707
 20
-1.200079
 10
0.27129
 20
-1.200366
 10
0.0
 20
-1.199999
 10
0.0
 20
-11.0
 10
17.909454
 20
-11.0
 10
18.072462
 20
-9.85636
  0
LWPOLYLINE
  5
B7
330
B3
100
AcDbEntity
  8
8
100
AcDbPolyline
 90
44
 70
1
 10
0.0
 20
-2.2
 10
0.27115004424985306
 20
-2.200367226914431
 10
0.5422107766384755
 20
-2.2000762182587428
 10
0.8130928853046371
 20
-2.1984687384628145
 10
1.0837070583871067
 20
-2.1948865519565266
 10
1.3539639840246545
 20
-2.188671423169761
 10
1.6237743503560496
 20
-2.1791651165323964
 10
1.8930488455200611
 20
-2.165709396474313
 10
2.161698157655459
 20
-2.1476460274253926
 10
2.4296329749010126
 20
-2.1243167738155138
 10
2.6967639853954912
 20
-2.0950634000745585
 10
2.9630018772776645
 20
-2.0592276706324055
 10
3.2282573386863023
 20
-2.016151349918936
 10
3.492440331326171
 20
-1.9651790380550482
 10
3.755391094897018
 20
-1.9059275003729423
 10
4.016823276133847
 20
-1.838507667583254
 10
4.276437136496448
 20
-1.76308272084834
 10
4.533932937444611
 20
-1.6798158413305568
 10
4.789010940438123
 20
-1.5888702101922618
 10
5.041371406936777
 20
-1.4904090085958122
 10
5.290714598400361
 20
-1.3845954177035638
 10
5.536740776288664
 20
-1.2715926186778745
 10
5.779150202061475
 20
-1.1515637926811009
 10
6.017643137178583
 20
-1.0246721208756
 10
6.251982042914016
 20
-0.8911355274058856
 10
6.482497497104369
 20
-0.751671944257809
 10
6.709824336016889
 20
-0.6072670857899668
 10
6.934600282707147
 20
-0.4589092070663114
 10
7.157463060230709
 20
-0.3075865631507959
 10
7.379050391643138
 20
-0.15428740910737454
 10
7.6000000000000005
 20
-0.0
 10
19.442719282327012
 20
-4.0
 10
19.140305074107555
 20
-4.572561363707252
 10
18.841944135898917
 20
-5.144851620371764
 10
18.551689737711925
 20
-5.7165996629507925
 10
18.27359514955739
 20
-6.287534384401598
 10
18.011713641446143
 20
-6.857384677681439
 10
17.770098483389003
 20
-7.425879435747572
 10
17.55280294539678
 20
-7.992747551557259
 10
17.363880297480307
 20
-8.557717918067757
 10
17.2073838096504
 20
-9.120519428236324
 10
17.087366751917877
 20
-9.680880975020225
 10
17.04188132371213
 20
-10.0
 10
0.0
 20
-10.0
  0
LINE
  5
B8
330
B3
100
AcDbEntity
  8
7
100
AcDbLine
 10
4.26
 20
-1.0
 30
0.0
 11
4.26
 21
-9.5
 31
0.0
  0
LINE
  5
B9
330
B3
100
AcDbEntity
  8
7
100
AcDbLine
 10
4.26
 20
-9.5
 30
0.0
 11
3.7926979892296195
 21
-8.394726807196538
 31
0.0
  0
LINE
  5
BA
330
B3
100
AcDbEntity
  8
7
100
AcDbLine
 10
4.26
 20
-9.5
 30
0.0
 11
4.72730201077038
 21
-8.394726807196538
 31
0.0
  0
LINE
  5
BB
330
B3
100
AcDbEntity
  8
7
100
AcDbLine
 10
4.26
 20
-1.0
 30
0.0
 11
4.72730201077038
 21
-2.105273192803462
 31
0.0
  0
LINE
  5
BC
330
B3
100
AcDbEntity
  8
7
100
AcDbLine
 10
4.26
 20
-1.0
 30
0.0
 11
3.7926979892296195
 21
-2.105273192803462
 31
0.0
  0
LINE
  5
BD
330
B3
100
AcDbEntity
  8
4
100
AcDbLine
 10
8.520940661856065
 20
-10.0
 30
0.0
 11
8.435326067090237
 21
-9.305255341033064
 31
0.0
  0
TEXT
  5
BE
330
B3
100
AcDbEntity
  8
13
100
AcDbText
 10
7.690699008163878
 20
-2.262761376933461
 30
0.0
 40
0.9
  1
CANESU #03
 72
1
 11
7.690699008163878
 21
-2.262761376933461
 31
0.0
100
AcDbText
 73
2
  0
TEXT
  5
BF
330
B3
100
AcDbEntity
  8
15
100
AcDbText
 10
7.690699008163878
 20
-3.662761376933461
 30
0.0
 40
0.6
  1
T:S  x2  AL DOBLEZ
 72
1
 11
7.690699008163878
 21
-3.662761376933461
 31
0.0
100
AcDbText
 73
2
  0
ENDBLK
  5
B5
330
B3
100
AcDbEntity
  8
0
100
AcDbBlockEnd
  0
BLOCK
  5
C3
330
C2
100
AcDbEntity
  8
0
100
AcDbBlockBegin
  2
P04_MANGA
 70
0
 10
0.0
 20
0.0
 30
0.0
  3
P04_MANGA
  1

  0
LWPOLYLINE
  5
C5
330
C2
100
AcDbEntity
  8
1
100
AcDbPolyline
 90
68
 70
1
 10
-12.909428
 20
-61.0
 10
12.909428
 20
-61.0
 10
17.6608
 20
-11.028775
 10
17.007543
 20
-10.203895
 10
16.598059
 20
-9.692517
 10
16.18013
 20
-9.181989
 10
15.751395
 20
-8.675274
 10
15.31141
 20
-8.176668
 10
14.86212
 20
-7.688293
 10
14.404659
 20
-7.209783
 10
13.939682
 20
-6.740228
 10
13.467825
 20
-6.278711
 10
12.989717
 20
-5.824316
 10
12.505973
 20
-5.376122
 10
12.017196
 20
-4.933211
 10
11.523981
 20
-4.494665
 10
11.026629
 20
-4.059322
 10
10.523588
 20
-3.625097
 10
10.011848
 20
-3.19259
 10
9.489572
 20
-2.764938
 10
8.95543
 20
-2.345839
 10
8.408012
 20
-1.939049
 10
7.845843
 20
-1.548411
 10
7.267409
 20
-1.177886
 10
6.671198
 20
-0.83159
 10
6.055761
 20
-0.513819
 10
5.420582
 20
-0.229423
 10
4.770043
 20
0.016272
 10
4.111612
 20
0.22454
 10
3.449117
 20
0.400616
 10
2.784709
 20
0.550144
 10
2.120329
 20
0.678595
 10
1.457813
 20
0.791252
 10
0.798959
 20
0.893201
 10
0.029737
 20
1.006393
 10
-0.756354
 20
0.937812
 10
-1.431358
 20
0.873994
 10
-2.11033
 20
0.79981
 10
-2.791709
 20
0.710131
 10
-3.47392
 20
0.599638
 10
-4.155305
 20
0.462818
 10
-4.834029
 20
0.293975
 10
-5.507469
 20
0.087424
 10
-6.169054
 20
-0.160356
 10
-6.812788
 20
-0.445953
 10
-7.437731
 20
-0.764277
 10
-8.044971
 20
-1.111081
 10
-8.635718
 20
-1.482297
 10
-9.211225
 20
-1.874021
 10
-9.772741
 20
-2.282479
 10
-10.321476
 20
-2.704001
 10
-10.85858
 20
-3.134989
 10
-11.385221
 20
-3.571973
 10
-11.904042
 20
-4.013038
 10
-12.417462
 20
-4.460092
 10
-12.924942
 20
-4.916065
 10
-13.42442
 20
-5.382778
 10
-13.913739
 20
-5.862042
 10
-14.390687
 20
-6.355685
 10
-14.85298
 20
-6.865545
 10
-15.298257
 20
-7.393444
 10
-15.724063
 20
-7.941167
 10
-16.127081
 20
-8.509344
 10
-16.502749
 20
-9.092914
 10
-16.853125
 20
-9.682126
 10
-17.184673
 20
-10.270738
 10
-17.651817
 20
-11.123247
 10
-12.909428
 20
-61.0
  0
LWPOLYLINE
  5
C6
330
C2
100
AcDbEntity
  8
8
100
AcDbPolyline
 90
67
 70
1
 10
-16.62723031609091
 20
-11.3344
 10
-16.310514557127004
 20
-10.756414000007664
 10
-15.987603931951694
 20
-10.183136839436902
 10
-15.652303574353589
 20
-9.619277357709286
 10
-15.298418618121284
 20
-9.069544394246401
 10
-14.921107987959356
 20
-8.537609874550308
 10
-14.52100689765291
 20
-8.022951250435987
 10
-14.100135086709203
 20
-7.523985518978872
 10
-13.660512294707196
 20
-7.039129677199478
 10
-13.20415826122584
 20
-6.566800722118311
 10
-12.733092725844099
 20
-6.105415650755883
 10
-12.24933542814093
 20
-5.653391460132702
 10
-11.754906107695286
 20
-5.209145147269279
 10
-11.251824504086128
 20
-4.7710937091861245
 10
-10.742066313852579
 20
-4.337731809235236
 10
-10.226333504003135
 20
-3.9098002295720664
 10
-9.703890030978622
 20
-3.4905755674509664
 10
-9.173922800322801
 20
-3.083470293139004
 10
-8.635618717579435
 20
-2.691896876903246
 10
-8.088164688292286
 20
-2.319267789010761
 10
-7.5307476180051145
 20
-1.968995499728616
 10
-6.9625544122616825
 20
-1.6444924793238793
 10
-6.382771976605751
 20
-1.349171198063618
 10
-5.790587216581083
 20
-1.0864441262149003
 10
-5.18519158617306
 20
-0.8597089547576979
 10
-4.566517712065494
 20
-0.6699550763990582
 10
-3.9360538082923013
 20
-0.5131173016459896
 10
-3.2954841648057145
 20
-0.38449332998341024
 10
-2.6464930715579658
 20
-0.2793808608962388
 10
-1.9907648185012876
 20
-0.19307759386939363
 10
-1.3299836955879123
 20
-0.12088122838779312
 10
-0.6658339927700723
 20
-0.058089463936355785
 10
0.0
 20
-0.0
 10
0.6497061130026938
 20
-0.0956050896384287
 10
1.2975265812089187
 20
-0.1958471816225706
 10
1.9415757598222063
 20
-0.30536327829813886
 10
2.579968004046088
 20
-0.42879038201084674
 10
3.210817669084095
 20
-0.5707654951064075
 10
3.8322391101397577
 20
-0.7359256199305341
 10
4.442346682416608
 20
-0.9289077588289398
 10
5.039255058812924
 20
-1.154348029962173
 10
5.62170646998059
 20
-1.415135977889219
 10
6.190382984828009
 20
-1.708762328860067
 10
6.746340326967591
 20
-2.031677880228336
 10
7.290634220011747
 20
-2.380333429347649
 10
7.824320387572886
 20
-2.7511797735716224
 10
8.34845455326342
 20
-3.1406677102538785
 10
8.864092440695755
 20
-3.5452480367480375
 10
9.3722897734823
 20
-3.9613715504077183
 10
9.874102275235476
 20
-4.385489048586542
 10
10.370585145514168
 20
-4.8140527626191645
 10
10.862411956140205
 20
-5.2445591815858235
 10
11.349201302523024
 20
-5.677391553528424
 10
11.830391007583014
 20
-6.113427778877923
 10
12.305418894240578
 20
-6.55354575806528
 10
12.773722785416103
 20
-6.998623391521452
 10
13.234740504029983
 20
-7.449538579677395
 10
13.687909873002612
 20
-7.907169222964072
 10
14.13266871525438
 20
-8.372393221812436
 10
14.568454853705688
 20
-8.846088476653446
 10
14.994706296924932
 20
-9.32913268132459
 10
15.411482211872965
 20
-9.82171229002019
 10
15.820848203829678
 20
-10.32178094526429
 10
16.225274247125515
 20
-10.826842298207396
 10
16.62723031609091
 20
-11.3344
 10
12.0
 20
-60.0
 10
-12.0
 20
-60.0
  0
LINE
  5
C7
330
C2
100
AcDbEntity
  8
7
100
AcDbLine
 10
0.0
 20
-4.53376
 30
0.0
 11
0.0
 21
-58.0
 31
0.0
  0
LINE
  5
C8
330
C2
100
AcDbEntity
  8
7
100
AcDbLine
 10
0.0
 20
-58.0
 30
0.0
 11
-0.4673020107703804
 21
-56.89472680719654
 31
0.0
  0
LINE
  5
C9
330
C2
100
AcDbEntity
  8
7
100
AcDbLine
 10
0.0
 20
-58.0
 30
0.0
 11
0.4673020107703805
 21
-56.89472680719654
 31
0.0
  0
LINE
  5
CA
330
C2
100
AcDbEntity
  8
7
100
AcDbLine
 10
0.0
 20
-4.53376
 30
0.0
 11
0.4673020107703805
 21
-5.639033192803462
 31
0.0
  0
LINE
  5
CB
330
C2
100
AcDbEntity
  8
7
100
AcDbLine
 10
0.0
 20
-4.53376
 30
0.0
 11
-0.4673020107703804
 21
-5.639033192803462
 31
0.0
  0
LINE
  5
CC
330
C2
100
AcDbEntity
  8
4
100
AcDbLine
 10
8.325804347246567
 20
-3.123836176298619
 30
0.0
 11
7.665625679008369
 21
-3.3565680520768177
 31
0.0
  0
LINE
  5
CD
330
C2
100
AcDbEntity
  8
4
100
AcDbLine
 10
-8.783915319052205
 20
-2.7997708624745754
 30
0.0
 11
-8.129732079172047
 21
-3.048857772327139
 31
0.0
  0
LINE
  5
CE
330
C2
100
AcDbEntity
  8
4
100
AcDbLine
 10
-10.111004836647677
 20
-3.8172569706333146
 30
0.0
 11
-9.428578153187058
 21
-3.9731217251512594
 31
0.0
  0
CIRCLE
  5
CF
330
C2
100
AcDbEntity
  8
6
100
AcDbCircle
 10
4.156807579022727
 20
-48.0
 30
0.0
 40
0.15
  0
LINE
  5
D0
330
C2
100
AcDbEntity
  8
11
100
AcDbLine
 10
4.156807579022727
 20
-60.0
 30
0.0
 11
4.156807579022727
 21
-48.0
 31
0.0
  0
TEXT
  5
D1
330
C2
100
AcDbEntity
  8
13
100
AcDbText
 10
-0.11648247307577375
 20
-5.0999839103575875
 30
0.0
 40
0.9
  1
MANGA #04
 72
1
 11
-0.11648247307577375
 21
-5.0999839103575875
 31
0.0
100
AcDbText
 73
2
  0
TEXT
  5
D2
330
C2
100
AcDbEntity
  8
15
100
AcDbText
 10
-0.11648247307577375
 20
-6.499983910357588
 30
0.0
 40
0.6
  1
T:S  x2
 72
1
 11
-0.11648247307577375
 21
-6.499983910357588
 31
0.0
100
AcDbText
 73
2
  0
ENDBLK
  5
C4
330
C2
100
AcDbEntity
  8
0
100
AcDbBlockEnd
  0
BLOCK
  5
D6
330
D5
100
AcDbEntity
  8
0
100
AcDbBlockBegin
  2
P05_PUNO
 70
0
 10
0.0
 20
0.0
 30
0.0
  3
P05_PUNO
  1

  0
LWPOLYLINE
  5
D8
330
D5
100
AcDbEntity
  8
1
100
AcDbPolyline
 90
37
 70
1
 10
-1.0
 20
-11.249127
 10
-0.970159
 20
-11.552107
 10
-0.867453
 20
-11.890682
 10
-0.700668
 20
-12.202715
 10
-0.476214
 20
-12.476214
 10
-0.202715
 20
-12.700668
 10
0.109318
 20
-12.867453
 10
0.447893
 20
-12.970159
 10
0.750873
 20
-13.0
 10
22.249127
 20
-13.0
 10
22.552107
 20
-12.970159
 10
22.890682
 20
-12.867453
 10
23.202715
 20
-12.700668
 10
23.476214
 20
-12.476214
 10
23.700668
 20
-12.202715
 10
23.867453
 20
-11.890682
 10
23.970159
 20
-11.552107
 10
24.0
 20
-11.249127
 10
24.0
 20
-0.750873
 10
23.970159
 20
-0.447893
 10
23.867453
 20
-0.109318
 10
23.700668
 20
0.202715
 10
23.476214
 20
0.476214
 10
23.202715
 20
0.700668
 10
22.890682
 20
0.867453
 10
22.552107
 20
0.970159
 10
22.249127
 20
1.0
 10
0.750873
 20
1.0
 10
0.447893
 20
0.970159
 10
0.109318
 20
0.867453
 10
-0.202715
 20
0.700668
 10
-0.476214
 20
0.476214
 10
-0.700668
 20
0.202715
 10
-0.867453
 20
-0.109318
 10
-0.970159
 20
-0.447893
 10
-1.0
 20
-0.750873
 10
-1.0
 20
-11.249127
  0
LWPOLYLINE
  5
D9
330
D5
100
AcDbEntity
  8
8
100
AcDbPolyline
 90
36
 70
1
 10
0.0
 20
-0.8000000000000002
 10
0.015371775677415656
 20
-0.6439277423870974
 10
0.060896373990970476
 20
-0.4938532541079283
 10
0.1348243101579636
 20
-0.35554381358431847
 10
0.23431457505076192
 20
-0.23431457505076203
 10
0.3555438135843183
 20
-0.1348243101579638
 10
0.49385325410792774
 20
-0.06089637399097081
 10
0.643927742387097
 20
-0.015371775677415767
 10
0.7999999999999999
 20
-0.0
 10
22.2
 20
-0.0
 10
22.3560722576129
 20
-0.015371775677415656
 10
22.50614674589207
 20
-0.06089637399097059
 10
22.64445618641568
 20
-0.13482431015796392
 10
22.765685424949236
 20
-0.23431457505076203
 10
22.865175689842037
 20
-0.35554381358431836
 10
22.93910362600903
 20
-0.49385325410792835
 10
22.984628224322584
 20
-0.6439277423870976
 10
23.0
 20
-0.8000000000000003
 10
23.0
 20
-11.2
 10
22.984628224322584
 20
-11.356072257612903
 10
22.93910362600903
 20
-11.506146745892071
 10
22.865175689842037
 20
-11.644456186415681
 10
22.765685424949236
 20
-11.765685424949238
 10
22.64445618641568
 20
-11.865175689842035
 10
22.50614674589207
 20
-11.939103626009029
 10
22.3560722576129
 20
-11.984628224322584
 10
22.2
 20
-12.0
 10
0.8
 20
-12.0
 10
0.6439277423870975
 20
-11.984628224322584
 10
0.49385325410792824
 20
-11.939103626009029
 10
0.35554381358431847
 20
-11.865175689842037
 10
0.23431457505076203
 20
-11.765685424949238
 10
0.1348243101579637
 20
-11.644456186415681
 10
0.06089637399097059
 20
-11.506146745892071
 10
0.015371775677415656
 20
-11.356072257612903
 10
0.0
 20
-11.2
  0
LINE
  5
DA
330
D5
100
AcDbEntity
  8
7
100
AcDbLine
 10
11.5
 20
-0.5
 30
0.0
 11
11.5
 21
-11.5
 31
0.0
  0
LINE
  5
DB
330
D5
100
AcDbEntity
  8
7
100
AcDbLine
 10
11.5
 20
-11.5
 30
0.0
 11
11.03269798922962
 21
-10.394726807196538
 31
0.0
  0
LINE
  5
DC
330
D5
100
AcDbEntity
  8
7
100
AcDbLine
 10
11.5
 20
-11.5
 30
0.0
 11
11.96730201077038
 21
-10.394726807196538
 31
0.0
  0
LINE
  5
DD
330
D5
100
AcDbEntity
  8
7
100
AcDbLine
 10
11.5
 20
-0.5
 30
0.0
 11
11.96730201077038
 21
-1.605273192803462
 31
0.0
  0
LINE
  5
DE
330
D5
100
AcDbEntity
  8
7
100
AcDbLine
 10
11.5
 20
-0.5
 30
0.0
 11
11.03269798922962
 21
-1.605273192803462
 31
0.0
  0
LINE
  5
DF
330
D5
100
AcDbEntity
  8
11
100
AcDbLine
 10
0.0
 20
-6.0
 30
0.0
 11
23.0
 21
-6.0
 31
0.0
  0
TEXT
  5
E0
330
D5
100
AcDbEntity
  8
13
100
AcDbText
 10
11.499999999999998
 20
-4.999999999999999
 30
0.0
 40
0.9
  1
PUNO #05
 72
1
 11
11.499999999999998
 21
-4.999999999999999
 31
0.0
100
AcDbText
 73
2
  0
TEXT
  5
E1
330
D5
100
AcDbEntity
  8
15
100
AcDbText
 10
11.499999999999998
 20
-6.3999999999999995
 30
0.0
 40
0.6
  1
T:S  x4
 72
1
 11
11.499999999999998
 21
-6.3999999999999995
 31
0.0
100
AcDbText
 73
2
  0
ENDBLK
  5
D7
330
D5
100
AcDbEntity
  8
0
100
AcDbBlockEnd
  0
BLOCK
  5
E5
330
E4
100
AcDbEntity
  8
0
100
AcDbBlockBegin
  2
P06_TAPETA_MANGA
 70
0
 10
0.0
 20
0.0
 30
0.0
  3
P06_TAPETA_MANGA
  1

  0
LWPOLYLINE
  5
E7
330
E4
100
AcDbEntity
  8
1
100
AcDbPolyline
 90
37
 70
1
 10
-1.0
 20
-2.649127
 10
-0.977845
 20
-2.87407
 10
-0.897902
 20
-3.137608
 10
-0.768081
 20
-3.380486
 10
-0.593371
 20
-3.593371
 10
-0.380486
 20
-3.768081
 10
-0.137608
 20
-3.897902
 10
0.12593
 20
-3.977845
 10
0.350873
 20
-4.0
 10
11.649127
 20
-4.0
 10
11.87407
 20
-3.977845
 10
12.137608
 20
-3.897902
 10
12.380486
 20
-3.768081
 10
12.593371
 20
-3.593371
 10
12.768081
 20
-3.380486
 10
12.897902
 20
-3.137608
 10
12.977845
 20
-2.87407
 10
13.0
 20
-2.649127
 10
13.0
 20
-0.350873
 10
12.977845
 20
-0.12593
 10
12.897902
 20
0.137608
 10
12.768081
 20
0.380486
 10
12.593371
 20
0.593371
 10
12.380486
 20
0.768081
 10
12.137608
 20
0.897902
 10
11.87407
 20
0.977845
 10
11.649127
 20
1.0
 10
0.350873
 20
1.0
 10
0.12593
 20
0.977845
 10
-0.137608
 20
0.897902
 10
-0.380486
 20
0.768081
 10
-0.593371
 20
0.593371
 10
-0.768081
 20
0.380486
 10
-0.897902
 20
0.137608
 10
-0.977845
 20
-0.12593
 10
-1.0
 20
-0.350873
 10
-1.0
 20
-2.649127
  0
LWPOLYLINE
  5
E8
330
E4
100
AcDbEntity
  8
8
100
AcDbPolyline
 90
36
 70
1
 10
0.0
 20
-0.4000000000000001
 10
0.007685887838707828
 20
-0.3219638711935487
 10
0.030448186995485238
 20
-0.24692662705396415
 10
0.0674121550789818
 20
-0.17777190679215923
 10
0.11715728752538096
 20
-0.11715728752538102
 10
0.17777190679215915
 20
-0.0674121550789819
 10
0.24692662705396387
 20
-0.030448186995485405
 10
0.3219638711935485
 20
-0.007685887838707883
 10
0.39999999999999997
 20
-0.0
 10
11.6
 20
-0.0
 10
11.67803612880645
 20
-0.007685887838707828
 10
11.753073372946035
 20
-0.030448186995485294
 10
11.82222809320784
 20
-0.06741215507898196
 10
11.882842712474618
 20
-0.11715728752538102
 10
11.932587844921018
 20
-0.17777190679215918
 10
11.969551813004514
 20
-0.24692662705396418
 10
11.992314112161292
 20
-0.3219638711935488
 10
12.0
 20
-0.40000000000000013
 10
12.0
 20
-2.6
 10
11.992314112161292
 20
-2.6780361288064514
 10
11.969551813004514
 20
-2.753073372946036
 10
11.932587844921018
 20
-2.822228093207841
 10
11.882842712474618
 20
-2.882842712474619
 10
11.82222809320784
 20
-2.9325878449210183
 10
11.753073372946035
 20
-2.969551813004515
 10
11.67803612880645
 20
-2.992314112161292
 10
11.6
 20
-3.0
 10
0.4
 20
-3.0
 10
0.32196387119354875
 20
-2.992314112161292
 10
0.24692662705396412
 20
-2.969551813004515
 10
0.17777190679215923
 20
-2.9325878449210183
 10
0.11715728752538102
 20
-2.882842712474619
 10
0.06741215507898185
 20
-2.822228093207841
 10
0.030448186995485294
 20
-2.753073372946036
 10
0.007685887838707828
 20
-2.6780361288064514
 10
0.0
 20
-2.6
  0
LINE
  5
E9
330
E4
100
AcDbEntity
  8
7
100
AcDbLine
 10
6.0
 20
-0.4
 30
0.0
 11
6.0
 21
-2.6
 31
0.0
  0
LINE
  5
EA
330
E4
100
AcDbEntity
  8
7
100
AcDbLine
 10
6.0
 20
-2.6
 30
0.0
 11
5.53269798922962
 21
-1.494726807196538
 31
0.0
  0
LINE
  5
EB
330
E4
100
AcDbEntity
  8
7
100
AcDbLine
 10
6.0
 20
-2.6
 30
0.0
 11
6.46730201077038
 21
-1.494726807196538
 31
0.0
  0
LINE
  5
EC
330
E4
100
AcDbEntity
  8
7
100
AcDbLine
 10
6.0
 20
-0.4
 30
0.0
 11
6.46730201077038
 21
-1.505273192803462
 31
0.0
  0
LINE
  5
ED
330
E4
100
AcDbEntity
  8
7
100
AcDbLine
 10
6.0
 20
-0.4
 30
0.0
 11
5.53269798922962
 21
-1.505273192803462
 31
0.0
  0
TEXT
  5
EE
330
E4
100
AcDbEntity
  8
13
100
AcDbText
 10
5.999999999999999
 20
-0.5
 30
0.0
 40
0.9
  1
TAPETA MANGA #06
 72
1
 11
5.999999999999999
 21
-0.5
 31
0.0
100
AcDbText
 73
2
  0
TEXT
  5
EF
330
E4
100
AcDbEntity
  8
15
100
AcDbText
 10
5.999999999999999
 20
-1.9
 30
0.0
 40
0.6
  1
T:S  x2
 72
1
 11
5.999999999999999
 21
-1.9
 31
0.0
100
AcDbText
 73
2
  0
ENDBLK
  5
E6
330
E4
100
AcDbEntity
  8
0
100
AcDbBlockEnd
  0
BLOCK
  5
F3
330
F2
100
AcDbEntity
  8
0
100
AcDbBlockBegin
  2
P07_CUELLO
 70
0
 10
0.0
 20
0.0
 30
0.0
  3
P07_CUELLO
  1

  0
LWPOLYLINE
  5
F5
330
F2
100
AcDbEntity
  8
1
100
AcDbPolyline
 90
84
 70
1
 10
0.810033
 20
-5.673853
 10
1.314226
 20
-5.763061
 10
1.818467
 20
-5.84718
 10
2.322755
 20
-5.926207
 10
2.827087
 20
-6.000143
 10
3.33146
 20
-6.068985
 10
3.835871
 20
-6.132733
 10
4.340319
 20
-6.191385
 10
4.8448
 20
-6.244941
 10
5.34931
 20
-6.293398
 10
5.853849
 20
-6.336758
 10
6.358411
 20
-6.375018
 10
6.862995
 20
-6.408178
 10
7.367598
 20
-6.436237
 10
7.872215
 20
-6.459196
 10
8.376846
 20
-6.477053
 10
8.881485
 20
-6.489808
 10
9.386131
 20
-6.497462
 10
9.89078
 20
-6.500013
 10
10.395428
 20
-6.497462
 10
10.900074
 20
-6.489808
 10
11.404713
 20
-6.477053
 10
11.909344
 20
-6.459196
 10
12.413961
 20
-6.436237
 10
12.918564
 20
-6.408178
 10
13.423148
 20
-6.375018
 10
13.92771
 20
-6.336758
 10
14.432249
 20
-6.293398
 10
14.936759
 20
-6.244941
 10
15.44124
 20
-6.191385
 10
15.945688
 20
-6.132733
 10
16.450099
 20
-6.068985
 10
16.954472
 20
-6.000143
 10
17.458804
 20
-5.926207
 10
17.963092
 20
-5.84718
 10
18.467333
 20
-5.763061
 10
18.971526
 20
-5.673853
 10
19.284551
 20
-5.615304
 10
21.33812
 20
-9.037919
 10
22.393338
 20
-8.638936
 10
20.581184
 20
1.176898
 10
19.098373
 20
0.884557
 10
18.613436
 20
0.793853
 10
18.128551
 20
0.708061
 10
17.643714
 20
0.62718
 10
17.158924
 20
0.551207
 10
16.674178
 20
0.480143
 10
16.189473
 20
0.413985
 10
15.704807
 20
0.352733
 10
15.220176
 20
0.296385
 10
14.735579
 20
0.244941
 10
14.251012
 20
0.198398
 10
13.766472
 20
0.156758
 10
13.281957
 20
0.120018
 10
12.797463
 20
0.088178
 10
12.312987
 20
0.061237
 10
11.828527
 20
0.039196
 10
11.34408
 20
0.022053
 10
10.859641
 20
0.009808
 10
10.375209
 20
0.002462
 10
9.89078
 20
1.3e-05
 10
9.40635
 20
0.002462
 10
8.921918
 20
0.009808
 10
8.43748
 20
0.022053
 10
7.953032
 20
0.039196
 10
7.468572
 20
0.061237
 10
6.984096
 20
0.088178
 10
6.499602
 20
0.120018
 10
6.015087
 20
0.156758
 10
5.530547
 20
0.198398
 10
5.04598
 20
0.244941
 10
4.561383
 20
0.296385
 10
4.076752
 20
0.352733
 10
3.592086
 20
0.413985
 10
3.107381
 20
0.480143
 10
2.622635
 20
0.551207
 10
2.137845
 20
0.62718
 10
1.653008
 20
0.708061
 10
1.168123
 20
0.793853
 10
0.683186
 20
0.884557
 10
0.0
 20
1.019249
 10
0.0
 20
-5.519249
 10
0.305892
 20
-5.579557
 10
0.810033
 20
-5.673853
  0
LWPOLYLINE
  5
F6
330
F2
100
AcDbEntity
  8
8
100
AcDbPolyline
 90
83
 70
1
 10
0.0
 20
-0.0
 10
0.494538976570364
 20
-0.09750000000000003
 10
0.989077953140728
 20
-0.18999999999999995
 10
1.483616929711092
 20
-0.2775000000000001
 10
1.978155906281456
 20
-0.3599999999999999
 10
2.47269488285182
 20
-0.4375
 10
2.967233859422184
 20
-0.51
 10
3.4617728359925475
 20
-0.5774999999999999
 10
3.956311812562912
 20
-0.64
 10
4.450850789133276
 20
-0.6975
 10
4.94538976570364
 20
-0.75
 10
5.439928742274004
 20
-0.7975000000000001
 10
5.934467718844368
 20
-0.84
 10
6.429006695414731
 20
-0.8775000000000001
 10
6.923545671985095
 20
-0.9099999999999999
 10
7.4180846485554595
 20
-0.9375
 10
7.912623625125824
 20
-0.96
 10
8.407162601696188
 20
-0.9775
 10
8.901701578266552
 20
-0.99
 10
9.396240554836915
 20
-0.9974999999999999
 10
9.89077953140728
 20
-1.0
 10
10.385318507977644
 20
-0.9974999999999999
 10
10.879857484548008
 20
-0.99
 10
11.374396461118371
 20
-0.9775
 10
11.868935437688735
 20
-0.96
 10
12.363474414259098
 20
-0.9375
 10
12.858013390829463
 20
-0.9099999999999999
 10
13.352552367399827
 20
-0.8775
 10
13.84709134397019
 20
-0.8400000000000001
 10
14.341630320540554
 20
-0.7975000000000001
 10
14.836169297110919
 20
-0.75
 10
15.330708273681283
 20
-0.6975
 10
15.825247250251648
 20
-0.6399999999999999
 10
16.31978622682201
 20
-0.5775000000000001
 10
16.814325203392375
 20
-0.51
 10
17.30886417996274
 20
-0.4375
 10
17.803403156533104
 20
-0.3599999999999999
 10
18.29794213310347
 20
-0.27749999999999986
 10
18.79248110967383
 20
-0.19000000000000017
 10
19.287020086244194
 20
-0.09750000000000003
 10
19.78155906281456
 20
-0.0
 10
20.981559062814558
 20
-6.5
 10
19.78155906281456
 20
-4.5
 10
19.287020086244194
 20
-4.5975
 10
18.79248110967383
 20
-4.69
 10
18.29794213310347
 20
-4.7775
 10
17.803403156533104
 20
-4.859999999999999
 10
17.30886417996274
 20
-4.9375
 10
16.814325203392375
 20
-5.01
 10
16.31978622682201
 20
-5.077500000000001
 10
15.825247250251648
 20
-5.14
 10
15.330708273681283
 20
-5.1975
 10
14.836169297110919
 20
-5.25
 10
14.341630320540554
 20
-5.2975
 10
13.84709134397019
 20
-5.34
 10
13.352552367399827
 20
-5.3774999999999995
 10
12.858013390829463
 20
-5.41
 10
12.363474414259098
 20
-5.4375
 10
11.868935437688735
 20
-5.46
 10
11.374396461118371
 20
-5.4775
 10
10.879857484548008
 20
-5.49
 10
10.385318507977644
 20
-5.4975
 10
9.89077953140728
 20
-5.5
 10
9.396240554836915
 20
-5.4975
 10
8.901701578266552
 20
-5.49
 10
8.407162601696188
 20
-5.4775
 10
7.912623625125824
 20
-5.46
 10
7.4180846485554595
 20
-5.4375
 10
6.923545671985095
 20
-5.41
 10
6.429006695414731
 20
-5.3775
 10
5.934467718844368
 20
-5.34
 10
5.439928742274004
 20
-5.2975
 10
4.94538976570364
 20
-5.25
 10
4.450850789133276
 20
-5.1975
 10
3.956311812562912
 20
-5.14
 10
3.4617728359925475
 20
-5.0775
 10
2.967233859422184
 20
-5.01
 10
2.47269488285182
 20
-4.9375
 10
1.978155906281456
 20
-4.859999999999999
 10
1.483616929711092
 20
-4.7775
 10
0.989077953140728
 20
-4.6899999999999995
 10
0.494538976570364
 20
-4.5975
 10
0.0
 20
-4.5
  0
LINE
  5
F7
330
F2
100
AcDbEntity
  8
7
100
AcDbLine
 10
0.5
 20
-0.5
 30
0.0
 11
19.28155906281456
 21
-0.5
 31
0.0
  0
LINE
  5
F8
330
F2
100
AcDbEntity
  8
7
100
AcDbLine
 10
19.28155906281456
 20
-0.5
 30
0.0
 11
18.176285870011096
 21
-0.9673020107703804
 31
0.0
  0
LINE
  5
F9
330
F2
100
AcDbEntity
  8
7
100
AcDbLine
 10
19.28155906281456
 20
-0.5
 30
0.0
 11
18.176285870011096
 21
-0.03269798922961942
 31
0.0
  0
LINE
  5
FA
330
F2
100
AcDbEntity
  8
7
100
AcDbLine
 10
0.5
 20
-0.5
 30
0.0
 11
1.605273192803462
 21
-0.03269798922961942
 31
0.0
  0
LINE
  5
FB
330
F2
100
AcDbEntity
  8
7
100
AcDbLine
 10
0.5
 20
-0.5
 30
0.0
 11
1.605273192803462
 21
-0.9673020107703806
 31
0.0
  0
TEXT
  5
FC
330
F2
100
AcDbEntity
  8
13
100
AcDbText
 10
10.024403381183268
 20
-1.9433734939759035
 30
0.0
 40
0.9
  1
CUELLO #07
 72
1
 11
10.024403381183268
 21
-1.9433734939759035
 31
0.0
100
AcDbText
 73
2
  0
TEXT
  5
FD
330
F2
100
AcDbEntity
  8
15
100
AcDbText
 10
10.024403381183268
 20
-3.3433734939759034
 30
0.0
 40
0.6
  1
T:S  x2  AL DOBLEZ
 72
1
 11
10.024403381183268
 21
-3.3433734939759034
 31
0.0
100
AcDbText
 73
2
  0
ENDBLK
  5
F4
330
F2
100
AcDbEntity
  8
0
100
AcDbBlockEnd
  0
BLOCK
  5
101
330
100
100
AcDbEntity
  8
0
100
AcDbBlockBegin
  2
P08_PIE_DE_CUELLO
 70
0
 10
0.0
 20
0.0
 30
0.0
  3
P08_PIE_DE_CUELLO
  1

  0
LWPOLYLINE
  5
103
330
100
100
AcDbEntity
  8
1
100
AcDbPolyline
 90
83
 70
1
 10
0.941199
 20
-4.143139
 10
1.485501
 20
-4.214086
 10
2.029822
 20
-4.280981
 10
2.574163
 20
-4.343824
 10
3.118521
 20
-4.402614
 10
3.662897
 20
-4.457352
 10
4.207288
 20
-4.508036
 10
4.751694
 20
-4.554667
 10
5.296114
 20
-4.597245
 10
5.840545
 20
-4.635768
 10
6.384988
 20
-4.670236
 10
6.92944
 20
-4.700651
 10
7.473901
 20
-4.72701
 10
8.018369
 20
-4.749314
 10
8.562844
 20
-4.767563
 10
9.107324
 20
-4.781757
 10
9.651807
 20
-4.791896
 10
10.196293
 20
-4.797979
 10
10.74078
 20
-4.800007
 10
11.285266
 20
-4.797979
 10
11.829752
 20
-4.791896
 10
12.374235
 20
-4.781757
 10
12.918715
 20
-4.767563
 10
13.46319
 20
-4.749314
 10
14.007658
 20
-4.72701
 10
14.552119
 20
-4.700651
 10
15.096571
 20
-4.670236
 10
15.641014
 20
-4.635768
 10
16.185446
 20
-4.597245
 10
16.729865
 20
-4.554667
 10
17.274271
 20
-4.508036
 10
17.818662
 20
-4.457352
 10
18.363038
 20
-4.402614
 10
18.907396
 20
-4.343824
 10
19.451737
 20
-4.280981
 10
19.996059
 20
-4.214086
 10
20.54036
 20
-4.143139
 10
21.08464
 20
-4.068141
 10
22.481559
 20
-3.865252
 10
22.481559
 20
1.155733
 10
20.8044
 20
0.912141
 10
20.274602
 20
0.839139
 10
19.744826
 20
0.770086
 10
19.215069
 20
0.704981
 10
18.685332
 20
0.643824
 10
18.155613
 20
0.586614
 10
17.62591
 20
0.533352
 10
17.096224
 20
0.484036
 10
16.566552
 20
0.438667
 10
16.036893
 20
0.397245
 10
15.507247
 20
0.359768
 10
14.977611
 20
0.326236
 10
14.447986
 20
0.296651
 10
13.918369
 20
0.27101
 10
13.388759
 20
0.249314
 10
12.859156
 20
0.231563
 10
12.329557
 20
0.217757
 10
11.799963
 20
0.207896
 10
11.270371
 20
0.201979
 10
10.74078
 20
0.200007
 10
10.211189
 20
0.201979
 10
9.681596
 20
0.207896
 10
9.152002
 20
0.217757
 10
8.622403
 20
0.231563
 10
8.0928
 20
0.249314
 10
7.56319
 20
0.27101
 10
7.033573
 20
0.296651
 10
6.503948
 20
0.326236
 10
5.974312
 20
0.359768
 10
5.444666
 20
0.397245
 10
4.915007
 20
0.438667
 10
4.385335
 20
0.484036
 10
3.855649
 20
0.533352
 10
3.325946
 20
0.586614
 10
2.796227
 20
0.643824
 10
2.26649
 20
0.704981
 10
1.736733
 20
0.770086
 10
1.206957
 20
0.839139
 10
0.677159
 20
0.912141
 10
0.0
 20
1.010492
 10
0.0
 20
-4.010492
 10
0.396919
 20
-4.068141
 10
0.941199
 20
-4.143139
  0
LWPOLYLINE
  5
104
330
100
100
AcDbEntity
  8
8
100
AcDbPolyline
 90
82
 70
1
 10
0.0
 20
-0.0
 10
0.5370389765703639
 20
-0.07800000000000007
 10
1.0740779531407278
 20
-0.1519999999999999
 10
1.6111169297110919
 20
-0.2220000000000001
 10
2.1481559062814557
 20
-0.2879999999999999
 10
2.6851948828518197
 20
-0.35000000000000003
 10
3.2222338594221838
 20
-0.4080000000000001
 10
3.7592728359925474
 20
-0.46199999999999997
 10
4.296311812562911
 20
-0.512
 10
4.833350789133275
 20
-0.558
 10
5.3703897657036395
 20
-0.6000000000000001
 10
5.9074287422740035
 20
-0.6380000000000001
 10
6.4444677188443675
 20
-0.672
 10
6.981506695414732
 20
-0.7020000000000001
 10
7.518545671985095
 20
-0.728
 10
8.05558464855546
 20
-0.75
 10
8.592623625125823
 20
-0.768
 10
9.129662601696188
 20
-0.782
 10
9.66670157826655
 20
-0.792
 10
10.203740554836914
 20
-0.798
 10
10.740779531407279
 20
-0.8
 10
11.277818507977644
 20
-0.798
 10
11.814857484548007
 20
-0.792
 10
12.35189646111837
 20
-0.782
 10
12.888935437688735
 20
-0.768
 10
13.425974414259098
 20
-0.75
 10
13.963013390829463
 20
-0.728
 10
14.500052367399828
 20
-0.702
 10
15.03709134397019
 20
-0.6720000000000002
 10
15.574130320540554
 20
-0.6380000000000001
 10
16.11116929711092
 20
-0.6000000000000001
 10
16.648208273681284
 20
-0.558
 10
17.185247250251646
 20
-0.512
 10
17.72228622682201
 20
-0.46200000000000013
 10
18.259325203392375
 20
-0.4080000000000001
 10
18.796364179962737
 20
-0.35000000000000003
 10
19.3334031565331
 20
-0.2879999999999999
 10
19.870442133103467
 20
-0.22199999999999986
 10
20.407481109673828
 20
-0.15200000000000014
 10
20.944520086244193
 20
-0.07800000000000007
 10
21.481559062814558
 20
-0.0
 10
21.481559062814558
 20
-3.0
 10
20.944520086244193
 20
-3.0780000000000003
 10
20.407481109673828
 20
-3.152
 10
19.870442133103467
 20
-3.222
 10
19.3334031565331
 20
-3.288
 10
18.796364179962737
 20
-3.35
 10
18.259325203392375
 20
-3.408
 10
17.72228622682201
 20
-3.462
 10
17.185247250251646
 20
-3.512
 10
16.648208273681284
 20
-3.558
 10
16.11116929711092
 20
-3.6
 10
15.574130320540554
 20
-3.638
 10
15.03709134397019
 20
-3.672
 10
14.500052367399828
 20
-3.702
 10
13.963013390829463
 20
-3.7279999999999998
 10
13.425974414259098
 20
-3.75
 10
12.888935437688735
 20
-3.768
 10
12.35189646111837
 20
-3.782
 10
11.814857484548007
 20
-3.792
 10
11.277818507977644
 20
-3.798
 10
10.740779531407279
 20
-3.8
 10
10.203740554836914
 20
-3.798
 10
9.66670157826655
 20
-3.792
 10
9.129662601696188
 20
-3.782
 10
8.592623625125823
 20
-3.768
 10
8.05558464855546
 20
-3.75
 10
7.518545671985095
 20
-3.7279999999999998
 10
6.981506695414732
 20
-3.702
 10
6.4444677188443675
 20
-3.672
 10
5.9074287422740035
 20
-3.638
 10
5.3703897657036395
 20
-3.6
 10
4.833350789133275
 20
-3.558
 10
4.296311812562911
 20
-3.512
 10
3.7592728359925474
 20
-3.4619999999999997
 10
3.2222338594221838
 20
-3.408
 10
2.6851948828518197
 20
-3.35
 10
2.1481559062814557
 20
-3.288
 10
1.6111169297110919
 20
-3.222
 10
1.0740779531407278
 20
-3.152
 10
0.5370389765703639
 20
-3.0780000000000003
 10
0.0
 20
-3.0
  0
LINE
  5
105
330
100
100
AcDbEntity
  8
7
100
AcDbLine
 10
0.5
 20
-0.4
 30
0.0
 11
20.981559062814558
 21
-0.4
 31
0.0
  0
LINE
  5
106
330
100
100
AcDbEntity
  8
7
100
AcDbLine
 10
20.981559062814558
 20
-0.4
 30
0.0
 11
19.876285870011095
 21
-0.8673020107703804
 31
0.0
  0
LINE
  5
107
330
100
100
AcDbEntity
  8
7
100
AcDbLine
 10
20.981559062814558
 20
-0.4
 30
0.0
 11
19.876285870011095
 21
0.06730201077038056
 31
0.0
  0
LINE
  5
108
330
100
100
AcDbEntity
  8
7
100
AcDbLine
 10
0.5
 20
-0.4
 30
0.0
 11
1.605273192803462
 21
0.06730201077038056
 31
0.0
  0
LINE
  5
109
330
100
100
AcDbEntity
  8
7
100
AcDbLine
 10
0.5
 20
-0.4
 30
0.0
 11
1.605273192803462
 21
-0.8673020107703806
 31
0.0
  0
TEXT
  5
10A
330
100
100
AcDbEntity
  8
13
100
AcDbText
 10
10.740779531407279
 20
-1.0199999999999996
 30
0.0
 40
0.9
  1
PIE DE CUELLO #08
 72
1
 11
10.740779531407279
 21
-1.0199999999999996
 31
0.0
100
AcDbText
 73
2
  0
TEXT
  5
10B
330
100
100
AcDbEntity
  8
15
100
AcDbText
 10
10.740779531407279
 20
-2.4199999999999995
 30
0.0
 40
0.6
  1
T:S  x2  AL DOBLEZ
 72
1
 11
10.740779531407279
 21
-2.4199999999999995
 31
0.0
100
AcDbText
 73
2
  0
ENDBLK
  5
102
330
100
100
AcDbEntity
  8
0
100
AcDbBlockEnd
  0
BLOCK
  5
10F
330
10E
100
AcDbEntity
  8
0
100
AcDbBlockBegin
  2
P09_VISTA_DELANTERA
 70
0
 10
0.0
 20
0.0
 30
0.0
  3
P09_VISTA_DELANTERA
  1

  0
LWPOLYLINE
  5
111
330
10E
100
AcDbEntity
  8
1
100
AcDbPolyline
 90
43
 70
1
 10
-2.7
 20
-69.0
 10
5.303604
 20
-69.0
 10
5.100589
 20
-12.56182
 10
9.324922
 20
0.005573
 10
6.81875
 20
1.258659
 10
6.113661
 20
0.364034
 10
5.912329
 20
0.108024
 10
5.710888
 20
-0.149247
 10
5.509615
 20
-0.407996
 10
5.308791
 20
-0.668441
 10
5.108698
 20
-0.930804
 10
4.909625
 20
-1.195305
 10
4.711859
 20
-1.46217
 10
4.515695
 20
-1.731621
 10
4.321428
 20
-2.003884
 10
4.129358
 20
-2.279185
 10
3.939791
 20
-2.557748
 10
3.753034
 20
-2.839798
 10
3.569574
 20
-3.125284
 10
3.390569
 20
-3.412644
 10
3.216335
 20
-3.699449
 10
3.046062
 20
-3.984436
 10
2.878716
 20
-4.266784
 10
2.713305
 20
-4.545685
 10
2.548885
 20
-4.820341
 10
2.384552
 20
-5.089967
 10
2.219448
 20
-5.353796
 10
2.052755
 20
-5.611081
 10
1.883692
 20
-5.861109
 10
1.71151
 20
-6.10321
 10
1.535482
 20
-6.336767
 10
1.354869
 20
-6.561256
 10
1.167871
 20
-6.777474
 10
0.971651
 20
-6.988453
 10
0.765174
 20
-7.196762
 10
0.549131
 20
-7.403201
 10
0.324428
 20
-7.608447
 10
0.092037
 20
-7.813207
 10
-0.147019
 20
-8.018232
 10
-0.517202
 20
-8.330057
 10
-0.560058
 20
-8.4
 10
-2.7
 20
-8.4
 10
-2.7
 20
-69.0
  0
LWPOLYLINE
  5
112
330
10E
100
AcDbEntity
  8
8
100
AcDbPolyline
 90
42
 70
1
 10
-1.7
 20
-9.4
 10
0.0
 20
-9.4
 10
0.2508739606478579
 20
-8.990567010277546
 10
0.500622111835088
 20
-8.780190515583907
 10
0.7481186441010651
 20
-8.567927010947892
 10
0.9922377479851628
 20
-8.352832991398314
 10
1.2318536140267546
 20
-8.133964951963987
 10
1.4658404327652141
 20
-7.91037938767372
 10
1.6930723947399149
 20
-7.68113279355633
 10
1.9124236904902305
 20
-7.445281664640625
 10
2.1228627980921893
 20
-7.201960797370921
 10
2.324541311190337
 20
-6.951287510664872
 10
2.518417586610294
 20
-6.694049102753349
 10
2.705465522025081
 20
-6.431045777818461
 10
2.886659015107722
 20
-6.163077740042314
 10
3.0629719635312393
 20
-5.890945193607015
 10
3.2353782649686553
 20
-5.615448342694669
 10
3.4048518170929922
 20
-5.337387391487387
 10
3.572366517577273
 20
-5.057562544167272
 10
3.7388962640945205
 20
-4.776774004916432
 10
3.905414954317757
 20
-4.495821977916973
 10
4.072896485920004
 20
-4.215506667351004
 10
4.2423147565742845
 20
-3.93662827740063
 10
4.414643584302775
 20
-3.6599869475047417
 10
4.590601016213617
 20
-3.3861749168446855
 10
4.7700815015997815
 20
-3.1151149731963126
 10
4.952814036347784
 20
-2.8465954175587243
 10
5.13852761634414
 20
-2.580404550931022
 10
5.3269512374753605
 20
-2.3163306743123067
 10
5.517813895627959
 20
-2.0541620887016796
 10
5.71084458668845
 20
-1.7936870950982424
 10
5.905772306543347
 20
-1.534693994501096
 10
6.102326051079164
 20
-1.2769710879093417
 10
6.300234816182411
 20
-1.0203066763220812
 10
6.499227597739606
 20
-0.7644890607384154
 10
6.6990333916372595
 20
-0.5093065421574458
 10
6.899381193761887
 20
-0.25454742157827354
 10
7.1000000000000005
 20
-0.0
 10
8.100000000000001
 20
-0.5
 10
4.1000000000000005
 20
-12.4
 10
4.3
 20
-68.0
 10
-1.7
 20
-68.0
  0
LINE
  5
113
330
10E
100
AcDbEntity
  8
7
100
AcDbLine
 10
1.3
 20
-14.4
 30
0.0
 11
1.3
 21
-65.0
 31
0.0
  0
LINE
  5
114
330
10E
100
AcDbEntity
  8
7
100
AcDbLine
 10
1.3
 20
-65.0
 30
0.0
 11
0.8326979892296196
 21
-63.89472680719654
 31
0.0
  0
LINE
  5
115
330
10E
100
AcDbEntity
  8
7
100
AcDbLine
 10
1.3
 20
-65.0
 30
0.0
 11
1.7673020107703805
 21
-63.89472680719654
 31
0.0
  0
LINE
  5
116
330
10E
100
AcDbEntity
  8
7
100
AcDbLine
 10
1.3
 20
-14.4
 30
0.0
 11
1.7673020107703805
 21
-15.505273192803463
 31
0.0
  0
LINE
  5
117
330
10E
100
AcDbEntity
  8
7
100
AcDbLine
 10
1.3
 20
-14.4
 30
0.0
 11
0.8326979892296196
 21
-15.505273192803463
 31
0.0
  0
TEXT
  5
118
330
10E
100
AcDbEntity
  8
13
100
AcDbText
 10
3.5622936353627894
 20
-6.939108169085428
 30
0.0
 40
0.9
  1
VISTA DELANTERA #09
 72
1
 11
3.5622936353627894
 21
-6.939108169085428
 31
0.0
100
AcDbText
 73
2
  0
TEXT
  5
119
330
10E
100
AcDbEntity
  8
15
100
AcDbText
 10
3.5622936353627894
 20
-8.339108169085428
 30
0.0
 40
0.6
  1
T:S  x2
 72
1
 11
3.5622936353627894
 21
-8.339108169085428
 31
0.0
100
AcDbText
 73
2
  0
ENDBLK
  5
110
330
10E
100
AcDbEntity
  8
0
100
AcDbBlockEnd
  0
BLOCK
  5
11D
330
11C
100
AcDbEntity
  8
0
100
AcDbBlockBegin
  2
P10_BOLSILLO
 70
0
 10
0.0
 20
0.0
 30
0.0
  3
P10_BOLSILLO
  1

  0
LWPOLYLINE
  5
11F
330
11C
100
AcDbEntity
  8
1
100
AcDbPolyline
 90
6
 70
1
 10
-1.0
 20
-10.271905
 10
6.0
 20
-14.681905
 10
13.0
 20
-10.271905
 10
13.0
 20
1.0
 10
-1.0
 20
1.0
 10
-1.0
 20
-10.271905
  0
LWPOLYLINE
  5
120
330
11C
100
AcDbEntity
  8
8
100
AcDbPolyline
 90
5
 70
1
 10
0.0
 20
-0.0
 10
12.0
 20
-0.0
 10
12.0
 20
-9.719999999999999
 10
6.0
 20
-13.5
 10
0.0
 20
-9.719999999999999
  0
LINE
  5
121
330
11C
100
AcDbEntity
  8
7
100
AcDbLine
 10
6.0
 20
-1.0
 30
0.0
 11
6.0
 21
-9.719999999999999
 31
0.0
  0
LINE
  5
122
330
11C
100
AcDbEntity
  8
7
100
AcDbLine
 10
6.0
 20
-9.719999999999999
 30
0.0
 11
5.53269798922962
 21
-8.614726807196536
 31
0.0
  0
LINE
  5
123
330
11C
100
AcDbEntity
  8
7
100
AcDbLine
 10
6.0
 20
-9.719999999999999
 30
0.0
 11
6.46730201077038
 21
-8.614726807196536
 31
0.0
  0
LINE
  5
124
330
11C
100
AcDbEntity
  8
7
100
AcDbLine
 10
6.0
 20
-1.0
 30
0.0
 11
6.46730201077038
 21
-2.105273192803462
 31
0.0
  0
LINE
  5
125
330
11C
100
AcDbEntity
  8
7
100
AcDbLine
 10
6.0
 20
-1.0
 30
0.0
 11
5.53269798922962
 21
-2.105273192803462
 31
0.0
  0
LINE
  5
126
330
11C
100
AcDbEntity
  8
11
100
AcDbLine
 10
0.0
 20
-7.219999999999999
 30
0.0
 11
12.0
 21
-7.219999999999999
 31
0.0
  0
TEXT
  5
127
330
11C
100
AcDbEntity
  8
13
100
AcDbText
 10
6.0
 20
-5.587999999999999
 30
0.0
 40
0.9
  1
BOLSILLO #10
 72
1
 11
6.0
 21
-5.587999999999999
 31
0.0
100
AcDbText
 73
2
  0
TEXT
  5
128
330
11C
100
AcDbEntity
  8
15
100
AcDbText
 10
6.0
 20
-6.9879999999999995
 30
0.0
 40
0.6
  1
T:S  x1
 72
1
 11
6.0
 21
-6.9879999999999995
 31
0.0
100
AcDbText
 73
2
  0
ENDBLK
  5
11E
330
11C
100
AcDbEntity
  8
0
100
AcDbBlockEnd
  0
ENDSEC
  0
SECTION
  2
ENTITIES
  0
INSERT
  5
A2
330
17
100
AcDbEntity
  8
0
100
AcDbBlockReference
  2
P01_DELANTERO
 10
1.7
 20
-0.0
 30
0.0
  0
INSERT
  5
B1
330
17
100
AcDbEntity
  8
0
100
AcDbBlockReference
  2
P02_ESPALDA
 10
31.7
 20
10.0
 30
0.0
  0
INSERT
  5
C0
330
17
100
AcDbEntity
  8
0
100
AcDbBlockReference
  2
P03_CANESU
 10
61.7
 20
-0.0
 30
0.0
  0
INSERT
  5
D3
330
17
100
AcDbEntity
  8
0
100
AcDbBlockReference
  2
P04_MANGA
 10
103.76994959841792
 20
-0.0
 30
0.0
  0
INSERT
  5
E2
330
17
100
AcDbEntity
  8
0
100
AcDbBlockReference
  2
P05_PUNO
 10
126.39717991450884
 20
-0.0
 30
0.0
  0
INSERT
  5
F0
330
17
100
AcDbEntity
  8
0
100
AcDbBlockReference
  2
P06_TAPETA_MANGA
 10
0.0
 20
-74.0
 30
0.0
  0
INSERT
  5
FE
330
17
100
AcDbEntity
  8
0
100
AcDbBlockReference
  2
P07_CUELLO
 10
18.0
 20
-74.0
 30
0.0
  0
INSERT
  5
10C
330
17
100
AcDbEntity
  8
0
100
AcDbBlockReference
  2
P08_PIE_DE_CUELLO
 10
44.981559062814554
 20
-74.0
 30
0.0
  0
INSERT
  5
11A
330
17
100
AcDbEntity
  8
0
100
AcDbBlockReference
  2
P09_VISTA_DELANTERA
 10
74.16311812562911
 20
-74.0
 30
0.0
  0
INSERT
  5
129
330
17
100
AcDbEntity
  8
0
100
AcDbBlockReference
  2
P10_BOLSILLO
 10
88.2631181256291
 20
-74.0
 30
0.0
  0
ENDSEC
  0
SECTION
  2
OBJECTS
  0
DICTIONARY
  5
A
330
0
100
AcDbDictionary
281
1
  3
ACAD_COLOR
350
B
  3
ACAD_GROUP
350
C
  3
ACAD_LAYOUT
350
D
  3
ACAD_MATERIAL
350
E
  3
ACAD_MLEADERSTYLE
350
F
  3
ACAD_MLINESTYLE
350
10
  3
ACAD_PLOTSETTINGS
350
11
  3
ACAD_PLOTSTYLENAME
350
12
  3
ACAD_SCALELIST
350
14
  3
ACAD_TABLESTYLE
350
15
  3
ACAD_VISUALSTYLE
350
16
  3
EZDXF_META
350
2D
  0
DICTIONARY
  5
B
330
A
100
AcDbDictionary
281
1
  0
DICTIONARY
  5
C
330
A
100
AcDbDictionary
281
1
  0
DICTIONARY
  5
D
330
A
100
AcDbDictionary
281
1
  3
Model
350
1A
  3
Layout1
350
1E
  0
DICTIONARY
  5
E
330
A
100
AcDbDictionary
281
1
  3
ByBlock
350
1F
  3
ByLayer
350
20
  3
Global
350
21
  0
DICTIONARY
  5
F
330
A
100
AcDbDictionary
281
1
  3
Standard
350
2C
  0
DICTIONARY
  5
10
330
A
100
AcDbDictionary
281
1
  3
Standard
350
22
  0
DICTIONARY
  5
11
330
A
100
AcDbDictionary
281
1
  0
ACDBDICTIONARYWDFLT
  5
12
330
A
100
AcDbDictionary
281
1
  3
Normal
350
13
100
AcDbDictionaryWithDefault
340
13
  0
ACDBPLACEHOLDER
  5
13
330
12
  0
DICTIONARY
  5
14
330
A
100
AcDbDictionary
281
1
  0
DICTIONARY
  5
15
330
A
100
AcDbDictionary
281
1
  0
DICTIONARY
  5
16
330
A
100
AcDbDictionary
281
1
  3
2dWireframe
350
5A
  3
Basic
350
5B
  3
Brighten
350
5C
  3
ColorChange
350
5D
  3
Conceptual
350
5E
  3
Dim
350
5F
  3
EdgeColorOff
350
60
  3
Facepattern
350
61
  3
Flat
350
62
  3
FlatWithEdges
350
63
  3
Gouraud
350
64
  3
GouraudWithEdges
350
65
  3
Hidden
350
66
  3
JitterOff
350
67
  3
Linepattern
350
68
  3
Modeling
350
69
  3
OverhangOff
350
6A
  3
Realistic
350
6B
  3
Shaded
350
6C
  3
Shaded with edges
350
6D
  3
Shades of Gray
350
6E
  3
Sketchy
350
6F
  3
Thicken
350
70
  3
Wireframe
350
71
  3
X-Ray
350
72
  0
LAYOUT
  5
1A
330
D
100
AcDbPlotSettings
  1

  4
A3
  6

 40
7.5
 41
20.0
 42
7.5
 43
20.0
 44
420.0
 45
297.0
 46
0.0
 47
0.0
 48
0.0
 49
0.0
140
0.0
141
0.0
142
1.0
143
1.0
 70
1024
 72
1
 73
0
 74
5
  7

 75
16
 76
0
 77
2
 78
300
147
1.0
148
0.0
149
0.0
100
AcDbLayout
  1
Model
 70
1
 71
0
 10
0.0
 20
0.0
 11
420.0
 21
297.0
 12
0.0
 22
0.0
 32
0.0
 14
1e+20
 24
1e+20
 34
1e+20
 15
-1e+20
 25
-1e+20
 35
-1e+20
146
0.0
 13
0.0
 23
0.0
 33
0.0
 16
1.0
 26
0.0
 36
0.0
 17
0.0
 27
1.0
 37
0.0
 76
1
330
17
  0
LAYOUT
  5
1E
330
D
100
AcDbPlotSettings
  1

  4
A3
  6

 40
7.5
 41
20.0
 42
7.5
 43
20.0
 44
420.0
 45
297.0
 46
0.0
 47
0.0
 48
0.0
 49
0.0
140
0.0
141
0.0
142
1.0
143
1.0
 70
0
 72
1
 73
0
 74
5
  7

 75
16
 76
0
 77
2
 78
300
147
1.0
148
0.0
149
0.0
100
AcDbLayout
  1
Layout1
 70
1
 71
1
 10
0.0
 20
0.0
 11
420.0
 21
297.0
 12
0.0
 22
0.0
 32
0.0
 14
1e+20
 24
1e+20
 34
1e+20
 15
-1e+20
 25
-1e+20
 35
-1e+20
146
0.0
 13
0.0
 23
0.0
 33
0.0
 16
1.0
 26
0.0
 36
0.0
 17
0.0
 27
1.0
 37
0.0
 76
1
330
1B
  0
MATERIAL
  5
1F
102
{ACAD_REACTORS
330
E
102
}
330
E
100
AcDbMaterial
  1
ByBlock
  2

 70
0
 40
1.0
 71
1
 41
1.0
 91
-1023410177
 42
1.0
 72
1
  3

 73
1
 74
1
 75
1
 44
0.5
 73
0
 45
1.0
 46
1.0
 77
1
  4

 78
1
 79
1
170
1
 48
1.0
171
1
  6

172
1
173
1
174
1
140
1.0
141
1.0
175
1
  7

176
1
177
1
178
1
143
1.0
179
1
  8

270
1
271
1
272
1
145
1.0
146
1.0
273
1
  9

274
1
275
1
276
1
 42
1.0
 72
1
  3

 73
1
 74
1
 75
1
 94
63
  0
MATERIAL
  5
20
102
{ACAD_REACTORS
330
E
102
}
330
E
100
AcDbMaterial
  1
ByLayer
  2

 70
0
 40
1.0
 71
1
 41
1.0
 91
-1023410177
 42
1.0
 72
1
  3

 73
1
 74
1
 75
1
 44
0.5
 73
0
 45
1.0
 46
1.0
 77
1
  4

 78
1
 79
1
170
1
 48
1.0
171
1
  6

172
1
173
1
174
1
140
1.0
141
1.0
175
1
  7

176
1
177
1
178
1
143
1.0
179
1
  8

270
1
271
1
272
1
145
1.0
146
1.0
273
1
  9

274
1
275
1
276
1
 42
1.0
 72
1
  3

 73
1
 74
1
 75
1
 94
63
  0
MATERIAL
  5
21
102
{ACAD_REACTORS
330
E
102
}
330
E
100
AcDbMaterial
  1
Global
  2

 70
0
 40
1.0
 71
1
 41
1.0
 91
-1023410177
 42
1.0
 72
1
  3

 73
1
 74
1
 75
1
 44
0.5
 73
0
 45
1.0
 46
1.0
 77
1
  4

 78
1
 79
1
170
1
 48
1.0
171
1
  6

172
1
173
1
174
1
140
1.0
141
1.0
175
1
  7

176
1
177
1
178
1
143
1.0
179
1
  8

270
1
271
1
272
1
145
1.0
146
1.0
273
1
  9

274
1
275
1
276
1
 42
1.0
 72
1
  3

 73
1
 74
1
 75
1
 94
63
  0
MLINESTYLE
  5
22
102
{ACAD_REACTORS
330
10
102
}
330
10
100
AcDbMlineStyle
  2
Standard
 70
0
  3

 62
256
 51
90.0
 52
90.0
 71
2
 49
0.5
 62
256
  6
BYLAYER
 49
-0.5
 62
256
  6
BYLAYER
  0
MLEADERSTYLE
  5
2C
102
{ACAD_REACTORS
330
F
102
}
330
F
100
AcDbMLeaderStyle
179
2
170
2
171
1
172
0
 90
2
 40
0.0
 41
0.0
173
1
 91
-1056964608
 92
-2
290
1
 42
2.0
291
1
 43
8.0
  3
Standard
 44
4.0
300

342
29
174
1
175
1
176
0
178
1
 93
-1056964608
 45
4.0
292
0
297
0
 46
4.0
 94
-1056964608
 47
1.0
 49
1.0
140
1.0
294
1
141
0.0
177
0
142
1.0
295
0
296
0
143
3.75
271
0
272
9
273
9
  0
DICTIONARY
  5
2D
330
A
100
AcDbDictionary
280
1
281
1
  3
CREATED_BY_EZDXF
350
2E
  3
WRITTEN_BY_EZDXF
350
12D
  0
DICTIONARYVAR
  5
2E
330
2D
100
DictionaryVariables
280
0
  1
1.4.4 @ 2026-07-18T18:39:40.183802+00:00
  0
VISUALSTYLE
  5
5A
102
{ACAD_REACTORS
330
16
102
}
330
16
100
AcDbVisualStyle
  2
2dWireframe
 70
4
177
3
291
0
 70
58
 90
2
176
1
 90
2
176
1
 90
0
176
1
 90
0
176
1
 40
0.6
176
1
 40
30.0
176
1
 62
7
420
16777215
176
1
 90
1
176
1
 90
4
176
1
 62
7
176
1
 62
257
176
1
 90
1
176
1
 90
1
176
1
 40
1.0
176
1
 90
8
176
1
 62
7
176
1
 40
1.0
176
1
 90
1
176
1
 90
6
176
1
 90
2
176
1
 62
7
176
1
 90
5
176
1
 90
0
176
1
 90
0
176
1
290
0
176
1
 90
1
176
1
 40
0.0
176
1
 90
0
176
1
290
1
176
1
290
1
176
1
290
0
176
1
290
0
176
1
290
0
176
1
290
0
176
1
290
0
176
1
290
0
176
1
290
0
176
1
 90
50
176
1
 40
0.0
176
1
 40
1.0
176
1
 90
0
176
1
 62
18
420
0
176
1
 90
50
176
1
 90
3
176
1
 62
5
420
255
176
1
290
0
176
1
 90
50
176
1
 90
50
176
1
 90
50
176
1
290
0
176
1
 90
50
176
1
 62
256
176
0
 40
1.0
176
0
 90
2
176
1
  1
strokes_ogs.tif
176
1
290
0
176
1
 40
1.0
176
1
 40
1.0
176
1
  0
VISUALSTYLE
  5
5B
102
{ACAD_REACTORS
330
16
102
}
330
16
100
AcDbVisualStyle
  2
Basic
 70
7
177
3
291
1
 70
58
 90
2
176
1
 90
2
176
1
 90
0
176
1
 90
1
176
1
 40
0.6
176
1
 40
30.0
176
1
 62
7
420
16777215
176
1
 90
1
176
1
 90
4
176
1
 62
7
176
1
 62
257
176
1
 90
1
176
1
 90
1
176
1
 40
1.0
176
1
 90
8
176
1
 62
7
176
1
 40
1.0
176
1
 90
1
176
1
 90
6
176
1
 90
2
176
1
 62
7
176
1
 90
5
176
1
 90
0
176
1
 90
0
176
1
290
0
176
1
 90
1
176
1
 40
0.0
176
1
 90
0
176
1
290
0
176
1
290
1
176
1
290
1
176
1
290
0
176
1
290
0
176
1
290
0
176
1
290
0
176
1
290
0
176
1
290
0
176
1
 90
50
176
1
 40
0.0
176
1
 40
1.0
176
1
 90
0
176
1
 62
18
420
0
176
1
 90
50
176
1
 90
3
176
1
 62
5
420
255
176
1
290
0
176
1
 90
50
176
1
 90
50
176
1
 90
50
176
1
290
0
176
1
 90
50
176
1
 62
256
176
0
 40
1.0
176
0
 90
2
176
1
  1
strokes_ogs.tif
176
1
290
0
176
1
 40
1.0
176
1
 40
1.0
176
1
  0
VISUALSTYLE
  5
5C
102
{ACAD_REACTORS
330
16
102
}
330
16
100
AcDbVisualStyle
  2
Brighten
 70
12
177
3
291
1
 70
58
 90
2
176
1
 90
2
176
1
 90
0
176
1
 90
2
176
1
 40
0.6
176
1
 40
30.0
176
1
 62
7
420
16777215
176
1
 90
1
176
1
 90
4
176
1
 62
7
176
1
 62
257
176
1
 90
1
176
1
 90
1
176
1
 40
1.0
176
1
 90
8
176
1
 62
7
176
1
 40
1.0
176
1
 90
1
176
1
 90
6
176
1
 90
2
176
1
 62
7
176
1
 90
5
176
1
 90
0
176
1
 90
0
176
1
290
0
176
1
 90
1
176
1
 40
0.0
176
1
 90
0
176
1
290
0
176
1
290
1
176
1
290
1
176
1
290
0
176
1
290
0
176
1
290
0
176
1
290
0
176
1
290
0
176
1
290
0
176
1
 90
50
176
1
 40
0.0
176
1
 40
1.0
176
1
 90
0
176
1
 62
18
420
0
176
1
 90
50
176
1
 90
3
176
1
 62
5
420
255
176
1
290
0
176
1
 90
50
176
1
 90
50
176
1
 90
50
176
1
290
0
176
1
 90
50
176
1
 62
256
176
0
 40
1.0
176
0
 90
2
176
1
  1
strokes_ogs.tif
176
1
290
0
176
1
 40
1.0
176
1
 40
1.0
176
1
  0
VISUALSTYLE
  5
5D
102
{ACAD_REACTORS
330
16
102
}
330
16
100
AcDbVisualStyle
  2
ColorChange
 70
16
177
3
291
1
 70
58
 90
2
176
1
 90
2
176
1
 90
0
176
1
 90
2
176
1
 40
0.6
176
1
 40
30.0
176
1
 62
7
420
16777215
176
1
 90
1
176
1
 90
4
176
1
 62
7
176
1
 62
257
176
1
 90
1
176
1
 90
1
176
1
 40
1.0
176
1
 90
8
176
1
 62
7
176
1
 40
1.0
176
1
 90
1
176
1
 90
6
176
1
 90
2
176
1
 62
7
176
1
 90
5
176
1
 90
0
176
1
 90
0
176
1
290
0
176
1
 90
1
176
1
 40
0.0
176
1
 90
0
176
1
290
0
176
1
290
1
176
1
290
1
176
1
290
0
176
1
290
0
176
1
290
0
176
1
290
0
176
1
290
0
176
1
290
0
176
1
 90
50
176
1
 40
0.0
176
1
 40
1.0
176
1
 90
0
176
1
 62
18
420
0
176
1
 90
50
176
1
 90
3
176
1
 62
5
420
255
176
1
290
0
176
1
 90
50
176
1
 90
50
176
1
 90
50
176
1
290
0
176
1
 90
50
176
1
 62
256
176
0
 40
1.0
176
0
 90
2
176
1
  1
strokes_ogs.tif
176
1
290
0
176
1
 40
1.0
176
1
 40
1.0
176
1
  0
VISUALSTYLE
  5
5E
102
{ACAD_REACTORS
330
16
102
}
330
16
100
AcDbVisualStyle
  2
Conceptual
 70
9
177
3
291
0
 70
58
 90
2
176
1
 90
2
176
1
 90
0
176
1
 90
3
176
1
 40
0.6
176
1
 40
30.0
176
1
 62
7
420
16777215
176
1
 90
1
176
1
 90
4
176
1
 62
7
176
1
 62
257
176
1
 90
1
176
1
 90
1
176
1
 40
1.0
176
1
 90
8
176
1
 62
7
176
1
 40
1.0
176
1
 90
1
176
1
 90
6
176
1
 90
2
176
1
 62
7
176
1
 90
5
176
1
 90
0
176
1
 90
0
176
1
290
0
176
1
 90
1
176
1
 40
0.0
176
1
 90
0
176
1
290
0
176
1
290
1
176
1
290
1
176
1
290
0
176
1
290
0
176
1
290
0
176
1
290
0
176
1
290
0
176
1
290
0
176
1
 90
50
176
1
 40
0.0
176
1
 40
1.0
176
1
 90
0
176
1
 62
18
420
0
176
1
 90
50
176
1
 90
3
176
1
 62
5
420
255
176
1
290
0
176
1
 90
50
176
1
 90
50
176
1
 90
50
176
1
290
0
176
1
 90
50
176
1
 62
256
176
0
 40
1.0
176
0
 90
2
176
1
  1
strokes_ogs.tif
176
1
290
0
176
1
 40
1.0
176
1
 40
1.0
176
1
  0
VISUALSTYLE
  5
5F
102
{ACAD_REACTORS
330
16
102
}
330
16
100
AcDbVisualStyle
  2
Dim
 70
11
177
3
291
1
 70
58
 90
2
176
1
 90
2
176
1
 90
0
176
1
 90
2
176
1
 40
0.6
176
1
 40
30.0
176
1
 62
7
420
16777215
176
1
 90
1
176
1
 90
4
176
1
 62
7
176
1
 62
257
176
1
 90
1
176
1
 90
1
176
1
 40
1.0
176
1
 90
8
176
1
 62
7
176
1
 40
1.0
176
1
 90
1
176
1
 90
6
176
1
 90
2
176
1
 62
7
176
1
 90
5
176
1
 90
0
176
1
 90
0
176
1
290
0
176
1
 90
1
176
1
 40
0.0
176
1
 90
0
176
1
290
0
176
1
290
1
176
1
290
1
176
1
290
0
176
1
290
0
176
1
290
0
176
1
290
0
176
1
290
0
176
1
290
0
176
1
 90
50
176
1
 40
0.0
176
1
 40
1.0
176
1
 90
0
176
1
 62
18
420
0
176
1
 90
50
176
1
 90
3
176
1
 62
5
420
255
176
1
290
0
176
1
 90
50
176
1
 90
50
176
1
 90
50
176
1
290
0
176
1
 90
50
176
1
 62
256
176
0
 40
1.0
176
0
 90
2
176
1
  1
strokes_ogs.tif
176
1
290
0
176
1
 40
1.0
176
1
 40
1.0
176
1
  0
VISUALSTYLE
  5
60
102
{ACAD_REACTORS
330
16
102
}
330
16
100
AcDbVisualStyle
  2
EdgeColorOff
 70
22
177
3
291
1
 70
58
 90
2
176
1
 90
2
176
1
 90
0
176
1
 90
2
176
1
 40
0.6
176
1
 40
30.0
176
1
 62
7
420
16777215
176
1
 90
1
176
1
 90
4
176
1
 62
7
176
1
 62
257
176
1
 90
1
176
1
 90
1
176
1
 40
1.0
176
1
 90
8
176
1
 62
7
176
1
 40
1.0
176
1
 90
1
176
1
 90
6
176
1
 90
2
176
1
 62
7
176
1
 90
5
176
1
 90
0
176
1
 90
0
176
1
290
0
176
1
 90
1
176
1
 40
0.0
176
1
 90
0
176
1
290
0
176
1
290
1
176
1
290
1
176
1
290
0
176
1
290
0
176
1
290
0
176
1
290
0
176
1
290
0
176
1
290
0
176
1
 90
50
176
1
 40
0.0
176
1
 40
1.0
176
1
 90
0
176
1
 62
18
420
0
176
1
 90
50
176
1
 90
3
176
1
 62
5
420
255
176
1
290
0
176
1
 90
50
176
1
 90
50
176
1
 90
50
176
1
290
0
176
1
 90
50
176
1
 62
256
176
0
 40
1.0
176
0
 90
2
176
1
  1
strokes_ogs.tif
176
1
290
0
176
1
 40
1.0
176
1
 40
1.0
176
1
  0
VISUALSTYLE
  5
61
102
{ACAD_REACTORS
330
16
102
}
330
16
100
AcDbVisualStyle
  2
Facepattern
 70
15
177
3
291
1
 70
58
 90
2
176
1
 90
2
176
1
 90
0
176
1
 90
2
176
1
 40
0.6
176
1
 40
30.0
176
1
 62
7
420
16777215
176
1
 90
1
176
1
 90
4
176
1
 62
7
176
1
 62
257
176
1
 90
1
176
1
 90
1
176
1
 40
1.0
176
1
 90
8
176
1
 62
7
176
1
 40
1.0
176
1
 90
1
176
1
 90
6
176
1
 90
2
176
1
 62
7
176
1
 90
5
176
1
 90
0
176
1
 90
0
176
1
290
0
176
1
 90
1
176
1
 40
0.0
176
1
 90
0
176
1
290
0
176
1
290
1
176
1
290
1
176
1
290
0
176
1
290
0
176
1
290
0
176
1
290
0
176
1
290
0
176
1
290
0
176
1
 90
50
176
1
 40
0.0
176
1
 40
1.0
176
1
 90
0
176
1
 62
18
420
0
176
1
 90
50
176
1
 90
3
176
1
 62
5
420
255
176
1
290
0
176
1
 90
50
176
1
 90
50
176
1
 90
50
176
1
290
0
176
1
 90
50
176
1
 62
256
176
0
 40
1.0
176
0
 90
2
176
1
  1
strokes_ogs.tif
176
1
290
0
176
1
 40
1.0
176
1
 40
1.0
176
1
  0
VISUALSTYLE
  5
62
102
{ACAD_REACTORS
330
16
102
}
330
16
100
AcDbVisualStyle
  2
Flat
 70
0
177
3
291
1
 70
58
 90
2
176
1
 90
2
176
1
 90
0
176
1
 90
2
176
1
 40
0.6
176
1
 40
30.0
176
1
 62
7
420
16777215
176
1
 90
1
176
1
 90
4
176
1
 62
7
176
1
 62
257
176
1
 90
1
176
1
 90
1
176
1
 40
1.0
176
1
 90
8
176
1
 62
7
176
1
 40
1.0
176
1
 90
1
176
1
 90
6
176
1
 90
2
176
1
 62
7
176
1
 90
5
176
1
 90
0
176
1
 90
0
176
1
290
0
176
1
 90
1
176
1
 40
0.0
176
1
 90
0
176
1
290
0
176
1
290
1
176
1
290
1
176
1
290
0
176
1
290
0
176
1
290
0
176
1
290
0
176
1
290
0
176
1
290
0
176
1
 90
50
176
1
 40
0.0
176
1
 40
1.0
176
1
 90
0
176
1
 62
18
420
0
176
1
 90
50
176
1
 90
3
176
1
 62
5
420
255
176
1
290
0
176
1
 90
50
176
1
 90
50
176
1
 90
50
176
1
290
0
176
1
 90
50
176
1
 62
256
176
0
 40
1.0
176
0
 90
2
176
1
  1
strokes_ogs.tif
176
1
290
0
176
1
 40
1.0
176
1
 40
1.0
176
1
  0
VISUALSTYLE
  5
63
102
{ACAD_REACTORS
330
16
102
}
330
16
100
AcDbVisualStyle
  2
FlatWithEdges
 70
1
177
3
291
1
 70
58
 90
2
176
1
 90
2
176
1
 90
0
176
1
 90
2
176
1
 40
0.6
176
1
 40
30.0
176
1
 62
7
420
16777215
176
1
 90
1
176
1
 90
4
176
1
 62
7
176
1
 62
257
176
1
 90
1
176
1
 90
1
176
1
 40
1.0
176
1
 90
8
176
1
 62
7
176
1
 40
1.0
176
1
 90
1
176
1
 90
6
176
1
 90
2
176
1
 62
7
176
1
 90
5
176
1
 90
0
176
1
 90
0
176
1
290
0
176
1
 90
1
176
1
 40
0.0
176
1
 90
0
176
1
290
0
176
1
290
1
176
1
290
1
176
1
290
0
176
1
290
0
176
1
290
0
176
1
290
0
176
1
290
0
176
1
290
0
176
1
 90
50
176
1
 40
0.0
176
1
 40
1.0
176
1
 90
0
176
1
 62
18
420
0
176
1
 90
50
176
1
 90
3
176
1
 62
5
420
255
176
1
290
0
176
1
 90
50
176
1
 90
50
176
1
 90
50
176
1
290
0
176
1
 90
50
176
1
 62
256
176
0
 40
1.0
176
0
 90
2
176
1
  1
strokes_ogs.tif
176
1
290
0
176
1
 40
1.0
176
1
 40
1.0
176
1
  0
VISUALSTYLE
  5
64
102
{ACAD_REACTORS
330
16
102
}
330
16
100
AcDbVisualStyle
  2
Gouraud
 70
2
177
3
291
1
 70
58
 90
2
176
1
 90
2
176
1
 90
0
176
1
 90
2
176
1
 40
0.6
176
1
 40
30.0
176
1
 62
7
420
16777215
176
1
 90
1
176
1
 90
4
176
1
 62
7
176
1
 62
257
176
1
 90
1
176
1
 90
1
176
1
 40
1.0
176
1
 90
8
176
1
 62
7
176
1
 40
1.0
176
1
 90
1
176
1
 90
6
176
1
 90
2
176
1
 62
7
176
1
 90
5
176
1
 90
0
176
1
 90
0
176
1
290
0
176
1
 90
1
176
1
 40
0.0
176
1
 90
0
176
1
290
0
176
1
290
1
176
1
290
1
176
1
290
0
176
1
290
0
176
1
290
0
176
1
290
0
176
1
290
0
176
1
290
0
176
1
 90
50
176
1
 40
0.0
176
1
 40
1.0
176
1
 90
0
176
1
 62
18
420
0
176
1
 90
50
176
1
 90
3
176
1
 62
5
420
255
176
1
290
0
176
1
 90
50
176
1
 90
50
176
1
 90
50
176
1
290
0
176
1
 90
50
176
1
 62
256
176
0
 40
1.0
176
0
 90
2
176
1
  1
strokes_ogs.tif
176
1
290
0
176
1
 40
1.0
176
1
 40
1.0
176
1
  0
VISUALSTYLE
  5
65
102
{ACAD_REACTORS
330
16
102
}
330
16
100
AcDbVisualStyle
  2
GouraudWithEdges
 70
3
177
3
291
1
 70
58
 90
2
176
1
 90
2
176
1
 90
0
176
1
 90
2
176
1
 40
0.6
176
1
 40
30.0
176
1
 62
7
420
16777215
176
1
 90
1
176
1
 90
4
176
1
 62
7
176
1
 62
257
176
1
 90
1
176
1
 90
1
176
1
 40
1.0
176
1
 90
8
176
1
 62
7
176
1
 40
1.0
176
1
 90
1
176
1
 90
6
176
1
 90
2
176
1
 62
7
176
1
 90
5
176
1
 90
0
176
1
 90
0
176
1
290
0
176
1
 90
1
176
1
 40
0.0
176
1
 90
0
176
1
290
0
176
1
290
1
176
1
290
1
176
1
290
0
176
1
290
0
176
1
290
0
176
1
290
0
176
1
290
0
176
1
290
0
176
1
 90
50
176
1
 40
0.0
176
1
 40
1.0
176
1
 90
0
176
1
 62
18
420
0
176
1
 90
50
176
1
 90
3
176
1
 62
5
420
255
176
1
290
0
176
1
 90
50
176
1
 90
50
176
1
 90
50
176
1
290
0
176
1
 90
50
176
1
 62
256
176
0
 40
1.0
176
0
 90
2
176
1
  1
strokes_ogs.tif
176
1
290
0
176
1
 40
1.0
176
1
 40
1.0
176
1
  0
VISUALSTYLE
  5
66
102
{ACAD_REACTORS
330
16
102
}
330
16
100
AcDbVisualStyle
  2
Hidden
 70
6
177
3
291
0
 70
58
 90
2
176
1
 90
2
176
1
 90
0
176
1
 90
1
176
1
 40
0.6
176
1
 40
30.0
176
1
 62
7
420
16777215
176
1
 90
1
176
1
 90
4
176
1
 62
7
176
1
 62
257
176
1
 90
1
176
1
 90
1
176
1
 40
1.0
176
1
 90
8
176
1
 62
7
176
1
 40
1.0
176
1
 90
1
176
1
 90
6
176
1
 90
2
176
1
 62
7
176
1
 90
5
176
1
 90
0
176
1
 90
0
176
1
290
0
176
1
 90
1
176
1
 40
0.0
176
1
 90
0
176
1
290
0
176
1
290
1
176
1
290
1
176
1
290
0
176
1
290
0
176
1
290
0
176
1
290
0
176
1
290
0
176
1
290
0
176
1
 90
50
176
1
 40
0.0
176
1
 40
1.0
176
1
 90
0
176
1
 62
18
420
0
176
1
 90
50
176
1
 90
3
176
1
 62
5
420
255
176
1
290
0
176
1
 90
50
176
1
 90
50
176
1
 90
50
176
1
290
0
176
1
 90
50
176
1
 62
256
176
0
 40
1.0
176
0
 90
2
176
1
  1
strokes_ogs.tif
176
1
290
0
176
1
 40
1.0
176
1
 40
1.0
176
1
  0
VISUALSTYLE
  5
67
102
{ACAD_REACTORS
330
16
102
}
330
16
100
AcDbVisualStyle
  2
JitterOff
 70
20
177
3
291
1
 70
58
 90
2
176
1
 90
2
176
1
 90
0
176
1
 90
2
176
1
 40
0.6
176
1
 40
30.0
176
1
 62
7
420
16777215
176
1
 90
1
176
1
 90
4
176
1
 62
7
176
1
 62
257
176
1
 90
1
176
1
 90
1
176
1
 40
1.0
176
1
 90
8
176
1
 62
7
176
1
 40
1.0
176
1
 90
1
176
1
 90
6
176
1
 90
2
176
1
 62
7
176
1
 90
5
176
1
 90
0
176
1
 90
0
176
1
290
0
176
1
 90
1
176
1
 40
0.0
176
1
 90
0
176
1
290
0
176
1
290
1
176
1
290
1
176
1
290
0
176
1
290
0
176
1
290
0
176
1
290
0
176
1
290
0
176
1
290
0
176
1
 90
50
176
1
 40
0.0
176
1
 40
1.0
176
1
 90
0
176
1
 62
18
420
0
176
1
 90
50
176
1
 90
3
176
1
 62
5
420
255
176
1
290
0
176
1
 90
50
176
1
 90
50
176
1
 90
50
176
1
290
0
176
1
 90
50
176
1
 62
256
176
0
 40
1.0
176
0
 90
2
176
1
  1
strokes_ogs.tif
176
1
290
0
176
1
 40
1.0
176
1
 40
1.0
176
1
  0
VISUALSTYLE
  5
68
102
{ACAD_REACTORS
330
16
102
}
330
16
100
AcDbVisualStyle
  2
Linepattern
 70
14
177
3
291
1
 70
58
 90
2
176
1
 90
2
176
1
 90
0
176
1
 90
2
176
1
 40
0.6
176
1
 40
30.0
176
1
 62
7
420
16777215
176
1
 90
1
176
1
 90
4
176
1
 62
7
176
1
 62
257
176
1
 90
1
176
1
 90
1
176
1
 40
1.0
176
1
 90
8
176
1
 62
7
176
1
 40
1.0
176
1
 90
1
176
1
 90
6
176
1
 90
2
176
1
 62
7
176
1
 90
5
176
1
 90
0
176
1
 90
0
176
1
290
0
176
1
 90
1
176
1
 40
0.0
176
1
 90
0
176
1
290
0
176
1
290
1
176
1
290
1
176
1
290
0
176
1
290
0
176
1
290
0
176
1
290
0
176
1
290
0
176
1
290
0
176
1
 90
50
176
1
 40
0.0
176
1
 40
1.0
176
1
 90
0
176
1
 62
18
420
0
176
1
 90
50
176
1
 90
3
176
1
 62
5
420
255
176
1
290
0
176
1
 90
50
176
1
 90
50
176
1
 90
50
176
1
290
0
176
1
 90
50
176
1
 62
256
176
0
 40
1.0
176
0
 90
2
176
1
  1
strokes_ogs.tif
176
1
290
0
176
1
 40
1.0
176
1
 40
1.0
176
1
  0
VISUALSTYLE
  5
69
102
{ACAD_REACTORS
330
16
102
}
330
16
100
AcDbVisualStyle
  2
Modeling
 70
10
177
3
291
0
 70
58
 90
2
176
1
 90
2
176
1
 90
0
176
1
 90
2
176
1
 40
0.6
176
1
 40
30.0
176
1
 62
7
420
16777215
176
1
 90
1
176
1
 90
4
176
1
 62
7
176
1
 62
257
176
1
 90
1
176
1
 90
1
176
1
 40
1.0
176
1
 90
8
176
1
 62
7
176
1
 40
1.0
176
1
 90
1
176
1
 90
6
176
1
 90
2
176
1
 62
7
176
1
 90
5
176
1
 90
0
176
1
 90
0
176
1
290
0
176
1
 90
1
176
1
 40
0.0
176
1
 90
0
176
1
290
0
176
1
290
1
176
1
290
1
176
1
290
0
176
1
290
0
176
1
290
0
176
1
290
0
176
1
290
0
176
1
290
0
176
1
 90
50
176
1
 40
0.0
176
1
 40
1.0
176
1
 90
0
176
1
 62
18
420
0
176
1
 90
50
176
1
 90
3
176
1
 62
5
420
255
176
1
290
0
176
1
 90
50
176
1
 90
50
176
1
 90
50
176
1
290
0
176
1
 90
50
176
1
 62
256
176
0
 40
1.0
176
0
 90
2
176
1
  1
strokes_ogs.tif
176
1
290
0
176
1
 40
1.0
176
1
 40
1.0
176
1
  0
VISUALSTYLE
  5
6A
102
{ACAD_REACTORS
330
16
102
}
330
16
100
AcDbVisualStyle
  2
OverhangOff
 70
21
177
3
291
1
 70
58
 90
2
176
1
 90
2
176
1
 90
0
176
1
 90
2
176
1
 40
0.6
176
1
 40
30.0
176
1
 62
7
420
16777215
176
1
 90
1
176
1
 90
4
176
1
 62
7
176
1
 62
257
176
1
 90
1
176
1
 90
1
176
1
 40
1.0
176
1
 90
8
176
1
 62
7
176
1
 40
1.0
176
1
 90
1
176
1
 90
6
176
1
 90
2
176
1
 62
7
176
1
 90
5
176
1
 90
0
176
1
 90
0
176
1
290
0
176
1
 90
1
176
1
 40
0.0
176
1
 90
0
176
1
290
0
176
1
290
1
176
1
290
1
176
1
290
0
176
1
290
0
176
1
290
0
176
1
290
0
176
1
290
0
176
1
290
0
176
1
 90
50
176
1
 40
0.0
176
1
 40
1.0
176
1
 90
0
176
1
 62
18
420
0
176
1
 90
50
176
1
 90
3
176
1
 62
5
420
255
176
1
290
0
176
1
 90
50
176
1
 90
50
176
1
 90
50
176
1
290
0
176
1
 90
50
176
1
 62
256
176
0
 40
1.0
176
0
 90
2
176
1
  1
strokes_ogs.tif
176
1
290
0
176
1
 40
1.0
176
1
 40
1.0
176
1
  0
VISUALSTYLE
  5
6B
102
{ACAD_REACTORS
330
16
102
}
330
16
100
AcDbVisualStyle
  2
Realistic
 70
8
177
3
291
0
 70
58
 90
2
176
1
 90
2
176
1
 90
0
176
1
 90
2
176
1
 40
0.6
176
1
 40
30.0
176
1
 62
7
420
16777215
176
1
 90
1
176
1
 90
4
176
1
 62
7
176
1
 62
257
176
1
 90
1
176
1
 90
1
176
1
 40
1.0
176
1
 90
8
176
1
 62
7
176
1
 40
1.0
176
1
 90
1
176
1
 90
6
176
1
 90
2
176
1
 62
7
176
1
 90
5
176
1
 90
0
176
1
 90
0
176
1
290
0
176
1
 90
1
176
1
 40
0.0
176
1
 90
0
176
1
290
0
176
1
290
1
176
1
290
1
176
1
290
0
176
1
290
0
176
1
290
0
176
1
290
0
176
1
290
0
176
1
290
0
176
1
 90
50
176
1
 40
0.0
176
1
 40
1.0
176
1
 90
0
176
1
 62
18
420
0
176
1
 90
50
176
1
 90
3
176
1
 62
5
420
255
176
1
290
0
176
1
 90
50
176
1
 90
50
176
1
 90
50
176
1
290
0
176
1
 90
50
176
1
 62
256
176
0
 40
1.0
176
0
 90
2
176
1
  1
strokes_ogs.tif
176
1
290
0
176
1
 40
1.0
176
1
 40
1.0
176
1
  0
VISUALSTYLE
  5
6C
102
{ACAD_REACTORS
330
16
102
}
330
16
100
AcDbVisualStyle
  2
Shaded
 70
27
177
3
291
0
 70
58
 90
2
176
1
 90
2
176
1
 90
0
176
1
 90
2
176
1
 40
0.6
176
1
 40
30.0
176
1
 62
7
420
16777215
176
1
 90
1
176
1
 90
4
176
1
 62
7
176
1
 62
257
176
1
 90
1
176
1
 90
1
176
1
 40
1.0
176
1
 90
8
176
1
 62
7
176
1
 40
1.0
176
1
 90
1
176
1
 90
6
176
1
 90
2
176
1
 62
7
176
1
 90
5
176
1
 90
0
176
1
 90
0
176
1
290
0
176
1
 90
1
176
1
 40
0.0
176
1
 90
0
176
1
290
0
176
1
290
1
176
1
290
1
176
1
290
0
176
1
290
0
176
1
290
0
176
1
290
0
176
1
290
0
176
1
290
0
176
1
 90
50
176
1
 40
0.0
176
1
 40
1.0
176
1
 90
0
176
1
 62
18
420
0
176
1
 90
50
176
1
 90
3
176
1
 62
5
420
255
176
1
290
0
176
1
 90
50
176
1
 90
50
176
1
 90
50
176
1
290
0
176
1
 90
50
176
1
 62
256
176
0
 40
1.0
176
0
 90
2
176
1
  1
strokes_ogs.tif
176
1
290
0
176
1
 40
1.0
176
1
 40
1.0
176
1
  0
VISUALSTYLE
  5
6D
102
{ACAD_REACTORS
330
16
102
}
330
16
100
AcDbVisualStyle
  2
Shaded with edges
 70
26
177
3
291
0
 70
58
 90
2
176
1
 90
2
176
1
 90
0
176
1
 90
2
176
1
 40
0.6
176
1
 40
30.0
176
1
 62
7
420
16777215
176
1
 90
1
176
1
 90
4
176
1
 62
7
176
1
 62
257
176
1
 90
1
176
1
 90
1
176
1
 40
1.0
176
1
 90
8
176
1
 62
7
176
1
 40
1.0
176
1
 90
1
176
1
 90
6
176
1
 90
2
176
1
 62
7
176
1
 90
5
176
1
 90
0
176
1
 90
0
176
1
290
0
176
1
 90
1
176
1
 40
0.0
176
1
 90
0
176
1
290
0
176
1
290
1
176
1
290
1
176
1
290
0
176
1
290
0
176
1
290
0
176
1
290
0
176
1
290
0
176
1
290
0
176
1
 90
50
176
1
 40
0.0
176
1
 40
1.0
176
1
 90
0
176
1
 62
18
420
0
176
1
 90
50
176
1
 90
3
176
1
 62
5
420
255
176
1
290
0
176
1
 90
50
176
1
 90
50
176
1
 90
50
176
1
290
0
176
1
 90
50
176
1
 62
256
176
0
 40
1.0
176
0
 90
2
176
1
  1
strokes_ogs.tif
176
1
290
0
176
1
 40
1.0
176
1
 40
1.0
176
1
  0
VISUALSTYLE
  5
6E
102
{ACAD_REACTORS
330
16
102
}
330
16
100
AcDbVisualStyle
  2
Shades of Gray
 70
23
177
3
291
0
 70
58
 90
2
176
1
 90
2
176
1
 90
0
176
1
 90
2
176
1
 40
0.6
176
1
 40
30.0
176
1
 62
7
420
16777215
176
1
 90
1
176
1
 90
4
176
1
 62
7
176
1
 62
257
176
1
 90
1
176
1
 90
1
176
1
 40
1.0
176
1
 90
8
176
1
 62
7
176
1
 40
1.0
176
1
 90
1
176
1
 90
6
176
1
 90
2
176
1
 62
7
176
1
 90
5
176
1
 90
0
176
1
 90
0
176
1
290
0
176
1
 90
1
176
1
 40
0.0
176
1
 90
0
176
1
290
0
176
1
290
1
176
1
290
1
176
1
290
0
176
1
290
0
176
1
290
0
176
1
290
0
176
1
290
0
176
1
290
0
176
1
 90
50
176
1
 40
0.0
176
1
 40
1.0
176
1
 90
0
176
1
 62
18
420
0
176
1
 90
50
176
1
 90
3
176
1
 62
5
420
255
176
1
290
0
176
1
 90
50
176
1
 90
50
176
1
 90
50
176
1
290
0
176
1
 90
50
176
1
 62
256
176
0
 40
1.0
176
0
 90
2
176
1
  1
strokes_ogs.tif
176
1
290
0
176
1
 40
1.0
176
1
 40
1.0
176
1
  0
VISUALSTYLE
  5
6F
102
{ACAD_REACTORS
330
16
102
}
330
16
100
AcDbVisualStyle
  2
Sketchy
 70
24
177
3
291
0
 70
58
 90
2
176
1
 90
2
176
1
 90
0
176
1
 90
1
176
1
 40
0.6
176
1
 40
30.0
176
1
 62
7
420
16777215
176
1
 90
1
176
1
 90
4
176
1
 62
7
176
1
 62
257
176
1
 90
1
176
1
 90
1
176
1
 40
1.0
176
1
 90
8
176
1
 62
7
176
1
 40
1.0
176
1
 90
1
176
1
 90
6
176
1
 90
2
176
1
 62
7
176
1
 90
5
176
1
 90
0
176
1
 90
0
176
1
290
0
176
1
 90
1
176
1
 40
0.0
176
1
 90
0
176
1
290
0
176
1
290
1
176
1
290
1
176
1
290
0
176
1
290
0
176
1
290
0
176
1
290
0
176
1
290
0
176
1
290
0
176
1
 90
50
176
1
 40
0.0
176
1
 40
1.0
176
1
 90
0
176
1
 62
18
420
0
176
1
 90
50
176
1
 90
3
176
1
 62
5
420
255
176
1
290
0
176
1
 90
50
176
1
 90
50
176
1
 90
50
176
1
290
0
176
1
 90
50
176
1
 62
256
176
0
 40
1.0
176
0
 90
2
176
1
  1
strokes_ogs.tif
176
1
290
0
176
1
 40
1.0
176
1
 40
1.0
176
1
  0
VISUALSTYLE
  5
70
102
{ACAD_REACTORS
330
16
102
}
330
16
100
AcDbVisualStyle
  2
Thicken
 70
13
177
3
291
1
 70
58
 90
2
176
1
 90
2
176
1
 90
0
176
1
 90
2
176
1
 40
0.6
176
1
 40
30.0
176
1
 62
7
420
16777215
176
1
 90
1
176
1
 90
4
176
1
 62
7
176
1
 62
257
176
1
 90
1
176
1
 90
1
176
1
 40
1.0
176
1
 90
8
176
1
 62
7
176
1
 40
1.0
176
1
 90
1
176
1
 90
6
176
1
 90
2
176
1
 62
7
176
1
 90
5
176
1
 90
0
176
1
 90
0
176
1
290
0
176
1
 90
1
176
1
 40
0.0
176
1
 90
0
176
1
290
0
176
1
290
1
176
1
290
1
176
1
290
0
176
1
290
0
176
1
290
0
176
1
290
0
176
1
290
0
176
1
290
0
176
1
 90
50
176
1
 40
0.0
176
1
 40
1.0
176
1
 90
0
176
1
 62
18
420
0
176
1
 90
50
176
1
 90
3
176
1
 62
5
420
255
176
1
290
0
176
1
 90
50
176
1
 90
50
176
1
 90
50
176
1
290
0
176
1
 90
50
176
1
 62
256
176
0
 40
1.0
176
0
 90
2
176
1
  1
strokes_ogs.tif
176
1
290
0
176
1
 40
1.0
176
1
 40
1.0
176
1
  0
VISUALSTYLE
  5
71
102
{ACAD_REACTORS
330
16
102
}
330
16
100
AcDbVisualStyle
  2
Wireframe
 70
5
177
3
291
0
 70
58
 90
2
176
1
 90
2
176
1
 90
0
176
1
 90
0
176
1
 40
0.6
176
1
 40
30.0
176
1
 62
7
420
16777215
176
1
 90
1
176
1
 90
4
176
1
 62
7
176
1
 62
257
176
1
 90
1
176
1
 90
1
176
1
 40
1.0
176
1
 90
8
176
1
 62
7
176
1
 40
1.0
176
1
 90
1
176
1
 90
6
176
1
 90
2
176
1
 62
7
176
1
 90
5
176
1
 90
0
176
1
 90
0
176
1
290
0
176
1
 90
1
176
1
 40
0.0
176
1
 90
0
176
1
290
0
176
1
290
1
176
1
290
1
176
1
290
0
176
1
290
0
176
1
290
0
176
1
290
0
176
1
290
0
176
1
290
0
176
1
 90
50
176
1
 40
0.0
176
1
 40
1.0
176
1
 90
0
176
1
 62
18
420
0
176
1
 90
50
176
1
 90
3
176
1
 62
5
420
255
176
1
290
0
176
1
 90
50
176
1
 90
50
176
1
 90
50
176
1
290
0
176
1
 90
50
176
1
 62
256
176
0
 40
1.0
176
0
 90
2
176
1
  1
strokes_ogs.tif
176
1
290
0
176
1
 40
1.0
176
1
 40
1.0
176
1
  0
VISUALSTYLE
  5
72
102
{ACAD_REACTORS
330
16
102
}
330
16
100
AcDbVisualStyle
  2
X-Ray
 70
25
177
3
291
0
 70
58
 90
2
176
1
 90
2
176
1
 90
0
176
1
 90
2
176
1
 40
0.5
176
1
 40
30.0
176
1
 62
7
420
16777215
176
1
 90
1
176
1
 90
4
176
1
 62
7
176
1
 62
257
176
1
 90
1
176
1
 90
1
176
1
 40
1.0
176
1
 90
8
176
1
 62
7
176
1
 40
1.0
176
1
 90
1
176
1
 90
6
176
1
 90
2
176
1
 62
7
176
1
 90
5
176
1
 90
0
176
1
 90
0
176
1
290
0
176
1
 90
1
176
1
 40
0.0
176
1
 90
0
176
1
290
0
176
1
290
1
176
1
290
1
176
1
290
0
176
1
290
0
176
1
290
0
176
1
290
0
176
1
290
0
176
1
290
0
176
1
 90
50
176
1
 40
0.0
176
1
 40
1.0
176
1
 90
0
176
1
 62
18
420
0
176
1
 90
50
176
1
 90
3
176
1
 62
5
420
255
176
1
290
0
176
1
 90
50
176
1
 90
50
176
1
 90
50
176
1
290
0
176
1
 90
50
176
1
 62
256
176
0
 40
1.0
176
0
 90
2
176
1
  1
strokes_ogs.tif
176
1
290
0
176
1
 40
1.0
176
1
 40
1.0
176
1
  0
DICTIONARYVAR
  5
12D
330
2D
100
DictionaryVariables
280
0
  1
1.4.4 @ 2026-07-18T18:39:40.198633+00:00
  0
ENDSEC
  0
EOF
