<?xml version="1.0" encoding="utf-8" ?>
<svg baseProfile="full" height="150.225075cm" version="1.1" viewBox="0 0 155.6471619432354 150.225075" width="155.6471619432354cm" xmlns="http://www.w3.org/2000/svg" xmlns:ev="http://www.w3.org/2001/xml-events" xmlns:xlink="http://www.w3.org/1999/xlink"><defs /><g fill="none" id="CONSTRUCCION" stroke="#888888" stroke-width="0.08"><line x1="5.7" x2="5.7" y1="13.625075" y2="72.225075" /><line x1="110.43511678088305" x2="110.43511678088305" y1="64.225075" y2="52.225075" /><line x1="128.6471619432354" x2="151.6471619432354" y1="10.225075" y2="10.225075" /><line x1="87.59649499352541" x2="99.59649499352541" y1="85.445075" y2="85.445075" /></g><g fill="none" id="CORTE" stroke="#d00000" stroke-width="0.08"><polygon points="3.0,73.225075 30.7,73.225075 30.7,25.175006 30.163137,24.50218 29.843877,24.102854 29.522247,23.70214 29.197812,23.300291 28.869843,22.897194 28.537611,22.492739 28.20039,22.086822 27.857453,21.679347 27.50811,21.270251000000002 27.152677999999998,20.860566 26.794525,20.452337 26.438422,20.046302999999998 26.088096999999998,19.641983 25.747211999999998,19.238976 25.419414,18.837046 25.108311999999998,18.436118999999998 24.817435,18.036285 24.550168,17.637787000000003 24.30968,17.240989 24.098824999999998,16.8463 23.920049,16.454039 23.775319,16.064222 23.665741999999998,15.674818 23.590476,15.278377 23.546763,14.868069 23.532877,14.442393000000001 23.547261,14.001503 23.588169,13.546087 23.653584,13.077172000000001 23.741213,12.595958 23.848516999999998,12.103698 23.972755,11.601625 24.111033,11.090901 24.260334999999998,10.572599 24.417562,10.047684 24.839634,8.664922 11.859667,3.0 11.198679,3.837407 11.015220000000001,4.070339 10.831602,4.304494 10.648078,4.540071 10.464904,4.777267999999999 10.282339,5.016289 10.100645,5.257334999999999 9.920087,5.5006129999999995 9.740933,5.746327 9.563455999999999,5.994683 9.387932,6.245889 9.21464,6.50015 9.043864,6.7576719999999995 8.876066999999999,7.018385 8.712398,7.2807200000000005 8.553241,7.5423 8.397873,7.801935 8.245346999999999,8.058873 8.09476,8.312379 7.9452549999999995,8.561725 7.796017,8.806198 7.646275,9.045101 7.495299,9.277761 7.342397,9.503534 7.186907,9.721822 7.028192,9.93208 6.865598,10.133856 6.697407,10.328021 6.520795000000001,10.517619999999999 6.3346350000000005,10.705137 6.139519,10.891288 5.93625,11.076665 5.7257,11.261891 5.508787,11.447631 5.0110410000000005,11.866248 4.869394,12.625075 3.0,12.625075 3.0,73.225075" /><polygon points="60.7,15.241627999999999 60.288152999999994,14.5735 60.025169,14.146636 59.762311999999994,13.719514 59.499582000000004,13.291900000000002 59.236976,12.863562000000002 58.974494,12.434265 58.712132999999994,12.003774 58.449889999999996,11.571856 58.187785,11.138313 57.926238999999995,10.703524999999999 57.666726999999995,10.268326000000002 57.411012,9.833036 57.160588000000004,9.397549 56.916933,8.961776 56.681508,8.52565 56.455752000000004,8.089125000000001 56.241083,7.652172 56.038886,7.214774 55.850509,6.7769200000000005 55.677262,6.3385929999999995 55.520404,5.899761 55.381145000000004,5.460358000000001 55.260644,5.020266000000001 55.159799,4.578361000000001 55.078361,4.131429000000001 54.951257999999996,3.225075 35.7,3.225075 35.7,63.225075 60.7,63.225075 60.7,15.241627999999999" /><polygon points="85.01465400000001,13.677141 84.96724400000001,13.215392 84.934724,12.746462000000001 84.91564600000001,12.2707 84.908513,11.788505 84.911781,11.300303000000001 84.923856,10.806537 84.943097,10.30765 84.96782300000001,9.804079000000002 84.99631,9.296246 85.070262,8.055168 72.22003600000001,3.0966280000000004 71.589725,3.5530200000000005 71.402252,3.6875130000000005 71.21724400000001,3.8177910000000006 71.03420200000001,3.9431070000000004 70.852652,4.062769 70.67212500000001,4.176147 70.491605,4.283002000000001 70.30913100000001,4.383908 70.123617,4.479426 69.935219,4.5694550000000005 69.744248,4.653817 69.551017,4.732341 69.355841,4.804864 69.15903300000001,4.871228 68.960907,4.931286 68.761778,4.984898 68.561881,5.031948 68.360555,5.072536 68.156474,5.107158 67.949055,5.13632 67.738286,5.160427 67.524196,5.179898000000001 67.306841,5.1951670000000005 67.086295,5.2066870000000005 66.862645,5.214934 66.635988,5.220400000000001 66.406421,5.2236020000000005 66.174045,5.225074 65.93895900000001,5.225374 65.7,5.225074 65.7,15.225075 85.231728,15.225075 85.01465400000001,13.677141" /><polygon points="93.44439306009895,65.225075 119.28447706009894,65.225075 123.68266706009894,12.509523 122.92630806009893,11.765035 122.49753306009895,11.347928 122.06001106009894,10.932231999999999 121.61208406009894,10.521497 121.15464506009894,10.11994 120.69004906009894,9.728928999999999 120.21916506009894,9.347847 119.74257706009894,8.975842 119.26085906009894,8.612058 118.77457306009894,8.255639 118.28427006009895,7.905733 117.79049106009894,7.561491 117.29373506009894,7.222044 116.79344706009894,6.885885 116.28741306009894,6.552251999999999 115.77377606009894,6.22279 115.25179106009894,5.900067 114.72073306009894,5.586733 114.17984606009894,5.285487 113.62835606009894,4.99909 113.06548406009894,4.730377 112.49047606009894,4.482274 111.90269606009895,4.257822 111.30372306009895,4.060759 110.69860506009894,3.8925859999999997 110.09144006009895,3.750422 109.48365506009894,3.630378 108.87638906009894,3.528609 108.27069306009894,3.441369 107.66758006009894,3.365023 107.06805006009894,3.2960409999999998 106.38774106009895,3.2216639999999996 105.69623106009894,3.2649049999999997 105.08595206009895,3.306377 104.47206406009894,3.3547849999999997 103.85542906009894,3.413567 103.23690406009894,3.486264 102.61737906009894,3.5765149999999997 101.99780306009895,3.688062 101.37924406009894,3.824738 100.76420706009894,3.990088 100.15777706009894,4.184933 99.56305706009894,4.406032 98.97994406009894,4.650414 98.40784406009894,4.9153199999999995 97.84611506009894,5.198074999999999 97.29409606009894,5.496074999999999 96.75112106009894,5.806782999999999 96.21654006009894,6.1277159999999995 95.68973006009894,6.456435 95.16980106009893,6.790724 94.65399406009894,7.130189 94.14063306009893,7.477646 93.63095406009894,7.835795 93.12716406009895,8.206782 92.63152806009894,8.592808 92.14638906009894,8.996112 91.67418606009895,9.418956 91.21748506009894,9.863587 90.77927406009894,10.331901 90.36570106009894,10.821204 89.97917506009894,11.320981 89.61464506009894,11.821514 89.05489906009893,12.613742 93.44439306009895,65.225075" /><polygon points="127.64716194323539,15.474202 127.6770029432354,15.777182 127.77970894323539,16.115757000000002 127.9464939432354,16.42779 128.17094794323538,16.701289000000003 128.4444469432354,16.925743 128.75647994323538,17.092528 129.09505494323537,17.195234 129.3980349432354,17.225075 150.8962889432354,17.225075 151.19926894323538,17.195234 151.5378439432354,17.092528 151.8498769432354,16.925743 152.12337594323537,16.701289000000003 152.34782994323538,16.42779 152.5146149432354,16.115757000000002 152.6173209432354,15.777182 152.6471619432354,15.474202 152.6471619432354,4.975948 152.6173209432354,4.672968 152.5146149432354,4.334393 152.34782994323538,4.02236 152.12337594323537,3.7488609999999998 151.8498769432354,3.524407 151.5378439432354,3.357622 151.19926894323538,3.2549159999999997 150.8962889432354,3.225075 129.3980349432354,3.225075 129.09505494323537,3.2549159999999997 128.75647994323538,3.357622 128.4444469432354,3.524407 128.17094794323538,3.7488609999999998 127.9464939432354,4.02236 127.77970894323539,4.334393 127.6770029432354,4.672968 127.64716194323539,4.975948 127.64716194323539,15.474202" /><polygon points="3.0,80.874202 3.022155,81.09914500000001 3.1020980000000002,81.362683 3.2319190000000004,81.60556100000001 3.406629,81.81844600000001 3.619514,81.993156 3.8623920000000003,82.122977 4.12593,82.20292 4.350873,82.225075 15.649127,82.225075 15.87407,82.20292 16.137608,82.122977 16.380485999999998,81.993156 16.593370999999998,81.81844600000001 16.768081000000002,81.60556100000001 16.897902000000002,81.362683 16.977845000000002,81.09914500000001 17.0,80.874202 17.0,78.57594800000001 16.977845000000002,78.351005 16.897902000000002,78.087467 16.768081000000002,77.844589 16.593370999999998,77.631704 16.380485999999998,77.45699400000001 16.137608,77.327173 15.87407,77.24723 15.649127,77.225075 4.350873,77.225075 4.12593,77.24723 3.8623920000000003,77.327173 3.619514,77.45699400000001 3.406629,77.631704 3.2319190000000004,77.844589 3.1020980000000002,78.087467 3.022155,78.351005 3.0,78.57594800000001 3.0,80.874202" /><polygon points="22.689639,83.89516900000001 23.144395,83.984764 23.599217,84.069252 24.054102,84.14863 24.509047,84.222896 24.964049,84.29205 25.419103,84.356088 25.874207,84.41501000000001 26.329356,84.468813 26.784546,84.517497 27.239774,84.561059 27.695035,84.5995 28.150326,84.632817 28.605642,84.66101 29.060979,84.684078 29.516334,84.702021 29.971701,84.714837 30.427077,84.722527 30.882457000000002,84.725091 31.337837,84.722527 31.793213,84.714837 32.248580000000004,84.702021 32.703935,84.684078 33.159272,84.66101 33.614588,84.632817 34.069879,84.5995 34.525141,84.561059 34.980368,84.517497 35.435559,84.468813 35.890707,84.41501000000001 36.345811,84.356088 36.800865,84.29205 37.255867,84.222896 37.710812000000004,84.14863 38.165697,84.069252 38.62052,83.984764 39.075275000000005,83.89516900000001 39.275729999999996,83.853419 41.321475,87.262994 42.376693,86.864011 40.560553999999996,77.02659100000001 39.111621,77.34468100000001 38.678062,77.43498100000001 38.244572000000005,77.520386 37.811148,77.600898 37.377788,77.67652000000001 36.944487,77.747254 36.511243,77.8131 36.078052,77.87406200000001 35.64491,77.93014000000001 35.211813,77.98133700000001 34.778757,78.027653 34.345739,78.069091 33.912755000000004,78.10565 33.4798,78.137333 33.04687,78.16414 32.613962,78.18607200000001 32.181071,78.203129 31.748193,78.21531300000001 31.315323,78.222623 30.882457000000002,78.225059 30.449590999999998,78.222623 30.016722,78.21531300000001 29.583843,78.203129 29.150952,78.18607200000001 28.718044,78.16414 28.285114,78.137333 27.852159,78.10565 27.419175,78.069091 26.986157,78.027653 26.553102,77.98133700000001 26.120005,77.93014000000001 25.686862,77.87406200000001 25.253671,77.8131 24.820427,77.747254 24.387126,77.67652000000001 23.953766,77.600898 23.520342,77.520386 23.086852,77.43498100000001 22.653293,77.34468100000001 22.0,77.201261 22.0,83.748889 22.234953,83.800469 22.689639,83.89516900000001" /><polygon points="47.79179616342937,82.366314 48.28639016342937,82.437461 48.78101116342937,82.50454500000001 49.27565716342937,82.56756800000001 49.77032816342937,82.62652700000001 50.26502116342937,82.681422 50.75973516342937,82.732254 51.25446916342937,82.77902 51.74922016342937,82.82172200000001 52.24398816342937,82.860358 52.73877116342937,82.89492800000001 53.23356716342937,82.925432 53.72837516342937,82.951869 54.22319216342937,82.97424000000001 54.71801816342937,82.992543 55.212850163429366,83.00678 55.70768816342937,83.016948 56.20252916342937,83.02305 56.69737116342937,83.02508300000001 57.19221416342937,83.02305 57.687054163429366,83.016948 58.18189216342937,83.00678 58.67672416342937,82.992543 59.17155016342937,82.97424000000001 59.66636716342937,82.951869 60.16117516342937,82.925432 60.65597116342937,82.89492800000001 61.15075416342937,82.860358 61.64552216342937,82.82172200000001 62.14027316342937,82.77902 62.63500716342937,82.732254 63.129721163429366,82.681422 63.62441416342937,82.62652700000001 64.11908516342938,82.56756800000001 64.61373116342938,82.50454500000001 65.10835216342937,82.437461 65.60294616342937,82.366314 66.09751216342937,82.291106 67.42982816342938,82.077551 67.42982816342938,77.05202200000001 65.78889916342936,77.315044 65.31021916342937,77.38783600000001 64.83156716342937,77.456689 64.35294216342936,77.52160500000001 63.87434316342937,77.582582 63.395768163429366,77.639623 62.91721516342937,77.692728 62.43868416342937,77.741896 61.96017116342937,77.78713 61.48167716342937,77.828428 61.00320016342937,77.865792 60.52473716342937,77.89922200000001 60.04628716342937,77.928718 59.56784916342937,77.95428100000001 59.08942116342937,77.97591 58.61100116342937,77.993607 58.13258816342937,78.00737000000001 57.65417916342937,78.017202 57.17577416342937,78.0231 56.69737116342937,78.025067 56.218968163429366,78.0231 55.74056316342937,78.017202 55.26215516342937,78.00737000000001 54.78374116342937,77.993607 54.30532116342937,77.97591 53.82689316342937,77.95428100000001 53.34845516342937,77.928718 52.87000516342937,77.89922200000001 52.39154216342937,77.865792 51.91306516342937,77.828428 51.43457116342937,77.78713 50.95605916342937,77.741896 50.47752716342937,77.692728 49.99897516342937,77.639623 49.52039916342937,77.582582 49.04180016342937,77.52160500000001 48.56317516342937,77.456689 48.08452416342937,77.38783600000001 47.60584316342937,77.315044 46.96491416342937,77.21231 46.96491416342937,82.23784 47.29723016342937,82.291106 47.79179616342937,82.366314" /><polygon points="71.42982832685874,147.225075 79.44492832685874,147.225075 78.59894932685874,90.781343 82.82141732685875,78.219502 80.31578932685875,76.966688 79.62850732685874,77.837407 79.44504832685874,78.070339 79.26143032685874,78.304494 79.07790632685874,78.540071 78.89473232685874,78.777268 78.71216732685875,79.016289 78.53047332685874,79.257335 78.34991532685875,79.500613 78.17076132685874,79.74632700000001 77.99328432685874,79.99468300000001 77.81776032685875,80.245889 77.64446832685874,80.50015 77.47369232685874,80.757672 77.30589532685875,81.01838500000001 77.14222632685875,81.28072 76.98306932685874,81.5423 76.82770132685874,81.801935 76.67517532685875,82.058873 76.52458832685875,82.312379 76.37508332685874,82.56172500000001 76.22584532685875,82.80619800000001 76.07610332685874,83.045101 75.92512732685874,83.277761 75.77222532685875,83.503534 75.61673532685874,83.721822 75.45802032685874,83.93208 75.29542632685875,84.13385600000001 75.12723532685874,84.328021 74.95062332685875,84.51762000000001 74.76446332685875,84.70513700000001 74.56934732685875,84.891288 74.36607832685874,85.076665 74.15552832685874,85.261891 73.93861532685874,85.447631 73.44086932685875,85.866248 73.29922232685874,86.62507500000001 71.42982832685874,86.62507500000001 71.42982832685874,147.225075" /><polygon points="86.59649499352541,88.49698000000001 93.59649499352541,92.90698 100.59649499352541,88.49698000000001 100.59649499352541,77.225075 86.59649499352541,77.225075 86.59649499352541,88.49698000000001" /></g><g fill="none" id="COSTURA" stroke="#00a000" stroke-width="0.08"><polygon points="4.0,13.625075 5.7,13.625075 5.928429204607988,12.401347390113513 6.155834643476344,12.210093867930164 6.381192550865436,12.017121854486431 6.603479161035634,11.821572104152118 6.821670708247304,11.622585371297037 7.034743426760813,11.419302410290992 7.241673550836532,11.21086397550379 7.441437314734829,10.996410821305236 7.6330958888918135,10.775154340920002 7.81678446728309,10.547199160547473 7.993374652533518,10.313262355243321 8.163752431356246,10.074072962875482 8.328803790464416,9.830360021311892 8.489414716571181,9.582852568420487 8.646471196389683,9.332279642069205 8.800859216633068,9.079370280125978 8.95346476401448,8.824853520458747 9.105173825247071,8.569458400935442 9.256872387043984,8.313913959424003 9.409446436118365,8.058949233792365 9.563781959183363,7.805293261908464 9.720764872102212,7.553675023966502 9.881048752134642,7.30463437028545 10.044537830168824,7.058101163073736 10.210985552512318,6.813882521833717 10.380145365472679,6.571785566067751 10.551770715357465,6.3316174152782 10.725615048474236,6.09318518896742 10.901431811130546,5.856296006637769 11.078974449633954,5.620756987791609 11.257996410292014,5.386375251931295 11.43825113941229,5.1529579185591885 11.619492083302337,4.920312107177647 11.801472688269708,4.688244937289029 11.983946400621965,4.4565635283956935 12.166666666666666,4.225075 23.623105904056263,9.225075 23.460361814583504,9.75824499475981 23.300870329716986,10.290721754930107 23.14788405406296,10.821812045921376 23.004655592227664,11.3508226331441 22.874437548817344,11.877060282008765 22.760482528438242,12.399831757925858 22.66604313569661,12.918443826305863 22.594371975198687,13.432203252559264 22.548721651550718,13.940416802096548 22.532344769358946,14.442391240328206 22.54849393322962,14.937433332664712 22.600421747768976,15.42484984451656 22.691380817583262,15.903947541294233 22.823708200093513,16.374200554835426 22.99513520346863,16.835924970084548 23.20194801389315,17.289701047232597 23.440432304608606,17.736109140239023 23.706873748856527,18.175729603063253 23.997558019878444,18.60914278966473 24.30877079091589,19.036929054002886 24.6367977352104,19.45966875003717 24.977924526003505,19.877942231727022 25.32843683653674,20.292329853031873 25.684620340051634,20.70341196791117 26.042760709789718,21.111768930324345 26.39914361899253,21.517981094230837 26.7501940540076,21.922614955541587 27.094665483372374,22.326005386452685 27.43323742574536,22.72829566702098 27.766647317000537,23.12962331603933 28.095632593011864,23.530125852300568 28.420930689653332,23.929940794597556 28.743279042798903,24.329205661723144 29.06341508832256,24.72805797247018 29.382076262098266,25.12663524563152 29.7,25.525075 29.7,72.225075 4.0,72.225075" /><polygon points="35.7,4.225075 54.08170817696251,4.225075 54.09089231688775,4.290566051788749 54.17995339852544,4.77933384293628 54.290480784240955,5.263664820715967 54.421883119133376,5.743571981399381 54.57262908326466,6.219219464625391 54.74118309382342,6.690772095489228 54.92600956799825,7.158394699086127 55.12557292297775,7.622252100511327 55.33833757595055,8.082509124860062 55.56276794410522,8.53933059722757 55.79732844463039,8.99288134270909 56.04048349471465,9.443326186399851 56.29069751154661,9.890829953395095 56.546434912314886,10.335557468790054 56.80616011420807,10.777673557679975 57.068337534414766,11.217343045160082 57.33144852521175,11.65473149935939 57.59461564671263,12.090032621657723 57.857784626302944,12.523476230228827 58.120955231721496,12.955294514288603 58.38412723070711,13.385719663052956 58.64730039099862,13.81498386573779 58.91047448033484,14.243319311559002 59.173649266454596,14.67095818973251 59.43682451709671,15.098132689474205 59.7,15.525075000000001 59.7,62.225075 35.7,62.225075" /><polygon points="65.7,6.225075 65.93896876955267,6.225374754426456 66.17785158367383,6.225070289183117 66.41656248693194,6.223557384600191 66.65501552389546,6.220231821007884 66.8931247391329,6.214489378736403 67.13080417721271,6.20572583811595 67.36796788270335,6.193336979476737 67.60452990017335,6.176718583148966 67.84040427419113,6.155266429462845 68.07550504932519,6.128376298748579 68.30974627014399,6.095443971336376 68.54304198121602,6.05586522755644 68.775305171018,6.009040265456358 69.00638135586694,5.954651524590567 69.23600903796387,5.89282909322529 69.46391722372954,5.82374278124446 69.6898349195847,5.747562398532013 69.91349113195011,5.664457754971881 70.13461486724653,5.574598660447999 70.3529351318947,5.478154924844301 70.56818093231537,5.37529635804472 70.78008127492929,5.266192769933189 70.98836516615722,5.151013970393646 71.19282950644285,5.029985131652463 71.39380360595092,4.90376556502561 71.59186793847495,4.773219386408636 71.78760445741172,4.639211918199562 71.98159511615806,4.502608482796416 72.17442186811077,4.36427440259722 72.36666666666667,4.225075 84.02857045635727,8.725075 83.99797718527964,9.238500880169171 83.96919685894012,9.751553152928924 83.94404242207682,10.263858210869838 83.92432681942785,10.775042446582496 83.91186299573133,11.284732252657479 83.90846389572536,11.792554021685369 83.91594246414806,12.298134146256743 83.93611164573754,12.801099018962189 83.97078438523191,13.301075032392284 84.02177362736927,13.797688579137612 84.08170817696251,14.225075 65.7,14.225075" /><polygon points="90.08170817696251,12.893429816000003 90.42721710229196,12.404419669001333 90.77902945631345,11.921348398562733 91.143448667719,11.450154881244277 91.52670999544794,10.99671476839632 91.93175300478414,10.563847063599093 92.35681988988344,10.150014112780545 92.79979325610232,9.753344755051348 93.25855570879727,9.371967829522179 93.73098985332479,9.00401217530371 94.21497829504133,8.647606631506617 94.7084036393034,8.300880037241575 95.20914849146749,7.961961231619257 95.71509846355607,7.628983943328118 96.22485008149079,7.301238021753023 96.7386237257121,6.980654102764365 97.25686546083404,6.669529840157248 97.78002135147061,6.370162887726774 98.30853746223586,6.084850899268048 98.84285985774382,5.815891528576172 99.38343460260847,5.565582429446249 99.93070776144388,5.336221255673382 100.48512539886407,5.130105661052674 101.04713357948305,4.9495332993792305 101.61705655749144,4.79631139867603 102.19435082797013,4.6687534676313796 102.77809631538771,4.563656889070788 103.36737141732436,4.477812898353675 103.96125453136021,4.408012730839461 104.55882405507545,4.351047621887567 105.15915838605021,4.303708806857411 105.76133592186466,4.262787521108415 106.36443506009894,4.225075 106.95655678981318,4.289809866273649 107.5476310196794,4.357818842935664 108.1366102498496,4.432376040374413 108.72244698047572,4.516755568978258 109.30409371170978,4.614231539135568 109.88050294370376,4.72807806123471 110.45062717660963,4.861569245664048 111.01341891057936,5.017979202811949 111.56788122521772,5.200397722668744 112.11384894669496,5.40888356484219 112.65183780653383,5.6410141503971225 113.1823835682842,5.894293900177837 113.70602199549587,6.166227235028626 114.22328885171872,6.454318575793785 114.73471990050257,6.75607234331761 115.24085090539728,7.068992958444392 115.74221762995266,7.390584842018429 116.23935583771858,7.718352414884013 116.73277165329814,8.049893655787917 117.22243619817868,8.384495327150535 117.70785626647687,8.722909880955108 118.18852323752023,9.065938427301672 118.66392849063637,9.41438207629027 119.13356340515283,9.769041938020939 119.5969193603972,10.130719122593717 120.05348773569705,10.500214740108648 120.50275991037995,10.878329900665763 120.94422726377347,11.265865714365109 121.37763781019085,11.663290313082058 121.8044689807102,12.06882794864362 122.22691239982414,12.479776222698485 122.64716194323537,12.893429816000003 118.36443506009894,64.225075 94.36443506009894,64.225075" /><polygon points="128.6471619432354,5.025075 128.6625337189128,4.869002742387098 128.70805831722635,4.7189282541079285 128.78198625339337,4.580618813584318 128.88147651828615,4.459389575050762 129.0027057568197,4.359899310157964 129.14101519734334,4.285971373990971 129.29108968562247,4.240446775677416 129.4471619432354,4.225075 150.8471619432354,4.225075 151.00323420084828,4.240446775677416 151.15330868912747,4.285971373990971 151.29161812965106,4.359899310157964 151.41284736818463,4.459389575050762 151.51233763307744,4.580618813584318 151.5862655692444,4.7189282541079285 151.63179016755797,4.869002742387098 151.6471619432354,5.025075 151.6471619432354,15.425075 151.63179016755797,15.581147257612903 151.5862655692444,15.731221745892071 151.51233763307744,15.869531186415681 151.41284736818463,15.990760424949238 151.29161812965106,16.090250689842037 151.15330868912747,16.16417862600903 151.00323420084828,16.209703224322585 150.8471619432354,16.225075 129.4471619432354,16.225075 129.29108968562247,16.209703224322585 129.14101519734334,16.16417862600903 129.0027057568197,16.090250689842037 128.88147651828615,15.990760424949238 128.78198625339337,15.869531186415681 128.70805831722635,15.731221745892071 128.6625337189128,15.581147257612903 128.6471619432354,15.425075" /><polygon points="4.0,78.62507500000001 4.007685887838708,78.54703887119355 4.030448186995486,78.47200162705397 4.067412155078982,78.40284690679216 4.117157287525381,78.34223228752539 4.1777719067921595,78.29248715507899 4.2469266270539645,78.25552318699549 4.321963871193549,78.23276088783871 4.4,78.225075 15.6,78.225075 15.67803612880645,78.23276088783871 15.753073372946035,78.25552318699549 15.82222809320784,78.29248715507899 15.882842712474618,78.34223228752539 15.932587844921018,78.40284690679216 15.969551813004514,78.47200162705397 15.992314112161292,78.54703887119355 16.0,78.62507500000001 16.0,80.825075 15.992314112161292,80.90311112880646 15.969551813004514,80.97814837294604 15.932587844921018,81.04730309320784 15.882842712474618,81.10791771247462 15.82222809320784,81.15766284492102 15.753073372946035,81.19462681300452 15.67803612880645,81.2173891121613 15.6,81.225075 4.4,81.225075 4.3219638711935495,81.2173891121613 4.2469266270539645,81.19462681300452 4.1777719067921595,81.15766284492102 4.117157287525381,81.10791771247462 4.067412155078982,81.04730309320784 4.030448186995486,80.97814837294604 4.007685887838708,80.90311112880646 4.0,80.825075" /><polygon points="22.0,78.225075 22.444122854085734,78.322575 22.888245708171468,78.415075 23.3323685622572,78.50257500000001 23.77649141634294,78.585075 24.220614270428673,78.662575 24.664737124514406,78.73507500000001 25.10885997860014,78.802575 25.552982832685874,78.865075 25.997105686771608,78.92257500000001 26.441228540857345,78.975075 26.88535139494308,79.022575 27.329474249028813,79.06507500000001 27.773597103114547,79.102575 28.21771995720028,79.135075 28.661842811286014,79.162575 29.10596566537175,79.185075 29.550088519457482,79.20257500000001 29.99421137354322,79.215075 30.43833422762895,79.222575 30.882457081714687,79.225075 31.326579935800424,79.222575 31.77070278988616,79.215075 32.21482564397189,79.20257500000001 32.658948498057626,79.185075 33.10307135214336,79.162575 33.54719420622909,79.135075 33.99131706031483,79.102575 34.43543991440056,79.06507500000001 34.879562768486295,79.022575 35.32368562257203,78.975075 35.76780847665777,78.92257500000001 36.2119313307435,78.865075 36.65605418482923,78.802575 37.100177038914964,78.73507500000001 37.5442998930007,78.662575 37.98842274708644,78.585075 38.43254560117217,78.50257500000001 38.8766684552579,78.415075 39.32079130934364,78.322575 39.764914163429374,78.225075 40.96491416342937,84.725075 39.764914163429374,82.725075 39.32079130934364,82.822575 38.8766684552579,82.915075 38.43254560117217,83.00257500000001 37.98842274708644,83.085075 37.5442998930007,83.162575 37.100177038914964,83.23507500000001 36.65605418482923,83.302575 36.2119313307435,83.365075 35.76780847665777,83.42257500000001 35.32368562257203,83.475075 34.879562768486295,83.522575 34.43543991440056,83.56507500000001 33.99131706031483,83.602575 33.54719420622909,83.635075 33.10307135214336,83.662575 32.658948498057626,83.685075 32.21482564397189,83.70257500000001 31.77070278988616,83.715075 31.326579935800424,83.722575 30.882457081714687,83.725075 30.43833422762895,83.722575 29.99421137354322,83.715075 29.550088519457482,83.70257500000001 29.10596566537175,83.685075 28.661842811286014,83.662575 28.21771995720028,83.635075 27.773597103114547,83.602575 27.329474249028813,83.56507500000001 26.88535139494308,83.522575 26.441228540857345,83.475075 25.997105686771608,83.42257500000001 25.552982832685874,83.365075 25.10885997860014,83.302575 24.664737124514406,83.23507500000001 24.220614270428673,83.162575 23.77649141634294,83.085075 23.3323685622572,83.00257500000001 22.888245708171468,82.915075 22.444122854085734,82.822575 22.0,82.725075" /><polygon points="46.96491416342937,78.225075 47.45153701751511,78.303075 47.93815987160084,78.377075 48.424782725686576,78.447075 48.91140557977231,78.513075 49.398028433858045,78.575075 49.884651287943775,78.633075 50.37127414202951,78.68707500000001 50.857896996115244,78.737075 51.34451985020098,78.78307500000001 51.83114270428671,78.825075 52.31776555837245,78.86307500000001 52.80438841245818,78.897075 53.29101126654392,78.927075 53.77763412062965,78.953075 54.26425697471539,78.975075 54.75087982880112,78.993075 55.237502682886856,79.007075 55.724125536972586,79.017075 56.210748391058324,79.023075 56.697371245144055,79.025075 57.18399409922979,79.023075 57.67061695331553,79.017075 58.15723980740126,79.007075 58.64386266148699,78.993075 59.13048551557273,78.975075 59.61710836965847,78.953075 60.1037312237442,78.927075 60.59035407782993,78.897075 61.07697693191567,78.86307500000001 61.563599786001404,78.825075 62.050222640087135,78.78307500000001 62.536845494172866,78.737075 63.023468348258604,78.68707500000001 63.51009120234434,78.633075 63.99671405643007,78.575075 64.4833369105158,78.513075 64.96995976460154,78.447075 65.45658261868728,78.377075 65.943205472773,78.303075 66.42982832685874,78.225075 66.42982832685874,81.225075 65.943205472773,81.303075 65.45658261868728,81.377075 64.96995976460154,81.447075 64.4833369105158,81.513075 63.99671405643007,81.575075 63.51009120234434,81.633075 63.023468348258604,81.68707500000001 62.536845494172866,81.737075 62.050222640087135,81.783075 61.563599786001404,81.825075 61.07697693191567,81.86307500000001 60.59035407782993,81.897075 60.1037312237442,81.927075 59.61710836965847,81.953075 59.13048551557273,81.975075 58.64386266148699,81.993075 58.15723980740126,82.007075 57.67061695331553,82.017075 57.18399409922979,82.023075 56.697371245144055,82.025075 56.210748391058324,82.023075 55.724125536972586,82.017075 55.237502682886856,82.007075 54.75087982880112,81.993075 54.26425697471539,81.975075 53.77763412062965,81.953075 53.29101126654392,81.927075 52.80438841245818,81.897075 52.31776555837245,81.86307500000001 51.83114270428671,81.825075 51.34451985020098,81.783075 50.857896996115244,81.737075 50.37127414202951,81.68707500000001 49.884651287943775,81.633075 49.398028433858045,81.575075 48.91140557977231,81.513075 48.424782725686576,81.447075 47.93815987160084,81.377075 47.45153701751511,81.303075 46.96491416342937,81.225075" /><polygon points="72.42982832685874,87.62507500000001 74.12982832685874,87.62507500000001 74.35825753146673,86.40134739011351 74.5856629703351,86.21009386793017 74.81102087772418,86.01712185448643 75.03330748789438,85.82157210415212 75.25149903510605,85.62258537129703 75.46457175361955,85.419302410291 75.67150187769528,85.2108639755038 75.87126564159357,84.99641082130525 76.06292421575056,84.77515434092001 76.24661279414184,84.54719916054748 76.42320297939226,84.31326235524332 76.59358075821498,84.07407296287549 76.75863211732316,83.83036002131189 76.91924304342993,83.58285256842049 77.07629952324842,83.33227964206921 77.23068754349181,83.07937028012599 77.38329309087322,82.82485352045875 77.53500215210582,82.56945840093545 77.68670071390272,82.31391395942401 77.83927476297711,82.05894923379236 77.9936102860421,81.80529326190847 78.15059319896095,81.5536750239665 78.31087707899339,81.30463437028546 78.47436615702756,81.05810116307374 78.64081387937107,80.81388252183372 78.80997369233143,80.57178556606776 78.9815990422162,80.3316174152782 79.15544337533298,80.09318518896742 79.33126013798929,79.85629600663778 79.5088027764927,79.62075698779161 79.68782473715076,79.3863752519313 79.86807946627103,79.1529579185592 80.04932041016107,78.92031210717765 80.23130101512845,78.68824493728903 80.41377472748071,78.45656352839569 80.59649499352541,78.225075 81.59649499352541,78.725075 77.59649499352541,90.62507500000001 78.42982832685874,146.225075 72.42982832685874,146.225075" /><polygon points="87.59649499352541,78.225075 99.59649499352541,78.225075 99.59649499352541,87.945075 93.59649499352541,91.725075 87.59649499352541,87.945075" /></g><g fill="none" id="PIQUETES" stroke="#00b0b0" stroke-width="0.08"><line x1="22.413573525172318" x2="22.505257971253748" y1="15.61251509270423" y2="16.252197797134123" /><line x1="22.880026271974018" x2="22.505257971253748" y1="15.725748634559766" y2="16.252197797134123" /><line x1="29.790349773053748" x2="29.144139639223933" y1="46.70273085568957" y2="46.69920056736562" /><line x1="29.60965022694625" x2="29.144139639223933" y1="47.147419144310426" y2="46.69920056736562" /><line x1="44.65173016695775" x2="44.94207360107279" y1="4.245562805036615" y2="4.822884803808774" /><line x1="45.12997801000476" x2="44.94207360107279" y1="4.204587194963385" y2="4.822884803808774" /><line x1="75.12867347122037" x2="74.81015630375374" y1="14.192795886108996" y2="13.630526543152223" /><line x1="74.65303470574216" x2="74.81015630375374" y1="14.257354113891004" y2="13.630526543152223" /><line x1="113.98089232790579" x2="114.04685426403354" y1="6.381919764765209" y2="7.024764242833022" /><line x1="114.44242974343607" x2="114.04685426403354" y1="6.513765182075121" y2="7.024764242833022" /><line x1="97.9469568219066" x2="98.34556199399964" y1="6.222974481138301" y2="6.731613760766477" /><line x1="98.40770257946893" x2="98.34556199399964" y1="6.088388646488797" y2="6.731613760766477" /><line x1="96.6301386893727" x2="97.05438568657455" y1="6.988797570347314" y2="7.476254732942367" /><line x1="97.08334969728705" x2="97.05438568657455" y1="6.830684375751575" y2="7.476254732942367" /></g><g fill="none" id="TEXTOS" stroke="#000000" stroke-width="0.08"><text fill="#000000" font-family="sans-serif" font-size="0.9" stroke="none" text-anchor="middle" x="16.373818648407575" y="38.80996742195425">DELANTERO</text><text fill="#000000" font-family="sans-serif" font-size="0.6" stroke="none" text-anchor="middle" x="16.373818648407575" y="40.209967421954246">Pieza N.01</text><text fill="#000000" font-family="sans-serif" font-size="0.6" stroke="none" text-anchor="middle" x="16.373818648407575" y="41.609967421954245">Talla: S</text><text fill="#000000" font-family="sans-serif" font-size="0.6" stroke="none" text-anchor="middle" x="16.373818648407575" y="43.00996742195425">Cortar: 2  (par: izq + der)</text><text fill="#000000" font-family="sans-serif" font-size="0.9" stroke="none" text-anchor="middle" x="47.43322921368618" y="30.298468945145917">ESPALDA</text><text fill="#000000" font-family="sans-serif" font-size="0.6" stroke="none" text-anchor="middle" x="47.43322921368618" y="31.698468945145915">Pieza N.02</text><text fill="#000000" font-family="sans-serif" font-size="0.6" stroke="none" text-anchor="middle" x="47.43322921368618" y="33.09846894514591">Talla: S</text><text fill="#000000" font-family="sans-serif" font-size="0.6" stroke="none" text-anchor="middle" x="47.43322921368618" y="34.498468945145916">Cortar: 1  (al doblez)</text><text fill="#000000" font-family="sans-serif" font-size="0.6" stroke="none" text-anchor="middle" x="47.43322921368618" y="35.898468945145915">AL DOBLEZ</text><text fill="#000000" font-family="sans-serif" font-size="0.9" stroke="none" text-anchor="middle" x="74.33383894577457" y="6.521213975123558">CANESU</text><text fill="#000000" font-family="sans-serif" font-size="0.6" stroke="none" text-anchor="middle" x="74.33383894577457" y="7.921213975123559">Pieza N.03</text><text fill="#000000" font-family="sans-serif" font-size="0.6" stroke="none" text-anchor="middle" x="74.33383894577457" y="9.321213975123559">Talla: S</text><text fill="#000000" font-family="sans-serif" font-size="0.6" stroke="none" text-anchor="middle" x="74.33383894577457" y="10.721213975123558">Cortar: 2  (al doblez x2 (exterior+interior))</text><text fill="#000000" font-family="sans-serif" font-size="0.6" stroke="none" text-anchor="middle" x="74.33383894577457" y="12.121213975123558">AL DOBLEZ</text><text fill="#000000" font-family="sans-serif" font-size="0.9" stroke="none" text-anchor="middle" x="106.32603319191034" y="31.352232289169336">MANGA</text><text fill="#000000" font-family="sans-serif" font-size="0.6" stroke="none" text-anchor="middle" x="106.32603319191034" y="32.752232289169335">Pieza N.04</text><text fill="#000000" font-family="sans-serif" font-size="0.6" stroke="none" text-anchor="middle" x="106.32603319191034" y="34.15223228916933">Talla: S</text><text fill="#000000" font-family="sans-serif" font-size="0.6" stroke="none" text-anchor="middle" x="106.32603319191034" y="35.55223228916933">Cortar: 2  (par: izq + der)</text><text fill="#000000" font-family="sans-serif" font-size="0.9" stroke="none" text-anchor="middle" x="140.1471619432354" y="7.525075000000003">PUNO</text><text fill="#000000" font-family="sans-serif" font-size="0.6" stroke="none" text-anchor="middle" x="140.1471619432354" y="8.925075000000003">Pieza N.05</text><text fill="#000000" font-family="sans-serif" font-size="0.6" stroke="none" text-anchor="middle" x="140.1471619432354" y="10.325075000000004">Talla: S</text><text fill="#000000" font-family="sans-serif" font-size="0.6" stroke="none" text-anchor="middle" x="140.1471619432354" y="11.725075000000002">Cortar: 4  (4 (2 tela + 2 entretela))</text><text fill="#000000" font-family="sans-serif" font-size="0.9" stroke="none" text-anchor="middle" x="9.999999999999996" y="77.025075">TAPETA MANGA</text><text fill="#000000" font-family="sans-serif" font-size="0.6" stroke="none" text-anchor="middle" x="9.999999999999996" y="78.425075">Pieza N.06</text><text fill="#000000" font-family="sans-serif" font-size="0.6" stroke="none" text-anchor="middle" x="9.999999999999996" y="79.825075">Talla: S</text><text fill="#000000" font-family="sans-serif" font-size="0.6" stroke="none" text-anchor="middle" x="9.999999999999996" y="81.225075">Cortar: 2  (par)</text><text fill="#000000" font-family="sans-serif" font-size="0.9" stroke="none" text-anchor="middle" x="31.185724181112278" y="77.56584185839603">CUELLO</text><text fill="#000000" font-family="sans-serif" font-size="0.6" stroke="none" text-anchor="middle" x="31.185724181112278" y="78.96584185839603">Pieza N.07</text><text fill="#000000" font-family="sans-serif" font-size="0.6" stroke="none" text-anchor="middle" x="31.185724181112278" y="80.36584185839602">Talla: S</text><text fill="#000000" font-family="sans-serif" font-size="0.6" stroke="none" text-anchor="middle" x="31.185724181112278" y="81.76584185839603">Cortar: 2  (al doblez x2 (+ entretela))</text><text fill="#000000" font-family="sans-serif" font-size="0.6" stroke="none" text-anchor="middle" x="31.185724181112278" y="83.16584185839604">AL DOBLEZ</text><text fill="#000000" font-family="sans-serif" font-size="0.9" stroke="none" text-anchor="middle" x="56.697371245144055" y="76.658075">PIE DE CUELLO</text><text fill="#000000" font-family="sans-serif" font-size="0.6" stroke="none" text-anchor="middle" x="56.697371245144055" y="78.058075">Pieza N.08</text><text fill="#000000" font-family="sans-serif" font-size="0.6" stroke="none" text-anchor="middle" x="56.697371245144055" y="79.45807500000001">Talla: S</text><text fill="#000000" font-family="sans-serif" font-size="0.6" stroke="none" text-anchor="middle" x="56.697371245144055" y="80.858075">Cortar: 2  (al doblez x2 (+ entretela))</text><text fill="#000000" font-family="sans-serif" font-size="0.6" stroke="none" text-anchor="middle" x="56.697371245144055" y="82.258075">AL DOBLEZ</text><text fill="#000000" font-family="sans-serif" font-size="0.9" stroke="none" text-anchor="middle" x="75.45834786552238" y="112.24164849660824">VISTA DELANTERA</text><text fill="#000000" font-family="sans-serif" font-size="0.6" stroke="none" text-anchor="middle" x="75.45834786552238" y="113.64164849660823">Pieza N.09</text><text fill="#000000" font-family="sans-serif" font-size="0.6" stroke="none" text-anchor="middle" x="75.45834786552238" y="115.04164849660822">Talla: S</text><text fill="#000000" font-family="sans-serif" font-size="0.6" stroke="none" text-anchor="middle" x="75.45834786552238" y="116.44164849660822">Cortar: 2  (par: izq + der)</text><text fill="#000000" font-family="sans-serif" font-size="0.9" stroke="none" text-anchor="middle" x="93.59649499352541" y="81.38135406976744">BOLSILLO</text><text fill="#000000" font-family="sans-serif" font-size="0.6" stroke="none" text-anchor="middle" x="93.59649499352541" y="82.78135406976745">Pieza N.10</text><text fill="#000000" font-family="sans-serif" font-size="0.6" stroke="none" text-anchor="middle" x="93.59649499352541" y="84.18135406976745">Talla: S</text><text fill="#000000" font-family="sans-serif" font-size="0.6" stroke="none" text-anchor="middle" x="93.59649499352541" y="85.58135406976744">Cortar: 1  (1 (opcional))</text></g><g fill="none" id="CENTROS" stroke="#0050ff" stroke-width="0.08"><circle cx="18.9" cy="29.225075" fill="#0050ff" r="0.15" /><circle cx="110.43511678088305" cy="52.225075" fill="#0050ff" r="0.15" /></g><g fill="none" id="HILO" stroke="#c0a000" stroke-width="0.08"><line x1="17.7" x2="17.7" y1="16.625075000000002" y2="69.225075" /><line x1="17.7" x2="18.167302010770378" y1="69.225075" y2="68.11980180719654" /><line x1="17.7" x2="17.232697989229617" y1="69.225075" y2="68.11980180719654" /><line x1="17.7" x2="17.23269798922962" y1="16.625075000000002" y2="17.73034819280346" /><line x1="17.7" x2="18.167302010770378" y1="16.625075000000002" y2="17.73034819280346" /><line x1="36.2" x2="36.2" y1="7.225075" y2="59.225075" /><line x1="36.2" x2="36.66730201077038" y1="59.225075" y2="58.11980180719654" /><line x1="36.2" x2="35.73269798922962" y1="59.225075" y2="58.11980180719654" /><line x1="36.2" x2="35.73269798922962" y1="7.225075" y2="8.330348192803463" /><line x1="36.2" x2="36.66730201077038" y1="7.225075" y2="8.330348192803463" /><line x1="69.96000000000001" x2="69.96000000000001" y1="5.225075" y2="13.725075" /><line x1="69.96000000000001" x2="70.42730201077039" y1="13.725075" y2="12.619801807196538" /><line x1="69.96000000000001" x2="69.49269798922963" y1="13.725075" y2="12.619801807196538" /><line x1="69.96000000000001" x2="69.49269798922963" y1="5.225075" y2="6.330348192803463" /><line x1="69.96000000000001" x2="70.42730201077038" y1="5.225075" y2="6.330348192803463" /><line x1="106.36443506009894" x2="106.36443506009894" y1="7.692416926400002" y2="62.225075" /><line x1="106.36443506009894" x2="106.83173707086932" y1="62.225075" y2="61.11980180719654" /><line x1="106.36443506009894" x2="105.89713304932856" y1="62.225075" y2="61.11980180719654" /><line x1="106.36443506009894" x2="105.89713304932856" y1="7.692416926400002" y2="8.797690119203464" /><line x1="106.36443506009894" x2="106.83173707086932" y1="7.692416926400002" y2="8.797690119203464" /><line x1="140.1471619432354" x2="140.1471619432354" y1="4.725075" y2="15.725075" /><line x1="140.1471619432354" x2="140.61446395400577" y1="15.725075" y2="14.619801807196538" /><line x1="140.1471619432354" x2="139.679859932465" y1="15.725075" y2="14.619801807196538" /><line x1="140.1471619432354" x2="139.679859932465" y1="4.725075" y2="5.830348192803462" /><line x1="140.1471619432354" x2="140.61446395400577" y1="4.725075" y2="5.830348192803462" /><line x1="10.0" x2="10.0" y1="78.62507500000001" y2="80.825075" /><line x1="10.0" x2="10.467302010770382" y1="80.825075" y2="79.71980180719655" /><line x1="10.0" x2="9.532697989229618" y1="80.825075" y2="79.71980180719655" /><line x1="10.0" x2="9.53269798922962" y1="78.62507500000001" y2="79.73034819280346" /><line x1="10.0" x2="10.46730201077038" y1="78.62507500000001" y2="79.73034819280346" /><line x1="22.5" x2="39.264914163429374" y1="78.725075" y2="78.725075" /><line x1="39.264914163429374" x2="38.159640970625915" y1="78.725075" y2="78.25777298922962" /><line x1="39.264914163429374" x2="38.159640970625915" y1="78.725075" y2="79.19237701077039" /><line x1="22.5" x2="23.605273192803462" y1="78.725075" y2="79.19237701077039" /><line x1="22.5" x2="23.605273192803462" y1="78.725075" y2="78.25777298922962" /><line x1="47.46491416342937" x2="65.92982832685874" y1="78.62507500000001" y2="78.62507500000001" /><line x1="65.92982832685874" x2="64.82455513405529" y1="78.62507500000001" y2="78.15777298922963" /><line x1="65.92982832685874" x2="64.82455513405529" y1="78.62507500000001" y2="79.09237701077038" /><line x1="47.46491416342937" x2="48.57018735623283" y1="78.62507500000001" y2="79.09237701077038" /><line x1="47.46491416342937" x2="48.57018735623283" y1="78.62507500000001" y2="78.15777298922963" /><line x1="75.42982832685874" x2="75.42982832685874" y1="92.62507500000001" y2="143.225075" /><line x1="75.42982832685874" x2="75.89713033762912" y1="143.225075" y2="142.11980180719655" /><line x1="75.42982832685874" x2="74.96252631608836" y1="143.225075" y2="142.11980180719655" /><line x1="75.42982832685874" x2="74.96252631608836" y1="92.62507500000001" y2="93.73034819280346" /><line x1="75.42982832685874" x2="75.89713033762912" y1="92.62507500000001" y2="93.73034819280346" /><line x1="93.59649499352541" x2="93.59649499352541" y1="79.225075" y2="87.945075" /><line x1="93.59649499352541" x2="94.0637970042958" y1="87.945075" y2="86.83980180719654" /><line x1="93.59649499352541" x2="93.12919298275503" y1="87.945075" y2="86.83980180719654" /><line x1="93.59649499352541" x2="93.12919298275503" y1="79.225075" y2="80.33034819280347" /><line x1="93.59649499352541" x2="94.0637970042958" y1="79.225075" y2="80.33034819280347" /></g><g fill="none" id="DOBLEZ" stroke="#c000c0" stroke-width="0.08"><line x1="35.7" x2="35.7" y1="4.225075" y2="62.225075" /><line x1="65.7" x2="65.7" y1="4.225075" y2="14.225075" /><line x1="22.0" x2="22.0" y1="78.225075" y2="84.725075" /><line x1="46.96491416342937" x2="46.96491416342937" y1="78.225075" y2="82.025075" /></g><g fill="none" id="BOTONES" stroke="#ff8000" stroke-width="0.08"><circle cx="5.7" cy="15.125075" fill="#ff8000" r="0.55" /><circle cx="5.7" cy="23.641741666666668" fill="#ff8000" r="0.55" /><circle cx="5.7" cy="32.15840833333334" fill="#ff8000" r="0.55" /><circle cx="5.7" cy="40.675075" fill="#ff8000" r="0.55" /><circle cx="5.7" cy="49.191741666666665" fill="#ff8000" r="0.55" /><circle cx="5.7" cy="57.70840833333333" fill="#ff8000" r="0.55" /><circle cx="5.7" cy="66.225075" fill="#ff8000" r="0.55" /><circle cx="129.8471619432354" cy="10.225075" fill="#ff8000" r="0.55" /><circle cx="65.42982832685874" cy="79.725075" fill="#ff8000" r="0.55" /></g><g fill="none" id="OJAL" stroke="#ff40a0" stroke-width="0.08"><line x1="4.9" x2="6.5" y1="15.125075" y2="15.125075" /><line x1="4.9" x2="6.5" y1="23.641741666666668" y2="23.641741666666668" /><line x1="4.9" x2="6.5" y1="32.15840833333334" y2="32.15840833333334" /><line x1="4.9" x2="6.5" y1="40.675075" y2="40.675075" /><line x1="4.9" x2="6.5" y1="49.191741666666665" y2="49.191741666666665" /><line x1="4.9" x2="6.5" y1="57.70840833333333" y2="57.70840833333333" /><line x1="4.9" x2="6.5" y1="66.225075" y2="66.225075" /><line x1="150.4471619432354" x2="150.4471619432354" y1="9.425075" y2="11.025075" /></g><g fill="none" id="REFERENCIAS" stroke="#b0b0b0" stroke-width="0.08"><text fill="#000000" font-family="sans-serif" font-size="0.5" stroke="none" text-anchor="start" x="5.7" y="12.625075">CF</text><text fill="#000000" font-family="sans-serif" font-size="0.5" stroke="none" text-anchor="start" x="36.0" y="33.225075000000004">CB</text><text fill="#000000" font-family="sans-serif" font-size="0.5" stroke="none" text-anchor="start" x="140.1471619432354" y="9.425075">DOBLEZ</text><text fill="#000000" font-family="sans-serif" font-size="0.5" stroke="none" text-anchor="start" x="93.59649499352541" y="79.725075">boca</text></g></svg>