<?xml version="1.0" encoding="utf-8" ?>
<svg baseProfile="full" height="152.38920499999998cm" version="1.1" viewBox="0 0 168.0 152.38920499999998" width="168.0cm" xmlns="http://www.w3.org/2000/svg" xmlns:ev="http://www.w3.org/2001/xml-events" xmlns:xlink="http://www.w3.org/1999/xlink"><defs /><rect fill="#f7f3ea" height="144.38920499999998" stroke="#333" stroke-width="0.15" width="160.0" x="4.0" y="4.0" /><text fill="#000" font-family="sans-serif" font-size="1.4" x="4.0" y="3.0">PLANO DE CORTE — ancho 160 cm — largo 1.44 m</text><polygon fill="#cfe3f7" fill-opacity="0.5" points="4.0,74.267704 12.00722,74.267704 11.601177,17.827772 15.824922,5.262131 13.300661,4.0 12.604548000000001,4.928368 12.408809,5.189983 12.212994,5.452847 12.017382000000001,5.717166 11.822256,5.98315 11.6279,6.251011999999999 11.434603,6.520965 11.242656,6.793221 11.052355,7.067997 10.863996,7.345508 10.677882,7.6259689999999996 10.494319,7.909597 10.313615,8.196606 10.136242,8.486951000000001 9.963303,8.779094 9.795078,9.070626 9.63075,9.360295 9.469275,9.647313 9.309653,9.930903 9.150927,10.210297 8.992184,10.484739000000001 8.832553,10.753489 8.671203,11.015827 8.507341,11.271062 8.340206,11.518545 8.169058,11.757678 7.993161000000001,11.987943000000001 7.810869,12.210004 7.619404,12.426846 7.41765,12.641195 7.206278,12.853889 6.986212,13.065588 6.7584420000000005,13.27698 6.524011,13.488792 6.322425,13.667704 4.0,13.667704 4.0,74.267704" stroke="#1f6fb2" stroke-width="0.1" /><text fill="#0a3d62" font-family="sans-serif" font-size="1.6" text-anchor="middle" x="9.912461" y="39.133852">09</text><polygon fill="#cfe3f7" fill-opacity="0.5" points="16.824922,74.267704 24.832142,74.267704 24.426099,17.827772 28.649844,5.262131 26.125583,4.0 25.429470000000002,4.928368 25.233731,5.189983 25.037916000000003,5.452847 24.842304000000002,5.717166 24.647178,5.98315 24.452822,6.251011999999999 24.259525,6.520965 24.067578,6.793221 23.877277,7.067997 23.688918,7.345508 23.502804,7.6259689999999996 23.319241,7.909597 23.138537,8.196606 22.961164,8.486951000000001 22.788225,8.779094 22.62,9.070626 22.455672,9.360295 22.294197,9.647313 22.134575,9.930903 21.975849,10.210297 21.817106000000003,10.484739000000001 21.657475,10.753489 21.496125,11.015827 21.332263,11.271062 21.165128000000003,11.518545 20.99398,11.757678 20.818083,11.987943000000001 20.635791,12.210004 20.444326,12.426846 20.242572000000003,12.641195 20.031200000000002,12.853889 19.811134000000003,13.065588 19.583364,13.27698 19.348933000000002,13.488792 19.147347,13.667704 16.824922,13.667704 16.824922,74.267704" stroke="#1f6fb2" stroke-width="0.1" /><text fill="#0a3d62" font-family="sans-serif" font-size="1.6" text-anchor="middle" x="22.737383" y="39.133852">09</text><polygon fill="#cfe3f7" fill-opacity="0.5" points="29.649844,74.233067 57.349844000000004,74.233067 57.349844000000004,26.857360999999997 56.749912,26.171653999999997 56.396521,25.768483 56.040528,25.363836 55.681394,24.957849 55.318277,24.550319 54.95034,24.141047999999998 54.576750000000004,23.729844999999997 54.196687,23.316536 53.810258000000005,22.901911 53.420919,22.488083 53.034441,22.076037 52.655385,21.665301 52.288183000000004,21.255467 51.937261,20.846346999999998 51.606989,20.437973 51.30162,20.030609 51.025183999999996,19.624724 50.781365,19.22094 50.57334,18.819888 50.40363,18.421923 50.273231,18.024288 50.180244,17.618925 50.12149,17.199514999999998 50.095352000000005,16.764596 50.100468,16.313914 50.135391999999996,15.847847 50.198454,15.367222 50.287714,14.873137 50.400976,14.366815 50.535817,13.849511 50.689639,13.32245 50.859709,12.78679 51.043189999999996,12.243606999999999 51.237178,11.693886 51.438712,11.138521 51.970248,9.693617 38.924533000000004,4.0 38.254392,4.893731 38.058653,5.155346 37.862838,5.41821 37.667226,5.682529 37.472100000000005,5.948513 37.277744,6.216374999999999 37.084447000000004,6.486328 36.8925,6.758584 36.702199,7.03336 36.51384,7.310871 36.327726,7.5913319999999995 36.144163000000006,7.87496 35.963459,8.161969 35.786086000000005,8.452314000000001 35.613147,8.744457 35.444922000000005,9.035989 35.280594,9.325658 35.119119,9.612676 34.959497,9.896266 34.800771000000005,10.17566 34.642028,10.450102000000001 34.482397000000006,10.718852 34.321047,10.98119 34.157185,11.236425 33.990050000000004,11.483908 33.818902,11.723041 33.643005,11.953306000000001 33.460713,12.175367 33.269248000000005,12.392209 33.067494,12.606558 32.856122,12.819252 32.636056,13.030951 32.408286000000004,13.242343 32.173855,13.454155 31.972269,13.633067 29.649844,13.633067 29.649844,74.233067" stroke="#1f6fb2" stroke-width="0.1" /><text fill="#0a3d62" font-family="sans-serif" font-size="1.6" text-anchor="middle" x="43.499844" y="39.1165335">01</text><polygon fill="#cfe3f7" fill-opacity="0.5" points="58.349844000000004,74.233067 86.04984400000001,74.233067 86.04984400000001,26.857360999999997 85.44991200000001,26.171653999999997 85.096521,25.768483 84.74052800000001,25.363836 84.381394,24.957849 84.01827700000001,24.550319 83.65034,24.141047999999998 83.27675,23.729844999999997 82.896687,23.316536 82.51025800000001,22.901911 82.120919,22.488083 81.734441,22.076037 81.35538500000001,21.665301 80.988183,21.255467 80.637261,20.846346999999998 80.306989,20.437973 80.00162,20.030609 79.725184,19.624724 79.48136500000001,19.22094 79.27334,18.819888 79.10363000000001,18.421923 78.973231,18.024288 78.880244,17.618925 78.82149000000001,17.199514999999998 78.79535200000001,16.764596 78.800468,16.313914 78.835392,15.847847 78.898454,15.367222 78.98771400000001,14.873137 79.100976,14.366815 79.235817,13.849511 79.389639,13.32245 79.559709,12.78679 79.74319,12.243606999999999 79.937178,11.693886 80.138712,11.138521 80.670248,9.693617 67.624533,4.0 66.95439200000001,4.893731 66.75865300000001,5.155346 66.562838,5.41821 66.367226,5.682529 66.1721,5.948513 65.977744,6.216374999999999 65.784447,6.486328 65.5925,6.758584 65.40219900000001,7.03336 65.21384,7.310871 65.027726,7.5913319999999995 64.84416300000001,7.87496 64.663459,8.161969 64.486086,8.452314000000001 64.313147,8.744457 64.14492200000001,9.035989 63.980594,9.325658 63.819119,9.612676 63.659497,9.896266 63.50077100000001,10.17566 63.342028000000006,10.450102000000001 63.18239700000001,10.718852 63.021047,10.98119 62.857185,11.236425 62.69005000000001,11.483908 62.518902000000004,11.723041 62.343005000000005,11.953306000000001 62.160713,12.175367 61.96924800000001,12.392209 61.767494000000006,12.606558 61.556122,12.819252 61.336056000000006,13.030951 61.10828600000001,13.242343 60.873855000000006,13.454155 60.67226900000001,13.633067 58.349844000000004,13.633067 58.349844000000004,74.233067" stroke="#1f6fb2" stroke-width="0.1" /><text fill="#0a3d62" font-family="sans-serif" font-size="1.6" text-anchor="middle" x="72.199844" y="39.1165335">01</text><polygon fill="#cfe3f7" fill-opacity="0.5" points="91.65338100000001,66.004613 117.48208500000001,66.004613 122.094586,14.559622999999998 121.388243,13.774989999999999 120.967436,13.312847999999999 120.53796,12.851835999999999 120.09776300000001,12.395239 119.64708900000001,11.9474 119.188167,11.51006 118.721992,11.082705 118.24918400000001,10.664458 117.770352,10.254439 117.286091,9.851766999999999 116.796986,9.455561 116.30361300000001,9.064943 115.806533,8.679036 115.30564000000001,8.296466 114.798901,7.915755 114.283821,7.538259 113.759262,7.1668959999999995 113.224247,6.804792 112.677744,6.4551289999999995 112.11868700000001,6.121163 111.54599200000001,5.80625 110.958596,5.513857 110.35550500000001,5.24759 109.73737400000002,5.011762 109.10929300000001,4.809616 108.477002,4.638591 107.84275000000001,4.494111 107.208081,4.371542 106.574414,4.266382 105.943098,4.174272 105.31546600000001,4.0909949999999995 104.593968,4.0 103.85880700000001,4.05394 103.218061,4.104962 102.573491,4.164405 101.92624400000001,4.236438 101.277471,4.325369 100.628369,4.435643 99.98024000000001,4.57184 99.33465100000001,4.738636 98.695789,4.939882 98.069523,5.174805 97.45815800000001,5.439152 96.86110000000001,5.729414 96.27751800000001,6.042254 95.70653000000001,6.374447 95.147238,6.722872 94.598757,7.084489 94.060236,7.456322999999999 93.53086,7.835451 93.00904100000001,8.2196 92.49182300000001,8.609293000000001 91.97859500000001,9.007759 91.47119500000001,9.417183999999999 90.97183700000001,9.839547 90.482792,10.276864 90.00640600000001,10.731176 89.545118,11.204525 89.101477,11.698924 88.67864200000001,12.215724 88.282289,12.750982 87.912518,13.294198000000002 87.56332,13.837394 87.04984400000001,14.659607999999999 91.65338100000001,66.004613" stroke="#1f6fb2" stroke-width="0.1" /><text fill="#0a3d62" font-family="sans-serif" font-size="1.6" text-anchor="middle" x="104.572215" y="35.0023065">04</text><polygon fill="#cfe3f7" fill-opacity="0.5" points="127.69812300000001,66.004613 153.526827,66.004613 158.139328,14.559622999999998 157.432985,13.774989999999999 157.012178,13.312847999999999 156.582702,12.851835999999999 156.142505,12.395239 155.691831,11.9474 155.232909,11.51006 154.766734,11.082705 154.293926,10.664458 153.81509400000002,10.254439 153.330833,9.851766999999999 152.84172800000002,9.455561 152.348355,9.064943 151.85127500000002,8.679036 151.350382,8.296466 150.84364300000001,7.915755 150.328563,7.538259 149.80400400000002,7.1668959999999995 149.268989,6.804792 148.722486,6.4551289999999995 148.163429,6.121163 147.590734,5.80625 147.003338,5.513857 146.400247,5.24759 145.782116,5.011762 145.15403500000002,4.809616 144.521744,4.638591 143.887492,4.494111 143.252823,4.371542 142.619156,4.266382 141.98784,4.174272 141.360208,4.0909949999999995 140.63871,4.0 139.903549,4.05394 139.26280300000002,4.104962 138.618233,4.164405 137.970986,4.236438 137.322213,4.325369 136.673111,4.435643 136.024982,4.57184 135.379393,4.738636 134.740531,4.939882 134.11426500000002,5.174805 133.5029,5.439152 132.905842,5.729414 132.32226,6.042254 131.751272,6.374447 131.19198,6.722872 130.64349900000002,7.084489 130.10497800000002,7.456322999999999 129.575602,7.835451 129.053783,8.2196 128.536565,8.609293000000001 128.023337,9.007759 127.51593700000001,9.417183999999999 127.01657900000001,9.839547 126.527534,10.276864 126.05114800000001,10.731176 125.58986,11.204525 125.146219,11.698924 124.72338400000001,12.215724 124.327031,12.750982 123.95726,13.294198000000002 123.608062,13.837394 123.094586,14.659607999999999 127.69812300000001,66.004613" stroke="#1f6fb2" stroke-width="0.1" /><text fill="#0a3d62" font-family="sans-serif" font-size="1.6" text-anchor="middle" x="140.616957" y="35.0023065">04</text><polygon fill="#cfe3f7" fill-opacity="0.5" points="66.0,87.966392 65.54488,87.279729 65.256334,86.84411399999999 64.967847,86.408048 64.679368,85.971184 64.390845,85.533176 64.102226,85.09367599999999 63.81346,84.65233799999999 63.524504,84.208831 63.235746,83.76344 62.948979,83.317216 62.666720999999995,82.870756 62.391082,82.42400799999999 62.124128999999996,81.97692599999999 61.867903,81.52950899999999 61.624413000000004,81.081797 61.39562,80.633862 61.18343,80.1858 60.989674,79.73771199999999 60.816095000000004,79.28968599999999 60.664342000000005,78.84176 60.535945,78.39383199999999 60.431893,77.94394399999999 60.351451,77.488163 60.292833,77.024293 60.254642000000004,76.552268 60.203385999999995,75.267704 35.0,75.267704 35.0,135.26770399999998 66.0,135.26770399999998 66.0,87.966392 4.0,87.966392 4.455120000000001,87.279729 4.743666000000001,86.84411399999999 5.032153000000001,86.408048 5.320632,85.971184 5.609155000000001,85.533176 5.897773999999998,85.09367599999999 6.186540000000001,84.65233799999999 6.475496,84.208831 6.764254000000001,83.76344 7.051020999999999,83.317216 7.333279000000001,82.870756 7.608917999999999,82.42400799999999 7.875871,81.97692599999999 8.132097000000002,81.52950899999999 8.375587,81.081797 8.604379999999999,80.633862 8.816569999999999,80.1858 9.010326,79.73771199999999 9.183905,79.28968599999999 9.335657999999999,78.84176 9.464054999999998,78.39383199999999 9.568107000000001,77.94394399999999 9.648549,77.488163 9.707166999999998,77.024293 9.745358,76.552268 9.796614000000002,75.267704 35.0,75.267704 35.0,135.26770399999998 4.0,135.26770399999998 4.0,87.966392" stroke="#1f6fb2" stroke-width="0.1" /><text fill="#0a3d62" font-family="sans-serif" font-size="1.6" text-anchor="middle" x="35.0" y="105.267704">02</text><polygon fill="#cfe3f7" fill-opacity="0.5" points="67.0,86.539609 74.0,90.949609 81.0,86.539609 81.0,75.267704 67.0,75.267704 67.0,86.539609" stroke="#1f6fb2" stroke-width="0.1" /><text fill="#0a3d62" font-family="sans-serif" font-size="1.6" text-anchor="middle" x="74.0" y="83.1086565">10</text><polygon fill="#cfe3f7" fill-opacity="0.5" points="82.0,87.516831 82.029841,87.81981099999999 82.132547,88.158386 82.299332,88.47041899999999 82.523786,88.743918 82.797285,88.96837199999999 83.109318,89.13515699999999 83.447893,89.23786299999999 83.750873,89.267704 105.249127,89.267704 105.552107,89.23786299999999 105.890682,89.13515699999999 106.202715,88.96837199999999 106.476214,88.743918 106.70066800000001,88.47041899999999 106.867453,88.158386 106.970159,87.81981099999999 107.0,87.516831 107.0,77.018577 106.970159,76.71559699999999 106.867453,76.377022 106.70066800000001,76.064989 106.476214,75.79149 106.202715,75.567036 105.890682,75.400251 105.552107,75.297545 105.249127,75.267704 83.750873,75.267704 83.447893,75.297545 83.109318,75.400251 82.797285,75.567036 82.523786,75.79149 82.299332,76.064989 82.132547,76.377022 82.029841,76.71559699999999 82.0,77.018577 82.0,87.516831" stroke="#1f6fb2" stroke-width="0.1" /><text fill="#0a3d62" font-family="sans-serif" font-size="1.6" text-anchor="middle" x="94.5" y="82.267704">05</text><polygon fill="#cfe3f7" fill-opacity="0.5" points="108.0,87.516831 108.029841,87.81981099999999 108.132547,88.158386 108.299332,88.47041899999999 108.523786,88.743918 108.797285,88.96837199999999 109.109318,89.13515699999999 109.447893,89.23786299999999 109.750873,89.267704 131.249127,89.267704 131.552107,89.23786299999999 131.890682,89.13515699999999 132.202715,88.96837199999999 132.476214,88.743918 132.700668,88.47041899999999 132.867453,88.158386 132.970159,87.81981099999999 133.0,87.516831 133.0,77.018577 132.970159,76.71559699999999 132.867453,76.377022 132.700668,76.064989 132.476214,75.79149 132.202715,75.567036 131.890682,75.400251 131.552107,75.297545 131.249127,75.267704 109.750873,75.267704 109.447893,75.297545 109.109318,75.400251 108.797285,75.567036 108.523786,75.79149 108.299332,76.064989 108.132547,76.377022 108.029841,76.71559699999999 108.0,77.018577 108.0,87.516831" stroke="#1f6fb2" stroke-width="0.1" /><text fill="#0a3d62" font-family="sans-serif" font-size="1.6" text-anchor="middle" x="120.5" y="82.267704">05</text><polygon fill="#cfe3f7" fill-opacity="0.5" points="43.109812000000005,147.19376799999998 43.108270000000005,146.70608699999997 43.12286,146.21110399999998 43.152042,145.709253 43.194218,145.201 43.247736,144.68682499999997 43.310889,144.16720899999999 43.381927000000005,143.642622 43.459058,143.11351599999998 43.540457,142.58031899999997 43.748646,141.24658999999997 30.845692,136.26770399999998 30.206584,136.70181499999998 30.003755,136.838304 29.803425,136.97060199999999 29.605097,137.09790099999998 29.408291,137.219451 29.212533,137.33456299999997 29.016683,137.44298099999997 28.818733,137.54525499999997 28.617676,137.64189399999998 28.4137,137.73280499999998 28.207108,137.81784299999998 27.998204,137.896867 27.787293000000002,137.969744 27.574684,138.03634499999998 27.360684,138.096546 27.145601,138.150232 26.929644,138.19731299999998 26.712166,138.237902 26.492015000000002,138.27248899999998 26.268762000000002,138.30156399999998 26.04241,138.32554899999997 25.81299,138.34487699999997 25.580557,138.35999599999997 25.345178,138.37136999999998 25.106932,138.37948199999997 24.865904,138.38483 24.622182000000002,138.38793399999997 24.375856,138.38932599999998 24.127012,138.389561 23.874323,138.38920399999998 23.874323,148.38920499999998 43.157512,148.38920499999998 43.109812000000005,147.19376799999998 4.638833999999999,147.19376799999998 4.640376,146.70608699999997 4.6257860000000015,146.21110399999998 4.596603999999999,145.709253 4.5544280000000015,145.201 4.500910000000001,144.68682499999997 4.437757000000001,144.16720899999999 4.366719,143.642622 4.289588000000002,143.11351599999998 4.208189000000001,142.58031899999997 4.0,141.24658999999997 16.902954,136.26770399999998 17.542062,136.70181499999998 17.744891,136.838304 17.945221,136.97060199999999 18.143549,137.09790099999998 18.340355000000002,137.219451 18.536113,137.33456299999997 18.731963,137.44298099999997 18.929913,137.54525499999997 19.13097,137.64189399999998 19.334946000000002,137.73280499999998 19.541538,137.81784299999998 19.750442,137.896867 19.961353000000003,137.969744 20.173962,138.03634499999998 20.387962,138.096546 20.603045,138.150232 20.819002,138.19731299999998 21.03648,138.237902 21.256631,138.27248899999998 21.479884,138.30156399999998 21.706236,138.32554899999997 21.935656,138.34487699999997 22.168089000000002,138.35999599999997 22.403468,138.37136999999998 22.641714,138.37948199999997 22.882742,138.38483 23.126464,138.38793399999997 23.372790000000002,138.38932599999998 23.621634,138.389561 23.874323,138.38920399999998 23.874323,148.38920499999998 4.591134,148.38920499999998 4.638833999999999,147.19376799999998" stroke="#1f6fb2" stroke-width="0.1" /><text fill="#0a3d62" font-family="sans-serif" font-size="1.6" text-anchor="middle" x="23.874323" y="142.3284545">03</text><polygon fill="#cfe3f7" fill-opacity="0.5" points="67.404015,143.12268099999997 67.895505,143.211978 68.387048,143.296181 68.878641,143.37528899999998 69.370282,143.4493 69.86196699999999,143.51821299999997 70.35369399999999,143.58202699999998 70.84546,143.64074 71.337261,143.69435199999998 71.829095,143.74286099999998 72.320959,143.78626699999998 72.812849,143.82456799999997 73.304762,143.85776399999997 73.796695,143.885854 74.288645,143.90883699999998 74.780608,143.92671399999998 75.272582,143.939483 75.764562,143.94714499999998 76.256545,143.94969799999998 76.748528,143.94714499999998 77.240508,143.939483 77.732482,143.92671399999998 78.224445,143.90883699999998 78.716395,143.885854 79.208328,143.85776399999997 79.700241,143.82456799999997 80.19213099999999,143.78626699999998 80.68399500000001,143.74286099999998 81.175829,143.69435199999998 81.66763,143.64074 82.159396,143.58202699999998 82.651123,143.51821299999997 83.142808,143.4493 83.63444899999999,143.37528899999998 84.126042,143.296181 84.61758499999999,143.211978 85.10907499999999,143.12268099999997 85.39342400000001,143.06806699999999 87.445146,146.48760399999998 88.50036399999999,146.088621 86.68727200000001,136.26770399999998 85.21345600000001,136.56607699999998 84.741687,136.65668899999997 84.269973,136.74239199999997 83.79831200000001,136.82318899999999 83.326701,136.89908099999997 82.85513800000001,136.97007 82.38361900000001,137.03615699999997 81.91214199999999,137.09734299999997 81.440704,137.15363 80.969301,137.20501799999997 80.497931,137.25150899999997 80.026591,137.29310299999997 79.55527699999999,137.32980199999997 79.08398600000001,137.361606 78.61271500000001,137.38851599999998 78.14146099999999,137.410533 77.67022,137.42765599999998 77.19899000000001,137.43988699999997 76.727766,137.44722499999997 76.256545,137.449672 75.785324,137.44722499999997 75.3141,137.43988699999997 74.84287,137.42765599999998 74.371629,137.410533 73.900375,137.38851599999998 73.429104,137.361606 72.957813,137.32980199999997 72.486499,137.29310299999997 72.015159,137.25150899999997 71.543789,137.20501799999997 71.072386,137.15363 70.600948,137.09734299999997 70.129471,137.03615699999997 69.657952,136.97007 69.18638899999999,136.89908099999997 68.714778,136.82318899999999 68.243117,136.74239199999997 67.77140299999999,136.65668899999997 67.299634,136.56607699999998 66.624505,136.429398 66.624505,142.96997199999998 66.91257999999999,143.028293 67.404015,143.12268099999997 65.844995,143.12268099999997 65.353505,143.211978 64.861962,143.296181 64.370369,143.37528899999998 63.878727999999995,143.4493 63.387043,143.51821299999997 62.895316,143.58202699999998 62.403549999999996,143.64074 61.911749,143.69435199999998 61.419915,143.74286099999998 60.928050999999996,143.78626699999998 60.436161,143.82456799999997 59.944248,143.85776399999997 59.452315,143.885854 58.960364999999996,143.90883699999998 58.468402,143.92671399999998 57.976428,143.939483 57.484448,143.94714499999998 56.992464999999996,143.94969799999998 56.500482,143.94714499999998 56.008502,143.939483 55.516528,143.92671399999998 55.024564999999996,143.90883699999998 54.532615,143.885854 54.040682,143.85776399999997 53.548769,143.82456799999997 53.056878999999995,143.78626699999998 52.565015,143.74286099999998 52.073181,143.69435199999998 51.581379999999996,143.64074 51.089614,143.58202699999998 50.597887,143.51821299999997 50.106201999999996,143.4493 49.614560999999995,143.37528899999998 49.122968,143.296181 48.631425,143.211978 48.139934999999994,143.12268099999997 47.855586,143.06806699999999 45.803864000000004,146.48760399999998 44.748646,146.088621 46.561738,136.26770399999998 48.035554,136.56607699999998 48.507323,136.65668899999997 48.979037,136.74239199999997 49.450698,136.82318899999999 49.922309,136.89908099999997 50.393872,136.97007 50.865391,137.03615699999997 51.336867999999996,137.09734299999997 51.808306,137.15363 52.279709,137.20501799999997 52.751079,137.25150899999997 53.222419,137.29310299999997 53.693733,137.32980199999997 54.165024,137.361606 54.636295,137.38851599999998 55.107549,137.410533 55.57879,137.42765599999998 56.05002,137.43988699999997 56.521243999999996,137.44722499999997 56.992464999999996,137.449672 57.463685999999996,137.44722499999997 57.93491,137.43988699999997 58.40614,137.42765599999998 58.877381,137.410533 59.348635,137.38851599999998 59.819906,137.361606 60.291197,137.32980199999997 60.762511,137.29310299999997 61.233851,137.25150899999997 61.705220999999995,137.20501799999997 62.176624000000004,137.15363 62.648061999999996,137.09734299999997 63.119539,137.03615699999997 63.591058000000004,136.97007 64.06262100000001,136.89908099999997 64.534232,136.82318899999999 65.005893,136.74239199999997 65.477607,136.65668899999997 65.949376,136.56607699999998 66.624505,136.429398 66.624505,142.96997199999998 66.33643000000001,143.028293 65.844995,143.12268099999997" stroke="#1f6fb2" stroke-width="0.1" /><text fill="#0a3d62" font-family="sans-serif" font-size="1.6" text-anchor="middle" x="66.624505" y="141.37765399999998">07</text><polygon fill="#cfe3f7" fill-opacity="0.5" points="112.37654899999998,141.57024599999997 112.90808399999999,141.64123899999998 113.43964,141.70817799999998 113.971216,141.77106199999997 114.50281199999999,141.82989099999998 115.034426,141.88466499999998 115.56605699999999,141.93538399999997 116.097704,141.98204599999997 116.62936499999999,142.02465099999998 117.16103899999999,142.0632 117.692725,142.097692 118.22442199999999,142.12812699999998 118.75612799999999,142.15450399999997 119.28784199999998,142.17682399999998 119.81956199999999,142.19508599999998 120.35128799999998,142.20928899999998 120.88301799999999,142.21943499999998 121.41475,142.22552199999998 121.946484,142.22755099999998 122.478218,142.22552199999998 123.00994999999999,142.21943499999998 123.54167999999999,142.20928899999998 124.07340599999999,142.19508599999998 124.60512599999998,142.17682399999998 125.13683999999999,142.15450399999997 125.66854599999999,142.12812699999998 126.20024299999999,142.097692 126.731929,142.0632 127.26360299999999,142.02465099999998 127.79526399999999,141.98204599999997 128.326911,141.93538399999997 128.858542,141.88466499999998 129.390156,141.82989099999998 129.921752,141.77106199999997 130.453328,141.70817799999998 130.984884,141.64123899999998 131.51641899999998,141.57024599999997 132.04793,141.49519999999998 133.42852399999998,141.289732 133.42852399999998,136.26770399999998 131.76091399999999,136.515888 131.24422099999998,136.58884199999997 130.727552,136.65784899999997 130.21090399999997,136.72290999999998 129.694276,136.78402599999998 129.17766799999998,136.841197 128.66107799999997,136.894423 128.14450499999998,136.94370399999997 127.62794799999999,136.98904199999998 127.11140499999999,137.03043699999998 126.59487499999999,137.06788799999998 126.07835699999998,137.101396 125.56184999999999,137.13096099999999 125.045352,137.15658399999998 124.52886199999999,137.17826399999998 124.01237799999998,137.196002 123.49589999999999,137.20979899999998 122.97942599999999,137.219653 122.462954,137.225566 121.946484,137.22753699999998 121.43001399999999,137.225566 120.91354199999999,137.219653 120.39706799999999,137.20979899999998 119.88058999999998,137.196002 119.36410599999999,137.17826399999998 118.84761599999999,137.15658399999998 118.33111799999999,137.13096099999999 117.81461099999999,137.101396 117.298093,137.06788799999998 116.78156299999999,137.03043699999998 116.26501999999999,136.98904199999998 115.74846299999999,136.94370399999997 115.23188999999999,136.894423 114.71529999999998,136.841197 114.198692,136.78402599999998 113.682064,136.72290999999998 113.165416,136.65784899999997 112.64874699999999,136.58884199999997 112.13205399999998,136.515888 111.46444399999999,136.41653 111.46444399999999,141.43855799999997 111.84503799999999,141.49519999999998 112.37654899999998,141.57024599999997 110.55233899999999,141.57024599999997 110.020804,141.64123899999998 109.48924799999999,141.70817799999998 108.95767199999999,141.77106199999997 108.426076,141.82989099999998 107.89446199999999,141.88466499999998 107.36283099999999,141.93538399999997 106.831184,141.98204599999997 106.299523,142.02465099999998 105.76784899999998,142.0632 105.23616299999999,142.097692 104.704466,142.12812699999998 104.17275999999998,142.15450399999997 103.64104599999999,142.17682399999998 103.109326,142.19508599999998 102.57759999999999,142.20928899999998 102.04587,142.21943499999998 101.51413799999999,142.22552199999998 100.98240399999999,142.22755099999998 100.45066999999999,142.22552199999998 99.918938,142.21943499999998 99.38720799999999,142.20928899999998 98.855482,142.19508599999998 98.32376199999999,142.17682399999998 97.792048,142.15450399999997 97.260342,142.12812699999998 96.72864499999999,142.097692 96.19695899999999,142.0632 95.66528499999998,142.02465099999998 95.133624,141.98204599999997 94.60197699999999,141.93538399999997 94.07034599999999,141.88466499999998 93.53873199999998,141.82989099999998 93.00713599999999,141.77106199999997 92.47555999999999,141.70817799999998 91.94400399999999,141.64123899999998 91.41246899999999,141.57024599999997 90.88095799999999,141.49519999999998 89.50036399999999,141.289732 89.50036399999999,136.26770399999998 91.16797399999999,136.515888 91.68466699999999,136.58884199999997 92.201336,136.65784899999997 92.71798399999999,136.72290999999998 93.234612,136.78402599999998 93.75121999999999,136.841197 94.26781,136.894423 94.78438299999999,136.94370399999997 95.30094,136.98904199999998 95.817483,137.03043699999998 96.33401299999998,137.06788799999998 96.85053099999999,137.101396 97.367038,137.13096099999999 97.88353599999999,137.15658399999998 98.400026,137.17826399999998 98.91650999999999,137.196002 99.432988,137.20979899999998 99.94946199999998,137.219653 100.46593399999999,137.225566 100.98240399999999,137.22753699999998 101.49887399999999,137.225566 102.015346,137.219653 102.53181999999998,137.20979899999998 103.04829799999999,137.196002 103.564782,137.17826399999998 104.08127199999998,137.15658399999998 104.59777,137.13096099999999 105.11427699999999,137.101396 105.63079499999999,137.06788799999998 106.147325,137.03043699999998 106.663868,136.98904199999998 107.18042499999999,136.94370399999997 107.696998,136.894423 108.21358799999999,136.841197 108.73019599999999,136.78402599999998 109.24682399999999,136.72290999999998 109.763472,136.65784899999997 110.28014099999999,136.58884199999997 110.79683399999999,136.515888 111.46444399999999,136.41653 111.46444399999999,141.43855799999997 111.08384999999998,141.49519999999998 110.55233899999999,141.57024599999997" stroke="#1f6fb2" stroke-width="0.1" /><text fill="#0a3d62" font-family="sans-serif" font-size="1.6" text-anchor="middle" x="111.46444399999999" y="139.2476275">08</text><polygon fill="#cfe3f7" fill-opacity="0.5" points="134.42852399999998,139.91683099999997 134.45067899999998,140.14177399999997 134.530622,140.40531199999998 134.660443,140.64818999999997 134.835153,140.86107499999997 135.048038,141.03578499999998 135.29091599999998,141.16560599999997 135.554454,141.24554899999998 135.779397,141.26770399999998 147.07765099999997,141.26770399999998 147.30259399999997,141.24554899999998 147.56613199999998,141.16560599999997 147.80900999999997,141.03578499999998 148.02189499999997,140.86107499999997 148.19660499999998,140.64818999999997 148.32642599999997,140.40531199999998 148.40636899999998,140.14177399999997 148.42852399999998,139.91683099999997 148.42852399999998,137.618577 148.40636899999998,137.393634 148.32642599999997,137.13009599999998 148.19660499999998,136.887218 148.02189499999997,136.674333 147.80900999999997,136.49962299999999 147.56613199999998,136.369802 147.30259399999997,136.28985899999998 147.07765099999997,136.26770399999998 135.779397,136.26770399999998 135.554454,136.28985899999998 135.29091599999998,136.369802 135.048038,136.49962299999999 134.835153,136.674333 134.660443,136.887218 134.530622,137.13009599999998 134.45067899999998,137.393634 134.42852399999998,137.618577 134.42852399999998,139.91683099999997" stroke="#1f6fb2" stroke-width="0.1" /><text fill="#0a3d62" font-family="sans-serif" font-size="1.6" text-anchor="middle" x="141.42852399999998" y="138.76770399999998">06</text><polygon fill="#cfe3f7" fill-opacity="0.5" points="149.42852399999998,139.91683099999997 149.45067899999998,140.14177399999997 149.530622,140.40531199999998 149.660443,140.64818999999997 149.835153,140.86107499999997 150.048038,141.03578499999998 150.29091599999998,141.16560599999997 150.554454,141.24554899999998 150.779397,141.26770399999998 162.07765099999997,141.26770399999998 162.30259399999997,141.24554899999998 162.56613199999998,141.16560599999997 162.80900999999997,141.03578499999998 163.02189499999997,140.86107499999997 163.19660499999998,140.64818999999997 163.32642599999997,140.40531199999998 163.40636899999998,140.14177399999997 163.42852399999998,139.91683099999997 163.42852399999998,137.618577 163.40636899999998,137.393634 163.32642599999997,137.13009599999998 163.19660499999998,136.887218 163.02189499999997,136.674333 162.80900999999997,136.49962299999999 162.56613199999998,136.369802 162.30259399999997,136.28985899999998 162.07765099999997,136.26770399999998 150.779397,136.26770399999998 150.554454,136.28985899999998 150.29091599999998,136.369802 150.048038,136.49962299999999 149.835153,136.674333 149.660443,136.887218 149.530622,137.13009599999998 149.45067899999998,137.393634 149.42852399999998,137.618577 149.42852399999998,139.91683099999997" stroke="#1f6fb2" stroke-width="0.1" /><text fill="#0a3d62" font-family="sans-serif" font-size="1.6" text-anchor="middle" x="156.42852399999998" y="138.76770399999998">06</text></svg>