<?xml version="1.0" encoding="utf-8" ?>
<svg baseProfile="full" height="224.228836cm" version="1.1" viewBox="0 0 118.0 224.228836" width="118.0cm" xmlns="http://www.w3.org/2000/svg" xmlns:ev="http://www.w3.org/2001/xml-events" xmlns:xlink="http://www.w3.org/1999/xlink"><defs /><rect fill="#f7f3ea" height="216.228836" stroke="#333" stroke-width="0.15" width="110.0" x="4.0" y="4.0" /><text fill="#000" font-family="sans-serif" font-size="1.4" x="4.0" y="3.0">PLANO DE CORTE — ancho 110 cm — largo 2.16 m</text><polygon fill="#cfe3f7" fill-opacity="0.5" points="4.0,74.249961 12.016318,74.249961 11.102651,17.805645 15.324922,5.244388 12.836147,4.0 12.148354000000001,4.831521 11.966821,5.051469 11.78508,5.272634 11.603374,5.495214 11.421947,5.719409000000001 11.241047,5.945421 11.060925000000001,6.173453 10.881836,6.403711 10.704037,6.636402 10.527788000000001,6.871732 10.353356,7.109908 10.181009,7.3511370000000005 10.011021,7.595626 9.843862,7.843293 9.680727000000001,8.092547 9.52206,8.341023 9.367178,8.58755 9.215175,8.831378 9.065190000000001,9.071772 8.916409,9.308008000000001 8.768061,9.539376 8.619417,9.765184 8.469793,9.984765 8.318541,10.197486 8.165041,10.402757000000001 8.008697999999999,10.600048000000001 7.848885,10.788939 7.683755,10.970448000000001 7.510444,11.147644 7.327877,11.322816 7.136627000000001,11.496621999999999 6.937446,11.669635 6.731152,11.842462000000001 6.518610000000001,12.015755 5.985912000000001,12.442287 5.824653,13.649961000000001 4.0,13.649961000000001 4.0,74.249961" stroke="#1f6fb2" stroke-width="0.1" /><text fill="#0a3d62" font-family="sans-serif" font-size="1.6" text-anchor="middle" x="9.662461" y="39.1249805">09</text><polygon fill="#cfe3f7" fill-opacity="0.5" points="16.324922,74.249961 24.34124,74.249961 23.427573000000002,17.805645 27.649844,5.244388 25.161069,4.0 24.473276000000002,4.831521 24.291743,5.051469 24.110002,5.272634 23.928296000000003,5.495214 23.746869,5.719409000000001 23.565969000000003,5.945421 23.385847000000002,6.173453 23.206758,6.403711 23.028959,6.636402 22.852710000000002,6.871732 22.678278,7.109908 22.505931,7.3511370000000005 22.335943,7.595626 22.168784000000002,7.843293 22.005649000000002,8.092547 21.846982,8.341023 21.6921,8.58755 21.540097000000003,8.831378 21.390112000000002,9.071772 21.241331000000002,9.308008000000001 21.092983,9.539376 20.944339,9.765184 20.794715,9.984765 20.643463,10.197486 20.489963000000003,10.402757000000001 20.33362,10.600048000000001 20.173807,10.788939 20.008677000000002,10.970448000000001 19.835366,11.147644 19.652799,11.322816 19.461549,11.496621999999999 19.262368000000002,11.669635 19.056074000000002,11.842462000000001 18.843532,12.015755 18.310834,12.442287 18.149575000000002,13.649961000000001 16.324922,13.649961000000001 16.324922,74.249961" stroke="#1f6fb2" stroke-width="0.1" /><text fill="#0a3d62" font-family="sans-serif" font-size="1.6" text-anchor="middle" x="21.987383" y="39.1249805">09</text><polygon fill="#cfe3f7" fill-opacity="0.5" points="28.649844,74.21784 56.349844000000004,74.21784 56.349844000000004,25.679382 55.846377000000004,25.020819 55.547948000000005,24.631024 55.247834,24.240163 54.945727000000005,23.848405 54.641106,23.455645999999998 54.333453000000006,23.061783 54.02225,22.666715 53.706979000000004,22.270348 53.387147999999996,21.872616999999998 53.063092,21.474411 52.737573,21.077533 52.414434,20.682646 52.09664,20.28931 51.787084,19.897123 51.488641,19.505798 51.204144,19.115155 50.936358999999996,18.72512 50.687949,18.33571 50.461427,17.947006000000002 50.259109,17.559107 50.083062,17.172049 49.935069,16.785689 49.816344,16.398586 49.726433,16.005012 49.662861,15.599468 49.623884000000004,15.180768 49.60798,14.749127000000001 49.613533000000004,14.305094 49.638774,13.849440000000001 49.68177,13.383072 49.74043,12.906955 49.812527,12.422057 49.895719,11.929324 49.987567,11.429647 50.085558000000006,10.923856 50.343958,9.623273000000001 37.459422,4.0 36.798198,4.7994 36.616665000000005,5.019348 36.434924,5.240513 36.253218000000004,5.463093 36.071791000000005,5.687288000000001 35.890891,5.9133 35.710769,6.141332 35.53168,6.37159 35.353881,6.604281 35.177632,6.839611 35.0032,7.077787 34.830853000000005,7.319016 34.660865,7.563505 34.493706,7.811172 34.330571,8.060426 34.171904,8.308902 34.017022000000004,8.555429 33.865019000000004,8.799257 33.715034,9.039651 33.566253,9.275887 33.417905000000005,9.507255 33.269261,9.733063 33.119637000000004,9.952644 32.968385,10.165365 32.814885000000004,10.370636000000001 32.658542000000004,10.567927000000001 32.498729000000004,10.756817999999999 32.333599,10.938327000000001 32.160288,11.115523 31.977721000000003,11.290695 31.786471000000002,11.464500999999998 31.587290000000003,11.637514 31.380996000000003,11.810341000000001 31.168454,11.983633999999999 30.635756,12.410166 30.474497000000003,13.617840000000001 28.649844,13.617840000000001 28.649844,74.21784" stroke="#1f6fb2" stroke-width="0.1" /><text fill="#0a3d62" font-family="sans-serif" font-size="1.6" text-anchor="middle" x="42.499844" y="39.10892">01</text><polygon fill="#cfe3f7" fill-opacity="0.5" points="57.349844000000004,74.21784 85.04984400000001,74.21784 85.04984400000001,25.679382 84.546377,25.020819 84.24794800000001,24.631024 83.947834,24.240163 83.64572700000001,23.848405 83.341106,23.455645999999998 83.03345300000001,23.061783 82.72225,22.666715 82.406979,22.270348 82.087148,21.872616999999998 81.763092,21.474411 81.437573,21.077533 81.114434,20.682646 80.79664,20.28931 80.48708400000001,19.897123 80.188641,19.505798 79.904144,19.115155 79.636359,18.72512 79.387949,18.33571 79.161427,17.947006000000002 78.95910900000001,17.559107 78.783062,17.172049 78.635069,16.785689 78.516344,16.398586 78.426433,16.005012 78.36286100000001,15.599468 78.323884,15.180768 78.30798,14.749127000000001 78.313533,14.305094 78.338774,13.849440000000001 78.38177,13.383072 78.44043,12.906955 78.512527,12.422057 78.595719,11.929324 78.687567,11.429647 78.78555800000001,10.923856 79.043958,9.623273000000001 66.159422,4.0 65.498198,4.7994 65.316665,5.019348 65.134924,5.240513 64.953218,5.463093 64.77179100000001,5.687288000000001 64.590891,5.9133 64.410769,6.141332 64.23168000000001,6.37159 64.053881,6.604281 63.877632000000006,6.839611 63.7032,7.077787 63.53085300000001,7.319016 63.360865000000004,7.563505 63.193706000000006,7.811172 63.030571,8.060426 62.871904,8.308902 62.71702200000001,8.555429 62.56501900000001,8.799257 62.415034000000006,9.039651 62.266253000000006,9.275887 62.11790500000001,9.507255 61.969261,9.733063 61.81963700000001,9.952644 61.668385,10.165365 61.51488500000001,10.370636000000001 61.35854200000001,10.567927000000001 61.19872900000001,10.756817999999999 61.033599,10.938327000000001 60.860288000000004,11.115523 60.677721000000005,11.290695 60.486471,11.464500999999998 60.287290000000006,11.637514 60.080996000000006,11.810341000000001 59.86845400000001,11.983633999999999 59.335756,12.410166 59.174497,13.617840000000001 57.349844000000004,13.617840000000001 57.349844000000004,74.21784" stroke="#1f6fb2" stroke-width="0.1" /><text fill="#0a3d62" font-family="sans-serif" font-size="1.6" text-anchor="middle" x="71.199844" y="39.10892">01</text><polygon fill="#cfe3f7" fill-opacity="0.5" points="8.228580000000001,137.253952 34.072896,137.253952 38.309748,85.029285 37.58879,84.273341 37.170864,83.84018 36.744289,83.408193 36.307230000000004,82.980755 35.860273,82.562136 35.40572,82.153907 34.944496,81.755513 34.477195,81.36610399999999 34.004402999999996,80.984824 33.526691,80.610821 33.04462,80.243241 32.55874,79.881234 32.069582,79.523943 31.576815,79.16993 31.078286,78.81805299999999 30.571813,78.469803 30.05648,78.127894 29.53145,77.795171 28.995845,77.474533 28.448756,77.168946 27.889268,76.881463 27.31649,76.615239 26.729613,76.373552 26.129777,76.160409 25.522122,75.978158 24.911558,75.824063 24.299860000000002,75.69394 23.688344,75.583608 23.078217000000002,75.489006 22.470638,75.406195 21.866745,75.331362 21.175531,75.249961 20.472091,75.297761 19.856474,75.34318999999999 19.237094,75.396174 18.61493,75.460455 17.990967,75.539894 17.366222,75.638471 16.741797,75.760284 16.118965,75.909528 15.50101,76.089892 14.893471000000002,76.301455 14.299107,76.540466 13.717563,76.803732 13.148141,77.088249 12.590095,77.391108 12.042658000000001,77.70949 11.505068,78.040648 10.976585,78.381895 10.456506000000001,78.730594 9.943634000000001,79.084504 9.435029,79.443684 8.929524,79.811229 8.428682,80.189527 7.93469,80.580609 7.449787000000001,80.986548 6.976292000000001,81.409452 6.516617,81.85143599999999 6.073293,82.314598 5.649365000000001,82.800535 5.250777000000001,83.305864 4.8787780000000005,83.82004599999999 4.527858000000002,84.33436 4.0,85.131243 8.228580000000001,137.253952" stroke="#1f6fb2" stroke-width="0.1" /><text fill="#0a3d62" font-family="sans-serif" font-size="1.6" text-anchor="middle" x="21.154874" y="106.2519565">04</text><polygon fill="#cfe3f7" fill-opacity="0.5" points="43.538328,137.253952 69.382644,137.253952 73.619496,85.029285 72.898538,84.273341 72.48061200000001,83.84018 72.054037,83.408193 71.616978,82.980755 71.17002099999999,82.562136 70.715468,82.153907 70.254244,81.755513 69.78694300000001,81.36610399999999 69.314151,80.984824 68.836439,80.610821 68.354368,80.243241 67.868488,79.881234 67.37933,79.523943 66.886563,79.16993 66.388034,78.81805299999999 65.881561,78.469803 65.366228,78.127894 64.84119799999999,77.795171 64.305593,77.474533 63.758504,77.168946 63.199016,76.881463 62.626238,76.615239 62.039361,76.373552 61.439525,76.160409 60.831869999999995,75.978158 60.221306,75.824063 59.609608,75.69394 58.998092,75.583608 58.387965,75.489006 57.780386,75.406195 57.176493,75.331362 56.485279,75.249961 55.781839,75.297761 55.166222,75.34318999999999 54.546842,75.396174 53.924678,75.460455 53.300715,75.539894 52.67597,75.638471 52.051545,75.760284 51.428713,75.909528 50.810758,76.089892 50.203219000000004,76.301455 49.608855,76.540466 49.027311,76.803732 48.457889,77.088249 47.899843,77.391108 47.352406,77.70949 46.814816,78.040648 46.286333,78.381895 45.766254,78.730594 45.253382,79.084504 44.744777,79.443684 44.239272,79.811229 43.73843,80.189527 43.244438,80.580609 42.759535,80.986548 42.28604,81.409452 41.826364999999996,81.85143599999999 41.383041,82.314598 40.959113,82.800535 40.560525,83.305864 40.188525999999996,83.82004599999999 39.837606,84.33436 39.309748,85.131243 43.538328,137.253952" stroke="#1f6fb2" stroke-width="0.1" /><text fill="#0a3d62" font-family="sans-serif" font-size="1.6" text-anchor="middle" x="56.464622" y="106.2519565">04</text><polygon fill="#cfe3f7" fill-opacity="0.5" points="54.0,149.693027 53.43921,149.01735 53.107989,148.619013 52.774022,148.218853 52.436671000000004,147.816847 52.095011,147.412631 51.748119,147.005847 51.395077,146.59614299999998 51.034971,146.183173 50.666891,145.766598 50.290581,145.346795 49.908615999999995,144.9256 49.526844,144.504857 49.149547999999996,144.08434499999998 48.781245,143.664251 48.426381,143.244863 48.089396,142.82668 47.774682999999996,142.410435 47.486512000000005,141.997103 47.228933999999995,141.587909 47.00563,141.18427499999999 46.819724,140.78769499999999 46.673598,140.399456 46.568781,140.020174 46.505958,139.648422 46.485023,139.275078 46.536592,138.253952 29.0,138.253952 29.0,198.253952 54.0,198.253952 54.0,149.693027 4.0,149.693027 4.560790000000001,149.01735 4.892011,148.619013 5.225978000000001,148.218853 5.5633289999999995,147.816847 5.9049890000000005,147.412631 6.251881000000001,147.005847 6.604922999999999,146.59614299999998 6.965029000000001,146.183173 7.333109,145.766598 7.7094190000000005,145.346795 8.091384000000001,144.9256 8.473156,144.504857 8.850452,144.08434499999998 9.218755000000002,143.664251 9.573619,143.244863 9.910604,142.82668 10.225317,142.410435 10.513487999999999,141.997103 10.771066000000001,141.587909 10.99437,141.18427499999999 11.180276,140.78769499999999 11.326402000000002,140.399456 11.431218999999999,140.020174 11.494042,139.648422 11.514976999999998,139.275078 11.463408000000001,138.253952 29.0,138.253952 29.0,198.253952 4.0,198.253952 4.0,149.693027" stroke="#1f6fb2" stroke-width="0.1" /><text fill="#0a3d62" font-family="sans-serif" font-size="1.6" text-anchor="middle" x="29.0" y="168.253952">02</text><polygon fill="#cfe3f7" fill-opacity="0.5" points="55.0,149.525857 62.0,153.935857 69.0,149.525857 69.0,138.253952 55.0,138.253952 55.0,149.525857" stroke="#1f6fb2" stroke-width="0.1" /><text fill="#0a3d62" font-family="sans-serif" font-size="1.6" text-anchor="middle" x="62.0" y="146.09490449999998">10</text><polygon fill="#cfe3f7" fill-opacity="0.5" points="70.0,150.50307899999999 70.029841,150.806059 70.132547,151.144634 70.299332,151.456667 70.523786,151.730166 70.797285,151.95462 71.109318,152.121405 71.447893,152.224111 71.750873,152.253952 93.249127,152.253952 93.552107,152.224111 93.890682,152.121405 94.202715,151.95462 94.476214,151.730166 94.70066800000001,151.456667 94.867453,151.144634 94.970159,150.806059 95.0,150.50307899999999 95.0,140.004825 94.970159,139.701845 94.867453,139.36327 94.70066800000001,139.051237 94.476214,138.777738 94.202715,138.553284 93.890682,138.386499 93.552107,138.283793 93.249127,138.253952 71.750873,138.253952 71.447893,138.283793 71.109318,138.386499 70.797285,138.553284 70.523786,138.777738 70.299332,139.051237 70.132547,139.36327 70.029841,139.701845 70.0,140.004825 70.0,150.50307899999999" stroke="#1f6fb2" stroke-width="0.1" /><text fill="#0a3d62" font-family="sans-serif" font-size="1.6" text-anchor="middle" x="82.5" y="145.253952">05</text><polygon fill="#cfe3f7" fill-opacity="0.5" points="4.0,211.50307899999999 4.029841,211.806059 4.132547,212.144634 4.299332,212.456667 4.523786,212.730166 4.7972850000000005,212.95462 5.109318,213.121405 5.4478930000000005,213.224111 5.750873,213.253952 27.249127,213.253952 27.552107,213.224111 27.890682,213.121405 28.202715,212.95462 28.476214,212.730166 28.700668,212.456667 28.867453,212.144634 28.970159,211.806059 29.0,211.50307899999999 29.0,201.004825 28.970159,200.701845 28.867453,200.36327 28.700668,200.051237 28.476214,199.777738 28.202715,199.553284 27.890682,199.386499 27.552107,199.283793 27.249127,199.253952 5.750873,199.253952 5.4478930000000005,199.283793 5.109318,199.386499 4.7972850000000005,199.553284 4.523786,199.777738 4.299332,200.051237 4.132547,200.36327 4.029841,200.701845 4.0,201.004825 4.0,211.50307899999999" stroke="#1f6fb2" stroke-width="0.1" /><text fill="#0a3d62" font-family="sans-serif" font-size="1.6" text-anchor="middle" x="16.5" y="206.253952">05</text><polygon fill="#cfe3f7" fill-opacity="0.5" points="67.497278,210.012978 67.556179,209.608506 67.653171,209.186446 67.786235,208.748064 67.95255900000001,208.295114 68.14868200000001,207.829451 68.37066300000001,207.35280699999998 68.614244,206.866695 68.874968,206.372379 69.148262,205.870874 69.98545,204.35881799999999 56.756012999999996,199.253952 56.120936,199.698014 55.925198,199.833611 55.731946,199.965005 55.54068,200.091415 55.350926,200.212117 55.162209000000004,200.326449 54.973447,200.434165 54.782648,200.535825 54.588768,200.63196299999998 54.391982,200.722481 54.192596,200.807219 53.990919,200.886023 53.78726,200.958746 53.58193,201.025246 53.375240000000005,201.085389 53.167499,201.139048 52.958929999999995,201.18612099999999 52.748875999999996,201.226714 52.536108,201.261322 52.320133,201.290439 52.100947000000005,201.314481 51.878582,201.333873 51.653092,201.349059 51.424547000000004,201.360498 51.193031000000005,201.368669 50.958633,201.374068 50.721446,201.377214 50.481563,201.378641 50.239077,201.378903 49.992725,201.37857 49.992725,211.378571 67.428312,211.378571 67.497278,210.012978 32.488172,210.012978 32.429271,209.608506 32.332279,209.186446 32.199214999999995,208.748064 32.032891,208.295114 31.836768,207.829451 31.614787,207.35280699999998 31.371206,206.866695 31.110482,206.372379 30.837188,205.870874 30.0,204.35881799999999 43.229437000000004,199.253952 43.864514,199.698014 44.060252,199.833611 44.253504,199.965005 44.44477,200.091415 44.634524,200.212117 44.823240999999996,200.326449 45.012003,200.434165 45.202802,200.535825 45.396682,200.63196299999998 45.593468,200.722481 45.792854,200.807219 45.994531,200.886023 46.19819,200.958746 46.40352,201.025246 46.610209999999995,201.085389 46.817951,201.139048 47.026520000000005,201.18612099999999 47.236574000000005,201.226714 47.449342,201.261322 47.665317,201.290439 47.884502999999995,201.314481 48.106868,201.333873 48.332358,201.349059 48.560902999999996,201.360498 48.792418999999995,201.368669 49.026817,201.374068 49.264004,201.377214 49.503887,201.378641 49.746373,201.378903 49.992725,201.37857 49.992725,211.378571 32.557137999999995,211.378571 32.488172,210.012978" stroke="#1f6fb2" stroke-width="0.1" /><text fill="#0a3d62" font-family="sans-serif" font-size="1.6" text-anchor="middle" x="49.992725" y="205.3162615">03</text><polygon fill="#cfe3f7" fill-opacity="0.5" points="91.851259,206.124406 92.30139,206.214043 92.75159,206.298572 93.201855,206.377988 93.65218200000001,206.452292 94.102567,206.52148 94.55300600000001,206.58555 95.003496,206.644502 95.45403300000001,206.698333 95.904613,206.747042 96.355231,206.790627 96.805884,206.829088 97.256568,206.862423 97.707277,206.89063 98.15800899999999,206.913711 98.608758,206.931663 99.05952,206.94448599999998 99.510291,206.95218 99.961067,206.954745 100.411843,206.95218 100.86261400000001,206.94448599999998 101.313376,206.931663 101.764125,206.913711 102.214857,206.89063 102.66556700000001,206.862423 103.11625000000001,206.829088 103.566903,206.790627 104.017521,206.747042 104.468101,206.698333 104.918638,206.644502 105.369128,206.58555 105.819567,206.52148 106.269952,206.452292 106.720279,206.377988 107.170544,206.298572 107.620744,206.214043 108.070876,206.124406 108.260658,206.084454 110.30557400000001,209.492648 111.360792,209.093665 109.54423,199.253952 108.098296,199.574797 107.669561,199.665052 107.240898,199.750415 106.812304,199.830886 106.383774,199.90646999999998 105.95530600000001,199.977166 105.526897,200.042978 105.09854200000001,200.103908 104.670237,200.159956 104.241979,200.211125 103.813764,200.257416 103.385588,200.298831 102.957446,200.33537 102.529335,200.367035 102.10125,200.39382799999998 101.673187,200.415747 101.245142,200.432795 100.817109,200.444972 100.389086,200.452278 99.961067,200.454713 99.53304800000001,200.452278 99.105025,200.444972 98.676992,200.432795 98.248947,200.415747 97.820884,200.39382799999998 97.392799,200.367035 96.964688,200.33537 96.536546,200.298831 96.10837000000001,200.257416 95.680155,200.211125 95.251897,200.159956 94.823592,200.103908 94.39523700000001,200.042978 93.966828,199.977166 93.53836,199.90646999999998 93.10983,199.830886 92.681236,199.750415 92.252573,199.665052 91.823838,199.574797 91.17312100000001,199.430406 91.17312100000001,205.979052 91.401199,206.029661 91.851259,206.124406 90.494983,206.124406 90.044852,206.214043 89.594652,206.298572 89.144387,206.377988 88.69406000000001,206.452292 88.243675,206.52148 87.79323600000001,206.58555 87.342746,206.644502 86.89220900000001,206.698333 86.441629,206.747042 85.991011,206.790627 85.540358,206.829088 85.089674,206.862423 84.638965,206.89063 84.188233,206.913711 83.737484,206.931663 83.286722,206.94448599999998 82.835951,206.95218 82.385175,206.954745 81.934399,206.95218 81.483628,206.94448599999998 81.032866,206.931663 80.582117,206.913711 80.131385,206.89063 79.68067500000001,206.862423 79.229992,206.829088 78.77933900000001,206.790627 78.328721,206.747042 77.878141,206.698333 77.427604,206.644502 76.977114,206.58555 76.526675,206.52148 76.07629,206.452292 75.625963,206.377988 75.175698,206.298572 74.725498,206.214043 74.275366,206.124406 74.085584,206.084454 72.040668,209.492648 70.98545,209.093665 72.802012,199.253952 74.247946,199.574797 74.676681,199.665052 75.105344,199.750415 75.533938,199.830886 75.962468,199.90646999999998 76.390936,199.977166 76.819345,200.042978 77.24770000000001,200.103908 77.676005,200.159956 78.104263,200.211125 78.532478,200.257416 78.960654,200.298831 79.388796,200.33537 79.816907,200.367035 80.244992,200.39382799999998 80.673055,200.415747 81.1011,200.432795 81.529133,200.444972 81.957156,200.452278 82.385175,200.454713 82.813194,200.452278 83.241217,200.444972 83.66925,200.432795 84.097295,200.415747 84.525358,200.39382799999998 84.95344300000001,200.367035 85.381554,200.33537 85.809696,200.298831 86.23787200000001,200.257416 86.666087,200.211125 87.094345,200.159956 87.52265,200.103908 87.95100500000001,200.042978 88.379414,199.977166 88.807882,199.90646999999998 89.236412,199.830886 89.665006,199.750415 90.093669,199.665052 90.522404,199.574797 91.17312100000001,199.430406 91.17312100000001,205.979052 90.945043,206.029661 90.494983,206.124406" stroke="#1f6fb2" stroke-width="0.1" /><text fill="#0a3d62" font-family="sans-serif" font-size="1.6" text-anchor="middle" x="91.17312100000001" y="204.3733">07</text><polygon fill="#cfe3f7" fill-opacity="0.5" points="25.091918999999997,219.56985699999998 25.58186,219.641026 26.07183,219.708131 26.561826,219.771173 27.051845999999998,219.830151 27.54189,219.885064 28.031955,219.935911 28.522040999999998,219.982693 29.012144999999997,220.025408 29.502266,220.064057 29.992402,220.098638 30.482552,220.129152 30.972713,220.155598 31.462885,220.177975 31.953065,220.196285 32.443252,220.210526 32.933445,220.220698 33.423640999999996,220.226801 33.913838,220.228836 34.404036,220.226801 34.894231,220.220698 35.384423999999996,220.210526 35.874611,220.196285 36.364791,220.177975 36.854963,220.155598 37.345124,220.129152 37.835274,220.098638 38.32541,220.064057 38.815531,220.025408 39.305634999999995,219.982693 39.795721,219.935911 40.285786,219.885064 40.77583,219.830151 41.26585,219.771173 41.755846,219.708131 42.245816,219.641026 42.735757,219.56985699999998 43.225669999999994,219.494627 44.551784,219.279981 44.551784,214.253952 42.914103999999995,214.519027 42.440220999999994,214.59179699999999 41.966369,214.660628 41.492543999999995,214.725523 41.018744999999996,214.786481 40.544971000000004,214.843503 40.07122,214.89659 39.597491,214.945743 39.123782,214.990961 38.650091,215.032246 38.176417,215.069597 37.702759,215.103016 37.229113999999996,215.132502 36.755481,215.158056 36.281858,215.179679 35.808244,215.197369 35.334636,215.211128 34.861034,215.220956 34.387434999999996,215.226853 33.913838,215.228818 33.440241,215.226853 32.966642,215.220956 32.49304,215.211128 32.019431999999995,215.197369 31.545817999999997,215.179679 31.072195,215.158056 30.598561999999998,215.132502 30.124917,215.103016 29.651259,215.069597 29.177585,215.032246 28.703894,214.990961 28.230185,214.945743 27.756456,214.89659 27.282705,214.843503 26.808930999999998,214.786481 26.335133,214.725523 25.861307,214.660628 25.387455,214.59179699999999 24.913573,214.519027 24.275892,214.415812 24.275892,219.441842 24.602006,219.494627 25.091918999999997,219.56985699999998 23.459865,219.56985699999998 22.969924,219.641026 22.479954,219.708131 21.989957999999998,219.771173 21.499938,219.830151 21.009894,219.885064 20.519828999999998,219.935911 20.029743,219.982693 19.539639,220.025408 19.049518,220.064057 18.559382,220.098638 18.069232,220.129152 17.579071,220.155598 17.088898999999998,220.177975 16.598719,220.196285 16.108531999999997,220.210526 15.618338999999999,220.220698 15.128143,220.226801 14.637946,220.228836 14.147747999999998,220.226801 13.657552999999998,220.220698 13.167359999999999,220.210526 12.677173,220.196285 12.186993,220.177975 11.696820999999998,220.155598 11.20666,220.129152 10.71651,220.098638 10.226373999999998,220.064057 9.736253,220.025408 9.246148999999999,219.982693 8.756063,219.935911 8.265998,219.885064 7.775953999999999,219.830151 7.2859339999999975,219.771173 6.795938,219.708131 6.305968,219.641026 5.816026999999998,219.56985699999998 5.3261140000000005,219.494627 4.0,219.279981 4.0,214.253952 5.63768,214.519027 6.111563,214.59179699999999 6.585414999999998,214.660628 7.059239999999999,214.725523 7.533038999999999,214.786481 8.006812999999998,214.843503 8.480564,214.89659 8.954292999999998,214.945743 9.428002,214.990961 9.901692999999998,215.032246 10.375366999999999,215.069597 10.849025,215.103016 11.322669999999999,215.132502 11.796302999999998,215.158056 12.269925999999998,215.179679 12.74354,215.197369 13.217147999999998,215.211128 13.69075,215.220956 14.164349,215.226853 14.637946,215.228818 15.111543,215.226853 15.585142,215.220956 16.058743999999997,215.211128 16.532352,215.197369 17.005966,215.179679 17.479588999999997,215.158056 17.953222,215.132502 18.426866999999998,215.103016 18.900525,215.069597 19.374198999999997,215.032246 19.84789,214.990961 20.321599,214.945743 20.795327999999998,214.89659 21.269078999999998,214.843503 21.742853,214.786481 22.216651,214.725523 22.690476999999998,214.660628 23.164329,214.59179699999999 23.638211,214.519027 24.275892,214.415812 24.275892,219.441842 23.949778,219.494627 23.459865,219.56985699999998" stroke="#1f6fb2" stroke-width="0.1" /><text fill="#0a3d62" font-family="sans-serif" font-size="1.6" text-anchor="middle" x="24.275892" y="217.24139399999999">08</text><polygon fill="#cfe3f7" fill-opacity="0.5" points="45.551784,217.903079 45.573938999999996,218.128022 45.653881999999996,218.39156 45.783702999999996,218.634438 45.958413,218.847323 46.171298,219.022033 46.414176,219.151854 46.677713999999995,219.231797 46.902657,219.253952 58.200911,219.253952 58.425854,219.231797 58.689392,219.151854 58.932269999999995,219.022033 59.145154999999995,218.847323 59.319865,218.634438 59.449686,218.39156 59.529629,218.128022 59.551784,217.903079 59.551784,215.604825 59.529629,215.379882 59.449686,215.116344 59.319865,214.873466 59.145154999999995,214.660581 58.932269999999995,214.485871 58.689392,214.35605 58.425854,214.276107 58.200911,214.253952 46.902657,214.253952 46.677713999999995,214.276107 46.414176,214.35605 46.171298,214.485871 45.958413,214.660581 45.783702999999996,214.873466 45.653881999999996,215.116344 45.573938999999996,215.379882 45.551784,215.604825 45.551784,217.903079" stroke="#1f6fb2" stroke-width="0.1" /><text fill="#0a3d62" font-family="sans-serif" font-size="1.6" text-anchor="middle" x="52.551784" y="216.753952">06</text><polygon fill="#cfe3f7" fill-opacity="0.5" points="60.551784,217.903079 60.573938999999996,218.128022 60.653881999999996,218.39156 60.783702999999996,218.634438 60.958413,218.847323 61.171298,219.022033 61.414176,219.151854 61.677713999999995,219.231797 61.902657,219.253952 73.20091099999999,219.253952 73.425854,219.231797 73.689392,219.151854 73.93227,219.022033 74.145155,218.847323 74.319865,218.634438 74.449686,218.39156 74.529629,218.128022 74.551784,217.903079 74.551784,215.604825 74.529629,215.379882 74.449686,215.116344 74.319865,214.873466 74.145155,214.660581 73.93227,214.485871 73.689392,214.35605 73.425854,214.276107 73.20091099999999,214.253952 61.902657,214.253952 61.677713999999995,214.276107 61.414176,214.35605 61.171298,214.485871 60.958413,214.660581 60.783702999999996,214.873466 60.653881999999996,215.116344 60.573938999999996,215.379882 60.551784,215.604825 60.551784,217.903079" stroke="#1f6fb2" stroke-width="0.1" /><text fill="#0a3d62" font-family="sans-serif" font-size="1.6" text-anchor="middle" x="67.551784" y="216.753952">06</text></svg>