<?xml version="1.0" encoding="utf-8" ?>
<svg baseProfile="full" height="259.491108cm" version="1.1" viewBox="0 0 118.0 259.491108" width="118.0cm" xmlns="http://www.w3.org/2000/svg" xmlns:ev="http://www.w3.org/2001/xml-events" xmlns:xlink="http://www.w3.org/1999/xlink"><defs /><rect fill="#f7f3ea" height="251.491108" stroke="#333" stroke-width="0.15" width="110.0" x="4.0" y="4.0" /><text fill="#000" font-family="sans-serif" font-size="1.4" x="4.0" y="3.0">PLANO DE CORTE — ancho 110 cm — largo 2.51 m</text><polygon fill="#cfe3f7" fill-opacity="0.5" points="4.0,74.267704 12.00722,74.267704 11.601177,17.827772 15.824922,5.262131 13.300661,4.0 12.604548000000001,4.928368 12.408809,5.189983 12.212994,5.452847 12.017382000000001,5.717166 11.822256,5.98315 11.6279,6.251011999999999 11.434603,6.520965 11.242656,6.793221 11.052355,7.067997 10.863996,7.345508 10.677882,7.6259689999999996 10.494319,7.909597 10.313615,8.196606 10.136242,8.486951000000001 9.963303,8.779094 9.795078,9.070626 9.63075,9.360295 9.469275,9.647313 9.309653,9.930903 9.150927,10.210297 8.992184,10.484739000000001 8.832553,10.753489 8.671203,11.015827 8.507341,11.271062 8.340206,11.518545 8.169058,11.757678 7.993161000000001,11.987943000000001 7.810869,12.210004 7.619404,12.426846 7.41765,12.641195 7.206278,12.853889 6.986212,13.065588 6.7584420000000005,13.27698 6.524011,13.488792 6.322425,13.667704 4.0,13.667704 4.0,74.267704" stroke="#1f6fb2" stroke-width="0.1" /><text fill="#0a3d62" font-family="sans-serif" font-size="1.6" text-anchor="middle" x="9.912461" y="39.133852">09</text><polygon fill="#cfe3f7" fill-opacity="0.5" points="16.824922,74.267704 24.832142,74.267704 24.426099,17.827772 28.649844,5.262131 26.125583,4.0 25.429470000000002,4.928368 25.233731,5.189983 25.037916000000003,5.452847 24.842304000000002,5.717166 24.647178,5.98315 24.452822,6.251011999999999 24.259525,6.520965 24.067578,6.793221 23.877277,7.067997 23.688918,7.345508 23.502804,7.6259689999999996 23.319241,7.909597 23.138537,8.196606 22.961164,8.486951000000001 22.788225,8.779094 22.62,9.070626 22.455672,9.360295 22.294197,9.647313 22.134575,9.930903 21.975849,10.210297 21.817106000000003,10.484739000000001 21.657475,10.753489 21.496125,11.015827 21.332263,11.271062 21.165128000000003,11.518545 20.99398,11.757678 20.818083,11.987943000000001 20.635791,12.210004 20.444326,12.426846 20.242572000000003,12.641195 20.031200000000002,12.853889 19.811134000000003,13.065588 19.583364,13.27698 19.348933000000002,13.488792 19.147347,13.667704 16.824922,13.667704 16.824922,74.267704" stroke="#1f6fb2" stroke-width="0.1" /><text fill="#0a3d62" font-family="sans-serif" font-size="1.6" text-anchor="middle" x="22.737383" y="39.133852">09</text><polygon fill="#cfe3f7" fill-opacity="0.5" points="29.649844,74.233067 57.349844000000004,74.233067 57.349844000000004,26.857360999999997 56.749912,26.171653999999997 56.396521,25.768483 56.040528,25.363836 55.681394,24.957849 55.318277,24.550319 54.95034,24.141047999999998 54.576750000000004,23.729844999999997 54.196687,23.316536 53.810258000000005,22.901911 53.420919,22.488083 53.034441,22.076037 52.655385,21.665301 52.288183000000004,21.255467 51.937261,20.846346999999998 51.606989,20.437973 51.30162,20.030609 51.025183999999996,19.624724 50.781365,19.22094 50.57334,18.819888 50.40363,18.421923 50.273231,18.024288 50.180244,17.618925 50.12149,17.199514999999998 50.095352000000005,16.764596 50.100468,16.313914 50.135391999999996,15.847847 50.198454,15.367222 50.287714,14.873137 50.400976,14.366815 50.535817,13.849511 50.689639,13.32245 50.859709,12.78679 51.043189999999996,12.243606999999999 51.237178,11.693886 51.438712,11.138521 51.970248,9.693617 38.924533000000004,4.0 38.254392,4.893731 38.058653,5.155346 37.862838,5.41821 37.667226,5.682529 37.472100000000005,5.948513 37.277744,6.216374999999999 37.084447000000004,6.486328 36.8925,6.758584 36.702199,7.03336 36.51384,7.310871 36.327726,7.5913319999999995 36.144163000000006,7.87496 35.963459,8.161969 35.786086000000005,8.452314000000001 35.613147,8.744457 35.444922000000005,9.035989 35.280594,9.325658 35.119119,9.612676 34.959497,9.896266 34.800771000000005,10.17566 34.642028,10.450102000000001 34.482397000000006,10.718852 34.321047,10.98119 34.157185,11.236425 33.990050000000004,11.483908 33.818902,11.723041 33.643005,11.953306000000001 33.460713,12.175367 33.269248000000005,12.392209 33.067494,12.606558 32.856122,12.819252 32.636056,13.030951 32.408286000000004,13.242343 32.173855,13.454155 31.972269,13.633067 29.649844,13.633067 29.649844,74.233067" stroke="#1f6fb2" stroke-width="0.1" /><text fill="#0a3d62" font-family="sans-serif" font-size="1.6" text-anchor="middle" x="43.499844" y="39.1165335">01</text><polygon fill="#cfe3f7" fill-opacity="0.5" points="58.349844000000004,74.233067 86.04984400000001,74.233067 86.04984400000001,26.857360999999997 85.44991200000001,26.171653999999997 85.096521,25.768483 84.74052800000001,25.363836 84.381394,24.957849 84.01827700000001,24.550319 83.65034,24.141047999999998 83.27675,23.729844999999997 82.896687,23.316536 82.51025800000001,22.901911 82.120919,22.488083 81.734441,22.076037 81.35538500000001,21.665301 80.988183,21.255467 80.637261,20.846346999999998 80.306989,20.437973 80.00162,20.030609 79.725184,19.624724 79.48136500000001,19.22094 79.27334,18.819888 79.10363000000001,18.421923 78.973231,18.024288 78.880244,17.618925 78.82149000000001,17.199514999999998 78.79535200000001,16.764596 78.800468,16.313914 78.835392,15.847847 78.898454,15.367222 78.98771400000001,14.873137 79.100976,14.366815 79.235817,13.849511 79.389639,13.32245 79.559709,12.78679 79.74319,12.243606999999999 79.937178,11.693886 80.138712,11.138521 80.670248,9.693617 67.624533,4.0 66.95439200000001,4.893731 66.75865300000001,5.155346 66.562838,5.41821 66.367226,5.682529 66.1721,5.948513 65.977744,6.216374999999999 65.784447,6.486328 65.5925,6.758584 65.40219900000001,7.03336 65.21384,7.310871 65.027726,7.5913319999999995 64.84416300000001,7.87496 64.663459,8.161969 64.486086,8.452314000000001 64.313147,8.744457 64.14492200000001,9.035989 63.980594,9.325658 63.819119,9.612676 63.659497,9.896266 63.50077100000001,10.17566 63.342028000000006,10.450102000000001 63.18239700000001,10.718852 63.021047,10.98119 62.857185,11.236425 62.69005000000001,11.483908 62.518902000000004,11.723041 62.343005000000005,11.953306000000001 62.160713,12.175367 61.96924800000001,12.392209 61.767494000000006,12.606558 61.556122,12.819252 61.336056000000006,13.030951 61.10828600000001,13.242343 60.873855000000006,13.454155 60.67226900000001,13.633067 58.349844000000004,13.633067 58.349844000000004,74.233067" stroke="#1f6fb2" stroke-width="0.1" /><text fill="#0a3d62" font-family="sans-serif" font-size="1.6" text-anchor="middle" x="72.199844" y="39.1165335">01</text><polygon fill="#cfe3f7" fill-opacity="0.5" points="8.603537000000001,137.272317 34.432241,137.272317 39.044742,85.827327 38.338398999999995,85.042694 37.917592,84.580552 37.488116,84.11954 37.047919,83.662943 36.597245,83.215104 36.138323,82.77776399999999 35.672148,82.350409 35.19934,81.93216199999999 34.720508,81.522143 34.236247,81.11947099999999 33.747142,80.723265 33.253769,80.332647 32.756689,79.94673999999999 32.255796000000004,79.56416999999999 31.749057,79.183459 31.233977,78.80596299999999 30.709418,78.43459999999999 30.174402999999998,78.072496 29.6279,77.722833 29.068843,77.38886699999999 28.496148,77.073954 27.908752,76.781561 27.305661,76.515294 26.687530000000002,76.279466 26.059449,76.07732 25.427158,75.906295 24.792906000000002,75.761815 24.158237,75.639246 23.52457,75.53408599999999 22.893254,75.441976 22.265622,75.358699 21.544124,75.267704 20.808963,75.32164399999999 20.168217,75.372666 19.523647,75.432109 18.8764,75.504142 18.227627,75.59307299999999 17.578525,75.703347 16.930396000000002,75.83954399999999 16.284807,76.00634 15.645945000000001,76.20758599999999 15.019679,76.442509 14.408314,76.70685599999999 13.811256,76.997118 13.227674,77.309958 12.656686,77.642151 12.097394,77.99057599999999 11.548913,78.352193 11.010392,78.72402699999999 10.481016,79.103155 9.959197,79.487304 9.441979,79.87699699999999 8.928751,80.275463 8.421351,80.684888 7.9219930000000005,81.10725099999999 7.432948,81.544568 6.956562,81.99888 6.495274,82.472229 6.051633000000001,82.966628 5.628798,83.48342799999999 5.232445000000002,84.018686 4.862674000000002,84.561902 4.513476000000001,85.105098 4.0,85.927312 8.603537000000001,137.272317" stroke="#1f6fb2" stroke-width="0.1" /><text fill="#0a3d62" font-family="sans-serif" font-size="1.6" text-anchor="middle" x="21.522371" y="106.2700105">04</text><polygon fill="#cfe3f7" fill-opacity="0.5" points="44.648279,137.272317 70.47698299999999,137.272317 75.089484,85.827327 74.383141,85.042694 73.962334,84.580552 73.532858,84.11954 73.09266099999999,83.662943 72.641987,83.215104 72.183065,82.77776399999999 71.71689,82.350409 71.24408199999999,81.93216199999999 70.76525000000001,81.522143 70.280989,81.11947099999999 69.791884,80.723265 69.29851099999999,80.332647 68.80143100000001,79.94673999999999 68.300538,79.56416999999999 67.793799,79.183459 67.278719,78.80596299999999 66.75416,78.43459999999999 66.219145,78.072496 65.672642,77.722833 65.113585,77.38886699999999 64.54089,77.073954 63.953494,76.781561 63.350403,76.515294 62.732272,76.279466 62.104191,76.07732 61.4719,75.906295 60.837648,75.761815 60.202979,75.639246 59.569312,75.53408599999999 58.937996,75.441976 58.310364,75.358699 57.588865999999996,75.267704 56.853705,75.32164399999999 56.212959,75.372666 55.568388999999996,75.432109 54.921142,75.504142 54.272369,75.59307299999999 53.623267,75.703347 52.975138,75.83954399999999 52.329549,76.00634 51.690687,76.20758599999999 51.064420999999996,76.442509 50.453056000000004,76.70685599999999 49.855998,76.997118 49.272416,77.309958 48.701428,77.642151 48.142136,77.99057599999999 47.593655,78.352193 47.055133999999995,78.72402699999999 46.525757999999996,79.103155 46.003939,79.487304 45.486721,79.87699699999999 44.973493,80.275463 44.466093,80.684888 43.966735,81.10725099999999 43.477689999999996,81.544568 43.001304,81.99888 42.540016,82.472229 42.096375,82.966628 41.67354,83.48342799999999 41.277187,84.018686 40.907416,84.561902 40.558218,85.105098 40.044742,85.927312 44.648279,137.272317" stroke="#1f6fb2" stroke-width="0.1" /><text fill="#0a3d62" font-family="sans-serif" font-size="1.6" text-anchor="middle" x="57.567113" y="106.2700105">04</text><polygon fill="#cfe3f7" fill-opacity="0.5" points="54.0,150.971005 53.54488,150.28434199999998 53.256333999999995,149.848727 52.967847,149.41266099999999 52.679368,148.975797 52.390845,148.53778899999998 52.102226,148.098289 51.81346,147.656951 51.524504,147.21344399999998 51.235746,146.76805299999998 50.948979,146.32182899999998 50.666720999999995,145.87536899999998 50.391082,145.428621 50.124128999999996,144.981539 49.867903,144.534122 49.624413000000004,144.08641 49.39562,143.638475 49.18343,143.19041299999998 48.989674,142.742325 48.816095000000004,142.294299 48.664342000000005,141.846373 48.535945,141.39844499999998 48.431893,140.948557 48.351451,140.492776 48.292833,140.02890599999998 48.254642000000004,139.55688099999998 48.203385999999995,138.272317 29.0,138.272317 29.0,198.272317 54.0,198.272317 54.0,150.971005 4.0,150.971005 4.455120000000001,150.28434199999998 4.743666000000001,149.848727 5.032153000000001,149.41266099999999 5.320632,148.975797 5.609155000000001,148.53778899999998 5.897773999999998,148.098289 6.186540000000001,147.656951 6.475496,147.21344399999998 6.764254000000001,146.76805299999998 7.051020999999999,146.32182899999998 7.333279000000001,145.87536899999998 7.608917999999999,145.428621 7.875871,144.981539 8.132097000000002,144.534122 8.375587,144.08641 8.604379999999999,143.638475 8.816569999999999,143.19041299999998 9.010326,142.742325 9.183905,142.294299 9.335657999999999,141.846373 9.464054999999998,141.39844499999998 9.568107000000001,140.948557 9.648549,140.492776 9.707166999999998,140.02890599999998 9.745358,139.55688099999998 9.796614000000002,138.272317 29.0,138.272317 29.0,198.272317 4.0,198.272317 4.0,150.971005" stroke="#1f6fb2" stroke-width="0.1" /><text fill="#0a3d62" font-family="sans-serif" font-size="1.6" text-anchor="middle" x="29.0" y="168.272317">02</text><polygon fill="#cfe3f7" fill-opacity="0.5" points="55.0,162.271208 78.18733399999999,162.271208 66.593667,138.272317 55.0,162.271208" stroke="#1f6fb2" stroke-width="0.1" /><text fill="#0a3d62" font-family="sans-serif" font-size="1.6" text-anchor="middle" x="66.593667" y="150.2717625">40</text><polygon fill="#cfe3f7" fill-opacity="0.5" points="79.18733399999999,162.271208 102.37466799999999,162.271208 90.78100099999999,138.272317 79.18733399999999,162.271208" stroke="#1f6fb2" stroke-width="0.1" /><text fill="#0a3d62" font-family="sans-serif" font-size="1.6" text-anchor="middle" x="90.78100099999999" y="150.2717625">40</text><polygon fill="#cfe3f7" fill-opacity="0.5" points="4.0,223.271208 27.187334,223.271208 15.593667,199.272317 4.0,223.271208" stroke="#1f6fb2" stroke-width="0.1" /><text fill="#0a3d62" font-family="sans-serif" font-size="1.6" text-anchor="middle" x="15.593667" y="211.2717625">40</text><polygon fill="#cfe3f7" fill-opacity="0.5" points="28.187334,223.271208 51.374668,223.271208 39.781001,199.272317 28.187334,223.271208" stroke="#1f6fb2" stroke-width="0.1" /><text fill="#0a3d62" font-family="sans-serif" font-size="1.6" text-anchor="middle" x="39.781001" y="211.2717625">40</text><polygon fill="#cfe3f7" fill-opacity="0.5" points="52.374668,210.544222 59.374668,214.954222 66.374668,210.544222 66.374668,199.272317 52.374668,199.272317 52.374668,210.544222" stroke="#1f6fb2" stroke-width="0.1" /><text fill="#0a3d62" font-family="sans-serif" font-size="1.6" text-anchor="middle" x="59.374668" y="207.1132695">10</text><polygon fill="#cfe3f7" fill-opacity="0.5" points="67.374668,211.52144399999997 67.404509,211.824424 67.507215,212.16299899999999 67.674,212.475032 67.898454,212.74853099999999 68.171953,212.972985 68.483986,213.13977 68.822561,213.24247599999998 69.125541,213.272317 90.623795,213.272317 90.92677499999999,213.24247599999998 91.26535,213.13977 91.577383,212.972985 91.850882,212.74853099999999 92.075336,212.475032 92.242121,212.16299899999999 92.344827,211.824424 92.374668,211.52144399999997 92.374668,201.02319 92.344827,200.72020999999998 92.242121,200.381635 92.075336,200.06960199999997 91.850882,199.796103 91.577383,199.57164899999998 91.26535,199.40486399999998 90.92677499999999,199.302158 90.623795,199.272317 69.125541,199.272317 68.822561,199.302158 68.483986,199.40486399999998 68.171953,199.57164899999998 67.898454,199.796103 67.674,200.06960199999997 67.507215,200.381635 67.404509,200.72020999999998 67.374668,201.02319 67.374668,211.52144399999997" stroke="#1f6fb2" stroke-width="0.1" /><text fill="#0a3d62" font-family="sans-serif" font-size="1.6" text-anchor="middle" x="79.874668" y="206.272317">05</text><polygon fill="#cfe3f7" fill-opacity="0.5" points="4.0,236.520335 4.029841,236.823315 4.132547,237.16189 4.299332,237.473923 4.523786,237.747422 4.7972850000000005,237.971876 5.109318,238.138661 5.4478930000000005,238.241367 5.750873,238.271208 27.249127,238.271208 27.552107,238.241367 27.890682,238.138661 28.202715,237.971876 28.476214,237.747422 28.700668,237.473923 28.867453,237.16189 28.970159,236.823315 29.0,236.520335 29.0,226.02208100000001 28.970159,225.719101 28.867453,225.380526 28.700668,225.068493 28.476214,224.794994 28.202715,224.57054 27.890682,224.403755 27.552107,224.301049 27.249127,224.271208 5.750873,224.271208 5.4478930000000005,224.301049 5.109318,224.403755 4.7972850000000005,224.57054 4.523786,224.794994 4.299332,225.068493 4.132547,225.380526 4.029841,225.719101 4.0,226.02208100000001 4.0,236.520335" stroke="#1f6fb2" stroke-width="0.1" /><text fill="#0a3d62" font-family="sans-serif" font-size="1.6" text-anchor="middle" x="16.5" y="231.271208">05</text><polygon fill="#cfe3f7" fill-opacity="0.5" points="69.109812,235.197272 69.10827,234.709591 69.12286,234.214608 69.152042,233.712757 69.194218,233.20450400000001 69.247736,232.690329 69.310889,232.170713 69.381927,231.646126 69.459058,231.11702 69.540457,230.583823 69.74864600000001,229.250094 56.845692,224.271208 56.206584,224.705319 56.003755,224.84180800000001 55.803425000000004,224.974106 55.605097,225.101405 55.408291,225.222955 55.212533,225.338067 55.016683,225.446485 54.818733,225.548759 54.617676,225.645398 54.4137,225.736309 54.207108000000005,225.821347 53.998204,225.900371 53.787293000000005,225.973248 53.574684000000005,226.039849 53.360684,226.10005 53.145601,226.153736 52.929643999999996,226.200817 52.712165999999996,226.241406 52.492015,226.275993 52.268762,226.305068 52.042410000000004,226.329053 51.81299,226.348381 51.580557,226.3635 51.345178000000004,226.374874 51.106932,226.382986 50.865904,226.38833400000001 50.622182,226.391438 50.375856,226.39283 50.127012,226.393065 49.874323000000004,226.392708 49.874323000000004,236.392709 69.157512,236.392709 69.109812,235.197272 30.638834,235.197272 30.640376,234.709591 30.625786,234.214608 30.596604,233.712757 30.554428,233.20450400000001 30.50091,232.690329 30.437757,232.170713 30.366719,231.646126 30.289588000000002,231.11702 30.208189,230.583823 30.0,229.250094 42.902954,224.271208 43.542062,224.705319 43.744890999999996,224.84180800000001 43.945221000000004,224.974106 44.143549,225.101405 44.340355,225.222955 44.536113,225.338067 44.731963,225.446485 44.929913,225.548759 45.130970000000005,225.645398 45.334946,225.736309 45.541538,225.821347 45.750442,225.900371 45.961353,225.973248 46.173962,226.039849 46.387962,226.10005 46.603045,226.153736 46.819002,226.200817 47.03648,226.241406 47.256631,226.275993 47.479884,226.305068 47.706236000000004,226.329053 47.935656,226.348381 48.168089,226.3635 48.403468000000004,226.374874 48.641714,226.382986 48.882742,226.38833400000001 49.126464,226.391438 49.37279,226.39283 49.621634,226.393065 49.874323000000004,226.392708 49.874323000000004,236.392709 30.591134,236.392709 30.638834,235.197272" stroke="#1f6fb2" stroke-width="0.1" /><text fill="#0a3d62" font-family="sans-serif" font-size="1.6" text-anchor="middle" x="49.874323000000004" y="230.3319585">03</text><polygon fill="#cfe3f7" fill-opacity="0.5" points="26.655368999999997,246.126185 27.146859,246.215482 27.638402,246.299685 28.129994999999997,246.378793 28.621636,246.45280400000001 29.113321,246.521717 29.605047999999996,246.585531 30.096814,246.64424400000001 30.588614999999997,246.697856 31.080448999999998,246.746365 31.572312999999998,246.789771 32.064203,246.828072 32.556116,246.861268 33.048049,246.88935800000002 33.539998999999995,246.912341 34.031962,246.930218 34.523936,246.94298700000002 35.015916,246.950649 35.507898999999995,246.953202 35.999882,246.950649 36.491862,246.94298700000002 36.983836,246.930218 37.475798999999995,246.912341 37.967749,246.88935800000002 38.459682,246.861268 38.951595,246.828072 39.443484999999995,246.789771 39.935349,246.746365 40.427183,246.697856 40.918983999999995,246.64424400000001 41.41075,246.585531 41.902477,246.521717 42.394161999999994,246.45280400000001 42.885802999999996,246.378793 43.377396,246.299685 43.868939,246.215482 44.360428999999996,246.126185 44.644778,246.071571 46.6965,249.491108 47.751718,249.092125 45.938626,239.271208 44.46481,239.569581 43.993041,239.660193 43.521327,239.745896 43.049666,239.826693 42.578055,239.902585 42.106492,239.973574 41.634973,240.039661 41.163495999999995,240.100847 40.692057999999996,240.157134 40.220655,240.208522 39.749285,240.255013 39.277945,240.296607 38.806630999999996,240.333306 38.33534,240.36511000000002 37.864069,240.39202 37.392815,240.414037 36.921574,240.43116 36.450344,240.443391 35.979119999999995,240.450729 35.507898999999995,240.453176 35.036677999999995,240.450729 34.565454,240.443391 34.094224,240.43116 33.622983,240.414037 33.151729,240.39202 32.680458,240.36511000000002 32.209166999999994,240.333306 31.737852999999998,240.296607 31.266512999999996,240.255013 30.795143,240.208522 30.323739999999997,240.157134 29.852301999999998,240.100847 29.380824999999998,240.039661 28.909305999999997,239.973574 28.437742999999998,239.902585 27.966131999999998,239.826693 27.494470999999997,239.745896 27.022757,239.660193 26.550987999999997,239.569581 25.875859,239.432902 25.875859,245.973476 26.163933999999998,246.031797 26.655368999999997,246.126185 25.096349,246.126185 24.604858999999998,246.215482 24.113315999999998,246.299685 23.621723,246.378793 23.130081999999998,246.45280400000001 22.638396999999998,246.521717 22.14667,246.585531 21.654904,246.64424400000001 21.163103,246.697856 20.671269,246.746365 20.179405,246.789771 19.687514999999998,246.828072 19.195601999999997,246.861268 18.703668999999998,246.88935800000002 18.211719,246.912341 17.719755999999997,246.930218 17.227781999999998,246.94298700000002 16.735802,246.950649 16.243819,246.953202 15.751835999999999,246.950649 15.259856,246.94298700000002 14.767881999999998,246.930218 14.275918999999998,246.912341 13.783968999999999,246.88935800000002 13.292035999999998,246.861268 12.800123,246.828072 12.308232999999998,246.789771 11.816368999999998,246.746365 11.324535,246.697856 10.832733999999999,246.64424400000001 10.340967999999998,246.585531 9.849241,246.521717 9.357555999999999,246.45280400000001 8.865914999999998,246.378793 8.374322,246.299685 7.882778999999999,246.215482 7.391288999999997,246.126185 7.106939999999998,246.071571 5.055218,249.491108 4.0,249.092125 5.8130919999999975,239.271208 7.286907999999997,239.569581 7.758676999999999,239.660193 8.230390999999997,239.745896 8.702051999999998,239.826693 9.173662999999998,239.902585 9.645225999999997,239.973574 10.116744999999998,240.039661 10.588221999999998,240.100847 11.05966,240.157134 11.531062999999998,240.208522 12.002432999999998,240.255013 12.473772999999998,240.296607 12.945087,240.333306 13.416377999999998,240.36511000000002 13.887648999999998,240.39202 14.358902999999998,240.414037 14.830143999999999,240.43116 15.301374,240.443391 15.772597999999999,240.450729 16.243819,240.453176 16.71504,240.450729 17.186263999999998,240.443391 17.657494,240.43116 18.128735,240.414037 18.599988999999997,240.39202 19.07126,240.36511000000002 19.542551,240.333306 20.013865,240.296607 20.485205,240.255013 20.956574999999997,240.208522 21.427978,240.157134 21.899416,240.100847 22.370893,240.039661 22.842412,239.973574 23.313975,239.902585 23.785586,239.826693 24.257247,239.745896 24.728960999999998,239.660193 25.20073,239.569581 25.875859,239.432902 25.875859,245.973476 25.587784,246.031797 25.096349,246.126185" stroke="#1f6fb2" stroke-width="0.1" /><text fill="#0a3d62" font-family="sans-serif" font-size="1.6" text-anchor="middle" x="25.875859" y="244.381158">07</text><polygon fill="#cfe3f7" fill-opacity="0.5" points="71.627903,244.57375 72.159438,244.644743 72.69099399999999,244.711682 73.22256999999999,244.774566 73.754166,244.833395 74.28577999999999,244.888169 74.81741099999999,244.938888 75.349058,244.98555 75.880719,245.028155 76.412393,245.06670400000002 76.94407899999999,245.10119600000002 77.475776,245.131631 78.007482,245.158008 78.539196,245.180328 79.070916,245.19859 79.602642,245.212793 80.134372,245.222939 80.66610399999999,245.229026 81.19783799999999,245.231055 81.72957199999999,245.229026 82.261304,245.222939 82.79303399999999,245.212793 83.32476,245.19859 83.85648,245.180328 84.388194,245.158008 84.9199,245.131631 85.45159699999999,245.10119600000002 85.983283,245.06670400000002 86.514957,245.028155 87.046618,244.98555 87.57826499999999,244.938888 88.10989599999999,244.888169 88.64151,244.833395 89.17310599999999,244.774566 89.70468199999999,244.711682 90.236238,244.644743 90.76777299999999,244.57375 91.299284,244.498704 92.679878,244.293236 92.679878,239.271208 91.01226799999999,239.519392 90.495575,239.592346 89.978906,239.661353 89.46225799999999,239.726414 88.94563,239.78753 88.429022,239.84470100000001 87.912432,239.897927 87.395859,239.947208 86.879302,239.992546 86.362759,240.033941 85.846229,240.071392 85.329711,240.10490000000001 84.813204,240.134465 84.296706,240.160088 83.780216,240.181768 83.263732,240.199506 82.747254,240.213303 82.23078,240.22315700000001 81.71430799999999,240.22907 81.19783799999999,240.231041 80.68136799999999,240.22907 80.164896,240.22315700000001 79.648422,240.213303 79.131944,240.199506 78.61546,240.181768 78.09897,240.160088 77.582472,240.134465 77.06596499999999,240.10490000000001 76.549447,240.071392 76.032917,240.033941 75.516374,239.992546 74.999817,239.947208 74.483244,239.897927 73.96665399999999,239.84470100000001 73.450046,239.78753 72.93341799999999,239.726414 72.41677,239.661353 71.90010099999999,239.592346 71.383408,239.519392 70.71579799999999,239.42003400000002 70.71579799999999,244.442062 71.096392,244.498704 71.627903,244.57375 69.803693,244.57375 69.27215799999999,244.644743 68.740602,244.711682 68.209026,244.774566 67.67742999999999,244.833395 67.145816,244.888169 66.61418499999999,244.938888 66.082538,244.98555 65.550877,245.028155 65.019203,245.06670400000002 64.487517,245.10119600000002 63.955819999999996,245.131631 63.424113999999996,245.158008 62.892399999999995,245.180328 62.360679999999995,245.19859 61.828953999999996,245.212793 61.297224,245.222939 60.765491999999995,245.229026 60.233757999999995,245.231055 59.702023999999994,245.229026 59.170291999999996,245.222939 58.63856199999999,245.212793 58.106835999999994,245.19859 57.575115999999994,245.180328 57.04340199999999,245.158008 56.51169599999999,245.131631 55.97999899999999,245.10119600000002 55.448313,245.06670400000002 54.916638999999996,245.028155 54.384978,244.98555 53.853331,244.938888 53.32169999999999,244.888169 52.790085999999995,244.833395 52.258489999999995,244.774566 51.726913999999994,244.711682 51.195358,244.644743 50.663822999999994,244.57375 50.132312,244.498704 48.751718,244.293236 48.751718,239.271208 50.41932799999999,239.519392 50.936021,239.592346 51.45269,239.661353 51.96933799999999,239.726414 52.485966,239.78753 53.002573999999996,239.84470100000001 53.519163999999996,239.897927 54.035737,239.947208 54.552293999999996,239.992546 55.068836999999995,240.033941 55.585367,240.071392 56.101884999999996,240.10490000000001 56.618392,240.134465 57.13489,240.160088 57.651379999999996,240.181768 58.167863999999994,240.199506 58.684341999999994,240.213303 59.200815999999996,240.22315700000001 59.717287999999996,240.22907 60.233757999999995,240.231041 60.75022799999999,240.22907 61.2667,240.22315700000001 61.783173999999995,240.213303 62.299651999999995,240.199506 62.816136,240.181768 63.332626,240.160088 63.849123999999996,240.134465 64.365631,240.10490000000001 64.882149,240.071392 65.39867899999999,240.033941 65.915222,239.992546 66.43177899999999,239.947208 66.948352,239.897927 67.464942,239.84470100000001 67.98155,239.78753 68.498178,239.726414 69.014826,239.661353 69.53149499999999,239.592346 70.048188,239.519392 70.71579799999999,239.42003400000002 70.71579799999999,244.442062 70.335204,244.498704 69.803693,244.57375" stroke="#1f6fb2" stroke-width="0.1" /><text fill="#0a3d62" font-family="sans-serif" font-size="1.6" text-anchor="middle" x="70.71579799999999" y="242.2511315">08</text><polygon fill="#cfe3f7" fill-opacity="0.5" points="93.679878,242.920335 93.702033,243.145278 93.781976,243.408816 93.911797,243.651694 94.086507,243.864579 94.299392,244.039289 94.54227,244.16911 94.805808,244.249053 95.03075100000001,244.271208 106.329005,244.271208 106.553948,244.249053 106.817486,244.16911 107.060364,244.039289 107.273249,243.864579 107.447959,243.651694 107.57778,243.408816 107.657723,243.145278 107.679878,242.920335 107.679878,240.622081 107.657723,240.397138 107.57778,240.1336 107.447959,239.890722 107.273249,239.677837 107.060364,239.503127 106.817486,239.373306 106.553948,239.293363 106.329005,239.271208 95.03075100000001,239.271208 94.805808,239.293363 94.54227,239.373306 94.299392,239.503127 94.086507,239.677837 93.911797,239.890722 93.781976,240.1336 93.702033,240.397138 93.679878,240.622081 93.679878,242.920335" stroke="#1f6fb2" stroke-width="0.1" /><text fill="#0a3d62" font-family="sans-serif" font-size="1.6" text-anchor="middle" x="100.679878" y="241.771208">06</text><polygon fill="#cfe3f7" fill-opacity="0.5" points="4.0,254.140235 4.022155,254.365178 4.102098,254.628716 4.2319189999999995,254.871594 4.406629,255.084479 4.619514,255.259189 4.862392,255.38900999999998 5.12593,255.468953 5.350873,255.491108 16.649127,255.491108 16.87407,255.468953 17.137608,255.38900999999998 17.380485999999998,255.259189 17.593370999999998,255.084479 17.768081000000002,254.871594 17.897902000000002,254.628716 17.977845000000002,254.365178 18.0,254.140235 18.0,251.841981 17.977845000000002,251.617038 17.897902000000002,251.3535 17.768081000000002,251.110622 17.593370999999998,250.897737 17.380485999999998,250.723027 17.137608,250.593206 16.87407,250.513263 16.649127,250.491108 5.350873,250.491108 5.12593,250.513263 4.862392,250.593206 4.619514,250.723027 4.406629,250.897737 4.2319189999999995,251.110622 4.102098,251.3535 4.022155,251.617038 4.0,251.841981 4.0,254.140235" stroke="#1f6fb2" stroke-width="0.1" /><text fill="#0a3d62" font-family="sans-serif" font-size="1.6" text-anchor="middle" x="11.0" y="252.991108">06</text></svg>