<?xml version="1.0" encoding="utf-8" ?>
<svg baseProfile="full" height="164.697527cm" version="1.1" viewBox="0 0 158.0 164.697527" width="158.0cm" xmlns="http://www.w3.org/2000/svg" xmlns:ev="http://www.w3.org/2001/xml-events" xmlns:xlink="http://www.w3.org/1999/xlink"><defs /><rect fill="#f7f3ea" height="156.697527" stroke="#333" stroke-width="0.15" width="150.0" x="4.0" y="4.0" /><text fill="#000" font-family="sans-serif" font-size="1.4" x="4.0" y="3.0">PLANO DE CORTE — ancho 150 cm — largo 1.57 m</text><polygon fill="#cfe3f7" fill-opacity="0.5" points="4.0,75.733067 31.7,75.733067 31.7,26.857360999999997 31.100068,26.171653999999997 30.746677,25.768483 30.390684,25.363836 30.03155,24.957849 29.668433,24.550319 29.300496,24.141047999999998 28.926906,23.729844999999997 28.546843,23.316536 28.160414,22.901911 27.771075,22.488083 27.384597,22.076037 27.005541,21.665301 26.638339,21.255467 26.287416999999998,20.846346999999998 25.957145,20.437973 25.651775999999998,20.030609 25.375339999999998,19.624724 25.131521,19.22094 24.923496,18.819888 24.753785999999998,18.421923 24.623387,18.024288 24.5304,17.618925 24.471646,17.199514999999998 24.445508,16.764596 24.450623999999998,16.313914 24.485547999999998,15.847847 24.54861,15.367222 24.63787,14.873137 24.751132,14.366815 24.885973,13.849511 25.039794999999998,13.32245 25.209865,12.78679 25.393345999999998,12.243606999999999 25.587334,11.693886 25.788868,11.138521 26.320404,9.693617 13.274689,4.0 12.604548000000001,4.893731 12.408809,5.155346 12.212994,5.41821 12.017382000000001,5.682529 11.822256,5.948513 11.6279,6.216374999999999 11.434603,6.486328 11.242656,6.758584 11.052355,7.03336 10.863996,7.310871 10.677882,7.5913319999999995 10.494319,7.87496 10.313615,8.161969 10.136242,8.452314000000001 9.963303,8.744457 9.795078,9.035989 9.63075,9.325658 9.469275,9.612676 9.309653,9.896266 9.150927,10.17566 8.992184,10.450102000000001 8.832553,10.718852 8.671203,10.98119 8.507341,11.236425 8.340206,11.483908 8.169058,11.723041 7.993161000000001,11.953306000000001 7.810869,12.175367 7.619404,12.392209 7.41765,12.606558 7.206278,12.819252 6.986212,13.030951 6.7584420000000005,13.242343 6.524011,13.454155 6.322425,13.633067 4.0,13.633067 4.0,75.733067" stroke="#1f6fb2" stroke-width="0.1" /><text fill="#0a3d62" font-family="sans-serif" font-size="1.6" text-anchor="middle" x="17.85" y="39.8665335">01</text><polygon fill="#cfe3f7" fill-opacity="0.5" points="32.7,75.733067 60.400000000000006,75.733067 60.400000000000006,26.857360999999997 59.800068,26.171653999999997 59.446677,25.768483 59.090684,25.363836 58.73155,24.957849 58.368433,24.550319 58.000496,24.141047999999998 57.626906000000005,23.729844999999997 57.246843,23.316536 56.860414000000006,22.901911 56.471075,22.488083 56.084597,22.076037 55.705541000000004,21.665301 55.338339000000005,21.255467 54.987417,20.846346999999998 54.657145,20.437973 54.351776,20.030609 54.07534,19.624724 53.831521,19.22094 53.623496,18.819888 53.453786,18.421923 53.323387000000004,18.024288 53.2304,17.618925 53.171646,17.199514999999998 53.14550800000001,16.764596 53.150624,16.313914 53.185548,15.847847 53.24861,15.367222 53.33787,14.873137 53.451132,14.366815 53.585973,13.849511 53.739795,13.32245 53.909865,12.78679 54.093346,12.243606999999999 54.287334,11.693886 54.488868000000004,11.138521 55.020404,9.693617 41.974689000000005,4.0 41.304548000000004,4.893731 41.108809,5.155346 40.912994000000005,5.41821 40.717382,5.682529 40.522256000000006,5.948513 40.3279,6.216374999999999 40.134603000000006,6.486328 39.942656,6.758584 39.752355,7.03336 39.563996,7.310871 39.377882,7.5913319999999995 39.19431900000001,7.87496 39.013615,8.161969 38.836242000000006,8.452314000000001 38.663303,8.744457 38.49507800000001,9.035989 38.33075,9.325658 38.169275,9.612676 38.009653,9.896266 37.850927000000006,10.17566 37.692184000000005,10.450102000000001 37.53255300000001,10.718852 37.371203,10.98119 37.207341,11.236425 37.040206000000005,11.483908 36.869058,11.723041 36.693161,11.953306000000001 36.510869,12.175367 36.319404000000006,12.392209 36.117650000000005,12.606558 35.906278,12.819252 35.686212000000005,13.030951 35.458442000000005,13.242343 35.224011000000004,13.454155 35.022425000000005,13.633067 32.7,13.633067 32.7,75.733067" stroke="#1f6fb2" stroke-width="0.1" /><text fill="#0a3d62" font-family="sans-serif" font-size="1.6" text-anchor="middle" x="46.550000000000004" y="39.8665335">01</text><polygon fill="#cfe3f7" fill-opacity="0.5" points="61.4,74.267704 69.40722,74.267704 69.001177,17.827772 73.22492199999999,5.262131 70.700661,4.0 70.004548,4.928368 69.808809,5.189983 69.612994,5.452847 69.417382,5.717166 69.222256,5.98315 69.0279,6.251011999999999 68.834603,6.520965 68.642656,6.793221 68.452355,7.067997 68.26399599999999,7.345508 68.077882,7.6259689999999996 67.894319,7.909597 67.713615,8.196606 67.536242,8.486951000000001 67.363303,8.779094 67.195078,9.070626 67.03075,9.360295 66.869275,9.647313 66.709653,9.930903 66.550927,10.210297 66.392184,10.484739000000001 66.232553,10.753489 66.071203,11.015827 65.907341,11.271062 65.740206,11.518545 65.569058,11.757678 65.39316099999999,11.987943000000001 65.210869,12.210004 65.019404,12.426846 64.81765,12.641195 64.606278,12.853889 64.386212,13.065588 64.158442,13.27698 63.924011,13.488792 63.722425,13.667704 61.4,13.667704 61.4,74.267704" stroke="#1f6fb2" stroke-width="0.1" /><text fill="#0a3d62" font-family="sans-serif" font-size="1.6" text-anchor="middle" x="67.312461" y="39.133852">09</text><polygon fill="#cfe3f7" fill-opacity="0.5" points="74.22492199999999,74.267704 82.232142,74.267704 81.826099,17.827772 86.049844,5.262131 83.525583,4.0 82.82946999999999,4.928368 82.633731,5.189983 82.43791599999999,5.452847 82.24230399999999,5.717166 82.04717799999999,5.98315 81.85282199999999,6.251011999999999 81.65952499999999,6.520965 81.46757799999999,6.793221 81.277277,7.067997 81.08891799999999,7.345508 80.90280399999999,7.6259689999999996 80.719241,7.909597 80.53853699999999,8.196606 80.36116399999999,8.486951000000001 80.18822499999999,8.779094 80.02,9.070626 79.855672,9.360295 79.69419699999999,9.647313 79.53457499999999,9.930903 79.37584899999999,10.210297 79.21710599999999,10.484739000000001 79.057475,10.753489 78.896125,11.015827 78.73226299999999,11.271062 78.56512799999999,11.518545 78.39398,11.757678 78.218083,11.987943000000001 78.03579099999999,12.210004 77.844326,12.426846 77.64257199999999,12.641195 77.43119999999999,12.853889 77.21113399999999,13.065588 76.983364,13.27698 76.748933,13.488792 76.54734699999999,13.667704 74.22492199999999,13.667704 74.22492199999999,74.267704" stroke="#1f6fb2" stroke-width="0.1" /><text fill="#0a3d62" font-family="sans-serif" font-size="1.6" text-anchor="middle" x="80.137383" y="39.133852">09</text><polygon fill="#cfe3f7" fill-opacity="0.5" points="91.653381,66.004613 117.48208499999998,66.004613 122.09458599999999,14.559622999999998 121.38824299999999,13.774989999999999 120.96743599999999,13.312847999999999 120.53796,12.851835999999999 120.09776299999999,12.395239 119.647089,11.9474 119.18816699999999,11.51006 118.721992,11.082705 118.24918399999999,10.664458 117.770352,10.254439 117.286091,9.851766999999999 116.79698599999999,9.455561 116.30361299999998,9.064943 115.806533,8.679036 115.30564,8.296466 114.798901,7.915755 114.28382099999999,7.538259 113.75926199999999,7.1668959999999995 113.22424699999999,6.804792 112.67774399999999,6.4551289999999995 112.118687,6.121163 111.545992,5.80625 110.958596,5.513857 110.355505,5.24759 109.73737399999999,5.011762 109.109293,4.809616 108.477002,4.638591 107.84275,4.494111 107.20808099999999,4.371542 106.57441399999999,4.266382 105.94309799999999,4.174272 105.31546599999999,4.0909949999999995 104.59396799999999,4.0 103.85880699999998,4.05394 103.21806099999999,4.104962 102.57349099999999,4.164405 101.926244,4.236438 101.27747099999999,4.325369 100.62836899999999,4.435643 99.98024,4.57184 99.334651,4.738636 98.69578899999999,4.939882 98.06952299999999,5.174805 97.458158,5.439152 96.8611,5.729414 96.27751799999999,6.042254 95.70652999999999,6.374447 95.14723799999999,6.722872 94.59875699999999,7.084489 94.06023599999999,7.456322999999999 93.53085999999999,7.835451 93.009041,8.2196 92.491823,8.609293000000001 91.978595,9.007759 91.471195,9.417183999999999 90.971837,9.839547 90.48279199999999,10.276864 90.006406,10.731176 89.54511799999999,11.204525 89.10147699999999,11.698924 88.678642,12.215724 88.28228899999999,12.750982 87.91251799999999,13.294198000000002 87.56331999999999,13.837394 87.049844,14.659607999999999 91.653381,66.004613" stroke="#1f6fb2" stroke-width="0.1" /><text fill="#0a3d62" font-family="sans-serif" font-size="1.6" text-anchor="middle" x="104.572215" y="35.0023065">04</text><polygon fill="#cfe3f7" fill-opacity="0.5" points="8.603537000000001,138.73768 34.432241,138.73768 39.044742,87.29269000000001 38.338398999999995,86.50805700000001 37.917592,86.04591500000001 37.488116,85.584903 37.047919,85.12830600000001 36.597245,84.68046700000001 36.138323,84.243127 35.672148,83.81577200000001 35.19934,83.397525 34.720508,82.98750600000001 34.236247,82.584834 33.747142,82.18862800000001 33.253769,81.79801 32.756689,81.412103 32.255796000000004,81.029533 31.749057,80.64882200000001 31.233977,80.271326 30.709418,79.899963 30.174402999999998,79.53785900000001 29.6279,79.188196 29.068843,78.85423 28.496148,78.53931700000001 27.908752,78.246924 27.305661,77.98065700000001 26.687530000000002,77.74482900000001 26.059449,77.54268300000001 25.427158,77.37165800000001 24.792906000000002,77.22717800000001 24.158237,77.10460900000001 23.52457,76.999449 22.893254,76.90733900000001 22.265622,76.82406200000001 21.544124,76.733067 20.808963,76.787007 20.168217,76.838029 19.523647,76.89747200000001 18.8764,76.96950500000001 18.227627,77.058436 17.578525,77.16871 16.930396000000002,77.304907 16.284807,77.471703 15.645945000000001,77.672949 15.019679,77.90787200000001 14.408314,78.17221900000001 13.811256,78.46248100000001 13.227674,78.775321 12.656686,79.10751400000001 12.097394,79.455939 11.548913,79.81755600000001 11.010392,80.18939 10.481016,80.56851800000001 9.959197,80.952667 9.441979,81.34236 8.928751,81.740826 8.421351,82.15025100000001 7.9219930000000005,82.572614 7.432948,83.00993100000001 6.956562,83.46424300000001 6.495274,83.93759200000001 6.051633000000001,84.43199100000001 5.628798,84.948791 5.232445000000002,85.484049 4.862674000000002,86.027265 4.513476000000001,86.57046100000001 4.0,87.392675 8.603537000000001,138.73768" stroke="#1f6fb2" stroke-width="0.1" /><text fill="#0a3d62" font-family="sans-serif" font-size="1.6" text-anchor="middle" x="21.522371" y="107.73537350000001">04</text><polygon fill="#cfe3f7" fill-opacity="0.5" points="90.044742,89.43175500000001 89.58962199999999,88.745092 89.301076,88.309477 89.01258899999999,87.873411 88.72411,87.436547 88.435587,86.99853900000001 88.146968,86.55903900000001 87.858202,86.11770100000001 87.56924599999999,85.674194 87.28048799999999,85.228803 86.993721,84.782579 86.711463,84.33611900000001 86.435824,83.88937100000001 86.168871,83.442289 85.912645,82.994872 85.669155,82.54716 85.440362,82.099225 85.228172,81.65116300000001 85.034416,81.20307500000001 84.860837,80.755049 84.709084,80.307123 84.580687,79.859195 84.476635,79.40930700000001 84.396193,78.95352600000001 84.337575,78.48965600000001 84.299384,78.01763100000001 84.248128,76.733067 65.044742,76.733067 65.044742,138.233067 90.044742,138.233067 90.044742,89.43175500000001 40.044742,89.43175500000001 40.499862,88.745092 40.788408000000004,88.309477 41.076895,87.873411 41.365374,87.436547 41.653897,86.99853900000001 41.942516,86.55903900000001 42.231282,86.11770100000001 42.520238,85.674194 42.808996,85.228803 43.095763,84.782579 43.378021000000004,84.33611900000001 43.65366,83.88937100000001 43.920613,83.442289 44.176839,82.994872 44.420328999999995,82.54716 44.649122,82.099225 44.861312,81.65116300000001 45.055068,81.20307500000001 45.228646999999995,80.755049 45.380399999999995,80.307123 45.508797,79.859195 45.612849,79.40930700000001 45.693291,78.95352600000001 45.751909,78.48965600000001 45.790099999999995,78.01763100000001 45.841356000000005,76.733067 65.044742,76.733067 65.044742,138.233067 40.044742,138.233067 40.044742,89.43175500000001" stroke="#1f6fb2" stroke-width="0.1" /><text fill="#0a3d62" font-family="sans-serif" font-size="1.6" text-anchor="middle" x="65.044742" y="107.483067">02</text><polygon fill="#cfe3f7" fill-opacity="0.5" points="91.044742,88.00497200000001 98.044742,92.414972 105.044742,88.00497200000001 105.044742,76.733067 91.044742,76.733067 91.044742,88.00497200000001" stroke="#1f6fb2" stroke-width="0.1" /><text fill="#0a3d62" font-family="sans-serif" font-size="1.6" text-anchor="middle" x="98.044742" y="84.5740195">10</text><polygon fill="#cfe3f7" fill-opacity="0.5" points="106.044742,88.982194 106.074583,89.28517400000001 106.177289,89.623749 106.344074,89.935782 106.568528,90.209281 106.842027,90.43373500000001 107.15406,90.60052 107.49263499999999,90.703226 107.795615,90.733067 129.293869,90.733067 129.596849,90.703226 129.935424,90.60052 130.247457,90.43373500000001 130.520956,90.209281 130.74541,89.935782 130.912195,89.623749 131.014901,89.28517400000001 131.04474199999999,88.982194 131.04474199999999,78.48394 131.014901,78.18096 130.912195,77.84238500000001 130.74541,77.53035200000001 130.520956,77.256853 130.247457,77.03239900000001 129.935424,76.86561400000001 129.596849,76.76290800000001 129.293869,76.733067 107.795615,76.733067 107.49263499999999,76.76290800000001 107.15406,76.86561400000001 106.842027,77.03239900000001 106.568528,77.256853 106.344074,77.53035200000001 106.177289,77.84238500000001 106.074583,78.18096 106.044742,78.48394 106.044742,88.982194" stroke="#1f6fb2" stroke-width="0.1" /><text fill="#0a3d62" font-family="sans-serif" font-size="1.6" text-anchor="middle" x="118.544742" y="83.733067">05</text><polygon fill="#cfe3f7" fill-opacity="0.5" points="4.0,151.986807 4.029841,152.28978700000002 4.132547,152.628362 4.299332,152.94039500000002 4.523786,153.213894 4.7972850000000005,153.43834800000002 5.109318,153.60513300000002 5.4478930000000005,153.707839 5.750873,153.73768 27.249127,153.73768 27.552107,153.707839 27.890682,153.60513300000002 28.202715,153.43834800000002 28.476214,153.213894 28.700668,152.94039500000002 28.867453,152.628362 28.970159,152.28978700000002 29.0,151.986807 29.0,141.48855300000002 28.970159,141.185573 28.867453,140.846998 28.700668,140.534965 28.476214,140.261466 28.202715,140.037012 27.890682,139.870227 27.552107,139.76752100000002 27.249127,139.73768 5.750873,139.73768 5.4478930000000005,139.76752100000002 5.109318,139.870227 4.7972850000000005,140.037012 4.523786,140.261466 4.299332,140.534965 4.132547,140.846998 4.029841,141.185573 4.0,141.48855300000002 4.0,151.986807" stroke="#1f6fb2" stroke-width="0.1" /><text fill="#0a3d62" font-family="sans-serif" font-size="1.6" text-anchor="middle" x="16.5" y="146.73768">05</text><polygon fill="#cfe3f7" fill-opacity="0.5" points="69.109812,150.663744 69.10827,150.176063 69.12286,149.68108 69.152042,149.17922900000002 69.194218,148.67097600000002 69.247736,148.156801 69.310889,147.63718500000002 69.381927,147.11259800000002 69.459058,146.583492 69.540457,146.050295 69.74864600000001,144.716566 56.845692,139.73768 56.206584,140.171791 56.003755,140.30828000000002 55.803425000000004,140.44057800000002 55.605097,140.567877 55.408291,140.68942700000002 55.212533,140.804539 55.016683,140.912957 54.818733,141.015231 54.617676,141.11187 54.4137,141.20278100000002 54.207108000000005,141.287819 53.998204,141.36684300000002 53.787293000000005,141.43972000000002 53.574684000000005,141.506321 53.360684,141.56652200000002 53.145601,141.62020800000002 52.929643999999996,141.667289 52.712165999999996,141.70787800000002 52.492015,141.742465 52.268762,141.77154000000002 52.042410000000004,141.795525 51.81299,141.814853 51.580557,141.829972 51.345178000000004,141.84134600000002 51.106932,141.849458 50.865904,141.85480600000002 50.622182,141.85791 50.375856,141.859302 50.127012,141.85953700000002 49.874323000000004,141.85918 49.874323000000004,151.859181 69.157512,151.859181 69.109812,150.663744 30.638834,150.663744 30.640376,150.176063 30.625786,149.68108 30.596604,149.17922900000002 30.554428,148.67097600000002 30.50091,148.156801 30.437757,147.63718500000002 30.366719,147.11259800000002 30.289588000000002,146.583492 30.208189,146.050295 30.0,144.716566 42.902954,139.73768 43.542062,140.171791 43.744890999999996,140.30828000000002 43.945221000000004,140.44057800000002 44.143549,140.567877 44.340355,140.68942700000002 44.536113,140.804539 44.731963,140.912957 44.929913,141.015231 45.130970000000005,141.11187 45.334946,141.20278100000002 45.541538,141.287819 45.750442,141.36684300000002 45.961353,141.43972000000002 46.173962,141.506321 46.387962,141.56652200000002 46.603045,141.62020800000002 46.819002,141.667289 47.03648,141.70787800000002 47.256631,141.742465 47.479884,141.77154000000002 47.706236000000004,141.795525 47.935656,141.814853 48.168089,141.829972 48.403468000000004,141.84134600000002 48.641714,141.849458 48.882742,141.85480600000002 49.126464,141.85791 49.37279,141.859302 49.621634,141.85953700000002 49.874323000000004,141.85918 49.874323000000004,151.859181 30.591134,151.859181 30.638834,150.663744" stroke="#1f6fb2" stroke-width="0.1" /><text fill="#0a3d62" font-family="sans-serif" font-size="1.6" text-anchor="middle" x="49.874323000000004" y="145.79843050000002">03</text><polygon fill="#cfe3f7" fill-opacity="0.5" points="93.404015,146.592657 93.89550500000001,146.68195400000002 94.38704800000001,146.76615700000002 94.878641,146.845265 95.370282,146.91927600000002 95.861967,146.988189 96.353694,147.052003 96.84546,147.11071600000002 97.33726100000001,147.164328 97.82909500000001,147.212837 98.320959,147.256243 98.812849,147.294544 99.30476200000001,147.32774 99.796695,147.35583000000003 100.288645,147.378813 100.780608,147.39669 101.272582,147.40945900000003 101.76456200000001,147.417121 102.256545,147.41967400000001 102.74852800000001,147.417121 103.240508,147.40945900000003 103.732482,147.39669 104.224445,147.378813 104.716395,147.35583000000003 105.20832800000001,147.32774 105.700241,147.294544 106.192131,147.256243 106.68399500000001,147.212837 107.17582900000001,147.164328 107.66763,147.11071600000002 108.15939600000002,147.052003 108.65112300000001,146.988189 109.142808,146.91927600000002 109.634449,146.845265 110.12604200000001,146.76615700000002 110.617585,146.68195400000002 111.109075,146.592657 111.39342400000001,146.53804300000002 113.44514600000001,149.95758 114.500364,149.55859700000002 112.68727200000001,139.73768 111.21345600000001,140.036053 110.74168700000001,140.126665 110.26997300000001,140.212368 109.79831200000001,140.29316500000002 109.32670100000001,140.369057 108.85513800000001,140.44004600000002 108.38361900000001,140.506133 107.912142,140.567319 107.44070400000001,140.62360600000002 106.969301,140.674994 106.49793100000001,140.721485 106.02659100000001,140.763079 105.555277,140.799778 105.08398600000001,140.83158200000003 104.61271500000001,140.858492 104.141461,140.88050900000002 103.67022,140.89763200000002 103.19899000000001,140.909863 102.727766,140.917201 102.256545,140.91964800000002 101.785324,140.917201 101.31410000000001,140.909863 100.84287,140.89763200000002 100.37162900000001,140.88050900000002 99.90037500000001,140.858492 99.42910400000001,140.83158200000003 98.957813,140.799778 98.48649900000001,140.763079 98.01515900000001,140.721485 97.543789,140.674994 97.07238600000001,140.62360600000002 96.600948,140.567319 96.12947100000001,140.506133 95.65795200000001,140.44004600000002 95.186389,140.369057 94.71477800000001,140.29316500000002 94.24311700000001,140.212368 93.771403,140.126665 93.299634,140.036053 92.624505,139.89937400000002 92.624505,146.43994800000002 92.91258,146.49826900000002 93.404015,146.592657 91.84499500000001,146.592657 91.35350500000001,146.68195400000002 90.861962,146.76615700000002 90.37036900000001,146.845265 89.87872800000001,146.91927600000002 89.387043,146.988189 88.89531600000001,147.052003 88.40355000000001,147.11071600000002 87.91174900000001,147.164328 87.419915,147.212837 86.92805100000001,147.256243 86.436161,147.294544 85.944248,147.32774 85.452315,147.35583000000003 84.96036500000001,147.378813 84.46840200000001,147.39669 83.976428,147.40945900000003 83.484448,147.417121 82.99246500000001,147.41967400000001 82.500482,147.417121 82.00850200000001,147.40945900000003 81.51652800000001,147.39669 81.02456500000001,147.378813 80.532615,147.35583000000003 80.040682,147.32774 79.54876900000001,147.294544 79.05687900000001,147.256243 78.565015,147.212837 78.073181,147.164328 77.58138000000001,147.11071600000002 77.08961400000001,147.052003 76.59788700000001,146.988189 76.10620200000001,146.91927600000002 75.61456100000001,146.845265 75.12296800000001,146.76615700000002 74.63142500000001,146.68195400000002 74.13993500000001,146.592657 73.855586,146.53804300000002 71.803864,149.95758 70.74864600000001,149.55859700000002 72.561738,139.73768 74.035554,140.036053 74.50732300000001,140.126665 74.979037,140.212368 75.450698,140.29316500000002 75.92230900000001,140.369057 76.393872,140.44004600000002 76.865391,140.506133 77.33686800000001,140.567319 77.808306,140.62360600000002 78.27970900000001,140.674994 78.751079,140.721485 79.222419,140.763079 79.69373300000001,140.799778 80.165024,140.83158200000003 80.636295,140.858492 81.107549,140.88050900000002 81.57879000000001,140.89763200000002 82.05002,140.909863 82.52124400000001,140.917201 82.99246500000001,140.91964800000002 83.46368600000001,140.917201 83.93491,140.909863 84.40614000000001,140.89763200000002 84.87738100000001,140.88050900000002 85.348635,140.858492 85.819906,140.83158200000003 86.29119700000001,140.799778 86.762511,140.763079 87.23385100000002,140.721485 87.70522100000001,140.674994 88.176624,140.62360600000002 88.64806200000001,140.567319 89.119539,140.506133 89.591058,140.44004600000002 90.06262100000001,140.369057 90.534232,140.29316500000002 91.00589300000001,140.212368 91.477607,140.126665 91.949376,140.036053 92.624505,139.89937400000002 92.624505,146.43994800000002 92.33643000000001,146.49826900000002 91.84499500000001,146.592657" stroke="#1f6fb2" stroke-width="0.1" /><text fill="#0a3d62" font-family="sans-serif" font-size="1.6" text-anchor="middle" x="92.624505" y="144.84763">07</text><polygon fill="#cfe3f7" fill-opacity="0.5" points="26.876185,160.040222 27.407719999999998,160.11121500000002 27.939276,160.178154 28.470852,160.241038 29.002448,160.299867 29.534062,160.35464100000002 30.065693,160.40536 30.59734,160.452022 31.129001,160.494627 31.660674999999998,160.53317600000003 32.192361,160.56766800000003 32.724058,160.598103 33.255764,160.62448 33.787478,160.6468 34.319198,160.665062 34.850924,160.67926500000002 35.382654,160.689411 35.914386,160.69549800000001 36.44612,160.697527 36.977854,160.69549800000001 37.509586,160.689411 38.041315999999995,160.67926500000002 38.573042,160.665062 39.104762,160.6468 39.636476,160.62448 40.168182,160.598103 40.699878999999996,160.56766800000003 41.231565,160.53317600000003 41.763239,160.494627 42.2949,160.452022 42.826547,160.40536 43.358177999999995,160.35464100000002 43.889792,160.299867 44.421388,160.241038 44.952963999999994,160.178154 45.48452,160.11121500000002 46.016054999999994,160.040222 46.547566,159.965176 47.92816,159.75970800000002 47.92816,154.73768 46.260549999999995,154.98586400000002 45.743857,155.058818 45.227188,155.127825 44.710539999999995,155.19288600000002 44.193912,155.254002 43.677304,155.31117300000003 43.160714,155.36439900000002 42.644141,155.41368 42.127584,155.45901800000001 41.611041,155.500413 41.094511,155.537864 40.577993,155.57137200000003 40.061486,155.60093700000002 39.544988000000004,155.62656 39.028498,155.64824000000002 38.512014,155.66597800000002 37.995536,155.679775 37.479062,155.68962900000002 36.96259,155.69554200000002 36.44612,155.69751300000001 35.929649999999995,155.69554200000002 35.413178,155.68962900000002 34.896704,155.679775 34.380226,155.66597800000002 33.863742,155.64824000000002 33.347252,155.62656 32.830754,155.60093700000002 32.314246999999995,155.57137200000003 31.797729,155.537864 31.281199,155.500413 30.764656,155.45901800000001 30.248099,155.41368 29.731526,155.36439900000002 29.214935999999998,155.31117300000003 28.698328,155.254002 28.1817,155.19288600000002 27.665052,155.127825 27.148383,155.058818 26.63169,154.98586400000002 25.96408,154.88650600000003 25.96408,159.908534 26.344673999999998,159.965176 26.876185,160.040222 25.051975,160.040222 24.52044,160.11121500000002 23.988884,160.178154 23.457307999999998,160.241038 22.925711999999997,160.299867 22.394098,160.35464100000002 21.862467,160.40536 21.33082,160.452022 20.799159,160.494627 20.267485,160.53317600000003 19.735799,160.56766800000003 19.204102,160.598103 18.672396,160.62448 18.140681999999998,160.6468 17.608962,160.665062 17.077236,160.67926500000002 16.545506,160.689411 16.013773999999998,160.69549800000001 15.48204,160.697527 14.950306,160.69549800000001 14.418574,160.689411 13.886844,160.67926500000002 13.355118,160.665062 12.823398,160.6468 12.291683999999998,160.62448 11.759977999999998,160.598103 11.228280999999999,160.56766800000003 10.696594999999999,160.53317600000003 10.164921,160.494627 9.63326,160.452022 9.101613,160.40536 8.569982,160.35464100000002 8.038367999999998,160.299867 7.506771999999998,160.241038 6.975196,160.178154 6.4436399999999985,160.11121500000002 5.912105,160.040222 5.3805939999999985,159.965176 4.0,159.75970800000002 4.0,154.73768 5.66761,154.98586400000002 6.184303,155.058818 6.700972,155.127825 7.21762,155.19288600000002 7.734248000000001,155.254002 8.250855999999999,155.31117300000003 8.767446,155.36439900000002 9.284019,155.41368 9.800576,155.45901800000001 10.317119,155.500413 10.833649,155.537864 11.350166999999999,155.57137200000003 11.866674,155.60093700000002 12.383171999999998,155.62656 12.899662,155.64824000000002 13.416146,155.66597800000002 13.932623999999999,155.679775 14.449098,155.68962900000002 14.96557,155.69554200000002 15.48204,155.69751300000001 15.99851,155.69554200000002 16.514982,155.68962900000002 17.031456,155.679775 17.547933999999998,155.66597800000002 18.064418,155.64824000000002 18.580908,155.62656 19.097406,155.60093700000002 19.613913,155.57137200000003 20.130430999999998,155.537864 20.646960999999997,155.500413 21.163504,155.45901800000001 21.680061,155.41368 22.196634,155.36439900000002 22.713224,155.31117300000003 23.229832,155.254002 23.74646,155.19288600000002 24.263108,155.127825 24.779777,155.058818 25.29647,154.98586400000002 25.96408,154.88650600000003 25.96408,159.908534 25.583486,159.965176 25.051975,160.040222" stroke="#1f6fb2" stroke-width="0.1" /><text fill="#0a3d62" font-family="sans-serif" font-size="1.6" text-anchor="middle" x="25.96408" y="157.71760350000002">08</text><polygon fill="#cfe3f7" fill-opacity="0.5" points="48.92816,158.386807 48.950314999999996,158.61175 49.030257999999996,158.875288 49.160078999999996,159.118166 49.334789,159.331051 49.547674,159.505761 49.790552,159.635582 50.054089999999995,159.715525 50.279033,159.73768 61.577287,159.73768 61.802229999999994,159.715525 62.065768,159.635582 62.308645999999996,159.505761 62.521530999999996,159.331051 62.696241,159.118166 62.826062,158.875288 62.906005,158.61175 62.92816,158.386807 62.92816,156.08855300000002 62.906005,155.86361000000002 62.826062,155.600072 62.696241,155.35719400000002 62.521530999999996,155.14430900000002 62.308645999999996,154.96959900000002 62.065768,154.83977800000002 61.802229999999994,154.759835 61.577287,154.73768 50.279033,154.73768 50.054089999999995,154.759835 49.790552,154.83977800000002 49.547674,154.96959900000002 49.334789,155.14430900000002 49.160078999999996,155.35719400000002 49.030257999999996,155.600072 48.950314999999996,155.86361000000002 48.92816,156.08855300000002 48.92816,158.386807" stroke="#1f6fb2" stroke-width="0.1" /><text fill="#0a3d62" font-family="sans-serif" font-size="1.6" text-anchor="middle" x="55.92816" y="157.23768">06</text><polygon fill="#cfe3f7" fill-opacity="0.5" points="63.92816,158.386807 63.950314999999996,158.61175 64.030258,158.875288 64.160079,159.118166 64.334789,159.331051 64.547674,159.505761 64.790552,159.635582 65.05409,159.715525 65.279033,159.73768 76.577287,159.73768 76.80223,159.715525 77.06576799999999,159.635582 77.308646,159.505761 77.521531,159.331051 77.696241,159.118166 77.826062,158.875288 77.906005,158.61175 77.92815999999999,158.386807 77.92815999999999,156.08855300000002 77.906005,155.86361000000002 77.826062,155.600072 77.696241,155.35719400000002 77.521531,155.14430900000002 77.308646,154.96959900000002 77.06576799999999,154.83977800000002 76.80223,154.759835 76.577287,154.73768 65.279033,154.73768 65.05409,154.759835 64.790552,154.83977800000002 64.547674,154.96959900000002 64.334789,155.14430900000002 64.160079,155.35719400000002 64.030258,155.600072 63.950314999999996,155.86361000000002 63.92816,156.08855300000002 63.92816,158.386807" stroke="#1f6fb2" stroke-width="0.1" /><text fill="#0a3d62" font-family="sans-serif" font-size="1.6" text-anchor="middle" x="70.92815999999999" y="157.23768">06</text></svg>