<?xml version="1.0" encoding="utf-8" ?>
<svg baseProfile="full" height="145.416603cm" version="1.1" viewBox="0 0 168.0 145.416603" width="168.0cm" xmlns="http://www.w3.org/2000/svg" xmlns:ev="http://www.w3.org/2001/xml-events" xmlns:xlink="http://www.w3.org/1999/xlink"><defs /><rect fill="#f7f3ea" height="137.416603" stroke="#333" stroke-width="0.15" width="160.0" x="4.0" y="4.0" /><text fill="#000" font-family="sans-serif" font-size="1.4" x="4.0" y="3.0">PLANO DE CORTE — ancho 160 cm — largo 1.37 m</text><polygon fill="#cfe3f7" fill-opacity="0.5" points="4.0,74.416603 31.7,74.416603 31.7,27.040896999999998 31.100068,26.355189999999997 30.746677,25.952019 30.390684,25.547372 30.03155,25.141385 29.668433,24.733855 29.300496,24.324583999999998 28.926906,23.913380999999998 28.546843,23.500072 28.160414,23.085447 27.771075,22.671619 27.384597,22.259573 27.005541,21.848837 26.638339,21.439003 26.287416999999998,21.029882999999998 25.957145,20.621509 25.651775999999998,20.214145 25.375339999999998,19.80826 25.131521,19.404476000000003 24.923496,19.003424000000003 24.753785999999998,18.605459 24.623387,18.207824000000002 24.5304,17.802461 24.471646,17.383051000000002 24.445508,16.948132 24.450623999999998,16.49745 24.485547999999998,16.031382999999998 24.54861,15.550758 24.63787,15.056673 24.751132,14.550351000000001 24.885973,14.033047 25.039794999999998,13.505986 25.209865,12.970326 25.393345999999998,12.427143 25.587334,11.877422 25.788868,11.322057000000001 26.24783,10.074437 18.403983,4.0 17.229178,5.588299 16.664037,6.335345 16.096415,7.052375 15.522680000000001,7.7287360000000005 14.939796999999999,8.354008 14.345283,8.918338 13.736983,9.412908 13.112454,9.830471 12.466975999999999,10.166091000000002 11.784701,10.420415 11.049547,10.603461 10.260290000000001,10.725571 9.42385,10.796249 8.548389,10.826540000000001 7.642187,10.828863 6.706551,10.816603 4.0,10.816603 4.0,74.416603" stroke="#1f6fb2" stroke-width="0.1" /><text fill="#0a3d62" font-family="sans-serif" font-size="1.6" text-anchor="middle" x="17.85" y="39.2083015">01</text><polygon fill="#cfe3f7" fill-opacity="0.5" points="32.7,74.416603 60.400000000000006,74.416603 60.400000000000006,27.040896999999998 59.800068,26.355189999999997 59.446677,25.952019 59.090684,25.547372 58.73155,25.141385 58.368433,24.733855 58.000496,24.324583999999998 57.626906000000005,23.913380999999998 57.246843,23.500072 56.860414000000006,23.085447 56.471075,22.671619 56.084597,22.259573 55.705541000000004,21.848837 55.338339000000005,21.439003 54.987417,21.029882999999998 54.657145,20.621509 54.351776,20.214145 54.07534,19.80826 53.831521,19.404476000000003 53.623496,19.003424000000003 53.453786,18.605459 53.323387000000004,18.207824000000002 53.2304,17.802461 53.171646,17.383051000000002 53.14550800000001,16.948132 53.150624,16.49745 53.185548,16.031382999999998 53.24861,15.550758 53.33787,15.056673 53.451132,14.550351000000001 53.585973,14.033047 53.739795,13.505986 53.909865,12.970326 54.093346,12.427143 54.287334,11.877422 54.488868000000004,11.322057000000001 54.94783,10.074437 47.103983,4.0 45.92917800000001,5.588299 45.364037,6.335345 44.796415,7.052375 44.222680000000004,7.7287360000000005 43.639797,8.354008 43.045283000000005,8.918338 42.436983000000005,9.412908 41.812454,9.830471 41.166976000000005,10.166091000000002 40.484701,10.420415 39.74954700000001,10.603461 38.96029,10.725571 38.123850000000004,10.796249 37.248389,10.826540000000001 36.342187,10.828863 35.406551,10.816603 32.7,10.816603 32.7,74.416603" stroke="#1f6fb2" stroke-width="0.1" /><text fill="#0a3d62" font-family="sans-serif" font-size="1.6" text-anchor="middle" x="46.550000000000004" y="39.2083015">01</text><polygon fill="#cfe3f7" fill-opacity="0.5" points="61.4,74.267704 69.40722,74.267704 69.001177,17.827772 73.22492199999999,5.262131 70.700661,4.0 70.004548,4.928368 69.808809,5.189983 69.612994,5.452847 69.417382,5.717166 69.222256,5.98315 69.0279,6.251011999999999 68.834603,6.520965 68.642656,6.793221 68.452355,7.067997 68.26399599999999,7.345508 68.077882,7.6259689999999996 67.894319,7.909597 67.713615,8.196606 67.536242,8.486951000000001 67.363303,8.779094 67.195078,9.070626 67.03075,9.360295 66.869275,9.647313 66.709653,9.930903 66.550927,10.210297 66.392184,10.484739000000001 66.232553,10.753489 66.071203,11.015827 65.907341,11.271062 65.740206,11.518545 65.569058,11.757678 65.39316099999999,11.987943000000001 65.210869,12.210004 65.019404,12.426846 64.81765,12.641195 64.606278,12.853889 64.386212,13.065588 64.158442,13.27698 63.924011,13.488792 63.722425,13.667704 61.4,13.667704 61.4,74.267704" stroke="#1f6fb2" stroke-width="0.1" /><text fill="#0a3d62" font-family="sans-serif" font-size="1.6" text-anchor="middle" x="67.312461" y="39.133852">09</text><polygon fill="#cfe3f7" fill-opacity="0.5" points="74.22492199999999,74.267704 82.232142,74.267704 81.826099,17.827772 86.049844,5.262131 83.525583,4.0 82.82946999999999,4.928368 82.633731,5.189983 82.43791599999999,5.452847 82.24230399999999,5.717166 82.04717799999999,5.98315 81.85282199999999,6.251011999999999 81.65952499999999,6.520965 81.46757799999999,6.793221 81.277277,7.067997 81.08891799999999,7.345508 80.90280399999999,7.6259689999999996 80.719241,7.909597 80.53853699999999,8.196606 80.36116399999999,8.486951000000001 80.18822499999999,8.779094 80.02,9.070626 79.855672,9.360295 79.69419699999999,9.647313 79.53457499999999,9.930903 79.37584899999999,10.210297 79.21710599999999,10.484739000000001 79.057475,10.753489 78.896125,11.015827 78.73226299999999,11.271062 78.56512799999999,11.518545 78.39398,11.757678 78.218083,11.987943000000001 78.03579099999999,12.210004 77.844326,12.426846 77.64257199999999,12.641195 77.43119999999999,12.853889 77.21113399999999,13.065588 76.983364,13.27698 76.748933,13.488792 76.54734699999999,13.667704 74.22492199999999,13.667704 74.22492199999999,74.267704" stroke="#1f6fb2" stroke-width="0.1" /><text fill="#0a3d62" font-family="sans-serif" font-size="1.6" text-anchor="middle" x="80.137383" y="39.133852">09</text><polygon fill="#cfe3f7" fill-opacity="0.5" points="91.653381,66.004613 117.48208499999998,66.004613 122.09458599999999,14.559622999999998 121.38824299999999,13.774989999999999 120.96743599999999,13.312847999999999 120.53796,12.851835999999999 120.09776299999999,12.395239 119.647089,11.9474 119.18816699999999,11.51006 118.721992,11.082705 118.24918399999999,10.664458 117.770352,10.254439 117.286091,9.851766999999999 116.79698599999999,9.455561 116.30361299999998,9.064943 115.806533,8.679036 115.30564,8.296466 114.798901,7.915755 114.28382099999999,7.538259 113.75926199999999,7.1668959999999995 113.22424699999999,6.804792 112.67774399999999,6.4551289999999995 112.118687,6.121163 111.545992,5.80625 110.958596,5.513857 110.355505,5.24759 109.73737399999999,5.011762 109.109293,4.809616 108.477002,4.638591 107.84275,4.494111 107.20808099999999,4.371542 106.57441399999999,4.266382 105.94309799999999,4.174272 105.31546599999999,4.0909949999999995 104.59396799999999,4.0 103.85880699999998,4.05394 103.21806099999999,4.104962 102.57349099999999,4.164405 101.926244,4.236438 101.27747099999999,4.325369 100.62836899999999,4.435643 99.98024,4.57184 99.334651,4.738636 98.69578899999999,4.939882 98.06952299999999,5.174805 97.458158,5.439152 96.8611,5.729414 96.27751799999999,6.042254 95.70652999999999,6.374447 95.14723799999999,6.722872 94.59875699999999,7.084489 94.06023599999999,7.456322999999999 93.53085999999999,7.835451 93.009041,8.2196 92.491823,8.609293000000001 91.978595,9.007759 91.471195,9.417183999999999 90.971837,9.839547 90.48279199999999,10.276864 90.006406,10.731176 89.54511799999999,11.204525 89.10147699999999,11.698924 88.678642,12.215724 88.28228899999999,12.750982 87.91251799999999,13.294198000000002 87.56331999999999,13.837394 87.049844,14.659607999999999 91.653381,66.004613" stroke="#1f6fb2" stroke-width="0.1" /><text fill="#0a3d62" font-family="sans-serif" font-size="1.6" text-anchor="middle" x="104.572215" y="35.0023065">04</text><polygon fill="#cfe3f7" fill-opacity="0.5" points="127.698123,66.004613 153.526827,66.004613 158.13932799999998,14.559622999999998 157.43298499999997,13.774989999999999 157.012178,13.312847999999999 156.58270199999998,12.851835999999999 156.142505,12.395239 155.69183099999998,11.9474 155.232909,11.51006 154.76673399999999,11.082705 154.293926,10.664458 153.815094,10.254439 153.33083299999998,9.851766999999999 152.841728,9.455561 152.348355,9.064943 151.851275,8.679036 151.350382,8.296466 150.843643,7.915755 150.328563,7.538259 149.804004,7.1668959999999995 149.26898899999998,6.804792 148.722486,6.4551289999999995 148.163429,6.121163 147.590734,5.80625 147.00333799999999,5.513857 146.40024699999998,5.24759 145.782116,5.011762 145.154035,4.809616 144.52174399999998,4.638591 143.887492,4.494111 143.25282299999998,4.371542 142.619156,4.266382 141.98784,4.174272 141.360208,4.0909949999999995 140.63871,4.0 139.903549,4.05394 139.262803,4.104962 138.618233,4.164405 137.97098599999998,4.236438 137.322213,4.325369 136.673111,4.435643 136.024982,4.57184 135.379393,4.738636 134.740531,4.939882 134.114265,5.174805 133.50289999999998,5.439152 132.905842,5.729414 132.32226,6.042254 131.751272,6.374447 131.19198,6.722872 130.643499,7.084489 130.104978,7.456322999999999 129.575602,7.835451 129.05378299999998,8.2196 128.536565,8.609293000000001 128.023337,9.007759 127.515937,9.417183999999999 127.016579,9.839547 126.52753399999999,10.276864 126.051148,10.731176 125.58985999999999,11.204525 125.14621899999999,11.698924 124.723384,12.215724 124.32703099999999,12.750982 123.95725999999999,13.294198000000002 123.60806199999999,13.837394 123.09458599999999,14.659607999999999 127.698123,66.004613" stroke="#1f6fb2" stroke-width="0.1" /><text fill="#0a3d62" font-family="sans-serif" font-size="1.6" text-anchor="middle" x="140.61695699999999" y="35.0023065">04</text><polygon fill="#cfe3f7" fill-opacity="0.5" points="54.0,88.115291 53.54488,87.428628 53.256333999999995,86.99301299999999 52.967847,86.556947 52.679368,86.120083 52.390845,85.682075 52.102226,85.24257499999999 51.81346,84.80123699999999 51.524504,84.35773 51.235746,83.912339 50.948979,83.466115 50.666720999999995,83.019655 50.391082,82.57290699999999 50.124128999999996,82.12582499999999 49.867903,81.67840799999999 49.624413000000004,81.230696 49.39562,80.782761 49.18343,80.334699 48.989674,79.88661099999999 48.816095000000004,79.43858499999999 48.664342000000005,78.990659 48.535945,78.54273099999999 48.431893,78.09284299999999 48.351451,77.637062 48.292833,77.173192 48.254642000000004,76.701167 48.203385999999995,75.416603 29.0,75.416603 29.0,135.416603 54.0,135.416603 54.0,88.115291 4.0,88.115291 4.455120000000001,87.428628 4.743666000000001,86.99301299999999 5.032153000000001,86.556947 5.320632,86.120083 5.609155000000001,85.682075 5.897773999999998,85.24257499999999 6.186540000000001,84.80123699999999 6.475496,84.35773 6.764254000000001,83.912339 7.051020999999999,83.466115 7.333279000000001,83.019655 7.608917999999999,82.57290699999999 7.875871,82.12582499999999 8.132097000000002,81.67840799999999 8.375587,81.230696 8.604379999999999,80.782761 8.816569999999999,80.334699 9.010326,79.88661099999999 9.183905,79.43858499999999 9.335657999999999,78.990659 9.464054999999998,78.54273099999999 9.568107000000001,78.09284299999999 9.648549,77.637062 9.707166999999998,77.173192 9.745358,76.701167 9.796614000000002,75.416603 29.0,75.416603 29.0,135.416603 4.0,135.416603 4.0,88.115291" stroke="#1f6fb2" stroke-width="0.1" /><text fill="#0a3d62" font-family="sans-serif" font-size="1.6" text-anchor="middle" x="29.0" y="105.416603">02</text><polygon fill="#cfe3f7" fill-opacity="0.5" points="55.0,86.688508 62.0,91.098508 69.0,86.688508 69.0,75.416603 55.0,75.416603 55.0,86.688508" stroke="#1f6fb2" stroke-width="0.1" /><text fill="#0a3d62" font-family="sans-serif" font-size="1.6" text-anchor="middle" x="62.0" y="83.2575555">10</text><polygon fill="#cfe3f7" fill-opacity="0.5" points="70.0,87.66573 70.029841,87.96870999999999 70.132547,88.307285 70.299332,88.61931799999999 70.523786,88.892817 70.797285,89.11727099999999 71.109318,89.28405599999999 71.447893,89.38676199999999 71.750873,89.416603 93.249127,89.416603 93.552107,89.38676199999999 93.890682,89.28405599999999 94.202715,89.11727099999999 94.476214,88.892817 94.70066800000001,88.61931799999999 94.867453,88.307285 94.970159,87.96870999999999 95.0,87.66573 95.0,77.167476 94.970159,76.86449599999999 94.867453,76.525921 94.70066800000001,76.213888 94.476214,75.940389 94.202715,75.715935 93.890682,75.54915 93.552107,75.446444 93.249127,75.416603 71.750873,75.416603 71.447893,75.446444 71.109318,75.54915 70.797285,75.715935 70.523786,75.940389 70.299332,76.213888 70.132547,76.525921 70.029841,76.86449599999999 70.0,77.167476 70.0,87.66573" stroke="#1f6fb2" stroke-width="0.1" /><text fill="#0a3d62" font-family="sans-serif" font-size="1.6" text-anchor="middle" x="82.5" y="82.416603">05</text><polygon fill="#cfe3f7" fill-opacity="0.5" points="96.0,87.66573 96.029841,87.96870999999999 96.132547,88.307285 96.299332,88.61931799999999 96.523786,88.892817 96.797285,89.11727099999999 97.109318,89.28405599999999 97.447893,89.38676199999999 97.750873,89.416603 119.249127,89.416603 119.552107,89.38676199999999 119.890682,89.28405599999999 120.202715,89.11727099999999 120.476214,88.892817 120.70066800000001,88.61931799999999 120.867453,88.307285 120.970159,87.96870999999999 121.0,87.66573 121.0,77.167476 120.970159,76.86449599999999 120.867453,76.525921 120.70066800000001,76.213888 120.476214,75.940389 120.202715,75.715935 119.890682,75.54915 119.552107,75.446444 119.249127,75.416603 97.750873,75.416603 97.447893,75.446444 97.109318,75.54915 96.797285,75.715935 96.523786,75.940389 96.299332,76.213888 96.132547,76.525921 96.029841,76.86449599999999 96.0,77.167476 96.0,87.66573" stroke="#1f6fb2" stroke-width="0.1" /><text fill="#0a3d62" font-family="sans-serif" font-size="1.6" text-anchor="middle" x="108.5" y="82.416603">05</text><polygon fill="#cfe3f7" fill-opacity="0.5" points="161.109812,86.34266699999999 161.10827,85.854986 161.12286,85.36000299999999 161.152042,84.85815199999999 161.194218,84.349899 161.247736,83.835724 161.310889,83.316108 161.38192700000002,82.79152099999999 161.459058,82.26241499999999 161.540457,81.72921799999999 161.748646,80.395489 148.84569199999999,75.416603 148.206584,75.850714 148.003755,75.987203 147.803425,76.119501 147.605097,76.2468 147.408291,76.36834999999999 147.212533,76.48346199999999 147.016683,76.59187999999999 146.818733,76.694154 146.617676,76.790793 146.4137,76.881704 146.207108,76.966742 145.998204,77.045766 145.787293,77.11864299999999 145.574684,77.185244 145.360684,77.24544499999999 145.145601,77.29913099999999 144.929644,77.346212 144.712166,77.38680099999999 144.492015,77.421388 144.268762,77.450463 144.04241,77.474448 143.81299,77.493776 143.580557,77.508895 143.345178,77.520269 143.106932,77.528381 142.865904,77.533729 142.622182,77.536833 142.375856,77.538225 142.127012,77.53846 141.874323,77.53810299999999 141.874323,87.53810399999999 161.157512,87.53810399999999 161.109812,86.34266699999999 122.638834,86.34266699999999 122.640376,85.854986 122.625786,85.36000299999999 122.596604,84.85815199999999 122.554428,84.349899 122.50091,83.835724 122.437757,83.316108 122.366719,82.79152099999999 122.28958800000001,82.26241499999999 122.208189,81.72921799999999 122.0,80.395489 134.902954,75.416603 135.542062,75.850714 135.744891,75.987203 135.945221,76.119501 136.143549,76.2468 136.340355,76.36834999999999 136.536113,76.48346199999999 136.731963,76.59187999999999 136.929913,76.694154 137.13097,76.790793 137.334946,76.881704 137.541538,76.966742 137.750442,77.045766 137.961353,77.11864299999999 138.173962,77.185244 138.38796200000002,77.24544499999999 138.603045,77.29913099999999 138.819002,77.346212 139.03648,77.38680099999999 139.256631,77.421388 139.479884,77.450463 139.706236,77.474448 139.935656,77.493776 140.168089,77.508895 140.403468,77.520269 140.641714,77.528381 140.882742,77.533729 141.126464,77.536833 141.37279,77.538225 141.621634,77.53846 141.874323,77.53810299999999 141.874323,87.53810399999999 122.591134,87.53810399999999 122.638834,86.34266699999999" stroke="#1f6fb2" stroke-width="0.1" /><text fill="#0a3d62" font-family="sans-serif" font-size="1.6" text-anchor="middle" x="141.874323" y="81.47735349999999">03</text><polygon fill="#cfe3f7" fill-opacity="0.5" points="4.0,140.06573 4.022155,140.290673 4.102098,140.554211 4.2319189999999995,140.797089 4.406629,141.009974 4.619514,141.184684 4.862392,141.314505 5.12593,141.394448 5.350873,141.416603 16.649127,141.416603 16.87407,141.394448 17.137608,141.314505 17.380485999999998,141.184684 17.593370999999998,141.009974 17.768081000000002,140.797089 17.897902000000002,140.554211 17.977845000000002,140.290673 18.0,140.06573 18.0,137.76747600000002 17.977845000000002,137.54253300000002 17.897902000000002,137.278995 17.768081000000002,137.03611700000002 17.593370999999998,136.82323200000002 17.380485999999998,136.648522 17.137608,136.51870100000002 16.87407,136.438758 16.649127,136.416603 5.350873,136.416603 5.12593,136.438758 4.862392,136.51870100000002 4.619514,136.648522 4.406629,136.82323200000002 4.2319189999999995,137.03611700000002 4.102098,137.278995 4.022155,137.54253300000002 4.0,137.76747600000002 4.0,140.06573" stroke="#1f6fb2" stroke-width="0.1" /><text fill="#0a3d62" font-family="sans-serif" font-size="1.6" text-anchor="middle" x="11.0" y="138.916603">06</text><polygon fill="#cfe3f7" fill-opacity="0.5" points="19.0,140.06573 19.022155,140.290673 19.102098,140.554211 19.231919,140.797089 19.406629,141.009974 19.619514,141.184684 19.862392,141.314505 20.12593,141.394448 20.350873,141.416603 31.649127,141.416603 31.87407,141.394448 32.137608,141.314505 32.380486,141.184684 32.593371,141.009974 32.768081,140.797089 32.897902,140.554211 32.977845,140.290673 33.0,140.06573 33.0,137.76747600000002 32.977845,137.54253300000002 32.897902,137.278995 32.768081,137.03611700000002 32.593371,136.82323200000002 32.380486,136.648522 32.137608,136.51870100000002 31.87407,136.438758 31.649127,136.416603 20.350873,136.416603 20.12593,136.438758 19.862392,136.51870100000002 19.619514,136.648522 19.406629,136.82323200000002 19.231919,137.03611700000002 19.102098,137.278995 19.022155,137.54253300000002 19.0,137.76747600000002 19.0,140.06573" stroke="#1f6fb2" stroke-width="0.1" /><text fill="#0a3d62" font-family="sans-serif" font-size="1.6" text-anchor="middle" x="26.0" y="138.916603">06</text></svg>