<?xml version="1.0" encoding="utf-8" ?>
<svg baseProfile="full" height="150.490292cm" version="1.1" viewBox="0 0 168.0 150.490292" width="168.0cm" xmlns="http://www.w3.org/2000/svg" xmlns:ev="http://www.w3.org/2001/xml-events" xmlns:xlink="http://www.w3.org/1999/xlink"><defs /><rect fill="#f7f3ea" height="142.490292" stroke="#333" stroke-width="0.15" width="160.0" x="4.0" y="4.0" /><text fill="#000" font-family="sans-serif" font-size="1.4" x="4.0" y="3.0">PLANO DE CORTE — ancho 160 cm — largo 1.42 m</text><polygon fill="#cfe3f7" fill-opacity="0.5" points="4.0,74.27712 12.00722,74.27712 11.601177,17.837187999999998 15.824922,5.271547 13.281829,4.0 12.589966,4.97153 12.394179000000001,5.247058 12.198366,5.523829 12.002815,5.802047 11.807819,6.081919 11.613672000000001,6.363653 11.420673,6.647458 11.229121,6.9335439999999995 11.039321000000001,7.222123 10.851581,7.5134050000000006 10.66621,7.8076039999999995 10.483523,8.104929 10.303839,8.405593 10.12762,8.709561 9.955919,9.015327 9.788956,9.320492 9.625877,9.623798 9.465603,9.924468000000001 9.307096,10.221734999999999 9.149362,10.514841 8.991447,10.803038 8.832439,11.085594 8.671467,11.361792000000001 8.507696,11.630946 8.340322,11.892405 8.168566,12.145571 7.991658,12.389911 7.808073,12.625935 7.615093,12.856554 7.411572,13.08466 7.198189,13.311169 6.975921,13.536747 6.832577000000001,13.67712 4.0,13.67712 4.0,74.27712" stroke="#1f6fb2" stroke-width="0.1" /><text fill="#0a3d62" font-family="sans-serif" font-size="1.6" text-anchor="middle" x="9.912461" y="39.13856">09</text><polygon fill="#cfe3f7" fill-opacity="0.5" points="16.824922,74.27712 24.832142,74.27712 24.426099,17.837187999999998 28.649844,5.271547 26.106751000000003,4.0 25.414888,4.97153 25.219101000000002,5.247058 25.023288,5.523829 24.827737,5.802047 24.632741000000003,6.081919 24.438594000000002,6.363653 24.245595,6.647458 24.054043,6.9335439999999995 23.864243000000002,7.222123 23.676503,7.5134050000000006 23.491132,7.8076039999999995 23.308445,8.104929 23.128761,8.405593 22.952542,8.709561 22.780841000000002,9.015327 22.613878,9.320492 22.450799,9.623798 22.290525000000002,9.924468000000001 22.132018000000002,10.221734999999999 21.974284,10.514841 21.816369,10.803038 21.657361,11.085594 21.496389,11.361792000000001 21.332618,11.630946 21.165244,11.892405 20.993488,12.145571 20.816580000000002,12.389911 20.632995,12.625935 20.440015000000002,12.856554 20.236494,13.08466 20.023111,13.311169 19.800843,13.536747 19.657499,13.67712 16.824922,13.67712 16.824922,74.27712" stroke="#1f6fb2" stroke-width="0.1" /><text fill="#0a3d62" font-family="sans-serif" font-size="1.6" text-anchor="middle" x="22.737383" y="39.13856">09</text><polygon fill="#cfe3f7" fill-opacity="0.5" points="29.649844,74.241135 57.349844000000004,74.241135 57.349844000000004,26.835031 56.669314,26.135337 56.269076999999996,25.725236 55.86434,25.313334 55.453467,24.899379 55.034832,24.483139 54.606821,24.064398 54.167829,23.642954 53.716260000000005,23.218613 53.250564,22.791224 52.770683000000005,22.361873 52.281844,21.932924 51.792506,21.505383 51.309663,21.078892 50.840328,20.653345 50.391631000000004,20.229017000000002 49.970768,19.806618999999998 49.584904,19.387393 49.240995,18.973213 48.945472,18.566663 48.703702,18.170935 48.519261,17.789305 48.393225,17.423774 48.323444,17.068531 48.306059000000005,16.705595000000002 48.339315,16.320161 48.424026,15.908637 48.560265,15.471687 48.746471,15.011919 48.979516000000004,14.532586 49.255128,14.036865 49.568308,13.527552 49.91364,13.00699 50.285499,12.477102 50.678163,11.939444 51.085890000000006,11.395267 52.271152,9.83301 38.906047,4.0 38.239810000000006,4.935545 38.044023,5.211073 37.84821,5.487844 37.652659,5.766062 37.457663000000004,6.045934 37.263516,6.327668 37.070517,6.611473 36.878965,6.897559 36.689165,7.186138 36.501425000000005,7.47742 36.316054,7.771619 36.133367,8.068944 35.953683,8.369608 35.777464,8.673576 35.605763,8.979341999999999 35.4388,9.284507 35.275721000000004,9.587813 35.115447,9.888483 34.95694,10.185749999999999 34.799206,10.478856 34.641291,10.767053 34.482283,11.049609 34.321311,11.325807000000001 34.157540000000004,11.594961 33.990166,11.85642 33.81841,12.109586 33.641502,12.353926 33.457917,12.58995 33.264937,12.820569 33.061416,13.048675000000001 32.848033,13.275184 32.625765,13.500762 32.482421,13.641135 29.649844,13.641135 29.649844,74.241135" stroke="#1f6fb2" stroke-width="0.1" /><text fill="#0a3d62" font-family="sans-serif" font-size="1.6" text-anchor="middle" x="43.499844" y="39.1205675">01</text><polygon fill="#cfe3f7" fill-opacity="0.5" points="58.349844000000004,74.241135 86.04984400000001,74.241135 86.04984400000001,26.835031 85.369314,26.135337 84.969077,25.725236 84.56434,25.313334 84.153467,24.899379 83.73483200000001,24.483139 83.306821,24.064398 82.867829,23.642954 82.41626000000001,23.218613 81.950564,22.791224 81.47068300000001,22.361873 80.981844,21.932924 80.492506,21.505383 80.009663,21.078892 79.540328,20.653345 79.091631,20.229017000000002 78.67076800000001,19.806618999999998 78.28490400000001,19.387393 77.940995,18.973213 77.64547200000001,18.566663 77.40370200000001,18.170935 77.219261,17.789305 77.093225,17.423774 77.02344400000001,17.068531 77.00605900000001,16.705595000000002 77.039315,16.320161 77.124026,15.908637 77.260265,15.471687 77.446471,15.011919 77.679516,14.532586 77.955128,14.036865 78.268308,13.527552 78.61364,13.00699 78.985499,12.477102 79.378163,11.939444 79.78589000000001,11.395267 80.971152,9.83301 67.606047,4.0 66.93981000000001,4.935545 66.744023,5.211073 66.54821000000001,5.487844 66.352659,5.766062 66.157663,6.045934 65.963516,6.327668 65.770517,6.611473 65.57896500000001,6.897559 65.389165,7.186138 65.201425,7.47742 65.016054,7.771619 64.83336700000001,8.068944 64.653683,8.369608 64.477464,8.673576 64.305763,8.979341999999999 64.1388,9.284507 63.97572100000001,9.587813 63.815447000000006,9.888483 63.656940000000006,10.185749999999999 63.499206,10.478856 63.341291000000005,10.767053 63.182283000000005,11.049609 63.021311000000004,11.325807000000001 62.85754000000001,11.594961 62.690166000000005,11.85642 62.51841,12.109586 62.341502000000006,12.353926 62.157917000000005,12.58995 61.964937000000006,12.820569 61.761416000000004,13.048675000000001 61.548033000000004,13.275184 61.325765000000004,13.500762 61.182421000000005,13.641135 58.349844000000004,13.641135 58.349844000000004,74.241135" stroke="#1f6fb2" stroke-width="0.1" /><text fill="#0a3d62" font-family="sans-serif" font-size="1.6" text-anchor="middle" x="72.199844" y="39.1205675">01</text><polygon fill="#cfe3f7" fill-opacity="0.5" points="92.87380900000001,66.005586 118.653435,66.005586 124.48880500000001,16.134794 123.777876,15.283145000000001 123.33629,14.760045999999999 122.88583100000001,14.238246 122.42408700000001,13.721012000000002 121.950765,13.212814999999999 121.46794600000001,12.715608 120.976743,12.228902 120.477833,11.751744 119.971879,11.283179 119.45953300000001,10.822249 118.94143300000002,10.367995 118.418209,9.919459 117.890479,9.475687 117.358433,9.035378999999999 116.82030600000002,8.59664 116.27321300000001,8.160623000000001 115.715586,7.730626 115.14619200000001,7.310321 114.56372800000001,6.903441 113.96683800000001,6.5138 113.354139,6.145322 112.72426000000002,5.802068 112.07589200000001,5.488259 111.40894600000001,5.208743 110.72817800000001,4.968128 110.04047500000001,4.764244 109.34900900000001,4.591817 108.65576700000001,4.4453570000000004 107.96256600000001,4.3195250000000005 107.271133,4.209156 106.58317000000001,4.109253 105.791869,4.0 104.984115,4.0656 104.280325,4.127579 103.572809,4.199648 102.86304000000001,4.286804 102.15249800000001,4.39421 101.442732,4.527198 100.735433,4.691262 100.03278900000001,4.891951 99.34043600000001,5.133317 98.66444700000001,5.413119 98.00632900000001,5.726373000000001 97.36515200000001,6.068948 96.739833,6.436884 96.12923900000001,6.826359 95.53223500000001,7.233673 94.94771,7.655219000000001 94.37460100000001,8.08746 93.81187100000001,8.526936 93.25727400000001,8.971313 92.70811300000001,9.421824 92.16459800000001,9.881701 91.628881,10.352997 91.10328600000001,10.837697 90.59019300000001,11.337812 90.092054,11.855368 89.61140700000001,12.392382000000001 89.15089,12.950837 88.71389500000001,13.531784000000002 88.30558,14.130635999999999 87.92441600000001,14.737008 87.56364500000001,15.34365 87.04984400000001,16.232262 92.87380900000001,66.005586" stroke="#1f6fb2" stroke-width="0.1" /><text fill="#0a3d62" font-family="sans-serif" font-size="1.6" text-anchor="middle" x="105.76932450000001" y="35.002793">04</text><polygon fill="#cfe3f7" fill-opacity="0.5" points="131.31277,66.005586 157.092396,66.005586 162.92776600000002,16.134794 162.216837,15.283145000000001 161.77525100000003,14.760045999999999 161.324792,14.238246 160.86304800000002,13.721012000000002 160.389726,13.212814999999999 159.90690700000002,12.715608 159.415704,12.228902 158.916794,11.751744 158.41084,11.283179 157.89849400000003,10.822249 157.38039400000002,10.367995 156.85717000000002,9.919459 156.32944,9.475687 155.79739400000003,9.035378999999999 155.25926700000002,8.59664 154.712174,8.160623000000001 154.154547,7.730626 153.58515300000002,7.310321 153.002689,6.903441 152.405799,6.5138 151.7931,6.145322 151.16322100000002,5.802068 150.51485300000002,5.488259 149.84790700000002,5.208743 149.16713900000002,4.968128 148.47943600000002,4.764244 147.78797000000003,4.591817 147.094728,4.4453570000000004 146.40152700000002,4.3195250000000005 145.71009400000003,4.209156 145.022131,4.109253 144.23083000000003,4.0 143.423076,4.0656 142.719286,4.127579 142.01177,4.199648 141.30200100000002,4.286804 140.59145900000001,4.39421 139.881693,4.527198 139.174394,4.691262 138.47175000000001,4.891951 137.77939700000002,5.133317 137.103408,5.413119 136.44529,5.726373000000001 135.80411300000003,6.068948 135.178794,6.436884 134.56820000000002,6.826359 133.97119600000002,7.233673 133.386671,7.655219000000001 132.81356200000002,8.08746 132.250832,8.526936 131.696235,8.971313 131.147074,9.421824 130.60355900000002,9.881701 130.067842,10.352997 129.542247,10.837697 129.029154,11.337812 128.53101500000002,11.855368 128.05036800000002,12.392382000000001 127.58985100000001,12.950837 127.15285600000001,13.531784000000002 126.74454100000001,14.130635999999999 126.36337700000001,14.737008 126.00260600000001,15.34365 125.48880500000001,16.232262 131.31277,66.005586" stroke="#1f6fb2" stroke-width="0.1" /><text fill="#0a3d62" font-family="sans-serif" font-size="1.6" text-anchor="middle" x="144.20828550000002" y="35.002793">04</text><polygon fill="#cfe3f7" fill-opacity="0.5" points="54.0,87.914525 53.408283999999995,87.205855 53.047069,86.774166 52.682741,86.340599 52.314092,85.904635 51.939915,85.465767 51.559011999999996,85.023495 51.170187,84.577328 50.772253,84.12678299999999 50.364062000000004,83.67142199999999 49.945682000000005,83.212028 49.521406999999996,82.750862 49.097831,82.28933699999999 48.680504,81.827715 48.274973,81.36644199999999 47.886821,80.906221 47.521629000000004,80.44804099999999 47.184905,79.993212 46.88198,79.543397 46.617835,79.10062099999999 46.396851999999996,78.667189 46.222496,78.24543399999999 46.097015999999996,77.83716899999999 46.021364,77.442636 45.99541,77.054954 46.018297000000004,76.659432 46.255678,75.27712 29.0,75.27712 29.0,135.27712 54.0,135.27712 54.0,87.914525 4.0,87.914525 4.591716000000002,87.205855 4.9529309999999995,86.774166 5.317259,86.340599 5.685908000000001,85.904635 6.060085000000001,85.465767 6.440988000000001,85.023495 6.8298130000000015,84.577328 7.227747000000001,84.12678299999999 7.6359379999999994,83.67142199999999 8.054317999999999,83.212028 8.478593,82.750862 8.902169,82.28933699999999 9.319496000000001,81.827715 9.725027,81.36644199999999 10.113178999999999,80.906221 10.478371,80.44804099999999 10.815095,79.993212 11.118020000000001,79.543397 11.382165,79.10062099999999 11.603148000000001,78.667189 11.777504,78.24543399999999 11.902984,77.83716899999999 11.978636000000002,77.442636 12.00459,77.054954 11.981703,76.659432 11.744322,75.27712 29.0,75.27712 29.0,135.27712 4.0,135.27712 4.0,87.914525" stroke="#1f6fb2" stroke-width="0.1" /><text fill="#0a3d62" font-family="sans-serif" font-size="1.6" text-anchor="middle" x="29.0" y="105.27712">02</text><polygon fill="#cfe3f7" fill-opacity="0.5" points="55.0,86.549025 62.0,90.959025 69.0,86.549025 69.0,75.27712 55.0,75.27712 55.0,86.549025" stroke="#1f6fb2" stroke-width="0.1" /><text fill="#0a3d62" font-family="sans-serif" font-size="1.6" text-anchor="middle" x="62.0" y="83.1180725">10</text><polygon fill="#cfe3f7" fill-opacity="0.5" points="70.0,87.526247 70.029841,87.829227 70.132547,88.167802 70.299332,88.479835 70.523786,88.753334 70.797285,88.977788 71.109318,89.144573 71.447893,89.24727899999999 71.750873,89.27712 93.249127,89.27712 93.552107,89.24727899999999 93.890682,89.144573 94.202715,88.977788 94.476214,88.753334 94.70066800000001,88.479835 94.867453,88.167802 94.970159,87.829227 95.0,87.526247 95.0,77.027993 94.970159,76.72501299999999 94.867453,76.386438 94.70066800000001,76.074405 94.476214,75.800906 94.202715,75.576452 93.890682,75.409667 93.552107,75.306961 93.249127,75.27712 71.750873,75.27712 71.447893,75.306961 71.109318,75.409667 70.797285,75.576452 70.523786,75.800906 70.299332,76.074405 70.132547,76.386438 70.029841,76.72501299999999 70.0,77.027993 70.0,87.526247" stroke="#1f6fb2" stroke-width="0.1" /><text fill="#0a3d62" font-family="sans-serif" font-size="1.6" text-anchor="middle" x="82.5" y="82.27712">05</text><polygon fill="#cfe3f7" fill-opacity="0.5" points="96.0,87.526247 96.029841,87.829227 96.132547,88.167802 96.299332,88.479835 96.523786,88.753334 96.797285,88.977788 97.109318,89.144573 97.447893,89.24727899999999 97.750873,89.27712 119.249127,89.27712 119.552107,89.24727899999999 119.890682,89.144573 120.202715,88.977788 120.476214,88.753334 120.70066800000001,88.479835 120.867453,88.167802 120.970159,87.829227 121.0,87.526247 121.0,77.027993 120.970159,76.72501299999999 120.867453,76.386438 120.70066800000001,76.074405 120.476214,75.800906 120.202715,75.576452 119.890682,75.409667 119.552107,75.306961 119.249127,75.27712 97.750873,75.27712 97.447893,75.306961 97.109318,75.409667 96.797285,75.576452 96.523786,75.800906 96.299332,76.074405 96.132547,76.386438 96.029841,76.72501299999999 96.0,77.027993 96.0,87.526247" stroke="#1f6fb2" stroke-width="0.1" /><text fill="#0a3d62" font-family="sans-serif" font-size="1.6" text-anchor="middle" x="108.5" y="82.27712">05</text><polygon fill="#cfe3f7" fill-opacity="0.5" points="159.723369,86.363621 159.841737,85.93207199999999 160.006064,85.482866 160.213682,85.017961 160.46090800000002,84.53956699999999 160.743336,84.049768 161.056091,83.550355 161.394027,83.04278599999999 161.75185299999998,82.528198 162.124213,82.00743899999999 163.268334,80.429031 149.916982,75.27712 149.271888,75.697288 149.058417,75.835028 148.84745800000002,75.968597 148.638513,76.097152 148.431107,76.2199 148.22475500000002,76.336117 148.018245,76.445532 147.809552,76.548672 147.597726,76.646013 147.38297,76.737472 147.165581,76.822923 146.945859,76.902247 146.724105,76.97532799999999 146.50062,77.04205499999999 146.275709,77.102324 146.049674,77.156033 145.822708,77.20311 145.594185,77.243678 145.363055,77.27822499999999 145.128971,77.307234 144.891941,77.331135 144.651999,77.35037 144.409196,77.36539499999999 144.163596,77.37668099999999 143.915273,77.38471299999999 143.664307,77.38999299999999 143.410779,77.393041 143.154771,77.39439 142.896365,77.39459 142.634167,77.394204 142.634167,87.394205 159.546389,87.394205 159.723369,86.363621 125.544965,86.363621 125.426597,85.93207199999999 125.26227,85.482866 125.054652,85.017961 124.807426,84.53956699999999 124.524998,84.049768 124.212243,83.550355 123.874307,83.04278599999999 123.516481,82.528198 123.144121,82.00743899999999 122.0,80.429031 135.351352,75.27712 135.996446,75.697288 136.209917,75.835028 136.420876,75.968597 136.629821,76.097152 136.837227,76.2199 137.043579,76.336117 137.250089,76.445532 137.458782,76.548672 137.67060800000002,76.646013 137.885364,76.737472 138.102753,76.822923 138.322475,76.902247 138.544229,76.97532799999999 138.767714,77.04205499999999 138.992625,77.102324 139.21866,77.156033 139.445626,77.20311 139.674149,77.243678 139.905279,77.27822499999999 140.139363,77.307234 140.376393,77.331135 140.616335,77.35037 140.859138,77.36539499999999 141.104738,77.37668099999999 141.353061,77.38471299999999 141.604027,77.38999299999999 141.857555,77.393041 142.113563,77.39439 142.371969,77.39459 142.634167,77.394204 142.634167,87.394205 125.721945,87.394205 125.544965,86.363621" stroke="#1f6fb2" stroke-width="0.1" /><text fill="#0a3d62" font-family="sans-serif" font-size="1.6" text-anchor="middle" x="142.634167" y="81.3356625">03</text><polygon fill="#cfe3f7" fill-opacity="0.5" points="27.387452,143.1265 27.895914,143.215679 28.404425,143.299771 28.912981,143.378773 29.421579,143.452685 29.930218,143.521504 30.438895,143.585231 30.947606,143.643863 31.45635,143.69740099999999 31.965123,143.74584199999998 32.473923,143.789187 32.982747,143.82743399999998 33.491591,143.860582 34.000454,143.888632 34.509331,143.911583 35.018221,143.929434 35.527119,143.942185 36.036024,143.949835 36.544931,143.952386 37.053838999999996,143.949835 37.562744,143.942185 38.071642,143.929434 38.580532,143.911583 39.089409,143.888632 39.598272,143.860582 40.107116,143.82743399999998 40.61594,143.789187 41.124739,143.74584199999998 41.633513,143.69740099999999 42.142256,143.643863 42.650968,143.585231 43.159645,143.521504 43.668284,143.452685 44.176882,143.378773 44.685438000000005,143.299771 45.193949,143.215679 45.702411,143.1265 46.025042,143.06668 48.07921,146.490292 49.134428,146.091309 47.322578,136.27712 45.836702,136.567513 45.347342999999995,136.658246 44.858034,136.744067 44.368773000000004,136.824975 43.879557,136.900973 43.390384,136.972061 42.901251,137.038242 42.412155999999996,137.099515 41.923096,137.155883 41.434067999999996,137.207345 40.945069000000004,137.253904 40.456097,137.295559 39.967149,137.332312 39.478222,137.364164 38.989312999999996,137.391114 38.500417999999996,137.413163 38.011536,137.430312 37.522663,137.44256099999998 37.033796,137.449911 36.544931,137.45236 36.056067,137.449911 35.5672,137.44256099999998 35.078327,137.430312 34.589445,137.413163 34.10055,137.391114 33.611641,137.364164 33.122714,137.332312 32.633766,137.295559 32.144794000000005,137.253904 31.655794999999998,137.207345 31.166767,137.155883 30.677706999999998,137.099515 30.188612,137.038242 29.699479,136.972061 29.210306,136.900973 28.72109,136.824975 28.231829,136.744067 27.74252,136.658246 27.253161,136.567513 26.567214,136.43345399999998 26.567214,142.971292 26.879039,143.032233 27.387452,143.1265 25.746976,143.1265 25.238514,143.215679 24.730003,143.299771 24.221447,143.378773 23.712849,143.452685 23.20421,143.521504 22.695533,143.585231 22.186822,143.643863 21.678078,143.69740099999999 21.169305,143.74584199999998 20.660505,143.789187 20.151681,143.82743399999998 19.642837,143.860582 19.133974000000002,143.888632 18.625097,143.911583 18.116207,143.929434 17.607309,143.942185 17.098404000000002,143.949835 16.589497,143.952386 16.080589,143.949835 15.571684,143.942185 15.062786,143.929434 14.553896,143.911583 14.045019,143.888632 13.536156,143.860582 13.027312,143.82743399999998 12.518488,143.789187 12.009689,143.74584199999998 11.500914999999999,143.69740099999999 10.992172,143.643863 10.483460000000001,143.585231 9.974782999999999,143.521504 9.466144,143.452685 8.957546,143.378773 8.448989999999998,143.299771 7.940479,143.215679 7.432016999999998,143.1265 7.109386000000001,143.06668 5.055218,146.490292 4.0,146.091309 5.81185,136.27712 7.297726000000001,136.567513 7.787085000000001,136.658246 8.276394,136.744067 8.765654999999999,136.824975 9.254871000000001,136.900973 9.744043999999999,136.972061 10.233177000000001,137.038242 10.722272,137.099515 11.211332,137.155883 11.70036,137.207345 12.189359,137.253904 12.678331,137.295559 13.167279,137.332312 13.656206,137.364164 14.145115,137.391114 14.63401,137.413163 15.122892,137.430312 15.611765,137.44256099999998 16.100631999999997,137.449911 16.589497,137.45236 17.078361,137.449911 17.567228,137.44256099999998 18.056100999999998,137.430312 18.544983000000002,137.413163 19.033878,137.391114 19.522787,137.364164 20.011713999999998,137.332312 20.500662,137.295559 20.989634,137.253904 21.478633000000002,137.207345 21.967661,137.155883 22.456721,137.099515 22.945816,137.038242 23.434949,136.972061 23.924122,136.900973 24.413338,136.824975 24.902599,136.744067 25.391908,136.658246 25.881267,136.567513 26.567214,136.43345399999998 26.567214,142.971292 26.255389,143.032233 25.746976,143.1265" stroke="#1f6fb2" stroke-width="0.1" /><text fill="#0a3d62" font-family="sans-serif" font-size="1.6" text-anchor="middle" x="26.567214" y="141.383706">07</text><polygon fill="#cfe3f7" fill-opacity="0.5" points="73.740804,141.57479899999998 74.28939700000001,141.64573099999998 74.83801,141.712612 75.386641,141.775442 75.93529000000001,141.83422 76.48395500000001,141.888946 77.032636,141.939619 77.581331,141.98624 78.130039,142.028808 78.678759,142.067323 79.22748899999999,142.101785 79.77623,142.132192 80.324978,142.158546 80.873734,142.180845 81.422496,142.19908999999998 81.971263,142.213281 82.52003400000001,142.223418 83.068806,142.2295 83.61758,142.231527 84.16635500000001,142.2295 84.715127,142.223418 85.263898,142.213281 85.81266500000001,142.19908999999998 86.36142699999999,142.180845 86.910183,142.158546 87.458931,142.132192 88.007672,142.101785 88.55640199999999,142.067323 89.105122,142.028808 89.65383,141.98624 90.20252500000001,141.939619 90.751206,141.888946 91.299871,141.83422 91.84852000000001,141.775442 92.39715100000001,141.712612 92.945764,141.64573099999998 93.49435700000001,141.57479899999998 94.042929,141.499817 95.44529800000001,141.29777099999998 95.44529800000001,136.27712 93.764896,136.51922299999998 93.230696,136.592241 92.696517,136.661309 92.162358,136.726428 91.628217,136.787598 91.094094,136.84482 90.559988,136.898094 90.025897,136.947421 89.49182,136.9928 88.957756,137.034232 88.423704,137.071717 87.889663,137.105255 87.355632,137.134848 86.821609,137.160494 86.287593,137.182195 85.75358299999999,137.19995 85.219578,137.213759 84.685577,137.223622 84.151578,137.22954 83.61758,137.231513 83.083583,137.22954 82.54958400000001,137.223622 82.01558299999999,137.213759 81.481578,137.19995 80.947568,137.182195 80.413552,137.160494 79.879529,137.134848 79.34549799999999,137.105255 78.811457,137.071717 78.277405,137.034232 77.743341,136.9928 77.209264,136.947421 76.675173,136.898094 76.14106699999999,136.84482 75.606944,136.787598 75.072803,136.726428 74.538644,136.661309 74.004465,136.592241 73.470265,136.51922299999998 72.789863,136.42119499999998 72.789863,141.441845 73.192232,141.499817 73.740804,141.57479899999998 71.838922,141.57479899999998 71.290329,141.64573099999998 70.741716,141.712612 70.193085,141.775442 69.644436,141.83422 69.095771,141.888946 68.54709,141.939619 67.998395,141.98624 67.449687,142.028808 66.90096700000001,142.067323 66.352237,142.101785 65.803496,142.132192 65.254748,142.158546 64.705992,142.180845 64.15723,142.19908999999998 63.608463,142.213281 63.059692,142.223418 62.51092,142.2295 61.962146000000004,142.231527 61.413371,142.2295 60.864599,142.223418 60.315827999999996,142.213281 59.767061,142.19908999999998 59.218299,142.180845 58.669543000000004,142.158546 58.120795,142.132192 57.572054,142.101785 57.023324,142.067323 56.474604,142.028808 55.925896,141.98624 55.377201,141.939619 54.82852,141.888946 54.279855,141.83422 53.731206,141.775442 53.182575,141.712612 52.633962,141.64573099999998 52.085369,141.57479899999998 51.536797,141.499817 50.134428,141.29777099999998 50.134428,136.27712 51.81483,136.51922299999998 52.34903,136.592241 52.883209,136.661309 53.417367999999996,136.726428 53.951509,136.787598 54.485631999999995,136.84482 55.019738000000004,136.898094 55.553829,136.947421 56.087906000000004,136.9928 56.621970000000005,137.034232 57.156022,137.071717 57.690063,137.105255 58.224094,137.134848 58.758117,137.160494 59.292133,137.182195 59.826143,137.19995 60.360148,137.213759 60.894149,137.223622 61.428148,137.22954 61.962146000000004,137.231513 62.496143000000004,137.22954 63.030142,137.223622 63.564143,137.213759 64.098148,137.19995 64.632158,137.182195 65.166174,137.160494 65.700197,137.134848 66.234228,137.105255 66.768269,137.071717 67.302321,137.034232 67.836385,136.9928 68.370462,136.947421 68.90455299999999,136.898094 69.438659,136.84482 69.972782,136.787598 70.506923,136.726428 71.041082,136.661309 71.575261,136.592241 72.109461,136.51922299999998 72.789863,136.42119499999998 72.789863,141.441845 72.387494,141.499817 71.838922,141.57479899999998" stroke="#1f6fb2" stroke-width="0.1" /><text fill="#0a3d62" font-family="sans-serif" font-size="1.6" text-anchor="middle" x="72.789863" y="139.2543235">08</text><polygon fill="#cfe3f7" fill-opacity="0.5" points="96.44529800000001,139.926247 96.467453,140.15118999999999 96.547396,140.414728 96.67721700000001,140.657606 96.851927,140.870491 97.064812,141.045201 97.30769000000001,141.17502199999998 97.571228,141.254965 97.79617100000002,141.27712 109.094425,141.27712 109.31936800000001,141.254965 109.58290600000001,141.17502199999998 109.82578400000001,141.045201 110.03866900000001,140.870491 110.213379,140.657606 110.34320000000001,140.414728 110.42314300000001,140.15118999999999 110.44529800000001,139.926247 110.44529800000001,137.627993 110.42314300000001,137.40305 110.34320000000001,137.139512 110.213379,136.896634 110.03866900000001,136.683749 109.82578400000001,136.509039 109.58290600000001,136.379218 109.31936800000001,136.299275 109.094425,136.27712 97.79617100000002,136.27712 97.571228,136.299275 97.30769000000001,136.379218 97.064812,136.509039 96.851927,136.683749 96.67721700000001,136.896634 96.547396,137.139512 96.467453,137.40305 96.44529800000001,137.627993 96.44529800000001,139.926247" stroke="#1f6fb2" stroke-width="0.1" /><text fill="#0a3d62" font-family="sans-serif" font-size="1.6" text-anchor="middle" x="103.44529800000001" y="138.77712">06</text><polygon fill="#cfe3f7" fill-opacity="0.5" points="111.44529800000001,139.926247 111.467453,140.15118999999999 111.547396,140.414728 111.67721700000001,140.657606 111.851927,140.870491 112.064812,141.045201 112.30769000000001,141.17502199999998 112.571228,141.254965 112.79617100000002,141.27712 124.094425,141.27712 124.31936800000001,141.254965 124.58290600000001,141.17502199999998 124.82578400000001,141.045201 125.03866900000001,140.870491 125.213379,140.657606 125.34320000000001,140.414728 125.42314300000001,140.15118999999999 125.44529800000001,139.926247 125.44529800000001,137.627993 125.42314300000001,137.40305 125.34320000000001,137.139512 125.213379,136.896634 125.03866900000001,136.683749 124.82578400000001,136.509039 124.58290600000001,136.379218 124.31936800000001,136.299275 124.094425,136.27712 112.79617100000002,136.27712 112.571228,136.299275 112.30769000000001,136.379218 112.064812,136.509039 111.851927,136.683749 111.67721700000001,136.896634 111.547396,137.139512 111.467453,137.40305 111.44529800000001,137.627993 111.44529800000001,139.926247" stroke="#1f6fb2" stroke-width="0.1" /><text fill="#0a3d62" font-family="sans-serif" font-size="1.6" text-anchor="middle" x="118.44529800000001" y="138.77712">06</text></svg>