<?xml version="1.0" encoding="utf-8" ?>
<svg baseProfile="full" height="174.46061799999998cm" version="1.1" viewBox="0 0 158.0 174.46061799999998" width="158.0cm" xmlns="http://www.w3.org/2000/svg" xmlns:ev="http://www.w3.org/2001/xml-events" xmlns:xlink="http://www.w3.org/1999/xlink"><defs /><rect fill="#f7f3ea" height="166.46061799999998" stroke="#333" stroke-width="0.15" width="150.0" x="4.0" y="4.0" /><text fill="#000" font-family="sans-serif" font-size="1.4" x="4.0" y="3.0">PLANO DE CORTE — ancho 150 cm — largo 1.66 m</text><polygon fill="#cfe3f7" fill-opacity="0.5" points="4.0,74.267704 12.00722,74.267704 11.601177,17.827772 15.824922,5.262131 13.300661,4.0 12.604548000000001,4.928368 12.408809,5.189983 12.212994,5.452847 12.017382000000001,5.717166 11.822256,5.98315 11.6279,6.251011999999999 11.434603,6.520965 11.242656,6.793221 11.052355,7.067997 10.863996,7.345508 10.677882,7.6259689999999996 10.494319,7.909597 10.313615,8.196606 10.136242,8.486951000000001 9.963303,8.779094 9.795078,9.070626 9.63075,9.360295 9.469275,9.647313 9.309653,9.930903 9.150927,10.210297 8.992184,10.484739000000001 8.832553,10.753489 8.671203,11.015827 8.507341,11.271062 8.340206,11.518545 8.169058,11.757678 7.993161000000001,11.987943000000001 7.810869,12.210004 7.619404,12.426846 7.41765,12.641195 7.206278,12.853889 6.986212,13.065588 6.7584420000000005,13.27698 6.524011,13.488792 6.322425,13.667704 4.0,13.667704 4.0,74.267704" stroke="#1f6fb2" stroke-width="0.1" /><text fill="#0a3d62" font-family="sans-serif" font-size="1.6" text-anchor="middle" x="9.912461" y="39.133852">09</text><polygon fill="#cfe3f7" fill-opacity="0.5" points="16.824922,74.267704 24.832142,74.267704 24.426099,17.827772 28.649844,5.262131 26.125583,4.0 25.429470000000002,4.928368 25.233731,5.189983 25.037916000000003,5.452847 24.842304000000002,5.717166 24.647178,5.98315 24.452822,6.251011999999999 24.259525,6.520965 24.067578,6.793221 23.877277,7.067997 23.688918,7.345508 23.502804,7.6259689999999996 23.319241,7.909597 23.138537,8.196606 22.961164,8.486951000000001 22.788225,8.779094 22.62,9.070626 22.455672,9.360295 22.294197,9.647313 22.134575,9.930903 21.975849,10.210297 21.817106000000003,10.484739000000001 21.657475,10.753489 21.496125,11.015827 21.332263,11.271062 21.165128000000003,11.518545 20.99398,11.757678 20.818083,11.987943000000001 20.635791,12.210004 20.444326,12.426846 20.242572000000003,12.641195 20.031200000000002,12.853889 19.811134000000003,13.065588 19.583364,13.27698 19.348933000000002,13.488792 19.147347,13.667704 16.824922,13.667704 16.824922,74.267704" stroke="#1f6fb2" stroke-width="0.1" /><text fill="#0a3d62" font-family="sans-serif" font-size="1.6" text-anchor="middle" x="22.737383" y="39.133852">09</text><polygon fill="#cfe3f7" fill-opacity="0.5" points="34.253381000000005,66.004613 60.082085,66.004613 64.694586,14.559622999999998 63.988243,13.774989999999999 63.567436,13.312847999999999 63.13796,12.851835999999999 62.697763,12.395239 62.247089,11.9474 61.788167,11.51006 61.321992,11.082705 60.849184,10.664458 60.370352000000004,10.254439 59.886091,9.851766999999999 59.396986,9.455561 58.903613,9.064943 58.406533,8.679036 57.905640000000005,8.296466 57.398901,7.915755 56.883821,7.538259 56.359262,7.1668959999999995 55.824247,6.804792 55.277744,6.4551289999999995 54.718687,6.121163 54.14599200000001,5.80625 53.558596,5.513857 52.955505,5.24759 52.337374000000004,5.011762 51.709293,4.809616 51.077002,4.638591 50.442750000000004,4.494111 49.808081,4.371542 49.174414,4.266382 48.543098,4.174272 47.915466,4.0909949999999995 47.193968,4.0 46.458807,4.05394 45.818061,4.104962 45.173491,4.164405 44.526244000000005,4.236438 43.877471,4.325369 43.228369,4.435643 42.58024,4.57184 41.934651,4.738636 41.295789,4.939882 40.669523,5.174805 40.058158000000006,5.439152 39.4611,5.729414 38.877518,6.042254 38.30653,6.374447 37.747238,6.722872 37.198757,7.084489 36.660236,7.456322999999999 36.13086,7.835451 35.609041000000005,8.2196 35.091823000000005,8.609293000000001 34.578595,9.007759 34.071195,9.417183999999999 33.571837,9.839547 33.082792,10.276864 32.606406,10.731176 32.145118000000004,11.204525 31.701477000000004,11.698924 31.278642,12.215724 30.882289000000004,12.750982 30.512518000000004,13.294198000000002 30.163320000000002,13.837394 29.649844,14.659607999999999 34.253381000000005,66.004613" stroke="#1f6fb2" stroke-width="0.1" /><text fill="#0a3d62" font-family="sans-serif" font-size="1.6" text-anchor="middle" x="47.172215" y="35.0023065">04</text><polygon fill="#cfe3f7" fill-opacity="0.5" points="70.298123,66.004613 96.12682699999999,66.004613 100.739328,14.559622999999998 100.032985,13.774989999999999 99.612178,13.312847999999999 99.182702,12.851835999999999 98.742505,12.395239 98.291831,11.9474 97.832909,11.51006 97.36673400000001,11.082705 96.893926,10.664458 96.41509400000001,10.254439 95.930833,9.851766999999999 95.441728,9.455561 94.94835499999999,9.064943 94.45127500000001,8.679036 93.950382,8.296466 93.44364300000001,7.915755 92.928563,7.538259 92.404004,7.1668959999999995 91.868989,6.804792 91.322486,6.4551289999999995 90.763429,6.121163 90.190734,5.80625 89.60333800000001,5.513857 89.000247,5.24759 88.382116,5.011762 87.754035,4.809616 87.121744,4.638591 86.487492,4.494111 85.852823,4.371542 85.219156,4.266382 84.58784,4.174272 83.960208,4.0909949999999995 83.23871,4.0 82.50354899999999,4.05394 81.862803,4.104962 81.218233,4.164405 80.570986,4.236438 79.922213,4.325369 79.273111,4.435643 78.624982,4.57184 77.979393,4.738636 77.340531,4.939882 76.714265,5.174805 76.1029,5.439152 75.505842,5.729414 74.92226,6.042254 74.351272,6.374447 73.79198,6.722872 73.243499,7.084489 72.704978,7.456322999999999 72.175602,7.835451 71.653783,8.2196 71.136565,8.609293000000001 70.623337,9.007759 70.115937,9.417183999999999 69.616579,9.839547 69.127534,10.276864 68.651148,10.731176 68.18986,11.204525 67.746219,11.698924 67.323384,12.215724 66.927031,12.750982 66.55726,13.294198000000002 66.208062,13.837394 65.694586,14.659607999999999 70.298123,66.004613" stroke="#1f6fb2" stroke-width="0.1" /><text fill="#0a3d62" font-family="sans-serif" font-size="1.6" text-anchor="middle" x="83.21695700000001" y="35.0023065">04</text><polygon fill="#cfe3f7" fill-opacity="0.5" points="101.739328,13.633067 101.739328,41.113067 129.439328,41.113067 129.439328,26.857360999999997 128.84,26.172342999999998 128.486005,25.768483 128.130012,25.363836 127.770878,24.957849 127.407761,24.550319 127.039824,24.141047999999998 126.666234,23.729844999999997 126.286171,23.316536 125.899742,22.901911 125.510403,22.488083 125.123925,22.076037 124.744869,21.665301 124.377667,21.255467 124.026745,20.846346999999998 123.696473,20.437973 123.391104,20.030609 123.114668,19.624724 122.87084899999999,19.22094 122.662824,18.819888 122.49311399999999,18.421923 122.36271500000001,18.024288 122.269728,17.618925 122.210974,17.199514999999998 122.184836,16.764596 122.189952,16.313914 122.224876,15.847847 122.287938,15.367222 122.37719799999999,14.873137 122.49046,14.366815 122.62530100000001,13.849511 122.779123,13.32245 122.94919300000001,12.78679 123.132674,12.243606999999999 123.326662,11.693886 123.52819600000001,11.138521 124.059732,9.693617 111.014017,4.0 110.343876,4.893731 110.148137,5.155346 109.952322,5.41821 109.75671,5.682529 109.561584,5.948513 109.367228,6.216374999999999 109.173931,6.486328 108.981984,6.758584 108.791683,7.03336 108.603324,7.310871 108.41721,7.5913319999999995 108.233647,7.87496 108.052943,8.161969 107.87557,8.452314000000001 107.702631,8.744457 107.534406,9.035989 107.370078,9.325658 107.208603,9.612676 107.048981,9.896266 106.890255,10.17566 106.731512,10.450102000000001 106.571881,10.718852 106.410531,10.98119 106.246669,11.236425 106.079534,11.483908 105.90838600000001,11.723041 105.732489,11.953306000000001 105.550197,12.175367 105.358732,12.392209 105.156978,12.606558 104.945606,12.819252 104.72554,13.030951 104.49777,13.242343 104.263339,13.454155 104.061753,13.633067 101.739328,13.633067" stroke="#1f6fb2" stroke-width="0.1" /><text fill="#0a3d62" font-family="sans-serif" font-size="1.6" text-anchor="middle" x="115.589328" y="22.5565335">01</text><polygon fill="#cfe3f7" fill-opacity="0.5" points="4.0,84.90077099999999 4.0,112.380771 31.7,112.380771 31.7,98.12506499999999 31.100672,97.44004699999999 30.746677,97.036187 30.390684,96.63154 30.03155,96.22555299999999 29.668433,95.818023 29.300496,95.40875199999999 28.926906,94.99754899999999 28.546843,94.58424 28.160414,94.169615 27.771075,93.755787 27.384597,93.343741 27.005541,92.933005 26.638339,92.52317099999999 26.287416999999998,92.11405099999999 25.957145,91.705677 25.651775999999998,91.298313 25.375339999999998,90.892428 25.131521,90.488644 24.923496,90.087592 24.753785999999998,89.689627 24.623387,89.291992 24.5304,88.886629 24.471646,88.467219 24.445508,88.03229999999999 24.450623999999998,87.58161799999999 24.485547999999998,87.115551 24.54861,86.634926 24.63787,86.140841 24.751132,85.634519 24.885973,85.11721499999999 25.039794999999998,84.590154 25.209865,84.05449399999999 25.393345999999998,83.51131099999999 25.587334,82.96159 25.788868,82.40622499999999 26.320404,80.961321 13.274689,75.267704 12.604548000000001,76.161435 12.408809,76.42304999999999 12.212994,76.685914 12.017382000000001,76.950233 11.822256,77.216217 11.6279,77.484079 11.434603,77.754032 11.242656,78.026288 11.052355,78.301064 10.863996,78.578575 10.677882,78.85903599999999 10.494319,79.142664 10.313615,79.429673 10.136242,79.720018 9.963303,80.01216099999999 9.795078,80.303693 9.63075,80.593362 9.469275,80.88038 9.309653,81.16396999999999 9.150927,81.44336399999999 8.992184,81.717806 8.832553,81.986556 8.671203,82.24889399999999 8.507341,82.50412899999999 8.340206,82.751612 8.169058,82.99074499999999 7.993161000000001,83.22100999999999 7.810869,83.44307099999999 7.619404,83.65991299999999 7.41765,83.87426199999999 7.206278,84.086956 6.986212,84.298655 6.7584420000000005,84.510047 6.524011,84.721859 6.322425,84.90077099999999 4.0,84.90077099999999" stroke="#1f6fb2" stroke-width="0.1" /><text fill="#0a3d62" font-family="sans-serif" font-size="1.6" text-anchor="middle" x="17.85" y="93.8242375">01</text><polygon fill="#cfe3f7" fill-opacity="0.5" points="76.99366700000002,110.38770399999999 60.027484,75.267704 32.7,75.267704 32.7,110.38770399999999 76.99366700000002,110.38770399999999" stroke="#1f6fb2" stroke-width="0.1" /><text fill="#0a3d62" font-family="sans-serif" font-size="1.6" text-anchor="middle" x="54.8468335" y="92.827704">21</text><polygon fill="#cfe3f7" fill-opacity="0.5" points="122.28733400000002,110.38770399999999 105.321151,75.267704 77.993667,75.267704 77.993667,110.38770399999999 122.28733400000002,110.38770399999999" stroke="#1f6fb2" stroke-width="0.1" /><text fill="#0a3d62" font-family="sans-serif" font-size="1.6" text-anchor="middle" x="100.1405005" y="92.827704">21</text><polygon fill="#cfe3f7" fill-opacity="0.5" points="70.221151,113.380771 45.593667,113.380771 45.593667,148.500771 87.187334,148.500771 70.221151,113.380771 20.966183000000004,113.380771 45.593667,113.380771 45.593667,148.500771 4.0,148.500771 20.966183000000004,113.380771" stroke="#1f6fb2" stroke-width="0.1" /><text fill="#0a3d62" font-family="sans-serif" font-size="1.6" text-anchor="middle" x="45.593667" y="130.94077099999998">22</text><polygon fill="#cfe3f7" fill-opacity="0.5" points="137.443668,124.95718099999999 137.155181,124.521115 136.866702,124.084251 136.578179,123.646243 136.28956,123.20674299999999 136.000794,122.76540499999999 135.711838,122.321898 135.42308,121.876507 135.136313,121.430283 134.85405500000002,120.983823 134.578416,120.53707499999999 134.311463,120.08999299999999 134.055237,119.64257599999999 133.81174700000003,119.194864 133.582954,118.746929 133.370764,118.298867 133.177008,117.85077899999999 133.003429,117.40275299999999 132.851676,116.954827 132.723279,116.50689899999999 132.61922700000002,116.05701099999999 132.53878500000002,115.60123 132.480167,115.13736 132.441976,114.665335 132.39072,113.380771 113.187334,113.380771 113.187334,140.260771 138.18733400000002,140.260771 138.18733400000002,126.079459 137.732214,125.392796 137.443668,124.95718099999999 88.93100000000001,124.95718099999999 89.21948700000002,124.521115 89.50796600000001,124.084251 89.79648900000001,123.646243 90.085108,123.20674299999999 90.373874,122.76540499999999 90.66283000000001,122.321898 90.95158800000002,121.876507 91.23835500000001,121.430283 91.52061300000001,120.983823 91.79625200000001,120.53707499999999 92.06320500000001,120.08999299999999 92.31943100000001,119.64257599999999 92.562921,119.194864 92.79171400000001,118.746929 93.003904,118.298867 93.19766000000001,117.85077899999999 93.371239,117.40275299999999 93.522992,116.954827 93.65138900000001,116.50689899999999 93.755441,116.05701099999999 93.83588300000001,115.60123 93.894501,115.13736 93.932692,114.665335 93.98394800000001,113.380771 113.187334,113.380771 113.187334,140.260771 88.187334,140.260771 88.187334,126.079459 88.64245400000001,125.392796 88.93100000000001,124.95718099999999" stroke="#1f6fb2" stroke-width="0.1" /><text fill="#0a3d62" font-family="sans-serif" font-size="1.6" text-anchor="middle" x="113.187334" y="126.820771">02</text><polygon fill="#cfe3f7" fill-opacity="0.5" points="139.18733400000002,124.652676 146.18733400000002,129.062676 153.18733400000002,124.652676 153.18733400000002,113.380771 139.18733400000002,113.380771 139.18733400000002,124.652676" stroke="#1f6fb2" stroke-width="0.1" /><text fill="#0a3d62" font-family="sans-serif" font-size="1.6" text-anchor="middle" x="146.18733400000002" y="121.2217235">10</text><polygon fill="#cfe3f7" fill-opacity="0.5" points="4.0,161.74989799999997 4.029841,162.052878 4.132547,162.39145299999998 4.299332,162.703486 4.523786,162.97698499999998 4.7972850000000005,163.201439 5.109318,163.368224 5.4478930000000005,163.47092999999998 5.750873,163.500771 27.249127,163.500771 27.552107,163.47092999999998 27.890682,163.368224 28.202715,163.201439 28.476214,162.97698499999998 28.700668,162.703486 28.867453,162.39145299999998 28.970159,162.052878 29.0,161.74989799999997 29.0,151.251644 28.970159,150.94866399999998 28.867453,150.610089 28.700668,150.29805599999997 28.476214,150.024557 28.202715,149.80010299999998 27.890682,149.63331799999997 27.552107,149.530612 27.249127,149.500771 5.750873,149.500771 5.4478930000000005,149.530612 5.109318,149.63331799999997 4.7972850000000005,149.80010299999998 4.523786,150.024557 4.299332,150.29805599999997 4.132547,150.610089 4.029841,150.94866399999998 4.0,151.251644 4.0,161.74989799999997" stroke="#1f6fb2" stroke-width="0.1" /><text fill="#0a3d62" font-family="sans-serif" font-size="1.6" text-anchor="middle" x="16.5" y="156.500771">05</text><polygon fill="#cfe3f7" fill-opacity="0.5" points="30.0,161.74989799999997 30.029841,162.052878 30.132547,162.39145299999998 30.299332,162.703486 30.523786,162.97698499999998 30.797285,163.201439 31.109318000000002,163.368224 31.447893,163.47092999999998 31.750873,163.500771 53.249127,163.500771 53.552107,163.47092999999998 53.890682,163.368224 54.202715,163.201439 54.476214,162.97698499999998 54.700668,162.703486 54.867453,162.39145299999998 54.970158999999995,162.052878 55.0,161.74989799999997 55.0,151.251644 54.970158999999995,150.94866399999998 54.867453,150.610089 54.700668,150.29805599999997 54.476214,150.024557 54.202715,149.80010299999998 53.890682,149.63331799999997 53.552107,149.530612 53.249127,149.500771 31.750873,149.500771 31.447893,149.530612 31.109318000000002,149.63331799999997 30.797285,149.80010299999998 30.523786,150.024557 30.299332,150.29805599999997 30.132547,150.610089 30.029841,150.94866399999998 30.0,151.251644 30.0,161.74989799999997" stroke="#1f6fb2" stroke-width="0.1" /><text fill="#0a3d62" font-family="sans-serif" font-size="1.6" text-anchor="middle" x="42.5" y="156.500771">05</text><polygon fill="#cfe3f7" fill-opacity="0.5" points="95.109812,160.42683499999998 95.10827,159.93915399999997 95.12286,159.44417099999998 95.152042,158.94232 95.194218,158.434067 95.247736,157.91989199999998 95.310889,157.400276 95.381927,156.875689 95.459058,156.34658299999998 95.540457,155.81338599999998 95.74864600000001,154.47965699999997 82.845692,149.500771 82.20658399999999,149.934882 82.003755,150.071371 81.803425,150.203669 81.605097,150.33096799999998 81.40829099999999,150.452518 81.21253300000001,150.56762999999998 81.016683,150.67604799999998 80.81873300000001,150.77832199999997 80.617676,150.87496099999998 80.4137,150.965872 80.207108,151.05091 79.998204,151.129934 79.787293,151.202811 79.574684,151.269412 79.36068399999999,151.329613 79.145601,151.383299 78.929644,151.43037999999999 78.712166,151.470969 78.49201500000001,151.50555599999998 78.26876200000001,151.534631 78.04241,151.55861599999997 77.81299,151.57794399999997 77.580557,151.59306299999997 77.345178,151.604437 77.106932,151.61254899999997 76.865904,151.617897 76.62218200000001,151.62100099999998 76.375856,151.622393 76.12701200000001,151.622628 75.874323,151.62227099999998 75.874323,161.62227199999998 95.157512,161.62227199999998 95.109812,160.42683499999998 56.638834,160.42683499999998 56.640376,159.93915399999997 56.625786000000005,159.44417099999998 56.596604,158.94232 56.554428,158.434067 56.500910000000005,157.91989199999998 56.437757000000005,157.400276 56.366719,156.875689 56.289588,156.34658299999998 56.208189000000004,155.81338599999998 56.0,154.47965699999997 68.902954,149.500771 69.542062,149.934882 69.744891,150.071371 69.945221,150.203669 70.14354900000001,150.33096799999998 70.340355,150.452518 70.536113,150.56762999999998 70.73196300000001,150.67604799999998 70.929913,150.77832199999997 71.13097,150.87496099999998 71.334946,150.965872 71.541538,151.05091 71.75044199999999,151.129934 71.961353,151.202811 72.173962,151.269412 72.387962,151.329613 72.60304500000001,151.383299 72.819002,151.43037999999999 73.03648,151.470969 73.256631,151.50555599999998 73.479884,151.534631 73.706236,151.55861599999997 73.935656,151.57794399999997 74.16808900000001,151.59306299999997 74.403468,151.604437 74.64171400000001,151.61254899999997 74.88274200000001,151.617897 75.126464,151.62100099999998 75.37279000000001,151.622393 75.621634,151.622628 75.874323,151.62227099999998 75.874323,161.62227199999998 56.591134,161.62227199999998 56.638834,160.42683499999998" stroke="#1f6fb2" stroke-width="0.1" /><text fill="#0a3d62" font-family="sans-serif" font-size="1.6" text-anchor="middle" x="75.874323" y="155.5615215">03</text><polygon fill="#cfe3f7" fill-opacity="0.5" points="119.404015,156.35574799999998 119.89550500000001,156.445045 120.38704800000001,156.529248 120.878641,156.608356 121.370282,156.682367 121.861967,156.75127999999998 122.353694,156.815094 122.84546,156.873807 123.33726100000001,156.927419 123.82909500000001,156.97592799999998 124.320959,157.019334 124.812849,157.05763499999998 125.30476200000001,157.09083099999998 125.796695,157.118921 126.288645,157.14190399999998 126.780608,157.15978099999998 127.272582,157.17255 127.76456200000001,157.18021199999998 128.25654500000002,157.182765 128.74852800000002,157.18021199999998 129.240508,157.17255 129.732482,157.15978099999998 130.224445,157.14190399999998 130.716395,157.118921 131.208328,157.09083099999998 131.700241,157.05763499999998 132.19213100000002,157.019334 132.683995,156.97592799999998 133.17582900000002,156.927419 133.66763,156.873807 134.15939600000002,156.815094 134.651123,156.75127999999998 135.142808,156.682367 135.63444900000002,156.608356 136.126042,156.529248 136.61758500000002,156.445045 137.10907500000002,156.35574799999998 137.393424,156.301134 139.44514600000002,159.72067099999998 140.500364,159.321688 138.687272,149.500771 137.213456,149.79914399999998 136.741687,149.88975599999998 136.269973,149.97545899999997 135.798312,150.056256 135.326701,150.13214799999997 134.855138,150.203137 134.383619,150.26922399999998 133.91214200000002,150.33040999999997 133.440704,150.386697 132.969301,150.43808499999997 132.497931,150.48457599999998 132.026591,150.52616999999998 131.555277,150.56286899999998 131.083986,150.594673 130.612715,150.621583 130.141461,150.6436 129.67022,150.660723 129.19899,150.67295399999998 128.727766,150.68029199999998 128.25654500000002,150.682739 127.785324,150.68029199999998 127.31410000000001,150.67295399999998 126.84287,150.660723 126.37162900000001,150.6436 125.90037500000001,150.621583 125.42910400000001,150.594673 124.957813,150.56286899999998 124.48649900000001,150.52616999999998 124.01515900000001,150.48457599999998 123.543789,150.43808499999997 123.07238600000001,150.386697 122.600948,150.33040999999997 122.12947100000001,150.26922399999998 121.65795200000001,150.203137 121.186389,150.13214799999997 120.71477800000001,150.056256 120.24311700000001,149.97545899999997 119.771403,149.88975599999998 119.299634,149.79914399999998 118.624505,149.662465 118.624505,156.203039 118.91258,156.26136 119.404015,156.35574799999998 117.84499500000001,156.35574799999998 117.35350500000001,156.445045 116.861962,156.529248 116.37036900000001,156.608356 115.87872800000001,156.682367 115.387043,156.75127999999998 114.89531600000001,156.815094 114.40355000000001,156.873807 113.91174900000001,156.927419 113.419915,156.97592799999998 112.92805100000001,157.019334 112.436161,157.05763499999998 111.944248,157.09083099999998 111.452315,157.118921 110.96036500000001,157.14190399999998 110.46840200000001,157.15978099999998 109.976428,157.17255 109.484448,157.18021199999998 108.99246500000001,157.182765 108.500482,157.18021199999998 108.00850200000001,157.17255 107.51652800000001,157.15978099999998 107.02456500000001,157.14190399999998 106.532615,157.118921 106.040682,157.09083099999998 105.54876900000001,157.05763499999998 105.05687900000001,157.019334 104.565015,156.97592799999998 104.073181,156.927419 103.58138000000001,156.873807 103.08961400000001,156.815094 102.59788700000001,156.75127999999998 102.10620200000001,156.682367 101.61456100000001,156.608356 101.12296800000001,156.529248 100.63142500000001,156.445045 100.13993500000001,156.35574799999998 99.855586,156.301134 97.803864,159.72067099999998 96.74864600000001,159.321688 98.561738,149.500771 100.035554,149.79914399999998 100.50732300000001,149.88975599999998 100.979037,149.97545899999997 101.450698,150.056256 101.92230900000001,150.13214799999997 102.393872,150.203137 102.865391,150.26922399999998 103.33686800000001,150.33040999999997 103.808306,150.386697 104.27970900000001,150.43808499999997 104.751079,150.48457599999998 105.222419,150.52616999999998 105.69373300000001,150.56286899999998 106.165024,150.594673 106.636295,150.621583 107.107549,150.6436 107.57879000000001,150.660723 108.05002,150.67295399999998 108.52124400000001,150.68029199999998 108.99246500000001,150.682739 109.46368600000001,150.68029199999998 109.93491,150.67295399999998 110.40614000000001,150.660723 110.87738100000001,150.6436 111.348635,150.621583 111.819906,150.594673 112.29119700000001,150.56286899999998 112.762511,150.52616999999998 113.23385100000002,150.48457599999998 113.70522100000001,150.43808499999997 114.176624,150.386697 114.64806200000001,150.33040999999997 115.119539,150.26922399999998 115.591058,150.203137 116.06262100000001,150.13214799999997 116.534232,150.056256 117.00589300000001,149.97545899999997 117.477607,149.88975599999998 117.949376,149.79914399999998 118.624505,149.662465 118.624505,156.203039 118.33643000000001,156.26136 117.84499500000001,156.35574799999998" stroke="#1f6fb2" stroke-width="0.1" /><text fill="#0a3d62" font-family="sans-serif" font-size="1.6" text-anchor="middle" x="118.624505" y="154.61072099999998">07</text><polygon fill="#cfe3f7" fill-opacity="0.5" points="26.876185,169.80331299999997 27.407719999999998,169.874306 27.939276,169.94124499999998 28.470852,170.00412899999998 29.002448,170.06295799999998 29.534062,170.117732 30.065693,170.16845099999998 30.59734,170.21511299999997 31.129001,170.25771799999998 31.660674999999998,170.296267 32.192361,170.330759 32.724058,170.36119399999998 33.255764,170.38757099999998 33.787478,170.409891 34.319198,170.42815299999998 34.850924,170.442356 35.382654,170.45250199999998 35.914386,170.458589 36.44612,170.46061799999998 36.977854,170.458589 37.509586,170.45250199999998 38.041315999999995,170.442356 38.573042,170.42815299999998 39.104762,170.409891 39.636476,170.38757099999998 40.168182,170.36119399999998 40.699878999999996,170.330759 41.231565,170.296267 41.763239,170.25771799999998 42.2949,170.21511299999997 42.826547,170.16845099999998 43.358177999999995,170.117732 43.889792,170.06295799999998 44.421388,170.00412899999998 44.952963999999994,169.94124499999998 45.48452,169.874306 46.016054999999994,169.80331299999997 46.547566,169.728267 47.92816,169.522799 47.92816,164.500771 46.260549999999995,164.748955 45.743857,164.82190899999998 45.227188,164.89091599999998 44.710539999999995,164.955977 44.193912,165.017093 43.677304,165.074264 43.160714,165.12749 42.644141,165.17677099999997 42.127584,165.222109 41.611041,165.26350399999998 41.094511,165.300955 40.577993,165.334463 40.061486,165.364028 39.544988000000004,165.389651 39.028498,165.411331 38.512014,165.429069 37.995536,165.44286599999998 37.479062,165.45272 36.96259,165.458633 36.44612,165.460604 35.929649999999995,165.458633 35.413178,165.45272 34.896704,165.44286599999998 34.380226,165.429069 33.863742,165.411331 33.347252,165.389651 32.830754,165.364028 32.314246999999995,165.334463 31.797729,165.300955 31.281199,165.26350399999998 30.764656,165.222109 30.248099,165.17677099999997 29.731526,165.12749 29.214935999999998,165.074264 28.698328,165.017093 28.1817,164.955977 27.665052,164.89091599999998 27.148383,164.82190899999998 26.63169,164.748955 25.96408,164.649597 25.96408,169.67162499999998 26.344673999999998,169.728267 26.876185,169.80331299999997 25.051975,169.80331299999997 24.52044,169.874306 23.988884,169.94124499999998 23.457307999999998,170.00412899999998 22.925711999999997,170.06295799999998 22.394098,170.117732 21.862467,170.16845099999998 21.33082,170.21511299999997 20.799159,170.25771799999998 20.267485,170.296267 19.735799,170.330759 19.204102,170.36119399999998 18.672396,170.38757099999998 18.140681999999998,170.409891 17.608962,170.42815299999998 17.077236,170.442356 16.545506,170.45250199999998 16.013773999999998,170.458589 15.48204,170.46061799999998 14.950306,170.458589 14.418574,170.45250199999998 13.886844,170.442356 13.355118,170.42815299999998 12.823398,170.409891 12.291683999999998,170.38757099999998 11.759977999999998,170.36119399999998 11.228280999999999,170.330759 10.696594999999999,170.296267 10.164921,170.25771799999998 9.63326,170.21511299999997 9.101613,170.16845099999998 8.569982,170.117732 8.038367999999998,170.06295799999998 7.506771999999998,170.00412899999998 6.975196,169.94124499999998 6.4436399999999985,169.874306 5.912105,169.80331299999997 5.3805939999999985,169.728267 4.0,169.522799 4.0,164.500771 5.66761,164.748955 6.184303,164.82190899999998 6.700972,164.89091599999998 7.21762,164.955977 7.734248000000001,165.017093 8.250855999999999,165.074264 8.767446,165.12749 9.284019,165.17677099999997 9.800576,165.222109 10.317119,165.26350399999998 10.833649,165.300955 11.350166999999999,165.334463 11.866674,165.364028 12.383171999999998,165.389651 12.899662,165.411331 13.416146,165.429069 13.932623999999999,165.44286599999998 14.449098,165.45272 14.96557,165.458633 15.48204,165.460604 15.99851,165.458633 16.514982,165.45272 17.031456,165.44286599999998 17.547933999999998,165.429069 18.064418,165.411331 18.580908,165.389651 19.097406,165.364028 19.613913,165.334463 20.130430999999998,165.300955 20.646960999999997,165.26350399999998 21.163504,165.222109 21.680061,165.17677099999997 22.196634,165.12749 22.713224,165.074264 23.229832,165.017093 23.74646,164.955977 24.263108,164.89091599999998 24.779777,164.82190899999998 25.29647,164.748955 25.96408,164.649597 25.96408,169.67162499999998 25.583486,169.728267 25.051975,169.80331299999997" stroke="#1f6fb2" stroke-width="0.1" /><text fill="#0a3d62" font-family="sans-serif" font-size="1.6" text-anchor="middle" x="25.96408" y="167.4806945">08</text><polygon fill="#cfe3f7" fill-opacity="0.5" points="48.92816,168.14989799999998 48.950314999999996,168.37484099999998 49.030257999999996,168.638379 49.160078999999996,168.88125699999998 49.334789,169.09414199999998 49.547674,169.26885199999998 49.790552,169.39867299999997 50.054089999999995,169.478616 50.279033,169.500771 61.577287,169.500771 61.802229999999994,169.478616 62.065768,169.39867299999997 62.308645999999996,169.26885199999998 62.521530999999996,169.09414199999998 62.696241,168.88125699999998 62.826062,168.638379 62.906005,168.37484099999998 62.92816,168.14989799999998 62.92816,165.851644 62.906005,165.626701 62.826062,165.363163 62.696241,165.120285 62.521530999999996,164.9074 62.308645999999996,164.73269 62.065768,164.602869 61.802229999999994,164.52292599999998 61.577287,164.500771 50.279033,164.500771 50.054089999999995,164.52292599999998 49.790552,164.602869 49.547674,164.73269 49.334789,164.9074 49.160078999999996,165.120285 49.030257999999996,165.363163 48.950314999999996,165.626701 48.92816,165.851644 48.92816,168.14989799999998" stroke="#1f6fb2" stroke-width="0.1" /><text fill="#0a3d62" font-family="sans-serif" font-size="1.6" text-anchor="middle" x="55.92816" y="167.000771">06</text><polygon fill="#cfe3f7" fill-opacity="0.5" points="63.92816,168.14989799999998 63.950314999999996,168.37484099999998 64.030258,168.638379 64.160079,168.88125699999998 64.334789,169.09414199999998 64.547674,169.26885199999998 64.790552,169.39867299999997 65.05409,169.478616 65.279033,169.500771 76.577287,169.500771 76.80223,169.478616 77.06576799999999,169.39867299999997 77.308646,169.26885199999998 77.521531,169.09414199999998 77.696241,168.88125699999998 77.826062,168.638379 77.906005,168.37484099999998 77.92815999999999,168.14989799999998 77.92815999999999,165.851644 77.906005,165.626701 77.826062,165.363163 77.696241,165.120285 77.521531,164.9074 77.308646,164.73269 77.06576799999999,164.602869 76.80223,164.52292599999998 76.577287,164.500771 65.279033,164.500771 65.05409,164.52292599999998 64.790552,164.602869 64.547674,164.73269 64.334789,164.9074 64.160079,165.120285 64.030258,165.363163 63.950314999999996,165.626701 63.92816,165.851644 63.92816,168.14989799999998" stroke="#1f6fb2" stroke-width="0.1" /><text fill="#0a3d62" font-family="sans-serif" font-size="1.6" text-anchor="middle" x="70.92815999999999" y="167.000771">06</text></svg>