<?xml version="1.0" encoding="utf-8" ?>
<svg baseProfile="full" height="150.21784cm" version="1.1" viewBox="0 0 155.51399300926948 150.21784" width="155.51399300926948cm" xmlns="http://www.w3.org/2000/svg" xmlns:ev="http://www.w3.org/2001/xml-events" xmlns:xlink="http://www.w3.org/1999/xlink"><defs /><g fill="none" id="CONSTRUCCION" stroke="#888888" stroke-width="0.08"><line x1="5.7" x2="5.7" y1="13.617840000000001" y2="72.21784" /><line x1="110.41945955192742" x2="110.41945955192742" y1="64.21784" y2="52.21784" /><line x1="128.51399300926948" x2="151.51399300926948" y1="10.217839999999999" y2="10.217839999999999" /><line x1="87.15178413055796" x2="99.15178413055796" y1="85.43784" y2="85.43784" /></g><g fill="none" id="CORTE" stroke="#d00000" stroke-width="0.08"><polygon points="3.0,73.21784 30.7,73.21784 30.7,24.679382 30.196533,24.020819 29.898104,23.631024 29.59799,23.240163 29.295883,22.848405 28.991262,22.455645999999998 28.683609,22.061783 28.372405999999998,21.666715 28.057135,21.270348 27.737303999999998,20.872616999999998 27.413248,20.474411 27.087729,20.077533 26.76459,19.682646 26.446796,19.28931 26.13724,18.897123 25.838797,18.505798 25.554299999999998,18.115155 25.286514999999998,17.72512 25.038104999999998,17.33571 24.811583,16.947006000000002 24.609265,16.559107 24.433218,16.172049 24.285225,15.785689000000001 24.1665,15.398586 24.076589,15.005012 24.013016999999998,14.599468 23.97404,14.180768 23.958136,13.749127000000001 23.963689,13.305094 23.98893,12.849440000000001 24.031926,12.383072 24.090586,11.906955 24.162682999999998,11.422057 24.245874999999998,10.929324 24.337723,10.429647 24.435714,9.923856 24.694114,8.623273000000001 11.809578,3.0 11.148354000000001,3.7994000000000003 10.966821,4.019348 10.78508,4.240513 10.603374,4.463093 10.421947,4.687288000000001 10.241047,4.9133 10.060925000000001,5.141332 9.881836,5.37159 9.704037,5.604281 9.527788000000001,5.839611 9.353356,6.077787 9.181009,6.319016 9.011021,6.563505 8.843862,6.811172 8.680727000000001,7.060426 8.52206,7.308902 8.367178,7.555429 8.215175,7.799257 8.065190000000001,8.039651 7.916409,8.275887 7.768061,8.507255 7.619417,8.733063 7.469793,8.952644 7.318541,9.165365 7.165041,9.370636000000001 7.008698,9.567927000000001 6.848885,9.756817999999999 6.683755000000001,9.938327000000001 6.510444000000001,10.115523 6.327877,10.290695 6.136627,10.464500999999998 5.9374460000000004,10.637514 5.731152,10.810341000000001 5.518610000000001,10.983633999999999 4.985912000000001,11.410166 4.824653,12.617840000000001 3.0,12.617840000000001 3.0,73.21784" /><polygon points="60.7,14.656915 60.13921,13.981238 59.807989,13.582901000000001 59.474022,13.182741000000002 59.136671,12.780735000000002 58.795011,12.376519 58.448119,11.969735000000002 58.095077,11.560031 57.734971,11.147060999999999 57.366890999999995,10.730485999999999 56.990581,10.310682999999997 56.608616,9.889488 56.226844,9.468744999999998 55.849548,9.048233 55.481245,8.628139000000001 55.126380999999995,8.208751 54.789395999999996,7.7905679999999995 54.474683,7.3743229999999995 54.186512,6.960990999999999 53.928934,6.551797 53.70563,6.148162999999999 53.519724,5.751582999999999 53.373598,5.3633440000000006 53.268781000000004,4.984062000000001 53.205957999999995,4.61231 53.185023,4.2389660000000005 53.236592,3.21784 35.7,3.21784 35.7,63.21784 60.7,63.21784 60.7,14.656915" /><polygon points="83.204553,13.852247 83.263454,13.447775 83.360446,13.025715 83.49351,12.587333000000001 83.659834,12.134383 83.855957,11.66872 84.077938,11.192076 84.321519,10.705964 84.582243,10.211648 84.855537,9.710142999999999 85.692725,8.198087000000001 72.463288,3.0932209999999998 71.82821100000001,3.537283 71.632473,3.67288 71.439221,3.804274 71.247955,3.9306840000000003 71.058201,4.051386 70.869484,4.165718 70.680722,4.273434 70.489923,4.375094 70.296043,4.4712320000000005 70.09925700000001,4.56175 69.899871,4.646488 69.698194,4.725292 69.494535,4.7980149999999995 69.28920500000001,4.864515 69.082515,4.924658 68.874774,4.9783170000000005 68.666205,5.02539 68.456151,5.065983 68.24338300000001,5.100591 68.02740800000001,5.129708 67.808222,5.1537500000000005 67.585857,5.173142 67.36036700000001,5.188328 67.131822,5.199767 66.900306,5.207938 66.665908,5.213337 66.428721,5.216483 66.188838,5.21791 65.946352,5.218172 65.7,5.217839 65.7,15.21784 83.135587,15.21784 83.204553,13.852247" /><polygon points="93.46579039948006,65.21784 119.31010639948005,65.21784 123.54695839948005,12.993173 122.82600039948005,12.237229000000001 122.40807439948006,11.804068000000001 121.98149939948006,11.372081 121.54444039948005,10.944643 121.09748339948005,10.526024 120.64293039948005,10.117795000000001 120.18170639948005,9.719401 119.71440539948006,9.329992 119.24161339948006,8.948712 118.76390139948005,8.574708999999999 118.28183039948006,8.207129 117.79595039948005,7.845122 117.30679239948006,7.487831 116.81402539948004,7.133818 116.31549639948005,6.781941 115.80902339948005,6.433691 115.29369039948006,6.091782 114.76866039948005,5.759059 114.23305539948005,5.438421 113.68596639948005,5.132834 113.12647839948005,4.845351 112.55370039948005,4.579127 111.96682339948005,4.33744 111.36698739948005,4.124297 110.75933239948006,3.942046 110.14876839948005,3.787951 109.53707039948006,3.6578280000000003 108.92555439948005,3.5474959999999998 108.31542739948006,3.452894 107.70784839948006,3.370083 107.10395539948006,3.2952500000000002 106.41274139948005,3.2138489999999997 105.70930139948005,3.2616490000000002 105.09368439948005,3.307078 104.47430439948005,3.360062 103.85214039948005,3.424343 103.22817739948005,3.503782 102.60343239948006,3.602359 101.97900739948005,3.7241720000000003 101.35617539948005,3.8734159999999997 100.73822039948006,4.05378 100.13068139948005,4.265343 99.53631739948005,4.504354 98.95477339948005,4.76762 98.38535139948006,5.052137 97.82730539948005,5.354996 97.27986839948005,5.673378 96.74227839948006,6.004536 96.21379539948005,6.345783 95.69371639948005,6.694482 95.18084439948005,7.048392 94.67223939948005,7.407572 94.16673439948005,7.775117 93.66589239948006,8.153414999999999 93.17190039948005,8.544497 92.68699739948005,8.950436 92.21350239948005,9.373339999999999 91.75382739948006,9.815324 91.31050339948006,10.278486000000001 90.88657539948005,10.764423 90.48798739948005,11.269752 90.11598839948005,11.783934 89.76506839948006,12.298248000000001 89.23721039948005,13.095131 93.46579039948006,65.21784" /><polygon points="127.5139930092695,15.466967 127.5438340092695,15.769947 127.6465400092695,16.108522 127.8133250092695,16.420555 128.0377790092695,16.694054 128.3112780092695,16.918508000000003 128.62331100926951,17.085293 128.9618860092695,17.187999 129.2648660092695,17.217840000000002 150.7631200092695,17.217840000000002 151.0661000092695,17.187999 151.4046750092695,17.085293 151.7167080092695,16.918508000000003 151.9902070092695,16.694054 152.2146610092695,16.420555 152.3814460092695,16.108522 152.4841520092695,15.769947 152.51399300926948,15.466967 152.51399300926948,4.968713 152.4841520092695,4.6657329999999995 152.3814460092695,4.327158 152.2146610092695,4.015125 151.9902070092695,3.741626 151.7167080092695,3.517172 151.4046750092695,3.350387 151.0661000092695,3.247681 150.7631200092695,3.21784 129.2648660092695,3.21784 128.9618860092695,3.247681 128.62331100926951,3.350387 128.3112780092695,3.517172 128.0377790092695,3.741626 127.8133250092695,4.015125 127.6465400092695,4.327158 127.5438340092695,4.6657329999999995 127.5139930092695,4.968713 127.5139930092695,15.466967" /><polygon points="3.0,80.86696699999999 3.022155,81.09191 3.1020980000000002,81.355448 3.2319190000000004,81.598326 3.406629,81.811211 3.619514,81.98592099999999 3.8623920000000003,82.115742 4.12593,82.195685 4.350873,82.21784 15.649127,82.21784 15.87407,82.195685 16.137608,82.115742 16.380485999999998,81.98592099999999 16.593370999999998,81.811211 16.768081000000002,81.598326 16.897902000000002,81.355448 16.977845000000002,81.09191 17.0,80.86696699999999 17.0,78.568713 16.977845000000002,78.34376999999999 16.897902000000002,78.080232 16.768081000000002,77.83735399999999 16.593370999999998,77.62446899999999 16.380485999999998,77.449759 16.137608,77.319938 15.87407,77.239995 15.649127,77.21784 4.350873,77.21784 4.12593,77.239995 3.8623920000000003,77.319938 3.619514,77.449759 3.406629,77.62446899999999 3.2319190000000004,77.83735399999999 3.1020980000000002,78.080232 3.022155,78.34376999999999 3.0,78.568713 3.0,80.86696699999999" /><polygon points="22.678138,83.887517 23.128269,83.977154 23.578469,84.06168299999999 24.028734,84.141099 24.479061,84.215403 24.929446,84.28459099999999 25.379885,84.34866099999999 25.830375,84.407613 26.280912,84.461444 26.731492,84.510153 27.18211,84.553738 27.632763,84.592199 28.083447,84.625534 28.534156,84.653741 28.984887999999998,84.676822 29.435637,84.694774 29.886399,84.70759699999999 30.33717,84.715291 30.787945999999998,84.717856 31.238722,84.715291 31.689493,84.70759699999999 32.140254999999996,84.694774 32.591004,84.676822 33.041736,84.653741 33.492446,84.625534 33.943129,84.592199 34.393782,84.553738 34.8444,84.510153 35.29498,84.461444 35.745517,84.407613 36.196007,84.34866099999999 36.646446,84.28459099999999 37.096831,84.215403 37.547157999999996,84.141099 37.997423,84.06168299999999 38.447623,83.977154 38.897755000000004,83.887517 39.087537,83.84756499999999 41.132453,87.255759 42.187671,86.856776 40.371109000000004,77.017063 38.925174999999996,77.337908 38.49644,77.428163 38.067777,77.513526 37.639183,77.593997 37.210653,77.669581 36.782185,77.74027699999999 36.353775999999996,77.806089 35.925421,77.867019 35.497116,77.92306699999999 35.068858,77.97423599999999 34.640643,78.020527 34.212467000000004,78.061942 33.784325,78.09848099999999 33.356214,78.130146 32.928129,78.156939 32.500066000000004,78.17885799999999 32.072021,78.195906 31.643988,78.208083 31.215965,78.215389 30.787945999999998,78.217824 30.359927,78.215389 29.931904,78.208083 29.503871,78.195906 29.075826,78.17885799999999 28.647763,78.156939 28.219678000000002,78.130146 27.791567,78.09848099999999 27.363425,78.061942 26.935249,78.020527 26.507034,77.97423599999999 26.078776,77.92306699999999 25.650471,77.867019 25.222116,77.806089 24.793707,77.74027699999999 24.365239,77.669581 23.936709,77.593997 23.508115,77.513526 23.079452,77.428163 22.650717,77.337908 22.0,77.193517 22.0,83.74216299999999 22.228078,83.792772 22.678138,83.887517" /><polygon points="47.59191906527898,82.35887 48.08186006527898,82.430039 48.57183006527898,82.49714399999999 49.06182606527898,82.560186 49.55184606527898,82.619164 50.041890065278984,82.674077 50.53195506527898,82.724924 51.022041065278984,82.771706 51.51214506527898,82.814421 52.00226606527898,82.85307 52.49240206527898,82.88765099999999 52.98255206527898,82.918165 53.47271306527898,82.944611 53.96288506527898,82.966988 54.45306506527898,82.985298 54.94325206527898,82.999539 55.43344506527898,83.009711 55.92364106527898,83.01581399999999 56.41383806527898,83.017849 56.90403606527898,83.01581399999999 57.39423106527898,83.009711 57.88442406527898,82.999539 58.374611065278984,82.985298 58.86479106527898,82.966988 59.35496306527898,82.944611 59.84512406527898,82.918165 60.33527406527898,82.88765099999999 60.82541006527898,82.85307 61.31553106527898,82.814421 61.80563506527898,82.771706 62.29572106527898,82.724924 62.785786065278984,82.674077 63.27583006527898,82.619164 63.76585006527898,82.560186 64.25584606527897,82.49714399999999 64.74581606527897,82.430039 65.23575706527899,82.35887 65.72567006527898,82.28363999999999 67.05178406527898,82.06899399999999 67.05178406527898,77.042965 65.41410406527898,77.30803999999999 64.94022106527898,77.38081 64.46636906527898,77.449641 63.99254406527898,77.51453599999999 63.51874506527898,77.57549399999999 63.044971065278986,77.632516 62.57122006527898,77.685603 62.09749106527898,77.73475599999999 61.62378206527898,77.779974 61.150091065278986,77.821259 60.67641706527898,77.85861 60.20275906527898,77.892029 59.72911406527898,77.921515 59.255481065278985,77.947069 58.78185806527898,77.96869199999999 58.308244065278984,77.98638199999999 57.834636065278985,78.000141 57.36103406527898,78.009969 56.88743506527898,78.01586599999999 56.41383806527898,78.017831 55.94024106527898,78.01586599999999 55.46664206527898,78.009969 54.99304006527898,78.000141 54.519432065278984,77.98638199999999 54.04581806527898,77.96869199999999 53.57219506527898,77.947069 53.09856206527898,77.921515 52.62491706527898,77.892029 52.15125906527898,77.85861 51.67758506527898,77.821259 51.20389406527898,77.779974 50.73018506527898,77.73475599999999 50.25645606527898,77.685603 49.78270506527898,77.632516 49.30893106527898,77.57549399999999 48.83513306527898,77.51453599999999 48.36130706527898,77.449641 47.88745506527898,77.38081 47.41357306527898,77.30803999999999 46.77589206527898,77.204825 46.77589206527898,82.23085499999999 47.10200606527898,82.28363999999999 47.59191906527898,82.35887" /><polygon points="71.05178413055796,147.21784 79.06810213055796,147.21784 78.15443513055797,90.773524 82.37670613055796,78.212267 79.88793113055796,76.967879 79.20013813055796,77.79939999999999 79.01860513055797,78.019348 78.83686413055797,78.24051299999999 78.65515813055796,78.463093 78.47373113055797,78.687288 78.29283113055797,78.91329999999999 78.11270913055796,79.14133199999999 77.93362013055797,79.37159 77.75582113055796,79.604281 77.57957213055796,79.83961099999999 77.40514013055797,80.077787 77.23279313055797,80.31901599999999 77.06280513055796,80.56350499999999 76.89564613055796,80.811172 76.73251113055797,81.06042599999999 76.57384413055796,81.30890199999999 76.41896213055796,81.55542899999999 76.26695913055796,81.799257 76.11697413055796,82.03965099999999 75.96819313055796,82.275887 75.81984513055797,82.507255 75.67120113055796,82.733063 75.52157713055797,82.95264399999999 75.37032513055796,83.165365 75.21682513055796,83.37063599999999 75.06048213055797,83.567927 74.90066913055796,83.756818 74.73553913055797,83.938327 74.56222813055797,84.115523 74.37966113055796,84.290695 74.18841113055797,84.464501 73.98923013055797,84.637514 73.78293613055797,84.810341 73.57039413055797,84.983634 73.03769613055796,85.41016599999999 72.87643713055796,86.61784 71.05178413055796,86.61784 71.05178413055796,147.21784" /><polygon points="86.15178413055796,88.489745 93.15178413055796,92.899745 100.15178413055796,88.489745 100.15178413055796,77.21784 86.15178413055796,77.21784 86.15178413055796,88.489745" /></g><g fill="none" id="COSTURA" stroke="#00a000" stroke-width="0.08"><polygon points="4.0,13.617840000000001 5.7,13.617840000000001 5.924029020095864,11.940077658455614 6.147094432330193,11.761468840371377 6.368232628841458,11.581167069207433 6.586480001768121,11.398325868423935 6.80087294324865,11.212098761481029 7.010447845421514,11.02163927183886 7.214241100425179,10.826100922957579 7.41128910039811,10.624637238297332 7.600686731513668,10.41645265134619 7.7824813603518885,10.201580582756195 7.957495200654993,9.980728838024472 8.126572958422013,9.754624798685679 8.290559339651981,9.523995846274463 8.450299050343933,9.289569362325484 8.606636796496895,9.05207272837339 8.760417284109902,8.812233325952839 8.912485219181987,8.570778536598482 9.06368530771218,8.32843574184497 9.214862255699515,8.08593232322696 9.366860769143024,7.8439956622791005 9.520525554041738,7.603353140536051 9.67670128610855,7.364732113733559 9.836021248889153,7.12867986561904 9.998401834446948,6.8951330041691214 10.16360761026061,6.663898807332677 10.331403143808819,6.434784553058585 10.501553002570251,6.207597519295722 10.673821754023583,5.982144983992966 10.847973965647494,5.758234225099194 11.023774204920663,5.535672520563282 11.200987039321763,5.314267148334109 11.379377036329478,5.093825386360549 11.55870876342248,4.874154512591481 11.73874678807945,4.655061804975783 11.919255677779065,4.43635454146233 12.1,4.21784 23.5564392373896,9.217839999999999 23.454421106477756,9.731318988028473 23.355066557524765,10.244149152428317 23.261039172489475,10.755681669570908 23.175002533330733,11.265267715827612 23.099620222007395,11.772258467569806 23.037555820478303,12.27600510116886 22.991472910702313,12.775858792996145 22.96403507463827,13.271170719423033 22.957905894245034,13.7612920568209 22.97574895148145,14.245573981561112 23.02022782830636,14.723367670015046 23.094006106678624,15.194024298554073 23.199747368557087,15.656895043549563 23.33918465405105,16.11152868073176 23.510305763416135,16.558269282672452 23.71015638312121,16.99766097858823 23.93578219962694,17.430247897697406 24.184228899393993,17.85657416921829 24.45254216888303,18.277183922369204 24.737767694554737,18.692621286368457 25.036951162869773,19.103430390434372 25.347138260288812,19.51015536378526 25.665374673272517,19.91334033563944 25.988706088281564,20.313529435215223 26.31417819177662,20.711266791730928 26.638836670218353,21.10709653440487 26.959838932488886,21.501549115846352 27.27617163772967,21.89493105921288 27.588314802591796,22.28736607684823 27.89679211962258,22.67897253446879 28.20212728136937,23.06986879779097 28.5048439803795,23.460173232531165 28.805465909200294,23.850004204405764 29.104516760379084,24.239480079131173 29.40252022646321,24.628719222423786 29.7,25.01784 29.7,72.21784 4.0,72.21784" /><polygon points="35.7,4.21784 52.1848151314457,4.21784 52.183607708291575,4.241748265376839 52.210647533851656,4.723964512157303 52.291285015141916,5.201130269797159 52.42177040646769,5.67329102696847 52.59763158768173,6.140533275221917 52.81439643863683,6.602943506108187 53.067592839185735,7.060608211177956 53.35274866918122,7.513613881981912 53.66539180847606,7.962047010070736 54.001050136923,8.405994086995104 54.35525153437483,8.845541604305705 54.72352388068431,9.280776053553218 55.1013950557042,9.711783926288327 55.484392939287275,10.138651714061716 55.8680454112863,10.561465908424069 56.247880351554045,10.980313000926053 56.61987827988937,11.395305233013849 56.98342307394002,11.806748457213763 57.33944702774184,12.215036612754337 57.68889024632593,12.620564083217998 58.03269283472339,13.02372525218715 58.371794897965344,13.424914503244223 58.707136541082875,13.824526219971625 59.03965786910709,14.22295478595178 59.37029898706909,14.6205945847671 59.7,15.017840000000001 59.7,62.21784 35.7,62.21784" /><polygon points="65.7,6.21784 65.94621700359556,6.21817268093061 66.19235264431173,6.2179067561055765 66.43832555926915,6.216443619769256 66.68405438558841,6.213184666166006 66.92945776039018,6.207531289540182 67.17445432079505,6.198884884136142 67.41896270392364,6.186646844198242 67.66290154689659,6.170218563970838 67.9061894868345,6.1490014376982876 68.148745160858,6.122396859624947 68.39048720608771,6.089806223995173 68.63133425964426,6.050630925053322 68.8712042859385,6.004274989412655 69.10995170850691,5.950391084383181 69.34731614405462,5.889081125901058 69.58302514452467,5.820494240314224 69.81680626186017,5.74477955397062 70.04838704800416,5.662086193218186 70.27749505489973,5.572563284404863 70.50385783448993,5.476359953878591 70.72720293871787,5.37362532798731 70.94725791952656,5.264508533078959 71.16375032885912,5.14915869550148 71.37646465034544,5.027774911948519 71.5857024683,4.901010151138324 71.79204105370248,4.769759358774735 71.99606025306332,4.634919741168428 72.1983399128929,4.497388504630083 72.39945987970165,4.358062855470382 72.60000000000001,4.21784 84.2619037896906,8.717839999999999 83.97905807829056,9.228690942874886 83.70090785209052,9.739108012539557 83.43214859629049,10.248657335783804 83.17747579609048,10.75690503939741 82.9415849366905,11.263417250170164 82.72917150329056,11.767760094891852 82.54493098109066,12.26949970035226 82.39355885529079,12.768202193341176 82.27975061109099,13.263433700648388 82.20820173369125,13.75476034906368 82.1848151314457,14.21784 65.7,14.21784" /><polygon points="90.2619037896906,13.359014169600002 90.59497005201668,12.856199585750739 90.93426208495625,12.358928131145195 91.28600565912281,11.872742935027087 91.65639746279003,11.403161543621026 92.0488753899534,10.953274659674122 92.46188612832535,10.52178234451847 92.89335098445478,10.10692249459775 93.34119126489067,9.70693300635564 93.8033282761819,9.320051776235822 94.27768332487746,8.944516700681977 94.76217771752624,8.578565676137778 95.25473276067723,8.22043659904691 95.75326976299179,7.868367369336023 96.2561627507885,7.521342307884701 96.76350664121685,7.181183064653335 97.27580518631278,6.850385358573912 97.79356213811226,6.531444908578417 98.31728124865127,6.2268574335988305 98.84746626996576,5.93911865256714 99.3846209540917,5.6707242844153285 99.92924905306504,5.424170048075379 100.48185431892176,5.201951662479276 101.04294050369782,5.006564846559005 101.61293173274113,4.840200271653984 102.19135157958935,4.701598620558219 102.77715432103523,4.5873196163180605 103.36928525785052,4.493888595096994 103.966689690807,4.417830893058504 104.56831292067643,4.355671846366075 105.17310024823058,4.303936791183191 105.7799969742412,4.259151063673338 106.38794839948005,4.21784 106.98398799533024,4.288032538346485 107.57883084859893,4.361743822731322 108.17128021670464,4.44249259919286 108.7601393570659,4.533797613769452 109.3442115271012,4.639177612499448 109.92229998422903,4.762151341421198 110.49320798586794,4.906237546573056 111.05573878943642,5.07495497399337 111.6087974535145,5.271475887397381 112.15236062757535,5.4953253691066255 112.68704665841025,5.743844471572776 113.21348256308167,6.014344737803389 113.732295358652,6.304137710806027 114.24411206218369,6.610534933588248 114.74955969073916,6.9308479491576085 115.24926526138083,7.26238830052167 115.74385579117114,7.602467530687992 116.23395829717253,7.948397182664131 116.72013781803027,8.297678231050245 117.20229172410193,8.649852319971423 117.67991045958503,9.005704827648012 118.15247868098422,9.36603882187568 118.61948104480409,9.731657370450101 119.08040220754931,10.103363541166946 119.53472682572452,10.481960401821883 119.98193955583433,10.868251020210582 120.4215250543834,11.263038464128721 120.85296797787635,11.667125801371965 121.27607326042647,12.080918259043806 121.69245104739795,12.502578676787158 122.10434338954087,12.929484957460966 122.5139930092695,13.359014169600002 118.38794839948005,64.21784 94.38794839948005,64.21784" /><polygon points="128.51399300926948,5.01784 128.52936478494692,4.861767742387098 128.57488938326048,4.711693254107928 128.64881731942745,4.573383813584319 128.74830758432026,4.452154575050762 128.86953682285383,4.352664310157964 129.00784626337742,4.278736373990971 129.1579207516566,4.233211775677416 129.3139930092695,4.21784 150.7139930092695,4.21784 150.8700652668824,4.2332117756774155 151.02013975516158,4.27873637399097 151.1584491956852,4.352664310157964 151.27967843421874,4.452154575050762 151.37916869911155,4.573383813584318 151.45309663527854,4.711693254107928 151.49862123359208,4.861767742387098 151.51399300926948,5.0178400000000005 151.51399300926948,15.41784 151.49862123359208,15.573912257612903 151.45309663527854,15.723986745892072 151.37916869911155,15.862296186415682 151.27967843421874,15.983525424949239 151.1584491956852,16.083015689842036 151.02013975516158,16.15694362600903 150.8700652668824,16.202468224322587 150.7139930092695,16.217840000000002 129.3139930092695,16.217840000000002 129.1579207516566,16.202468224322587 129.00784626337742,16.15694362600903 128.86953682285383,16.083015689842036 128.74830758432026,15.983525424949239 128.64881731942745,15.862296186415682 128.57488938326048,15.723986745892072 128.52936478494692,15.573912257612903 128.51399300926948,15.41784" /><polygon points="4.0,78.61784 4.007685887838708,78.53980387119354 4.030448186995486,78.46476662705396 4.067412155078982,78.39561190679215 4.117157287525381,78.33499728752538 4.1777719067921595,78.28525215507898 4.2469266270539645,78.24828818699548 4.321963871193549,78.2255258878387 4.4,78.21784 15.6,78.21784 15.67803612880645,78.2255258878387 15.753073372946035,78.24828818699548 15.82222809320784,78.28525215507898 15.882842712474618,78.33499728752538 15.932587844921018,78.39561190679215 15.969551813004514,78.46476662705396 15.992314112161292,78.53980387119354 16.0,78.61784 16.0,80.81783999999999 15.992314112161292,80.89587612880645 15.969551813004514,80.97091337294603 15.932587844921018,81.04006809320784 15.882842712474618,81.10068271247461 15.82222809320784,81.15042784492101 15.753073372946035,81.18739181300451 15.67803612880645,81.21015411216129 15.6,81.21784 4.4,81.21784 4.3219638711935495,81.21015411216129 4.2469266270539645,81.18739181300451 4.1777719067921595,81.15042784492101 4.117157287525381,81.10068271247461 4.067412155078982,81.04006809320784 4.030448186995486,80.97091337294603 4.007685887838708,80.89587612880645 4.0,80.81783999999999" /><polygon points="22.0,78.21784 22.439397301631974,78.31533999999999 22.878794603263948,78.40784 23.318191904895922,78.49534 23.757589206527896,78.57784 24.196986508159874,78.65534 24.636383809791848,78.72784 25.075781111423822,78.79534 25.515178413055796,78.85784 25.95457571468777,78.91534 26.393973016319745,78.96784 26.83337031795172,79.01534 27.272767619583693,79.05784 27.712164921215667,79.09534 28.15156222284764,79.12783999999999 28.590959524479615,79.15534 29.030356826111593,79.17783999999999 29.469754127743567,79.19534 29.90915142937554,79.20783999999999 30.348548731007515,79.21534 30.78794603263949,79.21784 31.227343334271463,79.21534 31.666740635903437,79.20783999999999 32.10613793753541,79.19534 32.545535239167386,79.17783999999999 32.98493254079936,79.15534 33.424329842431334,79.12783999999999 33.86372714406331,79.09534 34.30312444569528,79.05784 34.74252174732726,79.01534 35.18191904895924,78.96784 35.62131635059121,78.91534 36.060713652223185,78.85784 36.500110953855156,78.79534 36.939508255487134,78.72784 37.378905557119104,78.65534 37.81830285875108,78.57784 38.25770016038305,78.49534 38.69709746201503,78.40784 39.13649476364701,78.31533999999999 39.57589206527898,78.21784 40.77589206527898,84.71784 39.57589206527898,82.71784 39.13649476364701,82.81533999999999 38.69709746201503,82.90784 38.25770016038305,82.99534 37.81830285875108,83.07784 37.378905557119104,83.15534 36.939508255487134,83.22784 36.500110953855156,83.29534 36.060713652223185,83.35784 35.62131635059121,83.41534 35.18191904895924,83.46784 34.74252174732726,83.51534 34.30312444569528,83.55784 33.86372714406331,83.59534 33.424329842431334,83.62783999999999 32.98493254079936,83.65534 32.545535239167386,83.67783999999999 32.10613793753541,83.69534 31.666740635903437,83.70783999999999 31.227343334271463,83.71534 30.78794603263949,83.71784 30.348548731007515,83.71534 29.90915142937554,83.70783999999999 29.469754127743567,83.69534 29.030356826111593,83.67783999999999 28.590959524479615,83.65534 28.15156222284764,83.62783999999999 27.712164921215667,83.59534 27.272767619583693,83.55784 26.83337031795172,83.51534 26.393973016319745,83.46784 25.95457571468777,83.41534 25.515178413055796,83.35784 25.075781111423822,83.29534 24.636383809791848,83.22784 24.196986508159874,83.15534 23.757589206527896,83.07784 23.318191904895922,82.99534 22.878794603263948,82.90784 22.439397301631974,82.81533999999999 22.0,82.71784" /><polygon points="46.77589206527898,78.21784 47.257789366910956,78.29584 47.73968666854293,78.36984 48.221583970174905,78.43983999999999 48.70348127180688,78.50583999999999 49.185378573438854,78.56783999999999 49.66727587507083,78.62584 50.1491731767028,78.67984 50.63107047833478,78.72984 51.11296777996675,78.77584 51.594865081598726,78.81783999999999 52.0767623832307,78.85584 52.558659684862675,78.88983999999999 53.04055698649465,78.91984 53.522454288126625,78.94583999999999 54.0043515897586,78.96784 54.486248891390574,78.98584 54.96814619302255,78.99983999999999 55.45004349465452,79.00984 55.9319407962865,79.01584 56.41383809791847,79.01783999999999 56.895735399550446,79.01584 57.37763270118242,79.00984 57.859530002814395,78.99983999999999 58.34142730444637,78.98584 58.823324606078344,78.96784 59.30522190771032,78.94583999999999 59.78711920934229,78.91984 60.26901651097427,78.88983999999999 60.75091381260624,78.85584 61.23281111423822,78.81783999999999 61.71470841587019,78.77584 62.196605717502166,78.72984 62.67850301913414,78.67984 63.160400320766115,78.62584 63.64229762239809,78.56783999999999 64.12419492403006,78.50583999999999 64.60609222566204,78.43983999999999 65.08798952729401,78.36984 65.56988682892599,78.29584 66.05178413055796,78.21784 66.05178413055796,81.21784 65.56988682892599,81.29584 65.08798952729401,81.36984 64.60609222566204,81.43983999999999 64.12419492403006,81.50583999999999 63.64229762239809,81.56783999999999 63.160400320766115,81.62584 62.67850301913414,81.67984 62.196605717502166,81.72984 61.71470841587019,81.77583999999999 61.23281111423822,81.81783999999999 60.75091381260624,81.85584 60.26901651097427,81.88983999999999 59.78711920934229,81.91984 59.30522190771032,81.94583999999999 58.823324606078344,81.96784 58.34142730444637,81.98584 57.859530002814395,81.99983999999999 57.37763270118242,82.00984 56.895735399550446,82.01584 56.41383809791847,82.01783999999999 55.9319407962865,82.01584 55.45004349465452,82.00984 54.96814619302255,81.99983999999999 54.486248891390574,81.98584 54.0043515897586,81.96784 53.522454288126625,81.94583999999999 53.04055698649465,81.91984 52.558659684862675,81.88983999999999 52.0767623832307,81.85584 51.594865081598726,81.81783999999999 51.11296777996675,81.77583999999999 50.63107047833478,81.72984 50.1491731767028,81.67984 49.66727587507083,81.62584 49.185378573438854,81.56783999999999 48.70348127180688,81.50583999999999 48.221583970174905,81.43983999999999 47.73968666854293,81.36984 47.257789366910956,81.29584 46.77589206527898,81.21784" /><polygon points="72.05178413055796,87.61784 73.75178413055797,87.61784 73.97581315065383,85.9400776584556 74.19887856288815,85.76146884037138 74.42001675939942,85.58116706920742 74.63826413232609,85.39832586842392 74.85265707380661,85.21209876148103 75.06223197597949,85.02163927183885 75.26602523098315,84.82610092295758 75.46307323095607,84.62463723829732 75.65247086207164,84.41645265134619 75.83426549090986,84.2015805827562 76.00927933121295,83.98072883802448 76.17835708897998,83.75462479868567 76.34234347020995,83.52399584627446 76.50208318090189,83.28956936232548 76.65842092705486,83.05207272837339 76.81220141466787,82.81223332595283 76.96426934973995,82.57077853659848 77.11546943827014,82.32843574184497 77.26664638625748,82.08593232322696 77.418644899701,81.8439956622791 77.5723096845997,81.60335314053604 77.72848541666652,81.36473211373355 77.88780537944712,81.12867986561903 78.05018596500491,80.89513300416911 78.21539174081857,80.66389880733267 78.38318727436679,80.43478455305858 78.55333713312821,80.20759751929572 78.72560588458155,79.98214498399297 78.89975809620546,79.75823422509919 79.07555833547863,79.53567252056328 79.25277116987972,79.31426714833411 79.43116116688745,79.09382538636055 79.61049289398045,78.87415451259147 79.79053091863742,78.65506180497577 79.97103980833703,78.43635454146232 80.15178413055797,78.21784 81.15178413055797,78.71784 77.15178413055797,90.61784 78.05178413055796,146.21784 72.05178413055796,146.21784" /><polygon points="87.15178413055796,78.21784 99.15178413055796,78.21784 99.15178413055796,87.93784 93.15178413055796,91.71784 87.15178413055796,87.93784" /></g><g fill="none" id="PIQUETES" stroke="#00b0b0" stroke-width="0.08"><line x1="22.91893341804054" x2="23.000050782740875" y1="15.383900248726937" y2="16.025008642950624" /><line x1="23.383454342250072" x2="23.000050782740875" y1="15.504814726650482" y2="16.025008642950624" /><line x1="29.79244724262189" x2="29.146299340055872" y1="46.69635973602235" y2="46.68672189344528" /><line x1="29.60755275737811" x2="29.146299340055872" y1="47.13932026397766" y2="46.68672189344528" /><line x1="43.70397559443731" x2="44.010881788468055" y1="4.24522968909808" y2="4.81391992821386" /><line x1="44.180839537008396" x2="44.010881788468055" y1="4.19045031090192" y2="4.81391992821386" /><line x1="74.182352803609" x2="73.95522425790551" y1="14.22296667687306" y2="13.617976905284635" /><line x1="73.70246232783671" x2="73.95522425790551" y1="14.212713323126941" y2="13.617976905284635" /><line x1="113.99902262095536" x2="114.06480377637011" y1="6.53596317281199" y2="7.17882617500787" /><line x1="114.46052294120487" x2="114.06480377637011" y1="6.667938376579989" y2="7.17882617500787" /><line x1="97.9528178599863" x2="98.35187890432726" y1="6.372377117748373" y2="6.880658814142691" /><line x1="98.41344276628332" x2="98.35187890432726" y1="6.237378244794406" y2="6.880658814142691" /><line x1="96.65205717567241" x2="97.07678469000297" y1="7.186155789441371" y2="7.673194328543342" /><line x1="97.10511203417875" x2="97.07678469000297" y1="7.027595721379459" y2="7.673194328543342" /></g><g fill="none" id="TEXTOS" stroke="#000000" stroke-width="0.08"><text fill="#000000" font-family="sans-serif" font-size="0.9" stroke="none" text-anchor="middle" x="16.40335576231284" y="38.667737820139635">DELANTERO</text><text fill="#000000" font-family="sans-serif" font-size="0.6" stroke="none" text-anchor="middle" x="16.40335576231284" y="40.067737820139634">Pieza N.01</text><text fill="#000000" font-family="sans-serif" font-size="0.6" stroke="none" text-anchor="middle" x="16.40335576231284" y="41.46773782013963">Talla: S</text><text fill="#000000" font-family="sans-serif" font-size="0.6" stroke="none" text-anchor="middle" x="16.40335576231284" y="42.86773782013963">Cortar: 2  (par: izq + der)</text><text fill="#000000" font-family="sans-serif" font-size="0.9" stroke="none" text-anchor="middle" x="47.37644306450451" y="30.511711759809327">ESPALDA</text><text fill="#000000" font-family="sans-serif" font-size="0.6" stroke="none" text-anchor="middle" x="47.37644306450451" y="31.911711759809325">Pieza N.02</text><text fill="#000000" font-family="sans-serif" font-size="0.6" stroke="none" text-anchor="middle" x="47.37644306450451" y="33.31171175980933">Talla: S</text><text fill="#000000" font-family="sans-serif" font-size="0.6" stroke="none" text-anchor="middle" x="47.37644306450451" y="34.71171175980932">Cortar: 1  (al doblez)</text><text fill="#000000" font-family="sans-serif" font-size="0.6" stroke="none" text-anchor="middle" x="47.37644306450451" y="36.11171175980933">AL DOBLEZ</text><text fill="#000000" font-family="sans-serif" font-size="0.9" stroke="none" text-anchor="middle" x="74.03233517062606" y="6.408934097539647">CANESU</text><text fill="#000000" font-family="sans-serif" font-size="0.6" stroke="none" text-anchor="middle" x="74.03233517062606" y="7.808934097539646">Pieza N.03</text><text fill="#000000" font-family="sans-serif" font-size="0.6" stroke="none" text-anchor="middle" x="74.03233517062606" y="9.208934097539647">Talla: S</text><text fill="#000000" font-family="sans-serif" font-size="0.6" stroke="none" text-anchor="middle" x="74.03233517062606" y="10.608934097539645">Cortar: 2  (al doblez x2 (exterior+interior))</text><text fill="#000000" font-family="sans-serif" font-size="0.6" stroke="none" text-anchor="middle" x="74.03233517062606" y="12.008934097539647">AL DOBLEZ</text><text fill="#000000" font-family="sans-serif" font-size="0.9" stroke="none" text-anchor="middle" x="106.34793551895339" y="31.463722355820693">MANGA</text><text fill="#000000" font-family="sans-serif" font-size="0.6" stroke="none" text-anchor="middle" x="106.34793551895339" y="32.86372235582069">Pieza N.04</text><text fill="#000000" font-family="sans-serif" font-size="0.6" stroke="none" text-anchor="middle" x="106.34793551895339" y="34.26372235582069">Talla: S</text><text fill="#000000" font-family="sans-serif" font-size="0.6" stroke="none" text-anchor="middle" x="106.34793551895339" y="35.663722355820695">Cortar: 2  (par: izq + der)</text><text fill="#000000" font-family="sans-serif" font-size="0.9" stroke="none" text-anchor="middle" x="140.0139930092695" y="7.517840000000003">PUNO</text><text fill="#000000" font-family="sans-serif" font-size="0.6" stroke="none" text-anchor="middle" x="140.0139930092695" y="8.917840000000002">Pieza N.05</text><text fill="#000000" font-family="sans-serif" font-size="0.6" stroke="none" text-anchor="middle" x="140.0139930092695" y="10.317840000000004">Talla: S</text><text fill="#000000" font-family="sans-serif" font-size="0.6" stroke="none" text-anchor="middle" x="140.0139930092695" y="11.717840000000002">Cortar: 4  (4 (2 tela + 2 entretela))</text><text fill="#000000" font-family="sans-serif" font-size="0.9" stroke="none" text-anchor="middle" x="9.999999999999996" y="77.01783999999999">TAPETA MANGA</text><text fill="#000000" font-family="sans-serif" font-size="0.6" stroke="none" text-anchor="middle" x="9.999999999999996" y="78.41784">Pieza N.06</text><text fill="#000000" font-family="sans-serif" font-size="0.6" stroke="none" text-anchor="middle" x="9.999999999999996" y="79.81783999999999">Talla: S</text><text fill="#000000" font-family="sans-serif" font-size="0.6" stroke="none" text-anchor="middle" x="9.999999999999996" y="81.21784">Cortar: 2  (par)</text><text fill="#000000" font-family="sans-serif" font-size="0.9" stroke="none" text-anchor="middle" x="31.09124710858033" y="77.55886182403938">CUELLO</text><text fill="#000000" font-family="sans-serif" font-size="0.6" stroke="none" text-anchor="middle" x="31.09124710858033" y="78.95886182403939">Pieza N.07</text><text fill="#000000" font-family="sans-serif" font-size="0.6" stroke="none" text-anchor="middle" x="31.09124710858033" y="80.35886182403938">Talla: S</text><text fill="#000000" font-family="sans-serif" font-size="0.6" stroke="none" text-anchor="middle" x="31.09124710858033" y="81.75886182403939">Cortar: 2  (al doblez x2 (+ entretela))</text><text fill="#000000" font-family="sans-serif" font-size="0.6" stroke="none" text-anchor="middle" x="31.09124710858033" y="83.15886182403938">AL DOBLEZ</text><text fill="#000000" font-family="sans-serif" font-size="0.9" stroke="none" text-anchor="middle" x="56.41383809791847" y="76.65084">PIE DE CUELLO</text><text fill="#000000" font-family="sans-serif" font-size="0.6" stroke="none" text-anchor="middle" x="56.41383809791847" y="78.05084">Pieza N.08</text><text fill="#000000" font-family="sans-serif" font-size="0.6" stroke="none" text-anchor="middle" x="56.41383809791847" y="79.45084">Talla: S</text><text fill="#000000" font-family="sans-serif" font-size="0.6" stroke="none" text-anchor="middle" x="56.41383809791847" y="80.85083999999999">Cortar: 2  (al doblez x2 (+ entretela))</text><text fill="#000000" font-family="sans-serif" font-size="0.6" stroke="none" text-anchor="middle" x="56.41383809791847" y="82.25084">AL DOBLEZ</text><text fill="#000000" font-family="sans-serif" font-size="0.9" stroke="none" text-anchor="middle" x="75.06437397980758" y="112.17215250814462">VISTA DELANTERA</text><text fill="#000000" font-family="sans-serif" font-size="0.6" stroke="none" text-anchor="middle" x="75.06437397980758" y="113.57215250814463">Pieza N.09</text><text fill="#000000" font-family="sans-serif" font-size="0.6" stroke="none" text-anchor="middle" x="75.06437397980758" y="114.97215250814462">Talla: S</text><text fill="#000000" font-family="sans-serif" font-size="0.6" stroke="none" text-anchor="middle" x="75.06437397980758" y="116.37215250814462">Cortar: 2  (par: izq + der)</text><text fill="#000000" font-family="sans-serif" font-size="0.9" stroke="none" text-anchor="middle" x="93.15178413055796" y="81.37411906976743">BOLSILLO</text><text fill="#000000" font-family="sans-serif" font-size="0.6" stroke="none" text-anchor="middle" x="93.15178413055796" y="82.77411906976744">Pieza N.10</text><text fill="#000000" font-family="sans-serif" font-size="0.6" stroke="none" text-anchor="middle" x="93.15178413055796" y="84.17411906976744">Talla: S</text><text fill="#000000" font-family="sans-serif" font-size="0.6" stroke="none" text-anchor="middle" x="93.15178413055796" y="85.57411906976743">Cortar: 1  (1 (opcional))</text></g><g fill="none" id="CENTROS" stroke="#0050ff" stroke-width="0.08"><circle cx="18.9" cy="29.21784" fill="#0050ff" r="0.15" /><circle cx="110.41945955192742" cy="52.21784" fill="#0050ff" r="0.15" /></g><g fill="none" id="HILO" stroke="#c0a000" stroke-width="0.08"><line x1="17.7" x2="17.7" y1="16.61784" y2="69.21784" /><line x1="17.7" x2="18.167302010770378" y1="69.21784" y2="68.11256680719654" /><line x1="17.7" x2="17.232697989229617" y1="69.21784" y2="68.11256680719654" /><line x1="17.7" x2="17.23269798922962" y1="16.61784" y2="17.723113192803464" /><line x1="17.7" x2="18.167302010770378" y1="16.61784" y2="17.723113192803464" /><line x1="36.2" x2="36.2" y1="7.21784" y2="59.21784" /><line x1="36.2" x2="36.66730201077038" y1="59.21784" y2="58.11256680719654" /><line x1="36.2" x2="35.73269798922962" y1="59.21784" y2="58.11256680719654" /><line x1="36.2" x2="35.73269798922962" y1="7.21784" y2="8.323113192803461" /><line x1="36.2" x2="36.66730201077038" y1="7.21784" y2="8.323113192803461" /><line x1="69.96000000000001" x2="69.96000000000001" y1="5.21784" y2="13.71784" /><line x1="69.96000000000001" x2="70.42730201077039" y1="13.71784" y2="12.612566807196538" /><line x1="69.96000000000001" x2="69.49269798922963" y1="13.71784" y2="12.612566807196538" /><line x1="69.96000000000001" x2="69.49269798922963" y1="5.21784" y2="6.323113192803462" /><line x1="69.96000000000001" x2="70.42730201077038" y1="5.21784" y2="6.323113192803462" /><line x1="106.38794839948005" x2="106.38794839948005" y1="7.87430966784" y2="62.21784" /><line x1="106.38794839948005" x2="106.85525041025043" y1="62.21784" y2="61.11256680719654" /><line x1="106.38794839948005" x2="105.92064638870967" y1="62.21784" y2="61.11256680719654" /><line x1="106.38794839948005" x2="105.92064638870967" y1="7.87430966784" y2="8.979582860643461" /><line x1="106.38794839948005" x2="106.85525041025043" y1="7.87430966784" y2="8.979582860643461" /><line x1="140.01399300926948" x2="140.01399300926948" y1="4.71784" y2="15.71784" /><line x1="140.01399300926948" x2="140.48129502003988" y1="15.71784" y2="14.612566807196538" /><line x1="140.01399300926948" x2="139.54669099849912" y1="15.71784" y2="14.612566807196538" /><line x1="140.01399300926948" x2="139.54669099849912" y1="4.71784" y2="5.823113192803462" /><line x1="140.01399300926948" x2="140.48129502003988" y1="4.71784" y2="5.823113192803462" /><line x1="10.0" x2="10.0" y1="78.61784" y2="80.81783999999999" /><line x1="10.0" x2="10.467302010770382" y1="80.81783999999999" y2="79.71256680719654" /><line x1="10.0" x2="9.532697989229618" y1="80.81783999999999" y2="79.71256680719654" /><line x1="10.0" x2="9.53269798922962" y1="78.61784" y2="79.72311319280345" /><line x1="10.0" x2="10.46730201077038" y1="78.61784" y2="79.72311319280345" /><line x1="22.5" x2="39.07589206527898" y1="78.71784" y2="78.71784" /><line x1="39.07589206527898" x2="37.97061887247551" y1="78.71784" y2="78.25053798922961" /><line x1="39.07589206527898" x2="37.97061887247551" y1="78.71784" y2="79.18514201077038" /><line x1="22.5" x2="23.605273192803462" y1="78.71784" y2="79.18514201077038" /><line x1="22.5" x2="23.605273192803462" y1="78.71784" y2="78.25053798922961" /><line x1="47.27589206527898" x2="65.55178413055796" y1="78.61784" y2="78.61784" /><line x1="65.55178413055796" x2="64.4465109377545" y1="78.61784" y2="78.15053798922962" /><line x1="65.55178413055796" x2="64.4465109377545" y1="78.61784" y2="79.08514201077037" /><line x1="47.27589206527898" x2="48.38116525808244" y1="78.61784" y2="79.08514201077037" /><line x1="47.27589206527898" x2="48.38116525808244" y1="78.61784" y2="78.15053798922962" /><line x1="75.05178413055796" x2="75.05178413055796" y1="92.61784" y2="143.21784" /><line x1="75.05178413055796" x2="75.51908614132834" y1="143.21784" y2="142.11256680719654" /><line x1="75.05178413055796" x2="74.58448211978758" y1="143.21784" y2="142.11256680719654" /><line x1="75.05178413055796" x2="74.58448211978758" y1="92.61784" y2="93.72311319280345" /><line x1="75.05178413055796" x2="75.51908614132834" y1="92.61784" y2="93.72311319280345" /><line x1="93.15178413055796" x2="93.15178413055796" y1="79.21784" y2="87.93784" /><line x1="93.15178413055796" x2="93.61908614132834" y1="87.93784" y2="86.83256680719653" /><line x1="93.15178413055796" x2="92.68448211978757" y1="87.93784" y2="86.83256680719653" /><line x1="93.15178413055796" x2="92.68448211978757" y1="79.21784" y2="80.32311319280346" /><line x1="93.15178413055796" x2="93.61908614132834" y1="79.21784" y2="80.32311319280346" /></g><g fill="none" id="DOBLEZ" stroke="#c000c0" stroke-width="0.08"><line x1="35.7" x2="35.7" y1="4.21784" y2="62.21784" /><line x1="65.7" x2="65.7" y1="4.21784" y2="14.21784" /><line x1="22.0" x2="22.0" y1="78.21784" y2="84.71784" /><line x1="46.77589206527898" x2="46.77589206527898" y1="78.21784" y2="82.01783999999999" /></g><g fill="none" id="BOTONES" stroke="#ff8000" stroke-width="0.08"><circle cx="5.7" cy="15.117840000000001" fill="#ff8000" r="0.55" /><circle cx="5.7" cy="23.634506666666667" fill="#ff8000" r="0.55" /><circle cx="5.7" cy="32.15117333333333" fill="#ff8000" r="0.55" /><circle cx="5.7" cy="40.667840000000005" fill="#ff8000" r="0.55" /><circle cx="5.7" cy="49.18450666666667" fill="#ff8000" r="0.55" /><circle cx="5.7" cy="57.70117333333334" fill="#ff8000" r="0.55" /><circle cx="5.7" cy="66.21784" fill="#ff8000" r="0.55" /><circle cx="129.7139930092695" cy="10.217839999999999" fill="#ff8000" r="0.55" /><circle cx="65.05178413055796" cy="79.71784" fill="#ff8000" r="0.55" /></g><g fill="none" id="OJAL" stroke="#ff40a0" stroke-width="0.08"><line x1="4.9" x2="6.5" y1="15.117840000000001" y2="15.117840000000001" /><line x1="4.9" x2="6.5" y1="23.634506666666667" y2="23.634506666666667" /><line x1="4.9" x2="6.5" y1="32.15117333333333" y2="32.15117333333333" /><line x1="4.9" x2="6.5" y1="40.667840000000005" y2="40.667840000000005" /><line x1="4.9" x2="6.5" y1="49.18450666666667" y2="49.18450666666667" /><line x1="4.9" x2="6.5" y1="57.70117333333334" y2="57.70117333333334" /><line x1="4.9" x2="6.5" y1="66.21784" y2="66.21784" /><line x1="150.3139930092695" x2="150.3139930092695" y1="9.41784" y2="11.01784" /></g><g fill="none" id="REFERENCIAS" stroke="#b0b0b0" stroke-width="0.08"><text fill="#000000" font-family="sans-serif" font-size="0.5" stroke="none" text-anchor="start" x="5.7" y="12.617840000000001">CF</text><text fill="#000000" font-family="sans-serif" font-size="0.5" stroke="none" text-anchor="start" x="36.0" y="33.217839999999995">CB</text><text fill="#000000" font-family="sans-serif" font-size="0.5" stroke="none" text-anchor="start" x="140.01399300926948" y="9.41784">DOBLEZ</text><text fill="#000000" font-family="sans-serif" font-size="0.5" stroke="none" text-anchor="start" x="93.15178413055796" y="79.71784">boca</text></g></svg>