<?xml version="1.0" encoding="utf-8" ?>
<svg baseProfile="full" height="156.421216cm" version="1.1" viewBox="0 0 158.0 156.421216" width="158.0cm" xmlns="http://www.w3.org/2000/svg" xmlns:ev="http://www.w3.org/2001/xml-events" xmlns:xlink="http://www.w3.org/1999/xlink"><defs /><rect fill="#f7f3ea" height="148.421216" stroke="#333" stroke-width="0.15" width="150.0" x="4.0" y="4.0" /><text fill="#000" font-family="sans-serif" font-size="1.4" x="4.0" y="3.0">PLANO DE CORTE — ancho 150 cm — largo 1.48 m</text><polygon fill="#cfe3f7" fill-opacity="0.5" points="4.0,74.416603 31.7,74.416603 31.7,27.040896999999998 31.100068,26.355189999999997 30.746677,25.952019 30.390684,25.547372 30.03155,25.141385 29.668433,24.733855 29.300496,24.324583999999998 28.926906,23.913380999999998 28.546843,23.500072 28.160414,23.085447 27.771075,22.671619 27.384597,22.259573 27.005541,21.848837 26.638339,21.439003 26.287416999999998,21.029882999999998 25.957145,20.621509 25.651775999999998,20.214145 25.375339999999998,19.80826 25.131521,19.404476000000003 24.923496,19.003424000000003 24.753785999999998,18.605459 24.623387,18.207824000000002 24.5304,17.802461 24.471646,17.383051000000002 24.445508,16.948132 24.450623999999998,16.49745 24.485547999999998,16.031382999999998 24.54861,15.550758 24.63787,15.056673 24.751132,14.550351000000001 24.885973,14.033047 25.039794999999998,13.505986 25.209865,12.970326 25.393345999999998,12.427143 25.587334,11.877422 25.788868,11.322057000000001 26.24783,10.074437 18.403983,4.0 17.229178,5.588299 16.664037,6.335345 16.096415,7.052375 15.522680000000001,7.7287360000000005 14.939796999999999,8.354008 14.345283,8.918338 13.736983,9.412908 13.112454,9.830471 12.466975999999999,10.166091000000002 11.784701,10.420415 11.049547,10.603461 10.260290000000001,10.725571 9.42385,10.796249 8.548389,10.826540000000001 7.642187,10.828863 6.706551,10.816603 4.0,10.816603 4.0,74.416603" stroke="#1f6fb2" stroke-width="0.1" /><text fill="#0a3d62" font-family="sans-serif" font-size="1.6" text-anchor="middle" x="17.85" y="39.2083015">01</text><polygon fill="#cfe3f7" fill-opacity="0.5" points="32.7,74.416603 60.400000000000006,74.416603 60.400000000000006,27.040896999999998 59.800068,26.355189999999997 59.446677,25.952019 59.090684,25.547372 58.73155,25.141385 58.368433,24.733855 58.000496,24.324583999999998 57.626906000000005,23.913380999999998 57.246843,23.500072 56.860414000000006,23.085447 56.471075,22.671619 56.084597,22.259573 55.705541000000004,21.848837 55.338339000000005,21.439003 54.987417,21.029882999999998 54.657145,20.621509 54.351776,20.214145 54.07534,19.80826 53.831521,19.404476000000003 53.623496,19.003424000000003 53.453786,18.605459 53.323387000000004,18.207824000000002 53.2304,17.802461 53.171646,17.383051000000002 53.14550800000001,16.948132 53.150624,16.49745 53.185548,16.031382999999998 53.24861,15.550758 53.33787,15.056673 53.451132,14.550351000000001 53.585973,14.033047 53.739795,13.505986 53.909865,12.970326 54.093346,12.427143 54.287334,11.877422 54.488868000000004,11.322057000000001 54.94783,10.074437 47.103983,4.0 45.92917800000001,5.588299 45.364037,6.335345 44.796415,7.052375 44.222680000000004,7.7287360000000005 43.639797,8.354008 43.045283000000005,8.918338 42.436983000000005,9.412908 41.812454,9.830471 41.166976000000005,10.166091000000002 40.484701,10.420415 39.74954700000001,10.603461 38.96029,10.725571 38.123850000000004,10.796249 37.248389,10.826540000000001 36.342187,10.828863 35.406551,10.816603 32.7,10.816603 32.7,74.416603" stroke="#1f6fb2" stroke-width="0.1" /><text fill="#0a3d62" font-family="sans-serif" font-size="1.6" text-anchor="middle" x="46.550000000000004" y="39.2083015">01</text><polygon fill="#cfe3f7" fill-opacity="0.5" points="61.4,74.267704 69.40722,74.267704 69.001177,17.827772 73.22492199999999,5.262131 70.700661,4.0 70.004548,4.928368 69.808809,5.189983 69.612994,5.452847 69.417382,5.717166 69.222256,5.98315 69.0279,6.251011999999999 68.834603,6.520965 68.642656,6.793221 68.452355,7.067997 68.26399599999999,7.345508 68.077882,7.6259689999999996 67.894319,7.909597 67.713615,8.196606 67.536242,8.486951000000001 67.363303,8.779094 67.195078,9.070626 67.03075,9.360295 66.869275,9.647313 66.709653,9.930903 66.550927,10.210297 66.392184,10.484739000000001 66.232553,10.753489 66.071203,11.015827 65.907341,11.271062 65.740206,11.518545 65.569058,11.757678 65.39316099999999,11.987943000000001 65.210869,12.210004 65.019404,12.426846 64.81765,12.641195 64.606278,12.853889 64.386212,13.065588 64.158442,13.27698 63.924011,13.488792 63.722425,13.667704 61.4,13.667704 61.4,74.267704" stroke="#1f6fb2" stroke-width="0.1" /><text fill="#0a3d62" font-family="sans-serif" font-size="1.6" text-anchor="middle" x="67.312461" y="39.133852">09</text><polygon fill="#cfe3f7" fill-opacity="0.5" points="74.22492199999999,74.267704 82.232142,74.267704 81.826099,17.827772 86.049844,5.262131 83.525583,4.0 82.82946999999999,4.928368 82.633731,5.189983 82.43791599999999,5.452847 82.24230399999999,5.717166 82.04717799999999,5.98315 81.85282199999999,6.251011999999999 81.65952499999999,6.520965 81.46757799999999,6.793221 81.277277,7.067997 81.08891799999999,7.345508 80.90280399999999,7.6259689999999996 80.719241,7.909597 80.53853699999999,8.196606 80.36116399999999,8.486951000000001 80.18822499999999,8.779094 80.02,9.070626 79.855672,9.360295 79.69419699999999,9.647313 79.53457499999999,9.930903 79.37584899999999,10.210297 79.21710599999999,10.484739000000001 79.057475,10.753489 78.896125,11.015827 78.73226299999999,11.271062 78.56512799999999,11.518545 78.39398,11.757678 78.218083,11.987943000000001 78.03579099999999,12.210004 77.844326,12.426846 77.64257199999999,12.641195 77.43119999999999,12.853889 77.21113399999999,13.065588 76.983364,13.27698 76.748933,13.488792 76.54734699999999,13.667704 74.22492199999999,13.667704 74.22492199999999,74.267704" stroke="#1f6fb2" stroke-width="0.1" /><text fill="#0a3d62" font-family="sans-serif" font-size="1.6" text-anchor="middle" x="80.137383" y="39.133852">09</text><polygon fill="#cfe3f7" fill-opacity="0.5" points="91.653381,66.004613 117.48208499999998,66.004613 122.09458599999999,14.559622999999998 121.38824299999999,13.774989999999999 120.96743599999999,13.312847999999999 120.53796,12.851835999999999 120.09776299999999,12.395239 119.647089,11.9474 119.18816699999999,11.51006 118.721992,11.082705 118.24918399999999,10.664458 117.770352,10.254439 117.286091,9.851766999999999 116.79698599999999,9.455561 116.30361299999998,9.064943 115.806533,8.679036 115.30564,8.296466 114.798901,7.915755 114.28382099999999,7.538259 113.75926199999999,7.1668959999999995 113.22424699999999,6.804792 112.67774399999999,6.4551289999999995 112.118687,6.121163 111.545992,5.80625 110.958596,5.513857 110.355505,5.24759 109.73737399999999,5.011762 109.109293,4.809616 108.477002,4.638591 107.84275,4.494111 107.20808099999999,4.371542 106.57441399999999,4.266382 105.94309799999999,4.174272 105.31546599999999,4.0909949999999995 104.59396799999999,4.0 103.85880699999998,4.05394 103.21806099999999,4.104962 102.57349099999999,4.164405 101.926244,4.236438 101.27747099999999,4.325369 100.62836899999999,4.435643 99.98024,4.57184 99.334651,4.738636 98.69578899999999,4.939882 98.06952299999999,5.174805 97.458158,5.439152 96.8611,5.729414 96.27751799999999,6.042254 95.70652999999999,6.374447 95.14723799999999,6.722872 94.59875699999999,7.084489 94.06023599999999,7.456322999999999 93.53085999999999,7.835451 93.009041,8.2196 92.491823,8.609293000000001 91.978595,9.007759 91.471195,9.417183999999999 90.971837,9.839547 90.48279199999999,10.276864 90.006406,10.731176 89.54511799999999,11.204525 89.10147699999999,11.698924 88.678642,12.215724 88.28228899999999,12.750982 87.91251799999999,13.294198000000002 87.56331999999999,13.837394 87.049844,14.659607999999999 91.653381,66.004613" stroke="#1f6fb2" stroke-width="0.1" /><text fill="#0a3d62" font-family="sans-serif" font-size="1.6" text-anchor="middle" x="104.572215" y="35.0023065">04</text><polygon fill="#cfe3f7" fill-opacity="0.5" points="8.603537000000001,137.421216 34.432241,137.421216 39.044742,85.976226 38.338398999999995,85.191593 37.917592,84.729451 37.488116,84.268439 37.047919,83.811842 36.597245,83.364003 36.138323,82.92666299999999 35.672148,82.499308 35.19934,82.08106099999999 34.720508,81.671042 34.236247,81.26836999999999 33.747142,80.872164 33.253769,80.481546 32.756689,80.09563899999999 32.255796000000004,79.71306899999999 31.749057,79.332358 31.233977,78.95486199999999 30.709418,78.58349899999999 30.174402999999998,78.221395 29.6279,77.871732 29.068843,77.53776599999999 28.496148,77.222853 27.908752,76.93046 27.305661,76.664193 26.687530000000002,76.428365 26.059449,76.226219 25.427158,76.055194 24.792906000000002,75.910714 24.158237,75.788145 23.52457,75.68298499999999 22.893254,75.590875 22.265622,75.507598 21.544124,75.416603 20.808963,75.47054299999999 20.168217,75.521565 19.523647,75.581008 18.8764,75.653041 18.227627,75.74197199999999 17.578525,75.852246 16.930396000000002,75.98844299999999 16.284807,76.155239 15.645945000000001,76.35648499999999 15.019679,76.591408 14.408314,76.85575499999999 13.811256,77.146017 13.227674,77.458857 12.656686,77.79105 12.097394,78.13947499999999 11.548913,78.501092 11.010392,78.87292599999999 10.481016,79.252054 9.959197,79.636203 9.441979,80.02589599999999 8.928751,80.424362 8.421351,80.833787 7.9219930000000005,81.25614999999999 7.432948,81.693467 6.956562,82.147779 6.495274,82.621128 6.051633000000001,83.115527 5.628798,83.63232699999999 5.232445000000002,84.167585 4.862674000000002,84.710801 4.513476000000001,85.253997 4.0,86.076211 8.603537000000001,137.421216" stroke="#1f6fb2" stroke-width="0.1" /><text fill="#0a3d62" font-family="sans-serif" font-size="1.6" text-anchor="middle" x="21.522371" y="106.4189095">04</text><polygon fill="#cfe3f7" fill-opacity="0.5" points="90.044742,88.115291 89.58962199999999,87.428628 89.301076,86.99301299999999 89.01258899999999,86.556947 88.72411,86.120083 88.435587,85.682075 88.146968,85.24257499999999 87.858202,84.80123699999999 87.56924599999999,84.35773 87.28048799999999,83.912339 86.993721,83.466115 86.711463,83.019655 86.435824,82.57290699999999 86.168871,82.12582499999999 85.912645,81.67840799999999 85.669155,81.230696 85.440362,80.782761 85.228172,80.334699 85.034416,79.88661099999999 84.860837,79.43858499999999 84.709084,78.990659 84.580687,78.54273099999999 84.476635,78.09284299999999 84.396193,77.637062 84.337575,77.173192 84.299384,76.701167 84.248128,75.416603 65.044742,75.416603 65.044742,135.416603 90.044742,135.416603 90.044742,88.115291 40.044742,88.115291 40.499862,87.428628 40.788408000000004,86.99301299999999 41.076895,86.556947 41.365374,86.120083 41.653897,85.682075 41.942516,85.24257499999999 42.231282,84.80123699999999 42.520238,84.35773 42.808996,83.912339 43.095763,83.466115 43.378021000000004,83.019655 43.65366,82.57290699999999 43.920613,82.12582499999999 44.176839,81.67840799999999 44.420328999999995,81.230696 44.649122,80.782761 44.861312,80.334699 45.055068,79.88661099999999 45.228646999999995,79.43858499999999 45.380399999999995,78.990659 45.508797,78.54273099999999 45.612849,78.09284299999999 45.693291,77.637062 45.751909,77.173192 45.790099999999995,76.701167 45.841356000000005,75.416603 65.044742,75.416603 65.044742,135.416603 40.044742,135.416603 40.044742,88.115291" stroke="#1f6fb2" stroke-width="0.1" /><text fill="#0a3d62" font-family="sans-serif" font-size="1.6" text-anchor="middle" x="65.044742" y="105.416603">02</text><polygon fill="#cfe3f7" fill-opacity="0.5" points="91.044742,86.688508 98.044742,91.098508 105.044742,86.688508 105.044742,75.416603 91.044742,75.416603 91.044742,86.688508" stroke="#1f6fb2" stroke-width="0.1" /><text fill="#0a3d62" font-family="sans-serif" font-size="1.6" text-anchor="middle" x="98.044742" y="83.2575555">10</text><polygon fill="#cfe3f7" fill-opacity="0.5" points="106.044742,87.66573 106.074583,87.96870999999999 106.177289,88.307285 106.344074,88.61931799999999 106.568528,88.892817 106.842027,89.11727099999999 107.15406,89.28405599999999 107.49263499999999,89.38676199999999 107.795615,89.416603 129.293869,89.416603 129.596849,89.38676199999999 129.935424,89.28405599999999 130.247457,89.11727099999999 130.520956,88.892817 130.74541,88.61931799999999 130.912195,88.307285 131.014901,87.96870999999999 131.04474199999999,87.66573 131.04474199999999,77.167476 131.014901,76.86449599999999 130.912195,76.525921 130.74541,76.213888 130.520956,75.940389 130.247457,75.715935 129.935424,75.54915 129.596849,75.446444 129.293869,75.416603 107.795615,75.416603 107.49263499999999,75.446444 107.15406,75.54915 106.842027,75.715935 106.568528,75.940389 106.344074,76.213888 106.177289,76.525921 106.074583,76.86449599999999 106.044742,77.167476 106.044742,87.66573" stroke="#1f6fb2" stroke-width="0.1" /><text fill="#0a3d62" font-family="sans-serif" font-size="1.6" text-anchor="middle" x="118.544742" y="82.416603">05</text><polygon fill="#cfe3f7" fill-opacity="0.5" points="4.0,150.67034299999997 4.029841,150.973323 4.132547,151.31189799999999 4.299332,151.623931 4.523786,151.89742999999999 4.7972850000000005,152.121884 5.109318,152.288669 5.4478930000000005,152.39137499999998 5.750873,152.421216 27.249127,152.421216 27.552107,152.39137499999998 27.890682,152.288669 28.202715,152.121884 28.476214,151.89742999999999 28.700668,151.623931 28.867453,151.31189799999999 28.970159,150.973323 29.0,150.67034299999997 29.0,140.172089 28.970159,139.86910899999998 28.867453,139.530534 28.700668,139.21850099999997 28.476214,138.945002 28.202715,138.72054799999998 27.890682,138.55376299999998 27.552107,138.451057 27.249127,138.421216 5.750873,138.421216 5.4478930000000005,138.451057 5.109318,138.55376299999998 4.7972850000000005,138.72054799999998 4.523786,138.945002 4.299332,139.21850099999997 4.132547,139.530534 4.029841,139.86910899999998 4.0,140.172089 4.0,150.67034299999997" stroke="#1f6fb2" stroke-width="0.1" /><text fill="#0a3d62" font-family="sans-serif" font-size="1.6" text-anchor="middle" x="16.5" y="145.421216">05</text><polygon fill="#cfe3f7" fill-opacity="0.5" points="69.109812,149.34727999999998 69.10827,148.85959899999997 69.12286,148.36461599999998 69.152042,147.862765 69.194218,147.354512 69.247736,146.84033699999998 69.310889,146.320721 69.381927,145.796134 69.459058,145.26702799999998 69.540457,144.73383099999998 69.74864600000001,143.40010199999998 56.845692,138.421216 56.206584,138.855327 56.003755,138.991816 55.803425000000004,139.124114 55.605097,139.25141299999999 55.408291,139.372963 55.212533,139.48807499999998 55.016683,139.59649299999998 54.818733,139.69876699999998 54.617676,139.79540599999999 54.4137,139.886317 54.207108000000005,139.971355 53.998204,140.050379 53.787293000000005,140.123256 53.574684000000005,140.189857 53.360684,140.250058 53.145601,140.303744 52.929643999999996,140.350825 52.712165999999996,140.391414 52.492015,140.42600099999999 52.268762,140.455076 52.042410000000004,140.47906099999997 51.81299,140.49838899999997 51.580557,140.51350799999997 51.345178000000004,140.524882 51.106932,140.53299399999997 50.865904,140.538342 50.622182,140.54144599999998 50.375856,140.542838 50.127012,140.543073 49.874323000000004,140.54271599999998 49.874323000000004,150.54271699999998 69.157512,150.54271699999998 69.109812,149.34727999999998 30.638834,149.34727999999998 30.640376,148.85959899999997 30.625786,148.36461599999998 30.596604,147.862765 30.554428,147.354512 30.50091,146.84033699999998 30.437757,146.320721 30.366719,145.796134 30.289588000000002,145.26702799999998 30.208189,144.73383099999998 30.0,143.40010199999998 42.902954,138.421216 43.542062,138.855327 43.744890999999996,138.991816 43.945221000000004,139.124114 44.143549,139.25141299999999 44.340355,139.372963 44.536113,139.48807499999998 44.731963,139.59649299999998 44.929913,139.69876699999998 45.130970000000005,139.79540599999999 45.334946,139.886317 45.541538,139.971355 45.750442,140.050379 45.961353,140.123256 46.173962,140.189857 46.387962,140.250058 46.603045,140.303744 46.819002,140.350825 47.03648,140.391414 47.256631,140.42600099999999 47.479884,140.455076 47.706236000000004,140.47906099999997 47.935656,140.49838899999997 48.168089,140.51350799999997 48.403468000000004,140.524882 48.641714,140.53299399999997 48.882742,140.538342 49.126464,140.54144599999998 49.37279,140.542838 49.621634,140.543073 49.874323000000004,140.54271599999998 49.874323000000004,150.54271699999998 30.591134,150.54271699999998 30.638834,149.34727999999998" stroke="#1f6fb2" stroke-width="0.1" /><text fill="#0a3d62" font-family="sans-serif" font-size="1.6" text-anchor="middle" x="49.874323000000004" y="144.4819665">03</text><polygon fill="#cfe3f7" fill-opacity="0.5" points="70.74864600000001,142.07034299999998 70.770801,142.29528599999998 70.850744,142.558824 70.98056500000001,142.80170199999998 71.155275,143.01458699999998 71.36816,143.18929699999998 71.61103800000001,143.31911799999997 71.874576,143.399061 72.09951900000002,143.421216 83.397773,143.421216 83.62271600000001,143.399061 83.88625400000001,143.31911799999997 84.12913200000001,143.18929699999998 84.34201700000001,143.01458699999998 84.516727,142.80170199999998 84.64654800000001,142.558824 84.72649100000001,142.29528599999998 84.74864600000001,142.07034299999998 84.74864600000001,139.772089 84.72649100000001,139.547146 84.64654800000001,139.283608 84.516727,139.04073 84.34201700000001,138.827845 84.12913200000001,138.653135 83.88625400000001,138.523314 83.62271600000001,138.44337099999998 83.397773,138.421216 72.09951900000002,138.421216 71.874576,138.44337099999998 71.61103800000001,138.523314 71.36816,138.653135 71.155275,138.827845 70.98056500000001,139.04073 70.850744,139.283608 70.770801,139.547146 70.74864600000001,139.772089 70.74864600000001,142.07034299999998" stroke="#1f6fb2" stroke-width="0.1" /><text fill="#0a3d62" font-family="sans-serif" font-size="1.6" text-anchor="middle" x="77.74864600000001" y="140.921216">06</text><polygon fill="#cfe3f7" fill-opacity="0.5" points="85.74864600000001,142.07034299999998 85.770801,142.29528599999998 85.850744,142.558824 85.98056500000001,142.80170199999998 86.155275,143.01458699999998 86.36816,143.18929699999998 86.61103800000001,143.31911799999997 86.874576,143.399061 87.09951900000002,143.421216 98.397773,143.421216 98.62271600000001,143.399061 98.88625400000001,143.31911799999997 99.12913200000001,143.18929699999998 99.34201700000001,143.01458699999998 99.516727,142.80170199999998 99.64654800000001,142.558824 99.72649100000001,142.29528599999998 99.74864600000001,142.07034299999998 99.74864600000001,139.772089 99.72649100000001,139.547146 99.64654800000001,139.283608 99.516727,139.04073 99.34201700000001,138.827845 99.12913200000001,138.653135 98.88625400000001,138.523314 98.62271600000001,138.44337099999998 98.397773,138.421216 87.09951900000002,138.421216 86.874576,138.44337099999998 86.61103800000001,138.523314 86.36816,138.653135 86.155275,138.827845 85.98056500000001,139.04073 85.850744,139.283608 85.770801,139.547146 85.74864600000001,139.772089 85.74864600000001,142.07034299999998" stroke="#1f6fb2" stroke-width="0.1" /><text fill="#0a3d62" font-family="sans-serif" font-size="1.6" text-anchor="middle" x="92.74864600000001" y="140.921216">06</text></svg>