<?xml version="1.0" encoding="utf-8" ?>
<svg baseProfile="full" height="145.55513986457478cm" version="1.1" viewBox="0 0 158.0 145.55513986457478" width="158.0cm" xmlns="http://www.w3.org/2000/svg" xmlns:ev="http://www.w3.org/2001/xml-events" xmlns:xlink="http://www.w3.org/1999/xlink"><defs /><rect fill="#f7f3ea" height="137.55513986457478" stroke="#333" stroke-width="0.15" width="150.0" x="4.0" y="4.0" /><text fill="#000" font-family="sans-serif" font-size="1.4" x="4.0" y="3.0">PLANO DE CORTE — ancho 150 cm — largo 1.38 m</text><polygon fill="#cfe3f7" fill-opacity="0.5" points="54.0,16.698688 53.54488,16.012025 53.256333999999995,15.57641 52.967847,15.140343999999999 52.679368,14.703479999999999 52.390845,14.265471999999999 52.102226,13.825972 51.81346,13.384633999999998 51.524504,12.941127000000002 51.235746,12.495736 50.948979,12.049512 50.666720999999995,11.603052000000002 50.391082,11.156303999999999 50.124128999999996,10.709222 49.867903,10.261805 49.624413000000004,9.814093 49.39562,9.366158 49.18343,8.918096 48.989674,8.470008 48.816095000000004,8.021982 48.664342000000005,7.574056000000001 48.535945,7.126128 48.431893,6.67624 48.351451,6.220459 48.292833,5.756589 48.254642000000004,5.284564 48.203385999999995,4.0 29.0,4.0 29.0,65.5 54.0,65.5 54.0,16.698688 4.0,16.698688 4.455120000000001,16.012025 4.743666000000001,15.57641 5.032153000000001,15.140343999999999 5.320632,14.703479999999999 5.609155000000001,14.265471999999999 5.897773999999998,13.825972 6.186540000000001,13.384633999999998 6.475496,12.941127000000002 6.764254000000001,12.495736 7.051020999999999,12.049512 7.333279000000001,11.603052000000002 7.608917999999999,11.156303999999999 7.875871,10.709222 8.132097000000002,10.261805 8.375587,9.814093 8.604379999999999,9.366158 8.816569999999999,8.918096 9.010326,8.470008 9.183905,8.021982 9.335657999999999,7.574056000000001 9.464054999999998,7.126128 9.568107000000001,6.67624 9.648549,6.220459 9.707166999999998,5.756589 9.745358,5.284564 9.796614000000002,4.0 29.0,4.0 29.0,65.5 4.0,65.5 4.0,16.698688" stroke="#1f6fb2" stroke-width="0.1" /><text fill="#0a3d62" font-family="sans-serif" font-size="1.6" text-anchor="middle" x="29.0" y="34.75">02</text><polygon fill="#cfe3f7" fill-opacity="0.5" points="58.103537,66.004613 83.932241,66.004613 88.544742,14.559622999999998 87.838399,13.774989999999999 87.417592,13.312847999999999 86.98811599999999,12.851835999999999 86.54791900000001,12.395239 86.097245,11.9474 85.638323,11.51006 85.17214799999999,11.082705 84.69934,10.664458 84.220508,10.254439 83.73624699999999,9.851766999999999 83.247142,9.455561 82.753769,9.064943 82.256689,8.679036 81.755796,8.296466 81.249057,7.915755 80.733977,7.538259 80.209418,7.1668959999999995 79.674403,6.804792 79.1279,6.4551289999999995 78.568843,6.121163 77.996148,5.80625 77.40875199999999,5.513857 76.805661,5.24759 76.18753000000001,5.011762 75.559449,4.809616 74.92715799999999,4.638591 74.292906,4.494111 73.658237,4.371542 73.02457,4.266382 72.393254,4.174272 71.76562200000001,4.0909949999999995 71.044124,4.0 70.308963,4.05394 69.668217,4.104962 69.023647,4.164405 68.3764,4.236438 67.727627,4.325369 67.078525,4.435643 66.430396,4.57184 65.784807,4.738636 65.145945,4.939882 64.519679,5.174805 63.908314000000004,5.439152 63.311256,5.729414 62.727674,6.042254 62.156686,6.374447 61.597394,6.722872 61.048913,7.084489 60.510391999999996,7.456322999999999 59.981016,7.835451 59.459197,8.2196 58.941979,8.609293000000001 58.428751,9.007759 57.921351,9.417183999999999 57.421993,9.839547 56.932947999999996,10.276864 56.456562,10.731176 55.995274,11.204525 55.551633,11.698924 55.128798,12.215724 54.732445,12.750982 54.362674,13.294198000000002 54.013476,13.837394 53.5,14.659607999999999 58.103537,66.004613" stroke="#1f6fb2" stroke-width="0.1" /><text fill="#0a3d62" font-family="sans-serif" font-size="1.6" text-anchor="middle" x="71.02237099999999" y="35.0023065">04</text><polygon fill="#cfe3f7" fill-opacity="0.5" points="92.603537,66.004613 118.432241,66.004613 123.044742,14.559622999999998 122.338399,13.774989999999999 121.917592,13.312847999999999 121.48811599999999,12.851835999999999 121.04791900000001,12.395239 120.597245,11.9474 120.138323,11.51006 119.67214799999999,11.082705 119.19934,10.664458 118.720508,10.254439 118.23624699999999,9.851766999999999 117.747142,9.455561 117.253769,9.064943 116.756689,8.679036 116.255796,8.296466 115.749057,7.915755 115.233977,7.538259 114.709418,7.1668959999999995 114.174403,6.804792 113.6279,6.4551289999999995 113.068843,6.121163 112.496148,5.80625 111.90875199999999,5.513857 111.305661,5.24759 110.68753000000001,5.011762 110.059449,4.809616 109.42715799999999,4.638591 108.792906,4.494111 108.158237,4.371542 107.52457,4.266382 106.893254,4.174272 106.26562200000001,4.0909949999999995 105.544124,4.0 104.808963,4.05394 104.168217,4.104962 103.523647,4.164405 102.8764,4.236438 102.227627,4.325369 101.578525,4.435643 100.930396,4.57184 100.284807,4.738636 99.645945,4.939882 99.019679,5.174805 98.408314,5.439152 97.811256,5.729414 97.22767400000001,6.042254 96.65668600000001,6.374447 96.097394,6.722872 95.548913,7.084489 95.010392,7.456322999999999 94.481016,7.835451 93.959197,8.2196 93.441979,8.609293000000001 92.928751,9.007759 92.421351,9.417183999999999 91.921993,9.839547 91.432948,10.276864 90.956562,10.731176 90.495274,11.204525 90.051633,11.698924 89.628798,12.215724 89.232445,12.750982 88.862674,13.294198000000002 88.513476,13.837394 88.0,14.659607999999999 92.603537,66.004613" stroke="#1f6fb2" stroke-width="0.1" /><text fill="#0a3d62" font-family="sans-serif" font-size="1.6" text-anchor="middle" x="105.52237099999999" y="35.0023065">04</text><polygon fill="#cfe3f7" fill-opacity="0.5" points="122.5,75.733067 150.2,75.733067 150.2,26.857360999999997 149.600068,26.171653999999997 149.246677,25.768483 148.890684,25.363836 148.53155,24.957849 148.168433,24.550319 147.800496,24.141047999999998 147.426906,23.729844999999997 147.046843,23.316536 146.660414,22.901911 146.271075,22.488083 145.88459699999999,22.076037 145.505541,21.665301 145.138339,21.255467 144.787417,20.846346999999998 144.457145,20.437973 144.15177599999998,20.030609 143.87534,19.624724 143.631521,19.22094 143.423496,18.819888 143.253786,18.421923 143.123387,18.024288 143.0304,17.618925 142.971646,17.199514999999998 142.945508,16.764596 142.950624,16.313914 142.985548,15.847847 143.04861,15.367222 143.13787,14.873137 143.25113199999998,14.366815 143.385973,13.849511 143.539795,13.32245 143.709865,12.78679 143.893346,12.243606999999999 144.087334,11.693886 144.288868,11.138521 144.820404,9.693617 131.774689,4.0 131.104548,4.893731 130.908809,5.155346 130.712994,5.41821 130.517382,5.682529 130.322256,5.948513 130.1279,6.216374999999999 129.934603,6.486328 129.742656,6.758584 129.552355,7.03336 129.363996,7.310871 129.177882,7.5913319999999995 128.994319,7.87496 128.813615,8.161969 128.636242,8.452314000000001 128.463303,8.744457 128.295078,9.035989 128.13075,9.325658 127.969275,9.612676 127.809653,9.896266 127.650927,10.17566 127.492184,10.450102000000001 127.332553,10.718852 127.171203,10.98119 127.007341,11.236425 126.840206,11.483908 126.669058,11.723041 126.493161,11.953306000000001 126.310869,12.175367 126.119404,12.392209 125.91765,12.606558 125.706278,12.819252 125.486212,13.030951 125.258442,13.242343 125.024011,13.454155 124.822425,13.633067 122.5,13.633067 122.5,75.733067" stroke="#1f6fb2" stroke-width="0.1" /><text fill="#0a3d62" font-family="sans-serif" font-size="1.6" text-anchor="middle" x="136.35" y="39.8665335">01</text><polygon fill="#cfe3f7" fill-opacity="0.5" points="76.0,135.256968801734 103.7,135.256968801734 103.7,86.38126280173398 103.100068,85.69555580173397 102.746677,85.29238480173397 102.390684,84.88773780173398 102.03155,84.48175080173398 101.668433,84.07422080173397 101.300496,83.66494980173397 100.926906,83.25374680173397 100.546843,82.84043780173397 100.160414,82.42581280173397 99.771075,82.01198480173397 99.384597,81.59993880173397 99.005541,81.18920280173398 98.638339,80.77936880173398 98.287417,80.37024880173398 97.957145,79.96187480173398 97.651776,79.55451080173398 97.37534,79.14862580173397 97.13152099999999,78.74484180173398 96.923496,78.34378980173398 96.75378599999999,77.94582480173398 96.62338700000001,77.54818980173398 96.5304,77.14282680173397 96.47164599999999,76.72341680173398 96.445508,76.28849780173398 96.450624,75.83781580173398 96.485548,75.37174880173397 96.54861,74.89112380173398 96.63786999999999,74.39703880173397 96.751132,73.89071680173397 96.885973,73.37341280173398 97.039795,72.84635180173397 97.20986500000001,72.31069180173398 97.393346,71.76750880173398 97.587334,71.21778780173398 97.78886800000001,70.66242280173398 98.320404,69.21751880173397 85.274689,63.52390180173398 84.604548,64.41763280173397 84.408809,64.67924780173398 84.212994,64.94211180173397 84.017382,65.20643080173397 83.822256,65.47241480173398 83.6279,65.74027680173398 83.434603,66.01022980173397 83.242656,66.28248580173398 83.052355,66.55726180173397 82.863996,66.83477280173398 82.677882,67.11523380173398 82.494319,67.39886180173397 82.313615,67.68587080173398 82.136242,67.97621580173397 81.963303,68.26835880173398 81.795078,68.55989080173397 81.63075,68.84955980173397 81.469275,69.13657780173398 81.309653,69.42016780173398 81.150927,69.69956180173398 80.992184,69.97400380173397 80.832553,70.24275380173398 80.671203,70.50509180173398 80.507341,70.76032680173398 80.340206,71.00780980173398 80.169058,71.24694280173398 79.993161,71.47720780173398 79.810869,71.69926880173398 79.619404,71.91611080173398 79.41765,72.13045980173398 79.206278,72.34315380173398 78.986212,72.55485280173397 78.758442,72.76624480173398 78.524011,72.97805680173397 78.322425,73.15696880173398 76.0,73.15696880173398 76.0,135.256968801734" stroke="#1f6fb2" stroke-width="0.1" /><text fill="#0a3d62" font-family="sans-serif" font-size="1.6" text-anchor="middle" x="89.85" y="99.39043530173399">01</text><polygon fill="#cfe3f7" fill-opacity="0.5" points="46.0,134.75041186685579 54.007220000000004,134.75041186685579 53.601177,76.8104798668558 57.824922,64.2448388668558 55.300661,62.9827078668558 54.604548,63.911075866855796 54.408809,64.1726908668558 54.212994,64.4355548668558 54.017382,64.6998738668558 53.822256,64.9658578668558 53.6279,65.2337198668558 53.434603,65.5036728668558 53.242656,65.77592886685579 53.052355,66.0507048668558 52.863996,66.3282158668558 52.677882,66.6086768668558 52.494319000000004,66.8923048668558 52.313615,67.1793138668558 52.136242,67.4696588668558 51.963302999999996,67.76180186685579 51.795078000000004,68.0533338668558 51.63075,68.3430028668558 51.469274999999996,68.6300208668558 51.309653,68.91361086685579 51.150927,69.1930048668558 50.992184,69.4674468668558 50.832553000000004,69.73619686685579 50.671203,69.99853486685579 50.507341,70.2537698668558 50.340206,70.5012528668558 50.169058,70.7403858668558 49.993161,70.97065086685579 49.810869,71.1927118668558 49.619404,71.4095538668558 49.41765,71.6239028668558 49.206278,71.8365968668558 48.986212,72.0482958668558 48.758442,72.2596878668558 48.524011,72.4714998668558 48.322425,72.65041186685579 46.0,72.65041186685579 46.0,134.75041186685579" stroke="#1f6fb2" stroke-width="0.1" /><text fill="#0a3d62" font-family="sans-serif" font-size="1.6" text-anchor="middle" x="51.912461" y="98.8665598668558">09</text><polygon fill="#cfe3f7" fill-opacity="0.5" points="110.5,135.2550248668558 118.50722,135.2550248668558 118.101177,77.31509286685579 122.324922,64.7494518668558 119.800661,63.4873208668558 119.104548,64.4156888668558 118.908809,64.6773038668558 118.712994,64.9401678668558 118.517382,65.2044868668558 118.322256,65.47047086685579 118.1279,65.7383328668558 117.934603,66.0082858668558 117.742656,66.2805418668558 117.552355,66.5553178668558 117.363996,66.83282886685579 117.177882,67.1132898668558 116.994319,67.3969178668558 116.813615,67.6839268668558 116.636242,67.9742718668558 116.463303,68.2664148668558 116.295078,68.5579468668558 116.13075,68.84761586685579 115.969275,69.1346338668558 115.809653,69.4182238668558 115.650927,69.6976178668558 115.492184,69.9720598668558 115.332553,70.2408098668558 115.171203,70.5031478668558 115.007341,70.7583828668558 114.840206,71.0058658668558 114.669058,71.2449988668558 114.493161,71.4752638668558 114.310869,71.6973248668558 114.119404,71.9141668668558 113.91765,72.12851586685579 113.706278,72.34120986685579 113.486212,72.5529088668558 113.258442,72.76430086685579 113.024011,72.9761128668558 112.822425,73.1550248668558 110.5,73.1550248668558 110.5,135.2550248668558" stroke="#1f6fb2" stroke-width="0.1" /><text fill="#0a3d62" font-family="sans-serif" font-size="1.6" text-anchor="middle" x="116.41246100000001" y="99.3711728668558">09</text><polygon fill="#cfe3f7" fill-opacity="0.5" points="43.109812000000005,77.36704336571393 43.108270000000005,76.87936236571393 43.12286,76.38437936571393 43.152042,75.88252836571392 43.194218,75.37427536571393 43.247736,74.86010036571393 43.310889,74.34048436571393 43.381927000000005,73.81589736571392 43.459058,73.28679136571392 43.540457,72.75359436571392 43.748646,71.41986536571393 30.845692,66.44097936571393 30.206584,66.87509036571393 30.003755,67.01157936571393 29.803425,67.14387736571393 29.605097,67.27117636571393 29.408291,67.39272636571393 29.212533,67.50783836571392 29.016683,67.61625636571392 28.818733,67.71853036571393 28.617676,67.81516936571393 28.4137,67.90608036571393 28.207108,67.99111836571393 27.998204,68.07014236571393 27.787293000000002,68.14301936571393 27.574684,68.20962036571393 27.360684,68.26982136571392 27.145601,68.32350736571392 26.929644,68.37058836571393 26.712166,68.41117736571393 26.492015000000002,68.44576436571393 26.268762000000002,68.47483936571393 26.04241,68.49882436571393 25.81299,68.51815236571393 25.580557,68.53327136571393 25.345178,68.54464536571393 25.106932,68.55275736571393 24.865904,68.55810536571393 24.622182000000002,68.56120936571394 24.375856,68.56260136571393 24.127012,68.56283636571393 23.874323,68.56247936571393 23.874323,78.56248036571392 43.157512,78.56248036571392 43.109812000000005,77.36704336571393 4.638833999999999,77.36704336571393 4.640376,76.87936236571393 4.6257860000000015,76.38437936571393 4.596603999999999,75.88252836571392 4.5544280000000015,75.37427536571393 4.500910000000001,74.86010036571393 4.437757000000001,74.34048436571393 4.366719,73.81589736571392 4.289588000000002,73.28679136571392 4.208189000000001,72.75359436571392 4.0,71.41986536571393 16.902954,66.44097936571393 17.542062,66.87509036571393 17.744891,67.01157936571393 17.945221,67.14387736571393 18.143549,67.27117636571393 18.340355000000002,67.39272636571393 18.536113,67.50783836571392 18.731963,67.61625636571392 18.929913,67.71853036571393 19.13097,67.81516936571393 19.334946000000002,67.90608036571393 19.541538,67.99111836571393 19.750442,68.07014236571393 19.961353000000003,68.14301936571393 20.173962,68.20962036571393 20.387962,68.26982136571392 20.603045,68.32350736571392 20.819002,68.37058836571393 21.03648,68.41117736571393 21.256631,68.44576436571393 21.479884,68.47483936571393 21.706236,68.49882436571393 21.935656,68.51815236571393 22.168089000000002,68.53327136571393 22.403468,68.54464536571393 22.641714,68.55275736571393 22.882742,68.55810536571393 23.126464,68.56120936571394 23.372790000000002,68.56260136571393 23.621634,68.56283636571393 23.874323,68.56247936571393 23.874323,78.56248036571392 4.591134,78.56248036571392 4.638833999999999,77.36704336571393" stroke="#1f6fb2" stroke-width="0.1" /><text fill="#0a3d62" font-family="sans-serif" font-size="1.6" text-anchor="middle" x="23.874323" y="72.50172986571393">03</text><polygon fill="#cfe3f7" fill-opacity="0.5" points="26.655368999999997,138.21044547183885 27.146859,138.29974247183887 27.638402,138.38394547183887 28.129994999999997,138.46305347183886 28.621636,138.53706447183887 29.113321,138.60597747183886 29.605047999999996,138.66979147183886 30.096814,138.72850447183887 30.588614999999997,138.78211647183886 31.080448999999998,138.83062547183886 31.572312999999998,138.87403147183886 32.064203,138.91233247183885 32.556116,138.94552847183886 33.048049,138.97361847183885 33.539998999999995,138.99660147183886 34.031962,139.01447847183886 34.523936,139.02724747183885 35.015916,139.03490947183886 35.507898999999995,139.03746247183886 35.999882,139.03490947183886 36.491862,139.02724747183885 36.983836,139.01447847183886 37.475798999999995,138.99660147183886 37.967749,138.97361847183885 38.459682,138.94552847183886 38.951595,138.91233247183885 39.443484999999995,138.87403147183886 39.935349,138.83062547183886 40.427183,138.78211647183886 40.918983999999995,138.72850447183887 41.41075,138.66979147183886 41.902477,138.60597747183886 42.394161999999994,138.53706447183887 42.885802999999996,138.46305347183886 43.377396,138.38394547183887 43.868939,138.29974247183887 44.360428999999996,138.21044547183885 44.644778,138.15583147183887 46.6965,141.57536847183886 47.751718,141.17638547183887 45.938626,131.35546847183886 44.46481,131.65384147183886 43.993041,131.74445347183885 43.521327,131.83015647183885 43.049666,131.91095347183887 42.578055,131.98684547183885 42.106492,132.05783447183887 41.634973,132.12392147183886 41.163495999999995,132.18510747183885 40.692057999999996,132.24139447183887 40.220655,132.29278247183885 39.749285,132.33927347183885 39.277945,132.38086747183885 38.806630999999996,132.41756647183885 38.33534,132.44937047183885 37.864069,132.47628047183886 37.392815,132.49829747183887 36.921574,132.51542047183887 36.450344,132.52765147183885 35.979119999999995,132.53498947183886 35.507898999999995,132.53743647183887 35.036677999999995,132.53498947183886 34.565454,132.52765147183885 34.094224,132.51542047183887 33.622983,132.49829747183887 33.151729,132.47628047183886 32.680458,132.44937047183885 32.209166999999994,132.41756647183885 31.737852999999998,132.38086747183885 31.266512999999996,132.33927347183885 30.795143,132.29278247183885 30.323739999999997,132.24139447183887 29.852301999999998,132.18510747183885 29.380824999999998,132.12392147183886 28.909305999999997,132.05783447183887 28.437742999999998,131.98684547183885 27.966131999999998,131.91095347183887 27.494470999999997,131.83015647183885 27.022757,131.74445347183885 26.550987999999997,131.65384147183886 25.875859,131.51716247183887 25.875859,138.05773647183887 26.163933999999998,138.11605747183887 26.655368999999997,138.21044547183885 25.096349,138.21044547183885 24.604858999999998,138.29974247183887 24.113315999999998,138.38394547183887 23.621723,138.46305347183886 23.130081999999998,138.53706447183887 22.638396999999998,138.60597747183886 22.14667,138.66979147183886 21.654904,138.72850447183887 21.163103,138.78211647183886 20.671269,138.83062547183886 20.179405,138.87403147183886 19.687514999999998,138.91233247183885 19.195601999999997,138.94552847183886 18.703668999999998,138.97361847183885 18.211719,138.99660147183886 17.719755999999997,139.01447847183886 17.227781999999998,139.02724747183885 16.735802,139.03490947183886 16.243819,139.03746247183886 15.751835999999999,139.03490947183886 15.259856,139.02724747183885 14.767881999999998,139.01447847183886 14.275918999999998,138.99660147183886 13.783968999999999,138.97361847183885 13.292035999999998,138.94552847183886 12.800123,138.91233247183885 12.308232999999998,138.87403147183886 11.816368999999998,138.83062547183886 11.324535,138.78211647183886 10.832733999999999,138.72850447183887 10.340967999999998,138.66979147183886 9.849241,138.60597747183886 9.357555999999999,138.53706447183887 8.865914999999998,138.46305347183886 8.374322,138.38394547183887 7.882778999999999,138.29974247183887 7.391288999999997,138.21044547183885 7.106939999999998,138.15583147183887 5.055218,141.57536847183886 4.0,141.17638547183887 5.8130919999999975,131.35546847183886 7.286907999999997,131.65384147183886 7.758676999999999,131.74445347183885 8.230390999999997,131.83015647183885 8.702051999999998,131.91095347183887 9.173662999999998,131.98684547183885 9.645225999999997,132.05783447183887 10.116744999999998,132.12392147183886 10.588221999999998,132.18510747183885 11.05966,132.24139447183887 11.531062999999998,132.29278247183885 12.002432999999998,132.33927347183885 12.473772999999998,132.38086747183885 12.945087,132.41756647183885 13.416377999999998,132.44937047183885 13.887648999999998,132.47628047183886 14.358902999999998,132.49829747183887 14.830143999999999,132.51542047183887 15.301374,132.52765147183885 15.772597999999999,132.53498947183886 16.243819,132.53743647183887 16.71504,132.53498947183886 17.186263999999998,132.52765147183885 17.657494,132.51542047183887 18.128735,132.49829747183887 18.599988999999997,132.47628047183886 19.07126,132.44937047183885 19.542551,132.41756647183885 20.013865,132.38086747183885 20.485205,132.33927347183885 20.956574999999997,132.29278247183885 21.427978,132.24139447183887 21.899416,132.18510747183885 22.370893,132.12392147183886 22.842412,132.05783447183887 23.313975,131.98684547183885 23.785586,131.91095347183887 24.257247,131.83015647183885 24.728960999999998,131.74445347183885 25.20073,131.65384147183886 25.875859,131.51716247183887 25.875859,138.05773647183887 25.587784,138.11605747183887 25.096349,138.21044547183885" stroke="#1f6fb2" stroke-width="0.1" /><text fill="#0a3d62" font-family="sans-serif" font-size="1.6" text-anchor="middle" x="25.875859" y="136.46541847183886">07</text><polygon fill="#cfe3f7" fill-opacity="0.5" points="118.0,88.982194 118.029841,89.28517400000001 118.132547,89.623749 118.299332,89.935782 118.523786,90.209281 118.797285,90.43373500000001 119.109318,90.60052 119.447893,90.703226 119.750873,90.733067 141.249127,90.733067 141.552107,90.703226 141.890682,90.60052 142.202715,90.43373500000001 142.476214,90.209281 142.700668,89.935782 142.867453,89.623749 142.970159,89.28517400000001 143.0,88.982194 143.0,78.48394 142.970159,78.18096 142.867453,77.84238500000001 142.700668,77.53035200000001 142.476214,77.256853 142.202715,77.03239900000001 141.890682,76.86561400000001 141.552107,76.76290800000001 141.249127,76.733067 119.750873,76.733067 119.447893,76.76290800000001 119.109318,76.86561400000001 118.797285,77.03239900000001 118.523786,77.256853 118.299332,77.53035200000001 118.132547,77.84238500000001 118.029841,78.18096 118.0,78.48394 118.0,88.982194" stroke="#1f6fb2" stroke-width="0.1" /><text fill="#0a3d62" font-family="sans-serif" font-size="1.6" text-anchor="middle" x="130.5" y="83.733067">05</text><polygon fill="#cfe3f7" fill-opacity="0.5" points="118.0,103.982194 118.029841,104.28517400000001 118.132547,104.623749 118.299332,104.935782 118.523786,105.209281 118.797285,105.43373500000001 119.109318,105.60052 119.447893,105.703226 119.750873,105.733067 141.249127,105.733067 141.552107,105.703226 141.890682,105.60052 142.202715,105.43373500000001 142.476214,105.209281 142.700668,104.935782 142.867453,104.623749 142.970159,104.28517400000001 143.0,103.982194 143.0,93.48394 142.970159,93.18096 142.867453,92.84238500000001 142.700668,92.53035200000001 142.476214,92.256853 142.202715,92.03239900000001 141.890682,91.86561400000001 141.552107,91.76290800000001 141.249127,91.733067 119.750873,91.733067 119.447893,91.76290800000001 119.109318,91.86561400000001 118.797285,92.03239900000001 118.523786,92.256853 118.299332,92.53035200000001 118.132547,92.84238500000001 118.029841,93.18096 118.0,93.48394 118.0,103.982194" stroke="#1f6fb2" stroke-width="0.1" /><text fill="#0a3d62" font-family="sans-serif" font-size="1.6" text-anchor="middle" x="130.5" y="98.733067">05</text><polygon fill="#cfe3f7" fill-opacity="0.5" points="125.87618499999999,140.67529340968073 126.40772,140.74628640968075 126.939276,140.81322540968074 127.47085200000001,140.87610940968074 128.00244800000002,140.93493840968074 128.534062,140.98971240968075 129.065693,141.04043140968074 129.59734,141.08709340968073 130.129001,141.12969840968074 130.660675,141.16824740968076 131.192361,141.20273940968076 131.724058,141.23317440968074 132.255764,141.25955140968074 132.787478,141.28187140968075 133.319198,141.30013340968074 133.850924,141.31433640968075 134.382654,141.32448240968074 134.914386,141.33056940968075 135.44612,141.33259840968074 135.977854,141.33056940968075 136.509586,141.32448240968074 137.041316,141.31433640968075 137.573042,141.30013340968074 138.104762,141.28187140968075 138.63647600000002,141.25955140968074 139.168182,141.23317440968074 139.699879,141.20273940968076 140.231565,141.16824740968076 140.763239,141.12969840968074 141.29489999999998,141.08709340968073 141.826547,141.04043140968074 142.358178,140.98971240968075 142.889792,140.93493840968074 143.421388,140.87610940968074 143.952964,140.81322540968074 144.48452,140.74628640968075 145.016055,140.67529340968073 145.54756600000002,140.60024740968075 146.92816,140.39477940968075 146.92816,135.37275140968075 145.26055,135.62093540968075 144.743857,135.69388940968074 144.227188,135.76289640968074 143.71053999999998,135.82795740968075 143.193912,135.88907340968075 142.677304,135.94624440968076 142.16071399999998,135.99947040968075 141.644141,136.04875140968073 141.127584,136.09408940968075 140.611041,136.13548440968074 140.094511,136.17293540968075 139.577993,136.20644340968076 139.061486,136.23600840968075 138.544988,136.26163140968075 138.028498,136.28331140968075 137.512014,136.30104940968076 136.99553600000002,136.31484640968074 136.479062,136.32470040968076 135.96259,136.33061340968075 135.44612,136.33258440968075 134.92965,136.33061340968075 134.413178,136.32470040968076 133.896704,136.31484640968074 133.380226,136.30104940968076 132.863742,136.28331140968075 132.347252,136.26163140968075 131.830754,136.23600840968075 131.314247,136.20644340968076 130.797729,136.17293540968075 130.28119900000002,136.13548440968074 129.764656,136.09408940968075 129.248099,136.04875140968073 128.731526,135.99947040968075 128.214936,135.94624440968076 127.698328,135.88907340968075 127.1817,135.82795740968075 126.665052,135.76289640968074 126.148383,135.69388940968074 125.63168999999999,135.62093540968075 124.96408,135.52157740968076 124.96408,140.54360540968074 125.344674,140.60024740968075 125.87618499999999,140.67529340968073 124.051975,140.67529340968073 123.52044000000001,140.74628640968075 122.988884,140.81322540968074 122.457308,140.87610940968074 121.925712,140.93493840968074 121.394098,140.98971240968075 120.862467,141.04043140968074 120.33082,141.08709340968073 119.799159,141.12969840968074 119.267485,141.16824740968076 118.735799,141.20273940968076 118.204102,141.23317440968074 117.67239599999999,141.25955140968074 117.140682,141.28187140968075 116.608962,141.30013340968074 116.077236,141.31433640968075 115.545506,141.32448240968074 115.013774,141.33056940968075 114.48204,141.33259840968074 113.950306,141.33056940968075 113.418574,141.32448240968074 112.886844,141.31433640968075 112.355118,141.30013340968074 111.823398,141.28187140968075 111.291684,141.25955140968074 110.759978,141.23317440968074 110.228281,141.20273940968076 109.696595,141.16824740968076 109.16492099999999,141.12969840968074 108.63326,141.08709340968073 108.101613,141.04043140968074 107.569982,140.98971240968075 107.03836799999999,140.93493840968074 106.506772,140.87610940968074 105.975196,140.81322540968074 105.44364,140.74628640968075 104.912105,140.67529340968073 104.380594,140.60024740968075 103.0,140.39477940968075 103.0,135.37275140968075 104.66761,135.62093540968075 105.184303,135.69388940968074 105.70097200000001,135.76289640968074 106.21762,135.82795740968075 106.73424800000001,135.88907340968075 107.250856,135.94624440968076 107.767446,135.99947040968075 108.284019,136.04875140968073 108.800576,136.09408940968075 109.317119,136.13548440968074 109.833649,136.17293540968075 110.350167,136.20644340968076 110.866674,136.23600840968075 111.383172,136.26163140968075 111.899662,136.28331140968075 112.416146,136.30104940968076 112.932624,136.31484640968074 113.44909799999999,136.32470040968076 113.96557,136.33061340968075 114.48204,136.33258440968075 114.99851,136.33061340968075 115.514982,136.32470040968076 116.03145599999999,136.31484640968074 116.547934,136.30104940968076 117.064418,136.28331140968075 117.580908,136.26163140968075 118.097406,136.23600840968075 118.613913,136.20644340968076 119.130431,136.17293540968075 119.646961,136.13548440968074 120.163504,136.09408940968075 120.680061,136.04875140968073 121.196634,135.99947040968075 121.713224,135.94624440968076 122.229832,135.88907340968075 122.74646,135.82795740968075 123.263108,135.76289640968074 123.779777,135.69388940968074 124.29647,135.62093540968075 124.96408,135.52157740968076 124.96408,140.54360540968074 124.583486,140.60024740968075 124.051975,140.67529340968073" stroke="#1f6fb2" stroke-width="0.1" /><text fill="#0a3d62" font-family="sans-serif" font-size="1.6" text-anchor="middle" x="124.96408" y="138.35267490968076">08</text><polygon fill="#cfe3f7" fill-opacity="0.5" points="70.5,71.257113 63.5,66.84711300000001 56.5,71.257113 56.5,82.52901800000001 70.5,82.52901800000001 70.5,71.257113" stroke="#1f6fb2" stroke-width="0.1" /><text fill="#0a3d62" font-family="sans-serif" font-size="1.6" text-anchor="middle" x="63.5" y="74.68806550000001">10</text><polygon fill="#cfe3f7" fill-opacity="0.5" points="53.5,87.178145 53.522155,87.40308800000001 53.602098,87.66662600000001 53.731919,87.90950400000001 53.906629,88.12238900000001 54.119514,88.297099 54.362392,88.42692000000001 54.62593,88.50686300000001 54.850873,88.52901800000001 66.149127,88.52901800000001 66.37407,88.50686300000001 66.637608,88.42692000000001 66.880486,88.297099 67.093371,88.12238900000001 67.268081,87.90950400000001 67.397902,87.66662600000001 67.477845,87.40308800000001 67.5,87.178145 67.5,84.87989100000001 67.477845,84.654948 67.397902,84.39141000000001 67.268081,84.148532 67.093371,83.935647 66.880486,83.76093700000001 66.637608,83.631116 66.37407,83.551173 66.149127,83.52901800000001 54.850873,83.52901800000001 54.62593,83.551173 54.362392,83.631116 54.119514,83.76093700000001 53.906629,83.935647 53.731919,84.148532 53.602098,84.39141000000001 53.522155,84.654948 53.5,84.87989100000001 53.5,87.178145" stroke="#1f6fb2" stroke-width="0.1" /><text fill="#0a3d62" font-family="sans-serif" font-size="1.6" text-anchor="middle" x="60.5" y="86.02901800000001">06</text><polygon fill="#cfe3f7" fill-opacity="0.5" points="53.5,93.178145 53.522155,93.40308800000001 53.602098,93.66662600000001 53.731919,93.90950400000001 53.906629,94.12238900000001 54.119514,94.297099 54.362392,94.42692000000001 54.62593,94.50686300000001 54.850873,94.52901800000001 66.149127,94.52901800000001 66.37407,94.50686300000001 66.637608,94.42692000000001 66.880486,94.297099 67.093371,94.12238900000001 67.268081,93.90950400000001 67.397902,93.66662600000001 67.477845,93.40308800000001 67.5,93.178145 67.5,90.87989100000001 67.477845,90.654948 67.397902,90.39141000000001 67.268081,90.148532 67.093371,89.935647 66.880486,89.76093700000001 66.637608,89.631116 66.37407,89.551173 66.149127,89.52901800000001 54.850873,89.52901800000001 54.62593,89.551173 54.362392,89.631116 54.119514,89.76093700000001 53.906629,89.935647 53.731919,90.148532 53.602098,90.39141000000001 53.522155,90.654948 53.5,90.87989100000001 53.5,93.178145" stroke="#1f6fb2" stroke-width="0.1" /><text fill="#0a3d62" font-family="sans-serif" font-size="1.6" text-anchor="middle" x="60.5" y="92.02901800000001">06</text></svg>