<?xml version="1.0" encoding="utf-8" ?>
<svg baseProfile="full" height="231.84217199999998cm" version="1.1" viewBox="0 0 158.0 231.84217199999998" width="158.0cm" xmlns="http://www.w3.org/2000/svg" xmlns:ev="http://www.w3.org/2001/xml-events" xmlns:xlink="http://www.w3.org/1999/xlink"><defs /><rect fill="#f7f3ea" height="223.84217199999998" stroke="#333" stroke-width="0.15" width="150.0" x="4.0" y="4.0" /><text fill="#000" font-family="sans-serif" font-size="1.4" x="4.0" y="3.0">PLANO DE CORTE — ancho 150 cm — largo 2.24 m</text><polygon fill="#cfe3f7" fill-opacity="0.5" points="4.0,74.267704 12.00722,74.267704 11.601177,17.827772 15.824922,5.262131 13.300661,4.0 12.604548000000001,4.928368 12.408809,5.189983 12.212994,5.452847 12.017382000000001,5.717166 11.822256,5.98315 11.6279,6.251011999999999 11.434603,6.520965 11.242656,6.793221 11.052355,7.067997 10.863996,7.345508 10.677882,7.6259689999999996 10.494319,7.909597 10.313615,8.196606 10.136242,8.486951000000001 9.963303,8.779094 9.795078,9.070626 9.63075,9.360295 9.469275,9.647313 9.309653,9.930903 9.150927,10.210297 8.992184,10.484739000000001 8.832553,10.753489 8.671203,11.015827 8.507341,11.271062 8.340206,11.518545 8.169058,11.757678 7.993161000000001,11.987943000000001 7.810869,12.210004 7.619404,12.426846 7.41765,12.641195 7.206278,12.853889 6.986212,13.065588 6.7584420000000005,13.27698 6.524011,13.488792 6.322425,13.667704 4.0,13.667704 4.0,74.267704" stroke="#1f6fb2" stroke-width="0.1" /><text fill="#0a3d62" font-family="sans-serif" font-size="1.6" text-anchor="middle" x="9.912461" y="39.133852">09</text><polygon fill="#cfe3f7" fill-opacity="0.5" points="16.824922,74.267704 24.832142,74.267704 24.426099,17.827772 28.649844,5.262131 26.125583,4.0 25.429470000000002,4.928368 25.233731,5.189983 25.037916000000003,5.452847 24.842304000000002,5.717166 24.647178,5.98315 24.452822,6.251011999999999 24.259525,6.520965 24.067578,6.793221 23.877277,7.067997 23.688918,7.345508 23.502804,7.6259689999999996 23.319241,7.909597 23.138537,8.196606 22.961164,8.486951000000001 22.788225,8.779094 22.62,9.070626 22.455672,9.360295 22.294197,9.647313 22.134575,9.930903 21.975849,10.210297 21.817106000000003,10.484739000000001 21.657475,10.753489 21.496125,11.015827 21.332263,11.271062 21.165128000000003,11.518545 20.99398,11.757678 20.818083,11.987943000000001 20.635791,12.210004 20.444326,12.426846 20.242572000000003,12.641195 20.031200000000002,12.853889 19.811134000000003,13.065588 19.583364,13.27698 19.348933000000002,13.488792 19.147347,13.667704 16.824922,13.667704 16.824922,74.267704" stroke="#1f6fb2" stroke-width="0.1" /><text fill="#0a3d62" font-family="sans-serif" font-size="1.6" text-anchor="middle" x="22.737383" y="39.133852">09</text><polygon fill="#cfe3f7" fill-opacity="0.5" points="29.649844,74.233067 57.349844000000004,74.233067 57.349844000000004,30.177806999999998 57.742242000000005,30.699429 58.787898999999996,32.183516 59.804586,33.739025999999996 60.811348,35.346999 61.824383000000005,36.975901 62.860467,38.593613999999995 63.937614,40.16832 65.075248,41.668200999999996 66.294363,43.060738 67.617291,44.311391 69.062556,45.379078 70.62739400000001,46.229013 72.28785300000001,46.86685 74.02731700000001,47.312627 75.83364700000001,47.588375 77.69718,47.715893 79.609701,47.716083999999995 81.56359800000001,47.608869 83.551353,47.413354 85.565281,47.148058999999996 87.597425,46.831092999999996 89.63952900000001,46.480295999999996 92.506283,45.965483 92.506283,14.241893 50.971472000000006,9.257715000000001 38.924533000000004,4.0 38.254392,4.893731 38.058653,5.155346 37.862838,5.41821 37.667226,5.682529 37.472100000000005,5.948513 37.277744,6.216374999999999 37.084447000000004,6.486328 36.8925,6.758584 36.702199,7.03336 36.51384,7.310871 36.327726,7.5913319999999995 36.144163000000006,7.87496 35.963459,8.161969 35.786086000000005,8.452314000000001 35.613147,8.744457 35.444922000000005,9.035989 35.280594,9.325658 35.119119,9.612676 34.959497,9.896266 34.800771000000005,10.17566 34.642028,10.450102000000001 34.482397000000006,10.718852 34.321047,10.98119 34.157185,11.236425 33.990050000000004,11.483908 33.818902,11.723041 33.643005,11.953306000000001 33.460713,12.175367 33.269248000000005,12.392209 33.067494,12.606558 32.856122,12.819252 32.636056,13.030951 32.408286000000004,13.242343 32.173855,13.454155 31.972269,13.633067 29.649844,13.633067 29.649844,74.233067" stroke="#1f6fb2" stroke-width="0.1" /><text fill="#0a3d62" font-family="sans-serif" font-size="1.6" text-anchor="middle" x="61.0780635" y="39.1165335">01</text><polygon fill="#cfe3f7" fill-opacity="0.5" points="4.0,145.500771 31.7,145.500771 31.7,101.445511 32.092398,101.96713299999999 33.138054999999994,103.45121999999999 34.154742,105.00672999999999 35.161504,106.61470299999999 36.174539,108.243605 37.210623,109.86131799999998 38.28777,111.436024 39.425404,112.93590499999999 40.644519,114.328442 41.967447,115.579095 43.412712000000006,116.646782 44.97755,117.49671699999999 46.638009000000004,118.134554 48.377473,118.580331 50.183803000000005,118.856079 52.047336,118.983597 53.959857,118.98378799999999 55.913754000000004,118.876573 57.901509000000004,118.681058 59.915437000000004,118.415763 61.947581,118.09879699999999 63.989685,117.74799999999999 66.856439,117.23318699999999 66.856439,85.509597 25.321628,80.525419 13.274689,75.267704 12.604548000000001,76.161435 12.408809,76.42304999999999 12.212994,76.685914 12.017382000000001,76.950233 11.822256,77.216217 11.6279,77.484079 11.434603,77.754032 11.242656,78.026288 11.052355,78.301064 10.863996,78.578575 10.677882,78.85903599999999 10.494319,79.142664 10.313615,79.429673 10.136242,79.720018 9.963303,80.01216099999999 9.795078,80.303693 9.63075,80.593362 9.469275,80.88038 9.309653,81.16396999999999 9.150927,81.44336399999999 8.992184,81.717806 8.832553,81.986556 8.671203,82.24889399999999 8.507341,82.50412899999999 8.340206,82.751612 8.169058,82.99074499999999 7.993161000000001,83.22100999999999 7.810869,83.44307099999999 7.619404,83.65991299999999 7.41765,83.87426199999999 7.206278,84.086956 6.986212,84.298655 6.7584420000000005,84.510047 6.524011,84.721859 6.322425,84.90077099999999 4.0,84.90077099999999 4.0,145.500771" stroke="#1f6fb2" stroke-width="0.1" /><text fill="#0a3d62" font-family="sans-serif" font-size="1.6" text-anchor="middle" x="35.4282195" y="110.3842375">01</text><polygon fill="#cfe3f7" fill-opacity="0.5" points="89.561904,172.566951 89.973216,173.11408799999998 91.027723,174.61411199999998 92.053579,176.18801399999998 93.07019199999999,177.81506 94.094004,179.462134 95.142154,181.095646 96.2331,182.682337 97.38682,184.188934 98.62500399999999,185.581371 99.970722,186.823243 101.441798,187.870557 103.032088,188.690777 104.716747,189.29254899999998 106.479443,189.697069 108.308151,189.927202 110.193434,190.00543699999997 112.127295,189.953243 114.1023,189.79103199999997 116.111052,189.53837599999997 118.145948,189.21424299999998 120.199082,188.837203 122.262228,188.425559 125.123808,187.83218599999998 125.123808,156.13109799999998 83.567128,151.144296 71.533273,146.500771 70.894165,146.934882 70.69133599999999,147.071371 70.491006,147.203669 70.292678,147.33096799999998 70.095872,147.452518 69.900114,147.56762999999998 69.704264,147.67604799999998 69.506314,147.77832199999997 69.305257,147.87496099999998 69.101281,147.965872 68.894689,148.05091 68.685785,148.129934 68.474874,148.202811 68.262265,148.269412 68.048265,148.329613 67.833182,148.383299 67.61722499999999,148.43037999999999 67.39974699999999,148.470969 67.179596,148.50555599999998 66.956343,148.534631 66.729991,148.55861599999997 66.50057100000001,148.57794399999997 66.268138,148.59306299999997 66.032759,148.604437 65.794513,148.61254899999997 65.553485,148.617897 65.309763,148.62100099999998 65.063437,148.622393 64.814593,148.622628 64.561904,148.62227099999998 64.561904,216.62227199999998 89.561904,216.62227199999998 89.561904,172.566951 39.561904,172.566951 39.150592,173.11408799999998 38.096085,174.61411199999998 37.070229,176.18801399999998 36.053616,177.81506 35.029804,179.462134 33.981654,181.095646 32.890708000000004,182.682337 31.736987999999997,184.188934 30.498804,185.581371 29.153086000000002,186.823243 27.68201,187.870557 26.091719999999995,188.690777 24.407061,189.29254899999998 22.644365,189.697069 20.815657,189.927202 18.930374,190.00543699999997 16.996513,189.953243 15.021507999999997,189.79103199999997 13.012755999999996,189.53837599999997 10.97786,189.21424299999998 8.924726,188.837203 6.8615799999999965,188.425559 4.0,187.83218599999998 4.0,156.13109799999998 45.55668,151.144296 57.590534999999996,146.500771 58.229642999999996,146.934882 58.432472,147.071371 58.632802,147.203669 58.83113,147.33096799999998 59.027936,147.452518 59.223693999999995,147.56762999999998 59.419544,147.67604799999998 59.617494,147.77832199999997 59.818551,147.87496099999998 60.022527,147.965872 60.229119,148.05091 60.438023,148.129934 60.648934,148.202811 60.861543,148.269412 61.075542999999996,148.329613 61.290625999999996,148.383299 61.506583,148.43037999999999 61.724061,148.470969 61.944212,148.50555599999998 62.167465,148.534631 62.393817,148.55861599999997 62.623236999999996,148.57794399999997 62.855669999999996,148.59306299999997 63.091049,148.604437 63.329295,148.61254899999997 63.570323,148.617897 63.814045,148.62100099999998 64.060371,148.622393 64.309215,148.622628 64.561904,148.62227099999998 64.561904,216.62227199999998 39.561904,216.62227199999998 39.561904,172.566951" stroke="#1f6fb2" stroke-width="0.1" /><text fill="#0a3d62" font-family="sans-serif" font-size="1.6" text-anchor="middle" x="64.561904" y="181.56152149999997">02</text><polygon fill="#cfe3f7" fill-opacity="0.5" points="126.123808,157.772676 133.123808,162.182676 140.123808,157.772676 140.123808,146.500771 126.123808,146.500771 126.123808,157.772676" stroke="#1f6fb2" stroke-width="0.1" /><text fill="#0a3d62" font-family="sans-serif" font-size="1.6" text-anchor="middle" x="133.123808" y="154.3417235">10</text><polygon fill="#cfe3f7" fill-opacity="0.5" points="26.655368999999997,224.47724899999997 27.146859,224.566546 27.638402,224.650749 28.129994999999997,224.72985699999998 28.621636,224.803868 29.113321,224.87278099999997 29.605047999999996,224.93659499999998 30.096814,224.995308 30.588614999999997,225.04891999999998 31.080448999999998,225.09742899999998 31.572312999999998,225.14083499999998 32.064203,225.17913599999997 32.556116,225.21233199999998 33.048049,225.24042199999997 33.539998999999995,225.26340499999998 34.031962,225.28128199999998 34.523936,225.29405099999997 35.015916,225.30171299999998 35.507898999999995,225.30426599999998 35.999882,225.30171299999998 36.491862,225.29405099999997 36.983836,225.28128199999998 37.475798999999995,225.26340499999998 37.967749,225.24042199999997 38.459682,225.21233199999998 38.951595,225.17913599999997 39.443484999999995,225.14083499999998 39.935349,225.09742899999998 40.427183,225.04891999999998 40.918983999999995,224.995308 41.41075,224.93659499999998 41.902477,224.87278099999997 42.394161999999994,224.803868 42.885802999999996,224.72985699999998 43.377396,224.650749 43.868939,224.566546 44.360428999999996,224.47724899999997 44.644778,224.42263499999999 46.6965,227.84217199999998 47.751718,227.443189 45.938626,217.62227199999998 44.46481,217.92064499999998 43.993041,218.01125699999997 43.521327,218.09695999999997 43.049666,218.17775699999999 42.578055,218.25364899999997 42.106492,218.324638 41.634973,218.39072499999997 41.163495999999995,218.45191099999997 40.692057999999996,218.508198 40.220655,218.55958599999997 39.749285,218.60607699999997 39.277945,218.64767099999997 38.806630999999996,218.68436999999997 38.33534,218.71617399999997 37.864069,218.74308399999998 37.392815,218.765101 36.921574,218.78222399999999 36.450344,218.79445499999997 35.979119999999995,218.80179299999998 35.507898999999995,218.80424 35.036677999999995,218.80179299999998 34.565454,218.79445499999997 34.094224,218.78222399999999 33.622983,218.765101 33.151729,218.74308399999998 32.680458,218.71617399999997 32.209166999999994,218.68436999999997 31.737852999999998,218.64767099999997 31.266512999999996,218.60607699999997 30.795143,218.55958599999997 30.323739999999997,218.508198 29.852301999999998,218.45191099999997 29.380824999999998,218.39072499999997 28.909305999999997,218.324638 28.437742999999998,218.25364899999997 27.966131999999998,218.17775699999999 27.494470999999997,218.09695999999997 27.022757,218.01125699999997 26.550987999999997,217.92064499999998 25.875859,217.783966 25.875859,224.32453999999998 26.163933999999998,224.382861 26.655368999999997,224.47724899999997 25.096349,224.47724899999997 24.604858999999998,224.566546 24.113315999999998,224.650749 23.621723,224.72985699999998 23.130081999999998,224.803868 22.638396999999998,224.87278099999997 22.14667,224.93659499999998 21.654904,224.995308 21.163103,225.04891999999998 20.671269,225.09742899999998 20.179405,225.14083499999998 19.687514999999998,225.17913599999997 19.195601999999997,225.21233199999998 18.703668999999998,225.24042199999997 18.211719,225.26340499999998 17.719755999999997,225.28128199999998 17.227781999999998,225.29405099999997 16.735802,225.30171299999998 16.243819,225.30426599999998 15.751835999999999,225.30171299999998 15.259856,225.29405099999997 14.767881999999998,225.28128199999998 14.275918999999998,225.26340499999998 13.783968999999999,225.24042199999997 13.292035999999998,225.21233199999998 12.800123,225.17913599999997 12.308232999999998,225.14083499999998 11.816368999999998,225.09742899999998 11.324535,225.04891999999998 10.832733999999999,224.995308 10.340967999999998,224.93659499999998 9.849241,224.87278099999997 9.357555999999999,224.803868 8.865914999999998,224.72985699999998 8.374322,224.650749 7.882778999999999,224.566546 7.391288999999997,224.47724899999997 7.106939999999998,224.42263499999999 5.055218,227.84217199999998 4.0,227.443189 5.8130919999999975,217.62227199999998 7.286907999999997,217.92064499999998 7.758676999999999,218.01125699999997 8.230390999999997,218.09695999999997 8.702051999999998,218.17775699999999 9.173662999999998,218.25364899999997 9.645225999999997,218.324638 10.116744999999998,218.39072499999997 10.588221999999998,218.45191099999997 11.05966,218.508198 11.531062999999998,218.55958599999997 12.002432999999998,218.60607699999997 12.473772999999998,218.64767099999997 12.945087,218.68436999999997 13.416377999999998,218.71617399999997 13.887648999999998,218.74308399999998 14.358902999999998,218.765101 14.830143999999999,218.78222399999999 15.301374,218.79445499999997 15.772597999999999,218.80179299999998 16.243819,218.80424 16.71504,218.80179299999998 17.186263999999998,218.79445499999997 17.657494,218.78222399999999 18.128735,218.765101 18.599988999999997,218.74308399999998 19.07126,218.71617399999997 19.542551,218.68436999999997 20.013865,218.64767099999997 20.485205,218.60607699999997 20.956574999999997,218.55958599999997 21.427978,218.508198 21.899416,218.45191099999997 22.370893,218.39072499999997 22.842412,218.324638 23.313975,218.25364899999997 23.785586,218.17775699999999 24.257247,218.09695999999997 24.728960999999998,218.01125699999997 25.20073,217.92064499999998 25.875859,217.783966 25.875859,224.32453999999998 25.587784,224.382861 25.096349,224.47724899999997" stroke="#1f6fb2" stroke-width="0.1" /><text fill="#0a3d62" font-family="sans-serif" font-size="1.6" text-anchor="middle" x="25.875859" y="222.73222199999998">07</text><polygon fill="#cfe3f7" fill-opacity="0.5" points="71.627903,222.92481399999997 72.159438,222.99580699999999 72.69099399999999,223.06274599999998 73.22256999999999,223.12562999999997 73.754166,223.18445899999998 74.28577999999999,223.23923299999998 74.81741099999999,223.28995199999997 75.349058,223.33661399999997 75.880719,223.37921899999998 76.412393,223.41776799999997 76.94407899999999,223.45225999999997 77.475776,223.48269499999998 78.007482,223.50907199999997 78.539196,223.53139199999998 79.070916,223.54965399999998 79.602642,223.56385699999998 80.134372,223.57400299999998 80.66610399999999,223.58008999999998 81.19783799999999,223.58211899999998 81.72957199999999,223.58008999999998 82.261304,223.57400299999998 82.79303399999999,223.56385699999998 83.32476,223.54965399999998 83.85648,223.53139199999998 84.388194,223.50907199999997 84.9199,223.48269499999998 85.45159699999999,223.45225999999997 85.983283,223.41776799999997 86.514957,223.37921899999998 87.046618,223.33661399999997 87.57826499999999,223.28995199999997 88.10989599999999,223.23923299999998 88.64151,223.18445899999998 89.17310599999999,223.12562999999997 89.70468199999999,223.06274599999998 90.236238,222.99580699999999 90.76777299999999,222.92481399999997 91.299284,222.84976799999998 92.679878,222.6443 92.679878,217.62227199999998 91.01226799999999,217.870456 90.495575,217.94340999999997 89.978906,218.01241699999997 89.46225799999999,218.07747799999999 88.94563,218.13859399999998 88.429022,218.195765 87.912432,218.248991 87.395859,218.29827199999997 86.879302,218.34360999999998 86.362759,218.38500499999998 85.846229,218.42245599999998 85.329711,218.455964 84.813204,218.48552899999999 84.296706,218.51115199999998 83.780216,218.53283199999998 83.263732,218.55057 82.747254,218.56436699999998 82.23078,218.574221 81.71430799999999,218.580134 81.19783799999999,218.58210499999998 80.68136799999999,218.580134 80.164896,218.574221 79.648422,218.56436699999998 79.131944,218.55057 78.61546,218.53283199999998 78.09897,218.51115199999998 77.582472,218.48552899999999 77.06596499999999,218.455964 76.549447,218.42245599999998 76.032917,218.38500499999998 75.516374,218.34360999999998 74.999817,218.29827199999997 74.483244,218.248991 73.96665399999999,218.195765 73.450046,218.13859399999998 72.93341799999999,218.07747799999999 72.41677,218.01241699999997 71.90010099999999,217.94340999999997 71.383408,217.870456 70.71579799999999,217.771098 70.71579799999999,222.79312599999997 71.096392,222.84976799999998 71.627903,222.92481399999997 69.803693,222.92481399999997 69.27215799999999,222.99580699999999 68.740602,223.06274599999998 68.209026,223.12562999999997 67.67742999999999,223.18445899999998 67.145816,223.23923299999998 66.61418499999999,223.28995199999997 66.082538,223.33661399999997 65.550877,223.37921899999998 65.019203,223.41776799999997 64.487517,223.45225999999997 63.955819999999996,223.48269499999998 63.424113999999996,223.50907199999997 62.892399999999995,223.53139199999998 62.360679999999995,223.54965399999998 61.828953999999996,223.56385699999998 61.297224,223.57400299999998 60.765491999999995,223.58008999999998 60.233757999999995,223.58211899999998 59.702023999999994,223.58008999999998 59.170291999999996,223.57400299999998 58.63856199999999,223.56385699999998 58.106835999999994,223.54965399999998 57.575115999999994,223.53139199999998 57.04340199999999,223.50907199999997 56.51169599999999,223.48269499999998 55.97999899999999,223.45225999999997 55.448313,223.41776799999997 54.916638999999996,223.37921899999998 54.384978,223.33661399999997 53.853331,223.28995199999997 53.32169999999999,223.23923299999998 52.790085999999995,223.18445899999998 52.258489999999995,223.12562999999997 51.726913999999994,223.06274599999998 51.195358,222.99580699999999 50.663822999999994,222.92481399999997 50.132312,222.84976799999998 48.751718,222.6443 48.751718,217.62227199999998 50.41932799999999,217.870456 50.936021,217.94340999999997 51.45269,218.01241699999997 51.96933799999999,218.07747799999999 52.485966,218.13859399999998 53.002573999999996,218.195765 53.519163999999996,218.248991 54.035737,218.29827199999997 54.552293999999996,218.34360999999998 55.068836999999995,218.38500499999998 55.585367,218.42245599999998 56.101884999999996,218.455964 56.618392,218.48552899999999 57.13489,218.51115199999998 57.651379999999996,218.53283199999998 58.167863999999994,218.55057 58.684341999999994,218.56436699999998 59.200815999999996,218.574221 59.717287999999996,218.580134 60.233757999999995,218.58210499999998 60.75022799999999,218.580134 61.2667,218.574221 61.783173999999995,218.56436699999998 62.299651999999995,218.55057 62.816136,218.53283199999998 63.332626,218.51115199999998 63.849123999999996,218.48552899999999 64.365631,218.455964 64.882149,218.42245599999998 65.39867899999999,218.38500499999998 65.915222,218.34360999999998 66.43177899999999,218.29827199999997 66.948352,218.248991 67.464942,218.195765 67.98155,218.13859399999998 68.498178,218.07747799999999 69.014826,218.01241699999997 69.53149499999999,217.94340999999997 70.048188,217.870456 70.71579799999999,217.771098 70.71579799999999,222.79312599999997 70.335204,222.84976799999998 69.803693,222.92481399999997" stroke="#1f6fb2" stroke-width="0.1" /><text fill="#0a3d62" font-family="sans-serif" font-size="1.6" text-anchor="middle" x="70.71579799999999" y="220.6021955">08</text></svg>