<?xml version="1.0" encoding="utf-8" ?>
<svg baseProfile="full" height="206.233067cm" version="1.1" viewBox="0 0 151.4806672311272 206.233067" width="151.4806672311272cm" xmlns="http://www.w3.org/2000/svg" xmlns:ev="http://www.w3.org/2001/xml-events" xmlns:xlink="http://www.w3.org/1999/xlink"><defs /><g fill="none" id="CONSTRUCCION" stroke="#888888" stroke-width="0.08"><line x1="5.7" x2="5.7" y1="13.633067" y2="72.233067" /><line x1="135.07679184148637" x2="135.07679184148637" y1="64.233067" y2="52.233067" /><line x1="4.0" x2="27.0" y1="112.233067" y2="112.233067" /><line x1="120.0281600046624" x2="132.0281600046624" y1="113.453067" y2="113.453067" /></g><g fill="none" id="CORTE" stroke="#d00000" stroke-width="0.08"><polygon points="3.0,101.233067 42.875225,101.233067 30.641248,25.790208999999997 30.100068,25.171653999999997 29.746677,24.768483 29.390684,24.363836 29.03155,23.957849 28.668433,23.550319 28.300496,23.141047999999998 27.926906,22.729844999999997 27.546843,22.316536 27.160414,21.901911 26.771075,21.488083 26.384597,21.076037 26.005541,20.665301 25.638339,20.255467 25.287416999999998,19.846346999999998 24.957145,19.437973 24.651775999999998,19.030609 24.375339999999998,18.624724 24.131521,18.22094 23.923496,17.819888 23.753785999999998,17.421923 23.623387,17.024288 23.5304,16.618925 23.471646,16.199514999999998 23.445508,15.764596000000001 23.450623999999998,15.313914 23.485547999999998,14.847847 23.54861,14.367222 23.63787,13.873137 23.751132,13.366815 23.885973,12.849511 24.039794999999998,12.32245 24.209865,11.78679 24.393345999999998,11.243606999999999 24.587334,10.693886 24.788868,10.138521 25.320404,8.693617 12.274689,3.0 11.604548000000001,3.893731 11.408809,4.155346 11.212994,4.41821 11.017382000000001,4.682529 10.822256,4.948513 10.6279,5.216374999999999 10.434603,5.486328 10.242656,5.758584 10.052355,6.03336 9.863996,6.310871 9.677882,6.5913319999999995 9.494319,6.87496 9.313614999999999,7.161969 9.136242,7.452314 8.963303,7.744457 8.795078,8.035989 8.630749999999999,8.325658 8.469275,8.612676 8.309653,8.896266 8.150927,9.17566 7.992184,9.450102000000001 7.832553,9.718852 7.671203,9.98119 7.507341,10.236425 7.340206,10.483908 7.169058,10.723041 6.993161,10.953306000000001 6.810869,11.175367 6.619404,11.392209 6.41765,11.606558 6.206278,11.819252 5.986212,12.030951 5.7584420000000005,12.242343 5.524011,12.454155 5.322425,12.633067 3.0,12.633067 3.0,101.233067" /><polygon points="72.652606,15.860249000000001 72.24488,15.245092000000001 71.956334,14.809477 71.667847,14.373410999999999 71.379368,13.936547 71.090845,13.498539 70.802226,13.059039 70.51346000000001,12.617700999999999 70.224504,12.174194000000002 69.935746,11.728803000000001 69.648979,11.282579 69.366721,10.836119000000002 69.091082,10.389370999999999 68.824129,9.942289 68.567903,9.494872 68.324413,9.04716 68.09562,8.599225 67.88343,8.151163 67.68967400000001,7.703075 67.516095,7.255049 67.36434200000001,6.807123000000001 67.235945,6.359195 67.131893,5.909307 67.051451,5.453526 66.992833,4.989656 66.954642,4.517631 66.903386,3.233067 47.7,3.233067 47.7,91.233067 84.875225,91.233067 72.652606,15.860249000000001" /><polygon points="108.935489,14.03763 108.933947,13.549949 108.948537,13.054966 108.97771900000001,12.553115 109.019895,12.044862 109.073413,11.530687 109.136566,11.011071 109.207604,10.486484 109.284735,9.957378 109.366134,9.424181 109.574323,8.090451999999999 96.671369,3.111566 96.032261,3.545677 95.829432,3.682166 95.629102,3.814464 95.430774,3.941763 95.233968,4.063313 95.03821,4.178425 94.84236,4.286843 94.64441000000001,4.389117 94.443353,4.485756 94.239377,4.5766670000000005 94.032785,4.6617049999999995 93.823881,4.740729 93.61297,4.813606 93.400361,4.880207 93.186361,4.940408 92.971278,4.9940940000000005 92.75532100000001,5.041175 92.53784300000001,5.081764 92.31769200000001,5.116351 92.09443900000001,5.1454260000000005 91.868087,5.169411 91.638667,5.188739 91.406234,5.203858 91.170855,5.215232 90.932609,5.223344 90.691581,5.228692 90.44785900000001,5.231796 90.201533,5.233188 89.952689,5.233423 89.7,5.233066 89.7,15.233067 108.98318900000001,15.233067 108.935489,14.03763" /><polygon points="118.03946223112722,65.233067 143.86816623112722,65.233067 148.4806672311272,13.788077 147.7743242311272,13.003444 147.3535172311272,12.541302 146.9240412311272,12.08029 146.48384423112722,11.623693 146.0331702311272,11.175854 145.5742482311272,10.738514 145.1080732311272,10.311159 144.63526523112722,9.892911999999999 144.1564332311272,9.482893 143.6721722311272,9.080221 143.1830672311272,8.684015 142.68969423112722,8.293397 142.1926142311272,7.90749 141.69172123112722,7.52492 141.1849822311272,7.144209 140.6699022311272,6.766713 140.1453432311272,6.39535 139.6103282311272,6.033246 139.06382523112723,5.683583 138.5047682311272,5.349617 137.93207323112722,5.034704 137.3446772311272,4.742311 136.7415862311272,4.476044 136.12345523112722,4.240216 135.49537423112722,4.038069999999999 134.8630832311272,3.867045 134.2288312311272,3.722565 133.5941622311272,3.599996 132.9604952311272,3.494836 132.3291792311272,3.402726 131.70154723112722,3.3194489999999996 130.98004923112723,3.228454 130.24488823112722,3.282394 129.6041422311272,3.3334159999999997 128.9595722311272,3.392859 128.3123252311272,3.464892 127.66355223112721,3.553823 127.01445023112721,3.664097 126.36632123112722,3.800294 125.72073223112722,3.96709 125.08187023112721,4.168336 124.45560423112721,4.403259 123.8442392311272,4.667606 123.24718123112721,4.9578679999999995 122.66359923112721,5.270708 122.09261123112721,5.602901 121.53331923112721,5.951326 120.98483823112721,6.312943 120.44631723112721,6.6847769999999995 119.91694123112721,7.063905 119.3951222311272,7.448054 118.87790423112722,7.837747 118.3646762311272,8.236213 117.85727623112722,8.645638 117.35791823112721,9.068000999999999 116.86887323112721,9.505317999999999 116.3924872311272,9.95963 115.93119923112721,10.432979 115.48755823112721,10.927378000000001 115.0647232311272,11.444177999999999 114.66837023112721,11.979436 114.29859923112721,12.522652 113.94940123112721,13.065848 113.43592523112721,13.888062 118.03946223112722,65.233067" /><polygon points="3.0,117.482194 3.0298410000000002,117.78517400000001 3.132547,118.123749 3.299332,118.435782 3.5237860000000003,118.709281 3.7972850000000005,118.93373500000001 4.109318,119.10052 4.4478930000000005,119.203226 4.750873,119.233067 26.249127,119.233067 26.552107,119.203226 26.890682,119.10052 27.202715,118.93373500000001 27.476214,118.709281 27.700668,118.435782 27.867453,118.123749 27.970159,117.78517400000001 28.0,117.482194 28.0,106.98394 27.970159,106.68096 27.867453,106.34238500000001 27.700668,106.03035200000001 27.476214,105.756853 27.202715,105.53239900000001 26.890682,105.36561400000001 26.552107,105.26290800000001 26.249127,105.233067 4.750873,105.233067 4.4478930000000005,105.26290800000001 4.109318,105.36561400000001 3.7972850000000005,105.53239900000001 3.5237860000000003,105.756853 3.299332,106.03035200000001 3.132547,106.34238500000001 3.0298410000000002,106.68096 3.0,106.98394 3.0,117.482194" /><polygon points="32.0,108.882194 32.022155,109.10713700000001 32.102098,109.370675 32.231919000000005,109.61355300000001 32.406628999999995,109.82643800000001 32.619513999999995,110.001148 32.862392,110.13096900000001 33.12593,110.21091200000001 33.350873,110.233067 44.649127,110.233067 44.87407,110.21091200000001 45.137608,110.13096900000001 45.380486,110.001148 45.593371,109.82643800000001 45.768081,109.61355300000001 45.897902,109.370675 45.977845,109.10713700000001 46.0,108.882194 46.0,106.58394000000001 45.977845,106.358997 45.897902,106.095459 45.768081,105.852581 45.593371,105.639696 45.380486,105.46498600000001 45.137608,105.335165 44.87407,105.255222 44.649127,105.233067 33.350873,105.233067 33.12593,105.255222 32.862392,105.335165 32.619513999999995,105.46498600000001 32.406628999999995,105.639696 32.231919000000005,105.852581 32.102098,106.095459 32.022155,106.358997 32.0,106.58394000000001 32.0,108.882194" /><polygon points="51.77951,111.906063 52.271,111.99536 52.762543,112.07956300000001 53.254136,112.158671 53.745777,112.23268200000001 54.237462,112.301595 54.729189,112.365409 55.220955000000004,112.42412200000001 55.712756,112.477734 56.204589999999996,112.52624300000001 56.696454,112.569649 57.188344,112.60795 57.680257,112.641146 58.17219,112.66923600000001 58.66414,112.69221900000001 59.156103,112.71009600000001 59.648077,112.72286500000001 60.140057,112.73052700000001 60.63204,112.73308 61.124023,112.73052700000001 61.616003,112.72286500000001 62.107977,112.71009600000001 62.599940000000004,112.69221900000001 63.09189,112.66923600000001 63.583823,112.641146 64.075736,112.60795 64.567626,112.569649 65.05949,112.52624300000001 65.551324,112.477734 66.043125,112.42412200000001 66.534891,112.365409 67.026618,112.301595 67.518303,112.23268200000001 68.009944,112.158671 68.501537,112.07956300000001 68.99307999999999,111.99536 69.48457,111.906063 69.768919,111.851449 71.820641,115.27098600000001 72.87585899999999,114.872003 71.06276700000001,105.05108600000001 69.58895100000001,105.34945900000001 69.117182,105.440071 68.645468,105.52577400000001 68.173807,105.606571 67.702196,105.682463 67.230633,105.75345200000001 66.759114,105.819539 66.287637,105.88072500000001 65.816199,105.93701200000001 65.344796,105.9884 64.873426,106.034891 64.402086,106.076485 63.930772,106.113184 63.459481,106.14498800000001 62.98821,106.171898 62.516956,106.193915 62.045715,106.211038 61.574484999999996,106.223269 61.103261,106.230607 60.63204,106.23305400000001 60.160819000000004,106.230607 59.689595,106.223269 59.218365,106.211038 58.747124,106.193915 58.27587,106.171898 57.804598999999996,106.14498800000001 57.333308,106.113184 56.861994,106.076485 56.390654,106.034891 55.919284,105.9884 55.447881,105.93701200000001 54.976443,105.88072500000001 54.504966,105.819539 54.033447,105.75345200000001 53.561884,105.682463 53.090272999999996,105.606571 52.618612,105.52577400000001 52.146898,105.440071 51.675129,105.34945900000001 51.0,105.21278000000001 51.0,111.753354 51.288075,111.81167500000001 51.77951,111.906063" /><polygon points="78.3761850023312,110.375769 78.9077200023312,110.446762 79.4392760023312,110.51370100000001 79.9708520023312,110.57658500000001 80.5024480023312,110.63541400000001 81.0340620023312,110.690188 81.5656930023312,110.740907 82.09734000233121,110.787569 82.6290010023312,110.830174 83.1606750023312,110.868723 83.6923610023312,110.903215 84.2240580023312,110.93365 84.7557640023312,110.96002700000001 85.2874780023312,110.982347 85.8191980023312,111.00060900000001 86.3509240023312,111.014812 86.88265400233121,111.024958 87.4143860023312,111.031045 87.9461200023312,111.033074 88.4778540023312,111.031045 89.0095860023312,111.024958 89.5413160023312,111.014812 90.0730420023312,111.00060900000001 90.6047620023312,110.982347 91.13647600233121,110.96002700000001 91.6681820023312,110.93365 92.1998790023312,110.903215 92.7315650023312,110.868723 93.2632390023312,110.830174 93.7949000023312,110.787569 94.3265470023312,110.740907 94.8581780023312,110.690188 95.3897920023312,110.63541400000001 95.9213880023312,110.57658500000001 96.4529640023312,110.51370100000001 96.98452000233121,110.446762 97.5160550023312,110.375769 98.0475660023312,110.300723 99.4281600023312,110.09525500000001 99.4281600023312,105.073227 97.7605500023312,105.32141100000001 97.2438570023312,105.39436500000001 96.7271880023312,105.463372 96.2105400023312,105.528433 95.6939120023312,105.589549 95.1773040023312,105.64672 94.6607140023312,105.69994600000001 94.1441410023312,105.749227 93.6275840023312,105.794565 93.1110410023312,105.83596 92.5945110023312,105.873411 92.0779930023312,105.906919 91.56148600233121,105.93648400000001 91.0449880023312,105.962107 90.5284980023312,105.983787 90.0120140023312,106.001525 89.4955360023312,106.01532200000001 88.9790620023312,106.025176 88.4625900023312,106.03108900000001 87.9461200023312,106.03306 87.4296500023312,106.03108900000001 86.9131780023312,106.025176 86.3967040023312,106.01532200000001 85.8802260023312,106.001525 85.36374200233121,105.983787 84.8472520023312,105.962107 84.3307540023312,105.93648400000001 83.8142470023312,105.906919 83.2977290023312,105.873411 82.7811990023312,105.83596 82.26465600233121,105.794565 81.7480990023312,105.749227 81.23152600233121,105.69994600000001 80.7149360023312,105.64672 80.1983280023312,105.589549 79.6817000023312,105.528433 79.1650520023312,105.463372 78.6483830023312,105.39436500000001 78.1316900023312,105.32141100000001 77.4640800023312,105.222053 77.4640800023312,110.24408100000001 77.8446740023312,110.300723 78.3761850023312,110.375769" /><polygon points="103.4281600046624,203.233067 113.60912700466241,203.233067 111.0331610046624,118.781761 115.2530820046624,106.22749400000001 112.72882100466241,104.96536300000001 112.03270800466241,105.893731 111.83696900466241,106.15534600000001 111.64115400466241,106.41821 111.4455420046624,106.682529 111.25041600466241,106.948513 111.0560600046624,107.216375 110.86276300466241,107.486328 110.6708160046624,107.758584 110.48051500466241,108.03336 110.2921560046624,108.310871 110.1060420046624,108.59133200000001 109.9224790046624,108.87496 109.7417750046624,109.161969 109.56440200466241,109.452314 109.3914630046624,109.74445700000001 109.2232380046624,110.035989 109.05891000466241,110.325658 108.8974350046624,110.61267600000001 108.7378130046624,110.89626600000001 108.5790870046624,111.17566000000001 108.42034400466241,111.450102 108.2607130046624,111.718852 108.09936300466241,111.98119 107.9355010046624,112.23642500000001 107.76836600466241,112.483908 107.59721800466241,112.72304100000001 107.4213210046624,112.95330600000001 107.2390290046624,113.17536700000001 107.0475640046624,113.39220900000001 106.84581000466241,113.606558 106.6344380046624,113.819252 106.41437200466241,114.030951 106.1866020046624,114.242343 105.9521710046624,114.454155 105.75058500466241,114.63306700000001 103.4281600046624,114.63306700000001 103.4281600046624,203.233067" /><polygon points="119.0281600046624,116.50497200000001 126.0281600046624,120.914972 133.0281600046624,116.50497200000001 133.0281600046624,105.233067 119.0281600046624,105.233067 119.0281600046624,116.50497200000001" /></g><g fill="none" id="COSTURA" stroke="#00a000" stroke-width="0.08"><polygon points="4.0,13.633067 5.7,13.633067 5.946137211430921,13.416556070671316 6.1911230351686255,13.199125943868006 6.433806083519894,12.97985742211545 6.673034968791513,12.757831307939018 6.907658303290262,12.53212840386409 7.136524699322925,12.30182951241604 7.358482769196286,12.066015436120248 7.5723811252171265,11.823766977502084 7.777197617466955,11.574267191163548 7.973182834463885,11.317706113979522 8.161311146615965,11.054846434291722 8.342565282091677,10.786457453046896 8.517927969059487,10.513308471191783 8.688381935687879,10.236168789673126 8.854909910145325,9.955807709437675 9.018494620600304,9.67299453143217 9.180118795221286,9.388498556603356 9.340765162176753,9.103089085897977 9.501416449635176,8.817535420262777 9.663055385765034,8.532606860644501 9.826664698734799,8.249072707989892 9.993226961401806,7.967702142964255 10.16345393201771,7.689054612599036 10.337230036760209,7.413048832744115 10.514282265311873,7.139481591821779 10.694337607355273,6.86814967825431 10.877123052572978,6.598849880463993 11.062365590647557,6.331378986873115 11.24979221126158,6.065533785903957 11.439129904097616,5.801111065978808 11.630105658838232,5.53790761551995 11.822446465166006,5.275720222949668 12.015879312763497,5.0143456766902474 12.21013119131328,4.7535807651639725 12.404929090497925,4.493222276793128 12.6,4.233067 24.0564392373896,9.233067 23.84959802771455,9.795334580940363 23.645801650517317,10.356933169710793 23.4480949382757,10.917193774141342 23.25952272346752,11.475447402062086 23.08312983857059,12.031025061303078 22.92196111606271,12.583257759694389 22.779061388421706,13.131476505066075 22.657475488125385,13.675012305248204 22.560248247651558,14.213196168070835 22.49042449947803,14.745359101364034 22.451049076082626,15.270832112957864 22.445166809943142,15.788946210682386 22.4758225335374,16.299032402367665 22.54606107934321,16.80042169584376 22.658927279838384,17.29244509894074 22.817015777873205,17.77451462039634 23.018439554671197,18.246848637281662 23.25874127090857,18.71012799466933 23.533433110351083,19.16503902122656 23.838027256764505,19.61226804562056 24.168035893914595,20.052501396518547 24.518971205567123,20.486425402587745 24.886345375487853,20.91472639249535 25.265670587442546,21.338090694908598 25.652459025196965,21.75720463849469 26.04222287251688,22.172754551920843 26.43047431316805,22.585426763854276 26.813017247128172,22.995882540544653 27.188779993915375,23.40451471781536 27.558586779631288,23.811553247150556 27.923288455857527,24.217225792541026 28.283735874175697,24.62176001797755 28.64077988616742,25.025383587450918 28.9952713434143,25.42832416495193 29.348061097497954,25.830809414471354 29.7,26.233067 41.7,100.233067 4.0,100.233067" /><polygon points="47.7,4.233067 65.94249141613642,4.233067 65.95625133756502,4.5779132703500505 65.99790344158414,5.092716994128569 66.06241306962703,5.603204386473422 66.15168501536235,6.10901575309847 66.26750927300081,6.609806492642356 66.40960019683118,7.105504892464548 66.57586886747531,7.596276320084238 66.76416637745514,8.082294029781549 66.97234381929262,8.563731275836616 67.19825228550965,9.040761312529574 67.4397428686282,9.513557394140543 67.69466666117019,9.98229277494966 67.96087475565754,10.447140709237045 68.2362182446122,10.908274451282841 68.5185482205561,11.365867255367169 68.80571577601117,11.82009237577016 69.09557200349936,12.271123066771947 69.38603044988297,12.719137438993469 69.67613080533738,13.164401169999925 69.96588949611586,13.607255886654121 70.25535533145786,14.048045733863534 70.54457712060278,14.487114856535614 70.83360367279005,14.924807399577839 71.12248379725906,15.36146750789767 71.41126630324923,15.797439326402566 71.7,16.233067 83.7,90.233067 47.7,90.233067" /><polygon points="89.7,6.233067 89.95245430921342,6.233423362819071 90.20483086291524,6.233185589548962 90.45705190559389,6.231759544100493 90.70903968173775,6.228551090384485 90.96071643583527,6.222966092311758 91.21200441237482,6.21441041379313 91.46282585584484,6.2022899187394245 91.71310301073372,6.18601047106146 91.96275812152987,6.1649779346700555 92.21171343272172,6.1385981734760335 92.45989118879767,6.1062770513902125 92.70721363424613,6.067420432323413 92.95360257343721,6.021435816906703 93.19891975774915,5.967954031978914 93.44290645846002,5.907053948065581 93.6852895518145,5.838867968215919 93.9257959140573,5.763528495479149 94.16415242143313,5.681167932904493 94.40008595018666,5.591918683541167 94.63332337656261,5.495913150438394 94.86359157680567,5.393283736645391 95.09061742716054,5.28416284521138 95.31412780387191,5.168682879185578 95.53389863733646,5.047021848373325 95.75020863974197,4.919825210198594 95.96363149198662,4.7880126611761415 96.17474462410257,4.652507383475511 96.384125466122,4.514232559266247 96.5923514480771,4.3741113707178965 96.8,4.233067 108.46190378969061,8.733067 108.37783951157896,9.271610546663693 108.29568002713596,9.809794399041248 108.21733013003025,10.347258862846523 108.14469461393048,10.88364424379338 108.07967827250532,11.418590847595684 108.02418589942339,11.951738979967294 107.98012228835334,12.48272894662207 107.94939223296385,13.01120105327387 107.93390052692352,13.536795605636561 107.93555196390102,14.059152909424 107.94249141613642,14.233067 89.7,14.233067" /><polygon points="114.46190378969061,14.133067 114.79412029060265,13.601097985769025 115.13265986170111,13.07448106878231 115.48384557317247,12.558568346284105 115.85399060030421,12.058703603203355 116.24707228144396,11.578268379750659 116.661734298511,11.11616362120411 117.09587934488307,10.670667797519528 117.54741011393791,10.24005937865272 118.0142292990533,9.822616834559495 118.49423959360695,9.416618635195668 118.98534369097663,9.020343250517051 119.48544428454008,8.632069150479452 119.99244406767505,8.250074805038686 120.50452008290287,7.873099052810097 121.02158256530028,7.502789097724244 121.54421667417024,7.141924693123902 122.07300909005681,6.793288145054288 122.60854649350404,6.459661759560624 123.151415565056,6.143827842688129 123.70220298525676,5.848568700482024 124.26149543465036,5.576666638987529 124.82987959378087,5.330903964249865 125.40794214319236,5.114062982314252 125.996221611122,4.928750228471964 126.59433814198778,4.774219854155839 127.2010876915075,4.646717468142565 127.81523697130204,4.542381929246023 128.43555269299225,4.457352096280088 129.06080156819903,4.38776682805864 129.68975030854318,4.329764983395557 130.32116562564562,4.2794854211047175 130.9538142311272,4.233067 131.5732154165973,4.311185854731644 132.1912211806063,4.393185375692934 132.8064361016932,4.482946229113522 133.41746475839693,4.5843490812230545 134.02291172925646,4.701274598251178 134.62138159281068,4.837603446427542 135.21147892759856,4.997216291981794 135.79180831215905,5.183993801143583 136.36116343653822,5.401212000570606 136.91969566990625,5.647806057197887 137.46814960016144,5.920814460580514 138.00727230078795,6.217267753197476 138.53781084526986,6.534196477527764 139.0605123070914,6.868631176050369 139.5761237597366,7.217602391244281 140.08539227668965,7.57814066558849 140.5890649314347,7.947276541561989 141.08788879745583,8.322040561643767 141.58249433656607,8.699808623983248 142.0726952347304,9.08037557989049 142.55795601311777,9.464570362779291 143.03773987758072,9.853225801488009 143.51151003397186,10.247174724854993 143.97872968814372,10.647249961718597 144.43886204594884,11.05428434091717 144.89137031323983,11.469110691289066 145.33571769586922,11.89256184167264 145.77136739968958,12.325470620906243 146.19818439132484,12.768189022952523 146.61794912571278,13.218776549199232 147.03301229133078,13.674610234768883 147.4457246725638,14.133067 142.9538142311272,64.233067 118.95381423112721,64.233067" /><polygon points="4.0,107.033067 4.015371775677416,106.8769947423871 4.060896373990971,106.72692025410794 4.134824310157963,106.58861081358432 4.234314575050762,106.46738157505077 4.355543813584319,106.36789131015797 4.493853254107928,106.29396337399098 4.643927742387097,106.24843877567743 4.800000000000001,106.233067 26.2,106.233067 26.3560722576129,106.24843877567741 26.50614674589207,106.29396337399098 26.64445618641568,106.36789131015797 26.765685424949236,106.46738157505077 26.865175689842037,106.58861081358432 26.93910362600903,106.72692025410794 26.984628224322584,106.8769947423871 27.0,107.033067 27.0,117.43306700000001 26.984628224322584,117.58913925761291 26.93910362600903,117.73921374589207 26.865175689842037,117.87752318641569 26.765685424949236,117.99875242494925 26.64445618641568,118.09824268984204 26.50614674589207,118.17217062600903 26.3560722576129,118.2176952243226 26.2,118.233067 4.800000000000001,118.233067 4.643927742387097,118.2176952243226 4.493853254107929,118.17217062600903 4.355543813584319,118.09824268984204 4.234314575050762,117.99875242494925 4.134824310157963,117.87752318641569 4.060896373990971,117.73921374589207 4.015371775677416,117.58913925761291 4.0,117.43306700000001" /><polygon points="33.0,106.63306700000001 33.007685887838704,106.55503087119355 33.030448186995486,106.47999362705397 33.06741215507898,106.41083890679216 33.11715728752538,106.35022428752539 33.17777190679216,106.30047915507899 33.246926627053966,106.26351518699549 33.321963871193546,106.24075288783871 33.4,106.233067 44.6,106.233067 44.678036128806454,106.24075288783871 44.753073372946034,106.26351518699549 44.82222809320784,106.30047915507899 44.88284271247462,106.35022428752539 44.93258784492102,106.41083890679216 44.969551813004514,106.47999362705397 44.992314112161296,106.55503087119355 45.0,106.63306700000001 45.0,108.833067 44.992314112161296,108.91110312880646 44.969551813004514,108.98614037294604 44.93258784492102,109.05529509320785 44.88284271247462,109.11590971247462 44.82222809320784,109.16565484492102 44.753073372946034,109.20261881300452 44.678036128806454,109.2253811121613 44.6,109.233067 33.4,109.233067 33.321963871193546,109.2253811121613 33.246926627053966,109.20261881300452 33.17777190679216,109.16565484492102 33.11715728752538,109.11590971247462 33.06741215507898,109.05529509320785 33.030448186995486,108.98614037294604 33.007685887838704,108.91110312880646 33.0,108.833067" /><polygon points="51.0,106.233067 51.48160200005828,106.330567 51.96320400011656,106.423067 52.44480600017484,106.51056700000001 52.926408000233124,106.593067 53.4080100002914,106.670567 53.88961200034968,106.74306700000001 54.37121400040796,106.810567 54.85281600046624,106.873067 55.33441800052452,106.93056700000001 55.8160200005828,106.983067 56.297622000641084,107.030567 56.77922400069936,107.07306700000001 57.26082600075764,107.110567 57.74242800081592,107.143067 58.2240300008742,107.170567 58.70563200093248,107.193067 59.18723400099076,107.21056700000001 59.668836001049044,107.223067 60.15043800110732,107.23056700000001 60.632040001165606,107.233067 61.11364200122388,107.23056700000001 61.59524400128216,107.223067 62.07684600134044,107.21056700000001 62.55844800139872,107.193067 63.040050001457004,107.170567 63.521652001515285,107.143067 64.00325400157357,107.110567 64.48485600163184,107.07306700000001 64.96645800169011,107.030567 65.4480600017484,106.983067 65.92966200180669,106.93056700000001 66.41126400186496,106.873067 66.89286600192324,106.810567 67.37446800198153,106.74306700000001 67.8560700020398,106.670567 68.33767200209809,106.593067 68.81927400215636,106.51056700000001 69.30087600221464,106.423067 69.78247800227292,106.330567 70.26408000233121,106.233067 71.4640800023312,112.733067 70.26408000233121,110.733067 69.78247800227292,110.830567 69.30087600221464,110.923067 68.81927400215636,111.01056700000001 68.33767200209809,111.093067 67.8560700020398,111.170567 67.37446800198153,111.24306700000001 66.89286600192324,111.310567 66.41126400186496,111.373067 65.92966200180669,111.43056700000001 65.4480600017484,111.483067 64.96645800169011,111.530567 64.48485600163184,111.57306700000001 64.00325400157357,111.610567 63.521652001515285,111.643067 63.040050001457004,111.670567 62.55844800139872,111.693067 62.07684600134044,111.71056700000001 61.59524400128216,111.723067 61.11364200122388,111.73056700000001 60.632040001165606,111.733067 60.15043800110732,111.73056700000001 59.668836001049044,111.723067 59.18723400099076,111.71056700000001 58.70563200093248,111.693067 58.2240300008742,111.670567 57.74242800081592,111.643067 57.26082600075764,111.610567 56.77922400069936,111.57306700000001 56.297622000641084,111.530567 55.8160200005828,111.483067 55.33441800052452,111.43056700000001 54.85281600046624,111.373067 54.37121400040796,111.310567 53.88961200034968,111.24306700000001 53.4080100002914,111.170567 52.926408000233124,111.093067 52.44480600017484,111.01056700000001 51.96320400011656,110.923067 51.48160200005828,110.830567 51.0,110.733067" /><polygon points="77.4640800023312,106.233067 77.98818200238948,106.31106700000001 78.51228400244776,106.385067 79.03638600250603,106.455067 79.56048800256433,106.521067 80.0845900026226,106.583067 80.60869200268088,106.641067 81.13279400273916,106.69506700000001 81.65689600279744,106.745067 82.18099800285572,106.79106700000001 82.70510000291401,106.833067 83.22920200297229,106.87106700000001 83.75330400303056,106.905067 84.27740600308884,106.935067 84.80150800314712,106.961067 85.3256100032054,106.983067 85.84971200326368,107.001067 86.37381400332197,107.015067 86.89791600338025,107.025067 87.42201800343852,107.03106700000001 87.9461200034968,107.033067 88.47022200355508,107.03106700000001 88.99432400361337,107.025067 89.51842600367164,107.015067 90.04252800372993,107.001067 90.5666300037882,106.983067 91.09073200384648,106.961067 91.61483400390476,106.935067 92.13893600396304,106.905067 92.66303800402133,106.87106700000001 93.18714000407961,106.833067 93.71124200413789,106.79106700000001 94.23534400419616,106.745067 94.75944600425444,106.69506700000001 95.28354800431272,106.641067 95.807650004371,106.583067 96.33175200442929,106.521067 96.85585400448757,106.455067 97.37995600454585,106.385067 97.90405800460412,106.31106700000001 98.4281600046624,106.233067 98.4281600046624,109.233067 97.90405800460412,109.31106700000001 97.37995600454585,109.385067 96.85585400448757,109.455067 96.33175200442929,109.521067 95.807650004371,109.583067 95.28354800431272,109.641067 94.75944600425444,109.69506700000001 94.23534400419616,109.745067 93.71124200413789,109.791067 93.18714000407961,109.833067 92.66303800402133,109.87106700000001 92.13893600396304,109.905067 91.61483400390476,109.935067 91.09073200384648,109.961067 90.5666300037882,109.983067 90.04252800372993,110.001067 89.51842600367164,110.015067 88.99432400361337,110.025067 88.47022200355508,110.03106700000001 87.9461200034968,110.033067 87.42201800343852,110.03106700000001 86.89791600338025,110.025067 86.37381400332197,110.015067 85.84971200326368,110.001067 85.3256100032054,109.983067 84.80150800314712,109.961067 84.27740600308884,109.935067 83.75330400303056,109.905067 83.22920200297229,109.87106700000001 82.70510000291401,109.833067 82.18099800285572,109.791067 81.65689600279744,109.745067 81.13279400273916,109.69506700000001 80.60869200268088,109.641067 80.0845900026226,109.583067 79.56048800256433,109.521067 79.03638600250603,109.455067 78.51228400244776,109.385067 77.98818200238948,109.31106700000001 77.4640800023312,109.233067" /><polygon points="104.4281600046624,115.63306700000001 106.1281600046624,115.63306700000001 106.37429721609332,115.41655607067132 106.61928303983103,115.19912594386801 106.8619660881823,114.97985742211546 107.10119497345391,114.75783130793903 107.33581830795266,114.53212840386409 107.56468470398534,114.30182951241605 107.78664277385869,114.06601543612025 108.00054112987954,113.82376697750209 108.20535762212936,113.57426719116356 108.40134283912629,113.31770611397953 108.58947115127837,113.05484643429173 108.77072528675409,112.7864574530469 108.94608797372189,112.51330847119179 109.11654194035029,112.23616878967313 109.28306991480773,111.95580770943768 109.44665462526271,111.67299453143218 109.60827879988369,111.38849855660337 109.76892516683915,111.10308908589798 109.92957645429757,110.81753542026279 110.09121539042744,110.5326068606445 110.2548247033972,110.2490727079899 110.4213869660642,109.96770214296426 110.59161393668012,109.68905461259904 110.76539004142262,109.41304883274412 110.94244226997428,109.13948159182178 111.12249761201768,108.86814967825431 111.30528305723539,108.598849880464 111.49052559530996,108.33137898687312 111.67795221592398,108.06553378590397 111.86728990876001,107.80111106597882 112.05826566350063,107.53790761551996 112.25060646982841,107.27572022294967 112.4440393174259,107.01434567669025 112.63829119597568,106.75358076516397 112.83308909516033,106.49322227679313 113.02816000466241,106.233067 114.02816000466241,106.733067 110.02816000466241,118.63306700000001 112.57816000466241,202.233067 104.4281600046624,202.233067" /><polygon points="120.0281600046624,106.233067 132.0281600046624,106.233067 132.0281600046624,115.953067 126.0281600046624,119.733067 120.0281600046624,115.953067" /></g><g fill="none" id="PIQUETES" stroke="#00b0b0" stroke-width="0.08"><line x1="22.213629904967878" x2="22.409618470164567" y1="15.901959318194464" y2="16.517742138929293" /><line x1="22.692373523459953" x2="22.409618470164567" y1="15.936665913433945" y2="16.517742138929293" /><line x1="29.517842464990586" x2="29.309338442196328" y1="46.776802376878535" y2="47.38846083752353" /><line x1="29.882157535009412" x2="29.309338442196328" y1="47.08933162312147" y2="47.38846083752353" /><line x1="56.582928895365" x2="56.89218127667531" y1="4.261441227442835" y2="4.8288590317580535" /><line x1="57.059562520771436" x2="56.89218127667531" y1="4.204692772557165" y2="4.8288590317580535" /><line x1="99.06032306347002" x2="98.76868513978756" y1="14.21204277268774" y2="13.63537361149548" /><line x1="98.58216835266641" x2="98.76868513978756" y1="14.25409122731226" y2="13.63537361149548" /><line x1="138.8132755753203" x2="138.8721152952529" y1="6.789144563438985" y2="7.432680022724836" /><line x1="139.27332478032645" x2="138.8721152952529" y1="6.926092469495347" y2="7.432680022724836" /><line x1="122.23824420365625" x2="122.64304932039887" y1="6.617467993310714" y2="7.121186979908402" /><line x1="122.69730698523884" x2="122.64304932039887" y1="6.477249012549656" y2="7.121186979908402" /><line x1="120.91239064068058" x2="121.3436232145085" y1="7.504838025251972" y2="7.986126366342583" /><line x1="121.36327434455767" x2="121.3436232145085" y1="7.340205447740476" y2="7.986126366342583" /></g><g fill="none" id="TEXTOS" stroke="#000000" stroke-width="0.08"><text fill="#000000" font-family="sans-serif" font-size="0.9" stroke="none" text-anchor="middle" x="19.328155513256885" y="56.323517080550154">DELANTERO (vestido)</text><text fill="#000000" font-family="sans-serif" font-size="0.6" stroke="none" text-anchor="middle" x="19.328155513256885" y="57.72351708055015">Pieza N.01</text><text fill="#000000" font-family="sans-serif" font-size="0.6" stroke="none" text-anchor="middle" x="19.328155513256885" y="59.12351708055015">Talla: S</text><text fill="#000000" font-family="sans-serif" font-size="0.6" stroke="none" text-anchor="middle" x="19.328155513256885" y="60.52351708055016">Cortar: 2  (par: izq + der)</text><text fill="#000000" font-family="sans-serif" font-size="0.9" stroke="none" text-anchor="middle" x="62.413211764794625" y="47.60032029591837">ESPALDA (vestido)</text><text fill="#000000" font-family="sans-serif" font-size="0.6" stroke="none" text-anchor="middle" x="62.413211764794625" y="49.00032029591837">Pieza N.02</text><text fill="#000000" font-family="sans-serif" font-size="0.6" stroke="none" text-anchor="middle" x="62.413211764794625" y="50.40032029591837">Talla: S</text><text fill="#000000" font-family="sans-serif" font-size="0.6" stroke="none" text-anchor="middle" x="62.413211764794625" y="51.800320295918375">Cortar: 1  (al doblez)</text><text fill="#000000" font-family="sans-serif" font-size="0.6" stroke="none" text-anchor="middle" x="62.413211764794625" y="53.200320295918374">AL DOBLEZ</text><text fill="#000000" font-family="sans-serif" font-size="0.9" stroke="none" text-anchor="middle" x="98.4579030326492" y="6.501309639616992">CANESU</text><text fill="#000000" font-family="sans-serif" font-size="0.6" stroke="none" text-anchor="middle" x="98.4579030326492" y="7.901309639616993">Pieza N.03</text><text fill="#000000" font-family="sans-serif" font-size="0.6" stroke="none" text-anchor="middle" x="98.4579030326492" y="9.301309639616992">Talla: S</text><text fill="#000000" font-family="sans-serif" font-size="0.6" stroke="none" text-anchor="middle" x="98.4579030326492" y="10.701309639616992">Cortar: 2  (al doblez x2 (exterior+interior))</text><text fill="#000000" font-family="sans-serif" font-size="0.6" stroke="none" text-anchor="middle" x="98.4579030326492" y="12.101309639616993">AL DOBLEZ</text><text fill="#000000" font-family="sans-serif" font-size="0.9" stroke="none" text-anchor="middle" x="130.90901577036908" y="31.483126315053056">MANGA</text><text fill="#000000" font-family="sans-serif" font-size="0.6" stroke="none" text-anchor="middle" x="130.90901577036908" y="32.883126315053055">Pieza N.04</text><text fill="#000000" font-family="sans-serif" font-size="0.6" stroke="none" text-anchor="middle" x="130.90901577036908" y="34.28312631505305">Talla: S</text><text fill="#000000" font-family="sans-serif" font-size="0.6" stroke="none" text-anchor="middle" x="130.90901577036908" y="35.68312631505306">Cortar: 2  (par: izq + der)</text><text fill="#000000" font-family="sans-serif" font-size="0.9" stroke="none" text-anchor="middle" x="15.500000000000004" y="109.533067">PUNO</text><text fill="#000000" font-family="sans-serif" font-size="0.6" stroke="none" text-anchor="middle" x="15.500000000000004" y="110.93306700000001">Pieza N.05</text><text fill="#000000" font-family="sans-serif" font-size="0.6" stroke="none" text-anchor="middle" x="15.500000000000004" y="112.33306700000001">Talla: S</text><text fill="#000000" font-family="sans-serif" font-size="0.6" stroke="none" text-anchor="middle" x="15.500000000000004" y="113.733067">Cortar: 4  (4 (2 tela + 2 entretela))</text><text fill="#000000" font-family="sans-serif" font-size="0.9" stroke="none" text-anchor="middle" x="39.0" y="105.033067">TAPETA MANGA</text><text fill="#000000" font-family="sans-serif" font-size="0.6" stroke="none" text-anchor="middle" x="39.0" y="106.43306700000001">Pieza N.06</text><text fill="#000000" font-family="sans-serif" font-size="0.6" stroke="none" text-anchor="middle" x="39.0" y="107.833067">Talla: S</text><text fill="#000000" font-family="sans-serif" font-size="0.6" stroke="none" text-anchor="middle" x="39.0" y="109.233067">Cortar: 2  (par)</text><text fill="#000000" font-family="sans-serif" font-size="0.9" stroke="none" text-anchor="middle" x="60.935060528670164" y="105.57198354181554">CUELLO</text><text fill="#000000" font-family="sans-serif" font-size="0.6" stroke="none" text-anchor="middle" x="60.935060528670164" y="106.97198354181555">Pieza N.07</text><text fill="#000000" font-family="sans-serif" font-size="0.6" stroke="none" text-anchor="middle" x="60.935060528670164" y="108.37198354181554">Talla: S</text><text fill="#000000" font-family="sans-serif" font-size="0.6" stroke="none" text-anchor="middle" x="60.935060528670164" y="109.77198354181554">Cortar: 2  (al doblez x2 (+ entretela))</text><text fill="#000000" font-family="sans-serif" font-size="0.6" stroke="none" text-anchor="middle" x="60.935060528670164" y="111.17198354181554">AL DOBLEZ</text><text fill="#000000" font-family="sans-serif" font-size="0.9" stroke="none" text-anchor="middle" x="87.9461200034968" y="104.66606700000001">PIE DE CUELLO</text><text fill="#000000" font-family="sans-serif" font-size="0.6" stroke="none" text-anchor="middle" x="87.9461200034968" y="106.066067">Pieza N.08</text><text fill="#000000" font-family="sans-serif" font-size="0.6" stroke="none" text-anchor="middle" x="87.9461200034968" y="107.46606700000001">Talla: S</text><text fill="#000000" font-family="sans-serif" font-size="0.6" stroke="none" text-anchor="middle" x="87.9461200034968" y="108.866067">Cortar: 2  (al doblez x2 (+ entretela))</text><text fill="#000000" font-family="sans-serif" font-size="0.6" stroke="none" text-anchor="middle" x="87.9461200034968" y="110.266067">AL DOBLEZ</text><text fill="#000000" font-family="sans-serif" font-size="0.9" stroke="none" text-anchor="middle" x="108.01140419797616" y="156.80873920973946">VISTA DELANTERA (vestido)</text><text fill="#000000" font-family="sans-serif" font-size="0.6" stroke="none" text-anchor="middle" x="108.01140419797616" y="158.20873920973946">Pieza N.09</text><text fill="#000000" font-family="sans-serif" font-size="0.6" stroke="none" text-anchor="middle" x="108.01140419797616" y="159.60873920973944">Talla: S</text><text fill="#000000" font-family="sans-serif" font-size="0.6" stroke="none" text-anchor="middle" x="108.01140419797616" y="161.00873920973945">Cortar: 2  (par: izq + der)</text><text fill="#000000" font-family="sans-serif" font-size="0.9" stroke="none" text-anchor="middle" x="126.0281600046624" y="109.38934606976744">BOLSILLO</text><text fill="#000000" font-family="sans-serif" font-size="0.6" stroke="none" text-anchor="middle" x="126.0281600046624" y="110.78934606976745">Pieza N.10</text><text fill="#000000" font-family="sans-serif" font-size="0.6" stroke="none" text-anchor="middle" x="126.0281600046624" y="112.18934606976745">Talla: S</text><text fill="#000000" font-family="sans-serif" font-size="0.6" stroke="none" text-anchor="middle" x="126.0281600046624" y="113.58934606976744">Cortar: 1  (1 (opcional))</text></g><g fill="none" id="CENTROS" stroke="#0050ff" stroke-width="0.08"><circle cx="18.9" cy="29.233067" fill="#0050ff" r="0.15" /><circle cx="135.07679184148637" cy="52.233067" fill="#0050ff" r="0.15" /></g><g fill="none" id="HILO" stroke="#c0a000" stroke-width="0.08"><line x1="17.7" x2="17.7" y1="16.633067" y2="69.233067" /><line x1="17.7" x2="18.167302010770378" y1="69.233067" y2="68.12779380719654" /><line x1="17.7" x2="17.232697989229617" y1="69.233067" y2="68.12779380719654" /><line x1="17.7" x2="17.23269798922962" y1="16.633067" y2="17.738340192803463" /><line x1="17.7" x2="18.167302010770378" y1="16.633067" y2="17.738340192803463" /><line x1="48.2" x2="48.2" y1="7.233067" y2="59.233067" /><line x1="48.2" x2="48.667302010770385" y1="59.233067" y2="58.12779380719654" /><line x1="48.2" x2="47.73269798922962" y1="59.233067" y2="58.12779380719654" /><line x1="48.2" x2="47.73269798922962" y1="7.233067" y2="8.338340192803463" /><line x1="48.2" x2="48.667302010770385" y1="7.233067" y2="8.338340192803463" /><line x1="93.96000000000001" x2="93.96000000000001" y1="5.233067" y2="13.733067" /><line x1="93.96000000000001" x2="94.42730201077039" y1="13.733067" y2="12.627793807196538" /><line x1="93.96000000000001" x2="93.49269798922963" y1="13.733067" y2="12.627793807196538" /><line x1="93.96000000000001" x2="93.49269798922963" y1="5.233067" y2="6.338340192803462" /><line x1="93.96000000000001" x2="94.42730201077038" y1="5.233067" y2="6.338340192803462" /><line x1="130.9538142311272" x2="130.9538142311272" y1="8.193067" y2="62.233067" /><line x1="130.9538142311272" x2="131.4211162418976" y1="62.233067" y2="61.12779380719654" /><line x1="130.9538142311272" x2="130.48651222035681" y1="62.233067" y2="61.12779380719654" /><line x1="130.9538142311272" x2="130.48651222035681" y1="8.193067" y2="9.298340192803462" /><line x1="130.9538142311272" x2="131.4211162418976" y1="8.193067" y2="9.298340192803462" /><line x1="15.5" x2="15.5" y1="106.733067" y2="117.733067" /><line x1="15.5" x2="15.96730201077038" y1="117.733067" y2="116.62779380719654" /><line x1="15.5" x2="15.032697989229618" y1="117.733067" y2="116.62779380719654" /><line x1="15.5" x2="15.03269798922962" y1="106.733067" y2="107.83834019280347" /><line x1="15.5" x2="15.96730201077038" y1="106.733067" y2="107.83834019280347" /><line x1="39.0" x2="39.0" y1="106.63306700000001" y2="108.833067" /><line x1="39.0" x2="39.46730201077038" y1="108.833067" y2="107.72779380719655" /><line x1="39.0" x2="38.53269798922962" y1="108.833067" y2="107.72779380719655" /><line x1="39.0" x2="38.53269798922962" y1="106.63306700000001" y2="107.73834019280346" /><line x1="39.0" x2="39.46730201077038" y1="106.63306700000001" y2="107.73834019280346" /><line x1="51.5" x2="69.76408000233121" y1="106.733067" y2="106.733067" /><line x1="69.76408000233121" x2="68.65880680952775" y1="106.733067" y2="106.26576498922962" /><line x1="69.76408000233121" x2="68.65880680952775" y1="106.733067" y2="107.20036901077039" /><line x1="51.5" x2="52.60527319280346" y1="106.733067" y2="107.20036901077039" /><line x1="51.5" x2="52.60527319280346" y1="106.733067" y2="106.26576498922962" /><line x1="77.9640800023312" x2="97.9281600046624" y1="106.63306700000001" y2="106.63306700000001" /><line x1="97.9281600046624" x2="96.82288681185895" y1="106.63306700000001" y2="106.16576498922963" /><line x1="97.9281600046624" x2="96.82288681185895" y1="106.63306700000001" y2="107.10036901077038" /><line x1="77.9640800023312" x2="79.06935319513467" y1="106.63306700000001" y2="107.10036901077038" /><line x1="77.9640800023312" x2="79.06935319513467" y1="106.63306700000001" y2="106.16576498922963" /><line x1="107.4281600046624" x2="107.4281600046624" y1="120.63306700000001" y2="171.233067" /><line x1="107.4281600046624" x2="107.89546201543278" y1="171.233067" y2="170.12779380719655" /><line x1="107.4281600046624" x2="106.96085799389202" y1="171.233067" y2="170.12779380719655" /><line x1="107.4281600046624" x2="106.96085799389202" y1="120.63306700000001" y2="121.73834019280346" /><line x1="107.4281600046624" x2="107.89546201543278" y1="120.63306700000001" y2="121.73834019280346" /><line x1="126.0281600046624" x2="126.0281600046624" y1="107.233067" y2="115.953067" /><line x1="126.0281600046624" x2="126.49546201543278" y1="115.953067" y2="114.84779380719654" /><line x1="126.0281600046624" x2="125.56085799389201" y1="115.953067" y2="114.84779380719654" /><line x1="126.0281600046624" x2="125.56085799389201" y1="107.233067" y2="108.33834019280347" /><line x1="126.0281600046624" x2="126.49546201543278" y1="107.233067" y2="108.33834019280347" /></g><g fill="none" id="DOBLEZ" stroke="#c000c0" stroke-width="0.08"><line x1="47.7" x2="47.7" y1="4.233067" y2="90.233067" /><line x1="89.7" x2="89.7" y1="4.233067" y2="14.233067" /><line x1="51.0" x2="51.0" y1="106.233067" y2="112.733067" /><line x1="77.4640800023312" x2="77.4640800023312" y1="106.233067" y2="110.033067" /></g><g fill="none" id="BOTONES" stroke="#ff8000" stroke-width="0.08"><circle cx="5.7" cy="15.133067" fill="#ff8000" r="0.55" /><circle cx="5.7" cy="23.649733666666666" fill="#ff8000" r="0.55" /><circle cx="5.7" cy="32.166400333333335" fill="#ff8000" r="0.55" /><circle cx="5.7" cy="40.683067" fill="#ff8000" r="0.55" /><circle cx="5.7" cy="49.19973366666667" fill="#ff8000" r="0.55" /><circle cx="5.7" cy="57.71640033333333" fill="#ff8000" r="0.55" /><circle cx="5.7" cy="66.233067" fill="#ff8000" r="0.55" /><circle cx="5.2" cy="112.233067" fill="#ff8000" r="0.55" /><circle cx="97.4281600046624" cy="107.733067" fill="#ff8000" r="0.55" /></g><g fill="none" id="OJAL" stroke="#ff40a0" stroke-width="0.08"><line x1="4.9" x2="6.5" y1="15.133067" y2="15.133067" /><line x1="4.9" x2="6.5" y1="23.649733666666666" y2="23.649733666666666" /><line x1="4.9" x2="6.5" y1="32.166400333333335" y2="32.166400333333335" /><line x1="4.9" x2="6.5" y1="40.683067" y2="40.683067" /><line x1="4.9" x2="6.5" y1="49.19973366666667" y2="49.19973366666667" /><line x1="4.9" x2="6.5" y1="57.71640033333333" y2="57.71640033333333" /><line x1="4.9" x2="6.5" y1="66.233067" y2="66.233067" /><line x1="25.8" x2="25.8" y1="111.43306700000001" y2="113.033067" /></g><g fill="none" id="REFERENCIAS" stroke="#b0b0b0" stroke-width="0.08"><text fill="#000000" font-family="sans-serif" font-size="0.5" stroke="none" text-anchor="start" x="5.7" y="12.633067">CF</text><text fill="#000000" font-family="sans-serif" font-size="0.5" stroke="none" text-anchor="start" x="48.0" y="33.233067">CB</text><text fill="#000000" font-family="sans-serif" font-size="0.5" stroke="none" text-anchor="start" x="15.5" y="111.43306700000001">DOBLEZ</text><text fill="#000000" font-family="sans-serif" font-size="0.5" stroke="none" text-anchor="start" x="126.0281600046624" y="107.733067">boca</text></g></svg>