<?xml version="1.0" encoding="utf-8" ?>
<svg baseProfile="full" height="172.467551cm" version="1.1" viewBox="0 0 168.0 172.467551" width="168.0cm" xmlns="http://www.w3.org/2000/svg" xmlns:ev="http://www.w3.org/2001/xml-events" xmlns:xlink="http://www.w3.org/1999/xlink"><defs /><rect fill="#f7f3ea" height="164.467551" stroke="#333" stroke-width="0.15" width="160.0" x="4.0" y="4.0" /><text fill="#000" font-family="sans-serif" font-size="1.4" x="4.0" y="3.0">PLANO DE CORTE — ancho 160 cm — largo 1.64 m</text><polygon fill="#cfe3f7" fill-opacity="0.5" points="4.0,74.267704 12.00722,74.267704 11.601177,17.827772 15.824922,5.262131 13.300661,4.0 12.604548000000001,4.928368 12.408809,5.189983 12.212994,5.452847 12.017382000000001,5.717166 11.822256,5.98315 11.6279,6.251011999999999 11.434603,6.520965 11.242656,6.793221 11.052355,7.067997 10.863996,7.345508 10.677882,7.6259689999999996 10.494319,7.909597 10.313615,8.196606 10.136242,8.486951000000001 9.963303,8.779094 9.795078,9.070626 9.63075,9.360295 9.469275,9.647313 9.309653,9.930903 9.150927,10.210297 8.992184,10.484739000000001 8.832553,10.753489 8.671203,11.015827 8.507341,11.271062 8.340206,11.518545 8.169058,11.757678 7.993161000000001,11.987943000000001 7.810869,12.210004 7.619404,12.426846 7.41765,12.641195 7.206278,12.853889 6.986212,13.065588 6.7584420000000005,13.27698 6.524011,13.488792 6.322425,13.667704 4.0,13.667704 4.0,74.267704" stroke="#1f6fb2" stroke-width="0.1" /><text fill="#0a3d62" font-family="sans-serif" font-size="1.6" text-anchor="middle" x="9.912461" y="39.133852">09</text><polygon fill="#cfe3f7" fill-opacity="0.5" points="16.824922,74.267704 24.832142,74.267704 24.426099,17.827772 28.649844,5.262131 26.125583,4.0 25.429470000000002,4.928368 25.233731,5.189983 25.037916000000003,5.452847 24.842304000000002,5.717166 24.647178,5.98315 24.452822,6.251011999999999 24.259525,6.520965 24.067578,6.793221 23.877277,7.067997 23.688918,7.345508 23.502804,7.6259689999999996 23.319241,7.909597 23.138537,8.196606 22.961164,8.486951000000001 22.788225,8.779094 22.62,9.070626 22.455672,9.360295 22.294197,9.647313 22.134575,9.930903 21.975849,10.210297 21.817106000000003,10.484739000000001 21.657475,10.753489 21.496125,11.015827 21.332263,11.271062 21.165128000000003,11.518545 20.99398,11.757678 20.818083,11.987943000000001 20.635791,12.210004 20.444326,12.426846 20.242572000000003,12.641195 20.031200000000002,12.853889 19.811134000000003,13.065588 19.583364,13.27698 19.348933000000002,13.488792 19.147347,13.667704 16.824922,13.667704 16.824922,74.267704" stroke="#1f6fb2" stroke-width="0.1" /><text fill="#0a3d62" font-family="sans-serif" font-size="1.6" text-anchor="middle" x="22.737383" y="39.133852">09</text><polygon fill="#cfe3f7" fill-opacity="0.5" points="34.253381000000005,66.004613 60.082085,66.004613 64.694586,14.559622999999998 63.988243,13.774989999999999 63.567436,13.312847999999999 63.13796,12.851835999999999 62.697763,12.395239 62.247089,11.9474 61.788167,11.51006 61.321992,11.082705 60.849184,10.664458 60.370352000000004,10.254439 59.886091,9.851766999999999 59.396986,9.455561 58.903613,9.064943 58.406533,8.679036 57.905640000000005,8.296466 57.398901,7.915755 56.883821,7.538259 56.359262,7.1668959999999995 55.824247,6.804792 55.277744,6.4551289999999995 54.718687,6.121163 54.14599200000001,5.80625 53.558596,5.513857 52.955505,5.24759 52.337374000000004,5.011762 51.709293,4.809616 51.077002,4.638591 50.442750000000004,4.494111 49.808081,4.371542 49.174414,4.266382 48.543098,4.174272 47.915466,4.0909949999999995 47.193968,4.0 46.458807,4.05394 45.818061,4.104962 45.173491,4.164405 44.526244000000005,4.236438 43.877471,4.325369 43.228369,4.435643 42.58024,4.57184 41.934651,4.738636 41.295789,4.939882 40.669523,5.174805 40.058158000000006,5.439152 39.4611,5.729414 38.877518,6.042254 38.30653,6.374447 37.747238,6.722872 37.198757,7.084489 36.660236,7.456322999999999 36.13086,7.835451 35.609041000000005,8.2196 35.091823000000005,8.609293000000001 34.578595,9.007759 34.071195,9.417183999999999 33.571837,9.839547 33.082792,10.276864 32.606406,10.731176 32.145118000000004,11.204525 31.701477000000004,11.698924 31.278642,12.215724 30.882289000000004,12.750982 30.512518000000004,13.294198000000002 30.163320000000002,13.837394 29.649844,14.659607999999999 34.253381000000005,66.004613" stroke="#1f6fb2" stroke-width="0.1" /><text fill="#0a3d62" font-family="sans-serif" font-size="1.6" text-anchor="middle" x="47.172215" y="35.0023065">04</text><polygon fill="#cfe3f7" fill-opacity="0.5" points="70.298123,66.004613 96.12682699999999,66.004613 100.739328,14.559622999999998 100.032985,13.774989999999999 99.612178,13.312847999999999 99.182702,12.851835999999999 98.742505,12.395239 98.291831,11.9474 97.832909,11.51006 97.36673400000001,11.082705 96.893926,10.664458 96.41509400000001,10.254439 95.930833,9.851766999999999 95.441728,9.455561 94.94835499999999,9.064943 94.45127500000001,8.679036 93.950382,8.296466 93.44364300000001,7.915755 92.928563,7.538259 92.404004,7.1668959999999995 91.868989,6.804792 91.322486,6.4551289999999995 90.763429,6.121163 90.190734,5.80625 89.60333800000001,5.513857 89.000247,5.24759 88.382116,5.011762 87.754035,4.809616 87.121744,4.638591 86.487492,4.494111 85.852823,4.371542 85.219156,4.266382 84.58784,4.174272 83.960208,4.0909949999999995 83.23871,4.0 82.50354899999999,4.05394 81.862803,4.104962 81.218233,4.164405 80.570986,4.236438 79.922213,4.325369 79.273111,4.435643 78.624982,4.57184 77.979393,4.738636 77.340531,4.939882 76.714265,5.174805 76.1029,5.439152 75.505842,5.729414 74.92226,6.042254 74.351272,6.374447 73.79198,6.722872 73.243499,7.084489 72.704978,7.456322999999999 72.175602,7.835451 71.653783,8.2196 71.136565,8.609293000000001 70.623337,9.007759 70.115937,9.417183999999999 69.616579,9.839547 69.127534,10.276864 68.651148,10.731176 68.18986,11.204525 67.746219,11.698924 67.323384,12.215724 66.927031,12.750982 66.55726,13.294198000000002 66.208062,13.837394 65.694586,14.659607999999999 70.298123,66.004613" stroke="#1f6fb2" stroke-width="0.1" /><text fill="#0a3d62" font-family="sans-serif" font-size="1.6" text-anchor="middle" x="83.21695700000001" y="35.0023065">04</text><polygon fill="#cfe3f7" fill-opacity="0.5" points="101.739328,13.633067 101.739328,41.113067 129.439328,41.113067 129.439328,26.857360999999997 128.84,26.172342999999998 128.486005,25.768483 128.130012,25.363836 127.770878,24.957849 127.407761,24.550319 127.039824,24.141047999999998 126.666234,23.729844999999997 126.286171,23.316536 125.899742,22.901911 125.510403,22.488083 125.123925,22.076037 124.744869,21.665301 124.377667,21.255467 124.026745,20.846346999999998 123.696473,20.437973 123.391104,20.030609 123.114668,19.624724 122.87084899999999,19.22094 122.662824,18.819888 122.49311399999999,18.421923 122.36271500000001,18.024288 122.269728,17.618925 122.210974,17.199514999999998 122.184836,16.764596 122.189952,16.313914 122.224876,15.847847 122.287938,15.367222 122.37719799999999,14.873137 122.49046,14.366815 122.62530100000001,13.849511 122.779123,13.32245 122.94919300000001,12.78679 123.132674,12.243606999999999 123.326662,11.693886 123.52819600000001,11.138521 124.059732,9.693617 111.014017,4.0 110.343876,4.893731 110.148137,5.155346 109.952322,5.41821 109.75671,5.682529 109.561584,5.948513 109.367228,6.216374999999999 109.173931,6.486328 108.981984,6.758584 108.791683,7.03336 108.603324,7.310871 108.41721,7.5913319999999995 108.233647,7.87496 108.052943,8.161969 107.87557,8.452314000000001 107.702631,8.744457 107.534406,9.035989 107.370078,9.325658 107.208603,9.612676 107.048981,9.896266 106.890255,10.17566 106.731512,10.450102000000001 106.571881,10.718852 106.410531,10.98119 106.246669,11.236425 106.079534,11.483908 105.90838600000001,11.723041 105.732489,11.953306000000001 105.550197,12.175367 105.358732,12.392209 105.156978,12.606558 104.945606,12.819252 104.72554,13.030951 104.49777,13.242343 104.263339,13.454155 104.061753,13.633067 101.739328,13.633067" stroke="#1f6fb2" stroke-width="0.1" /><text fill="#0a3d62" font-family="sans-serif" font-size="1.6" text-anchor="middle" x="115.589328" y="22.5565335">01</text><polygon fill="#cfe3f7" fill-opacity="0.5" points="130.439328,13.633067 130.439328,41.113067 158.13932799999998,41.113067 158.13932799999998,26.857360999999997 157.54,26.172342999999998 157.186005,25.768483 156.83001199999998,25.363836 156.470878,24.957849 156.10776099999998,24.550319 155.739824,24.141047999999998 155.366234,23.729844999999997 154.98617099999998,23.316536 154.599742,22.901911 154.21040299999999,22.488083 153.82392499999997,22.076037 153.44486899999998,21.665301 153.077667,21.255467 152.726745,20.846346999999998 152.396473,20.437973 152.09110399999997,20.030609 151.81466799999998,19.624724 151.57084899999998,19.22094 151.362824,18.819888 151.19311399999998,18.421923 151.062715,18.024288 150.96972799999998,17.618925 150.91097399999998,17.199514999999998 150.88483599999998,16.764596 150.889952,16.313914 150.92487599999998,15.847847 150.98793799999999,15.367222 151.07719799999998,14.873137 151.19045999999997,14.366815 151.325301,13.849511 151.479123,13.32245 151.649193,12.78679 151.832674,12.243606999999999 152.026662,11.693886 152.228196,11.138521 152.75973199999999,9.693617 139.71401699999998,4.0 139.04387599999998,4.893731 138.84813699999998,5.155346 138.652322,5.41821 138.45671,5.682529 138.261584,5.948513 138.067228,6.216374999999999 137.873931,6.486328 137.681984,6.758584 137.491683,7.03336 137.30332399999998,7.310871 137.11721,7.5913319999999995 136.93364699999998,7.87496 136.752943,8.161969 136.57557,8.452314000000001 136.40263099999999,8.744457 136.23440599999998,9.035989 136.070078,9.325658 135.908603,9.612676 135.748981,9.896266 135.59025499999998,10.17566 135.431512,10.450102000000001 135.27188099999998,10.718852 135.11053099999998,10.98119 134.94666899999999,11.236425 134.77953399999998,11.483908 134.608386,11.723041 134.43248899999998,11.953306000000001 134.250197,12.175367 134.058732,12.392209 133.856978,12.606558 133.645606,12.819252 133.42553999999998,13.030951 133.19777,13.242343 132.963339,13.454155 132.761753,13.633067 130.439328,13.633067" stroke="#1f6fb2" stroke-width="0.1" /><text fill="#0a3d62" font-family="sans-serif" font-size="1.6" text-anchor="middle" x="144.28932799999998" y="22.5565335">01</text><polygon fill="#cfe3f7" fill-opacity="0.5" points="48.293667000000006,110.38770399999999 31.327484,75.267704 4.0,75.267704 4.0,110.38770399999999 48.293667000000006,110.38770399999999" stroke="#1f6fb2" stroke-width="0.1" /><text fill="#0a3d62" font-family="sans-serif" font-size="1.6" text-anchor="middle" x="26.146833500000003" y="92.827704">21</text><polygon fill="#cfe3f7" fill-opacity="0.5" points="93.58733400000001,110.38770399999999 76.621151,75.267704 49.293667000000006,75.267704 49.293667000000006,110.38770399999999 93.58733400000001,110.38770399999999" stroke="#1f6fb2" stroke-width="0.1" /><text fill="#0a3d62" font-family="sans-serif" font-size="1.6" text-anchor="middle" x="71.44050050000001" y="92.827704">21</text><polygon fill="#cfe3f7" fill-opacity="0.5" points="70.221151,111.38770399999999 45.593667,111.38770399999999 45.593667,146.507704 87.187334,146.507704 70.221151,111.38770399999999 20.966183000000004,111.38770399999999 45.593667,111.38770399999999 45.593667,146.507704 4.0,146.507704 20.966183000000004,111.38770399999999" stroke="#1f6fb2" stroke-width="0.1" /><text fill="#0a3d62" font-family="sans-serif" font-size="1.6" text-anchor="middle" x="45.593667" y="128.947704">22</text><polygon fill="#cfe3f7" fill-opacity="0.5" points="137.443668,122.96411399999998 137.155181,122.52804799999998 136.866702,122.09118399999998 136.578179,121.65317599999999 136.28956,121.21367599999999 136.000794,120.77233799999999 135.711838,120.32883099999998 135.42308,119.88343999999998 135.136313,119.43721599999998 134.85405500000002,118.99075599999999 134.578416,118.54400799999999 134.311463,118.09692599999998 134.055237,117.64950899999998 133.81174700000003,117.20179699999998 133.582954,116.75386199999998 133.370764,116.30579999999999 133.177008,115.85771199999999 133.003429,115.40968599999998 132.851676,114.96175999999998 132.723279,114.51383199999998 132.61922700000002,114.06394399999999 132.53878500000002,113.60816299999999 132.480167,113.14429299999999 132.441976,112.67226799999999 132.39072,111.38770399999999 113.187334,111.38770399999999 113.187334,138.26770399999998 138.18733400000002,138.26770399999998 138.18733400000002,124.08639199999999 137.732214,123.39972899999998 137.443668,122.96411399999998 88.93100000000001,122.96411399999998 89.21948700000002,122.52804799999998 89.50796600000001,122.09118399999998 89.79648900000001,121.65317599999999 90.085108,121.21367599999999 90.373874,120.77233799999999 90.66283000000001,120.32883099999998 90.95158800000002,119.88343999999998 91.23835500000001,119.43721599999998 91.52061300000001,118.99075599999999 91.79625200000001,118.54400799999999 92.06320500000001,118.09692599999998 92.31943100000001,117.64950899999998 92.562921,117.20179699999998 92.79171400000001,116.75386199999998 93.003904,116.30579999999999 93.19766000000001,115.85771199999999 93.371239,115.40968599999998 93.522992,114.96175999999998 93.65138900000001,114.51383199999998 93.755441,114.06394399999999 93.83588300000001,113.60816299999999 93.894501,113.14429299999999 93.932692,112.67226799999999 93.98394800000001,111.38770399999999 113.187334,111.38770399999999 113.187334,138.26770399999998 88.187334,138.26770399999998 88.187334,124.08639199999999 88.64245400000001,123.39972899999998 88.93100000000001,122.96411399999998" stroke="#1f6fb2" stroke-width="0.1" /><text fill="#0a3d62" font-family="sans-serif" font-size="1.6" text-anchor="middle" x="113.187334" y="124.82770399999998">02</text><polygon fill="#cfe3f7" fill-opacity="0.5" points="139.18733400000002,122.65960899999999 146.18733400000002,127.06960899999999 153.18733400000002,122.65960899999999 153.18733400000002,111.38770399999999 139.18733400000002,111.38770399999999 139.18733400000002,122.65960899999999" stroke="#1f6fb2" stroke-width="0.1" /><text fill="#0a3d62" font-family="sans-serif" font-size="1.6" text-anchor="middle" x="146.18733400000002" y="119.22865649999999">10</text><polygon fill="#cfe3f7" fill-opacity="0.5" points="4.0,159.75683099999998 4.029841,160.059811 4.132547,160.398386 4.299332,160.710419 4.523786,160.983918 4.7972850000000005,161.208372 5.109318,161.375157 5.4478930000000005,161.47786299999999 5.750873,161.507704 27.249127,161.507704 27.552107,161.47786299999999 27.890682,161.375157 28.202715,161.208372 28.476214,160.983918 28.700668,160.710419 28.867453,160.398386 28.970159,160.059811 29.0,159.75683099999998 29.0,149.258577 28.970159,148.95559699999998 28.867453,148.617022 28.700668,148.30498899999998 28.476214,148.03149 28.202715,147.80703599999998 27.890682,147.64025099999998 27.552107,147.537545 27.249127,147.507704 5.750873,147.507704 5.4478930000000005,147.537545 5.109318,147.64025099999998 4.7972850000000005,147.80703599999998 4.523786,148.03149 4.299332,148.30498899999998 4.132547,148.617022 4.029841,148.95559699999998 4.0,149.258577 4.0,159.75683099999998" stroke="#1f6fb2" stroke-width="0.1" /><text fill="#0a3d62" font-family="sans-serif" font-size="1.6" text-anchor="middle" x="16.5" y="154.507704">05</text><polygon fill="#cfe3f7" fill-opacity="0.5" points="30.0,159.75683099999998 30.029841,160.059811 30.132547,160.398386 30.299332,160.710419 30.523786,160.983918 30.797285,161.208372 31.109318000000002,161.375157 31.447893,161.47786299999999 31.750873,161.507704 53.249127,161.507704 53.552107,161.47786299999999 53.890682,161.375157 54.202715,161.208372 54.476214,160.983918 54.700668,160.710419 54.867453,160.398386 54.970158999999995,160.059811 55.0,159.75683099999998 55.0,149.258577 54.970158999999995,148.95559699999998 54.867453,148.617022 54.700668,148.30498899999998 54.476214,148.03149 54.202715,147.80703599999998 53.890682,147.64025099999998 53.552107,147.537545 53.249127,147.507704 31.750873,147.507704 31.447893,147.537545 31.109318000000002,147.64025099999998 30.797285,147.80703599999998 30.523786,148.03149 30.299332,148.30498899999998 30.132547,148.617022 30.029841,148.95559699999998 30.0,149.258577 30.0,159.75683099999998" stroke="#1f6fb2" stroke-width="0.1" /><text fill="#0a3d62" font-family="sans-serif" font-size="1.6" text-anchor="middle" x="42.5" y="154.507704">05</text><polygon fill="#cfe3f7" fill-opacity="0.5" points="95.109812,158.433768 95.10827,157.94608699999998 95.12286,157.451104 95.152042,156.949253 95.194218,156.441 95.247736,155.92682499999998 95.310889,155.407209 95.381927,154.882622 95.459058,154.35351599999998 95.540457,153.82031899999998 95.74864600000001,152.48658999999998 82.845692,147.507704 82.20658399999999,147.941815 82.003755,148.078304 81.803425,148.210602 81.605097,148.337901 81.40829099999999,148.459451 81.21253300000001,148.57456299999998 81.016683,148.68298099999998 80.81873300000001,148.78525499999998 80.617676,148.881894 80.4137,148.972805 80.207108,149.057843 79.998204,149.136867 79.787293,149.209744 79.574684,149.276345 79.36068399999999,149.336546 79.145601,149.390232 78.929644,149.437313 78.712166,149.477902 78.49201500000001,149.512489 78.26876200000001,149.541564 78.04241,149.56554899999998 77.81299,149.58487699999998 77.580557,149.59999599999998 77.345178,149.61137 77.106932,149.61948199999998 76.865904,149.62483 76.62218200000001,149.62793399999998 76.375856,149.629326 76.12701200000001,149.629561 75.874323,149.629204 75.874323,159.62920499999998 95.157512,159.62920499999998 95.109812,158.433768 56.638834,158.433768 56.640376,157.94608699999998 56.625786000000005,157.451104 56.596604,156.949253 56.554428,156.441 56.500910000000005,155.92682499999998 56.437757000000005,155.407209 56.366719,154.882622 56.289588,154.35351599999998 56.208189000000004,153.82031899999998 56.0,152.48658999999998 68.902954,147.507704 69.542062,147.941815 69.744891,148.078304 69.945221,148.210602 70.14354900000001,148.337901 70.340355,148.459451 70.536113,148.57456299999998 70.73196300000001,148.68298099999998 70.929913,148.78525499999998 71.13097,148.881894 71.334946,148.972805 71.541538,149.057843 71.75044199999999,149.136867 71.961353,149.209744 72.173962,149.276345 72.387962,149.336546 72.60304500000001,149.390232 72.819002,149.437313 73.03648,149.477902 73.256631,149.512489 73.479884,149.541564 73.706236,149.56554899999998 73.935656,149.58487699999998 74.16808900000001,149.59999599999998 74.403468,149.61137 74.64171400000001,149.61948199999998 74.88274200000001,149.62483 75.126464,149.62793399999998 75.37279000000001,149.629326 75.621634,149.629561 75.874323,149.629204 75.874323,159.62920499999998 56.591134,159.62920499999998 56.638834,158.433768" stroke="#1f6fb2" stroke-width="0.1" /><text fill="#0a3d62" font-family="sans-serif" font-size="1.6" text-anchor="middle" x="75.874323" y="153.5684545">03</text><polygon fill="#cfe3f7" fill-opacity="0.5" points="119.404015,154.36268099999998 119.89550500000001,154.451978 120.38704800000001,154.536181 120.878641,154.615289 121.370282,154.6893 121.861967,154.75821299999998 122.353694,154.822027 122.84546,154.88074 123.33726100000001,154.934352 123.82909500000001,154.98286099999999 124.320959,155.026267 124.812849,155.06456799999998 125.30476200000001,155.09776399999998 125.796695,155.125854 126.288645,155.148837 126.780608,155.16671399999998 127.272582,155.179483 127.76456200000001,155.187145 128.25654500000002,155.189698 128.74852800000002,155.187145 129.240508,155.179483 129.732482,155.16671399999998 130.224445,155.148837 130.716395,155.125854 131.208328,155.09776399999998 131.700241,155.06456799999998 132.19213100000002,155.026267 132.683995,154.98286099999999 133.17582900000002,154.934352 133.66763,154.88074 134.15939600000002,154.822027 134.651123,154.75821299999998 135.142808,154.6893 135.63444900000002,154.615289 136.126042,154.536181 136.61758500000002,154.451978 137.10907500000002,154.36268099999998 137.393424,154.308067 139.44514600000002,157.72760399999999 140.500364,157.328621 138.687272,147.507704 137.213456,147.806077 136.741687,147.89668899999998 136.269973,147.98239199999998 135.798312,148.063189 135.326701,148.13908099999998 134.855138,148.21007 134.383619,148.27615699999998 133.91214200000002,148.33734299999998 133.440704,148.39363 132.969301,148.44501799999998 132.497931,148.49150899999998 132.026591,148.53310299999998 131.555277,148.56980199999998 131.083986,148.601606 130.612715,148.628516 130.141461,148.650533 129.67022,148.667656 129.19899,148.67988699999998 128.727766,148.68722499999998 128.25654500000002,148.689672 127.785324,148.68722499999998 127.31410000000001,148.67988699999998 126.84287,148.667656 126.37162900000001,148.650533 125.90037500000001,148.628516 125.42910400000001,148.601606 124.957813,148.56980199999998 124.48649900000001,148.53310299999998 124.01515900000001,148.49150899999998 123.543789,148.44501799999998 123.07238600000001,148.39363 122.600948,148.33734299999998 122.12947100000001,148.27615699999998 121.65795200000001,148.21007 121.186389,148.13908099999998 120.71477800000001,148.063189 120.24311700000001,147.98239199999998 119.771403,147.89668899999998 119.299634,147.806077 118.624505,147.669398 118.624505,154.209972 118.91258,154.268293 119.404015,154.36268099999998 117.84499500000001,154.36268099999998 117.35350500000001,154.451978 116.861962,154.536181 116.37036900000001,154.615289 115.87872800000001,154.6893 115.387043,154.75821299999998 114.89531600000001,154.822027 114.40355000000001,154.88074 113.91174900000001,154.934352 113.419915,154.98286099999999 112.92805100000001,155.026267 112.436161,155.06456799999998 111.944248,155.09776399999998 111.452315,155.125854 110.96036500000001,155.148837 110.46840200000001,155.16671399999998 109.976428,155.179483 109.484448,155.187145 108.99246500000001,155.189698 108.500482,155.187145 108.00850200000001,155.179483 107.51652800000001,155.16671399999998 107.02456500000001,155.148837 106.532615,155.125854 106.040682,155.09776399999998 105.54876900000001,155.06456799999998 105.05687900000001,155.026267 104.565015,154.98286099999999 104.073181,154.934352 103.58138000000001,154.88074 103.08961400000001,154.822027 102.59788700000001,154.75821299999998 102.10620200000001,154.6893 101.61456100000001,154.615289 101.12296800000001,154.536181 100.63142500000001,154.451978 100.13993500000001,154.36268099999998 99.855586,154.308067 97.803864,157.72760399999999 96.74864600000001,157.328621 98.561738,147.507704 100.035554,147.806077 100.50732300000001,147.89668899999998 100.979037,147.98239199999998 101.450698,148.063189 101.92230900000001,148.13908099999998 102.393872,148.21007 102.865391,148.27615699999998 103.33686800000001,148.33734299999998 103.808306,148.39363 104.27970900000001,148.44501799999998 104.751079,148.49150899999998 105.222419,148.53310299999998 105.69373300000001,148.56980199999998 106.165024,148.601606 106.636295,148.628516 107.107549,148.650533 107.57879000000001,148.667656 108.05002,148.67988699999998 108.52124400000001,148.68722499999998 108.99246500000001,148.689672 109.46368600000001,148.68722499999998 109.93491,148.67988699999998 110.40614000000001,148.667656 110.87738100000001,148.650533 111.348635,148.628516 111.819906,148.601606 112.29119700000001,148.56980199999998 112.762511,148.53310299999998 113.23385100000002,148.49150899999998 113.70522100000001,148.44501799999998 114.176624,148.39363 114.64806200000001,148.33734299999998 115.119539,148.27615699999998 115.591058,148.21007 116.06262100000001,148.13908099999998 116.534232,148.063189 117.00589300000001,147.98239199999998 117.477607,147.89668899999998 117.949376,147.806077 118.624505,147.669398 118.624505,154.209972 118.33643000000001,154.268293 117.84499500000001,154.36268099999998" stroke="#1f6fb2" stroke-width="0.1" /><text fill="#0a3d62" font-family="sans-serif" font-size="1.6" text-anchor="middle" x="118.624505" y="152.617654">07</text><polygon fill="#cfe3f7" fill-opacity="0.5" points="26.876185,167.81024599999998 27.407719999999998,167.881239 27.939276,167.94817799999998 28.470852,168.01106199999998 29.002448,168.06989099999998 29.534062,168.124665 30.065693,168.17538399999998 30.59734,168.22204599999998 31.129001,168.264651 31.660674999999998,168.3032 32.192361,168.337692 32.724058,168.368127 33.255764,168.39450399999998 33.787478,168.416824 34.319198,168.43508599999998 34.850924,168.449289 35.382654,168.45943499999998 35.914386,168.465522 36.44612,168.467551 36.977854,168.465522 37.509586,168.45943499999998 38.041315999999995,168.449289 38.573042,168.43508599999998 39.104762,168.416824 39.636476,168.39450399999998 40.168182,168.368127 40.699878999999996,168.337692 41.231565,168.3032 41.763239,168.264651 42.2949,168.22204599999998 42.826547,168.17538399999998 43.358177999999995,168.124665 43.889792,168.06989099999998 44.421388,168.01106199999998 44.952963999999994,167.94817799999998 45.48452,167.881239 46.016054999999994,167.81024599999998 46.547566,167.7352 47.92816,167.529732 47.92816,162.507704 46.260549999999995,162.755888 45.743857,162.82884199999998 45.227188,162.89784899999998 44.710539999999995,162.96291 44.193912,163.024026 43.677304,163.081197 43.160714,163.134423 42.644141,163.18370399999998 42.127584,163.229042 41.611041,163.270437 41.094511,163.307888 40.577993,163.341396 40.061486,163.370961 39.544988000000004,163.396584 39.028498,163.418264 38.512014,163.436002 37.995536,163.44979899999998 37.479062,163.459653 36.96259,163.465566 36.44612,163.467537 35.929649999999995,163.465566 35.413178,163.459653 34.896704,163.44979899999998 34.380226,163.436002 33.863742,163.418264 33.347252,163.396584 32.830754,163.370961 32.314246999999995,163.341396 31.797729,163.307888 31.281199,163.270437 30.764656,163.229042 30.248099,163.18370399999998 29.731526,163.134423 29.214935999999998,163.081197 28.698328,163.024026 28.1817,162.96291 27.665052,162.89784899999998 27.148383,162.82884199999998 26.63169,162.755888 25.96408,162.65653 25.96408,167.67855799999998 26.344673999999998,167.7352 26.876185,167.81024599999998 25.051975,167.81024599999998 24.52044,167.881239 23.988884,167.94817799999998 23.457307999999998,168.01106199999998 22.925711999999997,168.06989099999998 22.394098,168.124665 21.862467,168.17538399999998 21.33082,168.22204599999998 20.799159,168.264651 20.267485,168.3032 19.735799,168.337692 19.204102,168.368127 18.672396,168.39450399999998 18.140681999999998,168.416824 17.608962,168.43508599999998 17.077236,168.449289 16.545506,168.45943499999998 16.013773999999998,168.465522 15.48204,168.467551 14.950306,168.465522 14.418574,168.45943499999998 13.886844,168.449289 13.355118,168.43508599999998 12.823398,168.416824 12.291683999999998,168.39450399999998 11.759977999999998,168.368127 11.228280999999999,168.337692 10.696594999999999,168.3032 10.164921,168.264651 9.63326,168.22204599999998 9.101613,168.17538399999998 8.569982,168.124665 8.038367999999998,168.06989099999998 7.506771999999998,168.01106199999998 6.975196,167.94817799999998 6.4436399999999985,167.881239 5.912105,167.81024599999998 5.3805939999999985,167.7352 4.0,167.529732 4.0,162.507704 5.66761,162.755888 6.184303,162.82884199999998 6.700972,162.89784899999998 7.21762,162.96291 7.734248000000001,163.024026 8.250855999999999,163.081197 8.767446,163.134423 9.284019,163.18370399999998 9.800576,163.229042 10.317119,163.270437 10.833649,163.307888 11.350166999999999,163.341396 11.866674,163.370961 12.383171999999998,163.396584 12.899662,163.418264 13.416146,163.436002 13.932623999999999,163.44979899999998 14.449098,163.459653 14.96557,163.465566 15.48204,163.467537 15.99851,163.465566 16.514982,163.459653 17.031456,163.44979899999998 17.547933999999998,163.436002 18.064418,163.418264 18.580908,163.396584 19.097406,163.370961 19.613913,163.341396 20.130430999999998,163.307888 20.646960999999997,163.270437 21.163504,163.229042 21.680061,163.18370399999998 22.196634,163.134423 22.713224,163.081197 23.229832,163.024026 23.74646,162.96291 24.263108,162.89784899999998 24.779777,162.82884199999998 25.29647,162.755888 25.96408,162.65653 25.96408,167.67855799999998 25.583486,167.7352 25.051975,167.81024599999998" stroke="#1f6fb2" stroke-width="0.1" /><text fill="#0a3d62" font-family="sans-serif" font-size="1.6" text-anchor="middle" x="25.96408" y="165.4876275">08</text><polygon fill="#cfe3f7" fill-opacity="0.5" points="48.92816,166.15683099999998 48.950314999999996,166.38177399999998 49.030257999999996,166.645312 49.160078999999996,166.88818999999998 49.334789,167.10107499999998 49.547674,167.27578499999998 49.790552,167.40560599999998 50.054089999999995,167.485549 50.279033,167.507704 61.577287,167.507704 61.802229999999994,167.485549 62.065768,167.40560599999998 62.308645999999996,167.27578499999998 62.521530999999996,167.10107499999998 62.696241,166.88818999999998 62.826062,166.645312 62.906005,166.38177399999998 62.92816,166.15683099999998 62.92816,163.858577 62.906005,163.633634 62.826062,163.370096 62.696241,163.127218 62.521530999999996,162.914333 62.308645999999996,162.739623 62.065768,162.609802 61.802229999999994,162.529859 61.577287,162.507704 50.279033,162.507704 50.054089999999995,162.529859 49.790552,162.609802 49.547674,162.739623 49.334789,162.914333 49.160078999999996,163.127218 49.030257999999996,163.370096 48.950314999999996,163.633634 48.92816,163.858577 48.92816,166.15683099999998" stroke="#1f6fb2" stroke-width="0.1" /><text fill="#0a3d62" font-family="sans-serif" font-size="1.6" text-anchor="middle" x="55.92816" y="165.007704">06</text><polygon fill="#cfe3f7" fill-opacity="0.5" points="63.92816,166.15683099999998 63.950314999999996,166.38177399999998 64.030258,166.645312 64.160079,166.88818999999998 64.334789,167.10107499999998 64.547674,167.27578499999998 64.790552,167.40560599999998 65.05409,167.485549 65.279033,167.507704 76.577287,167.507704 76.80223,167.485549 77.06576799999999,167.40560599999998 77.308646,167.27578499999998 77.521531,167.10107499999998 77.696241,166.88818999999998 77.826062,166.645312 77.906005,166.38177399999998 77.92815999999999,166.15683099999998 77.92815999999999,163.858577 77.906005,163.633634 77.826062,163.370096 77.696241,163.127218 77.521531,162.914333 77.308646,162.739623 77.06576799999999,162.609802 76.80223,162.529859 76.577287,162.507704 65.279033,162.507704 65.05409,162.529859 64.790552,162.609802 64.547674,162.739623 64.334789,162.914333 64.160079,163.127218 64.030258,163.370096 63.950314999999996,163.633634 63.92816,163.858577 63.92816,166.15683099999998" stroke="#1f6fb2" stroke-width="0.1" /><text fill="#0a3d62" font-family="sans-serif" font-size="1.6" text-anchor="middle" x="70.92815999999999" y="165.007704">06</text></svg>