<?xml version="1.0" encoding="utf-8" ?>
<svg baseProfile="full" height="217.421216cm" version="1.1" viewBox="0 0 118.0 217.421216" width="118.0cm" xmlns="http://www.w3.org/2000/svg" xmlns:ev="http://www.w3.org/2001/xml-events" xmlns:xlink="http://www.w3.org/1999/xlink"><defs /><rect fill="#f7f3ea" height="209.421216" stroke="#333" stroke-width="0.15" width="110.0" x="4.0" y="4.0" /><text fill="#000" font-family="sans-serif" font-size="1.4" x="4.0" y="3.0">PLANO DE CORTE — ancho 110 cm — largo 2.09 m</text><polygon fill="#cfe3f7" fill-opacity="0.5" points="4.0,74.416603 31.7,74.416603 31.7,27.040896999999998 31.100068,26.355189999999997 30.746677,25.952019 30.390684,25.547372 30.03155,25.141385 29.668433,24.733855 29.300496,24.324583999999998 28.926906,23.913380999999998 28.546843,23.500072 28.160414,23.085447 27.771075,22.671619 27.384597,22.259573 27.005541,21.848837 26.638339,21.439003 26.287416999999998,21.029882999999998 25.957145,20.621509 25.651775999999998,20.214145 25.375339999999998,19.80826 25.131521,19.404476000000003 24.923496,19.003424000000003 24.753785999999998,18.605459 24.623387,18.207824000000002 24.5304,17.802461 24.471646,17.383051000000002 24.445508,16.948132 24.450623999999998,16.49745 24.485547999999998,16.031382999999998 24.54861,15.550758 24.63787,15.056673 24.751132,14.550351000000001 24.885973,14.033047 25.039794999999998,13.505986 25.209865,12.970326 25.393345999999998,12.427143 25.587334,11.877422 25.788868,11.322057000000001 26.24783,10.074437 18.403983,4.0 17.229178,5.588299 16.664037,6.335345 16.096415,7.052375 15.522680000000001,7.7287360000000005 14.939796999999999,8.354008 14.345283,8.918338 13.736983,9.412908 13.112454,9.830471 12.466975999999999,10.166091000000002 11.784701,10.420415 11.049547,10.603461 10.260290000000001,10.725571 9.42385,10.796249 8.548389,10.826540000000001 7.642187,10.828863 6.706551,10.816603 4.0,10.816603 4.0,74.416603" stroke="#1f6fb2" stroke-width="0.1" /><text fill="#0a3d62" font-family="sans-serif" font-size="1.6" text-anchor="middle" x="17.85" y="39.2083015">01</text><polygon fill="#cfe3f7" fill-opacity="0.5" points="32.7,74.416603 60.400000000000006,74.416603 60.400000000000006,27.040896999999998 59.800068,26.355189999999997 59.446677,25.952019 59.090684,25.547372 58.73155,25.141385 58.368433,24.733855 58.000496,24.324583999999998 57.626906000000005,23.913380999999998 57.246843,23.500072 56.860414000000006,23.085447 56.471075,22.671619 56.084597,22.259573 55.705541000000004,21.848837 55.338339000000005,21.439003 54.987417,21.029882999999998 54.657145,20.621509 54.351776,20.214145 54.07534,19.80826 53.831521,19.404476000000003 53.623496,19.003424000000003 53.453786,18.605459 53.323387000000004,18.207824000000002 53.2304,17.802461 53.171646,17.383051000000002 53.14550800000001,16.948132 53.150624,16.49745 53.185548,16.031382999999998 53.24861,15.550758 53.33787,15.056673 53.451132,14.550351000000001 53.585973,14.033047 53.739795,13.505986 53.909865,12.970326 54.093346,12.427143 54.287334,11.877422 54.488868000000004,11.322057000000001 54.94783,10.074437 47.103983,4.0 45.92917800000001,5.588299 45.364037,6.335345 44.796415,7.052375 44.222680000000004,7.7287360000000005 43.639797,8.354008 43.045283000000005,8.918338 42.436983000000005,9.412908 41.812454,9.830471 41.166976000000005,10.166091000000002 40.484701,10.420415 39.74954700000001,10.603461 38.96029,10.725571 38.123850000000004,10.796249 37.248389,10.826540000000001 36.342187,10.828863 35.406551,10.816603 32.7,10.816603 32.7,74.416603" stroke="#1f6fb2" stroke-width="0.1" /><text fill="#0a3d62" font-family="sans-serif" font-size="1.6" text-anchor="middle" x="46.550000000000004" y="39.2083015">01</text><polygon fill="#cfe3f7" fill-opacity="0.5" points="61.4,74.267704 69.40722,74.267704 69.001177,17.827772 73.22492199999999,5.262131 70.700661,4.0 70.004548,4.928368 69.808809,5.189983 69.612994,5.452847 69.417382,5.717166 69.222256,5.98315 69.0279,6.251011999999999 68.834603,6.520965 68.642656,6.793221 68.452355,7.067997 68.26399599999999,7.345508 68.077882,7.6259689999999996 67.894319,7.909597 67.713615,8.196606 67.536242,8.486951000000001 67.363303,8.779094 67.195078,9.070626 67.03075,9.360295 66.869275,9.647313 66.709653,9.930903 66.550927,10.210297 66.392184,10.484739000000001 66.232553,10.753489 66.071203,11.015827 65.907341,11.271062 65.740206,11.518545 65.569058,11.757678 65.39316099999999,11.987943000000001 65.210869,12.210004 65.019404,12.426846 64.81765,12.641195 64.606278,12.853889 64.386212,13.065588 64.158442,13.27698 63.924011,13.488792 63.722425,13.667704 61.4,13.667704 61.4,74.267704" stroke="#1f6fb2" stroke-width="0.1" /><text fill="#0a3d62" font-family="sans-serif" font-size="1.6" text-anchor="middle" x="67.312461" y="39.133852">09</text><polygon fill="#cfe3f7" fill-opacity="0.5" points="74.22492199999999,74.267704 82.232142,74.267704 81.826099,17.827772 86.049844,5.262131 83.525583,4.0 82.82946999999999,4.928368 82.633731,5.189983 82.43791599999999,5.452847 82.24230399999999,5.717166 82.04717799999999,5.98315 81.85282199999999,6.251011999999999 81.65952499999999,6.520965 81.46757799999999,6.793221 81.277277,7.067997 81.08891799999999,7.345508 80.90280399999999,7.6259689999999996 80.719241,7.909597 80.53853699999999,8.196606 80.36116399999999,8.486951000000001 80.18822499999999,8.779094 80.02,9.070626 79.855672,9.360295 79.69419699999999,9.647313 79.53457499999999,9.930903 79.37584899999999,10.210297 79.21710599999999,10.484739000000001 79.057475,10.753489 78.896125,11.015827 78.73226299999999,11.271062 78.56512799999999,11.518545 78.39398,11.757678 78.218083,11.987943000000001 78.03579099999999,12.210004 77.844326,12.426846 77.64257199999999,12.641195 77.43119999999999,12.853889 77.21113399999999,13.065588 76.983364,13.27698 76.748933,13.488792 76.54734699999999,13.667704 74.22492199999999,13.667704 74.22492199999999,74.267704" stroke="#1f6fb2" stroke-width="0.1" /><text fill="#0a3d62" font-family="sans-serif" font-size="1.6" text-anchor="middle" x="80.137383" y="39.133852">09</text><polygon fill="#cfe3f7" fill-opacity="0.5" points="8.603537000000001,137.421216 34.432241,137.421216 39.044742,85.976226 38.338398999999995,85.191593 37.917592,84.729451 37.488116,84.268439 37.047919,83.811842 36.597245,83.364003 36.138323,82.92666299999999 35.672148,82.499308 35.19934,82.08106099999999 34.720508,81.671042 34.236247,81.26836999999999 33.747142,80.872164 33.253769,80.481546 32.756689,80.09563899999999 32.255796000000004,79.71306899999999 31.749057,79.332358 31.233977,78.95486199999999 30.709418,78.58349899999999 30.174402999999998,78.221395 29.6279,77.871732 29.068843,77.53776599999999 28.496148,77.222853 27.908752,76.93046 27.305661,76.664193 26.687530000000002,76.428365 26.059449,76.226219 25.427158,76.055194 24.792906000000002,75.910714 24.158237,75.788145 23.52457,75.68298499999999 22.893254,75.590875 22.265622,75.507598 21.544124,75.416603 20.808963,75.47054299999999 20.168217,75.521565 19.523647,75.581008 18.8764,75.653041 18.227627,75.74197199999999 17.578525,75.852246 16.930396000000002,75.98844299999999 16.284807,76.155239 15.645945000000001,76.35648499999999 15.019679,76.591408 14.408314,76.85575499999999 13.811256,77.146017 13.227674,77.458857 12.656686,77.79105 12.097394,78.13947499999999 11.548913,78.501092 11.010392,78.87292599999999 10.481016,79.252054 9.959197,79.636203 9.441979,80.02589599999999 8.928751,80.424362 8.421351,80.833787 7.9219930000000005,81.25614999999999 7.432948,81.693467 6.956562,82.147779 6.495274,82.621128 6.051633000000001,83.115527 5.628798,83.63232699999999 5.232445000000002,84.167585 4.862674000000002,84.710801 4.513476000000001,85.253997 4.0,86.076211 8.603537000000001,137.421216" stroke="#1f6fb2" stroke-width="0.1" /><text fill="#0a3d62" font-family="sans-serif" font-size="1.6" text-anchor="middle" x="21.522371" y="106.4189095">04</text><polygon fill="#cfe3f7" fill-opacity="0.5" points="44.648279,137.421216 70.47698299999999,137.421216 75.089484,85.976226 74.383141,85.191593 73.962334,84.729451 73.532858,84.268439 73.09266099999999,83.811842 72.641987,83.364003 72.183065,82.92666299999999 71.71689,82.499308 71.24408199999999,82.08106099999999 70.76525000000001,81.671042 70.280989,81.26836999999999 69.791884,80.872164 69.29851099999999,80.481546 68.80143100000001,80.09563899999999 68.300538,79.71306899999999 67.793799,79.332358 67.278719,78.95486199999999 66.75416,78.58349899999999 66.219145,78.221395 65.672642,77.871732 65.113585,77.53776599999999 64.54089,77.222853 63.953494,76.93046 63.350403,76.664193 62.732272,76.428365 62.104191,76.226219 61.4719,76.055194 60.837648,75.910714 60.202979,75.788145 59.569312,75.68298499999999 58.937996,75.590875 58.310364,75.507598 57.588865999999996,75.416603 56.853705,75.47054299999999 56.212959,75.521565 55.568388999999996,75.581008 54.921142,75.653041 54.272369,75.74197199999999 53.623267,75.852246 52.975138,75.98844299999999 52.329549,76.155239 51.690687,76.35648499999999 51.064420999999996,76.591408 50.453056000000004,76.85575499999999 49.855998,77.146017 49.272416,77.458857 48.701428,77.79105 48.142136,78.13947499999999 47.593655,78.501092 47.055133999999995,78.87292599999999 46.525757999999996,79.252054 46.003939,79.636203 45.486721,80.02589599999999 44.973493,80.424362 44.466093,80.833787 43.966735,81.25614999999999 43.477689999999996,81.693467 43.001304,82.147779 42.540016,82.621128 42.096375,83.115527 41.67354,83.63232699999999 41.277187,84.167585 40.907416,84.710801 40.558218,85.253997 40.044742,86.076211 44.648279,137.421216" stroke="#1f6fb2" stroke-width="0.1" /><text fill="#0a3d62" font-family="sans-serif" font-size="1.6" text-anchor="middle" x="57.567113" y="106.4189095">04</text><polygon fill="#cfe3f7" fill-opacity="0.5" points="54.0,151.119904 53.54488,150.43324099999998 53.256333999999995,149.997626 52.967847,149.56156 52.679368,149.12469599999997 52.390845,148.68668799999998 52.102226,148.247188 51.81346,147.80585 51.524504,147.36234299999998 51.235746,146.91695199999998 50.948979,146.47072799999998 50.666720999999995,146.02426799999998 50.391082,145.57752 50.124128999999996,145.130438 49.867903,144.683021 49.624413000000004,144.23530899999997 49.39562,143.787374 49.18343,143.33931199999998 48.989674,142.891224 48.816095000000004,142.443198 48.664342000000005,141.995272 48.535945,141.54734399999998 48.431893,141.097456 48.351451,140.641675 48.292833,140.17780499999998 48.254642000000004,139.70577999999998 48.203385999999995,138.421216 29.0,138.421216 29.0,198.421216 54.0,198.421216 54.0,151.119904 4.0,151.119904 4.455120000000001,150.43324099999998 4.743666000000001,149.997626 5.032153000000001,149.56156 5.320632,149.12469599999997 5.609155000000001,148.68668799999998 5.897773999999998,148.247188 6.186540000000001,147.80585 6.475496,147.36234299999998 6.764254000000001,146.91695199999998 7.051020999999999,146.47072799999998 7.333279000000001,146.02426799999998 7.608917999999999,145.57752 7.875871,145.130438 8.132097000000002,144.683021 8.375587,144.23530899999997 8.604379999999999,143.787374 8.816569999999999,143.33931199999998 9.010326,142.891224 9.183905,142.443198 9.335657999999999,141.995272 9.464054999999998,141.54734399999998 9.568107000000001,141.097456 9.648549,140.641675 9.707166999999998,140.17780499999998 9.745358,139.70577999999998 9.796614000000002,138.421216 29.0,138.421216 29.0,198.421216 4.0,198.421216 4.0,151.119904" stroke="#1f6fb2" stroke-width="0.1" /><text fill="#0a3d62" font-family="sans-serif" font-size="1.6" text-anchor="middle" x="29.0" y="168.421216">02</text><polygon fill="#cfe3f7" fill-opacity="0.5" points="55.0,149.693121 62.0,154.103121 69.0,149.693121 69.0,138.421216 55.0,138.421216 55.0,149.693121" stroke="#1f6fb2" stroke-width="0.1" /><text fill="#0a3d62" font-family="sans-serif" font-size="1.6" text-anchor="middle" x="62.0" y="146.26216849999997">10</text><polygon fill="#cfe3f7" fill-opacity="0.5" points="70.0,150.67034299999997 70.029841,150.973323 70.132547,151.31189799999999 70.299332,151.623931 70.523786,151.89742999999999 70.797285,152.121884 71.109318,152.288669 71.447893,152.39137499999998 71.750873,152.421216 93.249127,152.421216 93.552107,152.39137499999998 93.890682,152.288669 94.202715,152.121884 94.476214,151.89742999999999 94.70066800000001,151.623931 94.867453,151.31189799999999 94.970159,150.973323 95.0,150.67034299999997 95.0,140.172089 94.970159,139.86910899999998 94.867453,139.530534 94.70066800000001,139.21850099999997 94.476214,138.945002 94.202715,138.72054799999998 93.890682,138.55376299999998 93.552107,138.451057 93.249127,138.421216 71.750873,138.421216 71.447893,138.451057 71.109318,138.55376299999998 70.797285,138.72054799999998 70.523786,138.945002 70.299332,139.21850099999997 70.132547,139.530534 70.029841,139.86910899999998 70.0,140.172089 70.0,150.67034299999997" stroke="#1f6fb2" stroke-width="0.1" /><text fill="#0a3d62" font-family="sans-serif" font-size="1.6" text-anchor="middle" x="82.5" y="145.421216">05</text><polygon fill="#cfe3f7" fill-opacity="0.5" points="4.0,211.67034299999997 4.029841,211.973323 4.132547,212.31189799999999 4.299332,212.623931 4.523786,212.89742999999999 4.7972850000000005,213.121884 5.109318,213.288669 5.4478930000000005,213.39137499999998 5.750873,213.421216 27.249127,213.421216 27.552107,213.39137499999998 27.890682,213.288669 28.202715,213.121884 28.476214,212.89742999999999 28.700668,212.623931 28.867453,212.31189799999999 28.970159,211.973323 29.0,211.67034299999997 29.0,201.172089 28.970159,200.86910899999998 28.867453,200.530534 28.700668,200.21850099999997 28.476214,199.945002 28.202715,199.72054799999998 27.890682,199.55376299999998 27.552107,199.451057 27.249127,199.421216 5.750873,199.421216 5.4478930000000005,199.451057 5.109318,199.55376299999998 4.7972850000000005,199.72054799999998 4.523786,199.945002 4.299332,200.21850099999997 4.132547,200.530534 4.029841,200.86910899999998 4.0,201.172089 4.0,211.67034299999997" stroke="#1f6fb2" stroke-width="0.1" /><text fill="#0a3d62" font-family="sans-serif" font-size="1.6" text-anchor="middle" x="16.5" y="206.421216">05</text><polygon fill="#cfe3f7" fill-opacity="0.5" points="69.109812,210.34727999999998 69.10827,209.85959899999997 69.12286,209.36461599999998 69.152042,208.862765 69.194218,208.354512 69.247736,207.84033699999998 69.310889,207.320721 69.381927,206.796134 69.459058,206.26702799999998 69.540457,205.73383099999998 69.74864600000001,204.40010199999998 56.845692,199.421216 56.206584,199.855327 56.003755,199.991816 55.803425000000004,200.124114 55.605097,200.25141299999999 55.408291,200.372963 55.212533,200.48807499999998 55.016683,200.59649299999998 54.818733,200.69876699999998 54.617676,200.79540599999999 54.4137,200.886317 54.207108000000005,200.971355 53.998204,201.050379 53.787293000000005,201.123256 53.574684000000005,201.189857 53.360684,201.250058 53.145601,201.303744 52.929643999999996,201.350825 52.712165999999996,201.391414 52.492015,201.42600099999999 52.268762,201.455076 52.042410000000004,201.47906099999997 51.81299,201.49838899999997 51.580557,201.51350799999997 51.345178000000004,201.524882 51.106932,201.53299399999997 50.865904,201.538342 50.622182,201.54144599999998 50.375856,201.542838 50.127012,201.543073 49.874323000000004,201.54271599999998 49.874323000000004,211.54271699999998 69.157512,211.54271699999998 69.109812,210.34727999999998 30.638834,210.34727999999998 30.640376,209.85959899999997 30.625786,209.36461599999998 30.596604,208.862765 30.554428,208.354512 30.50091,207.84033699999998 30.437757,207.320721 30.366719,206.796134 30.289588000000002,206.26702799999998 30.208189,205.73383099999998 30.0,204.40010199999998 42.902954,199.421216 43.542062,199.855327 43.744890999999996,199.991816 43.945221000000004,200.124114 44.143549,200.25141299999999 44.340355,200.372963 44.536113,200.48807499999998 44.731963,200.59649299999998 44.929913,200.69876699999998 45.130970000000005,200.79540599999999 45.334946,200.886317 45.541538,200.971355 45.750442,201.050379 45.961353,201.123256 46.173962,201.189857 46.387962,201.250058 46.603045,201.303744 46.819002,201.350825 47.03648,201.391414 47.256631,201.42600099999999 47.479884,201.455076 47.706236000000004,201.47906099999997 47.935656,201.49838899999997 48.168089,201.51350799999997 48.403468000000004,201.524882 48.641714,201.53299399999997 48.882742,201.538342 49.126464,201.54144599999998 49.37279,201.542838 49.621634,201.543073 49.874323000000004,201.54271599999998 49.874323000000004,211.54271699999998 30.591134,211.54271699999998 30.638834,210.34727999999998" stroke="#1f6fb2" stroke-width="0.1" /><text fill="#0a3d62" font-family="sans-serif" font-size="1.6" text-anchor="middle" x="49.874323000000004" y="205.4819665">03</text><polygon fill="#cfe3f7" fill-opacity="0.5" points="70.74864600000001,203.07034299999998 70.770801,203.29528599999998 70.850744,203.558824 70.98056500000001,203.80170199999998 71.155275,204.01458699999998 71.36816,204.18929699999998 71.61103800000001,204.31911799999997 71.874576,204.399061 72.09951900000002,204.421216 83.397773,204.421216 83.62271600000001,204.399061 83.88625400000001,204.31911799999997 84.12913200000001,204.18929699999998 84.34201700000001,204.01458699999998 84.516727,203.80170199999998 84.64654800000001,203.558824 84.72649100000001,203.29528599999998 84.74864600000001,203.07034299999998 84.74864600000001,200.772089 84.72649100000001,200.547146 84.64654800000001,200.283608 84.516727,200.04073 84.34201700000001,199.827845 84.12913200000001,199.653135 83.88625400000001,199.523314 83.62271600000001,199.44337099999998 83.397773,199.421216 72.09951900000002,199.421216 71.874576,199.44337099999998 71.61103800000001,199.523314 71.36816,199.653135 71.155275,199.827845 70.98056500000001,200.04073 70.850744,200.283608 70.770801,200.547146 70.74864600000001,200.772089 70.74864600000001,203.07034299999998" stroke="#1f6fb2" stroke-width="0.1" /><text fill="#0a3d62" font-family="sans-serif" font-size="1.6" text-anchor="middle" x="77.74864600000001" y="201.921216">06</text><polygon fill="#cfe3f7" fill-opacity="0.5" points="85.74864600000001,203.07034299999998 85.770801,203.29528599999998 85.850744,203.558824 85.98056500000001,203.80170199999998 86.155275,204.01458699999998 86.36816,204.18929699999998 86.61103800000001,204.31911799999997 86.874576,204.399061 87.09951900000002,204.421216 98.397773,204.421216 98.62271600000001,204.399061 98.88625400000001,204.31911799999997 99.12913200000001,204.18929699999998 99.34201700000001,204.01458699999998 99.516727,203.80170199999998 99.64654800000001,203.558824 99.72649100000001,203.29528599999998 99.74864600000001,203.07034299999998 99.74864600000001,200.772089 99.72649100000001,200.547146 99.64654800000001,200.283608 99.516727,200.04073 99.34201700000001,199.827845 99.12913200000001,199.653135 98.88625400000001,199.523314 98.62271600000001,199.44337099999998 98.397773,199.421216 87.09951900000002,199.421216 86.874576,199.44337099999998 86.61103800000001,199.523314 86.36816,199.653135 86.155275,199.827845 85.98056500000001,200.04073 85.850744,200.283608 85.770801,200.547146 85.74864600000001,200.772089 85.74864600000001,203.07034299999998" stroke="#1f6fb2" stroke-width="0.1" /><text fill="#0a3d62" font-family="sans-serif" font-size="1.6" text-anchor="middle" x="92.74864600000001" y="201.921216">06</text></svg>