<?xml version="1.0" encoding="utf-8" ?>
<svg baseProfile="full" height="139.189205cm" version="1.1" viewBox="0 0 168.0 139.189205" width="168.0cm" xmlns="http://www.w3.org/2000/svg" xmlns:ev="http://www.w3.org/2001/xml-events" xmlns:xlink="http://www.w3.org/1999/xlink"><defs /><rect fill="#f7f3ea" height="131.189205" stroke="#333" stroke-width="0.15" width="160.0" x="4.0" y="4.0" /><text fill="#000" font-family="sans-serif" font-size="1.4" x="4.0" y="3.0">PLANO DE CORTE — ancho 160 cm — largo 1.31 m</text><polygon fill="#cfe3f7" fill-opacity="0.5" points="4.0,74.267704 12.00722,74.267704 11.601177,17.827772 15.824922,5.262131 13.300661,4.0 12.604548000000001,4.928368 12.408809,5.189983 12.212994,5.452847 12.017382000000001,5.717166 11.822256,5.98315 11.6279,6.251011999999999 11.434603,6.520965 11.242656,6.793221 11.052355,7.067997 10.863996,7.345508 10.677882,7.6259689999999996 10.494319,7.909597 10.313615,8.196606 10.136242,8.486951000000001 9.963303,8.779094 9.795078,9.070626 9.63075,9.360295 9.469275,9.647313 9.309653,9.930903 9.150927,10.210297 8.992184,10.484739000000001 8.832553,10.753489 8.671203,11.015827 8.507341,11.271062 8.340206,11.518545 8.169058,11.757678 7.993161000000001,11.987943000000001 7.810869,12.210004 7.619404,12.426846 7.41765,12.641195 7.206278,12.853889 6.986212,13.065588 6.7584420000000005,13.27698 6.524011,13.488792 6.322425,13.667704 4.0,13.667704 4.0,74.267704" stroke="#1f6fb2" stroke-width="0.1" /><text fill="#0a3d62" font-family="sans-serif" font-size="1.6" text-anchor="middle" x="9.912461" y="39.133852">09</text><polygon fill="#cfe3f7" fill-opacity="0.5" points="16.824922,74.267704 24.832142,74.267704 24.426099,17.827772 28.649844,5.262131 26.125583,4.0 25.429470000000002,4.928368 25.233731,5.189983 25.037916000000003,5.452847 24.842304000000002,5.717166 24.647178,5.98315 24.452822,6.251011999999999 24.259525,6.520965 24.067578,6.793221 23.877277,7.067997 23.688918,7.345508 23.502804,7.6259689999999996 23.319241,7.909597 23.138537,8.196606 22.961164,8.486951000000001 22.788225,8.779094 22.62,9.070626 22.455672,9.360295 22.294197,9.647313 22.134575,9.930903 21.975849,10.210297 21.817106000000003,10.484739000000001 21.657475,10.753489 21.496125,11.015827 21.332263,11.271062 21.165128000000003,11.518545 20.99398,11.757678 20.818083,11.987943000000001 20.635791,12.210004 20.444326,12.426846 20.242572000000003,12.641195 20.031200000000002,12.853889 19.811134000000003,13.065588 19.583364,13.27698 19.348933000000002,13.488792 19.147347,13.667704 16.824922,13.667704 16.824922,74.267704" stroke="#1f6fb2" stroke-width="0.1" /><text fill="#0a3d62" font-family="sans-serif" font-size="1.6" text-anchor="middle" x="22.737383" y="39.133852">09</text><polygon fill="#cfe3f7" fill-opacity="0.5" points="34.253381000000005,66.004613 60.082085,66.004613 64.694586,14.559622999999998 63.988243,13.774989999999999 63.567436,13.312847999999999 63.13796,12.851835999999999 62.697763,12.395239 62.247089,11.9474 61.788167,11.51006 61.321992,11.082705 60.849184,10.664458 60.370352000000004,10.254439 59.886091,9.851766999999999 59.396986,9.455561 58.903613,9.064943 58.406533,8.679036 57.905640000000005,8.296466 57.398901,7.915755 56.883821,7.538259 56.359262,7.1668959999999995 55.824247,6.804792 55.277744,6.4551289999999995 54.718687,6.121163 54.14599200000001,5.80625 53.558596,5.513857 52.955505,5.24759 52.337374000000004,5.011762 51.709293,4.809616 51.077002,4.638591 50.442750000000004,4.494111 49.808081,4.371542 49.174414,4.266382 48.543098,4.174272 47.915466,4.0909949999999995 47.193968,4.0 46.458807,4.05394 45.818061,4.104962 45.173491,4.164405 44.526244000000005,4.236438 43.877471,4.325369 43.228369,4.435643 42.58024,4.57184 41.934651,4.738636 41.295789,4.939882 40.669523,5.174805 40.058158000000006,5.439152 39.4611,5.729414 38.877518,6.042254 38.30653,6.374447 37.747238,6.722872 37.198757,7.084489 36.660236,7.456322999999999 36.13086,7.835451 35.609041000000005,8.2196 35.091823000000005,8.609293000000001 34.578595,9.007759 34.071195,9.417183999999999 33.571837,9.839547 33.082792,10.276864 32.606406,10.731176 32.145118000000004,11.204525 31.701477000000004,11.698924 31.278642,12.215724 30.882289000000004,12.750982 30.512518000000004,13.294198000000002 30.163320000000002,13.837394 29.649844,14.659607999999999 34.253381000000005,66.004613" stroke="#1f6fb2" stroke-width="0.1" /><text fill="#0a3d62" font-family="sans-serif" font-size="1.6" text-anchor="middle" x="47.172215" y="35.0023065">04</text><polygon fill="#cfe3f7" fill-opacity="0.5" points="70.298123,66.004613 96.12682699999999,66.004613 100.739328,14.559622999999998 100.032985,13.774989999999999 99.612178,13.312847999999999 99.182702,12.851835999999999 98.742505,12.395239 98.291831,11.9474 97.832909,11.51006 97.36673400000001,11.082705 96.893926,10.664458 96.41509400000001,10.254439 95.930833,9.851766999999999 95.441728,9.455561 94.94835499999999,9.064943 94.45127500000001,8.679036 93.950382,8.296466 93.44364300000001,7.915755 92.928563,7.538259 92.404004,7.1668959999999995 91.868989,6.804792 91.322486,6.4551289999999995 90.763429,6.121163 90.190734,5.80625 89.60333800000001,5.513857 89.000247,5.24759 88.382116,5.011762 87.754035,4.809616 87.121744,4.638591 86.487492,4.494111 85.852823,4.371542 85.219156,4.266382 84.58784,4.174272 83.960208,4.0909949999999995 83.23871,4.0 82.50354899999999,4.05394 81.862803,4.104962 81.218233,4.164405 80.570986,4.236438 79.922213,4.325369 79.273111,4.435643 78.624982,4.57184 77.979393,4.738636 77.340531,4.939882 76.714265,5.174805 76.1029,5.439152 75.505842,5.729414 74.92226,6.042254 74.351272,6.374447 73.79198,6.722872 73.243499,7.084489 72.704978,7.456322999999999 72.175602,7.835451 71.653783,8.2196 71.136565,8.609293000000001 70.623337,9.007759 70.115937,9.417183999999999 69.616579,9.839547 69.127534,10.276864 68.651148,10.731176 68.18986,11.204525 67.746219,11.698924 67.323384,12.215724 66.927031,12.750982 66.55726,13.294198000000002 66.208062,13.837394 65.694586,14.659607999999999 70.298123,66.004613" stroke="#1f6fb2" stroke-width="0.1" /><text fill="#0a3d62" font-family="sans-serif" font-size="1.6" text-anchor="middle" x="83.21695700000001" y="35.0023065">04</text><polygon fill="#cfe3f7" fill-opacity="0.5" points="101.739328,13.633067 101.739328,42.033066999999996 129.439328,42.033066999999996 129.439328,26.857360999999997 128.84,26.172342999999998 128.486005,25.768483 128.130012,25.363836 127.770878,24.957849 127.407761,24.550319 127.039824,24.141047999999998 126.666234,23.729844999999997 126.286171,23.316536 125.899742,22.901911 125.510403,22.488083 125.123925,22.076037 124.744869,21.665301 124.377667,21.255467 124.026745,20.846346999999998 123.696473,20.437973 123.391104,20.030609 123.114668,19.624724 122.87084899999999,19.22094 122.662824,18.819888 122.49311399999999,18.421923 122.36271500000001,18.024288 122.269728,17.618925 122.210974,17.199514999999998 122.184836,16.764596 122.189952,16.313914 122.224876,15.847847 122.287938,15.367222 122.37719799999999,14.873137 122.49046,14.366815 122.62530100000001,13.849511 122.779123,13.32245 122.94919300000001,12.78679 123.132674,12.243606999999999 123.326662,11.693886 123.52819600000001,11.138521 124.059732,9.693617 111.014017,4.0 110.343876,4.893731 110.148137,5.155346 109.952322,5.41821 109.75671,5.682529 109.561584,5.948513 109.367228,6.216374999999999 109.173931,6.486328 108.981984,6.758584 108.791683,7.03336 108.603324,7.310871 108.41721,7.5913319999999995 108.233647,7.87496 108.052943,8.161969 107.87557,8.452314000000001 107.702631,8.744457 107.534406,9.035989 107.370078,9.325658 107.208603,9.612676 107.048981,9.896266 106.890255,10.17566 106.731512,10.450102000000001 106.571881,10.718852 106.410531,10.98119 106.246669,11.236425 106.079534,11.483908 105.90838600000001,11.723041 105.732489,11.953306000000001 105.550197,12.175367 105.358732,12.392209 105.156978,12.606558 104.945606,12.819252 104.72554,13.030951 104.49777,13.242343 104.263339,13.454155 104.061753,13.633067 101.739328,13.633067" stroke="#1f6fb2" stroke-width="0.1" /><text fill="#0a3d62" font-family="sans-serif" font-size="1.6" text-anchor="middle" x="115.589328" y="23.016533499999998">01</text><polygon fill="#cfe3f7" fill-opacity="0.5" points="130.439328,13.633067 130.439328,42.033066999999996 158.13932799999998,42.033066999999996 158.13932799999998,26.857360999999997 157.54,26.172342999999998 157.186005,25.768483 156.83001199999998,25.363836 156.470878,24.957849 156.10776099999998,24.550319 155.739824,24.141047999999998 155.366234,23.729844999999997 154.98617099999998,23.316536 154.599742,22.901911 154.21040299999999,22.488083 153.82392499999997,22.076037 153.44486899999998,21.665301 153.077667,21.255467 152.726745,20.846346999999998 152.396473,20.437973 152.09110399999997,20.030609 151.81466799999998,19.624724 151.57084899999998,19.22094 151.362824,18.819888 151.19311399999998,18.421923 151.062715,18.024288 150.96972799999998,17.618925 150.91097399999998,17.199514999999998 150.88483599999998,16.764596 150.889952,16.313914 150.92487599999998,15.847847 150.98793799999999,15.367222 151.07719799999998,14.873137 151.19045999999997,14.366815 151.325301,13.849511 151.479123,13.32245 151.649193,12.78679 151.832674,12.243606999999999 152.026662,11.693886 152.228196,11.138521 152.75973199999999,9.693617 139.71401699999998,4.0 139.04387599999998,4.893731 138.84813699999998,5.155346 138.652322,5.41821 138.45671,5.682529 138.261584,5.948513 138.067228,6.216374999999999 137.873931,6.486328 137.681984,6.758584 137.491683,7.03336 137.30332399999998,7.310871 137.11721,7.5913319999999995 136.93364699999998,7.87496 136.752943,8.161969 136.57557,8.452314000000001 136.40263099999999,8.744457 136.23440599999998,9.035989 136.070078,9.325658 135.908603,9.612676 135.748981,9.896266 135.59025499999998,10.17566 135.431512,10.450102000000001 135.27188099999998,10.718852 135.11053099999998,10.98119 134.94666899999999,11.236425 134.77953399999998,11.483908 134.608386,11.723041 134.43248899999998,11.953306000000001 134.250197,12.175367 134.058732,12.392209 133.856978,12.606558 133.645606,12.819252 133.42553999999998,13.030951 133.19777,13.242343 132.963339,13.454155 132.761753,13.633067 130.439328,13.633067" stroke="#1f6fb2" stroke-width="0.1" /><text fill="#0a3d62" font-family="sans-serif" font-size="1.6" text-anchor="middle" x="144.28932799999998" y="23.016533499999998">01</text><polygon fill="#cfe3f7" fill-opacity="0.5" points="53.256333999999995,86.84411399999999 52.967847,86.408048 52.679368,85.971184 52.390845,85.533176 52.102226,85.09367599999999 51.81346,84.65233799999999 51.524504,84.208831 51.235746,83.76344 50.948979,83.317216 50.666720999999995,82.870756 50.391082,82.42400799999999 50.124128999999996,81.97692599999999 49.867903,81.52950899999999 49.624413000000004,81.081797 49.39562,80.633862 49.18343,80.1858 48.989674,79.73771199999999 48.816095000000004,79.28968599999999 48.664342000000005,78.84176 48.535945,78.39383199999999 48.431893,77.94394399999999 48.351451,77.488163 48.292833,77.024293 48.254642000000004,76.552268 48.203385999999995,75.267704 29.0,75.267704 29.0,103.06770399999999 54.0,103.06770399999999 54.0,87.966392 53.54488,87.279729 53.256333999999995,86.84411399999999 4.743666000000001,86.84411399999999 5.032153000000001,86.408048 5.320632,85.971184 5.609155000000001,85.533176 5.897773999999998,85.09367599999999 6.186540000000001,84.65233799999999 6.475496,84.208831 6.764254000000001,83.76344 7.051020999999999,83.317216 7.333279000000001,82.870756 7.608917999999999,82.42400799999999 7.875871,81.97692599999999 8.132097000000002,81.52950899999999 8.375587,81.081797 8.604379999999999,80.633862 8.816569999999999,80.1858 9.010326,79.73771199999999 9.183905,79.28968599999999 9.335657999999999,78.84176 9.464054999999998,78.39383199999999 9.568107000000001,77.94394399999999 9.648549,77.488163 9.707166999999998,77.024293 9.745358,76.552268 9.796614000000002,75.267704 29.0,75.267704 29.0,103.06770399999999 4.0,103.06770399999999 4.0,87.966392 4.455120000000001,87.279729 4.743666000000001,86.84411399999999" stroke="#1f6fb2" stroke-width="0.1" /><text fill="#0a3d62" font-family="sans-serif" font-size="1.6" text-anchor="middle" x="29.0" y="89.16770399999999">02</text><polygon fill="#cfe3f7" fill-opacity="0.5" points="55.0,75.267704 55.0,93.267704 94.52602300000001,93.267704 82.227887,75.267704 55.0,75.267704" stroke="#1f6fb2" stroke-width="0.1" /><text fill="#0a3d62" font-family="sans-serif" font-size="1.6" text-anchor="middle" x="74.7630115" y="84.267704">31</text><polygon fill="#cfe3f7" fill-opacity="0.5" points="95.52602300000001,75.267704 95.52602300000001,93.267704 135.05204600000002,93.267704 122.75391,75.267704 95.52602300000001,75.267704" stroke="#1f6fb2" stroke-width="0.1" /><text fill="#0a3d62" font-family="sans-serif" font-size="1.6" text-anchor="middle" x="115.28903450000001" y="84.267704">31</text><polygon fill="#cfe3f7" fill-opacity="0.5" points="40.826023,122.06770399999999 77.652046,122.06770399999999 65.35391,104.06770399999999 40.826023,104.06770399999999 40.826023,122.06770399999999 40.826023,122.06770399999999 4.0,122.06770399999999 16.298136,104.06770399999999 40.826023,104.06770399999999 40.826023,122.06770399999999" stroke="#1f6fb2" stroke-width="0.1" /><text fill="#0a3d62" font-family="sans-serif" font-size="1.6" text-anchor="middle" x="40.826023" y="113.06770399999999">32</text><polygon fill="#cfe3f7" fill-opacity="0.5" points="78.652046,115.339609 85.652046,119.74960899999999 92.652046,115.339609 92.652046,104.06770399999999 78.652046,104.06770399999999 78.652046,115.339609" stroke="#1f6fb2" stroke-width="0.1" /><text fill="#0a3d62" font-family="sans-serif" font-size="1.6" text-anchor="middle" x="85.652046" y="111.90865649999999">10</text><polygon fill="#cfe3f7" fill-opacity="0.5" points="93.652046,116.316831 93.681887,116.619811 93.784593,116.95838599999999 93.951378,117.27041899999999 94.175832,117.54391799999999 94.449331,117.768372 94.761364,117.93515699999999 95.09993899999999,118.03786299999999 95.402919,118.06770399999999 116.901173,118.06770399999999 117.20415299999999,118.03786299999999 117.542728,117.93515699999999 117.854761,117.768372 118.12826,117.54391799999999 118.35271399999999,117.27041899999999 118.519499,116.95838599999999 118.622205,116.619811 118.652046,116.316831 118.652046,105.81857699999999 118.622205,105.51559699999999 118.519499,105.177022 118.35271399999999,104.864989 118.12826,104.59149 117.854761,104.367036 117.542728,104.200251 117.20415299999999,104.097545 116.901173,104.06770399999999 95.402919,104.06770399999999 95.09993899999999,104.097545 94.761364,104.200251 94.449331,104.367036 94.175832,104.59149 93.951378,104.864989 93.784593,105.177022 93.681887,105.51559699999999 93.652046,105.81857699999999 93.652046,116.316831" stroke="#1f6fb2" stroke-width="0.1" /><text fill="#0a3d62" font-family="sans-serif" font-size="1.6" text-anchor="middle" x="106.152046" y="111.06770399999999">05</text><polygon fill="#cfe3f7" fill-opacity="0.5" points="119.652046,116.316831 119.681887,116.619811 119.784593,116.95838599999999 119.951378,117.27041899999999 120.175832,117.54391799999999 120.449331,117.768372 120.761364,117.93515699999999 121.09993899999999,118.03786299999999 121.402919,118.06770399999999 142.901173,118.06770399999999 143.204153,118.03786299999999 143.542728,117.93515699999999 143.854761,117.768372 144.12826,117.54391799999999 144.352714,117.27041899999999 144.519499,116.95838599999999 144.622205,116.619811 144.65204599999998,116.316831 144.65204599999998,105.81857699999999 144.622205,105.51559699999999 144.519499,105.177022 144.352714,104.864989 144.12826,104.59149 143.854761,104.367036 143.542728,104.200251 143.204153,104.097545 142.901173,104.06770399999999 121.402919,104.06770399999999 121.09993899999999,104.097545 120.761364,104.200251 120.449331,104.367036 120.175832,104.59149 119.951378,104.864989 119.784593,105.177022 119.681887,105.51559699999999 119.652046,105.81857699999999 119.652046,116.316831" stroke="#1f6fb2" stroke-width="0.1" /><text fill="#0a3d62" font-family="sans-serif" font-size="1.6" text-anchor="middle" x="132.15204599999998" y="111.06770399999999">05</text><polygon fill="#cfe3f7" fill-opacity="0.5" points="43.109812000000005,133.993768 43.108270000000005,133.50608699999998 43.12286,133.011104 43.152042,132.509253 43.194218,132.001 43.247736,131.48682499999998 43.310889,130.967209 43.381927000000005,130.442622 43.459058,129.913516 43.540457,129.380319 43.748646,128.04658999999998 30.845692,123.06770399999999 30.206584,123.501815 30.003755,123.63830399999999 29.803425,123.770602 29.605097,123.89790099999999 29.408291,124.01945099999999 29.212533,124.13456299999999 29.016683,124.24298099999999 28.818733,124.345255 28.617676,124.44189399999999 28.4137,124.532805 28.207108,124.617843 27.998204,124.696867 27.787293000000002,124.76974399999999 27.574684,124.836345 27.360684,124.89654599999999 27.145601,124.95023199999999 26.929644,124.99731299999999 26.712166,125.03790199999999 26.492015000000002,125.07248899999999 26.268762000000002,125.101564 26.04241,125.12554899999999 25.81299,125.144877 25.580557,125.15999599999999 25.345178,125.17137 25.106932,125.179482 24.865904,125.18482999999999 24.622182000000002,125.187934 24.375856,125.189326 24.127012,125.189561 23.874323,125.18920399999999 23.874323,135.189205 43.157512,135.189205 43.109812000000005,133.993768 4.638833999999999,133.993768 4.640376,133.50608699999998 4.6257860000000015,133.011104 4.596603999999999,132.509253 4.5544280000000015,132.001 4.500910000000001,131.48682499999998 4.437757000000001,130.967209 4.366719,130.442622 4.289588000000002,129.913516 4.208189000000001,129.380319 4.0,128.04658999999998 16.902954,123.06770399999999 17.542062,123.501815 17.744891,123.63830399999999 17.945221,123.770602 18.143549,123.89790099999999 18.340355000000002,124.01945099999999 18.536113,124.13456299999999 18.731963,124.24298099999999 18.929913,124.345255 19.13097,124.44189399999999 19.334946000000002,124.532805 19.541538,124.617843 19.750442,124.696867 19.961353000000003,124.76974399999999 20.173962,124.836345 20.387962,124.89654599999999 20.603045,124.95023199999999 20.819002,124.99731299999999 21.03648,125.03790199999999 21.256631,125.07248899999999 21.479884,125.101564 21.706236,125.12554899999999 21.935656,125.144877 22.168089000000002,125.15999599999999 22.403468,125.17137 22.641714,125.179482 22.882742,125.18482999999999 23.126464,125.187934 23.372790000000002,125.189326 23.621634,125.189561 23.874323,125.18920399999999 23.874323,135.189205 4.591134,135.189205 4.638833999999999,133.993768" stroke="#1f6fb2" stroke-width="0.1" /><text fill="#0a3d62" font-family="sans-serif" font-size="1.6" text-anchor="middle" x="23.874323" y="129.1284545">03</text><polygon fill="#cfe3f7" fill-opacity="0.5" points="67.404015,129.92268099999998 67.895505,130.011978 68.387048,130.096181 68.878641,130.175289 69.370282,130.2493 69.86196699999999,130.318213 70.35369399999999,130.382027 70.84546,130.44074 71.337261,130.494352 71.829095,130.542861 72.320959,130.586267 72.812849,130.62456799999998 73.304762,130.657764 73.796695,130.685854 74.288645,130.708837 74.780608,130.726714 75.272582,130.739483 75.764562,130.747145 76.256545,130.749698 76.748528,130.747145 77.240508,130.739483 77.732482,130.726714 78.224445,130.708837 78.716395,130.685854 79.208328,130.657764 79.700241,130.62456799999998 80.19213099999999,130.586267 80.68399500000001,130.542861 81.175829,130.494352 81.66763,130.44074 82.159396,130.382027 82.651123,130.318213 83.142808,130.2493 83.63444899999999,130.175289 84.126042,130.096181 84.61758499999999,130.011978 85.10907499999999,129.92268099999998 85.39342400000001,129.868067 87.445146,133.287604 88.50036399999999,132.888621 86.68727200000001,123.06770399999999 85.21345600000001,123.36607699999999 84.741687,123.456689 84.269973,123.54239199999999 83.79831200000001,123.623189 83.326701,123.69908099999999 82.85513800000001,123.77006999999999 82.38361900000001,123.83615699999999 81.91214199999999,123.89734299999999 81.440704,123.95362999999999 80.969301,124.00501799999999 80.497931,124.051509 80.026591,124.09310299999999 79.55527699999999,124.129802 79.08398600000001,124.16160599999999 78.61271500000001,124.18851599999999 78.14146099999999,124.210533 77.67022,124.227656 77.19899000000001,124.239887 76.727766,124.24722499999999 76.256545,124.24967199999999 75.785324,124.24722499999999 75.3141,124.239887 74.84287,124.227656 74.371629,124.210533 73.900375,124.18851599999999 73.429104,124.16160599999999 72.957813,124.129802 72.486499,124.09310299999999 72.015159,124.051509 71.543789,124.00501799999999 71.072386,123.95362999999999 70.600948,123.89734299999999 70.129471,123.83615699999999 69.657952,123.77006999999999 69.18638899999999,123.69908099999999 68.714778,123.623189 68.243117,123.54239199999999 67.77140299999999,123.456689 67.299634,123.36607699999999 66.624505,123.22939799999999 66.624505,129.769972 66.91257999999999,129.828293 67.404015,129.92268099999998 65.844995,129.92268099999998 65.353505,130.011978 64.861962,130.096181 64.370369,130.175289 63.878727999999995,130.2493 63.387043,130.318213 62.895316,130.382027 62.403549999999996,130.44074 61.911749,130.494352 61.419915,130.542861 60.928050999999996,130.586267 60.436161,130.62456799999998 59.944248,130.657764 59.452315,130.685854 58.960364999999996,130.708837 58.468402,130.726714 57.976428,130.739483 57.484448,130.747145 56.992464999999996,130.749698 56.500482,130.747145 56.008502,130.739483 55.516528,130.726714 55.024564999999996,130.708837 54.532615,130.685854 54.040682,130.657764 53.548769,130.62456799999998 53.056878999999995,130.586267 52.565015,130.542861 52.073181,130.494352 51.581379999999996,130.44074 51.089614,130.382027 50.597887,130.318213 50.106201999999996,130.2493 49.614560999999995,130.175289 49.122968,130.096181 48.631425,130.011978 48.139934999999994,129.92268099999998 47.855586,129.868067 45.803864000000004,133.287604 44.748646,132.888621 46.561738,123.06770399999999 48.035554,123.36607699999999 48.507323,123.456689 48.979037,123.54239199999999 49.450698,123.623189 49.922309,123.69908099999999 50.393872,123.77006999999999 50.865391,123.83615699999999 51.336867999999996,123.89734299999999 51.808306,123.95362999999999 52.279709,124.00501799999999 52.751079,124.051509 53.222419,124.09310299999999 53.693733,124.129802 54.165024,124.16160599999999 54.636295,124.18851599999999 55.107549,124.210533 55.57879,124.227656 56.05002,124.239887 56.521243999999996,124.24722499999999 56.992464999999996,124.24967199999999 57.463685999999996,124.24722499999999 57.93491,124.239887 58.40614,124.227656 58.877381,124.210533 59.348635,124.18851599999999 59.819906,124.16160599999999 60.291197,124.129802 60.762511,124.09310299999999 61.233851,124.051509 61.705220999999995,124.00501799999999 62.176624000000004,123.95362999999999 62.648061999999996,123.89734299999999 63.119539,123.83615699999999 63.591058000000004,123.77006999999999 64.06262100000001,123.69908099999999 64.534232,123.623189 65.005893,123.54239199999999 65.477607,123.456689 65.949376,123.36607699999999 66.624505,123.22939799999999 66.624505,129.769972 66.33643000000001,129.828293 65.844995,129.92268099999998" stroke="#1f6fb2" stroke-width="0.1" /><text fill="#0a3d62" font-family="sans-serif" font-size="1.6" text-anchor="middle" x="66.624505" y="128.177654">07</text><polygon fill="#cfe3f7" fill-opacity="0.5" points="112.37654899999998,128.37024599999998 112.90808399999999,128.441239 113.43964,128.508178 113.971216,128.57106199999998 114.50281199999999,128.629891 115.034426,128.684665 115.56605699999999,128.73538399999998 116.097704,128.78204599999998 116.62936499999999,128.824651 117.16103899999999,128.8632 117.692725,128.897692 118.22442199999999,128.928127 118.75612799999999,128.954504 119.28784199999998,128.976824 119.81956199999999,128.995086 120.35128799999998,129.009289 120.88301799999999,129.019435 121.41475,129.025522 121.946484,129.027551 122.478218,129.025522 123.00994999999999,129.019435 123.54167999999999,129.009289 124.07340599999999,128.995086 124.60512599999998,128.976824 125.13683999999999,128.954504 125.66854599999999,128.928127 126.20024299999999,128.897692 126.731929,128.8632 127.26360299999999,128.824651 127.79526399999999,128.78204599999998 128.326911,128.73538399999998 128.858542,128.684665 129.390156,128.629891 129.921752,128.57106199999998 130.453328,128.508178 130.984884,128.441239 131.51641899999998,128.37024599999998 132.04793,128.2952 133.42852399999998,128.089732 133.42852399999998,123.06770399999999 131.76091399999999,123.31588799999999 131.24422099999998,123.388842 130.727552,123.457849 130.21090399999997,123.52291 129.694276,123.584026 129.17766799999998,123.64119699999999 128.66107799999997,123.69442299999999 128.14450499999998,123.743704 127.62794799999999,123.789042 127.11140499999999,123.83043699999999 126.59487499999999,123.867888 126.07835699999998,123.90139599999999 125.56184999999999,123.930961 125.045352,123.95658399999999 124.52886199999999,123.978264 124.01237799999998,123.99600199999999 123.49589999999999,124.00979899999999 122.97942599999999,124.01965299999999 122.462954,124.025566 121.946484,124.027537 121.43001399999999,124.025566 120.91354199999999,124.01965299999999 120.39706799999999,124.00979899999999 119.88058999999998,123.99600199999999 119.36410599999999,123.978264 118.84761599999999,123.95658399999999 118.33111799999999,123.930961 117.81461099999999,123.90139599999999 117.298093,123.867888 116.78156299999999,123.83043699999999 116.26501999999999,123.789042 115.74846299999999,123.743704 115.23188999999999,123.69442299999999 114.71529999999998,123.64119699999999 114.198692,123.584026 113.682064,123.52291 113.165416,123.457849 112.64874699999999,123.388842 112.13205399999998,123.31588799999999 111.46444399999999,123.21652999999999 111.46444399999999,128.23855799999998 111.84503799999999,128.2952 112.37654899999998,128.37024599999998 110.55233899999999,128.37024599999998 110.020804,128.441239 109.48924799999999,128.508178 108.95767199999999,128.57106199999998 108.426076,128.629891 107.89446199999999,128.684665 107.36283099999999,128.73538399999998 106.831184,128.78204599999998 106.299523,128.824651 105.76784899999998,128.8632 105.23616299999999,128.897692 104.704466,128.928127 104.17275999999998,128.954504 103.64104599999999,128.976824 103.109326,128.995086 102.57759999999999,129.009289 102.04587,129.019435 101.51413799999999,129.025522 100.98240399999999,129.027551 100.45066999999999,129.025522 99.918938,129.019435 99.38720799999999,129.009289 98.855482,128.995086 98.32376199999999,128.976824 97.792048,128.954504 97.260342,128.928127 96.72864499999999,128.897692 96.19695899999999,128.8632 95.66528499999998,128.824651 95.133624,128.78204599999998 94.60197699999999,128.73538399999998 94.07034599999999,128.684665 93.53873199999998,128.629891 93.00713599999999,128.57106199999998 92.47555999999999,128.508178 91.94400399999999,128.441239 91.41246899999999,128.37024599999998 90.88095799999999,128.2952 89.50036399999999,128.089732 89.50036399999999,123.06770399999999 91.16797399999999,123.31588799999999 91.68466699999999,123.388842 92.201336,123.457849 92.71798399999999,123.52291 93.234612,123.584026 93.75121999999999,123.64119699999999 94.26781,123.69442299999999 94.78438299999999,123.743704 95.30094,123.789042 95.817483,123.83043699999999 96.33401299999998,123.867888 96.85053099999999,123.90139599999999 97.367038,123.930961 97.88353599999999,123.95658399999999 98.400026,123.978264 98.91650999999999,123.99600199999999 99.432988,124.00979899999999 99.94946199999998,124.01965299999999 100.46593399999999,124.025566 100.98240399999999,124.027537 101.49887399999999,124.025566 102.015346,124.01965299999999 102.53181999999998,124.00979899999999 103.04829799999999,123.99600199999999 103.564782,123.978264 104.08127199999998,123.95658399999999 104.59777,123.930961 105.11427699999999,123.90139599999999 105.63079499999999,123.867888 106.147325,123.83043699999999 106.663868,123.789042 107.18042499999999,123.743704 107.696998,123.69442299999999 108.21358799999999,123.64119699999999 108.73019599999999,123.584026 109.24682399999999,123.52291 109.763472,123.457849 110.28014099999999,123.388842 110.79683399999999,123.31588799999999 111.46444399999999,123.21652999999999 111.46444399999999,128.23855799999998 111.08384999999998,128.2952 110.55233899999999,128.37024599999998" stroke="#1f6fb2" stroke-width="0.1" /><text fill="#0a3d62" font-family="sans-serif" font-size="1.6" text-anchor="middle" x="111.46444399999999" y="126.04762749999999">08</text><polygon fill="#cfe3f7" fill-opacity="0.5" points="134.42852399999998,126.71683099999998 134.45067899999998,126.941774 134.530622,127.20531199999999 134.660443,127.44819 134.835153,127.661075 135.048038,127.83578499999999 135.29091599999998,127.965606 135.554454,128.045549 135.779397,128.067704 147.07765099999997,128.067704 147.30259399999997,128.045549 147.56613199999998,127.965606 147.80900999999997,127.83578499999999 148.02189499999997,127.661075 148.19660499999998,127.44819 148.32642599999997,127.20531199999999 148.40636899999998,126.941774 148.42852399999998,126.71683099999998 148.42852399999998,124.418577 148.40636899999998,124.19363399999999 148.32642599999997,123.93009599999999 148.19660499999998,123.68721799999999 148.02189499999997,123.47433299999999 147.80900999999997,123.299623 147.56613199999998,123.16980199999999 147.30259399999997,123.08985899999999 147.07765099999997,123.06770399999999 135.779397,123.06770399999999 135.554454,123.08985899999999 135.29091599999998,123.16980199999999 135.048038,123.299623 134.835153,123.47433299999999 134.660443,123.68721799999999 134.530622,123.93009599999999 134.45067899999998,124.19363399999999 134.42852399999998,124.418577 134.42852399999998,126.71683099999998" stroke="#1f6fb2" stroke-width="0.1" /><text fill="#0a3d62" font-family="sans-serif" font-size="1.6" text-anchor="middle" x="141.42852399999998" y="125.56770399999999">06</text><polygon fill="#cfe3f7" fill-opacity="0.5" points="149.42852399999998,126.71683099999998 149.45067899999998,126.941774 149.530622,127.20531199999999 149.660443,127.44819 149.835153,127.661075 150.048038,127.83578499999999 150.29091599999998,127.965606 150.554454,128.045549 150.779397,128.067704 162.07765099999997,128.067704 162.30259399999997,128.045549 162.56613199999998,127.965606 162.80900999999997,127.83578499999999 163.02189499999997,127.661075 163.19660499999998,127.44819 163.32642599999997,127.20531199999999 163.40636899999998,126.941774 163.42852399999998,126.71683099999998 163.42852399999998,124.418577 163.40636899999998,124.19363399999999 163.32642599999997,123.93009599999999 163.19660499999998,123.68721799999999 163.02189499999997,123.47433299999999 162.80900999999997,123.299623 162.56613199999998,123.16980199999999 162.30259399999997,123.08985899999999 162.07765099999997,123.06770399999999 150.779397,123.06770399999999 150.554454,123.08985899999999 150.29091599999998,123.16980199999999 150.048038,123.299623 149.835153,123.47433299999999 149.660443,123.68721799999999 149.530622,123.93009599999999 149.45067899999998,124.19363399999999 149.42852399999998,124.418577 149.42852399999998,126.71683099999998" stroke="#1f6fb2" stroke-width="0.1" /><text fill="#0a3d62" font-family="sans-serif" font-size="1.6" text-anchor="middle" x="156.42852399999998" y="125.56770399999999">06</text></svg>