<?xml version="1.0" encoding="utf-8" ?>
<svg baseProfile="full" height="139.256968801734cm" version="1.1" viewBox="0 0 168.0 139.256968801734" width="168.0cm" xmlns="http://www.w3.org/2000/svg" xmlns:ev="http://www.w3.org/2001/xml-events" xmlns:xlink="http://www.w3.org/1999/xlink"><defs /><rect fill="#f7f3ea" height="131.256968801734" stroke="#333" stroke-width="0.15" width="160.0" x="4.0" y="4.0" /><text fill="#000" font-family="sans-serif" font-size="1.4" x="4.0" y="3.0">PLANO DE CORTE — ancho 160 cm — largo 1.31 m</text><polygon fill="#cfe3f7" fill-opacity="0.5" points="54.0,16.698688 53.54488,16.012025 53.256333999999995,15.57641 52.967847,15.140343999999999 52.679368,14.703479999999999 52.390845,14.265471999999999 52.102226,13.825972 51.81346,13.384633999999998 51.524504,12.941127000000002 51.235746,12.495736 50.948979,12.049512 50.666720999999995,11.603052000000002 50.391082,11.156303999999999 50.124128999999996,10.709222 49.867903,10.261805 49.624413000000004,9.814093 49.39562,9.366158 49.18343,8.918096 48.989674,8.470008 48.816095000000004,8.021982 48.664342000000005,7.574056000000001 48.535945,7.126128 48.431893,6.67624 48.351451,6.220459 48.292833,5.756589 48.254642000000004,5.284564 48.203385999999995,4.0 29.0,4.0 29.0,65.5 54.0,65.5 54.0,16.698688 4.0,16.698688 4.455120000000001,16.012025 4.743666000000001,15.57641 5.032153000000001,15.140343999999999 5.320632,14.703479999999999 5.609155000000001,14.265471999999999 5.897773999999998,13.825972 6.186540000000001,13.384633999999998 6.475496,12.941127000000002 6.764254000000001,12.495736 7.051020999999999,12.049512 7.333279000000001,11.603052000000002 7.608917999999999,11.156303999999999 7.875871,10.709222 8.132097000000002,10.261805 8.375587,9.814093 8.604379999999999,9.366158 8.816569999999999,8.918096 9.010326,8.470008 9.183905,8.021982 9.335657999999999,7.574056000000001 9.464054999999998,7.126128 9.568107000000001,6.67624 9.648549,6.220459 9.707166999999998,5.756589 9.745358,5.284564 9.796614000000002,4.0 29.0,4.0 29.0,65.5 4.0,65.5 4.0,16.698688" stroke="#1f6fb2" stroke-width="0.1" /><text fill="#0a3d62" font-family="sans-serif" font-size="1.6" text-anchor="middle" x="29.0" y="34.75">02</text><polygon fill="#cfe3f7" fill-opacity="0.5" points="58.103537,66.004613 83.932241,66.004613 88.544742,14.559622999999998 87.838399,13.774989999999999 87.417592,13.312847999999999 86.98811599999999,12.851835999999999 86.54791900000001,12.395239 86.097245,11.9474 85.638323,11.51006 85.17214799999999,11.082705 84.69934,10.664458 84.220508,10.254439 83.73624699999999,9.851766999999999 83.247142,9.455561 82.753769,9.064943 82.256689,8.679036 81.755796,8.296466 81.249057,7.915755 80.733977,7.538259 80.209418,7.1668959999999995 79.674403,6.804792 79.1279,6.4551289999999995 78.568843,6.121163 77.996148,5.80625 77.40875199999999,5.513857 76.805661,5.24759 76.18753000000001,5.011762 75.559449,4.809616 74.92715799999999,4.638591 74.292906,4.494111 73.658237,4.371542 73.02457,4.266382 72.393254,4.174272 71.76562200000001,4.0909949999999995 71.044124,4.0 70.308963,4.05394 69.668217,4.104962 69.023647,4.164405 68.3764,4.236438 67.727627,4.325369 67.078525,4.435643 66.430396,4.57184 65.784807,4.738636 65.145945,4.939882 64.519679,5.174805 63.908314000000004,5.439152 63.311256,5.729414 62.727674,6.042254 62.156686,6.374447 61.597394,6.722872 61.048913,7.084489 60.510391999999996,7.456322999999999 59.981016,7.835451 59.459197,8.2196 58.941979,8.609293000000001 58.428751,9.007759 57.921351,9.417183999999999 57.421993,9.839547 56.932947999999996,10.276864 56.456562,10.731176 55.995274,11.204525 55.551633,11.698924 55.128798,12.215724 54.732445,12.750982 54.362674,13.294198000000002 54.013476,13.837394 53.5,14.659607999999999 58.103537,66.004613" stroke="#1f6fb2" stroke-width="0.1" /><text fill="#0a3d62" font-family="sans-serif" font-size="1.6" text-anchor="middle" x="71.02237099999999" y="35.0023065">04</text><polygon fill="#cfe3f7" fill-opacity="0.5" points="92.603537,66.004613 118.432241,66.004613 123.044742,14.559622999999998 122.338399,13.774989999999999 121.917592,13.312847999999999 121.48811599999999,12.851835999999999 121.04791900000001,12.395239 120.597245,11.9474 120.138323,11.51006 119.67214799999999,11.082705 119.19934,10.664458 118.720508,10.254439 118.23624699999999,9.851766999999999 117.747142,9.455561 117.253769,9.064943 116.756689,8.679036 116.255796,8.296466 115.749057,7.915755 115.233977,7.538259 114.709418,7.1668959999999995 114.174403,6.804792 113.6279,6.4551289999999995 113.068843,6.121163 112.496148,5.80625 111.90875199999999,5.513857 111.305661,5.24759 110.68753000000001,5.011762 110.059449,4.809616 109.42715799999999,4.638591 108.792906,4.494111 108.158237,4.371542 107.52457,4.266382 106.893254,4.174272 106.26562200000001,4.0909949999999995 105.544124,4.0 104.808963,4.05394 104.168217,4.104962 103.523647,4.164405 102.8764,4.236438 102.227627,4.325369 101.578525,4.435643 100.930396,4.57184 100.284807,4.738636 99.645945,4.939882 99.019679,5.174805 98.408314,5.439152 97.811256,5.729414 97.22767400000001,6.042254 96.65668600000001,6.374447 96.097394,6.722872 95.548913,7.084489 95.010392,7.456322999999999 94.481016,7.835451 93.959197,8.2196 93.441979,8.609293000000001 92.928751,9.007759 92.421351,9.417183999999999 91.921993,9.839547 91.432948,10.276864 90.956562,10.731176 90.495274,11.204525 90.051633,11.698924 89.628798,12.215724 89.232445,12.750982 88.862674,13.294198000000002 88.513476,13.837394 88.0,14.659607999999999 92.603537,66.004613" stroke="#1f6fb2" stroke-width="0.1" /><text fill="#0a3d62" font-family="sans-serif" font-size="1.6" text-anchor="middle" x="105.52237099999999" y="35.0023065">04</text><polygon fill="#cfe3f7" fill-opacity="0.5" points="122.5,75.733067 150.2,75.733067 150.2,26.857360999999997 149.600068,26.171653999999997 149.246677,25.768483 148.890684,25.363836 148.53155,24.957849 148.168433,24.550319 147.800496,24.141047999999998 147.426906,23.729844999999997 147.046843,23.316536 146.660414,22.901911 146.271075,22.488083 145.88459699999999,22.076037 145.505541,21.665301 145.138339,21.255467 144.787417,20.846346999999998 144.457145,20.437973 144.15177599999998,20.030609 143.87534,19.624724 143.631521,19.22094 143.423496,18.819888 143.253786,18.421923 143.123387,18.024288 143.0304,17.618925 142.971646,17.199514999999998 142.945508,16.764596 142.950624,16.313914 142.985548,15.847847 143.04861,15.367222 143.13787,14.873137 143.25113199999998,14.366815 143.385973,13.849511 143.539795,13.32245 143.709865,12.78679 143.893346,12.243606999999999 144.087334,11.693886 144.288868,11.138521 144.820404,9.693617 131.774689,4.0 131.104548,4.893731 130.908809,5.155346 130.712994,5.41821 130.517382,5.682529 130.322256,5.948513 130.1279,6.216374999999999 129.934603,6.486328 129.742656,6.758584 129.552355,7.03336 129.363996,7.310871 129.177882,7.5913319999999995 128.994319,7.87496 128.813615,8.161969 128.636242,8.452314000000001 128.463303,8.744457 128.295078,9.035989 128.13075,9.325658 127.969275,9.612676 127.809653,9.896266 127.650927,10.17566 127.492184,10.450102000000001 127.332553,10.718852 127.171203,10.98119 127.007341,11.236425 126.840206,11.483908 126.669058,11.723041 126.493161,11.953306000000001 126.310869,12.175367 126.119404,12.392209 125.91765,12.606558 125.706278,12.819252 125.486212,13.030951 125.258442,13.242343 125.024011,13.454155 124.822425,13.633067 122.5,13.633067 122.5,75.733067" stroke="#1f6fb2" stroke-width="0.1" /><text fill="#0a3d62" font-family="sans-serif" font-size="1.6" text-anchor="middle" x="136.35" y="39.8665335">01</text><polygon fill="#cfe3f7" fill-opacity="0.5" points="76.0,135.256968801734 103.7,135.256968801734 103.7,86.38126280173398 103.100068,85.69555580173397 102.746677,85.29238480173397 102.390684,84.88773780173398 102.03155,84.48175080173398 101.668433,84.07422080173397 101.300496,83.66494980173397 100.926906,83.25374680173397 100.546843,82.84043780173397 100.160414,82.42581280173397 99.771075,82.01198480173397 99.384597,81.59993880173397 99.005541,81.18920280173398 98.638339,80.77936880173398 98.287417,80.37024880173398 97.957145,79.96187480173398 97.651776,79.55451080173398 97.37534,79.14862580173397 97.13152099999999,78.74484180173398 96.923496,78.34378980173398 96.75378599999999,77.94582480173398 96.62338700000001,77.54818980173398 96.5304,77.14282680173397 96.47164599999999,76.72341680173398 96.445508,76.28849780173398 96.450624,75.83781580173398 96.485548,75.37174880173397 96.54861,74.89112380173398 96.63786999999999,74.39703880173397 96.751132,73.89071680173397 96.885973,73.37341280173398 97.039795,72.84635180173397 97.20986500000001,72.31069180173398 97.393346,71.76750880173398 97.587334,71.21778780173398 97.78886800000001,70.66242280173398 98.320404,69.21751880173397 85.274689,63.52390180173398 84.604548,64.41763280173397 84.408809,64.67924780173398 84.212994,64.94211180173397 84.017382,65.20643080173397 83.822256,65.47241480173398 83.6279,65.74027680173398 83.434603,66.01022980173397 83.242656,66.28248580173398 83.052355,66.55726180173397 82.863996,66.83477280173398 82.677882,67.11523380173398 82.494319,67.39886180173397 82.313615,67.68587080173398 82.136242,67.97621580173397 81.963303,68.26835880173398 81.795078,68.55989080173397 81.63075,68.84955980173397 81.469275,69.13657780173398 81.309653,69.42016780173398 81.150927,69.69956180173398 80.992184,69.97400380173397 80.832553,70.24275380173398 80.671203,70.50509180173398 80.507341,70.76032680173398 80.340206,71.00780980173398 80.169058,71.24694280173398 79.993161,71.47720780173398 79.810869,71.69926880173398 79.619404,71.91611080173398 79.41765,72.13045980173398 79.206278,72.34315380173398 78.986212,72.55485280173397 78.758442,72.76624480173398 78.524011,72.97805680173397 78.322425,73.15696880173398 76.0,73.15696880173398 76.0,135.256968801734" stroke="#1f6fb2" stroke-width="0.1" /><text fill="#0a3d62" font-family="sans-serif" font-size="1.6" text-anchor="middle" x="89.85" y="99.39043530173399">01</text><polygon fill="#cfe3f7" fill-opacity="0.5" points="149.5,74.267704 157.50722,74.267704 157.101177,17.827772 161.32492200000002,5.262131 158.800661,4.0 158.104548,4.928368 157.908809,5.189983 157.712994,5.452847 157.517382,5.717166 157.322256,5.98315 157.1279,6.251011999999999 156.934603,6.520965 156.742656,6.793221 156.552355,7.067997 156.363996,7.345508 156.177882,7.6259689999999996 155.994319,7.909597 155.813615,8.196606 155.636242,8.486951000000001 155.463303,8.779094 155.295078,9.070626 155.13075,9.360295 154.969275,9.647313 154.809653,9.930903 154.650927,10.210297 154.492184,10.484739000000001 154.332553,10.753489 154.171203,11.015827 154.007341,11.271062 153.840206,11.518545 153.669058,11.757678 153.493161,11.987943000000001 153.310869,12.210004 153.119404,12.426846 152.91765,12.641195 152.706278,12.853889 152.486212,13.065588 152.258442,13.27698 152.024011,13.488792 151.822425,13.667704 149.5,13.667704 149.5,74.267704" stroke="#1f6fb2" stroke-width="0.1" /><text fill="#0a3d62" font-family="sans-serif" font-size="1.6" text-anchor="middle" x="155.412461" y="39.133852">09</text><polygon fill="#cfe3f7" fill-opacity="0.5" points="46.0,133.25041186685579 54.007220000000004,133.25041186685579 53.601177,76.8104798668558 57.824922,64.2448388668558 55.300661,62.9827078668558 54.604548,63.911075866855796 54.408809,64.1726908668558 54.212994,64.4355548668558 54.017382,64.6998738668558 53.822256,64.9658578668558 53.6279,65.2337198668558 53.434603,65.5036728668558 53.242656,65.77592886685579 53.052355,66.0507048668558 52.863996,66.3282158668558 52.677882,66.6086768668558 52.494319000000004,66.8923048668558 52.313615,67.1793138668558 52.136242,67.4696588668558 51.963302999999996,67.76180186685579 51.795078000000004,68.0533338668558 51.63075,68.3430028668558 51.469274999999996,68.6300208668558 51.309653,68.91361086685579 51.150927,69.1930048668558 50.992184,69.4674468668558 50.832553000000004,69.73619686685579 50.671203,69.99853486685579 50.507341,70.2537698668558 50.340206,70.5012528668558 50.169058,70.7403858668558 49.993161,70.97065086685579 49.810869,71.1927118668558 49.619404,71.4095538668558 49.41765,71.6239028668558 49.206278,71.8365968668558 48.986212,72.0482958668558 48.758442,72.2596878668558 48.524011,72.4714998668558 48.322425,72.65041186685579 46.0,72.65041186685579 46.0,133.25041186685579" stroke="#1f6fb2" stroke-width="0.1" /><text fill="#0a3d62" font-family="sans-serif" font-size="1.6" text-anchor="middle" x="51.912461" y="98.1165598668558">09</text><polygon fill="#cfe3f7" fill-opacity="0.5" points="43.109812000000005,77.36704336571393 43.108270000000005,76.87936236571393 43.12286,76.38437936571393 43.152042,75.88252836571392 43.194218,75.37427536571393 43.247736,74.86010036571393 43.310889,74.34048436571393 43.381927000000005,73.81589736571392 43.459058,73.28679136571392 43.540457,72.75359436571392 43.748646,71.41986536571393 30.845692,66.44097936571393 30.206584,66.87509036571393 30.003755,67.01157936571393 29.803425,67.14387736571393 29.605097,67.27117636571393 29.408291,67.39272636571393 29.212533,67.50783836571392 29.016683,67.61625636571392 28.818733,67.71853036571393 28.617676,67.81516936571393 28.4137,67.90608036571393 28.207108,67.99111836571393 27.998204,68.07014236571393 27.787293000000002,68.14301936571393 27.574684,68.20962036571393 27.360684,68.26982136571392 27.145601,68.32350736571392 26.929644,68.37058836571393 26.712166,68.41117736571393 26.492015000000002,68.44576436571393 26.268762000000002,68.47483936571393 26.04241,68.49882436571393 25.81299,68.51815236571393 25.580557,68.53327136571393 25.345178,68.54464536571393 25.106932,68.55275736571393 24.865904,68.55810536571393 24.622182000000002,68.56120936571394 24.375856,68.56260136571393 24.127012,68.56283636571393 23.874323,68.56247936571393 23.874323,78.56248036571392 43.157512,78.56248036571392 43.109812000000005,77.36704336571393 4.638833999999999,77.36704336571393 4.640376,76.87936236571393 4.6257860000000015,76.38437936571393 4.596603999999999,75.88252836571392 4.5544280000000015,75.37427536571393 4.500910000000001,74.86010036571393 4.437757000000001,74.34048436571393 4.366719,73.81589736571392 4.289588000000002,73.28679136571392 4.208189000000001,72.75359436571392 4.0,71.41986536571393 16.902954,66.44097936571393 17.542062,66.87509036571393 17.744891,67.01157936571393 17.945221,67.14387736571393 18.143549,67.27117636571393 18.340355000000002,67.39272636571393 18.536113,67.50783836571392 18.731963,67.61625636571392 18.929913,67.71853036571393 19.13097,67.81516936571393 19.334946000000002,67.90608036571393 19.541538,67.99111836571393 19.750442,68.07014236571393 19.961353000000003,68.14301936571393 20.173962,68.20962036571393 20.387962,68.26982136571392 20.603045,68.32350736571392 20.819002,68.37058836571393 21.03648,68.41117736571393 21.256631,68.44576436571393 21.479884,68.47483936571393 21.706236,68.49882436571393 21.935656,68.51815236571393 22.168089000000002,68.53327136571393 22.403468,68.54464536571393 22.641714,68.55275736571393 22.882742,68.55810536571393 23.126464,68.56120936571394 23.372790000000002,68.56260136571393 23.621634,68.56283636571393 23.874323,68.56247936571393 23.874323,78.56248036571392 4.591134,78.56248036571392 4.638833999999999,77.36704336571393" stroke="#1f6fb2" stroke-width="0.1" /><text fill="#0a3d62" font-family="sans-serif" font-size="1.6" text-anchor="middle" x="23.874323" y="72.50172986571393">03</text><polygon fill="#cfe3f7" fill-opacity="0.5" points="136.096349,77.55730988313347 135.604859,77.46801288313347 135.113316,77.38380988313347 134.621723,77.30470188313346 134.130082,77.23069088313346 133.638397,77.16177788313347 133.14667,77.09796388313347 132.654904,77.03925088313346 132.163103,76.98563888313346 131.671269,76.93712988313347 131.179405,76.89372388313346 130.687515,76.85542288313347 130.195602,76.82222688313347 129.703669,76.79413688313346 129.211719,76.77115388313347 128.719756,76.75327688313347 128.227782,76.74050788313346 127.735802,76.73284588313346 127.243819,76.73029288313347 126.751836,76.73284588313346 126.259856,76.74050788313346 125.767882,76.75327688313347 125.275919,76.77115388313347 124.783969,76.79413688313346 124.292036,76.82222688313347 123.800123,76.85542288313347 123.308233,76.89372388313346 122.816369,76.93712988313347 122.324535,76.98563888313346 121.832734,77.03925088313346 121.340968,77.09796388313347 120.849241,77.16177788313347 120.357556,77.23069088313346 119.865915,77.30470188313346 119.374322,77.38380988313347 118.882779,77.46801288313347 118.391289,77.55730988313347 118.10694,77.61192388313347 116.055218,74.19238688313347 115.0,74.59136988313347 116.813092,84.41228688313346 118.286908,84.11391388313346 118.758677,84.02330188313347 119.230391,83.93759888313346 119.702052,83.85680188313347 120.173663,83.78090988313346 120.645226,83.70992088313346 121.116745,83.64383388313347 121.588222,83.58264788313346 122.05966000000001,83.52636088313346 122.53106299999999,83.47497288313346 123.002433,83.42848188313347 123.473773,83.38688788313347 123.945087,83.35018888313347 124.416378,83.31838488313346 124.887649,83.29147488313347 125.358903,83.26945788313347 125.83014399999999,83.25233488313347 126.301374,83.24010388313347 126.772598,83.23276588313347 127.243819,83.23031888313346 127.71504,83.23276588313347 128.186264,83.24010388313347 128.65749399999999,83.25233488313347 129.128735,83.26945788313347 129.599989,83.29147488313347 130.07126,83.31838488313346 130.542551,83.35018888313347 131.013865,83.38688788313347 131.485205,83.42848188313347 131.956575,83.47497288313346 132.427978,83.52636088313346 132.899416,83.58264788313346 133.370893,83.64383388313347 133.842412,83.70992088313346 134.313975,83.78090988313346 134.785586,83.85680188313347 135.257247,83.93759888313346 135.728961,84.02330188313347 136.20073,84.11391388313346 136.875859,84.25059288313346 136.875859,77.71001888313347 136.587784,77.65169788313347 136.096349,77.55730988313347 137.655369,77.55730988313347 138.146859,77.46801288313347 138.63840199999999,77.38380988313347 139.129995,77.30470188313346 139.621636,77.23069088313346 140.11332099999998,77.16177788313347 140.605048,77.09796388313347 141.096814,77.03925088313346 141.588615,76.98563888313346 142.080449,76.93712988313347 142.572313,76.89372388313346 143.064203,76.85542288313347 143.556116,76.82222688313347 144.048049,76.79413688313346 144.539999,76.77115388313347 145.031962,76.75327688313347 145.523936,76.74050788313346 146.015916,76.73284588313346 146.507899,76.73029288313347 146.999882,76.73284588313346 147.491862,76.74050788313346 147.983836,76.75327688313347 148.475799,76.77115388313347 148.967749,76.79413688313346 149.459682,76.82222688313347 149.951595,76.85542288313347 150.443485,76.89372388313346 150.935349,76.93712988313347 151.427183,76.98563888313346 151.918984,77.03925088313346 152.41075,77.09796388313347 152.902477,77.16177788313347 153.394162,77.23069088313346 153.885803,77.30470188313346 154.377396,77.38380988313347 154.868939,77.46801288313347 155.360429,77.55730988313347 155.644778,77.61192388313347 157.69650000000001,74.19238688313347 158.75171799999998,74.59136988313347 156.938626,84.41228688313346 155.46481,84.11391388313346 154.993041,84.02330188313347 154.52132699999999,83.93759888313346 154.049666,83.85680188313347 153.578055,83.78090988313346 153.106492,83.70992088313346 152.634973,83.64383388313347 152.163496,83.58264788313346 151.692058,83.52636088313346 151.220655,83.47497288313346 150.749285,83.42848188313347 150.277945,83.38688788313347 149.80663099999998,83.35018888313347 149.33534,83.31838488313346 148.864069,83.29147488313347 148.39281499999998,83.26945788313347 147.921574,83.25233488313347 147.450344,83.24010388313347 146.97912,83.23276588313347 146.507899,83.23031888313346 146.036678,83.23276588313347 145.565454,83.24010388313347 145.094224,83.25233488313347 144.622983,83.26945788313347 144.151729,83.29147488313347 143.680458,83.31838488313346 143.209167,83.35018888313347 142.737853,83.38688788313347 142.266513,83.42848188313347 141.795143,83.47497288313346 141.32374,83.52636088313346 140.852302,83.58264788313346 140.380825,83.64383388313347 139.909306,83.70992088313346 139.437743,83.78090988313346 138.966132,83.85680188313347 138.494471,83.93759888313346 138.022757,84.02330188313347 137.550988,84.11391388313346 136.875859,84.25059288313346 136.875859,77.71001888313347 137.16393399999998,77.65169788313347 137.655369,77.55730988313347" stroke="#1f6fb2" stroke-width="0.1" /><text fill="#0a3d62" font-family="sans-serif" font-size="1.6" text-anchor="middle" x="136.875859" y="79.30233688313346">07</text><polygon fill="#cfe3f7" fill-opacity="0.5" points="4.0,91.81160736571393 4.029841,92.11458736571393 4.132547,92.45316236571392 4.299332,92.76519536571392 4.523786,93.03869436571392 4.7972850000000005,93.26314836571393 5.109318,93.42993336571392 5.4478930000000005,93.53263936571392 5.750873,93.56248036571392 27.249127,93.56248036571392 27.552107,93.53263936571392 27.890682,93.42993336571392 28.202715,93.26314836571393 28.476214,93.03869436571392 28.700668,92.76519536571392 28.867453,92.45316236571392 28.970159,92.11458736571393 29.0,91.81160736571393 29.0,81.31335336571392 28.970159,81.01037336571392 28.867453,80.67179836571393 28.700668,80.35976536571393 28.476214,80.08626636571393 28.202715,79.86181236571393 27.890682,79.69502736571393 27.552107,79.59232136571393 27.249127,79.56248036571392 5.750873,79.56248036571392 5.4478930000000005,79.59232136571393 5.109318,79.69502736571393 4.7972850000000005,79.86181236571393 4.523786,80.08626636571393 4.299332,80.35976536571393 4.132547,80.67179836571393 4.029841,81.01037336571392 4.0,81.31335336571392 4.0,91.81160736571393" stroke="#1f6fb2" stroke-width="0.1" /><text fill="#0a3d62" font-family="sans-serif" font-size="1.6" text-anchor="middle" x="16.5" y="86.56248036571392">05</text><polygon fill="#cfe3f7" fill-opacity="0.5" points="116.5,97.47423989003437 116.529841,97.77721989003436 116.632547,98.11579489003437 116.799332,98.42782789003437 117.023786,98.70132689003437 117.297285,98.92578089003436 117.609318,99.09256589003436 117.947893,99.19527189003436 118.250873,99.22511289003437 139.749127,99.22511289003437 140.052107,99.19527189003436 140.390682,99.09256589003436 140.702715,98.92578089003436 140.976214,98.70132689003437 141.200668,98.42782789003437 141.367453,98.11579489003437 141.470159,97.77721989003436 141.5,97.47423989003437 141.5,86.97598589003437 141.470159,86.67300589003436 141.367453,86.33443089003437 141.200668,86.02239789003437 140.976214,85.74889889003437 140.702715,85.52444489003437 140.390682,85.35765989003437 140.052107,85.25495389003437 139.749127,85.22511289003437 118.250873,85.22511289003437 117.947893,85.25495389003437 117.609318,85.35765989003437 117.297285,85.52444489003437 117.023786,85.74889889003437 116.799332,86.02239789003437 116.632547,86.33443089003437 116.529841,86.67300589003436 116.5,86.97598589003437 116.5,97.47423989003437" stroke="#1f6fb2" stroke-width="0.1" /><text fill="#0a3d62" font-family="sans-serif" font-size="1.6" text-anchor="middle" x="129.0" y="92.22511289003437">05</text><polygon fill="#cfe3f7" fill-opacity="0.5" points="125.87618499999999,105.34696813204692 126.40772,105.41796113204693 126.939276,105.48490013204692 127.47085200000001,105.54778413204693 128.00244800000002,105.60661313204692 128.534062,105.66138713204693 129.065693,105.71210613204693 129.59734,105.75876813204692 130.129001,105.80137313204692 130.660675,105.83992213204692 131.192361,105.87441413204692 131.724058,105.90484913204692 132.255764,105.93122613204692 132.787478,105.95354613204692 133.319198,105.97180813204692 133.850924,105.98601113204693 134.382654,105.99615713204692 134.914386,106.00224413204693 135.44612,106.00427313204692 135.977854,106.00224413204693 136.509586,105.99615713204692 137.041316,105.98601113204693 137.573042,105.97180813204692 138.104762,105.95354613204692 138.63647600000002,105.93122613204692 139.168182,105.90484913204692 139.699879,105.87441413204692 140.231565,105.83992213204692 140.763239,105.80137313204692 141.29489999999998,105.75876813204692 141.826547,105.71210613204693 142.358178,105.66138713204693 142.889792,105.60661313204692 143.421388,105.54778413204693 143.952964,105.48490013204692 144.48452,105.41796113204693 145.016055,105.34696813204692 145.54756600000002,105.27192213204692 146.92816,105.06645413204693 146.92816,100.04442613204692 145.26055,100.29261013204692 144.743857,100.36556413204693 144.227188,100.43457113204693 143.71053999999998,100.49963213204693 143.193912,100.56074813204692 142.677304,100.61791913204692 142.16071399999998,100.67114513204692 141.644141,100.72042613204692 141.127584,100.76576413204693 140.611041,100.80715913204692 140.094511,100.84461013204692 139.577993,100.87811813204692 139.061486,100.90768313204693 138.544988,100.93330613204692 138.028498,100.95498613204693 137.512014,100.97272413204692 136.99553600000002,100.98652113204692 136.479062,100.99637513204692 135.96259,101.00228813204693 135.44612,101.00425913204693 134.92965,101.00228813204693 134.413178,100.99637513204692 133.896704,100.98652113204692 133.380226,100.97272413204692 132.863742,100.95498613204693 132.347252,100.93330613204692 131.830754,100.90768313204693 131.314247,100.87811813204692 130.797729,100.84461013204692 130.28119900000002,100.80715913204692 129.764656,100.76576413204693 129.248099,100.72042613204692 128.731526,100.67114513204692 128.214936,100.61791913204692 127.698328,100.56074813204692 127.1817,100.49963213204693 126.665052,100.43457113204693 126.148383,100.36556413204693 125.63168999999999,100.29261013204692 124.96408,100.19325213204692 124.96408,105.21528013204693 125.344674,105.27192213204692 125.87618499999999,105.34696813204692 124.051975,105.34696813204692 123.52044000000001,105.41796113204693 122.988884,105.48490013204692 122.457308,105.54778413204693 121.925712,105.60661313204692 121.394098,105.66138713204693 120.862467,105.71210613204693 120.33082,105.75876813204692 119.799159,105.80137313204692 119.267485,105.83992213204692 118.735799,105.87441413204692 118.204102,105.90484913204692 117.67239599999999,105.93122613204692 117.140682,105.95354613204692 116.608962,105.97180813204692 116.077236,105.98601113204693 115.545506,105.99615713204692 115.013774,106.00224413204693 114.48204,106.00427313204692 113.950306,106.00224413204693 113.418574,105.99615713204692 112.886844,105.98601113204693 112.355118,105.97180813204692 111.823398,105.95354613204692 111.291684,105.93122613204692 110.759978,105.90484913204692 110.228281,105.87441413204692 109.696595,105.83992213204692 109.16492099999999,105.80137313204692 108.63326,105.75876813204692 108.101613,105.71210613204693 107.569982,105.66138713204693 107.03836799999999,105.60661313204692 106.506772,105.54778413204693 105.975196,105.48490013204692 105.44364,105.41796113204693 104.912105,105.34696813204692 104.380594,105.27192213204692 103.0,105.06645413204693 103.0,100.04442613204692 104.66761,100.29261013204692 105.184303,100.36556413204693 105.70097200000001,100.43457113204693 106.21762,100.49963213204693 106.73424800000001,100.56074813204692 107.250856,100.61791913204692 107.767446,100.67114513204692 108.284019,100.72042613204692 108.800576,100.76576413204693 109.317119,100.80715913204692 109.833649,100.84461013204692 110.350167,100.87811813204692 110.866674,100.90768313204693 111.383172,100.93330613204692 111.899662,100.95498613204693 112.416146,100.97272413204692 112.932624,100.98652113204692 113.44909799999999,100.99637513204692 113.96557,101.00228813204693 114.48204,101.00425913204693 114.99851,101.00228813204693 115.514982,100.99637513204692 116.03145599999999,100.98652113204692 116.547934,100.97272413204692 117.064418,100.95498613204693 117.580908,100.93330613204692 118.097406,100.90768313204693 118.613913,100.87811813204692 119.130431,100.84461013204692 119.646961,100.80715913204692 120.163504,100.76576413204693 120.680061,100.72042613204692 121.196634,100.67114513204692 121.713224,100.61791913204692 122.229832,100.56074813204692 122.74646,100.49963213204693 123.263108,100.43457113204693 123.779777,100.36556413204693 124.29647,100.29261013204692 124.96408,100.19325213204692 124.96408,105.21528013204693 124.583486,105.27192213204692 124.051975,105.34696813204692" stroke="#1f6fb2" stroke-width="0.1" /><text fill="#0a3d62" font-family="sans-serif" font-size="1.6" text-anchor="middle" x="124.96408" y="103.02434963204692">08</text><polygon fill="#cfe3f7" fill-opacity="0.5" points="70.5,71.257113 63.5,66.84711300000001 56.5,71.257113 56.5,82.52901800000001 70.5,82.52901800000001 70.5,71.257113" stroke="#1f6fb2" stroke-width="0.1" /><text fill="#0a3d62" font-family="sans-serif" font-size="1.6" text-anchor="middle" x="63.5" y="74.68806550000001">10</text><polygon fill="#cfe3f7" fill-opacity="0.5" points="29.5,83.21160736571392 29.522155,83.43655036571393 29.602098,83.70008836571392 29.731919,83.94296636571393 29.906629,84.15585136571393 30.119514,84.33056136571392 30.362392,84.46038236571393 30.62593,84.54032536571393 30.850873,84.56248036571392 42.149127,84.56248036571392 42.37407,84.54032536571393 42.637608,84.46038236571393 42.880486,84.33056136571392 43.093371,84.15585136571393 43.268081,83.94296636571393 43.397902,83.70008836571392 43.477845,83.43655036571393 43.5,83.21160736571392 43.5,80.91335336571393 43.477845,80.68841036571392 43.397902,80.42487236571392 43.268081,80.18199436571392 43.093371,79.96910936571392 42.880486,79.79439936571393 42.637608,79.66457836571392 42.37407,79.58463536571392 42.149127,79.56248036571392 30.850873,79.56248036571392 30.62593,79.58463536571392 30.362392,79.66457836571392 30.119514,79.79439936571393 29.906629,79.96910936571392 29.731919,80.18199436571392 29.602098,80.42487236571392 29.522155,80.68841036571392 29.5,80.91335336571393 29.5,83.21160736571392" stroke="#1f6fb2" stroke-width="0.1" /><text fill="#0a3d62" font-family="sans-serif" font-size="1.6" text-anchor="middle" x="36.5" y="82.06248036571392">06</text><polygon fill="#cfe3f7" fill-opacity="0.5" points="53.5,87.178145 53.522155,87.40308800000001 53.602098,87.66662600000001 53.731919,87.90950400000001 53.906629,88.12238900000001 54.119514,88.297099 54.362392,88.42692000000001 54.62593,88.50686300000001 54.850873,88.52901800000001 66.149127,88.52901800000001 66.37407,88.50686300000001 66.637608,88.42692000000001 66.880486,88.297099 67.093371,88.12238900000001 67.268081,87.90950400000001 67.397902,87.66662600000001 67.477845,87.40308800000001 67.5,87.178145 67.5,84.87989100000001 67.477845,84.654948 67.397902,84.39141000000001 67.268081,84.148532 67.093371,83.935647 66.880486,83.76093700000001 66.637608,83.631116 66.37407,83.551173 66.149127,83.52901800000001 54.850873,83.52901800000001 54.62593,83.551173 54.362392,83.631116 54.119514,83.76093700000001 53.906629,83.935647 53.731919,84.148532 53.602098,84.39141000000001 53.522155,84.654948 53.5,84.87989100000001 53.5,87.178145" stroke="#1f6fb2" stroke-width="0.1" /><text fill="#0a3d62" font-family="sans-serif" font-size="1.6" text-anchor="middle" x="60.5" y="86.02901800000001">06</text></svg>