<?xml version="1.0" encoding="utf-8" ?>
<svg baseProfile="full" height="183.113067cm" version="1.1" viewBox="0 0 166.17388467489502 183.113067" width="166.17388467489502cm" xmlns="http://www.w3.org/2000/svg" xmlns:ev="http://www.w3.org/2001/xml-events" xmlns:xlink="http://www.w3.org/1999/xlink"><defs /><g fill="none" id="CONSTRUCCION" stroke="#888888" stroke-width="0.08"><line x1="5.7" x2="5.7" y1="13.633067" y2="72.233067" /><line x1="49.37679184148636" x2="49.37679184148636" y1="105.113067" y2="93.113067" /><line x1="67.74572467256381" x2="90.74572467256381" y1="51.113067" y2="51.113067" /><line x1="19.6" x2="31.6" y1="118.333067" y2="118.333067" /></g><g fill="none" id="CORTE" stroke="#d00000" stroke-width="0.08"><polygon points="3.0,12.633067 3.0,40.113067 30.7,40.113067 30.7,25.857360999999997 30.100672,25.172342999999998 29.746677,24.768483 29.390684,24.363836 29.03155,23.957849 28.668433,23.550319 28.300496,23.141047999999998 27.926906,22.729844999999997 27.546843,22.316536 27.160414,21.901911 26.771075,21.488083 26.384597,21.076037 26.005541,20.665301 25.638339,20.255467 25.287416999999998,19.846346999999998 24.957145,19.437973 24.651775999999998,19.030609 24.375339999999998,18.624724 24.131521,18.22094 23.923496,17.819888 23.753785999999998,17.421923 23.623387,17.024288 23.5304,16.618925 23.471646,16.199514999999998 23.445508,15.764596000000001 23.450623999999998,15.313914 23.485547999999998,14.847847 23.54861,14.367222 23.63787,13.873137 23.751132,13.366815 23.885973,12.849511 24.039794999999998,12.32245 24.209865,11.78679 24.393345999999998,11.243606999999999 24.587334,10.693886 24.788868,10.138521 25.320404,8.693617 12.274689,3.0 11.604548000000001,3.893731 11.408809,4.155346 11.212994,4.41821 11.017382000000001,4.682529 10.822256,4.948513 10.6279,5.216374999999999 10.434603,5.486328 10.242656,5.758584 10.052355,6.03336 9.863996,6.310871 9.677882,6.5913319999999995 9.494319,6.87496 9.313614999999999,7.161969 9.136242,7.452314 8.963303,7.744457 8.795078,8.035989 8.630749999999999,8.325658 8.469275,8.612676 8.309653,8.896266 8.150927,9.17566 7.992184,9.450102000000001 7.832553,9.718852 7.671203,9.98119 7.507341,10.236425 7.340206,10.483908 7.169058,10.723041 6.993161,10.953306000000001 6.810869,11.175367 6.619404,11.392209 6.41765,11.606558 6.206278,11.819252 5.986212,12.030951 5.7584420000000005,12.242343 5.524011,12.454155 5.322425,12.633067 3.0,12.633067" /><polygon points="78.993667,38.353066999999996 62.027484,3.233067 34.7,3.233067 34.7,38.353066999999996 78.993667,38.353066999999996" /><polygon points="107.656334,14.809477 107.36784700000001,14.373410999999999 107.079368,13.936547 106.790845,13.498539 106.50222600000001,13.059039 106.21346,12.617700999999999 105.92450400000001,12.174194000000002 105.63574600000001,11.728803000000001 105.34897900000001,11.282579 105.066721,10.836119000000002 104.791082,10.389370999999999 104.524129,9.942289 104.267903,9.494872 104.02441300000001,9.04716 103.79562000000001,8.599225 103.58343,8.151163 103.38967400000001,7.703075 103.21609500000001,7.255049 103.06434200000001,6.807123000000001 102.935945,6.359195 102.83189300000001,5.909307 102.751451,5.453526 102.69283300000001,4.989656 102.65464200000001,4.517631 102.603386,3.233067 83.4,3.233067 83.4,30.113067 108.4,30.113067 108.4,15.931755 107.94488000000001,15.245092000000001 107.656334,14.809477" /><polygon points="138.02748400000002,3.233067 113.4,3.233067 113.4,38.353066999999996 154.99366700000002,38.353066999999996 138.02748400000002,3.233067" /><polygon points="23.235489,54.91763 23.233947,54.429949 23.248537,53.934966 23.277719,53.433115 23.319895,52.924862 23.373413,52.410687 23.436566,51.891071000000004 23.507604,51.366484 23.584735,50.837378 23.666134,50.304181 23.874323,48.970452 10.971369,43.991566 10.332260999999999,44.425677 10.129432000000001,44.562166 9.929102,44.694464 9.730774,44.821763000000004 9.533968,44.943313 9.33821,45.058425 9.14236,45.166843 8.944410000000001,45.269117 8.743352999999999,45.365756 8.539377,45.456667 8.332785000000001,45.541705 8.123881,45.620729000000004 7.9129700000000005,45.693606 7.700361,45.760207 7.4863610000000005,45.820408 7.271278000000001,45.874094 7.055321,45.921175 6.837843,45.961764 6.617692,45.996351000000004 6.394439,46.025426 6.168087,46.049411 5.938667000000001,46.068739 5.706234,46.083858 5.470855,46.095232 5.232609,46.103344 4.991581,46.108692 4.747859,46.111796 4.501533,46.113188 4.252689,46.113423000000004 4.0,46.113066 4.0,56.113067 23.283189,56.113067 23.235489,54.91763" /><polygon points="32.33946223112721,106.113067 58.16816623112721,106.113067 62.78066723112721,54.668077000000004 62.07432423112721,53.883444000000004 61.65351723112721,53.421302000000004 61.22404123112721,52.96029 60.783844231127205,52.503693 60.33317023112721,52.055854000000004 59.87424823112721,51.618514 59.408073231127204,51.191159 58.935265231127204,50.772912 58.45643323112721,50.362893 57.97217223112721,49.960221 57.48306723112721,49.564015000000005 56.98969423112721,49.173397 56.492614231127206,48.78749 55.99172123112721,48.404920000000004 55.484982231127205,48.024209 54.96990223112721,47.646713 54.44534323112721,47.27535 53.91032823112721,46.913246 53.36382523112721,46.563583 52.804768231127206,46.229617 52.23207323112721,45.914704 51.64467723112721,45.622311 51.04158623112721,45.356044000000004 50.42345523112721,45.120216 49.795374231127205,44.91807 49.16308323112721,44.747045 48.52883123112721,44.602565 47.89416223112721,44.479996 47.26049523112721,44.374836 46.62917923112721,44.282726000000004 46.001547231127205,44.199449 45.28004923112721,44.108454 44.54488823112721,44.162394 43.90414223112721,44.213416 43.25957223112721,44.272859000000004 42.61232523112721,44.344892 41.96355223112721,44.433823000000004 41.31445023112721,44.544097 40.666321231127206,44.680294 40.02073223112721,44.84709 39.38187023112721,45.048336 38.75560423112721,45.283259 38.14423923112721,45.547606 37.54718123112721,45.837868 36.963599231127205,46.150708 36.392611231127205,46.482901 35.833319231127206,46.831326000000004 35.28483823112721,47.192943 34.74631723112721,47.564777 34.21694123112721,47.943905 33.69512223112721,48.328054 33.17790423112721,48.717747 32.66467623112721,49.116213 32.157276231127206,49.525638 31.65791823112721,49.948001 31.168873231127208,50.385318 30.69248723112721,50.83963 30.231199231127206,51.312979 29.787558231127207,51.807378 29.364723231127208,52.324178 28.96837023112721,52.859436 28.59859923112721,53.402652 28.24940123112721,53.945848000000005 27.735925231127208,54.768062 32.33946223112721,106.113067" /><polygon points="66.74572467256381,56.362194 66.7755656725638,56.665174 66.87827167256381,57.003749 67.04505667256382,57.315782 67.26951067256381,57.589281 67.54300967256381,57.813735 67.85504267256381,57.98052 68.1936176725638,58.083226 68.49659767256381,58.113067 89.99485167256381,58.113067 90.2978316725638,58.083226 90.63640667256381,57.98052 90.94843967256381,57.813735 91.22193867256381,57.589281 91.4463926725638,57.315782 91.61317767256381,57.003749 91.7158836725638,56.665174 91.74572467256381,56.362194 91.74572467256381,45.86394 91.7158836725638,45.56096 91.61317767256381,45.222385 91.4463926725638,44.910352 91.22193867256381,44.636853 90.94843967256381,44.412399 90.63640667256381,44.245614 90.2978316725638,44.142908 89.99485167256381,44.113067 68.49659767256381,44.113067 68.1936176725638,44.142908 67.85504267256381,44.245614 67.54300967256381,44.412399 67.26951067256381,44.636853 67.04505667256382,44.910352 66.87827167256381,45.222385 66.7755656725638,45.56096 66.74572467256381,45.86394 66.74572467256381,56.362194" /><polygon points="95.74572467256381,47.762194 95.76787967256381,47.987137000000004 95.84782267256381,48.250675 95.97764367256381,48.493553 96.1523536725638,48.706438 96.3652386725638,48.881148 96.60811667256381,49.010969 96.8716546725638,49.090912 97.0965976725638,49.113067 108.39485167256382,49.113067 108.61979467256381,49.090912 108.88333267256381,49.010969 109.12621067256381,48.881148 109.33909567256381,48.706438 109.5138056725638,48.493553 109.64362667256381,48.250675 109.72356967256381,47.987137000000004 109.74572467256381,47.762194 109.74572467256381,45.46394 109.72356967256381,45.238997 109.64362667256381,44.975459 109.5138056725638,44.732581 109.33909567256381,44.519696 109.12621067256381,44.344986 108.88333267256381,44.215165 108.61979467256381,44.135222 108.39485167256382,44.113067 97.0965976725638,44.113067 96.8716546725638,44.135222 96.60811667256381,44.215165 96.3652386725638,44.344986 96.1523536725638,44.519696 95.97764367256381,44.732581 95.84782267256381,44.975459 95.76787967256381,45.238997 95.74572467256381,45.46394 95.74572467256381,47.762194" /><polygon points="115.52523467256381,50.786063 116.01672467256381,50.87536 116.5082676725638,50.959563 116.99986067256381,51.038671 117.49150167256381,51.112682 117.9831866725638,51.181595 118.47491367256382,51.245409 118.96667967256381,51.304122 119.45848067256381,51.357734 119.9503146725638,51.406243 120.44217867256381,51.449649 120.93406867256381,51.48795 121.42598167256381,51.521146 121.91791467256381,51.549236 122.40986467256381,51.572219 122.90182767256381,51.590096 123.39380167256381,51.602865 123.88578167256381,51.610527 124.37776467256381,51.613080000000004 124.8697476725638,51.610527 125.3617276725638,51.602865 125.85370167256382,51.590096 126.34566467256381,51.572219 126.8376146725638,51.549236 127.3295476725638,51.521146 127.8214606725638,51.48795 128.31335067256381,51.449649 128.8052146725638,51.406243 129.2970486725638,51.357734 129.7888496725638,51.304122 130.2806156725638,51.245409 130.7723426725638,51.181595 131.26402767256383,51.112682 131.75566867256381,51.038671 132.2472616725638,50.959563 132.73880467256382,50.87536 133.23029467256382,50.786063 133.5146436725638,50.731449000000005 135.56636567256382,54.150986 136.62158367256382,53.752003 134.8084916725638,43.931086 133.3346756725638,44.229459 132.8629066725638,44.320071 132.39119267256382,44.405774 131.9195316725638,44.486571 131.4479206725638,44.562463 130.9763576725638,44.633452 130.5048386725638,44.699539 130.0333616725638,44.760725 129.5619236725638,44.817012 129.0905206725638,44.8684 128.61915067256382,44.914891000000004 128.14781067256382,44.956485 127.67649667256381,44.993184 127.2052056725638,45.024988 126.7339346725638,45.051898 126.26268067256382,45.073915 125.79143967256381,45.091038 125.3202096725638,45.103269 124.84898567256381,45.110607 124.37776467256381,45.113054 123.90654367256381,45.110607 123.4353196725638,45.103269 122.96408967256382,45.091038 122.49284867256381,45.073915 122.02159467256381,45.051898 121.5503236725638,45.024988 121.07903267256381,44.993184 120.6077186725638,44.956485 120.13637867256381,44.914891000000004 119.66500867256381,44.8684 119.1936056725638,44.817012 118.72216767256381,44.760725 118.2506906725638,44.699539 117.7791716725638,44.633452 117.30760867256382,44.562463 116.8359976725638,44.486571 116.36433667256381,44.405774 115.8926226725638,44.320071 115.42085367256381,44.229459 114.74572467256381,44.09278 114.74572467256381,50.633354000000004 115.03379967256382,50.691675000000004 115.52523467256381,50.786063" /><polygon points="142.12190967489502,49.255769 142.653444674895,49.326762 143.18500067489504,49.393701 143.71657667489504,49.456585000000004 144.24817267489502,49.515414 144.77978667489504,49.570188 145.31141767489504,49.620907 145.84306467489503,49.667569 146.37472567489502,49.710174 146.90639967489503,49.748723 147.43808567489504,49.783215 147.96978267489501,49.81365 148.50148867489503,49.840027 149.03320267489502,49.862347 149.56492267489503,49.880609 150.09664867489502,49.894812 150.62837867489503,49.904958 151.16011067489504,49.911045 151.69184467489504,49.913074 152.22357867489504,49.911045 152.75531067489501,49.904958 153.28704067489502,49.894812 153.81876667489502,49.880609 154.35048667489502,49.862347 154.88220067489502,49.840027 155.41390667489503,49.81365 155.94560367489504,49.783215 156.47728967489502,49.748723 157.00896367489503,49.710174 157.540624674895,49.667569 158.07227167489503,49.620907 158.60390267489504,49.570188 159.13551667489503,49.515414 159.66711267489504,49.456585000000004 160.19868867489504,49.393701 160.73024467489503,49.326762 161.26177967489502,49.255769 161.79329067489502,49.180723 163.17388467489502,48.975255000000004 163.17388467489502,43.953227 161.50627467489502,44.201411 160.98958167489502,44.274365 160.472912674895,44.343372 159.956264674895,44.408433 159.439636674895,44.469549 158.92302867489502,44.526720000000005 158.406438674895,44.579946 157.88986567489502,44.629227 157.37330867489501,44.674565 156.85676567489503,44.71596 156.340235674895,44.753411 155.82371767489502,44.786919 155.30721067489503,44.816484 154.79071267489502,44.842107 154.27422267489501,44.863787 153.75773867489502,44.881525 153.24126067489502,44.895322 152.72478667489503,44.905176000000004 152.20831467489504,44.911089000000004 151.69184467489504,44.91306 151.175374674895,44.911089000000004 150.65890267489502,44.905176000000004 150.14242867489503,44.895322 149.62595067489502,44.881525 149.10946667489503,44.863787 148.59297667489503,44.842107 148.07647867489501,44.816484 147.55997167489502,44.786919 147.04345367489503,44.753411 146.52692367489502,44.71596 146.01038067489503,44.674565 145.49382367489503,44.629227 144.97725067489503,44.579946 144.46066067489502,44.526720000000005 143.94405267489503,44.469549 143.42742467489504,44.408433 142.91077667489503,44.343372 142.39410767489503,44.274365 141.87741467489502,44.201411 141.20980467489503,44.102053 141.20980467489503,49.124081000000004 141.59039867489503,49.180723 142.12190967489502,49.255769" /><polygon points="3.0,180.113067 11.00722,180.113067 10.601177,123.673135 14.824921999999999,111.107494 12.300661,109.845363 11.604548000000001,110.773731 11.408809,111.035346 11.212994,111.29821 11.017382000000001,111.562529 10.822256,111.828513 10.6279,112.096375 10.434603,112.366328 10.242656,112.638584 10.052355,112.91336 9.863996,113.190871 9.677882,113.471332 9.494319,113.75496 9.313614999999999,114.041969 9.136242,114.332314 8.963303,114.624457 8.795078,114.915989 8.630749999999999,115.205658 8.469275,115.492676 8.309653,115.776266 8.150927,116.05566 7.992184,116.330102 7.832553,116.598852 7.671203,116.86119 7.507341,117.116425 7.340206,117.363908 7.169058,117.603041 6.993161,117.83330600000001 6.810869,118.055367 6.619404,118.272209 6.41765,118.486558 6.206278,118.699252 5.986212,118.910951 5.7584420000000005,119.122343 5.524011,119.334155 5.322425,119.513067 3.0,119.513067 3.0,180.113067" /><polygon points="18.6,121.384972 25.6,125.794972 32.6,121.384972 32.6,110.113067 18.6,110.113067 18.6,121.384972" /></g><g fill="none" id="COSTURA" stroke="#00a000" stroke-width="0.08"><polygon points="29.7,26.233067 29.348061097497954,25.830809414471354 28.9952713434143,25.42832416495193 28.64077988616742,25.025383587450918 28.283735874175697,24.62176001797755 27.923288455857527,24.217225792541026 27.558586779631288,23.811553247150556 27.188779993915375,23.40451471781536 26.813017247128172,22.995882540544653 26.43047431316805,22.585426763854276 26.04222287251688,22.172754551920843 25.652459025196965,21.75720463849469 25.265670587442546,21.338090694908598 24.886345375487853,20.91472639249535 24.518971205567123,20.486425402587745 24.168035893914595,20.052501396518547 23.838027256764505,19.61226804562056 23.533433110351083,19.16503902122656 23.25874127090857,18.71012799466933 23.018439554671197,18.246848637281662 22.817015777873205,17.77451462039634 22.658927279838384,17.29244509894074 22.54606107934321,16.80042169584376 22.4758225335374,16.299032402367665 22.445166809943142,15.788946210682386 22.451049076082626,15.270832112957864 22.49042449947803,14.745359101364034 22.560248247651558,14.213196168070835 22.657475488125385,13.675012305248204 22.779061388421706,13.131476505066075 22.92196111606271,12.583257759694389 23.08312983857059,12.031025061303078 23.25952272346752,11.475447402062086 23.4480949382757,10.917193774141342 23.645801650517317,10.356933169710793 23.84959802771455,9.795334580940363 24.0564392373896,9.233067 12.6,4.233067 12.404929090497925,4.493222276793128 12.21013119131328,4.7535807651639725 12.015879312763497,5.0143456766902474 11.822446465166006,5.275720222949668 11.630105658838232,5.53790761551995 11.439129904097616,5.801111065978808 11.24979221126158,6.065533785903957 11.062365590647557,6.331378986873115 10.877123052572978,6.598849880463993 10.694337607355273,6.86814967825431 10.514282265311873,7.139481591821779 10.337230036760209,7.413048832744115 10.16345393201771,7.689054612599036 9.993226961401806,7.967702142964255 9.826664698734799,8.249072707989892 9.663055385765034,8.532606860644501 9.501416449635176,8.817535420262777 9.340765162176753,9.103089085897977 9.180118795221286,9.388498556603356 9.018494620600304,9.67299453143217 8.854909910145325,9.955807709437675 8.688381935687879,10.236168789673126 8.517927969059487,10.513308471191783 8.342565282091677,10.786457453046896 8.161311146615965,11.054846434291722 7.973182834463885,11.317706113979522 7.777197617466955,11.574267191163548 7.5723811252171265,11.823766977502084 7.358482769196286,12.066015436120248 7.136524699322925,12.30182951241604 6.907658303290262,12.53212840386409 6.673034968791513,12.757831307939018 6.433806083519894,12.97985742211545 6.1911230351686255,13.199125943868006 5.946137211430921,13.416556070671316 5.7,13.633067 4.0,13.633067 4.0,39.113067 29.7,39.113067" /><polygon points="35.7,37.353066999999996 77.4,37.353066999999996 61.4,4.233067 35.7,4.233067" /><polygon points="107.4,16.233067 107.11126630324924,15.797439326402566 106.82248379725907,15.36146750789767 106.53360367279005,14.924807399577839 106.2445771206028,14.487114856535614 105.95535533145787,14.048045733863534 105.66588949611587,13.607255886654121 105.37613080533737,13.164401169999925 105.08603044988297,12.719137438993469 104.79557200349936,12.271123066771947 104.50571577601119,11.82009237577016 104.2185482205561,11.365867255367169 103.9362182446122,10.908274451282841 103.66087475565755,10.447140709237045 103.39466666117019,9.98229277494966 103.1397428686282,9.513557394140543 102.89825228550966,9.040761312529574 102.67234381929262,8.563731275836616 102.46416637745514,8.082294029781549 102.27586886747531,7.596276320084238 102.10960019683118,7.105504892464548 101.96750927300081,6.609806492642356 101.85168501536235,6.10901575309847 101.76241306962703,5.603204386473422 101.69790344158415,5.092716994128569 101.65625133756502,4.5779132703500505 101.64249141613644,4.233067 83.4,4.233067 83.4,29.113067 107.4,29.113067" /><polygon points="113.4,37.353066999999996 153.4,37.353066999999996 137.4,4.233067 113.4,4.233067" /><polygon points="4.0,47.113067 4.252454309213413,47.11342336281907 4.504830862915236,47.11318558954896 4.757051905593878,47.111759544100494 5.0090396817377485,47.10855109038449 5.260716435835259,47.10296609231176 5.512004412374816,47.094410413793135 5.762825855844833,47.08228991873943 6.013103010733716,47.06601047106146 6.2627581215298775,47.04497793467006 6.511713432721726,47.018598173476036 6.7598911887976705,46.98627705139021 7.007213634246121,46.94742043232341 7.253602573437203,46.901435816906705 7.498919757749148,46.847954031978915 7.742906458460016,46.787053948065584 7.985289551814503,46.71886796821592 8.225795914057308,46.64352849547915 8.46415242143313,46.561167932904496 8.700085950186665,46.47191868354117 8.933323376562612,46.37591315043839 9.163591576805668,46.27328373664539 9.390617427160533,46.16416284521138 9.614127803871904,46.04868287918558 9.833898637336457,45.92702184837333 10.05020863974197,45.7998252101986 10.263631491986615,45.66801266117614 10.474744624102566,45.53250738347551 10.684125466121998,45.39423255926625 10.892351448077086,45.2541113707179 11.100000000000001,45.113067 22.761903789690603,49.613067 22.677839511578952,50.1516105466637 22.595680027135952,50.68979439904125 22.517330130030246,51.227258862846526 22.444694613930483,51.76364424379338 22.379678272505316,52.29859084759568 22.324185899423384,52.83173897996729 22.280122288353343,53.36272894662207 22.24939223296384,53.89120105327387 22.233900526923517,54.41679560563656 22.235551963901024,54.939152909424 22.242491416136424,55.113067 4.0,55.113067" /><polygon points="28.761903789690606,55.013067 29.094120290602643,54.481097985769026 29.432659861701115,53.95448106878231 29.78384557317247,53.43856834628411 30.153990600304212,52.93870360320336 30.547072281443963,52.458268379750656 30.961734298510997,51.99616362120411 31.39587934488307,51.55066779751953 31.84741011393792,51.12005937865272 32.314229299053295,50.7026168345595 32.79423959360695,50.29661863519567 33.285343690976624,49.900343250517054 33.78544428454008,49.512069150479455 34.29244406767505,49.13007480503869 34.80452008290286,48.7530990528101 35.321582565300275,48.38278909772424 35.84421667417024,48.0219246931239 36.373009090056804,47.673288145054286 36.90854649350404,47.33966175956063 37.451415565056,47.02382784268813 38.00220298525676,46.72856870048202 38.561495434650354,46.45666663898753 39.12987959378087,46.210903964249866 39.70794214319235,45.994062982314254 40.29622161112199,45.808750228471965 40.894338141987774,45.65421985415584 41.5010876915075,45.526717468142564 42.11523697130204,45.42238192924602 42.73555269299226,45.33735209628009 43.36080156819902,45.26776682805864 43.989750308543194,45.20976498339556 44.62116562564563,45.15948542110472 45.25381423112721,45.113067 45.87321541659728,45.19118585473164 46.4912211806063,45.27318537569293 47.106436101693205,45.362946229113525 47.71746475839694,45.464349081223055 48.322911729256454,45.58127459825118 48.921381592810675,45.717603446427546 49.51147892759856,45.877216291981796 50.09180831215905,46.06399380114358 50.66116343653823,46.281212000570605 51.219695669906244,46.527806057197886 51.768149600161436,46.80081446058052 52.30727230078793,47.09726775319748 52.837810845269864,47.41419647752777 53.360512307091376,47.74863117605037 53.87612375973659,48.09760239124428 54.38539227668966,48.458140665588495 54.88906493143469,48.82727654156199 55.387888797455844,49.20204056164377 55.88249433656607,49.57980862398325 56.372695234730394,49.96037557989049 56.857956013117764,50.344570362779294 57.33773987758073,50.73322580148801 57.81151003397185,51.127174724854996 58.2787296881437,51.527249961718596 58.738862045948835,51.93428434091717 59.191370313239815,52.34911069128906 59.635717695869204,52.77256184167264 60.07136739968957,53.20547062090625 60.49818439132484,53.64818902295252 60.91794912571278,54.098776549199236 61.333012291330775,54.55461023476888 61.74572467256381,55.013067 57.25381423112721,105.113067 33.25381423112721,105.113067" /><polygon points="67.74572467256381,45.913067 67.76109644824123,45.7569947423871 67.80662104655478,45.606920254107926 67.88054898272178,45.46861081358432 67.98003924761457,45.34738157505076 68.10126848614813,45.24789131015797 68.23957792667174,45.17396337399097 68.3896524149509,45.12843877567742 68.54572467256381,45.113067 89.94572467256381,45.113067 90.1017969301767,45.12843877567742 90.25187141845588,45.17396337399097 90.39018085897949,45.24789131015797 90.51141009751305,45.34738157505076 90.61090036240584,45.46861081358432 90.68482829857284,45.606920254107926 90.73035289688639,45.7569947423871 90.74572467256381,45.913067 90.74572467256381,56.313067 90.73035289688639,56.4691392576129 90.68482829857284,56.619213745892075 90.61090036240584,56.75752318641568 90.51141009751305,56.87875242494924 90.39018085897949,56.978242689842034 90.25187141845588,57.05217062600903 90.1017969301767,57.097695224322585 89.94572467256381,57.113067 68.54572467256381,57.113067 68.3896524149509,57.097695224322585 68.23957792667174,57.05217062600903 68.10126848614813,56.97824268984204 67.98003924761457,56.87875242494924 67.88054898272178,56.75752318641568 67.80662104655478,56.619213745892075 67.76109644824123,56.4691392576129 67.74572467256381,56.313067" /><polygon points="96.74572467256381,45.513067 96.75341056040251,45.43503087119355 96.7761728595593,45.35999362705397 96.8131368276428,45.29083890679216 96.8628819600892,45.23022428752538 96.92349657935597,45.180479155078984 96.99265129961778,45.14351518699549 97.06768854375736,45.12075288783871 97.14572467256382,45.113067 108.3457246725638,45.113067 108.42376080137026,45.12075288783871 108.49879804550984,45.14351518699549 108.56795276577165,45.180479155078984 108.62856738503842,45.23022428752538 108.67831251748483,45.29083890679216 108.71527648556832,45.35999362705397 108.7380387847251,45.43503087119355 108.74572467256381,45.513067 108.74572467256381,47.713067 108.7380387847251,47.791103128806455 108.71527648556832,47.866140372946035 108.67831251748483,47.93529509320784 108.62856738503842,47.99590971247462 108.56795276577165,48.04565484492102 108.49879804550984,48.082618813004515 108.42376080137026,48.10538111216129 108.3457246725638,48.113067 97.14572467256382,48.113067 97.06768854375736,48.10538111216129 96.99265129961778,48.082618813004515 96.92349657935597,48.04565484492102 96.8628819600892,47.99590971247462 96.8131368276428,47.93529509320784 96.7761728595593,47.866140372946035 96.75341056040251,47.791103128806455 96.74572467256381,47.713067" /><polygon points="114.74572467256381,45.113067 115.22732667262208,45.210567 115.70892867268037,45.303067 116.19053067273865,45.390567000000004 116.67213267279693,45.473067 117.15373467285521,45.550567 117.6353366729135,45.623067 118.11693867297177,45.690567 118.59854067303004,45.753067 119.08014267308833,45.810567 119.5617446731466,45.863067 120.0433466732049,45.910567 120.52494867326317,45.953067000000004 121.00655067332146,45.990567 121.48815267337973,46.023067 121.96975467343802,46.050567 122.45135667349629,46.073067 122.93295867355457,46.090567 123.41456067361285,46.103067 123.89616267367113,46.110567 124.37776467372942,46.113067 124.85936667378769,46.110567 125.34096867384598,46.103067 125.82257067390425,46.090567 126.30417267396254,46.073067 126.78577467402081,46.050567 127.26737667407909,46.023067 127.74897867413738,45.990567 128.23058067419566,45.953067000000004 128.71218267425394,45.910567 129.1937846743122,45.863067 129.6753866743705,45.810567 130.15698867442876,45.753067 130.63859067448703,45.690567 131.12019267454534,45.623067 131.6017946746036,45.550567 132.08339667466188,45.473067 132.5649986747202,45.390567 133.04660067477846,45.303067 133.52820267483673,45.210567 134.009804674895,45.113067 135.20980467489503,51.613067 134.009804674895,49.613067 133.52820267483673,49.710567000000005 133.04660067477846,49.803067 132.5649986747202,49.890567 132.08339667466188,49.973067 131.6017946746036,50.050567 131.12019267454534,50.123067 130.63859067448703,50.190567 130.15698867442876,50.253067 129.6753866743705,50.310567 129.1937846743122,50.363067 128.71218267425394,50.410567 128.23058067419566,50.453067 127.74897867413738,50.490567 127.26737667407909,50.523067000000005 126.78577467402081,50.550567 126.30417267396254,50.573067 125.82257067390425,50.590567 125.34096867384598,50.603067 124.85936667378769,50.610567 124.37776467372942,50.613067 123.89616267367113,50.610567 123.41456067361285,50.603067 122.93295867355457,50.590567 122.45135667349629,50.573067 121.96975467343802,50.550567 121.48815267337973,50.523067000000005 121.00655067332146,50.490567 120.52494867326317,50.453067 120.0433466732049,50.410567 119.5617446731466,50.363067 119.08014267308833,50.310567 118.59854067303004,50.253067 118.11693867297177,50.190567 117.6353366729135,50.123067 117.15373467285521,50.050567 116.67213267279693,49.973067 116.19053067273865,49.890567 115.70892867268037,49.803067 115.22732667262208,49.710567000000005 114.74572467256381,49.613067" /><polygon points="141.20980467489503,45.113067 141.73390667495332,45.191067000000004 142.25800867501158,45.265067 142.78211067506987,45.335067 143.30621267512814,45.401067 143.83031467518643,45.463067 144.3544166752447,45.521067 144.87851867530298,45.575067000000004 145.40262067536128,45.625067 145.92672267541954,45.671067 146.45082467547783,45.713067 146.9749266755361,45.751067 147.4990286755944,45.785067 148.02313067565268,45.815067 148.54723267571094,45.841067 149.07133467576924,45.863067 149.5954366758275,45.881067 150.1195386758858,45.895067000000004 150.64364067594406,45.905067 151.16774267600235,45.911067 151.69184467606064,45.913067 152.2159466761189,45.911067 152.7400486761772,45.905067 153.26415067623546,45.895067000000004 153.78825267629375,45.881067 154.31235467635202,45.863067 154.8364566764103,45.841067 155.3605586764686,45.815067 155.88466067652686,45.785067 156.40876267658516,45.751067 156.93286467664342,45.713067 157.4569666767017,45.671067 157.98106867676,45.625067 158.50517067681827,45.575067000000004 159.02927267687656,45.521067 159.55337467693482,45.463067 160.07747667699311,45.401067 160.60157867705138,45.335067 161.12568067710967,45.265067 161.64978267716793,45.191067000000004 162.17388467722623,45.113067 162.17388467722623,48.113067 161.64978267716793,48.191067000000004 161.12568067710967,48.265067 160.60157867705138,48.335067 160.07747667699311,48.401067 159.55337467693482,48.463067 159.02927267687656,48.521067 158.50517067681827,48.575067000000004 157.98106867676,48.625067 157.4569666767017,48.671067 156.93286467664342,48.713067 156.40876267658516,48.751067 155.88466067652686,48.785067 155.3605586764686,48.815067 154.8364566764103,48.841067 154.31235467635202,48.863067 153.78825267629375,48.881067 153.26415067623546,48.895067000000004 152.7400486761772,48.905067 152.2159466761189,48.911067 151.69184467606064,48.913067 151.16774267600235,48.911067 150.64364067594406,48.905067 150.1195386758858,48.895067000000004 149.5954366758275,48.881067 149.07133467576924,48.863067 148.54723267571094,48.841067 148.02313067565268,48.815067 147.4990286755944,48.785067 146.9749266755361,48.751067 146.45082467547783,48.713067 145.92672267541954,48.671067 145.40262067536128,48.625067 144.87851867530298,48.575067 144.3544166752447,48.521067 143.83031467518643,48.463067 143.30621267512814,48.401067 142.78211067506987,48.335067 142.25800867501158,48.265067 141.73390667495332,48.191067000000004 141.20980467489503,48.113067" /><polygon points="4.0,120.513067 5.7,120.513067 5.946137211430921,120.29655607067131 6.1911230351686255,120.07912594386801 6.433806083519894,119.85985742211545 6.673034968791513,119.63783130793902 6.907658303290262,119.41212840386409 7.136524699322925,119.18182951241604 7.358482769196286,118.94601543612025 7.5723811252171265,118.70376697750208 7.777197617466955,118.45426719116355 7.973182834463885,118.19770611397952 8.161311146615965,117.93484643429173 8.342565282091677,117.6664574530469 8.517927969059487,117.39330847119179 8.688381935687879,117.11616878967313 8.854909910145325,116.83580770943767 9.018494620600304,116.55299453143218 9.180118795221286,116.26849855660336 9.340765162176753,115.98308908589797 9.501416449635176,115.69753542026278 9.663055385765034,115.4126068606445 9.826664698734799,115.12907270798989 9.993226961401806,114.84770214296425 10.16345393201771,114.56905461259903 10.337230036760209,114.29304883274412 10.514282265311873,114.01948159182177 10.694337607355273,113.74814967825431 10.877123052572978,113.478849880464 11.062365590647557,113.21137898687311 11.24979221126158,112.94553378590396 11.439129904097616,112.68111106597881 11.630105658838232,112.41790761551995 11.822446465166006,112.15572022294967 12.015879312763497,111.89434567669025 12.21013119131328,111.63358076516397 12.404929090497925,111.37322227679313 12.6,111.113067 13.6,111.613067 9.600000000000001,123.513067 10.0,179.113067 4.0,179.113067" /><polygon points="19.6,111.113067 31.6,111.113067 31.6,120.833067 25.6,124.613067 19.6,120.833067" /></g><g fill="none" id="PIQUETES" stroke="#00b0b0" stroke-width="0.08"><line x1="22.2626608028134" x2="22.087536792442844" y1="15.773126647105776" y2="16.395164894315492" /><line x1="22.64334262561443" x2="22.087536792442844" y1="16.065498584522633" y2="16.395164894315492" /><line x1="29.90359427551107" x2="29.38229956150564" y1="46.80598682460226" y2="46.42408131122232" /><line x1="29.496405724488927" x2="29.38229956150564" y1="47.060147175397745" y2="46.42408131122232" /><line x1="92.28437884129204" x2="92.61787927572303" y1="4.27172042706192" y2="4.825234166940472" /><line x1="92.7581125748444" x2="92.61787927572303" y1="4.19441357293808" y2="4.825234166940472" /><line x1="13.36032306347002" x2="13.068685139787561" y1="55.09204277268774" y2="54.515373611495484" /><line x1="12.882168352666405" x2="13.068685139787561" y1="55.13409122731226" y2="54.515373611495484" /><line x1="53.11327557532029" x2="53.1721152952529" y1="47.669144563438984" y2="48.312680022724834" /><line x1="53.573324780326416" x2="53.1721152952529" y1="47.80609246949535" y2="48.312680022724834" /><line x1="36.538244203656255" x2="36.94304932039886" y1="47.497467993310714" y2="48.001186979908404" /><line x1="36.99730698523883" x2="36.94304932039886" y1="47.35724901254965" y2="48.001186979908404" /><line x1="35.21239064068058" x2="35.6436232145085" y1="48.38483802525197" y2="48.866126366342584" /><line x1="35.66327434455767" x2="35.6436232145085" y1="48.220205447740476" y2="48.866126366342584" /></g><g fill="none" id="TEXTOS" stroke="#000000" stroke-width="0.08"><text fill="#000000" font-family="sans-serif" font-size="0.9" stroke="none" text-anchor="middle" x="15.771715158062143" y="21.918657591681313">DELANTERO TALLE</text><text fill="#000000" font-family="sans-serif" font-size="0.6" stroke="none" text-anchor="middle" x="15.771715158062143" y="23.318657591681312">Pieza N.01</text><text fill="#000000" font-family="sans-serif" font-size="0.6" stroke="none" text-anchor="middle" x="15.771715158062143" y="24.718657591681314">Talla: S</text><text fill="#000000" font-family="sans-serif" font-size="0.6" stroke="none" text-anchor="middle" x="15.771715158062143" y="26.118657591681313">Cortar: 2  (par: izq + der)</text><text fill="#000000" font-family="sans-serif" font-size="0.9" stroke="none" text-anchor="middle" x="52.86651829871414" y="19.40345275667655">DELANTERO FALDA</text><text fill="#000000" font-family="sans-serif" font-size="0.6" stroke="none" text-anchor="middle" x="52.86651829871414" y="20.80345275667655">Pieza N.21</text><text fill="#000000" font-family="sans-serif" font-size="0.6" stroke="none" text-anchor="middle" x="52.86651829871414" y="22.203452756676548">Talla: S</text><text fill="#000000" font-family="sans-serif" font-size="0.6" stroke="none" text-anchor="middle" x="52.86651829871414" y="23.603452756676546">Cortar: 2  (par: izq + der)</text><text fill="#000000" font-family="sans-serif" font-size="0.9" stroke="none" text-anchor="middle" x="94.65326714289684" y="13.698020758396288">ESPALDA TALLE</text><text fill="#000000" font-family="sans-serif" font-size="0.6" stroke="none" text-anchor="middle" x="94.65326714289684" y="15.098020758396286">Pieza N.02</text><text fill="#000000" font-family="sans-serif" font-size="0.6" stroke="none" text-anchor="middle" x="94.65326714289684" y="16.498020758396287">Talla: S</text><text fill="#000000" font-family="sans-serif" font-size="0.6" stroke="none" text-anchor="middle" x="94.65326714289684" y="17.898020758396285">Cortar: 1  (al doblez)</text><text fill="#000000" font-family="sans-serif" font-size="0.6" stroke="none" text-anchor="middle" x="94.65326714289684" y="19.298020758396284">AL DOBLEZ</text><text fill="#000000" font-family="sans-serif" font-size="0.9" stroke="none" text-anchor="middle" x="129.73333333333335" y="18.573066999999995">ESPALDA FALDA</text><text fill="#000000" font-family="sans-serif" font-size="0.6" stroke="none" text-anchor="middle" x="129.73333333333335" y="19.973066999999993">Pieza N.22</text><text fill="#000000" font-family="sans-serif" font-size="0.6" stroke="none" text-anchor="middle" x="129.73333333333335" y="21.373066999999992">Talla: S</text><text fill="#000000" font-family="sans-serif" font-size="0.6" stroke="none" text-anchor="middle" x="129.73333333333335" y="22.773066999999998">Cortar: 1  (al doblez)</text><text fill="#000000" font-family="sans-serif" font-size="0.6" stroke="none" text-anchor="middle" x="129.73333333333335" y="24.173066999999996">AL DOBLEZ</text><text fill="#000000" font-family="sans-serif" font-size="0.9" stroke="none" text-anchor="middle" x="12.757903032649189" y="47.381309639616994">CANESU</text><text fill="#000000" font-family="sans-serif" font-size="0.6" stroke="none" text-anchor="middle" x="12.757903032649189" y="48.78130963961699">Pieza N.03</text><text fill="#000000" font-family="sans-serif" font-size="0.6" stroke="none" text-anchor="middle" x="12.757903032649189" y="50.18130963961699">Talla: S</text><text fill="#000000" font-family="sans-serif" font-size="0.6" stroke="none" text-anchor="middle" x="12.757903032649189" y="51.581309639617">Cortar: 2  (al doblez x2 (exterior+interior))</text><text fill="#000000" font-family="sans-serif" font-size="0.6" stroke="none" text-anchor="middle" x="12.757903032649189" y="52.981309639616995">AL DOBLEZ</text><text fill="#000000" font-family="sans-serif" font-size="0.9" stroke="none" text-anchor="middle" x="45.20901577036907" y="72.36312631505307">MANGA</text><text fill="#000000" font-family="sans-serif" font-size="0.6" stroke="none" text-anchor="middle" x="45.20901577036907" y="73.76312631505306">Pieza N.04</text><text fill="#000000" font-family="sans-serif" font-size="0.6" stroke="none" text-anchor="middle" x="45.20901577036907" y="75.16312631505306">Talla: S</text><text fill="#000000" font-family="sans-serif" font-size="0.6" stroke="none" text-anchor="middle" x="45.20901577036907" y="76.56312631505307">Cortar: 2  (par: izq + der)</text><text fill="#000000" font-family="sans-serif" font-size="0.9" stroke="none" text-anchor="middle" x="79.24572467256381" y="48.413067000000005">PUNO</text><text fill="#000000" font-family="sans-serif" font-size="0.6" stroke="none" text-anchor="middle" x="79.24572467256381" y="49.813067000000004">Pieza N.05</text><text fill="#000000" font-family="sans-serif" font-size="0.6" stroke="none" text-anchor="middle" x="79.24572467256381" y="51.213067">Talla: S</text><text fill="#000000" font-family="sans-serif" font-size="0.6" stroke="none" text-anchor="middle" x="79.24572467256381" y="52.613067">Cortar: 4  (4 (2 tela + 2 entretela))</text><text fill="#000000" font-family="sans-serif" font-size="0.9" stroke="none" text-anchor="middle" x="102.74572467256381" y="43.913067">TAPETA MANGA</text><text fill="#000000" font-family="sans-serif" font-size="0.6" stroke="none" text-anchor="middle" x="102.74572467256381" y="45.313067">Pieza N.06</text><text fill="#000000" font-family="sans-serif" font-size="0.6" stroke="none" text-anchor="middle" x="102.74572467256381" y="46.713067">Talla: S</text><text fill="#000000" font-family="sans-serif" font-size="0.6" stroke="none" text-anchor="middle" x="102.74572467256381" y="48.113067">Cortar: 2  (par)</text><text fill="#000000" font-family="sans-serif" font-size="0.9" stroke="none" text-anchor="middle" x="124.68078520123397" y="44.45198354181554">CUELLO</text><text fill="#000000" font-family="sans-serif" font-size="0.6" stroke="none" text-anchor="middle" x="124.68078520123397" y="45.851983541815535">Pieza N.07</text><text fill="#000000" font-family="sans-serif" font-size="0.6" stroke="none" text-anchor="middle" x="124.68078520123397" y="47.251983541815534">Talla: S</text><text fill="#000000" font-family="sans-serif" font-size="0.6" stroke="none" text-anchor="middle" x="124.68078520123397" y="48.65198354181553">Cortar: 2  (al doblez x2 (+ entretela))</text><text fill="#000000" font-family="sans-serif" font-size="0.6" stroke="none" text-anchor="middle" x="124.68078520123397" y="50.05198354181554">AL DOBLEZ</text><text fill="#000000" font-family="sans-serif" font-size="0.9" stroke="none" text-anchor="middle" x="151.69184467606064" y="43.546067">PIE DE CUELLO</text><text fill="#000000" font-family="sans-serif" font-size="0.6" stroke="none" text-anchor="middle" x="151.69184467606064" y="44.946067">Pieza N.08</text><text fill="#000000" font-family="sans-serif" font-size="0.6" stroke="none" text-anchor="middle" x="151.69184467606064" y="46.346067000000005">Talla: S</text><text fill="#000000" font-family="sans-serif" font-size="0.6" stroke="none" text-anchor="middle" x="151.69184467606064" y="47.746067000000004">Cortar: 2  (al doblez x2 (+ entretela))</text><text fill="#000000" font-family="sans-serif" font-size="0.6" stroke="none" text-anchor="middle" x="151.69184467606064" y="49.146067">AL DOBLEZ</text><text fill="#000000" font-family="sans-serif" font-size="0.9" stroke="none" text-anchor="middle" x="7.150212866252476" y="144.9776551491815">VISTA DELANTERA</text><text fill="#000000" font-family="sans-serif" font-size="0.6" stroke="none" text-anchor="middle" x="7.150212866252476" y="146.3776551491815">Pieza N.09</text><text fill="#000000" font-family="sans-serif" font-size="0.6" stroke="none" text-anchor="middle" x="7.150212866252476" y="147.7776551491815">Talla: S</text><text fill="#000000" font-family="sans-serif" font-size="0.6" stroke="none" text-anchor="middle" x="7.150212866252476" y="149.1776551491815">Cortar: 2  (par: izq + der)</text><text fill="#000000" font-family="sans-serif" font-size="0.9" stroke="none" text-anchor="middle" x="25.6" y="114.26934606976744">BOLSILLO</text><text fill="#000000" font-family="sans-serif" font-size="0.6" stroke="none" text-anchor="middle" x="25.6" y="115.66934606976744">Pieza N.10</text><text fill="#000000" font-family="sans-serif" font-size="0.6" stroke="none" text-anchor="middle" x="25.6" y="117.06934606976745">Talla: S</text><text fill="#000000" font-family="sans-serif" font-size="0.6" stroke="none" text-anchor="middle" x="25.6" y="118.46934606976744">Cortar: 1  (1 (opcional))</text></g><g fill="none" id="CENTROS" stroke="#0050ff" stroke-width="0.08"><circle cx="18.9" cy="29.233067" fill="#0050ff" r="0.15" /><circle cx="49.37679184148636" cy="93.113067" fill="#0050ff" r="0.15" /></g><g fill="none" id="HILO" stroke="#c0a000" stroke-width="0.08"><line x1="17.7" x2="17.7" y1="16.633067" y2="69.233067" /><line x1="17.7" x2="18.167302010770378" y1="69.233067" y2="68.12779380719654" /><line x1="17.7" x2="17.232697989229617" y1="69.233067" y2="68.12779380719654" /><line x1="17.7" x2="17.23269798922962" y1="16.633067" y2="17.738340192803463" /><line x1="17.7" x2="18.167302010770378" y1="16.633067" y2="17.738340192803463" /><line x1="39.4" x2="39.4" y1="6.233067" y2="35.353066999999996" /><line x1="39.4" x2="39.86730201077038" y1="35.353066999999996" y2="34.24779380719653" /><line x1="39.4" x2="38.93269798922962" y1="35.353066999999996" y2="34.24779380719653" /><line x1="39.4" x2="38.93269798922962" y1="6.233067" y2="7.338340192803459" /><line x1="39.4" x2="39.86730201077038" y1="6.233067" y2="7.338340192803459" /><line x1="83.9" x2="83.9" y1="7.233067" y2="59.233067" /><line x1="83.9" x2="84.36730201077039" y1="59.233067" y2="58.12779380719654" /><line x1="83.9" x2="83.43269798922962" y1="59.233067" y2="58.12779380719654" /><line x1="83.9" x2="83.43269798922962" y1="7.233067" y2="8.338340192803463" /><line x1="83.9" x2="84.36730201077039" y1="7.233067" y2="8.338340192803463" /><line x1="115.4" x2="115.4" y1="6.233067" y2="35.353066999999996" /><line x1="115.4" x2="115.86730201077039" y1="35.353066999999996" y2="34.24779380719653" /><line x1="115.4" x2="114.93269798922962" y1="35.353066999999996" y2="34.24779380719653" /><line x1="115.4" x2="114.93269798922962" y1="6.233067" y2="7.338340192803459" /><line x1="115.4" x2="115.86730201077039" y1="6.233067" y2="7.338340192803459" /><line x1="8.26" x2="8.26" y1="46.113067" y2="54.613067" /><line x1="8.26" x2="8.72730201077038" y1="54.613067" y2="53.50779380719654" /><line x1="8.26" x2="7.792697989229619" y1="54.613067" y2="53.50779380719654" /><line x1="8.26" x2="7.7926979892296195" y1="46.113067" y2="47.21834019280346" /><line x1="8.26" x2="8.72730201077038" y1="46.113067" y2="47.21834019280346" /><line x1="45.25381423112721" x2="45.25381423112721" y1="49.073067" y2="103.113067" /><line x1="45.25381423112721" x2="45.72111624189759" y1="103.113067" y2="102.00779380719655" /><line x1="45.25381423112721" x2="44.786512220356826" y1="103.113067" y2="102.00779380719655" /><line x1="45.25381423112721" x2="44.786512220356826" y1="49.073067" y2="50.17834019280346" /><line x1="45.25381423112721" x2="45.72111624189759" y1="49.073067" y2="50.17834019280346" /><line x1="79.24572467256381" x2="79.24572467256381" y1="45.613067" y2="56.613067" /><line x1="79.24572467256381" x2="79.71302668333419" y1="56.613067" y2="55.50779380719654" /><line x1="79.24572467256381" x2="78.77842266179343" y1="56.613067" y2="55.50779380719654" /><line x1="79.24572467256381" x2="78.77842266179343" y1="45.613067" y2="46.71834019280346" /><line x1="79.24572467256381" x2="79.71302668333419" y1="45.613067" y2="46.71834019280346" /><line x1="102.74572467256381" x2="102.74572467256381" y1="45.513067" y2="47.713067" /><line x1="102.74572467256381" x2="103.21302668333419" y1="47.713067" y2="46.607793807196536" /><line x1="102.74572467256381" x2="102.27842266179343" y1="47.713067" y2="46.607793807196536" /><line x1="102.74572467256381" x2="102.27842266179343" y1="45.513067" y2="46.618340192803466" /><line x1="102.74572467256381" x2="103.21302668333419" y1="45.513067" y2="46.618340192803466" /><line x1="115.24572467256381" x2="133.509804674895" y1="45.613067" y2="45.613067" /><line x1="133.509804674895" x2="132.40453148209156" y1="45.613067" y2="45.14576498922962" /><line x1="133.509804674895" x2="132.40453148209156" y1="45.613067" y2="46.08036901077038" /><line x1="115.24572467256381" x2="116.35099786536728" y1="45.613067" y2="46.08036901077038" /><line x1="115.24572467256381" x2="116.35099786536728" y1="45.613067" y2="45.14576498922962" /><line x1="141.70980467489503" x2="161.67388467722623" y1="45.513067" y2="45.513067" /><line x1="161.67388467722623" x2="160.56861148442277" y1="45.513067" y2="45.04576498922962" /><line x1="161.67388467722623" x2="160.56861148442277" y1="45.513067" y2="45.98036901077038" /><line x1="141.70980467489503" x2="142.81507786769848" y1="45.513067" y2="45.98036901077038" /><line x1="141.70980467489503" x2="142.81507786769848" y1="45.513067" y2="45.04576498922962" /><line x1="7.0" x2="7.0" y1="125.513067" y2="176.113067" /><line x1="7.0" x2="7.467302010770381" y1="176.113067" y2="175.00779380719655" /><line x1="7.0" x2="6.532697989229619" y1="176.113067" y2="175.00779380719655" /><line x1="7.0" x2="6.53269798922962" y1="125.513067" y2="126.61834019280346" /><line x1="7.0" x2="7.46730201077038" y1="125.513067" y2="126.61834019280346" /><line x1="25.6" x2="25.6" y1="112.113067" y2="120.833067" /><line x1="25.6" x2="26.06730201077038" y1="120.833067" y2="119.72779380719653" /><line x1="25.6" x2="25.13269798922962" y1="120.833067" y2="119.72779380719653" /><line x1="25.6" x2="25.13269798922962" y1="112.113067" y2="113.21834019280347" /><line x1="25.6" x2="26.06730201077038" y1="112.113067" y2="113.21834019280347" /></g><g fill="none" id="DOBLEZ" stroke="#c000c0" stroke-width="0.08"><line x1="83.4" x2="83.4" y1="4.233067" y2="29.113067" /><line x1="113.4" x2="113.4" y1="4.233067" y2="37.353066999999996" /><line x1="4.0" x2="4.0" y1="45.113067" y2="55.113067" /><line x1="114.74572467256381" x2="114.74572467256381" y1="45.113067" y2="51.613067" /><line x1="141.20980467489503" x2="141.20980467489503" y1="45.113067" y2="48.913067" /></g><g fill="none" id="BOTONES" stroke="#ff8000" stroke-width="0.08"><circle cx="5.7" cy="15.133067" fill="#ff8000" r="0.55" /><circle cx="5.7" cy="23.649733666666666" fill="#ff8000" r="0.55" /><circle cx="5.7" cy="32.166400333333335" fill="#ff8000" r="0.55" /><circle cx="5.7" cy="40.683067" fill="#ff8000" r="0.55" /><circle cx="5.7" cy="49.19973366666667" fill="#ff8000" r="0.55" /><circle cx="5.7" cy="57.71640033333333" fill="#ff8000" r="0.55" /><circle cx="5.7" cy="66.233067" fill="#ff8000" r="0.55" /><circle cx="68.94572467256381" cy="51.113067" fill="#ff8000" r="0.55" /><circle cx="161.17388467722623" cy="46.613067" fill="#ff8000" r="0.55" /></g><g fill="none" id="OJAL" stroke="#ff40a0" stroke-width="0.08"><line x1="4.9" x2="6.5" y1="15.133067" y2="15.133067" /><line x1="4.9" x2="6.5" y1="23.649733666666666" y2="23.649733666666666" /><line x1="4.9" x2="6.5" y1="32.166400333333335" y2="32.166400333333335" /><line x1="4.9" x2="6.5" y1="40.683067" y2="40.683067" /><line x1="4.9" x2="6.5" y1="49.19973366666667" y2="49.19973366666667" /><line x1="4.9" x2="6.5" y1="57.71640033333333" y2="57.71640033333333" /><line x1="4.9" x2="6.5" y1="66.233067" y2="66.233067" /><line x1="89.54572467256381" x2="89.54572467256381" y1="50.313067000000004" y2="51.913067" /></g><g fill="none" id="REFERENCIAS" stroke="#b0b0b0" stroke-width="0.08"><text fill="#000000" font-family="sans-serif" font-size="0.5" stroke="none" text-anchor="start" x="5.7" y="12.633067">CF</text><text fill="#000000" font-family="sans-serif" font-size="0.5" stroke="none" text-anchor="start" x="83.7" y="33.233067">CB</text><text fill="#000000" font-family="sans-serif" font-size="0.5" stroke="none" text-anchor="start" x="79.24572467256381" y="50.313067000000004">DOBLEZ</text><text fill="#000000" font-family="sans-serif" font-size="0.5" stroke="none" text-anchor="start" x="25.6" y="112.613067">boca</text></g></svg>