<?xml version="1.0" encoding="utf-8" ?>
<svg baseProfile="full" height="158.260618cm" version="1.1" viewBox="0 0 158.0 158.260618" width="158.0cm" xmlns="http://www.w3.org/2000/svg" xmlns:ev="http://www.w3.org/2001/xml-events" xmlns:xlink="http://www.w3.org/1999/xlink"><defs /><rect fill="#f7f3ea" height="150.260618" stroke="#333" stroke-width="0.15" width="150.0" x="4.0" y="4.0" /><text fill="#000" font-family="sans-serif" font-size="1.4" x="4.0" y="3.0">PLANO DE CORTE — ancho 150 cm — largo 1.50 m</text><polygon fill="#cfe3f7" fill-opacity="0.5" points="4.0,74.267704 12.00722,74.267704 11.601177,17.827772 15.824922,5.262131 13.300661,4.0 12.604548000000001,4.928368 12.408809,5.189983 12.212994,5.452847 12.017382000000001,5.717166 11.822256,5.98315 11.6279,6.251011999999999 11.434603,6.520965 11.242656,6.793221 11.052355,7.067997 10.863996,7.345508 10.677882,7.6259689999999996 10.494319,7.909597 10.313615,8.196606 10.136242,8.486951000000001 9.963303,8.779094 9.795078,9.070626 9.63075,9.360295 9.469275,9.647313 9.309653,9.930903 9.150927,10.210297 8.992184,10.484739000000001 8.832553,10.753489 8.671203,11.015827 8.507341,11.271062 8.340206,11.518545 8.169058,11.757678 7.993161000000001,11.987943000000001 7.810869,12.210004 7.619404,12.426846 7.41765,12.641195 7.206278,12.853889 6.986212,13.065588 6.7584420000000005,13.27698 6.524011,13.488792 6.322425,13.667704 4.0,13.667704 4.0,74.267704" stroke="#1f6fb2" stroke-width="0.1" /><text fill="#0a3d62" font-family="sans-serif" font-size="1.6" text-anchor="middle" x="9.912461" y="39.133852">09</text><polygon fill="#cfe3f7" fill-opacity="0.5" points="16.824922,74.267704 24.832142,74.267704 24.426099,17.827772 28.649844,5.262131 26.125583,4.0 25.429470000000002,4.928368 25.233731,5.189983 25.037916000000003,5.452847 24.842304000000002,5.717166 24.647178,5.98315 24.452822,6.251011999999999 24.259525,6.520965 24.067578,6.793221 23.877277,7.067997 23.688918,7.345508 23.502804,7.6259689999999996 23.319241,7.909597 23.138537,8.196606 22.961164,8.486951000000001 22.788225,8.779094 22.62,9.070626 22.455672,9.360295 22.294197,9.647313 22.134575,9.930903 21.975849,10.210297 21.817106000000003,10.484739000000001 21.657475,10.753489 21.496125,11.015827 21.332263,11.271062 21.165128000000003,11.518545 20.99398,11.757678 20.818083,11.987943000000001 20.635791,12.210004 20.444326,12.426846 20.242572000000003,12.641195 20.031200000000002,12.853889 19.811134000000003,13.065588 19.583364,13.27698 19.348933000000002,13.488792 19.147347,13.667704 16.824922,13.667704 16.824922,74.267704" stroke="#1f6fb2" stroke-width="0.1" /><text fill="#0a3d62" font-family="sans-serif" font-size="1.6" text-anchor="middle" x="22.737383" y="39.133852">09</text><polygon fill="#cfe3f7" fill-opacity="0.5" points="34.253381000000005,66.004613 60.082085,66.004613 64.694586,14.559622999999998 63.988243,13.774989999999999 63.567436,13.312847999999999 63.13796,12.851835999999999 62.697763,12.395239 62.247089,11.9474 61.788167,11.51006 61.321992,11.082705 60.849184,10.664458 60.370352000000004,10.254439 59.886091,9.851766999999999 59.396986,9.455561 58.903613,9.064943 58.406533,8.679036 57.905640000000005,8.296466 57.398901,7.915755 56.883821,7.538259 56.359262,7.1668959999999995 55.824247,6.804792 55.277744,6.4551289999999995 54.718687,6.121163 54.14599200000001,5.80625 53.558596,5.513857 52.955505,5.24759 52.337374000000004,5.011762 51.709293,4.809616 51.077002,4.638591 50.442750000000004,4.494111 49.808081,4.371542 49.174414,4.266382 48.543098,4.174272 47.915466,4.0909949999999995 47.193968,4.0 46.458807,4.05394 45.818061,4.104962 45.173491,4.164405 44.526244000000005,4.236438 43.877471,4.325369 43.228369,4.435643 42.58024,4.57184 41.934651,4.738636 41.295789,4.939882 40.669523,5.174805 40.058158000000006,5.439152 39.4611,5.729414 38.877518,6.042254 38.30653,6.374447 37.747238,6.722872 37.198757,7.084489 36.660236,7.456322999999999 36.13086,7.835451 35.609041000000005,8.2196 35.091823000000005,8.609293000000001 34.578595,9.007759 34.071195,9.417183999999999 33.571837,9.839547 33.082792,10.276864 32.606406,10.731176 32.145118000000004,11.204525 31.701477000000004,11.698924 31.278642,12.215724 30.882289000000004,12.750982 30.512518000000004,13.294198000000002 30.163320000000002,13.837394 29.649844,14.659607999999999 34.253381000000005,66.004613" stroke="#1f6fb2" stroke-width="0.1" /><text fill="#0a3d62" font-family="sans-serif" font-size="1.6" text-anchor="middle" x="47.172215" y="35.0023065">04</text><polygon fill="#cfe3f7" fill-opacity="0.5" points="70.298123,66.004613 96.12682699999999,66.004613 100.739328,14.559622999999998 100.032985,13.774989999999999 99.612178,13.312847999999999 99.182702,12.851835999999999 98.742505,12.395239 98.291831,11.9474 97.832909,11.51006 97.36673400000001,11.082705 96.893926,10.664458 96.41509400000001,10.254439 95.930833,9.851766999999999 95.441728,9.455561 94.94835499999999,9.064943 94.45127500000001,8.679036 93.950382,8.296466 93.44364300000001,7.915755 92.928563,7.538259 92.404004,7.1668959999999995 91.868989,6.804792 91.322486,6.4551289999999995 90.763429,6.121163 90.190734,5.80625 89.60333800000001,5.513857 89.000247,5.24759 88.382116,5.011762 87.754035,4.809616 87.121744,4.638591 86.487492,4.494111 85.852823,4.371542 85.219156,4.266382 84.58784,4.174272 83.960208,4.0909949999999995 83.23871,4.0 82.50354899999999,4.05394 81.862803,4.104962 81.218233,4.164405 80.570986,4.236438 79.922213,4.325369 79.273111,4.435643 78.624982,4.57184 77.979393,4.738636 77.340531,4.939882 76.714265,5.174805 76.1029,5.439152 75.505842,5.729414 74.92226,6.042254 74.351272,6.374447 73.79198,6.722872 73.243499,7.084489 72.704978,7.456322999999999 72.175602,7.835451 71.653783,8.2196 71.136565,8.609293000000001 70.623337,9.007759 70.115937,9.417183999999999 69.616579,9.839547 69.127534,10.276864 68.651148,10.731176 68.18986,11.204525 67.746219,11.698924 67.323384,12.215724 66.927031,12.750982 66.55726,13.294198000000002 66.208062,13.837394 65.694586,14.659607999999999 70.298123,66.004613" stroke="#1f6fb2" stroke-width="0.1" /><text fill="#0a3d62" font-family="sans-serif" font-size="1.6" text-anchor="middle" x="83.21695700000001" y="35.0023065">04</text><polygon fill="#cfe3f7" fill-opacity="0.5" points="101.739328,13.633067 101.739328,42.033066999999996 129.439328,42.033066999999996 129.439328,26.857360999999997 128.84,26.172342999999998 128.486005,25.768483 128.130012,25.363836 127.770878,24.957849 127.407761,24.550319 127.039824,24.141047999999998 126.666234,23.729844999999997 126.286171,23.316536 125.899742,22.901911 125.510403,22.488083 125.123925,22.076037 124.744869,21.665301 124.377667,21.255467 124.026745,20.846346999999998 123.696473,20.437973 123.391104,20.030609 123.114668,19.624724 122.87084899999999,19.22094 122.662824,18.819888 122.49311399999999,18.421923 122.36271500000001,18.024288 122.269728,17.618925 122.210974,17.199514999999998 122.184836,16.764596 122.189952,16.313914 122.224876,15.847847 122.287938,15.367222 122.37719799999999,14.873137 122.49046,14.366815 122.62530100000001,13.849511 122.779123,13.32245 122.94919300000001,12.78679 123.132674,12.243606999999999 123.326662,11.693886 123.52819600000001,11.138521 124.059732,9.693617 111.014017,4.0 110.343876,4.893731 110.148137,5.155346 109.952322,5.41821 109.75671,5.682529 109.561584,5.948513 109.367228,6.216374999999999 109.173931,6.486328 108.981984,6.758584 108.791683,7.03336 108.603324,7.310871 108.41721,7.5913319999999995 108.233647,7.87496 108.052943,8.161969 107.87557,8.452314000000001 107.702631,8.744457 107.534406,9.035989 107.370078,9.325658 107.208603,9.612676 107.048981,9.896266 106.890255,10.17566 106.731512,10.450102000000001 106.571881,10.718852 106.410531,10.98119 106.246669,11.236425 106.079534,11.483908 105.90838600000001,11.723041 105.732489,11.953306000000001 105.550197,12.175367 105.358732,12.392209 105.156978,12.606558 104.945606,12.819252 104.72554,13.030951 104.49777,13.242343 104.263339,13.454155 104.061753,13.633067 101.739328,13.633067" stroke="#1f6fb2" stroke-width="0.1" /><text fill="#0a3d62" font-family="sans-serif" font-size="1.6" text-anchor="middle" x="115.589328" y="23.016533499999998">01</text><polygon fill="#cfe3f7" fill-opacity="0.5" points="4.0,84.90077099999999 4.0,113.300771 31.7,113.300771 31.7,98.12506499999999 31.100672,97.44004699999999 30.746677,97.036187 30.390684,96.63154 30.03155,96.22555299999999 29.668433,95.818023 29.300496,95.40875199999999 28.926906,94.99754899999999 28.546843,94.58424 28.160414,94.169615 27.771075,93.755787 27.384597,93.343741 27.005541,92.933005 26.638339,92.52317099999999 26.287416999999998,92.11405099999999 25.957145,91.705677 25.651775999999998,91.298313 25.375339999999998,90.892428 25.131521,90.488644 24.923496,90.087592 24.753785999999998,89.689627 24.623387,89.291992 24.5304,88.886629 24.471646,88.467219 24.445508,88.03229999999999 24.450623999999998,87.58161799999999 24.485547999999998,87.115551 24.54861,86.634926 24.63787,86.140841 24.751132,85.634519 24.885973,85.11721499999999 25.039794999999998,84.590154 25.209865,84.05449399999999 25.393345999999998,83.51131099999999 25.587334,82.96159 25.788868,82.40622499999999 26.320404,80.961321 13.274689,75.267704 12.604548000000001,76.161435 12.408809,76.42304999999999 12.212994,76.685914 12.017382000000001,76.950233 11.822256,77.216217 11.6279,77.484079 11.434603,77.754032 11.242656,78.026288 11.052355,78.301064 10.863996,78.578575 10.677882,78.85903599999999 10.494319,79.142664 10.313615,79.429673 10.136242,79.720018 9.963303,80.01216099999999 9.795078,80.303693 9.63075,80.593362 9.469275,80.88038 9.309653,81.16396999999999 9.150927,81.44336399999999 8.992184,81.717806 8.832553,81.986556 8.671203,82.24889399999999 8.507341,82.50412899999999 8.340206,82.751612 8.169058,82.99074499999999 7.993161000000001,83.22100999999999 7.810869,83.44307099999999 7.619404,83.65991299999999 7.41765,83.87426199999999 7.206278,84.086956 6.986212,84.298655 6.7584420000000005,84.510047 6.524011,84.721859 6.322425,84.90077099999999 4.0,84.90077099999999" stroke="#1f6fb2" stroke-width="0.1" /><text fill="#0a3d62" font-family="sans-serif" font-size="1.6" text-anchor="middle" x="17.85" y="94.28423749999999">01</text><polygon fill="#cfe3f7" fill-opacity="0.5" points="81.956334,86.84411399999999 81.667847,86.408048 81.379368,85.971184 81.090845,85.533176 80.802226,85.09367599999999 80.51346000000001,84.65233799999999 80.224504,84.208831 79.935746,83.76344 79.648979,83.317216 79.366721,82.870756 79.091082,82.42400799999999 78.824129,81.97692599999999 78.567903,81.52950899999999 78.324413,81.081797 78.09562,80.633862 77.88343,80.1858 77.689674,79.73771199999999 77.516095,79.28968599999999 77.36434200000001,78.84176 77.235945,78.39383199999999 77.131893,77.94394399999999 77.051451,77.488163 76.992833,77.024293 76.954642,76.552268 76.903386,75.267704 57.7,75.267704 57.7,103.06770399999999 82.7,103.06770399999999 82.7,87.966392 82.24488,87.279729 81.956334,86.84411399999999 33.44366600000001,86.84411399999999 33.732153000000004,86.408048 34.020632000000006,85.971184 34.309155000000004,85.533176 34.597774,85.09367599999999 34.886540000000004,84.65233799999999 35.175496,84.208831 35.464254000000004,83.76344 35.751021,83.317216 36.03327900000001,82.870756 36.308918000000006,82.42400799999999 36.57587100000001,81.97692599999999 36.832097000000005,81.52950899999999 37.075587,81.081797 37.30438,80.633862 37.51657,80.1858 37.710326,79.73771199999999 37.883905,79.28968599999999 38.035658,78.84176 38.164055000000005,78.39383199999999 38.268107,77.94394399999999 38.348549000000006,77.488163 38.407167,77.024293 38.445358,76.552268 38.49661400000001,75.267704 57.7,75.267704 57.7,103.06770399999999 32.7,103.06770399999999 32.7,87.966392 33.155120000000004,87.279729 33.44366600000001,86.84411399999999" stroke="#1f6fb2" stroke-width="0.1" /><text fill="#0a3d62" font-family="sans-serif" font-size="1.6" text-anchor="middle" x="57.7" y="89.16770399999999">02</text><polygon fill="#cfe3f7" fill-opacity="0.5" points="83.7,75.267704 83.7,93.267704 123.226023,93.267704 110.927887,75.267704 83.7,75.267704" stroke="#1f6fb2" stroke-width="0.1" /><text fill="#0a3d62" font-family="sans-serif" font-size="1.6" text-anchor="middle" x="103.46301150000001" y="84.267704">31</text><polygon fill="#cfe3f7" fill-opacity="0.5" points="4.0,114.300771 4.0,132.300771 43.526023,132.300771 31.227887,114.300771 4.0,114.300771" stroke="#1f6fb2" stroke-width="0.1" /><text fill="#0a3d62" font-family="sans-serif" font-size="1.6" text-anchor="middle" x="23.7630115" y="123.300771">31</text><polygon fill="#cfe3f7" fill-opacity="0.5" points="81.352046,132.300771 118.178069,132.300771 105.879933,114.300771 81.352046,114.300771 81.352046,132.300771 81.352046,132.300771 44.526023,132.300771 56.824159,114.300771 81.352046,114.300771 81.352046,132.300771" stroke="#1f6fb2" stroke-width="0.1" /><text fill="#0a3d62" font-family="sans-serif" font-size="1.6" text-anchor="middle" x="81.352046" y="123.300771">32</text><polygon fill="#cfe3f7" fill-opacity="0.5" points="119.178069,125.572676 126.178069,129.982676 133.178069,125.572676 133.178069,114.300771 119.178069,114.300771 119.178069,125.572676" stroke="#1f6fb2" stroke-width="0.1" /><text fill="#0a3d62" font-family="sans-serif" font-size="1.6" text-anchor="middle" x="126.178069" y="122.1417235">10</text><polygon fill="#cfe3f7" fill-opacity="0.5" points="4.0,145.54989799999998 4.029841,145.852878 4.132547,146.191453 4.299332,146.503486 4.523786,146.776985 4.7972850000000005,147.001439 5.109318,147.168224 5.4478930000000005,147.27093 5.750873,147.300771 27.249127,147.300771 27.552107,147.27093 27.890682,147.168224 28.202715,147.001439 28.476214,146.776985 28.700668,146.503486 28.867453,146.191453 28.970159,145.852878 29.0,145.54989799999998 29.0,135.051644 28.970159,134.748664 28.867453,134.410089 28.700668,134.09805599999999 28.476214,133.824557 28.202715,133.600103 27.890682,133.43331799999999 27.552107,133.330612 27.249127,133.300771 5.750873,133.300771 5.4478930000000005,133.330612 5.109318,133.43331799999999 4.7972850000000005,133.600103 4.523786,133.824557 4.299332,134.09805599999999 4.132547,134.410089 4.029841,134.748664 4.0,135.051644 4.0,145.54989799999998" stroke="#1f6fb2" stroke-width="0.1" /><text fill="#0a3d62" font-family="sans-serif" font-size="1.6" text-anchor="middle" x="16.5" y="140.300771">05</text><polygon fill="#cfe3f7" fill-opacity="0.5" points="30.0,145.54989799999998 30.029841,145.852878 30.132547,146.191453 30.299332,146.503486 30.523786,146.776985 30.797285,147.001439 31.109318000000002,147.168224 31.447893,147.27093 31.750873,147.300771 53.249127,147.300771 53.552107,147.27093 53.890682,147.168224 54.202715,147.001439 54.476214,146.776985 54.700668,146.503486 54.867453,146.191453 54.970158999999995,145.852878 55.0,145.54989799999998 55.0,135.051644 54.970158999999995,134.748664 54.867453,134.410089 54.700668,134.09805599999999 54.476214,133.824557 54.202715,133.600103 53.890682,133.43331799999999 53.552107,133.330612 53.249127,133.300771 31.750873,133.300771 31.447893,133.330612 31.109318000000002,133.43331799999999 30.797285,133.600103 30.523786,133.824557 30.299332,134.09805599999999 30.132547,134.410089 30.029841,134.748664 30.0,135.051644 30.0,145.54989799999998" stroke="#1f6fb2" stroke-width="0.1" /><text fill="#0a3d62" font-family="sans-serif" font-size="1.6" text-anchor="middle" x="42.5" y="140.300771">05</text><polygon fill="#cfe3f7" fill-opacity="0.5" points="95.109812,144.226835 95.10827,143.73915399999998 95.12286,143.244171 95.152042,142.74232 95.194218,142.234067 95.247736,141.719892 95.310889,141.200276 95.381927,140.675689 95.459058,140.146583 95.540457,139.613386 95.74864600000001,138.279657 82.845692,133.300771 82.20658399999999,133.734882 82.003755,133.871371 81.803425,134.003669 81.605097,134.130968 81.40829099999999,134.252518 81.21253300000001,134.36763 81.016683,134.476048 80.81873300000001,134.578322 80.617676,134.674961 80.4137,134.765872 80.207108,134.85091 79.998204,134.929934 79.787293,135.002811 79.574684,135.069412 79.36068399999999,135.129613 79.145601,135.183299 78.929644,135.23038 78.712166,135.270969 78.49201500000001,135.305556 78.26876200000001,135.334631 78.04241,135.35861599999998 77.81299,135.37794399999999 77.580557,135.39306299999998 77.345178,135.404437 77.106932,135.41254899999998 76.865904,135.417897 76.62218200000001,135.421001 76.375856,135.422393 76.12701200000001,135.422628 75.874323,135.422271 75.874323,145.422272 95.157512,145.422272 95.109812,144.226835 56.638834,144.226835 56.640376,143.73915399999998 56.625786000000005,143.244171 56.596604,142.74232 56.554428,142.234067 56.500910000000005,141.719892 56.437757000000005,141.200276 56.366719,140.675689 56.289588,140.146583 56.208189000000004,139.613386 56.0,138.279657 68.902954,133.300771 69.542062,133.734882 69.744891,133.871371 69.945221,134.003669 70.14354900000001,134.130968 70.340355,134.252518 70.536113,134.36763 70.73196300000001,134.476048 70.929913,134.578322 71.13097,134.674961 71.334946,134.765872 71.541538,134.85091 71.75044199999999,134.929934 71.961353,135.002811 72.173962,135.069412 72.387962,135.129613 72.60304500000001,135.183299 72.819002,135.23038 73.03648,135.270969 73.256631,135.305556 73.479884,135.334631 73.706236,135.35861599999998 73.935656,135.37794399999999 74.16808900000001,135.39306299999998 74.403468,135.404437 74.64171400000001,135.41254899999998 74.88274200000001,135.417897 75.126464,135.421001 75.37279000000001,135.422393 75.621634,135.422628 75.874323,135.422271 75.874323,145.422272 56.591134,145.422272 56.638834,144.226835" stroke="#1f6fb2" stroke-width="0.1" /><text fill="#0a3d62" font-family="sans-serif" font-size="1.6" text-anchor="middle" x="75.874323" y="139.3615215">03</text><polygon fill="#cfe3f7" fill-opacity="0.5" points="119.404015,140.155748 119.89550500000001,140.245045 120.38704800000001,140.329248 120.878641,140.408356 121.370282,140.482367 121.861967,140.55128 122.353694,140.615094 122.84546,140.673807 123.33726100000001,140.727419 123.82909500000001,140.775928 124.320959,140.819334 124.812849,140.857635 125.30476200000001,140.890831 125.796695,140.918921 126.288645,140.941904 126.780608,140.959781 127.272582,140.97255 127.76456200000001,140.980212 128.25654500000002,140.982765 128.74852800000002,140.980212 129.240508,140.97255 129.732482,140.959781 130.224445,140.941904 130.716395,140.918921 131.208328,140.890831 131.700241,140.857635 132.19213100000002,140.819334 132.683995,140.775928 133.17582900000002,140.727419 133.66763,140.673807 134.15939600000002,140.615094 134.651123,140.55128 135.142808,140.482367 135.63444900000002,140.408356 136.126042,140.329248 136.61758500000002,140.245045 137.10907500000002,140.155748 137.393424,140.101134 139.44514600000002,143.520671 140.500364,143.121688 138.687272,133.300771 137.213456,133.599144 136.741687,133.689756 136.269973,133.77545899999998 135.798312,133.856256 135.326701,133.93214799999998 134.855138,134.003137 134.383619,134.069224 133.91214200000002,134.13040999999998 133.440704,134.186697 132.969301,134.23808499999998 132.497931,134.284576 132.026591,134.32617 131.555277,134.362869 131.083986,134.394673 130.612715,134.421583 130.141461,134.4436 129.67022,134.460723 129.19899,134.472954 128.727766,134.480292 128.25654500000002,134.482739 127.785324,134.480292 127.31410000000001,134.472954 126.84287,134.460723 126.37162900000001,134.4436 125.90037500000001,134.421583 125.42910400000001,134.394673 124.957813,134.362869 124.48649900000001,134.32617 124.01515900000001,134.284576 123.543789,134.23808499999998 123.07238600000001,134.186697 122.600948,134.13040999999998 122.12947100000001,134.069224 121.65795200000001,134.003137 121.186389,133.93214799999998 120.71477800000001,133.856256 120.24311700000001,133.77545899999998 119.771403,133.689756 119.299634,133.599144 118.624505,133.462465 118.624505,140.003039 118.91258,140.06136 119.404015,140.155748 117.84499500000001,140.155748 117.35350500000001,140.245045 116.861962,140.329248 116.37036900000001,140.408356 115.87872800000001,140.482367 115.387043,140.55128 114.89531600000001,140.615094 114.40355000000001,140.673807 113.91174900000001,140.727419 113.419915,140.775928 112.92805100000001,140.819334 112.436161,140.857635 111.944248,140.890831 111.452315,140.918921 110.96036500000001,140.941904 110.46840200000001,140.959781 109.976428,140.97255 109.484448,140.980212 108.99246500000001,140.982765 108.500482,140.980212 108.00850200000001,140.97255 107.51652800000001,140.959781 107.02456500000001,140.941904 106.532615,140.918921 106.040682,140.890831 105.54876900000001,140.857635 105.05687900000001,140.819334 104.565015,140.775928 104.073181,140.727419 103.58138000000001,140.673807 103.08961400000001,140.615094 102.59788700000001,140.55128 102.10620200000001,140.482367 101.61456100000001,140.408356 101.12296800000001,140.329248 100.63142500000001,140.245045 100.13993500000001,140.155748 99.855586,140.101134 97.803864,143.520671 96.74864600000001,143.121688 98.561738,133.300771 100.035554,133.599144 100.50732300000001,133.689756 100.979037,133.77545899999998 101.450698,133.856256 101.92230900000001,133.93214799999998 102.393872,134.003137 102.865391,134.069224 103.33686800000001,134.13040999999998 103.808306,134.186697 104.27970900000001,134.23808499999998 104.751079,134.284576 105.222419,134.32617 105.69373300000001,134.362869 106.165024,134.394673 106.636295,134.421583 107.107549,134.4436 107.57879000000001,134.460723 108.05002,134.472954 108.52124400000001,134.480292 108.99246500000001,134.482739 109.46368600000001,134.480292 109.93491,134.472954 110.40614000000001,134.460723 110.87738100000001,134.4436 111.348635,134.421583 111.819906,134.394673 112.29119700000001,134.362869 112.762511,134.32617 113.23385100000002,134.284576 113.70522100000001,134.23808499999998 114.176624,134.186697 114.64806200000001,134.13040999999998 115.119539,134.069224 115.591058,134.003137 116.06262100000001,133.93214799999998 116.534232,133.856256 117.00589300000001,133.77545899999998 117.477607,133.689756 117.949376,133.599144 118.624505,133.462465 118.624505,140.003039 118.33643000000001,140.06136 117.84499500000001,140.155748" stroke="#1f6fb2" stroke-width="0.1" /><text fill="#0a3d62" font-family="sans-serif" font-size="1.6" text-anchor="middle" x="118.624505" y="138.410721">07</text><polygon fill="#cfe3f7" fill-opacity="0.5" points="26.876185,153.60331299999999 27.407719999999998,153.674306 27.939276,153.741245 28.470852,153.804129 29.002448,153.862958 29.534062,153.917732 30.065693,153.968451 30.59734,154.01511299999999 31.129001,154.057718 31.660674999999998,154.096267 32.192361,154.130759 32.724058,154.161194 33.255764,154.187571 33.787478,154.209891 34.319198,154.228153 34.850924,154.242356 35.382654,154.252502 35.914386,154.258589 36.44612,154.260618 36.977854,154.258589 37.509586,154.252502 38.041315999999995,154.242356 38.573042,154.228153 39.104762,154.209891 39.636476,154.187571 40.168182,154.161194 40.699878999999996,154.130759 41.231565,154.096267 41.763239,154.057718 42.2949,154.01511299999999 42.826547,153.968451 43.358177999999995,153.917732 43.889792,153.862958 44.421388,153.804129 44.952963999999994,153.741245 45.48452,153.674306 46.016054999999994,153.60331299999999 46.547566,153.528267 47.92816,153.322799 47.92816,148.300771 46.260549999999995,148.548955 45.743857,148.621909 45.227188,148.690916 44.710539999999995,148.755977 44.193912,148.817093 43.677304,148.874264 43.160714,148.92749 42.644141,148.97677099999999 42.127584,149.022109 41.611041,149.063504 41.094511,149.100955 40.577993,149.134463 40.061486,149.164028 39.544988000000004,149.189651 39.028498,149.211331 38.512014,149.229069 37.995536,149.242866 37.479062,149.25272 36.96259,149.258633 36.44612,149.260604 35.929649999999995,149.258633 35.413178,149.25272 34.896704,149.242866 34.380226,149.229069 33.863742,149.211331 33.347252,149.189651 32.830754,149.164028 32.314246999999995,149.134463 31.797729,149.100955 31.281199,149.063504 30.764656,149.022109 30.248099,148.97677099999999 29.731526,148.92749 29.214935999999998,148.874264 28.698328,148.817093 28.1817,148.755977 27.665052,148.690916 27.148383,148.621909 26.63169,148.548955 25.96408,148.449597 25.96408,153.471625 26.344673999999998,153.528267 26.876185,153.60331299999999 25.051975,153.60331299999999 24.52044,153.674306 23.988884,153.741245 23.457307999999998,153.804129 22.925711999999997,153.862958 22.394098,153.917732 21.862467,153.968451 21.33082,154.01511299999999 20.799159,154.057718 20.267485,154.096267 19.735799,154.130759 19.204102,154.161194 18.672396,154.187571 18.140681999999998,154.209891 17.608962,154.228153 17.077236,154.242356 16.545506,154.252502 16.013773999999998,154.258589 15.48204,154.260618 14.950306,154.258589 14.418574,154.252502 13.886844,154.242356 13.355118,154.228153 12.823398,154.209891 12.291683999999998,154.187571 11.759977999999998,154.161194 11.228280999999999,154.130759 10.696594999999999,154.096267 10.164921,154.057718 9.63326,154.01511299999999 9.101613,153.968451 8.569982,153.917732 8.038367999999998,153.862958 7.506771999999998,153.804129 6.975196,153.741245 6.4436399999999985,153.674306 5.912105,153.60331299999999 5.3805939999999985,153.528267 4.0,153.322799 4.0,148.300771 5.66761,148.548955 6.184303,148.621909 6.700972,148.690916 7.21762,148.755977 7.734248000000001,148.817093 8.250855999999999,148.874264 8.767446,148.92749 9.284019,148.97677099999999 9.800576,149.022109 10.317119,149.063504 10.833649,149.100955 11.350166999999999,149.134463 11.866674,149.164028 12.383171999999998,149.189651 12.899662,149.211331 13.416146,149.229069 13.932623999999999,149.242866 14.449098,149.25272 14.96557,149.258633 15.48204,149.260604 15.99851,149.258633 16.514982,149.25272 17.031456,149.242866 17.547933999999998,149.229069 18.064418,149.211331 18.580908,149.189651 19.097406,149.164028 19.613913,149.134463 20.130430999999998,149.100955 20.646960999999997,149.063504 21.163504,149.022109 21.680061,148.97677099999999 22.196634,148.92749 22.713224,148.874264 23.229832,148.817093 23.74646,148.755977 24.263108,148.690916 24.779777,148.621909 25.29647,148.548955 25.96408,148.449597 25.96408,153.471625 25.583486,153.528267 25.051975,153.60331299999999" stroke="#1f6fb2" stroke-width="0.1" /><text fill="#0a3d62" font-family="sans-serif" font-size="1.6" text-anchor="middle" x="25.96408" y="151.2806945">08</text><polygon fill="#cfe3f7" fill-opacity="0.5" points="48.92816,151.949898 48.950314999999996,152.174841 49.030257999999996,152.438379 49.160078999999996,152.681257 49.334789,152.894142 49.547674,153.068852 49.790552,153.19867299999999 50.054089999999995,153.278616 50.279033,153.300771 61.577287,153.300771 61.802229999999994,153.278616 62.065768,153.19867299999999 62.308645999999996,153.068852 62.521530999999996,152.894142 62.696241,152.681257 62.826062,152.438379 62.906005,152.174841 62.92816,151.949898 62.92816,149.651644 62.906005,149.426701 62.826062,149.163163 62.696241,148.920285 62.521530999999996,148.7074 62.308645999999996,148.53269 62.065768,148.402869 61.802229999999994,148.322926 61.577287,148.300771 50.279033,148.300771 50.054089999999995,148.322926 49.790552,148.402869 49.547674,148.53269 49.334789,148.7074 49.160078999999996,148.920285 49.030257999999996,149.163163 48.950314999999996,149.426701 48.92816,149.651644 48.92816,151.949898" stroke="#1f6fb2" stroke-width="0.1" /><text fill="#0a3d62" font-family="sans-serif" font-size="1.6" text-anchor="middle" x="55.92816" y="150.800771">06</text><polygon fill="#cfe3f7" fill-opacity="0.5" points="63.92816,151.949898 63.950314999999996,152.174841 64.030258,152.438379 64.160079,152.681257 64.334789,152.894142 64.547674,153.068852 64.790552,153.19867299999999 65.05409,153.278616 65.279033,153.300771 76.577287,153.300771 76.80223,153.278616 77.06576799999999,153.19867299999999 77.308646,153.068852 77.521531,152.894142 77.696241,152.681257 77.826062,152.438379 77.906005,152.174841 77.92815999999999,151.949898 77.92815999999999,149.651644 77.906005,149.426701 77.826062,149.163163 77.696241,148.920285 77.521531,148.7074 77.308646,148.53269 77.06576799999999,148.402869 76.80223,148.322926 76.577287,148.300771 65.279033,148.300771 65.05409,148.322926 64.790552,148.402869 64.547674,148.53269 64.334789,148.7074 64.160079,148.920285 64.030258,149.163163 63.950314999999996,149.426701 63.92816,149.651644 63.92816,151.949898" stroke="#1f6fb2" stroke-width="0.1" /><text fill="#0a3d62" font-family="sans-serif" font-size="1.6" text-anchor="middle" x="70.92815999999999" y="150.800771">06</text></svg>