<?xml version="1.0" encoding="utf-8" ?>
<svg baseProfile="full" height="234.495878cm" version="1.1" viewBox="0 0 118.0 234.495878" width="118.0cm" xmlns="http://www.w3.org/2000/svg" xmlns:ev="http://www.w3.org/2001/xml-events" xmlns:xlink="http://www.w3.org/1999/xlink"><defs /><rect fill="#f7f3ea" height="226.495878" stroke="#333" stroke-width="0.15" width="110.0" x="4.0" y="4.0" /><text fill="#000" font-family="sans-serif" font-size="1.4" x="4.0" y="3.0">PLANO DE CORTE — ancho 110 cm — largo 2.26 m</text><polygon fill="#cfe3f7" fill-opacity="0.5" points="4.0,74.27712 12.00722,74.27712 11.601177,17.837187999999998 15.824922,5.271547 13.281829,4.0 12.589966,4.97153 12.394179000000001,5.247058 12.198366,5.523829 12.002815,5.802047 11.807819,6.081919 11.613672000000001,6.363653 11.420673,6.647458 11.229121,6.9335439999999995 11.039321000000001,7.222123 10.851581,7.5134050000000006 10.66621,7.8076039999999995 10.483523,8.104929 10.303839,8.405593 10.12762,8.709561 9.955919,9.015327 9.788956,9.320492 9.625877,9.623798 9.465603,9.924468000000001 9.307096,10.221734999999999 9.149362,10.514841 8.991447,10.803038 8.832439,11.085594 8.671467,11.361792000000001 8.507696,11.630946 8.340322,11.892405 8.168566,12.145571 7.991658,12.389911 7.808073,12.625935 7.615093,12.856554 7.411572,13.08466 7.198189,13.311169 6.975921,13.536747 6.832577000000001,13.67712 4.0,13.67712 4.0,74.27712" stroke="#1f6fb2" stroke-width="0.1" /><text fill="#0a3d62" font-family="sans-serif" font-size="1.6" text-anchor="middle" x="9.912461" y="39.13856">09</text><polygon fill="#cfe3f7" fill-opacity="0.5" points="16.824922,74.27712 24.832142,74.27712 24.426099,17.837187999999998 28.649844,5.271547 26.106751000000003,4.0 25.414888,4.97153 25.219101000000002,5.247058 25.023288,5.523829 24.827737,5.802047 24.632741000000003,6.081919 24.438594000000002,6.363653 24.245595,6.647458 24.054043,6.9335439999999995 23.864243000000002,7.222123 23.676503,7.5134050000000006 23.491132,7.8076039999999995 23.308445,8.104929 23.128761,8.405593 22.952542,8.709561 22.780841000000002,9.015327 22.613878,9.320492 22.450799,9.623798 22.290525000000002,9.924468000000001 22.132018000000002,10.221734999999999 21.974284,10.514841 21.816369,10.803038 21.657361,11.085594 21.496389,11.361792000000001 21.332618,11.630946 21.165244,11.892405 20.993488,12.145571 20.816580000000002,12.389911 20.632995,12.625935 20.440015000000002,12.856554 20.236494,13.08466 20.023111,13.311169 19.800843,13.536747 19.657499,13.67712 16.824922,13.67712 16.824922,74.27712" stroke="#1f6fb2" stroke-width="0.1" /><text fill="#0a3d62" font-family="sans-serif" font-size="1.6" text-anchor="middle" x="22.737383" y="39.13856">09</text><polygon fill="#cfe3f7" fill-opacity="0.5" points="29.649844,74.241135 57.349844000000004,74.241135 57.349844000000004,26.835031 56.669314,26.135337 56.269076999999996,25.725236 55.86434,25.313334 55.453467,24.899379 55.034832,24.483139 54.606821,24.064398 54.167829,23.642954 53.716260000000005,23.218613 53.250564,22.791224 52.770683000000005,22.361873 52.281844,21.932924 51.792506,21.505383 51.309663,21.078892 50.840328,20.653345 50.391631000000004,20.229017000000002 49.970768,19.806618999999998 49.584904,19.387393 49.240995,18.973213 48.945472,18.566663 48.703702,18.170935 48.519261,17.789305 48.393225,17.423774 48.323444,17.068531 48.306059000000005,16.705595000000002 48.339315,16.320161 48.424026,15.908637 48.560265,15.471687 48.746471,15.011919 48.979516000000004,14.532586 49.255128,14.036865 49.568308,13.527552 49.91364,13.00699 50.285499,12.477102 50.678163,11.939444 51.085890000000006,11.395267 52.271152,9.83301 38.906047,4.0 38.239810000000006,4.935545 38.044023,5.211073 37.84821,5.487844 37.652659,5.766062 37.457663000000004,6.045934 37.263516,6.327668 37.070517,6.611473 36.878965,6.897559 36.689165,7.186138 36.501425000000005,7.47742 36.316054,7.771619 36.133367,8.068944 35.953683,8.369608 35.777464,8.673576 35.605763,8.979341999999999 35.4388,9.284507 35.275721000000004,9.587813 35.115447,9.888483 34.95694,10.185749999999999 34.799206,10.478856 34.641291,10.767053 34.482283,11.049609 34.321311,11.325807000000001 34.157540000000004,11.594961 33.990166,11.85642 33.81841,12.109586 33.641502,12.353926 33.457917,12.58995 33.264937,12.820569 33.061416,13.048675000000001 32.848033,13.275184 32.625765,13.500762 32.482421,13.641135 29.649844,13.641135 29.649844,74.241135" stroke="#1f6fb2" stroke-width="0.1" /><text fill="#0a3d62" font-family="sans-serif" font-size="1.6" text-anchor="middle" x="43.499844" y="39.1205675">01</text><polygon fill="#cfe3f7" fill-opacity="0.5" points="58.349844000000004,74.241135 86.04984400000001,74.241135 86.04984400000001,26.835031 85.369314,26.135337 84.969077,25.725236 84.56434,25.313334 84.153467,24.899379 83.73483200000001,24.483139 83.306821,24.064398 82.867829,23.642954 82.41626000000001,23.218613 81.950564,22.791224 81.47068300000001,22.361873 80.981844,21.932924 80.492506,21.505383 80.009663,21.078892 79.540328,20.653345 79.091631,20.229017000000002 78.67076800000001,19.806618999999998 78.28490400000001,19.387393 77.940995,18.973213 77.64547200000001,18.566663 77.40370200000001,18.170935 77.219261,17.789305 77.093225,17.423774 77.02344400000001,17.068531 77.00605900000001,16.705595000000002 77.039315,16.320161 77.124026,15.908637 77.260265,15.471687 77.446471,15.011919 77.679516,14.532586 77.955128,14.036865 78.268308,13.527552 78.61364,13.00699 78.985499,12.477102 79.378163,11.939444 79.78589000000001,11.395267 80.971152,9.83301 67.606047,4.0 66.93981000000001,4.935545 66.744023,5.211073 66.54821000000001,5.487844 66.352659,5.766062 66.157663,6.045934 65.963516,6.327668 65.770517,6.611473 65.57896500000001,6.897559 65.389165,7.186138 65.201425,7.47742 65.016054,7.771619 64.83336700000001,8.068944 64.653683,8.369608 64.477464,8.673576 64.305763,8.979341999999999 64.1388,9.284507 63.97572100000001,9.587813 63.815447000000006,9.888483 63.656940000000006,10.185749999999999 63.499206,10.478856 63.341291000000005,10.767053 63.182283000000005,11.049609 63.021311000000004,11.325807000000001 62.85754000000001,11.594961 62.690166000000005,11.85642 62.51841,12.109586 62.341502000000006,12.353926 62.157917000000005,12.58995 61.964937000000006,12.820569 61.761416000000004,13.048675000000001 61.548033000000004,13.275184 61.325765000000004,13.500762 61.182421000000005,13.641135 58.349844000000004,13.641135 58.349844000000004,74.241135" stroke="#1f6fb2" stroke-width="0.1" /><text fill="#0a3d62" font-family="sans-serif" font-size="1.6" text-anchor="middle" x="72.199844" y="39.1205675">01</text><polygon fill="#cfe3f7" fill-opacity="0.5" points="9.823965000000001,137.282706 35.603591,137.282706 41.438961000000006,87.411914 40.728032,86.560265 40.286446,86.037166 39.835987,85.515366 39.374243,84.998132 38.900921,84.489935 38.418102000000005,83.992728 37.926899,83.506022 37.427989000000004,83.028864 36.922035,82.560299 36.409689,82.099369 35.891589,81.645115 35.368365,81.196579 34.840635,80.75280699999999 34.308589,80.312499 33.770462,79.87376 33.223369000000005,79.437743 32.665742,79.007746 32.096348,78.587441 31.513884,78.180561 30.916994000000003,77.79092 30.304295000000003,77.42244199999999 29.674416,77.079188 29.026048000000003,76.765379 28.359102,76.485863 27.678334,76.245248 26.990631,76.041364 26.299165000000002,75.868937 25.605923,75.722477 24.912722000000002,75.596645 24.221289000000002,75.486276 23.533326000000002,75.38637299999999 22.742025,75.27712 21.934271000000003,75.34272 21.230481,75.404699 20.522965000000003,75.47676799999999 19.813196,75.563924 19.102654,75.67133 18.392888,75.804318 17.685589,75.96838199999999 16.982945,76.169071 16.290592,76.410437 15.614603000000002,76.69023899999999 14.956485,77.00349299999999 14.315308000000002,77.346068 13.689989,77.714004 13.079395000000002,78.103479 12.482391000000002,78.51079299999999 11.897866,78.932339 11.324757000000002,79.36457999999999 10.762027000000002,79.804056 10.207430000000002,80.24843299999999 9.658269,80.698944 9.114754000000001,81.158821 8.579037000000001,81.630117 8.053442000000002,82.114817 7.540349000000001,82.614932 7.042210000000001,83.132488 6.561563,83.669502 6.101046,84.227957 5.664051000000001,84.808904 5.255736000000002,85.40775599999999 4.874572000000001,86.014128 4.513801000000001,86.62077 4.0,87.50938199999999 9.823965000000001,137.282706" stroke="#1f6fb2" stroke-width="0.1" /><text fill="#0a3d62" font-family="sans-serif" font-size="1.6" text-anchor="middle" x="22.719480500000003" y="106.279913">04</text><polygon fill="#cfe3f7" fill-opacity="0.5" points="48.26292600000001,137.282706 74.042552,137.282706 79.87792200000001,87.411914 79.166993,86.560265 78.725407,86.037166 78.27494800000001,85.515366 77.81320400000001,84.998132 77.339882,84.489935 76.85706300000001,83.992728 76.36586,83.506022 75.86695,83.028864 75.360996,82.560299 74.84865,82.099369 74.33055000000002,81.645115 73.807326,81.196579 73.279596,80.75280699999999 72.74755,80.312499 72.20942300000002,79.87376 71.66233000000001,79.437743 71.104703,79.007746 70.53530900000001,78.587441 69.95284500000001,78.180561 69.35595500000001,77.79092 68.743256,77.42244199999999 68.11337700000001,77.079188 67.46500900000001,76.765379 66.79806300000001,76.485863 66.11729500000001,76.245248 65.42959200000001,76.041364 64.73812600000001,75.868937 64.04488400000001,75.722477 63.35168300000001,75.596645 62.660250000000005,75.486276 61.97228700000001,75.38637299999999 61.180986000000004,75.27712 60.37323200000001,75.34272 59.669442000000004,75.404699 58.961926000000005,75.47676799999999 58.25215700000001,75.563924 57.54161500000001,75.67133 56.831849000000005,75.804318 56.124550000000006,75.96838199999999 55.42190600000001,76.169071 54.72955300000001,76.410437 54.05356400000001,76.69023899999999 53.39544600000001,77.00349299999999 52.75426900000001,77.346068 52.12895,77.714004 51.51835600000001,78.103479 50.921352000000006,78.51079299999999 50.33682700000001,78.932339 49.76371800000001,79.36457999999999 49.20098800000001,79.804056 48.64639100000001,80.24843299999999 48.09723000000001,80.698944 47.55371500000001,81.158821 47.017998000000006,81.630117 46.49240300000001,82.114817 45.979310000000005,82.614932 45.481171,83.132488 45.000524000000006,83.669502 44.540007,84.227957 44.10301200000001,84.808904 43.694697000000005,85.40775599999999 43.31353300000001,86.014128 42.95276200000001,86.62077 42.438961000000006,87.50938199999999 48.26292600000001,137.282706" stroke="#1f6fb2" stroke-width="0.1" /><text fill="#0a3d62" font-family="sans-serif" font-size="1.6" text-anchor="middle" x="61.15844150000001" y="106.279913">04</text><polygon fill="#cfe3f7" fill-opacity="0.5" points="54.0,150.920111 53.408283999999995,150.21144099999998 53.047069,149.779752 52.682741,149.346185 52.314092,148.91022099999998 51.939915,148.471353 51.559011999999996,148.029081 51.170187,147.582914 50.772253,147.13236899999998 50.364062000000004,146.677008 49.945682000000005,146.217614 49.521406999999996,145.75644799999998 49.097831,145.29492299999998 48.680504,144.83330099999998 48.274973,144.372028 47.886821,143.91180699999998 47.521629000000004,143.45362699999998 47.184905,142.998798 46.88198,142.548983 46.617835,142.10620699999998 46.396851999999996,141.672775 46.222496,141.25101999999998 46.097015999999996,140.84275499999998 46.021364,140.448222 45.99541,140.06054 46.018297000000004,139.665018 46.255678,138.282706 29.0,138.282706 29.0,198.282706 54.0,198.282706 54.0,150.920111 4.0,150.920111 4.591716000000002,150.21144099999998 4.9529309999999995,149.779752 5.317259,149.346185 5.685908000000001,148.91022099999998 6.060085000000001,148.471353 6.440988000000001,148.029081 6.8298130000000015,147.582914 7.227747000000001,147.13236899999998 7.6359379999999994,146.677008 8.054317999999999,146.217614 8.478593,145.75644799999998 8.902169,145.29492299999998 9.319496000000001,144.83330099999998 9.725027,144.372028 10.113178999999999,143.91180699999998 10.478371,143.45362699999998 10.815095,142.998798 11.118020000000001,142.548983 11.382165,142.10620699999998 11.603148000000001,141.672775 11.777504,141.25101999999998 11.902984,140.84275499999998 11.978636000000002,140.448222 12.00459,140.06054 11.981703,139.665018 11.744322,138.282706 29.0,138.282706 29.0,198.282706 4.0,198.282706 4.0,150.920111" stroke="#1f6fb2" stroke-width="0.1" /><text fill="#0a3d62" font-family="sans-serif" font-size="1.6" text-anchor="middle" x="29.0" y="168.282706">02</text><polygon fill="#cfe3f7" fill-opacity="0.5" points="55.0,149.554611 62.0,153.964611 69.0,149.554611 69.0,138.282706 55.0,138.282706 55.0,149.554611" stroke="#1f6fb2" stroke-width="0.1" /><text fill="#0a3d62" font-family="sans-serif" font-size="1.6" text-anchor="middle" x="62.0" y="146.12365849999998">10</text><polygon fill="#cfe3f7" fill-opacity="0.5" points="70.0,150.53183299999998 70.029841,150.834813 70.132547,151.173388 70.299332,151.485421 70.523786,151.75892 70.797285,151.983374 71.109318,152.150159 71.447893,152.25286499999999 71.750873,152.282706 93.249127,152.282706 93.552107,152.25286499999999 93.890682,152.150159 94.202715,151.983374 94.476214,151.75892 94.70066800000001,151.485421 94.867453,151.173388 94.970159,150.834813 95.0,150.53183299999998 95.0,140.033579 94.970159,139.73059899999998 94.867453,139.392024 94.70066800000001,139.07999099999998 94.476214,138.806492 94.202715,138.58203799999998 93.890682,138.41525299999998 93.552107,138.312547 93.249127,138.282706 71.750873,138.282706 71.447893,138.312547 71.109318,138.41525299999998 70.797285,138.58203799999998 70.523786,138.806492 70.299332,139.07999099999998 70.132547,139.392024 70.029841,139.73059899999998 70.0,140.033579 70.0,150.53183299999998" stroke="#1f6fb2" stroke-width="0.1" /><text fill="#0a3d62" font-family="sans-serif" font-size="1.6" text-anchor="middle" x="82.5" y="145.282706">05</text><polygon fill="#cfe3f7" fill-opacity="0.5" points="4.0,211.53183299999998 4.029841,211.834813 4.132547,212.173388 4.299332,212.485421 4.523786,212.75892 4.7972850000000005,212.983374 5.109318,213.150159 5.4478930000000005,213.25286499999999 5.750873,213.282706 27.249127,213.282706 27.552107,213.25286499999999 27.890682,213.150159 28.202715,212.983374 28.476214,212.75892 28.700668,212.485421 28.867453,212.173388 28.970159,211.834813 29.0,211.53183299999998 29.0,201.033579 28.970159,200.73059899999998 28.867453,200.392024 28.700668,200.07999099999998 28.476214,199.806492 28.202715,199.58203799999998 27.890682,199.41525299999998 27.552107,199.312547 27.249127,199.282706 5.750873,199.282706 5.4478930000000005,199.312547 5.109318,199.41525299999998 4.7972850000000005,199.58203799999998 4.523786,199.806492 4.299332,200.07999099999998 4.132547,200.392024 4.029841,200.73059899999998 4.0,201.033579 4.0,211.53183299999998" stroke="#1f6fb2" stroke-width="0.1" /><text fill="#0a3d62" font-family="sans-serif" font-size="1.6" text-anchor="middle" x="16.5" y="206.282706">05</text><polygon fill="#cfe3f7" fill-opacity="0.5" points="67.723369,210.369207 67.841737,209.937658 68.00606400000001,209.488452 68.213682,209.02354699999998 68.460908,208.545153 68.743336,208.055354 69.05609100000001,207.555941 69.394027,207.048372 69.751853,206.533784 70.124213,206.013025 71.26833400000001,204.434617 57.916982000000004,199.282706 57.271888000000004,199.70287399999998 57.058417000000006,199.840614 56.847458,199.97418299999998 56.638513,200.102738 56.431107,200.225486 56.224755,200.341703 56.018245,200.45111799999998 55.809552000000004,200.554258 55.597726,200.651599 55.38297,200.743058 55.165581,200.828509 54.945859,200.90783299999998 54.724105,200.98091399999998 54.50062,201.047641 54.275709000000006,201.10791 54.049674,201.161619 53.822708000000006,201.208696 53.594185,201.24926399999998 53.363055,201.283811 53.128971,201.31282 52.891941,201.33672099999998 52.651999,201.355956 52.409196,201.370981 52.163596,201.38226699999998 51.915273,201.390299 51.664307,201.395579 51.410779000000005,201.39862699999998 51.154771,201.39997599999998 50.896365,201.400176 50.634167000000005,201.39979 50.634167000000005,211.399791 67.546389,211.399791 67.723369,210.369207 33.544965000000005,210.369207 33.426597,209.937658 33.26227,209.488452 33.054652000000004,209.02354699999998 32.80742600000001,208.545153 32.524998,208.055354 32.212243,207.555941 31.874307,207.048372 31.516481000000002,206.533784 31.144121000000002,206.013025 30.0,204.434617 43.351352000000006,199.282706 43.996446000000006,199.70287399999998 44.209917000000004,199.840614 44.420876,199.97418299999998 44.629821,200.102738 44.837227,200.225486 45.043579,200.341703 45.250089,200.45111799999998 45.458782,200.554258 45.670608,200.651599 45.885364,200.743058 46.102753,200.828509 46.322475,200.90783299999998 46.544229,200.98091399999998 46.767714,201.047641 46.992625000000004,201.10791 47.21866,201.161619 47.445626000000004,201.208696 47.674149,201.24926399999998 47.905279,201.283811 48.139363,201.31282 48.376393,201.33672099999998 48.61633500000001,201.355956 48.859138,201.370981 49.104738,201.38226699999998 49.353061,201.390299 49.604027,201.395579 49.857555000000005,201.39862699999998 50.113563,201.39997599999998 50.371969,201.400176 50.634167000000005,201.39979 50.634167000000005,211.399791 33.721945000000005,211.399791 33.544965000000005,210.369207" stroke="#1f6fb2" stroke-width="0.1" /><text fill="#0a3d62" font-family="sans-serif" font-size="1.6" text-anchor="middle" x="50.634167000000005" y="205.34124849999998">03</text><polygon fill="#cfe3f7" fill-opacity="0.5" points="27.387452,221.132086 27.895914,221.221265 28.404425,221.305357 28.912981,221.384359 29.421579,221.458271 29.930218,221.52709 30.438895,221.590817 30.947606,221.649449 31.45635,221.70298699999998 31.965123,221.75142799999998 32.473923,221.794773 32.982747,221.83301999999998 33.491591,221.866168 34.000454,221.894218 34.509331,221.917169 35.018221,221.93501999999998 35.527119,221.947771 36.036024,221.955421 36.544931,221.95797199999998 37.053838999999996,221.955421 37.562744,221.947771 38.071642,221.93501999999998 38.580532,221.917169 39.089409,221.894218 39.598272,221.866168 40.107116,221.83301999999998 40.61594,221.794773 41.124739,221.75142799999998 41.633513,221.70298699999998 42.142256,221.649449 42.650968,221.590817 43.159645,221.52709 43.668284,221.458271 44.176882,221.384359 44.685438000000005,221.305357 45.193949,221.221265 45.702411,221.132086 46.025042,221.07226599999998 48.07921,224.495878 49.134428,224.096895 47.322578,214.282706 45.836702,214.57309899999998 45.347342999999995,214.66383199999999 44.858034,214.749653 44.368773000000004,214.830561 43.879557,214.906559 43.390384,214.977647 42.901251,215.043828 42.412155999999996,215.105101 41.923096,215.16146899999998 41.434067999999996,215.212931 40.945069000000004,215.25949 40.456097,215.301145 39.967149,215.337898 39.478222,215.36974999999998 38.989312999999996,215.39669999999998 38.500417999999996,215.418749 38.011536,215.43589799999998 37.522663,215.44814699999998 37.033796,215.45549699999998 36.544931,215.457946 36.056067,215.45549699999998 35.5672,215.44814699999998 35.078327,215.43589799999998 34.589445,215.418749 34.10055,215.39669999999998 33.611641,215.36974999999998 33.122714,215.337898 32.633766,215.301145 32.144794000000005,215.25949 31.655794999999998,215.212931 31.166767,215.16146899999998 30.677706999999998,215.105101 30.188612,215.043828 29.699479,214.977647 29.210306,214.906559 28.72109,214.830561 28.231829,214.749653 27.74252,214.66383199999999 27.253161,214.57309899999998 26.567214,214.43903999999998 26.567214,220.976878 26.879039,221.03781899999998 27.387452,221.132086 25.746976,221.132086 25.238514,221.221265 24.730003,221.305357 24.221447,221.384359 23.712849,221.458271 23.20421,221.52709 22.695533,221.590817 22.186822,221.649449 21.678078,221.70298699999998 21.169305,221.75142799999998 20.660505,221.794773 20.151681,221.83301999999998 19.642837,221.866168 19.133974000000002,221.894218 18.625097,221.917169 18.116207,221.93501999999998 17.607309,221.947771 17.098404000000002,221.955421 16.589497,221.95797199999998 16.080589,221.955421 15.571684,221.947771 15.062786,221.93501999999998 14.553896,221.917169 14.045019,221.894218 13.536156,221.866168 13.027312,221.83301999999998 12.518488,221.794773 12.009689,221.75142799999998 11.500914999999999,221.70298699999998 10.992172,221.649449 10.483460000000001,221.590817 9.974782999999999,221.52709 9.466144,221.458271 8.957546,221.384359 8.448989999999998,221.305357 7.940479,221.221265 7.432016999999998,221.132086 7.109386000000001,221.07226599999998 5.055218,224.495878 4.0,224.096895 5.81185,214.282706 7.297726000000001,214.57309899999998 7.787085000000001,214.66383199999999 8.276394,214.749653 8.765654999999999,214.830561 9.254871000000001,214.906559 9.744043999999999,214.977647 10.233177000000001,215.043828 10.722272,215.105101 11.211332,215.16146899999998 11.70036,215.212931 12.189359,215.25949 12.678331,215.301145 13.167279,215.337898 13.656206,215.36974999999998 14.145115,215.39669999999998 14.63401,215.418749 15.122892,215.43589799999998 15.611765,215.44814699999998 16.100631999999997,215.45549699999998 16.589497,215.457946 17.078361,215.45549699999998 17.567228,215.44814699999998 18.056100999999998,215.43589799999998 18.544983000000002,215.418749 19.033878,215.39669999999998 19.522787,215.36974999999998 20.011713999999998,215.337898 20.500662,215.301145 20.989634,215.25949 21.478633000000002,215.212931 21.967661,215.16146899999998 22.456721,215.105101 22.945816,215.043828 23.434949,214.977647 23.924122,214.906559 24.413338,214.830561 24.902599,214.749653 25.391908,214.66383199999999 25.881267,214.57309899999998 26.567214,214.43903999999998 26.567214,220.976878 26.255389,221.03781899999998 25.746976,221.132086" stroke="#1f6fb2" stroke-width="0.1" /><text fill="#0a3d62" font-family="sans-serif" font-size="1.6" text-anchor="middle" x="26.567214" y="219.38929199999998">07</text><polygon fill="#cfe3f7" fill-opacity="0.5" points="73.740804,219.58038499999998 74.28939700000001,219.65131699999998 74.83801,219.718198 75.386641,219.781028 75.93529000000001,219.83980599999998 76.48395500000001,219.894532 77.032636,219.945205 77.581331,219.991826 78.130039,220.034394 78.678759,220.07290899999998 79.22748899999999,220.107371 79.77623,220.137778 80.324978,220.164132 80.873734,220.186431 81.422496,220.20467599999998 81.971263,220.218867 82.52003400000001,220.229004 83.068806,220.235086 83.61758,220.237113 84.16635500000001,220.235086 84.715127,220.229004 85.263898,220.218867 85.81266500000001,220.20467599999998 86.36142699999999,220.186431 86.910183,220.164132 87.458931,220.137778 88.007672,220.107371 88.55640199999999,220.07290899999998 89.105122,220.034394 89.65383,219.991826 90.20252500000001,219.945205 90.751206,219.894532 91.299871,219.83980599999998 91.84852000000001,219.781028 92.39715100000001,219.718198 92.945764,219.65131699999998 93.49435700000001,219.58038499999998 94.042929,219.505403 95.44529800000001,219.30335699999998 95.44529800000001,214.282706 93.764896,214.52480899999998 93.230696,214.597827 92.696517,214.66689499999998 92.162358,214.732014 91.628217,214.793184 91.094094,214.850406 90.559988,214.90367999999998 90.025897,214.95300699999999 89.49182,214.99838599999998 88.957756,215.039818 88.423704,215.077303 87.889663,215.110841 87.355632,215.140434 86.821609,215.16608 86.287593,215.187781 85.75358299999999,215.205536 85.219578,215.219345 84.685577,215.229208 84.151578,215.23512599999998 83.61758,215.237099 83.083583,215.23512599999998 82.54958400000001,215.229208 82.01558299999999,215.219345 81.481578,215.205536 80.947568,215.187781 80.413552,215.16608 79.879529,215.140434 79.34549799999999,215.110841 78.811457,215.077303 78.277405,215.039818 77.743341,214.99838599999998 77.209264,214.95300699999999 76.675173,214.90367999999998 76.14106699999999,214.850406 75.606944,214.793184 75.072803,214.732014 74.538644,214.66689499999998 74.004465,214.597827 73.470265,214.52480899999998 72.789863,214.42678099999998 72.789863,219.447431 73.192232,219.505403 73.740804,219.58038499999998 71.838922,219.58038499999998 71.290329,219.65131699999998 70.741716,219.718198 70.193085,219.781028 69.644436,219.83980599999998 69.095771,219.894532 68.54709,219.945205 67.998395,219.991826 67.449687,220.034394 66.90096700000001,220.07290899999998 66.352237,220.107371 65.803496,220.137778 65.254748,220.164132 64.705992,220.186431 64.15723,220.20467599999998 63.608463,220.218867 63.059692,220.229004 62.51092,220.235086 61.962146000000004,220.237113 61.413371,220.235086 60.864599,220.229004 60.315827999999996,220.218867 59.767061,220.20467599999998 59.218299,220.186431 58.669543000000004,220.164132 58.120795,220.137778 57.572054,220.107371 57.023324,220.07290899999998 56.474604,220.034394 55.925896,219.991826 55.377201,219.945205 54.82852,219.894532 54.279855,219.83980599999998 53.731206,219.781028 53.182575,219.718198 52.633962,219.65131699999998 52.085369,219.58038499999998 51.536797,219.505403 50.134428,219.30335699999998 50.134428,214.282706 51.81483,214.52480899999998 52.34903,214.597827 52.883209,214.66689499999998 53.417367999999996,214.732014 53.951509,214.793184 54.485631999999995,214.850406 55.019738000000004,214.90367999999998 55.553829,214.95300699999999 56.087906000000004,214.99838599999998 56.621970000000005,215.039818 57.156022,215.077303 57.690063,215.110841 58.224094,215.140434 58.758117,215.16608 59.292133,215.187781 59.826143,215.205536 60.360148,215.219345 60.894149,215.229208 61.428148,215.23512599999998 61.962146000000004,215.237099 62.496143000000004,215.23512599999998 63.030142,215.229208 63.564143,215.219345 64.098148,215.205536 64.632158,215.187781 65.166174,215.16608 65.700197,215.140434 66.234228,215.110841 66.768269,215.077303 67.302321,215.039818 67.836385,214.99838599999998 68.370462,214.95300699999999 68.90455299999999,214.90367999999998 69.438659,214.850406 69.972782,214.793184 70.506923,214.732014 71.041082,214.66689499999998 71.575261,214.597827 72.109461,214.52480899999998 72.789863,214.42678099999998 72.789863,219.447431 72.387494,219.505403 71.838922,219.58038499999998" stroke="#1f6fb2" stroke-width="0.1" /><text fill="#0a3d62" font-family="sans-serif" font-size="1.6" text-anchor="middle" x="72.789863" y="217.2599095">08</text><polygon fill="#cfe3f7" fill-opacity="0.5" points="96.44529800000001,217.93183299999998 96.467453,218.15677599999998 96.547396,218.420314 96.67721700000001,218.66319199999998 96.851927,218.87607699999998 97.064812,219.05078699999999 97.30769000000001,219.18060799999998 97.571228,219.260551 97.79617100000002,219.282706 109.094425,219.282706 109.31936800000001,219.260551 109.58290600000001,219.18060799999998 109.82578400000001,219.05078699999999 110.03866900000001,218.87607699999998 110.213379,218.66319199999998 110.34320000000001,218.420314 110.42314300000001,218.15677599999998 110.44529800000001,217.93183299999998 110.44529800000001,215.633579 110.42314300000001,215.408636 110.34320000000001,215.145098 110.213379,214.90222 110.03866900000001,214.689335 109.82578400000001,214.514625 109.58290600000001,214.384804 109.31936800000001,214.304861 109.094425,214.282706 97.79617100000002,214.282706 97.571228,214.304861 97.30769000000001,214.384804 97.064812,214.514625 96.851927,214.689335 96.67721700000001,214.90222 96.547396,215.145098 96.467453,215.408636 96.44529800000001,215.633579 96.44529800000001,217.93183299999998" stroke="#1f6fb2" stroke-width="0.1" /><text fill="#0a3d62" font-family="sans-serif" font-size="1.6" text-anchor="middle" x="103.44529800000001" y="216.782706">06</text><polygon fill="#cfe3f7" fill-opacity="0.5" points="4.0,229.145005 4.022155,229.369948 4.102098,229.633486 4.2319189999999995,229.876364 4.406629,230.089249 4.619514,230.263959 4.862392,230.39378 5.12593,230.473723 5.350873,230.495878 16.649127,230.495878 16.87407,230.473723 17.137608,230.39378 17.380485999999998,230.263959 17.593370999999998,230.089249 17.768081000000002,229.876364 17.897902000000002,229.633486 17.977845000000002,229.369948 18.0,229.145005 18.0,226.846751 17.977845000000002,226.62180800000002 17.897902000000002,226.35827 17.768081000000002,226.115392 17.593370999999998,225.902507 17.380485999999998,225.727797 17.137608,225.59797600000002 16.87407,225.518033 16.649127,225.495878 5.350873,225.495878 5.12593,225.518033 4.862392,225.59797600000002 4.619514,225.727797 4.406629,225.902507 4.2319189999999995,226.115392 4.102098,226.35827 4.022155,226.62180800000002 4.0,226.846751 4.0,229.145005" stroke="#1f6fb2" stroke-width="0.1" /><text fill="#0a3d62" font-family="sans-serif" font-size="1.6" text-anchor="middle" x="11.0" y="227.995878">06</text></svg>