  0
SECTION
  2
HEADER
  9
$ACADVER
  1
AC1027
  9
$ACADMAINTVER
 70
105
  9
$DWGCODEPAGE
  3
ANSI_1252
  9
$LASTSAVEDBY
  1
ezdxf
  9
$REQUIREDVERSIONS
160
0
  9
$INSBASE
 10
0.0
 20
0.0
 30
0.0
  9
$EXTMIN
 10
1e+20
 20
1e+20
 30
1e+20
  9
$EXTMAX
 10
-1e+20
 20
-1e+20
 30
-1e+20
  9
$LIMMIN
 10
0.0
 20
0.0
  9
$LIMMAX
 10
420.0
 20
297.0
  9
$ORTHOMODE
 70
0
  9
$REGENMODE
 70
1
  9
$FILLMODE
 70
1
  9
$QTEXTMODE
 70
0
  9
$MIRRTEXT
 70
1
  9
$LTSCALE
 40
1.0
  9
$ATTMODE
 70
1
  9
$TEXTSIZE
 40
2.5
  9
$TRACEWID
 40
1.0
  9
$TEXTSTYLE
  7
OpenSans
  9
$CLAYER
  8
0
  9
$CELTYPE
  6
ByLayer
  9
$CECOLOR
 62
256
  9
$CELTSCALE
 40
1.0
  9
$DISPSILH
 70
0
  9
$DIMSCALE
 40
1.0
  9
$DIMASZ
 40
0.175
  9
$DIMEXO
 40
0.125
  9
$DIMDLI
 40
3.75
  9
$DIMRND
 40
0.0
  9
$DIMDLE
 40
0.0
  9
$DIMEXE
 40
0.375
  9
$DIMTP
 40
0.0
  9
$DIMTM
 40
0.0
  9
$DIMTXT
 40
0.25
  9
$DIMCEN
 40
2.5
  9
$DIMTSZ
 40
0.0
  9
$DIMTOL
 70
0
  9
$DIMLIM
 70
0
  9
$DIMTIH
 70
0
  9
$DIMTOH
 70
0
  9
$DIMSE1
 70
0
  9
$DIMSE2
 70
0
  9
$DIMTAD
 70
1
  9
$DIMZIN
 70
12
  9
$DIMBLK
  1
ARCHTICK
  9
$DIMASO
 70
1
  9
$DIMSHO
 70
1
  9
$DIMPOST
  1

  9
$DIMAPOST
  1

  9
$DIMALT
 70
0
  9
$DIMALTD
 70
3
  9
$DIMALTF
 40
0.03937007874
  9
$DIMLFAC
 40
100.0
  9
$DIMTOFL
 70
1
  9
$DIMTVP
 40
0.0
  9
$DIMTIX
 70
0
  9
$DIMSOXD
 70
0
  9
$DIMSAH
 70
0
  9
$DIMBLK1
  1

  9
$DIMBLK2
  1

  9
$DIMSTYLE
  2
EZDXF
  9
$DIMCLRD
 70
0
  9
$DIMCLRE
 70
0
  9
$DIMCLRT
 70
0
  9
$DIMTFAC
 40
0.5
  9
$DIMGAP
 40
0.1
  9
$DIMJUST
 70
0
  9
$DIMSD1
 70
0
  9
$DIMSD2
 70
0
  9
$DIMTOLJ
 70
0
  9
$DIMTZIN
 70
8
  9
$DIMALTZ
 70
0
  9
$DIMALTTZ
 70
0
  9
$DIMUPT
 70
1
  9
$DIMDEC
 70
2
  9
$DIMTDEC
 70
2
  9
$DIMALTU
 70
2
  9
$DIMALTTD
 70
3
  9
$DIMTXSTY
  7
OpenSansCondensed-Light
  9
$DIMAUNIT
 70
0
  9
$DIMADEC
 70
2
  9
$DIMALTRND
 40
0.0
  9
$DIMAZIN
 70
3
  9
$DIMDSEP
 70
46
  9
$DIMATFIT
 70
3
  9
$DIMFRAC
 70
0
  9
$DIMLDRBLK
  1

  9
$DIMLUNIT
 70
2
  9
$DIMLWD
 70
-2
  9
$DIMLWE
 70
-2
  9
$DIMTMOVE
 70
2
  9
$DIMFXL
 40
1.0
  9
$DIMFXLON
 70
0
  9
$DIMJOGANG
 40
0.785398163397
  9
$DIMTFILL
 70
0
  9
$DIMTFILLCLR
 70
0
  9
$DIMARCSYM
 70
0
  9
$DIMLTYPE
  6

  9
$DIMLTEX1
  6

  9
$DIMLTEX2
  6

  9
$DIMTXTDIRECTION
 70
0
  9
$LUNITS
 70
2
  9
$LUPREC
 70
4
  9
$SKETCHINC
 40
1.0
  9
$FILLETRAD
 40
10.0
  9
$AUNITS
 70
0
  9
$AUPREC
 70
2
  9
$MENU
  1
.
  9
$ELEVATION
 40
0.0
  9
$PELEVATION
 40
0.0
  9
$THICKNESS
 40
0.0
  9
$LIMCHECK
 70
0
  9
$CHAMFERA
 40
0.0
  9
$CHAMFERB
 40
0.0
  9
$CHAMFERC
 40
0.0
  9
$CHAMFERD
 40
0.0
  9
$SKPOLY
 70
0
  9
$TDCREATE
 40
2461235.8813310186
  9
$TDUCREATE
 40
2458532.153996898
  9
$TDUPDATE
 40
2461235.8813310186
  9
$TDUUPDATE
 40
2458532.1544311
  9
$TDINDWG
 40
0.0
  9
$TDUSRTIMER
 40
0.0
  9
$USRTIMER
 70
1
  9
$ANGBASE
 50
0.0
  9
$ANGDIR
 70
0
  9
$PDMODE
 70
0
  9
$PDSIZE
 40
0.0
  9
$PLINEWID
 40
0.0
  9
$SPLFRAME
 70
0
  9
$SPLINETYPE
 70
6
  9
$SPLINESEGS
 70
8
  9
$HANDSEED
  5
137
  9
$SURFTAB1
 70
6
  9
$SURFTAB2
 70
6
  9
$SURFTYPE
 70
6
  9
$SURFU
 70
6
  9
$SURFV
 70
6
  9
$UCSBASE
  2

  9
$UCSNAME
  2

  9
$UCSORG
 10
0.0
 20
0.0
 30
0.0
  9
$UCSXDIR
 10
1.0
 20
0.0
 30
0.0
  9
$UCSYDIR
 10
0.0
 20
1.0
 30
0.0
  9
$UCSORTHOREF
  2

  9
$UCSORTHOVIEW
 70
0
  9
$UCSORGTOP
 10
0.0
 20
0.0
 30
0.0
  9
$UCSORGBOTTOM
 10
0.0
 20
0.0
 30
0.0
  9
$UCSORGLEFT
 10
0.0
 20
0.0
 30
0.0
  9
$UCSORGRIGHT
 10
0.0
 20
0.0
 30
0.0
  9
$UCSORGFRONT
 10
0.0
 20
0.0
 30
0.0
  9
$UCSORGBACK
 10
0.0
 20
0.0
 30
0.0
  9
$PUCSBASE
  2

  9
$PUCSNAME
  2

  9
$PUCSORG
 10
0.0
 20
0.0
 30
0.0
  9
$PUCSXDIR
 10
1.0
 20
0.0
 30
0.0
  9
$PUCSYDIR
 10
0.0
 20
1.0
 30
0.0
  9
$PUCSORTHOREF
  2

  9
$PUCSORTHOVIEW
 70
0
  9
$PUCSORGTOP
 10
0.0
 20
0.0
 30
0.0
  9
$PUCSORGBOTTOM
 10
0.0
 20
0.0
 30
0.0
  9
$PUCSORGLEFT
 10
0.0
 20
0.0
 30
0.0
  9
$PUCSORGRIGHT
 10
0.0
 20
0.0
 30
0.0
  9
$PUCSORGFRONT
 10
0.0
 20
0.0
 30
0.0
  9
$PUCSORGBACK
 10
0.0
 20
0.0
 30
0.0
  9
$USERI1
 70
0
  9
$USERI2
 70
0
  9
$USERI3
 70
0
  9
$USERI4
 70
0
  9
$USERI5
 70
0
  9
$USERR1
 40
0.0
  9
$USERR2
 40
0.0
  9
$USERR3
 40
0.0
  9
$USERR4
 40
0.0
  9
$USERR5
 40
0.0
  9
$WORLDVIEW
 70
1
  9
$SHADEDGE
 70
3
  9
$SHADEDIF
 70
70
  9
$TILEMODE
 70
1
  9
$MAXACTVP
 70
64
  9
$PINSBASE
 10
0.0
 20
0.0
 30
0.0
  9
$PLIMCHECK
 70
0
  9
$PEXTMIN
 10
1e+20
 20
1e+20
 30
1e+20
  9
$PEXTMAX
 10
-1e+20
 20
-1e+20
 30
-1e+20
  9
$PLIMMIN
 10
0.0
 20
0.0
  9
$PLIMMAX
 10
420.0
 20
297.0
  9
$UNITMODE
 70
0
  9
$VISRETAIN
 70
1
  9
$PLINEGEN
 70
0
  9
$PSLTSCALE
 70
1
  9
$TREEDEPTH
 70
3020
  9
$CMLSTYLE
  2
Standard
  9
$CMLJUST
 70
0
  9
$CMLSCALE
 40
20.0
  9
$PROXYGRAPHICS
 70
1
  9
$MEASUREMENT
 70
1
  9
$CELWEIGHT
370
-1
  9
$ENDCAPS
280
0
  9
$JOINSTYLE
280
0
  9
$LWDISPLAY
290
0
  9
$INSUNITS
 70
5
  9
$HYPERLINKBASE
  1

  9
$STYLESHEET
  1

  9
$XEDIT
290
1
  9
$CEPSNTYPE
380
0
  9
$PSTYLEMODE
290
1
  9
$FINGERPRINTGUID
  2
{2A4E7D21-05B3-405C-AA17-B41A5727B3CD}
  9
$VERSIONGUID
  2
{BA4348E1-2FE1-4CED-AB93-CC77C29E7207}
  9
$EXTNAMES
290
1
  9
$PSVPSCALE
 40
0.0
  9
$OLESTARTUP
290
0
  9
$SORTENTS
280
127
  9
$INDEXCTL
280
0
  9
$HIDETEXT
280
1
  9
$XCLIPFRAME
280
1
  9
$HALOGAP
280
0
  9
$OBSCOLOR
 70
257
  9
$OBSLTYPE
280
0
  9
$INTERSECTIONDISPLAY
280
0
  9
$INTERSECTIONCOLOR
 70
257
  9
$DIMASSOC
280
2
  9
$PROJECTNAME
  1

  9
$CAMERADISPLAY
290
0
  9
$LENSLENGTH
 40
50.0
  9
$CAMERAHEIGHT
 40
0.0
  9
$STEPSPERSEC
 40
24.0
  9
$STEPSIZE
 40
100.0
  9
$3DDWFPREC
 40
2.0
  9
$PSOLWIDTH
 40
0.005
  9
$PSOLHEIGHT
 40
0.08
  9
$LOFTANG1
 40
1.570796326795
  9
$LOFTANG2
 40
1.570796326795
  9
$LOFTMAG1
 40
0.0
  9
$LOFTMAG2
 40
0.0
  9
$LOFTPARAM
 70
7
  9
$LOFTNORMALS
280
1
  9
$LATITUDE
 40
37.795
  9
$LONGITUDE
 40
-122.394
  9
$NORTHDIRECTION
 40
0.0
  9
$TIMEZONE
 70
-8000
  9
$LIGHTGLYPHDISPLAY
280
1
  9
$TILEMODELIGHTSYNCH
280
1
  9
$CMATERIAL
347
20
  9
$SOLIDHIST
280
0
  9
$SHOWHIST
280
1
  9
$DWFFRAME
280
2
  9
$DGNFRAME
280
2
  9
$REALWORLDSCALE
290
1
  9
$INTERFERECOLOR
 62
256
  9
$CSHADOW
280
0
  9
$SHADOWPLANELOCATION
 40
0.0
  0
ENDSEC
  0
SECTION
  2
CLASSES
  0
CLASS
  1
ACDBDICTIONARYWDFLT
  2
AcDbDictionaryWithDefault
  3
ObjectDBX Classes
 90
0
 91
0
280
0
281
0
  0
CLASS
  1
SUN
  2
AcDbSun
  3
SCENEOE
 90
1153
 91
0
280
0
281
0
  0
CLASS
  1
VISUALSTYLE
  2
AcDbVisualStyle
  3
ObjectDBX Classes
 90
4095
 91
0
280
0
281
0
  0
CLASS
  1
MATERIAL
  2
AcDbMaterial
  3
ObjectDBX Classes
 90
1153
 91
0
280
0
281
0
  0
CLASS
  1
SCALE
  2
AcDbScale
  3
ObjectDBX Classes
 90
1153
 91
0
280
0
281
0
  0
CLASS
  1
TABLESTYLE
  2
AcDbTableStyle
  3
ObjectDBX Classes
 90
4095
 91
0
280
0
281
0
  0
CLASS
  1
MLEADERSTYLE
  2
AcDbMLeaderStyle
  3
ACDB_MLEADERSTYLE_CLASS
 90
4095
 91
0
280
0
281
0
  0
CLASS
  1
DICTIONARYVAR
  2
AcDbDictionaryVar
  3
ObjectDBX Classes
 90
0
 91
0
280
0
281
0
  0
CLASS
  1
CELLSTYLEMAP
  2
AcDbCellStyleMap
  3
ObjectDBX Classes
 90
1152
 91
0
280
0
281
0
  0
CLASS
  1
MENTALRAYRENDERSETTINGS
  2
AcDbMentalRayRenderSettings
  3
SCENEOE
 90
1024
 91
0
280
0
281
0
  0
CLASS
  1
ACDBDETAILVIEWSTYLE
  2
AcDbDetailViewStyle
  3
ObjectDBX Classes
 90
1025
 91
0
280
0
281
0
  0
CLASS
  1
ACDBSECTIONVIEWSTYLE
  2
AcDbSectionViewStyle
  3
ObjectDBX Classes
 90
1025
 91
0
280
0
281
0
  0
CLASS
  1
RASTERVARIABLES
  2
AcDbRasterVariables
  3
ISM
 90
0
 91
0
280
0
281
0
  0
CLASS
  1
LAYOUT
  2
AcDbLayout
  3
ObjectDBX Classes
 90
0
 91
0
280
0
281
0
  0
CLASS
  1
ACDBPLACEHOLDER
  2
AcDbPlaceHolder
  3
ObjectDBX Classes
 90
0
 91
0
280
0
281
0
  0
ENDSEC
  0
SECTION
  2
TABLES
  0
TABLE
  2
VPORT
  5
8
330
0
100
AcDbSymbolTable
 70
1
  0
VPORT
  5
23
330
8
100
AcDbSymbolTableRecord
100
AcDbViewportTableRecord
  2
*Active
 70
0
 10
0.0
 20
0.0
 11
1.0
 21
1.0
 12
0.0
 22
0.0
 13
0.0
 23
0.0
 14
0.5
 24
0.5
 15
0.5
 25
0.5
 16
0.0
 26
0.0
 36
1.0
 17
0.0
 27
0.0
 37
0.0
 40
1000.0
 41
1.34
 42
50.0
 43
0.0
 44
0.0
 50
0.0
 51
0.0
 71
0
 72
1000
 73
1
 74
3
 75
0
 76
0
 77
0
 78
0
281
0
 65
0
146
0.0
  0
ENDTAB
  0
TABLE
  2
LTYPE
  5
2
330
0
100
AcDbSymbolTable
 70
21
  0
LTYPE
  5
24
330
2
100
AcDbSymbolTableRecord
100
AcDbLinetypeTableRecord
  2
ByBlock
 70
0
  3

 72
65
 73
0
 40
0.0
  0
LTYPE
  5
25
330
2
100
AcDbSymbolTableRecord
100
AcDbLinetypeTableRecord
  2
ByLayer
 70
0
  3

 72
65
 73
0
 40
0.0
  0
LTYPE
  5
26
330
2
100
AcDbSymbolTableRecord
100
AcDbLinetypeTableRecord
  2
Continuous
 70
0
  3

 72
65
 73
0
 40
0.0
  0
LTYPE
  5
2F
330
2
100
AcDbSymbolTableRecord
100
AcDbLinetypeTableRecord
  2
CENTER
 70
0
  3
Center ____ _ ____ _ ____ _ ____ _ ____ _ ____
 72
65
 73
4
 40
5.08
 49
3.175
 74
0
 49
-0.635
 74
0
 49
0.635
 74
0
 49
-0.635
 74
0
  0
LTYPE
  5
30
330
2
100
AcDbSymbolTableRecord
100
AcDbLinetypeTableRecord
  2
CENTERX2
 70
0
  3
Center (2x) ________  __  ________  __  ________
 72
65
 73
4
 40
8.89
 49
6.35
 74
0
 49
-0.635
 74
0
 49
1.27
 74
0
 49
-0.635
 74
0
  0
LTYPE
  5
31
330
2
100
AcDbSymbolTableRecord
100
AcDbLinetypeTableRecord
  2
CENTER2
 70
0
  3
Center (.5x) ____ _ ____ _ ____ _ ____ _ ____
 72
65
 73
4
 40
2.54
 49
1.587
 74
0
 49
-0.318
 74
0
 49
0.318
 74
0
 49
-0.318
 74
0
  0
LTYPE
  5
32
330
2
100
AcDbSymbolTableRecord
100
AcDbLinetypeTableRecord
  2
DASHED
 70
0
  3
Dashed __ __ __ __ __ __ __ __ __ __ __ __ __ _
 72
65
 73
2
 40
1.524
 49
1.27
 74
0
 49
-0.254
 74
0
  0
LTYPE
  5
33
330
2
100
AcDbSymbolTableRecord
100
AcDbLinetypeTableRecord
  2
DASHEDX2
 70
0
  3
Dashed (2x) ____  ____  ____  ____  ____  ____
 72
65
 73
2
 40
3.048
 49
2.54
 74
0
 49
-0.508
 74
0
  0
LTYPE
  5
34
330
2
100
AcDbSymbolTableRecord
100
AcDbLinetypeTableRecord
  2
DASHED2
 70
0
  3
Dashed (.5x) _ _ _ _ _ _ _ _ _ _ _ _ _ _
 72
65
 73
2
 40
0.762
 49
0.635
 74
0
 49
-0.127
 74
0
  0
LTYPE
  5
35
330
2
100
AcDbSymbolTableRecord
100
AcDbLinetypeTableRecord
  2
PHANTOM
 70
0
  3
Phantom ______  __  __  ______  __  __  ______
 72
65
 73
6
 40
6.35
 49
3.175
 74
0
 49
-0.635
 74
0
 49
0.635
 74
0
 49
-0.635
 74
0
 49
0.635
 74
0
 49
-0.635
 74
0
  0
LTYPE
  5
36
330
2
100
AcDbSymbolTableRecord
100
AcDbLinetypeTableRecord
  2
PHANTOMX2
 70
0
  3
Phantom (2x)____________    ____    ____    ____________
 72
65
 73
6
 40
10.795
 49
6.35
 74
0
 49
-0.635
 74
0
 49
1.27
 74
0
 49
-0.635
 74
0
 49
1.27
 74
0
 49
-0.635
 74
0
  0
LTYPE
  5
37
330
2
100
AcDbSymbolTableRecord
100
AcDbLinetypeTableRecord
  2
PHANTOM2
 70
0
  3
Phantom (.5x) ___ _ _ ___ _ _ ___ _ _ ___ _ _ ___
 72
65
 73
6
 40
3.175
 49
1.587
 74
0
 49
-0.318
 74
0
 49
0.318
 74
0
 49
-0.318
 74
0
 49
0.318
 74
0
 49
-0.318
 74
0
  0
LTYPE
  5
38
330
2
100
AcDbSymbolTableRecord
100
AcDbLinetypeTableRecord
  2
DASHDOT
 70
0
  3
Dash dot __ . __ . __ . __ . __ . __ . __ . __
 72
65
 73
4
 40
3.556
 49
2.54
 74
0
 49
-0.508
 74
0
 49
0.0
 74
0
 49
-0.508
 74
0
  0
LTYPE
  5
39
330
2
100
AcDbSymbolTableRecord
100
AcDbLinetypeTableRecord
  2
DASHDOTX2
 70
0
  3
Dash dot (2x) ____  .  ____  .  ____  .  ____
 72
65
 73
4
 40
6.096
 49
5.08
 74
0
 49
-0.508
 74
0
 49
0.0
 74
0
 49
-0.508
 74
0
  0
LTYPE
  5
3A
330
2
100
AcDbSymbolTableRecord
100
AcDbLinetypeTableRecord
  2
DASHDOT2
 70
0
  3
Dash dot (.5x) _ . _ . _ . _ . _ . _ . _ . _
 72
65
 73
4
 40
1.778
 49
1.27
 74
0
 49
-0.254
 74
0
 49
0.0
 74
0
 49
-0.254
 74
0
  0
LTYPE
  5
3B
330
2
100
AcDbSymbolTableRecord
100
AcDbLinetypeTableRecord
  2
DOT
 70
0
  3
Dot .  .  .  .  .  .  .  .  .  .  .  .  .  .  .  .
 72
65
 73
2
 40
0.508
 49
0.0
 74
0
 49
-0.508
 74
0
  0
LTYPE
  5
3C
330
2
100
AcDbSymbolTableRecord
100
AcDbLinetypeTableRecord
  2
DOTX2
 70
0
  3
Dot (2x) .    .    .    .    .    .    .    . 
 72
65
 73
2
 40
1.016
 49
0.0
 74
0
 49
-1.016
 74
0
  0
LTYPE
  5
3D
330
2
100
AcDbSymbolTableRecord
100
AcDbLinetypeTableRecord
  2
DOT2
 70
0
  3
Dot (.5) . . . . . . . . . . . . . . . . . . . 
 72
65
 73
2
 40
0.254
 49
0.0
 74
0
 49
-0.254
 74
0
  0
LTYPE
  5
3E
330
2
100
AcDbSymbolTableRecord
100
AcDbLinetypeTableRecord
  2
DIVIDE
 70
0
  3
Divide __ . . __ . . __ . . __ . . __ . . __
 72
65
 73
6
 40
4.064
 49
2.54
 74
0
 49
-0.508
 74
0
 49
0.0
 74
0
 49
-0.508
 74
0
 49
0.0
 74
0
 49
-0.508
 74
0
  0
LTYPE
  5
3F
330
2
100
AcDbSymbolTableRecord
100
AcDbLinetypeTableRecord
  2
DIVIDEX2
 70
0
  3
Divide (2x) ____  . .  ____  . .  ____  . .  ____
 72
65
 73
6
 40
6.604
 49
5.08
 74
0
 49
-0.508
 74
0
 49
0.0
 74
0
 49
-0.508
 74
0
 49
0.0
 74
0
 49
-0.508
 74
0
  0
LTYPE
  5
40
330
2
100
AcDbSymbolTableRecord
100
AcDbLinetypeTableRecord
  2
DIVIDE2
 70
0
  3
Divide(.5x) _ . _ . _ . _ . _ . _ . _ . _
 72
65
 73
6
 40
2.032
 49
1.27
 74
0
 49
-0.254
 74
0
 49
0.0
 74
0
 49
-0.254
 74
0
 49
0.0
 74
0
 49
-0.254
 74
0
  0
ENDTAB
  0
TABLE
  2
LAYER
  5
1
330
0
100
AcDbSymbolTable
 70
13
  0
LAYER
  5
27
330
1
100
AcDbSymbolTableRecord
100
AcDbLayerTableRecord
  2
0
 70
0
 62
7
  6
Continuous
370
-3
390
13
347
21
  0
LAYER
  5
28
330
1
100
AcDbSymbolTableRecord
100
AcDbLayerTableRecord
  2
Defpoints
 70
0
 62
7
  6
Continuous
290
0
370
-3
390
13
347
21
  0
LAYER
  5
8A
330
1
100
AcDbSymbolTableRecord
100
AcDbLayerTableRecord
  2
CONSTRUCCION
 70
0
 62
8
  6
Continuous
370
-3
390
13
347
21
  0
LAYER
  5
8B
330
1
100
AcDbSymbolTableRecord
100
AcDbLayerTableRecord
  2
CORTE
 70
0
 62
1
  6
Continuous
370
-3
390
13
347
21
  0
LAYER
  5
8C
330
1
100
AcDbSymbolTableRecord
100
AcDbLayerTableRecord
  2
COSTURA
 70
0
 62
3
  6
Continuous
370
-3
390
13
347
21
  0
LAYER
  5
8D
330
1
100
AcDbSymbolTableRecord
100
AcDbLayerTableRecord
  2
PIQUETES
 70
0
 62
4
  6
Continuous
370
-3
390
13
347
21
  0
LAYER
  5
8E
330
1
100
AcDbSymbolTableRecord
100
AcDbLayerTableRecord
  2
TEXTOS
 70
0
 62
7
  6
Continuous
370
-3
390
13
347
21
  0
LAYER
  5
8F
330
1
100
AcDbSymbolTableRecord
100
AcDbLayerTableRecord
  2
CENTROS
 70
0
 62
5
  6
Continuous
370
-3
390
13
347
21
  0
LAYER
  5
90
330
1
100
AcDbSymbolTableRecord
100
AcDbLayerTableRecord
  2
HILO
 70
0
 62
2
  6
Continuous
370
-3
390
13
347
21
  0
LAYER
  5
91
330
1
100
AcDbSymbolTableRecord
100
AcDbLayerTableRecord
  2
DOBLEZ
 70
0
 62
6
  6
Continuous
370
-3
390
13
347
21
  0
LAYER
  5
92
330
1
100
AcDbSymbolTableRecord
100
AcDbLayerTableRecord
  2
BOTONES
 70
0
 62
30
  6
Continuous
370
-3
390
13
347
21
  0
LAYER
  5
93
330
1
100
AcDbSymbolTableRecord
100
AcDbLayerTableRecord
  2
OJAL
 70
0
 62
200
  6
Continuous
370
-3
390
13
347
21
  0
LAYER
  5
94
330
1
100
AcDbSymbolTableRecord
100
AcDbLayerTableRecord
  2
REFERENCIAS
 70
0
 62
9
  6
Continuous
370
-3
390
13
347
21
  0
ENDTAB
  0
TABLE
  2
STYLE
  5
5
330
0
100
AcDbSymbolTable
 70
26
  0
STYLE
  5
29
330
5
100
AcDbSymbolTableRecord
100
AcDbTextStyleTableRecord
  2
Standard
 70
0
 40
0.0
 41
1.0
 50
0.0
 71
0
 42
2.5
  3
txt
  4

  0
STYLE
  5
41
330
5
100
AcDbSymbolTableRecord
100
AcDbTextStyleTableRecord
  2
OpenSans-Light
 70
0
 40
0.0
 41
1.0
 50
0.0
 71
0
 42
2.5
  3
OpenSans-Light.ttf
  4

  0
STYLE
  5
42
330
5
100
AcDbSymbolTableRecord
100
AcDbTextStyleTableRecord
  2
OpenSans-Light-Italic
 70
0
 40
0.0
 41
1.0
 50
0.0
 71
0
 42
2.5
  3
OpenSans-LightItalic.ttf
  4

  0
STYLE
  5
43
330
5
100
AcDbSymbolTableRecord
100
AcDbTextStyleTableRecord
  2
OpenSans
 70
0
 40
0.0
 41
1.0
 50
0.0
 71
0
 42
2.5
  3
OpenSans-Regular.ttf
  4

  0
STYLE
  5
44
330
5
100
AcDbSymbolTableRecord
100
AcDbTextStyleTableRecord
  2
OpenSans-Italic
 70
0
 40
0.0
 41
1.0
 50
0.0
 71
0
 42
2.5
  3
OpenSans-Italic.ttf
  4

  0
STYLE
  5
45
330
5
100
AcDbSymbolTableRecord
100
AcDbTextStyleTableRecord
  2
OpenSans-SemiBold
 70
0
 40
0.0
 41
1.0
 50
0.0
 71
0
 42
2.5
  3
OpenSans-SemiBold.ttf
  4

  0
STYLE
  5
46
330
5
100
AcDbSymbolTableRecord
100
AcDbTextStyleTableRecord
  2
OpenSans-SemiBoldItalic
 70
0
 40
0.0
 41
1.0
 50
0.0
 71
0
 42
2.5
  3
OpenSans-SemiBoldItalic.ttf
  4

  0
STYLE
  5
47
330
5
100
AcDbSymbolTableRecord
100
AcDbTextStyleTableRecord
  2
OpenSans-Bold
 70
0
 40
0.0
 41
1.0
 50
0.0
 71
0
 42
2.5
  3
OpenSans-Bold.ttf
  4

  0
STYLE
  5
48
330
5
100
AcDbSymbolTableRecord
100
AcDbTextStyleTableRecord
  2
OpenSans-BoldItalic
 70
0
 40
0.0
 41
1.0
 50
0.0
 71
0
 42
2.5
  3
OpenSans-BoldItalic.ttf
  4

  0
STYLE
  5
49
330
5
100
AcDbSymbolTableRecord
100
AcDbTextStyleTableRecord
  2
OpenSans-ExtraBold
 70
0
 40
0.0
 41
1.0
 50
0.0
 71
0
 42
2.5
  3
OpenSans-ExtraBold.ttf
  4

  0
STYLE
  5
4A
330
5
100
AcDbSymbolTableRecord
100
AcDbTextStyleTableRecord
  2
OpenSans-ExtraBoldItalic
 70
0
 40
0.0
 41
1.0
 50
0.0
 71
0
 42
2.5
  3
OpenSans-ExtraBoldItalic.ttf
  4

  0
STYLE
  5
4B
330
5
100
AcDbSymbolTableRecord
100
AcDbTextStyleTableRecord
  2
OpenSansCondensed-Bold
 70
0
 40
0.0
 41
1.0
 50
0.0
 71
0
 42
2.5
  3
OpenSansCondensed-Bold.ttf
  4

  0
STYLE
  5
4C
330
5
100
AcDbSymbolTableRecord
100
AcDbTextStyleTableRecord
  2
OpenSansCondensed-Light
 70
0
 40
0.0
 41
1.0
 50
0.0
 71
0
 42
2.5
  3
OpenSansCondensed-Light.ttf
  4

  0
STYLE
  5
4D
330
5
100
AcDbSymbolTableRecord
100
AcDbTextStyleTableRecord
  2
OpenSansCondensed-Italic
 70
0
 40
0.0
 41
1.0
 50
0.0
 71
0
 42
2.5
  3
OpenSansCondensed-LightItalic.ttf
  4

  0
STYLE
  5
4E
330
5
100
AcDbSymbolTableRecord
100
AcDbTextStyleTableRecord
  2
LiberationSans
 70
0
 40
0.0
 41
1.0
 50
0.0
 71
0
 42
2.5
  3
LiberationSans-Regular.ttf
  4

  0
STYLE
  5
4F
330
5
100
AcDbSymbolTableRecord
100
AcDbTextStyleTableRecord
  2
LiberationSans-Bold
 70
0
 40
0.0
 41
1.0
 50
0.0
 71
0
 42
2.5
  3
LiberationSans-Bold.ttf
  4

  0
STYLE
  5
50
330
5
100
AcDbSymbolTableRecord
100
AcDbTextStyleTableRecord
  2
LiberationSans-BoldItalic
 70
0
 40
0.0
 41
1.0
 50
0.0
 71
0
 42
2.5
  3
LiberationSans-BoldItalic.ttf
  4

  0
STYLE
  5
51
330
5
100
AcDbSymbolTableRecord
100
AcDbTextStyleTableRecord
  2
LiberationSans-Italic
 70
0
 40
0.0
 41
1.0
 50
0.0
 71
0
 42
2.5
  3
LiberationSans-Italic.ttf
  4

  0
STYLE
  5
52
330
5
100
AcDbSymbolTableRecord
100
AcDbTextStyleTableRecord
  2
LiberationSerif
 70
0
 40
0.0
 41
1.0
 50
0.0
 71
0
 42
2.5
  3
LiberationSerif-Regular.ttf
  4

  0
STYLE
  5
53
330
5
100
AcDbSymbolTableRecord
100
AcDbTextStyleTableRecord
  2
LiberationSerif-Bold
 70
0
 40
0.0
 41
1.0
 50
0.0
 71
0
 42
2.5
  3
LiberationSerif-Bold.ttf
  4

  0
STYLE
  5
54
330
5
100
AcDbSymbolTableRecord
100
AcDbTextStyleTableRecord
  2
LiberationSerif-BoldItalic
 70
0
 40
0.0
 41
1.0
 50
0.0
 71
0
 42
2.5
  3
LiberationSerif-BoldItalic.ttf
  4

  0
STYLE
  5
55
330
5
100
AcDbSymbolTableRecord
100
AcDbTextStyleTableRecord
  2
LiberationSerif-Italic
 70
0
 40
0.0
 41
1.0
 50
0.0
 71
0
 42
2.5
  3
LiberationSerif-Italic.ttf
  4

  0
STYLE
  5
56
330
5
100
AcDbSymbolTableRecord
100
AcDbTextStyleTableRecord
  2
LiberationMono
 70
0
 40
0.0
 41
1.0
 50
0.0
 71
0
 42
2.5
  3
LiberationMono-Regular.ttf
  4

  0
STYLE
  5
57
330
5
100
AcDbSymbolTableRecord
100
AcDbTextStyleTableRecord
  2
LiberationMono-Bold
 70
0
 40
0.0
 41
1.0
 50
0.0
 71
0
 42
2.5
  3
LiberationMono-Bold.ttf
  4

  0
STYLE
  5
58
330
5
100
AcDbSymbolTableRecord
100
AcDbTextStyleTableRecord
  2
LiberationMono-BoldItalic
 70
0
 40
0.0
 41
1.0
 50
0.0
 71
0
 42
2.5
  3
LiberationMono-BoldItalic.ttf
  4

  0
STYLE
  5
59
330
5
100
AcDbSymbolTableRecord
100
AcDbTextStyleTableRecord
  2
LiberationMono-Italic
 70
0
 40
0.0
 41
1.0
 50
0.0
 71
0
 42
2.5
  3
LiberationMono-Italic.ttf
  4

  0
ENDTAB
  0
TABLE
  2
VIEW
  5
7
330
0
100
AcDbSymbolTable
 70
0
  0
ENDTAB
  0
TABLE
  2
UCS
  5
6
330
0
100
AcDbSymbolTable
 70
0
  0
ENDTAB
  0
TABLE
  2
APPID
  5
3
330
0
100
AcDbSymbolTable
 70
3
  0
APPID
  5
2A
330
3
100
AcDbSymbolTableRecord
100
AcDbRegAppTableRecord
  2
ACAD
 70
0
  0
APPID
  5
134
330
3
100
AcDbSymbolTableRecord
100
AcDbRegAppTableRecord
  2
HATCHBACKGROUNDCOLOR
 70
0
  0
APPID
  5
135
330
3
100
AcDbSymbolTableRecord
100
AcDbRegAppTableRecord
  2
EZDXF
 70
0
  0
ENDTAB
  0
TABLE
  2
DIMSTYLE
  5
4
330
0
100
AcDbSymbolTable
 70
12
100
AcDbDimStyleTable
  0
DIMSTYLE
105
2B
330
4
100
AcDbSymbolTableRecord
100
AcDbDimStyleTableRecord
  2
Standard
 70
0
 40
1.0
 41
2.5
 42
0.625
 43
3.75
 44
1.25
 45
0.0
 46
0.0
 47
0.0
 48
0.0
 49
2.5
140
2.5
141
2.5
142
0.0
143
0.03937007874
144
1.0
145
0.0
146
1.0
147
0.625
148
0.0
 69
0
 70
0
 71
0
 72
0
 73
0
 74
0
 75
0
 76
0
 77
1
 78
8
 79
3
170
0
171
3
172
1
173
0
174
0
175
0
176
0
177
0
178
0
179
2
271
2
272
2
273
2
274
3
275
0
276
0
277
2
278
44
279
0
280
0
281
0
282
0
283
0
284
8
285
0
286
0
288
0
289
3
290
0
371
-2
372
-2
  0
DIMSTYLE
105
73
330
4
100
AcDbSymbolTableRecord
100
AcDbDimStyleTableRecord
  2
EZDXF
 70
0
 40
1.0
 41
0.175
 42
0.125
 43
3.75
 44
0.375
 45
0.0
 46
0.0
 47
0.0
 48
0.0
 49
2.5
140
0.25
141
2.5
142
0.0
143
0.03937007874
144
100.0
145
0.0
146
0.5
147
0.1
148
0.0
 69
0
 70
0
 71
0
 72
0
 73
0
 74
0
 75
0
 76
0
 77
1
 78
12
 79
3
170
0
171
3
172
1
173
0
174
0
175
0
176
0
177
0
178
0
179
2
271
2
272
2
273
2
274
3
275
0
276
0
277
2
278
46
279
2
280
0
281
0
282
0
283
0
284
8
285
0
286
0
288
1
289
3
290
0
340
4C
342
74
371
-2
372
-2
  0
DIMSTYLE
105
7C
330
4
100
AcDbSymbolTableRecord
100
AcDbDimStyleTableRecord
  2
EZ_M_100_H25_CM
 70
0
 40
1.0
 41
0.25
 42
0.125
 43
3.75
 44
0.375
 45
0.0
 46
0.0
 47
0.0
 48
0.0
 49
2.5
140
0.25
141
2.5
142
0.125
143
0.03937007874
144
100.0
145
0.0
146
0.5
147
0.1
148
0.0
 69
0
 70
0
 71
0
 72
0
 73
0
 74
0
 75
0
 76
0
 77
1
 78
12
 79
3
170
0
171
3
172
1
173
0
174
0
175
0
176
0
177
0
178
0
179
2
271
2
272
2
273
2
274
3
275
0
276
0
277
2
278
46
279
2
280
0
281
0
282
0
283
0
284
8
285
0
286
0
288
1
289
3
290
0
340
4C
371
-2
372
-2
  0
DIMSTYLE
105
7D
330
4
100
AcDbSymbolTableRecord
100
AcDbDimStyleTableRecord
  2
EZ_M_50_H25_CM
 70
0
 40
1.0
 41
0.125
 42
0.0625
 43
3.75
 44
0.1875
 45
0.0
 46
0.0
 47
0.0
 48
0.0
 49
2.5
140
0.125
141
2.5
142
0.0625
143
0.03937007874
144
100.0
145
0.0
146
0.5
147
0.05
148
0.0
 69
0
 70
0
 71
0
 72
0
 73
0
 74
0
 75
0
 76
0
 77
1
 78
12
 79
3
170
0
171
3
172
1
173
0
174
0
175
0
176
0
177
0
178
0
179
2
271
2
272
2
273
2
274
3
275
0
276
0
277
2
278
46
279
2
280
0
281
0
282
0
283
0
284
8
285
0
286
0
288
1
289
3
290
0
340
4C
371
-2
372
-2
  0
DIMSTYLE
105
7E
330
4
100
AcDbSymbolTableRecord
100
AcDbDimStyleTableRecord
  2
EZ_M_25_H25_CM
 70
0
 40
1.0
 41
0.0625
 42
0.03125
 43
3.75
 44
0.09375
 45
0.0
 46
0.0
 47
0.0
 48
0.0
 49
2.5
140
0.0625
141
2.5
142
0.03125
143
0.03937007874
144
100.0
145
0.0
146
0.5
147
0.025
148
0.0
 69
0
 70
0
 71
0
 72
0
 73
0
 74
0
 75
0
 76
0
 77
1
 78
12
 79
3
170
0
171
3
172
1
173
0
174
0
175
0
176
0
177
0
178
0
179
2
271
2
272
2
273
2
274
3
275
0
276
0
277
2
278
46
279
2
280
0
281
0
282
0
283
0
284
8
285
0
286
0
288
1
289
3
290
0
340
4C
371
-2
372
-2
  0
DIMSTYLE
105
7F
330
4
100
AcDbSymbolTableRecord
100
AcDbDimStyleTableRecord
  2
EZ_M_20_H25_CM
 70
0
 40
1.0
 41
0.05
 42
0.025
 43
3.75
 44
0.07500000000000001
 45
0.0
 46
0.0
 47
0.0
 48
0.0
 49
2.5
140
0.05
141
2.5
142
0.025
143
0.03937007874
144
100.0
145
0.0
146
0.5
147
0.020000000000000004
148
0.0
 69
0
 70
0
 71
0
 72
0
 73
0
 74
0
 75
0
 76
0
 77
1
 78
12
 79
3
170
0
171
3
172
1
173
0
174
0
175
0
176
0
177
0
178
0
179
2
271
2
272
2
273
2
274
3
275
0
276
0
277
2
278
46
279
2
280
0
281
0
282
0
283
0
284
8
285
0
286
0
288
1
289
3
290
0
340
4C
371
-2
372
-2
  0
DIMSTYLE
105
80
330
4
100
AcDbSymbolTableRecord
100
AcDbDimStyleTableRecord
  2
EZ_M_10_H25_CM
 70
0
 40
1.0
 41
0.025
 42
0.0125
 43
3.75
 44
0.037500000000000006
 45
0.0
 46
0.0
 47
0.0
 48
0.0
 49
2.5
140
0.025
141
2.5
142
0.0125
143
0.03937007874
144
100.0
145
0.0
146
0.5
147
0.010000000000000002
148
0.0
 69
0
 70
0
 71
0
 72
0
 73
0
 74
0
 75
0
 76
0
 77
1
 78
12
 79
3
170
0
171
3
172
1
173
0
174
0
175
0
176
0
177
0
178
0
179
2
271
2
272
2
273
2
274
3
275
0
276
0
277
2
278
46
279
2
280
0
281
0
282
0
283
0
284
8
285
0
286
0
288
1
289
3
290
0
340
4C
371
-2
372
-2
  0
DIMSTYLE
105
81
330
4
100
AcDbSymbolTableRecord
100
AcDbDimStyleTableRecord
  2
EZ_M_5_H25_CM
 70
0
 40
1.0
 41
0.0125
 42
0.00625
 43
3.75
 44
0.018750000000000003
 45
0.0
 46
0.0
 47
0.0
 48
0.0
 49
2.5
140
0.0125
141
2.5
142
0.00625
143
0.03937007874
144
100.0
145
0.0
146
0.5
147
0.005000000000000001
148
0.0
 69
0
 70
0
 71
0
 72
0
 73
0
 74
0
 75
0
 76
0
 77
1
 78
12
 79
3
170
0
171
3
172
1
173
0
174
0
175
0
176
0
177
0
178
0
179
2
271
2
272
2
273
2
274
3
275
0
276
0
277
2
278
46
279
2
280
0
281
0
282
0
283
0
284
8
285
0
286
0
288
1
289
3
290
0
340
4C
371
-2
372
-2
  0
DIMSTYLE
105
82
330
4
100
AcDbSymbolTableRecord
100
AcDbDimStyleTableRecord
  2
EZ_M_1_H25_CM
 70
0
 40
1.0
 41
0.0025
 42
0.00125
 43
3.75
 44
0.00375
 45
0.0
 46
0.0
 47
0.0
 48
0.0
 49
2.5
140
0.0025
141
2.5
142
0.00125
143
0.03937007874
144
100.0
145
0.0
146
0.5
147
0.001
148
0.0
 69
0
 70
0
 71
0
 72
0
 73
0
 74
0
 75
0
 76
0
 77
1
 78
12
 79
3
170
0
171
3
172
1
173
0
174
0
175
0
176
0
177
0
178
0
179
2
271
2
272
2
273
2
274
3
275
0
276
0
277
2
278
46
279
2
280
0
281
0
282
0
283
0
284
8
285
0
286
0
288
1
289
3
290
0
340
4C
371
-2
372
-2
  0
DIMSTYLE
105
83
330
4
100
AcDbSymbolTableRecord
100
AcDbDimStyleTableRecord
  2
EZ_RADIUS
 70
0
 40
1.0
 41
0.25
 42
0.125
 43
3.75
 44
0.375
 45
0.0
 46
0.0
 47
0.0
 48
0.0
 49
2.5
140
0.25
141
0.0
142
0.0
143
0.03937007874
144
100.0
145
0.0
146
0.5
147
0.1
148
0.0
 69
0
 70
0
 71
0
 72
0
 73
0
 74
0
 75
0
 76
0
 77
1
 78
12
 79
3
170
0
171
3
172
0
173
0
174
0
175
0
176
0
177
0
178
0
179
2
271
2
272
2
273
2
274
3
275
0
276
0
277
2
278
46
279
1
280
0
281
0
282
0
283
0
284
8
285
0
286
0
288
1
289
3
290
0
340
4C
342
84
371
-2
372
-2
  0
DIMSTYLE
105
88
330
4
100
AcDbSymbolTableRecord
100
AcDbDimStyleTableRecord
  2
EZ_RADIUS_INSIDE
 70
0
 40
1.0
 41
0.25
 42
0.125
 43
3.75
 44
0.375
 45
0.0
 46
0.0
 47
0.0
 48
0.0
 49
2.5
140
0.25
141
0.0
142
0.0
143
0.03937007874
144
100.0
145
0.0
146
0.5
147
0.1
148
0.0
 69
0
 70
0
 71
0
 72
0
 73
0
 74
0
 75
0
 76
0
 77
0
 78
12
 79
3
170
0
171
3
172
0
173
0
174
1
175
0
176
0
177
0
178
0
179
2
271
2
272
2
273
2
274
3
275
0
276
0
277
2
278
46
279
0
280
0
281
0
282
0
283
0
284
8
285
0
286
0
288
1
289
0
290
0
340
4C
342
84
371
-2
372
-2
  0
DIMSTYLE
105
89
330
4
100
AcDbSymbolTableRecord
100
AcDbDimStyleTableRecord
  2
EZ_CURVED
 70
0
 40
1.0
 41
0.25
 42
0.125
 43
3.75
 44
0.375
 45
0.0
 46
0.0
 47
0.0
 48
0.0
 49
2.5
140
0.25
141
2.5
142
0.0
143
0.03937007874
144
100.0
145
0.0
146
0.5
147
0.1
148
0.0
 69
0
 70
0
 71
0
 72
0
 73
0
 74
0
 75
0
 76
0
 77
1
 78
12
 79
2
 90
2
170
0
171
3
172
1
173
0
174
0
175
0
176
0
177
0
178
0
179
2
271
2
272
2
273
2
274
3
275
0
276
0
277
2
278
46
279
2
280
0
281
0
282
0
283
0
284
8
285
0
286
0
288
1
289
3
290
0
340
4C
371
-2
372
-2
  0
ENDTAB
  0
TABLE
  2
BLOCK_RECORD
  5
9
330
0
100
AcDbSymbolTable
 70
5
  0
BLOCK_RECORD
  5
17
330
9
100
AcDbSymbolTableRecord
100
AcDbBlockTableRecord
  2
*Model_Space
340
1A
 70
0
280
1
281
0
  0
BLOCK_RECORD
  5
1B
330
9
100
AcDbSymbolTableRecord
100
AcDbBlockTableRecord
  2
*Paper_Space
340
1E
 70
0
280
1
281
0
  0
BLOCK_RECORD
  5
74
330
9
100
AcDbSymbolTableRecord
100
AcDbBlockTableRecord
  2
_ARCHTICK
340
0
 70
0
280
1
281
0
  0
BLOCK_RECORD
  5
78
330
9
100
AcDbSymbolTableRecord
100
AcDbBlockTableRecord
  2
_CLOSEDFILLED
340
0
 70
0
280
1
281
0
  0
BLOCK_RECORD
  5
84
330
9
100
AcDbSymbolTableRecord
100
AcDbBlockTableRecord
  2
_CLOSEDBLANK
340
0
 70
0
280
1
281
0
  0
ENDTAB
  0
ENDSEC
  0
SECTION
  2
BLOCKS
  0
BLOCK
  5
18
330
17
100
AcDbEntity
  8
0
100
AcDbBlockBegin
  2
*Model_Space
 70
0
 10
0.0
 20
0.0
 30
0.0
  3
*Model_Space
  1

  0
ENDBLK
  5
19
330
17
100
AcDbEntity
  8
0
100
AcDbBlockEnd
  0
BLOCK
  5
1C
330
1B
100
AcDbEntity
  8
0
100
AcDbBlockBegin
  2
*Paper_Space
 70
0
 10
0.0
 20
0.0
 30
0.0
  3
*Paper_Space
  1

  0
ENDBLK
  5
1D
330
1B
100
AcDbEntity
  8
0
100
AcDbBlockEnd
  0
BLOCK
  5
75
330
74
100
AcDbEntity
  8
0
100
AcDbBlockBegin
  2
_ARCHTICK
 70
0
 10
0.0
 20
0.0
 30
0.0
  3
_ARCHTICK
  1

  0
LWPOLYLINE
  5
77
330
74
100
AcDbEntity
  8
0
  6
BYBLOCK
 62
0
100
AcDbPolyline
 90
2
 70
0
 43
0.15
 10
-0.5
 20
-0.5
 10
0.5
 20
0.5
  0
ENDBLK
  5
76
330
74
100
AcDbEntity
  8
0
100
AcDbBlockEnd
  0
BLOCK
  5
79
330
78
100
AcDbEntity
  8
0
100
AcDbBlockBegin
  2
_CLOSEDFILLED
 70
0
 10
0.0
 20
0.0
 30
0.0
  3
_CLOSEDFILLED
  1

  0
SOLID
  5
7B
330
78
100
AcDbEntity
  8
0
  6
BYBLOCK
 62
0
100
AcDbTrace
 10
-1.0
 20
0.16439898372402537
 30
0.0
 11
0.0
 21
0.0
 31
0.0
 12
-1.0
 22
-0.16439898372402537
 32
0.0
 13
-1.0
 23
-0.16439898372402537
 33
0.0
  0
ENDBLK
  5
7A
330
78
100
AcDbEntity
  8
0
100
AcDbBlockEnd
  0
BLOCK
  5
85
330
84
100
AcDbEntity
  8
0
100
AcDbBlockBegin
  2
_CLOSEDBLANK
 70
0
 10
0.0
 20
0.0
 30
0.0
  3
_CLOSEDBLANK
  1

  0
LWPOLYLINE
  5
87
330
84
100
AcDbEntity
  8
0
  6
BYBLOCK
 62
0
100
AcDbPolyline
 90
3
 70
1
 10
-1.0
 20
0.16439898372402537
 10
0.0
 20
0.0
 10
-1.0
 20
-0.16439898372402537
  0
ENDBLK
  5
86
330
84
100
AcDbEntity
  8
0
100
AcDbBlockEnd
  0
ENDSEC
  0
SECTION
  2
ENTITIES
  0
LWPOLYLINE
  5
95
330
17
100
AcDbEntity
  8
CORTE
100
AcDbPolyline
 90
78
 70
1
 10
-1.0000000000000002
 20
-69.0
 10
26.7
 20
-69.0
 10
26.7
 20
-20.461542
 10
26.196533
 20
-19.802979
 10
25.898104
 20
-19.413184
 10
25.59799
 20
-19.022323
 10
25.295883
 20
-18.630565
 10
24.991262
 20
-18.237806
 10
24.683609
 20
-17.843943
 10
24.372405999999998
 20
-17.448875
 10
24.057135
 20
-17.052508
 10
23.737303999999998
 20
-16.654777
 10
23.413248
 20
-16.256571
 10
23.087729
 20
-15.859693
 10
22.76459
 20
-15.464806
 10
22.446796
 20
-15.07147
 10
22.13724
 20
-14.679283
 10
21.838797
 20
-14.287958
 10
21.554299999999998
 20
-13.897315
 10
21.286514999999998
 20
-13.50728
 10
21.038104999999998
 20
-13.11787
 10
20.811583
 20
-12.729166
 10
20.609265
 20
-12.341267
 10
20.433218
 20
-11.954209
 10
20.285225
 20
-11.567849
 10
20.1665
 20
-11.180746
 10
20.076589
 20
-10.787172
 10
20.013016999999998
 20
-10.381628
 10
19.97404
 20
-9.962928
 10
19.958136
 20
-9.531287
 10
19.963689
 20
-9.087254
 10
19.98893
 20
-8.6316
 10
20.031926
 20
-8.165232
 10
20.090586
 20
-7.689115
 10
20.162682999999998
 20
-7.204217
 10
20.245874999999998
 20
-6.711484
 10
20.337723
 20
-6.211807
 10
20.435714
 20
-5.706016
 10
20.694114
 20
-4.405433
 10
7.809578
 20
1.21784
 10
7.148354
 20
0.41844
 10
6.966821
 20
0.198492
 10
6.78508
 20
-0.022673
 10
6.6033740000000005
 20
-0.245253
 10
6.421947
 20
-0.469448
 10
6.241047
 20
-0.69546
 10
6.060925
 20
-0.923492
 10
5.881836
 20
-1.15375
 10
5.7040370000000005
 20
-1.386441
 10
5.527788
 20
-1.621771
 10
5.353356
 20
-1.859947
 10
5.1810089999999995
 20
-2.101176
 10
5.011021
 20
-2.345665
 10
4.843862
 20
-2.593332
 10
4.680727
 20
-2.842586
 10
4.52206
 20
-3.091062
 10
4.367178
 20
-3.337589
 10
4.215175
 20
-3.581417
 10
4.06519
 20
-3.821811
 10
3.916409
 20
-4.058047
 10
3.7680610000000003
 20
-4.289415
 10
3.619417
 20
-4.515223
 10
3.469793
 20
-4.734804
 10
3.3185409999999997
 20
-4.947525
 10
3.165041
 20
-5.152796
 10
3.008698
 20
-5.350087
 10
2.848885
 20
-5.538978
 10
2.683755
 20
-5.720487
 10
2.510444
 20
-5.897683
 10
2.327877
 20
-6.072855
 10
2.136627
 20
-6.246661
 10
1.937446
 20
-6.419674
 10
1.731152
 20
-6.592501
 10
1.51861
 20
-6.765794
 10
0.985912
 20
-7.192326
 10
0.824653
 20
-8.4
 10
-1.0000000000000002
 20
-8.4
 10
-1.0000000000000002
 20
-69.0
  0
LWPOLYLINE
  5
96
330
17
100
AcDbEntity
  8
COSTURA
100
AcDbPolyline
 90
77
 70
1
 10
0.0
 20
-9.4
 10
1.7
 20
-9.4
 10
1.9240290200958639
 20
-7.722237658455613
 10
2.147094432330193
 20
-7.543628840371376
 10
2.368232628841458
 20
-7.363327069207433
 10
2.5864800017681207
 20
-7.1804858684239345
 10
2.80087294324865
 20
-6.994258761481029
 10
3.0104478454215142
 20
-6.80379927183886
 10
3.2142411004251787
 20
-6.60826092295758
 10
3.41128910039811
 20
-6.406797238297333
 10
3.600686731513668
 20
-6.198612651346191
 10
3.7824813603518885
 20
-5.983740582756195
 10
3.957495200654993
 20
-5.762888838024473
 10
4.126572958422013
 20
-5.536784798685679
 10
4.290559339651982
 20
-5.306155846274464
 10
4.450299050343932
 20
-5.071729362325485
 10
4.606636796496895
 20
-4.834232728373391
 10
4.760417284109902
 20
-4.594393325952839
 10
4.9124852191819866
 20
-4.352938536598482
 10
5.063685307712181
 20
-4.1105957418449695
 10
5.214862255699515
 20
-3.8680923232269584
 10
5.366860769143024
 20
-3.6261556622791007
 10
5.520525554041738
 20
-3.385513140536051
 10
5.676701286108549
 20
-3.146892113733559
 10
5.836021248889153
 20
-2.9108398656190406
 10
5.998401834446947
 20
-2.677293004169121
 10
6.163607610260611
 20
-2.446058807332677
 10
6.331403143808819
 20
-2.216944553058585
 10
6.501553002570251
 20
-1.9897575192957218
 10
6.673821754023583
 20
-1.7643049839929663
 10
6.847973965647495
 20
-1.5403942250991938
 10
7.023774204920662
 20
-1.3178325205632822
 10
7.200987039321763
 20
-1.0964271483341081
 10
7.379377036329477
 20
-0.8759853863605488
 10
7.55870876342248
 20
-0.6563145125914813
 10
7.73874678807945
 20
-0.4372218049757826
 10
7.919255677779064
 20
-0.21851454146232982
 10
8.1
 20
-0.0
 10
19.5564392373896
 20
-5.0
 10
19.454421106477756
 20
-5.513478988028473
 10
19.355066557524765
 20
-6.026309152428317
 10
19.261039172489475
 20
-6.537841669570907
 10
19.175002533330733
 20
-7.047427715827611
 10
19.099620222007395
 20
-7.554418467569805
 10
19.037555820478303
 20
-8.058165101168859
 10
18.991472910702313
 20
-8.558018792996144
 10
18.96403507463827
 20
-9.053330719423032
 10
18.957905894245034
 20
-9.543452056820898
 10
18.97574895148145
 20
-10.027733981561111
 10
19.02022782830636
 20
-10.505527670015045
 10
19.094006106678624
 20
-10.976184298554072
 10
19.199747368557087
 20
-11.439055043549562
 10
19.33918465405105
 20
-11.893688680731756
 10
19.510305763416135
 20
-12.340429282672451
 10
19.71015638312121
 20
-12.77982097858823
 10
19.93578219962694
 20
-13.212407897697405
 10
20.184228899393993
 20
-13.63873416921829
 10
20.45254216888303
 20
-14.059343922369202
 10
20.737767694554737
 20
-14.474781286368458
 10
21.036951162869773
 20
-14.885590390434372
 10
21.347138260288812
 20
-15.292315363785258
 10
21.665374673272517
 20
-15.69550033563944
 10
21.988706088281564
 20
-16.095689435215224
 10
22.31417819177662
 20
-16.49342679173093
 10
22.638836670218353
 20
-16.889256534404872
 10
22.959838932488886
 20
-17.283709115846353
 10
23.27617163772967
 20
-17.67709105921288
 10
23.588314802591796
 20
-18.06952607684823
 10
23.89679211962258
 20
-18.461132534468792
 10
24.20212728136937
 20
-18.85202879779097
 10
24.5048439803795
 20
-19.242333232531166
 10
24.805465909200294
 20
-19.632164204405765
 10
25.104516760379084
 20
-20.021640079131174
 10
25.40252022646321
 20
-20.410879222423787
 10
25.7
 20
-20.8
 10
25.7
 20
-68.0
 10
0.0
 20
-68.0
  0
LINE
  5
97
330
17
100
AcDbEntity
  8
HILO
100
AcDbLine
 10
13.7
 20
-12.4
 30
0.0
 11
13.7
 21
-65.0
 31
0.0
  0
LINE
  5
98
330
17
100
AcDbEntity
  8
HILO
100
AcDbLine
 10
13.7
 20
-65.0
 30
0.0
 11
14.16730201077038
 21
-63.89472680719654
 31
0.0
  0
LINE
  5
99
330
17
100
AcDbEntity
  8
HILO
100
AcDbLine
 10
13.7
 20
-65.0
 30
0.0
 11
13.232697989229617
 21
-63.89472680719654
 31
0.0
  0
LINE
  5
9A
330
17
100
AcDbEntity
  8
HILO
100
AcDbLine
 10
13.7
 20
-12.4
 30
0.0
 11
13.232697989229619
 21
-13.505273192803463
 31
0.0
  0
LINE
  5
9B
330
17
100
AcDbEntity
  8
HILO
100
AcDbLine
 10
13.7
 20
-12.4
 30
0.0
 11
14.16730201077038
 21
-13.505273192803463
 31
0.0
  0
LINE
  5
9C
330
17
100
AcDbEntity
  8
PIQUETES
100
AcDbLine
 10
19.383454342250072
 20
-11.286974726650481
 30
0.0
 11
19.000050782740875
 21
-11.807168642950622
 31
0.0
  0
LINE
  5
9D
330
17
100
AcDbEntity
  8
PIQUETES
100
AcDbLine
 10
18.91893341804054
 20
-11.166060248726936
 30
0.0
 11
19.000050782740875
 21
-11.807168642950622
 31
0.0
  0
LINE
  5
9E
330
17
100
AcDbEntity
  8
PIQUETES
100
AcDbLine
 10
25.60755275737811
 20
-42.92148026397766
 30
0.0
 11
25.146299340055872
 21
-42.46888189344528
 31
0.0
  0
LINE
  5
9F
330
17
100
AcDbEntity
  8
PIQUETES
100
AcDbLine
 10
25.79244724262189
 20
-42.47851973602235
 30
0.0
 11
25.146299340055872
 21
-42.46888189344528
 31
0.0
  0
CIRCLE
  5
A0
330
17
100
AcDbEntity
  8
CENTROS
100
AcDbCircle
 10
14.9
 20
-25.0
 30
0.0
 40
0.15
  0
LINE
  5
A1
330
17
100
AcDbEntity
  8
CONSTRUCCION
100
AcDbLine
 10
1.7
 20
-9.4
 30
0.0
 11
1.7
 21
-68.0
 31
0.0
  0
CIRCLE
  5
A2
330
17
100
AcDbEntity
  8
BOTONES
100
AcDbCircle
 10
1.7
 20
-10.9
 30
0.0
 40
0.55
  0
CIRCLE
  5
A3
330
17
100
AcDbEntity
  8
BOTONES
100
AcDbCircle
 10
1.7
 20
-19.416666666666668
 30
0.0
 40
0.55
  0
CIRCLE
  5
A4
330
17
100
AcDbEntity
  8
BOTONES
100
AcDbCircle
 10
1.7
 20
-27.933333333333337
 30
0.0
 40
0.55
  0
CIRCLE
  5
A5
330
17
100
AcDbEntity
  8
BOTONES
100
AcDbCircle
 10
1.7
 20
-36.45
 30
0.0
 40
0.55
  0
CIRCLE
  5
A6
330
17
100
AcDbEntity
  8
BOTONES
100
AcDbCircle
 10
1.7
 20
-44.96666666666667
 30
0.0
 40
0.55
  0
CIRCLE
  5
A7
330
17
100
AcDbEntity
  8
BOTONES
100
AcDbCircle
 10
1.7
 20
-53.483333333333334
 30
0.0
 40
0.55
  0
CIRCLE
  5
A8
330
17
100
AcDbEntity
  8
BOTONES
100
AcDbCircle
 10
1.7
 20
-62.0
 30
0.0
 40
0.55
  0
LINE
  5
A9
330
17
100
AcDbEntity
  8
OJAL
100
AcDbLine
 10
0.8999999999999999
 20
-10.9
 30
0.0
 11
2.5
 21
-10.9
 31
0.0
  0
LINE
  5
AA
330
17
100
AcDbEntity
  8
OJAL
100
AcDbLine
 10
0.8999999999999999
 20
-19.416666666666668
 30
0.0
 11
2.5
 21
-19.416666666666668
 31
0.0
  0
LINE
  5
AB
330
17
100
AcDbEntity
  8
OJAL
100
AcDbLine
 10
0.8999999999999999
 20
-27.933333333333337
 30
0.0
 11
2.5
 21
-27.933333333333337
 31
0.0
  0
LINE
  5
AC
330
17
100
AcDbEntity
  8
OJAL
100
AcDbLine
 10
0.8999999999999999
 20
-36.45
 30
0.0
 11
2.5
 21
-36.45
 31
0.0
  0
LINE
  5
AD
330
17
100
AcDbEntity
  8
OJAL
100
AcDbLine
 10
0.8999999999999999
 20
-44.96666666666667
 30
0.0
 11
2.5
 21
-44.96666666666667
 31
0.0
  0
LINE
  5
AE
330
17
100
AcDbEntity
  8
OJAL
100
AcDbLine
 10
0.8999999999999999
 20
-53.483333333333334
 30
0.0
 11
2.5
 21
-53.483333333333334
 31
0.0
  0
LINE
  5
AF
330
17
100
AcDbEntity
  8
OJAL
100
AcDbLine
 10
0.8999999999999999
 20
-62.0
 30
0.0
 11
2.5
 21
-62.0
 31
0.0
  0
TEXT
  5
B0
330
17
100
AcDbEntity
  8
REFERENCIAS
100
AcDbText
 10
1.7
 20
-8.4
 30
0.0
 40
0.5
  1
CF
 11
1.7
 21
-8.4
 31
0.0
100
AcDbText
  0
TEXT
  5
B1
330
17
100
AcDbEntity
  8
TEXTOS
100
AcDbText
 10
12.403355762312843
 20
-34.44989782013963
 30
0.0
 40
0.9
  1
DELANTERO
 72
1
 11
12.403355762312843
 21
-34.44989782013963
 31
0.0
100
AcDbText
 73
2
  0
TEXT
  5
B2
330
17
100
AcDbEntity
  8
TEXTOS
100
AcDbText
 10
12.403355762312843
 20
-35.84989782013963
 30
0.0
 40
0.6
  1
Pieza N.01
 72
1
 11
12.403355762312843
 21
-35.84989782013963
 31
0.0
100
AcDbText
 73
2
  0
TEXT
  5
B3
330
17
100
AcDbEntity
  8
TEXTOS
100
AcDbText
 10
12.403355762312843
 20
-37.24989782013963
 30
0.0
 40
0.6
  1
Talla: S
 72
1
 11
12.403355762312843
 21
-37.24989782013963
 31
0.0
100
AcDbText
 73
2
  0
TEXT
  5
B4
330
17
100
AcDbEntity
  8
TEXTOS
100
AcDbText
 10
12.403355762312843
 20
-38.64989782013963
 30
0.0
 40
0.6
  1
Cortar: 2  (par: izq + der)
 72
1
 11
12.403355762312843
 21
-38.64989782013963
 31
0.0
100
AcDbText
 73
2
  0
LWPOLYLINE
  5
B5
330
17
100
AcDbEntity
  8
CORTE
100
AcDbPolyline
 90
31
 70
1
 10
56.7
 20
-10.439074999999999
 10
56.13921
 20
-9.763397999999999
 10
55.807989
 20
-9.365061
 10
55.474022
 20
-8.964901000000001
 10
55.136671
 20
-8.562895000000001
 10
54.795011
 20
-8.158679
 10
54.448119
 20
-7.751895000000001
 10
54.095077
 20
-7.342191
 10
53.734971
 20
-6.929220999999998
 10
53.366890999999995
 20
-6.512646
 10
52.990581
 20
-6.0928429999999985
 10
52.608616
 20
-5.671647999999999
 10
52.226844
 20
-5.2509049999999995
 10
51.849548
 20
-4.830393000000001
 10
51.481245
 20
-4.410299
 10
51.126380999999995
 20
-3.9909110000000005
 10
50.789395999999996
 20
-3.5727279999999997
 10
50.474683
 20
-3.1564829999999997
 10
50.186512
 20
-2.7431509999999992
 10
49.928934
 20
-2.333957
 10
49.70563
 20
-1.9303229999999996
 10
49.519724
 20
-1.5337429999999994
 10
49.373598
 20
-1.1455040000000007
 10
49.268781000000004
 20
-0.7662220000000008
 10
49.205957999999995
 20
-0.3944700000000001
 10
49.185023
 20
-0.021126000000000644
 10
49.236592
 20
1.0
 10
31.7
 20
1.0
 10
31.7
 20
-59.0
 10
56.7
 20
-59.0
 10
56.7
 20
-10.439074999999999
  0
LWPOLYLINE
  5
B6
330
17
100
AcDbEntity
  8
COSTURA
100
AcDbPolyline
 90
30
 70
1
 10
31.7
 20
-0.0
 10
48.1848151314457
 20
-0.0
 10
48.183607708291575
 20
-0.02390826537683921
 10
48.210647533851656
 20
-0.506124512157303
 10
48.291285015141916
 20
-0.9832902697971591
 10
48.42177040646769
 20
-1.4554510269684702
 10
48.59763158768173
 20
-1.922693275221917
 10
48.81439643863683
 20
-2.3851035061081873
 10
49.067592839185735
 20
-2.8427682111779564
 10
49.35274866918122
 20
-3.295773881981912
 10
49.66539180847606
 20
-3.7442070100707365
 10
50.001050136923
 20
-4.1881540869951035
 10
50.35525153437483
 20
-4.627701604305704
 10
50.72352388068431
 20
-5.062936053553219
 10
51.1013950557042
 20
-5.493943926288328
 10
51.484392939287275
 20
-5.920811714061717
 10
51.8680454112863
 20
-6.34362590842407
 10
52.247880351554045
 20
-6.762473000926054
 10
52.61987827988937
 20
-7.177465233013848
 10
52.98342307394002
 20
-7.588908457213762
 10
53.33944702774184
 20
-7.997196612754337
 10
53.68889024632593
 20
-8.402724083217997
 10
54.03269283472339
 20
-8.80588525218715
 10
54.371794897965344
 20
-9.207074503244222
 10
54.707136541082875
 20
-9.606686219971625
 10
55.03965786910709
 20
-10.005114785951779
 10
55.37029898706909
 20
-10.402754584767099
 10
55.7
 20
-10.8
 10
55.7
 20
-58.0
 10
31.7
 20
-58.0
  0
LINE
  5
B7
330
17
100
AcDbEntity
  8
DOBLEZ
100
AcDbLine
 10
31.7
 20
-0.0
 30
0.0
 11
31.7
 21
-58.0
 31
0.0
  0
LINE
  5
B8
330
17
100
AcDbEntity
  8
HILO
100
AcDbLine
 10
32.2
 20
-3.0
 30
0.0
 11
32.2
 21
-55.0
 31
0.0
  0
LINE
  5
B9
330
17
100
AcDbEntity
  8
HILO
100
AcDbLine
 10
32.2
 20
-55.0
 30
0.0
 11
32.66730201077038
 21
-53.89472680719654
 31
0.0
  0
LINE
  5
BA
330
17
100
AcDbEntity
  8
HILO
100
AcDbLine
 10
32.2
 20
-55.0
 30
0.0
 11
31.732697989229617
 21
-53.89472680719654
 31
0.0
  0
LINE
  5
BB
330
17
100
AcDbEntity
  8
HILO
100
AcDbLine
 10
32.2
 20
-3.0
 30
0.0
 11
31.732697989229617
 21
-4.1052731928034625
 31
0.0
  0
LINE
  5
BC
330
17
100
AcDbEntity
  8
HILO
100
AcDbLine
 10
32.2
 20
-3.0
 30
0.0
 11
32.66730201077038
 21
-4.1052731928034625
 31
0.0
  0
LINE
  5
BD
330
17
100
AcDbEntity
  8
PIQUETES
100
AcDbLine
 10
40.180839537008396
 20
0.02738968909807984
 30
0.0
 11
40.010881788468055
 21
-0.5960799282138602
 31
0.0
  0
LINE
  5
BE
330
17
100
AcDbEntity
  8
PIQUETES
100
AcDbLine
 10
39.70397559443731
 20
-0.02738968909807984
 30
0.0
 11
40.010881788468055
 21
-0.5960799282138602
 31
0.0
  0
TEXT
  5
BF
330
17
100
AcDbEntity
  8
REFERENCIAS
100
AcDbText
 10
32.0
 20
-29.0
 30
0.0
 40
0.5
  1
CB
 11
32.0
 21
-29.0
 31
0.0
100
AcDbText
  0
TEXT
  5
C0
330
17
100
AcDbEntity
  8
TEXTOS
100
AcDbText
 10
43.37644306450451
 20
-26.293871759809328
 30
0.0
 40
0.9
  1
ESPALDA
 72
1
 11
43.37644306450451
 21
-26.293871759809328
 31
0.0
100
AcDbText
 73
2
  0
TEXT
  5
C1
330
17
100
AcDbEntity
  8
TEXTOS
100
AcDbText
 10
43.37644306450451
 20
-27.693871759809326
 30
0.0
 40
0.6
  1
Pieza N.02
 72
1
 11
43.37644306450451
 21
-27.693871759809326
 31
0.0
100
AcDbText
 73
2
  0
TEXT
  5
C2
330
17
100
AcDbEntity
  8
TEXTOS
100
AcDbText
 10
43.37644306450451
 20
-29.093871759809325
 30
0.0
 40
0.6
  1
Talla: S
 72
1
 11
43.37644306450451
 21
-29.093871759809325
 31
0.0
100
AcDbText
 73
2
  0
TEXT
  5
C3
330
17
100
AcDbEntity
  8
TEXTOS
100
AcDbText
 10
43.37644306450451
 20
-30.493871759809323
 30
0.0
 40
0.6
  1
Cortar: 1  (al doblez)
 72
1
 11
43.37644306450451
 21
-30.493871759809323
 31
0.0
100
AcDbText
 73
2
  0
TEXT
  5
C4
330
17
100
AcDbEntity
  8
TEXTOS
100
AcDbText
 10
43.37644306450451
 20
-31.89387175980933
 30
0.0
 40
0.6
  1
AL DOBLEZ
 72
1
 11
43.37644306450451
 21
-31.89387175980933
 31
0.0
100
AcDbText
 73
2
  0
LWPOLYLINE
  5
C5
330
17
100
AcDbEntity
  8
CORTE
100
AcDbPolyline
 90
45
 70
1
 10
79.204553
 20
-9.634407
 10
79.263454
 20
-9.229935
 10
79.360446
 20
-8.807875
 10
79.49351
 20
-8.369493
 10
79.659834
 20
-7.916543
 10
79.855957
 20
-7.45088
 10
80.077938
 20
-6.974236
 10
80.321519
 20
-6.488124
 10
80.582243
 20
-5.993808
 10
80.855537
 20
-5.492303
 10
81.692725
 20
-3.980247
 10
68.463288
 20
1.124619
 10
67.82821100000001
 20
0.680557
 10
67.632473
 20
0.54496
 10
67.439221
 20
0.413566
 10
67.247955
 20
0.287156
 10
67.058201
 20
0.166454
 10
66.869484
 20
0.052122
 10
66.680722
 20
-0.055594
 10
66.489923
 20
-0.157254
 10
66.296043
 20
-0.253392
 10
66.09925700000001
 20
-0.34391
 10
65.899871
 20
-0.428648
 10
65.698194
 20
-0.507452
 10
65.494535
 20
-0.580175
 10
65.28920500000001
 20
-0.646675
 10
65.082515
 20
-0.706818
 10
64.874774
 20
-0.760477
 10
64.666205
 20
-0.80755
 10
64.456151
 20
-0.848143
 10
64.24338300000001
 20
-0.882751
 10
64.02740800000001
 20
-0.911868
 10
63.808222
 20
-0.93591
 10
63.585857000000004
 20
-0.955302
 10
63.360367000000004
 20
-0.970488
 10
63.131822
 20
-0.981927
 10
62.900306
 20
-0.990098
 10
62.665908
 20
-0.995497
 10
62.428721
 20
-0.998643
 10
62.188838000000004
 20
-1.00007
 10
61.946352000000005
 20
-1.000332
 10
61.7
 20
-0.999999
 10
61.7
 20
-11.0
 10
79.135587
 20
-11.0
 10
79.204553
 20
-9.634407
  0
LWPOLYLINE
  5
C6
330
17
100
AcDbEntity
  8
COSTURA
100
AcDbPolyline
 90
44
 70
1
 10
61.7
 20
-2.0
 10
61.94621700359556
 20
-2.00033268093061
 10
62.192352644311725
 20
-2.0000667561055763
 10
62.43832555926914
 20
-1.998603619769256
 10
62.68405438558842
 20
-1.995344666166006
 10
62.92945776039018
 20
-1.9896912895401822
 10
63.17445432079505
 20
-1.9810448841361417
 10
63.41896270392364
 20
-1.9688068441982416
 10
63.662901546896585
 20
-1.9523785639708378
 10
63.9061894868345
 20
-1.9311614376982873
 10
64.148745160858
 20
-1.904556859624947
 10
64.39048720608771
 20
-1.8719662239951727
 10
64.63133425964426
 20
-1.8327909250533219
 10
64.8712042859385
 20
-1.7864349894126546
 10
65.10995170850691
 20
-1.7325510843831808
 10
65.34731614405462
 20
-1.6712411259010571
 10
65.58302514452467
 20
-1.6026542403142232
 10
65.81680626186017
 20
-1.5269395539706194
 10
66.04838704800416
 20
-1.444246193218186
 10
66.27749505489973
 20
-1.3547232844048627
 10
66.50385783448993
 20
-1.2585199538785905
 10
66.72720293871787
 20
-1.1557853279873096
 10
66.94725791952656
 20
-1.0466685330789587
 10
67.16375032885912
 20
-0.9313186955014804
 10
67.37646465034544
 20
-0.8099349119485193
 10
67.5857024683
 20
-0.6831701511383248
 10
67.79204105370248
 20
-0.5519193587747347
 10
67.99606025306332
 20
-0.4170797411684284
 10
68.1983399128929
 20
-0.2795485046300837
 10
68.39945987970165
 20
-0.14022285547038166
 10
68.60000000000001
 20
-0.0
 10
80.2619037896906
 20
-4.5
 10
79.97905807829056
 20
-5.010850942874886
 10
79.70090785209052
 20
-5.521268012539558
 10
79.43214859629049
 20
-6.030817335783803
 10
79.17747579609048
 20
-6.53906503939741
 10
78.9415849366905
 20
-7.0455772501701635
 10
78.72917150329056
 20
-7.549920094891851
 10
78.54493098109066
 20
-8.051659700352259
 10
78.39355885529079
 20
-8.550362193341176
 10
78.27975061109099
 20
-9.045593700648388
 10
78.20820173369125
 20
-9.53692034906368
 10
78.1848151314457
 20
-10.0
 10
61.7
 20
-10.0
  0
LINE
  5
C7
330
17
100
AcDbEntity
  8
DOBLEZ
100
AcDbLine
 10
61.7
 20
-0.0
 30
0.0
 11
61.7
 21
-10.0
 31
0.0
  0
LINE
  5
C8
330
17
100
AcDbEntity
  8
HILO
100
AcDbLine
 10
65.96000000000001
 20
-1.0
 30
0.0
 11
65.96000000000001
 21
-9.5
 31
0.0
  0
LINE
  5
C9
330
17
100
AcDbEntity
  8
HILO
100
AcDbLine
 10
65.96000000000001
 20
-9.5
 30
0.0
 11
66.42730201077039
 21
-8.394726807196538
 31
0.0
  0
LINE
  5
CA
330
17
100
AcDbEntity
  8
HILO
100
AcDbLine
 10
65.96000000000001
 20
-9.5
 30
0.0
 11
65.49269798922963
 21
-8.394726807196538
 31
0.0
  0
LINE
  5
CB
330
17
100
AcDbEntity
  8
HILO
100
AcDbLine
 10
65.96000000000001
 20
-1.0
 30
0.0
 11
65.49269798922963
 21
-2.105273192803462
 31
0.0
  0
LINE
  5
CC
330
17
100
AcDbEntity
  8
HILO
100
AcDbLine
 10
65.96000000000001
 20
-1.0
 30
0.0
 11
66.42730201077038
 21
-2.105273192803462
 31
0.0
  0
LINE
  5
CD
330
17
100
AcDbEntity
  8
PIQUETES
100
AcDbLine
 10
69.70246232783671
 20
-9.99487332312694
 30
0.0
 11
69.95522425790551
 21
-9.400136905284635
 31
0.0
  0
LINE
  5
CE
330
17
100
AcDbEntity
  8
PIQUETES
100
AcDbLine
 10
70.182352803609
 20
-10.00512667687306
 30
0.0
 11
69.95522425790551
 21
-9.400136905284635
 31
0.0
  0
TEXT
  5
CF
330
17
100
AcDbEntity
  8
TEXTOS
100
AcDbText
 10
70.03233517062606
 20
-2.1910940975396467
 30
0.0
 40
0.9
  1
CANESU
 72
1
 11
70.03233517062606
 21
-2.1910940975396467
 31
0.0
100
AcDbText
 73
2
  0
TEXT
  5
D0
330
17
100
AcDbEntity
  8
TEXTOS
100
AcDbText
 10
70.03233517062606
 20
-3.5910940975396466
 30
0.0
 40
0.6
  1
Pieza N.03
 72
1
 11
70.03233517062606
 21
-3.5910940975396466
 31
0.0
100
AcDbText
 73
2
  0
TEXT
  5
D1
330
17
100
AcDbEntity
  8
TEXTOS
100
AcDbText
 10
70.03233517062606
 20
-4.991094097539646
 30
0.0
 40
0.6
  1
Talla: S
 72
1
 11
70.03233517062606
 21
-4.991094097539646
 31
0.0
100
AcDbText
 73
2
  0
TEXT
  5
D2
330
17
100
AcDbEntity
  8
TEXTOS
100
AcDbText
 10
70.03233517062606
 20
-6.391094097539646
 30
0.0
 40
0.6
  1
Cortar: 2  (al doblez x2 (exterior+interior))
 72
1
 11
70.03233517062606
 21
-6.391094097539646
 31
0.0
100
AcDbText
 73
2
  0
TEXT
  5
D3
330
17
100
AcDbEntity
  8
TEXTOS
100
AcDbText
 10
70.03233517062606
 20
-7.791094097539647
 30
0.0
 40
0.6
  1
AL DOBLEZ
 72
1
 11
70.03233517062606
 21
-7.791094097539647
 31
0.0
100
AcDbText
 73
2
  0
LWPOLYLINE
  5
D4
330
17
100
AcDbEntity
  8
CORTE
100
AcDbPolyline
 90
68
 70
1
 10
89.46579039948006
 20
-61.0
 10
115.31010639948005
 20
-61.0
 10
119.54695839948005
 20
-8.775333
 10
118.82600039948005
 20
-8.019389
 10
118.40807439948006
 20
-7.586228
 10
117.98149939948006
 20
-7.154241
 10
117.54444039948005
 20
-6.726803
 10
117.09748339948005
 20
-6.308184
 10
116.64293039948005
 20
-5.899955
 10
116.18170639948005
 20
-5.501561
 10
115.71440539948006
 20
-5.112152
 10
115.24161339948006
 20
-4.730872
 10
114.76390139948005
 20
-4.356869
 10
114.28183039948006
 20
-3.989289
 10
113.79595039948005
 20
-3.627282
 10
113.30679239948006
 20
-3.269991
 10
112.81402539948004
 20
-2.915978
 10
112.31549639948005
 20
-2.564101
 10
111.80902339948005
 20
-2.215851
 10
111.29369039948006
 20
-1.873942
 10
110.76866039948005
 20
-1.541219
 10
110.23305539948005
 20
-1.220581
 10
109.68596639948005
 20
-0.914994
 10
109.12647839948005
 20
-0.627511
 10
108.55370039948005
 20
-0.361287
 10
107.96682339948005
 20
-0.1196
 10
107.36698739948005
 20
0.093543
 10
106.75933239948006
 20
0.275794
 10
106.14876839948005
 20
0.429889
 10
105.53707039948006
 20
0.560012
 10
104.92555439948005
 20
0.670344
 10
104.31542739948006
 20
0.764946
 10
103.70784839948006
 20
0.847757
 10
103.10395539948006
 20
0.92259
 10
102.41274139948005
 20
1.003991
 10
101.70930139948005
 20
0.956191
 10
101.09368439948005
 20
0.910762
 10
100.47430439948005
 20
0.857778
 10
99.85214039948005
 20
0.793497
 10
99.22817739948005
 20
0.714058
 10
98.60343239948006
 20
0.615481
 10
97.97900739948005
 20
0.493668
 10
97.35617539948005
 20
0.344424
 10
96.73822039948006
 20
0.16406
 10
96.13068139948005
 20
-0.047503
 10
95.53631739948005
 20
-0.286514
 10
94.95477339948005
 20
-0.54978
 10
94.38535139948006
 20
-0.834297
 10
93.82730539948005
 20
-1.137156
 10
93.27986839948005
 20
-1.455538
 10
92.74227839948006
 20
-1.786696
 10
92.21379539948005
 20
-2.127943
 10
91.69371639948005
 20
-2.476642
 10
91.18084439948005
 20
-2.830552
 10
90.67223939948005
 20
-3.189732
 10
90.16673439948005
 20
-3.557277
 10
89.66589239948006
 20
-3.935575
 10
89.17190039948005
 20
-4.326657
 10
88.68699739948005
 20
-4.732596
 10
88.21350239948005
 20
-5.1555
 10
87.75382739948006
 20
-5.597484
 10
87.31050339948006
 20
-6.060646
 10
86.88657539948005
 20
-6.546583
 10
86.48798739948005
 20
-7.051912
 10
86.11598839948005
 20
-7.566094
 10
85.76506839948006
 20
-8.080408
 10
85.23721039948005
 20
-8.877291
 10
89.46579039948006
 20
-61.0
  0
LWPOLYLINE
  5
D5
330
17
100
AcDbEntity
  8
COSTURA
100
AcDbPolyline
 90
67
 70
1
 10
86.2619037896906
 20
-9.141174169600001
 10
86.59497005201668
 20
-8.638359585750738
 10
86.93426208495625
 20
-8.141088131145194
 10
87.28600565912281
 20
-7.654902935027087
 10
87.65639746279003
 20
-7.1853215436210265
 10
88.0488753899534
 20
-6.735434659674123
 10
88.46188612832535
 20
-6.30394234451847
 10
88.89335098445478
 20
-5.88908249459775
 10
89.34119126489067
 20
-5.48909300635564
 10
89.8033282761819
 20
-5.102211776235823
 10
90.27768332487746
 20
-4.726676700681977
 10
90.76217771752624
 20
-4.360725676137779
 10
91.25473276067723
 20
-4.0025965990469095
 10
91.75326976299179
 20
-3.6505273693360234
 10
92.2561627507885
 20
-3.303502307884701
 10
92.76350664121685
 20
-2.9633430646533347
 10
93.27580518631278
 20
-2.6325453585739123
 10
93.79356213811226
 20
-2.313604908578417
 10
94.31728124865127
 20
-2.0090174335988307
 10
94.84746626996576
 20
-1.72127865256714
 10
95.3846209540917
 20
-1.452884284415328
 10
95.92924905306504
 20
-1.2063300480753791
 10
96.48185431892176
 20
-0.9841116624792766
 10
97.04294050369782
 20
-0.7887248465590052
 10
97.61293173274113
 20
-0.6223602716539838
 10
98.19135157958935
 20
-0.48375862055821883
 10
98.77715432103523
 20
-0.3694796163180607
 10
99.36928525785052
 20
-0.2760485950969942
 10
99.966689690807
 20
-0.1999908930585039
 10
100.56831292067643
 20
-0.13783184636607448
 10
101.17310024823058
 20
-0.08609679118319095
 10
101.7799969742412
 20
-0.041311063673337846
 10
102.38794839948005
 20
-0.0
 10
102.98398799533024
 20
-0.07019253834648535
 10
103.57883084859893
 20
-0.14390382273132174
 10
104.17128021670464
 20
-0.22465259919286024
 10
104.7601393570659
 20
-0.31595761376945186
 10
105.3442115271012
 20
-0.42133761249944757
 10
105.92229998422903
 20
-0.5443113414211987
 10
106.49320798586794
 20
-0.6883975465730561
 10
107.05573878943642
 20
-0.8571149739933706
 10
107.6087974535145
 20
-1.0536358873973815
 10
108.15236062757535
 20
-1.2774853691066257
 10
108.68704665841025
 20
-1.5260044715727756
 10
109.21348256308167
 20
-1.7965047378033896
 10
109.732295358652
 20
-2.086297710806027
 10
110.24411206218369
 20
-2.3926949335882477
 10
110.74955969073916
 20
-2.7130079491576087
 10
111.24926526138083
 20
-3.04454830052167
 10
111.74385579117114
 20
-3.384627530687992
 10
112.23395829717253
 20
-3.7305571826641306
 10
112.72013781803027
 20
-4.079838231050245
 10
113.20229172410193
 20
-4.432012319971424
 10
113.67991045958503
 20
-4.787864827648012
 10
114.15247868098422
 20
-5.148198821875681
 10
114.61948104480409
 20
-5.513817370450102
 10
115.08040220754931
 20
-5.885523541166946
 10
115.53472682572452
 20
-6.264120401821883
 10
115.98193955583433
 20
-6.6504110202105835
 10
116.4215250543834
 20
-7.045198464128721
 10
116.85296797787635
 20
-7.449285801371964
 10
117.27607326042647
 20
-7.863078259043805
 10
117.69245104739795
 20
-8.284738676787157
 10
118.10434338954087
 20
-8.711644957460965
 10
118.5139930092695
 20
-9.141174169600001
 10
114.38794839948005
 20
-60.0
 10
90.38794839948005
 20
-60.0
  0
LINE
  5
D6
330
17
100
AcDbEntity
  8
HILO
100
AcDbLine
 10
102.38794839948005
 20
-3.6564696678400006
 30
0.0
 11
102.38794839948005
 21
-58.0
 31
0.0
  0
LINE
  5
D7
330
17
100
AcDbEntity
  8
HILO
100
AcDbLine
 10
102.38794839948005
 20
-58.0
 30
0.0
 11
102.85525041025043
 21
-56.89472680719654
 31
0.0
  0
LINE
  5
D8
330
17
100
AcDbEntity
  8
HILO
100
AcDbLine
 10
102.38794839948005
 20
-58.0
 30
0.0
 11
101.92064638870967
 21
-56.89472680719654
 31
0.0
  0
LINE
  5
D9
330
17
100
AcDbEntity
  8
HILO
100
AcDbLine
 10
102.38794839948005
 20
-3.6564696678400006
 30
0.0
 11
101.92064638870967
 21
-4.761742860643462
 31
0.0
  0
LINE
  5
DA
330
17
100
AcDbEntity
  8
HILO
100
AcDbLine
 10
102.38794839948005
 20
-3.6564696678400006
 30
0.0
 11
102.85525041025043
 21
-4.761742860643462
 31
0.0
  0
LINE
  5
DB
330
17
100
AcDbEntity
  8
PIQUETES
100
AcDbLine
 10
110.46052294120487
 20
-2.450098376579989
 30
0.0
 11
110.06480377637011
 21
-2.9609861750078705
 31
0.0
  0
LINE
  5
DC
330
17
100
AcDbEntity
  8
PIQUETES
100
AcDbLine
 10
109.99902262095536
 20
-2.3181231728119904
 30
0.0
 11
110.06480377637011
 21
-2.9609861750078705
 31
0.0
  0
LINE
  5
DD
330
17
100
AcDbEntity
  8
PIQUETES
100
AcDbLine
 10
94.41344276628332
 20
-2.0195382447944055
 30
0.0
 11
94.35187890432726
 21
-2.6628188141426916
 31
0.0
  0
LINE
  5
DE
330
17
100
AcDbEntity
  8
PIQUETES
100
AcDbLine
 10
93.9528178599863
 20
-2.1545371177483728
 30
0.0
 11
94.35187890432726
 21
-2.6628188141426916
 31
0.0
  0
LINE
  5
DF
330
17
100
AcDbEntity
  8
PIQUETES
100
AcDbLine
 10
93.10511203417875
 20
-2.809755721379459
 30
0.0
 11
93.07678469000297
 21
-3.4553543285433426
 31
0.0
  0
LINE
  5
E0
330
17
100
AcDbEntity
  8
PIQUETES
100
AcDbLine
 10
92.65205717567241
 20
-2.968315789441371
 30
0.0
 11
93.07678469000297
 21
-3.4553543285433426
 31
0.0
  0
CIRCLE
  5
E1
330
17
100
AcDbEntity
  8
CENTROS
100
AcDbCircle
 10
106.41945955192742
 20
-48.0
 30
0.0
 40
0.15
  0
LINE
  5
E2
330
17
100
AcDbEntity
  8
CONSTRUCCION
100
AcDbLine
 10
106.41945955192742
 20
-60.0
 30
0.0
 11
106.41945955192742
 21
-48.0
 31
0.0
  0
TEXT
  5
E3
330
17
100
AcDbEntity
  8
TEXTOS
100
AcDbText
 10
102.34793551895339
 20
-27.245882355820694
 30
0.0
 40
0.9
  1
MANGA
 72
1
 11
102.34793551895339
 21
-27.245882355820694
 31
0.0
100
AcDbText
 73
2
  0
TEXT
  5
E4
330
17
100
AcDbEntity
  8
TEXTOS
100
AcDbText
 10
102.34793551895339
 20
-28.645882355820692
 30
0.0
 40
0.6
  1
Pieza N.04
 72
1
 11
102.34793551895339
 21
-28.645882355820692
 31
0.0
100
AcDbText
 73
2
  0
TEXT
  5
E5
330
17
100
AcDbEntity
  8
TEXTOS
100
AcDbText
 10
102.34793551895339
 20
-30.045882355820694
 30
0.0
 40
0.6
  1
Talla: S
 72
1
 11
102.34793551895339
 21
-30.045882355820694
 31
0.0
100
AcDbText
 73
2
  0
TEXT
  5
E6
330
17
100
AcDbEntity
  8
TEXTOS
100
AcDbText
 10
102.34793551895339
 20
-31.445882355820693
 30
0.0
 40
0.6
  1
Cortar: 2  (par: izq + der)
 72
1
 11
102.34793551895339
 21
-31.445882355820693
 31
0.0
100
AcDbText
 73
2
  0
LWPOLYLINE
  5
E7
330
17
100
AcDbEntity
  8
CORTE
100
AcDbPolyline
 90
37
 70
1
 10
123.5139930092695
 20
-11.249127
 10
123.5438340092695
 20
-11.552107
 10
123.6465400092695
 20
-11.890682
 10
123.8133250092695
 20
-12.202715
 10
124.0377790092695
 20
-12.476214
 10
124.3112780092695
 20
-12.700668
 10
124.6233110092695
 20
-12.867453
 10
124.96188600926949
 20
-12.970159
 10
125.2648660092695
 20
-13.0
 10
146.7631200092695
 20
-13.0
 10
147.0661000092695
 20
-12.970159
 10
147.4046750092695
 20
-12.867453
 10
147.7167080092695
 20
-12.700668
 10
147.9902070092695
 20
-12.476214
 10
148.2146610092695
 20
-12.202715
 10
148.3814460092695
 20
-11.890682
 10
148.4841520092695
 20
-11.552107
 10
148.51399300926948
 20
-11.249127
 10
148.51399300926948
 20
-0.750873
 10
148.4841520092695
 20
-0.447893
 10
148.3814460092695
 20
-0.109318
 10
148.2146610092695
 20
0.202715
 10
147.9902070092695
 20
0.476214
 10
147.7167080092695
 20
0.700668
 10
147.4046750092695
 20
0.867453
 10
147.0661000092695
 20
0.970159
 10
146.7631200092695
 20
1.0
 10
125.2648660092695
 20
1.0
 10
124.96188600926949
 20
0.970159
 10
124.6233110092695
 20
0.867453
 10
124.3112780092695
 20
0.700668
 10
124.0377790092695
 20
0.476214
 10
123.8133250092695
 20
0.202715
 10
123.6465400092695
 20
-0.109318
 10
123.5438340092695
 20
-0.447893
 10
123.5139930092695
 20
-0.750873
 10
123.5139930092695
 20
-11.249127
  0
LWPOLYLINE
  5
E8
330
17
100
AcDbEntity
  8
COSTURA
100
AcDbPolyline
 90
36
 70
1
 10
124.5139930092695
 20
-0.8000000000000002
 10
124.52936478494692
 20
-0.6439277423870974
 10
124.57488938326047
 20
-0.4938532541079283
 10
124.64881731942747
 20
-0.35554381358431847
 10
124.74830758432026
 20
-0.23431457505076203
 10
124.86953682285382
 20
-0.1348243101579638
 10
125.00784626337743
 20
-0.06089637399097081
 10
125.15792075165659
 20
-0.015371775677415767
 10
125.3139930092695
 20
-0.0
 10
146.7139930092695
 20
-0.0
 10
146.8700652668824
 20
-0.015371775677415656
 10
147.02013975516158
 20
-0.06089637399097059
 10
147.1584491956852
 20
-0.13482431015796392
 10
147.27967843421874
 20
-0.23431457505076203
 10
147.37916869911155
 20
-0.35554381358431836
 10
147.45309663527854
 20
-0.49385325410792835
 10
147.49862123359208
 20
-0.6439277423870976
 10
147.51399300926948
 20
-0.8000000000000003
 10
147.51399300926948
 20
-11.2
 10
147.49862123359208
 20
-11.356072257612903
 10
147.45309663527854
 20
-11.506146745892071
 10
147.37916869911155
 20
-11.644456186415681
 10
147.27967843421874
 20
-11.765685424949238
 10
147.1584491956852
 20
-11.865175689842035
 10
147.02013975516158
 20
-11.939103626009029
 10
146.8700652668824
 20
-11.984628224322584
 10
146.7139930092695
 20
-12.0
 10
125.3139930092695
 20
-12.0
 10
125.15792075165659
 20
-11.984628224322584
 10
125.00784626337743
 20
-11.939103626009029
 10
124.86953682285382
 20
-11.865175689842037
 10
124.74830758432026
 20
-11.765685424949238
 10
124.64881731942747
 20
-11.644456186415681
 10
124.57488938326047
 20
-11.506146745892071
 10
124.52936478494692
 20
-11.356072257612903
 10
124.5139930092695
 20
-11.2
  0
LINE
  5
E9
330
17
100
AcDbEntity
  8
HILO
100
AcDbLine
 10
136.01399300926948
 20
-0.5
 30
0.0
 11
136.01399300926948
 21
-11.5
 31
0.0
  0
LINE
  5
EA
330
17
100
AcDbEntity
  8
HILO
100
AcDbLine
 10
136.01399300926948
 20
-11.5
 30
0.0
 11
136.48129502003988
 21
-10.394726807196538
 31
0.0
  0
LINE
  5
EB
330
17
100
AcDbEntity
  8
HILO
100
AcDbLine
 10
136.01399300926948
 20
-11.5
 30
0.0
 11
135.54669099849912
 21
-10.394726807196538
 31
0.0
  0
LINE
  5
EC
330
17
100
AcDbEntity
  8
HILO
100
AcDbLine
 10
136.01399300926948
 20
-0.5
 30
0.0
 11
135.54669099849912
 21
-1.605273192803462
 31
0.0
  0
LINE
  5
ED
330
17
100
AcDbEntity
  8
HILO
100
AcDbLine
 10
136.01399300926948
 20
-0.5
 30
0.0
 11
136.48129502003988
 21
-1.605273192803462
 31
0.0
  0
LINE
  5
EE
330
17
100
AcDbEntity
  8
CONSTRUCCION
100
AcDbLine
 10
124.5139930092695
 20
-6.0
 30
0.0
 11
147.51399300926948
 21
-6.0
 31
0.0
  0
CIRCLE
  5
EF
330
17
100
AcDbEntity
  8
BOTONES
100
AcDbCircle
 10
125.7139930092695
 20
-6.0
 30
0.0
 40
0.55
  0
LINE
  5
F0
330
17
100
AcDbEntity
  8
OJAL
100
AcDbLine
 10
146.3139930092695
 20
-5.2
 30
0.0
 11
146.3139930092695
 21
-6.8
 31
0.0
  0
TEXT
  5
F1
330
17
100
AcDbEntity
  8
REFERENCIAS
100
AcDbText
 10
136.01399300926948
 20
-5.2
 30
0.0
 40
0.5
  1
DOBLEZ
 11
136.01399300926948
 21
-5.2
 31
0.0
100
AcDbText
  0
TEXT
  5
F2
330
17
100
AcDbEntity
  8
TEXTOS
100
AcDbText
 10
136.0139930092695
 20
-3.3000000000000034
 30
0.0
 40
0.9
  1
PUNO
 72
1
 11
136.0139930092695
 21
-3.3000000000000034
 31
0.0
100
AcDbText
 73
2
  0
TEXT
  5
F3
330
17
100
AcDbEntity
  8
TEXTOS
100
AcDbText
 10
136.0139930092695
 20
-4.700000000000003
 30
0.0
 40
0.6
  1
Pieza N.05
 72
1
 11
136.0139930092695
 21
-4.700000000000003
 31
0.0
100
AcDbText
 73
2
  0
TEXT
  5
F4
330
17
100
AcDbEntity
  8
TEXTOS
100
AcDbText
 10
136.0139930092695
 20
-6.100000000000003
 30
0.0
 40
0.6
  1
Talla: S
 72
1
 11
136.0139930092695
 21
-6.100000000000003
 31
0.0
100
AcDbText
 73
2
  0
TEXT
  5
F5
330
17
100
AcDbEntity
  8
TEXTOS
100
AcDbText
 10
136.0139930092695
 20
-7.500000000000003
 30
0.0
 40
0.6
  1
Cortar: 4  (4 (2 tela + 2 entretela))
 72
1
 11
136.0139930092695
 21
-7.500000000000003
 31
0.0
100
AcDbText
 73
2
  0
LWPOLYLINE
  5
F6
330
17
100
AcDbEntity
  8
CORTE
100
AcDbPolyline
 90
37
 70
1
 10
-1.0
 20
-76.649127
 10
-0.977845
 20
-76.87407
 10
-0.897902
 20
-77.137608
 10
-0.768081
 20
-77.380486
 10
-0.593371
 20
-77.593371
 10
-0.380486
 20
-77.768081
 10
-0.137608
 20
-77.897902
 10
0.12593
 20
-77.977845
 10
0.350873
 20
-78.0
 10
11.649127
 20
-78.0
 10
11.87407
 20
-77.977845
 10
12.137608
 20
-77.897902
 10
12.380486
 20
-77.768081
 10
12.593371
 20
-77.593371
 10
12.768081
 20
-77.380486
 10
12.897902
 20
-77.137608
 10
12.977845
 20
-76.87407
 10
13.0
 20
-76.649127
 10
13.0
 20
-74.350873
 10
12.977845
 20
-74.12593
 10
12.897902
 20
-73.862392
 10
12.768081
 20
-73.619514
 10
12.593371
 20
-73.406629
 10
12.380486
 20
-73.231919
 10
12.137608
 20
-73.102098
 10
11.87407
 20
-73.022155
 10
11.649127
 20
-73.0
 10
0.350873
 20
-73.0
 10
0.12593
 20
-73.022155
 10
-0.137608
 20
-73.102098
 10
-0.380486
 20
-73.231919
 10
-0.593371
 20
-73.406629
 10
-0.768081
 20
-73.619514
 10
-0.897902
 20
-73.862392
 10
-0.977845
 20
-74.12593
 10
-1.0
 20
-74.350873
 10
-1.0
 20
-76.649127
  0
LWPOLYLINE
  5
F7
330
17
100
AcDbEntity
  8
COSTURA
100
AcDbPolyline
 90
36
 70
1
 10
0.0
 20
-74.4
 10
0.007685887838707828
 20
-74.32196387119355
 10
0.030448186995485238
 20
-74.24692662705397
 10
0.0674121550789818
 20
-74.17777190679216
 10
0.11715728752538096
 20
-74.11715728752539
 10
0.17777190679215915
 20
-74.06741215507898
 10
0.24692662705396387
 20
-74.03044818699549
 10
0.3219638711935485
 20
-74.0076858878387
 10
0.39999999999999997
 20
-74.0
 10
11.6
 20
-74.0
 10
11.67803612880645
 20
-74.0076858878387
 10
11.753073372946035
 20
-74.03044818699549
 10
11.82222809320784
 20
-74.06741215507898
 10
11.882842712474618
 20
-74.11715728752539
 10
11.932587844921018
 20
-74.17777190679216
 10
11.969551813004514
 20
-74.24692662705397
 10
11.992314112161292
 20
-74.32196387119355
 10
12.0
 20
-74.4
 10
12.0
 20
-76.6
 10
11.992314112161292
 20
-76.67803612880645
 10
11.969551813004514
 20
-76.75307337294603
 10
11.932587844921018
 20
-76.82222809320784
 10
11.882842712474618
 20
-76.88284271247461
 10
11.82222809320784
 20
-76.93258784492102
 10
11.753073372946035
 20
-76.96955181300451
 10
11.67803612880645
 20
-76.9923141121613
 10
11.6
 20
-77.0
 10
0.4
 20
-77.0
 10
0.32196387119354875
 20
-76.9923141121613
 10
0.24692662705396412
 20
-76.96955181300451
 10
0.17777190679215923
 20
-76.93258784492102
 10
0.11715728752538102
 20
-76.88284271247461
 10
0.06741215507898185
 20
-76.82222809320784
 10
0.030448186995485294
 20
-76.75307337294603
 10
0.007685887838707828
 20
-76.67803612880645
 10
0.0
 20
-76.6
  0
LINE
  5
F8
330
17
100
AcDbEntity
  8
HILO
100
AcDbLine
 10
6.0
 20
-74.4
 30
0.0
 11
6.0
 21
-76.6
 31
0.0
  0
LINE
  5
F9
330
17
100
AcDbEntity
  8
HILO
100
AcDbLine
 10
6.0
 20
-76.6
 30
0.0
 11
6.467302010770381
 21
-75.49472680719654
 31
0.0
  0
LINE
  5
FA
330
17
100
AcDbEntity
  8
HILO
100
AcDbLine
 10
6.0
 20
-76.6
 30
0.0
 11
5.532697989229619
 21
-75.49472680719654
 31
0.0
  0
LINE
  5
FB
330
17
100
AcDbEntity
  8
HILO
100
AcDbLine
 10
6.0
 20
-74.4
 30
0.0
 11
5.53269798922962
 21
-75.50527319280346
 31
0.0
  0
LINE
  5
FC
330
17
100
AcDbEntity
  8
HILO
100
AcDbLine
 10
6.0
 20
-74.4
 30
0.0
 11
6.46730201077038
 21
-75.50527319280346
 31
0.0
  0
TEXT
  5
FD
330
17
100
AcDbEntity
  8
TEXTOS
100
AcDbText
 10
5.9999999999999964
 20
-72.8
 30
0.0
 40
0.9
  1
TAPETA MANGA
 72
1
 11
5.9999999999999964
 21
-72.8
 31
0.0
100
AcDbText
 73
2
  0
TEXT
  5
FE
330
17
100
AcDbEntity
  8
TEXTOS
100
AcDbText
 10
5.9999999999999964
 20
-74.2
 30
0.0
 40
0.6
  1
Pieza N.06
 72
1
 11
5.9999999999999964
 21
-74.2
 31
0.0
100
AcDbText
 73
2
  0
TEXT
  5
FF
330
17
100
AcDbEntity
  8
TEXTOS
100
AcDbText
 10
5.9999999999999964
 20
-75.6
 30
0.0
 40
0.6
  1
Talla: S
 72
1
 11
5.9999999999999964
 21
-75.6
 31
0.0
100
AcDbText
 73
2
  0
TEXT
  5
100
330
17
100
AcDbEntity
  8
TEXTOS
100
AcDbText
 10
5.9999999999999964
 20
-77.0
 30
0.0
 40
0.6
  1
Cortar: 2  (par)
 72
1
 11
5.9999999999999964
 21
-77.0
 31
0.0
100
AcDbText
 73
2
  0
LWPOLYLINE
  5
101
330
17
100
AcDbEntity
  8
CORTE
100
AcDbPolyline
 90
84
 70
1
 10
18.678138
 20
-79.66967700000001
 10
19.128269
 20
-79.759314
 10
19.578469
 20
-79.84384299999999
 10
20.028734
 20
-79.923259
 10
20.479061
 20
-79.997563
 10
20.929446
 20
-80.066751
 10
21.379885
 20
-80.130821
 10
21.830375
 20
-80.189773
 10
22.280912
 20
-80.243604
 10
22.731492
 20
-80.29231300000001
 10
23.18211
 20
-80.335898
 10
23.632763
 20
-80.374359
 10
24.083447
 20
-80.407694
 10
24.534156
 20
-80.435901
 10
24.984887999999998
 20
-80.458982
 10
25.435637
 20
-80.476934
 10
25.886399
 20
-80.489757
 10
26.33717
 20
-80.497451
 10
26.787945999999998
 20
-80.500016
 10
27.238722
 20
-80.497451
 10
27.689493
 20
-80.489757
 10
28.140255
 20
-80.476934
 10
28.591003999999998
 20
-80.458982
 10
29.041736
 20
-80.435901
 10
29.492446
 20
-80.407694
 10
29.943129
 20
-80.374359
 10
30.393782
 20
-80.335898
 10
30.8444
 20
-80.29231300000001
 10
31.294980000000002
 20
-80.243604
 10
31.745517
 20
-80.189773
 10
32.196007
 20
-80.130821
 10
32.646446
 20
-80.066751
 10
33.096831
 20
-79.997563
 10
33.547157999999996
 20
-79.923259
 10
33.997423
 20
-79.84384299999999
 10
34.447623
 20
-79.759314
 10
34.897755000000004
 20
-79.66967700000001
 10
35.087537
 20
-79.629725
 10
37.132453
 20
-83.037919
 10
38.187671
 20
-82.638936
 10
36.371109000000004
 20
-72.799223
 10
34.925174999999996
 20
-73.120068
 10
34.49644
 20
-73.210323
 10
34.067777
 20
-73.295686
 10
33.639183
 20
-73.376157
 10
33.210653
 20
-73.451741
 10
32.782185
 20
-73.522437
 10
32.353775999999996
 20
-73.588249
 10
31.925421
 20
-73.649179
 10
31.497116
 20
-73.705227
 10
31.068858
 20
-73.756396
 10
30.640643
 20
-73.802687
 10
30.212467
 20
-73.844102
 10
29.784325000000003
 20
-73.880641
 10
29.356214
 20
-73.912306
 10
28.928129
 20
-73.939099
 10
28.500066
 20
-73.961018
 10
28.072021
 20
-73.978066
 10
27.643988
 20
-73.990243
 10
27.215965
 20
-73.997549
 10
26.787945999999998
 20
-73.999984
 10
26.359927
 20
-73.997549
 10
25.931904
 20
-73.990243
 10
25.503871
 20
-73.978066
 10
25.075826
 20
-73.961018
 10
24.647763
 20
-73.939099
 10
24.219678000000002
 20
-73.912306
 10
23.791567
 20
-73.880641
 10
23.363425
 20
-73.844102
 10
22.935249
 20
-73.802687
 10
22.507034
 20
-73.756396
 10
22.078776
 20
-73.705227
 10
21.650471
 20
-73.649179
 10
21.222116
 20
-73.588249
 10
20.793707
 20
-73.522437
 10
20.365239
 20
-73.451741
 10
19.936709
 20
-73.376157
 10
19.508115
 20
-73.295686
 10
19.079452
 20
-73.210323
 10
18.650717
 20
-73.120068
 10
18.0
 20
-72.975677
 10
18.0
 20
-79.524323
 10
18.228078
 20
-79.574932
 10
18.678138
 20
-79.66967700000001
  0
LWPOLYLINE
  5
102
330
17
100
AcDbEntity
  8
COSTURA
100
AcDbPolyline
 90
83
 70
1
 10
18.0
 20
-74.0
 10
18.439397301631974
 20
-74.0975
 10
18.878794603263948
 20
-74.19
 10
19.318191904895922
 20
-74.2775
 10
19.757589206527896
 20
-74.36
 10
20.196986508159874
 20
-74.4375
 10
20.636383809791848
 20
-74.51
 10
21.075781111423822
 20
-74.5775
 10
21.515178413055796
 20
-74.64
 10
21.95457571468777
 20
-74.6975
 10
22.393973016319745
 20
-74.75
 10
22.83337031795172
 20
-74.7975
 10
23.272767619583693
 20
-74.84
 10
23.712164921215667
 20
-74.8775
 10
24.15156222284764
 20
-74.91
 10
24.590959524479615
 20
-74.9375
 10
25.030356826111593
 20
-74.96
 10
25.469754127743567
 20
-74.9775
 10
25.90915142937554
 20
-74.99
 10
26.348548731007515
 20
-74.9975
 10
26.78794603263949
 20
-75.0
 10
27.227343334271463
 20
-74.9975
 10
27.666740635903437
 20
-74.99
 10
28.10613793753541
 20
-74.9775
 10
28.545535239167386
 20
-74.96
 10
28.984932540799363
 20
-74.9375
 10
29.424329842431334
 20
-74.91
 10
29.86372714406331
 20
-74.8775
 10
30.303124445695282
 20
-74.84
 10
30.74252174732726
 20
-74.7975
 10
31.181919048959234
 20
-74.75
 10
31.621316350591208
 20
-74.6975
 10
32.060713652223185
 20
-74.64
 10
32.500110953855156
 20
-74.5775
 10
32.939508255487134
 20
-74.51
 10
33.378905557119104
 20
-74.4375
 10
33.81830285875108
 20
-74.36
 10
34.25770016038305
 20
-74.2775
 10
34.69709746201503
 20
-74.19
 10
35.13649476364701
 20
-74.0975
 10
35.57589206527898
 20
-74.0
 10
36.77589206527898
 20
-80.5
 10
35.57589206527898
 20
-78.5
 10
35.13649476364701
 20
-78.5975
 10
34.69709746201503
 20
-78.69
 10
34.25770016038305
 20
-78.7775
 10
33.81830285875108
 20
-78.86
 10
33.378905557119104
 20
-78.9375
 10
32.939508255487134
 20
-79.01
 10
32.500110953855156
 20
-79.0775
 10
32.060713652223185
 20
-79.14
 10
31.621316350591208
 20
-79.1975
 10
31.181919048959234
 20
-79.25
 10
30.74252174732726
 20
-79.2975
 10
30.303124445695282
 20
-79.34
 10
29.86372714406331
 20
-79.3775
 10
29.424329842431334
 20
-79.41
 10
28.984932540799363
 20
-79.4375
 10
28.545535239167386
 20
-79.46
 10
28.10613793753541
 20
-79.4775
 10
27.666740635903437
 20
-79.49
 10
27.227343334271463
 20
-79.4975
 10
26.78794603263949
 20
-79.5
 10
26.348548731007515
 20
-79.4975
 10
25.90915142937554
 20
-79.49
 10
25.469754127743567
 20
-79.4775
 10
25.030356826111593
 20
-79.46
 10
24.590959524479615
 20
-79.4375
 10
24.15156222284764
 20
-79.41
 10
23.712164921215667
 20
-79.3775
 10
23.272767619583693
 20
-79.34
 10
22.83337031795172
 20
-79.2975
 10
22.393973016319745
 20
-79.25
 10
21.95457571468777
 20
-79.1975
 10
21.515178413055796
 20
-79.14
 10
21.075781111423822
 20
-79.0775
 10
20.636383809791848
 20
-79.01
 10
20.196986508159874
 20
-78.9375
 10
19.757589206527896
 20
-78.86
 10
19.318191904895922
 20
-78.7775
 10
18.878794603263948
 20
-78.69
 10
18.439397301631974
 20
-78.5975
 10
18.0
 20
-78.5
  0
LINE
  5
103
330
17
100
AcDbEntity
  8
DOBLEZ
100
AcDbLine
 10
18.0
 20
-74.0
 30
0.0
 11
18.0
 21
-80.5
 31
0.0
  0
LINE
  5
104
330
17
100
AcDbEntity
  8
HILO
100
AcDbLine
 10
18.5
 20
-74.5
 30
0.0
 11
35.07589206527898
 21
-74.5
 31
0.0
  0
LINE
  5
105
330
17
100
AcDbEntity
  8
HILO
100
AcDbLine
 10
35.07589206527898
 20
-74.5
 30
0.0
 11
33.97061887247551
 21
-74.03269798922962
 31
0.0
  0
LINE
  5
106
330
17
100
AcDbEntity
  8
HILO
100
AcDbLine
 10
35.07589206527898
 20
-74.5
 30
0.0
 11
33.97061887247551
 21
-74.96730201077038
 31
0.0
  0
LINE
  5
107
330
17
100
AcDbEntity
  8
HILO
100
AcDbLine
 10
18.5
 20
-74.5
 30
0.0
 11
19.605273192803462
 21
-74.96730201077038
 31
0.0
  0
LINE
  5
108
330
17
100
AcDbEntity
  8
HILO
100
AcDbLine
 10
18.5
 20
-74.5
 30
0.0
 11
19.605273192803462
 21
-74.03269798922962
 31
0.0
  0
TEXT
  5
109
330
17
100
AcDbEntity
  8
TEXTOS
100
AcDbText
 10
27.09124710858033
 20
-73.34102182403939
 30
0.0
 40
0.9
  1
CUELLO
 72
1
 11
27.09124710858033
 21
-73.34102182403939
 31
0.0
100
AcDbText
 73
2
  0
TEXT
  5
10A
330
17
100
AcDbEntity
  8
TEXTOS
100
AcDbText
 10
27.09124710858033
 20
-74.7410218240394
 30
0.0
 40
0.6
  1
Pieza N.07
 72
1
 11
27.09124710858033
 21
-74.7410218240394
 31
0.0
100
AcDbText
 73
2
  0
TEXT
  5
10B
330
17
100
AcDbEntity
  8
TEXTOS
100
AcDbText
 10
27.09124710858033
 20
-76.14102182403938
 30
0.0
 40
0.6
  1
Talla: S
 72
1
 11
27.09124710858033
 21
-76.14102182403938
 31
0.0
100
AcDbText
 73
2
  0
TEXT
  5
10C
330
17
100
AcDbEntity
  8
TEXTOS
100
AcDbText
 10
27.09124710858033
 20
-77.54102182403939
 30
0.0
 40
0.6
  1
Cortar: 2  (al doblez x2 (+ entretela))
 72
1
 11
27.09124710858033
 21
-77.54102182403939
 31
0.0
100
AcDbText
 73
2
  0
TEXT
  5
10D
330
17
100
AcDbEntity
  8
TEXTOS
100
AcDbText
 10
27.09124710858033
 20
-78.94102182403938
 30
0.0
 40
0.6
  1
AL DOBLEZ
 72
1
 11
27.09124710858033
 21
-78.94102182403938
 31
0.0
100
AcDbText
 73
2
  0
LWPOLYLINE
  5
10E
330
17
100
AcDbEntity
  8
CORTE
100
AcDbPolyline
 90
83
 70
1
 10
43.59191906527898
 20
-78.14103
 10
44.08186006527898
 20
-78.212199
 10
44.57183006527898
 20
-78.279304
 10
45.06182606527898
 20
-78.342346
 10
45.55184606527898
 20
-78.401324
 10
46.041890065278984
 20
-78.456237
 10
46.53195506527898
 20
-78.507084
 10
47.022041065278984
 20
-78.553866
 10
47.51214506527898
 20
-78.596581
 10
48.00226606527898
 20
-78.63523
 10
48.49240206527898
 20
-78.669811
 10
48.98255206527898
 20
-78.700325
 10
49.47271306527898
 20
-78.726771
 10
49.96288506527898
 20
-78.749148
 10
50.45306506527898
 20
-78.767458
 10
50.94325206527898
 20
-78.781699
 10
51.43344506527898
 20
-78.791871
 10
51.92364106527898
 20
-78.797974
 10
52.41383806527898
 20
-78.800009
 10
52.90403606527898
 20
-78.797974
 10
53.39423106527898
 20
-78.791871
 10
53.88442406527898
 20
-78.781699
 10
54.374611065278984
 20
-78.767458
 10
54.86479106527898
 20
-78.749148
 10
55.35496306527898
 20
-78.726771
 10
55.84512406527898
 20
-78.700325
 10
56.33527406527898
 20
-78.669811
 10
56.82541006527898
 20
-78.63523
 10
57.31553106527898
 20
-78.596581
 10
57.80563506527898
 20
-78.553866
 10
58.29572106527898
 20
-78.507084
 10
58.785786065278984
 20
-78.456237
 10
59.27583006527898
 20
-78.401324
 10
59.76585006527898
 20
-78.342346
 10
60.25584606527898
 20
-78.279304
 10
60.74581606527898
 20
-78.212199
 10
61.23575706527898
 20
-78.14103
 10
61.725670065278976
 20
-78.0658
 10
63.05178406527898
 20
-77.851154
 10
63.05178406527898
 20
-72.825125
 10
61.41410406527898
 20
-73.0902
 10
60.940221065278976
 20
-73.16297
 10
60.46636906527898
 20
-73.231801
 10
59.99254406527898
 20
-73.296696
 10
59.51874506527898
 20
-73.357654
 10
59.044971065278986
 20
-73.414676
 10
58.57122006527898
 20
-73.467763
 10
58.09749106527898
 20
-73.516916
 10
57.62378206527898
 20
-73.562134
 10
57.150091065278986
 20
-73.603419
 10
56.67641706527898
 20
-73.64077
 10
56.20275906527898
 20
-73.674189
 10
55.72911406527898
 20
-73.703675
 10
55.255481065278985
 20
-73.729229
 10
54.78185806527898
 20
-73.750852
 10
54.308244065278984
 20
-73.768542
 10
53.834636065278985
 20
-73.782301
 10
53.36103406527898
 20
-73.792129
 10
52.88743506527898
 20
-73.798026
 10
52.41383806527898
 20
-73.799991
 10
51.94024106527898
 20
-73.798026
 10
51.46664206527898
 20
-73.792129
 10
50.99304006527898
 20
-73.782301
 10
50.519432065278984
 20
-73.768542
 10
50.04581806527898
 20
-73.750852
 10
49.57219506527898
 20
-73.729229
 10
49.09856206527898
 20
-73.703675
 10
48.62491706527898
 20
-73.674189
 10
48.15125906527898
 20
-73.64077
 10
47.67758506527898
 20
-73.603419
 10
47.20389406527898
 20
-73.562134
 10
46.73018506527898
 20
-73.516916
 10
46.25645606527898
 20
-73.467763
 10
45.78270506527898
 20
-73.414676
 10
45.30893106527898
 20
-73.357654
 10
44.83513306527898
 20
-73.296696
 10
44.36130706527898
 20
-73.231801
 10
43.88745506527898
 20
-73.16297
 10
43.41357306527898
 20
-73.0902
 10
42.77589206527898
 20
-72.986985
 10
42.77589206527898
 20
-78.013015
 10
43.10200606527898
 20
-78.0658
 10
43.59191906527898
 20
-78.14103
  0
LWPOLYLINE
  5
10F
330
17
100
AcDbEntity
  8
COSTURA
100
AcDbPolyline
 90
82
 70
1
 10
42.77589206527898
 20
-74.0
 10
43.257789366910956
 20
-74.078
 10
43.73968666854293
 20
-74.152
 10
44.221583970174905
 20
-74.222
 10
44.70348127180688
 20
-74.288
 10
45.185378573438854
 20
-74.35
 10
45.66727587507083
 20
-74.408
 10
46.1491731767028
 20
-74.462
 10
46.63107047833478
 20
-74.512
 10
47.11296777996675
 20
-74.558
 10
47.594865081598726
 20
-74.6
 10
48.0767623832307
 20
-74.638
 10
48.558659684862675
 20
-74.672
 10
49.04055698649465
 20
-74.702
 10
49.522454288126625
 20
-74.728
 10
50.0043515897586
 20
-74.75
 10
50.486248891390574
 20
-74.768
 10
50.96814619302255
 20
-74.782
 10
51.45004349465452
 20
-74.792
 10
51.9319407962865
 20
-74.798
 10
52.41383809791847
 20
-74.8
 10
52.895735399550446
 20
-74.798
 10
53.37763270118242
 20
-74.792
 10
53.859530002814395
 20
-74.782
 10
54.34142730444637
 20
-74.768
 10
54.823324606078344
 20
-74.75
 10
55.30522190771032
 20
-74.728
 10
55.78711920934229
 20
-74.702
 10
56.26901651097427
 20
-74.672
 10
56.75091381260624
 20
-74.638
 10
57.23281111423822
 20
-74.6
 10
57.71470841587019
 20
-74.558
 10
58.196605717502166
 20
-74.512
 10
58.67850301913414
 20
-74.462
 10
59.160400320766115
 20
-74.408
 10
59.64229762239809
 20
-74.35
 10
60.124194924030064
 20
-74.288
 10
60.60609222566204
 20
-74.222
 10
61.08798952729401
 20
-74.152
 10
61.56988682892599
 20
-74.078
 10
62.05178413055796
 20
-74.0
 10
62.05178413055796
 20
-77.0
 10
61.56988682892599
 20
-77.078
 10
61.08798952729401
 20
-77.152
 10
60.60609222566204
 20
-77.222
 10
60.124194924030064
 20
-77.288
 10
59.64229762239809
 20
-77.35
 10
59.160400320766115
 20
-77.408
 10
58.67850301913414
 20
-77.462
 10
58.196605717502166
 20
-77.512
 10
57.71470841587019
 20
-77.55799999999999
 10
57.23281111423822
 20
-77.6
 10
56.75091381260624
 20
-77.638
 10
56.26901651097427
 20
-77.672
 10
55.78711920934229
 20
-77.702
 10
55.30522190771032
 20
-77.728
 10
54.823324606078344
 20
-77.75
 10
54.34142730444637
 20
-77.768
 10
53.859530002814395
 20
-77.782
 10
53.37763270118242
 20
-77.792
 10
52.895735399550446
 20
-77.798
 10
52.41383809791847
 20
-77.8
 10
51.9319407962865
 20
-77.798
 10
51.45004349465452
 20
-77.792
 10
50.96814619302255
 20
-77.782
 10
50.486248891390574
 20
-77.768
 10
50.0043515897586
 20
-77.75
 10
49.522454288126625
 20
-77.728
 10
49.04055698649465
 20
-77.702
 10
48.558659684862675
 20
-77.672
 10
48.0767623832307
 20
-77.638
 10
47.594865081598726
 20
-77.6
 10
47.11296777996675
 20
-77.55799999999999
 10
46.63107047833478
 20
-77.512
 10
46.1491731767028
 20
-77.462
 10
45.66727587507083
 20
-77.408
 10
45.185378573438854
 20
-77.35
 10
44.70348127180688
 20
-77.288
 10
44.221583970174905
 20
-77.222
 10
43.73968666854293
 20
-77.152
 10
43.257789366910956
 20
-77.078
 10
42.77589206527898
 20
-77.0
  0
LINE
  5
110
330
17
100
AcDbEntity
  8
DOBLEZ
100
AcDbLine
 10
42.77589206527898
 20
-74.0
 30
0.0
 11
42.77589206527898
 21
-77.8
 31
0.0
  0
LINE
  5
111
330
17
100
AcDbEntity
  8
HILO
100
AcDbLine
 10
43.27589206527898
 20
-74.4
 30
0.0
 11
61.55178413055796
 21
-74.4
 31
0.0
  0
LINE
  5
112
330
17
100
AcDbEntity
  8
HILO
100
AcDbLine
 10
61.55178413055796
 20
-74.4
 30
0.0
 11
60.446510937754496
 21
-73.93269798922962
 31
0.0
  0
LINE
  5
113
330
17
100
AcDbEntity
  8
HILO
100
AcDbLine
 10
61.55178413055796
 20
-74.4
 30
0.0
 11
60.446510937754496
 21
-74.86730201077037
 31
0.0
  0
LINE
  5
114
330
17
100
AcDbEntity
  8
HILO
100
AcDbLine
 10
43.27589206527898
 20
-74.4
 30
0.0
 11
44.38116525808244
 21
-74.86730201077037
 31
0.0
  0
LINE
  5
115
330
17
100
AcDbEntity
  8
HILO
100
AcDbLine
 10
43.27589206527898
 20
-74.4
 30
0.0
 11
44.38116525808244
 21
-73.93269798922962
 31
0.0
  0
CIRCLE
  5
116
330
17
100
AcDbEntity
  8
BOTONES
100
AcDbCircle
 10
61.05178413055796
 20
-75.5
 30
0.0
 40
0.55
  0
TEXT
  5
117
330
17
100
AcDbEntity
  8
TEXTOS
100
AcDbText
 10
52.41383809791847
 20
-72.433
 30
0.0
 40
0.9
  1
PIE DE CUELLO
 72
1
 11
52.41383809791847
 21
-72.433
 31
0.0
100
AcDbText
 73
2
  0
TEXT
  5
118
330
17
100
AcDbEntity
  8
TEXTOS
100
AcDbText
 10
52.41383809791847
 20
-73.833
 30
0.0
 40
0.6
  1
Pieza N.08
 72
1
 11
52.41383809791847
 21
-73.833
 31
0.0
100
AcDbText
 73
2
  0
TEXT
  5
119
330
17
100
AcDbEntity
  8
TEXTOS
100
AcDbText
 10
52.41383809791847
 20
-75.233
 30
0.0
 40
0.6
  1
Talla: S
 72
1
 11
52.41383809791847
 21
-75.233
 31
0.0
100
AcDbText
 73
2
  0
TEXT
  5
11A
330
17
100
AcDbEntity
  8
TEXTOS
100
AcDbText
 10
52.41383809791847
 20
-76.633
 30
0.0
 40
0.6
  1
Cortar: 2  (al doblez x2 (+ entretela))
 72
1
 11
52.41383809791847
 21
-76.633
 31
0.0
100
AcDbText
 73
2
  0
TEXT
  5
11B
330
17
100
AcDbEntity
  8
TEXTOS
100
AcDbText
 10
52.41383809791847
 20
-78.033
 30
0.0
 40
0.6
  1
AL DOBLEZ
 72
1
 11
52.41383809791847
 21
-78.033
 31
0.0
100
AcDbText
 73
2
  0
LWPOLYLINE
  5
11C
330
17
100
AcDbEntity
  8
CORTE
100
AcDbPolyline
 90
43
 70
1
 10
67.05178413055796
 20
-143.0
 10
75.06810213055796
 20
-143.0
 10
74.15443513055797
 20
-86.555684
 10
78.37670613055796
 20
-73.994427
 10
75.88793113055796
 20
-72.750039
 10
75.20013813055796
 20
-73.58156
 10
75.01860513055797
 20
-73.801508
 10
74.83686413055797
 20
-74.022673
 10
74.65515813055796
 20
-74.245253
 10
74.47373113055797
 20
-74.469448
 10
74.29283113055797
 20
-74.69546
 10
74.11270913055796
 20
-74.923492
 10
73.93362013055797
 20
-75.15375
 10
73.75582113055796
 20
-75.386441
 10
73.57957213055796
 20
-75.621771
 10
73.40514013055797
 20
-75.859947
 10
73.23279313055797
 20
-76.101176
 10
73.06280513055796
 20
-76.345665
 10
72.89564613055796
 20
-76.593332
 10
72.73251113055797
 20
-76.842586
 10
72.57384413055796
 20
-77.091062
 10
72.41896213055796
 20
-77.337589
 10
72.26695913055796
 20
-77.581417
 10
72.11697413055796
 20
-77.821811
 10
71.96819313055796
 20
-78.058047
 10
71.81984513055797
 20
-78.289415
 10
71.67120113055796
 20
-78.515223
 10
71.52157713055797
 20
-78.734804
 10
71.37032513055796
 20
-78.947525
 10
71.21682513055796
 20
-79.152796
 10
71.06048213055797
 20
-79.350087
 10
70.90066913055796
 20
-79.538978
 10
70.73553913055797
 20
-79.720487
 10
70.56222813055797
 20
-79.897683
 10
70.37966113055796
 20
-80.072855
 10
70.18841113055797
 20
-80.246661
 10
69.98923013055797
 20
-80.419674
 10
69.78293613055797
 20
-80.592501
 10
69.57039413055797
 20
-80.765794
 10
69.03769613055796
 20
-81.192326
 10
68.87643713055796
 20
-82.4
 10
67.05178413055796
 20
-82.4
 10
67.05178413055796
 20
-143.0
  0
LWPOLYLINE
  5
11D
330
17
100
AcDbEntity
  8
COSTURA
100
AcDbPolyline
 90
42
 70
1
 10
68.05178413055796
 20
-83.4
 10
69.75178413055797
 20
-83.4
 10
69.97581315065383
 20
-81.72223765845561
 10
70.19887856288815
 20
-81.54362884037138
 10
70.42001675939942
 20
-81.36332706920743
 10
70.63826413232609
 20
-81.18048586842393
 10
70.85265707380661
 20
-80.99425876148103
 10
71.06223197597949
 20
-80.80379927183886
 10
71.26602523098315
 20
-80.60826092295758
 10
71.46307323095607
 20
-80.40679723829733
 10
71.65247086207164
 20
-80.1986126513462
 10
71.83426549090986
 20
-79.9837405827562
 10
72.00927933121295
 20
-79.76288883802448
 10
72.17835708897998
 20
-79.53678479868567
 10
72.34234347020995
 20
-79.30615584627446
 10
72.50208318090189
 20
-79.07172936232548
 10
72.65842092705486
 20
-78.8342327283734
 10
72.81220141466787
 20
-78.59439332595284
 10
72.96426934973995
 20
-78.35293853659849
 10
73.11546943827014
 20
-78.11059574184497
 10
73.26664638625748
 20
-77.86809232322696
 10
73.418644899701
 20
-77.6261556622791
 10
73.5723096845997
 20
-77.38551314053605
 10
73.72848541666652
 20
-77.14689211373356
 10
73.88780537944712
 20
-76.91083986561904
 10
74.05018596500491
 20
-76.67729300416912
 10
74.21539174081857
 20
-76.44605880733268
 10
74.38318727436679
 20
-76.21694455305858
 10
74.55333713312821
 20
-75.98975751929572
 10
74.72560588458155
 20
-75.76430498399297
 10
74.89975809620546
 20
-75.54039422509919
 10
75.07555833547863
 20
-75.31783252056329
 10
75.25277116987972
 20
-75.09642714833412
 10
75.43116116688745
 20
-74.87598538636055
 10
75.61049289398045
 20
-74.65631451259148
 10
75.79053091863742
 20
-74.43722180497578
 10
75.97103980833703
 20
-74.21851454146233
 10
76.15178413055797
 20
-74.0
 10
77.15178413055797
 20
-74.5
 10
73.15178413055797
 20
-86.4
 10
74.05178413055796
 20
-142.0
 10
68.05178413055796
 20
-142.0
  0
LINE
  5
11E
330
17
100
AcDbEntity
  8
HILO
100
AcDbLine
 10
71.05178413055796
 20
-88.4
 30
0.0
 11
71.05178413055796
 21
-139.0
 31
0.0
  0
LINE
  5
11F
330
17
100
AcDbEntity
  8
HILO
100
AcDbLine
 10
71.05178413055796
 20
-139.0
 30
0.0
 11
71.51908614132834
 21
-137.89472680719655
 31
0.0
  0
LINE
  5
120
330
17
100
AcDbEntity
  8
HILO
100
AcDbLine
 10
71.05178413055796
 20
-139.0
 30
0.0
 11
70.58448211978758
 21
-137.89472680719655
 31
0.0
  0
LINE
  5
121
330
17
100
AcDbEntity
  8
HILO
100
AcDbLine
 10
71.05178413055796
 20
-88.4
 30
0.0
 11
70.58448211978758
 21
-89.50527319280346
 31
0.0
  0
LINE
  5
122
330
17
100
AcDbEntity
  8
HILO
100
AcDbLine
 10
71.05178413055796
 20
-88.4
 30
0.0
 11
71.51908614132834
 21
-89.50527319280346
 31
0.0
  0
TEXT
  5
123
330
17
100
AcDbEntity
  8
TEXTOS
100
AcDbText
 10
71.06437397980758
 20
-107.95431250814462
 30
0.0
 40
0.9
  1
VISTA DELANTERA
 72
1
 11
71.06437397980758
 21
-107.95431250814462
 31
0.0
100
AcDbText
 73
2
  0
TEXT
  5
124
330
17
100
AcDbEntity
  8
TEXTOS
100
AcDbText
 10
71.06437397980758
 20
-109.35431250814463
 30
0.0
 40
0.6
  1
Pieza N.09
 72
1
 11
71.06437397980758
 21
-109.35431250814463
 31
0.0
100
AcDbText
 73
2
  0
TEXT
  5
125
330
17
100
AcDbEntity
  8
TEXTOS
100
AcDbText
 10
71.06437397980758
 20
-110.75431250814462
 30
0.0
 40
0.6
  1
Talla: S
 72
1
 11
71.06437397980758
 21
-110.75431250814462
 31
0.0
100
AcDbText
 73
2
  0
TEXT
  5
126
330
17
100
AcDbEntity
  8
TEXTOS
100
AcDbText
 10
71.06437397980758
 20
-112.15431250814463
 30
0.0
 40
0.6
  1
Cortar: 2  (par: izq + der)
 72
1
 11
71.06437397980758
 21
-112.15431250814463
 31
0.0
100
AcDbText
 73
2
  0
LWPOLYLINE
  5
127
330
17
100
AcDbEntity
  8
CORTE
100
AcDbPolyline
 90
6
 70
1
 10
82.15178413055796
 20
-84.271905
 10
89.15178413055796
 20
-88.681905
 10
96.15178413055796
 20
-84.271905
 10
96.15178413055796
 20
-73.0
 10
82.15178413055796
 20
-73.0
 10
82.15178413055796
 20
-84.271905
  0
LWPOLYLINE
  5
128
330
17
100
AcDbEntity
  8
COSTURA
100
AcDbPolyline
 90
5
 70
1
 10
83.15178413055796
 20
-74.0
 10
95.15178413055796
 20
-74.0
 10
95.15178413055796
 20
-83.72
 10
89.15178413055796
 20
-87.5
 10
83.15178413055796
 20
-83.72
  0
LINE
  5
129
330
17
100
AcDbEntity
  8
HILO
100
AcDbLine
 10
89.15178413055796
 20
-75.0
 30
0.0
 11
89.15178413055796
 21
-83.72
 31
0.0
  0
LINE
  5
12A
330
17
100
AcDbEntity
  8
HILO
100
AcDbLine
 10
89.15178413055796
 20
-83.72
 30
0.0
 11
89.61908614132834
 21
-82.61472680719653
 31
0.0
  0
LINE
  5
12B
330
17
100
AcDbEntity
  8
HILO
100
AcDbLine
 10
89.15178413055796
 20
-83.72
 30
0.0
 11
88.68448211978757
 21
-82.61472680719653
 31
0.0
  0
LINE
  5
12C
330
17
100
AcDbEntity
  8
HILO
100
AcDbLine
 10
89.15178413055796
 20
-75.0
 30
0.0
 11
88.68448211978757
 21
-76.10527319280347
 31
0.0
  0
LINE
  5
12D
330
17
100
AcDbEntity
  8
HILO
100
AcDbLine
 10
89.15178413055796
 20
-75.0
 30
0.0
 11
89.61908614132834
 21
-76.10527319280347
 31
0.0
  0
LINE
  5
12E
330
17
100
AcDbEntity
  8
CONSTRUCCION
100
AcDbLine
 10
83.15178413055796
 20
-81.22
 30
0.0
 11
95.15178413055796
 21
-81.22
 31
0.0
  0
TEXT
  5
12F
330
17
100
AcDbEntity
  8
REFERENCIAS
100
AcDbText
 10
89.15178413055796
 20
-75.5
 30
0.0
 40
0.5
  1
boca
 11
89.15178413055796
 21
-75.5
 31
0.0
100
AcDbText
  0
TEXT
  5
130
330
17
100
AcDbEntity
  8
TEXTOS
100
AcDbText
 10
89.15178413055796
 20
-77.15627906976744
 30
0.0
 40
0.9
  1
BOLSILLO
 72
1
 11
89.15178413055796
 21
-77.15627906976744
 31
0.0
100
AcDbText
 73
2
  0
TEXT
  5
131
330
17
100
AcDbEntity
  8
TEXTOS
100
AcDbText
 10
89.15178413055796
 20
-78.55627906976744
 30
0.0
 40
0.6
  1
Pieza N.10
 72
1
 11
89.15178413055796
 21
-78.55627906976744
 31
0.0
100
AcDbText
 73
2
  0
TEXT
  5
132
330
17
100
AcDbEntity
  8
TEXTOS
100
AcDbText
 10
89.15178413055796
 20
-79.95627906976745
 30
0.0
 40
0.6
  1
Talla: S
 72
1
 11
89.15178413055796
 21
-79.95627906976745
 31
0.0
100
AcDbText
 73
2
  0
TEXT
  5
133
330
17
100
AcDbEntity
  8
TEXTOS
100
AcDbText
 10
89.15178413055796
 20
-81.35627906976744
 30
0.0
 40
0.6
  1
Cortar: 1  (1 (opcional))
 72
1
 11
89.15178413055796
 21
-81.35627906976744
 31
0.0
100
AcDbText
 73
2
  0
ENDSEC
  0
SECTION
  2
OBJECTS
  0
DICTIONARY
  5
A
330
0
100
AcDbDictionary
281
1
  3
ACAD_COLOR
350
B
  3
ACAD_GROUP
350
C
  3
ACAD_LAYOUT
350
D
  3
ACAD_MATERIAL
350
E
  3
ACAD_MLEADERSTYLE
350
F
  3
ACAD_MLINESTYLE
350
10
  3
ACAD_PLOTSETTINGS
350
11
  3
ACAD_PLOTSTYLENAME
350
12
  3
ACAD_SCALELIST
350
14
  3
ACAD_TABLESTYLE
350
15
  3
ACAD_VISUALSTYLE
350
16
  3
EZDXF_META
350
2D
  0
DICTIONARY
  5
B
330
A
100
AcDbDictionary
281
1
  0
DICTIONARY
  5
C
330
A
100
AcDbDictionary
281
1
  0
DICTIONARY
  5
D
330
A
100
AcDbDictionary
281
1
  3
Model
350
1A
  3
Layout1
350
1E
  0
DICTIONARY
  5
E
330
A
100
AcDbDictionary
281
1
  3
ByBlock
350
1F
  3
ByLayer
350
20
  3
Global
350
21
  0
DICTIONARY
  5
F
330
A
100
AcDbDictionary
281
1
  3
Standard
350
2C
  0
DICTIONARY
  5
10
330
A
100
AcDbDictionary
281
1
  3
Standard
350
22
  0
DICTIONARY
  5
11
330
A
100
AcDbDictionary
281
1
  0
ACDBDICTIONARYWDFLT
  5
12
330
A
100
AcDbDictionary
281
1
  3
Normal
350
13
100
AcDbDictionaryWithDefault
340
13
  0
ACDBPLACEHOLDER
  5
13
330
12
  0
DICTIONARY
  5
14
330
A
100
AcDbDictionary
281
1
  0
DICTIONARY
  5
15
330
A
100
AcDbDictionary
281
1
  0
DICTIONARY
  5
16
330
A
100
AcDbDictionary
281
1
  3
2dWireframe
350
5A
  3
Basic
350
5B
  3
Brighten
350
5C
  3
ColorChange
350
5D
  3
Conceptual
350
5E
  3
Dim
350
5F
  3
EdgeColorOff
350
60
  3
Facepattern
350
61
  3
Flat
350
62
  3
FlatWithEdges
350
63
  3
Gouraud
350
64
  3
GouraudWithEdges
350
65
  3
Hidden
350
66
  3
JitterOff
350
67
  3
Linepattern
350
68
  3
Modeling
350
69
  3
OverhangOff
350
6A
  3
Realistic
350
6B
  3
Shaded
350
6C
  3
Shaded with edges
350
6D
  3
Shades of Gray
350
6E
  3
Sketchy
350
6F
  3
Thicken
350
70
  3
Wireframe
350
71
  3
X-Ray
350
72
  0
LAYOUT
  5
1A
330
D
100
AcDbPlotSettings
  1

  4
A3
  6

 40
7.5
 41
20.0
 42
7.5
 43
20.0
 44
420.0
 45
297.0
 46
0.0
 47
0.0
 48
0.0
 49
0.0
140
0.0
141
0.0
142
1.0
143
1.0
 70
1024
 72
1
 73
0
 74
5
  7

 75
16
 76
0
 77
2
 78
300
147
1.0
148
0.0
149
0.0
100
AcDbLayout
  1
Model
 70
1
 71
0
 10
0.0
 20
0.0
 11
420.0
 21
297.0
 12
0.0
 22
0.0
 32
0.0
 14
1e+20
 24
1e+20
 34
1e+20
 15
-1e+20
 25
-1e+20
 35
-1e+20
146
0.0
 13
0.0
 23
0.0
 33
0.0
 16
1.0
 26
0.0
 36
0.0
 17
0.0
 27
1.0
 37
0.0
 76
1
330
17
  0
LAYOUT
  5
1E
330
D
100
AcDbPlotSettings
  1

  4
A3
  6

 40
7.5
 41
20.0
 42
7.5
 43
20.0
 44
420.0
 45
297.0
 46
0.0
 47
0.0
 48
0.0
 49
0.0
140
0.0
141
0.0
142
1.0
143
1.0
 70
0
 72
1
 73
0
 74
5
  7

 75
16
 76
0
 77
2
 78
300
147
1.0
148
0.0
149
0.0
100
AcDbLayout
  1
Layout1
 70
1
 71
1
 10
0.0
 20
0.0
 11
420.0
 21
297.0
 12
0.0
 22
0.0
 32
0.0
 14
1e+20
 24
1e+20
 34
1e+20
 15
-1e+20
 25
-1e+20
 35
-1e+20
146
0.0
 13
0.0
 23
0.0
 33
0.0
 16
1.0
 26
0.0
 36
0.0
 17
0.0
 27
1.0
 37
0.0
 76
1
330
1B
  0
MATERIAL
  5
1F
102
{ACAD_REACTORS
330
E
102
}
330
E
100
AcDbMaterial
  1
ByBlock
  2

 70
0
 40
1.0
 71
1
 41
1.0
 91
-1023410177
 42
1.0
 72
1
  3

 73
1
 74
1
 75
1
 44
0.5
 73
0
 45
1.0
 46
1.0
 77
1
  4

 78
1
 79
1
170
1
 48
1.0
171
1
  6

172
1
173
1
174
1
140
1.0
141
1.0
175
1
  7

176
1
177
1
178
1
143
1.0
179
1
  8

270
1
271
1
272
1
145
1.0
146
1.0
273
1
  9

274
1
275
1
276
1
 42
1.0
 72
1
  3

 73
1
 74
1
 75
1
 94
63
  0
MATERIAL
  5
20
102
{ACAD_REACTORS
330
E
102
}
330
E
100
AcDbMaterial
  1
ByLayer
  2

 70
0
 40
1.0
 71
1
 41
1.0
 91
-1023410177
 42
1.0
 72
1
  3

 73
1
 74
1
 75
1
 44
0.5
 73
0
 45
1.0
 46
1.0
 77
1
  4

 78
1
 79
1
170
1
 48
1.0
171
1
  6

172
1
173
1
174
1
140
1.0
141
1.0
175
1
  7

176
1
177
1
178
1
143
1.0
179
1
  8

270
1
271
1
272
1
145
1.0
146
1.0
273
1
  9

274
1
275
1
276
1
 42
1.0
 72
1
  3

 73
1
 74
1
 75
1
 94
63
  0
MATERIAL
  5
21
102
{ACAD_REACTORS
330
E
102
}
330
E
100
AcDbMaterial
  1
Global
  2

 70
0
 40
1.0
 71
1
 41
1.0
 91
-1023410177
 42
1.0
 72
1
  3

 73
1
 74
1
 75
1
 44
0.5
 73
0
 45
1.0
 46
1.0
 77
1
  4

 78
1
 79
1
170
1
 48
1.0
171
1
  6

172
1
173
1
174
1
140
1.0
141
1.0
175
1
  7

176
1
177
1
178
1
143
1.0
179
1
  8

270
1
271
1
272
1
145
1.0
146
1.0
273
1
  9

274
1
275
1
276
1
 42
1.0
 72
1
  3

 73
1
 74
1
 75
1
 94
63
  0
MLINESTYLE
  5
22
102
{ACAD_REACTORS
330
10
102
}
330
10
100
AcDbMlineStyle
  2
Standard
 70
0
  3

 62
256
 51
90.0
 52
90.0
 71
2
 49
0.5
 62
256
  6
BYLAYER
 49
-0.5
 62
256
  6
BYLAYER
  0
MLEADERSTYLE
  5
2C
102
{ACAD_REACTORS
330
F
102
}
330
F
100
AcDbMLeaderStyle
179
2
170
2
171
1
172
0
 90
2
 40
0.0
 41
0.0
173
1
 91
-1056964608
 92
-2
290
1
 42
2.0
291
1
 43
8.0
  3
Standard
 44
4.0
300

342
29
174
1
175
1
176
0
178
1
 93
-1056964608
 45
4.0
292
0
297
0
 46
4.0
 94
-1056964608
 47
1.0
 49
1.0
140
1.0
294
1
141
0.0
177
0
142
1.0
295
0
296
0
143
3.75
271
0
272
9
273
9
  0
DICTIONARY
  5
2D
330
A
100
AcDbDictionary
280
1
281
1
  3
CREATED_BY_EZDXF
350
2E
  3
WRITTEN_BY_EZDXF
350
136
  0
DICTIONARYVAR
  5
2E
330
2D
100
DictionaryVariables
280
0
  1
1.4.4 @ 2026-07-13T21:09:07.599836+00:00
  0
VISUALSTYLE
  5
5A
102
{ACAD_REACTORS
330
16
102
}
330
16
100
AcDbVisualStyle
  2
2dWireframe
 70
4
177
3
291
0
 70
58
 90
2
176
1
 90
2
176
1
 90
0
176
1
 90
0
176
1
 40
0.6
176
1
 40
30.0
176
1
 62
7
420
16777215
176
1
 90
1
176
1
 90
4
176
1
 62
7
176
1
 62
257
176
1
 90
1
176
1
 90
1
176
1
 40
1.0
176
1
 90
8
176
1
 62
7
176
1
 40
1.0
176
1
 90
1
176
1
 90
6
176
1
 90
2
176
1
 62
7
176
1
 90
5
176
1
 90
0
176
1
 90
0
176
1
290
0
176
1
 90
1
176
1
 40
0.0
176
1
 90
0
176
1
290
1
176
1
290
1
176
1
290
0
176
1
290
0
176
1
290
0
176
1
290
0
176
1
290
0
176
1
290
0
176
1
290
0
176
1
 90
50
176
1
 40
0.0
176
1
 40
1.0
176
1
 90
0
176
1
 62
18
420
0
176
1
 90
50
176
1
 90
3
176
1
 62
5
420
255
176
1
290
0
176
1
 90
50
176
1
 90
50
176
1
 90
50
176
1
290
0
176
1
 90
50
176
1
 62
256
176
0
 40
1.0
176
0
 90
2
176
1
  1
strokes_ogs.tif
176
1
290
0
176
1
 40
1.0
176
1
 40
1.0
176
1
  0
VISUALSTYLE
  5
5B
102
{ACAD_REACTORS
330
16
102
}
330
16
100
AcDbVisualStyle
  2
Basic
 70
7
177
3
291
1
 70
58
 90
2
176
1
 90
2
176
1
 90
0
176
1
 90
1
176
1
 40
0.6
176
1
 40
30.0
176
1
 62
7
420
16777215
176
1
 90
1
176
1
 90
4
176
1
 62
7
176
1
 62
257
176
1
 90
1
176
1
 90
1
176
1
 40
1.0
176
1
 90
8
176
1
 62
7
176
1
 40
1.0
176
1
 90
1
176
1
 90
6
176
1
 90
2
176
1
 62
7
176
1
 90
5
176
1
 90
0
176
1
 90
0
176
1
290
0
176
1
 90
1
176
1
 40
0.0
176
1
 90
0
176
1
290
0
176
1
290
1
176
1
290
1
176
1
290
0
176
1
290
0
176
1
290
0
176
1
290
0
176
1
290
0
176
1
290
0
176
1
 90
50
176
1
 40
0.0
176
1
 40
1.0
176
1
 90
0
176
1
 62
18
420
0
176
1
 90
50
176
1
 90
3
176
1
 62
5
420
255
176
1
290
0
176
1
 90
50
176
1
 90
50
176
1
 90
50
176
1
290
0
176
1
 90
50
176
1
 62
256
176
0
 40
1.0
176
0
 90
2
176
1
  1
strokes_ogs.tif
176
1
290
0
176
1
 40
1.0
176
1
 40
1.0
176
1
  0
VISUALSTYLE
  5
5C
102
{ACAD_REACTORS
330
16
102
}
330
16
100
AcDbVisualStyle
  2
Brighten
 70
12
177
3
291
1
 70
58
 90
2
176
1
 90
2
176
1
 90
0
176
1
 90
2
176
1
 40
0.6
176
1
 40
30.0
176
1
 62
7
420
16777215
176
1
 90
1
176
1
 90
4
176
1
 62
7
176
1
 62
257
176
1
 90
1
176
1
 90
1
176
1
 40
1.0
176
1
 90
8
176
1
 62
7
176
1
 40
1.0
176
1
 90
1
176
1
 90
6
176
1
 90
2
176
1
 62
7
176
1
 90
5
176
1
 90
0
176
1
 90
0
176
1
290
0
176
1
 90
1
176
1
 40
0.0
176
1
 90
0
176
1
290
0
176
1
290
1
176
1
290
1
176
1
290
0
176
1
290
0
176
1
290
0
176
1
290
0
176
1
290
0
176
1
290
0
176
1
 90
50
176
1
 40
0.0
176
1
 40
1.0
176
1
 90
0
176
1
 62
18
420
0
176
1
 90
50
176
1
 90
3
176
1
 62
5
420
255
176
1
290
0
176
1
 90
50
176
1
 90
50
176
1
 90
50
176
1
290
0
176
1
 90
50
176
1
 62
256
176
0
 40
1.0
176
0
 90
2
176
1
  1
strokes_ogs.tif
176
1
290
0
176
1
 40
1.0
176
1
 40
1.0
176
1
  0
VISUALSTYLE
  5
5D
102
{ACAD_REACTORS
330
16
102
}
330
16
100
AcDbVisualStyle
  2
ColorChange
 70
16
177
3
291
1
 70
58
 90
2
176
1
 90
2
176
1
 90
0
176
1
 90
2
176
1
 40
0.6
176
1
 40
30.0
176
1
 62
7
420
16777215
176
1
 90
1
176
1
 90
4
176
1
 62
7
176
1
 62
257
176
1
 90
1
176
1
 90
1
176
1
 40
1.0
176
1
 90
8
176
1
 62
7
176
1
 40
1.0
176
1
 90
1
176
1
 90
6
176
1
 90
2
176
1
 62
7
176
1
 90
5
176
1
 90
0
176
1
 90
0
176
1
290
0
176
1
 90
1
176
1
 40
0.0
176
1
 90
0
176
1
290
0
176
1
290
1
176
1
290
1
176
1
290
0
176
1
290
0
176
1
290
0
176
1
290
0
176
1
290
0
176
1
290
0
176
1
 90
50
176
1
 40
0.0
176
1
 40
1.0
176
1
 90
0
176
1
 62
18
420
0
176
1
 90
50
176
1
 90
3
176
1
 62
5
420
255
176
1
290
0
176
1
 90
50
176
1
 90
50
176
1
 90
50
176
1
290
0
176
1
 90
50
176
1
 62
256
176
0
 40
1.0
176
0
 90
2
176
1
  1
strokes_ogs.tif
176
1
290
0
176
1
 40
1.0
176
1
 40
1.0
176
1
  0
VISUALSTYLE
  5
5E
102
{ACAD_REACTORS
330
16
102
}
330
16
100
AcDbVisualStyle
  2
Conceptual
 70
9
177
3
291
0
 70
58
 90
2
176
1
 90
2
176
1
 90
0
176
1
 90
3
176
1
 40
0.6
176
1
 40
30.0
176
1
 62
7
420
16777215
176
1
 90
1
176
1
 90
4
176
1
 62
7
176
1
 62
257
176
1
 90
1
176
1
 90
1
176
1
 40
1.0
176
1
 90
8
176
1
 62
7
176
1
 40
1.0
176
1
 90
1
176
1
 90
6
176
1
 90
2
176
1
 62
7
176
1
 90
5
176
1
 90
0
176
1
 90
0
176
1
290
0
176
1
 90
1
176
1
 40
0.0
176
1
 90
0
176
1
290
0
176
1
290
1
176
1
290
1
176
1
290
0
176
1
290
0
176
1
290
0
176
1
290
0
176
1
290
0
176
1
290
0
176
1
 90
50
176
1
 40
0.0
176
1
 40
1.0
176
1
 90
0
176
1
 62
18
420
0
176
1
 90
50
176
1
 90
3
176
1
 62
5
420
255
176
1
290
0
176
1
 90
50
176
1
 90
50
176
1
 90
50
176
1
290
0
176
1
 90
50
176
1
 62
256
176
0
 40
1.0
176
0
 90
2
176
1
  1
strokes_ogs.tif
176
1
290
0
176
1
 40
1.0
176
1
 40
1.0
176
1
  0
VISUALSTYLE
  5
5F
102
{ACAD_REACTORS
330
16
102
}
330
16
100
AcDbVisualStyle
  2
Dim
 70
11
177
3
291
1
 70
58
 90
2
176
1
 90
2
176
1
 90
0
176
1
 90
2
176
1
 40
0.6
176
1
 40
30.0
176
1
 62
7
420
16777215
176
1
 90
1
176
1
 90
4
176
1
 62
7
176
1
 62
257
176
1
 90
1
176
1
 90
1
176
1
 40
1.0
176
1
 90
8
176
1
 62
7
176
1
 40
1.0
176
1
 90
1
176
1
 90
6
176
1
 90
2
176
1
 62
7
176
1
 90
5
176
1
 90
0
176
1
 90
0
176
1
290
0
176
1
 90
1
176
1
 40
0.0
176
1
 90
0
176
1
290
0
176
1
290
1
176
1
290
1
176
1
290
0
176
1
290
0
176
1
290
0
176
1
290
0
176
1
290
0
176
1
290
0
176
1
 90
50
176
1
 40
0.0
176
1
 40
1.0
176
1
 90
0
176
1
 62
18
420
0
176
1
 90
50
176
1
 90
3
176
1
 62
5
420
255
176
1
290
0
176
1
 90
50
176
1
 90
50
176
1
 90
50
176
1
290
0
176
1
 90
50
176
1
 62
256
176
0
 40
1.0
176
0
 90
2
176
1
  1
strokes_ogs.tif
176
1
290
0
176
1
 40
1.0
176
1
 40
1.0
176
1
  0
VISUALSTYLE
  5
60
102
{ACAD_REACTORS
330
16
102
}
330
16
100
AcDbVisualStyle
  2
EdgeColorOff
 70
22
177
3
291
1
 70
58
 90
2
176
1
 90
2
176
1
 90
0
176
1
 90
2
176
1
 40
0.6
176
1
 40
30.0
176
1
 62
7
420
16777215
176
1
 90
1
176
1
 90
4
176
1
 62
7
176
1
 62
257
176
1
 90
1
176
1
 90
1
176
1
 40
1.0
176
1
 90
8
176
1
 62
7
176
1
 40
1.0
176
1
 90
1
176
1
 90
6
176
1
 90
2
176
1
 62
7
176
1
 90
5
176
1
 90
0
176
1
 90
0
176
1
290
0
176
1
 90
1
176
1
 40
0.0
176
1
 90
0
176
1
290
0
176
1
290
1
176
1
290
1
176
1
290
0
176
1
290
0
176
1
290
0
176
1
290
0
176
1
290
0
176
1
290
0
176
1
 90
50
176
1
 40
0.0
176
1
 40
1.0
176
1
 90
0
176
1
 62
18
420
0
176
1
 90
50
176
1
 90
3
176
1
 62
5
420
255
176
1
290
0
176
1
 90
50
176
1
 90
50
176
1
 90
50
176
1
290
0
176
1
 90
50
176
1
 62
256
176
0
 40
1.0
176
0
 90
2
176
1
  1
strokes_ogs.tif
176
1
290
0
176
1
 40
1.0
176
1
 40
1.0
176
1
  0
VISUALSTYLE
  5
61
102
{ACAD_REACTORS
330
16
102
}
330
16
100
AcDbVisualStyle
  2
Facepattern
 70
15
177
3
291
1
 70
58
 90
2
176
1
 90
2
176
1
 90
0
176
1
 90
2
176
1
 40
0.6
176
1
 40
30.0
176
1
 62
7
420
16777215
176
1
 90
1
176
1
 90
4
176
1
 62
7
176
1
 62
257
176
1
 90
1
176
1
 90
1
176
1
 40
1.0
176
1
 90
8
176
1
 62
7
176
1
 40
1.0
176
1
 90
1
176
1
 90
6
176
1
 90
2
176
1
 62
7
176
1
 90
5
176
1
 90
0
176
1
 90
0
176
1
290
0
176
1
 90
1
176
1
 40
0.0
176
1
 90
0
176
1
290
0
176
1
290
1
176
1
290
1
176
1
290
0
176
1
290
0
176
1
290
0
176
1
290
0
176
1
290
0
176
1
290
0
176
1
 90
50
176
1
 40
0.0
176
1
 40
1.0
176
1
 90
0
176
1
 62
18
420
0
176
1
 90
50
176
1
 90
3
176
1
 62
5
420
255
176
1
290
0
176
1
 90
50
176
1
 90
50
176
1
 90
50
176
1
290
0
176
1
 90
50
176
1
 62
256
176
0
 40
1.0
176
0
 90
2
176
1
  1
strokes_ogs.tif
176
1
290
0
176
1
 40
1.0
176
1
 40
1.0
176
1
  0
VISUALSTYLE
  5
62
102
{ACAD_REACTORS
330
16
102
}
330
16
100
AcDbVisualStyle
  2
Flat
 70
0
177
3
291
1
 70
58
 90
2
176
1
 90
2
176
1
 90
0
176
1
 90
2
176
1
 40
0.6
176
1
 40
30.0
176
1
 62
7
420
16777215
176
1
 90
1
176
1
 90
4
176
1
 62
7
176
1
 62
257
176
1
 90
1
176
1
 90
1
176
1
 40
1.0
176
1
 90
8
176
1
 62
7
176
1
 40
1.0
176
1
 90
1
176
1
 90
6
176
1
 90
2
176
1
 62
7
176
1
 90
5
176
1
 90
0
176
1
 90
0
176
1
290
0
176
1
 90
1
176
1
 40
0.0
176
1
 90
0
176
1
290
0
176
1
290
1
176
1
290
1
176
1
290
0
176
1
290
0
176
1
290
0
176
1
290
0
176
1
290
0
176
1
290
0
176
1
 90
50
176
1
 40
0.0
176
1
 40
1.0
176
1
 90
0
176
1
 62
18
420
0
176
1
 90
50
176
1
 90
3
176
1
 62
5
420
255
176
1
290
0
176
1
 90
50
176
1
 90
50
176
1
 90
50
176
1
290
0
176
1
 90
50
176
1
 62
256
176
0
 40
1.0
176
0
 90
2
176
1
  1
strokes_ogs.tif
176
1
290
0
176
1
 40
1.0
176
1
 40
1.0
176
1
  0
VISUALSTYLE
  5
63
102
{ACAD_REACTORS
330
16
102
}
330
16
100
AcDbVisualStyle
  2
FlatWithEdges
 70
1
177
3
291
1
 70
58
 90
2
176
1
 90
2
176
1
 90
0
176
1
 90
2
176
1
 40
0.6
176
1
 40
30.0
176
1
 62
7
420
16777215
176
1
 90
1
176
1
 90
4
176
1
 62
7
176
1
 62
257
176
1
 90
1
176
1
 90
1
176
1
 40
1.0
176
1
 90
8
176
1
 62
7
176
1
 40
1.0
176
1
 90
1
176
1
 90
6
176
1
 90
2
176
1
 62
7
176
1
 90
5
176
1
 90
0
176
1
 90
0
176
1
290
0
176
1
 90
1
176
1
 40
0.0
176
1
 90
0
176
1
290
0
176
1
290
1
176
1
290
1
176
1
290
0
176
1
290
0
176
1
290
0
176
1
290
0
176
1
290
0
176
1
290
0
176
1
 90
50
176
1
 40
0.0
176
1
 40
1.0
176
1
 90
0
176
1
 62
18
420
0
176
1
 90
50
176
1
 90
3
176
1
 62
5
420
255
176
1
290
0
176
1
 90
50
176
1
 90
50
176
1
 90
50
176
1
290
0
176
1
 90
50
176
1
 62
256
176
0
 40
1.0
176
0
 90
2
176
1
  1
strokes_ogs.tif
176
1
290
0
176
1
 40
1.0
176
1
 40
1.0
176
1
  0
VISUALSTYLE
  5
64
102
{ACAD_REACTORS
330
16
102
}
330
16
100
AcDbVisualStyle
  2
Gouraud
 70
2
177
3
291
1
 70
58
 90
2
176
1
 90
2
176
1
 90
0
176
1
 90
2
176
1
 40
0.6
176
1
 40
30.0
176
1
 62
7
420
16777215
176
1
 90
1
176
1
 90
4
176
1
 62
7
176
1
 62
257
176
1
 90
1
176
1
 90
1
176
1
 40
1.0
176
1
 90
8
176
1
 62
7
176
1
 40
1.0
176
1
 90
1
176
1
 90
6
176
1
 90
2
176
1
 62
7
176
1
 90
5
176
1
 90
0
176
1
 90
0
176
1
290
0
176
1
 90
1
176
1
 40
0.0
176
1
 90
0
176
1
290
0
176
1
290
1
176
1
290
1
176
1
290
0
176
1
290
0
176
1
290
0
176
1
290
0
176
1
290
0
176
1
290
0
176
1
 90
50
176
1
 40
0.0
176
1
 40
1.0
176
1
 90
0
176
1
 62
18
420
0
176
1
 90
50
176
1
 90
3
176
1
 62
5
420
255
176
1
290
0
176
1
 90
50
176
1
 90
50
176
1
 90
50
176
1
290
0
176
1
 90
50
176
1
 62
256
176
0
 40
1.0
176
0
 90
2
176
1
  1
strokes_ogs.tif
176
1
290
0
176
1
 40
1.0
176
1
 40
1.0
176
1
  0
VISUALSTYLE
  5
65
102
{ACAD_REACTORS
330
16
102
}
330
16
100
AcDbVisualStyle
  2
GouraudWithEdges
 70
3
177
3
291
1
 70
58
 90
2
176
1
 90
2
176
1
 90
0
176
1
 90
2
176
1
 40
0.6
176
1
 40
30.0
176
1
 62
7
420
16777215
176
1
 90
1
176
1
 90
4
176
1
 62
7
176
1
 62
257
176
1
 90
1
176
1
 90
1
176
1
 40
1.0
176
1
 90
8
176
1
 62
7
176
1
 40
1.0
176
1
 90
1
176
1
 90
6
176
1
 90
2
176
1
 62
7
176
1
 90
5
176
1
 90
0
176
1
 90
0
176
1
290
0
176
1
 90
1
176
1
 40
0.0
176
1
 90
0
176
1
290
0
176
1
290
1
176
1
290
1
176
1
290
0
176
1
290
0
176
1
290
0
176
1
290
0
176
1
290
0
176
1
290
0
176
1
 90
50
176
1
 40
0.0
176
1
 40
1.0
176
1
 90
0
176
1
 62
18
420
0
176
1
 90
50
176
1
 90
3
176
1
 62
5
420
255
176
1
290
0
176
1
 90
50
176
1
 90
50
176
1
 90
50
176
1
290
0
176
1
 90
50
176
1
 62
256
176
0
 40
1.0
176
0
 90
2
176
1
  1
strokes_ogs.tif
176
1
290
0
176
1
 40
1.0
176
1
 40
1.0
176
1
  0
VISUALSTYLE
  5
66
102
{ACAD_REACTORS
330
16
102
}
330
16
100
AcDbVisualStyle
  2
Hidden
 70
6
177
3
291
0
 70
58
 90
2
176
1
 90
2
176
1
 90
0
176
1
 90
1
176
1
 40
0.6
176
1
 40
30.0
176
1
 62
7
420
16777215
176
1
 90
1
176
1
 90
4
176
1
 62
7
176
1
 62
257
176
1
 90
1
176
1
 90
1
176
1
 40
1.0
176
1
 90
8
176
1
 62
7
176
1
 40
1.0
176
1
 90
1
176
1
 90
6
176
1
 90
2
176
1
 62
7
176
1
 90
5
176
1
 90
0
176
1
 90
0
176
1
290
0
176
1
 90
1
176
1
 40
0.0
176
1
 90
0
176
1
290
0
176
1
290
1
176
1
290
1
176
1
290
0
176
1
290
0
176
1
290
0
176
1
290
0
176
1
290
0
176
1
290
0
176
1
 90
50
176
1
 40
0.0
176
1
 40
1.0
176
1
 90
0
176
1
 62
18
420
0
176
1
 90
50
176
1
 90
3
176
1
 62
5
420
255
176
1
290
0
176
1
 90
50
176
1
 90
50
176
1
 90
50
176
1
290
0
176
1
 90
50
176
1
 62
256
176
0
 40
1.0
176
0
 90
2
176
1
  1
strokes_ogs.tif
176
1
290
0
176
1
 40
1.0
176
1
 40
1.0
176
1
  0
VISUALSTYLE
  5
67
102
{ACAD_REACTORS
330
16
102
}
330
16
100
AcDbVisualStyle
  2
JitterOff
 70
20
177
3
291
1
 70
58
 90
2
176
1
 90
2
176
1
 90
0
176
1
 90
2
176
1
 40
0.6
176
1
 40
30.0
176
1
 62
7
420
16777215
176
1
 90
1
176
1
 90
4
176
1
 62
7
176
1
 62
257
176
1
 90
1
176
1
 90
1
176
1
 40
1.0
176
1
 90
8
176
1
 62
7
176
1
 40
1.0
176
1
 90
1
176
1
 90
6
176
1
 90
2
176
1
 62
7
176
1
 90
5
176
1
 90
0
176
1
 90
0
176
1
290
0
176
1
 90
1
176
1
 40
0.0
176
1
 90
0
176
1
290
0
176
1
290
1
176
1
290
1
176
1
290
0
176
1
290
0
176
1
290
0
176
1
290
0
176
1
290
0
176
1
290
0
176
1
 90
50
176
1
 40
0.0
176
1
 40
1.0
176
1
 90
0
176
1
 62
18
420
0
176
1
 90
50
176
1
 90
3
176
1
 62
5
420
255
176
1
290
0
176
1
 90
50
176
1
 90
50
176
1
 90
50
176
1
290
0
176
1
 90
50
176
1
 62
256
176
0
 40
1.0
176
0
 90
2
176
1
  1
strokes_ogs.tif
176
1
290
0
176
1
 40
1.0
176
1
 40
1.0
176
1
  0
VISUALSTYLE
  5
68
102
{ACAD_REACTORS
330
16
102
}
330
16
100
AcDbVisualStyle
  2
Linepattern
 70
14
177
3
291
1
 70
58
 90
2
176
1
 90
2
176
1
 90
0
176
1
 90
2
176
1
 40
0.6
176
1
 40
30.0
176
1
 62
7
420
16777215
176
1
 90
1
176
1
 90
4
176
1
 62
7
176
1
 62
257
176
1
 90
1
176
1
 90
1
176
1
 40
1.0
176
1
 90
8
176
1
 62
7
176
1
 40
1.0
176
1
 90
1
176
1
 90
6
176
1
 90
2
176
1
 62
7
176
1
 90
5
176
1
 90
0
176
1
 90
0
176
1
290
0
176
1
 90
1
176
1
 40
0.0
176
1
 90
0
176
1
290
0
176
1
290
1
176
1
290
1
176
1
290
0
176
1
290
0
176
1
290
0
176
1
290
0
176
1
290
0
176
1
290
0
176
1
 90
50
176
1
 40
0.0
176
1
 40
1.0
176
1
 90
0
176
1
 62
18
420
0
176
1
 90
50
176
1
 90
3
176
1
 62
5
420
255
176
1
290
0
176
1
 90
50
176
1
 90
50
176
1
 90
50
176
1
290
0
176
1
 90
50
176
1
 62
256
176
0
 40
1.0
176
0
 90
2
176
1
  1
strokes_ogs.tif
176
1
290
0
176
1
 40
1.0
176
1
 40
1.0
176
1
  0
VISUALSTYLE
  5
69
102
{ACAD_REACTORS
330
16
102
}
330
16
100
AcDbVisualStyle
  2
Modeling
 70
10
177
3
291
0
 70
58
 90
2
176
1
 90
2
176
1
 90
0
176
1
 90
2
176
1
 40
0.6
176
1
 40
30.0
176
1
 62
7
420
16777215
176
1
 90
1
176
1
 90
4
176
1
 62
7
176
1
 62
257
176
1
 90
1
176
1
 90
1
176
1
 40
1.0
176
1
 90
8
176
1
 62
7
176
1
 40
1.0
176
1
 90
1
176
1
 90
6
176
1
 90
2
176
1
 62
7
176
1
 90
5
176
1
 90
0
176
1
 90
0
176
1
290
0
176
1
 90
1
176
1
 40
0.0
176
1
 90
0
176
1
290
0
176
1
290
1
176
1
290
1
176
1
290
0
176
1
290
0
176
1
290
0
176
1
290
0
176
1
290
0
176
1
290
0
176
1
 90
50
176
1
 40
0.0
176
1
 40
1.0
176
1
 90
0
176
1
 62
18
420
0
176
1
 90
50
176
1
 90
3
176
1
 62
5
420
255
176
1
290
0
176
1
 90
50
176
1
 90
50
176
1
 90
50
176
1
290
0
176
1
 90
50
176
1
 62
256
176
0
 40
1.0
176
0
 90
2
176
1
  1
strokes_ogs.tif
176
1
290
0
176
1
 40
1.0
176
1
 40
1.0
176
1
  0
VISUALSTYLE
  5
6A
102
{ACAD_REACTORS
330
16
102
}
330
16
100
AcDbVisualStyle
  2
OverhangOff
 70
21
177
3
291
1
 70
58
 90
2
176
1
 90
2
176
1
 90
0
176
1
 90
2
176
1
 40
0.6
176
1
 40
30.0
176
1
 62
7
420
16777215
176
1
 90
1
176
1
 90
4
176
1
 62
7
176
1
 62
257
176
1
 90
1
176
1
 90
1
176
1
 40
1.0
176
1
 90
8
176
1
 62
7
176
1
 40
1.0
176
1
 90
1
176
1
 90
6
176
1
 90
2
176
1
 62
7
176
1
 90
5
176
1
 90
0
176
1
 90
0
176
1
290
0
176
1
 90
1
176
1
 40
0.0
176
1
 90
0
176
1
290
0
176
1
290
1
176
1
290
1
176
1
290
0
176
1
290
0
176
1
290
0
176
1
290
0
176
1
290
0
176
1
290
0
176
1
 90
50
176
1
 40
0.0
176
1
 40
1.0
176
1
 90
0
176
1
 62
18
420
0
176
1
 90
50
176
1
 90
3
176
1
 62
5
420
255
176
1
290
0
176
1
 90
50
176
1
 90
50
176
1
 90
50
176
1
290
0
176
1
 90
50
176
1
 62
256
176
0
 40
1.0
176
0
 90
2
176
1
  1
strokes_ogs.tif
176
1
290
0
176
1
 40
1.0
176
1
 40
1.0
176
1
  0
VISUALSTYLE
  5
6B
102
{ACAD_REACTORS
330
16
102
}
330
16
100
AcDbVisualStyle
  2
Realistic
 70
8
177
3
291
0
 70
58
 90
2
176
1
 90
2
176
1
 90
0
176
1
 90
2
176
1
 40
0.6
176
1
 40
30.0
176
1
 62
7
420
16777215
176
1
 90
1
176
1
 90
4
176
1
 62
7
176
1
 62
257
176
1
 90
1
176
1
 90
1
176
1
 40
1.0
176
1
 90
8
176
1
 62
7
176
1
 40
1.0
176
1
 90
1
176
1
 90
6
176
1
 90
2
176
1
 62
7
176
1
 90
5
176
1
 90
0
176
1
 90
0
176
1
290
0
176
1
 90
1
176
1
 40
0.0
176
1
 90
0
176
1
290
0
176
1
290
1
176
1
290
1
176
1
290
0
176
1
290
0
176
1
290
0
176
1
290
0
176
1
290
0
176
1
290
0
176
1
 90
50
176
1
 40
0.0
176
1
 40
1.0
176
1
 90
0
176
1
 62
18
420
0
176
1
 90
50
176
1
 90
3
176
1
 62
5
420
255
176
1
290
0
176
1
 90
50
176
1
 90
50
176
1
 90
50
176
1
290
0
176
1
 90
50
176
1
 62
256
176
0
 40
1.0
176
0
 90
2
176
1
  1
strokes_ogs.tif
176
1
290
0
176
1
 40
1.0
176
1
 40
1.0
176
1
  0
VISUALSTYLE
  5
6C
102
{ACAD_REACTORS
330
16
102
}
330
16
100
AcDbVisualStyle
  2
Shaded
 70
27
177
3
291
0
 70
58
 90
2
176
1
 90
2
176
1
 90
0
176
1
 90
2
176
1
 40
0.6
176
1
 40
30.0
176
1
 62
7
420
16777215
176
1
 90
1
176
1
 90
4
176
1
 62
7
176
1
 62
257
176
1
 90
1
176
1
 90
1
176
1
 40
1.0
176
1
 90
8
176
1
 62
7
176
1
 40
1.0
176
1
 90
1
176
1
 90
6
176
1
 90
2
176
1
 62
7
176
1
 90
5
176
1
 90
0
176
1
 90
0
176
1
290
0
176
1
 90
1
176
1
 40
0.0
176
1
 90
0
176
1
290
0
176
1
290
1
176
1
290
1
176
1
290
0
176
1
290
0
176
1
290
0
176
1
290
0
176
1
290
0
176
1
290
0
176
1
 90
50
176
1
 40
0.0
176
1
 40
1.0
176
1
 90
0
176
1
 62
18
420
0
176
1
 90
50
176
1
 90
3
176
1
 62
5
420
255
176
1
290
0
176
1
 90
50
176
1
 90
50
176
1
 90
50
176
1
290
0
176
1
 90
50
176
1
 62
256
176
0
 40
1.0
176
0
 90
2
176
1
  1
strokes_ogs.tif
176
1
290
0
176
1
 40
1.0
176
1
 40
1.0
176
1
  0
VISUALSTYLE
  5
6D
102
{ACAD_REACTORS
330
16
102
}
330
16
100
AcDbVisualStyle
  2
Shaded with edges
 70
26
177
3
291
0
 70
58
 90
2
176
1
 90
2
176
1
 90
0
176
1
 90
2
176
1
 40
0.6
176
1
 40
30.0
176
1
 62
7
420
16777215
176
1
 90
1
176
1
 90
4
176
1
 62
7
176
1
 62
257
176
1
 90
1
176
1
 90
1
176
1
 40
1.0
176
1
 90
8
176
1
 62
7
176
1
 40
1.0
176
1
 90
1
176
1
 90
6
176
1
 90
2
176
1
 62
7
176
1
 90
5
176
1
 90
0
176
1
 90
0
176
1
290
0
176
1
 90
1
176
1
 40
0.0
176
1
 90
0
176
1
290
0
176
1
290
1
176
1
290
1
176
1
290
0
176
1
290
0
176
1
290
0
176
1
290
0
176
1
290
0
176
1
290
0
176
1
 90
50
176
1
 40
0.0
176
1
 40
1.0
176
1
 90
0
176
1
 62
18
420
0
176
1
 90
50
176
1
 90
3
176
1
 62
5
420
255
176
1
290
0
176
1
 90
50
176
1
 90
50
176
1
 90
50
176
1
290
0
176
1
 90
50
176
1
 62
256
176
0
 40
1.0
176
0
 90
2
176
1
  1
strokes_ogs.tif
176
1
290
0
176
1
 40
1.0
176
1
 40
1.0
176
1
  0
VISUALSTYLE
  5
6E
102
{ACAD_REACTORS
330
16
102
}
330
16
100
AcDbVisualStyle
  2
Shades of Gray
 70
23
177
3
291
0
 70
58
 90
2
176
1
 90
2
176
1
 90
0
176
1
 90
2
176
1
 40
0.6
176
1
 40
30.0
176
1
 62
7
420
16777215
176
1
 90
1
176
1
 90
4
176
1
 62
7
176
1
 62
257
176
1
 90
1
176
1
 90
1
176
1
 40
1.0
176
1
 90
8
176
1
 62
7
176
1
 40
1.0
176
1
 90
1
176
1
 90
6
176
1
 90
2
176
1
 62
7
176
1
 90
5
176
1
 90
0
176
1
 90
0
176
1
290
0
176
1
 90
1
176
1
 40
0.0
176
1
 90
0
176
1
290
0
176
1
290
1
176
1
290
1
176
1
290
0
176
1
290
0
176
1
290
0
176
1
290
0
176
1
290
0
176
1
290
0
176
1
 90
50
176
1
 40
0.0
176
1
 40
1.0
176
1
 90
0
176
1
 62
18
420
0
176
1
 90
50
176
1
 90
3
176
1
 62
5
420
255
176
1
290
0
176
1
 90
50
176
1
 90
50
176
1
 90
50
176
1
290
0
176
1
 90
50
176
1
 62
256
176
0
 40
1.0
176
0
 90
2
176
1
  1
strokes_ogs.tif
176
1
290
0
176
1
 40
1.0
176
1
 40
1.0
176
1
  0
VISUALSTYLE
  5
6F
102
{ACAD_REACTORS
330
16
102
}
330
16
100
AcDbVisualStyle
  2
Sketchy
 70
24
177
3
291
0
 70
58
 90
2
176
1
 90
2
176
1
 90
0
176
1
 90
1
176
1
 40
0.6
176
1
 40
30.0
176
1
 62
7
420
16777215
176
1
 90
1
176
1
 90
4
176
1
 62
7
176
1
 62
257
176
1
 90
1
176
1
 90
1
176
1
 40
1.0
176
1
 90
8
176
1
 62
7
176
1
 40
1.0
176
1
 90
1
176
1
 90
6
176
1
 90
2
176
1
 62
7
176
1
 90
5
176
1
 90
0
176
1
 90
0
176
1
290
0
176
1
 90
1
176
1
 40
0.0
176
1
 90
0
176
1
290
0
176
1
290
1
176
1
290
1
176
1
290
0
176
1
290
0
176
1
290
0
176
1
290
0
176
1
290
0
176
1
290
0
176
1
 90
50
176
1
 40
0.0
176
1
 40
1.0
176
1
 90
0
176
1
 62
18
420
0
176
1
 90
50
176
1
 90
3
176
1
 62
5
420
255
176
1
290
0
176
1
 90
50
176
1
 90
50
176
1
 90
50
176
1
290
0
176
1
 90
50
176
1
 62
256
176
0
 40
1.0
176
0
 90
2
176
1
  1
strokes_ogs.tif
176
1
290
0
176
1
 40
1.0
176
1
 40
1.0
176
1
  0
VISUALSTYLE
  5
70
102
{ACAD_REACTORS
330
16
102
}
330
16
100
AcDbVisualStyle
  2
Thicken
 70
13
177
3
291
1
 70
58
 90
2
176
1
 90
2
176
1
 90
0
176
1
 90
2
176
1
 40
0.6
176
1
 40
30.0
176
1
 62
7
420
16777215
176
1
 90
1
176
1
 90
4
176
1
 62
7
176
1
 62
257
176
1
 90
1
176
1
 90
1
176
1
 40
1.0
176
1
 90
8
176
1
 62
7
176
1
 40
1.0
176
1
 90
1
176
1
 90
6
176
1
 90
2
176
1
 62
7
176
1
 90
5
176
1
 90
0
176
1
 90
0
176
1
290
0
176
1
 90
1
176
1
 40
0.0
176
1
 90
0
176
1
290
0
176
1
290
1
176
1
290
1
176
1
290
0
176
1
290
0
176
1
290
0
176
1
290
0
176
1
290
0
176
1
290
0
176
1
 90
50
176
1
 40
0.0
176
1
 40
1.0
176
1
 90
0
176
1
 62
18
420
0
176
1
 90
50
176
1
 90
3
176
1
 62
5
420
255
176
1
290
0
176
1
 90
50
176
1
 90
50
176
1
 90
50
176
1
290
0
176
1
 90
50
176
1
 62
256
176
0
 40
1.0
176
0
 90
2
176
1
  1
strokes_ogs.tif
176
1
290
0
176
1
 40
1.0
176
1
 40
1.0
176
1
  0
VISUALSTYLE
  5
71
102
{ACAD_REACTORS
330
16
102
}
330
16
100
AcDbVisualStyle
  2
Wireframe
 70
5
177
3
291
0
 70
58
 90
2
176
1
 90
2
176
1
 90
0
176
1
 90
0
176
1
 40
0.6
176
1
 40
30.0
176
1
 62
7
420
16777215
176
1
 90
1
176
1
 90
4
176
1
 62
7
176
1
 62
257
176
1
 90
1
176
1
 90
1
176
1
 40
1.0
176
1
 90
8
176
1
 62
7
176
1
 40
1.0
176
1
 90
1
176
1
 90
6
176
1
 90
2
176
1
 62
7
176
1
 90
5
176
1
 90
0
176
1
 90
0
176
1
290
0
176
1
 90
1
176
1
 40
0.0
176
1
 90
0
176
1
290
0
176
1
290
1
176
1
290
1
176
1
290
0
176
1
290
0
176
1
290
0
176
1
290
0
176
1
290
0
176
1
290
0
176
1
 90
50
176
1
 40
0.0
176
1
 40
1.0
176
1
 90
0
176
1
 62
18
420
0
176
1
 90
50
176
1
 90
3
176
1
 62
5
420
255
176
1
290
0
176
1
 90
50
176
1
 90
50
176
1
 90
50
176
1
290
0
176
1
 90
50
176
1
 62
256
176
0
 40
1.0
176
0
 90
2
176
1
  1
strokes_ogs.tif
176
1
290
0
176
1
 40
1.0
176
1
 40
1.0
176
1
  0
VISUALSTYLE
  5
72
102
{ACAD_REACTORS
330
16
102
}
330
16
100
AcDbVisualStyle
  2
X-Ray
 70
25
177
3
291
0
 70
58
 90
2
176
1
 90
2
176
1
 90
0
176
1
 90
2
176
1
 40
0.5
176
1
 40
30.0
176
1
 62
7
420
16777215
176
1
 90
1
176
1
 90
4
176
1
 62
7
176
1
 62
257
176
1
 90
1
176
1
 90
1
176
1
 40
1.0
176
1
 90
8
176
1
 62
7
176
1
 40
1.0
176
1
 90
1
176
1
 90
6
176
1
 90
2
176
1
 62
7
176
1
 90
5
176
1
 90
0
176
1
 90
0
176
1
290
0
176
1
 90
1
176
1
 40
0.0
176
1
 90
0
176
1
290
0
176
1
290
1
176
1
290
1
176
1
290
0
176
1
290
0
176
1
290
0
176
1
290
0
176
1
290
0
176
1
290
0
176
1
 90
50
176
1
 40
0.0
176
1
 40
1.0
176
1
 90
0
176
1
 62
18
420
0
176
1
 90
50
176
1
 90
3
176
1
 62
5
420
255
176
1
290
0
176
1
 90
50
176
1
 90
50
176
1
 90
50
176
1
290
0
176
1
 90
50
176
1
 62
256
176
0
 40
1.0
176
0
 90
2
176
1
  1
strokes_ogs.tif
176
1
290
0
176
1
 40
1.0
176
1
 40
1.0
176
1
  0
DICTIONARYVAR
  5
136
330
2D
100
DictionaryVariables
280
0
  1
1.4.4 @ 2026-07-13T21:09:07.619933+00:00
  0
ENDSEC
  0
EOF
