<?xml version="1.0" encoding="utf-8" ?>
<svg baseProfile="full" height="162.261798cm" version="1.1" viewBox="0 0 158.0 162.261798" width="158.0cm" xmlns="http://www.w3.org/2000/svg" xmlns:ev="http://www.w3.org/2001/xml-events" xmlns:xlink="http://www.w3.org/1999/xlink"><defs /><rect fill="#f7f3ea" height="154.261798" stroke="#333" stroke-width="0.15" width="150.0" x="4.0" y="4.0" /><text fill="#000" font-family="sans-serif" font-size="1.4" x="4.0" y="3.0">PLANO DE CORTE — ancho 150 cm — largo 1.54 m</text><polygon fill="#cfe3f7" fill-opacity="0.5" points="4.0,74.258387 12.0151,74.258387 11.169121,17.814655 15.391589,5.252814 12.885961,4.0 12.198679,4.870719 12.01522,5.103651 11.831602,5.337806 11.648078,5.573383 11.464904,5.81058 11.282339,6.049601 11.100645,6.290647 10.920087,6.533925 10.740933,6.7796389999999995 10.563456,7.027995 10.387932,7.2792010000000005 10.21464,7.533462 10.043864,7.790984 9.876067,8.051697 9.712398,8.314032000000001 9.553241,8.575612 9.397873,8.835246999999999 9.245347,9.092185 9.09476,9.345690999999999 8.945255,9.595037 8.796016999999999,9.83951 8.646275,10.078413000000001 8.495299,10.311073 8.342397,10.536846 8.186907,10.755134 8.028192,10.965392 7.865598,11.167168 7.697407,11.361333 7.520795,11.550932 7.3346350000000005,11.738449 7.139519,11.9246 6.93625,12.109977 6.7257,12.295203 6.508787,12.480943 6.0110410000000005,12.899560000000001 5.869394,13.658387000000001 4.0,13.658387000000001 4.0,74.258387" stroke="#1f6fb2" stroke-width="0.1" /><text fill="#0a3d62" font-family="sans-serif" font-size="1.6" text-anchor="middle" x="9.6957945" y="39.1291935">09</text><polygon fill="#cfe3f7" fill-opacity="0.5" points="16.391589,74.258387 24.406689,74.258387 23.56071,17.814655 27.783178,5.252814 25.277549999999998,4.0 24.590268000000002,4.870719 24.406809,5.103651 24.223191,5.337806 24.039667,5.573383 23.856493,5.81058 23.673928,6.049601 23.492234,6.290647 23.311676,6.533925 23.132522,6.7796389999999995 22.955045,7.027995 22.779521,7.2792010000000005 22.606229,7.533462 22.435453,7.790984 22.267656000000002,8.051697 22.103987,8.314032000000001 21.94483,8.575612 21.789462,8.835246999999999 21.636936,9.092185 21.486349,9.345690999999999 21.336844,9.595037 21.187606,9.83951 21.037864,10.078413000000001 20.886888,10.311073 20.733986,10.536846 20.578496,10.755134 20.419781,10.965392 20.257187000000002,11.167168 20.088996,11.361333 19.912384,11.550932 19.726224,11.738449 19.531108,11.9246 19.327839,12.109977 19.117289,12.295203 18.900376,12.480943 18.40263,12.899560000000001 18.260983,13.658387000000001 16.391589,13.658387000000001 16.391589,74.258387" stroke="#1f6fb2" stroke-width="0.1" /><text fill="#0a3d62" font-family="sans-serif" font-size="1.6" text-anchor="middle" x="22.0873835" y="39.1291935">09</text><polygon fill="#cfe3f7" fill-opacity="0.5" points="28.783178,74.225075 56.483177999999995,74.225075 56.483177999999995,26.175006 55.946315,25.50218 55.627055,25.102854 55.305425,24.70214 54.98099,24.300291 54.653020999999995,23.897194 54.320789,23.492739 53.983568,23.086822 53.640631,22.679347 53.291287999999994,22.270251000000002 52.935856,21.860566 52.577703,21.452337 52.221599999999995,21.046302999999998 51.871275,20.641983 51.53039,20.238976 51.202591999999996,19.837046 50.89149,19.436118999999998 50.600612999999996,19.036285 50.333346,18.637787000000003 50.092858,18.240989 49.882003,17.8463 49.703227,17.454039 49.558497,17.064222 49.44892,16.674818000000002 49.373654,16.278377 49.329941,15.868069 49.316055,15.442393000000001 49.330439,15.001503 49.371347,14.546087 49.436762,14.077172000000001 49.524390999999994,13.595958 49.63169499999999,13.103698 49.755933,12.601625 49.894211,12.090901 50.043513,11.572599 50.200739999999996,11.047684 50.622811999999996,9.664922 37.642845,4.0 36.981857,4.837407 36.798398,5.070339 36.614779999999996,5.304494 36.431256,5.540071 36.248082,5.777267999999999 36.065517,6.016289 35.883823,6.257334999999999 35.703265,6.5006129999999995 35.524111,6.746327 35.346634,6.994683 35.17111,7.245889 34.997818,7.50015 34.827042,7.7576719999999995 34.659245,8.018385 34.495576,8.28072 34.336419,8.542300000000001 34.181051,8.801935 34.028525,9.058873 33.877938,9.312379 33.728432999999995,9.561725 33.579195,9.806198 33.429453,10.045101 33.278477,10.277761 33.125575,10.503534 32.970085,10.721822 32.81137,10.93208 32.648776,11.133856 32.480585,11.328021 32.303973,11.517619999999999 32.117813,11.705137 31.922697,11.891288 31.719428,12.076665 31.508878,12.261891 31.291965,12.447631 30.794219,12.866248 30.652572,13.625075 28.783178,13.625075 28.783178,74.225075" stroke="#1f6fb2" stroke-width="0.1" /><text fill="#0a3d62" font-family="sans-serif" font-size="1.6" text-anchor="middle" x="42.633178" y="39.1125375">01</text><polygon fill="#cfe3f7" fill-opacity="0.5" points="57.483177999999995,74.225075 85.183178,74.225075 85.183178,26.175006 84.64631499999999,25.50218 84.327055,25.102854 84.005425,24.70214 83.68099,24.300291 83.353021,23.897194 83.020789,23.492739 82.683568,23.086822 82.340631,22.679347 81.991288,22.270251000000002 81.63585599999999,21.860566 81.277703,21.452337 80.9216,21.046302999999998 80.57127499999999,20.641983 80.23039,20.238976 79.902592,19.837046 79.59149,19.436118999999998 79.300613,19.036285 79.033346,18.637787000000003 78.792858,18.240989 78.58200299999999,17.8463 78.40322699999999,17.454039 78.25849699999999,17.064222 78.14891999999999,16.674818000000002 78.07365399999999,16.278377 78.029941,15.868069 78.016055,15.442393000000001 78.030439,15.001503 78.071347,14.546087 78.13676199999999,14.077172000000001 78.224391,13.595958 78.331695,13.103698 78.45593299999999,12.601625 78.594211,12.090901 78.743513,11.572599 78.90074,11.047684 79.322812,9.664922 66.342845,4.0 65.681857,4.837407 65.498398,5.070339 65.31478,5.304494 65.131256,5.540071 64.948082,5.777267999999999 64.76551699999999,6.016289 64.583823,6.257334999999999 64.40326499999999,6.5006129999999995 64.224111,6.746327 64.046634,6.994683 63.871109999999994,7.245889 63.697818,7.50015 63.527041999999994,7.7576719999999995 63.359244999999994,8.018385 63.195575999999996,8.28072 63.036418999999995,8.542300000000001 62.881051,8.801935 62.728525,9.058873 62.577937999999996,9.312379 62.428433,9.561725 62.279194999999994,9.806198 62.129453,10.045101 61.978477,10.277761 61.82557499999999,10.503534 61.67008499999999,10.721822 61.51137,10.93208 61.348775999999994,11.133856 61.180584999999994,11.328021 61.003972999999995,11.517619999999999 60.817812999999994,11.705137 60.622696999999995,11.891288 60.419427999999996,12.076665 60.208878,12.261891 59.99196499999999,12.447631 59.494218999999994,12.866248 59.352571999999995,13.625075 57.483177999999995,13.625075 57.483177999999995,74.225075" stroke="#1f6fb2" stroke-width="0.1" /><text fill="#0a3d62" font-family="sans-serif" font-size="1.6" text-anchor="middle" x="71.33317799999999" y="39.1125375">01</text><polygon fill="#cfe3f7" fill-opacity="0.5" points="90.572672,66.003411 116.412756,66.003411 120.810946,13.287859 120.054587,12.543371 119.625812,12.126264 119.18829,11.710567999999999 118.740363,11.299833 118.28292400000001,10.898276 117.81832800000001,10.507265 117.347444,10.126183000000001 116.870856,9.754178 116.389138,9.390394 115.902852,9.033975 115.412549,8.684069000000001 114.91877,8.339827 114.42201399999999,8.00038 113.921726,7.664221 113.415692,7.330588 112.90205499999999,7.001126 112.38007,6.678403 111.849012,6.365069 111.308125,6.063823 110.756635,5.777426 110.193763,5.508713 109.618755,5.26061 109.030975,5.036158 108.432002,4.839095 107.826884,4.670922 107.219719,4.528758 106.61193399999999,4.408714 106.004668,4.306945 105.398972,4.219705 104.79585900000001,4.143359 104.19632899999999,4.074377 103.51602,4.0 102.82451,4.043241 102.214231,4.084713 101.600343,4.133121 100.98370800000001,4.191903 100.365183,4.2646 99.74565799999999,4.354851 99.126082,4.466398 98.50752299999999,4.603074 97.89248599999999,4.7684239999999996 97.286056,4.963269 96.691336,5.184368 96.108223,5.42875 95.536123,5.693656 94.974394,5.976411000000001 94.422375,6.274411 93.8794,6.585119 93.344819,6.906052 92.818009,7.234771 92.29808,7.56906 91.782273,7.908525 91.268912,8.255982 90.759233,8.614131 90.255443,8.985118 89.759807,9.371144000000001 89.274668,9.774448 88.802465,10.197292000000001 88.345764,10.641923 87.90755300000001,11.110237 87.49398,11.599540000000001 87.107454,12.099317000000001 86.742924,12.59985 86.183178,13.392078 90.572672,66.003411" stroke="#1f6fb2" stroke-width="0.1" /><text fill="#0a3d62" font-family="sans-serif" font-size="1.6" text-anchor="middle" x="103.497062" y="35.0017055">04</text><polygon fill="#cfe3f7" fill-opacity="0.5" points="8.389494000000001,137.261798 34.229578000000004,137.261798 38.627768,84.546246 37.871409,83.801758 37.442634,83.384651 37.005112000000004,82.968955 36.557185000000004,82.55822 36.099746,82.156663 35.63515,81.765652 35.164266,81.38457 34.687678000000005,81.012565 34.205960000000005,80.648781 33.719674,80.292362 33.229371,79.94245599999999 32.735592000000004,79.598214 32.238836,79.258767 31.738548,78.922608 31.232514000000002,78.588975 30.718877,78.259513 30.196892000000002,77.93679 29.665834000000004,77.623456 29.124947000000002,77.32221 28.573457,77.035813 28.010585000000003,76.7671 27.435577000000002,76.518997 26.847797,76.294545 26.248824000000003,76.097482 25.643706,75.929309 25.036541,75.787145 24.428756,75.667101 23.82149,75.565332 23.215794000000002,75.478092 22.612681000000002,75.401746 22.013151,75.332764 21.332842000000003,75.258387 20.641332000000002,75.301628 20.031053,75.34309999999999 19.417165,75.391508 18.800530000000002,75.45029 18.182005000000004,75.522987 17.56248,75.613238 16.942904000000002,75.724785 16.324345,75.861461 15.709308,76.026811 15.102878,76.221656 14.508158000000002,76.442755 13.925045,76.68713699999999 13.352945000000002,76.952043 12.791216000000002,77.234798 12.239197,77.532798 11.696222,77.843506 11.161641000000001,78.164439 10.634831000000002,78.493158 10.114902,78.827447 9.599095000000002,79.166912 9.085734000000002,79.514369 8.576055000000002,79.872518 8.072265000000002,80.243505 7.5766290000000005,80.629531 7.091490000000002,81.032835 6.619287000000002,81.455679 6.162586000000001,81.90031 5.724375000000002,82.368624 5.310802000000001,82.857927 4.9242760000000025,83.357704 4.5597460000000005,83.858237 4.0,84.650465 8.389494000000001,137.261798" stroke="#1f6fb2" stroke-width="0.1" /><text fill="#0a3d62" font-family="sans-serif" font-size="1.6" text-anchor="middle" x="21.313884" y="106.2600925">04</text><polygon fill="#cfe3f7" fill-opacity="0.5" points="89.627768,87.27494 89.21592100000001,86.60681199999999 88.952937,86.179948 88.69008,85.752826 88.42735,85.325212 88.164744,84.896874 87.90226200000001,84.467577 87.63990100000001,84.037086 87.377658,83.60516799999999 87.115553,83.171625 86.854007,82.736837 86.594495,82.301638 86.33878,81.866348 86.088356,81.430861 85.844701,80.995088 85.60927600000001,80.558962 85.38352,80.122437 85.168851,79.685484 84.966654,79.248086 84.778277,78.810232 84.60503,78.371905 84.448172,77.933073 84.308913,77.49367 84.188412,77.053578 84.087567,76.611673 84.006129,76.16474099999999 83.87902600000001,75.258387 64.627768,75.258387 64.627768,135.258387 89.627768,135.258387 89.627768,87.27494 39.627768,87.27494 40.039615000000005,86.60681199999999 40.302599,86.179948 40.565456000000005,85.752826 40.828186,85.325212 41.09079200000001,84.896874 41.353274,84.467577 41.615635000000005,84.037086 41.877878,83.60516799999999 42.139983,83.171625 42.401529000000004,82.736837 42.661041000000004,82.301638 42.91675600000001,81.866348 43.16718,81.430861 43.410835000000006,80.995088 43.64626,80.558962 43.872016,80.122437 44.086685,79.685484 44.288882,79.248086 44.477259000000004,78.810232 44.65050600000001,78.371905 44.80736400000001,77.933073 44.946623,77.49367 45.06712400000001,77.053578 45.167969,76.611673 45.249407000000005,76.16474099999999 45.37651,75.258387 64.627768,75.258387 64.627768,135.258387 39.627768,135.258387 39.627768,87.27494" stroke="#1f6fb2" stroke-width="0.1" /><text fill="#0a3d62" font-family="sans-serif" font-size="1.6" text-anchor="middle" x="64.627768" y="105.258387">02</text><polygon fill="#cfe3f7" fill-opacity="0.5" points="90.627768,86.530292 97.627768,90.940292 104.627768,86.530292 104.627768,75.258387 90.627768,75.258387 90.627768,86.530292" stroke="#1f6fb2" stroke-width="0.1" /><text fill="#0a3d62" font-family="sans-serif" font-size="1.6" text-anchor="middle" x="97.627768" y="83.0993395">10</text><polygon fill="#cfe3f7" fill-opacity="0.5" points="105.627768,87.507514 105.65760900000001,87.810494 105.760315,88.149069 105.92710000000001,88.461102 106.151554,88.734601 106.425053,88.959055 106.737086,89.12584 107.075661,89.228546 107.378641,89.258387 128.876895,89.258387 129.179875,89.228546 129.51845,89.12584 129.83048300000002,88.959055 130.103982,88.734601 130.328436,88.461102 130.49522100000002,88.149069 130.597927,87.810494 130.627768,87.507514 130.627768,77.00926 130.597927,76.70627999999999 130.49522100000002,76.367705 130.328436,76.055672 130.103982,75.782173 129.83048300000002,75.557719 129.51845,75.390934 129.179875,75.288228 128.876895,75.258387 107.378641,75.258387 107.075661,75.288228 106.737086,75.390934 106.425053,75.557719 106.151554,75.782173 105.92710000000001,76.055672 105.760315,76.367705 105.65760900000001,76.70627999999999 105.627768,77.00926 105.627768,87.507514" stroke="#1f6fb2" stroke-width="0.1" /><text fill="#0a3d62" font-family="sans-serif" font-size="1.6" text-anchor="middle" x="118.127768" y="82.258387">05</text><polygon fill="#cfe3f7" fill-opacity="0.5" points="4.0,150.510925 4.029841,150.813905 4.132547,151.15248 4.299332,151.464513 4.523786,151.738012 4.7972850000000005,151.962466 5.109318,152.129251 5.4478930000000005,152.231957 5.750873,152.261798 27.249127,152.261798 27.552107,152.231957 27.890682,152.129251 28.202715,151.962466 28.476214,151.738012 28.700668,151.464513 28.867453,151.15248 28.970159,150.813905 29.0,150.510925 29.0,140.012671 28.970159,139.709691 28.867453,139.371116 28.700668,139.059083 28.476214,138.785584 28.202715,138.56113 27.890682,138.394345 27.552107,138.291639 27.249127,138.261798 5.750873,138.261798 5.4478930000000005,138.291639 5.109318,138.394345 4.7972850000000005,138.56113 4.523786,138.785584 4.299332,139.059083 4.132547,139.371116 4.029841,139.709691 4.0,140.012671 4.0,150.510925" stroke="#1f6fb2" stroke-width="0.1" /><text fill="#0a3d62" font-family="sans-serif" font-size="1.6" text-anchor="middle" x="16.5" y="145.261798">05</text><polygon fill="#cfe3f7" fill-opacity="0.5" points="68.846382,148.842311 68.798972,148.380562 68.766452,147.911632 68.74737400000001,147.43587 68.740241,146.953675 68.743509,146.465473 68.755584,145.971707 68.77482499999999,145.47282 68.79955100000001,144.969249 68.82803799999999,144.46141599999999 68.90199,143.220338 56.051764000000006,138.261798 55.421453,138.71819 55.23398,138.85268299999998 55.048972,138.982961 54.865930000000006,139.108277 54.684380000000004,139.227939 54.503853,139.341317 54.323333000000005,139.448172 54.140859,139.549078 53.955345,139.644596 53.766947,139.734625 53.575976,139.818987 53.382745,139.897511 53.187568999999996,139.970034 52.990761,140.036398 52.792635000000004,140.096456 52.593506000000005,140.150068 52.393609,140.197118 52.192283,140.237706 51.988202,140.272328 51.780783,140.30149 51.570014,140.325597 51.355924,140.345068 51.138569000000004,140.360337 50.918023000000005,140.371857 50.694373,140.380104 50.467716,140.38557 50.238149,140.388772 50.005773000000005,140.390244 49.770687,140.390544 49.531728,140.390244 49.531728,150.390245 69.063456,150.390245 68.846382,148.842311 30.217074,148.842311 30.264484,148.380562 30.297004,147.911632 30.316082,147.43587 30.323215,146.953675 30.319947000000003,146.465473 30.307872,145.971707 30.288631000000002,145.47282 30.263905,144.969249 30.235418000000003,144.46141599999999 30.161466,143.220338 43.011692,138.261798 43.642003,138.71819 43.829476,138.85268299999998 44.014484,138.982961 44.197525999999996,139.108277 44.379076,139.227939 44.559603,139.341317 44.740123,139.448172 44.922597,139.549078 45.108111,139.644596 45.296509,139.734625 45.487480000000005,139.818987 45.680711,139.897511 45.875887,139.970034 46.072695,140.036398 46.270821,140.096456 46.46995,140.150068 46.669847000000004,140.197118 46.871173,140.237706 47.075254,140.272328 47.282673,140.30149 47.493442,140.325597 47.707532,140.345068 47.924887,140.360337 48.145433,140.371857 48.369083,140.380104 48.59574,140.38557 48.825307,140.388772 49.057683,140.390244 49.292769,140.390544 49.531728,140.390244 49.531728,150.390245 30.0,150.390245 30.217074,148.842311" stroke="#1f6fb2" stroke-width="0.1" /><text fill="#0a3d62" font-family="sans-serif" font-size="1.6" text-anchor="middle" x="49.531728" y="144.3260215">03</text><polygon fill="#cfe3f7" fill-opacity="0.5" points="91.129788,145.130376 91.584544,145.219971 92.039366,145.304459 92.494251,145.383837 92.949196,145.458103 93.40419800000001,145.527257 93.859252,145.591295 94.314356,145.650217 94.76950500000001,145.70401999999999 95.224695,145.752704 95.679923,145.796266 96.13518400000001,145.834707 96.590475,145.868024 97.04579100000001,145.896217 97.501128,145.919285 97.956483,145.937228 98.41185,145.950044 98.867226,145.957734 99.32260600000001,145.960298 99.777986,145.957734 100.233362,145.950044 100.688729,145.937228 101.14408399999999,145.919285 101.599421,145.896217 102.054737,145.868024 102.510028,145.834707 102.96529000000001,145.796266 103.420517,145.752704 103.875708,145.70401999999999 104.33085600000001,145.650217 104.78596,145.591295 105.241014,145.527257 105.696016,145.458103 106.150961,145.383837 106.605846,145.304459 107.060669,145.219971 107.515424,145.130376 107.715879,145.088626 109.761624,148.498201 110.81684200000001,148.099218 109.000703,138.261798 107.55177,138.579888 107.118211,138.670188 106.684721,138.755593 106.251297,138.836105 105.817937,138.91172699999998 105.384636,138.982461 104.951392,139.048307 104.518201,139.109269 104.085059,139.165347 103.651962,139.216544 103.218906,139.26286 102.785888,139.304298 102.352904,139.340857 101.919949,139.37254 101.487019,139.399347 101.054111,139.421279 100.62122,139.438336 100.188342,139.45052 99.755472,139.45783 99.32260600000001,139.460266 98.88974,139.45783 98.456871,139.45052 98.02399199999999,139.438336 97.59110100000001,139.421279 97.158193,139.399347 96.725263,139.37254 96.292308,139.340857 95.859324,139.304298 95.42630600000001,139.26286 94.993251,139.216544 94.560154,139.165347 94.12701100000001,139.109269 93.69382,139.048307 93.260576,138.982461 92.827275,138.91172699999998 92.39391499999999,138.836105 91.960491,138.755593 91.527001,138.670188 91.09344200000001,138.579888 90.440149,138.436468 90.440149,144.984096 90.67510200000001,145.035676 91.129788,145.130376 89.75051,145.130376 89.295754,145.219971 88.84093200000001,145.304459 88.386047,145.383837 87.93110200000001,145.458103 87.4761,145.527257 87.021046,145.591295 86.565942,145.650217 86.110793,145.70401999999999 85.655603,145.752704 85.20037500000001,145.796266 84.745114,145.834707 84.289823,145.868024 83.834507,145.896217 83.37917,145.919285 82.923815,145.937228 82.468448,145.950044 82.013072,145.957734 81.557692,145.960298 81.102312,145.957734 80.646936,145.950044 80.191569,145.937228 79.736214,145.919285 79.280877,145.896217 78.82556100000001,145.868024 78.37027,145.834707 77.915008,145.796266 77.459781,145.752704 77.00459000000001,145.70401999999999 76.549442,145.650217 76.09433800000001,145.591295 75.639284,145.527257 75.184282,145.458103 74.729337,145.383837 74.274452,145.304459 73.819629,145.219971 73.364874,145.130376 73.16441900000001,145.088626 71.118674,148.498201 70.063456,148.099218 71.879595,138.261798 73.328528,138.579888 73.76208700000001,138.670188 74.195577,138.755593 74.629001,138.836105 75.062361,138.91172699999998 75.495662,138.982461 75.928906,139.048307 76.362097,139.109269 76.79523900000001,139.165347 77.228336,139.216544 77.661392,139.26286 78.09441,139.304298 78.527394,139.340857 78.96034900000001,139.37254 79.393279,139.399347 79.826187,139.421279 80.259078,139.438336 80.691956,139.45052 81.124826,139.45783 81.557692,139.460266 81.99055800000001,139.45783 82.423427,139.45052 82.856306,139.438336 83.289197,139.421279 83.722105,139.399347 84.155035,139.37254 84.58799,139.340857 85.020974,139.304298 85.453992,139.26286 85.887047,139.216544 86.320144,139.165347 86.753287,139.109269 87.186478,139.048307 87.619722,138.982461 88.053023,138.91172699999998 88.486383,138.836105 88.919807,138.755593 89.353297,138.670188 89.786856,138.579888 90.440149,138.436468 90.440149,144.984096 90.205196,145.035676 89.75051,145.130376" stroke="#1f6fb2" stroke-width="0.1" /><text fill="#0a3d62" font-family="sans-serif" font-size="1.6" text-anchor="middle" x="90.440149" y="143.3799995">07</text><polygon fill="#cfe3f7" fill-opacity="0.5" points="133.108638,143.57609 133.60323200000002,143.647237 134.09785300000001,143.71432099999998 134.592499,143.777344 135.08717000000001,143.836303 135.581863,143.891198 136.07657700000001,143.94203 136.571311,143.988796 137.06606200000002,144.031498 137.56083,144.070134 138.055613,144.104704 138.550409,144.135208 139.045217,144.161645 139.54003400000002,144.18401599999999 140.03486,144.202319 140.529692,144.216556 141.02453,144.226724 141.519371,144.232826 142.014213,144.234859 142.50905600000002,144.232826 143.003896,144.226724 143.498734,144.216556 143.99356600000002,144.202319 144.488392,144.18401599999999 144.98320900000002,144.161645 145.47801700000002,144.135208 145.972813,144.104704 146.46759600000001,144.070134 146.962364,144.031498 147.45711500000002,143.988796 147.951849,143.94203 148.44656300000003,143.891198 148.941256,143.836303 149.435927,143.777344 149.930573,143.71432099999998 150.425194,143.647237 150.919788,143.57609 151.414354,143.500882 152.74667,143.287327 152.74667,138.261798 151.10574100000002,138.52482 150.62706100000003,138.597612 150.14840900000002,138.666465 149.669784,138.731381 149.19118500000002,138.792358 148.71261,138.849399 148.234057,138.902504 147.755526,138.951672 147.277013,138.996906 146.798519,139.038204 146.320042,139.075568 145.84157900000002,139.10899799999999 145.36312900000001,139.138494 144.884691,139.16405699999999 144.40626300000002,139.185686 143.927843,139.203383 143.44943,139.21714599999999 142.971021,139.226978 142.492616,139.232876 142.014213,139.234843 141.53581,139.232876 141.05740500000002,139.226978 140.57899700000002,139.21714599999999 140.100583,139.203383 139.622163,139.185686 139.143735,139.16405699999999 138.665297,139.138494 138.186847,139.10899799999999 137.70838400000002,139.075568 137.229907,139.038204 136.751413,138.996906 136.27290100000002,138.951672 135.79436900000002,138.902504 135.315817,138.849399 134.837241,138.792358 134.358642,138.731381 133.880017,138.666465 133.401366,138.597612 132.922685,138.52482 132.281756,138.422086 132.281756,143.447616 132.61407200000002,143.500882 133.108638,143.57609 131.45487400000002,143.57609 130.96028,143.647237 130.46565900000002,143.71432099999998 129.971013,143.777344 129.47634200000002,143.836303 128.981649,143.891198 128.48693500000002,143.94203 127.99220100000001,143.988796 127.49745000000001,144.031498 127.00268200000001,144.070134 126.50789900000001,144.104704 126.013103,144.135208 125.51829500000001,144.161645 125.02347800000001,144.18401599999999 124.52865200000001,144.202319 124.03382,144.216556 123.538982,144.226724 123.04414100000001,144.232826 122.549299,144.234859 122.05445600000002,144.232826 121.559616,144.226724 121.064778,144.216556 120.56994600000002,144.202319 120.07512000000001,144.18401599999999 119.58030300000001,144.161645 119.08549500000001,144.135208 118.590699,144.104704 118.095916,144.070134 117.60114800000001,144.031498 117.10639700000002,143.988796 116.61166300000001,143.94203 116.116949,143.891198 115.62225600000001,143.836303 115.12758500000001,143.777344 114.63293900000001,143.71432099999998 114.13831800000001,143.647237 113.643724,143.57609 113.149158,143.500882 111.81684200000001,143.287327 111.81684200000001,138.261798 113.45777100000001,138.52482 113.936451,138.597612 114.41510300000002,138.666465 114.89372800000001,138.731381 115.37232700000001,138.792358 115.850902,138.849399 116.32945500000001,138.902504 116.80798600000001,138.951672 117.286499,138.996906 117.764993,139.038204 118.24347,139.075568 118.721933,139.10899799999999 119.20038300000002,139.138494 119.67882100000001,139.16405699999999 120.15724900000001,139.185686 120.63566900000001,139.203383 121.11408200000001,139.21714599999999 121.59249100000001,139.226978 122.070896,139.232876 122.549299,139.234843 123.027702,139.232876 123.50610700000001,139.226978 123.98451500000002,139.21714599999999 124.462929,139.203383 124.941349,139.185686 125.41977700000001,139.16405699999999 125.89821500000001,139.138494 126.376665,139.10899799999999 126.85512800000001,139.075568 127.333605,139.038204 127.812099,138.996906 128.290611,138.951672 128.769143,138.902504 129.24769500000002,138.849399 129.726271,138.792358 130.20487,138.731381 130.683495,138.666465 131.162146,138.597612 131.640827,138.52482 132.281756,138.422086 132.281756,143.447616 131.94944,143.500882 131.45487400000002,143.57609" stroke="#1f6fb2" stroke-width="0.1" /><text fill="#0a3d62" font-family="sans-serif" font-size="1.6" text-anchor="middle" x="132.281756" y="141.24832849999999">08</text><polygon fill="#cfe3f7" fill-opacity="0.5" points="4.0,156.910925 4.022155,157.135868 4.102098,157.399406 4.2319189999999995,157.642284 4.406629,157.855169 4.619514,158.029879 4.862392,158.1597 5.12593,158.239643 5.350873,158.261798 16.649127,158.261798 16.87407,158.239643 17.137608,158.1597 17.380485999999998,158.029879 17.593370999999998,157.855169 17.768081000000002,157.642284 17.897902000000002,157.399406 17.977845000000002,157.135868 18.0,156.910925 18.0,154.612671 17.977845000000002,154.387728 17.897902000000002,154.12419 17.768081000000002,153.881312 17.593370999999998,153.668427 17.380485999999998,153.493717 17.137608,153.363896 16.87407,153.283953 16.649127,153.261798 5.350873,153.261798 5.12593,153.283953 4.862392,153.363896 4.619514,153.493717 4.406629,153.668427 4.2319189999999995,153.881312 4.102098,154.12419 4.022155,154.387728 4.0,154.612671 4.0,156.910925" stroke="#1f6fb2" stroke-width="0.1" /><text fill="#0a3d62" font-family="sans-serif" font-size="1.6" text-anchor="middle" x="11.0" y="155.761798">06</text><polygon fill="#cfe3f7" fill-opacity="0.5" points="19.0,156.910925 19.022155,157.135868 19.102098,157.399406 19.231919,157.642284 19.406629,157.855169 19.619514,158.029879 19.862392,158.1597 20.12593,158.239643 20.350873,158.261798 31.649127,158.261798 31.87407,158.239643 32.137608,158.1597 32.380486,158.029879 32.593371,157.855169 32.768081,157.642284 32.897902,157.399406 32.977845,157.135868 33.0,156.910925 33.0,154.612671 32.977845,154.387728 32.897902,154.12419 32.768081,153.881312 32.593371,153.668427 32.380486,153.493717 32.137608,153.363896 31.87407,153.283953 31.649127,153.261798 20.350873,153.261798 20.12593,153.283953 19.862392,153.363896 19.619514,153.493717 19.406629,153.668427 19.231919,153.881312 19.102098,154.12419 19.022155,154.387728 19.0,154.612671 19.0,156.910925" stroke="#1f6fb2" stroke-width="0.1" /><text fill="#0a3d62" font-family="sans-serif" font-size="1.6" text-anchor="middle" x="26.0" y="155.761798">06</text></svg>