<?xml version="1.0" encoding="utf-8" ?>
<svg baseProfile="full" height="182.268701cm" version="1.1" viewBox="0 0 118.0 182.268701" width="118.0cm" xmlns="http://www.w3.org/2000/svg" xmlns:ev="http://www.w3.org/2001/xml-events" xmlns:xlink="http://www.w3.org/1999/xlink"><defs /><rect fill="#f7f3ea" height="174.268701" stroke="#333" stroke-width="0.15" width="110.0" x="4.0" y="4.0" /><text fill="#000" font-family="sans-serif" font-size="1.4" x="4.0" y="3.0">PLANO DE CORTE — ancho 110 cm — largo 1.74 m</text><polygon fill="#cfe3f7" fill-opacity="0.5" points="8.591990000000001,74.926526 34.420694,74.926526 39.018581999999995,23.644518 38.488288,22.525283 38.07033,21.653157 37.645578,20.786869000000003 37.211698,19.931785 36.767848,19.093776000000002 36.315259,18.274297 35.854755,17.4722 35.386967,16.685968000000003 34.912525,15.914074000000001 34.432054,15.154984 33.946172000000004,14.407153000000001 33.45549,13.669027000000002 32.960608,12.939045 32.461653999999996,12.214976 31.957257,11.494969000000001 31.445361,10.782161 30.924708000000003,10.081825 30.39403,9.399404 29.851858999999997,8.740310000000001 29.296483000000002,8.109954000000002 28.72589,7.513814000000001 28.13772,6.957536000000001 27.529253,6.447118000000001 26.89949,5.990615000000001 26.254075,5.595937000000001 25.601527,5.260578000000001 24.946578,4.9771090000000004 24.292762,4.737202000000002 23.642979,4.532317000000001 22.999579,4.353958 22.364493,4.193853000000001 21.555519,4.0 20.729856,4.115103000000001 20.081164,4.213248 19.423537,4.328476 18.758499,4.469102000000001 18.087927,4.643747000000001 17.414237,4.861204000000001 16.740542,5.130187000000001 16.070819,5.458946000000001 15.41262,5.852888 14.774101,6.307974000000001 14.156813,6.815099000000001 13.55827,7.367969 12.976069,7.9609570000000005 12.40813,8.588753 11.852687,9.246205 11.308236,9.928230000000001 10.773497,10.629752 10.247369,11.345677 9.728311,12.071697 9.21417,12.80771 8.70515,13.558587000000001 8.203362,14.32789 7.711202,15.118812 7.231109,15.934506 6.765552,16.778077000000003 6.317015,17.652578000000002 5.887982000000001,18.561006 5.481134000000001,19.505801 5.099622,20.48471 4.740784999999999,21.4863 4.398005999999999,22.499404 4.0,23.710304 8.591990000000001,74.926526" stroke="#1f6fb2" stroke-width="0.1" /><text fill="#0a3d62" font-family="sans-serif" font-size="1.6" text-anchor="middle" x="21.509290999999997" y="39.463263">04</text><polygon fill="#cfe3f7" fill-opacity="0.5" points="44.610572,74.926526 70.43927599999999,74.926526 75.03716399999999,23.644518 74.50686999999999,22.525283 74.088912,21.653157 73.66416,20.786869000000003 73.23028,19.931785 72.78643,19.093776000000002 72.33384099999999,18.274297 71.87333699999999,17.4722 71.405549,16.685968000000003 70.931107,15.914074000000001 70.450636,15.154984 69.964754,14.407153000000001 69.47407199999999,13.669027000000002 68.97918999999999,12.939045 68.48023599999999,12.214976 67.975839,11.494969000000001 67.463943,10.782161 66.94328999999999,10.081825 66.412612,9.399404 65.870441,8.740310000000001 65.315065,8.109954000000002 64.744472,7.513814000000001 64.156302,6.957536000000001 63.54783499999999,6.447118000000001 62.918071999999995,5.990615000000001 62.272656999999995,5.595937000000001 61.620109,5.260578000000001 60.96516,4.9771090000000004 60.31134399999999,4.737202000000002 59.66156099999999,4.532317000000001 59.01816099999999,4.353958 58.38307499999999,4.193853000000001 57.574101,4.0 56.74843799999999,4.115103000000001 56.099745999999996,4.213248 55.44211899999999,4.328476 54.777080999999995,4.469102000000001 54.106508999999996,4.643747000000001 53.432818999999995,4.861204000000001 52.759124,5.130187000000001 52.089400999999995,5.458946000000001 51.431202,5.852888 50.792683,6.307974000000001 50.175394999999995,6.815099000000001 49.576851999999995,7.367969 48.994651,7.9609570000000005 48.426711999999995,8.588753 47.871269,9.246205 47.326817999999996,9.928230000000001 46.792078999999994,10.629752 46.265950999999994,11.345677 45.74689299999999,12.071697 45.23275199999999,12.80771 44.723732,13.558587000000001 44.22194399999999,14.32789 43.729783999999995,15.118812 43.249691,15.934506 42.784133999999995,16.778077000000003 42.33559699999999,17.652578000000002 41.906563999999996,18.561006 41.49971599999999,19.505801 41.11820399999999,20.48471 40.759367,21.4863 40.41658799999999,22.499404 40.018581999999995,23.710304 44.610572,74.926526" stroke="#1f6fb2" stroke-width="0.1" /><text fill="#0a3d62" font-family="sans-serif" font-size="1.6" text-anchor="middle" x="57.52787299999999" y="39.463263">04</text><polygon fill="#cfe3f7" fill-opacity="0.5" points="76.03716399999999,74.267704 84.044384,74.267704 83.638341,17.827772 87.86208599999999,5.262131 85.337825,4.0 84.64171199999998,4.928368 84.445973,5.189983 84.25015799999998,5.452847 84.05454599999999,5.717166 83.85941999999999,5.98315 83.66506399999999,6.251011999999999 83.47176699999999,6.520965 83.27981999999999,6.793221 83.089519,7.067997 82.90115999999999,7.345508 82.71504599999999,7.6259689999999996 82.531483,7.909597 82.35077899999999,8.196606 82.17340599999999,8.486951000000001 82.00046699999999,8.779094 81.832242,9.070626 81.667914,9.360295 81.50643899999999,9.647313 81.34681699999999,9.930903 81.18809099999999,10.210297 81.02934799999998,10.484739000000001 80.869717,10.753489 80.708367,11.015827 80.54450499999999,11.271062 80.37736999999998,11.518545 80.206222,11.757678 80.03032499999999,11.987943000000001 79.84803299999999,12.210004 79.656568,12.426846 79.45481399999998,12.641195 79.24344199999999,12.853889 79.02337599999998,13.065588 78.79560599999999,13.27698 78.56117499999999,13.488792 78.35958899999999,13.667704 76.03716399999999,13.667704 76.03716399999999,74.267704" stroke="#1f6fb2" stroke-width="0.1" /><text fill="#0a3d62" font-family="sans-serif" font-size="1.6" text-anchor="middle" x="81.949625" y="39.133852">09</text><polygon fill="#cfe3f7" fill-opacity="0.5" points="88.86208599999999,74.267704 96.869306,74.267704 96.46326299999998,17.827772 100.68700799999999,5.262131 98.162747,4.0 97.466634,4.928368 97.270895,5.189983 97.07507999999999,5.452847 96.87946799999999,5.717166 96.68434199999999,5.98315 96.48998599999999,6.251011999999999 96.29668899999999,6.520965 96.10474199999999,6.793221 95.914441,7.067997 95.72608199999999,7.345508 95.53996799999999,7.6259689999999996 95.356405,7.909597 95.17570099999999,8.196606 94.99832799999999,8.486951000000001 94.82538899999999,8.779094 94.657164,9.070626 94.492836,9.360295 94.33136099999999,9.647313 94.17173899999999,9.930903 94.01301299999999,10.210297 93.85426999999999,10.484739000000001 93.694639,10.753489 93.533289,11.015827 93.36942699999999,11.271062 93.20229199999999,11.518545 93.03114399999998,11.757678 92.85524699999999,11.987943000000001 92.67295499999999,12.210004 92.48149,12.426846 92.27973599999999,12.641195 92.06836399999999,12.853889 91.84829799999999,13.065588 91.620528,13.27698 91.38609699999999,13.488792 91.18451099999999,13.667704 88.86208599999999,13.667704 88.86208599999999,74.267704" stroke="#1f6fb2" stroke-width="0.1" /><text fill="#0a3d62" font-family="sans-serif" font-size="1.6" text-anchor="middle" x="94.77454699999998" y="39.133852">09</text><polygon fill="#cfe3f7" fill-opacity="0.5" points="54.0,97.065584 53.54488,96.37892099999999 53.256333999999995,95.94330599999999 52.967847,95.50724 52.679368,95.070376 52.390845,94.632368 52.102226,94.192868 51.81346,93.75153 51.524504,93.30802299999999 51.235746,92.86263199999999 50.948979,92.41640799999999 50.666720999999995,91.969948 50.391082,91.52319999999999 50.124128999999996,91.076118 49.867903,90.62870099999999 49.624413000000004,90.180989 49.39562,89.733054 49.18343,89.28499199999999 48.989674,88.83690399999999 48.816095000000004,88.38887799999999 48.577345,87.684163 46.934431000000004,86.67031499999999 45.606815,85.842004 44.292736,85.00406199999999 42.996821,84.150483 41.723647,83.275318 40.477641,82.372602 39.260917,81.43508899999999 38.068967,80.460037 36.894531,79.452424 35.732186999999996,78.419221 34.576546,77.36757 33.011435,75.926526 32.486361,76.074237 32.271277999999995,76.127923 32.055321,76.175004 31.837843,76.215593 31.617691999999998,76.25018 31.394439,76.27925499999999 31.168087,76.30324 30.938667,76.32256799999999 30.706234,76.337687 30.470855,76.34906099999999 30.232609,76.35717299999999 29.991581,76.362521 29.747859,76.365625 29.501533,76.36701699999999 29.252689,76.367252 29.0,76.366895 29.0,144.366896 54.0,144.366896 54.0,97.065584 4.0,97.065584 4.455120000000001,96.37892099999999 4.743666000000001,95.94330599999999 5.032153000000001,95.50724 5.320632,95.070376 5.609155000000001,94.632368 5.897773999999998,94.192868 6.186540000000001,93.75153 6.475496,93.30802299999999 6.764254000000001,92.86263199999999 7.051020999999999,92.41640799999999 7.333279000000001,91.969948 7.608917999999999,91.52319999999999 7.875871,91.076118 8.132097000000002,90.62870099999999 8.375587,90.180989 8.604379999999999,89.733054 8.816569999999999,89.28499199999999 9.010326,88.83690399999999 9.183905,88.38887799999999 9.422654999999999,87.684163 11.065569,86.67031499999999 12.393184999999999,85.842004 13.707264,85.00406199999999 15.003179,84.150483 16.276353,83.275318 17.522359,82.372602 18.739083,81.43508899999999 19.931033,80.460037 21.105469,79.452424 22.267813,78.419221 23.423454,77.36757 24.988565,75.926526 25.513639,76.074237 25.728722,76.127923 25.944679,76.175004 26.162157,76.215593 26.382308000000002,76.25018 26.605561,76.27925499999999 26.831913,76.30324 27.061333,76.32256799999999 27.293766,76.337687 27.529145,76.34906099999999 27.767391,76.35717299999999 28.008419,76.362521 28.252141,76.365625 28.498467,76.36701699999999 28.747311,76.367252 29.0,76.366895 29.0,144.366896 4.0,144.366896 4.0,97.065584" stroke="#1f6fb2" stroke-width="0.1" /><text fill="#0a3d62" font-family="sans-serif" font-size="1.6" text-anchor="middle" x="29.0" y="110.146711">02</text><polygon fill="#cfe3f7" fill-opacity="0.5" points="55.0,141.58184 82.7,141.58184 82.7,94.20613399999999 82.100068,93.520427 81.746677,93.117256 81.390684,92.712609 81.03155,92.306622 80.668433,91.899092 80.300496,91.48982099999999 79.926906,91.07861799999999 79.546843,90.665309 79.160414,90.25068399999999 78.771075,89.836856 78.384597,89.42481 78.005541,89.014074 77.638339,88.60424 77.287417,88.19512 76.957145,87.786746 76.651776,87.37938199999999 76.37534,86.973497 76.13152099999999,86.569713 75.923496,86.168661 75.626594,85.472432 74.111671,84.68927699999999 72.924601,84.067909 71.749618,83.437483 70.590453,82.792408 69.450789,82.12716 68.334198,81.43624299999999 67.242177,80.713044 66.170436,79.954 65.112064,79.163386 64.062451,78.347849 63.017125,77.514286 61.051518,75.926526 60.469274999999996,76.961449 60.309653,77.24503899999999 60.150927,77.524433 59.992184,77.798875 59.832553000000004,78.06762499999999 59.671203,78.32996299999999 59.507341,78.58519799999999 59.340206,78.832681 59.169058,79.07181399999999 58.993161,79.30207899999999 58.810869,79.52414 58.619404,79.740982 58.41765,79.955331 58.206278,80.168025 57.986212,80.379724 57.758442,80.591116 57.524011,80.802928 57.322425,80.98183999999999 55.0,80.98183999999999 55.0,141.58184" stroke="#1f6fb2" stroke-width="0.1" /><text fill="#0a3d62" font-family="sans-serif" font-size="1.6" text-anchor="middle" x="68.85" y="108.754183">01</text><polygon fill="#cfe3f7" fill-opacity="0.5" points="83.7,141.58184 111.4,141.58184 111.4,94.20613399999999 110.80006800000001,93.520427 110.446677,93.117256 110.09068400000001,92.712609 109.73155,92.306622 109.36843300000001,91.899092 109.000496,91.48982099999999 108.626906,91.07861799999999 108.246843,90.665309 107.860414,90.25068399999999 107.471075,89.836856 107.084597,89.42481 106.70554100000001,89.014074 106.338339,88.60424 105.987417,88.19512 105.657145,87.786746 105.351776,87.37938199999999 105.07534,86.973497 104.83152100000001,86.569713 104.623496,86.168661 104.326594,85.472432 102.811671,84.68927699999999 101.624601,84.067909 100.449618,83.437483 99.290453,82.792408 98.150789,82.12716 97.034198,81.43624299999999 95.942177,80.713044 94.870436,79.954 93.812064,79.163386 92.762451,78.347849 91.71712500000001,77.514286 89.751518,75.926526 89.169275,76.961449 89.009653,77.24503899999999 88.850927,77.524433 88.692184,77.798875 88.53255300000001,78.06762499999999 88.37120300000001,78.32996299999999 88.207341,78.58519799999999 88.040206,78.832681 87.869058,79.07181399999999 87.693161,79.30207899999999 87.510869,79.52414 87.319404,79.740982 87.11765,79.955331 86.906278,80.168025 86.686212,80.379724 86.458442,80.591116 86.224011,80.802928 86.022425,80.98183999999999 83.7,80.98183999999999 83.7,141.58184" stroke="#1f6fb2" stroke-width="0.1" /><text fill="#0a3d62" font-family="sans-serif" font-size="1.6" text-anchor="middle" x="97.55" y="108.754183">01</text><polygon fill="#cfe3f7" fill-opacity="0.5" points="4.0,156.638801 11.0,161.048801 18.0,156.638801 18.0,145.366896 4.0,145.366896 4.0,156.638801" stroke="#1f6fb2" stroke-width="0.1" /><text fill="#0a3d62" font-family="sans-serif" font-size="1.6" text-anchor="middle" x="11.0" y="153.2078485">10</text><polygon fill="#cfe3f7" fill-opacity="0.5" points="19.0,157.61602299999998 19.029841,157.919003 19.132547,158.257578 19.299332,158.569611 19.523786,158.84311 19.797285,159.067564 20.109318000000002,159.234349 20.447893,159.337055 20.750873,159.366896 42.249127,159.366896 42.552107,159.337055 42.890682,159.234349 43.202715,159.067564 43.476214,158.84311 43.700668,158.569611 43.867453,158.257578 43.970158999999995,157.919003 44.0,157.61602299999998 44.0,147.117769 43.970158999999995,146.814789 43.867453,146.476214 43.700668,146.16418099999999 43.476214,145.890682 43.202715,145.666228 42.890682,145.49944299999999 42.552107,145.396737 42.249127,145.366896 20.750873,145.366896 20.447893,145.396737 20.109318000000002,145.49944299999999 19.797285,145.666228 19.523786,145.890682 19.299332,146.16418099999999 19.132547,146.476214 19.029841,146.814789 19.0,147.117769 19.0,157.61602299999998" stroke="#1f6fb2" stroke-width="0.1" /><text fill="#0a3d62" font-family="sans-serif" font-size="1.6" text-anchor="middle" x="31.5" y="152.366896">05</text><polygon fill="#cfe3f7" fill-opacity="0.5" points="45.0,157.61602299999998 45.029841,157.919003 45.132547,158.257578 45.299332,158.569611 45.523786,158.84311 45.797285,159.067564 46.109318,159.234349 46.447893,159.337055 46.750873,159.366896 68.249127,159.366896 68.552107,159.337055 68.890682,159.234349 69.202715,159.067564 69.476214,158.84311 69.70066800000001,158.569611 69.867453,158.257578 69.970159,157.919003 70.0,157.61602299999998 70.0,147.117769 69.970159,146.814789 69.867453,146.476214 69.70066800000001,146.16418099999999 69.476214,145.890682 69.202715,145.666228 68.890682,145.49944299999999 68.552107,145.396737 68.249127,145.366896 46.750873,145.366896 46.447893,145.396737 46.109318,145.49944299999999 45.797285,145.666228 45.523786,145.890682 45.299332,146.16418099999999 45.132547,146.476214 45.029841,146.814789 45.0,147.117769 45.0,157.61602299999998" stroke="#1f6fb2" stroke-width="0.1" /><text fill="#0a3d62" font-family="sans-serif" font-size="1.6" text-anchor="middle" x="57.5" y="152.366896">05</text><polygon fill="#cfe3f7" fill-opacity="0.5" points="26.655368999999997,168.903778 27.146859,168.993075 27.638402,169.077278 28.129994999999997,169.156386 28.621636,169.230397 29.113321,169.29931 29.605047999999996,169.363124 30.096814,169.421837 30.588614999999997,169.475449 31.080448999999998,169.523958 31.572312999999998,169.567364 32.064203,169.605665 32.556116,169.638861 33.048049,169.66695099999998 33.539998999999995,169.689934 34.031962,169.707811 34.523936,169.72057999999998 35.015916,169.728242 35.507898999999995,169.730795 35.999882,169.728242 36.491862,169.72057999999998 36.983836,169.707811 37.475798999999995,169.689934 37.967749,169.66695099999998 38.459682,169.638861 38.951595,169.605665 39.443484999999995,169.567364 39.935349,169.523958 40.427183,169.475449 40.918983999999995,169.421837 41.41075,169.363124 41.902477,169.29931 42.394161999999994,169.230397 42.885802999999996,169.156386 43.377396,169.077278 43.868939,168.993075 44.360428999999996,168.903778 44.644778,168.849164 46.6965,172.268701 47.751718,171.869718 45.938626,162.048801 44.46481,162.347174 43.993041,162.437786 43.521327,162.52348899999998 43.049666,162.604286 42.578055,162.68017799999998 42.106492,162.751167 41.634973,162.817254 41.163495999999995,162.87843999999998 40.692057999999996,162.934727 40.220655,162.98611499999998 39.749285,163.032606 39.277945,163.0742 38.806630999999996,163.110899 38.33534,163.14270299999998 37.864069,163.169613 37.392815,163.19163 36.921574,163.208753 36.450344,163.220984 35.979119999999995,163.228322 35.507898999999995,163.230769 35.036677999999995,163.228322 34.565454,163.220984 34.094224,163.208753 33.622983,163.19163 33.151729,163.169613 32.680458,163.14270299999998 32.209166999999994,163.110899 31.737852999999998,163.0742 31.266512999999996,163.032606 30.795143,162.98611499999998 30.323739999999997,162.934727 29.852301999999998,162.87843999999998 29.380824999999998,162.817254 28.909305999999997,162.751167 28.437742999999998,162.68017799999998 27.966131999999998,162.604286 27.494470999999997,162.52348899999998 27.022757,162.437786 26.550987999999997,162.347174 25.875859,162.210495 25.875859,168.751069 26.163933999999998,168.80939 26.655368999999997,168.903778 25.096349,168.903778 24.604858999999998,168.993075 24.113315999999998,169.077278 23.621723,169.156386 23.130081999999998,169.230397 22.638396999999998,169.29931 22.14667,169.363124 21.654904,169.421837 21.163103,169.475449 20.671269,169.523958 20.179405,169.567364 19.687514999999998,169.605665 19.195601999999997,169.638861 18.703668999999998,169.66695099999998 18.211719,169.689934 17.719755999999997,169.707811 17.227781999999998,169.72057999999998 16.735802,169.728242 16.243819,169.730795 15.751835999999999,169.728242 15.259856,169.72057999999998 14.767881999999998,169.707811 14.275918999999998,169.689934 13.783968999999999,169.66695099999998 13.292035999999998,169.638861 12.800123,169.605665 12.308232999999998,169.567364 11.816368999999998,169.523958 11.324535,169.475449 10.832733999999999,169.421837 10.340967999999998,169.363124 9.849241,169.29931 9.357555999999999,169.230397 8.865914999999998,169.156386 8.374322,169.077278 7.882778999999999,168.993075 7.391288999999997,168.903778 7.106939999999998,168.849164 5.055218,172.268701 4.0,171.869718 5.8130919999999975,162.048801 7.286907999999997,162.347174 7.758676999999999,162.437786 8.230390999999997,162.52348899999998 8.702051999999998,162.604286 9.173662999999998,162.68017799999998 9.645225999999997,162.751167 10.116744999999998,162.817254 10.588221999999998,162.87843999999998 11.05966,162.934727 11.531062999999998,162.98611499999998 12.002432999999998,163.032606 12.473772999999998,163.0742 12.945087,163.110899 13.416377999999998,163.14270299999998 13.887648999999998,163.169613 14.358902999999998,163.19163 14.830143999999999,163.208753 15.301374,163.220984 15.772597999999999,163.228322 16.243819,163.230769 16.71504,163.228322 17.186263999999998,163.220984 17.657494,163.208753 18.128735,163.19163 18.599988999999997,163.169613 19.07126,163.14270299999998 19.542551,163.110899 20.013865,163.0742 20.485205,163.032606 20.956574999999997,162.98611499999998 21.427978,162.934727 21.899416,162.87843999999998 22.370893,162.817254 22.842412,162.751167 23.313975,162.68017799999998 23.785586,162.604286 24.257247,162.52348899999998 24.728960999999998,162.437786 25.20073,162.347174 25.875859,162.210495 25.875859,168.751069 25.587784,168.80939 25.096349,168.903778" stroke="#1f6fb2" stroke-width="0.1" /><text fill="#0a3d62" font-family="sans-serif" font-size="1.6" text-anchor="middle" x="25.875859" y="167.158751">07</text><polygon fill="#cfe3f7" fill-opacity="0.5" points="71.627903,167.35134299999999 72.159438,167.422336 72.69099399999999,167.489275 73.22256999999999,167.552159 73.754166,167.610988 74.28577999999999,167.665762 74.81741099999999,167.716481 75.349058,167.76314299999999 75.880719,167.805748 76.412393,167.84429699999998 76.94407899999999,167.87878899999998 77.475776,167.909224 78.007482,167.935601 78.539196,167.957921 79.070916,167.976183 79.602642,167.990386 80.134372,168.000532 80.66610399999999,168.006619 81.19783799999999,168.008648 81.72957199999999,168.006619 82.261304,168.000532 82.79303399999999,167.990386 83.32476,167.976183 83.85648,167.957921 84.388194,167.935601 84.9199,167.909224 85.45159699999999,167.87878899999998 85.983283,167.84429699999998 86.514957,167.805748 87.046618,167.76314299999999 87.57826499999999,167.716481 88.10989599999999,167.665762 88.64151,167.610988 89.17310599999999,167.552159 89.70468199999999,167.489275 90.236238,167.422336 90.76777299999999,167.35134299999999 91.299284,167.276297 92.679878,167.070829 92.679878,162.048801 91.01226799999999,162.296985 90.495575,162.369939 89.978906,162.438946 89.46225799999999,162.504007 88.94563,162.565123 88.429022,162.622294 87.912432,162.67552 87.395859,162.72480099999999 86.879302,162.770139 86.362759,162.811534 85.846229,162.848985 85.329711,162.882493 84.813204,162.912058 84.296706,162.937681 83.780216,162.959361 83.263732,162.977099 82.747254,162.990896 82.23078,163.00075 81.71430799999999,163.006663 81.19783799999999,163.008634 80.68136799999999,163.006663 80.164896,163.00075 79.648422,162.990896 79.131944,162.977099 78.61546,162.959361 78.09897,162.937681 77.582472,162.912058 77.06596499999999,162.882493 76.549447,162.848985 76.032917,162.811534 75.516374,162.770139 74.999817,162.72480099999999 74.483244,162.67552 73.96665399999999,162.622294 73.450046,162.565123 72.93341799999999,162.504007 72.41677,162.438946 71.90010099999999,162.369939 71.383408,162.296985 70.71579799999999,162.197627 70.71579799999999,167.219655 71.096392,167.276297 71.627903,167.35134299999999 69.803693,167.35134299999999 69.27215799999999,167.422336 68.740602,167.489275 68.209026,167.552159 67.67742999999999,167.610988 67.145816,167.665762 66.61418499999999,167.716481 66.082538,167.76314299999999 65.550877,167.805748 65.019203,167.84429699999998 64.487517,167.87878899999998 63.955819999999996,167.909224 63.424113999999996,167.935601 62.892399999999995,167.957921 62.360679999999995,167.976183 61.828953999999996,167.990386 61.297224,168.000532 60.765491999999995,168.006619 60.233757999999995,168.008648 59.702023999999994,168.006619 59.170291999999996,168.000532 58.63856199999999,167.990386 58.106835999999994,167.976183 57.575115999999994,167.957921 57.04340199999999,167.935601 56.51169599999999,167.909224 55.97999899999999,167.87878899999998 55.448313,167.84429699999998 54.916638999999996,167.805748 54.384978,167.76314299999999 53.853331,167.716481 53.32169999999999,167.665762 52.790085999999995,167.610988 52.258489999999995,167.552159 51.726913999999994,167.489275 51.195358,167.422336 50.663822999999994,167.35134299999999 50.132312,167.276297 48.751718,167.070829 48.751718,162.048801 50.41932799999999,162.296985 50.936021,162.369939 51.45269,162.438946 51.96933799999999,162.504007 52.485966,162.565123 53.002573999999996,162.622294 53.519163999999996,162.67552 54.035737,162.72480099999999 54.552293999999996,162.770139 55.068836999999995,162.811534 55.585367,162.848985 56.101884999999996,162.882493 56.618392,162.912058 57.13489,162.937681 57.651379999999996,162.959361 58.167863999999994,162.977099 58.684341999999994,162.990896 59.200815999999996,163.00075 59.717287999999996,163.006663 60.233757999999995,163.008634 60.75022799999999,163.006663 61.2667,163.00075 61.783173999999995,162.990896 62.299651999999995,162.977099 62.816136,162.959361 63.332626,162.937681 63.849123999999996,162.912058 64.365631,162.882493 64.882149,162.848985 65.39867899999999,162.811534 65.915222,162.770139 66.43177899999999,162.72480099999999 66.948352,162.67552 67.464942,162.622294 67.98155,162.565123 68.498178,162.504007 69.014826,162.438946 69.53149499999999,162.369939 70.048188,162.296985 70.71579799999999,162.197627 70.71579799999999,167.219655 70.335204,167.276297 69.803693,167.35134299999999" stroke="#1f6fb2" stroke-width="0.1" /><text fill="#0a3d62" font-family="sans-serif" font-size="1.6" text-anchor="middle" x="70.71579799999999" y="165.0287245">08</text><polygon fill="#cfe3f7" fill-opacity="0.5" points="93.679878,165.697928 93.702033,165.922871 93.781976,166.186409 93.911797,166.429287 94.086507,166.642172 94.299392,166.816882 94.54227,166.94670299999999 94.805808,167.026646 95.03075100000001,167.048801 106.329005,167.048801 106.553948,167.026646 106.817486,166.94670299999999 107.060364,166.816882 107.273249,166.642172 107.447959,166.429287 107.57778,166.186409 107.657723,165.922871 107.679878,165.697928 107.679878,163.399674 107.657723,163.174731 107.57778,162.911193 107.447959,162.668315 107.273249,162.45543 107.060364,162.28072 106.817486,162.150899 106.553948,162.070956 106.329005,162.048801 95.03075100000001,162.048801 94.805808,162.070956 94.54227,162.150899 94.299392,162.28072 94.086507,162.45543 93.911797,162.668315 93.781976,162.911193 93.702033,163.174731 93.679878,163.399674 93.679878,165.697928" stroke="#1f6fb2" stroke-width="0.1" /><text fill="#0a3d62" font-family="sans-serif" font-size="1.6" text-anchor="middle" x="100.679878" y="164.548801">06</text><polygon fill="#cfe3f7" fill-opacity="0.5" points="4.0,176.917828 4.022155,177.14277099999998 4.102098,177.406309 4.2319189999999995,177.64918699999998 4.406629,177.86207199999998 4.619514,178.036782 4.862392,178.16660299999998 5.12593,178.246546 5.350873,178.268701 16.649127,178.268701 16.87407,178.246546 17.137608,178.16660299999998 17.380485999999998,178.036782 17.593370999999998,177.86207199999998 17.768081000000002,177.64918699999998 17.897902000000002,177.406309 17.977845000000002,177.14277099999998 18.0,176.917828 18.0,174.619574 17.977845000000002,174.394631 17.897902000000002,174.131093 17.768081000000002,173.888215 17.593370999999998,173.67533 17.380485999999998,173.50062 17.137608,173.370799 16.87407,173.290856 16.649127,173.268701 5.350873,173.268701 5.12593,173.290856 4.862392,173.370799 4.619514,173.50062 4.406629,173.67533 4.2319189999999995,173.888215 4.102098,174.131093 4.022155,174.394631 4.0,174.619574 4.0,176.917828" stroke="#1f6fb2" stroke-width="0.1" /><text fill="#0a3d62" font-family="sans-serif" font-size="1.6" text-anchor="middle" x="11.0" y="175.768701">06</text></svg>