<?xml version="1.0" encoding="utf-8" ?>
<svg baseProfile="full" height="68.233067cm" version="1.1" viewBox="0 0 100.0187634414366 68.233067" width="100.0187634414366cm" xmlns="http://www.w3.org/2000/svg" xmlns:ev="http://www.w3.org/2001/xml-events" xmlns:xlink="http://www.w3.org/1999/xlink"><defs /><g fill="none" id="CONSTRUCCION" stroke="#888888" stroke-width="0.08"><line x1="25.814548032279884" x2="13.60035980217772" y1="42.66935420905658" y2="29.25262758940745" /><line x1="25.665363735908127" x2="13.60035980217772" y1="45.66563837398813" y2="29.25262758940745" /><line x1="14.05" x2="12.3" y1="49.233067" y2="30.733067" /><line x1="10.55" x2="12.3" y1="49.233067" y2="30.733067" /><line x1="44.2" x2="42.45" y1="46.233067" y2="34.233067" /><line x1="40.7" x2="42.45" y1="46.233067" y2="34.233067" /><line x1="45.5309518948453" x2="42.45" y1="6.483067" y2="14.483067" /><line x1="46.3309518948453" x2="42.45" y1="6.483067" y2="14.483067" /></g><g fill="none" id="CORTE" stroke="#d00000" stroke-width="0.08"><polygon points="12.3,41.351687999999996 13.14013,50.233067 26.455198,50.233067 26.58692,47.360332 26.68087,45.358731 25.717632,44.048359999999995 26.617789,45.037141 26.69334,45.010152 26.871258,41.612559999999995 26.979739,39.699701 27.098519,37.788415 27.22902,35.87789 27.36992,33.967135999999996 27.519174,32.055842999999996 27.674722,30.143877 27.834499,28.231102999999997 28.032247,25.894219 27.400068,25.171653999999997 27.046677,24.768483 26.690684,24.363836 26.33155,23.957849 25.968433,23.550319 25.600496,23.141047999999998 25.226906,22.729844999999997 24.846843,22.316536 24.460414,21.901911 24.071075,21.488083 23.684597,21.076037 23.305541,20.665301 22.938339,20.255467 22.587417,19.846346999999998 22.257145,19.437973 21.951776,19.030609 21.67534,18.624724 21.431521,18.22094 21.223496,17.819888 21.053786,17.421923 20.923387,17.024288 20.8304,16.618925 20.771646,16.199514999999998 20.745508,15.764596000000001 20.750624,15.313914 20.785548,14.847847 20.84861,14.367222 20.93787,13.873137 21.051132,13.366815 21.185973,12.849511 21.339795,12.32245 21.509865,11.78679 21.693346,11.243606999999999 21.887334,10.693886 22.088868,10.138521 22.620404,8.693617 9.574689,3.0 8.904548,3.893731 8.708808999999999,4.155346 8.512993999999999,4.41821 8.317382,4.682529 8.122256,4.948513 7.9279,5.216374999999999 7.734603,5.486328 7.542656,5.758584 7.352355,6.03336 7.163996,6.310871 6.977882,6.5913319999999995 6.794319,6.87496 6.613614999999999,7.161969 6.436242,7.452314 6.2633030000000005,7.744457 6.095078,8.035989 5.93075,8.325658 5.769275,8.612676 5.609653,8.896266 5.450927,9.17566 5.292184000000001,9.450102000000001 5.132553,9.718852 4.971203,9.98119 4.807341,10.236425 4.640206,10.483908 4.469058,10.723041 4.293161,10.953306000000001 4.110869,11.175367 3.919404,11.392209 3.71765,11.606558 3.506278,11.819252 3.286212,12.030951 3.058442,12.242343 3.0,12.295146 3.0,50.233067 11.45987,50.233067 12.3,41.351687999999996" /><polygon points="42.45,41.162743 43.335256,47.233067 56.448651999999996,47.233067 56.586621,44.616914 56.676636,42.949495 56.770724,41.283628 56.870948,39.61947 56.979365,37.957175 57.098043000000004,36.296686 57.228415,34.637066 57.369181,32.977183999999994 57.518308000000005,31.316682999999998 57.673742000000004,29.655409 57.833426,27.993209999999998 58.029689000000005,25.976547999999998 57.54488,25.245092 57.256333999999995,24.809476999999998 56.967847,24.373410999999997 56.679368,23.936546999999997 56.390845,23.498538999999997 56.102226,23.059039 55.81346,22.617700999999997 55.524504,22.174194 55.235746,21.728803 54.948979,21.282579 54.666720999999995,20.836119 54.391082,20.389370999999997 54.124128999999996,19.942289 53.867903,19.494872 53.624413000000004,19.047159999999998 53.39562,18.599225 53.18343,18.151163 52.989674,17.703075 52.816095000000004,17.255049 52.664342000000005,16.807123 52.535945,16.359195 52.431893,15.909307 52.351451,15.453526 52.292833,14.989656 52.254642000000004,14.517631 52.235489,14.03763 52.233947,13.549949 52.248537,13.054966 52.277719000000005,12.553115 52.319895,12.044862 52.373413,11.530687 52.436566,11.011071 52.507604,10.486484 52.584734999999995,9.957378 52.666134,9.424181 52.871235,8.110232 45.842722,5.198375 45.708844,5.474344 39.984365,3.102738 39.332261,3.545677 39.129432,3.682166 38.929102,3.814464 38.730774,3.941763 38.533968,4.063313 38.338210000000004,4.178425 38.14236,4.286843 37.94441,4.389117 37.743353,4.485756 37.539377,4.5766670000000005 37.332785,4.6617049999999995 37.123881,4.740729 36.91297,4.813606 36.700361,4.880207 36.486361,4.940408 36.271278,4.9940940000000005 36.055321,5.041175 35.837843,5.081764 35.617692,5.116351 35.394439,5.1454260000000005 35.168087,5.169411 34.938666999999995,5.188739 34.706233999999995,5.203858 34.470855,5.215232 34.232609,5.223344 33.991581,5.228692 33.747859,5.231796 33.501532999999995,5.233188 33.252689000000004,5.233423 33.0,5.233066 33.0,47.233067 41.564744,47.233067 42.45,41.162743" /><polygon points="66.5775584414366,65.233067 92.4062624414366,65.233067 97.0187634414366,13.788077 96.3124204414366,13.003444 95.8916134414366,12.541302 95.4621374414366,12.08029 95.0219404414366,11.623693 94.5712664414366,11.175854 94.1123444414366,10.738514 93.6461694414366,10.311159 93.1733614414366,9.892911999999999 92.6945294414366,9.482893 92.2102684414366,9.080221 91.7211634414366,8.684015 91.2277904414366,8.293397 90.7307104414366,7.90749 90.22981744143661,7.52492 89.7230784414366,7.144209 89.2079984414366,6.766713 88.6834394414366,6.39535 88.1484244414366,6.033246 87.6019214414366,5.683583 87.0428644414366,5.349617 86.4701694414366,5.034704 85.8827734414366,4.742311 85.2796824414366,4.476044 84.6615514414366,4.240216 84.0334704414366,4.038069999999999 83.4011794414366,3.867045 82.76692744143661,3.722565 82.1322584414366,3.599996 81.4985914414366,3.494836 80.8672754414366,3.402726 80.2396434414366,3.3194489999999996 79.5181454414366,3.228454 78.7829844414366,3.282394 78.1422384414366,3.3334159999999997 77.4976684414366,3.392859 76.8504214414366,3.464892 76.2016484414366,3.553823 75.5525464414366,3.664097 74.9044174414366,3.800294 74.2588284414366,3.96709 73.6199664414366,4.168336 72.9937004414366,4.403259 72.3823354414366,4.667606 71.7852774414366,4.9578679999999995 71.2016954414366,5.270708 70.6307074414366,5.602901 70.0714154414366,5.951326 69.5229344414366,6.312943 68.9844134414366,6.6847769999999995 68.4550374414366,7.063905 67.9332184414366,7.448054 67.41600044143661,7.837747 66.90277244143661,8.236213 66.39537244143659,8.645638 65.8960144414366,9.068000999999999 65.4069694414366,9.505317999999999 64.9305834414366,9.95963 64.4692954414366,10.432979 64.0256544414366,10.927378000000001 63.6028194414366,11.444177999999999 63.2064664414366,11.979436 62.8366954414366,12.522652 62.4874974414366,13.065848 61.974021441436605,13.888062 66.5775584414366,65.233067" /></g><g fill="none" id="COSTURA" stroke="#00a000" stroke-width="0.08"><polygon points="3.0,13.633067 3.246137211430921,13.416556070671316 3.4911230351686258,13.199125943868006 3.7338060835198936,12.97985742211545 3.973034968791513,12.757831307939018 4.207658303290262,12.53212840386409 4.436524699322925,12.30182951241604 4.658482769196286,12.066015436120248 4.872381125217126,11.823766977502084 5.077197617466955,11.574267191163548 5.273182834463885,11.317706113979522 5.461311146615966,11.054846434291722 5.642565282091676,10.786457453046896 5.817927969059488,10.513308471191783 5.98838193568788,10.236168789673126 6.154909910145326,9.955807709437675 6.318494620600303,9.67299453143217 6.480118795221287,9.388498556603356 6.640765162176753,9.103089085897977 6.801416449635177,8.817535420262777 6.963055385765033,8.532606860644501 7.126664698734799,8.249072707989892 7.293226961401806,7.967702142964255 7.46345393201771,7.689054612599036 7.637230036760209,7.413048832744115 7.814282265311874,7.139481591821779 7.994337607355273,6.86814967825431 8.177123052572977,6.598849880463993 8.362365590647556,6.331378986873115 8.549792211261579,6.065533785903957 8.739129904097615,5.801111065978808 8.930105658838233,5.53790761551995 9.122446465166005,5.275720222949668 9.315879312763496,5.0143456766902474 9.510131191313281,4.7535807651639725 9.704929090497926,4.493222276793128 9.9,4.233067 21.3564392373896,9.233067 21.14959802771455,9.795334580940363 20.945801650517318,10.356933169710793 20.7480949382757,10.917193774141342 20.55952272346752,11.475447402062086 20.38312983857059,12.031025061303078 20.22196111606271,12.583257759694389 20.079061388421707,13.131476505066075 19.957475488125386,13.675012305248204 19.86024824765156,14.213196168070835 19.790424499478032,14.745359101364034 19.751049076082626,15.270832112957864 19.745166809943143,15.788946210682386 19.7758225335374,16.299032402367665 19.84606107934321,16.80042169584376 19.958927279838385,17.29244509894074 20.117015777873206,17.77451462039634 20.318439554671198,18.246848637281662 20.55874127090857,18.71012799466933 20.833433110351084,19.16503902122656 21.138027256764506,19.61226804562056 21.468035893914596,20.052501396518547 21.818971205567124,20.486425402587745 22.186345375487853,20.91472639249535 22.565670587442547,21.338090694908598 22.952459025196966,21.75720463849469 23.34222287251688,22.172754551920843 23.730474313168052,22.585426763854276 24.113017247128173,22.995882540544653 24.488779993915376,23.40451471781536 24.85858677963129,23.811553247150556 25.223288455857528,24.217225792541026 25.583735874175698,24.62176001797755 25.94077988616742,25.025383587450918 26.2952713434143,25.42832416495193 26.648061097497955,25.830809414471354 27.0,26.233067 26.838014771140305,28.147321995089474 26.678102299609492,30.061712147107553 26.522335342736437,31.97637261298285 26.372786657850014,33.89143854964395 26.231529002279117,35.807045114019495 26.100635133352615,37.72332746303807 25.981496791802186,39.640376347025374 25.87273980619772,41.558102161285646 25.814548032279884,42.66935420905658 13.60035980217772,29.25262758940745 25.665363735908127,45.66563837398813 25.587994273531084,47.31398732518197 25.5,49.233067 14.05,49.233067 12.3,30.733067 10.55,49.233067 3.0,49.233067" /><polygon points="33.0,6.233067 33.25245430921341,6.233423362819071 33.504830862915234,6.233185589548962 33.757051905593876,6.231759544100493 34.00903968173775,6.228551090384485 34.26071643583526,6.222966092311758 34.512004412374814,6.21441041379313 34.76282585584483,6.2022899187394245 35.013103010733715,6.18601047106146 35.26275812152988,6.1649779346700555 35.51171343272173,6.1385981734760335 35.75989118879767,6.1062770513902125 36.00721363424612,6.067420432323413 36.253602573437206,6.021435816906703 36.49891975774915,5.967954031978914 36.74290645846001,5.907053948065581 36.9852895518145,5.838867968215919 37.22579591405731,5.763528495479149 37.46415242143313,5.681167932904493 37.70008595018666,5.591918683541167 37.93332337656261,5.495913150438394 38.16359157680567,5.393283736645391 38.390617427160535,5.28416284521138 38.6141278038719,5.168682879185578 38.83389863733646,5.047021848373325 39.05020863974197,4.919825210198594 39.263631491986615,4.7880126611761415 39.47474462410257,4.652507383475511 39.684125466122,4.514232559266247 39.892351448077086,4.3741113707178965 40.1,4.233067 45.5309518948453,6.483067 42.45,14.483067 46.3309518948453,6.483067 51.76190378969061,8.733067 51.67783951157895,9.271610546663693 51.595680027135955,9.809794399041248 51.517330130030246,10.347258862846523 51.44469461393048,10.88364424379338 51.379678272505316,11.418590847595684 51.324185899423384,11.951738979967294 51.28012228835334,12.48272894662207 51.24939223296384,13.01120105327387 51.23390052692352,13.536795605636561 51.235551963901024,14.059152909424 51.25625133756502,14.57791327035005 51.29790344158414,15.092716994128569 51.362413069627024,15.603204386473422 51.451685015362344,16.10901575309847 51.56750927300081,16.609806492642356 51.709600196831175,17.10550489246455 51.875868867475305,17.596276320084236 52.06416637745514,18.08229402978155 52.272343819292615,18.563731275836616 52.49825228550965,19.040761312529572 52.7397428686282,19.51355739414054 52.994666661170186,19.98229277494966 53.26087475565754,20.447140709237043 53.5362182446122,20.90827445128284 53.818548220556096,21.365867255367167 54.10571577601117,21.82009237577016 54.39557200349935,22.271123066771946 54.68603044988296,22.719137438993467 54.97613080533737,23.164401169999923 55.26588949611586,23.60725588665412 55.55535533145786,24.048045733863532 55.844577120602786,24.487114856535612 56.133603672790045,24.924807399577837 56.42248379725906,25.361467507897668 56.71126630324923,25.797439326402564 57.0,26.233067 56.83806846200503,27.896964420912887 56.67820629482115,29.561017009919038 56.52248286925945,31.225379935111686 56.372967556131016,32.8902083645841 56.231729726246925,34.55565746642952 56.100838750418276,36.221882408741216 55.98168724631292,37.88898761448049 55.87290576702226,39.556870398104245 55.772420307750316,41.225375244048095 55.67815686349242,42.89434663673202 55.58804142924387,44.563629060576 55.5,46.233067 44.2,46.233067 42.45,34.233067 40.7,46.233067 33.0,46.233067" /><polygon points="63.0,14.133067 63.33221650091204,13.601097985769025 63.670756072010505,13.07448106878231 64.02194178348186,12.558568346284105 64.3920868106136,12.058703603203355 64.78516849175335,11.578268379750659 65.19983050882038,11.11616362120411 65.63397555519246,10.670667797519528 66.08550632424732,10.24005937865272 66.55232550936269,9.822616834559495 67.03233580391634,9.416618635195668 67.52343990128603,9.020343250517051 68.02354049484947,8.632069150479452 68.53054027798444,8.250074805038686 69.04261629321226,7.873099052810097 69.55967877560967,7.502789097724244 70.08231288447963,7.141924693123902 70.6111053003662,6.793288145054288 71.14664270381343,6.459661759560624 71.68951177536539,6.143827842688129 72.24029919556615,5.848568700482024 72.79959164495975,5.576666638987529 73.36797580409026,5.330903964249865 73.94603835350175,5.114062982314252 74.53431782143139,4.928750228471964 75.13243435229717,4.774219854155839 75.73918390181689,4.646717468142565 76.35333318161143,4.542381929246023 76.97364890330165,4.457352096280088 77.59889777850842,4.38776682805864 78.22784651885259,4.329764983395557 78.85926183595502,4.2794854211047175 79.4919104414366,4.233067 80.11131162690668,4.311185854731644 80.7293173909157,4.393185375692934 81.3445323120026,4.482946229113522 81.95556096870634,4.5843490812230545 82.56100793956584,4.701274598251178 83.15947780312007,4.837603446427542 83.74957513790795,4.997216291981794 84.32990452246845,5.183993801143583 84.89925964684763,5.401212000570606 85.45779188021564,5.647806057197887 86.00624581047083,5.920814460580514 86.54536851109732,6.217267753197476 87.07590705557926,6.534196477527764 87.59860851740076,6.868631176050369 88.11421997004598,7.217602391244281 88.62348848699905,7.57814066558849 89.12716114174408,7.947276541561989 89.62598500776524,8.322040561643767 90.12059054687546,8.699808623983248 90.6107914450398,9.08037557989049 91.09605222342715,9.464570362779291 91.57583608789012,9.853225801488009 92.04960624428125,10.247174724854993 92.51682589845309,10.647249961718597 92.97695825625823,11.05428434091717 93.42946652354921,11.469110691289066 93.8738139061786,11.89256184167264 94.30946360999896,12.325470620906243 94.73628060163423,12.768189022952523 95.15604533602217,13.218776549199232 95.57110850164017,13.674610234768883 95.9838208828732,14.133067 91.4919104414366,64.233067 67.4919104414366,64.233067" /></g><g fill="none" id="PIQUETES" stroke="#00b0b0" stroke-width="0.08" /><g fill="none" id="TEXTOS" stroke="#000000" stroke-width="0.08"><text fill="#000000" font-family="sans-serif" font-size="0.9" stroke="none" text-anchor="middle" x="13.7240828907549" y="25.2137843881742">DELANTERO (base entallada)</text><text fill="#000000" font-family="sans-serif" font-size="0.6" stroke="none" text-anchor="middle" x="13.7240828907549" y="26.6137843881742">Pieza N.01</text><text fill="#000000" font-family="sans-serif" font-size="0.6" stroke="none" text-anchor="middle" x="13.7240828907549" y="28.0137843881742">Talla: S</text><text fill="#000000" font-family="sans-serif" font-size="0.6" stroke="none" text-anchor="middle" x="13.7240828907549" y="29.4137843881742">Cortar: 1  (al doblez)</text><text fill="#000000" font-family="sans-serif" font-size="0.6" stroke="none" text-anchor="middle" x="13.7240828907549" y="30.8137843881742">AL DOBLEZ</text><text fill="#000000" font-family="sans-serif" font-size="0.9" stroke="none" text-anchor="middle" x="43.75878062759569" y="23.228483053843085">ESPALDA (base entallada)</text><text fill="#000000" font-family="sans-serif" font-size="0.6" stroke="none" text-anchor="middle" x="43.75878062759569" y="24.628483053843084">Pieza N.02</text><text fill="#000000" font-family="sans-serif" font-size="0.6" stroke="none" text-anchor="middle" x="43.75878062759569" y="26.028483053843086">Talla: S</text><text fill="#000000" font-family="sans-serif" font-size="0.6" stroke="none" text-anchor="middle" x="43.75878062759569" y="27.428483053843085">Cortar: 1  (al doblez)</text><text fill="#000000" font-family="sans-serif" font-size="0.6" stroke="none" text-anchor="middle" x="43.75878062759569" y="28.828483053843087">AL DOBLEZ</text><text fill="#000000" font-family="sans-serif" font-size="0.9" stroke="none" text-anchor="middle" x="79.44711198067847" y="31.483126315053056">MANGA</text><text fill="#000000" font-family="sans-serif" font-size="0.6" stroke="none" text-anchor="middle" x="79.44711198067847" y="32.883126315053055">Pieza N.03</text><text fill="#000000" font-family="sans-serif" font-size="0.6" stroke="none" text-anchor="middle" x="79.44711198067847" y="34.28312631505305">Talla: S</text><text fill="#000000" font-family="sans-serif" font-size="0.6" stroke="none" text-anchor="middle" x="79.44711198067847" y="35.68312631505306">Cortar: 2  (par)</text></g><g fill="none" id="CENTROS" stroke="#0050ff" stroke-width="0.08"><circle cx="12.3" cy="27.733067" fill="#0050ff" r="0.15" /><circle cx="13.60035980217772" cy="29.25262758940745" fill="#0050ff" r="0.15" /><circle cx="12.3" cy="30.733067" fill="#0050ff" r="0.15" /><circle cx="42.45" cy="34.233067" fill="#0050ff" r="0.15" /><circle cx="42.45" cy="14.483067" fill="#0050ff" r="0.15" /></g><g fill="none" id="HILO" stroke="#c0a000" stroke-width="0.08"><line x1="15.0" x2="15.0" y1="16.633067" y2="44.233067" /><line x1="15.0" x2="15.46730201077038" y1="44.233067" y2="43.12779380719654" /><line x1="15.0" x2="14.532697989229618" y1="44.233067" y2="43.12779380719654" /><line x1="15.0" x2="14.53269798922962" y1="16.633067" y2="17.738340192803463" /><line x1="15.0" x2="15.46730201077038" y1="16.633067" y2="17.738340192803463" /><line x1="34.0" x2="34.0" y1="7.233067" y2="44.233067" /><line x1="34.0" x2="34.46730201077038" y1="44.233067" y2="43.12779380719654" /><line x1="34.0" x2="33.53269798922962" y1="44.233067" y2="43.12779380719654" /><line x1="34.0" x2="33.53269798922962" y1="7.233067" y2="8.338340192803463" /><line x1="34.0" x2="34.46730201077038" y1="7.233067" y2="8.338340192803463" /><line x1="79.4919104414366" x2="79.4919104414366" y1="8.193067" y2="62.233067" /><line x1="79.4919104414366" x2="79.95921245220698" y1="62.233067" y2="61.12779380719654" /><line x1="79.4919104414366" x2="79.02460843066622" y1="62.233067" y2="61.12779380719654" /><line x1="79.4919104414366" x2="79.02460843066622" y1="8.193067" y2="9.298340192803462" /><line x1="79.4919104414366" x2="79.95921245220698" y1="8.193067" y2="9.298340192803462" /></g><g fill="none" id="DOBLEZ" stroke="#c000c0" stroke-width="0.08"><line x1="3.0" x2="3.0" y1="4.233067" y2="49.233067" /><line x1="33.0" x2="33.0" y1="4.233067" y2="46.233067" /></g><g fill="none" id="BOTONES" stroke="#ff8000" stroke-width="0.08" /><g fill="none" id="OJAL" stroke="#ff40a0" stroke-width="0.08" /><g fill="none" id="REFERENCIAS" stroke="#b0b0b0" stroke-width="0.08"><text fill="#000000" font-family="sans-serif" font-size="0.5" stroke="none" text-anchor="start" x="12.9" y="28.133066999999997">BP</text></g></svg>