<?xml version="1.0" encoding="utf-8" ?>
<svg baseProfile="full" height="142.879181cm" version="1.1" viewBox="0 0 158.0 142.879181" width="158.0cm" xmlns="http://www.w3.org/2000/svg" xmlns:ev="http://www.w3.org/2001/xml-events" xmlns:xlink="http://www.w3.org/1999/xlink"><defs /><rect fill="#f7f3ea" height="134.879181" stroke="#333" stroke-width="0.15" width="150.0" x="4.0" y="4.0" /><text fill="#000" font-family="sans-serif" font-size="1.4" x="4.0" y="3.0">PLANO DE CORTE — ancho 150 cm — largo 1.35 m</text><polygon fill="#cfe3f7" fill-opacity="0.5" points="8.603537000000001,66.004613 34.432241,66.004613 39.044742,14.559622999999998 38.338398999999995,13.774989999999999 37.917592,13.312847999999999 37.488116,12.851835999999999 37.047919,12.395239 36.597245,11.9474 36.138323,11.51006 35.672148,11.082705 35.19934,10.664458 34.720508,10.254439 34.236247,9.851766999999999 33.747142,9.455561 33.253769,9.064943 32.756689,8.679036 32.255796000000004,8.296466 31.749057,7.915755 31.233977,7.538259 30.709418,7.1668959999999995 30.174402999999998,6.804792 29.6279,6.4551289999999995 29.068843,6.121163 28.496148,5.80625 27.908752,5.513857 27.305661,5.24759 26.687530000000002,5.011762 26.059449,4.809616 25.427158,4.638591 24.792906000000002,4.494111 24.158237,4.371542 23.52457,4.266382 22.893254,4.174272 22.265622,4.0909949999999995 21.544124,4.0 20.808963,4.05394 20.168217,4.104962 19.523647,4.164405 18.8764,4.236438 18.227627,4.325369 17.578525,4.435643 16.930396000000002,4.57184 16.284807,4.738636 15.645945000000001,4.939882 15.019679,5.174805 14.408314,5.439152 13.811256,5.729414 13.227674,6.042254 12.656686,6.374447 12.097394,6.722872 11.548913,7.084489 11.010392,7.456322999999999 10.481016,7.835451 9.959197,8.2196 9.441979,8.609293000000001 8.928751,9.007759 8.421351,9.417183999999999 7.9219930000000005,9.839547 7.432948,10.276864 6.956562,10.731176 6.495274,11.204525 6.051633000000001,11.698924 5.628798,12.215724 5.232445000000002,12.750982 4.862674000000002,13.294198000000002 4.513476000000001,13.837394 4.0,14.659607999999999 8.603537000000001,66.004613" stroke="#1f6fb2" stroke-width="0.1" /><text fill="#0a3d62" font-family="sans-serif" font-size="1.6" text-anchor="middle" x="21.522371" y="35.0023065">04</text><polygon fill="#cfe3f7" fill-opacity="0.5" points="44.648279,66.004613 70.47698299999999,66.004613 75.089484,14.559622999999998 74.383141,13.774989999999999 73.962334,13.312847999999999 73.532858,12.851835999999999 73.09266099999999,12.395239 72.641987,11.9474 72.183065,11.51006 71.71689,11.082705 71.24408199999999,10.664458 70.76525000000001,10.254439 70.280989,9.851766999999999 69.791884,9.455561 69.29851099999999,9.064943 68.80143100000001,8.679036 68.300538,8.296466 67.793799,7.915755 67.278719,7.538259 66.75416,7.1668959999999995 66.219145,6.804792 65.672642,6.4551289999999995 65.113585,6.121163 64.54089,5.80625 63.953494,5.513857 63.350403,5.24759 62.732272,5.011762 62.104191,4.809616 61.4719,4.638591 60.837648,4.494111 60.202979,4.371542 59.569312,4.266382 58.937996,4.174272 58.310364,4.0909949999999995 57.588865999999996,4.0 56.853705,4.05394 56.212959,4.104962 55.568388999999996,4.164405 54.921142,4.236438 54.272369,4.325369 53.623267,4.435643 52.975138,4.57184 52.329549,4.738636 51.690687,4.939882 51.064420999999996,5.174805 50.453056000000004,5.439152 49.855998,5.729414 49.272416,6.042254 48.701428,6.374447 48.142136,6.722872 47.593655,7.084489 47.055133999999995,7.456322999999999 46.525757999999996,7.835451 46.003939,8.2196 45.486721,8.609293000000001 44.973493,9.007759 44.466093,9.417183999999999 43.966735,9.839547 43.477689999999996,10.276864 43.001304,10.731176 42.540016,11.204525 42.096375,11.698924 41.67354,12.215724 41.277187,12.750982 40.907416,13.294198000000002 40.558218,13.837394 40.044742,14.659607999999999 44.648279,66.004613" stroke="#1f6fb2" stroke-width="0.1" /><text fill="#0a3d62" font-family="sans-serif" font-size="1.6" text-anchor="middle" x="57.567113" y="35.0023065">04</text><polygon fill="#cfe3f7" fill-opacity="0.5" points="126.089484,16.698688 125.634364,16.012025 125.345818,15.57641 125.057331,15.140343999999999 124.768852,14.703479999999999 124.480329,14.265471999999999 124.19171,13.825972 123.90294399999999,13.384633999999998 123.613988,12.941127000000002 123.32523,12.495736 123.03846300000001,12.049512 122.756205,11.603052000000002 122.480566,11.156303999999999 122.213613,10.709222 121.957387,10.261805 121.713897,9.814093 121.485104,9.366158 121.272914,8.918096 121.079158,8.470008 120.905579,8.021982 120.753826,7.574056000000001 120.625429,7.126128 120.521377,6.67624 120.440935,6.220459 120.382317,5.756589 120.344126,5.284564 120.29287,4.0 101.089484,4.0 101.089484,64.0 126.089484,64.0 126.089484,16.698688 76.089484,16.698688 76.54460399999999,16.012025 76.83315,15.57641 77.12163699999999,15.140343999999999 77.410116,14.703479999999999 77.698639,14.265471999999999 77.987258,13.825972 78.276024,13.384633999999998 78.56497999999999,12.941127000000002 78.85373799999999,12.495736 79.14050499999999,12.049512 79.422763,11.603052000000002 79.698402,11.156303999999999 79.965355,10.709222 80.221581,10.261805 80.465071,9.814093 80.69386399999999,9.366158 80.906054,8.918096 81.09980999999999,8.470008 81.273389,8.021982 81.425142,7.574056000000001 81.553539,7.126128 81.657591,6.67624 81.738033,6.220459 81.796651,5.756589 81.834842,5.284564 81.886098,4.0 101.089484,4.0 101.089484,64.0 76.089484,64.0 76.089484,16.698688" stroke="#1f6fb2" stroke-width="0.1" /><text fill="#0a3d62" font-family="sans-serif" font-size="1.6" text-anchor="middle" x="101.089484" y="34.0">02</text><polygon fill="#cfe3f7" fill-opacity="0.5" points="127.089484,13.667704 127.089484,56.787704000000005 134.970949,56.787704000000005 134.690661,17.827772 138.91440599999999,5.262131 136.390145,4.0 135.694032,4.928368 135.498293,5.189983 135.302478,5.452847 135.106866,5.717166 134.91174,5.98315 134.717384,6.251011999999999 134.524087,6.520965 134.33214,6.793221 134.141839,7.067997 133.95348,7.345508 133.767366,7.6259689999999996 133.583803,7.909597 133.403099,8.196606 133.225726,8.486951000000001 133.052787,8.779094 132.884562,9.070626 132.720234,9.360295 132.558759,9.647313 132.399137,9.930903 132.240411,10.210297 132.081668,10.484739000000001 131.922037,10.753489 131.760687,11.015827 131.596825,11.271062 131.42969,11.518545 131.258542,11.757678 131.08264499999999,11.987943000000001 130.900353,12.210004 130.708888,12.426846 130.507134,12.641195 130.295762,12.853889 130.075696,13.065588 129.847926,13.27698 129.613495,13.488792 129.411909,13.667704 127.089484,13.667704" stroke="#1f6fb2" stroke-width="0.1" /><text fill="#0a3d62" font-family="sans-serif" font-size="1.6" text-anchor="middle" x="133.001945" y="30.393852000000003">09</text><polygon fill="#cfe3f7" fill-opacity="0.5" points="139.91440599999999,13.667704 139.91440599999999,56.787704000000005 147.79587099999998,56.787704000000005 147.515583,17.827772 151.739328,5.262131 149.21506699999998,4.0 148.51895399999998,4.928368 148.32321499999998,5.189983 148.1274,5.452847 147.93178799999998,5.717166 147.736662,5.98315 147.542306,6.251011999999999 147.349009,6.520965 147.157062,6.793221 146.966761,7.067997 146.77840199999997,7.345508 146.592288,7.6259689999999996 146.40872499999998,7.909597 146.22802099999998,8.196606 146.050648,8.486951000000001 145.87770899999998,8.779094 145.70948399999997,9.070626 145.545156,9.360295 145.383681,9.647313 145.22405899999998,9.930903 145.06533299999998,10.210297 144.90659,10.484739000000001 144.74695899999998,10.753489 144.58560899999998,11.015827 144.42174699999998,11.271062 144.25461199999998,11.518545 144.083464,11.757678 143.90756699999997,11.987943000000001 143.72527499999998,12.210004 143.53381,12.426846 143.332056,12.641195 143.12068399999998,12.853889 142.90061799999998,13.065588 142.672848,13.27698 142.438417,13.488792 142.236831,13.667704 139.91440599999999,13.667704" stroke="#1f6fb2" stroke-width="0.1" /><text fill="#0a3d62" font-family="sans-serif" font-size="1.6" text-anchor="middle" x="145.826867" y="30.393852000000003">09</text><polygon fill="#cfe3f7" fill-opacity="0.5" points="4.0,76.63768 4.0,119.75768000000001 31.7,119.75768000000001 31.7,89.861974 31.100672,89.176956 30.746677,88.77309600000001 30.390684,88.368449 30.03155,87.962462 29.668433,87.55493200000001 29.300496,87.145661 28.926906,86.734458 28.546843,86.321149 28.160414,85.906524 27.771075,85.49269600000001 27.384597,85.08065 27.005541,84.669914 26.638339,84.26008 26.287416999999998,83.85096 25.957145,83.442586 25.651775999999998,83.035222 25.375339999999998,82.629337 25.131521,82.225553 24.923496,81.82450100000001 24.753785999999998,81.426536 24.623387,81.028901 24.5304,80.62353800000001 24.471646,80.20412800000001 24.445508,79.769209 24.450623999999998,79.318527 24.485547999999998,78.85246000000001 24.54861,78.371835 24.63787,77.87775 24.751132,77.37142800000001 24.885973,76.85412400000001 25.039794999999998,76.32706300000001 25.209865,75.791403 25.393345999999998,75.24822 25.587334,74.69849900000001 25.788868,74.143134 26.320404,72.69823000000001 13.274689,67.004613 12.604548000000001,67.89834400000001 12.408809,68.159959 12.212994,68.42282300000001 12.017382000000001,68.68714200000001 11.822256,68.95312600000001 11.6279,69.220988 11.434603,69.490941 11.242656,69.763197 11.052355,70.03797300000001 10.863996,70.31548400000001 10.677882,70.595945 10.494319,70.87957300000001 10.313615,71.166582 10.136242,71.45692700000001 9.963303,71.74907 9.795078,72.040602 9.63075,72.33027100000001 9.469275,72.617289 9.309653,72.900879 9.150927,73.180273 8.992184,73.45471500000001 8.832553,73.723465 8.671203,73.985803 8.507341,74.241038 8.340206,74.488521 8.169058,74.727654 7.993161000000001,74.957919 7.810869,75.17998 7.619404,75.396822 7.41765,75.61117100000001 7.206278,75.82386500000001 6.986212,76.03556400000001 6.7584420000000005,76.24695600000001 6.524011,76.458768 6.322425,76.63768 4.0,76.63768" stroke="#1f6fb2" stroke-width="0.1" /><text fill="#0a3d62" font-family="sans-serif" font-size="1.6" text-anchor="middle" x="17.85" y="93.3811465">01</text><polygon fill="#cfe3f7" fill-opacity="0.5" points="32.7,76.63768 32.7,119.75768000000001 60.400000000000006,119.75768000000001 60.400000000000006,89.861974 59.800672000000006,89.176956 59.446677,88.77309600000001 59.090684,88.368449 58.73155,87.962462 58.368433,87.55493200000001 58.000496,87.145661 57.626906000000005,86.734458 57.246843,86.321149 56.860414000000006,85.906524 56.471075,85.49269600000001 56.084597,85.08065 55.705541000000004,84.669914 55.338339000000005,84.26008 54.987417,83.85096 54.657145,83.442586 54.351776,83.035222 54.07534,82.629337 53.831521,82.225553 53.623496,81.82450100000001 53.453786,81.426536 53.323387000000004,81.028901 53.2304,80.62353800000001 53.171646,80.20412800000001 53.14550800000001,79.769209 53.150624,79.318527 53.185548,78.85246000000001 53.24861,78.371835 53.33787,77.87775 53.451132,77.37142800000001 53.585973,76.85412400000001 53.739795,76.32706300000001 53.909865,75.791403 54.093346,75.24822 54.287334,74.69849900000001 54.488868000000004,74.143134 55.020404,72.69823000000001 41.974689000000005,67.004613 41.304548000000004,67.89834400000001 41.108809,68.159959 40.912994000000005,68.42282300000001 40.717382,68.68714200000001 40.522256000000006,68.95312600000001 40.3279,69.220988 40.134603000000006,69.490941 39.942656,69.763197 39.752355,70.03797300000001 39.563996,70.31548400000001 39.377882,70.595945 39.19431900000001,70.87957300000001 39.013615,71.166582 38.836242000000006,71.45692700000001 38.663303,71.74907 38.49507800000001,72.040602 38.33075,72.33027100000001 38.169275,72.617289 38.009653,72.900879 37.850927000000006,73.180273 37.692184000000005,73.45471500000001 37.53255300000001,73.723465 37.371203,73.985803 37.207341,74.241038 37.040206000000005,74.488521 36.869058,74.727654 36.693161,74.957919 36.510869,75.17998 36.319404000000006,75.396822 36.117650000000005,75.61117100000001 35.906278,75.82386500000001 35.686212000000005,76.03556400000001 35.458442000000005,76.24695600000001 35.224011000000004,76.458768 35.022425000000005,76.63768 32.7,76.63768" stroke="#1f6fb2" stroke-width="0.1" /><text fill="#0a3d62" font-family="sans-serif" font-size="1.6" text-anchor="middle" x="46.550000000000004" y="93.3811465">01</text><polygon fill="#cfe3f7" fill-opacity="0.5" points="61.4,78.27651800000001 68.4,82.686518 75.4,78.27651800000001 75.4,67.004613 61.4,67.004613 61.4,78.27651800000001" stroke="#1f6fb2" stroke-width="0.1" /><text fill="#0a3d62" font-family="sans-serif" font-size="1.6" text-anchor="middle" x="68.4" y="74.8455655">10</text><polygon fill="#cfe3f7" fill-opacity="0.5" points="76.4,79.25374000000001 76.42984100000001,79.55672000000001 76.53254700000001,79.895295 76.69933200000001,80.207328 76.923786,80.480827 77.19728500000001,80.70528100000001 77.50931800000001,80.872066 77.847893,80.974772 78.150873,81.004613 99.64912700000001,81.004613 99.95210700000001,80.974772 100.290682,80.872066 100.602715,80.70528100000001 100.876214,80.480827 101.10066800000001,80.207328 101.267453,79.895295 101.370159,79.55672000000001 101.4,79.25374000000001 101.4,68.755486 101.370159,68.452506 101.267453,68.11393100000001 101.10066800000001,67.80189800000001 100.876214,67.52839900000001 100.602715,67.30394500000001 100.290682,67.13716000000001 99.95210700000001,67.03445400000001 99.64912700000001,67.004613 78.150873,67.004613 77.847893,67.03445400000001 77.50931800000001,67.13716000000001 77.19728500000001,67.30394500000001 76.923786,67.52839900000001 76.69933200000001,67.80189800000001 76.53254700000001,68.11393100000001 76.42984100000001,68.452506 76.4,68.755486 76.4,79.25374000000001" stroke="#1f6fb2" stroke-width="0.1" /><text fill="#0a3d62" font-family="sans-serif" font-size="1.6" text-anchor="middle" x="88.9" y="74.004613">05</text><polygon fill="#cfe3f7" fill-opacity="0.5" points="102.4,79.25374000000001 102.42984100000001,79.55672000000001 102.53254700000001,79.895295 102.69933200000001,80.207328 102.923786,80.480827 103.19728500000001,80.70528100000001 103.50931800000001,80.872066 103.847893,80.974772 104.150873,81.004613 125.64912700000001,81.004613 125.95210700000001,80.974772 126.290682,80.872066 126.602715,80.70528100000001 126.876214,80.480827 127.10066800000001,80.207328 127.267453,79.895295 127.370159,79.55672000000001 127.4,79.25374000000001 127.4,68.755486 127.370159,68.452506 127.267453,68.11393100000001 127.10066800000001,67.80189800000001 126.876214,67.52839900000001 126.602715,67.30394500000001 126.290682,67.13716000000001 125.95210700000001,67.03445400000001 125.64912700000001,67.004613 104.150873,67.004613 103.847893,67.03445400000001 103.50931800000001,67.13716000000001 103.19728500000001,67.30394500000001 102.923786,67.52839900000001 102.69933200000001,67.80189800000001 102.53254700000001,68.11393100000001 102.42984100000001,68.452506 102.4,68.755486 102.4,79.25374000000001" stroke="#1f6fb2" stroke-width="0.1" /><text fill="#0a3d62" font-family="sans-serif" font-size="1.6" text-anchor="middle" x="114.9" y="74.004613">05</text><polygon fill="#cfe3f7" fill-opacity="0.5" points="43.109812000000005,131.683744 43.108270000000005,131.19606299999998 43.12286,130.70108 43.152042,130.199229 43.194218,129.690976 43.247736,129.17680099999998 43.310889,128.657185 43.381927000000005,128.132598 43.459058,127.60349199999999 43.540457,127.07029499999999 43.748646,125.736566 30.845692,120.75768 30.206584,121.191791 30.003755,121.32827999999999 29.803425,121.460578 29.605097,121.58787699999999 29.408291,121.70942699999999 29.212533,121.82453899999999 29.016683,121.93295699999999 28.818733,122.035231 28.617676,122.13186999999999 28.4137,122.222781 28.207108,122.307819 27.998204,122.386843 27.787293000000002,122.45971999999999 27.574684,122.526321 27.360684,122.58652199999999 27.145601,122.64020799999999 26.929644,122.68728899999999 26.712166,122.72787799999999 26.492015000000002,122.76246499999999 26.268762000000002,122.79154 26.04241,122.815525 25.81299,122.834853 25.580557,122.849972 25.345178,122.861346 25.106932,122.869458 24.865904,122.87480599999999 24.622182000000002,122.87791 24.375856,122.879302 24.127012,122.879537 23.874323,122.87917999999999 23.874323,132.879181 43.157512,132.879181 43.109812000000005,131.683744 4.638833999999999,131.683744 4.640376,131.19606299999998 4.6257860000000015,130.70108 4.596603999999999,130.199229 4.5544280000000015,129.690976 4.500910000000001,129.17680099999998 4.437757000000001,128.657185 4.366719,128.132598 4.289588000000002,127.60349199999999 4.208189000000001,127.07029499999999 4.0,125.736566 16.902954,120.75768 17.542062,121.191791 17.744891,121.32827999999999 17.945221,121.460578 18.143549,121.58787699999999 18.340355000000002,121.70942699999999 18.536113,121.82453899999999 18.731963,121.93295699999999 18.929913,122.035231 19.13097,122.13186999999999 19.334946000000002,122.222781 19.541538,122.307819 19.750442,122.386843 19.961353000000003,122.45971999999999 20.173962,122.526321 20.387962,122.58652199999999 20.603045,122.64020799999999 20.819002,122.68728899999999 21.03648,122.72787799999999 21.256631,122.76246499999999 21.479884,122.79154 21.706236,122.815525 21.935656,122.834853 22.168089000000002,122.849972 22.403468,122.861346 22.641714,122.869458 22.882742,122.87480599999999 23.126464,122.87791 23.372790000000002,122.879302 23.621634,122.879537 23.874323,122.87917999999999 23.874323,132.879181 4.591134,132.879181 4.638833999999999,131.683744" stroke="#1f6fb2" stroke-width="0.1" /><text fill="#0a3d62" font-family="sans-serif" font-size="1.6" text-anchor="middle" x="23.874323" y="126.81843049999999">03</text><polygon fill="#cfe3f7" fill-opacity="0.5" points="67.404015,127.612657 67.895505,127.701954 68.387048,127.78615699999999 68.878641,127.865265 69.370282,127.93927599999999 69.86196699999999,128.008189 70.35369399999999,128.072003 70.84546,128.130716 71.337261,128.184328 71.829095,128.232837 72.320959,128.276243 72.812849,128.31454399999998 73.304762,128.34774 73.796695,128.37583 74.288645,128.398813 74.780608,128.41669 75.272582,128.429459 75.764562,128.437121 76.256545,128.439674 76.748528,128.437121 77.240508,128.429459 77.732482,128.41669 78.224445,128.398813 78.716395,128.37583 79.208328,128.34774 79.700241,128.31454399999998 80.19213099999999,128.276243 80.68399500000001,128.232837 81.175829,128.184328 81.66763,128.130716 82.159396,128.072003 82.651123,128.008189 83.142808,127.93927599999999 83.63444899999999,127.865265 84.126042,127.78615699999999 84.61758499999999,127.701954 85.10907499999999,127.612657 85.39342400000001,127.558043 87.445146,130.97758 88.50036399999999,130.578597 86.68727200000001,120.75768 85.21345600000001,121.05605299999999 84.741687,121.146665 84.269973,121.232368 83.79831200000001,121.313165 83.326701,121.389057 82.85513800000001,121.46004599999999 82.38361900000001,121.52613299999999 81.91214199999999,121.587319 81.440704,121.64360599999999 80.969301,121.694994 80.497931,121.741485 80.026591,121.78307899999999 79.55527699999999,121.819778 79.08398600000001,121.851582 78.61271500000001,121.878492 78.14146099999999,121.900509 77.67022,121.917632 77.19899000000001,121.929863 76.727766,121.93720099999999 76.256545,121.93964799999999 75.785324,121.93720099999999 75.3141,121.929863 74.84287,121.917632 74.371629,121.900509 73.900375,121.878492 73.429104,121.851582 72.957813,121.819778 72.486499,121.78307899999999 72.015159,121.741485 71.543789,121.694994 71.072386,121.64360599999999 70.600948,121.587319 70.129471,121.52613299999999 69.657952,121.46004599999999 69.18638899999999,121.389057 68.714778,121.313165 68.243117,121.232368 67.77140299999999,121.146665 67.299634,121.05605299999999 66.624505,120.91937399999999 66.624505,127.459948 66.91257999999999,127.51826899999999 67.404015,127.612657 65.844995,127.612657 65.353505,127.701954 64.861962,127.78615699999999 64.370369,127.865265 63.878727999999995,127.93927599999999 63.387043,128.008189 62.895316,128.072003 62.403549999999996,128.130716 61.911749,128.184328 61.419915,128.232837 60.928050999999996,128.276243 60.436161,128.31454399999998 59.944248,128.34774 59.452315,128.37583 58.960364999999996,128.398813 58.468402,128.41669 57.976428,128.429459 57.484448,128.437121 56.992464999999996,128.439674 56.500482,128.437121 56.008502,128.429459 55.516528,128.41669 55.024564999999996,128.398813 54.532615,128.37583 54.040682,128.34774 53.548769,128.31454399999998 53.056878999999995,128.276243 52.565015,128.232837 52.073181,128.184328 51.581379999999996,128.130716 51.089614,128.072003 50.597887,128.008189 50.106201999999996,127.93927599999999 49.614560999999995,127.865265 49.122968,127.78615699999999 48.631425,127.701954 48.139934999999994,127.612657 47.855586,127.558043 45.803864000000004,130.97758 44.748646,130.578597 46.561738,120.75768 48.035554,121.05605299999999 48.507323,121.146665 48.979037,121.232368 49.450698,121.313165 49.922309,121.389057 50.393872,121.46004599999999 50.865391,121.52613299999999 51.336867999999996,121.587319 51.808306,121.64360599999999 52.279709,121.694994 52.751079,121.741485 53.222419,121.78307899999999 53.693733,121.819778 54.165024,121.851582 54.636295,121.878492 55.107549,121.900509 55.57879,121.917632 56.05002,121.929863 56.521243999999996,121.93720099999999 56.992464999999996,121.93964799999999 57.463685999999996,121.93720099999999 57.93491,121.929863 58.40614,121.917632 58.877381,121.900509 59.348635,121.878492 59.819906,121.851582 60.291197,121.819778 60.762511,121.78307899999999 61.233851,121.741485 61.705220999999995,121.694994 62.176624000000004,121.64360599999999 62.648061999999996,121.587319 63.119539,121.52613299999999 63.591058000000004,121.46004599999999 64.06262100000001,121.389057 64.534232,121.313165 65.005893,121.232368 65.477607,121.146665 65.949376,121.05605299999999 66.624505,120.91937399999999 66.624505,127.459948 66.33643000000001,127.51826899999999 65.844995,127.612657" stroke="#1f6fb2" stroke-width="0.1" /><text fill="#0a3d62" font-family="sans-serif" font-size="1.6" text-anchor="middle" x="66.624505" y="125.86762999999999">07</text><polygon fill="#cfe3f7" fill-opacity="0.5" points="112.37654899999998,126.060222 112.90808399999999,126.131215 113.43964,126.19815399999999 113.971216,126.261038 114.50281199999999,126.31986699999999 115.034426,126.374641 115.56605699999999,126.42536 116.097704,126.472022 116.62936499999999,126.51462699999999 117.16103899999999,126.553176 117.692725,126.587668 118.22442199999999,126.61810299999999 118.75612799999999,126.64447999999999 119.28784199999998,126.6668 119.81956199999999,126.68506199999999 120.35128799999998,126.699265 120.88301799999999,126.70941099999999 121.41475,126.715498 121.946484,126.71752699999999 122.478218,126.715498 123.00994999999999,126.70941099999999 123.54167999999999,126.699265 124.07340599999999,126.68506199999999 124.60512599999998,126.6668 125.13683999999999,126.64447999999999 125.66854599999999,126.61810299999999 126.20024299999999,126.587668 126.731929,126.553176 127.26360299999999,126.51462699999999 127.79526399999999,126.472022 128.326911,126.42536 128.858542,126.374641 129.390156,126.31986699999999 129.921752,126.261038 130.453328,126.19815399999999 130.984884,126.131215 131.51641899999998,126.060222 132.04793,125.985176 133.42852399999998,125.779708 133.42852399999998,120.75768 131.76091399999999,121.00586399999999 131.24422099999998,121.078818 130.727552,121.147825 130.21090399999997,121.212886 129.694276,121.274002 129.17766799999998,121.33117299999999 128.66107799999997,121.38439899999999 128.14450499999998,121.43368 127.62794799999999,121.479018 127.11140499999999,121.52041299999999 126.59487499999999,121.557864 126.07835699999998,121.59137199999999 125.56184999999999,121.620937 125.045352,121.64656 124.52886199999999,121.66824 124.01237799999998,121.68597799999999 123.49589999999999,121.69977499999999 122.97942599999999,121.70962899999999 122.462954,121.715542 121.946484,121.717513 121.43001399999999,121.715542 120.91354199999999,121.70962899999999 120.39706799999999,121.69977499999999 119.88058999999998,121.68597799999999 119.36410599999999,121.66824 118.84761599999999,121.64656 118.33111799999999,121.620937 117.81461099999999,121.59137199999999 117.298093,121.557864 116.78156299999999,121.52041299999999 116.26501999999999,121.479018 115.74846299999999,121.43368 115.23188999999999,121.38439899999999 114.71529999999998,121.33117299999999 114.198692,121.274002 113.682064,121.212886 113.165416,121.147825 112.64874699999999,121.078818 112.13205399999998,121.00586399999999 111.46444399999999,120.906506 111.46444399999999,125.928534 111.84503799999999,125.985176 112.37654899999998,126.060222 110.55233899999999,126.060222 110.020804,126.131215 109.48924799999999,126.19815399999999 108.95767199999999,126.261038 108.426076,126.31986699999999 107.89446199999999,126.374641 107.36283099999999,126.42536 106.831184,126.472022 106.299523,126.51462699999999 105.76784899999998,126.553176 105.23616299999999,126.587668 104.704466,126.61810299999999 104.17275999999998,126.64447999999999 103.64104599999999,126.6668 103.109326,126.68506199999999 102.57759999999999,126.699265 102.04587,126.70941099999999 101.51413799999999,126.715498 100.98240399999999,126.71752699999999 100.45066999999999,126.715498 99.918938,126.70941099999999 99.38720799999999,126.699265 98.855482,126.68506199999999 98.32376199999999,126.6668 97.792048,126.64447999999999 97.260342,126.61810299999999 96.72864499999999,126.587668 96.19695899999999,126.553176 95.66528499999998,126.51462699999999 95.133624,126.472022 94.60197699999999,126.42536 94.07034599999999,126.374641 93.53873199999998,126.31986699999999 93.00713599999999,126.261038 92.47555999999999,126.19815399999999 91.94400399999999,126.131215 91.41246899999999,126.060222 90.88095799999999,125.985176 89.50036399999999,125.779708 89.50036399999999,120.75768 91.16797399999999,121.00586399999999 91.68466699999999,121.078818 92.201336,121.147825 92.71798399999999,121.212886 93.234612,121.274002 93.75121999999999,121.33117299999999 94.26781,121.38439899999999 94.78438299999999,121.43368 95.30094,121.479018 95.817483,121.52041299999999 96.33401299999998,121.557864 96.85053099999999,121.59137199999999 97.367038,121.620937 97.88353599999999,121.64656 98.400026,121.66824 98.91650999999999,121.68597799999999 99.432988,121.69977499999999 99.94946199999998,121.70962899999999 100.46593399999999,121.715542 100.98240399999999,121.717513 101.49887399999999,121.715542 102.015346,121.70962899999999 102.53181999999998,121.69977499999999 103.04829799999999,121.68597799999999 103.564782,121.66824 104.08127199999998,121.64656 104.59777,121.620937 105.11427699999999,121.59137199999999 105.63079499999999,121.557864 106.147325,121.52041299999999 106.663868,121.479018 107.18042499999999,121.43368 107.696998,121.38439899999999 108.21358799999999,121.33117299999999 108.73019599999999,121.274002 109.24682399999999,121.212886 109.763472,121.147825 110.28014099999999,121.078818 110.79683399999999,121.00586399999999 111.46444399999999,120.906506 111.46444399999999,125.928534 111.08384999999998,125.985176 110.55233899999999,126.060222" stroke="#1f6fb2" stroke-width="0.1" /><text fill="#0a3d62" font-family="sans-serif" font-size="1.6" text-anchor="middle" x="111.46444399999999" y="123.73760349999999">08</text><polygon fill="#cfe3f7" fill-opacity="0.5" points="134.42852399999998,124.40680699999999 134.45067899999998,124.63175 134.530622,124.895288 134.660443,125.138166 134.835153,125.351051 135.048038,125.52576099999999 135.29091599999998,125.655582 135.554454,125.735525 135.779397,125.75768 147.07765099999997,125.75768 147.30259399999997,125.735525 147.56613199999998,125.655582 147.80900999999997,125.52576099999999 148.02189499999997,125.351051 148.19660499999998,125.138166 148.32642599999997,124.895288 148.40636899999998,124.63175 148.42852399999998,124.40680699999999 148.42852399999998,122.108553 148.40636899999998,121.88360999999999 148.32642599999997,121.620072 148.19660499999998,121.37719399999999 148.02189499999997,121.16430899999999 147.80900999999997,120.989599 147.56613199999998,120.85977799999999 147.30259399999997,120.77983499999999 147.07765099999997,120.75768 135.779397,120.75768 135.554454,120.77983499999999 135.29091599999998,120.85977799999999 135.048038,120.989599 134.835153,121.16430899999999 134.660443,121.37719399999999 134.530622,121.620072 134.45067899999998,121.88360999999999 134.42852399999998,122.108553 134.42852399999998,124.40680699999999" stroke="#1f6fb2" stroke-width="0.1" /><text fill="#0a3d62" font-family="sans-serif" font-size="1.6" text-anchor="middle" x="141.42852399999998" y="123.25768">06</text><polygon fill="#cfe3f7" fill-opacity="0.5" points="4.0,137.52830799999998 4.022155,137.75325099999998 4.102098,138.016789 4.2319189999999995,138.25966699999998 4.406629,138.47255199999998 4.619514,138.64726199999998 4.862392,138.77708299999998 5.12593,138.857026 5.350873,138.879181 16.649127,138.879181 16.87407,138.857026 17.137608,138.77708299999998 17.380485999999998,138.64726199999998 17.593370999999998,138.47255199999998 17.768081000000002,138.25966699999998 17.897902000000002,138.016789 17.977845000000002,137.75325099999998 18.0,137.52830799999998 18.0,135.230054 17.977845000000002,135.005111 17.897902000000002,134.741573 17.768081000000002,134.498695 17.593370999999998,134.28581 17.380485999999998,134.1111 17.137608,133.981279 16.87407,133.901336 16.649127,133.879181 5.350873,133.879181 5.12593,133.901336 4.862392,133.981279 4.619514,134.1111 4.406629,134.28581 4.2319189999999995,134.498695 4.102098,134.741573 4.022155,135.005111 4.0,135.230054 4.0,137.52830799999998" stroke="#1f6fb2" stroke-width="0.1" /><text fill="#0a3d62" font-family="sans-serif" font-size="1.6" text-anchor="middle" x="11.0" y="136.379181">06</text></svg>