<?xml version="1.0" encoding="utf-8" ?>
<svg baseProfile="full" height="118.23768cm" version="1.1" viewBox="0 0 118.0 118.23768" width="118.0cm" xmlns="http://www.w3.org/2000/svg" xmlns:ev="http://www.w3.org/2001/xml-events" xmlns:xlink="http://www.w3.org/1999/xlink"><defs /><rect fill="#f7f3ea" height="110.23768" stroke="#333" stroke-width="0.15" width="110.0" x="4.0" y="4.0" /><text fill="#000" font-family="sans-serif" font-size="1.4" x="4.0" y="3.0">PLANO DE CORTE — ancho 110 cm — largo 1.10 m</text><polygon fill="#cfe3f7" fill-opacity="0.5" points="8.603537000000001,66.004613 34.432241,66.004613 39.044742,14.559622999999998 38.338398999999995,13.774989999999999 37.917592,13.312847999999999 37.488116,12.851835999999999 37.047919,12.395239 36.597245,11.9474 36.138323,11.51006 35.672148,11.082705 35.19934,10.664458 34.720508,10.254439 34.236247,9.851766999999999 33.747142,9.455561 33.253769,9.064943 32.756689,8.679036 32.255796000000004,8.296466 31.749057,7.915755 31.233977,7.538259 30.709418,7.1668959999999995 30.174402999999998,6.804792 29.6279,6.4551289999999995 29.068843,6.121163 28.496148,5.80625 27.908752,5.513857 27.305661,5.24759 26.687530000000002,5.011762 26.059449,4.809616 25.427158,4.638591 24.792906000000002,4.494111 24.158237,4.371542 23.52457,4.266382 22.893254,4.174272 22.265622,4.0909949999999995 21.544124,4.0 20.808963,4.05394 20.168217,4.104962 19.523647,4.164405 18.8764,4.236438 18.227627,4.325369 17.578525,4.435643 16.930396000000002,4.57184 16.284807,4.738636 15.645945000000001,4.939882 15.019679,5.174805 14.408314,5.439152 13.811256,5.729414 13.227674,6.042254 12.656686,6.374447 12.097394,6.722872 11.548913,7.084489 11.010392,7.456322999999999 10.481016,7.835451 9.959197,8.2196 9.441979,8.609293000000001 8.928751,9.007759 8.421351,9.417183999999999 7.9219930000000005,9.839547 7.432948,10.276864 6.956562,10.731176 6.495274,11.204525 6.051633000000001,11.698924 5.628798,12.215724 5.232445000000002,12.750982 4.862674000000002,13.294198000000002 4.513476000000001,13.837394 4.0,14.659607999999999 8.603537000000001,66.004613" stroke="#1f6fb2" stroke-width="0.1" /><text fill="#0a3d62" font-family="sans-serif" font-size="1.6" text-anchor="middle" x="21.522371" y="35.0023065">03</text><polygon fill="#cfe3f7" fill-opacity="0.5" points="44.648279,66.004613 70.47698299999999,66.004613 75.089484,14.559622999999998 74.383141,13.774989999999999 73.962334,13.312847999999999 73.532858,12.851835999999999 73.09266099999999,12.395239 72.641987,11.9474 72.183065,11.51006 71.71689,11.082705 71.24408199999999,10.664458 70.76525000000001,10.254439 70.280989,9.851766999999999 69.791884,9.455561 69.29851099999999,9.064943 68.80143100000001,8.679036 68.300538,8.296466 67.793799,7.915755 67.278719,7.538259 66.75416,7.1668959999999995 66.219145,6.804792 65.672642,6.4551289999999995 65.113585,6.121163 64.54089,5.80625 63.953494,5.513857 63.350403,5.24759 62.732272,5.011762 62.104191,4.809616 61.4719,4.638591 60.837648,4.494111 60.202979,4.371542 59.569312,4.266382 58.937996,4.174272 58.310364,4.0909949999999995 57.588865999999996,4.0 56.853705,4.05394 56.212959,4.104962 55.568388999999996,4.164405 54.921142,4.236438 54.272369,4.325369 53.623267,4.435643 52.975138,4.57184 52.329549,4.738636 51.690687,4.939882 51.064420999999996,5.174805 50.453056000000004,5.439152 49.855998,5.729414 49.272416,6.042254 48.701428,6.374447 48.142136,6.722872 47.593655,7.084489 47.055133999999995,7.456322999999999 46.525757999999996,7.835451 46.003939,8.2196 45.486721,8.609293000000001 44.973493,9.007759 44.466093,9.417183999999999 43.966735,9.839547 43.477689999999996,10.276864 43.001304,10.731176 42.540016,11.204525 42.096375,11.698924 41.67354,12.215724 41.277187,12.750982 40.907416,13.294198000000002 40.558218,13.837394 40.044742,14.659607999999999 44.648279,66.004613" stroke="#1f6fb2" stroke-width="0.1" /><text fill="#0a3d62" font-family="sans-serif" font-size="1.6" text-anchor="middle" x="57.567113" y="35.0023065">03</text><polygon fill="#cfe3f7" fill-opacity="0.5" points="39.302744000000004,105.356301 40.142874,114.23768000000001 53.451396,114.23768000000001 53.589365,111.62152700000001 53.679379999999995,109.954108 53.773468,108.288241 53.873692,106.62408300000001 53.982109,104.96178800000001 54.100787,103.301299 54.231159,101.64167900000001 54.371925000000005,99.981797 54.521052,98.321296 54.676486,96.660022 54.836169999999996,94.99782300000001 55.092934,92.359492 49.828261,91.73768000000001 56.005488,91.008086 54.402812,89.176267 54.049420999999995,88.77309600000001 53.693428,88.368449 53.334294,87.962462 52.971177,87.55493200000001 52.60324,87.145661 52.22965,86.734458 51.849587,86.321149 51.463158,85.906524 51.073819,85.49269600000001 50.687341,85.08065 50.308285,84.669914 49.941083,84.26008 49.590160999999995,83.85096 49.259889,83.442586 48.95452,83.035222 48.678084,82.629337 48.434264999999996,82.225553 48.226240000000004,81.82450100000001 48.056529999999995,81.426536 47.926131,81.028901 47.833144000000004,80.62353800000001 47.77439,80.20412800000001 47.748252,79.769209 47.753367999999995,79.318527 47.788292,78.85246000000001 47.851354,78.371835 47.940614,77.87775 48.053876,77.37142800000001 48.188717,76.85412400000001 48.342539,76.32706300000001 48.512609,75.791403 48.69609,75.24822 48.890078,74.69849900000001 49.091612,74.143134 49.623148,72.69823000000001 36.577433,67.004613 35.907292,67.89834400000001 35.711552999999995,68.159959 35.515738,68.42282300000001 35.320126,68.68714200000001 35.125,68.95312600000001 34.930644,69.220988 34.737347,69.490941 34.5454,69.763197 34.355098999999996,70.03797300000001 34.166740000000004,70.31548400000001 33.980626,70.595945 33.797063,70.87957300000001 33.616359,71.166582 33.438986,71.45692700000001 33.266047,71.74907 33.097822,72.040602 32.933493999999996,72.33027100000001 32.772019,72.617289 32.612397,72.900879 32.453671,73.180273 32.294928,73.45471500000001 32.135297,73.723465 31.973947,73.985803 31.810085,74.241038 31.64295,74.488521 31.471802,74.727654 31.295905,74.957919 31.113613,75.17998 30.922148,75.396822 30.720394,75.61117100000001 30.509022,75.82386500000001 30.288956,76.03556400000001 30.061186,76.24695600000001 30.002744,76.29975900000001 30.002744,114.23768000000001 38.462614,114.23768000000001 39.302744000000004,105.356301 20.702744,105.356301 19.862614,114.23768000000001 6.554092000000001,114.23768000000001 6.416122999999999,111.62152700000001 6.326108000000001,109.954108 6.232019999999999,108.288241 6.131796000000001,106.62408300000001 6.0233789999999985,104.96178800000001 5.904700999999999,103.301299 5.774329000000002,101.64167900000001 5.633562999999999,99.981797 5.484435999999999,98.321296 5.329001999999999,96.660022 5.1693180000000005,94.99782300000001 4.912554,92.359492 10.177226999999998,91.73768000000001 4.0,91.008086 5.602675999999999,89.176267 5.956067000000001,88.77309600000001 6.312059999999999,88.368449 6.671194,87.962462 7.034310999999999,87.55493200000001 7.402248,87.145661 7.775838,86.734458 8.155901,86.321149 8.54233,85.906524 8.931669,85.49269600000001 9.318147,85.08065 9.697202999999998,84.669914 10.064405,84.26008 10.415327000000001,83.85096 10.745598999999999,83.442586 11.050968000000001,83.035222 11.327404000000001,82.629337 11.571223,82.225553 11.779247999999999,81.82450100000001 11.948958000000001,81.426536 12.079356999999998,81.028901 12.172343999999999,80.62353800000001 12.231098,80.20412800000001 12.257235999999999,79.769209 12.252120000000001,79.318527 12.217196000000001,78.85246000000001 12.154133999999999,78.371835 12.064874,77.87775 11.951612,77.37142800000001 11.816771,76.85412400000001 11.662949000000001,76.32706300000001 11.492878999999999,75.791403 11.309398000000002,75.24822 11.11541,74.69849900000001 10.913875999999998,74.143134 10.38234,72.69823000000001 23.428055,67.004613 24.098196,67.89834400000001 24.293935,68.159959 24.48975,68.42282300000001 24.685361999999998,68.68714200000001 24.880488,68.95312600000001 25.074844,69.220988 25.268141,69.490941 25.460088,69.763197 25.650389,70.03797300000001 25.838748,70.31548400000001 26.024862,70.595945 26.208425,70.87957300000001 26.389129,71.166582 26.566502,71.45692700000001 26.739441,71.74907 26.907666,72.040602 27.071994,72.33027100000001 27.233469,72.617289 27.393091,72.900879 27.551817,73.180273 27.71056,73.45471500000001 27.870191,73.723465 28.031541,73.985803 28.195403,74.241038 28.362538,74.488521 28.533686,74.727654 28.709583,74.957919 28.891875,75.17998 29.08334,75.396822 29.285094,75.61117100000001 29.496465999999998,75.82386500000001 29.716532,76.03556400000001 29.944302,76.24695600000001 30.002744,76.29975900000001 30.002744,114.23768000000001 21.542873999999998,114.23768000000001 20.702744,105.356301" stroke="#1f6fb2" stroke-width="0.1" /><text fill="#0a3d62" font-family="sans-serif" font-size="1.6" text-anchor="middle" x="30.002744" y="90.62114650000001">01</text><polygon fill="#cfe3f7" fill-opacity="0.5" points="91.485177,105.06461800000001 92.37043299999999,111.13494200000001 105.483829,111.13494200000001 105.621798,108.51878900000001 105.711813,106.85137 105.805901,105.18550300000001 105.906125,103.52134500000001 106.014542,101.85905000000001 106.13322,100.19856100000001 106.263592,98.53894100000001 106.404358,96.87905900000001 106.553485,95.218558 106.70891900000001,93.55728400000001 106.86860300000001,91.89508500000001 107.064866,89.878423 106.580057,89.146967 106.291511,88.711352 106.003024,88.27528600000001 105.714545,87.83842200000001 105.426022,87.40041400000001 105.137403,86.960914 104.848637,86.519576 104.559681,86.076069 104.270923,85.630678 103.984156,85.184454 103.701898,84.73799400000001 103.426259,84.291246 103.159306,83.844164 102.90308,83.396747 102.65959000000001,82.94903500000001 102.430797,82.50110000000001 102.218607,82.053038 102.024851,81.60495 101.851272,81.156924 101.69951900000001,80.70899800000001 101.571122,80.26107 101.46707,79.811182 101.386628,79.355401 101.32801,78.891531 101.289819,78.41950600000001 101.270666,77.93950500000001 101.269124,77.451824 101.283714,76.95684100000001 101.312896,76.45499000000001 101.355072,75.94673700000001 101.40859,75.432562 101.471743,74.912946 101.542781,74.38835900000001 101.619912,73.85925300000001 101.701311,73.32605600000001 101.906412,72.012107 94.877899,69.10025 94.744021,69.376219 89.019542,67.004613 88.36743799999999,67.447552 88.164609,67.584041 87.964279,67.716339 87.765951,67.84363800000001 87.56914499999999,67.96518800000001 87.37338700000001,68.08030000000001 87.177537,68.18871800000001 86.97958700000001,68.290992 86.77853,68.387631 86.574554,68.478542 86.367962,68.56358 86.159058,68.642604 85.948147,68.71548100000001 85.735538,68.782082 85.52153799999999,68.84228300000001 85.306455,68.89596900000001 85.090498,68.94305 84.87302,68.98363900000001 84.65286900000001,69.01822600000001 84.42961600000001,69.047301 84.203264,69.071286 83.973844,69.090614 83.741411,69.105733 83.506032,69.117107 83.267786,69.125219 83.026758,69.13056700000001 82.78303600000001,69.133671 82.53671,69.135063 82.28786600000001,69.135298 82.035177,69.13494100000001 82.035177,111.13494200000001 90.599921,111.13494200000001 91.485177,105.06461800000001 72.585177,105.06461800000001 71.699921,111.13494200000001 58.586525,111.13494200000001 58.448555999999996,108.51878900000001 58.358541,106.85137 58.264453,105.18550300000001 58.164229000000006,103.52134500000001 58.055812,101.85905000000001 57.937134,100.19856100000001 57.806762000000006,98.53894100000001 57.665996,96.87905900000001 57.516869,95.218558 57.361435,93.55728400000001 57.201751,91.89508500000001 57.005488,89.878423 57.490297,89.146967 57.778843,88.711352 58.06733,88.27528600000001 58.355809,87.83842200000001 58.644332000000006,87.40041400000001 58.932951,86.960914 59.221717,86.519576 59.510673,86.076069 59.799431,85.630678 60.086197999999996,85.184454 60.368456,84.73799400000001 60.644095,84.291246 60.911048,83.844164 61.167274000000006,83.396747 61.410764,82.94903500000001 61.639556999999996,82.50110000000001 61.851747,82.053038 62.045503,81.60495 62.219082,81.156924 62.370835,80.70899800000001 62.499232,80.26107 62.603284,79.811182 62.683726,79.355401 62.742344,78.891531 62.780535,78.41950600000001 62.799688,77.93950500000001 62.801230000000004,77.451824 62.786640000000006,76.95684100000001 62.757458,76.45499000000001 62.715282,75.94673700000001 62.661764000000005,75.432562 62.598611000000005,74.912946 62.527573000000004,74.38835900000001 62.450442,73.85925300000001 62.369043000000005,73.32605600000001 62.163942000000006,72.012107 69.192455,69.10025 69.326333,69.376219 75.05081200000001,67.004613 75.702916,67.447552 75.905745,67.584041 76.106075,67.716339 76.30440300000001,67.84363800000001 76.501209,67.96518800000001 76.696967,68.08030000000001 76.89281700000001,68.18871800000001 77.090767,68.290992 77.291824,68.387631 77.4958,68.478542 77.702392,68.56358 77.911296,68.642604 78.122207,68.71548100000001 78.334816,68.782082 78.548816,68.84228300000001 78.76389900000001,68.89596900000001 78.979856,68.94305 79.197334,68.98363900000001 79.417485,69.01822600000001 79.640738,69.047301 79.86709,69.071286 80.09651,69.090614 80.32894300000001,69.105733 80.564322,69.117107 80.80256800000001,69.125219 81.04359600000001,69.13056700000001 81.287318,69.133671 81.53364400000001,69.135063 81.782488,69.135298 82.035177,69.13494100000001 82.035177,111.13494200000001 73.470433,111.13494200000001 72.585177,105.06461800000001" stroke="#1f6fb2" stroke-width="0.1" /><text fill="#0a3d62" font-family="sans-serif" font-size="1.6" text-anchor="middle" x="82.035177" y="89.06977750000001">02</text></svg>