<?xml version="1.0" encoding="utf-8" ?>
<svg baseProfile="full" height="167.605597819596cm" version="1.1" viewBox="0 0 118.0 167.605597819596" width="118.0cm" xmlns="http://www.w3.org/2000/svg" xmlns:ev="http://www.w3.org/2001/xml-events" xmlns:xlink="http://www.w3.org/1999/xlink"><defs /><rect fill="#f7f3ea" height="159.605597819596" stroke="#333" stroke-width="0.15" width="110.0" x="4.0" y="4.0" /><text fill="#000" font-family="sans-serif" font-size="1.4" x="4.0" y="3.0">PLANO DE CORTE — ancho 110 cm — largo 1.60 m</text><polygon fill="#cfe3f7" fill-opacity="0.5" points="54.0,16.698688 53.54488,16.012025 53.256333999999995,15.57641 52.967847,15.140343999999999 52.679368,14.703479999999999 52.390845,14.265471999999999 52.102226,13.825972 51.81346,13.384633999999998 51.524504,12.941127000000002 51.235746,12.495736 50.948979,12.049512 50.666720999999995,11.603052000000002 50.391082,11.156303999999999 50.124128999999996,10.709222 49.867903,10.261805 49.624413000000004,9.814093 49.39562,9.366158 49.18343,8.918096 48.989674,8.470008 48.816095000000004,8.021982 48.664342000000005,7.574056000000001 48.535945,7.126128 48.431893,6.67624 48.351451,6.220459 48.292833,5.756589 48.254642000000004,5.284564 48.203385999999995,4.0 29.0,4.0 29.0,65.5 54.0,65.5 54.0,16.698688 4.0,16.698688 4.455120000000001,16.012025 4.743666000000001,15.57641 5.032153000000001,15.140343999999999 5.320632,14.703479999999999 5.609155000000001,14.265471999999999 5.897773999999998,13.825972 6.186540000000001,13.384633999999998 6.475496,12.941127000000002 6.764254000000001,12.495736 7.051020999999999,12.049512 7.333279000000001,11.603052000000002 7.608917999999999,11.156303999999999 7.875871,10.709222 8.132097000000002,10.261805 8.375587,9.814093 8.604379999999999,9.366158 8.816569999999999,8.918096 9.010326,8.470008 9.183905,8.021982 9.335657999999999,7.574056000000001 9.464054999999998,7.126128 9.568107000000001,6.67624 9.648549,6.220459 9.707166999999998,5.756589 9.745358,5.284564 9.796614000000002,4.0 29.0,4.0 29.0,65.5 4.0,65.5 4.0,16.698688" stroke="#1f6fb2" stroke-width="0.1" /><text fill="#0a3d62" font-family="sans-serif" font-size="1.6" text-anchor="middle" x="29.0" y="34.75">02</text><polygon fill="#cfe3f7" fill-opacity="0.5" points="58.103537,66.004613 83.932241,66.004613 88.544742,14.559622999999998 87.838399,13.774989999999999 87.417592,13.312847999999999 86.98811599999999,12.851835999999999 86.54791900000001,12.395239 86.097245,11.9474 85.638323,11.51006 85.17214799999999,11.082705 84.69934,10.664458 84.220508,10.254439 83.73624699999999,9.851766999999999 83.247142,9.455561 82.753769,9.064943 82.256689,8.679036 81.755796,8.296466 81.249057,7.915755 80.733977,7.538259 80.209418,7.1668959999999995 79.674403,6.804792 79.1279,6.4551289999999995 78.568843,6.121163 77.996148,5.80625 77.40875199999999,5.513857 76.805661,5.24759 76.18753000000001,5.011762 75.559449,4.809616 74.92715799999999,4.638591 74.292906,4.494111 73.658237,4.371542 73.02457,4.266382 72.393254,4.174272 71.76562200000001,4.0909949999999995 71.044124,4.0 70.308963,4.05394 69.668217,4.104962 69.023647,4.164405 68.3764,4.236438 67.727627,4.325369 67.078525,4.435643 66.430396,4.57184 65.784807,4.738636 65.145945,4.939882 64.519679,5.174805 63.908314000000004,5.439152 63.311256,5.729414 62.727674,6.042254 62.156686,6.374447 61.597394,6.722872 61.048913,7.084489 60.510391999999996,7.456322999999999 59.981016,7.835451 59.459197,8.2196 58.941979,8.609293000000001 58.428751,9.007759 57.921351,9.417183999999999 57.421993,9.839547 56.932947999999996,10.276864 56.456562,10.731176 55.995274,11.204525 55.551633,11.698924 55.128798,12.215724 54.732445,12.750982 54.362674,13.294198000000002 54.013476,13.837394 53.5,14.659607999999999 58.103537,66.004613" stroke="#1f6fb2" stroke-width="0.1" /><text fill="#0a3d62" font-family="sans-serif" font-size="1.6" text-anchor="middle" x="71.02237099999999" y="35.0023065">04</text><polygon fill="#cfe3f7" fill-opacity="0.5" points="82.103537,124.25088208264162 107.932241,124.25088208264162 112.544742,72.80589208264163 111.838399,72.02125908264163 111.417592,71.55911708264163 110.98811599999999,71.09810508264164 110.54791900000001,70.64150808264164 110.097245,70.19366908264163 109.638323,69.75632908264163 109.17214799999999,69.32897408264164 108.69934,68.91072708264163 108.220508,68.50070808264164 107.73624699999999,68.09803608264163 107.247142,67.70183008264164 106.753769,67.31121208264163 106.256689,66.92530508264163 105.755796,66.54273508264163 105.249057,66.16202408264164 104.733977,65.78452808264163 104.209418,65.41316508264163 103.674403,65.05106108264164 103.1279,64.70139808264163 102.568843,64.36743208264163 101.996148,64.05251908264164 101.40875199999999,63.760126082641634 100.805661,63.493859082641634 100.18753000000001,63.25803108264163 99.559449,63.05588508264163 98.92715799999999,62.88486008264163 98.292906,62.74038008264163 97.658237,62.61781108264163 97.02457,62.51265108264163 96.393254,62.420541082641634 95.76562200000001,62.33726408264163 95.044124,62.24626908264163 94.308963,62.30020908264163 93.668217,62.35123108264163 93.023647,62.410674082641634 92.3764,62.48270708264163 91.727627,62.571638082641634 91.078525,62.68191208264163 90.430396,62.818109082641634 89.784807,62.98490508264163 89.145945,63.18615108264163 88.519679,63.42107408264163 87.908314,63.68542108264163 87.311256,63.97568308264163 86.72767400000001,64.28852308264163 86.15668600000001,64.62071608264164 85.597394,64.96914108264163 85.048913,65.33075808264164 84.510392,65.70259208264163 83.981016,66.08172008264164 83.459197,66.46586908264163 82.941979,66.85556208264163 82.428751,67.25402808264164 81.921351,67.66345308264164 81.421993,68.08581608264163 80.932948,68.52313308264164 80.456562,68.97744508264164 79.995274,69.45079408264164 79.551633,69.94519308264164 79.128798,70.46199308264163 78.732445,70.99725108264164 78.362674,71.54046708264164 78.013476,72.08366308264164 77.5,72.90587708264164 82.103537,124.25088208264162" stroke="#1f6fb2" stroke-width="0.1" /><text fill="#0a3d62" font-family="sans-serif" font-size="1.6" text-anchor="middle" x="95.02237099999999" y="93.24857558264164">04</text><polygon fill="#cfe3f7" fill-opacity="0.5" points="44.5,136.86453422178587 72.2,136.86453422178587 72.2,87.98882822178587 71.600068,87.30312122178586 71.246677,86.89995022178587 70.890684,86.49530322178586 70.53155,86.08931622178586 70.168433,85.68178622178587 69.800496,85.27251522178587 69.426906,84.86131222178587 69.046843,84.44800322178587 68.660414,84.03337822178587 68.271075,83.61955022178587 67.884597,83.20750422178587 67.505541,82.79676822178587 67.138339,82.38693422178586 66.787417,81.97781422178586 66.457145,81.56944022178587 66.151776,81.16207622178587 65.87534,80.75619122178587 65.63152099999999,80.35240722178587 65.423496,79.95135522178587 65.25378599999999,79.55339022178586 65.12338700000001,79.15575522178587 65.0304,78.75039222178587 64.97164599999999,78.33098222178587 64.945508,77.89606322178587 64.950624,77.44538122178587 64.985548,76.97931422178587 65.04861,76.49868922178587 65.13786999999999,76.00460422178587 65.251132,75.49828222178587 65.385973,74.98097822178588 65.539795,74.45391722178587 65.70986500000001,73.91825722178586 65.893346,73.37507422178587 66.087334,72.82535322178587 66.28886800000001,72.26998822178587 66.820404,70.82508422178587 53.774689,65.13146722178587 53.104548,66.02519822178587 52.908809,66.28681322178586 52.712994,66.54967722178587 52.517382,66.81399622178587 52.322256,67.07998022178587 52.1279,67.34784222178587 51.934603,67.61779522178587 51.742656,67.89005122178587 51.552355,68.16482722178587 51.363996,68.44233822178587 51.177882,68.72279922178586 50.994319000000004,69.00642722178587 50.813615,69.29343622178587 50.636242,69.58378122178587 50.463302999999996,69.87592422178587 50.295078000000004,70.16745622178587 50.13075,70.45712522178587 49.969274999999996,70.74414322178586 49.809653,71.02773322178587 49.650927,71.30712722178586 49.492184,71.58156922178587 49.332553000000004,71.85031922178587 49.171203,72.11265722178587 49.007341,72.36789222178587 48.840206,72.61537522178587 48.669058,72.85450822178586 48.493161,73.08477322178587 48.310869,73.30683422178586 48.119404,73.52367622178586 47.91765,73.73802522178588 47.706278,73.95071922178587 47.486212,74.16241822178587 47.258442,74.37381022178587 47.024011,74.58562222178587 46.822425,74.76453422178587 44.5,74.76453422178587 44.5,136.86453422178587" stroke="#1f6fb2" stroke-width="0.1" /><text fill="#0a3d62" font-family="sans-serif" font-size="1.6" text-anchor="middle" x="58.35" y="100.99800072178587">01</text><polygon fill="#cfe3f7" fill-opacity="0.5" points="4.0,138.0256242657469 31.7,138.0256242657469 31.7,89.14991826574688 31.100068,88.46421126574688 30.746677,88.06104026574688 30.390684,87.65639326574689 30.03155,87.25040626574688 29.668433,86.84287626574688 29.300496,86.43360526574688 28.926906,86.02240226574688 28.546843,85.60909326574688 28.160414,85.19446826574688 27.771075,84.78064026574688 27.384597,84.36859426574688 27.005541,83.95785826574688 26.638339,83.54802426574688 26.287416999999998,83.13890426574687 25.957145,82.73053026574688 25.651775999999998,82.32316626574688 25.375339999999998,81.91728126574688 25.131521,81.51349726574688 24.923496,81.11244526574689 24.753785999999998,80.71448026574689 24.623387,80.31684526574688 24.5304,79.91148226574688 24.471646,79.49207226574688 24.445508,79.05715326574688 24.450623999999998,78.60647126574688 24.485547999999998,78.14040426574688 24.54861,77.65977926574688 24.63787,77.16569426574688 24.751132,76.65937226574688 24.885973,76.14206826574687 25.039794999999998,75.61500726574688 25.209865,75.07934726574688 25.393345999999998,74.53616426574688 25.587334,73.98644326574689 25.788868,73.43107826574688 26.320404,71.98617426574688 13.274689,66.29255726574688 12.604548000000001,67.18628826574688 12.408809,67.44790326574687 12.212994,67.71076726574688 12.017382000000001,67.97508626574688 11.822256,68.24107026574688 11.6279,68.50893226574688 11.434603,68.77888526574688 11.242656,69.05114126574688 11.052355,69.32591726574688 10.863996,69.60342826574689 10.677882,69.88388926574687 10.494319,70.16751726574688 10.313615,70.45452626574688 10.136242,70.74487126574688 9.963303,71.03701426574688 9.795078,71.32854626574688 9.63075,71.61821526574688 9.469275,71.90523326574689 9.309653,72.18882326574688 9.150927,72.46821726574687 8.992184,72.74265926574688 8.832553,73.01140926574688 8.671203,73.27374726574688 8.507341,73.52898226574688 8.340206,73.77646526574688 8.169058,74.01559826574687 7.993161000000001,74.24586326574688 7.810869,74.46792426574687 7.619404,74.68476626574687 7.41765,74.89911526574687 7.206278,75.11180926574688 6.986212,75.32350826574688 6.7584420000000005,75.53490026574688 6.524011,75.74671226574688 6.322425,75.92562426574688 4.0,75.92562426574688 4.0,138.0256242657469" stroke="#1f6fb2" stroke-width="0.1" /><text fill="#0a3d62" font-family="sans-serif" font-size="1.6" text-anchor="middle" x="17.85" y="102.15909076574688">01</text><polygon fill="#cfe3f7" fill-opacity="0.5" points="31.0,136.54303441099592 39.007220000000004,136.54303441099592 38.601177,80.10310241099593 42.824922,67.53746141099593 40.300661,66.27533041099593 39.604548,67.20369841099594 39.408809,67.46531341099593 39.212994,67.72817741099594 39.017382,67.99249641099594 38.822256,68.25848041099593 38.6279,68.52634241099594 38.434603,68.79629541099594 38.242656,69.06855141099594 38.052355,69.34332741099594 37.863996,69.62083841099593 37.677882,69.90129941099593 37.494319000000004,70.18492741099594 37.313615,70.47193641099594 37.136242,70.76228141099594 36.963302999999996,71.05442441099594 36.795078000000004,71.34595641099594 36.63075,71.63562541099593 36.469274999999996,71.92264341099593 36.309653,72.20623341099594 36.150927,72.48562741099593 35.992184,72.76006941099594 35.832553000000004,73.02881941099594 35.671203,73.29115741099594 35.507341,73.54639241099594 35.340206,73.79387541099594 35.169058,74.03300841099593 34.993161,74.26327341099594 34.810869,74.48533441099593 34.619404,74.70217641099593 34.41765,74.91652541099593 34.206278,75.12921941099593 33.986212,75.34091841099594 33.758442,75.55231041099593 33.524011,75.76412241099594 33.322425,75.94303441099593 31.0,75.94303441099593 31.0,136.54303441099592" stroke="#1f6fb2" stroke-width="0.1" /><text fill="#0a3d62" font-family="sans-serif" font-size="1.6" text-anchor="middle" x="36.912461" y="101.40918241099592">09</text><polygon fill="#cfe3f7" fill-opacity="0.5" points="78.824922,82.27091330370382 70.817702,82.27091330370382 71.22374500000001,138.71084530370382 67.0,151.27648630370382 69.524261,152.5386173037038 70.22037399999999,151.61024930370382 70.416113,151.34863430370382 70.611928,151.0857703037038 70.80754,150.8214513037038 71.002666,150.55546730370384 71.197022,150.2876053037038 71.390319,150.0176523037038 71.582266,149.7453963037038 71.772567,149.4706203037038 71.960926,149.1931093037038 72.14704,148.9126483037038 72.330603,148.6290203037038 72.511307,148.34201130370383 72.68868,148.05166630370383 72.861619,147.75952330370382 73.029844,147.4679913037038 73.194172,147.17832230370382 73.355647,146.8913043037038 73.515269,146.6077143037038 73.673995,146.32832030370383 73.832738,146.0538783037038 73.992369,145.7851283037038 74.153719,145.5227903037038 74.317581,145.26755530370383 74.484716,145.0200723037038 74.65586400000001,144.7809393037038 74.831761,144.55067430370383 75.014053,144.32861330370383 75.205518,144.11177130370382 75.407272,143.89742230370382 75.618644,143.68472830370382 75.83871,143.4730293037038 76.06648,143.26163730370382 76.300911,143.0498253037038 76.502497,142.87091330370382 78.824922,142.87091330370382 78.824922,82.27091330370382" stroke="#1f6fb2" stroke-width="0.1" /><text fill="#0a3d62" font-family="sans-serif" font-size="1.6" text-anchor="middle" x="72.91246100000001" y="117.40476530370381">09</text><polygon fill="#cfe3f7" fill-opacity="0.5" points="61.109812000000005,148.44165127204957 61.108270000000005,147.95397027204956 61.12286,147.45898727204957 61.152042,146.95713627204958 61.194218,146.44888327204959 61.247736,145.93470827204956 61.310889,145.41509227204958 61.381927000000005,144.89050527204958 61.459058,144.36139927204957 61.540457,143.82820227204957 61.748646,142.49447327204956 48.845692,137.51558727204957 48.206584,137.94969827204957 48.003755,138.08618727204959 47.803425000000004,138.21848527204958 47.605097,138.34578427204957 47.408291,138.46733427204958 47.212533,138.58244627204957 47.016683,138.69086427204957 46.818733,138.79313827204956 46.617676,138.88977727204957 46.4137,138.98068827204958 46.207108000000005,139.06572627204957 45.998204,139.14475027204958 45.787293000000005,139.21762727204958 45.574684000000005,139.28422827204957 45.360684,139.34442927204958 45.145601,139.39811527204958 44.929643999999996,139.44519627204957 44.712165999999996,139.48578527204958 44.492015,139.52037227204957 44.268762,139.54944727204958 44.042410000000004,139.57343227204956 43.81299,139.59276027204956 43.580557,139.60787927204956 43.345178000000004,139.61925327204958 43.106932,139.62736527204956 42.865904,139.63271327204959 42.622182,139.63581727204956 42.375856,139.63720927204957 42.127012,139.63744427204958 41.874323000000004,139.63708727204957 41.874323000000004,149.63708827204957 61.157512,149.63708827204957 61.109812000000005,148.44165127204957 22.638834,148.44165127204957 22.640376,147.95397027204956 22.625786,147.45898727204957 22.596604,146.95713627204958 22.554428,146.44888327204959 22.50091,145.93470827204956 22.437757,145.41509227204958 22.366719,144.89050527204958 22.289588000000002,144.36139927204957 22.208189,143.82820227204957 22.0,142.49447327204956 34.902954,137.51558727204957 35.542062,137.94969827204957 35.744890999999996,138.08618727204959 35.945221000000004,138.21848527204958 36.143549,138.34578427204957 36.340355,138.46733427204958 36.536113,138.58244627204957 36.731963,138.69086427204957 36.929913,138.79313827204956 37.130970000000005,138.88977727204957 37.334946,138.98068827204958 37.541538,139.06572627204957 37.750442,139.14475027204958 37.961353,139.21762727204958 38.173962,139.28422827204957 38.387962,139.34442927204958 38.603045,139.39811527204958 38.819002,139.44519627204957 39.03648,139.48578527204958 39.256631,139.52037227204957 39.479884,139.54944727204958 39.706236000000004,139.57343227204956 39.935656,139.59276027204956 40.168089,139.60787927204956 40.403468000000004,139.61925327204958 40.641714,139.62736527204956 40.882742,139.63271327204959 41.126464,139.63581727204956 41.37279,139.63720927204957 41.621634,139.63744427204958 41.874323000000004,139.63708727204957 41.874323000000004,149.63708827204957 22.591134,149.63708827204957 22.638834,148.44165127204957" stroke="#1f6fb2" stroke-width="0.1" /><text fill="#0a3d62" font-family="sans-serif" font-size="1.6" text-anchor="middle" x="41.874323000000004" y="143.57633777204958">03</text><polygon fill="#cfe3f7" fill-opacity="0.5" points="40.096349000000004,151.5911777037104 39.604859,151.50188070371038 39.113316,151.4176777037104 38.621723,151.3385697037104 38.130082,151.2645587037104 37.638397,151.1956457037104 37.14667,151.1318317037104 36.654904,151.0731187037104 36.163103,151.0195067037104 35.671268999999995,150.9709977037104 35.179405,150.9275917037104 34.687515,150.8892907037104 34.195601999999994,150.8560947037104 33.703669,150.8280047037104 33.211719,150.8050217037104 32.719756,150.7871447037104 32.227782,150.7743757037104 31.735802,150.7667137037104 31.243819,150.7641607037104 30.751835999999997,150.7667137037104 30.259856,150.7743757037104 29.767882,150.7871447037104 29.275919000000002,150.8050217037104 28.783969,150.8280047037104 28.292035999999996,150.8560947037104 27.800123,150.8892907037104 27.308233,150.9275917037104 26.816368999999995,150.9709977037104 26.324534999999997,151.0195067037104 25.832734000000002,151.0731187037104 25.340967999999997,151.1318317037104 24.849241,151.1956457037104 24.357556000000002,151.2645587037104 23.865915,151.3385697037104 23.374322,151.4176777037104 22.882779,151.50188070371038 22.391289,151.5911777037104 22.106939999999994,151.6457917037104 20.055217999999996,148.2262547037104 19.0,148.6252377037104 20.813091999999997,158.4461547037104 22.286907999999997,158.1477817037104 22.758677,158.0571697037104 23.230390999999997,157.9714667037104 23.702051999999995,157.8906697037104 24.173662999999998,157.8147777037104 24.645225999999994,157.7437887037104 25.116744999999995,157.6777017037104 25.588222000000002,157.6165157037104 26.05966,157.5602287037104 26.531062999999996,157.5088407037104 27.002432999999996,157.4623497037104 27.473772999999994,157.4207557037104 27.945087,157.3840567037104 28.416377999999995,157.3522527037104 28.887648999999996,157.3253427037104 29.358902999999998,157.30332570371039 29.830143999999997,157.2862027037104 30.301373999999996,157.2739717037104 30.772598,157.2666337037104 31.243819,157.2641867037104 31.71504,157.2666337037104 32.186263999999994,157.2739717037104 32.657494,157.2862027037104 33.128735,157.30332570371039 33.599988999999994,157.3253427037104 34.071259999999995,157.3522527037104 34.542551,157.3840567037104 35.013864999999996,157.4207557037104 35.485205,157.4623497037104 35.956575,157.5088407037104 36.427977999999996,157.5602287037104 36.899416,157.6165157037104 37.370892999999995,157.6777017037104 37.842411999999996,157.7437887037104 38.313975,157.8147777037104 38.785585999999995,157.8906697037104 39.257247,157.9714667037104 39.728961,158.0571697037104 40.20073,158.1477817037104 40.875859,158.2844607037104 40.875859,151.7438867037104 40.587784,151.6855657037104 40.096349000000004,151.5911777037104 41.65536899999999,151.5911777037104 42.146859,151.50188070371038 42.638402,151.4176777037104 43.129994999999994,151.3385697037104 43.621635999999995,151.2645587037104 44.113321,151.1956457037104 44.605048,151.1318317037104 45.096813999999995,151.0731187037104 45.588615,151.0195067037104 46.080449,150.9709977037104 46.572312999999994,150.9275917037104 47.064203,150.8892907037104 47.556116,150.8560947037104 48.048049,150.8280047037104 48.539998999999995,150.8050217037104 49.031962,150.7871447037104 49.523936,150.7743757037104 50.015916,150.7667137037104 50.507898999999995,150.7641607037104 50.999882,150.7667137037104 51.491862,150.7743757037104 51.983836,150.7871447037104 52.475798999999995,150.8050217037104 52.967749,150.8280047037104 53.459682,150.8560947037104 53.951595,150.8892907037104 54.443484999999995,150.9275917037104 54.935349,150.9709977037104 55.427183,151.0195067037104 55.918983999999995,151.0731187037104 56.41075,151.1318317037104 56.902477,151.1956457037104 57.394161999999994,151.2645587037104 57.885802999999996,151.3385697037104 58.377396,151.4176777037104 58.868939,151.50188070371038 59.360428999999996,151.5911777037104 59.644778,151.6457917037104 61.6965,148.2262547037104 62.751718,148.6252377037104 60.938626,158.4461547037104 59.46481,158.1477817037104 58.993041,158.0571697037104 58.521327,157.9714667037104 58.049666,157.8906697037104 57.578055,157.8147777037104 57.106492,157.7437887037104 56.634973,157.6777017037104 56.163495999999995,157.6165157037104 55.692057999999996,157.5602287037104 55.220655,157.5088407037104 54.749285,157.4623497037104 54.277945,157.4207557037104 53.806630999999996,157.3840567037104 53.33534,157.3522527037104 52.864069,157.3253427037104 52.392815,157.30332570371039 51.921574,157.2862027037104 51.450344,157.2739717037104 50.979119999999995,157.2666337037104 50.507898999999995,157.2641867037104 50.036677999999995,157.2666337037104 49.565454,157.2739717037104 49.094224,157.2862027037104 48.622983,157.30332570371039 48.151729,157.3253427037104 47.680458,157.3522527037104 47.209166999999994,157.3840567037104 46.737853,157.4207557037104 46.266512999999996,157.4623497037104 45.795142999999996,157.5088407037104 45.32374,157.5602287037104 44.852301999999995,157.6165157037104 44.380825,157.6777017037104 43.909306,157.7437887037104 43.437743,157.8147777037104 42.966132,157.8906697037104 42.494471,157.9714667037104 42.022757,158.0571697037104 41.550988,158.1477817037104 40.875859,158.2844607037104 40.875859,151.7438867037104 41.163934,151.6855657037104 41.65536899999999,151.5911777037104" stroke="#1f6fb2" stroke-width="0.1" /><text fill="#0a3d62" font-family="sans-serif" font-size="1.6" text-anchor="middle" x="40.875859" y="153.3362047037104">07</text><polygon fill="#cfe3f7" fill-opacity="0.5" points="79.0,137.5000090826416 79.029841,137.80298908264163 79.132547,138.14156408264162 79.299332,138.45359708264164 79.523786,138.72709608264162 79.797285,138.95155008264163 80.109318,139.11833508264164 80.447893,139.22104108264162 80.750873,139.25088208264162 102.249127,139.25088208264162 102.552107,139.22104108264162 102.890682,139.11833508264164 103.202715,138.95155008264163 103.476214,138.72709608264162 103.70066800000001,138.45359708264164 103.867453,138.14156408264162 103.970159,137.80298908264163 104.0,137.5000090826416 104.0,127.00175508264162 103.970159,126.69877508264162 103.867453,126.36020008264163 103.70066800000001,126.04816708264163 103.476214,125.77466808264163 103.202715,125.55021408264163 102.890682,125.38342908264163 102.552107,125.28072308264163 102.249127,125.25088208264162 80.750873,125.25088208264162 80.447893,125.28072308264163 80.109318,125.38342908264163 79.797285,125.55021408264163 79.523786,125.77466808264163 79.299332,126.04816708264163 79.132547,126.36020008264163 79.029841,126.69877508264162 79.0,127.00175508264162 79.0,137.5000090826416" stroke="#1f6fb2" stroke-width="0.1" /><text fill="#0a3d62" font-family="sans-serif" font-size="1.6" text-anchor="middle" x="91.5" y="132.25088208264162">05</text><polygon fill="#cfe3f7" fill-opacity="0.5" points="79.0,152.5000090826416 79.029841,152.80298908264163 79.132547,153.14156408264162 79.299332,153.45359708264164 79.523786,153.72709608264162 79.797285,153.95155008264163 80.109318,154.11833508264164 80.447893,154.22104108264162 80.750873,154.25088208264162 102.249127,154.25088208264162 102.552107,154.22104108264162 102.890682,154.11833508264164 103.202715,153.95155008264163 103.476214,153.72709608264162 103.70066800000001,153.45359708264164 103.867453,153.14156408264162 103.970159,152.80298908264163 104.0,152.5000090826416 104.0,142.00175508264164 103.970159,141.69877508264162 103.867453,141.36020008264163 103.70066800000001,141.0481670826416 103.476214,140.77466808264163 103.202715,140.55021408264162 102.890682,140.3834290826416 102.552107,140.28072308264163 102.249127,140.25088208264162 80.750873,140.25088208264162 80.447893,140.28072308264163 80.109318,140.3834290826416 79.797285,140.55021408264162 79.523786,140.77466808264163 79.299332,141.0481670826416 79.132547,141.36020008264163 79.029841,141.69877508264162 79.0,142.00175508264164 79.0,152.5000090826416" stroke="#1f6fb2" stroke-width="0.1" /><text fill="#0a3d62" font-family="sans-serif" font-size="1.6" text-anchor="middle" x="91.5" y="147.25088208264162">05</text><polygon fill="#cfe3f7" fill-opacity="0.5" points="83.87618499999999,160.37273732465417 84.40772,160.44373032465418 84.939276,160.51066932465417 85.47085200000001,160.57355332465417 86.002448,160.63238232465417 86.534062,160.68715632465418 87.065693,160.73787532465417 87.59734,160.78453732465417 88.129001,160.82714232465418 88.660675,160.86569132465416 89.192361,160.90018332465417 89.724058,160.93061832465418 90.255764,160.95699532465417 90.787478,160.97931532465418 91.319198,160.99757732465417 91.85092399999999,161.01178032465418 92.382654,161.02192632465417 92.91438600000001,161.02801332465418 93.44612000000001,161.03004232465418 93.97785400000001,161.02801332465418 94.509586,161.02192632465417 95.041316,161.01178032465418 95.573042,160.99757732465417 96.104762,160.97931532465418 96.636476,160.95699532465417 97.168182,160.93061832465418 97.699879,160.90018332465417 98.231565,160.86569132465416 98.763239,160.82714232465418 99.2949,160.78453732465417 99.826547,160.73787532465417 100.358178,160.68715632465418 100.889792,160.63238232465417 101.42138800000001,160.57355332465417 101.952964,160.51066932465417 102.48452,160.44373032465418 103.016055,160.37273732465417 103.547566,160.29769132465418 104.92815999999999,160.09222332465419 104.92815999999999,155.07019532465418 103.26055,155.3183793246542 102.74385699999999,155.39133332465417 102.227188,155.46034032465417 101.71054,155.52540132465418 101.193912,155.58651732465418 100.67730399999999,155.6436883246542 100.160714,155.6969143246542 99.64414099999999,155.74619532465417 99.127584,155.79153332465418 98.611041,155.83292832465418 98.094511,155.87037932465418 97.57799299999999,155.9038873246542 97.061486,155.93345232465418 96.544988,155.95907532465418 96.028498,155.98075532465418 95.512014,155.9984933246542 94.995536,156.01229032465417 94.479062,156.0221443246542 93.96259,156.02805732465418 93.44612000000001,156.03002832465418 92.92965,156.02805732465418 92.413178,156.0221443246542 91.896704,156.01229032465417 91.380226,155.9984933246542 90.863742,155.98075532465418 90.347252,155.95907532465418 89.830754,155.93345232465418 89.314247,155.9038873246542 88.797729,155.87037932465418 88.281199,155.83292832465418 87.764656,155.79153332465418 87.248099,155.74619532465417 86.731526,155.6969143246542 86.214936,155.6436883246542 85.698328,155.58651732465418 85.1817,155.52540132465418 84.665052,155.46034032465417 84.148383,155.39133332465417 83.63168999999999,155.3183793246542 82.96408,155.2190213246542 82.96408,160.24104932465417 83.344674,160.29769132465418 83.87618499999999,160.37273732465417 82.051975,160.37273732465417 81.52044000000001,160.44373032465418 80.988884,160.51066932465417 80.457308,160.57355332465417 79.925712,160.63238232465417 79.394098,160.68715632465418 78.862467,160.73787532465417 78.33082,160.78453732465417 77.799159,160.82714232465418 77.267485,160.86569132465416 76.735799,160.90018332465417 76.204102,160.93061832465418 75.67239599999999,160.95699532465417 75.140682,160.97931532465418 74.608962,160.99757732465417 74.077236,161.01178032465418 73.545506,161.02192632465417 73.013774,161.02801332465418 72.48204,161.03004232465418 71.950306,161.02801332465418 71.418574,161.02192632465417 70.886844,161.01178032465418 70.355118,160.99757732465417 69.823398,160.97931532465418 69.291684,160.95699532465417 68.759978,160.93061832465418 68.228281,160.90018332465417 67.696595,160.86569132465416 67.16492099999999,160.82714232465418 66.63326,160.78453732465417 66.101613,160.73787532465417 65.569982,160.68715632465418 65.03836799999999,160.63238232465417 64.506772,160.57355332465417 63.975196,160.51066932465417 63.44364,160.44373032465418 62.912105,160.37273732465417 62.380594,160.29769132465418 61.0,160.09222332465419 61.0,155.07019532465418 62.667609999999996,155.3183793246542 63.184303,155.39133332465417 63.700972,155.46034032465417 64.21762,155.52540132465418 64.73424800000001,155.58651732465418 65.250856,155.6436883246542 65.767446,155.6969143246542 66.284019,155.74619532465417 66.800576,155.79153332465418 67.317119,155.83292832465418 67.833649,155.87037932465418 68.350167,155.9038873246542 68.866674,155.93345232465418 69.383172,155.95907532465418 69.899662,155.98075532465418 70.416146,155.9984933246542 70.932624,156.01229032465417 71.44909799999999,156.0221443246542 71.96557,156.02805732465418 72.48204,156.03002832465418 72.99851,156.02805732465418 73.514982,156.0221443246542 74.03145599999999,156.01229032465417 74.547934,155.9984933246542 75.064418,155.98075532465418 75.580908,155.95907532465418 76.097406,155.93345232465418 76.613913,155.9038873246542 77.130431,155.87037932465418 77.646961,155.83292832465418 78.163504,155.79153332465418 78.680061,155.74619532465417 79.196634,155.6969143246542 79.713224,155.6436883246542 80.229832,155.58651732465418 80.74646,155.52540132465418 81.263108,155.46034032465417 81.779777,155.39133332465417 82.29647,155.3183793246542 82.96408,155.2190213246542 82.96408,160.24104932465417 82.583486,160.29769132465418 82.051975,160.37273732465417" stroke="#1f6fb2" stroke-width="0.1" /><text fill="#0a3d62" font-family="sans-serif" font-size="1.6" text-anchor="middle" x="82.96408" y="158.0501188246542">08</text><polygon fill="#cfe3f7" fill-opacity="0.5" points="18.0,143.2781242657469 11.0,138.8681242657469 4.0,143.2781242657469 4.0,154.5500292657469 18.0,154.5500292657469 18.0,143.2781242657469" stroke="#1f6fb2" stroke-width="0.1" /><text fill="#0a3d62" font-family="sans-serif" font-size="1.6" text-anchor="middle" x="11.0" y="146.7090767657469">10</text><polygon fill="#cfe3f7" fill-opacity="0.5" points="4.0,159.1991562657469 4.022155,159.4240992657469 4.102098,159.6876372657469 4.2319189999999995,159.9305152657469 4.406629,160.1434002657469 4.619514,160.3181102657469 4.862392,160.4479312657469 5.12593,160.5278742657469 5.350873,160.5500292657469 16.649127,160.5500292657469 16.87407,160.5278742657469 17.137608,160.4479312657469 17.380485999999998,160.3181102657469 17.593370999999998,160.1434002657469 17.768081000000002,159.9305152657469 17.897902000000002,159.6876372657469 17.977845000000002,159.4240992657469 18.0,159.1991562657469 18.0,156.9009022657469 17.977845000000002,156.6759592657469 17.897902000000002,156.4124212657469 17.768081000000002,156.1695432657469 17.593370999999998,155.9566582657469 17.380485999999998,155.7819482657469 17.137608,155.6521272657469 16.87407,155.5721842657469 16.649127,155.5500292657469 5.350873,155.5500292657469 5.12593,155.5721842657469 4.862392,155.6521272657469 4.619514,155.7819482657469 4.406629,155.9566582657469 4.2319189999999995,156.1695432657469 4.102098,156.4124212657469 4.022155,156.6759592657469 4.0,156.9009022657469 4.0,159.1991562657469" stroke="#1f6fb2" stroke-width="0.1" /><text fill="#0a3d62" font-family="sans-serif" font-size="1.6" text-anchor="middle" x="11.0" y="158.0500292657469">06</text><polygon fill="#cfe3f7" fill-opacity="0.5" points="43.0,162.254724819596 43.022155,162.479667819596 43.102098,162.743205819596 43.231919,162.986083819596 43.406629,163.198968819596 43.619514,163.373678819596 43.862392,163.503499819596 44.12593,163.583442819596 44.350873,163.605597819596 55.649127,163.605597819596 55.87407,163.583442819596 56.137608,163.503499819596 56.380486,163.373678819596 56.593371,163.198968819596 56.768081,162.986083819596 56.897902,162.743205819596 56.977845,162.479667819596 57.0,162.254724819596 57.0,159.956470819596 56.977845,159.731527819596 56.897902,159.467989819596 56.768081,159.225111819596 56.593371,159.012226819596 56.380486,158.837516819596 56.137608,158.707695819596 55.87407,158.627752819596 55.649127,158.605597819596 44.350873,158.605597819596 44.12593,158.627752819596 43.862392,158.707695819596 43.619514,158.837516819596 43.406629,159.012226819596 43.231919,159.225111819596 43.102098,159.467989819596 43.022155,159.731527819596 43.0,159.956470819596 43.0,162.254724819596" stroke="#1f6fb2" stroke-width="0.1" /><text fill="#0a3d62" font-family="sans-serif" font-size="1.6" text-anchor="middle" x="50.0" y="161.105597819596">06</text></svg>