<?xml version="1.0" encoding="utf-8" ?>
<svg baseProfile="full" height="237.99260299999997cm" version="1.1" viewBox="0 0 118.0 237.99260299999997" width="118.0cm" xmlns="http://www.w3.org/2000/svg" xmlns:ev="http://www.w3.org/2001/xml-events" xmlns:xlink="http://www.w3.org/1999/xlink"><defs /><rect fill="#f7f3ea" height="229.99260299999997" stroke="#333" stroke-width="0.15" width="110.0" x="4.0" y="4.0" /><text fill="#000" font-family="sans-serif" font-size="1.4" x="4.0" y="3.0">PLANO DE CORTE — ancho 110 cm — largo 2.30 m</text><polygon fill="#cfe3f7" fill-opacity="0.5" points="4.0,74.267704 12.00722,74.267704 11.601177,17.827772 15.824922,5.262131 13.300661,4.0 12.604548000000001,4.928368 12.408809,5.189983 12.212994,5.452847 12.017382000000001,5.717166 11.822256,5.98315 11.6279,6.251011999999999 11.434603,6.520965 11.242656,6.793221 11.052355,7.067997 10.863996,7.345508 10.677882,7.6259689999999996 10.494319,7.909597 10.313615,8.196606 10.136242,8.486951000000001 9.963303,8.779094 9.795078,9.070626 9.63075,9.360295 9.469275,9.647313 9.309653,9.930903 9.150927,10.210297 8.992184,10.484739000000001 8.832553,10.753489 8.671203,11.015827 8.507341,11.271062 8.340206,11.518545 8.169058,11.757678 7.993161000000001,11.987943000000001 7.810869,12.210004 7.619404,12.426846 7.41765,12.641195 7.206278,12.853889 6.986212,13.065588 6.7584420000000005,13.27698 6.524011,13.488792 6.322425,13.667704 4.0,13.667704 4.0,74.267704" stroke="#1f6fb2" stroke-width="0.1" /><text fill="#0a3d62" font-family="sans-serif" font-size="1.6" text-anchor="middle" x="9.912461" y="39.133852">09</text><polygon fill="#cfe3f7" fill-opacity="0.5" points="16.824922,74.267704 24.832142,74.267704 24.426099,17.827772 28.649844,5.262131 26.125583,4.0 25.429470000000002,4.928368 25.233731,5.189983 25.037916000000003,5.452847 24.842304000000002,5.717166 24.647178,5.98315 24.452822,6.251011999999999 24.259525,6.520965 24.067578,6.793221 23.877277,7.067997 23.688918,7.345508 23.502804,7.6259689999999996 23.319241,7.909597 23.138537,8.196606 22.961164,8.486951000000001 22.788225,8.779094 22.62,9.070626 22.455672,9.360295 22.294197,9.647313 22.134575,9.930903 21.975849,10.210297 21.817106000000003,10.484739000000001 21.657475,10.753489 21.496125,11.015827 21.332263,11.271062 21.165128000000003,11.518545 20.99398,11.757678 20.818083,11.987943000000001 20.635791,12.210004 20.444326,12.426846 20.242572000000003,12.641195 20.031200000000002,12.853889 19.811134000000003,13.065588 19.583364,13.27698 19.348933000000002,13.488792 19.147347,13.667704 16.824922,13.667704 16.824922,74.267704" stroke="#1f6fb2" stroke-width="0.1" /><text fill="#0a3d62" font-family="sans-serif" font-size="1.6" text-anchor="middle" x="22.737383" y="39.133852">09</text><polygon fill="#cfe3f7" fill-opacity="0.5" points="29.649844,74.233067 57.349844000000004,74.233067 57.349844000000004,26.857360999999997 56.749912,26.171653999999997 56.396521,25.768483 56.040528,25.363836 55.681394,24.957849 55.318277,24.550319 54.95034,24.141047999999998 54.576750000000004,23.729844999999997 54.196687,23.316536 53.810258000000005,22.901911 53.420919,22.488083 53.034441,22.076037 52.655385,21.665301 52.288183000000004,21.255467 51.937261,20.846346999999998 51.606989,20.437973 51.30162,20.030609 51.025183999999996,19.624724 50.781365,19.22094 50.57334,18.819888 50.40363,18.421923 50.273231,18.024288 50.180244,17.618925 50.12149,17.199514999999998 50.095352000000005,16.764596 50.100468,16.313914 50.135391999999996,15.847847 50.198454,15.367222 50.287714,14.873137 50.400976,14.366815 50.535817,13.849511 50.689639,13.32245 50.859709,12.78679 51.043189999999996,12.243606999999999 51.237178,11.693886 51.438712,11.138521 51.970248,9.693617 38.924533000000004,4.0 38.254392,4.893731 38.058653,5.155346 37.862838,5.41821 37.667226,5.682529 37.472100000000005,5.948513 37.277744,6.216374999999999 37.084447000000004,6.486328 36.8925,6.758584 36.702199,7.03336 36.51384,7.310871 36.327726,7.5913319999999995 36.144163000000006,7.87496 35.963459,8.161969 35.786086000000005,8.452314000000001 35.613147,8.744457 35.444922000000005,9.035989 35.280594,9.325658 35.119119,9.612676 34.959497,9.896266 34.800771000000005,10.17566 34.642028,10.450102000000001 34.482397000000006,10.718852 34.321047,10.98119 34.157185,11.236425 33.990050000000004,11.483908 33.818902,11.723041 33.643005,11.953306000000001 33.460713,12.175367 33.269248000000005,12.392209 33.067494,12.606558 32.856122,12.819252 32.636056,13.030951 32.408286000000004,13.242343 32.173855,13.454155 31.972269,13.633067 29.649844,13.633067 29.649844,74.233067" stroke="#1f6fb2" stroke-width="0.1" /><text fill="#0a3d62" font-family="sans-serif" font-size="1.6" text-anchor="middle" x="43.499844" y="39.1165335">01</text><polygon fill="#cfe3f7" fill-opacity="0.5" points="58.349844000000004,74.233067 86.04984400000001,74.233067 86.04984400000001,26.857360999999997 85.44991200000001,26.171653999999997 85.096521,25.768483 84.74052800000001,25.363836 84.381394,24.957849 84.01827700000001,24.550319 83.65034,24.141047999999998 83.27675,23.729844999999997 82.896687,23.316536 82.51025800000001,22.901911 82.120919,22.488083 81.734441,22.076037 81.35538500000001,21.665301 80.988183,21.255467 80.637261,20.846346999999998 80.306989,20.437973 80.00162,20.030609 79.725184,19.624724 79.48136500000001,19.22094 79.27334,18.819888 79.10363000000001,18.421923 78.973231,18.024288 78.880244,17.618925 78.82149000000001,17.199514999999998 78.79535200000001,16.764596 78.800468,16.313914 78.835392,15.847847 78.898454,15.367222 78.98771400000001,14.873137 79.100976,14.366815 79.235817,13.849511 79.389639,13.32245 79.559709,12.78679 79.74319,12.243606999999999 79.937178,11.693886 80.138712,11.138521 80.670248,9.693617 67.624533,4.0 66.95439200000001,4.893731 66.75865300000001,5.155346 66.562838,5.41821 66.367226,5.682529 66.1721,5.948513 65.977744,6.216374999999999 65.784447,6.486328 65.5925,6.758584 65.40219900000001,7.03336 65.21384,7.310871 65.027726,7.5913319999999995 64.84416300000001,7.87496 64.663459,8.161969 64.486086,8.452314000000001 64.313147,8.744457 64.14492200000001,9.035989 63.980594,9.325658 63.819119,9.612676 63.659497,9.896266 63.50077100000001,10.17566 63.342028000000006,10.450102000000001 63.18239700000001,10.718852 63.021047,10.98119 62.857185,11.236425 62.69005000000001,11.483908 62.518902000000004,11.723041 62.343005000000005,11.953306000000001 62.160713,12.175367 61.96924800000001,12.392209 61.767494000000006,12.606558 61.556122,12.819252 61.336056000000006,13.030951 61.10828600000001,13.242343 60.873855000000006,13.454155 60.67226900000001,13.633067 58.349844000000004,13.633067 58.349844000000004,74.233067" stroke="#1f6fb2" stroke-width="0.1" /><text fill="#0a3d62" font-family="sans-serif" font-size="1.6" text-anchor="middle" x="72.199844" y="39.1165335">01</text><polygon fill="#cfe3f7" fill-opacity="0.5" points="9.981963,140.77270299999998 42.962389,140.77270299999998 48.955871,89.351472 48.129741,88.395983 47.584568000000004,87.77260299999999 47.029406,87.15213499999999 46.461473,86.53878399999999 45.880417,85.93760599999999 45.288459,85.35025499999999 44.686751,84.775938 44.076081,84.21349099999999 43.457222,83.661746 42.830939,83.11953399999999 42.197981,82.58568299999999 41.55909,82.059024 40.914994,81.538389 40.265753000000004,81.022093 39.609401000000005,80.50867199999999 38.943252,80.00035399999999 38.265928,79.501093 37.576201,79.01505499999999 36.872785,78.546461 36.154344,78.099611 35.419524,77.67890799999999 34.666976000000005,77.28887999999999 33.895423,76.934208 33.105278,76.620341 32.301724,76.351068 31.491049,76.12276299999999 30.676018,75.92945599999999 29.858654,75.765104 29.040827,75.62379299999999 28.224329,75.499759 27.410921000000002,75.38738799999999 26.499479,75.267704 25.570334000000003,75.338684 24.739787,75.407544 23.905908,75.487611 23.070217,75.584447 22.234248,75.703756 21.399594,75.85139199999999 20.567972,76.033346 19.741390000000003,76.255698 18.924559000000002,76.523602 18.123655,76.836407 17.340874,77.18880999999999 16.575397000000002,77.576275 15.826162000000002,77.99445499999999 15.092060000000002,78.439134 14.371972000000001,78.906205 13.664799,79.391649 12.969481000000002,79.89151799999999 12.285007,80.401912 11.609597,80.91960599999999 10.940327000000002,81.444626 10.277154,81.980712 9.622564,82.53065699999999 8.979424000000002,83.097033 8.350661000000002,83.682445 7.739276,84.28951099999999 7.148365999999999,84.920842 6.581128,85.57901 6.041347999999999,86.265914 5.534943000000002,86.977954 5.060597000000001,87.703493 4.610315,88.43277699999999 4.0,89.450302 9.981963,140.77270299999998" stroke="#1f6fb2" stroke-width="0.1" /><text fill="#0a3d62" font-family="sans-serif" font-size="1.6" text-anchor="middle" x="26.4779355" y="108.0202035">04</text><polygon fill="#cfe3f7" fill-opacity="0.5" points="55.937834,140.77270299999998 88.91826,140.77270299999998 94.911742,89.351472 94.085612,88.395983 93.540439,87.77260299999999 92.985277,87.15213499999999 92.417344,86.53878399999999 91.836288,85.93760599999999 91.24433,85.35025499999999 90.642622,84.775938 90.031952,84.21349099999999 89.413093,83.661746 88.78681,83.11953399999999 88.153852,82.58568299999999 87.514961,82.059024 86.87086500000001,81.538389 86.221624,81.022093 85.56527200000001,80.50867199999999 84.899123,80.00035399999999 84.221799,79.501093 83.532072,79.01505499999999 82.828656,78.546461 82.11021500000001,78.099611 81.375395,77.67890799999999 80.62284700000001,77.28887999999999 79.851294,76.934208 79.061149,76.620341 78.25759500000001,76.351068 77.44692,76.12276299999999 76.631889,75.92945599999999 75.814525,75.765104 74.99669800000001,75.62379299999999 74.1802,75.499759 73.366792,75.38738799999999 72.45535000000001,75.267704 71.526205,75.338684 70.69565800000001,75.407544 69.861779,75.487611 69.026088,75.584447 68.19011900000001,75.703756 67.35546500000001,75.85139199999999 66.523843,76.033346 65.697261,76.255698 64.88043,76.523602 64.079526,76.836407 63.296745,77.18880999999999 62.531268000000004,77.576275 61.782033000000006,77.99445499999999 61.047931000000005,78.439134 60.327843,78.906205 59.620670000000004,79.391649 58.925352000000004,79.89151799999999 58.240878,80.401912 57.565468,80.91960599999999 56.896198000000005,81.444626 56.233025,81.980712 55.578435,82.53065699999999 54.935295,83.097033 54.306532000000004,83.682445 53.695147000000006,84.28951099999999 53.104237,84.920842 52.536999,85.57901 51.997219,86.265914 51.490814,86.977954 51.016468,87.703493 50.566186,88.43277699999999 49.955871,89.450302 55.937834,140.77270299999998" stroke="#1f6fb2" stroke-width="0.1" /><text fill="#0a3d62" font-family="sans-serif" font-size="1.6" text-anchor="middle" x="72.4338065" y="108.0202035">04</text><polygon fill="#cfe3f7" fill-opacity="0.5" points="54.0,154.47139099999998 53.54488,153.78472799999997 53.256333999999995,153.349113 52.967847,152.91304699999998 52.679368,152.476183 52.390845,152.03817499999997 52.102226,151.598675 51.81346,151.15733699999998 51.524504,150.71382999999997 51.235746,150.26843899999997 50.948979,149.82221499999997 50.666720999999995,149.37575499999997 50.391082,148.92900699999998 50.124128999999996,148.481925 49.867903,148.034508 49.624413000000004,147.586796 49.39562,147.138861 49.18343,146.69079899999997 48.989674,146.24271099999999 48.816095000000004,145.794685 48.664342000000005,145.346759 48.535945,144.89883099999997 48.431893,144.44894299999999 48.351451,143.99316199999998 48.292833,143.52929199999997 48.254642000000004,143.05726699999997 48.203385999999995,141.77270299999998 29.0,141.77270299999998 29.0,201.77270299999998 54.0,201.77270299999998 54.0,154.47139099999998 4.0,154.47139099999998 4.455120000000001,153.78472799999997 4.743666000000001,153.349113 5.032153000000001,152.91304699999998 5.320632,152.476183 5.609155000000001,152.03817499999997 5.897773999999998,151.598675 6.186540000000001,151.15733699999998 6.475496,150.71382999999997 6.764254000000001,150.26843899999997 7.051020999999999,149.82221499999997 7.333279000000001,149.37575499999997 7.608917999999999,148.92900699999998 7.875871,148.481925 8.132097000000002,148.034508 8.375587,147.586796 8.604379999999999,147.138861 8.816569999999999,146.69079899999997 9.010326,146.24271099999999 9.183905,145.794685 9.335657999999999,145.346759 9.464054999999998,144.89883099999997 9.568107000000001,144.44894299999999 9.648549,143.99316199999998 9.707166999999998,143.52929199999997 9.745358,143.05726699999997 9.796614000000002,141.77270299999998 29.0,141.77270299999998 29.0,201.77270299999998 4.0,201.77270299999998 4.0,154.47139099999998" stroke="#1f6fb2" stroke-width="0.1" /><text fill="#0a3d62" font-family="sans-serif" font-size="1.6" text-anchor="middle" x="29.0" y="171.77270299999998">02</text><polygon fill="#cfe3f7" fill-opacity="0.5" points="55.0,153.04460799999998 62.0,157.45460799999998 69.0,153.04460799999998 69.0,141.77270299999998 55.0,141.77270299999998 55.0,153.04460799999998" stroke="#1f6fb2" stroke-width="0.1" /><text fill="#0a3d62" font-family="sans-serif" font-size="1.6" text-anchor="middle" x="62.0" y="149.6136555">10</text><polygon fill="#cfe3f7" fill-opacity="0.5" points="70.0,154.02182999999997 70.029841,154.32480999999999 70.132547,154.66338499999998 70.299332,154.975418 70.523786,155.24891699999998 70.797285,155.473371 71.109318,155.640156 71.447893,155.74286199999997 71.750873,155.77270299999998 93.249127,155.77270299999998 93.552107,155.74286199999997 93.890682,155.640156 94.202715,155.473371 94.476214,155.24891699999998 94.70066800000001,154.975418 94.867453,154.66338499999998 94.970159,154.32480999999999 95.0,154.02182999999997 95.0,143.523576 94.970159,143.22059599999997 94.867453,142.88202099999998 94.70066800000001,142.56998799999997 94.476214,142.29648899999998 94.202715,142.07203499999997 93.890682,141.90524999999997 93.552107,141.80254399999998 93.249127,141.77270299999998 71.750873,141.77270299999998 71.447893,141.80254399999998 71.109318,141.90524999999997 70.797285,142.07203499999997 70.523786,142.29648899999998 70.299332,142.56998799999997 70.132547,142.88202099999998 70.029841,143.22059599999997 70.0,143.523576 70.0,154.02182999999997" stroke="#1f6fb2" stroke-width="0.1" /><text fill="#0a3d62" font-family="sans-serif" font-size="1.6" text-anchor="middle" x="82.5" y="148.77270299999998">05</text><polygon fill="#cfe3f7" fill-opacity="0.5" points="4.0,215.02182999999997 4.029841,215.32480999999999 4.132547,215.66338499999998 4.299332,215.975418 4.523786,216.24891699999998 4.7972850000000005,216.473371 5.109318,216.640156 5.4478930000000005,216.74286199999997 5.750873,216.77270299999998 27.249127,216.77270299999998 27.552107,216.74286199999997 27.890682,216.640156 28.202715,216.473371 28.476214,216.24891699999998 28.700668,215.975418 28.867453,215.66338499999998 28.970159,215.32480999999999 29.0,215.02182999999997 29.0,204.523576 28.970159,204.22059599999997 28.867453,203.88202099999998 28.700668,203.56998799999997 28.476214,203.29648899999998 28.202715,203.07203499999997 27.890682,202.90524999999997 27.552107,202.80254399999998 27.249127,202.77270299999998 5.750873,202.77270299999998 5.4478930000000005,202.80254399999998 5.109318,202.90524999999997 4.7972850000000005,203.07203499999997 4.523786,203.29648899999998 4.299332,203.56998799999997 4.132547,203.88202099999998 4.029841,204.22059599999997 4.0,204.523576 4.0,215.02182999999997" stroke="#1f6fb2" stroke-width="0.1" /><text fill="#0a3d62" font-family="sans-serif" font-size="1.6" text-anchor="middle" x="16.5" y="209.77270299999998">05</text><polygon fill="#cfe3f7" fill-opacity="0.5" points="69.109812,213.69876699999998 69.10827,213.21108599999997 69.12286,212.71610299999998 69.152042,212.214252 69.194218,211.705999 69.247736,211.19182399999997 69.310889,210.67220799999998 69.381927,210.147621 69.459058,209.61851499999997 69.540457,209.08531799999997 69.74864600000001,207.75158899999997 56.845692,202.77270299999998 56.206584,203.20681399999998 56.003755,203.343303 55.803425000000004,203.47560099999998 55.605097,203.60289999999998 55.408291,203.72445 55.212533,203.83956199999997 55.016683,203.94797999999997 54.818733,204.05025399999997 54.617676,204.14689299999998 54.4137,204.23780399999998 54.207108000000005,204.32284199999998 53.998204,204.40186599999998 53.787293000000005,204.474743 53.574684000000005,204.54134399999998 53.360684,204.601545 53.145601,204.655231 52.929643999999996,204.70231199999998 52.712165999999996,204.742901 52.492015,204.77748799999998 52.268762,204.80656299999998 52.042410000000004,204.83054799999996 51.81299,204.84987599999997 51.580557,204.86499499999996 51.345178000000004,204.87636899999998 51.106932,204.88448099999997 50.865904,204.889829 50.622182,204.89293299999997 50.375856,204.89432499999998 50.127012,204.89455999999998 49.874323000000004,204.89420299999998 49.874323000000004,214.89420399999997 69.157512,214.89420399999997 69.109812,213.69876699999998 30.638834,213.69876699999998 30.640376,213.21108599999997 30.625786,212.71610299999998 30.596604,212.214252 30.554428,211.705999 30.50091,211.19182399999997 30.437757,210.67220799999998 30.366719,210.147621 30.289588000000002,209.61851499999997 30.208189,209.08531799999997 30.0,207.75158899999997 42.902954,202.77270299999998 43.542062,203.20681399999998 43.744890999999996,203.343303 43.945221000000004,203.47560099999998 44.143549,203.60289999999998 44.340355,203.72445 44.536113,203.83956199999997 44.731963,203.94797999999997 44.929913,204.05025399999997 45.130970000000005,204.14689299999998 45.334946,204.23780399999998 45.541538,204.32284199999998 45.750442,204.40186599999998 45.961353,204.474743 46.173962,204.54134399999998 46.387962,204.601545 46.603045,204.655231 46.819002,204.70231199999998 47.03648,204.742901 47.256631,204.77748799999998 47.479884,204.80656299999998 47.706236000000004,204.83054799999996 47.935656,204.84987599999997 48.168089,204.86499499999996 48.403468000000004,204.87636899999998 48.641714,204.88448099999997 48.882742,204.889829 49.126464,204.89293299999997 49.37279,204.89432499999998 49.621634,204.89455999999998 49.874323000000004,204.89420299999998 49.874323000000004,214.89420399999997 30.591134,214.89420399999997 30.638834,213.69876699999998" stroke="#1f6fb2" stroke-width="0.1" /><text fill="#0a3d62" font-family="sans-serif" font-size="1.6" text-anchor="middle" x="49.874323000000004" y="208.8334535">03</text><polygon fill="#cfe3f7" fill-opacity="0.5" points="26.655368999999997,224.62767999999997 27.146859,224.71697699999999 27.638402,224.80118 28.129994999999997,224.88028799999998 28.621636,224.954299 29.113321,225.02321199999997 29.605047999999996,225.08702599999998 30.096814,225.145739 30.588614999999997,225.19935099999998 31.080448999999998,225.24785999999997 31.572312999999998,225.29126599999998 32.064203,225.32956699999997 32.556116,225.36276299999997 33.048049,225.390853 33.539998999999995,225.41383599999998 34.031962,225.43171299999997 34.523936,225.444482 35.015916,225.45214399999998 35.507898999999995,225.45469699999998 35.999882,225.45214399999998 36.491862,225.444482 36.983836,225.43171299999997 37.475798999999995,225.41383599999998 37.967749,225.390853 38.459682,225.36276299999997 38.951595,225.32956699999997 39.443484999999995,225.29126599999998 39.935349,225.24785999999997 40.427183,225.19935099999998 40.918983999999995,225.145739 41.41075,225.08702599999998 41.902477,225.02321199999997 42.394161999999994,224.954299 42.885802999999996,224.88028799999998 43.377396,224.80118 43.868939,224.71697699999999 44.360428999999996,224.62767999999997 44.644778,224.57306599999998 46.6965,227.99260299999997 47.751718,227.59362 45.938626,217.77270299999998 44.46481,218.07107599999998 43.993041,218.16168799999997 43.521327,218.24739099999996 43.049666,218.32818799999998 42.578055,218.40407999999996 42.106492,218.475069 41.634973,218.54115599999997 41.163495999999995,218.60234199999996 40.692057999999996,218.658629 40.220655,218.71001699999997 39.749285,218.75650799999997 39.277945,218.79810199999997 38.806630999999996,218.83480099999997 38.33534,218.866605 37.864069,218.89351499999998 37.392815,218.91553199999998 36.921574,218.93265499999998 36.450344,218.94488599999997 35.979119999999995,218.95222399999997 35.507898999999995,218.954671 35.036677999999995,218.95222399999997 34.565454,218.94488599999997 34.094224,218.93265499999998 33.622983,218.91553199999998 33.151729,218.89351499999998 32.680458,218.866605 32.209166999999994,218.83480099999997 31.737852999999998,218.79810199999997 31.266512999999996,218.75650799999997 30.795143,218.71001699999997 30.323739999999997,218.658629 29.852301999999998,218.60234199999996 29.380824999999998,218.54115599999997 28.909305999999997,218.475069 28.437742999999998,218.40407999999996 27.966131999999998,218.32818799999998 27.494470999999997,218.24739099999996 27.022757,218.16168799999997 26.550987999999997,218.07107599999998 25.875859,217.934397 25.875859,224.47497099999998 26.163933999999998,224.533292 26.655368999999997,224.62767999999997 25.096349,224.62767999999997 24.604858999999998,224.71697699999999 24.113315999999998,224.80118 23.621723,224.88028799999998 23.130081999999998,224.954299 22.638396999999998,225.02321199999997 22.14667,225.08702599999998 21.654904,225.145739 21.163103,225.19935099999998 20.671269,225.24785999999997 20.179405,225.29126599999998 19.687514999999998,225.32956699999997 19.195601999999997,225.36276299999997 18.703668999999998,225.390853 18.211719,225.41383599999998 17.719755999999997,225.43171299999997 17.227781999999998,225.444482 16.735802,225.45214399999998 16.243819,225.45469699999998 15.751835999999999,225.45214399999998 15.259856,225.444482 14.767881999999998,225.43171299999997 14.275918999999998,225.41383599999998 13.783968999999999,225.390853 13.292035999999998,225.36276299999997 12.800123,225.32956699999997 12.308232999999998,225.29126599999998 11.816368999999998,225.24785999999997 11.324535,225.19935099999998 10.832733999999999,225.145739 10.340967999999998,225.08702599999998 9.849241,225.02321199999997 9.357555999999999,224.954299 8.865914999999998,224.88028799999998 8.374322,224.80118 7.882778999999999,224.71697699999999 7.391288999999997,224.62767999999997 7.106939999999998,224.57306599999998 5.055218,227.99260299999997 4.0,227.59362 5.8130919999999975,217.77270299999998 7.286907999999997,218.07107599999998 7.758676999999999,218.16168799999997 8.230390999999997,218.24739099999996 8.702051999999998,218.32818799999998 9.173662999999998,218.40407999999996 9.645225999999997,218.475069 10.116744999999998,218.54115599999997 10.588221999999998,218.60234199999996 11.05966,218.658629 11.531062999999998,218.71001699999997 12.002432999999998,218.75650799999997 12.473772999999998,218.79810199999997 12.945087,218.83480099999997 13.416377999999998,218.866605 13.887648999999998,218.89351499999998 14.358902999999998,218.91553199999998 14.830143999999999,218.93265499999998 15.301374,218.94488599999997 15.772597999999999,218.95222399999997 16.243819,218.954671 16.71504,218.95222399999997 17.186263999999998,218.94488599999997 17.657494,218.93265499999998 18.128735,218.91553199999998 18.599988999999997,218.89351499999998 19.07126,218.866605 19.542551,218.83480099999997 20.013865,218.79810199999997 20.485205,218.75650799999997 20.956574999999997,218.71001699999997 21.427978,218.658629 21.899416,218.60234199999996 22.370893,218.54115599999997 22.842412,218.475069 23.313975,218.40407999999996 23.785586,218.32818799999998 24.257247,218.24739099999996 24.728960999999998,218.16168799999997 25.20073,218.07107599999998 25.875859,217.934397 25.875859,224.47497099999998 25.587784,224.533292 25.096349,224.62767999999997" stroke="#1f6fb2" stroke-width="0.1" /><text fill="#0a3d62" font-family="sans-serif" font-size="1.6" text-anchor="middle" x="25.875859" y="222.88265299999998">07</text><polygon fill="#cfe3f7" fill-opacity="0.5" points="71.627903,223.07524499999997 72.159438,223.14623799999998 72.69099399999999,223.21317699999997 73.22256999999999,223.27606099999997 73.754166,223.33488999999997 74.28577999999999,223.38966399999998 74.81741099999999,223.44038299999997 75.349058,223.48704499999997 75.880719,223.52964999999998 76.412393,223.568199 76.94407899999999,223.602691 77.475776,223.63312599999998 78.007482,223.65950299999997 78.539196,223.68182299999998 79.070916,223.70008499999997 79.602642,223.71428799999998 80.134372,223.72443399999997 80.66610399999999,223.73052099999998 81.19783799999999,223.73254999999997 81.72957199999999,223.73052099999998 82.261304,223.72443399999997 82.79303399999999,223.71428799999998 83.32476,223.70008499999997 83.85648,223.68182299999998 84.388194,223.65950299999997 84.9199,223.63312599999998 85.45159699999999,223.602691 85.983283,223.568199 86.514957,223.52964999999998 87.046618,223.48704499999997 87.57826499999999,223.44038299999997 88.10989599999999,223.38966399999998 88.64151,223.33488999999997 89.17310599999999,223.27606099999997 89.70468199999999,223.21317699999997 90.236238,223.14623799999998 90.76777299999999,223.07524499999997 91.299284,223.00019899999998 92.679878,222.79473099999998 92.679878,217.77270299999998 91.01226799999999,218.020887 90.495575,218.09384099999997 89.978906,218.16284799999997 89.46225799999999,218.22790899999998 88.94563,218.28902499999998 88.429022,218.346196 87.912432,218.399422 87.395859,218.44870299999997 86.879302,218.49404099999998 86.362759,218.53543599999998 85.846229,218.57288699999998 85.329711,218.606395 84.813204,218.63595999999998 84.296706,218.66158299999998 83.780216,218.68326299999998 83.263732,218.701001 82.747254,218.71479799999997 82.23078,218.724652 81.71430799999999,218.73056499999998 81.19783799999999,218.73253599999998 80.68136799999999,218.73056499999998 80.164896,218.724652 79.648422,218.71479799999997 79.131944,218.701001 78.61546,218.68326299999998 78.09897,218.66158299999998 77.582472,218.63595999999998 77.06596499999999,218.606395 76.549447,218.57288699999998 76.032917,218.53543599999998 75.516374,218.49404099999998 74.999817,218.44870299999997 74.483244,218.399422 73.96665399999999,218.346196 73.450046,218.28902499999998 72.93341799999999,218.22790899999998 72.41677,218.16284799999997 71.90010099999999,218.09384099999997 71.383408,218.020887 70.71579799999999,217.921529 70.71579799999999,222.94355699999997 71.096392,223.00019899999998 71.627903,223.07524499999997 69.803693,223.07524499999997 69.27215799999999,223.14623799999998 68.740602,223.21317699999997 68.209026,223.27606099999997 67.67742999999999,223.33488999999997 67.145816,223.38966399999998 66.61418499999999,223.44038299999997 66.082538,223.48704499999997 65.550877,223.52964999999998 65.019203,223.568199 64.487517,223.602691 63.955819999999996,223.63312599999998 63.424113999999996,223.65950299999997 62.892399999999995,223.68182299999998 62.360679999999995,223.70008499999997 61.828953999999996,223.71428799999998 61.297224,223.72443399999997 60.765491999999995,223.73052099999998 60.233757999999995,223.73254999999997 59.702023999999994,223.73052099999998 59.170291999999996,223.72443399999997 58.63856199999999,223.71428799999998 58.106835999999994,223.70008499999997 57.575115999999994,223.68182299999998 57.04340199999999,223.65950299999997 56.51169599999999,223.63312599999998 55.97999899999999,223.602691 55.448313,223.568199 54.916638999999996,223.52964999999998 54.384978,223.48704499999997 53.853331,223.44038299999997 53.32169999999999,223.38966399999998 52.790085999999995,223.33488999999997 52.258489999999995,223.27606099999997 51.726913999999994,223.21317699999997 51.195358,223.14623799999998 50.663822999999994,223.07524499999997 50.132312,223.00019899999998 48.751718,222.79473099999998 48.751718,217.77270299999998 50.41932799999999,218.020887 50.936021,218.09384099999997 51.45269,218.16284799999997 51.96933799999999,218.22790899999998 52.485966,218.28902499999998 53.002573999999996,218.346196 53.519163999999996,218.399422 54.035737,218.44870299999997 54.552293999999996,218.49404099999998 55.068836999999995,218.53543599999998 55.585367,218.57288699999998 56.101884999999996,218.606395 56.618392,218.63595999999998 57.13489,218.66158299999998 57.651379999999996,218.68326299999998 58.167863999999994,218.701001 58.684341999999994,218.71479799999997 59.200815999999996,218.724652 59.717287999999996,218.73056499999998 60.233757999999995,218.73253599999998 60.75022799999999,218.73056499999998 61.2667,218.724652 61.783173999999995,218.71479799999997 62.299651999999995,218.701001 62.816136,218.68326299999998 63.332626,218.66158299999998 63.849123999999996,218.63595999999998 64.365631,218.606395 64.882149,218.57288699999998 65.39867899999999,218.53543599999998 65.915222,218.49404099999998 66.43177899999999,218.44870299999997 66.948352,218.399422 67.464942,218.346196 67.98155,218.28902499999998 68.498178,218.22790899999998 69.014826,218.16284799999997 69.53149499999999,218.09384099999997 70.048188,218.020887 70.71579799999999,217.921529 70.71579799999999,222.94355699999997 70.335204,223.00019899999998 69.803693,223.07524499999997" stroke="#1f6fb2" stroke-width="0.1" /><text fill="#0a3d62" font-family="sans-serif" font-size="1.6" text-anchor="middle" x="70.71579799999999" y="220.7526265">08</text><polygon fill="#cfe3f7" fill-opacity="0.5" points="93.679878,221.42182999999997 93.702033,221.64677299999997 93.781976,221.91031099999998 93.911797,222.15318899999997 94.086507,222.36607399999997 94.299392,222.54078399999997 94.54227,222.67060499999997 94.805808,222.75054799999998 95.03075100000001,222.77270299999998 106.329005,222.77270299999998 106.553948,222.75054799999998 106.817486,222.67060499999997 107.060364,222.54078399999997 107.273249,222.36607399999997 107.447959,222.15318899999997 107.57778,221.91031099999998 107.657723,221.64677299999997 107.679878,221.42182999999997 107.679878,219.12357599999999 107.657723,218.898633 107.57778,218.63509499999998 107.447959,218.392217 107.273249,218.179332 107.060364,218.00462199999998 106.817486,217.874801 106.553948,217.79485799999998 106.329005,217.77270299999998 95.03075100000001,217.77270299999998 94.805808,217.79485799999998 94.54227,217.874801 94.299392,218.00462199999998 94.086507,218.179332 93.911797,218.392217 93.781976,218.63509499999998 93.702033,218.898633 93.679878,219.12357599999999 93.679878,221.42182999999997" stroke="#1f6fb2" stroke-width="0.1" /><text fill="#0a3d62" font-family="sans-serif" font-size="1.6" text-anchor="middle" x="100.679878" y="220.27270299999998">06</text><polygon fill="#cfe3f7" fill-opacity="0.5" points="4.0,232.64172999999997 4.022155,232.86667299999996 4.102098,233.13021099999997 4.2319189999999995,233.37308899999996 4.406629,233.58597399999996 4.619514,233.76068399999997 4.862392,233.89050499999996 5.12593,233.97044799999998 5.350873,233.99260299999997 16.649127,233.99260299999997 16.87407,233.97044799999998 17.137608,233.89050499999996 17.380485999999998,233.76068399999997 17.593370999999998,233.58597399999996 17.768081000000002,233.37308899999996 17.897902000000002,233.13021099999997 17.977845000000002,232.86667299999996 18.0,232.64172999999997 18.0,230.34347599999998 17.977845000000002,230.11853299999999 17.897902000000002,229.85499499999997 17.768081000000002,229.61211699999998 17.593370999999998,229.39923199999998 17.380485999999998,229.22452199999998 17.137608,229.094701 16.87407,229.01475799999997 16.649127,228.99260299999997 5.350873,228.99260299999997 5.12593,229.01475799999997 4.862392,229.094701 4.619514,229.22452199999998 4.406629,229.39923199999998 4.2319189999999995,229.61211699999998 4.102098,229.85499499999997 4.022155,230.11853299999999 4.0,230.34347599999998 4.0,232.64172999999997" stroke="#1f6fb2" stroke-width="0.1" /><text fill="#0a3d62" font-family="sans-serif" font-size="1.6" text-anchor="middle" x="11.0" y="231.49260299999997">06</text></svg>