<?xml version="1.0" encoding="utf-8" ?>
<svg baseProfile="full" height="150.233067cm" version="1.1" viewBox="0 0 156.4457246725638 150.233067" width="156.4457246725638cm" xmlns="http://www.w3.org/2000/svg" xmlns:ev="http://www.w3.org/2001/xml-events" xmlns:xlink="http://www.w3.org/1999/xlink"><defs /><g fill="none" id="CONSTRUCCION" stroke="#888888" stroke-width="0.08"><line x1="5.7" x2="5.7" y1="13.633067" y2="72.233067" /><line x1="111.07679184148637" x2="111.07679184148637" y1="64.233067" y2="52.233067" /><line x1="129.4457246725638" x2="152.4457246725638" y1="10.233067" y2="10.233067" /><line x1="64.5640800023312" x2="76.5640800023312" y1="85.453067" y2="85.453067" /></g><g fill="none" id="CORTE" stroke="#d00000" stroke-width="0.08"><polygon points="3.0,73.233067 30.7,73.233067 30.7,25.857360999999997 30.100068,25.171653999999997 29.746677,24.768483 29.390684,24.363836 29.03155,23.957849 28.668433,23.550319 28.300496,23.141047999999998 27.926906,22.729844999999997 27.546843,22.316536 27.160414,21.901911 26.771075,21.488083 26.384597,21.076037 26.005541,20.665301 25.638339,20.255467 25.287416999999998,19.846346999999998 24.957145,19.437973 24.651775999999998,19.030609 24.375339999999998,18.624724 24.131521,18.22094 23.923496,17.819888 23.753785999999998,17.421923 23.623387,17.024288 23.5304,16.618925 23.471646,16.199514999999998 23.445508,15.764596000000001 23.450623999999998,15.313914 23.485547999999998,14.847847 23.54861,14.367222 23.63787,13.873137 23.751132,13.366815 23.885973,12.849511 24.039794999999998,12.32245 24.209865,11.78679 24.393345999999998,11.243606999999999 24.587334,10.693886 24.788868,10.138521 25.320404,8.693617 12.274689,3.0 11.604548000000001,3.893731 11.408809,4.155346 11.212994,4.41821 11.017382000000001,4.682529 10.822256,4.948513 10.6279,5.216374999999999 10.434603,5.486328 10.242656,5.758584 10.052355,6.03336 9.863996,6.310871 9.677882,6.5913319999999995 9.494319,6.87496 9.313614999999999,7.161969 9.136242,7.452314 8.963303,7.744457 8.795078,8.035989 8.630749999999999,8.325658 8.469275,8.612676 8.309653,8.896266 8.150927,9.17566 7.992184,9.450102000000001 7.832553,9.718852 7.671203,9.98119 7.507341,10.236425 7.340206,10.483908 7.169058,10.723041 6.993161,10.953306000000001 6.810869,11.175367 6.619404,11.392209 6.41765,11.606558 6.206278,11.819252 5.986212,12.030951 5.7584420000000005,12.242343 5.524011,12.454155 5.322425,12.633067 3.0,12.633067 3.0,73.233067" /><polygon points="60.7,15.931755 60.244879999999995,15.245092000000001 59.956334,14.809477 59.667846999999995,14.373410999999999 59.379368,13.936547 59.090845,13.498539 58.802226000000005,13.059039 58.513459999999995,12.617700999999999 58.224503999999996,12.174194000000002 57.935745999999995,11.728803000000001 57.648979,11.282579 57.366721,10.836119000000002 57.091082,10.389370999999999 56.824129,9.942289 56.567903,9.494872 56.324413,9.04716 56.09562,8.599225 55.883430000000004,8.151163 55.689674,7.703075 55.516095,7.255049 55.364342,6.807123000000001 55.235945,6.359195 55.131893,5.909307 55.051451,5.453526 54.992833000000005,4.989656 54.954642,4.517631 54.903386,3.233067 35.7,3.233067 35.7,63.233067 60.7,63.233067 60.7,15.931755" /><polygon points="84.935489,14.03763 84.933947,13.549949 84.948537,13.054966 84.97771900000001,12.553115 85.019895,12.044862 85.073413,11.530687 85.136566,11.011071 85.207604,10.486484 85.284735,9.957378 85.366134,9.424181 85.574323,8.090451999999999 72.671369,3.111566 72.032261,3.545677 71.829432,3.682166 71.629102,3.814464 71.430774,3.941763 71.233968,4.063313 71.03821,4.178425 70.84236,4.286843 70.64441000000001,4.389117 70.443353,4.485756 70.239377,4.5766670000000005 70.032785,4.6617049999999995 69.823881,4.740729 69.61297,4.813606 69.400361,4.880207 69.186361,4.940408 68.971278,4.9940940000000005 68.75532100000001,5.041175 68.53784300000001,5.081764 68.31769200000001,5.116351 68.09443900000001,5.1454260000000005 67.868087,5.169411 67.63866700000001,5.188739 67.40623400000001,5.203858 67.170855,5.215232 66.932609,5.223344 66.691581,5.228692 66.447859,5.231796 66.20153300000001,5.233188 65.95268899999999,5.233423 65.7,5.233066 65.7,15.233067 84.98318900000001,15.233067 84.935489,14.03763" /><polygon points="94.03946223112722,65.233067 119.8681662311272,65.233067 124.48066723112721,13.788077 123.77432423112721,13.003444 123.35351723112721,12.541302 122.9240412311272,12.08029 122.48384423112721,11.623693 122.03317023112722,11.175854 121.57424823112721,10.738514 121.10807323112721,10.311159 120.6352652311272,9.892911999999999 120.15643323112721,9.482893 119.6721722311272,9.080221 119.18306723112721,8.684015 118.6896942311272,8.293397 118.19261423112721,7.90749 117.69172123112722,7.52492 117.18498223112721,7.144209 116.66990223112721,6.766713 116.14534323112721,6.39535 115.61032823112721,6.033246 115.06382523112721,5.683583 114.50476823112722,5.349617 113.9320732311272,5.034704 113.3446772311272,4.742311 112.74158623112722,4.476044 112.12345523112721,4.240216 111.49537423112722,4.038069999999999 110.8630832311272,3.867045 110.22883123112722,3.722565 109.59416223112721,3.599996 108.96049523112721,3.494836 108.32917923112721,3.402726 107.70154723112721,3.3194489999999996 106.98004923112721,3.228454 106.2448882311272,3.282394 105.60414223112721,3.3334159999999997 104.95957223112721,3.392859 104.3123252311272,3.464892 103.66355223112721,3.553823 103.01445023112721,3.664097 102.36632123112722,3.800294 101.72073223112722,3.96709 101.08187023112721,4.168336 100.45560423112721,4.403259 99.8442392311272,4.667606 99.24718123112721,4.9578679999999995 98.66359923112721,5.270708 98.09261123112721,5.602901 97.53331923112721,5.951326 96.98483823112721,6.312943 96.44631723112721,6.6847769999999995 95.91694123112721,7.063905 95.3951222311272,7.448054 94.87790423112722,7.837747 94.3646762311272,8.236213 93.85727623112722,8.645638 93.35791823112721,9.068000999999999 92.86887323112721,9.505317999999999 92.3924872311272,9.95963 91.93119923112721,10.432979 91.48755823112721,10.927378000000001 91.0647232311272,11.444177999999999 90.66837023112721,11.979436 90.29859923112721,12.522652 89.94940123112721,13.065848 89.43592523112721,13.888062 94.03946223112722,65.233067" /><polygon points="128.4457246725638,15.482194 128.47556567256382,15.785174 128.5782716725638,16.123749 128.7450566725638,16.435782 128.9695106725638,16.709281 129.2430096725638,16.933735 129.55504267256381,17.10052 129.8936176725638,17.203226 130.19659767256383,17.233067 151.6948516725638,17.233067 151.99783167256382,17.203226 152.3364066725638,17.10052 152.64843967256382,16.933735 152.9219386725638,16.709281 153.14639267256382,16.435782 153.31317767256382,16.123749 153.4158836725638,15.785174 153.4457246725638,15.482194 153.4457246725638,4.9839400000000005 153.4158836725638,4.68096 153.31317767256382,4.342385 153.14639267256382,4.030352 152.9219386725638,3.756853 152.64843967256382,3.532399 152.3364066725638,3.365614 151.99783167256382,3.262908 151.6948516725638,3.233067 130.19659767256383,3.233067 129.8936176725638,3.262908 129.55504267256381,3.365614 129.2430096725638,3.532399 128.9695106725638,3.756853 128.7450566725638,4.030352 128.5782716725638,4.342385 128.47556567256382,4.68096 128.4457246725638,4.9839400000000005 128.4457246725638,15.482194" /><polygon points="3.0,80.882194 3.022155,81.10713700000001 3.1020980000000002,81.370675 3.2319190000000004,81.61355300000001 3.406629,81.82643800000001 3.619514,82.001148 3.8623920000000003,82.13096900000001 4.12593,82.21091200000001 4.350873,82.233067 15.649127,82.233067 15.87407,82.21091200000001 16.137608,82.13096900000001 16.380485999999998,82.001148 16.593370999999998,81.82643800000001 16.768081000000002,81.61355300000001 16.897902000000002,81.370675 16.977845000000002,81.10713700000001 17.0,80.882194 17.0,78.58394000000001 16.977845000000002,78.358997 16.897902000000002,78.095459 16.768081000000002,77.852581 16.593370999999998,77.639696 16.380485999999998,77.46498600000001 16.137608,77.335165 15.87407,77.255222 15.649127,77.233067 4.350873,77.233067 4.12593,77.255222 3.8623920000000003,77.335165 3.619514,77.46498600000001 3.406629,77.639696 3.2319190000000004,77.852581 3.1020980000000002,78.095459 3.022155,78.358997 3.0,78.58394000000001 3.0,80.882194" /><polygon points="22.833528,84.25297 23.36905,84.36741 23.904654999999998,84.475328 24.44034,84.57672000000001 24.976101,84.67158500000001 25.511932,84.759918 26.047831000000002,84.84171900000001 26.583790999999998,84.916984 27.119809,84.985712 27.655879,85.0479 28.191997999999998,85.103548 28.728158999999998,85.152652 29.264357,85.195212 29.800588,85.231227 30.336846,85.260695 30.873125,85.28361500000001 31.409421000000002,85.299988 31.945728000000003,85.30981100000001 32.48204,85.313086 33.018352,85.30981100000001 33.554659,85.299988 34.090955,85.28361500000001 34.627234,85.260695 35.163492,85.231227 35.699723,85.195212 36.235921,85.152652 36.772082,85.103548 37.308201,85.0479 37.844271,84.985712 38.380289000000005,84.916984 38.916249,84.84171900000001 39.452148,84.759918 39.987978999999996,84.67158500000001 40.523740000000004,84.57672000000001 41.059425000000005,84.475328 41.59503,84.36741 42.130552,84.25297 42.665987,84.13201000000001 43.964079999999996,83.822905 43.964079999999996,76.96698500000001 42.213969,77.383724 41.7012,77.499564 41.188518,77.60912400000001 40.675919,77.712406 40.163399999999996,77.809414 39.650957,77.900149 39.138584,77.984616 38.626279,78.062815 38.114035,78.13475000000001 37.601849,78.200422 37.089715,78.25983400000001 36.57763,78.31298600000001 36.065587,78.359882 35.553581,78.40052200000001 35.041608000000004,78.43490700000001 34.529662,78.46303900000001 34.017737,78.484919 33.505829,78.500546 32.993932,78.509923 32.48204,78.51304800000001 31.970148000000002,78.509923 31.458251,78.500546 30.946343,78.484919 30.434418,78.46303900000001 29.922472,78.43490700000001 29.410499,78.40052200000001 28.898493000000002,78.359882 28.38645,78.31298600000001 27.874365,78.25983400000001 27.362231,78.200422 26.850045,78.13475000000001 26.337801,78.062815 25.825496,77.984616 25.313123,77.900149 24.80068,77.809414 24.288161,77.712406 23.775562,77.60912400000001 23.26288,77.499564 22.750111,77.383724 22.0,77.20510700000001 22.0,84.06102700000001 22.298093,84.13201000000001 22.833528,84.25297" /><polygon points="47.9640800023312,147.233067 55.971300002331205,147.233067 55.5652570023312,90.793135 59.7890020023312,78.22749400000001 57.264741002331206,76.96536300000001 56.5686280023312,77.893731 56.372889002331206,78.15534600000001 56.1770740023312,78.41821 55.981462002331206,78.682529 55.786336002331204,78.948513 55.591980002331205,79.216375 55.398683002331204,79.486328 55.206736002331205,79.758584 55.01643500233121,80.03336 54.8280760023312,80.310871 54.641962002331205,80.59133200000001 54.458399002331205,80.87496 54.27769500233121,81.161969 54.100322002331204,81.452314 53.927383002331204,81.74445700000001 53.759158002331205,82.035989 53.59483000233121,82.325658 53.433355002331204,82.61267600000001 53.273733002331205,82.89626600000001 53.115007002331204,83.17566000000001 52.9562640023312,83.450102 52.796633002331205,83.718852 52.63528300233121,83.98119 52.471421002331205,84.23642500000001 52.3042860023312,84.483908 52.1331380023312,84.72304100000001 51.9572410023312,84.95330600000001 51.774949002331205,85.17536700000001 51.583484002331204,85.39220900000001 51.3817300023312,85.606558 51.170358002331206,85.819252 50.9502920023312,86.030951 50.7225220023312,86.242343 50.4880910023312,86.454155 50.286505002331204,86.63306700000001 47.9640800023312,86.63306700000001 47.9640800023312,147.233067" /><polygon points="63.5640800023312,88.50497200000001 70.5640800023312,92.914972 77.5640800023312,88.50497200000001 77.5640800023312,77.233067 63.5640800023312,77.233067 63.5640800023312,88.50497200000001" /></g><g fill="none" id="COSTURA" stroke="#00a000" stroke-width="0.08"><polygon points="4.0,13.633067 5.7,13.633067 5.946137211430921,13.416556070671316 6.1911230351686255,13.199125943868006 6.433806083519894,12.97985742211545 6.673034968791513,12.757831307939018 6.907658303290262,12.53212840386409 7.136524699322925,12.30182951241604 7.358482769196286,12.066015436120248 7.5723811252171265,11.823766977502084 7.777197617466955,11.574267191163548 7.973182834463885,11.317706113979522 8.161311146615965,11.054846434291722 8.342565282091677,10.786457453046896 8.517927969059487,10.513308471191783 8.688381935687879,10.236168789673126 8.854909910145325,9.955807709437675 9.018494620600304,9.67299453143217 9.180118795221286,9.388498556603356 9.340765162176753,9.103089085897977 9.501416449635176,8.817535420262777 9.663055385765034,8.532606860644501 9.826664698734799,8.249072707989892 9.993226961401806,7.967702142964255 10.16345393201771,7.689054612599036 10.337230036760209,7.413048832744115 10.514282265311873,7.139481591821779 10.694337607355273,6.86814967825431 10.877123052572978,6.598849880463993 11.062365590647557,6.331378986873115 11.24979221126158,6.065533785903957 11.439129904097616,5.801111065978808 11.630105658838232,5.53790761551995 11.822446465166006,5.275720222949668 12.015879312763497,5.0143456766902474 12.21013119131328,4.7535807651639725 12.404929090497925,4.493222276793128 12.6,4.233067 24.0564392373896,9.233067 23.84959802771455,9.795334580940363 23.645801650517317,10.356933169710793 23.4480949382757,10.917193774141342 23.25952272346752,11.475447402062086 23.08312983857059,12.031025061303078 22.92196111606271,12.583257759694389 22.779061388421706,13.131476505066075 22.657475488125385,13.675012305248204 22.560248247651558,14.213196168070835 22.49042449947803,14.745359101364034 22.451049076082626,15.270832112957864 22.445166809943142,15.788946210682386 22.4758225335374,16.299032402367665 22.54606107934321,16.80042169584376 22.658927279838384,17.29244509894074 22.817015777873205,17.77451462039634 23.018439554671197,18.246848637281662 23.25874127090857,18.71012799466933 23.533433110351083,19.16503902122656 23.838027256764505,19.61226804562056 24.168035893914595,20.052501396518547 24.518971205567123,20.486425402587745 24.886345375487853,20.91472639249535 25.265670587442546,21.338090694908598 25.652459025196965,21.75720463849469 26.04222287251688,22.172754551920843 26.43047431316805,22.585426763854276 26.813017247128172,22.995882540544653 27.188779993915375,23.40451471781536 27.558586779631288,23.811553247150556 27.923288455857527,24.217225792541026 28.283735874175697,24.62176001797755 28.64077988616742,25.025383587450918 28.9952713434143,25.42832416495193 29.348061097497954,25.830809414471354 29.7,26.233067 29.7,72.233067 4.0,72.233067" /><polygon points="35.7,4.233067 53.94249141613642,4.233067 53.956251337565014,4.5779132703500505 53.997903441584135,5.092716994128569 54.06241306962703,5.603204386473422 54.15168501536235,6.10901575309847 54.267509273000805,6.609806492642356 54.40960019683117,7.105504892464548 54.57586886747531,7.596276320084238 54.76416637745514,8.082294029781549 54.97234381929262,8.563731275836616 55.19825228550965,9.040761312529574 55.4397428686282,9.513557394140543 55.69466666117018,9.98229277494966 55.960874755657535,10.447140709237045 56.236218244612196,10.908274451282841 56.5185482205561,11.365867255367169 56.80571577601117,11.82009237577016 57.095572003499356,12.271123066771947 57.386030449882966,12.719137438993469 57.676130805337365,13.164401169999925 57.965889496115864,13.607255886654121 58.255355331457864,14.048045733863534 58.54457712060278,14.487114856535614 58.83360367279005,14.924807399577839 59.12248379725906,15.36146750789767 59.411266303249235,15.797439326402566 59.7,16.233067 59.7,62.233067 35.7,62.233067" /><polygon points="65.7,6.233067 65.95245430921341,6.233423362819071 66.20483086291523,6.233185589548962 66.45705190559389,6.231759544100493 66.70903968173775,6.228551090384485 66.96071643583525,6.222966092311758 67.21200441237482,6.21441041379313 67.46282585584484,6.2022899187394245 67.71310301073372,6.18601047106146 67.96275812152989,6.1649779346700555 68.21171343272172,6.1385981734760335 68.45989118879767,6.1062770513902125 68.70721363424613,6.067420432323413 68.95360257343721,6.021435816906703 69.19891975774915,5.967954031978914 69.44290645846002,5.907053948065581 69.6852895518145,5.838867968215919 69.9257959140573,5.763528495479149 70.16415242143313,5.681167932904493 70.40008595018666,5.591918683541167 70.63332337656261,5.495913150438394 70.86359157680567,5.393283736645391 71.09061742716054,5.28416284521138 71.31412780387191,5.168682879185578 71.53389863733646,5.047021848373325 71.75020863974197,4.919825210198594 71.96363149198662,4.7880126611761415 72.17474462410257,4.652507383475511 72.384125466122,4.514232559266247 72.5923514480771,4.3741113707178965 72.8,4.233067 84.46190378969061,8.733067 84.37783951157896,9.271610546663693 84.29568002713596,9.809794399041248 84.21733013003025,10.347258862846523 84.14469461393048,10.88364424379338 84.07967827250532,11.418590847595684 84.02418589942339,11.951738979967294 83.98012228835334,12.48272894662207 83.94939223296385,13.01120105327387 83.93390052692352,13.536795605636561 83.93555196390102,14.059152909424 83.94249141613642,14.233067 65.7,14.233067" /><polygon points="90.46190378969061,14.133067 90.79412029060265,13.601097985769025 91.13265986170111,13.07448106878231 91.48384557317247,12.558568346284105 91.85399060030421,12.058703603203355 92.24707228144396,11.578268379750659 92.661734298511,11.11616362120411 93.09587934488307,10.670667797519528 93.54741011393791,10.24005937865272 94.0142292990533,9.822616834559495 94.49423959360695,9.416618635195668 94.98534369097663,9.020343250517051 95.48544428454008,8.632069150479452 95.99244406767505,8.250074805038686 96.50452008290287,7.873099052810097 97.02158256530028,7.502789097724244 97.54421667417024,7.141924693123902 98.07300909005681,6.793288145054288 98.60854649350404,6.459661759560624 99.151415565056,6.143827842688129 99.70220298525676,5.848568700482024 100.26149543465036,5.576666638987529 100.82987959378087,5.330903964249865 101.40794214319236,5.114062982314252 101.996221611122,4.928750228471964 102.59433814198778,4.774219854155839 103.2010876915075,4.646717468142565 103.81523697130204,4.542381929246023 104.43555269299226,4.457352096280088 105.06080156819903,4.38776682805864 105.6897503085432,4.329764983395557 106.32116562564563,4.2794854211047175 106.95381423112721,4.233067 107.5732154165973,4.311185854731644 108.1912211806063,4.393185375692934 108.80643610169321,4.482946229113522 109.41746475839695,4.5843490812230545 110.02291172925645,4.701274598251178 110.62138159281068,4.837603446427542 111.21147892759856,4.997216291981794 111.79180831215906,5.183993801143583 112.36116343653823,5.401212000570606 112.91969566990625,5.647806057197887 113.46814960016144,5.920814460580514 114.00727230078793,6.217267753197476 114.53781084526987,6.534196477527764 115.06051230709137,6.868631176050369 115.57612375973659,7.217602391244281 116.08539227668966,7.57814066558849 116.58906493143469,7.947276541561989 117.08788879745585,8.322040561643767 117.58249433656607,8.699808623983248 118.0726952347304,9.08037557989049 118.55795601311776,9.464570362779291 119.03773987758073,9.853225801488009 119.51151003397186,10.247174724854993 119.9787296881437,10.647249961718597 120.43886204594884,11.05428434091717 120.89137031323982,11.469110691289066 121.3357176958692,11.89256184167264 121.77136739968957,12.325470620906243 122.19818439132484,12.768189022952523 122.61794912571278,13.218776549199232 123.03301229133078,13.674610234768883 123.44572467256381,14.133067 118.95381423112721,64.233067 94.95381423112721,64.233067" /><polygon points="129.4457246725638,5.033067 129.46109644824122,4.876994742387097 129.50662104655478,4.726920254107928 129.58054898272178,4.588610813584318 129.68003924761456,4.467381575050762 129.80126848614813,4.3678913101579635 129.93957792667175,4.293963373990971 130.0896524149509,4.248438775677416 130.24572467256382,4.233067 151.6457246725638,4.233067 151.80179693017672,4.248438775677416 151.95187141845588,4.29396337399097 152.0901808589795,4.3678913101579635 152.21141009751304,4.467381575050762 152.31090036240585,4.588610813584318 152.38482829857284,4.726920254107928 152.4303528968864,4.876994742387097 152.4457246725638,5.033067 152.4457246725638,15.433067 152.4303528968864,15.589139257612903 152.38482829857284,15.739213745892071 152.31090036240585,15.877523186415681 152.21141009751304,15.998752424949238 152.0901808589795,16.098242689842035 151.95187141845588,16.172170626009027 151.80179693017672,16.217695224322583 151.6457246725638,16.233067 130.24572467256382,16.233067 130.0896524149509,16.217695224322583 129.93957792667175,16.172170626009027 129.80126848614813,16.09824268984204 129.68003924761456,15.998752424949238 129.58054898272178,15.877523186415681 129.50662104655478,15.739213745892071 129.46109644824122,15.589139257612903 129.4457246725638,15.433067" /><polygon points="4.0,78.63306700000001 4.007685887838708,78.55503087119355 4.030448186995486,78.47999362705397 4.067412155078982,78.41083890679216 4.117157287525381,78.35022428752539 4.1777719067921595,78.30047915507899 4.2469266270539645,78.26351518699549 4.321963871193549,78.24075288783871 4.4,78.233067 15.6,78.233067 15.67803612880645,78.24075288783871 15.753073372946035,78.26351518699549 15.82222809320784,78.30047915507899 15.882842712474618,78.35022428752539 15.932587844921018,78.41083890679216 15.969551813004514,78.47999362705397 15.992314112161292,78.55503087119355 16.0,78.63306700000001 16.0,80.833067 15.992314112161292,80.91110312880646 15.969551813004514,80.98614037294604 15.932587844921018,81.05529509320785 15.882842712474618,81.11590971247462 15.82222809320784,81.16565484492102 15.753073372946035,81.20261881300452 15.67803612880645,81.2253811121613 15.6,81.233067 4.4,81.233067 4.3219638711935495,81.2253811121613 4.2469266270539645,81.20261881300452 4.1777719067921595,81.16565484492102 4.117157287525381,81.11590971247462 4.067412155078982,81.05529509320785 4.030448186995486,80.98614037294604 4.007685887838708,80.91110312880646 4.0,80.833067" /><polygon points="22.0,78.233067 22.52410200005828,78.357867 23.04820400011656,78.476267 23.57230600017484,78.588267 24.09640800023312,78.69386700000001 24.6205100002914,78.79306700000001 25.14461200034968,78.885867 25.66871400040796,78.972267 26.19281600046624,79.052267 26.716918000524522,79.125867 27.2410200005828,79.193067 27.76512200064108,79.253867 28.289224000699363,79.308267 28.81332600075764,79.356267 29.33742800081592,79.397867 29.861530000874204,79.43306700000001 30.385632000932482,79.46186700000001 30.90973400099076,79.484267 31.433836001049045,79.50026700000001 31.957938001107323,79.509867 32.4820400011656,79.513067 33.006142001223886,79.509867 33.53024400128216,79.50026700000001 34.05434600134044,79.484267 34.578448001398726,79.46186700000001 35.102550001457004,79.43306700000001 35.62665200151528,79.397867 36.15075400157356,79.356267 36.67485600163184,79.308267 37.19895800169012,79.253867 37.72306000174841,79.193067 38.247162001806686,79.125867 38.771264001864964,79.052267 39.29536600192324,78.972267 39.81946800198152,78.885867 40.343570002039804,78.79306700000001 40.86767200209809,78.69386700000001 41.39177400215637,78.588267 41.915876002214645,78.476267 42.43997800227292,78.357867 42.9640800023312,78.233067 42.9640800023312,83.033067 42.43997800227292,83.15786700000001 41.915876002214645,83.276267 41.39177400215637,83.38826700000001 40.86767200209809,83.49386700000001 40.343570002039804,83.593067 39.81946800198152,83.685867 39.29536600192324,83.772267 38.771264001864964,83.85226700000001 38.247162001806686,83.92586700000001 37.72306000174841,83.99306700000001 37.19895800169012,84.05386700000001 36.67485600163184,84.10826700000001 36.15075400157356,84.156267 35.62665200151528,84.197867 35.102550001457004,84.233067 34.578448001398726,84.26186700000001 34.05434600134044,84.284267 33.53024400128216,84.300267 33.006142001223886,84.30986700000001 32.4820400011656,84.313067 31.957938001107323,84.30986700000001 31.433836001049045,84.300267 30.90973400099076,84.284267 30.385632000932482,84.26186700000001 29.861530000874204,84.233067 29.33742800081592,84.197867 28.81332600075764,84.156267 28.289224000699363,84.10826700000001 27.76512200064108,84.05386700000001 27.2410200005828,83.99306700000001 26.716918000524522,83.92586700000001 26.19281600046624,83.85226700000001 25.66871400040796,83.772267 25.14461200034968,83.685867 24.6205100002914,83.593067 24.09640800023312,83.49386700000001 23.57230600017484,83.38826700000001 23.04820400011656,83.276267 22.52410200005828,83.15786700000001 22.0,83.033067" /><polygon points="48.9640800023312,87.63306700000001 50.664080002331204,87.63306700000001 50.910217213762124,87.41655607067132 51.15520303749983,87.19912594386801 51.3978860858511,86.97985742211546 51.63711497112271,86.75783130793903 51.87173830562146,86.53212840386409 52.10060470165413,86.30182951241605 52.32256277152749,86.06601543612025 52.53646112754833,85.82376697750209 52.74127761979816,85.57426719116356 52.937262836795085,85.31770611397953 53.12539114894717,85.05484643429173 53.30664528442288,84.7864574530469 53.48200797139069,84.51330847119179 53.65246193801909,84.23616878967313 53.81898991247653,83.95580770943768 53.98257462293151,83.67299453143218 54.14419879755249,83.38849855660337 54.30484516450796,83.10308908589798 54.46549645196638,82.81753542026279 54.627135388096235,82.5326068606445 54.790744701066004,82.2490727079899 54.95730696373301,81.96770214296426 55.12753393434891,81.68905461259904 55.30131003909141,81.41304883274412 55.47836226764308,81.13948159182178 55.65841760968648,80.86814967825431 55.841203054904184,80.598849880464 56.02644559297876,80.33137898687312 56.21387221359278,80.06553378590397 56.40320990642882,79.80111106597882 56.59418566116943,79.53790761551996 56.78652646749721,79.27572022294967 56.9799593150947,79.01434567669025 57.17421119364448,78.75358076516397 57.36900909282913,78.49322227679313 57.5640800023312,78.233067 58.5640800023312,78.733067 54.5640800023312,90.63306700000001 54.9640800023312,146.233067 48.9640800023312,146.233067" /><polygon points="64.5640800023312,78.233067 76.5640800023312,78.233067 76.5640800023312,87.953067 70.5640800023312,91.733067 64.5640800023312,87.953067" /></g><g fill="none" id="PIQUETES" stroke="#00b0b0" stroke-width="0.08"><line x1="22.219447036030218" x2="22.314884637551796" y1="15.864065785149357" y2="16.50319931127344" /><line x1="22.686556392397613" x2="22.314884637551796" y1="15.974559446479052" y2="16.50319931127344" /><line x1="29.788209776987614" x2="29.141995546367482" y1="46.709865218546994" y2="46.712542557530966" /><line x1="29.611790223012385" x2="29.141995546367482" y1="47.15626878145301" y2="46.712542557530966" /><line x1="44.582135899574205" x2="44.872875367782875" y1="4.253718863885864" y2="4.830841521235012" /><line x1="45.06035551656222" x2="44.872875367782875" y1="4.212415136114135" y2="4.830841521235012" /><line x1="75.06032306347002" x2="74.76868513978756" y1="14.21204277268774" y2="13.63537361149548" /><line x1="74.58216835266641" x2="74.76868513978756" y1="14.25409122731226" y2="13.63537361149548" /><line x1="114.81327557532029" x2="114.8721152952529" y1="6.789144563438985" y2="7.432680022724836" /><line x1="115.27332478032642" x2="114.8721152952529" y1="6.926092469495347" y2="7.432680022724836" /><line x1="98.23824420365625" x2="98.64304932039887" y1="6.617467993310714" y2="7.121186979908402" /><line x1="98.69730698523884" x2="98.64304932039887" y1="6.477249012549656" y2="7.121186979908402" /><line x1="96.91239064068058" x2="97.3436232145085" y1="7.504838025251972" y2="7.986126366342583" /><line x1="97.36327434455767" x2="97.3436232145085" y1="7.340205447740476" y2="7.986126366342583" /></g><g fill="none" id="TEXTOS" stroke="#000000" stroke-width="0.08"><text fill="#000000" font-family="sans-serif" font-size="0.9" stroke="none" text-anchor="middle" x="16.36351766557047" y="38.96246331188846">DELANTERO</text><text fill="#000000" font-family="sans-serif" font-size="0.6" stroke="none" text-anchor="middle" x="16.36351766557047" y="40.36246331188846">Pieza N.01</text><text fill="#000000" font-family="sans-serif" font-size="0.6" stroke="none" text-anchor="middle" x="16.36351766557047" y="41.76246331188846">Talla: S</text><text fill="#000000" font-family="sans-serif" font-size="0.6" stroke="none" text-anchor="middle" x="16.36351766557047" y="43.162463311888466">Cortar: 2  (par: izq + der)</text><text fill="#000000" font-family="sans-serif" font-size="0.9" stroke="none" text-anchor="middle" x="47.39306647024231" y="30.409922654431575">ESPALDA</text><text fill="#000000" font-family="sans-serif" font-size="0.6" stroke="none" text-anchor="middle" x="47.39306647024231" y="31.809922654431574">Pieza N.02</text><text fill="#000000" font-family="sans-serif" font-size="0.6" stroke="none" text-anchor="middle" x="47.39306647024231" y="33.20992265443157">Talla: S</text><text fill="#000000" font-family="sans-serif" font-size="0.6" stroke="none" text-anchor="middle" x="47.39306647024231" y="34.60992265443158">Cortar: 1  (al doblez)</text><text fill="#000000" font-family="sans-serif" font-size="0.6" stroke="none" text-anchor="middle" x="47.39306647024231" y="36.00992265443158">AL DOBLEZ</text><text fill="#000000" font-family="sans-serif" font-size="0.9" stroke="none" text-anchor="middle" x="74.4579030326492" y="6.501309639616992">CANESU</text><text fill="#000000" font-family="sans-serif" font-size="0.6" stroke="none" text-anchor="middle" x="74.4579030326492" y="7.901309639616993">Pieza N.03</text><text fill="#000000" font-family="sans-serif" font-size="0.6" stroke="none" text-anchor="middle" x="74.4579030326492" y="9.301309639616992">Talla: S</text><text fill="#000000" font-family="sans-serif" font-size="0.6" stroke="none" text-anchor="middle" x="74.4579030326492" y="10.701309639616992">Cortar: 2  (al doblez x2 (exterior+interior))</text><text fill="#000000" font-family="sans-serif" font-size="0.6" stroke="none" text-anchor="middle" x="74.4579030326492" y="12.101309639616993">AL DOBLEZ</text><text fill="#000000" font-family="sans-serif" font-size="0.9" stroke="none" text-anchor="middle" x="106.90901577036908" y="31.483126315053056">MANGA</text><text fill="#000000" font-family="sans-serif" font-size="0.6" stroke="none" text-anchor="middle" x="106.90901577036908" y="32.883126315053055">Pieza N.04</text><text fill="#000000" font-family="sans-serif" font-size="0.6" stroke="none" text-anchor="middle" x="106.90901577036908" y="34.28312631505305">Talla: S</text><text fill="#000000" font-family="sans-serif" font-size="0.6" stroke="none" text-anchor="middle" x="106.90901577036908" y="35.68312631505306">Cortar: 2  (par: izq + der)</text><text fill="#000000" font-family="sans-serif" font-size="0.9" stroke="none" text-anchor="middle" x="140.9457246725638" y="7.5330670000000035">PUNO</text><text fill="#000000" font-family="sans-serif" font-size="0.6" stroke="none" text-anchor="middle" x="140.9457246725638" y="8.933067000000003">Pieza N.05</text><text fill="#000000" font-family="sans-serif" font-size="0.6" stroke="none" text-anchor="middle" x="140.9457246725638" y="10.333067000000003">Talla: S</text><text fill="#000000" font-family="sans-serif" font-size="0.6" stroke="none" text-anchor="middle" x="140.9457246725638" y="11.733067000000002">Cortar: 4  (4 (2 tela + 2 entretela))</text><text fill="#000000" font-family="sans-serif" font-size="0.9" stroke="none" text-anchor="middle" x="9.999999999999996" y="77.033067">TAPETA MANGA</text><text fill="#000000" font-family="sans-serif" font-size="0.6" stroke="none" text-anchor="middle" x="9.999999999999996" y="78.43306700000001">Pieza N.06</text><text fill="#000000" font-family="sans-serif" font-size="0.6" stroke="none" text-anchor="middle" x="9.999999999999996" y="79.833067">Talla: S</text><text fill="#000000" font-family="sans-serif" font-size="0.6" stroke="none" text-anchor="middle" x="9.999999999999996" y="81.233067">Cortar: 2  (par)</text><text fill="#000000" font-family="sans-serif" font-size="0.9" stroke="none" text-anchor="middle" x="32.4820400011656" y="77.885867">CUELLO MAO</text><text fill="#000000" font-family="sans-serif" font-size="0.6" stroke="none" text-anchor="middle" x="32.4820400011656" y="79.28586700000001">Pieza N.08</text><text fill="#000000" font-family="sans-serif" font-size="0.6" stroke="none" text-anchor="middle" x="32.4820400011656" y="80.685867">Talla: S</text><text fill="#000000" font-family="sans-serif" font-size="0.6" stroke="none" text-anchor="middle" x="32.4820400011656" y="82.08586700000001">Cortar: 2  (al doblez x2 (+ entretela))</text><text fill="#000000" font-family="sans-serif" font-size="0.6" stroke="none" text-anchor="middle" x="32.4820400011656" y="83.485867">AL DOBLEZ</text><text fill="#000000" font-family="sans-serif" font-size="0.9" stroke="none" text-anchor="middle" x="52.11429286858368" y="112.0976551491815">VISTA DELANTERA</text><text fill="#000000" font-family="sans-serif" font-size="0.6" stroke="none" text-anchor="middle" x="52.11429286858368" y="113.4976551491815">Pieza N.09</text><text fill="#000000" font-family="sans-serif" font-size="0.6" stroke="none" text-anchor="middle" x="52.11429286858368" y="114.8976551491815">Talla: S</text><text fill="#000000" font-family="sans-serif" font-size="0.6" stroke="none" text-anchor="middle" x="52.11429286858368" y="116.29765514918151">Cortar: 2  (par: izq + der)</text><text fill="#000000" font-family="sans-serif" font-size="0.9" stroke="none" text-anchor="middle" x="70.56408000233121" y="81.38934606976744">BOLSILLO</text><text fill="#000000" font-family="sans-serif" font-size="0.6" stroke="none" text-anchor="middle" x="70.56408000233121" y="82.78934606976745">Pieza N.10</text><text fill="#000000" font-family="sans-serif" font-size="0.6" stroke="none" text-anchor="middle" x="70.56408000233121" y="84.18934606976745">Talla: S</text><text fill="#000000" font-family="sans-serif" font-size="0.6" stroke="none" text-anchor="middle" x="70.56408000233121" y="85.58934606976744">Cortar: 1  (1 (opcional))</text></g><g fill="none" id="CENTROS" stroke="#0050ff" stroke-width="0.08"><circle cx="18.9" cy="29.233067" fill="#0050ff" r="0.15" /><circle cx="111.07679184148637" cy="52.233067" fill="#0050ff" r="0.15" /></g><g fill="none" id="HILO" stroke="#c0a000" stroke-width="0.08"><line x1="17.7" x2="17.7" y1="16.633067" y2="69.233067" /><line x1="17.7" x2="18.167302010770378" y1="69.233067" y2="68.12779380719654" /><line x1="17.7" x2="17.232697989229617" y1="69.233067" y2="68.12779380719654" /><line x1="17.7" x2="17.23269798922962" y1="16.633067" y2="17.738340192803463" /><line x1="17.7" x2="18.167302010770378" y1="16.633067" y2="17.738340192803463" /><line x1="36.2" x2="36.2" y1="7.233067" y2="59.233067" /><line x1="36.2" x2="36.66730201077038" y1="59.233067" y2="58.12779380719654" /><line x1="36.2" x2="35.73269798922962" y1="59.233067" y2="58.12779380719654" /><line x1="36.2" x2="35.73269798922962" y1="7.233067" y2="8.338340192803463" /><line x1="36.2" x2="36.66730201077038" y1="7.233067" y2="8.338340192803463" /><line x1="69.96000000000001" x2="69.96000000000001" y1="5.233067" y2="13.733067" /><line x1="69.96000000000001" x2="70.42730201077039" y1="13.733067" y2="12.627793807196538" /><line x1="69.96000000000001" x2="69.49269798922963" y1="13.733067" y2="12.627793807196538" /><line x1="69.96000000000001" x2="69.49269798922963" y1="5.233067" y2="6.338340192803462" /><line x1="69.96000000000001" x2="70.42730201077038" y1="5.233067" y2="6.338340192803462" /><line x1="106.95381423112721" x2="106.95381423112721" y1="8.193067" y2="62.233067" /><line x1="106.95381423112721" x2="107.4211162418976" y1="62.233067" y2="61.12779380719654" /><line x1="106.95381423112721" x2="106.48651222035683" y1="62.233067" y2="61.12779380719654" /><line x1="106.95381423112721" x2="106.48651222035683" y1="8.193067" y2="9.298340192803462" /><line x1="106.95381423112721" x2="107.4211162418976" y1="8.193067" y2="9.298340192803462" /><line x1="140.9457246725638" x2="140.9457246725638" y1="4.733067" y2="15.733067" /><line x1="140.9457246725638" x2="141.41302668333418" y1="15.733067" y2="14.627793807196538" /><line x1="140.9457246725638" x2="140.47842266179345" y1="15.733067" y2="14.627793807196538" /><line x1="140.9457246725638" x2="140.47842266179345" y1="4.733067" y2="5.838340192803462" /><line x1="140.9457246725638" x2="141.41302668333418" y1="4.733067" y2="5.838340192803462" /><line x1="10.0" x2="10.0" y1="78.63306700000001" y2="80.833067" /><line x1="10.0" x2="10.467302010770382" y1="80.833067" y2="79.72779380719655" /><line x1="10.0" x2="9.532697989229618" y1="80.833067" y2="79.72779380719655" /><line x1="10.0" x2="9.53269798922962" y1="78.63306700000001" y2="79.73834019280346" /><line x1="10.0" x2="10.46730201077038" y1="78.63306700000001" y2="79.73834019280346" /><line x1="22.5" x2="42.4640800023312" y1="78.63306700000001" y2="78.63306700000001" /><line x1="42.4640800023312" x2="41.35880680952774" y1="78.63306700000001" y2="78.16576498922963" /><line x1="42.4640800023312" x2="41.35880680952774" y1="78.63306700000001" y2="79.10036901077038" /><line x1="22.5" x2="23.605273192803462" y1="78.63306700000001" y2="79.10036901077038" /><line x1="22.5" x2="23.605273192803462" y1="78.63306700000001" y2="78.16576498922963" /><line x1="51.9640800023312" x2="51.9640800023312" y1="92.63306700000001" y2="143.233067" /><line x1="51.9640800023312" x2="52.43138201310158" y1="143.233067" y2="142.12779380719655" /><line x1="51.9640800023312" x2="51.496777991560826" y1="143.233067" y2="142.12779380719655" /><line x1="51.9640800023312" x2="51.496777991560826" y1="92.63306700000001" y2="93.73834019280346" /><line x1="51.9640800023312" x2="52.43138201310158" y1="92.63306700000001" y2="93.73834019280346" /><line x1="70.5640800023312" x2="70.5640800023312" y1="79.233067" y2="87.953067" /><line x1="70.5640800023312" x2="71.03138201310158" y1="87.953067" y2="86.84779380719654" /><line x1="70.5640800023312" x2="70.09677799156083" y1="87.953067" y2="86.84779380719654" /><line x1="70.5640800023312" x2="70.09677799156083" y1="79.233067" y2="80.33834019280347" /><line x1="70.5640800023312" x2="71.03138201310158" y1="79.233067" y2="80.33834019280347" /></g><g fill="none" id="DOBLEZ" stroke="#c000c0" stroke-width="0.08"><line x1="35.7" x2="35.7" y1="4.233067" y2="62.233067" /><line x1="65.7" x2="65.7" y1="4.233067" y2="14.233067" /><line x1="22.0" x2="22.0" y1="78.233067" y2="84.313067" /></g><g fill="none" id="BOTONES" stroke="#ff8000" stroke-width="0.08"><circle cx="5.7" cy="15.133067" fill="#ff8000" r="0.55" /><circle cx="5.7" cy="23.649733666666666" fill="#ff8000" r="0.55" /><circle cx="5.7" cy="32.166400333333335" fill="#ff8000" r="0.55" /><circle cx="5.7" cy="40.683067" fill="#ff8000" r="0.55" /><circle cx="5.7" cy="49.19973366666667" fill="#ff8000" r="0.55" /><circle cx="5.7" cy="57.71640033333333" fill="#ff8000" r="0.55" /><circle cx="5.7" cy="66.233067" fill="#ff8000" r="0.55" /><circle cx="130.6457246725638" cy="10.233067" fill="#ff8000" r="0.55" /><circle cx="41.9640800023312" cy="79.733067" fill="#ff8000" r="0.55" /></g><g fill="none" id="OJAL" stroke="#ff40a0" stroke-width="0.08"><line x1="4.9" x2="6.5" y1="15.133067" y2="15.133067" /><line x1="4.9" x2="6.5" y1="23.649733666666666" y2="23.649733666666666" /><line x1="4.9" x2="6.5" y1="32.166400333333335" y2="32.166400333333335" /><line x1="4.9" x2="6.5" y1="40.683067" y2="40.683067" /><line x1="4.9" x2="6.5" y1="49.19973366666667" y2="49.19973366666667" /><line x1="4.9" x2="6.5" y1="57.71640033333333" y2="57.71640033333333" /><line x1="4.9" x2="6.5" y1="66.233067" y2="66.233067" /><line x1="151.24572467256382" x2="151.24572467256382" y1="9.433067000000001" y2="11.033066999999999" /></g><g fill="none" id="REFERENCIAS" stroke="#b0b0b0" stroke-width="0.08"><text fill="#000000" font-family="sans-serif" font-size="0.5" stroke="none" text-anchor="start" x="5.7" y="12.633067">CF</text><text fill="#000000" font-family="sans-serif" font-size="0.5" stroke="none" text-anchor="start" x="36.0" y="33.233067">CB</text><text fill="#000000" font-family="sans-serif" font-size="0.5" stroke="none" text-anchor="start" x="140.9457246725638" y="9.433067000000001">DOBLEZ</text><text fill="#000000" font-family="sans-serif" font-size="0.5" stroke="none" text-anchor="start" x="70.5640800023312" y="79.733067">boca</text></g></svg>