<?xml version="1.0" encoding="utf-8" ?>
<svg baseProfile="full" height="68.45604899466933cm" version="1.1" viewBox="0 0 118.16272910969236 68.45604899466933" width="118.16272910969236cm" xmlns="http://www.w3.org/2000/svg" xmlns:ev="http://www.w3.org/2001/xml-events" xmlns:xlink="http://www.w3.org/1999/xlink"><defs /><g fill="none" id="CONSTRUCCION" stroke="#888888" stroke-width="0.08"><line x1="62.34396566825576" x2="60.59396566825576" y1="46.45604899466933" y2="34.45604899466933" /><line x1="58.84396566825576" x2="60.59396566825576" y1="46.45604899466933" y2="34.45604899466933" /><line x1="63.67491756310107" x2="60.59396566825576" y1="6.706048994669331" y2="14.706048994669331" /><line x1="64.47491756310106" x2="60.59396566825576" y1="6.706048994669331" y2="14.706048994669331" /></g><g fill="none" id="CORTE" stroke="#d00000" stroke-width="0.08"><polygon points="3.0,50.45604899466933 13.340744,50.45604899466933 13.212563,47.247192994669334 13.143897,45.09346299466933 13.11066,42.96227699466933 13.130075,40.861112994669334 13.219086,38.79754299466933 13.3943,36.77912699466933 13.67194,34.81326199466933 14.067846,32.90693699466933 14.597592,31.06641999466933 15.276864,29.29671499466933 16.123853,27.59562899466933 17.139198999999998,25.94733699466933 18.297404,24.33450899466933 19.566955999999998,22.74598299466933 20.914951,21.17040999466933 22.762335,19.08170199466933 22.223496,18.04286999466933 22.053786,17.644904994669332 21.923387,17.24726999466933 21.8304,16.84190699466933 21.771646,16.42249699466933 21.745508,15.987577994669332 21.750624,15.536895994669331 21.785548,15.07082899466933 21.84861,14.59020399466933 21.93787,14.09611899466933 22.051132,13.589796994669332 22.185973,13.07249299466933 22.339795,12.54543199466933 22.509865,12.00977199466933 22.693346,11.46658899466933 22.887334,10.916867994669332 23.088868,10.36150299466933 23.620404,8.91659899466933 10.574689,3.2229819946693308 9.904548,4.116712994669331 9.708808999999999,4.3783279946693305 9.512993999999999,4.641191994669331 9.317382,4.905510994669331 9.122256,5.171494994669331 8.927900000000001,5.439356994669331 8.734603,5.709309994669331 8.542656000000001,5.981565994669331 8.352355,6.256341994669331 8.163996000000001,6.533852994669331 7.977882,6.81431399466933 7.794319,7.0979419946693305 7.613614999999999,7.384950994669331 7.436242,7.675295994669331 7.2633030000000005,7.967438994669331 7.095078,8.258970994669331 6.93075,8.54863999466933 6.769275,8.835657994669331 6.609653,9.11924799466933 6.450927,9.39864199466933 6.292184000000001,9.67308399466933 6.132553,9.94183399466933 5.971203,10.20417199466933 5.807341,10.459406994669331 5.640206,10.706889994669332 5.469058,10.946022994669331 5.293161,11.17628799466933 5.110869,11.39834899466933 4.919404,11.61519099466933 4.71765,11.82953999466933 4.506278,12.042233994669331 4.286212,12.25393299466933 4.058442,12.46532499466933 3.824011,12.67713699466933 3.5840009999999998,12.89015099466933 3.0,13.403858994669331 3.0,50.45604899466933" /><polygon points="36.20205566825577,5.058613999999999 34.33685366825577,6.4998999999999985 32.57231366825577,7.998908999999999 30.967996668255765,9.582551 29.586667668255767,11.2812 28.501633668255767,13.121758999999999 27.781355668255767,15.099151999999998 27.413938668255767,17.172469999999997 27.355170668255766,19.314676 27.558592668255766,21.511235 27.980579668255768,23.752852000000004 28.580709668255768,26.031890000000004 29.320834668255767,28.340505999999998 30.16413766825577,30.669999000000004 31.074509668255764,33.010716 32.268304668255766,35.978988 44.59916366825577,35.978988 44.730885668255766,33.106253 44.82087966825577,31.188932 44.91497066825576,29.272962 45.01522366825577,27.358480999999998 45.12370466825577,25.445622 45.24248466825577,23.534336000000003 45.372985668255765,21.623810999999996 45.51388566825577,19.713057 45.663139668255766,17.801764 45.81868766825576,15.889798 45.97846466825577,13.977023999999998 46.17621266825577,11.64014 45.544033668255764,10.917574999999998 45.19064266825576,10.514404 44.834649668255764,10.109757 44.47551566825577,9.70377 44.112398668255764,9.29624 43.74446166825577,8.886968999999999 43.37087166825577,8.475765999999998 42.99080866825577,8.062457 42.60437966825577,7.647831999999999 42.21504066825577,7.2340040000000005 41.82856266825577,6.821958 41.449506668255765,6.411222 41.082304668255766,6.001388 40.73138266825576,5.592267999999999 40.40111066825577,5.183893999999999 40.09574166825577,4.776529999999999 39.819305668255765,4.370645 38.99166066825577,3.0 36.20205566825577,5.058613999999999" /><polygon points="60.59396566825576,41.38572499466933 61.47922166825577,47.45604899466933 74.59261766825577,47.45604899466933 74.73058666825577,44.839895994669334 74.82060166825576,43.17247699466933 74.91468966825576,41.50660999466933 75.01491366825576,39.84245199466933 75.12333066825576,38.18015699466933 75.24200866825576,36.519667994669334 75.37238066825577,34.86004799466933 75.51314666825577,33.200165994669334 75.66227366825576,31.53966499466933 75.81770766825576,29.87839099466933 75.97739166825576,28.21619199466933 76.17365466825576,26.19952999466933 75.68884566825577,25.468073994669332 75.40029966825577,25.03245899466933 75.11181266825577,24.59639299466933 74.82333366825577,24.15952899466933 74.53481066825577,23.72152099466933 74.24619166825576,23.28202099466933 73.95742566825577,22.84068299466933 73.66846966825577,22.397175994669333 73.37971166825577,21.95178499466933 73.09294466825577,21.50556099466933 72.81068666825577,21.059100994669333 72.53504766825577,20.61235299466933 72.26809466825577,20.16527099466933 72.01186866825577,19.717853994669333 71.76837866825576,19.27014199466933 71.53958566825577,18.82220699466933 71.32739566825578,18.37414499466933 71.13363966825577,17.92605699466933 70.96006066825576,17.478030994669332 70.80830766825576,17.03010499466933 70.67991066825577,16.582176994669332 70.57585866825576,16.13228899466933 70.49541666825577,15.67650799466933 70.43679866825576,15.21263799466933 70.39860766825576,14.74061299466933 70.37945466825576,14.26061199466933 70.37791266825576,13.77293099466933 70.39250266825576,13.277947994669331 70.42168466825576,12.77609699466933 70.46386066825576,12.267843994669331 70.51737866825576,11.753668994669331 70.58053166825576,11.23405299466933 70.65156966825577,10.70946599466933 70.72870066825577,10.180359994669331 70.81009966825576,9.64716299466933 71.01520066825577,8.33321399466933 63.98668766825577,5.421356994669331 63.852809668255766,5.697325994669331 58.12833066825577,3.325719994669331 57.47622666825577,3.768658994669331 57.27339766825577,3.905147994669331 57.07306766825577,4.037445994669331 56.87473966825577,4.164744994669331 56.67793366825577,4.286294994669331 56.48217566825576,4.401406994669331 56.28632566825577,4.509824994669331 56.088375668255765,4.612098994669331 55.887318668255766,4.708737994669331 55.68334266825577,4.799648994669331 55.47675066825577,4.884686994669331 55.267846668255764,4.963710994669331 55.05693566825577,5.036587994669331 54.84432666825577,5.103188994669331 54.63032666825577,5.1633899946693305 54.41524366825577,5.217075994669331 54.199286668255766,5.264156994669331 53.981808668255766,5.3047459946693305 53.761657668255765,5.339332994669331 53.538404668255765,5.368407994669331 53.31205266825577,5.392392994669331 53.08263266825577,5.411720994669331 52.85019966825577,5.426839994669331 52.61482066825577,5.438213994669331 52.37657466825577,5.446325994669331 52.13554666825577,5.451673994669331 51.891824668255765,5.454777994669331 51.64549866825577,5.456169994669331 51.39665466825576,5.456404994669331 51.14396566825577,5.456047994669331 51.14396566825577,47.45604899466933 59.708709668255764,47.45604899466933 60.59396566825576,41.38572499466933" /><polygon points="84.72152410969237,65.45604899466933 110.55022810969236,65.45604899466933 115.16272910969236,14.01105899466933 114.45638610969236,13.22642599466933 114.03557910969236,12.76428399466933 113.60610310969236,12.30327199466933 113.16590610969236,11.846674994669332 112.71523210969237,11.39883599466933 112.25631010969236,10.961495994669331 111.79013510969236,10.53414099466933 111.31732710969236,10.115893994669332 110.83849510969236,9.70587499466933 110.35423410969236,9.30320299466933 109.86512910969236,8.906996994669331 109.37175610969236,8.516378994669331 108.87467610969236,8.130471994669332 108.37378310969237,7.747901994669331 107.86704410969236,7.367190994669331 107.35196410969236,6.989694994669331 106.82740510969236,6.618331994669331 106.29239010969236,6.256227994669331 105.74588710969236,5.906564994669331 105.18683010969237,5.572598994669331 104.61413510969236,5.25768599466933 104.02673910969236,4.965292994669331 103.42364810969237,4.699025994669331 102.80551710969236,4.463197994669331 102.17743610969237,4.261051994669331 101.54514510969236,4.090026994669331 100.91089310969237,3.945546994669331 100.27622410969236,3.8229779946693307 99.64255710969236,3.717817994669331 99.01124110969236,3.625707994669331 98.38360910969236,3.542430994669331 97.66211110969236,3.451435994669331 96.92695010969236,3.505375994669331 96.28620410969236,3.556397994669331 95.64163410969236,3.615840994669331 94.99438710969235,3.6878739946693306 94.34561410969236,3.776804994669331 93.69651210969236,3.8870789946693307 93.04838310969237,4.023275994669331 92.40279410969237,4.1900719946693314 91.76393210969236,4.391317994669331 91.13766610969236,4.626240994669331 90.52630110969235,4.890587994669331 89.92924310969237,5.180849994669331 89.34566110969236,5.493689994669331 88.77467310969236,5.825882994669331 88.21538110969236,6.174307994669331 87.66690010969236,6.535924994669331 87.12837910969236,6.907758994669331 86.59900310969236,7.286886994669331 86.07718410969235,7.671035994669331 85.55996610969237,8.060728994669331 85.04673810969236,8.459194994669332 84.53933810969237,8.86861999466933 84.03998010969237,9.290982994669331 83.55093510969236,9.728299994669332 83.07454910969236,10.18261199466933 82.61326110969236,10.655960994669332 82.16962010969236,11.15035999466933 81.74678510969235,11.66715999466933 81.35043210969236,12.20241799466933 80.98066110969236,12.745633994669332 80.63146310969236,13.288829994669332 80.11798710969236,14.11104399466933 84.72152410969237,65.45604899466933" /></g><g fill="none" id="COSTURA" stroke="#00a000" stroke-width="0.08"><polygon points="4.0,13.856048994669331 4.246137211430921,13.639538065340647 4.491123035168625,13.422107938537337 4.733806083519894,13.20283941678478 4.973034968791513,12.980813302608349 5.207658303290262,12.755110398533422 5.436524699322925,12.52481150708537 5.658482769196286,12.288997430789578 5.872381125217126,12.046748972171414 6.077197617466955,11.797249185832879 6.273182834463885,11.540688108648853 6.461311146615966,11.277828428961055 6.642565282091676,11.009439447716225 6.817927969059488,10.736290465861114 6.98838193568788,10.459150784342459 7.154909910145326,10.178789704107007 7.318494620600303,9.895976526101501 7.480118795221287,9.611480551272686 7.640765162176753,9.326071080567306 7.801416449635177,9.040517414932108 7.963055385765033,8.755588855313832 8.1266646987348,8.472054702659225 8.293226961401807,8.190684137633585 8.46345393201771,7.912036607268368 8.637230036760208,7.636030827413446 8.814282265311874,7.36246358649111 8.994337607355273,7.091131672923641 9.177123052572977,6.821831875133324 9.362365590647556,6.5543609815424455 9.549792211261579,6.288515780573288 9.739129904097615,6.024093060648139 9.930105658838233,5.760889610189281 10.122446465166005,5.498702217618999 10.315879312763496,5.237327671359578 10.510131191313281,4.976562759833304 10.704929090497926,4.71620427146246 10.9,4.456048994669331 22.3564392373896,9.456048994669331 22.14959802771455,10.018316575609695 21.945801650517318,10.579915164380122 21.7480949382757,11.140175768810673 21.55952272346752,11.698429396731417 21.38312983857059,12.254007055972409 21.22196111606271,12.80623975436372 21.079061388421707,13.354458499735406 20.957475488125386,13.897994299917535 20.86024824765156,14.436178162740166 20.790424499478032,14.968341096033365 20.751049076082626,15.493814107627195 20.745166809943143,16.011928205351715 20.7758225335374,16.522014397036997 20.84606107934321,17.023403690513092 20.958927279838385,17.51542709361007 21.117015777873206,17.997496615065668 21.318439554671198,18.46983063195099 21.55874127090857,18.93310998933866 20.160447249152345,20.514062637055197 18.796228535738635,22.10859892641722 17.500160439009964,23.730302499070216 16.30631826730885,25.392756996659685 15.248777328977804,27.109546060831104 14.360395151718093,28.893767882132437 13.648539824779268,30.748359645547364 13.0964158068195,32.6666260451219 12.686275174618896,34.64149212128275 12.400370004957557,36.66588291445663 12.22095237461559,38.73272346507026 12.130274360373102,40.83493881355034 12.110588039010192,42.96545400032356 12.14414548730697,45.11719406581667 12.213198782043538,47.28308405045635 12.3,49.45604899466933 4.0,49.45604899466933" /><polygon points="38.70270693916434,4.456048994669331 38.977398778606855,4.910960021226558 39.281992925020276,5.358189045620559 39.61200156217036,5.798422396518548 39.96293687382289,6.232346402587746 40.33031104374362,6.660647392495351 40.709636255698314,7.0840116949085985 41.09642469345273,7.5031256384946925 41.486188540772645,7.918675551920844 41.87443998142382,8.331347763854277 42.256982915383944,8.741803540544653 42.632745662171146,9.15043571781536 43.002552447887055,9.557474247150557 43.367254124113295,9.963146792541027 43.72770154243146,10.367681017977551 44.084745554423186,10.771304587450919 44.439237011670066,11.174245164951932 44.79202676575372,11.576730414471355 45.14396566825577,11.978988 44.98198043939607,13.893242995089475 44.82206796786526,15.807633147107554 44.6663010109922,17.722293612982853 44.51675232610578,19.637359549643953 44.375494670534884,21.55296611401949 44.244600801608385,23.46924846303807 44.12546246005795,25.386297347025376 44.01670547445349,27.30402316128565 43.916253573678375,29.222290519769018 43.82203048652527,31.140964036419717 43.731959941786855,33.05990832518197 43.64396566825577,34.978988 32.94396566825577,34.978988 32.00442421708829,32.64289547606096 31.10040533247986,30.31851408507798 30.267431580989495,28.017554960007118 29.541025529176252,25.751729233804454 28.95670974359917,23.532748039426025 28.55000679081727,21.372322509827903 28.3564392373896,19.282163777966147 28.411529649875206,17.273982976796823 28.75080059483312,15.359491239275998 29.409774638822377,13.550399698359717 30.40994598922162,11.853794596534945 31.709380768545735,10.255851110255355 33.24822715497947,8.736837201246745 34.96663224674542,7.277020475191362 36.80474314206617,5.856668537771476" /><polygon points="51.14396566825577,6.456048994669331 51.39641997746918,6.456405357488402 51.648796531171,6.456167584218293 51.90101757384964,6.454741538769824 52.153005349993514,6.451533085053816 52.40468210409102,6.445948086981089 52.65597008063058,6.437392408462461 52.9067915241006,6.425271913408755 53.15706867898948,6.40899246573079 53.406723789785644,6.387959929339387 53.655679100977494,6.361580168145364 53.903856857053434,6.329259046059543 54.15117930250189,6.290402426992744 54.39756824169297,6.244417811576033 54.642885426004916,6.190936026648245 54.88687212671578,6.130035942734912 55.12925522007027,6.061849962885249 55.369761582313075,5.986510490148481 55.608118089688894,5.904149927573823 55.844051618442435,5.814900678210498 56.07728904481838,5.718895145107725 56.30755724506143,5.616265731314723 56.5345830954163,5.507144839880711 56.75809347212767,5.391664873854909 56.97786430559223,5.270003843042656 57.194174307997734,5.142807204867925 57.40759716024238,5.010994655845472 57.61871029235833,4.875489378144842 57.828091134377765,4.737214553935579 58.03631711633285,4.597093365387227 58.24396566825577,4.456048994669331 63.67491756310107,6.706048994669331 60.59396566825576,14.706048994669331 64.47491756310106,6.706048994669331 69.90586945794637,8.956048994669331 69.82180517983471,9.494592541333024 69.73964569539172,10.032776393710577 69.661295798286,10.570240857515854 69.58866028218625,11.106626238462713 69.52364394076108,11.641572842265017 69.46815156767914,12.174720974636625 69.42408795660911,12.7057109412914 69.3933579012196,13.234183047943201 69.37786619517928,13.759777600305892 69.37951763215679,14.282134904093331 69.40021700582078,14.800895265019381 69.4418691098399,15.3156989887979 69.5063787378828,15.826186381142753 69.59565068361812,16.3319977477678 69.71147494125657,16.83278848731169 69.85356586508694,17.328486887133877 70.01983453573108,17.81925831475357 70.20813204571091,18.30527602445088 70.41630948754838,18.78671327050595 70.64221795376542,19.263743307198904 70.88370853688397,19.736539388809874 71.13863232942595,20.20527476961899 71.4048404239133,20.670122703906376 71.68018391286796,21.13125644595217 71.96251388881186,21.5888492500365 72.24968144426694,22.04307437043949 72.53953767175511,22.494105061441278 72.82999611813874,22.9421194336628 73.12009647359314,23.387383164669256 73.40985516437163,23.830237881323452 73.69932099971363,24.271027728532864 73.98854278885855,24.710096851204945 74.27756934104582,25.14778939424717 74.56644946551482,25.584449502567 74.855231971505,26.020421321071897 75.14396566825576,26.45604899466933 74.9820341302608,28.11994641558222 74.82217196307693,29.78399900458837 74.66644853751521,31.44836192978102 74.51693322438678,33.11319035925344 74.3756953945027,34.77863946109886 74.24480441867405,36.44486440341055 74.12565291456869,38.111969609149824 74.01687143527803,39.77985239277358 73.91638597600608,41.44835723871743 73.82212253174818,43.11732863140135 73.73200709749963,44.78661105524533 73.64396566825576,46.45604899466933 62.34396566825576,46.45604899466933 60.59396566825576,34.45604899466933 58.84396566825576,46.45604899466933 51.14396566825577,46.45604899466933" /><polygon points="81.14396566825576,14.356048994669331 81.4761821691678,13.824079980438356 81.81472174026626,13.29746306345164 82.16590745173762,12.781550340953435 82.53605247886937,12.281685597872688 82.92913416000911,11.80125037441999 83.34379617707616,11.339145615873441 83.77794122344822,10.893649792188857 84.22947199250306,10.46304137332205 84.69629117761845,10.045598829228826 85.1763014721721,9.639600629864999 85.66740556954178,9.24332524518638 86.16750616310523,8.855051145148785 86.6745059462402,8.473056799708017 87.18658196146802,8.096081047479426 87.70364444386543,7.725771092393575 88.2262785527354,7.364906687793233 88.75507096862196,7.01627013972362 89.29060837206919,6.682643754229955 89.83347744362115,6.36680983735746 90.38426486382191,6.0715506951513545 90.9435573132155,5.79964863365686 91.51194147234602,5.553885958919196 92.09000402175751,5.337044976983583 92.67828348968715,5.151732223141295 93.27640002055293,4.997201848825171 93.88314957007265,4.869699462811897 94.49729884986719,4.765363923915354 95.11761457155741,4.680334090949419 95.74286344676418,4.610748822727971 96.37181218710835,4.552746978064889 97.00322750421078,4.502467415774049 97.63587610969236,4.456048994669331 98.25527729516244,4.5341678494009745 98.87328305917146,4.616167370362266 99.48849798025836,4.705928223782854 100.0995266369621,4.807331075892385 100.7049736078216,4.924256592920509 101.30344347137583,5.0605854410968725 101.89354080616371,5.220198286651125 102.47387019072421,5.406975795812913 103.04322531510338,5.624193995239937 103.6017575484714,5.870788051867219 104.15021147872659,6.143796455249845 104.68933417935308,6.440249747866807 105.21987272383502,6.757178472197095 105.74257418565652,7.091613170719699 106.25818563830174,7.440584385913612 106.76745415525481,7.801122660257821 107.27112680999984,8.17025853623132 107.769950676021,8.545022556313096 108.26455621513122,8.922790618652577 108.75475711329555,9.30335757455982 109.24001789168291,9.687552357448624 109.71980175614588,10.076207796157341 110.19357191253701,10.470156719524324 110.66079156670885,10.870231956387926 111.12092392451399,11.2772663355865 111.57343219180497,11.692092685958396 112.01777957443436,12.11554383634197 112.45342927825472,12.548452615575574 112.88024626989,12.991171017621854 113.30001100427793,13.441758543868563 113.71507416989593,13.897592229438214 114.12778655112896,14.356048994669331 109.63587610969236,64.45604899466933 85.63587610969236,64.45604899466933" /></g><g fill="none" id="PIQUETES" stroke="#00b0b0" stroke-width="0.08" /><g fill="none" id="TEXTOS" stroke="#000000" stroke-width="0.08"><text fill="#000000" font-family="sans-serif" font-size="0.9" stroke="none" text-anchor="middle" x="10.86463328643876" y="22.174320951080553">DELANTERO CENTRO (princesa)</text><text fill="#000000" font-family="sans-serif" font-size="0.6" stroke="none" text-anchor="middle" x="10.86463328643876" y="23.57432095108055">Pieza N.01</text><text fill="#000000" font-family="sans-serif" font-size="0.6" stroke="none" text-anchor="middle" x="10.86463328643876" y="24.974320951080553">Talla: S</text><text fill="#000000" font-family="sans-serif" font-size="0.6" stroke="none" text-anchor="middle" x="10.86463328643876" y="26.374320951080552">Cortar: 2  (par: izq + der)</text><text fill="#000000" font-family="sans-serif" font-size="0.9" stroke="none" text-anchor="middle" x="37.11134167256146" y="18.11580864870203">DELANTERO COSTADO (princesa)</text><text fill="#000000" font-family="sans-serif" font-size="0.6" stroke="none" text-anchor="middle" x="37.11134167256146" y="19.515808648702027">Pieza N.11</text><text fill="#000000" font-family="sans-serif" font-size="0.6" stroke="none" text-anchor="middle" x="37.11134167256146" y="20.915808648702026">Talla: S</text><text fill="#000000" font-family="sans-serif" font-size="0.6" stroke="none" text-anchor="middle" x="37.11134167256146" y="22.31580864870203">Cortar: 2  (par: izq + der)</text><text fill="#000000" font-family="sans-serif" font-size="0.9" stroke="none" text-anchor="middle" x="61.90274629585146" y="23.451465048512418">ESPALDA (base entallada)</text><text fill="#000000" font-family="sans-serif" font-size="0.6" stroke="none" text-anchor="middle" x="61.90274629585146" y="24.851465048512416">Pieza N.02</text><text fill="#000000" font-family="sans-serif" font-size="0.6" stroke="none" text-anchor="middle" x="61.90274629585146" y="26.25146504851242">Talla: S</text><text fill="#000000" font-family="sans-serif" font-size="0.6" stroke="none" text-anchor="middle" x="61.90274629585146" y="27.651465048512417">Cortar: 1  (al doblez)</text><text fill="#000000" font-family="sans-serif" font-size="0.6" stroke="none" text-anchor="middle" x="61.90274629585146" y="29.05146504851242">AL DOBLEZ</text><text fill="#000000" font-family="sans-serif" font-size="0.9" stroke="none" text-anchor="middle" x="97.59107764893423" y="31.70610830972239">MANGA</text><text fill="#000000" font-family="sans-serif" font-size="0.6" stroke="none" text-anchor="middle" x="97.59107764893423" y="33.10610830972239">Pieza N.03</text><text fill="#000000" font-family="sans-serif" font-size="0.6" stroke="none" text-anchor="middle" x="97.59107764893423" y="34.50610830972239">Talla: S</text><text fill="#000000" font-family="sans-serif" font-size="0.6" stroke="none" text-anchor="middle" x="97.59107764893423" y="35.906108309722384">Cortar: 2  (par)</text></g><g fill="none" id="CENTROS" stroke="#0050ff" stroke-width="0.08"><circle cx="13.3" cy="27.95604899466933" fill="#0050ff" r="0.15" /><circle cx="60.59396566825576" cy="34.45604899466933" fill="#0050ff" r="0.15" /><circle cx="60.59396566825576" cy="14.706048994669331" fill="#0050ff" r="0.15" /></g><g fill="none" id="HILO" stroke="#c0a000" stroke-width="0.08"><line x1="5.5" x2="5.5" y1="17.85604899466933" y2="46.45604899466933" /><line x1="5.5" x2="5.96730201077038" y1="46.45604899466933" y2="45.35077580186587" /><line x1="5.5" x2="5.032697989229619" y1="46.45604899466933" y2="45.35077580186587" /><line x1="5.5" x2="5.03269798922962" y1="17.85604899466933" y2="18.961322187472796" /><line x1="5.5" x2="5.96730201077038" y1="17.85604899466933" y2="18.961322187472796" /><line x1="34.64396566825577" x2="34.64396566825577" y1="14.978988" y2="31.978988" /><line x1="34.64396566825577" x2="35.11126767902615" y1="31.978988" y2="30.873714807196542" /><line x1="34.64396566825577" x2="34.176663657485385" y1="31.978988" y2="30.873714807196542" /><line x1="34.64396566825577" x2="34.176663657485385" y1="14.978988" y2="16.08426119280346" /><line x1="34.64396566825577" x2="35.11126767902615" y1="14.978988" y2="16.08426119280346" /><line x1="52.14396566825577" x2="52.14396566825577" y1="7.456048994669331" y2="44.45604899466933" /><line x1="52.14396566825577" x2="52.61126767902615" y1="44.45604899466933" y2="43.35077580186587" /><line x1="52.14396566825577" x2="51.676663657485385" y1="44.45604899466933" y2="43.35077580186587" /><line x1="52.14396566825577" x2="51.676663657485385" y1="7.456048994669331" y2="8.561322187472793" /><line x1="52.14396566825577" x2="52.61126767902615" y1="7.456048994669331" y2="8.561322187472793" /><line x1="97.63587610969236" x2="97.63587610969236" y1="8.416048994669332" y2="62.45604899466933" /><line x1="97.63587610969236" x2="98.10317812046274" y1="62.45604899466933" y2="61.35077580186587" /><line x1="97.63587610969236" x2="97.16857409892198" y1="62.45604899466933" y2="61.35077580186587" /><line x1="97.63587610969236" x2="97.16857409892198" y1="8.416048994669332" y2="9.521322187472794" /><line x1="97.63587610969236" x2="98.10317812046274" y1="8.416048994669332" y2="9.521322187472794" /></g><g fill="none" id="DOBLEZ" stroke="#c000c0" stroke-width="0.08"><line x1="51.14396566825577" x2="51.14396566825577" y1="4.456048994669331" y2="46.45604899466933" /></g><g fill="none" id="BOTONES" stroke="#ff8000" stroke-width="0.08" /><g fill="none" id="OJAL" stroke="#ff40a0" stroke-width="0.08" /><g fill="none" id="REFERENCIAS" stroke="#b0b0b0" stroke-width="0.08" /></svg>