<?xml version="1.0" encoding="utf-8" ?>
<svg baseProfile="full" height="150.488657cm" version="1.1" viewBox="0 0 168.0 150.488657" width="168.0cm" xmlns="http://www.w3.org/2000/svg" xmlns:ev="http://www.w3.org/2001/xml-events" xmlns:xlink="http://www.w3.org/1999/xlink"><defs /><rect fill="#f7f3ea" height="142.488657" stroke="#333" stroke-width="0.15" width="160.0" x="4.0" y="4.0" /><text fill="#000" font-family="sans-serif" font-size="1.4" x="4.0" y="3.0">PLANO DE CORTE — ancho 160 cm — largo 1.42 m</text><polygon fill="#cfe3f7" fill-opacity="0.5" points="4.0,74.249961 12.016318,74.249961 11.102651,17.805645 15.324922,5.244388 12.836147,4.0 12.148354000000001,4.831521 11.966821,5.051469 11.78508,5.272634 11.603374,5.495214 11.421947,5.719409000000001 11.241047,5.945421 11.060925000000001,6.173453 10.881836,6.403711 10.704037,6.636402 10.527788000000001,6.871732 10.353356,7.109908 10.181009,7.3511370000000005 10.011021,7.595626 9.843862,7.843293 9.680727000000001,8.092547 9.52206,8.341023 9.367178,8.58755 9.215175,8.831378 9.065190000000001,9.071772 8.916409,9.308008000000001 8.768061,9.539376 8.619417,9.765184 8.469793,9.984765 8.318541,10.197486 8.165041,10.402757000000001 8.008697999999999,10.600048000000001 7.848885,10.788939 7.683755,10.970448000000001 7.510444,11.147644 7.327877,11.322816 7.136627000000001,11.496621999999999 6.937446,11.669635 6.731152,11.842462000000001 6.518610000000001,12.015755 5.985912000000001,12.442287 5.824653,13.649961000000001 4.0,13.649961000000001 4.0,74.249961" stroke="#1f6fb2" stroke-width="0.1" /><text fill="#0a3d62" font-family="sans-serif" font-size="1.6" text-anchor="middle" x="9.662461" y="39.1249805">09</text><polygon fill="#cfe3f7" fill-opacity="0.5" points="16.324922,74.249961 24.34124,74.249961 23.427573000000002,17.805645 27.649844,5.244388 25.161069,4.0 24.473276000000002,4.831521 24.291743,5.051469 24.110002,5.272634 23.928296000000003,5.495214 23.746869,5.719409000000001 23.565969000000003,5.945421 23.385847000000002,6.173453 23.206758,6.403711 23.028959,6.636402 22.852710000000002,6.871732 22.678278,7.109908 22.505931,7.3511370000000005 22.335943,7.595626 22.168784000000002,7.843293 22.005649000000002,8.092547 21.846982,8.341023 21.6921,8.58755 21.540097000000003,8.831378 21.390112000000002,9.071772 21.241331000000002,9.308008000000001 21.092983,9.539376 20.944339,9.765184 20.794715,9.984765 20.643463,10.197486 20.489963000000003,10.402757000000001 20.33362,10.600048000000001 20.173807,10.788939 20.008677000000002,10.970448000000001 19.835366,11.147644 19.652799,11.322816 19.461549,11.496621999999999 19.262368000000002,11.669635 19.056074000000002,11.842462000000001 18.843532,12.015755 18.310834,12.442287 18.149575000000002,13.649961000000001 16.324922,13.649961000000001 16.324922,74.249961" stroke="#1f6fb2" stroke-width="0.1" /><text fill="#0a3d62" font-family="sans-serif" font-size="1.6" text-anchor="middle" x="21.987383" y="39.1249805">09</text><polygon fill="#cfe3f7" fill-opacity="0.5" points="28.649844,74.21784 56.349844000000004,74.21784 56.349844000000004,25.679382 55.846377000000004,25.020819 55.547948000000005,24.631024 55.247834,24.240163 54.945727000000005,23.848405 54.641106,23.455645999999998 54.333453000000006,23.061783 54.02225,22.666715 53.706979000000004,22.270348 53.387147999999996,21.872616999999998 53.063092,21.474411 52.737573,21.077533 52.414434,20.682646 52.09664,20.28931 51.787084,19.897123 51.488641,19.505798 51.204144,19.115155 50.936358999999996,18.72512 50.687949,18.33571 50.461427,17.947006000000002 50.259109,17.559107 50.083062,17.172049 49.935069,16.785689 49.816344,16.398586 49.726433,16.005012 49.662861,15.599468 49.623884000000004,15.180768 49.60798,14.749127000000001 49.613533000000004,14.305094 49.638774,13.849440000000001 49.68177,13.383072 49.74043,12.906955 49.812527,12.422057 49.895719,11.929324 49.987567,11.429647 50.085558000000006,10.923856 50.343958,9.623273000000001 37.459422,4.0 36.798198,4.7994 36.616665000000005,5.019348 36.434924,5.240513 36.253218000000004,5.463093 36.071791000000005,5.687288000000001 35.890891,5.9133 35.710769,6.141332 35.53168,6.37159 35.353881,6.604281 35.177632,6.839611 35.0032,7.077787 34.830853000000005,7.319016 34.660865,7.563505 34.493706,7.811172 34.330571,8.060426 34.171904,8.308902 34.017022000000004,8.555429 33.865019000000004,8.799257 33.715034,9.039651 33.566253,9.275887 33.417905000000005,9.507255 33.269261,9.733063 33.119637000000004,9.952644 32.968385,10.165365 32.814885000000004,10.370636000000001 32.658542000000004,10.567927000000001 32.498729000000004,10.756817999999999 32.333599,10.938327000000001 32.160288,11.115523 31.977721000000003,11.290695 31.786471000000002,11.464500999999998 31.587290000000003,11.637514 31.380996000000003,11.810341000000001 31.168454,11.983633999999999 30.635756,12.410166 30.474497000000003,13.617840000000001 28.649844,13.617840000000001 28.649844,74.21784" stroke="#1f6fb2" stroke-width="0.1" /><text fill="#0a3d62" font-family="sans-serif" font-size="1.6" text-anchor="middle" x="42.499844" y="39.10892">01</text><polygon fill="#cfe3f7" fill-opacity="0.5" points="57.349844000000004,74.21784 85.04984400000001,74.21784 85.04984400000001,25.679382 84.546377,25.020819 84.24794800000001,24.631024 83.947834,24.240163 83.64572700000001,23.848405 83.341106,23.455645999999998 83.03345300000001,23.061783 82.72225,22.666715 82.406979,22.270348 82.087148,21.872616999999998 81.763092,21.474411 81.437573,21.077533 81.114434,20.682646 80.79664,20.28931 80.48708400000001,19.897123 80.188641,19.505798 79.904144,19.115155 79.636359,18.72512 79.387949,18.33571 79.161427,17.947006000000002 78.95910900000001,17.559107 78.783062,17.172049 78.635069,16.785689 78.516344,16.398586 78.426433,16.005012 78.36286100000001,15.599468 78.323884,15.180768 78.30798,14.749127000000001 78.313533,14.305094 78.338774,13.849440000000001 78.38177,13.383072 78.44043,12.906955 78.512527,12.422057 78.595719,11.929324 78.687567,11.429647 78.78555800000001,10.923856 79.043958,9.623273000000001 66.159422,4.0 65.498198,4.7994 65.316665,5.019348 65.134924,5.240513 64.953218,5.463093 64.77179100000001,5.687288000000001 64.590891,5.9133 64.410769,6.141332 64.23168000000001,6.37159 64.053881,6.604281 63.877632000000006,6.839611 63.7032,7.077787 63.53085300000001,7.319016 63.360865000000004,7.563505 63.193706000000006,7.811172 63.030571,8.060426 62.871904,8.308902 62.71702200000001,8.555429 62.56501900000001,8.799257 62.415034000000006,9.039651 62.266253000000006,9.275887 62.11790500000001,9.507255 61.969261,9.733063 61.81963700000001,9.952644 61.668385,10.165365 61.51488500000001,10.370636000000001 61.35854200000001,10.567927000000001 61.19872900000001,10.756817999999999 61.033599,10.938327000000001 60.860288000000004,11.115523 60.677721000000005,11.290695 60.486471,11.464500999999998 60.287290000000006,11.637514 60.080996000000006,11.810341000000001 59.86845400000001,11.983633999999999 59.335756,12.410166 59.174497,13.617840000000001 57.349844000000004,13.617840000000001 57.349844000000004,74.21784" stroke="#1f6fb2" stroke-width="0.1" /><text fill="#0a3d62" font-family="sans-serif" font-size="1.6" text-anchor="middle" x="71.199844" y="39.10892">01</text><polygon fill="#cfe3f7" fill-opacity="0.5" points="90.278424,66.003991 116.12274000000001,66.003991 120.359592,13.779323999999999 119.63863400000001,13.02338 119.220708,12.590219000000001 118.79413300000002,12.158232 118.35707400000001,11.730794 117.91011700000001,11.312175 117.45556400000001,10.903946000000001 116.99434000000001,10.505552 116.527039,10.116143000000001 116.054247,9.734863 115.576535,9.360859999999999 115.09446400000002,8.99328 114.60858400000001,8.631273 114.119426,8.273982 113.626659,7.919969 113.12813,7.568092 112.621657,7.219842 112.106324,6.8779330000000005 111.58129400000001,6.54521 111.04568900000001,6.224572 110.49860000000001,5.918985 109.93911200000001,5.631502 109.36633400000001,5.365278 108.77945700000001,5.123591 108.17962100000001,4.910448 107.571966,4.728197 106.961402,4.574102 106.349704,4.443979000000001 105.73818800000001,4.333647 105.128061,4.239045 104.52048200000002,4.156234 103.91658900000002,4.081401 103.22537500000001,4.0 102.52193500000001,4.0478000000000005 101.90631800000001,4.093229 101.286938,4.146213 100.66477400000001,4.210494 100.040811,4.289933 99.416066,4.38851 98.79164100000001,4.510323 98.16880900000001,4.659567 97.55085400000002,4.839931 96.94331500000001,5.051494 96.348951,5.290505 95.767407,5.553771 95.197985,5.838288 94.63993900000001,6.141147 94.09250200000001,6.459529 93.554912,6.790687 93.02642900000001,7.131934 92.50635000000001,7.480633 91.99347800000001,7.834543 91.48487300000001,8.193723 90.97936800000001,8.561268 90.478526,8.939566 89.98453400000001,9.330648 89.49963100000001,9.736587 89.02613600000001,10.159491 88.566461,10.601475 88.12313700000001,11.064637000000001 87.69920900000001,11.550574000000001 87.300621,12.055903 86.928622,12.570084999999999 86.57770200000002,13.084399000000001 86.04984400000001,13.881281999999999 90.278424,66.003991" stroke="#1f6fb2" stroke-width="0.1" /><text fill="#0a3d62" font-family="sans-serif" font-size="1.6" text-anchor="middle" x="103.20471800000001" y="35.0019955">04</text><polygon fill="#cfe3f7" fill-opacity="0.5" points="125.58817200000001,66.003991 151.432488,66.003991 155.66934,13.779323999999999 154.948382,13.02338 154.53045600000002,12.590219000000001 154.103881,12.158232 153.66682200000002,11.730794 153.219865,11.312175 152.765312,10.903946000000001 152.304088,10.505552 151.83678700000002,10.116143000000001 151.36399500000002,9.734863 150.886283,9.360859999999999 150.404212,8.99328 149.91833200000002,8.631273 149.42917400000002,8.273982 148.936407,7.919969 148.437878,7.568092 147.931405,7.219842 147.416072,6.8779330000000005 146.891042,6.54521 146.355437,6.224572 145.808348,5.918985 145.24886,5.631502 144.676082,5.365278 144.089205,5.123591 143.489369,4.910448 142.88171400000002,4.728197 142.27115,4.574102 141.65945200000002,4.443979000000001 141.047936,4.333647 140.43780900000002,4.239045 139.83023,4.156234 139.226337,4.081401 138.535123,4.0 137.831683,4.0478000000000005 137.216066,4.093229 136.596686,4.146213 135.974522,4.210494 135.350559,4.289933 134.725814,4.38851 134.101389,4.510323 133.478557,4.659567 132.860602,4.839931 132.253063,5.051494 131.658699,5.290505 131.077155,5.553771 130.507733,5.838288 129.949687,6.141147 129.40225,6.459529 128.86466000000001,6.790687 128.33617700000002,7.131934 127.81609800000001,7.480633 127.30322600000001,7.834543 126.794621,8.193723 126.289116,8.561268 125.788274,8.939566 125.29428200000001,9.330648 124.809379,9.736587 124.33588400000001,10.159491 123.876209,10.601475 123.432885,11.064637000000001 123.00895700000001,11.550574000000001 122.610369,12.055903 122.23837,12.570084999999999 121.88745,13.084399000000001 121.359592,13.881281999999999 125.58817200000001,66.003991" stroke="#1f6fb2" stroke-width="0.1" /><text fill="#0a3d62" font-family="sans-serif" font-size="1.6" text-anchor="middle" x="138.514466" y="35.0019955">04</text><polygon fill="#cfe3f7" fill-opacity="0.5" points="54.0,86.689036 53.43921,86.013359 53.107989,85.615022 52.774022,85.214862 52.436671000000004,84.812856 52.095011,84.40863999999999 51.748119,84.001856 51.395077,83.592152 51.034971,83.179182 50.666891,82.762607 50.290581,82.342804 49.908615999999995,81.921609 49.526844,81.500866 49.149547999999996,81.080354 48.781245,80.66026 48.426381,80.240872 48.089396,79.822689 47.774682999999996,79.406444 47.486512000000005,78.993112 47.228933999999995,78.583918 47.00563,78.180284 46.819724,77.783704 46.673598,77.395465 46.568781,77.016183 46.505958,76.644431 46.485023,76.271087 46.536592,75.249961 29.0,75.249961 29.0,135.24996099999998 54.0,135.24996099999998 54.0,86.689036 4.0,86.689036 4.560790000000001,86.013359 4.892011,85.615022 5.225978000000001,85.214862 5.5633289999999995,84.812856 5.9049890000000005,84.40863999999999 6.251881000000001,84.001856 6.604922999999999,83.592152 6.965029000000001,83.179182 7.333109,82.762607 7.7094190000000005,82.342804 8.091384000000001,81.921609 8.473156,81.500866 8.850452,81.080354 9.218755000000002,80.66026 9.573619,80.240872 9.910604,79.822689 10.225317,79.406444 10.513487999999999,78.993112 10.771066000000001,78.583918 10.99437,78.180284 11.180276,77.783704 11.326402000000002,77.395465 11.431218999999999,77.016183 11.494042,76.644431 11.514976999999998,76.271087 11.463408000000001,75.249961 29.0,75.249961 29.0,135.24996099999998 4.0,135.24996099999998 4.0,86.689036" stroke="#1f6fb2" stroke-width="0.1" /><text fill="#0a3d62" font-family="sans-serif" font-size="1.6" text-anchor="middle" x="29.0" y="105.249961">02</text><polygon fill="#cfe3f7" fill-opacity="0.5" points="55.0,86.521866 62.0,90.931866 69.0,86.521866 69.0,75.249961 55.0,75.249961 55.0,86.521866" stroke="#1f6fb2" stroke-width="0.1" /><text fill="#0a3d62" font-family="sans-serif" font-size="1.6" text-anchor="middle" x="62.0" y="83.0909135">10</text><polygon fill="#cfe3f7" fill-opacity="0.5" points="70.0,87.499088 70.029841,87.80206799999999 70.132547,88.140643 70.299332,88.452676 70.523786,88.726175 70.797285,88.95062899999999 71.109318,89.117414 71.447893,89.22012 71.750873,89.249961 93.249127,89.249961 93.552107,89.22012 93.890682,89.117414 94.202715,88.95062899999999 94.476214,88.726175 94.70066800000001,88.452676 94.867453,88.140643 94.970159,87.80206799999999 95.0,87.499088 95.0,77.000834 94.970159,76.69785399999999 94.867453,76.359279 94.70066800000001,76.047246 94.476214,75.773747 94.202715,75.549293 93.890682,75.382508 93.552107,75.279802 93.249127,75.249961 71.750873,75.249961 71.447893,75.279802 71.109318,75.382508 70.797285,75.549293 70.523786,75.773747 70.299332,76.047246 70.132547,76.359279 70.029841,76.69785399999999 70.0,77.000834 70.0,87.499088" stroke="#1f6fb2" stroke-width="0.1" /><text fill="#0a3d62" font-family="sans-serif" font-size="1.6" text-anchor="middle" x="82.5" y="82.249961">05</text><polygon fill="#cfe3f7" fill-opacity="0.5" points="96.0,87.499088 96.029841,87.80206799999999 96.132547,88.140643 96.299332,88.452676 96.523786,88.726175 96.797285,88.95062899999999 97.109318,89.117414 97.447893,89.22012 97.750873,89.249961 119.249127,89.249961 119.552107,89.22012 119.890682,89.117414 120.202715,88.95062899999999 120.476214,88.726175 120.70066800000001,88.452676 120.867453,88.140643 120.970159,87.80206799999999 121.0,87.499088 121.0,77.000834 120.970159,76.69785399999999 120.867453,76.359279 120.70066800000001,76.047246 120.476214,75.773747 120.202715,75.549293 119.890682,75.382508 119.552107,75.279802 119.249127,75.249961 97.750873,75.249961 97.447893,75.279802 97.109318,75.382508 96.797285,75.549293 96.523786,75.773747 96.299332,76.047246 96.132547,76.359279 96.029841,76.69785399999999 96.0,77.000834 96.0,87.499088" stroke="#1f6fb2" stroke-width="0.1" /><text fill="#0a3d62" font-family="sans-serif" font-size="1.6" text-anchor="middle" x="108.5" y="82.249961">05</text><polygon fill="#cfe3f7" fill-opacity="0.5" points="159.497278,86.00898699999999 159.556179,85.60451499999999 159.653171,85.182455 159.786235,84.744073 159.952559,84.291123 160.148682,83.82545999999999 160.370663,83.348816 160.61424399999999,82.862704 160.874968,82.368388 161.148262,81.866883 161.98545000000001,80.354827 148.756013,75.249961 148.120936,75.694023 147.925198,75.82962 147.731946,75.961014 147.54068,76.087424 147.35092600000002,76.208126 147.162209,76.322458 146.973447,76.430174 146.782648,76.531834 146.58876800000002,76.627972 146.39198199999998,76.71849 146.192596,76.803228 145.990919,76.882032 145.78726,76.954755 145.58193,77.021255 145.37524,77.081398 145.167499,77.135057 144.95893,77.18213 144.748876,77.222723 144.536108,77.257331 144.320133,77.286448 144.100947,77.31049 143.878582,77.329882 143.65309200000002,77.345068 143.424547,77.356507 143.193031,77.364678 142.958633,77.370077 142.72144600000001,77.373223 142.481563,77.37465 142.239077,77.374912 141.992725,77.374579 141.992725,87.37458 159.428312,87.37458 159.497278,86.00898699999999 124.48817199999999,86.00898699999999 124.429271,85.60451499999999 124.332279,85.182455 124.199215,84.744073 124.032891,84.291123 123.836768,83.82545999999999 123.614787,83.348816 123.371206,82.862704 123.110482,82.368388 122.837188,81.866883 122.0,80.354827 135.229437,75.249961 135.86451399999999,75.694023 136.060252,75.82962 136.253504,75.961014 136.44477,76.087424 136.634524,76.208126 136.823241,76.322458 137.012003,76.430174 137.202802,76.531834 137.396682,76.627972 137.593468,76.71849 137.792854,76.803228 137.994531,76.882032 138.19819,76.954755 138.40352000000001,77.021255 138.61021,77.081398 138.817951,77.135057 139.02652,77.18213 139.236574,77.222723 139.449342,77.257331 139.66531700000002,77.286448 139.884503,77.31049 140.106868,77.329882 140.332358,77.345068 140.560903,77.356507 140.792419,77.364678 141.026817,77.370077 141.264004,77.373223 141.503887,77.37465 141.746373,77.374912 141.992725,77.374579 141.992725,87.37458 124.557138,87.37458 124.48817199999999,86.00898699999999" stroke="#1f6fb2" stroke-width="0.1" /><text fill="#0a3d62" font-family="sans-serif" font-size="1.6" text-anchor="middle" x="141.992725" y="81.3122705">03</text><polygon fill="#cfe3f7" fill-opacity="0.5" points="24.865809000000002,143.12041499999998 25.31594,143.210052 25.76614,143.294581 26.216405,143.37399699999997 26.666732000000003,143.448301 27.117117,143.51748899999998 27.567556000000003,143.58155899999997 28.018046000000002,143.64051099999998 28.468583000000002,143.69434199999998 28.919163,143.74305099999998 29.369781000000003,143.786636 29.820434000000002,143.82509699999997 30.271118,143.858432 30.721827,143.88663899999997 31.172559,143.90972 31.623308,143.92767199999997 32.074070000000006,143.940495 32.524841,143.94818899999999 32.975617,143.950754 33.426393000000004,143.94818899999999 33.877164,143.940495 34.327926000000005,143.92767199999997 34.778675,143.90972 35.229407,143.88663899999997 35.680117,143.858432 36.1308,143.82509699999997 36.581453,143.786636 37.032071,143.74305099999998 37.482651000000004,143.69434199999998 37.933188,143.64051099999998 38.383678,143.58155899999997 38.834117,143.51748899999998 39.284502,143.448301 39.734829000000005,143.37399699999997 40.185094,143.294581 40.635294,143.210052 41.085426,143.12041499999998 41.275208000000006,143.08046299999998 43.32012400000001,146.488657 44.375342,146.08967399999997 42.55878,136.24996099999998 41.112846000000005,136.57080599999998 40.684111,136.661061 40.255448,136.746424 39.826854,136.82689499999998 39.398324,136.90247899999997 38.969856,136.973175 38.541447000000005,137.038987 38.113092,137.09991699999998 37.684787,137.15596499999998 37.256529,137.207134 36.828314000000006,137.253425 36.400138,137.29484 35.971996000000004,137.331379 35.543885,137.36304399999997 35.1158,137.38983699999997 34.687737,137.411756 34.259692,137.42880399999999 33.831659,137.440981 33.403636000000006,137.448287 32.975617,137.45072199999998 32.547598,137.448287 32.119575,137.440981 31.691542000000002,137.42880399999999 31.263497,137.411756 30.835434000000003,137.38983699999997 30.407349000000004,137.36304399999997 29.979238000000002,137.331379 29.551096,137.29484 29.12292,137.253425 28.694705000000003,137.207134 28.266447000000003,137.15596499999998 27.838142,137.09991699999998 27.409787,137.038987 26.981378000000003,136.973175 26.55291,136.90247899999997 26.124380000000002,136.82689499999998 25.695786000000002,136.746424 25.267123,136.661061 24.838388000000002,136.57080599999998 24.187671,136.426415 24.187671,142.97506099999998 24.415749,143.02567 24.865809000000002,143.12041499999998 23.509533,143.12041499999998 23.059402000000002,143.210052 22.609202000000003,143.294581 22.158937,143.37399699999997 21.70861,143.448301 21.258225000000003,143.51748899999998 20.807786,143.58155899999997 20.357296,143.64051099999998 19.906759,143.69434199999998 19.456179000000002,143.74305099999998 19.005561,143.786636 18.554908,143.82509699999997 18.104224000000002,143.858432 17.653515000000002,143.88663899999997 17.202783000000004,143.90972 16.752034000000002,143.92767199999997 16.301272,143.940495 15.850501000000001,143.94818899999999 15.399725000000002,143.950754 14.948949000000002,143.94818899999999 14.498178000000001,143.940495 14.047416000000002,143.92767199999997 13.596667000000002,143.90972 13.145935000000001,143.88663899999997 12.695225000000002,143.858432 12.244542000000001,143.82509699999997 11.793889000000002,143.786636 11.343271000000001,143.74305099999998 10.892691000000001,143.69434199999998 10.442154000000002,143.64051099999998 9.991664000000002,143.58155899999997 9.541225000000003,143.51748899999998 9.090840000000002,143.448301 8.640513000000002,143.37399699999997 8.190248000000002,143.294581 7.740048000000002,143.210052 7.289916000000002,143.12041499999998 7.100134000000001,143.08046299999998 5.055218,146.488657 4.0,146.08967399999997 5.816562000000001,136.24996099999998 7.262496000000002,136.57080599999998 7.691231000000002,136.661061 8.119894000000002,136.746424 8.548488000000003,136.82689499999998 8.977018000000001,136.90247899999997 9.405486000000002,136.973175 9.833895000000002,137.038987 10.262250000000002,137.09991699999998 10.690555000000002,137.15596499999998 11.118813000000001,137.207134 11.547028000000001,137.253425 11.975204000000002,137.29484 12.403346,137.331379 12.831457000000002,137.36304399999997 13.259542000000001,137.38983699999997 13.687605000000001,137.411756 14.115650000000002,137.42880399999999 14.543683000000001,137.440981 14.971706000000001,137.448287 15.399725000000002,137.45072199999998 15.827744000000001,137.448287 16.255767000000002,137.440981 16.6838,137.42880399999999 17.111845000000002,137.411756 17.539908,137.38983699999997 17.967993,137.36304399999997 18.396104,137.331379 18.824246000000002,137.29484 19.252422000000003,137.253425 19.680637,137.207134 20.108895,137.15596499999998 20.537200000000002,137.09991699999998 20.965555000000002,137.038987 21.393964,136.973175 21.822432000000003,136.90247899999997 22.250962,136.82689499999998 22.679556,136.746424 23.108219000000002,136.661061 23.536954,136.57080599999998 24.187671,136.426415 24.187671,142.97506099999998 23.959593,143.02567 23.509533,143.12041499999998" stroke="#1f6fb2" stroke-width="0.1" /><text fill="#0a3d62" font-family="sans-serif" font-size="1.6" text-anchor="middle" x="24.187671" y="141.369309">07</text><polygon fill="#cfe3f7" fill-opacity="0.5" points="66.46726100000001,141.56586599999997 66.957202,141.637035 67.447172,141.70414 67.937168,141.767182 68.427188,141.82616 68.917232,141.881073 69.407297,141.93192 69.897383,141.978702 70.387487,142.02141699999999 70.87760800000001,142.06006599999998 71.367744,142.09464699999998 71.857894,142.125161 72.348055,142.15160699999998 72.838227,142.173984 73.328407,142.19229399999998 73.818594,142.20653499999997 74.308787,142.21670699999999 74.79898299999999,142.22280999999998 75.28918,142.224845 75.77937800000001,142.22280999999998 76.26957300000001,142.21670699999999 76.759766,142.20653499999997 77.249953,142.19229399999998 77.740133,142.173984 78.230305,142.15160699999998 78.720466,142.125161 79.210616,142.09464699999998 79.700752,142.06006599999998 80.19087300000001,142.02141699999999 80.680977,141.978702 81.171063,141.93192 81.661128,141.881073 82.151172,141.82616 82.641192,141.767182 83.13118800000001,141.70414 83.62115800000001,141.637035 84.111099,141.56586599999997 84.601012,141.490636 85.927126,141.27598999999998 85.927126,136.24996099999998 84.289446,136.51503599999998 83.815563,136.58780599999997 83.341711,136.656637 82.867886,136.721532 82.394087,136.78249 81.92031300000001,136.83951199999998 81.446562,136.892599 80.97283300000001,136.94175199999998 80.499124,136.98696999999999 80.025433,137.02825499999997 79.551759,137.06560599999997 79.078101,137.09902499999998 78.604456,137.12851099999997 78.130823,137.15406499999997 77.6572,137.17568799999998 77.183586,137.193378 76.709978,137.207137 76.236376,137.216965 75.762777,137.222862 75.28918,137.22482699999998 74.815583,137.222862 74.341984,137.216965 73.868382,137.207137 73.394774,137.193378 72.92116,137.17568799999998 72.44753700000001,137.15406499999997 71.973904,137.12851099999997 71.500259,137.09902499999998 71.026601,137.06560599999997 70.55292700000001,137.02825499999997 70.07923600000001,136.98696999999999 69.605527,136.94175199999998 69.131798,136.892599 68.65804700000001,136.83951199999998 68.184273,136.78249 67.710475,136.721532 67.236649,136.656637 66.762797,136.58780599999997 66.288915,136.51503599999998 65.651234,136.41182099999997 65.651234,141.437851 65.977348,141.490636 66.46726100000001,141.56586599999997 64.835207,141.56586599999997 64.34526600000001,141.637035 63.855296,141.70414 63.365300000000005,141.767182 62.875280000000004,141.82616 62.385236000000006,141.881073 61.895171000000005,141.93192 61.405085,141.978702 60.914981000000004,142.02141699999999 60.42486,142.06006599999998 59.934724,142.09464699999998 59.444574,142.125161 58.954413,142.15160699999998 58.464241,142.173984 57.974061000000006,142.19229399999998 57.483874,142.20653499999997 56.993681,142.21670699999999 56.503485000000005,142.22280999999998 56.013288,142.224845 55.52309,142.22280999999998 55.032895,142.21670699999999 54.542702000000006,142.20653499999997 54.052515,142.19229399999998 53.562335000000004,142.173984 53.072163,142.15160699999998 52.582002,142.125161 52.091852,142.09464699999998 51.601716,142.06006599999998 51.111595,142.02141699999999 50.621491000000006,141.978702 50.131405,141.93192 49.64134,141.881073 49.151296,141.82616 48.661276,141.767182 48.17128,141.70414 47.68131,141.637035 47.191369,141.56586599999997 46.70145600000001,141.490636 45.375342,141.27598999999998 45.375342,136.24996099999998 47.01302200000001,136.51503599999998 47.48690500000001,136.58780599999997 47.960757,136.656637 48.434582000000006,136.721532 48.908381000000006,136.78249 49.382155,136.83951199999998 49.855906000000004,136.892599 50.329635,136.94175199999998 50.803344,136.98696999999999 51.277035,137.02825499999997 51.750709,137.06560599999997 52.224367,137.09902499999998 52.698012000000006,137.12851099999997 53.171645,137.15406499999997 53.645268,137.17568799999998 54.118882,137.193378 54.59249,137.207137 55.066092000000005,137.216965 55.539691000000005,137.222862 56.013288,137.22482699999998 56.486885,137.222862 56.960484,137.216965 57.434086,137.207137 57.907694000000006,137.193378 58.381308000000004,137.17568799999998 58.854931,137.15406499999997 59.328564,137.12851099999997 59.802209000000005,137.09902499999998 60.275867000000005,137.06560599999997 60.749541,137.02825499999997 61.223232,136.98696999999999 61.696941,136.94175199999998 62.17067,136.892599 62.644421,136.83951199999998 63.118195,136.78249 63.591993,136.721532 64.065819,136.656637 64.539671,136.58780599999997 65.013553,136.51503599999998 65.651234,136.41182099999997 65.651234,141.437851 65.32512,141.490636 64.835207,141.56586599999997" stroke="#1f6fb2" stroke-width="0.1" /><text fill="#0a3d62" font-family="sans-serif" font-size="1.6" text-anchor="middle" x="65.651234" y="139.23740299999997">08</text><polygon fill="#cfe3f7" fill-opacity="0.5" points="86.927126,139.89908799999998 86.949281,140.12403099999997 87.029224,140.38756899999998 87.159045,140.63044699999998 87.333755,140.84333199999998 87.54664,141.01804199999998 87.789518,141.14786299999997 88.053056,141.227806 88.277999,141.24996099999998 99.57625300000001,141.24996099999998 99.801196,141.227806 100.064734,141.14786299999997 100.307612,141.01804199999998 100.520497,140.84333199999998 100.695207,140.63044699999998 100.825028,140.38756899999998 100.904971,140.12403099999997 100.927126,139.89908799999998 100.927126,137.600834 100.904971,137.375891 100.825028,137.11235299999998 100.695207,136.869475 100.520497,136.65659 100.307612,136.48188 100.064734,136.352059 99.801196,136.27211599999998 99.57625300000001,136.24996099999998 88.277999,136.24996099999998 88.053056,136.27211599999998 87.789518,136.352059 87.54664,136.48188 87.333755,136.65659 87.159045,136.869475 87.029224,137.11235299999998 86.949281,137.375891 86.927126,137.600834 86.927126,139.89908799999998" stroke="#1f6fb2" stroke-width="0.1" /><text fill="#0a3d62" font-family="sans-serif" font-size="1.6" text-anchor="middle" x="93.927126" y="138.74996099999998">06</text><polygon fill="#cfe3f7" fill-opacity="0.5" points="101.927126,139.89908799999998 101.949281,140.12403099999997 102.029224,140.38756899999998 102.159045,140.63044699999998 102.333755,140.84333199999998 102.54664,141.01804199999998 102.789518,141.14786299999997 103.053056,141.227806 103.277999,141.24996099999998 114.57625300000001,141.24996099999998 114.801196,141.227806 115.064734,141.14786299999997 115.307612,141.01804199999998 115.520497,140.84333199999998 115.695207,140.63044699999998 115.825028,140.38756899999998 115.904971,140.12403099999997 115.927126,139.89908799999998 115.927126,137.600834 115.904971,137.375891 115.825028,137.11235299999998 115.695207,136.869475 115.520497,136.65659 115.307612,136.48188 115.064734,136.352059 114.801196,136.27211599999998 114.57625300000001,136.24996099999998 103.277999,136.24996099999998 103.053056,136.27211599999998 102.789518,136.352059 102.54664,136.48188 102.333755,136.65659 102.159045,136.869475 102.029224,137.11235299999998 101.949281,137.375891 101.927126,137.600834 101.927126,139.89908799999998" stroke="#1f6fb2" stroke-width="0.1" /><text fill="#0a3d62" font-family="sans-serif" font-size="1.6" text-anchor="middle" x="108.927126" y="138.74996099999998">06</text></svg>