<?xml version="1.0" encoding="utf-8" ?>
<svg baseProfile="full" height="152.216668cm" version="1.1" viewBox="0 0 118.0 152.216668" width="118.0cm" xmlns="http://www.w3.org/2000/svg" xmlns:ev="http://www.w3.org/2001/xml-events" xmlns:xlink="http://www.w3.org/1999/xlink"><defs /><rect fill="#f7f3ea" height="144.216668" stroke="#333" stroke-width="0.15" width="110.0" x="4.0" y="4.0" /><text fill="#000" font-family="sans-serif" font-size="1.4" x="4.0" y="3.0">PLANO DE CORTE — ancho 110 cm — largo 1.44 m</text><polygon fill="#cfe3f7" fill-opacity="0.5" points="8.603537000000001,66.004613 34.432241,66.004613 39.044742,14.559622999999998 38.338398999999995,13.774989999999999 37.917592,13.312847999999999 37.488116,12.851835999999999 37.047919,12.395239 36.597245,11.9474 36.138323,11.51006 35.672148,11.082705 35.19934,10.664458 34.720508,10.254439 34.236247,9.851766999999999 33.747142,9.455561 33.253769,9.064943 32.756689,8.679036 32.255796000000004,8.296466 31.749057,7.915755 31.233977,7.538259 30.709418,7.1668959999999995 30.174402999999998,6.804792 29.6279,6.4551289999999995 29.068843,6.121163 28.496148,5.80625 27.908752,5.513857 27.305661,5.24759 26.687530000000002,5.011762 26.059449,4.809616 25.427158,4.638591 24.792906000000002,4.494111 24.158237,4.371542 23.52457,4.266382 22.893254,4.174272 22.265622,4.0909949999999995 21.544124,4.0 20.808963,4.05394 20.168217,4.104962 19.523647,4.164405 18.8764,4.236438 18.227627,4.325369 17.578525,4.435643 16.930396000000002,4.57184 16.284807,4.738636 15.645945000000001,4.939882 15.019679,5.174805 14.408314,5.439152 13.811256,5.729414 13.227674,6.042254 12.656686,6.374447 12.097394,6.722872 11.548913,7.084489 11.010392,7.456322999999999 10.481016,7.835451 9.959197,8.2196 9.441979,8.609293000000001 8.928751,9.007759 8.421351,9.417183999999999 7.9219930000000005,9.839547 7.432948,10.276864 6.956562,10.731176 6.495274,11.204525 6.051633000000001,11.698924 5.628798,12.215724 5.232445000000002,12.750982 4.862674000000002,13.294198000000002 4.513476000000001,13.837394 4.0,14.659607999999999 8.603537000000001,66.004613" stroke="#1f6fb2" stroke-width="0.1" /><text fill="#0a3d62" font-family="sans-serif" font-size="1.6" text-anchor="middle" x="21.522371" y="35.0023065">03</text><polygon fill="#cfe3f7" fill-opacity="0.5" points="44.648279,66.004613 70.47698299999999,66.004613 75.089484,14.559622999999998 74.383141,13.774989999999999 73.962334,13.312847999999999 73.532858,12.851835999999999 73.09266099999999,12.395239 72.641987,11.9474 72.183065,11.51006 71.71689,11.082705 71.24408199999999,10.664458 70.76525000000001,10.254439 70.280989,9.851766999999999 69.791884,9.455561 69.29851099999999,9.064943 68.80143100000001,8.679036 68.300538,8.296466 67.793799,7.915755 67.278719,7.538259 66.75416,7.1668959999999995 66.219145,6.804792 65.672642,6.4551289999999995 65.113585,6.121163 64.54089,5.80625 63.953494,5.513857 63.350403,5.24759 62.732272,5.011762 62.104191,4.809616 61.4719,4.638591 60.837648,4.494111 60.202979,4.371542 59.569312,4.266382 58.937996,4.174272 58.310364,4.0909949999999995 57.588865999999996,4.0 56.853705,4.05394 56.212959,4.104962 55.568388999999996,4.164405 54.921142,4.236438 54.272369,4.325369 53.623267,4.435643 52.975138,4.57184 52.329549,4.738636 51.690687,4.939882 51.064420999999996,5.174805 50.453056000000004,5.439152 49.855998,5.729414 49.272416,6.042254 48.701428,6.374447 48.142136,6.722872 47.593655,7.084489 47.055133999999995,7.456322999999999 46.525757999999996,7.835451 46.003939,8.2196 45.486721,8.609293000000001 44.973493,9.007759 44.466093,9.417183999999999 43.966735,9.839547 43.477689999999996,10.276864 43.001304,10.731176 42.540016,11.204525 42.096375,11.698924 41.67354,12.215724 41.277187,12.750982 40.907416,13.294198000000002 40.558218,13.837394 40.044742,14.659607999999999 44.648279,66.004613" stroke="#1f6fb2" stroke-width="0.1" /><text fill="#0a3d62" font-family="sans-serif" font-size="1.6" text-anchor="middle" x="57.567113" y="35.0023065">03</text><polygon fill="#cfe3f7" fill-opacity="0.5" points="76.089484,51.233067 86.430228,51.233067 86.302047,48.024211 86.233381,45.870481 86.200144,43.739295 86.219559,41.638131 86.30857,39.574560999999996 86.483784,37.556145 86.761424,35.59028 87.15733,33.683955 87.687076,31.843438 88.366348,30.073732999999997 89.213337,28.372646999999997 90.228683,26.724355 91.386888,25.111527 92.65644,23.523000999999997 94.004435,21.947428 95.851819,19.858719999999998 95.31298,18.819888 95.14327,18.421923 95.012871,18.024288 94.919884,17.618925 94.86113,17.199514999999998 94.834992,16.764596 94.840108,16.313914 94.875032,15.847847 94.938094,15.367222 95.027354,14.873137 95.140616,14.366815 95.275457,13.849511 95.429279,13.32245 95.599349,12.78679 95.78282999999999,12.243606999999999 95.976818,11.693886 96.178352,11.138521 96.709888,9.693617 83.664173,4.0 82.994032,4.893731 82.798293,5.155346 82.602478,5.41821 82.406866,5.682529 82.21173999999999,5.948513 82.01738399999999,6.216374999999999 81.82408699999999,6.486328 81.63213999999999,6.758584 81.441839,7.03336 81.25348,7.310871 81.06736599999999,7.5913319999999995 80.883803,7.87496 80.703099,8.161969 80.52572599999999,8.452314000000001 80.352787,8.744457 80.184562,9.035989 80.020234,9.325658 79.85875899999999,9.612676 79.699137,9.896266 79.540411,10.17566 79.381668,10.450102000000001 79.222037,10.718852 79.060687,10.98119 78.89682499999999,11.236425 78.72969,11.483908 78.558542,11.723041 78.382645,11.953306000000001 78.20035299999999,12.175367 78.008888,12.392209 77.807134,12.606558 77.595762,12.819252 77.375696,13.030951 77.147926,13.242343 76.913495,13.454155 76.673485,13.667169 76.089484,14.180877 76.089484,51.233067" stroke="#1f6fb2" stroke-width="0.1" /><text fill="#0a3d62" font-family="sans-serif" font-size="1.6" text-anchor="middle" x="86.399686" y="27.6165335">01</text><polygon fill="#cfe3f7" fill-opacity="0.5" points="4.0,114.23768000000001 14.340744,114.23768000000001 14.212563,111.02882400000001 14.143897,108.875094 14.11066,106.743908 14.130075,104.64274400000001 14.219086,102.579174 14.3943,100.560758 14.67194,98.59489300000001 15.067846,96.688568 15.597592,94.848051 16.276864,93.07834600000001 17.123853,91.37726 18.139198999999998,89.72896800000001 19.297404,88.11614 20.566955999999998,86.527614 21.914951,84.95204100000001 23.762335,82.86333300000001 23.223496,81.82450100000001 23.053786,81.426536 22.923387,81.028901 22.8304,80.62353800000001 22.771646,80.20412800000001 22.745508,79.769209 22.750624,79.318527 22.785548,78.85246000000001 22.84861,78.371835 22.93787,77.87775 23.051132,77.37142800000001 23.185973,76.85412400000001 23.339795,76.32706300000001 23.509865,75.791403 23.693346,75.24822 23.887334,74.69849900000001 24.088868,74.143134 24.620404,72.69823000000001 11.574689,67.004613 10.904548,67.89834400000001 10.708808999999999,68.159959 10.512993999999999,68.42282300000001 10.317382,68.68714200000001 10.122256,68.95312600000001 9.927900000000001,69.220988 9.734603,69.490941 9.542656000000001,69.763197 9.352355,70.03797300000001 9.163996000000001,70.31548400000001 8.977882000000001,70.595945 8.794319,70.87957300000001 8.613615,71.166582 8.436242,71.45692700000001 8.263303,71.74907 8.095078,72.040602 7.93075,72.33027100000001 7.769275,72.617289 7.609653,72.900879 7.450927,73.180273 7.292184000000001,73.45471500000001 7.132553,73.723465 6.971203,73.985803 6.807341,74.241038 6.640206,74.488521 6.469058,74.727654 6.293161,74.957919 6.110869,75.17998 5.919404,75.396822 5.71765,75.61117100000001 5.506278,75.82386500000001 5.286212,76.03556400000001 5.058442,76.24695600000001 4.8240110000000005,76.458768 4.584001,76.67178200000001 4.0,77.18549 4.0,114.23768000000001" stroke="#1f6fb2" stroke-width="0.1" /><text fill="#0a3d62" font-family="sans-serif" font-size="1.6" text-anchor="middle" x="14.310202" y="90.62114650000001">01</text><polygon fill="#cfe3f7" fill-opacity="0.5" points="60.100093,105.06461800000001 60.985349,111.13494200000001 74.09874500000001,111.13494200000001 74.236714,108.51878900000001 74.326729,106.85137 74.420817,105.18550300000001 74.521041,103.52134500000001 74.629458,101.85905000000001 74.748136,100.19856100000001 74.87850800000001,98.53894100000001 75.019274,96.87905900000001 75.168401,95.218558 75.323835,93.55728400000001 75.483519,91.89508500000001 75.679782,89.878423 75.194973,89.146967 74.90642700000001,88.711352 74.61794,88.27528600000001 74.32946100000001,87.83842200000001 74.04093800000001,87.40041400000001 73.752319,86.960914 73.46355299999999,86.519576 73.174597,86.076069 72.885839,85.630678 72.599072,85.184454 72.316814,84.73799400000001 72.04117500000001,84.291246 71.77422200000001,83.844164 71.51799600000001,83.396747 71.274506,82.94903500000001 71.045713,82.50110000000001 70.83352300000001,82.053038 70.639767,81.60495 70.466188,81.156924 70.314435,80.70899800000001 70.186038,80.26107 70.081986,79.811182 70.001544,79.355401 69.942926,78.891531 69.904735,78.41950600000001 69.885582,77.93950500000001 69.88404,77.451824 69.89863,76.95684100000001 69.927812,76.45499000000001 69.969988,75.94673700000001 70.023506,75.432562 70.086659,74.912946 70.15769700000001,74.38835900000001 70.234828,73.85925300000001 70.316227,73.32605600000001 70.52132800000001,72.012107 63.492815,69.10025 63.358937000000005,69.376219 57.634458,67.004613 56.982354,67.447552 56.77952500000001,67.584041 56.579195,67.716339 56.380867,67.84363800000001 56.184061,67.96518800000001 55.988303,68.08030000000001 55.792453,68.18871800000001 55.594503,68.290992 55.393446,68.387631 55.18947,68.478542 54.982878,68.56358 54.773974,68.642604 54.563063,68.71548100000001 54.350454,68.782082 54.136454,68.84228300000001 53.921371,68.89596900000001 53.705414000000005,68.94305 53.487936000000005,68.98363900000001 53.267785,69.01822600000001 53.044532000000004,69.047301 52.81818,69.071286 52.58876,69.090614 52.356327,69.105733 52.120948,69.117107 51.882702,69.125219 51.641674,69.13056700000001 51.397952000000004,69.133671 51.151626,69.135063 50.902782,69.135298 50.650093,69.13494100000001 50.650093,111.13494200000001 59.214837,111.13494200000001 60.100093,105.06461800000001 41.200093,105.06461800000001 40.314837000000004,111.13494200000001 27.201441000000003,111.13494200000001 27.063472,108.51878900000001 26.973457000000003,106.85137 26.879369,105.18550300000001 26.779145000000003,103.52134500000001 26.670728,101.85905000000001 26.55205,100.19856100000001 26.421678000000004,98.53894100000001 26.280912,96.87905900000001 26.131785,95.218558 25.976351,93.55728400000001 25.816667000000002,91.89508500000001 25.620404,89.878423 26.105213000000003,89.146967 26.393759000000003,88.711352 26.682246000000003,88.27528600000001 26.970725,87.83842200000001 27.259248000000003,87.40041400000001 27.547867,86.960914 27.836633000000003,86.519576 28.125589,86.076069 28.414347000000003,85.630678 28.701114,85.184454 28.983372000000003,84.73799400000001 29.259011,84.291246 29.525964000000002,83.844164 29.782190000000003,83.396747 30.02568,82.94903500000001 30.254473,82.50110000000001 30.466663,82.053038 30.660419,81.60495 30.833998,81.156924 30.985751,80.70899800000001 31.114148,80.26107 31.218200000000003,79.811182 31.298642,79.355401 31.35726,78.891531 31.395451,78.41950600000001 31.414604,77.93950500000001 31.416146,77.451824 31.401556000000003,76.95684100000001 31.372374,76.45499000000001 31.330198000000003,75.94673700000001 31.276680000000002,75.432562 31.213527000000003,74.912946 31.142489,74.38835900000001 31.065358000000003,73.85925300000001 30.983959000000002,73.32605600000001 30.778858000000003,72.012107 37.807371,69.10025 37.941249,69.376219 43.665728,67.004613 44.317832,67.447552 44.520661000000004,67.584041 44.720991,67.716339 44.919319,67.84363800000001 45.116125000000004,67.96518800000001 45.311883,68.08030000000001 45.507733,68.18871800000001 45.705683,68.290992 45.90674,68.387631 46.110716000000004,68.478542 46.317308,68.56358 46.526212,68.642604 46.737123,68.71548100000001 46.949732,68.782082 47.163732,68.84228300000001 47.378815,68.89596900000001 47.594772000000006,68.94305 47.812250000000006,68.98363900000001 48.032401,69.01822600000001 48.255654,69.047301 48.482006,69.071286 48.711426,69.090614 48.943859,69.105733 49.179238,69.117107 49.417484,69.125219 49.658512,69.13056700000001 49.902234,69.133671 50.14856,69.135063 50.397404,69.135298 50.650093,69.13494100000001 50.650093,111.13494200000001 42.085349,111.13494200000001 41.200093,105.06461800000001" stroke="#1f6fb2" stroke-width="0.1" /><text fill="#0a3d62" font-family="sans-serif" font-size="1.6" text-anchor="middle" x="50.650093" y="89.06977750000001">02</text><polygon fill="#cfe3f7" fill-opacity="0.5" points="85.526667,69.06322700000001 83.661465,70.504513 81.89692500000001,72.003522 80.292608,73.587164 78.91127900000001,75.285813 77.826245,77.126372 77.105967,79.10376500000001 76.73855,81.17708300000001 76.679782,83.319289 76.883204,85.515848 77.30519100000001,87.75746500000001 77.905321,90.03650300000001 78.645446,92.34511900000001 79.488749,94.67461200000001 80.39912100000001,97.01532900000001 81.592916,99.98360100000001 93.923775,99.98360100000001 94.055497,97.11086600000002 94.145491,95.193545 94.239582,93.27757500000001 94.33983500000001,91.363094 94.448316,89.450235 94.567096,87.538949 94.697597,85.628424 94.838497,83.71767 94.987751,81.80637700000001 95.143299,79.894411 95.303076,77.981637 95.50082400000001,75.64475300000001 94.868645,74.922188 94.515254,74.519017 94.159261,74.11437000000001 93.800127,73.70838300000001 93.43701,73.300853 93.069073,72.891582 92.695483,72.480379 92.31542,72.06707 91.928991,71.652445 91.539652,71.238617 91.153174,70.826571 90.774118,70.415835 90.406916,70.00600100000001 90.055994,69.59688100000001 89.725722,69.188507 89.420353,68.781143 89.143917,68.375258 88.316272,67.004613 85.526667,69.06322700000001" stroke="#1f6fb2" stroke-width="0.1" /><text fill="#0a3d62" font-family="sans-serif" font-size="1.6" text-anchor="middle" x="86.090303" y="83.49410700000001">11</text><polygon fill="#cfe3f7" fill-opacity="0.5" points="12.846885,117.29629399999999 10.981683,118.73758 9.217143,120.236589 7.612826,121.82023099999999 6.231497000000001,123.51888 5.146463000000001,125.359439 4.426185,127.336832 4.058768000000001,129.41015 4.0,131.552356 4.203422000000001,133.748915 4.625409,135.990532 5.225539,138.26957 5.965664,140.578186 6.808967000000001,142.907679 7.719339,145.248396 8.913134000000001,148.216668 21.243993,148.216668 21.375715,145.343933 21.465709,143.426612 21.5598,141.510642 21.660053,139.596161 21.768534,137.683302 21.887314,135.772016 22.017815,133.861491 22.158715,131.950737 22.307969,130.039444 22.463517,128.127478 22.623294,126.214704 22.821042000000002,123.87782 22.188863,123.155255 21.835472,122.752084 21.479479,122.347437 21.120345,121.94145 20.757228,121.53392 20.389291,121.12464899999999 20.015701,120.71344599999999 19.635638,120.30013699999999 19.249209,119.88551199999999 18.85987,119.471684 18.473392,119.05963799999999 18.094336000000002,118.64890199999999 17.727134,118.239068 17.376212,117.829948 17.04594,117.42157399999999 16.740571,117.01420999999999 16.464135,116.608325 15.636490000000002,115.23768 12.846885,117.29629399999999" stroke="#1f6fb2" stroke-width="0.1" /><text fill="#0a3d62" font-family="sans-serif" font-size="1.6" text-anchor="middle" x="13.410521000000001" y="131.727174">11</text></svg>