<?xml version="1.0" encoding="utf-8" ?>
<svg baseProfile="full" height="150.241135cm" version="1.1" viewBox="0 0 159.12589394575934 150.241135" width="159.12589394575934cm" xmlns="http://www.w3.org/2000/svg" xmlns:ev="http://www.w3.org/2001/xml-events" xmlns:xlink="http://www.w3.org/1999/xlink"><defs /><g fill="none" id="CONSTRUCCION" stroke="#888888" stroke-width="0.08"><line x1="5.7" x2="5.7" y1="13.641135" y2="72.241135" /><line x1="112.86439763723357" x2="112.86439763723357" y1="64.241135" y2="52.241135" /><line x1="132.12589394575934" x2="155.12589394575934" y1="10.241135" y2="10.241135" /><line x1="92.41086986596434" x2="104.41086986596434" y1="85.461135" y2="85.461135" /></g><g fill="none" id="CORTE" stroke="#d00000" stroke-width="0.08"><polygon points="3.0,73.241135 30.7,73.241135 30.7,25.835031 30.01947,25.135337 29.619232999999998,24.725236 29.214496,24.313334 28.803622999999998,23.899379 28.384988,23.483139 27.956977,23.064398 27.517985,22.642954 27.066416,22.218613 26.60072,21.791224 26.120839,21.361873 25.631999999999998,20.932924 25.142661999999998,20.505383 24.659819,20.078892 24.190483999999998,19.653345 23.741787,19.229017000000002 23.320923999999998,18.806618999999998 22.93506,18.387393 22.591151,17.973213 22.295628,17.566663 22.053857999999998,17.170935 21.869417,16.789305 21.743381,16.423774 21.6736,16.068531 21.656215,15.705595 21.689471,15.320161 21.774182,14.908637 21.910421,14.471687 22.096626999999998,14.011919 22.329672,13.532586 22.605284,13.036865 22.918464,12.527552 23.263796,12.00699 23.635655,11.477102 24.028319,10.939444 24.436046,10.395267 25.621308,8.83301 12.256203,3.0 11.589966,3.9355450000000003 11.394179000000001,4.211073 11.198366,4.487844 11.002815,4.766062 10.807819,5.045934 10.613672000000001,5.327668 10.420673,5.611473 10.229121,5.897559 10.039321000000001,6.186138 9.851581,6.47742 9.66621,6.771619 9.483523,7.068944 9.303839,7.369608 9.12762,7.673576 8.955919,7.979342 8.788955999999999,8.284507 8.625877,8.587813 8.465603,8.888483 8.307096,9.185749999999999 8.149362,9.478856 7.991447,9.767053 7.832439,10.049609 7.671467,10.325807000000001 7.507696,10.594961 7.3403220000000005,10.85642 7.168566,11.109586 6.991658,11.353926 6.808073,11.58995 6.615093,11.820569 6.4115720000000005,12.048675000000001 6.198189,12.275184 5.9759210000000005,12.500762 5.832577000000001,12.641135 3.0,12.641135 3.0,73.241135" /><polygon points="60.7,15.878540000000001 60.108284,15.16987 59.747068999999996,14.738181 59.382740999999996,14.304614 59.014092,13.868649999999999 58.639915,13.429782 58.259012,12.98751 57.870187,12.541343000000001 57.472252999999995,12.090798 57.064062,11.635437 56.645682,11.176043 56.221407,10.714877000000001 55.797831,10.253352 55.380504,9.79173 54.974973,9.330457 54.586821,8.870236 54.221629,8.412056 53.884905,7.957227 53.58198,7.507412 53.317835,7.064636 53.096852,6.631204 52.922495999999995,6.209448999999999 52.797016,5.801183999999999 52.721363999999994,5.406651 52.695409999999995,5.018969 52.718297,4.6234470000000005 52.955678,3.241135 35.7,3.241135 35.7,63.241135 60.7,63.241135 60.7,15.878540000000001" /><polygon points="82.789202,14.210551 82.90757,13.779002 83.071897,13.329796 83.279515,12.864891 83.526741,12.386497 83.809169,11.896698 84.121924,11.397285 84.45986,10.889716 84.81768600000001,10.375128 85.190046,9.854369 86.33416700000001,8.275960999999999 72.982815,3.12405 72.337721,3.544218 72.12425,3.681958 71.913291,3.8155270000000003 71.704346,3.944082 71.49694000000001,4.06683 71.290588,4.183047 71.084078,4.292462 70.87538500000001,4.395602 70.663559,4.492943 70.448803,4.584402 70.231414,4.669853 70.011692,4.7491769999999995 69.789938,4.822258 69.566453,4.888985 69.341542,4.949254 69.11550700000001,5.002963 68.888541,5.05004 68.66001800000001,5.090608 68.428888,5.125155 68.194804,5.154164 67.957774,5.178065 67.717832,5.1973 67.475029,5.212325 67.22942900000001,5.223611 66.98110600000001,5.231643 66.73014,5.236923 66.476612,5.239971000000001 66.22060400000001,5.24132 65.962198,5.24152 65.7,5.241134000000001 65.7,15.241135 82.612222,15.241135 82.789202,14.210551" /><polygon points="95.55408586772496,65.241135 121.33371186772497,65.241135 127.16908186772497,15.370343 126.45815286772498,14.518694 126.01656686772498,13.995595 125.56610786772497,13.473794999999999 125.10436386772497,12.956561 124.63104186772497,12.448364 124.14822286772497,11.951157 123.65701986772497,11.464451 123.15810986772497,10.987293000000001 122.65215586772497,10.518728 122.13980986772496,10.057798 121.62170986772497,9.603544 121.09848586772497,9.155007999999999 120.57075586772497,8.711236 120.03870986772498,8.270928 119.50058286772497,7.8321890000000005 118.95348986772497,7.396172 118.39586286772497,6.966175 117.82646886772497,6.54587 117.24400486772497,6.13899 116.64711486772497,5.7493490000000005 116.03441586772497,5.380871 115.40453686772497,5.037617 114.75616886772497,4.723808 114.08922286772497,4.444292 113.40845486772497,4.203677 112.72075186772497,3.9997930000000004 112.02928586772497,3.827366 111.33604386772497,3.6809060000000002 110.64284286772497,3.5550740000000003 109.95140986772496,3.444705 109.26344686772497,3.344802 108.47214586772496,3.235549 107.66439186772497,3.301149 106.96060186772498,3.363128 106.25308586772496,3.435197 105.54331686772497,3.522353 104.83277486772496,3.629759 104.12300886772496,3.762747 103.41570986772497,3.926811 102.71306586772496,4.1275 102.02071286772497,4.368866000000001 101.34472386772497,4.648668 100.68660586772496,4.9619219999999995 100.04542886772497,5.304497 99.42010986772496,5.672433 98.80951586772497,6.061908 98.21251186772497,6.469222 97.62798686772497,6.8907680000000004 97.05487786772497,7.323009 96.49214786772497,7.762485 95.93755086772497,8.206862000000001 95.38838986772497,8.657373 94.84487486772497,9.11725 94.30915786772496,9.588546000000001 93.78356286772497,10.073246000000001 93.27046986772497,10.573361 92.77233086772497,11.090917000000001 92.29168386772497,11.627931 91.83116686772496,12.186386 91.39417186772496,12.767333 90.98585686772498,13.366185 90.60469286772496,13.972557 90.24392186772496,14.579199 89.73012086772496,15.467811 95.55408586772496,65.241135" /><polygon points="131.12589394575934,15.490262 131.15573494575935,15.793242 131.25844094575936,16.131816999999998 131.42522594575937,16.443849999999998 131.64967994575935,16.717349 131.92317894575936,16.941803 132.23521194575935,17.108587999999997 132.57378694575934,17.211294000000002 132.87676694575936,17.241135 154.37502094575933,17.241135 154.67800094575935,17.211294000000002 155.01657594575934,17.108587999999997 155.32860894575936,16.941803 155.60210794575934,16.717349 155.82656194575935,16.443849999999998 155.99334694575936,16.131816999999998 156.09605294575934,15.793242 156.12589394575934,15.490262 156.12589394575934,4.992008 156.09605294575934,4.689028 155.99334694575936,4.350453 155.82656194575935,4.03842 155.60210794575934,3.764921 155.32860894575936,3.540467 155.01657594575934,3.373682 154.67800094575935,3.270976 154.37502094575933,3.241135 132.87676694575936,3.241135 132.57378694575934,3.270976 132.23521194575935,3.373682 131.92317894575936,3.540467 131.64967994575935,3.764921 131.42522594575937,4.03842 131.25844094575936,4.350453 131.15573494575935,4.689028 131.12589394575934,4.992008 131.12589394575934,15.490262" /><polygon points="3.0,80.89026199999999 3.022155,81.115205 3.1020980000000002,81.378743 3.2319190000000004,81.621621 3.406629,81.834506 3.619514,82.009216 3.8623920000000003,82.139037 4.12593,82.21898 4.350873,82.241135 15.649127,82.241135 15.87407,82.21898 16.137608,82.139037 16.380485999999998,82.009216 16.593370999999998,81.834506 16.768081000000002,81.621621 16.897902000000002,81.378743 16.977845000000002,81.115205 17.0,80.89026199999999 17.0,78.592008 16.977845000000002,78.367065 16.897902000000002,78.103527 16.768081000000002,77.860649 16.593370999999998,77.647764 16.380485999999998,77.473054 16.137608,77.343233 15.87407,77.26329 15.649127,77.241135 4.350873,77.241135 4.12593,77.26329 3.8623920000000003,77.343233 3.619514,77.473054 3.406629,77.647764 3.2319190000000004,77.860649 3.1020980000000002,78.103527 3.022155,78.367065 3.0,78.592008 3.0,80.89026199999999" /><polygon points="22.820238,83.915262 23.3287,84.004441 23.837211,84.088533 24.345767,84.167535 24.854365,84.241447 25.363004,84.310266 25.871681,84.373993 26.380392,84.432625 26.889136,84.486163 27.397909,84.534604 27.906709,84.577949 28.415533,84.616196 28.924377,84.649344 29.433239999999998,84.677394 29.942117,84.700345 30.451007,84.718196 30.959905,84.730947 31.468809999999998,84.738597 31.977717,84.741148 32.486625000000004,84.738597 32.99553,84.730947 33.504428000000004,84.718196 34.013318,84.700345 34.522194999999996,84.677394 35.031058,84.649344 35.539902,84.616196 36.048726,84.577949 36.557525,84.534604 37.066299,84.486163 37.575041999999996,84.432625 38.083754,84.373993 38.592431000000005,84.310266 39.10107,84.241447 39.609668,84.167535 40.118224,84.088533 40.626735,84.004441 41.135197000000005,83.915262 41.457828,83.855442 43.511995999999996,87.279054 44.567214,86.880071 42.755364,77.065882 41.269487999999996,77.356275 40.780129,77.447008 40.29082,77.532829 39.801559,77.613737 39.312343,77.689735 38.823170000000005,77.760823 38.334036999999995,77.827004 37.844942,77.888277 37.355882,77.944645 36.866854000000004,77.996107 36.377855,78.042666 35.888883,78.084321 35.399935,78.121074 34.911008,78.152926 34.422099,78.179876 33.933204,78.201925 33.444322,78.219074 32.955449,78.231323 32.466582,78.238673 31.977717,78.241122 31.488853,78.238673 30.999986,78.231323 30.511113,78.219074 30.022230999999998,78.201925 29.533336,78.179876 29.044427,78.152926 28.555500000000002,78.121074 28.066552,78.084321 27.57758,78.042666 27.088580999999998,77.996107 26.599553,77.944645 26.110492999999998,77.888277 25.621398,77.827004 25.132265,77.760823 24.643092,77.689735 24.153876,77.613737 23.664615,77.532829 23.175306,77.447008 22.685947,77.356275 22.0,77.222216 22.0,83.760054 22.311825,83.820995 22.820238,83.915262" /><polygon points="50.106375932982175,82.384414 50.65496893298217,82.455346 51.203581932982175,82.522227 51.752212932982175,82.585057 52.30086193298217,82.643835 52.84952693298217,82.698561 53.398207932982174,82.749234 53.94690293298218,82.795855 54.495610932982174,82.838423 55.04433093298218,82.876938 55.593060932982176,82.9114 56.141801932982176,82.941807 56.69054993298217,82.968161 57.23930593298218,82.99046 57.78806793298217,83.008705 58.33683493298217,83.022896 58.88560593298217,83.033033 59.43437793298217,83.039115 59.983151932982175,83.041142 60.531926932982174,83.039115 61.08069893298217,83.033033 61.629469932982175,83.022896 62.17823693298217,83.008705 62.72699893298218,82.99046 63.275754932982174,82.968161 63.82450293298217,82.941807 64.37324393298218,82.9114 64.92197393298218,82.876938 65.47069393298217,82.838423 66.01940193298218,82.795855 66.56809693298217,82.749234 67.11677793298217,82.698561 67.66544293298217,82.643835 68.21409193298217,82.585057 68.76272293298217,82.522227 69.31133593298217,82.455346 69.85992893298217,82.384414 70.40850093298218,82.309432 71.81086993298217,82.107386 71.81086993298217,77.086735 70.13046793298217,77.328838 69.59626793298217,77.401856 69.06208893298218,77.470924 68.52792993298218,77.536043 67.99378893298217,77.597213 67.45966593298218,77.654435 66.92555993298217,77.707709 66.39146893298218,77.757036 65.85739193298218,77.802415 65.32332793298218,77.843847 64.78927593298218,77.881332 64.25523493298218,77.91487 63.72120393298218,77.944463 63.18718093298217,77.970109 62.65316493298218,77.99181 62.11915493298218,78.009565 61.585149932982176,78.023374 61.05114893298217,78.033237 60.51714993298218,78.039155 59.983151932982175,78.041128 59.449154932982175,78.039155 58.915155932982174,78.033237 58.38115493298218,78.023374 57.84714993298218,78.009565 57.313139932982175,77.99181 56.77912393298217,77.970109 56.245100932982176,77.944463 55.71106993298218,77.91487 55.177028932982175,77.881332 54.64297693298217,77.843847 54.10891293298217,77.802415 53.574835932982175,77.757036 53.04074493298217,77.707709 52.50663893298218,77.654435 51.972515932982176,77.597213 51.43837493298217,77.536043 50.904215932982176,77.470924 50.370036932982174,77.401856 49.835836932982176,77.328838 49.155434932982175,77.23081 49.155434932982175,82.25146 49.557803932982175,82.309432 50.106375932982175,82.384414" /><polygon points="75.81086986596435,147.241135 83.81808986596435,147.241135 83.41204686596436,90.801203 87.63579186596435,78.235562 85.09269886596435,76.964015 84.40083586596435,77.935545 84.20504886596436,78.211073 84.00923586596436,78.487844 83.81368486596435,78.766062 83.61868886596436,79.045934 83.42454186596436,79.327668 83.23154286596436,79.611473 83.03999086596436,79.897559 82.85019086596435,80.186138 82.66245086596436,80.47742 82.47707986596436,80.771619 82.29439286596435,81.068944 82.11470886596435,81.369608 81.93848986596436,81.673576 81.76678886596436,81.979342 81.59982586596435,82.284507 81.43674686596435,82.587813 81.27647286596435,82.888483 81.11796586596435,83.18575 80.96023186596435,83.478856 80.80231686596436,83.767053 80.64330886596436,84.049609 80.48233686596436,84.325807 80.31856586596436,84.594961 80.15119186596435,84.85642 79.97943586596435,85.109586 79.80252786596435,85.353926 79.61894286596436,85.58995 79.42596286596435,85.820569 79.22244186596436,86.048675 79.00905886596435,86.275184 78.78679086596435,86.500762 78.64344686596435,86.641135 75.81086986596435,86.641135 75.81086986596435,147.241135" /><polygon points="91.41086986596434,88.51304 98.41086986596434,92.92304 105.41086986596434,88.51304 105.41086986596434,77.241135 91.41086986596434,77.241135 91.41086986596434,88.51304" /></g><g fill="none" id="COSTURA" stroke="#00a000" stroke-width="0.08"><polygon points="4.0,13.641135 5.7,13.641135 5.948518501115022,13.910395280672315 6.195826256911864,13.67873638506211 6.440712522072342,13.44523913688687 6.681966551278277,13.208984359864072 6.918377599211488,12.9690528777112 7.148734920553792,12.724525514145734 7.371827769987007,12.474483092885153 7.586445402192953,12.218006437646945 7.7915547822623905,11.954310097609255 7.987515180559549,11.68365631896017 8.175342177825854,11.40680121545611 8.356055208722328,11.124503800892814 8.53067370790999,10.837523089066016 8.700217110049865,10.546618093771457 8.865704849802974,10.252547828804879 9.028156361830337,9.956071307962013 9.188591080792982,9.657947545038605 9.348028441351925,9.358935553830388 9.50748787816819,9.059794348133101 9.6679888259028,8.761282941742484 9.830550719216777,8.464160348454275 9.996192713691327,8.16918537648958 10.165639274440387,7.876899760384673 10.338761318297731,7.587216497438166 10.515276115793489,7.299935406637873 10.694900937457794,7.01485630697161 10.877353053820777,6.731779017427191 11.062349735412575,6.450503356992432 11.249608252763315,6.1708291446551495 11.43884587640313,5.892556199403159 11.629779876862152,5.615484340224274 11.822127524670515,5.339413386106313 12.015606090358347,5.064143156037089 12.209932844455786,4.7894734690044185 12.404825057492959,4.515204143996117 12.6,4.241135 24.0564392373896,9.241135 23.63756255577139,9.79324304429608 23.224365006815407,10.344721785364474 22.822525723183876,10.894941919977498 22.43772383753903,11.443274144907472 22.07563848254309,11.989089156926706 21.74194879085829,12.531757652807519 21.44233389514685,13.070650329322223 21.182472928071,13.605137883243138 20.968045022292973,14.134591011342579 20.804729310474983,14.658380410392859 20.698204925279267,15.175876777166295 20.654150999368053,15.686450808435202 20.678246665403563,16.189473200971896 20.775461380982737,16.684372995208435 20.94331708241218,17.171191505657408 21.174886333043244,17.650335837760885 21.463181991072858,18.12221800542876 21.80121691469794,18.58725002257091 22.182003962115406,19.045843903097225 22.598555991522176,19.498411660917586 23.043885861115168,19.945365309941884 23.511006429091303,20.387116864080003 23.992930553647493,20.824078337241826 24.482671092980667,21.25666174333724 24.97324090528773,21.68527909627613 25.457652848765616,22.110342409968382 25.929225102140595,22.53226010098518 26.385916690299904,22.95138590665444 26.829296537456298,23.368031031852784 27.26102861123514,23.782505561639066 27.68277687926179,24.195119581072156 28.096205309161622,24.606183175210916 28.50297786855999,25.016006429114213 28.904758525082272,25.424899427840916 29.30321124635382,25.833172256449892 29.7,26.241135 29.7,72.241135 4.0,72.241135" /><polygon points="35.7,4.241135 51.76931202636328,4.241135 51.72321271164408,4.509579443068265 51.69347501451751,5.023501295329401 51.72769708426518,5.534690459590694 51.825156675122344,6.042950588853932 51.98041663920984,6.5481097799344425 52.1878998495572,7.049996855351425 52.44202917919393,7.5484406376241004 52.73722750114953,8.043269949271677 53.067917688453534,8.534313612813364 53.428522614135424,9.021400450768368 53.81346515122473,9.504359285655909 54.217168172750974,9.983018939995189 54.634054551743645,10.457208236305426 55.05854716123227,10.926755997105822 55.48506887424635,11.3914910449156 55.9080425638154,11.851242202253957 56.3220693556406,12.305857152974305 56.72517600790105,12.755546055154912 57.11847759247582,13.200845848606122 57.503199742825636,13.642305171919102 57.88056809241119,14.080472663685025 58.251808274693204,14.51589696249507 58.61814592313239,14.949126706940419 58.98080667118944,15.380710535612238 59.341016152325075,15.811197087101704 59.7,16.241135 59.7,62.241135 35.7,62.241135" /><polygon points="65.7,6.241135 65.96184924141492,6.241520370304282 66.2236256374103,6.2413177751199775 66.48525634256652,6.239939248958503 66.74666851146408,6.236796826331272 67.00778929868339,6.231302541749699 67.26854585880491,6.222868429725199 67.52886534640906,6.210906524769186 67.78867491607629,6.194828861393075 68.04790172238702,6.17404747410828 68.30647291992172,6.147974397426216 68.5643156632608,6.116021665858297 68.82135710698472,6.077601313915938 69.07752419141114,6.032126121024855 69.3326890093474,5.979199551606282 69.58659629374264,5.918867854335974 69.83897274441689,5.851239972570389 70.08954506119017,5.776424849665984 70.3380399438825,5.694531428979215 70.58418409231392,5.605668653866541 70.82770420630443,5.5099454676844175 71.06832698567408,5.407470813789303 71.30577913024285,5.298353635537653 71.53978733983081,5.182702876285925 71.77011768914325,5.060667075949025 71.99701643157843,4.9328776564498895 72.2210506154905,4.80028864068219 72.44279315258406,4.663859947899638 72.66281695456375,4.524551497355947 72.88169493313418,4.38332320830483 73.10000000000001,4.241135 84.7619037896906,8.741135 84.37848221304392,9.270096513330149 84.00041948305662,9.798830153007739 83.63307444638812,10.327108045380205 83.2818059496978,10.85470231679499 82.95197283964507,11.381385093599533 82.64893396288932,11.90692850214127 82.37804816608994,12.431104668767642 82.14467429590633,12.953685719826087 81.95417119899788,13.47444378166405 81.811897722024,13.99315098062896 81.76931202636328,14.241135 65.7,14.241135" /><polygon points="90.7619037896906,15.681135000000001 91.10655381863404,15.085067616578916 91.45788329903448,14.494302170599038 91.82257168234901,13.91414059950157 92.20729772151124,13.349884286043187 92.61689096202443,12.805366191482506 93.05031716040655,12.279762950446258 93.50538250314928,11.771330404400208 93.97989317674426,11.278324394810111 94.47165536768316,10.799000763141727 94.97847526245764,10.331615350860819 95.49815904755937,9.87442399943314 96.02851290948001,9.425682550324453 96.56734303471124,8.983646845000518 97.11257284127483,8.546775073048028 97.66374716581745,8.116324082500256 98.22159444259947,7.6955936764965776 98.78687004493108,7.287930156470053 99.36032934612246,6.896679823853749 99.94272771948381,6.5251889800807295 100.53482053832536,6.176803926584059 101.13736317595726,5.8548709647968 101.75111100568975,5.562736396152019 102.376819400833,5.303746522082779 103.01522599083548,5.081187079304601 103.66616637325276,4.895264919698612 104.32816424654762,4.7417090199697896 104.9996399691661,4.615895628707108 105.67901389955425,4.513200994499545 106.36470639615814,4.429001365936076 107.05513781742386,4.358672991605678 107.74872852179745,4.2975921200973275 108.44389886772497,4.241135 109.12320518859174,4.334925870799282 109.80073406791821,4.433313777900898 110.47470806416409,4.540895757607184 111.14334973578907,4.662268846220473 111.80488164125288,4.8020300800430995 112.4575263390152,4.964776495377399 113.09950638753575,5.1551051285257055 113.72904434527422,5.377613015790352 114.34478024212645,5.635667221648294 114.94718821482961,5.927231088203126 115.53724594081486,6.248784404881816 116.11593111152634,6.596806919825561 116.68422141840821,6.967778381175562 117.24309455290464,7.358178537073017 117.79352820645977,7.764487135659125 118.33650007051777,8.183183925075085 118.87298783652281,8.610748653462094 119.40396919591903,9.043661068961356 119.93016488777654,9.479128472411674 120.45125157400763,9.917314436822892 120.96664076615724,10.359133300266862 121.47574397573288,10.805499400921438 121.97797271424204,11.257327076964474 122.47273849319224,11.715530666573821 122.95945282409096,12.181024507927336 123.43752721844571,12.654722939202868 123.906373187764,13.137540298578273 124.36540224614373,13.630390921266317 124.81458271322776,14.133551796743786 125.25599957272884,14.644877081540645 125.69224069384124,15.16164530588376 126.12589394575933,15.681135000000001 120.44389886772497,64.241135 96.44389886772497,64.241135" /><polygon points="132.12589394575934,5.041135000000001 132.14126572143675,4.885062742387097 132.18679031975032,4.734988254107929 132.2607182559173,4.596678813584319 132.36020852081012,4.475449575050762 132.48143775934366,4.375959310157964 132.61974719986728,4.302031373990971 132.76982168814644,4.2565067756774155 132.92589394575936,4.241135 154.32589394575933,4.241135 154.48196620337225,4.2565067756774155 154.6320406916514,4.302031373990971 154.77035013217503,4.375959310157964 154.89157937070857,4.475449575050762 154.99106963560138,4.596678813584319 155.06499757176837,4.734988254107929 155.11052217008194,4.885062742387097 155.12589394575934,5.041135000000001 155.12589394575934,15.441135 155.11052217008194,15.597207257612903 155.06499757176837,15.74728174589207 154.99106963560138,15.885591186415681 154.89157937070857,16.00682042494924 154.77035013217503,16.106310689842033 154.6320406916514,16.18023862600903 154.48196620337225,16.225763224322584 154.32589394575933,16.241135 132.92589394575936,16.241135 132.76982168814644,16.225763224322584 132.61974719986728,16.18023862600903 132.48143775934366,16.106310689842037 132.36020852081012,16.00682042494924 132.2607182559173,15.885591186415681 132.18679031975032,15.74728174589207 132.14126572143675,15.597207257612903 132.12589394575934,15.441135" /><polygon points="4.0,78.641135 4.007685887838708,78.56309887119355 4.030448186995486,78.48806162705397 4.067412155078982,78.41890690679216 4.117157287525381,78.35829228752539 4.1777719067921595,78.30854715507898 4.2469266270539645,78.27158318699549 4.321963871193549,78.2488208878387 4.4,78.241135 15.6,78.241135 15.67803612880645,78.2488208878387 15.753073372946035,78.27158318699549 15.82222809320784,78.30854715507898 15.882842712474618,78.35829228752539 15.932587844921018,78.41890690679216 15.969551813004514,78.48806162705397 15.992314112161292,78.56309887119355 16.0,78.641135 16.0,80.841135 15.992314112161292,80.91917112880645 15.969551813004514,80.99420837294603 15.932587844921018,81.06336309320784 15.882842712474618,81.12397771247461 15.82222809320784,81.17372284492102 15.753073372946035,81.21068681300451 15.67803612880645,81.2334491121613 15.6,81.241135 4.4,81.241135 4.3219638711935495,81.2334491121613 4.2469266270539645,81.21068681300451 4.1777719067921595,81.17372284492102 4.117157287525381,81.12397771247461 4.067412155078982,81.06336309320784 4.030448186995486,80.99420837294603 4.007685887838708,80.91917112880645 4.0,80.841135" /><polygon points="22.0,78.241135 22.498885873324554,78.338635 22.997771746649107,78.431135 23.496657619973664,78.518635 23.995543493298218,78.601135 24.49442936662277,78.678635 24.99331523994733,78.751135 25.492201113271882,78.818635 25.991086986596436,78.881135 26.48997285992099,78.938635 26.988858733245543,78.991135 27.4877446065701,79.038635 27.986630479894654,79.081135 28.485516353219207,79.118635 28.984402226543764,79.151135 29.483288099868318,79.178635 29.98217397319287,79.201135 30.481059846517425,79.218635 30.97994571984198,79.231135 31.478831593166532,79.238635 31.97771746649109,79.241135 32.47660333981565,79.238635 32.9754892131402,79.231135 33.474375086464754,79.218635 33.97326095978931,79.201135 34.47214683311386,79.178635 34.971032706438415,79.151135 35.469918579762975,79.118635 35.96880445308753,79.081135 36.46769032641208,79.038635 36.966576199736636,78.991135 37.46546207306119,78.938635 37.96434794638574,78.881135 38.4632338197103,78.818635 38.96211969303485,78.751135 39.461005566359404,78.678635 39.95989143968396,78.601135 40.45877731300851,78.518635 40.957663186333065,78.431135 41.456549059657625,78.338635 41.95543493298218,78.241135 43.155434932982175,84.741135 41.95543493298218,82.741135 41.456549059657625,82.838635 40.957663186333065,82.931135 40.45877731300851,83.018635 39.95989143968396,83.101135 39.461005566359404,83.178635 38.96211969303485,83.251135 38.4632338197103,83.318635 37.96434794638574,83.381135 37.46546207306119,83.438635 36.966576199736636,83.491135 36.46769032641208,83.538635 35.96880445308753,83.581135 35.469918579762975,83.618635 34.971032706438415,83.651135 34.47214683311386,83.678635 33.97326095978931,83.701135 33.474375086464754,83.718635 32.9754892131402,83.731135 32.47660333981565,83.738635 31.97771746649109,83.741135 31.478831593166532,83.738635 30.97994571984198,83.731135 30.481059846517425,83.718635 29.98217397319287,83.701135 29.483288099868318,83.678635 28.984402226543764,83.651135 28.485516353219207,83.618635 27.986630479894654,83.581135 27.4877446065701,83.538635 26.988858733245543,83.491135 26.48997285992099,83.438635 25.991086986596436,83.381135 25.492201113271882,83.318635 24.99331523994733,83.251135 24.49442936662277,83.178635 23.995543493298218,83.101135 23.496657619973664,83.018635 22.997771746649107,82.931135 22.498885873324554,82.838635 22.0,82.741135" /><polygon points="49.155434932982175,78.241135 49.69682080630673,78.319135 50.23820667963128,78.393135 50.77959255295584,78.463135 51.32097842628039,78.529135 51.86236429960495,78.591135 52.4037501729295,78.649135 52.945136046254056,78.703135 53.48652191957861,78.753135 54.027907792903164,78.799135 54.56929366622772,78.841135 55.11067953955227,78.879135 55.65206541287683,78.913135 56.19345128620138,78.943135 56.73483715952594,78.969135 57.276223032850496,78.991135 57.817608906175046,79.009135 58.3589947794996,79.023135 58.900380652824154,79.033135 59.44176652614871,79.039135 59.98315239947326,79.041135 60.52453827279782,79.039135 61.06592414612237,79.033135 61.60731001944693,79.023135 62.148695892771485,79.009135 62.690081766096036,78.991135 63.23146763942059,78.969135 63.772853512745144,78.943135 64.3142393860697,78.913135 64.85562525939426,78.879135 65.3970111327188,78.841135 65.93839700604336,78.799135 66.47978287936792,78.753135 67.02116875269247,78.703135 67.56255462601703,78.649135 68.10394049934158,78.591135 68.64532637266613,78.529135 69.18671224599069,78.463135 69.72809811931523,78.393135 70.2694839926398,78.319135 70.81086986596435,78.241135 70.81086986596435,81.241135 70.2694839926398,81.319135 69.72809811931523,81.393135 69.18671224599069,81.463135 68.64532637266613,81.529135 68.10394049934158,81.591135 67.56255462601703,81.649135 67.02116875269247,81.703135 66.47978287936792,81.753135 65.93839700604336,81.79913499999999 65.3970111327188,81.841135 64.85562525939426,81.879135 64.3142393860697,81.913135 63.772853512745144,81.943135 63.23146763942059,81.969135 62.690081766096036,81.991135 62.148695892771485,82.009135 61.60731001944693,82.023135 61.06592414612237,82.033135 60.52453827279782,82.039135 59.98315239947326,82.041135 59.44176652614871,82.039135 58.900380652824154,82.033135 58.3589947794996,82.023135 57.817608906175046,82.009135 57.276223032850496,81.991135 56.73483715952594,81.969135 56.19345128620138,81.943135 55.65206541287683,81.913135 55.11067953955227,81.879135 54.56929366622772,81.841135 54.027907792903164,81.79913499999999 53.48652191957861,81.753135 52.945136046254056,81.703135 52.4037501729295,81.649135 51.86236429960495,81.591135 51.32097842628039,81.529135 50.77959255295584,81.463135 50.23820667963128,81.393135 49.69682080630673,81.319135 49.155434932982175,81.241135" /><polygon points="76.81086986596435,87.641135 78.51086986596435,87.641135 78.75938836707937,87.91039528067232 79.00669612287622,87.67873638506211 79.2515823880367,87.44523913688687 79.49283641724263,87.20898435986408 79.72924746517585,86.9690528777112 79.95960478651814,86.72452551414574 80.18269763595136,86.47448309288515 80.3973152681573,86.21800643764695 80.60242464822674,85.95431009760925 80.7983850465239,85.68365631896017 80.9862120437902,85.40680121545611 81.16692507468667,85.12450380089281 81.34154357387435,84.83752308906601 81.51108697601421,84.54661809377146 81.67657471576733,84.25254782880488 81.83902622779469,83.95607130796202 81.99946094675734,83.65794754503861 82.15889830731628,83.35893555383039 82.31835774413254,83.0597943481331 82.47885869186716,82.76128294174248 82.64142058518112,82.46416034845427 82.80706257965568,82.16918537648958 82.97650914040474,81.87689976038467 83.14963118426208,81.58721649743816 83.32614598175785,81.29993540663787 83.50577080342215,81.01485630697161 83.68822291978513,80.73177901742719 83.87321960137693,80.45050335699243 84.06047811872767,80.17082914465514 84.24971574236748,79.89255619940316 84.44064974282651,79.61548434022427 84.63299739063487,79.33941338610632 84.8264759563227,79.06414315603709 85.02080271042014,78.78947346900442 85.2156949234573,78.51520414399612 85.41086986596436,78.241135 86.41086986596436,78.741135 82.41086986596436,90.641135 82.81086986596435,146.241135 76.81086986596435,146.241135" /><polygon points="92.41086986596434,78.241135 104.41086986596434,78.241135 104.41086986596434,87.961135 98.41086986596434,91.741135 92.41086986596434,87.961135" /></g><g fill="none" id="PIQUETES" stroke="#00b0b0" stroke-width="0.08"><line x1="20.425009944164856" x2="20.563098045075908" y1="15.805505235809736" y2="16.436798888864146" /><line x1="20.89847814652267" x2="20.563098045075908" y1="15.88442203602402" y2="16.436798888864146" /><line x1="29.7835229658042" x2="29.13750603234751" y1="46.716137412939005" y2="46.7323275854895" /><line x1="29.6164770341958" x2="29.13750603234751" y1="47.166132587061" y2="46.7323275854895" /><line x1="43.49633462143063" x2="43.8054953663806" y1="4.269470741279586" y2="4.8369384793775145" /><line x1="43.97297740493264" x2="43.8054953663806" y1="4.2127992587204135" y2="4.8369384793775145" /><line x1="73.9735780606733" x2="73.7914591393276" y1="14.263856250458382" y2="13.643829881270847" /><line x1="73.49573396569" x2="73.7914591393276" y1="14.218413749541618" y2="13.643829881270847" /><line x1="116.9933552008703" x2="117.03303891017482" y1="7.2676324246441215" y2="7.912632582175757" /><line x1="117.44913012587267" x2="117.03303891017482" y1="7.418195427201455" y2="7.912632582175757" /><line x1="98.97778482178708" x2="99.39771656592201" y1="7.079656822046263" y2="7.570836351615437" /><line x1="99.43237256469959" x2="99.39771656592201" y1="6.925546523903324" y2="7.570836351615437" /><line x1="97.5646417181934" x2="98.01299995948563" y1="8.11381395984228" y2="8.579190030848672" /><line x1="98.00927576476118" x2="98.01299995948563" y1="7.9329809854356155" y2="8.579190030848672" /></g><g fill="none" id="TEXTOS" stroke="#000000" stroke-width="0.08"><text fill="#000000" font-family="sans-serif" font-size="0.9" stroke="none" text-anchor="middle" x="16.307346189734385" y="39.26955205622802">DELANTERO</text><text fill="#000000" font-family="sans-serif" font-size="0.6" stroke="none" text-anchor="middle" x="16.307346189734385" y="40.66955205622802">Pieza N.01</text><text fill="#000000" font-family="sans-serif" font-size="0.6" stroke="none" text-anchor="middle" x="16.307346189734385" y="42.06955205622802">Talla: S</text><text fill="#000000" font-family="sans-serif" font-size="0.6" stroke="none" text-anchor="middle" x="16.307346189734385" y="43.469552056228025">Cortar: 2  (par: izq + der)</text><text fill="#000000" font-family="sans-serif" font-size="0.9" stroke="none" text-anchor="middle" x="47.31172442664184" y="30.72652836497069">ESPALDA</text><text fill="#000000" font-family="sans-serif" font-size="0.6" stroke="none" text-anchor="middle" x="47.31172442664184" y="32.12652836497069">Pieza N.02</text><text fill="#000000" font-family="sans-serif" font-size="0.6" stroke="none" text-anchor="middle" x="47.31172442664184" y="33.52652836497069">Talla: S</text><text fill="#000000" font-family="sans-serif" font-size="0.6" stroke="none" text-anchor="middle" x="47.31172442664184" y="34.92652836497069">Cortar: 1  (al doblez)</text><text fill="#000000" font-family="sans-serif" font-size="0.6" stroke="none" text-anchor="middle" x="47.31172442664184" y="36.32652836497069">AL DOBLEZ</text><text fill="#000000" font-family="sans-serif" font-size="0.9" stroke="none" text-anchor="middle" x="74.13912194225966" y="6.388031585073821">CANESU</text><text fill="#000000" font-family="sans-serif" font-size="0.6" stroke="none" text-anchor="middle" x="74.13912194225966" y="7.788031585073821">Pieza N.03</text><text fill="#000000" font-family="sans-serif" font-size="0.6" stroke="none" text-anchor="middle" x="74.13912194225966" y="9.188031585073821">Talla: S</text><text fill="#000000" font-family="sans-serif" font-size="0.6" stroke="none" text-anchor="middle" x="74.13912194225966" y="10.58803158507382">Cortar: 2  (al doblez x2 (exterior+interior))</text><text fill="#000000" font-family="sans-serif" font-size="0.6" stroke="none" text-anchor="middle" x="74.13912194225966" y="11.98803158507382">AL DOBLEZ</text><text fill="#000000" font-family="sans-serif" font-size="0.9" stroke="none" text-anchor="middle" x="108.38672474954848" y="31.3862152098589">MANGA</text><text fill="#000000" font-family="sans-serif" font-size="0.6" stroke="none" text-anchor="middle" x="108.38672474954848" y="32.786215209858895">Pieza N.04</text><text fill="#000000" font-family="sans-serif" font-size="0.6" stroke="none" text-anchor="middle" x="108.38672474954848" y="34.1862152098589">Talla: S</text><text fill="#000000" font-family="sans-serif" font-size="0.6" stroke="none" text-anchor="middle" x="108.38672474954848" y="35.5862152098589">Cortar: 2  (par: izq + der)</text><text fill="#000000" font-family="sans-serif" font-size="0.9" stroke="none" text-anchor="middle" x="143.62589394575934" y="7.541135000000003">PUNO</text><text fill="#000000" font-family="sans-serif" font-size="0.6" stroke="none" text-anchor="middle" x="143.62589394575934" y="8.941135000000003">Pieza N.05</text><text fill="#000000" font-family="sans-serif" font-size="0.6" stroke="none" text-anchor="middle" x="143.62589394575934" y="10.341135000000003">Talla: S</text><text fill="#000000" font-family="sans-serif" font-size="0.6" stroke="none" text-anchor="middle" x="143.62589394575934" y="11.741135000000003">Cortar: 4  (4 (2 tela + 2 entretela))</text><text fill="#000000" font-family="sans-serif" font-size="0.9" stroke="none" text-anchor="middle" x="9.999999999999996" y="77.041135">TAPETA MANGA</text><text fill="#000000" font-family="sans-serif" font-size="0.6" stroke="none" text-anchor="middle" x="9.999999999999996" y="78.441135">Pieza N.06</text><text fill="#000000" font-family="sans-serif" font-size="0.6" stroke="none" text-anchor="middle" x="9.999999999999996" y="79.841135">Talla: S</text><text fill="#000000" font-family="sans-serif" font-size="0.6" stroke="none" text-anchor="middle" x="9.999999999999996" y="81.241135">Cortar: 2  (par)</text><text fill="#000000" font-family="sans-serif" font-size="0.9" stroke="none" text-anchor="middle" x="32.28063640253869" y="77.57928918259054">CUELLO</text><text fill="#000000" font-family="sans-serif" font-size="0.6" stroke="none" text-anchor="middle" x="32.28063640253869" y="78.97928918259053">Pieza N.07</text><text fill="#000000" font-family="sans-serif" font-size="0.6" stroke="none" text-anchor="middle" x="32.28063640253869" y="80.37928918259054">Talla: S</text><text fill="#000000" font-family="sans-serif" font-size="0.6" stroke="none" text-anchor="middle" x="32.28063640253869" y="81.77928918259055">Cortar: 2  (al doblez x2 (+ entretela))</text><text fill="#000000" font-family="sans-serif" font-size="0.6" stroke="none" text-anchor="middle" x="32.28063640253869" y="83.17928918259054">AL DOBLEZ</text><text fill="#000000" font-family="sans-serif" font-size="0.9" stroke="none" text-anchor="middle" x="59.98315239947326" y="76.67413499999999">PIE DE CUELLO</text><text fill="#000000" font-family="sans-serif" font-size="0.6" stroke="none" text-anchor="middle" x="59.98315239947326" y="78.074135">Pieza N.08</text><text fill="#000000" font-family="sans-serif" font-size="0.6" stroke="none" text-anchor="middle" x="59.98315239947326" y="79.474135">Talla: S</text><text fill="#000000" font-family="sans-serif" font-size="0.6" stroke="none" text-anchor="middle" x="59.98315239947326" y="80.874135">Cortar: 2  (al doblez x2 (+ entretela))</text><text fill="#000000" font-family="sans-serif" font-size="0.6" stroke="none" text-anchor="middle" x="59.98315239947326" y="82.274135">AL DOBLEZ</text><text fill="#000000" font-family="sans-serif" font-size="0.9" stroke="none" text-anchor="middle" x="79.95653284297626" y="112.25127545238473">VISTA DELANTERA</text><text fill="#000000" font-family="sans-serif" font-size="0.6" stroke="none" text-anchor="middle" x="79.95653284297626" y="113.65127545238472">Pieza N.09</text><text fill="#000000" font-family="sans-serif" font-size="0.6" stroke="none" text-anchor="middle" x="79.95653284297626" y="115.05127545238473">Talla: S</text><text fill="#000000" font-family="sans-serif" font-size="0.6" stroke="none" text-anchor="middle" x="79.95653284297626" y="116.45127545238473">Cortar: 2  (par: izq + der)</text><text fill="#000000" font-family="sans-serif" font-size="0.9" stroke="none" text-anchor="middle" x="98.41086986596434" y="81.39741406976744">BOLSILLO</text><text fill="#000000" font-family="sans-serif" font-size="0.6" stroke="none" text-anchor="middle" x="98.41086986596434" y="82.79741406976744">Pieza N.10</text><text fill="#000000" font-family="sans-serif" font-size="0.6" stroke="none" text-anchor="middle" x="98.41086986596434" y="84.19741406976745">Talla: S</text><text fill="#000000" font-family="sans-serif" font-size="0.6" stroke="none" text-anchor="middle" x="98.41086986596434" y="85.59741406976744">Cortar: 1  (1 (opcional))</text></g><g fill="none" id="CENTROS" stroke="#0050ff" stroke-width="0.08"><circle cx="18.9" cy="29.241135" fill="#0050ff" r="0.15" /><circle cx="112.86439763723357" cy="52.241135" fill="#0050ff" r="0.15" /></g><g fill="none" id="HILO" stroke="#c0a000" stroke-width="0.08"><line x1="17.7" x2="17.7" y1="16.641135" y2="69.241135" /><line x1="17.7" x2="18.167302010770378" y1="69.241135" y2="68.13586180719655" /><line x1="17.7" x2="17.232697989229617" y1="69.241135" y2="68.13586180719655" /><line x1="17.7" x2="17.23269798922962" y1="16.641135" y2="17.746408192803464" /><line x1="17.7" x2="18.167302010770378" y1="16.641135" y2="17.746408192803464" /><line x1="36.2" x2="36.2" y1="7.241135" y2="59.241135" /><line x1="36.2" x2="36.66730201077038" y1="59.241135" y2="58.13586180719654" /><line x1="36.2" x2="35.73269798922962" y1="59.241135" y2="58.13586180719654" /><line x1="36.2" x2="35.73269798922962" y1="7.241135" y2="8.346408192803462" /><line x1="36.2" x2="36.66730201077038" y1="7.241135" y2="8.346408192803462" /><line x1="69.96000000000001" x2="69.96000000000001" y1="5.241135" y2="13.741135" /><line x1="69.96000000000001" x2="70.42730201077039" y1="13.741135" y2="12.635861807196537" /><line x1="69.96000000000001" x2="69.49269798922963" y1="13.741135" y2="12.635861807196537" /><line x1="69.96000000000001" x2="69.49269798922963" y1="5.241135" y2="6.346408192803462" /><line x1="69.96000000000001" x2="70.42730201077038" y1="5.241135" y2="6.346408192803462" /><line x1="108.44389886772497" x2="108.44389886772497" y1="8.817135" y2="62.241135" /><line x1="108.44389886772497" x2="108.91120087849535" y1="62.241135" y2="61.13586180719654" /><line x1="108.44389886772497" x2="107.97659685695459" y1="62.241135" y2="61.13586180719654" /><line x1="108.44389886772497" x2="107.97659685695459" y1="8.817135" y2="9.922408192803463" /><line x1="108.44389886772497" x2="108.91120087849535" y1="8.817135" y2="9.922408192803463" /><line x1="143.62589394575934" x2="143.62589394575934" y1="4.741135" y2="15.741135" /><line x1="143.62589394575934" x2="144.0931959565297" y1="15.741135" y2="14.635861807196537" /><line x1="143.62589394575934" x2="143.15859193498898" y1="15.741135" y2="14.635861807196537" /><line x1="143.62589394575934" x2="143.15859193498898" y1="4.741135" y2="5.846408192803462" /><line x1="143.62589394575934" x2="144.0931959565297" y1="4.741135" y2="5.846408192803462" /><line x1="10.0" x2="10.0" y1="78.641135" y2="80.841135" /><line x1="10.0" x2="10.467302010770382" y1="80.841135" y2="79.73586180719654" /><line x1="10.0" x2="9.532697989229618" y1="80.841135" y2="79.73586180719654" /><line x1="10.0" x2="9.53269798922962" y1="78.641135" y2="79.74640819280346" /><line x1="10.0" x2="10.46730201077038" y1="78.641135" y2="79.74640819280346" /><line x1="22.5" x2="41.45543493298218" y1="78.741135" y2="78.741135" /><line x1="41.45543493298218" x2="40.35016174017872" y1="78.741135" y2="78.27383298922962" /><line x1="41.45543493298218" x2="40.35016174017872" y1="78.741135" y2="79.20843701077038" /><line x1="22.5" x2="23.605273192803462" y1="78.741135" y2="79.20843701077038" /><line x1="22.5" x2="23.605273192803462" y1="78.741135" y2="78.27383298922962" /><line x1="49.655434932982175" x2="70.31086986596435" y1="78.641135" y2="78.641135" /><line x1="70.31086986596435" x2="69.2055966731609" y1="78.641135" y2="78.17383298922962" /><line x1="70.31086986596435" x2="69.2055966731609" y1="78.641135" y2="79.10843701077037" /><line x1="49.655434932982175" x2="50.760708125785634" y1="78.641135" y2="79.10843701077037" /><line x1="49.655434932982175" x2="50.760708125785634" y1="78.641135" y2="78.17383298922962" /><line x1="79.81086986596435" x2="79.81086986596435" y1="92.641135" y2="143.241135" /><line x1="79.81086986596435" x2="80.27817187673473" y1="143.241135" y2="142.13586180719656" /><line x1="79.81086986596435" x2="79.34356785519397" y1="143.241135" y2="142.13586180719656" /><line x1="79.81086986596435" x2="79.34356785519397" y1="92.641135" y2="93.74640819280346" /><line x1="79.81086986596435" x2="80.27817187673473" y1="92.641135" y2="93.74640819280346" /><line x1="98.41086986596434" x2="98.41086986596434" y1="79.241135" y2="87.961135" /><line x1="98.41086986596434" x2="98.87817187673473" y1="87.961135" y2="86.85586180719653" /><line x1="98.41086986596434" x2="97.94356785519396" y1="87.961135" y2="86.85586180719653" /><line x1="98.41086986596434" x2="97.94356785519396" y1="79.241135" y2="80.34640819280347" /><line x1="98.41086986596434" x2="98.87817187673473" y1="79.241135" y2="80.34640819280347" /></g><g fill="none" id="DOBLEZ" stroke="#c000c0" stroke-width="0.08"><line x1="35.7" x2="35.7" y1="4.241135" y2="62.241135" /><line x1="65.7" x2="65.7" y1="4.241135" y2="14.241135" /><line x1="22.0" x2="22.0" y1="78.241135" y2="84.741135" /><line x1="49.155434932982175" x2="49.155434932982175" y1="78.241135" y2="82.041135" /></g><g fill="none" id="BOTONES" stroke="#ff8000" stroke-width="0.08"><circle cx="5.7" cy="15.141135" fill="#ff8000" r="0.55" /><circle cx="5.7" cy="23.657801666666668" fill="#ff8000" r="0.55" /><circle cx="5.7" cy="32.17446833333334" fill="#ff8000" r="0.55" /><circle cx="5.7" cy="40.691135" fill="#ff8000" r="0.55" /><circle cx="5.7" cy="49.20780166666667" fill="#ff8000" r="0.55" /><circle cx="5.7" cy="57.724468333333334" fill="#ff8000" r="0.55" /><circle cx="5.7" cy="66.241135" fill="#ff8000" r="0.55" /><circle cx="133.32589394575933" cy="10.241135" fill="#ff8000" r="0.55" /><circle cx="69.81086986596435" cy="79.741135" fill="#ff8000" r="0.55" /></g><g fill="none" id="OJAL" stroke="#ff40a0" stroke-width="0.08"><line x1="4.9" x2="6.5" y1="15.141135" y2="15.141135" /><line x1="4.9" x2="6.5" y1="23.657801666666668" y2="23.657801666666668" /><line x1="4.9" x2="6.5" y1="32.17446833333334" y2="32.17446833333334" /><line x1="4.9" x2="6.5" y1="40.691135" y2="40.691135" /><line x1="4.9" x2="6.5" y1="49.20780166666667" y2="49.20780166666667" /><line x1="4.9" x2="6.5" y1="57.724468333333334" y2="57.724468333333334" /><line x1="4.9" x2="6.5" y1="66.241135" y2="66.241135" /><line x1="153.92589394575936" x2="153.92589394575936" y1="9.441135" y2="11.041135" /></g><g fill="none" id="REFERENCIAS" stroke="#b0b0b0" stroke-width="0.08"><text fill="#000000" font-family="sans-serif" font-size="0.5" stroke="none" text-anchor="start" x="5.7" y="12.641135">CF</text><text fill="#000000" font-family="sans-serif" font-size="0.5" stroke="none" text-anchor="start" x="36.0" y="33.241135">CB</text><text fill="#000000" font-family="sans-serif" font-size="0.5" stroke="none" text-anchor="start" x="143.62589394575934" y="9.441135">DOBLEZ</text><text fill="#000000" font-family="sans-serif" font-size="0.5" stroke="none" text-anchor="start" x="98.41086986596434" y="79.741135">boca</text></g></svg>