<?xml version="1.0" encoding="utf-8" ?>
<svg baseProfile="full" height="135.059181cm" version="1.1" viewBox="0 0 158.0 135.059181" width="158.0cm" xmlns="http://www.w3.org/2000/svg" xmlns:ev="http://www.w3.org/2001/xml-events" xmlns:xlink="http://www.w3.org/1999/xlink"><defs /><rect fill="#f7f3ea" height="127.059181" stroke="#333" stroke-width="0.15" width="150.0" x="4.0" y="4.0" /><text fill="#000" font-family="sans-serif" font-size="1.4" x="4.0" y="3.0">PLANO DE CORTE — ancho 150 cm — largo 1.27 m</text><polygon fill="#cfe3f7" fill-opacity="0.5" points="8.603537000000001,66.004613 34.432241,66.004613 39.044742,14.559622999999998 38.338398999999995,13.774989999999999 37.917592,13.312847999999999 37.488116,12.851835999999999 37.047919,12.395239 36.597245,11.9474 36.138323,11.51006 35.672148,11.082705 35.19934,10.664458 34.720508,10.254439 34.236247,9.851766999999999 33.747142,9.455561 33.253769,9.064943 32.756689,8.679036 32.255796000000004,8.296466 31.749057,7.915755 31.233977,7.538259 30.709418,7.1668959999999995 30.174402999999998,6.804792 29.6279,6.4551289999999995 29.068843,6.121163 28.496148,5.80625 27.908752,5.513857 27.305661,5.24759 26.687530000000002,5.011762 26.059449,4.809616 25.427158,4.638591 24.792906000000002,4.494111 24.158237,4.371542 23.52457,4.266382 22.893254,4.174272 22.265622,4.0909949999999995 21.544124,4.0 20.808963,4.05394 20.168217,4.104962 19.523647,4.164405 18.8764,4.236438 18.227627,4.325369 17.578525,4.435643 16.930396000000002,4.57184 16.284807,4.738636 15.645945000000001,4.939882 15.019679,5.174805 14.408314,5.439152 13.811256,5.729414 13.227674,6.042254 12.656686,6.374447 12.097394,6.722872 11.548913,7.084489 11.010392,7.456322999999999 10.481016,7.835451 9.959197,8.2196 9.441979,8.609293000000001 8.928751,9.007759 8.421351,9.417183999999999 7.9219930000000005,9.839547 7.432948,10.276864 6.956562,10.731176 6.495274,11.204525 6.051633000000001,11.698924 5.628798,12.215724 5.232445000000002,12.750982 4.862674000000002,13.294198000000002 4.513476000000001,13.837394 4.0,14.659607999999999 8.603537000000001,66.004613" stroke="#1f6fb2" stroke-width="0.1" /><text fill="#0a3d62" font-family="sans-serif" font-size="1.6" text-anchor="middle" x="21.522371" y="35.0023065">04</text><polygon fill="#cfe3f7" fill-opacity="0.5" points="44.648279,66.004613 70.47698299999999,66.004613 75.089484,14.559622999999998 74.383141,13.774989999999999 73.962334,13.312847999999999 73.532858,12.851835999999999 73.09266099999999,12.395239 72.641987,11.9474 72.183065,11.51006 71.71689,11.082705 71.24408199999999,10.664458 70.76525000000001,10.254439 70.280989,9.851766999999999 69.791884,9.455561 69.29851099999999,9.064943 68.80143100000001,8.679036 68.300538,8.296466 67.793799,7.915755 67.278719,7.538259 66.75416,7.1668959999999995 66.219145,6.804792 65.672642,6.4551289999999995 65.113585,6.121163 64.54089,5.80625 63.953494,5.513857 63.350403,5.24759 62.732272,5.011762 62.104191,4.809616 61.4719,4.638591 60.837648,4.494111 60.202979,4.371542 59.569312,4.266382 58.937996,4.174272 58.310364,4.0909949999999995 57.588865999999996,4.0 56.853705,4.05394 56.212959,4.104962 55.568388999999996,4.164405 54.921142,4.236438 54.272369,4.325369 53.623267,4.435643 52.975138,4.57184 52.329549,4.738636 51.690687,4.939882 51.064420999999996,5.174805 50.453056000000004,5.439152 49.855998,5.729414 49.272416,6.042254 48.701428,6.374447 48.142136,6.722872 47.593655,7.084489 47.055133999999995,7.456322999999999 46.525757999999996,7.835451 46.003939,8.2196 45.486721,8.609293000000001 44.973493,9.007759 44.466093,9.417183999999999 43.966735,9.839547 43.477689999999996,10.276864 43.001304,10.731176 42.540016,11.204525 42.096375,11.698924 41.67354,12.215724 41.277187,12.750982 40.907416,13.294198000000002 40.558218,13.837394 40.044742,14.659607999999999 44.648279,66.004613" stroke="#1f6fb2" stroke-width="0.1" /><text fill="#0a3d62" font-family="sans-serif" font-size="1.6" text-anchor="middle" x="57.567113" y="35.0023065">04</text><polygon fill="#cfe3f7" fill-opacity="0.5" points="76.089484,13.667704 76.089484,48.967704000000005 83.91469,48.967704000000005 83.690661,17.827772 87.914406,5.262131 85.390145,4.0 84.69403199999999,4.928368 84.498293,5.189983 84.302478,5.452847 84.106866,5.717166 83.91174,5.98315 83.717384,6.251011999999999 83.524087,6.520965 83.33214,6.793221 83.141839,7.067997 82.95348,7.345508 82.767366,7.6259689999999996 82.583803,7.909597 82.403099,8.196606 82.225726,8.486951000000001 82.052787,8.779094 81.884562,9.070626 81.720234,9.360295 81.558759,9.647313 81.399137,9.930903 81.240411,10.210297 81.081668,10.484739000000001 80.922037,10.753489 80.760687,11.015827 80.596825,11.271062 80.42969,11.518545 80.258542,11.757678 80.082645,11.987943000000001 79.900353,12.210004 79.708888,12.426846 79.507134,12.641195 79.295762,12.853889 79.075696,13.065588 78.847926,13.27698 78.613495,13.488792 78.411909,13.667704 76.089484,13.667704" stroke="#1f6fb2" stroke-width="0.1" /><text fill="#0a3d62" font-family="sans-serif" font-size="1.6" text-anchor="middle" x="82.001945" y="26.483852000000002">09</text><polygon fill="#cfe3f7" fill-opacity="0.5" points="88.914406,13.667704 88.914406,48.967704000000005 96.739612,48.967704000000005 96.51558299999999,17.827772 100.739328,5.262131 98.215067,4.0 97.51895400000001,4.928368 97.323215,5.189983 97.1274,5.452847 96.931788,5.717166 96.736662,5.98315 96.542306,6.251011999999999 96.349009,6.520965 96.157062,6.793221 95.966761,7.067997 95.778402,7.345508 95.592288,7.6259689999999996 95.408725,7.909597 95.228021,8.196606 95.050648,8.486951000000001 94.877709,8.779094 94.709484,9.070626 94.545156,9.360295 94.383681,9.647313 94.224059,9.930903 94.065333,10.210297 93.90659,10.484739000000001 93.746959,10.753489 93.585609,11.015827 93.421747,11.271062 93.254612,11.518545 93.08346399999999,11.757678 92.907567,11.987943000000001 92.725275,12.210004 92.53381,12.426846 92.332056,12.641195 92.120684,12.853889 91.900618,13.065588 91.672848,13.27698 91.438417,13.488792 91.236831,13.667704 88.914406,13.667704" stroke="#1f6fb2" stroke-width="0.1" /><text fill="#0a3d62" font-family="sans-serif" font-size="1.6" text-anchor="middle" x="94.826867" y="26.483852000000002">09</text><polygon fill="#cfe3f7" fill-opacity="0.5" points="101.739328,13.633067 101.739328,48.933067 129.439328,48.933067 129.439328,26.857360999999997 128.84,26.172342999999998 128.486005,25.768483 128.130012,25.363836 127.770878,24.957849 127.407761,24.550319 127.039824,24.141047999999998 126.666234,23.729844999999997 126.286171,23.316536 125.899742,22.901911 125.510403,22.488083 125.123925,22.076037 124.744869,21.665301 124.377667,21.255467 124.026745,20.846346999999998 123.696473,20.437973 123.391104,20.030609 123.114668,19.624724 122.87084899999999,19.22094 122.662824,18.819888 122.49311399999999,18.421923 122.36271500000001,18.024288 122.269728,17.618925 122.210974,17.199514999999998 122.184836,16.764596 122.189952,16.313914 122.224876,15.847847 122.287938,15.367222 122.37719799999999,14.873137 122.49046,14.366815 122.62530100000001,13.849511 122.779123,13.32245 122.94919300000001,12.78679 123.132674,12.243606999999999 123.326662,11.693886 123.52819600000001,11.138521 124.059732,9.693617 111.014017,4.0 110.343876,4.893731 110.148137,5.155346 109.952322,5.41821 109.75671,5.682529 109.561584,5.948513 109.367228,6.216374999999999 109.173931,6.486328 108.981984,6.758584 108.791683,7.03336 108.603324,7.310871 108.41721,7.5913319999999995 108.233647,7.87496 108.052943,8.161969 107.87557,8.452314000000001 107.702631,8.744457 107.534406,9.035989 107.370078,9.325658 107.208603,9.612676 107.048981,9.896266 106.890255,10.17566 106.731512,10.450102000000001 106.571881,10.718852 106.410531,10.98119 106.246669,11.236425 106.079534,11.483908 105.90838600000001,11.723041 105.732489,11.953306000000001 105.550197,12.175367 105.358732,12.392209 105.156978,12.606558 104.945606,12.819252 104.72554,13.030951 104.49777,13.242343 104.263339,13.454155 104.061753,13.633067 101.739328,13.633067" stroke="#1f6fb2" stroke-width="0.1" /><text fill="#0a3d62" font-family="sans-serif" font-size="1.6" text-anchor="middle" x="115.589328" y="26.4665335">01</text><polygon fill="#cfe3f7" fill-opacity="0.5" points="4.0,76.63768 4.0,111.93768 31.7,111.93768 31.7,89.861974 31.100672,89.176956 30.746677,88.77309600000001 30.390684,88.368449 30.03155,87.962462 29.668433,87.55493200000001 29.300496,87.145661 28.926906,86.734458 28.546843,86.321149 28.160414,85.906524 27.771075,85.49269600000001 27.384597,85.08065 27.005541,84.669914 26.638339,84.26008 26.287416999999998,83.85096 25.957145,83.442586 25.651775999999998,83.035222 25.375339999999998,82.629337 25.131521,82.225553 24.923496,81.82450100000001 24.753785999999998,81.426536 24.623387,81.028901 24.5304,80.62353800000001 24.471646,80.20412800000001 24.445508,79.769209 24.450623999999998,79.318527 24.485547999999998,78.85246000000001 24.54861,78.371835 24.63787,77.87775 24.751132,77.37142800000001 24.885973,76.85412400000001 25.039794999999998,76.32706300000001 25.209865,75.791403 25.393345999999998,75.24822 25.587334,74.69849900000001 25.788868,74.143134 26.320404,72.69823000000001 13.274689,67.004613 12.604548000000001,67.89834400000001 12.408809,68.159959 12.212994,68.42282300000001 12.017382000000001,68.68714200000001 11.822256,68.95312600000001 11.6279,69.220988 11.434603,69.490941 11.242656,69.763197 11.052355,70.03797300000001 10.863996,70.31548400000001 10.677882,70.595945 10.494319,70.87957300000001 10.313615,71.166582 10.136242,71.45692700000001 9.963303,71.74907 9.795078,72.040602 9.63075,72.33027100000001 9.469275,72.617289 9.309653,72.900879 9.150927,73.180273 8.992184,73.45471500000001 8.832553,73.723465 8.671203,73.985803 8.507341,74.241038 8.340206,74.488521 8.169058,74.727654 7.993161000000001,74.957919 7.810869,75.17998 7.619404,75.396822 7.41765,75.61117100000001 7.206278,75.82386500000001 6.986212,76.03556400000001 6.7584420000000005,76.24695600000001 6.524011,76.458768 6.322425,76.63768 4.0,76.63768" stroke="#1f6fb2" stroke-width="0.1" /><text fill="#0a3d62" font-family="sans-serif" font-size="1.6" text-anchor="middle" x="17.85" y="89.4711465">01</text><polygon fill="#cfe3f7" fill-opacity="0.5" points="81.956334,78.581023 81.667847,78.144957 81.379368,77.708093 81.090845,77.27008500000001 80.802226,76.83058500000001 80.51346000000001,76.38924700000001 80.224504,75.94574 79.935746,75.500349 79.648979,75.054125 79.366721,74.60766500000001 79.091082,74.16091700000001 78.824129,73.713835 78.567903,73.266418 78.324413,72.818706 78.09562,72.370771 77.88343,71.92270900000001 77.689674,71.47462100000001 77.516095,71.026595 77.36434200000001,70.578669 77.235945,70.130741 77.131893,69.68085300000001 77.051451,69.22507200000001 76.992833,68.76120200000001 76.954642,68.28917700000001 76.903386,67.004613 57.7,67.004613 57.7,107.224613 82.7,107.224613 82.7,79.70330100000001 82.24488,79.016638 81.956334,78.581023 33.44366600000001,78.581023 33.732153000000004,78.144957 34.020632000000006,77.708093 34.309155000000004,77.27008500000001 34.597774,76.83058500000001 34.886540000000004,76.38924700000001 35.175496,75.94574 35.464254000000004,75.500349 35.751021,75.054125 36.03327900000001,74.60766500000001 36.308918000000006,74.16091700000001 36.57587100000001,73.713835 36.832097000000005,73.266418 37.075587,72.818706 37.30438,72.370771 37.51657,71.92270900000001 37.710326,71.47462100000001 37.883905,71.026595 38.035658,70.578669 38.164055000000005,70.130741 38.268107,69.68085300000001 38.348549000000006,69.22507200000001 38.407167,68.76120200000001 38.445358,68.28917700000001 38.49661400000001,67.004613 57.7,67.004613 57.7,107.224613 32.7,107.224613 32.7,79.70330100000001 33.155120000000004,79.016638 33.44366600000001,78.581023" stroke="#1f6fb2" stroke-width="0.1" /><text fill="#0a3d62" font-family="sans-serif" font-size="1.6" text-anchor="middle" x="57.7" y="87.114613">02</text><polygon fill="#cfe3f7" fill-opacity="0.5" points="83.7,78.27651800000001 90.7,82.686518 97.7,78.27651800000001 97.7,67.004613 83.7,67.004613 83.7,78.27651800000001" stroke="#1f6fb2" stroke-width="0.1" /><text fill="#0a3d62" font-family="sans-serif" font-size="1.6" text-anchor="middle" x="90.7" y="74.8455655">10</text><polygon fill="#cfe3f7" fill-opacity="0.5" points="98.7,79.25374000000001 98.72984100000001,79.55672000000001 98.832547,79.895295 98.99933200000001,80.207328 99.223786,80.480827 99.497285,80.70528100000001 99.809318,80.872066 100.147893,80.974772 100.450873,81.004613 121.949127,81.004613 122.252107,80.974772 122.590682,80.872066 122.902715,80.70528100000001 123.176214,80.480827 123.400668,80.207328 123.567453,79.895295 123.670159,79.55672000000001 123.7,79.25374000000001 123.7,68.755486 123.670159,68.452506 123.567453,68.11393100000001 123.400668,67.80189800000001 123.176214,67.52839900000001 122.902715,67.30394500000001 122.590682,67.13716000000001 122.252107,67.03445400000001 121.949127,67.004613 100.450873,67.004613 100.147893,67.03445400000001 99.809318,67.13716000000001 99.497285,67.30394500000001 99.223786,67.52839900000001 98.99933200000001,67.80189800000001 98.832547,68.11393100000001 98.72984100000001,68.452506 98.7,68.755486 98.7,79.25374000000001" stroke="#1f6fb2" stroke-width="0.1" /><text fill="#0a3d62" font-family="sans-serif" font-size="1.6" text-anchor="middle" x="111.2" y="74.004613">05</text><polygon fill="#cfe3f7" fill-opacity="0.5" points="124.7,79.25374000000001 124.72984100000001,79.55672000000001 124.832547,79.895295 124.99933200000001,80.207328 125.223786,80.480827 125.497285,80.70528100000001 125.809318,80.872066 126.147893,80.974772 126.450873,81.004613 147.949127,81.004613 148.252107,80.974772 148.59068200000002,80.872066 148.902715,80.70528100000001 149.17621400000002,80.480827 149.400668,80.207328 149.567453,79.895295 149.670159,79.55672000000001 149.7,79.25374000000001 149.7,68.755486 149.670159,68.452506 149.567453,68.11393100000001 149.400668,67.80189800000001 149.17621400000002,67.52839900000001 148.902715,67.30394500000001 148.59068200000002,67.13716000000001 148.252107,67.03445400000001 147.949127,67.004613 126.450873,67.004613 126.147893,67.03445400000001 125.809318,67.13716000000001 125.497285,67.30394500000001 125.223786,67.52839900000001 124.99933200000001,67.80189800000001 124.832547,68.11393100000001 124.72984100000001,68.452506 124.7,68.755486 124.7,79.25374000000001" stroke="#1f6fb2" stroke-width="0.1" /><text fill="#0a3d62" font-family="sans-serif" font-size="1.6" text-anchor="middle" x="137.2" y="74.004613">05</text><polygon fill="#cfe3f7" fill-opacity="0.5" points="43.109812000000005,123.863744 43.108270000000005,123.376063 43.12286,122.88108 43.152042,122.379229 43.194218,121.870976 43.247736,121.356801 43.310889,120.837185 43.381927000000005,120.312598 43.459058,119.783492 43.540457,119.250295 43.748646,117.916566 30.845692,112.93768 30.206584,113.371791 30.003755,113.50828 29.803425,113.640578 29.605097,113.767877 29.408291,113.889427 29.212533,114.004539 29.016683,114.112957 28.818733,114.215231 28.617676,114.31187 28.4137,114.402781 28.207108,114.487819 27.998204,114.566843 27.787293000000002,114.63972 27.574684,114.706321 27.360684,114.766522 27.145601,114.820208 26.929644,114.867289 26.712166,114.907878 26.492015000000002,114.942465 26.268762000000002,114.97154 26.04241,114.995525 25.81299,115.014853 25.580557,115.029972 25.345178,115.041346 25.106932,115.049458 24.865904,115.054806 24.622182000000002,115.05791 24.375856,115.059302 24.127012,115.059537 23.874323,115.05918 23.874323,125.059181 43.157512,125.059181 43.109812000000005,123.863744 4.638833999999999,123.863744 4.640376,123.376063 4.6257860000000015,122.88108 4.596603999999999,122.379229 4.5544280000000015,121.870976 4.500910000000001,121.356801 4.437757000000001,120.837185 4.366719,120.312598 4.289588000000002,119.783492 4.208189000000001,119.250295 4.0,117.916566 16.902954,112.93768 17.542062,113.371791 17.744891,113.50828 17.945221,113.640578 18.143549,113.767877 18.340355000000002,113.889427 18.536113,114.004539 18.731963,114.112957 18.929913,114.215231 19.13097,114.31187 19.334946000000002,114.402781 19.541538,114.487819 19.750442,114.566843 19.961353000000003,114.63972 20.173962,114.706321 20.387962,114.766522 20.603045,114.820208 20.819002,114.867289 21.03648,114.907878 21.256631,114.942465 21.479884,114.97154 21.706236,114.995525 21.935656,115.014853 22.168089000000002,115.029972 22.403468,115.041346 22.641714,115.049458 22.882742,115.054806 23.126464,115.05791 23.372790000000002,115.059302 23.621634,115.059537 23.874323,115.05918 23.874323,125.059181 4.591134,125.059181 4.638833999999999,123.863744" stroke="#1f6fb2" stroke-width="0.1" /><text fill="#0a3d62" font-family="sans-serif" font-size="1.6" text-anchor="middle" x="23.874323" y="118.9984305">03</text><polygon fill="#cfe3f7" fill-opacity="0.5" points="67.404015,119.792657 67.895505,119.88195400000001 68.387048,119.966157 68.878641,120.045265 69.370282,120.119276 69.86196699999999,120.188189 70.35369399999999,120.252003 70.84546,120.310716 71.337261,120.364328 71.829095,120.412837 72.320959,120.456243 72.812849,120.494544 73.304762,120.52774 73.796695,120.55583 74.288645,120.578813 74.780608,120.59669 75.272582,120.609459 75.764562,120.617121 76.256545,120.619674 76.748528,120.617121 77.240508,120.609459 77.732482,120.59669 78.224445,120.578813 78.716395,120.55583 79.208328,120.52774 79.700241,120.494544 80.19213099999999,120.456243 80.68399500000001,120.412837 81.175829,120.364328 81.66763,120.310716 82.159396,120.252003 82.651123,120.188189 83.142808,120.119276 83.63444899999999,120.045265 84.126042,119.966157 84.61758499999999,119.88195400000001 85.10907499999999,119.792657 85.39342400000001,119.738043 87.445146,123.15758 88.50036399999999,122.758597 86.68727200000001,112.93768 85.21345600000001,113.236053 84.741687,113.326665 84.269973,113.412368 83.79831200000001,113.493165 83.326701,113.569057 82.85513800000001,113.640046 82.38361900000001,113.706133 81.91214199999999,113.767319 81.440704,113.823606 80.969301,113.874994 80.497931,113.921485 80.026591,113.963079 79.55527699999999,113.999778 79.08398600000001,114.031582 78.61271500000001,114.058492 78.14146099999999,114.080509 77.67022,114.097632 77.19899000000001,114.109863 76.727766,114.117201 76.256545,114.119648 75.785324,114.117201 75.3141,114.109863 74.84287,114.097632 74.371629,114.080509 73.900375,114.058492 73.429104,114.031582 72.957813,113.999778 72.486499,113.963079 72.015159,113.921485 71.543789,113.874994 71.072386,113.823606 70.600948,113.767319 70.129471,113.706133 69.657952,113.640046 69.18638899999999,113.569057 68.714778,113.493165 68.243117,113.412368 67.77140299999999,113.326665 67.299634,113.236053 66.624505,113.099374 66.624505,119.639948 66.91257999999999,119.698269 67.404015,119.792657 65.844995,119.792657 65.353505,119.88195400000001 64.861962,119.966157 64.370369,120.045265 63.878727999999995,120.119276 63.387043,120.188189 62.895316,120.252003 62.403549999999996,120.310716 61.911749,120.364328 61.419915,120.412837 60.928050999999996,120.456243 60.436161,120.494544 59.944248,120.52774 59.452315,120.55583 58.960364999999996,120.578813 58.468402,120.59669 57.976428,120.609459 57.484448,120.617121 56.992464999999996,120.619674 56.500482,120.617121 56.008502,120.609459 55.516528,120.59669 55.024564999999996,120.578813 54.532615,120.55583 54.040682,120.52774 53.548769,120.494544 53.056878999999995,120.456243 52.565015,120.412837 52.073181,120.364328 51.581379999999996,120.310716 51.089614,120.252003 50.597887,120.188189 50.106201999999996,120.119276 49.614560999999995,120.045265 49.122968,119.966157 48.631425,119.88195400000001 48.139934999999994,119.792657 47.855586,119.738043 45.803864000000004,123.15758 44.748646,122.758597 46.561738,112.93768 48.035554,113.236053 48.507323,113.326665 48.979037,113.412368 49.450698,113.493165 49.922309,113.569057 50.393872,113.640046 50.865391,113.706133 51.336867999999996,113.767319 51.808306,113.823606 52.279709,113.874994 52.751079,113.921485 53.222419,113.963079 53.693733,113.999778 54.165024,114.031582 54.636295,114.058492 55.107549,114.080509 55.57879,114.097632 56.05002,114.109863 56.521243999999996,114.117201 56.992464999999996,114.119648 57.463685999999996,114.117201 57.93491,114.109863 58.40614,114.097632 58.877381,114.080509 59.348635,114.058492 59.819906,114.031582 60.291197,113.999778 60.762511,113.963079 61.233851,113.921485 61.705220999999995,113.874994 62.176624000000004,113.823606 62.648061999999996,113.767319 63.119539,113.706133 63.591058000000004,113.640046 64.06262100000001,113.569057 64.534232,113.493165 65.005893,113.412368 65.477607,113.326665 65.949376,113.236053 66.624505,113.099374 66.624505,119.639948 66.33643000000001,119.698269 65.844995,119.792657" stroke="#1f6fb2" stroke-width="0.1" /><text fill="#0a3d62" font-family="sans-serif" font-size="1.6" text-anchor="middle" x="66.624505" y="118.04763">07</text><polygon fill="#cfe3f7" fill-opacity="0.5" points="112.37654899999998,118.240222 112.90808399999999,118.311215 113.43964,118.378154 113.971216,118.441038 114.50281199999999,118.499867 115.034426,118.554641 115.56605699999999,118.60536 116.097704,118.652022 116.62936499999999,118.694627 117.16103899999999,118.733176 117.692725,118.767668 118.22442199999999,118.798103 118.75612799999999,118.82448 119.28784199999998,118.8468 119.81956199999999,118.865062 120.35128799999998,118.879265 120.88301799999999,118.889411 121.41475,118.895498 121.946484,118.897527 122.478218,118.895498 123.00994999999999,118.889411 123.54167999999999,118.879265 124.07340599999999,118.865062 124.60512599999998,118.8468 125.13683999999999,118.82448 125.66854599999999,118.798103 126.20024299999999,118.767668 126.731929,118.733176 127.26360299999999,118.694627 127.79526399999999,118.652022 128.326911,118.60536 128.858542,118.554641 129.390156,118.499867 129.921752,118.441038 130.453328,118.378154 130.984884,118.311215 131.51641899999998,118.240222 132.04793,118.165176 133.42852399999998,117.959708 133.42852399999998,112.93768 131.76091399999999,113.185864 131.24422099999998,113.258818 130.727552,113.327825 130.21090399999997,113.392886 129.694276,113.454002 129.17766799999998,113.511173 128.66107799999997,113.564399 128.14450499999998,113.61368 127.62794799999999,113.659018 127.11140499999999,113.700413 126.59487499999999,113.737864 126.07835699999998,113.771372 125.56184999999999,113.800937 125.045352,113.82656 124.52886199999999,113.84824 124.01237799999998,113.865978 123.49589999999999,113.879775 122.97942599999999,113.889629 122.462954,113.895542 121.946484,113.897513 121.43001399999999,113.895542 120.91354199999999,113.889629 120.39706799999999,113.879775 119.88058999999998,113.865978 119.36410599999999,113.84824 118.84761599999999,113.82656 118.33111799999999,113.800937 117.81461099999999,113.771372 117.298093,113.737864 116.78156299999999,113.700413 116.26501999999999,113.659018 115.74846299999999,113.61368 115.23188999999999,113.564399 114.71529999999998,113.511173 114.198692,113.454002 113.682064,113.392886 113.165416,113.327825 112.64874699999999,113.258818 112.13205399999998,113.185864 111.46444399999999,113.086506 111.46444399999999,118.108534 111.84503799999999,118.165176 112.37654899999998,118.240222 110.55233899999999,118.240222 110.020804,118.311215 109.48924799999999,118.378154 108.95767199999999,118.441038 108.426076,118.499867 107.89446199999999,118.554641 107.36283099999999,118.60536 106.831184,118.652022 106.299523,118.694627 105.76784899999998,118.733176 105.23616299999999,118.767668 104.704466,118.798103 104.17275999999998,118.82448 103.64104599999999,118.8468 103.109326,118.865062 102.57759999999999,118.879265 102.04587,118.889411 101.51413799999999,118.895498 100.98240399999999,118.897527 100.45066999999999,118.895498 99.918938,118.889411 99.38720799999999,118.879265 98.855482,118.865062 98.32376199999999,118.8468 97.792048,118.82448 97.260342,118.798103 96.72864499999999,118.767668 96.19695899999999,118.733176 95.66528499999998,118.694627 95.133624,118.652022 94.60197699999999,118.60536 94.07034599999999,118.554641 93.53873199999998,118.499867 93.00713599999999,118.441038 92.47555999999999,118.378154 91.94400399999999,118.311215 91.41246899999999,118.240222 90.88095799999999,118.165176 89.50036399999999,117.959708 89.50036399999999,112.93768 91.16797399999999,113.185864 91.68466699999999,113.258818 92.201336,113.327825 92.71798399999999,113.392886 93.234612,113.454002 93.75121999999999,113.511173 94.26781,113.564399 94.78438299999999,113.61368 95.30094,113.659018 95.817483,113.700413 96.33401299999998,113.737864 96.85053099999999,113.771372 97.367038,113.800937 97.88353599999999,113.82656 98.400026,113.84824 98.91650999999999,113.865978 99.432988,113.879775 99.94946199999998,113.889629 100.46593399999999,113.895542 100.98240399999999,113.897513 101.49887399999999,113.895542 102.015346,113.889629 102.53181999999998,113.879775 103.04829799999999,113.865978 103.564782,113.84824 104.08127199999998,113.82656 104.59777,113.800937 105.11427699999999,113.771372 105.63079499999999,113.737864 106.147325,113.700413 106.663868,113.659018 107.18042499999999,113.61368 107.696998,113.564399 108.21358799999999,113.511173 108.73019599999999,113.454002 109.24682399999999,113.392886 109.763472,113.327825 110.28014099999999,113.258818 110.79683399999999,113.185864 111.46444399999999,113.086506 111.46444399999999,118.108534 111.08384999999998,118.165176 110.55233899999999,118.240222" stroke="#1f6fb2" stroke-width="0.1" /><text fill="#0a3d62" font-family="sans-serif" font-size="1.6" text-anchor="middle" x="111.46444399999999" y="115.9176035">08</text><polygon fill="#cfe3f7" fill-opacity="0.5" points="134.42852399999998,116.586807 134.45067899999998,116.81175 134.530622,117.075288 134.660443,117.318166 134.835153,117.531051 135.048038,117.705761 135.29091599999998,117.835582 135.554454,117.915525 135.779397,117.93768 147.07765099999997,117.93768 147.30259399999997,117.915525 147.56613199999998,117.835582 147.80900999999997,117.705761 148.02189499999997,117.531051 148.19660499999998,117.318166 148.32642599999997,117.075288 148.40636899999998,116.81175 148.42852399999998,116.586807 148.42852399999998,114.28855300000001 148.40636899999998,114.06361 148.32642599999997,113.800072 148.19660499999998,113.557194 148.02189499999997,113.344309 147.80900999999997,113.169599 147.56613199999998,113.039778 147.30259399999997,112.959835 147.07765099999997,112.93768 135.779397,112.93768 135.554454,112.959835 135.29091599999998,113.039778 135.048038,113.169599 134.835153,113.344309 134.660443,113.557194 134.530622,113.800072 134.45067899999998,114.06361 134.42852399999998,114.28855300000001 134.42852399999998,116.586807" stroke="#1f6fb2" stroke-width="0.1" /><text fill="#0a3d62" font-family="sans-serif" font-size="1.6" text-anchor="middle" x="141.42852399999998" y="115.43768">06</text><polygon fill="#cfe3f7" fill-opacity="0.5" points="4.0,129.708308 4.022155,129.93325099999998 4.102098,130.196789 4.2319189999999995,130.439667 4.406629,130.652552 4.619514,130.827262 4.862392,130.95708299999998 5.12593,131.037026 5.350873,131.059181 16.649127,131.059181 16.87407,131.037026 17.137608,130.95708299999998 17.380485999999998,130.827262 17.593370999999998,130.652552 17.768081000000002,130.439667 17.897902000000002,130.196789 17.977845000000002,129.93325099999998 18.0,129.708308 18.0,127.410054 17.977845000000002,127.18511099999999 17.897902000000002,126.921573 17.768081000000002,126.67869499999999 17.593370999999998,126.46580999999999 17.380485999999998,126.2911 17.137608,126.161279 16.87407,126.081336 16.649127,126.059181 5.350873,126.059181 5.12593,126.081336 4.862392,126.161279 4.619514,126.2911 4.406629,126.46580999999999 4.2319189999999995,126.67869499999999 4.102098,126.921573 4.022155,127.18511099999999 4.0,127.410054 4.0,129.708308" stroke="#1f6fb2" stroke-width="0.1" /><text fill="#0a3d62" font-family="sans-serif" font-size="1.6" text-anchor="middle" x="11.0" y="128.559181">06</text></svg>