<?xml version="1.0" encoding="utf-8" ?>
<svg baseProfile="full" height="150.233067cm" version="1.1" viewBox="0 0 147.4806672311272 150.233067" width="147.4806672311272cm" xmlns="http://www.w3.org/2000/svg" xmlns:ev="http://www.w3.org/2001/xml-events" xmlns:xlink="http://www.w3.org/1999/xlink"><defs /><g fill="none" id="CONSTRUCCION" stroke="#888888" stroke-width="0.08"><line x1="5.7" x2="5.7" y1="13.633067" y2="72.233067" /><line x1="131.07679184148637" x2="131.07679184148637" y1="64.233067" y2="52.233067" /><line x1="4.0" x2="27.0" y1="84.233067" y2="84.233067" /><line x1="120.0281600046624" x2="132.0281600046624" y1="85.453067" y2="85.453067" /></g><g fill="none" id="CORTE" stroke="#d00000" stroke-width="0.08"><polygon points="3.0,73.233067 40.940748000000006,73.233067 30.6224,25.768666 30.100068,25.171653999999997 29.746677,24.768483 29.390684,24.363836 29.03155,23.957849 28.668433,23.550319 28.300496,23.141047999999998 27.926906,22.729844999999997 27.546843,22.316536 27.160414,21.901911 26.771075,21.488083 26.384597,21.076037 26.005541,20.665301 25.638339,20.255467 25.287416999999998,19.846346999999998 24.957145,19.437973 24.651775999999998,19.030609 24.375339999999998,18.624724 24.131521,18.22094 23.923496,17.819888 23.753785999999998,17.421923 23.623387,17.024288 23.5304,16.618925 23.471646,16.199514999999998 23.445508,15.764596000000001 23.450623999999998,15.313914 23.485547999999998,14.847847 23.54861,14.367222 23.63787,13.873137 23.751132,13.366815 23.885973,12.849511 24.039794999999998,12.32245 24.209865,11.78679 24.393345999999998,11.243606999999999 24.587334,10.693886 24.788868,10.138521 25.320404,8.693617 12.274689,3.0 11.604548000000001,3.893731 11.408809,4.155346 11.212994,4.41821 11.017382000000001,4.682529 10.822256,4.948513 10.6279,5.216374999999999 10.434603,5.486328 10.242656,5.758584 10.052355,6.03336 9.863996,6.310871 9.677882,6.5913319999999995 9.494319,6.87496 9.313614999999999,7.161969 9.136242,7.452314 8.963303,7.744457 8.795078,8.035989 8.630749999999999,8.325658 8.469275,8.612676 8.309653,8.896266 8.150927,9.17566 7.992184,9.450102000000001 7.832553,9.718852 7.671203,9.98119 7.507341,10.236425 7.340206,10.483908 7.169058,10.723041 6.993161,10.953306000000001 6.810869,11.175367 6.619404,11.392209 6.41765,11.606558 6.206278,11.819252 5.986212,12.030951 5.7584420000000005,12.242343 5.524011,12.454155 5.322425,12.633067 3.0,12.633067 3.0,73.233067" /><polygon points="70.637284,15.837131999999999 70.24488,15.245092000000001 69.956334,14.809477 69.667847,14.373410999999999 69.379368,13.936547 69.090845,13.498539 68.802226,13.059039 68.51346000000001,12.617700999999999 68.224504,12.174194000000002 67.93574600000001,11.728803000000001 67.64897900000001,11.282579 67.366721,10.836119000000002 67.091082,10.389370999999999 66.824129,9.942289 66.567903,9.494872 66.324413,9.04716 66.09562,8.599225 65.88343,8.151163 65.689674,7.703075 65.516095,7.255049 65.36434200000001,6.807123000000001 65.235945,6.359195 65.131893,5.909307 65.051451,5.453526 64.992833,4.989656 64.954642,4.517631 64.903386,3.233067 45.7,3.233067 45.7,63.233067 80.94074800000001,63.233067 70.637284,15.837131999999999" /><polygon points="104.935489,14.03763 104.933947,13.549949 104.948537,13.054966 104.97771900000001,12.553115 105.019895,12.044862 105.073413,11.530687 105.136566,11.011071 105.207604,10.486484 105.284735,9.957378 105.366134,9.424181 105.574323,8.090451999999999 92.671369,3.111566 92.032261,3.545677 91.829432,3.682166 91.629102,3.814464 91.430774,3.941763 91.233968,4.063313 91.03821,4.178425 90.84236,4.286843 90.64441000000001,4.389117 90.443353,4.485756 90.239377,4.5766670000000005 90.032785,4.6617049999999995 89.823881,4.740729 89.61297,4.813606 89.400361,4.880207 89.186361,4.940408 88.971278,4.9940940000000005 88.75532100000001,5.041175 88.53784300000001,5.081764 88.31769200000001,5.116351 88.09443900000001,5.1454260000000005 87.868087,5.169411 87.638667,5.188739 87.406234,5.203858 87.170855,5.215232 86.932609,5.223344 86.691581,5.228692 86.44785900000001,5.231796 86.201533,5.233188 85.952689,5.233423 85.7,5.233066 85.7,15.233067 104.98318900000001,15.233067 104.935489,14.03763" /><polygon points="114.03946223112722,65.233067 139.86816623112722,65.233067 144.4806672311272,13.788077 143.7743242311272,13.003444 143.3535172311272,12.541302 142.9240412311272,12.08029 142.48384423112722,11.623693 142.0331702311272,11.175854 141.5742482311272,10.738514 141.1080732311272,10.311159 140.63526523112722,9.892911999999999 140.1564332311272,9.482893 139.6721722311272,9.080221 139.1830672311272,8.684015 138.68969423112722,8.293397 138.1926142311272,7.90749 137.69172123112722,7.52492 137.1849822311272,7.144209 136.6699022311272,6.766713 136.1453432311272,6.39535 135.6103282311272,6.033246 135.06382523112723,5.683583 134.5047682311272,5.349617 133.93207323112722,5.034704 133.3446772311272,4.742311 132.7415862311272,4.476044 132.12345523112722,4.240216 131.49537423112722,4.038069999999999 130.8630832311272,3.867045 130.22883123112723,3.722565 129.5941622311272,3.599996 128.9604952311272,3.494836 128.32917923112723,3.402726 127.70154723112721,3.3194489999999996 126.98004923112721,3.228454 126.2448882311272,3.282394 125.60414223112721,3.3334159999999997 124.95957223112721,3.392859 124.3123252311272,3.464892 123.66355223112721,3.553823 123.01445023112721,3.664097 122.36632123112722,3.800294 121.72073223112722,3.96709 121.08187023112721,4.168336 120.45560423112721,4.403259 119.8442392311272,4.667606 119.24718123112721,4.9578679999999995 118.66359923112721,5.270708 118.09261123112721,5.602901 117.53331923112721,5.951326 116.98483823112721,6.312943 116.44631723112721,6.6847769999999995 115.91694123112721,7.063905 115.3951222311272,7.448054 114.87790423112722,7.837747 114.3646762311272,8.236213 113.85727623112722,8.645638 113.35791823112721,9.068000999999999 112.86887323112721,9.505317999999999 112.3924872311272,9.95963 111.93119923112721,10.432979 111.48755823112721,10.927378000000001 111.0647232311272,11.444177999999999 110.66837023112721,11.979436 110.29859923112721,12.522652 109.94940123112721,13.065848 109.43592523112721,13.888062 114.03946223112722,65.233067" /><polygon points="3.0,89.482194 3.0298410000000002,89.78517400000001 3.132547,90.123749 3.299332,90.435782 3.5237860000000003,90.709281 3.7972850000000005,90.93373500000001 4.109318,91.10052 4.4478930000000005,91.203226 4.750873,91.233067 26.249127,91.233067 26.552107,91.203226 26.890682,91.10052 27.202715,90.93373500000001 27.476214,90.709281 27.700668,90.435782 27.867453,90.123749 27.970159,89.78517400000001 28.0,89.482194 28.0,78.98394 27.970159,78.68096 27.867453,78.34238500000001 27.700668,78.03035200000001 27.476214,77.756853 27.202715,77.53239900000001 26.890682,77.36561400000001 26.552107,77.26290800000001 26.249127,77.233067 4.750873,77.233067 4.4478930000000005,77.26290800000001 4.109318,77.36561400000001 3.7972850000000005,77.53239900000001 3.5237860000000003,77.756853 3.299332,78.03035200000001 3.132547,78.34238500000001 3.0298410000000002,78.68096 3.0,78.98394 3.0,89.482194" /><polygon points="32.0,80.882194 32.022155,81.10713700000001 32.102098,81.370675 32.231919000000005,81.61355300000001 32.406628999999995,81.82643800000001 32.619513999999995,82.001148 32.862392,82.13096900000001 33.12593,82.21091200000001 33.350873,82.233067 44.649127,82.233067 44.87407,82.21091200000001 45.137608,82.13096900000001 45.380486,82.001148 45.593371,81.82643800000001 45.768081,81.61355300000001 45.897902,81.370675 45.977845,81.10713700000001 46.0,80.882194 46.0,78.58394000000001 45.977845,78.358997 45.897902,78.095459 45.768081,77.852581 45.593371,77.639696 45.380486,77.46498600000001 45.137608,77.335165 44.87407,77.255222 44.649127,77.233067 33.350873,77.233067 33.12593,77.255222 32.862392,77.335165 32.619513999999995,77.46498600000001 32.406628999999995,77.639696 32.231919000000005,77.852581 32.102098,78.095459 32.022155,78.358997 32.0,78.58394000000001 32.0,80.882194" /><polygon points="51.77951,83.906063 52.271,83.99536 52.762543,84.07956300000001 53.254136,84.158671 53.745777,84.23268200000001 54.237462,84.301595 54.729189,84.365409 55.220955000000004,84.42412200000001 55.712756,84.477734 56.204589999999996,84.52624300000001 56.696454,84.569649 57.188344,84.60795 57.680257,84.641146 58.17219,84.66923600000001 58.66414,84.69221900000001 59.156103,84.71009600000001 59.648077,84.72286500000001 60.140057,84.73052700000001 60.63204,84.73308 61.124023,84.73052700000001 61.616003,84.72286500000001 62.107977,84.71009600000001 62.599940000000004,84.69221900000001 63.09189,84.66923600000001 63.583823,84.641146 64.075736,84.60795 64.567626,84.569649 65.05949,84.52624300000001 65.551324,84.477734 66.043125,84.42412200000001 66.534891,84.365409 67.026618,84.301595 67.518303,84.23268200000001 68.009944,84.158671 68.501537,84.07956300000001 68.99307999999999,83.99536 69.48457,83.906063 69.768919,83.851449 71.820641,87.27098600000001 72.87585899999999,86.872003 71.06276700000001,77.05108600000001 69.58895100000001,77.34945900000001 69.117182,77.440071 68.645468,77.52577400000001 68.173807,77.606571 67.702196,77.682463 67.230633,77.75345200000001 66.759114,77.819539 66.287637,77.88072500000001 65.816199,77.93701200000001 65.344796,77.9884 64.873426,78.034891 64.402086,78.076485 63.930772,78.113184 63.459481,78.14498800000001 62.98821,78.171898 62.516956,78.193915 62.045715,78.211038 61.574484999999996,78.223269 61.103261,78.230607 60.63204,78.23305400000001 60.160819000000004,78.230607 59.689595,78.223269 59.218365,78.211038 58.747124,78.193915 58.27587,78.171898 57.804598999999996,78.14498800000001 57.333308,78.113184 56.861994,78.076485 56.390654,78.034891 55.919284,77.9884 55.447881,77.93701200000001 54.976443,77.88072500000001 54.504966,77.819539 54.033447,77.75345200000001 53.561884,77.682463 53.090272999999996,77.606571 52.618612,77.52577400000001 52.146898,77.440071 51.675129,77.34945900000001 51.0,77.21278000000001 51.0,83.753354 51.288075,83.81167500000001 51.77951,83.906063" /><polygon points="78.3761850023312,82.375769 78.9077200023312,82.446762 79.4392760023312,82.51370100000001 79.9708520023312,82.57658500000001 80.5024480023312,82.63541400000001 81.0340620023312,82.690188 81.5656930023312,82.740907 82.09734000233121,82.787569 82.6290010023312,82.830174 83.1606750023312,82.868723 83.6923610023312,82.903215 84.2240580023312,82.93365 84.7557640023312,82.96002700000001 85.2874780023312,82.982347 85.8191980023312,83.00060900000001 86.3509240023312,83.014812 86.88265400233121,83.024958 87.4143860023312,83.031045 87.9461200023312,83.033074 88.4778540023312,83.031045 89.0095860023312,83.024958 89.5413160023312,83.014812 90.0730420023312,83.00060900000001 90.6047620023312,82.982347 91.13647600233121,82.96002700000001 91.6681820023312,82.93365 92.1998790023312,82.903215 92.7315650023312,82.868723 93.2632390023312,82.830174 93.7949000023312,82.787569 94.3265470023312,82.740907 94.8581780023312,82.690188 95.3897920023312,82.63541400000001 95.9213880023312,82.57658500000001 96.4529640023312,82.51370100000001 96.98452000233121,82.446762 97.5160550023312,82.375769 98.0475660023312,82.300723 99.4281600023312,82.09525500000001 99.4281600023312,77.073227 97.7605500023312,77.32141100000001 97.2438570023312,77.39436500000001 96.7271880023312,77.463372 96.2105400023312,77.528433 95.6939120023312,77.589549 95.1773040023312,77.64672 94.6607140023312,77.69994600000001 94.1441410023312,77.749227 93.6275840023312,77.794565 93.1110410023312,77.83596 92.5945110023312,77.873411 92.0779930023312,77.906919 91.56148600233121,77.93648400000001 91.0449880023312,77.962107 90.5284980023312,77.983787 90.0120140023312,78.001525 89.4955360023312,78.01532200000001 88.9790620023312,78.025176 88.4625900023312,78.03108900000001 87.9461200023312,78.03306 87.4296500023312,78.03108900000001 86.9131780023312,78.025176 86.3967040023312,78.01532200000001 85.8802260023312,78.001525 85.36374200233121,77.983787 84.8472520023312,77.962107 84.3307540023312,77.93648400000001 83.8142470023312,77.906919 83.2977290023312,77.873411 82.7811990023312,77.83596 82.26465600233121,77.794565 81.7480990023312,77.749227 81.23152600233121,77.69994600000001 80.7149360023312,77.64672 80.1983280023312,77.589549 79.6817000023312,77.528433 79.1650520023312,77.463372 78.6483830023312,77.39436500000001 78.1316900023312,77.32141100000001 77.4640800023312,77.222053 77.4640800023312,82.24408100000001 77.8446740023312,82.300723 78.3761850023312,82.375769" /><polygon points="103.4281600046624,147.233067 111.4353800046624,147.233067 111.02933700466241,90.793135 115.2530820046624,78.22749400000001 112.72882100466241,76.96536300000001 112.03270800466241,77.893731 111.83696900466241,78.15534600000001 111.64115400466241,78.41821 111.4455420046624,78.682529 111.25041600466241,78.948513 111.0560600046624,79.216375 110.86276300466241,79.486328 110.6708160046624,79.758584 110.48051500466241,80.03336 110.2921560046624,80.310871 110.1060420046624,80.59133200000001 109.9224790046624,80.87496 109.7417750046624,81.161969 109.56440200466241,81.452314 109.3914630046624,81.74445700000001 109.2232380046624,82.035989 109.05891000466241,82.325658 108.8974350046624,82.61267600000001 108.7378130046624,82.89626600000001 108.5790870046624,83.17566000000001 108.42034400466241,83.450102 108.2607130046624,83.718852 108.09936300466241,83.98119 107.9355010046624,84.23642500000001 107.76836600466241,84.483908 107.59721800466241,84.72304100000001 107.4213210046624,84.95330600000001 107.2390290046624,85.17536700000001 107.0475640046624,85.39220900000001 106.84581000466241,85.606558 106.6344380046624,85.819252 106.41437200466241,86.030951 106.1866020046624,86.242343 105.9521710046624,86.454155 105.75058500466241,86.63306700000001 103.4281600046624,86.63306700000001 103.4281600046624,147.233067" /><polygon points="119.0281600046624,88.50497200000001 126.0281600046624,92.914972 133.0281600046624,88.50497200000001 133.0281600046624,77.233067 119.0281600046624,77.233067 119.0281600046624,88.50497200000001" /></g><g fill="none" id="COSTURA" stroke="#00a000" stroke-width="0.08"><polygon points="4.0,13.633067 5.7,13.633067 5.946137211430921,13.416556070671316 6.1911230351686255,13.199125943868006 6.433806083519894,12.97985742211545 6.673034968791513,12.757831307939018 6.907658303290262,12.53212840386409 7.136524699322925,12.30182951241604 7.358482769196286,12.066015436120248 7.5723811252171265,11.823766977502084 7.777197617466955,11.574267191163548 7.973182834463885,11.317706113979522 8.161311146615965,11.054846434291722 8.342565282091677,10.786457453046896 8.517927969059487,10.513308471191783 8.688381935687879,10.236168789673126 8.854909910145325,9.955807709437675 9.018494620600304,9.67299453143217 9.180118795221286,9.388498556603356 9.340765162176753,9.103089085897977 9.501416449635176,8.817535420262777 9.663055385765034,8.532606860644501 9.826664698734799,8.249072707989892 9.993226961401806,7.967702142964255 10.16345393201771,7.689054612599036 10.337230036760209,7.413048832744115 10.514282265311873,7.139481591821779 10.694337607355273,6.86814967825431 10.877123052572978,6.598849880463993 11.062365590647557,6.331378986873115 11.24979221126158,6.065533785903957 11.439129904097616,5.801111065978808 11.630105658838232,5.53790761551995 11.822446465166006,5.275720222949668 12.015879312763497,5.0143456766902474 12.21013119131328,4.7535807651639725 12.404929090497925,4.493222276793128 12.6,4.233067 24.0564392373896,9.233067 23.84959802771455,9.795334580940363 23.645801650517317,10.356933169710793 23.4480949382757,10.917193774141342 23.25952272346752,11.475447402062086 23.08312983857059,12.031025061303078 22.92196111606271,12.583257759694389 22.779061388421706,13.131476505066075 22.657475488125385,13.675012305248204 22.560248247651558,14.213196168070835 22.49042449947803,14.745359101364034 22.451049076082626,15.270832112957864 22.445166809943142,15.788946210682386 22.4758225335374,16.299032402367665 22.54606107934321,16.80042169584376 22.658927279838384,17.29244509894074 22.817015777873205,17.77451462039634 23.018439554671197,18.246848637281662 23.25874127090857,18.71012799466933 23.533433110351083,19.16503902122656 23.838027256764505,19.61226804562056 24.168035893914595,20.052501396518547 24.518971205567123,20.486425402587745 24.886345375487853,20.91472639249535 25.265670587442546,21.338090694908598 25.652459025196965,21.75720463849469 26.04222287251688,22.172754551920843 26.43047431316805,22.585426763854276 26.813017247128172,22.995882540544653 27.188779993915375,23.40451471781536 27.558586779631288,23.811553247150556 27.923288455857527,24.217225792541026 28.283735874175697,24.62176001797755 28.64077988616742,25.025383587450918 28.9952713434143,25.42832416495193 29.348061097497954,25.830809414471354 29.7,26.233067 39.7,72.233067 4.0,72.233067" /><polygon points="45.7,4.233067 63.94249141613643,4.233067 63.95625133756502,4.5779132703500505 63.99790344158414,5.092716994128569 64.06241306962703,5.603204386473422 64.15168501536235,6.10901575309847 64.26750927300081,6.609806492642356 64.40960019683118,7.105504892464548 64.57586886747531,7.596276320084238 64.76416637745514,8.082294029781549 64.97234381929262,8.563731275836616 65.19825228550965,9.040761312529574 65.4397428686282,9.513557394140543 65.69466666117019,9.98229277494966 65.96087475565754,10.447140709237045 66.2362182446122,10.908274451282841 66.5185482205561,11.365867255367169 66.80571577601117,11.82009237577016 67.09557200349936,12.271123066771947 67.38603044988297,12.719137438993469 67.67613080533738,13.164401169999925 67.96588949611586,13.607255886654121 68.25535533145786,14.048045733863534 68.54457712060278,14.487114856535614 68.83360367279005,14.924807399577839 69.12248379725906,15.36146750789767 69.41126630324923,15.797439326402566 69.7,16.233067 79.7,62.233067 45.7,62.233067" /><polygon points="85.7,6.233067 85.95245430921342,6.233423362819071 86.20483086291524,6.233185589548962 86.45705190559389,6.231759544100493 86.70903968173775,6.228551090384485 86.96071643583527,6.222966092311758 87.21200441237482,6.21441041379313 87.46282585584484,6.2022899187394245 87.71310301073372,6.18601047106146 87.96275812152987,6.1649779346700555 88.21171343272172,6.1385981734760335 88.45989118879767,6.1062770513902125 88.70721363424613,6.067420432323413 88.95360257343721,6.021435816906703 89.19891975774915,5.967954031978914 89.44290645846002,5.907053948065581 89.6852895518145,5.838867968215919 89.9257959140573,5.763528495479149 90.16415242143313,5.681167932904493 90.40008595018666,5.591918683541167 90.63332337656261,5.495913150438394 90.86359157680567,5.393283736645391 91.09061742716054,5.28416284521138 91.31412780387191,5.168682879185578 91.53389863733646,5.047021848373325 91.75020863974197,4.919825210198594 91.96363149198662,4.7880126611761415 92.17474462410257,4.652507383475511 92.384125466122,4.514232559266247 92.5923514480771,4.3741113707178965 92.8,4.233067 104.46190378969061,8.733067 104.37783951157896,9.271610546663693 104.29568002713596,9.809794399041248 104.21733013003025,10.347258862846523 104.14469461393048,10.88364424379338 104.07967827250532,11.418590847595684 104.02418589942339,11.951738979967294 103.98012228835334,12.48272894662207 103.94939223296385,13.01120105327387 103.93390052692352,13.536795605636561 103.93555196390102,14.059152909424 103.94249141613642,14.233067 85.7,14.233067" /><polygon points="110.46190378969061,14.133067 110.79412029060265,13.601097985769025 111.13265986170111,13.07448106878231 111.48384557317247,12.558568346284105 111.85399060030421,12.058703603203355 112.24707228144396,11.578268379750659 112.661734298511,11.11616362120411 113.09587934488307,10.670667797519528 113.54741011393791,10.24005937865272 114.0142292990533,9.822616834559495 114.49423959360695,9.416618635195668 114.98534369097663,9.020343250517051 115.48544428454008,8.632069150479452 115.99244406767505,8.250074805038686 116.50452008290287,7.873099052810097 117.02158256530028,7.502789097724244 117.54421667417024,7.141924693123902 118.07300909005681,6.793288145054288 118.60854649350404,6.459661759560624 119.151415565056,6.143827842688129 119.70220298525676,5.848568700482024 120.26149543465036,5.576666638987529 120.82987959378087,5.330903964249865 121.40794214319236,5.114062982314252 121.996221611122,4.928750228471964 122.59433814198778,4.774219854155839 123.2010876915075,4.646717468142565 123.81523697130204,4.542381929246023 124.43555269299226,4.457352096280088 125.06080156819903,4.38776682805864 125.6897503085432,4.329764983395557 126.32116562564563,4.2794854211047175 126.95381423112721,4.233067 127.5732154165973,4.311185854731644 128.1912211806063,4.393185375692934 128.8064361016932,4.482946229113522 129.41746475839693,4.5843490812230545 130.02291172925646,4.701274598251178 130.62138159281068,4.837603446427542 131.21147892759856,4.997216291981794 131.79180831215908,5.183993801143583 132.36116343653822,5.401212000570606 132.91969566990625,5.647806057197887 133.46814960016144,5.920814460580514 134.00727230078795,6.217267753197476 134.53781084526986,6.534196477527764 135.0605123070914,6.868631176050369 135.5761237597366,7.217602391244281 136.08539227668965,7.57814066558849 136.5890649314347,7.947276541561989 137.08788879745583,8.322040561643767 137.58249433656607,8.699808623983248 138.0726952347304,9.08037557989049 138.55795601311777,9.464570362779291 139.03773987758072,9.853225801488009 139.51151003397186,10.247174724854993 139.97872968814372,10.647249961718597 140.43886204594884,11.05428434091717 140.89137031323983,11.469110691289066 141.33571769586922,11.89256184167264 141.77136739968958,12.325470620906243 142.19818439132484,12.768189022952523 142.61794912571278,13.218776549199232 143.03301229133078,13.674610234768883 143.4457246725638,14.133067 138.9538142311272,64.233067 114.95381423112721,64.233067" /><polygon points="4.0,79.033067 4.015371775677416,78.8769947423871 4.060896373990971,78.72692025410794 4.134824310157963,78.58861081358432 4.234314575050762,78.46738157505077 4.355543813584319,78.36789131015797 4.493853254107928,78.29396337399098 4.643927742387097,78.24843877567743 4.800000000000001,78.233067 26.2,78.233067 26.3560722576129,78.24843877567741 26.50614674589207,78.29396337399098 26.64445618641568,78.36789131015797 26.765685424949236,78.46738157505077 26.865175689842037,78.58861081358432 26.93910362600903,78.72692025410794 26.984628224322584,78.8769947423871 27.0,79.033067 27.0,89.43306700000001 26.984628224322584,89.58913925761291 26.93910362600903,89.73921374589207 26.865175689842037,89.87752318641569 26.765685424949236,89.99875242494925 26.64445618641568,90.09824268984204 26.50614674589207,90.17217062600903 26.3560722576129,90.2176952243226 26.2,90.233067 4.800000000000001,90.233067 4.643927742387097,90.2176952243226 4.493853254107929,90.17217062600903 4.355543813584319,90.09824268984204 4.234314575050762,89.99875242494925 4.134824310157963,89.87752318641569 4.060896373990971,89.73921374589207 4.015371775677416,89.58913925761291 4.0,89.43306700000001" /><polygon points="33.0,78.63306700000001 33.007685887838704,78.55503087119355 33.030448186995486,78.47999362705397 33.06741215507898,78.41083890679216 33.11715728752538,78.35022428752539 33.17777190679216,78.30047915507899 33.246926627053966,78.26351518699549 33.321963871193546,78.24075288783871 33.4,78.233067 44.6,78.233067 44.678036128806454,78.24075288783871 44.753073372946034,78.26351518699549 44.82222809320784,78.30047915507899 44.88284271247462,78.35022428752539 44.93258784492102,78.41083890679216 44.969551813004514,78.47999362705397 44.992314112161296,78.55503087119355 45.0,78.63306700000001 45.0,80.833067 44.992314112161296,80.91110312880646 44.969551813004514,80.98614037294604 44.93258784492102,81.05529509320785 44.88284271247462,81.11590971247462 44.82222809320784,81.16565484492102 44.753073372946034,81.20261881300452 44.678036128806454,81.2253811121613 44.6,81.233067 33.4,81.233067 33.321963871193546,81.2253811121613 33.246926627053966,81.20261881300452 33.17777190679216,81.16565484492102 33.11715728752538,81.11590971247462 33.06741215507898,81.05529509320785 33.030448186995486,80.98614037294604 33.007685887838704,80.91110312880646 33.0,80.833067" /><polygon points="51.0,78.233067 51.48160200005828,78.330567 51.96320400011656,78.423067 52.44480600017484,78.51056700000001 52.926408000233124,78.593067 53.4080100002914,78.670567 53.88961200034968,78.74306700000001 54.37121400040796,78.810567 54.85281600046624,78.873067 55.33441800052452,78.93056700000001 55.8160200005828,78.983067 56.297622000641084,79.030567 56.77922400069936,79.07306700000001 57.26082600075764,79.110567 57.74242800081592,79.143067 58.2240300008742,79.170567 58.70563200093248,79.193067 59.18723400099076,79.21056700000001 59.668836001049044,79.223067 60.15043800110732,79.23056700000001 60.632040001165606,79.233067 61.11364200122388,79.23056700000001 61.59524400128216,79.223067 62.07684600134044,79.21056700000001 62.55844800139872,79.193067 63.040050001457004,79.170567 63.521652001515285,79.143067 64.00325400157357,79.110567 64.48485600163184,79.07306700000001 64.96645800169011,79.030567 65.4480600017484,78.983067 65.92966200180669,78.93056700000001 66.41126400186496,78.873067 66.89286600192324,78.810567 67.37446800198153,78.74306700000001 67.8560700020398,78.670567 68.33767200209809,78.593067 68.81927400215636,78.51056700000001 69.30087600221464,78.423067 69.78247800227292,78.330567 70.26408000233121,78.233067 71.4640800023312,84.733067 70.26408000233121,82.733067 69.78247800227292,82.830567 69.30087600221464,82.923067 68.81927400215636,83.01056700000001 68.33767200209809,83.093067 67.8560700020398,83.170567 67.37446800198153,83.24306700000001 66.89286600192324,83.310567 66.41126400186496,83.373067 65.92966200180669,83.43056700000001 65.4480600017484,83.483067 64.96645800169011,83.530567 64.48485600163184,83.57306700000001 64.00325400157357,83.610567 63.521652001515285,83.643067 63.040050001457004,83.670567 62.55844800139872,83.693067 62.07684600134044,83.71056700000001 61.59524400128216,83.723067 61.11364200122388,83.73056700000001 60.632040001165606,83.733067 60.15043800110732,83.73056700000001 59.668836001049044,83.723067 59.18723400099076,83.71056700000001 58.70563200093248,83.693067 58.2240300008742,83.670567 57.74242800081592,83.643067 57.26082600075764,83.610567 56.77922400069936,83.57306700000001 56.297622000641084,83.530567 55.8160200005828,83.483067 55.33441800052452,83.43056700000001 54.85281600046624,83.373067 54.37121400040796,83.310567 53.88961200034968,83.24306700000001 53.4080100002914,83.170567 52.926408000233124,83.093067 52.44480600017484,83.01056700000001 51.96320400011656,82.923067 51.48160200005828,82.830567 51.0,82.733067" /><polygon points="77.4640800023312,78.233067 77.98818200238948,78.31106700000001 78.51228400244776,78.385067 79.03638600250603,78.455067 79.56048800256433,78.521067 80.0845900026226,78.583067 80.60869200268088,78.641067 81.13279400273916,78.69506700000001 81.65689600279744,78.745067 82.18099800285572,78.79106700000001 82.70510000291401,78.833067 83.22920200297229,78.87106700000001 83.75330400303056,78.905067 84.27740600308884,78.935067 84.80150800314712,78.961067 85.3256100032054,78.983067 85.84971200326368,79.001067 86.37381400332197,79.015067 86.89791600338025,79.025067 87.42201800343852,79.03106700000001 87.9461200034968,79.033067 88.47022200355508,79.03106700000001 88.99432400361337,79.025067 89.51842600367164,79.015067 90.04252800372993,79.001067 90.5666300037882,78.983067 91.09073200384648,78.961067 91.61483400390476,78.935067 92.13893600396304,78.905067 92.66303800402133,78.87106700000001 93.18714000407961,78.833067 93.71124200413789,78.79106700000001 94.23534400419616,78.745067 94.75944600425444,78.69506700000001 95.28354800431272,78.641067 95.807650004371,78.583067 96.33175200442929,78.521067 96.85585400448757,78.455067 97.37995600454585,78.385067 97.90405800460412,78.31106700000001 98.4281600046624,78.233067 98.4281600046624,81.233067 97.90405800460412,81.31106700000001 97.37995600454585,81.385067 96.85585400448757,81.455067 96.33175200442929,81.521067 95.807650004371,81.583067 95.28354800431272,81.641067 94.75944600425444,81.69506700000001 94.23534400419616,81.745067 93.71124200413789,81.791067 93.18714000407961,81.833067 92.66303800402133,81.87106700000001 92.13893600396304,81.905067 91.61483400390476,81.935067 91.09073200384648,81.961067 90.5666300037882,81.983067 90.04252800372993,82.001067 89.51842600367164,82.015067 88.99432400361337,82.025067 88.47022200355508,82.03106700000001 87.9461200034968,82.033067 87.42201800343852,82.03106700000001 86.89791600338025,82.025067 86.37381400332197,82.015067 85.84971200326368,82.001067 85.3256100032054,81.983067 84.80150800314712,81.961067 84.27740600308884,81.935067 83.75330400303056,81.905067 83.22920200297229,81.87106700000001 82.70510000291401,81.833067 82.18099800285572,81.791067 81.65689600279744,81.745067 81.13279400273916,81.69506700000001 80.60869200268088,81.641067 80.0845900026226,81.583067 79.56048800256433,81.521067 79.03638600250603,81.455067 78.51228400244776,81.385067 77.98818200238948,81.31106700000001 77.4640800023312,81.233067" /><polygon points="104.4281600046624,87.63306700000001 106.1281600046624,87.63306700000001 106.37429721609332,87.41655607067132 106.61928303983103,87.19912594386801 106.8619660881823,86.97985742211546 107.10119497345391,86.75783130793903 107.33581830795266,86.53212840386409 107.56468470398534,86.30182951241605 107.78664277385869,86.06601543612025 108.00054112987954,85.82376697750209 108.20535762212936,85.57426719116356 108.40134283912629,85.31770611397953 108.58947115127837,85.05484643429173 108.77072528675409,84.7864574530469 108.94608797372189,84.51330847119179 109.11654194035029,84.23616878967313 109.28306991480773,83.95580770943768 109.44665462526271,83.67299453143218 109.60827879988369,83.38849855660337 109.76892516683915,83.10308908589798 109.92957645429757,82.81753542026279 110.09121539042744,82.5326068606445 110.2548247033972,82.2490727079899 110.4213869660642,81.96770214296426 110.59161393668012,81.68905461259904 110.76539004142262,81.41304883274412 110.94244226997428,81.13948159182178 111.12249761201768,80.86814967825431 111.30528305723539,80.598849880464 111.49052559530996,80.33137898687312 111.67795221592398,80.06553378590397 111.86728990876001,79.80111106597882 112.05826566350063,79.53790761551996 112.25060646982841,79.27572022294967 112.4440393174259,79.01434567669025 112.63829119597568,78.75358076516397 112.83308909516033,78.49322227679313 113.02816000466241,78.233067 114.02816000466241,78.733067 110.02816000466241,90.63306700000001 110.4281600046624,146.233067 104.4281600046624,146.233067" /><polygon points="120.0281600046624,78.233067 132.0281600046624,78.233067 132.0281600046624,87.953067 126.0281600046624,91.733067 120.0281600046624,87.953067" /></g><g fill="none" id="PIQUETES" stroke="#00b0b0" stroke-width="0.08"><line x1="22.21538734613605" x2="22.368613767690242" y1="15.885557437204735" y2="16.513348536008866" /><line x1="22.69061608229178" x2="22.368613767690242" y1="15.953067794423674" y2="16.513348536008866" /><line x1="29.76797431954308" x2="29.12456814107438" y1="46.70289425642975" y2="46.7631312011423" /><line x1="29.63202568045692" x2="29.12456814107438" y1="47.16323974357025" y2="46.7631312011423" /><line x1="54.58401325301832" x2="54.91210144092931" y1="4.269409293144436" y2="4.826148137624755" /><line x1="55.05847816311812" x2="54.91210144092931" y1="4.196724706855563" y2="4.826148137624755" /><line x1="95.06032306347002" x2="94.76868513978756" y1="14.21204277268774" y2="13.63537361149548" /><line x1="94.58216835266641" x2="94.76868513978756" y1="14.25409122731226" y2="13.63537361149548" /><line x1="134.8132755753203" x2="134.8721152952529" y1="6.789144563438985" y2="7.432680022724836" /><line x1="135.27332478032645" x2="134.8721152952529" y1="6.926092469495347" y2="7.432680022724836" /><line x1="118.23824420365625" x2="118.64304932039887" y1="6.617467993310714" y2="7.121186979908402" /><line x1="118.69730698523884" x2="118.64304932039887" y1="6.477249012549656" y2="7.121186979908402" /><line x1="116.91239064068058" x2="117.3436232145085" y1="7.504838025251972" y2="7.986126366342583" /><line x1="117.36327434455767" x2="117.3436232145085" y1="7.340205447740476" y2="7.986126366342583" /></g><g fill="none" id="TEXTOS" stroke="#000000" stroke-width="0.08"><text fill="#000000" font-family="sans-serif" font-size="0.9" stroke="none" text-anchor="middle" x="18.516409815386037" y="40.930343484364414">DELANTERO (acampanado)</text><text fill="#000000" font-family="sans-serif" font-size="0.6" stroke="none" text-anchor="middle" x="18.516409815386037" y="42.33034348436441">Pieza N.01</text><text fill="#000000" font-family="sans-serif" font-size="0.6" stroke="none" text-anchor="middle" x="18.516409815386037" y="43.73034348436441">Talla: S</text><text fill="#000000" font-family="sans-serif" font-size="0.6" stroke="none" text-anchor="middle" x="18.516409815386037" y="45.13034348436441">Cortar: 2  (par: izq + der)</text><text fill="#000000" font-family="sans-serif" font-size="0.9" stroke="none" text-anchor="middle" x="59.67035845566516" y="32.28673611092376">ESPALDA (acampanado)</text><text fill="#000000" font-family="sans-serif" font-size="0.6" stroke="none" text-anchor="middle" x="59.67035845566516" y="33.68673611092376">Pieza N.02</text><text fill="#000000" font-family="sans-serif" font-size="0.6" stroke="none" text-anchor="middle" x="59.67035845566516" y="35.08673611092376">Talla: S</text><text fill="#000000" font-family="sans-serif" font-size="0.6" stroke="none" text-anchor="middle" x="59.67035845566516" y="36.486736110923765">Cortar: 1  (al doblez)</text><text fill="#000000" font-family="sans-serif" font-size="0.6" stroke="none" text-anchor="middle" x="59.67035845566516" y="37.88673611092376">AL DOBLEZ</text><text fill="#000000" font-family="sans-serif" font-size="0.9" stroke="none" text-anchor="middle" x="94.4579030326492" y="6.501309639616992">CANESU</text><text fill="#000000" font-family="sans-serif" font-size="0.6" stroke="none" text-anchor="middle" x="94.4579030326492" y="7.901309639616993">Pieza N.03</text><text fill="#000000" font-family="sans-serif" font-size="0.6" stroke="none" text-anchor="middle" x="94.4579030326492" y="9.301309639616992">Talla: S</text><text fill="#000000" font-family="sans-serif" font-size="0.6" stroke="none" text-anchor="middle" x="94.4579030326492" y="10.701309639616992">Cortar: 2  (al doblez x2 (exterior+interior))</text><text fill="#000000" font-family="sans-serif" font-size="0.6" stroke="none" text-anchor="middle" x="94.4579030326492" y="12.101309639616993">AL DOBLEZ</text><text fill="#000000" font-family="sans-serif" font-size="0.9" stroke="none" text-anchor="middle" x="126.90901577036908" y="31.483126315053056">MANGA</text><text fill="#000000" font-family="sans-serif" font-size="0.6" stroke="none" text-anchor="middle" x="126.90901577036908" y="32.883126315053055">Pieza N.04</text><text fill="#000000" font-family="sans-serif" font-size="0.6" stroke="none" text-anchor="middle" x="126.90901577036908" y="34.28312631505305">Talla: S</text><text fill="#000000" font-family="sans-serif" font-size="0.6" stroke="none" text-anchor="middle" x="126.90901577036908" y="35.68312631505306">Cortar: 2  (par: izq + der)</text><text fill="#000000" font-family="sans-serif" font-size="0.9" stroke="none" text-anchor="middle" x="15.500000000000004" y="81.533067">PUNO</text><text fill="#000000" font-family="sans-serif" font-size="0.6" stroke="none" text-anchor="middle" x="15.500000000000004" y="82.93306700000001">Pieza N.05</text><text fill="#000000" font-family="sans-serif" font-size="0.6" stroke="none" text-anchor="middle" x="15.500000000000004" y="84.33306700000001">Talla: S</text><text fill="#000000" font-family="sans-serif" font-size="0.6" stroke="none" text-anchor="middle" x="15.500000000000004" y="85.733067">Cortar: 4  (4 (2 tela + 2 entretela))</text><text fill="#000000" font-family="sans-serif" font-size="0.9" stroke="none" text-anchor="middle" x="39.0" y="77.033067">TAPETA MANGA</text><text fill="#000000" font-family="sans-serif" font-size="0.6" stroke="none" text-anchor="middle" x="39.0" y="78.43306700000001">Pieza N.06</text><text fill="#000000" font-family="sans-serif" font-size="0.6" stroke="none" text-anchor="middle" x="39.0" y="79.833067">Talla: S</text><text fill="#000000" font-family="sans-serif" font-size="0.6" stroke="none" text-anchor="middle" x="39.0" y="81.233067">Cortar: 2  (par)</text><text fill="#000000" font-family="sans-serif" font-size="0.9" stroke="none" text-anchor="middle" x="60.935060528670164" y="77.57198354181554">CUELLO</text><text fill="#000000" font-family="sans-serif" font-size="0.6" stroke="none" text-anchor="middle" x="60.935060528670164" y="78.97198354181555">Pieza N.07</text><text fill="#000000" font-family="sans-serif" font-size="0.6" stroke="none" text-anchor="middle" x="60.935060528670164" y="80.37198354181554">Talla: S</text><text fill="#000000" font-family="sans-serif" font-size="0.6" stroke="none" text-anchor="middle" x="60.935060528670164" y="81.77198354181554">Cortar: 2  (al doblez x2 (+ entretela))</text><text fill="#000000" font-family="sans-serif" font-size="0.6" stroke="none" text-anchor="middle" x="60.935060528670164" y="83.17198354181554">AL DOBLEZ</text><text fill="#000000" font-family="sans-serif" font-size="0.9" stroke="none" text-anchor="middle" x="87.9461200034968" y="76.66606700000001">PIE DE CUELLO</text><text fill="#000000" font-family="sans-serif" font-size="0.6" stroke="none" text-anchor="middle" x="87.9461200034968" y="78.066067">Pieza N.08</text><text fill="#000000" font-family="sans-serif" font-size="0.6" stroke="none" text-anchor="middle" x="87.9461200034968" y="79.46606700000001">Talla: S</text><text fill="#000000" font-family="sans-serif" font-size="0.6" stroke="none" text-anchor="middle" x="87.9461200034968" y="80.866067">Cortar: 2  (al doblez x2 (+ entretela))</text><text fill="#000000" font-family="sans-serif" font-size="0.6" stroke="none" text-anchor="middle" x="87.9461200034968" y="82.266067">AL DOBLEZ</text><text fill="#000000" font-family="sans-serif" font-size="0.9" stroke="none" text-anchor="middle" x="107.57837287091488" y="112.0976551491815">VISTA DELANTERA</text><text fill="#000000" font-family="sans-serif" font-size="0.6" stroke="none" text-anchor="middle" x="107.57837287091488" y="113.4976551491815">Pieza N.09</text><text fill="#000000" font-family="sans-serif" font-size="0.6" stroke="none" text-anchor="middle" x="107.57837287091488" y="114.8976551491815">Talla: S</text><text fill="#000000" font-family="sans-serif" font-size="0.6" stroke="none" text-anchor="middle" x="107.57837287091488" y="116.29765514918151">Cortar: 2  (par: izq + der)</text><text fill="#000000" font-family="sans-serif" font-size="0.9" stroke="none" text-anchor="middle" x="126.0281600046624" y="81.38934606976744">BOLSILLO</text><text fill="#000000" font-family="sans-serif" font-size="0.6" stroke="none" text-anchor="middle" x="126.0281600046624" y="82.78934606976745">Pieza N.10</text><text fill="#000000" font-family="sans-serif" font-size="0.6" stroke="none" text-anchor="middle" x="126.0281600046624" y="84.18934606976745">Talla: S</text><text fill="#000000" font-family="sans-serif" font-size="0.6" stroke="none" text-anchor="middle" x="126.0281600046624" y="85.58934606976744">Cortar: 1  (1 (opcional))</text></g><g fill="none" id="CENTROS" stroke="#0050ff" stroke-width="0.08"><circle cx="18.9" cy="29.233067" fill="#0050ff" r="0.15" /><circle cx="131.07679184148637" cy="52.233067" fill="#0050ff" r="0.15" /></g><g fill="none" id="HILO" stroke="#c0a000" stroke-width="0.08"><line x1="17.7" x2="17.7" y1="16.633067" y2="69.233067" /><line x1="17.7" x2="18.167302010770378" y1="69.233067" y2="68.12779380719654" /><line x1="17.7" x2="17.232697989229617" y1="69.233067" y2="68.12779380719654" /><line x1="17.7" x2="17.23269798922962" y1="16.633067" y2="17.738340192803463" /><line x1="17.7" x2="18.167302010770378" y1="16.633067" y2="17.738340192803463" /><line x1="46.2" x2="46.2" y1="7.233067" y2="59.233067" /><line x1="46.2" x2="46.667302010770385" y1="59.233067" y2="58.12779380719654" /><line x1="46.2" x2="45.73269798922962" y1="59.233067" y2="58.12779380719654" /><line x1="46.2" x2="45.73269798922962" y1="7.233067" y2="8.338340192803463" /><line x1="46.2" x2="46.667302010770385" y1="7.233067" y2="8.338340192803463" /><line x1="89.96000000000001" x2="89.96000000000001" y1="5.233067" y2="13.733067" /><line x1="89.96000000000001" x2="90.42730201077039" y1="13.733067" y2="12.627793807196538" /><line x1="89.96000000000001" x2="89.49269798922963" y1="13.733067" y2="12.627793807196538" /><line x1="89.96000000000001" x2="89.49269798922963" y1="5.233067" y2="6.338340192803462" /><line x1="89.96000000000001" x2="90.42730201077038" y1="5.233067" y2="6.338340192803462" /><line x1="126.95381423112721" x2="126.95381423112721" y1="8.193067" y2="62.233067" /><line x1="126.95381423112721" x2="127.4211162418976" y1="62.233067" y2="61.12779380719654" /><line x1="126.95381423112721" x2="126.48651222035683" y1="62.233067" y2="61.12779380719654" /><line x1="126.95381423112721" x2="126.48651222035683" y1="8.193067" y2="9.298340192803462" /><line x1="126.95381423112721" x2="127.4211162418976" y1="8.193067" y2="9.298340192803462" /><line x1="15.5" x2="15.5" y1="78.733067" y2="89.733067" /><line x1="15.5" x2="15.96730201077038" y1="89.733067" y2="88.62779380719654" /><line x1="15.5" x2="15.032697989229618" y1="89.733067" y2="88.62779380719654" /><line x1="15.5" x2="15.03269798922962" y1="78.733067" y2="79.83834019280347" /><line x1="15.5" x2="15.96730201077038" y1="78.733067" y2="79.83834019280347" /><line x1="39.0" x2="39.0" y1="78.63306700000001" y2="80.833067" /><line x1="39.0" x2="39.46730201077038" y1="80.833067" y2="79.72779380719655" /><line x1="39.0" x2="38.53269798922962" y1="80.833067" y2="79.72779380719655" /><line x1="39.0" x2="38.53269798922962" y1="78.63306700000001" y2="79.73834019280346" /><line x1="39.0" x2="39.46730201077038" y1="78.63306700000001" y2="79.73834019280346" /><line x1="51.5" x2="69.76408000233121" y1="78.733067" y2="78.733067" /><line x1="69.76408000233121" x2="68.65880680952775" y1="78.733067" y2="78.26576498922962" /><line x1="69.76408000233121" x2="68.65880680952775" y1="78.733067" y2="79.20036901077039" /><line x1="51.5" x2="52.60527319280346" y1="78.733067" y2="79.20036901077039" /><line x1="51.5" x2="52.60527319280346" y1="78.733067" y2="78.26576498922962" /><line x1="77.9640800023312" x2="97.9281600046624" y1="78.63306700000001" y2="78.63306700000001" /><line x1="97.9281600046624" x2="96.82288681185895" y1="78.63306700000001" y2="78.16576498922963" /><line x1="97.9281600046624" x2="96.82288681185895" y1="78.63306700000001" y2="79.10036901077038" /><line x1="77.9640800023312" x2="79.06935319513467" y1="78.63306700000001" y2="79.10036901077038" /><line x1="77.9640800023312" x2="79.06935319513467" y1="78.63306700000001" y2="78.16576498922963" /><line x1="107.4281600046624" x2="107.4281600046624" y1="92.63306700000001" y2="143.233067" /><line x1="107.4281600046624" x2="107.89546201543278" y1="143.233067" y2="142.12779380719655" /><line x1="107.4281600046624" x2="106.96085799389202" y1="143.233067" y2="142.12779380719655" /><line x1="107.4281600046624" x2="106.96085799389202" y1="92.63306700000001" y2="93.73834019280346" /><line x1="107.4281600046624" x2="107.89546201543278" y1="92.63306700000001" y2="93.73834019280346" /><line x1="126.0281600046624" x2="126.0281600046624" y1="79.233067" y2="87.953067" /><line x1="126.0281600046624" x2="126.49546201543278" y1="87.953067" y2="86.84779380719654" /><line x1="126.0281600046624" x2="125.56085799389201" y1="87.953067" y2="86.84779380719654" /><line x1="126.0281600046624" x2="125.56085799389201" y1="79.233067" y2="80.33834019280347" /><line x1="126.0281600046624" x2="126.49546201543278" y1="79.233067" y2="80.33834019280347" /></g><g fill="none" id="DOBLEZ" stroke="#c000c0" stroke-width="0.08"><line x1="45.7" x2="45.7" y1="4.233067" y2="62.233067" /><line x1="85.7" x2="85.7" y1="4.233067" y2="14.233067" /><line x1="51.0" x2="51.0" y1="78.233067" y2="84.733067" /><line x1="77.4640800023312" x2="77.4640800023312" y1="78.233067" y2="82.033067" /></g><g fill="none" id="BOTONES" stroke="#ff8000" stroke-width="0.08"><circle cx="5.7" cy="15.133067" fill="#ff8000" r="0.55" /><circle cx="5.7" cy="23.649733666666666" fill="#ff8000" r="0.55" /><circle cx="5.7" cy="32.166400333333335" fill="#ff8000" r="0.55" /><circle cx="5.7" cy="40.683067" fill="#ff8000" r="0.55" /><circle cx="5.7" cy="49.19973366666667" fill="#ff8000" r="0.55" /><circle cx="5.7" cy="57.71640033333333" fill="#ff8000" r="0.55" /><circle cx="5.7" cy="66.233067" fill="#ff8000" r="0.55" /><circle cx="5.2" cy="84.233067" fill="#ff8000" r="0.55" /><circle cx="97.4281600046624" cy="79.733067" fill="#ff8000" r="0.55" /></g><g fill="none" id="OJAL" stroke="#ff40a0" stroke-width="0.08"><line x1="4.9" x2="6.5" y1="15.133067" y2="15.133067" /><line x1="4.9" x2="6.5" y1="23.649733666666666" y2="23.649733666666666" /><line x1="4.9" x2="6.5" y1="32.166400333333335" y2="32.166400333333335" /><line x1="4.9" x2="6.5" y1="40.683067" y2="40.683067" /><line x1="4.9" x2="6.5" y1="49.19973366666667" y2="49.19973366666667" /><line x1="4.9" x2="6.5" y1="57.71640033333333" y2="57.71640033333333" /><line x1="4.9" x2="6.5" y1="66.233067" y2="66.233067" /><line x1="25.8" x2="25.8" y1="83.43306700000001" y2="85.033067" /></g><g fill="none" id="REFERENCIAS" stroke="#b0b0b0" stroke-width="0.08"><text fill="#000000" font-family="sans-serif" font-size="0.5" stroke="none" text-anchor="start" x="5.7" y="12.633067">CF</text><text fill="#000000" font-family="sans-serif" font-size="0.5" stroke="none" text-anchor="start" x="46.0" y="33.233067">CB</text><text fill="#000000" font-family="sans-serif" font-size="0.5" stroke="none" text-anchor="start" x="15.5" y="83.43306700000001">DOBLEZ</text><text fill="#000000" font-family="sans-serif" font-size="0.5" stroke="none" text-anchor="start" x="126.0281600046624" y="79.733067">boca</text></g></svg>