<?xml version="1.0" encoding="utf-8" ?>
<svg baseProfile="full" height="150.233067cm" version="1.1" viewBox="0 0 161.2942020270802 150.233067" width="161.2942020270802cm" xmlns="http://www.w3.org/2000/svg" xmlns:ev="http://www.w3.org/2001/xml-events" xmlns:xlink="http://www.w3.org/1999/xlink"><defs /><g fill="none" id="CONSTRUCCION" stroke="#888888" stroke-width="0.08"><line x1="5.7" x2="5.7" y1="13.633067" y2="72.233067" /><line x1="46.5640800023312" x2="58.5640800023312" y1="85.453067" y2="85.453067" /></g><g fill="none" id="CORTE" stroke="#d00000" stroke-width="0.08"><polygon points="3.0,73.233067 30.7,73.233067 30.7,29.177806999999998 31.092398,29.699429 32.138054999999994,31.183515999999997 33.154742,32.739025999999996 34.161504,34.346999 35.174539,35.975901 36.210623,37.593613999999995 37.28777,39.16832 38.425404,40.668200999999996 39.644519,42.060738 40.967447,43.311391 42.412712000000006,44.379078 43.97755,45.229013 45.638009000000004,45.86685 47.377473,46.312627 49.183803000000005,46.588375 51.047336,46.715893 52.959857,46.716083999999995 54.913754000000004,46.608869 56.901509000000004,46.413354 58.915437000000004,46.148058999999996 60.947581,45.831092999999996 62.989685,45.480295999999996 65.856439,44.965483 65.856439,13.241893 24.321628,8.257715000000001 12.274689,3.0 11.604548000000001,3.893731 11.408809,4.155346 11.212994,4.41821 11.017382000000001,4.682529 10.822256,4.948513 10.6279,5.216374999999999 10.434603,5.486328 10.242656,5.758584 10.052355,6.03336 9.863996,6.310871 9.677882,6.5913319999999995 9.494319,6.87496 9.313614999999999,7.161969 9.136242,7.452314 8.963303,7.744457 8.795078,8.035989 8.630749999999999,8.325658 8.469275,8.612676 8.309653,8.896266 8.150927,9.17566 7.992184,9.450102000000001 7.832553,9.718852 7.671203,9.98119 7.507341,10.236425 7.340206,10.483908 7.169058,10.723041 6.993161,10.953306000000001 6.810869,11.175367 6.619404,11.392209 6.41765,11.606558 6.206278,11.819252 5.986212,12.030951 5.7584420000000005,12.242343 5.524011,12.454155 5.322425,12.633067 3.0,12.633067 3.0,73.233067" /><polygon points="95.85643923738961,29.177746 96.2677512373896,29.724883 97.3222582373896,31.224906999999998 98.34811423738961,32.798809 99.36472723738962,34.425855 100.38853923738961,36.072929 101.4366892373896,37.706441 102.5276352373896,39.293132 103.68135523738961,40.799729 104.91953923738961,42.192166 106.2652572373896,43.434038 107.7363332373896,44.481352 109.32662323738961,45.301572 111.01128223738961,45.903344 112.7739782373896,46.307863999999995 114.6026862373896,46.537997 116.4879692373896,46.616232 118.4218302373896,46.564038 120.39683523738961,46.401827 122.40558723738961,46.149170999999996 124.4404832373896,45.825038 126.4936172373896,45.447998 128.55676323738962,45.036353999999996 131.41834323738962,44.442980999999996 131.41834323738962,12.741893 89.8616632373896,7.755091 77.8278082373896,3.111566 77.18870023738961,3.545677 76.9858712373896,3.682166 76.78554123738961,3.814464 76.5872132373896,3.941763 76.39040723738961,4.063313 76.19464923738961,4.178425 75.9987992373896,4.286843 75.80084923738961,4.389117 75.59979223738961,4.485756 75.39581623738961,4.5766670000000005 75.18922423738961,4.6617049999999995 74.9803202373896,4.740729 74.76940923738961,4.813606 74.55680023738961,4.880207 74.34280023738961,4.940408 74.1277172373896,4.9940940000000005 73.91176023738961,5.041175 73.69428223738961,5.081764 73.47413123738961,5.116351 73.25087823738961,5.1454260000000005 73.02452623738961,5.169411 72.7951062373896,5.188739 72.5626732373896,5.203858 72.32729423738961,5.215232 72.0890482373896,5.223344 71.8480202373896,5.228692 71.60429823738961,5.231796 71.3579722373896,5.233188 71.10912823738961,5.233423 70.85643923738961,5.233066 70.85643923738961,73.233067 95.85643923738961,73.233067 95.85643923738961,29.177746" /><polygon points="137.19785302708019,9.906063 137.68934302708018,9.99536 138.1808860270802,10.079563 138.6724790270802,10.158671 139.1641200270802,10.232682 139.6558050270802,10.301594999999999 140.1475320270802,10.365409 140.6392980270802,10.424122 141.1310990270802,10.477734 141.6229330270802,10.526243000000001 142.1147970270802,10.569649 142.6066870270802,10.607949999999999 143.0986000270802,10.641145999999999 143.5905330270802,10.669236 144.0824830270802,10.692219 144.5744460270802,10.710096 145.0664200270802,10.722865 145.5584000270802,10.730527 146.0503830270802,10.733080000000001 146.5423660270802,10.730527 147.0343460270802,10.722865 147.5263200270802,10.710096 148.0182830270802,10.692219 148.5102330270802,10.669236 149.0021660270802,10.641145999999999 149.4940790270802,10.607949999999999 149.9859690270802,10.569649 150.4778330270802,10.526243000000001 150.9696670270802,10.477734 151.4614680270802,10.424122 151.95323402708019,10.365409 152.44496102708018,10.301594999999999 152.9366460270802,10.232682 153.4282870270802,10.158671 153.91988002708018,10.079563 154.4114230270802,9.99536 154.9029130270802,9.906063 155.1872620270802,9.851449 157.2389840270802,13.270986 158.2942020270802,12.872003 156.4811100270802,3.0510859999999997 155.0072940270802,3.349459 154.5355250270802,3.4400709999999997 154.0638110270802,3.525774 153.5921500270802,3.6065709999999997 153.1205390270802,3.682463 152.6489760270802,3.753452 152.1774570270802,3.819539 151.7059800270802,3.880725 151.2345420270802,3.937012 150.7631390270802,3.9884 150.2917690270802,4.034891 149.8204290270802,4.076485 149.3491150270802,4.113184 148.8778240270802,4.144988 148.4065530270802,4.171898 147.9352990270802,4.193915 147.4640580270802,4.211038 146.9928280270802,4.223269 146.5216040270802,4.230607 146.0503830270802,4.233054 145.5791620270802,4.230607 145.1079380270802,4.223269 144.6367080270802,4.211038 144.1654670270802,4.193915 143.6942130270802,4.171898 143.2229420270802,4.144988 142.7516510270802,4.113184 142.2803370270802,4.076485 141.8089970270802,4.034891 141.3376270270802,3.9884 140.8662240270802,3.937012 140.3947860270802,3.880725 139.9233090270802,3.819539 139.4517900270802,3.753452 138.9802270270802,3.682463 138.5086160270802,3.6065709999999997 138.0369550270802,3.525774 137.5652410270802,3.4400709999999997 137.0934720270802,3.349459 136.4183430270802,3.21278 136.4183430270802,9.753354 136.7064180270802,9.811675000000001 137.19785302708019,9.906063" /><polygon points="4.912105,82.375769 5.44364,82.446762 5.975196,82.51370100000001 6.506772,82.57658500000001 7.038368,82.63541400000001 7.569982,82.690188 8.101613,82.740907 8.63326,82.787569 9.164921,82.830174 9.696595,82.868723 10.228280999999999,82.903215 10.759978,82.93365 11.291684,82.96002700000001 11.823398000000001,82.982347 12.355118,83.00060900000001 12.886844,83.014812 13.418574,83.024958 13.950306,83.031045 14.48204,83.033074 15.013774,83.031045 15.545506,83.024958 16.077236,83.014812 16.608962,83.00060900000001 17.140681999999998,82.982347 17.672396,82.96002700000001 18.204102,82.93365 18.735799,82.903215 19.267485,82.868723 19.799159,82.830174 20.33082,82.787569 20.862467,82.740907 21.394098,82.690188 21.925712,82.63541400000001 22.457308,82.57658500000001 22.988884,82.51370100000001 23.52044,82.446762 24.051975,82.375769 24.583486,82.300723 25.96408,82.09525500000001 25.96408,77.073227 24.29647,77.32141100000001 23.779777,77.39436500000001 23.263108,77.463372 22.74646,77.528433 22.229832,77.589549 21.713224,77.64672 21.196634,77.69994600000001 20.680061,77.749227 20.163504,77.794565 19.646961,77.83596 19.130431,77.873411 18.613913,77.906919 18.097406,77.93648400000001 17.580908,77.962107 17.064418,77.983787 16.547933999999998,78.001525 16.031456,78.01532200000001 15.514982,78.025176 14.99851,78.03108900000001 14.48204,78.03306 13.96557,78.03108900000001 13.449098,78.025176 12.932624,78.01532200000001 12.416146,78.001525 11.899662000000001,77.983787 11.383172,77.962107 10.866674,77.93648400000001 10.350166999999999,77.906919 9.833649000000001,77.873411 9.317119,77.83596 8.800576,77.794565 8.284019,77.749227 7.7674460000000005,77.69994600000001 7.250856000000001,77.64672 6.734248,77.589549 6.21762,77.528433 5.700972,77.463372 5.184303,77.39436500000001 4.66761,77.32141100000001 4.0,77.222053 4.0,82.24408100000001 4.380594,82.300723 4.912105,82.375769" /><polygon points="29.964080002331205,147.233067 37.971300002331205,147.233067 37.5652570023312,90.793135 41.7890020023312,78.22749400000001 39.264741002331206,76.96536300000001 38.5686280023312,77.893731 38.372889002331206,78.15534600000001 38.1770740023312,78.41821 37.981462002331206,78.682529 37.786336002331204,78.948513 37.591980002331205,79.216375 37.398683002331204,79.486328 37.206736002331205,79.758584 37.01643500233121,80.03336 36.8280760023312,80.310871 36.641962002331205,80.59133200000001 36.458399002331205,80.87496 36.27769500233121,81.161969 36.100322002331204,81.452314 35.927383002331204,81.74445700000001 35.759158002331205,82.035989 35.59483000233121,82.325658 35.433355002331204,82.61267600000001 35.273733002331205,82.89626600000001 35.115007002331204,83.17566000000001 34.9562640023312,83.450102 34.796633002331205,83.718852 34.63528300233121,83.98119 34.471421002331205,84.23642500000001 34.3042860023312,84.483908 34.13313800233121,84.72304100000001 33.9572410023312,84.95330600000001 33.774949002331205,85.17536700000001 33.583484002331204,85.39220900000001 33.3817300023312,85.606558 33.170358002331206,85.819252 32.9502920023312,86.030951 32.7225220023312,86.242343 32.4880910023312,86.454155 32.286505002331204,86.63306700000001 29.964080002331205,86.63306700000001 29.964080002331205,147.233067" /><polygon points="45.5640800023312,88.50497200000001 52.5640800023312,92.914972 59.5640800023312,88.50497200000001 59.5640800023312,77.233067 45.5640800023312,77.233067 45.5640800023312,88.50497200000001" /></g><g fill="none" id="COSTURA" stroke="#00a000" stroke-width="0.08"><polygon points="4.0,13.633067 5.7,13.633067 5.946137211430921,13.416556070671316 6.1911230351686255,13.199125943868006 6.433806083519894,12.97985742211545 6.673034968791513,12.757831307939018 6.907658303290262,12.53212840386409 7.136524699322925,12.30182951241604 7.358482769196286,12.066015436120248 7.5723811252171265,11.823766977502084 7.777197617466955,11.574267191163548 7.973182834463885,11.317706113979522 8.161311146615965,11.054846434291722 8.342565282091677,10.786457453046896 8.517927969059487,10.513308471191783 8.688381935687879,10.236168789673126 8.854909910145325,9.955807709437675 9.018494620600304,9.67299453143217 9.180118795221286,9.388498556603356 9.340765162176753,9.103089085897977 9.501416449635176,8.817535420262777 9.663055385765034,8.532606860644501 9.826664698734799,8.249072707989892 9.993226961401806,7.967702142964255 10.16345393201771,7.689054612599036 10.337230036760209,7.413048832744115 10.514282265311873,7.139481591821779 10.694337607355273,6.86814967825431 10.877123052572978,6.598849880463993 11.062365590647557,6.331378986873115 11.24979221126158,6.065533785903957 11.439129904097616,5.801111065978808 11.630105658838232,5.53790761551995 11.822446465166006,5.275720222949668 12.015879312763497,5.0143456766902474 12.21013119131328,4.7535807651639725 12.404929090497925,4.493222276793128 12.6,4.233067 24.0564392373896,9.233067 64.85643923738961,14.129067000000001 64.85643923738961,44.129067 62.81665514319545,44.49537226388729 60.78586407810896,44.84422561357712 58.773059071237846,45.15817513487199 56.78723315168976,45.41976891357444 54.8373793485724,45.611555035486965 52.932490690993454,45.71608158641213 51.08156020806059,45.71589665215242 49.29358092888148,45.59354831851039 47.577545882563825,45.33158467128855 45.942448098215294,44.91255379628943 44.39728060494358,44.31900377931555 42.951036431856345,43.53348270616943 41.61038520449935,42.54307904092678 40.36581519901235,41.36650272250205 39.20093223445859,40.03591333716688 38.099316851656376,38.58351986975448 37.044549591424065,37.04153130509807 36.020210994579976,35.442156628030844 35.00988160194246,33.817604823386034 33.997141954329834,32.20008487599684 32.965572592560434,30.621805770696493 31.900893883071518,29.1107206004 30.80761712654235,27.65740923262076 29.700000000000003,26.233067000000002 29.7,72.233067 4.0,72.233067" /><polygon points="70.85643923738961,6.233067 71.10889354660303,6.233423362819071 71.36127010030485,6.233185589548962 71.61349114298349,6.231759544100493 71.86547891912736,6.228551090384485 72.11715567322487,6.222966092311758 72.36844364976443,6.21441041379313 72.61926509323445,6.2022899187394245 72.86954224812332,6.18601047106146 73.11919735891948,6.1649779346700555 73.36815267011133,6.1385981734760335 73.61633042618728,6.1062770513902125 73.86365287163574,6.067420432323413 74.11004181082681,6.021435816906703 74.35535899513876,5.967954031978914 74.59934569584962,5.907053948065581 74.84172878920411,5.838867968215919 75.08223515144691,5.763528495479149 75.32059165882274,5.681167932904493 75.55652518757627,5.591918683541167 75.78976261395222,5.495913150438394 76.02003081419528,5.393283736645391 76.24705666455014,5.28416284521138 76.47056704126152,5.168682879185578 76.69033787472607,5.047021848373325 76.90664787713158,4.919825210198594 77.12007072937622,4.7880126611761415 77.33118386149218,4.652507383475511 77.5405647035116,4.514232559266247 77.7487906854667,4.3741113707178965 77.9564392373896,4.233067 89.61834302708021,8.733067 130.4183430270802,13.629067000000001 130.4183430270802,43.629067 128.35740832890463,44.056419621903075 126.30546325107534,44.46582825883915 124.27149741393858,44.8393489258412 122.26450043784058,45.159037637942184 120.29346194312768,45.40695041017513 118.3673715501461,45.56514325757298 116.49521887924212,45.61567219516875 114.68599355076199,45.54059323799541 112.94868518505199,45.32196240108595 111.2922834024584,44.94183569947336 109.72577782332743,44.38226914819061 108.2581580680054,43.62531876227069 106.89686188618862,42.65616064218822 105.63401214062768,41.49076195712001 104.45300809266125,40.16262895513759 103.33714774826706,38.70547146144552 102.26972911342278,37.15299930124836 101.2340501941061,35.538922299750666 100.21340899629475,33.896950282156986 99.19110352596637,32.260793073671884 98.15043178909868,30.664160499499925 97.07666040493498,29.136732350117413 95.97383987654871,27.669735101940063 94.85643923738961,26.233067000000002 94.85643923738961,72.233067 70.85643923738961,72.233067" /><polygon points="136.4183430270802,4.233067 136.89994502713847,4.330567 137.38154702719675,4.423067 137.86314902725505,4.510567 138.34475102731332,4.593067 138.8263530273716,4.670567 139.30795502742987,4.743067 139.78955702748817,4.810567 140.27115902754645,4.873067 140.75276102760472,4.930567 141.234363027663,4.983067 141.71596502772127,5.030567 142.19756702777957,5.073067 142.67916902783784,5.110567 143.16077102789612,5.143067 143.6423730279544,5.170567 144.1239750280127,5.193067 144.60557702807097,5.210567 145.08717902812924,5.223067 145.56878102818752,5.230567 146.0503830282458,5.233067 146.5319850283041,5.230567 147.01358702836237,5.223067 147.49518902842064,5.210567 147.9767910284789,5.193067 148.45839302853722,5.170567 148.9399950285955,5.143067 149.42159702865376,5.110567 149.90319902871204,5.073067 150.3848010287703,5.030567 150.8664030288286,4.983067 151.3480050288869,4.930567 151.82960702894516,4.873067 152.31120902900344,4.810567 152.7928110290617,4.743067 153.27441302912,4.670567 153.7560150291783,4.593067 154.23761702923656,4.510567 154.71921902929483,4.423067 155.2008210293531,4.330567 155.6824230294114,4.233067 156.8824230294114,10.733067 155.6824230294114,8.733067 155.2008210293531,8.830567 154.71921902929483,8.923067 154.23761702923656,9.010567 153.7560150291783,9.093067 153.27441302912,9.170567 152.7928110290617,9.243067 152.31120902900344,9.310567 151.82960702894516,9.373066999999999 151.3480050288869,9.430567 150.8664030288286,9.483067 150.3848010287703,9.530567000000001 149.90319902871204,9.573067 149.42159702865376,9.610567 148.9399950285955,9.643067 148.45839302853722,9.670567 147.9767910284789,9.693067 147.49518902842064,9.710567000000001 147.01358702836237,9.723067 146.5319850283041,9.730567 146.0503830282458,9.733067 145.56878102818752,9.730567 145.08717902812924,9.723067 144.60557702807097,9.710567000000001 144.1239750280127,9.693067 143.6423730279544,9.670567 143.16077102789612,9.643067 142.67916902783784,9.610567 142.19756702777957,9.573067 141.71596502772127,9.530567000000001 141.234363027663,9.483067 140.75276102760472,9.430567 140.27115902754645,9.373066999999999 139.78955702748817,9.310566999999999 139.30795502742987,9.243067 138.8263530273716,9.170567 138.34475102731332,9.093067 137.86314902725505,9.010567 137.38154702719675,8.923067 136.89994502713847,8.830567 136.4183430270802,8.733067" /><polygon points="4.0,78.233067 4.524102000058281,78.31106700000001 5.04820400011656,78.385067 5.572306000174841,78.455067 6.0964080002331205,78.521067 6.620510000291401,78.583067 7.144612000349681,78.641067 7.66871400040796,78.69506700000001 8.192816000466241,78.745067 8.716918000524522,78.79106700000001 9.2410200005828,78.833067 9.765122000641082,78.87106700000001 10.289224000699361,78.905067 10.813326000757641,78.935067 11.33742800081592,78.961067 11.861530000874202,78.983067 12.385632000932482,79.001067 12.909734000990762,79.015067 13.433836001049043,79.025067 13.95793800110732,79.03106700000001 14.482040001165602,79.033067 15.006142001223884,79.03106700000001 15.530244001282163,79.025067 16.05434600134044,79.015067 16.578448001398723,79.001067 17.102550001457004,78.983067 17.626652001515282,78.961067 18.150754001573564,78.935067 18.67485600163184,78.905067 19.198958001690123,78.87106700000001 19.723060001748404,78.833067 20.247162001806686,78.79106700000001 20.771264001864964,78.745067 21.29536600192324,78.69506700000001 21.819468001981523,78.641067 22.343570002039804,78.583067 22.867672002098086,78.521067 23.391774002156364,78.455067 23.91587600221464,78.385067 24.439978002272923,78.31106700000001 24.964080002331205,78.233067 24.964080002331205,81.233067 24.439978002272923,81.31106700000001 23.91587600221464,81.385067 23.391774002156364,81.455067 22.867672002098086,81.521067 22.343570002039804,81.583067 21.819468001981523,81.641067 21.29536600192324,81.69506700000001 20.771264001864964,81.745067 20.247162001806686,81.791067 19.723060001748404,81.833067 19.198958001690123,81.87106700000001 18.67485600163184,81.905067 18.150754001573564,81.935067 17.626652001515282,81.961067 17.102550001457004,81.983067 16.578448001398723,82.001067 16.05434600134044,82.015067 15.530244001282163,82.025067 15.006142001223884,82.03106700000001 14.482040001165602,82.033067 13.95793800110732,82.03106700000001 13.433836001049043,82.025067 12.909734000990762,82.015067 12.385632000932482,82.001067 11.861530000874202,81.983067 11.33742800081592,81.961067 10.813326000757641,81.935067 10.289224000699361,81.905067 9.765122000641082,81.87106700000001 9.2410200005828,81.833067 8.716918000524522,81.791067 8.192816000466241,81.745067 7.66871400040796,81.69506700000001 7.144612000349681,81.641067 6.620510000291401,81.583067 6.0964080002331205,81.521067 5.572306000174841,81.455067 5.04820400011656,81.385067 4.524102000058281,81.31106700000001 4.0,81.233067" /><polygon points="30.964080002331205,87.63306700000001 32.664080002331204,87.63306700000001 32.910217213762124,87.41655607067132 33.15520303749983,87.19912594386801 33.3978860858511,86.97985742211546 33.63711497112271,86.75783130793903 33.87173830562146,86.53212840386409 34.10060470165413,86.30182951241605 34.32256277152749,86.06601543612025 34.53646112754833,85.82376697750209 34.741277619798154,85.57426719116356 34.937262836795085,85.31770611397953 35.12539114894717,85.05484643429173 35.30664528442288,84.7864574530469 35.48200797139069,84.51330847119179 35.65246193801909,84.23616878967313 35.81898991247653,83.95580770943768 35.98257462293151,83.67299453143218 36.14419879755249,83.38849855660337 36.30484516450796,83.10308908589798 36.46549645196638,82.81753542026279 36.627135388096235,82.5326068606445 36.790744701066004,82.2490727079899 36.95730696373301,81.96770214296426 37.12753393434891,81.68905461259904 37.30131003909141,81.41304883274412 37.47836226764308,81.13948159182178 37.65841760968648,80.86814967825431 37.841203054904184,80.598849880464 38.02644559297876,80.33137898687312 38.21387221359278,80.06553378590397 38.40320990642882,79.80111106597882 38.59418566116943,79.53790761551996 38.78652646749721,79.27572022294967 38.9799593150947,79.01434567669025 39.17421119364448,78.75358076516397 39.36900909282913,78.49322227679313 39.5640800023312,78.233067 40.5640800023312,78.733067 36.5640800023312,90.63306700000001 36.9640800023312,146.233067 30.964080002331205,146.233067" /><polygon points="46.5640800023312,78.233067 58.5640800023312,78.233067 58.5640800023312,87.953067 52.5640800023312,91.733067 46.5640800023312,87.953067" /></g><g fill="none" id="PIQUETES" stroke="#00b0b0" stroke-width="0.08"><line x1="22.22614356985109" x2="22.648823417815926" y1="15.99764129725501" y2="16.48645797672127" /><line x1="22.67985985857674" x2="22.648823417815926" y1="15.8409839343734" y2="16.48645797672127" /><line x1="29.93971566972001" x2="29.670802644523903" y1="46.921388057809565" y2="46.333777825699975" /><line x1="29.46028433027999" x2="29.670802644523903" y1="46.94474594219044" y2="46.333777825699975" /><line x1="79.78623607145879" x2="80.33951474526451" y1="14.377798919922675" y2="14.711689184997574" /><line x1="80.16913381945686" x2="80.33951474526451" y1="14.088335080077325" y2="14.711689184997574" /></g><g fill="none" id="TEXTOS" stroke="#000000" stroke-width="0.08"><text fill="#000000" font-family="sans-serif" font-size="0.9" stroke="none" text-anchor="middle" x="29.13135591787328" y="32.56138520240307">DELANTERO DOLMAN</text><text fill="#000000" font-family="sans-serif" font-size="0.6" stroke="none" text-anchor="middle" x="29.13135591787328" y="33.96138520240307">Pieza N.01</text><text fill="#000000" font-family="sans-serif" font-size="0.6" stroke="none" text-anchor="middle" x="29.13135591787328" y="35.36138520240308">Talla: S</text><text fill="#000000" font-family="sans-serif" font-size="0.6" stroke="none" text-anchor="middle" x="29.13135591787328" y="36.76138520240307">Cortar: 2  (par: izq + der)</text><text fill="#000000" font-family="sans-serif" font-size="0.9" stroke="none" text-anchor="middle" x="95.24957641618988" y="30.834460220438853">ESPALDA DOLMAN</text><text fill="#000000" font-family="sans-serif" font-size="0.6" stroke="none" text-anchor="middle" x="95.24957641618988" y="32.23446022043885">Pieza N.02</text><text fill="#000000" font-family="sans-serif" font-size="0.6" stroke="none" text-anchor="middle" x="95.24957641618988" y="33.634460220438854">Talla: S</text><text fill="#000000" font-family="sans-serif" font-size="0.6" stroke="none" text-anchor="middle" x="95.24957641618988" y="35.03446022043885">Cortar: 1  (al doblez)</text><text fill="#000000" font-family="sans-serif" font-size="0.6" stroke="none" text-anchor="middle" x="95.24957641618988" y="36.43446022043885">AL DOBLEZ</text><text fill="#000000" font-family="sans-serif" font-size="0.9" stroke="none" text-anchor="middle" x="146.35340355575036" y="3.571983541815535">CUELLO</text><text fill="#000000" font-family="sans-serif" font-size="0.6" stroke="none" text-anchor="middle" x="146.35340355575036" y="4.9719835418155345">Pieza N.07</text><text fill="#000000" font-family="sans-serif" font-size="0.6" stroke="none" text-anchor="middle" x="146.35340355575036" y="6.371983541815535">Talla: S</text><text fill="#000000" font-family="sans-serif" font-size="0.6" stroke="none" text-anchor="middle" x="146.35340355575036" y="7.771983541815534">Cortar: 2  (al doblez x2 (+ entretela))</text><text fill="#000000" font-family="sans-serif" font-size="0.6" stroke="none" text-anchor="middle" x="146.35340355575036" y="9.171983541815536">AL DOBLEZ</text><text fill="#000000" font-family="sans-serif" font-size="0.9" stroke="none" text-anchor="middle" x="14.482040001165606" y="76.66606700000001">PIE DE CUELLO</text><text fill="#000000" font-family="sans-serif" font-size="0.6" stroke="none" text-anchor="middle" x="14.482040001165606" y="78.066067">Pieza N.08</text><text fill="#000000" font-family="sans-serif" font-size="0.6" stroke="none" text-anchor="middle" x="14.482040001165606" y="79.46606700000001">Talla: S</text><text fill="#000000" font-family="sans-serif" font-size="0.6" stroke="none" text-anchor="middle" x="14.482040001165606" y="80.866067">Cortar: 2  (al doblez x2 (+ entretela))</text><text fill="#000000" font-family="sans-serif" font-size="0.6" stroke="none" text-anchor="middle" x="14.482040001165606" y="82.266067">AL DOBLEZ</text><text fill="#000000" font-family="sans-serif" font-size="0.9" stroke="none" text-anchor="middle" x="34.114292868583675" y="112.0976551491815">VISTA DELANTERA</text><text fill="#000000" font-family="sans-serif" font-size="0.6" stroke="none" text-anchor="middle" x="34.114292868583675" y="113.4976551491815">Pieza N.09</text><text fill="#000000" font-family="sans-serif" font-size="0.6" stroke="none" text-anchor="middle" x="34.114292868583675" y="114.8976551491815">Talla: S</text><text fill="#000000" font-family="sans-serif" font-size="0.6" stroke="none" text-anchor="middle" x="34.114292868583675" y="116.29765514918151">Cortar: 2  (par: izq + der)</text><text fill="#000000" font-family="sans-serif" font-size="0.9" stroke="none" text-anchor="middle" x="52.5640800023312" y="81.38934606976744">BOLSILLO</text><text fill="#000000" font-family="sans-serif" font-size="0.6" stroke="none" text-anchor="middle" x="52.5640800023312" y="82.78934606976745">Pieza N.10</text><text fill="#000000" font-family="sans-serif" font-size="0.6" stroke="none" text-anchor="middle" x="52.5640800023312" y="84.18934606976745">Talla: S</text><text fill="#000000" font-family="sans-serif" font-size="0.6" stroke="none" text-anchor="middle" x="52.5640800023312" y="85.58934606976744">Cortar: 1  (1 (opcional))</text></g><g fill="none" id="CENTROS" stroke="#0050ff" stroke-width="0.08"><circle cx="18.9" cy="29.233067" fill="#0050ff" r="0.15" /></g><g fill="none" id="HILO" stroke="#c0a000" stroke-width="0.08"><line x1="17.7" x2="17.7" y1="16.633067" y2="69.233067" /><line x1="17.7" x2="18.167302010770378" y1="69.233067" y2="68.12779380719654" /><line x1="17.7" x2="17.232697989229617" y1="69.233067" y2="68.12779380719654" /><line x1="17.7" x2="17.23269798922962" y1="16.633067" y2="17.738340192803463" /><line x1="17.7" x2="18.167302010770378" y1="16.633067" y2="17.738340192803463" /><line x1="71.35643923738961" x2="71.35643923738961" y1="17.233067" y2="69.233067" /><line x1="71.35643923738961" x2="71.82374124815999" y1="69.233067" y2="68.12779380719654" /><line x1="71.35643923738961" x2="70.88913722661923" y1="69.233067" y2="68.12779380719654" /><line x1="71.35643923738961" x2="70.88913722661923" y1="17.233067" y2="18.338340192803464" /><line x1="71.35643923738961" x2="71.82374124815999" y1="17.233067" y2="18.338340192803464" /><line x1="136.9183430270802" x2="155.1824230294114" y1="4.733067" y2="4.733067" /><line x1="155.1824230294114" x2="154.07714983660793" y1="4.733067" y2="4.26576498922962" /><line x1="155.1824230294114" x2="154.07714983660793" y1="4.733067" y2="5.20036901077038" /><line x1="136.9183430270802" x2="138.02361621988365" y1="4.733067" y2="5.20036901077038" /><line x1="136.9183430270802" x2="138.02361621988365" y1="4.733067" y2="4.26576498922962" /><line x1="4.5" x2="24.464080002331205" y1="78.63306700000001" y2="78.63306700000001" /><line x1="24.464080002331205" x2="23.358806809527742" y1="78.63306700000001" y2="78.16576498922963" /><line x1="24.464080002331205" x2="23.358806809527742" y1="78.63306700000001" y2="79.10036901077038" /><line x1="4.5" x2="5.6052731928034625" y1="78.63306700000001" y2="79.10036901077038" /><line x1="4.5" x2="5.6052731928034625" y1="78.63306700000001" y2="78.16576498922963" /><line x1="33.9640800023312" x2="33.9640800023312" y1="92.63306700000001" y2="143.233067" /><line x1="33.9640800023312" x2="34.43138201310158" y1="143.233067" y2="142.12779380719655" /><line x1="33.9640800023312" x2="33.49677799156082" y1="143.233067" y2="142.12779380719655" /><line x1="33.9640800023312" x2="33.49677799156082" y1="92.63306700000001" y2="93.73834019280346" /><line x1="33.9640800023312" x2="34.43138201310158" y1="92.63306700000001" y2="93.73834019280346" /><line x1="52.5640800023312" x2="52.5640800023312" y1="79.233067" y2="87.953067" /><line x1="52.5640800023312" x2="53.031382013101585" y1="87.953067" y2="86.84779380719654" /><line x1="52.5640800023312" x2="52.09677799156082" y1="87.953067" y2="86.84779380719654" /><line x1="52.5640800023312" x2="52.09677799156082" y1="79.233067" y2="80.33834019280347" /><line x1="52.5640800023312" x2="53.031382013101585" y1="79.233067" y2="80.33834019280347" /></g><g fill="none" id="DOBLEZ" stroke="#c000c0" stroke-width="0.08"><line x1="70.85643923738961" x2="70.85643923738961" y1="4.233067" y2="72.233067" /><line x1="136.4183430270802" x2="136.4183430270802" y1="4.233067" y2="10.733067" /><line x1="4.0" x2="4.0" y1="78.233067" y2="82.033067" /></g><g fill="none" id="BOTONES" stroke="#ff8000" stroke-width="0.08"><circle cx="5.7" cy="15.133067" fill="#ff8000" r="0.55" /><circle cx="5.7" cy="23.649733666666666" fill="#ff8000" r="0.55" /><circle cx="5.7" cy="32.166400333333335" fill="#ff8000" r="0.55" /><circle cx="5.7" cy="40.683067" fill="#ff8000" r="0.55" /><circle cx="5.7" cy="49.19973366666667" fill="#ff8000" r="0.55" /><circle cx="5.7" cy="57.71640033333333" fill="#ff8000" r="0.55" /><circle cx="5.7" cy="66.233067" fill="#ff8000" r="0.55" /><circle cx="23.964080002331205" cy="79.733067" fill="#ff8000" r="0.55" /></g><g fill="none" id="OJAL" stroke="#ff40a0" stroke-width="0.08"><line x1="4.9" x2="6.5" y1="15.133067" y2="15.133067" /><line x1="4.9" x2="6.5" y1="23.649733666666666" y2="23.649733666666666" /><line x1="4.9" x2="6.5" y1="32.166400333333335" y2="32.166400333333335" /><line x1="4.9" x2="6.5" y1="40.683067" y2="40.683067" /><line x1="4.9" x2="6.5" y1="49.19973366666667" y2="49.19973366666667" /><line x1="4.9" x2="6.5" y1="57.71640033333333" y2="57.71640033333333" /><line x1="4.9" x2="6.5" y1="66.233067" y2="66.233067" /></g><g fill="none" id="REFERENCIAS" stroke="#b0b0b0" stroke-width="0.08"><text fill="#000000" font-family="sans-serif" font-size="0.5" stroke="none" text-anchor="start" x="5.7" y="12.633067">CF</text><text fill="#000000" font-family="sans-serif" font-size="0.5" stroke="none" text-anchor="start" x="71.1564392373896" y="43.233067">CB</text><text fill="#000000" font-family="sans-serif" font-size="0.5" stroke="none" text-anchor="start" x="52.5640800023312" y="79.733067">boca</text></g></svg>