<?xml version="1.0" encoding="utf-8" ?>
<svg baseProfile="full" height="162.90945599999998cm" version="1.1" viewBox="0 0 168.0 162.90945599999998" width="168.0cm" xmlns="http://www.w3.org/2000/svg" xmlns:ev="http://www.w3.org/2001/xml-events" xmlns:xlink="http://www.w3.org/1999/xlink"><defs /><rect fill="#f7f3ea" height="154.90945599999998" stroke="#333" stroke-width="0.15" width="160.0" x="4.0" y="4.0" /><text fill="#000" font-family="sans-serif" font-size="1.4" x="4.0" y="3.0">PLANO DE CORTE — ancho 160 cm — largo 1.55 m</text><polygon fill="#cfe3f7" fill-opacity="0.5" points="4.0,74.267704 12.00722,74.267704 11.601177,17.827772 15.824922,5.262131 13.300661,4.0 12.604548000000001,4.928368 12.408809,5.189983 12.212994,5.452847 12.017382000000001,5.717166 11.822256,5.98315 11.6279,6.251011999999999 11.434603,6.520965 11.242656,6.793221 11.052355,7.067997 10.863996,7.345508 10.677882,7.6259689999999996 10.494319,7.909597 10.313615,8.196606 10.136242,8.486951000000001 9.963303,8.779094 9.795078,9.070626 9.63075,9.360295 9.469275,9.647313 9.309653,9.930903 9.150927,10.210297 8.992184,10.484739000000001 8.832553,10.753489 8.671203,11.015827 8.507341,11.271062 8.340206,11.518545 8.169058,11.757678 7.993161000000001,11.987943000000001 7.810869,12.210004 7.619404,12.426846 7.41765,12.641195 7.206278,12.853889 6.986212,13.065588 6.7584420000000005,13.27698 6.524011,13.488792 6.322425,13.667704 4.0,13.667704 4.0,74.267704" stroke="#1f6fb2" stroke-width="0.1" /><text fill="#0a3d62" font-family="sans-serif" font-size="1.6" text-anchor="middle" x="9.912461" y="39.133852">09</text><polygon fill="#cfe3f7" fill-opacity="0.5" points="16.824922,74.267704 24.832142,74.267704 24.426099,17.827772 28.649844,5.262131 26.125583,4.0 25.429470000000002,4.928368 25.233731,5.189983 25.037916000000003,5.452847 24.842304000000002,5.717166 24.647178,5.98315 24.452822,6.251011999999999 24.259525,6.520965 24.067578,6.793221 23.877277,7.067997 23.688918,7.345508 23.502804,7.6259689999999996 23.319241,7.909597 23.138537,8.196606 22.961164,8.486951000000001 22.788225,8.779094 22.62,9.070626 22.455672,9.360295 22.294197,9.647313 22.134575,9.930903 21.975849,10.210297 21.817106000000003,10.484739000000001 21.657475,10.753489 21.496125,11.015827 21.332263,11.271062 21.165128000000003,11.518545 20.99398,11.757678 20.818083,11.987943000000001 20.635791,12.210004 20.444326,12.426846 20.242572000000003,12.641195 20.031200000000002,12.853889 19.811134000000003,13.065588 19.583364,13.27698 19.348933000000002,13.488792 19.147347,13.667704 16.824922,13.667704 16.824922,74.267704" stroke="#1f6fb2" stroke-width="0.1" /><text fill="#0a3d62" font-family="sans-serif" font-size="1.6" text-anchor="middle" x="22.737383" y="39.133852">09</text><polygon fill="#cfe3f7" fill-opacity="0.5" points="29.649844,74.233067 57.349844000000004,74.233067 57.349844000000004,26.857360999999997 56.749912,26.171653999999997 56.396521,25.768483 56.040528,25.363836 55.681394,24.957849 55.318277,24.550319 54.95034,24.141047999999998 54.576750000000004,23.729844999999997 54.196687,23.316536 53.810258000000005,22.901911 53.420919,22.488083 53.034441,22.076037 52.655385,21.665301 52.288183000000004,21.255467 51.937261,20.846346999999998 51.606989,20.437973 51.30162,20.030609 51.025183999999996,19.624724 50.781365,19.22094 50.57334,18.819888 50.40363,18.421923 50.273231,18.024288 50.180244,17.618925 50.12149,17.199514999999998 50.095352000000005,16.764596 50.100468,16.313914 50.135391999999996,15.847847 50.198454,15.367222 50.287714,14.873137 50.400976,14.366815 50.535817,13.849511 50.689639,13.32245 50.859709,12.78679 51.043189999999996,12.243606999999999 51.237178,11.693886 51.438712,11.138521 51.970248,9.693617 38.924533000000004,4.0 38.254392,4.893731 38.058653,5.155346 37.862838,5.41821 37.667226,5.682529 37.472100000000005,5.948513 37.277744,6.216374999999999 37.084447000000004,6.486328 36.8925,6.758584 36.702199,7.03336 36.51384,7.310871 36.327726,7.5913319999999995 36.144163000000006,7.87496 35.963459,8.161969 35.786086000000005,8.452314000000001 35.613147,8.744457 35.444922000000005,9.035989 35.280594,9.325658 35.119119,9.612676 34.959497,9.896266 34.800771000000005,10.17566 34.642028,10.450102000000001 34.482397000000006,10.718852 34.321047,10.98119 34.157185,11.236425 33.990050000000004,11.483908 33.818902,11.723041 33.643005,11.953306000000001 33.460713,12.175367 33.269248000000005,12.392209 33.067494,12.606558 32.856122,12.819252 32.636056,13.030951 32.408286000000004,13.242343 32.173855,13.454155 31.972269,13.633067 29.649844,13.633067 29.649844,74.233067" stroke="#1f6fb2" stroke-width="0.1" /><text fill="#0a3d62" font-family="sans-serif" font-size="1.6" text-anchor="middle" x="43.499844" y="39.1165335">01</text><polygon fill="#cfe3f7" fill-opacity="0.5" points="58.349844000000004,74.233067 86.04984400000001,74.233067 86.04984400000001,26.857360999999997 85.44991200000001,26.171653999999997 85.096521,25.768483 84.74052800000001,25.363836 84.381394,24.957849 84.01827700000001,24.550319 83.65034,24.141047999999998 83.27675,23.729844999999997 82.896687,23.316536 82.51025800000001,22.901911 82.120919,22.488083 81.734441,22.076037 81.35538500000001,21.665301 80.988183,21.255467 80.637261,20.846346999999998 80.306989,20.437973 80.00162,20.030609 79.725184,19.624724 79.48136500000001,19.22094 79.27334,18.819888 79.10363000000001,18.421923 78.973231,18.024288 78.880244,17.618925 78.82149000000001,17.199514999999998 78.79535200000001,16.764596 78.800468,16.313914 78.835392,15.847847 78.898454,15.367222 78.98771400000001,14.873137 79.100976,14.366815 79.235817,13.849511 79.389639,13.32245 79.559709,12.78679 79.74319,12.243606999999999 79.937178,11.693886 80.138712,11.138521 80.670248,9.693617 67.624533,4.0 66.95439200000001,4.893731 66.75865300000001,5.155346 66.562838,5.41821 66.367226,5.682529 66.1721,5.948513 65.977744,6.216374999999999 65.784447,6.486328 65.5925,6.758584 65.40219900000001,7.03336 65.21384,7.310871 65.027726,7.5913319999999995 64.84416300000001,7.87496 64.663459,8.161969 64.486086,8.452314000000001 64.313147,8.744457 64.14492200000001,9.035989 63.980594,9.325658 63.819119,9.612676 63.659497,9.896266 63.50077100000001,10.17566 63.342028000000006,10.450102000000001 63.18239700000001,10.718852 63.021047,10.98119 62.857185,11.236425 62.69005000000001,11.483908 62.518902000000004,11.723041 62.343005000000005,11.953306000000001 62.160713,12.175367 61.96924800000001,12.392209 61.767494000000006,12.606558 61.556122,12.819252 61.336056000000006,13.030951 61.10828600000001,13.242343 60.873855000000006,13.454155 60.67226900000001,13.633067 58.349844000000004,13.633067 58.349844000000004,74.233067" stroke="#1f6fb2" stroke-width="0.1" /><text fill="#0a3d62" font-family="sans-serif" font-size="1.6" text-anchor="middle" x="72.199844" y="39.1165335">01</text><polygon fill="#cfe3f7" fill-opacity="0.5" points="91.65338100000001,66.004613 117.48208500000001,66.004613 122.094586,14.559622999999998 121.388243,13.774989999999999 120.967436,13.312847999999999 120.53796,12.851835999999999 120.09776300000001,12.395239 119.64708900000001,11.9474 119.188167,11.51006 118.721992,11.082705 118.24918400000001,10.664458 117.770352,10.254439 117.286091,9.851766999999999 116.796986,9.455561 116.30361300000001,9.064943 115.806533,8.679036 115.30564000000001,8.296466 114.798901,7.915755 114.283821,7.538259 113.759262,7.1668959999999995 113.224247,6.804792 112.677744,6.4551289999999995 112.11868700000001,6.121163 111.54599200000001,5.80625 110.958596,5.513857 110.35550500000001,5.24759 109.73737400000002,5.011762 109.10929300000001,4.809616 108.477002,4.638591 107.84275000000001,4.494111 107.208081,4.371542 106.574414,4.266382 105.943098,4.174272 105.31546600000001,4.0909949999999995 104.593968,4.0 103.85880700000001,4.05394 103.218061,4.104962 102.573491,4.164405 101.92624400000001,4.236438 101.277471,4.325369 100.628369,4.435643 99.98024000000001,4.57184 99.33465100000001,4.738636 98.695789,4.939882 98.069523,5.174805 97.45815800000001,5.439152 96.86110000000001,5.729414 96.27751800000001,6.042254 95.70653000000001,6.374447 95.147238,6.722872 94.598757,7.084489 94.060236,7.456322999999999 93.53086,7.835451 93.00904100000001,8.2196 92.49182300000001,8.609293000000001 91.97859500000001,9.007759 91.47119500000001,9.417183999999999 90.97183700000001,9.839547 90.482792,10.276864 90.00640600000001,10.731176 89.545118,11.204525 89.101477,11.698924 88.67864200000001,12.215724 88.282289,12.750982 87.912518,13.294198000000002 87.56332,13.837394 87.04984400000001,14.659607999999999 91.65338100000001,66.004613" stroke="#1f6fb2" stroke-width="0.1" /><text fill="#0a3d62" font-family="sans-serif" font-size="1.6" text-anchor="middle" x="104.572215" y="35.0023065">04</text><polygon fill="#cfe3f7" fill-opacity="0.5" points="127.69812300000001,66.004613 153.526827,66.004613 158.139328,14.559622999999998 157.432985,13.774989999999999 157.012178,13.312847999999999 156.582702,12.851835999999999 156.142505,12.395239 155.691831,11.9474 155.232909,11.51006 154.766734,11.082705 154.293926,10.664458 153.81509400000002,10.254439 153.330833,9.851766999999999 152.84172800000002,9.455561 152.348355,9.064943 151.85127500000002,8.679036 151.350382,8.296466 150.84364300000001,7.915755 150.328563,7.538259 149.80400400000002,7.1668959999999995 149.268989,6.804792 148.722486,6.4551289999999995 148.163429,6.121163 147.590734,5.80625 147.003338,5.513857 146.400247,5.24759 145.782116,5.011762 145.15403500000002,4.809616 144.521744,4.638591 143.887492,4.494111 143.252823,4.371542 142.619156,4.266382 141.98784,4.174272 141.360208,4.0909949999999995 140.63871,4.0 139.903549,4.05394 139.26280300000002,4.104962 138.618233,4.164405 137.970986,4.236438 137.322213,4.325369 136.673111,4.435643 136.024982,4.57184 135.379393,4.738636 134.740531,4.939882 134.11426500000002,5.174805 133.5029,5.439152 132.905842,5.729414 132.32226,6.042254 131.751272,6.374447 131.19198,6.722872 130.64349900000002,7.084489 130.10497800000002,7.456322999999999 129.575602,7.835451 129.053783,8.2196 128.536565,8.609293000000001 128.023337,9.007759 127.51593700000001,9.417183999999999 127.01657900000001,9.839547 126.527534,10.276864 126.05114800000001,10.731176 125.58986,11.204525 125.146219,11.698924 124.72338400000001,12.215724 124.327031,12.750982 123.95726,13.294198000000002 123.608062,13.837394 123.094586,14.659607999999999 127.69812300000001,66.004613" stroke="#1f6fb2" stroke-width="0.1" /><text fill="#0a3d62" font-family="sans-serif" font-size="1.6" text-anchor="middle" x="140.616957" y="35.0023065">04</text><polygon fill="#cfe3f7" fill-opacity="0.5" points="54.0,87.966392 53.54488,87.279729 53.256333999999995,86.84411399999999 52.967847,86.408048 52.679368,85.971184 52.390845,85.533176 52.102226,85.09367599999999 51.81346,84.65233799999999 51.524504,84.208831 51.235746,83.76344 50.948979,83.317216 50.666720999999995,82.870756 50.391082,82.42400799999999 50.124128999999996,81.97692599999999 49.867903,81.52950899999999 49.624413000000004,81.081797 49.39562,80.633862 49.18343,80.1858 48.989674,79.73771199999999 48.816095000000004,79.28968599999999 48.664342000000005,78.84176 48.535945,78.39383199999999 48.431893,77.94394399999999 48.351451,77.488163 48.292833,77.024293 48.254642000000004,76.552268 48.203385999999995,75.267704 29.0,75.267704 29.0,135.26770399999998 54.0,135.26770399999998 54.0,87.966392 4.0,87.966392 4.455120000000001,87.279729 4.743666000000001,86.84411399999999 5.032153000000001,86.408048 5.320632,85.971184 5.609155000000001,85.533176 5.897773999999998,85.09367599999999 6.186540000000001,84.65233799999999 6.475496,84.208831 6.764254000000001,83.76344 7.051020999999999,83.317216 7.333279000000001,82.870756 7.608917999999999,82.42400799999999 7.875871,81.97692599999999 8.132097000000002,81.52950899999999 8.375587,81.081797 8.604379999999999,80.633862 8.816569999999999,80.1858 9.010326,79.73771199999999 9.183905,79.28968599999999 9.335657999999999,78.84176 9.464054999999998,78.39383199999999 9.568107000000001,77.94394399999999 9.648549,77.488163 9.707166999999998,77.024293 9.745358,76.552268 9.796614000000002,75.267704 29.0,75.267704 29.0,135.26770399999998 4.0,135.26770399999998 4.0,87.966392" stroke="#1f6fb2" stroke-width="0.1" /><text fill="#0a3d62" font-family="sans-serif" font-size="1.6" text-anchor="middle" x="29.0" y="105.267704">02</text><polygon fill="#cfe3f7" fill-opacity="0.5" points="55.0,99.266595 78.18733399999999,99.266595 66.593667,75.267704 55.0,99.266595" stroke="#1f6fb2" stroke-width="0.1" /><text fill="#0a3d62" font-family="sans-serif" font-size="1.6" text-anchor="middle" x="66.593667" y="87.26714949999999">40</text><polygon fill="#cfe3f7" fill-opacity="0.5" points="79.18733399999999,99.266595 102.37466799999999,99.266595 90.78100099999999,75.267704 79.18733399999999,99.266595" stroke="#1f6fb2" stroke-width="0.1" /><text fill="#0a3d62" font-family="sans-serif" font-size="1.6" text-anchor="middle" x="90.78100099999999" y="87.26714949999999">40</text><polygon fill="#cfe3f7" fill-opacity="0.5" points="103.37466799999999,99.266595 126.56200199999998,99.266595 114.96833499999998,75.267704 103.37466799999999,99.266595" stroke="#1f6fb2" stroke-width="0.1" /><text fill="#0a3d62" font-family="sans-serif" font-size="1.6" text-anchor="middle" x="114.96833499999998" y="87.26714949999999">40</text><polygon fill="#cfe3f7" fill-opacity="0.5" points="127.56200199999998,99.266595 150.74933599999997,99.266595 139.155669,75.267704 127.56200199999998,99.266595" stroke="#1f6fb2" stroke-width="0.1" /><text fill="#0a3d62" font-family="sans-serif" font-size="1.6" text-anchor="middle" x="139.155669" y="87.26714949999999">40</text><polygon fill="#cfe3f7" fill-opacity="0.5" points="4.0,147.53960899999998 11.0,151.94960899999998 18.0,147.53960899999998 18.0,136.26770399999998 4.0,136.26770399999998 4.0,147.53960899999998" stroke="#1f6fb2" stroke-width="0.1" /><text fill="#0a3d62" font-family="sans-serif" font-size="1.6" text-anchor="middle" x="11.0" y="144.1086565">10</text><polygon fill="#cfe3f7" fill-opacity="0.5" points="19.0,148.51683099999997 19.029841,148.819811 19.132547,149.15838599999998 19.299332,149.470419 19.523786,149.74391799999998 19.797285,149.968372 20.109318000000002,150.135157 20.447893,150.23786299999998 20.750873,150.26770399999998 42.249127,150.26770399999998 42.552107,150.23786299999998 42.890682,150.135157 43.202715,149.968372 43.476214,149.74391799999998 43.700668,149.470419 43.867453,149.15838599999998 43.970158999999995,148.819811 44.0,148.51683099999997 44.0,138.018577 43.970158999999995,137.71559699999997 43.867453,137.37702199999998 43.700668,137.06498899999997 43.476214,136.79148999999998 43.202715,136.56703599999997 42.890682,136.40025099999997 42.552107,136.29754499999999 42.249127,136.26770399999998 20.750873,136.26770399999998 20.447893,136.29754499999999 20.109318000000002,136.40025099999997 19.797285,136.56703599999997 19.523786,136.79148999999998 19.299332,137.06498899999997 19.132547,137.37702199999998 19.029841,137.71559699999997 19.0,138.018577 19.0,148.51683099999997" stroke="#1f6fb2" stroke-width="0.1" /><text fill="#0a3d62" font-family="sans-serif" font-size="1.6" text-anchor="middle" x="31.5" y="143.26770399999998">05</text><polygon fill="#cfe3f7" fill-opacity="0.5" points="45.0,148.51683099999997 45.029841,148.819811 45.132547,149.15838599999998 45.299332,149.470419 45.523786,149.74391799999998 45.797285,149.968372 46.109318,150.135157 46.447893,150.23786299999998 46.750873,150.26770399999998 68.249127,150.26770399999998 68.552107,150.23786299999998 68.890682,150.135157 69.202715,149.968372 69.476214,149.74391799999998 69.70066800000001,149.470419 69.867453,149.15838599999998 69.970159,148.819811 70.0,148.51683099999997 70.0,138.018577 69.970159,137.71559699999997 69.867453,137.37702199999998 69.70066800000001,137.06498899999997 69.476214,136.79148999999998 69.202715,136.56703599999997 68.890682,136.40025099999997 68.552107,136.29754499999999 68.249127,136.26770399999998 46.750873,136.26770399999998 46.447893,136.29754499999999 46.109318,136.40025099999997 45.797285,136.56703599999997 45.523786,136.79148999999998 45.299332,137.06498899999997 45.132547,137.37702199999998 45.029841,137.71559699999997 45.0,138.018577 45.0,148.51683099999997" stroke="#1f6fb2" stroke-width="0.1" /><text fill="#0a3d62" font-family="sans-serif" font-size="1.6" text-anchor="middle" x="57.5" y="143.26770399999998">05</text><polygon fill="#cfe3f7" fill-opacity="0.5" points="110.109812,147.19376799999998 110.10827,146.70608699999997 110.12286,146.21110399999998 110.152042,145.709253 110.194218,145.201 110.247736,144.68682499999997 110.310889,144.16720899999999 110.381927,143.642622 110.459058,143.11351599999998 110.540457,142.58031899999997 110.74864600000001,141.24658999999997 97.845692,136.26770399999998 97.20658399999999,136.70181499999998 97.003755,136.838304 96.803425,136.97060199999999 96.605097,137.09790099999998 96.40829099999999,137.219451 96.21253300000001,137.33456299999997 96.016683,137.44298099999997 95.81873300000001,137.54525499999997 95.617676,137.64189399999998 95.4137,137.73280499999998 95.207108,137.81784299999998 94.998204,137.896867 94.787293,137.969744 94.574684,138.03634499999998 94.36068399999999,138.096546 94.145601,138.150232 93.929644,138.19731299999998 93.712166,138.237902 93.49201500000001,138.27248899999998 93.26876200000001,138.30156399999998 93.04241,138.32554899999997 92.81299,138.34487699999997 92.580557,138.35999599999997 92.345178,138.37136999999998 92.106932,138.37948199999997 91.865904,138.38483 91.62218200000001,138.38793399999997 91.375856,138.38932599999998 91.12701200000001,138.389561 90.874323,138.38920399999998 90.874323,148.38920499999998 110.157512,148.38920499999998 110.109812,147.19376799999998 71.638834,147.19376799999998 71.640376,146.70608699999997 71.625786,146.21110399999998 71.596604,145.709253 71.554428,145.201 71.50091,144.68682499999997 71.437757,144.16720899999999 71.366719,143.642622 71.28958800000001,143.11351599999998 71.208189,142.58031899999997 71.0,141.24658999999997 83.902954,136.26770399999998 84.542062,136.70181499999998 84.744891,136.838304 84.945221,136.97060199999999 85.14354900000001,137.09790099999998 85.340355,137.219451 85.536113,137.33456299999997 85.73196300000001,137.44298099999997 85.929913,137.54525499999997 86.13097,137.64189399999998 86.334946,137.73280499999998 86.541538,137.81784299999998 86.75044199999999,137.896867 86.961353,137.969744 87.173962,138.03634499999998 87.387962,138.096546 87.60304500000001,138.150232 87.819002,138.19731299999998 88.03648,138.237902 88.256631,138.27248899999998 88.479884,138.30156399999998 88.706236,138.32554899999997 88.935656,138.34487699999997 89.16808900000001,138.35999599999997 89.403468,138.37136999999998 89.64171400000001,138.37948199999997 89.88274200000001,138.38483 90.126464,138.38793399999997 90.37279000000001,138.38932599999998 90.621634,138.389561 90.874323,138.38920399999998 90.874323,148.38920499999998 71.591134,148.38920499999998 71.638834,147.19376799999998" stroke="#1f6fb2" stroke-width="0.1" /><text fill="#0a3d62" font-family="sans-serif" font-size="1.6" text-anchor="middle" x="90.874323" y="142.3284545">03</text><polygon fill="#cfe3f7" fill-opacity="0.5" points="134.40401500000002,143.12268099999997 134.895505,143.211978 135.387048,143.296181 135.87864100000002,143.37528899999998 136.370282,143.4493 136.861967,143.51821299999997 137.35369400000002,143.58202699999998 137.84546,143.64074 138.337261,143.69435199999998 138.829095,143.74286099999998 139.32095900000002,143.78626699999998 139.812849,143.82456799999997 140.304762,143.85776399999997 140.796695,143.885854 141.288645,143.90883699999998 141.780608,143.92671399999998 142.272582,143.939483 142.764562,143.94714499999998 143.25654500000002,143.94969799999998 143.74852800000002,143.94714499999998 144.240508,143.939483 144.732482,143.92671399999998 145.224445,143.90883699999998 145.716395,143.885854 146.208328,143.85776399999997 146.700241,143.82456799999997 147.19213100000002,143.78626699999998 147.683995,143.74286099999998 148.17582900000002,143.69435199999998 148.66763,143.64074 149.15939600000002,143.58202699999998 149.651123,143.51821299999997 150.142808,143.4493 150.63444900000002,143.37528899999998 151.126042,143.296181 151.61758500000002,143.211978 152.10907500000002,143.12268099999997 152.393424,143.06806699999999 154.44514600000002,146.48760399999998 155.500364,146.088621 153.687272,136.26770399999998 152.213456,136.56607699999998 151.741687,136.65668899999997 151.269973,136.74239199999997 150.798312,136.82318899999999 150.326701,136.89908099999997 149.855138,136.97007 149.383619,137.03615699999997 148.91214200000002,137.09734299999997 148.440704,137.15363 147.969301,137.20501799999997 147.497931,137.25150899999997 147.026591,137.29310299999997 146.555277,137.32980199999997 146.083986,137.361606 145.612715,137.38851599999998 145.141461,137.410533 144.67022,137.42765599999998 144.19899,137.43988699999997 143.727766,137.44722499999997 143.25654500000002,137.449672 142.785324,137.44722499999997 142.3141,137.43988699999997 141.84287,137.42765599999998 141.371629,137.410533 140.900375,137.38851599999998 140.429104,137.361606 139.95781300000002,137.32980199999997 139.486499,137.29310299999997 139.015159,137.25150899999997 138.543789,137.20501799999997 138.072386,137.15363 137.60094800000002,137.09734299999997 137.129471,137.03615699999997 136.657952,136.97007 136.18638900000002,136.89908099999997 135.714778,136.82318899999999 135.243117,136.74239199999997 134.77140300000002,136.65668899999997 134.299634,136.56607699999998 133.624505,136.429398 133.624505,142.96997199999998 133.91258,143.028293 134.40401500000002,143.12268099999997 132.844995,143.12268099999997 132.353505,143.211978 131.861962,143.296181 131.370369,143.37528899999998 130.878728,143.4493 130.387043,143.51821299999997 129.895316,143.58202699999998 129.40355,143.64074 128.91174900000001,143.69435199999998 128.419915,143.74286099999998 127.92805100000001,143.78626699999998 127.436161,143.82456799999997 126.944248,143.85776399999997 126.452315,143.885854 125.96036500000001,143.90883699999998 125.46840200000001,143.92671399999998 124.976428,143.939483 124.484448,143.94714499999998 123.99246500000001,143.94969799999998 123.500482,143.94714499999998 123.00850200000001,143.939483 122.51652800000001,143.92671399999998 122.02456500000001,143.90883699999998 121.532615,143.885854 121.040682,143.85776399999997 120.54876900000001,143.82456799999997 120.05687900000001,143.78626699999998 119.565015,143.74286099999998 119.073181,143.69435199999998 118.58138000000001,143.64074 118.08961400000001,143.58202699999998 117.59788700000001,143.51821299999997 117.10620200000001,143.4493 116.61456100000001,143.37528899999998 116.12296800000001,143.296181 115.63142500000001,143.211978 115.13993500000001,143.12268099999997 114.855586,143.06806699999999 112.803864,146.48760399999998 111.74864600000001,146.088621 113.561738,136.26770399999998 115.035554,136.56607699999998 115.50732300000001,136.65668899999997 115.979037,136.74239199999997 116.450698,136.82318899999999 116.92230900000001,136.89908099999997 117.393872,136.97007 117.865391,137.03615699999997 118.33686800000001,137.09734299999997 118.808306,137.15363 119.27970900000001,137.20501799999997 119.751079,137.25150899999997 120.222419,137.29310299999997 120.69373300000001,137.32980199999997 121.165024,137.361606 121.636295,137.38851599999998 122.107549,137.410533 122.57879000000001,137.42765599999998 123.05002,137.43988699999997 123.52124400000001,137.44722499999997 123.99246500000001,137.449672 124.46368600000001,137.44722499999997 124.93491,137.43988699999997 125.40614000000001,137.42765599999998 125.87738100000001,137.410533 126.348635,137.38851599999998 126.819906,137.361606 127.29119700000001,137.32980199999997 127.762511,137.29310299999997 128.23385100000002,137.25150899999997 128.705221,137.20501799999997 129.176624,137.15363 129.648062,137.09734299999997 130.119539,137.03615699999997 130.591058,136.97007 131.062621,136.89908099999997 131.534232,136.82318899999999 132.00589300000001,136.74239199999997 132.477607,136.65668899999997 132.949376,136.56607699999998 133.624505,136.429398 133.624505,142.96997199999998 133.33643,143.028293 132.844995,143.12268099999997" stroke="#1f6fb2" stroke-width="0.1" /><text fill="#0a3d62" font-family="sans-serif" font-size="1.6" text-anchor="middle" x="133.624505" y="141.37765399999998">07</text><polygon fill="#cfe3f7" fill-opacity="0.5" points="26.876185,158.25215099999997 27.407719999999998,158.32314399999998 27.939276,158.39008299999998 28.470852,158.45296699999997 29.002448,158.51179599999998 29.534062,158.56656999999998 30.065693,158.61728899999997 30.59734,158.66395099999997 31.129001,158.70655599999998 31.660674999999998,158.74510499999997 32.192361,158.77959699999997 32.724058,158.81003199999998 33.255764,158.83640899999997 33.787478,158.85872899999998 34.319198,158.87699099999998 34.850924,158.89119399999998 35.382654,158.90133999999998 35.914386,158.90742699999998 36.44612,158.90945599999998 36.977854,158.90742699999998 37.509586,158.90133999999998 38.041315999999995,158.89119399999998 38.573042,158.87699099999998 39.104762,158.85872899999998 39.636476,158.83640899999997 40.168182,158.81003199999998 40.699878999999996,158.77959699999997 41.231565,158.74510499999997 41.763239,158.70655599999998 42.2949,158.66395099999997 42.826547,158.61728899999997 43.358177999999995,158.56656999999998 43.889792,158.51179599999998 44.421388,158.45296699999997 44.952963999999994,158.39008299999998 45.48452,158.32314399999998 46.016054999999994,158.25215099999997 46.547566,158.17710499999998 47.92816,157.971637 47.92816,152.94960899999998 46.260549999999995,153.197793 45.743857,153.27074699999997 45.227188,153.33975399999997 44.710539999999995,153.40481499999999 44.193912,153.46593099999998 43.677304,153.523102 43.160714,153.576328 42.644141,153.62560899999997 42.127584,153.67094699999998 41.611041,153.71234199999998 41.094511,153.74979299999998 40.577993,153.783301 40.061486,153.81286599999999 39.544988000000004,153.83848899999998 39.028498,153.86016899999998 38.512014,153.877907 37.995536,153.89170399999998 37.479062,153.901558 36.96259,153.907471 36.44612,153.90944199999998 35.929649999999995,153.907471 35.413178,153.901558 34.896704,153.89170399999998 34.380226,153.877907 33.863742,153.86016899999998 33.347252,153.83848899999998 32.830754,153.81286599999999 32.314246999999995,153.783301 31.797729,153.74979299999998 31.281199,153.71234199999998 30.764656,153.67094699999998 30.248099,153.62560899999997 29.731526,153.576328 29.214935999999998,153.523102 28.698328,153.46593099999998 28.1817,153.40481499999999 27.665052,153.33975399999997 27.148383,153.27074699999997 26.63169,153.197793 25.96408,153.098435 25.96408,158.12046299999997 26.344673999999998,158.17710499999998 26.876185,158.25215099999997 25.051975,158.25215099999997 24.52044,158.32314399999998 23.988884,158.39008299999998 23.457307999999998,158.45296699999997 22.925711999999997,158.51179599999998 22.394098,158.56656999999998 21.862467,158.61728899999997 21.33082,158.66395099999997 20.799159,158.70655599999998 20.267485,158.74510499999997 19.735799,158.77959699999997 19.204102,158.81003199999998 18.672396,158.83640899999997 18.140681999999998,158.85872899999998 17.608962,158.87699099999998 17.077236,158.89119399999998 16.545506,158.90133999999998 16.013773999999998,158.90742699999998 15.48204,158.90945599999998 14.950306,158.90742699999998 14.418574,158.90133999999998 13.886844,158.89119399999998 13.355118,158.87699099999998 12.823398,158.85872899999998 12.291683999999998,158.83640899999997 11.759977999999998,158.81003199999998 11.228280999999999,158.77959699999997 10.696594999999999,158.74510499999997 10.164921,158.70655599999998 9.63326,158.66395099999997 9.101613,158.61728899999997 8.569982,158.56656999999998 8.038367999999998,158.51179599999998 7.506771999999998,158.45296699999997 6.975196,158.39008299999998 6.4436399999999985,158.32314399999998 5.912105,158.25215099999997 5.3805939999999985,158.17710499999998 4.0,157.971637 4.0,152.94960899999998 5.66761,153.197793 6.184303,153.27074699999997 6.700972,153.33975399999997 7.21762,153.40481499999999 7.734248000000001,153.46593099999998 8.250855999999999,153.523102 8.767446,153.576328 9.284019,153.62560899999997 9.800576,153.67094699999998 10.317119,153.71234199999998 10.833649,153.74979299999998 11.350166999999999,153.783301 11.866674,153.81286599999999 12.383171999999998,153.83848899999998 12.899662,153.86016899999998 13.416146,153.877907 13.932623999999999,153.89170399999998 14.449098,153.901558 14.96557,153.907471 15.48204,153.90944199999998 15.99851,153.907471 16.514982,153.901558 17.031456,153.89170399999998 17.547933999999998,153.877907 18.064418,153.86016899999998 18.580908,153.83848899999998 19.097406,153.81286599999999 19.613913,153.783301 20.130430999999998,153.74979299999998 20.646960999999997,153.71234199999998 21.163504,153.67094699999998 21.680061,153.62560899999997 22.196634,153.576328 22.713224,153.523102 23.229832,153.46593099999998 23.74646,153.40481499999999 24.263108,153.33975399999997 24.779777,153.27074699999997 25.29647,153.197793 25.96408,153.098435 25.96408,158.12046299999997 25.583486,158.17710499999998 25.051975,158.25215099999997" stroke="#1f6fb2" stroke-width="0.1" /><text fill="#0a3d62" font-family="sans-serif" font-size="1.6" text-anchor="middle" x="25.96408" y="155.9295325">08</text><polygon fill="#cfe3f7" fill-opacity="0.5" points="48.92816,156.59873599999997 48.950314999999996,156.82367899999997 49.030257999999996,157.08721699999998 49.160078999999996,157.33009499999997 49.334789,157.54297999999997 49.547674,157.71768999999998 49.790552,157.84751099999997 50.054089999999995,157.92745399999998 50.279033,157.94960899999998 61.577287,157.94960899999998 61.802229999999994,157.92745399999998 62.065768,157.84751099999997 62.308645999999996,157.71768999999998 62.521530999999996,157.54297999999997 62.696241,157.33009499999997 62.826062,157.08721699999998 62.906005,156.82367899999997 62.92816,156.59873599999997 62.92816,154.300482 62.906005,154.075539 62.826062,153.81200099999998 62.696241,153.569123 62.521530999999996,153.356238 62.308645999999996,153.181528 62.065768,153.051707 61.802229999999994,152.97176399999998 61.577287,152.94960899999998 50.279033,152.94960899999998 50.054089999999995,152.97176399999998 49.790552,153.051707 49.547674,153.181528 49.334789,153.356238 49.160078999999996,153.569123 49.030257999999996,153.81200099999998 48.950314999999996,154.075539 48.92816,154.300482 48.92816,156.59873599999997" stroke="#1f6fb2" stroke-width="0.1" /><text fill="#0a3d62" font-family="sans-serif" font-size="1.6" text-anchor="middle" x="55.92816" y="155.44960899999998">06</text><polygon fill="#cfe3f7" fill-opacity="0.5" points="63.92816,156.59873599999997 63.950314999999996,156.82367899999997 64.030258,157.08721699999998 64.160079,157.33009499999997 64.334789,157.54297999999997 64.547674,157.71768999999998 64.790552,157.84751099999997 65.05409,157.92745399999998 65.279033,157.94960899999998 76.577287,157.94960899999998 76.80223,157.92745399999998 77.06576799999999,157.84751099999997 77.308646,157.71768999999998 77.521531,157.54297999999997 77.696241,157.33009499999997 77.826062,157.08721699999998 77.906005,156.82367899999997 77.92815999999999,156.59873599999997 77.92815999999999,154.300482 77.906005,154.075539 77.826062,153.81200099999998 77.696241,153.569123 77.521531,153.356238 77.308646,153.181528 77.06576799999999,153.051707 76.80223,152.97176399999998 76.577287,152.94960899999998 65.279033,152.94960899999998 65.05409,152.97176399999998 64.790552,153.051707 64.547674,153.181528 64.334789,153.356238 64.160079,153.569123 64.030258,153.81200099999998 63.950314999999996,154.075539 63.92816,154.300482 63.92816,156.59873599999997" stroke="#1f6fb2" stroke-width="0.1" /><text fill="#0a3d62" font-family="sans-serif" font-size="1.6" text-anchor="middle" x="70.92815999999999" y="155.44960899999998">06</text></svg>