<?xml version="1.0" encoding="utf-8" ?>
<svg baseProfile="full" height="149.839485cm" version="1.1" viewBox="0 0 118.0 149.839485" width="118.0cm" xmlns="http://www.w3.org/2000/svg" xmlns:ev="http://www.w3.org/2001/xml-events" xmlns:xlink="http://www.w3.org/1999/xlink"><defs /><rect fill="#f7f3ea" height="141.839485" stroke="#333" stroke-width="0.15" width="110.0" x="4.0" y="4.0" /><text fill="#000" font-family="sans-serif" font-size="1.4" x="4.0" y="3.0">PLANO DE CORTE — ancho 110 cm — largo 1.42 m</text><polygon fill="#cfe3f7" fill-opacity="0.5" points="8.603537000000001,66.004613 34.432241,66.004613 39.044742,14.559622999999998 38.338398999999995,13.774989999999999 37.917592,13.312847999999999 37.488116,12.851835999999999 37.047919,12.395239 36.597245,11.9474 36.138323,11.51006 35.672148,11.082705 35.19934,10.664458 34.720508,10.254439 34.236247,9.851766999999999 33.747142,9.455561 33.253769,9.064943 32.756689,8.679036 32.255796000000004,8.296466 31.749057,7.915755 31.233977,7.538259 30.709418,7.1668959999999995 30.174402999999998,6.804792 29.6279,6.4551289999999995 29.068843,6.121163 28.496148,5.80625 27.908752,5.513857 27.305661,5.24759 26.687530000000002,5.011762 26.059449,4.809616 25.427158,4.638591 24.792906000000002,4.494111 24.158237,4.371542 23.52457,4.266382 22.893254,4.174272 22.265622,4.0909949999999995 21.544124,4.0 20.808963,4.05394 20.168217,4.104962 19.523647,4.164405 18.8764,4.236438 18.227627,4.325369 17.578525,4.435643 16.930396000000002,4.57184 16.284807,4.738636 15.645945000000001,4.939882 15.019679,5.174805 14.408314,5.439152 13.811256,5.729414 13.227674,6.042254 12.656686,6.374447 12.097394,6.722872 11.548913,7.084489 11.010392,7.456322999999999 10.481016,7.835451 9.959197,8.2196 9.441979,8.609293000000001 8.928751,9.007759 8.421351,9.417183999999999 7.9219930000000005,9.839547 7.432948,10.276864 6.956562,10.731176 6.495274,11.204525 6.051633000000001,11.698924 5.628798,12.215724 5.232445000000002,12.750982 4.862674000000002,13.294198000000002 4.513476000000001,13.837394 4.0,14.659607999999999 8.603537000000001,66.004613" stroke="#1f6fb2" stroke-width="0.1" /><text fill="#0a3d62" font-family="sans-serif" font-size="1.6" text-anchor="middle" x="21.522371" y="35.0023065">04</text><polygon fill="#cfe3f7" fill-opacity="0.5" points="44.648279,66.004613 70.47698299999999,66.004613 75.089484,14.559622999999998 74.383141,13.774989999999999 73.962334,13.312847999999999 73.532858,12.851835999999999 73.09266099999999,12.395239 72.641987,11.9474 72.183065,11.51006 71.71689,11.082705 71.24408199999999,10.664458 70.76525000000001,10.254439 70.280989,9.851766999999999 69.791884,9.455561 69.29851099999999,9.064943 68.80143100000001,8.679036 68.300538,8.296466 67.793799,7.915755 67.278719,7.538259 66.75416,7.1668959999999995 66.219145,6.804792 65.672642,6.4551289999999995 65.113585,6.121163 64.54089,5.80625 63.953494,5.513857 63.350403,5.24759 62.732272,5.011762 62.104191,4.809616 61.4719,4.638591 60.837648,4.494111 60.202979,4.371542 59.569312,4.266382 58.937996,4.174272 58.310364,4.0909949999999995 57.588865999999996,4.0 56.853705,4.05394 56.212959,4.104962 55.568388999999996,4.164405 54.921142,4.236438 54.272369,4.325369 53.623267,4.435643 52.975138,4.57184 52.329549,4.738636 51.690687,4.939882 51.064420999999996,5.174805 50.453056000000004,5.439152 49.855998,5.729414 49.272416,6.042254 48.701428,6.374447 48.142136,6.722872 47.593655,7.084489 47.055133999999995,7.456322999999999 46.525757999999996,7.835451 46.003939,8.2196 45.486721,8.609293000000001 44.973493,9.007759 44.466093,9.417183999999999 43.966735,9.839547 43.477689999999996,10.276864 43.001304,10.731176 42.540016,11.204525 42.096375,11.698924 41.67354,12.215724 41.277187,12.750982 40.907416,13.294198000000002 40.558218,13.837394 40.044742,14.659607999999999 44.648279,66.004613" stroke="#1f6fb2" stroke-width="0.1" /><text fill="#0a3d62" font-family="sans-serif" font-size="1.6" text-anchor="middle" x="57.567113" y="35.0023065">04</text><polygon fill="#cfe3f7" fill-opacity="0.5" points="76.089484,13.667704 76.089484,48.967704000000005 83.91469,48.967704000000005 83.690661,17.827772 87.914406,5.262131 85.390145,4.0 84.69403199999999,4.928368 84.498293,5.189983 84.302478,5.452847 84.106866,5.717166 83.91174,5.98315 83.717384,6.251011999999999 83.524087,6.520965 83.33214,6.793221 83.141839,7.067997 82.95348,7.345508 82.767366,7.6259689999999996 82.583803,7.909597 82.403099,8.196606 82.225726,8.486951000000001 82.052787,8.779094 81.884562,9.070626 81.720234,9.360295 81.558759,9.647313 81.399137,9.930903 81.240411,10.210297 81.081668,10.484739000000001 80.922037,10.753489 80.760687,11.015827 80.596825,11.271062 80.42969,11.518545 80.258542,11.757678 80.082645,11.987943000000001 79.900353,12.210004 79.708888,12.426846 79.507134,12.641195 79.295762,12.853889 79.075696,13.065588 78.847926,13.27698 78.613495,13.488792 78.411909,13.667704 76.089484,13.667704" stroke="#1f6fb2" stroke-width="0.1" /><text fill="#0a3d62" font-family="sans-serif" font-size="1.6" text-anchor="middle" x="82.001945" y="26.483852000000002">09</text><polygon fill="#cfe3f7" fill-opacity="0.5" points="88.914406,13.667704 88.914406,48.967704000000005 96.739612,48.967704000000005 96.51558299999999,17.827772 100.739328,5.262131 98.215067,4.0 97.51895400000001,4.928368 97.323215,5.189983 97.1274,5.452847 96.931788,5.717166 96.736662,5.98315 96.542306,6.251011999999999 96.349009,6.520965 96.157062,6.793221 95.966761,7.067997 95.778402,7.345508 95.592288,7.6259689999999996 95.408725,7.909597 95.228021,8.196606 95.050648,8.486951000000001 94.877709,8.779094 94.709484,9.070626 94.545156,9.360295 94.383681,9.647313 94.224059,9.930903 94.065333,10.210297 93.90659,10.484739000000001 93.746959,10.753489 93.585609,11.015827 93.421747,11.271062 93.254612,11.518545 93.08346399999999,11.757678 92.907567,11.987943000000001 92.725275,12.210004 92.53381,12.426846 92.332056,12.641195 92.120684,12.853889 91.900618,13.065588 91.672848,13.27698 91.438417,13.488792 91.236831,13.667704 88.914406,13.667704" stroke="#1f6fb2" stroke-width="0.1" /><text fill="#0a3d62" font-family="sans-serif" font-size="1.6" text-anchor="middle" x="94.826867" y="26.483852000000002">09</text><polygon fill="#cfe3f7" fill-opacity="0.5" points="4.0,76.63768 4.0,111.93768 31.7,111.93768 31.7,89.861974 31.100672,89.176956 30.746677,88.77309600000001 30.390684,88.368449 30.03155,87.962462 29.668433,87.55493200000001 29.300496,87.145661 28.926906,86.734458 28.546843,86.321149 28.160414,85.906524 27.771075,85.49269600000001 27.384597,85.08065 27.005541,84.669914 26.638339,84.26008 26.287416999999998,83.85096 25.957145,83.442586 25.651775999999998,83.035222 25.375339999999998,82.629337 25.131521,82.225553 24.923496,81.82450100000001 24.753785999999998,81.426536 24.623387,81.028901 24.5304,80.62353800000001 24.471646,80.20412800000001 24.445508,79.769209 24.450623999999998,79.318527 24.485547999999998,78.85246000000001 24.54861,78.371835 24.63787,77.87775 24.751132,77.37142800000001 24.885973,76.85412400000001 25.039794999999998,76.32706300000001 25.209865,75.791403 25.393345999999998,75.24822 25.587334,74.69849900000001 25.788868,74.143134 26.320404,72.69823000000001 13.274689,67.004613 12.604548000000001,67.89834400000001 12.408809,68.159959 12.212994,68.42282300000001 12.017382000000001,68.68714200000001 11.822256,68.95312600000001 11.6279,69.220988 11.434603,69.490941 11.242656,69.763197 11.052355,70.03797300000001 10.863996,70.31548400000001 10.677882,70.595945 10.494319,70.87957300000001 10.313615,71.166582 10.136242,71.45692700000001 9.963303,71.74907 9.795078,72.040602 9.63075,72.33027100000001 9.469275,72.617289 9.309653,72.900879 9.150927,73.180273 8.992184,73.45471500000001 8.832553,73.723465 8.671203,73.985803 8.507341,74.241038 8.340206,74.488521 8.169058,74.727654 7.993161000000001,74.957919 7.810869,75.17998 7.619404,75.396822 7.41765,75.61117100000001 7.206278,75.82386500000001 6.986212,76.03556400000001 6.7584420000000005,76.24695600000001 6.524011,76.458768 6.322425,76.63768 4.0,76.63768" stroke="#1f6fb2" stroke-width="0.1" /><text fill="#0a3d62" font-family="sans-serif" font-size="1.6" text-anchor="middle" x="17.85" y="89.4711465">01</text><polygon fill="#cfe3f7" fill-opacity="0.5" points="32.7,76.63768 32.7,111.93768 60.400000000000006,111.93768 60.400000000000006,89.861974 59.800672000000006,89.176956 59.446677,88.77309600000001 59.090684,88.368449 58.73155,87.962462 58.368433,87.55493200000001 58.000496,87.145661 57.626906000000005,86.734458 57.246843,86.321149 56.860414000000006,85.906524 56.471075,85.49269600000001 56.084597,85.08065 55.705541000000004,84.669914 55.338339000000005,84.26008 54.987417,83.85096 54.657145,83.442586 54.351776,83.035222 54.07534,82.629337 53.831521,82.225553 53.623496,81.82450100000001 53.453786,81.426536 53.323387000000004,81.028901 53.2304,80.62353800000001 53.171646,80.20412800000001 53.14550800000001,79.769209 53.150624,79.318527 53.185548,78.85246000000001 53.24861,78.371835 53.33787,77.87775 53.451132,77.37142800000001 53.585973,76.85412400000001 53.739795,76.32706300000001 53.909865,75.791403 54.093346,75.24822 54.287334,74.69849900000001 54.488868000000004,74.143134 55.020404,72.69823000000001 41.974689000000005,67.004613 41.304548000000004,67.89834400000001 41.108809,68.159959 40.912994000000005,68.42282300000001 40.717382,68.68714200000001 40.522256000000006,68.95312600000001 40.3279,69.220988 40.134603000000006,69.490941 39.942656,69.763197 39.752355,70.03797300000001 39.563996,70.31548400000001 39.377882,70.595945 39.19431900000001,70.87957300000001 39.013615,71.166582 38.836242000000006,71.45692700000001 38.663303,71.74907 38.49507800000001,72.040602 38.33075,72.33027100000001 38.169275,72.617289 38.009653,72.900879 37.850927000000006,73.180273 37.692184000000005,73.45471500000001 37.53255300000001,73.723465 37.371203,73.985803 37.207341,74.241038 37.040206000000005,74.488521 36.869058,74.727654 36.693161,74.957919 36.510869,75.17998 36.319404000000006,75.396822 36.117650000000005,75.61117100000001 35.906278,75.82386500000001 35.686212000000005,76.03556400000001 35.458442000000005,76.24695600000001 35.224011000000004,76.458768 35.022425000000005,76.63768 32.7,76.63768" stroke="#1f6fb2" stroke-width="0.1" /><text fill="#0a3d62" font-family="sans-serif" font-size="1.6" text-anchor="middle" x="46.550000000000004" y="89.4711465">01</text><polygon fill="#cfe3f7" fill-opacity="0.5" points="110.65633399999999,78.581023 110.367847,78.144957 110.07936799999999,77.708093 109.79084499999999,77.27008500000001 109.50222600000001,76.83058500000001 109.21346,76.38924700000001 108.924504,75.94574 108.635746,75.500349 108.348979,75.054125 108.066721,74.60766500000001 107.79108199999999,74.16091700000001 107.52412899999999,73.713835 107.26790299999999,73.266418 107.02441300000001,72.818706 106.79562,72.370771 106.58342999999999,71.92270900000001 106.389674,71.47462100000001 106.216095,71.026595 106.06434200000001,70.578669 105.935945,70.130741 105.83189300000001,69.68085300000001 105.751451,69.22507200000001 105.69283300000001,68.76120200000001 105.654642,68.28917700000001 105.603386,67.004613 86.4,67.004613 86.4,107.224613 111.4,107.224613 111.4,79.70330100000001 110.94488,79.016638 110.65633399999999,78.581023 62.143665999999996,78.581023 62.432153,78.144957 62.720631999999995,77.708093 63.009155,77.27008500000001 63.297774,76.83058500000001 63.58654,76.38924700000001 63.875496,75.94574 64.164254,75.500349 64.451021,75.054125 64.733279,74.60766500000001 65.008918,74.16091700000001 65.275871,73.713835 65.532097,73.266418 65.775587,72.818706 66.00438,72.370771 66.21656999999999,71.92270900000001 66.410326,71.47462100000001 66.583905,71.026595 66.735658,70.578669 66.864055,70.130741 66.968107,69.68085300000001 67.048549,69.22507200000001 67.107167,68.76120200000001 67.145358,68.28917700000001 67.196614,67.004613 86.4,67.004613 86.4,107.224613 61.4,107.224613 61.4,79.70330100000001 61.85512,79.016638 62.143665999999996,78.581023" stroke="#1f6fb2" stroke-width="0.1" /><text fill="#0a3d62" font-family="sans-serif" font-size="1.6" text-anchor="middle" x="86.4" y="87.114613">02</text><polygon fill="#cfe3f7" fill-opacity="0.5" points="4.0,124.209585 11.0,128.619585 18.0,124.209585 18.0,112.93768 4.0,112.93768 4.0,124.209585" stroke="#1f6fb2" stroke-width="0.1" /><text fill="#0a3d62" font-family="sans-serif" font-size="1.6" text-anchor="middle" x="11.0" y="120.7786325">10</text><polygon fill="#cfe3f7" fill-opacity="0.5" points="19.0,125.186807 19.029841,125.489787 19.132547,125.828362 19.299332,126.140395 19.523786,126.413894 19.797285,126.63834800000001 20.109318000000002,126.805133 20.447893,126.907839 20.750873,126.93768 42.249127,126.93768 42.552107,126.907839 42.890682,126.805133 43.202715,126.63834800000001 43.476214,126.413894 43.700668,126.140395 43.867453,125.828362 43.970158999999995,125.489787 44.0,125.186807 44.0,114.688553 43.970158999999995,114.385573 43.867453,114.046998 43.700668,113.734965 43.476214,113.461466 43.202715,113.23701200000001 42.890682,113.070227 42.552107,112.967521 42.249127,112.93768 20.750873,112.93768 20.447893,112.967521 20.109318000000002,113.070227 19.797285,113.23701200000001 19.523786,113.461466 19.299332,113.734965 19.132547,114.046998 19.029841,114.385573 19.0,114.688553 19.0,125.186807" stroke="#1f6fb2" stroke-width="0.1" /><text fill="#0a3d62" font-family="sans-serif" font-size="1.6" text-anchor="middle" x="31.5" y="119.93768">05</text><polygon fill="#cfe3f7" fill-opacity="0.5" points="45.0,125.186807 45.029841,125.489787 45.132547,125.828362 45.299332,126.140395 45.523786,126.413894 45.797285,126.63834800000001 46.109318,126.805133 46.447893,126.907839 46.750873,126.93768 68.249127,126.93768 68.552107,126.907839 68.890682,126.805133 69.202715,126.63834800000001 69.476214,126.413894 69.70066800000001,126.140395 69.867453,125.828362 69.970159,125.489787 70.0,125.186807 70.0,114.688553 69.970159,114.385573 69.867453,114.046998 69.70066800000001,113.734965 69.476214,113.461466 69.202715,113.23701200000001 68.890682,113.070227 68.552107,112.967521 68.249127,112.93768 46.750873,112.93768 46.447893,112.967521 46.109318,113.070227 45.797285,113.23701200000001 45.523786,113.461466 45.299332,113.734965 45.132547,114.046998 45.029841,114.385573 45.0,114.688553 45.0,125.186807" stroke="#1f6fb2" stroke-width="0.1" /><text fill="#0a3d62" font-family="sans-serif" font-size="1.6" text-anchor="middle" x="57.5" y="119.93768">05</text><polygon fill="#cfe3f7" fill-opacity="0.5" points="110.109812,123.863744 110.10827,123.376063 110.12286,122.88108 110.152042,122.379229 110.194218,121.870976 110.247736,121.356801 110.310889,120.837185 110.381927,120.312598 110.459058,119.783492 110.540457,119.250295 110.74864600000001,117.916566 97.845692,112.93768 97.20658399999999,113.371791 97.003755,113.50828 96.803425,113.640578 96.605097,113.767877 96.40829099999999,113.889427 96.21253300000001,114.004539 96.016683,114.112957 95.81873300000001,114.215231 95.617676,114.31187 95.4137,114.402781 95.207108,114.487819 94.998204,114.566843 94.787293,114.63972 94.574684,114.706321 94.36068399999999,114.766522 94.145601,114.820208 93.929644,114.867289 93.712166,114.907878 93.49201500000001,114.942465 93.26876200000001,114.97154 93.04241,114.995525 92.81299,115.014853 92.580557,115.029972 92.345178,115.041346 92.106932,115.049458 91.865904,115.054806 91.62218200000001,115.05791 91.375856,115.059302 91.12701200000001,115.059537 90.874323,115.05918 90.874323,125.059181 110.157512,125.059181 110.109812,123.863744 71.638834,123.863744 71.640376,123.376063 71.625786,122.88108 71.596604,122.379229 71.554428,121.870976 71.50091,121.356801 71.437757,120.837185 71.366719,120.312598 71.28958800000001,119.783492 71.208189,119.250295 71.0,117.916566 83.902954,112.93768 84.542062,113.371791 84.744891,113.50828 84.945221,113.640578 85.14354900000001,113.767877 85.340355,113.889427 85.536113,114.004539 85.73196300000001,114.112957 85.929913,114.215231 86.13097,114.31187 86.334946,114.402781 86.541538,114.487819 86.75044199999999,114.566843 86.961353,114.63972 87.173962,114.706321 87.387962,114.766522 87.60304500000001,114.820208 87.819002,114.867289 88.03648,114.907878 88.256631,114.942465 88.479884,114.97154 88.706236,114.995525 88.935656,115.014853 89.16808900000001,115.029972 89.403468,115.041346 89.64171400000001,115.049458 89.88274200000001,115.054806 90.126464,115.05791 90.37279000000001,115.059302 90.621634,115.059537 90.874323,115.05918 90.874323,125.059181 71.591134,125.059181 71.638834,123.863744" stroke="#1f6fb2" stroke-width="0.1" /><text fill="#0a3d62" font-family="sans-serif" font-size="1.6" text-anchor="middle" x="90.874323" y="118.9984305">03</text><polygon fill="#cfe3f7" fill-opacity="0.5" points="26.655368999999997,136.474562 27.146859,136.563859 27.638402,136.648062 28.129994999999997,136.72717 28.621636,136.801181 29.113321,136.870094 29.605047999999996,136.933908 30.096814,136.992621 30.588614999999997,137.046233 31.080448999999998,137.094742 31.572312999999998,137.138148 32.064203,137.176449 32.556116,137.209645 33.048049,137.237735 33.539998999999995,137.260718 34.031962,137.278595 34.523936,137.291364 35.015916,137.299026 35.507898999999995,137.301579 35.999882,137.299026 36.491862,137.291364 36.983836,137.278595 37.475798999999995,137.260718 37.967749,137.237735 38.459682,137.209645 38.951595,137.176449 39.443484999999995,137.138148 39.935349,137.094742 40.427183,137.046233 40.918983999999995,136.992621 41.41075,136.933908 41.902477,136.870094 42.394161999999994,136.801181 42.885802999999996,136.72717 43.377396,136.648062 43.868939,136.563859 44.360428999999996,136.474562 44.644778,136.419948 46.6965,139.839485 47.751718,139.440502 45.938626,129.619585 44.46481,129.917958 43.993041,130.00857 43.521327,130.094273 43.049666,130.17507 42.578055,130.250962 42.106492,130.321951 41.634973,130.388038 41.163495999999995,130.449224 40.692057999999996,130.505511 40.220655,130.556899 39.749285,130.60339 39.277945,130.644984 38.806630999999996,130.681683 38.33534,130.713487 37.864069,130.740397 37.392815,130.762414 36.921574,130.779537 36.450344,130.791768 35.979119999999995,130.799106 35.507898999999995,130.801553 35.036677999999995,130.799106 34.565454,130.791768 34.094224,130.779537 33.622983,130.762414 33.151729,130.740397 32.680458,130.713487 32.209166999999994,130.681683 31.737852999999998,130.644984 31.266512999999996,130.60339 30.795143,130.556899 30.323739999999997,130.505511 29.852301999999998,130.449224 29.380824999999998,130.388038 28.909305999999997,130.321951 28.437742999999998,130.250962 27.966131999999998,130.17507 27.494470999999997,130.094273 27.022757,130.00857 26.550987999999997,129.917958 25.875859,129.781279 25.875859,136.321853 26.163933999999998,136.380174 26.655368999999997,136.474562 25.096349,136.474562 24.604858999999998,136.563859 24.113315999999998,136.648062 23.621723,136.72717 23.130081999999998,136.801181 22.638396999999998,136.870094 22.14667,136.933908 21.654904,136.992621 21.163103,137.046233 20.671269,137.094742 20.179405,137.138148 19.687514999999998,137.176449 19.195601999999997,137.209645 18.703668999999998,137.237735 18.211719,137.260718 17.719755999999997,137.278595 17.227781999999998,137.291364 16.735802,137.299026 16.243819,137.301579 15.751835999999999,137.299026 15.259856,137.291364 14.767881999999998,137.278595 14.275918999999998,137.260718 13.783968999999999,137.237735 13.292035999999998,137.209645 12.800123,137.176449 12.308232999999998,137.138148 11.816368999999998,137.094742 11.324535,137.046233 10.832733999999999,136.992621 10.340967999999998,136.933908 9.849241,136.870094 9.357555999999999,136.801181 8.865914999999998,136.72717 8.374322,136.648062 7.882778999999999,136.563859 7.391288999999997,136.474562 7.106939999999998,136.419948 5.055218,139.839485 4.0,139.440502 5.8130919999999975,129.619585 7.286907999999997,129.917958 7.758676999999999,130.00857 8.230390999999997,130.094273 8.702051999999998,130.17507 9.173662999999998,130.250962 9.645225999999997,130.321951 10.116744999999998,130.388038 10.588221999999998,130.449224 11.05966,130.505511 11.531062999999998,130.556899 12.002432999999998,130.60339 12.473772999999998,130.644984 12.945087,130.681683 13.416377999999998,130.713487 13.887648999999998,130.740397 14.358902999999998,130.762414 14.830143999999999,130.779537 15.301374,130.791768 15.772597999999999,130.799106 16.243819,130.801553 16.71504,130.799106 17.186263999999998,130.791768 17.657494,130.779537 18.128735,130.762414 18.599988999999997,130.740397 19.07126,130.713487 19.542551,130.681683 20.013865,130.644984 20.485205,130.60339 20.956574999999997,130.556899 21.427978,130.505511 21.899416,130.449224 22.370893,130.388038 22.842412,130.321951 23.313975,130.250962 23.785586,130.17507 24.257247,130.094273 24.728960999999998,130.00857 25.20073,129.917958 25.875859,129.781279 25.875859,136.321853 25.587784,136.380174 25.096349,136.474562" stroke="#1f6fb2" stroke-width="0.1" /><text fill="#0a3d62" font-family="sans-serif" font-size="1.6" text-anchor="middle" x="25.875859" y="134.729535">07</text><polygon fill="#cfe3f7" fill-opacity="0.5" points="71.627903,134.922127 72.159438,134.99312 72.69099399999999,135.060059 73.22256999999999,135.122943 73.754166,135.181772 74.28577999999999,135.236546 74.81741099999999,135.287265 75.349058,135.333927 75.880719,135.376532 76.412393,135.415081 76.94407899999999,135.449573 77.475776,135.480008 78.007482,135.506385 78.539196,135.528705 79.070916,135.546967 79.602642,135.56117 80.134372,135.571316 80.66610399999999,135.577403 81.19783799999999,135.579432 81.72957199999999,135.577403 82.261304,135.571316 82.79303399999999,135.56117 83.32476,135.546967 83.85648,135.528705 84.388194,135.506385 84.9199,135.480008 85.45159699999999,135.449573 85.983283,135.415081 86.514957,135.376532 87.046618,135.333927 87.57826499999999,135.287265 88.10989599999999,135.236546 88.64151,135.181772 89.17310599999999,135.122943 89.70468199999999,135.060059 90.236238,134.99312 90.76777299999999,134.922127 91.299284,134.847081 92.679878,134.641613 92.679878,129.619585 91.01226799999999,129.867769 90.495575,129.940723 89.978906,130.00973 89.46225799999999,130.074791 88.94563,130.135907 88.429022,130.193078 87.912432,130.246304 87.395859,130.295585 86.879302,130.340923 86.362759,130.382318 85.846229,130.419769 85.329711,130.453277 84.813204,130.482842 84.296706,130.508465 83.780216,130.530145 83.263732,130.547883 82.747254,130.56168 82.23078,130.571534 81.71430799999999,130.577447 81.19783799999999,130.579418 80.68136799999999,130.577447 80.164896,130.571534 79.648422,130.56168 79.131944,130.547883 78.61546,130.530145 78.09897,130.508465 77.582472,130.482842 77.06596499999999,130.453277 76.549447,130.419769 76.032917,130.382318 75.516374,130.340923 74.999817,130.295585 74.483244,130.246304 73.96665399999999,130.193078 73.450046,130.135907 72.93341799999999,130.074791 72.41677,130.00973 71.90010099999999,129.940723 71.383408,129.867769 70.71579799999999,129.76841100000001 70.71579799999999,134.790439 71.096392,134.847081 71.627903,134.922127 69.803693,134.922127 69.27215799999999,134.99312 68.740602,135.060059 68.209026,135.122943 67.67742999999999,135.181772 67.145816,135.236546 66.61418499999999,135.287265 66.082538,135.333927 65.550877,135.376532 65.019203,135.415081 64.487517,135.449573 63.955819999999996,135.480008 63.424113999999996,135.506385 62.892399999999995,135.528705 62.360679999999995,135.546967 61.828953999999996,135.56117 61.297224,135.571316 60.765491999999995,135.577403 60.233757999999995,135.579432 59.702023999999994,135.577403 59.170291999999996,135.571316 58.63856199999999,135.56117 58.106835999999994,135.546967 57.575115999999994,135.528705 57.04340199999999,135.506385 56.51169599999999,135.480008 55.97999899999999,135.449573 55.448313,135.415081 54.916638999999996,135.376532 54.384978,135.333927 53.853331,135.287265 53.32169999999999,135.236546 52.790085999999995,135.181772 52.258489999999995,135.122943 51.726913999999994,135.060059 51.195358,134.99312 50.663822999999994,134.922127 50.132312,134.847081 48.751718,134.641613 48.751718,129.619585 50.41932799999999,129.867769 50.936021,129.940723 51.45269,130.00973 51.96933799999999,130.074791 52.485966,130.135907 53.002573999999996,130.193078 53.519163999999996,130.246304 54.035737,130.295585 54.552293999999996,130.340923 55.068836999999995,130.382318 55.585367,130.419769 56.101884999999996,130.453277 56.618392,130.482842 57.13489,130.508465 57.651379999999996,130.530145 58.167863999999994,130.547883 58.684341999999994,130.56168 59.200815999999996,130.571534 59.717287999999996,130.577447 60.233757999999995,130.579418 60.75022799999999,130.577447 61.2667,130.571534 61.783173999999995,130.56168 62.299651999999995,130.547883 62.816136,130.530145 63.332626,130.508465 63.849123999999996,130.482842 64.365631,130.453277 64.882149,130.419769 65.39867899999999,130.382318 65.915222,130.340923 66.43177899999999,130.295585 66.948352,130.246304 67.464942,130.193078 67.98155,130.135907 68.498178,130.074791 69.014826,130.00973 69.53149499999999,129.940723 70.048188,129.867769 70.71579799999999,129.76841100000001 70.71579799999999,134.790439 70.335204,134.847081 69.803693,134.922127" stroke="#1f6fb2" stroke-width="0.1" /><text fill="#0a3d62" font-family="sans-serif" font-size="1.6" text-anchor="middle" x="70.71579799999999" y="132.5995085">08</text><polygon fill="#cfe3f7" fill-opacity="0.5" points="93.679878,133.268712 93.702033,133.493655 93.781976,133.757193 93.911797,134.000071 94.086507,134.212956 94.299392,134.387666 94.54227,134.517487 94.805808,134.59743 95.03075100000001,134.619585 106.329005,134.619585 106.553948,134.59743 106.817486,134.517487 107.060364,134.387666 107.273249,134.212956 107.447959,134.000071 107.57778,133.757193 107.657723,133.493655 107.679878,133.268712 107.679878,130.970458 107.657723,130.745515 107.57778,130.481977 107.447959,130.239099 107.273249,130.026214 107.060364,129.851504 106.817486,129.721683 106.553948,129.64174 106.329005,129.619585 95.03075100000001,129.619585 94.805808,129.64174 94.54227,129.721683 94.299392,129.851504 94.086507,130.026214 93.911797,130.239099 93.781976,130.481977 93.702033,130.745515 93.679878,130.970458 93.679878,133.268712" stroke="#1f6fb2" stroke-width="0.1" /><text fill="#0a3d62" font-family="sans-serif" font-size="1.6" text-anchor="middle" x="100.679878" y="132.119585">06</text><polygon fill="#cfe3f7" fill-opacity="0.5" points="4.0,144.488612 4.022155,144.71355499999999 4.102098,144.977093 4.2319189999999995,145.219971 4.406629,145.432856 4.619514,145.607566 4.862392,145.73738699999998 5.12593,145.81733 5.350873,145.839485 16.649127,145.839485 16.87407,145.81733 17.137608,145.73738699999998 17.380485999999998,145.607566 17.593370999999998,145.432856 17.768081000000002,145.219971 17.897902000000002,144.977093 17.977845000000002,144.71355499999999 18.0,144.488612 18.0,142.190358 17.977845000000002,141.965415 17.897902000000002,141.701877 17.768081000000002,141.458999 17.593370999999998,141.246114 17.380485999999998,141.071404 17.137608,140.941583 16.87407,140.86164 16.649127,140.839485 5.350873,140.839485 5.12593,140.86164 4.862392,140.941583 4.619514,141.071404 4.406629,141.246114 4.2319189999999995,141.458999 4.102098,141.701877 4.022155,141.965415 4.0,142.190358 4.0,144.488612" stroke="#1f6fb2" stroke-width="0.1" /><text fill="#0a3d62" font-family="sans-serif" font-size="1.6" text-anchor="middle" x="11.0" y="143.339485">06</text></svg>