<?xml version="1.0" encoding="utf-8" ?>
<svg baseProfile="full" height="114.173924cm" version="1.1" viewBox="0 0 168.0 114.173924" width="168.0cm" xmlns="http://www.w3.org/2000/svg" xmlns:ev="http://www.w3.org/2001/xml-events" xmlns:xlink="http://www.w3.org/1999/xlink"><defs /><rect fill="#f7f3ea" height="106.173924" stroke="#333" stroke-width="0.15" width="160.0" x="4.0" y="4.0" /><text fill="#000" font-family="sans-serif" font-size="1.4" x="4.0" y="3.0">PLANO DE CORTE — ancho 160 cm — largo 1.06 m</text><polygon fill="#cfe3f7" fill-opacity="0.5" points="8.101318,66.00359399999999 33.95138,66.00359399999999 38.060759000000004,13.323665 37.324195,12.583144 36.904945999999995,12.166549 36.477041,11.75121 36.038792,11.34058 35.591009,10.938876 35.136033,10.547537 34.674742,10.16598 34.207718,9.793364 33.735531,9.428844 33.258739,9.071578 32.777889,8.720724 32.293519,8.375443 31.806133,8.034885 31.315243000000002,7.697569 30.818648,7.362601 30.314389,7.031548 29.801676999999998,6.706991 29.279761,6.391611 28.747852,6.088133 28.205140999999998,5.799352 27.650814,5.528138 27.084082,5.277456 26.504258999999998,5.050387000000001 25.912793999999998,4.850729 25.314779,4.680252 24.714557,4.536151 24.113649,4.414488 23.513231,4.311355 22.914392,4.222953 22.318172,4.145593 21.725604,4.075702 21.050142,4.0 20.363308,4.044157 19.759833,4.08631 19.152670999999998,4.135506 18.542706,4.195236 17.930823,4.269096 17.317937,4.36079 16.705035,4.474127 16.093231,4.613012 15.485257,4.780999 14.886354,4.978663 14.299529,5.202616 13.724599999999999,5.449848 13.160948,5.717555 12.607905,6.003019 12.064783,6.303598 11.530891,6.616722 11.00556,6.939874 10.488145,7.2705839999999995 9.977673,7.606654000000001 9.471311,7.947855000000001 8.967527,8.297102 8.467646,8.656963000000001 7.973841,9.029521 7.488343,9.416908 7.013456,9.821291 6.551584,10.244858 6.105252999999999,10.689781 5.677441,11.157833 5.27422,11.646064 4.897651,12.143974 4.542603,12.642255 4.0,13.427 8.101318,66.00359399999999" stroke="#1f6fb2" stroke-width="0.1" /><text fill="#0a3d62" font-family="sans-serif" font-size="1.6" text-anchor="middle" x="21.030379500000002" y="35.001796999999996">03</text><polygon fill="#cfe3f7" fill-opacity="0.5" points="43.162077000000004,66.00359399999999 69.012139,66.00359399999999 73.12151800000001,13.323665 72.38495400000001,12.583144 71.965705,12.166549 71.5378,11.75121 71.099551,11.34058 70.651768,10.938876 70.196792,10.547537 69.735501,10.16598 69.268477,9.793364 68.79629,9.428844 68.31949800000001,9.071578 67.838648,8.720724 67.35427800000001,8.375443 66.866892,8.034885 66.376002,7.697569 65.879407,7.362601 65.375148,7.031548 64.862436,6.706991 64.34052,6.391611 63.808611000000006,6.088133 63.2659,5.799352 62.711573,5.528138 62.144841,5.277456 61.565018,5.050387000000001 60.973553,4.850729 60.375538000000006,4.680252 59.775316000000004,4.536151 59.174408,4.414488 58.57399000000001,4.311355 57.975151000000004,4.222953 57.37893100000001,4.145593 56.78636300000001,4.075702 56.110901000000005,4.0 55.42406700000001,4.044157 54.820592000000005,4.08631 54.21343,4.135506 53.603465,4.195236 52.99158200000001,4.269096 52.378696000000005,4.36079 51.765794,4.474127 51.15399000000001,4.613012 50.54601600000001,4.780999 49.947113,4.978663 49.360288000000004,5.202616 48.785359,5.449848 48.221707,5.717555 47.66866400000001,6.003019 47.125542,6.303598 46.59165,6.616722 46.06631900000001,6.939874 45.54890400000001,7.2705839999999995 45.038432,7.606654000000001 44.532070000000004,7.947855000000001 44.02828600000001,8.297102 43.52840500000001,8.656963000000001 43.034600000000005,9.029521 42.549102000000005,9.416908 42.074215,9.821291 41.612343,10.244858 41.166012,10.689781 40.738200000000006,11.157833 40.334979000000004,11.646064 39.95841,12.143974 39.603362000000004,12.642255 39.060759000000004,13.427 43.162077000000004,66.00359399999999" stroke="#1f6fb2" stroke-width="0.1" /><text fill="#0a3d62" font-family="sans-serif" font-size="1.6" text-anchor="middle" x="56.09113850000001" y="35.001796999999996">03</text><polygon fill="#cfe3f7" fill-opacity="0.5" points="109.779752,42.982318 110.45844300000002,51.253861 123.395071,51.253861 123.53304000000001,48.637708 123.62305500000001,46.970289 123.71714300000001,45.304423 123.817367,43.640265 123.92578400000001,41.977969 124.04446200000001,40.31748 124.174834,38.65786 124.31560000000002,36.997978 124.46472700000001,35.33747700000001 124.62016100000001,33.676204 124.77984500000001,32.014004 125.032397,29.418957000000002 117.94473,28.253861 125.77132,26.967299 124.43554400000001,25.255083000000003 124.13476600000001,24.870417000000003 123.83175700000001,24.484644000000003 123.525743,24.097658000000003 123.21595100000002,23.709359000000003 122.90161200000001,23.319657000000003 122.58195900000001,22.928466 122.256229,22.535707000000002 121.92366100000001,22.141308000000002 121.58410800000001,21.745907000000003 121.24007,21.351646000000002 120.896499,20.95986 120.55726700000001,20.570247000000002 120.22603400000001,20.182426 119.90646000000001,19.796194 119.602181,19.411521999999998 119.316766,19.028567000000002 119.05366800000002,18.647662 118.816135,18.2693 118.60711400000001,17.894072 118.429134,17.522548999999998 118.28420500000001,17.155077 118.17375600000001,16.791349 118.09802900000001,16.426736 118.05527900000001,16.052101999999998 118.04331300000001,15.662021 118.060766,15.255987 118.10610400000002,14.834503999999999 118.177445,14.398591999999999 118.27253800000001,13.949536 118.38879600000001,13.48871 118.52336700000001,13.017463000000001 118.67319400000001,12.537056 118.83507300000001,12.048626 119.005695,11.553177999999999 119.47573700000001,10.213376 106.79483300000001,4.0 106.08951800000001,4.740153 105.889364,4.950653 105.688922,5.162383 105.48842800000001,5.375567 105.28812200000002,5.590427 105.08824700000001,5.807193 104.889047,6.026092 104.69077300000001,6.247356 104.493677,6.471217 104.298015,6.697907 104.10404700000001,6.9276610000000005 103.91203800000001,7.160711 103.72225600000002,7.397293 103.53522900000002,7.637309 103.352298,7.879147 103.17399600000002,8.12044 102.99965600000002,8.359988000000001 102.82839600000001,8.596952 102.65938000000001,8.83051 102.49181700000001,9.059856 102.32496200000001,9.284201 102.15811400000001,9.502779 101.99061300000001,9.714852 101.82183300000001,9.919722 101.65117800000002,10.116741999999999 101.47806600000001,10.305323999999999 101.301794,10.485078999999999 101.11999100000001,10.657354 100.92977,10.825152 100.73040600000002,10.990271 100.522512,11.153345 100.30681200000001,11.315005 100.08408500000002,11.475921 99.946419,11.572669 99.946419,51.253861 109.10106200000001,51.253861 109.779752,42.982318 90.11308600000001,42.982318 89.43439500000001,51.253861 76.49776700000001,51.253861 76.35979800000001,48.637708 76.26978300000002,46.970289 76.175695,45.304423 76.07547100000001,43.640265 75.967054,41.977969 75.848376,40.31748 75.71800400000001,38.65786 75.57723800000001,36.997978 75.428111,35.33747700000001 75.27267700000002,33.676204 75.11299300000002,32.014004 74.86044100000001,29.418957000000002 81.948108,28.253861 74.12151800000001,26.967299 75.457294,25.255083000000003 75.75807200000001,24.870417000000003 76.061081,24.484644000000003 76.367095,24.097658000000003 76.67688700000001,23.709359000000003 76.99122600000001,23.319657000000003 77.31087900000001,22.928466 77.636609,22.535707000000002 77.969177,22.141308000000002 78.30873000000001,21.745907000000003 78.65276800000001,21.351646000000002 78.996339,20.95986 79.33557100000002,20.570247000000002 79.66680400000001,20.182426 79.986378,19.796194 80.29065700000001,19.411521999999998 80.57607200000001,19.028567000000002 80.83917000000001,18.647662 81.07670300000001,18.2693 81.28572400000002,17.894072 81.463704,17.522548999999998 81.60863300000001,17.155077 81.71908200000001,16.791349 81.79480900000001,16.426736 81.83755900000001,16.052101999999998 81.84952500000001,15.662021 81.83207200000001,15.255987 81.78673400000001,14.834503999999999 81.715393,14.398591999999999 81.62030000000001,13.949536 81.50404200000001,13.48871 81.369471,13.017463000000001 81.21964400000002,12.537056 81.05776500000002,12.048626 80.88714300000001,11.553177999999999 80.417101,10.213376 93.098005,4.0 93.80332000000001,4.740153 94.00347400000001,4.950653 94.203916,5.162383 94.40441000000001,5.375567 94.60471600000001,5.590427 94.80459100000002,5.807193 95.003791,6.026092 95.202065,6.247356 95.399161,6.471217 95.594823,6.697907 95.788791,6.9276610000000005 95.98080000000002,7.160711 96.17058200000001,7.397293 96.35760900000001,7.637309 96.54054000000001,7.879147 96.71884200000001,8.12044 96.89318200000001,8.359988000000001 97.06444200000001,8.596952 97.23345800000001,8.83051 97.40102100000001,9.059856 97.56787600000001,9.284201 97.73472400000001,9.502779 97.90222500000002,9.714852 98.07100500000001,9.919722 98.24166000000001,10.116741999999999 98.41477200000001,10.305323999999999 98.59104400000001,10.485078999999999 98.77284700000001,10.657354 98.963068,10.825152 99.16243200000001,10.990271 99.370326,11.153345 99.586026,11.315005 99.80875300000001,11.475921 99.946419,11.572669 99.946419,51.253861 90.79177600000001,51.253861 90.11308600000001,42.982318" stroke="#1f6fb2" stroke-width="0.1" /><text fill="#0a3d62" font-family="sans-serif" font-size="1.6" text-anchor="middle" x="99.946419" y="27.6269305">01</text><polygon fill="#cfe3f7" fill-opacity="0.5" points="38.478336999999996,105.23618199999999 39.095555000000004,110.173924 52.476989,110.173924 52.614958,107.557771 52.704972999999995,105.890352 52.799061,104.22448599999998 52.899285,102.560328 53.007702,100.898032 53.12638,99.23754299999999 53.256752,97.577923 53.397518000000005,95.91804099999999 53.546645,94.25753999999999 53.702079,92.596267 53.861762999999996,90.934067 54.056674,88.931298 53.605019999999996,88.21157199999999 53.334322,87.780357 53.063010000000006,87.348466 52.790819,86.915628 52.517483999999996,86.481574 52.242740999999995,86.04603399999999 51.966612,85.60919 51.6883,85.16993199999999 51.407619,84.728117 51.126128,84.285985 50.845690000000005,83.84369899999999 50.56925,83.402041 50.299155999999996,82.96094599999999 50.037741,82.52041299999999 49.787303,82.080503 49.550104000000005,81.64133299999999 49.328348000000005,81.203071 49.124164,80.765919 48.939585,80.33009799999999 48.776525,79.89581299999999 48.636764,79.46320899999999 48.521938000000006,79.03231199999999 48.433475,78.60260399999999 48.372037,78.17031599999999 48.336209,77.73054199999999 48.324199,77.28159799999999 48.334392,76.823567 48.365099,76.35674999999999 48.414519,75.881598 48.48074,75.39864899999999 48.561735,74.90848299999999 48.655381000000006,74.41168499999999 48.75947,73.90882199999999 48.871722000000005,73.400427 48.989796999999996,72.88698699999999 49.311916,71.513607 42.352607,68.897994 42.149449000000004,69.272651 36.112214,67.00359399999999 35.465112000000005,67.525077 35.265468999999996,67.684508 35.067948,67.83939299999999 34.871931000000004,67.988924 34.676829,68.13234999999999 34.482062,68.26897799999999 34.286702000000005,68.39841799999999 34.088856,68.52111799999999 33.887363,68.63765299999999 33.682363,68.74787599999999 33.474237,68.85150399999999 33.263367,68.94826099999999 33.050135,69.03788599999999 32.834925,69.12012499999999 32.618117999999996,69.19474 32.400092,69.26150399999999 32.18118,69.32021399999999 31.960807,69.37090199999999 31.73737,69.41412399999999 31.509941,69.45056399999999 31.278479,69.48073099999999 31.043026,69.50514 30.803659,69.524327 30.560487000000002,69.53885199999999 30.313634,69.54930099999999 30.063239,69.556288 29.809445,69.560453 29.552395,69.562463 29.29223,69.56300999999999 29.028337,69.56281299999999 29.028337,110.173924 37.861119,110.173924 38.478336999999996,105.23618199999999 19.578337,105.23618199999999 18.961119,110.173924 5.579685000000001,110.173924 5.4417159999999996,107.557771 5.351701000000002,105.890352 5.257612999999999,104.22448599999998 5.157389000000002,102.560328 5.048971999999999,100.898032 4.930294,99.23754299999999 4.799922000000002,97.577923 4.659155999999999,95.91804099999999 4.510028999999999,94.25753999999999 4.354595,92.596267 4.194911000000001,90.934067 4.0,88.931298 4.451654000000001,88.21157199999999 4.722352000000001,87.780357 4.993663999999999,87.348466 5.265855000000002,86.915628 5.539190000000001,86.481574 5.813933000000002,86.04603399999999 6.090062,85.60919 6.368373999999999,85.16993199999999 6.649055000000001,84.728117 6.930546,84.285985 7.210984,83.84369899999999 7.487424000000001,83.402041 7.757518000000001,82.96094599999999 8.018933,82.52041299999999 8.269371,82.080503 8.50657,81.64133299999999 8.728326,81.203071 8.93251,80.765919 9.117089,80.33009799999999 9.280149000000002,79.89581299999999 9.419910000000002,79.46320899999999 9.534735999999999,79.03231199999999 9.623199,78.60260399999999 9.684637000000002,78.17031599999999 9.720465,77.73054199999999 9.732475,77.28159799999999 9.722282,76.823567 9.691575,76.35674999999999 9.642154999999999,75.881598 9.575934,75.39864899999999 9.494939000000002,74.90848299999999 9.401292999999999,74.41168499999999 9.297204,73.90882199999999 9.184952,73.400427 9.066877000000002,72.88698699999999 8.744758000000001,71.513607 15.704067,68.897994 15.907225,69.272651 21.94446,67.00359399999999 22.591562,67.525077 22.791205,67.684508 22.988726,67.83939299999999 23.184743,67.988924 23.379845,68.13234999999999 23.574612000000002,68.26897799999999 23.769972,68.39841799999999 23.967818,68.52111799999999 24.169311,68.63765299999999 24.374311,68.74787599999999 24.582437,68.85150399999999 24.793307,68.94826099999999 25.006539,69.03788599999999 25.221749,69.12012499999999 25.438556000000002,69.19474 25.656582,69.26150399999999 25.875494,69.32021399999999 26.095867000000002,69.37090199999999 26.319304000000002,69.41412399999999 26.546733,69.45056399999999 26.778195,69.48073099999999 27.013648,69.50514 27.253015,69.524327 27.496187,69.53885199999999 27.74304,69.54930099999999 27.993435,69.556288 28.247229,69.560453 28.504279,69.562463 28.764444,69.56300999999999 29.028337,69.56281299999999 29.028337,110.173924 20.195555,110.173924 19.578337,105.23618199999999" stroke="#1f6fb2" stroke-width="0.1" /><text fill="#0a3d62" font-family="sans-serif" font-size="1.6" text-anchor="middle" x="29.028337" y="88.588759">02</text></svg>