<?xml version="1.0" encoding="utf-8" ?>
<svg baseProfile="full" height="217.334959cm" version="1.1" viewBox="0 0 118.0 217.334959" width="118.0cm" xmlns="http://www.w3.org/2000/svg" xmlns:ev="http://www.w3.org/2001/xml-events" xmlns:xlink="http://www.w3.org/1999/xlink"><defs /><rect fill="#f7f3ea" height="209.334959" stroke="#333" stroke-width="0.15" width="110.0" x="4.0" y="4.0" /><text fill="#000" font-family="sans-serif" font-size="1.4" x="4.0" y="3.0">PLANO DE CORTE — ancho 110 cm — largo 2.09 m</text><polygon fill="#cfe3f7" fill-opacity="0.5" points="4.0,74.330346 31.7,74.330346 31.7,26.954639999999998 31.100068,26.268932999999997 30.746677,25.865762 30.390684,25.461115 30.03155,25.055128 29.668433,24.647598 29.300496,24.238326999999998 28.926906,23.827123999999998 28.546843,23.413815 28.160414,22.99919 27.771075,22.585362 27.384597,22.173316 27.005541,21.76258 26.638339,21.352746 26.287416999999998,20.943626 25.957145,20.535252 25.651775999999998,20.127888 25.375339999999998,19.722003 25.131521,19.318219 24.923496,18.917167 24.753785999999998,18.519202 24.623387,18.121567 24.5304,17.716204 24.471646,17.296794 24.445508,16.861875 24.450623999999998,16.411193 24.485547999999998,15.945126 24.54861,15.464501 24.63787,14.970416 24.751132,14.464094000000001 24.885973,13.94679 25.039794999999998,13.419729 25.209865,12.884069 25.393345999999998,12.340886 25.587334,11.791165 25.788868,11.2358 26.320404,9.790896 13.051794000000001,4.0 6.020795,21.730345999999997 4.0,21.730345999999997 4.0,74.330346" stroke="#1f6fb2" stroke-width="0.1" /><text fill="#0a3d62" font-family="sans-serif" font-size="1.6" text-anchor="middle" x="17.85" y="39.165173">01</text><polygon fill="#cfe3f7" fill-opacity="0.5" points="32.7,74.330346 60.400000000000006,74.330346 60.400000000000006,26.954639999999998 59.800068,26.268932999999997 59.446677,25.865762 59.090684,25.461115 58.73155,25.055128 58.368433,24.647598 58.000496,24.238326999999998 57.626906000000005,23.827123999999998 57.246843,23.413815 56.860414000000006,22.99919 56.471075,22.585362 56.084597,22.173316 55.705541000000004,21.76258 55.338339000000005,21.352746 54.987417,20.943626 54.657145,20.535252 54.351776,20.127888 54.07534,19.722003 53.831521,19.318219 53.623496,18.917167 53.453786,18.519202 53.323387000000004,18.121567 53.2304,17.716204 53.171646,17.296794 53.14550800000001,16.861875 53.150624,16.411193 53.185548,15.945126 53.24861,15.464501 53.33787,14.970416 53.451132,14.464094000000001 53.585973,13.94679 53.739795,13.419729 53.909865,12.884069 54.093346,12.340886 54.287334,11.791165 54.488868000000004,11.2358 55.020404,9.790896 41.751794000000004,4.0 34.720795,21.730345999999997 32.7,21.730345999999997 32.7,74.330346" stroke="#1f6fb2" stroke-width="0.1" /><text fill="#0a3d62" font-family="sans-serif" font-size="1.6" text-anchor="middle" x="46.550000000000004" y="39.165173">01</text><polygon fill="#cfe3f7" fill-opacity="0.5" points="61.4,74.267704 69.40722,74.267704 69.001177,17.827772 73.22492199999999,5.262131 70.700661,4.0 70.004548,4.928368 69.808809,5.189983 69.612994,5.452847 69.417382,5.717166 69.222256,5.98315 69.0279,6.251011999999999 68.834603,6.520965 68.642656,6.793221 68.452355,7.067997 68.26399599999999,7.345508 68.077882,7.6259689999999996 67.894319,7.909597 67.713615,8.196606 67.536242,8.486951000000001 67.363303,8.779094 67.195078,9.070626 67.03075,9.360295 66.869275,9.647313 66.709653,9.930903 66.550927,10.210297 66.392184,10.484739000000001 66.232553,10.753489 66.071203,11.015827 65.907341,11.271062 65.740206,11.518545 65.569058,11.757678 65.39316099999999,11.987943000000001 65.210869,12.210004 65.019404,12.426846 64.81765,12.641195 64.606278,12.853889 64.386212,13.065588 64.158442,13.27698 63.924011,13.488792 63.722425,13.667704 61.4,13.667704 61.4,74.267704" stroke="#1f6fb2" stroke-width="0.1" /><text fill="#0a3d62" font-family="sans-serif" font-size="1.6" text-anchor="middle" x="67.312461" y="39.133852">09</text><polygon fill="#cfe3f7" fill-opacity="0.5" points="74.22492199999999,74.267704 82.232142,74.267704 81.826099,17.827772 86.049844,5.262131 83.525583,4.0 82.82946999999999,4.928368 82.633731,5.189983 82.43791599999999,5.452847 82.24230399999999,5.717166 82.04717799999999,5.98315 81.85282199999999,6.251011999999999 81.65952499999999,6.520965 81.46757799999999,6.793221 81.277277,7.067997 81.08891799999999,7.345508 80.90280399999999,7.6259689999999996 80.719241,7.909597 80.53853699999999,8.196606 80.36116399999999,8.486951000000001 80.18822499999999,8.779094 80.02,9.070626 79.855672,9.360295 79.69419699999999,9.647313 79.53457499999999,9.930903 79.37584899999999,10.210297 79.21710599999999,10.484739000000001 79.057475,10.753489 78.896125,11.015827 78.73226299999999,11.271062 78.56512799999999,11.518545 78.39398,11.757678 78.218083,11.987943000000001 78.03579099999999,12.210004 77.844326,12.426846 77.64257199999999,12.641195 77.43119999999999,12.853889 77.21113399999999,13.065588 76.983364,13.27698 76.748933,13.488792 76.54734699999999,13.667704 74.22492199999999,13.667704 74.22492199999999,74.267704" stroke="#1f6fb2" stroke-width="0.1" /><text fill="#0a3d62" font-family="sans-serif" font-size="1.6" text-anchor="middle" x="80.137383" y="39.133852">09</text><polygon fill="#cfe3f7" fill-opacity="0.5" points="8.603537000000001,137.334959 34.432241,137.334959 39.044742,85.88996900000001 38.338398999999995,85.10533600000001 37.917592,84.64319400000001 37.488116,84.18218200000001 37.047919,83.72558500000001 36.597245,83.27774600000001 36.138323,82.840406 35.672148,82.41305100000001 35.19934,81.994804 34.720508,81.58478500000001 34.236247,81.182113 33.747142,80.78590700000001 33.253769,80.395289 32.756689,80.009382 32.255796000000004,79.626812 31.749057,79.24610100000001 31.233977,78.868605 30.709418,78.497242 30.174402999999998,78.13513800000001 29.6279,77.785475 29.068843,77.451509 28.496148,77.13659600000001 27.908752,76.84420300000001 27.305661,76.57793600000001 26.687530000000002,76.34210800000001 26.059449,76.13996200000001 25.427158,75.96893700000001 24.792906000000002,75.82445700000001 24.158237,75.70188800000001 23.52457,75.596728 22.893254,75.50461800000001 22.265622,75.42134100000001 21.544124,75.330346 20.808963,75.384286 20.168217,75.435308 19.523647,75.49475100000001 18.8764,75.56678400000001 18.227627,75.655715 17.578525,75.765989 16.930396000000002,75.902186 16.284807,76.068982 15.645945000000001,76.270228 15.019679,76.50515100000001 14.408314,76.769498 13.811256,77.05976000000001 13.227674,77.3726 12.656686,77.70479300000001 12.097394,78.053218 11.548913,78.41483500000001 11.010392,78.786669 10.481016,79.16579700000001 9.959197,79.549946 9.441979,79.939639 8.928751,80.33810500000001 8.421351,80.74753000000001 7.9219930000000005,81.169893 7.432948,81.60721000000001 6.956562,82.06152200000001 6.495274,82.53487100000001 6.051633000000001,83.02927000000001 5.628798,83.54607 5.232445000000002,84.08132800000001 4.862674000000002,84.62454400000001 4.513476000000001,85.16774000000001 4.0,85.98995400000001 8.603537000000001,137.334959" stroke="#1f6fb2" stroke-width="0.1" /><text fill="#0a3d62" font-family="sans-serif" font-size="1.6" text-anchor="middle" x="21.522371" y="106.33265250000001">04</text><polygon fill="#cfe3f7" fill-opacity="0.5" points="44.648279,137.334959 70.47698299999999,137.334959 75.089484,85.88996900000001 74.383141,85.10533600000001 73.962334,84.64319400000001 73.532858,84.18218200000001 73.09266099999999,83.72558500000001 72.641987,83.27774600000001 72.183065,82.840406 71.71689,82.41305100000001 71.24408199999999,81.994804 70.76525000000001,81.58478500000001 70.280989,81.182113 69.791884,80.78590700000001 69.29851099999999,80.395289 68.80143100000001,80.009382 68.300538,79.626812 67.793799,79.24610100000001 67.278719,78.868605 66.75416,78.497242 66.219145,78.13513800000001 65.672642,77.785475 65.113585,77.451509 64.54089,77.13659600000001 63.953494,76.84420300000001 63.350403,76.57793600000001 62.732272,76.34210800000001 62.104191,76.13996200000001 61.4719,75.96893700000001 60.837648,75.82445700000001 60.202979,75.70188800000001 59.569312,75.596728 58.937996,75.50461800000001 58.310364,75.42134100000001 57.588865999999996,75.330346 56.853705,75.384286 56.212959,75.435308 55.568388999999996,75.49475100000001 54.921142,75.56678400000001 54.272369,75.655715 53.623267,75.765989 52.975138,75.902186 52.329549,76.068982 51.690687,76.270228 51.064420999999996,76.50515100000001 50.453056000000004,76.769498 49.855998,77.05976000000001 49.272416,77.3726 48.701428,77.70479300000001 48.142136,78.053218 47.593655,78.41483500000001 47.055133999999995,78.786669 46.525757999999996,79.16579700000001 46.003939,79.549946 45.486721,79.939639 44.973493,80.33810500000001 44.466093,80.74753000000001 43.966735,81.169893 43.477689999999996,81.60721000000001 43.001304,82.06152200000001 42.540016,82.53487100000001 42.096375,83.02927000000001 41.67354,83.54607 41.277187,84.08132800000001 40.907416,84.62454400000001 40.558218,85.16774000000001 40.044742,85.98995400000001 44.648279,137.334959" stroke="#1f6fb2" stroke-width="0.1" /><text fill="#0a3d62" font-family="sans-serif" font-size="1.6" text-anchor="middle" x="57.567113" y="106.33265250000001">04</text><polygon fill="#cfe3f7" fill-opacity="0.5" points="54.0,151.033647 53.54488,150.346984 53.256333999999995,149.911369 52.967847,149.475303 52.679368,149.03843899999998 52.390845,148.600431 52.102226,148.160931 51.81346,147.719593 51.524504,147.276086 51.235746,146.830695 50.948979,146.384471 50.666720999999995,145.938011 50.391082,145.491263 50.124128999999996,145.044181 49.867903,144.596764 49.624413000000004,144.14905199999998 49.39562,143.701117 49.18343,143.253055 48.989674,142.804967 48.816095000000004,142.356941 48.664342000000005,141.909015 48.535945,141.461087 48.431893,141.011199 48.351451,140.555418 48.292833,140.091548 48.254642000000004,139.619523 48.203385999999995,138.334959 29.0,138.334959 29.0,198.334959 54.0,198.334959 54.0,151.033647 4.0,151.033647 4.455120000000001,150.346984 4.743666000000001,149.911369 5.032153000000001,149.475303 5.320632,149.03843899999998 5.609155000000001,148.600431 5.897773999999998,148.160931 6.186540000000001,147.719593 6.475496,147.276086 6.764254000000001,146.830695 7.051020999999999,146.384471 7.333279000000001,145.938011 7.608917999999999,145.491263 7.875871,145.044181 8.132097000000002,144.596764 8.375587,144.14905199999998 8.604379999999999,143.701117 8.816569999999999,143.253055 9.010326,142.804967 9.183905,142.356941 9.335657999999999,141.909015 9.464054999999998,141.461087 9.568107000000001,141.011199 9.648549,140.555418 9.707166999999998,140.091548 9.745358,139.619523 9.796614000000002,138.334959 29.0,138.334959 29.0,198.334959 4.0,198.334959 4.0,151.033647" stroke="#1f6fb2" stroke-width="0.1" /><text fill="#0a3d62" font-family="sans-serif" font-size="1.6" text-anchor="middle" x="29.0" y="168.334959">02</text><polygon fill="#cfe3f7" fill-opacity="0.5" points="55.0,149.606864 62.0,154.016864 69.0,149.606864 69.0,138.334959 55.0,138.334959 55.0,149.606864" stroke="#1f6fb2" stroke-width="0.1" /><text fill="#0a3d62" font-family="sans-serif" font-size="1.6" text-anchor="middle" x="62.0" y="146.17591149999998">10</text><polygon fill="#cfe3f7" fill-opacity="0.5" points="70.0,150.58408599999999 70.029841,150.887066 70.132547,151.225641 70.299332,151.537674 70.523786,151.811173 70.797285,152.035627 71.109318,152.202412 71.447893,152.305118 71.750873,152.334959 93.249127,152.334959 93.552107,152.305118 93.890682,152.202412 94.202715,152.035627 94.476214,151.811173 94.70066800000001,151.537674 94.867453,151.225641 94.970159,150.887066 95.0,150.58408599999999 95.0,140.085832 94.970159,139.782852 94.867453,139.444277 94.70066800000001,139.132244 94.476214,138.858745 94.202715,138.634291 93.890682,138.467506 93.552107,138.3648 93.249127,138.334959 71.750873,138.334959 71.447893,138.3648 71.109318,138.467506 70.797285,138.634291 70.523786,138.858745 70.299332,139.132244 70.132547,139.444277 70.029841,139.782852 70.0,140.085832 70.0,150.58408599999999" stroke="#1f6fb2" stroke-width="0.1" /><text fill="#0a3d62" font-family="sans-serif" font-size="1.6" text-anchor="middle" x="82.5" y="145.334959">05</text><polygon fill="#cfe3f7" fill-opacity="0.5" points="4.0,211.58408599999999 4.029841,211.887066 4.132547,212.225641 4.299332,212.537674 4.523786,212.811173 4.7972850000000005,213.035627 5.109318,213.202412 5.4478930000000005,213.305118 5.750873,213.334959 27.249127,213.334959 27.552107,213.305118 27.890682,213.202412 28.202715,213.035627 28.476214,212.811173 28.700668,212.537674 28.867453,212.225641 28.970159,211.887066 29.0,211.58408599999999 29.0,201.085832 28.970159,200.782852 28.867453,200.444277 28.700668,200.132244 28.476214,199.858745 28.202715,199.634291 27.890682,199.467506 27.552107,199.3648 27.249127,199.334959 5.750873,199.334959 5.4478930000000005,199.3648 5.109318,199.467506 4.7972850000000005,199.634291 4.523786,199.858745 4.299332,200.132244 4.132547,200.444277 4.029841,200.782852 4.0,201.085832 4.0,211.58408599999999" stroke="#1f6fb2" stroke-width="0.1" /><text fill="#0a3d62" font-family="sans-serif" font-size="1.6" text-anchor="middle" x="16.5" y="206.334959">05</text><polygon fill="#cfe3f7" fill-opacity="0.5" points="69.109812,210.261023 69.10827,209.77334199999999 69.12286,209.278359 69.152042,208.776508 69.194218,208.268255 69.247736,207.75408 69.310889,207.234464 69.381927,206.709877 69.459058,206.180771 69.540457,205.647574 69.74864600000001,204.313845 56.845692,199.334959 56.206584,199.76907 56.003755,199.905559 55.803425000000004,200.037857 55.605097,200.165156 55.408291,200.286706 55.212533,200.401818 55.016683,200.510236 54.818733,200.61251 54.617676,200.709149 54.4137,200.80006 54.207108000000005,200.885098 53.998204,200.964122 53.787293000000005,201.036999 53.574684000000005,201.1036 53.360684,201.163801 53.145601,201.217487 52.929643999999996,201.264568 52.712165999999996,201.305157 52.492015,201.339744 52.268762,201.368819 52.042410000000004,201.39280399999998 51.81299,201.41213199999999 51.580557,201.42725099999998 51.345178000000004,201.438625 51.106932,201.44673699999998 50.865904,201.452085 50.622182,201.455189 50.375856,201.456581 50.127012,201.456816 49.874323000000004,201.456459 49.874323000000004,211.45646 69.157512,211.45646 69.109812,210.261023 30.638834,210.261023 30.640376,209.77334199999999 30.625786,209.278359 30.596604,208.776508 30.554428,208.268255 30.50091,207.75408 30.437757,207.234464 30.366719,206.709877 30.289588000000002,206.180771 30.208189,205.647574 30.0,204.313845 42.902954,199.334959 43.542062,199.76907 43.744890999999996,199.905559 43.945221000000004,200.037857 44.143549,200.165156 44.340355,200.286706 44.536113,200.401818 44.731963,200.510236 44.929913,200.61251 45.130970000000005,200.709149 45.334946,200.80006 45.541538,200.885098 45.750442,200.964122 45.961353,201.036999 46.173962,201.1036 46.387962,201.163801 46.603045,201.217487 46.819002,201.264568 47.03648,201.305157 47.256631,201.339744 47.479884,201.368819 47.706236000000004,201.39280399999998 47.935656,201.41213199999999 48.168089,201.42725099999998 48.403468000000004,201.438625 48.641714,201.44673699999998 48.882742,201.452085 49.126464,201.455189 49.37279,201.456581 49.621634,201.456816 49.874323000000004,201.456459 49.874323000000004,211.45646 30.591134,211.45646 30.638834,210.261023" stroke="#1f6fb2" stroke-width="0.1" /><text fill="#0a3d62" font-family="sans-serif" font-size="1.6" text-anchor="middle" x="49.874323000000004" y="205.3957095">03</text><polygon fill="#cfe3f7" fill-opacity="0.5" points="70.74864600000001,202.984086 70.770801,203.209029 70.850744,203.472567 70.98056500000001,203.715445 71.155275,203.92833 71.36816,204.10304 71.61103800000001,204.23286099999999 71.874576,204.312804 72.09951900000002,204.334959 83.397773,204.334959 83.62271600000001,204.312804 83.88625400000001,204.23286099999999 84.12913200000001,204.10304 84.34201700000001,203.92833 84.516727,203.715445 84.64654800000001,203.472567 84.72649100000001,203.209029 84.74864600000001,202.984086 84.74864600000001,200.685832 84.72649100000001,200.460889 84.64654800000001,200.197351 84.516727,199.954473 84.34201700000001,199.741588 84.12913200000001,199.566878 83.88625400000001,199.437057 83.62271600000001,199.357114 83.397773,199.334959 72.09951900000002,199.334959 71.874576,199.357114 71.61103800000001,199.437057 71.36816,199.566878 71.155275,199.741588 70.98056500000001,199.954473 70.850744,200.197351 70.770801,200.460889 70.74864600000001,200.685832 70.74864600000001,202.984086" stroke="#1f6fb2" stroke-width="0.1" /><text fill="#0a3d62" font-family="sans-serif" font-size="1.6" text-anchor="middle" x="77.74864600000001" y="201.834959">06</text><polygon fill="#cfe3f7" fill-opacity="0.5" points="85.74864600000001,202.984086 85.770801,203.209029 85.850744,203.472567 85.98056500000001,203.715445 86.155275,203.92833 86.36816,204.10304 86.61103800000001,204.23286099999999 86.874576,204.312804 87.09951900000002,204.334959 98.397773,204.334959 98.62271600000001,204.312804 98.88625400000001,204.23286099999999 99.12913200000001,204.10304 99.34201700000001,203.92833 99.516727,203.715445 99.64654800000001,203.472567 99.72649100000001,203.209029 99.74864600000001,202.984086 99.74864600000001,200.685832 99.72649100000001,200.460889 99.64654800000001,200.197351 99.516727,199.954473 99.34201700000001,199.741588 99.12913200000001,199.566878 98.88625400000001,199.437057 98.62271600000001,199.357114 98.397773,199.334959 87.09951900000002,199.334959 86.874576,199.357114 86.61103800000001,199.437057 86.36816,199.566878 86.155275,199.741588 85.98056500000001,199.954473 85.850744,200.197351 85.770801,200.460889 85.74864600000001,200.685832 85.74864600000001,202.984086" stroke="#1f6fb2" stroke-width="0.1" /><text fill="#0a3d62" font-family="sans-serif" font-size="1.6" text-anchor="middle" x="92.74864600000001" y="201.834959">06</text></svg>