  0
SECTION
  2
HEADER
  9
$ACADVER
  1
AC1027
  9
$ACADMAINTVER
 70
105
  9
$DWGCODEPAGE
  3
ANSI_1252
  9
$LASTSAVEDBY
  1
ezdxf
  9
$REQUIREDVERSIONS
160
0
  9
$INSBASE
 10
0.0
 20
0.0
 30
0.0
  9
$EXTMIN
 10
1e+20
 20
1e+20
 30
1e+20
  9
$EXTMAX
 10
-1e+20
 20
-1e+20
 30
-1e+20
  9
$LIMMIN
 10
0.0
 20
0.0
  9
$LIMMAX
 10
420.0
 20
297.0
  9
$ORTHOMODE
 70
0
  9
$REGENMODE
 70
1
  9
$FILLMODE
 70
1
  9
$QTEXTMODE
 70
0
  9
$MIRRTEXT
 70
1
  9
$LTSCALE
 40
1.0
  9
$ATTMODE
 70
1
  9
$TEXTSIZE
 40
2.5
  9
$TRACEWID
 40
1.0
  9
$TEXTSTYLE
  7
OpenSans
  9
$CLAYER
  8
0
  9
$CELTYPE
  6
ByLayer
  9
$CECOLOR
 62
256
  9
$CELTSCALE
 40
1.0
  9
$DISPSILH
 70
0
  9
$DIMSCALE
 40
1.0
  9
$DIMASZ
 40
0.175
  9
$DIMEXO
 40
0.125
  9
$DIMDLI
 40
3.75
  9
$DIMRND
 40
0.0
  9
$DIMDLE
 40
0.0
  9
$DIMEXE
 40
0.375
  9
$DIMTP
 40
0.0
  9
$DIMTM
 40
0.0
  9
$DIMTXT
 40
0.25
  9
$DIMCEN
 40
2.5
  9
$DIMTSZ
 40
0.0
  9
$DIMTOL
 70
0
  9
$DIMLIM
 70
0
  9
$DIMTIH
 70
0
  9
$DIMTOH
 70
0
  9
$DIMSE1
 70
0
  9
$DIMSE2
 70
0
  9
$DIMTAD
 70
1
  9
$DIMZIN
 70
12
  9
$DIMBLK
  1
ARCHTICK
  9
$DIMASO
 70
1
  9
$DIMSHO
 70
1
  9
$DIMPOST
  1

  9
$DIMAPOST
  1

  9
$DIMALT
 70
0
  9
$DIMALTD
 70
3
  9
$DIMALTF
 40
0.03937007874
  9
$DIMLFAC
 40
100.0
  9
$DIMTOFL
 70
1
  9
$DIMTVP
 40
0.0
  9
$DIMTIX
 70
0
  9
$DIMSOXD
 70
0
  9
$DIMSAH
 70
0
  9
$DIMBLK1
  1

  9
$DIMBLK2
  1

  9
$DIMSTYLE
  2
EZDXF
  9
$DIMCLRD
 70
0
  9
$DIMCLRE
 70
0
  9
$DIMCLRT
 70
0
  9
$DIMTFAC
 40
0.5
  9
$DIMGAP
 40
0.1
  9
$DIMJUST
 70
0
  9
$DIMSD1
 70
0
  9
$DIMSD2
 70
0
  9
$DIMTOLJ
 70
0
  9
$DIMTZIN
 70
8
  9
$DIMALTZ
 70
0
  9
$DIMALTTZ
 70
0
  9
$DIMUPT
 70
1
  9
$DIMDEC
 70
2
  9
$DIMTDEC
 70
2
  9
$DIMALTU
 70
2
  9
$DIMALTTD
 70
3
  9
$DIMTXSTY
  7
OpenSansCondensed-Light
  9
$DIMAUNIT
 70
0
  9
$DIMADEC
 70
2
  9
$DIMALTRND
 40
0.0
  9
$DIMAZIN
 70
3
  9
$DIMDSEP
 70
46
  9
$DIMATFIT
 70
3
  9
$DIMFRAC
 70
0
  9
$DIMLDRBLK
  1

  9
$DIMLUNIT
 70
2
  9
$DIMLWD
 70
-2
  9
$DIMLWE
 70
-2
  9
$DIMTMOVE
 70
2
  9
$DIMFXL
 40
1.0
  9
$DIMFXLON
 70
0
  9
$DIMJOGANG
 40
0.785398163397
  9
$DIMTFILL
 70
0
  9
$DIMTFILLCLR
 70
0
  9
$DIMARCSYM
 70
0
  9
$DIMLTYPE
  6

  9
$DIMLTEX1
  6

  9
$DIMLTEX2
  6

  9
$DIMTXTDIRECTION
 70
0
  9
$LUNITS
 70
2
  9
$LUPREC
 70
4
  9
$SKETCHINC
 40
1.0
  9
$FILLETRAD
 40
10.0
  9
$AUNITS
 70
0
  9
$AUPREC
 70
2
  9
$MENU
  1
.
  9
$ELEVATION
 40
0.0
  9
$PELEVATION
 40
0.0
  9
$THICKNESS
 40
0.0
  9
$LIMCHECK
 70
0
  9
$CHAMFERA
 40
0.0
  9
$CHAMFERB
 40
0.0
  9
$CHAMFERC
 40
0.0
  9
$CHAMFERD
 40
0.0
  9
$SKPOLY
 70
0
  9
$TDCREATE
 40
2461240.7653819444
  9
$TDUCREATE
 40
2458532.153996898
  9
$TDUPDATE
 40
2461240.7653819444
  9
$TDUUPDATE
 40
2458532.1544311
  9
$TDINDWG
 40
0.0
  9
$TDUSRTIMER
 40
0.0
  9
$USRTIMER
 70
1
  9
$ANGBASE
 50
0.0
  9
$ANGDIR
 70
0
  9
$PDMODE
 70
0
  9
$PDSIZE
 40
0.0
  9
$PLINEWID
 40
0.0
  9
$SPLFRAME
 70
0
  9
$SPLINETYPE
 70
6
  9
$SPLINESEGS
 70
8
  9
$HANDSEED
  5
128
  9
$SURFTAB1
 70
6
  9
$SURFTAB2
 70
6
  9
$SURFTYPE
 70
6
  9
$SURFU
 70
6
  9
$SURFV
 70
6
  9
$UCSBASE
  2

  9
$UCSNAME
  2

  9
$UCSORG
 10
0.0
 20
0.0
 30
0.0
  9
$UCSXDIR
 10
1.0
 20
0.0
 30
0.0
  9
$UCSYDIR
 10
0.0
 20
1.0
 30
0.0
  9
$UCSORTHOREF
  2

  9
$UCSORTHOVIEW
 70
0
  9
$UCSORGTOP
 10
0.0
 20
0.0
 30
0.0
  9
$UCSORGBOTTOM
 10
0.0
 20
0.0
 30
0.0
  9
$UCSORGLEFT
 10
0.0
 20
0.0
 30
0.0
  9
$UCSORGRIGHT
 10
0.0
 20
0.0
 30
0.0
  9
$UCSORGFRONT
 10
0.0
 20
0.0
 30
0.0
  9
$UCSORGBACK
 10
0.0
 20
0.0
 30
0.0
  9
$PUCSBASE
  2

  9
$PUCSNAME
  2

  9
$PUCSORG
 10
0.0
 20
0.0
 30
0.0
  9
$PUCSXDIR
 10
1.0
 20
0.0
 30
0.0
  9
$PUCSYDIR
 10
0.0
 20
1.0
 30
0.0
  9
$PUCSORTHOREF
  2

  9
$PUCSORTHOVIEW
 70
0
  9
$PUCSORGTOP
 10
0.0
 20
0.0
 30
0.0
  9
$PUCSORGBOTTOM
 10
0.0
 20
0.0
 30
0.0
  9
$PUCSORGLEFT
 10
0.0
 20
0.0
 30
0.0
  9
$PUCSORGRIGHT
 10
0.0
 20
0.0
 30
0.0
  9
$PUCSORGFRONT
 10
0.0
 20
0.0
 30
0.0
  9
$PUCSORGBACK
 10
0.0
 20
0.0
 30
0.0
  9
$USERI1
 70
0
  9
$USERI2
 70
0
  9
$USERI3
 70
0
  9
$USERI4
 70
0
  9
$USERI5
 70
0
  9
$USERR1
 40
0.0
  9
$USERR2
 40
0.0
  9
$USERR3
 40
0.0
  9
$USERR4
 40
0.0
  9
$USERR5
 40
0.0
  9
$WORLDVIEW
 70
1
  9
$SHADEDGE
 70
3
  9
$SHADEDIF
 70
70
  9
$TILEMODE
 70
1
  9
$MAXACTVP
 70
64
  9
$PINSBASE
 10
0.0
 20
0.0
 30
0.0
  9
$PLIMCHECK
 70
0
  9
$PEXTMIN
 10
1e+20
 20
1e+20
 30
1e+20
  9
$PEXTMAX
 10
-1e+20
 20
-1e+20
 30
-1e+20
  9
$PLIMMIN
 10
0.0
 20
0.0
  9
$PLIMMAX
 10
420.0
 20
297.0
  9
$UNITMODE
 70
0
  9
$VISRETAIN
 70
1
  9
$PLINEGEN
 70
0
  9
$PSLTSCALE
 70
1
  9
$TREEDEPTH
 70
3020
  9
$CMLSTYLE
  2
Standard
  9
$CMLJUST
 70
0
  9
$CMLSCALE
 40
20.0
  9
$PROXYGRAPHICS
 70
1
  9
$MEASUREMENT
 70
1
  9
$CELWEIGHT
370
-1
  9
$ENDCAPS
280
0
  9
$JOINSTYLE
280
0
  9
$LWDISPLAY
290
0
  9
$INSUNITS
 70
5
  9
$HYPERLINKBASE
  1

  9
$STYLESHEET
  1

  9
$XEDIT
290
1
  9
$CEPSNTYPE
380
0
  9
$PSTYLEMODE
290
1
  9
$FINGERPRINTGUID
  2
{357BB38A-DB10-4498-A92C-911AF428FD51}
  9
$VERSIONGUID
  2
{72CF30DC-AD9A-4558-B288-875271A9B0A3}
  9
$EXTNAMES
290
1
  9
$PSVPSCALE
 40
0.0
  9
$OLESTARTUP
290
0
  9
$SORTENTS
280
127
  9
$INDEXCTL
280
0
  9
$HIDETEXT
280
1
  9
$XCLIPFRAME
280
1
  9
$HALOGAP
280
0
  9
$OBSCOLOR
 70
257
  9
$OBSLTYPE
280
0
  9
$INTERSECTIONDISPLAY
280
0
  9
$INTERSECTIONCOLOR
 70
257
  9
$DIMASSOC
280
2
  9
$PROJECTNAME
  1

  9
$CAMERADISPLAY
290
0
  9
$LENSLENGTH
 40
50.0
  9
$CAMERAHEIGHT
 40
0.0
  9
$STEPSPERSEC
 40
24.0
  9
$STEPSIZE
 40
100.0
  9
$3DDWFPREC
 40
2.0
  9
$PSOLWIDTH
 40
0.005
  9
$PSOLHEIGHT
 40
0.08
  9
$LOFTANG1
 40
1.570796326795
  9
$LOFTANG2
 40
1.570796326795
  9
$LOFTMAG1
 40
0.0
  9
$LOFTMAG2
 40
0.0
  9
$LOFTPARAM
 70
7
  9
$LOFTNORMALS
280
1
  9
$LATITUDE
 40
37.795
  9
$LONGITUDE
 40
-122.394
  9
$NORTHDIRECTION
 40
0.0
  9
$TIMEZONE
 70
-8000
  9
$LIGHTGLYPHDISPLAY
280
1
  9
$TILEMODELIGHTSYNCH
280
1
  9
$CMATERIAL
347
20
  9
$SOLIDHIST
280
0
  9
$SHOWHIST
280
1
  9
$DWFFRAME
280
2
  9
$DGNFRAME
280
2
  9
$REALWORLDSCALE
290
1
  9
$INTERFERECOLOR
 62
256
  9
$CSHADOW
280
0
  9
$SHADOWPLANELOCATION
 40
0.0
  0
ENDSEC
  0
SECTION
  2
CLASSES
  0
CLASS
  1
ACDBDICTIONARYWDFLT
  2
AcDbDictionaryWithDefault
  3
ObjectDBX Classes
 90
0
 91
0
280
0
281
0
  0
CLASS
  1
SUN
  2
AcDbSun
  3
SCENEOE
 90
1153
 91
0
280
0
281
0
  0
CLASS
  1
VISUALSTYLE
  2
AcDbVisualStyle
  3
ObjectDBX Classes
 90
4095
 91
0
280
0
281
0
  0
CLASS
  1
MATERIAL
  2
AcDbMaterial
  3
ObjectDBX Classes
 90
1153
 91
0
280
0
281
0
  0
CLASS
  1
SCALE
  2
AcDbScale
  3
ObjectDBX Classes
 90
1153
 91
0
280
0
281
0
  0
CLASS
  1
TABLESTYLE
  2
AcDbTableStyle
  3
ObjectDBX Classes
 90
4095
 91
0
280
0
281
0
  0
CLASS
  1
MLEADERSTYLE
  2
AcDbMLeaderStyle
  3
ACDB_MLEADERSTYLE_CLASS
 90
4095
 91
0
280
0
281
0
  0
CLASS
  1
DICTIONARYVAR
  2
AcDbDictionaryVar
  3
ObjectDBX Classes
 90
0
 91
0
280
0
281
0
  0
CLASS
  1
CELLSTYLEMAP
  2
AcDbCellStyleMap
  3
ObjectDBX Classes
 90
1152
 91
0
280
0
281
0
  0
CLASS
  1
MENTALRAYRENDERSETTINGS
  2
AcDbMentalRayRenderSettings
  3
SCENEOE
 90
1024
 91
0
280
0
281
0
  0
CLASS
  1
ACDBDETAILVIEWSTYLE
  2
AcDbDetailViewStyle
  3
ObjectDBX Classes
 90
1025
 91
0
280
0
281
0
  0
CLASS
  1
ACDBSECTIONVIEWSTYLE
  2
AcDbSectionViewStyle
  3
ObjectDBX Classes
 90
1025
 91
0
280
0
281
0
  0
CLASS
  1
RASTERVARIABLES
  2
AcDbRasterVariables
  3
ISM
 90
0
 91
0
280
0
281
0
  0
CLASS
  1
LAYOUT
  2
AcDbLayout
  3
ObjectDBX Classes
 90
0
 91
0
280
0
281
0
  0
CLASS
  1
ACDBPLACEHOLDER
  2
AcDbPlaceHolder
  3
ObjectDBX Classes
 90
0
 91
0
280
0
281
0
  0
ENDSEC
  0
SECTION
  2
TABLES
  0
TABLE
  2
VPORT
  5
8
330
0
100
AcDbSymbolTable
 70
1
  0
VPORT
  5
23
330
8
100
AcDbSymbolTableRecord
100
AcDbViewportTableRecord
  2
*Active
 70
0
 10
0.0
 20
0.0
 11
1.0
 21
1.0
 12
0.0
 22
0.0
 13
0.0
 23
0.0
 14
0.5
 24
0.5
 15
0.5
 25
0.5
 16
0.0
 26
0.0
 36
1.0
 17
0.0
 27
0.0
 37
0.0
 40
1000.0
 41
1.34
 42
50.0
 43
0.0
 44
0.0
 50
0.0
 51
0.0
 71
0
 72
1000
 73
1
 74
3
 75
0
 76
0
 77
0
 78
0
281
0
 65
0
146
0.0
  0
ENDTAB
  0
TABLE
  2
LTYPE
  5
2
330
0
100
AcDbSymbolTable
 70
21
  0
LTYPE
  5
24
330
2
100
AcDbSymbolTableRecord
100
AcDbLinetypeTableRecord
  2
ByBlock
 70
0
  3

 72
65
 73
0
 40
0.0
  0
LTYPE
  5
25
330
2
100
AcDbSymbolTableRecord
100
AcDbLinetypeTableRecord
  2
ByLayer
 70
0
  3

 72
65
 73
0
 40
0.0
  0
LTYPE
  5
26
330
2
100
AcDbSymbolTableRecord
100
AcDbLinetypeTableRecord
  2
Continuous
 70
0
  3

 72
65
 73
0
 40
0.0
  0
LTYPE
  5
2F
330
2
100
AcDbSymbolTableRecord
100
AcDbLinetypeTableRecord
  2
CENTER
 70
0
  3
Center ____ _ ____ _ ____ _ ____ _ ____ _ ____
 72
65
 73
4
 40
5.08
 49
3.175
 74
0
 49
-0.635
 74
0
 49
0.635
 74
0
 49
-0.635
 74
0
  0
LTYPE
  5
30
330
2
100
AcDbSymbolTableRecord
100
AcDbLinetypeTableRecord
  2
CENTERX2
 70
0
  3
Center (2x) ________  __  ________  __  ________
 72
65
 73
4
 40
8.89
 49
6.35
 74
0
 49
-0.635
 74
0
 49
1.27
 74
0
 49
-0.635
 74
0
  0
LTYPE
  5
31
330
2
100
AcDbSymbolTableRecord
100
AcDbLinetypeTableRecord
  2
CENTER2
 70
0
  3
Center (.5x) ____ _ ____ _ ____ _ ____ _ ____
 72
65
 73
4
 40
2.54
 49
1.587
 74
0
 49
-0.318
 74
0
 49
0.318
 74
0
 49
-0.318
 74
0
  0
LTYPE
  5
32
330
2
100
AcDbSymbolTableRecord
100
AcDbLinetypeTableRecord
  2
DASHED
 70
0
  3
Dashed __ __ __ __ __ __ __ __ __ __ __ __ __ _
 72
65
 73
2
 40
1.524
 49
1.27
 74
0
 49
-0.254
 74
0
  0
LTYPE
  5
33
330
2
100
AcDbSymbolTableRecord
100
AcDbLinetypeTableRecord
  2
DASHEDX2
 70
0
  3
Dashed (2x) ____  ____  ____  ____  ____  ____
 72
65
 73
2
 40
3.048
 49
2.54
 74
0
 49
-0.508
 74
0
  0
LTYPE
  5
34
330
2
100
AcDbSymbolTableRecord
100
AcDbLinetypeTableRecord
  2
DASHED2
 70
0
  3
Dashed (.5x) _ _ _ _ _ _ _ _ _ _ _ _ _ _
 72
65
 73
2
 40
0.762
 49
0.635
 74
0
 49
-0.127
 74
0
  0
LTYPE
  5
35
330
2
100
AcDbSymbolTableRecord
100
AcDbLinetypeTableRecord
  2
PHANTOM
 70
0
  3
Phantom ______  __  __  ______  __  __  ______
 72
65
 73
6
 40
6.35
 49
3.175
 74
0
 49
-0.635
 74
0
 49
0.635
 74
0
 49
-0.635
 74
0
 49
0.635
 74
0
 49
-0.635
 74
0
  0
LTYPE
  5
36
330
2
100
AcDbSymbolTableRecord
100
AcDbLinetypeTableRecord
  2
PHANTOMX2
 70
0
  3
Phantom (2x)____________    ____    ____    ____________
 72
65
 73
6
 40
10.795
 49
6.35
 74
0
 49
-0.635
 74
0
 49
1.27
 74
0
 49
-0.635
 74
0
 49
1.27
 74
0
 49
-0.635
 74
0
  0
LTYPE
  5
37
330
2
100
AcDbSymbolTableRecord
100
AcDbLinetypeTableRecord
  2
PHANTOM2
 70
0
  3
Phantom (.5x) ___ _ _ ___ _ _ ___ _ _ ___ _ _ ___
 72
65
 73
6
 40
3.175
 49
1.587
 74
0
 49
-0.318
 74
0
 49
0.318
 74
0
 49
-0.318
 74
0
 49
0.318
 74
0
 49
-0.318
 74
0
  0
LTYPE
  5
38
330
2
100
AcDbSymbolTableRecord
100
AcDbLinetypeTableRecord
  2
DASHDOT
 70
0
  3
Dash dot __ . __ . __ . __ . __ . __ . __ . __
 72
65
 73
4
 40
3.556
 49
2.54
 74
0
 49
-0.508
 74
0
 49
0.0
 74
0
 49
-0.508
 74
0
  0
LTYPE
  5
39
330
2
100
AcDbSymbolTableRecord
100
AcDbLinetypeTableRecord
  2
DASHDOTX2
 70
0
  3
Dash dot (2x) ____  .  ____  .  ____  .  ____
 72
65
 73
4
 40
6.096
 49
5.08
 74
0
 49
-0.508
 74
0
 49
0.0
 74
0
 49
-0.508
 74
0
  0
LTYPE
  5
3A
330
2
100
AcDbSymbolTableRecord
100
AcDbLinetypeTableRecord
  2
DASHDOT2
 70
0
  3
Dash dot (.5x) _ . _ . _ . _ . _ . _ . _ . _
 72
65
 73
4
 40
1.778
 49
1.27
 74
0
 49
-0.254
 74
0
 49
0.0
 74
0
 49
-0.254
 74
0
  0
LTYPE
  5
3B
330
2
100
AcDbSymbolTableRecord
100
AcDbLinetypeTableRecord
  2
DOT
 70
0
  3
Dot .  .  .  .  .  .  .  .  .  .  .  .  .  .  .  .
 72
65
 73
2
 40
0.508
 49
0.0
 74
0
 49
-0.508
 74
0
  0
LTYPE
  5
3C
330
2
100
AcDbSymbolTableRecord
100
AcDbLinetypeTableRecord
  2
DOTX2
 70
0
  3
Dot (2x) .    .    .    .    .    .    .    . 
 72
65
 73
2
 40
1.016
 49
0.0
 74
0
 49
-1.016
 74
0
  0
LTYPE
  5
3D
330
2
100
AcDbSymbolTableRecord
100
AcDbLinetypeTableRecord
  2
DOT2
 70
0
  3
Dot (.5) . . . . . . . . . . . . . . . . . . . 
 72
65
 73
2
 40
0.254
 49
0.0
 74
0
 49
-0.254
 74
0
  0
LTYPE
  5
3E
330
2
100
AcDbSymbolTableRecord
100
AcDbLinetypeTableRecord
  2
DIVIDE
 70
0
  3
Divide __ . . __ . . __ . . __ . . __ . . __
 72
65
 73
6
 40
4.064
 49
2.54
 74
0
 49
-0.508
 74
0
 49
0.0
 74
0
 49
-0.508
 74
0
 49
0.0
 74
0
 49
-0.508
 74
0
  0
LTYPE
  5
3F
330
2
100
AcDbSymbolTableRecord
100
AcDbLinetypeTableRecord
  2
DIVIDEX2
 70
0
  3
Divide (2x) ____  . .  ____  . .  ____  . .  ____
 72
65
 73
6
 40
6.604
 49
5.08
 74
0
 49
-0.508
 74
0
 49
0.0
 74
0
 49
-0.508
 74
0
 49
0.0
 74
0
 49
-0.508
 74
0
  0
LTYPE
  5
40
330
2
100
AcDbSymbolTableRecord
100
AcDbLinetypeTableRecord
  2
DIVIDE2
 70
0
  3
Divide(.5x) _ . _ . _ . _ . _ . _ . _ . _
 72
65
 73
6
 40
2.032
 49
1.27
 74
0
 49
-0.254
 74
0
 49
0.0
 74
0
 49
-0.254
 74
0
 49
0.0
 74
0
 49
-0.254
 74
0
  0
ENDTAB
  0
TABLE
  2
LAYER
  5
1
330
0
100
AcDbSymbolTable
 70
13
  0
LAYER
  5
27
330
1
100
AcDbSymbolTableRecord
100
AcDbLayerTableRecord
  2
0
 70
0
 62
7
  6
Continuous
370
-3
390
13
347
21
  0
LAYER
  5
28
330
1
100
AcDbSymbolTableRecord
100
AcDbLayerTableRecord
  2
Defpoints
 70
0
 62
7
  6
Continuous
290
0
370
-3
390
13
347
21
  0
LAYER
  5
8A
330
1
100
AcDbSymbolTableRecord
100
AcDbLayerTableRecord
  2
CONSTRUCCION
 70
0
 62
8
  6
Continuous
370
-3
390
13
347
21
  0
LAYER
  5
8B
330
1
100
AcDbSymbolTableRecord
100
AcDbLayerTableRecord
  2
CORTE
 70
0
 62
1
  6
Continuous
370
-3
390
13
347
21
  0
LAYER
  5
8C
330
1
100
AcDbSymbolTableRecord
100
AcDbLayerTableRecord
  2
COSTURA
 70
0
 62
3
  6
Continuous
370
-3
390
13
347
21
  0
LAYER
  5
8D
330
1
100
AcDbSymbolTableRecord
100
AcDbLayerTableRecord
  2
PIQUETES
 70
0
 62
4
  6
Continuous
370
-3
390
13
347
21
  0
LAYER
  5
8E
330
1
100
AcDbSymbolTableRecord
100
AcDbLayerTableRecord
  2
TEXTOS
 70
0
 62
7
  6
Continuous
370
-3
390
13
347
21
  0
LAYER
  5
8F
330
1
100
AcDbSymbolTableRecord
100
AcDbLayerTableRecord
  2
CENTROS
 70
0
 62
5
  6
Continuous
370
-3
390
13
347
21
  0
LAYER
  5
90
330
1
100
AcDbSymbolTableRecord
100
AcDbLayerTableRecord
  2
HILO
 70
0
 62
2
  6
Continuous
370
-3
390
13
347
21
  0
LAYER
  5
91
330
1
100
AcDbSymbolTableRecord
100
AcDbLayerTableRecord
  2
DOBLEZ
 70
0
 62
6
  6
Continuous
370
-3
390
13
347
21
  0
LAYER
  5
92
330
1
100
AcDbSymbolTableRecord
100
AcDbLayerTableRecord
  2
BOTONES
 70
0
 62
30
  6
Continuous
370
-3
390
13
347
21
  0
LAYER
  5
93
330
1
100
AcDbSymbolTableRecord
100
AcDbLayerTableRecord
  2
OJAL
 70
0
 62
200
  6
Continuous
370
-3
390
13
347
21
  0
LAYER
  5
94
330
1
100
AcDbSymbolTableRecord
100
AcDbLayerTableRecord
  2
REFERENCIAS
 70
0
 62
9
  6
Continuous
370
-3
390
13
347
21
  0
ENDTAB
  0
TABLE
  2
STYLE
  5
5
330
0
100
AcDbSymbolTable
 70
26
  0
STYLE
  5
29
330
5
100
AcDbSymbolTableRecord
100
AcDbTextStyleTableRecord
  2
Standard
 70
0
 40
0.0
 41
1.0
 50
0.0
 71
0
 42
2.5
  3
txt
  4

  0
STYLE
  5
41
330
5
100
AcDbSymbolTableRecord
100
AcDbTextStyleTableRecord
  2
OpenSans-Light
 70
0
 40
0.0
 41
1.0
 50
0.0
 71
0
 42
2.5
  3
OpenSans-Light.ttf
  4

  0
STYLE
  5
42
330
5
100
AcDbSymbolTableRecord
100
AcDbTextStyleTableRecord
  2
OpenSans-Light-Italic
 70
0
 40
0.0
 41
1.0
 50
0.0
 71
0
 42
2.5
  3
OpenSans-LightItalic.ttf
  4

  0
STYLE
  5
43
330
5
100
AcDbSymbolTableRecord
100
AcDbTextStyleTableRecord
  2
OpenSans
 70
0
 40
0.0
 41
1.0
 50
0.0
 71
0
 42
2.5
  3
OpenSans-Regular.ttf
  4

  0
STYLE
  5
44
330
5
100
AcDbSymbolTableRecord
100
AcDbTextStyleTableRecord
  2
OpenSans-Italic
 70
0
 40
0.0
 41
1.0
 50
0.0
 71
0
 42
2.5
  3
OpenSans-Italic.ttf
  4

  0
STYLE
  5
45
330
5
100
AcDbSymbolTableRecord
100
AcDbTextStyleTableRecord
  2
OpenSans-SemiBold
 70
0
 40
0.0
 41
1.0
 50
0.0
 71
0
 42
2.5
  3
OpenSans-SemiBold.ttf
  4

  0
STYLE
  5
46
330
5
100
AcDbSymbolTableRecord
100
AcDbTextStyleTableRecord
  2
OpenSans-SemiBoldItalic
 70
0
 40
0.0
 41
1.0
 50
0.0
 71
0
 42
2.5
  3
OpenSans-SemiBoldItalic.ttf
  4

  0
STYLE
  5
47
330
5
100
AcDbSymbolTableRecord
100
AcDbTextStyleTableRecord
  2
OpenSans-Bold
 70
0
 40
0.0
 41
1.0
 50
0.0
 71
0
 42
2.5
  3
OpenSans-Bold.ttf
  4

  0
STYLE
  5
48
330
5
100
AcDbSymbolTableRecord
100
AcDbTextStyleTableRecord
  2
OpenSans-BoldItalic
 70
0
 40
0.0
 41
1.0
 50
0.0
 71
0
 42
2.5
  3
OpenSans-BoldItalic.ttf
  4

  0
STYLE
  5
49
330
5
100
AcDbSymbolTableRecord
100
AcDbTextStyleTableRecord
  2
OpenSans-ExtraBold
 70
0
 40
0.0
 41
1.0
 50
0.0
 71
0
 42
2.5
  3
OpenSans-ExtraBold.ttf
  4

  0
STYLE
  5
4A
330
5
100
AcDbSymbolTableRecord
100
AcDbTextStyleTableRecord
  2
OpenSans-ExtraBoldItalic
 70
0
 40
0.0
 41
1.0
 50
0.0
 71
0
 42
2.5
  3
OpenSans-ExtraBoldItalic.ttf
  4

  0
STYLE
  5
4B
330
5
100
AcDbSymbolTableRecord
100
AcDbTextStyleTableRecord
  2
OpenSansCondensed-Bold
 70
0
 40
0.0
 41
1.0
 50
0.0
 71
0
 42
2.5
  3
OpenSansCondensed-Bold.ttf
  4

  0
STYLE
  5
4C
330
5
100
AcDbSymbolTableRecord
100
AcDbTextStyleTableRecord
  2
OpenSansCondensed-Light
 70
0
 40
0.0
 41
1.0
 50
0.0
 71
0
 42
2.5
  3
OpenSansCondensed-Light.ttf
  4

  0
STYLE
  5
4D
330
5
100
AcDbSymbolTableRecord
100
AcDbTextStyleTableRecord
  2
OpenSansCondensed-Italic
 70
0
 40
0.0
 41
1.0
 50
0.0
 71
0
 42
2.5
  3
OpenSansCondensed-LightItalic.ttf
  4

  0
STYLE
  5
4E
330
5
100
AcDbSymbolTableRecord
100
AcDbTextStyleTableRecord
  2
LiberationSans
 70
0
 40
0.0
 41
1.0
 50
0.0
 71
0
 42
2.5
  3
LiberationSans-Regular.ttf
  4

  0
STYLE
  5
4F
330
5
100
AcDbSymbolTableRecord
100
AcDbTextStyleTableRecord
  2
LiberationSans-Bold
 70
0
 40
0.0
 41
1.0
 50
0.0
 71
0
 42
2.5
  3
LiberationSans-Bold.ttf
  4

  0
STYLE
  5
50
330
5
100
AcDbSymbolTableRecord
100
AcDbTextStyleTableRecord
  2
LiberationSans-BoldItalic
 70
0
 40
0.0
 41
1.0
 50
0.0
 71
0
 42
2.5
  3
LiberationSans-BoldItalic.ttf
  4

  0
STYLE
  5
51
330
5
100
AcDbSymbolTableRecord
100
AcDbTextStyleTableRecord
  2
LiberationSans-Italic
 70
0
 40
0.0
 41
1.0
 50
0.0
 71
0
 42
2.5
  3
LiberationSans-Italic.ttf
  4

  0
STYLE
  5
52
330
5
100
AcDbSymbolTableRecord
100
AcDbTextStyleTableRecord
  2
LiberationSerif
 70
0
 40
0.0
 41
1.0
 50
0.0
 71
0
 42
2.5
  3
LiberationSerif-Regular.ttf
  4

  0
STYLE
  5
53
330
5
100
AcDbSymbolTableRecord
100
AcDbTextStyleTableRecord
  2
LiberationSerif-Bold
 70
0
 40
0.0
 41
1.0
 50
0.0
 71
0
 42
2.5
  3
LiberationSerif-Bold.ttf
  4

  0
STYLE
  5
54
330
5
100
AcDbSymbolTableRecord
100
AcDbTextStyleTableRecord
  2
LiberationSerif-BoldItalic
 70
0
 40
0.0
 41
1.0
 50
0.0
 71
0
 42
2.5
  3
LiberationSerif-BoldItalic.ttf
  4

  0
STYLE
  5
55
330
5
100
AcDbSymbolTableRecord
100
AcDbTextStyleTableRecord
  2
LiberationSerif-Italic
 70
0
 40
0.0
 41
1.0
 50
0.0
 71
0
 42
2.5
  3
LiberationSerif-Italic.ttf
  4

  0
STYLE
  5
56
330
5
100
AcDbSymbolTableRecord
100
AcDbTextStyleTableRecord
  2
LiberationMono
 70
0
 40
0.0
 41
1.0
 50
0.0
 71
0
 42
2.5
  3
LiberationMono-Regular.ttf
  4

  0
STYLE
  5
57
330
5
100
AcDbSymbolTableRecord
100
AcDbTextStyleTableRecord
  2
LiberationMono-Bold
 70
0
 40
0.0
 41
1.0
 50
0.0
 71
0
 42
2.5
  3
LiberationMono-Bold.ttf
  4

  0
STYLE
  5
58
330
5
100
AcDbSymbolTableRecord
100
AcDbTextStyleTableRecord
  2
LiberationMono-BoldItalic
 70
0
 40
0.0
 41
1.0
 50
0.0
 71
0
 42
2.5
  3
LiberationMono-BoldItalic.ttf
  4

  0
STYLE
  5
59
330
5
100
AcDbSymbolTableRecord
100
AcDbTextStyleTableRecord
  2
LiberationMono-Italic
 70
0
 40
0.0
 41
1.0
 50
0.0
 71
0
 42
2.5
  3
LiberationMono-Italic.ttf
  4

  0
ENDTAB
  0
TABLE
  2
VIEW
  5
7
330
0
100
AcDbSymbolTable
 70
0
  0
ENDTAB
  0
TABLE
  2
UCS
  5
6
330
0
100
AcDbSymbolTable
 70
0
  0
ENDTAB
  0
TABLE
  2
APPID
  5
3
330
0
100
AcDbSymbolTable
 70
3
  0
APPID
  5
2A
330
3
100
AcDbSymbolTableRecord
100
AcDbRegAppTableRecord
  2
ACAD
 70
0
  0
APPID
  5
125
330
3
100
AcDbSymbolTableRecord
100
AcDbRegAppTableRecord
  2
HATCHBACKGROUNDCOLOR
 70
0
  0
APPID
  5
126
330
3
100
AcDbSymbolTableRecord
100
AcDbRegAppTableRecord
  2
EZDXF
 70
0
  0
ENDTAB
  0
TABLE
  2
DIMSTYLE
  5
4
330
0
100
AcDbSymbolTable
 70
12
100
AcDbDimStyleTable
  0
DIMSTYLE
105
2B
330
4
100
AcDbSymbolTableRecord
100
AcDbDimStyleTableRecord
  2
Standard
 70
0
 40
1.0
 41
2.5
 42
0.625
 43
3.75
 44
1.25
 45
0.0
 46
0.0
 47
0.0
 48
0.0
 49
2.5
140
2.5
141
2.5
142
0.0
143
0.03937007874
144
1.0
145
0.0
146
1.0
147
0.625
148
0.0
 69
0
 70
0
 71
0
 72
0
 73
0
 74
0
 75
0
 76
0
 77
1
 78
8
 79
3
170
0
171
3
172
1
173
0
174
0
175
0
176
0
177
0
178
0
179
2
271
2
272
2
273
2
274
3
275
0
276
0
277
2
278
44
279
0
280
0
281
0
282
0
283
0
284
8
285
0
286
0
288
0
289
3
290
0
371
-2
372
-2
  0
DIMSTYLE
105
73
330
4
100
AcDbSymbolTableRecord
100
AcDbDimStyleTableRecord
  2
EZDXF
 70
0
 40
1.0
 41
0.175
 42
0.125
 43
3.75
 44
0.375
 45
0.0
 46
0.0
 47
0.0
 48
0.0
 49
2.5
140
0.25
141
2.5
142
0.0
143
0.03937007874
144
100.0
145
0.0
146
0.5
147
0.1
148
0.0
 69
0
 70
0
 71
0
 72
0
 73
0
 74
0
 75
0
 76
0
 77
1
 78
12
 79
3
170
0
171
3
172
1
173
0
174
0
175
0
176
0
177
0
178
0
179
2
271
2
272
2
273
2
274
3
275
0
276
0
277
2
278
46
279
2
280
0
281
0
282
0
283
0
284
8
285
0
286
0
288
1
289
3
290
0
340
4C
342
74
371
-2
372
-2
  0
DIMSTYLE
105
7C
330
4
100
AcDbSymbolTableRecord
100
AcDbDimStyleTableRecord
  2
EZ_M_100_H25_CM
 70
0
 40
1.0
 41
0.25
 42
0.125
 43
3.75
 44
0.375
 45
0.0
 46
0.0
 47
0.0
 48
0.0
 49
2.5
140
0.25
141
2.5
142
0.125
143
0.03937007874
144
100.0
145
0.0
146
0.5
147
0.1
148
0.0
 69
0
 70
0
 71
0
 72
0
 73
0
 74
0
 75
0
 76
0
 77
1
 78
12
 79
3
170
0
171
3
172
1
173
0
174
0
175
0
176
0
177
0
178
0
179
2
271
2
272
2
273
2
274
3
275
0
276
0
277
2
278
46
279
2
280
0
281
0
282
0
283
0
284
8
285
0
286
0
288
1
289
3
290
0
340
4C
371
-2
372
-2
  0
DIMSTYLE
105
7D
330
4
100
AcDbSymbolTableRecord
100
AcDbDimStyleTableRecord
  2
EZ_M_50_H25_CM
 70
0
 40
1.0
 41
0.125
 42
0.0625
 43
3.75
 44
0.1875
 45
0.0
 46
0.0
 47
0.0
 48
0.0
 49
2.5
140
0.125
141
2.5
142
0.0625
143
0.03937007874
144
100.0
145
0.0
146
0.5
147
0.05
148
0.0
 69
0
 70
0
 71
0
 72
0
 73
0
 74
0
 75
0
 76
0
 77
1
 78
12
 79
3
170
0
171
3
172
1
173
0
174
0
175
0
176
0
177
0
178
0
179
2
271
2
272
2
273
2
274
3
275
0
276
0
277
2
278
46
279
2
280
0
281
0
282
0
283
0
284
8
285
0
286
0
288
1
289
3
290
0
340
4C
371
-2
372
-2
  0
DIMSTYLE
105
7E
330
4
100
AcDbSymbolTableRecord
100
AcDbDimStyleTableRecord
  2
EZ_M_25_H25_CM
 70
0
 40
1.0
 41
0.0625
 42
0.03125
 43
3.75
 44
0.09375
 45
0.0
 46
0.0
 47
0.0
 48
0.0
 49
2.5
140
0.0625
141
2.5
142
0.03125
143
0.03937007874
144
100.0
145
0.0
146
0.5
147
0.025
148
0.0
 69
0
 70
0
 71
0
 72
0
 73
0
 74
0
 75
0
 76
0
 77
1
 78
12
 79
3
170
0
171
3
172
1
173
0
174
0
175
0
176
0
177
0
178
0
179
2
271
2
272
2
273
2
274
3
275
0
276
0
277
2
278
46
279
2
280
0
281
0
282
0
283
0
284
8
285
0
286
0
288
1
289
3
290
0
340
4C
371
-2
372
-2
  0
DIMSTYLE
105
7F
330
4
100
AcDbSymbolTableRecord
100
AcDbDimStyleTableRecord
  2
EZ_M_20_H25_CM
 70
0
 40
1.0
 41
0.05
 42
0.025
 43
3.75
 44
0.07500000000000001
 45
0.0
 46
0.0
 47
0.0
 48
0.0
 49
2.5
140
0.05
141
2.5
142
0.025
143
0.03937007874
144
100.0
145
0.0
146
0.5
147
0.020000000000000004
148
0.0
 69
0
 70
0
 71
0
 72
0
 73
0
 74
0
 75
0
 76
0
 77
1
 78
12
 79
3
170
0
171
3
172
1
173
0
174
0
175
0
176
0
177
0
178
0
179
2
271
2
272
2
273
2
274
3
275
0
276
0
277
2
278
46
279
2
280
0
281
0
282
0
283
0
284
8
285
0
286
0
288
1
289
3
290
0
340
4C
371
-2
372
-2
  0
DIMSTYLE
105
80
330
4
100
AcDbSymbolTableRecord
100
AcDbDimStyleTableRecord
  2
EZ_M_10_H25_CM
 70
0
 40
1.0
 41
0.025
 42
0.0125
 43
3.75
 44
0.037500000000000006
 45
0.0
 46
0.0
 47
0.0
 48
0.0
 49
2.5
140
0.025
141
2.5
142
0.0125
143
0.03937007874
144
100.0
145
0.0
146
0.5
147
0.010000000000000002
148
0.0
 69
0
 70
0
 71
0
 72
0
 73
0
 74
0
 75
0
 76
0
 77
1
 78
12
 79
3
170
0
171
3
172
1
173
0
174
0
175
0
176
0
177
0
178
0
179
2
271
2
272
2
273
2
274
3
275
0
276
0
277
2
278
46
279
2
280
0
281
0
282
0
283
0
284
8
285
0
286
0
288
1
289
3
290
0
340
4C
371
-2
372
-2
  0
DIMSTYLE
105
81
330
4
100
AcDbSymbolTableRecord
100
AcDbDimStyleTableRecord
  2
EZ_M_5_H25_CM
 70
0
 40
1.0
 41
0.0125
 42
0.00625
 43
3.75
 44
0.018750000000000003
 45
0.0
 46
0.0
 47
0.0
 48
0.0
 49
2.5
140
0.0125
141
2.5
142
0.00625
143
0.03937007874
144
100.0
145
0.0
146
0.5
147
0.005000000000000001
148
0.0
 69
0
 70
0
 71
0
 72
0
 73
0
 74
0
 75
0
 76
0
 77
1
 78
12
 79
3
170
0
171
3
172
1
173
0
174
0
175
0
176
0
177
0
178
0
179
2
271
2
272
2
273
2
274
3
275
0
276
0
277
2
278
46
279
2
280
0
281
0
282
0
283
0
284
8
285
0
286
0
288
1
289
3
290
0
340
4C
371
-2
372
-2
  0
DIMSTYLE
105
82
330
4
100
AcDbSymbolTableRecord
100
AcDbDimStyleTableRecord
  2
EZ_M_1_H25_CM
 70
0
 40
1.0
 41
0.0025
 42
0.00125
 43
3.75
 44
0.00375
 45
0.0
 46
0.0
 47
0.0
 48
0.0
 49
2.5
140
0.0025
141
2.5
142
0.00125
143
0.03937007874
144
100.0
145
0.0
146
0.5
147
0.001
148
0.0
 69
0
 70
0
 71
0
 72
0
 73
0
 74
0
 75
0
 76
0
 77
1
 78
12
 79
3
170
0
171
3
172
1
173
0
174
0
175
0
176
0
177
0
178
0
179
2
271
2
272
2
273
2
274
3
275
0
276
0
277
2
278
46
279
2
280
0
281
0
282
0
283
0
284
8
285
0
286
0
288
1
289
3
290
0
340
4C
371
-2
372
-2
  0
DIMSTYLE
105
83
330
4
100
AcDbSymbolTableRecord
100
AcDbDimStyleTableRecord
  2
EZ_RADIUS
 70
0
 40
1.0
 41
0.25
 42
0.125
 43
3.75
 44
0.375
 45
0.0
 46
0.0
 47
0.0
 48
0.0
 49
2.5
140
0.25
141
0.0
142
0.0
143
0.03937007874
144
100.0
145
0.0
146
0.5
147
0.1
148
0.0
 69
0
 70
0
 71
0
 72
0
 73
0
 74
0
 75
0
 76
0
 77
1
 78
12
 79
3
170
0
171
3
172
0
173
0
174
0
175
0
176
0
177
0
178
0
179
2
271
2
272
2
273
2
274
3
275
0
276
0
277
2
278
46
279
1
280
0
281
0
282
0
283
0
284
8
285
0
286
0
288
1
289
3
290
0
340
4C
342
84
371
-2
372
-2
  0
DIMSTYLE
105
88
330
4
100
AcDbSymbolTableRecord
100
AcDbDimStyleTableRecord
  2
EZ_RADIUS_INSIDE
 70
0
 40
1.0
 41
0.25
 42
0.125
 43
3.75
 44
0.375
 45
0.0
 46
0.0
 47
0.0
 48
0.0
 49
2.5
140
0.25
141
0.0
142
0.0
143
0.03937007874
144
100.0
145
0.0
146
0.5
147
0.1
148
0.0
 69
0
 70
0
 71
0
 72
0
 73
0
 74
0
 75
0
 76
0
 77
0
 78
12
 79
3
170
0
171
3
172
0
173
0
174
1
175
0
176
0
177
0
178
0
179
2
271
2
272
2
273
2
274
3
275
0
276
0
277
2
278
46
279
0
280
0
281
0
282
0
283
0
284
8
285
0
286
0
288
1
289
0
290
0
340
4C
342
84
371
-2
372
-2
  0
DIMSTYLE
105
89
330
4
100
AcDbSymbolTableRecord
100
AcDbDimStyleTableRecord
  2
EZ_CURVED
 70
0
 40
1.0
 41
0.25
 42
0.125
 43
3.75
 44
0.375
 45
0.0
 46
0.0
 47
0.0
 48
0.0
 49
2.5
140
0.25
141
2.5
142
0.0
143
0.03937007874
144
100.0
145
0.0
146
0.5
147
0.1
148
0.0
 69
0
 70
0
 71
0
 72
0
 73
0
 74
0
 75
0
 76
0
 77
1
 78
12
 79
2
 90
2
170
0
171
3
172
1
173
0
174
0
175
0
176
0
177
0
178
0
179
2
271
2
272
2
273
2
274
3
275
0
276
0
277
2
278
46
279
2
280
0
281
0
282
0
283
0
284
8
285
0
286
0
288
1
289
3
290
0
340
4C
371
-2
372
-2
  0
ENDTAB
  0
TABLE
  2
BLOCK_RECORD
  5
9
330
0
100
AcDbSymbolTable
 70
5
  0
BLOCK_RECORD
  5
17
330
9
100
AcDbSymbolTableRecord
100
AcDbBlockTableRecord
  2
*Model_Space
340
1A
 70
0
280
1
281
0
  0
BLOCK_RECORD
  5
1B
330
9
100
AcDbSymbolTableRecord
100
AcDbBlockTableRecord
  2
*Paper_Space
340
1E
 70
0
280
1
281
0
  0
BLOCK_RECORD
  5
74
330
9
100
AcDbSymbolTableRecord
100
AcDbBlockTableRecord
  2
_ARCHTICK
340
0
 70
0
280
1
281
0
  0
BLOCK_RECORD
  5
78
330
9
100
AcDbSymbolTableRecord
100
AcDbBlockTableRecord
  2
_CLOSEDFILLED
340
0
 70
0
280
1
281
0
  0
BLOCK_RECORD
  5
84
330
9
100
AcDbSymbolTableRecord
100
AcDbBlockTableRecord
  2
_CLOSEDBLANK
340
0
 70
0
280
1
281
0
  0
ENDTAB
  0
ENDSEC
  0
SECTION
  2
BLOCKS
  0
BLOCK
  5
18
330
17
100
AcDbEntity
  8
0
100
AcDbBlockBegin
  2
*Model_Space
 70
0
 10
0.0
 20
0.0
 30
0.0
  3
*Model_Space
  1

  0
ENDBLK
  5
19
330
17
100
AcDbEntity
  8
0
100
AcDbBlockEnd
  0
BLOCK
  5
1C
330
1B
100
AcDbEntity
  8
0
100
AcDbBlockBegin
  2
*Paper_Space
 70
0
 10
0.0
 20
0.0
 30
0.0
  3
*Paper_Space
  1

  0
ENDBLK
  5
1D
330
1B
100
AcDbEntity
  8
0
100
AcDbBlockEnd
  0
BLOCK
  5
75
330
74
100
AcDbEntity
  8
0
100
AcDbBlockBegin
  2
_ARCHTICK
 70
0
 10
0.0
 20
0.0
 30
0.0
  3
_ARCHTICK
  1

  0
LWPOLYLINE
  5
77
330
74
100
AcDbEntity
  8
0
  6
BYBLOCK
 62
0
100
AcDbPolyline
 90
2
 70
0
 43
0.15
 10
-0.5
 20
-0.5
 10
0.5
 20
0.5
  0
ENDBLK
  5
76
330
74
100
AcDbEntity
  8
0
100
AcDbBlockEnd
  0
BLOCK
  5
79
330
78
100
AcDbEntity
  8
0
100
AcDbBlockBegin
  2
_CLOSEDFILLED
 70
0
 10
0.0
 20
0.0
 30
0.0
  3
_CLOSEDFILLED
  1

  0
SOLID
  5
7B
330
78
100
AcDbEntity
  8
0
  6
BYBLOCK
 62
0
100
AcDbTrace
 10
-1.0
 20
0.16439898372402537
 30
0.0
 11
0.0
 21
0.0
 31
0.0
 12
-1.0
 22
-0.16439898372402537
 32
0.0
 13
-1.0
 23
-0.16439898372402537
 33
0.0
  0
ENDBLK
  5
7A
330
78
100
AcDbEntity
  8
0
100
AcDbBlockEnd
  0
BLOCK
  5
85
330
84
100
AcDbEntity
  8
0
100
AcDbBlockBegin
  2
_CLOSEDBLANK
 70
0
 10
0.0
 20
0.0
 30
0.0
  3
_CLOSEDBLANK
  1

  0
LWPOLYLINE
  5
87
330
84
100
AcDbEntity
  8
0
  6
BYBLOCK
 62
0
100
AcDbPolyline
 90
3
 70
1
 10
-1.0
 20
0.16439898372402537
 10
0.0
 20
0.0
 10
-1.0
 20
-0.16439898372402537
  0
ENDBLK
  5
86
330
84
100
AcDbEntity
  8
0
100
AcDbBlockEnd
  0
ENDSEC
  0
SECTION
  2
ENTITIES
  0
LWPOLYLINE
  5
95
330
17
100
AcDbEntity
  8
CORTE
100
AcDbPolyline
 90
55
 70
1
 10
-1.0000000000000002
 20
-64.13423891239229
 10
26.7
 20
-64.13423891239229
 10
26.7
 20
-16.758532912392287
 10
26.100068
 20
-16.072825912392286
 10
25.746677
 20
-15.66965491239229
 10
25.390684
 20
-15.265007912392289
 10
25.03155
 20
-14.859020912392289
 10
24.668433
 20
-14.451490912392288
 10
24.300496
 20
-14.042219912392287
 10
23.926906
 20
-13.631016912392287
 10
23.546843
 20
-13.217707912392289
 10
23.160414
 20
-12.803082912392288
 10
22.771075
 20
-12.389254912392289
 10
22.384597
 20
-11.977208912392289
 10
22.005541
 20
-11.566472912392289
 10
21.638339
 20
-11.156638912392289
 10
21.287416999999998
 20
-10.747518912392287
 10
20.957145
 20
-10.339144912392289
 10
20.651775999999998
 20
-9.931780912392288
 10
20.375339999999998
 20
-9.52589591239229
 10
20.131521
 20
-9.122111912392288
 10
19.923496
 20
-8.721059912392288
 10
19.626594
 20
-8.02483091239229
 10
18.111670999999998
 20
-7.241675912392288
 10
16.924601
 20
-6.620307912392289
 10
15.749618
 20
-5.989881912392289
 10
14.590453
 20
-5.344806912392289
 10
13.450788999999999
 20
-4.679558912392289
 10
12.334197999999999
 20
-3.9886419123922883
 10
11.242177
 20
-3.265442912392289
 10
10.170435999999999
 20
-2.5063989123922887
 10
9.112064
 20
-1.715784912392289
 10
8.062451
 20
-0.9002479123922891
 10
7.017125
 20
-0.06668491239228835
 10
5.051518
 20
1.5210750876077115
 10
4.469275
 20
0.486152087607711
 10
4.309653
 20
0.20256208760771166
 10
4.150927
 20
-0.07683191239228826
 10
3.992184
 20
-0.3512739123922888
 10
3.832553
 20
-0.6200239123922886
 10
3.671203
 20
-0.8823619123922883
 10
3.5073410000000003
 20
-1.137596912392289
 10
3.3402060000000002
 20
-1.385079912392289
 10
3.1690579999999997
 20
-1.6242129123922888
 10
2.9931609999999997
 20
-1.854477912392289
 10
2.8108690000000003
 20
-2.076538912392289
 10
2.619404
 20
-2.293380912392289
 10
2.41765
 20
-2.5077299123922883
 10
2.206278
 20
-2.720423912392289
 10
1.986212
 20
-2.9321229123922885
 10
1.758442
 20
-3.1435149123922885
 10
1.524011
 20
-3.3553269123922886
 10
1.322425
 20
-3.534238912392289
 10
-1.0000000000000002
 20
-3.534238912392289
 10
-1.0000000000000002
 20
-64.13423891239229
  0
LWPOLYLINE
  5
96
330
17
100
AcDbEntity
  8
COSTURA
100
AcDbPolyline
 90
55
 70
1
 10
0.0
 20
-4.534238912392289
 10
1.7
 20
-4.534238912392289
 10
1.9461372114309208
 20
-4.317727983063604
 10
2.1911230351686255
 20
-4.100297856260295
 10
2.433806083519894
 20
-3.881029334507738
 10
2.6730349687915127
 20
-3.6590032203313063
 10
2.907658303290262
 20
-3.4333003162563793
 10
3.136524699322925
 20
-3.2030014248083285
 10
3.3584827691962853
 20
-2.967187348512537
 10
3.5723811252171265
 20
-2.7249388898943723
 10
3.777197617466955
 20
-2.4754391035558365
 10
3.973182834463885
 20
-2.2188780263718106
 10
4.161311146615966
 20
-1.9560183466840115
 10
4.342565282091676
 20
-1.687629365439184
 10
4.517927969059487
 20
-1.4144803835840714
 10
4.68838193568788
 20
-1.1373407020654156
 10
4.8549099101453255
 20
-0.8569796218299643
 10
5.018494620600303
 20
-0.5741664438244589
 10
5.180118795221287
 20
-0.2896704689956442
 10
5.340765162176753
 20
-0.00426099829026505
 10
5.343162381836555
 20
-0.0
 10
6.391199439309874
 20
-0.8465740471198364
 10
7.443918148567573
 20
-1.6860319398699541
 10
8.506000161394033
 20
-2.51125752388063
 10
9.58212712957363
 20
-3.315134644782142
 10
10.676980704890749
 20
-4.090547148204773
 10
11.794900596354585
 20
-4.8308986359857675
 10
12.935549626008381
 20
-5.536701621763661
 10
14.09520270240375
 20
-6.21361827927733
 10
15.270059016192368
 20
-6.867425874179621
 10
16.456317758025932
 20
-7.503901672123379
 10
17.650178118556124
 20
-8.128822938761445
 10
18.847839288434628
 20
-8.747966939746668
 10
19.018439554671197
 20
-9.148020549673952
 10
19.25874127090857
 20
-9.611299907061621
 10
19.533433110351083
 20
-10.066210933618848
 10
19.838027256764505
 20
-10.51343995801285
 10
20.168035893914595
 20
-10.953673308910837
 10
20.518971205567123
 20
-11.387597314980034
 10
20.886345375487853
 20
-11.81589830488764
 10
21.265670587442546
 20
-12.239262607300887
 10
21.652459025196965
 20
-12.658376550886981
 10
22.04222287251688
 20
-13.073926464313132
 10
22.43047431316805
 20
-13.486598676246565
 10
22.813017247128172
 20
-13.897054452936942
 10
23.188779993915375
 20
-14.30568663020765
 10
23.558586779631288
 20
-14.712725159542845
 10
23.923288455857527
 20
-15.118397704933315
 10
24.283735874175697
 20
-15.52293193036984
 10
24.64077988616742
 20
-15.926555499843207
 10
24.9952713434143
 20
-16.32949607734422
 10
25.348061097497954
 20
-16.731981326863643
 10
25.7
 20
-17.134238912392288
 10
25.7
 20
-63.13423891239229
 10
0.0
 20
-63.13423891239229
  0
LINE
  5
97
330
17
100
AcDbEntity
  8
HILO
100
AcDbLine
 10
13.7
 20
-7.534238912392289
 30
0.0
 11
13.7
 21
-60.13423891239229
 31
0.0
  0
LINE
  5
98
330
17
100
AcDbEntity
  8
HILO
100
AcDbLine
 10
13.7
 20
-60.13423891239229
 30
0.0
 11
14.16730201077038
 21
-59.02896571958883
 31
0.0
  0
LINE
  5
99
330
17
100
AcDbEntity
  8
HILO
100
AcDbLine
 10
13.7
 20
-60.13423891239229
 30
0.0
 11
13.232697989229617
 21
-59.02896571958883
 31
0.0
  0
LINE
  5
9A
330
17
100
AcDbEntity
  8
HILO
100
AcDbLine
 10
13.7
 20
-7.534238912392289
 30
0.0
 11
13.232697989229619
 21
-8.639512105195752
 31
0.0
  0
LINE
  5
9B
330
17
100
AcDbEntity
  8
HILO
100
AcDbLine
 10
13.7
 20
-7.534238912392289
 30
0.0
 11
14.16730201077038
 21
-8.639512105195752
 31
0.0
  0
LINE
  5
9C
330
17
100
AcDbEntity
  8
PIQUETES
100
AcDbLine
 10
18.68739232198916
 20
-6.872069826371288
 30
0.0
 11
18.32403846880193
 21
-7.406461047644608
 31
0.0
  0
LINE
  5
9D
330
17
100
AcDbEntity
  8
PIQUETES
100
AcDbLine
 10
18.21861110643867
 20
-6.768899230041699
 30
0.0
 11
18.32403846880193
 21
-7.406461047644608
 31
0.0
  0
LINE
  5
9E
330
17
100
AcDbEntity
  8
PIQUETES
100
AcDbLine
 10
25.645942552230707
 20
-38.06807174229578
 30
0.0
 11
25.115417925241296
 21
-37.69909529296906
 31
0.0
  0
LINE
  5
9F
330
17
100
AcDbEntity
  8
PIQUETES
100
AcDbLine
 10
25.75405744776929
 20
-37.60040608248881
 30
0.0
 11
25.115417925241296
 21
-37.69909529296906
 31
0.0
  0
CIRCLE
  5
A0
330
17
100
AcDbEntity
  8
CENTROS
100
AcDbCircle
 10
14.9
 20
-20.134238912392288
 30
0.0
 40
0.15
  0
LINE
  5
A1
330
17
100
AcDbEntity
  8
CONSTRUCCION
100
AcDbLine
 10
1.7
 20
-4.534238912392289
 30
0.0
 11
1.7
 21
-63.13423891239229
 31
0.0
  0
CIRCLE
  5
A2
330
17
100
AcDbEntity
  8
BOTONES
100
AcDbCircle
 10
1.7
 20
-6.034238912392289
 30
0.0
 40
0.55
  0
CIRCLE
  5
A3
330
17
100
AcDbEntity
  8
BOTONES
100
AcDbCircle
 10
1.7
 20
-14.550905579058956
 30
0.0
 40
0.55
  0
CIRCLE
  5
A4
330
17
100
AcDbEntity
  8
BOTONES
100
AcDbCircle
 10
1.7
 20
-23.067572245725625
 30
0.0
 40
0.55
  0
CIRCLE
  5
A5
330
17
100
AcDbEntity
  8
BOTONES
100
AcDbCircle
 10
1.7
 20
-31.58423891239229
 30
0.0
 40
0.55
  0
CIRCLE
  5
A6
330
17
100
AcDbEntity
  8
BOTONES
100
AcDbCircle
 10
1.7
 20
-40.10090557905896
 30
0.0
 40
0.55
  0
CIRCLE
  5
A7
330
17
100
AcDbEntity
  8
BOTONES
100
AcDbCircle
 10
1.7
 20
-48.617572245725626
 30
0.0
 40
0.55
  0
CIRCLE
  5
A8
330
17
100
AcDbEntity
  8
BOTONES
100
AcDbCircle
 10
1.7
 20
-57.13423891239229
 30
0.0
 40
0.55
  0
LINE
  5
A9
330
17
100
AcDbEntity
  8
OJAL
100
AcDbLine
 10
0.8999999999999999
 20
-6.034238912392289
 30
0.0
 11
2.5
 21
-6.034238912392289
 31
0.0
  0
LINE
  5
AA
330
17
100
AcDbEntity
  8
OJAL
100
AcDbLine
 10
0.8999999999999999
 20
-14.550905579058956
 30
0.0
 11
2.5
 21
-14.550905579058956
 31
0.0
  0
LINE
  5
AB
330
17
100
AcDbEntity
  8
OJAL
100
AcDbLine
 10
0.8999999999999999
 20
-23.067572245725625
 30
0.0
 11
2.5
 21
-23.067572245725625
 31
0.0
  0
LINE
  5
AC
330
17
100
AcDbEntity
  8
OJAL
100
AcDbLine
 10
0.8999999999999999
 20
-31.58423891239229
 30
0.0
 11
2.5
 21
-31.58423891239229
 31
0.0
  0
LINE
  5
AD
330
17
100
AcDbEntity
  8
OJAL
100
AcDbLine
 10
0.8999999999999999
 20
-40.10090557905896
 30
0.0
 11
2.5
 21
-40.10090557905896
 31
0.0
  0
LINE
  5
AE
330
17
100
AcDbEntity
  8
OJAL
100
AcDbLine
 10
0.8999999999999999
 20
-48.617572245725626
 30
0.0
 11
2.5
 21
-48.617572245725626
 31
0.0
  0
LINE
  5
AF
330
17
100
AcDbEntity
  8
OJAL
100
AcDbLine
 10
0.8999999999999999
 20
-57.13423891239229
 30
0.0
 11
2.5
 21
-57.13423891239229
 31
0.0
  0
TEXT
  5
B0
330
17
100
AcDbEntity
  8
REFERENCIAS
100
AcDbText
 10
1.7
 20
-3.534238912392289
 30
0.0
 40
0.5
  1
CF
 11
1.7
 21
-3.534238912392289
 31
0.0
100
AcDbText
  0
TEXT
  5
B1
330
17
100
AcDbEntity
  8
TEXTOS
100
AcDbText
 10
12.3087429269284
 20
-32.03844958250423
 30
0.0
 40
0.9
  1
DELANTERO RAGLAN
 72
1
 11
12.3087429269284
 21
-32.03844958250423
 31
0.0
100
AcDbText
 73
2
  0
TEXT
  5
B2
330
17
100
AcDbEntity
  8
TEXTOS
100
AcDbText
 10
12.3087429269284
 20
-33.43844958250423
 30
0.0
 40
0.6
  1
Pieza N.01
 72
1
 11
12.3087429269284
 21
-33.43844958250423
 31
0.0
100
AcDbText
 73
2
  0
TEXT
  5
B3
330
17
100
AcDbEntity
  8
TEXTOS
100
AcDbText
 10
12.3087429269284
 20
-34.838449582504225
 30
0.0
 40
0.6
  1
Talla: S
 72
1
 11
12.3087429269284
 21
-34.838449582504225
 31
0.0
100
AcDbText
 73
2
  0
TEXT
  5
B4
330
17
100
AcDbEntity
  8
TEXTOS
100
AcDbText
 10
12.3087429269284
 20
-36.23844958250423
 30
0.0
 40
0.6
  1
Cortar: 2  (par: izq + der)
 72
1
 11
12.3087429269284
 21
-36.23844958250423
 31
0.0
100
AcDbText
 73
2
  0
LWPOLYLINE
  5
B5
330
17
100
AcDbEntity
  8
CORTE
100
AcDbPolyline
 90
52
 70
1
 10
56.7
 20
-20.025235151181064
 10
56.244879999999995
 20
-19.33857215118107
 10
55.956334
 20
-18.902957151181063
 10
55.667846999999995
 20
-18.466891151181066
 10
55.379368
 20
-18.030027151181066
 10
55.090845
 20
-17.592019151181063
 10
54.802226000000005
 20
-17.152519151181068
 10
54.513459999999995
 20
-16.711181151181066
 10
54.224503999999996
 20
-16.26767415118107
 10
53.935745999999995
 20
-15.822283151181066
 10
53.648979
 20
-15.376059151181066
 10
53.366721
 20
-14.929599151181067
 10
53.091082
 20
-14.482851151181064
 10
52.824129
 20
-14.035769151181066
 10
52.567903
 20
-13.588352151181066
 10
52.324413
 20
-13.140640151181065
 10
52.09562
 20
-12.692705151181066
 10
51.883430000000004
 20
-12.244643151181066
 10
51.689674
 20
-11.796555151181066
 10
51.516095
 20
-11.348529151181065
 10
51.277345
 20
-10.643814151181065
 10
49.634431
 20
-9.629966151181065
 10
48.306815
 20
-8.801655151181066
 10
46.992736
 20
-7.963713151181066
 10
45.696821
 20
-7.110134151181066
 10
44.423647
 20
-6.234969151181065
 10
43.177641
 20
-5.332253151181066
 10
41.960916999999995
 20
-4.3947401511810655
 10
40.768967
 20
-3.4196881511810657
 10
39.594530999999996
 20
-2.4120751511810656
 10
38.432187
 20
-1.3788721511810658
 10
37.276545999999996
 20
-0.32722115118106565
 10
35.711435
 20
1.1138228488189346
 10
35.186361
 20
0.9661118488189344
 10
34.971278
 20
0.9124258488189344
 10
34.755321
 20
0.8653448488189344
 10
34.537843
 20
0.8247558488189344
 10
34.317692
 20
0.7901688488189345
 10
34.094439
 20
0.7610938488189344
 10
33.868087
 20
0.7371088488189345
 10
33.638667
 20
0.7177808488189344
 10
33.406234
 20
0.7026618488189345
 10
33.170854999999996
 20
0.6912878488189345
 10
32.932609
 20
0.6831758488189345
 10
32.691581
 20
0.6778278488189344
 10
32.447859
 20
0.6747238488189344
 10
32.201533
 20
0.6733318488189344
 10
31.952689
 20
0.6730968488189344
 10
31.7
 20
0.6734538488189344
 10
31.7
 20
-67.32654715118106
 10
56.7
 20
-67.32654715118106
 10
56.7
 20
-20.025235151181064
  0
LWPOLYLINE
  5
B6
330
17
100
AcDbEntity
  8
COSTURA
100
AcDbPolyline
 90
51
 70
1
 10
31.7
 20
-0.3265471511810656
 10
31.95245430921341
 20
-0.3269035140001364
 10
32.20483086291524
 20
-0.32666574073002774
 10
32.45705190559388
 20
-0.3252396952815588
 10
32.70903968173775
 20
-0.32203124156555085
 10
32.96071643583526
 20
-0.316446243492823
 10
33.21200441237482
 20
-0.3078905649741961
 10
33.462825855844834
 20
-0.29577006992049015
 10
33.71310301073372
 20
-0.2794906222425255
 10
33.96275812152987
 20
-0.2584580858511216
 10
34.21171343272172
 20
-0.232078324657099
 10
34.45989118879767
 20
-0.19975720257127794
 10
34.707213634246116
 20
-0.16090058350447856
 10
34.9536025734372
 20
-0.11491596808776805
 10
35.198919757749145
 20
-0.06143418315998028
 10
35.442906458460016
 20
-0.0005340992466462691
 10
35.44480503977902
 20
-0.0
 10
36.60134270660234
 20
-1.0648584040824907
 10
37.763456926001396
 20
-2.122401114752383
 10
38.93672425055194
 20
-3.1653124385970797
 10
40.12672123282971
 20
-4.1862766822039825
 10
41.33902442541043
 20
-5.177978152160491
 10
42.578985629125334
 20
-6.133395999374857
 10
43.84697799098426
 20
-7.052040704724872
 10
45.13849966518439
 20
-7.939818089636381
 10
46.44884478925749
 20
-8.802901618197094
 10
47.773307500735314
 20
-9.647464754494704
 10
49.10718193714962
 20
-10.479680962616918
 10
50.44576223603216
 20
-11.305723706651426
 10
50.57586886747531
 20
-11.689756471265303
 10
50.76416637745514
 20
-12.175774180962614
 10
50.97234381929262
 20
-12.657211427017682
 10
51.19825228550965
 20
-13.134241463710639
 10
51.4397428686282
 20
-13.607037545321608
 10
51.69466666117018
 20
-14.075772926130725
 10
51.960874755657535
 20
-14.54062086041811
 10
52.236218244612196
 20
-15.001754602463906
 10
52.5185482205561
 20
-15.459347406548234
 10
52.80571577601117
 20
-15.913572526951226
 10
53.095572003499356
 20
-16.36460321795301
 10
53.386030449882966
 20
-16.812617590174533
 10
53.676130805337365
 20
-17.25788132118099
 10
53.965889496115864
 20
-17.700736037835185
 10
54.255355331457864
 20
-18.1415258850446
 10
54.54457712060278
 20
-18.58059500771668
 10
54.83360367279005
 20
-19.018287550758906
 10
55.12248379725906
 20
-19.454947659078734
 10
55.411266303249235
 20
-19.89091947758363
 10
55.7
 20
-20.326547151181067
 10
55.7
 20
-66.32654715118106
 10
31.7
 20
-66.32654715118106
  0
LINE
  5
B7
330
17
100
AcDbEntity
  8
DOBLEZ
100
AcDbLine
 10
31.7
 20
-0.0
 30
0.0
 11
31.7
 21
-66.32654715118106
 31
0.0
  0
LINE
  5
B8
330
17
100
AcDbEntity
  8
HILO
100
AcDbLine
 10
32.2
 20
-11.326547151181066
 30
0.0
 11
32.2
 21
-63.32654715118107
 31
0.0
  0
LINE
  5
B9
330
17
100
AcDbEntity
  8
HILO
100
AcDbLine
 10
32.2
 20
-63.32654715118107
 30
0.0
 11
32.66730201077038
 21
-62.22127395837761
 31
0.0
  0
LINE
  5
BA
330
17
100
AcDbEntity
  8
HILO
100
AcDbLine
 10
32.2
 20
-63.32654715118107
 30
0.0
 11
31.732697989229617
 21
-62.22127395837761
 31
0.0
  0
LINE
  5
BB
330
17
100
AcDbEntity
  8
HILO
100
AcDbLine
 10
32.2
 20
-11.326547151181066
 30
0.0
 11
31.732697989229617
 21
-12.431820343984528
 31
0.0
  0
LINE
  5
BC
330
17
100
AcDbEntity
  8
HILO
100
AcDbLine
 10
32.2
 20
-11.326547151181066
 30
0.0
 11
32.66730201077038
 21
-12.431820343984528
 31
0.0
  0
LINE
  5
BD
330
17
100
AcDbEntity
  8
PIQUETES
100
AcDbLine
 10
41.06051681891661
 20
-8.307856631836406
 30
0.0
 11
40.86797200642986
 21
-8.924724928302064
 31
0.0
  0
LINE
  5
BE
330
17
100
AcDbEntity
  8
PIQUETES
100
AcDbLine
 10
40.58197459721981
 20
-8.345237670525725
 30
0.0
 11
40.86797200642986
 21
-8.924724928302064
 31
0.0
  0
TEXT
  5
BF
330
17
100
AcDbEntity
  8
REFERENCIAS
100
AcDbText
 10
32.0
 20
-37.32654715118107
 30
0.0
 40
0.5
  1
CB
 11
32.0
 21
-37.32654715118107
 31
0.0
100
AcDbText
  0
TEXT
  5
C0
330
17
100
AcDbEntity
  8
TEXTOS
100
AcDbText
 10
43.02843972705422
 20
-32.98246423096204
 30
0.0
 40
0.9
  1
ESPALDA RAGLAN
 72
1
 11
43.02843972705422
 21
-32.98246423096204
 31
0.0
100
AcDbText
 73
2
  0
TEXT
  5
C1
330
17
100
AcDbEntity
  8
TEXTOS
100
AcDbText
 10
43.02843972705422
 20
-34.382464230962036
 30
0.0
 40
0.6
  1
Pieza N.02
 72
1
 11
43.02843972705422
 21
-34.382464230962036
 31
0.0
100
AcDbText
 73
2
  0
TEXT
  5
C2
330
17
100
AcDbEntity
  8
TEXTOS
100
AcDbText
 10
43.02843972705422
 20
-35.782464230962034
 30
0.0
 40
0.6
  1
Talla: S
 72
1
 11
43.02843972705422
 21
-35.782464230962034
 31
0.0
100
AcDbText
 73
2
  0
TEXT
  5
C3
330
17
100
AcDbEntity
  8
TEXTOS
100
AcDbText
 10
43.02843972705422
 20
-37.18246423096203
 30
0.0
 40
0.6
  1
Cortar: 1  (al doblez)
 72
1
 11
43.02843972705422
 21
-37.18246423096203
 31
0.0
100
AcDbText
 73
2
  0
TEXT
  5
C4
330
17
100
AcDbEntity
  8
TEXTOS
100
AcDbText
 10
43.02843972705422
 20
-38.58246423096204
 30
0.0
 40
0.6
  1
AL DOBLEZ
 72
1
 11
43.02843972705422
 21
-38.58246423096204
 31
0.0
100
AcDbText
 73
2
  0
LWPOLYLINE
  5
C5
330
17
100
AcDbEntity
  8
CORTE
100
AcDbPolyline
 90
68
 70
1
 10
65.27755844143661
 20
-69.91
 10
91.1062624414366
 20
-69.91
 10
95.70415044143661
 20
-18.627992
 10
95.17385644143661
 20
-17.508757000000003
 10
94.7558984414366
 20
-16.636631
 10
94.3311464414366
 20
-15.770343
 10
93.8972664414366
 20
-14.915258999999999
 10
93.4534164414366
 20
-14.07725
 10
93.0008274414366
 20
-13.257771
 10
92.54032344143661
 20
-12.455674
 10
92.0725354414366
 20
-11.669442
 10
91.5980934414366
 20
-10.897548
 10
91.11762244143661
 20
-10.138458
 10
90.6317404414366
 20
-9.390627
 10
90.1410584414366
 20
-8.652501
 10
89.64617644143661
 20
-7.922519
 10
89.14722244143661
 20
-7.19845
 10
88.6428254414366
 20
-6.478443
 10
88.1309294414366
 20
-5.765635
 10
87.61027644143661
 20
-5.0652989999999996
 10
87.0795984414366
 20
-4.382878
 10
86.5374274414366
 20
-3.723784
 10
85.98205144143661
 20
-3.0934280000000003
 10
85.41145844143661
 20
-2.497288
 10
84.8232884414366
 20
-1.9410100000000003
 10
84.2148214414366
 20
-1.4305919999999999
 10
83.5850584414366
 20
-0.9740890000000002
 10
82.9396434414366
 20
-0.5794110000000003
 10
82.2870954414366
 20
-0.24405199999999994
 10
81.6321464414366
 20
0.03941700000000026
 10
80.97833044143661
 20
0.279323999999999
 10
80.3285474414366
 20
0.4842089999999999
 10
79.6851474414366
 20
0.6625680000000003
 10
79.05006144143661
 20
0.822673
 10
78.2410874414366
 20
1.0165260000000007
 10
77.4154244414366
 20
0.9014229999999994
 10
76.7667324414366
 20
0.8032780000000006
 10
76.10910544143661
 20
0.6880500000000005
 10
75.4440674414366
 20
0.5474239999999995
 10
74.77349544143661
 20
0.3727789999999995
 10
74.0998054414366
 20
0.15532199999999996
 10
73.4261104414366
 20
-0.11366100000000046
 10
72.7563874414366
 20
-0.44242000000000026
 10
72.0981884414366
 20
-0.8363619999999994
 10
71.4596694414366
 20
-1.291448
 10
70.8423814414366
 20
-1.7985730000000002
 10
70.24383844143661
 20
-2.3514429999999997
 10
69.66163744143661
 20
-2.944431
 10
69.0936984414366
 20
-3.572227
 10
68.5382554414366
 20
-4.229679
 10
67.99380444143661
 20
-4.911704
 10
67.4590654414366
 20
-5.613226
 10
66.93293744143661
 20
-6.3291509999999995
 10
66.4138794414366
 20
-7.055171
 10
65.8997384414366
 20
-7.791184
 10
65.3907184414366
 20
-8.542061
 10
64.8889304414366
 20
-9.311364
 10
64.3967704414366
 20
-10.102286
 10
63.916677441436605
 20
-10.91798
 10
63.4511204414366
 20
-11.761551
 10
63.002583441436606
 20
-12.636052
 10
62.57355044143661
 20
-13.54448
 10
62.166702441436605
 20
-14.489275
 10
61.785190441436605
 20
-15.468184
 10
61.4263534414366
 20
-16.469774
 10
61.0835744414366
 20
-17.482878
 10
60.6855684414366
 20
-18.693778000000002
 10
65.27755844143661
 20
-69.91
  0
LWPOLYLINE
  5
C6
330
17
100
AcDbEntity
  8
COSTURA
100
AcDbPolyline
 90
67
 70
1
 10
61.7
 20
-18.810000000000002
 10
62.03221650091204
 20
-17.799258872961147
 10
62.37075607201051
 20
-16.798686730686388
 10
62.72194178348187
 20
-15.818452557939798
 10
63.09208681061361
 20
-14.868709546086375
 10
63.485168491753356
 20
-13.955882621526252
 10
63.89983050882039
 20
-13.07788358028781
 10
64.33397555519247
 20
-12.2314415152871
 10
64.78550632424731
 20
-11.413285519440166
 10
65.25232550936269
 20
-10.62014468566304
 10
65.73233580391634
 20
-9.848748106871769
 10
66.22343990128603
 20
-9.095824875982395
 10
66.72354049484947
 20
-8.358104085910961
 10
67.23054027798445
 20
-7.632314829573503
 10
67.74261629321225
 20
-6.9160609003391835
 10
68.25967877560967
 20
-6.212471985676064
 10
68.78231288447964
 20
-5.526829616935414
 10
69.3111053003662
 20
-4.864420175603149
 10
69.84664270381344
 20
-4.230530043165185
 10
70.38951177536539
 20
-3.6304456011074455
 10
70.94029919556615
 20
-3.069453230915844
 10
71.49959164495975
 20
-2.552839314076304
 10
72.06797580409027
 20
-2.0858902320747426
 10
72.64603835350175
 20
-1.6738923663970784
 10
73.23431782143139
 20
-1.3217981340967313
 10
73.83243435229717
 20
-1.0281904228960945
 10
74.43918390181689
 20
-0.7859358894708741
 10
75.05333318161144
 20
-0.5876983655674426
 10
75.67364890330165
 20
-0.42614168293216714
 10
76.29889777850842
 20
-0.29392967331141584
 10
76.92784651885259
 20
-0.1837261684515603
 10
77.55926183595503
 20
-0.08819500009896508
 10
78.1919104414366
 20
-0.0
 10
78.81131162690669
 20
-0.14842582399012372
 10
79.4293173909157
 20
-0.30422491381657757
 10
80.0445323120026
 20
-0.47477053531569346
 10
80.65556096870634
 20
-0.6674359543238033
 10
81.26100793956584
 20
-0.889594436677239
 10
81.85947780312007
 20
-1.148619248212329
 10
82.44957513790796
 20
-1.4518836547654077
 10
83.02990452246846
 20
-1.8067609221728071
 10
83.59925964684763
 20
-2.219475501084151
 10
84.15779188021564
 20
-2.688004208675988
 10
84.70624581047083
 20
-3.2067201751029772
 10
85.24536851109733
 20
-3.7699814310752053
 10
85.77590705557927
 20
-4.372146007302751
 10
86.29860851740077
 20
-5.0075719344957
 10
86.81421997004598
 20
-5.670617243364133
 10
87.32348848699905
 20
-6.355639964618131
 10
87.82716114174409
 20
-7.056998128967779
 10
88.32598500776524
 20
-7.769049767123156
 10
88.82059054687547
 20
-8.486809085568169
 10
89.3107914450398
 20
-9.20988630179193
 10
89.79605222342715
 20
-9.939856389280655
 10
90.27583608789013
 20
-10.678301722827218
 10
90.74960624428125
 20
-11.426804677224487
 10
91.2168258984531
 20
-12.186947627265331
 10
91.67695825625823
 20
-12.960312947742622
 10
92.12946652354921
 20
-13.748483013449224
 10
92.5738139061786
 20
-14.553040199178016
 10
93.00946360999896
 20
-15.375566879721863
 10
93.43628060163424
 20
-16.216731843609793
 10
93.85604533602218
 20
-17.072848143478538
 10
94.27110850164017
 20
-17.93893214606088
 10
94.6838208828732
 20
-18.810000000000002
 10
90.1919104414366
 20
-68.91
 10
66.1919104414366
 20
-68.91
  0
LINE
  5
C7
330
17
100
AcDbEntity
  8
HILO
100
AcDbLine
 10
78.1919104414366
 20
-12.870000000000001
 30
0.0
 11
78.1919104414366
 21
-66.91
 31
0.0
  0
LINE
  5
C8
330
17
100
AcDbEntity
  8
HILO
100
AcDbLine
 10
78.1919104414366
 20
-66.91
 30
0.0
 11
78.65921245220699
 21
-65.80472680719654
 31
0.0
  0
LINE
  5
C9
330
17
100
AcDbEntity
  8
HILO
100
AcDbLine
 10
78.1919104414366
 20
-66.91
 30
0.0
 11
77.72460843066622
 21
-65.80472680719654
 31
0.0
  0
LINE
  5
CA
330
17
100
AcDbEntity
  8
HILO
100
AcDbLine
 10
78.1919104414366
 20
-12.870000000000001
 30
0.0
 11
77.72460843066622
 21
-13.975273192803463
 31
0.0
  0
LINE
  5
CB
330
17
100
AcDbEntity
  8
HILO
100
AcDbLine
 10
78.1919104414366
 20
-12.870000000000001
 30
0.0
 11
78.65921245220699
 21
-13.975273192803463
 31
0.0
  0
LINE
  5
CC
330
17
100
AcDbEntity
  8
PIQUETES
100
AcDbLine
 10
86.50856179638956
 20
-11.611984566849538
 30
0.0
 11
86.08781376217682
 21
-12.10246503710918
 31
0.0
  0
LINE
  5
CD
330
17
100
AcDbEntity
  8
PIQUETES
100
AcDbLine
 10
86.05423097987594
 20
-11.457118466084795
 30
0.0
 11
86.08781376217682
 21
-12.10246503710918
 31
0.0
  0
LINE
  5
CE
330
17
100
AcDbEntity
  8
PIQUETES
100
AcDbLine
 10
69.93263822485497
 20
-11.145697669101294
 30
0.0
 11
69.90235638932917
 21
-11.791207553175262
 31
0.0
  0
LINE
  5
CF
330
17
100
AcDbEntity
  8
PIQUETES
100
AcDbLine
 10
69.47910538465891
 20
-11.302885336759077
 30
0.0
 11
69.90235638932917
 21
-11.791207553175262
 31
0.0
  0
LINE
  5
D0
330
17
100
AcDbEntity
  8
PIQUETES
100
AcDbLine
 10
68.59748722190949
 20
-12.007195196789148
 30
0.0
 11
68.60657755219621
 21
-12.653351033948635
 31
0.0
  0
LINE
  5
D1
330
17
100
AcDbEntity
  8
PIQUETES
100
AcDbLine
 10
68.15437018394755
 20
-12.1917142762033
 30
0.0
 11
68.60657755219621
 21
-12.653351033948635
 31
0.0
  0
CIRCLE
  5
D2
330
17
100
AcDbEntity
  8
CENTROS
100
AcDbCircle
 10
82.31488805179575
 20
-56.91
 30
0.0
 40
0.15
  0
LINE
  5
D3
330
17
100
AcDbEntity
  8
CONSTRUCCION
100
AcDbLine
 10
82.31488805179575
 20
-68.91
 30
0.0
 11
82.31488805179575
 21
-56.91
 31
0.0
  0
TEXT
  5
D4
330
17
100
AcDbEntity
  8
TEXTOS
100
AcDbText
 10
78.1158946848246
 20
-32.78969107113895
 30
0.0
 40
0.9
  1
MANGA RAGLAN
 72
1
 11
78.1158946848246
 21
-32.78969107113895
 31
0.0
100
AcDbText
 73
2
  0
TEXT
  5
D5
330
17
100
AcDbEntity
  8
TEXTOS
100
AcDbText
 10
78.1158946848246
 20
-34.18969107113894
 30
0.0
 40
0.6
  1
Pieza N.04
 72
1
 11
78.1158946848246
 21
-34.18969107113894
 31
0.0
100
AcDbText
 73
2
  0
TEXT
  5
D6
330
17
100
AcDbEntity
  8
TEXTOS
100
AcDbText
 10
78.1158946848246
 20
-35.589691071138944
 30
0.0
 40
0.6
  1
Talla: S
 72
1
 11
78.1158946848246
 21
-35.589691071138944
 31
0.0
100
AcDbText
 73
2
  0
TEXT
  5
D7
330
17
100
AcDbEntity
  8
TEXTOS
100
AcDbText
 10
78.1158946848246
 20
-36.98969107113894
 30
0.0
 40
0.6
  1
Cortar: 2  (par: izq + der)
 72
1
 11
78.1158946848246
 21
-36.98969107113894
 31
0.0
100
AcDbText
 73
2
  0
LWPOLYLINE
  5
D8
330
17
100
AcDbEntity
  8
CORTE
100
AcDbPolyline
 90
37
 70
1
 10
99.6838208828732
 20
-11.249127
 10
99.71366188287321
 20
-11.552107
 10
99.81636788287321
 20
-11.890682
 10
99.98315288287321
 20
-12.202715
 10
100.20760688287321
 20
-12.476214
 10
100.48110588287321
 20
-12.700668
 10
100.79313888287321
 20
-12.867453
 10
101.1317138828732
 20
-12.970159
 10
101.4346938828732
 20
-13.0
 10
122.93294788287321
 20
-13.0
 10
123.2359278828732
 20
-12.970159
 10
123.5745028828732
 20
-12.867453
 10
123.8865358828732
 20
-12.700668
 10
124.1600348828732
 20
-12.476214
 10
124.3844888828732
 20
-12.202715
 10
124.5512738828732
 20
-11.890682
 10
124.6539798828732
 20
-11.552107
 10
124.6838208828732
 20
-11.249127
 10
124.6838208828732
 20
-0.750873
 10
124.6539798828732
 20
-0.447893
 10
124.5512738828732
 20
-0.109318
 10
124.3844888828732
 20
0.202715
 10
124.1600348828732
 20
0.476214
 10
123.8865358828732
 20
0.700668
 10
123.5745028828732
 20
0.867453
 10
123.2359278828732
 20
0.970159
 10
122.93294788287321
 20
1.0
 10
101.4346938828732
 20
1.0
 10
101.1317138828732
 20
0.970159
 10
100.79313888287321
 20
0.867453
 10
100.48110588287321
 20
0.700668
 10
100.20760688287321
 20
0.476214
 10
99.98315288287321
 20
0.202715
 10
99.81636788287321
 20
-0.109318
 10
99.71366188287321
 20
-0.447893
 10
99.6838208828732
 20
-0.750873
 10
99.6838208828732
 20
-11.249127
  0
LWPOLYLINE
  5
D9
330
17
100
AcDbEntity
  8
COSTURA
100
AcDbPolyline
 90
36
 70
1
 10
100.6838208828732
 20
-0.8000000000000002
 10
100.69919265855063
 20
-0.6439277423870974
 10
100.74471725686418
 20
-0.4938532541079283
 10
100.81864519303117
 20
-0.35554381358431847
 10
100.91813545792397
 20
-0.23431457505076203
 10
101.03936469645753
 20
-0.1348243101579638
 10
101.17767413698114
 20
-0.06089637399097081
 10
101.3277486252603
 20
-0.015371775677415767
 10
101.4838208828732
 20
-0.0
 10
122.88382088287321
 20
-0.0
 10
123.0398931404861
 20
-0.015371775677415656
 10
123.18996762876527
 20
-0.06089637399097059
 10
123.32827706928889
 20
-0.13482431015796392
 10
123.44950630782245
 20
-0.23431457505076203
 10
123.54899657271524
 20
-0.35554381358431836
 10
123.62292450888224
 20
-0.49385325410792835
 10
123.66844910719578
 20
-0.6439277423870976
 10
123.6838208828732
 20
-0.8000000000000003
 10
123.6838208828732
 20
-11.2
 10
123.66844910719578
 20
-11.356072257612903
 10
123.62292450888224
 20
-11.506146745892071
 10
123.54899657271524
 20
-11.644456186415681
 10
123.44950630782245
 20
-11.765685424949238
 10
123.32827706928889
 20
-11.865175689842035
 10
123.18996762876527
 20
-11.939103626009029
 10
123.0398931404861
 20
-11.984628224322584
 10
122.88382088287321
 20
-12.0
 10
101.4838208828732
 20
-12.0
 10
101.3277486252603
 20
-11.984628224322584
 10
101.17767413698114
 20
-11.939103626009029
 10
101.03936469645753
 20
-11.865175689842037
 10
100.91813545792397
 20
-11.765685424949238
 10
100.81864519303117
 20
-11.644456186415681
 10
100.74471725686418
 20
-11.506146745892071
 10
100.69919265855063
 20
-11.356072257612903
 10
100.6838208828732
 20
-11.2
  0
LINE
  5
DA
330
17
100
AcDbEntity
  8
HILO
100
AcDbLine
 10
112.1838208828732
 20
-0.5
 30
0.0
 11
112.1838208828732
 21
-11.5
 31
0.0
  0
LINE
  5
DB
330
17
100
AcDbEntity
  8
HILO
100
AcDbLine
 10
112.1838208828732
 20
-11.5
 30
0.0
 11
112.65112289364359
 21
-10.394726807196538
 31
0.0
  0
LINE
  5
DC
330
17
100
AcDbEntity
  8
HILO
100
AcDbLine
 10
112.1838208828732
 20
-11.5
 30
0.0
 11
111.71651887210282
 21
-10.394726807196538
 31
0.0
  0
LINE
  5
DD
330
17
100
AcDbEntity
  8
HILO
100
AcDbLine
 10
112.1838208828732
 20
-0.5
 30
0.0
 11
111.71651887210282
 21
-1.605273192803462
 31
0.0
  0
LINE
  5
DE
330
17
100
AcDbEntity
  8
HILO
100
AcDbLine
 10
112.1838208828732
 20
-0.5
 30
0.0
 11
112.65112289364359
 21
-1.605273192803462
 31
0.0
  0
LINE
  5
DF
330
17
100
AcDbEntity
  8
CONSTRUCCION
100
AcDbLine
 10
100.6838208828732
 20
-6.0
 30
0.0
 11
123.6838208828732
 21
-6.0
 31
0.0
  0
CIRCLE
  5
E0
330
17
100
AcDbEntity
  8
BOTONES
100
AcDbCircle
 10
101.88382088287321
 20
-6.0
 30
0.0
 40
0.55
  0
LINE
  5
E1
330
17
100
AcDbEntity
  8
OJAL
100
AcDbLine
 10
122.4838208828732
 20
-5.2
 30
0.0
 11
122.4838208828732
 21
-6.8
 31
0.0
  0
TEXT
  5
E2
330
17
100
AcDbEntity
  8
REFERENCIAS
100
AcDbText
 10
112.1838208828732
 20
-5.2
 30
0.0
 40
0.5
  1
DOBLEZ
 11
112.1838208828732
 21
-5.2
 31
0.0
100
AcDbText
  0
TEXT
  5
E3
330
17
100
AcDbEntity
  8
TEXTOS
100
AcDbText
 10
112.1838208828732
 20
-3.3000000000000034
 30
0.0
 40
0.9
  1
PUNO
 72
1
 11
112.1838208828732
 21
-3.3000000000000034
 31
0.0
100
AcDbText
 73
2
  0
TEXT
  5
E4
330
17
100
AcDbEntity
  8
TEXTOS
100
AcDbText
 10
112.1838208828732
 20
-4.700000000000003
 30
0.0
 40
0.6
  1
Pieza N.05
 72
1
 11
112.1838208828732
 21
-4.700000000000003
 31
0.0
100
AcDbText
 73
2
  0
TEXT
  5
E5
330
17
100
AcDbEntity
  8
TEXTOS
100
AcDbText
 10
112.1838208828732
 20
-6.100000000000003
 30
0.0
 40
0.6
  1
Talla: S
 72
1
 11
112.1838208828732
 21
-6.100000000000003
 31
0.0
100
AcDbText
 73
2
  0
TEXT
  5
E6
330
17
100
AcDbEntity
  8
TEXTOS
100
AcDbText
 10
112.1838208828732
 20
-7.500000000000003
 30
0.0
 40
0.6
  1
Cortar: 4  (4 (2 tela + 2 entretela))
 72
1
 11
112.1838208828732
 21
-7.500000000000003
 31
0.0
100
AcDbText
 73
2
  0
LWPOLYLINE
  5
E7
330
17
100
AcDbEntity
  8
CORTE
100
AcDbPolyline
 90
37
 70
1
 10
128.6838208828732
 20
-2.649127
 10
128.7059758828732
 20
-2.87407
 10
128.7859188828732
 20
-3.137608
 10
128.9157398828732
 20
-3.380486
 10
129.0904498828732
 20
-3.593371
 10
129.3033348828732
 20
-3.768081
 10
129.5462128828732
 20
-3.897902
 10
129.8097508828732
 20
-3.977845
 10
130.0346938828732
 20
-4.0
 10
141.33294788287319
 20
-4.0
 10
141.55789088287318
 20
-3.977845
 10
141.8214288828732
 20
-3.897902
 10
142.06430688287318
 20
-3.768081
 10
142.27719188287318
 20
-3.593371
 10
142.4519018828732
 20
-3.380486
 10
142.58172288287318
 20
-3.137608
 10
142.6616658828732
 20
-2.87407
 10
142.6838208828732
 20
-2.649127
 10
142.6838208828732
 20
-0.350873
 10
142.6616658828732
 20
-0.12593
 10
142.58172288287318
 20
0.137608
 10
142.4519018828732
 20
0.380486
 10
142.27719188287318
 20
0.593371
 10
142.06430688287318
 20
0.768081
 10
141.8214288828732
 20
0.897902
 10
141.55789088287318
 20
0.977845
 10
141.33294788287319
 20
1.0
 10
130.0346938828732
 20
1.0
 10
129.8097508828732
 20
0.977845
 10
129.5462128828732
 20
0.897902
 10
129.3033348828732
 20
0.768081
 10
129.0904498828732
 20
0.593371
 10
128.9157398828732
 20
0.380486
 10
128.7859188828732
 20
0.137608
 10
128.7059758828732
 20
-0.12593
 10
128.6838208828732
 20
-0.350873
 10
128.6838208828732
 20
-2.649127
  0
LWPOLYLINE
  5
E8
330
17
100
AcDbEntity
  8
COSTURA
100
AcDbPolyline
 90
36
 70
1
 10
129.6838208828732
 20
-0.4000000000000001
 10
129.6915067707119
 20
-0.3219638711935487
 10
129.71426906986866
 20
-0.24692662705396415
 10
129.75123303795218
 20
-0.17777190679215923
 10
129.80097817039857
 20
-0.11715728752538102
 10
129.86159278966534
 20
-0.0674121550789819
 10
129.93074750992716
 20
-0.030448186995485405
 10
130.00578475406675
 20
-0.007685887838707883
 10
130.0838208828732
 20
-0.0
 10
141.2838208828732
 20
-0.0
 10
141.36185701167963
 20
-0.007685887838707828
 10
141.43689425581923
 20
-0.030448186995485294
 10
141.50604897608105
 20
-0.06741215507898196
 10
141.56666359534782
 20
-0.11715728752538102
 10
141.6164087277942
 20
-0.17777190679215918
 10
141.6533726958777
 20
-0.24692662705396418
 10
141.6761349950345
 20
-0.3219638711935488
 10
141.6838208828732
 20
-0.40000000000000013
 10
141.6838208828732
 20
-2.6
 10
141.6761349950345
 20
-2.6780361288064514
 10
141.6533726958777
 20
-2.753073372946036
 10
141.6164087277942
 20
-2.822228093207841
 10
141.56666359534782
 20
-2.882842712474619
 10
141.50604897608105
 20
-2.9325878449210183
 10
141.43689425581923
 20
-2.969551813004515
 10
141.36185701167963
 20
-2.992314112161292
 10
141.2838208828732
 20
-3.0
 10
130.0838208828732
 20
-3.0
 10
130.00578475406675
 20
-2.992314112161292
 10
129.93074750992716
 20
-2.969551813004515
 10
129.86159278966534
 20
-2.9325878449210183
 10
129.80097817039857
 20
-2.882842712474619
 10
129.75123303795218
 20
-2.822228093207841
 10
129.71426906986866
 20
-2.753073372946036
 10
129.6915067707119
 20
-2.6780361288064514
 10
129.6838208828732
 20
-2.6
  0
LINE
  5
E9
330
17
100
AcDbEntity
  8
HILO
100
AcDbLine
 10
135.6838208828732
 20
-0.4
 30
0.0
 11
135.6838208828732
 21
-2.6
 31
0.0
  0
LINE
  5
EA
330
17
100
AcDbEntity
  8
HILO
100
AcDbLine
 10
135.6838208828732
 20
-2.6
 30
0.0
 11
136.15112289364356
 21
-1.494726807196538
 31
0.0
  0
LINE
  5
EB
330
17
100
AcDbEntity
  8
HILO
100
AcDbLine
 10
135.6838208828732
 20
-2.6
 30
0.0
 11
135.21651887210282
 21
-1.4947268071965383
 31
0.0
  0
LINE
  5
EC
330
17
100
AcDbEntity
  8
HILO
100
AcDbLine
 10
135.6838208828732
 20
-0.4
 30
0.0
 11
135.21651887210282
 21
-1.505273192803462
 31
0.0
  0
LINE
  5
ED
330
17
100
AcDbEntity
  8
HILO
100
AcDbLine
 10
135.6838208828732
 20
-0.4
 30
0.0
 11
136.15112289364356
 21
-1.505273192803462
 31
0.0
  0
TEXT
  5
EE
330
17
100
AcDbEntity
  8
TEXTOS
100
AcDbText
 10
135.6838208828732
 20
1.2000000000000013
 30
0.0
 40
0.9
  1
TAPETA MANGA
 72
1
 11
135.6838208828732
 21
1.2000000000000013
 31
0.0
100
AcDbText
 73
2
  0
TEXT
  5
EF
330
17
100
AcDbEntity
  8
TEXTOS
100
AcDbText
 10
135.6838208828732
 20
-0.19999999999999862
 30
0.0
 40
0.6
  1
Pieza N.06
 72
1
 11
135.6838208828732
 21
-0.19999999999999862
 31
0.0
100
AcDbText
 73
2
  0
TEXT
  5
F0
330
17
100
AcDbEntity
  8
TEXTOS
100
AcDbText
 10
135.6838208828732
 20
-1.5999999999999985
 30
0.0
 40
0.6
  1
Talla: S
 72
1
 11
135.6838208828732
 21
-1.5999999999999985
 31
0.0
100
AcDbText
 73
2
  0
TEXT
  5
F1
330
17
100
AcDbEntity
  8
TEXTOS
100
AcDbText
 10
135.6838208828732
 20
-2.9999999999999982
 30
0.0
 40
0.6
  1
Cortar: 2  (par)
 72
1
 11
135.6838208828732
 21
-2.9999999999999982
 31
0.0
100
AcDbText
 73
2
  0
LWPOLYLINE
  5
F2
330
17
100
AcDbEntity
  8
CORTE
100
AcDbPolyline
 90
84
 70
1
 10
0.77951
 20
-80.582996
 10
1.271
 20
-80.672293
 10
1.762543
 20
-80.756496
 10
2.254136
 20
-80.83560399999999
 10
2.745777
 20
-80.909615
 10
3.237462
 20
-80.978528
 10
3.729189
 20
-81.04234199999999
 10
4.220955
 20
-81.101055
 10
4.712756
 20
-81.15466699999999
 10
5.20459
 20
-81.203176
 10
5.696454
 20
-81.24658199999999
 10
6.188344
 20
-81.284883
 10
6.680257
 20
-81.318079
 10
7.17219
 20
-81.346169
 10
7.66414
 20
-81.369152
 10
8.156103
 20
-81.387029
 10
8.648077
 20
-81.399798
 10
9.140057
 20
-81.40746
 10
9.63204
 20
-81.41001299999999
 10
10.124023
 20
-81.40746
 10
10.616003
 20
-81.399798
 10
11.107977
 20
-81.387029
 10
11.59994
 20
-81.369152
 10
12.09189
 20
-81.346169
 10
12.583823
 20
-81.318079
 10
13.075736
 20
-81.284883
 10
13.567626
 20
-81.24658199999999
 10
14.05949
 20
-81.203176
 10
14.551324
 20
-81.15466699999999
 10
15.043125
 20
-81.101055
 10
15.534891
 20
-81.04234199999999
 10
16.026618
 20
-80.978528
 10
16.518303
 20
-80.909615
 10
17.009944
 20
-80.83560399999999
 10
17.501537
 20
-80.756496
 10
17.99308
 20
-80.672293
 10
18.48457
 20
-80.582996
 10
18.768919
 20
-80.528382
 10
20.820641
 20
-83.947919
 10
21.875859
 20
-83.548936
 10
20.062767
 20
-73.728019
 10
18.588951
 20
-74.026392
 10
18.117182
 20
-74.117004
 10
17.645468
 20
-74.202707
 10
17.173807
 20
-74.283504
 10
16.702196
 20
-74.35939599999999
 10
16.230633
 20
-74.430385
 10
15.759114
 20
-74.496472
 10
15.287637
 20
-74.557658
 10
14.816199
 20
-74.613945
 10
14.344796
 20
-74.66533299999999
 10
13.873426
 20
-74.711824
 10
13.402086
 20
-74.753418
 10
12.930772
 20
-74.790117
 10
12.459481
 20
-74.821921
 10
11.98821
 20
-74.84883099999999
 10
11.516956
 20
-74.870848
 10
11.045715
 20
-74.887971
 10
10.574485
 20
-74.900202
 10
10.103261
 20
-74.90754
 10
9.63204
 20
-74.909987
 10
9.160819
 20
-74.90754
 10
8.689595
 20
-74.900202
 10
8.218365
 20
-74.887971
 10
7.747124
 20
-74.870848
 10
7.27587
 20
-74.84883099999999
 10
6.804599
 20
-74.821921
 10
6.333308
 20
-74.790117
 10
5.861994
 20
-74.753418
 10
5.390654
 20
-74.711824
 10
4.919284
 20
-74.66533299999999
 10
4.447881
 20
-74.613945
 10
3.976443
 20
-74.557658
 10
3.504966
 20
-74.496472
 10
3.033447
 20
-74.430385
 10
2.561884
 20
-74.35939599999999
 10
2.090273
 20
-74.283504
 10
1.618612
 20
-74.202707
 10
1.146898
 20
-74.117004
 10
0.675129
 20
-74.026392
 10
0.0
 20
-73.889713
 10
0.0
 20
-80.43028699999999
 10
0.288075
 20
-80.488608
 10
0.77951
 20
-80.582996
  0
LWPOLYLINE
  5
F3
330
17
100
AcDbEntity
  8
COSTURA
100
AcDbPolyline
 90
83
 70
1
 10
0.0
 20
-74.91
 10
0.48160200005828013
 20
-75.0075
 10
0.9632040001165603
 20
-75.1
 10
1.4448060001748404
 20
-75.1875
 10
1.9264080002331205
 20
-75.27
 10
2.4080100002914007
 20
-75.3475
 10
2.889612000349681
 20
-75.42
 10
3.371214000407961
 20
-75.4875
 10
3.852816000466241
 20
-75.55
 10
4.334418000524521
 20
-75.6075
 10
4.816020000582801
 20
-75.66
 10
5.2976220006410815
 20
-75.7075
 10
5.779224000699362
 20
-75.75
 10
6.260826000757642
 20
-75.7875
 10
6.742428000815922
 20
-75.82
 10
7.224030000874202
 20
-75.8475
 10
7.705632000932482
 20
-75.86999999999999
 10
8.187234000990761
 20
-75.8875
 10
8.668836001049042
 20
-75.89999999999999
 10
9.150438001107322
 20
-75.9075
 10
9.632040001165603
 20
-75.91
 10
10.113642001223884
 20
-75.9075
 10
10.595244001282163
 20
-75.89999999999999
 10
11.076846001340442
 20
-75.8875
 10
11.558448001398723
 20
-75.86999999999999
 10
12.040050001457004
 20
-75.8475
 10
12.521652001515283
 20
-75.82
 10
13.003254001573564
 20
-75.7875
 10
13.484856001631844
 20
-75.75
 10
13.966458001690123
 20
-75.7075
 10
14.448060001748404
 20
-75.66
 10
14.929662001806685
 20
-75.6075
 10
15.411264001864964
 20
-75.55
 10
15.892866001923244
 20
-75.4875
 10
16.374468001981523
 20
-75.42
 10
16.856070002039804
 20
-75.3475
 10
17.337672002098085
 20
-75.27
 10
17.819274002156366
 20
-75.1875
 10
18.300876002214643
 20
-75.1
 10
18.782478002272924
 20
-75.0075
 10
19.264080002331205
 20
-74.91
 10
20.464080002331205
 20
-81.41
 10
19.264080002331205
 20
-79.41
 10
18.782478002272924
 20
-79.5075
 10
18.300876002214643
 20
-79.6
 10
17.819274002156366
 20
-79.6875
 10
17.337672002098085
 20
-79.77
 10
16.856070002039804
 20
-79.8475
 10
16.374468001981523
 20
-79.92
 10
15.892866001923244
 20
-79.9875
 10
15.411264001864964
 20
-80.05
 10
14.929662001806685
 20
-80.1075
 10
14.448060001748404
 20
-80.16
 10
13.966458001690123
 20
-80.2075
 10
13.484856001631844
 20
-80.25
 10
13.003254001573564
 20
-80.2875
 10
12.521652001515283
 20
-80.32
 10
12.040050001457004
 20
-80.3475
 10
11.558448001398723
 20
-80.36999999999999
 10
11.076846001340442
 20
-80.3875
 10
10.595244001282163
 20
-80.39999999999999
 10
10.113642001223884
 20
-80.4075
 10
9.632040001165603
 20
-80.41
 10
9.150438001107322
 20
-80.4075
 10
8.668836001049042
 20
-80.39999999999999
 10
8.187234000990761
 20
-80.3875
 10
7.705632000932482
 20
-80.36999999999999
 10
7.224030000874202
 20
-80.3475
 10
6.742428000815922
 20
-80.32
 10
6.260826000757642
 20
-80.2875
 10
5.779224000699362
 20
-80.25
 10
5.2976220006410815
 20
-80.2075
 10
4.816020000582801
 20
-80.16
 10
4.334418000524521
 20
-80.1075
 10
3.852816000466241
 20
-80.05
 10
3.371214000407961
 20
-79.9875
 10
2.889612000349681
 20
-79.92
 10
2.4080100002914007
 20
-79.8475
 10
1.9264080002331205
 20
-79.77
 10
1.4448060001748404
 20
-79.6875
 10
0.9632040001165603
 20
-79.6
 10
0.48160200005828013
 20
-79.5075
 10
0.0
 20
-79.41
  0
LINE
  5
F4
330
17
100
AcDbEntity
  8
DOBLEZ
100
AcDbLine
 10
0.0
 20
-74.91
 30
0.0
 11
0.0
 21
-81.41
 31
0.0
  0
LINE
  5
F5
330
17
100
AcDbEntity
  8
HILO
100
AcDbLine
 10
0.5
 20
-75.41
 30
0.0
 11
18.764080002331205
 21
-75.41
 31
0.0
  0
LINE
  5
F6
330
17
100
AcDbEntity
  8
HILO
100
AcDbLine
 10
18.764080002331205
 20
-75.41
 30
0.0
 11
17.658806809527743
 21
-74.94269798922961
 31
0.0
  0
LINE
  5
F7
330
17
100
AcDbEntity
  8
HILO
100
AcDbLine
 10
18.764080002331205
 20
-75.41
 30
0.0
 11
17.658806809527743
 21
-75.87730201077038
 31
0.0
  0
LINE
  5
F8
330
17
100
AcDbEntity
  8
HILO
100
AcDbLine
 10
0.5
 20
-75.41
 30
0.0
 11
1.605273192803462
 21
-75.87730201077038
 31
0.0
  0
LINE
  5
F9
330
17
100
AcDbEntity
  8
HILO
100
AcDbLine
 10
0.5
 20
-75.41
 30
0.0
 11
1.605273192803462
 21
-74.94269798922961
 31
0.0
  0
TEXT
  5
FA
330
17
100
AcDbEntity
  8
TEXTOS
100
AcDbText
 10
9.935060528670165
 20
-74.24891654181553
 30
0.0
 40
0.9
  1
CUELLO
 72
1
 11
9.935060528670165
 21
-74.24891654181553
 31
0.0
100
AcDbText
 73
2
  0
TEXT
  5
FB
330
17
100
AcDbEntity
  8
TEXTOS
100
AcDbText
 10
9.935060528670165
 20
-75.64891654181554
 30
0.0
 40
0.6
  1
Pieza N.07
 72
1
 11
9.935060528670165
 21
-75.64891654181554
 31
0.0
100
AcDbText
 73
2
  0
TEXT
  5
FC
330
17
100
AcDbEntity
  8
TEXTOS
100
AcDbText
 10
9.935060528670165
 20
-77.04891654181553
 30
0.0
 40
0.6
  1
Talla: S
 72
1
 11
9.935060528670165
 21
-77.04891654181553
 31
0.0
100
AcDbText
 73
2
  0
TEXT
  5
FD
330
17
100
AcDbEntity
  8
TEXTOS
100
AcDbText
 10
9.935060528670165
 20
-78.44891654181554
 30
0.0
 40
0.6
  1
Cortar: 2  (al doblez x2 (+ entretela))
 72
1
 11
9.935060528670165
 21
-78.44891654181554
 31
0.0
100
AcDbText
 73
2
  0
TEXT
  5
FE
330
17
100
AcDbEntity
  8
TEXTOS
100
AcDbText
 10
9.935060528670165
 20
-79.84891654181553
 30
0.0
 40
0.6
  1
AL DOBLEZ
 72
1
 11
9.935060528670165
 21
-79.84891654181553
 31
0.0
100
AcDbText
 73
2
  0
LWPOLYLINE
  5
FF
330
17
100
AcDbEntity
  8
CORTE
100
AcDbPolyline
 90
83
 70
1
 10
27.376185002331205
 20
-79.052702
 10
27.907720002331203
 20
-79.123695
 10
28.439276002331205
 20
-79.190634
 10
28.970852002331206
 20
-79.253518
 10
29.502448002331207
 20
-79.312347
 10
30.034062002331204
 20
-79.367121
 10
30.565693002331205
 20
-79.41784
 10
31.097340002331205
 20
-79.464502
 10
31.629001002331204
 20
-79.50710699999999
 10
32.1606750023312
 20
-79.545656
 10
32.692361002331204
 20
-79.580148
 10
33.224058002331205
 20
-79.61058299999999
 10
33.755764002331205
 20
-79.63696
 10
34.287478002331206
 20
-79.65928
 10
34.819198002331206
 20
-79.677542
 10
35.350924002331205
 20
-79.691745
 10
35.88265400233121
 20
-79.70189099999999
 10
36.414386002331206
 20
-79.707978
 10
36.946120002331206
 20
-79.71000699999999
 10
37.477854002331206
 20
-79.707978
 10
38.009586002331204
 20
-79.70189099999999
 10
38.5413160023312
 20
-79.691745
 10
39.073042002331206
 20
-79.677542
 10
39.604762002331206
 20
-79.65928
 10
40.13647600233121
 20
-79.63696
 10
40.66818200233121
 20
-79.61058299999999
 10
41.1998790023312
 20
-79.580148
 10
41.73156500233121
 20
-79.545656
 10
42.263239002331204
 20
-79.50710699999999
 10
42.794900002331204
 20
-79.464502
 10
43.3265470023312
 20
-79.41784
 10
43.8581780023312
 20
-79.367121
 10
44.389792002331205
 20
-79.312347
 10
44.921388002331206
 20
-79.253518
 10
45.4529640023312
 20
-79.190634
 10
45.98452000233121
 20
-79.123695
 10
46.5160550023312
 20
-79.052702
 10
47.04756600233121
 20
-78.977656
 10
48.428160002331204
 20
-78.772188
 10
48.428160002331204
 20
-73.75016
 10
46.7605500023312
 20
-73.998344
 10
46.243857002331204
 20
-74.071298
 10
45.727188002331204
 20
-74.140305
 10
45.2105400023312
 20
-74.205366
 10
44.6939120023312
 20
-74.266482
 10
44.177304002331205
 20
-74.323653
 10
43.660714002331204
 20
-74.376879
 10
43.1441410023312
 20
-74.42616
 10
42.627584002331204
 20
-74.471498
 10
42.111041002331206
 20
-74.51289299999999
 10
41.5945110023312
 20
-74.550344
 10
41.077993002331205
 20
-74.583852
 10
40.56148600233121
 20
-74.613417
 10
40.04498800233121
 20
-74.63904
 10
39.528498002331204
 20
-74.66072
 10
39.012014002331206
 20
-74.67845799999999
 10
38.49553600233121
 20
-74.692255
 10
37.979062002331204
 20
-74.702109
 10
37.462590002331204
 20
-74.708022
 10
36.946120002331206
 20
-74.709993
 10
36.4296500023312
 20
-74.708022
 10
35.91317800233121
 20
-74.702109
 10
35.396704002331205
 20
-74.692255
 10
34.880226002331206
 20
-74.67845799999999
 10
34.36374200233121
 20
-74.66072
 10
33.8472520023312
 20
-74.63904
 10
33.330754002331204
 20
-74.613417
 10
32.81424700233121
 20
-74.583852
 10
32.2977290023312
 20
-74.550344
 10
31.781199002331206
 20
-74.51289299999999
 10
31.264656002331204
 20
-74.471498
 10
30.748099002331205
 20
-74.42616
 10
30.231526002331204
 20
-74.376879
 10
29.714936002331203
 20
-74.323653
 10
29.198328002331206
 20
-74.266482
 10
28.681700002331205
 20
-74.205366
 10
28.165052002331205
 20
-74.140305
 10
27.648383002331204
 20
-74.071298
 10
27.131690002331204
 20
-73.998344
 10
26.464080002331205
 20
-73.898986
 10
26.464080002331205
 20
-78.921014
 10
26.844674002331203
 20
-78.977656
 10
27.376185002331205
 20
-79.052702
  0
LWPOLYLINE
  5
100
330
17
100
AcDbEntity
  8
COSTURA
100
AcDbPolyline
 90
82
 70
1
 10
26.464080002331205
 20
-74.91
 10
26.988182002389486
 20
-74.988
 10
27.512284002447764
 20
-75.062
 10
28.036386002506045
 20
-75.13199999999999
 10
28.560488002564327
 20
-75.198
 10
29.084590002622605
 20
-75.25999999999999
 10
29.608692002680886
 20
-75.318
 10
30.132794002739164
 20
-75.372
 10
30.656896002797446
 20
-75.422
 10
31.180998002855727
 20
-75.468
 10
31.705100002914005
 20
-75.50999999999999
 10
32.229202002972286
 20
-75.548
 10
32.753304003030564
 20
-75.582
 10
33.27740600308885
 20
-75.612
 10
33.80150800314713
 20
-75.63799999999999
 10
34.325610003205405
 20
-75.66
 10
34.84971200326369
 20
-75.678
 10
35.37381400332197
 20
-75.692
 10
35.897916003380246
 20
-75.702
 10
36.422018003438524
 20
-75.708
 10
36.94612000349681
 20
-75.71
 10
37.47022200355509
 20
-75.708
 10
37.99432400361337
 20
-75.702
 10
38.51842600367165
 20
-75.692
 10
39.04252800372993
 20
-75.678
 10
39.566630003788205
 20
-75.66
 10
40.09073200384649
 20
-75.63799999999999
 10
40.61483400390477
 20
-75.612
 10
41.138936003963046
 20
-75.582
 10
41.66303800402133
 20
-75.548
 10
42.18714000407961
 20
-75.50999999999999
 10
42.71124200413789
 20
-75.468
 10
43.235344004196165
 20
-75.422
 10
43.75944600425444
 20
-75.372
 10
44.28354800431273
 20
-75.318
 10
44.80765000437101
 20
-75.25999999999999
 10
45.33175200442929
 20
-75.198
 10
45.85585400448757
 20
-75.13199999999999
 10
46.379956004545846
 20
-75.062
 10
46.904058004604124
 20
-74.988
 10
47.42816000466241
 20
-74.91
 10
47.42816000466241
 20
-77.91
 10
46.904058004604124
 20
-77.988
 10
46.379956004545846
 20
-78.062
 10
45.85585400448757
 20
-78.13199999999999
 10
45.33175200442929
 20
-78.198
 10
44.80765000437101
 20
-78.25999999999999
 10
44.28354800431273
 20
-78.318
 10
43.75944600425444
 20
-78.372
 10
43.235344004196165
 20
-78.422
 10
42.71124200413789
 20
-78.46799999999999
 10
42.18714000407961
 20
-78.50999999999999
 10
41.66303800402133
 20
-78.548
 10
41.138936003963046
 20
-78.582
 10
40.61483400390477
 20
-78.612
 10
40.09073200384649
 20
-78.63799999999999
 10
39.566630003788205
 20
-78.66
 10
39.04252800372993
 20
-78.678
 10
38.51842600367165
 20
-78.692
 10
37.99432400361337
 20
-78.702
 10
37.47022200355509
 20
-78.708
 10
36.94612000349681
 20
-78.71
 10
36.422018003438524
 20
-78.708
 10
35.897916003380246
 20
-78.702
 10
35.37381400332197
 20
-78.692
 10
34.84971200326369
 20
-78.678
 10
34.325610003205405
 20
-78.66
 10
33.80150800314713
 20
-78.63799999999999
 10
33.27740600308885
 20
-78.612
 10
32.753304003030564
 20
-78.582
 10
32.229202002972286
 20
-78.548
 10
31.705100002914005
 20
-78.50999999999999
 10
31.180998002855727
 20
-78.46799999999999
 10
30.656896002797446
 20
-78.422
 10
30.132794002739164
 20
-78.372
 10
29.608692002680886
 20
-78.318
 10
29.084590002622605
 20
-78.25999999999999
 10
28.560488002564327
 20
-78.198
 10
28.036386002506045
 20
-78.13199999999999
 10
27.512284002447764
 20
-78.062
 10
26.988182002389486
 20
-77.988
 10
26.464080002331205
 20
-77.91
  0
LINE
  5
101
330
17
100
AcDbEntity
  8
DOBLEZ
100
AcDbLine
 10
26.464080002331205
 20
-74.91
 30
0.0
 11
26.464080002331205
 21
-78.71
 31
0.0
  0
LINE
  5
102
330
17
100
AcDbEntity
  8
HILO
100
AcDbLine
 10
26.964080002331205
 20
-75.31
 30
0.0
 11
46.92816000466241
 21
-75.31
 31
0.0
  0
LINE
  5
103
330
17
100
AcDbEntity
  8
HILO
100
AcDbLine
 10
46.92816000466241
 20
-75.31
 30
0.0
 11
45.82288681185895
 21
-74.84269798922962
 31
0.0
  0
LINE
  5
104
330
17
100
AcDbEntity
  8
HILO
100
AcDbLine
 10
46.92816000466241
 20
-75.31
 30
0.0
 11
45.82288681185895
 21
-75.77730201077037
 31
0.0
  0
LINE
  5
105
330
17
100
AcDbEntity
  8
HILO
100
AcDbLine
 10
26.964080002331205
 20
-75.31
 30
0.0
 11
28.069353195134667
 21
-75.77730201077037
 31
0.0
  0
LINE
  5
106
330
17
100
AcDbEntity
  8
HILO
100
AcDbLine
 10
26.964080002331205
 20
-75.31
 30
0.0
 11
28.069353195134667
 21
-74.84269798922962
 31
0.0
  0
CIRCLE
  5
107
330
17
100
AcDbEntity
  8
BOTONES
100
AcDbCircle
 10
46.42816000466241
 20
-76.41
 30
0.0
 40
0.55
  0
TEXT
  5
108
330
17
100
AcDbEntity
  8
TEXTOS
100
AcDbText
 10
36.94612000349681
 20
-73.343
 30
0.0
 40
0.9
  1
PIE DE CUELLO
 72
1
 11
36.94612000349681
 21
-73.343
 31
0.0
100
AcDbText
 73
2
  0
TEXT
  5
109
330
17
100
AcDbEntity
  8
TEXTOS
100
AcDbText
 10
36.94612000349681
 20
-74.743
 30
0.0
 40
0.6
  1
Pieza N.08
 72
1
 11
36.94612000349681
 21
-74.743
 31
0.0
100
AcDbText
 73
2
  0
TEXT
  5
10A
330
17
100
AcDbEntity
  8
TEXTOS
100
AcDbText
 10
36.94612000349681
 20
-76.143
 30
0.0
 40
0.6
  1
Talla: S
 72
1
 11
36.94612000349681
 21
-76.143
 31
0.0
100
AcDbText
 73
2
  0
TEXT
  5
10B
330
17
100
AcDbEntity
  8
TEXTOS
100
AcDbText
 10
36.94612000349681
 20
-77.54299999999999
 30
0.0
 40
0.6
  1
Cortar: 2  (al doblez x2 (+ entretela))
 72
1
 11
36.94612000349681
 21
-77.54299999999999
 31
0.0
100
AcDbText
 73
2
  0
TEXT
  5
10C
330
17
100
AcDbEntity
  8
TEXTOS
100
AcDbText
 10
36.94612000349681
 20
-78.943
 30
0.0
 40
0.6
  1
AL DOBLEZ
 72
1
 11
36.94612000349681
 21
-78.943
 31
0.0
100
AcDbText
 73
2
  0
LWPOLYLINE
  5
10D
330
17
100
AcDbEntity
  8
CORTE
100
AcDbPolyline
 90
42
 70
1
 10
52.42816000466241
 20
-143.91
 10
60.43538000466241
 20
-143.91
 10
60.02933700466241
 20
-87.470068
 10
64.25308200466242
 20
-74.904427
 10
61.728821004662414
 20
-73.642296
 10
61.03270800466241
 20
-74.570664
 10
60.836969004662414
 20
-74.832279
 10
60.64115400466241
 20
-75.095143
 10
60.445542004662414
 20
-75.359462
 10
60.25041600466241
 20
-75.625446
 10
60.05606000466241
 20
-75.89330799999999
 10
59.86276300466241
 20
-76.16326099999999
 10
59.67081600466241
 20
-76.43551699999999
 10
59.480515004662415
 20
-76.710293
 10
59.29215600466241
 20
-76.987804
 10
59.10604200466241
 20
-77.268265
 10
58.922479004662414
 20
-77.55189299999999
 10
58.741775004662415
 20
-77.83890199999999
 10
58.56440200466241
 20
-78.12924699999999
 10
58.39146300466241
 20
-78.42139
 10
58.22323800466241
 20
-78.71292199999999
 10
58.058910004662415
 20
-79.002591
 10
57.89743500466241
 20
-79.289609
 10
57.737813004662414
 20
-79.573199
 10
57.57908700466241
 20
-79.852593
 10
57.42034400466241
 20
-80.12703499999999
 10
57.26071300466241
 20
-80.39578499999999
 10
57.099363004662415
 20
-80.65812299999999
 10
56.93550100466241
 20
-80.913358
 10
56.76836600466241
 20
-81.16084099999999
 10
56.59721800466241
 20
-81.399974
 10
56.42132100466241
 20
-81.630239
 10
56.23902900466241
 20
-81.8523
 10
56.04756400466241
 20
-82.069142
 10
55.84581000466241
 20
-82.283491
 10
55.634438004662414
 20
-82.496185
 10
55.41437200466241
 20
-82.70788399999999
 10
55.18660200466241
 20
-82.919276
 10
54.95217100466241
 20
-83.13108799999999
 10
54.75058500466241
 20
-83.31
 10
52.42816000466241
 20
-83.31
 10
52.42816000466241
 20
-143.91
  0
LWPOLYLINE
  5
10E
330
17
100
AcDbEntity
  8
COSTURA
100
AcDbPolyline
 90
42
 70
1
 10
53.42816000466241
 20
-84.31
 10
55.12816000466241
 20
-84.31
 10
55.37429721609333
 20
-84.09348907067131
 10
55.61928303983104
 20
-83.876058943868
 10
55.86196608818231
 20
-83.65679042211545
 10
56.10119497345392
 20
-83.43476430793902
 10
56.33581830795267
 20
-83.20906140386408
 10
56.564684703985336
 20
-82.97876251241604
 10
56.786642773858695
 20
-82.74294843612024
 10
57.00054112987954
 20
-82.50069997750208
 10
57.20535762212937
 20
-82.25120019116355
 10
57.4013428391263
 20
-81.99463911397952
 10
57.58947115127838
 20
-81.73177943429172
 10
57.770725286754086
 20
-81.4633904530469
 10
57.9460879737219
 20
-81.19024147119178
 10
58.11654194035029
 20
-80.91310178967312
 10
58.28306991480774
 20
-80.63274070943767
 10
58.44665462526272
 20
-80.34992753143217
 10
58.6082787998837
 20
-80.06543155660336
 10
58.76892516683917
 20
-79.78002208589797
 10
58.92957645429759
 20
-79.49446842026278
 10
59.09121539042744
 20
-79.2095398606445
 10
59.25482470339721
 20
-78.92600570798989
 10
59.42138696606422
 20
-78.64463514296425
 10
59.59161393668012
 20
-78.36598761259903
 10
59.76539004142262
 20
-78.08998183274412
 10
59.942442269974286
 20
-77.81641459182177
 10
60.12249761201768
 20
-77.5450826782543
 10
60.30528305723539
 20
-77.27578288046399
 10
60.49052559530997
 20
-77.00831198687311
 10
60.677952215923995
 20
-76.74246678590396
 10
60.86728990876003
 20
-76.4780440659788
 10
61.05826566350064
 20
-76.21484061551995
 10
61.25060646982842
 20
-75.95265322294966
 10
61.44403931742591
 20
-75.69127867669025
 10
61.6382911959757
 20
-75.43051376516397
 10
61.83308909516034
 20
-75.17015527679312
 10
62.02816000466241
 20
-74.91
 10
63.02816000466241
 20
-75.41
 10
59.02816000466241
 20
-87.31
 10
59.42816000466241
 20
-142.91
 10
53.42816000466241
 20
-142.91
  0
LINE
  5
10F
330
17
100
AcDbEntity
  8
HILO
100
AcDbLine
 10
56.42816000466241
 20
-89.31
 30
0.0
 11
56.42816000466241
 21
-139.91
 31
0.0
  0
LINE
  5
110
330
17
100
AcDbEntity
  8
HILO
100
AcDbLine
 10
56.42816000466241
 20
-139.91
 30
0.0
 11
56.89546201543279
 21
-138.80472680719654
 31
0.0
  0
LINE
  5
111
330
17
100
AcDbEntity
  8
HILO
100
AcDbLine
 10
56.42816000466241
 20
-139.91
 30
0.0
 11
55.960857993892034
 21
-138.80472680719654
 31
0.0
  0
LINE
  5
112
330
17
100
AcDbEntity
  8
HILO
100
AcDbLine
 10
56.42816000466241
 20
-89.31
 30
0.0
 11
55.960857993892034
 21
-90.41527319280345
 31
0.0
  0
LINE
  5
113
330
17
100
AcDbEntity
  8
HILO
100
AcDbLine
 10
56.42816000466241
 20
-89.31
 30
0.0
 11
56.89546201543279
 21
-90.41527319280345
 31
0.0
  0
TEXT
  5
114
330
17
100
AcDbEntity
  8
TEXTOS
100
AcDbText
 10
56.57837287091489
 20
-108.7745881491815
 30
0.0
 40
0.9
  1
VISTA DELANTERA
 72
1
 11
56.57837287091489
 21
-108.7745881491815
 31
0.0
100
AcDbText
 73
2
  0
TEXT
  5
115
330
17
100
AcDbEntity
  8
TEXTOS
100
AcDbText
 10
56.57837287091489
 20
-110.17458814918149
 30
0.0
 40
0.6
  1
Pieza N.09
 72
1
 11
56.57837287091489
 21
-110.17458814918149
 31
0.0
100
AcDbText
 73
2
  0
TEXT
  5
116
330
17
100
AcDbEntity
  8
TEXTOS
100
AcDbText
 10
56.57837287091489
 20
-111.5745881491815
 30
0.0
 40
0.6
  1
Talla: S
 72
1
 11
56.57837287091489
 21
-111.5745881491815
 31
0.0
100
AcDbText
 73
2
  0
TEXT
  5
117
330
17
100
AcDbEntity
  8
TEXTOS
100
AcDbText
 10
56.57837287091489
 20
-112.9745881491815
 30
0.0
 40
0.6
  1
Cortar: 2  (par: izq + der)
 72
1
 11
56.57837287091489
 21
-112.9745881491815
 31
0.0
100
AcDbText
 73
2
  0
LWPOLYLINE
  5
118
330
17
100
AcDbEntity
  8
CORTE
100
AcDbPolyline
 90
6
 70
1
 10
68.02816000466241
 20
-85.181905
 10
75.02816000466241
 20
-89.591905
 10
82.02816000466241
 20
-85.181905
 10
82.02816000466241
 20
-73.91
 10
68.02816000466241
 20
-73.91
 10
68.02816000466241
 20
-85.181905
  0
LWPOLYLINE
  5
119
330
17
100
AcDbEntity
  8
COSTURA
100
AcDbPolyline
 90
5
 70
1
 10
69.02816000466241
 20
-74.91
 10
81.02816000466241
 20
-74.91
 10
81.02816000466241
 20
-84.63
 10
75.02816000466241
 20
-88.41
 10
69.02816000466241
 20
-84.63
  0
LINE
  5
11A
330
17
100
AcDbEntity
  8
HILO
100
AcDbLine
 10
75.02816000466241
 20
-75.91
 30
0.0
 11
75.02816000466241
 21
-84.63
 31
0.0
  0
LINE
  5
11B
330
17
100
AcDbEntity
  8
HILO
100
AcDbLine
 10
75.02816000466241
 20
-84.63
 30
0.0
 11
75.49546201543279
 21
-83.52472680719653
 31
0.0
  0
LINE
  5
11C
330
17
100
AcDbEntity
  8
HILO
100
AcDbLine
 10
75.02816000466241
 20
-84.63
 30
0.0
 11
74.56085799389203
 21
-83.52472680719653
 31
0.0
  0
LINE
  5
11D
330
17
100
AcDbEntity
  8
HILO
100
AcDbLine
 10
75.02816000466241
 20
-75.91
 30
0.0
 11
74.56085799389203
 21
-77.01527319280346
 31
0.0
  0
LINE
  5
11E
330
17
100
AcDbEntity
  8
HILO
100
AcDbLine
 10
75.02816000466241
 20
-75.91
 30
0.0
 11
75.49546201543279
 21
-77.01527319280346
 31
0.0
  0
LINE
  5
11F
330
17
100
AcDbEntity
  8
CONSTRUCCION
100
AcDbLine
 10
69.02816000466241
 20
-82.13
 30
0.0
 11
81.02816000466241
 21
-82.13
 31
0.0
  0
TEXT
  5
120
330
17
100
AcDbEntity
  8
REFERENCIAS
100
AcDbText
 10
75.02816000466241
 20
-76.41
 30
0.0
 40
0.5
  1
boca
 11
75.02816000466241
 21
-76.41
 31
0.0
100
AcDbText
  0
TEXT
  5
121
330
17
100
AcDbEntity
  8
TEXTOS
100
AcDbText
 10
75.02816000466241
 20
-78.06627906976743
 30
0.0
 40
0.9
  1
BOLSILLO
 72
1
 11
75.02816000466241
 21
-78.06627906976743
 31
0.0
100
AcDbText
 73
2
  0
TEXT
  5
122
330
17
100
AcDbEntity
  8
TEXTOS
100
AcDbText
 10
75.02816000466241
 20
-79.46627906976744
 30
0.0
 40
0.6
  1
Pieza N.10
 72
1
 11
75.02816000466241
 21
-79.46627906976744
 31
0.0
100
AcDbText
 73
2
  0
TEXT
  5
123
330
17
100
AcDbEntity
  8
TEXTOS
100
AcDbText
 10
75.02816000466241
 20
-80.86627906976744
 30
0.0
 40
0.6
  1
Talla: S
 72
1
 11
75.02816000466241
 21
-80.86627906976744
 31
0.0
100
AcDbText
 73
2
  0
TEXT
  5
124
330
17
100
AcDbEntity
  8
TEXTOS
100
AcDbText
 10
75.02816000466241
 20
-82.26627906976744
 30
0.0
 40
0.6
  1
Cortar: 1  (1 (opcional))
 72
1
 11
75.02816000466241
 21
-82.26627906976744
 31
0.0
100
AcDbText
 73
2
  0
ENDSEC
  0
SECTION
  2
OBJECTS
  0
DICTIONARY
  5
A
330
0
100
AcDbDictionary
281
1
  3
ACAD_COLOR
350
B
  3
ACAD_GROUP
350
C
  3
ACAD_LAYOUT
350
D
  3
ACAD_MATERIAL
350
E
  3
ACAD_MLEADERSTYLE
350
F
  3
ACAD_MLINESTYLE
350
10
  3
ACAD_PLOTSETTINGS
350
11
  3
ACAD_PLOTSTYLENAME
350
12
  3
ACAD_SCALELIST
350
14
  3
ACAD_TABLESTYLE
350
15
  3
ACAD_VISUALSTYLE
350
16
  3
EZDXF_META
350
2D
  0
DICTIONARY
  5
B
330
A
100
AcDbDictionary
281
1
  0
DICTIONARY
  5
C
330
A
100
AcDbDictionary
281
1
  0
DICTIONARY
  5
D
330
A
100
AcDbDictionary
281
1
  3
Model
350
1A
  3
Layout1
350
1E
  0
DICTIONARY
  5
E
330
A
100
AcDbDictionary
281
1
  3
ByBlock
350
1F
  3
ByLayer
350
20
  3
Global
350
21
  0
DICTIONARY
  5
F
330
A
100
AcDbDictionary
281
1
  3
Standard
350
2C
  0
DICTIONARY
  5
10
330
A
100
AcDbDictionary
281
1
  3
Standard
350
22
  0
DICTIONARY
  5
11
330
A
100
AcDbDictionary
281
1
  0
ACDBDICTIONARYWDFLT
  5
12
330
A
100
AcDbDictionary
281
1
  3
Normal
350
13
100
AcDbDictionaryWithDefault
340
13
  0
ACDBPLACEHOLDER
  5
13
330
12
  0
DICTIONARY
  5
14
330
A
100
AcDbDictionary
281
1
  0
DICTIONARY
  5
15
330
A
100
AcDbDictionary
281
1
  0
DICTIONARY
  5
16
330
A
100
AcDbDictionary
281
1
  3
2dWireframe
350
5A
  3
Basic
350
5B
  3
Brighten
350
5C
  3
ColorChange
350
5D
  3
Conceptual
350
5E
  3
Dim
350
5F
  3
EdgeColorOff
350
60
  3
Facepattern
350
61
  3
Flat
350
62
  3
FlatWithEdges
350
63
  3
Gouraud
350
64
  3
GouraudWithEdges
350
65
  3
Hidden
350
66
  3
JitterOff
350
67
  3
Linepattern
350
68
  3
Modeling
350
69
  3
OverhangOff
350
6A
  3
Realistic
350
6B
  3
Shaded
350
6C
  3
Shaded with edges
350
6D
  3
Shades of Gray
350
6E
  3
Sketchy
350
6F
  3
Thicken
350
70
  3
Wireframe
350
71
  3
X-Ray
350
72
  0
LAYOUT
  5
1A
330
D
100
AcDbPlotSettings
  1

  4
A3
  6

 40
7.5
 41
20.0
 42
7.5
 43
20.0
 44
420.0
 45
297.0
 46
0.0
 47
0.0
 48
0.0
 49
0.0
140
0.0
141
0.0
142
1.0
143
1.0
 70
1024
 72
1
 73
0
 74
5
  7

 75
16
 76
0
 77
2
 78
300
147
1.0
148
0.0
149
0.0
100
AcDbLayout
  1
Model
 70
1
 71
0
 10
0.0
 20
0.0
 11
420.0
 21
297.0
 12
0.0
 22
0.0
 32
0.0
 14
1e+20
 24
1e+20
 34
1e+20
 15
-1e+20
 25
-1e+20
 35
-1e+20
146
0.0
 13
0.0
 23
0.0
 33
0.0
 16
1.0
 26
0.0
 36
0.0
 17
0.0
 27
1.0
 37
0.0
 76
1
330
17
  0
LAYOUT
  5
1E
330
D
100
AcDbPlotSettings
  1

  4
A3
  6

 40
7.5
 41
20.0
 42
7.5
 43
20.0
 44
420.0
 45
297.0
 46
0.0
 47
0.0
 48
0.0
 49
0.0
140
0.0
141
0.0
142
1.0
143
1.0
 70
0
 72
1
 73
0
 74
5
  7

 75
16
 76
0
 77
2
 78
300
147
1.0
148
0.0
149
0.0
100
AcDbLayout
  1
Layout1
 70
1
 71
1
 10
0.0
 20
0.0
 11
420.0
 21
297.0
 12
0.0
 22
0.0
 32
0.0
 14
1e+20
 24
1e+20
 34
1e+20
 15
-1e+20
 25
-1e+20
 35
-1e+20
146
0.0
 13
0.0
 23
0.0
 33
0.0
 16
1.0
 26
0.0
 36
0.0
 17
0.0
 27
1.0
 37
0.0
 76
1
330
1B
  0
MATERIAL
  5
1F
102
{ACAD_REACTORS
330
E
102
}
330
E
100
AcDbMaterial
  1
ByBlock
  2

 70
0
 40
1.0
 71
1
 41
1.0
 91
-1023410177
 42
1.0
 72
1
  3

 73
1
 74
1
 75
1
 44
0.5
 73
0
 45
1.0
 46
1.0
 77
1
  4

 78
1
 79
1
170
1
 48
1.0
171
1
  6

172
1
173
1
174
1
140
1.0
141
1.0
175
1
  7

176
1
177
1
178
1
143
1.0
179
1
  8

270
1
271
1
272
1
145
1.0
146
1.0
273
1
  9

274
1
275
1
276
1
 42
1.0
 72
1
  3

 73
1
 74
1
 75
1
 94
63
  0
MATERIAL
  5
20
102
{ACAD_REACTORS
330
E
102
}
330
E
100
AcDbMaterial
  1
ByLayer
  2

 70
0
 40
1.0
 71
1
 41
1.0
 91
-1023410177
 42
1.0
 72
1
  3

 73
1
 74
1
 75
1
 44
0.5
 73
0
 45
1.0
 46
1.0
 77
1
  4

 78
1
 79
1
170
1
 48
1.0
171
1
  6

172
1
173
1
174
1
140
1.0
141
1.0
175
1
  7

176
1
177
1
178
1
143
1.0
179
1
  8

270
1
271
1
272
1
145
1.0
146
1.0
273
1
  9

274
1
275
1
276
1
 42
1.0
 72
1
  3

 73
1
 74
1
 75
1
 94
63
  0
MATERIAL
  5
21
102
{ACAD_REACTORS
330
E
102
}
330
E
100
AcDbMaterial
  1
Global
  2

 70
0
 40
1.0
 71
1
 41
1.0
 91
-1023410177
 42
1.0
 72
1
  3

 73
1
 74
1
 75
1
 44
0.5
 73
0
 45
1.0
 46
1.0
 77
1
  4

 78
1
 79
1
170
1
 48
1.0
171
1
  6

172
1
173
1
174
1
140
1.0
141
1.0
175
1
  7

176
1
177
1
178
1
143
1.0
179
1
  8

270
1
271
1
272
1
145
1.0
146
1.0
273
1
  9

274
1
275
1
276
1
 42
1.0
 72
1
  3

 73
1
 74
1
 75
1
 94
63
  0
MLINESTYLE
  5
22
102
{ACAD_REACTORS
330
10
102
}
330
10
100
AcDbMlineStyle
  2
Standard
 70
0
  3

 62
256
 51
90.0
 52
90.0
 71
2
 49
0.5
 62
256
  6
BYLAYER
 49
-0.5
 62
256
  6
BYLAYER
  0
MLEADERSTYLE
  5
2C
102
{ACAD_REACTORS
330
F
102
}
330
F
100
AcDbMLeaderStyle
179
2
170
2
171
1
172
0
 90
2
 40
0.0
 41
0.0
173
1
 91
-1056964608
 92
-2
290
1
 42
2.0
291
1
 43
8.0
  3
Standard
 44
4.0
300

342
29
174
1
175
1
176
0
178
1
 93
-1056964608
 45
4.0
292
0
297
0
 46
4.0
 94
-1056964608
 47
1.0
 49
1.0
140
1.0
294
1
141
0.0
177
0
142
1.0
295
0
296
0
143
3.75
271
0
272
9
273
9
  0
DICTIONARY
  5
2D
330
A
100
AcDbDictionary
280
1
281
1
  3
CREATED_BY_EZDXF
350
2E
  3
WRITTEN_BY_EZDXF
350
127
  0
DICTIONARYVAR
  5
2E
330
2D
100
DictionaryVariables
280
0
  1
1.4.4 @ 2026-07-18T18:22:09.010033+00:00
  0
VISUALSTYLE
  5
5A
102
{ACAD_REACTORS
330
16
102
}
330
16
100
AcDbVisualStyle
  2
2dWireframe
 70
4
177
3
291
0
 70
58
 90
2
176
1
 90
2
176
1
 90
0
176
1
 90
0
176
1
 40
0.6
176
1
 40
30.0
176
1
 62
7
420
16777215
176
1
 90
1
176
1
 90
4
176
1
 62
7
176
1
 62
257
176
1
 90
1
176
1
 90
1
176
1
 40
1.0
176
1
 90
8
176
1
 62
7
176
1
 40
1.0
176
1
 90
1
176
1
 90
6
176
1
 90
2
176
1
 62
7
176
1
 90
5
176
1
 90
0
176
1
 90
0
176
1
290
0
176
1
 90
1
176
1
 40
0.0
176
1
 90
0
176
1
290
1
176
1
290
1
176
1
290
0
176
1
290
0
176
1
290
0
176
1
290
0
176
1
290
0
176
1
290
0
176
1
290
0
176
1
 90
50
176
1
 40
0.0
176
1
 40
1.0
176
1
 90
0
176
1
 62
18
420
0
176
1
 90
50
176
1
 90
3
176
1
 62
5
420
255
176
1
290
0
176
1
 90
50
176
1
 90
50
176
1
 90
50
176
1
290
0
176
1
 90
50
176
1
 62
256
176
0
 40
1.0
176
0
 90
2
176
1
  1
strokes_ogs.tif
176
1
290
0
176
1
 40
1.0
176
1
 40
1.0
176
1
  0
VISUALSTYLE
  5
5B
102
{ACAD_REACTORS
330
16
102
}
330
16
100
AcDbVisualStyle
  2
Basic
 70
7
177
3
291
1
 70
58
 90
2
176
1
 90
2
176
1
 90
0
176
1
 90
1
176
1
 40
0.6
176
1
 40
30.0
176
1
 62
7
420
16777215
176
1
 90
1
176
1
 90
4
176
1
 62
7
176
1
 62
257
176
1
 90
1
176
1
 90
1
176
1
 40
1.0
176
1
 90
8
176
1
 62
7
176
1
 40
1.0
176
1
 90
1
176
1
 90
6
176
1
 90
2
176
1
 62
7
176
1
 90
5
176
1
 90
0
176
1
 90
0
176
1
290
0
176
1
 90
1
176
1
 40
0.0
176
1
 90
0
176
1
290
0
176
1
290
1
176
1
290
1
176
1
290
0
176
1
290
0
176
1
290
0
176
1
290
0
176
1
290
0
176
1
290
0
176
1
 90
50
176
1
 40
0.0
176
1
 40
1.0
176
1
 90
0
176
1
 62
18
420
0
176
1
 90
50
176
1
 90
3
176
1
 62
5
420
255
176
1
290
0
176
1
 90
50
176
1
 90
50
176
1
 90
50
176
1
290
0
176
1
 90
50
176
1
 62
256
176
0
 40
1.0
176
0
 90
2
176
1
  1
strokes_ogs.tif
176
1
290
0
176
1
 40
1.0
176
1
 40
1.0
176
1
  0
VISUALSTYLE
  5
5C
102
{ACAD_REACTORS
330
16
102
}
330
16
100
AcDbVisualStyle
  2
Brighten
 70
12
177
3
291
1
 70
58
 90
2
176
1
 90
2
176
1
 90
0
176
1
 90
2
176
1
 40
0.6
176
1
 40
30.0
176
1
 62
7
420
16777215
176
1
 90
1
176
1
 90
4
176
1
 62
7
176
1
 62
257
176
1
 90
1
176
1
 90
1
176
1
 40
1.0
176
1
 90
8
176
1
 62
7
176
1
 40
1.0
176
1
 90
1
176
1
 90
6
176
1
 90
2
176
1
 62
7
176
1
 90
5
176
1
 90
0
176
1
 90
0
176
1
290
0
176
1
 90
1
176
1
 40
0.0
176
1
 90
0
176
1
290
0
176
1
290
1
176
1
290
1
176
1
290
0
176
1
290
0
176
1
290
0
176
1
290
0
176
1
290
0
176
1
290
0
176
1
 90
50
176
1
 40
0.0
176
1
 40
1.0
176
1
 90
0
176
1
 62
18
420
0
176
1
 90
50
176
1
 90
3
176
1
 62
5
420
255
176
1
290
0
176
1
 90
50
176
1
 90
50
176
1
 90
50
176
1
290
0
176
1
 90
50
176
1
 62
256
176
0
 40
1.0
176
0
 90
2
176
1
  1
strokes_ogs.tif
176
1
290
0
176
1
 40
1.0
176
1
 40
1.0
176
1
  0
VISUALSTYLE
  5
5D
102
{ACAD_REACTORS
330
16
102
}
330
16
100
AcDbVisualStyle
  2
ColorChange
 70
16
177
3
291
1
 70
58
 90
2
176
1
 90
2
176
1
 90
0
176
1
 90
2
176
1
 40
0.6
176
1
 40
30.0
176
1
 62
7
420
16777215
176
1
 90
1
176
1
 90
4
176
1
 62
7
176
1
 62
257
176
1
 90
1
176
1
 90
1
176
1
 40
1.0
176
1
 90
8
176
1
 62
7
176
1
 40
1.0
176
1
 90
1
176
1
 90
6
176
1
 90
2
176
1
 62
7
176
1
 90
5
176
1
 90
0
176
1
 90
0
176
1
290
0
176
1
 90
1
176
1
 40
0.0
176
1
 90
0
176
1
290
0
176
1
290
1
176
1
290
1
176
1
290
0
176
1
290
0
176
1
290
0
176
1
290
0
176
1
290
0
176
1
290
0
176
1
 90
50
176
1
 40
0.0
176
1
 40
1.0
176
1
 90
0
176
1
 62
18
420
0
176
1
 90
50
176
1
 90
3
176
1
 62
5
420
255
176
1
290
0
176
1
 90
50
176
1
 90
50
176
1
 90
50
176
1
290
0
176
1
 90
50
176
1
 62
256
176
0
 40
1.0
176
0
 90
2
176
1
  1
strokes_ogs.tif
176
1
290
0
176
1
 40
1.0
176
1
 40
1.0
176
1
  0
VISUALSTYLE
  5
5E
102
{ACAD_REACTORS
330
16
102
}
330
16
100
AcDbVisualStyle
  2
Conceptual
 70
9
177
3
291
0
 70
58
 90
2
176
1
 90
2
176
1
 90
0
176
1
 90
3
176
1
 40
0.6
176
1
 40
30.0
176
1
 62
7
420
16777215
176
1
 90
1
176
1
 90
4
176
1
 62
7
176
1
 62
257
176
1
 90
1
176
1
 90
1
176
1
 40
1.0
176
1
 90
8
176
1
 62
7
176
1
 40
1.0
176
1
 90
1
176
1
 90
6
176
1
 90
2
176
1
 62
7
176
1
 90
5
176
1
 90
0
176
1
 90
0
176
1
290
0
176
1
 90
1
176
1
 40
0.0
176
1
 90
0
176
1
290
0
176
1
290
1
176
1
290
1
176
1
290
0
176
1
290
0
176
1
290
0
176
1
290
0
176
1
290
0
176
1
290
0
176
1
 90
50
176
1
 40
0.0
176
1
 40
1.0
176
1
 90
0
176
1
 62
18
420
0
176
1
 90
50
176
1
 90
3
176
1
 62
5
420
255
176
1
290
0
176
1
 90
50
176
1
 90
50
176
1
 90
50
176
1
290
0
176
1
 90
50
176
1
 62
256
176
0
 40
1.0
176
0
 90
2
176
1
  1
strokes_ogs.tif
176
1
290
0
176
1
 40
1.0
176
1
 40
1.0
176
1
  0
VISUALSTYLE
  5
5F
102
{ACAD_REACTORS
330
16
102
}
330
16
100
AcDbVisualStyle
  2
Dim
 70
11
177
3
291
1
 70
58
 90
2
176
1
 90
2
176
1
 90
0
176
1
 90
2
176
1
 40
0.6
176
1
 40
30.0
176
1
 62
7
420
16777215
176
1
 90
1
176
1
 90
4
176
1
 62
7
176
1
 62
257
176
1
 90
1
176
1
 90
1
176
1
 40
1.0
176
1
 90
8
176
1
 62
7
176
1
 40
1.0
176
1
 90
1
176
1
 90
6
176
1
 90
2
176
1
 62
7
176
1
 90
5
176
1
 90
0
176
1
 90
0
176
1
290
0
176
1
 90
1
176
1
 40
0.0
176
1
 90
0
176
1
290
0
176
1
290
1
176
1
290
1
176
1
290
0
176
1
290
0
176
1
290
0
176
1
290
0
176
1
290
0
176
1
290
0
176
1
 90
50
176
1
 40
0.0
176
1
 40
1.0
176
1
 90
0
176
1
 62
18
420
0
176
1
 90
50
176
1
 90
3
176
1
 62
5
420
255
176
1
290
0
176
1
 90
50
176
1
 90
50
176
1
 90
50
176
1
290
0
176
1
 90
50
176
1
 62
256
176
0
 40
1.0
176
0
 90
2
176
1
  1
strokes_ogs.tif
176
1
290
0
176
1
 40
1.0
176
1
 40
1.0
176
1
  0
VISUALSTYLE
  5
60
102
{ACAD_REACTORS
330
16
102
}
330
16
100
AcDbVisualStyle
  2
EdgeColorOff
 70
22
177
3
291
1
 70
58
 90
2
176
1
 90
2
176
1
 90
0
176
1
 90
2
176
1
 40
0.6
176
1
 40
30.0
176
1
 62
7
420
16777215
176
1
 90
1
176
1
 90
4
176
1
 62
7
176
1
 62
257
176
1
 90
1
176
1
 90
1
176
1
 40
1.0
176
1
 90
8
176
1
 62
7
176
1
 40
1.0
176
1
 90
1
176
1
 90
6
176
1
 90
2
176
1
 62
7
176
1
 90
5
176
1
 90
0
176
1
 90
0
176
1
290
0
176
1
 90
1
176
1
 40
0.0
176
1
 90
0
176
1
290
0
176
1
290
1
176
1
290
1
176
1
290
0
176
1
290
0
176
1
290
0
176
1
290
0
176
1
290
0
176
1
290
0
176
1
 90
50
176
1
 40
0.0
176
1
 40
1.0
176
1
 90
0
176
1
 62
18
420
0
176
1
 90
50
176
1
 90
3
176
1
 62
5
420
255
176
1
290
0
176
1
 90
50
176
1
 90
50
176
1
 90
50
176
1
290
0
176
1
 90
50
176
1
 62
256
176
0
 40
1.0
176
0
 90
2
176
1
  1
strokes_ogs.tif
176
1
290
0
176
1
 40
1.0
176
1
 40
1.0
176
1
  0
VISUALSTYLE
  5
61
102
{ACAD_REACTORS
330
16
102
}
330
16
100
AcDbVisualStyle
  2
Facepattern
 70
15
177
3
291
1
 70
58
 90
2
176
1
 90
2
176
1
 90
0
176
1
 90
2
176
1
 40
0.6
176
1
 40
30.0
176
1
 62
7
420
16777215
176
1
 90
1
176
1
 90
4
176
1
 62
7
176
1
 62
257
176
1
 90
1
176
1
 90
1
176
1
 40
1.0
176
1
 90
8
176
1
 62
7
176
1
 40
1.0
176
1
 90
1
176
1
 90
6
176
1
 90
2
176
1
 62
7
176
1
 90
5
176
1
 90
0
176
1
 90
0
176
1
290
0
176
1
 90
1
176
1
 40
0.0
176
1
 90
0
176
1
290
0
176
1
290
1
176
1
290
1
176
1
290
0
176
1
290
0
176
1
290
0
176
1
290
0
176
1
290
0
176
1
290
0
176
1
 90
50
176
1
 40
0.0
176
1
 40
1.0
176
1
 90
0
176
1
 62
18
420
0
176
1
 90
50
176
1
 90
3
176
1
 62
5
420
255
176
1
290
0
176
1
 90
50
176
1
 90
50
176
1
 90
50
176
1
290
0
176
1
 90
50
176
1
 62
256
176
0
 40
1.0
176
0
 90
2
176
1
  1
strokes_ogs.tif
176
1
290
0
176
1
 40
1.0
176
1
 40
1.0
176
1
  0
VISUALSTYLE
  5
62
102
{ACAD_REACTORS
330
16
102
}
330
16
100
AcDbVisualStyle
  2
Flat
 70
0
177
3
291
1
 70
58
 90
2
176
1
 90
2
176
1
 90
0
176
1
 90
2
176
1
 40
0.6
176
1
 40
30.0
176
1
 62
7
420
16777215
176
1
 90
1
176
1
 90
4
176
1
 62
7
176
1
 62
257
176
1
 90
1
176
1
 90
1
176
1
 40
1.0
176
1
 90
8
176
1
 62
7
176
1
 40
1.0
176
1
 90
1
176
1
 90
6
176
1
 90
2
176
1
 62
7
176
1
 90
5
176
1
 90
0
176
1
 90
0
176
1
290
0
176
1
 90
1
176
1
 40
0.0
176
1
 90
0
176
1
290
0
176
1
290
1
176
1
290
1
176
1
290
0
176
1
290
0
176
1
290
0
176
1
290
0
176
1
290
0
176
1
290
0
176
1
 90
50
176
1
 40
0.0
176
1
 40
1.0
176
1
 90
0
176
1
 62
18
420
0
176
1
 90
50
176
1
 90
3
176
1
 62
5
420
255
176
1
290
0
176
1
 90
50
176
1
 90
50
176
1
 90
50
176
1
290
0
176
1
 90
50
176
1
 62
256
176
0
 40
1.0
176
0
 90
2
176
1
  1
strokes_ogs.tif
176
1
290
0
176
1
 40
1.0
176
1
 40
1.0
176
1
  0
VISUALSTYLE
  5
63
102
{ACAD_REACTORS
330
16
102
}
330
16
100
AcDbVisualStyle
  2
FlatWithEdges
 70
1
177
3
291
1
 70
58
 90
2
176
1
 90
2
176
1
 90
0
176
1
 90
2
176
1
 40
0.6
176
1
 40
30.0
176
1
 62
7
420
16777215
176
1
 90
1
176
1
 90
4
176
1
 62
7
176
1
 62
257
176
1
 90
1
176
1
 90
1
176
1
 40
1.0
176
1
 90
8
176
1
 62
7
176
1
 40
1.0
176
1
 90
1
176
1
 90
6
176
1
 90
2
176
1
 62
7
176
1
 90
5
176
1
 90
0
176
1
 90
0
176
1
290
0
176
1
 90
1
176
1
 40
0.0
176
1
 90
0
176
1
290
0
176
1
290
1
176
1
290
1
176
1
290
0
176
1
290
0
176
1
290
0
176
1
290
0
176
1
290
0
176
1
290
0
176
1
 90
50
176
1
 40
0.0
176
1
 40
1.0
176
1
 90
0
176
1
 62
18
420
0
176
1
 90
50
176
1
 90
3
176
1
 62
5
420
255
176
1
290
0
176
1
 90
50
176
1
 90
50
176
1
 90
50
176
1
290
0
176
1
 90
50
176
1
 62
256
176
0
 40
1.0
176
0
 90
2
176
1
  1
strokes_ogs.tif
176
1
290
0
176
1
 40
1.0
176
1
 40
1.0
176
1
  0
VISUALSTYLE
  5
64
102
{ACAD_REACTORS
330
16
102
}
330
16
100
AcDbVisualStyle
  2
Gouraud
 70
2
177
3
291
1
 70
58
 90
2
176
1
 90
2
176
1
 90
0
176
1
 90
2
176
1
 40
0.6
176
1
 40
30.0
176
1
 62
7
420
16777215
176
1
 90
1
176
1
 90
4
176
1
 62
7
176
1
 62
257
176
1
 90
1
176
1
 90
1
176
1
 40
1.0
176
1
 90
8
176
1
 62
7
176
1
 40
1.0
176
1
 90
1
176
1
 90
6
176
1
 90
2
176
1
 62
7
176
1
 90
5
176
1
 90
0
176
1
 90
0
176
1
290
0
176
1
 90
1
176
1
 40
0.0
176
1
 90
0
176
1
290
0
176
1
290
1
176
1
290
1
176
1
290
0
176
1
290
0
176
1
290
0
176
1
290
0
176
1
290
0
176
1
290
0
176
1
 90
50
176
1
 40
0.0
176
1
 40
1.0
176
1
 90
0
176
1
 62
18
420
0
176
1
 90
50
176
1
 90
3
176
1
 62
5
420
255
176
1
290
0
176
1
 90
50
176
1
 90
50
176
1
 90
50
176
1
290
0
176
1
 90
50
176
1
 62
256
176
0
 40
1.0
176
0
 90
2
176
1
  1
strokes_ogs.tif
176
1
290
0
176
1
 40
1.0
176
1
 40
1.0
176
1
  0
VISUALSTYLE
  5
65
102
{ACAD_REACTORS
330
16
102
}
330
16
100
AcDbVisualStyle
  2
GouraudWithEdges
 70
3
177
3
291
1
 70
58
 90
2
176
1
 90
2
176
1
 90
0
176
1
 90
2
176
1
 40
0.6
176
1
 40
30.0
176
1
 62
7
420
16777215
176
1
 90
1
176
1
 90
4
176
1
 62
7
176
1
 62
257
176
1
 90
1
176
1
 90
1
176
1
 40
1.0
176
1
 90
8
176
1
 62
7
176
1
 40
1.0
176
1
 90
1
176
1
 90
6
176
1
 90
2
176
1
 62
7
176
1
 90
5
176
1
 90
0
176
1
 90
0
176
1
290
0
176
1
 90
1
176
1
 40
0.0
176
1
 90
0
176
1
290
0
176
1
290
1
176
1
290
1
176
1
290
0
176
1
290
0
176
1
290
0
176
1
290
0
176
1
290
0
176
1
290
0
176
1
 90
50
176
1
 40
0.0
176
1
 40
1.0
176
1
 90
0
176
1
 62
18
420
0
176
1
 90
50
176
1
 90
3
176
1
 62
5
420
255
176
1
290
0
176
1
 90
50
176
1
 90
50
176
1
 90
50
176
1
290
0
176
1
 90
50
176
1
 62
256
176
0
 40
1.0
176
0
 90
2
176
1
  1
strokes_ogs.tif
176
1
290
0
176
1
 40
1.0
176
1
 40
1.0
176
1
  0
VISUALSTYLE
  5
66
102
{ACAD_REACTORS
330
16
102
}
330
16
100
AcDbVisualStyle
  2
Hidden
 70
6
177
3
291
0
 70
58
 90
2
176
1
 90
2
176
1
 90
0
176
1
 90
1
176
1
 40
0.6
176
1
 40
30.0
176
1
 62
7
420
16777215
176
1
 90
1
176
1
 90
4
176
1
 62
7
176
1
 62
257
176
1
 90
1
176
1
 90
1
176
1
 40
1.0
176
1
 90
8
176
1
 62
7
176
1
 40
1.0
176
1
 90
1
176
1
 90
6
176
1
 90
2
176
1
 62
7
176
1
 90
5
176
1
 90
0
176
1
 90
0
176
1
290
0
176
1
 90
1
176
1
 40
0.0
176
1
 90
0
176
1
290
0
176
1
290
1
176
1
290
1
176
1
290
0
176
1
290
0
176
1
290
0
176
1
290
0
176
1
290
0
176
1
290
0
176
1
 90
50
176
1
 40
0.0
176
1
 40
1.0
176
1
 90
0
176
1
 62
18
420
0
176
1
 90
50
176
1
 90
3
176
1
 62
5
420
255
176
1
290
0
176
1
 90
50
176
1
 90
50
176
1
 90
50
176
1
290
0
176
1
 90
50
176
1
 62
256
176
0
 40
1.0
176
0
 90
2
176
1
  1
strokes_ogs.tif
176
1
290
0
176
1
 40
1.0
176
1
 40
1.0
176
1
  0
VISUALSTYLE
  5
67
102
{ACAD_REACTORS
330
16
102
}
330
16
100
AcDbVisualStyle
  2
JitterOff
 70
20
177
3
291
1
 70
58
 90
2
176
1
 90
2
176
1
 90
0
176
1
 90
2
176
1
 40
0.6
176
1
 40
30.0
176
1
 62
7
420
16777215
176
1
 90
1
176
1
 90
4
176
1
 62
7
176
1
 62
257
176
1
 90
1
176
1
 90
1
176
1
 40
1.0
176
1
 90
8
176
1
 62
7
176
1
 40
1.0
176
1
 90
1
176
1
 90
6
176
1
 90
2
176
1
 62
7
176
1
 90
5
176
1
 90
0
176
1
 90
0
176
1
290
0
176
1
 90
1
176
1
 40
0.0
176
1
 90
0
176
1
290
0
176
1
290
1
176
1
290
1
176
1
290
0
176
1
290
0
176
1
290
0
176
1
290
0
176
1
290
0
176
1
290
0
176
1
 90
50
176
1
 40
0.0
176
1
 40
1.0
176
1
 90
0
176
1
 62
18
420
0
176
1
 90
50
176
1
 90
3
176
1
 62
5
420
255
176
1
290
0
176
1
 90
50
176
1
 90
50
176
1
 90
50
176
1
290
0
176
1
 90
50
176
1
 62
256
176
0
 40
1.0
176
0
 90
2
176
1
  1
strokes_ogs.tif
176
1
290
0
176
1
 40
1.0
176
1
 40
1.0
176
1
  0
VISUALSTYLE
  5
68
102
{ACAD_REACTORS
330
16
102
}
330
16
100
AcDbVisualStyle
  2
Linepattern
 70
14
177
3
291
1
 70
58
 90
2
176
1
 90
2
176
1
 90
0
176
1
 90
2
176
1
 40
0.6
176
1
 40
30.0
176
1
 62
7
420
16777215
176
1
 90
1
176
1
 90
4
176
1
 62
7
176
1
 62
257
176
1
 90
1
176
1
 90
1
176
1
 40
1.0
176
1
 90
8
176
1
 62
7
176
1
 40
1.0
176
1
 90
1
176
1
 90
6
176
1
 90
2
176
1
 62
7
176
1
 90
5
176
1
 90
0
176
1
 90
0
176
1
290
0
176
1
 90
1
176
1
 40
0.0
176
1
 90
0
176
1
290
0
176
1
290
1
176
1
290
1
176
1
290
0
176
1
290
0
176
1
290
0
176
1
290
0
176
1
290
0
176
1
290
0
176
1
 90
50
176
1
 40
0.0
176
1
 40
1.0
176
1
 90
0
176
1
 62
18
420
0
176
1
 90
50
176
1
 90
3
176
1
 62
5
420
255
176
1
290
0
176
1
 90
50
176
1
 90
50
176
1
 90
50
176
1
290
0
176
1
 90
50
176
1
 62
256
176
0
 40
1.0
176
0
 90
2
176
1
  1
strokes_ogs.tif
176
1
290
0
176
1
 40
1.0
176
1
 40
1.0
176
1
  0
VISUALSTYLE
  5
69
102
{ACAD_REACTORS
330
16
102
}
330
16
100
AcDbVisualStyle
  2
Modeling
 70
10
177
3
291
0
 70
58
 90
2
176
1
 90
2
176
1
 90
0
176
1
 90
2
176
1
 40
0.6
176
1
 40
30.0
176
1
 62
7
420
16777215
176
1
 90
1
176
1
 90
4
176
1
 62
7
176
1
 62
257
176
1
 90
1
176
1
 90
1
176
1
 40
1.0
176
1
 90
8
176
1
 62
7
176
1
 40
1.0
176
1
 90
1
176
1
 90
6
176
1
 90
2
176
1
 62
7
176
1
 90
5
176
1
 90
0
176
1
 90
0
176
1
290
0
176
1
 90
1
176
1
 40
0.0
176
1
 90
0
176
1
290
0
176
1
290
1
176
1
290
1
176
1
290
0
176
1
290
0
176
1
290
0
176
1
290
0
176
1
290
0
176
1
290
0
176
1
 90
50
176
1
 40
0.0
176
1
 40
1.0
176
1
 90
0
176
1
 62
18
420
0
176
1
 90
50
176
1
 90
3
176
1
 62
5
420
255
176
1
290
0
176
1
 90
50
176
1
 90
50
176
1
 90
50
176
1
290
0
176
1
 90
50
176
1
 62
256
176
0
 40
1.0
176
0
 90
2
176
1
  1
strokes_ogs.tif
176
1
290
0
176
1
 40
1.0
176
1
 40
1.0
176
1
  0
VISUALSTYLE
  5
6A
102
{ACAD_REACTORS
330
16
102
}
330
16
100
AcDbVisualStyle
  2
OverhangOff
 70
21
177
3
291
1
 70
58
 90
2
176
1
 90
2
176
1
 90
0
176
1
 90
2
176
1
 40
0.6
176
1
 40
30.0
176
1
 62
7
420
16777215
176
1
 90
1
176
1
 90
4
176
1
 62
7
176
1
 62
257
176
1
 90
1
176
1
 90
1
176
1
 40
1.0
176
1
 90
8
176
1
 62
7
176
1
 40
1.0
176
1
 90
1
176
1
 90
6
176
1
 90
2
176
1
 62
7
176
1
 90
5
176
1
 90
0
176
1
 90
0
176
1
290
0
176
1
 90
1
176
1
 40
0.0
176
1
 90
0
176
1
290
0
176
1
290
1
176
1
290
1
176
1
290
0
176
1
290
0
176
1
290
0
176
1
290
0
176
1
290
0
176
1
290
0
176
1
 90
50
176
1
 40
0.0
176
1
 40
1.0
176
1
 90
0
176
1
 62
18
420
0
176
1
 90
50
176
1
 90
3
176
1
 62
5
420
255
176
1
290
0
176
1
 90
50
176
1
 90
50
176
1
 90
50
176
1
290
0
176
1
 90
50
176
1
 62
256
176
0
 40
1.0
176
0
 90
2
176
1
  1
strokes_ogs.tif
176
1
290
0
176
1
 40
1.0
176
1
 40
1.0
176
1
  0
VISUALSTYLE
  5
6B
102
{ACAD_REACTORS
330
16
102
}
330
16
100
AcDbVisualStyle
  2
Realistic
 70
8
177
3
291
0
 70
58
 90
2
176
1
 90
2
176
1
 90
0
176
1
 90
2
176
1
 40
0.6
176
1
 40
30.0
176
1
 62
7
420
16777215
176
1
 90
1
176
1
 90
4
176
1
 62
7
176
1
 62
257
176
1
 90
1
176
1
 90
1
176
1
 40
1.0
176
1
 90
8
176
1
 62
7
176
1
 40
1.0
176
1
 90
1
176
1
 90
6
176
1
 90
2
176
1
 62
7
176
1
 90
5
176
1
 90
0
176
1
 90
0
176
1
290
0
176
1
 90
1
176
1
 40
0.0
176
1
 90
0
176
1
290
0
176
1
290
1
176
1
290
1
176
1
290
0
176
1
290
0
176
1
290
0
176
1
290
0
176
1
290
0
176
1
290
0
176
1
 90
50
176
1
 40
0.0
176
1
 40
1.0
176
1
 90
0
176
1
 62
18
420
0
176
1
 90
50
176
1
 90
3
176
1
 62
5
420
255
176
1
290
0
176
1
 90
50
176
1
 90
50
176
1
 90
50
176
1
290
0
176
1
 90
50
176
1
 62
256
176
0
 40
1.0
176
0
 90
2
176
1
  1
strokes_ogs.tif
176
1
290
0
176
1
 40
1.0
176
1
 40
1.0
176
1
  0
VISUALSTYLE
  5
6C
102
{ACAD_REACTORS
330
16
102
}
330
16
100
AcDbVisualStyle
  2
Shaded
 70
27
177
3
291
0
 70
58
 90
2
176
1
 90
2
176
1
 90
0
176
1
 90
2
176
1
 40
0.6
176
1
 40
30.0
176
1
 62
7
420
16777215
176
1
 90
1
176
1
 90
4
176
1
 62
7
176
1
 62
257
176
1
 90
1
176
1
 90
1
176
1
 40
1.0
176
1
 90
8
176
1
 62
7
176
1
 40
1.0
176
1
 90
1
176
1
 90
6
176
1
 90
2
176
1
 62
7
176
1
 90
5
176
1
 90
0
176
1
 90
0
176
1
290
0
176
1
 90
1
176
1
 40
0.0
176
1
 90
0
176
1
290
0
176
1
290
1
176
1
290
1
176
1
290
0
176
1
290
0
176
1
290
0
176
1
290
0
176
1
290
0
176
1
290
0
176
1
 90
50
176
1
 40
0.0
176
1
 40
1.0
176
1
 90
0
176
1
 62
18
420
0
176
1
 90
50
176
1
 90
3
176
1
 62
5
420
255
176
1
290
0
176
1
 90
50
176
1
 90
50
176
1
 90
50
176
1
290
0
176
1
 90
50
176
1
 62
256
176
0
 40
1.0
176
0
 90
2
176
1
  1
strokes_ogs.tif
176
1
290
0
176
1
 40
1.0
176
1
 40
1.0
176
1
  0
VISUALSTYLE
  5
6D
102
{ACAD_REACTORS
330
16
102
}
330
16
100
AcDbVisualStyle
  2
Shaded with edges
 70
26
177
3
291
0
 70
58
 90
2
176
1
 90
2
176
1
 90
0
176
1
 90
2
176
1
 40
0.6
176
1
 40
30.0
176
1
 62
7
420
16777215
176
1
 90
1
176
1
 90
4
176
1
 62
7
176
1
 62
257
176
1
 90
1
176
1
 90
1
176
1
 40
1.0
176
1
 90
8
176
1
 62
7
176
1
 40
1.0
176
1
 90
1
176
1
 90
6
176
1
 90
2
176
1
 62
7
176
1
 90
5
176
1
 90
0
176
1
 90
0
176
1
290
0
176
1
 90
1
176
1
 40
0.0
176
1
 90
0
176
1
290
0
176
1
290
1
176
1
290
1
176
1
290
0
176
1
290
0
176
1
290
0
176
1
290
0
176
1
290
0
176
1
290
0
176
1
 90
50
176
1
 40
0.0
176
1
 40
1.0
176
1
 90
0
176
1
 62
18
420
0
176
1
 90
50
176
1
 90
3
176
1
 62
5
420
255
176
1
290
0
176
1
 90
50
176
1
 90
50
176
1
 90
50
176
1
290
0
176
1
 90
50
176
1
 62
256
176
0
 40
1.0
176
0
 90
2
176
1
  1
strokes_ogs.tif
176
1
290
0
176
1
 40
1.0
176
1
 40
1.0
176
1
  0
VISUALSTYLE
  5
6E
102
{ACAD_REACTORS
330
16
102
}
330
16
100
AcDbVisualStyle
  2
Shades of Gray
 70
23
177
3
291
0
 70
58
 90
2
176
1
 90
2
176
1
 90
0
176
1
 90
2
176
1
 40
0.6
176
1
 40
30.0
176
1
 62
7
420
16777215
176
1
 90
1
176
1
 90
4
176
1
 62
7
176
1
 62
257
176
1
 90
1
176
1
 90
1
176
1
 40
1.0
176
1
 90
8
176
1
 62
7
176
1
 40
1.0
176
1
 90
1
176
1
 90
6
176
1
 90
2
176
1
 62
7
176
1
 90
5
176
1
 90
0
176
1
 90
0
176
1
290
0
176
1
 90
1
176
1
 40
0.0
176
1
 90
0
176
1
290
0
176
1
290
1
176
1
290
1
176
1
290
0
176
1
290
0
176
1
290
0
176
1
290
0
176
1
290
0
176
1
290
0
176
1
 90
50
176
1
 40
0.0
176
1
 40
1.0
176
1
 90
0
176
1
 62
18
420
0
176
1
 90
50
176
1
 90
3
176
1
 62
5
420
255
176
1
290
0
176
1
 90
50
176
1
 90
50
176
1
 90
50
176
1
290
0
176
1
 90
50
176
1
 62
256
176
0
 40
1.0
176
0
 90
2
176
1
  1
strokes_ogs.tif
176
1
290
0
176
1
 40
1.0
176
1
 40
1.0
176
1
  0
VISUALSTYLE
  5
6F
102
{ACAD_REACTORS
330
16
102
}
330
16
100
AcDbVisualStyle
  2
Sketchy
 70
24
177
3
291
0
 70
58
 90
2
176
1
 90
2
176
1
 90
0
176
1
 90
1
176
1
 40
0.6
176
1
 40
30.0
176
1
 62
7
420
16777215
176
1
 90
1
176
1
 90
4
176
1
 62
7
176
1
 62
257
176
1
 90
1
176
1
 90
1
176
1
 40
1.0
176
1
 90
8
176
1
 62
7
176
1
 40
1.0
176
1
 90
1
176
1
 90
6
176
1
 90
2
176
1
 62
7
176
1
 90
5
176
1
 90
0
176
1
 90
0
176
1
290
0
176
1
 90
1
176
1
 40
0.0
176
1
 90
0
176
1
290
0
176
1
290
1
176
1
290
1
176
1
290
0
176
1
290
0
176
1
290
0
176
1
290
0
176
1
290
0
176
1
290
0
176
1
 90
50
176
1
 40
0.0
176
1
 40
1.0
176
1
 90
0
176
1
 62
18
420
0
176
1
 90
50
176
1
 90
3
176
1
 62
5
420
255
176
1
290
0
176
1
 90
50
176
1
 90
50
176
1
 90
50
176
1
290
0
176
1
 90
50
176
1
 62
256
176
0
 40
1.0
176
0
 90
2
176
1
  1
strokes_ogs.tif
176
1
290
0
176
1
 40
1.0
176
1
 40
1.0
176
1
  0
VISUALSTYLE
  5
70
102
{ACAD_REACTORS
330
16
102
}
330
16
100
AcDbVisualStyle
  2
Thicken
 70
13
177
3
291
1
 70
58
 90
2
176
1
 90
2
176
1
 90
0
176
1
 90
2
176
1
 40
0.6
176
1
 40
30.0
176
1
 62
7
420
16777215
176
1
 90
1
176
1
 90
4
176
1
 62
7
176
1
 62
257
176
1
 90
1
176
1
 90
1
176
1
 40
1.0
176
1
 90
8
176
1
 62
7
176
1
 40
1.0
176
1
 90
1
176
1
 90
6
176
1
 90
2
176
1
 62
7
176
1
 90
5
176
1
 90
0
176
1
 90
0
176
1
290
0
176
1
 90
1
176
1
 40
0.0
176
1
 90
0
176
1
290
0
176
1
290
1
176
1
290
1
176
1
290
0
176
1
290
0
176
1
290
0
176
1
290
0
176
1
290
0
176
1
290
0
176
1
 90
50
176
1
 40
0.0
176
1
 40
1.0
176
1
 90
0
176
1
 62
18
420
0
176
1
 90
50
176
1
 90
3
176
1
 62
5
420
255
176
1
290
0
176
1
 90
50
176
1
 90
50
176
1
 90
50
176
1
290
0
176
1
 90
50
176
1
 62
256
176
0
 40
1.0
176
0
 90
2
176
1
  1
strokes_ogs.tif
176
1
290
0
176
1
 40
1.0
176
1
 40
1.0
176
1
  0
VISUALSTYLE
  5
71
102
{ACAD_REACTORS
330
16
102
}
330
16
100
AcDbVisualStyle
  2
Wireframe
 70
5
177
3
291
0
 70
58
 90
2
176
1
 90
2
176
1
 90
0
176
1
 90
0
176
1
 40
0.6
176
1
 40
30.0
176
1
 62
7
420
16777215
176
1
 90
1
176
1
 90
4
176
1
 62
7
176
1
 62
257
176
1
 90
1
176
1
 90
1
176
1
 40
1.0
176
1
 90
8
176
1
 62
7
176
1
 40
1.0
176
1
 90
1
176
1
 90
6
176
1
 90
2
176
1
 62
7
176
1
 90
5
176
1
 90
0
176
1
 90
0
176
1
290
0
176
1
 90
1
176
1
 40
0.0
176
1
 90
0
176
1
290
0
176
1
290
1
176
1
290
1
176
1
290
0
176
1
290
0
176
1
290
0
176
1
290
0
176
1
290
0
176
1
290
0
176
1
 90
50
176
1
 40
0.0
176
1
 40
1.0
176
1
 90
0
176
1
 62
18
420
0
176
1
 90
50
176
1
 90
3
176
1
 62
5
420
255
176
1
290
0
176
1
 90
50
176
1
 90
50
176
1
 90
50
176
1
290
0
176
1
 90
50
176
1
 62
256
176
0
 40
1.0
176
0
 90
2
176
1
  1
strokes_ogs.tif
176
1
290
0
176
1
 40
1.0
176
1
 40
1.0
176
1
  0
VISUALSTYLE
  5
72
102
{ACAD_REACTORS
330
16
102
}
330
16
100
AcDbVisualStyle
  2
X-Ray
 70
25
177
3
291
0
 70
58
 90
2
176
1
 90
2
176
1
 90
0
176
1
 90
2
176
1
 40
0.5
176
1
 40
30.0
176
1
 62
7
420
16777215
176
1
 90
1
176
1
 90
4
176
1
 62
7
176
1
 62
257
176
1
 90
1
176
1
 90
1
176
1
 40
1.0
176
1
 90
8
176
1
 62
7
176
1
 40
1.0
176
1
 90
1
176
1
 90
6
176
1
 90
2
176
1
 62
7
176
1
 90
5
176
1
 90
0
176
1
 90
0
176
1
290
0
176
1
 90
1
176
1
 40
0.0
176
1
 90
0
176
1
290
0
176
1
290
1
176
1
290
1
176
1
290
0
176
1
290
0
176
1
290
0
176
1
290
0
176
1
290
0
176
1
290
0
176
1
 90
50
176
1
 40
0.0
176
1
 40
1.0
176
1
 90
0
176
1
 62
18
420
0
176
1
 90
50
176
1
 90
3
176
1
 62
5
420
255
176
1
290
0
176
1
 90
50
176
1
 90
50
176
1
 90
50
176
1
290
0
176
1
 90
50
176
1
 62
256
176
0
 40
1.0
176
0
 90
2
176
1
  1
strokes_ogs.tif
176
1
290
0
176
1
 40
1.0
176
1
 40
1.0
176
1
  0
DICTIONARYVAR
  5
127
330
2D
100
DictionaryVariables
280
0
  1
1.4.4 @ 2026-07-18T18:22:09.028123+00:00
  0
ENDSEC
  0
EOF
