<?xml version="1.0" encoding="utf-8" ?>
<svg baseProfile="full" height="234.491284cm" version="1.1" viewBox="0 0 118.0 234.491284" width="118.0cm" xmlns="http://www.w3.org/2000/svg" xmlns:ev="http://www.w3.org/2001/xml-events" xmlns:xlink="http://www.w3.org/1999/xlink"><defs /><rect fill="#f7f3ea" height="226.491284" stroke="#333" stroke-width="0.15" width="110.0" x="4.0" y="4.0" /><text fill="#000" font-family="sans-serif" font-size="1.4" x="4.0" y="3.0">PLANO DE CORTE — ancho 110 cm — largo 2.26 m</text><polygon fill="#cfe3f7" fill-opacity="0.5" points="4.0,74.267704 12.00722,74.267704 11.601177,17.827772 15.824922,5.262131 13.300661,4.0 12.604548000000001,4.928368 12.408809,5.189983 12.212994,5.452847 12.017382000000001,5.717166 11.822256,5.98315 11.6279,6.251011999999999 11.434603,6.520965 11.242656,6.793221 11.052355,7.067997 10.863996,7.345508 10.677882,7.6259689999999996 10.494319,7.909597 10.313615,8.196606 10.136242,8.486951000000001 9.963303,8.779094 9.795078,9.070626 9.63075,9.360295 9.469275,9.647313 9.309653,9.930903 9.150927,10.210297 8.992184,10.484739000000001 8.832553,10.753489 8.671203,11.015827 8.507341,11.271062 8.340206,11.518545 8.169058,11.757678 7.993161000000001,11.987943000000001 7.810869,12.210004 7.619404,12.426846 7.41765,12.641195 7.206278,12.853889 6.986212,13.065588 6.7584420000000005,13.27698 6.524011,13.488792 6.322425,13.667704 4.0,13.667704 4.0,74.267704" stroke="#1f6fb2" stroke-width="0.1" /><text fill="#0a3d62" font-family="sans-serif" font-size="1.6" text-anchor="middle" x="9.912461" y="39.133852">09</text><polygon fill="#cfe3f7" fill-opacity="0.5" points="16.824922,74.267704 24.832142,74.267704 24.426099,17.827772 28.649844,5.262131 26.125583,4.0 25.429470000000002,4.928368 25.233731,5.189983 25.037916000000003,5.452847 24.842304000000002,5.717166 24.647178,5.98315 24.452822,6.251011999999999 24.259525,6.520965 24.067578,6.793221 23.877277,7.067997 23.688918,7.345508 23.502804,7.6259689999999996 23.319241,7.909597 23.138537,8.196606 22.961164,8.486951000000001 22.788225,8.779094 22.62,9.070626 22.455672,9.360295 22.294197,9.647313 22.134575,9.930903 21.975849,10.210297 21.817106000000003,10.484739000000001 21.657475,10.753489 21.496125,11.015827 21.332263,11.271062 21.165128000000003,11.518545 20.99398,11.757678 20.818083,11.987943000000001 20.635791,12.210004 20.444326,12.426846 20.242572000000003,12.641195 20.031200000000002,12.853889 19.811134000000003,13.065588 19.583364,13.27698 19.348933000000002,13.488792 19.147347,13.667704 16.824922,13.667704 16.824922,74.267704" stroke="#1f6fb2" stroke-width="0.1" /><text fill="#0a3d62" font-family="sans-serif" font-size="1.6" text-anchor="middle" x="22.737383" y="39.133852">09</text><polygon fill="#cfe3f7" fill-opacity="0.5" points="29.649844,74.192015 60.433844,74.192015 60.433844,26.783736 59.753274000000005,26.089206 59.357505,25.686064000000002 58.958867,25.281492 58.556741,24.87561 58.150186000000005,24.468217000000003 57.738268000000005,24.059116000000003 57.320054,23.648116 56.894628,23.235045000000003 56.462057,22.82064 56.026063,22.406873 55.593012,21.994641 55.168031,21.583481000000003 54.756143,21.173028000000002 54.362397,20.763166000000002 53.991820000000004,20.354048 53.649338,19.946126999999997 53.339669,19.540160999999998 53.067138,19.137186 52.835456,18.738381 52.647444,18.344735999999997 52.503871000000004,17.953837999999998 52.401912,17.556984999999997 52.337536,17.146682 52.308858,16.720627999999998 52.314486,16.278014 52.353015,15.818928999999999 52.422789,15.344123 52.521808,14.854749 52.647726000000006,14.352157 52.797903000000005,13.837748999999999 52.969463000000005,13.312895 53.159357,12.778875 53.364412,12.236867 53.581367,11.687932 53.806900999999996,11.133019 54.426003,9.630396 39.977042,4.0 39.29724,4.809477 39.078032,5.071071 38.858748000000006,5.333899000000001 38.639701,5.598172 38.421204,5.864102 38.203573000000006,6.131906 37.987128,6.4017990000000005 37.772189,6.674003 37.559081,6.94874 37.348134,7.226231 37.139679,7.506703 36.934053,7.790379 36.731596,8.077486 36.532833000000004,8.367985000000001 36.339017,8.660314 36.150499,8.952012 35.966382,9.24179 35.785507,9.528844 35.606758,9.81239 35.42906,10.091667 35.251378,10.365939000000001 35.072720000000004,10.634495 34.892128,10.896659 34.708673000000005,11.151796000000001 34.521448,11.399323 34.329553000000004,11.638718 34.132069,11.869542000000001 33.927083,12.092495 33.711543,12.310447 33.484358,12.525954 33.246394,12.739752 32.998783,12.952427 32.742714,13.16462 32.479417,13.377025 32.210148000000004,13.590402 32.208094,13.592015 29.649844,13.592015 29.649844,74.192015" stroke="#1f6fb2" stroke-width="0.1" /><text fill="#0a3d62" font-family="sans-serif" font-size="1.6" text-anchor="middle" x="45.041844" y="39.0960075">01</text><polygon fill="#cfe3f7" fill-opacity="0.5" points="61.433844,74.192015 92.217844,74.192015 92.217844,26.783736 91.537274,26.089206 91.141505,25.686064000000002 90.742867,25.281492 90.34074100000001,24.87561 89.934186,24.468217000000003 89.522268,24.059116000000003 89.104054,23.648116 88.678628,23.235045000000003 88.24605700000001,22.82064 87.810063,22.406873 87.37701200000001,21.994641 86.952031,21.583481000000003 86.540143,21.173028000000002 86.14639700000001,20.763166000000002 85.77582,20.354048 85.43333799999999,19.946126999999997 85.123669,19.540160999999998 84.85113799999999,19.137186 84.619456,18.738381 84.431444,18.344735999999997 84.287871,17.953837999999998 84.185912,17.556984999999997 84.12153599999999,17.146682 84.092858,16.720627999999998 84.09848600000001,16.278014 84.137015,15.818928999999999 84.206789,15.344123 84.305808,14.854749 84.431726,14.352157 84.581903,13.837748999999999 84.753463,13.312895 84.94335699999999,12.778875 85.14841200000001,12.236867 85.36536699999999,11.687932 85.590901,11.133019 86.210003,9.630396 71.761042,4.0 71.08124000000001,4.809477 70.862032,5.071071 70.642748,5.333899000000001 70.423701,5.598172 70.205204,5.864102 69.987573,6.131906 69.771128,6.4017990000000005 69.556189,6.674003 69.343081,6.94874 69.13213400000001,7.226231 68.923679,7.506703 68.718053,7.790379 68.515596,8.077486 68.316833,8.367985000000001 68.123017,8.660314 67.934499,8.952012 67.750382,9.24179 67.569507,9.528844 67.390758,9.81239 67.21306,10.091667 67.035378,10.365939000000001 66.85672,10.634495 66.676128,10.896659 66.492673,11.151796000000001 66.305448,11.399323 66.113553,11.638718 65.916069,11.869542000000001 65.711083,12.092495 65.495543,12.310447 65.268358,12.525954 65.030394,12.739752 64.782783,12.952427 64.526714,13.16462 64.263417,13.377025 63.994148,13.590402 63.992094,13.592015 61.433844,13.592015 61.433844,74.192015" stroke="#1f6fb2" stroke-width="0.1" /><text fill="#0a3d62" font-family="sans-serif" font-size="1.6" text-anchor="middle" x="76.825844" y="39.0960075">01</text><polygon fill="#cfe3f7" fill-opacity="0.5" points="9.158389,137.271384 37.847611,137.271384 43.01656,85.797035 42.213871999999995,85.000913 41.742889000000005,84.539085 41.262456,84.07862899999999 40.770316,83.62284799999999 40.266656,83.175981 39.753831000000005,82.739634 39.232901999999996,82.313251 38.704535,81.895933 38.169385,81.48678799999999 37.628095,81.084919 37.081299,80.689438 36.529622,80.29945699999999 35.973678,79.91409399999999 35.413412,79.53202399999999 34.846812,79.15195 34.271332,78.775375 33.685792,78.405255 33.089193,78.044733 32.480501000000004,77.697007 31.858664,77.36533999999999 31.222636,77.053072 30.5714,76.763633 29.904013,76.50054999999999 29.221045,76.267904 28.527173,76.06850999999999 27.827779,75.899603 27.125046,75.756675 26.420559,75.635199 25.715823,75.53077599999999 25.012311,75.43912999999999 24.311503000000002,75.356107 23.526449,75.267704 22.726288,75.320123 22.010756,75.37099599999999 21.292348,75.43015 20.572351,75.501694 19.852040000000002,75.589852 19.132707,75.69896299999999 18.415708000000002,75.83349 17.702592,75.997992 16.997277,76.196367 16.30515,76.42817799999999 15.62828,76.68949099999999 14.966104,76.976919 14.317845,77.287196 13.682673,77.617138 13.05973,77.963636 12.448158,78.32364799999999 11.847112000000001,78.694189 11.255774,79.072318 10.672531,79.455681 10.094458,79.84455899999999 9.521137,80.24199 8.954605,80.65015 8.39726,81.07105 7.851546000000001,81.50675799999999 7.319973000000001,81.959384 6.8051400000000015,82.43107499999999 6.309764000000001,82.92398 5.837240999999999,83.43963199999999 5.393820000000002,83.97429299999999 4.979766999999999,84.51738999999999 4.588615000000001,85.06065699999999 4.0,85.902203 9.158389,137.271384" stroke="#1f6fb2" stroke-width="0.1" /><text fill="#0a3d62" font-family="sans-serif" font-size="1.6" text-anchor="middle" x="23.50828" y="106.269544">04</text><polygon fill="#cfe3f7" fill-opacity="0.5" points="49.174949,137.271384 77.864171,137.271384 83.03312,85.797035 82.230432,85.000913 81.759449,84.539085 81.279016,84.07862899999999 80.786876,83.62284799999999 80.283216,83.175981 79.770391,82.739634 79.249462,82.313251 78.72109499999999,81.895933 78.185945,81.48678799999999 77.644655,81.084919 77.097859,80.689438 76.546182,80.29945699999999 75.990238,79.91409399999999 75.42997199999999,79.53202399999999 74.863372,79.15195 74.287892,78.775375 73.70235199999999,78.405255 73.10575299999999,78.044733 72.497061,77.697007 71.875224,77.36533999999999 71.23919599999999,77.053072 70.58796,76.763633 69.92057299999999,76.50054999999999 69.237605,76.267904 68.543733,76.06850999999999 67.84433899999999,75.899603 67.141606,75.756675 66.437119,75.635199 65.732383,75.53077599999999 65.028871,75.43912999999999 64.328063,75.356107 63.543009,75.267704 62.742847999999995,75.320123 62.027316,75.37099599999999 61.308908,75.43015 60.588910999999996,75.501694 59.8686,75.589852 59.149266999999995,75.69896299999999 58.432268,75.83349 57.719151999999994,75.997992 57.013836999999995,76.196367 56.321709999999996,76.42817799999999 55.64484,76.68949099999999 54.982664,76.976919 54.334405,77.287196 53.699233,77.617138 53.07629,77.963636 52.464718,78.32364799999999 51.863672,78.694189 51.272334,79.072318 50.689091,79.455681 50.111018,79.84455899999999 49.537696999999994,80.24199 48.971165,80.65015 48.41382,81.07105 47.868106,81.50675799999999 47.336533,81.959384 46.8217,82.43107499999999 46.326324,82.92398 45.853801,83.43963199999999 45.41038,83.97429299999999 44.996326999999994,84.51738999999999 44.605175,85.06065699999999 44.01656,85.902203 49.174949,137.271384" stroke="#1f6fb2" stroke-width="0.1" /><text fill="#0a3d62" font-family="sans-serif" font-size="1.6" text-anchor="middle" x="63.52484" y="106.269544">04</text><polygon fill="#cfe3f7" fill-opacity="0.5" points="59.76,150.940784 59.239650999999995,150.239822 58.91648,149.80420700000002 58.593374999999995,149.368142 58.270279,148.93127900000002 57.947135,148.493274 57.623885,148.05377800000002 57.300470000000004,147.612443 56.976844,147.168943 56.653445,146.723565 56.332285999999996,146.27737000000002 56.016204,145.83097700000002 55.707578999999996,145.38435900000002 55.408749,144.93751300000002 55.122028,144.49048900000003 54.849697,144.043397 54.593982,143.596393 54.357042,143.149675 54.140944,142.703464 53.947636,142.25797500000002 53.778936,141.813377 53.636488,141.36967600000003 53.521249,140.92480400000002 53.432210999999995,140.47436900000002 53.367304000000004,140.015769 53.324984,139.54874800000002 53.267899,138.271384 31.88,138.271384 31.88,198.271384 59.76,198.271384 59.76,150.940784 4.0,150.940784 4.5203489999999995,150.239822 4.843519999999998,149.80420700000002 5.166625,149.368142 5.489720999999999,148.93127900000002 5.812864999999999,148.493274 6.136115,148.05377800000002 6.459529999999997,147.612443 6.783155999999998,147.168943 7.106555,146.723565 7.427713999999998,146.27737000000002 7.743796,145.83097700000002 8.052420999999999,145.38435900000002 8.351250999999998,144.93751300000002 8.637971999999998,144.49048900000003 8.910302999999999,144.043397 9.166017999999998,143.596393 9.402957999999998,143.149675 9.619056,142.703464 9.812363999999999,142.25797500000002 9.981064,141.813377 10.123511999999998,141.36967600000003 10.238751,140.92480400000002 10.327789,140.47436900000002 10.392695999999997,140.015769 10.435015999999997,139.54874800000002 10.492100999999998,138.271384 31.88,138.271384 31.88,198.271384 4.0,198.271384 4.0,150.940784" stroke="#1f6fb2" stroke-width="0.1" /><text fill="#0a3d62" font-family="sans-serif" font-size="1.6" text-anchor="middle" x="31.88" y="168.271384">02</text><polygon fill="#cfe3f7" fill-opacity="0.5" points="60.76,149.54328900000002 67.75999999999999,153.953289 74.75999999999999,149.54328900000002 74.75999999999999,138.271384 60.76,138.271384 60.76,149.54328900000002" stroke="#1f6fb2" stroke-width="0.1" /><text fill="#0a3d62" font-family="sans-serif" font-size="1.6" text-anchor="middle" x="67.75999999999999" y="146.11233650000003">10</text><polygon fill="#cfe3f7" fill-opacity="0.5" points="75.75999999999999,150.520511 75.789841,150.82349100000002 75.892547,151.162066 76.059332,151.47409900000002 76.28378599999999,151.747598 76.557285,151.97205200000002 76.86931799999999,152.13883700000002 77.20789299999998,152.241543 77.51087299999999,152.271384 99.00912699999999,152.271384 99.312107,152.241543 99.65068199999999,152.13883700000002 99.96271499999999,151.97205200000002 100.23621399999999,151.747598 100.460668,151.47409900000002 100.62745299999999,151.162066 100.73015899999999,150.82349100000002 100.75999999999999,150.520511 100.75999999999999,140.02225700000002 100.73015899999999,139.719277 100.62745299999999,139.380702 100.460668,139.068669 100.23621399999999,138.79517 99.96271499999999,138.570716 99.65068199999999,138.403931 99.312107,138.30122500000002 99.00912699999999,138.271384 77.51087299999999,138.271384 77.20789299999998,138.30122500000002 76.86931799999999,138.403931 76.557285,138.570716 76.28378599999999,138.79517 76.059332,139.068669 75.892547,139.380702 75.789841,139.719277 75.75999999999999,140.02225700000002 75.75999999999999,150.520511" stroke="#1f6fb2" stroke-width="0.1" /><text fill="#0a3d62" font-family="sans-serif" font-size="1.6" text-anchor="middle" x="88.25999999999999" y="145.271384">05</text><polygon fill="#cfe3f7" fill-opacity="0.5" points="4.0,211.520511 4.029841,211.82349100000002 4.132547,212.162066 4.299332,212.47409900000002 4.523786,212.747598 4.7972850000000005,212.97205200000002 5.109318,213.13883700000002 5.4478930000000005,213.241543 5.750873,213.271384 27.249127,213.271384 27.552107,213.241543 27.890682,213.13883700000002 28.202715,212.97205200000002 28.476214,212.747598 28.700668,212.47409900000002 28.867453,212.162066 28.970159,211.82349100000002 29.0,211.520511 29.0,201.02225700000002 28.970159,200.719277 28.867453,200.380702 28.700668,200.068669 28.476214,199.79517 28.202715,199.570716 27.890682,199.403931 27.552107,199.30122500000002 27.249127,199.271384 5.750873,199.271384 5.4478930000000005,199.30122500000002 5.109318,199.403931 4.7972850000000005,199.570716 4.523786,199.79517 4.299332,200.068669 4.132547,200.380702 4.029841,200.719277 4.0,201.02225700000002 4.0,211.520511" stroke="#1f6fb2" stroke-width="0.1" /><text fill="#0a3d62" font-family="sans-serif" font-size="1.6" text-anchor="middle" x="16.5" y="206.271384">05</text><polygon fill="#cfe3f7" fill-opacity="0.5" points="73.568973,210.17157300000002 73.567261,209.68805 73.58348,209.196728 73.615959,208.698033 73.662949,208.19244300000003 73.722633,207.68046 73.793127,207.16259100000002 73.872488,206.639331 73.95872299999999,206.11115500000002 74.049795,205.57850900000003 74.290468,204.201876 59.979625,199.271384 59.347877999999994,199.65452000000002 59.119977,199.791449 58.894356,199.924484 58.670412,200.05282400000002 58.447548999999995,200.17572 58.225156999999996,200.292481 58.001987,200.40278800000002 57.776022999999995,200.50702700000002 57.546332,200.6056 57.313142,200.698396 57.076796,200.785258 56.837633,200.866035 56.595997999999994,200.940583 56.352232,201.00876200000002 56.106682,201.07043800000002 55.859691,201.125482 55.611517,201.17379000000003 55.361644999999996,201.215428 55.109085,201.250856 54.853496,201.28057600000002 54.594916999999995,201.30504000000002 54.333411,201.32471 54.069053999999994,201.34006300000001 53.801931999999994,201.35158900000002 53.532138,201.35979 53.25977,201.36518700000002 52.984924,201.368311 52.7077,201.36971100000002 52.428191999999996,201.369946 52.145234,201.36958900000002 52.145234,211.36959000000002 73.622512,211.36959000000002 73.568973,210.17157300000002 30.721494999999997,210.17157300000002 30.723207,209.68805 30.706988,209.196728 30.674508999999997,208.698033 30.627519,208.19244300000003 30.567835,207.68046 30.497341,207.16259100000002 30.41798,206.639331 30.331744999999998,206.11115500000002 30.240672999999997,205.57850900000003 30.0,204.201876 44.310843,199.271384 44.942589999999996,199.65452000000002 45.170491,199.791449 45.396112,199.924484 45.620056,200.05282400000002 45.842918999999995,200.17572 46.065310999999994,200.292481 46.288481,200.40278800000002 46.514444999999995,200.50702700000002 46.744136,200.6056 46.977326,200.698396 47.213672,200.785258 47.452835,200.866035 47.694469999999995,200.940583 47.938236,201.00876200000002 48.183786,201.07043800000002 48.430777,201.125482 48.678951,201.17379000000003 48.928822999999994,201.215428 49.181383,201.250856 49.436972,201.28057600000002 49.695550999999995,201.30504000000002 49.957057,201.32471 50.221413999999996,201.34006300000001 50.488535999999996,201.35158900000002 50.75833,201.35979 51.030698,201.36518700000002 51.305544,201.368311 51.582768,201.36971100000002 51.862275999999994,201.369946 52.145234,201.36958900000002 52.145234,211.36959000000002 30.667956,211.36959000000002 30.721494999999997,210.17157300000002" stroke="#1f6fb2" stroke-width="0.1" /><text fill="#0a3d62" font-family="sans-serif" font-size="1.6" text-anchor="middle" x="52.145234" y="205.320487">03</text><polygon fill="#cfe3f7" fill-opacity="0.5" points="26.655368999999997,221.126361 27.146859,221.21565800000002 27.638402,221.29986100000002 28.129994999999997,221.378969 28.621636,221.45298000000003 29.113321,221.521893 29.605047999999996,221.585707 30.096814,221.64442000000003 30.588614999999997,221.698032 31.080448999999998,221.746541 31.572312999999998,221.789947 32.064203,221.828248 32.556116,221.861444 33.048049,221.88953400000003 33.539998999999995,221.912517 34.031962,221.930394 34.523936,221.94316300000003 35.015916,221.950825 35.507898999999995,221.95337800000001 35.999882,221.950825 36.491862,221.94316300000003 36.983836,221.930394 37.475798999999995,221.912517 37.967749,221.88953400000003 38.459682,221.861444 38.951595,221.828248 39.443484999999995,221.789947 39.935349,221.746541 40.427183,221.698032 40.918983999999995,221.64442000000003 41.41075,221.585707 41.902477,221.521893 42.394161999999994,221.45298000000003 42.885802999999996,221.378969 43.377396,221.29986100000002 43.868939,221.21565800000002 44.360428999999996,221.126361 44.644778,221.07174700000002 46.6965,224.491284 47.751718,224.09230100000002 45.938626,214.271384 44.46481,214.569757 43.993041,214.660369 43.521327,214.746072 43.049666,214.82686900000002 42.578055,214.902761 42.106492,214.97375000000002 41.634973,215.039837 41.163495999999995,215.101023 40.692057999999996,215.15731000000002 40.220655,215.208698 39.749285,215.255189 39.277945,215.296783 38.806630999999996,215.333482 38.33534,215.36528600000003 37.864069,215.392196 37.392815,215.41421300000002 36.921574,215.43133600000002 36.450344,215.443567 35.979119999999995,215.450905 35.507898999999995,215.45335200000002 35.036677999999995,215.450905 34.565454,215.443567 34.094224,215.43133600000002 33.622983,215.41421300000002 33.151729,215.392196 32.680458,215.36528600000003 32.209166999999994,215.333482 31.737852999999998,215.296783 31.266512999999996,215.255189 30.795143,215.208698 30.323739999999997,215.15731000000002 29.852301999999998,215.101023 29.380824999999998,215.039837 28.909305999999997,214.97375000000002 28.437742999999998,214.902761 27.966131999999998,214.82686900000002 27.494470999999997,214.746072 27.022757,214.660369 26.550987999999997,214.569757 25.875859,214.43307800000002 25.875859,220.97365200000002 26.163933999999998,221.03197300000002 26.655368999999997,221.126361 25.096349,221.126361 24.604858999999998,221.21565800000002 24.113315999999998,221.29986100000002 23.621723,221.378969 23.130081999999998,221.45298000000003 22.638396999999998,221.521893 22.14667,221.585707 21.654904,221.64442000000003 21.163103,221.698032 20.671269,221.746541 20.179405,221.789947 19.687514999999998,221.828248 19.195601999999997,221.861444 18.703668999999998,221.88953400000003 18.211719,221.912517 17.719755999999997,221.930394 17.227781999999998,221.94316300000003 16.735802,221.950825 16.243819,221.95337800000001 15.751835999999999,221.950825 15.259856,221.94316300000003 14.767881999999998,221.930394 14.275918999999998,221.912517 13.783968999999999,221.88953400000003 13.292035999999998,221.861444 12.800123,221.828248 12.308232999999998,221.789947 11.816368999999998,221.746541 11.324535,221.698032 10.832733999999999,221.64442000000003 10.340967999999998,221.585707 9.849241,221.521893 9.357555999999999,221.45298000000003 8.865914999999998,221.378969 8.374322,221.29986100000002 7.882778999999999,221.21565800000002 7.391288999999997,221.126361 7.106939999999998,221.07174700000002 5.055218,224.491284 4.0,224.09230100000002 5.8130919999999975,214.271384 7.286907999999997,214.569757 7.758676999999999,214.660369 8.230390999999997,214.746072 8.702051999999998,214.82686900000002 9.173662999999998,214.902761 9.645225999999997,214.97375000000002 10.116744999999998,215.039837 10.588221999999998,215.101023 11.05966,215.15731000000002 11.531062999999998,215.208698 12.002432999999998,215.255189 12.473772999999998,215.296783 12.945087,215.333482 13.416377999999998,215.36528600000003 13.887648999999998,215.392196 14.358902999999998,215.41421300000002 14.830143999999999,215.43133600000002 15.301374,215.443567 15.772597999999999,215.450905 16.243819,215.45335200000002 16.71504,215.450905 17.186263999999998,215.443567 17.657494,215.43133600000002 18.128735,215.41421300000002 18.599988999999997,215.392196 19.07126,215.36528600000003 19.542551,215.333482 20.013865,215.296783 20.485205,215.255189 20.956574999999997,215.208698 21.427978,215.15731000000002 21.899416,215.101023 22.370893,215.039837 22.842412,214.97375000000002 23.313975,214.902761 23.785586,214.82686900000002 24.257247,214.746072 24.728960999999998,214.660369 25.20073,214.569757 25.875859,214.43307800000002 25.875859,220.97365200000002 25.587784,221.03197300000002 25.096349,221.126361" stroke="#1f6fb2" stroke-width="0.1" /><text fill="#0a3d62" font-family="sans-serif" font-size="1.6" text-anchor="middle" x="25.875859" y="219.381334">07</text><polygon fill="#cfe3f7" fill-opacity="0.5" points="71.627903,219.573926 72.159438,219.64491900000002 72.69099399999999,219.711858 73.22256999999999,219.774742 73.754166,219.833571 74.28577999999999,219.88834500000002 74.81741099999999,219.939064 75.349058,219.985726 75.880719,220.028331 76.412393,220.06688000000003 76.94407899999999,220.10137200000003 77.475776,220.131807 78.007482,220.158184 78.539196,220.180504 79.070916,220.198766 79.602642,220.21296900000002 80.134372,220.223115 80.66610399999999,220.22920200000002 81.19783799999999,220.231231 81.72957199999999,220.22920200000002 82.261304,220.223115 82.79303399999999,220.21296900000002 83.32476,220.198766 83.85648,220.180504 84.388194,220.158184 84.9199,220.131807 85.45159699999999,220.10137200000003 85.983283,220.06688000000003 86.514957,220.028331 87.046618,219.985726 87.57826499999999,219.939064 88.10989599999999,219.88834500000002 88.64151,219.833571 89.17310599999999,219.774742 89.70468199999999,219.711858 90.236238,219.64491900000002 90.76777299999999,219.573926 91.299284,219.49888 92.679878,219.29341200000002 92.679878,214.271384 91.01226799999999,214.51956800000002 90.495575,214.592522 89.978906,214.661529 89.46225799999999,214.72659000000002 88.94563,214.78770600000001 88.429022,214.84487700000003 87.912432,214.89810300000002 87.395859,214.947384 86.879302,214.99272200000001 86.362759,215.034117 85.846229,215.071568 85.329711,215.10507600000003 84.813204,215.13464100000002 84.296706,215.160264 83.780216,215.18194400000002 83.263732,215.19968200000002 82.747254,215.213479 82.23078,215.22333300000003 81.71430799999999,215.22924600000002 81.19783799999999,215.23121700000002 80.68136799999999,215.22924600000002 80.164896,215.22333300000003 79.648422,215.213479 79.131944,215.19968200000002 78.61546,215.18194400000002 78.09897,215.160264 77.582472,215.13464100000002 77.06596499999999,215.10507600000003 76.549447,215.071568 76.032917,215.034117 75.516374,214.99272200000001 74.999817,214.947384 74.483244,214.89810300000002 73.96665399999999,214.84487700000003 73.450046,214.78770600000001 72.93341799999999,214.72659000000002 72.41677,214.661529 71.90010099999999,214.592522 71.383408,214.51956800000002 70.71579799999999,214.42021000000003 70.71579799999999,219.442238 71.096392,219.49888 71.627903,219.573926 69.803693,219.573926 69.27215799999999,219.64491900000002 68.740602,219.711858 68.209026,219.774742 67.67742999999999,219.833571 67.145816,219.88834500000002 66.61418499999999,219.939064 66.082538,219.985726 65.550877,220.028331 65.019203,220.06688000000003 64.487517,220.10137200000003 63.955819999999996,220.131807 63.424113999999996,220.158184 62.892399999999995,220.180504 62.360679999999995,220.198766 61.828953999999996,220.21296900000002 61.297224,220.223115 60.765491999999995,220.22920200000002 60.233757999999995,220.231231 59.702023999999994,220.22920200000002 59.170291999999996,220.223115 58.63856199999999,220.21296900000002 58.106835999999994,220.198766 57.575115999999994,220.180504 57.04340199999999,220.158184 56.51169599999999,220.131807 55.97999899999999,220.10137200000003 55.448313,220.06688000000003 54.916638999999996,220.028331 54.384978,219.985726 53.853331,219.939064 53.32169999999999,219.88834500000002 52.790085999999995,219.833571 52.258489999999995,219.774742 51.726913999999994,219.711858 51.195358,219.64491900000002 50.663822999999994,219.573926 50.132312,219.49888 48.751718,219.29341200000002 48.751718,214.271384 50.41932799999999,214.51956800000002 50.936021,214.592522 51.45269,214.661529 51.96933799999999,214.72659000000002 52.485966,214.78770600000001 53.002573999999996,214.84487700000003 53.519163999999996,214.89810300000002 54.035737,214.947384 54.552293999999996,214.99272200000001 55.068836999999995,215.034117 55.585367,215.071568 56.101884999999996,215.10507600000003 56.618392,215.13464100000002 57.13489,215.160264 57.651379999999996,215.18194400000002 58.167863999999994,215.19968200000002 58.684341999999994,215.213479 59.200815999999996,215.22333300000003 59.717287999999996,215.22924600000002 60.233757999999995,215.23121700000002 60.75022799999999,215.22924600000002 61.2667,215.22333300000003 61.783173999999995,215.213479 62.299651999999995,215.19968200000002 62.816136,215.18194400000002 63.332626,215.160264 63.849123999999996,215.13464100000002 64.365631,215.10507600000003 64.882149,215.071568 65.39867899999999,215.034117 65.915222,214.99272200000001 66.43177899999999,214.947384 66.948352,214.89810300000002 67.464942,214.84487700000003 67.98155,214.78770600000001 68.498178,214.72659000000002 69.014826,214.661529 69.53149499999999,214.592522 70.048188,214.51956800000002 70.71579799999999,214.42021000000003 70.71579799999999,219.442238 70.335204,219.49888 69.803693,219.573926" stroke="#1f6fb2" stroke-width="0.1" /><text fill="#0a3d62" font-family="sans-serif" font-size="1.6" text-anchor="middle" x="70.71579799999999" y="217.25130750000002">08</text><polygon fill="#cfe3f7" fill-opacity="0.5" points="93.679878,217.920511 93.702033,218.145454 93.781976,218.408992 93.911797,218.65187 94.086507,218.864755 94.299392,219.039465 94.54227,219.169286 94.805808,219.249229 95.03075100000001,219.271384 106.329005,219.271384 106.553948,219.249229 106.817486,219.169286 107.060364,219.039465 107.273249,218.864755 107.447959,218.65187 107.57778,218.408992 107.657723,218.145454 107.679878,217.920511 107.679878,215.62225700000002 107.657723,215.39731400000002 107.57778,215.133776 107.447959,214.89089800000002 107.273249,214.67801300000002 107.060364,214.50330300000002 106.817486,214.37348200000002 106.553948,214.293539 106.329005,214.271384 95.03075100000001,214.271384 94.805808,214.293539 94.54227,214.37348200000002 94.299392,214.50330300000002 94.086507,214.67801300000002 93.911797,214.89089800000002 93.781976,215.133776 93.702033,215.39731400000002 93.679878,215.62225700000002 93.679878,217.920511" stroke="#1f6fb2" stroke-width="0.1" /><text fill="#0a3d62" font-family="sans-serif" font-size="1.6" text-anchor="middle" x="100.679878" y="216.771384">06</text><polygon fill="#cfe3f7" fill-opacity="0.5" points="4.0,229.140411 4.022155,229.365354 4.102098,229.628892 4.2319189999999995,229.87177 4.406629,230.084655 4.619514,230.259365 4.862392,230.389186 5.12593,230.469129 5.350873,230.491284 16.649127,230.491284 16.87407,230.469129 17.137608,230.389186 17.380485999999998,230.259365 17.593370999999998,230.084655 17.768081000000002,229.87177 17.897902000000002,229.628892 17.977845000000002,229.365354 18.0,229.140411 18.0,226.84215700000001 17.977845000000002,226.61721400000002 17.897902000000002,226.353676 17.768081000000002,226.11079800000002 17.593370999999998,225.89791300000002 17.380485999999998,225.723203 17.137608,225.59338200000002 16.87407,225.513439 16.649127,225.491284 5.350873,225.491284 5.12593,225.513439 4.862392,225.59338200000002 4.619514,225.723203 4.406629,225.89791300000002 4.2319189999999995,226.11079800000002 4.102098,226.353676 4.022155,226.61721400000002 4.0,226.84215700000001 4.0,229.140411" stroke="#1f6fb2" stroke-width="0.1" /><text fill="#0a3d62" font-family="sans-serif" font-size="1.6" text-anchor="middle" x="11.0" y="227.991284">06</text></svg>