<?xml version="1.0" encoding="utf-8" ?>
<svg baseProfile="full" height="68.220528cm" version="1.1" viewBox="0 0 99.03615502019036 68.220528" width="99.03615502019036cm" xmlns="http://www.w3.org/2000/svg" xmlns:ev="http://www.w3.org/2001/xml-events" xmlns:xlink="http://www.w3.org/1999/xlink"><defs /><g fill="none" id="CONSTRUCCION" stroke="#888888" stroke-width="0.08"><line x1="27.0" x2="14.833333333333332" y1="25.253861333333333" y2="27.253861333333333" /><line x1="27.0" x2="14.833333333333332" y1="29.253861333333333" y2="27.253861333333333" /><line x1="14.433333333333332" x2="12.833333333333332" y1="49.25386133333333" y2="29.753861333333333" /><line x1="11.233333333333333" x2="12.833333333333332" y1="49.25386133333333" y2="29.753861333333333" /><line x1="43.95" x2="42.45" y1="45.25386133333333" y2="33.25386133333333" /><line x1="40.95" x2="42.45" y1="45.25386133333333" y2="33.25386133333333" /><line x1="45.58802630783017" x2="42.45" y1="6.220528" y2="14.220528" /><line x1="46.78802630783017" x2="42.45" y1="6.220528" y2="14.220528" /></g><g fill="none" id="CORTE" stroke="#d00000" stroke-width="0.08"><polygon points="12.833333,41.982318 13.512024,50.253861 26.448652,50.253861 26.586621,47.637708 26.676636,45.970289 26.770724,44.304423 26.870948,42.640265 26.979365,40.977969 27.098043,39.31748 27.228415,37.65786 27.369181,35.997978 27.518308,34.33747700000001 27.673742,32.676204 27.833426,31.014004 28.085978,28.418957000000002 20.998311,27.253861 28.824901,25.967299 27.489125,24.255083000000003 27.188347,23.870417000000003 26.885338,23.484644000000003 26.579324,23.097658000000003 26.269532,22.709359000000003 25.955193,22.319657000000003 25.63554,21.928466 25.30981,21.535707000000002 24.977242,21.141308000000002 24.637689,20.745907000000003 24.293651,20.351646000000002 23.95008,19.95986 23.610848,19.570247000000002 23.279615,19.182426 22.960041,18.796194 22.655762,18.411521999999998 22.370347,18.028567000000002 22.107249,17.647662 21.869716,17.2693 21.660695,16.894072 21.482715,16.522548999999998 21.337786,16.155077 21.227337,15.791349 21.15161,15.426736 21.10886,15.052102 21.096894,14.662021 21.114347,14.255987 21.159685,13.834503999999999 21.231026,13.398591999999999 21.326119,12.949536 21.442377,12.48871 21.576948,12.017463000000001 21.726775,11.537056 21.888654,11.048626 22.059276,10.553177999999999 22.529318,9.213376 9.848414,3.0 9.143099,3.7401530000000003 8.942945,3.950653 8.742503,4.162383 8.542009,4.375567 8.341702999999999,4.590427 8.141828,4.807193 7.942628,5.026092 7.744354,5.247356 7.547258,5.471217 7.351596,5.697907 7.157628,5.9276610000000005 6.965619,6.160711 6.775837,6.397293 6.5888100000000005,6.637309 6.4058790000000005,6.879147 6.227577,7.12044 6.053237,7.359988 5.881977,7.596952 5.712961,7.83051 5.5453980000000005,8.059856 5.3785430000000005,8.284201 5.211695000000001,8.502779 5.044194,8.714852 4.875414,8.919722 4.704759,9.116741999999999 4.5316469999999995,9.305323999999999 4.355375,9.485078999999999 4.173572,9.657354 3.983351,9.825152 3.7839869999999998,9.990271 3.576093,10.153345 3.360393,10.315005 3.137666,10.475921 3.0,10.572669 3.0,50.253861 12.154643,50.253861 12.833333,41.982318" /><polygon points="42.45,41.316119 43.067218,46.253861 56.448651999999996,46.253861 56.586621,43.637708 56.676636,41.970289 56.770724,40.304423 56.870948,38.640265 56.979365,36.977969 57.098043000000004,35.31748 57.228415,33.65786 57.369181,31.997978000000003 57.518308000000005,30.337477000000003 57.673742000000004,28.676204000000002 57.833426,27.014004 58.028337,25.011235000000003 57.576683,24.291509 57.305985,23.860294000000003 57.034673,23.428403000000003 56.762482,22.995565000000003 56.489147,22.561511000000003 56.214404,22.125971000000003 55.938275000000004,21.689127000000003 55.659963000000005,21.249869 55.379282,20.808054000000002 55.097791,20.365922 54.817353,19.923636000000002 54.540913,19.481978 54.270819,19.040883 54.009404,18.60035 53.758966,18.16044 53.521767,17.72127 53.300011,17.283008000000002 53.095827,16.845855999999998 52.911248,16.410035 52.748188,15.97575 52.608427,15.543146 52.493601,15.112249 52.405138,14.682541 52.3437,14.250252999999999 52.307872,13.810478999999999 52.295862,13.361535 52.306055,12.903504 52.336762,12.436687 52.386182000000005,11.961535 52.452403000000004,11.478586 52.533398,10.988419999999998 52.627044,10.491622 52.731133,9.988758999999998 52.843385,9.480363999999998 52.96146,8.966923999999999 53.283579,7.593544 46.32427,4.977931 46.121112,5.352587999999999 40.083877,3.0835309999999994 39.436775,3.6050139999999997 39.237132,3.7644449999999994 39.039611,3.9193299999999995 38.843594,4.068861 38.648492,4.212287 38.453725,4.348915 38.258365,4.478355 38.060519,4.601055 37.859026,4.7175899999999995 37.654026,4.827812999999999 37.4459,4.9314409999999995 37.23503,5.028198 37.021798000000004,5.117823 36.806588,5.200061999999999 36.589781,5.274677 36.371755,5.341441 36.152843,5.400150999999999 35.93247,5.450838999999999 35.709033,5.494060999999999 35.481604,5.530500999999999 35.250142,5.560668 35.014689,5.585076999999999 34.775322,5.604264 34.53215,5.618789 34.285297,5.629237999999999 34.034902,5.636225 33.781108,5.640389999999999 33.524058,5.642399999999999 33.263892999999996,5.6429469999999995 33.0,5.6427499999999995 33.0,46.253861 41.832782,46.253861 42.45,41.316119" /><polygon points="66.07671402019035,65.220528 91.92677602019036,65.220528 96.03615502019036,12.540599 95.29959102019035,11.800078000000001 94.88034202019035,11.383483 94.45243702019036,10.968143999999999 94.01418802019036,10.557514 93.56640502019036,10.155809999999999 93.11142902019036,9.764471 92.65013802019035,9.382914 92.18311402019036,9.010297999999999 91.71092702019035,8.645778 91.23413502019035,8.288512 90.75328502019036,7.937658 90.26891502019035,7.592377 89.78152902019036,7.251819 89.29063902019035,6.914503 88.79404402019036,6.579535 88.28978502019035,6.248482 87.77707302019036,5.9239250000000006 87.25515702019035,5.608545 86.72324802019035,5.305067 86.18053702019036,5.016286 85.62621002019036,4.745072 85.05947802019035,4.49439 84.47965502019035,4.267321 83.88819002019035,4.067663 83.29017502019036,3.897186 82.68995302019036,3.753085 82.08904502019035,3.631422 81.48862702019035,3.528289 80.88978802019035,3.439887 80.29356802019035,3.362527 79.70100002019035,3.292636 79.02553802019035,3.216934 78.33870402019035,3.261091 77.73522902019036,3.3032440000000003 77.12806702019036,3.35244 76.51810202019036,3.41217 75.90621902019035,3.48603 75.29333302019036,3.577724 74.68043102019035,3.691061 74.06862702019035,3.829946 73.46065302019035,3.997933 72.86175002019036,4.195597 72.27492502019035,4.41955 71.69999602019035,4.6667819999999995 71.13634402019035,4.934489 70.58330102019036,5.219953 70.04017902019035,5.520532 69.50628702019036,5.8336559999999995 68.98095602019035,6.156808 68.46354102019035,6.487518 67.95306902019036,6.823588 67.44670702019036,7.164789 66.94292302019036,7.514036 66.44304202019035,7.873897 65.94923702019035,8.246455000000001 65.46373902019036,8.633842 64.98885202019036,9.038225 64.52698002019036,9.461791999999999 64.08064902019035,9.906715 63.652837020190354,10.374766999999999 63.24961602019036,10.862998000000001 62.873047020190356,11.360908 62.51799902019036,11.859189 61.97539602019036,12.643934 66.07671402019035,65.220528" /></g><g fill="none" id="COSTURA" stroke="#00a000" stroke-width="0.08"><polygon points="3.0,11.787194666666666 3.240535309352664,11.622786011346289 3.480168019902754,11.457467356645195 3.717995532847692,11.290328703182668 3.9531152493849033,11.12046005157799 4.184624570711815,10.946951402450445 4.411620898025849,10.76889275641932 4.633201632524431,10.585374114103896 4.848464175404986,10.395485476123453 5.056521525810087,10.198332417580403 5.257177758127113,9.9937105493246 5.451187007942124,9.782364114347283 5.639372456426434,9.565106297368386 5.822557284751358,9.342750283107833 6.001564674088206,9.11610925628556 6.177217805608292,8.88599640162149 6.350339860482931,8.653224903835554 6.521754019883433,8.418607947647681 6.692283464981113,8.1829587177778 6.862751376947286,7.947090398945838 7.033980936953261,7.7118161758717285 7.206795326170355,7.477949233275397 7.382017725759674,7.246302755866801 7.560293653536143,7.017516328513076 7.741566183725888,6.791543158732135 7.9256048084509665,6.568166842095301 8.112179019833432,6.347170974173898 8.30105830999534,6.1283391505392535 8.49201217105875,5.911454966762689 8.684810095145714,5.696302018415529 8.879221574378287,5.482663901069099 9.075016100878527,5.2703242102947225 9.27196316676849,5.059066541663724 9.469832264170229,4.848674490747428 9.668392885205801,4.63893165311716 9.867414521997262,4.429621624344242 10.066666666666666,4.220528 21.29163882698849,9.720528 21.114709330960984,10.224845546821408 20.941257963237973,10.728509564582716 20.774762852123946,11.230866524223822 20.618702125923377,11.73126289668462 20.476553912940776,12.229045152905012 20.351796341480625,12.723559763824898 20.24790753984741,13.214153200384171 20.16836563634562,13.700171933522736 20.116648759279755,14.180962434180485 20.096235036954294,14.65587117329732 20.110602597673733,15.124244621813139 20.163229569742562,15.585429250667842 20.257390904975626,16.038804165465177 20.39268187709759,16.484339509963842 20.56549765491934,16.922519435957344 20.77212673208213,17.3538452296444 21.008857602227224,17.778818177223712 21.271978758995886,18.197939564894003 21.557778696029377,18.61171067885398 21.86254590696897,19.020632805302366 22.18256888545591,19.425207230437863 22.514136125131476,19.825935240459184 22.853536119636924,20.223318121565047 23.197057362613513,20.617857159954166 23.540988347702516,21.010053641825248 23.881617568545188,21.400408853377016 24.21565655989328,21.789388870362096 24.542687571244294,22.177220833960973 24.86348581153443,22.564032593268923 25.178830377146294,22.94995167382231 25.489500364462508,23.3351056011575 25.796274869865663,23.719621900810864 26.099932989738384,24.10362809831876 26.40125382046327,24.48725171921756 26.701016458422945,24.87062028904363 27.0,25.253861333333333 14.833333333333332,27.253861333333333 27.0,29.253861333333333 26.838068462005033,30.917758754246222 26.678206294821155,32.58181134325237 26.52248286925945,34.24617426844502 26.372967556131016,35.91100269791743 26.23172972624693,37.576451799762864 26.10083875041828,39.24267674207455 25.981687246312923,40.909781947813826 25.87290576702226,42.57766473143758 25.772420307750316,44.24616957738143 25.678156863492415,45.91514097006535 25.58804142924387,47.58442339390933 25.5,49.25386133333333 14.433333333333332,49.25386133333333 12.833333333333332,29.753861333333333 11.233333333333333,49.25386133333333 3.0,49.25386133333333" /><polygon points="33.0,6.6427502222222214 33.26457166424706,6.642948119032532 33.529019945789315,6.642391432666918 33.79322146192193,6.640325579949458 34.05705282994012,6.635995977704227 34.320390667139044,6.6286480427553025 34.58311159081391,6.617527191926761 34.84509221825989,6.601878842042678 35.10620916677218,6.580948409927132 35.366339053645966,6.553981312404197 35.62535849617643,6.520222966297951 35.883144111658765,6.4789187884324715 36.13957251738815,6.429314195631833 36.39451655317615,6.370674915531179 36.64775759405809,6.302758464471804 36.898982929525054,6.225828238872572 37.147875547299726,6.140170764942814 37.39411843510478,6.046072568891858 37.63739458066291,5.943820176929034 37.877386971696794,5.833700115263671 38.11377859592912,5.715998910105096 38.34625244108257,5.59100308766264 38.57449149487983,5.4589991741456325 38.79817874504359,5.320273695763401 39.01713491545131,5.175199252483749 39.23185780442371,5.0245715600656276 39.44305291315802,4.869316131467959 39.65142579770185,4.710358513926652 39.85768201410282,4.548624254677618 40.06252711840855,4.385038900956763 40.266666666666666,4.220528 45.58802630783017,6.220528 42.45,14.220528 46.78802630783017,6.220528 52.109385948993676,8.220528 51.98738471723705,8.74069022457429 51.86784524532857,9.26049871351045 51.75322929311635,9.779599731170348 51.64599862044855,10.297639541915853 51.548614987173316,10.814264410108832 51.46354015313875,11.329120600111157 51.393235878193025,11.841854376284692 51.34016392218426,12.352112002991312 51.3067860449606,12.859539744592881 51.295564006370185,13.36378386545127 51.30895956626115,13.864490629928346 51.349434484481634,14.36130630238598 51.41943961127542,14.853878259591031 51.5199293263452,15.342006466914345 51.648851567917006,15.825797443511343 51.803794464454676,16.305394396776762 51.982346144422,16.780940534105323 52.182094736282814,17.252579062891755 52.40062836850092,17.72045319053079 52.63553516954012,18.184706124417154 52.88440326786424,18.645481071945568 53.14482079193709,19.102921240510767 53.4143758702225,19.557169837507484 53.690656631184254,20.008370070330436 53.97125120328619,20.456665146374355 54.25374771499211,20.902198273033974 54.53573776933887,21.34511282511738 54.815566741920435,21.78558849602517 55.09327028224424,22.22388642066024 55.3691140693425,22.660278817306693 55.643363782247434,23.095037904248617 55.91628509999127,23.528435899770095 56.18814370160622,23.960745022155212 56.45920526612452,24.39223748968807 56.72973547257837,24.823185520652743 57.0,25.253861333333333 56.83806846200503,26.917758754246222 56.67820629482115,28.581811343252372 56.52248286925945,30.24617426844502 56.372967556131016,31.911002697917436 56.231729726246925,33.576451799762864 56.100838750418276,35.24267674207455 55.98168724631292,36.909781947813826 55.87290576702226,38.57766473143758 55.772420307750316,40.24616957738142 55.67815686349242,41.91514097006535 55.58804142924387,43.58442339390933 55.5,45.25386133333333 43.95,45.25386133333333 42.45,33.25386133333333 40.95,45.25386133333333 33.0,45.25386133333333" /><polygon points="63.00000000000001,12.92040410624 63.336504962134555,12.433730823999259 63.67920257209319,11.952781799980507 64.03428547769998,11.483281292405739 64.40789429505642,11.030906161716176 64.80309528574513,10.598532715647229 65.21821660317919,10.184721129369555 65.65118197735067,9.787663172556304 66.09991513825167,9.405550614880635 66.56233981587425,9.036575226015698 67.03637974021049,8.678928775634652 67.51995864125249,8.33080303341065 68.01100024899232,7.99038976901685 68.5074293129764,7.655882416637823 69.00778257006708,7.326473533127364 69.51224338207423,7.004043934180838 70.02126922801462,6.690921955741602 70.53531758690497,6.389435933753014 71.05484593776201,6.101914204158437 71.5803117596025,5.830685102901225 72.11217253144314,5.578076965924739 72.6508857323007,5.346418129172334 73.1969088411919,5.138036928587372 73.75069933713348,4.95526170011321 74.31260903622561,4.80000223203596 74.88211897462665,4.67071901447276 75.4582817368655,4.564175372333041 76.04014691953678,4.477122794842022 76.62676411923508,4.406312771224918 77.21718293255499,4.348496790706948 77.8104529560911,4.300426342513326 78.40562378643803,4.258852915869271 79.00174502019036,4.220528 79.58674331235692,4.2860917810709935 80.17066180824199,4.354962130732362 80.75242071156407,4.430445617574479 81.33094022604169,4.51584881018772 81.90514055539336,4.614478277162457 82.47394190333758,4.729640587089065 83.03626447359284,4.86464230855792 83.59102846987768,5.022790010159395 84.13721759898067,5.207164076352311 84.67471089213583,5.417655940541758 85.20404957570868,5.651798441019297 85.7257904194602,5.907069053880442 86.24049019315136,6.180945255220706 86.74870566654319,6.470904521135605 87.25099360939666,6.774424327720651 87.74791079147276,7.08898215107136 88.2400139825325,7.4120554672832455 88.72785995233686,7.74112175245182 89.2119676395219,8.073776643019364 89.69228575040125,8.40939681812976 90.16832188451033,8.748736693644041 90.6395721702383,9.092586513980384 91.10553273597432,9.441736523556962 91.56569971010755,9.796976966791954 92.01956922102715,10.159098088103535 92.46663739712227,10.528890131909883 92.90640036678208,10.90714334262917 93.33835425839571,11.294647964679578 93.7622679538269,11.691845587164567 94.17964242519118,12.096963702839753 94.59265636553985,12.50736348733489 95.00349004038071,12.92040410624 91.00174502019036,64.220528 67.00174502019036,64.220528" /></g><g fill="none" id="PIQUETES" stroke="#00b0b0" stroke-width="0.08" /><g fill="none" id="TEXTOS" stroke="#000000" stroke-width="0.08"><text fill="#000000" font-family="sans-serif" font-size="0.9" stroke="none" text-anchor="middle" x="13.70182618544162" y="25.365334305702405">DELANTERO (base entallada)</text><text fill="#000000" font-family="sans-serif" font-size="0.6" stroke="none" text-anchor="middle" x="13.70182618544162" y="26.765334305702403">Pieza N.01</text><text fill="#000000" font-family="sans-serif" font-size="0.6" stroke="none" text-anchor="middle" x="13.70182618544162" y="28.165334305702405">Talla: S</text><text fill="#000000" font-family="sans-serif" font-size="0.6" stroke="none" text-anchor="middle" x="13.70182618544162" y="29.565334305702404">Cortar: 1  (al doblez)</text><text fill="#000000" font-family="sans-serif" font-size="0.6" stroke="none" text-anchor="middle" x="13.70182618544162" y="30.965334305702406">AL DOBLEZ</text><text fill="#000000" font-family="sans-serif" font-size="0.9" stroke="none" text-anchor="middle" x="43.84388009991719" y="22.723567913171966">ESPALDA (base entallada)</text><text fill="#000000" font-family="sans-serif" font-size="0.6" stroke="none" text-anchor="middle" x="43.84388009991719" y="24.123567913171964">Pieza N.02</text><text fill="#000000" font-family="sans-serif" font-size="0.6" stroke="none" text-anchor="middle" x="43.84388009991719" y="25.523567913171966">Talla: S</text><text fill="#000000" font-family="sans-serif" font-size="0.6" stroke="none" text-anchor="middle" x="43.84388009991719" y="26.923567913171965">Cortar: 1  (al doblez)</text><text fill="#000000" font-family="sans-serif" font-size="0.6" stroke="none" text-anchor="middle" x="43.84388009991719" y="28.323567913171964">AL DOBLEZ</text><text fill="#000000" font-family="sans-serif" font-size="0.9" stroke="none" text-anchor="middle" x="78.96411945515995" y="31.437989099507895">MANGA</text><text fill="#000000" font-family="sans-serif" font-size="0.6" stroke="none" text-anchor="middle" x="78.96411945515995" y="32.837989099507894">Pieza N.03</text><text fill="#000000" font-family="sans-serif" font-size="0.6" stroke="none" text-anchor="middle" x="78.96411945515995" y="34.2379890995079">Talla: S</text><text fill="#000000" font-family="sans-serif" font-size="0.6" stroke="none" text-anchor="middle" x="78.96411945515995" y="35.63798909950789">Cortar: 2  (par)</text></g><g fill="none" id="CENTROS" stroke="#0050ff" stroke-width="0.08"><circle cx="12.833333333333332" cy="26.753861333333333" fill="#0050ff" r="0.15" /><circle cx="14.833333333333332" cy="27.253861333333333" fill="#0050ff" r="0.15" /><circle cx="12.833333333333332" cy="29.753861333333333" fill="#0050ff" r="0.15" /><circle cx="42.45" cy="33.25386133333333" fill="#0050ff" r="0.15" /><circle cx="42.45" cy="14.220528" fill="#0050ff" r="0.15" /></g><g fill="none" id="HILO" stroke="#c0a000" stroke-width="0.08"><line x1="15.0" x2="15.0" y1="16.620528" y2="43.25386133333333" /><line x1="15.0" x2="15.46730201077038" y1="43.25386133333333" y2="42.148588140529874" /><line x1="15.0" x2="14.532697989229618" y1="43.25386133333333" y2="42.148588140529874" /><line x1="15.0" x2="14.53269798922962" y1="16.620528" y2="17.725801192803463" /><line x1="15.0" x2="15.46730201077038" y1="16.620528" y2="17.725801192803463" /><line x1="34.0" x2="34.0" y1="7.220528" y2="43.25386133333333" /><line x1="34.0" x2="34.46730201077038" y1="43.25386133333333" y2="42.148588140529874" /><line x1="34.0" x2="33.53269798922962" y1="43.25386133333333" y2="42.148588140529874" /><line x1="34.0" x2="33.53269798922962" y1="7.220528" y2="8.32580119280346" /><line x1="34.0" x2="34.46730201077038" y1="7.220528" y2="8.32580119280346" /><line x1="79.00174502019036" x2="79.00174502019036" y1="7.700478442496" y2="62.220528" /><line x1="79.00174502019036" x2="79.46904703096074" y1="62.220528" y2="61.11525480719654" /><line x1="79.00174502019036" x2="78.53444300941997" y1="62.220528" y2="61.11525480719654" /><line x1="79.00174502019036" x2="78.53444300941997" y1="7.700478442496" y2="8.805751635299462" /><line x1="79.00174502019036" x2="79.46904703096074" y1="7.700478442496" y2="8.805751635299462" /></g><g fill="none" id="DOBLEZ" stroke="#c000c0" stroke-width="0.08"><line x1="3.0" x2="3.0" y1="4.220528" y2="49.25386133333333" /><line x1="33.0" x2="33.0" y1="4.220528" y2="45.25386133333333" /></g><g fill="none" id="BOTONES" stroke="#ff8000" stroke-width="0.08" /><g fill="none" id="OJAL" stroke="#ff40a0" stroke-width="0.08" /><g fill="none" id="REFERENCIAS" stroke="#b0b0b0" stroke-width="0.08"><text fill="#000000" font-family="sans-serif" font-size="0.5" stroke="none" text-anchor="start" x="13.433333333333332" y="27.15386133333333">BP</text></g></svg>