<?xml version="1.0" encoding="utf-8" ?>
<svg baseProfile="full" height="156.334959cm" version="1.1" viewBox="0 0 158.0 156.334959" width="158.0cm" xmlns="http://www.w3.org/2000/svg" xmlns:ev="http://www.w3.org/2001/xml-events" xmlns:xlink="http://www.w3.org/1999/xlink"><defs /><rect fill="#f7f3ea" height="148.334959" stroke="#333" stroke-width="0.15" width="150.0" x="4.0" y="4.0" /><text fill="#000" font-family="sans-serif" font-size="1.4" x="4.0" y="3.0">PLANO DE CORTE — ancho 150 cm — largo 1.48 m</text><polygon fill="#cfe3f7" fill-opacity="0.5" points="4.0,74.330346 31.7,74.330346 31.7,26.954639999999998 31.100068,26.268932999999997 30.746677,25.865762 30.390684,25.461115 30.03155,25.055128 29.668433,24.647598 29.300496,24.238326999999998 28.926906,23.827123999999998 28.546843,23.413815 28.160414,22.99919 27.771075,22.585362 27.384597,22.173316 27.005541,21.76258 26.638339,21.352746 26.287416999999998,20.943626 25.957145,20.535252 25.651775999999998,20.127888 25.375339999999998,19.722003 25.131521,19.318219 24.923496,18.917167 24.753785999999998,18.519202 24.623387,18.121567 24.5304,17.716204 24.471646,17.296794 24.445508,16.861875 24.450623999999998,16.411193 24.485547999999998,15.945126 24.54861,15.464501 24.63787,14.970416 24.751132,14.464094000000001 24.885973,13.94679 25.039794999999998,13.419729 25.209865,12.884069 25.393345999999998,12.340886 25.587334,11.791165 25.788868,11.2358 26.320404,9.790896 13.051794000000001,4.0 6.020795,21.730345999999997 4.0,21.730345999999997 4.0,74.330346" stroke="#1f6fb2" stroke-width="0.1" /><text fill="#0a3d62" font-family="sans-serif" font-size="1.6" text-anchor="middle" x="17.85" y="39.165173">01</text><polygon fill="#cfe3f7" fill-opacity="0.5" points="32.7,74.330346 60.400000000000006,74.330346 60.400000000000006,26.954639999999998 59.800068,26.268932999999997 59.446677,25.865762 59.090684,25.461115 58.73155,25.055128 58.368433,24.647598 58.000496,24.238326999999998 57.626906000000005,23.827123999999998 57.246843,23.413815 56.860414000000006,22.99919 56.471075,22.585362 56.084597,22.173316 55.705541000000004,21.76258 55.338339000000005,21.352746 54.987417,20.943626 54.657145,20.535252 54.351776,20.127888 54.07534,19.722003 53.831521,19.318219 53.623496,18.917167 53.453786,18.519202 53.323387000000004,18.121567 53.2304,17.716204 53.171646,17.296794 53.14550800000001,16.861875 53.150624,16.411193 53.185548,15.945126 53.24861,15.464501 53.33787,14.970416 53.451132,14.464094000000001 53.585973,13.94679 53.739795,13.419729 53.909865,12.884069 54.093346,12.340886 54.287334,11.791165 54.488868000000004,11.2358 55.020404,9.790896 41.751794000000004,4.0 34.720795,21.730345999999997 32.7,21.730345999999997 32.7,74.330346" stroke="#1f6fb2" stroke-width="0.1" /><text fill="#0a3d62" font-family="sans-serif" font-size="1.6" text-anchor="middle" x="46.550000000000004" y="39.165173">01</text><polygon fill="#cfe3f7" fill-opacity="0.5" points="61.4,74.267704 69.40722,74.267704 69.001177,17.827772 73.22492199999999,5.262131 70.700661,4.0 70.004548,4.928368 69.808809,5.189983 69.612994,5.452847 69.417382,5.717166 69.222256,5.98315 69.0279,6.251011999999999 68.834603,6.520965 68.642656,6.793221 68.452355,7.067997 68.26399599999999,7.345508 68.077882,7.6259689999999996 67.894319,7.909597 67.713615,8.196606 67.536242,8.486951000000001 67.363303,8.779094 67.195078,9.070626 67.03075,9.360295 66.869275,9.647313 66.709653,9.930903 66.550927,10.210297 66.392184,10.484739000000001 66.232553,10.753489 66.071203,11.015827 65.907341,11.271062 65.740206,11.518545 65.569058,11.757678 65.39316099999999,11.987943000000001 65.210869,12.210004 65.019404,12.426846 64.81765,12.641195 64.606278,12.853889 64.386212,13.065588 64.158442,13.27698 63.924011,13.488792 63.722425,13.667704 61.4,13.667704 61.4,74.267704" stroke="#1f6fb2" stroke-width="0.1" /><text fill="#0a3d62" font-family="sans-serif" font-size="1.6" text-anchor="middle" x="67.312461" y="39.133852">09</text><polygon fill="#cfe3f7" fill-opacity="0.5" points="74.22492199999999,74.267704 82.232142,74.267704 81.826099,17.827772 86.049844,5.262131 83.525583,4.0 82.82946999999999,4.928368 82.633731,5.189983 82.43791599999999,5.452847 82.24230399999999,5.717166 82.04717799999999,5.98315 81.85282199999999,6.251011999999999 81.65952499999999,6.520965 81.46757799999999,6.793221 81.277277,7.067997 81.08891799999999,7.345508 80.90280399999999,7.6259689999999996 80.719241,7.909597 80.53853699999999,8.196606 80.36116399999999,8.486951000000001 80.18822499999999,8.779094 80.02,9.070626 79.855672,9.360295 79.69419699999999,9.647313 79.53457499999999,9.930903 79.37584899999999,10.210297 79.21710599999999,10.484739000000001 79.057475,10.753489 78.896125,11.015827 78.73226299999999,11.271062 78.56512799999999,11.518545 78.39398,11.757678 78.218083,11.987943000000001 78.03579099999999,12.210004 77.844326,12.426846 77.64257199999999,12.641195 77.43119999999999,12.853889 77.21113399999999,13.065588 76.983364,13.27698 76.748933,13.488792 76.54734699999999,13.667704 74.22492199999999,13.667704 74.22492199999999,74.267704" stroke="#1f6fb2" stroke-width="0.1" /><text fill="#0a3d62" font-family="sans-serif" font-size="1.6" text-anchor="middle" x="80.137383" y="39.133852">09</text><polygon fill="#cfe3f7" fill-opacity="0.5" points="91.653381,66.004613 117.48208499999998,66.004613 122.09458599999999,14.559622999999998 121.38824299999999,13.774989999999999 120.96743599999999,13.312847999999999 120.53796,12.851835999999999 120.09776299999999,12.395239 119.647089,11.9474 119.18816699999999,11.51006 118.721992,11.082705 118.24918399999999,10.664458 117.770352,10.254439 117.286091,9.851766999999999 116.79698599999999,9.455561 116.30361299999998,9.064943 115.806533,8.679036 115.30564,8.296466 114.798901,7.915755 114.28382099999999,7.538259 113.75926199999999,7.1668959999999995 113.22424699999999,6.804792 112.67774399999999,6.4551289999999995 112.118687,6.121163 111.545992,5.80625 110.958596,5.513857 110.355505,5.24759 109.73737399999999,5.011762 109.109293,4.809616 108.477002,4.638591 107.84275,4.494111 107.20808099999999,4.371542 106.57441399999999,4.266382 105.94309799999999,4.174272 105.31546599999999,4.0909949999999995 104.59396799999999,4.0 103.85880699999998,4.05394 103.21806099999999,4.104962 102.57349099999999,4.164405 101.926244,4.236438 101.27747099999999,4.325369 100.62836899999999,4.435643 99.98024,4.57184 99.334651,4.738636 98.69578899999999,4.939882 98.06952299999999,5.174805 97.458158,5.439152 96.8611,5.729414 96.27751799999999,6.042254 95.70652999999999,6.374447 95.14723799999999,6.722872 94.59875699999999,7.084489 94.06023599999999,7.456322999999999 93.53085999999999,7.835451 93.009041,8.2196 92.491823,8.609293000000001 91.978595,9.007759 91.471195,9.417183999999999 90.971837,9.839547 90.48279199999999,10.276864 90.006406,10.731176 89.54511799999999,11.204525 89.10147699999999,11.698924 88.678642,12.215724 88.28228899999999,12.750982 87.91251799999999,13.294198000000002 87.56331999999999,13.837394 87.049844,14.659607999999999 91.653381,66.004613" stroke="#1f6fb2" stroke-width="0.1" /><text fill="#0a3d62" font-family="sans-serif" font-size="1.6" text-anchor="middle" x="104.572215" y="35.0023065">04</text><polygon fill="#cfe3f7" fill-opacity="0.5" points="8.603537000000001,137.334959 34.432241,137.334959 39.044742,85.88996900000001 38.338398999999995,85.10533600000001 37.917592,84.64319400000001 37.488116,84.18218200000001 37.047919,83.72558500000001 36.597245,83.27774600000001 36.138323,82.840406 35.672148,82.41305100000001 35.19934,81.994804 34.720508,81.58478500000001 34.236247,81.182113 33.747142,80.78590700000001 33.253769,80.395289 32.756689,80.009382 32.255796000000004,79.626812 31.749057,79.24610100000001 31.233977,78.868605 30.709418,78.497242 30.174402999999998,78.13513800000001 29.6279,77.785475 29.068843,77.451509 28.496148,77.13659600000001 27.908752,76.84420300000001 27.305661,76.57793600000001 26.687530000000002,76.34210800000001 26.059449,76.13996200000001 25.427158,75.96893700000001 24.792906000000002,75.82445700000001 24.158237,75.70188800000001 23.52457,75.596728 22.893254,75.50461800000001 22.265622,75.42134100000001 21.544124,75.330346 20.808963,75.384286 20.168217,75.435308 19.523647,75.49475100000001 18.8764,75.56678400000001 18.227627,75.655715 17.578525,75.765989 16.930396000000002,75.902186 16.284807,76.068982 15.645945000000001,76.270228 15.019679,76.50515100000001 14.408314,76.769498 13.811256,77.05976000000001 13.227674,77.3726 12.656686,77.70479300000001 12.097394,78.053218 11.548913,78.41483500000001 11.010392,78.786669 10.481016,79.16579700000001 9.959197,79.549946 9.441979,79.939639 8.928751,80.33810500000001 8.421351,80.74753000000001 7.9219930000000005,81.169893 7.432948,81.60721000000001 6.956562,82.06152200000001 6.495274,82.53487100000001 6.051633000000001,83.02927000000001 5.628798,83.54607 5.232445000000002,84.08132800000001 4.862674000000002,84.62454400000001 4.513476000000001,85.16774000000001 4.0,85.98995400000001 8.603537000000001,137.334959" stroke="#1f6fb2" stroke-width="0.1" /><text fill="#0a3d62" font-family="sans-serif" font-size="1.6" text-anchor="middle" x="21.522371" y="106.33265250000001">04</text><polygon fill="#cfe3f7" fill-opacity="0.5" points="90.044742,88.02903400000001 89.58962199999999,87.34237100000001 89.301076,86.906756 89.01258899999999,86.47069 88.72411,86.033826 88.435587,85.59581800000001 88.146968,85.156318 87.858202,84.71498 87.56924599999999,84.27147300000001 87.28048799999999,83.82608200000001 86.993721,83.37985800000001 86.711463,82.93339800000001 86.435824,82.48665 86.168871,82.039568 85.912645,81.592151 85.669155,81.144439 85.440362,80.696504 85.228172,80.24844200000001 85.034416,79.800354 84.860837,79.352328 84.709084,78.904402 84.580687,78.456474 84.476635,78.006586 84.396193,77.55080500000001 84.337575,77.08693500000001 84.299384,76.61491000000001 84.248128,75.330346 65.044742,75.330346 65.044742,135.33034600000002 90.044742,135.33034600000002 90.044742,88.02903400000001 40.044742,88.02903400000001 40.499862,87.34237100000001 40.788408000000004,86.906756 41.076895,86.47069 41.365374,86.033826 41.653897,85.59581800000001 41.942516,85.156318 42.231282,84.71498 42.520238,84.27147300000001 42.808996,83.82608200000001 43.095763,83.37985800000001 43.378021000000004,82.93339800000001 43.65366,82.48665 43.920613,82.039568 44.176839,81.592151 44.420328999999995,81.144439 44.649122,80.696504 44.861312,80.24844200000001 45.055068,79.800354 45.228646999999995,79.352328 45.380399999999995,78.904402 45.508797,78.456474 45.612849,78.006586 45.693291,77.55080500000001 45.751909,77.08693500000001 45.790099999999995,76.61491000000001 45.841356000000005,75.330346 65.044742,75.330346 65.044742,135.33034600000002 40.044742,135.33034600000002 40.044742,88.02903400000001" stroke="#1f6fb2" stroke-width="0.1" /><text fill="#0a3d62" font-family="sans-serif" font-size="1.6" text-anchor="middle" x="65.044742" y="105.330346">02</text><polygon fill="#cfe3f7" fill-opacity="0.5" points="91.044742,86.60225100000001 98.044742,91.012251 105.044742,86.60225100000001 105.044742,75.330346 91.044742,75.330346 91.044742,86.60225100000001" stroke="#1f6fb2" stroke-width="0.1" /><text fill="#0a3d62" font-family="sans-serif" font-size="1.6" text-anchor="middle" x="98.044742" y="83.1712985">10</text><polygon fill="#cfe3f7" fill-opacity="0.5" points="106.044742,87.57947300000001 106.074583,87.882453 106.177289,88.221028 106.344074,88.533061 106.568528,88.80656 106.842027,89.031014 107.15406,89.197799 107.49263499999999,89.300505 107.795615,89.330346 129.293869,89.330346 129.596849,89.300505 129.935424,89.197799 130.247457,89.031014 130.520956,88.80656 130.74541,88.533061 130.912195,88.221028 131.014901,87.882453 131.04474199999999,87.57947300000001 131.04474199999999,77.081219 131.014901,76.778239 130.912195,76.43966400000001 130.74541,76.12763100000001 130.520956,75.854132 130.247457,75.62967800000001 129.935424,75.46289300000001 129.596849,75.36018700000001 129.293869,75.330346 107.795615,75.330346 107.49263499999999,75.36018700000001 107.15406,75.46289300000001 106.842027,75.62967800000001 106.568528,75.854132 106.344074,76.12763100000001 106.177289,76.43966400000001 106.074583,76.778239 106.044742,77.081219 106.044742,87.57947300000001" stroke="#1f6fb2" stroke-width="0.1" /><text fill="#0a3d62" font-family="sans-serif" font-size="1.6" text-anchor="middle" x="118.544742" y="82.330346">05</text><polygon fill="#cfe3f7" fill-opacity="0.5" points="4.0,150.58408599999999 4.029841,150.887066 4.132547,151.225641 4.299332,151.537674 4.523786,151.811173 4.7972850000000005,152.035627 5.109318,152.202412 5.4478930000000005,152.305118 5.750873,152.334959 27.249127,152.334959 27.552107,152.305118 27.890682,152.202412 28.202715,152.035627 28.476214,151.811173 28.700668,151.537674 28.867453,151.225641 28.970159,150.887066 29.0,150.58408599999999 29.0,140.085832 28.970159,139.782852 28.867453,139.444277 28.700668,139.132244 28.476214,138.858745 28.202715,138.634291 27.890682,138.467506 27.552107,138.3648 27.249127,138.334959 5.750873,138.334959 5.4478930000000005,138.3648 5.109318,138.467506 4.7972850000000005,138.634291 4.523786,138.858745 4.299332,139.132244 4.132547,139.444277 4.029841,139.782852 4.0,140.085832 4.0,150.58408599999999" stroke="#1f6fb2" stroke-width="0.1" /><text fill="#0a3d62" font-family="sans-serif" font-size="1.6" text-anchor="middle" x="16.5" y="145.334959">05</text><polygon fill="#cfe3f7" fill-opacity="0.5" points="69.109812,149.261023 69.10827,148.77334199999999 69.12286,148.278359 69.152042,147.776508 69.194218,147.268255 69.247736,146.75408 69.310889,146.234464 69.381927,145.709877 69.459058,145.180771 69.540457,144.647574 69.74864600000001,143.313845 56.845692,138.334959 56.206584,138.76907 56.003755,138.905559 55.803425000000004,139.037857 55.605097,139.165156 55.408291,139.286706 55.212533,139.401818 55.016683,139.510236 54.818733,139.61251 54.617676,139.709149 54.4137,139.80006 54.207108000000005,139.885098 53.998204,139.964122 53.787293000000005,140.036999 53.574684000000005,140.1036 53.360684,140.163801 53.145601,140.217487 52.929643999999996,140.264568 52.712165999999996,140.305157 52.492015,140.339744 52.268762,140.368819 52.042410000000004,140.39280399999998 51.81299,140.41213199999999 51.580557,140.42725099999998 51.345178000000004,140.438625 51.106932,140.44673699999998 50.865904,140.452085 50.622182,140.455189 50.375856,140.456581 50.127012,140.456816 49.874323000000004,140.456459 49.874323000000004,150.45646 69.157512,150.45646 69.109812,149.261023 30.638834,149.261023 30.640376,148.77334199999999 30.625786,148.278359 30.596604,147.776508 30.554428,147.268255 30.50091,146.75408 30.437757,146.234464 30.366719,145.709877 30.289588000000002,145.180771 30.208189,144.647574 30.0,143.313845 42.902954,138.334959 43.542062,138.76907 43.744890999999996,138.905559 43.945221000000004,139.037857 44.143549,139.165156 44.340355,139.286706 44.536113,139.401818 44.731963,139.510236 44.929913,139.61251 45.130970000000005,139.709149 45.334946,139.80006 45.541538,139.885098 45.750442,139.964122 45.961353,140.036999 46.173962,140.1036 46.387962,140.163801 46.603045,140.217487 46.819002,140.264568 47.03648,140.305157 47.256631,140.339744 47.479884,140.368819 47.706236000000004,140.39280399999998 47.935656,140.41213199999999 48.168089,140.42725099999998 48.403468000000004,140.438625 48.641714,140.44673699999998 48.882742,140.452085 49.126464,140.455189 49.37279,140.456581 49.621634,140.456816 49.874323000000004,140.456459 49.874323000000004,150.45646 30.591134,150.45646 30.638834,149.261023" stroke="#1f6fb2" stroke-width="0.1" /><text fill="#0a3d62" font-family="sans-serif" font-size="1.6" text-anchor="middle" x="49.874323000000004" y="144.3957095">03</text><polygon fill="#cfe3f7" fill-opacity="0.5" points="70.74864600000001,141.984086 70.770801,142.209029 70.850744,142.472567 70.98056500000001,142.715445 71.155275,142.92833 71.36816,143.10304 71.61103800000001,143.23286099999999 71.874576,143.312804 72.09951900000002,143.334959 83.397773,143.334959 83.62271600000001,143.312804 83.88625400000001,143.23286099999999 84.12913200000001,143.10304 84.34201700000001,142.92833 84.516727,142.715445 84.64654800000001,142.472567 84.72649100000001,142.209029 84.74864600000001,141.984086 84.74864600000001,139.685832 84.72649100000001,139.460889 84.64654800000001,139.197351 84.516727,138.954473 84.34201700000001,138.741588 84.12913200000001,138.566878 83.88625400000001,138.437057 83.62271600000001,138.357114 83.397773,138.334959 72.09951900000002,138.334959 71.874576,138.357114 71.61103800000001,138.437057 71.36816,138.566878 71.155275,138.741588 70.98056500000001,138.954473 70.850744,139.197351 70.770801,139.460889 70.74864600000001,139.685832 70.74864600000001,141.984086" stroke="#1f6fb2" stroke-width="0.1" /><text fill="#0a3d62" font-family="sans-serif" font-size="1.6" text-anchor="middle" x="77.74864600000001" y="140.834959">06</text><polygon fill="#cfe3f7" fill-opacity="0.5" points="85.74864600000001,141.984086 85.770801,142.209029 85.850744,142.472567 85.98056500000001,142.715445 86.155275,142.92833 86.36816,143.10304 86.61103800000001,143.23286099999999 86.874576,143.312804 87.09951900000002,143.334959 98.397773,143.334959 98.62271600000001,143.312804 98.88625400000001,143.23286099999999 99.12913200000001,143.10304 99.34201700000001,142.92833 99.516727,142.715445 99.64654800000001,142.472567 99.72649100000001,142.209029 99.74864600000001,141.984086 99.74864600000001,139.685832 99.72649100000001,139.460889 99.64654800000001,139.197351 99.516727,138.954473 99.34201700000001,138.741588 99.12913200000001,138.566878 98.88625400000001,138.437057 98.62271600000001,138.357114 98.397773,138.334959 87.09951900000002,138.334959 86.874576,138.357114 86.61103800000001,138.437057 86.36816,138.566878 86.155275,138.741588 85.98056500000001,138.954473 85.850744,139.197351 85.770801,139.460889 85.74864600000001,139.685832 85.74864600000001,141.984086" stroke="#1f6fb2" stroke-width="0.1" /><text fill="#0a3d62" font-family="sans-serif" font-size="1.6" text-anchor="middle" x="92.74864600000001" y="140.834959">06</text></svg>