<?xml version="1.0" encoding="utf-8" ?>
<svg baseProfile="full" height="151.4310750876077cm" version="1.1" viewBox="0 0 149.6838208828732 151.4310750876077" width="149.6838208828732cm" xmlns="http://www.w3.org/2000/svg" xmlns:ev="http://www.w3.org/2001/xml-events" xmlns:xlink="http://www.w3.org/1999/xlink"><defs /><g fill="none" id="CONSTRUCCION" stroke="#888888" stroke-width="0.08"><line x1="5.7" x2="5.7" y1="9.055314000000001" y2="67.655314" /><line x1="86.31488805179575" x2="86.31488805179575" y1="73.43107508760771" y2="61.43107508760771" /><line x1="104.6838208828732" x2="127.6838208828732" y1="10.521075087607711" y2="10.521075087607711" /><line x1="73.02816000466241" x2="85.02816000466241" y1="86.65107508760771" y2="86.65107508760771" /></g><g fill="none" id="CORTE" stroke="#d00000" stroke-width="0.08"><polygon points="3.0,68.655314 30.7,68.655314 30.7,21.279608 30.100068,20.593901 29.746677,20.190730000000002 29.390684,19.786083 29.03155,19.380096 28.668433,18.972566 28.300496,18.563294999999997 27.926906,18.152091999999996 27.546843,17.738782999999998 27.160414,17.324157999999997 26.771075,16.910330000000002 26.384597,16.498283999999998 26.005541,16.087547999999998 25.638339,15.677714 25.287416999999998,15.268593999999998 24.957145,14.86022 24.651775999999998,14.452855999999999 24.375339999999998,14.046971000000001 24.131521,13.643187 23.923496,13.242135 23.626594,12.545906 22.111670999999998,11.762751 20.924601,11.141383000000001 19.749618,10.510957000000001 18.590453,9.865882000000001 17.450789,9.200634 16.334198,8.509717 15.242177,7.786518000000001 14.170435999999999,7.027474 13.112064,6.23686 12.062451,5.421323000000001 11.017125,4.587759999999999 9.051518,3.0 8.469275,4.034923000000001 8.309653,4.318512999999999 8.150927,4.597906999999999 7.992184,4.872349 7.832553,5.1410990000000005 7.671203,5.403437 7.507341,5.658672000000001 7.340206,5.906155 7.169058,6.145288000000001 6.993161,6.375553 6.810869,6.597614 6.619404,6.814456 6.41765,7.028805 6.206278,7.241499000000001 5.986212,7.453198 5.7584420000000005,7.6645900000000005 5.524011,7.876402000000001 5.322425,8.055314000000001 3.0,8.055314000000001 3.0,68.655314" /><polygon points="60.7,24.546310238788777 60.244879999999995,23.85964723878878 59.956334,23.424032238788776 59.667846999999995,22.98796623878878 59.379368,22.55110223878878 59.090845,22.113094238788776 58.802226000000005,21.67359423878878 58.513459999999995,21.23225623878878 58.224503999999996,20.788749238788782 57.935745999999995,20.343358238788777 57.648979,19.897134238788777 57.366721,19.45067423878878 57.091082,19.003926238788775 56.824129,18.556844238788777 56.567903,18.109427238788776 56.324413,17.661715238788776 56.09562,17.21378023878878 55.883430000000004,16.76571823878878 55.689674,16.317630238788777 55.516095,15.869604238788776 55.277345,15.164889238788776 53.634431,14.151041238788777 52.306815,13.322730238788777 50.992736,12.484788238788777 49.696821,11.631209238788777 48.423647,10.756044238788776 47.177641,9.853328238788777 45.960916999999995,8.915815238788777 44.768967,7.940763238788778 43.594530999999996,6.933150238788777 42.432187,5.899947238788777 41.276545999999996,4.848296238788777 39.711435,3.407252238788777 39.186361,3.554963238788777 38.971278,3.608649238788777 38.755321,3.6557302387887773 38.537843,3.696319238788777 38.317692,3.7309062387887773 38.094439,3.759981238788777 37.868087,3.783966238788777 37.638667,3.803294238788777 37.406234,3.818413238788777 37.170854999999996,3.829787238788777 36.932609,3.837899238788777 36.691581,3.843247238788777 36.447859,3.846351238788777 36.201533,3.847743238788777 35.952689,3.847978238788777 35.7,3.847621238788777 35.7,71.84762223878877 60.7,71.84762223878877 60.7,24.546310238788777" /><polygon points="69.27755844143661,74.43107508760771 95.1062624414366,74.43107508760771 99.70415044143661,23.149067087607712 99.17385644143661,22.029832087607716 98.7558984414366,21.157706087607714 98.3311464414366,20.291418087607713 97.8972664414366,19.43633408760771 97.4534164414366,18.598325087607712 97.0008274414366,17.77884608760771 96.54032344143661,16.97674908760771 96.0725354414366,16.19051708760771 95.5980934414366,15.418623087607711 95.11762244143661,14.659533087607711 94.6317404414366,13.911702087607711 94.1410584414366,13.173576087607712 93.64617644143661,12.443594087607712 93.14722244143661,11.719525087607712 92.6428254414366,10.999518087607711 92.1309294414366,10.28671008760771 91.61027644143661,9.58637408760771 91.0795984414366,8.90395308760771 90.5374274414366,8.244859087607711 89.98205144143661,7.614503087607712 89.41145844143661,7.018363087607712 88.8232884414366,6.462085087607711 88.2148214414366,5.951667087607712 87.5850584414366,5.495164087607712 86.9396434414366,5.100486087607711 86.2870954414366,4.765127087607711 85.6321464414366,4.481658087607711 84.97833044143661,4.241751087607712 84.3285474414366,4.036866087607711 83.6851474414366,3.858507087607711 83.05006144143661,3.6984020876077115 82.2410874414366,3.5045490876077108 81.4154244414366,3.619652087607712 80.7667324414366,3.717797087607711 80.10910544143661,3.833025087607711 79.4440674414366,3.973651087607712 78.77349544143661,4.1482960876077115 78.0998054414366,4.365753087607711 77.4261104414366,4.6347360876077115 76.7563874414366,4.963495087607711 76.0981884414366,5.35743708760771 75.4596694414366,5.812523087607712 74.8423814414366,6.319648087607712 74.24383844143661,6.872518087607711 73.66163744143661,7.465506087607711 73.0936984414366,8.09330208760771 72.5382554414366,8.750754087607712 71.99380444143661,9.432779087607711 71.4590654414366,10.134301087607712 70.93293744143661,10.85022608760771 70.4138794414366,11.57624608760771 69.8997384414366,12.312259087607712 69.3907184414366,13.063136087607711 68.8889304414366,13.83243908760771 68.3967704414366,14.62336108760771 67.9166774414366,15.439055087607711 67.4511204414366,16.28262608760771 67.00258344143661,17.157127087607712 66.57355044143661,18.065555087607713 66.1667024414366,19.010350087607712 65.78519044143661,19.989259087607714 65.4263534414366,20.990849087607714 65.08357444143661,22.003953087607712 64.6855684414366,23.214853087607715 69.27755844143661,74.43107508760771" /><polygon points="103.6838208828732,15.77020208760771 103.71366188287321,16.073182087607712 103.81636788287321,16.41175708760771 103.98315288287321,16.72379008760771 104.20760688287321,16.99728908760771 104.48110588287321,17.221743087607713 104.79313888287321,17.38852808760771 105.1317138828732,17.49123408760771 105.4346938828732,17.521075087607713 126.93294788287321,17.521075087607713 127.2359278828732,17.49123408760771 127.5745028828732,17.38852808760771 127.8865358828732,17.221743087607713 128.16003488287322,16.99728908760771 128.3844888828732,16.72379008760771 128.5512738828732,16.41175708760771 128.65397988287322,16.073182087607712 128.6838208828732,15.77020208760771 128.6838208828732,5.271948087607711 128.65397988287322,4.968968087607712 128.5512738828732,4.630393087607711 128.3844888828732,4.3183600876077115 128.16003488287322,4.044861087607711 127.8865358828732,3.8204070876077116 127.5745028828732,3.6536220876077117 127.2359278828732,3.5509160876077113 126.93294788287321,3.5210750876077115 105.4346938828732,3.5210750876077115 105.1317138828732,3.5509160876077113 104.79313888287321,3.6536220876077117 104.48110588287321,3.8204070876077116 104.20760688287321,4.044861087607711 103.98315288287321,4.3183600876077115 103.81636788287321,4.630393087607711 103.71366188287321,4.968968087607712 103.6838208828732,5.271948087607711 103.6838208828732,15.77020208760771" /><polygon points="132.6838208828732,7.170202087607711 132.7059758828732,7.395145087607712 132.7859188828732,7.658683087607711 132.9157398828732,7.901561087607711 133.0904498828732,8.11444608760771 133.3033348828732,8.289156087607711 133.5462128828732,8.418977087607711 133.8097508828732,8.498920087607711 134.0346938828732,8.521075087607711 145.33294788287319,8.521075087607711 145.55789088287318,8.498920087607711 145.8214288828732,8.418977087607711 146.06430688287318,8.289156087607711 146.27719188287318,8.11444608760771 146.4519018828732,7.901561087607711 146.58172288287318,7.658683087607711 146.6616658828732,7.395145087607712 146.6838208828732,7.170202087607711 146.6838208828732,4.871948087607711 146.6616658828732,4.647005087607711 146.58172288287318,4.383467087607712 146.4519018828732,4.140589087607712 146.27719188287318,3.9277040876077116 146.06430688287318,3.7529940876077115 145.8214288828732,3.6231730876077117 145.55789088287318,3.5432300876077116 145.33294788287319,3.5210750876077115 134.0346938828732,3.5210750876077115 133.8097508828732,3.5432300876077116 133.5462128828732,3.6231730876077117 133.3033348828732,3.7529940876077115 133.0904498828732,3.9277040876077116 132.9157398828732,4.140589087607712 132.7859188828732,4.383467087607712 132.7059758828732,4.647005087607711 132.6838208828732,4.871948087607711 132.6838208828732,7.170202087607711" /><polygon points="4.77951,85.10407108760771 5.271,85.19336808760771 5.762543,85.27757108760771 6.254136,85.3566790876077 6.745777,85.43069008760772 7.237462,85.49960308760771 7.729189,85.5634170876077 8.220955,85.62213008760772 8.712755999999999,85.6757420876077 9.20459,85.72425108760771 9.696454,85.7676570876077 10.188344,85.8059580876077 10.680257000000001,85.83915408760771 11.17219,85.86724408760772 11.66414,85.89022708760771 12.156103,85.90810408760771 12.648077,85.92087308760772 13.140057,85.92853508760771 13.63204,85.9310880876077 14.124023,85.92853508760771 14.616003,85.92087308760772 15.107977,85.90810408760771 15.59994,85.89022708760771 16.09189,85.86724408760772 16.583823000000002,85.83915408760771 17.075736,85.8059580876077 17.567626,85.7676570876077 18.05949,85.72425108760771 18.551324,85.6757420876077 19.043125,85.62213008760772 19.534891000000002,85.5634170876077 20.026618,85.49960308760771 20.518303,85.43069008760772 21.009944,85.3566790876077 21.501537,85.27757108760771 21.99308,85.19336808760771 22.48457,85.10407108760771 22.768919,85.0494570876077 24.820641,88.46899408760771 25.875859,88.07001108760771 24.062767,78.24909408760772 22.588951,78.54746708760771 22.117182,78.63807908760771 21.645468,78.72378208760772 21.173807,78.8045790876077 20.702196,78.8804710876077 20.230633,78.95146008760771 19.759114,79.01754708760771 19.287637,79.07873308760772 18.816198999999997,79.13502008760771 18.344796000000002,79.1864080876077 17.873426000000002,79.2328990876077 17.402086,79.27449308760771 16.930771999999997,79.31119208760771 16.459481,79.34299608760772 15.98821,79.3699060876077 15.516956,79.39192308760771 15.045715,79.4090460876077 14.574485,79.4212770876077 14.103261,79.42861508760771 13.63204,79.43106208760771 13.160819,79.42861508760771 12.689595,79.4212770876077 12.218365,79.4090460876077 11.747124000000001,79.39192308760771 11.275870000000001,79.3699060876077 10.804599,79.34299608760772 10.333307999999999,79.31119208760771 9.861994,79.27449308760771 9.390654,79.2328990876077 8.919284000000001,79.1864080876077 8.447880999999999,79.13502008760771 7.976443000000001,79.07873308760772 7.5049660000000005,79.01754708760771 7.033447,78.95146008760771 6.561884,78.8804710876077 6.090273,78.8045790876077 5.618612000000001,78.72378208760772 5.146898,78.63807908760771 4.675129,78.54746708760771 4.0,78.41078808760771 4.0,84.9513620876077 4.288075,85.00968308760771 4.77951,85.10407108760771" /><polygon points="31.376185002331205,83.57377708760771 31.907720002331203,83.64477008760771 32.439276002331205,83.71170908760772 32.970852002331206,83.77459308760771 33.50244800233121,83.83342208760772 34.034062002331204,83.88819608760771 34.5656930023312,83.93891508760771 35.09734000233121,83.98557708760771 35.62900100233121,84.0281820876077 36.1606750023312,84.0667310876077 36.692361002331204,84.1012230876077 37.224058002331205,84.1316580876077 37.755764002331205,84.15803508760771 38.287478002331206,84.18035508760771 38.819198002331206,84.19861708760772 39.350924002331205,84.21282008760771 39.88265400233121,84.2229660876077 40.414386002331206,84.22905308760771 40.946120002331206,84.2310820876077 41.477854002331206,84.22905308760771 42.009586002331204,84.2229660876077 42.5413160023312,84.21282008760771 43.073042002331206,84.19861708760772 43.604762002331206,84.18035508760771 44.13647600233121,84.15803508760771 44.66818200233121,84.1316580876077 45.1998790023312,84.1012230876077 45.73156500233121,84.0667310876077 46.263239002331204,84.0281820876077 46.794900002331204,83.98557708760771 47.3265470023312,83.93891508760771 47.8581780023312,83.88819608760771 48.389792002331205,83.83342208760772 48.921388002331206,83.77459308760771 49.4529640023312,83.71170908760772 49.98452000233121,83.64477008760771 50.5160550023312,83.57377708760771 51.04756600233121,83.49873108760771 52.428160002331204,83.29326308760771 52.428160002331204,78.2712350876077 50.7605500023312,78.51941908760772 50.243857002331204,78.59237308760771 49.727188002331204,78.66138008760771 49.2105400023312,78.72644108760771 48.6939120023312,78.78755708760771 48.177304002331205,78.8447280876077 47.660714002331204,78.89795408760772 47.1441410023312,78.94723508760771 46.627584002331204,78.99257308760771 46.111041002331206,79.0339680876077 45.5945110023312,79.07141908760771 45.077993002331205,79.1049270876077 44.56148600233121,79.13449208760771 44.04498800233121,79.1601150876077 43.528498002331204,79.18179508760771 43.012014002331206,79.1995330876077 42.49553600233121,79.21333008760772 41.979062002331204,79.2231840876077 41.462590002331204,79.22909708760771 40.946120002331206,79.23106808760771 40.4296500023312,79.22909708760771 39.91317800233121,79.2231840876077 39.396704002331205,79.21333008760772 38.880226002331206,79.1995330876077 38.36374200233121,79.18179508760771 37.8472520023312,79.1601150876077 37.330754002331204,79.13449208760771 36.81424700233121,79.1049270876077 36.2977290023312,79.07141908760771 35.781199002331206,79.0339680876077 35.26465600233121,78.99257308760771 34.7480990023312,78.94723508760771 34.23152600233121,78.89795408760772 33.7149360023312,78.8447280876077 33.19832800233121,78.78755708760771 32.681700002331205,78.72644108760771 32.16505200233121,78.66138008760771 31.648383002331204,78.59237308760771 31.131690002331204,78.51941908760772 30.464080002331205,78.4200610876077 30.464080002331205,83.44208908760771 30.844674002331203,83.49873108760771 31.376185002331205,83.57377708760771" /><polygon points="56.42816000466241,148.4310750876077 64.43538000466242,148.4310750876077 64.02933700466241,91.99114308760771 68.25308200466242,79.42550208760771 65.72882100466242,78.16337108760771 65.03270800466241,79.0917390876077 64.83696900466242,79.35335408760771 64.64115400466241,79.6162180876077 64.44554200466241,79.8805370876077 64.25041600466241,80.14652108760771 64.05606000466241,80.4143830876077 63.86276300466241,80.6843360876077 63.67081600466241,80.9565920876077 63.480515004662415,81.2313680876077 63.29215600466241,81.50887908760771 63.10604200466241,81.78934008760771 62.922479004662414,82.0729680876077 62.741775004662415,82.3599770876077 62.56440200466241,82.6503220876077 62.39146300466241,82.94246508760772 62.22323800466241,83.2339970876077 62.058910004662415,83.52366608760771 61.89743500466241,83.81068408760771 61.737813004662414,84.09427408760772 61.57908700466241,84.37366808760771 61.42034400466241,84.6481100876077 61.26071300466241,84.9168600876077 61.099363004662415,85.1791980876077 60.93550100466241,85.43443308760772 60.76836600466241,85.6819160876077 60.59721800466241,85.92104908760771 60.42132100466241,86.15131408760772 60.23902900466241,86.37337508760771 60.04756400466241,86.59021708760771 59.84581000466241,86.80456608760771 59.634438004662414,87.01726008760771 59.41437200466241,87.2289590876077 59.18660200466241,87.44035108760771 58.95217100466241,87.6521630876077 58.75058500466241,87.83107508760772 56.42816000466241,87.83107508760772 56.42816000466241,148.4310750876077" /><polygon points="72.02816000466241,89.70298008760771 79.02816000466241,94.11298008760771 86.02816000466241,89.70298008760771 86.02816000466241,78.43107508760771 72.02816000466241,78.43107508760771 72.02816000466241,89.70298008760771" /></g><g fill="none" id="COSTURA" stroke="#00a000" stroke-width="0.08"><polygon points="4.0,9.055314000000001 5.7,9.055314000000001 5.946137211430921,8.838803070671316 6.1911230351686255,8.621372943868007 6.433806083519894,8.40210442211545 6.673034968791513,8.180078307939018 6.907658303290262,7.954375403864091 7.136524699322925,7.72407651241604 7.358482769196286,7.488262436120248 7.5723811252171265,7.246013977502084 7.777197617466955,6.9965141911635484 7.973182834463885,6.739953113979523 8.161311146615965,6.477093434291723 8.342565282091677,6.208704453046895 8.517927969059487,5.935555471191783 8.688381935687879,5.658415789673127 8.854909910145325,5.378054709437675 9.018494620600304,5.095241531432171 9.180118795221286,4.810745556603356 9.340765162176753,4.525336085897976 9.343162381836555,4.521075087607711 10.391199439309874,5.367649134727548 11.443918148567574,6.207107027477665 12.506000161394033,7.032332611488341 13.58212712957363,7.836209732389854 14.676980704890749,8.611622235812485 15.794900596354585,9.35197372359348 16.93554962600838,10.057776709371373 18.09520270240375,10.734693366885041 19.27005901619237,11.388500961787333 20.456317758025932,12.024976759731091 21.650178118556124,12.649898026369156 22.847839288434628,13.269042027354379 23.018439554671197,13.669095637281663 23.25874127090857,14.132374994669332 23.533433110351083,14.587286021226559 23.838027256764505,15.03451504562056 24.168035893914595,15.474748396518548 24.518971205567123,15.908672402587746 24.886345375487853,16.336973392495352 25.265670587442546,16.7603376949086 25.652459025196965,17.17945163849469 26.04222287251688,17.595001551920845 26.43047431316805,18.007673763854278 26.813017247128172,18.418129540544655 27.188779993915375,18.82676171781536 27.558586779631288,19.23380024715056 27.923288455857527,19.639472792541028 28.283735874175697,20.044007017977552 28.64077988616742,20.44763058745092 28.9952713434143,20.850571164951933 29.348061097497954,21.253056414471356 29.7,21.655314 29.7,67.655314 4.0,67.655314" /><polygon points="35.7,4.847622238788777 35.952454309213415,4.847978601607847 36.20483086291524,4.84774082833774 36.45705190559388,4.84631478288927 36.70903968173775,4.843106329173263 36.96071643583526,4.837521331100534 37.21200441237482,4.828965652581908 37.462825855844834,4.816845157528202 37.71310301073372,4.800565709850237 37.96275812152987,4.779533173458833 38.21171343272172,4.75315341226481 38.45989118879767,4.72083229017899 38.707213634246116,4.68197567111219 38.9536025734372,4.635991055695479 39.198919757749145,4.582509270767692 39.442906458460016,4.5216091868543575 39.44480503977902,4.521075087607711 40.60134270660234,5.585933491690202 41.763456926001396,6.643476202360095 42.93672425055194,7.686387526204792 44.12672123282971,8.707351769811694 45.33902442541043,9.699053239768203 46.578985629125334,10.654471086982568 47.84697799098426,11.573115792332583 49.13849966518439,12.460893177244092 50.44884478925749,13.323976705804805 51.773307500735314,14.168539842102415 53.10718193714962,15.000756050224629 54.44576223603216,15.826798794259137 54.57586886747531,16.210831558873014 54.76416637745514,16.696849268570325 54.97234381929262,17.17828651462539 55.19825228550965,17.65531655131835 55.4397428686282,18.12811263292932 55.69466666117018,18.596848013738438 55.960874755657535,19.06169594802582 56.236218244612196,19.522829690071617 56.5185482205561,19.980422494155945 56.80571577601117,20.434647614558937 57.095572003499356,20.885678305560724 57.386030449882966,21.333692677782246 57.676130805337365,21.7789564087887 57.965889496115864,22.221811125442898 58.255355331457864,22.662600972652314 58.54457712060278,23.101670095324394 58.83360367279005,23.53936263836662 59.12248379725906,23.976022746686446 59.411266303249235,24.411994565191343 59.7,24.84762223878878 59.7,70.84762223878877 35.7,70.84762223878877" /><polygon points="65.7,23.331075087607715 66.03221650091204,22.32033396056886 66.37075607201051,21.3197618182941 66.72194178348187,20.33952764554751 67.09208681061361,19.389784633694088 67.48516849175336,18.476957709133963 67.8998305088204,17.598958667895523 68.33397555519247,16.75251660289481 68.78550632424731,15.934360607047877 69.25232550936269,15.141219773270752 69.73233580391634,14.36982319447948 70.22343990128603,13.616899963590106 70.72354049484947,12.879179173518672 71.23054027798445,12.153389917181215 71.74261629321225,11.437135987946895 72.25967877560967,10.733547073283775 72.78231288447964,10.047904704543125 73.3111053003662,9.38549526321086 73.84664270381344,8.751605130772896 74.38951177536539,8.151520688715157 74.94029919556615,7.590528318523555 75.49959164495975,7.073914401684016 76.06797580409027,6.606965319682454 76.64603835350175,6.194967454004789 77.23431782143139,5.842873221704442 77.83243435229717,5.5492655105038065 78.43918390181689,5.307010977078585 79.05333318161144,5.108773453175154 79.67364890330165,4.947216770539878 80.29889777850842,4.815004760919127 80.92784651885259,4.704801256059271 81.55926183595503,4.609270087706676 82.1919104414366,4.521075087607711 82.81131162690669,4.669500911597835 83.4293173909157,4.825300001424289 84.0445323120026,4.9958456229234045 84.65556096870634,5.188511041931514 85.26100793956584,5.41066952428495 85.85947780312007,5.66969433582004 86.44957513790796,5.97295874237312 87.02990452246846,6.327836009780519 87.59925964684763,6.740550588691862 88.15779188021564,7.209079296283699 88.70624581047083,7.727795262710689 89.24536851109733,8.291056518682916 89.77590705557927,8.893221094910462 90.29860851740077,9.528647022103412 90.81421997004598,10.191692330971845 91.32348848699905,10.876715052225842 91.82716114174409,11.57807321657549 92.32598500776524,12.290124854730868 92.82059054687547,13.00788417317588 93.3107914450398,13.73096138939964 93.79605222342715,14.460931476888366 94.27583608789013,15.199376810434929 94.74960624428125,15.947879764832198 95.2168258984531,16.708022714873042 95.67695825625823,17.481388035350335 96.12946652354921,18.269558101056937 96.5738139061786,19.074115286785727 97.00946360999896,19.896641967329575 97.43628060163424,20.737806931217506 97.85604533602218,21.59392323108625 98.27110850164017,22.46000723366859 98.6838208828732,23.331075087607715 94.1919104414366,73.43107508760771 70.1919104414366,73.43107508760771" /><polygon points="104.6838208828732,5.321075087607712 104.69919265855063,5.165002829994808 104.74471725686418,5.01492834171564 104.81864519303117,4.87661890119203 104.91813545792397,4.755389662658473 105.03936469645753,4.655899397765675 105.17767413698114,4.581971461598682 105.3277486252603,4.536446863285127 105.4838208828732,4.521075087607711 126.88382088287321,4.521075087607711 127.0398931404861,4.536446863285127 127.18996762876527,4.581971461598682 127.32827706928889,4.655899397765675 127.44950630782245,4.755389662658473 127.54899657271524,4.87661890119203 127.62292450888224,5.01492834171564 127.66844910719578,5.165002829994809 127.6838208828732,5.321075087607712 127.6838208828732,15.72107508760771 127.66844910719578,15.877147345220614 127.62292450888224,16.02722183349978 127.54899657271524,16.165531274023394 127.44950630782245,16.28676051255695 127.32827706928889,16.386250777449746 127.18996762876527,16.46017871361674 127.0398931404861,16.505703311930297 126.88382088287321,16.521075087607713 105.4838208828732,16.521075087607713 105.3277486252603,16.505703311930297 105.17767413698114,16.46017871361674 105.03936469645753,16.386250777449746 104.91813545792397,16.28676051255695 104.81864519303117,16.165531274023394 104.74471725686418,16.02722183349978 104.69919265855063,15.877147345220614 104.6838208828732,15.72107508760771" /><polygon points="133.6838208828732,4.921075087607711 133.6915067707119,4.843038958801261 133.71426906986866,4.7680017146616755 133.75123303795218,4.6988469943998705 133.80097817039857,4.638232375133093 133.86159278966534,4.588487242686694 133.93074750992716,4.551523274603197 134.00578475406675,4.528760975446419 134.0838208828732,4.521075087607711 145.2838208828732,4.521075087607711 145.36185701167963,4.528760975446419 145.43689425581923,4.551523274603197 145.50604897608105,4.588487242686694 145.56666359534782,4.638232375133093 145.6164087277942,4.6988469943998705 145.6533726958777,4.7680017146616755 145.6761349950345,4.843038958801261 145.6838208828732,4.921075087607711 145.6838208828732,7.121075087607712 145.6761349950345,7.199111216414163 145.6533726958777,7.274148460553747 145.6164087277942,7.3433031808155524 145.56666359534782,7.403917800082331 145.50604897608105,7.453662932528729 145.43689425581923,7.490626900612226 145.36185701167963,7.513389199769003 145.2838208828732,7.521075087607711 134.0838208828732,7.521075087607711 134.00578475406675,7.513389199769003 133.93074750992716,7.490626900612226 133.86159278966534,7.453662932528729 133.80097817039857,7.403917800082331 133.75123303795218,7.3433031808155524 133.71426906986866,7.274148460553747 133.6915067707119,7.199111216414163 133.6838208828732,7.121075087607712" /><polygon points="4.0,79.43107508760771 4.48160200005828,79.5285750876077 4.96320400011656,79.62107508760771 5.44480600017484,79.70857508760771 5.9264080002331205,79.79107508760771 6.408010000291401,79.86857508760771 6.889612000349681,79.94107508760771 7.371214000407961,80.00857508760771 7.852816000466241,80.07107508760771 8.334418000524522,80.12857508760771 8.816020000582801,80.18107508760771 9.29762200064108,80.22857508760771 9.779224000699362,80.27107508760771 10.260826000757643,80.30857508760771 10.742428000815922,80.3410750876077 11.224030000874203,80.36857508760771 11.705632000932482,80.3910750876077 12.187234000990761,80.40857508760772 12.668836001049042,80.4210750876077 13.150438001107322,80.42857508760771 13.632040001165603,80.43107508760771 14.113642001223884,80.42857508760771 14.595244001282163,80.4210750876077 15.076846001340442,80.40857508760772 15.558448001398723,80.3910750876077 16.040050001457004,80.36857508760771 16.521652001515285,80.3410750876077 17.003254001573566,80.30857508760771 17.484856001631844,80.27107508760771 17.96645800169012,80.22857508760771 18.448060001748402,80.18107508760771 18.929662001806683,80.12857508760771 19.411264001864964,80.07107508760771 19.892866001923245,80.00857508760771 20.374468001981523,79.94107508760771 20.856070002039804,79.86857508760771 21.337672002098085,79.79107508760771 21.819274002156366,79.70857508760771 22.300876002214643,79.62107508760771 22.782478002272924,79.5285750876077 23.264080002331205,79.43107508760771 24.464080002331205,85.93107508760771 23.264080002331205,83.93107508760771 22.782478002272924,84.0285750876077 22.300876002214643,84.12107508760771 21.819274002156366,84.20857508760771 21.337672002098085,84.29107508760771 20.856070002039804,84.36857508760771 20.374468001981523,84.44107508760771 19.892866001923245,84.50857508760771 19.411264001864964,84.57107508760771 18.929662001806683,84.62857508760771 18.448060001748402,84.68107508760771 17.96645800169012,84.72857508760771 17.484856001631844,84.77107508760771 17.003254001573566,84.80857508760771 16.521652001515285,84.8410750876077 16.040050001457004,84.86857508760771 15.558448001398723,84.8910750876077 15.076846001340442,84.90857508760772 14.595244001282163,84.9210750876077 14.113642001223884,84.92857508760771 13.632040001165603,84.93107508760771 13.150438001107322,84.92857508760771 12.668836001049042,84.9210750876077 12.187234000990761,84.90857508760772 11.705632000932482,84.8910750876077 11.224030000874203,84.86857508760771 10.742428000815922,84.8410750876077 10.260826000757643,84.80857508760771 9.779224000699362,84.77107508760771 9.29762200064108,84.72857508760771 8.816020000582801,84.68107508760771 8.334418000524522,84.62857508760771 7.852816000466241,84.57107508760771 7.371214000407961,84.50857508760771 6.889612000349681,84.44107508760771 6.408010000291401,84.36857508760771 5.9264080002331205,84.29107508760771 5.44480600017484,84.20857508760771 4.96320400011656,84.12107508760771 4.48160200005828,84.0285750876077 4.0,83.93107508760771" /><polygon points="30.464080002331205,79.43107508760771 30.988182002389486,79.50907508760771 31.512284002447764,79.58307508760771 32.03638600250605,79.6530750876077 32.56048800256433,79.7190750876077 33.084590002622605,79.7810750876077 33.60869200268088,79.83907508760771 34.13279400273916,79.89307508760771 34.656896002797446,79.94307508760771 35.18099800285573,79.98907508760772 35.70510000291401,80.0310750876077 36.229202002972286,80.06907508760771 36.753304003030564,80.1030750876077 37.27740600308885,80.13307508760771 37.80150800314713,80.1590750876077 38.325610003205405,80.18107508760771 38.84971200326369,80.19907508760771 39.37381400332197,80.2130750876077 39.897916003380246,80.22307508760771 40.422018003438524,80.22907508760771 40.94612000349681,80.2310750876077 41.47022200355509,80.22907508760771 41.99432400361337,80.22307508760771 42.51842600367165,80.2130750876077 43.04252800372993,80.19907508760771 43.566630003788205,80.18107508760771 44.09073200384649,80.1590750876077 44.61483400390477,80.13307508760771 45.138936003963046,80.1030750876077 45.66303800402133,80.06907508760771 46.18714000407961,80.0310750876077 46.71124200413789,79.98907508760772 47.235344004196165,79.94307508760771 47.75944600425444,79.89307508760771 48.28354800431273,79.83907508760771 48.80765000437101,79.7810750876077 49.33175200442929,79.7190750876077 49.85585400448757,79.6530750876077 50.379956004545846,79.58307508760771 50.904058004604124,79.50907508760771 51.42816000466241,79.43107508760771 51.42816000466241,82.43107508760771 50.904058004604124,82.50907508760771 50.379956004545846,82.58307508760771 49.85585400448757,82.6530750876077 49.33175200442929,82.7190750876077 48.80765000437101,82.7810750876077 48.28354800431273,82.83907508760771 47.75944600425444,82.89307508760771 47.235344004196165,82.94307508760771 46.71124200413789,82.9890750876077 46.18714000407961,83.0310750876077 45.66303800402133,83.06907508760771 45.138936003963046,83.1030750876077 44.61483400390477,83.13307508760771 44.09073200384649,83.1590750876077 43.566630003788205,83.18107508760771 43.04252800372993,83.19907508760771 42.51842600367165,83.2130750876077 41.99432400361337,83.22307508760771 41.47022200355509,83.22907508760771 40.94612000349681,83.2310750876077 40.422018003438524,83.22907508760771 39.897916003380246,83.22307508760771 39.37381400332197,83.2130750876077 38.84971200326369,83.19907508760771 38.325610003205405,83.18107508760771 37.80150800314713,83.1590750876077 37.27740600308885,83.13307508760771 36.753304003030564,83.1030750876077 36.229202002972286,83.06907508760771 35.70510000291401,83.0310750876077 35.18099800285573,82.9890750876077 34.656896002797446,82.94307508760771 34.13279400273916,82.89307508760771 33.60869200268088,82.83907508760771 33.084590002622605,82.7810750876077 32.56048800256433,82.7190750876077 32.03638600250605,82.6530750876077 31.512284002447764,82.58307508760771 30.988182002389486,82.50907508760771 30.464080002331205,82.43107508760771" /><polygon points="57.42816000466241,88.83107508760772 59.12816000466241,88.83107508760772 59.37429721609333,88.61456415827902 59.61928303983104,88.39713403147572 59.86196608818231,88.17786550972316 60.10119497345392,87.95583939554673 60.33581830795267,87.7301364914718 60.564684703985336,87.49983760002375 60.786642773858695,87.26402352372796 61.00054112987954,87.0217750651098 61.20535762212937,86.77227527877126 61.4013428391263,86.51571420158723 61.58947115127838,86.25285452189944 61.770725286754086,85.98446554065461 61.9460879737219,85.7113165587995 62.11654194035029,85.43417687728083 62.28306991480774,85.15381579704538 62.44665462526272,84.87100261903988 62.6082787998837,84.58650664421107 62.76892516683917,84.30109717350568 62.92957645429759,84.01554350787049 63.09121539042744,83.73061494825221 63.25482470339721,83.4470807955976 63.42138696606422,83.16571023057196 63.59161393668012,82.88706270020674 63.76539004142262,82.61105692035183 63.942442269974286,82.33748967942948 64.12249761201768,82.06615776586202 64.30528305723539,81.7968579680717 64.49052559530998,81.52938707448082 64.677952215924,81.26354187351167 64.86728990876003,80.99911915358652 65.05826566350063,80.73591570312766 65.25060646982843,80.47372831055738 65.4440393174259,80.21235376429796 65.6382911959757,79.95158885277168 65.83308909516035,79.69123036440084 66.02816000466241,79.43107508760771 67.02816000466241,79.93107508760771 63.02816000466241,91.83107508760772 63.42816000466241,147.4310750876077 57.42816000466241,147.4310750876077" /><polygon points="73.02816000466241,79.43107508760771 85.02816000466241,79.43107508760771 85.02816000466241,89.15107508760771 79.02816000466241,92.93107508760771 73.02816000466241,89.15107508760771" /></g><g fill="none" id="PIQUETES" stroke="#00b0b0" stroke-width="0.08"><line x1="22.21861110643867" x2="22.32403846880193" y1="11.28997431764941" y2="11.92753613525232" /><line x1="22.68739232198916" x2="22.32403846880193" y1="11.393144913978999" y2="11.92753613525232" /><line x1="29.75405744776929" x2="29.115417925241296" y1="42.12148117009652" y2="42.220170380576775" /><line x1="29.645942552230707" x2="29.115417925241296" y1="42.58914682990349" y2="42.220170380576775" /><line x1="44.58197459721981" x2="44.86797200642986" y1="12.866312758133436" y2="13.445800015909775" /><line x1="45.06051681891661" x2="44.86797200642986" y1="12.828931719444117" y2="13.445800015909775" /><line x1="90.05423097987594" x2="90.08781376217682" y1="15.978193553692506" y2="16.62354012471689" /><line x1="90.50856179638956" x2="90.08781376217682" y1="16.13305965445725" y2="16.62354012471689" /><line x1="73.47910538465891" x2="73.90235638932917" y1="15.823960424366788" y2="16.312282640782975" /><line x1="73.93263822485497" x2="73.90235638932917" y1="15.666772756709005" y2="16.312282640782975" /><line x1="72.15437018394755" x2="72.60657755219621" y1="16.712789363811012" y2="17.174426121556344" /><line x1="72.59748722190949" x2="72.60657755219621" y1="16.52827028439686" y2="17.174426121556344" /></g><g fill="none" id="TEXTOS" stroke="#000000" stroke-width="0.08"><text fill="#000000" font-family="sans-serif" font-size="0.9" stroke="none" text-anchor="middle" x="16.3087429269284" y="36.55952467011194">DELANTERO RAGLAN</text><text fill="#000000" font-family="sans-serif" font-size="0.6" stroke="none" text-anchor="middle" x="16.3087429269284" y="37.95952467011194">Pieza N.01</text><text fill="#000000" font-family="sans-serif" font-size="0.6" stroke="none" text-anchor="middle" x="16.3087429269284" y="39.35952467011194">Talla: S</text><text fill="#000000" font-family="sans-serif" font-size="0.6" stroke="none" text-anchor="middle" x="16.3087429269284" y="40.759524670111944">Cortar: 2  (par: izq + der)</text><text fill="#000000" font-family="sans-serif" font-size="0.9" stroke="none" text-anchor="middle" x="47.02843972705422" y="37.50353931856975">ESPALDA RAGLAN</text><text fill="#000000" font-family="sans-serif" font-size="0.6" stroke="none" text-anchor="middle" x="47.02843972705422" y="38.90353931856975">Pieza N.02</text><text fill="#000000" font-family="sans-serif" font-size="0.6" stroke="none" text-anchor="middle" x="47.02843972705422" y="40.30353931856975">Talla: S</text><text fill="#000000" font-family="sans-serif" font-size="0.6" stroke="none" text-anchor="middle" x="47.02843972705422" y="41.703539318569746">Cortar: 1  (al doblez)</text><text fill="#000000" font-family="sans-serif" font-size="0.6" stroke="none" text-anchor="middle" x="47.02843972705422" y="43.10353931856975">AL DOBLEZ</text><text fill="#000000" font-family="sans-serif" font-size="0.9" stroke="none" text-anchor="middle" x="82.1158946848246" y="37.31076615874666">MANGA RAGLAN</text><text fill="#000000" font-family="sans-serif" font-size="0.6" stroke="none" text-anchor="middle" x="82.1158946848246" y="38.71076615874665">Pieza N.04</text><text fill="#000000" font-family="sans-serif" font-size="0.6" stroke="none" text-anchor="middle" x="82.1158946848246" y="40.11076615874666">Talla: S</text><text fill="#000000" font-family="sans-serif" font-size="0.6" stroke="none" text-anchor="middle" x="82.1158946848246" y="41.510766158746655">Cortar: 2  (par: izq + der)</text><text fill="#000000" font-family="sans-serif" font-size="0.9" stroke="none" text-anchor="middle" x="116.1838208828732" y="7.821075087607715">PUNO</text><text fill="#000000" font-family="sans-serif" font-size="0.6" stroke="none" text-anchor="middle" x="116.1838208828732" y="9.221075087607714">Pieza N.05</text><text fill="#000000" font-family="sans-serif" font-size="0.6" stroke="none" text-anchor="middle" x="116.1838208828732" y="10.621075087607714">Talla: S</text><text fill="#000000" font-family="sans-serif" font-size="0.6" stroke="none" text-anchor="middle" x="116.1838208828732" y="12.021075087607715">Cortar: 4  (4 (2 tela + 2 entretela))</text><text fill="#000000" font-family="sans-serif" font-size="0.9" stroke="none" text-anchor="middle" x="139.6838208828732" y="3.32107508760771">TAPETA MANGA</text><text fill="#000000" font-family="sans-serif" font-size="0.6" stroke="none" text-anchor="middle" x="139.6838208828732" y="4.72107508760771">Pieza N.06</text><text fill="#000000" font-family="sans-serif" font-size="0.6" stroke="none" text-anchor="middle" x="139.6838208828732" y="6.12107508760771">Talla: S</text><text fill="#000000" font-family="sans-serif" font-size="0.6" stroke="none" text-anchor="middle" x="139.6838208828732" y="7.521075087607709">Cortar: 2  (par)</text><text fill="#000000" font-family="sans-serif" font-size="0.9" stroke="none" text-anchor="middle" x="13.935060528670165" y="78.76999162942325">CUELLO</text><text fill="#000000" font-family="sans-serif" font-size="0.6" stroke="none" text-anchor="middle" x="13.935060528670165" y="80.16999162942325">Pieza N.07</text><text fill="#000000" font-family="sans-serif" font-size="0.6" stroke="none" text-anchor="middle" x="13.935060528670165" y="81.56999162942324">Talla: S</text><text fill="#000000" font-family="sans-serif" font-size="0.6" stroke="none" text-anchor="middle" x="13.935060528670165" y="82.96999162942325">Cortar: 2  (al doblez x2 (+ entretela))</text><text fill="#000000" font-family="sans-serif" font-size="0.6" stroke="none" text-anchor="middle" x="13.935060528670165" y="84.36999162942324">AL DOBLEZ</text><text fill="#000000" font-family="sans-serif" font-size="0.9" stroke="none" text-anchor="middle" x="40.94612000349681" y="77.86407508760772">PIE DE CUELLO</text><text fill="#000000" font-family="sans-serif" font-size="0.6" stroke="none" text-anchor="middle" x="40.94612000349681" y="79.26407508760771">Pieza N.08</text><text fill="#000000" font-family="sans-serif" font-size="0.6" stroke="none" text-anchor="middle" x="40.94612000349681" y="80.66407508760771">Talla: S</text><text fill="#000000" font-family="sans-serif" font-size="0.6" stroke="none" text-anchor="middle" x="40.94612000349681" y="82.0640750876077">Cortar: 2  (al doblez x2 (+ entretela))</text><text fill="#000000" font-family="sans-serif" font-size="0.6" stroke="none" text-anchor="middle" x="40.94612000349681" y="83.46407508760771">AL DOBLEZ</text><text fill="#000000" font-family="sans-serif" font-size="0.9" stroke="none" text-anchor="middle" x="60.57837287091489" y="113.29566323678921">VISTA DELANTERA</text><text fill="#000000" font-family="sans-serif" font-size="0.6" stroke="none" text-anchor="middle" x="60.57837287091489" y="114.6956632367892">Pieza N.09</text><text fill="#000000" font-family="sans-serif" font-size="0.6" stroke="none" text-anchor="middle" x="60.57837287091489" y="116.0956632367892">Talla: S</text><text fill="#000000" font-family="sans-serif" font-size="0.6" stroke="none" text-anchor="middle" x="60.57837287091489" y="117.49566323678921">Cortar: 2  (par: izq + der)</text><text fill="#000000" font-family="sans-serif" font-size="0.9" stroke="none" text-anchor="middle" x="79.02816000466241" y="82.58735415737515">BOLSILLO</text><text fill="#000000" font-family="sans-serif" font-size="0.6" stroke="none" text-anchor="middle" x="79.02816000466241" y="83.98735415737515">Pieza N.10</text><text fill="#000000" font-family="sans-serif" font-size="0.6" stroke="none" text-anchor="middle" x="79.02816000466241" y="85.38735415737516">Talla: S</text><text fill="#000000" font-family="sans-serif" font-size="0.6" stroke="none" text-anchor="middle" x="79.02816000466241" y="86.78735415737515">Cortar: 1  (1 (opcional))</text></g><g fill="none" id="CENTROS" stroke="#0050ff" stroke-width="0.08"><circle cx="18.9" cy="24.655314" fill="#0050ff" r="0.15" /><circle cx="86.31488805179575" cy="61.43107508760771" fill="#0050ff" r="0.15" /></g><g fill="none" id="HILO" stroke="#c0a000" stroke-width="0.08"><line x1="17.7" x2="17.7" y1="12.055314000000001" y2="64.655314" /><line x1="17.7" x2="18.167302010770378" y1="64.655314" y2="63.550040807196545" /><line x1="17.7" x2="17.232697989229617" y1="64.655314" y2="63.550040807196545" /><line x1="17.7" x2="17.23269798922962" y1="12.055314000000001" y2="13.160587192803463" /><line x1="17.7" x2="18.167302010770378" y1="12.055314000000001" y2="13.160587192803463" /><line x1="36.2" x2="36.2" y1="15.847622238788777" y2="67.84762223878877" /><line x1="36.2" x2="36.66730201077038" y1="67.84762223878877" y2="66.74234904598532" /><line x1="36.2" x2="35.73269798922962" y1="67.84762223878877" y2="66.74234904598532" /><line x1="36.2" x2="35.73269798922962" y1="15.847622238788777" y2="16.95289543159224" /><line x1="36.2" x2="36.66730201077038" y1="15.847622238788777" y2="16.95289543159224" /><line x1="82.1919104414366" x2="82.1919104414366" y1="17.39107508760771" y2="71.43107508760771" /><line x1="82.1919104414366" x2="82.65921245220699" y1="71.43107508760771" y2="70.32580189480426" /><line x1="82.1919104414366" x2="81.72460843066622" y1="71.43107508760771" y2="70.32580189480426" /><line x1="82.1919104414366" x2="81.72460843066622" y1="17.39107508760771" y2="18.496348280411176" /><line x1="82.1919104414366" x2="82.65921245220699" y1="17.39107508760771" y2="18.496348280411176" /><line x1="116.1838208828732" x2="116.1838208828732" y1="5.021075087607711" y2="16.021075087607713" /><line x1="116.1838208828732" x2="116.65112289364359" y1="16.021075087607713" y2="14.915801894804249" /><line x1="116.1838208828732" x2="115.71651887210282" y1="16.021075087607713" y2="14.915801894804249" /><line x1="116.1838208828732" x2="115.71651887210282" y1="5.021075087607711" y2="6.1263482804111735" /><line x1="116.1838208828732" x2="116.65112289364359" y1="5.021075087607711" y2="6.1263482804111735" /><line x1="139.6838208828732" x2="139.6838208828732" y1="4.921075087607711" y2="7.121075087607712" /><line x1="139.6838208828732" x2="140.15112289364356" y1="7.121075087607712" y2="6.01580189480425" /><line x1="139.6838208828732" x2="139.21651887210282" y1="7.121075087607712" y2="6.01580189480425" /><line x1="139.6838208828732" x2="139.21651887210282" y1="4.921075087607711" y2="6.026348280411174" /><line x1="139.6838208828732" x2="140.15112289364356" y1="4.921075087607711" y2="6.026348280411174" /><line x1="4.5" x2="22.764080002331205" y1="79.93107508760771" y2="79.93107508760771" /><line x1="22.764080002331205" x2="21.658806809527743" y1="79.93107508760771" y2="79.46377307683733" /><line x1="22.764080002331205" x2="21.658806809527743" y1="79.93107508760771" y2="80.39837709837809" /><line x1="4.5" x2="5.6052731928034625" y1="79.93107508760771" y2="80.39837709837809" /><line x1="4.5" x2="5.6052731928034625" y1="79.93107508760771" y2="79.46377307683733" /><line x1="30.964080002331205" x2="50.92816000466241" y1="79.83107508760772" y2="79.83107508760772" /><line x1="50.92816000466241" x2="49.82288681185895" y1="79.83107508760772" y2="79.36377307683733" /><line x1="50.92816000466241" x2="49.82288681185895" y1="79.83107508760772" y2="80.29837709837808" /><line x1="30.964080002331205" x2="32.06935319513467" y1="79.83107508760772" y2="80.29837709837808" /><line x1="30.964080002331205" x2="32.06935319513467" y1="79.83107508760772" y2="79.36377307683733" /><line x1="60.42816000466241" x2="60.42816000466241" y1="93.83107508760772" y2="144.4310750876077" /><line x1="60.42816000466241" x2="60.89546201543279" y1="144.4310750876077" y2="143.32580189480424" /><line x1="60.42816000466241" x2="59.960857993892034" y1="144.4310750876077" y2="143.32580189480424" /><line x1="60.42816000466241" x2="59.960857993892034" y1="93.83107508760772" y2="94.93634828041117" /><line x1="60.42816000466241" x2="60.89546201543279" y1="93.83107508760772" y2="94.93634828041117" /><line x1="79.02816000466241" x2="79.02816000466241" y1="80.43107508760771" y2="89.15107508760771" /><line x1="79.02816000466241" x2="79.49546201543279" y1="89.15107508760771" y2="88.04580189480424" /><line x1="79.02816000466241" x2="78.56085799389203" y1="89.15107508760771" y2="88.04580189480424" /><line x1="79.02816000466241" x2="78.56085799389203" y1="80.43107508760771" y2="81.53634828041118" /><line x1="79.02816000466241" x2="79.49546201543279" y1="80.43107508760771" y2="81.53634828041118" /></g><g fill="none" id="DOBLEZ" stroke="#c000c0" stroke-width="0.08"><line x1="35.7" x2="35.7" y1="4.521075087607711" y2="70.84762223878877" /><line x1="4.0" x2="4.0" y1="79.43107508760771" y2="85.93107508760771" /><line x1="30.464080002331205" x2="30.464080002331205" y1="79.43107508760771" y2="83.2310750876077" /></g><g fill="none" id="BOTONES" stroke="#ff8000" stroke-width="0.08"><circle cx="5.7" cy="10.555314000000001" fill="#ff8000" r="0.55" /><circle cx="5.7" cy="19.07198066666667" fill="#ff8000" r="0.55" /><circle cx="5.7" cy="27.588647333333338" fill="#ff8000" r="0.55" /><circle cx="5.7" cy="36.105314" fill="#ff8000" r="0.55" /><circle cx="5.7" cy="44.62198066666667" fill="#ff8000" r="0.55" /><circle cx="5.7" cy="53.13864733333334" fill="#ff8000" r="0.55" /><circle cx="5.7" cy="61.655314000000004" fill="#ff8000" r="0.55" /><circle cx="105.88382088287321" cy="10.521075087607711" fill="#ff8000" r="0.55" /><circle cx="50.42816000466241" cy="80.93107508760771" fill="#ff8000" r="0.55" /></g><g fill="none" id="OJAL" stroke="#ff40a0" stroke-width="0.08"><line x1="4.9" x2="6.5" y1="10.555314000000001" y2="10.555314000000001" /><line x1="4.9" x2="6.5" y1="19.07198066666667" y2="19.07198066666667" /><line x1="4.9" x2="6.5" y1="27.588647333333338" y2="27.588647333333338" /><line x1="4.9" x2="6.5" y1="36.105314" y2="36.105314" /><line x1="4.9" x2="6.5" y1="44.62198066666667" y2="44.62198066666667" /><line x1="4.9" x2="6.5" y1="53.13864733333334" y2="53.13864733333334" /><line x1="4.9" x2="6.5" y1="61.655314000000004" y2="61.655314000000004" /><line x1="126.4838208828732" x2="126.4838208828732" y1="9.721075087607712" y2="11.321075087607712" /></g><g fill="none" id="REFERENCIAS" stroke="#b0b0b0" stroke-width="0.08"><text fill="#000000" font-family="sans-serif" font-size="0.5" stroke="none" text-anchor="start" x="5.7" y="8.055314000000001">CF</text><text fill="#000000" font-family="sans-serif" font-size="0.5" stroke="none" text-anchor="start" x="36.0" y="41.84762223878878">CB</text><text fill="#000000" font-family="sans-serif" font-size="0.5" stroke="none" text-anchor="start" x="116.1838208828732" y="9.721075087607712">DOBLEZ</text><text fill="#000000" font-family="sans-serif" font-size="0.5" stroke="none" text-anchor="start" x="79.02816000466241" y="80.93107508760771">boca</text></g></svg>