<?xml version="1.0" encoding="utf-8" ?>
<svg baseProfile="full" height="161.759962cm" version="1.1" viewBox="0 0 158.0 161.759962" width="158.0cm" xmlns="http://www.w3.org/2000/svg" xmlns:ev="http://www.w3.org/2001/xml-events" xmlns:xlink="http://www.w3.org/1999/xlink"><defs /><rect fill="#f7f3ea" height="153.759962" stroke="#333" stroke-width="0.15" width="150.0" x="4.0" y="4.0" /><text fill="#000" font-family="sans-serif" font-size="1.4" x="4.0" y="3.0">PLANO DE CORTE — ancho 150 cm — largo 1.54 m</text><polygon fill="#cfe3f7" fill-opacity="0.5" points="4.0,74.267704 12.00722,74.267704 11.601177,17.827772 15.824922,5.262131 13.300661,4.0 12.604548000000001,4.928368 12.408809,5.189983 12.212994,5.452847 12.017382000000001,5.717166 11.822256,5.98315 11.6279,6.251011999999999 11.434603,6.520965 11.242656,6.793221 11.052355,7.067997 10.863996,7.345508 10.677882,7.6259689999999996 10.494319,7.909597 10.313615,8.196606 10.136242,8.486951000000001 9.963303,8.779094 9.795078,9.070626 9.63075,9.360295 9.469275,9.647313 9.309653,9.930903 9.150927,10.210297 8.992184,10.484739000000001 8.832553,10.753489 8.671203,11.015827 8.507341,11.271062 8.340206,11.518545 8.169058,11.757678 7.993161000000001,11.987943000000001 7.810869,12.210004 7.619404,12.426846 7.41765,12.641195 7.206278,12.853889 6.986212,13.065588 6.7584420000000005,13.27698 6.524011,13.488792 6.322425,13.667704 4.0,13.667704 4.0,74.267704" stroke="#1f6fb2" stroke-width="0.1" /><text fill="#0a3d62" font-family="sans-serif" font-size="1.6" text-anchor="middle" x="9.912461" y="39.133852">09</text><polygon fill="#cfe3f7" fill-opacity="0.5" points="16.824922,74.267704 24.832142,74.267704 24.426099,17.827772 28.649844,5.262131 26.125583,4.0 25.429470000000002,4.928368 25.233731,5.189983 25.037916000000003,5.452847 24.842304000000002,5.717166 24.647178,5.98315 24.452822,6.251011999999999 24.259525,6.520965 24.067578,6.793221 23.877277,7.067997 23.688918,7.345508 23.502804,7.6259689999999996 23.319241,7.909597 23.138537,8.196606 22.961164,8.486951000000001 22.788225,8.779094 22.62,9.070626 22.455672,9.360295 22.294197,9.647313 22.134575,9.930903 21.975849,10.210297 21.817106000000003,10.484739000000001 21.657475,10.753489 21.496125,11.015827 21.332263,11.271062 21.165128000000003,11.518545 20.99398,11.757678 20.818083,11.987943000000001 20.635791,12.210004 20.444326,12.426846 20.242572000000003,12.641195 20.031200000000002,12.853889 19.811134000000003,13.065588 19.583364,13.27698 19.348933000000002,13.488792 19.147347,13.667704 16.824922,13.667704 16.824922,74.267704" stroke="#1f6fb2" stroke-width="0.1" /><text fill="#0a3d62" font-family="sans-serif" font-size="1.6" text-anchor="middle" x="22.737383" y="39.133852">09</text><polygon fill="#cfe3f7" fill-opacity="0.5" points="29.649844,13.633067 29.649844,74.233067 44.454658,74.233067 44.183801,71.520223 44.02482500000001,69.908136 43.869964,68.29766000000001 43.721206,66.688998 43.580539,65.082356 43.449943000000005,63.477941 43.331395,61.875962 43.226866,60.276627 43.138324,58.680147 43.06773,57.086731 43.01704,55.496586 42.988204,53.90992 42.983169000000004,52.326934 43.003873,50.747828999999996 43.052252,49.172796999999996 43.130235,47.602027 43.239749,46.035695 43.382741,44.473583999999995 43.560069,42.91459 43.770226,41.357675 44.011352,39.802544999999995 44.281573,38.249006 44.579008,36.696869 44.901771,35.14595 45.24797100000001,33.596069 45.615709,32.047049 46.003083000000004,30.498713 46.408184000000006,28.950886999999998 46.829098,27.403394 47.263907,25.856059 47.710687,24.308705 48.167511000000005,22.761152 48.632448,21.213219 49.103561,19.664723000000002 49.578911000000005,18.115477 50.089689,16.457760999999998 50.135391999999996,15.847847 50.198454,15.367222 50.287714,14.873137 50.400976,14.366815 50.535817,13.849511 50.689639,13.32245 50.859709,12.78679 51.043189999999996,12.243606999999999 51.237178,11.693886 51.438712,11.138521 51.970248,9.693617 38.924533000000004,4.0 38.254392,4.893731 38.058653,5.155346 37.862838,5.41821 37.667226,5.682529 37.472100000000005,5.948513 37.277744,6.216374999999999 37.084447000000004,6.486328 36.8925,6.758584 36.702199,7.03336 36.51384,7.310871 36.327726,7.5913319999999995 36.144163000000006,7.87496 35.963459,8.161969 35.786086000000005,8.452314000000001 35.613147,8.744457 35.444922000000005,9.035989 35.280594,9.325658 35.119119,9.612676 34.959497,9.896266 34.800771000000005,10.17566 34.642028,10.450102000000001 34.482397000000006,10.718852 34.321047,10.98119 34.157185,11.236425 33.990050000000004,11.483908 33.818902,11.723041 33.643005,11.953306000000001 33.460713,12.175367 33.269248000000005,12.392209 33.067494,12.606558 32.856122,12.819252 32.636056,13.030951 32.408286000000004,13.242343 32.173855,13.454155 31.972269,13.633067 29.649844,13.633067" stroke="#1f6fb2" stroke-width="0.1" /><text fill="#0a3d62" font-family="sans-serif" font-size="1.6" text-anchor="middle" x="40.810046" y="39.1165335">01</text><polygon fill="#cfe3f7" fill-opacity="0.5" points="52.970248,13.633067 52.970248,74.233067 67.77506199999999,74.233067 67.504205,71.520223 67.345229,69.908136 67.190368,68.29766000000001 67.04160999999999,66.688998 66.900943,65.082356 66.770347,63.477941 66.651799,61.875962 66.54727,60.276627 66.458728,58.680147 66.388134,57.086731 66.337444,55.496586 66.30860799999999,53.90992 66.303573,52.326934 66.324277,50.747828999999996 66.372656,49.172796999999996 66.450639,47.602027 66.560153,46.035695 66.703145,44.473583999999995 66.880473,42.91459 67.09063,41.357675 67.331756,39.802544999999995 67.601977,38.249006 67.899412,36.696869 68.222175,35.14595 68.568375,33.596069 68.936113,32.047049 69.323487,30.498713 69.728588,28.950886999999998 70.149502,27.403394 70.584311,25.856059 71.031091,24.308705 71.487915,22.761152 71.952852,21.213219 72.423965,19.664723000000002 72.899315,18.115477 73.41009299999999,16.457760999999998 73.45579599999999,15.847847 73.518858,15.367222 73.60811799999999,14.873137 73.72138,14.366815 73.856221,13.849511 74.010043,13.32245 74.180113,12.78679 74.36359399999999,12.243606999999999 74.557582,11.693886 74.759116,11.138521 75.290652,9.693617 62.244937,4.0 61.574796,4.893731 61.379056999999996,5.155346 61.183242,5.41821 60.987629999999996,5.682529 60.792504,5.948513 60.598147999999995,6.216374999999999 60.404851,6.486328 60.212903999999995,6.758584 60.022603,7.03336 59.834244,7.310871 59.648129999999995,7.5913319999999995 59.464567,7.87496 59.283863,8.161969 59.10649,8.452314000000001 58.933550999999994,8.744457 58.765326,9.035989 58.600998,9.325658 58.439522999999994,9.612676 58.279900999999995,9.896266 58.121175,10.17566 57.962432,10.450102000000001 57.802801,10.718852 57.641450999999996,10.98119 57.477588999999995,11.236425 57.310454,11.483908 57.139306,11.723041 56.963409,11.953306000000001 56.781116999999995,12.175367 56.589652,12.392209 56.387898,12.606558 56.176525999999996,12.819252 55.95646,13.030951 55.72869,13.242343 55.494259,13.454155 55.292673,13.633067 52.970248,13.633067" stroke="#1f6fb2" stroke-width="0.1" /><text fill="#0a3d62" font-family="sans-serif" font-size="1.6" text-anchor="middle" x="64.13045" y="39.1165335">01</text><polygon fill="#cfe3f7" fill-opacity="0.5" points="80.894189,66.004613 106.722893,66.004613 111.335394,14.559622999999998 110.62905099999999,13.774989999999999 110.208244,13.312847999999999 109.77876799999999,12.851835999999999 109.338571,12.395239 108.887897,11.9474 108.428975,11.51006 107.96279999999999,11.082705 107.489992,10.664458 107.01115999999999,10.254439 106.52689899999999,9.851766999999999 106.03779399999999,9.455561 105.544421,9.064943 105.04734099999999,8.679036 104.546448,8.296466 104.03970899999999,7.915755 103.52462899999999,7.538259 103.00007,7.1668959999999995 102.46505499999999,6.804792 101.91855199999999,6.4551289999999995 101.359495,6.121163 100.7868,5.80625 100.19940399999999,5.513857 99.596313,5.24759 98.978182,5.011762 98.350101,4.809616 97.71780999999999,4.638591 97.083558,4.494111 96.448889,4.371542 95.81522199999999,4.266382 95.183906,4.174272 94.556274,4.0909949999999995 93.83477599999999,4.0 93.099615,4.05394 92.45886899999999,4.104962 91.81429899999999,4.164405 91.167052,4.236438 90.51827899999999,4.325369 89.869177,4.435643 89.221048,4.57184 88.575459,4.738636 87.93659699999999,4.939882 87.31033099999999,5.174805 86.698966,5.439152 86.101908,5.729414 85.518326,6.042254 84.947338,6.374447 84.38804599999999,6.722872 83.839565,7.084489 83.30104399999999,7.456322999999999 82.77166799999999,7.835451 82.249849,8.2196 81.732631,8.609293000000001 81.219403,9.007759 80.712003,9.417183999999999 80.212645,9.839547 79.72359999999999,10.276864 79.247214,10.731176 78.78592599999999,11.204525 78.34228499999999,11.698924 77.91945,12.215724 77.52309699999999,12.750982 77.15332599999999,13.294198000000002 76.80412799999999,13.837394 76.290652,14.659607999999999 80.894189,66.004613" stroke="#1f6fb2" stroke-width="0.1" /><text fill="#0a3d62" font-family="sans-serif" font-size="1.6" text-anchor="middle" x="93.81302299999999" y="35.0023065">04</text><polygon fill="#cfe3f7" fill-opacity="0.5" points="116.938931,66.004613 142.76763499999998,66.004613 147.380136,14.559622999999998 146.673793,13.774989999999999 146.252986,13.312847999999999 145.82351,12.851835999999999 145.383313,12.395239 144.932639,11.9474 144.473717,11.51006 144.007542,11.082705 143.534734,10.664458 143.055902,10.254439 142.571641,9.851766999999999 142.082536,9.455561 141.58916299999999,9.064943 141.092083,8.679036 140.59118999999998,8.296466 140.084451,7.915755 139.569371,7.538259 139.04481199999998,7.1668959999999995 138.509797,6.804792 137.963294,6.4551289999999995 137.404237,6.121163 136.83154199999998,5.80625 136.244146,5.513857 135.641055,5.24759 135.022924,5.011762 134.39484299999998,4.809616 133.762552,4.638591 133.1283,4.494111 132.493631,4.371542 131.859964,4.266382 131.228648,4.174272 130.601016,4.0909949999999995 129.879518,4.0 129.14435699999999,4.05394 128.50361099999998,4.104962 127.85904099999999,4.164405 127.211794,4.236438 126.56302099999999,4.325369 125.91391899999999,4.435643 125.26579,4.57184 124.620201,4.738636 123.98133899999999,4.939882 123.35507299999999,5.174805 122.743708,5.439152 122.14665,5.729414 121.56306799999999,6.042254 120.99207999999999,6.374447 120.43278799999999,6.722872 119.88430699999999,7.084489 119.34578599999999,7.456322999999999 118.81640999999999,7.835451 118.294591,8.2196 117.777373,8.609293000000001 117.264145,9.007759 116.756745,9.417183999999999 116.257387,9.839547 115.76834199999999,10.276864 115.291956,10.731176 114.83066799999999,11.204525 114.38702699999999,11.698924 113.964192,12.215724 113.56783899999999,12.750982 113.19806799999999,13.294198000000002 112.84886999999999,13.837394 112.335394,14.659607999999999 116.938931,66.004613" stroke="#1f6fb2" stroke-width="0.1" /><text fill="#0a3d62" font-family="sans-serif" font-size="1.6" text-anchor="middle" x="129.857765" y="35.0023065">04</text><polygon fill="#cfe3f7" fill-opacity="0.5" points="10.684109,79.09473399999999 10.207716999999999,80.647374 9.734879999999999,82.20153499999999 9.267555999999999,83.757419 8.807704,85.31522799999999 8.357289999999999,86.87516699999999 7.918282999999999,88.437444 7.492654999999999,90.00226599999999 7.082383999999999,91.569846 6.689453,93.14039199999999 6.315849999999999,94.71411699999999 5.963566999999999,96.291231 5.6346039999999995,97.87194199999999 5.330964999999999,99.456457 5.054658999999999,101.044979 4.807703999999999,102.637704 4.5921199999999995,104.234825 4.409943999999999,105.836434 4.26299,107.44182099999999 4.15057,109.049731 4.070648,110.659551 4.021148,112.27106099999999 4.0,113.884052 4.005134999999999,115.49832099999999 4.034492,117.113669 4.086013999999999,118.72990399999999 4.15765,120.346835 4.247354,121.964272 4.353087,123.58202999999999 4.472811999999999,125.19991999999999 4.604500999999999,126.81775499999999 4.7461269999999995,128.43534699999998 4.895669999999999,130.052506 5.051114,131.66904 5.2104479999999995,133.284758 5.461587999999999,135.800115 20.366717,135.800115 20.366717,88.424409 19.766785,87.73870199999999 19.413393999999997,87.335531 19.057401,86.93088399999999 18.698267,86.524897 18.33515,86.117367 17.967213,85.708096 17.593623,85.296893 17.21356,84.883584 16.827131,84.468959 16.437792,84.05513099999999 16.051313999999998,83.643085 15.672258000000001,83.232349 15.305055999999999,82.822515 14.954133999999998,82.413395 14.623862,82.005021 14.318492999999998,81.597657 14.042056999999998,81.191772 13.798238,80.787988 13.590213,80.38693599999999 13.420502999999998,79.98897099999999 13.290104000000001,79.591336 13.197117,79.18597299999999 13.138363,78.76656299999999 13.112225,78.331644 13.144734999999999,75.468093 11.8633,75.267704 10.684109,79.09473399999999" stroke="#1f6fb2" stroke-width="0.1" /><text fill="#0a3d62" font-family="sans-serif" font-size="1.6" text-anchor="middle" x="12.1833585" y="105.5339095">11</text><polygon fill="#cfe3f7" fill-opacity="0.5" points="28.050826,79.09473399999999 27.574434,80.647374 27.101596999999998,82.20153499999999 26.634273,83.757419 26.174421000000002,85.31522799999999 25.724007,86.87516699999999 25.285,88.437444 24.859372,90.00226599999999 24.449101,91.569846 24.05617,93.14039199999999 23.682567,94.71411699999999 23.330284,96.291231 23.001321,97.87194199999999 22.697682,99.456457 22.421376000000002,101.044979 22.174421000000002,102.637704 21.958837000000003,104.234825 21.776661,105.836434 21.629707000000003,107.44182099999999 21.517287000000003,109.049731 21.437365,110.659551 21.387865,112.27106099999999 21.366717,113.884052 21.371852,115.49832099999999 21.401209,117.113669 21.452731,118.72990399999999 21.524367,120.346835 21.614071000000003,121.964272 21.719804000000003,123.58202999999999 21.839529,125.19991999999999 21.971218,126.81775499999999 22.112844000000003,128.43534699999998 22.262387,130.052506 22.417831,131.66904 22.577165,133.284758 22.828305,135.800115 37.733434,135.800115 37.733434,88.424409 37.133502,87.73870199999999 36.780111,87.335531 36.424118,86.93088399999999 36.064984,86.524897 35.701867,86.117367 35.33393,85.708096 34.96034,85.296893 34.580277,84.883584 34.193848,84.468959 33.804509,84.05513099999999 33.418031,83.643085 33.038975,83.232349 32.671773,82.822515 32.320851,82.413395 31.990579000000004,82.005021 31.685209999999998,81.597657 31.408774,81.191772 31.164955,80.787988 30.95693,80.38693599999999 30.787219999999998,79.98897099999999 30.656821,79.591336 30.563834,79.18597299999999 30.50508,78.76656299999999 30.478942000000004,78.331644 30.511452,75.468093 29.230017000000004,75.267704 28.050826,79.09473399999999" stroke="#1f6fb2" stroke-width="0.1" /><text fill="#0a3d62" font-family="sans-serif" font-size="1.6" text-anchor="middle" x="29.550075500000002" y="105.5339095">11</text><polygon fill="#cfe3f7" fill-opacity="0.5" points="88.733434,87.966392 88.278314,87.279729 87.989768,86.84411399999999 87.701281,86.408048 87.412802,85.971184 87.124279,85.533176 86.83566,85.09367599999999 86.54689400000001,84.65233799999999 86.257938,84.208831 85.96918,83.76344 85.682413,83.317216 85.400155,82.870756 85.124516,82.42400799999999 84.857563,81.97692599999999 84.601337,81.52950899999999 84.357847,81.081797 84.129054,80.633862 83.916864,80.1858 83.723108,79.73771199999999 83.549529,79.28968599999999 83.39777600000001,78.84176 83.269379,78.39383199999999 83.165327,77.94394399999999 83.084885,77.488163 83.026267,77.024293 82.988076,76.552268 82.93682,75.267704 63.733434,75.267704 63.733434,135.26770399999998 88.733434,135.26770399999998 88.733434,87.966392 38.733434,87.966392 39.188554,87.279729 39.47710000000001,86.84411399999999 39.765587000000004,86.408048 40.054066000000006,85.971184 40.342589000000004,85.533176 40.631208,85.09367599999999 40.919974,84.65233799999999 41.20893,84.208831 41.497688000000004,83.76344 41.784455,83.317216 42.06671300000001,82.870756 42.342352000000005,82.42400799999999 42.609305000000006,81.97692599999999 42.865531000000004,81.52950899999999 43.109021,81.081797 43.337814,80.633862 43.550004,80.1858 43.74376,79.73771199999999 43.917339,79.28968599999999 44.069092,78.84176 44.197489000000004,78.39383199999999 44.301541,77.94394399999999 44.381983000000005,77.488163 44.440601,77.024293 44.478792,76.552268 44.53004800000001,75.267704 63.733434,75.267704 63.733434,135.26770399999998 38.733434,135.26770399999998 38.733434,87.966392" stroke="#1f6fb2" stroke-width="0.1" /><text fill="#0a3d62" font-family="sans-serif" font-size="1.6" text-anchor="middle" x="63.733434" y="105.267704">02</text><polygon fill="#cfe3f7" fill-opacity="0.5" points="89.733434,86.539609 96.733434,90.949609 103.733434,86.539609 103.733434,75.267704 89.733434,75.267704 89.733434,86.539609" stroke="#1f6fb2" stroke-width="0.1" /><text fill="#0a3d62" font-family="sans-serif" font-size="1.6" text-anchor="middle" x="96.733434" y="83.1086565">10</text><polygon fill="#cfe3f7" fill-opacity="0.5" points="104.733434,87.516831 104.76327500000001,87.81981099999999 104.865981,88.158386 105.03276600000001,88.47041899999999 105.25722,88.743918 105.530719,88.96837199999999 105.842752,89.13515699999999 106.181327,89.23786299999999 106.484307,89.267704 127.982561,89.267704 128.285541,89.23786299999999 128.62411600000001,89.13515699999999 128.936149,88.96837199999999 129.20964800000002,88.743918 129.434102,88.47041899999999 129.600887,88.158386 129.703593,87.81981099999999 129.733434,87.516831 129.733434,77.018577 129.703593,76.71559699999999 129.600887,76.377022 129.434102,76.064989 129.20964800000002,75.79149 128.936149,75.567036 128.62411600000001,75.400251 128.285541,75.297545 127.982561,75.267704 106.484307,75.267704 106.181327,75.297545 105.842752,75.400251 105.530719,75.567036 105.25722,75.79149 105.03276600000001,76.064989 104.865981,76.377022 104.76327500000001,76.71559699999999 104.733434,77.018577 104.733434,87.516831" stroke="#1f6fb2" stroke-width="0.1" /><text fill="#0a3d62" font-family="sans-serif" font-size="1.6" text-anchor="middle" x="117.233434" y="82.267704">05</text><polygon fill="#cfe3f7" fill-opacity="0.5" points="4.0,149.049242 4.029841,149.352222 4.132547,149.690797 4.299332,150.00283000000002 4.523786,150.276329 4.7972850000000005,150.500783 5.109318,150.66756800000002 5.4478930000000005,150.770274 5.750873,150.800115 27.249127,150.800115 27.552107,150.770274 27.890682,150.66756800000002 28.202715,150.500783 28.476214,150.276329 28.700668,150.00283000000002 28.867453,149.690797 28.970159,149.352222 29.0,149.049242 29.0,138.55098800000002 28.970159,138.248008 28.867453,137.909433 28.700668,137.5974 28.476214,137.323901 28.202715,137.099447 27.890682,136.932662 27.552107,136.829956 27.249127,136.800115 5.750873,136.800115 5.4478930000000005,136.829956 5.109318,136.932662 4.7972850000000005,137.099447 4.523786,137.323901 4.299332,137.5974 4.132547,137.909433 4.029841,138.248008 4.0,138.55098800000002 4.0,149.049242" stroke="#1f6fb2" stroke-width="0.1" /><text fill="#0a3d62" font-family="sans-serif" font-size="1.6" text-anchor="middle" x="16.5" y="143.800115">05</text><polygon fill="#cfe3f7" fill-opacity="0.5" points="69.109812,147.726179 69.10827,147.238498 69.12286,146.743515 69.152042,146.24166400000001 69.194218,145.73341100000002 69.247736,145.219236 69.310889,144.69962 69.381927,144.175033 69.459058,143.645927 69.540457,143.11273 69.74864600000001,141.779001 56.845692,136.800115 56.206584,137.234226 56.003755,137.37071500000002 55.803425000000004,137.503013 55.605097,137.630312 55.408291,137.75186200000002 55.212533,137.866974 55.016683,137.975392 54.818733,138.077666 54.617676,138.174305 54.4137,138.265216 54.207108000000005,138.350254 53.998204,138.429278 53.787293000000005,138.50215500000002 53.574684000000005,138.568756 53.360684,138.628957 53.145601,138.682643 52.929643999999996,138.729724 52.712165999999996,138.77031300000002 52.492015,138.8049 52.268762,138.833975 52.042410000000004,138.85796 51.81299,138.877288 51.580557,138.892407 51.345178000000004,138.903781 51.106932,138.911893 50.865904,138.91724100000002 50.622182,138.920345 50.375856,138.921737 50.127012,138.921972 49.874323000000004,138.921615 49.874323000000004,148.921616 69.157512,148.921616 69.109812,147.726179 30.638834,147.726179 30.640376,147.238498 30.625786,146.743515 30.596604,146.24166400000001 30.554428,145.73341100000002 30.50091,145.219236 30.437757,144.69962 30.366719,144.175033 30.289588000000002,143.645927 30.208189,143.11273 30.0,141.779001 42.902954,136.800115 43.542062,137.234226 43.744890999999996,137.37071500000002 43.945221000000004,137.503013 44.143549,137.630312 44.340355,137.75186200000002 44.536113,137.866974 44.731963,137.975392 44.929913,138.077666 45.130970000000005,138.174305 45.334946,138.265216 45.541538,138.350254 45.750442,138.429278 45.961353,138.50215500000002 46.173962,138.568756 46.387962,138.628957 46.603045,138.682643 46.819002,138.729724 47.03648,138.77031300000002 47.256631,138.8049 47.479884,138.833975 47.706236000000004,138.85796 47.935656,138.877288 48.168089,138.892407 48.403468000000004,138.903781 48.641714,138.911893 48.882742,138.91724100000002 49.126464,138.920345 49.37279,138.921737 49.621634,138.921972 49.874323000000004,138.921615 49.874323000000004,148.921616 30.591134,148.921616 30.638834,147.726179" stroke="#1f6fb2" stroke-width="0.1" /><text fill="#0a3d62" font-family="sans-serif" font-size="1.6" text-anchor="middle" x="49.874323000000004" y="142.86086550000002">03</text><polygon fill="#cfe3f7" fill-opacity="0.5" points="93.404015,143.655092 93.89550500000001,143.744389 94.38704800000001,143.82859200000001 94.878641,143.9077 95.370282,143.98171100000002 95.861967,144.050624 96.353694,144.114438 96.84546,144.17315100000002 97.33726100000001,144.226763 97.82909500000001,144.275272 98.320959,144.318678 98.812849,144.356979 99.30476200000001,144.390175 99.796695,144.41826500000002 100.288645,144.441248 100.780608,144.459125 101.272582,144.47189400000002 101.76456200000001,144.479556 102.256545,144.482109 102.74852800000001,144.479556 103.240508,144.47189400000002 103.732482,144.459125 104.224445,144.441248 104.716395,144.41826500000002 105.20832800000001,144.390175 105.700241,144.356979 106.192131,144.318678 106.68399500000001,144.275272 107.17582900000001,144.226763 107.66763,144.17315100000002 108.15939600000002,144.114438 108.65112300000001,144.050624 109.142808,143.98171100000002 109.634449,143.9077 110.12604200000001,143.82859200000001 110.617585,143.744389 111.109075,143.655092 111.39342400000001,143.600478 113.44514600000001,147.020015 114.500364,146.621032 112.68727200000001,136.800115 111.21345600000001,137.098488 110.74168700000001,137.1891 110.26997300000001,137.274803 109.79831200000001,137.3556 109.32670100000001,137.431492 108.85513800000001,137.50248100000002 108.38361900000001,137.568568 107.912142,137.629754 107.44070400000001,137.68604100000002 106.969301,137.737429 106.49793100000001,137.78392 106.02659100000001,137.825514 105.555277,137.862213 105.08398600000001,137.89401700000002 104.61271500000001,137.920927 104.141461,137.942944 103.67022,137.960067 103.19899000000001,137.972298 102.727766,137.979636 102.256545,137.98208300000002 101.785324,137.979636 101.31410000000001,137.972298 100.84287,137.960067 100.37162900000001,137.942944 99.90037500000001,137.920927 99.42910400000001,137.89401700000002 98.957813,137.862213 98.48649900000001,137.825514 98.01515900000001,137.78392 97.543789,137.737429 97.07238600000001,137.68604100000002 96.600948,137.629754 96.12947100000001,137.568568 95.65795200000001,137.50248100000002 95.186389,137.431492 94.71477800000001,137.3556 94.24311700000001,137.274803 93.771403,137.1891 93.299634,137.098488 92.624505,136.96180900000002 92.624505,143.502383 92.91258,143.56070400000002 93.404015,143.655092 91.84499500000001,143.655092 91.35350500000001,143.744389 90.861962,143.82859200000001 90.37036900000001,143.9077 89.87872800000001,143.98171100000002 89.387043,144.050624 88.89531600000001,144.114438 88.40355000000001,144.17315100000002 87.91174900000001,144.226763 87.419915,144.275272 86.92805100000001,144.318678 86.436161,144.356979 85.944248,144.390175 85.452315,144.41826500000002 84.96036500000001,144.441248 84.46840200000001,144.459125 83.976428,144.47189400000002 83.484448,144.479556 82.99246500000001,144.482109 82.500482,144.479556 82.00850200000001,144.47189400000002 81.51652800000001,144.459125 81.02456500000001,144.441248 80.532615,144.41826500000002 80.040682,144.390175 79.54876900000001,144.356979 79.05687900000001,144.318678 78.565015,144.275272 78.073181,144.226763 77.58138000000001,144.17315100000002 77.08961400000001,144.114438 76.59788700000001,144.050624 76.10620200000001,143.98171100000002 75.61456100000001,143.9077 75.12296800000001,143.82859200000001 74.63142500000001,143.744389 74.13993500000001,143.655092 73.855586,143.600478 71.803864,147.020015 70.74864600000001,146.621032 72.561738,136.800115 74.035554,137.098488 74.50732300000001,137.1891 74.979037,137.274803 75.450698,137.3556 75.92230900000001,137.431492 76.393872,137.50248100000002 76.865391,137.568568 77.33686800000001,137.629754 77.808306,137.68604100000002 78.27970900000001,137.737429 78.751079,137.78392 79.222419,137.825514 79.69373300000001,137.862213 80.165024,137.89401700000002 80.636295,137.920927 81.107549,137.942944 81.57879000000001,137.960067 82.05002,137.972298 82.52124400000001,137.979636 82.99246500000001,137.98208300000002 83.46368600000001,137.979636 83.93491,137.972298 84.40614000000001,137.960067 84.87738100000001,137.942944 85.348635,137.920927 85.819906,137.89401700000002 86.29119700000001,137.862213 86.762511,137.825514 87.23385100000002,137.78392 87.70522100000001,137.737429 88.176624,137.68604100000002 88.64806200000001,137.629754 89.119539,137.568568 89.591058,137.50248100000002 90.06262100000001,137.431492 90.534232,137.3556 91.00589300000001,137.274803 91.477607,137.1891 91.949376,137.098488 92.624505,136.96180900000002 92.624505,143.502383 92.33643000000001,143.56070400000002 91.84499500000001,143.655092" stroke="#1f6fb2" stroke-width="0.1" /><text fill="#0a3d62" font-family="sans-serif" font-size="1.6" text-anchor="middle" x="92.624505" y="141.910065">07</text><polygon fill="#cfe3f7" fill-opacity="0.5" points="26.876185,157.102657 27.407719999999998,157.17365 27.939276,157.240589 28.470852,157.303473 29.002448,157.362302 29.534062,157.417076 30.065693,157.467795 30.59734,157.514457 31.129001,157.557062 31.660674999999998,157.59561100000002 32.192361,157.63010300000002 32.724058,157.660538 33.255764,157.686915 33.787478,157.709235 34.319198,157.727497 34.850924,157.7417 35.382654,157.751846 35.914386,157.757933 36.44612,157.759962 36.977854,157.757933 37.509586,157.751846 38.041315999999995,157.7417 38.573042,157.727497 39.104762,157.709235 39.636476,157.686915 40.168182,157.660538 40.699878999999996,157.63010300000002 41.231565,157.59561100000002 41.763239,157.557062 42.2949,157.514457 42.826547,157.467795 43.358177999999995,157.417076 43.889792,157.362302 44.421388,157.303473 44.952963999999994,157.240589 45.48452,157.17365 46.016054999999994,157.102657 46.547566,157.027611 47.92816,156.822143 47.92816,151.800115 46.260549999999995,152.04829900000001 45.743857,152.121253 45.227188,152.19026 44.710539999999995,152.255321 44.193912,152.316437 43.677304,152.37360800000002 43.160714,152.426834 42.644141,152.476115 42.127584,152.521453 41.611041,152.562848 41.094511,152.600299 40.577993,152.63380700000002 40.061486,152.663372 39.544988000000004,152.688995 39.028498,152.710675 38.512014,152.72841300000002 37.995536,152.74221 37.479062,152.75206400000002 36.96259,152.757977 36.44612,152.759948 35.929649999999995,152.757977 35.413178,152.75206400000002 34.896704,152.74221 34.380226,152.72841300000002 33.863742,152.710675 33.347252,152.688995 32.830754,152.663372 32.314246999999995,152.63380700000002 31.797729,152.600299 31.281199,152.562848 30.764656,152.521453 30.248099,152.476115 29.731526,152.426834 29.214935999999998,152.37360800000002 28.698328,152.316437 28.1817,152.255321 27.665052,152.19026 27.148383,152.121253 26.63169,152.04829900000001 25.96408,151.94894100000002 25.96408,156.970969 26.344673999999998,157.027611 26.876185,157.102657 25.051975,157.102657 24.52044,157.17365 23.988884,157.240589 23.457307999999998,157.303473 22.925711999999997,157.362302 22.394098,157.417076 21.862467,157.467795 21.33082,157.514457 20.799159,157.557062 20.267485,157.59561100000002 19.735799,157.63010300000002 19.204102,157.660538 18.672396,157.686915 18.140681999999998,157.709235 17.608962,157.727497 17.077236,157.7417 16.545506,157.751846 16.013773999999998,157.757933 15.48204,157.759962 14.950306,157.757933 14.418574,157.751846 13.886844,157.7417 13.355118,157.727497 12.823398,157.709235 12.291683999999998,157.686915 11.759977999999998,157.660538 11.228280999999999,157.63010300000002 10.696594999999999,157.59561100000002 10.164921,157.557062 9.63326,157.514457 9.101613,157.467795 8.569982,157.417076 8.038367999999998,157.362302 7.506771999999998,157.303473 6.975196,157.240589 6.4436399999999985,157.17365 5.912105,157.102657 5.3805939999999985,157.027611 4.0,156.822143 4.0,151.800115 5.66761,152.04829900000001 6.184303,152.121253 6.700972,152.19026 7.21762,152.255321 7.734248000000001,152.316437 8.250855999999999,152.37360800000002 8.767446,152.426834 9.284019,152.476115 9.800576,152.521453 10.317119,152.562848 10.833649,152.600299 11.350166999999999,152.63380700000002 11.866674,152.663372 12.383171999999998,152.688995 12.899662,152.710675 13.416146,152.72841300000002 13.932623999999999,152.74221 14.449098,152.75206400000002 14.96557,152.757977 15.48204,152.759948 15.99851,152.757977 16.514982,152.75206400000002 17.031456,152.74221 17.547933999999998,152.72841300000002 18.064418,152.710675 18.580908,152.688995 19.097406,152.663372 19.613913,152.63380700000002 20.130430999999998,152.600299 20.646960999999997,152.562848 21.163504,152.521453 21.680061,152.476115 22.196634,152.426834 22.713224,152.37360800000002 23.229832,152.316437 23.74646,152.255321 24.263108,152.19026 24.779777,152.121253 25.29647,152.04829900000001 25.96408,151.94894100000002 25.96408,156.970969 25.583486,157.027611 25.051975,157.102657" stroke="#1f6fb2" stroke-width="0.1" /><text fill="#0a3d62" font-family="sans-serif" font-size="1.6" text-anchor="middle" x="25.96408" y="154.78003850000002">08</text><polygon fill="#cfe3f7" fill-opacity="0.5" points="48.92816,155.449242 48.950314999999996,155.674185 49.030257999999996,155.937723 49.160078999999996,156.180601 49.334789,156.393486 49.547674,156.568196 49.790552,156.698017 50.054089999999995,156.77796 50.279033,156.800115 61.577287,156.800115 61.802229999999994,156.77796 62.065768,156.698017 62.308645999999996,156.568196 62.521530999999996,156.393486 62.696241,156.180601 62.826062,155.937723 62.906005,155.674185 62.92816,155.449242 62.92816,153.150988 62.906005,152.92604500000002 62.826062,152.662507 62.696241,152.41962900000001 62.521530999999996,152.20674400000001 62.308645999999996,152.032034 62.065768,151.90221300000002 61.802229999999994,151.82227 61.577287,151.800115 50.279033,151.800115 50.054089999999995,151.82227 49.790552,151.90221300000002 49.547674,152.032034 49.334789,152.20674400000001 49.160078999999996,152.41962900000001 49.030257999999996,152.662507 48.950314999999996,152.92604500000002 48.92816,153.150988 48.92816,155.449242" stroke="#1f6fb2" stroke-width="0.1" /><text fill="#0a3d62" font-family="sans-serif" font-size="1.6" text-anchor="middle" x="55.92816" y="154.300115">06</text><polygon fill="#cfe3f7" fill-opacity="0.5" points="63.92816,155.449242 63.950314999999996,155.674185 64.030258,155.937723 64.160079,156.180601 64.334789,156.393486 64.547674,156.568196 64.790552,156.698017 65.05409,156.77796 65.279033,156.800115 76.577287,156.800115 76.80223,156.77796 77.06576799999999,156.698017 77.308646,156.568196 77.521531,156.393486 77.696241,156.180601 77.826062,155.937723 77.906005,155.674185 77.92815999999999,155.449242 77.92815999999999,153.150988 77.906005,152.92604500000002 77.826062,152.662507 77.696241,152.41962900000001 77.521531,152.20674400000001 77.308646,152.032034 77.06576799999999,151.90221300000002 76.80223,151.82227 76.577287,151.800115 65.279033,151.800115 65.05409,151.82227 64.790552,151.90221300000002 64.547674,152.032034 64.334789,152.20674400000001 64.160079,152.41962900000001 64.030258,152.662507 63.950314999999996,152.92604500000002 63.92816,153.150988 63.92816,155.449242" stroke="#1f6fb2" stroke-width="0.1" /><text fill="#0a3d62" font-family="sans-serif" font-size="1.6" text-anchor="middle" x="70.92815999999999" y="154.300115">06</text></svg>