<?xml version="1.0" encoding="utf-8" ?>
<svg baseProfile="full" height="150.567cm" version="1.1" viewBox="0 0 156.6465030294114 150.567" width="156.6465030294114cm" xmlns="http://www.w3.org/2000/svg" xmlns:ev="http://www.w3.org/2001/xml-events" xmlns:xlink="http://www.w3.org/1999/xlink"><defs /><g fill="none" id="CONSTRUCCION" stroke="#888888" stroke-width="0.08"><line x1="5.7" x2="5.7" y1="13.966999999999999" y2="72.567" /><line x1="19.6" x2="31.6" y1="85.78699999999999" y2="85.78699999999999" /></g><g fill="none" id="CORTE" stroke="#d00000" stroke-width="0.08"><polygon points="3.0,73.567 30.7,73.567 30.7,29.403592 30.860298,29.613761 31.441636,30.446657000000002 31.98211,31.319253 32.490441000000004,32.247002 32.986896,33.218571 33.489168,34.209567 34.016987,35.195223999999996 34.593125,36.151303999999996 35.243998,37.052629 35.996874,37.866878 36.859864,38.550006 37.808465000000005,39.087645 38.82142,39.490073 39.885076000000005,39.773746 40.989968000000005,39.955734 42.129272,40.052096 43.297342,40.077479 44.488791000000006,40.045312 45.698048,39.968142 46.919186,39.857925 48.145883000000005,39.72623 50.256439,39.481922 50.256439,11.703826 24.321628,8.591648 12.274689,3.333932999999999 11.604548000000001,4.227663999999999 11.408809,4.489278999999999 11.212994,4.7521429999999985 11.017382000000001,5.016461999999999 10.822256,5.282445999999998 10.6279,5.550307999999999 10.434603,5.820260999999999 10.242656,6.092516999999999 10.052355,6.367292999999998 9.863996,6.644803999999999 9.677882,6.925264999999999 9.494319,7.208892999999999 9.313614999999999,7.495901999999999 9.136242,7.7862469999999995 8.963303,8.078389999999999 8.795078,8.369921999999999 8.630749999999999,8.659590999999999 8.469275,8.946608999999999 8.309653,9.230198999999999 8.150927,9.509592999999999 7.992184,9.784035 7.832553,10.052784999999998 7.671203,10.315122999999998 7.507341,10.570357999999999 7.340206,10.817841 7.169058,11.056973999999999 6.993161,11.287239 6.810869,11.5093 6.619404,11.726142 6.41765,11.940490999999998 6.206278,12.153184999999999 5.986212,12.364883999999998 5.7584420000000005,12.576275999999998 5.524011,12.788087999999998 5.322425,12.966999999999999 3.0,12.966999999999999 3.0,73.567" /><polygon points="80.2564392373896,29.402898 80.4416022373896,29.646281000000002 81.0290862373896,30.492915 81.5749982373896,31.383087 82.0895172373896,32.331132 82.5934952373896,33.322762 83.1052802373896,34.331402 83.6456672373896,35.330532 84.2388902373896,36.294202999999996 84.9133622373896,37.195156 85.69678423738961,37.996004 86.5918972373896,38.65166 87.5703852373896,39.152575 88.6113892373896,39.51161 89.7013142373896,39.746763 90.83117923738959,39.876274 91.99469423738961,39.916998 93.1866222373896,39.884155 94.4018462373896,39.791654 95.6349492373896,39.652503 96.88008423738961,39.479125 98.1309602373896,39.283582 100.2183432373896,38.93976 100.2183432373896,11.203826 74.2616632373896,8.089023999999998 62.2278082373896,3.445498999999999 61.5887002373896,3.8796099999999987 61.3858712373896,4.016098999999999 61.1855412373896,4.148396999999999 60.9872132373896,4.275695999999999 60.7904072373896,4.397245999999999 60.5946492373896,4.512357999999999 60.398799237389596,4.620775999999999 60.2008492373896,4.723049999999999 59.9997922373896,4.819688999999999 59.7958162373896,4.910599999999999 59.5892242373896,4.995637999999999 59.3803202373896,5.074661999999998 59.1694092373896,5.147538999999998 58.9568002373896,5.214139999999999 58.7428002373896,5.274340999999999 58.5277172373896,5.328026999999999 58.3117602373896,5.375107999999999 58.0942822373896,5.415696999999999 57.8741312373896,5.450283999999999 57.6508782373896,5.479358999999999 57.4245262373896,5.5033439999999985 57.1951062373896,5.522671999999998 56.9626732373896,5.537790999999999 56.7272942373896,5.549164999999999 56.489048237389596,5.557276999999999 56.248020237389596,5.562624999999999 56.0042982373896,5.565728999999999 55.7579722373896,5.567120999999998 55.5091282373896,5.567355999999998 55.2564392373896,5.566998999999999 55.2564392373896,73.567 80.2564392373896,73.567 80.2564392373896,29.402898" /><polygon points="105.99785302708021,10.239996 106.48934302708021,10.329292999999998 106.9808860270802,10.413495999999999 107.47247902708021,10.492603999999998 107.96412002708021,10.566614999999999 108.4558050270802,10.635527999999999 108.94753202708021,10.699342 109.43929802708021,10.758054999999999 109.93109902708021,10.811666999999998 110.4229330270802,10.860176 110.91479702708021,10.903581999999998 111.40668702708021,10.941882999999999 111.8986000270802,10.975079 112.39053302708021,11.003168999999998 112.88248302708021,11.026151999999998 113.37444602708021,11.044028999999998 113.86642002708021,11.056797999999999 114.35840002708021,11.064459999999999 114.85038302708021,11.067013 115.3423660270802,11.064459999999999 115.83434602708022,11.056797999999999 116.32632002708021,11.044028999999998 116.81828302708021,11.026151999999998 117.31023302708022,11.003168999999998 117.8021660270802,10.975079 118.29407902708022,10.941882999999999 118.78596902708021,10.903581999999998 119.2778330270802,10.860176 119.7696670270802,10.811666999999998 120.26146802708021,10.758054999999999 120.75323402708021,10.699342 121.24496102708021,10.635527999999999 121.73664602708021,10.566614999999999 122.22828702708021,10.492603999999998 122.71988002708021,10.413495999999999 123.2114230270802,10.329292999999998 123.70291302708021,10.239996 123.9872620270802,10.185381999999999 126.0389840270802,13.604918999999999 127.0942020270802,13.205935999999998 125.28111002708022,3.385018999999999 123.80729402708022,3.6833919999999987 123.33552502708021,3.774003999999999 122.8638110270802,3.859706999999999 122.3921500270802,3.940503999999999 121.92053902708021,4.0163959999999985 121.4489760270802,4.087384999999999 120.9774570270802,4.153471999999999 120.50598002708021,4.214657999999999 120.0345420270802,4.270944999999999 119.56313902708021,4.322332999999999 119.0917690270802,4.368823999999999 118.6204290270802,4.410417999999999 118.14911502708021,4.447116999999999 117.6778240270802,4.478920999999999 117.2065530270802,4.505830999999999 116.7352990270802,4.527847999999999 116.26405802708021,4.5449709999999985 115.7928280270802,4.557201999999998 115.32160402708021,4.564539999999999 114.85038302708021,4.566986999999999 114.37916202708021,4.564539999999999 113.9079380270802,4.557201999999998 113.43670802708021,4.5449709999999985 112.96546702708021,4.527847999999999 112.4942130270802,4.505830999999999 112.0229420270802,4.478920999999999 111.55165102708021,4.447116999999999 111.0803370270802,4.410417999999999 110.6089970270802,4.368823999999999 110.13762702708021,4.322332999999999 109.6662240270802,4.270944999999999 109.19478602708021,4.214657999999999 108.7233090270802,4.153471999999999 108.2517900270802,4.087384999999999 107.78022702708022,4.0163959999999985 107.3086160270802,3.940503999999999 106.83695502708021,3.859706999999999 106.3652410270802,3.774003999999999 105.89347202708021,3.6833919999999987 105.21834302708021,3.5467129999999987 105.21834302708021,10.087286999999998 105.50641802708022,10.145608 105.99785302708021,10.239996" /><polygon points="132.5945280294114,8.709701999999998 133.1260630294114,8.780695 133.65761902941142,8.847634 134.18919502941142,8.910518 134.7207910294114,8.969346999999999 135.25240502941142,9.024121 135.78403602941142,9.074839999999998 136.31568302941142,9.121502 136.8473440294114,9.164107 137.3790180294114,9.202656 137.91070402941142,9.237148 138.4424010294114,9.267582999999998 138.9741070294114,9.293959999999998 139.5058210294114,9.316279999999999 140.03754102941141,9.334541999999999 140.5692670294114,9.348745 141.10099702941142,9.358890999999998 141.63272902941142,9.364977999999999 142.16446302941142,9.367007 142.69619702941142,9.364977999999999 143.2279290294114,9.358890999999998 143.7596590294114,9.348745 144.2913850294114,9.334541999999999 144.8231050294114,9.316279999999999 145.3548190294114,9.293959999999998 145.88652502941142,9.267582999999998 146.41822202941142,9.237148 146.9499080294114,9.202656 147.4815820294114,9.164107 148.0132430294114,9.121502 148.54489002941142,9.074839999999998 149.07652102941142,9.024121 149.60813502941141,8.969346999999999 150.13973102941142,8.910518 150.67130702941142,8.847634 151.20286302941142,8.780695 151.7343980294114,8.709701999999998 152.2659090294114,8.634656 153.6465030294114,8.429188 153.6465030294114,3.407159999999999 151.9788930294114,3.6553439999999986 151.4622000294114,3.728297999999999 150.9455310294114,3.797304999999999 150.4288830294114,3.862365999999999 149.9122550294114,3.923481999999999 149.3956470294114,3.980652999999999 148.8790570294114,4.033878999999999 148.3624840294114,4.083159999999999 147.8459270294114,4.128497999999999 147.32938402941141,4.169892999999998 146.8128540294114,4.207343999999999 146.2963360294114,4.2408519999999985 145.77982902941142,4.270416999999998 145.2633310294114,4.296039999999999 144.7468410294114,4.317719999999999 144.2303570294114,4.335457999999999 143.7138790294114,4.3492549999999985 143.1974050294114,4.359108999999998 142.68093302941142,4.365021999999999 142.16446302941142,4.366992999999999 141.6479930294114,4.365021999999999 141.1315210294114,4.359108999999998 140.61504702941141,4.3492549999999985 140.0985690294114,4.335457999999999 139.58208502941142,4.317719999999999 139.0655950294114,4.296039999999999 138.5490970294114,4.270416999999998 138.0325900294114,4.2408519999999985 137.51607202941142,4.207343999999999 136.9995420294114,4.169892999999998 136.48299902941142,4.128497999999999 135.9664420294114,4.083159999999999 135.44986902941142,4.033878999999999 134.9332790294114,3.980652999999999 134.41667102941142,3.923481999999999 133.90004302941142,3.862365999999999 133.38339502941142,3.797304999999999 132.8667260294114,3.728297999999999 132.3500330294114,3.6553439999999986 131.6824230294114,3.555985999999999 131.6824230294114,8.578014 132.0630170294114,8.634656 132.5945280294114,8.709701999999998" /><polygon points="3.0,147.567 11.00722,147.567 10.601177,91.127068 14.824921999999999,78.561427 12.300661,77.299296 11.604548000000001,78.22766399999999 11.408809,78.489279 11.212994,78.75214299999999 11.017382000000001,79.01646199999999 10.822256,79.282446 10.6279,79.55030799999999 10.434603,79.82026099999999 10.242656,80.09251699999999 10.052355,80.36729299999999 9.863996,80.644804 9.677882,80.925265 9.494319,81.20889299999999 9.313614999999999,81.49590199999999 9.136242,81.78624699999999 8.963303,82.07839 8.795078,82.36992199999999 8.630749999999999,82.65959099999999 8.469275,82.946609 8.309653,83.230199 8.150927,83.509593 7.992184,83.78403499999999 7.832553,84.05278499999999 7.671203,84.31512299999999 7.507341,84.570358 7.340206,84.81784099999999 7.169058,85.056974 6.993161,85.287239 6.810869,85.5093 6.619404,85.726142 6.41765,85.940491 6.206278,86.153185 5.986212,86.36488399999999 5.7584420000000005,86.576276 5.524011,86.78808799999999 5.322425,86.967 3.0,86.967 3.0,147.567" /><polygon points="18.6,88.838905 25.6,93.248905 32.6,88.838905 32.6,77.567 18.6,77.567 18.6,88.838905" /></g><g fill="none" id="COSTURA" stroke="#00a000" stroke-width="0.08"><polygon points="4.0,13.966999999999999 5.7,13.966999999999999 5.946137211430921,13.750489070671314 6.1911230351686255,13.533058943868005 6.433806083519894,13.313790422115447 6.673034968791513,13.091764307939016 6.907658303290262,12.866061403864089 7.136524699322925,12.635762512416038 7.358482769196286,12.399948436120248 7.5723811252171265,12.157699977502082 7.777197617466955,11.908200191163546 7.973182834463885,11.65163911397952 8.161311146615965,11.388779434291722 8.342565282091677,11.120390453046895 8.517927969059487,10.847241471191781 8.688381935687879,10.570101789673126 8.854909910145325,10.289740709437675 9.018494620600304,10.006927531432169 9.180118795221286,9.722431556603354 9.340765162176753,9.437022085897976 9.501416449635176,9.151468420262775 9.663055385765034,8.8665398606445 9.826664698734799,8.583005707989892 9.993226961401806,8.301635142964255 10.16345393201771,8.022987612599035 10.337230036760209,7.7469818327441144 10.514282265311873,7.473414591821777 10.694337607355273,7.202082678254309 10.877123052572978,6.932782880463992 11.062365590647557,6.665311986873114 11.24979221126158,6.3994667859039565 11.439129904097616,6.135044065978807 11.630105658838232,5.8718406155199485 11.822446465166006,5.609653222949667 12.015879312763497,5.348278676690247 12.21013119131328,5.087513765163972 12.404929090497925,4.827155276793128 12.6,4.566999999999998 24.0564392373896,9.566999999999998 49.2564392373896,12.591 49.2564392373896,38.591 48.03501551583906,38.73238597733956 46.82086120641677,38.86273472302781 45.621245721250986,38.97100900541344 44.44343847246993,39.046171592845155 43.29470887220185,39.07718525367162 42.18232633257502,39.05301275624156 41.11356026571769,38.962616868903645 40.09568008375806,38.79496036000658 39.135955198824426,38.53900599789904 38.24165502304501,38.18371655092972 37.420048968548066,37.71805478744733 36.67840632190699,37.13098365445358 36.0193002300533,36.418148274841954 35.42817664750246,35.59956419508432 34.88657810126102,34.70080118090161 34.37604711833555,33.74742899801474 33.87812622573259,32.76501741214467 33.37435795045872,31.77913618901232 32.846284819520484,30.815355094338628 32.27733768757773,29.896789709395772 31.668225228936535,29.02410031951704 31.028922516078286,28.185904040378123 30.36949296707532,27.370703168399096 29.7,26.567 29.7,72.567 4.0,72.567" /><polygon points="55.2564392373896,6.566999999999998 55.50889354660301,6.567356362819069 55.761270100304834,6.567118589548961 56.013491142983476,6.565692544100492 56.26547891912735,6.562484090384484 56.517155673224856,6.556899092311756 56.768443649764414,6.54834341379313 57.01926509323443,6.536222918739424 57.269542248123315,6.519943471061459 57.51919735891948,6.498910934670055 57.76815267011133,6.472531173476032 58.01633042618727,6.440210051390212 58.26365287163572,6.401353432323412 58.510041810826806,6.355368816906701 58.75535899513875,6.3018870319789135 58.99934569584961,6.240986948065579 59.2417287892041,6.172800968215918 59.48223515144691,6.097461495479148 59.72059165882273,6.015100932904492 59.95652518757626,5.9258516835411665 60.18976261395221,5.829846150438392 60.42003081419527,5.72721673664539 60.647056664550135,5.6180958452113785 60.8705670412615,5.502615879185577 61.09033787472606,5.3809548483733245 61.30664787713157,5.253758210198592 61.520070729376215,5.12194566117614 61.73118386149217,4.98644038347551 61.9405647035116,4.8481655592662465 62.148790685466686,4.708044370717896 62.3564392373896,4.566999999999998 74.0183430270802,9.066999999999998 99.21834302708021,12.091 99.21834302708021,38.091 97.97247080499194,38.2962131057879 96.73389301468686,38.48983298967324 95.50990408794812,38.66026642975347 94.30779845655888,38.79592020412605 93.13487055230229,38.885201090888394 91.99841480696155,38.916515868137985 90.90572565231983,38.878271313972256 89.86409752016027,38.75887420648865 88.88082484226607,38.54673132378461 87.96320205042036,38.23024944395759 87.11852357640635,37.79783534510504 86.35408385200716,37.237895805324385 85.67434641133708,36.54303886452573 85.06665113545829,35.73128533202085 84.51193241866329,34.83016223391357 83.99111350274416,33.86721314744433 83.48511762949298,32.86998164985364 82.9748680407018,31.866011318381958 82.44128797816272,30.882845730269757 81.86677531166826,29.946037197778647 81.25070759925586,29.05820949896149 80.60334019585152,28.207297571035042 79.93510633178587,27.38099615703573 79.2564392373896,26.567 79.2564392373896,72.567 55.2564392373896,72.567" /><polygon points="105.21834302708021,4.566999999999998 105.69994502713848,4.6644999999999985 106.18154702719677,4.756999999999999 106.66314902725505,4.844499999999999 107.14475102731333,4.926999999999999 107.62635302737161,5.004499999999998 108.1079550274299,5.076999999999999 108.58955702748817,5.144499999999999 109.07115902754646,5.206999999999999 109.55276102760473,5.264499999999999 110.034363027663,5.316999999999998 110.5159650277213,5.364499999999999 110.99756702777957,5.406999999999998 111.47916902783786,5.444499999999999 111.96077102789613,5.4769999999999985 112.44237302795442,5.504499999999998 112.92397502801269,5.526999999999999 113.40557702807097,5.544499999999999 113.88717902812925,5.556999999999999 114.36878102818753,5.564499999999999 114.85038302824582,5.566999999999998 115.33198502830409,5.564499999999999 115.81358702836238,5.556999999999999 116.29518902842065,5.544499999999999 116.77679102847893,5.526999999999999 117.25839302853721,5.504499999999998 117.73999502859549,5.4769999999999985 118.22159702865378,5.444499999999999 118.70319902871205,5.406999999999999 119.18480102877034,5.364499999999999 119.66640302882861,5.316999999999998 120.1480050288869,5.264499999999999 120.62960702894517,5.206999999999999 121.11120902900345,5.144499999999999 121.59281102906174,5.076999999999999 122.07441302912001,5.004499999999998 122.5560150291783,4.926999999999999 123.03761702923657,4.844499999999998 123.51921902929485,4.756999999999999 124.00082102935313,4.6644999999999985 124.48242302941142,4.566999999999998 125.68242302941141,11.066999999999998 124.48242302941142,9.066999999999998 124.00082102935313,9.164499999999999 123.51921902929485,9.257 123.03761702923657,9.344499999999998 122.5560150291783,9.426999999999998 122.07441302912001,9.504499999999998 121.59281102906174,9.576999999999998 121.11120902900345,9.644499999999999 120.62960702894517,9.706999999999999 120.1480050288869,9.764499999999998 119.66640302882861,9.816999999999998 119.18480102877034,9.8645 118.70319902871205,9.906999999999998 118.22159702865378,9.944499999999998 117.73999502859549,9.976999999999999 117.25839302853721,10.004499999999998 116.77679102847893,10.027 116.29518902842065,10.0445 115.81358702836238,10.056999999999999 115.33198502830409,10.064499999999999 114.85038302824582,10.066999999999998 114.36878102818753,10.064499999999999 113.88717902812925,10.056999999999999 113.40557702807097,10.0445 112.92397502801269,10.027 112.44237302795442,10.004499999999998 111.96077102789613,9.976999999999999 111.47916902783786,9.9445 110.99756702777957,9.906999999999998 110.5159650277213,9.8645 110.034363027663,9.816999999999998 109.55276102760473,9.764499999999998 109.07115902754646,9.706999999999999 108.58955702748817,9.644499999999999 108.1079550274299,9.576999999999998 107.62635302737161,9.504499999999998 107.14475102731333,9.426999999999998 106.66314902725505,9.344499999999998 106.18154702719677,9.256999999999998 105.69994502713848,9.164499999999999 105.21834302708021,9.066999999999998" /><polygon points="131.6824230294114,4.566999999999998 132.2065250294697,4.644999999999999 132.73062702952797,4.7189999999999985 133.25472902958626,4.788999999999999 133.77883102964452,4.854999999999999 134.3029330297028,4.916999999999999 134.82703502976108,4.974999999999999 135.35113702981937,5.028999999999999 135.87523902987766,5.078999999999999 136.39934102993593,5.124999999999999 136.92344302999422,5.166999999999999 137.44754503005248,5.204999999999999 137.97164703011077,5.238999999999999 138.49574903016907,5.268999999999998 139.01985103022733,5.294999999999999 139.54395303028562,5.316999999999998 140.06805503034388,5.334999999999999 140.59215703040218,5.348999999999998 141.11625903046044,5.358999999999999 141.64036103051873,5.364999999999998 142.16446303057702,5.366999999999999 142.6885650306353,5.364999999999998 143.21266703069358,5.358999999999999 143.73676903075184,5.348999999999998 144.26087103081014,5.334999999999999 144.7849730308684,5.316999999999998 145.3090750309267,5.294999999999999 145.83317703098498,5.268999999999998 146.35727903104325,5.238999999999999 146.88138103110154,5.204999999999999 147.4054830311598,5.166999999999999 147.9295850312181,5.124999999999999 148.4536870312764,5.078999999999999 148.97778903133465,5.028999999999999 149.50189103139294,4.974999999999999 150.0259930314512,4.916999999999999 150.5500950315095,4.854999999999999 151.07419703156776,4.788999999999999 151.59829903162606,4.718999999999999 152.12240103168432,4.644999999999999 152.6465030317426,4.566999999999998 152.6465030317426,7.566999999999998 152.12240103168432,7.645 151.59829903162606,7.718999999999999 151.07419703156776,7.788999999999999 150.5500950315095,7.854999999999999 150.0259930314512,7.916999999999999 149.50189103139294,7.974999999999999 148.97778903133465,8.029 148.4536870312764,8.078999999999999 147.9295850312181,8.124999999999998 147.4054830311598,8.166999999999998 146.88138103110154,8.204999999999998 146.35727903104325,8.238999999999999 145.83317703098498,8.268999999999998 145.3090750309267,8.294999999999998 144.7849730308684,8.316999999999998 144.26087103081014,8.334999999999999 143.73676903075184,8.348999999999998 143.21266703069358,8.358999999999998 142.6885650306353,8.364999999999998 142.16446303057702,8.366999999999999 141.64036103051873,8.364999999999998 141.11625903046044,8.358999999999998 140.59215703040218,8.348999999999998 140.06805503034388,8.334999999999999 139.54395303028562,8.316999999999998 139.01985103022733,8.294999999999998 138.49574903016907,8.268999999999998 137.97164703011077,8.238999999999999 137.44754503005248,8.204999999999998 136.92344302999422,8.166999999999998 136.39934102993593,8.124999999999998 135.87523902987766,8.078999999999999 135.35113702981937,8.028999999999998 134.82703502976108,7.974999999999999 134.3029330297028,7.916999999999999 133.77883102964452,7.854999999999999 133.25472902958626,7.788999999999999 132.73062702952797,7.718999999999999 132.2065250294697,7.645 131.6824230294114,7.566999999999998" /><polygon points="4.0,87.967 5.7,87.967 5.946137211430921,87.7504890706713 6.1911230351686255,87.533058943868 6.433806083519894,87.31379042211545 6.673034968791513,87.09176430793902 6.907658303290262,86.86606140386408 7.136524699322925,86.63576251241604 7.358482769196286,86.39994843612024 7.5723811252171265,86.15769997750208 7.777197617466955,85.90820019116354 7.973182834463885,85.65163911397951 8.161311146615965,85.38877943429172 8.342565282091677,85.1203904530469 8.517927969059487,84.84724147119178 8.688381935687879,84.57010178967312 8.854909910145325,84.28974070943767 9.018494620600304,84.00692753143217 9.180118795221286,83.72243155660335 9.340765162176753,83.43702208589796 9.501416449635176,83.15146842026277 9.663055385765034,82.8665398606445 9.826664698734799,82.58300570798988 9.993226961401806,82.30163514296424 10.16345393201771,82.02298761259902 10.337230036760209,81.74698183274411 10.514282265311873,81.47341459182176 10.694337607355273,81.2020826782543 10.877123052572978,80.93278288046399 11.062365590647557,80.6653119868731 11.24979221126158,80.39946678590395 11.439129904097616,80.1350440659788 11.630105658838232,79.87184061551994 11.822446465166006,79.60965322294966 12.015879312763497,79.34827867669024 12.21013119131328,79.08751376516396 12.404929090497925,78.82715527679312 12.6,78.567 13.6,79.067 9.600000000000001,90.967 10.0,146.567 4.0,146.567" /><polygon points="19.6,78.567 31.6,78.567 31.6,88.28699999999999 25.6,92.067 19.6,88.28699999999999" /></g><g fill="none" id="PIQUETES" stroke="#00b0b0" stroke-width="0.08"><line x1="22.21301972194717" x2="22.445651804485273" y1="16.250305651922744" y2="16.85320059648107" /><line x1="22.69298370648066" x2="22.445651804485273" y1="16.256185579705658" y2="16.85320059648107" /><line x1="29.894662915895566" x2="29.349051738365937" y1="47.126620695346375" y2="46.78034271026109" /><line x1="29.505337084104433" x2="29.349051738365937" y1="47.40737930465363" y2="46.78034271026109" /><line x1="64.15378424222254" x2="64.59373579437354" y1="14.65342033956629" y2="15.126751758088165" /><line x1="64.60158564869309" x2="64.59373579437354" y1="14.480579660433706" y2="15.126751758088165" /></g><g fill="none" id="TEXTOS" stroke="#000000" stroke-width="0.08"><text fill="#000000" font-family="sans-serif" font-size="0.9" stroke="none" text-anchor="middle" x="22.200461894557062" y="34.16744745144183">DELANTERO KIMONO</text><text fill="#000000" font-family="sans-serif" font-size="0.6" stroke="none" text-anchor="middle" x="22.200461894557062" y="35.56744745144182">Pieza N.01</text><text fill="#000000" font-family="sans-serif" font-size="0.6" stroke="none" text-anchor="middle" x="22.200461894557062" y="36.96744745144183">Talla: S</text><text fill="#000000" font-family="sans-serif" font-size="0.6" stroke="none" text-anchor="middle" x="22.200461894557062" y="38.367447451441826">Cortar: 2  (par: izq + der)</text><text fill="#000000" font-family="sans-serif" font-size="0.9" stroke="none" text-anchor="middle" x="72.62671568790687" y="32.33886446515751">ESPALDA KIMONO</text><text fill="#000000" font-family="sans-serif" font-size="0.6" stroke="none" text-anchor="middle" x="72.62671568790687" y="33.73886446515751">Pieza N.02</text><text fill="#000000" font-family="sans-serif" font-size="0.6" stroke="none" text-anchor="middle" x="72.62671568790687" y="35.13886446515751">Talla: S</text><text fill="#000000" font-family="sans-serif" font-size="0.6" stroke="none" text-anchor="middle" x="72.62671568790687" y="36.53886446515751">Cortar: 1  (al doblez)</text><text fill="#000000" font-family="sans-serif" font-size="0.6" stroke="none" text-anchor="middle" x="72.62671568790687" y="37.938864465157515">AL DOBLEZ</text><text fill="#000000" font-family="sans-serif" font-size="0.9" stroke="none" text-anchor="middle" x="115.15340355575037" y="3.9059165418155337">CUELLO</text><text fill="#000000" font-family="sans-serif" font-size="0.6" stroke="none" text-anchor="middle" x="115.15340355575037" y="5.305916541815534">Pieza N.07</text><text fill="#000000" font-family="sans-serif" font-size="0.6" stroke="none" text-anchor="middle" x="115.15340355575037" y="6.705916541815533">Talla: S</text><text fill="#000000" font-family="sans-serif" font-size="0.6" stroke="none" text-anchor="middle" x="115.15340355575037" y="8.105916541815533">Cortar: 2  (al doblez x2 (+ entretela))</text><text fill="#000000" font-family="sans-serif" font-size="0.6" stroke="none" text-anchor="middle" x="115.15340355575037" y="9.505916541815534">AL DOBLEZ</text><text fill="#000000" font-family="sans-serif" font-size="0.9" stroke="none" text-anchor="middle" x="142.16446303057702" y="3.0">PIE DE CUELLO</text><text fill="#000000" font-family="sans-serif" font-size="0.6" stroke="none" text-anchor="middle" x="142.16446303057702" y="4.4">Pieza N.08</text><text fill="#000000" font-family="sans-serif" font-size="0.6" stroke="none" text-anchor="middle" x="142.16446303057702" y="5.8">Talla: S</text><text fill="#000000" font-family="sans-serif" font-size="0.6" stroke="none" text-anchor="middle" x="142.16446303057702" y="7.199999999999999">Cortar: 2  (al doblez x2 (+ entretela))</text><text fill="#000000" font-family="sans-serif" font-size="0.6" stroke="none" text-anchor="middle" x="142.16446303057702" y="8.6">AL DOBLEZ</text><text fill="#000000" font-family="sans-serif" font-size="0.9" stroke="none" text-anchor="middle" x="7.150212866252476" y="112.4315881491815">VISTA DELANTERA</text><text fill="#000000" font-family="sans-serif" font-size="0.6" stroke="none" text-anchor="middle" x="7.150212866252476" y="113.83158814918148">Pieza N.09</text><text fill="#000000" font-family="sans-serif" font-size="0.6" stroke="none" text-anchor="middle" x="7.150212866252476" y="115.23158814918149">Talla: S</text><text fill="#000000" font-family="sans-serif" font-size="0.6" stroke="none" text-anchor="middle" x="7.150212866252476" y="116.6315881491815">Cortar: 2  (par: izq + der)</text><text fill="#000000" font-family="sans-serif" font-size="0.9" stroke="none" text-anchor="middle" x="25.6" y="81.72327906976743">BOLSILLO</text><text fill="#000000" font-family="sans-serif" font-size="0.6" stroke="none" text-anchor="middle" x="25.6" y="83.12327906976743">Pieza N.10</text><text fill="#000000" font-family="sans-serif" font-size="0.6" stroke="none" text-anchor="middle" x="25.6" y="84.52327906976744">Talla: S</text><text fill="#000000" font-family="sans-serif" font-size="0.6" stroke="none" text-anchor="middle" x="25.6" y="85.92327906976743">Cortar: 1  (1 (opcional))</text></g><g fill="none" id="CENTROS" stroke="#0050ff" stroke-width="0.08"><circle cx="18.9" cy="29.567" fill="#0050ff" r="0.15" /></g><g fill="none" id="HILO" stroke="#c0a000" stroke-width="0.08"><line x1="17.7" x2="17.7" y1="16.967" y2="69.567" /><line x1="17.7" x2="18.167302010770378" y1="69.567" y2="68.46172680719654" /><line x1="17.7" x2="17.232697989229617" y1="69.567" y2="68.46172680719654" /><line x1="17.7" x2="17.23269798922962" y1="16.967" y2="18.07227319280346" /><line x1="17.7" x2="18.167302010770378" y1="16.967" y2="18.07227319280346" /><line x1="55.7564392373896" x2="55.7564392373896" y1="17.567" y2="69.567" /><line x1="55.7564392373896" x2="56.22374124815998" y1="69.567" y2="68.46172680719654" /><line x1="55.7564392373896" x2="55.28913722661922" y1="69.567" y2="68.46172680719654" /><line x1="55.7564392373896" x2="55.28913722661922" y1="17.567" y2="18.67227319280346" /><line x1="55.7564392373896" x2="56.22374124815998" y1="17.567" y2="18.67227319280346" /><line x1="105.71834302708021" x2="123.98242302941142" y1="5.066999999999998" y2="5.066999999999998" /><line x1="123.98242302941142" x2="122.87714983660796" y1="5.066999999999998" y2="4.599697989229618" /><line x1="123.98242302941142" x2="122.87714983660796" y1="5.066999999999998" y2="5.5343020107703795" /><line x1="105.71834302708021" x2="106.82361621988368" y1="5.066999999999998" y2="5.5343020107703795" /><line x1="105.71834302708021" x2="106.82361621988368" y1="5.066999999999998" y2="4.599697989229618" /><line x1="132.1824230294114" x2="152.1465030317426" y1="4.966999999999999" y2="4.966999999999999" /><line x1="152.1465030317426" x2="151.04122983893916" y1="4.966999999999999" y2="4.4996979892296185" /><line x1="152.1465030317426" x2="151.04122983893916" y1="4.966999999999999" y2="5.434302010770379" /><line x1="132.1824230294114" x2="133.28769622221486" y1="4.966999999999999" y2="5.434302010770379" /><line x1="132.1824230294114" x2="133.28769622221486" y1="4.966999999999999" y2="4.4996979892296185" /><line x1="7.0" x2="7.0" y1="92.967" y2="143.567" /><line x1="7.0" x2="7.467302010770381" y1="143.567" y2="142.46172680719656" /><line x1="7.0" x2="6.532697989229619" y1="143.567" y2="142.46172680719656" /><line x1="7.0" x2="6.53269798922962" y1="92.967" y2="94.07227319280345" /><line x1="7.0" x2="7.46730201077038" y1="92.967" y2="94.07227319280345" /><line x1="25.6" x2="25.6" y1="79.567" y2="88.28699999999999" /><line x1="25.6" x2="26.06730201077038" y1="88.28699999999999" y2="87.18172680719653" /><line x1="25.6" x2="25.13269798922962" y1="88.28699999999999" y2="87.18172680719653" /><line x1="25.6" x2="25.13269798922962" y1="79.567" y2="80.67227319280346" /><line x1="25.6" x2="26.06730201077038" y1="79.567" y2="80.67227319280346" /></g><g fill="none" id="DOBLEZ" stroke="#c000c0" stroke-width="0.08"><line x1="55.2564392373896" x2="55.2564392373896" y1="4.566999999999998" y2="72.567" /><line x1="105.21834302708021" x2="105.21834302708021" y1="4.566999999999998" y2="11.066999999999998" /><line x1="131.6824230294114" x2="131.6824230294114" y1="4.566999999999998" y2="8.366999999999999" /></g><g fill="none" id="BOTONES" stroke="#ff8000" stroke-width="0.08"><circle cx="5.7" cy="15.466999999999999" fill="#ff8000" r="0.55" /><circle cx="5.7" cy="23.983666666666668" fill="#ff8000" r="0.55" /><circle cx="5.7" cy="32.50033333333334" fill="#ff8000" r="0.55" /><circle cx="5.7" cy="41.017" fill="#ff8000" r="0.55" /><circle cx="5.7" cy="49.53366666666667" fill="#ff8000" r="0.55" /><circle cx="5.7" cy="58.050333333333334" fill="#ff8000" r="0.55" /><circle cx="5.7" cy="66.56700000000001" fill="#ff8000" r="0.55" /><circle cx="151.6465030317426" cy="6.066999999999998" fill="#ff8000" r="0.55" /></g><g fill="none" id="OJAL" stroke="#ff40a0" stroke-width="0.08"><line x1="4.9" x2="6.5" y1="15.466999999999999" y2="15.466999999999999" /><line x1="4.9" x2="6.5" y1="23.983666666666668" y2="23.983666666666668" /><line x1="4.9" x2="6.5" y1="32.50033333333334" y2="32.50033333333334" /><line x1="4.9" x2="6.5" y1="41.017" y2="41.017" /><line x1="4.9" x2="6.5" y1="49.53366666666667" y2="49.53366666666667" /><line x1="4.9" x2="6.5" y1="58.050333333333334" y2="58.050333333333334" /><line x1="4.9" x2="6.5" y1="66.56700000000001" y2="66.56700000000001" /></g><g fill="none" id="REFERENCIAS" stroke="#b0b0b0" stroke-width="0.08"><text fill="#000000" font-family="sans-serif" font-size="0.5" stroke="none" text-anchor="start" x="5.7" y="12.966999999999999">CF</text><text fill="#000000" font-family="sans-serif" font-size="0.5" stroke="none" text-anchor="start" x="55.5564392373896" y="43.567">CB</text><text fill="#000000" font-family="sans-serif" font-size="0.5" stroke="none" text-anchor="start" x="25.6" y="80.067">boca</text></g></svg>