<?xml version="1.0" encoding="utf-8" ?>
<svg baseProfile="full" height="68.21784cm" version="1.1" viewBox="0 0 99.28505460978944 68.21784" width="99.28505460978944cm" xmlns="http://www.w3.org/2000/svg" xmlns:ev="http://www.w3.org/2001/xml-events" xmlns:xlink="http://www.w3.org/1999/xlink"><defs /><g fill="none" id="CONSTRUCCION" stroke="#888888" stroke-width="0.08"><line x1="27.0" x2="14.8" y1="25.01784" y2="26.76784" /><line x1="27.0" x2="14.8" y1="28.51784" y2="26.76784" /><line x1="14.3" x2="12.8" y1="48.51784" y2="29.51784" /><line x1="11.3" x2="12.8" y1="48.51784" y2="29.51784" /><line x1="44.2" x2="42.45" y1="45.01784" y2="33.01783999999999" /><line x1="40.7" x2="42.45" y1="45.01784" y2="33.01783999999999" /><line x1="45.230951894845305" x2="42.45" y1="6.46784" y2="14.46784" /><line x1="46.230951894845305" x2="42.45" y1="6.46784" y2="14.46784" /></g><g fill="none" id="CORTE" stroke="#d00000" stroke-width="0.08"><polygon points="12.8,42.223919 13.375836,49.51784 26.448652,49.51784 26.586621,46.901687 26.676636,45.234268 26.770724,43.568401 26.870948,41.904243 26.979365,40.241948 27.098043,38.581459 27.228415,36.921839000000006 27.369181,35.261957 27.518308,33.601456 27.673742,31.940182 27.833426,30.277983 28.087855,27.663649 21.842785,26.76784 28.830348,25.765525999999998 27.496533,24.020819 27.198104,23.631024 26.89799,23.240163 26.595883,22.848405 26.291262,22.455645999999998 25.983609,22.061783 25.672406,21.666715 25.357135,21.270348 25.037304,20.872616999999998 24.713248,20.474411 24.387729,20.077533 24.06459,19.682646 23.746796,19.28931 23.43724,18.897123 23.138797,18.505798 22.8543,18.115155 22.586515,17.72512 22.338105,17.33571 22.111583,16.947006000000002 21.909265,16.559107 21.733218,16.172049 21.585225,15.785689000000001 21.4665,15.398586 21.376589,15.005012 21.313017,14.599468 21.27404,14.180768 21.258136,13.749127000000001 21.263689,13.305094 21.28893,12.849440000000001 21.331926,12.383072 21.390586,11.906955 21.462683,11.422057 21.545875,10.929324 21.637723,10.429647 21.735714,9.923856 21.994114,8.623273000000001 9.109577999999999,3.0 8.448354,3.7994000000000003 8.266821,4.019348 8.08508,4.240513 7.903374,4.463093 7.721947,4.687288000000001 7.541047,4.9133 7.360925,5.141332 7.181836,5.37159 7.004037,5.604281 6.827788,5.839611 6.6533560000000005,6.077787 6.481009,6.319016 6.311021,6.563505 6.143862,6.811172 5.980727,7.060426 5.8220600000000005,7.308902 5.667178,7.555429 5.515175,7.799257 5.36519,8.039651 5.2164090000000005,8.275887 5.068061,8.507255 4.919417,8.733063 4.769793,8.952644 4.6185410000000005,9.165365 4.465041,9.370636000000001 4.308698,9.567927000000001 4.148885,9.756817999999999 3.983755,9.938327000000001 3.810444,10.115523 3.627877,10.290695 3.436627,10.464500999999998 3.237446,10.637514 3.031152,10.810341000000001 3.0,10.83574 3.0,49.51784 12.224164,49.51784 12.8,42.223919" /><polygon points="42.45,39.947516 43.335256,46.01784 56.448651999999996,46.01784 56.586621,43.401687 56.676636,41.734268 56.770724,40.068401 56.870948,38.404243 56.979365,36.741948 57.098043000000004,35.081459 57.228415,33.421839 57.369181,31.761957 57.518308000000005,30.101456 57.673742000000004,28.440182 57.833426,26.777983 58.035668,24.699889 57.43921,23.981237999999998 57.107989,23.582901 56.774022,23.182741 56.436671000000004,22.780735 56.095011,22.376519 55.748119,21.969735 55.395077,21.560031 55.034971,21.147060999999997 54.666891,20.730486 54.290581,20.310682999999997 53.908615999999995,19.889488 53.526844,19.468745 53.149547999999996,19.048233 52.781245,18.628139 52.426381,18.208751 52.089396,17.790568 51.774682999999996,17.374323 51.486512000000005,16.960991 51.228933999999995,16.551797 51.00563,16.148163 50.819724,15.751583 50.673598,15.363344000000001 50.568781,14.984062000000002 50.505958,14.61231 50.485023,14.238966000000001 50.504553,13.852247 50.563454,13.447775 50.660446,13.025715 50.79351,12.587333000000001 50.959834,12.134383 51.155957,11.66872 51.377938,11.192076 51.621519,10.705964 51.882243,10.211648 52.155536999999995,9.710142999999999 52.975567999999996,8.229076 45.736511,5.173734 45.570209,5.525608 39.779789,3.081683 39.128211,3.537283 38.932473,3.67288 38.739221,3.804274 38.547955,3.9306840000000003 38.358201,4.051386 38.169484,4.165718 37.980722,4.273434 37.789923,4.375094 37.596043,4.4712320000000005 37.399257,4.56175 37.199871,4.646488 36.998194,4.725292 36.794535,4.7980149999999995 36.589205,4.864515 36.382515,4.924658 36.174774,4.9783170000000005 35.966205,5.02539 35.756151,5.065983 35.543383,5.100591 35.327408,5.129708 35.108222,5.1537500000000005 34.885857,5.173142 34.660367,5.188328 34.431822,5.199767 34.200306,5.207938 33.965908,5.213337 33.728721,5.216483 33.488838,5.21791 33.246352,5.218172 33.0,5.217839 33.0,46.01784 41.564744,46.01784 42.45,39.947516" /><polygon points="66.20388660978945,65.21784 92.04820260978944,65.21784 96.28505460978944,12.993173 95.56409660978944,12.237229000000001 95.14617060978945,11.804068000000001 94.71959560978945,11.372081 94.28253660978945,10.944643 93.83557960978945,10.526024 93.38102660978944,10.117795000000001 92.91980260978944,9.719401 92.45250160978945,9.329992 91.97970960978944,8.948712 91.50199760978944,8.574708999999999 91.01992660978945,8.207129 90.53404660978944,7.845122 90.04488860978944,7.487831 89.55212160978945,7.133818 89.05359260978945,6.781941 88.54711960978945,6.433691 88.03178660978945,6.091782 87.50675660978945,5.759059 86.97115160978944,5.438421 86.42406260978944,5.132834 85.86457460978944,4.845351 85.29179660978944,4.579127 84.70491960978944,4.33744 84.10508360978945,4.124297 83.49742860978945,3.942046 82.88686460978944,3.787951 82.27516660978945,3.6578280000000003 81.66365060978944,3.5474959999999998 81.05352360978945,3.452894 80.44594460978945,3.370083 79.84205160978945,3.2952500000000002 79.15083760978945,3.2138489999999997 78.44739760978945,3.2616490000000002 77.83178060978945,3.307078 77.21240060978944,3.360062 76.59023660978944,3.424343 75.96627360978944,3.503782 75.34152860978945,3.602359 74.71710360978945,3.7241720000000003 74.09427160978944,3.8734159999999997 73.47631660978945,4.05378 72.86877760978945,4.265343 72.27441360978945,4.504354 71.69286960978944,4.76762 71.12344760978945,5.052137 70.56540160978945,5.354996 70.01796460978944,5.673378 69.48037460978945,6.004536 68.95189160978944,6.345783 68.43181260978945,6.694482 67.91894060978944,7.048392 67.41033560978944,7.407572 66.90483060978944,7.775117 66.40398860978945,8.153414999999999 65.90999660978945,8.544497 65.42509360978944,8.950436 64.95159860978944,9.373339999999999 64.49192360978944,9.815324 64.04859960978945,10.278486000000001 63.624671609789445,10.764423 63.22608360978945,11.269752 62.854084609789446,11.783934 62.50316460978945,12.298248000000001 61.97530660978944,13.095131 66.20388660978945,65.21784" /></g><g fill="none" id="COSTURA" stroke="#00a000" stroke-width="0.08"><polygon points="3.0,12.117840000000001 3.224029020095864,11.940077658455614 3.447094432330193,11.761468840371377 3.668232628841458,11.581167069207433 3.886480001768121,11.398325868423935 4.10087294324865,11.212098761481029 4.310447845421514,11.02163927183886 4.514241100425179,10.826100922957579 4.71128910039811,10.624637238297332 4.900686731513668,10.41645265134619 5.082481360351888,10.201580582756195 5.257495200654993,9.980728838024472 5.426572958422013,9.754624798685679 5.590559339651982,9.523995846274463 5.750299050343932,9.289569362325484 5.906636796496895,9.05207272837339 6.060417284109902,8.812233325952839 6.212485219181986,8.570778536598482 6.36368530771218,8.32843574184497 6.514862255699515,8.08593232322696 6.666860769143024,7.8439956622791005 6.820525554041739,7.603353140536051 6.976701286108549,7.364732113733559 7.136021248889153,7.12867986561904 7.298401834446947,6.8951330041691214 7.463607610260611,6.663898807332677 7.631403143808819,6.434784553058585 7.801553002570251,6.207597519295722 7.973821754023583,5.982144983992966 8.147973965647495,5.758234225099194 8.323774204920662,5.535672520563282 8.500987039321764,5.314267148334109 8.679377036329477,5.093825386360549 8.85870876342248,4.874154512591481 9.03874678807945,4.655061804975783 9.219255677779064,4.43635454146233 9.4,4.21784 20.8564392373896,9.217839999999999 20.754421106477757,9.731318988028473 20.655066557524766,10.244149152428317 20.561039172489476,10.755681669570908 20.475002533330734,11.265267715827612 20.399620222007396,11.772258467569806 20.337555820478304,12.27600510116886 20.291472910702314,12.775858792996145 20.264035074638272,13.271170719423033 20.257905894245035,13.7612920568209 20.27574895148145,14.245573981561112 20.32022782830636,14.723367670015046 20.394006106678624,15.194024298554073 20.499747368557088,15.656895043549563 20.63918465405105,16.11152868073176 20.810305763416135,16.558269282672452 21.01015638312121,16.99766097858823 21.23578219962694,17.430247897697406 21.484228899393994,17.85657416921829 21.752542168883032,18.277183922369204 22.037767694554738,18.692621286368457 22.336951162869774,19.103430390434372 22.647138260288813,19.51015536378526 22.965374673272517,19.91334033563944 23.288706088281565,20.313529435215223 23.61417819177662,20.711266791730928 23.938836670218354,21.10709653440487 24.259838932488886,21.501549115846352 24.576171637729672,21.89493105921288 24.888314802591797,22.28736607684823 25.196792119622582,22.67897253446879 25.502127281369372,23.06986879779097 25.804843980379502,23.460173232531165 26.105465909200294,23.850004204405764 26.404516760379085,24.239480079131173 26.70252022646321,24.628719222423786 27.0,25.01784 14.8,26.76784 27.0,28.51784 26.838068462005033,30.18173742091289 26.678206294821155,31.84579000991904 26.52248286925945,33.510152935111684 26.372967556131016,35.1749813645841 26.23172972624693,36.840430466429524 26.10083875041828,38.50665540874122 25.981687246312923,40.17376061448049 25.87290576702226,41.84164339810424 25.772420307750316,43.510148244048096 25.67815686349241,45.17911963673201 25.588041429243866,46.84840206057599 25.5,48.51784 14.3,48.51784 12.8,29.51784 11.3,48.51784 3.0,48.51784" /><polygon points="33.0,6.21784 33.24621700359555,6.21817268093061 33.49235264431172,6.2179067561055765 33.738325559269136,6.216443619769256 33.984054385588415,6.213184666166006 34.229457760390176,6.207531289540182 34.47445432079505,6.198884884136142 34.71896270392364,6.186646844198242 34.96290154689658,6.170218563970838 35.2061894868345,6.1490014376982876 35.448745160857996,6.122396859624947 35.69048720608771,6.089806223995173 35.93133425964426,6.050630925053322 36.1712042859385,6.004274989412655 36.40995170850691,5.950391084383181 36.64731614405461,5.889081125901058 36.883025144524666,5.820494240314224 37.11680626186016,5.74477955397062 37.348387048004156,5.662086193218186 37.57749505489973,5.572563284404863 37.80385783448994,5.476359953878591 38.02720293871786,5.37362532798731 38.24725791952656,5.264508533078959 38.46375032885911,5.14915869550148 38.67646465034544,5.027774911948519 38.88570246829999,4.901010151138324 39.09204105370248,4.769759358774735 39.29606025306331,4.634919741168428 39.498339912892895,4.497388504630083 39.69945987970166,4.358062855470382 39.9,4.21784 45.230951894845305,6.46784 42.45,14.46784 46.230951894845305,6.46784 51.561903789690604,8.717839999999999 51.27905807829056,9.228690942874886 51.00090785209051,9.739108012539557 50.732148596290486,10.248657335783804 50.47747579609048,10.75690503939741 50.2415849366905,11.263417250170164 50.029171503290556,11.767760094891852 49.84493098109065,12.26949970035226 49.69355885529079,12.768202193341176 49.57975061109099,13.263433700648388 49.50820173369125,13.75476034906368 49.48360770829157,14.24174826537684 49.51064753385166,14.723964512157304 49.59128501514192,15.20113026979716 49.721770406467684,15.67329102696847 49.89763158768173,16.14053327522192 50.11439643863683,16.60294350610819 50.36759283918573,17.060608211177957 50.65274866918122,17.51361388198191 50.965391808476056,17.962047010070737 51.301050136923,18.405994086995104 51.655251534374834,18.845541604305705 52.02352388068431,19.280776053553218 52.40139505570421,19.711783926288327 52.78439293928728,20.138651714061716 53.16804541128631,20.56146590842407 53.54788035155405,20.980313000926053 53.919878279889375,21.395305233013847 54.28342307394002,21.80674845721376 54.639447027741845,22.215036612754336 54.98889024632594,22.620564083217996 55.332692834723396,23.02372525218715 55.67179489796534,23.42491450324422 56.00713654108287,23.824526219971624 56.339657869107086,24.222954785951778 56.670298987069096,24.620594584767098 57.0,25.01784 56.83806846200503,26.68173742091289 56.67820629482115,28.345790009919035 56.52248286925945,30.010152935111684 56.372967556131016,31.6749813645841 56.231729726246925,33.340430466429524 56.100838750418276,35.00665540874122 55.98168724631292,36.67376061448049 55.87290576702226,38.34164339810424 55.772420307750316,40.01014824404809 55.67815686349241,41.67911963673201 55.588041429243866,43.348402060576 55.5,45.01784 44.2,45.01784 42.45,33.01783999999999 40.7,45.01784 33.0,45.01784" /><polygon points="63.0,13.359014169600002 63.33306626232607,12.856199585750739 63.672358295265646,12.358928131145195 64.0241018694322,11.872742935027087 64.39449367309942,11.403161543621026 64.7869716002628,10.953274659674122 65.19998233863474,10.52178234451847 65.63144719476418,10.10692249459775 66.07928747520006,9.70693300635564 66.54142448649131,9.320051776235822 67.01577953518685,8.944516700681977 67.50027392783565,8.578565676137778 67.99282897098662,8.22043659904691 68.49136597330119,7.868367369336023 68.9942589610979,7.521342307884701 69.50160285152624,7.181183064653335 70.01390139662217,6.850385358573912 70.53165834842166,6.531444908578417 71.05537745896066,6.2268574335988305 71.58556248027514,5.93911865256714 72.12271716440108,5.6707242844153285 72.66734526337444,5.424170048075379 73.21995052923116,5.201951662479276 73.78103671400721,5.006564846559005 74.35102794305052,4.840200271653984 74.92944778989875,4.701598620558219 75.51525053134462,4.5873196163180605 76.10738146815991,4.493888595096994 76.7047859011164,4.417830893058504 77.30640913098583,4.355671846366075 77.91119645853998,4.303936791183191 78.5180931845506,4.259151063673338 79.12604460978945,4.21784 79.72208420563963,4.288032538346485 80.31692705890833,4.361743822731322 80.90937642701404,4.44249259919286 81.49823556737529,4.533797613769452 82.08230773741059,4.639177612499448 82.66039619453844,4.762151341421198 83.23130419617733,4.906237546573056 83.79383499974581,5.07495497399337 84.34689366382389,5.271475887397381 84.89045683788474,5.4953253691066255 85.42514286871965,5.743844471572776 85.95157877339106,6.014344737803389 86.47039156896139,6.304137710806027 86.98220827249308,6.610534933588248 87.48765590104856,6.9308479491576085 87.98736147169022,7.26238830052167 88.48195200148054,7.602467530687992 88.97205450748193,7.948397182664131 89.45823402833966,8.297678231050245 89.94038793441132,8.649852319971423 90.41800666989442,9.005704827648012 90.8905748912936,9.36603882187568 91.35757725511348,9.731657370450101 91.8184984178587,10.103363541166946 92.27282303603391,10.481960401821883 92.72003576614372,10.868251020210582 93.15962126469279,11.263038464128721 93.59106418818573,11.667125801371965 94.01416947073585,12.080918259043806 94.43054725770735,12.502578676787158 94.84243959985027,12.929484957460966 95.25208921957889,13.359014169600002 91.12604460978945,64.21784 67.12604460978945,64.21784" /></g><g fill="none" id="PIQUETES" stroke="#00b0b0" stroke-width="0.08" /><g fill="none" id="TEXTOS" stroke="#000000" stroke-width="0.08"><text fill="#000000" font-family="sans-serif" font-size="0.9" stroke="none" text-anchor="middle" x="13.733407719744557" y="24.96917136294431">DELANTERO (base entallada)</text><text fill="#000000" font-family="sans-serif" font-size="0.6" stroke="none" text-anchor="middle" x="13.733407719744557" y="26.369171362944307">Pieza N.01</text><text fill="#000000" font-family="sans-serif" font-size="0.6" stroke="none" text-anchor="middle" x="13.733407719744557" y="27.76917136294431">Talla: S</text><text fill="#000000" font-family="sans-serif" font-size="0.6" stroke="none" text-anchor="middle" x="13.733407719744557" y="29.169171362944308">Cortar: 1  (al doblez)</text><text fill="#000000" font-family="sans-serif" font-size="0.6" stroke="none" text-anchor="middle" x="13.733407719744557" y="30.569171362944306">AL DOBLEZ</text><text fill="#000000" font-family="sans-serif" font-size="0.9" stroke="none" text-anchor="middle" x="43.62057959906403" y="22.822768885531666">ESPALDA (base entallada)</text><text fill="#000000" font-family="sans-serif" font-size="0.6" stroke="none" text-anchor="middle" x="43.62057959906403" y="24.222768885531664">Pieza N.02</text><text fill="#000000" font-family="sans-serif" font-size="0.6" stroke="none" text-anchor="middle" x="43.62057959906403" y="25.622768885531666">Talla: S</text><text fill="#000000" font-family="sans-serif" font-size="0.6" stroke="none" text-anchor="middle" x="43.62057959906403" y="27.022768885531665">Cortar: 1  (al doblez)</text><text fill="#000000" font-family="sans-serif" font-size="0.6" stroke="none" text-anchor="middle" x="43.62057959906403" y="28.422768885531664">AL DOBLEZ</text><text fill="#000000" font-family="sans-serif" font-size="0.9" stroke="none" text-anchor="middle" x="79.08603172926279" y="31.463722355820693">MANGA</text><text fill="#000000" font-family="sans-serif" font-size="0.6" stroke="none" text-anchor="middle" x="79.08603172926279" y="32.86372235582069">Pieza N.03</text><text fill="#000000" font-family="sans-serif" font-size="0.6" stroke="none" text-anchor="middle" x="79.08603172926279" y="34.26372235582069">Talla: S</text><text fill="#000000" font-family="sans-serif" font-size="0.6" stroke="none" text-anchor="middle" x="79.08603172926279" y="35.663722355820695">Cortar: 2  (par)</text></g><g fill="none" id="CENTROS" stroke="#0050ff" stroke-width="0.08"><circle cx="12.8" cy="26.51784" fill="#0050ff" r="0.15" /><circle cx="14.8" cy="26.76784" fill="#0050ff" r="0.15" /><circle cx="12.8" cy="29.51784" fill="#0050ff" r="0.15" /><circle cx="42.45" cy="33.01783999999999" fill="#0050ff" r="0.15" /><circle cx="42.45" cy="14.46784" fill="#0050ff" r="0.15" /></g><g fill="none" id="HILO" stroke="#c0a000" stroke-width="0.08"><line x1="15.0" x2="15.0" y1="16.61784" y2="43.01784" /><line x1="15.0" x2="15.46730201077038" y1="43.01784" y2="41.91256680719654" /><line x1="15.0" x2="14.532697989229618" y1="43.01784" y2="41.91256680719654" /><line x1="15.0" x2="14.53269798922962" y1="16.61784" y2="17.723113192803464" /><line x1="15.0" x2="15.46730201077038" y1="16.61784" y2="17.723113192803464" /><line x1="34.0" x2="34.0" y1="7.21784" y2="43.01784" /><line x1="34.0" x2="34.46730201077038" y1="43.01784" y2="41.91256680719654" /><line x1="34.0" x2="33.53269798922962" y1="43.01784" y2="41.91256680719654" /><line x1="34.0" x2="33.53269798922962" y1="7.21784" y2="8.323113192803461" /><line x1="34.0" x2="34.46730201077038" y1="7.21784" y2="8.323113192803461" /><line x1="79.12604460978945" x2="79.12604460978945" y1="7.87430966784" y2="62.21784" /><line x1="79.12604460978945" x2="79.59334662055983" y1="62.21784" y2="61.11256680719654" /><line x1="79.12604460978945" x2="78.65874259901906" y1="62.21784" y2="61.11256680719654" /><line x1="79.12604460978945" x2="78.65874259901906" y1="7.87430966784" y2="8.979582860643461" /><line x1="79.12604460978945" x2="79.59334662055983" y1="7.87430966784" y2="8.979582860643461" /></g><g fill="none" id="DOBLEZ" stroke="#c000c0" stroke-width="0.08"><line x1="3.0" x2="3.0" y1="4.21784" y2="48.51784" /><line x1="33.0" x2="33.0" y1="4.21784" y2="45.01784" /></g><g fill="none" id="BOTONES" stroke="#ff8000" stroke-width="0.08" /><g fill="none" id="OJAL" stroke="#ff40a0" stroke-width="0.08" /><g fill="none" id="REFERENCIAS" stroke="#b0b0b0" stroke-width="0.08"><text fill="#000000" font-family="sans-serif" font-size="0.5" stroke="none" text-anchor="start" x="13.4" y="26.917839999999998">BP</text></g></svg>