<?xml version="1.0" encoding="utf-8" ?>
<svg baseProfile="full" height="151.57017611295785cm" version="1.1" viewBox="0 0 171.16886019977085 151.57017611295785" width="171.16886019977085cm" xmlns="http://www.w3.org/2000/svg" xmlns:ev="http://www.w3.org/2001/xml-events" xmlns:xlink="http://www.w3.org/1999/xlink"><defs /><g fill="none" id="CONSTRUCCION" stroke="#888888" stroke-width="0.08"><line x1="125.7999273686934" x2="125.7999273686934" y1="65.57017611295787" y2="53.57017611295787" /><line x1="144.16886019977085" x2="167.16886019977085" y1="11.570176112957864" y2="11.570176112957864" /><line x1="91.0281600046624" x2="103.0281600046624" y1="86.79017611295787" y2="86.79017611295787" /></g><g fill="none" id="CORTE" stroke="#d00000" stroke-width="0.08"><polygon points="3.0,13.970176112957864 3.0,74.57017611295787 17.804814,74.57017611295787 17.533957,71.85733211295786 17.374981,70.24524511295786 17.22012,68.63476911295787 17.071362,67.02610711295786 16.930695,65.41946511295787 16.800099,63.81505011295786 16.681551,62.21307111295786 16.577022,60.61373611295787 16.48848,59.01725611295787 16.417886,57.42384011295786 16.367196,55.83369511295787 16.33836,54.24702911295786 16.333325,52.66404311295787 16.354028999999997,51.08493811295786 16.402408,49.509906112957864 16.480390999999997,47.93913611295787 16.589905,46.372804112957866 16.732897,44.810693112957864 16.910224999999997,43.251699112957866 17.120382,41.69478411295786 17.361508,40.13965411295786 17.631729,38.58611511295787 17.929164,37.03397811295787 18.251927,35.48305911295786 18.598126999999998,33.93317811295786 18.965865,32.38415811295786 19.353239,30.835822112957864 19.75834,29.287996112957863 20.179254,27.740503112957864 20.614063,26.193168112957864 21.060843,24.645814112957865 21.517667,23.098261112957864 21.982604,21.550328112957864 22.453717,20.001832112957864 22.929067,18.452586112957864 23.439845,16.794870112957863 23.485547999999998,16.184956112957863 23.54861,15.704331112957863 23.63787,15.210246112957863 23.751132,14.703924112957864 23.885973,14.186620112957863 24.039794999999998,13.659559112957863 24.209865,13.123899112957863 24.393345999999998,12.580716112957862 24.587334,12.030995112957864 24.788868,11.475630112957862 25.320404,10.030726112957863 12.274689,4.337109112957863 11.604548000000001,5.230840112957864 11.408809,5.492455112957863 11.212994,5.755319112957864 11.017382000000001,6.019638112957864 10.822256,6.2856221129578635 10.6279,6.553484112957864 10.434603,6.823437112957864 10.242656,7.095693112957863 10.052355,7.3704691129578634 9.863996,7.647980112957864 9.677882,7.928441112957863 9.494319,8.212069112957863 9.313614999999999,8.499078112957864 9.136242,8.789423112957863 8.963303,9.081566112957864 8.795078,9.373098112957864 8.630749999999999,9.662767112957862 8.469275,9.949785112957864 8.309653,10.233375112957862 8.150927,10.512769112957862 7.992184,10.787211112957863 7.832553,11.055961112957863 7.671203,11.318299112957863 7.507341,11.573534112957864 7.340206,11.821017112957865 7.169058,12.060150112957864 6.993161,12.290415112957863 6.810869,12.512476112957863 6.619404,12.729318112957863 6.41765,12.943667112957863 6.206278,13.156361112957864 5.986212,13.368060112957863 5.7584420000000005,13.579452112957863 5.524011,13.791264112957863 5.322425,13.970176112957864 3.0,13.970176112957864" /><polygon points="35.74052752720706,6.827030000000001 35.26413552720706,8.379669999999999 34.79129852720706,9.933831 34.323974527207056,11.489715 33.86412252720706,13.047524 33.413708527207056,14.607463 32.97470152720706,16.16974 32.54907352720706,17.734562 32.13880252720706,19.302142 31.745871527207058,20.872688 31.37226852720706,22.446413 31.01998552720706,24.023527 30.69102252720706,25.604238 30.387383527207056,27.188753000000002 30.11107752720706,28.777275 29.86412252720706,30.37 29.64853852720706,31.967121000000002 29.46636252720706,33.56873 29.31940852720706,35.174116999999995 29.20698852720706,36.782027 29.12706652720706,38.391847 29.07756652720706,40.003356999999994 29.056418527207057,41.616348 29.06155352720706,43.230616999999995 29.090910527207058,44.84596500000001 29.142432527207056,46.462199999999996 29.21406852720706,48.079131000000004 29.30377252720706,49.696568 29.40950552720706,51.314325999999994 29.52923052720706,52.932216 29.660919527207056,54.550050999999996 29.80254552720706,56.167643 29.95208852720706,57.784802 30.10753252720706,59.401336 30.266866527207057,61.017054 30.518006527207056,63.532410999999996 45.42313552720706,63.532410999999996 45.42313552720706,16.156705 44.823203527207056,15.470997999999998 44.469812527207054,15.067827000000001 44.113819527207056,14.66318 43.75468552720706,14.257193000000001 43.391568527207056,13.849663 43.02363152720706,13.440392 42.65004152720706,13.029188999999999 42.26997852720706,12.61588 41.88354952720706,12.201255 41.49421052720706,11.787427000000001 41.10773252720706,11.375381 40.72867652720706,10.964645 40.36147452720706,10.554811 40.010552527207054,10.145691 39.68028052720706,9.737317 39.37491152720706,9.329953 39.09847552720706,8.924068 38.854656527207055,8.520284 38.64663152720706,8.119232 38.476921527207054,7.721266999999999 38.34652252720706,7.323632 38.25353552720706,6.9182690000000004 38.194781527207056,6.4988589999999995 38.16864352720706,6.0639400000000006 38.201153527207055,3.2003889999999995 36.91971852720706,3.0 35.74052752720706,6.827030000000001" /><polygon points="75.42313552720705,17.268864112957864 74.96801552720706,16.582201112957865 74.67946952720706,16.146586112957863 74.39098252720706,15.710520112957862 74.10250352720706,15.273656112957863 73.81398052720706,14.835648112957863 73.52536152720705,14.396148112957864 73.23659552720706,13.954810112957862 72.94763952720706,13.511303112957865 72.65888152720706,13.065912112957864 72.37211452720706,12.619688112957864 72.08985652720706,12.173228112957865 71.81421752720706,11.726480112957862 71.54726452720706,11.279398112957864 71.29103852720706,10.831981112957864 71.04754852720706,10.384269112957863 70.81875552720706,9.936334112957864 70.60656552720707,9.488272112957864 70.41280952720706,9.040184112957864 70.23923052720706,8.592158112957863 70.08747752720706,8.144232112957864 69.95908052720706,7.696304112957863 69.85502852720705,7.2464161129578635 69.77458652720706,6.7906351129578635 69.71596852720705,6.3267651129578635 69.67777752720706,5.854740112957863 69.62652152720706,4.5701761129578635 50.42313552720706,4.5701761129578635 50.42313552720706,64.57017611295787 75.42313552720705,64.57017611295787 75.42313552720705,17.268864112957864" /><polygon points="99.65862452720705,15.374739112957863 99.65708252720705,14.887058112957863 99.67167252720705,14.392075112957864 99.70085452720706,13.890224112957863 99.74303052720705,13.381971112957864 99.79654852720705,12.867796112957864 99.85970152720705,12.348180112957863 99.93073952720705,11.823593112957862 100.00787052720705,11.294487112957864 100.08926952720705,10.761290112957862 100.29745852720706,9.427561112957864 87.39450452720705,4.448675112957863 86.75539652720705,4.882786112957864 86.55256752720705,5.019275112957864 86.35223752720705,5.1515731129578635 86.15390952720705,5.278872112957863 85.95710352720705,5.400422112957863 85.76134552720706,5.515534112957864 85.56549552720705,5.623952112957864 85.36754552720706,5.726226112957864 85.16648852720705,5.822865112957864 84.96251252720705,5.913776112957864 84.75592052720705,5.998814112957863 84.54701652720705,6.077838112957863 84.33610552720705,6.150715112957863 84.12349652720705,6.217316112957864 83.90949652720705,6.277517112957863 83.69441352720705,6.331203112957864 83.47845652720706,6.378284112957863 83.26097852720706,6.418873112957863 83.04082752720706,6.453460112957863 82.81757452720706,6.482535112957864 82.59122252720705,6.506520112957864 82.36180252720705,6.525848112957863 82.12936952720705,6.540967112957864 81.89399052720705,6.552341112957864 81.65574452720705,6.560453112957863 81.41471652720705,6.565801112957864 81.17099452720706,6.5689051129578635 80.92466852720705,6.570297112957864 80.67582452720706,6.5705321129578635 80.42313552720705,6.570175112957863 80.42313552720705,16.570176112957864 99.70632452720704,16.570176112957864 99.65862452720705,15.374739112957863" /><polygon points="108.76259775833427,66.57017611295787 134.59130175833425,66.57017611295787 139.20380275833426,15.125186112957863 138.49745975833426,14.340553112957863 138.07665275833426,13.878411112957863 137.64717675833427,13.417399112957863 137.20697975833426,12.960802112957865 136.75630575833426,12.512963112957863 136.29738375833426,12.075623112957864 135.83120875833427,11.648268112957863 135.35840075833426,11.230021112957864 134.87956875833427,10.820002112957862 134.39530775833427,10.417330112957863 133.90620275833425,10.021124112957864 133.41282975833425,9.630506112957864 132.91574975833427,9.244599112957864 132.41485675833425,8.862029112957863 131.90811775833427,8.481318112957863 131.39303775833426,8.103822112957864 130.86847875833428,7.732459112957864 130.33346375833426,7.3703551129578635 129.78696075833426,7.020692112957864 129.22790375833426,6.686726112957864 128.65520875833425,6.371813112957863 128.06781275833424,6.079420112957863 127.46472175833426,5.813153112957863 126.84659075833426,5.577325112957864 126.21850975833426,5.375179112957864 125.58621875833425,5.2041541129578635 124.95196675833427,5.059674112957864 124.31729775833426,4.937105112957863 123.68363075833426,4.831945112957864 123.05231475833426,4.739835112957864 122.42468275833426,4.656558112957864 121.70318475833426,4.5655631129578635 120.96802375833425,4.619503112957863 120.32727775833426,4.670525112957863 119.68270775833426,4.729968112957863 119.03546075833427,4.802001112957863 118.38668775833426,4.890932112957864 117.73758575833426,5.001206112957863 117.08945675833426,5.1374031129578634 116.44386775833426,5.304199112957864 115.80500575833426,5.505445112957863 115.17873975833426,5.740368112957864 114.56737475833425,6.0047151129578635 113.97031675833426,6.294977112957864 113.38673475833426,6.607817112957863 112.81574675833426,6.9400101129578635 112.25645475833426,7.288435112957863 111.70797375833426,7.650052112957864 111.16945275833426,8.021886112957864 110.64007675833426,8.401014112957863 110.11825775833427,8.785163112957864 109.60103975833425,9.174856112957864 109.08781175833425,9.573322112957865 108.58041175833426,9.982747112957863 108.08105375833426,10.405110112957864 107.59200875833426,10.842427112957864 107.11562275833425,11.296739112957862 106.65433475833426,11.770088112957865 106.21069375833426,12.264487112957863 105.78785875833427,12.781287112957862 105.39150575833426,13.316545112957863 105.02173475833426,13.859761112957864 104.67253675833426,14.402957112957864 104.15906075833426,15.225171112957863 108.76259775833427,66.57017611295787" /><polygon points="143.16886019977085,16.81930311295786 143.19870119977085,17.122283112957863 143.30140719977084,17.460858112957865 143.46819219977084,17.772891112957865 143.69264619977085,18.046390112957866 143.96614519977084,18.270844112957864 144.27817819977085,18.437629112957865 144.61675319977084,18.540335112957862 144.91973319977086,18.570176112957864 166.41798719977083,18.570176112957864 166.72096719977085,18.540335112957862 167.05954219977085,18.437629112957865 167.37157519977086,18.270844112957864 167.64507419977085,18.046390112957866 167.86952819977085,17.772891112957865 168.03631319977086,17.460858112957865 168.13901919977084,17.122283112957863 168.16886019977085,16.81930311295786 168.16886019977085,6.321049112957864 168.13901919977084,6.018069112957864 168.03631319977086,5.6794941129578635 167.86952819977085,5.367461112957864 167.64507419977085,5.093962112957863 167.37157519977086,4.869508112957863 167.05954219977085,4.702723112957863 166.72096719977085,4.600017112957864 166.41798719977083,4.5701761129578635 144.91973319977086,4.5701761129578635 144.61675319977084,4.600017112957864 144.27817819977085,4.702723112957863 143.96614519977084,4.869508112957863 143.69264619977085,5.093962112957863 143.46819219977084,5.367461112957864 143.30140719977084,5.6794941129578635 143.19870119977085,6.018069112957864 143.16886019977085,6.321049112957864 143.16886019977085,16.81930311295786" /><polygon points="3.0,82.21930311295786 3.022155,82.44424611295787 3.1020980000000002,82.70778411295787 3.2319190000000004,82.95066211295787 3.406629,83.16354711295787 3.619514,83.33825711295786 3.8623920000000003,83.46807811295787 4.12593,83.54802111295787 4.350873,83.57017611295787 15.649127,83.57017611295787 15.87407,83.54802111295787 16.137608,83.46807811295787 16.380485999999998,83.33825711295786 16.593370999999998,83.16354711295787 16.768081000000002,82.95066211295787 16.897902000000002,82.70778411295787 16.977845000000002,82.44424611295787 17.0,82.21930311295786 17.0,79.92104911295787 16.977845000000002,79.69610611295786 16.897902000000002,79.43256811295787 16.768081000000002,79.18969011295786 16.593370999999998,78.97680511295786 16.380485999999998,78.80209511295787 16.137608,78.67227411295787 15.87407,78.59233111295787 15.649127,78.57017611295787 4.350873,78.57017611295787 4.12593,78.59233111295787 3.8623920000000003,78.67227411295787 3.619514,78.80209511295787 3.406629,78.97680511295786 3.2319190000000004,79.18969011295786 3.1020980000000002,79.43256811295787 3.022155,79.69610611295786 3.0,79.92104911295787 3.0,82.21930311295786" /><polygon points="22.77951,85.24317211295786 23.271,85.33246911295787 23.762543,85.41667211295787 24.254136,85.49578011295786 24.745777,85.56979111295787 25.237462,85.63870411295787 25.729188999999998,85.70251811295786 26.220955,85.76123111295787 26.712756,85.81484311295786 27.20459,85.86335211295787 27.696454,85.90675811295786 28.188344,85.94505911295786 28.680257,85.97825511295787 29.17219,86.00634511295787 29.66414,86.02932811295787 30.156103,86.04720511295787 30.648077,86.05997411295787 31.140057,86.06763611295787 31.63204,86.07018911295786 32.124023,86.06763611295787 32.616003,86.05997411295787 33.107977,86.04720511295787 33.599940000000004,86.02932811295787 34.09189,86.00634511295787 34.583823,85.97825511295787 35.075736,85.94505911295786 35.567626000000004,85.90675811295786 36.05949,85.86335211295787 36.551324,85.81484311295786 37.043125,85.76123111295787 37.534891,85.70251811295786 38.026618,85.63870411295787 38.518303,85.56979111295787 39.009944000000004,85.49578011295786 39.501537,85.41667211295787 39.99308,85.33246911295787 40.484570000000005,85.24317211295786 40.768919,85.18855811295786 42.820640999999995,88.60809511295787 43.875859,88.20911211295787 42.062767,78.38819511295787 40.588951,78.68656811295787 40.117182,78.77718011295786 39.645468,78.86288311295787 39.173807,78.94368011295786 38.702196,79.01957211295786 38.230633,79.09056111295787 37.759114,79.15664811295787 37.287637000000004,79.21783411295787 36.816199,79.27412111295787 36.344796,79.32550911295786 35.873426,79.37200011295786 35.402086000000004,79.41359411295787 34.930772,79.45029311295787 34.459481,79.48209711295787 33.98821,79.50900711295786 33.516956,79.53102411295787 33.045715,79.54814711295786 32.574484999999996,79.56037811295786 32.103261,79.56771611295787 31.63204,79.57016311295787 31.160819,79.56771611295787 30.689595,79.56037811295786 30.218365,79.54814711295786 29.747124,79.53102411295787 29.27587,79.50900711295786 28.804599,79.48209711295787 28.333308,79.45029311295787 27.861994,79.41359411295787 27.390653999999998,79.37200011295786 26.919284,79.32550911295786 26.447881,79.27412111295787 25.976443,79.21783411295787 25.504966,79.15664811295787 25.033447,79.09056111295787 24.561884,79.01957211295786 24.090273,78.94368011295786 23.618612,78.86288311295787 23.146898,78.77718011295786 22.675129,78.68656811295787 22.0,78.54988911295787 22.0,85.09046311295786 22.288075,85.14878411295787 22.77951,85.24317211295786" /><polygon points="49.3761850023312,83.71287811295787 49.9077200023312,83.78387111295787 50.4392760023312,83.85081011295787 50.9708520023312,83.91369411295787 51.5024480023312,83.97252311295787 52.034062002331204,84.02729711295787 52.5656930023312,84.07801611295787 53.0973400023312,84.12467811295787 53.6290010023312,84.16728311295786 54.1606750023312,84.20583211295786 54.692361002331204,84.24032411295786 55.224058002331205,84.27075911295786 55.755764002331205,84.29713611295787 56.2874780023312,84.31945611295787 56.8191980023312,84.33771811295787 57.3509240023312,84.35192111295787 57.8826540023312,84.36206711295786 58.4143860023312,84.36815411295787 58.9461200023312,84.37018311295786 59.4778540023312,84.36815411295787 60.009586002331204,84.36206711295786 60.5413160023312,84.35192111295787 61.0730420023312,84.33771811295787 61.6047620023312,84.31945611295787 62.1364760023312,84.29713611295787 62.6681820023312,84.27075911295786 63.1998790023312,84.24032411295786 63.7315650023312,84.20583211295786 64.2632390023312,84.16728311295786 64.7949000023312,84.12467811295787 65.3265470023312,84.07801611295787 65.8581780023312,84.02729711295787 66.3897920023312,83.97252311295787 66.9213880023312,83.91369411295787 67.4529640023312,83.85081011295787 67.98452000233121,83.78387111295787 68.5160550023312,83.71287811295787 69.0475660023312,83.63783211295787 70.4281600023312,83.43236411295787 70.4281600023312,78.41033611295786 68.7605500023312,78.65852011295787 68.2438570023312,78.73147411295787 67.7271880023312,78.80048111295787 67.2105400023312,78.86554211295787 66.6939120023312,78.92665811295787 66.1773040023312,78.98382911295786 65.6607140023312,79.03705511295787 65.1441410023312,79.08633611295787 64.6275840023312,79.13167411295787 64.1110410023312,79.17306911295786 63.5945110023312,79.21052011295787 63.0779930023312,79.24402811295786 62.5614860023312,79.27359311295787 62.0449880023312,79.29921611295786 61.528498002331204,79.32089611295787 61.0120140023312,79.33863411295786 60.4955360023312,79.35243111295787 59.979062002331204,79.36228511295786 59.4625900023312,79.36819811295787 58.9461200023312,79.37016911295787 58.4296500023312,79.36819811295787 57.9131780023312,79.36228511295786 57.396704002331205,79.35243111295787 56.8802260023312,79.33863411295786 56.3637420023312,79.32089611295787 55.8472520023312,79.29921611295786 55.330754002331204,79.27359311295787 54.8142470023312,79.24402811295786 54.2977290023312,79.21052011295787 53.7811990023312,79.17306911295786 53.2646560023312,79.13167411295787 52.7480990023312,79.08633611295787 52.2315260023312,79.03705511295787 51.7149360023312,78.98382911295786 51.1983280023312,78.92665811295787 50.6817000023312,78.86554211295787 50.1650520023312,78.80048111295787 49.6483830023312,78.73147411295787 49.131690002331204,78.65852011295787 48.4640800023312,78.55916211295786 48.4640800023312,83.58119011295787 48.8446740023312,83.63783211295787 49.3761850023312,83.71287811295787" /><polygon points="74.4281600046624,148.57017611295785 82.4353800046624,148.57017611295785 82.02933700466241,92.13024411295787 86.2530820046624,79.56460311295787 83.72882100466241,78.30247211295787 83.03270800466241,79.23084011295786 82.83696900466241,79.49245511295787 82.64115400466241,79.75531911295786 82.4455420046624,80.01963811295786 82.25041600466241,80.28562211295787 82.0560600046624,80.55348411295786 81.86276300466241,80.82343711295786 81.6708160046624,81.09569311295786 81.48051500466241,81.37046911295786 81.2921560046624,81.64798011295787 81.1060420046624,81.92844111295787 80.9224790046624,82.21206911295786 80.7417750046624,82.49907811295786 80.56440200466241,82.78942311295786 80.3914630046624,83.08156611295787 80.2232380046624,83.37309811295786 80.05891000466241,83.66276711295787 79.8974350046624,83.94978511295787 79.7378130046624,84.23337511295787 79.5790870046624,84.51276911295787 79.42034400466241,84.78721111295786 79.2607130046624,85.05596111295786 79.09936300466241,85.31829911295786 78.9355010046624,85.57353411295787 78.76836600466241,85.82101711295786 78.59721800466241,86.06015011295787 78.4213210046624,86.29041511295787 78.2390290046624,86.51247611295787 78.0475640046624,86.72931811295787 77.84581000466241,86.94366711295787 77.6344380046624,87.15636111295787 77.41437200466241,87.36806011295786 77.1866020046624,87.57945211295787 76.9521710046624,87.79126411295786 76.75058500466241,87.97017611295787 74.4281600046624,87.97017611295787 74.4281600046624,148.57017611295785" /><polygon points="90.0281600046624,89.84208111295787 97.0281600046624,94.25208111295787 104.0281600046624,89.84208111295787 104.0281600046624,78.57017611295787 90.0281600046624,78.57017611295787 90.0281600046624,89.84208111295787" /></g><g fill="none" id="COSTURA" stroke="#00a000" stroke-width="0.08"><polygon points="16.7,73.57017611295787 4.0,73.57017611295787 4.0,14.970176112957864 5.7,14.970176112957864 5.946137211430921,14.75366518362918 6.1911230351686255,14.53623505682587 6.433806083519894,14.316966535073313 6.673034968791513,14.094940420896881 6.907658303290262,13.869237516821954 7.136524699322925,13.638938625373903 7.358482769196286,13.403124549078111 7.5723811252171265,13.160876090459947 7.777197617466955,12.911376304121411 7.973182834463885,12.654815226937385 8.161311146615965,12.391955547249587 8.342565282091677,12.123566566004758 8.517927969059487,11.850417584149646 8.688381935687879,11.573277902630991 8.854909910145325,11.29291682239554 9.018494620600304,11.010103644390034 9.180118795221286,10.725607669561219 9.340765162176753,10.440198198855839 9.501416449635176,10.15464453322064 9.663055385765034,9.869715973602364 9.826664698734799,9.586181820947758 9.993226961401806,9.304811255922118 10.16345393201771,9.0261637255569 10.337230036760209,8.750157945701979 10.514282265311873,8.476590704779642 10.694337607355273,8.205258791212174 10.877123052572978,7.935958993421856 11.062365590647557,7.668488099830978 11.24979221126158,7.402642898861821 11.439129904097616,7.138220178936671 11.630105658838232,6.875016728477814 11.822446465166006,6.612829335907532 12.015879312763497,6.351454789648111 12.21013119131328,6.090689878121837 12.404929090497925,5.8303313897509925 12.6,5.5701761129578635 24.0564392373896,10.570176112957864 23.84959802771455,11.132443693898228 23.645801650517317,11.694042282668654 23.4480949382757,12.254302887099206 23.25952272346752,12.81255651501995 23.08312983857059,13.368134174260941 22.92196111606271,13.920366872652252 22.779061388421706,14.468585618023939 22.657475488125385,15.012121418206068 22.560248247651558,15.550305281028699 22.49042449947803,16.0824682143219 22.451049076082626,16.607941225915727 21.97322969491593,18.158690700911837 21.497358468668075,19.7096333255668 21.02538355225791,21.260962249539457 20.559253100604277,22.812870622488663 20.10091526862603,24.365551594073274 19.652318211242,25.91919831395213 19.215410083371044,27.474003931784086 18.792139039932,29.030161597227988 18.384453235843715,30.587864459942697 17.994300826025032,32.14730566958704 17.623629965394795,33.708678375819886 17.274388808871855,35.272175728300084 16.948525511375053,36.837990876686476 16.64798822782323,38.40631697063792 16.374725113135234,39.97734715981326 16.13068432222991,41.55127459387134 15.91781401002611,43.128292422471034 15.738062331442663,44.708593795271156 15.593089009221654,46.292343265346176 15.482121900960538,47.87946427870126 15.403169250787311,49.469759362864636 15.354230155071473,51.06303013841078 15.333303710182541,52.659078225914186 15.33838901249001,54.257705245949325 15.367485158363396,55.858712819090684 15.4185912441722,57.46190256591274 15.489706366285937,59.06707610698999 15.578829621074105,60.674035062896905 15.683960104906216,62.28258105420794 15.80309691415178,63.89251570149763 15.9342391451803,65.50364062534042 16.075385894361283,67.1157574463108 16.224536258064237,68.72866778498324 16.37968933265867,70.34217326193226 16.538844214514086,71.95607549773231" /><polygon points="37.17418460328969,5.5701761129578635 37.1683023371502,6.088290210682386 37.19895806074446,6.5983764023676645 37.26919660655027,7.099765695843761 37.38206280704544,7.59178909894074 37.540151305080265,8.073858620396337 37.74157508187825,8.546192637281662 37.98187679811563,9.009471994669331 38.256568637558146,9.464383021226558 38.56116278397157,9.91161204562056 38.891171421121655,10.351845396518549 39.24210673277418,10.785769402587746 39.60948090269491,11.214070392495351 39.988806114649606,11.637434694908599 40.375594552404024,12.056548638494693 40.76535839972394,12.472098551920844 41.15360984037511,12.884770763854277 41.536152774335235,13.295226540544654 41.91191552112244,13.703858717815361 42.28172230683835,14.110897247150557 42.64642398306459,14.516569792541027 43.00687140138275,14.921104017977552 43.36391541337448,15.32472758745092 43.71840687062136,15.727668164951933 44.07119662470501,16.130153414471355 44.42313552720706,16.532411 44.42313552720706,62.532410999999996 31.42313552720706,62.532410999999996 31.26197974172115,60.91831038477444 31.102824859865727,59.30440814897439 30.947671785271297,57.69090267202539 30.798521421568342,56.07799233335294 30.65737467238736,54.46587551238255 30.52623244135884,52.85475058853976 30.407095632113275,51.24481594125008 30.301965148281162,49.636269949939035 30.212841893492996,48.02931099403213 30.14172677137926,46.42413745295488 30.090620685570457,44.82094770613281 30.061524539697068,43.21994013299147 30.0564392373896,41.621313112956315 30.077365682278533,40.02526502545291 30.12630477799437,38.431994249906765 30.2052574281676,36.84169916574339 30.316224536428713,35.25457815238832 30.461197858649722,33.6708286823133 30.64094953723317,32.09052730951316 30.853819849436974,30.51350948091348 31.097860640342297,28.939582046855396 31.37112375503029,27.368551857680057 31.67166103858211,25.800225763728616 31.99752433607891,24.234410615342224 32.346765492601854,22.670913262862026 32.71743635323209,21.10954055662918 33.10758876305077,19.550099346984833 33.51527456713906,17.992396484270124 33.9385456105781,16.436238818826222 34.37545373844906,14.881433200994266 34.82405079583309,13.32778648111541 35.282388627811336,11.7751055095308 35.74851907946497,10.223197136581593 36.22049399587513,8.671868212608935 36.69636522212299,7.120925587953973" /><polygon points="50.42313552720706,5.5701761129578635 68.66562694334348,5.5701761129578635 68.67938686477207,5.915022383307914 68.72103896879119,6.429826107086432 68.78554859683409,6.940313499431285 68.87482054256941,7.4461248660563335 68.99064480020786,7.9469156056002195 69.13273572403823,8.442614005422412 69.29900439468237,8.933385433042101 69.4873019046622,9.419403142739412 69.69547934649967,9.90084038879448 69.92138781271672,10.377870425487437 70.16287839583526,10.850666507098406 70.41780218837724,11.319401887907523 70.68401028286459,11.784249822194909 70.95935377181925,12.245383564240704 71.24168374776315,12.702976368325032 71.52885130321823,13.157201488728024 71.8187075307064,13.60823217972981 72.10916597709003,14.056246551951332 72.39926633254443,14.501510282957788 72.68902502332293,14.944364999611985 72.97849085866493,15.385154846821397 73.26771264780984,15.824223969493477 73.55673919999711,16.261916512535702 73.84561932446611,16.698576620855533 74.1344018304563,17.13454843936043 74.42313552720705,17.570176112957864 74.42313552720705,63.57017611295787 50.42313552720706,63.57017611295787" /><polygon points="80.42313552720705,7.5701761129578635 80.67558983642047,7.570532475776934 80.9279663901223,7.570294702506826 81.18018743280093,7.568868657058356 81.4321752089448,7.565660203342349 81.68385196304231,7.560075205269621 81.93513993958187,7.551519526750994 82.18596138305189,7.539399031697288 82.43623853794077,7.523119584019323 82.68589364873692,7.50208704762792 82.93484895992877,7.475707286433897 83.18302671600472,7.443386164348076 83.43034916145317,7.404529545281276 83.67673810064426,7.358544929864566 83.9220552849562,7.305063144936778 84.16604198566706,7.244163061023444 84.40842507902155,7.175977081173782 84.64893144126435,7.1006376084370135 84.88728794864018,7.018277045862356 85.12322147739371,6.929027796499031 85.35645890376966,6.833022263396257 85.58672710401272,6.7303928496032555 85.81375295436759,6.621271958169244 86.03726333107896,6.5057919921434415 86.25703416454351,6.384130961331189 86.47334416694902,6.256934323156457 86.68676701919367,6.125121774134005 86.89788015130962,5.989616496433374 87.10726099332905,5.851341672224112 87.31548697528413,5.71122048367576 87.52313552720705,5.5701761129578635 99.18503931689766,10.070176112957864 99.100975038786,10.608719659621556 99.018815554343,11.14690351199911 98.9404656572373,11.684367975804387 98.86783014113753,12.220753356751246 98.80281379971237,12.75569996055355 98.74732142663044,13.288848092925157 98.70325781556039,13.819838059579933 98.6725277601709,14.348310166231734 98.65703605413057,14.873904718594424 98.65868749110808,15.396262022381864 98.66562694334348,15.570176112957864 80.42313552720705,15.570176112957864" /><polygon points="105.18503931689766,15.470176112957864 105.5172558178097,14.938207098726888 105.85579538890816,14.411590181740173 106.20698110037952,13.895677459241968 106.57712612751126,13.39581271616122 106.97020780865101,12.915377492708522 107.38486982571806,12.453272734161974 107.81901487209012,12.00777691047739 108.27054564114496,11.577168491610582 108.73736482626035,11.159725947517359 109.217375120814,10.753727748153532 109.70847921818368,10.357452363474913 110.20857981174713,9.969178263437318 110.7155795948821,9.58718391799655 111.2276556101099,9.210208165767959 111.74471809250733,8.839898210682108 112.26735220137729,8.479033806081766 112.79614461726385,8.130397258012152 113.3316820207111,7.796770872518487 113.87455109226305,7.480936955645992 114.42533851246381,7.185677813439887 114.9846309618574,6.913775751945392 115.55301512098792,6.668013077207728 116.1310776703994,6.451172095272115 116.71935713832904,6.265859341429827 117.31747366919483,6.111328967113703 117.92422321871454,5.98382658110043 118.53837249850909,5.879491042203886 119.15868822019931,5.7944612092379515 119.78393709540607,5.724875941016504 120.41288583575025,5.666874096353421 121.04430115285268,5.616594534062582 121.67694975833426,5.5701761129578635 122.29635094380434,5.648294967689507 122.91435670781335,5.730294488650799 123.52957162890026,5.820055342071386 124.140600285604,5.921458194180918 124.7460472564635,6.0383837112090415 125.34451712001773,6.174712559385405 125.93461445480561,6.334325404939658 126.51494383936611,6.521102914101446 127.08429896374528,6.738321113528469 127.6428311971133,6.984915170155752 128.19128512736847,7.257923573538378 128.73040782799498,7.55437686615534 129.26094637247692,7.871305590485628 129.78364783429842,8.205740289008233 130.29925928694365,8.554711504202144 130.8085278038967,8.915249778546354 131.31220045864174,9.284385654519852 131.8110243246629,9.659149674601629 132.3056298637731,10.03691773694111 132.79583076193745,10.417484692848353 133.2810915403248,10.801679475737156 133.76087540478778,11.190334914445874 134.2346455611789,11.584283837812857 134.70186521535075,11.984359074676458 135.1619975731559,12.391393453875033 135.61450584044687,12.806219804246929 136.05885322307626,13.229670954630503 136.49450292689662,13.662579733864106 136.9213199185319,14.105298135910386 137.34108465291982,14.555885662157095 137.75614781853784,15.011719347726746 138.16886019977085,15.470176112957864 133.67694975833427,65.57017611295787 109.67694975833426,65.57017611295787" /><polygon points="144.16886019977085,6.370176112957864 144.18423197544826,6.214103855344961 144.22975657376182,6.064029367065792 144.30368450992881,5.9257199265421825 144.40317477482162,5.8044906880086256 144.52440401335517,5.705000423115827 144.66271345387878,5.631072486948835 144.81278794215794,5.585547888635279 144.96886019977086,5.5701761129578635 166.36886019977084,5.5701761129578635 166.52493245738376,5.585547888635279 166.67500694566291,5.631072486948835 166.81331638618653,5.705000423115827 166.93454562472007,5.8044906880086256 167.03403588961288,5.9257199265421825 167.10796382577988,6.064029367065792 167.15348842409344,6.214103855344961 167.16886019977085,6.370176112957864 167.16886019977085,16.770176112957863 167.15348842409344,16.926248370570768 167.10796382577988,17.076322858849935 167.03403588961288,17.214632299373545 166.93454562472007,17.3358615379071 166.81331638618653,17.4353518027999 166.67500694566291,17.509279738966892 166.52493245738376,17.554804337280448 166.36886019977084,17.570176112957864 144.96886019977086,17.570176112957864 144.81278794215794,17.554804337280448 144.66271345387878,17.509279738966892 144.52440401335517,17.4353518027999 144.40317477482162,17.3358615379071 144.30368450992881,17.214632299373545 144.22975657376182,17.076322858849935 144.18423197544826,16.926248370570768 144.16886019977085,16.770176112957863" /><polygon points="4.0,79.97017611295787 4.007685887838708,79.89213998415141 4.030448186995486,79.81710274001183 4.067412155078982,79.74794801975003 4.117157287525381,79.68733340048325 4.1777719067921595,79.63758826803685 4.2469266270539645,79.60062429995335 4.321963871193549,79.57786200079657 4.4,79.57017611295787 15.6,79.57017611295787 15.67803612880645,79.57786200079657 15.753073372946035,79.60062429995335 15.82222809320784,79.63758826803685 15.882842712474618,79.68733340048325 15.932587844921018,79.74794801975003 15.969551813004514,79.81710274001183 15.992314112161292,79.89213998415141 16.0,79.97017611295787 16.0,82.17017611295786 15.992314112161292,82.24821224176432 15.969551813004514,82.3232494859039 15.932587844921018,82.39240420616571 15.882842712474618,82.45301882543248 15.82222809320784,82.50276395787888 15.753073372946035,82.53972792596238 15.67803612880645,82.56249022511916 15.6,82.57017611295787 4.4,82.57017611295787 4.3219638711935495,82.56249022511916 4.2469266270539645,82.53972792596238 4.1777719067921595,82.50276395787888 4.117157287525381,82.45301882543248 4.067412155078982,82.39240420616571 4.030448186995486,82.3232494859039 4.007685887838708,82.24821224176432 4.0,82.17017611295786" /><polygon points="22.0,79.57017611295787 22.48160200005828,79.66767611295786 22.963204000116562,79.76017611295786 23.44480600017484,79.84767611295787 23.92640800023312,79.93017611295787 24.4080100002914,80.00767611295787 24.88961200034968,80.08017611295787 25.37121400040796,80.14767611295787 25.85281600046624,80.21017611295787 26.334418000524522,80.26767611295787 26.816020000582803,80.32017611295787 27.29762200064108,80.36767611295787 27.77922400069936,80.41017611295787 28.260826000757643,80.44767611295786 28.74242800081592,80.48017611295786 29.2240300008742,80.50767611295787 29.705632000932482,80.53017611295786 30.187234000990763,80.54767611295787 30.668836001049044,80.56017611295786 31.15043800110732,80.56767611295787 31.632040001165603,80.57017611295787 32.11364200122388,80.56767611295787 32.59524400128216,80.56017611295786 33.07684600134044,80.54767611295787 33.55844800139872,80.53017611295786 34.040050001457004,80.50767611295787 34.521652001515285,80.48017611295786 35.003254001573566,80.44767611295786 35.48485600163185,80.41017611295787 35.96645800169012,80.36767611295787 36.4480600017484,80.32017611295787 36.92966200180668,80.26767611295787 37.411264001864964,80.21017611295787 37.892866001923245,80.14767611295787 38.374468001981526,80.08017611295787 38.8560700020398,80.00767611295787 39.33767200209809,79.93017611295787 39.81927400215636,79.84767611295787 40.30087600221464,79.76017611295786 40.782478002272924,79.66767611295786 41.264080002331205,79.57017611295787 42.4640800023312,86.07017611295787 41.264080002331205,84.07017611295787 40.782478002272924,84.16767611295786 40.30087600221464,84.26017611295786 39.81927400215636,84.34767611295787 39.33767200209809,84.43017611295787 38.8560700020398,84.50767611295787 38.374468001981526,84.58017611295787 37.892866001923245,84.64767611295787 37.411264001864964,84.71017611295787 36.92966200180668,84.76767611295787 36.4480600017484,84.82017611295787 35.96645800169012,84.86767611295787 35.48485600163185,84.91017611295787 35.003254001573566,84.94767611295786 34.521652001515285,84.98017611295786 34.040050001457004,85.00767611295787 33.55844800139872,85.03017611295786 33.07684600134044,85.04767611295787 32.59524400128216,85.06017611295786 32.11364200122388,85.06767611295787 31.632040001165603,85.07017611295787 31.15043800110732,85.06767611295787 30.668836001049044,85.06017611295786 30.187234000990763,85.04767611295787 29.705632000932482,85.03017611295786 29.2240300008742,85.00767611295787 28.74242800081592,84.98017611295786 28.260826000757643,84.94767611295786 27.77922400069936,84.91017611295787 27.29762200064108,84.86767611295787 26.816020000582803,84.82017611295787 26.334418000524522,84.76767611295787 25.85281600046624,84.71017611295787 25.37121400040796,84.64767611295787 24.88961200034968,84.58017611295787 24.4080100002914,84.50767611295787 23.92640800023312,84.43017611295787 23.44480600017484,84.34767611295787 22.963204000116562,84.26017611295786 22.48160200005828,84.16767611295786 22.0,84.07017611295787" /><polygon points="48.4640800023312,79.57017611295787 48.98818200238948,79.64817611295787 49.512284002447764,79.72217611295787 50.03638600250604,79.79217611295786 50.56048800256432,79.85817611295786 51.084590002622605,79.92017611295786 51.60869200268088,79.97817611295787 52.13279400273916,80.03217611295787 52.65689600279744,80.08217611295787 53.18099800285572,80.12817611295787 53.705100002914,80.17017611295786 54.229202002972286,80.20817611295787 54.753304003030564,80.24217611295786 55.27740600308884,80.27217611295787 55.80150800314712,80.29817611295786 56.325610003205405,80.32017611295787 56.84971200326368,80.33817611295787 57.37381400332196,80.35217611295786 57.897916003380246,80.36217611295787 58.422018003438524,80.36817611295787 58.9461200034968,80.37017611295786 59.47022200355509,80.36817611295787 59.994324003613364,80.36217611295787 60.51842600367164,80.35217611295786 61.04252800372993,80.33817611295787 61.566630003788205,80.32017611295787 62.09073200384648,80.29817611295786 62.61483400390476,80.27217611295787 63.13893600396304,80.24217611295786 63.663038004021324,80.20817611295787 64.18714000407961,80.17017611295786 64.71124200413789,80.12817611295787 65.23534400419616,80.08217611295787 65.75944600425444,80.03217611295787 66.28354800431272,79.97817611295787 66.807650004371,79.92017611295786 67.33175200442929,79.85817611295786 67.85585400448757,79.79217611295786 68.37995600454585,79.72217611295787 68.90405800460412,79.64817611295787 69.4281600046624,79.57017611295787 69.4281600046624,82.57017611295787 68.90405800460412,82.64817611295787 68.37995600454585,82.72217611295787 67.85585400448757,82.79217611295786 67.33175200442929,82.85817611295786 66.807650004371,82.92017611295786 66.28354800431272,82.97817611295787 65.75944600425444,83.03217611295787 65.23534400419616,83.08217611295787 64.71124200413789,83.12817611295786 64.18714000407961,83.17017611295786 63.663038004021324,83.20817611295787 63.13893600396304,83.24217611295786 62.61483400390476,83.27217611295787 62.09073200384648,83.29817611295786 61.566630003788205,83.32017611295787 61.04252800372993,83.33817611295787 60.51842600367164,83.35217611295786 59.994324003613364,83.36217611295787 59.47022200355509,83.36817611295787 58.9461200034968,83.37017611295786 58.422018003438524,83.36817611295787 57.897916003380246,83.36217611295787 57.37381400332196,83.35217611295786 56.84971200326368,83.33817611295787 56.325610003205405,83.32017611295787 55.80150800314712,83.29817611295786 55.27740600308884,83.27217611295787 54.753304003030564,83.24217611295786 54.229202002972286,83.20817611295787 53.705100002914,83.17017611295786 53.18099800285572,83.12817611295786 52.65689600279744,83.08217611295787 52.13279400273916,83.03217611295787 51.60869200268088,82.97817611295787 51.084590002622605,82.92017611295786 50.56048800256432,82.85817611295786 50.03638600250604,82.79217611295786 49.512284002447764,82.72217611295787 48.98818200238948,82.64817611295787 48.4640800023312,82.57017611295787" /><polygon points="75.4281600046624,88.97017611295787 77.1281600046624,88.97017611295787 77.37429721609332,88.75366518362918 77.61928303983103,88.53623505682587 77.8619660881823,88.31696653507332 78.10119497345391,88.09494042089689 78.33581830795266,87.86923751682195 78.56468470398534,87.63893862537391 78.78664277385869,87.40312454907811 79.00054112987954,87.16087609045995 79.20535762212936,86.91137630412142 79.40134283912629,86.65481522693739 79.58947115127837,86.3919555472496 79.77072528675409,86.12356656600477 79.94608797372189,85.85041758414965 80.11654194035029,85.57327790263099 80.28306991480773,85.29291682239554 80.44665462526271,85.01010364439004 80.60827879988369,84.72560766956123 80.76892516683915,84.44019819885584 80.92957645429757,84.15464453322065 81.09121539042744,83.86971597360237 81.2548247033972,83.58618182094776 81.4213869660642,83.30481125592212 81.59161393668012,83.0261637255569 81.76539004142262,82.75015794570199 81.94244226997428,82.47659070477964 82.12249761201768,82.20525879121217 82.30528305723539,81.93595899342186 82.49052559530996,81.66848809983098 82.67795221592398,81.40264289886183 82.86728990876001,81.13822017893668 83.05826566350063,80.87501672847782 83.25060646982841,80.61282933590753 83.4440393174259,80.35145478964812 83.63829119597568,80.09068987812184 83.83308909516033,79.830331389751 84.02816000466241,79.57017611295787 85.02816000466241,80.07017611295787 81.02816000466241,91.97017611295787 81.4281600046624,147.57017611295785 75.4281600046624,147.57017611295785" /><polygon points="91.0281600046624,79.57017611295787 103.0281600046624,79.57017611295787 103.0281600046624,89.29017611295787 97.0281600046624,93.07017611295787 91.0281600046624,89.29017611295787" /></g><g fill="none" id="PIQUETES" stroke="#00b0b0" stroke-width="0.08"><line x1="59.30527142678126" x2="59.59601089498993" y1="5.590827976843729" y2="6.167950634192875" /><line x1="59.783491043769274" x2="59.59601089498993" y1="5.5495242490719985" y2="6.167950634192875" /><line x1="89.78345859067707" x2="89.49182066699461" y1="15.549151885645603" y2="14.972482724453343" /><line x1="89.30530387987346" x2="89.49182066699461" y1="15.591200340270124" y2="14.972482724453343" /><line x1="129.53641110252732" x2="129.59525082245995" y1="8.126253676396848" y2="8.7697891356827" /><line x1="129.99646030753348" x2="129.59525082245995" y1="8.26320158245321" y2="8.7697891356827" /><line x1="112.96137973086331" x2="113.36618484760592" y1="7.9545771062685775" y2="8.458296092866266" /><line x1="113.42044251244587" x2="113.36618484760592" y1="7.814358125507519" y2="8.458296092866266" /><line x1="111.63552616788763" x2="112.06675874171555" y1="8.841947138209836" y2="9.323235479300447" /><line x1="112.08640987176472" x2="112.06675874171555" y1="8.677314560698338" y2="9.323235479300447" /></g><g fill="none" id="TEXTOS" stroke="#000000" stroke-width="0.08"><text fill="#000000" font-family="sans-serif" font-size="0.9" stroke="none" text-anchor="middle" x="11.380077493795248" y="35.62020094916701">DELANTERO CENTRO</text><text fill="#000000" font-family="sans-serif" font-size="0.6" stroke="none" text-anchor="middle" x="11.380077493795248" y="37.020200949167005">Pieza N.01</text><text fill="#000000" font-family="sans-serif" font-size="0.6" stroke="none" text-anchor="middle" x="11.380077493795248" y="38.42020094916701">Talla: S</text><text fill="#000000" font-family="sans-serif" font-size="0.6" stroke="none" text-anchor="middle" x="11.380077493795248" y="39.820200949167">Cortar: 2  (par: izq + der)</text><text fill="#000000" font-family="sans-serif" font-size="0.9" stroke="none" text-anchor="middle" x="37.72037788059186" y="35.490769838112655">DELANTERO COSTADO</text><text fill="#000000" font-family="sans-serif" font-size="0.6" stroke="none" text-anchor="middle" x="37.72037788059186" y="36.89076983811265">Pieza N.11</text><text fill="#000000" font-family="sans-serif" font-size="0.6" stroke="none" text-anchor="middle" x="37.72037788059186" y="38.29076983811265">Talla: S</text><text fill="#000000" font-family="sans-serif" font-size="0.6" stroke="none" text-anchor="middle" x="37.72037788059186" y="39.690769838112644">Cortar: 2  (par: izq + der)</text><text fill="#000000" font-family="sans-serif" font-size="0.9" stroke="none" text-anchor="middle" x="62.11620199744937" y="31.74703176738944">ESPALDA</text><text fill="#000000" font-family="sans-serif" font-size="0.6" stroke="none" text-anchor="middle" x="62.11620199744937" y="33.147031767389436">Pieza N.02</text><text fill="#000000" font-family="sans-serif" font-size="0.6" stroke="none" text-anchor="middle" x="62.11620199744937" y="34.54703176738944">Talla: S</text><text fill="#000000" font-family="sans-serif" font-size="0.6" stroke="none" text-anchor="middle" x="62.11620199744937" y="35.94703176738945">Cortar: 1  (al doblez)</text><text fill="#000000" font-family="sans-serif" font-size="0.6" stroke="none" text-anchor="middle" x="62.11620199744937" y="37.34703176738944">AL DOBLEZ</text><text fill="#000000" font-family="sans-serif" font-size="0.9" stroke="none" text-anchor="middle" x="89.18103855985623" y="7.8384187525748565">CANESU</text><text fill="#000000" font-family="sans-serif" font-size="0.6" stroke="none" text-anchor="middle" x="89.18103855985623" y="9.238418752574855">Pieza N.03</text><text fill="#000000" font-family="sans-serif" font-size="0.6" stroke="none" text-anchor="middle" x="89.18103855985623" y="10.638418752574855">Talla: S</text><text fill="#000000" font-family="sans-serif" font-size="0.6" stroke="none" text-anchor="middle" x="89.18103855985623" y="12.038418752574856">Cortar: 2  (al doblez x2 (exterior+interior))</text><text fill="#000000" font-family="sans-serif" font-size="0.6" stroke="none" text-anchor="middle" x="89.18103855985623" y="13.438418752574856">AL DOBLEZ</text><text fill="#000000" font-family="sans-serif" font-size="0.9" stroke="none" text-anchor="middle" x="121.63215129757613" y="32.82023542801092">MANGA</text><text fill="#000000" font-family="sans-serif" font-size="0.6" stroke="none" text-anchor="middle" x="121.63215129757613" y="34.22023542801092">Pieza N.04</text><text fill="#000000" font-family="sans-serif" font-size="0.6" stroke="none" text-anchor="middle" x="121.63215129757613" y="35.62023542801092">Talla: S</text><text fill="#000000" font-family="sans-serif" font-size="0.6" stroke="none" text-anchor="middle" x="121.63215129757613" y="37.02023542801092">Cortar: 2  (par: izq + der)</text><text fill="#000000" font-family="sans-serif" font-size="0.9" stroke="none" text-anchor="middle" x="155.66886019977085" y="8.870176112957868">PUNO</text><text fill="#000000" font-family="sans-serif" font-size="0.6" stroke="none" text-anchor="middle" x="155.66886019977085" y="10.270176112957866">Pieza N.05</text><text fill="#000000" font-family="sans-serif" font-size="0.6" stroke="none" text-anchor="middle" x="155.66886019977085" y="11.670176112957867">Talla: S</text><text fill="#000000" font-family="sans-serif" font-size="0.6" stroke="none" text-anchor="middle" x="155.66886019977085" y="13.070176112957867">Cortar: 4  (4 (2 tela + 2 entretela))</text><text fill="#000000" font-family="sans-serif" font-size="0.9" stroke="none" text-anchor="middle" x="9.999999999999996" y="78.37017611295786">TAPETA MANGA</text><text fill="#000000" font-family="sans-serif" font-size="0.6" stroke="none" text-anchor="middle" x="9.999999999999996" y="79.77017611295787">Pieza N.06</text><text fill="#000000" font-family="sans-serif" font-size="0.6" stroke="none" text-anchor="middle" x="9.999999999999996" y="81.17017611295786">Talla: S</text><text fill="#000000" font-family="sans-serif" font-size="0.6" stroke="none" text-anchor="middle" x="9.999999999999996" y="82.57017611295787">Cortar: 2  (par)</text><text fill="#000000" font-family="sans-serif" font-size="0.9" stroke="none" text-anchor="middle" x="31.935060528670164" y="78.9090926547734">CUELLO</text><text fill="#000000" font-family="sans-serif" font-size="0.6" stroke="none" text-anchor="middle" x="31.935060528670164" y="80.30909265477341">Pieza N.07</text><text fill="#000000" font-family="sans-serif" font-size="0.6" stroke="none" text-anchor="middle" x="31.935060528670164" y="81.7090926547734">Talla: S</text><text fill="#000000" font-family="sans-serif" font-size="0.6" stroke="none" text-anchor="middle" x="31.935060528670164" y="83.1090926547734">Cortar: 2  (al doblez x2 (+ entretela))</text><text fill="#000000" font-family="sans-serif" font-size="0.6" stroke="none" text-anchor="middle" x="31.935060528670164" y="84.5090926547734">AL DOBLEZ</text><text fill="#000000" font-family="sans-serif" font-size="0.9" stroke="none" text-anchor="middle" x="58.94612000349681" y="78.00317611295787">PIE DE CUELLO</text><text fill="#000000" font-family="sans-serif" font-size="0.6" stroke="none" text-anchor="middle" x="58.94612000349681" y="79.40317611295787">Pieza N.08</text><text fill="#000000" font-family="sans-serif" font-size="0.6" stroke="none" text-anchor="middle" x="58.94612000349681" y="80.80317611295787">Talla: S</text><text fill="#000000" font-family="sans-serif" font-size="0.6" stroke="none" text-anchor="middle" x="58.94612000349681" y="82.20317611295786">Cortar: 2  (al doblez x2 (+ entretela))</text><text fill="#000000" font-family="sans-serif" font-size="0.6" stroke="none" text-anchor="middle" x="58.94612000349681" y="83.60317611295787">AL DOBLEZ</text><text fill="#000000" font-family="sans-serif" font-size="0.9" stroke="none" text-anchor="middle" x="78.57837287091488" y="113.43476426213937">VISTA DELANTERA</text><text fill="#000000" font-family="sans-serif" font-size="0.6" stroke="none" text-anchor="middle" x="78.57837287091488" y="114.83476426213936">Pieza N.09</text><text fill="#000000" font-family="sans-serif" font-size="0.6" stroke="none" text-anchor="middle" x="78.57837287091488" y="116.23476426213936">Talla: S</text><text fill="#000000" font-family="sans-serif" font-size="0.6" stroke="none" text-anchor="middle" x="78.57837287091488" y="117.63476426213937">Cortar: 2  (par: izq + der)</text><text fill="#000000" font-family="sans-serif" font-size="0.9" stroke="none" text-anchor="middle" x="97.0281600046624" y="82.7264551827253">BOLSILLO</text><text fill="#000000" font-family="sans-serif" font-size="0.6" stroke="none" text-anchor="middle" x="97.0281600046624" y="84.12645518272531">Pieza N.10</text><text fill="#000000" font-family="sans-serif" font-size="0.6" stroke="none" text-anchor="middle" x="97.0281600046624" y="85.52645518272531">Talla: S</text><text fill="#000000" font-family="sans-serif" font-size="0.6" stroke="none" text-anchor="middle" x="97.0281600046624" y="86.9264551827253">Cortar: 1  (1 (opcional))</text></g><g fill="none" id="CENTROS" stroke="#0050ff" stroke-width="0.08"><circle cx="125.7999273686934" cy="53.57017611295787" fill="#0050ff" r="0.15" /></g><g fill="none" id="HILO" stroke="#c0a000" stroke-width="0.08"><line x1="7.7" x2="7.7" y1="18.970176112957866" y2="69.57017611295787" /><line x1="7.7" x2="8.167302010770381" y1="69.57017611295787" y2="68.4649029201544" /><line x1="7.7" x2="7.232697989229619" y1="69.57017611295787" y2="68.4649029201544" /><line x1="7.7" x2="7.23269798922962" y1="18.970176112957866" y2="20.075449305761325" /><line x1="7.7" x2="8.167302010770381" y1="18.970176112957866" y2="20.075449305761325" /><line x1="37.223135527207056" x2="37.223135527207056" y1="20.532411" y2="58.532410999999996" /><line x1="37.223135527207056" x2="37.69043753797744" y1="58.532410999999996" y2="57.427137807196544" /><line x1="37.223135527207056" x2="36.755833516436674" y1="58.532410999999996" y2="57.427137807196544" /><line x1="37.223135527207056" x2="36.755833516436674" y1="20.532411" y2="21.637684192803462" /><line x1="37.223135527207056" x2="37.69043753797744" y1="20.532411" y2="21.637684192803462" /><line x1="50.92313552720706" x2="50.92313552720706" y1="8.570176112957864" y2="60.57017611295787" /><line x1="50.92313552720706" x2="51.39043753797744" y1="60.57017611295787" y2="59.4649029201544" /><line x1="50.92313552720706" x2="50.45583351643668" y1="60.57017611295787" y2="59.4649029201544" /><line x1="50.92313552720706" x2="50.45583351643668" y1="8.570176112957864" y2="9.675449305761326" /><line x1="50.92313552720706" x2="51.39043753797744" y1="8.570176112957864" y2="9.675449305761326" /><line x1="84.68313552720706" x2="84.68313552720706" y1="6.5701761129578635" y2="15.070176112957864" /><line x1="84.68313552720706" x2="85.15043753797744" y1="15.070176112957864" y2="13.964902920154401" /><line x1="84.68313552720706" x2="84.21583351643667" y1="15.070176112957864" y2="13.964902920154401" /><line x1="84.68313552720706" x2="84.21583351643667" y1="6.5701761129578635" y2="7.675449305761326" /><line x1="84.68313552720706" x2="85.15043753797744" y1="6.5701761129578635" y2="7.675449305761326" /><line x1="121.67694975833426" x2="121.67694975833426" y1="9.530176112957864" y2="63.57017611295787" /><line x1="121.67694975833426" x2="122.14425176910464" y1="63.57017611295787" y2="62.4649029201544" /><line x1="121.67694975833426" x2="121.20964774756388" y1="63.57017611295787" y2="62.4649029201544" /><line x1="121.67694975833426" x2="121.20964774756388" y1="9.530176112957864" y2="10.635449305761327" /><line x1="121.67694975833426" x2="122.14425176910464" y1="9.530176112957864" y2="10.635449305761327" /><line x1="155.66886019977085" x2="155.66886019977085" y1="6.0701761129578635" y2="17.070176112957864" /><line x1="155.66886019977085" x2="156.13616221054122" y1="17.070176112957864" y2="15.964902920154401" /><line x1="155.66886019977085" x2="155.20155818900048" y1="17.070176112957864" y2="15.964902920154401" /><line x1="155.66886019977085" x2="155.20155818900048" y1="6.0701761129578635" y2="7.175449305761326" /><line x1="155.66886019977085" x2="156.13616221054122" y1="6.0701761129578635" y2="7.175449305761326" /><line x1="10.0" x2="10.0" y1="79.97017611295787" y2="82.17017611295786" /><line x1="10.0" x2="10.467302010770382" y1="82.17017611295786" y2="81.06490292015441" /><line x1="10.0" x2="9.532697989229618" y1="82.17017611295786" y2="81.06490292015441" /><line x1="10.0" x2="9.53269798922962" y1="79.97017611295787" y2="81.07544930576132" /><line x1="10.0" x2="10.46730201077038" y1="79.97017611295787" y2="81.07544930576132" /><line x1="22.5" x2="40.764080002331205" y1="80.07017611295787" y2="80.07017611295787" /><line x1="40.764080002331205" x2="39.658806809527746" y1="80.07017611295787" y2="79.60287410218749" /><line x1="40.764080002331205" x2="39.658806809527746" y1="80.07017611295787" y2="80.53747812372825" /><line x1="22.5" x2="23.605273192803462" y1="80.07017611295787" y2="80.53747812372825" /><line x1="22.5" x2="23.605273192803462" y1="80.07017611295787" y2="79.60287410218749" /><line x1="48.9640800023312" x2="68.9281600046624" y1="79.97017611295787" y2="79.97017611295787" /><line x1="68.9281600046624" x2="67.82288681185895" y1="79.97017611295787" y2="79.50287410218749" /><line x1="68.9281600046624" x2="67.82288681185895" y1="79.97017611295787" y2="80.43747812372824" /><line x1="48.9640800023312" x2="50.06935319513466" y1="79.97017611295787" y2="80.43747812372824" /><line x1="48.9640800023312" x2="50.06935319513466" y1="79.97017611295787" y2="79.50287410218749" /><line x1="78.4281600046624" x2="78.4281600046624" y1="93.97017611295787" y2="144.57017611295785" /><line x1="78.4281600046624" x2="78.89546201543278" y1="144.57017611295785" y2="143.4649029201544" /><line x1="78.4281600046624" x2="77.96085799389202" y1="144.57017611295785" y2="143.4649029201544" /><line x1="78.4281600046624" x2="77.96085799389202" y1="93.97017611295787" y2="95.07544930576132" /><line x1="78.4281600046624" x2="78.89546201543278" y1="93.97017611295787" y2="95.07544930576132" /><line x1="97.0281600046624" x2="97.0281600046624" y1="80.57017611295787" y2="89.29017611295787" /><line x1="97.0281600046624" x2="97.49546201543278" y1="89.29017611295787" y2="88.1849029201544" /><line x1="97.0281600046624" x2="96.56085799389201" y1="89.29017611295787" y2="88.1849029201544" /><line x1="97.0281600046624" x2="96.56085799389201" y1="80.57017611295787" y2="81.67544930576133" /><line x1="97.0281600046624" x2="97.49546201543278" y1="80.57017611295787" y2="81.67544930576133" /></g><g fill="none" id="DOBLEZ" stroke="#c000c0" stroke-width="0.08"><line x1="50.42313552720706" x2="50.42313552720706" y1="5.5701761129578635" y2="63.57017611295787" /><line x1="80.42313552720705" x2="80.42313552720705" y1="5.5701761129578635" y2="15.570176112957864" /><line x1="22.0" x2="22.0" y1="79.57017611295787" y2="86.07017611295787" /><line x1="48.4640800023312" x2="48.4640800023312" y1="79.57017611295787" y2="83.37017611295786" /></g><g fill="none" id="BOTONES" stroke="#ff8000" stroke-width="0.08"><circle cx="5.7" cy="16.470176112957866" fill="#ff8000" r="0.55" /><circle cx="5.7" cy="24.98684277962453" fill="#ff8000" r="0.55" /><circle cx="5.7" cy="33.503509446291204" fill="#ff8000" r="0.55" /><circle cx="5.7" cy="42.02017611295787" fill="#ff8000" r="0.55" /><circle cx="5.7" cy="50.536842779624536" fill="#ff8000" r="0.55" /><circle cx="5.7" cy="59.0535094462912" fill="#ff8000" r="0.55" /><circle cx="5.7" cy="67.57017611295787" fill="#ff8000" r="0.55" /><circle cx="145.36886019977084" cy="11.570176112957864" fill="#ff8000" r="0.55" /><circle cx="68.4281600046624" cy="81.07017611295787" fill="#ff8000" r="0.55" /></g><g fill="none" id="OJAL" stroke="#ff40a0" stroke-width="0.08"><line x1="4.9" x2="6.5" y1="16.470176112957866" y2="16.470176112957866" /><line x1="4.9" x2="6.5" y1="24.98684277962453" y2="24.98684277962453" /><line x1="4.9" x2="6.5" y1="33.503509446291204" y2="33.503509446291204" /><line x1="4.9" x2="6.5" y1="42.02017611295787" y2="42.02017611295787" /><line x1="4.9" x2="6.5" y1="50.536842779624536" y2="50.536842779624536" /><line x1="4.9" x2="6.5" y1="59.0535094462912" y2="59.0535094462912" /><line x1="4.9" x2="6.5" y1="67.57017611295787" y2="67.57017611295787" /><line x1="165.96886019977086" x2="165.96886019977086" y1="10.770176112957863" y2="12.370176112957864" /></g><g fill="none" id="REFERENCIAS" stroke="#b0b0b0" stroke-width="0.08"><text fill="#000000" font-family="sans-serif" font-size="0.5" stroke="none" text-anchor="start" x="50.723135527207056" y="34.57017611295787">CB</text><text fill="#000000" font-family="sans-serif" font-size="0.5" stroke="none" text-anchor="start" x="155.66886019977085" y="10.770176112957863">DOBLEZ</text><text fill="#000000" font-family="sans-serif" font-size="0.5" stroke="none" text-anchor="start" x="97.0281600046624" y="81.07017611295787">boca</text></g></svg>