<?xml version="1.0" encoding="utf-8" ?>
<svg baseProfile="full" height="160.609105cm" version="1.1" viewBox="0 0 168.0 160.609105" width="168.0cm" xmlns="http://www.w3.org/2000/svg" xmlns:ev="http://www.w3.org/2001/xml-events" xmlns:xlink="http://www.w3.org/1999/xlink"><defs /><rect fill="#f7f3ea" height="152.609105" stroke="#333" stroke-width="0.15" width="160.0" x="4.0" y="4.0" /><text fill="#000" font-family="sans-serif" font-size="1.4" x="4.0" y="3.0">PLANO DE CORTE — ancho 160 cm — largo 1.53 m</text><polygon fill="#cfe3f7" fill-opacity="0.5" points="4.0,74.267704 12.00722,74.267704 11.601177,17.827772 15.824922,5.262131 13.300661,4.0 12.604548000000001,4.928368 12.408809,5.189983 12.212994,5.452847 12.017382000000001,5.717166 11.822256,5.98315 11.6279,6.251011999999999 11.434603,6.520965 11.242656,6.793221 11.052355,7.067997 10.863996,7.345508 10.677882,7.6259689999999996 10.494319,7.909597 10.313615,8.196606 10.136242,8.486951000000001 9.963303,8.779094 9.795078,9.070626 9.63075,9.360295 9.469275,9.647313 9.309653,9.930903 9.150927,10.210297 8.992184,10.484739000000001 8.832553,10.753489 8.671203,11.015827 8.507341,11.271062 8.340206,11.518545 8.169058,11.757678 7.993161000000001,11.987943000000001 7.810869,12.210004 7.619404,12.426846 7.41765,12.641195 7.206278,12.853889 6.986212,13.065588 6.7584420000000005,13.27698 6.524011,13.488792 6.322425,13.667704 4.0,13.667704 4.0,74.267704" stroke="#1f6fb2" stroke-width="0.1" /><text fill="#0a3d62" font-family="sans-serif" font-size="1.6" text-anchor="middle" x="9.912461" y="39.133852">09</text><polygon fill="#cfe3f7" fill-opacity="0.5" points="16.824922,74.267704 24.832142,74.267704 24.426099,17.827772 28.649844,5.262131 26.125583,4.0 25.429470000000002,4.928368 25.233731,5.189983 25.037916000000003,5.452847 24.842304000000002,5.717166 24.647178,5.98315 24.452822,6.251011999999999 24.259525,6.520965 24.067578,6.793221 23.877277,7.067997 23.688918,7.345508 23.502804,7.6259689999999996 23.319241,7.909597 23.138537,8.196606 22.961164,8.486951000000001 22.788225,8.779094 22.62,9.070626 22.455672,9.360295 22.294197,9.647313 22.134575,9.930903 21.975849,10.210297 21.817106000000003,10.484739000000001 21.657475,10.753489 21.496125,11.015827 21.332263,11.271062 21.165128000000003,11.518545 20.99398,11.757678 20.818083,11.987943000000001 20.635791,12.210004 20.444326,12.426846 20.242572000000003,12.641195 20.031200000000002,12.853889 19.811134000000003,13.065588 19.583364,13.27698 19.348933000000002,13.488792 19.147347,13.667704 16.824922,13.667704 16.824922,74.267704" stroke="#1f6fb2" stroke-width="0.1" /><text fill="#0a3d62" font-family="sans-serif" font-size="1.6" text-anchor="middle" x="22.737383" y="39.133852">09</text><polygon fill="#cfe3f7" fill-opacity="0.5" points="29.649844,74.233067 57.349844000000004,74.233067 57.349844000000004,30.177806999999998 57.742242000000005,30.699429 58.787898999999996,32.183516 59.804586,33.739025999999996 60.811348,35.346999 61.824383000000005,36.975901 62.860467,38.593613999999995 63.937614,40.16832 65.075248,41.668200999999996 66.294363,43.060738 67.617291,44.311391 69.062556,45.379078 70.62739400000001,46.229013 72.28785300000001,46.86685 74.02731700000001,47.312627 75.83364700000001,47.588375 77.69718,47.715893 79.609701,47.716083999999995 81.56359800000001,47.608869 83.551353,47.413354 85.565281,47.148058999999996 87.597425,46.831092999999996 89.63952900000001,46.480295999999996 92.506283,45.965483 92.506283,14.241893 50.971472000000006,9.257715000000001 38.924533000000004,4.0 38.254392,4.893731 38.058653,5.155346 37.862838,5.41821 37.667226,5.682529 37.472100000000005,5.948513 37.277744,6.216374999999999 37.084447000000004,6.486328 36.8925,6.758584 36.702199,7.03336 36.51384,7.310871 36.327726,7.5913319999999995 36.144163000000006,7.87496 35.963459,8.161969 35.786086000000005,8.452314000000001 35.613147,8.744457 35.444922000000005,9.035989 35.280594,9.325658 35.119119,9.612676 34.959497,9.896266 34.800771000000005,10.17566 34.642028,10.450102000000001 34.482397000000006,10.718852 34.321047,10.98119 34.157185,11.236425 33.990050000000004,11.483908 33.818902,11.723041 33.643005,11.953306000000001 33.460713,12.175367 33.269248000000005,12.392209 33.067494,12.606558 32.856122,12.819252 32.636056,13.030951 32.408286000000004,13.242343 32.173855,13.454155 31.972269,13.633067 29.649844,13.633067 29.649844,74.233067" stroke="#1f6fb2" stroke-width="0.1" /><text fill="#0a3d62" font-family="sans-serif" font-size="1.6" text-anchor="middle" x="61.0780635" y="39.1165335">01</text><polygon fill="#cfe3f7" fill-opacity="0.5" points="93.506283,74.233067 121.206283,74.233067 121.206283,30.177806999999998 121.598681,30.699429 122.64433799999999,32.183516 123.661025,33.739025999999996 124.667787,35.346999 125.680822,36.975901 126.716906,38.593613999999995 127.79405299999999,40.16832 128.931687,41.668200999999996 130.150802,43.060738 131.47373,44.311391 132.918995,45.379078 134.483833,46.229013 136.144292,46.86685 137.883756,47.312627 139.690086,47.588375 141.553619,47.715893 143.46614,47.716083999999995 145.420037,47.608869 147.407792,47.413354 149.42172,47.148058999999996 151.453864,46.831092999999996 153.495968,46.480295999999996 156.362722,45.965483 156.362722,14.241893 114.827911,9.257715000000001 102.78097199999999,4.0 102.11083099999999,4.893731 101.915092,5.155346 101.71927699999999,5.41821 101.523665,5.682529 101.32853899999999,5.948513 101.134183,6.216374999999999 100.94088599999999,6.486328 100.748939,6.758584 100.558638,7.03336 100.370279,7.310871 100.184165,7.5913319999999995 100.000602,7.87496 99.819898,8.161969 99.64252499999999,8.452314000000001 99.46958599999999,8.744457 99.301361,9.035989 99.137033,9.325658 98.97555799999999,9.612676 98.815936,9.896266 98.65720999999999,10.17566 98.49846699999999,10.450102000000001 98.338836,10.718852 98.177486,10.98119 98.013624,11.236425 97.84648899999999,11.483908 97.675341,11.723041 97.499444,11.953306000000001 97.317152,12.175367 97.125687,12.392209 96.92393299999999,12.606558 96.712561,12.819252 96.49249499999999,13.030951 96.264725,13.242343 96.030294,13.454155 95.82870799999999,13.633067 93.506283,13.633067 93.506283,74.233067" stroke="#1f6fb2" stroke-width="0.1" /><text fill="#0a3d62" font-family="sans-serif" font-size="1.6" text-anchor="middle" x="124.9345025" y="39.1165335">01</text><polygon fill="#cfe3f7" fill-opacity="0.5" points="89.561904,101.333884 89.973216,101.88102099999999 91.027723,103.381045 92.053579,104.95494699999999 93.07019199999999,106.581993 94.094004,108.22906699999999 95.142154,109.862579 96.2331,111.44927 97.38682,112.955867 98.62500399999999,114.348304 99.970722,115.590176 101.441798,116.63749 103.032088,117.45770999999999 104.716747,118.059482 106.479443,118.464002 108.308151,118.69413499999999 110.193434,118.77237 112.127295,118.720176 114.1023,118.557965 116.111052,118.305309 118.145948,117.981176 120.199082,117.604136 122.262228,117.19249199999999 125.123808,116.599119 125.123808,84.89803099999999 83.567128,79.91122899999999 71.533273,75.267704 70.894165,75.701815 70.69133599999999,75.838304 70.491006,75.970602 70.292678,76.097901 70.095872,76.21945099999999 69.900114,76.33456299999999 69.704264,76.44298099999999 69.506314,76.545255 69.305257,76.641894 69.101281,76.732805 68.894689,76.817843 68.685785,76.896867 68.474874,76.96974399999999 68.262265,77.036345 68.048265,77.09654599999999 67.833182,77.15023199999999 67.61722499999999,77.197313 67.39974699999999,77.23790199999999 67.179596,77.272489 66.956343,77.301564 66.729991,77.325549 66.50057100000001,77.344877 66.268138,77.359996 66.032759,77.37137 65.794513,77.379482 65.553485,77.38483 65.309763,77.387934 65.063437,77.389326 64.814593,77.389561 64.561904,77.38920399999999 64.561904,145.389205 89.561904,145.389205 89.561904,101.333884 39.561904,101.333884 39.150592,101.88102099999999 38.096085,103.381045 37.070229,104.95494699999999 36.053616,106.581993 35.029804,108.22906699999999 33.981654,109.862579 32.890708000000004,111.44927 31.736987999999997,112.955867 30.498804,114.348304 29.153086000000002,115.590176 27.68201,116.63749 26.091719999999995,117.45770999999999 24.407061,118.059482 22.644365,118.464002 20.815657,118.69413499999999 18.930374,118.77237 16.996513,118.720176 15.021507999999997,118.557965 13.012755999999996,118.305309 10.97786,117.981176 8.924726,117.604136 6.8615799999999965,117.19249199999999 4.0,116.599119 4.0,84.89803099999999 45.55668,79.91122899999999 57.590534999999996,75.267704 58.229642999999996,75.701815 58.432472,75.838304 58.632802,75.970602 58.83113,76.097901 59.027936,76.21945099999999 59.223693999999995,76.33456299999999 59.419544,76.44298099999999 59.617494,76.545255 59.818551,76.641894 60.022527,76.732805 60.229119,76.817843 60.438023,76.896867 60.648934,76.96974399999999 60.861543,77.036345 61.075542999999996,77.09654599999999 61.290625999999996,77.15023199999999 61.506583,77.197313 61.724061,77.23790199999999 61.944212,77.272489 62.167465,77.301564 62.393817,77.325549 62.623236999999996,77.344877 62.855669999999996,77.359996 63.091049,77.37137 63.329295,77.379482 63.570323,77.38483 63.814045,77.387934 64.060371,77.389326 64.309215,77.389561 64.561904,77.38920399999999 64.561904,145.389205 39.561904,145.389205 39.561904,101.333884" stroke="#1f6fb2" stroke-width="0.1" /><text fill="#0a3d62" font-family="sans-serif" font-size="1.6" text-anchor="middle" x="64.561904" y="110.32845449999999">02</text><polygon fill="#cfe3f7" fill-opacity="0.5" points="126.123808,86.539609 133.123808,90.949609 140.123808,86.539609 140.123808,75.267704 126.123808,75.267704 126.123808,86.539609" stroke="#1f6fb2" stroke-width="0.1" /><text fill="#0a3d62" font-family="sans-serif" font-size="1.6" text-anchor="middle" x="133.123808" y="83.1086565">10</text><polygon fill="#cfe3f7" fill-opacity="0.5" points="26.655368999999997,153.244182 27.146859,153.333479 27.638402,153.417682 28.129994999999997,153.49679 28.621636,153.57080100000002 29.113321,153.639714 29.605047999999996,153.703528 30.096814,153.76224100000002 30.588614999999997,153.815853 31.080448999999998,153.864362 31.572312999999998,153.907768 32.064203,153.946069 32.556116,153.979265 33.048049,154.00735500000002 33.539998999999995,154.030338 34.031962,154.048215 34.523936,154.06098400000002 35.015916,154.068646 35.507898999999995,154.071199 35.999882,154.068646 36.491862,154.06098400000002 36.983836,154.048215 37.475798999999995,154.030338 37.967749,154.00735500000002 38.459682,153.979265 38.951595,153.946069 39.443484999999995,153.907768 39.935349,153.864362 40.427183,153.815853 40.918983999999995,153.76224100000002 41.41075,153.703528 41.902477,153.639714 42.394161999999994,153.57080100000002 42.885802999999996,153.49679 43.377396,153.417682 43.868939,153.333479 44.360428999999996,153.244182 44.644778,153.189568 46.6965,156.609105 47.751718,156.210122 45.938626,146.389205 44.46481,146.687578 43.993041,146.77819 43.521327,146.863893 43.049666,146.94469 42.578055,147.020582 42.106492,147.09157100000002 41.634973,147.157658 41.163495999999995,147.218844 40.692057999999996,147.27513100000002 40.220655,147.326519 39.749285,147.37301 39.277945,147.414604 38.806630999999996,147.451303 38.33534,147.48310700000002 37.864069,147.510017 37.392815,147.532034 36.921574,147.549157 36.450344,147.561388 35.979119999999995,147.568726 35.507898999999995,147.57117300000002 35.036677999999995,147.568726 34.565454,147.561388 34.094224,147.549157 33.622983,147.532034 33.151729,147.510017 32.680458,147.48310700000002 32.209166999999994,147.451303 31.737852999999998,147.414604 31.266512999999996,147.37301 30.795143,147.326519 30.323739999999997,147.27513100000002 29.852301999999998,147.218844 29.380824999999998,147.157658 28.909305999999997,147.09157100000002 28.437742999999998,147.020582 27.966131999999998,146.94469 27.494470999999997,146.863893 27.022757,146.77819 26.550987999999997,146.687578 25.875859,146.55089900000002 25.875859,153.091473 26.163933999999998,153.149794 26.655368999999997,153.244182 25.096349,153.244182 24.604858999999998,153.333479 24.113315999999998,153.417682 23.621723,153.49679 23.130081999999998,153.57080100000002 22.638396999999998,153.639714 22.14667,153.703528 21.654904,153.76224100000002 21.163103,153.815853 20.671269,153.864362 20.179405,153.907768 19.687514999999998,153.946069 19.195601999999997,153.979265 18.703668999999998,154.00735500000002 18.211719,154.030338 17.719755999999997,154.048215 17.227781999999998,154.06098400000002 16.735802,154.068646 16.243819,154.071199 15.751835999999999,154.068646 15.259856,154.06098400000002 14.767881999999998,154.048215 14.275918999999998,154.030338 13.783968999999999,154.00735500000002 13.292035999999998,153.979265 12.800123,153.946069 12.308232999999998,153.907768 11.816368999999998,153.864362 11.324535,153.815853 10.832733999999999,153.76224100000002 10.340967999999998,153.703528 9.849241,153.639714 9.357555999999999,153.57080100000002 8.865914999999998,153.49679 8.374322,153.417682 7.882778999999999,153.333479 7.391288999999997,153.244182 7.106939999999998,153.189568 5.055218,156.609105 4.0,156.210122 5.8130919999999975,146.389205 7.286907999999997,146.687578 7.758676999999999,146.77819 8.230390999999997,146.863893 8.702051999999998,146.94469 9.173662999999998,147.020582 9.645225999999997,147.09157100000002 10.116744999999998,147.157658 10.588221999999998,147.218844 11.05966,147.27513100000002 11.531062999999998,147.326519 12.002432999999998,147.37301 12.473772999999998,147.414604 12.945087,147.451303 13.416377999999998,147.48310700000002 13.887648999999998,147.510017 14.358902999999998,147.532034 14.830143999999999,147.549157 15.301374,147.561388 15.772597999999999,147.568726 16.243819,147.57117300000002 16.71504,147.568726 17.186263999999998,147.561388 17.657494,147.549157 18.128735,147.532034 18.599988999999997,147.510017 19.07126,147.48310700000002 19.542551,147.451303 20.013865,147.414604 20.485205,147.37301 20.956574999999997,147.326519 21.427978,147.27513100000002 21.899416,147.218844 22.370893,147.157658 22.842412,147.09157100000002 23.313975,147.020582 23.785586,146.94469 24.257247,146.863893 24.728960999999998,146.77819 25.20073,146.687578 25.875859,146.55089900000002 25.875859,153.091473 25.587784,153.149794 25.096349,153.244182" stroke="#1f6fb2" stroke-width="0.1" /><text fill="#0a3d62" font-family="sans-serif" font-size="1.6" text-anchor="middle" x="25.875859" y="151.499155">07</text><polygon fill="#cfe3f7" fill-opacity="0.5" points="71.627903,151.691747 72.159438,151.76274 72.69099399999999,151.829679 73.22256999999999,151.892563 73.754166,151.951392 74.28577999999999,152.006166 74.81741099999999,152.056885 75.349058,152.103547 75.880719,152.146152 76.412393,152.18470100000002 76.94407899999999,152.21919300000002 77.475776,152.249628 78.007482,152.276005 78.539196,152.298325 79.070916,152.316587 79.602642,152.33079 80.134372,152.340936 80.66610399999999,152.347023 81.19783799999999,152.349052 81.72957199999999,152.347023 82.261304,152.340936 82.79303399999999,152.33079 83.32476,152.316587 83.85648,152.298325 84.388194,152.276005 84.9199,152.249628 85.45159699999999,152.21919300000002 85.983283,152.18470100000002 86.514957,152.146152 87.046618,152.103547 87.57826499999999,152.056885 88.10989599999999,152.006166 88.64151,151.951392 89.17310599999999,151.892563 89.70468199999999,151.829679 90.236238,151.76274 90.76777299999999,151.691747 91.299284,151.616701 92.679878,151.411233 92.679878,146.389205 91.01226799999999,146.637389 90.495575,146.710343 89.978906,146.77935 89.46225799999999,146.844411 88.94563,146.905527 88.429022,146.96269800000002 87.912432,147.015924 87.395859,147.065205 86.879302,147.110543 86.362759,147.151938 85.846229,147.189389 85.329711,147.22289700000002 84.813204,147.252462 84.296706,147.278085 83.780216,147.299765 83.263732,147.31750300000002 82.747254,147.3313 82.23078,147.34115400000002 81.71430799999999,147.347067 81.19783799999999,147.349038 80.68136799999999,147.347067 80.164896,147.34115400000002 79.648422,147.3313 79.131944,147.31750300000002 78.61546,147.299765 78.09897,147.278085 77.582472,147.252462 77.06596499999999,147.22289700000002 76.549447,147.189389 76.032917,147.151938 75.516374,147.110543 74.999817,147.065205 74.483244,147.015924 73.96665399999999,146.96269800000002 73.450046,146.905527 72.93341799999999,146.844411 72.41677,146.77935 71.90010099999999,146.710343 71.383408,146.637389 70.71579799999999,146.53803100000002 70.71579799999999,151.560059 71.096392,151.616701 71.627903,151.691747 69.803693,151.691747 69.27215799999999,151.76274 68.740602,151.829679 68.209026,151.892563 67.67742999999999,151.951392 67.145816,152.006166 66.61418499999999,152.056885 66.082538,152.103547 65.550877,152.146152 65.019203,152.18470100000002 64.487517,152.21919300000002 63.955819999999996,152.249628 63.424113999999996,152.276005 62.892399999999995,152.298325 62.360679999999995,152.316587 61.828953999999996,152.33079 61.297224,152.340936 60.765491999999995,152.347023 60.233757999999995,152.349052 59.702023999999994,152.347023 59.170291999999996,152.340936 58.63856199999999,152.33079 58.106835999999994,152.316587 57.575115999999994,152.298325 57.04340199999999,152.276005 56.51169599999999,152.249628 55.97999899999999,152.21919300000002 55.448313,152.18470100000002 54.916638999999996,152.146152 54.384978,152.103547 53.853331,152.056885 53.32169999999999,152.006166 52.790085999999995,151.951392 52.258489999999995,151.892563 51.726913999999994,151.829679 51.195358,151.76274 50.663822999999994,151.691747 50.132312,151.616701 48.751718,151.411233 48.751718,146.389205 50.41932799999999,146.637389 50.936021,146.710343 51.45269,146.77935 51.96933799999999,146.844411 52.485966,146.905527 53.002573999999996,146.96269800000002 53.519163999999996,147.015924 54.035737,147.065205 54.552293999999996,147.110543 55.068836999999995,147.151938 55.585367,147.189389 56.101884999999996,147.22289700000002 56.618392,147.252462 57.13489,147.278085 57.651379999999996,147.299765 58.167863999999994,147.31750300000002 58.684341999999994,147.3313 59.200815999999996,147.34115400000002 59.717287999999996,147.347067 60.233757999999995,147.349038 60.75022799999999,147.347067 61.2667,147.34115400000002 61.783173999999995,147.3313 62.299651999999995,147.31750300000002 62.816136,147.299765 63.332626,147.278085 63.849123999999996,147.252462 64.365631,147.22289700000002 64.882149,147.189389 65.39867899999999,147.151938 65.915222,147.110543 66.43177899999999,147.065205 66.948352,147.015924 67.464942,146.96269800000002 67.98155,146.905527 68.498178,146.844411 69.014826,146.77935 69.53149499999999,146.710343 70.048188,146.637389 70.71579799999999,146.53803100000002 70.71579799999999,151.560059 70.335204,151.616701 69.803693,151.691747" stroke="#1f6fb2" stroke-width="0.1" /><text fill="#0a3d62" font-family="sans-serif" font-size="1.6" text-anchor="middle" x="70.71579799999999" y="149.36912850000002">08</text></svg>