<?xml version="1.0" encoding="utf-8" ?>
<svg baseProfile="full" height="150.253419cm" version="1.1" viewBox="0 0 157.39717991450885 150.253419" width="157.39717991450885cm" xmlns="http://www.w3.org/2000/svg" xmlns:ev="http://www.w3.org/2001/xml-events" xmlns:xlink="http://www.w3.org/1999/xlink"><defs /><g fill="none" id="CONSTRUCCION" stroke="#888888" stroke-width="0.08"><line x1="5.7" x2="5.7" y1="13.653419" y2="72.253419" /><line x1="111.92675717744065" x2="111.92675717744065" y1="64.25341900000001" y2="52.253419" /><line x1="130.39717991450885" x2="153.39717991450885" y1="10.253419000000001" y2="10.253419000000001" /><line x1="92.2631181256291" x2="104.2631181256291" y1="85.47341899999999" y2="85.47341899999999" /></g><g fill="none" id="CORTE" stroke="#d00000" stroke-width="0.08"><polygon points="3.0,73.253419 30.7,73.253419 30.7,26.960153000000002 30.256921,26.269701 29.971815,25.82593 29.685458999999998,25.381230000000002 29.397579,24.935689 29.107763,24.489177 28.815597,24.041566 28.52067,23.59273 28.22257,23.142545000000002 27.920965,22.691007000000003 27.616524,22.239314 27.312151999999998,21.789072 27.010987999999998,21.340595 26.715676,20.893542 26.428826,20.447643 26.153018,20.002702 25.890788,19.558593 25.644604,19.115251 25.416849,18.672654 25.209792999999998,18.230803 25.025568,17.789682 24.866143,17.349201 24.733297,16.909043 24.628068,16.466450000000002 24.549411,16.016318000000002 24.495209,15.555928999999999 24.463858,15.085232000000001 24.453743,14.604520999999998 24.463176,14.114260000000002 24.490378,13.615027000000001 24.533471,13.10747 24.590487,12.592267 24.659371,12.070103 24.737998,11.541644999999999 24.82418,11.007532000000001 24.915675,10.468366 25.138703,9.185535 12.514619,3.0 11.813661,3.889385 11.612329,4.145395000000001 11.410888,4.402666 11.209615000000001,4.661415 11.008791,4.921860000000001 10.808698,5.184223 10.609625000000001,5.448724 10.411859,5.715589 10.215695,5.98504 10.021428,6.257303 9.829358,6.532604 9.639790999999999,6.811167 9.453033999999999,7.093217 9.269573999999999,7.378703 9.090569,7.666062999999999 8.916335,7.9528680000000005 8.746062,8.237855 8.578716,8.520203 8.413305000000001,8.799104 8.248885,9.07376 8.084551999999999,9.343385999999999 7.919448,9.607215 7.752755,9.8645 7.583692,10.114528 7.41151,10.356629 7.235482,10.590186 7.054869,10.814675000000001 6.867871,11.030892999999999 6.671651,11.241872 6.465174,11.450181 6.249131,11.65662 6.024428,11.861866 5.7920370000000005,12.066626 5.552981,12.271650999999999 5.182798,12.583476000000001 5.1399420000000005,12.653419 3.0,12.653419 3.0,73.253419" /><polygon points="60.7,16.935703 60.180294,16.200385 59.843131,15.724050000000002 59.503697,15.245920000000002 59.161366,14.765822 58.81531,14.283299 58.464706,13.797903000000002 58.108731,13.309188000000002 57.746565000000004,12.816712000000003 57.377641999999994,12.320376 57.003277999999995,11.821691000000001 56.628727,11.323019000000002 56.258576,10.824602000000002 55.897327000000004,10.326731000000002 55.549403999999996,9.829767 55.219198,9.334244000000002 54.911030999999994,8.840876000000002 54.629101,8.350546000000001 54.377403,7.864298000000001 54.159631000000005,7.38327 53.979063,6.908582 53.838459,6.44113 53.740030000000004,5.981238 53.685233,5.525701000000001 53.673767,5.065596 53.703435,4.594059000000001 53.894523,3.253419 35.7,3.253419 35.7,63.253419 60.7,63.253419 60.7,16.935703" /><polygon points="83.772462,14.109779 83.878899,13.61282 84.02042800000001,13.103849 84.19431,12.583856999999998 84.397434,12.053958 84.626389,11.51525 84.877542,10.968747 85.147101,10.415334999999999 85.431173,9.855765 85.725795,9.290647 86.57552000000001,7.681861 73.141537,3.144396 72.50831600000001,3.586569 72.292112,3.736144 72.078277,3.881336 71.866257,4.021275 71.655516,4.155144 71.445524,4.282191 71.235136,4.4020790000000005 71.02233100000001,4.515303 70.806088,4.622376 70.58660900000001,4.723185 70.364228,4.817557 70.139281,4.905323 69.912103,4.986321 69.68303300000001,5.060395 69.452408,5.1273979999999995 69.220567,5.187187 68.987756,5.239647 68.753347,5.2848749999999995 68.51612800000001,5.323398 68.275617,5.355771 68.03182,5.382469 67.78477600000001,5.403979 67.534547,5.420804 67.28121200000001,5.433463 67.02486200000001,5.442495 66.765593,5.4484580000000005 66.50350800000001,5.4519269999999995 66.238707,5.453498 65.97129000000001,5.453785 65.7,5.453418 65.7,15.253419000000001 83.609454,15.253419000000001 83.772462,14.109779" /><polygon points="94.86052159841792,65.25341900000001 120.67937759841793,65.25341900000001 125.43074959841792,15.282194 124.77749259841792,14.457314 124.36800859841793,13.945936 123.95007959841791,13.435407999999999 123.52134459841793,12.928692999999999 123.08135959841792,12.430087 122.63206959841793,11.941711999999999 122.17460859841792,11.463201999999999 121.70963159841793,10.993647 121.23777459841793,10.53213 120.75966659841792,10.077735 120.27592259841792,9.629541 119.78714559841792,9.186630000000001 119.29393059841792,8.748084 118.79657859841792,8.312740999999999 118.29353759841793,7.878515999999999 117.78179759841792,7.446009 117.25952159841792,7.018357 116.72537959841793,6.599258 116.17796159841792,6.192468 115.61579259841793,5.80183 115.03735859841792,5.431305 114.44114759841793,5.085009 113.82571059841793,4.767238 113.19053159841792,4.482842 112.53999259841792,4.237147 111.88156159841792,4.028879 111.21906659841792,3.8528029999999998 110.55465859841793,3.703275 109.89027859841792,3.574824 109.22776259841793,3.462167 108.56890859841792,3.360218 107.79968659841792,3.247026 107.01359559841792,3.315607 106.33859159841792,3.379425 105.65961959841792,3.453609 104.97824059841793,3.543288 104.29602959841792,3.653781 103.61464459841793,3.790601 102.93592059841792,3.959444 102.26248059841792,4.165995000000001 101.60089559841792,4.413775 100.95716159841793,4.699372 100.33221859841792,5.017696 99.72497859841792,5.3645 99.13423159841793,5.735716 98.55872459841792,6.12744 97.99720859841793,6.5358979999999995 97.44847359841792,6.95742 96.91136959841792,7.388408 96.38472859841792,7.825392 95.86590759841792,8.266456999999999 95.35248759841792,8.713511 94.84500759841792,9.169484 94.34552959841793,9.636197 93.85621059841793,10.115461 93.37926259841792,10.609104 92.91696959841792,11.118964 92.47169259841792,11.646863 92.04588659841792,12.194586000000001 91.64286859841792,12.762763 91.26720059841793,13.346333000000001 90.91682459841792,13.935545000000001 90.58527659841792,14.524156999999999 90.11813259841793,15.376666 94.86052159841792,65.25341900000001" /><polygon points="129.39717991450885,15.502545999999999 129.42702091450883,15.805526 129.52972691450884,16.144101 129.69651191450885,16.456134 129.92096591450883,16.729633 130.19446491450884,16.954087 130.50649791450883,17.120872 130.84507291450882,17.223578 131.14805291450884,17.253419 152.64630691450884,17.253419 152.94928691450883,17.223578 153.28786191450885,17.120872 153.59989491450884,16.954087 153.87339391450882,16.729633 154.09784791450883,16.456134 154.26463291450884,16.144101 154.36733891450885,15.805526 154.39717991450885,15.502545999999999 154.39717991450885,5.0042919999999995 154.36733891450885,4.701312 154.26463291450884,4.362737 154.09784791450883,4.050704 153.87339391450882,3.777205 153.59989491450884,3.552751 153.28786191450885,3.385966 152.94928691450883,3.2832600000000003 152.64630691450884,3.253419 131.14805291450884,3.253419 130.84507291450882,3.2832600000000003 130.50649791450883,3.385966 130.19446491450884,3.552751 129.92096591450883,3.777205 129.69651191450885,4.050704 129.52972691450884,4.362737 129.42702091450883,4.701312 129.39717991450885,5.0042919999999995 129.39717991450885,15.502545999999999" /><polygon points="3.0,80.90254599999999 3.022155,81.127489 3.1020980000000002,81.391027 3.2319190000000004,81.633905 3.406629,81.84679 3.619514,82.02149999999999 3.8623920000000003,82.151321 4.12593,82.231264 4.350873,82.253419 15.649127,82.253419 15.87407,82.231264 16.137608,82.151321 16.380485999999998,82.02149999999999 16.593370999999998,81.84679 16.768081000000002,81.633905 16.897902000000002,81.391027 16.977845000000002,81.127489 17.0,80.90254599999999 17.0,78.604292 16.977845000000002,78.37934899999999 16.897902000000002,78.115811 16.768081000000002,77.87293299999999 16.593370999999998,77.66004799999999 16.380485999999998,77.485338 16.137608,77.35551699999999 15.87407,77.27557399999999 15.649127,77.253419 4.350873,77.253419 4.12593,77.27557399999999 3.8623920000000003,77.35551699999999 3.619514,77.485338 3.406629,77.66004799999999 3.2319190000000004,77.87293299999999 3.1020980000000002,78.115811 3.022155,78.37934899999999 3.0,78.604292 3.0,80.90254599999999" /><polygon points="22.810033,83.92727199999999 23.314226,84.01647999999999 23.818467,84.10059899999999 24.322755,84.179626 24.827087,84.25356199999999 25.33146,84.32240399999999 25.835871,84.386152 26.340319,84.44480399999999 26.8448,84.49835999999999 27.34931,84.54681699999999 27.853849,84.590177 28.358411,84.62843699999999 28.862994999999998,84.661597 29.367598,84.689656 29.872215,84.712615 30.376846,84.73047199999999 30.881484999999998,84.74322699999999 31.386131,84.75088099999999 31.89078,84.75343199999999 32.395428,84.75088099999999 32.900074000000004,84.74322699999999 33.404713,84.73047199999999 33.909344000000004,84.712615 34.413961,84.689656 34.918564,84.661597 35.423148,84.62843699999999 35.92771,84.590177 36.432249,84.54681699999999 36.936759,84.49835999999999 37.44124,84.44480399999999 37.945688000000004,84.386152 38.450099,84.32240399999999 38.954471999999996,84.25356199999999 39.458804,84.179626 39.963092,84.10059899999999 40.467332999999996,84.01647999999999 40.971526,83.92727199999999 41.284551,83.86872299999999 43.33812,87.291338 44.393338,86.892355 42.581184,77.076521 41.098372999999995,77.368862 40.613436,77.459566 40.128551,77.545358 39.643714,77.626239 39.158924,77.70221199999999 38.674178,77.773276 38.189473,77.839434 37.704807,77.900686 37.220176,77.957034 36.735579,78.008478 36.251012,78.055021 35.766472,78.096661 35.281957,78.13340099999999 34.797463,78.165241 34.312987,78.19218199999999 33.828527,78.21422299999999 33.34408,78.231366 32.859640999999996,78.24361099999999 32.375209,78.250957 31.89078,78.253406 31.40635,78.250957 30.921917999999998,78.24361099999999 30.43748,78.231366 29.953032,78.21422299999999 29.468572,78.19218199999999 28.984096,78.165241 28.499602,78.13340099999999 28.015087,78.096661 27.530547,78.055021 27.04598,78.008478 26.561383,77.957034 26.076752,77.900686 25.592086000000002,77.839434 25.107381,77.773276 24.622635,77.70221199999999 24.137845,77.626239 23.653008,77.545358 23.168123,77.459566 22.683186,77.368862 22.0,77.23416999999999 22.0,83.772668 22.305892,83.83297599999999 22.810033,83.92727199999999" /><polygon points="49.92275806281455,82.396558 50.467060062814554,82.46750499999999 51.01138106281456,82.53439999999999 51.55572206281455,82.59724299999999 52.100080062814556,82.656033 52.644456062814555,82.710771 53.18884706281455,82.761455 53.733253062814555,82.80808599999999 54.27767306281456,82.850664 54.82210406281455,82.88918699999999 55.366547062814554,82.923655 55.910999062814554,82.95406999999999 56.45546006281455,82.980429 56.999928062814554,83.00273299999999 57.54440306281455,83.02098199999999 58.08888306281455,83.03517599999999 58.63336606281455,83.04531499999999 59.17785206281455,83.05139799999999 59.722339062814555,83.05342599999999 60.266825062814554,83.05139799999999 60.81131106281455,83.04531499999999 61.35579406281455,83.03517599999999 61.90027406281455,83.02098199999999 62.44474906281455,83.00273299999999 62.989217062814554,82.980429 63.53367806281455,82.95406999999999 64.07813006281455,82.923655 64.62257306281455,82.88918699999999 65.16700506281455,82.850664 65.71142406281456,82.80808599999999 66.25583006281455,82.761455 66.80022106281456,82.710771 67.34459706281456,82.656033 67.88895506281456,82.59724299999999 68.43329606281455,82.53439999999999 68.97761806281456,82.46750499999999 69.52191906281456,82.396558 70.06619906281455,82.32155999999999 71.46311806281456,82.11867099999999 71.46311806281456,77.097686 69.78595906281456,77.34127799999999 69.25616106281456,77.41427999999999 68.72638506281456,77.48333299999999 68.19662806281455,77.54843799999999 67.66689106281456,77.609595 67.13717206281456,77.666805 66.60746906281456,77.720067 66.07778306281455,77.76938299999999 65.54811106281456,77.814752 65.01845206281456,77.856174 64.48880606281455,77.89365099999999 63.95917006281455,77.927183 63.429545062814555,77.956768 62.89992806281455,77.98240899999999 62.370318062814555,78.004105 61.84071506281455,78.021856 61.311116062814556,78.03566199999999 60.78152206281455,78.04552299999999 60.25193006281455,78.05144 59.722339062814555,78.053412 59.19274806281455,78.05144 58.66315506281455,78.04552299999999 58.13356106281455,78.03566199999999 57.60396206281455,78.021856 57.07435906281455,78.004105 56.54474906281455,77.98240899999999 56.01513206281455,77.956768 55.485507062814555,77.927183 54.95587106281455,77.89365099999999 54.42622506281455,77.856174 53.89656606281456,77.814752 53.36689406281455,77.76938299999999 52.837208062814554,77.720067 52.307505062814556,77.666805 51.777786062814556,77.609595 51.24804906281455,77.54843799999999 50.718292062814555,77.48333299999999 50.18851606281456,77.41427999999999 49.65871806281456,77.34127799999999 48.981559062814554,77.242927 48.981559062814554,82.263911 49.37847806281455,82.32155999999999 49.92275806281455,82.396558" /><polygon points="75.46311812562911,147.253419 83.4667221256291,147.253419 83.26370712562911,90.81523899999999 87.48804012562911,78.247846 84.9818681256291,76.99476 84.2767791256291,77.88938499999999 84.07544712562911,78.145395 83.87400612562911,78.402666 83.67273312562911,78.66141499999999 83.47190912562911,78.92186 83.27181612562912,79.18422299999999 83.07274312562912,79.448724 82.87497712562912,79.715589 82.6788131256291,79.98504 82.48454612562911,80.257303 82.29247612562911,80.53260399999999 82.10290912562911,80.811167 81.91615212562911,81.093217 81.73269212562911,81.37870299999999 81.55368712562911,81.666063 81.37945312562911,81.952868 81.20918012562912,82.237855 81.04183412562911,82.520203 80.87642312562912,82.799104 80.71200312562911,83.07376 80.54767012562911,83.343386 80.38256612562911,83.607215 80.21587312562912,83.86449999999999 80.04681012562911,84.11452799999999 79.87462812562912,84.356629 79.69860012562911,84.59018599999999 79.5179871256291,84.814675 79.33098912562912,85.03089299999999 79.1347691256291,85.24187199999999 78.92829212562911,85.450181 78.71224912562911,85.65661999999999 78.48754612562911,85.86186599999999 78.25515512562912,86.066626 78.01609912562911,86.27165099999999 77.64591612562911,86.58347599999999 77.60306012562911,86.653419 75.46311812562911,86.653419 75.46311812562911,147.253419" /><polygon points="91.2631181256291,88.525324 98.2631181256291,92.935324 105.2631181256291,88.525324 105.2631181256291,77.253419 91.2631181256291,77.253419 91.2631181256291,88.525324" /></g><g fill="none" id="COSTURA" stroke="#00a000" stroke-width="0.08"><polygon points="4.0,13.653419 5.7,13.653419 5.950873960647858,13.243986010277546 6.200622111835088,13.033609515583908 6.448118644101065,12.821346010947892 6.692237747985163,12.606251991398313 6.931853614026755,12.387383951963987 7.165840432765214,12.163798387673719 7.393072394739915,11.93455179355633 7.612423690490231,11.698700664640626 7.822862798092189,11.45537979737092 8.024541311190337,11.204706510664872 8.218417586610293,10.947468102753348 8.405465522025082,10.684464777818462 8.586659015107722,10.416496740042314 8.762971963531239,10.144364193607014 8.935378264968655,9.868867342694669 9.104851817092992,9.590806391487387 9.272366517577273,9.310981544167273 9.43889626409452,9.030193004916432 9.605414954317757,8.749240977916973 9.772896485920004,8.468925667351005 9.942314756574284,8.19004727740063 10.114643584302776,7.913405947504742 10.290601016213618,7.639593916844685 10.470081501599783,7.368533973196312 10.652814036347785,7.100014417558724 10.838527616344141,6.833823550931022 11.02695123747536,6.569749674312307 11.217813895627959,6.30758108870168 11.41084458668845,6.0471060950982425 11.605772306543347,5.7881129945010965 11.802326051079165,5.530390087909342 12.000234816182411,5.273725676322082 12.199227597739606,5.017908060738415 12.399033391637259,4.762725542157446 12.599381193761888,4.507966421578273 12.8,4.253419 24.024972160321823,9.753419000000001 23.930107323608457,10.299069653064262 23.837595420766245,10.844229861647165 23.74978938566637,11.388409181267345 23.66904215217998,11.93111716744345 23.597706654178243,12.47186337569411 23.538135825532322,13.01015736153797 23.492682600113383,13.545508680493672 23.463699911792585,14.077426888079852 23.453540694441088,14.60542153981515 23.464557881930062,15.129002191218213 23.499104408130673,15.64767839780767 23.559533206914075,16.160959715102166 23.648197212151437,16.668355698620346 23.76732256481934,17.169398376956437 23.916619992058262,17.664065616663322 24.093489184792592,18.152744897874804 24.295244008614294,18.6358389126117 24.51919832911533,19.113750352894797 24.76266601188766,19.586881910744903 25.022960922523254,20.05563627818282 25.29739692661407,20.52041614722935 25.583287889752064,20.981624209905295 25.87794767752921,21.439663158231447 26.178690155537463,21.89493568422862 26.482829189368786,22.34784447991761 26.78767864461514,22.798792237319226 27.090566366575274,23.248180451732278 27.389900151830613,23.696318170062295 27.685917449483078,24.14335781322751 27.979032820483027,24.589436640623525 28.269660825780814,25.034691911645936 28.558216026326804,25.479260885690348 28.845112983071367,25.92328082215236 29.13076625696484,26.36688898042758 29.4155904089576,26.81022261991159 29.7,27.253419 29.7,72.253419 4.0,72.253419" /><polygon points="35.7,4.253419 52.74188132371213,4.253419 52.70788239429356,4.491950451376709 52.67298400678828,5.046618750263039 52.68672485941285,5.598033764636475 52.75263257655661,6.14593787360885 52.86912006384844,6.69020468137023 53.0317189873531,7.230781714237195 53.23592872371857,7.767617326955285 53.47724864959288,8.300659874270053 53.75117814162402,8.829857710927048 54.05321657645999,9.35515919167182 54.3788633307488,9.87651267124992 54.72361778113846,10.393866504406898 55.082979304276975,10.907169045888306 55.452447276812336,11.41636865043968 55.82752107539257,11.921413672806587 56.203700076665655,12.422252467734562 56.57648398374023,12.918833422171147 56.94246547137348,13.41121273347272 57.30176784636205,13.899794859523887 57.655225997786516,14.38505444848095 58.003674814727475,14.867466148500213 58.347949186265495,15.347504607737974 58.68888400148117,15.82564447435053 59.027314149455094,16.302360396494194 59.36407451926784,16.778127022325243 59.7,17.253419 59.7,62.253419 35.7,62.253419" /><polygon points="65.7,6.453419 65.97115004424985,6.453786226914431 66.24221077663847,6.453495218258743 66.51309288530464,6.451887738462815 66.78370705838711,6.448305551956526 67.05396398402466,6.442090423169761 67.32377435035606,6.4325841165323965 67.59304884552007,6.4191283964743135 67.86169815765547,6.401065027425393 68.12963297490101,6.377735773815514 68.3967639853955,6.348482400074559 68.66300187727767,6.312646670632406 68.92825733868631,6.269570349918936 69.19244033132617,6.218598038055048 69.45539109489702,6.159346500372942 69.71682327613385,6.0919266675832535 69.97643713649646,6.01650172084834 70.23393293744462,5.933234841330557 70.48901094043812,5.842289210192262 70.74137140693678,5.743828008595813 70.99071459840036,5.638014417703564 71.23674077628867,5.525011618677874 71.47915020206148,5.404982792681101 71.71764313717858,5.2780911208756 71.95198204291403,5.1445545274058855 72.18249749710438,5.005090944257809 72.4098243360169,4.8606860857899665 72.63460028270715,4.712328207066312 72.85746306023071,4.561005563150796 73.07905039164314,4.407706409107375 73.3,4.253419 85.14271928232702,8.253419000000001 84.84030507410756,8.825980363707252 84.54194413589892,9.398270620371765 84.25168973771193,9.970018662950793 83.9735951495574,10.540953384401597 83.71171364144615,11.110803677681439 83.47009848338901,11.679298435747572 83.25280294539678,12.246166551557259 83.06388029748031,12.811136918067756 82.9073838096504,13.373938428236325 82.78736675191789,13.934299975020224 82.74188132371214,14.253419000000001 65.7,14.253419000000001" /><polygon points="91.14271928232702,15.587819 91.45943504129092,15.009833000007664 91.78234566646623,14.436555839436902 92.11764602406433,13.872696357709287 92.47153098029663,13.3229633942464 92.84884161045856,12.791028874550307 93.24894270076501,12.276370250435988 93.66981451170872,11.777404518978873 94.10943730371073,11.292548677199477 94.56579133719208,10.82021972211831 95.03685687257382,10.358834650755883 95.520614170277,9.906810460132702 96.01504349072263,9.46256414726928 96.5181250943318,9.024512709186125 97.02788328456535,8.591150809235236 97.54361609441479,8.163219229572066 98.0660595674393,7.743994567450967 98.59602679809512,7.336889293139004 99.13433088083849,6.945315876903246 99.68178491012564,6.572686789010762 100.23920198041282,6.222414499728616 100.80739518615624,5.897911479323879 101.38717762181217,5.602590198063618 101.97936238183684,5.3398631262149 102.58475801224486,5.113127954757698 103.20343188635243,4.9233740763990586 103.83389579012562,4.766536301645989 104.47446543361221,4.63791232998341 105.12345652685995,4.5327998608962385 105.77918477991663,4.446496593869393 106.43996590283001,4.374300228387793 107.10411560564785,4.311508463936356 107.76994959841792,4.253419 108.41965571142062,4.349024089638428 109.06747617962684,4.449266181622571 109.71152535824012,4.558782278298139 110.34991760246402,4.682209382010846 110.98076726750202,4.824184495106408 111.60218870855768,4.9893446199305345 112.21229628083454,5.18232675882894 112.80920465723085,5.407767029962173 113.39165606839852,5.668554977889219 113.96033258324593,5.962181328860067 114.51628992538551,6.285096880228336 115.06058381842968,6.633752429347648 115.5942699859908,7.004598773571622 116.11840415168135,7.3940867102538785 116.63404203911368,7.7986670367480375 117.14223937190022,8.214790550407718 117.6440518736534,8.638908048586542 118.1405347439321,9.067471762619164 118.63236155455813,9.497978181585824 119.11915090094095,9.930810553528424 119.60034060600094,10.366846778877923 120.0753684926585,10.80696475806528 120.54367238383402,11.252042391521453 121.00469010244791,11.702957579677395 121.45785947142053,12.160588222964073 121.9026183136723,12.625812221812435 122.33840445212361,13.099507476653447 122.76465589534286,13.582551681324588 123.18143181029089,14.075131290020192 123.59079780224761,14.575199945264291 123.99522384554344,15.080261298207397 124.39717991450883,15.587819 119.76994959841792,64.25341900000001 95.76994959841792,64.25341900000001" /><polygon points="130.39717991450885,5.053419 130.41255169018626,4.897346742387097 130.4580762884998,4.747272254107928 130.53200422466682,4.608962813584318 130.6314944895596,4.487733575050762 130.75272372809314,4.388243310157964 130.8910331686168,4.31431537399097 131.04110765689595,4.268790775677416 131.19717991450884,4.253419 152.59717991450884,4.253419 152.75325217212173,4.268790775677416 152.90332666040092,4.31431537399097 153.0416361009245,4.388243310157964 153.16286533945808,4.487733575050762 153.2623556043509,4.608962813584318 153.33628354051785,4.747272254107928 153.38180813883142,4.897346742387098 153.39717991450885,5.053419 153.39717991450885,15.453419 153.38180813883142,15.609491257612902 153.33628354051785,15.759565745892072 153.2623556043509,15.897875186415682 153.16286533945808,16.019104424949237 153.0416361009245,16.118594689842034 152.90332666040092,16.19252262600903 152.75325217212173,16.238047224322585 152.59717991450884,16.253419 131.19717991450884,16.253419 131.04110765689595,16.238047224322585 130.8910331686168,16.19252262600903 130.75272372809314,16.118594689842038 130.6314944895596,16.019104424949237 130.53200422466682,15.897875186415682 130.4580762884998,15.759565745892072 130.41255169018626,15.609491257612902 130.39717991450885,15.453419" /><polygon points="4.0,78.653419 4.007685887838708,78.57538287119354 4.030448186995486,78.50034562705396 4.067412155078982,78.43119090679215 4.117157287525381,78.37057628752538 4.1777719067921595,78.32083115507898 4.2469266270539645,78.28386718699548 4.321963871193549,78.2611048878387 4.4,78.253419 15.6,78.253419 15.67803612880645,78.2611048878387 15.753073372946035,78.28386718699548 15.82222809320784,78.32083115507898 15.882842712474618,78.37057628752538 15.932587844921018,78.43119090679215 15.969551813004514,78.50034562705396 15.992314112161292,78.57538287119354 16.0,78.653419 16.0,80.85341899999999 15.992314112161292,80.93145512880645 15.969551813004514,81.00649237294603 15.932587844921018,81.07564709320783 15.882842712474618,81.1362617124746 15.82222809320784,81.18600684492101 15.753073372946035,81.22297081300451 15.67803612880645,81.24573311216129 15.6,81.253419 4.4,81.253419 4.3219638711935495,81.24573311216129 4.2469266270539645,81.22297081300451 4.1777719067921595,81.18600684492101 4.117157287525381,81.1362617124746 4.067412155078982,81.07564709320783 4.030448186995486,81.00649237294603 4.007685887838708,80.93145512880645 4.0,80.85341899999999" /><polygon points="22.0,78.253419 22.494538976570364,78.35091899999999 22.98907795314073,78.44341899999999 23.483616929711093,78.530919 23.978155906281454,78.613419 24.47269488285182,78.690919 24.967233859422183,78.763419 25.461772835992548,78.830919 25.956311812562912,78.893419 26.450850789133277,78.950919 26.945389765703638,79.003419 27.439928742274006,79.050919 27.934467718844367,79.093419 28.42900669541473,79.13091899999999 28.923545671985096,79.16341899999999 29.41808464855546,79.190919 29.912623625125825,79.21341899999999 30.407162601696186,79.230919 30.901701578266554,79.24341899999999 31.396240554836915,79.250919 31.89077953140728,79.253419 32.385318507977644,79.250919 32.87985748454801,79.24341899999999 33.37439646111837,79.230919 33.868935437688734,79.21341899999999 34.3634744142591,79.190919 34.85801339082946,79.16341899999999 35.35255236739983,79.13091899999999 35.84709134397019,79.093419 36.34163032054055,79.050919 36.83616929711092,79.003419 37.33070827368128,78.950919 37.82524725025165,78.893419 38.31978622682201,78.830919 38.81432520339237,78.763419 39.30886417996274,78.690919 39.80340315653311,78.613419 40.29794213310347,78.530919 40.79248110967383,78.44341899999999 41.2870200862442,78.35091899999999 41.78155906281456,78.253419 42.981559062814554,84.753419 41.78155906281456,82.753419 41.2870200862442,82.85091899999999 40.79248110967383,82.94341899999999 40.29794213310347,83.030919 39.80340315653311,83.113419 39.30886417996274,83.190919 38.81432520339237,83.263419 38.31978622682201,83.330919 37.82524725025165,83.393419 37.33070827368128,83.450919 36.83616929711092,83.503419 36.34163032054055,83.550919 35.84709134397019,83.593419 35.35255236739983,83.63091899999999 34.85801339082946,83.66341899999999 34.3634744142591,83.690919 33.868935437688734,83.71341899999999 33.37439646111837,83.730919 32.87985748454801,83.74341899999999 32.385318507977644,83.750919 31.89077953140728,83.753419 31.396240554836915,83.750919 30.901701578266554,83.74341899999999 30.407162601696186,83.730919 29.912623625125825,83.71341899999999 29.41808464855546,83.690919 28.923545671985096,83.66341899999999 28.42900669541473,83.63091899999999 27.934467718844367,83.593419 27.439928742274006,83.550919 26.945389765703638,83.503419 26.450850789133277,83.450919 25.956311812562912,83.393419 25.461772835992548,83.330919 24.967233859422183,83.263419 24.47269488285182,83.190919 23.978155906281454,83.113419 23.483616929711093,83.030919 22.98907795314073,82.94341899999999 22.494538976570364,82.85091899999999 22.0,82.753419" /><polygon points="48.981559062814554,78.253419 49.51859803938492,78.331419 50.055637015955284,78.405419 50.59267599252565,78.47541899999999 51.12971496909601,78.54141899999999 51.66675394566637,78.60341899999999 52.20379292223674,78.661419 52.7408318988071,78.715419 53.27787087537747,78.765419 53.81490985194783,78.811419 54.351948828518196,78.85341899999999 54.88898780508856,78.891419 55.42602678165892,78.92541899999999 55.963065758229284,78.95541899999999 56.50010473479965,78.98141899999999 57.037143711370014,79.003419 57.57418268794038,79.021419 58.111221664510744,79.03541899999999 58.64826064108111,79.045419 59.18529961765147,79.051419 59.72233859422183,79.05341899999999 60.259377570792196,79.051419 60.79641654736256,79.045419 61.333455523932926,79.03541899999999 61.87049450050329,79.021419 62.407533477073656,79.003419 62.944572453644014,78.98141899999999 63.481611430214386,78.95541899999999 64.01865040678474,78.92541899999999 64.55568938335512,78.891419 65.09272835992547,78.85341899999999 65.62976733649583,78.811419 66.1668063130662,78.765419 66.70384528963656,78.715419 67.24088426620693,78.661419 67.77792324277729,78.60341899999999 68.31496221934765,78.54141899999999 68.85200119591802,78.47541899999999 69.38904017248838,78.405419 69.92607914905875,78.331419 70.46311812562911,78.253419 70.46311812562911,81.253419 69.92607914905875,81.331419 69.38904017248838,81.405419 68.85200119591802,81.47541899999999 68.31496221934765,81.54141899999999 67.77792324277729,81.60341899999999 67.24088426620693,81.661419 66.70384528963656,81.715419 66.1668063130662,81.765419 65.62976733649583,81.81141899999999 65.09272835992547,81.85341899999999 64.55568938335512,81.891419 64.01865040678474,81.92541899999999 63.481611430214386,81.95541899999999 62.944572453644014,81.98141899999999 62.407533477073656,82.003419 61.87049450050329,82.021419 61.333455523932926,82.03541899999999 60.79641654736256,82.045419 60.259377570792196,82.051419 59.72233859422183,82.05341899999999 59.18529961765147,82.051419 58.64826064108111,82.045419 58.111221664510744,82.03541899999999 57.57418268794038,82.021419 57.037143711370014,82.003419 56.50010473479965,81.98141899999999 55.963065758229284,81.95541899999999 55.42602678165892,81.92541899999999 54.88898780508856,81.891419 54.351948828518196,81.85341899999999 53.81490985194783,81.81141899999999 53.27787087537747,81.765419 52.7408318988071,81.715419 52.20379292223674,81.661419 51.66675394566637,81.60341899999999 51.12971496909601,81.54141899999999 50.59267599252565,81.47541899999999 50.055637015955284,81.405419 49.51859803938492,81.331419 48.981559062814554,81.253419" /><polygon points="76.46311812562911,87.653419 78.16311812562911,87.653419 78.41399208627696,87.24398601027754 78.6637402374642,87.0336095155839 78.91123676973018,86.82134601094789 79.15535587361427,86.60625199139831 79.39497173965587,86.38738395196398 79.62895855839433,86.16379838767371 79.85619052036903,85.93455179355632 80.07554181611934,85.69870066464061 80.2859809237213,85.45537979737091 80.48765943681944,85.20470651066486 80.68153571223941,84.94746810275335 80.86858364765419,84.68446477781846 81.04977714073684,84.4164967400423 81.22609008916035,84.144364193607 81.39849639059777,83.86886734269466 81.5679699427221,83.59080639148738 81.73548464320639,83.31098154416726 81.90201438972363,83.03019300491643 82.06853307994687,82.74924097791697 82.23601461154911,82.468925667351 82.4054328822034,82.19004727740062 82.57776170993189,81.91340594750474 82.75371914184272,81.63959391684467 82.93319962722889,81.3685339731963 83.1159321619769,81.10001441755871 83.30164574197325,80.83382355093102 83.49006936310447,80.5697496743123 83.68093202125706,80.30758108870167 83.87396271231756,80.04710609509824 84.06889043217245,79.78811299450109 84.26544417670827,79.53039008790934 84.46335294181152,79.27372567632207 84.66234572336872,79.0179080607384 84.86215151726637,78.76272554215744 85.062499319391,78.50796642157827 85.2631181256291,78.253419 86.26311812562912,78.753419 82.2631181256291,90.653419 82.46311812562911,146.253419 76.46311812562911,146.253419" /><polygon points="92.2631181256291,78.253419 104.2631181256291,78.253419 104.2631181256291,87.97341899999999 98.2631181256291,91.753419 92.2631181256291,87.97341899999999" /></g><g fill="none" id="PIQUETES" stroke="#00b0b0" stroke-width="0.08"><line x1="23.376326668024166" x2="23.441673213554576" y1="16.3666376123484" y2="17.00954493769727" /><line x1="23.8377376635835" x2="23.441673213554576" y1="16.498924774147802" y2="17.00954493769727" /><line x1="29.789717480707495" x2="29.143499923318174" y1="46.730818969327274" y2="46.72912529823127" /><line x1="29.610282519292504" x2="29.143499923318174" y1="47.176019030672734" y2="46.72912529823127" /><line x1="43.982200822269874" x2="44.28234551683321" y1="4.277980941990859" y2="4.850268598965465" /><line x1="44.45968050144225" x2="44.28234551683321" y1="4.228857058009141" y2="4.850268598965465" /><line x1="74.46014331571973" x2="74.26980849282486" y1="14.27296613238752" y2="13.655412365340815" /><line x1="73.98173800799239" x2="74.26980849282486" y1="14.233871867612482" y2="13.655412365340815" /><line x1="115.86653465068605" x2="115.91794585372277" y1="7.306131939521935" y2="7.95030341374469" /><line x1="116.32497324064292" x2="115.91794585372277" y1="7.448378413075304" y2="7.95030341374469" /><line x1="98.75742307498803" x2="99.1686697981076" y1="7.126244069971324" y2="7.624717873418823" /><line x1="99.21464548374342" x2="99.1686697981076" y1="6.980135654977827" y2="7.624717873418823" /><line x1="97.43477297752416" x2="97.87323153148444" y1="8.156390678518992" y2="8.631105431248526" /><line x1="97.88311654601632" x2="97.87323153148444" y1="7.984961262747637" y2="8.631105431248526" /></g><g fill="none" id="TEXTOS" stroke="#000000" stroke-width="0.08"><text fill="#000000" font-family="sans-serif" font-size="0.9" stroke="none" text-anchor="middle" x="16.394244949221722" y="38.89062179615809">DELANTERO</text><text fill="#000000" font-family="sans-serif" font-size="0.6" stroke="none" text-anchor="middle" x="16.394244949221722" y="40.290621796158085">Pieza N.01</text><text fill="#000000" font-family="sans-serif" font-size="0.6" stroke="none" text-anchor="middle" x="16.394244949221722" y="41.690621796158084">Talla: S</text><text fill="#000000" font-family="sans-serif" font-size="0.6" stroke="none" text-anchor="middle" x="16.394244949221722" y="43.09062179615808">Cortar: 2  (par: izq + der)</text><text fill="#000000" font-family="sans-serif" font-size="0.9" stroke="none" text-anchor="middle" x="47.3104783334675" y="30.683443840483136">ESPALDA</text><text fill="#000000" font-family="sans-serif" font-size="0.6" stroke="none" text-anchor="middle" x="47.3104783334675" y="32.083443840483135">Pieza N.02</text><text fill="#000000" font-family="sans-serif" font-size="0.6" stroke="none" text-anchor="middle" x="47.3104783334675" y="33.48344384048313">Talla: S</text><text fill="#000000" font-family="sans-serif" font-size="0.6" stroke="none" text-anchor="middle" x="47.3104783334675" y="34.88344384048313">Cortar: 1  (al doblez)</text><text fill="#000000" font-family="sans-serif" font-size="0.6" stroke="none" text-anchor="middle" x="47.3104783334675" y="36.28344384048314">AL DOBLEZ</text><text fill="#000000" font-family="sans-serif" font-size="0.9" stroke="none" text-anchor="middle" x="74.56825752289785" y="6.403224483189659">CANESU</text><text fill="#000000" font-family="sans-serif" font-size="0.6" stroke="none" text-anchor="middle" x="74.56825752289785" y="7.803224483189658">Pieza N.03</text><text fill="#000000" font-family="sans-serif" font-size="0.6" stroke="none" text-anchor="middle" x="74.56825752289785" y="9.203224483189658">Talla: S</text><text fill="#000000" font-family="sans-serif" font-size="0.6" stroke="none" text-anchor="middle" x="74.56825752289785" y="10.603224483189656">Cortar: 2  (al doblez x2 (exterior+interior))</text><text fill="#000000" font-family="sans-serif" font-size="0.6" stroke="none" text-anchor="middle" x="74.56825752289785" y="12.003224483189658">AL DOBLEZ</text><text fill="#000000" font-family="sans-serif" font-size="0.9" stroke="none" text-anchor="middle" x="107.71784617471015" y="31.677968300226638">MANGA</text><text fill="#000000" font-family="sans-serif" font-size="0.6" stroke="none" text-anchor="middle" x="107.71784617471015" y="33.07796830022664">Pieza N.04</text><text fill="#000000" font-family="sans-serif" font-size="0.6" stroke="none" text-anchor="middle" x="107.71784617471015" y="34.477968300226635">Talla: S</text><text fill="#000000" font-family="sans-serif" font-size="0.6" stroke="none" text-anchor="middle" x="107.71784617471015" y="35.877968300226634">Cortar: 2  (par: izq + der)</text><text fill="#000000" font-family="sans-serif" font-size="0.9" stroke="none" text-anchor="middle" x="141.89717991450885" y="7.553419000000003">PUNO</text><text fill="#000000" font-family="sans-serif" font-size="0.6" stroke="none" text-anchor="middle" x="141.89717991450885" y="8.953419000000004">Pieza N.05</text><text fill="#000000" font-family="sans-serif" font-size="0.6" stroke="none" text-anchor="middle" x="141.89717991450885" y="10.353419000000002">Talla: S</text><text fill="#000000" font-family="sans-serif" font-size="0.6" stroke="none" text-anchor="middle" x="141.89717991450885" y="11.753419000000003">Cortar: 4  (4 (2 tela + 2 entretela))</text><text fill="#000000" font-family="sans-serif" font-size="0.9" stroke="none" text-anchor="middle" x="9.999999999999996" y="77.05341899999999">TAPETA MANGA</text><text fill="#000000" font-family="sans-serif" font-size="0.6" stroke="none" text-anchor="middle" x="9.999999999999996" y="78.453419">Pieza N.06</text><text fill="#000000" font-family="sans-serif" font-size="0.6" stroke="none" text-anchor="middle" x="9.999999999999996" y="79.85341899999999">Talla: S</text><text fill="#000000" font-family="sans-serif" font-size="0.6" stroke="none" text-anchor="middle" x="9.999999999999996" y="81.253419">Cortar: 2  (par)</text><text fill="#000000" font-family="sans-serif" font-size="0.9" stroke="none" text-anchor="middle" x="32.19372336901141" y="77.59176004802102">CUELLO</text><text fill="#000000" font-family="sans-serif" font-size="0.6" stroke="none" text-anchor="middle" x="32.19372336901141" y="78.99176004802102">Pieza N.07</text><text fill="#000000" font-family="sans-serif" font-size="0.6" stroke="none" text-anchor="middle" x="32.19372336901141" y="80.39176004802101">Talla: S</text><text fill="#000000" font-family="sans-serif" font-size="0.6" stroke="none" text-anchor="middle" x="32.19372336901141" y="81.79176004802102">Cortar: 2  (al doblez x2 (+ entretela))</text><text fill="#000000" font-family="sans-serif" font-size="0.6" stroke="none" text-anchor="middle" x="32.19372336901141" y="83.19176004802102">AL DOBLEZ</text><text fill="#000000" font-family="sans-serif" font-size="0.9" stroke="none" text-anchor="middle" x="59.72233859422184" y="76.686419">PIE DE CUELLO</text><text fill="#000000" font-family="sans-serif" font-size="0.6" stroke="none" text-anchor="middle" x="59.72233859422184" y="78.08641899999999">Pieza N.08</text><text fill="#000000" font-family="sans-serif" font-size="0.6" stroke="none" text-anchor="middle" x="59.72233859422184" y="79.486419">Talla: S</text><text fill="#000000" font-family="sans-serif" font-size="0.6" stroke="none" text-anchor="middle" x="59.72233859422184" y="80.88641899999999">Cortar: 2  (al doblez x2 (+ entretela))</text><text fill="#000000" font-family="sans-serif" font-size="0.6" stroke="none" text-anchor="middle" x="59.72233859422184" y="82.286419">AL DOBLEZ</text><text fill="#000000" font-family="sans-serif" font-size="0.9" stroke="none" text-anchor="middle" x="79.67651059820533" y="111.86350312701114">VISTA DELANTERA</text><text fill="#000000" font-family="sans-serif" font-size="0.6" stroke="none" text-anchor="middle" x="79.67651059820533" y="113.26350312701113">Pieza N.09</text><text fill="#000000" font-family="sans-serif" font-size="0.6" stroke="none" text-anchor="middle" x="79.67651059820533" y="114.66350312701114">Talla: S</text><text fill="#000000" font-family="sans-serif" font-size="0.6" stroke="none" text-anchor="middle" x="79.67651059820533" y="116.06350312701115">Cortar: 2  (par: izq + der)</text><text fill="#000000" font-family="sans-serif" font-size="0.9" stroke="none" text-anchor="middle" x="98.2631181256291" y="81.40969806976743">BOLSILLO</text><text fill="#000000" font-family="sans-serif" font-size="0.6" stroke="none" text-anchor="middle" x="98.2631181256291" y="82.80969806976744">Pieza N.10</text><text fill="#000000" font-family="sans-serif" font-size="0.6" stroke="none" text-anchor="middle" x="98.2631181256291" y="84.20969806976744">Talla: S</text><text fill="#000000" font-family="sans-serif" font-size="0.6" stroke="none" text-anchor="middle" x="98.2631181256291" y="85.60969806976743">Cortar: 1  (1 (opcional))</text></g><g fill="none" id="CENTROS" stroke="#0050ff" stroke-width="0.08"><circle cx="18.9" cy="29.253419" fill="#0050ff" r="0.15" /><circle cx="111.92675717744065" cy="52.253419" fill="#0050ff" r="0.15" /></g><g fill="none" id="HILO" stroke="#c0a000" stroke-width="0.08"><line x1="17.7" x2="17.7" y1="16.653419" y2="69.253419" /><line x1="17.7" x2="18.167302010770378" y1="69.253419" y2="68.14814580719654" /><line x1="17.7" x2="17.232697989229617" y1="69.253419" y2="68.14814580719654" /><line x1="17.7" x2="17.23269798922962" y1="16.653419" y2="17.758692192803462" /><line x1="17.7" x2="18.167302010770378" y1="16.653419" y2="17.758692192803462" /><line x1="36.2" x2="36.2" y1="7.253419" y2="59.253419" /><line x1="36.2" x2="36.66730201077038" y1="59.253419" y2="58.14814580719654" /><line x1="36.2" x2="35.73269798922962" y1="59.253419" y2="58.14814580719654" /><line x1="36.2" x2="35.73269798922962" y1="7.253419" y2="8.358692192803463" /><line x1="36.2" x2="36.66730201077038" y1="7.253419" y2="8.358692192803463" /><line x1="69.96000000000001" x2="69.96000000000001" y1="5.253419" y2="13.753419000000001" /><line x1="69.96000000000001" x2="70.42730201077039" y1="13.753419000000001" y2="12.648145807196538" /><line x1="69.96000000000001" x2="69.49269798922963" y1="13.753419000000001" y2="12.648145807196538" /><line x1="69.96000000000001" x2="69.49269798922963" y1="5.253419" y2="6.358692192803462" /><line x1="69.96000000000001" x2="70.42730201077038" y1="5.253419" y2="6.358692192803462" /><line x1="107.76994959841792" x2="107.76994959841792" y1="8.787179" y2="62.253419" /><line x1="107.76994959841792" x2="108.2372516091883" y1="62.253419" y2="61.14814580719654" /><line x1="107.76994959841792" x2="107.30264758764754" y1="62.253419" y2="61.14814580719654" /><line x1="107.76994959841792" x2="107.30264758764754" y1="8.787179" y2="9.89245219280346" /><line x1="107.76994959841792" x2="108.2372516091883" y1="8.787179" y2="9.89245219280346" /><line x1="141.89717991450885" x2="141.89717991450885" y1="4.753419" y2="15.753419000000001" /><line x1="141.89717991450885" x2="142.36448192527922" y1="15.753419000000001" y2="14.648145807196538" /><line x1="141.89717991450885" x2="141.42987790373846" y1="15.753419000000001" y2="14.648145807196538" /><line x1="141.89717991450885" x2="141.42987790373846" y1="4.753419" y2="5.858692192803462" /><line x1="141.89717991450885" x2="142.36448192527922" y1="4.753419" y2="5.858692192803462" /><line x1="10.0" x2="10.0" y1="78.653419" y2="80.85341899999999" /><line x1="10.0" x2="10.467302010770382" y1="80.85341899999999" y2="79.74814580719654" /><line x1="10.0" x2="9.532697989229618" y1="80.85341899999999" y2="79.74814580719654" /><line x1="10.0" x2="9.53269798922962" y1="78.653419" y2="79.75869219280345" /><line x1="10.0" x2="10.46730201077038" y1="78.653419" y2="79.75869219280345" /><line x1="22.5" x2="41.28155906281456" y1="78.753419" y2="78.753419" /><line x1="41.28155906281456" x2="40.1762858700111" y1="78.753419" y2="78.28611698922961" /><line x1="41.28155906281456" x2="40.1762858700111" y1="78.753419" y2="79.22072101077038" /><line x1="22.5" x2="23.605273192803462" y1="78.753419" y2="79.22072101077038" /><line x1="22.5" x2="23.605273192803462" y1="78.753419" y2="78.28611698922961" /><line x1="49.481559062814554" x2="69.96311812562911" y1="78.653419" y2="78.653419" /><line x1="69.96311812562911" x2="68.85784493282566" y1="78.653419" y2="78.18611698922962" /><line x1="69.96311812562911" x2="68.85784493282566" y1="78.653419" y2="79.12072101077037" /><line x1="49.481559062814554" x2="50.58683225561801" y1="78.653419" y2="79.12072101077037" /><line x1="49.481559062814554" x2="50.58683225561801" y1="78.653419" y2="78.18611698922962" /><line x1="79.46311812562911" x2="79.46311812562911" y1="92.653419" y2="143.253419" /><line x1="79.46311812562911" x2="79.93042013639949" y1="143.253419" y2="142.14814580719656" /><line x1="79.46311812562911" x2="78.99581611485873" y1="143.253419" y2="142.14814580719656" /><line x1="79.46311812562911" x2="78.99581611485873" y1="92.653419" y2="93.75869219280345" /><line x1="79.46311812562911" x2="79.93042013639949" y1="92.653419" y2="93.75869219280345" /><line x1="98.2631181256291" x2="98.2631181256291" y1="79.253419" y2="87.97341899999999" /><line x1="98.2631181256291" x2="98.73042013639949" y1="87.97341899999999" y2="86.86814580719653" /><line x1="98.2631181256291" x2="97.79581611485872" y1="87.97341899999999" y2="86.86814580719653" /><line x1="98.2631181256291" x2="97.79581611485872" y1="79.253419" y2="80.35869219280346" /><line x1="98.2631181256291" x2="98.73042013639949" y1="79.253419" y2="80.35869219280346" /></g><g fill="none" id="DOBLEZ" stroke="#c000c0" stroke-width="0.08"><line x1="35.7" x2="35.7" y1="4.253419" y2="62.253419" /><line x1="65.7" x2="65.7" y1="4.253419" y2="14.253419000000001" /><line x1="22.0" x2="22.0" y1="78.253419" y2="84.753419" /><line x1="48.981559062814554" x2="48.981559062814554" y1="78.253419" y2="82.05341899999999" /></g><g fill="none" id="BOTONES" stroke="#ff8000" stroke-width="0.08"><circle cx="5.7" cy="15.153419" fill="#ff8000" r="0.55" /><circle cx="5.7" cy="23.67008566666667" fill="#ff8000" r="0.55" /><circle cx="5.7" cy="32.18675233333334" fill="#ff8000" r="0.55" /><circle cx="5.7" cy="40.703419000000004" fill="#ff8000" r="0.55" /><circle cx="5.7" cy="49.22008566666667" fill="#ff8000" r="0.55" /><circle cx="5.7" cy="57.736752333333335" fill="#ff8000" r="0.55" /><circle cx="5.7" cy="66.25341900000001" fill="#ff8000" r="0.55" /><circle cx="131.59717991450884" cy="10.253419000000001" fill="#ff8000" r="0.55" /><circle cx="69.46311812562911" cy="79.753419" fill="#ff8000" r="0.55" /></g><g fill="none" id="OJAL" stroke="#ff40a0" stroke-width="0.08"><line x1="4.9" x2="6.5" y1="15.153419" y2="15.153419" /><line x1="4.9" x2="6.5" y1="23.67008566666667" y2="23.67008566666667" /><line x1="4.9" x2="6.5" y1="32.18675233333334" y2="32.18675233333334" /><line x1="4.9" x2="6.5" y1="40.703419000000004" y2="40.703419000000004" /><line x1="4.9" x2="6.5" y1="49.22008566666667" y2="49.22008566666667" /><line x1="4.9" x2="6.5" y1="57.736752333333335" y2="57.736752333333335" /><line x1="4.9" x2="6.5" y1="66.25341900000001" y2="66.25341900000001" /><line x1="152.19717991450884" x2="152.19717991450884" y1="9.453419" y2="11.053419" /></g><g fill="none" id="REFERENCIAS" stroke="#b0b0b0" stroke-width="0.08"><text fill="#000000" font-family="sans-serif" font-size="0.5" stroke="none" text-anchor="start" x="5.7" y="12.653419">CF</text><text fill="#000000" font-family="sans-serif" font-size="0.5" stroke="none" text-anchor="start" x="36.0" y="33.253419">CB</text><text fill="#000000" font-family="sans-serif" font-size="0.5" stroke="none" text-anchor="start" x="141.89717991450885" y="9.453419">DOBLEZ</text><text fill="#000000" font-family="sans-serif" font-size="0.5" stroke="none" text-anchor="start" x="98.2631181256291" y="79.753419">boca</text></g></svg>