<?xml version="1.0" encoding="utf-8" ?>
<svg baseProfile="full" height="150.473476cm" version="1.1" viewBox="0 0 168.0 150.473476" width="168.0cm" xmlns="http://www.w3.org/2000/svg" xmlns:ev="http://www.w3.org/2001/xml-events" xmlns:xlink="http://www.w3.org/1999/xlink"><defs /><rect fill="#f7f3ea" height="142.473476" stroke="#333" stroke-width="0.15" width="160.0" x="4.0" y="4.0" /><text fill="#000" font-family="sans-serif" font-size="1.4" x="4.0" y="3.0">PLANO DE CORTE — ancho 160 cm — largo 1.42 m</text><polygon fill="#cfe3f7" fill-opacity="0.5" points="4.0,74.258659 12.003604,74.258659 11.800589,17.820479 16.024922,5.253086 13.51875,4.0 12.813661,4.894625 12.612328999999999,5.150635 12.410888,5.407906 12.209615,5.666655 12.008791,5.927099999999999 11.808698,6.189463 11.609625000000001,6.453964 11.411859,6.720829 11.215695,6.99028 11.021428,7.262543 10.829358,7.537844 10.639791,7.816407 10.453034,8.098457 10.269574,8.383943 10.090569,8.671303 9.916335,8.958108 9.746062,9.243095 9.578716,9.525443 9.413305000000001,9.804344 9.248885,10.079 9.084552,10.348626 8.919448,10.612455 8.752755,10.86974 8.583692,11.119768 8.41151,11.361868999999999 8.235482000000001,11.595426 8.054869,11.819915 7.867871,12.036133 7.671651000000001,12.247112 7.465174,12.455421 7.249131,12.66186 7.024428,12.867106 6.7920370000000005,13.071866 6.552981,13.276890999999999 6.182798,13.588716 6.1399420000000005,13.658659 4.0,13.658659 4.0,74.258659" stroke="#1f6fb2" stroke-width="0.1" /><text fill="#0a3d62" font-family="sans-serif" font-size="1.6" text-anchor="middle" x="10.012461" y="39.1293295">09</text><polygon fill="#cfe3f7" fill-opacity="0.5" points="17.024922,74.258659 25.028526,74.258659 24.825511,17.820479 29.049844,5.253086 26.543672,4.0 25.838583,4.894625 25.637251,5.150635 25.43581,5.407906 25.234537,5.666655 25.033713,5.927099999999999 24.83362,6.189463 24.634547,6.453964 24.436781,6.720829 24.240617,6.99028 24.04635,7.262543 23.85428,7.537844 23.664713,7.816407 23.477956,8.098457 23.294496000000002,8.383943 23.115491,8.671303 22.941257,8.958108 22.770984,9.243095 22.603638,9.525443 22.438227,9.804344 22.273806999999998,10.079 22.109474,10.348626 21.94437,10.612455 21.777677,10.86974 21.608614,11.119768 21.436432,11.361868999999999 21.260404,11.595426 21.079791,11.819915 20.892793,12.036133 20.696573,12.247112 20.490096,12.455421 20.274053000000002,12.66186 20.04935,12.867106 19.816959,13.071866 19.577903,13.276890999999999 19.207720000000002,13.588716 19.164864,13.658659 17.024922,13.658659 17.024922,74.258659" stroke="#1f6fb2" stroke-width="0.1" /><text fill="#0a3d62" font-family="sans-serif" font-size="1.6" text-anchor="middle" x="23.037383" y="39.1293295">09</text><polygon fill="#cfe3f7" fill-opacity="0.5" points="30.049844,74.253419 57.749843999999996,74.253419 57.749843999999996,27.960153000000002 57.306765,27.269701 57.021659,26.82593 56.735303,26.381230000000002 56.447423,25.935689 56.157607,25.489177 55.865441000000004,25.041566 55.570514,24.59273 55.272414,24.142545000000002 54.970809,23.691007000000003 54.666368,23.239314 54.361996,22.789072 54.060832,22.340595 53.765519999999995,21.893542 53.47867,21.447643 53.202861999999996,21.002702 52.940632,20.558593 52.694448,20.115251 52.466693,19.672654 52.259637,19.230803 52.075412,18.789682 51.915987,18.349201 51.783141,17.909043 51.677912,17.466450000000002 51.599255,17.016318000000002 51.545052999999996,16.555929 51.513701999999995,16.085232 51.503586999999996,15.604520999999998 51.51302,15.114260000000002 51.540222,14.615027000000001 51.583315,14.10747 51.640331,13.592267 51.709215,13.070103 51.787842,12.541644999999999 51.874024,12.007532000000001 51.965519,11.468366 52.188547,10.185535 39.564463,4.0 38.863505,4.889385 38.662172999999996,5.145395000000001 38.460732,5.402666 38.259459,5.661415 38.058635,5.921860000000001 37.858542,6.184223 37.659469,6.448724 37.461703,6.715589 37.265539000000004,6.98504 37.071272,7.257303 36.879202,7.532604 36.689635,7.811167 36.502878,8.093217 36.319418,8.378703 36.140413,8.666063 35.966179,8.952868 35.795906,9.237855 35.62856,9.520203 35.463149,9.799104 35.298729,10.07376 35.134396,10.343385999999999 34.969292,10.607215 34.802599,10.8645 34.633536,11.114528 34.461354,11.356629 34.285326,11.590186 34.104713000000004,11.814675000000001 33.917715,12.030892999999999 33.721495,12.241872 33.515018,12.450181 33.298975,12.65662 33.074272,12.861866 32.841881,13.066626 32.602825,13.271650999999999 32.232642,13.583476000000001 32.189786,13.653419 30.049844,13.653419 30.049844,74.253419" stroke="#1f6fb2" stroke-width="0.1" /><text fill="#0a3d62" font-family="sans-serif" font-size="1.6" text-anchor="middle" x="43.899844" y="39.1267095">01</text><polygon fill="#cfe3f7" fill-opacity="0.5" points="58.749843999999996,74.253419 86.449844,74.253419 86.449844,27.960153000000002 86.006765,27.269701 85.72165899999999,26.82593 85.43530299999999,26.381230000000002 85.147423,25.935689 84.857607,25.489177 84.56544099999999,25.041566 84.27051399999999,24.59273 83.972414,24.142545000000002 83.67080899999999,23.691007000000003 83.366368,23.239314 83.061996,22.789072 82.760832,22.340595 82.46552,21.893542 82.17867,21.447643 81.902862,21.002702 81.640632,20.558593 81.394448,20.115251 81.166693,19.672654 80.95963699999999,19.230803 80.77541199999999,18.789682 80.61598699999999,18.349201 80.48314099999999,17.909043 80.377912,17.466450000000002 80.29925499999999,17.016318000000002 80.245053,16.555929 80.213702,16.085232 80.203587,15.604520999999998 80.21302,15.114260000000002 80.24022199999999,14.615027000000001 80.28331499999999,14.10747 80.34033099999999,13.592267 80.40921499999999,13.070103 80.487842,12.541644999999999 80.574024,12.007532000000001 80.66551899999999,11.468366 80.88854699999999,10.185535 68.26446299999999,4.0 67.56350499999999,4.889385 67.362173,5.145395000000001 67.160732,5.402666 66.959459,5.661415 66.758635,5.921860000000001 66.558542,6.184223 66.35946899999999,6.448724 66.16170299999999,6.715589 65.96553899999999,6.98504 65.771272,7.257303 65.579202,7.532604 65.389635,7.811167 65.202878,8.093217 65.019418,8.378703 64.840413,8.666063 64.666179,8.952868 64.49590599999999,9.237855 64.32856,9.520203 64.16314899999999,9.799104 63.998729,10.07376 63.834396,10.343385999999999 63.669292,10.607215 63.502599,10.8645 63.333535999999995,11.114528 63.161353999999996,11.356629 62.98532599999999,11.590186 62.80471299999999,11.814675000000001 62.617715,12.030892999999999 62.42149499999999,12.241872 62.21501799999999,12.450181 61.998974999999994,12.65662 61.774271999999996,12.861866 61.541881,13.066626 61.302825,13.271650999999999 60.932641999999994,13.583476000000001 60.889785999999994,13.653419 58.749843999999996,13.653419 58.749843999999996,74.253419" stroke="#1f6fb2" stroke-width="0.1" /><text fill="#0a3d62" font-family="sans-serif" font-size="1.6" text-anchor="middle" x="72.59984399999999" y="39.1267095">01</text><polygon fill="#cfe3f7" fill-opacity="0.5" points="92.192233,66.006393 118.011089,66.006393 122.762461,16.035168 122.109204,15.210287999999998 121.69972,14.698910000000001 121.281791,14.188382 120.85305600000001,13.681667000000001 120.413071,13.183060999999999 119.963781,12.694686 119.50632,12.216176 119.041343,11.746621000000001 118.569486,11.285104 118.09137799999999,10.830708999999999 117.60763399999999,10.382515 117.11885699999999,9.939604 116.625642,9.501058 116.12828999999999,9.065715 115.625249,8.63149 115.113509,8.198983 114.591233,7.771331 114.057091,7.352232 113.50967299999999,6.945442 112.94750400000001,6.554804 112.36907,6.184279 111.772859,5.837983 111.157422,5.520212 110.522243,5.235816 109.871704,4.990121 109.213273,4.781853 108.55077800000001,4.605777 107.88637,4.456249 107.22199,4.3277980000000005 106.559474,4.215141 105.90062,4.113192 105.131398,4.0 104.34530699999999,4.068581 103.670303,4.132399 102.991331,4.206583 102.309952,4.2962620000000005 101.627741,4.406755 100.946356,4.543575000000001 100.26763199999999,4.712418 99.59419199999999,4.918969000000001 98.932607,5.166749 98.288873,5.452346 97.66393,5.77067 97.05669,6.117474 96.465943,6.48869 95.890436,6.880414 95.32892,7.288872 94.780185,7.710394 94.243081,8.141382 93.71644,8.578365999999999 93.197619,9.019431 92.684199,9.466485 92.176719,9.922457999999999 91.677241,10.389171000000001 91.187922,10.868435 90.710974,11.362078 90.248681,11.871938 89.803404,12.399837 89.377598,12.94756 88.97458,13.515737000000001 88.598912,14.099307 88.248536,14.688519 87.916988,15.277131 87.449844,16.12964 92.192233,66.006393" stroke="#1f6fb2" stroke-width="0.1" /><text fill="#0a3d62" font-family="sans-serif" font-size="1.6" text-anchor="middle" x="105.10615250000001" y="35.0031965">04</text><polygon fill="#cfe3f7" fill-opacity="0.5" points="128.50485,66.006393 154.32370600000002,66.006393 159.07507800000002,16.035168 158.421821,15.210287999999998 158.012337,14.698910000000001 157.594408,14.188382 157.165673,13.681667000000001 156.725688,13.183060999999999 156.276398,12.694686 155.818937,12.216176 155.35396,11.746621000000001 154.882103,11.285104 154.403995,10.830708999999999 153.920251,10.382515 153.431474,9.939604 152.93825900000002,9.501058 152.440907,9.065715 151.937866,8.63149 151.426126,8.198983 150.90385,7.771331 150.369708,7.352232 149.82229,6.945442 149.260121,6.554804 148.681687,6.184279 148.085476,5.837983 147.470039,5.520212 146.83486,5.235816 146.184321,4.990121 145.52589,4.781853 144.863395,4.605777 144.198987,4.456249 143.534607,4.3277980000000005 142.872091,4.215141 142.213237,4.113192 141.444015,4.0 140.657924,4.068581 139.98292,4.132399 139.303948,4.206583 138.622569,4.2962620000000005 137.940358,4.406755 137.258973,4.543575000000001 136.580249,4.712418 135.906809,4.918969000000001 135.245224,5.166749 134.60149,5.452346 133.976547,5.77067 133.369307,6.117474 132.77856,6.48869 132.203053,6.880414 131.641537,7.288872 131.092802,7.710394 130.555698,8.141382 130.029057,8.578365999999999 129.510236,9.019431 128.996816,9.466485 128.489336,9.922457999999999 127.989858,10.389171000000001 127.500539,10.868435 127.02359100000001,11.362078 126.56129800000001,11.871938 126.116021,12.399837 125.69021500000001,12.94756 125.287197,13.515737000000001 124.911529,14.099307 124.561153,14.688519 124.229605,15.277131 123.762461,16.12964 128.50485,66.006393" stroke="#1f6fb2" stroke-width="0.1" /><text fill="#0a3d62" font-family="sans-serif" font-size="1.6" text-anchor="middle" x="141.4187695" y="35.0031965">04</text><polygon fill="#cfe3f7" fill-opacity="0.5" points="54.0,88.94094299999999 53.480294,88.205625 53.143131,87.72928999999999 52.803697,87.25116 52.461366,86.771062 52.11531,86.28853899999999 51.764706000000004,85.80314299999999 51.408731,85.31442799999999 51.046565,84.821952 50.677642,84.325616 50.303278,83.826931 49.928726999999995,83.328259 49.558576,82.829842 49.197327,82.331971 48.849404,81.83500699999999 48.519198,81.339484 48.211031,80.846116 47.929101,80.355786 47.677403,79.86953799999999 47.459631,79.38851 47.279063,78.913822 47.138459,78.44637 47.04003,77.98647799999999 46.985233,77.530941 46.973766999999995,77.070836 47.003434999999996,76.599299 47.194523000000004,75.258659 29.0,75.258659 29.0,135.258659 54.0,135.258659 54.0,88.94094299999999 4.0,88.94094299999999 4.519705999999999,88.205625 4.856869,87.72928999999999 5.196303,87.25116 5.538633999999998,86.771062 5.884689999999999,86.28853899999999 6.235294,85.80314299999999 6.5912690000000005,85.31442799999999 6.953434999999999,84.821952 7.322358000000001,84.325616 7.696722000000001,83.826931 8.071273000000001,83.328259 8.441424000000001,82.829842 8.802672999999999,82.331971 9.150596,81.83500699999999 9.480802,81.339484 9.788969000000002,80.846116 10.070899,80.355786 10.322596999999998,79.86953799999999 10.540368999999998,79.38851 10.720937,78.913822 10.861540999999999,78.44637 10.959969999999998,77.98647799999999 11.014766999999999,77.530941 11.026233000000001,77.070836 10.996565,76.599299 10.805477,75.258659 29.0,75.258659 29.0,135.258659 4.0,135.258659 4.0,88.94094299999999" stroke="#1f6fb2" stroke-width="0.1" /><text fill="#0a3d62" font-family="sans-serif" font-size="1.6" text-anchor="middle" x="29.0" y="105.258659">02</text><polygon fill="#cfe3f7" fill-opacity="0.5" points="55.0,86.530564 62.0,90.940564 69.0,86.530564 69.0,75.258659 55.0,75.258659 55.0,86.530564" stroke="#1f6fb2" stroke-width="0.1" /><text fill="#0a3d62" font-family="sans-serif" font-size="1.6" text-anchor="middle" x="62.0" y="83.0996115">10</text><polygon fill="#cfe3f7" fill-opacity="0.5" points="70.0,87.507786 70.029841,87.810766 70.132547,88.14934099999999 70.299332,88.46137399999999 70.523786,88.734873 70.797285,88.959327 71.109318,89.12611199999999 71.447893,89.22881799999999 71.750873,89.258659 93.249127,89.258659 93.552107,89.22881799999999 93.890682,89.12611199999999 94.202715,88.959327 94.476214,88.734873 94.70066800000001,88.46137399999999 94.867453,88.14934099999999 94.970159,87.810766 95.0,87.507786 95.0,77.009532 94.970159,76.70655199999999 94.867453,76.367977 94.70066800000001,76.055944 94.476214,75.782445 94.202715,75.557991 93.890682,75.391206 93.552107,75.2885 93.249127,75.258659 71.750873,75.258659 71.447893,75.2885 71.109318,75.391206 70.797285,75.557991 70.523786,75.782445 70.299332,76.055944 70.132547,76.367977 70.029841,76.70655199999999 70.0,77.009532 70.0,87.507786" stroke="#1f6fb2" stroke-width="0.1" /><text fill="#0a3d62" font-family="sans-serif" font-size="1.6" text-anchor="middle" x="82.5" y="82.258659">05</text><polygon fill="#cfe3f7" fill-opacity="0.5" points="96.0,87.507786 96.029841,87.810766 96.132547,88.14934099999999 96.299332,88.46137399999999 96.523786,88.734873 96.797285,88.959327 97.109318,89.12611199999999 97.447893,89.22881799999999 97.750873,89.258659 119.249127,89.258659 119.552107,89.22881799999999 119.890682,89.12611199999999 120.202715,88.959327 120.476214,88.734873 120.70066800000001,88.46137399999999 120.867453,88.14934099999999 120.970159,87.810766 121.0,87.507786 121.0,77.009532 120.970159,76.70655199999999 120.867453,76.367977 120.70066800000001,76.055944 120.476214,75.782445 120.202715,75.557991 119.890682,75.391206 119.552107,75.2885 119.249127,75.258659 97.750873,75.258659 97.447893,75.2885 97.109318,75.391206 96.797285,75.557991 96.523786,75.782445 96.299332,76.055944 96.132547,76.367977 96.029841,76.70655199999999 96.0,77.009532 96.0,87.507786" stroke="#1f6fb2" stroke-width="0.1" /><text fill="#0a3d62" font-family="sans-serif" font-size="1.6" text-anchor="middle" x="108.5" y="82.258659">05</text><polygon fill="#cfe3f7" fill-opacity="0.5" points="160.947982,86.224042 161.054419,85.727083 161.195948,85.21811199999999 161.36983,84.69811999999999 161.572954,84.16822099999999 161.801909,83.62951299999999 162.053062,83.08301 162.322621,82.529598 162.606693,81.970028 162.901315,81.40491 163.75104,79.79612399999999 150.317057,75.258659 149.68383599999999,75.70083199999999 149.467632,75.85040699999999 149.253797,75.995599 149.041777,76.135538 148.831036,76.269407 148.621044,76.39645399999999 148.41065600000002,76.516342 148.197851,76.629566 147.981608,76.736639 147.76212900000002,76.837448 147.539748,76.93181999999999 147.314801,77.01958599999999 147.087623,77.100584 146.858553,77.174658 146.627928,77.241661 146.396087,77.30144999999999 146.163276,77.35391 145.928867,77.399138 145.691648,77.43766099999999 145.45113700000002,77.470034 145.20734,77.496732 144.960296,77.518242 144.710067,77.535067 144.456732,77.547726 144.200382,77.55675799999999 143.941113,77.562721 143.67902800000002,77.56618999999999 143.414227,77.56776099999999 143.14681000000002,77.56804799999999 142.87552,77.567681 142.87552,87.367682 160.784974,87.367682 160.947982,86.224042 124.803058,86.224042 124.696621,85.727083 124.555092,85.21811199999999 124.38121000000001,84.69811999999999 124.17808600000001,84.16822099999999 123.949131,83.62951299999999 123.697978,83.08301 123.428419,82.529598 123.14434700000001,81.970028 122.849725,81.40491 122.0,79.79612399999999 135.433983,75.258659 136.067204,75.70083199999999 136.283408,75.85040699999999 136.497243,75.995599 136.709263,76.135538 136.920004,76.269407 137.129996,76.39645399999999 137.340384,76.516342 137.553189,76.629566 137.769432,76.736639 137.988911,76.837448 138.21129200000001,76.93181999999999 138.436239,77.01958599999999 138.663417,77.100584 138.89248700000002,77.174658 139.123112,77.241661 139.354953,77.30144999999999 139.587764,77.35391 139.822173,77.399138 140.059392,77.43766099999999 140.299903,77.470034 140.5437,77.496732 140.790744,77.518242 141.040973,77.535067 141.294308,77.547726 141.550658,77.55675799999999 141.80992700000002,77.562721 142.072012,77.56618999999999 142.336813,77.56776099999999 142.60423,77.56804799999999 142.87552,77.567681 142.87552,87.367682 124.966066,87.367682 124.803058,86.224042" stroke="#1f6fb2" stroke-width="0.1" /><text fill="#0a3d62" font-family="sans-serif" font-size="1.6" text-anchor="middle" x="142.87552" y="81.3131705">03</text><polygon fill="#cfe3f7" fill-opacity="0.5" points="27.203371,143.10941 27.707564,143.19861799999998 28.211805,143.282737 28.716093,143.361764 29.220425,143.4357 29.724798,143.504542 30.229209,143.56829 30.733657,143.62694199999999 31.238138,143.680498 31.742648,143.72895499999998 32.247187,143.772315 32.751749000000004,143.810575 33.256333,143.84373499999998 33.760936,143.871794 34.265553,143.89475299999998 34.770184,143.91261 35.274823,143.925365 35.779469,143.933019 36.284118,143.93556999999998 36.788766,143.933019 37.293412000000004,143.925365 37.798051,143.91261 38.302682000000004,143.89475299999998 38.807299,143.871794 39.311902,143.84373499999998 39.816486,143.810575 40.321048,143.772315 40.825587,143.72895499999998 41.330097,143.680498 41.834578,143.62694199999999 42.339026000000004,143.56829 42.843437,143.504542 43.347809999999996,143.4357 43.852142,143.361764 44.35643,143.282737 44.860670999999996,143.19861799999998 45.364864,143.10941 45.677889,143.050861 47.731458,146.473476 48.786676,146.074493 46.974522,136.258659 45.491710999999995,136.551 45.006774,136.641704 44.521889,136.727496 44.037052,136.808377 43.552262,136.88434999999998 43.067516,136.955414 42.582811,137.021572 42.098145,137.082824 41.613514,137.139172 41.128917,137.190616 40.64435,137.237159 40.15981,137.278799 39.675295,137.315539 39.190801,137.347379 38.706325,137.37431999999998 38.221865,137.39636099999998 37.737418,137.413504 37.252978999999996,137.425749 36.768547,137.43309499999998 36.284118,137.435544 35.799688,137.43309499999998 35.315256,137.425749 34.830818,137.413504 34.34637,137.39636099999998 33.86191,137.37431999999998 33.377434,137.347379 32.892939999999996,137.315539 32.408425,137.278799 31.923885,137.237159 31.439318,137.190616 30.954721,137.139172 30.47009,137.082824 29.985424000000002,137.021572 29.500719,136.955414 29.015973,136.88434999999998 28.531183,136.808377 28.046346,136.727496 27.561461,136.641704 27.076524,136.551 26.393338,136.416308 26.393338,142.954806 26.69923,143.01511399999998 27.203371,143.10941 25.583305,143.10941 25.079112,143.19861799999998 24.574871,143.282737 24.070583,143.361764 23.566251,143.4357 23.061878,143.504542 22.557467,143.56829 22.053019,143.62694199999999 21.548538,143.680498 21.044028,143.72895499999998 20.539489,143.772315 20.034927,143.810575 19.530343000000002,143.84373499999998 19.02574,143.871794 18.521123,143.89475299999998 18.016492,143.91261 17.511853000000002,143.925365 17.007207,143.933019 16.502558,143.93556999999998 15.99791,143.933019 15.493264,143.925365 14.988625,143.91261 14.483994,143.89475299999998 13.979377,143.871794 13.474774,143.84373499999998 12.97019,143.810575 12.465628,143.772315 11.961089,143.72895499999998 11.456579,143.680498 10.952098,143.62694199999999 10.44765,143.56829 9.943238999999998,143.504542 9.438866,143.4357 8.934534,143.361764 8.430246,143.282737 7.926005,143.19861799999998 7.421811999999999,143.10941 7.1087869999999995,143.050861 5.055218,146.473476 4.0,146.074493 5.812154,136.258659 7.294965000000001,136.551 7.779902,136.641704 8.264786999999998,136.727496 8.749624,136.808377 9.234414000000001,136.88434999999998 9.719159999999999,136.955414 10.203865,137.021572 10.688531,137.082824 11.173162,137.139172 11.657759,137.190616 12.142326,137.237159 12.626866,137.278799 13.111381,137.315539 13.595875,137.347379 14.080351,137.37431999999998 14.564811,137.39636099999998 15.049258,137.413504 15.533697,137.425749 16.018129000000002,137.43309499999998 16.502558,137.435544 16.986988,137.43309499999998 17.471420000000002,137.425749 17.955858,137.413504 18.440306,137.39636099999998 18.924765999999998,137.37431999999998 19.409242,137.347379 19.893736,137.315539 20.378251,137.278799 20.862791,137.237159 21.347358,137.190616 21.831955,137.139172 22.316586,137.082824 22.801251999999998,137.021572 23.285957,136.955414 23.770703,136.88434999999998 24.255493,136.808377 24.74033,136.727496 25.225215,136.641704 25.710152,136.551 26.393338,136.416308 26.393338,142.954806 26.087446,143.01511399999998 25.583305,143.10941" stroke="#1f6fb2" stroke-width="0.1" /><text fill="#0a3d62" font-family="sans-serif" font-size="1.6" text-anchor="middle" x="26.393338" y="141.36606749999999">07</text><polygon fill="#cfe3f7" fill-opacity="0.5" points="73.209434,141.55753099999998 73.753736,141.628478 74.298057,141.695373 74.842398,141.758216 75.386756,141.817006 75.931132,141.871744 76.47552300000001,141.922428 77.019929,141.969059 77.56434899999999,142.011637 78.10878,142.05016 78.653223,142.08462799999998 79.197675,142.115043 79.742136,142.141402 80.286604,142.163706 80.831079,142.181955 81.37555900000001,142.196149 81.920042,142.206288 82.464528,142.212371 83.009015,142.214399 83.553501,142.212371 84.097987,142.206288 84.64247,142.196149 85.18695,142.181955 85.731425,142.163706 86.275893,142.141402 86.82035400000001,142.115043 87.364806,142.08462799999998 87.909249,142.05016 88.453681,142.011637 88.9981,141.969059 89.542506,141.922428 90.086897,141.871744 90.631273,141.817006 91.175631,141.758216 91.719972,141.695373 92.264294,141.628478 92.808595,141.55753099999998 93.352875,141.482533 94.74979400000001,141.279644 94.74979400000001,136.258659 93.072635,136.502251 92.542837,136.575253 92.013061,136.644306 91.483304,136.709411 90.95356699999999,136.770568 90.42384799999999,136.827778 89.89414500000001,136.88103999999998 89.364459,136.930356 88.834787,136.97572499999998 88.305128,137.017147 87.775482,137.054624 87.245846,137.088156 86.716221,137.117741 86.186604,137.143382 85.656994,137.165078 85.127391,137.182829 84.597792,137.196635 84.068198,137.206496 83.538606,137.212413 83.009015,137.214385 82.479424,137.212413 81.949831,137.206496 81.420237,137.196635 80.890638,137.182829 80.361035,137.165078 79.831425,137.143382 79.301808,137.117741 78.772183,137.088156 78.242547,137.054624 77.712901,137.017147 77.183242,136.97572499999998 76.65357,136.930356 76.123884,136.88103999999998 75.59418099999999,136.827778 75.06446199999999,136.770568 74.53472500000001,136.709411 74.004968,136.644306 73.47519199999999,136.575253 72.945394,136.502251 72.268235,136.4039 72.268235,141.424884 72.665154,141.482533 73.209434,141.55753099999998 71.32703599999999,141.55753099999998 70.782734,141.628478 70.23841300000001,141.695373 69.694072,141.758216 69.149714,141.817006 68.605338,141.871744 68.060947,141.922428 67.516541,141.969059 66.972121,142.011637 66.42769,142.05016 65.883247,142.08462799999998 65.338795,142.115043 64.794334,142.141402 64.249866,142.163706 63.705391,142.181955 63.160911,142.196149 62.616428,142.206288 62.071942,142.212371 61.527455,142.214399 60.982969,142.212371 60.438483000000005,142.206288 59.894,142.196149 59.34952,142.181955 58.805045,142.163706 58.260577,142.141402 57.716116,142.115043 57.171664,142.08462799999998 56.627221,142.05016 56.082789000000005,142.011637 55.53837,141.969059 54.993964000000005,141.922428 54.449573,141.871744 53.905197,141.817006 53.360839,141.758216 52.816497999999996,141.695373 52.272176,141.628478 51.727875,141.55753099999998 51.183595,141.482533 49.786676,141.279644 49.786676,136.258659 51.463835,136.502251 51.993633,136.575253 52.523409,136.644306 53.053166000000004,136.709411 53.582903,136.770568 54.112622,136.827778 54.642325,136.88103999999998 55.172011,136.930356 55.701683,136.97572499999998 56.231342,137.017147 56.760988,137.054624 57.290624,137.088156 57.820249000000004,137.117741 58.349866,137.143382 58.879476,137.165078 59.409079,137.182829 59.938678,137.196635 60.468272,137.206496 60.997864,137.212413 61.527455,137.214385 62.057046,137.212413 62.586639,137.206496 63.116233,137.196635 63.645832,137.182829 64.175435,137.165078 64.705045,137.143382 65.234662,137.117741 65.764287,137.088156 66.293923,137.054624 66.82356899999999,137.017147 67.353228,136.97572499999998 67.8829,136.930356 68.412586,136.88103999999998 68.942289,136.827778 69.472008,136.770568 70.001745,136.709411 70.531502,136.644306 71.061278,136.575253 71.591076,136.502251 72.268235,136.4039 72.268235,141.424884 71.87131600000001,141.482533 71.32703599999999,141.55753099999998" stroke="#1f6fb2" stroke-width="0.1" /><text fill="#0a3d62" font-family="sans-serif" font-size="1.6" text-anchor="middle" x="72.268235" y="139.236529">08</text><polygon fill="#cfe3f7" fill-opacity="0.5" points="95.74979400000001,139.907786 95.771949,140.13272899999998 95.851892,140.396267 95.98171300000001,140.63914499999998 96.156423,140.85202999999998 96.369308,141.02674 96.61218600000001,141.15656099999998 96.875724,141.236504 97.10066700000002,141.258659 108.398921,141.258659 108.62386400000001,141.236504 108.88740200000001,141.15656099999998 109.13028000000001,141.02674 109.34316500000001,140.85202999999998 109.517875,140.63914499999998 109.64769600000001,140.396267 109.72763900000001,140.13272899999998 109.74979400000001,139.907786 109.74979400000001,137.609532 109.72763900000001,137.384589 109.64769600000001,137.121051 109.517875,136.878173 109.34316500000001,136.665288 109.13028000000001,136.490578 108.88740200000001,136.360757 108.62386400000001,136.280814 108.398921,136.258659 97.10066700000002,136.258659 96.875724,136.280814 96.61218600000001,136.360757 96.369308,136.490578 96.156423,136.665288 95.98171300000001,136.878173 95.851892,137.121051 95.771949,137.384589 95.74979400000001,137.609532 95.74979400000001,139.907786" stroke="#1f6fb2" stroke-width="0.1" /><text fill="#0a3d62" font-family="sans-serif" font-size="1.6" text-anchor="middle" x="102.74979400000001" y="138.758659">06</text><polygon fill="#cfe3f7" fill-opacity="0.5" points="110.74979400000001,139.907786 110.771949,140.13272899999998 110.851892,140.396267 110.98171300000001,140.63914499999998 111.156423,140.85202999999998 111.369308,141.02674 111.61218600000001,141.15656099999998 111.875724,141.236504 112.10066700000002,141.258659 123.398921,141.258659 123.62386400000001,141.236504 123.88740200000001,141.15656099999998 124.13028000000001,141.02674 124.34316500000001,140.85202999999998 124.517875,140.63914499999998 124.64769600000001,140.396267 124.72763900000001,140.13272899999998 124.74979400000001,139.907786 124.74979400000001,137.609532 124.72763900000001,137.384589 124.64769600000001,137.121051 124.517875,136.878173 124.34316500000001,136.665288 124.13028000000001,136.490578 123.88740200000001,136.360757 123.62386400000001,136.280814 123.398921,136.258659 112.10066700000002,136.258659 111.875724,136.280814 111.61218600000001,136.360757 111.369308,136.490578 111.156423,136.665288 110.98171300000001,136.878173 110.851892,137.121051 110.771949,137.384589 110.74979400000001,137.609532 110.74979400000001,139.907786" stroke="#1f6fb2" stroke-width="0.1" /><text fill="#0a3d62" font-family="sans-serif" font-size="1.6" text-anchor="middle" x="117.74979400000001" y="138.758659">06</text></svg>