<?xml version="1.0" encoding="utf-8" ?>
<svg baseProfile="full" height="156.272317cm" version="1.1" viewBox="0 0 158.0 156.272317" width="158.0cm" xmlns="http://www.w3.org/2000/svg" xmlns:ev="http://www.w3.org/2001/xml-events" xmlns:xlink="http://www.w3.org/1999/xlink"><defs /><rect fill="#f7f3ea" height="148.272317" stroke="#333" stroke-width="0.15" width="150.0" x="4.0" y="4.0" /><text fill="#000" font-family="sans-serif" font-size="1.4" x="4.0" y="3.0">PLANO DE CORTE — ancho 150 cm — largo 1.48 m</text><polygon fill="#cfe3f7" fill-opacity="0.5" points="4.0,74.267704 12.00722,74.267704 11.601177,17.827772 15.824922,5.262131 13.300661,4.0 12.604548000000001,4.928368 12.408809,5.189983 12.212994,5.452847 12.017382000000001,5.717166 11.822256,5.98315 11.6279,6.251011999999999 11.434603,6.520965 11.242656,6.793221 11.052355,7.067997 10.863996,7.345508 10.677882,7.6259689999999996 10.494319,7.909597 10.313615,8.196606 10.136242,8.486951000000001 9.963303,8.779094 9.795078,9.070626 9.63075,9.360295 9.469275,9.647313 9.309653,9.930903 9.150927,10.210297 8.992184,10.484739000000001 8.832553,10.753489 8.671203,11.015827 8.507341,11.271062 8.340206,11.518545 8.169058,11.757678 7.993161000000001,11.987943000000001 7.810869,12.210004 7.619404,12.426846 7.41765,12.641195 7.206278,12.853889 6.986212,13.065588 6.7584420000000005,13.27698 6.524011,13.488792 6.322425,13.667704 4.0,13.667704 4.0,74.267704" stroke="#1f6fb2" stroke-width="0.1" /><text fill="#0a3d62" font-family="sans-serif" font-size="1.6" text-anchor="middle" x="9.912461" y="39.133852">09</text><polygon fill="#cfe3f7" fill-opacity="0.5" points="16.824922,74.267704 24.832142,74.267704 24.426099,17.827772 28.649844,5.262131 26.125583,4.0 25.429470000000002,4.928368 25.233731,5.189983 25.037916000000003,5.452847 24.842304000000002,5.717166 24.647178,5.98315 24.452822,6.251011999999999 24.259525,6.520965 24.067578,6.793221 23.877277,7.067997 23.688918,7.345508 23.502804,7.6259689999999996 23.319241,7.909597 23.138537,8.196606 22.961164,8.486951000000001 22.788225,8.779094 22.62,9.070626 22.455672,9.360295 22.294197,9.647313 22.134575,9.930903 21.975849,10.210297 21.817106000000003,10.484739000000001 21.657475,10.753489 21.496125,11.015827 21.332263,11.271062 21.165128000000003,11.518545 20.99398,11.757678 20.818083,11.987943000000001 20.635791,12.210004 20.444326,12.426846 20.242572000000003,12.641195 20.031200000000002,12.853889 19.811134000000003,13.065588 19.583364,13.27698 19.348933000000002,13.488792 19.147347,13.667704 16.824922,13.667704 16.824922,74.267704" stroke="#1f6fb2" stroke-width="0.1" /><text fill="#0a3d62" font-family="sans-serif" font-size="1.6" text-anchor="middle" x="22.737383" y="39.133852">09</text><polygon fill="#cfe3f7" fill-opacity="0.5" points="29.649844,74.233067 57.349844000000004,74.233067 57.349844000000004,26.857360999999997 56.749912,26.171653999999997 56.396521,25.768483 56.040528,25.363836 55.681394,24.957849 55.318277,24.550319 54.95034,24.141047999999998 54.576750000000004,23.729844999999997 54.196687,23.316536 53.810258000000005,22.901911 53.420919,22.488083 53.034441,22.076037 52.655385,21.665301 52.288183000000004,21.255467 51.937261,20.846346999999998 51.606989,20.437973 51.30162,20.030609 51.025183999999996,19.624724 50.781365,19.22094 50.57334,18.819888 50.40363,18.421923 50.273231,18.024288 50.180244,17.618925 50.12149,17.199514999999998 50.095352000000005,16.764596 50.100468,16.313914 50.135391999999996,15.847847 50.198454,15.367222 50.287714,14.873137 50.400976,14.366815 50.535817,13.849511 50.689639,13.32245 50.859709,12.78679 51.043189999999996,12.243606999999999 51.237178,11.693886 51.438712,11.138521 51.970248,9.693617 38.924533000000004,4.0 38.254392,4.893731 38.058653,5.155346 37.862838,5.41821 37.667226,5.682529 37.472100000000005,5.948513 37.277744,6.216374999999999 37.084447000000004,6.486328 36.8925,6.758584 36.702199,7.03336 36.51384,7.310871 36.327726,7.5913319999999995 36.144163000000006,7.87496 35.963459,8.161969 35.786086000000005,8.452314000000001 35.613147,8.744457 35.444922000000005,9.035989 35.280594,9.325658 35.119119,9.612676 34.959497,9.896266 34.800771000000005,10.17566 34.642028,10.450102000000001 34.482397000000006,10.718852 34.321047,10.98119 34.157185,11.236425 33.990050000000004,11.483908 33.818902,11.723041 33.643005,11.953306000000001 33.460713,12.175367 33.269248000000005,12.392209 33.067494,12.606558 32.856122,12.819252 32.636056,13.030951 32.408286000000004,13.242343 32.173855,13.454155 31.972269,13.633067 29.649844,13.633067 29.649844,74.233067" stroke="#1f6fb2" stroke-width="0.1" /><text fill="#0a3d62" font-family="sans-serif" font-size="1.6" text-anchor="middle" x="43.499844" y="39.1165335">01</text><polygon fill="#cfe3f7" fill-opacity="0.5" points="58.349844000000004,74.233067 86.04984400000001,74.233067 86.04984400000001,26.857360999999997 85.44991200000001,26.171653999999997 85.096521,25.768483 84.74052800000001,25.363836 84.381394,24.957849 84.01827700000001,24.550319 83.65034,24.141047999999998 83.27675,23.729844999999997 82.896687,23.316536 82.51025800000001,22.901911 82.120919,22.488083 81.734441,22.076037 81.35538500000001,21.665301 80.988183,21.255467 80.637261,20.846346999999998 80.306989,20.437973 80.00162,20.030609 79.725184,19.624724 79.48136500000001,19.22094 79.27334,18.819888 79.10363000000001,18.421923 78.973231,18.024288 78.880244,17.618925 78.82149000000001,17.199514999999998 78.79535200000001,16.764596 78.800468,16.313914 78.835392,15.847847 78.898454,15.367222 78.98771400000001,14.873137 79.100976,14.366815 79.235817,13.849511 79.389639,13.32245 79.559709,12.78679 79.74319,12.243606999999999 79.937178,11.693886 80.138712,11.138521 80.670248,9.693617 67.624533,4.0 66.95439200000001,4.893731 66.75865300000001,5.155346 66.562838,5.41821 66.367226,5.682529 66.1721,5.948513 65.977744,6.216374999999999 65.784447,6.486328 65.5925,6.758584 65.40219900000001,7.03336 65.21384,7.310871 65.027726,7.5913319999999995 64.84416300000001,7.87496 64.663459,8.161969 64.486086,8.452314000000001 64.313147,8.744457 64.14492200000001,9.035989 63.980594,9.325658 63.819119,9.612676 63.659497,9.896266 63.50077100000001,10.17566 63.342028000000006,10.450102000000001 63.18239700000001,10.718852 63.021047,10.98119 62.857185,11.236425 62.69005000000001,11.483908 62.518902000000004,11.723041 62.343005000000005,11.953306000000001 62.160713,12.175367 61.96924800000001,12.392209 61.767494000000006,12.606558 61.556122,12.819252 61.336056000000006,13.030951 61.10828600000001,13.242343 60.873855000000006,13.454155 60.67226900000001,13.633067 58.349844000000004,13.633067 58.349844000000004,74.233067" stroke="#1f6fb2" stroke-width="0.1" /><text fill="#0a3d62" font-family="sans-serif" font-size="1.6" text-anchor="middle" x="72.199844" y="39.1165335">01</text><polygon fill="#cfe3f7" fill-opacity="0.5" points="91.65338100000001,66.004613 117.48208500000001,66.004613 122.094586,14.559622999999998 121.388243,13.774989999999999 120.967436,13.312847999999999 120.53796,12.851835999999999 120.09776300000001,12.395239 119.64708900000001,11.9474 119.188167,11.51006 118.721992,11.082705 118.24918400000001,10.664458 117.770352,10.254439 117.286091,9.851766999999999 116.796986,9.455561 116.30361300000001,9.064943 115.806533,8.679036 115.30564000000001,8.296466 114.798901,7.915755 114.283821,7.538259 113.759262,7.1668959999999995 113.224247,6.804792 112.677744,6.4551289999999995 112.11868700000001,6.121163 111.54599200000001,5.80625 110.958596,5.513857 110.35550500000001,5.24759 109.73737400000002,5.011762 109.10929300000001,4.809616 108.477002,4.638591 107.84275000000001,4.494111 107.208081,4.371542 106.574414,4.266382 105.943098,4.174272 105.31546600000001,4.0909949999999995 104.593968,4.0 103.85880700000001,4.05394 103.218061,4.104962 102.573491,4.164405 101.92624400000001,4.236438 101.277471,4.325369 100.628369,4.435643 99.98024000000001,4.57184 99.33465100000001,4.738636 98.695789,4.939882 98.069523,5.174805 97.45815800000001,5.439152 96.86110000000001,5.729414 96.27751800000001,6.042254 95.70653000000001,6.374447 95.147238,6.722872 94.598757,7.084489 94.060236,7.456322999999999 93.53086,7.835451 93.00904100000001,8.2196 92.49182300000001,8.609293000000001 91.97859500000001,9.007759 91.47119500000001,9.417183999999999 90.97183700000001,9.839547 90.482792,10.276864 90.00640600000001,10.731176 89.545118,11.204525 89.101477,11.698924 88.67864200000001,12.215724 88.282289,12.750982 87.912518,13.294198000000002 87.56332,13.837394 87.04984400000001,14.659607999999999 91.65338100000001,66.004613" stroke="#1f6fb2" stroke-width="0.1" /><text fill="#0a3d62" font-family="sans-serif" font-size="1.6" text-anchor="middle" x="104.572215" y="35.0023065">04</text><polygon fill="#cfe3f7" fill-opacity="0.5" points="8.603537000000001,137.272317 34.432241,137.272317 39.044742,85.827327 38.338398999999995,85.042694 37.917592,84.580552 37.488116,84.11954 37.047919,83.662943 36.597245,83.215104 36.138323,82.77776399999999 35.672148,82.350409 35.19934,81.93216199999999 34.720508,81.522143 34.236247,81.11947099999999 33.747142,80.723265 33.253769,80.332647 32.756689,79.94673999999999 32.255796000000004,79.56416999999999 31.749057,79.183459 31.233977,78.80596299999999 30.709418,78.43459999999999 30.174402999999998,78.072496 29.6279,77.722833 29.068843,77.38886699999999 28.496148,77.073954 27.908752,76.781561 27.305661,76.515294 26.687530000000002,76.279466 26.059449,76.07732 25.427158,75.906295 24.792906000000002,75.761815 24.158237,75.639246 23.52457,75.53408599999999 22.893254,75.441976 22.265622,75.358699 21.544124,75.267704 20.808963,75.32164399999999 20.168217,75.372666 19.523647,75.432109 18.8764,75.504142 18.227627,75.59307299999999 17.578525,75.703347 16.930396000000002,75.83954399999999 16.284807,76.00634 15.645945000000001,76.20758599999999 15.019679,76.442509 14.408314,76.70685599999999 13.811256,76.997118 13.227674,77.309958 12.656686,77.642151 12.097394,77.99057599999999 11.548913,78.352193 11.010392,78.72402699999999 10.481016,79.103155 9.959197,79.487304 9.441979,79.87699699999999 8.928751,80.275463 8.421351,80.684888 7.9219930000000005,81.10725099999999 7.432948,81.544568 6.956562,81.99888 6.495274,82.472229 6.051633000000001,82.966628 5.628798,83.48342799999999 5.232445000000002,84.018686 4.862674000000002,84.561902 4.513476000000001,85.105098 4.0,85.927312 8.603537000000001,137.272317" stroke="#1f6fb2" stroke-width="0.1" /><text fill="#0a3d62" font-family="sans-serif" font-size="1.6" text-anchor="middle" x="21.522371" y="106.2700105">04</text><polygon fill="#cfe3f7" fill-opacity="0.5" points="90.044742,87.966392 89.58962199999999,87.279729 89.301076,86.84411399999999 89.01258899999999,86.408048 88.72411,85.971184 88.435587,85.533176 88.146968,85.09367599999999 87.858202,84.65233799999999 87.56924599999999,84.208831 87.28048799999999,83.76344 86.993721,83.317216 86.711463,82.870756 86.435824,82.42400799999999 86.168871,81.97692599999999 85.912645,81.52950899999999 85.669155,81.081797 85.440362,80.633862 85.228172,80.1858 85.034416,79.73771199999999 84.860837,79.28968599999999 84.709084,78.84176 84.580687,78.39383199999999 84.476635,77.94394399999999 84.396193,77.488163 84.337575,77.024293 84.299384,76.552268 84.248128,75.267704 65.044742,75.267704 65.044742,135.26770399999998 90.044742,135.26770399999998 90.044742,87.966392 40.044742,87.966392 40.499862,87.279729 40.788408000000004,86.84411399999999 41.076895,86.408048 41.365374,85.971184 41.653897,85.533176 41.942516,85.09367599999999 42.231282,84.65233799999999 42.520238,84.208831 42.808996,83.76344 43.095763,83.317216 43.378021000000004,82.870756 43.65366,82.42400799999999 43.920613,81.97692599999999 44.176839,81.52950899999999 44.420328999999995,81.081797 44.649122,80.633862 44.861312,80.1858 45.055068,79.73771199999999 45.228646999999995,79.28968599999999 45.380399999999995,78.84176 45.508797,78.39383199999999 45.612849,77.94394399999999 45.693291,77.488163 45.751909,77.024293 45.790099999999995,76.552268 45.841356000000005,75.267704 65.044742,75.267704 65.044742,135.26770399999998 40.044742,135.26770399999998 40.044742,87.966392" stroke="#1f6fb2" stroke-width="0.1" /><text fill="#0a3d62" font-family="sans-serif" font-size="1.6" text-anchor="middle" x="65.044742" y="105.267704">02</text><polygon fill="#cfe3f7" fill-opacity="0.5" points="91.044742,86.539609 98.044742,90.949609 105.044742,86.539609 105.044742,75.267704 91.044742,75.267704 91.044742,86.539609" stroke="#1f6fb2" stroke-width="0.1" /><text fill="#0a3d62" font-family="sans-serif" font-size="1.6" text-anchor="middle" x="98.044742" y="83.1086565">10</text><polygon fill="#cfe3f7" fill-opacity="0.5" points="106.044742,87.516831 106.074583,87.81981099999999 106.177289,88.158386 106.344074,88.47041899999999 106.568528,88.743918 106.842027,88.96837199999999 107.15406,89.13515699999999 107.49263499999999,89.23786299999999 107.795615,89.267704 129.293869,89.267704 129.596849,89.23786299999999 129.935424,89.13515699999999 130.247457,88.96837199999999 130.520956,88.743918 130.74541,88.47041899999999 130.912195,88.158386 131.014901,87.81981099999999 131.04474199999999,87.516831 131.04474199999999,77.018577 131.014901,76.71559699999999 130.912195,76.377022 130.74541,76.064989 130.520956,75.79149 130.247457,75.567036 129.935424,75.400251 129.596849,75.297545 129.293869,75.267704 107.795615,75.267704 107.49263499999999,75.297545 107.15406,75.400251 106.842027,75.567036 106.568528,75.79149 106.344074,76.064989 106.177289,76.377022 106.074583,76.71559699999999 106.044742,77.018577 106.044742,87.516831" stroke="#1f6fb2" stroke-width="0.1" /><text fill="#0a3d62" font-family="sans-serif" font-size="1.6" text-anchor="middle" x="118.544742" y="82.267704">05</text><polygon fill="#cfe3f7" fill-opacity="0.5" points="4.0,150.52144399999997 4.029841,150.824424 4.132547,151.16299899999999 4.299332,151.475032 4.523786,151.74853099999999 4.7972850000000005,151.972985 5.109318,152.13977 5.4478930000000005,152.24247599999998 5.750873,152.272317 27.249127,152.272317 27.552107,152.24247599999998 27.890682,152.13977 28.202715,151.972985 28.476214,151.74853099999999 28.700668,151.475032 28.867453,151.16299899999999 28.970159,150.824424 29.0,150.52144399999997 29.0,140.02319 28.970159,139.72020999999998 28.867453,139.381635 28.700668,139.06960199999997 28.476214,138.796103 28.202715,138.57164899999998 27.890682,138.40486399999998 27.552107,138.302158 27.249127,138.272317 5.750873,138.272317 5.4478930000000005,138.302158 5.109318,138.40486399999998 4.7972850000000005,138.57164899999998 4.523786,138.796103 4.299332,139.06960199999997 4.132547,139.381635 4.029841,139.72020999999998 4.0,140.02319 4.0,150.52144399999997" stroke="#1f6fb2" stroke-width="0.1" /><text fill="#0a3d62" font-family="sans-serif" font-size="1.6" text-anchor="middle" x="16.5" y="145.272317">05</text><polygon fill="#cfe3f7" fill-opacity="0.5" points="69.109812,149.19838099999998 69.10827,148.71069999999997 69.12286,148.21571699999998 69.152042,147.713866 69.194218,147.205613 69.247736,146.69143799999998 69.310889,146.171822 69.381927,145.647235 69.459058,145.11812899999998 69.540457,144.58493199999998 69.74864600000001,143.25120299999998 56.845692,138.272317 56.206584,138.706428 56.003755,138.842917 55.803425000000004,138.975215 55.605097,139.10251399999999 55.408291,139.224064 55.212533,139.33917599999998 55.016683,139.44759399999998 54.818733,139.54986799999998 54.617676,139.64650699999999 54.4137,139.737418 54.207108000000005,139.822456 53.998204,139.90148 53.787293000000005,139.974357 53.574684000000005,140.040958 53.360684,140.101159 53.145601,140.154845 52.929643999999996,140.201926 52.712165999999996,140.242515 52.492015,140.27710199999999 52.268762,140.306177 52.042410000000004,140.33016199999997 51.81299,140.34948999999997 51.580557,140.36460899999997 51.345178000000004,140.375983 51.106932,140.38409499999997 50.865904,140.389443 50.622182,140.39254699999998 50.375856,140.393939 50.127012,140.394174 49.874323000000004,140.39381699999998 49.874323000000004,150.39381799999998 69.157512,150.39381799999998 69.109812,149.19838099999998 30.638834,149.19838099999998 30.640376,148.71069999999997 30.625786,148.21571699999998 30.596604,147.713866 30.554428,147.205613 30.50091,146.69143799999998 30.437757,146.171822 30.366719,145.647235 30.289588000000002,145.11812899999998 30.208189,144.58493199999998 30.0,143.25120299999998 42.902954,138.272317 43.542062,138.706428 43.744890999999996,138.842917 43.945221000000004,138.975215 44.143549,139.10251399999999 44.340355,139.224064 44.536113,139.33917599999998 44.731963,139.44759399999998 44.929913,139.54986799999998 45.130970000000005,139.64650699999999 45.334946,139.737418 45.541538,139.822456 45.750442,139.90148 45.961353,139.974357 46.173962,140.040958 46.387962,140.101159 46.603045,140.154845 46.819002,140.201926 47.03648,140.242515 47.256631,140.27710199999999 47.479884,140.306177 47.706236000000004,140.33016199999997 47.935656,140.34948999999997 48.168089,140.36460899999997 48.403468000000004,140.375983 48.641714,140.38409499999997 48.882742,140.389443 49.126464,140.39254699999998 49.37279,140.393939 49.621634,140.394174 49.874323000000004,140.39381699999998 49.874323000000004,150.39381799999998 30.591134,150.39381799999998 30.638834,149.19838099999998" stroke="#1f6fb2" stroke-width="0.1" /><text fill="#0a3d62" font-family="sans-serif" font-size="1.6" text-anchor="middle" x="49.874323000000004" y="144.3330675">03</text><polygon fill="#cfe3f7" fill-opacity="0.5" points="93.546254,145.558302 94.081776,145.672742 94.61738100000001,145.78065999999998 95.15306600000001,145.882052 95.688827,145.976917 96.224658,146.06525 96.760557,146.14705099999998 97.29651700000001,146.22231599999998 97.83253500000001,146.291044 98.368605,146.353232 98.90472400000002,146.40887999999998 99.44088500000001,146.45798399999998 99.97708300000001,146.500544 100.51331400000001,146.53655899999998 101.04957200000001,146.566027 101.585851,146.588947 102.12214700000001,146.60531999999998 102.658454,146.615143 103.19476600000002,146.618418 103.73107800000001,146.615143 104.267385,146.60531999999998 104.80368100000001,146.588947 105.33996,146.566027 105.87621800000001,146.53655899999998 106.41244900000001,146.500544 106.94864700000001,146.45798399999998 107.48480800000002,146.40887999999998 108.020927,146.353232 108.55699700000001,146.291044 109.09301500000001,146.22231599999998 109.62897500000001,146.14705099999998 110.16487400000001,146.06525 110.700705,145.976917 111.23646600000001,145.882052 111.77215100000001,145.78065999999998 112.30775600000001,145.672742 112.84327800000001,145.558302 113.378713,145.437342 114.676806,145.12823699999998 114.676806,138.272317 112.92669500000001,138.689056 112.413926,138.80489599999999 111.901244,138.91445599999997 111.38864500000001,139.01773799999998 110.876126,139.114746 110.36368300000001,139.205481 109.85131000000001,139.28994799999998 109.33900500000001,139.368147 108.826761,139.440082 108.314575,139.505754 107.80244100000002,139.56516599999998 107.290356,139.618318 106.77831300000001,139.665214 106.26630700000001,139.705854 105.754334,139.74023899999997 105.242388,139.76837099999997 104.73046300000001,139.79025099999998 104.21855500000001,139.80587799999998 103.706658,139.81525499999998 103.19476600000002,139.81838 102.682874,139.81525499999998 102.17097700000001,139.80587799999998 101.65906900000002,139.79025099999998 101.14714400000001,139.76837099999997 100.635198,139.74023899999997 100.123225,139.705854 99.611219,139.665214 99.099176,139.618318 98.58709100000002,139.56516599999998 98.07495700000001,139.505754 97.562771,139.440082 97.050527,139.368147 96.538222,139.28994799999998 96.02584900000001,139.205481 95.513406,139.114746 95.000887,139.01773799999998 94.48828800000001,138.91445599999997 93.975606,138.80489599999999 93.46283700000001,138.689056 92.712726,138.510439 92.712726,145.366359 93.01081900000001,145.437342 93.546254,145.558302 91.879198,145.558302 91.343676,145.672742 90.80807100000001,145.78065999999998 90.27238600000001,145.882052 89.736625,145.976917 89.200794,146.06525 88.664895,146.14705099999998 88.12893500000001,146.22231599999998 87.592917,146.291044 87.056847,146.353232 86.520728,146.40887999999998 85.98456700000001,146.45798399999998 85.44836900000001,146.500544 84.912138,146.53655899999998 84.37588000000001,146.566027 83.839601,146.588947 83.30330500000001,146.60531999999998 82.766998,146.615143 82.230686,146.618418 81.69437400000001,146.615143 81.158067,146.60531999999998 80.62177100000001,146.588947 80.085492,146.566027 79.54923400000001,146.53655899999998 79.01300300000001,146.500544 78.47680500000001,146.45798399999998 77.940644,146.40887999999998 77.404525,146.353232 76.86845500000001,146.291044 76.332437,146.22231599999998 75.79647700000001,146.14705099999998 75.26057800000001,146.06525 74.72474700000001,145.976917 74.188986,145.882052 73.653301,145.78065999999998 73.11769600000001,145.672742 72.58217400000001,145.558302 72.046739,145.437342 70.74864600000001,145.12823699999998 70.74864600000001,138.272317 72.49875700000001,138.689056 73.011526,138.80489599999999 73.52420800000002,138.91445599999997 74.03680700000001,139.01773799999998 74.54932600000001,139.114746 75.06176900000001,139.205481 75.57414200000001,139.28994799999998 76.086447,139.368147 76.598691,139.440082 77.110877,139.505754 77.623011,139.56516599999998 78.135096,139.618318 78.64713900000001,139.665214 79.15914500000001,139.705854 79.671118,139.74023899999997 80.183064,139.76837099999997 80.694989,139.79025099999998 81.20689700000001,139.80587799999998 81.718794,139.81525499999998 82.230686,139.81838 82.74257800000001,139.81525499999998 83.25447500000001,139.80587799999998 83.766383,139.79025099999998 84.27830800000001,139.76837099999997 84.790254,139.74023899999997 85.302227,139.705854 85.814233,139.665214 86.32627600000001,139.618318 86.838361,139.56516599999998 87.35049500000001,139.505754 87.86268100000001,139.440082 88.374925,139.368147 88.88723,139.28994799999998 89.39960300000001,139.205481 89.912046,139.114746 90.424565,139.01773799999998 90.93716400000001,138.91445599999997 91.44984600000001,138.80489599999999 91.962615,138.689056 92.712726,138.510439 92.712726,145.366359 92.41463300000001,145.437342 91.879198,145.558302" stroke="#1f6fb2" stroke-width="0.1" /><text fill="#0a3d62" font-family="sans-serif" font-size="1.6" text-anchor="middle" x="92.712726" y="142.44536749999997">08</text><polygon fill="#cfe3f7" fill-opacity="0.5" points="115.676806,141.92144399999998 115.698961,142.14638699999998 115.778904,142.409925 115.908725,142.65280299999998 116.083435,142.86568799999998 116.29632,143.04039799999998 116.539198,143.17021899999997 116.802736,143.250162 117.027679,143.272317 128.325933,143.272317 128.550876,143.250162 128.814414,143.17021899999997 129.057292,143.04039799999998 129.270177,142.86568799999998 129.444887,142.65280299999998 129.574708,142.409925 129.654651,142.14638699999998 129.676806,141.92144399999998 129.676806,139.62319 129.654651,139.398247 129.574708,139.134709 129.444887,138.891831 129.270177,138.678946 129.057292,138.504236 128.814414,138.374415 128.550876,138.29447199999998 128.325933,138.272317 117.027679,138.272317 116.802736,138.29447199999998 116.539198,138.374415 116.29632,138.504236 116.083435,138.678946 115.908725,138.891831 115.778904,139.134709 115.698961,139.398247 115.676806,139.62319 115.676806,141.92144399999998" stroke="#1f6fb2" stroke-width="0.1" /><text fill="#0a3d62" font-family="sans-serif" font-size="1.6" text-anchor="middle" x="122.676806" y="140.772317">06</text><polygon fill="#cfe3f7" fill-opacity="0.5" points="130.676806,141.92144399999998 130.698961,142.14638699999998 130.778904,142.409925 130.908725,142.65280299999998 131.083435,142.86568799999998 131.29632,143.04039799999998 131.539198,143.17021899999997 131.802736,143.250162 132.027679,143.272317 143.325933,143.272317 143.550876,143.250162 143.814414,143.17021899999997 144.057292,143.04039799999998 144.270177,142.86568799999998 144.444887,142.65280299999998 144.574708,142.409925 144.654651,142.14638699999998 144.676806,141.92144399999998 144.676806,139.62319 144.654651,139.398247 144.574708,139.134709 144.444887,138.891831 144.270177,138.678946 144.057292,138.504236 143.814414,138.374415 143.550876,138.29447199999998 143.325933,138.272317 132.027679,138.272317 131.802736,138.29447199999998 131.539198,138.374415 131.29632,138.504236 131.083435,138.678946 130.908725,138.891831 130.778904,139.134709 130.698961,139.398247 130.676806,139.62319 130.676806,141.92144399999998" stroke="#1f6fb2" stroke-width="0.1" /><text fill="#0a3d62" font-family="sans-serif" font-size="1.6" text-anchor="middle" x="137.676806" y="140.772317">06</text></svg>