<?xml version="1.0" encoding="utf-8" ?>
<svg baseProfile="full" height="122.444513cm" version="1.1" viewBox="0 0 168.0 122.444513" width="168.0cm" xmlns="http://www.w3.org/2000/svg" xmlns:ev="http://www.w3.org/2001/xml-events" xmlns:xlink="http://www.w3.org/1999/xlink"><defs /><rect fill="#f7f3ea" height="114.444513" stroke="#333" stroke-width="0.15" width="160.0" x="4.0" y="4.0" /><text fill="#000" font-family="sans-serif" font-size="1.4" x="4.0" y="3.0">PLANO DE CORTE — ancho 160 cm — largo 1.14 m</text><polygon fill="#cfe3f7" fill-opacity="0.5" points="8.603537000000001,66.004613 34.432241,66.004613 39.044742,14.559622999999998 38.338398999999995,13.774989999999999 37.917592,13.312847999999999 37.488116,12.851835999999999 37.047919,12.395239 36.597245,11.9474 36.138323,11.51006 35.672148,11.082705 35.19934,10.664458 34.720508,10.254439 34.236247,9.851766999999999 33.747142,9.455561 33.253769,9.064943 32.756689,8.679036 32.255796000000004,8.296466 31.749057,7.915755 31.233977,7.538259 30.709418,7.1668959999999995 30.174402999999998,6.804792 29.6279,6.4551289999999995 29.068843,6.121163 28.496148,5.80625 27.908752,5.513857 27.305661,5.24759 26.687530000000002,5.011762 26.059449,4.809616 25.427158,4.638591 24.792906000000002,4.494111 24.158237,4.371542 23.52457,4.266382 22.893254,4.174272 22.265622,4.0909949999999995 21.544124,4.0 20.808963,4.05394 20.168217,4.104962 19.523647,4.164405 18.8764,4.236438 18.227627,4.325369 17.578525,4.435643 16.930396000000002,4.57184 16.284807,4.738636 15.645945000000001,4.939882 15.019679,5.174805 14.408314,5.439152 13.811256,5.729414 13.227674,6.042254 12.656686,6.374447 12.097394,6.722872 11.548913,7.084489 11.010392,7.456322999999999 10.481016,7.835451 9.959197,8.2196 9.441979,8.609293000000001 8.928751,9.007759 8.421351,9.417183999999999 7.9219930000000005,9.839547 7.432948,10.276864 6.956562,10.731176 6.495274,11.204525 6.051633000000001,11.698924 5.628798,12.215724 5.232445000000002,12.750982 4.862674000000002,13.294198000000002 4.513476000000001,13.837394 4.0,14.659607999999999 8.603537000000001,66.004613" stroke="#1f6fb2" stroke-width="0.1" /><text fill="#0a3d62" font-family="sans-serif" font-size="1.6" text-anchor="middle" x="21.522371" y="35.0023065">04</text><polygon fill="#cfe3f7" fill-opacity="0.5" points="44.648279,66.004613 70.47698299999999,66.004613 75.089484,14.559622999999998 74.383141,13.774989999999999 73.962334,13.312847999999999 73.532858,12.851835999999999 73.09266099999999,12.395239 72.641987,11.9474 72.183065,11.51006 71.71689,11.082705 71.24408199999999,10.664458 70.76525000000001,10.254439 70.280989,9.851766999999999 69.791884,9.455561 69.29851099999999,9.064943 68.80143100000001,8.679036 68.300538,8.296466 67.793799,7.915755 67.278719,7.538259 66.75416,7.1668959999999995 66.219145,6.804792 65.672642,6.4551289999999995 65.113585,6.121163 64.54089,5.80625 63.953494,5.513857 63.350403,5.24759 62.732272,5.011762 62.104191,4.809616 61.4719,4.638591 60.837648,4.494111 60.202979,4.371542 59.569312,4.266382 58.937996,4.174272 58.310364,4.0909949999999995 57.588865999999996,4.0 56.853705,4.05394 56.212959,4.104962 55.568388999999996,4.164405 54.921142,4.236438 54.272369,4.325369 53.623267,4.435643 52.975138,4.57184 52.329549,4.738636 51.690687,4.939882 51.064420999999996,5.174805 50.453056000000004,5.439152 49.855998,5.729414 49.272416,6.042254 48.701428,6.374447 48.142136,6.722872 47.593655,7.084489 47.055133999999995,7.456322999999999 46.525757999999996,7.835451 46.003939,8.2196 45.486721,8.609293000000001 44.973493,9.007759 44.466093,9.417183999999999 43.966735,9.839547 43.477689999999996,10.276864 43.001304,10.731176 42.540016,11.204525 42.096375,11.698924 41.67354,12.215724 41.277187,12.750982 40.907416,13.294198000000002 40.558218,13.837394 40.044742,14.659607999999999 44.648279,66.004613" stroke="#1f6fb2" stroke-width="0.1" /><text fill="#0a3d62" font-family="sans-serif" font-size="1.6" text-anchor="middle" x="57.567113" y="35.0023065">04</text><polygon fill="#cfe3f7" fill-opacity="0.5" points="76.089484,13.667704 76.089484,48.967704000000005 83.91469,48.967704000000005 83.690661,17.827772 87.914406,5.262131 85.390145,4.0 84.69403199999999,4.928368 84.498293,5.189983 84.302478,5.452847 84.106866,5.717166 83.91174,5.98315 83.717384,6.251011999999999 83.524087,6.520965 83.33214,6.793221 83.141839,7.067997 82.95348,7.345508 82.767366,7.6259689999999996 82.583803,7.909597 82.403099,8.196606 82.225726,8.486951000000001 82.052787,8.779094 81.884562,9.070626 81.720234,9.360295 81.558759,9.647313 81.399137,9.930903 81.240411,10.210297 81.081668,10.484739000000001 80.922037,10.753489 80.760687,11.015827 80.596825,11.271062 80.42969,11.518545 80.258542,11.757678 80.082645,11.987943000000001 79.900353,12.210004 79.708888,12.426846 79.507134,12.641195 79.295762,12.853889 79.075696,13.065588 78.847926,13.27698 78.613495,13.488792 78.411909,13.667704 76.089484,13.667704" stroke="#1f6fb2" stroke-width="0.1" /><text fill="#0a3d62" font-family="sans-serif" font-size="1.6" text-anchor="middle" x="82.001945" y="26.483852000000002">09</text><polygon fill="#cfe3f7" fill-opacity="0.5" points="88.914406,13.667704 88.914406,48.967704000000005 96.739612,48.967704000000005 96.51558299999999,17.827772 100.739328,5.262131 98.215067,4.0 97.51895400000001,4.928368 97.323215,5.189983 97.1274,5.452847 96.931788,5.717166 96.736662,5.98315 96.542306,6.251011999999999 96.349009,6.520965 96.157062,6.793221 95.966761,7.067997 95.778402,7.345508 95.592288,7.6259689999999996 95.408725,7.909597 95.228021,8.196606 95.050648,8.486951000000001 94.877709,8.779094 94.709484,9.070626 94.545156,9.360295 94.383681,9.647313 94.224059,9.930903 94.065333,10.210297 93.90659,10.484739000000001 93.746959,10.753489 93.585609,11.015827 93.421747,11.271062 93.254612,11.518545 93.08346399999999,11.757678 92.907567,11.987943000000001 92.725275,12.210004 92.53381,12.426846 92.332056,12.641195 92.120684,12.853889 91.900618,13.065588 91.672848,13.27698 91.438417,13.488792 91.236831,13.667704 88.914406,13.667704" stroke="#1f6fb2" stroke-width="0.1" /><text fill="#0a3d62" font-family="sans-serif" font-size="1.6" text-anchor="middle" x="94.826867" y="26.483852000000002">09</text><polygon fill="#cfe3f7" fill-opacity="0.5" points="101.739328,13.633067 101.739328,48.933067 129.439328,48.933067 129.439328,26.857360999999997 128.84,26.172342999999998 128.486005,25.768483 128.130012,25.363836 127.770878,24.957849 127.407761,24.550319 127.039824,24.141047999999998 126.666234,23.729844999999997 126.286171,23.316536 125.899742,22.901911 125.510403,22.488083 125.123925,22.076037 124.744869,21.665301 124.377667,21.255467 124.026745,20.846346999999998 123.696473,20.437973 123.391104,20.030609 123.114668,19.624724 122.87084899999999,19.22094 122.662824,18.819888 122.49311399999999,18.421923 122.36271500000001,18.024288 122.269728,17.618925 122.210974,17.199514999999998 122.184836,16.764596 122.189952,16.313914 122.224876,15.847847 122.287938,15.367222 122.37719799999999,14.873137 122.49046,14.366815 122.62530100000001,13.849511 122.779123,13.32245 122.94919300000001,12.78679 123.132674,12.243606999999999 123.326662,11.693886 123.52819600000001,11.138521 124.059732,9.693617 111.014017,4.0 110.343876,4.893731 110.148137,5.155346 109.952322,5.41821 109.75671,5.682529 109.561584,5.948513 109.367228,6.216374999999999 109.173931,6.486328 108.981984,6.758584 108.791683,7.03336 108.603324,7.310871 108.41721,7.5913319999999995 108.233647,7.87496 108.052943,8.161969 107.87557,8.452314000000001 107.702631,8.744457 107.534406,9.035989 107.370078,9.325658 107.208603,9.612676 107.048981,9.896266 106.890255,10.17566 106.731512,10.450102000000001 106.571881,10.718852 106.410531,10.98119 106.246669,11.236425 106.079534,11.483908 105.90838600000001,11.723041 105.732489,11.953306000000001 105.550197,12.175367 105.358732,12.392209 105.156978,12.606558 104.945606,12.819252 104.72554,13.030951 104.49777,13.242343 104.263339,13.454155 104.061753,13.633067 101.739328,13.633067" stroke="#1f6fb2" stroke-width="0.1" /><text fill="#0a3d62" font-family="sans-serif" font-size="1.6" text-anchor="middle" x="115.589328" y="26.4665335">01</text><polygon fill="#cfe3f7" fill-opacity="0.5" points="130.439328,13.633067 130.439328,48.933067 158.13932799999998,48.933067 158.13932799999998,26.857360999999997 157.54,26.172342999999998 157.186005,25.768483 156.83001199999998,25.363836 156.470878,24.957849 156.10776099999998,24.550319 155.739824,24.141047999999998 155.366234,23.729844999999997 154.98617099999998,23.316536 154.599742,22.901911 154.21040299999999,22.488083 153.82392499999997,22.076037 153.44486899999998,21.665301 153.077667,21.255467 152.726745,20.846346999999998 152.396473,20.437973 152.09110399999997,20.030609 151.81466799999998,19.624724 151.57084899999998,19.22094 151.362824,18.819888 151.19311399999998,18.421923 151.062715,18.024288 150.96972799999998,17.618925 150.91097399999998,17.199514999999998 150.88483599999998,16.764596 150.889952,16.313914 150.92487599999998,15.847847 150.98793799999999,15.367222 151.07719799999998,14.873137 151.19045999999997,14.366815 151.325301,13.849511 151.479123,13.32245 151.649193,12.78679 151.832674,12.243606999999999 152.026662,11.693886 152.228196,11.138521 152.75973199999999,9.693617 139.71401699999998,4.0 139.04387599999998,4.893731 138.84813699999998,5.155346 138.652322,5.41821 138.45671,5.682529 138.261584,5.948513 138.067228,6.216374999999999 137.873931,6.486328 137.681984,6.758584 137.491683,7.03336 137.30332399999998,7.310871 137.11721,7.5913319999999995 136.93364699999998,7.87496 136.752943,8.161969 136.57557,8.452314000000001 136.40263099999999,8.744457 136.23440599999998,9.035989 136.070078,9.325658 135.908603,9.612676 135.748981,9.896266 135.59025499999998,10.17566 135.431512,10.450102000000001 135.27188099999998,10.718852 135.11053099999998,10.98119 134.94666899999999,11.236425 134.77953399999998,11.483908 134.608386,11.723041 134.43248899999998,11.953306000000001 134.250197,12.175367 134.058732,12.392209 133.856978,12.606558 133.645606,12.819252 133.42553999999998,13.030951 133.19777,13.242343 132.963339,13.454155 132.761753,13.633067 130.439328,13.633067" stroke="#1f6fb2" stroke-width="0.1" /><text fill="#0a3d62" font-family="sans-serif" font-size="1.6" text-anchor="middle" x="144.28932799999998" y="26.4665335">01</text><polygon fill="#cfe3f7" fill-opacity="0.5" points="53.256333999999995,78.581023 52.967847,78.144957 52.679368,77.708093 52.390845,77.27008500000001 52.102226,76.83058500000001 51.81346,76.38924700000001 51.524504,75.94574 51.235746,75.500349 50.948979,75.054125 50.666720999999995,74.60766500000001 50.391082,74.16091700000001 50.124128999999996,73.713835 49.867903,73.266418 49.624413000000004,72.818706 49.39562,72.370771 49.18343,71.92270900000001 48.989674,71.47462100000001 48.816095000000004,71.026595 48.664342000000005,70.578669 48.535945,70.130741 48.431893,69.68085300000001 48.351451,69.22507200000001 48.292833,68.76120200000001 48.254642000000004,68.28917700000001 48.203385999999995,67.004613 29.0,67.004613 29.0,107.224613 54.0,107.224613 54.0,79.70330100000001 53.54488,79.016638 53.256333999999995,78.581023 4.743666000000001,78.581023 5.032153000000001,78.144957 5.320632,77.708093 5.609155000000001,77.27008500000001 5.897773999999998,76.83058500000001 6.186540000000001,76.38924700000001 6.475496,75.94574 6.764254000000001,75.500349 7.051020999999999,75.054125 7.333279000000001,74.60766500000001 7.608917999999999,74.16091700000001 7.875871,73.713835 8.132097000000002,73.266418 8.375587,72.818706 8.604379999999999,72.370771 8.816569999999999,71.92270900000001 9.010326,71.47462100000001 9.183905,71.026595 9.335657999999999,70.578669 9.464054999999998,70.130741 9.568107000000001,69.68085300000001 9.648549,69.22507200000001 9.707166999999998,68.76120200000001 9.745358,68.28917700000001 9.796614000000002,67.004613 29.0,67.004613 29.0,107.224613 4.0,107.224613 4.0,79.70330100000001 4.455120000000001,79.016638 4.743666000000001,78.581023" stroke="#1f6fb2" stroke-width="0.1" /><text fill="#0a3d62" font-family="sans-serif" font-size="1.6" text-anchor="middle" x="29.0" y="87.114613">02</text><polygon fill="#cfe3f7" fill-opacity="0.5" points="55.0,78.27651800000001 62.0,82.686518 69.0,78.27651800000001 69.0,67.004613 55.0,67.004613 55.0,78.27651800000001" stroke="#1f6fb2" stroke-width="0.1" /><text fill="#0a3d62" font-family="sans-serif" font-size="1.6" text-anchor="middle" x="62.0" y="74.8455655">10</text><polygon fill="#cfe3f7" fill-opacity="0.5" points="70.0,79.25374000000001 70.029841,79.55672000000001 70.132547,79.895295 70.299332,80.207328 70.523786,80.480827 70.797285,80.70528100000001 71.109318,80.872066 71.447893,80.974772 71.750873,81.004613 93.249127,81.004613 93.552107,80.974772 93.890682,80.872066 94.202715,80.70528100000001 94.476214,80.480827 94.70066800000001,80.207328 94.867453,79.895295 94.970159,79.55672000000001 95.0,79.25374000000001 95.0,68.755486 94.970159,68.452506 94.867453,68.11393100000001 94.70066800000001,67.80189800000001 94.476214,67.52839900000001 94.202715,67.30394500000001 93.890682,67.13716000000001 93.552107,67.03445400000001 93.249127,67.004613 71.750873,67.004613 71.447893,67.03445400000001 71.109318,67.13716000000001 70.797285,67.30394500000001 70.523786,67.52839900000001 70.299332,67.80189800000001 70.132547,68.11393100000001 70.029841,68.452506 70.0,68.755486 70.0,79.25374000000001" stroke="#1f6fb2" stroke-width="0.1" /><text fill="#0a3d62" font-family="sans-serif" font-size="1.6" text-anchor="middle" x="82.5" y="74.004613">05</text><polygon fill="#cfe3f7" fill-opacity="0.5" points="96.0,79.25374000000001 96.029841,79.55672000000001 96.132547,79.895295 96.299332,80.207328 96.523786,80.480827 96.797285,80.70528100000001 97.109318,80.872066 97.447893,80.974772 97.750873,81.004613 119.249127,81.004613 119.552107,80.974772 119.890682,80.872066 120.202715,80.70528100000001 120.476214,80.480827 120.70066800000001,80.207328 120.867453,79.895295 120.970159,79.55672000000001 121.0,79.25374000000001 121.0,68.755486 120.970159,68.452506 120.867453,68.11393100000001 120.70066800000001,67.80189800000001 120.476214,67.52839900000001 120.202715,67.30394500000001 119.890682,67.13716000000001 119.552107,67.03445400000001 119.249127,67.004613 97.750873,67.004613 97.447893,67.03445400000001 97.109318,67.13716000000001 96.797285,67.30394500000001 96.523786,67.52839900000001 96.299332,67.80189800000001 96.132547,68.11393100000001 96.029841,68.452506 96.0,68.755486 96.0,79.25374000000001" stroke="#1f6fb2" stroke-width="0.1" /><text fill="#0a3d62" font-family="sans-serif" font-size="1.6" text-anchor="middle" x="108.5" y="74.004613">05</text><polygon fill="#cfe3f7" fill-opacity="0.5" points="161.109812,77.930677 161.10827,77.44299600000001 161.12286,76.948013 161.152042,76.446162 161.194218,75.937909 161.247736,75.42373400000001 161.310889,74.90411800000001 161.38192700000002,74.379531 161.459058,73.850425 161.540457,73.317228 161.748646,71.98349900000001 148.84569199999999,67.004613 148.206584,67.43872400000001 148.003755,67.575213 147.803425,67.70751100000001 147.605097,67.83481 147.408291,67.95636 147.212533,68.071472 147.016683,68.17989 146.818733,68.28216400000001 146.617676,68.378803 146.4137,68.46971400000001 146.207108,68.55475200000001 145.998204,68.63377600000001 145.787293,68.706653 145.574684,68.77325400000001 145.360684,68.833455 145.145601,68.887141 144.929644,68.934222 144.712166,68.974811 144.492015,69.009398 144.268762,69.03847300000001 144.04241,69.062458 143.81299,69.08178600000001 143.580557,69.096905 143.345178,69.10827900000001 143.106932,69.11639100000001 142.865904,69.121739 142.622182,69.12484300000001 142.375856,69.12623500000001 142.127012,69.12647000000001 141.874323,69.126113 141.874323,79.126114 161.157512,79.126114 161.109812,77.930677 122.638834,77.930677 122.640376,77.44299600000001 122.625786,76.948013 122.596604,76.446162 122.554428,75.937909 122.50091,75.42373400000001 122.437757,74.90411800000001 122.366719,74.379531 122.28958800000001,73.850425 122.208189,73.317228 122.0,71.98349900000001 134.902954,67.004613 135.542062,67.43872400000001 135.744891,67.575213 135.945221,67.70751100000001 136.143549,67.83481 136.340355,67.95636 136.536113,68.071472 136.731963,68.17989 136.929913,68.28216400000001 137.13097,68.378803 137.334946,68.46971400000001 137.541538,68.55475200000001 137.750442,68.63377600000001 137.961353,68.706653 138.173962,68.77325400000001 138.38796200000002,68.833455 138.603045,68.887141 138.819002,68.934222 139.03648,68.974811 139.256631,69.009398 139.479884,69.03847300000001 139.706236,69.062458 139.935656,69.08178600000001 140.168089,69.096905 140.403468,69.10827900000001 140.641714,69.11639100000001 140.882742,69.121739 141.126464,69.12484300000001 141.37279,69.12623500000001 141.621634,69.12647000000001 141.874323,69.126113 141.874323,79.126114 122.591134,79.126114 122.638834,77.930677" stroke="#1f6fb2" stroke-width="0.1" /><text fill="#0a3d62" font-family="sans-serif" font-size="1.6" text-anchor="middle" x="141.874323" y="73.0653635">03</text><polygon fill="#cfe3f7" fill-opacity="0.5" points="26.655368999999997,115.07959000000001 27.146859,115.16888700000001 27.638402,115.25309 28.129994999999997,115.332198 28.621636,115.406209 29.113321,115.475122 29.605047999999996,115.538936 30.096814,115.597649 30.588614999999997,115.651261 31.080448999999998,115.69977 31.572312999999998,115.743176 32.064203,115.78147700000001 32.556116,115.814673 33.048049,115.842763 33.539998999999995,115.865746 34.031962,115.883623 34.523936,115.896392 35.015916,115.904054 35.507898999999995,115.90660700000001 35.999882,115.904054 36.491862,115.896392 36.983836,115.883623 37.475798999999995,115.865746 37.967749,115.842763 38.459682,115.814673 38.951595,115.78147700000001 39.443484999999995,115.743176 39.935349,115.69977 40.427183,115.651261 40.918983999999995,115.597649 41.41075,115.538936 41.902477,115.475122 42.394161999999994,115.406209 42.885802999999996,115.332198 43.377396,115.25309 43.868939,115.16888700000001 44.360428999999996,115.07959000000001 44.644778,115.02497600000001 46.6965,118.444513 47.751718,118.04553 45.938626,108.224613 44.46481,108.522986 43.993041,108.61359800000001 43.521327,108.699301 43.049666,108.78009800000001 42.578055,108.85599 42.106492,108.926979 41.634973,108.993066 41.163495999999995,109.054252 40.692057999999996,109.110539 40.220655,109.161927 39.749285,109.20841800000001 39.277945,109.250012 38.806630999999996,109.28671100000001 38.33534,109.318515 37.864069,109.345425 37.392815,109.36744200000001 36.921574,109.38456500000001 36.450344,109.39679600000001 35.979119999999995,109.404134 35.507898999999995,109.406581 35.036677999999995,109.404134 34.565454,109.39679600000001 34.094224,109.38456500000001 33.622983,109.36744200000001 33.151729,109.345425 32.680458,109.318515 32.209166999999994,109.28671100000001 31.737852999999998,109.250012 31.266512999999996,109.20841800000001 30.795143,109.161927 30.323739999999997,109.110539 29.852301999999998,109.054252 29.380824999999998,108.993066 28.909305999999997,108.926979 28.437742999999998,108.85599 27.966131999999998,108.78009800000001 27.494470999999997,108.699301 27.022757,108.61359800000001 26.550987999999997,108.522986 25.875859,108.386307 25.875859,114.92688100000001 26.163933999999998,114.985202 26.655368999999997,115.07959000000001 25.096349,115.07959000000001 24.604858999999998,115.16888700000001 24.113315999999998,115.25309 23.621723,115.332198 23.130081999999998,115.406209 22.638396999999998,115.475122 22.14667,115.538936 21.654904,115.597649 21.163103,115.651261 20.671269,115.69977 20.179405,115.743176 19.687514999999998,115.78147700000001 19.195601999999997,115.814673 18.703668999999998,115.842763 18.211719,115.865746 17.719755999999997,115.883623 17.227781999999998,115.896392 16.735802,115.904054 16.243819,115.90660700000001 15.751835999999999,115.904054 15.259856,115.896392 14.767881999999998,115.883623 14.275918999999998,115.865746 13.783968999999999,115.842763 13.292035999999998,115.814673 12.800123,115.78147700000001 12.308232999999998,115.743176 11.816368999999998,115.69977 11.324535,115.651261 10.832733999999999,115.597649 10.340967999999998,115.538936 9.849241,115.475122 9.357555999999999,115.406209 8.865914999999998,115.332198 8.374322,115.25309 7.882778999999999,115.16888700000001 7.391288999999997,115.07959000000001 7.106939999999998,115.02497600000001 5.055218,118.444513 4.0,118.04553 5.8130919999999975,108.224613 7.286907999999997,108.522986 7.758676999999999,108.61359800000001 8.230390999999997,108.699301 8.702051999999998,108.78009800000001 9.173662999999998,108.85599 9.645225999999997,108.926979 10.116744999999998,108.993066 10.588221999999998,109.054252 11.05966,109.110539 11.531062999999998,109.161927 12.002432999999998,109.20841800000001 12.473772999999998,109.250012 12.945087,109.28671100000001 13.416377999999998,109.318515 13.887648999999998,109.345425 14.358902999999998,109.36744200000001 14.830143999999999,109.38456500000001 15.301374,109.39679600000001 15.772597999999999,109.404134 16.243819,109.406581 16.71504,109.404134 17.186263999999998,109.39679600000001 17.657494,109.38456500000001 18.128735,109.36744200000001 18.599988999999997,109.345425 19.07126,109.318515 19.542551,109.28671100000001 20.013865,109.250012 20.485205,109.20841800000001 20.956574999999997,109.161927 21.427978,109.110539 21.899416,109.054252 22.370893,108.993066 22.842412,108.926979 23.313975,108.85599 23.785586,108.78009800000001 24.257247,108.699301 24.728960999999998,108.61359800000001 25.20073,108.522986 25.875859,108.386307 25.875859,114.92688100000001 25.587784,114.985202 25.096349,115.07959000000001" stroke="#1f6fb2" stroke-width="0.1" /><text fill="#0a3d62" font-family="sans-serif" font-size="1.6" text-anchor="middle" x="25.875859" y="113.334563">07</text><polygon fill="#cfe3f7" fill-opacity="0.5" points="71.627903,113.52715500000001 72.159438,113.59814800000001 72.69099399999999,113.665087 73.22256999999999,113.72797100000001 73.754166,113.7868 74.28577999999999,113.84157400000001 74.81741099999999,113.89229300000001 75.349058,113.938955 75.880719,113.98156 76.412393,114.020109 76.94407899999999,114.054601 77.475776,114.085036 78.007482,114.111413 78.539196,114.133733 79.070916,114.151995 79.602642,114.16619800000001 80.134372,114.176344 80.66610399999999,114.18243100000001 81.19783799999999,114.18446 81.72957199999999,114.18243100000001 82.261304,114.176344 82.79303399999999,114.16619800000001 83.32476,114.151995 83.85648,114.133733 84.388194,114.111413 84.9199,114.085036 85.45159699999999,114.054601 85.983283,114.020109 86.514957,113.98156 87.046618,113.938955 87.57826499999999,113.89229300000001 88.10989599999999,113.84157400000001 88.64151,113.7868 89.17310599999999,113.72797100000001 89.70468199999999,113.665087 90.236238,113.59814800000001 90.76777299999999,113.52715500000001 91.299284,113.45210900000001 92.679878,113.24664100000001 92.679878,108.224613 91.01226799999999,108.472797 90.495575,108.54575100000001 89.978906,108.61475800000001 89.46225799999999,108.67981900000001 88.94563,108.74093500000001 88.429022,108.798106 87.912432,108.851332 87.395859,108.900613 86.879302,108.94595100000001 86.362759,108.987346 85.846229,109.024797 85.329711,109.058305 84.813204,109.08787000000001 84.296706,109.113493 83.780216,109.13517300000001 83.263732,109.152911 82.747254,109.166708 82.23078,109.176562 81.71430799999999,109.18247500000001 81.19783799999999,109.18444600000001 80.68136799999999,109.18247500000001 80.164896,109.176562 79.648422,109.166708 79.131944,109.152911 78.61546,109.13517300000001 78.09897,109.113493 77.582472,109.08787000000001 77.06596499999999,109.058305 76.549447,109.024797 76.032917,108.987346 75.516374,108.94595100000001 74.999817,108.900613 74.483244,108.851332 73.96665399999999,108.798106 73.450046,108.74093500000001 72.93341799999999,108.67981900000001 72.41677,108.61475800000001 71.90010099999999,108.54575100000001 71.383408,108.472797 70.71579799999999,108.373439 70.71579799999999,113.39546700000001 71.096392,113.45210900000001 71.627903,113.52715500000001 69.803693,113.52715500000001 69.27215799999999,113.59814800000001 68.740602,113.665087 68.209026,113.72797100000001 67.67742999999999,113.7868 67.145816,113.84157400000001 66.61418499999999,113.89229300000001 66.082538,113.938955 65.550877,113.98156 65.019203,114.020109 64.487517,114.054601 63.955819999999996,114.085036 63.424113999999996,114.111413 62.892399999999995,114.133733 62.360679999999995,114.151995 61.828953999999996,114.16619800000001 61.297224,114.176344 60.765491999999995,114.18243100000001 60.233757999999995,114.18446 59.702023999999994,114.18243100000001 59.170291999999996,114.176344 58.63856199999999,114.16619800000001 58.106835999999994,114.151995 57.575115999999994,114.133733 57.04340199999999,114.111413 56.51169599999999,114.085036 55.97999899999999,114.054601 55.448313,114.020109 54.916638999999996,113.98156 54.384978,113.938955 53.853331,113.89229300000001 53.32169999999999,113.84157400000001 52.790085999999995,113.7868 52.258489999999995,113.72797100000001 51.726913999999994,113.665087 51.195358,113.59814800000001 50.663822999999994,113.52715500000001 50.132312,113.45210900000001 48.751718,113.24664100000001 48.751718,108.224613 50.41932799999999,108.472797 50.936021,108.54575100000001 51.45269,108.61475800000001 51.96933799999999,108.67981900000001 52.485966,108.74093500000001 53.002573999999996,108.798106 53.519163999999996,108.851332 54.035737,108.900613 54.552293999999996,108.94595100000001 55.068836999999995,108.987346 55.585367,109.024797 56.101884999999996,109.058305 56.618392,109.08787000000001 57.13489,109.113493 57.651379999999996,109.13517300000001 58.167863999999994,109.152911 58.684341999999994,109.166708 59.200815999999996,109.176562 59.717287999999996,109.18247500000001 60.233757999999995,109.18444600000001 60.75022799999999,109.18247500000001 61.2667,109.176562 61.783173999999995,109.166708 62.299651999999995,109.152911 62.816136,109.13517300000001 63.332626,109.113493 63.849123999999996,109.08787000000001 64.365631,109.058305 64.882149,109.024797 65.39867899999999,108.987346 65.915222,108.94595100000001 66.43177899999999,108.900613 66.948352,108.851332 67.464942,108.798106 67.98155,108.74093500000001 68.498178,108.67981900000001 69.014826,108.61475800000001 69.53149499999999,108.54575100000001 70.048188,108.472797 70.71579799999999,108.373439 70.71579799999999,113.39546700000001 70.335204,113.45210900000001 69.803693,113.52715500000001" stroke="#1f6fb2" stroke-width="0.1" /><text fill="#0a3d62" font-family="sans-serif" font-size="1.6" text-anchor="middle" x="70.71579799999999" y="111.2045365">08</text><polygon fill="#cfe3f7" fill-opacity="0.5" points="93.679878,111.87374 93.702033,112.09868300000001 93.781976,112.362221 93.911797,112.60509900000001 94.086507,112.81798400000001 94.299392,112.992694 94.54227,113.122515 94.805808,113.20245800000001 95.03075100000001,113.224613 106.329005,113.224613 106.553948,113.20245800000001 106.817486,113.122515 107.060364,112.992694 107.273249,112.81798400000001 107.447959,112.60509900000001 107.57778,112.362221 107.657723,112.09868300000001 107.679878,111.87374 107.679878,109.57548600000001 107.657723,109.350543 107.57778,109.087005 107.447959,108.844127 107.273249,108.631242 107.060364,108.45653200000001 106.817486,108.326711 106.553948,108.246768 106.329005,108.224613 95.03075100000001,108.224613 94.805808,108.246768 94.54227,108.326711 94.299392,108.45653200000001 94.086507,108.631242 93.911797,108.844127 93.781976,109.087005 93.702033,109.350543 93.679878,109.57548600000001 93.679878,111.87374" stroke="#1f6fb2" stroke-width="0.1" /><text fill="#0a3d62" font-family="sans-serif" font-size="1.6" text-anchor="middle" x="100.679878" y="110.724613">06</text><polygon fill="#cfe3f7" fill-opacity="0.5" points="108.679878,111.87374 108.702033,112.09868300000001 108.781976,112.362221 108.911797,112.60509900000001 109.086507,112.81798400000001 109.299392,112.992694 109.54227,113.122515 109.805808,113.20245800000001 110.03075100000001,113.224613 121.329005,113.224613 121.553948,113.20245800000001 121.817486,113.122515 122.060364,112.992694 122.273249,112.81798400000001 122.447959,112.60509900000001 122.57778,112.362221 122.657723,112.09868300000001 122.679878,111.87374 122.679878,109.57548600000001 122.657723,109.350543 122.57778,109.087005 122.447959,108.844127 122.273249,108.631242 122.060364,108.45653200000001 121.817486,108.326711 121.553948,108.246768 121.329005,108.224613 110.03075100000001,108.224613 109.805808,108.246768 109.54227,108.326711 109.299392,108.45653200000001 109.086507,108.631242 108.911797,108.844127 108.781976,109.087005 108.702033,109.350543 108.679878,109.57548600000001 108.679878,111.87374" stroke="#1f6fb2" stroke-width="0.1" /><text fill="#0a3d62" font-family="sans-serif" font-size="1.6" text-anchor="middle" x="115.679878" y="110.724613">06</text></svg>