<?xml version="1.0" encoding="utf-8" ?>
<svg baseProfile="full" height="223.16950899999998cm" version="1.1" viewBox="0 0 158.0 223.16950899999998" width="158.0cm" xmlns="http://www.w3.org/2000/svg" xmlns:ev="http://www.w3.org/2001/xml-events" xmlns:xlink="http://www.w3.org/1999/xlink"><defs /><rect fill="#f7f3ea" height="215.16950899999998" stroke="#333" stroke-width="0.15" width="150.0" x="4.0" y="4.0" /><text fill="#000" font-family="sans-serif" font-size="1.4" x="4.0" y="3.0">PLANO DE CORTE — ancho 150 cm — largo 2.15 m</text><polygon fill="#cfe3f7" fill-opacity="0.5" points="4.0,102.267704 14.180966999999999,102.267704 11.605001000000001,17.816398 15.824922,5.262131 13.300661,4.0 12.604548000000001,4.928368 12.408809,5.189983 12.212994,5.452847 12.017382000000001,5.717166 11.822256,5.98315 11.6279,6.251011999999999 11.434603,6.520965 11.242656,6.793221 11.052355,7.067997 10.863996,7.345508 10.677882,7.6259689999999996 10.494319,7.909597 10.313615,8.196606 10.136242,8.486951000000001 9.963303,8.779094 9.795078,9.070626 9.63075,9.360295 9.469275,9.647313 9.309653,9.930903 9.150927,10.210297 8.992184,10.484739000000001 8.832553,10.753489 8.671203,11.015827 8.507341,11.271062 8.340206,11.518545 8.169058,11.757678 7.993161000000001,11.987943000000001 7.810869,12.210004 7.619404,12.426846 7.41765,12.641195 7.206278,12.853889 6.986212,13.065588 6.7584420000000005,13.27698 6.524011,13.488792 6.322425,13.667704 4.0,13.667704 4.0,102.267704" stroke="#1f6fb2" stroke-width="0.1" /><text fill="#0a3d62" font-family="sans-serif" font-size="1.6" text-anchor="middle" x="9.912461" y="53.133852">09</text><polygon fill="#cfe3f7" fill-opacity="0.5" points="16.824922,102.267704 27.005889,102.267704 24.429923000000002,17.816398 28.649844,5.262131 26.125583,4.0 25.429470000000002,4.928368 25.233731,5.189983 25.037916000000003,5.452847 24.842304000000002,5.717166 24.647178,5.98315 24.452822,6.251011999999999 24.259525,6.520965 24.067578,6.793221 23.877277,7.067997 23.688918,7.345508 23.502804,7.6259689999999996 23.319241,7.909597 23.138537,8.196606 22.961164,8.486951000000001 22.788225,8.779094 22.62,9.070626 22.455672,9.360295 22.294197,9.647313 22.134575,9.930903 21.975849,10.210297 21.817106000000003,10.484739000000001 21.657475,10.753489 21.496125,11.015827 21.332263,11.271062 21.165128000000003,11.518545 20.99398,11.757678 20.818083,11.987943000000001 20.635791,12.210004 20.444326,12.426846 20.242572000000003,12.641195 20.031200000000002,12.853889 19.811134000000003,13.065588 19.583364,13.27698 19.348933000000002,13.488792 19.147347,13.667704 16.824922,13.667704 16.824922,102.267704" stroke="#1f6fb2" stroke-width="0.1" /><text fill="#0a3d62" font-family="sans-serif" font-size="1.6" text-anchor="middle" x="22.737383" y="53.133852">09</text><polygon fill="#cfe3f7" fill-opacity="0.5" points="29.649844,102.233067 69.525069,102.233067 57.291092000000006,26.790208999999997 56.749912,26.171653999999997 56.396521,25.768483 56.040528,25.363836 55.681394,24.957849 55.318277,24.550319 54.95034,24.141047999999998 54.576750000000004,23.729844999999997 54.196687,23.316536 53.810258000000005,22.901911 53.420919,22.488083 53.034441,22.076037 52.655385,21.665301 52.288183000000004,21.255467 51.937261,20.846346999999998 51.606989,20.437973 51.30162,20.030609 51.025183999999996,19.624724 50.781365,19.22094 50.57334,18.819888 50.40363,18.421923 50.273231,18.024288 50.180244,17.618925 50.12149,17.199514999999998 50.095352000000005,16.764596 50.100468,16.313914 50.135391999999996,15.847847 50.198454,15.367222 50.287714,14.873137 50.400976,14.366815 50.535817,13.849511 50.689639,13.32245 50.859709,12.78679 51.043189999999996,12.243606999999999 51.237178,11.693886 51.438712,11.138521 51.970248,9.693617 38.924533000000004,4.0 38.254392,4.893731 38.058653,5.155346 37.862838,5.41821 37.667226,5.682529 37.472100000000005,5.948513 37.277744,6.216374999999999 37.084447000000004,6.486328 36.8925,6.758584 36.702199,7.03336 36.51384,7.310871 36.327726,7.5913319999999995 36.144163000000006,7.87496 35.963459,8.161969 35.786086000000005,8.452314000000001 35.613147,8.744457 35.444922000000005,9.035989 35.280594,9.325658 35.119119,9.612676 34.959497,9.896266 34.800771000000005,10.17566 34.642028,10.450102000000001 34.482397000000006,10.718852 34.321047,10.98119 34.157185,11.236425 33.990050000000004,11.483908 33.818902,11.723041 33.643005,11.953306000000001 33.460713,12.175367 33.269248000000005,12.392209 33.067494,12.606558 32.856122,12.819252 32.636056,13.030951 32.408286000000004,13.242343 32.173855,13.454155 31.972269,13.633067 29.649844,13.633067 29.649844,102.233067" stroke="#1f6fb2" stroke-width="0.1" /><text fill="#0a3d62" font-family="sans-serif" font-size="1.6" text-anchor="middle" x="49.5874565" y="53.1165335">01</text><polygon fill="#cfe3f7" fill-opacity="0.5" points="70.525069,102.233067 110.400294,102.233067 98.166317,26.790208999999997 97.625137,26.171653999999997 97.27174600000001,25.768483 96.915753,25.363836 96.556619,24.957849 96.193502,24.550319 95.825565,24.141047999999998 95.451975,23.729844999999997 95.071912,23.316536 94.685483,22.901911 94.296144,22.488083 93.909666,22.076037 93.53061,21.665301 93.163408,21.255467 92.812486,20.846346999999998 92.482214,20.437973 92.176845,20.030609 91.900409,19.624724 91.65659,19.22094 91.448565,18.819888 91.278855,18.421923 91.14845600000001,18.024288 91.055469,17.618925 90.996715,17.199514999999998 90.970577,16.764596 90.975693,16.313914 91.010617,15.847847 91.073679,15.367222 91.162939,14.873137 91.276201,14.366815 91.41104200000001,13.849511 91.564864,13.32245 91.73493400000001,12.78679 91.918415,12.243606999999999 92.112403,11.693886 92.31393700000001,11.138521 92.845473,9.693617 79.799758,4.0 79.129617,4.893731 78.933878,5.155346 78.738063,5.41821 78.542451,5.682529 78.347325,5.948513 78.152969,6.216374999999999 77.959672,6.486328 77.767725,6.758584 77.57742400000001,7.03336 77.389065,7.310871 77.202951,7.5913319999999995 77.019388,7.87496 76.838684,8.161969 76.661311,8.452314000000001 76.488372,8.744457 76.320147,9.035989 76.15581900000001,9.325658 75.994344,9.612676 75.834722,9.896266 75.675996,10.17566 75.517253,10.450102000000001 75.357622,10.718852 75.19627200000001,10.98119 75.03241,11.236425 74.865275,11.483908 74.69412700000001,11.723041 74.51823,11.953306000000001 74.335938,12.175367 74.144473,12.392209 73.942719,12.606558 73.731347,12.819252 73.511281,13.030951 73.283511,13.242343 73.04908,13.454155 72.847494,13.633067 70.525069,13.633067 70.525069,102.233067" stroke="#1f6fb2" stroke-width="0.1" /><text fill="#0a3d62" font-family="sans-serif" font-size="1.6" text-anchor="middle" x="90.4626815" y="53.1165335">01</text><polygon fill="#cfe3f7" fill-opacity="0.5" points="66.127831,115.894886 65.72010499999999,115.279729 65.431559,114.84411399999999 65.14307199999999,114.408048 64.854593,113.971184 64.56607,113.533176 64.277451,113.09367599999999 63.988685,112.65233799999999 63.699729,112.208831 63.410970999999996,111.76344 63.124204,111.317216 62.84194599999999,110.870756 62.566306999999995,110.42400799999999 62.299353999999994,109.97692599999999 62.043127999999996,109.52950899999999 61.799638,109.081797 61.570845,108.633862 61.358655,108.1858 61.164899,107.73771199999999 60.99132,107.28968599999999 60.839567,106.84176 60.711169999999996,106.39383199999999 60.607118,105.94394399999999 60.526675999999995,105.488163 60.468058,105.024293 60.429867,104.552268 60.37861099999999,103.267704 41.175225,103.267704 41.175225,191.26770399999998 78.35045,191.26770399999998 66.127831,115.894886 16.222618999999998,115.894886 16.630345,115.279729 16.918891,114.84411399999999 17.207378,114.408048 17.495856999999997,113.971184 17.78438,113.533176 18.072998999999996,113.09367599999999 18.361765,112.65233799999999 18.650720999999997,112.208831 18.939479,111.76344 19.226245999999996,111.317216 19.508504,110.870756 19.784142999999997,110.42400799999999 20.051095999999998,109.97692599999999 20.307322,109.52950899999999 20.550811999999997,109.081797 20.779604999999997,108.633862 20.991794999999996,108.1858 21.185550999999997,107.73771199999999 21.359129999999997,107.28968599999999 21.510882999999996,106.84176 21.639279999999996,106.39383199999999 21.743332,105.94394399999999 21.823773999999997,105.488163 21.882391999999996,105.024293 21.920582999999997,104.552268 21.971839,103.267704 41.175225,103.267704 41.175225,191.26770399999998 4.0,191.26770399999998 16.222618999999998,115.894886" stroke="#1f6fb2" stroke-width="0.1" /><text fill="#0a3d62" font-family="sans-serif" font-size="1.6" text-anchor="middle" x="41.175225" y="147.26770399999998">02</text><polygon fill="#cfe3f7" fill-opacity="0.5" points="83.953987,165.272317 109.782691,165.272317 114.395192,113.827327 113.68884899999999,113.042694 113.268042,112.580552 112.83856599999999,112.11954 112.398369,111.662943 111.947695,111.215104 111.488773,110.77776399999999 111.02259799999999,110.350409 110.54979,109.93216199999999 110.07095799999999,109.522143 109.58669699999999,109.11947099999999 109.09759199999999,108.723265 108.604219,108.332647 108.10713899999999,107.94673999999999 107.606246,107.56416999999999 107.09950699999999,107.183459 106.58442699999999,106.80596299999999 106.059868,106.43459999999999 105.524853,106.072496 104.97834999999999,105.722833 104.419293,105.38886699999999 103.846598,105.073954 103.25920199999999,104.781561 102.656111,104.515294 102.03798,104.279466 101.409899,104.07732 100.77760799999999,103.906295 100.143356,103.761815 99.508687,103.639246 98.87501999999999,103.53408599999999 98.243704,103.441976 97.616072,103.358699 96.89457399999999,103.267704 96.159413,103.32164399999999 95.518667,103.372666 94.87409699999999,103.432109 94.22685,103.504142 93.578077,103.59307299999999 92.928975,103.703347 92.280846,103.83954399999999 91.635257,104.00634 90.99639499999999,104.20758599999999 90.37012899999999,104.442509 89.758764,104.70685599999999 89.161706,104.997118 88.578124,105.309958 88.007136,105.642151 87.44784399999999,105.99057599999999 86.899363,106.352193 86.36084199999999,106.72402699999999 85.83146599999999,107.103155 85.309647,107.487304 84.792429,107.87699699999999 84.279201,108.275463 83.771801,108.684888 83.272443,109.10725099999999 82.78339799999999,109.544568 82.307012,109.99888 81.84572399999999,110.472229 81.40208299999999,110.966628 80.979248,111.48342799999999 80.582895,112.018686 80.213124,112.561902 79.86392599999999,113.105098 79.35045,113.927312 83.953987,165.272317" stroke="#1f6fb2" stroke-width="0.1" /><text fill="#0a3d62" font-family="sans-serif" font-size="1.6" text-anchor="middle" x="96.87282099999999" y="134.27001049999998">04</text><polygon fill="#cfe3f7" fill-opacity="0.5" points="119.998729,165.272317 145.82743299999998,165.272317 150.439934,113.827327 149.733591,113.042694 149.312784,112.580552 148.883308,112.11954 148.443111,111.662943 147.992437,111.215104 147.533515,110.77776399999999 147.06734,110.350409 146.594532,109.93216199999999 146.1157,109.522143 145.631439,109.11947099999999 145.142334,108.723265 144.64896099999999,108.332647 144.151881,107.94673999999999 143.65098799999998,107.56416999999999 143.144249,107.183459 142.629169,106.80596299999999 142.10460999999998,106.43459999999999 141.569595,106.072496 141.023092,105.722833 140.464035,105.38886699999999 139.89133999999999,105.073954 139.303944,104.781561 138.700853,104.515294 138.082722,104.279466 137.45464099999998,104.07732 136.82235,103.906295 136.188098,103.761815 135.553429,103.639246 134.919762,103.53408599999999 134.288446,103.441976 133.660814,103.358699 132.939316,103.267704 132.204155,103.32164399999999 131.56340899999998,103.372666 130.918839,103.432109 130.271592,103.504142 129.622819,103.59307299999999 128.973717,103.703347 128.32558799999998,103.83954399999999 127.679999,104.00634 127.04113699999999,104.20758599999999 126.41487099999999,104.442509 125.803506,104.70685599999999 125.206448,104.997118 124.62286599999999,105.309958 124.05187799999999,105.642151 123.49258599999999,105.99057599999999 122.944105,106.352193 122.40558399999999,106.72402699999999 121.87620799999999,107.103155 121.354389,107.487304 120.837171,107.87699699999999 120.323943,108.275463 119.816543,108.684888 119.317185,109.10725099999999 118.82813999999999,109.544568 118.351754,109.99888 117.89046599999999,110.472229 117.44682499999999,110.966628 117.02399,111.48342799999999 116.627637,112.018686 116.25786599999999,112.561902 115.90866799999999,113.105098 115.395192,113.927312 119.998729,165.272317" stroke="#1f6fb2" stroke-width="0.1" /><text fill="#0a3d62" font-family="sans-serif" font-size="1.6" text-anchor="middle" x="132.917563" y="134.27001049999998">04</text><polygon fill="#cfe3f7" fill-opacity="0.5" points="4.0,203.53960899999998 11.0,207.94960899999998 18.0,203.53960899999998 18.0,192.26770399999998 4.0,192.26770399999998 4.0,203.53960899999998" stroke="#1f6fb2" stroke-width="0.1" /><text fill="#0a3d62" font-family="sans-serif" font-size="1.6" text-anchor="middle" x="11.0" y="200.1086565">10</text><polygon fill="#cfe3f7" fill-opacity="0.5" points="19.0,204.51683099999997 19.029841,204.819811 19.132547,205.15838599999998 19.299332,205.470419 19.523786,205.74391799999998 19.797285,205.968372 20.109318000000002,206.135157 20.447893,206.23786299999998 20.750873,206.26770399999998 42.249127,206.26770399999998 42.552107,206.23786299999998 42.890682,206.135157 43.202715,205.968372 43.476214,205.74391799999998 43.700668,205.470419 43.867453,205.15838599999998 43.970158999999995,204.819811 44.0,204.51683099999997 44.0,194.018577 43.970158999999995,193.71559699999997 43.867453,193.37702199999998 43.700668,193.06498899999997 43.476214,192.79148999999998 43.202715,192.56703599999997 42.890682,192.40025099999997 42.552107,192.29754499999999 42.249127,192.26770399999998 20.750873,192.26770399999998 20.447893,192.29754499999999 20.109318000000002,192.40025099999997 19.797285,192.56703599999997 19.523786,192.79148999999998 19.299332,193.06498899999997 19.132547,193.37702199999998 19.029841,193.71559699999997 19.0,194.018577 19.0,204.51683099999997" stroke="#1f6fb2" stroke-width="0.1" /><text fill="#0a3d62" font-family="sans-serif" font-size="1.6" text-anchor="middle" x="31.5" y="199.26770399999998">05</text><polygon fill="#cfe3f7" fill-opacity="0.5" points="45.0,204.51683099999997 45.029841,204.819811 45.132547,205.15838599999998 45.299332,205.470419 45.523786,205.74391799999998 45.797285,205.968372 46.109318,206.135157 46.447893,206.23786299999998 46.750873,206.26770399999998 68.249127,206.26770399999998 68.552107,206.23786299999998 68.890682,206.135157 69.202715,205.968372 69.476214,205.74391799999998 69.70066800000001,205.470419 69.867453,205.15838599999998 69.970159,204.819811 70.0,204.51683099999997 70.0,194.018577 69.970159,193.71559699999997 69.867453,193.37702199999998 69.70066800000001,193.06498899999997 69.476214,192.79148999999998 69.202715,192.56703599999997 68.890682,192.40025099999997 68.552107,192.29754499999999 68.249127,192.26770399999998 46.750873,192.26770399999998 46.447893,192.29754499999999 46.109318,192.40025099999997 45.797285,192.56703599999997 45.523786,192.79148999999998 45.299332,193.06498899999997 45.132547,193.37702199999998 45.029841,193.71559699999997 45.0,194.018577 45.0,204.51683099999997" stroke="#1f6fb2" stroke-width="0.1" /><text fill="#0a3d62" font-family="sans-serif" font-size="1.6" text-anchor="middle" x="57.5" y="199.26770399999998">05</text><polygon fill="#cfe3f7" fill-opacity="0.5" points="110.109812,203.19376799999998 110.10827,202.70608699999997 110.12286,202.21110399999998 110.152042,201.709253 110.194218,201.201 110.247736,200.68682499999997 110.310889,200.16720899999999 110.381927,199.642622 110.459058,199.11351599999998 110.540457,198.58031899999997 110.74864600000001,197.24658999999997 97.845692,192.26770399999998 97.20658399999999,192.70181499999998 97.003755,192.838304 96.803425,192.97060199999999 96.605097,193.09790099999998 96.40829099999999,193.219451 96.21253300000001,193.33456299999997 96.016683,193.44298099999997 95.81873300000001,193.54525499999997 95.617676,193.64189399999998 95.4137,193.73280499999998 95.207108,193.81784299999998 94.998204,193.896867 94.787293,193.969744 94.574684,194.03634499999998 94.36068399999999,194.096546 94.145601,194.150232 93.929644,194.19731299999998 93.712166,194.237902 93.49201500000001,194.27248899999998 93.26876200000001,194.30156399999998 93.04241,194.32554899999997 92.81299,194.34487699999997 92.580557,194.35999599999997 92.345178,194.37136999999998 92.106932,194.37948199999997 91.865904,194.38483 91.62218200000001,194.38793399999997 91.375856,194.38932599999998 91.12701200000001,194.389561 90.874323,194.38920399999998 90.874323,204.38920499999998 110.157512,204.38920499999998 110.109812,203.19376799999998 71.638834,203.19376799999998 71.640376,202.70608699999997 71.625786,202.21110399999998 71.596604,201.709253 71.554428,201.201 71.50091,200.68682499999997 71.437757,200.16720899999999 71.366719,199.642622 71.28958800000001,199.11351599999998 71.208189,198.58031899999997 71.0,197.24658999999997 83.902954,192.26770399999998 84.542062,192.70181499999998 84.744891,192.838304 84.945221,192.97060199999999 85.14354900000001,193.09790099999998 85.340355,193.219451 85.536113,193.33456299999997 85.73196300000001,193.44298099999997 85.929913,193.54525499999997 86.13097,193.64189399999998 86.334946,193.73280499999998 86.541538,193.81784299999998 86.75044199999999,193.896867 86.961353,193.969744 87.173962,194.03634499999998 87.387962,194.096546 87.60304500000001,194.150232 87.819002,194.19731299999998 88.03648,194.237902 88.256631,194.27248899999998 88.479884,194.30156399999998 88.706236,194.32554899999997 88.935656,194.34487699999997 89.16808900000001,194.35999599999997 89.403468,194.37136999999998 89.64171400000001,194.37948199999997 89.88274200000001,194.38483 90.126464,194.38793399999997 90.37279000000001,194.38932599999998 90.621634,194.389561 90.874323,194.38920399999998 90.874323,204.38920499999998 71.591134,204.38920499999998 71.638834,203.19376799999998" stroke="#1f6fb2" stroke-width="0.1" /><text fill="#0a3d62" font-family="sans-serif" font-size="1.6" text-anchor="middle" x="90.874323" y="198.3284545">03</text><polygon fill="#cfe3f7" fill-opacity="0.5" points="26.655368999999997,215.80458599999997 27.146859,215.893883 27.638402,215.978086 28.129994999999997,216.05719399999998 28.621636,216.131205 29.113321,216.20011799999997 29.605047999999996,216.26393199999998 30.096814,216.322645 30.588614999999997,216.37625699999998 31.080448999999998,216.42476599999998 31.572312999999998,216.46817199999998 32.064203,216.50647299999997 32.556116,216.53966899999998 33.048049,216.56775899999997 33.539998999999995,216.59074199999998 34.031962,216.60861899999998 34.523936,216.62138799999997 35.015916,216.62904999999998 35.507898999999995,216.63160299999998 35.999882,216.62904999999998 36.491862,216.62138799999997 36.983836,216.60861899999998 37.475798999999995,216.59074199999998 37.967749,216.56775899999997 38.459682,216.53966899999998 38.951595,216.50647299999997 39.443484999999995,216.46817199999998 39.935349,216.42476599999998 40.427183,216.37625699999998 40.918983999999995,216.322645 41.41075,216.26393199999998 41.902477,216.20011799999997 42.394161999999994,216.131205 42.885802999999996,216.05719399999998 43.377396,215.978086 43.868939,215.893883 44.360428999999996,215.80458599999997 44.644778,215.74997199999999 46.6965,219.16950899999998 47.751718,218.770526 45.938626,208.94960899999998 44.46481,209.24798199999998 43.993041,209.33859399999997 43.521327,209.42429699999997 43.049666,209.50509399999999 42.578055,209.58098599999997 42.106492,209.651975 41.634973,209.71806199999997 41.163495999999995,209.77924799999997 40.692057999999996,209.835535 40.220655,209.88692299999997 39.749285,209.93341399999997 39.277945,209.97500799999997 38.806630999999996,210.01170699999997 38.33534,210.04351099999997 37.864069,210.07042099999998 37.392815,210.092438 36.921574,210.10956099999999 36.450344,210.12179199999997 35.979119999999995,210.12912999999998 35.507898999999995,210.131577 35.036677999999995,210.12912999999998 34.565454,210.12179199999997 34.094224,210.10956099999999 33.622983,210.092438 33.151729,210.07042099999998 32.680458,210.04351099999997 32.209166999999994,210.01170699999997 31.737852999999998,209.97500799999997 31.266512999999996,209.93341399999997 30.795143,209.88692299999997 30.323739999999997,209.835535 29.852301999999998,209.77924799999997 29.380824999999998,209.71806199999997 28.909305999999997,209.651975 28.437742999999998,209.58098599999997 27.966131999999998,209.50509399999999 27.494470999999997,209.42429699999997 27.022757,209.33859399999997 26.550987999999997,209.24798199999998 25.875859,209.111303 25.875859,215.65187699999998 26.163933999999998,215.710198 26.655368999999997,215.80458599999997 25.096349,215.80458599999997 24.604858999999998,215.893883 24.113315999999998,215.978086 23.621723,216.05719399999998 23.130081999999998,216.131205 22.638396999999998,216.20011799999997 22.14667,216.26393199999998 21.654904,216.322645 21.163103,216.37625699999998 20.671269,216.42476599999998 20.179405,216.46817199999998 19.687514999999998,216.50647299999997 19.195601999999997,216.53966899999998 18.703668999999998,216.56775899999997 18.211719,216.59074199999998 17.719755999999997,216.60861899999998 17.227781999999998,216.62138799999997 16.735802,216.62904999999998 16.243819,216.63160299999998 15.751835999999999,216.62904999999998 15.259856,216.62138799999997 14.767881999999998,216.60861899999998 14.275918999999998,216.59074199999998 13.783968999999999,216.56775899999997 13.292035999999998,216.53966899999998 12.800123,216.50647299999997 12.308232999999998,216.46817199999998 11.816368999999998,216.42476599999998 11.324535,216.37625699999998 10.832733999999999,216.322645 10.340967999999998,216.26393199999998 9.849241,216.20011799999997 9.357555999999999,216.131205 8.865914999999998,216.05719399999998 8.374322,215.978086 7.882778999999999,215.893883 7.391288999999997,215.80458599999997 7.106939999999998,215.74997199999999 5.055218,219.16950899999998 4.0,218.770526 5.8130919999999975,208.94960899999998 7.286907999999997,209.24798199999998 7.758676999999999,209.33859399999997 8.230390999999997,209.42429699999997 8.702051999999998,209.50509399999999 9.173662999999998,209.58098599999997 9.645225999999997,209.651975 10.116744999999998,209.71806199999997 10.588221999999998,209.77924799999997 11.05966,209.835535 11.531062999999998,209.88692299999997 12.002432999999998,209.93341399999997 12.473772999999998,209.97500799999997 12.945087,210.01170699999997 13.416377999999998,210.04351099999997 13.887648999999998,210.07042099999998 14.358902999999998,210.092438 14.830143999999999,210.10956099999999 15.301374,210.12179199999997 15.772597999999999,210.12912999999998 16.243819,210.131577 16.71504,210.12912999999998 17.186263999999998,210.12179199999997 17.657494,210.10956099999999 18.128735,210.092438 18.599988999999997,210.07042099999998 19.07126,210.04351099999997 19.542551,210.01170699999997 20.013865,209.97500799999997 20.485205,209.93341399999997 20.956574999999997,209.88692299999997 21.427978,209.835535 21.899416,209.77924799999997 22.370893,209.71806199999997 22.842412,209.651975 23.313975,209.58098599999997 23.785586,209.50509399999999 24.257247,209.42429699999997 24.728960999999998,209.33859399999997 25.20073,209.24798199999998 25.875859,209.111303 25.875859,215.65187699999998 25.587784,215.710198 25.096349,215.80458599999997" stroke="#1f6fb2" stroke-width="0.1" /><text fill="#0a3d62" font-family="sans-serif" font-size="1.6" text-anchor="middle" x="25.875859" y="214.05955899999998">07</text><polygon fill="#cfe3f7" fill-opacity="0.5" points="71.627903,214.25215099999997 72.159438,214.32314399999998 72.69099399999999,214.39008299999998 73.22256999999999,214.45296699999997 73.754166,214.51179599999998 74.28577999999999,214.56656999999998 74.81741099999999,214.61728899999997 75.349058,214.66395099999997 75.880719,214.70655599999998 76.412393,214.74510499999997 76.94407899999999,214.77959699999997 77.475776,214.81003199999998 78.007482,214.83640899999997 78.539196,214.85872899999998 79.070916,214.87699099999998 79.602642,214.89119399999998 80.134372,214.90133999999998 80.66610399999999,214.90742699999998 81.19783799999999,214.90945599999998 81.72957199999999,214.90742699999998 82.261304,214.90133999999998 82.79303399999999,214.89119399999998 83.32476,214.87699099999998 83.85648,214.85872899999998 84.388194,214.83640899999997 84.9199,214.81003199999998 85.45159699999999,214.77959699999997 85.983283,214.74510499999997 86.514957,214.70655599999998 87.046618,214.66395099999997 87.57826499999999,214.61728899999997 88.10989599999999,214.56656999999998 88.64151,214.51179599999998 89.17310599999999,214.45296699999997 89.70468199999999,214.39008299999998 90.236238,214.32314399999998 90.76777299999999,214.25215099999997 91.299284,214.17710499999998 92.679878,213.971637 92.679878,208.94960899999998 91.01226799999999,209.197793 90.495575,209.27074699999997 89.978906,209.33975399999997 89.46225799999999,209.40481499999999 88.94563,209.46593099999998 88.429022,209.523102 87.912432,209.576328 87.395859,209.62560899999997 86.879302,209.67094699999998 86.362759,209.71234199999998 85.846229,209.74979299999998 85.329711,209.783301 84.813204,209.81286599999999 84.296706,209.83848899999998 83.780216,209.86016899999998 83.263732,209.877907 82.747254,209.89170399999998 82.23078,209.901558 81.71430799999999,209.907471 81.19783799999999,209.90944199999998 80.68136799999999,209.907471 80.164896,209.901558 79.648422,209.89170399999998 79.131944,209.877907 78.61546,209.86016899999998 78.09897,209.83848899999998 77.582472,209.81286599999999 77.06596499999999,209.783301 76.549447,209.74979299999998 76.032917,209.71234199999998 75.516374,209.67094699999998 74.999817,209.62560899999997 74.483244,209.576328 73.96665399999999,209.523102 73.450046,209.46593099999998 72.93341799999999,209.40481499999999 72.41677,209.33975399999997 71.90010099999999,209.27074699999997 71.383408,209.197793 70.71579799999999,209.098435 70.71579799999999,214.12046299999997 71.096392,214.17710499999998 71.627903,214.25215099999997 69.803693,214.25215099999997 69.27215799999999,214.32314399999998 68.740602,214.39008299999998 68.209026,214.45296699999997 67.67742999999999,214.51179599999998 67.145816,214.56656999999998 66.61418499999999,214.61728899999997 66.082538,214.66395099999997 65.550877,214.70655599999998 65.019203,214.74510499999997 64.487517,214.77959699999997 63.955819999999996,214.81003199999998 63.424113999999996,214.83640899999997 62.892399999999995,214.85872899999998 62.360679999999995,214.87699099999998 61.828953999999996,214.89119399999998 61.297224,214.90133999999998 60.765491999999995,214.90742699999998 60.233757999999995,214.90945599999998 59.702023999999994,214.90742699999998 59.170291999999996,214.90133999999998 58.63856199999999,214.89119399999998 58.106835999999994,214.87699099999998 57.575115999999994,214.85872899999998 57.04340199999999,214.83640899999997 56.51169599999999,214.81003199999998 55.97999899999999,214.77959699999997 55.448313,214.74510499999997 54.916638999999996,214.70655599999998 54.384978,214.66395099999997 53.853331,214.61728899999997 53.32169999999999,214.56656999999998 52.790085999999995,214.51179599999998 52.258489999999995,214.45296699999997 51.726913999999994,214.39008299999998 51.195358,214.32314399999998 50.663822999999994,214.25215099999997 50.132312,214.17710499999998 48.751718,213.971637 48.751718,208.94960899999998 50.41932799999999,209.197793 50.936021,209.27074699999997 51.45269,209.33975399999997 51.96933799999999,209.40481499999999 52.485966,209.46593099999998 53.002573999999996,209.523102 53.519163999999996,209.576328 54.035737,209.62560899999997 54.552293999999996,209.67094699999998 55.068836999999995,209.71234199999998 55.585367,209.74979299999998 56.101884999999996,209.783301 56.618392,209.81286599999999 57.13489,209.83848899999998 57.651379999999996,209.86016899999998 58.167863999999994,209.877907 58.684341999999994,209.89170399999998 59.200815999999996,209.901558 59.717287999999996,209.907471 60.233757999999995,209.90944199999998 60.75022799999999,209.907471 61.2667,209.901558 61.783173999999995,209.89170399999998 62.299651999999995,209.877907 62.816136,209.86016899999998 63.332626,209.83848899999998 63.849123999999996,209.81286599999999 64.365631,209.783301 64.882149,209.74979299999998 65.39867899999999,209.71234199999998 65.915222,209.67094699999998 66.43177899999999,209.62560899999997 66.948352,209.576328 67.464942,209.523102 67.98155,209.46593099999998 68.498178,209.40481499999999 69.014826,209.33975399999997 69.53149499999999,209.27074699999997 70.048188,209.197793 70.71579799999999,209.098435 70.71579799999999,214.12046299999997 70.335204,214.17710499999998 69.803693,214.25215099999997" stroke="#1f6fb2" stroke-width="0.1" /><text fill="#0a3d62" font-family="sans-serif" font-size="1.6" text-anchor="middle" x="70.71579799999999" y="211.9295325">08</text><polygon fill="#cfe3f7" fill-opacity="0.5" points="93.679878,212.59873599999997 93.702033,212.82367899999997 93.781976,213.08721699999998 93.911797,213.33009499999997 94.086507,213.54297999999997 94.299392,213.71768999999998 94.54227,213.84751099999997 94.805808,213.92745399999998 95.03075100000001,213.94960899999998 106.329005,213.94960899999998 106.553948,213.92745399999998 106.817486,213.84751099999997 107.060364,213.71768999999998 107.273249,213.54297999999997 107.447959,213.33009499999997 107.57778,213.08721699999998 107.657723,212.82367899999997 107.679878,212.59873599999997 107.679878,210.300482 107.657723,210.075539 107.57778,209.81200099999998 107.447959,209.569123 107.273249,209.356238 107.060364,209.181528 106.817486,209.051707 106.553948,208.97176399999998 106.329005,208.94960899999998 95.03075100000001,208.94960899999998 94.805808,208.97176399999998 94.54227,209.051707 94.299392,209.181528 94.086507,209.356238 93.911797,209.569123 93.781976,209.81200099999998 93.702033,210.075539 93.679878,210.300482 93.679878,212.59873599999997" stroke="#1f6fb2" stroke-width="0.1" /><text fill="#0a3d62" font-family="sans-serif" font-size="1.6" text-anchor="middle" x="100.679878" y="211.44960899999998">06</text><polygon fill="#cfe3f7" fill-opacity="0.5" points="108.679878,212.59873599999997 108.702033,212.82367899999997 108.781976,213.08721699999998 108.911797,213.33009499999997 109.086507,213.54297999999997 109.299392,213.71768999999998 109.54227,213.84751099999997 109.805808,213.92745399999998 110.03075100000001,213.94960899999998 121.329005,213.94960899999998 121.553948,213.92745399999998 121.817486,213.84751099999997 122.060364,213.71768999999998 122.273249,213.54297999999997 122.447959,213.33009499999997 122.57778,213.08721699999998 122.657723,212.82367899999997 122.679878,212.59873599999997 122.679878,210.300482 122.657723,210.075539 122.57778,209.81200099999998 122.447959,209.569123 122.273249,209.356238 122.060364,209.181528 121.817486,209.051707 121.553948,208.97176399999998 121.329005,208.94960899999998 110.03075100000001,208.94960899999998 109.805808,208.97176399999998 109.54227,209.051707 109.299392,209.181528 109.086507,209.356238 108.911797,209.569123 108.781976,209.81200099999998 108.702033,210.075539 108.679878,210.300482 108.679878,212.59873599999997" stroke="#1f6fb2" stroke-width="0.1" /><text fill="#0a3d62" font-family="sans-serif" font-size="1.6" text-anchor="middle" x="115.679878" y="211.44960899999998">06</text></svg>