<?xml version="1.0" encoding="utf-8" ?>
<svg baseProfile="full" height="150.233067cm" version="1.1" viewBox="0 0 166.3408709374258 150.233067" width="166.3408709374258cm" xmlns="http://www.w3.org/2000/svg" xmlns:ev="http://www.w3.org/2001/xml-events" xmlns:xlink="http://www.w3.org/1999/xlink"><defs /><g fill="none" id="CONSTRUCCION" stroke="#888888" stroke-width="0.08"><line x1="5.7" x2="5.7" y1="13.633067" y2="72.233067" /><line x1="116.02436497391736" x2="116.02436497391736" y1="67.733067" y2="55.733067" /><line x1="139.3408709374258" x2="162.3408709374258" y1="10.233067" y2="10.233067" /><line x1="91.0281600046624" x2="103.0281600046624" y1="85.453067" y2="85.453067" /></g><g fill="none" id="CORTE" stroke="#d00000" stroke-width="0.08"><polygon points="3.0,73.233067 30.7,73.233067 30.7,25.857360999999997 30.100068,25.171653999999997 29.746677,24.768483 29.390684,24.363836 29.03155,23.957849 28.668433,23.550319 28.300496,23.141047999999998 27.926906,22.729844999999997 27.546843,22.316536 27.160414,21.901911 26.771075,21.488083 26.384597,21.076037 26.005541,20.665301 25.638339,20.255467 25.287416999999998,19.846346999999998 24.957145,19.437973 24.651775999999998,19.030609 24.375339999999998,18.624724 24.131521,18.22094 23.923496,17.819888 23.753785999999998,17.421923 23.623387,17.024288 23.5304,16.618925 23.471646,16.199514999999998 23.445508,15.764596000000001 23.450623999999998,15.313914 23.485547999999998,14.847847 23.54861,14.367222 23.63787,13.873137 23.751132,13.366815 23.885973,12.849511 24.039794999999998,12.32245 24.209865,11.78679 24.393345999999998,11.243606999999999 24.587334,10.693886 24.788868,10.138521 25.320404,8.693617 12.274689,3.0 11.604548000000001,3.893731 11.408809,4.155346 11.212994,4.41821 11.017382000000001,4.682529 10.822256,4.948513 10.6279,5.216374999999999 10.434603,5.486328 10.242656,5.758584 10.052355,6.03336 9.863996,6.310871 9.677882,6.5913319999999995 9.494319,6.87496 9.313614999999999,7.161969 9.136242,7.452314 8.963303,7.744457 8.795078,8.035989 8.630749999999999,8.325658 8.469275,8.612676 8.309653,8.896266 8.150927,9.17566 7.992184,9.450102000000001 7.832553,9.718852 7.671203,9.98119 7.507341,10.236425 7.340206,10.483908 7.169058,10.723041 6.993161,10.953306000000001 6.810869,11.175367 6.619404,11.392209 6.41765,11.606558 6.206278,11.819252 5.986212,12.030951 5.7584420000000005,12.242343 5.524011,12.454155 5.322425,12.633067 3.0,12.633067 3.0,73.233067" /><polygon points="60.7,15.931755 60.244879999999995,15.245092000000001 59.956334,14.809477 59.667846999999995,14.373410999999999 59.379368,13.936547 59.090845,13.498539 58.802226000000005,13.059039 58.513459999999995,12.617700999999999 58.224503999999996,12.174194000000002 57.935745999999995,11.728803000000001 57.648979,11.282579 57.366721,10.836119000000002 57.091082,10.389370999999999 56.824129,9.942289 56.567903,9.494872 56.324413,9.04716 56.09562,8.599225 55.883430000000004,8.151163 55.689674,7.703075 55.516095,7.255049 55.364342,6.807123000000001 55.235945,6.359195 55.131893,5.909307 55.051451,5.453526 54.992833000000005,4.989656 54.954642,4.517631 54.903386,3.233067 35.7,3.233067 35.7,63.233067 60.7,63.233067 60.7,15.931755" /><polygon points="84.935489,14.03763 84.933947,13.549949 84.948537,13.054966 84.97771900000001,12.553115 85.019895,12.044862 85.073413,11.530687 85.136566,11.011071 85.207604,10.486484 85.284735,9.957378 85.366134,9.424181 85.574323,8.090451999999999 72.671369,3.111566 72.032261,3.545677 71.829432,3.682166 71.629102,3.814464 71.430774,3.941763 71.233968,4.063313 71.03821,4.178425 70.84236,4.286843 70.64441000000001,4.389117 70.443353,4.485756 70.239377,4.5766670000000005 70.032785,4.6617049999999995 69.823881,4.740729 69.61297,4.813606 69.400361,4.880207 69.186361,4.940408 68.971278,4.9940940000000005 68.75532100000001,5.041175 68.53784300000001,5.081764 68.31769200000001,5.116351 68.09443900000001,5.1454260000000005 67.868087,5.169411 67.63866700000001,5.188739 67.40623400000001,5.203858 67.170855,5.215232 66.932609,5.223344 66.691581,5.228692 66.447859,5.231796 66.20153300000001,5.233188 65.95268899999999,5.233423 65.7,5.233066 65.7,15.233067 84.98318900000001,15.233067 84.935489,14.03763" /><polygon points="95.4111743635582,68.733067 128.3916003635582,68.733067 134.3850823635582,17.311836 133.5589523635582,16.356347 133.0137793635582,15.732967 132.4586173635582,15.112499000000001 131.8906843635582,14.499148 131.3096283635582,13.897969999999999 130.7176703635582,13.310619 130.1159623635582,12.736302 129.5052923635582,12.173855 128.88643336355818,11.62211 128.26015036355818,11.079898 127.6271923635582,10.546047 126.98830136355821,10.019388 126.3442053635582,9.498753 125.6949643635582,8.982457 125.0386123635582,8.469036 124.3724633635582,7.960718 123.6951393635582,7.461457 123.00541236355821,6.975419 122.3019963635582,6.506825 121.5835553635582,6.059975 120.8487353635582,5.639272 120.0961873635582,5.249244 119.3246343635582,4.894572 118.5344893635582,4.580705 117.7309353635582,4.311432 116.9202603635582,4.083127 116.1052293635582,3.8898200000000003 115.2878653635582,3.7254680000000002 114.4700383635582,3.5841570000000003 113.6535403635582,3.4601230000000003 112.8401323635582,3.347752 111.9286903635582,3.2280680000000004 110.9995453635582,3.299048 110.1689983635582,3.367908 109.3351193635582,3.4479750000000005 108.4994283635582,3.544811 107.6634593635582,3.6641200000000005 106.8288053635582,3.811756 105.99718336355821,3.99371 105.1706013635582,4.216062 104.3537703635582,4.483966 103.5528663635582,4.796771 102.7700853635582,5.1491739999999995 102.0046083635582,5.536639 101.2553733635582,5.954819 100.5212713635582,6.399498 99.8011833635582,6.866569 99.0940103635582,7.352013 98.3986923635582,7.851882 97.7142183635582,8.362276000000001 97.0388083635582,8.87997 96.3695383635582,9.40499 95.7063653635582,9.941076 95.05177536355819,10.491021 94.4086353635582,11.057397 93.7798723635582,11.642809 93.1684873635582,12.249875000000001 92.57757736355819,12.881206 92.0103393635582,13.539374 91.4705593635582,14.226277999999999 90.96415436355821,14.938318 90.4898083635582,15.663857 90.0395263635582,16.393141 89.4292113635582,17.410666 95.4111743635582,68.733067" /><polygon points="138.3408709374258,15.482194 138.3707119374258,15.785174 138.47341793742578,16.123749 138.64020293742578,16.435782 138.8646569374258,16.709281 139.13815593742578,16.933735 139.4501889374258,17.10052 139.78876393742578,17.203226 140.0917439374258,17.233067 161.58999793742578,17.233067 161.8929779374258,17.203226 162.2315529374258,17.10052 162.5435859374258,16.933735 162.8170849374258,16.709281 163.0415389374258,16.435782 163.2083239374258,16.123749 163.3110299374258,15.785174 163.3408709374258,15.482194 163.3408709374258,4.9839400000000005 163.3110299374258,4.68096 163.2083239374258,4.342385 163.0415389374258,4.030352 162.8170849374258,3.756853 162.5435859374258,3.532399 162.2315529374258,3.365614 161.8929779374258,3.262908 161.58999793742578,3.233067 140.0917439374258,3.233067 139.78876393742578,3.262908 139.4501889374258,3.365614 139.13815593742578,3.532399 138.8646569374258,3.756853 138.64020293742578,4.030352 138.47341793742578,4.342385 138.3707119374258,4.68096 138.3408709374258,4.9839400000000005 138.3408709374258,15.482194" /><polygon points="3.0,80.882194 3.022155,81.10713700000001 3.1020980000000002,81.370675 3.2319190000000004,81.61355300000001 3.406629,81.82643800000001 3.619514,82.001148 3.8623920000000003,82.13096900000001 4.12593,82.21091200000001 4.350873,82.233067 15.649127,82.233067 15.87407,82.21091200000001 16.137608,82.13096900000001 16.380485999999998,82.001148 16.593370999999998,81.82643800000001 16.768081000000002,81.61355300000001 16.897902000000002,81.370675 16.977845000000002,81.10713700000001 17.0,80.882194 17.0,78.58394000000001 16.977845000000002,78.358997 16.897902000000002,78.095459 16.768081000000002,77.852581 16.593370999999998,77.639696 16.380485999999998,77.46498600000001 16.137608,77.335165 15.87407,77.255222 15.649127,77.233067 4.350873,77.233067 4.12593,77.255222 3.8623920000000003,77.335165 3.619514,77.46498600000001 3.406629,77.639696 3.2319190000000004,77.852581 3.1020980000000002,78.095459 3.022155,78.358997 3.0,78.58394000000001 3.0,80.882194" /><polygon points="22.77951,83.906063 23.271,83.99536 23.762543,84.07956300000001 24.254136,84.158671 24.745777,84.23268200000001 25.237462,84.301595 25.729188999999998,84.365409 26.220955,84.42412200000001 26.712756,84.477734 27.20459,84.52624300000001 27.696454,84.569649 28.188344,84.60795 28.680257,84.641146 29.17219,84.66923600000001 29.66414,84.69221900000001 30.156103,84.71009600000001 30.648077,84.72286500000001 31.140057,84.73052700000001 31.63204,84.73308 32.124023,84.73052700000001 32.616003,84.72286500000001 33.107977,84.71009600000001 33.599940000000004,84.69221900000001 34.09189,84.66923600000001 34.583823,84.641146 35.075736,84.60795 35.567626000000004,84.569649 36.05949,84.52624300000001 36.551324,84.477734 37.043125,84.42412200000001 37.534891,84.365409 38.026618,84.301595 38.518303,84.23268200000001 39.009944000000004,84.158671 39.501537,84.07956300000001 39.99308,83.99536 40.484570000000005,83.906063 40.768919,83.851449 42.820640999999995,87.27098600000001 43.875859,86.872003 42.062767,77.05108600000001 40.588951,77.34945900000001 40.117182,77.440071 39.645468,77.52577400000001 39.173807,77.606571 38.702196,77.682463 38.230633,77.75345200000001 37.759114,77.819539 37.287637000000004,77.88072500000001 36.816199,77.93701200000001 36.344796,77.9884 35.873426,78.034891 35.402086000000004,78.076485 34.930772,78.113184 34.459481,78.14498800000001 33.98821,78.171898 33.516956,78.193915 33.045715,78.211038 32.574484999999996,78.223269 32.103261,78.230607 31.63204,78.23305400000001 31.160819,78.230607 30.689595,78.223269 30.218365,78.211038 29.747124,78.193915 29.27587,78.171898 28.804599,78.14498800000001 28.333308,78.113184 27.861994,78.076485 27.390653999999998,78.034891 26.919284,77.9884 26.447881,77.93701200000001 25.976443,77.88072500000001 25.504966,77.819539 25.033447,77.75345200000001 24.561884,77.682463 24.090273,77.606571 23.618612,77.52577400000001 23.146898,77.440071 22.675129,77.34945900000001 22.0,77.21278000000001 22.0,83.753354 22.288075,83.81167500000001 22.77951,83.906063" /><polygon points="49.3761850023312,82.375769 49.9077200023312,82.446762 50.4392760023312,82.51370100000001 50.9708520023312,82.57658500000001 51.5024480023312,82.63541400000001 52.034062002331204,82.690188 52.5656930023312,82.740907 53.0973400023312,82.787569 53.6290010023312,82.830174 54.1606750023312,82.868723 54.692361002331204,82.903215 55.224058002331205,82.93365 55.755764002331205,82.96002700000001 56.2874780023312,82.982347 56.8191980023312,83.00060900000001 57.3509240023312,83.014812 57.8826540023312,83.024958 58.4143860023312,83.031045 58.9461200023312,83.033074 59.4778540023312,83.031045 60.009586002331204,83.024958 60.5413160023312,83.014812 61.0730420023312,83.00060900000001 61.6047620023312,82.982347 62.1364760023312,82.96002700000001 62.6681820023312,82.93365 63.1998790023312,82.903215 63.7315650023312,82.868723 64.2632390023312,82.830174 64.7949000023312,82.787569 65.3265470023312,82.740907 65.8581780023312,82.690188 66.3897920023312,82.63541400000001 66.9213880023312,82.57658500000001 67.4529640023312,82.51370100000001 67.98452000233121,82.446762 68.5160550023312,82.375769 69.0475660023312,82.300723 70.4281600023312,82.09525500000001 70.4281600023312,77.073227 68.7605500023312,77.32141100000001 68.2438570023312,77.39436500000001 67.7271880023312,77.463372 67.2105400023312,77.528433 66.6939120023312,77.589549 66.1773040023312,77.64672 65.6607140023312,77.69994600000001 65.1441410023312,77.749227 64.6275840023312,77.794565 64.1110410023312,77.83596 63.5945110023312,77.873411 63.0779930023312,77.906919 62.5614860023312,77.93648400000001 62.0449880023312,77.962107 61.528498002331204,77.983787 61.0120140023312,78.001525 60.4955360023312,78.01532200000001 59.979062002331204,78.025176 59.4625900023312,78.03108900000001 58.9461200023312,78.03306 58.4296500023312,78.03108900000001 57.9131780023312,78.025176 57.396704002331205,78.01532200000001 56.8802260023312,78.001525 56.3637420023312,77.983787 55.8472520023312,77.962107 55.330754002331204,77.93648400000001 54.8142470023312,77.906919 54.2977290023312,77.873411 53.7811990023312,77.83596 53.2646560023312,77.794565 52.7480990023312,77.749227 52.2315260023312,77.69994600000001 51.7149360023312,77.64672 51.1983280023312,77.589549 50.6817000023312,77.528433 50.1650520023312,77.463372 49.6483830023312,77.39436500000001 49.131690002331204,77.32141100000001 48.4640800023312,77.222053 48.4640800023312,82.24408100000001 48.8446740023312,82.300723 49.3761850023312,82.375769" /><polygon points="74.4281600046624,147.233067 82.4353800046624,147.233067 82.02933700466241,90.793135 86.2530820046624,78.22749400000001 83.72882100466241,76.96536300000001 83.03270800466241,77.893731 82.83696900466241,78.15534600000001 82.64115400466241,78.41821 82.4455420046624,78.682529 82.25041600466241,78.948513 82.0560600046624,79.216375 81.86276300466241,79.486328 81.6708160046624,79.758584 81.48051500466241,80.03336 81.2921560046624,80.310871 81.1060420046624,80.59133200000001 80.9224790046624,80.87496 80.7417750046624,81.161969 80.56440200466241,81.452314 80.3914630046624,81.74445700000001 80.2232380046624,82.035989 80.05891000466241,82.325658 79.8974350046624,82.61267600000001 79.7378130046624,82.89626600000001 79.5790870046624,83.17566000000001 79.42034400466241,83.450102 79.2607130046624,83.718852 79.09936300466241,83.98119 78.9355010046624,84.23642500000001 78.76836600466241,84.483908 78.59721800466241,84.72304100000001 78.4213210046624,84.95330600000001 78.2390290046624,85.17536700000001 78.0475640046624,85.39220900000001 77.84581000466241,85.606558 77.6344380046624,85.819252 77.41437200466241,86.030951 77.1866020046624,86.242343 76.9521710046624,86.454155 76.75058500466241,86.63306700000001 74.4281600046624,86.63306700000001 74.4281600046624,147.233067" /><polygon points="90.0281600046624,88.50497200000001 97.0281600046624,92.914972 104.0281600046624,88.50497200000001 104.0281600046624,77.233067 90.0281600046624,77.233067 90.0281600046624,88.50497200000001" /></g><g fill="none" id="COSTURA" stroke="#00a000" stroke-width="0.08"><polygon points="4.0,13.633067 5.7,13.633067 5.946137211430921,13.416556070671316 6.1911230351686255,13.199125943868006 6.433806083519894,12.97985742211545 6.673034968791513,12.757831307939018 6.907658303290262,12.53212840386409 7.136524699322925,12.30182951241604 7.358482769196286,12.066015436120248 7.5723811252171265,11.823766977502084 7.777197617466955,11.574267191163548 7.973182834463885,11.317706113979522 8.161311146615965,11.054846434291722 8.342565282091677,10.786457453046896 8.517927969059487,10.513308471191783 8.688381935687879,10.236168789673126 8.854909910145325,9.955807709437675 9.018494620600304,9.67299453143217 9.180118795221286,9.388498556603356 9.340765162176753,9.103089085897977 9.501416449635176,8.817535420262777 9.663055385765034,8.532606860644501 9.826664698734799,8.249072707989892 9.993226961401806,7.967702142964255 10.16345393201771,7.689054612599036 10.337230036760209,7.413048832744115 10.514282265311873,7.139481591821779 10.694337607355273,6.86814967825431 10.877123052572978,6.598849880463993 11.062365590647557,6.331378986873115 11.24979221126158,6.065533785903957 11.439129904097616,5.801111065978808 11.630105658838232,5.53790761551995 11.822446465166006,5.275720222949668 12.015879312763497,5.0143456766902474 12.21013119131328,4.7535807651639725 12.404929090497925,4.493222276793128 12.6,4.233067 24.0564392373896,9.233067 23.84959802771455,9.795334580940363 23.645801650517317,10.356933169710793 23.4480949382757,10.917193774141342 23.25952272346752,11.475447402062086 23.08312983857059,12.031025061303078 22.92196111606271,12.583257759694389 22.779061388421706,13.131476505066075 22.657475488125385,13.675012305248204 22.560248247651558,14.213196168070835 22.49042449947803,14.745359101364034 22.451049076082626,15.270832112957864 22.445166809943142,15.788946210682386 22.4758225335374,16.299032402367665 22.54606107934321,16.80042169584376 22.658927279838384,17.29244509894074 22.817015777873205,17.77451462039634 23.018439554671197,18.246848637281662 23.25874127090857,18.71012799466933 23.533433110351083,19.16503902122656 23.838027256764505,19.61226804562056 24.168035893914595,20.052501396518547 24.518971205567123,20.486425402587745 24.886345375487853,20.91472639249535 25.265670587442546,21.338090694908598 25.652459025196965,21.75720463849469 26.04222287251688,22.172754551920843 26.43047431316805,22.585426763854276 26.813017247128172,22.995882540544653 27.188779993915375,23.40451471781536 27.558586779631288,23.811553247150556 27.923288455857527,24.217225792541026 28.283735874175697,24.62176001797755 28.64077988616742,25.025383587450918 28.9952713434143,25.42832416495193 29.348061097497954,25.830809414471354 29.7,26.233067 29.7,72.233067 4.0,72.233067" /><polygon points="35.7,4.233067 53.94249141613642,4.233067 53.956251337565014,4.5779132703500505 53.997903441584135,5.092716994128569 54.06241306962703,5.603204386473422 54.15168501536235,6.10901575309847 54.267509273000805,6.609806492642356 54.40960019683117,7.105504892464548 54.57586886747531,7.596276320084238 54.76416637745514,8.082294029781549 54.97234381929262,8.563731275836616 55.19825228550965,9.040761312529574 55.4397428686282,9.513557394140543 55.69466666117018,9.98229277494966 55.960874755657535,10.447140709237045 56.236218244612196,10.908274451282841 56.5185482205561,11.365867255367169 56.80571577601117,11.82009237577016 57.095572003499356,12.271123066771947 57.386030449882966,12.719137438993469 57.676130805337365,13.164401169999925 57.965889496115864,13.607255886654121 58.255355331457864,14.048045733863534 58.54457712060278,14.487114856535614 58.83360367279005,14.924807399577839 59.12248379725906,15.36146750789767 59.411266303249235,15.797439326402566 59.7,16.233067 59.7,62.233067 35.7,62.233067" /><polygon points="65.7,6.233067 65.95245430921341,6.233423362819071 66.20483086291523,6.233185589548962 66.45705190559389,6.231759544100493 66.70903968173775,6.228551090384485 66.96071643583525,6.222966092311758 67.21200441237482,6.21441041379313 67.46282585584484,6.2022899187394245 67.71310301073372,6.18601047106146 67.96275812152989,6.1649779346700555 68.21171343272172,6.1385981734760335 68.45989118879767,6.1062770513902125 68.70721363424613,6.067420432323413 68.95360257343721,6.021435816906703 69.19891975774915,5.967954031978914 69.44290645846002,5.907053948065581 69.6852895518145,5.838867968215919 69.9257959140573,5.763528495479149 70.16415242143313,5.681167932904493 70.40008595018666,5.591918683541167 70.63332337656261,5.495913150438394 70.86359157680567,5.393283736645391 71.09061742716054,5.28416284521138 71.31412780387191,5.168682879185578 71.53389863733646,5.047021848373325 71.75020863974197,4.919825210198594 71.96363149198662,4.7880126611761415 72.17474462410257,4.652507383475511 72.384125466122,4.514232559266247 72.5923514480771,4.3741113707178965 72.8,4.233067 84.46190378969061,8.733067 84.37783951157896,9.271610546663693 84.29568002713596,9.809794399041248 84.21733013003025,10.347258862846523 84.14469461393048,10.88364424379338 84.07967827250532,11.418590847595684 84.02418589942339,11.951738979967294 83.98012228835334,12.48272894662207 83.94939223296385,13.01120105327387 83.93390052692352,13.536795605636561 83.93555196390102,14.059152909424 83.94249141613642,14.233067 65.7,14.233067" /><polygon points="90.46190378969061,17.633067 90.89378524087627,16.913028132253025 91.33388668330429,16.200233517341715 91.79042810821704,15.501927408101716 92.2716166434883,14.825342806356057 92.78262282896998,14.175056746329174 93.32168345115713,13.549581618599504 93.88607201144082,12.946587271390067 94.47306201121212,12.363743552923884 95.07992695186212,11.798720311423963 95.70394033478186,11.249187395113328 96.34237566136244,10.712814652214997 96.99250643299493,10.187271930951987 97.65160615107038,9.670229079547312 98.31730497086654,9.159979071480333 98.98948619798318,8.658751455505543 99.66891053951414,8.170308726046493 100.35634068016668,7.698416832699744 101.05253930464808,7.246841725061854 101.75826909766563,6.819349352729387 102.47429274392661,6.4197056652989 103.2013729281383,6.051676612366958 103.94027233500796,5.71902814353012 104.69175364924288,5.425526208384946 105.45651695755141,5.1746988445984154 106.23406844767693,4.96553651976649 107.02284286205258,4.792957532637413 107.82123692578548,4.651735692110778 108.62764736398277,4.53664480708618 109.44047090175155,4.44245868646321 110.25810426419898,4.363951139141461 111.07894417643215,4.295895974020527 111.9013873635582,4.233067 112.7066089046693,4.3388036316569725 113.51001639788102,4.449792882251043 114.309795795294,4.571287370719313 115.10413304900885,4.708539715998881 115.89121411112622,4.866802537026847 116.6692249337467,5.051328452740309 117.43635146897097,5.267370082076368 118.1907796688996,5.520180043972122 118.93094133059253,5.814192556327891 119.65703323397095,6.147966329944616 120.37002334330269,6.517492855735242 121.07088285411714,6.918752867964261 121.76058296194365,7.347727100896165 122.44009486231161,7.800396288795448 123.1103897507504,8.272741165926602 123.77243882278938,8.760742466554118 124.42721327395793,9.26038092494249 125.07568429978542,9.76763727535621 125.71867150062872,10.278959703169244 126.35593266824235,10.794070532377026 126.98677168014592,11.31409175366086 127.61049070394778,11.8401506302969 128.22639190725624,12.373374425561304 128.83377745767964,12.91489040273022 129.4319495228263,13.465825825079806 130.0202102703046,14.02730795588621 130.5978618677228,14.600464058425592 131.16420648268928,15.186421395974106 131.71906857181514,15.785656404804424 132.26476272651945,16.395542551441384 132.80434484182285,17.012529560192228 133.3408709374258,17.633067 127.5013873635582,67.733067 96.3013873635582,67.733067" /><polygon points="139.3408709374258,5.033067 139.3562427131032,4.876994742387097 139.40176731141676,4.726920254107928 139.47569524758376,4.588610813584318 139.57518551247657,4.467381575050762 139.6964147510101,4.3678913101579635 139.83472419153372,4.293963373990971 139.98479867981288,4.248438775677416 140.1408709374258,4.233067 161.54087093742578,4.233067 161.6969431950387,4.248438775677416 161.84701768331786,4.29396337399097 161.98532712384147,4.3678913101579635 162.10655636237502,4.467381575050762 162.20604662726782,4.588610813584318 162.27997456343482,4.726920254107928 162.32549916174838,4.876994742387097 162.3408709374258,5.033067 162.3408709374258,15.433067 162.32549916174838,15.589139257612903 162.27997456343482,15.739213745892071 162.20604662726782,15.877523186415681 162.10655636237502,15.998752424949238 161.98532712384147,16.098242689842035 161.84701768331786,16.172170626009027 161.6969431950387,16.217695224322583 161.54087093742578,16.233067 140.1408709374258,16.233067 139.98479867981288,16.217695224322583 139.83472419153372,16.172170626009027 139.6964147510101,16.09824268984204 139.57518551247657,15.998752424949238 139.47569524758376,15.877523186415681 139.40176731141676,15.739213745892071 139.3562427131032,15.589139257612903 139.3408709374258,15.433067" /><polygon points="4.0,78.63306700000001 4.007685887838708,78.55503087119355 4.030448186995486,78.47999362705397 4.067412155078982,78.41083890679216 4.117157287525381,78.35022428752539 4.1777719067921595,78.30047915507899 4.2469266270539645,78.26351518699549 4.321963871193549,78.24075288783871 4.4,78.233067 15.6,78.233067 15.67803612880645,78.24075288783871 15.753073372946035,78.26351518699549 15.82222809320784,78.30047915507899 15.882842712474618,78.35022428752539 15.932587844921018,78.41083890679216 15.969551813004514,78.47999362705397 15.992314112161292,78.55503087119355 16.0,78.63306700000001 16.0,80.833067 15.992314112161292,80.91110312880646 15.969551813004514,80.98614037294604 15.932587844921018,81.05529509320785 15.882842712474618,81.11590971247462 15.82222809320784,81.16565484492102 15.753073372946035,81.20261881300452 15.67803612880645,81.2253811121613 15.6,81.233067 4.4,81.233067 4.3219638711935495,81.2253811121613 4.2469266270539645,81.20261881300452 4.1777719067921595,81.16565484492102 4.117157287525381,81.11590971247462 4.067412155078982,81.05529509320785 4.030448186995486,80.98614037294604 4.007685887838708,80.91110312880646 4.0,80.833067" /><polygon points="22.0,78.233067 22.48160200005828,78.330567 22.963204000116562,78.423067 23.44480600017484,78.51056700000001 23.92640800023312,78.593067 24.4080100002914,78.670567 24.88961200034968,78.74306700000001 25.37121400040796,78.810567 25.85281600046624,78.873067 26.334418000524522,78.93056700000001 26.816020000582803,78.983067 27.29762200064108,79.030567 27.77922400069936,79.07306700000001 28.260826000757643,79.110567 28.74242800081592,79.143067 29.2240300008742,79.170567 29.705632000932482,79.193067 30.187234000990763,79.21056700000001 30.668836001049044,79.223067 31.15043800110732,79.23056700000001 31.632040001165603,79.233067 32.11364200122388,79.23056700000001 32.59524400128216,79.223067 33.07684600134044,79.21056700000001 33.55844800139872,79.193067 34.040050001457004,79.170567 34.521652001515285,79.143067 35.003254001573566,79.110567 35.48485600163185,79.07306700000001 35.96645800169012,79.030567 36.4480600017484,78.983067 36.92966200180668,78.93056700000001 37.411264001864964,78.873067 37.892866001923245,78.810567 38.374468001981526,78.74306700000001 38.8560700020398,78.670567 39.33767200209809,78.593067 39.81927400215636,78.51056700000001 40.30087600221464,78.423067 40.782478002272924,78.330567 41.264080002331205,78.233067 42.4640800023312,84.733067 41.264080002331205,82.733067 40.782478002272924,82.830567 40.30087600221464,82.923067 39.81927400215636,83.01056700000001 39.33767200209809,83.093067 38.8560700020398,83.170567 38.374468001981526,83.24306700000001 37.892866001923245,83.310567 37.411264001864964,83.373067 36.92966200180668,83.43056700000001 36.4480600017484,83.483067 35.96645800169012,83.530567 35.48485600163185,83.57306700000001 35.003254001573566,83.610567 34.521652001515285,83.643067 34.040050001457004,83.670567 33.55844800139872,83.693067 33.07684600134044,83.71056700000001 32.59524400128216,83.723067 32.11364200122388,83.73056700000001 31.632040001165603,83.733067 31.15043800110732,83.73056700000001 30.668836001049044,83.723067 30.187234000990763,83.71056700000001 29.705632000932482,83.693067 29.2240300008742,83.670567 28.74242800081592,83.643067 28.260826000757643,83.610567 27.77922400069936,83.57306700000001 27.29762200064108,83.530567 26.816020000582803,83.483067 26.334418000524522,83.43056700000001 25.85281600046624,83.373067 25.37121400040796,83.310567 24.88961200034968,83.24306700000001 24.4080100002914,83.170567 23.92640800023312,83.093067 23.44480600017484,83.01056700000001 22.963204000116562,82.923067 22.48160200005828,82.830567 22.0,82.733067" /><polygon points="48.4640800023312,78.233067 48.98818200238948,78.31106700000001 49.512284002447764,78.385067 50.03638600250604,78.455067 50.56048800256432,78.521067 51.084590002622605,78.583067 51.60869200268088,78.641067 52.13279400273916,78.69506700000001 52.65689600279744,78.745067 53.18099800285572,78.79106700000001 53.705100002914,78.833067 54.229202002972286,78.87106700000001 54.753304003030564,78.905067 55.27740600308884,78.935067 55.80150800314712,78.961067 56.325610003205405,78.983067 56.84971200326368,79.001067 57.37381400332196,79.015067 57.897916003380246,79.025067 58.422018003438524,79.03106700000001 58.9461200034968,79.033067 59.47022200355509,79.03106700000001 59.994324003613364,79.025067 60.51842600367164,79.015067 61.04252800372993,79.001067 61.566630003788205,78.983067 62.09073200384648,78.961067 62.61483400390476,78.935067 63.13893600396304,78.905067 63.663038004021324,78.87106700000001 64.18714000407961,78.833067 64.71124200413789,78.79106700000001 65.23534400419616,78.745067 65.75944600425444,78.69506700000001 66.28354800431272,78.641067 66.807650004371,78.583067 67.33175200442929,78.521067 67.85585400448757,78.455067 68.37995600454585,78.385067 68.90405800460412,78.31106700000001 69.4281600046624,78.233067 69.4281600046624,81.233067 68.90405800460412,81.31106700000001 68.37995600454585,81.385067 67.85585400448757,81.455067 67.33175200442929,81.521067 66.807650004371,81.583067 66.28354800431272,81.641067 65.75944600425444,81.69506700000001 65.23534400419616,81.745067 64.71124200413789,81.791067 64.18714000407961,81.833067 63.663038004021324,81.87106700000001 63.13893600396304,81.905067 62.61483400390476,81.935067 62.09073200384648,81.961067 61.566630003788205,81.983067 61.04252800372993,82.001067 60.51842600367164,82.015067 59.994324003613364,82.025067 59.47022200355509,82.03106700000001 58.9461200034968,82.033067 58.422018003438524,82.03106700000001 57.897916003380246,82.025067 57.37381400332196,82.015067 56.84971200326368,82.001067 56.325610003205405,81.983067 55.80150800314712,81.961067 55.27740600308884,81.935067 54.753304003030564,81.905067 54.229202002972286,81.87106700000001 53.705100002914,81.833067 53.18099800285572,81.791067 52.65689600279744,81.745067 52.13279400273916,81.69506700000001 51.60869200268088,81.641067 51.084590002622605,81.583067 50.56048800256432,81.521067 50.03638600250604,81.455067 49.512284002447764,81.385067 48.98818200238948,81.31106700000001 48.4640800023312,81.233067" /><polygon points="75.4281600046624,87.63306700000001 77.1281600046624,87.63306700000001 77.37429721609332,87.41655607067132 77.61928303983103,87.19912594386801 77.8619660881823,86.97985742211546 78.10119497345391,86.75783130793903 78.33581830795266,86.53212840386409 78.56468470398534,86.30182951241605 78.78664277385869,86.06601543612025 79.00054112987954,85.82376697750209 79.20535762212936,85.57426719116356 79.40134283912629,85.31770611397953 79.58947115127837,85.05484643429173 79.77072528675409,84.7864574530469 79.94608797372189,84.51330847119179 80.11654194035029,84.23616878967313 80.28306991480773,83.95580770943768 80.44665462526271,83.67299453143218 80.60827879988369,83.38849855660337 80.76892516683915,83.10308908589798 80.92957645429757,82.81753542026279 81.09121539042744,82.5326068606445 81.2548247033972,82.2490727079899 81.4213869660642,81.96770214296426 81.59161393668012,81.68905461259904 81.76539004142262,81.41304883274412 81.94244226997428,81.13948159182178 82.12249761201768,80.86814967825431 82.30528305723539,80.598849880464 82.49052559530996,80.33137898687312 82.67795221592398,80.06553378590397 82.86728990876001,79.80111106597882 83.05826566350063,79.53790761551996 83.25060646982841,79.27572022294967 83.4440393174259,79.01434567669025 83.63829119597568,78.75358076516397 83.83308909516033,78.49322227679313 84.02816000466241,78.233067 85.02816000466241,78.733067 81.02816000466241,90.63306700000001 81.4281600046624,146.233067 75.4281600046624,146.233067" /><polygon points="91.0281600046624,78.233067 103.0281600046624,78.233067 103.0281600046624,87.953067 97.0281600046624,91.733067 91.0281600046624,87.953067" /></g><g fill="none" id="PIQUETES" stroke="#00b0b0" stroke-width="0.08"><line x1="22.219447036030218" x2="22.314884637551796" y1="15.864065785149357" y2="16.50319931127344" /><line x1="22.686556392397613" x2="22.314884637551796" y1="15.974559446479052" y2="16.50319931127344" /><line x1="29.788209776987614" x2="29.141995546367482" y1="46.709865218546994" y2="46.712542557530966" /><line x1="29.611790223012385" x2="29.141995546367482" y1="47.15626878145301" y2="46.712542557530966" /><line x1="44.582135899574205" x2="44.872875367782875" y1="4.253718863885864" y2="4.830841521235012" /><line x1="45.06035551656222" x2="44.872875367782875" y1="4.212415136114135" y2="4.830841521235012" /><line x1="75.06032306347002" x2="74.76868513978756" y1="14.21204277268774" y2="13.63537361149548" /><line x1="74.58216835266641" x2="74.76868513978756" y1="14.25409122731226" y2="13.63537361149548" /><line x1="119.76189273571894" x2="119.81115310261487" y1="10.285730433411377" y2="10.930069952805678" /><line x1="120.21985388478974" x2="119.81115310261487" y1="10.429506599522956" y2="10.930069952805678" /><line x1="103.18674000236719" x2="103.59800364532613" y1="10.120420470309227" y2="10.618880314208546" /><line x1="103.64395745138988" x2="103.59800364532613" y1="9.974296535551144" y2="10.618880314208546" /><line x1="101.86127122448083" x2="102.29993666128738" y1="11.008334150991127" y2="11.482857737919447" /><line x1="102.3095400256194" x2="102.29993666128738" y1="10.836709322001319" y2="11.482857737919447" /></g><g fill="none" id="TEXTOS" stroke="#000000" stroke-width="0.08"><text fill="#000000" font-family="sans-serif" font-size="0.9" stroke="none" text-anchor="middle" x="16.36351766557047" y="38.96246331188846">DELANTERO</text><text fill="#000000" font-family="sans-serif" font-size="0.6" stroke="none" text-anchor="middle" x="16.36351766557047" y="40.36246331188846">Pieza N.01</text><text fill="#000000" font-family="sans-serif" font-size="0.6" stroke="none" text-anchor="middle" x="16.36351766557047" y="41.76246331188846">Talla: S</text><text fill="#000000" font-family="sans-serif" font-size="0.6" stroke="none" text-anchor="middle" x="16.36351766557047" y="43.162463311888466">Cortar: 2  (par: izq + der)</text><text fill="#000000" font-family="sans-serif" font-size="0.9" stroke="none" text-anchor="middle" x="47.39306647024231" y="30.409922654431575">ESPALDA</text><text fill="#000000" font-family="sans-serif" font-size="0.6" stroke="none" text-anchor="middle" x="47.39306647024231" y="31.809922654431574">Pieza N.02</text><text fill="#000000" font-family="sans-serif" font-size="0.6" stroke="none" text-anchor="middle" x="47.39306647024231" y="33.20992265443157">Talla: S</text><text fill="#000000" font-family="sans-serif" font-size="0.6" stroke="none" text-anchor="middle" x="47.39306647024231" y="34.60992265443158">Cortar: 1  (al doblez)</text><text fill="#000000" font-family="sans-serif" font-size="0.6" stroke="none" text-anchor="middle" x="47.39306647024231" y="36.00992265443158">AL DOBLEZ</text><text fill="#000000" font-family="sans-serif" font-size="0.9" stroke="none" text-anchor="middle" x="74.4579030326492" y="6.501309639616992">CANESU</text><text fill="#000000" font-family="sans-serif" font-size="0.6" stroke="none" text-anchor="middle" x="74.4579030326492" y="7.901309639616993">Pieza N.03</text><text fill="#000000" font-family="sans-serif" font-size="0.6" stroke="none" text-anchor="middle" x="74.4579030326492" y="9.301309639616992">Talla: S</text><text fill="#000000" font-family="sans-serif" font-size="0.6" stroke="none" text-anchor="middle" x="74.4579030326492" y="10.701309639616992">Cortar: 2  (al doblez x2 (exterior+interior))</text><text fill="#000000" font-family="sans-serif" font-size="0.6" stroke="none" text-anchor="middle" x="74.4579030326492" y="12.101309639616993">AL DOBLEZ</text><text fill="#000000" font-family="sans-serif" font-size="0.9" stroke="none" text-anchor="middle" x="111.82610102071305" y="33.66435246093779">MANGA (abullonada)</text><text fill="#000000" font-family="sans-serif" font-size="0.6" stroke="none" text-anchor="middle" x="111.82610102071305" y="35.06435246093779">Pieza N.04</text><text fill="#000000" font-family="sans-serif" font-size="0.6" stroke="none" text-anchor="middle" x="111.82610102071305" y="36.46435246093779">Talla: S</text><text fill="#000000" font-family="sans-serif" font-size="0.6" stroke="none" text-anchor="middle" x="111.82610102071305" y="37.86435246093779">Cortar: 2  (par: izq + der)</text><text fill="#000000" font-family="sans-serif" font-size="0.9" stroke="none" text-anchor="middle" x="150.8408709374258" y="7.5330670000000035">PUNO</text><text fill="#000000" font-family="sans-serif" font-size="0.6" stroke="none" text-anchor="middle" x="150.8408709374258" y="8.933067000000003">Pieza N.05</text><text fill="#000000" font-family="sans-serif" font-size="0.6" stroke="none" text-anchor="middle" x="150.8408709374258" y="10.333067000000003">Talla: S</text><text fill="#000000" font-family="sans-serif" font-size="0.6" stroke="none" text-anchor="middle" x="150.8408709374258" y="11.733067000000002">Cortar: 4  (4 (2 tela + 2 entretela))</text><text fill="#000000" font-family="sans-serif" font-size="0.9" stroke="none" text-anchor="middle" x="9.999999999999996" y="77.033067">TAPETA MANGA</text><text fill="#000000" font-family="sans-serif" font-size="0.6" stroke="none" text-anchor="middle" x="9.999999999999996" y="78.43306700000001">Pieza N.06</text><text fill="#000000" font-family="sans-serif" font-size="0.6" stroke="none" text-anchor="middle" x="9.999999999999996" y="79.833067">Talla: S</text><text fill="#000000" font-family="sans-serif" font-size="0.6" stroke="none" text-anchor="middle" x="9.999999999999996" y="81.233067">Cortar: 2  (par)</text><text fill="#000000" font-family="sans-serif" font-size="0.9" stroke="none" text-anchor="middle" x="31.935060528670164" y="77.57198354181554">CUELLO</text><text fill="#000000" font-family="sans-serif" font-size="0.6" stroke="none" text-anchor="middle" x="31.935060528670164" y="78.97198354181555">Pieza N.07</text><text fill="#000000" font-family="sans-serif" font-size="0.6" stroke="none" text-anchor="middle" x="31.935060528670164" y="80.37198354181554">Talla: S</text><text fill="#000000" font-family="sans-serif" font-size="0.6" stroke="none" text-anchor="middle" x="31.935060528670164" y="81.77198354181554">Cortar: 2  (al doblez x2 (+ entretela))</text><text fill="#000000" font-family="sans-serif" font-size="0.6" stroke="none" text-anchor="middle" x="31.935060528670164" y="83.17198354181554">AL DOBLEZ</text><text fill="#000000" font-family="sans-serif" font-size="0.9" stroke="none" text-anchor="middle" x="58.94612000349681" y="76.66606700000001">PIE DE CUELLO</text><text fill="#000000" font-family="sans-serif" font-size="0.6" stroke="none" text-anchor="middle" x="58.94612000349681" y="78.066067">Pieza N.08</text><text fill="#000000" font-family="sans-serif" font-size="0.6" stroke="none" text-anchor="middle" x="58.94612000349681" y="79.46606700000001">Talla: S</text><text fill="#000000" font-family="sans-serif" font-size="0.6" stroke="none" text-anchor="middle" x="58.94612000349681" y="80.866067">Cortar: 2  (al doblez x2 (+ entretela))</text><text fill="#000000" font-family="sans-serif" font-size="0.6" stroke="none" text-anchor="middle" x="58.94612000349681" y="82.266067">AL DOBLEZ</text><text fill="#000000" font-family="sans-serif" font-size="0.9" stroke="none" text-anchor="middle" x="78.57837287091488" y="112.0976551491815">VISTA DELANTERA</text><text fill="#000000" font-family="sans-serif" font-size="0.6" stroke="none" text-anchor="middle" x="78.57837287091488" y="113.4976551491815">Pieza N.09</text><text fill="#000000" font-family="sans-serif" font-size="0.6" stroke="none" text-anchor="middle" x="78.57837287091488" y="114.8976551491815">Talla: S</text><text fill="#000000" font-family="sans-serif" font-size="0.6" stroke="none" text-anchor="middle" x="78.57837287091488" y="116.29765514918151">Cortar: 2  (par: izq + der)</text><text fill="#000000" font-family="sans-serif" font-size="0.9" stroke="none" text-anchor="middle" x="97.0281600046624" y="81.38934606976744">BOLSILLO</text><text fill="#000000" font-family="sans-serif" font-size="0.6" stroke="none" text-anchor="middle" x="97.0281600046624" y="82.78934606976745">Pieza N.10</text><text fill="#000000" font-family="sans-serif" font-size="0.6" stroke="none" text-anchor="middle" x="97.0281600046624" y="84.18934606976745">Talla: S</text><text fill="#000000" font-family="sans-serif" font-size="0.6" stroke="none" text-anchor="middle" x="97.0281600046624" y="85.58934606976744">Cortar: 1  (1 (opcional))</text></g><g fill="none" id="CENTROS" stroke="#0050ff" stroke-width="0.08"><circle cx="18.9" cy="29.233067" fill="#0050ff" r="0.15" /><circle cx="116.02436497391736" cy="55.733067" fill="#0050ff" r="0.15" /></g><g fill="none" id="HILO" stroke="#c0a000" stroke-width="0.08"><line x1="17.7" x2="17.7" y1="16.633067" y2="69.233067" /><line x1="17.7" x2="18.167302010770378" y1="69.233067" y2="68.12779380719654" /><line x1="17.7" x2="17.232697989229617" y1="69.233067" y2="68.12779380719654" /><line x1="17.7" x2="17.23269798922962" y1="16.633067" y2="17.738340192803463" /><line x1="17.7" x2="18.167302010770378" y1="16.633067" y2="17.738340192803463" /><line x1="36.2" x2="36.2" y1="7.233067" y2="59.233067" /><line x1="36.2" x2="36.66730201077038" y1="59.233067" y2="58.12779380719654" /><line x1="36.2" x2="35.73269798922962" y1="59.233067" y2="58.12779380719654" /><line x1="36.2" x2="35.73269798922962" y1="7.233067" y2="8.338340192803463" /><line x1="36.2" x2="36.66730201077038" y1="7.233067" y2="8.338340192803463" /><line x1="69.96000000000001" x2="69.96000000000001" y1="5.233067" y2="13.733067" /><line x1="69.96000000000001" x2="70.42730201077039" y1="13.733067" y2="12.627793807196538" /><line x1="69.96000000000001" x2="69.49269798922963" y1="13.733067" y2="12.627793807196538" /><line x1="69.96000000000001" x2="69.49269798922963" y1="5.233067" y2="6.338340192803462" /><line x1="69.96000000000001" x2="70.42730201077038" y1="5.233067" y2="6.338340192803462" /><line x1="111.9013873635582" x2="111.9013873635582" y1="11.693067000000001" y2="65.733067" /><line x1="111.9013873635582" x2="112.36868937432858" y1="65.733067" y2="64.62779380719654" /><line x1="111.9013873635582" x2="111.43408535278782" y1="65.733067" y2="64.62779380719654" /><line x1="111.9013873635582" x2="111.43408535278782" y1="11.693067000000001" y2="12.798340192803463" /><line x1="111.9013873635582" x2="112.36868937432858" y1="11.693067000000001" y2="12.798340192803463" /><line x1="150.8408709374258" x2="150.8408709374258" y1="4.733067" y2="15.733067" /><line x1="150.8408709374258" x2="151.30817294819616" y1="15.733067" y2="14.627793807196538" /><line x1="150.8408709374258" x2="150.37356892665542" y1="15.733067" y2="14.627793807196538" /><line x1="150.8408709374258" x2="150.37356892665542" y1="4.733067" y2="5.838340192803462" /><line x1="150.8408709374258" x2="151.30817294819616" y1="4.733067" y2="5.838340192803462" /><line x1="10.0" x2="10.0" y1="78.63306700000001" y2="80.833067" /><line x1="10.0" x2="10.467302010770382" y1="80.833067" y2="79.72779380719655" /><line x1="10.0" x2="9.532697989229618" y1="80.833067" y2="79.72779380719655" /><line x1="10.0" x2="9.53269798922962" y1="78.63306700000001" y2="79.73834019280346" /><line x1="10.0" x2="10.46730201077038" y1="78.63306700000001" y2="79.73834019280346" /><line x1="22.5" x2="40.764080002331205" y1="78.733067" y2="78.733067" /><line x1="40.764080002331205" x2="39.658806809527746" y1="78.733067" y2="78.26576498922962" /><line x1="40.764080002331205" x2="39.658806809527746" y1="78.733067" y2="79.20036901077039" /><line x1="22.5" x2="23.605273192803462" y1="78.733067" y2="79.20036901077039" /><line x1="22.5" x2="23.605273192803462" y1="78.733067" y2="78.26576498922962" /><line x1="48.9640800023312" x2="68.9281600046624" y1="78.63306700000001" y2="78.63306700000001" /><line x1="68.9281600046624" x2="67.82288681185895" y1="78.63306700000001" y2="78.16576498922963" /><line x1="68.9281600046624" x2="67.82288681185895" y1="78.63306700000001" y2="79.10036901077038" /><line x1="48.9640800023312" x2="50.06935319513466" y1="78.63306700000001" y2="79.10036901077038" /><line x1="48.9640800023312" x2="50.06935319513466" y1="78.63306700000001" y2="78.16576498922963" /><line x1="78.4281600046624" x2="78.4281600046624" y1="92.63306700000001" y2="143.233067" /><line x1="78.4281600046624" x2="78.89546201543278" y1="143.233067" y2="142.12779380719655" /><line x1="78.4281600046624" x2="77.96085799389202" y1="143.233067" y2="142.12779380719655" /><line x1="78.4281600046624" x2="77.96085799389202" y1="92.63306700000001" y2="93.73834019280346" /><line x1="78.4281600046624" x2="78.89546201543278" y1="92.63306700000001" y2="93.73834019280346" /><line x1="97.0281600046624" x2="97.0281600046624" y1="79.233067" y2="87.953067" /><line x1="97.0281600046624" x2="97.49546201543278" y1="87.953067" y2="86.84779380719654" /><line x1="97.0281600046624" x2="96.56085799389201" y1="87.953067" y2="86.84779380719654" /><line x1="97.0281600046624" x2="96.56085799389201" y1="79.233067" y2="80.33834019280347" /><line x1="97.0281600046624" x2="97.49546201543278" y1="79.233067" y2="80.33834019280347" /></g><g fill="none" id="DOBLEZ" stroke="#c000c0" stroke-width="0.08"><line x1="35.7" x2="35.7" y1="4.233067" y2="62.233067" /><line x1="65.7" x2="65.7" y1="4.233067" y2="14.233067" /><line x1="22.0" x2="22.0" y1="78.233067" y2="84.733067" /><line x1="48.4640800023312" x2="48.4640800023312" y1="78.233067" y2="82.033067" /></g><g fill="none" id="BOTONES" stroke="#ff8000" stroke-width="0.08"><circle cx="5.7" cy="15.133067" fill="#ff8000" r="0.55" /><circle cx="5.7" cy="23.649733666666666" fill="#ff8000" r="0.55" /><circle cx="5.7" cy="32.166400333333335" fill="#ff8000" r="0.55" /><circle cx="5.7" cy="40.683067" fill="#ff8000" r="0.55" /><circle cx="5.7" cy="49.19973366666667" fill="#ff8000" r="0.55" /><circle cx="5.7" cy="57.71640033333333" fill="#ff8000" r="0.55" /><circle cx="5.7" cy="66.233067" fill="#ff8000" r="0.55" /><circle cx="140.54087093742578" cy="10.233067" fill="#ff8000" r="0.55" /><circle cx="68.4281600046624" cy="79.733067" fill="#ff8000" r="0.55" /></g><g fill="none" id="OJAL" stroke="#ff40a0" stroke-width="0.08"><line x1="4.9" x2="6.5" y1="15.133067" y2="15.133067" /><line x1="4.9" x2="6.5" y1="23.649733666666666" y2="23.649733666666666" /><line x1="4.9" x2="6.5" y1="32.166400333333335" y2="32.166400333333335" /><line x1="4.9" x2="6.5" y1="40.683067" y2="40.683067" /><line x1="4.9" x2="6.5" y1="49.19973366666667" y2="49.19973366666667" /><line x1="4.9" x2="6.5" y1="57.71640033333333" y2="57.71640033333333" /><line x1="4.9" x2="6.5" y1="66.233067" y2="66.233067" /><line x1="161.1408709374258" x2="161.1408709374258" y1="9.433067000000001" y2="11.033066999999999" /></g><g fill="none" id="REFERENCIAS" stroke="#b0b0b0" stroke-width="0.08"><text fill="#000000" font-family="sans-serif" font-size="0.5" stroke="none" text-anchor="start" x="5.7" y="12.633067">CF</text><text fill="#000000" font-family="sans-serif" font-size="0.5" stroke="none" text-anchor="start" x="36.0" y="33.233067">CB</text><text fill="#000000" font-family="sans-serif" font-size="0.5" stroke="none" text-anchor="start" x="111.9013873635582" y="12.683067">fruncir cabeza</text><text fill="#000000" font-family="sans-serif" font-size="0.5" stroke="none" text-anchor="start" x="150.8408709374258" y="9.433067000000001">DOBLEZ</text><text fill="#000000" font-family="sans-serif" font-size="0.5" stroke="none" text-anchor="start" x="97.0281600046624" y="79.733067">boca</text></g></svg>