<?xml version="1.0" encoding="utf-8" ?>
<svg baseProfile="full" height="234.479869cm" version="1.1" viewBox="0 0 118.0 234.479869" width="118.0cm" xmlns="http://www.w3.org/2000/svg" xmlns:ev="http://www.w3.org/2001/xml-events" xmlns:xlink="http://www.w3.org/1999/xlink"><defs /><rect fill="#f7f3ea" height="226.479869" stroke="#333" stroke-width="0.15" width="110.0" x="4.0" y="4.0" /><text fill="#000" font-family="sans-serif" font-size="1.4" x="4.0" y="3.0">PLANO DE CORTE — ancho 110 cm — largo 2.26 m</text><polygon fill="#cfe3f7" fill-opacity="0.5" points="4.0,74.258659 12.003604,74.258659 11.800589,17.820479 16.024922,5.253086 13.51875,4.0 12.813661,4.894625 12.612328999999999,5.150635 12.410888,5.407906 12.209615,5.666655 12.008791,5.927099999999999 11.808698,6.189463 11.609625000000001,6.453964 11.411859,6.720829 11.215695,6.99028 11.021428,7.262543 10.829358,7.537844 10.639791,7.816407 10.453034,8.098457 10.269574,8.383943 10.090569,8.671303 9.916335,8.958108 9.746062,9.243095 9.578716,9.525443 9.413305000000001,9.804344 9.248885,10.079 9.084552,10.348626 8.919448,10.612455 8.752755,10.86974 8.583692,11.119768 8.41151,11.361868999999999 8.235482000000001,11.595426 8.054869,11.819915 7.867871,12.036133 7.671651000000001,12.247112 7.465174,12.455421 7.249131,12.66186 7.024428,12.867106 6.7920370000000005,13.071866 6.552981,13.276890999999999 6.182798,13.588716 6.1399420000000005,13.658659 4.0,13.658659 4.0,74.258659" stroke="#1f6fb2" stroke-width="0.1" /><text fill="#0a3d62" font-family="sans-serif" font-size="1.6" text-anchor="middle" x="10.012461" y="39.1293295">09</text><polygon fill="#cfe3f7" fill-opacity="0.5" points="17.024922,74.258659 25.028526,74.258659 24.825511,17.820479 29.049844,5.253086 26.543672,4.0 25.838583,4.894625 25.637251,5.150635 25.43581,5.407906 25.234537,5.666655 25.033713,5.927099999999999 24.83362,6.189463 24.634547,6.453964 24.436781,6.720829 24.240617,6.99028 24.04635,7.262543 23.85428,7.537844 23.664713,7.816407 23.477956,8.098457 23.294496000000002,8.383943 23.115491,8.671303 22.941257,8.958108 22.770984,9.243095 22.603638,9.525443 22.438227,9.804344 22.273806999999998,10.079 22.109474,10.348626 21.94437,10.612455 21.777677,10.86974 21.608614,11.119768 21.436432,11.361868999999999 21.260404,11.595426 21.079791,11.819915 20.892793,12.036133 20.696573,12.247112 20.490096,12.455421 20.274053000000002,12.66186 20.04935,12.867106 19.816959,13.071866 19.577903,13.276890999999999 19.207720000000002,13.588716 19.164864,13.658659 17.024922,13.658659 17.024922,74.258659" stroke="#1f6fb2" stroke-width="0.1" /><text fill="#0a3d62" font-family="sans-serif" font-size="1.6" text-anchor="middle" x="23.037383" y="39.1293295">09</text><polygon fill="#cfe3f7" fill-opacity="0.5" points="30.049844,74.253419 57.749843999999996,74.253419 57.749843999999996,27.960153000000002 57.306765,27.269701 57.021659,26.82593 56.735303,26.381230000000002 56.447423,25.935689 56.157607,25.489177 55.865441000000004,25.041566 55.570514,24.59273 55.272414,24.142545000000002 54.970809,23.691007000000003 54.666368,23.239314 54.361996,22.789072 54.060832,22.340595 53.765519999999995,21.893542 53.47867,21.447643 53.202861999999996,21.002702 52.940632,20.558593 52.694448,20.115251 52.466693,19.672654 52.259637,19.230803 52.075412,18.789682 51.915987,18.349201 51.783141,17.909043 51.677912,17.466450000000002 51.599255,17.016318000000002 51.545052999999996,16.555929 51.513701999999995,16.085232 51.503586999999996,15.604520999999998 51.51302,15.114260000000002 51.540222,14.615027000000001 51.583315,14.10747 51.640331,13.592267 51.709215,13.070103 51.787842,12.541644999999999 51.874024,12.007532000000001 51.965519,11.468366 52.188547,10.185535 39.564463,4.0 38.863505,4.889385 38.662172999999996,5.145395000000001 38.460732,5.402666 38.259459,5.661415 38.058635,5.921860000000001 37.858542,6.184223 37.659469,6.448724 37.461703,6.715589 37.265539000000004,6.98504 37.071272,7.257303 36.879202,7.532604 36.689635,7.811167 36.502878,8.093217 36.319418,8.378703 36.140413,8.666063 35.966179,8.952868 35.795906,9.237855 35.62856,9.520203 35.463149,9.799104 35.298729,10.07376 35.134396,10.343385999999999 34.969292,10.607215 34.802599,10.8645 34.633536,11.114528 34.461354,11.356629 34.285326,11.590186 34.104713000000004,11.814675000000001 33.917715,12.030892999999999 33.721495,12.241872 33.515018,12.450181 33.298975,12.65662 33.074272,12.861866 32.841881,13.066626 32.602825,13.271650999999999 32.232642,13.583476000000001 32.189786,13.653419 30.049844,13.653419 30.049844,74.253419" stroke="#1f6fb2" stroke-width="0.1" /><text fill="#0a3d62" font-family="sans-serif" font-size="1.6" text-anchor="middle" x="43.899844" y="39.1267095">01</text><polygon fill="#cfe3f7" fill-opacity="0.5" points="58.749843999999996,74.253419 86.449844,74.253419 86.449844,27.960153000000002 86.006765,27.269701 85.72165899999999,26.82593 85.43530299999999,26.381230000000002 85.147423,25.935689 84.857607,25.489177 84.56544099999999,25.041566 84.27051399999999,24.59273 83.972414,24.142545000000002 83.67080899999999,23.691007000000003 83.366368,23.239314 83.061996,22.789072 82.760832,22.340595 82.46552,21.893542 82.17867,21.447643 81.902862,21.002702 81.640632,20.558593 81.394448,20.115251 81.166693,19.672654 80.95963699999999,19.230803 80.77541199999999,18.789682 80.61598699999999,18.349201 80.48314099999999,17.909043 80.377912,17.466450000000002 80.29925499999999,17.016318000000002 80.245053,16.555929 80.213702,16.085232 80.203587,15.604520999999998 80.21302,15.114260000000002 80.24022199999999,14.615027000000001 80.28331499999999,14.10747 80.34033099999999,13.592267 80.40921499999999,13.070103 80.487842,12.541644999999999 80.574024,12.007532000000001 80.66551899999999,11.468366 80.88854699999999,10.185535 68.26446299999999,4.0 67.56350499999999,4.889385 67.362173,5.145395000000001 67.160732,5.402666 66.959459,5.661415 66.758635,5.921860000000001 66.558542,6.184223 66.35946899999999,6.448724 66.16170299999999,6.715589 65.96553899999999,6.98504 65.771272,7.257303 65.579202,7.532604 65.389635,7.811167 65.202878,8.093217 65.019418,8.378703 64.840413,8.666063 64.666179,8.952868 64.49590599999999,9.237855 64.32856,9.520203 64.16314899999999,9.799104 63.998729,10.07376 63.834396,10.343385999999999 63.669292,10.607215 63.502599,10.8645 63.333535999999995,11.114528 63.161353999999996,11.356629 62.98532599999999,11.590186 62.80471299999999,11.814675000000001 62.617715,12.030892999999999 62.42149499999999,12.241872 62.21501799999999,12.450181 61.998974999999994,12.65662 61.774271999999996,12.861866 61.541881,13.066626 61.302825,13.271650999999999 60.932641999999994,13.583476000000001 60.889785999999994,13.653419 58.749843999999996,13.653419 58.749843999999996,74.253419" stroke="#1f6fb2" stroke-width="0.1" /><text fill="#0a3d62" font-family="sans-serif" font-size="1.6" text-anchor="middle" x="72.59984399999999" y="39.1267095">01</text><polygon fill="#cfe3f7" fill-opacity="0.5" points="8.742389000000001,137.265052 34.561245,137.265052 39.312617,87.293827 38.65936,86.46894699999999 38.249876,85.95756899999999 37.831947,85.447041 37.403212,84.940326 36.963227,84.44171999999999 36.513937,83.953345 36.056476,83.474835 35.591499,83.00528 35.119642,82.543763 34.641534,82.089368 34.15779,81.64117399999999 33.669013,81.198263 33.175798,80.759717 32.678446,80.32437399999999 32.175405,79.890149 31.663665,79.45764199999999 31.141389000000004,79.02999 30.607247,78.610891 30.059829,78.204101 29.497660000000003,77.813463 28.919226000000002,77.442938 28.323015,77.09664199999999 27.707578,76.778871 27.072399,76.494475 26.421860000000002,76.24878 25.763429000000002,76.04051199999999 25.100934000000002,75.864436 24.436526,75.714908 23.772146,75.586457 23.109630000000003,75.4738 22.450776,75.37185099999999 21.681554000000002,75.258659 20.895463,75.32723999999999 20.220459,75.391058 19.541487000000004,75.46524199999999 18.860108,75.554921 18.177897,75.665414 17.496512000000003,75.802234 16.817788,75.971077 16.144348,76.177628 15.482763000000002,76.42540799999999 14.839029,76.711005 14.214086000000002,77.02932899999999 13.606846,77.376133 13.016099,77.747349 12.440592,78.139073 11.879076000000001,78.54753099999999 11.330341,78.96905299999999 10.793237000000001,79.40004099999999 10.266596000000002,79.837025 9.747775,80.27808999999999 9.234355,80.725144 8.726875000000001,81.181117 8.227397000000002,81.64783 7.738078000000002,82.127094 7.261130000000001,82.62073699999999 6.798837000000001,83.130597 6.353560000000002,83.658496 5.927754000000002,84.20621899999999 5.524736000000001,84.774396 5.149068,85.35796599999999 4.798692000000003,85.947178 4.467144000000001,86.53578999999999 4.0,87.38829899999999 8.742389000000001,137.265052" stroke="#1f6fb2" stroke-width="0.1" /><text fill="#0a3d62" font-family="sans-serif" font-size="1.6" text-anchor="middle" x="21.6563085" y="106.2618555">04</text><polygon fill="#cfe3f7" fill-opacity="0.5" points="45.055006000000006,137.265052 70.873862,137.265052 75.625234,87.293827 74.97197700000001,86.46894699999999 74.562493,85.95756899999999 74.144564,85.447041 73.71582900000001,84.940326 73.275844,84.44171999999999 72.826554,83.953345 72.369093,83.474835 71.904116,83.00528 71.432259,82.543763 70.954151,82.089368 70.470407,81.64117399999999 69.98163,81.198263 69.488415,80.759717 68.991063,80.32437399999999 68.488022,79.890149 67.976282,79.45764199999999 67.454006,79.02999 66.919864,78.610891 66.372446,78.204101 65.81027700000001,77.813463 65.231843,77.442938 64.635632,77.09664199999999 64.020195,76.778871 63.38501600000001,76.494475 62.734477000000005,76.24878 62.076046000000005,76.04051199999999 61.413551000000005,75.864436 60.749143000000004,75.714908 60.084763,75.586457 59.422247000000006,75.4738 58.76339300000001,75.37185099999999 57.99417100000001,75.258659 57.20808,75.32723999999999 56.53307600000001,75.391058 55.85410400000001,75.46524199999999 55.172725,75.554921 54.490514000000005,75.665414 53.809129000000006,75.802234 53.130405,75.971077 52.456965000000004,76.177628 51.79538000000001,76.42540799999999 51.151646,76.711005 50.526703000000005,77.02932899999999 49.91946300000001,77.376133 49.328716,77.747349 48.753209000000005,78.139073 48.191693,78.54753099999999 47.64295800000001,78.96905299999999 47.10585400000001,79.40004099999999 46.579213,79.837025 46.06039200000001,80.27808999999999 45.546972000000004,80.725144 45.039492,81.181117 44.540014000000006,81.64783 44.050695000000005,82.127094 43.573747000000004,82.62073699999999 43.111454,83.130597 42.666177000000005,83.658496 42.240371,84.20621899999999 41.83735300000001,84.774396 41.461685,85.35796599999999 41.111309000000006,85.947178 40.77976100000001,86.53578999999999 40.312617,87.38829899999999 45.055006000000006,137.265052" stroke="#1f6fb2" stroke-width="0.1" /><text fill="#0a3d62" font-family="sans-serif" font-size="1.6" text-anchor="middle" x="57.968925500000005" y="106.2618555">04</text><polygon fill="#cfe3f7" fill-opacity="0.5" points="54.0,151.947336 53.480294,151.212018 53.143131,150.735683 52.803697,150.257553 52.461366,149.777455 52.11531,149.294932 51.764706000000004,148.809536 51.408731,148.320821 51.046565,147.828345 50.677642,147.332009 50.303278,146.833324 49.928726999999995,146.334652 49.558576,145.836235 49.197327,145.338364 48.849404,144.8414 48.519198,144.345877 48.211031,143.852509 47.929101,143.362179 47.677403,142.875931 47.459631,142.394903 47.279063,141.92021499999998 47.138459,141.452763 47.04003,140.992871 46.985233,140.537334 46.973766999999995,140.077229 47.003434999999996,139.605692 47.194523000000004,138.265052 29.0,138.265052 29.0,198.265052 54.0,198.265052 54.0,151.947336 4.0,151.947336 4.519705999999999,151.212018 4.856869,150.735683 5.196303,150.257553 5.538633999999998,149.777455 5.884689999999999,149.294932 6.235294,148.809536 6.5912690000000005,148.320821 6.953434999999999,147.828345 7.322358000000001,147.332009 7.696722000000001,146.833324 8.071273000000001,146.334652 8.441424000000001,145.836235 8.802672999999999,145.338364 9.150596,144.8414 9.480802,144.345877 9.788969000000002,143.852509 10.070899,143.362179 10.322596999999998,142.875931 10.540368999999998,142.394903 10.720937,141.92021499999998 10.861540999999999,141.452763 10.959969999999998,140.992871 11.014766999999999,140.537334 11.026233000000001,140.077229 10.996565,139.605692 10.805477,138.265052 29.0,138.265052 29.0,198.265052 4.0,198.265052 4.0,151.947336" stroke="#1f6fb2" stroke-width="0.1" /><text fill="#0a3d62" font-family="sans-serif" font-size="1.6" text-anchor="middle" x="29.0" y="168.265052">02</text><polygon fill="#cfe3f7" fill-opacity="0.5" points="55.0,149.536957 62.0,153.946957 69.0,149.536957 69.0,138.265052 55.0,138.265052 55.0,149.536957" stroke="#1f6fb2" stroke-width="0.1" /><text fill="#0a3d62" font-family="sans-serif" font-size="1.6" text-anchor="middle" x="62.0" y="146.10600449999998">10</text><polygon fill="#cfe3f7" fill-opacity="0.5" points="70.0,150.51417899999998 70.029841,150.817159 70.132547,151.155734 70.299332,151.467767 70.523786,151.741266 70.797285,151.96572 71.109318,152.132505 71.447893,152.235211 71.750873,152.265052 93.249127,152.265052 93.552107,152.235211 93.890682,152.132505 94.202715,151.96572 94.476214,151.741266 94.70066800000001,151.467767 94.867453,151.155734 94.970159,150.817159 95.0,150.51417899999998 95.0,140.015925 94.970159,139.712945 94.867453,139.37437 94.70066800000001,139.06233699999999 94.476214,138.788838 94.202715,138.564384 93.890682,138.39759899999999 93.552107,138.294893 93.249127,138.265052 71.750873,138.265052 71.447893,138.294893 71.109318,138.39759899999999 70.797285,138.564384 70.523786,138.788838 70.299332,139.06233699999999 70.132547,139.37437 70.029841,139.712945 70.0,140.015925 70.0,150.51417899999998" stroke="#1f6fb2" stroke-width="0.1" /><text fill="#0a3d62" font-family="sans-serif" font-size="1.6" text-anchor="middle" x="82.5" y="145.265052">05</text><polygon fill="#cfe3f7" fill-opacity="0.5" points="4.0,211.51417899999998 4.029841,211.817159 4.132547,212.155734 4.299332,212.467767 4.523786,212.741266 4.7972850000000005,212.96572 5.109318,213.132505 5.4478930000000005,213.235211 5.750873,213.265052 27.249127,213.265052 27.552107,213.235211 27.890682,213.132505 28.202715,212.96572 28.476214,212.741266 28.700668,212.467767 28.867453,212.155734 28.970159,211.817159 29.0,211.51417899999998 29.0,201.015925 28.970159,200.712945 28.867453,200.37437 28.700668,200.06233699999999 28.476214,199.788838 28.202715,199.564384 27.890682,199.39759899999999 27.552107,199.294893 27.249127,199.265052 5.750873,199.265052 5.4478930000000005,199.294893 5.109318,199.39759899999999 4.7972850000000005,199.564384 4.523786,199.788838 4.299332,200.06233699999999 4.132547,200.37437 4.029841,200.712945 4.0,201.015925 4.0,211.51417899999998" stroke="#1f6fb2" stroke-width="0.1" /><text fill="#0a3d62" font-family="sans-serif" font-size="1.6" text-anchor="middle" x="16.5" y="206.265052">05</text><polygon fill="#cfe3f7" fill-opacity="0.5" points="68.947982,210.230435 69.054419,209.733476 69.195948,209.224505 69.36983000000001,208.704513 69.57295400000001,208.174614 69.801909,207.635906 70.053062,207.089403 70.322621,206.535991 70.606693,205.976421 70.901315,205.411303 71.75104,203.802517 58.317057000000005,199.265052 57.683836,199.707225 57.467632,199.8568 57.253797000000006,200.001992 57.041777,200.141931 56.831036,200.2758 56.621044,200.402847 56.410656,200.522735 56.197851,200.63595899999999 55.981608,200.743032 55.762129,200.843841 55.539748,200.938213 55.314801,201.025979 55.087623,201.106977 54.858553,201.181051 54.627928,201.248054 54.396087,201.307843 54.163276,201.360303 53.928867,201.405531 53.691648,201.444054 53.451137,201.476427 53.20734,201.503125 52.960296,201.524635 52.710067,201.54146 52.456732,201.554119 52.200382000000005,201.563151 51.941113,201.56911399999998 51.679028,201.572583 51.414227,201.574154 51.14681,201.574441 50.87552,201.574074 50.87552,211.374075 68.784974,211.374075 68.947982,210.230435 32.803058,210.230435 32.696621,209.733476 32.555092,209.224505 32.38121,208.704513 32.178086,208.174614 31.949131,207.635906 31.697978000000003,207.089403 31.428419,206.535991 31.144347000000003,205.976421 30.849725000000003,205.411303 30.0,203.802517 43.433983,199.265052 44.067204000000004,199.707225 44.283408,199.8568 44.497243,200.001992 44.709263,200.141931 44.920004000000006,200.2758 45.129996000000006,200.402847 45.340384,200.522735 45.553189,200.63595899999999 45.769432,200.743032 45.988911,200.843841 46.211292,200.938213 46.436239,201.025979 46.663417,201.106977 46.892487,201.181051 47.123112000000006,201.248054 47.354953,201.307843 47.587764,201.360303 47.82217300000001,201.405531 48.059392,201.444054 48.299903,201.476427 48.5437,201.503125 48.790744000000004,201.524635 49.040973,201.54146 49.294308,201.554119 49.550658,201.563151 49.809927,201.56911399999998 50.072012,201.572583 50.33681300000001,201.574154 50.60423,201.574441 50.87552,201.574074 50.87552,211.374075 32.966066,211.374075 32.803058,210.230435" stroke="#1f6fb2" stroke-width="0.1" /><text fill="#0a3d62" font-family="sans-serif" font-size="1.6" text-anchor="middle" x="50.87552" y="205.3195635">03</text><polygon fill="#cfe3f7" fill-opacity="0.5" points="27.203371,221.115803 27.707564,221.20501099999998 28.211805,221.28913 28.716093,221.368157 29.220425,221.442093 29.724798,221.510935 30.229209,221.574683 30.733657,221.633335 31.238138,221.686891 31.742648,221.735348 32.247187,221.778708 32.751749000000004,221.816968 33.256333,221.85012799999998 33.760936,221.878187 34.265553,221.90114599999998 34.770184,221.919003 35.274823,221.931758 35.779469,221.939412 36.284118,221.941963 36.788766,221.939412 37.293412000000004,221.931758 37.798051,221.919003 38.302682000000004,221.90114599999998 38.807299,221.878187 39.311902,221.85012799999998 39.816486,221.816968 40.321048,221.778708 40.825587,221.735348 41.330097,221.686891 41.834578,221.633335 42.339026000000004,221.574683 42.843437,221.510935 43.347809999999996,221.442093 43.852142,221.368157 44.35643,221.28913 44.860670999999996,221.20501099999998 45.364864,221.115803 45.677889,221.057254 47.731458,224.479869 48.786676,224.080886 46.974522,214.265052 45.491710999999995,214.557393 45.006774,214.648097 44.521889,214.733889 44.037052,214.81477 43.552262,214.890743 43.067516,214.961807 42.582811,215.027965 42.098145,215.089217 41.613514,215.145565 41.128917,215.197009 40.64435,215.243552 40.15981,215.285192 39.675295,215.321932 39.190801,215.353772 38.706325,215.380713 38.221865,215.402754 37.737418,215.419897 37.252978999999996,215.432142 36.768547,215.43948799999998 36.284118,215.441937 35.799688,215.43948799999998 35.315256,215.432142 34.830818,215.419897 34.34637,215.402754 33.86191,215.380713 33.377434,215.353772 32.892939999999996,215.321932 32.408425,215.285192 31.923885,215.243552 31.439318,215.197009 30.954721,215.145565 30.47009,215.089217 29.985424000000002,215.027965 29.500719,214.961807 29.015973,214.890743 28.531183,214.81477 28.046346,214.733889 27.561461,214.648097 27.076524,214.557393 26.393338,214.422701 26.393338,220.961199 26.69923,221.02150699999999 27.203371,221.115803 25.583305,221.115803 25.079112,221.20501099999998 24.574871,221.28913 24.070583,221.368157 23.566251,221.442093 23.061878,221.510935 22.557467,221.574683 22.053019,221.633335 21.548538,221.686891 21.044028,221.735348 20.539489,221.778708 20.034927,221.816968 19.530343000000002,221.85012799999998 19.02574,221.878187 18.521123,221.90114599999998 18.016492,221.919003 17.511853000000002,221.931758 17.007207,221.939412 16.502558,221.941963 15.99791,221.939412 15.493264,221.931758 14.988625,221.919003 14.483994,221.90114599999998 13.979377,221.878187 13.474774,221.85012799999998 12.97019,221.816968 12.465628,221.778708 11.961089,221.735348 11.456579,221.686891 10.952098,221.633335 10.44765,221.574683 9.943238999999998,221.510935 9.438866,221.442093 8.934534,221.368157 8.430246,221.28913 7.926005,221.20501099999998 7.421811999999999,221.115803 7.1087869999999995,221.057254 5.055218,224.479869 4.0,224.080886 5.812154,214.265052 7.294965000000001,214.557393 7.779902,214.648097 8.264786999999998,214.733889 8.749624,214.81477 9.234414000000001,214.890743 9.719159999999999,214.961807 10.203865,215.027965 10.688531,215.089217 11.173162,215.145565 11.657759,215.197009 12.142326,215.243552 12.626866,215.285192 13.111381,215.321932 13.595875,215.353772 14.080351,215.380713 14.564811,215.402754 15.049258,215.419897 15.533697,215.432142 16.018129000000002,215.43948799999998 16.502558,215.441937 16.986988,215.43948799999998 17.471420000000002,215.432142 17.955858,215.419897 18.440306,215.402754 18.924765999999998,215.380713 19.409242,215.353772 19.893736,215.321932 20.378251,215.285192 20.862791,215.243552 21.347358,215.197009 21.831955,215.145565 22.316586,215.089217 22.801251999999998,215.027965 23.285957,214.961807 23.770703,214.890743 24.255493,214.81477 24.74033,214.733889 25.225215,214.648097 25.710152,214.557393 26.393338,214.422701 26.393338,220.961199 26.087446,221.02150699999999 25.583305,221.115803" stroke="#1f6fb2" stroke-width="0.1" /><text fill="#0a3d62" font-family="sans-serif" font-size="1.6" text-anchor="middle" x="26.393338" y="219.3724605">07</text><polygon fill="#cfe3f7" fill-opacity="0.5" points="73.209434,219.563924 73.753736,219.634871 74.298057,219.701766 74.842398,219.764609 75.386756,219.823399 75.931132,219.878137 76.47552300000001,219.928821 77.019929,219.975452 77.56434899999999,220.01803 78.10878,220.056553 78.653223,220.09102099999998 79.197675,220.121436 79.742136,220.147795 80.286604,220.170099 80.831079,220.188348 81.37555900000001,220.202542 81.920042,220.212681 82.464528,220.218764 83.009015,220.220792 83.553501,220.218764 84.097987,220.212681 84.64247,220.202542 85.18695,220.188348 85.731425,220.170099 86.275893,220.147795 86.82035400000001,220.121436 87.364806,220.09102099999998 87.909249,220.056553 88.453681,220.01803 88.9981,219.975452 89.542506,219.928821 90.086897,219.878137 90.631273,219.823399 91.175631,219.764609 91.719972,219.701766 92.264294,219.634871 92.808595,219.563924 93.352875,219.488926 94.74979400000001,219.286037 94.74979400000001,214.265052 93.072635,214.508644 92.542837,214.581646 92.013061,214.650699 91.483304,214.715804 90.95356699999999,214.776961 90.42384799999999,214.834171 89.89414500000001,214.887433 89.364459,214.936749 88.834787,214.98211799999999 88.305128,215.02354 87.775482,215.061017 87.245846,215.094549 86.716221,215.124134 86.186604,215.149775 85.656994,215.171471 85.127391,215.189222 84.597792,215.203028 84.068198,215.212889 83.538606,215.218806 83.009015,215.220778 82.479424,215.218806 81.949831,215.212889 81.420237,215.203028 80.890638,215.189222 80.361035,215.171471 79.831425,215.149775 79.301808,215.124134 78.772183,215.094549 78.242547,215.061017 77.712901,215.02354 77.183242,214.98211799999999 76.65357,214.936749 76.123884,214.887433 75.59418099999999,214.834171 75.06446199999999,214.776961 74.53472500000001,214.715804 74.004968,214.650699 73.47519199999999,214.581646 72.945394,214.508644 72.268235,214.410293 72.268235,219.431277 72.665154,219.488926 73.209434,219.563924 71.32703599999999,219.563924 70.782734,219.634871 70.23841300000001,219.701766 69.694072,219.764609 69.149714,219.823399 68.605338,219.878137 68.060947,219.928821 67.516541,219.975452 66.972121,220.01803 66.42769,220.056553 65.883247,220.09102099999998 65.338795,220.121436 64.794334,220.147795 64.249866,220.170099 63.705391,220.188348 63.160911,220.202542 62.616428,220.212681 62.071942,220.218764 61.527455,220.220792 60.982969,220.218764 60.438483000000005,220.212681 59.894,220.202542 59.34952,220.188348 58.805045,220.170099 58.260577,220.147795 57.716116,220.121436 57.171664,220.09102099999998 56.627221,220.056553 56.082789000000005,220.01803 55.53837,219.975452 54.993964000000005,219.928821 54.449573,219.878137 53.905197,219.823399 53.360839,219.764609 52.816497999999996,219.701766 52.272176,219.634871 51.727875,219.563924 51.183595,219.488926 49.786676,219.286037 49.786676,214.265052 51.463835,214.508644 51.993633,214.581646 52.523409,214.650699 53.053166000000004,214.715804 53.582903,214.776961 54.112622,214.834171 54.642325,214.887433 55.172011,214.936749 55.701683,214.98211799999999 56.231342,215.02354 56.760988,215.061017 57.290624,215.094549 57.820249000000004,215.124134 58.349866,215.149775 58.879476,215.171471 59.409079,215.189222 59.938678,215.203028 60.468272,215.212889 60.997864,215.218806 61.527455,215.220778 62.057046,215.218806 62.586639,215.212889 63.116233,215.203028 63.645832,215.189222 64.175435,215.171471 64.705045,215.149775 65.234662,215.124134 65.764287,215.094549 66.293923,215.061017 66.82356899999999,215.02354 67.353228,214.98211799999999 67.8829,214.936749 68.412586,214.887433 68.942289,214.834171 69.472008,214.776961 70.001745,214.715804 70.531502,214.650699 71.061278,214.581646 71.591076,214.508644 72.268235,214.410293 72.268235,219.431277 71.87131600000001,219.488926 71.32703599999999,219.563924" stroke="#1f6fb2" stroke-width="0.1" /><text fill="#0a3d62" font-family="sans-serif" font-size="1.6" text-anchor="middle" x="72.268235" y="217.242922">08</text><polygon fill="#cfe3f7" fill-opacity="0.5" points="95.74979400000001,217.914179 95.771949,218.139122 95.851892,218.40266 95.98171300000001,218.645538 96.156423,218.858423 96.369308,219.033133 96.61218600000001,219.16295399999998 96.875724,219.242897 97.10066700000002,219.265052 108.398921,219.265052 108.62386400000001,219.242897 108.88740200000001,219.16295399999998 109.13028000000001,219.033133 109.34316500000001,218.858423 109.517875,218.645538 109.64769600000001,218.40266 109.72763900000001,218.139122 109.74979400000001,217.914179 109.74979400000001,215.615925 109.72763900000001,215.390982 109.64769600000001,215.127444 109.517875,214.884566 109.34316500000001,214.671681 109.13028000000001,214.496971 108.88740200000001,214.36715 108.62386400000001,214.287207 108.398921,214.265052 97.10066700000002,214.265052 96.875724,214.287207 96.61218600000001,214.36715 96.369308,214.496971 96.156423,214.671681 95.98171300000001,214.884566 95.851892,215.127444 95.771949,215.390982 95.74979400000001,215.615925 95.74979400000001,217.914179" stroke="#1f6fb2" stroke-width="0.1" /><text fill="#0a3d62" font-family="sans-serif" font-size="1.6" text-anchor="middle" x="102.74979400000001" y="216.765052">06</text><polygon fill="#cfe3f7" fill-opacity="0.5" points="4.0,229.128996 4.022155,229.353939 4.102098,229.617477 4.2319189999999995,229.860355 4.406629,230.07324 4.619514,230.24795 4.862392,230.377771 5.12593,230.457714 5.350873,230.479869 16.649127,230.479869 16.87407,230.457714 17.137608,230.377771 17.380485999999998,230.24795 17.593370999999998,230.07324 17.768081000000002,229.860355 17.897902000000002,229.617477 17.977845000000002,229.353939 18.0,229.128996 18.0,226.83074200000001 17.977845000000002,226.60579900000002 17.897902000000002,226.342261 17.768081000000002,226.09938300000002 17.593370999999998,225.88649800000002 17.380485999999998,225.711788 17.137608,225.58196700000002 16.87407,225.502024 16.649127,225.479869 5.350873,225.479869 5.12593,225.502024 4.862392,225.58196700000002 4.619514,225.711788 4.406629,225.88649800000002 4.2319189999999995,226.09938300000002 4.102098,226.342261 4.022155,226.60579900000002 4.0,226.83074200000001 4.0,229.128996" stroke="#1f6fb2" stroke-width="0.1" /><text fill="#0a3d62" font-family="sans-serif" font-size="1.6" text-anchor="middle" x="11.0" y="227.979869">06</text></svg>