<?xml version="1.0" encoding="utf-8" ?>
<svg baseProfile="full" height="156.349052cm" version="1.1" viewBox="0 0 158.0 156.349052" width="158.0cm" xmlns="http://www.w3.org/2000/svg" xmlns:ev="http://www.w3.org/2001/xml-events" xmlns:xlink="http://www.w3.org/1999/xlink"><defs /><rect fill="#f7f3ea" height="148.349052" stroke="#333" stroke-width="0.15" width="150.0" x="4.0" y="4.0" /><text fill="#000" font-family="sans-serif" font-size="1.4" x="4.0" y="3.0">PLANO DE CORTE — ancho 150 cm — largo 1.48 m</text><polygon fill="#cfe3f7" fill-opacity="0.5" points="4.0,74.267704 12.00722,74.267704 11.601177,17.827772 15.824922,5.262131 13.300661,4.0 12.604548000000001,4.928368 12.408809,5.189983 12.212994,5.452847 12.017382000000001,5.717166 11.822256,5.98315 11.6279,6.251011999999999 11.434603,6.520965 11.242656,6.793221 11.052355,7.067997 10.863996,7.345508 10.677882,7.6259689999999996 10.494319,7.909597 10.313615,8.196606 10.136242,8.486951000000001 9.963303,8.779094 9.795078,9.070626 9.63075,9.360295 9.469275,9.647313 9.309653,9.930903 9.150927,10.210297 8.992184,10.484739000000001 8.832553,10.753489 8.671203,11.015827 8.507341,11.271062 8.340206,11.518545 8.169058,11.757678 7.993161000000001,11.987943000000001 7.810869,12.210004 7.619404,12.426846 7.41765,12.641195 7.206278,12.853889 6.986212,13.065588 6.7584420000000005,13.27698 6.524011,13.488792 6.322425,13.667704 4.0,13.667704 4.0,74.267704" stroke="#1f6fb2" stroke-width="0.1" /><text fill="#0a3d62" font-family="sans-serif" font-size="1.6" text-anchor="middle" x="9.912461" y="39.133852">09</text><polygon fill="#cfe3f7" fill-opacity="0.5" points="16.824922,74.267704 24.832142,74.267704 24.426099,17.827772 28.649844,5.262131 26.125583,4.0 25.429470000000002,4.928368 25.233731,5.189983 25.037916000000003,5.452847 24.842304000000002,5.717166 24.647178,5.98315 24.452822,6.251011999999999 24.259525,6.520965 24.067578,6.793221 23.877277,7.067997 23.688918,7.345508 23.502804,7.6259689999999996 23.319241,7.909597 23.138537,8.196606 22.961164,8.486951000000001 22.788225,8.779094 22.62,9.070626 22.455672,9.360295 22.294197,9.647313 22.134575,9.930903 21.975849,10.210297 21.817106000000003,10.484739000000001 21.657475,10.753489 21.496125,11.015827 21.332263,11.271062 21.165128000000003,11.518545 20.99398,11.757678 20.818083,11.987943000000001 20.635791,12.210004 20.444326,12.426846 20.242572000000003,12.641195 20.031200000000002,12.853889 19.811134000000003,13.065588 19.583364,13.27698 19.348933000000002,13.488792 19.147347,13.667704 16.824922,13.667704 16.824922,74.267704" stroke="#1f6fb2" stroke-width="0.1" /><text fill="#0a3d62" font-family="sans-serif" font-size="1.6" text-anchor="middle" x="22.737383" y="39.133852">09</text><polygon fill="#cfe3f7" fill-opacity="0.5" points="29.649844,74.233067 57.349844000000004,74.233067 57.349844000000004,30.069658999999998 57.510142,30.279828 58.091480000000004,31.112724 58.631954,31.985319999999998 59.140285000000006,32.913069 59.63674,33.884637999999995 60.139012,34.875634 60.666831,35.861290999999994 61.242969,36.817371 61.893842,37.718696 62.646718,38.532945 63.509708,39.216073 64.45830900000001,39.753712 65.471264,40.15614 66.53492,40.439813 67.639812,40.621801 68.779116,40.718163 69.947186,40.743545999999995 71.13863500000001,40.711379 72.347892,40.634209 73.56903,40.523992 74.795727,40.392297 76.906283,40.147988999999995 76.906283,12.369893 50.971472000000006,9.257715000000001 38.924533000000004,4.0 38.254392,4.893731 38.058653,5.155346 37.862838,5.41821 37.667226,5.682529 37.472100000000005,5.948513 37.277744,6.216374999999999 37.084447000000004,6.486328 36.8925,6.758584 36.702199,7.03336 36.51384,7.310871 36.327726,7.5913319999999995 36.144163000000006,7.87496 35.963459,8.161969 35.786086000000005,8.452314000000001 35.613147,8.744457 35.444922000000005,9.035989 35.280594,9.325658 35.119119,9.612676 34.959497,9.896266 34.800771000000005,10.17566 34.642028,10.450102000000001 34.482397000000006,10.718852 34.321047,10.98119 34.157185,11.236425 33.990050000000004,11.483908 33.818902,11.723041 33.643005,11.953306000000001 33.460713,12.175367 33.269248000000005,12.392209 33.067494,12.606558 32.856122,12.819252 32.636056,13.030951 32.408286000000004,13.242343 32.173855,13.454155 31.972269,13.633067 29.649844,13.633067 29.649844,74.233067" stroke="#1f6fb2" stroke-width="0.1" /><text fill="#0a3d62" font-family="sans-serif" font-size="1.6" text-anchor="middle" x="53.2780635" y="39.1165335">01</text><polygon fill="#cfe3f7" fill-opacity="0.5" points="77.906283,74.233067 105.606283,74.233067 105.606283,30.069658999999998 105.766581,30.279828 106.347919,31.112724 106.88839300000001,31.985319999999998 107.396724,32.913069 107.893179,33.884637999999995 108.39545100000001,34.875634 108.92327,35.861290999999994 109.499408,36.817371 110.150281,37.718696 110.903157,38.532945 111.766147,39.216073 112.71474800000001,39.753712 113.727703,40.15614 114.791359,40.439813 115.896251,40.621801 117.035555,40.718163 118.203625,40.743545999999995 119.39507400000001,40.711379 120.604331,40.634209 121.825469,40.523992 123.052166,40.392297 125.162722,40.147988999999995 125.162722,12.369893 99.227911,9.257715000000001 87.180972,4.0 86.510831,4.893731 86.315092,5.155346 86.119277,5.41821 85.923665,5.682529 85.728539,5.948513 85.534183,6.216374999999999 85.340886,6.486328 85.148939,6.758584 84.95863800000001,7.03336 84.770279,7.310871 84.584165,7.5913319999999995 84.400602,7.87496 84.219898,8.161969 84.042525,8.452314000000001 83.869586,8.744457 83.701361,9.035989 83.53703300000001,9.325658 83.375558,9.612676 83.215936,9.896266 83.05721,10.17566 82.898467,10.450102000000001 82.738836,10.718852 82.57748600000001,10.98119 82.413624,11.236425 82.246489,11.483908 82.07534100000001,11.723041 81.899444,11.953306000000001 81.717152,12.175367 81.525687,12.392209 81.323933,12.606558 81.112561,12.819252 80.892495,13.030951 80.664725,13.242343 80.430294,13.454155 80.228708,13.633067 77.906283,13.633067 77.906283,74.233067" stroke="#1f6fb2" stroke-width="0.1" /><text fill="#0a3d62" font-family="sans-serif" font-size="1.6" text-anchor="middle" x="101.5345025" y="39.1165335">01</text><polygon fill="#cfe3f7" fill-opacity="0.5" points="73.961904,101.22510299999999 74.14706699999999,101.468486 74.734551,102.31512 75.280463,103.20529199999999 75.794982,104.153337 76.29896,105.144967 76.810745,106.153607 77.35113199999999,107.152737 77.944355,108.11640799999999 78.618827,109.017361 79.402249,109.818209 80.29736199999999,110.47386499999999 81.27584999999999,110.97478 82.316854,111.33381499999999 83.406779,111.568968 84.536644,111.69847899999999 85.700159,111.739203 86.892087,111.70635999999999 88.107311,111.61385899999999 89.340414,111.47470799999999 90.585549,111.30133000000001 91.83642499999999,111.10578699999999 93.923808,110.761965 93.923808,83.02603099999999 67.967128,79.91122899999999 55.933273,75.267704 55.294165,75.701815 55.091336,75.838304 54.891006,75.970602 54.692678,76.097901 54.495872,76.21945099999999 54.30011399999999,76.33456299999999 54.104264,76.44298099999999 53.906313999999995,76.545255 53.705256999999996,76.641894 53.501281,76.732805 53.294689,76.817843 53.085784999999994,76.896867 52.874874,76.96974399999999 52.662265,77.036345 52.448265,77.09654599999999 52.233182,77.15023199999999 52.017224999999996,77.197313 51.799746999999996,77.23790199999999 51.579595999999995,77.272489 51.356342999999995,77.301564 51.129991,77.325549 50.900571,77.344877 50.668138,77.359996 50.432759,77.37137 50.194513,77.379482 49.953485,77.38483 49.709762999999995,77.387934 49.463437,77.389326 49.214592999999994,77.389561 48.961904,77.38920399999999 48.961904,145.389205 73.961904,145.389205 73.961904,101.22510299999999 23.961903999999997,101.22510299999999 23.776740999999998,101.468486 23.189256999999998,102.31512 22.643344999999997,103.20529199999999 22.128825999999997,104.153337 21.624847999999997,105.144967 21.113062999999997,106.153607 20.572675999999998,107.152737 19.979452999999996,108.11640799999999 19.304980999999998,109.017361 18.521558999999996,109.818209 17.626445999999998,110.47386499999999 16.647957999999996,110.97478 15.606953999999995,111.33381499999999 14.517028999999994,111.568968 13.387163999999999,111.69847899999999 12.223648999999995,111.739203 11.031720999999997,111.70635999999999 9.816496999999998,111.61385899999999 8.583393999999998,111.47470799999999 7.338258999999994,111.30133000000001 6.0873829999999955,111.10578699999999 4.0,110.761965 4.0,83.02603099999999 29.95668,79.91122899999999 41.990534999999994,75.267704 42.629642999999994,75.701815 42.832471999999996,75.838304 43.032802,75.970602 43.23112999999999,76.097901 43.427935999999995,76.21945099999999 43.623694,76.33456299999999 43.81954399999999,76.44298099999999 44.017494,76.545255 44.218551,76.641894 44.422526999999995,76.732805 44.629118999999996,76.817843 44.838023,76.896867 45.048933999999996,76.96974399999999 45.261542999999996,77.036345 45.475542999999995,77.09654599999999 45.690625999999995,77.15023199999999 45.906583,77.197313 46.124061,77.23790199999999 46.344212,77.272489 46.567465,77.301564 46.793817,77.325549 47.023236999999995,77.344877 47.255669999999995,77.359996 47.491049,77.37137 47.72929499999999,77.379482 47.97032299999999,77.38483 48.214045,77.387934 48.460370999999995,77.389326 48.709215,77.389561 48.961904,77.38920399999999 48.961904,145.389205 23.961903999999997,145.389205 23.961903999999997,101.22510299999999" stroke="#1f6fb2" stroke-width="0.1" /><text fill="#0a3d62" font-family="sans-serif" font-size="1.6" text-anchor="middle" x="48.961904" y="110.32845449999999">02</text><polygon fill="#cfe3f7" fill-opacity="0.5" points="94.923808,86.539609 101.923808,90.949609 108.923808,86.539609 108.923808,75.267704 94.923808,75.267704 94.923808,86.539609" stroke="#1f6fb2" stroke-width="0.1" /><text fill="#0a3d62" font-family="sans-serif" font-size="1.6" text-anchor="middle" x="101.923808" y="83.1086565">10</text><polygon fill="#cfe3f7" fill-opacity="0.5" points="132.579177,82.122681 133.070667,82.21197799999999 133.56221,82.29618099999999 134.053803,82.375289 134.545444,82.4493 135.037129,82.51821299999999 135.528856,82.582027 136.020622,82.64074 136.51242299999998,82.694352 137.004257,82.74286099999999 137.496121,82.786267 137.988011,82.824568 138.47992399999998,82.85776399999999 138.971857,82.885854 139.463807,82.90883699999999 139.95577,82.92671399999999 140.447744,82.939483 140.93972399999998,82.94714499999999 141.431707,82.949698 141.92369,82.94714499999999 142.41566999999998,82.939483 142.907644,82.92671399999999 143.399607,82.90883699999999 143.89155699999998,82.885854 144.38349,82.85776399999999 144.875403,82.824568 145.367293,82.786267 145.85915699999998,82.74286099999999 146.350991,82.694352 146.84279199999997,82.64074 147.334558,82.582027 147.82628499999998,82.51821299999999 148.31797,82.4493 148.809611,82.375289 149.30120399999998,82.29618099999999 149.792747,82.21197799999999 150.284237,82.122681 150.56858599999998,82.068067 152.620308,85.48760399999999 153.675526,85.08862099999999 151.862434,75.267704 150.388618,75.56607699999999 149.91684899999998,75.656689 149.445135,75.742392 148.973474,75.823189 148.501863,75.899081 148.0303,75.97006999999999 147.558781,76.03615699999999 147.087304,76.097343 146.61586599999998,76.15362999999999 146.144463,76.205018 145.673093,76.251509 145.201753,76.29310299999999 144.730439,76.329802 144.25914799999998,76.361606 143.78787699999998,76.388516 143.316623,76.410533 142.845382,76.427656 142.37415199999998,76.439887 141.902928,76.44722499999999 141.431707,76.44967199999999 140.960486,76.44722499999999 140.489262,76.439887 140.018032,76.427656 139.54679099999998,76.410533 139.075537,76.388516 138.604266,76.361606 138.132975,76.329802 137.66166099999998,76.29310299999999 137.19032099999998,76.251509 136.718951,76.205018 136.247548,76.15362999999999 135.77611,76.097343 135.304633,76.03615699999999 134.833114,75.97006999999999 134.361551,75.899081 133.88994,75.823189 133.41827899999998,75.742392 132.946565,75.656689 132.474796,75.56607699999999 131.799667,75.42939799999999 131.799667,81.969972 132.087742,82.02829299999999 132.579177,82.122681 131.02015699999998,82.122681 130.52866699999998,82.21197799999999 130.037124,82.29618099999999 129.54553099999998,82.375289 129.05389,82.4493 128.562205,82.51821299999999 128.07047799999998,82.582027 127.578712,82.64074 127.08691099999999,82.694352 126.59507699999999,82.74286099999999 126.103213,82.786267 125.611323,82.824568 125.11940999999999,82.85776399999999 124.627477,82.885854 124.135527,82.90883699999999 123.643564,82.92671399999999 123.15159,82.939483 122.65960999999999,82.94714499999999 122.167627,82.949698 121.67564399999999,82.94714499999999 121.183664,82.939483 120.69169,82.92671399999999 120.199727,82.90883699999999 119.707777,82.885854 119.21584399999999,82.85776399999999 118.723931,82.824568 118.232041,82.786267 117.74017699999999,82.74286099999999 117.24834299999999,82.694352 116.756542,82.64074 116.264776,82.582027 115.77304899999999,82.51821299999999 115.281364,82.4493 114.789723,82.375289 114.29812999999999,82.29618099999999 113.806587,82.21197799999999 113.315097,82.122681 113.03074799999999,82.068067 110.97902599999999,85.48760399999999 109.923808,85.08862099999999 111.73689999999999,75.267704 113.21071599999999,75.56607699999999 113.68248499999999,75.656689 114.15419899999999,75.742392 114.62585999999999,75.823189 115.09747099999998,75.899081 115.56903399999999,75.97006999999999 116.04055299999999,76.03615699999999 116.51203,76.097343 116.98346799999999,76.15362999999999 117.454871,76.205018 117.92624099999999,76.251509 118.39758099999999,76.29310299999999 118.868895,76.329802 119.34018599999999,76.361606 119.81145699999999,76.388516 120.28271099999999,76.410533 120.753952,76.427656 121.22518199999999,76.439887 121.696406,76.44722499999999 122.167627,76.44967199999999 122.638848,76.44722499999999 123.11007199999999,76.439887 123.581302,76.427656 124.05254299999999,76.410533 124.52379699999999,76.388516 124.99506799999999,76.361606 125.466359,76.329802 125.93767299999999,76.29310299999999 126.40901299999999,76.251509 126.880383,76.205018 127.35178599999999,76.15362999999999 127.823224,76.097343 128.294701,76.03615699999999 128.76622,75.97006999999999 129.23778299999998,75.899081 129.709394,75.823189 130.181055,75.742392 130.65276899999998,75.656689 131.124538,75.56607699999999 131.799667,75.42939799999999 131.799667,81.969972 131.511592,82.02829299999999 131.02015699999998,82.122681" stroke="#1f6fb2" stroke-width="0.1" /><text fill="#0a3d62" font-family="sans-serif" font-size="1.6" text-anchor="middle" x="131.799667" y="80.37765399999999">07</text><polygon fill="#cfe3f7" fill-opacity="0.5" points="26.876185,151.691747 27.407719999999998,151.76274 27.939276,151.829679 28.470852,151.892563 29.002448,151.951392 29.534062,152.006166 30.065693,152.056885 30.59734,152.103547 31.129001,152.146152 31.660674999999998,152.18470100000002 32.192361,152.21919300000002 32.724058,152.249628 33.255764,152.276005 33.787478,152.298325 34.319198,152.316587 34.850924,152.33079 35.382654,152.340936 35.914386,152.347023 36.44612,152.349052 36.977854,152.347023 37.509586,152.340936 38.041315999999995,152.33079 38.573042,152.316587 39.104762,152.298325 39.636476,152.276005 40.168182,152.249628 40.699878999999996,152.21919300000002 41.231565,152.18470100000002 41.763239,152.146152 42.2949,152.103547 42.826547,152.056885 43.358177999999995,152.006166 43.889792,151.951392 44.421388,151.892563 44.952963999999994,151.829679 45.48452,151.76274 46.016054999999994,151.691747 46.547566,151.616701 47.92816,151.411233 47.92816,146.389205 46.260549999999995,146.637389 45.743857,146.710343 45.227188,146.77935 44.710539999999995,146.844411 44.193912,146.905527 43.677304,146.96269800000002 43.160714,147.015924 42.644141,147.065205 42.127584,147.110543 41.611041,147.151938 41.094511,147.189389 40.577993,147.22289700000002 40.061486,147.252462 39.544988000000004,147.278085 39.028498,147.299765 38.512014,147.31750300000002 37.995536,147.3313 37.479062,147.34115400000002 36.96259,147.347067 36.44612,147.349038 35.929649999999995,147.347067 35.413178,147.34115400000002 34.896704,147.3313 34.380226,147.31750300000002 33.863742,147.299765 33.347252,147.278085 32.830754,147.252462 32.314246999999995,147.22289700000002 31.797729,147.189389 31.281199,147.151938 30.764656,147.110543 30.248099,147.065205 29.731526,147.015924 29.214935999999998,146.96269800000002 28.698328,146.905527 28.1817,146.844411 27.665052,146.77935 27.148383,146.710343 26.63169,146.637389 25.96408,146.53803100000002 25.96408,151.560059 26.344673999999998,151.616701 26.876185,151.691747 25.051975,151.691747 24.52044,151.76274 23.988884,151.829679 23.457307999999998,151.892563 22.925711999999997,151.951392 22.394098,152.006166 21.862467,152.056885 21.33082,152.103547 20.799159,152.146152 20.267485,152.18470100000002 19.735799,152.21919300000002 19.204102,152.249628 18.672396,152.276005 18.140681999999998,152.298325 17.608962,152.316587 17.077236,152.33079 16.545506,152.340936 16.013773999999998,152.347023 15.48204,152.349052 14.950306,152.347023 14.418574,152.340936 13.886844,152.33079 13.355118,152.316587 12.823398,152.298325 12.291683999999998,152.276005 11.759977999999998,152.249628 11.228280999999999,152.21919300000002 10.696594999999999,152.18470100000002 10.164921,152.146152 9.63326,152.103547 9.101613,152.056885 8.569982,152.006166 8.038367999999998,151.951392 7.506771999999998,151.892563 6.975196,151.829679 6.4436399999999985,151.76274 5.912105,151.691747 5.3805939999999985,151.616701 4.0,151.411233 4.0,146.389205 5.66761,146.637389 6.184303,146.710343 6.700972,146.77935 7.21762,146.844411 7.734248000000001,146.905527 8.250855999999999,146.96269800000002 8.767446,147.015924 9.284019,147.065205 9.800576,147.110543 10.317119,147.151938 10.833649,147.189389 11.350166999999999,147.22289700000002 11.866674,147.252462 12.383171999999998,147.278085 12.899662,147.299765 13.416146,147.31750300000002 13.932623999999999,147.3313 14.449098,147.34115400000002 14.96557,147.347067 15.48204,147.349038 15.99851,147.347067 16.514982,147.34115400000002 17.031456,147.3313 17.547933999999998,147.31750300000002 18.064418,147.299765 18.580908,147.278085 19.097406,147.252462 19.613913,147.22289700000002 20.130430999999998,147.189389 20.646960999999997,147.151938 21.163504,147.110543 21.680061,147.065205 22.196634,147.015924 22.713224,146.96269800000002 23.229832,146.905527 23.74646,146.844411 24.263108,146.77935 24.779777,146.710343 25.29647,146.637389 25.96408,146.53803100000002 25.96408,151.560059 25.583486,151.616701 25.051975,151.691747" stroke="#1f6fb2" stroke-width="0.1" /><text fill="#0a3d62" font-family="sans-serif" font-size="1.6" text-anchor="middle" x="25.96408" y="149.36912850000002">08</text></svg>