<?xml version="1.0" encoding="utf-8" ?>
<svg baseProfile="full" height="226.618418cm" version="1.1" viewBox="0 0 118.0 226.618418" width="118.0cm" xmlns="http://www.w3.org/2000/svg" xmlns:ev="http://www.w3.org/2001/xml-events" xmlns:xlink="http://www.w3.org/1999/xlink"><defs /><rect fill="#f7f3ea" height="218.618418" stroke="#333" stroke-width="0.15" width="110.0" x="4.0" y="4.0" /><text fill="#000" font-family="sans-serif" font-size="1.4" x="4.0" y="3.0">PLANO DE CORTE — ancho 110 cm — largo 2.19 m</text><polygon fill="#cfe3f7" fill-opacity="0.5" points="4.0,74.267704 12.00722,74.267704 11.601177,17.827772 15.824922,5.262131 13.300661,4.0 12.604548000000001,4.928368 12.408809,5.189983 12.212994,5.452847 12.017382000000001,5.717166 11.822256,5.98315 11.6279,6.251011999999999 11.434603,6.520965 11.242656,6.793221 11.052355,7.067997 10.863996,7.345508 10.677882,7.6259689999999996 10.494319,7.909597 10.313615,8.196606 10.136242,8.486951000000001 9.963303,8.779094 9.795078,9.070626 9.63075,9.360295 9.469275,9.647313 9.309653,9.930903 9.150927,10.210297 8.992184,10.484739000000001 8.832553,10.753489 8.671203,11.015827 8.507341,11.271062 8.340206,11.518545 8.169058,11.757678 7.993161000000001,11.987943000000001 7.810869,12.210004 7.619404,12.426846 7.41765,12.641195 7.206278,12.853889 6.986212,13.065588 6.7584420000000005,13.27698 6.524011,13.488792 6.322425,13.667704 4.0,13.667704 4.0,74.267704" stroke="#1f6fb2" stroke-width="0.1" /><text fill="#0a3d62" font-family="sans-serif" font-size="1.6" text-anchor="middle" x="9.912461" y="39.133852">09</text><polygon fill="#cfe3f7" fill-opacity="0.5" points="16.824922,74.267704 24.832142,74.267704 24.426099,17.827772 28.649844,5.262131 26.125583,4.0 25.429470000000002,4.928368 25.233731,5.189983 25.037916000000003,5.452847 24.842304000000002,5.717166 24.647178,5.98315 24.452822,6.251011999999999 24.259525,6.520965 24.067578,6.793221 23.877277,7.067997 23.688918,7.345508 23.502804,7.6259689999999996 23.319241,7.909597 23.138537,8.196606 22.961164,8.486951000000001 22.788225,8.779094 22.62,9.070626 22.455672,9.360295 22.294197,9.647313 22.134575,9.930903 21.975849,10.210297 21.817106000000003,10.484739000000001 21.657475,10.753489 21.496125,11.015827 21.332263,11.271062 21.165128000000003,11.518545 20.99398,11.757678 20.818083,11.987943000000001 20.635791,12.210004 20.444326,12.426846 20.242572000000003,12.641195 20.031200000000002,12.853889 19.811134000000003,13.065588 19.583364,13.27698 19.348933000000002,13.488792 19.147347,13.667704 16.824922,13.667704 16.824922,74.267704" stroke="#1f6fb2" stroke-width="0.1" /><text fill="#0a3d62" font-family="sans-serif" font-size="1.6" text-anchor="middle" x="22.737383" y="39.133852">09</text><polygon fill="#cfe3f7" fill-opacity="0.5" points="29.649844,74.233067 57.349844000000004,74.233067 57.349844000000004,26.857360999999997 56.749912,26.171653999999997 56.396521,25.768483 56.040528,25.363836 55.681394,24.957849 55.318277,24.550319 54.95034,24.141047999999998 54.576750000000004,23.729844999999997 54.196687,23.316536 53.810258000000005,22.901911 53.420919,22.488083 53.034441,22.076037 52.655385,21.665301 52.288183000000004,21.255467 51.937261,20.846346999999998 51.606989,20.437973 51.30162,20.030609 51.025183999999996,19.624724 50.781365,19.22094 50.57334,18.819888 50.40363,18.421923 50.273231,18.024288 50.180244,17.618925 50.12149,17.199514999999998 50.095352000000005,16.764596 50.100468,16.313914 50.135391999999996,15.847847 50.198454,15.367222 50.287714,14.873137 50.400976,14.366815 50.535817,13.849511 50.689639,13.32245 50.859709,12.78679 51.043189999999996,12.243606999999999 51.237178,11.693886 51.438712,11.138521 51.970248,9.693617 38.924533000000004,4.0 38.254392,4.893731 38.058653,5.155346 37.862838,5.41821 37.667226,5.682529 37.472100000000005,5.948513 37.277744,6.216374999999999 37.084447000000004,6.486328 36.8925,6.758584 36.702199,7.03336 36.51384,7.310871 36.327726,7.5913319999999995 36.144163000000006,7.87496 35.963459,8.161969 35.786086000000005,8.452314000000001 35.613147,8.744457 35.444922000000005,9.035989 35.280594,9.325658 35.119119,9.612676 34.959497,9.896266 34.800771000000005,10.17566 34.642028,10.450102000000001 34.482397000000006,10.718852 34.321047,10.98119 34.157185,11.236425 33.990050000000004,11.483908 33.818902,11.723041 33.643005,11.953306000000001 33.460713,12.175367 33.269248000000005,12.392209 33.067494,12.606558 32.856122,12.819252 32.636056,13.030951 32.408286000000004,13.242343 32.173855,13.454155 31.972269,13.633067 29.649844,13.633067 29.649844,74.233067" stroke="#1f6fb2" stroke-width="0.1" /><text fill="#0a3d62" font-family="sans-serif" font-size="1.6" text-anchor="middle" x="43.499844" y="39.1165335">01</text><polygon fill="#cfe3f7" fill-opacity="0.5" points="58.349844000000004,74.233067 86.04984400000001,74.233067 86.04984400000001,26.857360999999997 85.44991200000001,26.171653999999997 85.096521,25.768483 84.74052800000001,25.363836 84.381394,24.957849 84.01827700000001,24.550319 83.65034,24.141047999999998 83.27675,23.729844999999997 82.896687,23.316536 82.51025800000001,22.901911 82.120919,22.488083 81.734441,22.076037 81.35538500000001,21.665301 80.988183,21.255467 80.637261,20.846346999999998 80.306989,20.437973 80.00162,20.030609 79.725184,19.624724 79.48136500000001,19.22094 79.27334,18.819888 79.10363000000001,18.421923 78.973231,18.024288 78.880244,17.618925 78.82149000000001,17.199514999999998 78.79535200000001,16.764596 78.800468,16.313914 78.835392,15.847847 78.898454,15.367222 78.98771400000001,14.873137 79.100976,14.366815 79.235817,13.849511 79.389639,13.32245 79.559709,12.78679 79.74319,12.243606999999999 79.937178,11.693886 80.138712,11.138521 80.670248,9.693617 67.624533,4.0 66.95439200000001,4.893731 66.75865300000001,5.155346 66.562838,5.41821 66.367226,5.682529 66.1721,5.948513 65.977744,6.216374999999999 65.784447,6.486328 65.5925,6.758584 65.40219900000001,7.03336 65.21384,7.310871 65.027726,7.5913319999999995 64.84416300000001,7.87496 64.663459,8.161969 64.486086,8.452314000000001 64.313147,8.744457 64.14492200000001,9.035989 63.980594,9.325658 63.819119,9.612676 63.659497,9.896266 63.50077100000001,10.17566 63.342028000000006,10.450102000000001 63.18239700000001,10.718852 63.021047,10.98119 62.857185,11.236425 62.69005000000001,11.483908 62.518902000000004,11.723041 62.343005000000005,11.953306000000001 62.160713,12.175367 61.96924800000001,12.392209 61.767494000000006,12.606558 61.556122,12.819252 61.336056000000006,13.030951 61.10828600000001,13.242343 60.873855000000006,13.454155 60.67226900000001,13.633067 58.349844000000004,13.633067 58.349844000000004,74.233067" stroke="#1f6fb2" stroke-width="0.1" /><text fill="#0a3d62" font-family="sans-serif" font-size="1.6" text-anchor="middle" x="72.199844" y="39.1165335">01</text><polygon fill="#cfe3f7" fill-opacity="0.5" points="8.603537000000001,137.272317 34.432241,137.272317 39.044742,85.827327 38.338398999999995,85.042694 37.917592,84.580552 37.488116,84.11954 37.047919,83.662943 36.597245,83.215104 36.138323,82.77776399999999 35.672148,82.350409 35.19934,81.93216199999999 34.720508,81.522143 34.236247,81.11947099999999 33.747142,80.723265 33.253769,80.332647 32.756689,79.94673999999999 32.255796000000004,79.56416999999999 31.749057,79.183459 31.233977,78.80596299999999 30.709418,78.43459999999999 30.174402999999998,78.072496 29.6279,77.722833 29.068843,77.38886699999999 28.496148,77.073954 27.908752,76.781561 27.305661,76.515294 26.687530000000002,76.279466 26.059449,76.07732 25.427158,75.906295 24.792906000000002,75.761815 24.158237,75.639246 23.52457,75.53408599999999 22.893254,75.441976 22.265622,75.358699 21.544124,75.267704 20.808963,75.32164399999999 20.168217,75.372666 19.523647,75.432109 18.8764,75.504142 18.227627,75.59307299999999 17.578525,75.703347 16.930396000000002,75.83954399999999 16.284807,76.00634 15.645945000000001,76.20758599999999 15.019679,76.442509 14.408314,76.70685599999999 13.811256,76.997118 13.227674,77.309958 12.656686,77.642151 12.097394,77.99057599999999 11.548913,78.352193 11.010392,78.72402699999999 10.481016,79.103155 9.959197,79.487304 9.441979,79.87699699999999 8.928751,80.275463 8.421351,80.684888 7.9219930000000005,81.10725099999999 7.432948,81.544568 6.956562,81.99888 6.495274,82.472229 6.051633000000001,82.966628 5.628798,83.48342799999999 5.232445000000002,84.018686 4.862674000000002,84.561902 4.513476000000001,85.105098 4.0,85.927312 8.603537000000001,137.272317" stroke="#1f6fb2" stroke-width="0.1" /><text fill="#0a3d62" font-family="sans-serif" font-size="1.6" text-anchor="middle" x="21.522371" y="106.2700105">04</text><polygon fill="#cfe3f7" fill-opacity="0.5" points="44.648279,137.272317 70.47698299999999,137.272317 75.089484,85.827327 74.383141,85.042694 73.962334,84.580552 73.532858,84.11954 73.09266099999999,83.662943 72.641987,83.215104 72.183065,82.77776399999999 71.71689,82.350409 71.24408199999999,81.93216199999999 70.76525000000001,81.522143 70.280989,81.11947099999999 69.791884,80.723265 69.29851099999999,80.332647 68.80143100000001,79.94673999999999 68.300538,79.56416999999999 67.793799,79.183459 67.278719,78.80596299999999 66.75416,78.43459999999999 66.219145,78.072496 65.672642,77.722833 65.113585,77.38886699999999 64.54089,77.073954 63.953494,76.781561 63.350403,76.515294 62.732272,76.279466 62.104191,76.07732 61.4719,75.906295 60.837648,75.761815 60.202979,75.639246 59.569312,75.53408599999999 58.937996,75.441976 58.310364,75.358699 57.588865999999996,75.267704 56.853705,75.32164399999999 56.212959,75.372666 55.568388999999996,75.432109 54.921142,75.504142 54.272369,75.59307299999999 53.623267,75.703347 52.975138,75.83954399999999 52.329549,76.00634 51.690687,76.20758599999999 51.064420999999996,76.442509 50.453056000000004,76.70685599999999 49.855998,76.997118 49.272416,77.309958 48.701428,77.642151 48.142136,77.99057599999999 47.593655,78.352193 47.055133999999995,78.72402699999999 46.525757999999996,79.103155 46.003939,79.487304 45.486721,79.87699699999999 44.973493,80.275463 44.466093,80.684888 43.966735,81.10725099999999 43.477689999999996,81.544568 43.001304,81.99888 42.540016,82.472229 42.096375,82.966628 41.67354,83.48342799999999 41.277187,84.018686 40.907416,84.561902 40.558218,85.105098 40.044742,85.927312 44.648279,137.272317" stroke="#1f6fb2" stroke-width="0.1" /><text fill="#0a3d62" font-family="sans-serif" font-size="1.6" text-anchor="middle" x="57.567113" y="106.2700105">04</text><polygon fill="#cfe3f7" fill-opacity="0.5" points="54.0,150.971005 53.54488,150.28434199999998 53.256333999999995,149.848727 52.967847,149.41266099999999 52.679368,148.975797 52.390845,148.53778899999998 52.102226,148.098289 51.81346,147.656951 51.524504,147.21344399999998 51.235746,146.76805299999998 50.948979,146.32182899999998 50.666720999999995,145.87536899999998 50.391082,145.428621 50.124128999999996,144.981539 49.867903,144.534122 49.624413000000004,144.08641 49.39562,143.638475 49.18343,143.19041299999998 48.989674,142.742325 48.816095000000004,142.294299 48.664342000000005,141.846373 48.535945,141.39844499999998 48.431893,140.948557 48.351451,140.492776 48.292833,140.02890599999998 48.254642000000004,139.55688099999998 48.203385999999995,138.272317 29.0,138.272317 29.0,198.272317 54.0,198.272317 54.0,150.971005 4.0,150.971005 4.455120000000001,150.28434199999998 4.743666000000001,149.848727 5.032153000000001,149.41266099999999 5.320632,148.975797 5.609155000000001,148.53778899999998 5.897773999999998,148.098289 6.186540000000001,147.656951 6.475496,147.21344399999998 6.764254000000001,146.76805299999998 7.051020999999999,146.32182899999998 7.333279000000001,145.87536899999998 7.608917999999999,145.428621 7.875871,144.981539 8.132097000000002,144.534122 8.375587,144.08641 8.604379999999999,143.638475 8.816569999999999,143.19041299999998 9.010326,142.742325 9.183905,142.294299 9.335657999999999,141.846373 9.464054999999998,141.39844499999998 9.568107000000001,140.948557 9.648549,140.492776 9.707166999999998,140.02890599999998 9.745358,139.55688099999998 9.796614000000002,138.272317 29.0,138.272317 29.0,198.272317 4.0,198.272317 4.0,150.971005" stroke="#1f6fb2" stroke-width="0.1" /><text fill="#0a3d62" font-family="sans-serif" font-size="1.6" text-anchor="middle" x="29.0" y="168.272317">02</text><polygon fill="#cfe3f7" fill-opacity="0.5" points="55.0,149.544222 62.0,153.954222 69.0,149.544222 69.0,138.272317 55.0,138.272317 55.0,149.544222" stroke="#1f6fb2" stroke-width="0.1" /><text fill="#0a3d62" font-family="sans-serif" font-size="1.6" text-anchor="middle" x="62.0" y="146.1132695">10</text><polygon fill="#cfe3f7" fill-opacity="0.5" points="70.0,150.52144399999997 70.029841,150.824424 70.132547,151.16299899999999 70.299332,151.475032 70.523786,151.74853099999999 70.797285,151.972985 71.109318,152.13977 71.447893,152.24247599999998 71.750873,152.272317 93.249127,152.272317 93.552107,152.24247599999998 93.890682,152.13977 94.202715,151.972985 94.476214,151.74853099999999 94.70066800000001,151.475032 94.867453,151.16299899999999 94.970159,150.824424 95.0,150.52144399999997 95.0,140.02319 94.970159,139.72020999999998 94.867453,139.381635 94.70066800000001,139.06960199999997 94.476214,138.796103 94.202715,138.57164899999998 93.890682,138.40486399999998 93.552107,138.302158 93.249127,138.272317 71.750873,138.272317 71.447893,138.302158 71.109318,138.40486399999998 70.797285,138.57164899999998 70.523786,138.796103 70.299332,139.06960199999997 70.132547,139.381635 70.029841,139.72020999999998 70.0,140.02319 70.0,150.52144399999997" stroke="#1f6fb2" stroke-width="0.1" /><text fill="#0a3d62" font-family="sans-serif" font-size="1.6" text-anchor="middle" x="82.5" y="145.272317">05</text><polygon fill="#cfe3f7" fill-opacity="0.5" points="4.0,211.52144399999997 4.029841,211.824424 4.132547,212.16299899999999 4.299332,212.475032 4.523786,212.74853099999999 4.7972850000000005,212.972985 5.109318,213.13977 5.4478930000000005,213.24247599999998 5.750873,213.272317 27.249127,213.272317 27.552107,213.24247599999998 27.890682,213.13977 28.202715,212.972985 28.476214,212.74853099999999 28.700668,212.475032 28.867453,212.16299899999999 28.970159,211.824424 29.0,211.52144399999997 29.0,201.02319 28.970159,200.72020999999998 28.867453,200.381635 28.700668,200.06960199999997 28.476214,199.796103 28.202715,199.57164899999998 27.890682,199.40486399999998 27.552107,199.302158 27.249127,199.272317 5.750873,199.272317 5.4478930000000005,199.302158 5.109318,199.40486399999998 4.7972850000000005,199.57164899999998 4.523786,199.796103 4.299332,200.06960199999997 4.132547,200.381635 4.029841,200.72020999999998 4.0,201.02319 4.0,211.52144399999997" stroke="#1f6fb2" stroke-width="0.1" /><text fill="#0a3d62" font-family="sans-serif" font-size="1.6" text-anchor="middle" x="16.5" y="206.272317">05</text><polygon fill="#cfe3f7" fill-opacity="0.5" points="69.109812,210.19838099999998 69.10827,209.71069999999997 69.12286,209.21571699999998 69.152042,208.713866 69.194218,208.205613 69.247736,207.69143799999998 69.310889,207.171822 69.381927,206.647235 69.459058,206.11812899999998 69.540457,205.58493199999998 69.74864600000001,204.25120299999998 56.845692,199.272317 56.206584,199.706428 56.003755,199.842917 55.803425000000004,199.975215 55.605097,200.10251399999999 55.408291,200.224064 55.212533,200.33917599999998 55.016683,200.44759399999998 54.818733,200.54986799999998 54.617676,200.64650699999999 54.4137,200.737418 54.207108000000005,200.822456 53.998204,200.90148 53.787293000000005,200.974357 53.574684000000005,201.040958 53.360684,201.101159 53.145601,201.154845 52.929643999999996,201.201926 52.712165999999996,201.242515 52.492015,201.27710199999999 52.268762,201.306177 52.042410000000004,201.33016199999997 51.81299,201.34948999999997 51.580557,201.36460899999997 51.345178000000004,201.375983 51.106932,201.38409499999997 50.865904,201.389443 50.622182,201.39254699999998 50.375856,201.393939 50.127012,201.394174 49.874323000000004,201.39381699999998 49.874323000000004,211.39381799999998 69.157512,211.39381799999998 69.109812,210.19838099999998 30.638834,210.19838099999998 30.640376,209.71069999999997 30.625786,209.21571699999998 30.596604,208.713866 30.554428,208.205613 30.50091,207.69143799999998 30.437757,207.171822 30.366719,206.647235 30.289588000000002,206.11812899999998 30.208189,205.58493199999998 30.0,204.25120299999998 42.902954,199.272317 43.542062,199.706428 43.744890999999996,199.842917 43.945221000000004,199.975215 44.143549,200.10251399999999 44.340355,200.224064 44.536113,200.33917599999998 44.731963,200.44759399999998 44.929913,200.54986799999998 45.130970000000005,200.64650699999999 45.334946,200.737418 45.541538,200.822456 45.750442,200.90148 45.961353,200.974357 46.173962,201.040958 46.387962,201.101159 46.603045,201.154845 46.819002,201.201926 47.03648,201.242515 47.256631,201.27710199999999 47.479884,201.306177 47.706236000000004,201.33016199999997 47.935656,201.34948999999997 48.168089,201.36460899999997 48.403468000000004,201.375983 48.641714,201.38409499999997 48.882742,201.389443 49.126464,201.39254699999998 49.37279,201.393939 49.621634,201.394174 49.874323000000004,201.39381699999998 49.874323000000004,211.39381799999998 30.591134,211.39381799999998 30.638834,210.19838099999998" stroke="#1f6fb2" stroke-width="0.1" /><text fill="#0a3d62" font-family="sans-serif" font-size="1.6" text-anchor="middle" x="49.874323000000004" y="205.3330675">03</text><polygon fill="#cfe3f7" fill-opacity="0.5" points="26.797608,221.558302 27.33313,221.672742 27.868735,221.78065999999998 28.40442,221.882052 28.940181,221.976917 29.476011999999997,222.06525 30.011910999999998,222.14705099999998 30.547871,222.22231599999998 31.083889,222.291044 31.619958999999998,222.353232 32.156078,222.40887999999998 32.692239,222.45798399999998 33.228437,222.500544 33.764668,222.53655899999998 34.300926,222.566027 34.837205,222.588947 35.373501,222.60531999999998 35.909808,222.615143 36.44612,222.618418 36.982432,222.615143 37.518739,222.60531999999998 38.055035,222.588947 38.591314,222.566027 39.127572,222.53655899999998 39.663803,222.500544 40.200001,222.45798399999998 40.736162,222.40887999999998 41.272281,222.353232 41.808351,222.291044 42.344369,222.22231599999998 42.880329,222.14705099999998 43.416228000000004,222.06525 43.952059,221.976917 44.48782,221.882052 45.023505,221.78065999999998 45.559110000000004,221.672742 46.094632000000004,221.558302 46.630067,221.437342 47.92816,221.12823699999998 47.92816,214.272317 46.178049,214.689056 45.665279999999996,214.80489599999999 45.152598,214.91445599999997 44.639999,215.01773799999998 44.12748,215.114746 43.615037,215.205481 43.102664000000004,215.28994799999998 42.590359,215.368147 42.078115,215.440082 41.565929,215.505754 41.053795,215.56516599999998 40.541709999999995,215.618318 40.029667,215.665214 39.517661,215.705854 39.005688,215.74023899999997 38.493742,215.76837099999997 37.981817,215.79025099999998 37.469909,215.80587799999998 36.958012,215.81525499999998 36.44612,215.81838 35.934228,215.81525499999998 35.422331,215.80587799999998 34.910423,215.79025099999998 34.398498000000004,215.76837099999997 33.886551999999995,215.74023899999997 33.374579,215.705854 32.862573,215.665214 32.35053,215.618318 31.838445,215.56516599999998 31.326311,215.505754 30.814124999999997,215.440082 30.301880999999998,215.368147 29.789576,215.28994799999998 29.277203,215.205481 28.76476,215.114746 28.252240999999998,215.01773799999998 27.739642,214.91445599999997 27.22696,214.80489599999999 26.714191,214.689056 25.96408,214.510439 25.96408,221.366359 26.262173,221.437342 26.797608,221.558302 25.130551999999998,221.558302 24.595029999999998,221.672742 24.059424999999997,221.78065999999998 23.52374,221.882052 22.987979,221.976917 22.452148,222.06525 21.916249,222.14705099999998 21.380288999999998,222.22231599999998 20.844271,222.291044 20.308201,222.353232 19.772081999999997,222.40887999999998 19.235920999999998,222.45798399999998 18.699723,222.500544 18.163491999999998,222.53655899999998 17.627234,222.566027 17.090955,222.588947 16.554659,222.60531999999998 16.018352,222.615143 15.48204,222.618418 14.945727999999999,222.615143 14.409421,222.60531999999998 13.873125,222.588947 13.336846,222.566027 12.800588,222.53655899999998 12.264356999999999,222.500544 11.728159,222.45798399999998 11.191998,222.40887999999998 10.655878999999999,222.353232 10.119808999999998,222.291044 9.583790999999998,222.22231599999998 9.047830999999999,222.14705099999998 8.511931999999998,222.06525 7.976101,221.976917 7.440339999999999,221.882052 6.904654999999998,221.78065999999998 6.369049999999998,221.672742 5.833527999999998,221.558302 5.298092999999998,221.437342 4.0,221.12823699999998 4.0,214.272317 5.750111,214.689056 6.262879999999999,214.80489599999999 6.775562000000001,214.91445599999997 7.288160999999999,215.01773799999998 7.80068,215.114746 8.313123000000001,215.205481 8.825495999999998,215.28994799999998 9.337800999999999,215.368147 9.850044999999998,215.440082 10.362231,215.505754 10.874365,215.56516599999998 11.38645,215.618318 11.898492999999998,215.665214 12.410499,215.705854 12.922471999999999,215.74023899999997 13.434417999999999,215.76837099999997 13.946342999999999,215.79025099999998 14.458250999999999,215.80587799999998 14.970148,215.81525499999998 15.48204,215.81838 15.993932,215.81525499999998 16.505829,215.80587799999998 17.017736999999997,215.79025099999998 17.529662,215.76837099999997 18.041608,215.74023899999997 18.553581,215.705854 19.065587,215.665214 19.57763,215.618318 20.089714999999998,215.56516599999998 20.601848999999998,215.505754 21.114035,215.440082 21.626279,215.368147 22.138583999999998,215.28994799999998 22.650957,215.205481 23.1634,215.114746 23.675919,215.01773799999998 24.188518,214.91445599999997 24.7012,214.80489599999999 25.213969,214.689056 25.96408,214.510439 25.96408,221.366359 25.665986999999998,221.437342 25.130551999999998,221.558302" stroke="#1f6fb2" stroke-width="0.1" /><text fill="#0a3d62" font-family="sans-serif" font-size="1.6" text-anchor="middle" x="25.96408" y="218.44536749999997">08</text><polygon fill="#cfe3f7" fill-opacity="0.5" points="48.92816,217.92144399999998 48.950314999999996,218.14638699999998 49.030257999999996,218.409925 49.160078999999996,218.65280299999998 49.334789,218.86568799999998 49.547674,219.04039799999998 49.790552,219.17021899999997 50.054089999999995,219.250162 50.279033,219.272317 61.577287,219.272317 61.802229999999994,219.250162 62.065768,219.17021899999997 62.308645999999996,219.04039799999998 62.521530999999996,218.86568799999998 62.696241,218.65280299999998 62.826062,218.409925 62.906005,218.14638699999998 62.92816,217.92144399999998 62.92816,215.62319 62.906005,215.398247 62.826062,215.134709 62.696241,214.891831 62.521530999999996,214.678946 62.308645999999996,214.504236 62.065768,214.374415 61.802229999999994,214.29447199999998 61.577287,214.272317 50.279033,214.272317 50.054089999999995,214.29447199999998 49.790552,214.374415 49.547674,214.504236 49.334789,214.678946 49.160078999999996,214.891831 49.030257999999996,215.134709 48.950314999999996,215.398247 48.92816,215.62319 48.92816,217.92144399999998" stroke="#1f6fb2" stroke-width="0.1" /><text fill="#0a3d62" font-family="sans-serif" font-size="1.6" text-anchor="middle" x="55.92816" y="216.772317">06</text><polygon fill="#cfe3f7" fill-opacity="0.5" points="63.92816,217.92144399999998 63.950314999999996,218.14638699999998 64.030258,218.409925 64.160079,218.65280299999998 64.334789,218.86568799999998 64.547674,219.04039799999998 64.790552,219.17021899999997 65.05409,219.250162 65.279033,219.272317 76.577287,219.272317 76.80223,219.250162 77.06576799999999,219.17021899999997 77.308646,219.04039799999998 77.521531,218.86568799999998 77.696241,218.65280299999998 77.826062,218.409925 77.906005,218.14638699999998 77.92815999999999,217.92144399999998 77.92815999999999,215.62319 77.906005,215.398247 77.826062,215.134709 77.696241,214.891831 77.521531,214.678946 77.308646,214.504236 77.06576799999999,214.374415 76.80223,214.29447199999998 76.577287,214.272317 65.279033,214.272317 65.05409,214.29447199999998 64.790552,214.374415 64.547674,214.504236 64.334789,214.678946 64.160079,214.891831 64.030258,215.134709 63.950314999999996,215.398247 63.92816,215.62319 63.92816,217.92144399999998" stroke="#1f6fb2" stroke-width="0.1" /><text fill="#0a3d62" font-family="sans-serif" font-size="1.6" text-anchor="middle" x="70.92815999999999" y="216.772317">06</text></svg>