<?xml version="1.0" encoding="utf-8" ?>
<svg baseProfile="full" height="118.257455cm" version="1.1" viewBox="0 0 118.0 118.257455" width="118.0cm" xmlns="http://www.w3.org/2000/svg" xmlns:ev="http://www.w3.org/2001/xml-events" xmlns:xlink="http://www.w3.org/1999/xlink"><defs /><rect fill="#f7f3ea" height="110.257455" stroke="#333" stroke-width="0.15" width="110.0" x="4.0" y="4.0" /><text fill="#000" font-family="sans-serif" font-size="1.4" x="4.0" y="3.0">PLANO DE CORTE — ancho 110 cm — largo 1.10 m</text><polygon fill="#cfe3f7" fill-opacity="0.5" points="8.101318,66.00359399999999 33.95138,66.00359399999999 38.060759000000004,13.323665 37.324195,12.583144 36.904945999999995,12.166549 36.477041,11.75121 36.038792,11.34058 35.591009,10.938876 35.136033,10.547537 34.674742,10.16598 34.207718,9.793364 33.735531,9.428844 33.258739,9.071578 32.777889,8.720724 32.293519,8.375443 31.806133,8.034885 31.315243000000002,7.697569 30.818648,7.362601 30.314389,7.031548 29.801676999999998,6.706991 29.279761,6.391611 28.747852,6.088133 28.205140999999998,5.799352 27.650814,5.528138 27.084082,5.277456 26.504258999999998,5.050387000000001 25.912793999999998,4.850729 25.314779,4.680252 24.714557,4.536151 24.113649,4.414488 23.513231,4.311355 22.914392,4.222953 22.318172,4.145593 21.725604,4.075702 21.050142,4.0 20.363308,4.044157 19.759833,4.08631 19.152670999999998,4.135506 18.542706,4.195236 17.930823,4.269096 17.317937,4.36079 16.705035,4.474127 16.093231,4.613012 15.485257,4.780999 14.886354,4.978663 14.299529,5.202616 13.724599999999999,5.449848 13.160948,5.717555 12.607905,6.003019 12.064783,6.303598 11.530891,6.616722 11.00556,6.939874 10.488145,7.2705839999999995 9.977673,7.606654000000001 9.471311,7.947855000000001 8.967527,8.297102 8.467646,8.656963000000001 7.973841,9.029521 7.488343,9.416908 7.013456,9.821291 6.551584,10.244858 6.105252999999999,10.689781 5.677441,11.157833 5.27422,11.646064 4.897651,12.143974 4.542603,12.642255 4.0,13.427 8.101318,66.00359399999999" stroke="#1f6fb2" stroke-width="0.1" /><text fill="#0a3d62" font-family="sans-serif" font-size="1.6" text-anchor="middle" x="21.030379500000002" y="35.001796999999996">03</text><polygon fill="#cfe3f7" fill-opacity="0.5" points="43.162077000000004,66.00359399999999 69.012139,66.00359399999999 73.12151800000001,13.323665 72.38495400000001,12.583144 71.965705,12.166549 71.5378,11.75121 71.099551,11.34058 70.651768,10.938876 70.196792,10.547537 69.735501,10.16598 69.268477,9.793364 68.79629,9.428844 68.31949800000001,9.071578 67.838648,8.720724 67.35427800000001,8.375443 66.866892,8.034885 66.376002,7.697569 65.879407,7.362601 65.375148,7.031548 64.862436,6.706991 64.34052,6.391611 63.808611000000006,6.088133 63.2659,5.799352 62.711573,5.528138 62.144841,5.277456 61.565018,5.050387000000001 60.973553,4.850729 60.375538000000006,4.680252 59.775316000000004,4.536151 59.174408,4.414488 58.57399000000001,4.311355 57.975151000000004,4.222953 57.37893100000001,4.145593 56.78636300000001,4.075702 56.110901000000005,4.0 55.42406700000001,4.044157 54.820592000000005,4.08631 54.21343,4.135506 53.603465,4.195236 52.99158200000001,4.269096 52.378696000000005,4.36079 51.765794,4.474127 51.15399000000001,4.613012 50.54601600000001,4.780999 49.947113,4.978663 49.360288000000004,5.202616 48.785359,5.449848 48.221707,5.717555 47.66866400000001,6.003019 47.125542,6.303598 46.59165,6.616722 46.06631900000001,6.939874 45.54890400000001,7.2705839999999995 45.038432,7.606654000000001 44.532070000000004,7.947855000000001 44.02828600000001,8.297102 43.52840500000001,8.656963000000001 43.034600000000005,9.029521 42.549102000000005,9.416908 42.074215,9.821291 41.612343,10.244858 41.166012,10.689781 40.738200000000006,11.157833 40.334979000000004,11.646064 39.95841,12.143974 39.603362000000004,12.642255 39.060759000000004,13.427 43.162077000000004,66.00359399999999" stroke="#1f6fb2" stroke-width="0.1" /><text fill="#0a3d62" font-family="sans-serif" font-size="1.6" text-anchor="middle" x="56.09113850000001" y="35.001796999999996">03</text><polygon fill="#cfe3f7" fill-opacity="0.5" points="39.658234,105.98591199999998 40.336925,114.257455 53.273553,114.257455 53.411522000000005,111.641302 53.501537,109.973883 53.595625,108.30801699999999 53.695848999999995,106.64385899999999 53.804266,104.981563 53.922944,103.321074 54.053315999999995,101.66145399999999 54.194082,100.001572 54.343209,98.341071 54.498643,96.67979799999999 54.658327,95.01759799999999 54.910879,92.422551 47.823212,91.257455 55.649802,89.97089299999999 54.314026,88.25867699999999 54.013248000000004,87.874011 53.710239,87.488238 53.404225,87.10125199999999 53.094433,86.712953 52.780094000000005,86.323251 52.460441,85.93205999999999 52.134710999999996,85.539301 51.802143,85.144902 51.462590000000006,84.749501 51.118552,84.35524 50.774981,83.96345399999998 50.435749,83.57384099999999 50.104516000000004,83.18601999999998 49.784942,82.79978799999999 49.480663,82.415116 49.195248,82.03216099999999 48.93215,81.65125599999999 48.694617,81.272894 48.485596,80.89766599999999 48.307615999999996,80.52614299999999 48.162687000000005,80.158671 48.052238,79.79494299999999 47.976511,79.43033 47.933761000000004,79.055696 47.921795,78.66561499999999 47.939248,78.259581 47.984586,77.83809799999999 48.055927,77.40218599999999 48.15102,76.95312999999999 48.267278000000005,76.49230399999999 48.401849,76.021057 48.551676,75.54065 48.713555,75.05221999999999 48.884177,74.556772 49.354219,73.21696999999999 36.673315,67.00359399999999 35.968,67.743747 35.767846,67.954247 35.567403999999996,68.165977 35.366910000000004,68.379161 35.166604,68.594021 34.966729,68.81078699999999 34.767528999999996,69.029686 34.569255,69.25094999999999 34.372158999999996,69.47481099999999 34.176497,69.701501 33.982529,69.931255 33.79052,70.164305 33.600738,70.400887 33.413711,70.640903 33.230779999999996,70.882741 33.052478,71.124034 32.878138,71.363582 32.706878,71.600546 32.537862000000004,71.834104 32.370299,72.06344999999999 32.203444000000005,72.28779499999999 32.036596,72.506373 31.869095,72.71844599999999 31.700315,72.923316 31.52966,73.120336 31.356548,73.30891799999999 31.180276,73.48867299999999 30.998473,73.66094799999999 30.808252,73.828746 30.608888,73.993865 30.400994,74.156939 30.185294,74.31859899999999 29.962567,74.47951499999999 29.824901,74.576263 29.824901,114.257455 38.979544000000004,114.257455 39.658234,105.98591199999998 19.991568,105.98591199999998 19.312877,114.257455 6.376249000000001,114.257455 6.23828,111.641302 6.148265000000002,109.973883 6.054176999999999,108.30801699999999 5.953953000000002,106.64385899999999 5.845535999999999,104.981563 5.726858,103.321074 5.596486000000002,101.66145399999999 5.4557199999999995,100.001572 5.3065929999999994,98.341071 5.151159,96.67979799999999 4.991475000000001,95.01759799999999 4.738923,92.422551 11.82659,91.257455 4.0,89.97089299999999 5.335775999999999,88.25867699999999 5.636554,87.874011 5.939563,87.488238 6.245577000000001,87.10125199999999 6.555368999999999,86.712953 6.869707999999999,86.323251 7.189361000000002,85.93205999999999 7.515091000000002,85.539301 7.847659,85.144902 8.187211999999999,84.749501 8.53125,84.35524 8.874821,83.96345399999998 9.214053,83.57384099999999 9.545286,83.18601999999998 9.86486,82.79978799999999 10.169139000000001,82.415116 10.454554000000002,82.03216099999999 10.717652000000001,81.65125599999999 10.955185,81.272894 11.164206,80.89766599999999 11.342186000000002,80.52614299999999 11.487115,80.158671 11.597564000000002,79.79494299999999 11.673290999999999,79.43033 11.716041,79.055696 11.728007000000002,78.66561499999999 11.710554000000002,78.259581 11.665216000000001,77.83809799999999 11.593875,77.40218599999999 11.498782000000002,76.95312999999999 11.382524,76.49230399999999 11.247952999999999,76.021057 11.098126,75.54065 10.936247000000002,75.05221999999999 10.765625,74.556772 10.295583,73.21696999999999 22.976487,67.00359399999999 23.681802,67.743747 23.881956000000002,67.954247 24.082398,68.165977 24.282892,68.379161 24.483198,68.594021 24.683073,68.81078699999999 24.882273,69.029686 25.080547,69.25094999999999 25.277643,69.47481099999999 25.473305,69.701501 25.667273,69.931255 25.859282,70.164305 26.049064,70.400887 26.236091000000002,70.640903 26.419022000000002,70.882741 26.597324,71.124034 26.771664,71.363582 26.942924,71.600546 27.11194,71.834104 27.279503000000002,72.06344999999999 27.446358,72.28779499999999 27.613206,72.506373 27.780707,72.71844599999999 27.949487,72.923316 28.120142,73.120336 28.293254,73.30891799999999 28.469526000000002,73.48867299999999 28.651329,73.66094799999999 28.84155,73.828746 29.040914,73.993865 29.248808,74.156939 29.464508000000002,74.31859899999999 29.687235,74.47951499999999 29.824901,74.576263 29.824901,114.257455 20.670258,114.257455 19.991568,105.98591199999998" stroke="#1f6fb2" stroke-width="0.1" /><text fill="#0a3d62" font-family="sans-serif" font-size="1.6" text-anchor="middle" x="29.824901" y="90.63052449999999">01</text><polygon fill="#cfe3f7" fill-opacity="0.5" points="91.128139,105.23618199999999 91.74535700000001,110.173924 105.126791,110.173924 105.26476,107.557771 105.35477499999999,105.890352 105.448863,104.22448599999998 105.549087,102.560328 105.657504,100.898032 105.776182,99.23754299999999 105.906554,97.577923 106.04732000000001,95.91804099999999 106.196447,94.25753999999999 106.35188099999999,92.596267 106.51156499999999,90.934067 106.70647600000001,88.931298 106.25482199999999,88.21157199999999 105.98412400000001,87.780357 105.71281200000001,87.348466 105.440621,86.915628 105.16728599999999,86.481574 104.89254299999999,86.04603399999999 104.61641399999999,85.60919 104.33810199999999,85.16993199999999 104.057421,84.728117 103.77593,84.285985 103.49549200000001,83.84369899999999 103.219052,83.402041 102.948958,82.96094599999999 102.687543,82.52041299999999 102.437105,82.080503 102.199906,81.64133299999999 101.97815,81.203071 101.773966,80.765919 101.589387,80.33009799999999 101.426327,79.89581299999999 101.286566,79.46320899999999 101.17174,79.03231199999999 101.08327700000001,78.60260399999999 101.021839,78.17031599999999 100.98601099999999,77.73054199999999 100.974001,77.28159799999999 100.984194,76.823567 101.01490100000001,76.35674999999999 101.064321,75.881598 101.13054199999999,75.39864899999999 101.21153699999999,74.90848299999999 101.305183,74.41168499999999 101.409272,73.90882199999999 101.521524,73.400427 101.639599,72.88698699999999 101.96171799999999,71.513607 95.002409,68.897994 94.799251,69.272651 88.762016,67.00359399999999 88.114914,67.525077 87.915271,67.684508 87.71775,67.83939299999999 87.521733,67.988924 87.326631,68.13234999999999 87.13186400000001,68.26897799999999 86.936504,68.39841799999999 86.738658,68.52111799999999 86.537165,68.63765299999999 86.332165,68.74787599999999 86.12403900000001,68.85150399999999 85.91316900000001,68.94826099999999 85.699937,69.03788599999999 85.484727,69.12012499999999 85.26792,69.19474 85.049894,69.26150399999999 84.830982,69.32021399999999 84.610609,69.37090199999999 84.38717199999999,69.41412399999999 84.159743,69.45056399999999 83.928281,69.48073099999999 83.692828,69.50514 83.453461,69.524327 83.210289,69.53885199999999 82.963436,69.54930099999999 82.713041,69.556288 82.459247,69.560453 82.202197,69.562463 81.942032,69.56300999999999 81.678139,69.56281299999999 81.678139,110.173924 90.510921,110.173924 91.128139,105.23618199999999 72.228139,105.23618199999999 71.610921,110.173924 58.229487000000006,110.173924 58.091518,107.557771 58.001503,105.890352 57.907415,104.22448599999998 57.807191,102.560328 57.698774,100.898032 57.580096,99.23754299999999 57.449724,97.577923 57.308958000000004,95.91804099999999 57.159831,94.25753999999999 57.004397,92.596267 56.844713,90.934067 56.649802,88.931298 57.101456,88.21157199999999 57.372154,87.780357 57.643466000000004,87.348466 57.915657,86.915628 58.188992,86.481574 58.463735,86.04603399999999 58.739864,85.60919 59.018176,85.16993199999999 59.298857,84.728117 59.580348,84.285985 59.860786000000004,83.84369899999999 60.137226,83.402041 60.40732,82.96094599999999 60.668735,82.52041299999999 60.919173,82.080503 61.156372000000005,81.64133299999999 61.378128000000004,81.203071 61.582312,80.765919 61.766891,80.33009799999999 61.929951,79.89581299999999 62.069712,79.46320899999999 62.184538,79.03231199999999 62.273001,78.60260399999999 62.334439,78.17031599999999 62.370267,77.73054199999999 62.382277,77.28159799999999 62.372084,76.823567 62.341377,76.35674999999999 62.291957,75.881598 62.225736,75.39864899999999 62.144741,74.90848299999999 62.051095000000004,74.41168499999999 61.947006,73.90882199999999 61.834754000000004,73.400427 61.716679,72.88698699999999 61.39456,71.513607 68.353869,68.897994 68.557027,69.272651 74.594262,67.00359399999999 75.241364,67.525077 75.441007,67.684508 75.63852800000001,67.83939299999999 75.834545,67.988924 76.029647,68.13234999999999 76.224414,68.26897799999999 76.419774,68.39841799999999 76.61762,68.52111799999999 76.819113,68.63765299999999 77.024113,68.74787599999999 77.23223899999999,68.85150399999999 77.44310899999999,68.94826099999999 77.656341,69.03788599999999 77.871551,69.12012499999999 78.088358,69.19474 78.30638400000001,69.26150399999999 78.525296,69.32021399999999 78.745669,69.37090199999999 78.96910600000001,69.41412399999999 79.196535,69.45056399999999 79.427997,69.48073099999999 79.66345,69.50514 79.902817,69.524327 80.145989,69.53885199999999 80.392842,69.54930099999999 80.643237,69.556288 80.897031,69.560453 81.154081,69.562463 81.414246,69.56300999999999 81.678139,69.56281299999999 81.678139,110.173924 72.845357,110.173924 72.228139,105.23618199999999" stroke="#1f6fb2" stroke-width="0.1" /><text fill="#0a3d62" font-family="sans-serif" font-size="1.6" text-anchor="middle" x="81.678139" y="88.588759">02</text></svg>