<?xml version="1.0" encoding="utf-8" ?>
<svg baseProfile="full" height="145.33034600000002cm" version="1.1" viewBox="0 0 168.0 145.33034600000002" width="168.0cm" xmlns="http://www.w3.org/2000/svg" xmlns:ev="http://www.w3.org/2001/xml-events" xmlns:xlink="http://www.w3.org/1999/xlink"><defs /><rect fill="#f7f3ea" height="137.33034600000002" stroke="#333" stroke-width="0.15" width="160.0" x="4.0" y="4.0" /><text fill="#000" font-family="sans-serif" font-size="1.4" x="4.0" y="3.0">PLANO DE CORTE — ancho 160 cm — largo 1.37 m</text><polygon fill="#cfe3f7" fill-opacity="0.5" points="4.0,74.330346 31.7,74.330346 31.7,26.954639999999998 31.100068,26.268932999999997 30.746677,25.865762 30.390684,25.461115 30.03155,25.055128 29.668433,24.647598 29.300496,24.238326999999998 28.926906,23.827123999999998 28.546843,23.413815 28.160414,22.99919 27.771075,22.585362 27.384597,22.173316 27.005541,21.76258 26.638339,21.352746 26.287416999999998,20.943626 25.957145,20.535252 25.651775999999998,20.127888 25.375339999999998,19.722003 25.131521,19.318219 24.923496,18.917167 24.753785999999998,18.519202 24.623387,18.121567 24.5304,17.716204 24.471646,17.296794 24.445508,16.861875 24.450623999999998,16.411193 24.485547999999998,15.945126 24.54861,15.464501 24.63787,14.970416 24.751132,14.464094000000001 24.885973,13.94679 25.039794999999998,13.419729 25.209865,12.884069 25.393345999999998,12.340886 25.587334,11.791165 25.788868,11.2358 26.320404,9.790896 13.051794000000001,4.0 6.020795,21.730345999999997 4.0,21.730345999999997 4.0,74.330346" stroke="#1f6fb2" stroke-width="0.1" /><text fill="#0a3d62" font-family="sans-serif" font-size="1.6" text-anchor="middle" x="17.85" y="39.165173">01</text><polygon fill="#cfe3f7" fill-opacity="0.5" points="32.7,74.330346 60.400000000000006,74.330346 60.400000000000006,26.954639999999998 59.800068,26.268932999999997 59.446677,25.865762 59.090684,25.461115 58.73155,25.055128 58.368433,24.647598 58.000496,24.238326999999998 57.626906000000005,23.827123999999998 57.246843,23.413815 56.860414000000006,22.99919 56.471075,22.585362 56.084597,22.173316 55.705541000000004,21.76258 55.338339000000005,21.352746 54.987417,20.943626 54.657145,20.535252 54.351776,20.127888 54.07534,19.722003 53.831521,19.318219 53.623496,18.917167 53.453786,18.519202 53.323387000000004,18.121567 53.2304,17.716204 53.171646,17.296794 53.14550800000001,16.861875 53.150624,16.411193 53.185548,15.945126 53.24861,15.464501 53.33787,14.970416 53.451132,14.464094000000001 53.585973,13.94679 53.739795,13.419729 53.909865,12.884069 54.093346,12.340886 54.287334,11.791165 54.488868000000004,11.2358 55.020404,9.790896 41.751794000000004,4.0 34.720795,21.730345999999997 32.7,21.730345999999997 32.7,74.330346" stroke="#1f6fb2" stroke-width="0.1" /><text fill="#0a3d62" font-family="sans-serif" font-size="1.6" text-anchor="middle" x="46.550000000000004" y="39.165173">01</text><polygon fill="#cfe3f7" fill-opacity="0.5" points="61.4,74.267704 69.40722,74.267704 69.001177,17.827772 73.22492199999999,5.262131 70.700661,4.0 70.004548,4.928368 69.808809,5.189983 69.612994,5.452847 69.417382,5.717166 69.222256,5.98315 69.0279,6.251011999999999 68.834603,6.520965 68.642656,6.793221 68.452355,7.067997 68.26399599999999,7.345508 68.077882,7.6259689999999996 67.894319,7.909597 67.713615,8.196606 67.536242,8.486951000000001 67.363303,8.779094 67.195078,9.070626 67.03075,9.360295 66.869275,9.647313 66.709653,9.930903 66.550927,10.210297 66.392184,10.484739000000001 66.232553,10.753489 66.071203,11.015827 65.907341,11.271062 65.740206,11.518545 65.569058,11.757678 65.39316099999999,11.987943000000001 65.210869,12.210004 65.019404,12.426846 64.81765,12.641195 64.606278,12.853889 64.386212,13.065588 64.158442,13.27698 63.924011,13.488792 63.722425,13.667704 61.4,13.667704 61.4,74.267704" stroke="#1f6fb2" stroke-width="0.1" /><text fill="#0a3d62" font-family="sans-serif" font-size="1.6" text-anchor="middle" x="67.312461" y="39.133852">09</text><polygon fill="#cfe3f7" fill-opacity="0.5" points="74.22492199999999,74.267704 82.232142,74.267704 81.826099,17.827772 86.049844,5.262131 83.525583,4.0 82.82946999999999,4.928368 82.633731,5.189983 82.43791599999999,5.452847 82.24230399999999,5.717166 82.04717799999999,5.98315 81.85282199999999,6.251011999999999 81.65952499999999,6.520965 81.46757799999999,6.793221 81.277277,7.067997 81.08891799999999,7.345508 80.90280399999999,7.6259689999999996 80.719241,7.909597 80.53853699999999,8.196606 80.36116399999999,8.486951000000001 80.18822499999999,8.779094 80.02,9.070626 79.855672,9.360295 79.69419699999999,9.647313 79.53457499999999,9.930903 79.37584899999999,10.210297 79.21710599999999,10.484739000000001 79.057475,10.753489 78.896125,11.015827 78.73226299999999,11.271062 78.56512799999999,11.518545 78.39398,11.757678 78.218083,11.987943000000001 78.03579099999999,12.210004 77.844326,12.426846 77.64257199999999,12.641195 77.43119999999999,12.853889 77.21113399999999,13.065588 76.983364,13.27698 76.748933,13.488792 76.54734699999999,13.667704 74.22492199999999,13.667704 74.22492199999999,74.267704" stroke="#1f6fb2" stroke-width="0.1" /><text fill="#0a3d62" font-family="sans-serif" font-size="1.6" text-anchor="middle" x="80.137383" y="39.133852">09</text><polygon fill="#cfe3f7" fill-opacity="0.5" points="91.653381,66.004613 117.48208499999998,66.004613 122.09458599999999,14.559622999999998 121.38824299999999,13.774989999999999 120.96743599999999,13.312847999999999 120.53796,12.851835999999999 120.09776299999999,12.395239 119.647089,11.9474 119.18816699999999,11.51006 118.721992,11.082705 118.24918399999999,10.664458 117.770352,10.254439 117.286091,9.851766999999999 116.79698599999999,9.455561 116.30361299999998,9.064943 115.806533,8.679036 115.30564,8.296466 114.798901,7.915755 114.28382099999999,7.538259 113.75926199999999,7.1668959999999995 113.22424699999999,6.804792 112.67774399999999,6.4551289999999995 112.118687,6.121163 111.545992,5.80625 110.958596,5.513857 110.355505,5.24759 109.73737399999999,5.011762 109.109293,4.809616 108.477002,4.638591 107.84275,4.494111 107.20808099999999,4.371542 106.57441399999999,4.266382 105.94309799999999,4.174272 105.31546599999999,4.0909949999999995 104.59396799999999,4.0 103.85880699999998,4.05394 103.21806099999999,4.104962 102.57349099999999,4.164405 101.926244,4.236438 101.27747099999999,4.325369 100.62836899999999,4.435643 99.98024,4.57184 99.334651,4.738636 98.69578899999999,4.939882 98.06952299999999,5.174805 97.458158,5.439152 96.8611,5.729414 96.27751799999999,6.042254 95.70652999999999,6.374447 95.14723799999999,6.722872 94.59875699999999,7.084489 94.06023599999999,7.456322999999999 93.53085999999999,7.835451 93.009041,8.2196 92.491823,8.609293000000001 91.978595,9.007759 91.471195,9.417183999999999 90.971837,9.839547 90.48279199999999,10.276864 90.006406,10.731176 89.54511799999999,11.204525 89.10147699999999,11.698924 88.678642,12.215724 88.28228899999999,12.750982 87.91251799999999,13.294198000000002 87.56331999999999,13.837394 87.049844,14.659607999999999 91.653381,66.004613" stroke="#1f6fb2" stroke-width="0.1" /><text fill="#0a3d62" font-family="sans-serif" font-size="1.6" text-anchor="middle" x="104.572215" y="35.0023065">04</text><polygon fill="#cfe3f7" fill-opacity="0.5" points="127.698123,66.004613 153.526827,66.004613 158.13932799999998,14.559622999999998 157.43298499999997,13.774989999999999 157.012178,13.312847999999999 156.58270199999998,12.851835999999999 156.142505,12.395239 155.69183099999998,11.9474 155.232909,11.51006 154.76673399999999,11.082705 154.293926,10.664458 153.815094,10.254439 153.33083299999998,9.851766999999999 152.841728,9.455561 152.348355,9.064943 151.851275,8.679036 151.350382,8.296466 150.843643,7.915755 150.328563,7.538259 149.804004,7.1668959999999995 149.26898899999998,6.804792 148.722486,6.4551289999999995 148.163429,6.121163 147.590734,5.80625 147.00333799999999,5.513857 146.40024699999998,5.24759 145.782116,5.011762 145.154035,4.809616 144.52174399999998,4.638591 143.887492,4.494111 143.25282299999998,4.371542 142.619156,4.266382 141.98784,4.174272 141.360208,4.0909949999999995 140.63871,4.0 139.903549,4.05394 139.262803,4.104962 138.618233,4.164405 137.97098599999998,4.236438 137.322213,4.325369 136.673111,4.435643 136.024982,4.57184 135.379393,4.738636 134.740531,4.939882 134.114265,5.174805 133.50289999999998,5.439152 132.905842,5.729414 132.32226,6.042254 131.751272,6.374447 131.19198,6.722872 130.643499,7.084489 130.104978,7.456322999999999 129.575602,7.835451 129.05378299999998,8.2196 128.536565,8.609293000000001 128.023337,9.007759 127.515937,9.417183999999999 127.016579,9.839547 126.52753399999999,10.276864 126.051148,10.731176 125.58985999999999,11.204525 125.14621899999999,11.698924 124.723384,12.215724 124.32703099999999,12.750982 123.95725999999999,13.294198000000002 123.60806199999999,13.837394 123.09458599999999,14.659607999999999 127.698123,66.004613" stroke="#1f6fb2" stroke-width="0.1" /><text fill="#0a3d62" font-family="sans-serif" font-size="1.6" text-anchor="middle" x="140.61695699999999" y="35.0023065">04</text><polygon fill="#cfe3f7" fill-opacity="0.5" points="54.0,88.02903400000001 53.54488,87.34237100000001 53.256333999999995,86.906756 52.967847,86.47069 52.679368,86.033826 52.390845,85.59581800000001 52.102226,85.156318 51.81346,84.71498 51.524504,84.27147300000001 51.235746,83.82608200000001 50.948979,83.37985800000001 50.666720999999995,82.93339800000001 50.391082,82.48665 50.124128999999996,82.039568 49.867903,81.592151 49.624413000000004,81.144439 49.39562,80.696504 49.18343,80.24844200000001 48.989674,79.800354 48.816095000000004,79.352328 48.664342000000005,78.904402 48.535945,78.456474 48.431893,78.006586 48.351451,77.55080500000001 48.292833,77.08693500000001 48.254642000000004,76.61491000000001 48.203385999999995,75.330346 29.0,75.330346 29.0,135.33034600000002 54.0,135.33034600000002 54.0,88.02903400000001 4.0,88.02903400000001 4.455120000000001,87.34237100000001 4.743666000000001,86.906756 5.032153000000001,86.47069 5.320632,86.033826 5.609155000000001,85.59581800000001 5.897773999999998,85.156318 6.186540000000001,84.71498 6.475496,84.27147300000001 6.764254000000001,83.82608200000001 7.051020999999999,83.37985800000001 7.333279000000001,82.93339800000001 7.608917999999999,82.48665 7.875871,82.039568 8.132097000000002,81.592151 8.375587,81.144439 8.604379999999999,80.696504 8.816569999999999,80.24844200000001 9.010326,79.800354 9.183905,79.352328 9.335657999999999,78.904402 9.464054999999998,78.456474 9.568107000000001,78.006586 9.648549,77.55080500000001 9.707166999999998,77.08693500000001 9.745358,76.61491000000001 9.796614000000002,75.330346 29.0,75.330346 29.0,135.33034600000002 4.0,135.33034600000002 4.0,88.02903400000001" stroke="#1f6fb2" stroke-width="0.1" /><text fill="#0a3d62" font-family="sans-serif" font-size="1.6" text-anchor="middle" x="29.0" y="105.330346">02</text><polygon fill="#cfe3f7" fill-opacity="0.5" points="55.0,86.60225100000001 62.0,91.012251 69.0,86.60225100000001 69.0,75.330346 55.0,75.330346 55.0,86.60225100000001" stroke="#1f6fb2" stroke-width="0.1" /><text fill="#0a3d62" font-family="sans-serif" font-size="1.6" text-anchor="middle" x="62.0" y="83.1712985">10</text><polygon fill="#cfe3f7" fill-opacity="0.5" points="70.0,87.57947300000001 70.029841,87.882453 70.132547,88.221028 70.299332,88.533061 70.523786,88.80656 70.797285,89.031014 71.109318,89.197799 71.447893,89.300505 71.750873,89.330346 93.249127,89.330346 93.552107,89.300505 93.890682,89.197799 94.202715,89.031014 94.476214,88.80656 94.70066800000001,88.533061 94.867453,88.221028 94.970159,87.882453 95.0,87.57947300000001 95.0,77.081219 94.970159,76.778239 94.867453,76.43966400000001 94.70066800000001,76.12763100000001 94.476214,75.854132 94.202715,75.62967800000001 93.890682,75.46289300000001 93.552107,75.36018700000001 93.249127,75.330346 71.750873,75.330346 71.447893,75.36018700000001 71.109318,75.46289300000001 70.797285,75.62967800000001 70.523786,75.854132 70.299332,76.12763100000001 70.132547,76.43966400000001 70.029841,76.778239 70.0,77.081219 70.0,87.57947300000001" stroke="#1f6fb2" stroke-width="0.1" /><text fill="#0a3d62" font-family="sans-serif" font-size="1.6" text-anchor="middle" x="82.5" y="82.330346">05</text><polygon fill="#cfe3f7" fill-opacity="0.5" points="96.0,87.57947300000001 96.029841,87.882453 96.132547,88.221028 96.299332,88.533061 96.523786,88.80656 96.797285,89.031014 97.109318,89.197799 97.447893,89.300505 97.750873,89.330346 119.249127,89.330346 119.552107,89.300505 119.890682,89.197799 120.202715,89.031014 120.476214,88.80656 120.70066800000001,88.533061 120.867453,88.221028 120.970159,87.882453 121.0,87.57947300000001 121.0,77.081219 120.970159,76.778239 120.867453,76.43966400000001 120.70066800000001,76.12763100000001 120.476214,75.854132 120.202715,75.62967800000001 119.890682,75.46289300000001 119.552107,75.36018700000001 119.249127,75.330346 97.750873,75.330346 97.447893,75.36018700000001 97.109318,75.46289300000001 96.797285,75.62967800000001 96.523786,75.854132 96.299332,76.12763100000001 96.132547,76.43966400000001 96.029841,76.778239 96.0,77.081219 96.0,87.57947300000001" stroke="#1f6fb2" stroke-width="0.1" /><text fill="#0a3d62" font-family="sans-serif" font-size="1.6" text-anchor="middle" x="108.5" y="82.330346">05</text><polygon fill="#cfe3f7" fill-opacity="0.5" points="161.109812,86.25641 161.10827,85.76872900000001 161.12286,85.273746 161.152042,84.771895 161.194218,84.263642 161.247736,83.74946700000001 161.310889,83.22985100000001 161.38192700000002,82.705264 161.459058,82.176158 161.540457,81.642961 161.748646,80.30923200000001 148.84569199999999,75.330346 148.206584,75.76445700000001 148.003755,75.900946 147.803425,76.03324400000001 147.605097,76.160543 147.408291,76.282093 147.212533,76.397205 147.016683,76.505623 146.818733,76.60789700000001 146.617676,76.704536 146.4137,76.79544700000001 146.207108,76.88048500000001 145.998204,76.95950900000001 145.787293,77.032386 145.574684,77.09898700000001 145.360684,77.159188 145.145601,77.212874 144.929644,77.259955 144.712166,77.300544 144.492015,77.335131 144.268762,77.36420600000001 144.04241,77.388191 143.81299,77.40751900000001 143.580557,77.422638 143.345178,77.43401200000001 143.106932,77.442124 142.865904,77.447472 142.622182,77.45057600000001 142.375856,77.45196800000001 142.127012,77.45220300000001 141.874323,77.451846 141.874323,87.451847 161.157512,87.451847 161.109812,86.25641 122.638834,86.25641 122.640376,85.76872900000001 122.625786,85.273746 122.596604,84.771895 122.554428,84.263642 122.50091,83.74946700000001 122.437757,83.22985100000001 122.366719,82.705264 122.28958800000001,82.176158 122.208189,81.642961 122.0,80.30923200000001 134.902954,75.330346 135.542062,75.76445700000001 135.744891,75.900946 135.945221,76.03324400000001 136.143549,76.160543 136.340355,76.282093 136.536113,76.397205 136.731963,76.505623 136.929913,76.60789700000001 137.13097,76.704536 137.334946,76.79544700000001 137.541538,76.88048500000001 137.750442,76.95950900000001 137.961353,77.032386 138.173962,77.09898700000001 138.38796200000002,77.159188 138.603045,77.212874 138.819002,77.259955 139.03648,77.300544 139.256631,77.335131 139.479884,77.36420600000001 139.706236,77.388191 139.935656,77.40751900000001 140.168089,77.422638 140.403468,77.43401200000001 140.641714,77.442124 140.882742,77.447472 141.126464,77.45057600000001 141.37279,77.45196800000001 141.621634,77.45220300000001 141.874323,77.451846 141.874323,87.451847 122.591134,87.451847 122.638834,86.25641" stroke="#1f6fb2" stroke-width="0.1" /><text fill="#0a3d62" font-family="sans-serif" font-size="1.6" text-anchor="middle" x="141.874323" y="81.3910965">03</text><polygon fill="#cfe3f7" fill-opacity="0.5" points="4.0,139.979473 4.022155,140.204416 4.102098,140.46795400000002 4.2319189999999995,140.710832 4.406629,140.923717 4.619514,141.09842700000002 4.862392,141.228248 5.12593,141.30819100000002 5.350873,141.33034600000002 16.649127,141.33034600000002 16.87407,141.30819100000002 17.137608,141.228248 17.380485999999998,141.09842700000002 17.593370999999998,140.923717 17.768081000000002,140.710832 17.897902000000002,140.46795400000002 17.977845000000002,140.204416 18.0,139.979473 18.0,137.68121900000003 17.977845000000002,137.45627600000003 17.897902000000002,137.19273800000002 17.768081000000002,136.94986000000003 17.593370999999998,136.73697500000003 17.380485999999998,136.56226500000002 17.137608,136.43244400000003 16.87407,136.35250100000002 16.649127,136.33034600000002 5.350873,136.33034600000002 5.12593,136.35250100000002 4.862392,136.43244400000003 4.619514,136.56226500000002 4.406629,136.73697500000003 4.2319189999999995,136.94986000000003 4.102098,137.19273800000002 4.022155,137.45627600000003 4.0,137.68121900000003 4.0,139.979473" stroke="#1f6fb2" stroke-width="0.1" /><text fill="#0a3d62" font-family="sans-serif" font-size="1.6" text-anchor="middle" x="11.0" y="138.83034600000002">06</text><polygon fill="#cfe3f7" fill-opacity="0.5" points="19.0,139.979473 19.022155,140.204416 19.102098,140.46795400000002 19.231919,140.710832 19.406629,140.923717 19.619514,141.09842700000002 19.862392,141.228248 20.12593,141.30819100000002 20.350873,141.33034600000002 31.649127,141.33034600000002 31.87407,141.30819100000002 32.137608,141.228248 32.380486,141.09842700000002 32.593371,140.923717 32.768081,140.710832 32.897902,140.46795400000002 32.977845,140.204416 33.0,139.979473 33.0,137.68121900000003 32.977845,137.45627600000003 32.897902,137.19273800000002 32.768081,136.94986000000003 32.593371,136.73697500000003 32.380486,136.56226500000002 32.137608,136.43244400000003 31.87407,136.35250100000002 31.649127,136.33034600000002 20.350873,136.33034600000002 20.12593,136.35250100000002 19.862392,136.43244400000003 19.619514,136.56226500000002 19.406629,136.73697500000003 19.231919,136.94986000000003 19.102098,137.19273800000002 19.022155,137.45627600000003 19.0,137.68121900000003 19.0,139.979473" stroke="#1f6fb2" stroke-width="0.1" /><text fill="#0a3d62" font-family="sans-serif" font-size="1.6" text-anchor="middle" x="26.0" y="138.83034600000002">06</text></svg>