<?xml version="1.0" encoding="utf-8" ?>
<svg baseProfile="full" height="224.234859cm" version="1.1" viewBox="0 0 118.0 224.234859" width="118.0cm" xmlns="http://www.w3.org/2000/svg" xmlns:ev="http://www.w3.org/2001/xml-events" xmlns:xlink="http://www.w3.org/1999/xlink"><defs /><rect fill="#f7f3ea" height="216.234859" stroke="#333" stroke-width="0.15" width="110.0" x="4.0" y="4.0" /><text fill="#000" font-family="sans-serif" font-size="1.4" x="4.0" y="3.0">PLANO DE CORTE — ancho 110 cm — largo 2.16 m</text><polygon fill="#cfe3f7" fill-opacity="0.5" points="4.0,74.258387 12.0151,74.258387 11.169121,17.814655 15.391589,5.252814 12.885961,4.0 12.198679,4.870719 12.01522,5.103651 11.831602,5.337806 11.648078,5.573383 11.464904,5.81058 11.282339,6.049601 11.100645,6.290647 10.920087,6.533925 10.740933,6.7796389999999995 10.563456,7.027995 10.387932,7.2792010000000005 10.21464,7.533462 10.043864,7.790984 9.876067,8.051697 9.712398,8.314032000000001 9.553241,8.575612 9.397873,8.835246999999999 9.245347,9.092185 9.09476,9.345690999999999 8.945255,9.595037 8.796016999999999,9.83951 8.646275,10.078413000000001 8.495299,10.311073 8.342397,10.536846 8.186907,10.755134 8.028192,10.965392 7.865598,11.167168 7.697407,11.361333 7.520795,11.550932 7.3346350000000005,11.738449 7.139519,11.9246 6.93625,12.109977 6.7257,12.295203 6.508787,12.480943 6.0110410000000005,12.899560000000001 5.869394,13.658387000000001 4.0,13.658387000000001 4.0,74.258387" stroke="#1f6fb2" stroke-width="0.1" /><text fill="#0a3d62" font-family="sans-serif" font-size="1.6" text-anchor="middle" x="9.6957945" y="39.1291935">09</text><polygon fill="#cfe3f7" fill-opacity="0.5" points="16.391589,74.258387 24.406689,74.258387 23.56071,17.814655 27.783178,5.252814 25.277549999999998,4.0 24.590268000000002,4.870719 24.406809,5.103651 24.223191,5.337806 24.039667,5.573383 23.856493,5.81058 23.673928,6.049601 23.492234,6.290647 23.311676,6.533925 23.132522,6.7796389999999995 22.955045,7.027995 22.779521,7.2792010000000005 22.606229,7.533462 22.435453,7.790984 22.267656000000002,8.051697 22.103987,8.314032000000001 21.94483,8.575612 21.789462,8.835246999999999 21.636936,9.092185 21.486349,9.345690999999999 21.336844,9.595037 21.187606,9.83951 21.037864,10.078413000000001 20.886888,10.311073 20.733986,10.536846 20.578496,10.755134 20.419781,10.965392 20.257187000000002,11.167168 20.088996,11.361333 19.912384,11.550932 19.726224,11.738449 19.531108,11.9246 19.327839,12.109977 19.117289,12.295203 18.900376,12.480943 18.40263,12.899560000000001 18.260983,13.658387000000001 16.391589,13.658387000000001 16.391589,74.258387" stroke="#1f6fb2" stroke-width="0.1" /><text fill="#0a3d62" font-family="sans-serif" font-size="1.6" text-anchor="middle" x="22.0873835" y="39.1291935">09</text><polygon fill="#cfe3f7" fill-opacity="0.5" points="28.783178,74.225075 56.483177999999995,74.225075 56.483177999999995,26.175006 55.946315,25.50218 55.627055,25.102854 55.305425,24.70214 54.98099,24.300291 54.653020999999995,23.897194 54.320789,23.492739 53.983568,23.086822 53.640631,22.679347 53.291287999999994,22.270251000000002 52.935856,21.860566 52.577703,21.452337 52.221599999999995,21.046302999999998 51.871275,20.641983 51.53039,20.238976 51.202591999999996,19.837046 50.89149,19.436118999999998 50.600612999999996,19.036285 50.333346,18.637787000000003 50.092858,18.240989 49.882003,17.8463 49.703227,17.454039 49.558497,17.064222 49.44892,16.674818000000002 49.373654,16.278377 49.329941,15.868069 49.316055,15.442393000000001 49.330439,15.001503 49.371347,14.546087 49.436762,14.077172000000001 49.524390999999994,13.595958 49.63169499999999,13.103698 49.755933,12.601625 49.894211,12.090901 50.043513,11.572599 50.200739999999996,11.047684 50.622811999999996,9.664922 37.642845,4.0 36.981857,4.837407 36.798398,5.070339 36.614779999999996,5.304494 36.431256,5.540071 36.248082,5.777267999999999 36.065517,6.016289 35.883823,6.257334999999999 35.703265,6.5006129999999995 35.524111,6.746327 35.346634,6.994683 35.17111,7.245889 34.997818,7.50015 34.827042,7.7576719999999995 34.659245,8.018385 34.495576,8.28072 34.336419,8.542300000000001 34.181051,8.801935 34.028525,9.058873 33.877938,9.312379 33.728432999999995,9.561725 33.579195,9.806198 33.429453,10.045101 33.278477,10.277761 33.125575,10.503534 32.970085,10.721822 32.81137,10.93208 32.648776,11.133856 32.480585,11.328021 32.303973,11.517619999999999 32.117813,11.705137 31.922697,11.891288 31.719428,12.076665 31.508878,12.261891 31.291965,12.447631 30.794219,12.866248 30.652572,13.625075 28.783178,13.625075 28.783178,74.225075" stroke="#1f6fb2" stroke-width="0.1" /><text fill="#0a3d62" font-family="sans-serif" font-size="1.6" text-anchor="middle" x="42.633178" y="39.1125375">01</text><polygon fill="#cfe3f7" fill-opacity="0.5" points="57.483177999999995,74.225075 85.183178,74.225075 85.183178,26.175006 84.64631499999999,25.50218 84.327055,25.102854 84.005425,24.70214 83.68099,24.300291 83.353021,23.897194 83.020789,23.492739 82.683568,23.086822 82.340631,22.679347 81.991288,22.270251000000002 81.63585599999999,21.860566 81.277703,21.452337 80.9216,21.046302999999998 80.57127499999999,20.641983 80.23039,20.238976 79.902592,19.837046 79.59149,19.436118999999998 79.300613,19.036285 79.033346,18.637787000000003 78.792858,18.240989 78.58200299999999,17.8463 78.40322699999999,17.454039 78.25849699999999,17.064222 78.14891999999999,16.674818000000002 78.07365399999999,16.278377 78.029941,15.868069 78.016055,15.442393000000001 78.030439,15.001503 78.071347,14.546087 78.13676199999999,14.077172000000001 78.224391,13.595958 78.331695,13.103698 78.45593299999999,12.601625 78.594211,12.090901 78.743513,11.572599 78.90074,11.047684 79.322812,9.664922 66.342845,4.0 65.681857,4.837407 65.498398,5.070339 65.31478,5.304494 65.131256,5.540071 64.948082,5.777267999999999 64.76551699999999,6.016289 64.583823,6.257334999999999 64.40326499999999,6.5006129999999995 64.224111,6.746327 64.046634,6.994683 63.871109999999994,7.245889 63.697818,7.50015 63.527041999999994,7.7576719999999995 63.359244999999994,8.018385 63.195575999999996,8.28072 63.036418999999995,8.542300000000001 62.881051,8.801935 62.728525,9.058873 62.577937999999996,9.312379 62.428433,9.561725 62.279194999999994,9.806198 62.129453,10.045101 61.978477,10.277761 61.82557499999999,10.503534 61.67008499999999,10.721822 61.51137,10.93208 61.348775999999994,11.133856 61.180584999999994,11.328021 61.003972999999995,11.517619999999999 60.817812999999994,11.705137 60.622696999999995,11.891288 60.419427999999996,12.076665 60.208878,12.261891 59.99196499999999,12.447631 59.494218999999994,12.866248 59.352571999999995,13.625075 57.483177999999995,13.625075 57.483177999999995,74.225075" stroke="#1f6fb2" stroke-width="0.1" /><text fill="#0a3d62" font-family="sans-serif" font-size="1.6" text-anchor="middle" x="71.33317799999999" y="39.1125375">01</text><polygon fill="#cfe3f7" fill-opacity="0.5" points="8.389494000000001,137.261798 34.229578000000004,137.261798 38.627768,84.546246 37.871409,83.801758 37.442634,83.384651 37.005112000000004,82.968955 36.557185000000004,82.55822 36.099746,82.156663 35.63515,81.765652 35.164266,81.38457 34.687678000000005,81.012565 34.205960000000005,80.648781 33.719674,80.292362 33.229371,79.94245599999999 32.735592000000004,79.598214 32.238836,79.258767 31.738548,78.922608 31.232514000000002,78.588975 30.718877,78.259513 30.196892000000002,77.93679 29.665834000000004,77.623456 29.124947000000002,77.32221 28.573457,77.035813 28.010585000000003,76.7671 27.435577000000002,76.518997 26.847797,76.294545 26.248824000000003,76.097482 25.643706,75.929309 25.036541,75.787145 24.428756,75.667101 23.82149,75.565332 23.215794000000002,75.478092 22.612681000000002,75.401746 22.013151,75.332764 21.332842000000003,75.258387 20.641332000000002,75.301628 20.031053,75.34309999999999 19.417165,75.391508 18.800530000000002,75.45029 18.182005000000004,75.522987 17.56248,75.613238 16.942904000000002,75.724785 16.324345,75.861461 15.709308,76.026811 15.102878,76.221656 14.508158000000002,76.442755 13.925045,76.68713699999999 13.352945000000002,76.952043 12.791216000000002,77.234798 12.239197,77.532798 11.696222,77.843506 11.161641000000001,78.164439 10.634831000000002,78.493158 10.114902,78.827447 9.599095000000002,79.166912 9.085734000000002,79.514369 8.576055000000002,79.872518 8.072265000000002,80.243505 7.5766290000000005,80.629531 7.091490000000002,81.032835 6.619287000000002,81.455679 6.162586000000001,81.90031 5.724375000000002,82.368624 5.310802000000001,82.857927 4.9242760000000025,83.357704 4.5597460000000005,83.858237 4.0,84.650465 8.389494000000001,137.261798" stroke="#1f6fb2" stroke-width="0.1" /><text fill="#0a3d62" font-family="sans-serif" font-size="1.6" text-anchor="middle" x="21.313884" y="106.2600925">04</text><polygon fill="#cfe3f7" fill-opacity="0.5" points="44.017262,137.261798 69.857346,137.261798 74.255536,84.546246 73.499177,83.801758 73.070402,83.384651 72.63288,82.968955 72.18495300000001,82.55822 71.72751400000001,82.156663 71.26291800000001,81.765652 70.792034,81.38457 70.31544600000001,81.012565 69.83372800000001,80.648781 69.347442,80.292362 68.857139,79.94245599999999 68.36336,79.598214 67.866604,79.258767 67.36631600000001,78.922608 66.86028200000001,78.588975 66.346645,78.259513 65.82466000000001,77.93679 65.293602,77.623456 64.75271500000001,77.32221 64.20122500000001,77.035813 63.63835300000001,76.7671 63.063345000000005,76.518997 62.475565,76.294545 61.876592,76.097482 61.271474000000005,75.929309 60.664309,75.787145 60.056524,75.667101 59.449258,75.565332 58.843562000000006,75.478092 58.240449000000005,75.401746 57.640919000000004,75.332764 56.96061,75.258387 56.26910000000001,75.301628 55.658821,75.34309999999999 55.044933,75.391508 54.428298000000005,75.45029 53.80977300000001,75.522987 53.190248000000004,75.613238 52.570672,75.724785 51.952113000000004,75.861461 51.337076,76.026811 50.73064600000001,76.221656 50.135926000000005,76.442755 49.552813,76.68713699999999 48.98071300000001,76.952043 48.41898400000001,77.234798 47.86696500000001,77.532798 47.32399,77.843506 46.789409000000006,78.164439 46.26259900000001,78.493158 45.742670000000004,78.827447 45.22686300000001,79.166912 44.713502000000005,79.514369 44.20382300000001,79.872518 43.700033000000005,80.243505 43.204397,80.629531 42.719258,81.032835 42.247055,81.455679 41.79035400000001,81.90031 41.352143000000005,82.368624 40.938570000000006,82.857927 40.55204400000001,83.357704 40.18751400000001,83.858237 39.627768,84.650465 44.017262,137.261798" stroke="#1f6fb2" stroke-width="0.1" /><text fill="#0a3d62" font-family="sans-serif" font-size="1.6" text-anchor="middle" x="56.941652000000005" y="106.2600925">04</text><polygon fill="#cfe3f7" fill-opacity="0.5" points="54.0,150.278351 53.588153,149.610223 53.325169,149.183359 53.062312,148.756237 52.799582,148.328623 52.536975999999996,147.900285 52.274494000000004,147.470988 52.012133,147.040497 51.74989,146.608579 51.487785,146.175036 51.226239,145.740248 50.966727,145.305049 50.711012,144.869759 50.460588,144.434272 50.216933,143.998499 49.981508000000005,143.562373 49.755752,143.125848 49.541083,142.688895 49.338886,142.251497 49.150509,141.813643 48.977261999999996,141.375316 48.820403999999996,140.936484 48.681145,140.497081 48.560643999999996,140.056989 48.459799000000004,139.615084 48.378361,139.168152 48.251258,138.261798 29.0,138.261798 29.0,198.261798 54.0,198.261798 54.0,150.278351 4.0,150.278351 4.411847000000002,149.610223 4.674831000000001,149.183359 4.937688000000001,148.756237 5.200417999999999,148.328623 5.463024000000001,147.900285 5.725505999999999,147.470988 5.987867000000001,147.040497 6.250109999999999,146.608579 6.512215000000001,146.175036 6.773761,145.740248 7.033273000000001,145.305049 7.288988,144.869759 7.539411999999999,144.434272 7.783066999999999,143.998499 8.018491999999998,143.562373 8.244247999999999,143.125848 8.458917,142.688895 8.661114000000001,142.251497 8.849491,141.813643 9.022738,141.375316 9.179596,140.936484 9.318855,140.497081 9.439356,140.056989 9.540201,139.615084 9.621638999999998,139.168152 9.748742,138.261798 29.0,138.261798 29.0,198.261798 4.0,198.261798 4.0,150.278351" stroke="#1f6fb2" stroke-width="0.1" /><text fill="#0a3d62" font-family="sans-serif" font-size="1.6" text-anchor="middle" x="29.0" y="168.261798">02</text><polygon fill="#cfe3f7" fill-opacity="0.5" points="55.0,149.533703 62.0,153.943703 69.0,149.533703 69.0,138.261798 55.0,138.261798 55.0,149.533703" stroke="#1f6fb2" stroke-width="0.1" /><text fill="#0a3d62" font-family="sans-serif" font-size="1.6" text-anchor="middle" x="62.0" y="146.1027505">10</text><polygon fill="#cfe3f7" fill-opacity="0.5" points="70.0,150.510925 70.029841,150.813905 70.132547,151.15248 70.299332,151.464513 70.523786,151.738012 70.797285,151.962466 71.109318,152.129251 71.447893,152.231957 71.750873,152.261798 93.249127,152.261798 93.552107,152.231957 93.890682,152.129251 94.202715,151.962466 94.476214,151.738012 94.70066800000001,151.464513 94.867453,151.15248 94.970159,150.813905 95.0,150.510925 95.0,140.012671 94.970159,139.709691 94.867453,139.371116 94.70066800000001,139.059083 94.476214,138.785584 94.202715,138.56113 93.890682,138.394345 93.552107,138.291639 93.249127,138.261798 71.750873,138.261798 71.447893,138.291639 71.109318,138.394345 70.797285,138.56113 70.523786,138.785584 70.299332,139.059083 70.132547,139.371116 70.029841,139.709691 70.0,140.012671 70.0,150.510925" stroke="#1f6fb2" stroke-width="0.1" /><text fill="#0a3d62" font-family="sans-serif" font-size="1.6" text-anchor="middle" x="82.5" y="145.261798">05</text><polygon fill="#cfe3f7" fill-opacity="0.5" points="4.0,211.510925 4.029841,211.813905 4.132547,212.15248 4.299332,212.464513 4.523786,212.738012 4.7972850000000005,212.962466 5.109318,213.129251 5.4478930000000005,213.231957 5.750873,213.261798 27.249127,213.261798 27.552107,213.231957 27.890682,213.129251 28.202715,212.962466 28.476214,212.738012 28.700668,212.464513 28.867453,212.15248 28.970159,211.813905 29.0,211.510925 29.0,201.012671 28.970159,200.709691 28.867453,200.371116 28.700668,200.059083 28.476214,199.785584 28.202715,199.56113 27.890682,199.394345 27.552107,199.291639 27.249127,199.261798 5.750873,199.261798 5.4478930000000005,199.291639 5.109318,199.394345 4.7972850000000005,199.56113 4.523786,199.785584 4.299332,200.059083 4.132547,200.371116 4.029841,200.709691 4.0,201.012671 4.0,211.510925" stroke="#1f6fb2" stroke-width="0.1" /><text fill="#0a3d62" font-family="sans-serif" font-size="1.6" text-anchor="middle" x="16.5" y="206.261798">05</text><polygon fill="#cfe3f7" fill-opacity="0.5" points="68.846382,209.842311 68.798972,209.380562 68.766452,208.911632 68.74737400000001,208.43587 68.740241,207.953675 68.743509,207.465473 68.755584,206.971707 68.77482499999999,206.47282 68.79955100000001,205.969249 68.82803799999999,205.46141599999999 68.90199,204.220338 56.051764000000006,199.261798 55.421453,199.71819 55.23398,199.85268299999998 55.048972,199.982961 54.865930000000006,200.108277 54.684380000000004,200.227939 54.503853,200.341317 54.323333000000005,200.448172 54.140859,200.549078 53.955345,200.644596 53.766947,200.734625 53.575976,200.818987 53.382745,200.897511 53.187568999999996,200.970034 52.990761,201.036398 52.792635000000004,201.096456 52.593506000000005,201.150068 52.393609,201.197118 52.192283,201.237706 51.988202,201.272328 51.780783,201.30149 51.570014,201.325597 51.355924,201.345068 51.138569000000004,201.360337 50.918023000000005,201.371857 50.694373,201.380104 50.467716,201.38557 50.238149,201.388772 50.005773000000005,201.390244 49.770687,201.390544 49.531728,201.390244 49.531728,211.390245 69.063456,211.390245 68.846382,209.842311 30.217074,209.842311 30.264484,209.380562 30.297004,208.911632 30.316082,208.43587 30.323215,207.953675 30.319947000000003,207.465473 30.307872,206.971707 30.288631000000002,206.47282 30.263905,205.969249 30.235418000000003,205.46141599999999 30.161466,204.220338 43.011692,199.261798 43.642003,199.71819 43.829476,199.85268299999998 44.014484,199.982961 44.197525999999996,200.108277 44.379076,200.227939 44.559603,200.341317 44.740123,200.448172 44.922597,200.549078 45.108111,200.644596 45.296509,200.734625 45.487480000000005,200.818987 45.680711,200.897511 45.875887,200.970034 46.072695,201.036398 46.270821,201.096456 46.46995,201.150068 46.669847000000004,201.197118 46.871173,201.237706 47.075254,201.272328 47.282673,201.30149 47.493442,201.325597 47.707532,201.345068 47.924887,201.360337 48.145433,201.371857 48.369083,201.380104 48.59574,201.38557 48.825307,201.388772 49.057683,201.390244 49.292769,201.390544 49.531728,201.390244 49.531728,211.390245 30.0,211.390245 30.217074,209.842311" stroke="#1f6fb2" stroke-width="0.1" /><text fill="#0a3d62" font-family="sans-serif" font-size="1.6" text-anchor="middle" x="49.531728" y="205.3260215">03</text><polygon fill="#cfe3f7" fill-opacity="0.5" points="91.129788,206.130376 91.584544,206.219971 92.039366,206.304459 92.494251,206.383837 92.949196,206.458103 93.40419800000001,206.527257 93.859252,206.591295 94.314356,206.650217 94.76950500000001,206.70401999999999 95.224695,206.752704 95.679923,206.796266 96.13518400000001,206.834707 96.590475,206.868024 97.04579100000001,206.896217 97.501128,206.919285 97.956483,206.937228 98.41185,206.950044 98.867226,206.957734 99.32260600000001,206.960298 99.777986,206.957734 100.233362,206.950044 100.688729,206.937228 101.14408399999999,206.919285 101.599421,206.896217 102.054737,206.868024 102.510028,206.834707 102.96529000000001,206.796266 103.420517,206.752704 103.875708,206.70401999999999 104.33085600000001,206.650217 104.78596,206.591295 105.241014,206.527257 105.696016,206.458103 106.150961,206.383837 106.605846,206.304459 107.060669,206.219971 107.515424,206.130376 107.715879,206.088626 109.761624,209.498201 110.81684200000001,209.099218 109.000703,199.261798 107.55177,199.579888 107.118211,199.670188 106.684721,199.755593 106.251297,199.836105 105.817937,199.91172699999998 105.384636,199.982461 104.951392,200.048307 104.518201,200.109269 104.085059,200.165347 103.651962,200.216544 103.218906,200.26286 102.785888,200.304298 102.352904,200.340857 101.919949,200.37254 101.487019,200.399347 101.054111,200.421279 100.62122,200.438336 100.188342,200.45052 99.755472,200.45783 99.32260600000001,200.460266 98.88974,200.45783 98.456871,200.45052 98.02399199999999,200.438336 97.59110100000001,200.421279 97.158193,200.399347 96.725263,200.37254 96.292308,200.340857 95.859324,200.304298 95.42630600000001,200.26286 94.993251,200.216544 94.560154,200.165347 94.12701100000001,200.109269 93.69382,200.048307 93.260576,199.982461 92.827275,199.91172699999998 92.39391499999999,199.836105 91.960491,199.755593 91.527001,199.670188 91.09344200000001,199.579888 90.440149,199.436468 90.440149,205.984096 90.67510200000001,206.035676 91.129788,206.130376 89.75051,206.130376 89.295754,206.219971 88.84093200000001,206.304459 88.386047,206.383837 87.93110200000001,206.458103 87.4761,206.527257 87.021046,206.591295 86.565942,206.650217 86.110793,206.70401999999999 85.655603,206.752704 85.20037500000001,206.796266 84.745114,206.834707 84.289823,206.868024 83.834507,206.896217 83.37917,206.919285 82.923815,206.937228 82.468448,206.950044 82.013072,206.957734 81.557692,206.960298 81.102312,206.957734 80.646936,206.950044 80.191569,206.937228 79.736214,206.919285 79.280877,206.896217 78.82556100000001,206.868024 78.37027,206.834707 77.915008,206.796266 77.459781,206.752704 77.00459000000001,206.70401999999999 76.549442,206.650217 76.09433800000001,206.591295 75.639284,206.527257 75.184282,206.458103 74.729337,206.383837 74.274452,206.304459 73.819629,206.219971 73.364874,206.130376 73.16441900000001,206.088626 71.118674,209.498201 70.063456,209.099218 71.879595,199.261798 73.328528,199.579888 73.76208700000001,199.670188 74.195577,199.755593 74.629001,199.836105 75.062361,199.91172699999998 75.495662,199.982461 75.928906,200.048307 76.362097,200.109269 76.79523900000001,200.165347 77.228336,200.216544 77.661392,200.26286 78.09441,200.304298 78.527394,200.340857 78.96034900000001,200.37254 79.393279,200.399347 79.826187,200.421279 80.259078,200.438336 80.691956,200.45052 81.124826,200.45783 81.557692,200.460266 81.99055800000001,200.45783 82.423427,200.45052 82.856306,200.438336 83.289197,200.421279 83.722105,200.399347 84.155035,200.37254 84.58799,200.340857 85.020974,200.304298 85.453992,200.26286 85.887047,200.216544 86.320144,200.165347 86.753287,200.109269 87.186478,200.048307 87.619722,199.982461 88.053023,199.91172699999998 88.486383,199.836105 88.919807,199.755593 89.353297,199.670188 89.786856,199.579888 90.440149,199.436468 90.440149,205.984096 90.205196,206.035676 89.75051,206.130376" stroke="#1f6fb2" stroke-width="0.1" /><text fill="#0a3d62" font-family="sans-serif" font-size="1.6" text-anchor="middle" x="90.440149" y="204.3799995">07</text><polygon fill="#cfe3f7" fill-opacity="0.5" points="25.291796,219.57609 25.78639,219.647237 26.281011,219.71432099999998 26.775657,219.777344 27.270328,219.836303 27.765021,219.891198 28.259735,219.94203 28.754469,219.988796 29.24922,220.031498 29.743988,220.070134 30.238771,220.104704 30.733567,220.135208 31.228375,220.161645 31.723192,220.18401599999999 32.218018,220.202319 32.71285,220.216556 33.207688000000005,220.226724 33.702529,220.232826 34.197371000000004,220.234859 34.692214,220.232826 35.187054,220.226724 35.681892,220.216556 36.176724,220.202319 36.671549999999996,220.18401599999999 37.166367,220.161645 37.661175,220.135208 38.155971,220.104704 38.650754,220.070134 39.145522,220.031498 39.640273,219.988796 40.135007,219.94203 40.629721,219.891198 41.124414,219.836303 41.619085,219.777344 42.113731,219.71432099999998 42.608352,219.647237 43.102946,219.57609 43.597512,219.500882 44.929828,219.287327 44.929828,214.261798 43.288899,214.52482 42.810219000000004,214.597612 42.331567,214.666465 41.852942,214.731381 41.374342999999996,214.792358 40.895768000000004,214.849399 40.417215,214.902504 39.938684,214.951672 39.460171,214.996906 38.981677,215.038204 38.5032,215.075568 38.024737,215.10899799999999 37.546287,215.138494 37.067849,215.16405699999999 36.589421,215.185686 36.111001,215.203383 35.632588,215.21714599999999 35.154179,215.226978 34.675774000000004,215.232876 34.197371000000004,215.234843 33.718968000000004,215.232876 33.240563,215.226978 32.762155,215.21714599999999 32.283741,215.203383 31.805321,215.185686 31.326893,215.16405699999999 30.848455,215.138494 30.370005,215.10899799999999 29.891542,215.075568 29.413065,215.038204 28.934571,214.996906 28.456059,214.951672 27.977527000000002,214.902504 27.498975,214.849399 27.020399,214.792358 26.541800000000002,214.731381 26.063175,214.666465 25.584524000000002,214.597612 25.105843,214.52482 24.464914,214.422086 24.464914,219.447616 24.79723,219.500882 25.291796,219.57609 23.638032,219.57609 23.143438,219.647237 22.648817,219.71432099999998 22.154171,219.777344 21.6595,219.836303 21.164807,219.891198 20.670093,219.94203 20.175359,219.988796 19.680608,220.031498 19.18584,220.070134 18.691057,220.104704 18.196261,220.135208 17.701453,220.161645 17.206636,220.18401599999999 16.71181,220.202319 16.216978,220.216556 15.72214,220.226724 15.227299,220.232826 14.732457,220.234859 14.237614,220.232826 13.742774,220.226724 13.247936000000001,220.216556 12.753104,220.202319 12.258278,220.18401599999999 11.763461,220.161645 11.268653,220.135208 10.773857,220.104704 10.279074,220.070134 9.784306,220.031498 9.289555,219.988796 8.794821,219.94203 8.300107,219.891198 7.805413999999999,219.836303 7.310742999999999,219.777344 6.816096999999999,219.71432099999998 6.3214760000000005,219.647237 5.826882000000001,219.57609 5.332315999999999,219.500882 4.0,219.287327 4.0,214.261798 5.640929,214.52482 6.1196090000000005,214.597612 6.598261000000001,214.666465 7.076886000000002,214.731381 7.555485000000001,214.792358 8.03406,214.849399 8.512613,214.902504 8.991144,214.951672 9.469657,214.996906 9.948151000000001,215.038204 10.426628000000001,215.075568 10.905091,215.10899799999999 11.383541000000001,215.138494 11.861979,215.16405699999999 12.340407,215.185686 12.818827,215.203383 13.29724,215.21714599999999 13.775649,215.226978 14.254054,215.232876 14.732457,215.234843 15.21086,215.232876 15.689265,215.226978 16.167673,215.21714599999999 16.646087,215.203383 17.124507,215.185686 17.602935000000002,215.16405699999999 18.081373,215.138494 18.559823,215.10899799999999 19.038286,215.075568 19.516763,215.038204 19.995257000000002,214.996906 20.473769,214.951672 20.952301,214.902504 21.430853,214.849399 21.909429,214.792358 22.388028,214.731381 22.866653,214.666465 23.345304,214.597612 23.823985,214.52482 24.464914,214.422086 24.464914,219.447616 24.132598,219.500882 23.638032,219.57609" stroke="#1f6fb2" stroke-width="0.1" /><text fill="#0a3d62" font-family="sans-serif" font-size="1.6" text-anchor="middle" x="24.464914" y="217.24832849999999">08</text><polygon fill="#cfe3f7" fill-opacity="0.5" points="45.929828,217.910925 45.951983,218.135868 46.031926,218.399406 46.161747,218.642284 46.336457,218.855169 46.549342,219.029879 46.79222,219.1597 47.055758,219.239643 47.280701,219.261798 58.578955,219.261798 58.803898000000004,219.239643 59.067436,219.1597 59.310314,219.029879 59.523199,218.855169 59.697909,218.642284 59.82773,218.399406 59.907673,218.135868 59.929828,217.910925 59.929828,215.612671 59.907673,215.387728 59.82773,215.12419 59.697909,214.881312 59.523199,214.668427 59.310314,214.493717 59.067436,214.363896 58.803898000000004,214.283953 58.578955,214.261798 47.280701,214.261798 47.055758,214.283953 46.79222,214.363896 46.549342,214.493717 46.336457,214.668427 46.161747,214.881312 46.031926,215.12419 45.951983,215.387728 45.929828,215.612671 45.929828,217.910925" stroke="#1f6fb2" stroke-width="0.1" /><text fill="#0a3d62" font-family="sans-serif" font-size="1.6" text-anchor="middle" x="52.929828" y="216.761798">06</text><polygon fill="#cfe3f7" fill-opacity="0.5" points="60.929828,217.910925 60.951983,218.135868 61.031926,218.399406 61.161747,218.642284 61.336457,218.855169 61.549342,219.029879 61.79222,219.1597 62.055758,219.239643 62.280701,219.261798 73.57895500000001,219.261798 73.803898,219.239643 74.067436,219.1597 74.310314,219.029879 74.523199,218.855169 74.697909,218.642284 74.82773,218.399406 74.907673,218.135868 74.929828,217.910925 74.929828,215.612671 74.907673,215.387728 74.82773,215.12419 74.697909,214.881312 74.523199,214.668427 74.310314,214.493717 74.067436,214.363896 73.803898,214.283953 73.57895500000001,214.261798 62.280701,214.261798 62.055758,214.283953 61.79222,214.363896 61.549342,214.493717 61.336457,214.668427 61.161747,214.881312 61.031926,215.12419 60.951983,215.387728 60.929828,215.612671 60.929828,217.910925" stroke="#1f6fb2" stroke-width="0.1" /><text fill="#0a3d62" font-family="sans-serif" font-size="1.6" text-anchor="middle" x="67.929828" y="216.761798">06</text></svg>