<?xml version="1.0" encoding="utf-8" ?>
<svg baseProfile="full" height="150.192015cm" version="1.1" viewBox="0 0 168.6192116332715 150.192015" width="168.6192116332715cm" xmlns="http://www.w3.org/2000/svg" xmlns:ev="http://www.w3.org/2001/xml-events" xmlns:xlink="http://www.w3.org/1999/xlink"><defs /><g fill="none" id="CONSTRUCCION" stroke="#888888" stroke-width="0.08"><line x1="5.904" x2="5.904" y1="13.592015" y2="72.192015" /><line x1="121.27124954922164" x2="121.27124954922164" y1="64.192015" y2="52.192015" /><line x1="141.6192116332715" x2="164.6192116332715" y1="10.192015" y2="10.192015" /><line x1="91.0281600046624" x2="103.0281600046624" y1="85.412015" y2="85.412015" /></g><g fill="none" id="CORTE" stroke="#d00000" stroke-width="0.08"><polygon points="3.0,73.192015 33.784,73.192015 33.784,25.783736 33.10343,25.089206 32.707661,24.686064000000002 32.309022999999996,24.281492 31.906897,23.87561 31.500342,23.468217000000003 31.088424,23.059116000000003 30.67021,22.648116 30.244784,22.235045000000003 29.812213,21.82064 29.376219,21.406873 28.943168,20.994641 28.518187,20.583481000000003 28.106299,20.173028000000002 27.712553,19.763166000000002 27.341976,19.354048 26.999494,18.946126999999997 26.689825,18.540160999999998 26.417294,18.137186 26.185612,17.738381 25.9976,17.344735999999997 25.854027,16.953837999999998 25.752068,16.556984999999997 25.687692,16.146682 25.659014,15.720628 25.664642,15.278013999999999 25.703171,14.818928999999999 25.772945,14.344123 25.871964,13.854749 25.997882,13.352157 26.148059,12.837748999999999 26.319619,12.312895 26.509513,11.778875 26.714568,11.236867 26.931523,10.687932 27.157057,10.133019 27.776159,8.630396 13.327198000000001,3.0 12.647396,3.8094770000000002 12.428188,4.071071 12.208904,4.333899000000001 11.989857,4.598172 11.77136,4.864102 11.553729,5.131906 11.337284,5.4017990000000005 11.122345,5.674003 10.909237000000001,5.94874 10.69829,6.226231 10.489835,6.506703 10.284209,6.790379 10.081752,7.077486 9.882989,7.367985 9.689173,7.660314 9.500655,7.952012 9.316538000000001,8.24179 9.135663000000001,8.528844 8.956914000000001,8.81239 8.779216,9.091667 8.601534000000001,9.365939000000001 8.422876,9.634495 8.242284,9.896659 8.058829,10.151796000000001 7.871604,10.399323 7.679709,10.638718 7.482225,10.869542000000001 7.277239,11.092495 7.061699,11.310447 6.834514,11.525954 6.596550000000001,11.739752 6.348939,11.952427 6.09287,12.16462 5.829573,12.377025 5.560304,12.590402 5.55825,12.592015 3.0,12.592015 3.0,73.192015" /><polygon points="66.664,15.861415 66.143651,15.160452999999999 65.82048,14.724838 65.497375,14.288773 65.17427900000001,13.851909999999998 64.851135,13.413904999999998 64.527885,12.974409 64.20447000000001,12.533074000000001 63.88084400000001,12.089574 63.557445,11.644195999999999 63.23628600000001,11.198001 62.920204000000005,10.751608 62.611579000000006,10.304989999999998 62.31274900000001,9.858144 62.02602800000001,9.41112 61.753697,8.964027999999999 61.49798200000001,8.517024 61.261042,8.070306 61.044944,7.624094999999999 60.851636000000006,7.178606 60.682936000000005,6.734007999999999 60.54048800000001,6.290307 60.42524900000001,5.845435 60.336211000000006,5.395 60.27130400000001,4.936399999999999 60.22898400000001,4.469379 60.17189900000001,3.192015 38.784000000000006,3.192015 38.784000000000006,63.192015 66.664,63.192015 66.664,15.861415" /><polygon points="93.08773900000001,13.993998 93.08602700000002,13.510475 93.10224600000001,13.019153 93.13472500000002,12.520458 93.18171500000001,12.014868 93.24139900000002,11.502885000000001 93.31189300000001,10.985016 93.39125400000002,10.461756 93.47748900000002,9.93358 93.56856100000002,9.400934 93.80923400000002,8.024301 79.49839100000001,3.0938090000000003 78.86664400000002,3.476945 78.63874300000002,3.613874 78.41312200000002,3.746909 78.18917800000001,3.875249 77.96631500000001,3.998145 77.74392300000001,4.1149059999999995 77.52075300000001,4.225213 77.29478900000001,4.329452 77.06509800000002,4.428025 76.83190800000001,4.520821 76.59556200000002,4.607683 76.35639900000001,4.68846 76.11476400000002,4.763008 75.87099800000001,4.831187 75.62544800000002,4.892863 75.37845700000001,4.947907 75.13028300000002,4.996215 74.88041100000001,5.037853 74.62785100000002,5.073281 74.37226200000002,5.103001 74.11368300000001,5.127465 73.85217700000001,5.1471350000000005 73.58782000000002,5.162488 73.32069800000002,5.174014 73.05090400000002,5.182215 72.77853600000002,5.187612 72.50369000000002,5.190736 72.22646600000002,5.192136 71.94695800000001,5.192371 71.66400000000002,5.192014 71.66400000000002,15.192015 93.14127800000001,15.192015 93.08773900000001,13.993998" /><polygon points="102.80366093886249,65.192015 131.4928829388625,65.192015 136.6618319388625,13.717666 135.8591439388625,12.921543999999999 135.38816093886248,12.459716 134.90772793886248,11.99926 134.4155879388625,11.543479 133.9119279388625,11.096612 133.39910293886248,10.660265 132.8781739388625,10.233882 132.34980693886249,9.816564 131.8146569388625,9.407419 131.2733669388625,9.00555 130.7265709388625,8.610069 130.1748939388625,8.220088 129.6189499388625,7.834725000000001 129.0586839388625,7.452655 128.4920839388625,7.072581 127.9166039388625,6.696006000000001 127.33106393886248,6.325886000000001 126.73446493886249,5.965364 126.1257729388625,5.617638 125.5039359388625,5.285971 124.86790793886249,4.973703 124.21667193886249,4.684264 123.5492849388625,4.421181 122.8663169388625,4.188535 122.1724449388625,3.989141 121.4730509388625,3.820234 120.77031793886249,3.677306 120.06583093886249,3.5558300000000003 119.3610949388625,3.451407 118.65758293886249,3.3597609999999998 117.9567749388625,3.276738 117.17172093886249,3.1883350000000004 116.37155993886249,3.240754 115.6560279388625,3.291627 114.9376199388625,3.350781 114.21762293886249,3.422325 113.4973119388625,3.510483 112.77797893886249,3.619594 112.06097993886249,3.754121 111.34786393886249,3.918623 110.64254893886249,4.116998000000001 109.95042193886249,4.348809 109.2735519388625,4.6101220000000005 108.6113759388625,4.89755 107.9631169388625,5.207827 107.32794493886249,5.537769 106.7050019388625,5.884267 106.0934299388625,6.244279000000001 105.49238393886249,6.61482 104.9010459388625,6.992948999999999 104.31780293886249,7.376312 103.7397299388625,7.7651900000000005 103.16640893886249,8.162621 102.5998769388625,8.570781 102.0425319388625,8.991681 101.49681793886249,9.427389 100.9652449388625,9.880015 100.45041193886249,10.351706 99.9550359388625,10.844611 99.4825129388625,11.360263 99.0390919388625,11.894924 98.62503893886249,12.438020999999999 98.2338869388625,12.981288 97.64527193886249,13.822834 102.80366093886249,65.192015" /><polygon points="140.6192116332715,15.441142 140.6490526332715,15.744121999999999 140.7517586332715,16.082697 140.9185436332715,16.39473 141.1429976332715,16.668229 141.4164966332715,16.892682999999998 141.7285296332715,17.059468 142.0671046332715,17.162174 142.37008463327152,17.192014999999998 163.8683386332715,17.192014999999998 164.1713186332715,17.162174 164.5098936332715,17.059468 164.82192663327152,16.892682999999998 165.0954256332715,16.668229 165.3198796332715,16.39473 165.48666463327152,16.082697 165.5893706332715,15.744121999999999 165.6192116332715,15.441142 165.6192116332715,4.942888 165.5893706332715,4.639908 165.48666463327152,4.301333 165.3198796332715,3.9893 165.0954256332715,3.715801 164.82192663327152,3.491347 164.5098936332715,3.3245620000000002 164.1713186332715,3.221856 163.8683386332715,3.192015 142.37008463327152,3.192015 142.0671046332715,3.221856 141.7285296332715,3.3245620000000002 141.4164966332715,3.491347 141.1429976332715,3.715801 140.9185436332715,3.9893 140.7517586332715,4.301333 140.6490526332715,4.639908 140.6192116332715,4.942888 140.6192116332715,15.441142" /><polygon points="3.0,80.84114199999999 3.022155,81.066085 3.102098,81.329623 3.231919,81.572501 3.406629,81.785386 3.619514,81.960096 3.862392,82.089917 4.12593,82.16986 4.350873,82.192015 15.649127,82.192015 15.87407,82.16986 16.137608,82.089917 16.380485999999998,81.960096 16.593370999999998,81.785386 16.768081000000002,81.572501 16.897902000000002,81.329623 16.977845000000002,81.066085 17.0,80.84114199999999 17.0,78.542888 16.977845000000002,78.317945 16.897902000000002,78.054407 16.768081000000002,77.811529 16.593370999999998,77.598644 16.380485999999998,77.423934 16.137608,77.294113 15.87407,77.21417 15.649127,77.192015 4.350873,77.192015 4.12593,77.21417 3.862392,77.294113 3.619514,77.423934 3.406629,77.598644 3.231919,77.811529 3.102098,78.054407 3.022155,78.317945 3.0,78.542888 3.0,80.84114199999999" /><polygon points="22.77951,83.865011 23.271,83.954308 23.762543,84.038511 24.254136,84.11761899999999 24.745777,84.19163 25.237462,84.260543 25.729188999999998,84.32435699999999 26.220955,84.38307 26.712756,84.43668199999999 27.20459,84.485191 27.696454,84.52859699999999 28.188344,84.566898 28.680257,84.600094 29.17219,84.628184 29.66414,84.651167 30.156103,84.669044 30.648077,84.681813 31.140057,84.689475 31.63204,84.692028 32.124023,84.689475 32.616003,84.681813 33.107977,84.669044 33.599940000000004,84.651167 34.09189,84.628184 34.583823,84.600094 35.075736,84.566898 35.567626000000004,84.52859699999999 36.05949,84.485191 36.551324,84.43668199999999 37.043125,84.38307 37.534891,84.32435699999999 38.026618,84.260543 38.518303,84.19163 39.009944000000004,84.11761899999999 39.501537,84.038511 39.99308,83.954308 40.484570000000005,83.865011 40.768919,83.810397 42.820640999999995,87.229934 43.875859,86.830951 42.062767,77.010034 40.588951,77.308407 40.117182,77.399019 39.645468,77.484722 39.173807,77.565519 38.702196,77.64141099999999 38.230633,77.7124 37.759114,77.778487 37.287637000000004,77.839673 36.816199,77.89596 36.344796,77.94734799999999 35.873426,77.993839 35.402086,78.035433 34.930772,78.072132 34.459481,78.103936 33.98821,78.13084599999999 33.516956,78.152863 33.045715,78.169986 32.574484999999996,78.182217 32.103261,78.189555 31.63204,78.192002 31.160819,78.189555 30.689595,78.182217 30.218365,78.169986 29.747124,78.152863 29.27587,78.13084599999999 28.804599,78.103936 28.333308,78.072132 27.861994,78.035433 27.390653999999998,77.993839 26.919284,77.94734799999999 26.447881,77.89596 25.976443,77.839673 25.504966,77.778487 25.033447,77.7124 24.561884,77.64141099999999 24.090273,77.565519 23.618612,77.484722 23.146898,77.399019 22.675129,77.308407 22.0,77.171728 22.0,83.712302 22.288075,83.770623 22.77951,83.865011" /><polygon points="49.3761850023312,82.334717 49.9077200023312,82.40571 50.4392760023312,82.472649 50.9708520023312,82.535533 51.5024480023312,82.594362 52.034062002331204,82.649136 52.5656930023312,82.699855 53.0973400023312,82.746517 53.6290010023312,82.78912199999999 54.1606750023312,82.827671 54.692361002331204,82.862163 55.224058002331205,82.89259799999999 55.755764002331205,82.918975 56.2874780023312,82.941295 56.8191980023312,82.959557 57.3509240023312,82.97376 57.8826540023312,82.98390599999999 58.4143860023312,82.989993 58.9461200023312,82.99202199999999 59.4778540023312,82.989993 60.009586002331204,82.98390599999999 60.5413160023312,82.97376 61.0730420023312,82.959557 61.6047620023312,82.941295 62.1364760023312,82.918975 62.6681820023312,82.89259799999999 63.1998790023312,82.862163 63.7315650023312,82.827671 64.2632390023312,82.78912199999999 64.7949000023312,82.746517 65.3265470023312,82.699855 65.8581780023312,82.649136 66.3897920023312,82.594362 66.9213880023312,82.535533 67.4529640023312,82.472649 67.98452000233121,82.40571 68.5160550023312,82.334717 69.0475660023312,82.259671 70.4281600023312,82.054203 70.4281600023312,77.032175 68.7605500023312,77.280359 68.2438570023312,77.353313 67.7271880023312,77.42232 67.2105400023312,77.487381 66.6939120023312,77.548497 66.1773040023312,77.605668 65.6607140023312,77.658894 65.1441410023312,77.708175 64.6275840023312,77.753513 64.1110410023312,77.79490799999999 63.5945110023312,77.832359 63.0779930023312,77.865867 62.5614860023312,77.895432 62.0449880023312,77.921055 61.528498002331204,77.942735 61.0120140023312,77.960473 60.4955360023312,77.97427 59.979062002331204,77.984124 59.4625900023312,77.990037 58.9461200023312,77.992008 58.4296500023312,77.990037 57.9131780023312,77.984124 57.396704002331205,77.97427 56.8802260023312,77.960473 56.3637420023312,77.942735 55.8472520023312,77.921055 55.330754002331204,77.895432 54.8142470023312,77.865867 54.2977290023312,77.832359 53.7811990023312,77.79490799999999 53.2646560023312,77.753513 52.7480990023312,77.708175 52.2315260023312,77.658894 51.7149360023312,77.605668 51.1983280023312,77.548497 50.6817000023312,77.487381 50.1650520023312,77.42232 49.6483830023312,77.353313 49.131690002331204,77.280359 48.4640800023312,77.181001 48.4640800023312,82.203029 48.8446740023312,82.259671 49.3761850023312,82.334717" /><polygon points="74.4281600046624,147.192015 82.4353800046624,147.192015 82.02933700466241,90.752083 86.2530820046624,78.186442 83.72882100466241,76.924311 83.03270800466241,77.852679 82.83696900466241,78.114294 82.64115400466241,78.377158 82.4455420046624,78.641477 82.25041600466241,78.907461 82.0560600046624,79.17532299999999 81.86276300466241,79.44527599999999 81.6708160046624,79.71753199999999 81.48051500466241,79.992308 81.2921560046624,80.269819 81.1060420046624,80.55028 80.9224790046624,80.833908 80.7417750046624,81.12091699999999 80.56440200466241,81.411262 80.3914630046624,81.703405 80.2232380046624,81.994937 80.05891000466241,82.284606 79.8974350046624,82.571624 79.7378130046624,82.855214 79.5790870046624,83.134608 79.42034400466241,83.40905 79.2607130046624,83.67779999999999 79.09936300466241,83.94013799999999 78.9355010046624,84.195373 78.76836600466241,84.44285599999999 78.59721800466241,84.681989 78.4213210046624,84.912254 78.2390290046624,85.134315 78.0475640046624,85.351157 77.84581000466241,85.565506 77.6344380046624,85.7782 77.41437200466241,85.989899 77.1866020046624,86.201291 76.9521710046624,86.41310299999999 76.75058500466241,86.592015 74.4281600046624,86.592015 74.4281600046624,147.192015" /><polygon points="90.0281600046624,88.46392 97.0281600046624,92.87392 104.0281600046624,88.46392 104.0281600046624,77.192015 90.0281600046624,77.192015 90.0281600046624,88.46392" /></g><g fill="none" id="COSTURA" stroke="#00a000" stroke-width="0.08"><polygon points="4.0,13.592015 5.904,13.592015 6.179673676802631,13.375504070671315 6.4540577993888615,13.158073943868006 6.725862813542281,12.938805422115449 6.993799165046495,12.716779307939017 7.256577299685094,12.49107640386409 7.512907663241676,12.26077751241604 7.761500701499839,12.024963436120249 8.001066860243181,11.782714977502083 8.230461331562989,11.533215191163547 8.44996477459955,11.276654113979522 8.660668484209882,11.013794434291723 8.863673115942678,10.745405453046896 9.060079325346626,10.472256471191782 9.250987767970425,10.195116789673127 9.437499099362764,9.914755709437676 9.620713975072341,9.63194253143217 9.801733050647844,9.347446556603355 9.981656981637965,9.062037085897977 10.161586423591398,8.776483420262776 10.342622032056838,8.4915548606445 10.525864462582975,8.208020707989894 10.712414196770023,7.926650142964255 10.903068403859834,7.648002612599036 11.097697641171434,7.371996832744116 11.295996137149299,7.098429591821779 11.497658120237908,6.82709767825431 11.702377818881736,6.557797880463993 11.909849461525264,6.290326986873115 12.11976727661297,6.024481785903958 12.33182549258933,5.760059065978808 12.54571833789882,5.49685561551995 12.761140040985927,5.234668222949669 12.977784830295118,4.973293676690248 13.195346934270876,4.712528765163973 13.413520581357677,4.4521702767931295 13.632000000000001,4.192015 26.463211945876356,9.192015 26.231549791040297,9.754282580940364 26.003297848579397,10.315881169710792 25.781866330868784,10.876141774141342 25.570665450283624,11.434395402062087 25.37310541919906,11.989973061303079 25.19259644999024,12.542205759694388 25.032548755032312,13.090424505066075 24.896372546700434,13.633960305248204 24.78747803736975,14.172144168070835 24.709275439415396,14.704307101364034 24.665174965212543,15.229780112957863 24.65858682713632,15.747894210682386 24.69292123756189,16.257980402367664 24.7715884088644,16.75936969584376 24.897998553418994,17.25139309894074 25.075057671217994,17.733462620396338 25.300652301231743,18.20579663728166 25.5697902234176,18.66907599466933 25.877445083593216,19.123987021226558 26.21859052757625,19.57121604562056 26.58820020118435,20.01144939651855 26.98124775023518,20.445373402587748 27.392706820546397,20.873674392495353 27.817551057935656,21.2970386949086 28.250754108220605,21.716152638494695 28.68728961721891,22.131702551920846 29.12213123074822,22.54437476385428 29.550579316783555,22.954830540544656 29.971433593185225,23.363462717815363 30.385617193187045,23.77050124715056 30.794083070560433,24.17617379254103 31.197784179076784,24.580708017977553 31.597673472507513,24.98433158745092 31.994703904624018,25.387272164951934 32.38982842919771,25.789757414471357 32.784000000000006,26.192015 32.784000000000006,72.192015 4.0,72.192015" /><polygon points="38.784000000000006,4.192015 59.215590386072805,4.192015 59.23100149807283,4.53686127035005 59.277651854574245,5.0516649941285685 59.34990263798228,5.5621523864734215 59.44988721720584,6.06796375309847 59.57961038576091,6.568754492642356 59.73875222045092,7.064452892464548 59.92497313157236,7.555224320084237 60.135866342749765,8.041242029781548 60.36902507760774,8.522679275836616 60.62204255977082,8.999709312529573 60.89251201286359,9.472505394140542 61.17802666051061,9.941240774949659 61.47617972633645,10.406088709237045 61.78456443396567,10.86722245128284 62.100774007022835,11.324815255367168 62.422401669132526,11.77904037577016 62.747040643919284,12.230071066771947 63.07235410386893,12.678085438993469 63.39726650197787,13.123349169999925 63.72179623564978,13.56620388665412 64.04599797123282,14.006993733863533 64.36992637507512,14.446062856535614 64.69363611352486,14.883755399577838 65.01718185293015,15.32041550789767 65.34061825963916,15.756387326402566 65.66400000000002,16.192014999999998 65.66400000000002,62.192015 38.784000000000006,62.192015" /><polygon points="71.66400000000002,6.192015 71.94674882631904,6.19237136281907 72.22941056646508,6.192133589548963 72.51189813426515,6.190707544100493 72.7941244435463,6.1874990903844855 73.07600240813551,6.181914092311757 73.35744494185981,6.173358413793131 73.63836495854623,6.161237918739425 73.91867537202178,6.14495847106146 74.19828909611348,6.123925934670056 74.47711904464835,6.097546173476033 74.7550781314534,6.065225051390213 75.03207927035567,6.026368432323413 75.30803488224969,5.980383816906702 75.58279012867906,5.926902031978915 75.85605523347523,5.8660019480655805 76.12752429803226,5.797815968215919 76.3968914237442,5.72247649547915 76.66385071200511,5.640115932904493 76.92809626420907,5.550866683541168 77.18932218175014,5.4548611504383935 77.44722256602236,5.3522317366453915 77.70149151841981,5.24311084521138 77.95182314033654,5.1276308791855785 78.19796647381685,5.005969848373326 78.44023367651103,4.8787732101985934 78.67926727102503,4.746960661176141 78.91571397899489,4.611455383475511 79.15022052205666,4.473180559266248 79.38343362184635,4.333059370717897 79.61600000000001,4.192015 92.6773322444535,8.692015 92.58318025296845,9.230558546663692 92.49116163039228,9.768742399041248 92.4034097456339,10.306206862846523 92.32205796760216,10.842592243793382 92.24923966520598,11.377538847595686 92.18708820735421,11.910686979967293 92.13773696295576,12.441676946622069 92.10331930091951,12.97014905327387 92.08596859015435,13.49574360563656 92.08781819956917,14.018100909424 92.09559038607281,14.192015 71.66400000000002,14.192015" /><polygon points="98.6773322444535,14.092015 99.04941472547497,13.560045985769024 99.42857904510527,13.03342906878231 99.82190704195318,12.517516346284104 100.23646947234073,12.017651603203356 100.67672095521726,11.537216379750658 101.14114241433234,11.075111621204112 101.62738486626905,10.629615797519527 102.13309932761048,10.19900737865272 102.65593681493971,9.781564834559495 103.1935483448398,9.375566635195668 103.74358493389384,8.97929125051705 104.3036975986849,8.591017150479454 104.87153735579606,8.209022805038686 105.44506249285122,7.832047052810097 106.02417247313633,7.461737097724244 106.60952267507068,7.100872693123902 107.20177018086363,6.7522361450542885 107.80157207272454,6.418609759560624 108.40958543286274,6.1027758426881284 109.02646734348758,5.807516700482024 109.65287488680842,5.535614638987529 110.2894651450346,5.289851964249865 110.93689520037545,5.073010982314251 111.59576820445665,4.887698228471964 112.26565871902632,4.733167854155839 112.94521821448842,4.605665468142566 113.63306540785831,4.5013299292460225 114.32781901615135,4.4163000962800885 115.02809775638292,4.346714828058641 115.73252034556839,4.288712983395557 116.43970550072312,4.238433421104718 117.1482719388625,4.192015 117.84200126658898,4.270133854731643 118.53416772227908,4.352133375692935 119.22320843389642,4.441894229113522 119.90756052940459,4.543297081223054 120.58566113676724,4.660222598251178 121.25594738394798,4.796551446427542 121.91685639891041,4.9561642919817945 122.56682530961817,5.142941801143583 123.20450304892283,5.360160000570606 123.83005915029501,5.606754057197888 124.44432755218082,5.879762460580514 125.0481449768825,6.176215753197476 125.64234814670228,6.493144477527764 126.22777378394235,6.827579176050369 126.805258610905,7.17655039124428 127.37563934989244,7.537088665588491 127.93975272320688,7.906224541561989 128.49843545315056,8.280988561643767 129.05239365695402,8.658756623983248 129.60141866289808,9.039323579890489 130.1449107346919,9.423518362779292 130.68226866289044,9.81217380148801 131.21289123804848,10.206122724854993 131.73617725072097,10.606197961718596 132.25152549146273,11.01323234091717 132.75833475082862,11.428058691289065 133.25600381937352,11.85150984167264 133.74393148765233,12.284418620906242 134.22196651828384,12.727137022952522 134.69210302079833,13.177724549199231 135.1569737662905,13.633558234768882 135.6192116332715,14.092015 130.58827193886248,64.192015 103.7082719388625,64.192015" /><polygon points="141.6192116332715,4.992015 141.6345834089489,4.835942742387097 141.68010800726248,4.685868254107929 141.75403594342947,4.547558813584319 141.85352620832228,4.426329575050762 141.97475544685582,4.326839310157964 142.11306488737944,4.252911373990971 142.2631393756586,4.207386775677415 142.41921163327152,4.192015 163.8192116332715,4.192015 163.9752838908844,4.207386775677415 164.12535837916357,4.252911373990971 164.26366781968719,4.326839310157964 164.38489705822073,4.426329575050762 164.48438732311354,4.547558813584319 164.55831525928053,4.685868254107929 164.6038398575941,4.835942742387098 164.6192116332715,4.992015 164.6192116332715,15.392014999999999 164.6038398575941,15.548087257612902 164.55831525928053,15.69816174589207 164.48438732311354,15.83647118641568 164.38489705822073,15.957700424949238 164.26366781968719,16.057190689842034 164.12535837916357,16.131118626009027 163.9752838908844,16.176643224322582 163.8192116332715,16.192014999999998 142.41921163327152,16.192014999999998 142.2631393756586,16.176643224322582 142.11306488737944,16.131118626009027 141.97475544685582,16.057190689842038 141.85352620832228,15.957700424949238 141.75403594342947,15.83647118641568 141.68010800726248,15.69816174589207 141.6345834089489,15.548087257612902 141.6192116332715,15.392014999999999" /><polygon points="4.0,78.592015 4.007685887838708,78.51397887119354 4.030448186995486,78.43894162705396 4.067412155078982,78.36978690679216 4.117157287525381,78.30917228752539 4.1777719067921595,78.25942715507898 4.246926627053964,78.22246318699548 4.321963871193549,78.1997008878387 4.4,78.192015 15.6,78.192015 15.67803612880645,78.1997008878387 15.753073372946035,78.22246318699548 15.82222809320784,78.25942715507898 15.882842712474618,78.30917228752539 15.932587844921018,78.36978690679216 15.969551813004514,78.43894162705396 15.992314112161292,78.51397887119354 16.0,78.592015 16.0,80.79201499999999 15.992314112161292,80.87005112880645 15.969551813004514,80.94508837294603 15.932587844921018,81.01424309320784 15.882842712474618,81.07485771247461 15.82222809320784,81.12460284492101 15.753073372946035,81.16156681300451 15.67803612880645,81.1843291121613 15.6,81.192015 4.4,81.192015 4.321963871193549,81.1843291121613 4.2469266270539645,81.16156681300451 4.1777719067921595,81.12460284492101 4.117157287525381,81.07485771247461 4.067412155078982,81.01424309320784 4.030448186995486,80.94508837294603 4.007685887838708,80.87005112880645 4.0,80.79201499999999" /><polygon points="22.0,78.192015 22.48160200005828,78.289515 22.963204000116562,78.382015 23.44480600017484,78.469515 23.92640800023312,78.552015 24.4080100002914,78.629515 24.88961200034968,78.702015 25.37121400040796,78.769515 25.85281600046624,78.832015 26.334418000524522,78.889515 26.816020000582803,78.942015 27.29762200064108,78.989515 27.77922400069936,79.032015 28.260826000757643,79.069515 28.74242800081592,79.102015 29.2240300008742,79.129515 29.705632000932482,79.15201499999999 30.187234000990763,79.169515 30.668836001049044,79.18201499999999 31.15043800110732,79.189515 31.632040001165603,79.192015 32.11364200122388,79.189515 32.59524400128216,79.18201499999999 33.07684600134044,79.169515 33.55844800139872,79.15201499999999 34.040050001457004,79.129515 34.521652001515285,79.102015 35.003254001573566,79.069515 35.48485600163184,79.032015 35.96645800169012,78.989515 36.4480600017484,78.942015 36.92966200180668,78.889515 37.411264001864964,78.832015 37.892866001923245,78.769515 38.374468001981526,78.702015 38.8560700020398,78.629515 39.33767200209809,78.552015 39.81927400215636,78.469515 40.30087600221464,78.382015 40.782478002272924,78.289515 41.264080002331205,78.192015 42.4640800023312,84.692015 41.264080002331205,82.692015 40.782478002272924,82.789515 40.30087600221464,82.882015 39.81927400215636,82.969515 39.33767200209809,83.052015 38.8560700020398,83.129515 38.374468001981526,83.202015 37.892866001923245,83.269515 37.411264001864964,83.332015 36.92966200180668,83.389515 36.4480600017484,83.442015 35.96645800169012,83.489515 35.48485600163184,83.532015 35.003254001573566,83.569515 34.521652001515285,83.602015 34.040050001457004,83.629515 33.55844800139872,83.65201499999999 33.07684600134044,83.669515 32.59524400128216,83.68201499999999 32.11364200122388,83.689515 31.632040001165603,83.692015 31.15043800110732,83.689515 30.668836001049044,83.68201499999999 30.187234000990763,83.669515 29.705632000932482,83.65201499999999 29.2240300008742,83.629515 28.74242800081592,83.602015 28.260826000757643,83.569515 27.77922400069936,83.532015 27.29762200064108,83.489515 26.816020000582803,83.442015 26.334418000524522,83.389515 25.85281600046624,83.332015 25.37121400040796,83.269515 24.88961200034968,83.202015 24.4080100002914,83.129515 23.92640800023312,83.052015 23.44480600017484,82.969515 22.963204000116562,82.882015 22.48160200005828,82.789515 22.0,82.692015" /><polygon points="48.4640800023312,78.192015 48.98818200238948,78.270015 49.512284002447764,78.344015 50.03638600250604,78.41401499999999 50.56048800256432,78.480015 51.084590002622605,78.54201499999999 51.60869200268088,78.600015 52.13279400273916,78.654015 52.65689600279744,78.704015 53.18099800285572,78.750015 53.705100002914,78.79201499999999 54.229202002972286,78.830015 54.753304003030564,78.864015 55.27740600308884,78.894015 55.80150800314712,78.92001499999999 56.325610003205405,78.942015 56.84971200326368,78.960015 57.37381400332196,78.974015 57.897916003380246,78.984015 58.422018003438524,78.990015 58.9461200034968,78.992015 59.47022200355509,78.990015 59.994324003613364,78.984015 60.51842600367164,78.974015 61.04252800372993,78.960015 61.566630003788205,78.942015 62.09073200384648,78.92001499999999 62.61483400390476,78.894015 63.13893600396304,78.864015 63.663038004021324,78.830015 64.18714000407961,78.79201499999999 64.71124200413789,78.750015 65.23534400419616,78.704015 65.75944600425444,78.654015 66.28354800431272,78.600015 66.807650004371,78.54201499999999 67.33175200442929,78.480015 67.85585400448757,78.41401499999999 68.37995600454585,78.344015 68.90405800460412,78.270015 69.4281600046624,78.192015 69.4281600046624,81.192015 68.90405800460412,81.270015 68.37995600454585,81.344015 67.85585400448757,81.41401499999999 67.33175200442929,81.480015 66.807650004371,81.54201499999999 66.28354800431272,81.600015 65.75944600425444,81.654015 65.23534400419616,81.704015 64.71124200413789,81.75001499999999 64.18714000407961,81.79201499999999 63.663038004021324,81.830015 63.13893600396304,81.864015 62.61483400390476,81.894015 62.09073200384648,81.92001499999999 61.566630003788205,81.942015 61.04252800372993,81.960015 60.51842600367164,81.974015 59.994324003613364,81.984015 59.47022200355509,81.990015 58.9461200034968,81.992015 58.422018003438524,81.990015 57.897916003380246,81.984015 57.37381400332196,81.974015 56.84971200326368,81.960015 56.325610003205405,81.942015 55.80150800314712,81.92001499999999 55.27740600308884,81.894015 54.753304003030564,81.864015 54.229202002972286,81.830015 53.705100002914,81.79201499999999 53.18099800285572,81.75001499999999 52.65689600279744,81.704015 52.13279400273916,81.654015 51.60869200268088,81.600015 51.084590002622605,81.54201499999999 50.56048800256432,81.480015 50.03638600250604,81.41401499999999 49.512284002447764,81.344015 48.98818200238948,81.270015 48.4640800023312,81.192015" /><polygon points="75.4281600046624,87.592015 77.1281600046624,87.592015 77.37429721609332,87.37550407067131 77.61928303983103,87.158073943868 77.8619660881823,86.93880542211545 78.10119497345391,86.71677930793902 78.33581830795266,86.49107640386408 78.56468470398534,86.26077751241604 78.78664277385869,86.02496343612025 79.00054112987954,85.78271497750208 79.20535762212936,85.53321519116355 79.40134283912629,85.27665411397952 79.58947115127837,85.01379443429173 79.77072528675409,84.7454054530469 79.94608797372189,84.47225647119178 80.11654194035029,84.19511678967312 80.28306991480773,83.91475570943767 80.44665462526271,83.63194253143217 80.60827879988369,83.34744655660336 80.76892516683915,83.06203708589797 80.92957645429757,82.77648342026278 81.09121539042744,82.4915548606445 81.2548247033972,82.20802070798989 81.4213869660642,81.92665014296425 81.59161393668012,81.64800261259903 81.76539004142262,81.37199683274412 81.94244226997428,81.09842959182177 82.12249761201768,80.8270976782543 82.30528305723539,80.557797880464 82.49052559530996,80.29032698687311 82.67795221592398,80.02448178590396 82.86728990876001,79.76005906597881 83.05826566350063,79.49685561551995 83.25060646982841,79.23466822294967 83.4440393174259,78.97329367669025 83.63829119597568,78.71252876516397 83.83308909516033,78.45217027679313 84.02816000466241,78.192015 85.02816000466241,78.692015 81.02816000466241,90.592015 81.4281600046624,146.192015 75.4281600046624,146.192015" /><polygon points="91.0281600046624,78.192015 103.0281600046624,78.192015 103.0281600046624,87.912015 97.0281600046624,91.692015 91.0281600046624,87.912015" /></g><g fill="none" id="PIQUETES" stroke="#00b0b0" stroke-width="0.08"><line x1="22.421084253319698" x2="22.54680440125822" y1="15.834181690631926" y2="16.468054268049748" /><line x1="22.892919175108133" x2="22.54680440125822" y1="15.922339540996482" y2="16.468054268049748" /><line x1="30.00013110629091" x2="29.354234081612425" y1="46.67210863264497" y2="46.65168723427272" /><line x1="29.807868893709088" x2="29.354234081612425" y1="47.11192136735503" y2="46.65168723427272" /><line x1="47.66735597710074" x2="47.98463698199915" y1="4.223771509572371" y2="4.786739327418699" /><line x1="48.1431354390357" x2="47.98463698199915" y1="4.160258490427629" y2="4.786739327418699" /><line x1="81.02198972545452" x2="80.88374286005116" y1="14.23141386079317" y2="13.600154956534272" /><line x1="80.54850169068195" x2="80.88374286005116" y1="14.15261613920683" y2="13.600154956534272" /><line x1="125.00774566064355" x2="125.06646908722354" y1="6.748050997133127" y2="7.391597078754875" /><line x1="125.46777011047372" x2="125.06646908722354" y1="6.885082035801204" y2="7.391597078754875" /><line x1="108.43268944018742" x2="108.83740492196311" y1="6.576375150842299" y2="7.080166157918711" /><line x1="108.89177716417824" x2="108.83740492196311" y1="6.436237855018071" y2="7.080166157918711" /><line x1="107.10683376015666" x2="107.53798101160638" y1="7.463746060997012" y2="7.945110836990596" /><line x1="107.55774664055215" x2="107.53798101160638" y1="7.299193411995436" y2="7.945110836990596" /></g><g fill="none" id="TEXTOS" stroke="#000000" stroke-width="0.08"><text fill="#000000" font-family="sans-serif" font-size="0.9" stroke="none" text-anchor="middle" x="17.847139785438927" y="38.92141131188846">DELANTERO (oversize)</text><text fill="#000000" font-family="sans-serif" font-size="0.6" stroke="none" text-anchor="middle" x="17.847139785438927" y="40.32141131188846">Pieza N.01</text><text fill="#000000" font-family="sans-serif" font-size="0.6" stroke="none" text-anchor="middle" x="17.847139785438927" y="41.72141131188846">Talla: S</text><text fill="#000000" font-family="sans-serif" font-size="0.6" stroke="none" text-anchor="middle" x="17.847139785438927" y="43.121411311888465">Cortar: 2  (par: izq + der)</text><text fill="#000000" font-family="sans-serif" font-size="0.9" stroke="none" text-anchor="middle" x="51.8802344466714" y="30.368870654431593">ESPALDA (oversize)</text><text fill="#000000" font-family="sans-serif" font-size="0.6" stroke="none" text-anchor="middle" x="51.8802344466714" y="31.76887065443159">Pieza N.02</text><text fill="#000000" font-family="sans-serif" font-size="0.6" stroke="none" text-anchor="middle" x="51.8802344466714" y="33.168870654431586">Talla: S</text><text fill="#000000" font-family="sans-serif" font-size="0.6" stroke="none" text-anchor="middle" x="51.8802344466714" y="34.56887065443159">Cortar: 1  (al doblez)</text><text fill="#000000" font-family="sans-serif" font-size="0.6" stroke="none" text-anchor="middle" x="51.8802344466714" y="35.96887065443159">AL DOBLEZ</text><text fill="#000000" font-family="sans-serif" font-size="0.9" stroke="none" text-anchor="middle" x="81.47285139656711" y="6.460257639616991">CANESU (oversize)</text><text fill="#000000" font-family="sans-serif" font-size="0.6" stroke="none" text-anchor="middle" x="81.47285139656711" y="7.860257639616991">Pieza N.03</text><text fill="#000000" font-family="sans-serif" font-size="0.6" stroke="none" text-anchor="middle" x="81.47285139656711" y="9.26025763961699">Talla: S</text><text fill="#000000" font-family="sans-serif" font-size="0.6" stroke="none" text-anchor="middle" x="81.47285139656711" y="10.66025763961699">Cortar: 2  (al doblez x2 (exterior+interior))</text><text fill="#000000" font-family="sans-serif" font-size="0.6" stroke="none" text-anchor="middle" x="81.47285139656711" y="12.06025763961699">AL DOBLEZ</text><text fill="#000000" font-family="sans-serif" font-size="0.9" stroke="none" text-anchor="middle" x="117.09809766281337" y="31.44207431505306">MANGA (oversize)</text><text fill="#000000" font-family="sans-serif" font-size="0.6" stroke="none" text-anchor="middle" x="117.09809766281337" y="32.842074315053054">Pieza N.04</text><text fill="#000000" font-family="sans-serif" font-size="0.6" stroke="none" text-anchor="middle" x="117.09809766281337" y="34.24207431505306">Talla: S</text><text fill="#000000" font-family="sans-serif" font-size="0.6" stroke="none" text-anchor="middle" x="117.09809766281337" y="35.64207431505306">Cortar: 2  (par: izq + der)</text><text fill="#000000" font-family="sans-serif" font-size="0.9" stroke="none" text-anchor="middle" x="153.1192116332715" y="7.492015000000004">PUNO</text><text fill="#000000" font-family="sans-serif" font-size="0.6" stroke="none" text-anchor="middle" x="153.1192116332715" y="8.892015000000002">Pieza N.05</text><text fill="#000000" font-family="sans-serif" font-size="0.6" stroke="none" text-anchor="middle" x="153.1192116332715" y="10.292015000000003">Talla: S</text><text fill="#000000" font-family="sans-serif" font-size="0.6" stroke="none" text-anchor="middle" x="153.1192116332715" y="11.692015000000003">Cortar: 4  (4 (2 tela + 2 entretela))</text><text fill="#000000" font-family="sans-serif" font-size="0.9" stroke="none" text-anchor="middle" x="9.999999999999996" y="76.992015">TAPETA MANGA</text><text fill="#000000" font-family="sans-serif" font-size="0.6" stroke="none" text-anchor="middle" x="9.999999999999996" y="78.392015">Pieza N.06</text><text fill="#000000" font-family="sans-serif" font-size="0.6" stroke="none" text-anchor="middle" x="9.999999999999996" y="79.79201499999999">Talla: S</text><text fill="#000000" font-family="sans-serif" font-size="0.6" stroke="none" text-anchor="middle" x="9.999999999999996" y="81.192015">Cortar: 2  (par)</text><text fill="#000000" font-family="sans-serif" font-size="0.9" stroke="none" text-anchor="middle" x="31.935060528670164" y="77.53093154181553">CUELLO</text><text fill="#000000" font-family="sans-serif" font-size="0.6" stroke="none" text-anchor="middle" x="31.935060528670164" y="78.93093154181554">Pieza N.07</text><text fill="#000000" font-family="sans-serif" font-size="0.6" stroke="none" text-anchor="middle" x="31.935060528670164" y="80.33093154181553">Talla: S</text><text fill="#000000" font-family="sans-serif" font-size="0.6" stroke="none" text-anchor="middle" x="31.935060528670164" y="81.73093154181554">Cortar: 2  (al doblez x2 (+ entretela))</text><text fill="#000000" font-family="sans-serif" font-size="0.6" stroke="none" text-anchor="middle" x="31.935060528670164" y="83.13093154181553">AL DOBLEZ</text><text fill="#000000" font-family="sans-serif" font-size="0.9" stroke="none" text-anchor="middle" x="58.94612000349681" y="76.625015">PIE DE CUELLO</text><text fill="#000000" font-family="sans-serif" font-size="0.6" stroke="none" text-anchor="middle" x="58.94612000349681" y="78.025015">Pieza N.08</text><text fill="#000000" font-family="sans-serif" font-size="0.6" stroke="none" text-anchor="middle" x="58.94612000349681" y="79.425015">Talla: S</text><text fill="#000000" font-family="sans-serif" font-size="0.6" stroke="none" text-anchor="middle" x="58.94612000349681" y="80.825015">Cortar: 2  (al doblez x2 (+ entretela))</text><text fill="#000000" font-family="sans-serif" font-size="0.6" stroke="none" text-anchor="middle" x="58.94612000349681" y="82.225015">AL DOBLEZ</text><text fill="#000000" font-family="sans-serif" font-size="0.9" stroke="none" text-anchor="middle" x="78.57837287091488" y="112.0566031491815">VISTA DELANTERA</text><text fill="#000000" font-family="sans-serif" font-size="0.6" stroke="none" text-anchor="middle" x="78.57837287091488" y="113.45660314918149">Pieza N.09</text><text fill="#000000" font-family="sans-serif" font-size="0.6" stroke="none" text-anchor="middle" x="78.57837287091488" y="114.8566031491815">Talla: S</text><text fill="#000000" font-family="sans-serif" font-size="0.6" stroke="none" text-anchor="middle" x="78.57837287091488" y="116.2566031491815">Cortar: 2  (par: izq + der)</text><text fill="#000000" font-family="sans-serif" font-size="0.9" stroke="none" text-anchor="middle" x="97.0281600046624" y="81.34829406976743">BOLSILLO</text><text fill="#000000" font-family="sans-serif" font-size="0.6" stroke="none" text-anchor="middle" x="97.0281600046624" y="82.74829406976744">Pieza N.10</text><text fill="#000000" font-family="sans-serif" font-size="0.6" stroke="none" text-anchor="middle" x="97.0281600046624" y="84.14829406976745">Talla: S</text><text fill="#000000" font-family="sans-serif" font-size="0.6" stroke="none" text-anchor="middle" x="97.0281600046624" y="85.54829406976744">Cortar: 1  (1 (opcional))</text></g><g fill="none" id="CENTROS" stroke="#0050ff" stroke-width="0.08"><circle cx="19.104" cy="29.192015" fill="#0050ff" r="0.15" /><circle cx="121.27124954922164" cy="52.192015" fill="#0050ff" r="0.15" /></g><g fill="none" id="HILO" stroke="#c0a000" stroke-width="0.08"><line x1="17.904" x2="17.904" y1="16.592015" y2="69.192015" /><line x1="17.904" x2="18.37130201077038" y1="69.192015" y2="68.08674180719655" /><line x1="17.904" x2="17.436697989229618" y1="69.192015" y2="68.08674180719655" /><line x1="17.904" x2="17.43669798922962" y1="16.592015" y2="17.697288192803462" /><line x1="17.904" x2="18.37130201077038" y1="16.592015" y2="17.697288192803462" /><line x1="39.284000000000006" x2="39.284000000000006" y1="7.192015" y2="59.192015" /><line x1="39.284000000000006" x2="39.75130201077039" y1="59.192015" y2="58.08674180719654" /><line x1="39.284000000000006" x2="38.816697989229624" y1="59.192015" y2="58.08674180719654" /><line x1="39.284000000000006" x2="38.816697989229624" y1="7.192015" y2="8.297288192803462" /><line x1="39.284000000000006" x2="39.75130201077039" y1="7.192015" y2="8.297288192803462" /><line x1="75.92400000000002" x2="75.92400000000002" y1="5.192015" y2="13.692015" /><line x1="75.92400000000002" x2="76.3913020107704" y1="13.692015" y2="12.586741807196537" /><line x1="75.92400000000002" x2="75.45669798922964" y1="13.692015" y2="12.586741807196537" /><line x1="75.92400000000002" x2="75.45669798922964" y1="5.192015" y2="6.297288192803462" /><line x1="75.92400000000002" x2="76.3913020107704" y1="5.192015" y2="6.297288192803462" /><line x1="117.1482719388625" x2="117.1482719388625" y1="8.152015" y2="62.192015" /><line x1="117.1482719388625" x2="117.61557394963287" y1="62.192015" y2="61.08674180719654" /><line x1="117.1482719388625" x2="116.68096992809211" y1="62.192015" y2="61.08674180719654" /><line x1="117.1482719388625" x2="116.68096992809211" y1="8.152015" y2="9.257288192803463" /><line x1="117.1482719388625" x2="117.61557394963287" y1="8.152015" y2="9.257288192803463" /><line x1="153.1192116332715" x2="153.1192116332715" y1="4.692015" y2="15.692015" /><line x1="153.1192116332715" x2="153.58651364404187" y1="15.692015" y2="14.586741807196537" /><line x1="153.1192116332715" x2="152.65190962250114" y1="15.692015" y2="14.586741807196537" /><line x1="153.1192116332715" x2="152.65190962250114" y1="4.692015" y2="5.797288192803462" /><line x1="153.1192116332715" x2="153.58651364404187" y1="4.692015" y2="5.797288192803462" /><line x1="10.0" x2="10.0" y1="78.592015" y2="80.79201499999999" /><line x1="10.0" x2="10.467302010770382" y1="80.79201499999999" y2="79.68674180719654" /><line x1="10.0" x2="9.532697989229618" y1="80.79201499999999" y2="79.68674180719654" /><line x1="10.0" x2="9.53269798922962" y1="78.592015" y2="79.69728819280346" /><line x1="10.0" x2="10.46730201077038" y1="78.592015" y2="79.69728819280346" /><line x1="22.5" x2="40.764080002331205" y1="78.692015" y2="78.692015" /><line x1="40.764080002331205" x2="39.658806809527746" y1="78.692015" y2="78.22471298922962" /><line x1="40.764080002331205" x2="39.658806809527746" y1="78.692015" y2="79.15931701077038" /><line x1="22.5" x2="23.605273192803462" y1="78.692015" y2="79.15931701077038" /><line x1="22.5" x2="23.605273192803462" y1="78.692015" y2="78.22471298922962" /><line x1="48.9640800023312" x2="68.9281600046624" y1="78.592015" y2="78.592015" /><line x1="68.9281600046624" x2="67.82288681185895" y1="78.592015" y2="78.12471298922962" /><line x1="68.9281600046624" x2="67.82288681185895" y1="78.592015" y2="79.05931701077037" /><line x1="48.9640800023312" x2="50.06935319513466" y1="78.592015" y2="79.05931701077037" /><line x1="48.9640800023312" x2="50.06935319513466" y1="78.592015" y2="78.12471298922962" /><line x1="78.4281600046624" x2="78.4281600046624" y1="92.592015" y2="143.192015" /><line x1="78.4281600046624" x2="78.89546201543278" y1="143.192015" y2="142.08674180719655" /><line x1="78.4281600046624" x2="77.96085799389202" y1="143.192015" y2="142.08674180719655" /><line x1="78.4281600046624" x2="77.96085799389202" y1="92.592015" y2="93.69728819280346" /><line x1="78.4281600046624" x2="78.89546201543278" y1="92.592015" y2="93.69728819280346" /><line x1="97.0281600046624" x2="97.0281600046624" y1="79.192015" y2="87.912015" /><line x1="97.0281600046624" x2="97.49546201543278" y1="87.912015" y2="86.80674180719653" /><line x1="97.0281600046624" x2="96.56085799389201" y1="87.912015" y2="86.80674180719653" /><line x1="97.0281600046624" x2="96.56085799389201" y1="79.192015" y2="80.29728819280346" /><line x1="97.0281600046624" x2="97.49546201543278" y1="79.192015" y2="80.29728819280346" /></g><g fill="none" id="DOBLEZ" stroke="#c000c0" stroke-width="0.08"><line x1="38.784000000000006" x2="38.784000000000006" y1="4.192015" y2="62.192015" /><line x1="71.66400000000002" x2="71.66400000000002" y1="4.192015" y2="14.192015" /><line x1="22.0" x2="22.0" y1="78.192015" y2="84.692015" /><line x1="48.4640800023312" x2="48.4640800023312" y1="78.192015" y2="81.992015" /></g><g fill="none" id="BOTONES" stroke="#ff8000" stroke-width="0.08"><circle cx="5.904" cy="15.092015" fill="#ff8000" r="0.55" /><circle cx="5.904" cy="23.60868166666667" fill="#ff8000" r="0.55" /><circle cx="5.904" cy="32.125348333333335" fill="#ff8000" r="0.55" /><circle cx="5.904" cy="40.642015" fill="#ff8000" r="0.55" /><circle cx="5.904" cy="49.158681666666666" fill="#ff8000" r="0.55" /><circle cx="5.904" cy="57.67534833333333" fill="#ff8000" r="0.55" /><circle cx="5.904" cy="66.192015" fill="#ff8000" r="0.55" /><circle cx="142.8192116332715" cy="10.192015" fill="#ff8000" r="0.55" /><circle cx="68.4281600046624" cy="79.692015" fill="#ff8000" r="0.55" /></g><g fill="none" id="OJAL" stroke="#ff40a0" stroke-width="0.08"><line x1="5.104" x2="6.704000000000001" y1="15.092015" y2="15.092015" /><line x1="5.104" x2="6.704000000000001" y1="23.60868166666667" y2="23.60868166666667" /><line x1="5.104" x2="6.704000000000001" y1="32.125348333333335" y2="32.125348333333335" /><line x1="5.104" x2="6.704000000000001" y1="40.642015" y2="40.642015" /><line x1="5.104" x2="6.704000000000001" y1="49.158681666666666" y2="49.158681666666666" /><line x1="5.104" x2="6.704000000000001" y1="57.67534833333333" y2="57.67534833333333" /><line x1="5.104" x2="6.704000000000001" y1="66.192015" y2="66.192015" /><line x1="163.41921163327152" x2="163.41921163327152" y1="9.392015" y2="10.992015" /></g><g fill="none" id="REFERENCIAS" stroke="#b0b0b0" stroke-width="0.08"><text fill="#000000" font-family="sans-serif" font-size="0.5" stroke="none" text-anchor="start" x="5.904" y="12.592015">CF</text><text fill="#000000" font-family="sans-serif" font-size="0.5" stroke="none" text-anchor="start" x="39.084" y="33.192015">CB</text><text fill="#000000" font-family="sans-serif" font-size="0.5" stroke="none" text-anchor="start" x="153.1192116332715" y="9.392015">DOBLEZ</text><text fill="#000000" font-family="sans-serif" font-size="0.5" stroke="none" text-anchor="start" x="97.0281600046624" y="79.692015">boca</text></g></svg>