<?xml version="1.0" encoding="utf-8" ?>
<svg baseProfile="full" height="163.237113cm" version="1.1" viewBox="0 0 158.0 163.237113" width="158.0cm" xmlns="http://www.w3.org/2000/svg" xmlns:ev="http://www.w3.org/2001/xml-events" xmlns:xlink="http://www.w3.org/1999/xlink"><defs /><rect fill="#f7f3ea" height="155.237113" stroke="#333" stroke-width="0.15" width="150.0" x="4.0" y="4.0" /><text fill="#000" font-family="sans-serif" font-size="1.4" x="4.0" y="3.0">PLANO DE CORTE — ancho 150 cm — largo 1.55 m</text><polygon fill="#cfe3f7" fill-opacity="0.5" points="4.0,74.27712 12.00722,74.27712 11.601177,17.837187999999998 15.824922,5.271547 13.281829,4.0 12.589966,4.97153 12.394179000000001,5.247058 12.198366,5.523829 12.002815,5.802047 11.807819,6.081919 11.613672000000001,6.363653 11.420673,6.647458 11.229121,6.9335439999999995 11.039321000000001,7.222123 10.851581,7.5134050000000006 10.66621,7.8076039999999995 10.483523,8.104929 10.303839,8.405593 10.12762,8.709561 9.955919,9.015327 9.788956,9.320492 9.625877,9.623798 9.465603,9.924468000000001 9.307096,10.221734999999999 9.149362,10.514841 8.991447,10.803038 8.832439,11.085594 8.671467,11.361792000000001 8.507696,11.630946 8.340322,11.892405 8.168566,12.145571 7.991658,12.389911 7.808073,12.625935 7.615093,12.856554 7.411572,13.08466 7.198189,13.311169 6.975921,13.536747 6.832577000000001,13.67712 4.0,13.67712 4.0,74.27712" stroke="#1f6fb2" stroke-width="0.1" /><text fill="#0a3d62" font-family="sans-serif" font-size="1.6" text-anchor="middle" x="9.912461" y="39.13856">09</text><polygon fill="#cfe3f7" fill-opacity="0.5" points="16.824922,74.27712 24.832142,74.27712 24.426099,17.837187999999998 28.649844,5.271547 26.106751000000003,4.0 25.414888,4.97153 25.219101000000002,5.247058 25.023288,5.523829 24.827737,5.802047 24.632741000000003,6.081919 24.438594000000002,6.363653 24.245595,6.647458 24.054043,6.9335439999999995 23.864243000000002,7.222123 23.676503,7.5134050000000006 23.491132,7.8076039999999995 23.308445,8.104929 23.128761,8.405593 22.952542,8.709561 22.780841000000002,9.015327 22.613878,9.320492 22.450799,9.623798 22.290525000000002,9.924468000000001 22.132018000000002,10.221734999999999 21.974284,10.514841 21.816369,10.803038 21.657361,11.085594 21.496389,11.361792000000001 21.332618,11.630946 21.165244,11.892405 20.993488,12.145571 20.816580000000002,12.389911 20.632995,12.625935 20.440015000000002,12.856554 20.236494,13.08466 20.023111,13.311169 19.800843,13.536747 19.657499,13.67712 16.824922,13.67712 16.824922,74.27712" stroke="#1f6fb2" stroke-width="0.1" /><text fill="#0a3d62" font-family="sans-serif" font-size="1.6" text-anchor="middle" x="22.737383" y="39.13856">09</text><polygon fill="#cfe3f7" fill-opacity="0.5" points="29.649844,74.241135 57.349844000000004,74.241135 57.349844000000004,26.835031 56.669314,26.135337 56.269076999999996,25.725236 55.86434,25.313334 55.453467,24.899379 55.034832,24.483139 54.606821,24.064398 54.167829,23.642954 53.716260000000005,23.218613 53.250564,22.791224 52.770683000000005,22.361873 52.281844,21.932924 51.792506,21.505383 51.309663,21.078892 50.840328,20.653345 50.391631000000004,20.229017000000002 49.970768,19.806618999999998 49.584904,19.387393 49.240995,18.973213 48.945472,18.566663 48.703702,18.170935 48.519261,17.789305 48.393225,17.423774 48.323444,17.068531 48.306059000000005,16.705595000000002 48.339315,16.320161 48.424026,15.908637 48.560265,15.471687 48.746471,15.011919 48.979516000000004,14.532586 49.255128,14.036865 49.568308,13.527552 49.91364,13.00699 50.285499,12.477102 50.678163,11.939444 51.085890000000006,11.395267 52.271152,9.83301 38.906047,4.0 38.239810000000006,4.935545 38.044023,5.211073 37.84821,5.487844 37.652659,5.766062 37.457663000000004,6.045934 37.263516,6.327668 37.070517,6.611473 36.878965,6.897559 36.689165,7.186138 36.501425000000005,7.47742 36.316054,7.771619 36.133367,8.068944 35.953683,8.369608 35.777464,8.673576 35.605763,8.979341999999999 35.4388,9.284507 35.275721000000004,9.587813 35.115447,9.888483 34.95694,10.185749999999999 34.799206,10.478856 34.641291,10.767053 34.482283,11.049609 34.321311,11.325807000000001 34.157540000000004,11.594961 33.990166,11.85642 33.81841,12.109586 33.641502,12.353926 33.457917,12.58995 33.264937,12.820569 33.061416,13.048675000000001 32.848033,13.275184 32.625765,13.500762 32.482421,13.641135 29.649844,13.641135 29.649844,74.241135" stroke="#1f6fb2" stroke-width="0.1" /><text fill="#0a3d62" font-family="sans-serif" font-size="1.6" text-anchor="middle" x="43.499844" y="39.1205675">01</text><polygon fill="#cfe3f7" fill-opacity="0.5" points="58.349844000000004,74.241135 86.04984400000001,74.241135 86.04984400000001,26.835031 85.369314,26.135337 84.969077,25.725236 84.56434,25.313334 84.153467,24.899379 83.73483200000001,24.483139 83.306821,24.064398 82.867829,23.642954 82.41626000000001,23.218613 81.950564,22.791224 81.47068300000001,22.361873 80.981844,21.932924 80.492506,21.505383 80.009663,21.078892 79.540328,20.653345 79.091631,20.229017000000002 78.67076800000001,19.806618999999998 78.28490400000001,19.387393 77.940995,18.973213 77.64547200000001,18.566663 77.40370200000001,18.170935 77.219261,17.789305 77.093225,17.423774 77.02344400000001,17.068531 77.00605900000001,16.705595000000002 77.039315,16.320161 77.124026,15.908637 77.260265,15.471687 77.446471,15.011919 77.679516,14.532586 77.955128,14.036865 78.268308,13.527552 78.61364,13.00699 78.985499,12.477102 79.378163,11.939444 79.78589000000001,11.395267 80.971152,9.83301 67.606047,4.0 66.93981000000001,4.935545 66.744023,5.211073 66.54821000000001,5.487844 66.352659,5.766062 66.157663,6.045934 65.963516,6.327668 65.770517,6.611473 65.57896500000001,6.897559 65.389165,7.186138 65.201425,7.47742 65.016054,7.771619 64.83336700000001,8.068944 64.653683,8.369608 64.477464,8.673576 64.305763,8.979341999999999 64.1388,9.284507 63.97572100000001,9.587813 63.815447000000006,9.888483 63.656940000000006,10.185749999999999 63.499206,10.478856 63.341291000000005,10.767053 63.182283000000005,11.049609 63.021311000000004,11.325807000000001 62.85754000000001,11.594961 62.690166000000005,11.85642 62.51841,12.109586 62.341502000000006,12.353926 62.157917000000005,12.58995 61.964937000000006,12.820569 61.761416000000004,13.048675000000001 61.548033000000004,13.275184 61.325765000000004,13.500762 61.182421000000005,13.641135 58.349844000000004,13.641135 58.349844000000004,74.241135" stroke="#1f6fb2" stroke-width="0.1" /><text fill="#0a3d62" font-family="sans-serif" font-size="1.6" text-anchor="middle" x="72.199844" y="39.1205675">01</text><polygon fill="#cfe3f7" fill-opacity="0.5" points="92.87380900000001,66.005586 118.653435,66.005586 124.48880500000001,16.134794 123.777876,15.283145000000001 123.33629,14.760045999999999 122.88583100000001,14.238246 122.42408700000001,13.721012000000002 121.950765,13.212814999999999 121.46794600000001,12.715608 120.976743,12.228902 120.477833,11.751744 119.971879,11.283179 119.45953300000001,10.822249 118.94143300000002,10.367995 118.418209,9.919459 117.890479,9.475687 117.358433,9.035378999999999 116.82030600000002,8.59664 116.27321300000001,8.160623000000001 115.715586,7.730626 115.14619200000001,7.310321 114.56372800000001,6.903441 113.96683800000001,6.5138 113.354139,6.145322 112.72426000000002,5.802068 112.07589200000001,5.488259 111.40894600000001,5.208743 110.72817800000001,4.968128 110.04047500000001,4.764244 109.34900900000001,4.591817 108.65576700000001,4.4453570000000004 107.96256600000001,4.3195250000000005 107.271133,4.209156 106.58317000000001,4.109253 105.791869,4.0 104.984115,4.0656 104.280325,4.127579 103.572809,4.199648 102.86304000000001,4.286804 102.15249800000001,4.39421 101.442732,4.527198 100.735433,4.691262 100.03278900000001,4.891951 99.34043600000001,5.133317 98.66444700000001,5.413119 98.00632900000001,5.726373000000001 97.36515200000001,6.068948 96.739833,6.436884 96.12923900000001,6.826359 95.53223500000001,7.233673 94.94771,7.655219000000001 94.37460100000001,8.08746 93.81187100000001,8.526936 93.25727400000001,8.971313 92.70811300000001,9.421824 92.16459800000001,9.881701 91.628881,10.352997 91.10328600000001,10.837697 90.59019300000001,11.337812 90.092054,11.855368 89.61140700000001,12.392382000000001 89.15089,12.950837 88.71389500000001,13.531784000000002 88.30558,14.130635999999999 87.92441600000001,14.737008 87.56364500000001,15.34365 87.04984400000001,16.232262 92.87380900000001,66.005586" stroke="#1f6fb2" stroke-width="0.1" /><text fill="#0a3d62" font-family="sans-serif" font-size="1.6" text-anchor="middle" x="105.76932450000001" y="35.002793">04</text><polygon fill="#cfe3f7" fill-opacity="0.5" points="9.823965000000001,137.282706 35.603591,137.282706 41.438961000000006,87.411914 40.728032,86.560265 40.286446,86.037166 39.835987,85.515366 39.374243,84.998132 38.900921,84.489935 38.418102000000005,83.992728 37.926899,83.506022 37.427989000000004,83.028864 36.922035,82.560299 36.409689,82.099369 35.891589,81.645115 35.368365,81.196579 34.840635,80.75280699999999 34.308589,80.312499 33.770462,79.87376 33.223369000000005,79.437743 32.665742,79.007746 32.096348,78.587441 31.513884,78.180561 30.916994000000003,77.79092 30.304295000000003,77.42244199999999 29.674416,77.079188 29.026048000000003,76.765379 28.359102,76.485863 27.678334,76.245248 26.990631,76.041364 26.299165000000002,75.868937 25.605923,75.722477 24.912722000000002,75.596645 24.221289000000002,75.486276 23.533326000000002,75.38637299999999 22.742025,75.27712 21.934271000000003,75.34272 21.230481,75.404699 20.522965000000003,75.47676799999999 19.813196,75.563924 19.102654,75.67133 18.392888,75.804318 17.685589,75.96838199999999 16.982945,76.169071 16.290592,76.410437 15.614603000000002,76.69023899999999 14.956485,77.00349299999999 14.315308000000002,77.346068 13.689989,77.714004 13.079395000000002,78.103479 12.482391000000002,78.51079299999999 11.897866,78.932339 11.324757000000002,79.36457999999999 10.762027000000002,79.804056 10.207430000000002,80.24843299999999 9.658269,80.698944 9.114754000000001,81.158821 8.579037000000001,81.630117 8.053442000000002,82.114817 7.540349000000001,82.614932 7.042210000000001,83.132488 6.561563,83.669502 6.101046,84.227957 5.664051000000001,84.808904 5.255736000000002,85.40775599999999 4.874572000000001,86.014128 4.513801000000001,86.62077 4.0,87.50938199999999 9.823965000000001,137.282706" stroke="#1f6fb2" stroke-width="0.1" /><text fill="#0a3d62" font-family="sans-serif" font-size="1.6" text-anchor="middle" x="22.719480500000003" y="106.279913">04</text><polygon fill="#cfe3f7" fill-opacity="0.5" points="92.438961,87.914525 91.847245,87.205855 91.48603,86.774166 91.121702,86.340599 90.75305300000001,85.904635 90.378876,85.465767 89.997973,85.023495 89.609148,84.577328 89.21121400000001,84.12678299999999 88.80302300000001,83.67142199999999 88.38464300000001,83.212028 87.960368,82.750862 87.536792,82.28933699999999 87.119465,81.827715 86.71393400000001,81.36644199999999 86.325782,80.906221 85.96059000000001,80.44804099999999 85.623866,79.993212 85.320941,79.543397 85.056796,79.10062099999999 84.835813,78.667189 84.66145700000001,78.24543399999999 84.535977,77.83716899999999 84.46032500000001,77.442636 84.434371,77.054954 84.45725800000001,76.659432 84.69463900000001,75.27712 67.438961,75.27712 67.438961,135.27712 92.438961,135.27712 92.438961,87.914525 42.438961000000006,87.914525 43.03067700000001,87.205855 43.391892000000006,86.774166 43.756220000000006,86.340599 44.124869000000004,85.904635 44.49904600000001,85.465767 44.87994900000001,85.023495 45.26877400000001,84.577328 45.66670800000001,84.12678299999999 46.074899,83.67142199999999 46.493279,83.212028 46.91755400000001,82.750862 47.34113000000001,82.28933699999999 47.75845700000001,81.827715 48.163988,81.36644199999999 48.55214000000001,80.906221 48.917332,80.44804099999999 49.254056000000006,79.993212 49.55698100000001,79.543397 49.82112600000001,79.10062099999999 50.04210900000001,78.667189 50.21646500000001,78.24543399999999 50.34194500000001,77.83716899999999 50.41759700000001,77.442636 50.44355100000001,77.054954 50.420664,76.659432 50.183283,75.27712 67.438961,75.27712 67.438961,135.27712 42.438961000000006,135.27712 42.438961000000006,87.914525" stroke="#1f6fb2" stroke-width="0.1" /><text fill="#0a3d62" font-family="sans-serif" font-size="1.6" text-anchor="middle" x="67.438961" y="105.27712">02</text><polygon fill="#cfe3f7" fill-opacity="0.5" points="93.438961,86.549025 100.438961,90.959025 107.438961,86.549025 107.438961,75.27712 93.438961,75.27712 93.438961,86.549025" stroke="#1f6fb2" stroke-width="0.1" /><text fill="#0a3d62" font-family="sans-serif" font-size="1.6" text-anchor="middle" x="100.438961" y="83.1180725">10</text><polygon fill="#cfe3f7" fill-opacity="0.5" points="108.438961,87.526247 108.46880200000001,87.829227 108.57150800000001,88.167802 108.73829300000001,88.479835 108.96274700000001,88.753334 109.23624600000001,88.977788 109.54827900000001,89.144573 109.886854,89.24727899999999 110.189834,89.27712 131.688088,89.27712 131.991068,89.24727899999999 132.329643,89.144573 132.64167600000002,88.977788 132.915175,88.753334 133.139629,88.479835 133.30641400000002,88.167802 133.40912,87.829227 133.438961,87.526247 133.438961,77.027993 133.40912,76.72501299999999 133.30641400000002,76.386438 133.139629,76.074405 132.915175,75.800906 132.64167600000002,75.576452 132.329643,75.409667 131.991068,75.306961 131.688088,75.27712 110.189834,75.27712 109.886854,75.306961 109.54827900000001,75.409667 109.23624600000001,75.576452 108.96274700000001,75.800906 108.73829300000001,76.074405 108.57150800000001,76.386438 108.46880200000001,76.72501299999999 108.438961,77.027993 108.438961,87.526247" stroke="#1f6fb2" stroke-width="0.1" /><text fill="#0a3d62" font-family="sans-serif" font-size="1.6" text-anchor="middle" x="120.938961" y="82.27712">05</text><polygon fill="#cfe3f7" fill-opacity="0.5" points="4.0,150.53183299999998 4.029841,150.834813 4.132547,151.173388 4.299332,151.485421 4.523786,151.75892 4.7972850000000005,151.983374 5.109318,152.150159 5.4478930000000005,152.25286499999999 5.750873,152.282706 27.249127,152.282706 27.552107,152.25286499999999 27.890682,152.150159 28.202715,151.983374 28.476214,151.75892 28.700668,151.485421 28.867453,151.173388 28.970159,150.834813 29.0,150.53183299999998 29.0,140.033579 28.970159,139.73059899999998 28.867453,139.392024 28.700668,139.07999099999998 28.476214,138.806492 28.202715,138.58203799999998 27.890682,138.41525299999998 27.552107,138.312547 27.249127,138.282706 5.750873,138.282706 5.4478930000000005,138.312547 5.109318,138.41525299999998 4.7972850000000005,138.58203799999998 4.523786,138.806492 4.299332,139.07999099999998 4.132547,139.392024 4.029841,139.73059899999998 4.0,140.033579 4.0,150.53183299999998" stroke="#1f6fb2" stroke-width="0.1" /><text fill="#0a3d62" font-family="sans-serif" font-size="1.6" text-anchor="middle" x="16.5" y="145.282706">05</text><polygon fill="#cfe3f7" fill-opacity="0.5" points="67.723369,149.369207 67.841737,148.937658 68.00606400000001,148.488452 68.213682,148.02354699999998 68.460908,147.545153 68.743336,147.055354 69.05609100000001,146.555941 69.394027,146.048372 69.751853,145.533784 70.124213,145.013025 71.26833400000001,143.434617 57.916982000000004,138.282706 57.271888000000004,138.70287399999998 57.058417000000006,138.840614 56.847458,138.97418299999998 56.638513,139.102738 56.431107,139.225486 56.224755,139.341703 56.018245,139.45111799999998 55.809552000000004,139.554258 55.597726,139.651599 55.38297,139.743058 55.165581,139.828509 54.945859,139.90783299999998 54.724105,139.98091399999998 54.50062,140.047641 54.275709000000006,140.10791 54.049674,140.161619 53.822708000000006,140.208696 53.594185,140.24926399999998 53.363055,140.283811 53.128971,140.31282 52.891941,140.33672099999998 52.651999,140.355956 52.409196,140.370981 52.163596,140.38226699999998 51.915273,140.390299 51.664307,140.395579 51.410779000000005,140.39862699999998 51.154771,140.39997599999998 50.896365,140.400176 50.634167000000005,140.39979 50.634167000000005,150.399791 67.546389,150.399791 67.723369,149.369207 33.544965000000005,149.369207 33.426597,148.937658 33.26227,148.488452 33.054652000000004,148.02354699999998 32.80742600000001,147.545153 32.524998,147.055354 32.212243,146.555941 31.874307,146.048372 31.516481000000002,145.533784 31.144121000000002,145.013025 30.0,143.434617 43.351352000000006,138.282706 43.996446000000006,138.70287399999998 44.209917000000004,138.840614 44.420876,138.97418299999998 44.629821,139.102738 44.837227,139.225486 45.043579,139.341703 45.250089,139.45111799999998 45.458782,139.554258 45.670608,139.651599 45.885364,139.743058 46.102753,139.828509 46.322475,139.90783299999998 46.544229,139.98091399999998 46.767714,140.047641 46.992625000000004,140.10791 47.21866,140.161619 47.445626000000004,140.208696 47.674149,140.24926399999998 47.905279,140.283811 48.139363,140.31282 48.376393,140.33672099999998 48.61633500000001,140.355956 48.859138,140.370981 49.104738,140.38226699999998 49.353061,140.390299 49.604027,140.395579 49.857555000000005,140.39862699999998 50.113563,140.39997599999998 50.371969,140.400176 50.634167000000005,140.39979 50.634167000000005,150.399791 33.721945000000005,150.399791 33.544965000000005,149.369207" stroke="#1f6fb2" stroke-width="0.1" /><text fill="#0a3d62" font-family="sans-serif" font-size="1.6" text-anchor="middle" x="50.634167000000005" y="144.34124849999998">03</text><polygon fill="#cfe3f7" fill-opacity="0.5" points="95.655786,145.132086 96.16424800000001,145.221265 96.67275900000001,145.305357 97.18131500000001,145.384359 97.68991300000002,145.458271 98.198552,145.52709 98.70722900000001,145.590817 99.21594000000002,145.649449 99.72468400000001,145.70298699999998 100.23345700000002,145.75142799999998 100.74225700000001,145.794773 101.25108100000001,145.83301999999998 101.75992500000001,145.866168 102.268788,145.894218 102.77766500000001,145.917169 103.286555,145.93501999999998 103.79545300000001,145.947771 104.30435800000001,145.955421 104.813265,145.95797199999998 105.322173,145.955421 105.83107800000002,145.947771 106.33997600000001,145.93501999999998 106.84886600000002,145.917169 107.35774300000001,145.894218 107.86660600000002,145.866168 108.37545,145.83301999999998 108.884274,145.794773 109.39307300000002,145.75142799999998 109.901847,145.70298699999998 110.41059000000001,145.649449 110.91930200000002,145.590817 111.42797900000001,145.52709 111.93661800000001,145.458271 112.44521600000002,145.384359 112.95377200000001,145.305357 113.46228300000001,145.221265 113.97074500000001,145.132086 114.29337600000001,145.07226599999998 116.34754400000001,148.495878 117.40276200000001,148.096895 115.590912,138.282706 114.10503600000001,138.57309899999998 113.615677,138.66383199999999 113.12636800000001,138.749653 112.63710700000001,138.830561 112.14789100000002,138.906559 111.65871800000001,138.977647 111.16958500000001,139.043828 110.68049,139.105101 110.19143000000001,139.16146899999998 109.702402,139.212931 109.21340300000001,139.25949 108.72443100000001,139.301145 108.23548300000002,139.337898 107.74655600000001,139.36974999999998 107.257647,139.39669999999998 106.768752,139.418749 106.27987000000002,139.43589799999998 105.790997,139.44814699999998 105.30213,139.45549699999998 104.813265,139.457946 104.32440100000001,139.45549699999998 103.83553400000001,139.44814699999998 103.34666100000001,139.43589799999998 102.85777900000001,139.418749 102.36888400000001,139.39669999999998 101.879975,139.36974999999998 101.39104800000001,139.337898 100.90210000000002,139.301145 100.41312800000001,139.25949 99.92412900000001,139.212931 99.435101,139.16146899999998 98.94604100000001,139.105101 98.45694600000002,139.043828 97.967813,138.977647 97.47864000000001,138.906559 96.98942400000001,138.830561 96.50016300000001,138.749653 96.01085400000001,138.66383199999999 95.52149500000002,138.57309899999998 94.83554800000002,138.43903999999998 94.83554800000002,144.976878 95.14737300000002,145.03781899999998 95.655786,145.132086 94.01531000000001,145.132086 93.506848,145.221265 92.998337,145.305357 92.48978100000001,145.384359 91.98118300000002,145.458271 91.47254400000001,145.52709 90.96386700000001,145.590817 90.45515600000002,145.649449 89.94641200000001,145.70298699999998 89.43763900000002,145.75142799999998 88.92883900000001,145.794773 88.420015,145.83301999999998 87.91117100000001,145.866168 87.402308,145.894218 86.893431,145.917169 86.38454100000001,145.93501999999998 85.87564300000001,145.947771 85.36673800000001,145.955421 84.857831,145.95797199999998 84.34892300000001,145.955421 83.84001800000001,145.947771 83.33112000000001,145.93501999999998 82.82223,145.917169 82.313353,145.894218 81.80449000000002,145.866168 81.295646,145.83301999999998 80.78682200000002,145.794773 80.278023,145.75142799999998 79.769249,145.70298699999998 79.260506,145.649449 78.75179400000002,145.590817 78.24311700000001,145.52709 77.73447800000001,145.458271 77.22588000000002,145.384359 76.717324,145.305357 76.208813,145.221265 75.70035100000001,145.132086 75.37772000000001,145.07226599999998 73.323552,148.495878 72.26833400000001,148.096895 74.080184,138.282706 75.56606000000001,138.57309899999998 76.05541900000001,138.66383199999999 76.544728,138.749653 77.033989,138.830561 77.52320500000002,138.906559 78.01237800000001,138.977647 78.50151100000001,139.043828 78.99060600000001,139.105101 79.47966600000001,139.16146899999998 79.96869400000001,139.212931 80.457693,139.25949 80.94666500000001,139.301145 81.43561300000002,139.337898 81.92454000000001,139.36974999999998 82.41344900000001,139.39669999999998 82.90234400000001,139.418749 83.39122600000002,139.43589799999998 83.88009900000002,139.44814699999998 84.36896600000001,139.45549699999998 84.857831,139.457946 85.34669500000001,139.45549699999998 85.83556200000001,139.44814699999998 86.32443500000001,139.43589799999998 86.81331700000001,139.418749 87.30221200000001,139.39669999999998 87.791121,139.36974999999998 88.28004800000001,139.337898 88.76899600000002,139.301145 89.257968,139.25949 89.74696700000001,139.212931 90.235995,139.16146899999998 90.72505500000001,139.105101 91.21415000000002,139.043828 91.70328300000001,138.977647 92.192456,138.906559 92.681672,138.830561 93.170933,138.749653 93.66024200000001,138.66383199999999 94.14960100000002,138.57309899999998 94.83554800000002,138.43903999999998 94.83554800000002,144.976878 94.52372300000002,145.03781899999998 94.01531000000001,145.132086" stroke="#1f6fb2" stroke-width="0.1" /><text fill="#0a3d62" font-family="sans-serif" font-size="1.6" text-anchor="middle" x="94.83554800000002" y="143.38929199999998">07</text><polygon fill="#cfe3f7" fill-opacity="0.5" points="27.606376,158.58038499999998 28.154969,158.65131699999998 28.703582,158.718198 29.252213,158.781028 29.800862000000002,158.83980599999998 30.349527000000002,158.894532 30.898208,158.945205 31.446903,158.991826 31.995611,159.034394 32.544331,159.07290899999998 33.093061,159.107371 33.641802,159.137778 34.19055,159.164132 34.739306,159.186431 35.288068,159.20467599999998 35.836835,159.218867 36.385606,159.229004 36.934378,159.235086 37.483152000000004,159.237113 38.031927,159.235086 38.580699,159.229004 39.12947,159.218867 39.678237,159.20467599999998 40.226999,159.186431 40.775755000000004,159.164132 41.324503,159.137778 41.873244,159.107371 42.421974,159.07290899999998 42.970694,159.034394 43.519402,158.991826 44.068097,158.945205 44.616778,158.894532 45.165442999999996,158.83980599999998 45.714092,158.781028 46.262723,158.718198 46.811336,158.65131699999998 47.359929,158.58038499999998 47.908501,158.505403 49.31087,158.30335699999998 49.31087,153.282706 47.630468,153.52480899999998 47.096268,153.597827 46.562089,153.66689499999998 46.02793,153.732014 45.493789,153.793184 44.959666,153.850406 44.425560000000004,153.90367999999998 43.891469,153.95300699999999 43.357392000000004,153.99838599999998 42.823328000000004,154.039818 42.289276,154.077303 41.755235,154.110841 41.221204,154.140434 40.687181,154.16608 40.153165,154.187781 39.619155,154.205536 39.08515,154.219345 38.551149,154.229208 38.01715,154.23512599999998 37.483152000000004,154.237099 36.949155000000005,154.23512599999998 36.415156,154.229208 35.881155,154.219345 35.34715,154.205536 34.813140000000004,154.187781 34.279123999999996,154.16608 33.745101000000005,154.140434 33.21107,154.110841 32.677029000000005,154.077303 32.142977,154.039818 31.608913,153.99838599999998 31.074836,153.95300699999999 30.540745,153.90367999999998 30.006639,153.850406 29.472516,153.793184 28.938375,153.732014 28.404216,153.66689499999998 27.870037,153.597827 27.335837,153.52480899999998 26.655435,153.42678099999998 26.655435,158.447431 27.057804,158.505403 27.606376,158.58038499999998 25.704494,158.58038499999998 25.155901,158.65131699999998 24.607288,158.718198 24.058657,158.781028 23.510008,158.83980599999998 22.961343,158.894532 22.412662,158.945205 21.863967000000002,158.991826 21.315259,159.034394 20.766539,159.07290899999998 20.217809000000003,159.107371 19.669068,159.137778 19.12032,159.164132 18.571564000000002,159.186431 18.022802,159.20467599999998 17.474035,159.218867 16.925264,159.229004 16.376492,159.235086 15.827718,159.237113 15.278943,159.235086 14.730171,159.229004 14.1814,159.218867 13.632633,159.20467599999998 13.083871,159.186431 12.535115000000001,159.164132 11.986367000000001,159.137778 11.437626,159.107371 10.888896,159.07290899999998 10.340176,159.034394 9.791468000000002,158.991826 9.242773,158.945205 8.694092000000001,158.894532 8.145427000000002,158.83980599999998 7.5967780000000005,158.781028 7.048147,158.718198 6.499534000000001,158.65131699999998 5.950941,158.58038499999998 5.402369,158.505403 4.0,158.30335699999998 4.0,153.282706 5.680402000000001,153.52480899999998 6.214601999999999,153.597827 6.748781000000001,153.66689499999998 7.28294,153.732014 7.817081000000002,153.793184 8.351204,153.850406 8.88531,153.90367999999998 9.419401,153.95300699999999 9.953478,153.99838599999998 10.487542000000001,154.039818 11.021594,154.077303 11.555635,154.110841 12.089666000000001,154.140434 12.623689,154.16608 13.157705,154.187781 13.691715,154.205536 14.22572,154.219345 14.759721,154.229208 15.29372,154.23512599999998 15.827718,154.237099 16.361715,154.23512599999998 16.895713999999998,154.229208 17.429715,154.219345 17.963720000000002,154.205536 18.49773,154.187781 19.031746000000002,154.16608 19.565769,154.140434 20.099800000000002,154.110841 20.633841,154.077303 21.167893,154.039818 21.701957,153.99838599999998 22.236034,153.95300699999999 22.770125,153.90367999999998 23.304231,153.850406 23.838354000000002,153.793184 24.372495,153.732014 24.906654,153.66689499999998 25.440833,153.597827 25.975033,153.52480899999998 26.655435,153.42678099999998 26.655435,158.447431 26.253066,158.505403 25.704494,158.58038499999998" stroke="#1f6fb2" stroke-width="0.1" /><text fill="#0a3d62" font-family="sans-serif" font-size="1.6" text-anchor="middle" x="26.655435" y="156.2599095">08</text><polygon fill="#cfe3f7" fill-opacity="0.5" points="50.31087,156.93183299999998 50.333025,157.15677599999998 50.412968,157.420314 50.542789,157.66319199999998 50.717499000000004,157.87607699999998 50.930384000000004,158.05078699999999 51.173262,158.18060799999998 51.4368,158.260551 51.661743,158.282706 62.959997,158.282706 63.18494,158.260551 63.448478,158.18060799999998 63.691356,158.05078699999999 63.904241,157.87607699999998 64.078951,157.66319199999998 64.208772,157.420314 64.288715,157.15677599999998 64.31087,156.93183299999998 64.31087,154.633579 64.288715,154.408636 64.208772,154.145098 64.078951,153.90222 63.904241,153.689335 63.691356,153.514625 63.448478,153.384804 63.18494,153.304861 62.959997,153.282706 51.661743,153.282706 51.4368,153.304861 51.173262,153.384804 50.930384000000004,153.514625 50.717499000000004,153.689335 50.542789,153.90222 50.412968,154.145098 50.333025,154.408636 50.31087,154.633579 50.31087,156.93183299999998" stroke="#1f6fb2" stroke-width="0.1" /><text fill="#0a3d62" font-family="sans-serif" font-size="1.6" text-anchor="middle" x="57.31087" y="155.782706">06</text><polygon fill="#cfe3f7" fill-opacity="0.5" points="65.31087,156.93183299999998 65.33302499999999,157.15677599999998 65.41296799999999,157.420314 65.542789,157.66319199999998 65.71749899999999,157.87607699999998 65.93038399999999,158.05078699999999 66.173262,158.18060799999998 66.43679999999999,158.260551 66.661743,158.282706 77.95999699999999,158.282706 78.18494,158.260551 78.448478,158.18060799999998 78.691356,158.05078699999999 78.904241,157.87607699999998 79.07895099999999,157.66319199999998 79.208772,157.420314 79.288715,157.15677599999998 79.31087,156.93183299999998 79.31087,154.633579 79.288715,154.408636 79.208772,154.145098 79.07895099999999,153.90222 78.904241,153.689335 78.691356,153.514625 78.448478,153.384804 78.18494,153.304861 77.95999699999999,153.282706 66.661743,153.282706 66.43679999999999,153.304861 66.173262,153.384804 65.93038399999999,153.514625 65.71749899999999,153.689335 65.542789,153.90222 65.41296799999999,154.145098 65.33302499999999,154.408636 65.31087,154.633579 65.31087,156.93183299999998" stroke="#1f6fb2" stroke-width="0.1" /><text fill="#0a3d62" font-family="sans-serif" font-size="1.6" text-anchor="middle" x="72.31087" y="155.782706">06</text></svg>