<?xml version="1.0" encoding="utf-8" ?>
<svg baseProfile="full" height="167.86571200000003cm" version="1.1" viewBox="0 0 118.0 167.86571200000003" width="118.0cm" xmlns="http://www.w3.org/2000/svg" xmlns:ev="http://www.w3.org/2001/xml-events" xmlns:xlink="http://www.w3.org/1999/xlink"><defs /><rect fill="#f7f3ea" height="159.86571200000003" stroke="#333" stroke-width="0.15" width="110.0" x="4.0" y="4.0" /><text fill="#000" font-family="sans-serif" font-size="1.4" x="4.0" y="3.0">PLANO DE CORTE — ancho 110 cm — largo 1.60 m</text><polygon fill="#cfe3f7" fill-opacity="0.5" points="4.0,74.931099 31.7,74.931099 31.7,27.555393 31.100068,26.869685999999998 30.746677,26.466515 30.390684,26.061868 30.03155,25.655881 29.668433,25.248351 29.300496,24.83908 28.926906,24.427877 28.546843,24.014568 28.160414,23.599943 27.771075,23.186115 27.384597,22.774069 27.005541,22.363333 26.638339,21.953499 26.287416999999998,21.544379 25.957145,21.136005 25.651775999999998,20.728641 25.375339999999998,20.322756000000002 25.131521,19.918972 24.923496,19.51792 24.753785999999998,19.119954999999997 24.623387,18.72232 24.5304,18.316957000000002 24.471646,17.897547 24.445508,17.462628000000002 24.450623999999998,17.011946000000002 24.485547999999998,16.545879 24.54861,16.065254 24.63787,15.571169 24.751132,15.064847 24.885973,14.547543 25.039794999999998,14.020482 25.209865,13.484822 25.393345999999998,12.941639 25.587334,12.391918 25.788868,11.836552999999999 26.174112,10.789323 21.480735,4.0 20.093819,6.654343 19.470695,7.815965 18.836596,8.937567 18.184434,10.003730999999998 17.507876,10.999119 16.801433,11.90884 16.060368,12.719092 15.280134,13.418038 14.454979999999999,13.996608 13.571245000000001,14.450693 12.604883000000001,14.787023 11.548281,15.024132 10.412396000000001,15.178056999999999 9.212593,15.26674 7.964669000000001,15.310464 6.691894,15.331099 4.0,15.331099 4.0,74.931099" stroke="#1f6fb2" stroke-width="0.1" /><text fill="#0a3d62" font-family="sans-serif" font-size="1.6" text-anchor="middle" x="17.85" y="39.4655495">01</text><polygon fill="#cfe3f7" fill-opacity="0.5" points="32.7,74.931099 60.400000000000006,74.931099 60.400000000000006,27.555393 59.800068,26.869685999999998 59.446677,26.466515 59.090684,26.061868 58.73155,25.655881 58.368433,25.248351 58.000496,24.83908 57.626906000000005,24.427877 57.246843,24.014568 56.860414000000006,23.599943 56.471075,23.186115 56.084597,22.774069 55.705541000000004,22.363333 55.338339000000005,21.953499 54.987417,21.544379 54.657145,21.136005 54.351776,20.728641 54.07534,20.322756000000002 53.831521,19.918972 53.623496,19.51792 53.453786,19.119954999999997 53.323387000000004,18.72232 53.2304,18.316957000000002 53.171646,17.897547 53.14550800000001,17.462628000000002 53.150624,17.011946000000002 53.185548,16.545879 53.24861,16.065254 53.33787,15.571169 53.451132,15.064847 53.585973,14.547543 53.739795,14.020482 53.909865,13.484822 54.093346,12.941639 54.287334,12.391918 54.488868000000004,11.836552999999999 54.874112000000004,10.789323 50.180735,4.0 48.793819,6.654343 48.170695,7.815965 47.536596,8.937567 46.884434,10.003730999999998 46.207876,10.999119 45.501433000000006,11.90884 44.760368,12.719092 43.98013400000001,13.418038 43.15498,13.996608 42.27124500000001,14.450693 41.304883000000004,14.787023 40.248281000000006,15.024132 39.112396000000004,15.178056999999999 37.912593,15.26674 36.664669,15.310464 35.391894,15.331099 32.7,15.331099 32.7,74.931099" stroke="#1f6fb2" stroke-width="0.1" /><text fill="#0a3d62" font-family="sans-serif" font-size="1.6" text-anchor="middle" x="46.550000000000004" y="39.4655495">01</text><polygon fill="#cfe3f7" fill-opacity="0.5" points="61.4,74.267704 69.40722,74.267704 69.001177,17.827772 73.22492199999999,5.262131 70.700661,4.0 70.004548,4.928368 69.808809,5.189983 69.612994,5.452847 69.417382,5.717166 69.222256,5.98315 69.0279,6.251011999999999 68.834603,6.520965 68.642656,6.793221 68.452355,7.067997 68.26399599999999,7.345508 68.077882,7.6259689999999996 67.894319,7.909597 67.713615,8.196606 67.536242,8.486951000000001 67.363303,8.779094 67.195078,9.070626 67.03075,9.360295 66.869275,9.647313 66.709653,9.930903 66.550927,10.210297 66.392184,10.484739000000001 66.232553,10.753489 66.071203,11.015827 65.907341,11.271062 65.740206,11.518545 65.569058,11.757678 65.39316099999999,11.987943000000001 65.210869,12.210004 65.019404,12.426846 64.81765,12.641195 64.606278,12.853889 64.386212,13.065588 64.158442,13.27698 63.924011,13.488792 63.722425,13.667704 61.4,13.667704 61.4,74.267704" stroke="#1f6fb2" stroke-width="0.1" /><text fill="#0a3d62" font-family="sans-serif" font-size="1.6" text-anchor="middle" x="67.312461" y="39.133852">09</text><polygon fill="#cfe3f7" fill-opacity="0.5" points="74.22492199999999,74.267704 82.232142,74.267704 81.826099,17.827772 86.049844,5.262131 83.525583,4.0 82.82946999999999,4.928368 82.633731,5.189983 82.43791599999999,5.452847 82.24230399999999,5.717166 82.04717799999999,5.98315 81.85282199999999,6.251011999999999 81.65952499999999,6.520965 81.46757799999999,6.793221 81.277277,7.067997 81.08891799999999,7.345508 80.90280399999999,7.6259689999999996 80.719241,7.909597 80.53853699999999,8.196606 80.36116399999999,8.486951000000001 80.18822499999999,8.779094 80.02,9.070626 79.855672,9.360295 79.69419699999999,9.647313 79.53457499999999,9.930903 79.37584899999999,10.210297 79.21710599999999,10.484739000000001 79.057475,10.753489 78.896125,11.015827 78.73226299999999,11.271062 78.56512799999999,11.518545 78.39398,11.757678 78.218083,11.987943000000001 78.03579099999999,12.210004 77.844326,12.426846 77.64257199999999,12.641195 77.43119999999999,12.853889 77.21113399999999,13.065588 76.983364,13.27698 76.748933,13.488792 76.54734699999999,13.667704 74.22492199999999,13.667704 74.22492199999999,74.267704" stroke="#1f6fb2" stroke-width="0.1" /><text fill="#0a3d62" font-family="sans-serif" font-size="1.6" text-anchor="middle" x="80.137383" y="39.133852">09</text><polygon fill="#cfe3f7" fill-opacity="0.5" points="54.0,88.62978700000001 53.54488,87.94312400000001 53.256333999999995,87.507509 52.967847,87.071443 52.679368,86.634579 52.390845,86.196571 52.102226,85.757071 51.81346,85.315733 51.524504,84.87222600000001 51.235746,84.42683500000001 50.948979,83.98061100000001 50.666720999999995,83.53415100000001 50.391082,83.087403 50.124128999999996,82.640321 49.867903,82.192904 49.624413000000004,81.745192 49.39562,81.297257 49.18343,80.84919500000001 48.989674,80.401107 48.816095000000004,79.953081 48.664342000000005,79.505155 48.535945,79.057227 48.431893,78.607339 48.351451,78.15155800000001 48.292833,77.68768800000001 48.254642000000004,77.215663 48.203385999999995,75.931099 29.0,75.931099 29.0,135.93109900000002 54.0,135.93109900000002 54.0,88.62978700000001 4.0,88.62978700000001 4.455120000000001,87.94312400000001 4.743666000000001,87.507509 5.032153000000001,87.071443 5.320632,86.634579 5.609155000000001,86.196571 5.897773999999998,85.757071 6.186540000000001,85.315733 6.475496,84.87222600000001 6.764254000000001,84.42683500000001 7.051020999999999,83.98061100000001 7.333279000000001,83.53415100000001 7.608917999999999,83.087403 7.875871,82.640321 8.132097000000002,82.192904 8.375587,81.745192 8.604379999999999,81.297257 8.816569999999999,80.84919500000001 9.010326,80.401107 9.183905,79.953081 9.335657999999999,79.505155 9.464054999999998,79.057227 9.568107000000001,78.607339 9.648549,78.15155800000001 9.707166999999998,77.68768800000001 9.745358,77.215663 9.796614000000002,75.931099 29.0,75.931099 29.0,135.93109900000002 4.0,135.93109900000002 4.0,88.62978700000001" stroke="#1f6fb2" stroke-width="0.1" /><text fill="#0a3d62" font-family="sans-serif" font-size="1.6" text-anchor="middle" x="29.0" y="105.931099">02</text><polygon fill="#cfe3f7" fill-opacity="0.5" points="89.338399,85.706089 88.917592,85.243947 88.48811599999999,84.78293500000001 88.04791900000001,84.326338 87.597245,83.878499 87.138323,83.441159 86.67214799999999,83.01380400000001 86.19934,82.595557 85.720508,82.18553800000001 85.23624699999999,81.782866 84.747142,81.38666 84.253769,80.996042 83.756689,80.610135 83.255796,80.227565 82.749057,79.84685400000001 82.233977,79.469358 81.709418,79.097995 81.174403,78.73589100000001 80.6279,78.386228 80.068843,78.052262 79.496148,77.73734900000001 78.90875199999999,77.444956 78.305661,77.178689 77.68753000000001,76.94286100000001 77.059449,76.74071500000001 76.42715799999999,76.56969000000001 75.792906,76.42521 75.158237,76.30264100000001 74.52457,76.197481 73.893254,76.105371 73.26562200000001,76.02209400000001 72.544124,75.931099 71.808963,75.985039 71.168217,76.036061 70.523647,76.095504 69.8764,76.16753700000001 69.227627,76.256468 68.578525,76.366742 67.930396,76.502939 67.284807,76.669735 66.645945,76.870981 66.019679,77.10590400000001 65.408314,77.370251 64.811256,77.66051300000001 64.22767400000001,77.973353 63.656686,78.305546 63.097394,78.653971 62.548913,79.01558800000001 62.010391999999996,79.387422 61.481016,79.76655000000001 60.959197,80.150699 60.441979,80.540392 59.928751,80.93885800000001 59.421351,81.34828300000001 58.921993,81.770646 58.432947999999996,82.207963 57.956562,82.66227500000001 57.495274,83.135624 57.051633,83.63002300000001 56.628798,84.146823 56.232445,84.68208100000001 55.862674,85.22529700000001 55.513476,85.768493 55.0,86.59070700000001 56.459199,102.865712 88.576579,102.865712 90.044742,86.490722 89.338399,85.706089" stroke="#1f6fb2" stroke-width="0.1" /><text fill="#0a3d62" font-family="sans-serif" font-size="1.6" text-anchor="middle" x="72.52237099999999" y="89.3984055">04</text><polygon fill="#cfe3f7" fill-opacity="0.5" points="38.338398999999995,146.70608900000002 37.917592,146.24394700000002 37.488116,145.782935 37.047919,145.32633800000002 36.597245,144.878499 36.138323,144.44115900000003 35.672148,144.01380400000002 35.19934,143.595557 34.720508,143.185538 34.236247,142.782866 33.747142,142.38666 33.253769,141.99604200000002 32.756689,141.610135 32.255796000000004,141.22756500000003 31.749057,140.846854 31.233977,140.46935800000003 30.709418,140.09799500000003 30.174402999999998,139.735891 29.6279,139.38622800000002 29.068843,139.052262 28.496148,138.73734900000002 27.908752,138.44495600000002 27.305661,138.17868900000002 26.687530000000002,137.94286100000002 26.059449,137.74071500000002 25.427158,137.56969 24.792906000000002,137.42521000000002 24.158237,137.30264100000002 23.52457,137.197481 22.893254,137.10537100000002 22.265622,137.022094 21.544124,136.93109900000002 20.808963,136.98503900000003 20.168217,137.03606100000002 19.523647,137.095504 18.8764,137.167537 18.227627,137.256468 17.578525,137.36674200000002 16.930396000000002,137.50293900000003 16.284807,137.66973500000003 15.645945000000001,137.87098100000003 15.019679,138.105904 14.408314,138.37025100000002 13.811256,138.660513 13.227674,138.97335300000003 12.656686,139.30554600000002 12.097394,139.653971 11.548913,140.015588 11.010392,140.38742200000002 10.481016,140.76655000000002 9.959197,141.15069900000003 9.441979,141.54039200000003 8.928751,141.938858 8.421351,142.348283 7.9219930000000005,142.77064600000003 7.432948,143.207963 6.956562,143.66227500000002 6.495274,144.135624 6.051633000000001,144.63002300000002 5.628798,145.146823 5.232445000000002,145.682081 4.862674000000002,146.225297 4.513476000000001,146.768493 4.0,147.590707 5.459199000000002,163.86571200000003 37.576578999999995,163.86571200000003 39.044742,147.490722 38.338398999999995,146.70608900000002" stroke="#1f6fb2" stroke-width="0.1" /><text fill="#0a3d62" font-family="sans-serif" font-size="1.6" text-anchor="middle" x="21.522371" y="150.39840550000002">04</text><polygon fill="#cfe3f7" fill-opacity="0.5" points="40.044742,148.20300400000002 47.044742,152.61300400000002 54.044742,148.20300400000002 54.044742,136.93109900000002 40.044742,136.93109900000002 40.044742,148.20300400000002" stroke="#1f6fb2" stroke-width="0.1" /><text fill="#0a3d62" font-family="sans-serif" font-size="1.6" text-anchor="middle" x="47.044742" y="144.77205150000003">10</text><polygon fill="#cfe3f7" fill-opacity="0.5" points="94.154554,147.857163 94.153012,147.369482 94.167602,146.87449900000001 94.19678400000001,146.37264800000003 94.23895999999999,145.86439500000003 94.292478,145.35022 94.355631,144.83060400000002 94.426669,144.30601700000003 94.5038,143.776911 94.585199,143.243714 94.793388,141.909985 81.890434,136.93109900000002 81.251326,137.36521000000002 81.048497,137.50169900000003 80.848167,137.63399700000002 80.649839,137.76129600000002 80.453033,137.88284600000003 80.25727499999999,137.997958 80.061425,138.106376 79.863475,138.20865 79.662418,138.30528900000002 79.45844199999999,138.39620000000002 79.25185,138.48123800000002 79.042946,138.56026200000002 78.832035,138.63313900000003 78.619426,138.69974000000002 78.405426,138.75994100000003 78.190343,138.81362700000003 77.974386,138.86070800000002 77.756908,138.90129700000003 77.536757,138.93588400000002 77.313504,138.96495900000002 77.087152,138.988944 76.857732,139.008272 76.625299,139.023391 76.38992,139.03476500000002 76.151674,139.042877 75.910646,139.04822500000003 75.666924,139.051329 75.420598,139.05272100000002 75.17175399999999,139.05295600000002 74.919065,139.05259900000001 74.919065,149.0526 94.202254,149.0526 94.154554,147.857163 55.683576,147.857163 55.685118,147.369482 55.670528000000004,146.87449900000001 55.641346,146.37264800000003 55.59917,145.86439500000003 55.545652000000004,145.35022 55.482499000000004,144.83060400000002 55.411461,144.30601700000003 55.33433,143.776911 55.252931000000004,143.243714 55.044742,141.909985 67.94769600000001,136.93109900000002 68.586804,137.36521000000002 68.789633,137.50169900000003 68.989963,137.63399700000002 69.18829099999999,137.76129600000002 69.385097,137.88284600000003 69.580855,137.997958 69.77670499999999,138.106376 69.974655,138.20865 70.175712,138.30528900000002 70.379688,138.39620000000002 70.58628,138.48123800000002 70.795184,138.56026200000002 71.006095,138.63313900000003 71.218704,138.69974000000002 71.432704,138.75994100000003 71.647787,138.81362700000003 71.863744,138.86070800000002 72.081222,138.90129700000003 72.301373,138.93588400000002 72.524626,138.96495900000002 72.750978,138.988944 72.98039800000001,139.008272 73.212831,139.023391 73.44821,139.03476500000002 73.68645599999999,139.042877 73.92748399999999,139.04822500000003 74.171206,139.051329 74.417532,139.05272100000002 74.666376,139.05295600000002 74.919065,139.05259900000001 74.919065,149.0526 55.635875999999996,149.0526 55.683576,147.857163" stroke="#1f6fb2" stroke-width="0.1" /><text fill="#0a3d62" font-family="sans-serif" font-size="1.6" text-anchor="middle" x="74.919065" y="142.99184950000003">03</text></svg>