<?xml version="1.0" encoding="utf-8" ?>
<svg baseProfile="full" height="162.272317cm" version="1.1" viewBox="0 0 168.0 162.272317" width="168.0cm" xmlns="http://www.w3.org/2000/svg" xmlns:ev="http://www.w3.org/2001/xml-events" xmlns:xlink="http://www.w3.org/1999/xlink"><defs /><rect fill="#f7f3ea" height="154.272317" stroke="#333" stroke-width="0.15" width="160.0" x="4.0" y="4.0" /><text fill="#000" font-family="sans-serif" font-size="1.4" x="4.0" y="3.0">PLANO DE CORTE — ancho 160 cm — largo 1.54 m</text><polygon fill="#cfe3f7" fill-opacity="0.5" points="4.0,74.267704 12.00722,74.267704 11.601177,17.827772 15.824922,5.262131 13.300661,4.0 12.604548000000001,4.928368 12.408809,5.189983 12.212994,5.452847 12.017382000000001,5.717166 11.822256,5.98315 11.6279,6.251011999999999 11.434603,6.520965 11.242656,6.793221 11.052355,7.067997 10.863996,7.345508 10.677882,7.6259689999999996 10.494319,7.909597 10.313615,8.196606 10.136242,8.486951000000001 9.963303,8.779094 9.795078,9.070626 9.63075,9.360295 9.469275,9.647313 9.309653,9.930903 9.150927,10.210297 8.992184,10.484739000000001 8.832553,10.753489 8.671203,11.015827 8.507341,11.271062 8.340206,11.518545 8.169058,11.757678 7.993161000000001,11.987943000000001 7.810869,12.210004 7.619404,12.426846 7.41765,12.641195 7.206278,12.853889 6.986212,13.065588 6.7584420000000005,13.27698 6.524011,13.488792 6.322425,13.667704 4.0,13.667704 4.0,74.267704" stroke="#1f6fb2" stroke-width="0.1" /><text fill="#0a3d62" font-family="sans-serif" font-size="1.6" text-anchor="middle" x="9.912461" y="39.133852">09</text><polygon fill="#cfe3f7" fill-opacity="0.5" points="16.824922,74.267704 24.832142,74.267704 24.426099,17.827772 28.649844,5.262131 26.125583,4.0 25.429470000000002,4.928368 25.233731,5.189983 25.037916000000003,5.452847 24.842304000000002,5.717166 24.647178,5.98315 24.452822,6.251011999999999 24.259525,6.520965 24.067578,6.793221 23.877277,7.067997 23.688918,7.345508 23.502804,7.6259689999999996 23.319241,7.909597 23.138537,8.196606 22.961164,8.486951000000001 22.788225,8.779094 22.62,9.070626 22.455672,9.360295 22.294197,9.647313 22.134575,9.930903 21.975849,10.210297 21.817106000000003,10.484739000000001 21.657475,10.753489 21.496125,11.015827 21.332263,11.271062 21.165128000000003,11.518545 20.99398,11.757678 20.818083,11.987943000000001 20.635791,12.210004 20.444326,12.426846 20.242572000000003,12.641195 20.031200000000002,12.853889 19.811134000000003,13.065588 19.583364,13.27698 19.348933000000002,13.488792 19.147347,13.667704 16.824922,13.667704 16.824922,74.267704" stroke="#1f6fb2" stroke-width="0.1" /><text fill="#0a3d62" font-family="sans-serif" font-size="1.6" text-anchor="middle" x="22.737383" y="39.133852">09</text><polygon fill="#cfe3f7" fill-opacity="0.5" points="29.649844,74.233067 57.349844000000004,74.233067 57.349844000000004,26.857360999999997 56.749912,26.171653999999997 56.396521,25.768483 56.040528,25.363836 55.681394,24.957849 55.318277,24.550319 54.95034,24.141047999999998 54.576750000000004,23.729844999999997 54.196687,23.316536 53.810258000000005,22.901911 53.420919,22.488083 53.034441,22.076037 52.655385,21.665301 52.288183000000004,21.255467 51.937261,20.846346999999998 51.606989,20.437973 51.30162,20.030609 51.025183999999996,19.624724 50.781365,19.22094 50.57334,18.819888 50.40363,18.421923 50.273231,18.024288 50.180244,17.618925 50.12149,17.199514999999998 50.095352000000005,16.764596 50.100468,16.313914 50.135391999999996,15.847847 50.198454,15.367222 50.287714,14.873137 50.400976,14.366815 50.535817,13.849511 50.689639,13.32245 50.859709,12.78679 51.043189999999996,12.243606999999999 51.237178,11.693886 51.438712,11.138521 51.970248,9.693617 38.924533000000004,4.0 38.254392,4.893731 38.058653,5.155346 37.862838,5.41821 37.667226,5.682529 37.472100000000005,5.948513 37.277744,6.216374999999999 37.084447000000004,6.486328 36.8925,6.758584 36.702199,7.03336 36.51384,7.310871 36.327726,7.5913319999999995 36.144163000000006,7.87496 35.963459,8.161969 35.786086000000005,8.452314000000001 35.613147,8.744457 35.444922000000005,9.035989 35.280594,9.325658 35.119119,9.612676 34.959497,9.896266 34.800771000000005,10.17566 34.642028,10.450102000000001 34.482397000000006,10.718852 34.321047,10.98119 34.157185,11.236425 33.990050000000004,11.483908 33.818902,11.723041 33.643005,11.953306000000001 33.460713,12.175367 33.269248000000005,12.392209 33.067494,12.606558 32.856122,12.819252 32.636056,13.030951 32.408286000000004,13.242343 32.173855,13.454155 31.972269,13.633067 29.649844,13.633067 29.649844,74.233067" stroke="#1f6fb2" stroke-width="0.1" /><text fill="#0a3d62" font-family="sans-serif" font-size="1.6" text-anchor="middle" x="43.499844" y="39.1165335">01</text><polygon fill="#cfe3f7" fill-opacity="0.5" points="58.349844000000004,74.233067 86.04984400000001,74.233067 86.04984400000001,26.857360999999997 85.44991200000001,26.171653999999997 85.096521,25.768483 84.74052800000001,25.363836 84.381394,24.957849 84.01827700000001,24.550319 83.65034,24.141047999999998 83.27675,23.729844999999997 82.896687,23.316536 82.51025800000001,22.901911 82.120919,22.488083 81.734441,22.076037 81.35538500000001,21.665301 80.988183,21.255467 80.637261,20.846346999999998 80.306989,20.437973 80.00162,20.030609 79.725184,19.624724 79.48136500000001,19.22094 79.27334,18.819888 79.10363000000001,18.421923 78.973231,18.024288 78.880244,17.618925 78.82149000000001,17.199514999999998 78.79535200000001,16.764596 78.800468,16.313914 78.835392,15.847847 78.898454,15.367222 78.98771400000001,14.873137 79.100976,14.366815 79.235817,13.849511 79.389639,13.32245 79.559709,12.78679 79.74319,12.243606999999999 79.937178,11.693886 80.138712,11.138521 80.670248,9.693617 67.624533,4.0 66.95439200000001,4.893731 66.75865300000001,5.155346 66.562838,5.41821 66.367226,5.682529 66.1721,5.948513 65.977744,6.216374999999999 65.784447,6.486328 65.5925,6.758584 65.40219900000001,7.03336 65.21384,7.310871 65.027726,7.5913319999999995 64.84416300000001,7.87496 64.663459,8.161969 64.486086,8.452314000000001 64.313147,8.744457 64.14492200000001,9.035989 63.980594,9.325658 63.819119,9.612676 63.659497,9.896266 63.50077100000001,10.17566 63.342028000000006,10.450102000000001 63.18239700000001,10.718852 63.021047,10.98119 62.857185,11.236425 62.69005000000001,11.483908 62.518902000000004,11.723041 62.343005000000005,11.953306000000001 62.160713,12.175367 61.96924800000001,12.392209 61.767494000000006,12.606558 61.556122,12.819252 61.336056000000006,13.030951 61.10828600000001,13.242343 60.873855000000006,13.454155 60.67226900000001,13.633067 58.349844000000004,13.633067 58.349844000000004,74.233067" stroke="#1f6fb2" stroke-width="0.1" /><text fill="#0a3d62" font-family="sans-serif" font-size="1.6" text-anchor="middle" x="72.199844" y="39.1165335">01</text><polygon fill="#cfe3f7" fill-opacity="0.5" points="87.04984400000001,66.004613 129.194784,66.004613 125.587738,14.491385000000001 124.942824,13.774989999999999 124.522017,13.312847999999999 124.09254100000001,12.851835999999999 123.652344,12.395239 123.20167000000001,11.9474 122.742748,11.51006 122.27657300000001,11.082705 121.803765,10.664458 121.32493300000002,10.254439 120.84067200000001,9.851766999999999 120.351567,9.455561 119.858194,9.064943 119.36111400000001,8.679036 118.86022100000001,8.296466 118.35348200000001,7.915755 117.838402,7.538259 117.313843,7.1668959999999995 116.778828,6.804792 116.232325,6.4551289999999995 115.67326800000001,6.121163 115.10057300000001,5.80625 114.51317700000001,5.513857 113.910086,5.24759 113.291955,5.011762 112.663874,4.809616 112.03158300000001,4.638591 111.39733100000001,4.494111 110.762662,4.371542 110.128995,4.266382 109.497679,4.174272 108.870047,4.0909949999999995 108.148549,4.0 107.413388,4.05394 106.772642,4.104962 106.128072,4.164405 105.48082500000001,4.236438 104.832052,4.325369 104.18295,4.435643 103.53482100000001,4.57184 102.889232,4.738636 102.25037,4.939882 101.624104,5.174805 101.01273900000001,5.439152 100.415681,5.729414 99.832099,6.042254 99.261111,6.374447 98.701819,6.722872 98.153338,7.084489 97.614817,7.456322999999999 97.085441,7.835451 96.56362200000001,8.2196 96.04640400000001,8.609293000000001 95.53317600000001,9.007759 95.02577600000001,9.417183999999999 94.526418,9.839547 94.037373,10.276864 93.56098700000001,10.731176 93.099699,11.204525 92.656058,11.698924 92.23322300000001,12.215724 91.83687,12.750982 91.467099,13.294198000000002 91.117901,13.837394 90.650249,14.586233 87.04984400000001,66.004613" stroke="#1f6fb2" stroke-width="0.1" /><text fill="#0a3d62" font-family="sans-serif" font-size="1.6" text-anchor="middle" x="108.122314" y="35.0023065">04</text><polygon fill="#cfe3f7" fill-opacity="0.5" points="4.0,137.272317 46.14494,137.272317 42.537893999999994,85.75908899999999 41.892979999999994,85.042694 41.472173,84.580552 41.042697,84.11954 40.6025,83.662943 40.151826,83.215104 39.692904,82.77776399999999 39.226729,82.350409 38.753921,81.93216199999999 38.275089,81.522143 37.790828,81.11947099999999 37.301722999999996,80.723265 36.80835,80.332647 36.31127,79.94673999999999 35.810377,79.56416999999999 35.303638,79.183459 34.788557999999995,78.80596299999999 34.263999,78.43459999999999 33.728984,78.072496 33.182480999999996,77.722833 32.623424,77.38886699999999 32.050729000000004,77.073954 31.463333,76.781561 30.860242,76.515294 30.242111,76.279466 29.61403,76.07732 28.981738999999997,75.906295 28.347487,75.761815 27.712818,75.639246 27.079151,75.53408599999999 26.447834999999998,75.441976 25.820203,75.358699 25.098705,75.267704 24.363543999999997,75.32164399999999 23.722797999999997,75.372666 23.078228,75.432109 22.430981,75.504142 21.782208,75.59307299999999 21.133105999999998,75.703347 20.484977,75.83954399999999 19.839388,76.00634 19.200526,76.20758599999999 18.57426,76.442509 17.962895,76.70685599999999 17.365837,76.997118 16.782255,77.309958 16.211267,77.642151 15.651974999999998,77.99057599999999 15.103494,78.352193 14.564972999999998,78.72402699999999 14.035597,79.103155 13.513777999999999,79.487304 12.996559999999999,79.87699699999999 12.483331999999999,80.275463 11.975931999999998,80.684888 11.476574,81.10725099999999 10.987528999999999,81.544568 10.511142999999999,81.99888 10.049854999999999,82.472229 9.606214,82.966628 9.183378999999999,83.48342799999999 8.787026000000001,84.018686 8.417255,84.561902 8.068057,85.105098 7.6004049999999985,85.853937 4.0,137.272317" stroke="#1f6fb2" stroke-width="0.1" /><text fill="#0a3d62" font-family="sans-serif" font-size="1.6" text-anchor="middle" x="25.07247" y="106.2700105">04</text><polygon fill="#cfe3f7" fill-opacity="0.5" points="97.14493999999999,87.966392 96.68982,87.279729 96.401274,86.84411399999999 96.112787,86.408048 95.824308,85.971184 95.535785,85.533176 95.24716599999999,85.09367599999999 94.9584,84.65233799999999 94.669444,84.208831 94.380686,83.76344 94.093919,83.317216 93.81166099999999,82.870756 93.536022,82.42400799999999 93.269069,81.97692599999999 93.012843,81.52950899999999 92.769353,81.081797 92.54056,80.633862 92.32837,80.1858 92.134614,79.73771199999999 91.96103500000001,79.28968599999999 91.809282,78.84176 91.68088499999999,78.39383199999999 91.576833,77.94394399999999 91.49639099999999,77.488163 91.43777299999999,77.024293 91.39958200000001,76.552268 91.34832599999999,75.267704 72.14493999999999,75.267704 72.14493999999999,135.26770399999998 97.14493999999999,135.26770399999998 97.14493999999999,87.966392 47.14494,87.966392 47.60006,87.279729 47.888605999999996,86.84411399999999 48.177093,86.408048 48.465571999999995,85.971184 48.754095,85.533176 49.042714,85.09367599999999 49.33148,84.65233799999999 49.620436,84.208831 49.909194,83.76344 50.195961,83.317216 50.478218999999996,82.870756 50.753857999999994,82.42400799999999 51.020810999999995,81.97692599999999 51.277037,81.52950899999999 51.520527,81.081797 51.74932,80.633862 51.96151,80.1858 52.155266,79.73771199999999 52.328845,79.28968599999999 52.480598,78.84176 52.60899499999999,78.39383199999999 52.713047,77.94394399999999 52.793488999999994,77.488163 52.852107,77.024293 52.890298,76.552268 52.941554,75.267704 72.14493999999999,75.267704 72.14493999999999,135.26770399999998 47.14494,135.26770399999998 47.14494,87.966392" stroke="#1f6fb2" stroke-width="0.1" /><text fill="#0a3d62" font-family="sans-serif" font-size="1.6" text-anchor="middle" x="72.14493999999999" y="105.267704">02</text><polygon fill="#cfe3f7" fill-opacity="0.5" points="98.14493999999999,86.539609 105.14493999999999,90.949609 112.14493999999999,86.539609 112.14493999999999,75.267704 98.14493999999999,75.267704 98.14493999999999,86.539609" stroke="#1f6fb2" stroke-width="0.1" /><text fill="#0a3d62" font-family="sans-serif" font-size="1.6" text-anchor="middle" x="105.14493999999999" y="83.1086565">10</text><polygon fill="#cfe3f7" fill-opacity="0.5" points="113.14493999999999,87.516831 113.174781,87.81981099999999 113.277487,88.158386 113.444272,88.47041899999999 113.66872599999999,88.743918 113.942225,88.96837199999999 114.254258,89.13515699999999 114.59283299999998,89.23786299999999 114.89581299999999,89.267704 136.394067,89.267704 136.697047,89.23786299999999 137.035622,89.13515699999999 137.347655,88.96837199999999 137.621154,88.743918 137.845608,88.47041899999999 138.012393,88.158386 138.115099,87.81981099999999 138.14494,87.516831 138.14494,77.018577 138.115099,76.71559699999999 138.012393,76.377022 137.845608,76.064989 137.621154,75.79149 137.347655,75.567036 137.035622,75.400251 136.697047,75.297545 136.394067,75.267704 114.89581299999999,75.267704 114.59283299999998,75.297545 114.254258,75.400251 113.942225,75.567036 113.66872599999999,75.79149 113.444272,76.064989 113.277487,76.377022 113.174781,76.71559699999999 113.14493999999999,77.018577 113.14493999999999,87.516831" stroke="#1f6fb2" stroke-width="0.1" /><text fill="#0a3d62" font-family="sans-serif" font-size="1.6" text-anchor="middle" x="125.64493999999999" y="82.267704">05</text><polygon fill="#cfe3f7" fill-opacity="0.5" points="4.0,150.52144399999997 4.029841,150.824424 4.132547,151.16299899999999 4.299332,151.475032 4.523786,151.74853099999999 4.7972850000000005,151.972985 5.109318,152.13977 5.4478930000000005,152.24247599999998 5.750873,152.272317 27.249127,152.272317 27.552107,152.24247599999998 27.890682,152.13977 28.202715,151.972985 28.476214,151.74853099999999 28.700668,151.475032 28.867453,151.16299899999999 28.970159,150.824424 29.0,150.52144399999997 29.0,140.02319 28.970159,139.72020999999998 28.867453,139.381635 28.700668,139.06960199999997 28.476214,138.796103 28.202715,138.57164899999998 27.890682,138.40486399999998 27.552107,138.302158 27.249127,138.272317 5.750873,138.272317 5.4478930000000005,138.302158 5.109318,138.40486399999998 4.7972850000000005,138.57164899999998 4.523786,138.796103 4.299332,139.06960199999997 4.132547,139.381635 4.029841,139.72020999999998 4.0,140.02319 4.0,150.52144399999997" stroke="#1f6fb2" stroke-width="0.1" /><text fill="#0a3d62" font-family="sans-serif" font-size="1.6" text-anchor="middle" x="16.5" y="145.272317">05</text><polygon fill="#cfe3f7" fill-opacity="0.5" points="69.109812,149.19838099999998 69.10827,148.71069999999997 69.12286,148.21571699999998 69.152042,147.713866 69.194218,147.205613 69.247736,146.69143799999998 69.310889,146.171822 69.381927,145.647235 69.459058,145.11812899999998 69.540457,144.58493199999998 69.74864600000001,143.25120299999998 56.845692,138.272317 56.206584,138.706428 56.003755,138.842917 55.803425000000004,138.975215 55.605097,139.10251399999999 55.408291,139.224064 55.212533,139.33917599999998 55.016683,139.44759399999998 54.818733,139.54986799999998 54.617676,139.64650699999999 54.4137,139.737418 54.207108000000005,139.822456 53.998204,139.90148 53.787293000000005,139.974357 53.574684000000005,140.040958 53.360684,140.101159 53.145601,140.154845 52.929643999999996,140.201926 52.712165999999996,140.242515 52.492015,140.27710199999999 52.268762,140.306177 52.042410000000004,140.33016199999997 51.81299,140.34948999999997 51.580557,140.36460899999997 51.345178000000004,140.375983 51.106932,140.38409499999997 50.865904,140.389443 50.622182,140.39254699999998 50.375856,140.393939 50.127012,140.394174 49.874323000000004,140.39381699999998 49.874323000000004,150.39381799999998 69.157512,150.39381799999998 69.109812,149.19838099999998 30.638834,149.19838099999998 30.640376,148.71069999999997 30.625786,148.21571699999998 30.596604,147.713866 30.554428,147.205613 30.50091,146.69143799999998 30.437757,146.171822 30.366719,145.647235 30.289588000000002,145.11812899999998 30.208189,144.58493199999998 30.0,143.25120299999998 42.902954,138.272317 43.542062,138.706428 43.744890999999996,138.842917 43.945221000000004,138.975215 44.143549,139.10251399999999 44.340355,139.224064 44.536113,139.33917599999998 44.731963,139.44759399999998 44.929913,139.54986799999998 45.130970000000005,139.64650699999999 45.334946,139.737418 45.541538,139.822456 45.750442,139.90148 45.961353,139.974357 46.173962,140.040958 46.387962,140.101159 46.603045,140.154845 46.819002,140.201926 47.03648,140.242515 47.256631,140.27710199999999 47.479884,140.306177 47.706236000000004,140.33016199999997 47.935656,140.34948999999997 48.168089,140.36460899999997 48.403468000000004,140.375983 48.641714,140.38409499999997 48.882742,140.389443 49.126464,140.39254699999998 49.37279,140.393939 49.621634,140.394174 49.874323000000004,140.39381699999998 49.874323000000004,150.39381799999998 30.591134,150.39381799999998 30.638834,149.19838099999998" stroke="#1f6fb2" stroke-width="0.1" /><text fill="#0a3d62" font-family="sans-serif" font-size="1.6" text-anchor="middle" x="49.874323000000004" y="144.3330675">03</text><polygon fill="#cfe3f7" fill-opacity="0.5" points="93.404015,145.12729399999998 93.89550500000001,145.216591 94.38704800000001,145.300794 94.878641,145.379902 95.370282,145.453913 95.861967,145.52282599999998 96.353694,145.58664 96.84546,145.645353 97.33726100000001,145.698965 97.82909500000001,145.74747399999998 98.320959,145.79088 98.812849,145.82918099999998 99.30476200000001,145.86237699999998 99.796695,145.890467 100.288645,145.91344999999998 100.780608,145.93132699999998 101.272582,145.944096 101.76456200000001,145.95175799999998 102.256545,145.954311 102.74852800000001,145.95175799999998 103.240508,145.944096 103.732482,145.93132699999998 104.224445,145.91344999999998 104.716395,145.890467 105.20832800000001,145.86237699999998 105.700241,145.82918099999998 106.192131,145.79088 106.68399500000001,145.74747399999998 107.17582900000001,145.698965 107.66763,145.645353 108.15939600000002,145.58664 108.65112300000001,145.52282599999998 109.142808,145.453913 109.634449,145.379902 110.12604200000001,145.300794 110.617585,145.216591 111.109075,145.12729399999998 111.39342400000001,145.07268 113.44514600000001,148.49221699999998 114.500364,148.093234 112.68727200000001,138.272317 111.21345600000001,138.57068999999998 110.74168700000001,138.66130199999998 110.26997300000001,138.74700499999997 109.79831200000001,138.827802 109.32670100000001,138.90369399999997 108.85513800000001,138.974683 108.38361900000001,139.04076999999998 107.912142,139.10195599999997 107.44070400000001,139.158243 106.969301,139.20963099999997 106.49793100000001,139.25612199999998 106.02659100000001,139.29771599999998 105.555277,139.33441499999998 105.08398600000001,139.366219 104.61271500000001,139.393129 104.141461,139.415146 103.67022,139.432269 103.19899000000001,139.44449999999998 102.727766,139.45183799999998 102.256545,139.454285 101.785324,139.45183799999998 101.31410000000001,139.44449999999998 100.84287,139.432269 100.37162900000001,139.415146 99.90037500000001,139.393129 99.42910400000001,139.366219 98.957813,139.33441499999998 98.48649900000001,139.29771599999998 98.01515900000001,139.25612199999998 97.543789,139.20963099999997 97.07238600000001,139.158243 96.600948,139.10195599999997 96.12947100000001,139.04076999999998 95.65795200000001,138.974683 95.186389,138.90369399999997 94.71477800000001,138.827802 94.24311700000001,138.74700499999997 93.771403,138.66130199999998 93.299634,138.57068999999998 92.624505,138.434011 92.624505,144.974585 92.91258,145.032906 93.404015,145.12729399999998 91.84499500000001,145.12729399999998 91.35350500000001,145.216591 90.861962,145.300794 90.37036900000001,145.379902 89.87872800000001,145.453913 89.387043,145.52282599999998 88.89531600000001,145.58664 88.40355000000001,145.645353 87.91174900000001,145.698965 87.419915,145.74747399999998 86.92805100000001,145.79088 86.436161,145.82918099999998 85.944248,145.86237699999998 85.452315,145.890467 84.96036500000001,145.91344999999998 84.46840200000001,145.93132699999998 83.976428,145.944096 83.484448,145.95175799999998 82.99246500000001,145.954311 82.500482,145.95175799999998 82.00850200000001,145.944096 81.51652800000001,145.93132699999998 81.02456500000001,145.91344999999998 80.532615,145.890467 80.040682,145.86237699999998 79.54876900000001,145.82918099999998 79.05687900000001,145.79088 78.565015,145.74747399999998 78.073181,145.698965 77.58138000000001,145.645353 77.08961400000001,145.58664 76.59788700000001,145.52282599999998 76.10620200000001,145.453913 75.61456100000001,145.379902 75.12296800000001,145.300794 74.63142500000001,145.216591 74.13993500000001,145.12729399999998 73.855586,145.07268 71.803864,148.49221699999998 70.74864600000001,148.093234 72.561738,138.272317 74.035554,138.57068999999998 74.50732300000001,138.66130199999998 74.979037,138.74700499999997 75.450698,138.827802 75.92230900000001,138.90369399999997 76.393872,138.974683 76.865391,139.04076999999998 77.33686800000001,139.10195599999997 77.808306,139.158243 78.27970900000001,139.20963099999997 78.751079,139.25612199999998 79.222419,139.29771599999998 79.69373300000001,139.33441499999998 80.165024,139.366219 80.636295,139.393129 81.107549,139.415146 81.57879000000001,139.432269 82.05002,139.44449999999998 82.52124400000001,139.45183799999998 82.99246500000001,139.454285 83.46368600000001,139.45183799999998 83.93491,139.44449999999998 84.40614000000001,139.432269 84.87738100000001,139.415146 85.348635,139.393129 85.819906,139.366219 86.29119700000001,139.33441499999998 86.762511,139.29771599999998 87.23385100000002,139.25612199999998 87.70522100000001,139.20963099999997 88.176624,139.158243 88.64806200000001,139.10195599999997 89.119539,139.04076999999998 89.591058,138.974683 90.06262100000001,138.90369399999997 90.534232,138.827802 91.00589300000001,138.74700499999997 91.477607,138.66130199999998 91.949376,138.57068999999998 92.624505,138.434011 92.624505,144.974585 92.33643000000001,145.032906 91.84499500000001,145.12729399999998" stroke="#1f6fb2" stroke-width="0.1" /><text fill="#0a3d62" font-family="sans-serif" font-size="1.6" text-anchor="middle" x="92.624505" y="143.38226699999998">07</text><polygon fill="#cfe3f7" fill-opacity="0.5" points="138.376549,143.57485899999998 138.908084,143.645852 139.43964,143.71279099999998 139.971216,143.77567499999998 140.502812,143.83450399999998 141.034426,143.889278 141.566057,143.93999699999998 142.097704,143.98665899999997 142.629365,144.02926399999998 143.16103900000002,144.067813 143.692725,144.102305 144.224422,144.13273999999998 144.756128,144.15911699999998 145.287842,144.181437 145.81956200000002,144.19969899999998 146.351288,144.213902 146.883018,144.22404799999998 147.41475,144.230135 147.946484,144.23216399999998 148.478218,144.230135 149.00995,144.22404799999998 149.54167999999999,144.213902 150.073406,144.19969899999998 150.605126,144.181437 151.13684,144.15911699999998 151.668546,144.13273999999998 152.200243,144.102305 152.731929,144.067813 153.263603,144.02926399999998 153.795264,143.98665899999997 154.326911,143.93999699999998 154.858542,143.889278 155.390156,143.83450399999998 155.921752,143.77567499999998 156.453328,143.71279099999998 156.98488400000002,143.645852 157.51641899999998,143.57485899999998 158.04793,143.499813 159.428524,143.294345 159.428524,138.272317 157.760914,138.520501 157.244221,138.59345499999998 156.727552,138.66246199999998 156.210904,138.727523 155.694276,138.788639 155.177668,138.84581 154.661078,138.899036 154.144505,138.94831699999997 153.627948,138.993655 153.111405,139.03504999999998 152.594875,139.072501 152.078357,139.106009 151.56185,139.135574 151.045352,139.161197 150.528862,139.182877 150.012378,139.200615 149.4959,139.21441199999998 148.979426,139.224266 148.462954,139.230179 147.946484,139.23215 147.430014,139.230179 146.913542,139.224266 146.397068,139.21441199999998 145.88059,139.200615 145.364106,139.182877 144.84761600000002,139.161197 144.331118,139.135574 143.814611,139.106009 143.298093,139.072501 142.781563,139.03504999999998 142.26502,138.993655 141.74846300000002,138.94831699999997 141.23189,138.899036 140.7153,138.84581 140.198692,138.788639 139.682064,138.727523 139.165416,138.66246199999998 138.64874700000001,138.59345499999998 138.132054,138.520501 137.46444400000001,138.421143 137.46444400000001,143.44317099999998 137.845038,143.499813 138.376549,143.57485899999998 136.55233900000002,143.57485899999998 136.020804,143.645852 135.489248,143.71279099999998 134.957672,143.77567499999998 134.426076,143.83450399999998 133.894462,143.889278 133.362831,143.93999699999998 132.831184,143.98665899999997 132.299523,144.02926399999998 131.767849,144.067813 131.236163,144.102305 130.704466,144.13273999999998 130.17276,144.15911699999998 129.64104600000002,144.181437 129.109326,144.19969899999998 128.57760000000002,144.213902 128.04587,144.22404799999998 127.514138,144.230135 126.982404,144.23216399999998 126.45067,144.230135 125.918938,144.22404799999998 125.387208,144.213902 124.85548200000001,144.19969899999998 124.323762,144.181437 123.79204800000001,144.15911699999998 123.26034200000001,144.13273999999998 122.728645,144.102305 122.196959,144.067813 121.66528500000001,144.02926399999998 121.133624,143.98665899999997 120.601977,143.93999699999998 120.070346,143.889278 119.53873200000001,143.83450399999998 119.007136,143.77567499999998 118.47556,143.71279099999998 117.944004,143.645852 117.412469,143.57485899999998 116.880958,143.499813 115.500364,143.294345 115.500364,138.272317 117.167974,138.520501 117.684667,138.59345499999998 118.201336,138.66246199999998 118.717984,138.727523 119.234612,138.788639 119.75122,138.84581 120.26781,138.899036 120.784383,138.94831699999997 121.30094,138.993655 121.81748300000001,139.03504999999998 122.334013,139.072501 122.850531,139.106009 123.36703800000001,139.135574 123.883536,139.161197 124.400026,139.182877 124.91651,139.200615 125.43298800000001,139.21441199999998 125.94946200000001,139.224266 126.465934,139.230179 126.982404,139.23215 127.498874,139.230179 128.015346,139.224266 128.53182,139.21441199999998 129.04829800000002,139.200615 129.564782,139.182877 130.081272,139.161197 130.59777,139.135574 131.11427700000002,139.106009 131.630795,139.072501 132.147325,139.03504999999998 132.663868,138.993655 133.180425,138.94831699999997 133.696998,138.899036 134.21358800000002,138.84581 134.730196,138.788639 135.246824,138.727523 135.763472,138.66246199999998 136.28014100000001,138.59345499999998 136.796834,138.520501 137.46444400000001,138.421143 137.46444400000001,143.44317099999998 137.08385,143.499813 136.55233900000002,143.57485899999998" stroke="#1f6fb2" stroke-width="0.1" /><text fill="#0a3d62" font-family="sans-serif" font-size="1.6" text-anchor="middle" x="137.46444400000001" y="141.2522405">08</text><polygon fill="#cfe3f7" fill-opacity="0.5" points="4.0,156.92144399999998 4.022155,157.14638699999998 4.102098,157.409925 4.2319189999999995,157.65280299999998 4.406629,157.86568799999998 4.619514,158.04039799999998 4.862392,158.17021899999997 5.12593,158.250162 5.350873,158.272317 16.649127,158.272317 16.87407,158.250162 17.137608,158.17021899999997 17.380485999999998,158.04039799999998 17.593370999999998,157.86568799999998 17.768081000000002,157.65280299999998 17.897902000000002,157.409925 17.977845000000002,157.14638699999998 18.0,156.92144399999998 18.0,154.62319 17.977845000000002,154.398247 17.897902000000002,154.134709 17.768081000000002,153.891831 17.593370999999998,153.678946 17.380485999999998,153.504236 17.137608,153.374415 16.87407,153.29447199999998 16.649127,153.272317 5.350873,153.272317 5.12593,153.29447199999998 4.862392,153.374415 4.619514,153.504236 4.406629,153.678946 4.2319189999999995,153.891831 4.102098,154.134709 4.022155,154.398247 4.0,154.62319 4.0,156.92144399999998" stroke="#1f6fb2" stroke-width="0.1" /><text fill="#0a3d62" font-family="sans-serif" font-size="1.6" text-anchor="middle" x="11.0" y="155.772317">06</text><polygon fill="#cfe3f7" fill-opacity="0.5" points="19.0,156.92144399999998 19.022155,157.14638699999998 19.102098,157.409925 19.231919,157.65280299999998 19.406629,157.86568799999998 19.619514,158.04039799999998 19.862392,158.17021899999997 20.12593,158.250162 20.350873,158.272317 31.649127,158.272317 31.87407,158.250162 32.137608,158.17021899999997 32.380486,158.04039799999998 32.593371,157.86568799999998 32.768081,157.65280299999998 32.897902,157.409925 32.977845,157.14638699999998 33.0,156.92144399999998 33.0,154.62319 32.977845,154.398247 32.897902,154.134709 32.768081,153.891831 32.593371,153.678946 32.380486,153.504236 32.137608,153.374415 31.87407,153.29447199999998 31.649127,153.272317 20.350873,153.272317 20.12593,153.29447199999998 19.862392,153.374415 19.619514,153.504236 19.406629,153.678946 19.231919,153.891831 19.102098,154.134709 19.022155,154.398247 19.0,154.62319 19.0,156.92144399999998" stroke="#1f6fb2" stroke-width="0.1" /><text fill="#0a3d62" font-family="sans-serif" font-size="1.6" text-anchor="middle" x="26.0" y="155.772317">06</text></svg>