  0
SECTION
  2
HEADER
  9
$ACADVER
  1
AC1027
  9
$ACADMAINTVER
 70
105
  9
$DWGCODEPAGE
  3
ANSI_1252
  9
$LASTSAVEDBY
  1
ezdxf
  9
$REQUIREDVERSIONS
160
0
  9
$INSBASE
 10
0.0
 20
0.0
 30
0.0
  9
$EXTMIN
 10
1e+20
 20
1e+20
 30
1e+20
  9
$EXTMAX
 10
-1e+20
 20
-1e+20
 30
-1e+20
  9
$LIMMIN
 10
0.0
 20
0.0
  9
$LIMMAX
 10
420.0
 20
297.0
  9
$ORTHOMODE
 70
0
  9
$REGENMODE
 70
1
  9
$FILLMODE
 70
1
  9
$QTEXTMODE
 70
0
  9
$MIRRTEXT
 70
1
  9
$LTSCALE
 40
1.0
  9
$ATTMODE
 70
1
  9
$TEXTSIZE
 40
2.5
  9
$TRACEWID
 40
1.0
  9
$TEXTSTYLE
  7
OpenSans
  9
$CLAYER
  8
0
  9
$CELTYPE
  6
ByLayer
  9
$CECOLOR
 62
256
  9
$CELTSCALE
 40
1.0
  9
$DISPSILH
 70
0
  9
$DIMSCALE
 40
1.0
  9
$DIMASZ
 40
0.175
  9
$DIMEXO
 40
0.125
  9
$DIMDLI
 40
3.75
  9
$DIMRND
 40
0.0
  9
$DIMDLE
 40
0.0
  9
$DIMEXE
 40
0.375
  9
$DIMTP
 40
0.0
  9
$DIMTM
 40
0.0
  9
$DIMTXT
 40
0.25
  9
$DIMCEN
 40
2.5
  9
$DIMTSZ
 40
0.0
  9
$DIMTOL
 70
0
  9
$DIMLIM
 70
0
  9
$DIMTIH
 70
0
  9
$DIMTOH
 70
0
  9
$DIMSE1
 70
0
  9
$DIMSE2
 70
0
  9
$DIMTAD
 70
1
  9
$DIMZIN
 70
12
  9
$DIMBLK
  1
ARCHTICK
  9
$DIMASO
 70
1
  9
$DIMSHO
 70
1
  9
$DIMPOST
  1

  9
$DIMAPOST
  1

  9
$DIMALT
 70
0
  9
$DIMALTD
 70
3
  9
$DIMALTF
 40
0.03937007874
  9
$DIMLFAC
 40
100.0
  9
$DIMTOFL
 70
1
  9
$DIMTVP
 40
0.0
  9
$DIMTIX
 70
0
  9
$DIMSOXD
 70
0
  9
$DIMSAH
 70
0
  9
$DIMBLK1
  1

  9
$DIMBLK2
  1

  9
$DIMSTYLE
  2
EZDXF
  9
$DIMCLRD
 70
0
  9
$DIMCLRE
 70
0
  9
$DIMCLRT
 70
0
  9
$DIMTFAC
 40
0.5
  9
$DIMGAP
 40
0.1
  9
$DIMJUST
 70
0
  9
$DIMSD1
 70
0
  9
$DIMSD2
 70
0
  9
$DIMTOLJ
 70
0
  9
$DIMTZIN
 70
8
  9
$DIMALTZ
 70
0
  9
$DIMALTTZ
 70
0
  9
$DIMUPT
 70
1
  9
$DIMDEC
 70
2
  9
$DIMTDEC
 70
2
  9
$DIMALTU
 70
2
  9
$DIMALTTD
 70
3
  9
$DIMTXSTY
  7
OpenSansCondensed-Light
  9
$DIMAUNIT
 70
0
  9
$DIMADEC
 70
2
  9
$DIMALTRND
 40
0.0
  9
$DIMAZIN
 70
3
  9
$DIMDSEP
 70
46
  9
$DIMATFIT
 70
3
  9
$DIMFRAC
 70
0
  9
$DIMLDRBLK
  1

  9
$DIMLUNIT
 70
2
  9
$DIMLWD
 70
-2
  9
$DIMLWE
 70
-2
  9
$DIMTMOVE
 70
2
  9
$DIMFXL
 40
1.0
  9
$DIMFXLON
 70
0
  9
$DIMJOGANG
 40
0.785398163397
  9
$DIMTFILL
 70
0
  9
$DIMTFILLCLR
 70
0
  9
$DIMARCSYM
 70
0
  9
$DIMLTYPE
  6

  9
$DIMLTEX1
  6

  9
$DIMLTEX2
  6

  9
$DIMTXTDIRECTION
 70
0
  9
$LUNITS
 70
2
  9
$LUPREC
 70
4
  9
$SKETCHINC
 40
1.0
  9
$FILLETRAD
 40
10.0
  9
$AUNITS
 70
0
  9
$AUPREC
 70
2
  9
$MENU
  1
.
  9
$ELEVATION
 40
0.0
  9
$PELEVATION
 40
0.0
  9
$THICKNESS
 40
0.0
  9
$LIMCHECK
 70
0
  9
$CHAMFERA
 40
0.0
  9
$CHAMFERB
 40
0.0
  9
$CHAMFERC
 40
0.0
  9
$CHAMFERD
 40
0.0
  9
$SKPOLY
 70
0
  9
$TDCREATE
 40
2461236.187685185
  9
$TDUCREATE
 40
2458532.153996898
  9
$TDUPDATE
 40
2461236.187696759
  9
$TDUUPDATE
 40
2458532.1544311
  9
$TDINDWG
 40
0.0
  9
$TDUSRTIMER
 40
0.0
  9
$USRTIMER
 70
1
  9
$ANGBASE
 50
0.0
  9
$ANGDIR
 70
0
  9
$PDMODE
 70
0
  9
$PDSIZE
 40
0.0
  9
$PLINEWID
 40
0.0
  9
$SPLFRAME
 70
0
  9
$SPLINETYPE
 70
6
  9
$SPLINESEGS
 70
8
  9
$HANDSEED
  5
137
  9
$SURFTAB1
 70
6
  9
$SURFTAB2
 70
6
  9
$SURFTYPE
 70
6
  9
$SURFU
 70
6
  9
$SURFV
 70
6
  9
$UCSBASE
  2

  9
$UCSNAME
  2

  9
$UCSORG
 10
0.0
 20
0.0
 30
0.0
  9
$UCSXDIR
 10
1.0
 20
0.0
 30
0.0
  9
$UCSYDIR
 10
0.0
 20
1.0
 30
0.0
  9
$UCSORTHOREF
  2

  9
$UCSORTHOVIEW
 70
0
  9
$UCSORGTOP
 10
0.0
 20
0.0
 30
0.0
  9
$UCSORGBOTTOM
 10
0.0
 20
0.0
 30
0.0
  9
$UCSORGLEFT
 10
0.0
 20
0.0
 30
0.0
  9
$UCSORGRIGHT
 10
0.0
 20
0.0
 30
0.0
  9
$UCSORGFRONT
 10
0.0
 20
0.0
 30
0.0
  9
$UCSORGBACK
 10
0.0
 20
0.0
 30
0.0
  9
$PUCSBASE
  2

  9
$PUCSNAME
  2

  9
$PUCSORG
 10
0.0
 20
0.0
 30
0.0
  9
$PUCSXDIR
 10
1.0
 20
0.0
 30
0.0
  9
$PUCSYDIR
 10
0.0
 20
1.0
 30
0.0
  9
$PUCSORTHOREF
  2

  9
$PUCSORTHOVIEW
 70
0
  9
$PUCSORGTOP
 10
0.0
 20
0.0
 30
0.0
  9
$PUCSORGBOTTOM
 10
0.0
 20
0.0
 30
0.0
  9
$PUCSORGLEFT
 10
0.0
 20
0.0
 30
0.0
  9
$PUCSORGRIGHT
 10
0.0
 20
0.0
 30
0.0
  9
$PUCSORGFRONT
 10
0.0
 20
0.0
 30
0.0
  9
$PUCSORGBACK
 10
0.0
 20
0.0
 30
0.0
  9
$USERI1
 70
0
  9
$USERI2
 70
0
  9
$USERI3
 70
0
  9
$USERI4
 70
0
  9
$USERI5
 70
0
  9
$USERR1
 40
0.0
  9
$USERR2
 40
0.0
  9
$USERR3
 40
0.0
  9
$USERR4
 40
0.0
  9
$USERR5
 40
0.0
  9
$WORLDVIEW
 70
1
  9
$SHADEDGE
 70
3
  9
$SHADEDIF
 70
70
  9
$TILEMODE
 70
1
  9
$MAXACTVP
 70
64
  9
$PINSBASE
 10
0.0
 20
0.0
 30
0.0
  9
$PLIMCHECK
 70
0
  9
$PEXTMIN
 10
1e+20
 20
1e+20
 30
1e+20
  9
$PEXTMAX
 10
-1e+20
 20
-1e+20
 30
-1e+20
  9
$PLIMMIN
 10
0.0
 20
0.0
  9
$PLIMMAX
 10
420.0
 20
297.0
  9
$UNITMODE
 70
0
  9
$VISRETAIN
 70
1
  9
$PLINEGEN
 70
0
  9
$PSLTSCALE
 70
1
  9
$TREEDEPTH
 70
3020
  9
$CMLSTYLE
  2
Standard
  9
$CMLJUST
 70
0
  9
$CMLSCALE
 40
20.0
  9
$PROXYGRAPHICS
 70
1
  9
$MEASUREMENT
 70
1
  9
$CELWEIGHT
370
-1
  9
$ENDCAPS
280
0
  9
$JOINSTYLE
280
0
  9
$LWDISPLAY
290
0
  9
$INSUNITS
 70
5
  9
$HYPERLINKBASE
  1

  9
$STYLESHEET
  1

  9
$XEDIT
290
1
  9
$CEPSNTYPE
380
0
  9
$PSTYLEMODE
290
1
  9
$FINGERPRINTGUID
  2
{6CBEF515-DC88-4664-B3D1-A87BFA9BC188}
  9
$VERSIONGUID
  2
{D8DB5F91-7A68-4D88-8B1A-AC0D549ADEE5}
  9
$EXTNAMES
290
1
  9
$PSVPSCALE
 40
0.0
  9
$OLESTARTUP
290
0
  9
$SORTENTS
280
127
  9
$INDEXCTL
280
0
  9
$HIDETEXT
280
1
  9
$XCLIPFRAME
280
1
  9
$HALOGAP
280
0
  9
$OBSCOLOR
 70
257
  9
$OBSLTYPE
280
0
  9
$INTERSECTIONDISPLAY
280
0
  9
$INTERSECTIONCOLOR
 70
257
  9
$DIMASSOC
280
2
  9
$PROJECTNAME
  1

  9
$CAMERADISPLAY
290
0
  9
$LENSLENGTH
 40
50.0
  9
$CAMERAHEIGHT
 40
0.0
  9
$STEPSPERSEC
 40
24.0
  9
$STEPSIZE
 40
100.0
  9
$3DDWFPREC
 40
2.0
  9
$PSOLWIDTH
 40
0.005
  9
$PSOLHEIGHT
 40
0.08
  9
$LOFTANG1
 40
1.570796326795
  9
$LOFTANG2
 40
1.570796326795
  9
$LOFTMAG1
 40
0.0
  9
$LOFTMAG2
 40
0.0
  9
$LOFTPARAM
 70
7
  9
$LOFTNORMALS
280
1
  9
$LATITUDE
 40
37.795
  9
$LONGITUDE
 40
-122.394
  9
$NORTHDIRECTION
 40
0.0
  9
$TIMEZONE
 70
-8000
  9
$LIGHTGLYPHDISPLAY
280
1
  9
$TILEMODELIGHTSYNCH
280
1
  9
$CMATERIAL
347
20
  9
$SOLIDHIST
280
0
  9
$SHOWHIST
280
1
  9
$DWFFRAME
280
2
  9
$DGNFRAME
280
2
  9
$REALWORLDSCALE
290
1
  9
$INTERFERECOLOR
 62
256
  9
$CSHADOW
280
0
  9
$SHADOWPLANELOCATION
 40
0.0
  0
ENDSEC
  0
SECTION
  2
CLASSES
  0
CLASS
  1
ACDBDICTIONARYWDFLT
  2
AcDbDictionaryWithDefault
  3
ObjectDBX Classes
 90
0
 91
0
280
0
281
0
  0
CLASS
  1
SUN
  2
AcDbSun
  3
SCENEOE
 90
1153
 91
0
280
0
281
0
  0
CLASS
  1
VISUALSTYLE
  2
AcDbVisualStyle
  3
ObjectDBX Classes
 90
4095
 91
0
280
0
281
0
  0
CLASS
  1
MATERIAL
  2
AcDbMaterial
  3
ObjectDBX Classes
 90
1153
 91
0
280
0
281
0
  0
CLASS
  1
SCALE
  2
AcDbScale
  3
ObjectDBX Classes
 90
1153
 91
0
280
0
281
0
  0
CLASS
  1
TABLESTYLE
  2
AcDbTableStyle
  3
ObjectDBX Classes
 90
4095
 91
0
280
0
281
0
  0
CLASS
  1
MLEADERSTYLE
  2
AcDbMLeaderStyle
  3
ACDB_MLEADERSTYLE_CLASS
 90
4095
 91
0
280
0
281
0
  0
CLASS
  1
DICTIONARYVAR
  2
AcDbDictionaryVar
  3
ObjectDBX Classes
 90
0
 91
0
280
0
281
0
  0
CLASS
  1
CELLSTYLEMAP
  2
AcDbCellStyleMap
  3
ObjectDBX Classes
 90
1152
 91
0
280
0
281
0
  0
CLASS
  1
MENTALRAYRENDERSETTINGS
  2
AcDbMentalRayRenderSettings
  3
SCENEOE
 90
1024
 91
0
280
0
281
0
  0
CLASS
  1
ACDBDETAILVIEWSTYLE
  2
AcDbDetailViewStyle
  3
ObjectDBX Classes
 90
1025
 91
0
280
0
281
0
  0
CLASS
  1
ACDBSECTIONVIEWSTYLE
  2
AcDbSectionViewStyle
  3
ObjectDBX Classes
 90
1025
 91
0
280
0
281
0
  0
CLASS
  1
RASTERVARIABLES
  2
AcDbRasterVariables
  3
ISM
 90
0
 91
0
280
0
281
0
  0
CLASS
  1
ACDBPLACEHOLDER
  2
AcDbPlaceHolder
  3
ObjectDBX Classes
 90
0
 91
0
280
0
281
0
  0
CLASS
  1
LAYOUT
  2
AcDbLayout
  3
ObjectDBX Classes
 90
0
 91
0
280
0
281
0
  0
ENDSEC
  0
SECTION
  2
TABLES
  0
TABLE
  2
VPORT
  5
8
330
0
100
AcDbSymbolTable
 70
1
  0
VPORT
  5
23
330
8
100
AcDbSymbolTableRecord
100
AcDbViewportTableRecord
  2
*Active
 70
0
 10
0.0
 20
0.0
 11
1.0
 21
1.0
 12
0.0
 22
0.0
 13
0.0
 23
0.0
 14
0.5
 24
0.5
 15
0.5
 25
0.5
 16
0.0
 26
0.0
 36
1.0
 17
0.0
 27
0.0
 37
0.0
 40
1000.0
 41
1.34
 42
50.0
 43
0.0
 44
0.0
 50
0.0
 51
0.0
 71
0
 72
1000
 73
1
 74
3
 75
0
 76
0
 77
0
 78
0
281
0
 65
0
146
0.0
  0
ENDTAB
  0
TABLE
  2
LTYPE
  5
2
330
0
100
AcDbSymbolTable
 70
21
  0
LTYPE
  5
24
330
2
100
AcDbSymbolTableRecord
100
AcDbLinetypeTableRecord
  2
ByBlock
 70
0
  3

 72
65
 73
0
 40
0.0
  0
LTYPE
  5
25
330
2
100
AcDbSymbolTableRecord
100
AcDbLinetypeTableRecord
  2
ByLayer
 70
0
  3

 72
65
 73
0
 40
0.0
  0
LTYPE
  5
26
330
2
100
AcDbSymbolTableRecord
100
AcDbLinetypeTableRecord
  2
Continuous
 70
0
  3

 72
65
 73
0
 40
0.0
  0
LTYPE
  5
2F
330
2
100
AcDbSymbolTableRecord
100
AcDbLinetypeTableRecord
  2
CENTER
 70
0
  3
Center ____ _ ____ _ ____ _ ____ _ ____ _ ____
 72
65
 73
4
 40
5.08
 49
3.175
 74
0
 49
-0.635
 74
0
 49
0.635
 74
0
 49
-0.635
 74
0
  0
LTYPE
  5
30
330
2
100
AcDbSymbolTableRecord
100
AcDbLinetypeTableRecord
  2
CENTERX2
 70
0
  3
Center (2x) ________  __  ________  __  ________
 72
65
 73
4
 40
8.89
 49
6.35
 74
0
 49
-0.635
 74
0
 49
1.27
 74
0
 49
-0.635
 74
0
  0
LTYPE
  5
31
330
2
100
AcDbSymbolTableRecord
100
AcDbLinetypeTableRecord
  2
CENTER2
 70
0
  3
Center (.5x) ____ _ ____ _ ____ _ ____ _ ____
 72
65
 73
4
 40
2.54
 49
1.587
 74
0
 49
-0.318
 74
0
 49
0.318
 74
0
 49
-0.318
 74
0
  0
LTYPE
  5
32
330
2
100
AcDbSymbolTableRecord
100
AcDbLinetypeTableRecord
  2
DASHED
 70
0
  3
Dashed __ __ __ __ __ __ __ __ __ __ __ __ __ _
 72
65
 73
2
 40
1.524
 49
1.27
 74
0
 49
-0.254
 74
0
  0
LTYPE
  5
33
330
2
100
AcDbSymbolTableRecord
100
AcDbLinetypeTableRecord
  2
DASHEDX2
 70
0
  3
Dashed (2x) ____  ____  ____  ____  ____  ____
 72
65
 73
2
 40
3.048
 49
2.54
 74
0
 49
-0.508
 74
0
  0
LTYPE
  5
34
330
2
100
AcDbSymbolTableRecord
100
AcDbLinetypeTableRecord
  2
DASHED2
 70
0
  3
Dashed (.5x) _ _ _ _ _ _ _ _ _ _ _ _ _ _
 72
65
 73
2
 40
0.762
 49
0.635
 74
0
 49
-0.127
 74
0
  0
LTYPE
  5
35
330
2
100
AcDbSymbolTableRecord
100
AcDbLinetypeTableRecord
  2
PHANTOM
 70
0
  3
Phantom ______  __  __  ______  __  __  ______
 72
65
 73
6
 40
6.35
 49
3.175
 74
0
 49
-0.635
 74
0
 49
0.635
 74
0
 49
-0.635
 74
0
 49
0.635
 74
0
 49
-0.635
 74
0
  0
LTYPE
  5
36
330
2
100
AcDbSymbolTableRecord
100
AcDbLinetypeTableRecord
  2
PHANTOMX2
 70
0
  3
Phantom (2x)____________    ____    ____    ____________
 72
65
 73
6
 40
10.795
 49
6.35
 74
0
 49
-0.635
 74
0
 49
1.27
 74
0
 49
-0.635
 74
0
 49
1.27
 74
0
 49
-0.635
 74
0
  0
LTYPE
  5
37
330
2
100
AcDbSymbolTableRecord
100
AcDbLinetypeTableRecord
  2
PHANTOM2
 70
0
  3
Phantom (.5x) ___ _ _ ___ _ _ ___ _ _ ___ _ _ ___
 72
65
 73
6
 40
3.175
 49
1.587
 74
0
 49
-0.318
 74
0
 49
0.318
 74
0
 49
-0.318
 74
0
 49
0.318
 74
0
 49
-0.318
 74
0
  0
LTYPE
  5
38
330
2
100
AcDbSymbolTableRecord
100
AcDbLinetypeTableRecord
  2
DASHDOT
 70
0
  3
Dash dot __ . __ . __ . __ . __ . __ . __ . __
 72
65
 73
4
 40
3.556
 49
2.54
 74
0
 49
-0.508
 74
0
 49
0.0
 74
0
 49
-0.508
 74
0
  0
LTYPE
  5
39
330
2
100
AcDbSymbolTableRecord
100
AcDbLinetypeTableRecord
  2
DASHDOTX2
 70
0
  3
Dash dot (2x) ____  .  ____  .  ____  .  ____
 72
65
 73
4
 40
6.096
 49
5.08
 74
0
 49
-0.508
 74
0
 49
0.0
 74
0
 49
-0.508
 74
0
  0
LTYPE
  5
3A
330
2
100
AcDbSymbolTableRecord
100
AcDbLinetypeTableRecord
  2
DASHDOT2
 70
0
  3
Dash dot (.5x) _ . _ . _ . _ . _ . _ . _ . _
 72
65
 73
4
 40
1.778
 49
1.27
 74
0
 49
-0.254
 74
0
 49
0.0
 74
0
 49
-0.254
 74
0
  0
LTYPE
  5
3B
330
2
100
AcDbSymbolTableRecord
100
AcDbLinetypeTableRecord
  2
DOT
 70
0
  3
Dot .  .  .  .  .  .  .  .  .  .  .  .  .  .  .  .
 72
65
 73
2
 40
0.508
 49
0.0
 74
0
 49
-0.508
 74
0
  0
LTYPE
  5
3C
330
2
100
AcDbSymbolTableRecord
100
AcDbLinetypeTableRecord
  2
DOTX2
 70
0
  3
Dot (2x) .    .    .    .    .    .    .    . 
 72
65
 73
2
 40
1.016
 49
0.0
 74
0
 49
-1.016
 74
0
  0
LTYPE
  5
3D
330
2
100
AcDbSymbolTableRecord
100
AcDbLinetypeTableRecord
  2
DOT2
 70
0
  3
Dot (.5) . . . . . . . . . . . . . . . . . . . 
 72
65
 73
2
 40
0.254
 49
0.0
 74
0
 49
-0.254
 74
0
  0
LTYPE
  5
3E
330
2
100
AcDbSymbolTableRecord
100
AcDbLinetypeTableRecord
  2
DIVIDE
 70
0
  3
Divide __ . . __ . . __ . . __ . . __ . . __
 72
65
 73
6
 40
4.064
 49
2.54
 74
0
 49
-0.508
 74
0
 49
0.0
 74
0
 49
-0.508
 74
0
 49
0.0
 74
0
 49
-0.508
 74
0
  0
LTYPE
  5
3F
330
2
100
AcDbSymbolTableRecord
100
AcDbLinetypeTableRecord
  2
DIVIDEX2
 70
0
  3
Divide (2x) ____  . .  ____  . .  ____  . .  ____
 72
65
 73
6
 40
6.604
 49
5.08
 74
0
 49
-0.508
 74
0
 49
0.0
 74
0
 49
-0.508
 74
0
 49
0.0
 74
0
 49
-0.508
 74
0
  0
LTYPE
  5
40
330
2
100
AcDbSymbolTableRecord
100
AcDbLinetypeTableRecord
  2
DIVIDE2
 70
0
  3
Divide(.5x) _ . _ . _ . _ . _ . _ . _ . _
 72
65
 73
6
 40
2.032
 49
1.27
 74
0
 49
-0.254
 74
0
 49
0.0
 74
0
 49
-0.254
 74
0
 49
0.0
 74
0
 49
-0.254
 74
0
  0
ENDTAB
  0
TABLE
  2
LAYER
  5
1
330
0
100
AcDbSymbolTable
 70
13
  0
LAYER
  5
27
330
1
100
AcDbSymbolTableRecord
100
AcDbLayerTableRecord
  2
0
 70
0
 62
7
  6
Continuous
370
-3
390
13
347
21
  0
LAYER
  5
28
330
1
100
AcDbSymbolTableRecord
100
AcDbLayerTableRecord
  2
Defpoints
 70
0
 62
7
  6
Continuous
290
0
370
-3
390
13
347
21
  0
LAYER
  5
8A
330
1
100
AcDbSymbolTableRecord
100
AcDbLayerTableRecord
  2
CONSTRUCCION
 70
0
 62
8
  6
Continuous
370
-3
390
13
347
21
  0
LAYER
  5
8B
330
1
100
AcDbSymbolTableRecord
100
AcDbLayerTableRecord
  2
CORTE
 70
0
 62
1
  6
Continuous
370
-3
390
13
347
21
  0
LAYER
  5
8C
330
1
100
AcDbSymbolTableRecord
100
AcDbLayerTableRecord
  2
COSTURA
 70
0
 62
3
  6
Continuous
370
-3
390
13
347
21
  0
LAYER
  5
8D
330
1
100
AcDbSymbolTableRecord
100
AcDbLayerTableRecord
  2
PIQUETES
 70
0
 62
4
  6
Continuous
370
-3
390
13
347
21
  0
LAYER
  5
8E
330
1
100
AcDbSymbolTableRecord
100
AcDbLayerTableRecord
  2
TEXTOS
 70
0
 62
7
  6
Continuous
370
-3
390
13
347
21
  0
LAYER
  5
8F
330
1
100
AcDbSymbolTableRecord
100
AcDbLayerTableRecord
  2
CENTROS
 70
0
 62
5
  6
Continuous
370
-3
390
13
347
21
  0
LAYER
  5
90
330
1
100
AcDbSymbolTableRecord
100
AcDbLayerTableRecord
  2
HILO
 70
0
 62
2
  6
Continuous
370
-3
390
13
347
21
  0
LAYER
  5
91
330
1
100
AcDbSymbolTableRecord
100
AcDbLayerTableRecord
  2
DOBLEZ
 70
0
 62
6
  6
Continuous
370
-3
390
13
347
21
  0
LAYER
  5
92
330
1
100
AcDbSymbolTableRecord
100
AcDbLayerTableRecord
  2
BOTONES
 70
0
 62
30
  6
Continuous
370
-3
390
13
347
21
  0
LAYER
  5
93
330
1
100
AcDbSymbolTableRecord
100
AcDbLayerTableRecord
  2
OJAL
 70
0
 62
200
  6
Continuous
370
-3
390
13
347
21
  0
LAYER
  5
94
330
1
100
AcDbSymbolTableRecord
100
AcDbLayerTableRecord
  2
REFERENCIAS
 70
0
 62
9
  6
Continuous
370
-3
390
13
347
21
  0
ENDTAB
  0
TABLE
  2
STYLE
  5
5
330
0
100
AcDbSymbolTable
 70
26
  0
STYLE
  5
29
330
5
100
AcDbSymbolTableRecord
100
AcDbTextStyleTableRecord
  2
Standard
 70
0
 40
0.0
 41
1.0
 50
0.0
 71
0
 42
2.5
  3
txt
  4

  0
STYLE
  5
41
330
5
100
AcDbSymbolTableRecord
100
AcDbTextStyleTableRecord
  2
OpenSans-Light
 70
0
 40
0.0
 41
1.0
 50
0.0
 71
0
 42
2.5
  3
OpenSans-Light.ttf
  4

  0
STYLE
  5
42
330
5
100
AcDbSymbolTableRecord
100
AcDbTextStyleTableRecord
  2
OpenSans-Light-Italic
 70
0
 40
0.0
 41
1.0
 50
0.0
 71
0
 42
2.5
  3
OpenSans-LightItalic.ttf
  4

  0
STYLE
  5
43
330
5
100
AcDbSymbolTableRecord
100
AcDbTextStyleTableRecord
  2
OpenSans
 70
0
 40
0.0
 41
1.0
 50
0.0
 71
0
 42
2.5
  3
OpenSans-Regular.ttf
  4

  0
STYLE
  5
44
330
5
100
AcDbSymbolTableRecord
100
AcDbTextStyleTableRecord
  2
OpenSans-Italic
 70
0
 40
0.0
 41
1.0
 50
0.0
 71
0
 42
2.5
  3
OpenSans-Italic.ttf
  4

  0
STYLE
  5
45
330
5
100
AcDbSymbolTableRecord
100
AcDbTextStyleTableRecord
  2
OpenSans-SemiBold
 70
0
 40
0.0
 41
1.0
 50
0.0
 71
0
 42
2.5
  3
OpenSans-SemiBold.ttf
  4

  0
STYLE
  5
46
330
5
100
AcDbSymbolTableRecord
100
AcDbTextStyleTableRecord
  2
OpenSans-SemiBoldItalic
 70
0
 40
0.0
 41
1.0
 50
0.0
 71
0
 42
2.5
  3
OpenSans-SemiBoldItalic.ttf
  4

  0
STYLE
  5
47
330
5
100
AcDbSymbolTableRecord
100
AcDbTextStyleTableRecord
  2
OpenSans-Bold
 70
0
 40
0.0
 41
1.0
 50
0.0
 71
0
 42
2.5
  3
OpenSans-Bold.ttf
  4

  0
STYLE
  5
48
330
5
100
AcDbSymbolTableRecord
100
AcDbTextStyleTableRecord
  2
OpenSans-BoldItalic
 70
0
 40
0.0
 41
1.0
 50
0.0
 71
0
 42
2.5
  3
OpenSans-BoldItalic.ttf
  4

  0
STYLE
  5
49
330
5
100
AcDbSymbolTableRecord
100
AcDbTextStyleTableRecord
  2
OpenSans-ExtraBold
 70
0
 40
0.0
 41
1.0
 50
0.0
 71
0
 42
2.5
  3
OpenSans-ExtraBold.ttf
  4

  0
STYLE
  5
4A
330
5
100
AcDbSymbolTableRecord
100
AcDbTextStyleTableRecord
  2
OpenSans-ExtraBoldItalic
 70
0
 40
0.0
 41
1.0
 50
0.0
 71
0
 42
2.5
  3
OpenSans-ExtraBoldItalic.ttf
  4

  0
STYLE
  5
4B
330
5
100
AcDbSymbolTableRecord
100
AcDbTextStyleTableRecord
  2
OpenSansCondensed-Bold
 70
0
 40
0.0
 41
1.0
 50
0.0
 71
0
 42
2.5
  3
OpenSansCondensed-Bold.ttf
  4

  0
STYLE
  5
4C
330
5
100
AcDbSymbolTableRecord
100
AcDbTextStyleTableRecord
  2
OpenSansCondensed-Light
 70
0
 40
0.0
 41
1.0
 50
0.0
 71
0
 42
2.5
  3
OpenSansCondensed-Light.ttf
  4

  0
STYLE
  5
4D
330
5
100
AcDbSymbolTableRecord
100
AcDbTextStyleTableRecord
  2
OpenSansCondensed-Italic
 70
0
 40
0.0
 41
1.0
 50
0.0
 71
0
 42
2.5
  3
OpenSansCondensed-LightItalic.ttf
  4

  0
STYLE
  5
4E
330
5
100
AcDbSymbolTableRecord
100
AcDbTextStyleTableRecord
  2
LiberationSans
 70
0
 40
0.0
 41
1.0
 50
0.0
 71
0
 42
2.5
  3
LiberationSans-Regular.ttf
  4

  0
STYLE
  5
4F
330
5
100
AcDbSymbolTableRecord
100
AcDbTextStyleTableRecord
  2
LiberationSans-Bold
 70
0
 40
0.0
 41
1.0
 50
0.0
 71
0
 42
2.5
  3
LiberationSans-Bold.ttf
  4

  0
STYLE
  5
50
330
5
100
AcDbSymbolTableRecord
100
AcDbTextStyleTableRecord
  2
LiberationSans-BoldItalic
 70
0
 40
0.0
 41
1.0
 50
0.0
 71
0
 42
2.5
  3
LiberationSans-BoldItalic.ttf
  4

  0
STYLE
  5
51
330
5
100
AcDbSymbolTableRecord
100
AcDbTextStyleTableRecord
  2
LiberationSans-Italic
 70
0
 40
0.0
 41
1.0
 50
0.0
 71
0
 42
2.5
  3
LiberationSans-Italic.ttf
  4

  0
STYLE
  5
52
330
5
100
AcDbSymbolTableRecord
100
AcDbTextStyleTableRecord
  2
LiberationSerif
 70
0
 40
0.0
 41
1.0
 50
0.0
 71
0
 42
2.5
  3
LiberationSerif-Regular.ttf
  4

  0
STYLE
  5
53
330
5
100
AcDbSymbolTableRecord
100
AcDbTextStyleTableRecord
  2
LiberationSerif-Bold
 70
0
 40
0.0
 41
1.0
 50
0.0
 71
0
 42
2.5
  3
LiberationSerif-Bold.ttf
  4

  0
STYLE
  5
54
330
5
100
AcDbSymbolTableRecord
100
AcDbTextStyleTableRecord
  2
LiberationSerif-BoldItalic
 70
0
 40
0.0
 41
1.0
 50
0.0
 71
0
 42
2.5
  3
LiberationSerif-BoldItalic.ttf
  4

  0
STYLE
  5
55
330
5
100
AcDbSymbolTableRecord
100
AcDbTextStyleTableRecord
  2
LiberationSerif-Italic
 70
0
 40
0.0
 41
1.0
 50
0.0
 71
0
 42
2.5
  3
LiberationSerif-Italic.ttf
  4

  0
STYLE
  5
56
330
5
100
AcDbSymbolTableRecord
100
AcDbTextStyleTableRecord
  2
LiberationMono
 70
0
 40
0.0
 41
1.0
 50
0.0
 71
0
 42
2.5
  3
LiberationMono-Regular.ttf
  4

  0
STYLE
  5
57
330
5
100
AcDbSymbolTableRecord
100
AcDbTextStyleTableRecord
  2
LiberationMono-Bold
 70
0
 40
0.0
 41
1.0
 50
0.0
 71
0
 42
2.5
  3
LiberationMono-Bold.ttf
  4

  0
STYLE
  5
58
330
5
100
AcDbSymbolTableRecord
100
AcDbTextStyleTableRecord
  2
LiberationMono-BoldItalic
 70
0
 40
0.0
 41
1.0
 50
0.0
 71
0
 42
2.5
  3
LiberationMono-BoldItalic.ttf
  4

  0
STYLE
  5
59
330
5
100
AcDbSymbolTableRecord
100
AcDbTextStyleTableRecord
  2
LiberationMono-Italic
 70
0
 40
0.0
 41
1.0
 50
0.0
 71
0
 42
2.5
  3
LiberationMono-Italic.ttf
  4

  0
ENDTAB
  0
TABLE
  2
VIEW
  5
7
330
0
100
AcDbSymbolTable
 70
0
  0
ENDTAB
  0
TABLE
  2
UCS
  5
6
330
0
100
AcDbSymbolTable
 70
0
  0
ENDTAB
  0
TABLE
  2
APPID
  5
3
330
0
100
AcDbSymbolTable
 70
3
  0
APPID
  5
2A
330
3
100
AcDbSymbolTableRecord
100
AcDbRegAppTableRecord
  2
ACAD
 70
0
  0
APPID
  5
134
330
3
100
AcDbSymbolTableRecord
100
AcDbRegAppTableRecord
  2
HATCHBACKGROUNDCOLOR
 70
0
  0
APPID
  5
135
330
3
100
AcDbSymbolTableRecord
100
AcDbRegAppTableRecord
  2
EZDXF
 70
0
  0
ENDTAB
  0
TABLE
  2
DIMSTYLE
  5
4
330
0
100
AcDbSymbolTable
 70
12
100
AcDbDimStyleTable
  0
DIMSTYLE
105
2B
330
4
100
AcDbSymbolTableRecord
100
AcDbDimStyleTableRecord
  2
Standard
 70
0
 40
1.0
 41
2.5
 42
0.625
 43
3.75
 44
1.25
 45
0.0
 46
0.0
 47
0.0
 48
0.0
 49
2.5
140
2.5
141
2.5
142
0.0
143
0.03937007874
144
1.0
145
0.0
146
1.0
147
0.625
148
0.0
 69
0
 70
0
 71
0
 72
0
 73
0
 74
0
 75
0
 76
0
 77
1
 78
8
 79
3
170
0
171
3
172
1
173
0
174
0
175
0
176
0
177
0
178
0
179
2
271
2
272
2
273
2
274
3
275
0
276
0
277
2
278
44
279
0
280
0
281
0
282
0
283
0
284
8
285
0
286
0
288
0
289
3
290
0
371
-2
372
-2
  0
DIMSTYLE
105
73
330
4
100
AcDbSymbolTableRecord
100
AcDbDimStyleTableRecord
  2
EZDXF
 70
0
 40
1.0
 41
0.175
 42
0.125
 43
3.75
 44
0.375
 45
0.0
 46
0.0
 47
0.0
 48
0.0
 49
2.5
140
0.25
141
2.5
142
0.0
143
0.03937007874
144
100.0
145
0.0
146
0.5
147
0.1
148
0.0
 69
0
 70
0
 71
0
 72
0
 73
0
 74
0
 75
0
 76
0
 77
1
 78
12
 79
3
170
0
171
3
172
1
173
0
174
0
175
0
176
0
177
0
178
0
179
2
271
2
272
2
273
2
274
3
275
0
276
0
277
2
278
46
279
2
280
0
281
0
282
0
283
0
284
8
285
0
286
0
288
1
289
3
290
0
340
4C
342
74
371
-2
372
-2
  0
DIMSTYLE
105
7C
330
4
100
AcDbSymbolTableRecord
100
AcDbDimStyleTableRecord
  2
EZ_M_100_H25_CM
 70
0
 40
1.0
 41
0.25
 42
0.125
 43
3.75
 44
0.375
 45
0.0
 46
0.0
 47
0.0
 48
0.0
 49
2.5
140
0.25
141
2.5
142
0.125
143
0.03937007874
144
100.0
145
0.0
146
0.5
147
0.1
148
0.0
 69
0
 70
0
 71
0
 72
0
 73
0
 74
0
 75
0
 76
0
 77
1
 78
12
 79
3
170
0
171
3
172
1
173
0
174
0
175
0
176
0
177
0
178
0
179
2
271
2
272
2
273
2
274
3
275
0
276
0
277
2
278
46
279
2
280
0
281
0
282
0
283
0
284
8
285
0
286
0
288
1
289
3
290
0
340
4C
371
-2
372
-2
  0
DIMSTYLE
105
7D
330
4
100
AcDbSymbolTableRecord
100
AcDbDimStyleTableRecord
  2
EZ_M_50_H25_CM
 70
0
 40
1.0
 41
0.125
 42
0.0625
 43
3.75
 44
0.1875
 45
0.0
 46
0.0
 47
0.0
 48
0.0
 49
2.5
140
0.125
141
2.5
142
0.0625
143
0.03937007874
144
100.0
145
0.0
146
0.5
147
0.05
148
0.0
 69
0
 70
0
 71
0
 72
0
 73
0
 74
0
 75
0
 76
0
 77
1
 78
12
 79
3
170
0
171
3
172
1
173
0
174
0
175
0
176
0
177
0
178
0
179
2
271
2
272
2
273
2
274
3
275
0
276
0
277
2
278
46
279
2
280
0
281
0
282
0
283
0
284
8
285
0
286
0
288
1
289
3
290
0
340
4C
371
-2
372
-2
  0
DIMSTYLE
105
7E
330
4
100
AcDbSymbolTableRecord
100
AcDbDimStyleTableRecord
  2
EZ_M_25_H25_CM
 70
0
 40
1.0
 41
0.0625
 42
0.03125
 43
3.75
 44
0.09375
 45
0.0
 46
0.0
 47
0.0
 48
0.0
 49
2.5
140
0.0625
141
2.5
142
0.03125
143
0.03937007874
144
100.0
145
0.0
146
0.5
147
0.025
148
0.0
 69
0
 70
0
 71
0
 72
0
 73
0
 74
0
 75
0
 76
0
 77
1
 78
12
 79
3
170
0
171
3
172
1
173
0
174
0
175
0
176
0
177
0
178
0
179
2
271
2
272
2
273
2
274
3
275
0
276
0
277
2
278
46
279
2
280
0
281
0
282
0
283
0
284
8
285
0
286
0
288
1
289
3
290
0
340
4C
371
-2
372
-2
  0
DIMSTYLE
105
7F
330
4
100
AcDbSymbolTableRecord
100
AcDbDimStyleTableRecord
  2
EZ_M_20_H25_CM
 70
0
 40
1.0
 41
0.05
 42
0.025
 43
3.75
 44
0.07500000000000001
 45
0.0
 46
0.0
 47
0.0
 48
0.0
 49
2.5
140
0.05
141
2.5
142
0.025
143
0.03937007874
144
100.0
145
0.0
146
0.5
147
0.020000000000000004
148
0.0
 69
0
 70
0
 71
0
 72
0
 73
0
 74
0
 75
0
 76
0
 77
1
 78
12
 79
3
170
0
171
3
172
1
173
0
174
0
175
0
176
0
177
0
178
0
179
2
271
2
272
2
273
2
274
3
275
0
276
0
277
2
278
46
279
2
280
0
281
0
282
0
283
0
284
8
285
0
286
0
288
1
289
3
290
0
340
4C
371
-2
372
-2
  0
DIMSTYLE
105
80
330
4
100
AcDbSymbolTableRecord
100
AcDbDimStyleTableRecord
  2
EZ_M_10_H25_CM
 70
0
 40
1.0
 41
0.025
 42
0.0125
 43
3.75
 44
0.037500000000000006
 45
0.0
 46
0.0
 47
0.0
 48
0.0
 49
2.5
140
0.025
141
2.5
142
0.0125
143
0.03937007874
144
100.0
145
0.0
146
0.5
147
0.010000000000000002
148
0.0
 69
0
 70
0
 71
0
 72
0
 73
0
 74
0
 75
0
 76
0
 77
1
 78
12
 79
3
170
0
171
3
172
1
173
0
174
0
175
0
176
0
177
0
178
0
179
2
271
2
272
2
273
2
274
3
275
0
276
0
277
2
278
46
279
2
280
0
281
0
282
0
283
0
284
8
285
0
286
0
288
1
289
3
290
0
340
4C
371
-2
372
-2
  0
DIMSTYLE
105
81
330
4
100
AcDbSymbolTableRecord
100
AcDbDimStyleTableRecord
  2
EZ_M_5_H25_CM
 70
0
 40
1.0
 41
0.0125
 42
0.00625
 43
3.75
 44
0.018750000000000003
 45
0.0
 46
0.0
 47
0.0
 48
0.0
 49
2.5
140
0.0125
141
2.5
142
0.00625
143
0.03937007874
144
100.0
145
0.0
146
0.5
147
0.005000000000000001
148
0.0
 69
0
 70
0
 71
0
 72
0
 73
0
 74
0
 75
0
 76
0
 77
1
 78
12
 79
3
170
0
171
3
172
1
173
0
174
0
175
0
176
0
177
0
178
0
179
2
271
2
272
2
273
2
274
3
275
0
276
0
277
2
278
46
279
2
280
0
281
0
282
0
283
0
284
8
285
0
286
0
288
1
289
3
290
0
340
4C
371
-2
372
-2
  0
DIMSTYLE
105
82
330
4
100
AcDbSymbolTableRecord
100
AcDbDimStyleTableRecord
  2
EZ_M_1_H25_CM
 70
0
 40
1.0
 41
0.0025
 42
0.00125
 43
3.75
 44
0.00375
 45
0.0
 46
0.0
 47
0.0
 48
0.0
 49
2.5
140
0.0025
141
2.5
142
0.00125
143
0.03937007874
144
100.0
145
0.0
146
0.5
147
0.001
148
0.0
 69
0
 70
0
 71
0
 72
0
 73
0
 74
0
 75
0
 76
0
 77
1
 78
12
 79
3
170
0
171
3
172
1
173
0
174
0
175
0
176
0
177
0
178
0
179
2
271
2
272
2
273
2
274
3
275
0
276
0
277
2
278
46
279
2
280
0
281
0
282
0
283
0
284
8
285
0
286
0
288
1
289
3
290
0
340
4C
371
-2
372
-2
  0
DIMSTYLE
105
83
330
4
100
AcDbSymbolTableRecord
100
AcDbDimStyleTableRecord
  2
EZ_RADIUS
 70
0
 40
1.0
 41
0.25
 42
0.125
 43
3.75
 44
0.375
 45
0.0
 46
0.0
 47
0.0
 48
0.0
 49
2.5
140
0.25
141
0.0
142
0.0
143
0.03937007874
144
100.0
145
0.0
146
0.5
147
0.1
148
0.0
 69
0
 70
0
 71
0
 72
0
 73
0
 74
0
 75
0
 76
0
 77
1
 78
12
 79
3
170
0
171
3
172
0
173
0
174
0
175
0
176
0
177
0
178
0
179
2
271
2
272
2
273
2
274
3
275
0
276
0
277
2
278
46
279
1
280
0
281
0
282
0
283
0
284
8
285
0
286
0
288
1
289
3
290
0
340
4C
342
84
371
-2
372
-2
  0
DIMSTYLE
105
88
330
4
100
AcDbSymbolTableRecord
100
AcDbDimStyleTableRecord
  2
EZ_RADIUS_INSIDE
 70
0
 40
1.0
 41
0.25
 42
0.125
 43
3.75
 44
0.375
 45
0.0
 46
0.0
 47
0.0
 48
0.0
 49
2.5
140
0.25
141
0.0
142
0.0
143
0.03937007874
144
100.0
145
0.0
146
0.5
147
0.1
148
0.0
 69
0
 70
0
 71
0
 72
0
 73
0
 74
0
 75
0
 76
0
 77
0
 78
12
 79
3
170
0
171
3
172
0
173
0
174
1
175
0
176
0
177
0
178
0
179
2
271
2
272
2
273
2
274
3
275
0
276
0
277
2
278
46
279
0
280
0
281
0
282
0
283
0
284
8
285
0
286
0
288
1
289
0
290
0
340
4C
342
84
371
-2
372
-2
  0
DIMSTYLE
105
89
330
4
100
AcDbSymbolTableRecord
100
AcDbDimStyleTableRecord
  2
EZ_CURVED
 70
0
 40
1.0
 41
0.25
 42
0.125
 43
3.75
 44
0.375
 45
0.0
 46
0.0
 47
0.0
 48
0.0
 49
2.5
140
0.25
141
2.5
142
0.0
143
0.03937007874
144
100.0
145
0.0
146
0.5
147
0.1
148
0.0
 69
0
 70
0
 71
0
 72
0
 73
0
 74
0
 75
0
 76
0
 77
1
 78
12
 79
2
 90
2
170
0
171
3
172
1
173
0
174
0
175
0
176
0
177
0
178
0
179
2
271
2
272
2
273
2
274
3
275
0
276
0
277
2
278
46
279
2
280
0
281
0
282
0
283
0
284
8
285
0
286
0
288
1
289
3
290
0
340
4C
371
-2
372
-2
  0
ENDTAB
  0
TABLE
  2
BLOCK_RECORD
  5
9
330
0
100
AcDbSymbolTable
 70
5
  0
BLOCK_RECORD
  5
17
330
9
100
AcDbSymbolTableRecord
100
AcDbBlockTableRecord
  2
*Model_Space
340
1A
 70
0
280
1
281
0
  0
BLOCK_RECORD
  5
1B
330
9
100
AcDbSymbolTableRecord
100
AcDbBlockTableRecord
  2
*Paper_Space
340
1E
 70
0
280
1
281
0
  0
BLOCK_RECORD
  5
74
330
9
100
AcDbSymbolTableRecord
100
AcDbBlockTableRecord
  2
_ARCHTICK
340
0
 70
0
280
1
281
0
  0
BLOCK_RECORD
  5
78
330
9
100
AcDbSymbolTableRecord
100
AcDbBlockTableRecord
  2
_CLOSEDFILLED
340
0
 70
0
280
1
281
0
  0
BLOCK_RECORD
  5
84
330
9
100
AcDbSymbolTableRecord
100
AcDbBlockTableRecord
  2
_CLOSEDBLANK
340
0
 70
0
280
1
281
0
  0
ENDTAB
  0
ENDSEC
  0
SECTION
  2
BLOCKS
  0
BLOCK
  5
18
330
17
100
AcDbEntity
  8
0
100
AcDbBlockBegin
  2
*Model_Space
 70
0
 10
0.0
 20
0.0
 30
0.0
  3
*Model_Space
  1

  0
ENDBLK
  5
19
330
17
100
AcDbEntity
  8
0
100
AcDbBlockEnd
  0
BLOCK
  5
1C
330
1B
100
AcDbEntity
  8
0
100
AcDbBlockBegin
  2
*Paper_Space
 70
0
 10
0.0
 20
0.0
 30
0.0
  3
*Paper_Space
  1

  0
ENDBLK
  5
1D
330
1B
100
AcDbEntity
  8
0
100
AcDbBlockEnd
  0
BLOCK
  5
75
330
74
100
AcDbEntity
  8
0
100
AcDbBlockBegin
  2
_ARCHTICK
 70
0
 10
0.0
 20
0.0
 30
0.0
  3
_ARCHTICK
  1

  0
LWPOLYLINE
  5
77
330
74
100
AcDbEntity
  8
0
  6
BYBLOCK
 62
0
100
AcDbPolyline
 90
2
 70
0
 43
0.15
 10
-0.5
 20
-0.5
 10
0.5
 20
0.5
  0
ENDBLK
  5
76
330
74
100
AcDbEntity
  8
0
100
AcDbBlockEnd
  0
BLOCK
  5
79
330
78
100
AcDbEntity
  8
0
100
AcDbBlockBegin
  2
_CLOSEDFILLED
 70
0
 10
0.0
 20
0.0
 30
0.0
  3
_CLOSEDFILLED
  1

  0
SOLID
  5
7B
330
78
100
AcDbEntity
  8
0
  6
BYBLOCK
 62
0
100
AcDbTrace
 10
-1.0
 20
0.16439898372402537
 30
0.0
 11
0.0
 21
0.0
 31
0.0
 12
-1.0
 22
-0.16439898372402537
 32
0.0
 13
-1.0
 23
-0.16439898372402537
 33
0.0
  0
ENDBLK
  5
7A
330
78
100
AcDbEntity
  8
0
100
AcDbBlockEnd
  0
BLOCK
  5
85
330
84
100
AcDbEntity
  8
0
100
AcDbBlockBegin
  2
_CLOSEDBLANK
 70
0
 10
0.0
 20
0.0
 30
0.0
  3
_CLOSEDBLANK
  1

  0
LWPOLYLINE
  5
87
330
84
100
AcDbEntity
  8
0
  6
BYBLOCK
 62
0
100
AcDbPolyline
 90
3
 70
1
 10
-1.0
 20
0.16439898372402537
 10
0.0
 20
0.0
 10
-1.0
 20
-0.16439898372402537
  0
ENDBLK
  5
86
330
84
100
AcDbEntity
  8
0
100
AcDbBlockEnd
  0
ENDSEC
  0
SECTION
  2
ENTITIES
  0
LWPOLYLINE
  5
95
330
17
100
AcDbEntity
  8
CORTE
100
AcDbPolyline
 90
78
 70
1
 10
-0.9999999999999998
 20
-69.0
 10
29.784
 20
-69.0
 10
29.784
 20
-21.591721
 10
29.10343
 20
-20.897191
 10
28.707661
 20
-20.494049
 10
28.309023
 20
-20.089477
 10
27.906897
 20
-19.683595
 10
27.500342
 20
-19.276202
 10
27.088424
 20
-18.867101
 10
26.67021
 20
-18.456101
 10
26.244784
 20
-18.04303
 10
25.812213
 20
-17.628625
 10
25.376219
 20
-17.214858
 10
24.943168
 20
-16.802626
 10
24.518187
 20
-16.391466
 10
24.106299
 20
-15.981013
 10
23.712553
 20
-15.571151
 10
23.341976
 20
-15.162033
 10
22.999494
 20
-14.754112
 10
22.689825
 20
-14.348146
 10
22.417294
 20
-13.945171
 10
22.185612
 20
-13.546366
 10
21.9976
 20
-13.152721
 10
21.854027
 20
-12.761823
 10
21.752068
 20
-12.36497
 10
21.687692
 20
-11.954667
 10
21.659014
 20
-11.528613
 10
21.664642
 20
-11.085999
 10
21.703171
 20
-10.626914
 10
21.772945
 20
-10.152108
 10
21.871964
 20
-9.662734
 10
21.997882
 20
-9.160142
 10
22.148059
 20
-8.645734
 10
22.319619
 20
-8.12088
 10
22.509513
 20
-7.58686
 10
22.714568
 20
-7.044852
 10
22.931523
 20
-6.495917
 10
23.157057
 20
-5.941004
 10
23.776159
 20
-4.438381
 10
9.327198000000001
 20
1.192015
 10
8.647396
 20
0.382538
 10
8.428188
 20
0.120944
 10
8.208904
 20
-0.141884
 10
7.989857
 20
-0.406157
 10
7.77136
 20
-0.672087
 10
7.553729
 20
-0.939891
 10
7.3372839999999995
 20
-1.209784
 10
7.122345
 20
-1.481988
 10
6.909237
 20
-1.756725
 10
6.69829
 20
-2.034216
 10
6.489835
 20
-2.314688
 10
6.284209
 20
-2.598364
 10
6.081752
 20
-2.885471
 10
5.882989
 20
-3.17597
 10
5.689173
 20
-3.468299
 10
5.500655
 20
-3.759997
 10
5.316538
 20
-4.049775
 10
5.135663
 20
-4.336829
 10
4.956914
 20
-4.620375
 10
4.779216
 20
-4.899652
 10
4.601534
 20
-5.173924
 10
4.4228760000000005
 20
-5.44248
 10
4.242284
 20
-5.704644
 10
4.058829
 20
-5.959781
 10
3.871604
 20
-6.207308
 10
3.679709
 20
-6.446703
 10
3.482225
 20
-6.677527
 10
3.2772390000000002
 20
-6.90048
 10
3.061699
 20
-7.118432
 10
2.834514
 20
-7.333939
 10
2.59655
 20
-7.547737
 10
2.348939
 20
-7.760412
 10
2.09287
 20
-7.972605
 10
1.8295730000000001
 20
-8.18501
 10
1.5603040000000001
 20
-8.398387
 10
1.5582500000000001
 20
-8.4
 10
-0.9999999999999998
 20
-8.4
 10
-0.9999999999999998
 20
-69.0
  0
LWPOLYLINE
  5
96
330
17
100
AcDbEntity
  8
COSTURA
100
AcDbPolyline
 90
77
 70
1
 10
0.0
 20
-9.4
 10
1.9040000000000001
 20
-9.4
 10
2.1796736768026315
 20
-9.183489070671316
 10
2.454057799388861
 20
-8.966058943868006
 10
2.725862813542281
 20
-8.746790422115449
 10
2.993799165046495
 20
-8.524764307939018
 10
3.2565772996850937
 20
-8.29906140386409
 10
3.512907663241676
 20
-8.06876251241604
 10
3.76150070149984
 20
-7.832948436120248
 10
4.001066860243181
 20
-7.590699977502084
 10
4.2304613315629895
 20
-7.341200191163548
 10
4.449964774599551
 20
-7.084639113979522
 10
4.660668484209882
 20
-6.821779434291723
 10
4.863673115942677
 20
-6.553390453046895
 10
5.060079325346626
 20
-6.280241471191783
 10
5.250987767970425
 20
-6.003101789673127
 10
5.437499099362765
 20
-5.722740709437676
 10
5.6207139750723405
 20
-5.43992753143217
 10
5.801733050647843
 20
-5.1554315566033555
 10
5.981656981637964
 20
-4.870022085897976
 10
6.161586423591398
 20
-4.584468420262777
 10
6.342622032056838
 20
-4.299539860644501
 10
6.525864462582975
 20
-4.016005707989893
 10
6.712414196770023
 20
-3.734635142964255
 10
6.903068403859835
 20
-3.4559876125990363
 10
7.097697641171434
 20
-3.1799818327441156
 10
7.2959961371493
 20
-2.906414591821779
 10
7.497658120237907
 20
-2.63508267825431
 10
7.702377818881736
 20
-2.365782880463993
 10
7.909849461525264
 20
-2.0983119868731146
 10
8.11976727661297
 20
-1.8324667859039574
 10
8.33182549258933
 20
-1.5680440659788077
 10
8.54571833789882
 20
-1.3048406155199501
 10
8.761140040985927
 20
-1.0426532229496683
 10
8.977784830295118
 20
-0.7812786766902476
 10
9.195346934270876
 20
-0.5205137651639731
 10
9.413520581357677
 20
-0.2601552767931289
 10
9.632000000000001
 20
-0.0
 10
22.463211945876356
 20
-5.0
 10
22.231549791040297
 20
-5.562267580940364
 10
22.003297848579397
 20
-6.123866169710792
 10
21.781866330868784
 20
-6.684126774141342
 10
21.570665450283624
 20
-7.2423804020620866
 10
21.37310541919906
 20
-7.797958061303079
 10
21.19259644999024
 20
-8.350190759694389
 10
21.032548755032312
 20
-8.898409505066075
 10
20.896372546700434
 20
-9.441945305248204
 10
20.78747803736975
 20
-9.980129168070835
 10
20.709275439415396
 20
-10.512292101364034
 10
20.665174965212543
 20
-11.037765112957864
 10
20.65858682713632
 20
-11.555879210682386
 10
20.69292123756189
 20
-12.065965402367665
 10
20.7715884088644
 20
-12.567354695843761
 10
20.897998553418994
 20
-13.05937809894074
 10
21.075057671217994
 20
-13.541447620396337
 10
21.300652301231743
 20
-14.013781637281662
 10
21.5697902234176
 20
-14.477060994669332
 10
21.877445083593216
 20
-14.931972021226558
 10
22.21859052757625
 20
-15.37920104562056
 10
22.58820020118435
 20
-15.819434396518549
 10
22.98124775023518
 20
-16.253358402587747
 10
23.392706820546397
 20
-16.68165939249535
 10
23.817551057935656
 20
-17.1050236949086
 10
24.250754108220605
 20
-17.524137638494693
 10
24.68728961721891
 20
-17.939687551920844
 10
25.12213123074822
 20
-18.352359763854277
 10
25.550579316783555
 20
-18.762815540544654
 10
25.971433593185225
 20
-19.17144771781536
 10
26.385617193187045
 20
-19.578486247150558
 10
26.794083070560433
 20
-19.984158792541027
 10
27.197784179076784
 20
-20.388693017977552
 10
27.597673472507513
 20
-20.79231658745092
 10
27.994703904624018
 20
-21.195257164951933
 10
28.389828429197713
 20
-21.597742414471355
 10
28.784000000000002
 20
-22.0
 10
28.784000000000002
 20
-68.0
 10
0.0
 20
-68.0
  0
LINE
  5
97
330
17
100
AcDbEntity
  8
HILO
100
AcDbLine
 10
13.904
 20
-12.4
 30
0.0
 11
13.904
 21
-65.0
 31
0.0
  0
LINE
  5
98
330
17
100
AcDbEntity
  8
HILO
100
AcDbLine
 10
13.904
 20
-65.0
 30
0.0
 11
14.37130201077038
 21
-63.89472680719654
 31
0.0
  0
LINE
  5
99
330
17
100
AcDbEntity
  8
HILO
100
AcDbLine
 10
13.904
 20
-65.0
 30
0.0
 11
13.436697989229618
 21
-63.89472680719654
 31
0.0
  0
LINE
  5
9A
330
17
100
AcDbEntity
  8
HILO
100
AcDbLine
 10
13.904
 20
-12.4
 30
0.0
 11
13.43669798922962
 21
-13.505273192803463
 31
0.0
  0
LINE
  5
9B
330
17
100
AcDbEntity
  8
HILO
100
AcDbLine
 10
13.904
 20
-12.4
 30
0.0
 11
14.37130201077038
 21
-13.505273192803463
 31
0.0
  0
LINE
  5
9C
330
17
100
AcDbEntity
  8
PIQUETES
100
AcDbLine
 10
18.892919175108133
 20
-11.730324540996483
 30
0.0
 11
18.54680440125822
 21
-12.27603926804975
 31
0.0
  0
LINE
  5
9D
330
17
100
AcDbEntity
  8
PIQUETES
100
AcDbLine
 10
18.421084253319698
 20
-11.642166690631926
 30
0.0
 11
18.54680440125822
 21
-12.27603926804975
 31
0.0
  0
LINE
  5
9E
330
17
100
AcDbEntity
  8
PIQUETES
100
AcDbLine
 10
25.807868893709088
 20
-42.91990636735503
 30
0.0
 11
25.354234081612425
 21
-42.45967223427272
 31
0.0
  0
LINE
  5
9F
330
17
100
AcDbEntity
  8
PIQUETES
100
AcDbLine
 10
26.00013110629091
 20
-42.48009363264497
 30
0.0
 11
25.354234081612425
 21
-42.45967223427272
 31
0.0
  0
CIRCLE
  5
A0
330
17
100
AcDbEntity
  8
CENTROS
100
AcDbCircle
 10
15.104000000000001
 20
-25.0
 30
0.0
 40
0.15
  0
LINE
  5
A1
330
17
100
AcDbEntity
  8
CONSTRUCCION
100
AcDbLine
 10
1.9040000000000001
 20
-9.4
 30
0.0
 11
1.9040000000000001
 21
-68.0
 31
0.0
  0
CIRCLE
  5
A2
330
17
100
AcDbEntity
  8
BOTONES
100
AcDbCircle
 10
1.9040000000000001
 20
-10.9
 30
0.0
 40
0.55
  0
CIRCLE
  5
A3
330
17
100
AcDbEntity
  8
BOTONES
100
AcDbCircle
 10
1.9040000000000001
 20
-19.416666666666668
 30
0.0
 40
0.55
  0
CIRCLE
  5
A4
330
17
100
AcDbEntity
  8
BOTONES
100
AcDbCircle
 10
1.9040000000000001
 20
-27.933333333333337
 30
0.0
 40
0.55
  0
CIRCLE
  5
A5
330
17
100
AcDbEntity
  8
BOTONES
100
AcDbCircle
 10
1.9040000000000001
 20
-36.45
 30
0.0
 40
0.55
  0
CIRCLE
  5
A6
330
17
100
AcDbEntity
  8
BOTONES
100
AcDbCircle
 10
1.9040000000000001
 20
-44.96666666666667
 30
0.0
 40
0.55
  0
CIRCLE
  5
A7
330
17
100
AcDbEntity
  8
BOTONES
100
AcDbCircle
 10
1.9040000000000001
 20
-53.483333333333334
 30
0.0
 40
0.55
  0
CIRCLE
  5
A8
330
17
100
AcDbEntity
  8
BOTONES
100
AcDbCircle
 10
1.9040000000000001
 20
-62.0
 30
0.0
 40
0.55
  0
LINE
  5
A9
330
17
100
AcDbEntity
  8
OJAL
100
AcDbLine
 10
1.104
 20
-10.9
 30
0.0
 11
2.704
 21
-10.9
 31
0.0
  0
LINE
  5
AA
330
17
100
AcDbEntity
  8
OJAL
100
AcDbLine
 10
1.104
 20
-19.416666666666668
 30
0.0
 11
2.704
 21
-19.416666666666668
 31
0.0
  0
LINE
  5
AB
330
17
100
AcDbEntity
  8
OJAL
100
AcDbLine
 10
1.104
 20
-27.933333333333337
 30
0.0
 11
2.704
 21
-27.933333333333337
 31
0.0
  0
LINE
  5
AC
330
17
100
AcDbEntity
  8
OJAL
100
AcDbLine
 10
1.104
 20
-36.45
 30
0.0
 11
2.704
 21
-36.45
 31
0.0
  0
LINE
  5
AD
330
17
100
AcDbEntity
  8
OJAL
100
AcDbLine
 10
1.104
 20
-44.96666666666667
 30
0.0
 11
2.704
 21
-44.96666666666667
 31
0.0
  0
LINE
  5
AE
330
17
100
AcDbEntity
  8
OJAL
100
AcDbLine
 10
1.104
 20
-53.483333333333334
 30
0.0
 11
2.704
 21
-53.483333333333334
 31
0.0
  0
LINE
  5
AF
330
17
100
AcDbEntity
  8
OJAL
100
AcDbLine
 10
1.104
 20
-62.0
 30
0.0
 11
2.704
 21
-62.0
 31
0.0
  0
TEXT
  5
B0
330
17
100
AcDbEntity
  8
REFERENCIAS
100
AcDbText
 10
1.9040000000000001
 20
-8.4
 30
0.0
 40
0.5
  1
CF
 11
1.9040000000000001
 21
-8.4
 31
0.0
100
AcDbText
  0
TEXT
  5
B1
330
17
100
AcDbEntity
  8
TEXTOS
100
AcDbText
 10
13.847139785438928
 20
-34.729396311888465
 30
0.0
 40
0.9
  1
DELANTERO (oversize)
 72
1
 11
13.847139785438928
 21
-34.729396311888465
 31
0.0
100
AcDbText
 73
2
  0
TEXT
  5
B2
330
17
100
AcDbEntity
  8
TEXTOS
100
AcDbText
 10
13.847139785438928
 20
-36.12939631188846
 30
0.0
 40
0.6
  1
Pieza N.01
 72
1
 11
13.847139785438928
 21
-36.12939631188846
 31
0.0
100
AcDbText
 73
2
  0
TEXT
  5
B3
330
17
100
AcDbEntity
  8
TEXTOS
100
AcDbText
 10
13.847139785438928
 20
-37.52939631188846
 30
0.0
 40
0.6
  1
Talla: S
 72
1
 11
13.847139785438928
 21
-37.52939631188846
 31
0.0
100
AcDbText
 73
2
  0
TEXT
  5
B4
330
17
100
AcDbEntity
  8
TEXTOS
100
AcDbText
 10
13.847139785438928
 20
-38.92939631188847
 30
0.0
 40
0.6
  1
Cortar: 2  (par: izq + der)
 72
1
 11
13.847139785438928
 21
-38.92939631188847
 31
0.0
100
AcDbText
 73
2
  0
LWPOLYLINE
  5
B5
330
17
100
AcDbEntity
  8
CORTE
100
AcDbPolyline
 90
31
 70
1
 10
62.664
 20
-11.6694
 10
62.143651000000006
 20
-10.968437999999999
 10
61.82048
 20
-10.532823
 10
61.497375000000005
 20
-10.096758000000001
 10
61.174279000000006
 20
-9.659894999999999
 10
60.851135000000006
 20
-9.221889999999998
 10
60.527885000000005
 20
-8.782394
 10
60.20447000000001
 20
-8.341059000000001
 10
59.88084400000001
 20
-7.897559000000001
 10
59.557445
 20
-7.4521809999999995
 10
59.23628600000001
 20
-7.005986
 10
58.920204000000005
 20
-6.559593
 10
58.611579000000006
 20
-6.112974999999999
 10
58.31274900000001
 20
-5.666129
 10
58.02602800000001
 20
-5.219105000000001
 10
57.753697
 20
-4.772012999999999
 10
57.49798200000001
 20
-4.325009
 10
57.261042
 20
-3.878291000000001
 10
57.044944
 20
-3.432079999999999
 10
56.851636000000006
 20
-2.9865910000000007
 10
56.682936000000005
 20
-2.5419929999999997
 10
56.54048800000001
 20
-2.0982920000000007
 10
56.42524900000001
 20
-1.6534200000000006
 10
56.336211000000006
 20
-1.202985
 10
56.27130400000001
 20
-0.7443849999999994
 10
56.22898400000001
 20
-0.2773640000000004
 10
56.17189900000001
 20
1.0
 10
34.784000000000006
 20
1.0
 10
34.784000000000006
 20
-59.0
 10
62.664
 20
-59.0
 10
62.664
 20
-11.6694
  0
LWPOLYLINE
  5
B6
330
17
100
AcDbEntity
  8
COSTURA
100
AcDbPolyline
 90
30
 70
1
 10
34.784000000000006
 20
-0.0
 10
55.215590386072805
 20
-0.0
 10
55.23100149807283
 20
-0.34484627035005033
 10
55.277651854574245
 20
-0.8596499941285689
 10
55.34990263798228
 20
-1.3701373864734219
 10
55.44988721720584
 20
-1.87594875309847
 10
55.57961038576091
 20
-2.376739492642356
 10
55.73875222045092
 20
-2.872437892464548
 10
55.92497313157236
 20
-3.3632093200842377
 10
56.135866342749765
 20
-3.8492270297815487
 10
56.36902507760774
 20
-4.330664275836616
 10
56.62204255977082
 20
-4.8076943125295735
 10
56.89251201286359
 20
-5.280490394140543
 10
57.17802666051061
 20
-5.749225774949659
 10
57.47617972633645
 20
-6.214073709237045
 10
57.78456443396567
 20
-6.675207451282841
 10
58.100774007022835
 20
-7.132800255367169
 10
58.422401669132526
 20
-7.5870253757701605
 10
58.747040643919284
 20
-8.038056066771947
 10
59.07235410386893
 20
-8.486070438993469
 10
59.39726650197787
 20
-8.931334169999925
 10
59.72179623564978
 20
-9.374188886654121
 10
60.045997971232815
 20
-9.814978733863533
 10
60.369926375075124
 20
-10.254047856535614
 10
60.69363611352486
 20
-10.691740399577839
 10
61.01718185293015
 20
-11.12840050789767
 10
61.34061825963916
 20
-11.564372326402566
 10
61.66400000000001
 20
-12.0
 10
61.66400000000001
 20
-58.0
 10
34.784000000000006
 20
-58.0
  0
LINE
  5
B7
330
17
100
AcDbEntity
  8
DOBLEZ
100
AcDbLine
 10
34.784000000000006
 20
-0.0
 30
0.0
 11
34.784000000000006
 21
-58.0
 31
0.0
  0
LINE
  5
B8
330
17
100
AcDbEntity
  8
HILO
100
AcDbLine
 10
35.284000000000006
 20
-3.0
 30
0.0
 11
35.284000000000006
 21
-55.0
 31
0.0
  0
LINE
  5
B9
330
17
100
AcDbEntity
  8
HILO
100
AcDbLine
 10
35.284000000000006
 20
-55.0
 30
0.0
 11
35.75130201077039
 21
-53.89472680719654
 31
0.0
  0
LINE
  5
BA
330
17
100
AcDbEntity
  8
HILO
100
AcDbLine
 10
35.284000000000006
 20
-55.0
 30
0.0
 11
34.816697989229624
 21
-53.89472680719654
 31
0.0
  0
LINE
  5
BB
330
17
100
AcDbEntity
  8
HILO
100
AcDbLine
 10
35.284000000000006
 20
-3.0
 30
0.0
 11
34.816697989229624
 21
-4.1052731928034625
 31
0.0
  0
LINE
  5
BC
330
17
100
AcDbEntity
  8
HILO
100
AcDbLine
 10
35.284000000000006
 20
-3.0
 30
0.0
 11
35.75130201077039
 21
-4.1052731928034625
 31
0.0
  0
LINE
  5
BD
330
17
100
AcDbEntity
  8
PIQUETES
100
AcDbLine
 10
44.1431354390357
 20
0.031756509572371215
 30
0.0
 11
43.98463698199915
 21
-0.5947243274186993
 31
0.0
  0
LINE
  5
BE
330
17
100
AcDbEntity
  8
PIQUETES
100
AcDbLine
 10
43.66735597710074
 20
-0.031756509572371215
 30
0.0
 11
43.98463698199915
 21
-0.5947243274186993
 31
0.0
  0
TEXT
  5
BF
330
17
100
AcDbEntity
  8
REFERENCIAS
100
AcDbText
 10
35.084
 20
-29.0
 30
0.0
 40
0.5
  1
CB
 11
35.084
 21
-29.0
 31
0.0
100
AcDbText
  0
TEXT
  5
C0
330
17
100
AcDbEntity
  8
TEXTOS
100
AcDbText
 10
47.8802344466714
 20
-26.17685565443159
 30
0.0
 40
0.9
  1
ESPALDA (oversize)
 72
1
 11
47.8802344466714
 21
-26.17685565443159
 31
0.0
100
AcDbText
 73
2
  0
TEXT
  5
C1
330
17
100
AcDbEntity
  8
TEXTOS
100
AcDbText
 10
47.8802344466714
 20
-27.57685565443159
 30
0.0
 40
0.6
  1
Pieza N.02
 72
1
 11
47.8802344466714
 21
-27.57685565443159
 31
0.0
100
AcDbText
 73
2
  0
TEXT
  5
C2
330
17
100
AcDbEntity
  8
TEXTOS
100
AcDbText
 10
47.8802344466714
 20
-28.97685565443159
 30
0.0
 40
0.6
  1
Talla: S
 72
1
 11
47.8802344466714
 21
-28.97685565443159
 31
0.0
100
AcDbText
 73
2
  0
TEXT
  5
C3
330
17
100
AcDbEntity
  8
TEXTOS
100
AcDbText
 10
47.8802344466714
 20
-30.376855654431594
 30
0.0
 40
0.6
  1
Cortar: 1  (al doblez)
 72
1
 11
47.8802344466714
 21
-30.376855654431594
 31
0.0
100
AcDbText
 73
2
  0
TEXT
  5
C4
330
17
100
AcDbEntity
  8
TEXTOS
100
AcDbText
 10
47.8802344466714
 20
-31.776855654431593
 30
0.0
 40
0.6
  1
AL DOBLEZ
 72
1
 11
47.8802344466714
 21
-31.776855654431593
 31
0.0
100
AcDbText
 73
2
  0
LWPOLYLINE
  5
C5
330
17
100
AcDbEntity
  8
CORTE
100
AcDbPolyline
 90
45
 70
1
 10
89.08773900000001
 20
-9.801983
 10
89.08602700000002
 20
-9.31846
 10
89.10224600000001
 20
-8.827138
 10
89.13472500000002
 20
-8.328443
 10
89.18171500000001
 20
-7.822853
 10
89.24139900000002
 20
-7.31087
 10
89.31189300000001
 20
-6.793001
 10
89.39125400000002
 20
-6.269741
 10
89.47748900000002
 20
-5.741565
 10
89.56856100000002
 20
-5.208919
 10
89.80923400000002
 20
-3.832286
 10
75.49839100000001
 20
1.098206
 10
74.86664400000002
 20
0.71507
 10
74.63874300000002
 20
0.578141
 10
74.41312200000002
 20
0.445106
 10
74.18917800000001
 20
0.316766
 10
73.96631500000001
 20
0.19387
 10
73.74392300000001
 20
0.077109
 10
73.52075300000001
 20
-0.033198
 10
73.29478900000001
 20
-0.137437
 10
73.06509800000002
 20
-0.23601
 10
72.83190800000001
 20
-0.328806
 10
72.59556200000002
 20
-0.415668
 10
72.35639900000001
 20
-0.496445
 10
72.11476400000002
 20
-0.570993
 10
71.87099800000001
 20
-0.639172
 10
71.62544800000002
 20
-0.700848
 10
71.37845700000001
 20
-0.755892
 10
71.13028300000002
 20
-0.8042
 10
70.88041100000001
 20
-0.845838
 10
70.62785100000002
 20
-0.881266
 10
70.37226200000002
 20
-0.910986
 10
70.11368300000001
 20
-0.93545
 10
69.85217700000001
 20
-0.95512
 10
69.58782000000002
 20
-0.970473
 10
69.32069800000002
 20
-0.981999
 10
69.05090400000002
 20
-0.9902
 10
68.77853600000002
 20
-0.995597
 10
68.50369000000002
 20
-0.998721
 10
68.22646600000002
 20
-1.000121
 10
67.94695800000001
 20
-1.000356
 10
67.66400000000002
 20
-0.999999
 10
67.66400000000002
 20
-11.0
 10
89.14127800000001
 20
-11.0
 10
89.08773900000001
 20
-9.801983
  0
LWPOLYLINE
  5
C6
330
17
100
AcDbEntity
  8
COSTURA
100
AcDbPolyline
 90
44
 70
1
 10
67.66400000000002
 20
-2.0
 10
67.94674882631904
 20
-2.000356362819071
 10
68.22941056646508
 20
-2.000118589548962
 10
68.51189813426515
 20
-1.9986925441004932
 10
68.7941244435463
 20
-1.9954840903844853
 10
69.07600240813551
 20
-1.9898990923117574
 10
69.35744494185981
 20
-1.9813434137931305
 10
69.63836495854623
 20
-1.9692229187394246
 10
69.91867537202178
 20
-1.95294347106146
 10
70.19828909611348
 20
-1.931910934670056
 10
70.47711904464835
 20
-1.9055311734760334
 10
70.7550781314534
 20
-1.8732100513902123
 10
71.03207927035567
 20
-1.834353432323413
 10
71.30803488224969
 20
-1.7883688169067025
 10
71.58279012867906
 20
-1.7348870319789147
 10
71.85605523347523
 20
-1.6739869480655807
 10
72.12752429803226
 20
-1.605800968215919
 10
72.3968914237442
 20
-1.5304614954791496
 10
72.66385071200511
 20
-1.4481009329044927
 10
72.92809626420907
 20
-1.3588516835411673
 10
73.18932218175014
 20
-1.2628461504383937
 10
73.44722256602236
 20
-1.1602167366453915
 10
73.70149151841981
 20
-1.0510958452113799
 10
73.95182314033654
 20
-0.9356158791855783
 10
74.19796647381685
 20
-0.8139548483733253
 10
74.44023367651103
 20
-0.6867582101985938
 10
74.67926727102503
 20
-0.5549456611761411
 10
74.91571397899489
 20
-0.419440383475511
 10
75.15022052205666
 20
-0.28116555926624787
 10
75.38343362184635
 20
-0.1410443707178966
 10
75.61600000000001
 20
-0.0
 10
88.6773322444535
 20
-4.5
 10
88.58318025296845
 20
-5.038543546663693
 10
88.49116163039228
 20
-5.576727399041247
 10
88.4034097456339
 20
-6.114191862846523
 10
88.32205796760216
 20
-6.650577243793381
 10
88.24923966520598
 20
-7.185523847595685
 10
88.18708820735421
 20
-7.718671979967294
 10
88.13773696295576
 20
-8.24966194662207
 10
88.10331930091951
 20
-8.77813405327387
 10
88.08596859015435
 20
-9.303728605636561
 10
88.08781819956917
 20
-9.826085909424
 10
88.09559038607281
 20
-10.0
 10
67.66400000000002
 20
-10.0
  0
LINE
  5
C7
330
17
100
AcDbEntity
  8
DOBLEZ
100
AcDbLine
 10
67.66400000000002
 20
-0.0
 30
0.0
 11
67.66400000000002
 21
-10.0
 31
0.0
  0
LINE
  5
C8
330
17
100
AcDbEntity
  8
HILO
100
AcDbLine
 10
71.92400000000002
 20
-1.0
 30
0.0
 11
71.92400000000002
 21
-9.5
 31
0.0
  0
LINE
  5
C9
330
17
100
AcDbEntity
  8
HILO
100
AcDbLine
 10
71.92400000000002
 20
-9.5
 30
0.0
 11
72.3913020107704
 21
-8.394726807196538
 31
0.0
  0
LINE
  5
CA
330
17
100
AcDbEntity
  8
HILO
100
AcDbLine
 10
71.92400000000002
 20
-9.5
 30
0.0
 11
71.45669798922964
 21
-8.394726807196538
 31
0.0
  0
LINE
  5
CB
330
17
100
AcDbEntity
  8
HILO
100
AcDbLine
 10
71.92400000000002
 20
-1.0
 30
0.0
 11
71.45669798922964
 21
-2.105273192803462
 31
0.0
  0
LINE
  5
CC
330
17
100
AcDbEntity
  8
HILO
100
AcDbLine
 10
71.92400000000002
 20
-1.0
 30
0.0
 11
72.3913020107704
 21
-2.105273192803462
 31
0.0
  0
LINE
  5
CD
330
17
100
AcDbEntity
  8
PIQUETES
100
AcDbLine
 10
76.54850169068195
 20
-9.96060113920683
 30
0.0
 11
76.88374286005116
 21
-9.408139956534272
 31
0.0
  0
LINE
  5
CE
330
17
100
AcDbEntity
  8
PIQUETES
100
AcDbLine
 10
77.02198972545452
 20
-10.03939886079317
 30
0.0
 11
76.88374286005116
 21
-9.408139956534272
 31
0.0
  0
TEXT
  5
CF
330
17
100
AcDbEntity
  8
TEXTOS
100
AcDbText
 10
77.47285139656711
 20
-2.268242639616991
 30
0.0
 40
0.9
  1
CANESU (oversize)
 72
1
 11
77.47285139656711
 21
-2.268242639616991
 31
0.0
100
AcDbText
 73
2
  0
TEXT
  5
D0
330
17
100
AcDbEntity
  8
TEXTOS
100
AcDbText
 10
77.47285139656711
 20
-3.6682426396169907
 30
0.0
 40
0.6
  1
Pieza N.03
 72
1
 11
77.47285139656711
 21
-3.6682426396169907
 31
0.0
100
AcDbText
 73
2
  0
TEXT
  5
D1
330
17
100
AcDbEntity
  8
TEXTOS
100
AcDbText
 10
77.47285139656711
 20
-5.06824263961699
 30
0.0
 40
0.6
  1
Talla: S
 72
1
 11
77.47285139656711
 21
-5.06824263961699
 31
0.0
100
AcDbText
 73
2
  0
TEXT
  5
D2
330
17
100
AcDbEntity
  8
TEXTOS
100
AcDbText
 10
77.47285139656711
 20
-6.4682426396169905
 30
0.0
 40
0.6
  1
Cortar: 2  (al doblez x2 (exterior+interior))
 72
1
 11
77.47285139656711
 21
-6.4682426396169905
 31
0.0
100
AcDbText
 73
2
  0
TEXT
  5
D3
330
17
100
AcDbEntity
  8
TEXTOS
100
AcDbText
 10
77.47285139656711
 20
-7.868242639616991
 30
0.0
 40
0.6
  1
AL DOBLEZ
 72
1
 11
77.47285139656711
 21
-7.868242639616991
 31
0.0
100
AcDbText
 73
2
  0
LWPOLYLINE
  5
D4
330
17
100
AcDbEntity
  8
CORTE
100
AcDbPolyline
 90
68
 70
1
 10
98.80366093886249
 20
-61.0
 10
127.4928829388625
 20
-61.0
 10
132.6618319388625
 20
-9.525651
 10
131.8591439388625
 20
-8.729529
 10
131.38816093886248
 20
-8.267701
 10
130.90772793886248
 20
-7.807245
 10
130.4155879388625
 20
-7.351464
 10
129.9119279388625
 20
-6.904597
 10
129.39910293886248
 20
-6.46825
 10
128.8781739388625
 20
-6.041867
 10
128.34980693886249
 20
-5.624549
 10
127.8146569388625
 20
-5.215404
 10
127.2733669388625
 20
-4.813535
 10
126.7265709388625
 20
-4.418054
 10
126.1748939388625
 20
-4.028073
 10
125.6189499388625
 20
-3.64271
 10
125.05868393886249
 20
-3.26064
 10
124.49208393886249
 20
-2.880566
 10
123.9166039388625
 20
-2.503991
 10
123.33106393886248
 20
-2.133871
 10
122.73446493886249
 20
-1.773349
 10
122.1257729388625
 20
-1.425623
 10
121.5039359388625
 20
-1.093956
 10
120.86790793886249
 20
-0.781688
 10
120.21667193886249
 20
-0.492249
 10
119.5492849388625
 20
-0.229166
 10
118.8663169388625
 20
0.00348
 10
118.1724449388625
 20
0.202874
 10
117.4730509388625
 20
0.371781
 10
116.77031793886249
 20
0.514709
 10
116.06583093886249
 20
0.636185
 10
115.3610949388625
 20
0.740608
 10
114.65758293886249
 20
0.832254
 10
113.9567749388625
 20
0.915277
 10
113.17172093886249
 20
1.00368
 10
112.37155993886249
 20
0.951261
 10
111.6560279388625
 20
0.900388
 10
110.9376199388625
 20
0.841234
 10
110.21762293886249
 20
0.76969
 10
109.4973119388625
 20
0.681532
 10
108.77797893886249
 20
0.572421
 10
108.06097993886249
 20
0.437894
 10
107.34786393886249
 20
0.273392
 10
106.64254893886249
 20
0.075017
 10
105.95042193886249
 20
-0.156794
 10
105.2735519388625
 20
-0.418107
 10
104.6113759388625
 20
-0.705535
 10
103.9631169388625
 20
-1.015812
 10
103.32794493886249
 20
-1.345754
 10
102.7050019388625
 20
-1.692252
 10
102.0934299388625
 20
-2.052264
 10
101.49238393886249
 20
-2.422805
 10
100.9010459388625
 20
-2.800934
 10
100.31780293886249
 20
-3.184297
 10
99.7397299388625
 20
-3.573175
 10
99.16640893886249
 20
-3.970606
 10
98.5998769388625
 20
-4.378766
 10
98.0425319388625
 20
-4.799666
 10
97.49681793886249
 20
-5.235374
 10
96.9652449388625
 20
-5.688
 10
96.45041193886249
 20
-6.159691
 10
95.9550359388625
 20
-6.652596
 10
95.4825129388625
 20
-7.168248
 10
95.0390919388625
 20
-7.702909
 10
94.62503893886249
 20
-8.246006
 10
94.2338869388625
 20
-8.789273
 10
93.64527193886249
 20
-9.630819
 10
98.80366093886249
 20
-61.0
  0
LWPOLYLINE
  5
D5
330
17
100
AcDbEntity
  8
COSTURA
100
AcDbPolyline
 90
67
 70
1
 10
94.6773322444535
 20
-9.9
 10
95.04941472547497
 20
-9.368030985769025
 10
95.42857904510527
 20
-8.84141406878231
 10
95.82190704195318
 20
-8.325501346284105
 10
96.23646947234073
 20
-7.825636603203356
 10
96.67672095521726
 20
-7.345201379750659
 10
97.14114241433234
 20
-6.883096621204111
 10
97.62738486626905
 20
-6.437600797519527
 10
98.13309932761048
 20
-6.006992378652719
 10
98.65593681493971
 20
-5.589549834559495
 10
99.1935483448398
 20
-5.183551635195668
 10
99.74358493389384
 20
-4.78727625051705
 10
100.3036975986849
 20
-4.399002150479453
 10
100.87153735579606
 20
-4.017007805038686
 10
101.44506249285122
 20
-3.6400320528100965
 10
102.02417247313633
 20
-3.269722097724244
 10
102.60952267507068
 20
-2.908857693123902
 10
103.20177018086363
 20
-2.5602211450542884
 10
103.80157207272454
 20
-2.2265947595606237
 10
104.40958543286274
 20
-1.9107608426881288
 10
105.02646734348758
 20
-1.6155017004820236
 10
105.65287488680842
 20
-1.343599638987529
 10
106.2894651450346
 20
-1.0978369642498653
 10
106.93689520037545
 20
-0.8809959823142517
 10
107.59576820445665
 20
-0.6956832284719642
 10
108.26565871902632
 20
-0.5411528541558391
 10
108.94521821448842
 20
-0.4136504681425659
 10
109.63306540785831
 20
-0.3093149292460229
 10
110.32781901615135
 20
-0.2242850962800881
 10
111.02809775638292
 20
-0.1546998280586402
 10
111.73252034556839
 20
-0.09669798339555731
 10
112.43970550072312
 20
-0.04641842110471781
 10
113.1482719388625
 20
-0.0
 10
113.84200126658898
 20
-0.07811885473164337
 10
114.53416772227908
 20
-0.1601183756929348
 10
115.22320843389642
 20
-0.24987922911352234
 10
115.90756052940459
 20
-0.35128208122305404
 10
116.58566113676724
 20
-0.46820759825117786
 10
117.25594738394798
 20
-0.6045364464275419
 10
117.91685639891041
 20
-0.764149291981794
 10
118.56682530961817
 20
-0.9509268011435831
 10
119.20450304892283
 20
-1.1681450005706062
 10
119.83005915029501
 20
-1.4147390571978877
 10
120.44432755218082
 20
-1.687747460580514
 10
121.0481449768825
 20
-1.9842007531974761
 10
121.64234814670228
 20
-2.301129477527764
 10
122.22777378394235
 20
-2.6355641760503685
 10
122.805258610905
 20
-2.9845353912442807
 10
123.37563934989244
 20
-3.3450736655884907
 10
123.93975272320688
 20
-3.714209541561989
 10
124.49843545315056
 20
-4.088973561643766
 10
125.05239365695402
 20
-4.466741623983247
 10
125.60141866289807
 20
-4.847308579890489
 10
126.14491073469192
 20
-5.231503362779292
 10
126.68226866289044
 20
-5.620158801488009
 10
127.2128912380485
 20
-6.014107724854993
 10
127.73617725072097
 20
-6.414182961718596
 10
128.25152549146273
 20
-6.82121734091717
 10
128.75833475082862
 20
-7.2360436912890655
 10
129.25600381937352
 20
-7.65949484167264
 10
129.74393148765233
 20
-8.092403620906243
 10
130.22196651828384
 20
-8.535122022952523
 10
130.69210302079833
 20
-8.985709549199232
 10
131.1569737662905
 20
-9.441543234768883
 10
131.6192116332715
 20
-9.9
 10
126.58827193886249
 20
-60.0
 10
99.7082719388625
 20
-60.0
  0
LINE
  5
D6
330
17
100
AcDbEntity
  8
HILO
100
AcDbLine
 10
113.1482719388625
 20
-3.9600000000000004
 30
0.0
 11
113.1482719388625
 21
-58.0
 31
0.0
  0
LINE
  5
D7
330
17
100
AcDbEntity
  8
HILO
100
AcDbLine
 10
113.1482719388625
 20
-58.0
 30
0.0
 11
113.61557394963287
 21
-56.89472680719654
 31
0.0
  0
LINE
  5
D8
330
17
100
AcDbEntity
  8
HILO
100
AcDbLine
 10
113.1482719388625
 20
-58.0
 30
0.0
 11
112.68096992809211
 21
-56.89472680719654
 31
0.0
  0
LINE
  5
D9
330
17
100
AcDbEntity
  8
HILO
100
AcDbLine
 10
113.1482719388625
 20
-3.9600000000000004
 30
0.0
 11
112.68096992809211
 21
-5.065273192803462
 31
0.0
  0
LINE
  5
DA
330
17
100
AcDbEntity
  8
HILO
100
AcDbLine
 10
113.1482719388625
 20
-3.9600000000000004
 30
0.0
 11
113.61557394963287
 21
-5.065273192803462
 31
0.0
  0
LINE
  5
DB
330
17
100
AcDbEntity
  8
PIQUETES
100
AcDbLine
 10
121.46777011047372
 20
-2.6930670358012048
 30
0.0
 11
121.06646908722354
 21
-3.1995820787548745
 31
0.0
  0
LINE
  5
DC
330
17
100
AcDbEntity
  8
PIQUETES
100
AcDbLine
 10
121.00774566064355
 20
-2.556035997133127
 30
0.0
 11
121.06646908722354
 21
-3.1995820787548745
 31
0.0
  0
LINE
  5
DD
330
17
100
AcDbEntity
  8
PIQUETES
100
AcDbLine
 10
104.89177716417824
 20
-2.2442228550180703
 30
0.0
 11
104.83740492196311
 21
-2.8881511579187116
 31
0.0
  0
LINE
  5
DE
330
17
100
AcDbEntity
  8
PIQUETES
100
AcDbLine
 10
104.43268944018742
 20
-2.3843601508422996
 30
0.0
 11
104.83740492196311
 21
-2.8881511579187116
 31
0.0
  0
LINE
  5
DF
330
17
100
AcDbEntity
  8
PIQUETES
100
AcDbLine
 10
103.55774664055215
 20
-3.107178411995436
 30
0.0
 11
103.53798101160638
 21
-3.753095836990596
 31
0.0
  0
LINE
  5
E0
330
17
100
AcDbEntity
  8
PIQUETES
100
AcDbLine
 10
103.10683376015666
 20
-3.271731060997012
 30
0.0
 11
103.53798101160638
 21
-3.753095836990596
 31
0.0
  0
CIRCLE
  5
E1
330
17
100
AcDbEntity
  8
CENTROS
100
AcDbCircle
 10
117.27124954922164
 20
-48.0
 30
0.0
 40
0.15
  0
LINE
  5
E2
330
17
100
AcDbEntity
  8
CONSTRUCCION
100
AcDbLine
 10
117.27124954922164
 20
-60.0
 30
0.0
 11
117.27124954922164
 21
-48.0
 31
0.0
  0
TEXT
  5
E3
330
17
100
AcDbEntity
  8
TEXTOS
100
AcDbText
 10
113.09809766281337
 20
-27.250059315053058
 30
0.0
 40
0.9
  1
MANGA (oversize)
 72
1
 11
113.09809766281337
 21
-27.250059315053058
 31
0.0
100
AcDbText
 73
2
  0
TEXT
  5
E4
330
17
100
AcDbEntity
  8
TEXTOS
100
AcDbText
 10
113.09809766281337
 20
-28.650059315053056
 30
0.0
 40
0.6
  1
Pieza N.04
 72
1
 11
113.09809766281337
 21
-28.650059315053056
 31
0.0
100
AcDbText
 73
2
  0
TEXT
  5
E5
330
17
100
AcDbEntity
  8
TEXTOS
100
AcDbText
 10
113.09809766281337
 20
-30.05005931505306
 30
0.0
 40
0.6
  1
Talla: S
 72
1
 11
113.09809766281337
 21
-30.05005931505306
 31
0.0
100
AcDbText
 73
2
  0
TEXT
  5
E6
330
17
100
AcDbEntity
  8
TEXTOS
100
AcDbText
 10
113.09809766281337
 20
-31.450059315053057
 30
0.0
 40
0.6
  1
Cortar: 2  (par: izq + der)
 72
1
 11
113.09809766281337
 21
-31.450059315053057
 31
0.0
100
AcDbText
 73
2
  0
LWPOLYLINE
  5
E7
330
17
100
AcDbEntity
  8
CORTE
100
AcDbPolyline
 90
37
 70
1
 10
136.6192116332715
 20
-11.249127
 10
136.6490526332715
 20
-11.552107
 10
136.7517586332715
 20
-11.890682
 10
136.9185436332715
 20
-12.202715
 10
137.1429976332715
 20
-12.476214
 10
137.4164966332715
 20
-12.700668
 10
137.7285296332715
 20
-12.867453
 10
138.0671046332715
 20
-12.970159
 10
138.37008463327152
 20
-13.0
 10
159.8683386332715
 20
-13.0
 10
160.1713186332715
 20
-12.970159
 10
160.5098936332715
 20
-12.867453
 10
160.82192663327152
 20
-12.700668
 10
161.0954256332715
 20
-12.476214
 10
161.3198796332715
 20
-12.202715
 10
161.48666463327152
 20
-11.890682
 10
161.5893706332715
 20
-11.552107
 10
161.6192116332715
 20
-11.249127
 10
161.6192116332715
 20
-0.750873
 10
161.5893706332715
 20
-0.447893
 10
161.48666463327152
 20
-0.109318
 10
161.3198796332715
 20
0.202715
 10
161.0954256332715
 20
0.476214
 10
160.82192663327152
 20
0.700668
 10
160.5098936332715
 20
0.867453
 10
160.1713186332715
 20
0.970159
 10
159.8683386332715
 20
1.0
 10
138.37008463327152
 20
1.0
 10
138.0671046332715
 20
0.970159
 10
137.7285296332715
 20
0.867453
 10
137.4164966332715
 20
0.700668
 10
137.1429976332715
 20
0.476214
 10
136.9185436332715
 20
0.202715
 10
136.7517586332715
 20
-0.109318
 10
136.6490526332715
 20
-0.447893
 10
136.6192116332715
 20
-0.750873
 10
136.6192116332715
 20
-11.249127
  0
LWPOLYLINE
  5
E8
330
17
100
AcDbEntity
  8
COSTURA
100
AcDbPolyline
 90
36
 70
1
 10
137.6192116332715
 20
-0.8000000000000002
 10
137.6345834089489
 20
-0.6439277423870974
 10
137.68010800726248
 20
-0.4938532541079283
 10
137.75403594342947
 20
-0.35554381358431847
 10
137.85352620832228
 20
-0.23431457505076203
 10
137.97475544685582
 20
-0.1348243101579638
 10
138.11306488737944
 20
-0.06089637399097081
 10
138.2631393756586
 20
-0.015371775677415767
 10
138.41921163327152
 20
-0.0
 10
159.8192116332715
 20
-0.0
 10
159.9752838908844
 20
-0.015371775677415656
 10
160.12535837916357
 20
-0.06089637399097059
 10
160.26366781968719
 20
-0.13482431015796392
 10
160.38489705822073
 20
-0.23431457505076203
 10
160.48438732311354
 20
-0.35554381358431836
 10
160.55831525928053
 20
-0.49385325410792835
 10
160.6038398575941
 20
-0.6439277423870976
 10
160.6192116332715
 20
-0.8000000000000003
 10
160.6192116332715
 20
-11.2
 10
160.6038398575941
 20
-11.356072257612903
 10
160.55831525928053
 20
-11.506146745892071
 10
160.48438732311354
 20
-11.644456186415681
 10
160.38489705822073
 20
-11.765685424949238
 10
160.26366781968719
 20
-11.865175689842035
 10
160.12535837916357
 20
-11.939103626009029
 10
159.9752838908844
 20
-11.984628224322584
 10
159.8192116332715
 20
-12.0
 10
138.41921163327152
 20
-12.0
 10
138.2631393756586
 20
-11.984628224322584
 10
138.11306488737944
 20
-11.939103626009029
 10
137.97475544685582
 20
-11.865175689842037
 10
137.85352620832228
 20
-11.765685424949238
 10
137.75403594342947
 20
-11.644456186415681
 10
137.68010800726248
 20
-11.506146745892071
 10
137.6345834089489
 20
-11.356072257612903
 10
137.6192116332715
 20
-11.2
  0
LINE
  5
E9
330
17
100
AcDbEntity
  8
HILO
100
AcDbLine
 10
149.1192116332715
 20
-0.5
 30
0.0
 11
149.1192116332715
 21
-11.5
 31
0.0
  0
LINE
  5
EA
330
17
100
AcDbEntity
  8
HILO
100
AcDbLine
 10
149.1192116332715
 20
-11.5
 30
0.0
 11
149.58651364404187
 21
-10.394726807196538
 31
0.0
  0
LINE
  5
EB
330
17
100
AcDbEntity
  8
HILO
100
AcDbLine
 10
149.1192116332715
 20
-11.5
 30
0.0
 11
148.65190962250114
 21
-10.394726807196538
 31
0.0
  0
LINE
  5
EC
330
17
100
AcDbEntity
  8
HILO
100
AcDbLine
 10
149.1192116332715
 20
-0.5
 30
0.0
 11
148.65190962250114
 21
-1.605273192803462
 31
0.0
  0
LINE
  5
ED
330
17
100
AcDbEntity
  8
HILO
100
AcDbLine
 10
149.1192116332715
 20
-0.5
 30
0.0
 11
149.58651364404187
 21
-1.605273192803462
 31
0.0
  0
LINE
  5
EE
330
17
100
AcDbEntity
  8
CONSTRUCCION
100
AcDbLine
 10
137.6192116332715
 20
-6.0
 30
0.0
 11
160.6192116332715
 21
-6.0
 31
0.0
  0
CIRCLE
  5
EF
330
17
100
AcDbEntity
  8
BOTONES
100
AcDbCircle
 10
138.8192116332715
 20
-6.0
 30
0.0
 40
0.55
  0
LINE
  5
F0
330
17
100
AcDbEntity
  8
OJAL
100
AcDbLine
 10
159.41921163327152
 20
-5.2
 30
0.0
 11
159.41921163327152
 21
-6.8
 31
0.0
  0
TEXT
  5
F1
330
17
100
AcDbEntity
  8
REFERENCIAS
100
AcDbText
 10
149.1192116332715
 20
-5.2
 30
0.0
 40
0.5
  1
DOBLEZ
 11
149.1192116332715
 21
-5.2
 31
0.0
100
AcDbText
  0
TEXT
  5
F2
330
17
100
AcDbEntity
  8
TEXTOS
100
AcDbText
 10
149.1192116332715
 20
-3.3000000000000034
 30
0.0
 40
0.9
  1
PUNO
 72
1
 11
149.1192116332715
 21
-3.3000000000000034
 31
0.0
100
AcDbText
 73
2
  0
TEXT
  5
F3
330
17
100
AcDbEntity
  8
TEXTOS
100
AcDbText
 10
149.1192116332715
 20
-4.700000000000003
 30
0.0
 40
0.6
  1
Pieza N.05
 72
1
 11
149.1192116332715
 21
-4.700000000000003
 31
0.0
100
AcDbText
 73
2
  0
TEXT
  5
F4
330
17
100
AcDbEntity
  8
TEXTOS
100
AcDbText
 10
149.1192116332715
 20
-6.100000000000003
 30
0.0
 40
0.6
  1
Talla: S
 72
1
 11
149.1192116332715
 21
-6.100000000000003
 31
0.0
100
AcDbText
 73
2
  0
TEXT
  5
F5
330
17
100
AcDbEntity
  8
TEXTOS
100
AcDbText
 10
149.1192116332715
 20
-7.500000000000003
 30
0.0
 40
0.6
  1
Cortar: 4  (4 (2 tela + 2 entretela))
 72
1
 11
149.1192116332715
 21
-7.500000000000003
 31
0.0
100
AcDbText
 73
2
  0
LWPOLYLINE
  5
F6
330
17
100
AcDbEntity
  8
CORTE
100
AcDbPolyline
 90
37
 70
1
 10
-1.0
 20
-76.649127
 10
-0.977845
 20
-76.87407
 10
-0.897902
 20
-77.137608
 10
-0.768081
 20
-77.380486
 10
-0.593371
 20
-77.593371
 10
-0.380486
 20
-77.768081
 10
-0.137608
 20
-77.897902
 10
0.12593
 20
-77.977845
 10
0.350873
 20
-78.0
 10
11.649127
 20
-78.0
 10
11.87407
 20
-77.977845
 10
12.137608
 20
-77.897902
 10
12.380486
 20
-77.768081
 10
12.593371
 20
-77.593371
 10
12.768081
 20
-77.380486
 10
12.897902
 20
-77.137608
 10
12.977845
 20
-76.87407
 10
13.0
 20
-76.649127
 10
13.0
 20
-74.350873
 10
12.977845
 20
-74.12593
 10
12.897902
 20
-73.862392
 10
12.768081
 20
-73.619514
 10
12.593371
 20
-73.406629
 10
12.380486
 20
-73.231919
 10
12.137608
 20
-73.102098
 10
11.87407
 20
-73.022155
 10
11.649127
 20
-73.0
 10
0.350873
 20
-73.0
 10
0.12593
 20
-73.022155
 10
-0.137608
 20
-73.102098
 10
-0.380486
 20
-73.231919
 10
-0.593371
 20
-73.406629
 10
-0.768081
 20
-73.619514
 10
-0.897902
 20
-73.862392
 10
-0.977845
 20
-74.12593
 10
-1.0
 20
-74.350873
 10
-1.0
 20
-76.649127
  0
LWPOLYLINE
  5
F7
330
17
100
AcDbEntity
  8
COSTURA
100
AcDbPolyline
 90
36
 70
1
 10
0.0
 20
-74.4
 10
0.007685887838707828
 20
-74.32196387119355
 10
0.030448186995485238
 20
-74.24692662705397
 10
0.0674121550789818
 20
-74.17777190679216
 10
0.11715728752538096
 20
-74.11715728752539
 10
0.17777190679215915
 20
-74.06741215507898
 10
0.24692662705396387
 20
-74.03044818699549
 10
0.3219638711935485
 20
-74.0076858878387
 10
0.39999999999999997
 20
-74.0
 10
11.6
 20
-74.0
 10
11.67803612880645
 20
-74.0076858878387
 10
11.753073372946035
 20
-74.03044818699549
 10
11.82222809320784
 20
-74.06741215507898
 10
11.882842712474618
 20
-74.11715728752539
 10
11.932587844921018
 20
-74.17777190679216
 10
11.969551813004514
 20
-74.24692662705397
 10
11.992314112161292
 20
-74.32196387119355
 10
12.0
 20
-74.4
 10
12.0
 20
-76.6
 10
11.992314112161292
 20
-76.67803612880645
 10
11.969551813004514
 20
-76.75307337294603
 10
11.932587844921018
 20
-76.82222809320784
 10
11.882842712474618
 20
-76.88284271247461
 10
11.82222809320784
 20
-76.93258784492102
 10
11.753073372946035
 20
-76.96955181300451
 10
11.67803612880645
 20
-76.9923141121613
 10
11.6
 20
-77.0
 10
0.4
 20
-77.0
 10
0.32196387119354875
 20
-76.9923141121613
 10
0.24692662705396412
 20
-76.96955181300451
 10
0.17777190679215923
 20
-76.93258784492102
 10
0.11715728752538102
 20
-76.88284271247461
 10
0.06741215507898185
 20
-76.82222809320784
 10
0.030448186995485294
 20
-76.75307337294603
 10
0.007685887838707828
 20
-76.67803612880645
 10
0.0
 20
-76.6
  0
LINE
  5
F8
330
17
100
AcDbEntity
  8
HILO
100
AcDbLine
 10
6.0
 20
-74.4
 30
0.0
 11
6.0
 21
-76.6
 31
0.0
  0
LINE
  5
F9
330
17
100
AcDbEntity
  8
HILO
100
AcDbLine
 10
6.0
 20
-76.6
 30
0.0
 11
6.467302010770381
 21
-75.49472680719654
 31
0.0
  0
LINE
  5
FA
330
17
100
AcDbEntity
  8
HILO
100
AcDbLine
 10
6.0
 20
-76.6
 30
0.0
 11
5.532697989229619
 21
-75.49472680719654
 31
0.0
  0
LINE
  5
FB
330
17
100
AcDbEntity
  8
HILO
100
AcDbLine
 10
6.0
 20
-74.4
 30
0.0
 11
5.53269798922962
 21
-75.50527319280346
 31
0.0
  0
LINE
  5
FC
330
17
100
AcDbEntity
  8
HILO
100
AcDbLine
 10
6.0
 20
-74.4
 30
0.0
 11
6.46730201077038
 21
-75.50527319280346
 31
0.0
  0
TEXT
  5
FD
330
17
100
AcDbEntity
  8
TEXTOS
100
AcDbText
 10
5.9999999999999964
 20
-72.8
 30
0.0
 40
0.9
  1
TAPETA MANGA
 72
1
 11
5.9999999999999964
 21
-72.8
 31
0.0
100
AcDbText
 73
2
  0
TEXT
  5
FE
330
17
100
AcDbEntity
  8
TEXTOS
100
AcDbText
 10
5.9999999999999964
 20
-74.2
 30
0.0
 40
0.6
  1
Pieza N.06
 72
1
 11
5.9999999999999964
 21
-74.2
 31
0.0
100
AcDbText
 73
2
  0
TEXT
  5
FF
330
17
100
AcDbEntity
  8
TEXTOS
100
AcDbText
 10
5.9999999999999964
 20
-75.6
 30
0.0
 40
0.6
  1
Talla: S
 72
1
 11
5.9999999999999964
 21
-75.6
 31
0.0
100
AcDbText
 73
2
  0
TEXT
  5
100
330
17
100
AcDbEntity
  8
TEXTOS
100
AcDbText
 10
5.9999999999999964
 20
-77.0
 30
0.0
 40
0.6
  1
Cortar: 2  (par)
 72
1
 11
5.9999999999999964
 21
-77.0
 31
0.0
100
AcDbText
 73
2
  0
LWPOLYLINE
  5
101
330
17
100
AcDbEntity
  8
CORTE
100
AcDbPolyline
 90
84
 70
1
 10
18.77951
 20
-79.672996
 10
19.271
 20
-79.762293
 10
19.762543
 20
-79.846496
 10
20.254136
 20
-79.92560399999999
 10
20.745777
 20
-79.999615
 10
21.237462
 20
-80.068528
 10
21.729188999999998
 20
-80.132342
 10
22.220955
 20
-80.191055
 10
22.712756
 20
-80.24466699999999
 10
23.20459
 20
-80.293176
 10
23.696454
 20
-80.33658199999999
 10
24.188344
 20
-80.374883
 10
24.680257
 20
-80.408079
 10
25.17219
 20
-80.436169
 10
25.66414
 20
-80.459152
 10
26.156103
 20
-80.477029
 10
26.648077
 20
-80.48979800000001
 10
27.140057
 20
-80.49746
 10
27.63204
 20
-80.500013
 10
28.124023
 20
-80.49746
 10
28.616003
 20
-80.48979800000001
 10
29.107976999999998
 20
-80.477029
 10
29.59994
 20
-80.459152
 10
30.09189
 20
-80.436169
 10
30.583823000000002
 20
-80.408079
 10
31.075736
 20
-80.374883
 10
31.567626
 20
-80.33658199999999
 10
32.05949
 20
-80.293176
 10
32.551324
 20
-80.24466699999999
 10
33.043125
 20
-80.191055
 10
33.534891
 20
-80.132342
 10
34.026618
 20
-80.068528
 10
34.518303
 20
-79.999615
 10
35.009944000000004
 20
-79.92560399999999
 10
35.501537
 20
-79.846496
 10
35.99308
 20
-79.762293
 10
36.484570000000005
 20
-79.672996
 10
36.768919
 20
-79.618382
 10
38.820640999999995
 20
-83.037919
 10
39.875859
 20
-82.638936
 10
38.062767
 20
-72.818019
 10
36.588951
 20
-73.116392
 10
36.117182
 20
-73.207004
 10
35.645468
 20
-73.29270700000001
 10
35.173807
 20
-73.373504
 10
34.702196
 20
-73.449396
 10
34.230633
 20
-73.520385
 10
33.759114
 20
-73.586472
 10
33.287637000000004
 20
-73.647658
 10
32.816199
 20
-73.703945
 10
32.344796
 20
-73.755333
 10
31.873426000000002
 20
-73.801824
 10
31.402086
 20
-73.843418
 10
30.930771999999997
 20
-73.880117
 10
30.459481
 20
-73.911921
 10
29.988210000000002
 20
-73.938831
 10
29.516956
 20
-73.960848
 10
29.045715
 20
-73.977971
 10
28.574485
 20
-73.990202
 10
28.103261
 20
-73.99754
 10
27.63204
 20
-73.999987
 10
27.160819
 20
-73.99754
 10
26.689595
 20
-73.990202
 10
26.218365
 20
-73.977971
 10
25.747124
 20
-73.960848
 10
25.27587
 20
-73.938831
 10
24.804599
 20
-73.911921
 10
24.333308
 20
-73.880117
 10
23.861994
 20
-73.843418
 10
23.390653999999998
 20
-73.801824
 10
22.919284
 20
-73.755333
 10
22.447881
 20
-73.703945
 10
21.976443
 20
-73.647658
 10
21.504966
 20
-73.586472
 10
21.033447
 20
-73.520385
 10
20.561884
 20
-73.449396
 10
20.090273
 20
-73.373504
 10
19.618612
 20
-73.29270700000001
 10
19.146898
 20
-73.207004
 10
18.675129
 20
-73.116392
 10
18.0
 20
-72.979713
 10
18.0
 20
-79.520287
 10
18.288075
 20
-79.578608
 10
18.77951
 20
-79.672996
  0
LWPOLYLINE
  5
102
330
17
100
AcDbEntity
  8
COSTURA
100
AcDbPolyline
 90
83
 70
1
 10
18.0
 20
-74.0
 10
18.48160200005828
 20
-74.0975
 10
18.963204000116562
 20
-74.19
 10
19.44480600017484
 20
-74.2775
 10
19.92640800023312
 20
-74.36
 10
20.4080100002914
 20
-74.4375
 10
20.88961200034968
 20
-74.51
 10
21.37121400040796
 20
-74.5775
 10
21.85281600046624
 20
-74.64
 10
22.334418000524522
 20
-74.6975
 10
22.816020000582803
 20
-74.75
 10
23.29762200064108
 20
-74.7975
 10
23.77922400069936
 20
-74.84
 10
24.260826000757643
 20
-74.8775
 10
24.74242800081592
 20
-74.91
 10
25.2240300008742
 20
-74.9375
 10
25.705632000932482
 20
-74.96
 10
26.187234000990763
 20
-74.9775
 10
26.668836001049044
 20
-74.99
 10
27.15043800110732
 20
-74.9975
 10
27.632040001165603
 20
-75.0
 10
28.113642001223884
 20
-74.9975
 10
28.59524400128216
 20
-74.99
 10
29.076846001340442
 20
-74.9775
 10
29.558448001398723
 20
-74.96
 10
30.040050001457004
 20
-74.9375
 10
30.521652001515285
 20
-74.91
 10
31.003254001573566
 20
-74.8775
 10
31.484856001631844
 20
-74.84
 10
31.96645800169012
 20
-74.7975
 10
32.4480600017484
 20
-74.75
 10
32.92966200180668
 20
-74.6975
 10
33.411264001864964
 20
-74.64
 10
33.892866001923245
 20
-74.5775
 10
34.374468001981526
 20
-74.51
 10
34.8560700020398
 20
-74.4375
 10
35.33767200209809
 20
-74.36
 10
35.81927400215636
 20
-74.2775
 10
36.30087600221464
 20
-74.19
 10
36.782478002272924
 20
-74.0975
 10
37.264080002331205
 20
-74.0
 10
38.4640800023312
 20
-80.5
 10
37.264080002331205
 20
-78.5
 10
36.782478002272924
 20
-78.5975
 10
36.30087600221464
 20
-78.69
 10
35.81927400215636
 20
-78.7775
 10
35.33767200209809
 20
-78.86
 10
34.8560700020398
 20
-78.9375
 10
34.374468001981526
 20
-79.01
 10
33.892866001923245
 20
-79.0775
 10
33.411264001864964
 20
-79.14
 10
32.92966200180668
 20
-79.1975
 10
32.4480600017484
 20
-79.25
 10
31.96645800169012
 20
-79.2975
 10
31.484856001631844
 20
-79.34
 10
31.003254001573566
 20
-79.3775
 10
30.521652001515285
 20
-79.41
 10
30.040050001457004
 20
-79.4375
 10
29.558448001398723
 20
-79.46
 10
29.076846001340442
 20
-79.4775
 10
28.59524400128216
 20
-79.49
 10
28.113642001223884
 20
-79.4975
 10
27.632040001165603
 20
-79.5
 10
27.15043800110732
 20
-79.4975
 10
26.668836001049044
 20
-79.49
 10
26.187234000990763
 20
-79.4775
 10
25.705632000932482
 20
-79.46
 10
25.2240300008742
 20
-79.4375
 10
24.74242800081592
 20
-79.41
 10
24.260826000757643
 20
-79.3775
 10
23.77922400069936
 20
-79.34
 10
23.29762200064108
 20
-79.2975
 10
22.816020000582803
 20
-79.25
 10
22.334418000524522
 20
-79.1975
 10
21.85281600046624
 20
-79.14
 10
21.37121400040796
 20
-79.0775
 10
20.88961200034968
 20
-79.01
 10
20.4080100002914
 20
-78.9375
 10
19.92640800023312
 20
-78.86
 10
19.44480600017484
 20
-78.7775
 10
18.963204000116562
 20
-78.69
 10
18.48160200005828
 20
-78.5975
 10
18.0
 20
-78.5
  0
LINE
  5
103
330
17
100
AcDbEntity
  8
DOBLEZ
100
AcDbLine
 10
18.0
 20
-74.0
 30
0.0
 11
18.0
 21
-80.5
 31
0.0
  0
LINE
  5
104
330
17
100
AcDbEntity
  8
HILO
100
AcDbLine
 10
18.5
 20
-74.5
 30
0.0
 11
36.764080002331205
 21
-74.5
 31
0.0
  0
LINE
  5
105
330
17
100
AcDbEntity
  8
HILO
100
AcDbLine
 10
36.764080002331205
 20
-74.5
 30
0.0
 11
35.658806809527746
 21
-74.03269798922962
 31
0.0
  0
LINE
  5
106
330
17
100
AcDbEntity
  8
HILO
100
AcDbLine
 10
36.764080002331205
 20
-74.5
 30
0.0
 11
35.658806809527746
 21
-74.96730201077038
 31
0.0
  0
LINE
  5
107
330
17
100
AcDbEntity
  8
HILO
100
AcDbLine
 10
18.5
 20
-74.5
 30
0.0
 11
19.605273192803462
 21
-74.96730201077038
 31
0.0
  0
LINE
  5
108
330
17
100
AcDbEntity
  8
HILO
100
AcDbLine
 10
18.5
 20
-74.5
 30
0.0
 11
19.605273192803462
 21
-74.03269798922962
 31
0.0
  0
TEXT
  5
109
330
17
100
AcDbEntity
  8
TEXTOS
100
AcDbText
 10
27.935060528670164
 20
-73.33891654181554
 30
0.0
 40
0.9
  1
CUELLO
 72
1
 11
27.935060528670164
 21
-73.33891654181554
 31
0.0
100
AcDbText
 73
2
  0
TEXT
  5
10A
330
17
100
AcDbEntity
  8
TEXTOS
100
AcDbText
 10
27.935060528670164
 20
-74.73891654181554
 30
0.0
 40
0.6
  1
Pieza N.07
 72
1
 11
27.935060528670164
 21
-74.73891654181554
 31
0.0
100
AcDbText
 73
2
  0
TEXT
  5
10B
330
17
100
AcDbEntity
  8
TEXTOS
100
AcDbText
 10
27.935060528670164
 20
-76.13891654181553
 30
0.0
 40
0.6
  1
Talla: S
 72
1
 11
27.935060528670164
 21
-76.13891654181553
 31
0.0
100
AcDbText
 73
2
  0
TEXT
  5
10C
330
17
100
AcDbEntity
  8
TEXTOS
100
AcDbText
 10
27.935060528670164
 20
-77.53891654181554
 30
0.0
 40
0.6
  1
Cortar: 2  (al doblez x2 (+ entretela))
 72
1
 11
27.935060528670164
 21
-77.53891654181554
 31
0.0
100
AcDbText
 73
2
  0
TEXT
  5
10D
330
17
100
AcDbEntity
  8
TEXTOS
100
AcDbText
 10
27.935060528670164
 20
-78.93891654181553
 30
0.0
 40
0.6
  1
AL DOBLEZ
 72
1
 11
27.935060528670164
 21
-78.93891654181553
 31
0.0
100
AcDbText
 73
2
  0
LWPOLYLINE
  5
10E
330
17
100
AcDbEntity
  8
CORTE
100
AcDbPolyline
 90
83
 70
1
 10
45.3761850023312
 20
-78.142702
 10
45.9077200023312
 20
-78.213695
 10
46.4392760023312
 20
-78.280634
 10
46.9708520023312
 20
-78.343518
 10
47.5024480023312
 20
-78.402347
 10
48.034062002331204
 20
-78.457121
 10
48.5656930023312
 20
-78.50784
 10
49.0973400023312
 20
-78.554502
 10
49.6290010023312
 20
-78.597107
 10
50.1606750023312
 20
-78.635656
 10
50.692361002331204
 20
-78.670148
 10
51.224058002331205
 20
-78.700583
 10
51.755764002331205
 20
-78.72696
 10
52.2874780023312
 20
-78.74928
 10
52.8191980023312
 20
-78.767542
 10
53.3509240023312
 20
-78.781745
 10
53.8826540023312
 20
-78.79189099999999
 10
54.4143860023312
 20
-78.797978
 10
54.9461200023312
 20
-78.800007
 10
55.4778540023312
 20
-78.797978
 10
56.009586002331204
 20
-78.79189099999999
 10
56.5413160023312
 20
-78.781745
 10
57.0730420023312
 20
-78.767542
 10
57.6047620023312
 20
-78.74928
 10
58.1364760023312
 20
-78.72696
 10
58.6681820023312
 20
-78.700583
 10
59.1998790023312
 20
-78.670148
 10
59.7315650023312
 20
-78.635656
 10
60.263239002331204
 20
-78.597107
 10
60.794900002331204
 20
-78.554502
 10
61.326547002331196
 20
-78.50784
 10
61.8581780023312
 20
-78.457121
 10
62.389792002331205
 20
-78.402347
 10
62.9213880023312
 20
-78.343518
 10
63.4529640023312
 20
-78.280634
 10
63.9845200023312
 20
-78.213695
 10
64.5160550023312
 20
-78.142702
 10
65.0475660023312
 20
-78.067656
 10
66.4281600023312
 20
-77.862188
 10
66.4281600023312
 20
-72.84016
 10
64.7605500023312
 20
-73.088344
 10
64.2438570023312
 20
-73.161298
 10
63.727188002331204
 20
-73.230305
 10
63.2105400023312
 20
-73.295366
 10
62.6939120023312
 20
-73.356482
 10
62.1773040023312
 20
-73.413653
 10
61.660714002331204
 20
-73.466879
 10
61.144141002331196
 20
-73.51616
 10
60.627584002331204
 20
-73.561498
 10
60.1110410023312
 20
-73.602893
 10
59.5945110023312
 20
-73.640344
 10
59.0779930023312
 20
-73.673852
 10
58.5614860023312
 20
-73.703417
 10
58.0449880023312
 20
-73.72904
 10
57.528498002331204
 20
-73.75072
 10
57.0120140023312
 20
-73.768458
 10
56.4955360023312
 20
-73.782255
 10
55.979062002331204
 20
-73.792109
 10
55.4625900023312
 20
-73.798022
 10
54.9461200023312
 20
-73.799993
 10
54.4296500023312
 20
-73.798022
 10
53.9131780023312
 20
-73.792109
 10
53.396704002331205
 20
-73.782255
 10
52.8802260023312
 20
-73.768458
 10
52.3637420023312
 20
-73.75072
 10
51.8472520023312
 20
-73.72904
 10
51.330754002331204
 20
-73.703417
 10
50.8142470023312
 20
-73.673852
 10
50.2977290023312
 20
-73.640344
 10
49.7811990023312
 20
-73.602893
 10
49.2646560023312
 20
-73.561498
 10
48.7480990023312
 20
-73.51616
 10
48.2315260023312
 20
-73.466879
 10
47.7149360023312
 20
-73.413653
 10
47.1983280023312
 20
-73.356482
 10
46.6817000023312
 20
-73.295366
 10
46.1650520023312
 20
-73.230305
 10
45.6483830023312
 20
-73.161298
 10
45.131690002331204
 20
-73.088344
 10
44.4640800023312
 20
-72.988986
 10
44.4640800023312
 20
-78.011014
 10
44.8446740023312
 20
-78.067656
 10
45.3761850023312
 20
-78.142702
  0
LWPOLYLINE
  5
10F
330
17
100
AcDbEntity
  8
COSTURA
100
AcDbPolyline
 90
82
 70
1
 10
44.4640800023312
 20
-74.0
 10
44.98818200238948
 20
-74.078
 10
45.512284002447764
 20
-74.152
 10
46.03638600250604
 20
-74.222
 10
46.56048800256432
 20
-74.288
 10
47.084590002622605
 20
-74.35
 10
47.60869200268088
 20
-74.408
 10
48.13279400273916
 20
-74.462
 10
48.65689600279744
 20
-74.512
 10
49.18099800285572
 20
-74.558
 10
49.705100002914
 20
-74.6
 10
50.229202002972286
 20
-74.638
 10
50.753304003030564
 20
-74.672
 10
51.27740600308884
 20
-74.702
 10
51.80150800314712
 20
-74.728
 10
52.325610003205405
 20
-74.75
 10
52.84971200326368
 20
-74.768
 10
53.37381400332196
 20
-74.782
 10
53.897916003380246
 20
-74.792
 10
54.422018003438524
 20
-74.798
 10
54.9461200034968
 20
-74.8
 10
55.47022200355509
 20
-74.798
 10
55.994324003613364
 20
-74.792
 10
56.51842600367164
 20
-74.782
 10
57.04252800372993
 20
-74.768
 10
57.566630003788205
 20
-74.75
 10
58.09073200384648
 20
-74.728
 10
58.61483400390476
 20
-74.702
 10
59.13893600396304
 20
-74.672
 10
59.663038004021324
 20
-74.638
 10
60.18714000407961
 20
-74.6
 10
60.71124200413789
 20
-74.558
 10
61.235344004196165
 20
-74.512
 10
61.75944600425444
 20
-74.462
 10
62.28354800431272
 20
-74.408
 10
62.807650004371006
 20
-74.35
 10
63.33175200442929
 20
-74.288
 10
63.85585400448757
 20
-74.222
 10
64.37995600454585
 20
-74.152
 10
64.90405800460412
 20
-74.078
 10
65.4281600046624
 20
-74.0
 10
65.4281600046624
 20
-77.0
 10
64.90405800460412
 20
-77.078
 10
64.37995600454585
 20
-77.152
 10
63.85585400448757
 20
-77.222
 10
63.33175200442929
 20
-77.288
 10
62.807650004371006
 20
-77.35
 10
62.28354800431272
 20
-77.408
 10
61.75944600425444
 20
-77.462
 10
61.235344004196165
 20
-77.512
 10
60.71124200413789
 20
-77.55799999999999
 10
60.18714000407961
 20
-77.6
 10
59.663038004021324
 20
-77.638
 10
59.13893600396304
 20
-77.672
 10
58.61483400390476
 20
-77.702
 10
58.09073200384648
 20
-77.728
 10
57.566630003788205
 20
-77.75
 10
57.04252800372993
 20
-77.768
 10
56.51842600367164
 20
-77.782
 10
55.994324003613364
 20
-77.792
 10
55.47022200355509
 20
-77.798
 10
54.9461200034968
 20
-77.8
 10
54.422018003438524
 20
-77.798
 10
53.897916003380246
 20
-77.792
 10
53.37381400332196
 20
-77.782
 10
52.84971200326368
 20
-77.768
 10
52.325610003205405
 20
-77.75
 10
51.80150800314712
 20
-77.728
 10
51.27740600308884
 20
-77.702
 10
50.753304003030564
 20
-77.672
 10
50.229202002972286
 20
-77.638
 10
49.705100002914
 20
-77.6
 10
49.18099800285572
 20
-77.55799999999999
 10
48.65689600279744
 20
-77.512
 10
48.13279400273916
 20
-77.462
 10
47.60869200268088
 20
-77.408
 10
47.084590002622605
 20
-77.35
 10
46.56048800256432
 20
-77.288
 10
46.03638600250604
 20
-77.222
 10
45.512284002447764
 20
-77.152
 10
44.98818200238948
 20
-77.078
 10
44.4640800023312
 20
-77.0
  0
LINE
  5
110
330
17
100
AcDbEntity
  8
DOBLEZ
100
AcDbLine
 10
44.4640800023312
 20
-74.0
 30
0.0
 11
44.4640800023312
 21
-77.8
 31
0.0
  0
LINE
  5
111
330
17
100
AcDbEntity
  8
HILO
100
AcDbLine
 10
44.9640800023312
 20
-74.4
 30
0.0
 11
64.9281600046624
 21
-74.4
 31
0.0
  0
LINE
  5
112
330
17
100
AcDbEntity
  8
HILO
100
AcDbLine
 10
64.9281600046624
 20
-74.4
 30
0.0
 11
63.82288681185894
 21
-73.93269798922962
 31
0.0
  0
LINE
  5
113
330
17
100
AcDbEntity
  8
HILO
100
AcDbLine
 10
64.9281600046624
 20
-74.4
 30
0.0
 11
63.82288681185894
 21
-74.86730201077037
 31
0.0
  0
LINE
  5
114
330
17
100
AcDbEntity
  8
HILO
100
AcDbLine
 10
44.9640800023312
 20
-74.4
 30
0.0
 11
46.06935319513466
 21
-74.86730201077037
 31
0.0
  0
LINE
  5
115
330
17
100
AcDbEntity
  8
HILO
100
AcDbLine
 10
44.9640800023312
 20
-74.4
 30
0.0
 11
46.06935319513466
 21
-73.93269798922962
 31
0.0
  0
CIRCLE
  5
116
330
17
100
AcDbEntity
  8
BOTONES
100
AcDbCircle
 10
64.4281600046624
 20
-75.5
 30
0.0
 40
0.55
  0
TEXT
  5
117
330
17
100
AcDbEntity
  8
TEXTOS
100
AcDbText
 10
54.94612000349681
 20
-72.433
 30
0.0
 40
0.9
  1
PIE DE CUELLO
 72
1
 11
54.94612000349681
 21
-72.433
 31
0.0
100
AcDbText
 73
2
  0
TEXT
  5
118
330
17
100
AcDbEntity
  8
TEXTOS
100
AcDbText
 10
54.94612000349681
 20
-73.833
 30
0.0
 40
0.6
  1
Pieza N.08
 72
1
 11
54.94612000349681
 21
-73.833
 31
0.0
100
AcDbText
 73
2
  0
TEXT
  5
119
330
17
100
AcDbEntity
  8
TEXTOS
100
AcDbText
 10
54.94612000349681
 20
-75.233
 30
0.0
 40
0.6
  1
Talla: S
 72
1
 11
54.94612000349681
 21
-75.233
 31
0.0
100
AcDbText
 73
2
  0
TEXT
  5
11A
330
17
100
AcDbEntity
  8
TEXTOS
100
AcDbText
 10
54.94612000349681
 20
-76.633
 30
0.0
 40
0.6
  1
Cortar: 2  (al doblez x2 (+ entretela))
 72
1
 11
54.94612000349681
 21
-76.633
 31
0.0
100
AcDbText
 73
2
  0
TEXT
  5
11B
330
17
100
AcDbEntity
  8
TEXTOS
100
AcDbText
 10
54.94612000349681
 20
-78.033
 30
0.0
 40
0.6
  1
AL DOBLEZ
 72
1
 11
54.94612000349681
 21
-78.033
 31
0.0
100
AcDbText
 73
2
  0
LWPOLYLINE
  5
11C
330
17
100
AcDbEntity
  8
CORTE
100
AcDbPolyline
 90
42
 70
1
 10
70.4281600046624
 20
-143.0
 10
78.4353800046624
 20
-143.0
 10
78.02933700466241
 20
-86.560068
 10
82.2530820046624
 20
-73.994427
 10
79.72882100466241
 20
-72.732296
 10
79.03270800466241
 20
-73.660664
 10
78.83696900466241
 20
-73.922279
 10
78.64115400466241
 20
-74.185143
 10
78.4455420046624
 20
-74.449462
 10
78.25041600466241
 20
-74.715446
 10
78.0560600046624
 20
-74.983308
 10
77.86276300466241
 20
-75.253261
 10
77.6708160046624
 20
-75.525517
 10
77.48051500466241
 20
-75.800293
 10
77.2921560046624
 20
-76.077804
 10
77.1060420046624
 20
-76.358265
 10
76.9224790046624
 20
-76.641893
 10
76.7417750046624
 20
-76.928902
 10
76.56440200466241
 20
-77.219247
 10
76.3914630046624
 20
-77.51139
 10
76.2232380046624
 20
-77.802922
 10
76.05891000466241
 20
-78.092591
 10
75.8974350046624
 20
-78.379609
 10
75.7378130046624
 20
-78.663199
 10
75.5790870046624
 20
-78.942593
 10
75.42034400466241
 20
-79.217035
 10
75.2607130046624
 20
-79.48578499999999
 10
75.09936300466241
 20
-79.74812299999999
 10
74.9355010046624
 20
-80.003358
 10
74.76836600466241
 20
-80.250841
 10
74.59721800466241
 20
-80.489974
 10
74.4213210046624
 20
-80.720239
 10
74.2390290046624
 20
-80.9423
 10
74.0475640046624
 20
-81.159142
 10
73.84581000466241
 20
-81.373491
 10
73.6344380046624
 20
-81.586185
 10
73.41437200466241
 20
-81.797884
 10
73.1866020046624
 20
-82.009276
 10
72.9521710046624
 20
-82.221088
 10
72.75058500466241
 20
-82.4
 10
70.4281600046624
 20
-82.4
 10
70.4281600046624
 20
-143.0
  0
LWPOLYLINE
  5
11D
330
17
100
AcDbEntity
  8
COSTURA
100
AcDbPolyline
 90
42
 70
1
 10
71.4281600046624
 20
-83.4
 10
73.1281600046624
 20
-83.4
 10
73.37429721609332
 20
-83.18348907067131
 10
73.61928303983103
 20
-82.966058943868
 10
73.8619660881823
 20
-82.74679042211545
 10
74.10119497345391
 20
-82.52476430793902
 10
74.33581830795266
 20
-82.29906140386409
 10
74.56468470398534
 20
-82.06876251241604
 10
74.78664277385869
 20
-81.83294843612025
 10
75.00054112987954
 20
-81.59069997750208
 10
75.20535762212936
 20
-81.34120019116355
 10
75.40134283912629
 20
-81.08463911397952
 10
75.58947115127837
 20
-80.82177943429173
 10
75.77072528675409
 20
-80.5533904530469
 10
75.94608797372189
 20
-80.28024147119179
 10
76.11654194035029
 20
-80.00310178967312
 10
76.28306991480773
 20
-79.72274070943767
 10
76.44665462526271
 20
-79.43992753143218
 10
76.60827879988369
 20
-79.15543155660336
 10
76.76892516683915
 20
-78.87002208589797
 10
76.92957645429757
 20
-78.58446842026278
 10
77.09121539042744
 20
-78.2995398606445
 10
77.2548247033972
 20
-78.01600570798989
 10
77.4213869660642
 20
-77.73463514296425
 10
77.59161393668012
 20
-77.45598761259903
 10
77.76539004142262
 20
-77.17998183274412
 10
77.94244226997428
 20
-76.90641459182177
 10
78.12249761201768
 20
-76.6350826782543
 10
78.30528305723539
 20
-76.365782880464
 10
78.49052559530996
 20
-76.09831198687311
 10
78.67795221592398
 20
-75.83246678590396
 10
78.86728990876001
 20
-75.56804406597881
 10
79.05826566350063
 20
-75.30484061551995
 10
79.25060646982841
 20
-75.04265322294967
 10
79.4440393174259
 20
-74.78127867669025
 10
79.63829119597568
 20
-74.52051376516397
 10
79.83308909516033
 20
-74.26015527679313
 10
80.02816000466241
 20
-74.0
 10
81.02816000466241
 20
-74.5
 10
77.02816000466241
 20
-86.4
 10
77.4281600046624
 20
-142.0
 10
71.4281600046624
 20
-142.0
  0
LINE
  5
11E
330
17
100
AcDbEntity
  8
HILO
100
AcDbLine
 10
74.4281600046624
 20
-88.4
 30
0.0
 11
74.4281600046624
 21
-139.0
 31
0.0
  0
LINE
  5
11F
330
17
100
AcDbEntity
  8
HILO
100
AcDbLine
 10
74.4281600046624
 20
-139.0
 30
0.0
 11
74.89546201543278
 21
-137.89472680719655
 31
0.0
  0
LINE
  5
120
330
17
100
AcDbEntity
  8
HILO
100
AcDbLine
 10
74.4281600046624
 20
-139.0
 30
0.0
 11
73.96085799389202
 21
-137.89472680719655
 31
0.0
  0
LINE
  5
121
330
17
100
AcDbEntity
  8
HILO
100
AcDbLine
 10
74.4281600046624
 20
-88.4
 30
0.0
 11
73.96085799389202
 21
-89.50527319280346
 31
0.0
  0
LINE
  5
122
330
17
100
AcDbEntity
  8
HILO
100
AcDbLine
 10
74.4281600046624
 20
-88.4
 30
0.0
 11
74.89546201543278
 21
-89.50527319280346
 31
0.0
  0
TEXT
  5
123
330
17
100
AcDbEntity
  8
TEXTOS
100
AcDbText
 10
74.57837287091488
 20
-107.8645881491815
 30
0.0
 40
0.9
  1
VISTA DELANTERA
 72
1
 11
74.57837287091488
 21
-107.8645881491815
 31
0.0
100
AcDbText
 73
2
  0
TEXT
  5
124
330
17
100
AcDbEntity
  8
TEXTOS
100
AcDbText
 10
74.57837287091488
 20
-109.26458814918149
 30
0.0
 40
0.6
  1
Pieza N.09
 72
1
 11
74.57837287091488
 21
-109.26458814918149
 31
0.0
100
AcDbText
 73
2
  0
TEXT
  5
125
330
17
100
AcDbEntity
  8
TEXTOS
100
AcDbText
 10
74.57837287091488
 20
-110.6645881491815
 30
0.0
 40
0.6
  1
Talla: S
 72
1
 11
74.57837287091488
 21
-110.6645881491815
 31
0.0
100
AcDbText
 73
2
  0
TEXT
  5
126
330
17
100
AcDbEntity
  8
TEXTOS
100
AcDbText
 10
74.57837287091488
 20
-112.0645881491815
 30
0.0
 40
0.6
  1
Cortar: 2  (par: izq + der)
 72
1
 11
74.57837287091488
 21
-112.0645881491815
 31
0.0
100
AcDbText
 73
2
  0
LWPOLYLINE
  5
127
330
17
100
AcDbEntity
  8
CORTE
100
AcDbPolyline
 90
6
 70
1
 10
86.0281600046624
 20
-84.271905
 10
93.0281600046624
 20
-88.681905
 10
100.0281600046624
 20
-84.271905
 10
100.0281600046624
 20
-73.0
 10
86.0281600046624
 20
-73.0
 10
86.0281600046624
 20
-84.271905
  0
LWPOLYLINE
  5
128
330
17
100
AcDbEntity
  8
COSTURA
100
AcDbPolyline
 90
5
 70
1
 10
87.0281600046624
 20
-74.0
 10
99.0281600046624
 20
-74.0
 10
99.0281600046624
 20
-83.72
 10
93.0281600046624
 20
-87.5
 10
87.0281600046624
 20
-83.72
  0
LINE
  5
129
330
17
100
AcDbEntity
  8
HILO
100
AcDbLine
 10
93.0281600046624
 20
-75.0
 30
0.0
 11
93.0281600046624
 21
-83.72
 31
0.0
  0
LINE
  5
12A
330
17
100
AcDbEntity
  8
HILO
100
AcDbLine
 10
93.0281600046624
 20
-83.72
 30
0.0
 11
93.49546201543278
 21
-82.61472680719653
 31
0.0
  0
LINE
  5
12B
330
17
100
AcDbEntity
  8
HILO
100
AcDbLine
 10
93.0281600046624
 20
-83.72
 30
0.0
 11
92.56085799389201
 21
-82.61472680719653
 31
0.0
  0
LINE
  5
12C
330
17
100
AcDbEntity
  8
HILO
100
AcDbLine
 10
93.0281600046624
 20
-75.0
 30
0.0
 11
92.56085799389201
 21
-76.10527319280347
 31
0.0
  0
LINE
  5
12D
330
17
100
AcDbEntity
  8
HILO
100
AcDbLine
 10
93.0281600046624
 20
-75.0
 30
0.0
 11
93.49546201543278
 21
-76.10527319280347
 31
0.0
  0
LINE
  5
12E
330
17
100
AcDbEntity
  8
CONSTRUCCION
100
AcDbLine
 10
87.0281600046624
 20
-81.22
 30
0.0
 11
99.0281600046624
 21
-81.22
 31
0.0
  0
TEXT
  5
12F
330
17
100
AcDbEntity
  8
REFERENCIAS
100
AcDbText
 10
93.0281600046624
 20
-75.5
 30
0.0
 40
0.5
  1
boca
 11
93.0281600046624
 21
-75.5
 31
0.0
100
AcDbText
  0
TEXT
  5
130
330
17
100
AcDbEntity
  8
TEXTOS
100
AcDbText
 10
93.0281600046624
 20
-77.15627906976744
 30
0.0
 40
0.9
  1
BOLSILLO
 72
1
 11
93.0281600046624
 21
-77.15627906976744
 31
0.0
100
AcDbText
 73
2
  0
TEXT
  5
131
330
17
100
AcDbEntity
  8
TEXTOS
100
AcDbText
 10
93.0281600046624
 20
-78.55627906976744
 30
0.0
 40
0.6
  1
Pieza N.10
 72
1
 11
93.0281600046624
 21
-78.55627906976744
 31
0.0
100
AcDbText
 73
2
  0
TEXT
  5
132
330
17
100
AcDbEntity
  8
TEXTOS
100
AcDbText
 10
93.0281600046624
 20
-79.95627906976745
 30
0.0
 40
0.6
  1
Talla: S
 72
1
 11
93.0281600046624
 21
-79.95627906976745
 31
0.0
100
AcDbText
 73
2
  0
TEXT
  5
133
330
17
100
AcDbEntity
  8
TEXTOS
100
AcDbText
 10
93.0281600046624
 20
-81.35627906976744
 30
0.0
 40
0.6
  1
Cortar: 1  (1 (opcional))
 72
1
 11
93.0281600046624
 21
-81.35627906976744
 31
0.0
100
AcDbText
 73
2
  0
ENDSEC
  0
SECTION
  2
OBJECTS
  0
DICTIONARY
  5
A
330
0
100
AcDbDictionary
281
1
  3
ACAD_COLOR
350
B
  3
ACAD_GROUP
350
C
  3
ACAD_LAYOUT
350
D
  3
ACAD_MATERIAL
350
E
  3
ACAD_MLEADERSTYLE
350
F
  3
ACAD_MLINESTYLE
350
10
  3
ACAD_PLOTSETTINGS
350
11
  3
ACAD_PLOTSTYLENAME
350
12
  3
ACAD_SCALELIST
350
14
  3
ACAD_TABLESTYLE
350
15
  3
ACAD_VISUALSTYLE
350
16
  3
EZDXF_META
350
2D
  0
DICTIONARY
  5
B
330
A
100
AcDbDictionary
281
1
  0
DICTIONARY
  5
C
330
A
100
AcDbDictionary
281
1
  0
DICTIONARY
  5
D
330
A
100
AcDbDictionary
281
1
  3
Model
350
1A
  3
Layout1
350
1E
  0
DICTIONARY
  5
E
330
A
100
AcDbDictionary
281
1
  3
ByBlock
350
1F
  3
ByLayer
350
20
  3
Global
350
21
  0
DICTIONARY
  5
F
330
A
100
AcDbDictionary
281
1
  3
Standard
350
2C
  0
DICTIONARY
  5
10
330
A
100
AcDbDictionary
281
1
  3
Standard
350
22
  0
DICTIONARY
  5
11
330
A
100
AcDbDictionary
281
1
  0
ACDBDICTIONARYWDFLT
  5
12
330
A
100
AcDbDictionary
281
1
  3
Normal
350
13
100
AcDbDictionaryWithDefault
340
13
  0
ACDBPLACEHOLDER
  5
13
330
12
  0
DICTIONARY
  5
14
330
A
100
AcDbDictionary
281
1
  0
DICTIONARY
  5
15
330
A
100
AcDbDictionary
281
1
  0
DICTIONARY
  5
16
330
A
100
AcDbDictionary
281
1
  3
2dWireframe
350
5A
  3
Basic
350
5B
  3
Brighten
350
5C
  3
ColorChange
350
5D
  3
Conceptual
350
5E
  3
Dim
350
5F
  3
EdgeColorOff
350
60
  3
Facepattern
350
61
  3
Flat
350
62
  3
FlatWithEdges
350
63
  3
Gouraud
350
64
  3
GouraudWithEdges
350
65
  3
Hidden
350
66
  3
JitterOff
350
67
  3
Linepattern
350
68
  3
Modeling
350
69
  3
OverhangOff
350
6A
  3
Realistic
350
6B
  3
Shaded
350
6C
  3
Shaded with edges
350
6D
  3
Shades of Gray
350
6E
  3
Sketchy
350
6F
  3
Thicken
350
70
  3
Wireframe
350
71
  3
X-Ray
350
72
  0
LAYOUT
  5
1A
330
D
100
AcDbPlotSettings
  1

  4
A3
  6

 40
7.5
 41
20.0
 42
7.5
 43
20.0
 44
420.0
 45
297.0
 46
0.0
 47
0.0
 48
0.0
 49
0.0
140
0.0
141
0.0
142
1.0
143
1.0
 70
1024
 72
1
 73
0
 74
5
  7

 75
16
 76
0
 77
2
 78
300
147
1.0
148
0.0
149
0.0
100
AcDbLayout
  1
Model
 70
1
 71
0
 10
0.0
 20
0.0
 11
420.0
 21
297.0
 12
0.0
 22
0.0
 32
0.0
 14
1e+20
 24
1e+20
 34
1e+20
 15
-1e+20
 25
-1e+20
 35
-1e+20
146
0.0
 13
0.0
 23
0.0
 33
0.0
 16
1.0
 26
0.0
 36
0.0
 17
0.0
 27
1.0
 37
0.0
 76
1
330
17
  0
LAYOUT
  5
1E
330
D
100
AcDbPlotSettings
  1

  4
A3
  6

 40
7.5
 41
20.0
 42
7.5
 43
20.0
 44
420.0
 45
297.0
 46
0.0
 47
0.0
 48
0.0
 49
0.0
140
0.0
141
0.0
142
1.0
143
1.0
 70
0
 72
1
 73
0
 74
5
  7

 75
16
 76
0
 77
2
 78
300
147
1.0
148
0.0
149
0.0
100
AcDbLayout
  1
Layout1
 70
1
 71
1
 10
0.0
 20
0.0
 11
420.0
 21
297.0
 12
0.0
 22
0.0
 32
0.0
 14
1e+20
 24
1e+20
 34
1e+20
 15
-1e+20
 25
-1e+20
 35
-1e+20
146
0.0
 13
0.0
 23
0.0
 33
0.0
 16
1.0
 26
0.0
 36
0.0
 17
0.0
 27
1.0
 37
0.0
 76
1
330
1B
  0
MATERIAL
  5
1F
102
{ACAD_REACTORS
330
E
102
}
330
E
100
AcDbMaterial
  1
ByBlock
  2

 70
0
 40
1.0
 71
1
 41
1.0
 91
-1023410177
 42
1.0
 72
1
  3

 73
1
 74
1
 75
1
 44
0.5
 73
0
 45
1.0
 46
1.0
 77
1
  4

 78
1
 79
1
170
1
 48
1.0
171
1
  6

172
1
173
1
174
1
140
1.0
141
1.0
175
1
  7

176
1
177
1
178
1
143
1.0
179
1
  8

270
1
271
1
272
1
145
1.0
146
1.0
273
1
  9

274
1
275
1
276
1
 42
1.0
 72
1
  3

 73
1
 74
1
 75
1
 94
63
  0
MATERIAL
  5
20
102
{ACAD_REACTORS
330
E
102
}
330
E
100
AcDbMaterial
  1
ByLayer
  2

 70
0
 40
1.0
 71
1
 41
1.0
 91
-1023410177
 42
1.0
 72
1
  3

 73
1
 74
1
 75
1
 44
0.5
 73
0
 45
1.0
 46
1.0
 77
1
  4

 78
1
 79
1
170
1
 48
1.0
171
1
  6

172
1
173
1
174
1
140
1.0
141
1.0
175
1
  7

176
1
177
1
178
1
143
1.0
179
1
  8

270
1
271
1
272
1
145
1.0
146
1.0
273
1
  9

274
1
275
1
276
1
 42
1.0
 72
1
  3

 73
1
 74
1
 75
1
 94
63
  0
MATERIAL
  5
21
102
{ACAD_REACTORS
330
E
102
}
330
E
100
AcDbMaterial
  1
Global
  2

 70
0
 40
1.0
 71
1
 41
1.0
 91
-1023410177
 42
1.0
 72
1
  3

 73
1
 74
1
 75
1
 44
0.5
 73
0
 45
1.0
 46
1.0
 77
1
  4

 78
1
 79
1
170
1
 48
1.0
171
1
  6

172
1
173
1
174
1
140
1.0
141
1.0
175
1
  7

176
1
177
1
178
1
143
1.0
179
1
  8

270
1
271
1
272
1
145
1.0
146
1.0
273
1
  9

274
1
275
1
276
1
 42
1.0
 72
1
  3

 73
1
 74
1
 75
1
 94
63
  0
MLINESTYLE
  5
22
102
{ACAD_REACTORS
330
10
102
}
330
10
100
AcDbMlineStyle
  2
Standard
 70
0
  3

 62
256
 51
90.0
 52
90.0
 71
2
 49
0.5
 62
256
  6
BYLAYER
 49
-0.5
 62
256
  6
BYLAYER
  0
MLEADERSTYLE
  5
2C
102
{ACAD_REACTORS
330
F
102
}
330
F
100
AcDbMLeaderStyle
179
2
170
2
171
1
172
0
 90
2
 40
0.0
 41
0.0
173
1
 91
-1056964608
 92
-2
290
1
 42
2.0
291
1
 43
8.0
  3
Standard
 44
4.0
300

342
29
174
1
175
1
176
0
178
1
 93
-1056964608
 45
4.0
292
0
297
0
 46
4.0
 94
-1056964608
 47
1.0
 49
1.0
140
1.0
294
1
141
0.0
177
0
142
1.0
295
0
296
0
143
3.75
271
0
272
9
273
9
  0
DICTIONARY
  5
2D
330
A
100
AcDbDictionary
280
1
281
1
  3
CREATED_BY_EZDXF
350
2E
  3
WRITTEN_BY_EZDXF
350
136
  0
DICTIONARYVAR
  5
2E
330
2D
100
DictionaryVariables
280
0
  1
1.4.4 @ 2026-07-14T04:30:16.990671+00:00
  0
VISUALSTYLE
  5
5A
102
{ACAD_REACTORS
330
16
102
}
330
16
100
AcDbVisualStyle
  2
2dWireframe
 70
4
177
3
291
0
 70
58
 90
2
176
1
 90
2
176
1
 90
0
176
1
 90
0
176
1
 40
0.6
176
1
 40
30.0
176
1
 62
7
420
16777215
176
1
 90
1
176
1
 90
4
176
1
 62
7
176
1
 62
257
176
1
 90
1
176
1
 90
1
176
1
 40
1.0
176
1
 90
8
176
1
 62
7
176
1
 40
1.0
176
1
 90
1
176
1
 90
6
176
1
 90
2
176
1
 62
7
176
1
 90
5
176
1
 90
0
176
1
 90
0
176
1
290
0
176
1
 90
1
176
1
 40
0.0
176
1
 90
0
176
1
290
1
176
1
290
1
176
1
290
0
176
1
290
0
176
1
290
0
176
1
290
0
176
1
290
0
176
1
290
0
176
1
290
0
176
1
 90
50
176
1
 40
0.0
176
1
 40
1.0
176
1
 90
0
176
1
 62
18
420
0
176
1
 90
50
176
1
 90
3
176
1
 62
5
420
255
176
1
290
0
176
1
 90
50
176
1
 90
50
176
1
 90
50
176
1
290
0
176
1
 90
50
176
1
 62
256
176
0
 40
1.0
176
0
 90
2
176
1
  1
strokes_ogs.tif
176
1
290
0
176
1
 40
1.0
176
1
 40
1.0
176
1
  0
VISUALSTYLE
  5
5B
102
{ACAD_REACTORS
330
16
102
}
330
16
100
AcDbVisualStyle
  2
Basic
 70
7
177
3
291
1
 70
58
 90
2
176
1
 90
2
176
1
 90
0
176
1
 90
1
176
1
 40
0.6
176
1
 40
30.0
176
1
 62
7
420
16777215
176
1
 90
1
176
1
 90
4
176
1
 62
7
176
1
 62
257
176
1
 90
1
176
1
 90
1
176
1
 40
1.0
176
1
 90
8
176
1
 62
7
176
1
 40
1.0
176
1
 90
1
176
1
 90
6
176
1
 90
2
176
1
 62
7
176
1
 90
5
176
1
 90
0
176
1
 90
0
176
1
290
0
176
1
 90
1
176
1
 40
0.0
176
1
 90
0
176
1
290
0
176
1
290
1
176
1
290
1
176
1
290
0
176
1
290
0
176
1
290
0
176
1
290
0
176
1
290
0
176
1
290
0
176
1
 90
50
176
1
 40
0.0
176
1
 40
1.0
176
1
 90
0
176
1
 62
18
420
0
176
1
 90
50
176
1
 90
3
176
1
 62
5
420
255
176
1
290
0
176
1
 90
50
176
1
 90
50
176
1
 90
50
176
1
290
0
176
1
 90
50
176
1
 62
256
176
0
 40
1.0
176
0
 90
2
176
1
  1
strokes_ogs.tif
176
1
290
0
176
1
 40
1.0
176
1
 40
1.0
176
1
  0
VISUALSTYLE
  5
5C
102
{ACAD_REACTORS
330
16
102
}
330
16
100
AcDbVisualStyle
  2
Brighten
 70
12
177
3
291
1
 70
58
 90
2
176
1
 90
2
176
1
 90
0
176
1
 90
2
176
1
 40
0.6
176
1
 40
30.0
176
1
 62
7
420
16777215
176
1
 90
1
176
1
 90
4
176
1
 62
7
176
1
 62
257
176
1
 90
1
176
1
 90
1
176
1
 40
1.0
176
1
 90
8
176
1
 62
7
176
1
 40
1.0
176
1
 90
1
176
1
 90
6
176
1
 90
2
176
1
 62
7
176
1
 90
5
176
1
 90
0
176
1
 90
0
176
1
290
0
176
1
 90
1
176
1
 40
0.0
176
1
 90
0
176
1
290
0
176
1
290
1
176
1
290
1
176
1
290
0
176
1
290
0
176
1
290
0
176
1
290
0
176
1
290
0
176
1
290
0
176
1
 90
50
176
1
 40
0.0
176
1
 40
1.0
176
1
 90
0
176
1
 62
18
420
0
176
1
 90
50
176
1
 90
3
176
1
 62
5
420
255
176
1
290
0
176
1
 90
50
176
1
 90
50
176
1
 90
50
176
1
290
0
176
1
 90
50
176
1
 62
256
176
0
 40
1.0
176
0
 90
2
176
1
  1
strokes_ogs.tif
176
1
290
0
176
1
 40
1.0
176
1
 40
1.0
176
1
  0
VISUALSTYLE
  5
5D
102
{ACAD_REACTORS
330
16
102
}
330
16
100
AcDbVisualStyle
  2
ColorChange
 70
16
177
3
291
1
 70
58
 90
2
176
1
 90
2
176
1
 90
0
176
1
 90
2
176
1
 40
0.6
176
1
 40
30.0
176
1
 62
7
420
16777215
176
1
 90
1
176
1
 90
4
176
1
 62
7
176
1
 62
257
176
1
 90
1
176
1
 90
1
176
1
 40
1.0
176
1
 90
8
176
1
 62
7
176
1
 40
1.0
176
1
 90
1
176
1
 90
6
176
1
 90
2
176
1
 62
7
176
1
 90
5
176
1
 90
0
176
1
 90
0
176
1
290
0
176
1
 90
1
176
1
 40
0.0
176
1
 90
0
176
1
290
0
176
1
290
1
176
1
290
1
176
1
290
0
176
1
290
0
176
1
290
0
176
1
290
0
176
1
290
0
176
1
290
0
176
1
 90
50
176
1
 40
0.0
176
1
 40
1.0
176
1
 90
0
176
1
 62
18
420
0
176
1
 90
50
176
1
 90
3
176
1
 62
5
420
255
176
1
290
0
176
1
 90
50
176
1
 90
50
176
1
 90
50
176
1
290
0
176
1
 90
50
176
1
 62
256
176
0
 40
1.0
176
0
 90
2
176
1
  1
strokes_ogs.tif
176
1
290
0
176
1
 40
1.0
176
1
 40
1.0
176
1
  0
VISUALSTYLE
  5
5E
102
{ACAD_REACTORS
330
16
102
}
330
16
100
AcDbVisualStyle
  2
Conceptual
 70
9
177
3
291
0
 70
58
 90
2
176
1
 90
2
176
1
 90
0
176
1
 90
3
176
1
 40
0.6
176
1
 40
30.0
176
1
 62
7
420
16777215
176
1
 90
1
176
1
 90
4
176
1
 62
7
176
1
 62
257
176
1
 90
1
176
1
 90
1
176
1
 40
1.0
176
1
 90
8
176
1
 62
7
176
1
 40
1.0
176
1
 90
1
176
1
 90
6
176
1
 90
2
176
1
 62
7
176
1
 90
5
176
1
 90
0
176
1
 90
0
176
1
290
0
176
1
 90
1
176
1
 40
0.0
176
1
 90
0
176
1
290
0
176
1
290
1
176
1
290
1
176
1
290
0
176
1
290
0
176
1
290
0
176
1
290
0
176
1
290
0
176
1
290
0
176
1
 90
50
176
1
 40
0.0
176
1
 40
1.0
176
1
 90
0
176
1
 62
18
420
0
176
1
 90
50
176
1
 90
3
176
1
 62
5
420
255
176
1
290
0
176
1
 90
50
176
1
 90
50
176
1
 90
50
176
1
290
0
176
1
 90
50
176
1
 62
256
176
0
 40
1.0
176
0
 90
2
176
1
  1
strokes_ogs.tif
176
1
290
0
176
1
 40
1.0
176
1
 40
1.0
176
1
  0
VISUALSTYLE
  5
5F
102
{ACAD_REACTORS
330
16
102
}
330
16
100
AcDbVisualStyle
  2
Dim
 70
11
177
3
291
1
 70
58
 90
2
176
1
 90
2
176
1
 90
0
176
1
 90
2
176
1
 40
0.6
176
1
 40
30.0
176
1
 62
7
420
16777215
176
1
 90
1
176
1
 90
4
176
1
 62
7
176
1
 62
257
176
1
 90
1
176
1
 90
1
176
1
 40
1.0
176
1
 90
8
176
1
 62
7
176
1
 40
1.0
176
1
 90
1
176
1
 90
6
176
1
 90
2
176
1
 62
7
176
1
 90
5
176
1
 90
0
176
1
 90
0
176
1
290
0
176
1
 90
1
176
1
 40
0.0
176
1
 90
0
176
1
290
0
176
1
290
1
176
1
290
1
176
1
290
0
176
1
290
0
176
1
290
0
176
1
290
0
176
1
290
0
176
1
290
0
176
1
 90
50
176
1
 40
0.0
176
1
 40
1.0
176
1
 90
0
176
1
 62
18
420
0
176
1
 90
50
176
1
 90
3
176
1
 62
5
420
255
176
1
290
0
176
1
 90
50
176
1
 90
50
176
1
 90
50
176
1
290
0
176
1
 90
50
176
1
 62
256
176
0
 40
1.0
176
0
 90
2
176
1
  1
strokes_ogs.tif
176
1
290
0
176
1
 40
1.0
176
1
 40
1.0
176
1
  0
VISUALSTYLE
  5
60
102
{ACAD_REACTORS
330
16
102
}
330
16
100
AcDbVisualStyle
  2
EdgeColorOff
 70
22
177
3
291
1
 70
58
 90
2
176
1
 90
2
176
1
 90
0
176
1
 90
2
176
1
 40
0.6
176
1
 40
30.0
176
1
 62
7
420
16777215
176
1
 90
1
176
1
 90
4
176
1
 62
7
176
1
 62
257
176
1
 90
1
176
1
 90
1
176
1
 40
1.0
176
1
 90
8
176
1
 62
7
176
1
 40
1.0
176
1
 90
1
176
1
 90
6
176
1
 90
2
176
1
 62
7
176
1
 90
5
176
1
 90
0
176
1
 90
0
176
1
290
0
176
1
 90
1
176
1
 40
0.0
176
1
 90
0
176
1
290
0
176
1
290
1
176
1
290
1
176
1
290
0
176
1
290
0
176
1
290
0
176
1
290
0
176
1
290
0
176
1
290
0
176
1
 90
50
176
1
 40
0.0
176
1
 40
1.0
176
1
 90
0
176
1
 62
18
420
0
176
1
 90
50
176
1
 90
3
176
1
 62
5
420
255
176
1
290
0
176
1
 90
50
176
1
 90
50
176
1
 90
50
176
1
290
0
176
1
 90
50
176
1
 62
256
176
0
 40
1.0
176
0
 90
2
176
1
  1
strokes_ogs.tif
176
1
290
0
176
1
 40
1.0
176
1
 40
1.0
176
1
  0
VISUALSTYLE
  5
61
102
{ACAD_REACTORS
330
16
102
}
330
16
100
AcDbVisualStyle
  2
Facepattern
 70
15
177
3
291
1
 70
58
 90
2
176
1
 90
2
176
1
 90
0
176
1
 90
2
176
1
 40
0.6
176
1
 40
30.0
176
1
 62
7
420
16777215
176
1
 90
1
176
1
 90
4
176
1
 62
7
176
1
 62
257
176
1
 90
1
176
1
 90
1
176
1
 40
1.0
176
1
 90
8
176
1
 62
7
176
1
 40
1.0
176
1
 90
1
176
1
 90
6
176
1
 90
2
176
1
 62
7
176
1
 90
5
176
1
 90
0
176
1
 90
0
176
1
290
0
176
1
 90
1
176
1
 40
0.0
176
1
 90
0
176
1
290
0
176
1
290
1
176
1
290
1
176
1
290
0
176
1
290
0
176
1
290
0
176
1
290
0
176
1
290
0
176
1
290
0
176
1
 90
50
176
1
 40
0.0
176
1
 40
1.0
176
1
 90
0
176
1
 62
18
420
0
176
1
 90
50
176
1
 90
3
176
1
 62
5
420
255
176
1
290
0
176
1
 90
50
176
1
 90
50
176
1
 90
50
176
1
290
0
176
1
 90
50
176
1
 62
256
176
0
 40
1.0
176
0
 90
2
176
1
  1
strokes_ogs.tif
176
1
290
0
176
1
 40
1.0
176
1
 40
1.0
176
1
  0
VISUALSTYLE
  5
62
102
{ACAD_REACTORS
330
16
102
}
330
16
100
AcDbVisualStyle
  2
Flat
 70
0
177
3
291
1
 70
58
 90
2
176
1
 90
2
176
1
 90
0
176
1
 90
2
176
1
 40
0.6
176
1
 40
30.0
176
1
 62
7
420
16777215
176
1
 90
1
176
1
 90
4
176
1
 62
7
176
1
 62
257
176
1
 90
1
176
1
 90
1
176
1
 40
1.0
176
1
 90
8
176
1
 62
7
176
1
 40
1.0
176
1
 90
1
176
1
 90
6
176
1
 90
2
176
1
 62
7
176
1
 90
5
176
1
 90
0
176
1
 90
0
176
1
290
0
176
1
 90
1
176
1
 40
0.0
176
1
 90
0
176
1
290
0
176
1
290
1
176
1
290
1
176
1
290
0
176
1
290
0
176
1
290
0
176
1
290
0
176
1
290
0
176
1
290
0
176
1
 90
50
176
1
 40
0.0
176
1
 40
1.0
176
1
 90
0
176
1
 62
18
420
0
176
1
 90
50
176
1
 90
3
176
1
 62
5
420
255
176
1
290
0
176
1
 90
50
176
1
 90
50
176
1
 90
50
176
1
290
0
176
1
 90
50
176
1
 62
256
176
0
 40
1.0
176
0
 90
2
176
1
  1
strokes_ogs.tif
176
1
290
0
176
1
 40
1.0
176
1
 40
1.0
176
1
  0
VISUALSTYLE
  5
63
102
{ACAD_REACTORS
330
16
102
}
330
16
100
AcDbVisualStyle
  2
FlatWithEdges
 70
1
177
3
291
1
 70
58
 90
2
176
1
 90
2
176
1
 90
0
176
1
 90
2
176
1
 40
0.6
176
1
 40
30.0
176
1
 62
7
420
16777215
176
1
 90
1
176
1
 90
4
176
1
 62
7
176
1
 62
257
176
1
 90
1
176
1
 90
1
176
1
 40
1.0
176
1
 90
8
176
1
 62
7
176
1
 40
1.0
176
1
 90
1
176
1
 90
6
176
1
 90
2
176
1
 62
7
176
1
 90
5
176
1
 90
0
176
1
 90
0
176
1
290
0
176
1
 90
1
176
1
 40
0.0
176
1
 90
0
176
1
290
0
176
1
290
1
176
1
290
1
176
1
290
0
176
1
290
0
176
1
290
0
176
1
290
0
176
1
290
0
176
1
290
0
176
1
 90
50
176
1
 40
0.0
176
1
 40
1.0
176
1
 90
0
176
1
 62
18
420
0
176
1
 90
50
176
1
 90
3
176
1
 62
5
420
255
176
1
290
0
176
1
 90
50
176
1
 90
50
176
1
 90
50
176
1
290
0
176
1
 90
50
176
1
 62
256
176
0
 40
1.0
176
0
 90
2
176
1
  1
strokes_ogs.tif
176
1
290
0
176
1
 40
1.0
176
1
 40
1.0
176
1
  0
VISUALSTYLE
  5
64
102
{ACAD_REACTORS
330
16
102
}
330
16
100
AcDbVisualStyle
  2
Gouraud
 70
2
177
3
291
1
 70
58
 90
2
176
1
 90
2
176
1
 90
0
176
1
 90
2
176
1
 40
0.6
176
1
 40
30.0
176
1
 62
7
420
16777215
176
1
 90
1
176
1
 90
4
176
1
 62
7
176
1
 62
257
176
1
 90
1
176
1
 90
1
176
1
 40
1.0
176
1
 90
8
176
1
 62
7
176
1
 40
1.0
176
1
 90
1
176
1
 90
6
176
1
 90
2
176
1
 62
7
176
1
 90
5
176
1
 90
0
176
1
 90
0
176
1
290
0
176
1
 90
1
176
1
 40
0.0
176
1
 90
0
176
1
290
0
176
1
290
1
176
1
290
1
176
1
290
0
176
1
290
0
176
1
290
0
176
1
290
0
176
1
290
0
176
1
290
0
176
1
 90
50
176
1
 40
0.0
176
1
 40
1.0
176
1
 90
0
176
1
 62
18
420
0
176
1
 90
50
176
1
 90
3
176
1
 62
5
420
255
176
1
290
0
176
1
 90
50
176
1
 90
50
176
1
 90
50
176
1
290
0
176
1
 90
50
176
1
 62
256
176
0
 40
1.0
176
0
 90
2
176
1
  1
strokes_ogs.tif
176
1
290
0
176
1
 40
1.0
176
1
 40
1.0
176
1
  0
VISUALSTYLE
  5
65
102
{ACAD_REACTORS
330
16
102
}
330
16
100
AcDbVisualStyle
  2
GouraudWithEdges
 70
3
177
3
291
1
 70
58
 90
2
176
1
 90
2
176
1
 90
0
176
1
 90
2
176
1
 40
0.6
176
1
 40
30.0
176
1
 62
7
420
16777215
176
1
 90
1
176
1
 90
4
176
1
 62
7
176
1
 62
257
176
1
 90
1
176
1
 90
1
176
1
 40
1.0
176
1
 90
8
176
1
 62
7
176
1
 40
1.0
176
1
 90
1
176
1
 90
6
176
1
 90
2
176
1
 62
7
176
1
 90
5
176
1
 90
0
176
1
 90
0
176
1
290
0
176
1
 90
1
176
1
 40
0.0
176
1
 90
0
176
1
290
0
176
1
290
1
176
1
290
1
176
1
290
0
176
1
290
0
176
1
290
0
176
1
290
0
176
1
290
0
176
1
290
0
176
1
 90
50
176
1
 40
0.0
176
1
 40
1.0
176
1
 90
0
176
1
 62
18
420
0
176
1
 90
50
176
1
 90
3
176
1
 62
5
420
255
176
1
290
0
176
1
 90
50
176
1
 90
50
176
1
 90
50
176
1
290
0
176
1
 90
50
176
1
 62
256
176
0
 40
1.0
176
0
 90
2
176
1
  1
strokes_ogs.tif
176
1
290
0
176
1
 40
1.0
176
1
 40
1.0
176
1
  0
VISUALSTYLE
  5
66
102
{ACAD_REACTORS
330
16
102
}
330
16
100
AcDbVisualStyle
  2
Hidden
 70
6
177
3
291
0
 70
58
 90
2
176
1
 90
2
176
1
 90
0
176
1
 90
1
176
1
 40
0.6
176
1
 40
30.0
176
1
 62
7
420
16777215
176
1
 90
1
176
1
 90
4
176
1
 62
7
176
1
 62
257
176
1
 90
1
176
1
 90
1
176
1
 40
1.0
176
1
 90
8
176
1
 62
7
176
1
 40
1.0
176
1
 90
1
176
1
 90
6
176
1
 90
2
176
1
 62
7
176
1
 90
5
176
1
 90
0
176
1
 90
0
176
1
290
0
176
1
 90
1
176
1
 40
0.0
176
1
 90
0
176
1
290
0
176
1
290
1
176
1
290
1
176
1
290
0
176
1
290
0
176
1
290
0
176
1
290
0
176
1
290
0
176
1
290
0
176
1
 90
50
176
1
 40
0.0
176
1
 40
1.0
176
1
 90
0
176
1
 62
18
420
0
176
1
 90
50
176
1
 90
3
176
1
 62
5
420
255
176
1
290
0
176
1
 90
50
176
1
 90
50
176
1
 90
50
176
1
290
0
176
1
 90
50
176
1
 62
256
176
0
 40
1.0
176
0
 90
2
176
1
  1
strokes_ogs.tif
176
1
290
0
176
1
 40
1.0
176
1
 40
1.0
176
1
  0
VISUALSTYLE
  5
67
102
{ACAD_REACTORS
330
16
102
}
330
16
100
AcDbVisualStyle
  2
JitterOff
 70
20
177
3
291
1
 70
58
 90
2
176
1
 90
2
176
1
 90
0
176
1
 90
2
176
1
 40
0.6
176
1
 40
30.0
176
1
 62
7
420
16777215
176
1
 90
1
176
1
 90
4
176
1
 62
7
176
1
 62
257
176
1
 90
1
176
1
 90
1
176
1
 40
1.0
176
1
 90
8
176
1
 62
7
176
1
 40
1.0
176
1
 90
1
176
1
 90
6
176
1
 90
2
176
1
 62
7
176
1
 90
5
176
1
 90
0
176
1
 90
0
176
1
290
0
176
1
 90
1
176
1
 40
0.0
176
1
 90
0
176
1
290
0
176
1
290
1
176
1
290
1
176
1
290
0
176
1
290
0
176
1
290
0
176
1
290
0
176
1
290
0
176
1
290
0
176
1
 90
50
176
1
 40
0.0
176
1
 40
1.0
176
1
 90
0
176
1
 62
18
420
0
176
1
 90
50
176
1
 90
3
176
1
 62
5
420
255
176
1
290
0
176
1
 90
50
176
1
 90
50
176
1
 90
50
176
1
290
0
176
1
 90
50
176
1
 62
256
176
0
 40
1.0
176
0
 90
2
176
1
  1
strokes_ogs.tif
176
1
290
0
176
1
 40
1.0
176
1
 40
1.0
176
1
  0
VISUALSTYLE
  5
68
102
{ACAD_REACTORS
330
16
102
}
330
16
100
AcDbVisualStyle
  2
Linepattern
 70
14
177
3
291
1
 70
58
 90
2
176
1
 90
2
176
1
 90
0
176
1
 90
2
176
1
 40
0.6
176
1
 40
30.0
176
1
 62
7
420
16777215
176
1
 90
1
176
1
 90
4
176
1
 62
7
176
1
 62
257
176
1
 90
1
176
1
 90
1
176
1
 40
1.0
176
1
 90
8
176
1
 62
7
176
1
 40
1.0
176
1
 90
1
176
1
 90
6
176
1
 90
2
176
1
 62
7
176
1
 90
5
176
1
 90
0
176
1
 90
0
176
1
290
0
176
1
 90
1
176
1
 40
0.0
176
1
 90
0
176
1
290
0
176
1
290
1
176
1
290
1
176
1
290
0
176
1
290
0
176
1
290
0
176
1
290
0
176
1
290
0
176
1
290
0
176
1
 90
50
176
1
 40
0.0
176
1
 40
1.0
176
1
 90
0
176
1
 62
18
420
0
176
1
 90
50
176
1
 90
3
176
1
 62
5
420
255
176
1
290
0
176
1
 90
50
176
1
 90
50
176
1
 90
50
176
1
290
0
176
1
 90
50
176
1
 62
256
176
0
 40
1.0
176
0
 90
2
176
1
  1
strokes_ogs.tif
176
1
290
0
176
1
 40
1.0
176
1
 40
1.0
176
1
  0
VISUALSTYLE
  5
69
102
{ACAD_REACTORS
330
16
102
}
330
16
100
AcDbVisualStyle
  2
Modeling
 70
10
177
3
291
0
 70
58
 90
2
176
1
 90
2
176
1
 90
0
176
1
 90
2
176
1
 40
0.6
176
1
 40
30.0
176
1
 62
7
420
16777215
176
1
 90
1
176
1
 90
4
176
1
 62
7
176
1
 62
257
176
1
 90
1
176
1
 90
1
176
1
 40
1.0
176
1
 90
8
176
1
 62
7
176
1
 40
1.0
176
1
 90
1
176
1
 90
6
176
1
 90
2
176
1
 62
7
176
1
 90
5
176
1
 90
0
176
1
 90
0
176
1
290
0
176
1
 90
1
176
1
 40
0.0
176
1
 90
0
176
1
290
0
176
1
290
1
176
1
290
1
176
1
290
0
176
1
290
0
176
1
290
0
176
1
290
0
176
1
290
0
176
1
290
0
176
1
 90
50
176
1
 40
0.0
176
1
 40
1.0
176
1
 90
0
176
1
 62
18
420
0
176
1
 90
50
176
1
 90
3
176
1
 62
5
420
255
176
1
290
0
176
1
 90
50
176
1
 90
50
176
1
 90
50
176
1
290
0
176
1
 90
50
176
1
 62
256
176
0
 40
1.0
176
0
 90
2
176
1
  1
strokes_ogs.tif
176
1
290
0
176
1
 40
1.0
176
1
 40
1.0
176
1
  0
VISUALSTYLE
  5
6A
102
{ACAD_REACTORS
330
16
102
}
330
16
100
AcDbVisualStyle
  2
OverhangOff
 70
21
177
3
291
1
 70
58
 90
2
176
1
 90
2
176
1
 90
0
176
1
 90
2
176
1
 40
0.6
176
1
 40
30.0
176
1
 62
7
420
16777215
176
1
 90
1
176
1
 90
4
176
1
 62
7
176
1
 62
257
176
1
 90
1
176
1
 90
1
176
1
 40
1.0
176
1
 90
8
176
1
 62
7
176
1
 40
1.0
176
1
 90
1
176
1
 90
6
176
1
 90
2
176
1
 62
7
176
1
 90
5
176
1
 90
0
176
1
 90
0
176
1
290
0
176
1
 90
1
176
1
 40
0.0
176
1
 90
0
176
1
290
0
176
1
290
1
176
1
290
1
176
1
290
0
176
1
290
0
176
1
290
0
176
1
290
0
176
1
290
0
176
1
290
0
176
1
 90
50
176
1
 40
0.0
176
1
 40
1.0
176
1
 90
0
176
1
 62
18
420
0
176
1
 90
50
176
1
 90
3
176
1
 62
5
420
255
176
1
290
0
176
1
 90
50
176
1
 90
50
176
1
 90
50
176
1
290
0
176
1
 90
50
176
1
 62
256
176
0
 40
1.0
176
0
 90
2
176
1
  1
strokes_ogs.tif
176
1
290
0
176
1
 40
1.0
176
1
 40
1.0
176
1
  0
VISUALSTYLE
  5
6B
102
{ACAD_REACTORS
330
16
102
}
330
16
100
AcDbVisualStyle
  2
Realistic
 70
8
177
3
291
0
 70
58
 90
2
176
1
 90
2
176
1
 90
0
176
1
 90
2
176
1
 40
0.6
176
1
 40
30.0
176
1
 62
7
420
16777215
176
1
 90
1
176
1
 90
4
176
1
 62
7
176
1
 62
257
176
1
 90
1
176
1
 90
1
176
1
 40
1.0
176
1
 90
8
176
1
 62
7
176
1
 40
1.0
176
1
 90
1
176
1
 90
6
176
1
 90
2
176
1
 62
7
176
1
 90
5
176
1
 90
0
176
1
 90
0
176
1
290
0
176
1
 90
1
176
1
 40
0.0
176
1
 90
0
176
1
290
0
176
1
290
1
176
1
290
1
176
1
290
0
176
1
290
0
176
1
290
0
176
1
290
0
176
1
290
0
176
1
290
0
176
1
 90
50
176
1
 40
0.0
176
1
 40
1.0
176
1
 90
0
176
1
 62
18
420
0
176
1
 90
50
176
1
 90
3
176
1
 62
5
420
255
176
1
290
0
176
1
 90
50
176
1
 90
50
176
1
 90
50
176
1
290
0
176
1
 90
50
176
1
 62
256
176
0
 40
1.0
176
0
 90
2
176
1
  1
strokes_ogs.tif
176
1
290
0
176
1
 40
1.0
176
1
 40
1.0
176
1
  0
VISUALSTYLE
  5
6C
102
{ACAD_REACTORS
330
16
102
}
330
16
100
AcDbVisualStyle
  2
Shaded
 70
27
177
3
291
0
 70
58
 90
2
176
1
 90
2
176
1
 90
0
176
1
 90
2
176
1
 40
0.6
176
1
 40
30.0
176
1
 62
7
420
16777215
176
1
 90
1
176
1
 90
4
176
1
 62
7
176
1
 62
257
176
1
 90
1
176
1
 90
1
176
1
 40
1.0
176
1
 90
8
176
1
 62
7
176
1
 40
1.0
176
1
 90
1
176
1
 90
6
176
1
 90
2
176
1
 62
7
176
1
 90
5
176
1
 90
0
176
1
 90
0
176
1
290
0
176
1
 90
1
176
1
 40
0.0
176
1
 90
0
176
1
290
0
176
1
290
1
176
1
290
1
176
1
290
0
176
1
290
0
176
1
290
0
176
1
290
0
176
1
290
0
176
1
290
0
176
1
 90
50
176
1
 40
0.0
176
1
 40
1.0
176
1
 90
0
176
1
 62
18
420
0
176
1
 90
50
176
1
 90
3
176
1
 62
5
420
255
176
1
290
0
176
1
 90
50
176
1
 90
50
176
1
 90
50
176
1
290
0
176
1
 90
50
176
1
 62
256
176
0
 40
1.0
176
0
 90
2
176
1
  1
strokes_ogs.tif
176
1
290
0
176
1
 40
1.0
176
1
 40
1.0
176
1
  0
VISUALSTYLE
  5
6D
102
{ACAD_REACTORS
330
16
102
}
330
16
100
AcDbVisualStyle
  2
Shaded with edges
 70
26
177
3
291
0
 70
58
 90
2
176
1
 90
2
176
1
 90
0
176
1
 90
2
176
1
 40
0.6
176
1
 40
30.0
176
1
 62
7
420
16777215
176
1
 90
1
176
1
 90
4
176
1
 62
7
176
1
 62
257
176
1
 90
1
176
1
 90
1
176
1
 40
1.0
176
1
 90
8
176
1
 62
7
176
1
 40
1.0
176
1
 90
1
176
1
 90
6
176
1
 90
2
176
1
 62
7
176
1
 90
5
176
1
 90
0
176
1
 90
0
176
1
290
0
176
1
 90
1
176
1
 40
0.0
176
1
 90
0
176
1
290
0
176
1
290
1
176
1
290
1
176
1
290
0
176
1
290
0
176
1
290
0
176
1
290
0
176
1
290
0
176
1
290
0
176
1
 90
50
176
1
 40
0.0
176
1
 40
1.0
176
1
 90
0
176
1
 62
18
420
0
176
1
 90
50
176
1
 90
3
176
1
 62
5
420
255
176
1
290
0
176
1
 90
50
176
1
 90
50
176
1
 90
50
176
1
290
0
176
1
 90
50
176
1
 62
256
176
0
 40
1.0
176
0
 90
2
176
1
  1
strokes_ogs.tif
176
1
290
0
176
1
 40
1.0
176
1
 40
1.0
176
1
  0
VISUALSTYLE
  5
6E
102
{ACAD_REACTORS
330
16
102
}
330
16
100
AcDbVisualStyle
  2
Shades of Gray
 70
23
177
3
291
0
 70
58
 90
2
176
1
 90
2
176
1
 90
0
176
1
 90
2
176
1
 40
0.6
176
1
 40
30.0
176
1
 62
7
420
16777215
176
1
 90
1
176
1
 90
4
176
1
 62
7
176
1
 62
257
176
1
 90
1
176
1
 90
1
176
1
 40
1.0
176
1
 90
8
176
1
 62
7
176
1
 40
1.0
176
1
 90
1
176
1
 90
6
176
1
 90
2
176
1
 62
7
176
1
 90
5
176
1
 90
0
176
1
 90
0
176
1
290
0
176
1
 90
1
176
1
 40
0.0
176
1
 90
0
176
1
290
0
176
1
290
1
176
1
290
1
176
1
290
0
176
1
290
0
176
1
290
0
176
1
290
0
176
1
290
0
176
1
290
0
176
1
 90
50
176
1
 40
0.0
176
1
 40
1.0
176
1
 90
0
176
1
 62
18
420
0
176
1
 90
50
176
1
 90
3
176
1
 62
5
420
255
176
1
290
0
176
1
 90
50
176
1
 90
50
176
1
 90
50
176
1
290
0
176
1
 90
50
176
1
 62
256
176
0
 40
1.0
176
0
 90
2
176
1
  1
strokes_ogs.tif
176
1
290
0
176
1
 40
1.0
176
1
 40
1.0
176
1
  0
VISUALSTYLE
  5
6F
102
{ACAD_REACTORS
330
16
102
}
330
16
100
AcDbVisualStyle
  2
Sketchy
 70
24
177
3
291
0
 70
58
 90
2
176
1
 90
2
176
1
 90
0
176
1
 90
1
176
1
 40
0.6
176
1
 40
30.0
176
1
 62
7
420
16777215
176
1
 90
1
176
1
 90
4
176
1
 62
7
176
1
 62
257
176
1
 90
1
176
1
 90
1
176
1
 40
1.0
176
1
 90
8
176
1
 62
7
176
1
 40
1.0
176
1
 90
1
176
1
 90
6
176
1
 90
2
176
1
 62
7
176
1
 90
5
176
1
 90
0
176
1
 90
0
176
1
290
0
176
1
 90
1
176
1
 40
0.0
176
1
 90
0
176
1
290
0
176
1
290
1
176
1
290
1
176
1
290
0
176
1
290
0
176
1
290
0
176
1
290
0
176
1
290
0
176
1
290
0
176
1
 90
50
176
1
 40
0.0
176
1
 40
1.0
176
1
 90
0
176
1
 62
18
420
0
176
1
 90
50
176
1
 90
3
176
1
 62
5
420
255
176
1
290
0
176
1
 90
50
176
1
 90
50
176
1
 90
50
176
1
290
0
176
1
 90
50
176
1
 62
256
176
0
 40
1.0
176
0
 90
2
176
1
  1
strokes_ogs.tif
176
1
290
0
176
1
 40
1.0
176
1
 40
1.0
176
1
  0
VISUALSTYLE
  5
70
102
{ACAD_REACTORS
330
16
102
}
330
16
100
AcDbVisualStyle
  2
Thicken
 70
13
177
3
291
1
 70
58
 90
2
176
1
 90
2
176
1
 90
0
176
1
 90
2
176
1
 40
0.6
176
1
 40
30.0
176
1
 62
7
420
16777215
176
1
 90
1
176
1
 90
4
176
1
 62
7
176
1
 62
257
176
1
 90
1
176
1
 90
1
176
1
 40
1.0
176
1
 90
8
176
1
 62
7
176
1
 40
1.0
176
1
 90
1
176
1
 90
6
176
1
 90
2
176
1
 62
7
176
1
 90
5
176
1
 90
0
176
1
 90
0
176
1
290
0
176
1
 90
1
176
1
 40
0.0
176
1
 90
0
176
1
290
0
176
1
290
1
176
1
290
1
176
1
290
0
176
1
290
0
176
1
290
0
176
1
290
0
176
1
290
0
176
1
290
0
176
1
 90
50
176
1
 40
0.0
176
1
 40
1.0
176
1
 90
0
176
1
 62
18
420
0
176
1
 90
50
176
1
 90
3
176
1
 62
5
420
255
176
1
290
0
176
1
 90
50
176
1
 90
50
176
1
 90
50
176
1
290
0
176
1
 90
50
176
1
 62
256
176
0
 40
1.0
176
0
 90
2
176
1
  1
strokes_ogs.tif
176
1
290
0
176
1
 40
1.0
176
1
 40
1.0
176
1
  0
VISUALSTYLE
  5
71
102
{ACAD_REACTORS
330
16
102
}
330
16
100
AcDbVisualStyle
  2
Wireframe
 70
5
177
3
291
0
 70
58
 90
2
176
1
 90
2
176
1
 90
0
176
1
 90
0
176
1
 40
0.6
176
1
 40
30.0
176
1
 62
7
420
16777215
176
1
 90
1
176
1
 90
4
176
1
 62
7
176
1
 62
257
176
1
 90
1
176
1
 90
1
176
1
 40
1.0
176
1
 90
8
176
1
 62
7
176
1
 40
1.0
176
1
 90
1
176
1
 90
6
176
1
 90
2
176
1
 62
7
176
1
 90
5
176
1
 90
0
176
1
 90
0
176
1
290
0
176
1
 90
1
176
1
 40
0.0
176
1
 90
0
176
1
290
0
176
1
290
1
176
1
290
1
176
1
290
0
176
1
290
0
176
1
290
0
176
1
290
0
176
1
290
0
176
1
290
0
176
1
 90
50
176
1
 40
0.0
176
1
 40
1.0
176
1
 90
0
176
1
 62
18
420
0
176
1
 90
50
176
1
 90
3
176
1
 62
5
420
255
176
1
290
0
176
1
 90
50
176
1
 90
50
176
1
 90
50
176
1
290
0
176
1
 90
50
176
1
 62
256
176
0
 40
1.0
176
0
 90
2
176
1
  1
strokes_ogs.tif
176
1
290
0
176
1
 40
1.0
176
1
 40
1.0
176
1
  0
VISUALSTYLE
  5
72
102
{ACAD_REACTORS
330
16
102
}
330
16
100
AcDbVisualStyle
  2
X-Ray
 70
25
177
3
291
0
 70
58
 90
2
176
1
 90
2
176
1
 90
0
176
1
 90
2
176
1
 40
0.5
176
1
 40
30.0
176
1
 62
7
420
16777215
176
1
 90
1
176
1
 90
4
176
1
 62
7
176
1
 62
257
176
1
 90
1
176
1
 90
1
176
1
 40
1.0
176
1
 90
8
176
1
 62
7
176
1
 40
1.0
176
1
 90
1
176
1
 90
6
176
1
 90
2
176
1
 62
7
176
1
 90
5
176
1
 90
0
176
1
 90
0
176
1
290
0
176
1
 90
1
176
1
 40
0.0
176
1
 90
0
176
1
290
0
176
1
290
1
176
1
290
1
176
1
290
0
176
1
290
0
176
1
290
0
176
1
290
0
176
1
290
0
176
1
290
0
176
1
 90
50
176
1
 40
0.0
176
1
 40
1.0
176
1
 90
0
176
1
 62
18
420
0
176
1
 90
50
176
1
 90
3
176
1
 62
5
420
255
176
1
290
0
176
1
 90
50
176
1
 90
50
176
1
 90
50
176
1
290
0
176
1
 90
50
176
1
 62
256
176
0
 40
1.0
176
0
 90
2
176
1
  1
strokes_ogs.tif
176
1
290
0
176
1
 40
1.0
176
1
 40
1.0
176
1
  0
DICTIONARYVAR
  5
136
330
2D
100
DictionaryVariables
280
0
  1
1.4.4 @ 2026-07-14T04:30:17.014142+00:00
  0
ENDSEC
  0
EOF
