<?xml version="1.0" encoding="utf-8" ?>
<svg baseProfile="full" height="165.77270299999998cm" version="1.1" viewBox="0 0 168.0 165.77270299999998" width="168.0cm" xmlns="http://www.w3.org/2000/svg" xmlns:ev="http://www.w3.org/2001/xml-events" xmlns:xlink="http://www.w3.org/1999/xlink"><defs /><rect fill="#f7f3ea" height="157.77270299999998" stroke="#333" stroke-width="0.15" width="160.0" x="4.0" y="4.0" /><text fill="#000" font-family="sans-serif" font-size="1.4" x="4.0" y="3.0">PLANO DE CORTE — ancho 160 cm — largo 1.58 m</text><polygon fill="#cfe3f7" fill-opacity="0.5" points="4.0,74.267704 12.00722,74.267704 11.601177,17.827772 15.824922,5.262131 13.300661,4.0 12.604548000000001,4.928368 12.408809,5.189983 12.212994,5.452847 12.017382000000001,5.717166 11.822256,5.98315 11.6279,6.251011999999999 11.434603,6.520965 11.242656,6.793221 11.052355,7.067997 10.863996,7.345508 10.677882,7.6259689999999996 10.494319,7.909597 10.313615,8.196606 10.136242,8.486951000000001 9.963303,8.779094 9.795078,9.070626 9.63075,9.360295 9.469275,9.647313 9.309653,9.930903 9.150927,10.210297 8.992184,10.484739000000001 8.832553,10.753489 8.671203,11.015827 8.507341,11.271062 8.340206,11.518545 8.169058,11.757678 7.993161000000001,11.987943000000001 7.810869,12.210004 7.619404,12.426846 7.41765,12.641195 7.206278,12.853889 6.986212,13.065588 6.7584420000000005,13.27698 6.524011,13.488792 6.322425,13.667704 4.0,13.667704 4.0,74.267704" stroke="#1f6fb2" stroke-width="0.1" /><text fill="#0a3d62" font-family="sans-serif" font-size="1.6" text-anchor="middle" x="9.912461" y="39.133852">09</text><polygon fill="#cfe3f7" fill-opacity="0.5" points="16.824922,74.267704 24.832142,74.267704 24.426099,17.827772 28.649844,5.262131 26.125583,4.0 25.429470000000002,4.928368 25.233731,5.189983 25.037916000000003,5.452847 24.842304000000002,5.717166 24.647178,5.98315 24.452822,6.251011999999999 24.259525,6.520965 24.067578,6.793221 23.877277,7.067997 23.688918,7.345508 23.502804,7.6259689999999996 23.319241,7.909597 23.138537,8.196606 22.961164,8.486951000000001 22.788225,8.779094 22.62,9.070626 22.455672,9.360295 22.294197,9.647313 22.134575,9.930903 21.975849,10.210297 21.817106000000003,10.484739000000001 21.657475,10.753489 21.496125,11.015827 21.332263,11.271062 21.165128000000003,11.518545 20.99398,11.757678 20.818083,11.987943000000001 20.635791,12.210004 20.444326,12.426846 20.242572000000003,12.641195 20.031200000000002,12.853889 19.811134000000003,13.065588 19.583364,13.27698 19.348933000000002,13.488792 19.147347,13.667704 16.824922,13.667704 16.824922,74.267704" stroke="#1f6fb2" stroke-width="0.1" /><text fill="#0a3d62" font-family="sans-serif" font-size="1.6" text-anchor="middle" x="22.737383" y="39.133852">09</text><polygon fill="#cfe3f7" fill-opacity="0.5" points="29.649844,74.233067 57.349844000000004,74.233067 57.349844000000004,26.857360999999997 56.749912,26.171653999999997 56.396521,25.768483 56.040528,25.363836 55.681394,24.957849 55.318277,24.550319 54.95034,24.141047999999998 54.576750000000004,23.729844999999997 54.196687,23.316536 53.810258000000005,22.901911 53.420919,22.488083 53.034441,22.076037 52.655385,21.665301 52.288183000000004,21.255467 51.937261,20.846346999999998 51.606989,20.437973 51.30162,20.030609 51.025183999999996,19.624724 50.781365,19.22094 50.57334,18.819888 50.40363,18.421923 50.273231,18.024288 50.180244,17.618925 50.12149,17.199514999999998 50.095352000000005,16.764596 50.100468,16.313914 50.135391999999996,15.847847 50.198454,15.367222 50.287714,14.873137 50.400976,14.366815 50.535817,13.849511 50.689639,13.32245 50.859709,12.78679 51.043189999999996,12.243606999999999 51.237178,11.693886 51.438712,11.138521 51.970248,9.693617 38.924533000000004,4.0 38.254392,4.893731 38.058653,5.155346 37.862838,5.41821 37.667226,5.682529 37.472100000000005,5.948513 37.277744,6.216374999999999 37.084447000000004,6.486328 36.8925,6.758584 36.702199,7.03336 36.51384,7.310871 36.327726,7.5913319999999995 36.144163000000006,7.87496 35.963459,8.161969 35.786086000000005,8.452314000000001 35.613147,8.744457 35.444922000000005,9.035989 35.280594,9.325658 35.119119,9.612676 34.959497,9.896266 34.800771000000005,10.17566 34.642028,10.450102000000001 34.482397000000006,10.718852 34.321047,10.98119 34.157185,11.236425 33.990050000000004,11.483908 33.818902,11.723041 33.643005,11.953306000000001 33.460713,12.175367 33.269248000000005,12.392209 33.067494,12.606558 32.856122,12.819252 32.636056,13.030951 32.408286000000004,13.242343 32.173855,13.454155 31.972269,13.633067 29.649844,13.633067 29.649844,74.233067" stroke="#1f6fb2" stroke-width="0.1" /><text fill="#0a3d62" font-family="sans-serif" font-size="1.6" text-anchor="middle" x="43.499844" y="39.1165335">01</text><polygon fill="#cfe3f7" fill-opacity="0.5" points="58.349844000000004,74.233067 86.04984400000001,74.233067 86.04984400000001,26.857360999999997 85.44991200000001,26.171653999999997 85.096521,25.768483 84.74052800000001,25.363836 84.381394,24.957849 84.01827700000001,24.550319 83.65034,24.141047999999998 83.27675,23.729844999999997 82.896687,23.316536 82.51025800000001,22.901911 82.120919,22.488083 81.734441,22.076037 81.35538500000001,21.665301 80.988183,21.255467 80.637261,20.846346999999998 80.306989,20.437973 80.00162,20.030609 79.725184,19.624724 79.48136500000001,19.22094 79.27334,18.819888 79.10363000000001,18.421923 78.973231,18.024288 78.880244,17.618925 78.82149000000001,17.199514999999998 78.79535200000001,16.764596 78.800468,16.313914 78.835392,15.847847 78.898454,15.367222 78.98771400000001,14.873137 79.100976,14.366815 79.235817,13.849511 79.389639,13.32245 79.559709,12.78679 79.74319,12.243606999999999 79.937178,11.693886 80.138712,11.138521 80.670248,9.693617 67.624533,4.0 66.95439200000001,4.893731 66.75865300000001,5.155346 66.562838,5.41821 66.367226,5.682529 66.1721,5.948513 65.977744,6.216374999999999 65.784447,6.486328 65.5925,6.758584 65.40219900000001,7.03336 65.21384,7.310871 65.027726,7.5913319999999995 64.84416300000001,7.87496 64.663459,8.161969 64.486086,8.452314000000001 64.313147,8.744457 64.14492200000001,9.035989 63.980594,9.325658 63.819119,9.612676 63.659497,9.896266 63.50077100000001,10.17566 63.342028000000006,10.450102000000001 63.18239700000001,10.718852 63.021047,10.98119 62.857185,11.236425 62.69005000000001,11.483908 62.518902000000004,11.723041 62.343005000000005,11.953306000000001 62.160713,12.175367 61.96924800000001,12.392209 61.767494000000006,12.606558 61.556122,12.819252 61.336056000000006,13.030951 61.10828600000001,13.242343 60.873855000000006,13.454155 60.67226900000001,13.633067 58.349844000000004,13.633067 58.349844000000004,74.233067" stroke="#1f6fb2" stroke-width="0.1" /><text fill="#0a3d62" font-family="sans-serif" font-size="1.6" text-anchor="middle" x="72.199844" y="39.1165335">01</text><polygon fill="#cfe3f7" fill-opacity="0.5" points="93.03180700000001,69.504999 126.01223300000001,69.504999 132.005715,18.083768 131.179585,17.128279 130.634412,16.504899 130.07925,15.884431 129.51131700000002,15.27108 128.930261,14.669902 128.338303,14.082550999999999 127.73659500000001,13.508234 127.12592500000001,12.945787 126.50706600000001,12.394041999999999 125.88078300000001,11.85183 125.247825,11.317979 124.608934,10.791319999999999 123.96483800000001,10.270685 123.31559700000001,9.754389 122.65924500000001,9.240967999999999 121.99309600000001,8.73265 121.31577200000001,8.233388999999999 120.626045,7.747351 119.922629,7.278757 119.20418800000002,6.831906999999999 118.469368,6.411204 117.71682000000001,6.021176 116.945267,5.666504 116.155122,5.352637 115.35156800000001,5.0833639999999995 114.54089300000001,4.855059 113.725862,4.661752 112.90849800000001,4.4974 112.09067100000001,4.356089 111.274173,4.232055 110.46076500000001,4.1196839999999995 109.54932300000002,4.0 108.62017800000001,4.07098 107.78963100000001,4.1398399999999995 106.955752,4.219907 106.120061,4.316743 105.28409200000002,4.436052 104.44943800000001,4.5836879999999995 103.617816,4.765642 102.791234,4.987994 101.97440300000001,5.255898 101.173499,5.568702999999999 100.390718,5.921106 99.625241,6.308571 98.876006,6.726751 98.14190400000001,7.17143 97.421816,7.638501 96.71464300000001,8.123944999999999 96.01932500000001,8.623814 95.33485100000001,9.134208000000001 94.65944100000002,9.651902 93.990171,10.176922 93.326998,10.713008 92.672408,11.262953 92.029268,11.829329 91.40050500000001,12.414741 90.78912000000001,13.021806999999999 90.19821,13.653137999999998 89.63097200000001,14.311306 89.091192,14.99821 88.584787,15.710249999999998 88.11044100000001,16.435789 87.66015900000001,17.165073 87.04984400000001,18.182598 93.03180700000001,69.504999" stroke="#1f6fb2" stroke-width="0.1" /><text fill="#0a3d62" font-family="sans-serif" font-size="1.6" text-anchor="middle" x="109.52777950000001" y="36.7524995">04</text><polygon fill="#cfe3f7" fill-opacity="0.5" points="9.981963,140.77270299999998 42.962389,140.77270299999998 48.955871,89.351472 48.129741,88.395983 47.584568000000004,87.77260299999999 47.029406,87.15213499999999 46.461473,86.53878399999999 45.880417,85.93760599999999 45.288459,85.35025499999999 44.686751,84.775938 44.076081,84.21349099999999 43.457222,83.661746 42.830939,83.11953399999999 42.197981,82.58568299999999 41.55909,82.059024 40.914994,81.538389 40.265753000000004,81.022093 39.609401000000005,80.50867199999999 38.943252,80.00035399999999 38.265928,79.501093 37.576201,79.01505499999999 36.872785,78.546461 36.154344,78.099611 35.419524,77.67890799999999 34.666976000000005,77.28887999999999 33.895423,76.934208 33.105278,76.620341 32.301724,76.351068 31.491049,76.12276299999999 30.676018,75.92945599999999 29.858654,75.765104 29.040827,75.62379299999999 28.224329,75.499759 27.410921000000002,75.38738799999999 26.499479,75.267704 25.570334000000003,75.338684 24.739787,75.407544 23.905908,75.487611 23.070217,75.584447 22.234248,75.703756 21.399594,75.85139199999999 20.567972,76.033346 19.741390000000003,76.255698 18.924559000000002,76.523602 18.123655,76.836407 17.340874,77.18880999999999 16.575397000000002,77.576275 15.826162000000002,77.99445499999999 15.092060000000002,78.439134 14.371972000000001,78.906205 13.664799,79.391649 12.969481000000002,79.89151799999999 12.285007,80.401912 11.609597,80.91960599999999 10.940327000000002,81.444626 10.277154,81.980712 9.622564,82.53065699999999 8.979424000000002,83.097033 8.350661000000002,83.682445 7.739276,84.28951099999999 7.148365999999999,84.920842 6.581128,85.57901 6.041347999999999,86.265914 5.534943000000002,86.977954 5.060597000000001,87.703493 4.610315,88.43277699999999 4.0,89.450302 9.981963,140.77270299999998" stroke="#1f6fb2" stroke-width="0.1" /><text fill="#0a3d62" font-family="sans-serif" font-size="1.6" text-anchor="middle" x="26.4779355" y="108.0202035">04</text><polygon fill="#cfe3f7" fill-opacity="0.5" points="99.955871,87.966392 99.50075100000001,87.279729 99.212205,86.84411399999999 98.92371800000001,86.408048 98.635239,85.971184 98.346716,85.533176 98.058097,85.09367599999999 97.769331,84.65233799999999 97.48037500000001,84.208831 97.19161700000001,83.76344 96.90485000000001,83.317216 96.622592,82.870756 96.346953,82.42400799999999 96.08,81.97692599999999 95.823774,81.52950899999999 95.580284,81.081797 95.35149100000001,80.633862 95.139301,80.1858 94.94554500000001,79.73771199999999 94.771966,79.28968599999999 94.620213,78.84176 94.491816,78.39383199999999 94.387764,77.94394399999999 94.307322,77.488163 94.248704,77.024293 94.210513,76.552268 94.159257,75.267704 74.955871,75.267704 74.955871,135.26770399999998 99.955871,135.26770399999998 99.955871,87.966392 49.955871,87.966392 50.410991,87.279729 50.69953700000001,86.84411399999999 50.988024,86.408048 51.276503000000005,85.971184 51.565026,85.533176 51.853645,85.09367599999999 52.142411,84.65233799999999 52.431367,84.208831 52.720125,83.76344 53.006892,83.317216 53.28915000000001,82.870756 53.564789000000005,82.42400799999999 53.831742000000006,81.97692599999999 54.087968000000004,81.52950899999999 54.331458,81.081797 54.560251,80.633862 54.772441,80.1858 54.966197,79.73771199999999 55.139776,79.28968599999999 55.291529,78.84176 55.419926000000004,78.39383199999999 55.523978,77.94394399999999 55.604420000000005,77.488163 55.663038,77.024293 55.701229,76.552268 55.75248500000001,75.267704 74.955871,75.267704 74.955871,135.26770399999998 49.955871,135.26770399999998 49.955871,87.966392" stroke="#1f6fb2" stroke-width="0.1" /><text fill="#0a3d62" font-family="sans-serif" font-size="1.6" text-anchor="middle" x="74.955871" y="105.267704">02</text><polygon fill="#cfe3f7" fill-opacity="0.5" points="100.955871,86.539609 107.955871,90.949609 114.955871,86.539609 114.955871,75.267704 100.955871,75.267704 100.955871,86.539609" stroke="#1f6fb2" stroke-width="0.1" /><text fill="#0a3d62" font-family="sans-serif" font-size="1.6" text-anchor="middle" x="107.955871" y="83.1086565">10</text><polygon fill="#cfe3f7" fill-opacity="0.5" points="115.955871,87.516831 115.985712,87.81981099999999 116.088418,88.158386 116.25520300000001,88.47041899999999 116.479657,88.743918 116.753156,88.96837199999999 117.065189,89.13515699999999 117.403764,89.23786299999999 117.706744,89.267704 139.204998,89.267704 139.507978,89.23786299999999 139.846553,89.13515699999999 140.158586,88.96837199999999 140.432085,88.743918 140.656539,88.47041899999999 140.823324,88.158386 140.92603,87.81981099999999 140.955871,87.516831 140.955871,77.018577 140.92603,76.71559699999999 140.823324,76.377022 140.656539,76.064989 140.432085,75.79149 140.158586,75.567036 139.846553,75.400251 139.507978,75.297545 139.204998,75.267704 117.706744,75.267704 117.403764,75.297545 117.065189,75.400251 116.753156,75.567036 116.479657,75.79149 116.25520300000001,76.064989 116.088418,76.377022 115.985712,76.71559699999999 115.955871,77.018577 115.955871,87.516831" stroke="#1f6fb2" stroke-width="0.1" /><text fill="#0a3d62" font-family="sans-serif" font-size="1.6" text-anchor="middle" x="128.455871" y="82.267704">05</text><polygon fill="#cfe3f7" fill-opacity="0.5" points="4.0,154.02182999999997 4.029841,154.32480999999999 4.132547,154.66338499999998 4.299332,154.975418 4.523786,155.24891699999998 4.7972850000000005,155.473371 5.109318,155.640156 5.4478930000000005,155.74286199999997 5.750873,155.77270299999998 27.249127,155.77270299999998 27.552107,155.74286199999997 27.890682,155.640156 28.202715,155.473371 28.476214,155.24891699999998 28.700668,154.975418 28.867453,154.66338499999998 28.970159,154.32480999999999 29.0,154.02182999999997 29.0,143.523576 28.970159,143.22059599999997 28.867453,142.88202099999998 28.700668,142.56998799999997 28.476214,142.29648899999998 28.202715,142.07203499999997 27.890682,141.90524999999997 27.552107,141.80254399999998 27.249127,141.77270299999998 5.750873,141.77270299999998 5.4478930000000005,141.80254399999998 5.109318,141.90524999999997 4.7972850000000005,142.07203499999997 4.523786,142.29648899999998 4.299332,142.56998799999997 4.132547,142.88202099999998 4.029841,143.22059599999997 4.0,143.523576 4.0,154.02182999999997" stroke="#1f6fb2" stroke-width="0.1" /><text fill="#0a3d62" font-family="sans-serif" font-size="1.6" text-anchor="middle" x="16.5" y="148.77270299999998">05</text><polygon fill="#cfe3f7" fill-opacity="0.5" points="69.109812,152.69876699999998 69.10827,152.21108599999997 69.12286,151.71610299999998 69.152042,151.214252 69.194218,150.705999 69.247736,150.19182399999997 69.310889,149.67220799999998 69.381927,149.147621 69.459058,148.61851499999997 69.540457,148.08531799999997 69.74864600000001,146.75158899999997 56.845692,141.77270299999998 56.206584,142.20681399999998 56.003755,142.343303 55.803425000000004,142.47560099999998 55.605097,142.60289999999998 55.408291,142.72445 55.212533,142.83956199999997 55.016683,142.94797999999997 54.818733,143.05025399999997 54.617676,143.14689299999998 54.4137,143.23780399999998 54.207108000000005,143.32284199999998 53.998204,143.40186599999998 53.787293000000005,143.474743 53.574684000000005,143.54134399999998 53.360684,143.601545 53.145601,143.655231 52.929643999999996,143.70231199999998 52.712165999999996,143.742901 52.492015,143.77748799999998 52.268762,143.80656299999998 52.042410000000004,143.83054799999996 51.81299,143.84987599999997 51.580557,143.86499499999996 51.345178000000004,143.87636899999998 51.106932,143.88448099999997 50.865904,143.889829 50.622182,143.89293299999997 50.375856,143.89432499999998 50.127012,143.89455999999998 49.874323000000004,143.89420299999998 49.874323000000004,153.89420399999997 69.157512,153.89420399999997 69.109812,152.69876699999998 30.638834,152.69876699999998 30.640376,152.21108599999997 30.625786,151.71610299999998 30.596604,151.214252 30.554428,150.705999 30.50091,150.19182399999997 30.437757,149.67220799999998 30.366719,149.147621 30.289588000000002,148.61851499999997 30.208189,148.08531799999997 30.0,146.75158899999997 42.902954,141.77270299999998 43.542062,142.20681399999998 43.744890999999996,142.343303 43.945221000000004,142.47560099999998 44.143549,142.60289999999998 44.340355,142.72445 44.536113,142.83956199999997 44.731963,142.94797999999997 44.929913,143.05025399999997 45.130970000000005,143.14689299999998 45.334946,143.23780399999998 45.541538,143.32284199999998 45.750442,143.40186599999998 45.961353,143.474743 46.173962,143.54134399999998 46.387962,143.601545 46.603045,143.655231 46.819002,143.70231199999998 47.03648,143.742901 47.256631,143.77748799999998 47.479884,143.80656299999998 47.706236000000004,143.83054799999996 47.935656,143.84987599999997 48.168089,143.86499499999996 48.403468000000004,143.87636899999998 48.641714,143.88448099999997 48.882742,143.889829 49.126464,143.89293299999997 49.37279,143.89432499999998 49.621634,143.89455999999998 49.874323000000004,143.89420299999998 49.874323000000004,153.89420399999997 30.591134,153.89420399999997 30.638834,152.69876699999998" stroke="#1f6fb2" stroke-width="0.1" /><text fill="#0a3d62" font-family="sans-serif" font-size="1.6" text-anchor="middle" x="49.874323000000004" y="147.8334535">03</text><polygon fill="#cfe3f7" fill-opacity="0.5" points="93.404015,148.62767999999997 93.89550500000001,148.71697699999999 94.38704800000001,148.80118 94.878641,148.88028799999998 95.370282,148.954299 95.861967,149.02321199999997 96.353694,149.08702599999998 96.84546,149.145739 97.33726100000001,149.19935099999998 97.82909500000001,149.24785999999997 98.320959,149.29126599999998 98.812849,149.32956699999997 99.30476200000001,149.36276299999997 99.796695,149.390853 100.288645,149.41383599999998 100.780608,149.43171299999997 101.272582,149.444482 101.76456200000001,149.45214399999998 102.256545,149.45469699999998 102.74852800000001,149.45214399999998 103.240508,149.444482 103.732482,149.43171299999997 104.224445,149.41383599999998 104.716395,149.390853 105.20832800000001,149.36276299999997 105.700241,149.32956699999997 106.192131,149.29126599999998 106.68399500000001,149.24785999999997 107.17582900000001,149.19935099999998 107.66763,149.145739 108.15939600000002,149.08702599999998 108.65112300000001,149.02321199999997 109.142808,148.954299 109.634449,148.88028799999998 110.12604200000001,148.80118 110.617585,148.71697699999999 111.109075,148.62767999999997 111.39342400000001,148.57306599999998 113.44514600000001,151.99260299999997 114.500364,151.59362 112.68727200000001,141.77270299999998 111.21345600000001,142.07107599999998 110.74168700000001,142.16168799999997 110.26997300000001,142.24739099999996 109.79831200000001,142.32818799999998 109.32670100000001,142.40407999999996 108.85513800000001,142.475069 108.38361900000001,142.54115599999997 107.912142,142.60234199999996 107.44070400000001,142.658629 106.969301,142.71001699999997 106.49793100000001,142.75650799999997 106.02659100000001,142.79810199999997 105.555277,142.83480099999997 105.08398600000001,142.866605 104.61271500000001,142.89351499999998 104.141461,142.91553199999998 103.67022,142.93265499999998 103.19899000000001,142.94488599999997 102.727766,142.95222399999997 102.256545,142.954671 101.785324,142.95222399999997 101.31410000000001,142.94488599999997 100.84287,142.93265499999998 100.37162900000001,142.91553199999998 99.90037500000001,142.89351499999998 99.42910400000001,142.866605 98.957813,142.83480099999997 98.48649900000001,142.79810199999997 98.01515900000001,142.75650799999997 97.543789,142.71001699999997 97.07238600000001,142.658629 96.600948,142.60234199999996 96.12947100000001,142.54115599999997 95.65795200000001,142.475069 95.186389,142.40407999999996 94.71477800000001,142.32818799999998 94.24311700000001,142.24739099999996 93.771403,142.16168799999997 93.299634,142.07107599999998 92.624505,141.934397 92.624505,148.47497099999998 92.91258,148.533292 93.404015,148.62767999999997 91.84499500000001,148.62767999999997 91.35350500000001,148.71697699999999 90.861962,148.80118 90.37036900000001,148.88028799999998 89.87872800000001,148.954299 89.387043,149.02321199999997 88.89531600000001,149.08702599999998 88.40355000000001,149.145739 87.91174900000001,149.19935099999998 87.419915,149.24785999999997 86.92805100000001,149.29126599999998 86.436161,149.32956699999997 85.944248,149.36276299999997 85.452315,149.390853 84.96036500000001,149.41383599999998 84.46840200000001,149.43171299999997 83.976428,149.444482 83.484448,149.45214399999998 82.99246500000001,149.45469699999998 82.500482,149.45214399999998 82.00850200000001,149.444482 81.51652800000001,149.43171299999997 81.02456500000001,149.41383599999998 80.532615,149.390853 80.040682,149.36276299999997 79.54876900000001,149.32956699999997 79.05687900000001,149.29126599999998 78.565015,149.24785999999997 78.073181,149.19935099999998 77.58138000000001,149.145739 77.08961400000001,149.08702599999998 76.59788700000001,149.02321199999997 76.10620200000001,148.954299 75.61456100000001,148.88028799999998 75.12296800000001,148.80118 74.63142500000001,148.71697699999999 74.13993500000001,148.62767999999997 73.855586,148.57306599999998 71.803864,151.99260299999997 70.74864600000001,151.59362 72.561738,141.77270299999998 74.035554,142.07107599999998 74.50732300000001,142.16168799999997 74.979037,142.24739099999996 75.450698,142.32818799999998 75.92230900000001,142.40407999999996 76.393872,142.475069 76.865391,142.54115599999997 77.33686800000001,142.60234199999996 77.808306,142.658629 78.27970900000001,142.71001699999997 78.751079,142.75650799999997 79.222419,142.79810199999997 79.69373300000001,142.83480099999997 80.165024,142.866605 80.636295,142.89351499999998 81.107549,142.91553199999998 81.57879000000001,142.93265499999998 82.05002,142.94488599999997 82.52124400000001,142.95222399999997 82.99246500000001,142.954671 83.46368600000001,142.95222399999997 83.93491,142.94488599999997 84.40614000000001,142.93265499999998 84.87738100000001,142.91553199999998 85.348635,142.89351499999998 85.819906,142.866605 86.29119700000001,142.83480099999997 86.762511,142.79810199999997 87.23385100000002,142.75650799999997 87.70522100000001,142.71001699999997 88.176624,142.658629 88.64806200000001,142.60234199999996 89.119539,142.54115599999997 89.591058,142.475069 90.06262100000001,142.40407999999996 90.534232,142.32818799999998 91.00589300000001,142.24739099999996 91.477607,142.16168799999997 91.949376,142.07107599999998 92.624505,141.934397 92.624505,148.47497099999998 92.33643000000001,148.533292 91.84499500000001,148.62767999999997" stroke="#1f6fb2" stroke-width="0.1" /><text fill="#0a3d62" font-family="sans-serif" font-size="1.6" text-anchor="middle" x="92.624505" y="146.88265299999998">07</text><polygon fill="#cfe3f7" fill-opacity="0.5" points="138.376549,147.07524499999997 138.908084,147.14623799999998 139.43964,147.21317699999997 139.971216,147.27606099999997 140.502812,147.33488999999997 141.034426,147.38966399999998 141.566057,147.44038299999997 142.097704,147.48704499999997 142.629365,147.52964999999998 143.16103900000002,147.568199 143.692725,147.602691 144.224422,147.63312599999998 144.756128,147.65950299999997 145.287842,147.68182299999998 145.81956200000002,147.70008499999997 146.351288,147.71428799999998 146.883018,147.72443399999997 147.41475,147.73052099999998 147.946484,147.73254999999997 148.478218,147.73052099999998 149.00995,147.72443399999997 149.54167999999999,147.71428799999998 150.073406,147.70008499999997 150.605126,147.68182299999998 151.13684,147.65950299999997 151.668546,147.63312599999998 152.200243,147.602691 152.731929,147.568199 153.263603,147.52964999999998 153.795264,147.48704499999997 154.326911,147.44038299999997 154.858542,147.38966399999998 155.390156,147.33488999999997 155.921752,147.27606099999997 156.453328,147.21317699999997 156.98488400000002,147.14623799999998 157.51641899999998,147.07524499999997 158.04793,147.00019899999998 159.428524,146.79473099999998 159.428524,141.77270299999998 157.760914,142.020887 157.244221,142.09384099999997 156.727552,142.16284799999997 156.210904,142.22790899999998 155.694276,142.28902499999998 155.177668,142.346196 154.661078,142.399422 154.144505,142.44870299999997 153.627948,142.49404099999998 153.111405,142.53543599999998 152.594875,142.57288699999998 152.078357,142.606395 151.56185,142.63595999999998 151.045352,142.66158299999998 150.528862,142.68326299999998 150.012378,142.701001 149.4959,142.71479799999997 148.979426,142.724652 148.462954,142.73056499999998 147.946484,142.73253599999998 147.430014,142.73056499999998 146.913542,142.724652 146.397068,142.71479799999997 145.88059,142.701001 145.364106,142.68326299999998 144.84761600000002,142.66158299999998 144.331118,142.63595999999998 143.814611,142.606395 143.298093,142.57288699999998 142.781563,142.53543599999998 142.26502,142.49404099999998 141.74846300000002,142.44870299999997 141.23189,142.399422 140.7153,142.346196 140.198692,142.28902499999998 139.682064,142.22790899999998 139.165416,142.16284799999997 138.64874700000001,142.09384099999997 138.132054,142.020887 137.46444400000001,141.921529 137.46444400000001,146.94355699999997 137.845038,147.00019899999998 138.376549,147.07524499999997 136.55233900000002,147.07524499999997 136.020804,147.14623799999998 135.489248,147.21317699999997 134.957672,147.27606099999997 134.426076,147.33488999999997 133.894462,147.38966399999998 133.362831,147.44038299999997 132.831184,147.48704499999997 132.299523,147.52964999999998 131.767849,147.568199 131.236163,147.602691 130.704466,147.63312599999998 130.17276,147.65950299999997 129.64104600000002,147.68182299999998 129.109326,147.70008499999997 128.57760000000002,147.71428799999998 128.04587,147.72443399999997 127.514138,147.73052099999998 126.982404,147.73254999999997 126.45067,147.73052099999998 125.918938,147.72443399999997 125.387208,147.71428799999998 124.85548200000001,147.70008499999997 124.323762,147.68182299999998 123.79204800000001,147.65950299999997 123.26034200000001,147.63312599999998 122.728645,147.602691 122.196959,147.568199 121.66528500000001,147.52964999999998 121.133624,147.48704499999997 120.601977,147.44038299999997 120.070346,147.38966399999998 119.53873200000001,147.33488999999997 119.007136,147.27606099999997 118.47556,147.21317699999997 117.944004,147.14623799999998 117.412469,147.07524499999997 116.880958,147.00019899999998 115.500364,146.79473099999998 115.500364,141.77270299999998 117.167974,142.020887 117.684667,142.09384099999997 118.201336,142.16284799999997 118.717984,142.22790899999998 119.234612,142.28902499999998 119.75122,142.346196 120.26781,142.399422 120.784383,142.44870299999997 121.30094,142.49404099999998 121.81748300000001,142.53543599999998 122.334013,142.57288699999998 122.850531,142.606395 123.36703800000001,142.63595999999998 123.883536,142.66158299999998 124.400026,142.68326299999998 124.91651,142.701001 125.43298800000001,142.71479799999997 125.94946200000001,142.724652 126.465934,142.73056499999998 126.982404,142.73253599999998 127.498874,142.73056499999998 128.015346,142.724652 128.53182,142.71479799999997 129.04829800000002,142.701001 129.564782,142.68326299999998 130.081272,142.66158299999998 130.59777,142.63595999999998 131.11427700000002,142.606395 131.630795,142.57288699999998 132.147325,142.53543599999998 132.663868,142.49404099999998 133.180425,142.44870299999997 133.696998,142.399422 134.21358800000002,142.346196 134.730196,142.28902499999998 135.246824,142.22790899999998 135.763472,142.16284799999997 136.28014100000001,142.09384099999997 136.796834,142.020887 137.46444400000001,141.921529 137.46444400000001,146.94355699999997 137.08385,147.00019899999998 136.55233900000002,147.07524499999997" stroke="#1f6fb2" stroke-width="0.1" /><text fill="#0a3d62" font-family="sans-serif" font-size="1.6" text-anchor="middle" x="137.46444400000001" y="144.7526265">08</text><polygon fill="#cfe3f7" fill-opacity="0.5" points="4.0,160.42182999999997 4.022155,160.64677299999997 4.102098,160.91031099999998 4.2319189999999995,161.15318899999997 4.406629,161.36607399999997 4.619514,161.54078399999997 4.862392,161.67060499999997 5.12593,161.75054799999998 5.350873,161.77270299999998 16.649127,161.77270299999998 16.87407,161.75054799999998 17.137608,161.67060499999997 17.380485999999998,161.54078399999997 17.593370999999998,161.36607399999997 17.768081000000002,161.15318899999997 17.897902000000002,160.91031099999998 17.977845000000002,160.64677299999997 18.0,160.42182999999997 18.0,158.12357599999999 17.977845000000002,157.898633 17.897902000000002,157.63509499999998 17.768081000000002,157.392217 17.593370999999998,157.179332 17.380485999999998,157.00462199999998 17.137608,156.874801 16.87407,156.79485799999998 16.649127,156.77270299999998 5.350873,156.77270299999998 5.12593,156.79485799999998 4.862392,156.874801 4.619514,157.00462199999998 4.406629,157.179332 4.2319189999999995,157.392217 4.102098,157.63509499999998 4.022155,157.898633 4.0,158.12357599999999 4.0,160.42182999999997" stroke="#1f6fb2" stroke-width="0.1" /><text fill="#0a3d62" font-family="sans-serif" font-size="1.6" text-anchor="middle" x="11.0" y="159.27270299999998">06</text><polygon fill="#cfe3f7" fill-opacity="0.5" points="19.0,160.42182999999997 19.022155,160.64677299999997 19.102098,160.91031099999998 19.231919,161.15318899999997 19.406629,161.36607399999997 19.619514,161.54078399999997 19.862392,161.67060499999997 20.12593,161.75054799999998 20.350873,161.77270299999998 31.649127,161.77270299999998 31.87407,161.75054799999998 32.137608,161.67060499999997 32.380486,161.54078399999997 32.593371,161.36607399999997 32.768081,161.15318899999997 32.897902,160.91031099999998 32.977845,160.64677299999997 33.0,160.42182999999997 33.0,158.12357599999999 32.977845,157.898633 32.897902,157.63509499999998 32.768081,157.392217 32.593371,157.179332 32.380486,157.00462199999998 32.137608,156.874801 31.87407,156.79485799999998 31.649127,156.77270299999998 20.350873,156.77270299999998 20.12593,156.79485799999998 19.862392,156.874801 19.619514,157.00462199999998 19.406629,157.179332 19.231919,157.392217 19.102098,157.63509499999998 19.022155,157.898633 19.0,158.12357599999999 19.0,160.42182999999997" stroke="#1f6fb2" stroke-width="0.1" /><text fill="#0a3d62" font-family="sans-serif" font-size="1.6" text-anchor="middle" x="26.0" y="159.27270299999998">06</text></svg>