<?xml version="1.0" encoding="utf-8" ?>
<svg baseProfile="full" height="115.134942cm" version="1.1" viewBox="0 0 168.0 115.134942" width="168.0cm" xmlns="http://www.w3.org/2000/svg" xmlns:ev="http://www.w3.org/2001/xml-events" xmlns:xlink="http://www.w3.org/1999/xlink"><defs /><rect fill="#f7f3ea" height="107.134942" stroke="#333" stroke-width="0.15" width="160.0" x="4.0" y="4.0" /><text fill="#000" font-family="sans-serif" font-size="1.4" x="4.0" y="3.0">PLANO DE CORTE — ancho 160 cm — largo 1.07 m</text><polygon fill="#cfe3f7" fill-opacity="0.5" points="8.603537000000001,66.004613 34.432241,66.004613 39.044742,14.559622999999998 38.338398999999995,13.774989999999999 37.917592,13.312847999999999 37.488116,12.851835999999999 37.047919,12.395239 36.597245,11.9474 36.138323,11.51006 35.672148,11.082705 35.19934,10.664458 34.720508,10.254439 34.236247,9.851766999999999 33.747142,9.455561 33.253769,9.064943 32.756689,8.679036 32.255796000000004,8.296466 31.749057,7.915755 31.233977,7.538259 30.709418,7.1668959999999995 30.174402999999998,6.804792 29.6279,6.4551289999999995 29.068843,6.121163 28.496148,5.80625 27.908752,5.513857 27.305661,5.24759 26.687530000000002,5.011762 26.059449,4.809616 25.427158,4.638591 24.792906000000002,4.494111 24.158237,4.371542 23.52457,4.266382 22.893254,4.174272 22.265622,4.0909949999999995 21.544124,4.0 20.808963,4.05394 20.168217,4.104962 19.523647,4.164405 18.8764,4.236438 18.227627,4.325369 17.578525,4.435643 16.930396000000002,4.57184 16.284807,4.738636 15.645945000000001,4.939882 15.019679,5.174805 14.408314,5.439152 13.811256,5.729414 13.227674,6.042254 12.656686,6.374447 12.097394,6.722872 11.548913,7.084489 11.010392,7.456322999999999 10.481016,7.835451 9.959197,8.2196 9.441979,8.609293000000001 8.928751,9.007759 8.421351,9.417183999999999 7.9219930000000005,9.839547 7.432948,10.276864 6.956562,10.731176 6.495274,11.204525 6.051633000000001,11.698924 5.628798,12.215724 5.232445000000002,12.750982 4.862674000000002,13.294198000000002 4.513476000000001,13.837394 4.0,14.659607999999999 8.603537000000001,66.004613" stroke="#1f6fb2" stroke-width="0.1" /><text fill="#0a3d62" font-family="sans-serif" font-size="1.6" text-anchor="middle" x="21.522371" y="35.0023065">03</text><polygon fill="#cfe3f7" fill-opacity="0.5" points="44.648279,66.004613 70.47698299999999,66.004613 75.089484,14.559622999999998 74.383141,13.774989999999999 73.962334,13.312847999999999 73.532858,12.851835999999999 73.09266099999999,12.395239 72.641987,11.9474 72.183065,11.51006 71.71689,11.082705 71.24408199999999,10.664458 70.76525000000001,10.254439 70.280989,9.851766999999999 69.791884,9.455561 69.29851099999999,9.064943 68.80143100000001,8.679036 68.300538,8.296466 67.793799,7.915755 67.278719,7.538259 66.75416,7.1668959999999995 66.219145,6.804792 65.672642,6.4551289999999995 65.113585,6.121163 64.54089,5.80625 63.953494,5.513857 63.350403,5.24759 62.732272,5.011762 62.104191,4.809616 61.4719,4.638591 60.837648,4.494111 60.202979,4.371542 59.569312,4.266382 58.937996,4.174272 58.310364,4.0909949999999995 57.588865999999996,4.0 56.853705,4.05394 56.212959,4.104962 55.568388999999996,4.164405 54.921142,4.236438 54.272369,4.325369 53.623267,4.435643 52.975138,4.57184 52.329549,4.738636 51.690687,4.939882 51.064420999999996,5.174805 50.453056000000004,5.439152 49.855998,5.729414 49.272416,6.042254 48.701428,6.374447 48.142136,6.722872 47.593655,7.084489 47.055133999999995,7.456322999999999 46.525757999999996,7.835451 46.003939,8.2196 45.486721,8.609293000000001 44.973493,9.007759 44.466093,9.417183999999999 43.966735,9.839547 43.477689999999996,10.276864 43.001304,10.731176 42.540016,11.204525 42.096375,11.698924 41.67354,12.215724 41.277187,12.750982 40.907416,13.294198000000002 40.558218,13.837394 40.044742,14.659607999999999 44.648279,66.004613" stroke="#1f6fb2" stroke-width="0.1" /><text fill="#0a3d62" font-family="sans-serif" font-size="1.6" text-anchor="middle" x="57.567113" y="35.0023065">03</text><polygon fill="#cfe3f7" fill-opacity="0.5" points="76.089484,51.233067 86.430228,51.233067 86.302047,48.024211 86.233381,45.870481 86.200144,43.739295 86.219559,41.638131 86.30857,39.574560999999996 86.483784,37.556145 86.761424,35.59028 87.15733,33.683955 87.687076,31.843438 88.366348,30.073732999999997 89.213337,28.372646999999997 90.228683,26.724355 91.386888,25.111527 92.65644,23.523000999999997 94.004435,21.947428 95.851819,19.858719999999998 95.31298,18.819888 95.14327,18.421923 95.012871,18.024288 94.919884,17.618925 94.86113,17.199514999999998 94.834992,16.764596 94.840108,16.313914 94.875032,15.847847 94.938094,15.367222 95.027354,14.873137 95.140616,14.366815 95.275457,13.849511 95.429279,13.32245 95.599349,12.78679 95.78282999999999,12.243606999999999 95.976818,11.693886 96.178352,11.138521 96.709888,9.693617 83.664173,4.0 82.994032,4.893731 82.798293,5.155346 82.602478,5.41821 82.406866,5.682529 82.21173999999999,5.948513 82.01738399999999,6.216374999999999 81.82408699999999,6.486328 81.63213999999999,6.758584 81.441839,7.03336 81.25348,7.310871 81.06736599999999,7.5913319999999995 80.883803,7.87496 80.703099,8.161969 80.52572599999999,8.452314000000001 80.352787,8.744457 80.184562,9.035989 80.020234,9.325658 79.85875899999999,9.612676 79.699137,9.896266 79.540411,10.17566 79.381668,10.450102000000001 79.222037,10.718852 79.060687,10.98119 78.89682499999999,11.236425 78.72969,11.483908 78.558542,11.723041 78.382645,11.953306000000001 78.20035299999999,12.175367 78.008888,12.392209 77.807134,12.606558 77.595762,12.819252 77.375696,13.030951 77.147926,13.242343 76.913495,13.454155 76.673485,13.667169 76.089484,14.180877 76.089484,51.233067" stroke="#1f6fb2" stroke-width="0.1" /><text fill="#0a3d62" font-family="sans-serif" font-size="1.6" text-anchor="middle" x="86.399686" y="27.6165335">01</text><polygon fill="#cfe3f7" fill-opacity="0.5" points="97.709888,51.233067 108.05063200000001,51.233067 107.92245100000001,48.024211 107.853785,45.870481 107.820548,43.739295 107.83996300000001,41.638131 107.92897400000001,39.574560999999996 108.10418800000001,37.556145 108.38182800000001,35.59028 108.77773400000001,33.683955 109.30748000000001,31.843438 109.98675200000001,30.073732999999997 110.833741,28.372646999999997 111.84908700000001,26.724355 113.007292,25.111527 114.27684400000001,23.523000999999997 115.62483900000001,21.947428 117.47222300000001,19.858719999999998 116.933384,18.819888 116.76367400000001,18.421923 116.63327500000001,18.024288 116.540288,17.618925 116.48153400000001,17.199514999999998 116.45539600000001,16.764596 116.46051200000001,16.313914 116.49543600000001,15.847847 116.55849800000001,15.367222 116.64775800000001,14.873137 116.76102,14.366815 116.89586100000001,13.849511 117.049683,13.32245 117.21975300000001,12.78679 117.403234,12.243606999999999 117.597222,11.693886 117.79875600000001,11.138521 118.33029200000001,9.693617 105.28457700000001,4.0 104.61443600000001,4.893731 104.41869700000001,5.155346 104.22288200000001,5.41821 104.02727,5.682529 103.832144,5.948513 103.637788,6.216374999999999 103.444491,6.486328 103.252544,6.758584 103.06224300000001,7.03336 102.873884,7.310871 102.68777,7.5913319999999995 102.50420700000001,7.87496 102.323503,8.161969 102.14613,8.452314000000001 101.97319100000001,8.744457 101.80496600000001,9.035989 101.64063800000001,9.325658 101.479163,9.612676 101.319541,9.896266 101.16081500000001,10.17566 101.00207200000001,10.450102000000001 100.84244100000001,10.718852 100.68109100000001,10.98119 100.517229,11.236425 100.35009400000001,11.483908 100.17894600000001,11.723041 100.003049,11.953306000000001 99.820757,12.175367 99.629292,12.392209 99.42753800000001,12.606558 99.216166,12.819252 98.99610000000001,13.030951 98.76833,13.242343 98.533899,13.454155 98.29388900000001,13.667169 97.709888,14.180877 97.709888,51.233067" stroke="#1f6fb2" stroke-width="0.1" /><text fill="#0a3d62" font-family="sans-serif" font-size="1.6" text-anchor="middle" x="108.02009000000001" y="27.6165335">01</text><polygon fill="#cfe3f7" fill-opacity="0.5" points="38.479689,105.06461800000001 39.364945,111.13494200000001 52.478341,111.13494200000001 52.61631,108.51878900000001 52.706325,106.85137 52.800413000000006,105.18550300000001 52.900637,103.52134500000001 53.009054000000006,101.85905000000001 53.127732,100.19856100000001 53.258104,98.53894100000001 53.39887,96.87905900000001 53.547997,95.218558 53.703431,93.55728400000001 53.863115,91.89508500000001 54.059378,89.878423 53.574569,89.146967 53.286023,88.711352 52.997536,88.27528600000001 52.709057,87.83842200000001 52.420534,87.40041400000001 52.131915000000006,86.960914 51.843149,86.519576 51.554193,86.076069 51.265435,85.630678 50.978668,85.184454 50.69641,84.73799400000001 50.420771,84.291246 50.153818,83.844164 49.897592,83.396747 49.654102,82.94903500000001 49.425309,82.50110000000001 49.213119000000006,82.053038 49.019363,81.60495 48.845784,81.156924 48.694031,80.70899800000001 48.565634,80.26107 48.461582,79.811182 48.38114,79.355401 48.322522000000006,78.891531 48.284331,78.41950600000001 48.265178000000006,77.93950500000001 48.263636000000005,77.451824 48.278226000000004,76.95684100000001 48.307408,76.45499000000001 48.349584,75.94673700000001 48.403102000000004,75.432562 48.466255000000004,74.912946 48.537293000000005,74.38835900000001 48.614424,73.85925300000001 48.695823000000004,73.32605600000001 48.900924,72.012107 41.872411,69.10025 41.738533000000004,69.376219 36.014054,67.004613 35.36195,67.447552 35.159121,67.584041 34.958791000000005,67.716339 34.760463,67.84363800000001 34.563657,67.96518800000001 34.367899,68.08030000000001 34.172049,68.18871800000001 33.974099,68.290992 33.773042000000004,68.387631 33.569066,68.478542 33.362474000000006,68.56358 33.15357,68.642604 32.942659000000006,68.71548100000001 32.730050000000006,68.782082 32.51605,68.84228300000001 32.300967,68.89596900000001 32.08501,68.94305 31.867532,68.98363900000001 31.647381000000003,69.01822600000001 31.424128000000003,69.047301 31.197776,69.071286 30.968356,69.090614 30.735923,69.105733 30.500544,69.117107 30.262298,69.125219 30.02127,69.13056700000001 29.777548000000003,69.133671 29.531222,69.135063 29.282378,69.135298 29.029689,69.13494100000001 29.029689,111.13494200000001 37.594433,111.13494200000001 38.479689,105.06461800000001 19.579689000000002,105.06461800000001 18.694433000000004,111.13494200000001 5.581037000000002,111.13494200000001 5.443068,108.51878900000001 5.353053000000003,106.85137 5.258965,105.18550300000001 5.158741000000003,103.52134500000001 5.050324,101.85905000000001 4.931646000000001,100.19856100000001 4.801274000000003,98.53894100000001 4.660508,96.87905900000001 4.511381,95.218558 4.3559470000000005,93.55728400000001 4.196263000000002,91.89508500000001 4.0,89.878423 4.484809000000002,89.146967 4.773355000000002,88.711352 5.061842000000002,88.27528600000001 5.350321000000001,87.83842200000001 5.638844000000002,87.40041400000001 5.9274629999999995,86.960914 6.216229000000002,86.519576 6.505185000000001,86.076069 6.793943000000002,85.630678 7.08071,85.184454 7.362968000000002,84.73799400000001 7.638607,84.291246 7.905560000000001,83.844164 8.161786000000003,83.396747 8.405276,82.94903500000001 8.634069,82.50110000000001 8.846259,82.053038 9.040015,81.60495 9.213594,81.156924 9.365347,80.70899800000001 9.493744,80.26107 9.597796000000002,79.811182 9.678238,79.355401 9.736856,78.891531 9.775047,78.41950600000001 9.7942,77.93950500000001 9.795742,77.451824 9.781152000000002,76.95684100000001 9.75197,76.45499000000001 9.709794000000002,75.94673700000001 9.656276000000002,75.432562 9.593123000000002,74.912946 9.522085,74.38835900000001 9.444954000000003,73.85925300000001 9.363555000000002,73.32605600000001 9.158454000000003,72.012107 16.186967000000003,69.10025 16.320845000000002,69.376219 22.045324,67.004613 22.697428000000002,67.447552 22.900257,67.584041 23.100587,67.716339 23.298915,67.84363800000001 23.495721000000003,67.96518800000001 23.691479,68.08030000000001 23.887329,68.18871800000001 24.085279,68.290992 24.286336000000002,68.387631 24.490312000000003,68.478542 24.696904,68.56358 24.905808,68.642604 25.116719,68.71548100000001 25.329328,68.782082 25.543328000000002,68.84228300000001 25.758411000000002,68.89596900000001 25.974368000000002,68.94305 26.191846,68.98363900000001 26.411997,69.01822600000001 26.63525,69.047301 26.861602,69.071286 27.091022000000002,69.090614 27.323455000000003,69.105733 27.558834,69.117107 27.79708,69.125219 28.038108,69.13056700000001 28.28183,69.133671 28.528156000000003,69.135063 28.777,69.135298 29.029689,69.13494100000001 29.029689,111.13494200000001 20.464945,111.13494200000001 19.579689000000002,105.06461800000001" stroke="#1f6fb2" stroke-width="0.1" /><text fill="#0a3d62" font-family="sans-serif" font-size="1.6" text-anchor="middle" x="29.029689" y="89.06977750000001">02</text><polygon fill="#cfe3f7" fill-opacity="0.5" points="63.906263,69.06322700000001 62.041061,70.504513 60.276521,72.003522 58.672204,73.587164 57.290875,75.285813 56.20584100000001,77.126372 55.485563,79.10376500000001 55.118146,81.17708300000001 55.059378,83.319289 55.262800000000006,85.515848 55.684787,87.75746500000001 56.284917,90.03650300000001 57.025042,92.34511900000001 57.868345000000005,94.67461200000001 58.778717,97.01532900000001 59.972512,99.98360100000001 72.303371,99.98360100000001 72.435093,97.11086600000002 72.525087,95.193545 72.619178,93.27757500000001 72.719431,91.363094 72.827912,89.450235 72.946692,87.538949 73.077193,85.628424 73.21809300000001,83.71767 73.367347,81.80637700000001 73.522895,79.894411 73.682672,77.981637 73.88042,75.64475300000001 73.24824100000001,74.922188 72.89485,74.519017 72.53885700000001,74.11437000000001 72.179723,73.70838300000001 71.81660600000001,73.300853 71.448669,72.891582 71.075079,72.480379 70.69501600000001,72.06707 70.308587,71.652445 69.91924800000001,71.238617 69.53277,70.826571 69.15371400000001,70.415835 68.786512,70.00600100000001 68.43559,69.59688100000001 68.10531800000001,69.188507 67.799949,68.781143 67.52351300000001,68.375258 66.695868,67.004613 63.906263,69.06322700000001" stroke="#1f6fb2" stroke-width="0.1" /><text fill="#0a3d62" font-family="sans-serif" font-size="1.6" text-anchor="middle" x="64.469899" y="83.49410700000001">11</text><polygon fill="#cfe3f7" fill-opacity="0.5" points="83.727305,69.06322700000001 81.862103,70.504513 80.09756300000001,72.003522 78.493246,73.587164 77.111917,75.285813 76.026883,77.126372 75.306605,79.10376500000001 74.939188,81.17708300000001 74.88042,83.319289 75.083842,85.515848 75.505829,87.75746500000001 76.105959,90.03650300000001 76.846084,92.34511900000001 77.689387,94.67461200000001 78.599759,97.01532900000001 79.793554,99.98360100000001 92.124413,99.98360100000001 92.256135,97.11086600000002 92.346129,95.193545 92.44022,93.27757500000001 92.540473,91.363094 92.648954,89.450235 92.767734,87.538949 92.898235,85.628424 93.039135,83.71767 93.188389,81.80637700000001 93.343937,79.894411 93.503714,77.981637 93.701462,75.64475300000001 93.069283,74.922188 92.715892,74.519017 92.359899,74.11437000000001 92.000765,73.70838300000001 91.637648,73.300853 91.269711,72.891582 90.896121,72.480379 90.516058,72.06707 90.129629,71.652445 89.74029,71.238617 89.353812,70.826571 88.974756,70.415835 88.607554,70.00600100000001 88.256632,69.59688100000001 87.92636,69.188507 87.620991,68.781143 87.344555,68.375258 86.51691,67.004613 83.727305,69.06322700000001" stroke="#1f6fb2" stroke-width="0.1" /><text fill="#0a3d62" font-family="sans-serif" font-size="1.6" text-anchor="middle" x="84.290941" y="83.49410700000001">11</text></svg>