<?xml version="1.0" encoding="utf-8" ?>
<svg baseProfile="full" height="115.134942cm" version="1.1" viewBox="0 0 158.0 115.134942" width="158.0cm" xmlns="http://www.w3.org/2000/svg" xmlns:ev="http://www.w3.org/2001/xml-events" xmlns:xlink="http://www.w3.org/1999/xlink"><defs /><rect fill="#f7f3ea" height="107.134942" stroke="#333" stroke-width="0.15" width="150.0" x="4.0" y="4.0" /><text fill="#000" font-family="sans-serif" font-size="1.4" x="4.0" y="3.0">PLANO DE CORTE — ancho 150 cm — largo 1.07 m</text><polygon fill="#cfe3f7" fill-opacity="0.5" points="8.603537000000001,66.004613 34.432241,66.004613 39.044742,14.559622999999998 38.338398999999995,13.774989999999999 37.917592,13.312847999999999 37.488116,12.851835999999999 37.047919,12.395239 36.597245,11.9474 36.138323,11.51006 35.672148,11.082705 35.19934,10.664458 34.720508,10.254439 34.236247,9.851766999999999 33.747142,9.455561 33.253769,9.064943 32.756689,8.679036 32.255796000000004,8.296466 31.749057,7.915755 31.233977,7.538259 30.709418,7.1668959999999995 30.174402999999998,6.804792 29.6279,6.4551289999999995 29.068843,6.121163 28.496148,5.80625 27.908752,5.513857 27.305661,5.24759 26.687530000000002,5.011762 26.059449,4.809616 25.427158,4.638591 24.792906000000002,4.494111 24.158237,4.371542 23.52457,4.266382 22.893254,4.174272 22.265622,4.0909949999999995 21.544124,4.0 20.808963,4.05394 20.168217,4.104962 19.523647,4.164405 18.8764,4.236438 18.227627,4.325369 17.578525,4.435643 16.930396000000002,4.57184 16.284807,4.738636 15.645945000000001,4.939882 15.019679,5.174805 14.408314,5.439152 13.811256,5.729414 13.227674,6.042254 12.656686,6.374447 12.097394,6.722872 11.548913,7.084489 11.010392,7.456322999999999 10.481016,7.835451 9.959197,8.2196 9.441979,8.609293000000001 8.928751,9.007759 8.421351,9.417183999999999 7.9219930000000005,9.839547 7.432948,10.276864 6.956562,10.731176 6.495274,11.204525 6.051633000000001,11.698924 5.628798,12.215724 5.232445000000002,12.750982 4.862674000000002,13.294198000000002 4.513476000000001,13.837394 4.0,14.659607999999999 8.603537000000001,66.004613" stroke="#1f6fb2" stroke-width="0.1" /><text fill="#0a3d62" font-family="sans-serif" font-size="1.6" text-anchor="middle" x="21.522371" y="35.0023065">03</text><polygon fill="#cfe3f7" fill-opacity="0.5" points="44.648279,66.004613 70.47698299999999,66.004613 75.089484,14.559622999999998 74.383141,13.774989999999999 73.962334,13.312847999999999 73.532858,12.851835999999999 73.09266099999999,12.395239 72.641987,11.9474 72.183065,11.51006 71.71689,11.082705 71.24408199999999,10.664458 70.76525000000001,10.254439 70.280989,9.851766999999999 69.791884,9.455561 69.29851099999999,9.064943 68.80143100000001,8.679036 68.300538,8.296466 67.793799,7.915755 67.278719,7.538259 66.75416,7.1668959999999995 66.219145,6.804792 65.672642,6.4551289999999995 65.113585,6.121163 64.54089,5.80625 63.953494,5.513857 63.350403,5.24759 62.732272,5.011762 62.104191,4.809616 61.4719,4.638591 60.837648,4.494111 60.202979,4.371542 59.569312,4.266382 58.937996,4.174272 58.310364,4.0909949999999995 57.588865999999996,4.0 56.853705,4.05394 56.212959,4.104962 55.568388999999996,4.164405 54.921142,4.236438 54.272369,4.325369 53.623267,4.435643 52.975138,4.57184 52.329549,4.738636 51.690687,4.939882 51.064420999999996,5.174805 50.453056000000004,5.439152 49.855998,5.729414 49.272416,6.042254 48.701428,6.374447 48.142136,6.722872 47.593655,7.084489 47.055133999999995,7.456322999999999 46.525757999999996,7.835451 46.003939,8.2196 45.486721,8.609293000000001 44.973493,9.007759 44.466093,9.417183999999999 43.966735,9.839547 43.477689999999996,10.276864 43.001304,10.731176 42.540016,11.204525 42.096375,11.698924 41.67354,12.215724 41.277187,12.750982 40.907416,13.294198000000002 40.558218,13.837394 40.044742,14.659607999999999 44.648279,66.004613" stroke="#1f6fb2" stroke-width="0.1" /><text fill="#0a3d62" font-family="sans-serif" font-size="1.6" text-anchor="middle" x="57.567113" y="35.0023065">03</text><polygon fill="#cfe3f7" fill-opacity="0.5" points="110.421731,37.512544999999996 112.832093,51.233067 124.576929,51.233067 124.708651,48.360332 124.798645,46.443011 124.892736,44.527041 124.992989,42.612559999999995 125.10147,40.699701 125.22025,38.788415 125.350751,36.87789 125.491651,34.967135999999996 125.640905,33.055842999999996 125.796453,31.143877 125.95623,29.231102999999997 126.153978,26.894219 125.521799,26.171653999999997 125.168408,25.768483 124.812415,25.363836 124.453281,24.957849 124.090164,24.550319 123.722227,24.141047999999998 123.348637,23.729844999999997 122.968574,23.316536 122.582145,22.901911 122.192806,22.488083 121.80632800000001,22.076037 121.427272,21.665301 121.06007,21.255467 120.709148,20.846346999999998 120.378876,20.437973 120.073507,20.030609 119.797071,19.624724 119.553252,19.22094 119.345227,18.819888 119.175517,18.421923 119.045118,18.024288 118.95213100000001,17.618925 118.893377,17.199514999999998 118.867239,16.764596 118.872355,16.313914 118.907279,15.847847 118.970341,15.367222 119.059601,14.873137 119.172863,14.366815 119.307704,13.849511 119.46152599999999,13.32245 119.631596,12.78679 119.815077,12.243606999999999 120.00906499999999,11.693886 120.210599,11.138521 120.742135,9.693617 107.69642,4.0 107.026279,4.893731 106.83054,5.155346 106.634725,5.41821 106.43911299999999,5.682529 106.243987,5.948513 106.049631,6.216374999999999 105.856334,6.486328 105.664387,6.758584 105.474086,7.03336 105.28572700000001,7.310871 105.099613,7.5913319999999995 104.91605,7.87496 104.73534599999999,8.161969 104.557973,8.452314000000001 104.385034,8.744457 104.216809,9.035989 104.052481,9.325658 103.891006,9.612676 103.73138399999999,9.896266 103.572658,10.17566 103.413915,10.450102000000001 103.254284,10.718852 103.092934,10.98119 102.929072,11.236425 102.761937,11.483908 102.590789,11.723041 102.41489200000001,11.953306000000001 102.2326,12.175367 102.041135,12.392209 101.839381,12.606558 101.62800899999999,12.819252 101.407943,13.030951 101.180173,13.242343 101.121731,13.295146 101.121731,51.233067 108.011369,51.233067 110.421731,37.512544999999996 91.821731,37.512544999999996 89.41136900000001,51.233067 77.666533,51.233067 77.534811,48.360332 77.444817,46.443011 77.35072600000001,44.527041 77.250473,42.612559999999995 77.141992,40.699701 77.023212,38.788415 76.892711,36.87789 76.751811,34.967135999999996 76.602557,33.055842999999996 76.44700900000001,31.143877 76.287232,29.231102999999997 76.089484,26.894219 76.721663,26.171653999999997 77.075054,25.768483 77.431047,25.363836 77.790181,24.957849 78.153298,24.550319 78.521235,24.141047999999998 78.894825,23.729844999999997 79.274888,23.316536 79.661317,22.901911 80.050656,22.488083 80.437134,22.076037 80.81619,21.665301 81.183392,21.255467 81.534314,20.846346999999998 81.864586,20.437973 82.169955,20.030609 82.446391,19.624724 82.69021000000001,19.22094 82.898235,18.819888 83.06794500000001,18.421923 83.19834399999999,18.024288 83.291331,17.618925 83.350085,17.199514999999998 83.376223,16.764596 83.371107,16.313914 83.336183,15.847847 83.273121,15.367222 83.18386100000001,14.873137 83.070599,14.366815 82.93575799999999,13.849511 82.781936,13.32245 82.61186599999999,12.78679 82.428385,12.243606999999999 82.234397,11.693886 82.03286299999999,11.138521 81.501327,9.693617 94.547042,4.0 95.217183,4.893731 95.41292200000001,5.155346 95.608737,5.41821 95.804349,5.682529 95.999475,5.948513 96.193831,6.216374999999999 96.387128,6.486328 96.579075,6.758584 96.769376,7.03336 96.957735,7.310871 97.143849,7.5913319999999995 97.327412,7.87496 97.508116,8.161969 97.685489,8.452314000000001 97.858428,8.744457 98.026653,9.035989 98.190981,9.325658 98.352456,9.612676 98.512078,9.896266 98.670804,10.17566 98.829547,10.450102000000001 98.989178,10.718852 99.15052800000001,10.98119 99.31439,11.236425 99.481525,11.483908 99.652673,11.723041 99.82857,11.953306000000001 100.010862,12.175367 100.202327,12.392209 100.404081,12.606558 100.615453,12.819252 100.835519,13.030951 101.063289,13.242343 101.121731,13.295146 101.121731,51.233067 94.23209299999999,51.233067 91.821731,37.512544999999996" stroke="#1f6fb2" stroke-width="0.1" /><text fill="#0a3d62" font-family="sans-serif" font-size="1.6" text-anchor="middle" x="101.121731" y="27.6165335">01</text><polygon fill="#cfe3f7" fill-opacity="0.5" points="38.479689,105.06461800000001 39.364945,111.13494200000001 52.478341,111.13494200000001 52.61631,108.51878900000001 52.706325,106.85137 52.800413000000006,105.18550300000001 52.900637,103.52134500000001 53.009054000000006,101.85905000000001 53.127732,100.19856100000001 53.258104,98.53894100000001 53.39887,96.87905900000001 53.547997,95.218558 53.703431,93.55728400000001 53.863115,91.89508500000001 54.059378,89.878423 53.574569,89.146967 53.286023,88.711352 52.997536,88.27528600000001 52.709057,87.83842200000001 52.420534,87.40041400000001 52.131915000000006,86.960914 51.843149,86.519576 51.554193,86.076069 51.265435,85.630678 50.978668,85.184454 50.69641,84.73799400000001 50.420771,84.291246 50.153818,83.844164 49.897592,83.396747 49.654102,82.94903500000001 49.425309,82.50110000000001 49.213119000000006,82.053038 49.019363,81.60495 48.845784,81.156924 48.694031,80.70899800000001 48.565634,80.26107 48.461582,79.811182 48.38114,79.355401 48.322522000000006,78.891531 48.284331,78.41950600000001 48.265178000000006,77.93950500000001 48.263636000000005,77.451824 48.278226000000004,76.95684100000001 48.307408,76.45499000000001 48.349584,75.94673700000001 48.403102000000004,75.432562 48.466255000000004,74.912946 48.537293000000005,74.38835900000001 48.614424,73.85925300000001 48.695823000000004,73.32605600000001 48.900924,72.012107 41.872411,69.10025 41.738533000000004,69.376219 36.014054,67.004613 35.36195,67.447552 35.159121,67.584041 34.958791000000005,67.716339 34.760463,67.84363800000001 34.563657,67.96518800000001 34.367899,68.08030000000001 34.172049,68.18871800000001 33.974099,68.290992 33.773042000000004,68.387631 33.569066,68.478542 33.362474000000006,68.56358 33.15357,68.642604 32.942659000000006,68.71548100000001 32.730050000000006,68.782082 32.51605,68.84228300000001 32.300967,68.89596900000001 32.08501,68.94305 31.867532,68.98363900000001 31.647381000000003,69.01822600000001 31.424128000000003,69.047301 31.197776,69.071286 30.968356,69.090614 30.735923,69.105733 30.500544,69.117107 30.262298,69.125219 30.02127,69.13056700000001 29.777548000000003,69.133671 29.531222,69.135063 29.282378,69.135298 29.029689,69.13494100000001 29.029689,111.13494200000001 37.594433,111.13494200000001 38.479689,105.06461800000001 19.579689000000002,105.06461800000001 18.694433000000004,111.13494200000001 5.581037000000002,111.13494200000001 5.443068,108.51878900000001 5.353053000000003,106.85137 5.258965,105.18550300000001 5.158741000000003,103.52134500000001 5.050324,101.85905000000001 4.931646000000001,100.19856100000001 4.801274000000003,98.53894100000001 4.660508,96.87905900000001 4.511381,95.218558 4.3559470000000005,93.55728400000001 4.196263000000002,91.89508500000001 4.0,89.878423 4.484809000000002,89.146967 4.773355000000002,88.711352 5.061842000000002,88.27528600000001 5.350321000000001,87.83842200000001 5.638844000000002,87.40041400000001 5.9274629999999995,86.960914 6.216229000000002,86.519576 6.505185000000001,86.076069 6.793943000000002,85.630678 7.08071,85.184454 7.362968000000002,84.73799400000001 7.638607,84.291246 7.905560000000001,83.844164 8.161786000000003,83.396747 8.405276,82.94903500000001 8.634069,82.50110000000001 8.846259,82.053038 9.040015,81.60495 9.213594,81.156924 9.365347,80.70899800000001 9.493744,80.26107 9.597796000000002,79.811182 9.678238,79.355401 9.736856,78.891531 9.775047,78.41950600000001 9.7942,77.93950500000001 9.795742,77.451824 9.781152000000002,76.95684100000001 9.75197,76.45499000000001 9.709794000000002,75.94673700000001 9.656276000000002,75.432562 9.593123000000002,74.912946 9.522085,74.38835900000001 9.444954000000003,73.85925300000001 9.363555000000002,73.32605600000001 9.158454000000003,72.012107 16.186967000000003,69.10025 16.320845000000002,69.376219 22.045324,67.004613 22.697428000000002,67.447552 22.900257,67.584041 23.100587,67.716339 23.298915,67.84363800000001 23.495721000000003,67.96518800000001 23.691479,68.08030000000001 23.887329,68.18871800000001 24.085279,68.290992 24.286336000000002,68.387631 24.490312000000003,68.478542 24.696904,68.56358 24.905808,68.642604 25.116719,68.71548100000001 25.329328,68.782082 25.543328000000002,68.84228300000001 25.758411000000002,68.89596900000001 25.974368000000002,68.94305 26.191846,68.98363900000001 26.411997,69.01822600000001 26.63525,69.047301 26.861602,69.071286 27.091022000000002,69.090614 27.323455000000003,69.105733 27.558834,69.117107 27.79708,69.125219 28.038108,69.13056700000001 28.28183,69.133671 28.528156000000003,69.135063 28.777,69.135298 29.029689,69.13494100000001 29.029689,111.13494200000001 20.464945,111.13494200000001 19.579689000000002,105.06461800000001" stroke="#1f6fb2" stroke-width="0.1" /><text fill="#0a3d62" font-family="sans-serif" font-size="1.6" text-anchor="middle" x="29.029689" y="89.06977750000001">02</text></svg>