<?xml version="1.0" encoding="utf-8" ?>
<svg baseProfile="full" height="118.23768cm" version="1.1" viewBox="0 0 118.0 118.23768" width="118.0cm" xmlns="http://www.w3.org/2000/svg" xmlns:ev="http://www.w3.org/2001/xml-events" xmlns:xlink="http://www.w3.org/1999/xlink"><defs /><rect fill="#f7f3ea" height="110.23768" stroke="#333" stroke-width="0.15" width="110.0" x="4.0" y="4.0" /><text fill="#000" font-family="sans-serif" font-size="1.4" x="4.0" y="3.0">PLANO DE CORTE — ancho 110 cm — largo 1.10 m</text><polygon fill="#cfe3f7" fill-opacity="0.5" points="8.603537000000001,66.004613 34.432241,66.004613 39.044742,14.559622999999998 38.338398999999995,13.774989999999999 37.917592,13.312847999999999 37.488116,12.851835999999999 37.047919,12.395239 36.597245,11.9474 36.138323,11.51006 35.672148,11.082705 35.19934,10.664458 34.720508,10.254439 34.236247,9.851766999999999 33.747142,9.455561 33.253769,9.064943 32.756689,8.679036 32.255796000000004,8.296466 31.749057,7.915755 31.233977,7.538259 30.709418,7.1668959999999995 30.174402999999998,6.804792 29.6279,6.4551289999999995 29.068843,6.121163 28.496148,5.80625 27.908752,5.513857 27.305661,5.24759 26.687530000000002,5.011762 26.059449,4.809616 25.427158,4.638591 24.792906000000002,4.494111 24.158237,4.371542 23.52457,4.266382 22.893254,4.174272 22.265622,4.0909949999999995 21.544124,4.0 20.808963,4.05394 20.168217,4.104962 19.523647,4.164405 18.8764,4.236438 18.227627,4.325369 17.578525,4.435643 16.930396000000002,4.57184 16.284807,4.738636 15.645945000000001,4.939882 15.019679,5.174805 14.408314,5.439152 13.811256,5.729414 13.227674,6.042254 12.656686,6.374447 12.097394,6.722872 11.548913,7.084489 11.010392,7.456322999999999 10.481016,7.835451 9.959197,8.2196 9.441979,8.609293000000001 8.928751,9.007759 8.421351,9.417183999999999 7.9219930000000005,9.839547 7.432948,10.276864 6.956562,10.731176 6.495274,11.204525 6.051633000000001,11.698924 5.628798,12.215724 5.232445000000002,12.750982 4.862674000000002,13.294198000000002 4.513476000000001,13.837394 4.0,14.659607999999999 8.603537000000001,66.004613" stroke="#1f6fb2" stroke-width="0.1" /><text fill="#0a3d62" font-family="sans-serif" font-size="1.6" text-anchor="middle" x="21.522371" y="35.0023065">03</text><polygon fill="#cfe3f7" fill-opacity="0.5" points="44.648279,66.004613 70.47698299999999,66.004613 75.089484,14.559622999999998 74.383141,13.774989999999999 73.962334,13.312847999999999 73.532858,12.851835999999999 73.09266099999999,12.395239 72.641987,11.9474 72.183065,11.51006 71.71689,11.082705 71.24408199999999,10.664458 70.76525000000001,10.254439 70.280989,9.851766999999999 69.791884,9.455561 69.29851099999999,9.064943 68.80143100000001,8.679036 68.300538,8.296466 67.793799,7.915755 67.278719,7.538259 66.75416,7.1668959999999995 66.219145,6.804792 65.672642,6.4551289999999995 65.113585,6.121163 64.54089,5.80625 63.953494,5.513857 63.350403,5.24759 62.732272,5.011762 62.104191,4.809616 61.4719,4.638591 60.837648,4.494111 60.202979,4.371542 59.569312,4.266382 58.937996,4.174272 58.310364,4.0909949999999995 57.588865999999996,4.0 56.853705,4.05394 56.212959,4.104962 55.568388999999996,4.164405 54.921142,4.236438 54.272369,4.325369 53.623267,4.435643 52.975138,4.57184 52.329549,4.738636 51.690687,4.939882 51.064420999999996,5.174805 50.453056000000004,5.439152 49.855998,5.729414 49.272416,6.042254 48.701428,6.374447 48.142136,6.722872 47.593655,7.084489 47.055133999999995,7.456322999999999 46.525757999999996,7.835451 46.003939,8.2196 45.486721,8.609293000000001 44.973493,9.007759 44.466093,9.417183999999999 43.966735,9.839547 43.477689999999996,10.276864 43.001304,10.731176 42.540016,11.204525 42.096375,11.698924 41.67354,12.215724 41.277187,12.750982 40.907416,13.294198000000002 40.558218,13.837394 40.044742,14.659607999999999 44.648279,66.004613" stroke="#1f6fb2" stroke-width="0.1" /><text fill="#0a3d62" font-family="sans-serif" font-size="1.6" text-anchor="middle" x="57.567113" y="35.0023065">03</text><polygon fill="#cfe3f7" fill-opacity="0.5" points="38.332247,100.517158 40.742609,114.23768000000001 52.487445,114.23768000000001 52.619167000000004,111.364945 52.709161,109.447624 52.803252,107.531654 52.903505,105.61717300000001 53.011986,103.70431400000001 53.130766,101.793028 53.261267000000004,99.88250300000001 53.402167000000006,97.971749 53.551421000000005,96.060456 53.706969,94.14849000000001 53.866746000000006,92.235716 54.064494,89.898832 53.432315,89.176267 53.078924,88.77309600000001 52.722931,88.368449 52.363797000000005,87.962462 52.00068,87.55493200000001 51.632743000000005,87.145661 51.259153,86.734458 50.879090000000005,86.321149 50.492661,85.906524 50.103322000000006,85.49269600000001 49.716844,85.08065 49.337788,84.669914 48.970586,84.26008 48.619664,83.85096 48.28939200000001,83.442586 47.984023,83.035222 47.707587000000004,82.629337 47.463768,82.225553 47.255743,81.82450100000001 47.086033,81.426536 46.955634,81.028901 46.862647,80.62353800000001 46.803893,80.20412800000001 46.777755,79.769209 46.782871,79.318527 46.817795000000004,78.85246000000001 46.880857000000006,78.371835 46.970117,77.87775 47.083379,77.37142800000001 47.21822,76.85412400000001 47.372042,76.32706300000001 47.542112,75.791403 47.725593,75.24822 47.919581,74.69849900000001 48.121115,74.143134 48.652651000000006,72.69823000000001 35.606936000000005,67.004613 34.936795000000004,67.89834400000001 34.741056,68.159959 34.545241000000004,68.42282300000001 34.349629,68.68714200000001 34.154503000000005,68.95312600000001 33.960147000000006,69.220988 33.766850000000005,69.490941 33.574903000000006,69.763197 33.384602,70.03797300000001 33.196243,70.31548400000001 33.010129000000006,70.595945 32.826566,70.87957300000001 32.645862,71.166582 32.468489000000005,71.45692700000001 32.295550000000006,71.74907 32.127325,72.040602 31.962997,72.33027100000001 31.801522000000002,72.617289 31.6419,72.900879 31.483174,73.180273 31.324431,73.45471500000001 31.164800000000003,73.723465 31.00345,73.985803 30.839588000000003,74.241038 30.672453,74.488521 30.501305000000002,74.727654 30.325408000000003,74.957919 30.143116000000003,75.17998 29.951651000000002,75.396822 29.749897,75.61117100000001 29.538525,75.82386500000001 29.318459,76.03556400000001 29.090689,76.24695600000001 29.032247,76.29975900000001 29.032247,114.23768000000001 35.921885,114.23768000000001 38.332247,100.517158 19.732247,100.517158 17.321885,114.23768000000001 5.577049000000002,114.23768000000001 5.4453270000000025,111.364945 5.355333000000002,109.447624 5.261242000000003,107.531654 5.160989000000001,105.61717300000001 5.052508000000003,103.70431400000001 4.933728000000002,101.793028 4.803227000000003,99.88250300000001 4.662327000000001,97.971749 4.513073000000002,96.060456 4.3575250000000025,94.14849000000001 4.197748000000001,92.235716 4.0,89.898832 4.632179000000001,89.176267 4.985570000000003,88.77309600000001 5.341563000000001,88.368449 5.700697000000002,87.962462 6.063814000000001,87.55493200000001 6.431751000000002,87.145661 6.805341000000002,86.734458 7.185404000000002,86.321149 7.571833000000002,85.906524 7.961172000000001,85.49269600000001 8.347650000000002,85.08065 8.726706,84.669914 9.093908000000003,84.26008 9.444830000000003,83.85096 9.775102,83.442586 10.080471000000003,83.035222 10.356907000000003,82.629337 10.600726000000002,82.225553 10.808751,81.82450100000001 10.978461000000003,81.426536 11.10886,81.028901 11.201847,80.62353800000001 11.260601000000001,80.20412800000001 11.286739,79.769209 11.281623000000003,79.318527 11.246699000000003,78.85246000000001 11.183637000000001,78.371835 11.094377000000001,77.87775 10.981115000000003,77.37142800000001 10.846274000000001,76.85412400000001 10.692452000000003,76.32706300000001 10.522382,75.791403 10.338901000000003,75.24822 10.144913000000003,74.69849900000001 9.943379,74.143134 9.411843000000001,72.69823000000001 22.457558000000002,67.004613 23.127699,67.89834400000001 23.323438000000003,68.159959 23.519253000000003,68.42282300000001 23.714865000000003,68.68714200000001 23.909991,68.95312600000001 24.104347,69.220988 24.297644000000002,69.490941 24.489591,69.763197 24.679892000000002,70.03797300000001 24.868251,70.31548400000001 25.054365,70.595945 25.237928,70.87957300000001 25.418632000000002,71.166582 25.596005,71.45692700000001 25.768944,71.74907 25.937169,72.040602 26.101497000000002,72.33027100000001 26.262972,72.617289 26.422594000000004,72.900879 26.58132,73.180273 26.740063000000003,73.45471500000001 26.899694,73.723465 27.061044000000003,73.985803 27.224906,74.241038 27.392041000000003,74.488521 27.563189,74.727654 27.739086,74.957919 27.921378,75.17998 28.112843,75.396822 28.314597000000003,75.61117100000001 28.525969000000003,75.82386500000001 28.746035000000003,76.03556400000001 28.973805000000002,76.24695600000001 29.032247,76.29975900000001 29.032247,114.23768000000001 22.142609,114.23768000000001 19.732247,100.517158" stroke="#1f6fb2" stroke-width="0.1" /><text fill="#0a3d62" font-family="sans-serif" font-size="1.6" text-anchor="middle" x="29.032247" y="90.62114650000001">01</text><polygon fill="#cfe3f7" fill-opacity="0.5" points="89.544183,105.06461800000001 90.429439,111.13494200000001 103.542835,111.13494200000001 103.680804,108.51878900000001 103.770819,106.85137 103.86490700000002,105.18550300000001 103.96513100000001,103.52134500000001 104.07354800000002,101.85905000000001 104.192226,100.19856100000001 104.322598,98.53894100000001 104.46336400000001,96.87905900000001 104.612491,95.218558 104.767925,93.55728400000001 104.927609,91.89508500000001 105.123872,89.878423 104.639063,89.146967 104.350517,88.711352 104.06203,88.27528600000001 103.773551,87.83842200000001 103.485028,87.40041400000001 103.19640900000002,86.960914 102.90764300000001,86.519576 102.618687,86.076069 102.32992899999999,85.630678 102.043162,85.184454 101.76090400000001,84.73799400000001 101.485265,84.291246 101.218312,83.844164 100.962086,83.396747 100.718596,82.94903500000001 100.489803,82.50110000000001 100.277613,82.053038 100.083857,81.60495 99.910278,81.156924 99.758525,80.70899800000001 99.63012800000001,80.26107 99.526076,79.811182 99.44563400000001,79.355401 99.38701600000002,78.891531 99.348825,78.41950600000001 99.32967200000002,77.93950500000001 99.32813000000002,77.451824 99.34272000000001,76.95684100000001 99.371902,76.45499000000001 99.414078,75.94673700000001 99.46759600000001,75.432562 99.53074900000001,74.912946 99.601787,74.38835900000001 99.67891800000001,73.85925300000001 99.76031700000001,73.32605600000001 99.965418,72.012107 92.936905,69.10025 92.80302700000001,69.376219 87.07854800000001,67.004613 86.426444,67.447552 86.22361500000001,67.584041 86.023285,67.716339 85.82495700000001,67.84363800000001 85.628151,67.96518800000001 85.432393,68.08030000000001 85.23654300000001,68.18871800000001 85.038593,68.290992 84.837536,68.387631 84.63356,68.478542 84.426968,68.56358 84.218064,68.642604 84.007153,68.71548100000001 83.794544,68.782082 83.580544,68.84228300000001 83.36546100000001,68.89596900000001 83.14950400000001,68.94305 82.93202600000001,68.98363900000001 82.711875,69.01822600000001 82.488622,69.047301 82.26227,69.071286 82.03285,69.090614 81.80041700000001,69.105733 81.565038,69.117107 81.32679200000001,69.125219 81.08576400000001,69.13056700000001 80.842042,69.133671 80.59571600000001,69.135063 80.346872,69.135298 80.094183,69.13494100000001 80.094183,111.13494200000001 88.658927,111.13494200000001 89.544183,105.06461800000001 70.644183,105.06461800000001 69.758927,111.13494200000001 56.645531000000005,111.13494200000001 56.50756200000001,108.51878900000001 56.417547000000006,106.85137 56.323459,105.18550300000001 56.223235,103.52134500000001 56.114818,101.85905000000001 55.996140000000004,100.19856100000001 55.865768,98.53894100000001 55.725002,96.87905900000001 55.575875,95.218558 55.420441000000004,93.55728400000001 55.260757000000005,91.89508500000001 55.064494,89.878423 55.54930300000001,89.146967 55.837849000000006,88.711352 56.12633600000001,88.27528600000001 56.414815000000004,87.83842200000001 56.703338,87.40041400000001 56.991957,86.960914 57.28072300000001,86.519576 57.56967900000001,86.076069 57.85843700000001,85.630678 58.14520400000001,85.184454 58.427462000000006,84.73799400000001 58.703101000000004,84.291246 58.970054000000005,83.844164 59.22628,83.396747 59.469770000000004,82.94903500000001 59.69856300000001,82.50110000000001 59.910753,82.053038 60.10450900000001,81.60495 60.278088000000004,81.156924 60.429841,80.70899800000001 60.558238,80.26107 60.662290000000006,79.811182 60.742732000000004,79.355401 60.80135,78.891531 60.839541000000004,78.41950600000001 60.858694,77.93950500000001 60.860236,77.451824 60.845646,76.95684100000001 60.816464,76.45499000000001 60.774288000000006,75.94673700000001 60.72077,75.432562 60.657617,74.912946 60.586579,74.38835900000001 60.509448000000006,73.85925300000001 60.428049,73.32605600000001 60.222948,72.012107 67.251461,69.10025 67.385339,69.376219 73.109818,67.004613 73.761922,67.447552 73.964751,67.584041 74.165081,67.716339 74.363409,67.84363800000001 74.560215,67.96518800000001 74.75597300000001,68.08030000000001 74.951823,68.18871800000001 75.14977300000001,68.290992 75.35083,68.387631 75.55480600000001,68.478542 75.761398,68.56358 75.970302,68.642604 76.181213,68.71548100000001 76.393822,68.782082 76.607822,68.84228300000001 76.822905,68.89596900000001 77.03886200000001,68.94305 77.25634000000001,68.98363900000001 77.47649100000001,69.01822600000001 77.69974400000001,69.047301 77.926096,69.071286 78.155516,69.090614 78.387949,69.105733 78.623328,69.117107 78.861574,69.125219 79.102602,69.13056700000001 79.34632400000001,69.133671 79.59265,69.135063 79.84149400000001,69.135298 80.094183,69.13494100000001 80.094183,111.13494200000001 71.529439,111.13494200000001 70.644183,105.06461800000001" stroke="#1f6fb2" stroke-width="0.1" /><text fill="#0a3d62" font-family="sans-serif" font-size="1.6" text-anchor="middle" x="80.094183" y="89.06977750000001">02</text></svg>