<?xml version="1.0" encoding="utf-8" ?>
<svg baseProfile="full" height="248.72067099999998cm" version="1.1" viewBox="0 0 118.0 248.72067099999998" width="118.0cm" xmlns="http://www.w3.org/2000/svg" xmlns:ev="http://www.w3.org/2001/xml-events" xmlns:xlink="http://www.w3.org/1999/xlink"><defs /><rect fill="#f7f3ea" height="240.72067099999998" stroke="#333" stroke-width="0.15" width="110.0" x="4.0" y="4.0" /><text fill="#000" font-family="sans-serif" font-size="1.4" x="4.0" y="3.0">PLANO DE CORTE — ancho 110 cm — largo 2.41 m</text><polygon fill="#cfe3f7" fill-opacity="0.5" points="4.0,74.267704 12.00722,74.267704 11.601177,17.827772 15.824922,5.262131 13.300661,4.0 12.604548000000001,4.928368 12.408809,5.189983 12.212994,5.452847 12.017382000000001,5.717166 11.822256,5.98315 11.6279,6.251011999999999 11.434603,6.520965 11.242656,6.793221 11.052355,7.067997 10.863996,7.345508 10.677882,7.6259689999999996 10.494319,7.909597 10.313615,8.196606 10.136242,8.486951000000001 9.963303,8.779094 9.795078,9.070626 9.63075,9.360295 9.469275,9.647313 9.309653,9.930903 9.150927,10.210297 8.992184,10.484739000000001 8.832553,10.753489 8.671203,11.015827 8.507341,11.271062 8.340206,11.518545 8.169058,11.757678 7.993161000000001,11.987943000000001 7.810869,12.210004 7.619404,12.426846 7.41765,12.641195 7.206278,12.853889 6.986212,13.065588 6.7584420000000005,13.27698 6.524011,13.488792 6.322425,13.667704 4.0,13.667704 4.0,74.267704" stroke="#1f6fb2" stroke-width="0.1" /><text fill="#0a3d62" font-family="sans-serif" font-size="1.6" text-anchor="middle" x="9.912461" y="39.133852">09</text><polygon fill="#cfe3f7" fill-opacity="0.5" points="16.824922,74.267704 24.832142,74.267704 24.426099,17.827772 28.649844,5.262131 26.125583,4.0 25.429470000000002,4.928368 25.233731,5.189983 25.037916000000003,5.452847 24.842304000000002,5.717166 24.647178,5.98315 24.452822,6.251011999999999 24.259525,6.520965 24.067578,6.793221 23.877277,7.067997 23.688918,7.345508 23.502804,7.6259689999999996 23.319241,7.909597 23.138537,8.196606 22.961164,8.486951000000001 22.788225,8.779094 22.62,9.070626 22.455672,9.360295 22.294197,9.647313 22.134575,9.930903 21.975849,10.210297 21.817106000000003,10.484739000000001 21.657475,10.753489 21.496125,11.015827 21.332263,11.271062 21.165128000000003,11.518545 20.99398,11.757678 20.818083,11.987943000000001 20.635791,12.210004 20.444326,12.426846 20.242572000000003,12.641195 20.031200000000002,12.853889 19.811134000000003,13.065588 19.583364,13.27698 19.348933000000002,13.488792 19.147347,13.667704 16.824922,13.667704 16.824922,74.267704" stroke="#1f6fb2" stroke-width="0.1" /><text fill="#0a3d62" font-family="sans-serif" font-size="1.6" text-anchor="middle" x="22.737383" y="39.133852">09</text><polygon fill="#cfe3f7" fill-opacity="0.5" points="34.253381000000005,66.004613 60.082085,66.004613 64.694586,14.559622999999998 63.988243,13.774989999999999 63.567436,13.312847999999999 63.13796,12.851835999999999 62.697763,12.395239 62.247089,11.9474 61.788167,11.51006 61.321992,11.082705 60.849184,10.664458 60.370352000000004,10.254439 59.886091,9.851766999999999 59.396986,9.455561 58.903613,9.064943 58.406533,8.679036 57.905640000000005,8.296466 57.398901,7.915755 56.883821,7.538259 56.359262,7.1668959999999995 55.824247,6.804792 55.277744,6.4551289999999995 54.718687,6.121163 54.14599200000001,5.80625 53.558596,5.513857 52.955505,5.24759 52.337374000000004,5.011762 51.709293,4.809616 51.077002,4.638591 50.442750000000004,4.494111 49.808081,4.371542 49.174414,4.266382 48.543098,4.174272 47.915466,4.0909949999999995 47.193968,4.0 46.458807,4.05394 45.818061,4.104962 45.173491,4.164405 44.526244000000005,4.236438 43.877471,4.325369 43.228369,4.435643 42.58024,4.57184 41.934651,4.738636 41.295789,4.939882 40.669523,5.174805 40.058158000000006,5.439152 39.4611,5.729414 38.877518,6.042254 38.30653,6.374447 37.747238,6.722872 37.198757,7.084489 36.660236,7.456322999999999 36.13086,7.835451 35.609041000000005,8.2196 35.091823000000005,8.609293000000001 34.578595,9.007759 34.071195,9.417183999999999 33.571837,9.839547 33.082792,10.276864 32.606406,10.731176 32.145118000000004,11.204525 31.701477000000004,11.698924 31.278642,12.215724 30.882289000000004,12.750982 30.512518000000004,13.294198000000002 30.163320000000002,13.837394 29.649844,14.659607999999999 34.253381000000005,66.004613" stroke="#1f6fb2" stroke-width="0.1" /><text fill="#0a3d62" font-family="sans-serif" font-size="1.6" text-anchor="middle" x="47.172215" y="35.0023065">04</text><polygon fill="#cfe3f7" fill-opacity="0.5" points="70.298123,66.004613 96.12682699999999,66.004613 100.739328,14.559622999999998 100.032985,13.774989999999999 99.612178,13.312847999999999 99.182702,12.851835999999999 98.742505,12.395239 98.291831,11.9474 97.832909,11.51006 97.36673400000001,11.082705 96.893926,10.664458 96.41509400000001,10.254439 95.930833,9.851766999999999 95.441728,9.455561 94.94835499999999,9.064943 94.45127500000001,8.679036 93.950382,8.296466 93.44364300000001,7.915755 92.928563,7.538259 92.404004,7.1668959999999995 91.868989,6.804792 91.322486,6.4551289999999995 90.763429,6.121163 90.190734,5.80625 89.60333800000001,5.513857 89.000247,5.24759 88.382116,5.011762 87.754035,4.809616 87.121744,4.638591 86.487492,4.494111 85.852823,4.371542 85.219156,4.266382 84.58784,4.174272 83.960208,4.0909949999999995 83.23871,4.0 82.50354899999999,4.05394 81.862803,4.104962 81.218233,4.164405 80.570986,4.236438 79.922213,4.325369 79.273111,4.435643 78.624982,4.57184 77.979393,4.738636 77.340531,4.939882 76.714265,5.174805 76.1029,5.439152 75.505842,5.729414 74.92226,6.042254 74.351272,6.374447 73.79198,6.722872 73.243499,7.084489 72.704978,7.456322999999999 72.175602,7.835451 71.653783,8.2196 71.136565,8.609293000000001 70.623337,9.007759 70.115937,9.417183999999999 69.616579,9.839547 69.127534,10.276864 68.651148,10.731176 68.18986,11.204525 67.746219,11.698924 67.323384,12.215724 66.927031,12.750982 66.55726,13.294198000000002 66.208062,13.837394 65.694586,14.659607999999999 70.298123,66.004613" stroke="#1f6fb2" stroke-width="0.1" /><text fill="#0a3d62" font-family="sans-serif" font-size="1.6" text-anchor="middle" x="83.21695700000001" y="35.0023065">04</text><polygon fill="#cfe3f7" fill-opacity="0.5" points="4.0,84.90077099999999 4.0,112.380771 31.7,112.380771 31.7,98.12506499999999 31.100672,97.44004699999999 30.746677,97.036187 30.390684,96.63154 30.03155,96.22555299999999 29.668433,95.818023 29.300496,95.40875199999999 28.926906,94.99754899999999 28.546843,94.58424 28.160414,94.169615 27.771075,93.755787 27.384597,93.343741 27.005541,92.933005 26.638339,92.52317099999999 26.287416999999998,92.11405099999999 25.957145,91.705677 25.651775999999998,91.298313 25.375339999999998,90.892428 25.131521,90.488644 24.923496,90.087592 24.753785999999998,89.689627 24.623387,89.291992 24.5304,88.886629 24.471646,88.467219 24.445508,88.03229999999999 24.450623999999998,87.58161799999999 24.485547999999998,87.115551 24.54861,86.634926 24.63787,86.140841 24.751132,85.634519 24.885973,85.11721499999999 25.039794999999998,84.590154 25.209865,84.05449399999999 25.393345999999998,83.51131099999999 25.587334,82.96159 25.788868,82.40622499999999 26.320404,80.961321 13.274689,75.267704 12.604548000000001,76.161435 12.408809,76.42304999999999 12.212994,76.685914 12.017382000000001,76.950233 11.822256,77.216217 11.6279,77.484079 11.434603,77.754032 11.242656,78.026288 11.052355,78.301064 10.863996,78.578575 10.677882,78.85903599999999 10.494319,79.142664 10.313615,79.429673 10.136242,79.720018 9.963303,80.01216099999999 9.795078,80.303693 9.63075,80.593362 9.469275,80.88038 9.309653,81.16396999999999 9.150927,81.44336399999999 8.992184,81.717806 8.832553,81.986556 8.671203,82.24889399999999 8.507341,82.50412899999999 8.340206,82.751612 8.169058,82.99074499999999 7.993161000000001,83.22100999999999 7.810869,83.44307099999999 7.619404,83.65991299999999 7.41765,83.87426199999999 7.206278,84.086956 6.986212,84.298655 6.7584420000000005,84.510047 6.524011,84.721859 6.322425,84.90077099999999 4.0,84.90077099999999" stroke="#1f6fb2" stroke-width="0.1" /><text fill="#0a3d62" font-family="sans-serif" font-size="1.6" text-anchor="middle" x="17.85" y="93.8242375">01</text><polygon fill="#cfe3f7" fill-opacity="0.5" points="32.7,84.90077099999999 32.7,112.380771 60.400000000000006,112.380771 60.400000000000006,98.12506499999999 59.800672000000006,97.44004699999999 59.446677,97.036187 59.090684,96.63154 58.73155,96.22555299999999 58.368433,95.818023 58.000496,95.40875199999999 57.626906000000005,94.99754899999999 57.246843,94.58424 56.860414000000006,94.169615 56.471075,93.755787 56.084597,93.343741 55.705541000000004,92.933005 55.338339000000005,92.52317099999999 54.987417,92.11405099999999 54.657145,91.705677 54.351776,91.298313 54.07534,90.892428 53.831521,90.488644 53.623496,90.087592 53.453786,89.689627 53.323387000000004,89.291992 53.2304,88.886629 53.171646,88.467219 53.14550800000001,88.03229999999999 53.150624,87.58161799999999 53.185548,87.115551 53.24861,86.634926 53.33787,86.140841 53.451132,85.634519 53.585973,85.11721499999999 53.739795,84.590154 53.909865,84.05449399999999 54.093346,83.51131099999999 54.287334,82.96159 54.488868000000004,82.40622499999999 55.020404,80.961321 41.974689000000005,75.267704 41.304548000000004,76.161435 41.108809,76.42304999999999 40.912994000000005,76.685914 40.717382,76.950233 40.522256000000006,77.216217 40.3279,77.484079 40.134603000000006,77.754032 39.942656,78.026288 39.752355,78.301064 39.563996,78.578575 39.377882,78.85903599999999 39.19431900000001,79.142664 39.013615,79.429673 38.836242000000006,79.720018 38.663303,80.01216099999999 38.49507800000001,80.303693 38.33075,80.593362 38.169275,80.88038 38.009653,81.16396999999999 37.850927000000006,81.44336399999999 37.692184000000005,81.717806 37.53255300000001,81.986556 37.371203,82.24889399999999 37.207341,82.50412899999999 37.040206000000005,82.751612 36.869058,82.99074499999999 36.693161,83.22100999999999 36.510869,83.44307099999999 36.319404000000006,83.65991299999999 36.117650000000005,83.87426199999999 35.906278,84.086956 35.686212000000005,84.298655 35.458442000000005,84.510047 35.224011000000004,84.721859 35.022425000000005,84.90077099999999 32.7,84.90077099999999" stroke="#1f6fb2" stroke-width="0.1" /><text fill="#0a3d62" font-family="sans-serif" font-size="1.6" text-anchor="middle" x="46.550000000000004" y="93.8242375">01</text><polygon fill="#cfe3f7" fill-opacity="0.5" points="105.693667,110.38770399999999 88.727484,75.267704 61.4,75.267704 61.4,110.38770399999999 105.693667,110.38770399999999" stroke="#1f6fb2" stroke-width="0.1" /><text fill="#0a3d62" font-family="sans-serif" font-size="1.6" text-anchor="middle" x="83.5468335" y="92.827704">21</text><polygon fill="#cfe3f7" fill-opacity="0.5" points="48.293667000000006,148.500771 31.327484,113.380771 4.0,113.380771 4.0,148.500771 48.293667000000006,148.500771" stroke="#1f6fb2" stroke-width="0.1" /><text fill="#0a3d62" font-family="sans-serif" font-size="1.6" text-anchor="middle" x="26.146833500000003" y="130.94077099999998">21</text><polygon fill="#cfe3f7" fill-opacity="0.5" points="70.221151,149.500771 45.593667,149.500771 45.593667,184.620771 87.187334,184.620771 70.221151,149.500771 20.966183000000004,149.500771 45.593667,149.500771 45.593667,184.620771 4.0,184.620771 20.966183000000004,149.500771" stroke="#1f6fb2" stroke-width="0.1" /><text fill="#0a3d62" font-family="sans-serif" font-size="1.6" text-anchor="middle" x="45.593667" y="167.060771">22</text><polygon fill="#cfe3f7" fill-opacity="0.5" points="53.256333999999995,197.197181 52.967847,196.761115 52.679368,196.324251 52.390845,195.88624299999998 52.102226,195.446743 51.81346,195.005405 51.524504,194.56189799999999 51.235746,194.11650699999998 50.948979,193.67028299999998 50.666720999999995,193.22382299999998 50.391082,192.777075 50.124128999999996,192.329993 49.867903,191.882576 49.624413000000004,191.434864 49.39562,190.986929 49.18343,190.53886699999998 48.989674,190.090779 48.816095000000004,189.642753 48.664342000000005,189.194827 48.535945,188.74689899999998 48.431893,188.297011 48.351451,187.84123 48.292833,187.37735999999998 48.254642000000004,186.90533499999998 48.203385999999995,185.620771 29.0,185.620771 29.0,212.500771 54.0,212.500771 54.0,198.319459 53.54488,197.63279599999998 53.256333999999995,197.197181 4.743666000000001,197.197181 5.032153000000001,196.761115 5.320632,196.324251 5.609155000000001,195.88624299999998 5.897773999999998,195.446743 6.186540000000001,195.005405 6.475496,194.56189799999999 6.764254000000001,194.11650699999998 7.051020999999999,193.67028299999998 7.333279000000001,193.22382299999998 7.608917999999999,192.777075 7.875871,192.329993 8.132097000000002,191.882576 8.375587,191.434864 8.604379999999999,190.986929 8.816569999999999,190.53886699999998 9.010326,190.090779 9.183905,189.642753 9.335657999999999,189.194827 9.464054999999998,188.74689899999998 9.568107000000001,188.297011 9.648549,187.84123 9.707166999999998,187.37735999999998 9.745358,186.90533499999998 9.796614000000002,185.620771 29.0,185.620771 29.0,212.500771 4.0,212.500771 4.0,198.319459 4.455120000000001,197.63279599999998 4.743666000000001,197.197181" stroke="#1f6fb2" stroke-width="0.1" /><text fill="#0a3d62" font-family="sans-serif" font-size="1.6" text-anchor="middle" x="29.0" y="199.060771">02</text><polygon fill="#cfe3f7" fill-opacity="0.5" points="55.0,196.892676 62.0,201.302676 69.0,196.892676 69.0,185.620771 55.0,185.620771 55.0,196.892676" stroke="#1f6fb2" stroke-width="0.1" /><text fill="#0a3d62" font-family="sans-serif" font-size="1.6" text-anchor="middle" x="62.0" y="193.4617235">10</text><polygon fill="#cfe3f7" fill-opacity="0.5" points="70.0,197.86989799999998 70.029841,198.172878 70.132547,198.511453 70.299332,198.823486 70.523786,199.096985 70.797285,199.321439 71.109318,199.488224 71.447893,199.59093 71.750873,199.620771 93.249127,199.620771 93.552107,199.59093 93.890682,199.488224 94.202715,199.321439 94.476214,199.096985 94.70066800000001,198.823486 94.867453,198.511453 94.970159,198.172878 95.0,197.86989799999998 95.0,187.371644 94.970159,187.06866399999998 94.867453,186.730089 94.70066800000001,186.41805599999998 94.476214,186.144557 94.202715,185.92010299999998 93.890682,185.75331799999998 93.552107,185.650612 93.249127,185.620771 71.750873,185.620771 71.447893,185.650612 71.109318,185.75331799999998 70.797285,185.92010299999998 70.523786,186.144557 70.299332,186.41805599999998 70.132547,186.730089 70.029841,187.06866399999998 70.0,187.371644 70.0,197.86989799999998" stroke="#1f6fb2" stroke-width="0.1" /><text fill="#0a3d62" font-family="sans-serif" font-size="1.6" text-anchor="middle" x="82.5" y="192.620771">05</text><polygon fill="#cfe3f7" fill-opacity="0.5" points="4.0,225.74989799999997 4.029841,226.052878 4.132547,226.39145299999998 4.299332,226.703486 4.523786,226.97698499999998 4.7972850000000005,227.201439 5.109318,227.368224 5.4478930000000005,227.47092999999998 5.750873,227.500771 27.249127,227.500771 27.552107,227.47092999999998 27.890682,227.368224 28.202715,227.201439 28.476214,226.97698499999998 28.700668,226.703486 28.867453,226.39145299999998 28.970159,226.052878 29.0,225.74989799999997 29.0,215.251644 28.970159,214.94866399999998 28.867453,214.610089 28.700668,214.29805599999997 28.476214,214.024557 28.202715,213.80010299999998 27.890682,213.63331799999997 27.552107,213.530612 27.249127,213.500771 5.750873,213.500771 5.4478930000000005,213.530612 5.109318,213.63331799999997 4.7972850000000005,213.80010299999998 4.523786,214.024557 4.299332,214.29805599999997 4.132547,214.610089 4.029841,214.94866399999998 4.0,215.251644 4.0,225.74989799999997" stroke="#1f6fb2" stroke-width="0.1" /><text fill="#0a3d62" font-family="sans-serif" font-size="1.6" text-anchor="middle" x="16.5" y="220.500771">05</text><polygon fill="#cfe3f7" fill-opacity="0.5" points="69.109812,224.42683499999998 69.10827,223.93915399999997 69.12286,223.44417099999998 69.152042,222.94232 69.194218,222.434067 69.247736,221.91989199999998 69.310889,221.400276 69.381927,220.875689 69.459058,220.34658299999998 69.540457,219.81338599999998 69.74864600000001,218.47965699999997 56.845692,213.500771 56.206584,213.934882 56.003755,214.071371 55.803425000000004,214.203669 55.605097,214.33096799999998 55.408291,214.452518 55.212533,214.56762999999998 55.016683,214.67604799999998 54.818733,214.77832199999997 54.617676,214.87496099999998 54.4137,214.965872 54.207108000000005,215.05091 53.998204,215.129934 53.787293000000005,215.202811 53.574684000000005,215.269412 53.360684,215.329613 53.145601,215.383299 52.929643999999996,215.43037999999999 52.712165999999996,215.470969 52.492015,215.50555599999998 52.268762,215.534631 52.042410000000004,215.55861599999997 51.81299,215.57794399999997 51.580557,215.59306299999997 51.345178000000004,215.604437 51.106932,215.61254899999997 50.865904,215.617897 50.622182,215.62100099999998 50.375856,215.622393 50.127012,215.622628 49.874323000000004,215.62227099999998 49.874323000000004,225.62227199999998 69.157512,225.62227199999998 69.109812,224.42683499999998 30.638834,224.42683499999998 30.640376,223.93915399999997 30.625786,223.44417099999998 30.596604,222.94232 30.554428,222.434067 30.50091,221.91989199999998 30.437757,221.400276 30.366719,220.875689 30.289588000000002,220.34658299999998 30.208189,219.81338599999998 30.0,218.47965699999997 42.902954,213.500771 43.542062,213.934882 43.744890999999996,214.071371 43.945221000000004,214.203669 44.143549,214.33096799999998 44.340355,214.452518 44.536113,214.56762999999998 44.731963,214.67604799999998 44.929913,214.77832199999997 45.130970000000005,214.87496099999998 45.334946,214.965872 45.541538,215.05091 45.750442,215.129934 45.961353,215.202811 46.173962,215.269412 46.387962,215.329613 46.603045,215.383299 46.819002,215.43037999999999 47.03648,215.470969 47.256631,215.50555599999998 47.479884,215.534631 47.706236000000004,215.55861599999997 47.935656,215.57794399999997 48.168089,215.59306299999997 48.403468000000004,215.604437 48.641714,215.61254899999997 48.882742,215.617897 49.126464,215.62100099999998 49.37279,215.622393 49.621634,215.622628 49.874323000000004,215.62227099999998 49.874323000000004,225.62227199999998 30.591134,225.62227199999998 30.638834,224.42683499999998" stroke="#1f6fb2" stroke-width="0.1" /><text fill="#0a3d62" font-family="sans-serif" font-size="1.6" text-anchor="middle" x="49.874323000000004" y="219.5615215">03</text><polygon fill="#cfe3f7" fill-opacity="0.5" points="26.655368999999997,235.35574799999998 27.146859,235.445045 27.638402,235.529248 28.129994999999997,235.608356 28.621636,235.682367 29.113321,235.75127999999998 29.605047999999996,235.815094 30.096814,235.873807 30.588614999999997,235.927419 31.080448999999998,235.97592799999998 31.572312999999998,236.019334 32.064203,236.05763499999998 32.556116,236.09083099999998 33.048049,236.118921 33.539998999999995,236.14190399999998 34.031962,236.15978099999998 34.523936,236.17255 35.015916,236.18021199999998 35.507898999999995,236.182765 35.999882,236.18021199999998 36.491862,236.17255 36.983836,236.15978099999998 37.475798999999995,236.14190399999998 37.967749,236.118921 38.459682,236.09083099999998 38.951595,236.05763499999998 39.443484999999995,236.019334 39.935349,235.97592799999998 40.427183,235.927419 40.918983999999995,235.873807 41.41075,235.815094 41.902477,235.75127999999998 42.394161999999994,235.682367 42.885802999999996,235.608356 43.377396,235.529248 43.868939,235.445045 44.360428999999996,235.35574799999998 44.644778,235.301134 46.6965,238.72067099999998 47.751718,238.321688 45.938626,228.500771 44.46481,228.79914399999998 43.993041,228.88975599999998 43.521327,228.97545899999997 43.049666,229.056256 42.578055,229.13214799999997 42.106492,229.203137 41.634973,229.26922399999998 41.163495999999995,229.33040999999997 40.692057999999996,229.386697 40.220655,229.43808499999997 39.749285,229.48457599999998 39.277945,229.52616999999998 38.806630999999996,229.56286899999998 38.33534,229.594673 37.864069,229.621583 37.392815,229.6436 36.921574,229.660723 36.450344,229.67295399999998 35.979119999999995,229.68029199999998 35.507898999999995,229.682739 35.036677999999995,229.68029199999998 34.565454,229.67295399999998 34.094224,229.660723 33.622983,229.6436 33.151729,229.621583 32.680458,229.594673 32.209166999999994,229.56286899999998 31.737852999999998,229.52616999999998 31.266512999999996,229.48457599999998 30.795143,229.43808499999997 30.323739999999997,229.386697 29.852301999999998,229.33040999999997 29.380824999999998,229.26922399999998 28.909305999999997,229.203137 28.437742999999998,229.13214799999997 27.966131999999998,229.056256 27.494470999999997,228.97545899999997 27.022757,228.88975599999998 26.550987999999997,228.79914399999998 25.875859,228.662465 25.875859,235.203039 26.163933999999998,235.26136 26.655368999999997,235.35574799999998 25.096349,235.35574799999998 24.604858999999998,235.445045 24.113315999999998,235.529248 23.621723,235.608356 23.130081999999998,235.682367 22.638396999999998,235.75127999999998 22.14667,235.815094 21.654904,235.873807 21.163103,235.927419 20.671269,235.97592799999998 20.179405,236.019334 19.687514999999998,236.05763499999998 19.195601999999997,236.09083099999998 18.703668999999998,236.118921 18.211719,236.14190399999998 17.719755999999997,236.15978099999998 17.227781999999998,236.17255 16.735802,236.18021199999998 16.243819,236.182765 15.751835999999999,236.18021199999998 15.259856,236.17255 14.767881999999998,236.15978099999998 14.275918999999998,236.14190399999998 13.783968999999999,236.118921 13.292035999999998,236.09083099999998 12.800123,236.05763499999998 12.308232999999998,236.019334 11.816368999999998,235.97592799999998 11.324535,235.927419 10.832733999999999,235.873807 10.340967999999998,235.815094 9.849241,235.75127999999998 9.357555999999999,235.682367 8.865914999999998,235.608356 8.374322,235.529248 7.882778999999999,235.445045 7.391288999999997,235.35574799999998 7.106939999999998,235.301134 5.055218,238.72067099999998 4.0,238.321688 5.8130919999999975,228.500771 7.286907999999997,228.79914399999998 7.758676999999999,228.88975599999998 8.230390999999997,228.97545899999997 8.702051999999998,229.056256 9.173662999999998,229.13214799999997 9.645225999999997,229.203137 10.116744999999998,229.26922399999998 10.588221999999998,229.33040999999997 11.05966,229.386697 11.531062999999998,229.43808499999997 12.002432999999998,229.48457599999998 12.473772999999998,229.52616999999998 12.945087,229.56286899999998 13.416377999999998,229.594673 13.887648999999998,229.621583 14.358902999999998,229.6436 14.830143999999999,229.660723 15.301374,229.67295399999998 15.772597999999999,229.68029199999998 16.243819,229.682739 16.71504,229.68029199999998 17.186263999999998,229.67295399999998 17.657494,229.660723 18.128735,229.6436 18.599988999999997,229.621583 19.07126,229.594673 19.542551,229.56286899999998 20.013865,229.52616999999998 20.485205,229.48457599999998 20.956574999999997,229.43808499999997 21.427978,229.386697 21.899416,229.33040999999997 22.370893,229.26922399999998 22.842412,229.203137 23.313975,229.13214799999997 23.785586,229.056256 24.257247,228.97545899999997 24.728960999999998,228.88975599999998 25.20073,228.79914399999998 25.875859,228.662465 25.875859,235.203039 25.587784,235.26136 25.096349,235.35574799999998" stroke="#1f6fb2" stroke-width="0.1" /><text fill="#0a3d62" font-family="sans-serif" font-size="1.6" text-anchor="middle" x="25.875859" y="233.61072099999998">07</text><polygon fill="#cfe3f7" fill-opacity="0.5" points="71.627903,233.80331299999997 72.159438,233.874306 72.69099399999999,233.94124499999998 73.22256999999999,234.00412899999998 73.754166,234.06295799999998 74.28577999999999,234.117732 74.81741099999999,234.16845099999998 75.349058,234.21511299999997 75.880719,234.25771799999998 76.412393,234.296267 76.94407899999999,234.330759 77.475776,234.36119399999998 78.007482,234.38757099999998 78.539196,234.409891 79.070916,234.42815299999998 79.602642,234.442356 80.134372,234.45250199999998 80.66610399999999,234.458589 81.19783799999999,234.46061799999998 81.72957199999999,234.458589 82.261304,234.45250199999998 82.79303399999999,234.442356 83.32476,234.42815299999998 83.85648,234.409891 84.388194,234.38757099999998 84.9199,234.36119399999998 85.45159699999999,234.330759 85.983283,234.296267 86.514957,234.25771799999998 87.046618,234.21511299999997 87.57826499999999,234.16845099999998 88.10989599999999,234.117732 88.64151,234.06295799999998 89.17310599999999,234.00412899999998 89.70468199999999,233.94124499999998 90.236238,233.874306 90.76777299999999,233.80331299999997 91.299284,233.728267 92.679878,233.522799 92.679878,228.500771 91.01226799999999,228.748955 90.495575,228.82190899999998 89.978906,228.89091599999998 89.46225799999999,228.955977 88.94563,229.017093 88.429022,229.074264 87.912432,229.12749 87.395859,229.17677099999997 86.879302,229.222109 86.362759,229.26350399999998 85.846229,229.300955 85.329711,229.334463 84.813204,229.364028 84.296706,229.389651 83.780216,229.411331 83.263732,229.429069 82.747254,229.44286599999998 82.23078,229.45272 81.71430799999999,229.458633 81.19783799999999,229.460604 80.68136799999999,229.458633 80.164896,229.45272 79.648422,229.44286599999998 79.131944,229.429069 78.61546,229.411331 78.09897,229.389651 77.582472,229.364028 77.06596499999999,229.334463 76.549447,229.300955 76.032917,229.26350399999998 75.516374,229.222109 74.999817,229.17677099999997 74.483244,229.12749 73.96665399999999,229.074264 73.450046,229.017093 72.93341799999999,228.955977 72.41677,228.89091599999998 71.90010099999999,228.82190899999998 71.383408,228.748955 70.71579799999999,228.649597 70.71579799999999,233.67162499999998 71.096392,233.728267 71.627903,233.80331299999997 69.803693,233.80331299999997 69.27215799999999,233.874306 68.740602,233.94124499999998 68.209026,234.00412899999998 67.67742999999999,234.06295799999998 67.145816,234.117732 66.61418499999999,234.16845099999998 66.082538,234.21511299999997 65.550877,234.25771799999998 65.019203,234.296267 64.487517,234.330759 63.955819999999996,234.36119399999998 63.424113999999996,234.38757099999998 62.892399999999995,234.409891 62.360679999999995,234.42815299999998 61.828953999999996,234.442356 61.297224,234.45250199999998 60.765491999999995,234.458589 60.233757999999995,234.46061799999998 59.702023999999994,234.458589 59.170291999999996,234.45250199999998 58.63856199999999,234.442356 58.106835999999994,234.42815299999998 57.575115999999994,234.409891 57.04340199999999,234.38757099999998 56.51169599999999,234.36119399999998 55.97999899999999,234.330759 55.448313,234.296267 54.916638999999996,234.25771799999998 54.384978,234.21511299999997 53.853331,234.16845099999998 53.32169999999999,234.117732 52.790085999999995,234.06295799999998 52.258489999999995,234.00412899999998 51.726913999999994,233.94124499999998 51.195358,233.874306 50.663822999999994,233.80331299999997 50.132312,233.728267 48.751718,233.522799 48.751718,228.500771 50.41932799999999,228.748955 50.936021,228.82190899999998 51.45269,228.89091599999998 51.96933799999999,228.955977 52.485966,229.017093 53.002573999999996,229.074264 53.519163999999996,229.12749 54.035737,229.17677099999997 54.552293999999996,229.222109 55.068836999999995,229.26350399999998 55.585367,229.300955 56.101884999999996,229.334463 56.618392,229.364028 57.13489,229.389651 57.651379999999996,229.411331 58.167863999999994,229.429069 58.684341999999994,229.44286599999998 59.200815999999996,229.45272 59.717287999999996,229.458633 60.233757999999995,229.460604 60.75022799999999,229.458633 61.2667,229.45272 61.783173999999995,229.44286599999998 62.299651999999995,229.429069 62.816136,229.411331 63.332626,229.389651 63.849123999999996,229.364028 64.365631,229.334463 64.882149,229.300955 65.39867899999999,229.26350399999998 65.915222,229.222109 66.43177899999999,229.17677099999997 66.948352,229.12749 67.464942,229.074264 67.98155,229.017093 68.498178,228.955977 69.014826,228.89091599999998 69.53149499999999,228.82190899999998 70.048188,228.748955 70.71579799999999,228.649597 70.71579799999999,233.67162499999998 70.335204,233.728267 69.803693,233.80331299999997" stroke="#1f6fb2" stroke-width="0.1" /><text fill="#0a3d62" font-family="sans-serif" font-size="1.6" text-anchor="middle" x="70.71579799999999" y="231.4806945">08</text><polygon fill="#cfe3f7" fill-opacity="0.5" points="93.679878,232.14989799999998 93.702033,232.37484099999998 93.781976,232.638379 93.911797,232.88125699999998 94.086507,233.09414199999998 94.299392,233.26885199999998 94.54227,233.39867299999997 94.805808,233.478616 95.03075100000001,233.500771 106.329005,233.500771 106.553948,233.478616 106.817486,233.39867299999997 107.060364,233.26885199999998 107.273249,233.09414199999998 107.447959,232.88125699999998 107.57778,232.638379 107.657723,232.37484099999998 107.679878,232.14989799999998 107.679878,229.851644 107.657723,229.626701 107.57778,229.363163 107.447959,229.120285 107.273249,228.9074 107.060364,228.73269 106.817486,228.602869 106.553948,228.52292599999998 106.329005,228.500771 95.03075100000001,228.500771 94.805808,228.52292599999998 94.54227,228.602869 94.299392,228.73269 94.086507,228.9074 93.911797,229.120285 93.781976,229.363163 93.702033,229.626701 93.679878,229.851644 93.679878,232.14989799999998" stroke="#1f6fb2" stroke-width="0.1" /><text fill="#0a3d62" font-family="sans-serif" font-size="1.6" text-anchor="middle" x="100.679878" y="231.000771">06</text><polygon fill="#cfe3f7" fill-opacity="0.5" points="4.0,243.36979799999997 4.022155,243.59474099999997 4.102098,243.85827899999998 4.2319189999999995,244.10115699999997 4.406629,244.31404199999997 4.619514,244.48875199999998 4.862392,244.61857299999997 5.12593,244.69851599999998 5.350873,244.72067099999998 16.649127,244.72067099999998 16.87407,244.69851599999998 17.137608,244.61857299999997 17.380485999999998,244.48875199999998 17.593370999999998,244.31404199999997 17.768081000000002,244.10115699999997 17.897902000000002,243.85827899999998 17.977845000000002,243.59474099999997 18.0,243.36979799999997 18.0,241.071544 17.977845000000002,240.846601 17.897902000000002,240.58306299999998 17.768081000000002,240.340185 17.593370999999998,240.1273 17.380485999999998,239.95259 17.137608,239.822769 16.87407,239.74282599999998 16.649127,239.72067099999998 5.350873,239.72067099999998 5.12593,239.74282599999998 4.862392,239.822769 4.619514,239.95259 4.406629,240.1273 4.2319189999999995,240.340185 4.102098,240.58306299999998 4.022155,240.846601 4.0,241.071544 4.0,243.36979799999997" stroke="#1f6fb2" stroke-width="0.1" /><text fill="#0a3d62" font-family="sans-serif" font-size="1.6" text-anchor="middle" x="11.0" y="242.22067099999998">06</text></svg>