<?xml version="1.0" encoding="utf-8" ?>
<svg baseProfile="full" height="154.39381799999998cm" version="1.1" viewBox="0 0 168.0 154.39381799999998" width="168.0cm" xmlns="http://www.w3.org/2000/svg" xmlns:ev="http://www.w3.org/2001/xml-events" xmlns:xlink="http://www.w3.org/1999/xlink"><defs /><rect fill="#f7f3ea" height="146.39381799999998" stroke="#333" stroke-width="0.15" width="160.0" x="4.0" y="4.0" /><text fill="#000" font-family="sans-serif" font-size="1.4" x="4.0" y="3.0">PLANO DE CORTE — ancho 160 cm — largo 1.46 m</text><polygon fill="#cfe3f7" fill-opacity="0.5" points="4.0,74.267704 12.00722,74.267704 11.601177,17.827772 15.824922,5.262131 13.300661,4.0 12.604548000000001,4.928368 12.408809,5.189983 12.212994,5.452847 12.017382000000001,5.717166 11.822256,5.98315 11.6279,6.251011999999999 11.434603,6.520965 11.242656,6.793221 11.052355,7.067997 10.863996,7.345508 10.677882,7.6259689999999996 10.494319,7.909597 10.313615,8.196606 10.136242,8.486951000000001 9.963303,8.779094 9.795078,9.070626 9.63075,9.360295 9.469275,9.647313 9.309653,9.930903 9.150927,10.210297 8.992184,10.484739000000001 8.832553,10.753489 8.671203,11.015827 8.507341,11.271062 8.340206,11.518545 8.169058,11.757678 7.993161000000001,11.987943000000001 7.810869,12.210004 7.619404,12.426846 7.41765,12.641195 7.206278,12.853889 6.986212,13.065588 6.7584420000000005,13.27698 6.524011,13.488792 6.322425,13.667704 4.0,13.667704 4.0,74.267704" stroke="#1f6fb2" stroke-width="0.1" /><text fill="#0a3d62" font-family="sans-serif" font-size="1.6" text-anchor="middle" x="9.912461" y="39.133852">09</text><polygon fill="#cfe3f7" fill-opacity="0.5" points="16.824922,74.267704 24.832142,74.267704 24.426099,17.827772 28.649844,5.262131 26.125583,4.0 25.429470000000002,4.928368 25.233731,5.189983 25.037916000000003,5.452847 24.842304000000002,5.717166 24.647178,5.98315 24.452822,6.251011999999999 24.259525,6.520965 24.067578,6.793221 23.877277,7.067997 23.688918,7.345508 23.502804,7.6259689999999996 23.319241,7.909597 23.138537,8.196606 22.961164,8.486951000000001 22.788225,8.779094 22.62,9.070626 22.455672,9.360295 22.294197,9.647313 22.134575,9.930903 21.975849,10.210297 21.817106000000003,10.484739000000001 21.657475,10.753489 21.496125,11.015827 21.332263,11.271062 21.165128000000003,11.518545 20.99398,11.757678 20.818083,11.987943000000001 20.635791,12.210004 20.444326,12.426846 20.242572000000003,12.641195 20.031200000000002,12.853889 19.811134000000003,13.065588 19.583364,13.27698 19.348933000000002,13.488792 19.147347,13.667704 16.824922,13.667704 16.824922,74.267704" stroke="#1f6fb2" stroke-width="0.1" /><text fill="#0a3d62" font-family="sans-serif" font-size="1.6" text-anchor="middle" x="22.737383" y="39.133852">09</text><polygon fill="#cfe3f7" fill-opacity="0.5" points="71.959486,74.233067 71.959486,26.857360999999997 71.359554,26.171653999999997 71.006163,25.768483 70.65017,25.363836 70.291036,24.957849 69.927919,24.550319 69.559982,24.141047999999998 69.186392,23.729844999999997 68.806329,23.316536 68.4199,22.901911 68.030561,22.488083 67.644083,22.076037 67.265027,21.665301 66.897825,21.255467 66.546903,20.846346999999998 66.216631,20.437973 65.911262,20.030609 65.634826,19.624724 65.391007,19.22094 65.18298200000001,18.819888 65.013272,18.421923 64.882873,18.024288 64.789886,17.618925 64.731132,17.199514999999998 64.704994,16.764596 64.71011,16.313914 64.745034,15.847847 64.808096,15.367222 64.897356,14.873137 65.010618,14.366815 65.145459,13.849511 65.29928100000001,13.32245 65.469351,12.78679 65.652832,12.243606999999999 65.84682000000001,11.693886 66.048354,11.138521 66.57989,9.693617 53.534175000000005,4.0 52.864034000000004,4.893731 52.668295,5.155346 52.472480000000004,5.41821 52.276868,5.682529 52.081742000000006,5.948513 51.88738600000001,6.216374999999999 51.694089000000005,6.486328 51.502142000000006,6.758584 51.311841,7.03336 51.123482,7.310871 50.937368000000006,7.5913319999999995 50.753805,7.87496 50.573101,8.161969 50.395728000000005,8.452314000000001 50.222789000000006,8.744457 50.054564,9.035989 49.890236,9.325658 49.728761000000006,9.612676 49.569139,9.896266 49.410413000000005,10.17566 49.251670000000004,10.450102000000001 49.092039,10.718852 48.930689,10.98119 48.766827000000006,11.236425 48.599692000000005,11.483908 48.428544,11.723041 48.252647,11.953306000000001 48.070355000000006,12.175367 47.87889,12.392209 47.677136000000004,12.606558 47.465764,12.819252 47.245698000000004,13.030951 47.017928,13.242343 46.783497,13.454155 46.543487,13.667169 46.073802,14.080321 29.649844,74.233067 71.959486,74.233067" stroke="#1f6fb2" stroke-width="0.1" /><text fill="#0a3d62" font-family="sans-serif" font-size="1.6" text-anchor="middle" x="50.804665" y="39.1165335">01</text><polygon fill="#cfe3f7" fill-opacity="0.5" points="115.269128,74.233067 115.269128,26.857360999999997 114.669196,26.171653999999997 114.315805,25.768483 113.959812,25.363836 113.600678,24.957849 113.237561,24.550319 112.869624,24.141047999999998 112.496034,23.729844999999997 112.115971,23.316536 111.729542,22.901911 111.340203,22.488083 110.95372499999999,22.076037 110.574669,21.665301 110.207467,21.255467 109.856545,20.846346999999998 109.526273,20.437973 109.22090399999999,20.030609 108.944468,19.624724 108.700649,19.22094 108.492624,18.819888 108.322914,18.421923 108.192515,18.024288 108.09952799999999,17.618925 108.040774,17.199514999999998 108.014636,16.764596 108.019752,16.313914 108.054676,15.847847 108.117738,15.367222 108.206998,14.873137 108.32025999999999,14.366815 108.455101,13.849511 108.608923,13.32245 108.778993,12.78679 108.962474,12.243606999999999 109.156462,11.693886 109.357996,11.138521 109.889532,9.693617 96.843817,4.0 96.173676,4.893731 95.977937,5.155346 95.782122,5.41821 95.58651,5.682529 95.391384,5.948513 95.197028,6.216374999999999 95.003731,6.486328 94.811784,6.758584 94.621483,7.03336 94.43312399999999,7.310871 94.24701,7.5913319999999995 94.063447,7.87496 93.882743,8.161969 93.70537,8.452314000000001 93.532431,8.744457 93.364206,9.035989 93.199878,9.325658 93.038403,9.612676 92.878781,9.896266 92.720055,10.17566 92.561312,10.450102000000001 92.401681,10.718852 92.240331,10.98119 92.076469,11.236425 91.909334,11.483908 91.738186,11.723041 91.56228899999999,11.953306000000001 91.379997,12.175367 91.188532,12.392209 90.986778,12.606558 90.775406,12.819252 90.55534,13.030951 90.32757,13.242343 90.093139,13.454155 89.853129,13.667169 89.383444,14.080321 72.959486,74.233067 115.269128,74.233067" stroke="#1f6fb2" stroke-width="0.1" /><text fill="#0a3d62" font-family="sans-serif" font-size="1.6" text-anchor="middle" x="94.114307" y="39.1165335">01</text><polygon fill="#cfe3f7" fill-opacity="0.5" points="120.872665,66.004613 146.701369,66.004613 151.31387,14.559622999999998 150.607527,13.774989999999999 150.18671999999998,13.312847999999999 149.757244,12.851835999999999 149.317047,12.395239 148.866373,11.9474 148.40745099999998,11.51006 147.941276,11.082705 147.468468,10.664458 146.989636,10.254439 146.505375,9.851766999999999 146.01627,9.455561 145.522897,9.064943 145.025817,8.679036 144.524924,8.296466 144.018185,7.915755 143.503105,7.538259 142.978546,7.1668959999999995 142.443531,6.804792 141.897028,6.4551289999999995 141.33797099999998,6.121163 140.765276,5.80625 140.17788,5.513857 139.574789,5.24759 138.956658,5.011762 138.328577,4.809616 137.696286,4.638591 137.06203399999998,4.494111 136.427365,4.371542 135.793698,4.266382 135.16238199999998,4.174272 134.53475,4.0909949999999995 133.813252,4.0 133.078091,4.05394 132.437345,4.104962 131.792775,4.164405 131.14552799999998,4.236438 130.496755,4.325369 129.847653,4.435643 129.199524,4.57184 128.553935,4.738636 127.91507299999999,4.939882 127.28880699999999,5.174805 126.677442,5.439152 126.080384,5.729414 125.496802,6.042254 124.925814,6.374447 124.36652199999999,6.722872 123.818041,7.084489 123.27951999999999,7.456322999999999 122.75014399999999,7.835451 122.228325,8.2196 121.711107,8.609293000000001 121.197879,9.007759 120.690479,9.417183999999999 120.191121,9.839547 119.70207599999999,10.276864 119.22569,10.731176 118.76440199999999,11.204525 118.32076099999999,11.698924 117.897926,12.215724 117.501573,12.750982 117.131802,13.294198000000002 116.78260399999999,13.837394 116.269128,14.659607999999999 120.872665,66.004613" stroke="#1f6fb2" stroke-width="0.1" /><text fill="#0a3d62" font-family="sans-serif" font-size="1.6" text-anchor="middle" x="133.791499" y="35.0023065">04</text><polygon fill="#cfe3f7" fill-opacity="0.5" points="8.603537000000001,137.272317 34.432241,137.272317 39.044742,85.827327 38.338398999999995,85.042694 37.917592,84.580552 37.488116,84.11954 37.047919,83.662943 36.597245,83.215104 36.138323,82.77776399999999 35.672148,82.350409 35.19934,81.93216199999999 34.720508,81.522143 34.236247,81.11947099999999 33.747142,80.723265 33.253769,80.332647 32.756689,79.94673999999999 32.255796000000004,79.56416999999999 31.749057,79.183459 31.233977,78.80596299999999 30.709418,78.43459999999999 30.174402999999998,78.072496 29.6279,77.722833 29.068843,77.38886699999999 28.496148,77.073954 27.908752,76.781561 27.305661,76.515294 26.687530000000002,76.279466 26.059449,76.07732 25.427158,75.906295 24.792906000000002,75.761815 24.158237,75.639246 23.52457,75.53408599999999 22.893254,75.441976 22.265622,75.358699 21.544124,75.267704 20.808963,75.32164399999999 20.168217,75.372666 19.523647,75.432109 18.8764,75.504142 18.227627,75.59307299999999 17.578525,75.703347 16.930396000000002,75.83954399999999 16.284807,76.00634 15.645945000000001,76.20758599999999 15.019679,76.442509 14.408314,76.70685599999999 13.811256,76.997118 13.227674,77.309958 12.656686,77.642151 12.097394,77.99057599999999 11.548913,78.352193 11.010392,78.72402699999999 10.481016,79.103155 9.959197,79.487304 9.441979,79.87699699999999 8.928751,80.275463 8.421351,80.684888 7.9219930000000005,81.10725099999999 7.432948,81.544568 6.956562,81.99888 6.495274,82.472229 6.051633000000001,82.966628 5.628798,83.48342799999999 5.232445000000002,84.018686 4.862674000000002,84.561902 4.513476000000001,85.105098 4.0,85.927312 8.603537000000001,137.272317" stroke="#1f6fb2" stroke-width="0.1" /><text fill="#0a3d62" font-family="sans-serif" font-size="1.6" text-anchor="middle" x="21.522371" y="106.2700105">04</text><polygon fill="#cfe3f7" fill-opacity="0.5" points="90.044742,87.966392 89.58962199999999,87.279729 89.301076,86.84411399999999 89.01258899999999,86.408048 88.72411,85.971184 88.435587,85.533176 88.146968,85.09367599999999 87.858202,84.65233799999999 87.56924599999999,84.208831 87.28048799999999,83.76344 86.993721,83.317216 86.711463,82.870756 86.435824,82.42400799999999 86.168871,81.97692599999999 85.912645,81.52950899999999 85.669155,81.081797 85.440362,80.633862 85.228172,80.1858 85.034416,79.73771199999999 84.860837,79.28968599999999 84.709084,78.84176 84.580687,78.39383199999999 84.476635,77.94394399999999 84.396193,77.488163 84.337575,77.024293 84.299384,76.552268 84.248128,75.267704 65.044742,75.267704 65.044742,135.26770399999998 90.044742,135.26770399999998 90.044742,87.966392 40.044742,87.966392 40.499862,87.279729 40.788408000000004,86.84411399999999 41.076895,86.408048 41.365374,85.971184 41.653897,85.533176 41.942516,85.09367599999999 42.231282,84.65233799999999 42.520238,84.208831 42.808996,83.76344 43.095763,83.317216 43.378021000000004,82.870756 43.65366,82.42400799999999 43.920613,81.97692599999999 44.176839,81.52950899999999 44.420328999999995,81.081797 44.649122,80.633862 44.861312,80.1858 45.055068,79.73771199999999 45.228646999999995,79.28968599999999 45.380399999999995,78.84176 45.508797,78.39383199999999 45.612849,77.94394399999999 45.693291,77.488163 45.751909,77.024293 45.790099999999995,76.552268 45.841356000000005,75.267704 65.044742,75.267704 65.044742,135.26770399999998 40.044742,135.26770399999998 40.044742,87.966392" stroke="#1f6fb2" stroke-width="0.1" /><text fill="#0a3d62" font-family="sans-serif" font-size="1.6" text-anchor="middle" x="65.044742" y="105.267704">02</text><polygon fill="#cfe3f7" fill-opacity="0.5" points="91.044742,86.539609 98.044742,90.949609 105.044742,86.539609 105.044742,75.267704 91.044742,75.267704 91.044742,86.539609" stroke="#1f6fb2" stroke-width="0.1" /><text fill="#0a3d62" font-family="sans-serif" font-size="1.6" text-anchor="middle" x="98.044742" y="83.1086565">10</text><polygon fill="#cfe3f7" fill-opacity="0.5" points="106.044742,87.516831 106.074583,87.81981099999999 106.177289,88.158386 106.344074,88.47041899999999 106.568528,88.743918 106.842027,88.96837199999999 107.15406,89.13515699999999 107.49263499999999,89.23786299999999 107.795615,89.267704 129.293869,89.267704 129.596849,89.23786299999999 129.935424,89.13515699999999 130.247457,88.96837199999999 130.520956,88.743918 130.74541,88.47041899999999 130.912195,88.158386 131.014901,87.81981099999999 131.04474199999999,87.516831 131.04474199999999,77.018577 131.014901,76.71559699999999 130.912195,76.377022 130.74541,76.064989 130.520956,75.79149 130.247457,75.567036 129.935424,75.400251 129.596849,75.297545 129.293869,75.267704 107.795615,75.267704 107.49263499999999,75.297545 107.15406,75.400251 106.842027,75.567036 106.568528,75.79149 106.344074,76.064989 106.177289,76.377022 106.074583,76.71559699999999 106.044742,77.018577 106.044742,87.516831" stroke="#1f6fb2" stroke-width="0.1" /><text fill="#0a3d62" font-family="sans-serif" font-size="1.6" text-anchor="middle" x="118.544742" y="82.267704">05</text><polygon fill="#cfe3f7" fill-opacity="0.5" points="132.04474199999999,87.516831 132.074583,87.81981099999999 132.17728899999997,88.158386 132.34407399999998,88.47041899999999 132.568528,88.743918 132.84202699999997,88.96837199999999 133.15406,89.13515699999999 133.49263499999998,89.23786299999999 133.795615,89.267704 155.29386899999997,89.267704 155.596849,89.23786299999999 155.93542399999998,89.13515699999999 156.247457,88.96837199999999 156.52095599999998,88.743918 156.74541,88.47041899999999 156.912195,88.158386 157.01490099999998,87.81981099999999 157.04474199999999,87.516831 157.04474199999999,77.018577 157.01490099999998,76.71559699999999 156.912195,76.377022 156.74541,76.064989 156.52095599999998,75.79149 156.247457,75.567036 155.93542399999998,75.400251 155.596849,75.297545 155.29386899999997,75.267704 133.795615,75.267704 133.49263499999998,75.297545 133.15406,75.400251 132.84202699999997,75.567036 132.568528,75.79149 132.34407399999998,76.064989 132.17728899999997,76.377022 132.074583,76.71559699999999 132.04474199999999,77.018577 132.04474199999999,87.516831" stroke="#1f6fb2" stroke-width="0.1" /><text fill="#0a3d62" font-family="sans-serif" font-size="1.6" text-anchor="middle" x="144.54474199999999" y="82.267704">05</text><polygon fill="#cfe3f7" fill-opacity="0.5" points="43.109812000000005,149.19838099999998 43.108270000000005,148.71069999999997 43.12286,148.21571699999998 43.152042,147.713866 43.194218,147.205613 43.247736,146.69143799999998 43.310889,146.171822 43.381927000000005,145.647235 43.459058,145.11812899999998 43.540457,144.58493199999998 43.748646,143.25120299999998 30.845692,138.272317 30.206584,138.706428 30.003755,138.842917 29.803425,138.975215 29.605097,139.10251399999999 29.408291,139.224064 29.212533,139.33917599999998 29.016683,139.44759399999998 28.818733,139.54986799999998 28.617676,139.64650699999999 28.4137,139.737418 28.207108,139.822456 27.998204,139.90148 27.787293000000002,139.974357 27.574684,140.040958 27.360684,140.101159 27.145601,140.154845 26.929644,140.201926 26.712166,140.242515 26.492015000000002,140.27710199999999 26.268762000000002,140.306177 26.04241,140.33016199999997 25.81299,140.34948999999997 25.580557,140.36460899999997 25.345178,140.375983 25.106932,140.38409499999997 24.865904,140.389443 24.622182000000002,140.39254699999998 24.375856,140.393939 24.127012,140.394174 23.874323,140.39381699999998 23.874323,150.39381799999998 43.157512,150.39381799999998 43.109812000000005,149.19838099999998 4.638833999999999,149.19838099999998 4.640376,148.71069999999997 4.6257860000000015,148.21571699999998 4.596603999999999,147.713866 4.5544280000000015,147.205613 4.500910000000001,146.69143799999998 4.437757000000001,146.171822 4.366719,145.647235 4.289588000000002,145.11812899999998 4.208189000000001,144.58493199999998 4.0,143.25120299999998 16.902954,138.272317 17.542062,138.706428 17.744891,138.842917 17.945221,138.975215 18.143549,139.10251399999999 18.340355000000002,139.224064 18.536113,139.33917599999998 18.731963,139.44759399999998 18.929913,139.54986799999998 19.13097,139.64650699999999 19.334946000000002,139.737418 19.541538,139.822456 19.750442,139.90148 19.961353000000003,139.974357 20.173962,140.040958 20.387962,140.101159 20.603045,140.154845 20.819002,140.201926 21.03648,140.242515 21.256631,140.27710199999999 21.479884,140.306177 21.706236,140.33016199999997 21.935656,140.34948999999997 22.168089000000002,140.36460899999997 22.403468,140.375983 22.641714,140.38409499999997 22.882742,140.389443 23.126464,140.39254699999998 23.372790000000002,140.393939 23.621634,140.394174 23.874323,140.39381699999998 23.874323,150.39381799999998 4.591134,150.39381799999998 4.638833999999999,149.19838099999998" stroke="#1f6fb2" stroke-width="0.1" /><text fill="#0a3d62" font-family="sans-serif" font-size="1.6" text-anchor="middle" x="23.874323" y="144.3330675">03</text><polygon fill="#cfe3f7" fill-opacity="0.5" points="67.404015,145.12729399999998 67.895505,145.216591 68.387048,145.300794 68.878641,145.379902 69.370282,145.453913 69.86196699999999,145.52282599999998 70.35369399999999,145.58664 70.84546,145.645353 71.337261,145.698965 71.829095,145.74747399999998 72.320959,145.79088 72.812849,145.82918099999998 73.304762,145.86237699999998 73.796695,145.890467 74.288645,145.91344999999998 74.780608,145.93132699999998 75.272582,145.944096 75.764562,145.95175799999998 76.256545,145.954311 76.748528,145.95175799999998 77.240508,145.944096 77.732482,145.93132699999998 78.224445,145.91344999999998 78.716395,145.890467 79.208328,145.86237699999998 79.700241,145.82918099999998 80.19213099999999,145.79088 80.68399500000001,145.74747399999998 81.175829,145.698965 81.66763,145.645353 82.159396,145.58664 82.651123,145.52282599999998 83.142808,145.453913 83.63444899999999,145.379902 84.126042,145.300794 84.61758499999999,145.216591 85.10907499999999,145.12729399999998 85.39342400000001,145.07268 87.445146,148.49221699999998 88.50036399999999,148.093234 86.68727200000001,138.272317 85.21345600000001,138.57068999999998 84.741687,138.66130199999998 84.269973,138.74700499999997 83.79831200000001,138.827802 83.326701,138.90369399999997 82.85513800000001,138.974683 82.38361900000001,139.04076999999998 81.91214199999999,139.10195599999997 81.440704,139.158243 80.969301,139.20963099999997 80.497931,139.25612199999998 80.026591,139.29771599999998 79.55527699999999,139.33441499999998 79.08398600000001,139.366219 78.61271500000001,139.393129 78.14146099999999,139.415146 77.67022,139.432269 77.19899000000001,139.44449999999998 76.727766,139.45183799999998 76.256545,139.454285 75.785324,139.45183799999998 75.3141,139.44449999999998 74.84287,139.432269 74.371629,139.415146 73.900375,139.393129 73.429104,139.366219 72.957813,139.33441499999998 72.486499,139.29771599999998 72.015159,139.25612199999998 71.543789,139.20963099999997 71.072386,139.158243 70.600948,139.10195599999997 70.129471,139.04076999999998 69.657952,138.974683 69.18638899999999,138.90369399999997 68.714778,138.827802 68.243117,138.74700499999997 67.77140299999999,138.66130199999998 67.299634,138.57068999999998 66.624505,138.434011 66.624505,144.974585 66.91257999999999,145.032906 67.404015,145.12729399999998 65.844995,145.12729399999998 65.353505,145.216591 64.861962,145.300794 64.370369,145.379902 63.878727999999995,145.453913 63.387043,145.52282599999998 62.895316,145.58664 62.403549999999996,145.645353 61.911749,145.698965 61.419915,145.74747399999998 60.928050999999996,145.79088 60.436161,145.82918099999998 59.944248,145.86237699999998 59.452315,145.890467 58.960364999999996,145.91344999999998 58.468402,145.93132699999998 57.976428,145.944096 57.484448,145.95175799999998 56.992464999999996,145.954311 56.500482,145.95175799999998 56.008502,145.944096 55.516528,145.93132699999998 55.024564999999996,145.91344999999998 54.532615,145.890467 54.040682,145.86237699999998 53.548769,145.82918099999998 53.056878999999995,145.79088 52.565015,145.74747399999998 52.073181,145.698965 51.581379999999996,145.645353 51.089614,145.58664 50.597887,145.52282599999998 50.106201999999996,145.453913 49.614560999999995,145.379902 49.122968,145.300794 48.631425,145.216591 48.139934999999994,145.12729399999998 47.855586,145.07268 45.803864000000004,148.49221699999998 44.748646,148.093234 46.561738,138.272317 48.035554,138.57068999999998 48.507323,138.66130199999998 48.979037,138.74700499999997 49.450698,138.827802 49.922309,138.90369399999997 50.393872,138.974683 50.865391,139.04076999999998 51.336867999999996,139.10195599999997 51.808306,139.158243 52.279709,139.20963099999997 52.751079,139.25612199999998 53.222419,139.29771599999998 53.693733,139.33441499999998 54.165024,139.366219 54.636295,139.393129 55.107549,139.415146 55.57879,139.432269 56.05002,139.44449999999998 56.521243999999996,139.45183799999998 56.992464999999996,139.454285 57.463685999999996,139.45183799999998 57.93491,139.44449999999998 58.40614,139.432269 58.877381,139.415146 59.348635,139.393129 59.819906,139.366219 60.291197,139.33441499999998 60.762511,139.29771599999998 61.233851,139.25612199999998 61.705220999999995,139.20963099999997 62.176624000000004,139.158243 62.648061999999996,139.10195599999997 63.119539,139.04076999999998 63.591058000000004,138.974683 64.06262100000001,138.90369399999997 64.534232,138.827802 65.005893,138.74700499999997 65.477607,138.66130199999998 65.949376,138.57068999999998 66.624505,138.434011 66.624505,144.974585 66.33643000000001,145.032906 65.844995,145.12729399999998" stroke="#1f6fb2" stroke-width="0.1" /><text fill="#0a3d62" font-family="sans-serif" font-size="1.6" text-anchor="middle" x="66.624505" y="143.38226699999998">07</text><polygon fill="#cfe3f7" fill-opacity="0.5" points="112.37654899999998,143.57485899999998 112.90808399999999,143.645852 113.43964,143.71279099999998 113.971216,143.77567499999998 114.50281199999999,143.83450399999998 115.034426,143.889278 115.56605699999999,143.93999699999998 116.097704,143.98665899999997 116.62936499999999,144.02926399999998 117.16103899999999,144.067813 117.692725,144.102305 118.22442199999999,144.13273999999998 118.75612799999999,144.15911699999998 119.28784199999998,144.181437 119.81956199999999,144.19969899999998 120.35128799999998,144.213902 120.88301799999999,144.22404799999998 121.41475,144.230135 121.946484,144.23216399999998 122.478218,144.230135 123.00994999999999,144.22404799999998 123.54167999999999,144.213902 124.07340599999999,144.19969899999998 124.60512599999998,144.181437 125.13683999999999,144.15911699999998 125.66854599999999,144.13273999999998 126.20024299999999,144.102305 126.731929,144.067813 127.26360299999999,144.02926399999998 127.79526399999999,143.98665899999997 128.326911,143.93999699999998 128.858542,143.889278 129.390156,143.83450399999998 129.921752,143.77567499999998 130.453328,143.71279099999998 130.984884,143.645852 131.51641899999998,143.57485899999998 132.04793,143.499813 133.42852399999998,143.294345 133.42852399999998,138.272317 131.76091399999999,138.520501 131.24422099999998,138.59345499999998 130.727552,138.66246199999998 130.21090399999997,138.727523 129.694276,138.788639 129.17766799999998,138.84581 128.66107799999997,138.899036 128.14450499999998,138.94831699999997 127.62794799999999,138.993655 127.11140499999999,139.03504999999998 126.59487499999999,139.072501 126.07835699999998,139.106009 125.56184999999999,139.135574 125.045352,139.161197 124.52886199999999,139.182877 124.01237799999998,139.200615 123.49589999999999,139.21441199999998 122.97942599999999,139.224266 122.462954,139.230179 121.946484,139.23215 121.43001399999999,139.230179 120.91354199999999,139.224266 120.39706799999999,139.21441199999998 119.88058999999998,139.200615 119.36410599999999,139.182877 118.84761599999999,139.161197 118.33111799999999,139.135574 117.81461099999999,139.106009 117.298093,139.072501 116.78156299999999,139.03504999999998 116.26501999999999,138.993655 115.74846299999999,138.94831699999997 115.23188999999999,138.899036 114.71529999999998,138.84581 114.198692,138.788639 113.682064,138.727523 113.165416,138.66246199999998 112.64874699999999,138.59345499999998 112.13205399999998,138.520501 111.46444399999999,138.421143 111.46444399999999,143.44317099999998 111.84503799999999,143.499813 112.37654899999998,143.57485899999998 110.55233899999999,143.57485899999998 110.020804,143.645852 109.48924799999999,143.71279099999998 108.95767199999999,143.77567499999998 108.426076,143.83450399999998 107.89446199999999,143.889278 107.36283099999999,143.93999699999998 106.831184,143.98665899999997 106.299523,144.02926399999998 105.76784899999998,144.067813 105.23616299999999,144.102305 104.704466,144.13273999999998 104.17275999999998,144.15911699999998 103.64104599999999,144.181437 103.109326,144.19969899999998 102.57759999999999,144.213902 102.04587,144.22404799999998 101.51413799999999,144.230135 100.98240399999999,144.23216399999998 100.45066999999999,144.230135 99.918938,144.22404799999998 99.38720799999999,144.213902 98.855482,144.19969899999998 98.32376199999999,144.181437 97.792048,144.15911699999998 97.260342,144.13273999999998 96.72864499999999,144.102305 96.19695899999999,144.067813 95.66528499999998,144.02926399999998 95.133624,143.98665899999997 94.60197699999999,143.93999699999998 94.07034599999999,143.889278 93.53873199999998,143.83450399999998 93.00713599999999,143.77567499999998 92.47555999999999,143.71279099999998 91.94400399999999,143.645852 91.41246899999999,143.57485899999998 90.88095799999999,143.499813 89.50036399999999,143.294345 89.50036399999999,138.272317 91.16797399999999,138.520501 91.68466699999999,138.59345499999998 92.201336,138.66246199999998 92.71798399999999,138.727523 93.234612,138.788639 93.75121999999999,138.84581 94.26781,138.899036 94.78438299999999,138.94831699999997 95.30094,138.993655 95.817483,139.03504999999998 96.33401299999998,139.072501 96.85053099999999,139.106009 97.367038,139.135574 97.88353599999999,139.161197 98.400026,139.182877 98.91650999999999,139.200615 99.432988,139.21441199999998 99.94946199999998,139.224266 100.46593399999999,139.230179 100.98240399999999,139.23215 101.49887399999999,139.230179 102.015346,139.224266 102.53181999999998,139.21441199999998 103.04829799999999,139.200615 103.564782,139.182877 104.08127199999998,139.161197 104.59777,139.135574 105.11427699999999,139.106009 105.63079499999999,139.072501 106.147325,139.03504999999998 106.663868,138.993655 107.18042499999999,138.94831699999997 107.696998,138.899036 108.21358799999999,138.84581 108.73019599999999,138.788639 109.24682399999999,138.727523 109.763472,138.66246199999998 110.28014099999999,138.59345499999998 110.79683399999999,138.520501 111.46444399999999,138.421143 111.46444399999999,143.44317099999998 111.08384999999998,143.499813 110.55233899999999,143.57485899999998" stroke="#1f6fb2" stroke-width="0.1" /><text fill="#0a3d62" font-family="sans-serif" font-size="1.6" text-anchor="middle" x="111.46444399999999" y="141.2522405">08</text><polygon fill="#cfe3f7" fill-opacity="0.5" points="134.42852399999998,141.92144399999998 134.45067899999998,142.14638699999998 134.530622,142.409925 134.660443,142.65280299999998 134.835153,142.86568799999998 135.048038,143.04039799999998 135.29091599999998,143.17021899999997 135.554454,143.250162 135.779397,143.272317 147.07765099999997,143.272317 147.30259399999997,143.250162 147.56613199999998,143.17021899999997 147.80900999999997,143.04039799999998 148.02189499999997,142.86568799999998 148.19660499999998,142.65280299999998 148.32642599999997,142.409925 148.40636899999998,142.14638699999998 148.42852399999998,141.92144399999998 148.42852399999998,139.62319 148.40636899999998,139.398247 148.32642599999997,139.134709 148.19660499999998,138.891831 148.02189499999997,138.678946 147.80900999999997,138.504236 147.56613199999998,138.374415 147.30259399999997,138.29447199999998 147.07765099999997,138.272317 135.779397,138.272317 135.554454,138.29447199999998 135.29091599999998,138.374415 135.048038,138.504236 134.835153,138.678946 134.660443,138.891831 134.530622,139.134709 134.45067899999998,139.398247 134.42852399999998,139.62319 134.42852399999998,141.92144399999998" stroke="#1f6fb2" stroke-width="0.1" /><text fill="#0a3d62" font-family="sans-serif" font-size="1.6" text-anchor="middle" x="141.42852399999998" y="140.772317">06</text><polygon fill="#cfe3f7" fill-opacity="0.5" points="149.42852399999998,141.92144399999998 149.45067899999998,142.14638699999998 149.530622,142.409925 149.660443,142.65280299999998 149.835153,142.86568799999998 150.048038,143.04039799999998 150.29091599999998,143.17021899999997 150.554454,143.250162 150.779397,143.272317 162.07765099999997,143.272317 162.30259399999997,143.250162 162.56613199999998,143.17021899999997 162.80900999999997,143.04039799999998 163.02189499999997,142.86568799999998 163.19660499999998,142.65280299999998 163.32642599999997,142.409925 163.40636899999998,142.14638699999998 163.42852399999998,141.92144399999998 163.42852399999998,139.62319 163.40636899999998,139.398247 163.32642599999997,139.134709 163.19660499999998,138.891831 163.02189499999997,138.678946 162.80900999999997,138.504236 162.56613199999998,138.374415 162.30259399999997,138.29447199999998 162.07765099999997,138.272317 150.779397,138.272317 150.554454,138.29447199999998 150.29091599999998,138.374415 150.048038,138.504236 149.835153,138.678946 149.660443,138.891831 149.530622,139.134709 149.45067899999998,139.398247 149.42852399999998,139.62319 149.42852399999998,141.92144399999998" stroke="#1f6fb2" stroke-width="0.1" /><text fill="#0a3d62" font-family="sans-serif" font-size="1.6" text-anchor="middle" x="156.42852399999998" y="140.772317">06</text></svg>