<?xml version="1.0" encoding="utf-8" ?>
<svg baseProfile="full" height="163.19674999999998cm" version="1.1" viewBox="0 0 158.0 163.19674999999998" width="158.0cm" xmlns="http://www.w3.org/2000/svg" xmlns:ev="http://www.w3.org/2001/xml-events" xmlns:xlink="http://www.w3.org/1999/xlink"><defs /><rect fill="#f7f3ea" height="155.19674999999998" stroke="#333" stroke-width="0.15" width="150.0" x="4.0" y="4.0" /><text fill="#000" font-family="sans-serif" font-size="1.4" x="4.0" y="3.0">PLANO DE CORTE — ancho 150 cm — largo 1.55 m</text><polygon fill="#cfe3f7" fill-opacity="0.5" points="4.0,74.22502 12.004204999999999,74.22502 11.767353,17.786548 15.991589000000001,5.219447 13.552695,4.0 12.843099,4.744645 12.642945000000001,4.955145 12.442503,5.166875 12.242009,5.380059 12.041703,5.594919 11.841828,5.811685 11.642628,6.030584 11.444354,6.251848 11.247258,6.475709 11.051596,6.702399 10.857628,6.932153 10.665619,7.165203 10.475837,7.401785 10.28881,7.641801 10.105879,7.883639 9.927577,8.124932000000001 9.753237,8.36448 9.581977,8.601444 9.412961,8.835002 9.245398,9.064347999999999 9.078543,9.288692999999999 8.911695,9.507271 8.744194,9.719344 8.575414,9.924214 8.404759,10.121234 8.231647,10.309816 8.055375,10.489571 7.873572,10.661846 7.683351,10.829644 7.483987,10.994762999999999 7.276093,11.157837 7.060393,11.319497 6.8376660000000005,11.480412999999999 6.608735,11.641299 6.001597,12.060154 5.813181,13.625020000000001 4.0,13.625020000000001 4.0,74.22502" stroke="#1f6fb2" stroke-width="0.1" /><text fill="#0a3d62" font-family="sans-serif" font-size="1.6" text-anchor="middle" x="9.9957945" y="39.11251">09</text><polygon fill="#cfe3f7" fill-opacity="0.5" points="16.991589,74.22502 24.995794,74.22502 24.758942,17.786548 28.983178000000002,5.219447 26.544284,4.0 25.834688,4.744645 25.634534000000002,4.955145 25.434092,5.166875 25.233598,5.380059 25.033292000000003,5.594919 24.833417,5.811685 24.634217,6.030584 24.435943,6.251848 24.238847,6.475709 24.043185,6.702399 23.849217000000003,6.932153 23.657208,7.165203 23.467426000000003,7.401785 23.280399000000003,7.641801 23.097468,7.883639 22.919166,8.124932000000001 22.744826000000003,8.36448 22.573566,8.601444 22.40455,8.835002 22.236987,9.064347999999999 22.070132,9.288692999999999 21.903284,9.507271 21.735783,9.719344 21.567003,9.924214 21.396348000000003,10.121234 21.223236,10.309816 21.046964000000003,10.489571 20.865161,10.661846 20.67494,10.829644 20.475576,10.994762999999999 20.267682,11.157837 20.051982000000002,11.319497 19.829255,11.480412999999999 19.600324,11.641299 18.993186,12.060154 18.80477,13.625020000000001 16.991589,13.625020000000001 16.991589,74.22502" stroke="#1f6fb2" stroke-width="0.1" /><text fill="#0a3d62" font-family="sans-serif" font-size="1.6" text-anchor="middle" x="22.9873835" y="39.11251">09</text><polygon fill="#cfe3f7" fill-opacity="0.5" points="29.983178000000002,74.220528 57.683178,74.220528 57.683178,25.909930000000003 57.172303,25.255083000000003 56.871525000000005,24.870417000000003 56.568516,24.484644000000003 56.262502,24.097658000000003 55.95271,23.709359000000003 55.63837100000001,23.319657000000003 55.318718000000004,22.928466 54.992988,22.535707000000002 54.66042,22.141308000000002 54.32086700000001,21.745907000000003 53.976829,21.351646000000002 53.633258,20.95986 53.294026,20.570247000000002 52.962793000000005,20.182426 52.643219,19.796194 52.33894,19.411521999999998 52.053525,19.028567000000002 51.790427,18.647662 51.552894,18.2693 51.343873,17.894072 51.165893,17.522548999999998 51.020964000000006,17.155077 50.910515000000004,16.791349 50.834788,16.426736 50.792038000000005,16.052101999999998 50.780072000000004,15.662021 50.797525,15.255987 50.842863,14.834503999999999 50.914204,14.398591999999999 51.009297000000004,13.949536 51.125555000000006,13.48871 51.260126,13.017463000000001 51.409953,12.537056 51.571832,12.048626 51.742454,11.553177999999999 52.212496,10.213376 39.531592,4.0 38.826277000000005,4.740153 38.62612300000001,4.950653 38.425681000000004,5.162383 38.225187000000005,5.375567 38.024881,5.590427 37.825006,5.807193 37.625806000000004,6.026092 37.427532,6.247356 37.230436000000005,6.471217 37.034774,6.697907 36.840806,6.9276610000000005 36.648797,7.160711 36.459015,7.397293 36.271988,7.637309 36.089057000000004,7.879147 35.910755,8.12044 35.736415,8.359988000000001 35.565155000000004,8.596952 35.396139000000005,8.83051 35.228576000000004,9.059856 35.061721000000006,9.284201 34.894873000000004,9.502779 34.727372,9.714852 34.558592000000004,9.919722 34.387937,10.116741999999999 34.214825000000005,10.305323999999999 34.038553,10.485078999999999 33.856750000000005,10.657354 33.666529000000004,10.825152 33.467165,10.990271 33.259271000000005,11.153345 33.043571,11.315005 32.820844,11.475921 32.591913000000005,11.636807000000001 31.984775000000003,12.055662 31.796359000000002,13.620528 29.983178000000002,13.620528 29.983178000000002,74.220528" stroke="#1f6fb2" stroke-width="0.1" /><text fill="#0a3d62" font-family="sans-serif" font-size="1.6" text-anchor="middle" x="43.833178000000004" y="39.110264">01</text><polygon fill="#cfe3f7" fill-opacity="0.5" points="58.683178,74.220528 86.383178,74.220528 86.383178,25.909930000000003 85.872303,25.255083000000003 85.571525,24.870417000000003 85.268516,24.484644000000003 84.962502,24.097658000000003 84.65271,23.709359000000003 84.338371,23.319657000000003 84.01871799999999,22.928466 83.692988,22.535707000000002 83.36042,22.141308000000002 83.020867,21.745907000000003 82.676829,21.351646000000002 82.333258,20.95986 81.99402599999999,20.570247000000002 81.662793,20.182426 81.343219,19.796194 81.03894,19.411521999999998 80.753525,19.028567000000002 80.490427,18.647662 80.252894,18.2693 80.04387299999999,17.894072 79.865893,17.522548999999998 79.720964,17.155077 79.61051499999999,16.791349 79.53478799999999,16.426736 79.492038,16.052101999999998 79.48007199999999,15.662021 79.497525,15.255987 79.542863,14.834503999999999 79.614204,14.398591999999999 79.70929699999999,13.949536 79.825555,13.48871 79.960126,13.017463000000001 80.10995299999999,12.537056 80.27183199999999,12.048626 80.442454,11.553177999999999 80.912496,10.213376 68.231592,4.0 67.526277,4.740153 67.326123,4.950653 67.125681,5.162383 66.925187,5.375567 66.724881,5.590427 66.525006,5.807193 66.325806,6.026092 66.127532,6.247356 65.930436,6.471217 65.734774,6.697907 65.540806,6.9276610000000005 65.34879699999999,7.160711 65.159015,7.397293 64.971988,7.637309 64.789057,7.879147 64.610755,8.12044 64.436415,8.359988000000001 64.265155,8.596952 64.096139,8.83051 63.928576,9.059856 63.761720999999994,9.284201 63.594873,9.502779 63.427372,9.714852 63.258592,9.919722 63.087937,10.116741999999999 62.914825,10.305323999999999 62.738552999999996,10.485078999999999 62.55675,10.657354 62.366529,10.825152 62.167165,10.990271 61.959271,11.153345 61.743570999999996,11.315005 61.520844,11.475921 61.291913,11.636807000000001 60.684775,12.055662 60.496359,13.620528 58.683178,13.620528 58.683178,74.220528" stroke="#1f6fb2" stroke-width="0.1" /><text fill="#0a3d62" font-family="sans-serif" font-size="1.6" text-anchor="middle" x="72.53317799999999" y="39.110264">01</text><polygon fill="#cfe3f7" fill-opacity="0.5" points="91.48449600000001,66.00359399999999 117.334558,66.00359399999999 121.443937,13.323665 120.707373,12.583144 120.288124,12.166549 119.860219,11.75121 119.42197,11.34058 118.974187,10.938876 118.519211,10.547537 118.05792,10.16598 117.590896,9.793364 117.118709,9.428844 116.641917,9.071578 116.161067,8.720724 115.676697,8.375443 115.189311,8.034885 114.698421,7.697569 114.201826,7.362601 113.69756699999999,7.031548 113.184855,6.706991 112.662939,6.391611 112.13103000000001,6.088133 111.588319,5.799352 111.033992,5.528138 110.46726,5.277456 109.887437,5.050387000000001 109.295972,4.850729 108.697957,4.680252 108.097735,4.536151 107.496827,4.414488 106.896409,4.311355 106.29757000000001,4.222953 105.70135,4.145593 105.108782,4.075702 104.43332000000001,4.0 103.746486,4.044157 103.143011,4.08631 102.535849,4.135506 101.925884,4.195236 101.314001,4.269096 100.701115,4.36079 100.088213,4.474127 99.476409,4.613012 98.868435,4.780999 98.269532,4.978663 97.682707,5.202616 97.107778,5.449848 96.544126,5.717555 95.991083,6.003019 95.447961,6.303598 94.914069,6.616722 94.388738,6.939874 93.871323,7.2705839999999995 93.360851,7.606654000000001 92.854489,7.947855000000001 92.350705,8.297102 91.850824,8.656963000000001 91.35701900000001,9.029521 90.871521,9.416908 90.396634,9.821291 89.934762,10.244858 89.488431,10.689781 89.060619,11.157833 88.657398,11.646064 88.280829,12.143974 87.925781,12.642255 87.383178,13.427 91.48449600000001,66.00359399999999" stroke="#1f6fb2" stroke-width="0.1" /><text fill="#0a3d62" font-family="sans-serif" font-size="1.6" text-anchor="middle" x="104.4135575" y="35.001796999999996">04</text><polygon fill="#cfe3f7" fill-opacity="0.5" points="8.101318,137.228614 33.95138,137.228614 38.060759000000004,84.548685 37.324195,83.808164 36.904945999999995,83.391569 36.477041,82.97623 36.038792,82.5656 35.591009,82.163896 35.136033,81.772557 34.674742,81.391 34.207718,81.018384 33.735531,80.653864 33.258739,80.296598 32.777889,79.945744 32.293519,79.600463 31.806133,79.259905 31.315243000000002,78.922589 30.818648,78.587621 30.314389,78.256568 29.801676999999998,77.932011 29.279761,77.616631 28.747852,77.313153 28.205140999999998,77.024372 27.650814,76.753158 27.084082,76.502476 26.504258999999998,76.275407 25.912793999999998,76.075749 25.314779,75.905272 24.714557,75.761171 24.113649,75.639508 23.513231,75.536375 22.914392,75.447973 22.318172,75.370613 21.725604,75.30072200000001 21.050142,75.22502 20.363308,75.269177 19.759833,75.31133 19.152670999999998,75.36052600000001 18.542706,75.420256 17.930823,75.494116 17.317937,75.58581 16.705035,75.699147 16.093231,75.838032 15.485257,76.006019 14.886354,76.203683 14.299529,76.427636 13.724599999999999,76.674868 13.160948,76.942575 12.607905,77.228039 12.064783,77.528618 11.530891,77.841742 11.00556,78.164894 10.488145,78.495604 9.977673,78.831674 9.471311,79.172875 8.967527,79.522122 8.467646,79.881983 7.973841,80.254541 7.488343,80.64192800000001 7.013456,81.046311 6.551584,81.469878 6.105252999999999,81.914801 5.677441,82.382853 5.27422,82.871084 4.897651,83.368994 4.542603,83.867275 4.0,84.65202 8.101318,137.228614" stroke="#1f6fb2" stroke-width="0.1" /><text fill="#0a3d62" font-family="sans-serif" font-size="1.6" text-anchor="middle" x="21.030379500000002" y="106.226817">04</text><polygon fill="#cfe3f7" fill-opacity="0.5" points="89.060759,86.970571 88.63744200000001,86.296001 88.36674400000001,85.86478600000001 88.095432,85.432895 87.823241,85.000057 87.54990600000001,84.566003 87.275163,84.130463 86.99903400000001,83.693619 86.72072200000001,83.254361 86.44004100000001,82.812546 86.15855,82.370414 85.878112,81.928128 85.60167200000001,81.48647 85.33157800000001,81.045375 85.07016300000001,80.604842 84.819725,80.164932 84.582526,79.725762 84.36077,79.2875 84.156586,78.850348 83.972007,78.414527 83.808947,77.980242 83.669186,77.547638 83.55436,77.116741 83.46589700000001,76.687033 83.404459,76.254745 83.320569,75.22502 64.060759,75.22502 64.060759,135.22502 89.060759,135.22502 89.060759,86.970571 39.060759000000004,86.970571 39.484076,86.296001 39.754774000000005,85.86478600000001 40.02608600000001,85.432895 40.298277000000006,85.000057 40.571612,84.566003 40.846355,84.130463 41.122484,83.693619 41.400796,83.254361 41.681477,82.812546 41.962968000000004,82.370414 42.24340600000001,81.928128 42.519846,81.48647 42.78994,81.045375 43.051355,80.604842 43.301793,80.164932 43.53899200000001,79.725762 43.76074800000001,79.2875 43.964932000000005,78.850348 44.149511000000004,78.414527 44.312571000000005,77.980242 44.452332000000006,77.547638 44.567158000000006,77.116741 44.655621000000004,76.687033 44.717059000000006,76.254745 44.800949,75.22502 64.060759,75.22502 64.060759,135.22502 39.060759000000004,135.22502 39.060759000000004,86.970571" stroke="#1f6fb2" stroke-width="0.1" /><text fill="#0a3d62" font-family="sans-serif" font-size="1.6" text-anchor="middle" x="64.060759" y="105.22502">02</text><polygon fill="#cfe3f7" fill-opacity="0.5" points="90.060759,86.496925 97.060759,90.906925 104.060759,86.496925 104.060759,75.22502 90.060759,75.22502 90.060759,86.496925" stroke="#1f6fb2" stroke-width="0.1" /><text fill="#0a3d62" font-family="sans-serif" font-size="1.6" text-anchor="middle" x="97.060759" y="83.0659725">10</text><polygon fill="#cfe3f7" fill-opacity="0.5" points="105.060759,87.474147 105.09060000000001,87.77712700000001 105.193306,88.115702 105.36009100000001,88.427735 105.584545,88.701234 105.858044,88.92568800000001 106.170077,89.092473 106.508652,89.195179 106.811632,89.22502 128.309886,89.22502 128.612866,89.195179 128.95144100000002,89.092473 129.263474,88.92568800000001 129.536973,88.701234 129.761427,88.427735 129.928212,88.115702 130.030918,87.77712700000001 130.06075900000002,87.474147 130.06075900000002,76.975893 130.030918,76.672913 129.928212,76.334338 129.761427,76.022305 129.536973,75.748806 129.263474,75.52435200000001 128.95144100000002,75.357567 128.612866,75.254861 128.309886,75.22502 106.811632,75.22502 106.508652,75.254861 106.170077,75.357567 105.858044,75.52435200000001 105.584545,75.748806 105.36009100000001,76.022305 105.193306,76.334338 105.09060000000001,76.672913 105.060759,76.975893 105.060759,87.474147" stroke="#1f6fb2" stroke-width="0.1" /><text fill="#0a3d62" font-family="sans-serif" font-size="1.6" text-anchor="middle" x="117.560759" y="82.22502">05</text><polygon fill="#cfe3f7" fill-opacity="0.5" points="4.0,150.47774099999998 4.029841,150.780721 4.132547,151.119296 4.299332,151.431329 4.523786,151.704828 4.7972850000000005,151.929282 5.109318,152.096067 5.4478930000000005,152.198773 5.750873,152.228614 27.249127,152.228614 27.552107,152.198773 27.890682,152.096067 28.202715,151.929282 28.476214,151.704828 28.700668,151.431329 28.867453,151.119296 28.970159,150.780721 29.0,150.47774099999998 29.0,139.979487 28.970159,139.676507 28.867453,139.337932 28.700668,139.02589899999998 28.476214,138.7524 28.202715,138.527946 27.890682,138.36116099999998 27.552107,138.258455 27.249127,138.228614 5.750873,138.228614 5.4478930000000005,138.258455 5.109318,138.36116099999998 4.7972850000000005,138.527946 4.523786,138.7524 4.299332,139.02589899999998 4.132547,139.337932 4.029841,139.676507 4.0,139.979487 4.0,150.47774099999998" stroke="#1f6fb2" stroke-width="0.1" /><text fill="#0a3d62" font-family="sans-serif" font-size="1.6" text-anchor="middle" x="16.5" y="145.228614">05</text><polygon fill="#cfe3f7" fill-opacity="0.5" points="69.598388,148.94164 69.586378,148.492696 69.596571,148.034665 69.627278,147.567848 69.676698,147.092696 69.742919,146.609747 69.823914,146.11958099999998 69.91756000000001,145.622783 70.021649,145.11991999999998 70.13390100000001,144.611525 70.251976,144.098085 70.581032,142.69512699999999 57.357117,138.228614 56.727291,138.736175 56.527648,138.895606 56.330127000000005,139.050491 56.13411,139.200022 55.939008,139.343448 55.744241,139.480076 55.548881,139.60951599999999 55.351034999999996,139.732216 55.149542,139.848751 54.944542,139.95897399999998 54.736416,140.062602 54.525546,140.159359 54.312314,140.248984 54.097104,140.331223 53.880297,140.405838 53.662271000000004,140.472602 53.443359,140.53131199999999 53.222986,140.582 52.999549,140.62522199999998 52.77212,140.661662 52.540658,140.69182899999998 52.305205,140.716238 52.065838,140.735425 51.822666,140.74994999999998 51.575813,140.760399 51.325418,140.767386 51.071624,140.771551 50.814574,140.773561 50.554409,140.77410799999998 50.290516,140.773911 50.290516,150.351689 69.713263,150.351689 69.598388,148.94164 30.982644,148.94164 30.994654,148.492696 30.984461,148.034665 30.953754,147.567848 30.904334,147.092696 30.838113,146.609747 30.757118000000002,146.11958099999998 30.663472,145.622783 30.559383,145.11991999999998 30.447131,144.611525 30.329056,144.098085 30.0,142.69512699999999 43.223915,138.228614 43.853741,138.736175 44.053384,138.895606 44.250905,139.050491 44.446922,139.200022 44.642024,139.343448 44.836791,139.480076 45.032151,139.60951599999999 45.229997,139.732216 45.43149,139.848751 45.63649,139.95897399999998 45.844616,140.062602 46.055486,140.159359 46.268718,140.248984 46.483928,140.331223 46.700735,140.405838 46.918761,140.472602 47.137673,140.53131199999999 47.358046,140.582 47.581483,140.62522199999998 47.808912,140.661662 48.040374,140.69182899999998 48.275827,140.716238 48.515194,140.735425 48.758365999999995,140.74994999999998 49.005219,140.760399 49.255614,140.767386 49.509408,140.771551 49.766458,140.773561 50.026623,140.77410799999998 50.290516,140.773911 50.290516,150.351689 30.867769,150.351689 30.982644,148.94164" stroke="#1f6fb2" stroke-width="0.1" /><text fill="#0a3d62" font-family="sans-serif" font-size="1.6" text-anchor="middle" x="50.290516" y="144.29015149999998">03</text><polygon fill="#cfe3f7" fill-opacity="0.5" points="93.21087899999999,145.092122 93.67864399999999,145.181603 94.14647,145.265982 94.61435399999999,145.345257 95.08229299999999,145.419426 95.55028399999999,145.488488 96.01832399999999,145.552441 96.486408,145.611283 96.954534,145.665013 97.422699,145.71363 97.890897,145.75713299999998 98.35912599999999,145.79551999999998 98.827383,145.828791 99.295662,145.856945 99.763961,145.87998 100.23227599999998,145.897898 100.70060199999999,145.910696 101.168936,145.918375 101.63727399999999,145.920935 102.105612,145.918375 102.57394699999999,145.910696 103.042273,145.897898 103.51058799999998,145.87998 103.97888699999999,145.856945 104.447166,145.828791 104.91542199999999,145.79551999999998 105.38365199999998,145.75713299999998 105.85184999999998,145.71363 106.32001399999999,145.665013 106.78814,145.611283 107.256225,145.552441 107.72426399999999,145.488488 108.19225499999999,145.419426 108.66019499999999,145.345257 109.12807899999999,145.265982 109.59590499999999,145.181603 110.06366999999999,145.092122 110.294011,145.045541 112.34199,148.45883899999998 113.39720799999999,148.059856 111.58220899999999,138.228614 110.12467099999999,138.5393 109.677557,138.629718 109.23050599999999,138.715237 108.78351699999999,138.79585799999998 108.336586,138.871583 107.889709,138.94241399999999 107.44288499999999,139.008352 106.99610899999999,139.069399 106.54937799999999,139.125557 106.102689,139.176827 105.656037,139.22321 105.20942099999999,139.264707 104.762834,139.30132 104.31627499999999,139.333049 103.869739,139.359895 103.423223,139.38186 102.976722,139.398942 102.530233,139.411144 102.08375199999999,139.418465 101.63727399999999,139.420905 101.19079699999999,139.418465 100.744316,139.411144 100.29782699999998,139.398942 99.851326,139.38186 99.404809,139.359895 98.95827299999999,139.333049 98.51171399999998,139.30132 98.06512799999999,139.264707 97.61851099999998,139.22321 97.17186,139.176827 96.72517099999999,139.125557 96.27843999999999,139.069399 95.83166399999999,139.008352 95.384839,138.94241399999999 94.937963,138.871583 94.49103199999999,138.79585799999998 94.04404299999999,138.715237 93.596992,138.629718 93.14987699999999,138.5393 92.48911999999999,138.398454 92.48911999999999,144.943386 92.743178,144.99754 93.21087899999999,145.092122 91.767361,145.092122 91.299596,145.181603 90.83176999999999,145.265982 90.363886,145.345257 89.89594699999999,145.419426 89.427956,145.488488 88.95991599999999,145.552441 88.49183199999999,145.611283 88.02370599999999,145.665013 87.55554099999999,145.71363 87.08734299999999,145.75713299999998 86.619114,145.79551999999998 86.15085699999999,145.828791 85.68257799999999,145.856945 85.21427899999999,145.87998 84.74596399999999,145.897898 84.277638,145.910696 83.809304,145.918375 83.340966,145.920935 82.87262799999999,145.918375 82.404293,145.910696 81.93596699999999,145.897898 81.46765199999999,145.87998 80.99935299999999,145.856945 80.53107399999999,145.828791 80.062818,145.79551999999998 79.59458799999999,145.75713299999998 79.12638999999999,145.71363 78.65822599999998,145.665013 78.19009999999999,145.611283 77.722015,145.552441 77.253976,145.488488 76.785985,145.419426 76.318045,145.345257 75.85016099999999,145.265982 75.382335,145.181603 74.91457,145.092122 74.68422899999999,145.045541 72.63624999999999,148.45883899999998 71.581032,148.059856 73.396031,138.228614 74.853569,138.5393 75.30068299999999,138.629718 75.747734,138.715237 76.194723,138.79585799999998 76.64165399999999,138.871583 77.08853099999999,138.94241399999999 77.535355,139.008352 77.982131,139.069399 78.428862,139.125557 78.87555099999999,139.176827 79.32220299999999,139.22321 79.768819,139.264707 80.21540599999999,139.30132 80.661965,139.333049 81.10850099999999,139.359895 81.55501699999999,139.38186 82.00151799999999,139.398942 82.44800699999999,139.411144 82.894488,139.418465 83.340966,139.420905 83.787443,139.418465 84.23392399999999,139.411144 84.68041299999999,139.398942 85.126914,139.38186 85.573431,139.359895 86.019967,139.333049 86.46652599999999,139.30132 86.913112,139.264707 87.35972899999999,139.22321 87.80637999999999,139.176827 88.253069,139.125557 88.6998,139.069399 89.146576,139.008352 89.593401,138.94241399999999 90.04027699999999,138.871583 90.487208,138.79585799999998 90.934197,138.715237 91.381248,138.629718 91.828363,138.5393 92.48911999999999,138.398454 92.48911999999999,144.943386 92.235062,144.99754 91.767361,145.092122" stroke="#1f6fb2" stroke-width="0.1" /><text fill="#0a3d62" font-family="sans-serif" font-size="1.6" text-anchor="middle" x="92.48911999999999" y="143.3437265">07</text><polygon fill="#cfe3f7" fill-opacity="0.5" points="25.85357,158.538537 26.361249,158.609625 26.868954,158.67665399999998 27.376682,158.739624 27.884432,158.798534 28.392203000000002,158.853383 28.899993000000002,158.904172 29.407802,158.950899 29.915627,158.993564 30.423467000000002,159.032167 30.931321,159.066708 31.439187,159.097185 31.947064,159.12359999999998 32.45495,159.145951 32.962843,159.16423799999998 33.470743,159.178462 33.978647,159.18862199999998 34.486554,159.194718 34.994462999999996,159.19674999999998 35.502372,159.194718 36.01028,159.18862199999998 36.518184,159.178462 37.026084,159.16423799999998 37.533977,159.145951 38.041863,159.12359999999998 38.54974,159.097185 39.057606,159.066708 39.56546,159.032167 40.0733,158.993564 40.581125,158.950899 41.088933,158.904172 41.596724,158.853383 42.104495,158.798534 42.612245,158.739624 43.119973,158.67665399999998 43.627677,158.609625 44.135357,158.538537 44.643010000000004,158.46339 45.992618,158.252812 45.992618,153.228614 44.34241,153.48609399999998 43.850248,153.558947 43.358112,153.627859 42.866001,153.69283 42.373913,153.75386 41.881848000000005,153.81095 41.389804,153.864101 40.897779,153.913312 40.405772,153.958585 39.913781,153.99992 39.421806000000004,154.037317 38.929845,154.070776 38.437895,154.100299 37.945956,154.12588399999999 37.454026999999996,154.14753299999998 36.962105,154.165246 36.470189,154.179022 35.978278,154.188862 35.48637,154.194766 34.994462999999996,154.196734 34.502556999999996,154.194766 34.010649,154.188862 33.518738,154.179022 33.026821999999996,154.165246 32.5349,154.14753299999998 32.04297,154.12588399999999 31.551032,154.100299 31.059082,154.070776 30.567121,154.037317 30.075145,153.99992 29.583155,153.958585 29.091148,153.913312 28.599123,153.864101 28.107079,153.81095 27.615014,153.75386 27.122926,153.69283 26.630815,153.627859 26.138679,153.558947 25.646517,153.48609399999998 24.996309,153.38464299999998 24.996309,158.408841 25.345917,158.46339 25.85357,158.538537 24.139048,158.538537 23.631369,158.609625 23.123664,158.67665399999998 22.615936,158.739624 22.108186,158.798534 21.600414999999998,158.853383 21.092624999999998,158.904172 20.584816,158.950899 20.076991,158.993564 19.569150999999998,159.032167 19.061297,159.066708 18.553431,159.097185 18.045554,159.12359999999998 17.537668,159.145951 17.029775,159.16423799999998 16.521875,159.178462 16.013970999999998,159.18862199999998 15.506064,159.194718 14.998155,159.19674999999998 14.490246,159.194718 13.982338,159.18862199999998 13.474434,159.178462 12.966534,159.16423799999998 12.458641,159.145951 11.950755000000001,159.12359999999998 11.442878,159.097185 10.935012,159.066708 10.427158,159.032167 9.919318,158.993564 9.411493,158.950899 8.903685,158.904172 8.395893999999998,158.853383 7.888123,158.798534 7.380372999999999,158.739624 6.872644999999999,158.67665399999998 6.364941000000002,158.609625 5.857261000000001,158.538537 5.349608,158.46339 4.0,158.252812 4.0,153.228614 5.650207999999999,153.48609399999998 6.14237,153.558947 6.634506000000002,153.627859 7.1266169999999995,153.69283 7.6187049999999985,153.75386 8.110769999999999,153.81095 8.602813999999999,153.864101 9.094839,153.913312 9.586846,153.958585 10.078837,153.99992 10.570812,154.037317 11.062773,154.070776 11.554723000000001,154.100299 12.046662,154.12588399999999 12.538591,154.14753299999998 13.030513000000001,154.165246 13.522429,154.179022 14.01434,154.188862 14.506248,154.194766 14.998155,154.196734 15.490061,154.194766 15.981969,154.188862 16.47388,154.179022 16.965796,154.165246 17.457718,154.14753299999998 17.949648,154.12588399999999 18.441586,154.100299 18.933536,154.070776 19.425497,154.037317 19.917473,153.99992 20.409463,153.958585 20.90147,153.913312 21.393495,153.864101 21.885539,153.81095 22.377604,153.75386 22.869692,153.69283 23.361803000000002,153.627859 23.853939,153.558947 24.346101,153.48609399999998 24.996309,153.38464299999998 24.996309,158.408841 24.646701,158.46339 24.139048,158.538537" stroke="#1f6fb2" stroke-width="0.1" /><text fill="#0a3d62" font-family="sans-serif" font-size="1.6" text-anchor="middle" x="24.996309" y="156.212682">08</text><polygon fill="#cfe3f7" fill-opacity="0.5" points="46.992618,156.877741 47.014773,157.10268399999998 47.094716,157.366222 47.224537,157.60909999999998 47.399247,157.82198499999998 47.612132,157.996695 47.85501,158.12651599999998 48.118548,158.206459 48.343491,158.228614 59.641745,158.228614 59.866687999999996,158.206459 60.130226,158.12651599999998 60.373104,157.996695 60.585989,157.82198499999998 60.760699,157.60909999999998 60.89052,157.366222 60.970463,157.10268399999998 60.992618,156.877741 60.992618,154.579487 60.970463,154.354544 60.89052,154.091006 60.760699,153.848128 60.585989,153.635243 60.373104,153.460533 60.130226,153.330712 59.866687999999996,153.250769 59.641745,153.228614 48.343491,153.228614 48.118548,153.250769 47.85501,153.330712 47.612132,153.460533 47.399247,153.635243 47.224537,153.848128 47.094716,154.091006 47.014773,154.354544 46.992618,154.579487 46.992618,156.877741" stroke="#1f6fb2" stroke-width="0.1" /><text fill="#0a3d62" font-family="sans-serif" font-size="1.6" text-anchor="middle" x="53.992618" y="155.728614">06</text><polygon fill="#cfe3f7" fill-opacity="0.5" points="61.992618,156.877741 62.014773,157.10268399999998 62.094716,157.366222 62.224537,157.60909999999998 62.399247,157.82198499999998 62.612132,157.996695 62.85501,158.12651599999998 63.118548,158.206459 63.343491,158.228614 74.641745,158.228614 74.866688,158.206459 75.130226,158.12651599999998 75.373104,157.996695 75.585989,157.82198499999998 75.760699,157.60909999999998 75.89052,157.366222 75.970463,157.10268399999998 75.992618,156.877741 75.992618,154.579487 75.970463,154.354544 75.89052,154.091006 75.760699,153.848128 75.585989,153.635243 75.373104,153.460533 75.130226,153.330712 74.866688,153.250769 74.641745,153.228614 63.343491,153.228614 63.118548,153.250769 62.85501,153.330712 62.612132,153.460533 62.399247,153.635243 62.224537,153.848128 62.094716,154.091006 62.014773,154.354544 61.992618,154.579487 61.992618,156.877741" stroke="#1f6fb2" stroke-width="0.1" /><text fill="#0a3d62" font-family="sans-serif" font-size="1.6" text-anchor="middle" x="68.992618" y="155.728614">06</text></svg>