<?xml version="1.0" encoding="utf-8" ?>
<svg baseProfile="full" height="163.220792cm" version="1.1" viewBox="0 0 158.0 163.220792" width="158.0cm" xmlns="http://www.w3.org/2000/svg" xmlns:ev="http://www.w3.org/2001/xml-events" xmlns:xlink="http://www.w3.org/1999/xlink"><defs /><rect fill="#f7f3ea" height="155.220792" stroke="#333" stroke-width="0.15" width="150.0" x="4.0" y="4.0" /><text fill="#000" font-family="sans-serif" font-size="1.4" x="4.0" y="3.0">PLANO DE CORTE — ancho 150 cm — largo 1.55 m</text><polygon fill="#cfe3f7" fill-opacity="0.5" points="4.0,74.258659 12.003604,74.258659 11.800589,17.820479 16.024922,5.253086 13.51875,4.0 12.813661,4.894625 12.612328999999999,5.150635 12.410888,5.407906 12.209615,5.666655 12.008791,5.927099999999999 11.808698,6.189463 11.609625000000001,6.453964 11.411859,6.720829 11.215695,6.99028 11.021428,7.262543 10.829358,7.537844 10.639791,7.816407 10.453034,8.098457 10.269574,8.383943 10.090569,8.671303 9.916335,8.958108 9.746062,9.243095 9.578716,9.525443 9.413305000000001,9.804344 9.248885,10.079 9.084552,10.348626 8.919448,10.612455 8.752755,10.86974 8.583692,11.119768 8.41151,11.361868999999999 8.235482000000001,11.595426 8.054869,11.819915 7.867871,12.036133 7.671651000000001,12.247112 7.465174,12.455421 7.249131,12.66186 7.024428,12.867106 6.7920370000000005,13.071866 6.552981,13.276890999999999 6.182798,13.588716 6.1399420000000005,13.658659 4.0,13.658659 4.0,74.258659" stroke="#1f6fb2" stroke-width="0.1" /><text fill="#0a3d62" font-family="sans-serif" font-size="1.6" text-anchor="middle" x="10.012461" y="39.1293295">09</text><polygon fill="#cfe3f7" fill-opacity="0.5" points="17.024922,74.258659 25.028526,74.258659 24.825511,17.820479 29.049844,5.253086 26.543672,4.0 25.838583,4.894625 25.637251,5.150635 25.43581,5.407906 25.234537,5.666655 25.033713,5.927099999999999 24.83362,6.189463 24.634547,6.453964 24.436781,6.720829 24.240617,6.99028 24.04635,7.262543 23.85428,7.537844 23.664713,7.816407 23.477956,8.098457 23.294496000000002,8.383943 23.115491,8.671303 22.941257,8.958108 22.770984,9.243095 22.603638,9.525443 22.438227,9.804344 22.273806999999998,10.079 22.109474,10.348626 21.94437,10.612455 21.777677,10.86974 21.608614,11.119768 21.436432,11.361868999999999 21.260404,11.595426 21.079791,11.819915 20.892793,12.036133 20.696573,12.247112 20.490096,12.455421 20.274053000000002,12.66186 20.04935,12.867106 19.816959,13.071866 19.577903,13.276890999999999 19.207720000000002,13.588716 19.164864,13.658659 17.024922,13.658659 17.024922,74.258659" stroke="#1f6fb2" stroke-width="0.1" /><text fill="#0a3d62" font-family="sans-serif" font-size="1.6" text-anchor="middle" x="23.037383" y="39.1293295">09</text><polygon fill="#cfe3f7" fill-opacity="0.5" points="30.049844,74.253419 57.749843999999996,74.253419 57.749843999999996,27.960153000000002 57.306765,27.269701 57.021659,26.82593 56.735303,26.381230000000002 56.447423,25.935689 56.157607,25.489177 55.865441000000004,25.041566 55.570514,24.59273 55.272414,24.142545000000002 54.970809,23.691007000000003 54.666368,23.239314 54.361996,22.789072 54.060832,22.340595 53.765519999999995,21.893542 53.47867,21.447643 53.202861999999996,21.002702 52.940632,20.558593 52.694448,20.115251 52.466693,19.672654 52.259637,19.230803 52.075412,18.789682 51.915987,18.349201 51.783141,17.909043 51.677912,17.466450000000002 51.599255,17.016318000000002 51.545052999999996,16.555929 51.513701999999995,16.085232 51.503586999999996,15.604520999999998 51.51302,15.114260000000002 51.540222,14.615027000000001 51.583315,14.10747 51.640331,13.592267 51.709215,13.070103 51.787842,12.541644999999999 51.874024,12.007532000000001 51.965519,11.468366 52.188547,10.185535 39.564463,4.0 38.863505,4.889385 38.662172999999996,5.145395000000001 38.460732,5.402666 38.259459,5.661415 38.058635,5.921860000000001 37.858542,6.184223 37.659469,6.448724 37.461703,6.715589 37.265539000000004,6.98504 37.071272,7.257303 36.879202,7.532604 36.689635,7.811167 36.502878,8.093217 36.319418,8.378703 36.140413,8.666063 35.966179,8.952868 35.795906,9.237855 35.62856,9.520203 35.463149,9.799104 35.298729,10.07376 35.134396,10.343385999999999 34.969292,10.607215 34.802599,10.8645 34.633536,11.114528 34.461354,11.356629 34.285326,11.590186 34.104713000000004,11.814675000000001 33.917715,12.030892999999999 33.721495,12.241872 33.515018,12.450181 33.298975,12.65662 33.074272,12.861866 32.841881,13.066626 32.602825,13.271650999999999 32.232642,13.583476000000001 32.189786,13.653419 30.049844,13.653419 30.049844,74.253419" stroke="#1f6fb2" stroke-width="0.1" /><text fill="#0a3d62" font-family="sans-serif" font-size="1.6" text-anchor="middle" x="43.899844" y="39.1267095">01</text><polygon fill="#cfe3f7" fill-opacity="0.5" points="58.749843999999996,74.253419 86.449844,74.253419 86.449844,27.960153000000002 86.006765,27.269701 85.72165899999999,26.82593 85.43530299999999,26.381230000000002 85.147423,25.935689 84.857607,25.489177 84.56544099999999,25.041566 84.27051399999999,24.59273 83.972414,24.142545000000002 83.67080899999999,23.691007000000003 83.366368,23.239314 83.061996,22.789072 82.760832,22.340595 82.46552,21.893542 82.17867,21.447643 81.902862,21.002702 81.640632,20.558593 81.394448,20.115251 81.166693,19.672654 80.95963699999999,19.230803 80.77541199999999,18.789682 80.61598699999999,18.349201 80.48314099999999,17.909043 80.377912,17.466450000000002 80.29925499999999,17.016318000000002 80.245053,16.555929 80.213702,16.085232 80.203587,15.604520999999998 80.21302,15.114260000000002 80.24022199999999,14.615027000000001 80.28331499999999,14.10747 80.34033099999999,13.592267 80.40921499999999,13.070103 80.487842,12.541644999999999 80.574024,12.007532000000001 80.66551899999999,11.468366 80.88854699999999,10.185535 68.26446299999999,4.0 67.56350499999999,4.889385 67.362173,5.145395000000001 67.160732,5.402666 66.959459,5.661415 66.758635,5.921860000000001 66.558542,6.184223 66.35946899999999,6.448724 66.16170299999999,6.715589 65.96553899999999,6.98504 65.771272,7.257303 65.579202,7.532604 65.389635,7.811167 65.202878,8.093217 65.019418,8.378703 64.840413,8.666063 64.666179,8.952868 64.49590599999999,9.237855 64.32856,9.520203 64.16314899999999,9.799104 63.998729,10.07376 63.834396,10.343385999999999 63.669292,10.607215 63.502599,10.8645 63.333535999999995,11.114528 63.161353999999996,11.356629 62.98532599999999,11.590186 62.80471299999999,11.814675000000001 62.617715,12.030892999999999 62.42149499999999,12.241872 62.21501799999999,12.450181 61.998974999999994,12.65662 61.774271999999996,12.861866 61.541881,13.066626 61.302825,13.271650999999999 60.932641999999994,13.583476000000001 60.889785999999994,13.653419 58.749843999999996,13.653419 58.749843999999996,74.253419" stroke="#1f6fb2" stroke-width="0.1" /><text fill="#0a3d62" font-family="sans-serif" font-size="1.6" text-anchor="middle" x="72.59984399999999" y="39.1267095">01</text><polygon fill="#cfe3f7" fill-opacity="0.5" points="92.192233,66.006393 118.011089,66.006393 122.762461,16.035168 122.109204,15.210287999999998 121.69972,14.698910000000001 121.281791,14.188382 120.85305600000001,13.681667000000001 120.413071,13.183060999999999 119.963781,12.694686 119.50632,12.216176 119.041343,11.746621000000001 118.569486,11.285104 118.09137799999999,10.830708999999999 117.60763399999999,10.382515 117.11885699999999,9.939604 116.625642,9.501058 116.12828999999999,9.065715 115.625249,8.63149 115.113509,8.198983 114.591233,7.771331 114.057091,7.352232 113.50967299999999,6.945442 112.94750400000001,6.554804 112.36907,6.184279 111.772859,5.837983 111.157422,5.520212 110.522243,5.235816 109.871704,4.990121 109.213273,4.781853 108.55077800000001,4.605777 107.88637,4.456249 107.22199,4.3277980000000005 106.559474,4.215141 105.90062,4.113192 105.131398,4.0 104.34530699999999,4.068581 103.670303,4.132399 102.991331,4.206583 102.309952,4.2962620000000005 101.627741,4.406755 100.946356,4.543575000000001 100.26763199999999,4.712418 99.59419199999999,4.918969000000001 98.932607,5.166749 98.288873,5.452346 97.66393,5.77067 97.05669,6.117474 96.465943,6.48869 95.890436,6.880414 95.32892,7.288872 94.780185,7.710394 94.243081,8.141382 93.71644,8.578365999999999 93.197619,9.019431 92.684199,9.466485 92.176719,9.922457999999999 91.677241,10.389171000000001 91.187922,10.868435 90.710974,11.362078 90.248681,11.871938 89.803404,12.399837 89.377598,12.94756 88.97458,13.515737000000001 88.598912,14.099307 88.248536,14.688519 87.916988,15.277131 87.449844,16.12964 92.192233,66.006393" stroke="#1f6fb2" stroke-width="0.1" /><text fill="#0a3d62" font-family="sans-serif" font-size="1.6" text-anchor="middle" x="105.10615250000001" y="35.0031965">04</text><polygon fill="#cfe3f7" fill-opacity="0.5" points="8.742389000000001,137.265052 34.561245,137.265052 39.312617,87.293827 38.65936,86.46894699999999 38.249876,85.95756899999999 37.831947,85.447041 37.403212,84.940326 36.963227,84.44171999999999 36.513937,83.953345 36.056476,83.474835 35.591499,83.00528 35.119642,82.543763 34.641534,82.089368 34.15779,81.64117399999999 33.669013,81.198263 33.175798,80.759717 32.678446,80.32437399999999 32.175405,79.890149 31.663665,79.45764199999999 31.141389000000004,79.02999 30.607247,78.610891 30.059829,78.204101 29.497660000000003,77.813463 28.919226000000002,77.442938 28.323015,77.09664199999999 27.707578,76.778871 27.072399,76.494475 26.421860000000002,76.24878 25.763429000000002,76.04051199999999 25.100934000000002,75.864436 24.436526,75.714908 23.772146,75.586457 23.109630000000003,75.4738 22.450776,75.37185099999999 21.681554000000002,75.258659 20.895463,75.32723999999999 20.220459,75.391058 19.541487000000004,75.46524199999999 18.860108,75.554921 18.177897,75.665414 17.496512000000003,75.802234 16.817788,75.971077 16.144348,76.177628 15.482763000000002,76.42540799999999 14.839029,76.711005 14.214086000000002,77.02932899999999 13.606846,77.376133 13.016099,77.747349 12.440592,78.139073 11.879076000000001,78.54753099999999 11.330341,78.96905299999999 10.793237000000001,79.40004099999999 10.266596000000002,79.837025 9.747775,80.27808999999999 9.234355,80.725144 8.726875000000001,81.181117 8.227397000000002,81.64783 7.738078000000002,82.127094 7.261130000000001,82.62073699999999 6.798837000000001,83.130597 6.353560000000002,83.658496 5.927754000000002,84.20621899999999 5.524736000000001,84.774396 5.149068,85.35796599999999 4.798692000000003,85.947178 4.467144000000001,86.53578999999999 4.0,87.38829899999999 8.742389000000001,137.265052" stroke="#1f6fb2" stroke-width="0.1" /><text fill="#0a3d62" font-family="sans-serif" font-size="1.6" text-anchor="middle" x="21.6563085" y="106.2618555">04</text><polygon fill="#cfe3f7" fill-opacity="0.5" points="90.312617,88.94094299999999 89.792911,88.205625 89.455748,87.72928999999999 89.116314,87.25116 88.773983,86.771062 88.42792700000001,86.28853899999999 88.077323,85.80314299999999 87.721348,85.31442799999999 87.359182,84.821952 86.99025900000001,84.325616 86.615895,83.826931 86.241344,83.328259 85.871193,82.829842 85.509944,82.331971 85.16202100000001,81.83500699999999 84.831815,81.339484 84.52364800000001,80.846116 84.241718,80.355786 83.99002,79.86953799999999 83.772248,79.38851 83.59168,78.913822 83.451076,78.44637 83.352647,77.98647799999999 83.29785000000001,77.530941 83.286384,77.070836 83.316052,76.599299 83.50714,75.258659 65.312617,75.258659 65.312617,135.258659 90.312617,135.258659 90.312617,88.94094299999999 40.312617,88.94094299999999 40.832323,88.205625 41.169486000000006,87.72928999999999 41.50892,87.25116 41.851251000000005,86.771062 42.197307,86.28853899999999 42.547911,85.80314299999999 42.903886,85.31442799999999 43.266052,84.821952 43.634975000000004,84.325616 44.009339000000004,83.826931 44.38389000000001,83.328259 44.754041,82.829842 45.11529,82.331971 45.463213,81.83500699999999 45.793419,81.339484 46.101586000000005,80.846116 46.383516,80.355786 46.635214000000005,79.86953799999999 46.852986,79.38851 47.033554,78.913822 47.174158000000006,78.44637 47.272587,77.98647799999999 47.327384,77.530941 47.33885000000001,77.070836 47.30918200000001,76.599299 47.118094,75.258659 65.312617,75.258659 65.312617,135.258659 40.312617,135.258659 40.312617,88.94094299999999" stroke="#1f6fb2" stroke-width="0.1" /><text fill="#0a3d62" font-family="sans-serif" font-size="1.6" text-anchor="middle" x="65.312617" y="105.258659">02</text><polygon fill="#cfe3f7" fill-opacity="0.5" points="91.312617,86.530564 98.312617,90.940564 105.312617,86.530564 105.312617,75.258659 91.312617,75.258659 91.312617,86.530564" stroke="#1f6fb2" stroke-width="0.1" /><text fill="#0a3d62" font-family="sans-serif" font-size="1.6" text-anchor="middle" x="98.312617" y="83.0996115">10</text><polygon fill="#cfe3f7" fill-opacity="0.5" points="106.312617,87.507786 106.34245800000001,87.810766 106.445164,88.14934099999999 106.61194900000001,88.46137399999999 106.836403,88.734873 107.109902,88.959327 107.421935,89.12611199999999 107.76051,89.22881799999999 108.06349,89.258659 129.561744,89.258659 129.864724,89.22881799999999 130.20329900000002,89.12611199999999 130.515332,88.959327 130.78883100000002,88.734873 131.013285,88.46137399999999 131.18007,88.14934099999999 131.282776,87.810766 131.312617,87.507786 131.312617,77.009532 131.282776,76.70655199999999 131.18007,76.367977 131.013285,76.055944 130.78883100000002,75.782445 130.515332,75.557991 130.20329900000002,75.391206 129.864724,75.2885 129.561744,75.258659 108.06349,75.258659 107.76051,75.2885 107.421935,75.391206 107.109902,75.557991 106.836403,75.782445 106.61194900000001,76.055944 106.445164,76.367977 106.34245800000001,76.70655199999999 106.312617,77.009532 106.312617,87.507786" stroke="#1f6fb2" stroke-width="0.1" /><text fill="#0a3d62" font-family="sans-serif" font-size="1.6" text-anchor="middle" x="118.812617" y="82.258659">05</text><polygon fill="#cfe3f7" fill-opacity="0.5" points="4.0,150.51417899999998 4.029841,150.817159 4.132547,151.155734 4.299332,151.467767 4.523786,151.741266 4.7972850000000005,151.96572 5.109318,152.132505 5.4478930000000005,152.235211 5.750873,152.265052 27.249127,152.265052 27.552107,152.235211 27.890682,152.132505 28.202715,151.96572 28.476214,151.741266 28.700668,151.467767 28.867453,151.155734 28.970159,150.817159 29.0,150.51417899999998 29.0,140.015925 28.970159,139.712945 28.867453,139.37437 28.700668,139.06233699999999 28.476214,138.788838 28.202715,138.564384 27.890682,138.39759899999999 27.552107,138.294893 27.249127,138.265052 5.750873,138.265052 5.4478930000000005,138.294893 5.109318,138.39759899999999 4.7972850000000005,138.564384 4.523786,138.788838 4.299332,139.06233699999999 4.132547,139.37437 4.029841,139.712945 4.0,140.015925 4.0,150.51417899999998" stroke="#1f6fb2" stroke-width="0.1" /><text fill="#0a3d62" font-family="sans-serif" font-size="1.6" text-anchor="middle" x="16.5" y="145.265052">05</text><polygon fill="#cfe3f7" fill-opacity="0.5" points="68.947982,149.230435 69.054419,148.733476 69.195948,148.224505 69.36983000000001,147.704513 69.57295400000001,147.174614 69.801909,146.635906 70.053062,146.089403 70.322621,145.535991 70.606693,144.976421 70.901315,144.411303 71.75104,142.802517 58.317057000000005,138.265052 57.683836,138.707225 57.467632,138.8568 57.253797000000006,139.001992 57.041777,139.141931 56.831036,139.2758 56.621044,139.402847 56.410656,139.522735 56.197851,139.63595899999999 55.981608,139.743032 55.762129,139.843841 55.539748,139.938213 55.314801,140.025979 55.087623,140.106977 54.858553,140.181051 54.627928,140.248054 54.396087,140.307843 54.163276,140.360303 53.928867,140.405531 53.691648,140.444054 53.451137,140.476427 53.20734,140.503125 52.960296,140.524635 52.710067,140.54146 52.456732,140.554119 52.200382000000005,140.563151 51.941113,140.56911399999998 51.679028,140.572583 51.414227,140.574154 51.14681,140.574441 50.87552,140.574074 50.87552,150.374075 68.784974,150.374075 68.947982,149.230435 32.803058,149.230435 32.696621,148.733476 32.555092,148.224505 32.38121,147.704513 32.178086,147.174614 31.949131,146.635906 31.697978000000003,146.089403 31.428419,145.535991 31.144347000000003,144.976421 30.849725000000003,144.411303 30.0,142.802517 43.433983,138.265052 44.067204000000004,138.707225 44.283408,138.8568 44.497243,139.001992 44.709263,139.141931 44.920004000000006,139.2758 45.129996000000006,139.402847 45.340384,139.522735 45.553189,139.63595899999999 45.769432,139.743032 45.988911,139.843841 46.211292,139.938213 46.436239,140.025979 46.663417,140.106977 46.892487,140.181051 47.123112000000006,140.248054 47.354953,140.307843 47.587764,140.360303 47.82217300000001,140.405531 48.059392,140.444054 48.299903,140.476427 48.5437,140.503125 48.790744000000004,140.524635 49.040973,140.54146 49.294308,140.554119 49.550658,140.563151 49.809927,140.56911399999998 50.072012,140.572583 50.33681300000001,140.574154 50.60423,140.574441 50.87552,140.574074 50.87552,150.374075 32.966066,150.374075 32.803058,149.230435" stroke="#1f6fb2" stroke-width="0.1" /><text fill="#0a3d62" font-family="sans-serif" font-size="1.6" text-anchor="middle" x="50.87552" y="144.3195635">03</text><polygon fill="#cfe3f7" fill-opacity="0.5" points="95.95441100000001,145.115803 96.45860400000001,145.20501099999998 96.962845,145.28913 97.467133,145.368157 97.971465,145.442093 98.47583800000001,145.510935 98.980249,145.574683 99.48469700000001,145.633335 99.98917800000001,145.686891 100.493688,145.735348 100.998227,145.778708 101.502789,145.816968 102.007373,145.85012799999998 102.511976,145.878187 103.016593,145.90114599999998 103.521224,145.919003 104.025863,145.931758 104.530509,145.939412 105.035158,145.941963 105.539806,145.939412 106.044452,145.931758 106.549091,145.919003 107.05372200000001,145.90114599999998 107.558339,145.878187 108.062942,145.85012799999998 108.567526,145.816968 109.07208800000001,145.778708 109.576627,145.735348 110.08113700000001,145.686891 110.58561800000001,145.633335 111.09006600000001,145.574683 111.59447700000001,145.510935 112.09885,145.442093 112.603182,145.368157 113.10747,145.28913 113.611711,145.20501099999998 114.115904,145.115803 114.42892900000001,145.057254 116.482498,148.479869 117.537716,148.080886 115.725562,138.265052 114.242751,138.557393 113.757814,138.648097 113.272929,138.733889 112.788092,138.81477 112.303302,138.890743 111.818556,138.961807 111.33385100000001,139.027965 110.849185,139.089217 110.364554,139.145565 109.879957,139.197009 109.39539,139.243552 108.91085000000001,139.285192 108.426335,139.321932 107.94184100000001,139.353772 107.45736500000001,139.380713 106.972905,139.402754 106.48845800000001,139.419897 106.004019,139.432142 105.519587,139.43948799999998 105.035158,139.441937 104.550728,139.43948799999998 104.066296,139.432142 103.58185800000001,139.419897 103.09741,139.402754 102.61295000000001,139.380713 102.12847400000001,139.353772 101.64398,139.321932 101.15946500000001,139.285192 100.674925,139.243552 100.190358,139.197009 99.705761,139.145565 99.22113,139.089217 98.73646400000001,139.027965 98.251759,138.961807 97.767013,138.890743 97.282223,138.81477 96.797386,138.733889 96.312501,138.648097 95.827564,138.557393 95.144378,138.422701 95.144378,144.961199 95.45027,145.02150699999999 95.95441100000001,145.115803 94.334345,145.115803 93.830152,145.20501099999998 93.325911,145.28913 92.821623,145.368157 92.31729100000001,145.442093 91.812918,145.510935 91.308507,145.574683 90.804059,145.633335 90.299578,145.686891 89.795068,145.735348 89.290529,145.778708 88.785967,145.816968 88.281383,145.85012799999998 87.77678,145.878187 87.272163,145.90114599999998 86.767532,145.919003 86.262893,145.931758 85.758247,145.939412 85.25359800000001,145.941963 84.74895000000001,145.939412 84.244304,145.931758 83.739665,145.919003 83.235034,145.90114599999998 82.730417,145.878187 82.225814,145.85012799999998 81.72123,145.816968 81.216668,145.778708 80.712129,145.735348 80.20761900000001,145.686891 79.703138,145.633335 79.19869,145.574683 78.694279,145.510935 78.18990600000001,145.442093 77.685574,145.368157 77.181286,145.28913 76.677045,145.20501099999998 76.172852,145.115803 75.859827,145.057254 73.806258,148.479869 72.75104,148.080886 74.56319400000001,138.265052 76.04600500000001,138.557393 76.53094200000001,138.648097 77.015827,138.733889 77.500664,138.81477 77.985454,138.890743 78.4702,138.961807 78.954905,139.027965 79.439571,139.089217 79.92420200000001,139.145565 80.408799,139.197009 80.893366,139.243552 81.377906,139.285192 81.862421,139.321932 82.346915,139.353772 82.831391,139.380713 83.31585100000001,139.402754 83.800298,139.419897 84.284737,139.432142 84.769169,139.43948799999998 85.25359800000001,139.441937 85.738028,139.43948799999998 86.22246,139.432142 86.706898,139.419897 87.19134600000001,139.402754 87.67580600000001,139.380713 88.160282,139.353772 88.64477600000001,139.321932 89.129291,139.285192 89.613831,139.243552 90.098398,139.197009 90.58299500000001,139.145565 91.067626,139.089217 91.552292,139.027965 92.036997,138.961807 92.521743,138.890743 93.006533,138.81477 93.49137,138.733889 93.97625500000001,138.648097 94.46119200000001,138.557393 95.144378,138.422701 95.144378,144.961199 94.838486,145.02150699999999 94.334345,145.115803" stroke="#1f6fb2" stroke-width="0.1" /><text fill="#0a3d62" font-family="sans-serif" font-size="1.6" text-anchor="middle" x="95.144378" y="143.3724605">07</text><polygon fill="#cfe3f7" fill-opacity="0.5" points="27.422758,158.563924 27.96706,158.634871 28.511381,158.701766 29.055722,158.764609 29.600080000000002,158.823399 30.144456,158.878137 30.688847000000003,158.928821 31.233253,158.975452 31.777673,159.01803 32.322103999999996,159.056553 32.866547,159.09102099999998 33.410999000000004,159.121436 33.95546,159.147795 34.499928,159.170099 35.044403,159.188348 35.588883,159.202542 36.133366,159.212681 36.677852,159.218764 37.222339000000005,159.220792 37.766825,159.218764 38.311311,159.212681 38.855794,159.202542 39.400274,159.188348 39.944749,159.170099 40.489217,159.147795 41.033678,159.121436 41.57813,159.09102099999998 42.122573,159.056553 42.667005,159.01803 43.211424,158.975452 43.75583,158.928821 44.300221,158.878137 44.844597,158.823399 45.388954999999996,158.764609 45.933296,158.701766 46.477618,158.634871 47.021919,158.563924 47.566199,158.488926 48.963118,158.286037 48.963118,153.265052 47.285959000000005,153.508644 46.756161000000006,153.581646 46.226385,153.650699 45.696628000000004,153.715804 45.166891,153.776961 44.637172,153.834171 44.107469,153.887433 43.577783,153.936749 43.048111000000006,153.98211799999999 42.518451999999996,154.02354 41.988806,154.061017 41.45917,154.094549 40.929545000000005,154.124134 40.399928,154.149775 39.870318,154.171471 39.340715,154.189222 38.811116,154.203028 38.281522,154.212889 37.75193,154.218806 37.222339000000005,154.220778 36.692748,154.218806 36.163155,154.212889 35.633561,154.203028 35.103962,154.189222 34.574359,154.171471 34.044748999999996,154.149775 33.515132,154.124134 32.985507,154.094549 32.455871,154.061017 31.926225000000002,154.02354 31.396566,153.98211799999999 30.866894000000002,153.936749 30.337208,153.887433 29.807505,153.834171 29.277786,153.776961 28.748049,153.715804 28.218292,153.650699 27.688516,153.581646 27.158718,153.508644 26.481559,153.410293 26.481559,158.431277 26.878478,158.488926 27.422758,158.563924 25.54036,158.563924 24.996058,158.634871 24.451737,158.701766 23.907396000000002,158.764609 23.363038,158.823399 22.818662,158.878137 22.274271,158.928821 21.729865,158.975452 21.185445,159.01803 20.641014000000002,159.056553 20.096571,159.09102099999998 19.552119,159.121436 19.007658,159.147795 18.46319,159.170099 17.918715,159.188348 17.374235,159.202542 16.829752,159.212681 16.285266,159.218764 15.740779,159.220792 15.196293,159.218764 14.651807000000002,159.212681 14.107324,159.202542 13.562844,159.188348 13.018369,159.170099 12.473901000000001,159.147795 11.929440000000001,159.121436 11.384988,159.09102099999998 10.840545,159.056553 10.296113000000002,159.01803 9.751694,158.975452 9.207288000000002,158.928821 8.662897000000001,158.878137 8.118521000000001,158.823399 7.574163000000002,158.764609 7.029821999999999,158.701766 6.485500000000002,158.634871 5.941199000000001,158.563924 5.3969190000000005,158.488926 4.0,158.286037 4.0,153.265052 5.677159,153.508644 6.206956999999999,153.581646 6.736733000000001,153.650699 7.266490000000001,153.715804 7.796227000000002,153.776961 8.325946000000002,153.834171 8.855649,153.887433 9.385335000000001,153.936749 9.915007,153.98211799999999 10.444666000000002,154.02354 10.974312000000001,154.061017 11.503948000000001,154.094549 12.033573,154.124134 12.56319,154.149775 13.0928,154.171471 13.622403,154.189222 14.152002000000001,154.203028 14.681596,154.212889 15.211188,154.218806 15.740779,154.220778 16.27037,154.218806 16.799962999999998,154.212889 17.329557,154.203028 17.859156,154.189222 18.388759,154.171471 18.918369000000002,154.149775 19.447986,154.124134 19.977611,154.094549 20.507247,154.061017 21.036893,154.02354 21.566552,153.98211799999999 22.096224,153.936749 22.62591,153.887433 23.155613000000002,153.834171 23.685332000000002,153.776961 24.215069,153.715804 24.744826,153.650699 25.274602,153.581646 25.8044,153.508644 26.481559,153.410293 26.481559,158.431277 26.08464,158.488926 25.54036,158.563924" stroke="#1f6fb2" stroke-width="0.1" /><text fill="#0a3d62" font-family="sans-serif" font-size="1.6" text-anchor="middle" x="26.481559" y="156.242922">08</text><polygon fill="#cfe3f7" fill-opacity="0.5" points="49.963118,156.914179 49.985273,157.139122 50.065216,157.40266 50.195037,157.645538 50.369747000000004,157.858423 50.582632000000004,158.033133 50.82551,158.16295399999998 51.089048,158.242897 51.313991,158.265052 62.612245,158.265052 62.837188,158.242897 63.100726,158.16295399999998 63.343604,158.033133 63.556489,157.858423 63.731199000000004,157.645538 63.86102,157.40266 63.940963,157.139122 63.963118,156.914179 63.963118,154.615925 63.940963,154.390982 63.86102,154.127444 63.731199000000004,153.884566 63.556489,153.671681 63.343604,153.496971 63.100726,153.36715 62.837188,153.287207 62.612245,153.265052 51.313991,153.265052 51.089048,153.287207 50.82551,153.36715 50.582632000000004,153.496971 50.369747000000004,153.671681 50.195037,153.884566 50.065216,154.127444 49.985273,154.390982 49.963118,154.615925 49.963118,156.914179" stroke="#1f6fb2" stroke-width="0.1" /><text fill="#0a3d62" font-family="sans-serif" font-size="1.6" text-anchor="middle" x="56.963118" y="155.765052">06</text><polygon fill="#cfe3f7" fill-opacity="0.5" points="64.96311800000001,156.914179 64.985273,157.139122 65.065216,157.40266 65.19503700000001,157.645538 65.369747,157.858423 65.582632,158.033133 65.82551000000001,158.16295399999998 66.089048,158.242897 66.31399100000002,158.265052 77.612245,158.265052 77.83718800000001,158.242897 78.10072600000001,158.16295399999998 78.34360400000001,158.033133 78.55648900000001,157.858423 78.731199,157.645538 78.86102000000001,157.40266 78.94096300000001,157.139122 78.96311800000001,156.914179 78.96311800000001,154.615925 78.94096300000001,154.390982 78.86102000000001,154.127444 78.731199,153.884566 78.55648900000001,153.671681 78.34360400000001,153.496971 78.10072600000001,153.36715 77.83718800000001,153.287207 77.612245,153.265052 66.31399100000002,153.265052 66.089048,153.287207 65.82551000000001,153.36715 65.582632,153.496971 65.369747,153.671681 65.19503700000001,153.884566 65.065216,154.127444 64.985273,154.390982 64.96311800000001,154.615925 64.96311800000001,156.914179" stroke="#1f6fb2" stroke-width="0.1" /><text fill="#0a3d62" font-family="sans-serif" font-size="1.6" text-anchor="middle" x="71.96311800000001" y="155.765052">06</text></svg>