<?xml version="1.0" encoding="utf-8" ?>
<svg baseProfile="full" height="185.392709cm" version="1.1" viewBox="0 0 158.0 185.392709" width="158.0cm" xmlns="http://www.w3.org/2000/svg" xmlns:ev="http://www.w3.org/2001/xml-events" xmlns:xlink="http://www.w3.org/1999/xlink"><defs /><rect fill="#f7f3ea" height="177.392709" stroke="#333" stroke-width="0.15" width="150.0" x="4.0" y="4.0" /><text fill="#000" font-family="sans-serif" font-size="1.4" x="4.0" y="3.0">PLANO DE CORTE — ancho 150 cm — largo 1.77 m</text><polygon fill="#cfe3f7" fill-opacity="0.5" points="4.0,74.267704 12.00722,74.267704 11.601177,17.827772 15.824922,5.262131 13.300661,4.0 12.604548000000001,4.928368 12.408809,5.189983 12.212994,5.452847 12.017382000000001,5.717166 11.822256,5.98315 11.6279,6.251011999999999 11.434603,6.520965 11.242656,6.793221 11.052355,7.067997 10.863996,7.345508 10.677882,7.6259689999999996 10.494319,7.909597 10.313615,8.196606 10.136242,8.486951000000001 9.963303,8.779094 9.795078,9.070626 9.63075,9.360295 9.469275,9.647313 9.309653,9.930903 9.150927,10.210297 8.992184,10.484739000000001 8.832553,10.753489 8.671203,11.015827 8.507341,11.271062 8.340206,11.518545 8.169058,11.757678 7.993161000000001,11.987943000000001 7.810869,12.210004 7.619404,12.426846 7.41765,12.641195 7.206278,12.853889 6.986212,13.065588 6.7584420000000005,13.27698 6.524011,13.488792 6.322425,13.667704 4.0,13.667704 4.0,74.267704" stroke="#1f6fb2" stroke-width="0.1" /><text fill="#0a3d62" font-family="sans-serif" font-size="1.6" text-anchor="middle" x="9.912461" y="39.133852">09</text><polygon fill="#cfe3f7" fill-opacity="0.5" points="16.824922,74.267704 24.832142,74.267704 24.426099,17.827772 28.649844,5.262131 26.125583,4.0 25.429470000000002,4.928368 25.233731,5.189983 25.037916000000003,5.452847 24.842304000000002,5.717166 24.647178,5.98315 24.452822,6.251011999999999 24.259525,6.520965 24.067578,6.793221 23.877277,7.067997 23.688918,7.345508 23.502804,7.6259689999999996 23.319241,7.909597 23.138537,8.196606 22.961164,8.486951000000001 22.788225,8.779094 22.62,9.070626 22.455672,9.360295 22.294197,9.647313 22.134575,9.930903 21.975849,10.210297 21.817106000000003,10.484739000000001 21.657475,10.753489 21.496125,11.015827 21.332263,11.271062 21.165128000000003,11.518545 20.99398,11.757678 20.818083,11.987943000000001 20.635791,12.210004 20.444326,12.426846 20.242572000000003,12.641195 20.031200000000002,12.853889 19.811134000000003,13.065588 19.583364,13.27698 19.348933000000002,13.488792 19.147347,13.667704 16.824922,13.667704 16.824922,74.267704" stroke="#1f6fb2" stroke-width="0.1" /><text fill="#0a3d62" font-family="sans-serif" font-size="1.6" text-anchor="middle" x="22.737383" y="39.133852">09</text><polygon fill="#cfe3f7" fill-opacity="0.5" points="29.649844,74.233067 57.349844000000004,74.233067 57.349844000000004,26.857360999999997 56.749912,26.171653999999997 56.396521,25.768483 56.040528,25.363836 55.681394,24.957849 55.318277,24.550319 54.95034,24.141047999999998 54.576750000000004,23.729844999999997 54.196687,23.316536 53.810258000000005,22.901911 53.420919,22.488083 53.034441,22.076037 52.655385,21.665301 52.288183000000004,21.255467 51.937261,20.846346999999998 51.606989,20.437973 51.30162,20.030609 51.025183999999996,19.624724 50.781365,19.22094 50.57334,18.819888 50.40363,18.421923 50.273231,18.024288 50.180244,17.618925 50.12149,17.199514999999998 50.095352000000005,16.764596 50.100468,16.313914 50.135391999999996,15.847847 50.198454,15.367222 50.287714,14.873137 50.400976,14.366815 50.535817,13.849511 50.689639,13.32245 50.859709,12.78679 51.043189999999996,12.243606999999999 51.237178,11.693886 51.438712,11.138521 51.970248,9.693617 38.924533000000004,4.0 38.254392,4.893731 38.058653,5.155346 37.862838,5.41821 37.667226,5.682529 37.472100000000005,5.948513 37.277744,6.216374999999999 37.084447000000004,6.486328 36.8925,6.758584 36.702199,7.03336 36.51384,7.310871 36.327726,7.5913319999999995 36.144163000000006,7.87496 35.963459,8.161969 35.786086000000005,8.452314000000001 35.613147,8.744457 35.444922000000005,9.035989 35.280594,9.325658 35.119119,9.612676 34.959497,9.896266 34.800771000000005,10.17566 34.642028,10.450102000000001 34.482397000000006,10.718852 34.321047,10.98119 34.157185,11.236425 33.990050000000004,11.483908 33.818902,11.723041 33.643005,11.953306000000001 33.460713,12.175367 33.269248000000005,12.392209 33.067494,12.606558 32.856122,12.819252 32.636056,13.030951 32.408286000000004,13.242343 32.173855,13.454155 31.972269,13.633067 29.649844,13.633067 29.649844,74.233067" stroke="#1f6fb2" stroke-width="0.1" /><text fill="#0a3d62" font-family="sans-serif" font-size="1.6" text-anchor="middle" x="43.499844" y="39.1165335">01</text><polygon fill="#cfe3f7" fill-opacity="0.5" points="58.349844000000004,74.233067 86.04984400000001,74.233067 86.04984400000001,26.857360999999997 85.44991200000001,26.171653999999997 85.096521,25.768483 84.74052800000001,25.363836 84.381394,24.957849 84.01827700000001,24.550319 83.65034,24.141047999999998 83.27675,23.729844999999997 82.896687,23.316536 82.51025800000001,22.901911 82.120919,22.488083 81.734441,22.076037 81.35538500000001,21.665301 80.988183,21.255467 80.637261,20.846346999999998 80.306989,20.437973 80.00162,20.030609 79.725184,19.624724 79.48136500000001,19.22094 79.27334,18.819888 79.10363000000001,18.421923 78.973231,18.024288 78.880244,17.618925 78.82149000000001,17.199514999999998 78.79535200000001,16.764596 78.800468,16.313914 78.835392,15.847847 78.898454,15.367222 78.98771400000001,14.873137 79.100976,14.366815 79.235817,13.849511 79.389639,13.32245 79.559709,12.78679 79.74319,12.243606999999999 79.937178,11.693886 80.138712,11.138521 80.670248,9.693617 67.624533,4.0 66.95439200000001,4.893731 66.75865300000001,5.155346 66.562838,5.41821 66.367226,5.682529 66.1721,5.948513 65.977744,6.216374999999999 65.784447,6.486328 65.5925,6.758584 65.40219900000001,7.03336 65.21384,7.310871 65.027726,7.5913319999999995 64.84416300000001,7.87496 64.663459,8.161969 64.486086,8.452314000000001 64.313147,8.744457 64.14492200000001,9.035989 63.980594,9.325658 63.819119,9.612676 63.659497,9.896266 63.50077100000001,10.17566 63.342028000000006,10.450102000000001 63.18239700000001,10.718852 63.021047,10.98119 62.857185,11.236425 62.69005000000001,11.483908 62.518902000000004,11.723041 62.343005000000005,11.953306000000001 62.160713,12.175367 61.96924800000001,12.392209 61.767494000000006,12.606558 61.556122,12.819252 61.336056000000006,13.030951 61.10828600000001,13.242343 60.873855000000006,13.454155 60.67226900000001,13.633067 58.349844000000004,13.633067 58.349844000000004,74.233067" stroke="#1f6fb2" stroke-width="0.1" /><text fill="#0a3d62" font-family="sans-serif" font-size="1.6" text-anchor="middle" x="72.199844" y="39.1165335">01</text><polygon fill="#cfe3f7" fill-opacity="0.5" points="91.65338100000001,66.004613 117.48208500000001,66.004613 122.094586,14.559622999999998 121.388243,13.774989999999999 120.967436,13.312847999999999 120.53796,12.851835999999999 120.09776300000001,12.395239 119.64708900000001,11.9474 119.188167,11.51006 118.721992,11.082705 118.24918400000001,10.664458 117.770352,10.254439 117.286091,9.851766999999999 116.796986,9.455561 116.30361300000001,9.064943 115.806533,8.679036 115.30564000000001,8.296466 114.798901,7.915755 114.283821,7.538259 113.759262,7.1668959999999995 113.224247,6.804792 112.677744,6.4551289999999995 112.11868700000001,6.121163 111.54599200000001,5.80625 110.958596,5.513857 110.35550500000001,5.24759 109.73737400000002,5.011762 109.10929300000001,4.809616 108.477002,4.638591 107.84275000000001,4.494111 107.208081,4.371542 106.574414,4.266382 105.943098,4.174272 105.31546600000001,4.0909949999999995 104.593968,4.0 103.85880700000001,4.05394 103.218061,4.104962 102.573491,4.164405 101.92624400000001,4.236438 101.277471,4.325369 100.628369,4.435643 99.98024000000001,4.57184 99.33465100000001,4.738636 98.695789,4.939882 98.069523,5.174805 97.45815800000001,5.439152 96.86110000000001,5.729414 96.27751800000001,6.042254 95.70653000000001,6.374447 95.147238,6.722872 94.598757,7.084489 94.060236,7.456322999999999 93.53086,7.835451 93.00904100000001,8.2196 92.49182300000001,8.609293000000001 91.97859500000001,9.007759 91.47119500000001,9.417183999999999 90.97183700000001,9.839547 90.482792,10.276864 90.00640600000001,10.731176 89.545118,11.204525 89.101477,11.698924 88.67864200000001,12.215724 88.282289,12.750982 87.912518,13.294198000000002 87.56332,13.837394 87.04984400000001,14.659607999999999 91.65338100000001,66.004613" stroke="#1f6fb2" stroke-width="0.1" /><text fill="#0a3d62" font-family="sans-serif" font-size="1.6" text-anchor="middle" x="104.572215" y="35.0023065">04</text><polygon fill="#cfe3f7" fill-opacity="0.5" points="8.603537000000001,137.272317 34.432241,137.272317 39.044742,85.827327 38.338398999999995,85.042694 37.917592,84.580552 37.488116,84.11954 37.047919,83.662943 36.597245,83.215104 36.138323,82.77776399999999 35.672148,82.350409 35.19934,81.93216199999999 34.720508,81.522143 34.236247,81.11947099999999 33.747142,80.723265 33.253769,80.332647 32.756689,79.94673999999999 32.255796000000004,79.56416999999999 31.749057,79.183459 31.233977,78.80596299999999 30.709418,78.43459999999999 30.174402999999998,78.072496 29.6279,77.722833 29.068843,77.38886699999999 28.496148,77.073954 27.908752,76.781561 27.305661,76.515294 26.687530000000002,76.279466 26.059449,76.07732 25.427158,75.906295 24.792906000000002,75.761815 24.158237,75.639246 23.52457,75.53408599999999 22.893254,75.441976 22.265622,75.358699 21.544124,75.267704 20.808963,75.32164399999999 20.168217,75.372666 19.523647,75.432109 18.8764,75.504142 18.227627,75.59307299999999 17.578525,75.703347 16.930396000000002,75.83954399999999 16.284807,76.00634 15.645945000000001,76.20758599999999 15.019679,76.442509 14.408314,76.70685599999999 13.811256,76.997118 13.227674,77.309958 12.656686,77.642151 12.097394,77.99057599999999 11.548913,78.352193 11.010392,78.72402699999999 10.481016,79.103155 9.959197,79.487304 9.441979,79.87699699999999 8.928751,80.275463 8.421351,80.684888 7.9219930000000005,81.10725099999999 7.432948,81.544568 6.956562,81.99888 6.495274,82.472229 6.051633000000001,82.966628 5.628798,83.48342799999999 5.232445000000002,84.018686 4.862674000000002,84.561902 4.513476000000001,85.105098 4.0,85.927312 8.603537000000001,137.272317" stroke="#1f6fb2" stroke-width="0.1" /><text fill="#0a3d62" font-family="sans-serif" font-size="1.6" text-anchor="middle" x="21.522371" y="106.2700105">04</text><polygon fill="#cfe3f7" fill-opacity="0.5" points="90.044742,87.966392 89.58962199999999,87.279729 89.301076,86.84411399999999 89.01258899999999,86.408048 88.72411,85.971184 88.435587,85.533176 88.146968,85.09367599999999 87.858202,84.65233799999999 87.56924599999999,84.208831 87.28048799999999,83.76344 86.993721,83.317216 86.711463,82.870756 86.435824,82.42400799999999 86.168871,81.97692599999999 85.912645,81.52950899999999 85.669155,81.081797 85.440362,80.633862 85.228172,80.1858 85.034416,79.73771199999999 84.860837,79.28968599999999 84.709084,78.84176 84.580687,78.39383199999999 84.476635,77.94394399999999 84.396193,77.488163 84.337575,77.024293 84.299384,76.552268 84.248128,75.267704 65.044742,75.267704 65.044742,135.26770399999998 90.044742,135.26770399999998 90.044742,87.966392 40.044742,87.966392 40.499862,87.279729 40.788408000000004,86.84411399999999 41.076895,86.408048 41.365374,85.971184 41.653897,85.533176 41.942516,85.09367599999999 42.231282,84.65233799999999 42.520238,84.208831 42.808996,83.76344 43.095763,83.317216 43.378021000000004,82.870756 43.65366,82.42400799999999 43.920613,81.97692599999999 44.176839,81.52950899999999 44.420328999999995,81.081797 44.649122,80.633862 44.861312,80.1858 45.055068,79.73771199999999 45.228646999999995,79.28968599999999 45.380399999999995,78.84176 45.508797,78.39383199999999 45.612849,77.94394399999999 45.693291,77.488163 45.751909,77.024293 45.790099999999995,76.552268 45.841356000000005,75.267704 65.044742,75.267704 65.044742,135.26770399999998 40.044742,135.26770399999998 40.044742,87.966392" stroke="#1f6fb2" stroke-width="0.1" /><text fill="#0a3d62" font-family="sans-serif" font-size="1.6" text-anchor="middle" x="65.044742" y="105.267704">02</text><polygon fill="#cfe3f7" fill-opacity="0.5" points="91.044742,99.266595 114.232076,99.266595 102.638409,75.267704 91.044742,99.266595" stroke="#1f6fb2" stroke-width="0.1" /><text fill="#0a3d62" font-family="sans-serif" font-size="1.6" text-anchor="middle" x="102.638409" y="87.26714949999999">40</text><polygon fill="#cfe3f7" fill-opacity="0.5" points="115.232076,99.266595 138.41941,99.266595 126.825743,75.267704 115.232076,99.266595" stroke="#1f6fb2" stroke-width="0.1" /><text fill="#0a3d62" font-family="sans-serif" font-size="1.6" text-anchor="middle" x="126.825743" y="87.26714949999999">40</text><polygon fill="#cfe3f7" fill-opacity="0.5" points="4.0,162.271208 27.187334,162.271208 15.593667,138.272317 4.0,162.271208" stroke="#1f6fb2" stroke-width="0.1" /><text fill="#0a3d62" font-family="sans-serif" font-size="1.6" text-anchor="middle" x="15.593667" y="150.2717625">40</text><polygon fill="#cfe3f7" fill-opacity="0.5" points="28.187334,162.271208 51.374668,162.271208 39.781001,138.272317 28.187334,162.271208" stroke="#1f6fb2" stroke-width="0.1" /><text fill="#0a3d62" font-family="sans-serif" font-size="1.6" text-anchor="middle" x="39.781001" y="150.2717625">40</text><polygon fill="#cfe3f7" fill-opacity="0.5" points="52.374668,149.544222 59.374668,153.954222 66.374668,149.544222 66.374668,138.272317 52.374668,138.272317 52.374668,149.544222" stroke="#1f6fb2" stroke-width="0.1" /><text fill="#0a3d62" font-family="sans-serif" font-size="1.6" text-anchor="middle" x="59.374668" y="146.1132695">10</text><polygon fill="#cfe3f7" fill-opacity="0.5" points="67.374668,150.52144399999997 67.404509,150.824424 67.507215,151.16299899999999 67.674,151.475032 67.898454,151.74853099999999 68.171953,151.972985 68.483986,152.13977 68.822561,152.24247599999998 69.125541,152.272317 90.623795,152.272317 90.92677499999999,152.24247599999998 91.26535,152.13977 91.577383,151.972985 91.850882,151.74853099999999 92.075336,151.475032 92.242121,151.16299899999999 92.344827,150.824424 92.374668,150.52144399999997 92.374668,140.02319 92.344827,139.72020999999998 92.242121,139.381635 92.075336,139.06960199999997 91.850882,138.796103 91.577383,138.57164899999998 91.26535,138.40486399999998 90.92677499999999,138.302158 90.623795,138.272317 69.125541,138.272317 68.822561,138.302158 68.483986,138.40486399999998 68.171953,138.57164899999998 67.898454,138.796103 67.674,139.06960199999997 67.507215,139.381635 67.404509,139.72020999999998 67.374668,140.02319 67.374668,150.52144399999997" stroke="#1f6fb2" stroke-width="0.1" /><text fill="#0a3d62" font-family="sans-serif" font-size="1.6" text-anchor="middle" x="79.874668" y="145.272317">05</text><polygon fill="#cfe3f7" fill-opacity="0.5" points="93.374668,150.52144399999997 93.404509,150.824424 93.507215,151.16299899999999 93.674,151.475032 93.898454,151.74853099999999 94.171953,151.972985 94.483986,152.13977 94.822561,152.24247599999998 95.125541,152.272317 116.623795,152.272317 116.92677499999999,152.24247599999998 117.26535,152.13977 117.577383,151.972985 117.850882,151.74853099999999 118.075336,151.475032 118.242121,151.16299899999999 118.344827,150.824424 118.374668,150.52144399999997 118.374668,140.02319 118.344827,139.72020999999998 118.242121,139.381635 118.075336,139.06960199999997 117.850882,138.796103 117.577383,138.57164899999998 117.26535,138.40486399999998 116.92677499999999,138.302158 116.623795,138.272317 95.125541,138.272317 94.822561,138.302158 94.483986,138.40486399999998 94.171953,138.57164899999998 93.898454,138.796103 93.674,139.06960199999997 93.507215,139.381635 93.404509,139.72020999999998 93.374668,140.02319 93.374668,150.52144399999997" stroke="#1f6fb2" stroke-width="0.1" /><text fill="#0a3d62" font-family="sans-serif" font-size="1.6" text-anchor="middle" x="105.874668" y="145.272317">05</text><polygon fill="#cfe3f7" fill-opacity="0.5" points="43.109812000000005,174.197272 43.108270000000005,173.709591 43.12286,173.214608 43.152042,172.712757 43.194218,172.20450400000001 43.247736,171.690329 43.310889,171.170713 43.381927000000005,170.646126 43.459058,170.11702 43.540457,169.583823 43.748646,168.250094 30.845692,163.271208 30.206584,163.705319 30.003755,163.84180800000001 29.803425,163.974106 29.605097,164.101405 29.408291,164.222955 29.212533,164.338067 29.016683,164.446485 28.818733,164.548759 28.617676,164.645398 28.4137,164.736309 28.207108,164.821347 27.998204,164.900371 27.787293000000002,164.973248 27.574684,165.039849 27.360684,165.10005 27.145601,165.153736 26.929644,165.200817 26.712166,165.241406 26.492015000000002,165.275993 26.268762000000002,165.305068 26.04241,165.329053 25.81299,165.348381 25.580557,165.3635 25.345178,165.374874 25.106932,165.382986 24.865904,165.38833400000001 24.622182000000002,165.391438 24.375856,165.39283 24.127012,165.393065 23.874323,165.392708 23.874323,175.392709 43.157512,175.392709 43.109812000000005,174.197272 4.638833999999999,174.197272 4.640376,173.709591 4.6257860000000015,173.214608 4.596603999999999,172.712757 4.5544280000000015,172.20450400000001 4.500910000000001,171.690329 4.437757000000001,171.170713 4.366719,170.646126 4.289588000000002,170.11702 4.208189000000001,169.583823 4.0,168.250094 16.902954,163.271208 17.542062,163.705319 17.744891,163.84180800000001 17.945221,163.974106 18.143549,164.101405 18.340355000000002,164.222955 18.536113,164.338067 18.731963,164.446485 18.929913,164.548759 19.13097,164.645398 19.334946000000002,164.736309 19.541538,164.821347 19.750442,164.900371 19.961353000000003,164.973248 20.173962,165.039849 20.387962,165.10005 20.603045,165.153736 20.819002,165.200817 21.03648,165.241406 21.256631,165.275993 21.479884,165.305068 21.706236,165.329053 21.935656,165.348381 22.168089000000002,165.3635 22.403468,165.374874 22.641714,165.382986 22.882742,165.38833400000001 23.126464,165.391438 23.372790000000002,165.39283 23.621634,165.393065 23.874323,165.392708 23.874323,175.392709 4.591134,175.392709 4.638833999999999,174.197272" stroke="#1f6fb2" stroke-width="0.1" /><text fill="#0a3d62" font-family="sans-serif" font-size="1.6" text-anchor="middle" x="23.874323" y="169.3319585">03</text><polygon fill="#cfe3f7" fill-opacity="0.5" points="67.404015,170.126185 67.895505,170.215482 68.387048,170.299685 68.878641,170.378793 69.370282,170.45280400000001 69.86196699999999,170.521717 70.35369399999999,170.585531 70.84546,170.64424400000001 71.337261,170.697856 71.829095,170.746365 72.320959,170.789771 72.812849,170.828072 73.304762,170.861268 73.796695,170.88935800000002 74.288645,170.912341 74.780608,170.930218 75.272582,170.94298700000002 75.764562,170.950649 76.256545,170.953202 76.748528,170.950649 77.240508,170.94298700000002 77.732482,170.930218 78.224445,170.912341 78.716395,170.88935800000002 79.208328,170.861268 79.700241,170.828072 80.19213099999999,170.789771 80.68399500000001,170.746365 81.175829,170.697856 81.66763,170.64424400000001 82.159396,170.585531 82.651123,170.521717 83.142808,170.45280400000001 83.63444899999999,170.378793 84.126042,170.299685 84.61758499999999,170.215482 85.10907499999999,170.126185 85.39342400000001,170.071571 87.445146,173.491108 88.50036399999999,173.092125 86.68727200000001,163.271208 85.21345600000001,163.569581 84.741687,163.660193 84.269973,163.745896 83.79831200000001,163.826693 83.326701,163.902585 82.85513800000001,163.973574 82.38361900000001,164.039661 81.91214199999999,164.100847 81.440704,164.157134 80.969301,164.208522 80.497931,164.255013 80.026591,164.296607 79.55527699999999,164.333306 79.08398600000001,164.36511000000002 78.61271500000001,164.39202 78.14146099999999,164.414037 77.67022,164.43116 77.19899000000001,164.443391 76.727766,164.450729 76.256545,164.453176 75.785324,164.450729 75.3141,164.443391 74.84287,164.43116 74.371629,164.414037 73.900375,164.39202 73.429104,164.36511000000002 72.957813,164.333306 72.486499,164.296607 72.015159,164.255013 71.543789,164.208522 71.072386,164.157134 70.600948,164.100847 70.129471,164.039661 69.657952,163.973574 69.18638899999999,163.902585 68.714778,163.826693 68.243117,163.745896 67.77140299999999,163.660193 67.299634,163.569581 66.624505,163.432902 66.624505,169.973476 66.91257999999999,170.031797 67.404015,170.126185 65.844995,170.126185 65.353505,170.215482 64.861962,170.299685 64.370369,170.378793 63.878727999999995,170.45280400000001 63.387043,170.521717 62.895316,170.585531 62.403549999999996,170.64424400000001 61.911749,170.697856 61.419915,170.746365 60.928050999999996,170.789771 60.436161,170.828072 59.944248,170.861268 59.452315,170.88935800000002 58.960364999999996,170.912341 58.468402,170.930218 57.976428,170.94298700000002 57.484448,170.950649 56.992464999999996,170.953202 56.500482,170.950649 56.008502,170.94298700000002 55.516528,170.930218 55.024564999999996,170.912341 54.532615,170.88935800000002 54.040682,170.861268 53.548769,170.828072 53.056878999999995,170.789771 52.565015,170.746365 52.073181,170.697856 51.581379999999996,170.64424400000001 51.089614,170.585531 50.597887,170.521717 50.106201999999996,170.45280400000001 49.614560999999995,170.378793 49.122968,170.299685 48.631425,170.215482 48.139934999999994,170.126185 47.855586,170.071571 45.803864000000004,173.491108 44.748646,173.092125 46.561738,163.271208 48.035554,163.569581 48.507323,163.660193 48.979037,163.745896 49.450698,163.826693 49.922309,163.902585 50.393872,163.973574 50.865391,164.039661 51.336867999999996,164.100847 51.808306,164.157134 52.279709,164.208522 52.751079,164.255013 53.222419,164.296607 53.693733,164.333306 54.165024,164.36511000000002 54.636295,164.39202 55.107549,164.414037 55.57879,164.43116 56.05002,164.443391 56.521243999999996,164.450729 56.992464999999996,164.453176 57.463685999999996,164.450729 57.93491,164.443391 58.40614,164.43116 58.877381,164.414037 59.348635,164.39202 59.819906,164.36511000000002 60.291197,164.333306 60.762511,164.296607 61.233851,164.255013 61.705220999999995,164.208522 62.176624000000004,164.157134 62.648061999999996,164.100847 63.119539,164.039661 63.591058000000004,163.973574 64.06262100000001,163.902585 64.534232,163.826693 65.005893,163.745896 65.477607,163.660193 65.949376,163.569581 66.624505,163.432902 66.624505,169.973476 66.33643000000001,170.031797 65.844995,170.126185" stroke="#1f6fb2" stroke-width="0.1" /><text fill="#0a3d62" font-family="sans-serif" font-size="1.6" text-anchor="middle" x="66.624505" y="168.381158">07</text><polygon fill="#cfe3f7" fill-opacity="0.5" points="112.37654899999998,168.57375 112.90808399999999,168.644743 113.43964,168.711682 113.971216,168.774566 114.50281199999999,168.833395 115.034426,168.888169 115.56605699999999,168.938888 116.097704,168.98555 116.62936499999999,169.028155 117.16103899999999,169.06670400000002 117.692725,169.10119600000002 118.22442199999999,169.131631 118.75612799999999,169.158008 119.28784199999998,169.180328 119.81956199999999,169.19859 120.35128799999998,169.212793 120.88301799999999,169.222939 121.41475,169.229026 121.946484,169.231055 122.478218,169.229026 123.00994999999999,169.222939 123.54167999999999,169.212793 124.07340599999999,169.19859 124.60512599999998,169.180328 125.13683999999999,169.158008 125.66854599999999,169.131631 126.20024299999999,169.10119600000002 126.731929,169.06670400000002 127.26360299999999,169.028155 127.79526399999999,168.98555 128.326911,168.938888 128.858542,168.888169 129.390156,168.833395 129.921752,168.774566 130.453328,168.711682 130.984884,168.644743 131.51641899999998,168.57375 132.04793,168.498704 133.42852399999998,168.293236 133.42852399999998,163.271208 131.76091399999999,163.519392 131.24422099999998,163.592346 130.727552,163.661353 130.21090399999997,163.726414 129.694276,163.78753 129.17766799999998,163.84470100000001 128.66107799999997,163.897927 128.14450499999998,163.947208 127.62794799999999,163.992546 127.11140499999999,164.033941 126.59487499999999,164.071392 126.07835699999998,164.10490000000001 125.56184999999999,164.134465 125.045352,164.160088 124.52886199999999,164.181768 124.01237799999998,164.199506 123.49589999999999,164.213303 122.97942599999999,164.22315700000001 122.462954,164.22907 121.946484,164.231041 121.43001399999999,164.22907 120.91354199999999,164.22315700000001 120.39706799999999,164.213303 119.88058999999998,164.199506 119.36410599999999,164.181768 118.84761599999999,164.160088 118.33111799999999,164.134465 117.81461099999999,164.10490000000001 117.298093,164.071392 116.78156299999999,164.033941 116.26501999999999,163.992546 115.74846299999999,163.947208 115.23188999999999,163.897927 114.71529999999998,163.84470100000001 114.198692,163.78753 113.682064,163.726414 113.165416,163.661353 112.64874699999999,163.592346 112.13205399999998,163.519392 111.46444399999999,163.42003400000002 111.46444399999999,168.442062 111.84503799999999,168.498704 112.37654899999998,168.57375 110.55233899999999,168.57375 110.020804,168.644743 109.48924799999999,168.711682 108.95767199999999,168.774566 108.426076,168.833395 107.89446199999999,168.888169 107.36283099999999,168.938888 106.831184,168.98555 106.299523,169.028155 105.76784899999998,169.06670400000002 105.23616299999999,169.10119600000002 104.704466,169.131631 104.17275999999998,169.158008 103.64104599999999,169.180328 103.109326,169.19859 102.57759999999999,169.212793 102.04587,169.222939 101.51413799999999,169.229026 100.98240399999999,169.231055 100.45066999999999,169.229026 99.918938,169.222939 99.38720799999999,169.212793 98.855482,169.19859 98.32376199999999,169.180328 97.792048,169.158008 97.260342,169.131631 96.72864499999999,169.10119600000002 96.19695899999999,169.06670400000002 95.66528499999998,169.028155 95.133624,168.98555 94.60197699999999,168.938888 94.07034599999999,168.888169 93.53873199999998,168.833395 93.00713599999999,168.774566 92.47555999999999,168.711682 91.94400399999999,168.644743 91.41246899999999,168.57375 90.88095799999999,168.498704 89.50036399999999,168.293236 89.50036399999999,163.271208 91.16797399999999,163.519392 91.68466699999999,163.592346 92.201336,163.661353 92.71798399999999,163.726414 93.234612,163.78753 93.75121999999999,163.84470100000001 94.26781,163.897927 94.78438299999999,163.947208 95.30094,163.992546 95.817483,164.033941 96.33401299999998,164.071392 96.85053099999999,164.10490000000001 97.367038,164.134465 97.88353599999999,164.160088 98.400026,164.181768 98.91650999999999,164.199506 99.432988,164.213303 99.94946199999998,164.22315700000001 100.46593399999999,164.22907 100.98240399999999,164.231041 101.49887399999999,164.22907 102.015346,164.22315700000001 102.53181999999998,164.213303 103.04829799999999,164.199506 103.564782,164.181768 104.08127199999998,164.160088 104.59777,164.134465 105.11427699999999,164.10490000000001 105.63079499999999,164.071392 106.147325,164.033941 106.663868,163.992546 107.18042499999999,163.947208 107.696998,163.897927 108.21358799999999,163.84470100000001 108.73019599999999,163.78753 109.24682399999999,163.726414 109.763472,163.661353 110.28014099999999,163.592346 110.79683399999999,163.519392 111.46444399999999,163.42003400000002 111.46444399999999,168.442062 111.08384999999998,168.498704 110.55233899999999,168.57375" stroke="#1f6fb2" stroke-width="0.1" /><text fill="#0a3d62" font-family="sans-serif" font-size="1.6" text-anchor="middle" x="111.46444399999999" y="166.2511315">08</text><polygon fill="#cfe3f7" fill-opacity="0.5" points="134.42852399999998,166.920335 134.45067899999998,167.145278 134.530622,167.408816 134.660443,167.651694 134.835153,167.864579 135.048038,168.039289 135.29091599999998,168.16911 135.554454,168.249053 135.779397,168.271208 147.07765099999997,168.271208 147.30259399999997,168.249053 147.56613199999998,168.16911 147.80900999999997,168.039289 148.02189499999997,167.864579 148.19660499999998,167.651694 148.32642599999997,167.408816 148.40636899999998,167.145278 148.42852399999998,166.920335 148.42852399999998,164.622081 148.40636899999998,164.397138 148.32642599999997,164.1336 148.19660499999998,163.890722 148.02189499999997,163.677837 147.80900999999997,163.503127 147.56613199999998,163.373306 147.30259399999997,163.293363 147.07765099999997,163.271208 135.779397,163.271208 135.554454,163.293363 135.29091599999998,163.373306 135.048038,163.503127 134.835153,163.677837 134.660443,163.890722 134.530622,164.1336 134.45067899999998,164.397138 134.42852399999998,164.622081 134.42852399999998,166.920335" stroke="#1f6fb2" stroke-width="0.1" /><text fill="#0a3d62" font-family="sans-serif" font-size="1.6" text-anchor="middle" x="141.42852399999998" y="165.771208">06</text><polygon fill="#cfe3f7" fill-opacity="0.5" points="4.0,180.041836 4.022155,180.26677899999999 4.102098,180.530317 4.2319189999999995,180.773195 4.406629,180.98608 4.619514,181.16079 4.862392,181.29061099999998 5.12593,181.370554 5.350873,181.392709 16.649127,181.392709 16.87407,181.370554 17.137608,181.29061099999998 17.380485999999998,181.16079 17.593370999999998,180.98608 17.768081000000002,180.773195 17.897902000000002,180.530317 17.977845000000002,180.26677899999999 18.0,180.041836 18.0,177.743582 17.977845000000002,177.518639 17.897902000000002,177.255101 17.768081000000002,177.012223 17.593370999999998,176.799338 17.380485999999998,176.624628 17.137608,176.494807 16.87407,176.414864 16.649127,176.392709 5.350873,176.392709 5.12593,176.414864 4.862392,176.494807 4.619514,176.624628 4.406629,176.799338 4.2319189999999995,177.012223 4.102098,177.255101 4.022155,177.518639 4.0,177.743582 4.0,180.041836" stroke="#1f6fb2" stroke-width="0.1" /><text fill="#0a3d62" font-family="sans-serif" font-size="1.6" text-anchor="middle" x="11.0" y="178.892709">06</text></svg>