<?xml version="1.0" encoding="utf-8" ?>
<svg baseProfile="full" height="76.931099cm" version="1.1" viewBox="0 0 161.0457246725638 76.931099" width="161.0457246725638cm" xmlns="http://www.w3.org/2000/svg" xmlns:ev="http://www.w3.org/2001/xml-events" xmlns:xlink="http://www.w3.org/1999/xlink"><defs /><g fill="none" id="CONSTRUCCION" stroke="#888888" stroke-width="0.08"><line x1="5.7" x2="5.7" y1="14.331099" y2="72.931099" /><line x1="111.07679184148637" x2="111.07679184148637" y1="64.931099" y2="52.931099" /><line x1="145.0457246725638" x2="157.0457246725638" y1="12.151098999999999" y2="12.151098999999999" /></g><g fill="none" id="CORTE" stroke="#d00000" stroke-width="0.08"><polygon points="3.0,73.931099 30.7,73.931099 30.7,26.555393 30.100068,25.869685999999998 29.746677,25.466515 29.390684,25.061868 29.03155,24.655881 28.668433,24.248351 28.300496,23.83908 27.926906,23.427877 27.546843,23.014568 27.160414,22.599943 26.771075,22.186115 26.384597,21.774069 26.005541,21.363333 25.638339,20.953499 25.287416999999998,20.544379 24.957145,20.136005 24.651775999999998,19.728641 24.375339999999998,19.322756000000002 24.131521,18.918972 23.923496,18.51792 23.753785999999998,18.119954999999997 23.623387,17.72232 23.5304,17.316957000000002 23.471646,16.897547 23.445508,16.462628000000002 23.450623999999998,16.011946000000002 23.485547999999998,15.545879 23.54861,15.065254 23.63787,14.571169 23.751132,14.064847 23.885973,13.547543 24.039794999999998,13.020482 24.209865,12.484822 24.393345999999998,11.941639 24.587334,11.391918 24.788868,10.836552999999999 25.174112,9.789323 20.480735,3.0 19.093819,5.654343 18.470695,6.815965 17.836596,7.937567 17.184434,9.003730999999998 16.507876,9.999119 15.801433,10.90884 15.060367999999999,11.719092 14.280133999999999,12.418038 13.454979999999999,12.996608 12.571245,13.450693 11.604883000000001,13.787023 10.548281,14.024132 9.412396000000001,14.178056999999999 8.212593,14.26674 6.964669,14.310464 5.6918940000000005,14.331099 3.0,14.331099 3.0,73.931099" /><polygon points="60.7,16.629787 60.244879999999995,15.943124000000001 59.956334,15.507508999999999 59.667846999999995,15.071442999999999 59.379368,14.634578999999999 59.090845,14.196570999999999 58.802226000000005,13.757071 58.513459999999995,13.315732999999998 58.224503999999996,12.872226000000001 57.935745999999995,12.426835 57.648979,11.980611 57.366721,11.534151000000001 57.091082,11.087402999999998 56.824129,10.640321 56.567903,10.192904 56.324413,9.745192 56.09562,9.297257 55.883430000000004,8.849195 55.689674,8.401107 55.516095,7.953080999999999 55.364342,7.505155 55.235945,7.057226999999999 55.131893,6.607339 55.051451,6.151558 54.992833000000005,5.687688 54.954642,5.215662999999999 54.903386,3.9310989999999997 35.7,3.9310989999999997 35.7,63.931099 60.7,63.931099 60.7,16.629787" /><polygon points="84.935489,14.735662 84.933947,14.247981 84.948537,13.752998 84.97771900000001,13.251147 85.019895,12.742894 85.073413,12.228719 85.136566,11.709103 85.207604,11.184516 85.284735,10.65541 85.366134,10.122212999999999 85.574323,8.788484 72.671369,3.809598 72.032261,4.243709 71.829432,4.380198 71.629102,4.512496 71.430774,4.6397949999999994 71.233968,4.761345 71.03821,4.876457 70.84236,4.984875 70.64441000000001,5.087149 70.443353,5.183788 70.239377,5.274699 70.032785,5.359737 69.823881,5.4387609999999995 69.61297,5.511638 69.400361,5.578239 69.186361,5.63844 68.971278,5.692126 68.75532100000001,5.739207 68.53784300000001,5.779796 68.31769200000001,5.814382999999999 68.09443900000001,5.843458 67.868087,5.867443 67.63866700000001,5.8867709999999995 67.40623400000001,5.90189 67.170855,5.913264 66.932609,5.921376 66.691581,5.926724 66.447859,5.929828 66.20153300000001,5.93122 65.95268899999999,5.931455 65.7,5.931098 65.7,15.931099 84.98318900000001,15.931099 84.935489,14.735662" /><polygon points="123.77432423112721,13.701476 123.35351723112721,13.239334 122.9240412311272,12.778322 122.48384423112721,12.321725 122.03317023112722,11.873886 121.57424823112721,11.436546 121.10807323112721,11.009191 120.6352652311272,10.590944 120.15643323112721,10.180924999999998 119.6721722311272,9.778253 119.18306723112721,9.382047 118.6896942311272,8.991429 118.19261423112721,8.605522 117.69172123112722,8.222952 117.18498223112721,7.842241 116.66990223112721,7.464745 116.14534323112721,7.093382 115.61032823112721,6.731278 115.06382523112721,6.381615 114.50476823112722,6.047649 113.9320732311272,5.732736 113.3446772311272,5.440343 112.74158623112722,5.1740759999999995 112.12345523112721,4.938248 111.49537423112722,4.736102 110.8630832311272,4.565077 110.22883123112722,4.420597 109.59416223112721,4.298028 108.96049523112721,4.192868 108.32917923112721,4.100758 107.70154723112721,4.017481 106.98004923112721,3.9264859999999997 106.2448882311272,3.980426 105.60414223112721,4.031448 104.95957223112721,4.090891 104.3123252311272,4.162924 103.66355223112721,4.251855 103.01445023112721,4.3621289999999995 102.36632123112722,4.498326 101.72073223112722,4.665122 101.08187023112721,4.866368 100.45560423112721,5.101291 99.8442392311272,5.365638 99.24718123112721,5.6559 98.66359923112721,5.96874 98.09261123112721,6.300933 97.53331923112721,6.649357999999999 96.98483823112721,7.010975 96.44631723112721,7.382809 95.91694123112721,7.761937 95.3951222311272,8.146086 94.87790423112722,8.535779 94.3646762311272,8.934245 93.85727623112722,9.34367 93.35791823112721,9.766033 92.86887323112721,10.20335 92.3924872311272,10.657661999999998 91.93119923112721,11.131011 91.48755823112721,11.62541 91.0647232311272,12.14221 90.66837023112721,12.677468 90.29859923112721,13.220684 89.94940123112721,13.76388 89.43592523112721,14.586094 90.89512423112721,30.861099 123.01250423112721,30.861099 124.48066723112721,14.486108999999999 123.77432423112721,13.701476" /><polygon points="128.4457246725638,73.931099 136.4529446725638,73.931099 136.04690167256382,17.491166999999997 140.27064667256383,4.925526 137.7463856725638,3.663395 137.0502726725638,4.591763 136.8545336725638,4.853378 136.65871867256382,5.116242 136.4631066725638,5.380561 136.26798067256382,5.646545 136.07362467256382,5.914407 135.88032767256382,6.18436 135.68838067256382,6.456616 135.49807967256382,6.731392 135.30972067256383,7.008903 135.12360667256382,7.289364 134.9400436725638,7.572992 134.7593396725638,7.860001 134.58196667256382,8.150345999999999 134.4090276725638,8.442489 134.2408026725638,8.734021 134.07647467256382,9.023689999999998 133.91499967256382,9.310708 133.7553776725638,9.594297999999998 133.5966516725638,9.873691999999998 133.43790867256382,10.148133999999999 133.2782776725638,10.416884 133.1169276725638,10.679222 132.9530656725638,10.934457 132.7859306725638,11.18194 132.61478267256382,11.421073 132.43888567256383,11.651338 132.2565936725638,11.873399000000001 132.06512867256382,12.090241 131.86337467256382,12.30459 131.6520026725638,12.517284 131.43193667256384,12.728983 131.20416667256382,12.940375 130.96973567256381,13.152187 130.76814967256382,13.331099 128.4457246725638,13.331099 128.4457246725638,73.931099" /><polygon points="144.0457246725638,15.203004 151.0457246725638,19.613004 158.0457246725638,15.203004 158.0457246725638,3.9310989999999997 144.0457246725638,3.9310989999999997 144.0457246725638,15.203004" /></g><g fill="none" id="COSTURA" stroke="#00a000" stroke-width="0.08"><polygon points="4.0,15.331099 5.7,15.331099 6.990284789514157,15.31018032559302 8.266978740883381,15.265448520186384 9.516491015962742,15.17309045278044 10.725230776607308,15.009292992375533 11.879607184672144,14.750243007972006 12.96602940201232,14.372127368570206 13.972964842481051,13.854739300919686 14.90300801724406,13.202624767058294 15.76468439140518,12.430721625504074 16.566539815039654,11.554003452218627 17.317120138222705,10.587443823163555 18.02497121102958,9.546016314300466 18.69863888353551,8.444694501590963 19.346669005815734,7.298451960996648 19.977607427945486,6.122262268479125 20.6,4.931099 24.0564392373896,9.931099 23.84959802771455,10.493366580940364 23.645801650517317,11.054965169710792 23.4480949382757,11.615225774141342 23.25952272346752,12.173479402062087 23.08312983857059,12.72905706130308 22.92196111606271,13.281289759694388 22.779061388421706,13.829508505066075 22.657475488125385,14.373044305248204 22.560248247651558,14.911228168070835 22.49042449947803,15.443391101364034 22.451049076082626,15.968864112957863 22.445166809943142,16.486978210682388 22.4758225335374,16.997064402367663 22.54606107934321,17.49845369584376 22.658927279838384,17.99047709894074 22.817015777873205,18.472546620396336 23.018439554671197,18.944880637281663 23.25874127090857,19.408159994669333 23.533433110351083,19.86307102122656 23.838027256764505,20.31030004562056 24.168035893914595,20.75053339651855 24.518971205567123,21.184457402587746 24.886345375487853,21.61275839249535 25.265670587442546,22.0361226949086 25.652459025196965,22.455236638494693 26.04222287251688,22.870786551920844 26.43047431316805,23.283458763854277 26.813017247128172,23.693914540544654 27.188779993915375,24.10254671781536 27.558586779631288,24.509585247150557 27.923288455857527,24.915257792541027 28.283735874175697,25.31979201797755 28.64077988616742,25.72341558745092 28.9952713434143,26.126356164951932 29.348061097497954,26.528841414471355 29.7,26.931099 29.7,72.931099 4.0,72.931099" /><polygon points="35.7,4.931099 53.94249141613642,4.931099 53.956251337565014,5.27594527035005 53.997903441584135,5.790748994128569 54.06241306962703,6.3012363864734215 54.15168501536235,6.80704775309847 54.267509273000805,7.307838492642356 54.40960019683117,7.803536892464548 54.57586886747531,8.294308320084237 54.76416637745514,8.780326029781548 54.97234381929262,9.261763275836616 55.19825228550965,9.738793312529573 55.4397428686282,10.211589394140542 55.69466666117018,10.680324774949659 55.960874755657535,11.145172709237045 56.236218244612196,11.60630645128284 56.5185482205561,12.063899255367168 56.80571577601117,12.51812437577016 57.095572003499356,12.969155066771947 57.386030449882966,13.417169438993469 57.676130805337365,13.862433169999925 57.965889496115864,14.30528788665412 58.255355331457864,14.746077733863533 58.54457712060278,15.185146856535614 58.83360367279005,15.622839399577838 59.12248379725906,16.05949950789767 59.411266303249235,16.495471326402566 59.7,16.931099 59.7,62.931099 35.7,62.931099" /><polygon points="65.7,6.931099 65.95245430921341,6.9314553628190705 66.20483086291523,6.931217589548962 66.45705190559389,6.929791544100493 66.70903968173775,6.926583090384485 66.96071643583525,6.920998092311757 67.21200441237482,6.91244241379313 67.46282585584484,6.900321918739424 67.71310301073372,6.88404247106146 67.96275812152989,6.863009934670056 68.21171343272172,6.836630173476033 68.45989118879767,6.804309051390212 68.70721363424613,6.765452432323412 68.95360257343721,6.719467816906702 69.19891975774915,6.665986031978915 69.44290645846002,6.605085948065581 69.6852895518145,6.536899968215919 69.9257959140573,6.46156049547915 70.16415242143313,6.379199932904493 70.40008595018666,6.289950683541167 70.63332337656261,6.1939451504383936 70.86359157680567,6.091315736645392 71.09061742716054,5.98219484521138 71.31412780387191,5.866714879185578 71.53389863733646,5.745053848373326 71.75020863974197,5.6178572101985935 71.96363149198662,5.486044661176141 72.17474462410257,5.35053938347551 72.384125466122,5.212264559266248 72.5923514480771,5.072143370717896 72.8,4.931099 84.46190378969061,9.431099 84.37783951157896,9.969642546663692 84.29568002713596,10.507826399041246 84.21733013003025,11.045290862846523 84.14469461393048,11.581676243793382 84.07967827250532,12.116622847595686 84.02418589942339,12.649770979967293 83.98012228835334,13.180760946622069 83.94939223296385,13.70923305327387 83.93390052692352,14.23482760563656 83.93555196390102,14.757184909424 83.94249141613642,14.931099 65.7,14.931099" /><polygon points="123.44572467256381,14.831099 123.03301229133078,14.372642234768882 122.61794912571278,13.916808549199231 122.19818439132484,13.466221022952523 121.77136739968957,13.023502620906243 121.3357176958692,12.59059384167264 120.89137031323982,12.167142691289065 120.43886204594884,11.75231634091717 119.9787296881437,11.345281961718596 119.51151003397186,10.945206724854993 119.03773987758073,10.55125780148801 118.55795601311776,10.162602362779293 118.0726952347304,9.778407579890489 117.58249433656607,9.397840623983246 117.08788879745585,9.020072561643765 116.58906493143469,8.645308541561988 116.08539227668966,8.27617266558849 115.57612375973659,7.91563439124428 115.06051230709137,7.566663176050368 114.53781084526987,7.232228477527764 114.00727230078793,6.915299753197476 113.46814960016144,6.618846460580514 112.91969566990625,6.345838057197888 112.36116343653823,6.099244000570606 111.79180831215906,5.882025801143583 111.21147892759856,5.695248291981794 110.62138159281068,5.535635446427541 110.02291172925645,5.399306598251178 109.41746475839695,5.282381081223054 108.80643610169321,5.1809782291135225 108.1912211806063,5.091217375692935 107.5732154165973,5.009217854731643 106.95381423112721,4.931099 106.32116562564563,4.977517421104718 105.6897503085432,5.027796983395557 105.06080156819903,5.08579882805864 104.43555269299226,5.155384096280088 103.81523697130204,5.240413929246023 103.2010876915075,5.344749468142566 102.59433814198778,5.472251854155839 101.996221611122,5.6267822284719635 101.40794214319236,5.812094982314251 100.82987959378087,6.028935964249865 100.26149543465036,6.2746986389875286 99.70220298525676,6.546600700482023 99.151415565056,6.8418598426881285 98.60854649350404,7.157693759560623 98.07300909005681,7.491320145054289 97.54421667417024,7.839956693123902 97.02158256530028,8.200821097724244 96.50452008290287,8.571131052810095 95.99244406767505,8.948106805038686 95.48544428454008,9.330101150479454 94.98534369097663,9.718375250517049 94.49423959360695,10.114650635195668 94.0142292990533,10.520648834559495 93.54741011393791,10.938091378652718 93.09587934488307,11.368699797519527 92.661734298511,11.814195621204112 92.24707228144396,12.276300379750658 91.85399060030421,12.756735603203357 91.48384557317247,13.256600346284104 91.13265986170111,13.77251306878231 90.79412029060265,14.299129985769024 90.46190378969061,14.831099 91.80947692212159,29.861099 122.09815154013283,29.861099" /><polygon points="129.4457246725638,14.331099 131.14572467256383,14.331099 131.39186188399475,14.114588070671315 131.63684770773244,13.897157943868006 131.8795307560837,13.677889422115449 132.11875964135533,13.455863307939017 132.3533829758541,13.23016040386409 132.58224937188675,12.99986151241604 132.8042074417601,12.764047436120249 133.01810579778095,12.521798977502083 133.22292229003077,12.272299191163548 133.4189075070277,12.015738113979522 133.60703581917977,11.752878434291723 133.78828995465548,11.484489453046896 133.9636526416233,11.211340471191782 134.1341066082517,10.934200789673127 134.30063458270914,10.653839709437676 134.46421929316412,10.37102653143217 134.6258434677851,10.086530556603355 134.78648983474056,9.801121085897975 134.94714112219899,9.515567420262776 135.10878005832885,9.2306388606445 135.2723893712986,8.947104707989894 135.43895163396562,8.665734142964254 135.60917860458153,8.387086612599036 135.78295470932403,8.111080832744115 135.96000693787568,7.837513591821779 136.14006227991908,7.56618167825431 136.3228477251368,7.296881880463993 136.5080902632114,7.029410986873114 136.6955168838254,6.763565785903957 136.88485457666144,6.499143065978807 137.07583033140205,6.23593961551995 137.2681711377298,5.973752222949669 137.46160398532732,5.712377676690247 137.6558558638771,5.451612765163973 137.85065376306173,5.191254276793129 138.0457246725638,4.931099 139.0457246725638,5.431099 135.0457246725638,17.331099000000002 135.4457246725638,72.931099 129.4457246725638,72.931099" /><polygon points="145.0457246725638,4.931099 157.0457246725638,4.931099 157.0457246725638,14.651098999999999 151.0457246725638,18.431099 145.0457246725638,14.651098999999999" /></g><g fill="none" id="PIQUETES" stroke="#00b0b0" stroke-width="0.08"><line x1="22.218429058595923" x2="22.326124085267683" y1="16.56659356423571" y2="17.203776254859186" /><line x1="22.687574369831907" x2="22.326124085267683" y1="16.6680956673927" y2="17.203776254859186" /><line x1="29.76851821140877" x2="29.124971442527944" y1="47.40108757701118" y2="47.459803471478075" /><line x1="29.631481788591227" x2="29.124971442527944" y1="47.86111042298883" y2="47.459803471478075" /><line x1="44.582135899574205" x2="44.872875367782875" y1="4.951750863885865" y2="5.528873521235012" /><line x1="45.06035551656222" x2="44.872875367782875" y1="4.9104471361141355" y2="5.528873521235012" /><line x1="75.06032306347002" x2="74.76868513978756" y1="14.91007477268774" y2="14.333405611495479" /><line x1="74.58216835266641" x2="74.76868513978756" y1="14.95212322731226" y2="14.333405611495479" /><line x1="114.85022597486574" x2="114.68690895886343" y1="7.413094028883192" y2="8.038336023861216" /><line x1="115.23637438078097" x2="114.68690895886343" y1="7.698207004051139" y2="8.038336023861216" /><line x1="98.27433804222649" x2="98.82293324773978" y1="7.387453564247079" y2="7.728984383482816" /><line x1="98.6612131466686" x2="98.82293324773978" y1="7.103327441613291" y2="7.728984383482816" /><line x1="96.96135518314513" x2="97.5444631545903" y1="8.283206001284697" y2="8.561747010181211" /><line x1="97.31430980209312" x2="97.5444631545903" y1="7.957901471707751" y2="8.561747010181211" /></g><g fill="none" id="TEXTOS" stroke="#000000" stroke-width="0.08"><text fill="#000000" font-family="sans-serif" font-size="0.9" stroke="none" text-anchor="middle" x="16.588075832966204" y="41.02518171824711">DELANTERO (bardot)</text><text fill="#000000" font-family="sans-serif" font-size="0.6" stroke="none" text-anchor="middle" x="16.588075832966204" y="42.42518171824711">Pieza N.01</text><text fill="#000000" font-family="sans-serif" font-size="0.6" stroke="none" text-anchor="middle" x="16.588075832966204" y="43.82518171824711">Talla: S</text><text fill="#000000" font-family="sans-serif" font-size="0.6" stroke="none" text-anchor="middle" x="16.588075832966204" y="45.225181718247114">Cortar: 2  (par: izq + der)</text><text fill="#000000" font-family="sans-serif" font-size="0.9" stroke="none" text-anchor="middle" x="47.39306647024231" y="31.107954654431577">ESPALDA</text><text fill="#000000" font-family="sans-serif" font-size="0.6" stroke="none" text-anchor="middle" x="47.39306647024231" y="32.50795465443157">Pieza N.02</text><text fill="#000000" font-family="sans-serif" font-size="0.6" stroke="none" text-anchor="middle" x="47.39306647024231" y="33.90795465443158">Talla: S</text><text fill="#000000" font-family="sans-serif" font-size="0.6" stroke="none" text-anchor="middle" x="47.39306647024231" y="35.30795465443158">Cortar: 1  (al doblez)</text><text fill="#000000" font-family="sans-serif" font-size="0.6" stroke="none" text-anchor="middle" x="47.39306647024231" y="36.70795465443158">AL DOBLEZ</text><text fill="#000000" font-family="sans-serif" font-size="0.9" stroke="none" text-anchor="middle" x="74.4579030326492" y="7.199341639616993">CANESU</text><text fill="#000000" font-family="sans-serif" font-size="0.6" stroke="none" text-anchor="middle" x="74.4579030326492" y="8.599341639616991">Pieza N.03</text><text fill="#000000" font-family="sans-serif" font-size="0.6" stroke="none" text-anchor="middle" x="74.4579030326492" y="9.999341639616992">Talla: S</text><text fill="#000000" font-family="sans-serif" font-size="0.6" stroke="none" text-anchor="middle" x="74.4579030326492" y="11.399341639616992">Cortar: 2  (al doblez x2 (exterior+interior))</text><text fill="#000000" font-family="sans-serif" font-size="0.6" stroke="none" text-anchor="middle" x="74.4579030326492" y="12.799341639616992">AL DOBLEZ</text><text fill="#000000" font-family="sans-serif" font-size="0.9" stroke="none" text-anchor="middle" x="106.84761298411672" y="15.95564182119664">MANGA (bardot)</text><text fill="#000000" font-family="sans-serif" font-size="0.6" stroke="none" text-anchor="middle" x="106.84761298411672" y="17.35564182119664">Pieza N.04</text><text fill="#000000" font-family="sans-serif" font-size="0.6" stroke="none" text-anchor="middle" x="106.84761298411672" y="18.75564182119664">Talla: S</text><text fill="#000000" font-family="sans-serif" font-size="0.6" stroke="none" text-anchor="middle" x="106.84761298411672" y="20.15564182119664">Cortar: 2  (par: izq + der)</text><text fill="#000000" font-family="sans-serif" font-size="0.9" stroke="none" text-anchor="middle" x="132.5959375388163" y="38.795687149181504">VISTA DELANTERA</text><text fill="#000000" font-family="sans-serif" font-size="0.6" stroke="none" text-anchor="middle" x="132.5959375388163" y="40.1956871491815">Pieza N.09</text><text fill="#000000" font-family="sans-serif" font-size="0.6" stroke="none" text-anchor="middle" x="132.5959375388163" y="41.5956871491815">Talla: S</text><text fill="#000000" font-family="sans-serif" font-size="0.6" stroke="none" text-anchor="middle" x="132.5959375388163" y="42.99568714918151">Cortar: 2  (par: izq + der)</text><text fill="#000000" font-family="sans-serif" font-size="0.9" stroke="none" text-anchor="middle" x="151.0457246725638" y="8.087378069767441">BOLSILLO</text><text fill="#000000" font-family="sans-serif" font-size="0.6" stroke="none" text-anchor="middle" x="151.0457246725638" y="9.487378069767441">Pieza N.10</text><text fill="#000000" font-family="sans-serif" font-size="0.6" stroke="none" text-anchor="middle" x="151.0457246725638" y="10.88737806976744">Talla: S</text><text fill="#000000" font-family="sans-serif" font-size="0.6" stroke="none" text-anchor="middle" x="151.0457246725638" y="12.28737806976744">Cortar: 1  (1 (opcional))</text></g><g fill="none" id="CENTROS" stroke="#0050ff" stroke-width="0.08"><circle cx="18.9" cy="29.931099" fill="#0050ff" r="0.15" /><circle cx="111.07679184148637" cy="52.931099" fill="#0050ff" r="0.15" /></g><g fill="none" id="HILO" stroke="#c0a000" stroke-width="0.08"><line x1="17.7" x2="17.7" y1="17.331099000000002" y2="69.931099" /><line x1="17.7" x2="18.167302010770378" y1="69.931099" y2="68.82582580719654" /><line x1="17.7" x2="17.232697989229617" y1="69.931099" y2="68.82582580719654" /><line x1="17.7" x2="17.23269798922962" y1="17.331099000000002" y2="18.43637219280346" /><line x1="17.7" x2="18.167302010770378" y1="17.331099000000002" y2="18.43637219280346" /><line x1="36.2" x2="36.2" y1="7.931099" y2="59.931099" /><line x1="36.2" x2="36.66730201077038" y1="59.931099" y2="58.825825807196544" /><line x1="36.2" x2="35.73269798922962" y1="59.931099" y2="58.825825807196544" /><line x1="36.2" x2="35.73269798922962" y1="7.931099" y2="9.036372192803462" /><line x1="36.2" x2="36.66730201077038" y1="7.931099" y2="9.036372192803462" /><line x1="69.96000000000001" x2="69.96000000000001" y1="5.931099" y2="14.431099" /><line x1="69.96000000000001" x2="70.42730201077039" y1="14.431099" y2="13.325825807196537" /><line x1="69.96000000000001" x2="69.49269798922963" y1="14.431099" y2="13.325825807196537" /><line x1="69.96000000000001" x2="69.49269798922963" y1="5.931099" y2="7.036372192803462" /><line x1="69.96000000000001" x2="70.42730201077038" y1="5.931099" y2="7.036372192803462" /><line x1="106.95381423112721" x2="106.95381423112721" y1="8.891099" y2="62.931099" /><line x1="106.95381423112721" x2="107.4211162418976" y1="62.931099" y2="61.825825807196544" /><line x1="106.95381423112721" x2="106.48651222035683" y1="62.931099" y2="61.825825807196544" /><line x1="106.95381423112721" x2="106.48651222035683" y1="8.891099" y2="9.996372192803463" /><line x1="106.95381423112721" x2="107.4211162418976" y1="8.891099" y2="9.996372192803463" /><line x1="132.4457246725638" x2="132.4457246725638" y1="19.331099000000002" y2="69.931099" /><line x1="132.4457246725638" x2="132.9130266833342" y1="69.931099" y2="68.82582580719654" /><line x1="132.4457246725638" x2="131.97842266179345" y1="69.931099" y2="68.82582580719654" /><line x1="132.4457246725638" x2="131.97842266179345" y1="19.331099000000002" y2="20.436372192803464" /><line x1="132.4457246725638" x2="132.9130266833342" y1="19.331099000000002" y2="20.436372192803464" /><line x1="151.0457246725638" x2="151.0457246725638" y1="5.931099" y2="14.651098999999999" /><line x1="151.0457246725638" x2="151.51302668333418" y1="14.651098999999999" y2="13.545825807196536" /><line x1="151.0457246725638" x2="150.57842266179344" y1="14.651098999999999" y2="13.545825807196536" /><line x1="151.0457246725638" x2="150.57842266179344" y1="5.931099" y2="7.036372192803462" /><line x1="151.0457246725638" x2="151.51302668333418" y1="5.931099" y2="7.036372192803462" /></g><g fill="none" id="DOBLEZ" stroke="#c000c0" stroke-width="0.08"><line x1="35.7" x2="35.7" y1="4.931099" y2="62.931099" /><line x1="65.7" x2="65.7" y1="4.931099" y2="14.931099" /></g><g fill="none" id="BOTONES" stroke="#ff8000" stroke-width="0.08"><circle cx="5.7" cy="15.831099" fill="#ff8000" r="0.55" /><circle cx="5.7" cy="24.347765666666668" fill="#ff8000" r="0.55" /><circle cx="5.7" cy="32.86443233333334" fill="#ff8000" r="0.55" /><circle cx="5.7" cy="41.381099000000006" fill="#ff8000" r="0.55" /><circle cx="5.7" cy="49.89776566666667" fill="#ff8000" r="0.55" /><circle cx="5.7" cy="58.41443233333334" fill="#ff8000" r="0.55" /><circle cx="5.7" cy="66.931099" fill="#ff8000" r="0.55" /></g><g fill="none" id="OJAL" stroke="#ff40a0" stroke-width="0.08"><line x1="4.9" x2="6.5" y1="15.831099" y2="15.831099" /><line x1="4.9" x2="6.5" y1="24.347765666666668" y2="24.347765666666668" /><line x1="4.9" x2="6.5" y1="32.86443233333334" y2="32.86443233333334" /><line x1="4.9" x2="6.5" y1="41.381099000000006" y2="41.381099000000006" /><line x1="4.9" x2="6.5" y1="49.89776566666667" y2="49.89776566666667" /><line x1="4.9" x2="6.5" y1="58.41443233333334" y2="58.41443233333334" /><line x1="4.9" x2="6.5" y1="66.931099" y2="66.931099" /></g><g fill="none" id="REFERENCIAS" stroke="#b0b0b0" stroke-width="0.08"><text fill="#000000" font-family="sans-serif" font-size="0.5" stroke="none" text-anchor="start" x="5.7" y="13.331099">CF</text><text fill="#000000" font-family="sans-serif" font-size="0.5" stroke="none" text-anchor="start" x="36.0" y="33.931099">CB</text><text fill="#000000" font-family="sans-serif" font-size="0.5" stroke="none" text-anchor="start" x="151.0457246725638" y="6.431099">boca</text></g></svg>