<?xml version="1.0" encoding="utf-8" ?>
<svg baseProfile="full" height="117.52183099999999cm" version="1.1" viewBox="0 0 118.0 117.52183099999999" width="118.0cm" xmlns="http://www.w3.org/2000/svg" xmlns:ev="http://www.w3.org/2001/xml-events" xmlns:xlink="http://www.w3.org/1999/xlink"><defs /><rect fill="#f7f3ea" height="109.52183099999999" stroke="#333" stroke-width="0.15" width="110.0" x="4.0" y="4.0" /><text fill="#000" font-family="sans-serif" font-size="1.4" x="4.0" y="3.0">PLANO DE CORTE — ancho 110 cm — largo 1.10 m</text><polygon fill="#cfe3f7" fill-opacity="0.5" points="8.228580000000001,66.003991 34.072896,66.003991 38.309748,13.779323999999999 37.58879,13.02338 37.170864,12.590219000000001 36.744289,12.158232 36.307230000000004,11.730794 35.860273,11.312175 35.40572,10.903946000000001 34.944496,10.505552 34.477195,10.116143000000001 34.004402999999996,9.734863 33.526691,9.360859999999999 33.04462,8.99328 32.55874,8.631273 32.069582,8.273982 31.576815,7.919969 31.078286,7.568092 30.571813,7.219842 30.05648,6.8779330000000005 29.53145,6.54521 28.995845,6.224572 28.448756,5.918985 27.889268,5.631502 27.31649,5.365278 26.729613,5.123591 26.129777,4.910448 25.522122,4.728197 24.911558,4.574102 24.299860000000002,4.443979000000001 23.688344,4.333647 23.078217000000002,4.239045 22.470638,4.156234 21.866745,4.081401 21.175531,4.0 20.472091,4.0478000000000005 19.856474,4.093229 19.237094,4.146213 18.61493,4.210494 17.990967,4.289933 17.366222,4.38851 16.741797,4.510323 16.118965,4.659567 15.50101,4.839931 14.893471000000002,5.051494 14.299107,5.290505 13.717563,5.553771 13.148141,5.838288 12.590095,6.141147 12.042658000000001,6.459529 11.505068,6.790687 10.976585,7.131934 10.456506000000001,7.480633 9.943634000000001,7.834543 9.435029,8.193723 8.929524,8.561268 8.428682,8.939566 7.93469,9.330648 7.449787000000001,9.736587 6.976292000000001,10.159491 6.516617,10.601475 6.073293,11.064637000000001 5.649365000000001,11.550574000000001 5.250777000000001,12.055903 4.8787780000000005,12.570084999999999 4.527858000000002,13.084399000000001 4.0,13.881281999999999 8.228580000000001,66.003991" stroke="#1f6fb2" stroke-width="0.1" /><text fill="#0a3d62" font-family="sans-serif" font-size="1.6" text-anchor="middle" x="21.154874" y="35.0019955">03</text><polygon fill="#cfe3f7" fill-opacity="0.5" points="43.538328,66.003991 69.382644,66.003991 73.619496,13.779323999999999 72.898538,13.02338 72.48061200000001,12.590219000000001 72.054037,12.158232 71.616978,11.730794 71.17002099999999,11.312175 70.715468,10.903946000000001 70.254244,10.505552 69.78694300000001,10.116143000000001 69.314151,9.734863 68.836439,9.360859999999999 68.354368,8.99328 67.868488,8.631273 67.37933,8.273982 66.886563,7.919969 66.388034,7.568092 65.881561,7.219842 65.366228,6.8779330000000005 64.84119799999999,6.54521 64.305593,6.224572 63.758504,5.918985 63.199016,5.631502 62.626238,5.365278 62.039361,5.123591 61.439525,4.910448 60.831869999999995,4.728197 60.221306,4.574102 59.609608,4.443979000000001 58.998092,4.333647 58.387965,4.239045 57.780386,4.156234 57.176493,4.081401 56.485279,4.0 55.781839,4.0478000000000005 55.166222,4.093229 54.546842,4.146213 53.924678,4.210494 53.300715,4.289933 52.67597,4.38851 52.051545,4.510323 51.428713,4.659567 50.810758,4.839931 50.203219000000004,5.051494 49.608855,5.290505 49.027311,5.553771 48.457889,5.838288 47.899843,6.141147 47.352406,6.459529 46.814816,6.790687 46.286333,7.131934 45.766254,7.480633 45.253382,7.834543 44.744777,8.193723 44.239272,8.561268 43.73843,8.939566 43.244438,9.330648 42.759535,9.736587 42.28604,10.159491 41.826364999999996,10.601475 41.383041,11.064637000000001 40.959113,11.550574000000001 40.560525,12.055903 40.188525999999996,12.570084999999999 39.837606,13.084399000000001 39.309748,13.881281999999999 43.538328,66.003991" stroke="#1f6fb2" stroke-width="0.1" /><text fill="#0a3d62" font-family="sans-serif" font-size="1.6" text-anchor="middle" x="56.464622" y="35.0019955">03</text><polygon fill="#cfe3f7" fill-opacity="0.5" points="39.630348,106.22791000000001 40.206184,113.52183099999999 53.278999999999996,113.52183099999999 53.416969,110.905678 53.506984,109.238259 53.601072,107.57239200000001 53.701296,105.908234 53.809713,104.24593899999999 53.928391000000005,102.58545000000001 54.058763,100.92583 54.199529,99.26594800000001 54.348656000000005,97.605447 54.504090000000005,95.944173 54.663774000000004,94.28197399999999 54.918203000000005,91.66764 48.673133,90.77183099999999 55.660696,89.769517 54.326881,88.02481 54.028452,87.635015 53.728338,87.244154 53.426231,86.852396 53.121610000000004,86.459637 52.813957,86.065774 52.502753999999996,85.670706 52.187483,85.274339 51.867652,84.876608 51.543596,84.478402 51.218077,84.081524 50.894937999999996,83.68663699999999 50.577144000000004,83.293301 50.267588,82.901114 49.969145,82.509789 49.684647999999996,82.119146 49.416863,81.729111 49.168453,81.339701 48.941931,80.950997 48.739613000000006,80.563098 48.563566,80.17604 48.415573,79.78968 48.296848,79.402577 48.206936999999996,79.009003 48.143365,78.603459 48.104388,78.184759 48.088484,77.753118 48.094037,77.309085 48.119278,76.853431 48.162274,76.387063 48.220934,75.910946 48.293031,75.426048 48.376222999999996,74.933315 48.468071,74.433638 48.566062,73.927847 48.824462,72.627264 35.939926,67.003991 35.278702,67.803391 35.097169,68.02333899999999 34.915428,68.244504 34.733722,68.467084 34.552295,68.691279 34.371395,68.917291 34.191273,69.145323 34.012184000000005,69.375581 33.834385,69.608272 33.658136,69.843602 33.483704,70.081778 33.311357,70.323007 33.141369,70.567496 32.97421,70.815163 32.811075,71.06441699999999 32.652408,71.312893 32.497526,71.55942 32.345523,71.803248 32.195538,72.043642 32.046757,72.279878 31.898409,72.511246 31.749765,72.737054 31.600141,72.956635 31.448889,73.169356 31.295389,73.374627 31.139046,73.571918 30.979233,73.760809 30.814103,73.942318 30.640792,74.119514 30.458225000000002,74.294686 30.266975000000002,74.468492 30.067794,74.641505 29.8615,74.814332 29.830348,74.839731 29.830348,113.52183099999999 39.054512,113.52183099999999 39.630348,106.22791000000001 20.030348,106.22791000000001 19.454512,113.52183099999999 6.381696000000002,113.52183099999999 6.243727,110.905678 6.153712000000002,109.238259 6.0596239999999995,107.57239200000001 5.959400000000002,105.908234 5.850982999999999,104.24593899999999 5.732305,102.58545000000001 5.6019330000000025,100.92583 5.461167,99.26594800000001 5.31204,97.605447 5.156606,95.944173 4.996922000000001,94.28197399999999 4.742493,91.66764 10.987563000000002,90.77183099999999 4.0,89.769517 5.333815000000001,88.02481 5.632244,87.635015 5.932358000000001,87.244154 6.234465,86.852396 6.539086000000001,86.459637 6.8467389999999995,86.065774 7.157942000000002,85.670706 7.473213000000001,85.274339 7.793044000000002,84.876608 8.1171,84.478402 8.442619,84.081524 8.765758000000002,83.68663699999999 9.083552000000001,83.293301 9.393108000000002,82.901114 9.691551,82.509789 9.976048000000002,82.119146 10.243833000000002,81.729111 10.492243000000002,81.339701 10.718765000000001,80.950997 10.921083,80.563098 11.09713,80.17604 11.245123,79.78968 11.363848,79.402577 11.453759000000002,79.009003 11.517331000000002,78.603459 11.556308000000001,78.184759 11.572212,77.753118 11.566659000000001,77.309085 11.541418,76.853431 11.498422000000001,76.387063 11.439762000000002,75.910946 11.367665000000002,75.426048 11.284473000000002,74.933315 11.192625,74.433638 11.094634,73.927847 10.836234000000001,72.627264 23.72077,67.003991 24.381994,67.803391 24.563527,68.02333899999999 24.745268000000003,68.244504 24.926974,68.467084 25.108401,68.691279 25.289301000000002,68.917291 25.469423,69.145323 25.648512,69.375581 25.826311,69.608272 26.002560000000003,69.843602 26.176992000000002,70.081778 26.349339,70.323007 26.519327,70.567496 26.686486000000002,70.815163 26.849621,71.06441699999999 27.008288,71.312893 27.16317,71.55942 27.315173,71.803248 27.465158000000002,72.043642 27.613939000000002,72.279878 27.762287,72.511246 27.910931,72.737054 28.060555,72.956635 28.211807,73.169356 28.365307,73.374627 28.52165,73.571918 28.681463,73.760809 28.846593000000002,73.942318 29.019904,74.119514 29.202471,74.294686 29.393721,74.468492 29.592902000000002,74.641505 29.799196000000002,74.814332 29.830348,74.839731 29.830348,113.52183099999999 20.606184,113.52183099999999 20.030348,106.22791000000001" stroke="#1f6fb2" stroke-width="0.1" /><text fill="#0a3d62" font-family="sans-serif" font-size="1.6" text-anchor="middle" x="29.830348" y="90.262911">01</text><polygon fill="#cfe3f7" fill-opacity="0.5" points="91.146364,103.869824 92.03162,109.940148 105.145016,109.940148 105.282985,107.323995 105.373,105.656576 105.467088,103.990709 105.567312,102.326551 105.675729,100.664256 105.794407,99.003767 105.924779,97.34414699999999 106.065545,95.684265 106.21467200000001,94.023764 106.370106,92.36249000000001 106.52979,90.70029099999999 106.732032,88.622197 106.135574,87.903546 105.804353,87.50520900000001 105.470386,87.10504900000001 105.133035,86.70304300000001 104.791375,86.298827 104.444483,85.892043 104.091441,85.482339 103.731335,85.069369 103.36325500000001,84.652794 102.986945,84.232991 102.60498,83.811796 102.223208,83.391053 101.845912,82.970541 101.477609,82.550447 101.12274500000001,82.131059 100.78576000000001,81.712876 100.471047,81.296631 100.18287600000001,80.883299 99.925298,80.474105 99.701994,80.070471 99.516088,79.673891 99.369962,79.285652 99.265145,78.90637 99.20232200000001,78.534618 99.181387,78.161274 99.200917,77.77455499999999 99.259818,77.370083 99.35681,76.948023 99.489874,76.509641 99.656198,76.056691 99.852321,75.591028 100.074302,75.114384 100.317883,74.628272 100.578607,74.133956 100.851901,73.632451 101.671932,72.151384 94.432875,69.096042 94.266573,69.44791599999999 88.47615300000001,67.003991 87.82457500000001,67.459591 87.628837,67.595188 87.435585,67.726582 87.244319,67.852992 87.054565,67.973694 86.865848,68.088026 86.677086,68.195742 86.486287,68.297402 86.292407,68.39354 86.095621,68.484058 85.896235,68.568796 85.694558,68.6476 85.490899,68.720323 85.28556900000001,68.786823 85.078879,68.846966 84.871138,68.900625 84.662569,68.947698 84.452515,68.988291 84.239747,69.022899 84.02377200000001,69.052016 83.804586,69.076058 83.582221,69.09545 83.356731,69.110636 83.128186,69.122075 82.89667,69.130246 82.662272,69.135645 82.425085,69.138791 82.185202,69.140218 81.942716,69.14048 81.696364,69.140147 81.696364,109.940148 90.26110800000001,109.940148 91.146364,103.869824 72.246364,103.869824 71.361108,109.940148 58.24771200000001,109.940148 58.109743,107.323995 58.019728,105.656576 57.92564,103.990709 57.825416000000004,102.326551 57.716999,100.664256 57.598321,99.003767 57.467949000000004,97.34414699999999 57.327183000000005,95.684265 57.178056,94.023764 57.022622,92.36249000000001 56.862938,90.70029099999999 56.660696,88.622197 57.257154,87.903546 57.588375,87.50520900000001 57.922342,87.10504900000001 58.259693,86.70304300000001 58.601353,86.298827 58.948245,85.892043 59.301287,85.482339 59.661393000000004,85.069369 60.029473,84.652794 60.405783,84.232991 60.78774800000001,83.811796 61.169520000000006,83.391053 61.54681600000001,82.970541 61.915119000000004,82.550447 62.269983,82.131059 62.606968,81.712876 62.92168100000001,81.296631 63.209852,80.883299 63.46743000000001,80.474105 63.690734000000006,80.070471 63.87664,79.673891 64.022766,79.285652 64.127583,78.90637 64.190406,78.534618 64.211341,78.161274 64.191811,77.77455499999999 64.13291000000001,77.370083 64.03591800000001,76.948023 63.902854000000005,76.509641 63.73653,76.056691 63.540407,75.591028 63.318426,75.114384 63.074845,74.628272 62.814121,74.133956 62.54082700000001,73.632451 61.72079600000001,72.151384 68.95985300000001,69.096042 69.126155,69.44791599999999 74.916575,67.003991 75.568153,67.459591 75.763891,67.595188 75.957143,67.726582 76.148409,67.852992 76.33816300000001,67.973694 76.52688,68.088026 76.715642,68.195742 76.906441,68.297402 77.10032100000001,68.39354 77.29710700000001,68.484058 77.496493,68.568796 77.69817,68.6476 77.901829,68.720323 78.107159,68.786823 78.313849,68.846966 78.52159,68.900625 78.730159,68.947698 78.940213,68.988291 79.15298100000001,69.022899 79.368956,69.052016 79.588142,69.076058 79.810507,69.09545 80.03599700000001,69.110636 80.264542,69.122075 80.496058,69.130246 80.730456,69.135645 80.96764300000001,69.138791 81.207526,69.140218 81.450012,69.14048 81.696364,69.140147 81.696364,109.940148 73.13162,109.940148 72.246364,103.869824" stroke="#1f6fb2" stroke-width="0.1" /><text fill="#0a3d62" font-family="sans-serif" font-size="1.6" text-anchor="middle" x="81.696364" y="88.4720695">02</text></svg>