<?xml version="1.0" encoding="utf-8" ?>
<svg baseProfile="full" height="184.03306700000002cm" version="1.1" viewBox="0 0 166.17388467489502 184.03306700000002" width="166.17388467489502cm" xmlns="http://www.w3.org/2000/svg" xmlns:ev="http://www.w3.org/2001/xml-events" xmlns:xlink="http://www.w3.org/1999/xlink"><defs /><g fill="none" id="CONSTRUCCION" stroke="#888888" stroke-width="0.08"><line x1="5.7" x2="5.7" y1="13.633067" y2="72.233067" /><line x1="49.37679184148636" x2="49.37679184148636" y1="106.033067" y2="94.033067" /><line x1="67.74572467256381" x2="90.74572467256381" y1="52.033066999999996" y2="52.033066999999996" /><line x1="19.6" x2="31.6" y1="119.253067" y2="119.253067" /></g><g fill="none" id="CORTE" stroke="#d00000" stroke-width="0.08"><polygon points="3.0,12.633067 3.0,41.033066999999996 30.7,41.033066999999996 30.7,25.857360999999997 30.100672,25.172342999999998 29.746677,24.768483 29.390684,24.363836 29.03155,23.957849 28.668433,23.550319 28.300496,23.141047999999998 27.926906,22.729844999999997 27.546843,22.316536 27.160414,21.901911 26.771075,21.488083 26.384597,21.076037 26.005541,20.665301 25.638339,20.255467 25.287416999999998,19.846346999999998 24.957145,19.437973 24.651775999999998,19.030609 24.375339999999998,18.624724 24.131521,18.22094 23.923496,17.819888 23.753785999999998,17.421923 23.623387,17.024288 23.5304,16.618925 23.471646,16.199514999999998 23.445508,15.764596000000001 23.450623999999998,15.313914 23.485547999999998,14.847847 23.54861,14.367222 23.63787,13.873137 23.751132,13.366815 23.885973,12.849511 24.039794999999998,12.32245 24.209865,11.78679 24.393345999999998,11.243606999999999 24.587334,10.693886 24.788868,10.138521 25.320404,8.693617 12.274689,3.0 11.604548000000001,3.893731 11.408809,4.155346 11.212994,4.41821 11.017382000000001,4.682529 10.822256,4.948513 10.6279,5.216374999999999 10.434603,5.486328 10.242656,5.758584 10.052355,6.03336 9.863996,6.310871 9.677882,6.5913319999999995 9.494319,6.87496 9.313614999999999,7.161969 9.136242,7.452314 8.963303,7.744457 8.795078,8.035989 8.630749999999999,8.325658 8.469275,8.612676 8.309653,8.896266 8.150927,9.17566 7.992184,9.450102000000001 7.832553,9.718852 7.671203,9.98119 7.507341,10.236425 7.340206,10.483908 7.169058,10.723041 6.993161,10.953306000000001 6.810869,11.175367 6.619404,11.392209 6.41765,11.606558 6.206278,11.819252 5.986212,12.030951 5.7584420000000005,12.242343 5.524011,12.454155 5.322425,12.633067 3.0,12.633067" /><polygon points="34.7,3.233067 34.7,21.233067 74.226023,21.233067 61.927887,3.233067 34.7,3.233067" /><polygon points="102.58801101863354,14.809477 102.29952401863355,14.373410999999999 102.01104501863354,13.936547 101.72252201863354,13.498539 101.43390301863354,13.059039 101.14513701863353,12.617700999999999 100.85618101863355,12.174194000000002 100.56742301863355,11.728803000000001 100.28065601863355,11.282579 99.99839801863354,10.836119000000002 99.72275901863354,10.389370999999999 99.45580601863354,9.942289 99.19958001863354,9.494872 98.95609001863355,9.04716 98.72729701863355,8.599225 98.51510701863354,8.151163 98.32135101863355,7.703075 98.14777201863355,7.255049 97.99601901863355,6.807123000000001 97.86762201863354,6.359195 97.76357001863354,5.909307 97.68312801863354,5.453526 97.62451001863354,4.989656 97.58631901863355,4.517631 97.53506301863354,3.233067 78.33167701863354,3.233067 78.33167701863354,31.033066999999996 103.33167701863354,31.033066999999996 103.33167701863354,15.931755 102.87655701863355,15.245092000000001 102.58801101863354,14.809477" /><polygon points="108.33167701863354,21.233067 145.15770001863353,21.233067 132.85956401863353,3.233067 108.33167701863354,3.233067 108.33167701863354,21.233067" /><polygon points="23.235489,55.83763 23.233947,55.349948999999995 23.248537,54.854966 23.277719,54.353114999999995 23.319895,53.844862 23.373413,53.330687 23.436566,52.811071 23.507604,52.286483999999994 23.584735,51.757377999999996 23.666134,51.224180999999994 23.874323,49.890451999999996 10.971369,44.91156599999999 10.332260999999999,45.345676999999995 10.129432000000001,45.48216599999999 9.929102,45.614464 9.730774,45.741763 9.533968,45.863313 9.33821,45.978424999999994 9.14236,46.086842999999995 8.944410000000001,46.189116999999996 8.743352999999999,46.28575599999999 8.539377,46.376667 8.332785000000001,46.461704999999995 8.123881,46.540729 7.9129700000000005,46.613606 7.700361,46.680206999999996 7.4863610000000005,46.740407999999995 7.271278000000001,46.794093999999994 7.055321,46.84117499999999 6.837843,46.881764 6.617692,46.916351 6.394439,46.945426 6.168087,46.969410999999994 5.938667000000001,46.988738999999995 5.706234,47.003857999999994 5.470855,47.015232 5.232609,47.023343999999994 4.991581,47.02869199999999 4.747859,47.03179599999999 4.501533,47.033187999999996 4.252689,47.03342299999999 4.0,47.033066 4.0,57.033066999999996 23.283189,57.033066999999996 23.235489,55.83763" /><polygon points="32.33946223112721,107.033067 58.16816623112721,107.033067 62.78066723112721,55.58807699999999 62.07432423112721,54.80344399999999 61.65351723112721,54.34130199999999 61.22404123112721,53.880289999999995 60.783844231127205,53.42369299999999 60.33317023112721,52.975854 59.87424823112721,52.538514 59.408073231127204,52.111158999999994 58.935265231127204,51.69291199999999 58.45643323112721,51.282892999999994 57.97217223112721,50.880221 57.48306723112721,50.48401499999999 56.98969423112721,50.093396999999996 56.492614231127206,49.70748999999999 55.99172123112721,49.32492 55.484982231127205,48.944208999999994 54.96990223112721,48.56671299999999 54.44534323112721,48.19535 53.91032823112721,47.833245999999995 53.36382523112721,47.483582999999996 52.804768231127206,47.14961699999999 52.23207323112721,46.834703999999995 51.64467723112721,46.542311 51.04158623112721,46.276044 50.42345523112721,46.040215999999994 49.795374231127205,45.838069999999995 49.16308323112721,45.667044999999995 48.52883123112721,45.52256499999999 47.89416223112721,45.399995999999994 47.26049523112721,45.294836 46.62917923112721,45.202726 46.001547231127205,45.119448999999996 45.28004923112721,45.028453999999996 44.54488823112721,45.082393999999994 43.90414223112721,45.133416 43.25957223112721,45.192859 42.61232523112721,45.264891999999996 41.96355223112721,45.353823 41.31445023112721,45.464096999999995 40.666321231127206,45.600294 40.02073223112721,45.767089999999996 39.38187023112721,45.968335999999994 38.75560423112721,46.203258999999996 38.14423923112721,46.467605999999996 37.54718123112721,46.757867999999995 36.963599231127205,47.070707999999996 36.392611231127205,47.40290099999999 35.833319231127206,47.751326 35.28483823112721,48.112942999999994 34.74631723112721,48.484776999999994 34.21694123112721,48.863904999999995 33.69512223112721,49.248053999999996 33.17790423112721,49.637747 32.66467623112721,50.036213 32.157276231127206,50.445637999999995 31.65791823112721,50.86800099999999 31.168873231127208,51.30531799999999 30.69248723112721,51.759629999999994 30.231199231127206,52.23297899999999 29.787558231127207,52.727377999999995 29.364723231127208,53.244178 28.96837023112721,53.779436 28.59859923112721,54.322652 28.24940123112721,54.86584799999999 27.735925231127208,55.688061999999995 32.33946223112721,107.033067" /><polygon points="66.74572467256381,57.282194 66.7755656725638,57.585173999999995 66.87827167256381,57.923748999999994 67.04505667256382,58.23578199999999 67.26951067256381,58.509280999999994 67.54300967256381,58.733734999999996 67.85504267256381,58.90051999999999 68.1936176725638,59.003226 68.49659767256381,59.033066999999996 89.99485167256381,59.033066999999996 90.2978316725638,59.003226 90.63640667256381,58.90051999999999 90.94843967256381,58.733734999999996 91.22193867256381,58.509280999999994 91.4463926725638,58.23578199999999 91.61317767256381,57.923748999999994 91.7158836725638,57.585173999999995 91.74572467256381,57.282194 91.74572467256381,46.783939999999994 91.7158836725638,46.480959999999996 91.61317767256381,46.142385 91.4463926725638,45.830352 91.22193867256381,45.556853 90.94843967256381,45.332398999999995 90.63640667256381,45.165614 90.2978316725638,45.06290799999999 89.99485167256381,45.033066999999996 68.49659767256381,45.033066999999996 68.1936176725638,45.06290799999999 67.85504267256381,45.165614 67.54300967256381,45.332398999999995 67.26951067256381,45.556853 67.04505667256382,45.830352 66.87827167256381,46.142385 66.7755656725638,46.480959999999996 66.74572467256381,46.783939999999994 66.74572467256381,57.282194" /><polygon points="95.74572467256381,48.682193999999996 95.76787967256381,48.907137 95.84782267256381,49.170674999999996 95.97764367256381,49.41355299999999 96.1523536725638,49.62643799999999 96.3652386725638,49.801148 96.60811667256381,49.930969 96.8716546725638,50.010912 97.0965976725638,50.033066999999996 108.39485167256382,50.033066999999996 108.61979467256381,50.010912 108.88333267256381,49.930969 109.12621067256381,49.801148 109.33909567256381,49.62643799999999 109.5138056725638,49.41355299999999 109.64362667256381,49.170674999999996 109.72356967256381,48.907137 109.74572467256381,48.682193999999996 109.74572467256381,46.383939999999996 109.72356967256381,46.15899699999999 109.64362667256381,45.895458999999995 109.5138056725638,45.652581 109.33909567256381,45.439696 109.12621067256381,45.26498599999999 108.88333267256381,45.13516499999999 108.61979467256381,45.05522199999999 108.39485167256382,45.033066999999996 97.0965976725638,45.033066999999996 96.8716546725638,45.05522199999999 96.60811667256381,45.13516499999999 96.3652386725638,45.26498599999999 96.1523536725638,45.439696 95.97764367256381,45.652581 95.84782267256381,45.895458999999995 95.76787967256381,46.15899699999999 95.74572467256381,46.383939999999996 95.74572467256381,48.682193999999996" /><polygon points="115.52523467256381,51.70606299999999 116.01672467256381,51.795359999999995 116.5082676725638,51.879563 116.99986067256381,51.958670999999995 117.49150167256381,52.032681999999994 117.9831866725638,52.101594999999996 118.47491367256382,52.165409 118.96667967256381,52.224121999999994 119.45848067256381,52.277733999999995 119.9503146725638,52.326243 120.44217867256381,52.369648999999995 120.93406867256381,52.40794999999999 121.42598167256381,52.441145999999996 121.91791467256381,52.469235999999995 122.40986467256381,52.492219 122.90182767256381,52.510096 123.39380167256381,52.522864999999996 123.88578167256381,52.530527 124.37776467256381,52.53308 124.8697476725638,52.530527 125.3617276725638,52.522864999999996 125.85370167256382,52.510096 126.34566467256381,52.492219 126.8376146725638,52.469235999999995 127.3295476725638,52.441145999999996 127.8214606725638,52.40794999999999 128.31335067256381,52.369648999999995 128.8052146725638,52.326243 129.2970486725638,52.277733999999995 129.7888496725638,52.224121999999994 130.2806156725638,52.165409 130.7723426725638,52.101594999999996 131.26402767256383,52.032681999999994 131.75566867256381,51.958670999999995 132.2472616725638,51.879563 132.73880467256382,51.795359999999995 133.23029467256382,51.70606299999999 133.5146436725638,51.65144899999999 135.56636567256382,55.070986 136.62158367256382,54.672003 134.8084916725638,44.851085999999995 133.3346756725638,45.14945899999999 132.8629066725638,45.24007099999999 132.39119267256382,45.325773999999996 131.9195316725638,45.40657099999999 131.4479206725638,45.482462999999996 130.9763576725638,45.55345199999999 130.5048386725638,45.619538999999996 130.0333616725638,45.680724999999995 129.5619236725638,45.73701199999999 129.0905206725638,45.788399999999996 128.61915067256382,45.834891 128.14781067256382,45.876484999999995 127.67649667256381,45.913183999999994 127.2052056725638,45.944987999999995 126.7339346725638,45.971897999999996 126.26268067256382,45.993914999999994 125.79143967256381,46.01103799999999 125.3202096725638,46.02326899999999 124.84898567256381,46.030606999999996 124.37776467256381,46.03305399999999 123.90654367256381,46.030606999999996 123.4353196725638,46.02326899999999 122.96408967256382,46.01103799999999 122.49284867256381,45.993914999999994 122.02159467256381,45.971897999999996 121.5503236725638,45.944987999999995 121.07903267256381,45.913183999999994 120.6077186725638,45.876484999999995 120.13637867256381,45.834891 119.66500867256381,45.788399999999996 119.1936056725638,45.73701199999999 118.72216767256381,45.680724999999995 118.2506906725638,45.619538999999996 117.7791716725638,45.55345199999999 117.30760867256382,45.482462999999996 116.8359976725638,45.40657099999999 116.36433667256381,45.325773999999996 115.8926226725638,45.24007099999999 115.42085367256381,45.14945899999999 114.74572467256381,45.01277999999999 114.74572467256381,51.55335399999999 115.03379967256382,51.611675 115.52523467256381,51.70606299999999" /><polygon points="142.12190967489502,50.175768999999995 142.653444674895,50.246762 143.18500067489504,50.313700999999995 143.71657667489504,50.376585 144.24817267489502,50.435413999999994 144.77978667489504,50.490187999999996 145.31141767489504,50.540907 145.84306467489503,50.587568999999995 146.37472567489502,50.630174 146.90639967489503,50.66872299999999 147.43808567489504,50.70321499999999 147.96978267489501,50.73365 148.50148867489503,50.760026999999994 149.03320267489502,50.782346999999994 149.56492267489503,50.800608999999994 150.09664867489502,50.814811999999996 150.62837867489503,50.824957999999995 151.16011067489504,50.831044999999996 151.69184467489504,50.833073999999996 152.22357867489504,50.831044999999996 152.75531067489501,50.824957999999995 153.28704067489502,50.814811999999996 153.81876667489502,50.800608999999994 154.35048667489502,50.782346999999994 154.88220067489502,50.760026999999994 155.41390667489503,50.73365 155.94560367489504,50.70321499999999 156.47728967489502,50.66872299999999 157.00896367489503,50.630174 157.540624674895,50.587568999999995 158.07227167489503,50.540907 158.60390267489504,50.490187999999996 159.13551667489503,50.435413999999994 159.66711267489504,50.376585 160.19868867489504,50.313700999999995 160.73024467489503,50.246762 161.26177967489502,50.175768999999995 161.79329067489502,50.100722999999995 163.17388467489502,49.895255 163.17388467489502,44.87322699999999 161.50627467489502,45.121410999999995 160.98958167489502,45.194365 160.472912674895,45.263372 159.956264674895,45.328433 159.439636674895,45.389548999999995 158.92302867489502,45.44671999999999 158.406438674895,45.499945999999994 157.88986567489502,45.549226999999995 157.37330867489501,45.594564999999996 156.85676567489503,45.63596 156.340235674895,45.673410999999994 155.82371767489502,45.70691899999999 155.30721067489503,45.736484 154.79071267489502,45.76210699999999 154.27422267489501,45.783787 153.75773867489502,45.801525 153.24126067489502,45.815321999999995 152.72478667489503,45.825176 152.20831467489504,45.831089 151.69184467489504,45.833059999999996 151.175374674895,45.831089 150.65890267489502,45.825176 150.14242867489503,45.815321999999995 149.62595067489502,45.801525 149.10946667489503,45.783787 148.59297667489503,45.76210699999999 148.07647867489501,45.736484 147.55997167489502,45.70691899999999 147.04345367489503,45.673410999999994 146.52692367489502,45.63596 146.01038067489503,45.594564999999996 145.49382367489503,45.549226999999995 144.97725067489503,45.499945999999994 144.46066067489502,45.44671999999999 143.94405267489503,45.389548999999995 143.42742467489504,45.328433 142.91077667489503,45.263372 142.39410767489503,45.194365 141.87741467489502,45.121410999999995 141.20980467489503,45.02205299999999 141.20980467489503,50.044081 141.59039867489503,50.100722999999995 142.12190967489502,50.175768999999995" /><polygon points="3.0,181.03306700000002 11.00722,181.03306700000002 10.601177,124.593135 14.824921999999999,112.027494 12.300661,110.76536300000001 11.604548000000001,111.693731 11.408809,111.955346 11.212994,112.21821 11.017382000000001,112.482529 10.822256,112.748513 10.6279,113.016375 10.434603,113.286328 10.242656,113.558584 10.052355,113.83336 9.863996,114.110871 9.677882,114.391332 9.494319,114.67496 9.313614999999999,114.961969 9.136242,115.252314 8.963303,115.54445700000001 8.795078,115.835989 8.630749999999999,116.125658 8.469275,116.412676 8.309653,116.69626600000001 8.150927,116.97566 7.992184,117.250102 7.832553,117.51885200000001 7.671203,117.78119000000001 7.507341,118.03642500000001 7.340206,118.283908 7.169058,118.523041 6.993161,118.75330600000001 6.810869,118.975367 6.619404,119.192209 6.41765,119.406558 6.206278,119.619252 5.986212,119.830951 5.7584420000000005,120.042343 5.524011,120.254155 5.322425,120.43306700000001 3.0,120.43306700000001 3.0,181.03306700000002" /><polygon points="18.6,122.304972 25.6,126.714972 32.6,122.304972 32.6,111.033067 18.6,111.033067 18.6,122.304972" /></g><g fill="none" id="COSTURA" stroke="#00a000" stroke-width="0.08"><polygon points="29.7,26.233067 29.348061097497954,25.830809414471354 28.9952713434143,25.42832416495193 28.64077988616742,25.025383587450918 28.283735874175697,24.62176001797755 27.923288455857527,24.217225792541026 27.558586779631288,23.811553247150556 27.188779993915375,23.40451471781536 26.813017247128172,22.995882540544653 26.43047431316805,22.585426763854276 26.04222287251688,22.172754551920843 25.652459025196965,21.75720463849469 25.265670587442546,21.338090694908598 24.886345375487853,20.91472639249535 24.518971205567123,20.486425402587745 24.168035893914595,20.052501396518547 23.838027256764505,19.61226804562056 23.533433110351083,19.16503902122656 23.25874127090857,18.71012799466933 23.018439554671197,18.246848637281662 22.817015777873205,17.77451462039634 22.658927279838384,17.29244509894074 22.54606107934321,16.80042169584376 22.4758225335374,16.299032402367665 22.445166809943142,15.788946210682386 22.451049076082626,15.270832112957864 22.49042449947803,14.745359101364034 22.560248247651558,14.213196168070835 22.657475488125385,13.675012305248204 22.779061388421706,13.131476505066075 22.92196111606271,12.583257759694389 23.08312983857059,12.031025061303078 23.25952272346752,11.475447402062086 23.4480949382757,10.917193774141342 23.645801650517317,10.356933169710793 23.84959802771455,9.795334580940363 24.0564392373896,9.233067 12.6,4.233067 12.404929090497925,4.493222276793128 12.21013119131328,4.7535807651639725 12.015879312763497,5.0143456766902474 11.822446465166006,5.275720222949668 11.630105658838232,5.53790761551995 11.439129904097616,5.801111065978808 11.24979221126158,6.065533785903957 11.062365590647557,6.331378986873115 10.877123052572978,6.598849880463993 10.694337607355273,6.86814967825431 10.514282265311873,7.139481591821779 10.337230036760209,7.413048832744115 10.16345393201771,7.689054612599036 9.993226961401806,7.967702142964255 9.826664698734799,8.249072707989892 9.663055385765034,8.532606860644501 9.501416449635176,8.817535420262777 9.340765162176753,9.103089085897977 9.180118795221286,9.388498556603356 9.018494620600304,9.67299453143217 8.854909910145325,9.955807709437675 8.688381935687879,10.236168789673126 8.517927969059487,10.513308471191783 8.342565282091677,10.786457453046896 8.161311146615965,11.054846434291722 7.973182834463885,11.317706113979522 7.777197617466955,11.574267191163548 7.5723811252171265,11.823766977502084 7.358482769196286,12.066015436120248 7.136524699322925,12.30182951241604 6.907658303290262,12.53212840386409 6.673034968791513,12.757831307939018 6.433806083519894,12.97985742211545 6.1911230351686255,13.199125943868006 5.946137211430921,13.416556070671316 5.7,13.633067 4.0,13.633067 4.0,40.033066999999996 29.7,40.033066999999996" /><polygon points="61.4,4.233067 35.7,4.233067 35.7,20.233067 72.33167701863354,20.233067" /><polygon points="102.33167701863354,16.233067 102.04294332188277,15.797439326402566 101.7541608158926,15.36146750789767 101.46528069142359,14.924807399577839 101.17625413923633,14.487114856535614 100.8870323500914,14.048045733863534 100.5975665147494,13.607255886654121 100.3078078239709,13.164401169999925 100.0177074685165,12.719137438993469 99.7272490221329,12.271123066771947 99.43739279464472,11.82009237577016 99.15022523918964,11.365867255367169 98.86789526324574,10.908274451282841 98.59255177429108,10.447140709237045 98.32634367980373,9.98229277494966 98.07141988726174,9.513557394140543 97.82992930414319,9.040761312529574 97.60402083792616,8.563731275836616 97.39584339608868,8.082294029781549 97.20754588610885,7.596276320084238 97.04127721546472,7.105504892464548 96.89918629163435,6.609806492642356 96.78336203399589,6.10901575309847 96.69409008826057,5.603204386473422 96.62958046021768,5.092716994128569 96.58792835619856,4.5779132703500505 96.57416843476997,4.233067 78.33167701863354,4.233067 78.33167701863354,30.033066999999996 102.33167701863354,30.033066999999996" /><polygon points="132.33167701863354,4.233067 108.33167701863354,4.233067 108.33167701863354,20.233067 143.26335403726708,20.233067" /><polygon points="4.0,48.033066999999996 4.252454309213413,48.033423362819065 4.504830862915236,48.03318558954896 4.757051905593878,48.03175954410049 5.0090396817377485,48.02855109038448 5.260716435835259,48.022966092311755 5.512004412374816,48.01441041379313 5.762825855844833,48.00228991873942 6.013103010733716,47.986010471061455 6.2627581215298775,47.96497793467005 6.511713432721726,47.93859817347603 6.7598911887976705,47.906277051390205 7.007213634246121,47.86742043232341 7.253602573437203,47.8214358169067 7.498919757749148,47.76795403197891 7.742906458460016,47.70705394806558 7.985289551814503,47.63886796821591 8.225795914057308,47.56352849547915 8.46415242143313,47.48116793290449 8.700085950186665,47.391918683541164 8.933323376562612,47.29591315043839 9.163591576805668,47.193283736645384 9.390617427160533,47.084162845211374 9.614127803871904,46.96868287918557 9.833898637336457,46.84702184837332 10.05020863974197,46.719825210198586 10.263631491986615,46.58801266117614 10.474744624102566,46.452507383475506 10.684125466121998,46.314232559266244 10.892351448077086,46.174111370717895 11.100000000000001,46.033066999999996 22.761903789690603,50.533066999999996 22.677839511578952,51.071610546663685 22.595680027135952,51.60979439904124 22.517330130030246,52.14725886284652 22.444694613930483,52.683644243793374 22.379678272505316,53.21859084759568 22.324185899423384,53.75173897996729 22.280122288353343,54.282728946622065 22.24939223296384,54.81120105327387 22.233900526923517,55.33679560563656 22.235551963901024,55.859152909424 22.242491416136424,56.033066999999996 4.0,56.033066999999996" /><polygon points="28.761903789690606,55.933066999999994 29.094120290602643,55.40109798576902 29.432659861701115,54.87448106878231 29.78384557317247,54.3585683462841 30.153990600304212,53.85870360320335 30.547072281443963,53.37826837975066 30.961734298510997,52.916163621204106 31.39587934488307,52.470667797519525 31.84741011393792,52.040059378652714 32.314229299053295,51.62261683455949 32.79423959360695,51.216618635195665 33.285343690976624,50.82034325051705 33.78544428454008,50.43206915047945 34.29244406767505,50.05007480503868 34.80452008290286,49.673099052810095 35.321582565300275,49.30278909772424 35.84421667417024,48.941924693123894 36.373009090056804,48.59328814505428 36.90854649350404,48.25966175956062 37.451415565056,47.94382784268812 38.00220298525676,47.648568700482016 38.561495434650354,47.37666663898752 39.12987959378087,47.13090396424986 39.70794214319235,46.91406298231425 40.29622161112199,46.72875022847196 40.894338141987774,46.574219854155835 41.5010876915075,46.44671746814256 42.11523697130204,46.34238192924602 42.73555269299226,46.25735209628009 43.36080156819902,46.187766828058635 43.989750308543194,46.12976498339555 44.62116562564563,46.079485421104714 45.25381423112721,46.033066999999996 45.87321541659728,46.11118585473164 46.4912211806063,46.19318537569293 47.106436101693205,46.28294622911352 47.71746475839694,46.38434908122305 48.322911729256454,46.50127459825117 48.921381592810675,46.63760344642754 49.51147892759856,46.79721629198179 50.09180831215905,46.983993801143576 50.66116343653823,47.2012120005706 51.219695669906244,47.44780605719788 51.768149600161436,47.720814460580506 52.30727230078793,48.01726775319747 52.837810845269864,48.33419647752776 53.360512307091376,48.66863117605036 53.87612375973659,49.017602391244274 54.38539227668966,49.37814066558849 54.88906493143469,49.74727654156199 55.387888797455844,50.122040561643765 55.88249433656607,50.49980862398324 56.372695234730394,50.88037557989048 56.857956013117764,51.26457036277929 57.33773987758073,51.653225801488006 57.81151003397185,52.04717472485499 58.2787296881437,52.44724996171859 58.738862045948835,52.85428434091717 59.191370313239815,53.269110691289065 59.635717695869204,53.692561841672635 60.07136739968957,54.125470620906235 60.49818439132484,54.56818902295252 60.91794912571278,55.018776549199224 61.333012291330775,55.47461023476888 61.74572467256381,55.933066999999994 57.25381423112721,106.033067 33.25381423112721,106.033067" /><polygon points="67.74572467256381,46.83306699999999 67.76109644824123,46.676994742387095 67.80662104655478,46.52692025410792 67.88054898272178,46.388610813584314 67.98003924761457,46.267381575050756 68.10126848614813,46.16789131015796 68.23957792667174,46.09396337399097 68.3896524149509,46.04843877567741 68.54572467256381,46.033066999999996 89.94572467256381,46.033066999999996 90.1017969301767,46.04843877567741 90.25187141845588,46.09396337399097 90.39018085897949,46.16789131015796 90.51141009751305,46.267381575050756 90.61090036240584,46.388610813584314 90.68482829857284,46.52692025410792 90.73035289688639,46.676994742387095 90.74572467256381,46.83306699999999 90.74572467256381,57.233067 90.73035289688639,57.3891392576129 90.68482829857284,57.53921374589206 90.61090036240584,57.67752318641568 90.51141009751305,57.798752424949235 90.39018085897949,57.89824268984203 90.25187141845588,57.972170626009024 90.1017969301767,58.01769522432258 89.94572467256381,58.033066999999996 68.54572467256381,58.033066999999996 68.3896524149509,58.01769522432258 68.23957792667174,57.972170626009024 68.10126848614813,57.89824268984203 67.98003924761457,57.798752424949235 67.88054898272178,57.67752318641568 67.80662104655478,57.53921374589206 67.76109644824123,57.3891392576129 67.74572467256381,57.233067" /><polygon points="96.74572467256381,46.433066999999994 96.75341056040251,46.35503087119354 96.7761728595593,46.27999362705396 96.8131368276428,46.210838906792155 96.8628819600892,46.150224287525376 96.92349657935597,46.10047915507898 96.99265129961778,46.06351518699548 97.06768854375736,46.04075288783871 97.14572467256382,46.033066999999996 108.3457246725638,46.033066999999996 108.42376080137026,46.0407528878387 108.49879804550984,46.06351518699548 108.56795276577165,46.10047915507898 108.62856738503842,46.150224287525376 108.67831251748483,46.210838906792155 108.71527648556832,46.27999362705396 108.7380387847251,46.35503087119354 108.74572467256381,46.433066999999994 108.74572467256381,48.633067 108.7380387847251,48.71110312880645 108.71527648556832,48.78614037294603 108.67831251748483,48.855295093207836 108.62856738503842,48.915909712474615 108.56795276577165,48.96565484492101 108.49879804550984,49.00261881300451 108.42376080137026,49.02538111216129 108.3457246725638,49.033066999999996 97.14572467256382,49.033066999999996 97.06768854375736,49.02538111216129 96.99265129961778,49.00261881300451 96.92349657935597,48.96565484492101 96.8628819600892,48.915909712474615 96.8131368276428,48.855295093207836 96.7761728595593,48.78614037294603 96.75341056040251,48.71110312880645 96.74572467256381,48.633067" /><polygon points="114.74572467256381,46.033066999999996 115.22732667262208,46.13056699999999 115.70892867268037,46.22306699999999 116.19053067273865,46.310567 116.67213267279693,46.393066999999995 117.15373467285521,46.470566999999996 117.6353366729135,46.54306699999999 118.11693867297177,46.610566999999996 118.59854067303004,46.673066999999996 119.08014267308833,46.73056699999999 119.5617446731466,46.783066999999996 120.0433466732049,46.830566999999995 120.52494867326317,46.873067 121.00655067332146,46.91056699999999 121.48815267337973,46.94306699999999 121.96975467343802,46.970566999999996 122.45135667349629,46.993066999999996 122.93295867355457,47.010566999999995 123.41456067361285,47.023067 123.89616267367113,47.030567 124.37776467372942,47.033066999999996 124.85936667378769,47.030567 125.34096867384598,47.023067 125.82257067390425,47.010566999999995 126.30417267396254,46.993066999999996 126.78577467402081,46.970566999999996 127.26737667407909,46.94306699999999 127.74897867413738,46.91056699999999 128.23058067419566,46.873067 128.71218267425394,46.830566999999995 129.1937846743122,46.783066999999996 129.6753866743705,46.73056699999999 130.15698867442876,46.673066999999996 130.63859067448703,46.610566999999996 131.12019267454534,46.54306699999999 131.6017946746036,46.470566999999996 132.08339667466188,46.393066999999995 132.5649986747202,46.310567 133.04660067477846,46.22306699999999 133.52820267483673,46.13056699999999 134.009804674895,46.033066999999996 135.20980467489503,52.533066999999996 134.009804674895,50.533066999999996 133.52820267483673,50.63056699999999 133.04660067477846,50.72306699999999 132.5649986747202,50.810567 132.08339667466188,50.893066999999995 131.6017946746036,50.970566999999996 131.12019267454534,51.04306699999999 130.63859067448703,51.110566999999996 130.15698867442876,51.173066999999996 129.6753866743705,51.23056699999999 129.1937846743122,51.283066999999996 128.71218267425394,51.330566999999995 128.23058067419566,51.373067 127.74897867413738,51.41056699999999 127.26737667407909,51.44306699999999 126.78577467402081,51.470566999999996 126.30417267396254,51.493066999999996 125.82257067390425,51.510566999999995 125.34096867384598,51.523067 124.85936667378769,51.530567 124.37776467372942,51.533066999999996 123.89616267367113,51.530567 123.41456067361285,51.523067 122.93295867355457,51.510566999999995 122.45135667349629,51.493066999999996 121.96975467343802,51.470566999999996 121.48815267337973,51.44306699999999 121.00655067332146,51.41056699999999 120.52494867326317,51.373067 120.0433466732049,51.330566999999995 119.5617446731466,51.283066999999996 119.08014267308833,51.23056699999999 118.59854067303004,51.173066999999996 118.11693867297177,51.110566999999996 117.6353366729135,51.04306699999999 117.15373467285521,50.970566999999996 116.67213267279693,50.893066999999995 116.19053067273865,50.810567 115.70892867268037,50.72306699999999 115.22732667262208,50.63056699999999 114.74572467256381,50.533066999999996" /><polygon points="141.20980467489503,46.033066999999996 141.73390667495332,46.111067 142.25800867501158,46.185067 142.78211067506987,46.255067 143.30621267512814,46.32106699999999 143.83031467518643,46.383067 144.3544166752447,46.441067 144.87851867530298,46.495067 145.40262067536128,46.545066999999996 145.92672267541954,46.591066999999995 146.45082467547783,46.633067 146.9749266755361,46.671066999999994 147.4990286755944,46.70506699999999 148.02313067565268,46.735066999999994 148.54723267571094,46.761067 149.07133467576924,46.783066999999996 149.5954366758275,46.801066999999996 150.1195386758858,46.81506699999999 150.64364067594406,46.825067 151.16774267600235,46.831067 151.69184467606064,46.83306699999999 152.2159466761189,46.831067 152.7400486761772,46.825067 153.26415067623546,46.81506699999999 153.78825267629375,46.801066999999996 154.31235467635202,46.783066999999996 154.8364566764103,46.761067 155.3605586764686,46.735066999999994 155.88466067652686,46.70506699999999 156.40876267658516,46.671066999999994 156.93286467664342,46.633067 157.4569666767017,46.591066999999995 157.98106867676,46.545066999999996 158.50517067681827,46.495067 159.02927267687656,46.441067 159.55337467693482,46.383067 160.07747667699311,46.32106699999999 160.60157867705138,46.255067 161.12568067710967,46.185067 161.64978267716793,46.111067 162.17388467722623,46.033066999999996 162.17388467722623,49.033066999999996 161.64978267716793,49.111067 161.12568067710967,49.185067 160.60157867705138,49.255067 160.07747667699311,49.32106699999999 159.55337467693482,49.383067 159.02927267687656,49.441067 158.50517067681827,49.495067 157.98106867676,49.545066999999996 157.4569666767017,49.591066999999995 156.93286467664342,49.633067 156.40876267658516,49.671066999999994 155.88466067652686,49.70506699999999 155.3605586764686,49.735066999999994 154.8364566764103,49.761067 154.31235467635202,49.783066999999996 153.78825267629375,49.801066999999996 153.26415067623546,49.81506699999999 152.7400486761772,49.825067 152.2159466761189,49.831067 151.69184467606064,49.83306699999999 151.16774267600235,49.831067 150.64364067594406,49.825067 150.1195386758858,49.81506699999999 149.5954366758275,49.801066999999996 149.07133467576924,49.783066999999996 148.54723267571094,49.761067 148.02313067565268,49.735066999999994 147.4990286755944,49.70506699999999 146.9749266755361,49.671066999999994 146.45082467547783,49.633067 145.92672267541954,49.591066999999995 145.40262067536128,49.545066999999996 144.87851867530298,49.495067 144.3544166752447,49.441067 143.83031467518643,49.383067 143.30621267512814,49.32106699999999 142.78211067506987,49.255067 142.25800867501158,49.185067 141.73390667495332,49.111067 141.20980467489503,49.033066999999996" /><polygon points="4.0,121.43306700000001 5.7,121.43306700000001 5.946137211430921,121.21655607067132 6.1911230351686255,120.99912594386801 6.433806083519894,120.77985742211546 6.673034968791513,120.55783130793903 6.907658303290262,120.33212840386409 7.136524699322925,120.10182951241605 7.358482769196286,119.86601543612025 7.5723811252171265,119.62376697750209 7.777197617466955,119.37426719116355 7.973182834463885,119.11770611397952 8.161311146615965,118.85484643429173 8.342565282091677,118.5864574530469 8.517927969059487,118.31330847119179 8.688381935687879,118.03616878967313 8.854909910145325,117.75580770943768 9.018494620600304,117.47299453143218 9.180118795221286,117.18849855660336 9.340765162176753,116.90308908589797 9.501416449635176,116.61753542026278 9.663055385765034,116.3326068606445 9.826664698734799,116.0490727079899 9.993226961401806,115.76770214296425 10.16345393201771,115.48905461259903 10.337230036760209,115.21304883274412 10.514282265311873,114.93948159182179 10.694337607355273,114.66814967825431 10.877123052572978,114.398849880464 11.062365590647557,114.13137898687312 11.24979221126158,113.86553378590396 11.439129904097616,113.60111106597881 11.630105658838232,113.33790761551995 11.822446465166006,113.07572022294967 12.015879312763497,112.81434567669025 12.21013119131328,112.55358076516397 12.404929090497925,112.29322227679313 12.6,112.033067 13.6,112.533067 9.600000000000001,124.43306700000001 10.0,180.03306700000002 4.0,180.03306700000002" /><polygon points="19.6,112.033067 31.6,112.033067 31.6,121.753067 25.6,125.533067 19.6,121.753067" /></g><g fill="none" id="PIQUETES" stroke="#00b0b0" stroke-width="0.08"><line x1="22.25854069473472" x2="22.101354590815404" y1="15.7786537664548" y2="16.405465164512194" /><line x1="22.64746273369311" x2="22.101354590815404" y1="16.05997146517361" y2="16.405465164512194" /><line x1="29.902461849244258" x2="29.377808290758875" y1="46.804190316303554" y2="46.426912376889355" /><line x1="29.49753815075574" x2="29.377808290758875" y1="47.06194368369645" y2="46.426912376889355" /><line x1="87.21592342221695" x2="87.54750502134891" y1="4.270899917858863" y2="4.825565261212029" /><line x1="87.68992203118657" x2="87.54750502134891" y1="4.195234082141138" y2="4.825565261212029" /><line x1="13.36032306347002" x2="13.068685139787561" y1="56.012042772687735" y2="55.43537361149548" /><line x1="12.882168352666405" x2="13.068685139787561" y1="56.054091227312256" y2="55.43537361149548" /><line x1="53.11327557532029" x2="53.1721152952529" y1="48.58914456343898" y2="49.23268002272483" /><line x1="53.573324780326416" x2="53.1721152952529" y1="48.72609246949534" y2="49.23268002272483" /><line x1="36.538244203656255" x2="36.94304932039886" y1="48.41746799331071" y2="48.92118697990839" /><line x1="36.99730698523883" x2="36.94304932039886" y1="48.277249012549646" y2="48.92118697990839" /><line x1="35.21239064068058" x2="35.6436232145085" y1="49.30483802525197" y2="49.78612636634258" /><line x1="35.66327434455767" x2="35.6436232145085" y1="49.14020544774047" y2="49.78612636634258" /></g><g fill="none" id="TEXTOS" stroke="#000000" stroke-width="0.08"><text fill="#000000" font-family="sans-serif" font-size="0.9" stroke="none" text-anchor="middle" x="15.806960990880722" y="22.407471487051385">DELANTERO TALLE</text><text fill="#000000" font-family="sans-serif" font-size="0.6" stroke="none" text-anchor="middle" x="15.806960990880722" y="23.807471487051384">Pieza N.01</text><text fill="#000000" font-family="sans-serif" font-size="0.6" stroke="none" text-anchor="middle" x="15.806960990880722" y="25.207471487051386">Talla: S</text><text fill="#000000" font-family="sans-serif" font-size="0.6" stroke="none" text-anchor="middle" x="15.806960990880722" y="26.607471487051384">Cortar: 2  (par: izq + der)</text><text fill="#000000" font-family="sans-serif" font-size="0.9" stroke="none" text-anchor="middle" x="51.44268494704728" y="10.00074475408387">DELANTERO PEPLUM</text><text fill="#000000" font-family="sans-serif" font-size="0.6" stroke="none" text-anchor="middle" x="51.44268494704728" y="11.400744754083869">Pieza N.31</text><text fill="#000000" font-family="sans-serif" font-size="0.6" stroke="none" text-anchor="middle" x="51.44268494704728" y="12.800744754083867">Talla: S</text><text fill="#000000" font-family="sans-serif" font-size="0.6" stroke="none" text-anchor="middle" x="51.44268494704728" y="14.200744754083866">Cortar: 2  (par: izq + der)</text><text fill="#000000" font-family="sans-serif" font-size="0.9" stroke="none" text-anchor="middle" x="89.61352811068026" y="14.167893343009487">ESPALDA TALLE</text><text fill="#000000" font-family="sans-serif" font-size="0.6" stroke="none" text-anchor="middle" x="89.61352811068026" y="15.567893343009485">Pieza N.02</text><text fill="#000000" font-family="sans-serif" font-size="0.6" stroke="none" text-anchor="middle" x="89.61352811068026" y="16.967893343009486">Talla: S</text><text fill="#000000" font-family="sans-serif" font-size="0.6" stroke="none" text-anchor="middle" x="89.61352811068026" y="18.367893343009484">Cortar: 1  (al doblez)</text><text fill="#000000" font-family="sans-serif" font-size="0.6" stroke="none" text-anchor="middle" x="89.61352811068026" y="19.767893343009483">AL DOBLEZ</text><text fill="#000000" font-family="sans-serif" font-size="0.9" stroke="none" text-anchor="middle" x="123.2335794762219" y="9.127726921304104">ESPALDA PEPLUM</text><text fill="#000000" font-family="sans-serif" font-size="0.6" stroke="none" text-anchor="middle" x="123.2335794762219" y="10.527726921304103">Pieza N.32</text><text fill="#000000" font-family="sans-serif" font-size="0.6" stroke="none" text-anchor="middle" x="123.2335794762219" y="11.927726921304101">Talla: S</text><text fill="#000000" font-family="sans-serif" font-size="0.6" stroke="none" text-anchor="middle" x="123.2335794762219" y="13.3277269213041">Cortar: 1  (al doblez)</text><text fill="#000000" font-family="sans-serif" font-size="0.6" stroke="none" text-anchor="middle" x="123.2335794762219" y="14.727726921304106">AL DOBLEZ</text><text fill="#000000" font-family="sans-serif" font-size="0.9" stroke="none" text-anchor="middle" x="12.757903032649189" y="48.30130963961699">CANESU</text><text fill="#000000" font-family="sans-serif" font-size="0.6" stroke="none" text-anchor="middle" x="12.757903032649189" y="49.70130963961699">Pieza N.03</text><text fill="#000000" font-family="sans-serif" font-size="0.6" stroke="none" text-anchor="middle" x="12.757903032649189" y="51.101309639616986">Talla: S</text><text fill="#000000" font-family="sans-serif" font-size="0.6" stroke="none" text-anchor="middle" x="12.757903032649189" y="52.501309639616984">Cortar: 2  (al doblez x2 (exterior+interior))</text><text fill="#000000" font-family="sans-serif" font-size="0.6" stroke="none" text-anchor="middle" x="12.757903032649189" y="53.90130963961699">AL DOBLEZ</text><text fill="#000000" font-family="sans-serif" font-size="0.9" stroke="none" text-anchor="middle" x="45.20901577036907" y="73.28312631505307">MANGA</text><text fill="#000000" font-family="sans-serif" font-size="0.6" stroke="none" text-anchor="middle" x="45.20901577036907" y="74.68312631505306">Pieza N.04</text><text fill="#000000" font-family="sans-serif" font-size="0.6" stroke="none" text-anchor="middle" x="45.20901577036907" y="76.08312631505306">Talla: S</text><text fill="#000000" font-family="sans-serif" font-size="0.6" stroke="none" text-anchor="middle" x="45.20901577036907" y="77.48312631505306">Cortar: 2  (par: izq + der)</text><text fill="#000000" font-family="sans-serif" font-size="0.9" stroke="none" text-anchor="middle" x="79.24572467256381" y="49.333067">PUNO</text><text fill="#000000" font-family="sans-serif" font-size="0.6" stroke="none" text-anchor="middle" x="79.24572467256381" y="50.733067">Pieza N.05</text><text fill="#000000" font-family="sans-serif" font-size="0.6" stroke="none" text-anchor="middle" x="79.24572467256381" y="52.133067">Talla: S</text><text fill="#000000" font-family="sans-serif" font-size="0.6" stroke="none" text-anchor="middle" x="79.24572467256381" y="53.533066999999996">Cortar: 4  (4 (2 tela + 2 entretela))</text><text fill="#000000" font-family="sans-serif" font-size="0.9" stroke="none" text-anchor="middle" x="102.74572467256381" y="44.83306699999999">TAPETA MANGA</text><text fill="#000000" font-family="sans-serif" font-size="0.6" stroke="none" text-anchor="middle" x="102.74572467256381" y="46.23306699999999">Pieza N.06</text><text fill="#000000" font-family="sans-serif" font-size="0.6" stroke="none" text-anchor="middle" x="102.74572467256381" y="47.633067">Talla: S</text><text fill="#000000" font-family="sans-serif" font-size="0.6" stroke="none" text-anchor="middle" x="102.74572467256381" y="49.033066999999996">Cortar: 2  (par)</text><text fill="#000000" font-family="sans-serif" font-size="0.9" stroke="none" text-anchor="middle" x="124.68078520123397" y="45.37198354181553">CUELLO</text><text fill="#000000" font-family="sans-serif" font-size="0.6" stroke="none" text-anchor="middle" x="124.68078520123397" y="46.77198354181553">Pieza N.07</text><text fill="#000000" font-family="sans-serif" font-size="0.6" stroke="none" text-anchor="middle" x="124.68078520123397" y="48.17198354181553">Talla: S</text><text fill="#000000" font-family="sans-serif" font-size="0.6" stroke="none" text-anchor="middle" x="124.68078520123397" y="49.57198354181553">Cortar: 2  (al doblez x2 (+ entretela))</text><text fill="#000000" font-family="sans-serif" font-size="0.6" stroke="none" text-anchor="middle" x="124.68078520123397" y="50.97198354181553">AL DOBLEZ</text><text fill="#000000" font-family="sans-serif" font-size="0.9" stroke="none" text-anchor="middle" x="151.69184467606064" y="44.466066999999995">PIE DE CUELLO</text><text fill="#000000" font-family="sans-serif" font-size="0.6" stroke="none" text-anchor="middle" x="151.69184467606064" y="45.866066999999994">Pieza N.08</text><text fill="#000000" font-family="sans-serif" font-size="0.6" stroke="none" text-anchor="middle" x="151.69184467606064" y="47.266067">Talla: S</text><text fill="#000000" font-family="sans-serif" font-size="0.6" stroke="none" text-anchor="middle" x="151.69184467606064" y="48.666067">Cortar: 2  (al doblez x2 (+ entretela))</text><text fill="#000000" font-family="sans-serif" font-size="0.6" stroke="none" text-anchor="middle" x="151.69184467606064" y="50.066067">AL DOBLEZ</text><text fill="#000000" font-family="sans-serif" font-size="0.9" stroke="none" text-anchor="middle" x="7.150212866252476" y="145.8976551491815">VISTA DELANTERA</text><text fill="#000000" font-family="sans-serif" font-size="0.6" stroke="none" text-anchor="middle" x="7.150212866252476" y="147.2976551491815">Pieza N.09</text><text fill="#000000" font-family="sans-serif" font-size="0.6" stroke="none" text-anchor="middle" x="7.150212866252476" y="148.69765514918151">Talla: S</text><text fill="#000000" font-family="sans-serif" font-size="0.6" stroke="none" text-anchor="middle" x="7.150212866252476" y="150.0976551491815">Cortar: 2  (par: izq + der)</text><text fill="#000000" font-family="sans-serif" font-size="0.9" stroke="none" text-anchor="middle" x="25.6" y="115.18934606976744">BOLSILLO</text><text fill="#000000" font-family="sans-serif" font-size="0.6" stroke="none" text-anchor="middle" x="25.6" y="116.58934606976744">Pieza N.10</text><text fill="#000000" font-family="sans-serif" font-size="0.6" stroke="none" text-anchor="middle" x="25.6" y="117.98934606976745">Talla: S</text><text fill="#000000" font-family="sans-serif" font-size="0.6" stroke="none" text-anchor="middle" x="25.6" y="119.38934606976744">Cortar: 1  (1 (opcional))</text></g><g fill="none" id="CENTROS" stroke="#0050ff" stroke-width="0.08"><circle cx="18.9" cy="29.233067" fill="#0050ff" r="0.15" /><circle cx="49.37679184148636" cy="94.033067" fill="#0050ff" r="0.15" /></g><g fill="none" id="HILO" stroke="#c0a000" stroke-width="0.08"><line x1="17.7" x2="17.7" y1="16.633067" y2="69.233067" /><line x1="17.7" x2="18.167302010770378" y1="69.233067" y2="68.12779380719654" /><line x1="17.7" x2="17.232697989229617" y1="69.233067" y2="68.12779380719654" /><line x1="17.7" x2="17.23269798922962" y1="16.633067" y2="17.738340192803463" /><line x1="17.7" x2="18.167302010770378" y1="16.633067" y2="17.738340192803463" /><line x1="39.4" x2="39.4" y1="6.233067" y2="18.233067" /><line x1="39.4" x2="39.86730201077038" y1="18.233067" y2="17.12779380719654" /><line x1="39.4" x2="38.93269798922962" y1="18.233067" y2="17.12779380719654" /><line x1="39.4" x2="38.93269798922962" y1="6.233067" y2="7.338340192803459" /><line x1="39.4" x2="39.86730201077038" y1="6.233067" y2="7.338340192803459" /><line x1="78.83167701863354" x2="78.83167701863354" y1="7.233067" y2="59.233067" /><line x1="78.83167701863354" x2="79.29897902940392" y1="59.233067" y2="58.12779380719654" /><line x1="78.83167701863354" x2="78.36437500786316" y1="59.233067" y2="58.12779380719654" /><line x1="78.83167701863354" x2="78.36437500786316" y1="7.233067" y2="8.338340192803463" /><line x1="78.83167701863354" x2="79.29897902940392" y1="7.233067" y2="8.338340192803463" /><line x1="110.33167701863354" x2="110.33167701863354" y1="6.233067" y2="18.233067" /><line x1="110.33167701863354" x2="110.79897902940392" y1="18.233067" y2="17.12779380719654" /><line x1="110.33167701863354" x2="109.86437500786316" y1="18.233067" y2="17.12779380719654" /><line x1="110.33167701863354" x2="109.86437500786316" y1="6.233067" y2="7.338340192803459" /><line x1="110.33167701863354" x2="110.79897902940392" y1="6.233067" y2="7.338340192803459" /><line x1="8.26" x2="8.26" y1="47.033066999999996" y2="55.533066999999996" /><line x1="8.26" x2="8.72730201077038" y1="55.533066999999996" y2="54.42779380719653" /><line x1="8.26" x2="7.792697989229619" y1="55.533066999999996" y2="54.42779380719653" /><line x1="8.26" x2="7.7926979892296195" y1="47.033066999999996" y2="48.138340192803454" /><line x1="8.26" x2="8.72730201077038" y1="47.033066999999996" y2="48.138340192803454" /><line x1="45.25381423112721" x2="45.25381423112721" y1="49.993066999999996" y2="104.033067" /><line x1="45.25381423112721" x2="45.72111624189759" y1="104.033067" y2="102.92779380719654" /><line x1="45.25381423112721" x2="44.786512220356826" y1="104.033067" y2="102.92779380719654" /><line x1="45.25381423112721" x2="44.786512220356826" y1="49.993066999999996" y2="51.098340192803455" /><line x1="45.25381423112721" x2="45.72111624189759" y1="49.993066999999996" y2="51.098340192803455" /><line x1="79.24572467256381" x2="79.24572467256381" y1="46.533066999999996" y2="57.533066999999996" /><line x1="79.24572467256381" x2="79.71302668333419" y1="57.533066999999996" y2="56.42779380719653" /><line x1="79.24572467256381" x2="78.77842266179343" y1="57.533066999999996" y2="56.42779380719653" /><line x1="79.24572467256381" x2="78.77842266179343" y1="46.533066999999996" y2="47.638340192803454" /><line x1="79.24572467256381" x2="79.71302668333419" y1="46.533066999999996" y2="47.638340192803454" /><line x1="102.74572467256381" x2="102.74572467256381" y1="46.433066999999994" y2="48.633067" /><line x1="102.74572467256381" x2="103.21302668333419" y1="48.633067" y2="47.52779380719653" /><line x1="102.74572467256381" x2="102.27842266179343" y1="48.633067" y2="47.52779380719653" /><line x1="102.74572467256381" x2="102.27842266179343" y1="46.433066999999994" y2="47.53834019280346" /><line x1="102.74572467256381" x2="103.21302668333419" y1="46.433066999999994" y2="47.53834019280346" /><line x1="115.24572467256381" x2="133.509804674895" y1="46.533066999999996" y2="46.533066999999996" /><line x1="133.509804674895" x2="132.40453148209156" y1="46.533066999999996" y2="46.06576498922961" /><line x1="133.509804674895" x2="132.40453148209156" y1="46.533066999999996" y2="47.00036901077038" /><line x1="115.24572467256381" x2="116.35099786536728" y1="46.533066999999996" y2="47.00036901077038" /><line x1="115.24572467256381" x2="116.35099786536728" y1="46.533066999999996" y2="46.06576498922961" /><line x1="141.70980467489503" x2="161.67388467722623" y1="46.433066999999994" y2="46.433066999999994" /><line x1="161.67388467722623" x2="160.56861148442277" y1="46.433066999999994" y2="45.96576498922961" /><line x1="161.67388467722623" x2="160.56861148442277" y1="46.433066999999994" y2="46.900369010770376" /><line x1="141.70980467489503" x2="142.81507786769848" y1="46.433066999999994" y2="46.900369010770376" /><line x1="141.70980467489503" x2="142.81507786769848" y1="46.433066999999994" y2="45.96576498922961" /><line x1="7.0" x2="7.0" y1="126.43306700000001" y2="177.03306700000002" /><line x1="7.0" x2="7.467302010770381" y1="177.03306700000002" y2="175.92779380719654" /><line x1="7.0" x2="6.532697989229619" y1="177.03306700000002" y2="175.92779380719654" /><line x1="7.0" x2="6.53269798922962" y1="126.43306700000001" y2="127.53834019280346" /><line x1="7.0" x2="7.46730201077038" y1="126.43306700000001" y2="127.53834019280346" /><line x1="25.6" x2="25.6" y1="113.033067" y2="121.753067" /><line x1="25.6" x2="26.06730201077038" y1="121.753067" y2="120.64779380719654" /><line x1="25.6" x2="25.13269798922962" y1="121.753067" y2="120.64779380719654" /><line x1="25.6" x2="25.13269798922962" y1="113.033067" y2="114.13834019280347" /><line x1="25.6" x2="26.06730201077038" y1="113.033067" y2="114.13834019280347" /></g><g fill="none" id="DOBLEZ" stroke="#c000c0" stroke-width="0.08"><line x1="78.33167701863354" x2="78.33167701863354" y1="4.233067" y2="30.033066999999996" /><line x1="108.33167701863354" x2="108.33167701863354" y1="4.233067" y2="20.233067" /><line x1="4.0" x2="4.0" y1="46.033066999999996" y2="56.033066999999996" /><line x1="114.74572467256381" x2="114.74572467256381" y1="46.033066999999996" y2="52.533066999999996" /><line x1="141.20980467489503" x2="141.20980467489503" y1="46.033066999999996" y2="49.83306699999999" /></g><g fill="none" id="BOTONES" stroke="#ff8000" stroke-width="0.08"><circle cx="5.7" cy="15.133067" fill="#ff8000" r="0.55" /><circle cx="5.7" cy="23.649733666666666" fill="#ff8000" r="0.55" /><circle cx="5.7" cy="32.166400333333335" fill="#ff8000" r="0.55" /><circle cx="5.7" cy="40.683067" fill="#ff8000" r="0.55" /><circle cx="5.7" cy="49.19973366666667" fill="#ff8000" r="0.55" /><circle cx="5.7" cy="57.71640033333333" fill="#ff8000" r="0.55" /><circle cx="5.7" cy="66.233067" fill="#ff8000" r="0.55" /><circle cx="68.94572467256381" cy="52.033066999999996" fill="#ff8000" r="0.55" /><circle cx="161.17388467722623" cy="47.533066999999996" fill="#ff8000" r="0.55" /></g><g fill="none" id="OJAL" stroke="#ff40a0" stroke-width="0.08"><line x1="4.9" x2="6.5" y1="15.133067" y2="15.133067" /><line x1="4.9" x2="6.5" y1="23.649733666666666" y2="23.649733666666666" /><line x1="4.9" x2="6.5" y1="32.166400333333335" y2="32.166400333333335" /><line x1="4.9" x2="6.5" y1="40.683067" y2="40.683067" /><line x1="4.9" x2="6.5" y1="49.19973366666667" y2="49.19973366666667" /><line x1="4.9" x2="6.5" y1="57.71640033333333" y2="57.71640033333333" /><line x1="4.9" x2="6.5" y1="66.233067" y2="66.233067" /><line x1="89.54572467256381" x2="89.54572467256381" y1="51.233067" y2="52.83306699999999" /></g><g fill="none" id="REFERENCIAS" stroke="#b0b0b0" stroke-width="0.08"><text fill="#000000" font-family="sans-serif" font-size="0.5" stroke="none" text-anchor="start" x="5.7" y="12.633067">CF</text><text fill="#000000" font-family="sans-serif" font-size="0.5" stroke="none" text-anchor="start" x="78.63167701863354" y="33.233067">CB</text><text fill="#000000" font-family="sans-serif" font-size="0.5" stroke="none" text-anchor="start" x="79.24572467256381" y="51.233067">DOBLEZ</text><text fill="#000000" font-family="sans-serif" font-size="0.5" stroke="none" text-anchor="start" x="25.6" y="113.533067">boca</text></g></svg>