<?xml version="1.0" encoding="utf-8" ?>
<svg baseProfile="full" height="150.233067cm" version="1.1" viewBox="0 0 171.05536667256382 150.233067" width="171.05536667256382cm" xmlns="http://www.w3.org/2000/svg" xmlns:ev="http://www.w3.org/2001/xml-events" xmlns:xlink="http://www.w3.org/1999/xlink"><defs /><g fill="none" id="CONSTRUCCION" stroke="#888888" stroke-width="0.08"><line x1="20.309642" x2="20.309642" y1="13.633067" y2="72.233067" /><line x1="125.68643384148635" x2="125.68643384148635" y1="64.233067" y2="52.233067" /><line x1="144.05536667256382" x2="167.05536667256382" y1="10.233067" y2="10.233067" /><line x1="91.3378020046624" x2="103.3378020046624" y1="85.453067" y2="85.453067" /></g><g fill="none" id="CORTE" stroke="#d00000" stroke-width="0.08"><polygon points="45.309642,73.233067 45.309642,25.857360999999997 44.70971,25.171653999999997 44.356319,24.768483 44.000326,24.363836 43.641192000000004,23.957849 43.278075,23.550319 42.910138,23.141047999999998 42.536547999999996,22.729844999999997 42.156485,22.316536 41.770056,21.901911 41.380717000000004,21.488083 40.99423899999999,21.076037 40.615183,20.665301 40.247980999999996,20.255467 39.897059,19.846346999999998 39.566787000000005,19.437973 39.26141799999999,19.030609 38.984982,18.624724 38.741163,18.22094 38.533137999999994,17.819888 38.363428,17.421923 38.233029,17.024288 38.140041999999994,16.618925 38.081288,16.199514999999998 38.05515,15.764596000000001 38.060266,15.313914 38.09519,14.847847 38.158252000000005,14.367222 38.247512,13.873137 38.36077399999999,13.366815 38.495615,12.849511 38.64943699999999,12.32245 38.819507,11.78679 39.002988,11.243606999999999 39.19697599999999,10.693886 39.39851,10.138521 39.930046000000004,8.693617 26.884331,3.0 26.21419,3.893731 26.018451,4.155346 25.822636,4.41821 25.627024000000002,4.682529 25.431898,4.948513 25.237542,5.216374999999999 25.044245,5.486328 24.852298,5.758584 24.661997,6.03336 24.473638,6.310871 24.287524,6.5913319999999995 24.103961,6.87496 23.923257,7.161969 23.745884,7.452314 23.572945,7.744457 23.40472,8.035989 23.240392,8.325658 23.078917,8.612676 22.919295,8.896266 22.760569,9.17566 22.601826,9.450102000000001 22.442195,9.718852 22.280845,9.98119 22.116983,10.236425 21.949848,10.483908 21.7787,10.723041 21.602803,10.953306000000001 21.420511,11.175367 21.229046,11.392209 21.027292,11.606558 20.815920000000002,11.819252 20.595854,12.030951 20.368084,12.242343 20.133653000000002,12.454155 19.893643,12.667169 19.423958,13.080321 3.0,73.233067 45.309642,73.233067" /><polygon points="75.309642,15.931755 74.854522,15.245092000000001 74.56597599999999,14.809477 74.277489,14.373410999999999 73.98901,13.936547 73.700487,13.498539 73.411868,13.059039 73.12310199999999,12.617700999999999 72.834146,12.174194000000002 72.545388,11.728803000000001 72.258621,11.282579 71.97636299999999,10.836119000000002 71.700724,10.389370999999999 71.433771,9.942289 71.177545,9.494872 70.934055,9.04716 70.705262,8.599225 70.493072,8.151163 70.299316,7.703075 70.125737,7.255049 69.973984,6.807123000000001 69.845587,6.359195 69.741535,5.909307 69.661093,5.453526 69.602475,4.989656 69.564284,4.517631 69.51302799999999,3.233067 50.309642,3.233067 50.309642,63.233067 75.309642,63.233067 75.309642,15.931755" /><polygon points="99.545131,14.03763 99.543589,13.549949 99.558179,13.054966 99.587361,12.553115 99.629537,12.044862 99.683055,11.530687 99.746208,11.011071 99.817246,10.486484 99.89437699999999,9.957378 99.975776,9.424181 100.183965,8.090451999999999 87.28101099999999,3.111566 86.641903,3.545677 86.43907399999999,3.682166 86.238744,3.814464 86.040416,3.941763 85.84361,4.063313 85.647852,4.178425 85.452002,4.286843 85.254052,4.389117 85.052995,4.485756 84.849019,4.5766670000000005 84.642427,4.6617049999999995 84.433523,4.740729 84.222612,4.813606 84.010003,4.880207 83.796003,4.940408 83.58091999999999,4.9940940000000005 83.364963,5.041175 83.147485,5.081764 82.927334,5.116351 82.704081,5.1454260000000005 82.477729,5.169411 82.24830899999999,5.188739 82.01587599999999,5.203858 81.780497,5.215232 81.542251,5.223344 81.301223,5.228692 81.057501,5.231796 80.81117499999999,5.233188 80.562331,5.233423 80.309642,5.233066 80.309642,15.233067 99.59283099999999,15.233067 99.545131,14.03763" /><polygon points="108.64910423112721,65.233067 134.4778082311272,65.233067 139.0903092311272,13.788077 138.3839662311272,13.003444 137.9631592311272,12.541302 137.5336832311272,12.08029 137.0934862311272,11.623693 136.6428122311272,11.175854 136.1838902311272,10.738514 135.71771523112722,10.311159 135.2449072311272,9.892911999999999 134.76607523112722,9.482893 134.2818142311272,9.080221 133.79270923112722,8.684015 133.2993362311272,8.293397 132.80225623112722,7.90749 132.3013632311272,7.52492 131.79462423112722,7.144209 131.2795442311272,6.766713 130.7549852311272,6.39535 130.2199702311272,6.033246 129.6734672311272,5.683583 129.1144102311272,5.349617 128.5417152311272,5.034704 127.9543192311272,4.742311 127.35122823112721,4.476044 126.7330972311272,4.240216 126.10501623112721,4.038069999999999 125.4727252311272,3.867045 124.83847323112721,3.722565 124.20380423112721,3.599996 123.5701372311272,3.494836 122.9388212311272,3.402726 122.3111892311272,3.3194489999999996 121.5896912311272,3.228454 120.8545302311272,3.282394 120.2137842311272,3.3334159999999997 119.5692142311272,3.392859 118.92196723112721,3.464892 118.2731942311272,3.553823 117.62409223112721,3.664097 116.97596323112721,3.800294 116.33037423112721,3.96709 115.6915122311272,4.168336 115.0652462311272,4.403259 114.4538812311272,4.667606 113.85682323112721,4.9578679999999995 113.2732412311272,5.270708 112.7022532311272,5.602901 112.1429612311272,5.951326 111.5944802311272,6.312943 111.0559592311272,6.6847769999999995 110.5265832311272,7.063905 110.00476423112721,7.448054 109.4875462311272,7.837747 108.9743182311272,8.236213 108.46691823112721,8.645638 107.96756023112721,9.068000999999999 107.4785152311272,9.505317999999999 107.0021292311272,9.95963 106.5408412311272,10.432979 106.0972002311272,10.927378000000001 105.67436523112721,11.444177999999999 105.2780122311272,11.979436 104.9082412311272,12.522652 104.5590432311272,13.065848 104.04556723112721,13.888062 108.64910423112721,65.233067" /><polygon points="143.05536667256382,15.482194 143.08520767256383,15.785174 143.1879136725638,16.123749 143.3546986725638,16.435782 143.57915267256382,16.709281 143.8526516725638,16.933735 144.16468467256382,17.10052 144.50325967256381,17.203226 144.80623967256383,17.233067 166.3044936725638,17.233067 166.60747367256383,17.203226 166.94604867256382,17.10052 167.25808167256383,16.933735 167.53158067256382,16.709281 167.75603467256383,16.435782 167.92281967256383,16.123749 168.02552567256382,15.785174 168.05536667256382,15.482194 168.05536667256382,4.9839400000000005 168.02552567256382,4.68096 167.92281967256383,4.342385 167.75603467256383,4.030352 167.53158067256382,3.756853 167.25808167256383,3.532399 166.94604867256382,3.365614 166.60747367256383,3.262908 166.3044936725638,3.233067 144.80623967256383,3.233067 144.50325967256381,3.262908 144.16468467256382,3.365614 143.8526516725638,3.532399 143.57915267256382,3.756853 143.3546986725638,4.030352 143.1879136725638,4.342385 143.08520767256383,4.68096 143.05536667256382,4.9839400000000005 143.05536667256382,15.482194" /><polygon points="3.309642,80.882194 3.3317970000000003,81.10713700000001 3.41174,81.370675 3.541561,81.61355300000001 3.7162710000000003,81.82643800000001 3.9291560000000003,82.001148 4.172034,82.13096900000001 4.4355720000000005,82.21091200000001 4.660515,82.233067 15.958769,82.233067 16.183712,82.21091200000001 16.44725,82.13096900000001 16.690128,82.001148 16.903013,81.82643800000001 17.077723,81.61355300000001 17.207544,81.370675 17.287487,81.10713700000001 17.309642,80.882194 17.309642,78.58394000000001 17.287487,78.358997 17.207544,78.095459 17.077723,77.852581 16.903013,77.639696 16.690128,77.46498600000001 16.44725,77.335165 16.183712,77.255222 15.958769,77.233067 4.660515,77.233067 4.4355720000000005,77.255222 4.172034,77.335165 3.9291560000000003,77.46498600000001 3.7162710000000003,77.639696 3.541561,77.852581 3.41174,78.095459 3.3317970000000003,78.358997 3.309642,78.58394000000001 3.309642,80.882194" /><polygon points="23.089152,83.906063 23.580642,83.99536 24.072185,84.07956300000001 24.563778,84.158671 25.055419,84.23268200000001 25.547104,84.301595 26.038831,84.365409 26.530597,84.42412200000001 27.022398,84.477734 27.514232,84.52624300000001 28.006096,84.569649 28.497986,84.60795 28.989899,84.641146 29.481832,84.66923600000001 29.973782,84.69221900000001 30.465745000000002,84.71009600000001 30.957719,84.72286500000001 31.449699,84.73052700000001 31.941682,84.73308 32.433665000000005,84.73052700000001 32.925645,84.72286500000001 33.417619,84.71009600000001 33.909582,84.69221900000001 34.401532,84.66923600000001 34.893465000000006,84.641146 35.385378,84.60795 35.877268,84.569649 36.36913199999999,84.52624300000001 36.860966000000005,84.477734 37.352767,84.42412200000001 37.844533,84.365409 38.336259999999996,84.301595 38.827945,84.23268200000001 39.319586,84.158671 39.811178999999996,84.07956300000001 40.302722,83.99536 40.794212,83.906063 41.07856099999999,83.851449 43.13028299999999,87.27098600000001 44.185501,86.872003 42.372409000000005,77.05108600000001 40.898593000000005,77.34945900000001 40.426823999999996,77.440071 39.955110000000005,77.52577400000001 39.48344899999999,77.606571 39.011838,77.682463 38.540274999999994,77.75345200000001 38.06875599999999,77.819539 37.597279,77.88072500000001 37.125840999999994,77.93701200000001 36.654438,77.9884 36.183068000000006,78.034891 35.711728,78.076485 35.240414,78.113184 34.769123,78.14498800000001 34.297852000000006,78.171898 33.826598000000004,78.193915 33.355357,78.211038 32.884127,78.223269 32.412903,78.230607 31.941682,78.23305400000001 31.470461,78.230607 30.999237,78.223269 30.528007,78.211038 30.056766,78.193915 29.585512,78.171898 29.114241,78.14498800000001 28.64295,78.113184 28.171636,78.076485 27.700295999999998,78.034891 27.228926,77.9884 26.757523,77.93701200000001 26.286085,77.88072500000001 25.814608,77.819539 25.343089,77.75345200000001 24.871526,77.682463 24.399915,77.606571 23.928254,77.52577400000001 23.45654,77.440071 22.984771,77.34945900000001 22.309642,77.21278000000001 22.309642,83.753354 22.597717,83.81167500000001 23.089152,83.906063" /><polygon points="49.685827002331195,82.375769 50.2173620023312,82.446762 50.748918002331195,82.51370100000001 51.280494002331196,82.57658500000001 51.8120900023312,82.63541400000001 52.34370400233121,82.690188 52.8753350023312,82.740907 53.406982002331205,82.787569 53.938643002331204,82.830174 54.4703170023312,82.868723 55.00200300233121,82.903215 55.5337000023312,82.93365 56.0654060023312,82.96002700000001 56.597120002331195,82.982347 57.1288400023312,83.00060900000001 57.660566002331194,83.014812 58.192296002331204,83.024958 58.724028002331195,83.031045 59.255762002331196,83.033074 59.787496002331196,83.031045 60.3192280023312,83.024958 60.8509580023312,83.014812 61.3826840023312,83.00060900000001 61.914404002331196,82.982347 62.446118002331204,82.96002700000001 62.977824002331204,82.93365 63.5095210023312,82.903215 64.0412070023312,82.868723 64.5728810023312,82.830174 65.1045420023312,82.787569 65.6361890023312,82.740907 66.1678200023312,82.690188 66.6994340023312,82.63541400000001 67.2310300023312,82.57658500000001 67.7626060023312,82.51370100000001 68.2941620023312,82.446762 68.8256970023312,82.375769 69.35720800233119,82.300723 70.7378020023312,82.09525500000001 70.7378020023312,77.073227 69.0701920023312,77.32141100000001 68.5534990023312,77.39436500000001 68.0368300023312,77.463372 67.5201820023312,77.528433 67.0035540023312,77.589549 66.4869460023312,77.64672 65.9703560023312,77.69994600000001 65.45378300233119,77.749227 64.9372260023312,77.794565 64.4206830023312,77.83596 63.9041530023312,77.873411 63.387635002331194,77.906919 62.871128002331204,77.93648400000001 62.354630002331206,77.962107 61.8381400023312,77.983787 61.321656002331196,78.001525 60.8051780023312,78.01532200000001 60.2887040023312,78.025176 59.772232002331194,78.03108900000001 59.255762002331196,78.03306 58.7392920023312,78.03108900000001 58.222820002331204,78.025176 57.7063460023312,78.01532200000001 57.189868002331195,78.001525 56.673384002331204,77.983787 56.1568940023312,77.962107 55.6403960023312,77.93648400000001 55.1238890023312,77.906919 54.607371002331206,77.873411 54.0908410023312,77.83596 53.574298002331204,77.794565 53.0577410023312,77.749227 52.541168002331204,77.69994600000001 52.0245780023312,77.64672 51.507970002331206,77.589549 50.991342002331194,77.528433 50.474694002331205,77.463372 49.9580250023312,77.39436500000001 49.44133200233121,77.32141100000001 48.7737220023312,77.222053 48.7737220023312,82.24408100000001 49.1543160023312,82.300723 49.685827002331195,82.375769" /><polygon points="74.7378020046624,147.233067 82.7450220046624,147.233067 82.3389790046624,90.793135 86.5627240046624,78.22749400000001 84.0384630046624,76.96536300000001 83.3423500046624,77.893731 83.1466110046624,78.15534600000001 82.95079600466241,78.41821 82.7551840046624,78.682529 82.56005800466241,78.948513 82.3657020046624,79.216375 82.17240500466241,79.486328 81.9804580046624,79.758584 81.7901570046624,80.03336 81.6017980046624,80.310871 81.4156840046624,80.59133200000001 81.2321210046624,80.87496 81.0514170046624,81.161969 80.87404400466241,81.452314 80.7011050046624,81.74445700000001 80.5328800046624,82.035989 80.3685520046624,82.325658 80.2070770046624,82.61267600000001 80.0474550046624,82.89626600000001 79.8887290046624,83.17566000000001 79.72998600466241,83.450102 79.5703550046624,83.718852 79.4090050046624,83.98119 79.2451430046624,84.23642500000001 79.07800800466241,84.483908 78.9068600046624,84.72304100000001 78.7309630046624,84.95330600000001 78.5486710046624,85.17536700000001 78.3572060046624,85.39220900000001 78.15545200466241,85.606558 77.9440800046624,85.819252 77.72401400466241,86.030951 77.4962440046624,86.242343 77.2618130046624,86.454155 77.06022700466241,86.63306700000001 74.7378020046624,86.63306700000001 74.7378020046624,147.233067" /><polygon points="90.3378020046624,88.50497200000001 97.3378020046624,92.914972 104.3378020046624,88.50497200000001 104.3378020046624,77.233067 90.3378020046624,77.233067 90.3378020046624,88.50497200000001" /></g><g fill="none" id="COSTURA" stroke="#00a000" stroke-width="0.08"><polygon points="4.309642,72.233067 20.309642,13.633067 20.55577921143092,13.416556070671316 20.800765035168627,13.199125943868006 21.043448083519895,12.97985742211545 21.282676968791513,12.757831307939018 21.517300303290263,12.53212840386409 21.746166699322924,12.30182951241604 21.968124769196287,12.066015436120248 22.182023125217125,11.823766977502084 22.386839617466954,11.574267191163548 22.582824834463885,11.317706113979522 22.770953146615966,11.054846434291722 22.952207282091674,10.786457453046896 23.127569969059486,10.513308471191783 23.29802393568788,10.236168789673126 23.464551910145325,9.955807709437675 23.628136620600305,9.67299453143217 23.789760795221287,9.388498556603356 23.950407162176752,9.103089085897977 24.111058449635177,8.817535420262777 24.27269738576503,8.532606860644501 24.4363066987348,8.249072707989892 24.602868961401807,7.967702142964255 24.77309593201771,7.689054612599036 24.946872036760208,7.413048832744115 25.123924265311874,7.139481591821779 25.303979607355274,6.86814967825431 25.486765052572977,6.598849880463993 25.672007590647556,6.331378986873115 25.85943421126158,6.065533785903957 26.048771904097617,5.801111065978808 26.239747658838233,5.53790761551995 26.432088465166007,5.275720222949668 26.625521312763496,5.0143456766902474 26.81977319131328,4.7535807651639725 27.014571090497927,4.493222276793128 27.209642,4.233067 38.666081237389605,9.233067 38.45924002771454,9.795334580940363 38.25544365051732,10.356933169710793 38.057736938275696,10.917193774141342 37.86916472346752,11.475447402062086 37.69277183857059,12.031025061303078 37.53160311606271,12.583257759694389 37.3887033884217,13.131476505066075 37.26711748812538,13.675012305248204 37.16989024765155,14.213196168070835 37.10006649947803,14.745359101364034 37.06069107608262,15.270832112957864 37.05480880994314,15.788946210682386 37.085464533537404,16.299032402367665 37.15570307934321,16.80042169584376 37.26856927983839,17.29244509894074 37.4266577778732,17.77451462039634 37.6280815546712,18.246848637281662 37.868383270908566,18.71012799466933 38.14307511035108,19.16503902122656 38.4476692567645,19.61226804562056 38.7776778939146,20.052501396518547 39.12861320556712,20.486425402587745 39.49598737548786,20.91472639249535 39.87531258744255,21.338090694908598 40.26210102519697,21.75720463849469 40.65186487251688,22.172754551920843 41.040116313168056,22.585426763854276 41.422659247128166,22.995882540544653 41.79842199391537,23.40451471781536 42.16822877963129,23.811553247150556 42.532930455857525,24.217225792541026 42.8933778741757,24.62176001797755 43.250421886167416,25.025383587450918 43.604913343414296,25.42832416495193 43.957703097497955,25.830809414471354 44.309642,26.233067 44.309642,72.233067" /><polygon points="50.309642,4.233067 68.55213341613643,4.233067 68.56589333756502,4.5779132703500505 68.60754544158414,5.092716994128569 68.67205506962702,5.603204386473422 68.76132701536234,6.10901575309847 68.8771512730008,6.609806492642356 69.01924219683117,7.105504892464548 69.1855108674753,7.596276320084238 69.37380837745513,8.082294029781549 69.58198581929261,8.563731275836616 69.80789428550965,9.040761312529574 70.0493848686282,9.513557394140543 70.30430866117018,9.98229277494966 70.57051675565754,10.447140709237045 70.8458602446122,10.908274451282841 71.12819022055609,11.365867255367169 71.41535777601118,11.82009237577016 71.70521400349935,12.271123066771947 71.99567244988296,12.719137438993469 72.28577280533736,13.164401169999925 72.57553149611586,13.607255886654121 72.86499733145786,14.048045733863534 73.15421912060279,14.487114856535614 73.44324567279004,14.924807399577839 73.73212579725906,15.36146750789767 74.02090830324923,15.797439326402566 74.309642,16.233067 74.309642,62.233067 50.309642,62.233067" /><polygon points="80.309642,6.233067 80.56209630921342,6.233423362819071 80.81447286291524,6.233185589548962 81.06669390559388,6.231759544100493 81.31868168173774,6.228551090384485 81.57035843583526,6.222966092311758 81.82164641237482,6.21441041379313 82.07246785584483,6.2022899187394245 82.32274501073371,6.18601047106146 82.57240012152987,6.1649779346700555 82.82135543272172,6.1385981734760335 83.06953318879766,6.1062770513902125 83.31685563424611,6.067420432323413 83.5632445734372,6.021435816906703 83.80856175774915,5.967954031978914 84.05254845846001,5.907053948065581 84.2949315518145,5.838867968215919 84.5354379140573,5.763528495479149 84.77379442143312,5.681167932904493 85.00972795018666,5.591918683541167 85.24296537656261,5.495913150438394 85.47323357680567,5.393283736645391 85.70025942716053,5.28416284521138 85.9237698038719,5.168682879185578 86.14354063733646,5.047021848373325 86.35985063974196,4.919825210198594 86.57327349198661,4.7880126611761415 86.78438662410257,4.652507383475511 86.993767466122,4.514232559266247 87.20199344807708,4.3741113707178965 87.40964199999999,4.233067 99.0715457896906,8.733067 98.98748151157895,9.271610546663693 98.90532202713595,9.809794399041248 98.82697213003024,10.347258862846523 98.75433661393048,10.88364424379338 98.68932027250531,11.418590847595684 98.63382789942338,11.951738979967294 98.58976428835334,12.48272894662207 98.55903423296384,13.01120105327387 98.54354252692352,13.536795605636561 98.54519396390103,14.059152909424 98.55213341613643,14.233067 80.309642,14.233067" /><polygon points="105.0715457896906,14.133067 105.40376229060264,13.601097985769025 105.74230186170111,13.07448106878231 106.09348757317247,12.558568346284105 106.46363260030421,12.058703603203355 106.85671428144396,11.578268379750659 107.271376298511,11.11616362120411 107.70552134488307,10.670667797519528 108.15705211393791,10.24005937865272 108.62387129905329,9.822616834559495 109.10388159360694,9.416618635195668 109.59498569097663,9.020343250517051 110.09508628454007,8.632069150479452 110.60208606767505,8.250074805038686 111.11416208290285,7.873099052810097 111.63122456530027,7.502789097724244 112.15385867417024,7.141924693123902 112.6826510900568,6.793288145054288 113.21818849350404,6.459661759560624 113.76105756505599,6.143827842688129 114.31184498525676,5.848568700482024 114.87113743465035,5.576666638987529 115.43952159378087,5.330903964249865 116.01758414319235,5.114062982314252 116.60586361112199,4.928750228471964 117.20398014198777,4.774219854155839 117.81072969150749,4.646717468142565 118.42487897130204,4.542381929246023 119.04519469299225,4.457352096280088 119.67044356819902,4.38776682805864 120.29939230854319,4.329764983395557 120.93080762564563,4.2794854211047175 121.5634562311272,4.233067 122.18285741659729,4.311185854731644 122.8008631806063,4.393185375692934 123.4160781016932,4.482946229113522 124.02710675839694,4.5843490812230545 124.63255372925644,4.701274598251178 125.23102359281067,4.837603446427542 125.82112092759856,4.997216291981794 126.40145031215906,5.183993801143583 126.97080543653823,5.401212000570606 127.52933766990624,5.647806057197887 128.07779160016145,5.920814460580514 128.61691430078793,6.217267753197476 129.14745284526987,6.534196477527764 129.67015430709137,6.868631176050369 130.18576575973657,7.217602391244281 130.69503427668965,7.57814066558849 131.19870693143469,7.947276541561989 131.69753079745584,8.322040561643767 132.19213633656608,8.699808623983248 132.6823372347304,9.08037557989049 133.16759801311775,9.464570362779291 133.64738187758073,9.853225801488009 134.12115203397184,10.247174724854993 134.5883716881437,10.647249961718597 135.04850404594885,11.05428434091717 135.5010123132398,11.469110691289066 135.9453596958692,11.89256184167264 136.38100939968956,12.325470620906243 136.80782639132485,12.768189022952523 137.22759112571276,13.218776549199232 137.64265429133079,13.674610234768883 138.05536667256382,14.133067 133.5634562311272,64.233067 109.5634562311272,64.233067" /><polygon points="144.05536667256382,5.033067 144.07073844824123,4.876994742387097 144.1162630465548,4.726920254107928 144.1901909827218,4.588610813584318 144.2896812476146,4.467381575050762 144.41091048614814,4.3678913101579635 144.54921992667175,4.293963373990971 144.6992944149509,4.248438775677416 144.85536667256383,4.233067 166.2553666725638,4.233067 166.41143893017673,4.248438775677416 166.5615134184559,4.29396337399097 166.6998228589795,4.3678913101579635 166.82105209751305,4.467381575050762 166.92054236240585,4.588610813584318 166.99447029857285,4.726920254107928 167.0399948968864,4.876994742387097 167.05536667256382,5.033067 167.05536667256382,15.433067 167.0399948968864,15.589139257612903 166.99447029857285,15.739213745892071 166.92054236240585,15.877523186415681 166.82105209751305,15.998752424949238 166.6998228589795,16.098242689842035 166.5615134184559,16.172170626009027 166.41143893017673,16.217695224322583 166.2553666725638,16.233067 144.85536667256383,16.233067 144.6992944149509,16.217695224322583 144.54921992667175,16.172170626009027 144.41091048614814,16.09824268984204 144.2896812476146,15.998752424949238 144.1901909827218,15.877523186415681 144.1162630465548,15.739213745892071 144.07073844824123,15.589139257612903 144.05536667256382,15.433067" /><polygon points="4.309642,78.63306700000001 4.317327887838708,78.55503087119355 4.340090186995486,78.47999362705397 4.377054155078982,78.41083890679216 4.426799287525381,78.35022428752539 4.48741390679216,78.30047915507899 4.556568627053964,78.26351518699549 4.631605871193549,78.24075288783871 4.7096420000000006,78.233067 15.909642,78.233067 15.98767812880645,78.24075288783871 16.062715372946037,78.26351518699549 16.13187009320784,78.30047915507899 16.192484712474617,78.35022428752539 16.24222984492102,78.41083890679216 16.279193813004515,78.47999362705397 16.301956112161292,78.55503087119355 16.309642,78.63306700000001 16.309642,80.833067 16.301956112161292,80.91110312880646 16.279193813004515,80.98614037294604 16.24222984492102,81.05529509320785 16.192484712474617,81.11590971247462 16.13187009320784,81.16565484492102 16.062715372946037,81.20261881300452 15.98767812880645,81.2253811121613 15.909642,81.233067 4.7096420000000006,81.233067 4.631605871193549,81.2253811121613 4.556568627053965,81.20261881300452 4.48741390679216,81.16565484492102 4.426799287525381,81.11590971247462 4.377054155078982,81.05529509320785 4.340090186995486,80.98614037294604 4.317327887838708,80.91110312880646 4.309642,80.833067" /><polygon points="22.309642,78.233067 22.79124400005828,78.330567 23.272846000116562,78.423067 23.75444800017484,78.51056700000001 24.23605000023312,78.593067 24.7176520002914,78.670567 25.19925400034968,78.74306700000001 25.68085600040796,78.810567 26.16245800046624,78.873067 26.644060000524522,78.93056700000001 27.125662000582803,78.983067 27.60726400064108,79.030567 28.088866000699362,79.07306700000001 28.570468000757643,79.110567 29.05207000081592,79.143067 29.5336720008742,79.170567 30.015274000932482,79.193067 30.496876000990763,79.21056700000001 30.978478001049044,79.223067 31.460080001107322,79.23056700000001 31.941682001165603,79.233067 32.423284001223884,79.23056700000001 32.904886001282165,79.223067 33.38648800134044,79.21056700000001 33.86809000139873,79.193067 34.349692001457,79.170567 34.83129400151529,79.143067 35.31289600157356,79.110567 35.794498001631844,79.07306700000001 36.276100001690125,79.030567 36.7577020017484,78.983067 37.23930400180669,78.93056700000001 37.72090600186496,78.873067 38.20250800192325,78.810567 38.68411000198152,78.74306700000001 39.1657120020398,78.670567 39.647314002098085,78.593067 40.12891600215636,78.51056700000001 40.61051800221465,78.423067 41.09212000227292,78.330567 41.57372200233121,78.233067 42.7737220023312,84.733067 41.57372200233121,82.733067 41.09212000227292,82.830567 40.61051800221465,82.923067 40.12891600215636,83.01056700000001 39.647314002098085,83.093067 39.1657120020398,83.170567 38.68411000198152,83.24306700000001 38.20250800192325,83.310567 37.72090600186496,83.373067 37.23930400180669,83.43056700000001 36.7577020017484,83.483067 36.276100001690125,83.530567 35.794498001631844,83.57306700000001 35.31289600157356,83.610567 34.83129400151529,83.643067 34.349692001457,83.670567 33.86809000139873,83.693067 33.38648800134044,83.71056700000001 32.904886001282165,83.723067 32.423284001223884,83.73056700000001 31.941682001165603,83.733067 31.460080001107322,83.73056700000001 30.978478001049044,83.723067 30.496876000990763,83.71056700000001 30.015274000932482,83.693067 29.5336720008742,83.670567 29.05207000081592,83.643067 28.570468000757643,83.610567 28.088866000699362,83.57306700000001 27.60726400064108,83.530567 27.125662000582803,83.483067 26.644060000524522,83.43056700000001 26.16245800046624,83.373067 25.68085600040796,83.310567 25.19925400034968,83.24306700000001 24.7176520002914,83.170567 24.23605000023312,83.093067 23.75444800017484,83.01056700000001 23.272846000116562,82.923067 22.79124400005828,82.830567 22.309642,82.733067" /><polygon points="48.7737220023312,78.233067 49.297824002389476,78.31106700000001 49.82192600244777,78.385067 50.346028002506046,78.455067 50.87013000256432,78.521067 51.3942320026226,78.583067 51.91833400268088,78.641067 52.44243600273916,78.69506700000001 52.966538002797435,78.745067 53.49064000285573,78.79106700000001 54.014742002914005,78.833067 54.53884400297228,78.87106700000001 55.06294600303056,78.905067 55.58704800308884,78.935067 56.11115000314712,78.961067 56.63525200320541,78.983067 57.15935400326369,79.001067 57.683456003321965,79.015067 58.20755800338024,79.025067 58.73166000343852,79.03106700000001 59.2557620034968,79.033067 59.77986400355509,79.03106700000001 60.30396600361337,79.025067 60.828068003671646,79.015067 61.352170003729924,79.001067 61.8762720037882,78.983067 62.40037400384648,78.961067 62.92447600390476,78.935067 63.448578003963036,78.905067 63.97268000402133,78.87106700000001 64.4967820040796,78.833067 65.02088400413788,78.79106700000001 65.54498600419616,78.745067 66.06908800425444,78.69506700000001 66.59319000431272,78.641067 67.11729200437101,78.583067 67.64139400442929,78.521067 68.16549600448757,78.455067 68.68959800454584,78.385067 69.21370000460412,78.31106700000001 69.7378020046624,78.233067 69.7378020046624,81.233067 69.21370000460412,81.31106700000001 68.68959800454584,81.385067 68.16549600448757,81.455067 67.64139400442929,81.521067 67.11729200437101,81.583067 66.59319000431272,81.641067 66.06908800425444,81.69506700000001 65.54498600419616,81.745067 65.02088400413788,81.791067 64.4967820040796,81.833067 63.97268000402133,81.87106700000001 63.448578003963036,81.905067 62.92447600390476,81.935067 62.40037400384648,81.961067 61.8762720037882,81.983067 61.352170003729924,82.001067 60.828068003671646,82.015067 60.30396600361337,82.025067 59.77986400355509,82.03106700000001 59.2557620034968,82.033067 58.73166000343852,82.03106700000001 58.20755800338024,82.025067 57.683456003321965,82.015067 57.15935400326369,82.001067 56.63525200320541,81.983067 56.11115000314712,81.961067 55.58704800308884,81.935067 55.06294600303056,81.905067 54.53884400297228,81.87106700000001 54.014742002914005,81.833067 53.49064000285573,81.791067 52.966538002797435,81.745067 52.44243600273916,81.69506700000001 51.91833400268088,81.641067 51.3942320026226,81.583067 50.87013000256432,81.521067 50.346028002506046,81.455067 49.82192600244777,81.385067 49.297824002389476,81.31106700000001 48.7737220023312,81.233067" /><polygon points="75.7378020046624,87.63306700000001 77.4378020046624,87.63306700000001 77.68393921609332,87.41655607067132 77.92892503983103,87.19912594386801 78.1716080881823,86.97985742211546 78.41083697345391,86.75783130793903 78.64546030795266,86.53212840386409 78.87432670398533,86.30182951241605 79.09628477385868,86.06601543612025 79.31018312987953,85.82376697750209 79.51499962212935,85.57426719116356 79.71098483912628,85.31770611397953 79.89911315127837,85.05484643429173 80.08036728675408,84.7864574530469 80.25572997372188,84.51330847119179 80.42618394035028,84.23616878967313 80.59271191480772,83.95580770943768 80.7562966252627,83.67299453143218 80.91792079988369,83.38849855660337 81.07856716683915,83.10308908589798 81.23921845429757,82.81753542026279 81.40085739042743,82.5326068606445 81.5644667033972,82.2490727079899 81.7310289660642,81.96770214296426 81.90125593668012,81.68905461259904 82.07503204142262,81.41304883274412 82.25208426997428,81.13948159182178 82.43213961201768,80.86814967825431 82.61492505723538,80.598849880464 82.80016759530996,80.33137898687312 82.98759421592398,80.06553378590397 83.17693190876001,79.80111106597882 83.36790766350063,79.53790761551996 83.56024846982841,79.27572022294967 83.7536813174259,79.01434567669025 83.94793319597568,78.75358076516397 84.14273109516033,78.49322227679313 84.33780200466241,78.233067 85.33780200466241,78.733067 81.33780200466241,90.63306700000001 81.7378020046624,146.233067 75.7378020046624,146.233067" /><polygon points="91.3378020046624,78.233067 103.3378020046624,78.233067 103.3378020046624,87.953067 97.3378020046624,91.733067 91.3378020046624,87.953067" /></g><g fill="none" id="PIQUETES" stroke="#00b0b0" stroke-width="0.08"><line x1="36.83481685889522" x2="36.873981913701826" y1="15.843847895609368" y2="16.488879754110943" /><line x1="37.290470569532616" x2="36.873981913701826" y1="15.994777336019041" y2="16.488879754110943" /><line x1="44.34726125278934" x2="43.717058715665786" y1="46.69603368626632" y2="46.83901886802666" /><line x1="44.27202274721067" x2="43.717058715665786" y1="47.170100313733684" y2="46.83901886802666" /><line x1="59.191777899574205" x2="59.482517367782876" y1="4.253718863885864" y2="4.830841521235012" /><line x1="59.66999751656222" x2="59.482517367782876" y1="4.212415136114135" y2="4.830841521235012" /><line x1="89.66996506347002" x2="89.37832713978756" y1="14.21204277268774" y2="13.63537361149548" /><line x1="89.19181035266641" x2="89.37832713978756" y1="14.25409122731226" y2="13.63537361149548" /><line x1="129.4229175753203" x2="129.4817572952529" y1="6.789144563438985" y2="7.432680022724836" /><line x1="129.8829667803264" x2="129.4817572952529" y1="6.926092469495347" y2="7.432680022724836" /><line x1="112.84788620365626" x2="113.25269132039887" y1="6.617467993310714" y2="7.121186979908402" /><line x1="113.30694898523882" x2="113.25269132039887" y1="6.477249012549656" y2="7.121186979908402" /><line x1="111.52203264068058" x2="111.95326521450849" y1="7.504838025251972" y2="7.986126366342583" /><line x1="111.97291634455766" x2="111.95326521450849" y1="7.340205447740476" y2="7.986126366342583" /></g><g fill="none" id="TEXTOS" stroke="#000000" stroke-width="0.08"><text fill="#000000" font-family="sans-serif" font-size="0.9" stroke="none" text-anchor="middle" x="27.66476095995879" y="41.59137930796005">DELANTERO WRAP</text><text fill="#000000" font-family="sans-serif" font-size="0.6" stroke="none" text-anchor="middle" x="27.66476095995879" y="42.991379307960045">Pieza N.01</text><text fill="#000000" font-family="sans-serif" font-size="0.6" stroke="none" text-anchor="middle" x="27.66476095995879" y="44.391379307960044">Talla: S</text><text fill="#000000" font-family="sans-serif" font-size="0.6" stroke="none" text-anchor="middle" x="27.66476095995879" y="45.79137930796005">Cortar: 2  (par: izq + der)</text><text fill="#000000" font-family="sans-serif" font-size="0.9" stroke="none" text-anchor="middle" x="62.00270847024231" y="30.409922654431575">ESPALDA</text><text fill="#000000" font-family="sans-serif" font-size="0.6" stroke="none" text-anchor="middle" x="62.00270847024231" y="31.809922654431574">Pieza N.02</text><text fill="#000000" font-family="sans-serif" font-size="0.6" stroke="none" text-anchor="middle" x="62.00270847024231" y="33.20992265443157">Talla: S</text><text fill="#000000" font-family="sans-serif" font-size="0.6" stroke="none" text-anchor="middle" x="62.00270847024231" y="34.60992265443158">Cortar: 1  (al doblez)</text><text fill="#000000" font-family="sans-serif" font-size="0.6" stroke="none" text-anchor="middle" x="62.00270847024231" y="36.00992265443158">AL DOBLEZ</text><text fill="#000000" font-family="sans-serif" font-size="0.9" stroke="none" text-anchor="middle" x="89.06754503264918" y="6.501309639616992">CANESU</text><text fill="#000000" font-family="sans-serif" font-size="0.6" stroke="none" text-anchor="middle" x="89.06754503264918" y="7.901309639616993">Pieza N.03</text><text fill="#000000" font-family="sans-serif" font-size="0.6" stroke="none" text-anchor="middle" x="89.06754503264918" y="9.301309639616992">Talla: S</text><text fill="#000000" font-family="sans-serif" font-size="0.6" stroke="none" text-anchor="middle" x="89.06754503264918" y="10.701309639616992">Cortar: 2  (al doblez x2 (exterior+interior))</text><text fill="#000000" font-family="sans-serif" font-size="0.6" stroke="none" text-anchor="middle" x="89.06754503264918" y="12.101309639616993">AL DOBLEZ</text><text fill="#000000" font-family="sans-serif" font-size="0.9" stroke="none" text-anchor="middle" x="121.51865777036907" y="31.483126315053056">MANGA</text><text fill="#000000" font-family="sans-serif" font-size="0.6" stroke="none" text-anchor="middle" x="121.51865777036907" y="32.883126315053055">Pieza N.04</text><text fill="#000000" font-family="sans-serif" font-size="0.6" stroke="none" text-anchor="middle" x="121.51865777036907" y="34.28312631505305">Talla: S</text><text fill="#000000" font-family="sans-serif" font-size="0.6" stroke="none" text-anchor="middle" x="121.51865777036907" y="35.68312631505306">Cortar: 2  (par: izq + der)</text><text fill="#000000" font-family="sans-serif" font-size="0.9" stroke="none" text-anchor="middle" x="155.55536667256382" y="7.5330670000000035">PUNO</text><text fill="#000000" font-family="sans-serif" font-size="0.6" stroke="none" text-anchor="middle" x="155.55536667256382" y="8.933067000000003">Pieza N.05</text><text fill="#000000" font-family="sans-serif" font-size="0.6" stroke="none" text-anchor="middle" x="155.55536667256382" y="10.333067000000003">Talla: S</text><text fill="#000000" font-family="sans-serif" font-size="0.6" stroke="none" text-anchor="middle" x="155.55536667256382" y="11.733067000000002">Cortar: 4  (4 (2 tela + 2 entretela))</text><text fill="#000000" font-family="sans-serif" font-size="0.9" stroke="none" text-anchor="middle" x="10.309641999999997" y="77.033067">TAPETA MANGA</text><text fill="#000000" font-family="sans-serif" font-size="0.6" stroke="none" text-anchor="middle" x="10.309641999999997" y="78.43306700000001">Pieza N.06</text><text fill="#000000" font-family="sans-serif" font-size="0.6" stroke="none" text-anchor="middle" x="10.309641999999997" y="79.833067">Talla: S</text><text fill="#000000" font-family="sans-serif" font-size="0.6" stroke="none" text-anchor="middle" x="10.309641999999997" y="81.233067">Cortar: 2  (par)</text><text fill="#000000" font-family="sans-serif" font-size="0.9" stroke="none" text-anchor="middle" x="32.24470252867016" y="77.57198354181554">CUELLO</text><text fill="#000000" font-family="sans-serif" font-size="0.6" stroke="none" text-anchor="middle" x="32.24470252867016" y="78.97198354181555">Pieza N.07</text><text fill="#000000" font-family="sans-serif" font-size="0.6" stroke="none" text-anchor="middle" x="32.24470252867016" y="80.37198354181554">Talla: S</text><text fill="#000000" font-family="sans-serif" font-size="0.6" stroke="none" text-anchor="middle" x="32.24470252867016" y="81.77198354181554">Cortar: 2  (al doblez x2 (+ entretela))</text><text fill="#000000" font-family="sans-serif" font-size="0.6" stroke="none" text-anchor="middle" x="32.24470252867016" y="83.17198354181554">AL DOBLEZ</text><text fill="#000000" font-family="sans-serif" font-size="0.9" stroke="none" text-anchor="middle" x="59.25576200349681" y="76.66606700000001">PIE DE CUELLO</text><text fill="#000000" font-family="sans-serif" font-size="0.6" stroke="none" text-anchor="middle" x="59.25576200349681" y="78.066067">Pieza N.08</text><text fill="#000000" font-family="sans-serif" font-size="0.6" stroke="none" text-anchor="middle" x="59.25576200349681" y="79.46606700000001">Talla: S</text><text fill="#000000" font-family="sans-serif" font-size="0.6" stroke="none" text-anchor="middle" x="59.25576200349681" y="80.866067">Cortar: 2  (al doblez x2 (+ entretela))</text><text fill="#000000" font-family="sans-serif" font-size="0.6" stroke="none" text-anchor="middle" x="59.25576200349681" y="82.266067">AL DOBLEZ</text><text fill="#000000" font-family="sans-serif" font-size="0.9" stroke="none" text-anchor="middle" x="78.88801487091487" y="112.0976551491815">VISTA DELANTERA</text><text fill="#000000" font-family="sans-serif" font-size="0.6" stroke="none" text-anchor="middle" x="78.88801487091487" y="113.4976551491815">Pieza N.09</text><text fill="#000000" font-family="sans-serif" font-size="0.6" stroke="none" text-anchor="middle" x="78.88801487091487" y="114.8976551491815">Talla: S</text><text fill="#000000" font-family="sans-serif" font-size="0.6" stroke="none" text-anchor="middle" x="78.88801487091487" y="116.29765514918151">Cortar: 2  (par: izq + der)</text><text fill="#000000" font-family="sans-serif" font-size="0.9" stroke="none" text-anchor="middle" x="97.3378020046624" y="81.38934606976744">BOLSILLO</text><text fill="#000000" font-family="sans-serif" font-size="0.6" stroke="none" text-anchor="middle" x="97.3378020046624" y="82.78934606976745">Pieza N.10</text><text fill="#000000" font-family="sans-serif" font-size="0.6" stroke="none" text-anchor="middle" x="97.3378020046624" y="84.18934606976745">Talla: S</text><text fill="#000000" font-family="sans-serif" font-size="0.6" stroke="none" text-anchor="middle" x="97.3378020046624" y="85.58934606976744">Cortar: 1  (1 (opcional))</text></g><g fill="none" id="CENTROS" stroke="#0050ff" stroke-width="0.08"><circle cx="33.509642" cy="29.233067" fill="#0050ff" r="0.15" /><circle cx="125.68643384148635" cy="52.233067" fill="#0050ff" r="0.15" /></g><g fill="none" id="HILO" stroke="#c0a000" stroke-width="0.08"><line x1="32.309642" x2="32.309642" y1="16.633067" y2="69.233067" /><line x1="32.309642" x2="32.77694401077038" y1="69.233067" y2="68.12779380719654" /><line x1="32.309642" x2="31.842339989229618" y1="69.233067" y2="68.12779380719654" /><line x1="32.309642" x2="31.842339989229618" y1="16.633067" y2="17.738340192803463" /><line x1="32.309642" x2="32.77694401077038" y1="16.633067" y2="17.738340192803463" /><line x1="50.809642" x2="50.809642" y1="7.233067" y2="59.233067" /><line x1="50.809642" x2="51.27694401077038" y1="59.233067" y2="58.12779380719654" /><line x1="50.809642" x2="50.342339989229615" y1="59.233067" y2="58.12779380719654" /><line x1="50.809642" x2="50.342339989229615" y1="7.233067" y2="8.338340192803463" /><line x1="50.809642" x2="51.27694401077038" y1="7.233067" y2="8.338340192803463" /><line x1="84.569642" x2="84.569642" y1="5.233067" y2="13.733067" /><line x1="84.569642" x2="85.03694401077038" y1="13.733067" y2="12.627793807196538" /><line x1="84.569642" x2="84.10233998922962" y1="13.733067" y2="12.627793807196538" /><line x1="84.569642" x2="84.10233998922962" y1="5.233067" y2="6.338340192803462" /><line x1="84.569642" x2="85.03694401077038" y1="5.233067" y2="6.338340192803462" /><line x1="121.5634562311272" x2="121.5634562311272" y1="8.193067" y2="62.233067" /><line x1="121.5634562311272" x2="122.03075824189759" y1="62.233067" y2="61.12779380719654" /><line x1="121.5634562311272" x2="121.09615422035682" y1="62.233067" y2="61.12779380719654" /><line x1="121.5634562311272" x2="121.09615422035682" y1="8.193067" y2="9.298340192803462" /><line x1="121.5634562311272" x2="122.03075824189759" y1="8.193067" y2="9.298340192803462" /><line x1="155.55536667256382" x2="155.55536667256382" y1="4.733067" y2="15.733067" /><line x1="155.55536667256382" x2="156.0226686833342" y1="15.733067" y2="14.627793807196538" /><line x1="155.55536667256382" x2="155.08806466179345" y1="15.733067" y2="14.627793807196538" /><line x1="155.55536667256382" x2="155.08806466179345" y1="4.733067" y2="5.838340192803462" /><line x1="155.55536667256382" x2="156.0226686833342" y1="4.733067" y2="5.838340192803462" /><line x1="10.309642" x2="10.309642" y1="78.63306700000001" y2="80.833067" /><line x1="10.309642" x2="10.776944010770382" y1="80.833067" y2="79.72779380719655" /><line x1="10.309642" x2="9.842339989229618" y1="80.833067" y2="79.72779380719655" /><line x1="10.309642" x2="9.84233998922962" y1="78.63306700000001" y2="79.73834019280346" /><line x1="10.309642" x2="10.77694401077038" y1="78.63306700000001" y2="79.73834019280346" /><line x1="22.809642" x2="41.07372200233121" y1="78.733067" y2="78.733067" /><line x1="41.07372200233121" x2="39.96844880952774" y1="78.733067" y2="78.26576498922962" /><line x1="41.07372200233121" x2="39.96844880952774" y1="78.733067" y2="79.20036901077039" /><line x1="22.809642" x2="23.914915192803463" y1="78.733067" y2="79.20036901077039" /><line x1="22.809642" x2="23.914915192803463" y1="78.733067" y2="78.26576498922962" /><line x1="49.2737220023312" x2="69.2378020046624" y1="78.63306700000001" y2="78.63306700000001" /><line x1="69.2378020046624" x2="68.13252881185895" y1="78.63306700000001" y2="78.16576498922963" /><line x1="69.2378020046624" x2="68.13252881185895" y1="78.63306700000001" y2="79.10036901077038" /><line x1="49.2737220023312" x2="50.378995195134664" y1="78.63306700000001" y2="79.10036901077038" /><line x1="49.2737220023312" x2="50.378995195134664" y1="78.63306700000001" y2="78.16576498922963" /><line x1="78.7378020046624" x2="78.7378020046624" y1="92.63306700000001" y2="143.233067" /><line x1="78.7378020046624" x2="79.20510401543278" y1="143.233067" y2="142.12779380719655" /><line x1="78.7378020046624" x2="78.27049999389202" y1="143.233067" y2="142.12779380719655" /><line x1="78.7378020046624" x2="78.27049999389202" y1="92.63306700000001" y2="93.73834019280346" /><line x1="78.7378020046624" x2="79.20510401543278" y1="92.63306700000001" y2="93.73834019280346" /><line x1="97.3378020046624" x2="97.3378020046624" y1="79.233067" y2="87.953067" /><line x1="97.3378020046624" x2="97.80510401543278" y1="87.953067" y2="86.84779380719654" /><line x1="97.3378020046624" x2="96.87049999389201" y1="87.953067" y2="86.84779380719654" /><line x1="97.3378020046624" x2="96.87049999389201" y1="79.233067" y2="80.33834019280347" /><line x1="97.3378020046624" x2="97.80510401543278" y1="79.233067" y2="80.33834019280347" /></g><g fill="none" id="DOBLEZ" stroke="#c000c0" stroke-width="0.08"><line x1="50.309642" x2="50.309642" y1="4.233067" y2="62.233067" /><line x1="80.309642" x2="80.309642" y1="4.233067" y2="14.233067" /><line x1="22.309642" x2="22.309642" y1="78.233067" y2="84.733067" /><line x1="48.7737220023312" x2="48.7737220023312" y1="78.233067" y2="82.033067" /></g><g fill="none" id="BOTONES" stroke="#ff8000" stroke-width="0.08"><circle cx="145.2553666725638" cy="10.233067" fill="#ff8000" r="0.55" /><circle cx="68.7378020046624" cy="79.733067" fill="#ff8000" r="0.55" /></g><g fill="none" id="OJAL" stroke="#ff40a0" stroke-width="0.08"><line x1="165.85536667256383" x2="165.85536667256383" y1="9.433067000000001" y2="11.033066999999999" /></g><g fill="none" id="REFERENCIAS" stroke="#b0b0b0" stroke-width="0.08"><text fill="#000000" font-family="sans-serif" font-size="0.5" stroke="none" text-anchor="start" x="20.309642" y="12.633067">CF</text><text fill="#000000" font-family="sans-serif" font-size="0.5" stroke="none" text-anchor="start" x="12.309642" y="68.233067">cruce</text><text fill="#000000" font-family="sans-serif" font-size="0.5" stroke="none" text-anchor="start" x="50.609641999999994" y="33.233067">CB</text><text fill="#000000" font-family="sans-serif" font-size="0.5" stroke="none" text-anchor="start" x="155.55536667256382" y="9.433067000000001">DOBLEZ</text><text fill="#000000" font-family="sans-serif" font-size="0.5" stroke="none" text-anchor="start" x="97.3378020046624" y="79.733067">boca</text></g></svg>