  0
SECTION
  2
HEADER
  9
$ACADVER
  1
AC1027
  9
$ACADMAINTVER
 70
105
  9
$DWGCODEPAGE
  3
ANSI_1252
  9
$LASTSAVEDBY
  1
ezdxf
  9
$REQUIREDVERSIONS
160
0
  9
$INSBASE
 10
0.0
 20
0.0
 30
0.0
  9
$EXTMIN
 10
1e+20
 20
1e+20
 30
1e+20
  9
$EXTMAX
 10
-1e+20
 20
-1e+20
 30
-1e+20
  9
$LIMMIN
 10
0.0
 20
0.0
  9
$LIMMAX
 10
420.0
 20
297.0
  9
$ORTHOMODE
 70
0
  9
$REGENMODE
 70
1
  9
$FILLMODE
 70
1
  9
$QTEXTMODE
 70
0
  9
$MIRRTEXT
 70
1
  9
$LTSCALE
 40
1.0
  9
$ATTMODE
 70
1
  9
$TEXTSIZE
 40
2.5
  9
$TRACEWID
 40
1.0
  9
$TEXTSTYLE
  7
OpenSans
  9
$CLAYER
  8
0
  9
$CELTYPE
  6
ByLayer
  9
$CECOLOR
 62
256
  9
$CELTSCALE
 40
1.0
  9
$DISPSILH
 70
0
  9
$DIMSCALE
 40
1.0
  9
$DIMASZ
 40
0.175
  9
$DIMEXO
 40
0.125
  9
$DIMDLI
 40
3.75
  9
$DIMRND
 40
0.0
  9
$DIMDLE
 40
0.0
  9
$DIMEXE
 40
0.375
  9
$DIMTP
 40
0.0
  9
$DIMTM
 40
0.0
  9
$DIMTXT
 40
0.25
  9
$DIMCEN
 40
2.5
  9
$DIMTSZ
 40
0.0
  9
$DIMTOL
 70
0
  9
$DIMLIM
 70
0
  9
$DIMTIH
 70
0
  9
$DIMTOH
 70
0
  9
$DIMSE1
 70
0
  9
$DIMSE2
 70
0
  9
$DIMTAD
 70
1
  9
$DIMZIN
 70
12
  9
$DIMBLK
  1
ARCHTICK
  9
$DIMASO
 70
1
  9
$DIMSHO
 70
1
  9
$DIMPOST
  1

  9
$DIMAPOST
  1

  9
$DIMALT
 70
0
  9
$DIMALTD
 70
3
  9
$DIMALTF
 40
0.03937007874
  9
$DIMLFAC
 40
100.0
  9
$DIMTOFL
 70
1
  9
$DIMTVP
 40
0.0
  9
$DIMTIX
 70
0
  9
$DIMSOXD
 70
0
  9
$DIMSAH
 70
0
  9
$DIMBLK1
  1

  9
$DIMBLK2
  1

  9
$DIMSTYLE
  2
EZDXF
  9
$DIMCLRD
 70
0
  9
$DIMCLRE
 70
0
  9
$DIMCLRT
 70
0
  9
$DIMTFAC
 40
0.5
  9
$DIMGAP
 40
0.1
  9
$DIMJUST
 70
0
  9
$DIMSD1
 70
0
  9
$DIMSD2
 70
0
  9
$DIMTOLJ
 70
0
  9
$DIMTZIN
 70
8
  9
$DIMALTZ
 70
0
  9
$DIMALTTZ
 70
0
  9
$DIMUPT
 70
1
  9
$DIMDEC
 70
2
  9
$DIMTDEC
 70
2
  9
$DIMALTU
 70
2
  9
$DIMALTTD
 70
3
  9
$DIMTXSTY
  7
OpenSansCondensed-Light
  9
$DIMAUNIT
 70
0
  9
$DIMADEC
 70
2
  9
$DIMALTRND
 40
0.0
  9
$DIMAZIN
 70
3
  9
$DIMDSEP
 70
46
  9
$DIMATFIT
 70
3
  9
$DIMFRAC
 70
0
  9
$DIMLDRBLK
  1

  9
$DIMLUNIT
 70
2
  9
$DIMLWD
 70
-2
  9
$DIMLWE
 70
-2
  9
$DIMTMOVE
 70
2
  9
$DIMFXL
 40
1.0
  9
$DIMFXLON
 70
0
  9
$DIMJOGANG
 40
0.785398163397
  9
$DIMTFILL
 70
0
  9
$DIMTFILLCLR
 70
0
  9
$DIMARCSYM
 70
0
  9
$DIMLTYPE
  6

  9
$DIMLTEX1
  6

  9
$DIMLTEX2
  6

  9
$DIMTXTDIRECTION
 70
0
  9
$LUNITS
 70
2
  9
$LUPREC
 70
4
  9
$SKETCHINC
 40
1.0
  9
$FILLETRAD
 40
10.0
  9
$AUNITS
 70
0
  9
$AUPREC
 70
2
  9
$MENU
  1
.
  9
$ELEVATION
 40
0.0
  9
$PELEVATION
 40
0.0
  9
$THICKNESS
 40
0.0
  9
$LIMCHECK
 70
0
  9
$CHAMFERA
 40
0.0
  9
$CHAMFERB
 40
0.0
  9
$CHAMFERC
 40
0.0
  9
$CHAMFERD
 40
0.0
  9
$SKPOLY
 70
0
  9
$TDCREATE
 40
2461235.9602546296
  9
$TDUCREATE
 40
2458532.153996898
  9
$TDUPDATE
 40
2461235.9602546296
  9
$TDUUPDATE
 40
2458532.1544311
  9
$TDINDWG
 40
0.0
  9
$TDUSRTIMER
 40
0.0
  9
$USRTIMER
 70
1
  9
$ANGBASE
 50
0.0
  9
$ANGDIR
 70
0
  9
$PDMODE
 70
0
  9
$PDSIZE
 40
0.0
  9
$PLINEWID
 40
0.0
  9
$SPLFRAME
 70
0
  9
$SPLINETYPE
 70
6
  9
$SPLINESEGS
 70
8
  9
$HANDSEED
  5
12E
  9
$SURFTAB1
 70
6
  9
$SURFTAB2
 70
6
  9
$SURFTYPE
 70
6
  9
$SURFU
 70
6
  9
$SURFV
 70
6
  9
$UCSBASE
  2

  9
$UCSNAME
  2

  9
$UCSORG
 10
0.0
 20
0.0
 30
0.0
  9
$UCSXDIR
 10
1.0
 20
0.0
 30
0.0
  9
$UCSYDIR
 10
0.0
 20
1.0
 30
0.0
  9
$UCSORTHOREF
  2

  9
$UCSORTHOVIEW
 70
0
  9
$UCSORGTOP
 10
0.0
 20
0.0
 30
0.0
  9
$UCSORGBOTTOM
 10
0.0
 20
0.0
 30
0.0
  9
$UCSORGLEFT
 10
0.0
 20
0.0
 30
0.0
  9
$UCSORGRIGHT
 10
0.0
 20
0.0
 30
0.0
  9
$UCSORGFRONT
 10
0.0
 20
0.0
 30
0.0
  9
$UCSORGBACK
 10
0.0
 20
0.0
 30
0.0
  9
$PUCSBASE
  2

  9
$PUCSNAME
  2

  9
$PUCSORG
 10
0.0
 20
0.0
 30
0.0
  9
$PUCSXDIR
 10
1.0
 20
0.0
 30
0.0
  9
$PUCSYDIR
 10
0.0
 20
1.0
 30
0.0
  9
$PUCSORTHOREF
  2

  9
$PUCSORTHOVIEW
 70
0
  9
$PUCSORGTOP
 10
0.0
 20
0.0
 30
0.0
  9
$PUCSORGBOTTOM
 10
0.0
 20
0.0
 30
0.0
  9
$PUCSORGLEFT
 10
0.0
 20
0.0
 30
0.0
  9
$PUCSORGRIGHT
 10
0.0
 20
0.0
 30
0.0
  9
$PUCSORGFRONT
 10
0.0
 20
0.0
 30
0.0
  9
$PUCSORGBACK
 10
0.0
 20
0.0
 30
0.0
  9
$USERI1
 70
0
  9
$USERI2
 70
0
  9
$USERI3
 70
0
  9
$USERI4
 70
0
  9
$USERI5
 70
0
  9
$USERR1
 40
0.0
  9
$USERR2
 40
0.0
  9
$USERR3
 40
0.0
  9
$USERR4
 40
0.0
  9
$USERR5
 40
0.0
  9
$WORLDVIEW
 70
1
  9
$SHADEDGE
 70
3
  9
$SHADEDIF
 70
70
  9
$TILEMODE
 70
1
  9
$MAXACTVP
 70
64
  9
$PINSBASE
 10
0.0
 20
0.0
 30
0.0
  9
$PLIMCHECK
 70
0
  9
$PEXTMIN
 10
1e+20
 20
1e+20
 30
1e+20
  9
$PEXTMAX
 10
-1e+20
 20
-1e+20
 30
-1e+20
  9
$PLIMMIN
 10
0.0
 20
0.0
  9
$PLIMMAX
 10
420.0
 20
297.0
  9
$UNITMODE
 70
0
  9
$VISRETAIN
 70
1
  9
$PLINEGEN
 70
0
  9
$PSLTSCALE
 70
1
  9
$TREEDEPTH
 70
3020
  9
$CMLSTYLE
  2
Standard
  9
$CMLJUST
 70
0
  9
$CMLSCALE
 40
20.0
  9
$PROXYGRAPHICS
 70
1
  9
$MEASUREMENT
 70
1
  9
$CELWEIGHT
370
-1
  9
$ENDCAPS
280
0
  9
$JOINSTYLE
280
0
  9
$LWDISPLAY
290
0
  9
$INSUNITS
 70
5
  9
$HYPERLINKBASE
  1

  9
$STYLESHEET
  1

  9
$XEDIT
290
1
  9
$CEPSNTYPE
380
0
  9
$PSTYLEMODE
290
1
  9
$FINGERPRINTGUID
  2
{B3E1A4E0-1ECE-4E87-826C-823D07719198}
  9
$VERSIONGUID
  2
{632DBE7E-C579-4D59-98EB-C90AE6063741}
  9
$EXTNAMES
290
1
  9
$PSVPSCALE
 40
0.0
  9
$OLESTARTUP
290
0
  9
$SORTENTS
280
127
  9
$INDEXCTL
280
0
  9
$HIDETEXT
280
1
  9
$XCLIPFRAME
280
1
  9
$HALOGAP
280
0
  9
$OBSCOLOR
 70
257
  9
$OBSLTYPE
280
0
  9
$INTERSECTIONDISPLAY
280
0
  9
$INTERSECTIONCOLOR
 70
257
  9
$DIMASSOC
280
2
  9
$PROJECTNAME
  1

  9
$CAMERADISPLAY
290
0
  9
$LENSLENGTH
 40
50.0
  9
$CAMERAHEIGHT
 40
0.0
  9
$STEPSPERSEC
 40
24.0
  9
$STEPSIZE
 40
100.0
  9
$3DDWFPREC
 40
2.0
  9
$PSOLWIDTH
 40
0.005
  9
$PSOLHEIGHT
 40
0.08
  9
$LOFTANG1
 40
1.570796326795
  9
$LOFTANG2
 40
1.570796326795
  9
$LOFTMAG1
 40
0.0
  9
$LOFTMAG2
 40
0.0
  9
$LOFTPARAM
 70
7
  9
$LOFTNORMALS
280
1
  9
$LATITUDE
 40
37.795
  9
$LONGITUDE
 40
-122.394
  9
$NORTHDIRECTION
 40
0.0
  9
$TIMEZONE
 70
-8000
  9
$LIGHTGLYPHDISPLAY
280
1
  9
$TILEMODELIGHTSYNCH
280
1
  9
$CMATERIAL
347
20
  9
$SOLIDHIST
280
0
  9
$SHOWHIST
280
1
  9
$DWFFRAME
280
2
  9
$DGNFRAME
280
2
  9
$REALWORLDSCALE
290
1
  9
$INTERFERECOLOR
 62
256
  9
$CSHADOW
280
0
  9
$SHADOWPLANELOCATION
 40
0.0
  0
ENDSEC
  0
SECTION
  2
CLASSES
  0
CLASS
  1
ACDBDICTIONARYWDFLT
  2
AcDbDictionaryWithDefault
  3
ObjectDBX Classes
 90
0
 91
0
280
0
281
0
  0
CLASS
  1
SUN
  2
AcDbSun
  3
SCENEOE
 90
1153
 91
0
280
0
281
0
  0
CLASS
  1
VISUALSTYLE
  2
AcDbVisualStyle
  3
ObjectDBX Classes
 90
4095
 91
0
280
0
281
0
  0
CLASS
  1
MATERIAL
  2
AcDbMaterial
  3
ObjectDBX Classes
 90
1153
 91
0
280
0
281
0
  0
CLASS
  1
SCALE
  2
AcDbScale
  3
ObjectDBX Classes
 90
1153
 91
0
280
0
281
0
  0
CLASS
  1
TABLESTYLE
  2
AcDbTableStyle
  3
ObjectDBX Classes
 90
4095
 91
0
280
0
281
0
  0
CLASS
  1
MLEADERSTYLE
  2
AcDbMLeaderStyle
  3
ACDB_MLEADERSTYLE_CLASS
 90
4095
 91
0
280
0
281
0
  0
CLASS
  1
DICTIONARYVAR
  2
AcDbDictionaryVar
  3
ObjectDBX Classes
 90
0
 91
0
280
0
281
0
  0
CLASS
  1
CELLSTYLEMAP
  2
AcDbCellStyleMap
  3
ObjectDBX Classes
 90
1152
 91
0
280
0
281
0
  0
CLASS
  1
MENTALRAYRENDERSETTINGS
  2
AcDbMentalRayRenderSettings
  3
SCENEOE
 90
1024
 91
0
280
0
281
0
  0
CLASS
  1
ACDBDETAILVIEWSTYLE
  2
AcDbDetailViewStyle
  3
ObjectDBX Classes
 90
1025
 91
0
280
0
281
0
  0
CLASS
  1
ACDBSECTIONVIEWSTYLE
  2
AcDbSectionViewStyle
  3
ObjectDBX Classes
 90
1025
 91
0
280
0
281
0
  0
CLASS
  1
RASTERVARIABLES
  2
AcDbRasterVariables
  3
ISM
 90
0
 91
0
280
0
281
0
  0
CLASS
  1
ACDBPLACEHOLDER
  2
AcDbPlaceHolder
  3
ObjectDBX Classes
 90
0
 91
0
280
0
281
0
  0
CLASS
  1
LAYOUT
  2
AcDbLayout
  3
ObjectDBX Classes
 90
0
 91
0
280
0
281
0
  0
ENDSEC
  0
SECTION
  2
TABLES
  0
TABLE
  2
VPORT
  5
8
330
0
100
AcDbSymbolTable
 70
1
  0
VPORT
  5
23
330
8
100
AcDbSymbolTableRecord
100
AcDbViewportTableRecord
  2
*Active
 70
0
 10
0.0
 20
0.0
 11
1.0
 21
1.0
 12
0.0
 22
0.0
 13
0.0
 23
0.0
 14
0.5
 24
0.5
 15
0.5
 25
0.5
 16
0.0
 26
0.0
 36
1.0
 17
0.0
 27
0.0
 37
0.0
 40
1000.0
 41
1.34
 42
50.0
 43
0.0
 44
0.0
 50
0.0
 51
0.0
 71
0
 72
1000
 73
1
 74
3
 75
0
 76
0
 77
0
 78
0
281
0
 65
0
146
0.0
  0
ENDTAB
  0
TABLE
  2
LTYPE
  5
2
330
0
100
AcDbSymbolTable
 70
21
  0
LTYPE
  5
24
330
2
100
AcDbSymbolTableRecord
100
AcDbLinetypeTableRecord
  2
ByBlock
 70
0
  3

 72
65
 73
0
 40
0.0
  0
LTYPE
  5
25
330
2
100
AcDbSymbolTableRecord
100
AcDbLinetypeTableRecord
  2
ByLayer
 70
0
  3

 72
65
 73
0
 40
0.0
  0
LTYPE
  5
26
330
2
100
AcDbSymbolTableRecord
100
AcDbLinetypeTableRecord
  2
Continuous
 70
0
  3

 72
65
 73
0
 40
0.0
  0
LTYPE
  5
2F
330
2
100
AcDbSymbolTableRecord
100
AcDbLinetypeTableRecord
  2
CENTER
 70
0
  3
Center ____ _ ____ _ ____ _ ____ _ ____ _ ____
 72
65
 73
4
 40
5.08
 49
3.175
 74
0
 49
-0.635
 74
0
 49
0.635
 74
0
 49
-0.635
 74
0
  0
LTYPE
  5
30
330
2
100
AcDbSymbolTableRecord
100
AcDbLinetypeTableRecord
  2
CENTERX2
 70
0
  3
Center (2x) ________  __  ________  __  ________
 72
65
 73
4
 40
8.89
 49
6.35
 74
0
 49
-0.635
 74
0
 49
1.27
 74
0
 49
-0.635
 74
0
  0
LTYPE
  5
31
330
2
100
AcDbSymbolTableRecord
100
AcDbLinetypeTableRecord
  2
CENTER2
 70
0
  3
Center (.5x) ____ _ ____ _ ____ _ ____ _ ____
 72
65
 73
4
 40
2.54
 49
1.587
 74
0
 49
-0.318
 74
0
 49
0.318
 74
0
 49
-0.318
 74
0
  0
LTYPE
  5
32
330
2
100
AcDbSymbolTableRecord
100
AcDbLinetypeTableRecord
  2
DASHED
 70
0
  3
Dashed __ __ __ __ __ __ __ __ __ __ __ __ __ _
 72
65
 73
2
 40
1.524
 49
1.27
 74
0
 49
-0.254
 74
0
  0
LTYPE
  5
33
330
2
100
AcDbSymbolTableRecord
100
AcDbLinetypeTableRecord
  2
DASHEDX2
 70
0
  3
Dashed (2x) ____  ____  ____  ____  ____  ____
 72
65
 73
2
 40
3.048
 49
2.54
 74
0
 49
-0.508
 74
0
  0
LTYPE
  5
34
330
2
100
AcDbSymbolTableRecord
100
AcDbLinetypeTableRecord
  2
DASHED2
 70
0
  3
Dashed (.5x) _ _ _ _ _ _ _ _ _ _ _ _ _ _
 72
65
 73
2
 40
0.762
 49
0.635
 74
0
 49
-0.127
 74
0
  0
LTYPE
  5
35
330
2
100
AcDbSymbolTableRecord
100
AcDbLinetypeTableRecord
  2
PHANTOM
 70
0
  3
Phantom ______  __  __  ______  __  __  ______
 72
65
 73
6
 40
6.35
 49
3.175
 74
0
 49
-0.635
 74
0
 49
0.635
 74
0
 49
-0.635
 74
0
 49
0.635
 74
0
 49
-0.635
 74
0
  0
LTYPE
  5
36
330
2
100
AcDbSymbolTableRecord
100
AcDbLinetypeTableRecord
  2
PHANTOMX2
 70
0
  3
Phantom (2x)____________    ____    ____    ____________
 72
65
 73
6
 40
10.795
 49
6.35
 74
0
 49
-0.635
 74
0
 49
1.27
 74
0
 49
-0.635
 74
0
 49
1.27
 74
0
 49
-0.635
 74
0
  0
LTYPE
  5
37
330
2
100
AcDbSymbolTableRecord
100
AcDbLinetypeTableRecord
  2
PHANTOM2
 70
0
  3
Phantom (.5x) ___ _ _ ___ _ _ ___ _ _ ___ _ _ ___
 72
65
 73
6
 40
3.175
 49
1.587
 74
0
 49
-0.318
 74
0
 49
0.318
 74
0
 49
-0.318
 74
0
 49
0.318
 74
0
 49
-0.318
 74
0
  0
LTYPE
  5
38
330
2
100
AcDbSymbolTableRecord
100
AcDbLinetypeTableRecord
  2
DASHDOT
 70
0
  3
Dash dot __ . __ . __ . __ . __ . __ . __ . __
 72
65
 73
4
 40
3.556
 49
2.54
 74
0
 49
-0.508
 74
0
 49
0.0
 74
0
 49
-0.508
 74
0
  0
LTYPE
  5
39
330
2
100
AcDbSymbolTableRecord
100
AcDbLinetypeTableRecord
  2
DASHDOTX2
 70
0
  3
Dash dot (2x) ____  .  ____  .  ____  .  ____
 72
65
 73
4
 40
6.096
 49
5.08
 74
0
 49
-0.508
 74
0
 49
0.0
 74
0
 49
-0.508
 74
0
  0
LTYPE
  5
3A
330
2
100
AcDbSymbolTableRecord
100
AcDbLinetypeTableRecord
  2
DASHDOT2
 70
0
  3
Dash dot (.5x) _ . _ . _ . _ . _ . _ . _ . _
 72
65
 73
4
 40
1.778
 49
1.27
 74
0
 49
-0.254
 74
0
 49
0.0
 74
0
 49
-0.254
 74
0
  0
LTYPE
  5
3B
330
2
100
AcDbSymbolTableRecord
100
AcDbLinetypeTableRecord
  2
DOT
 70
0
  3
Dot .  .  .  .  .  .  .  .  .  .  .  .  .  .  .  .
 72
65
 73
2
 40
0.508
 49
0.0
 74
0
 49
-0.508
 74
0
  0
LTYPE
  5
3C
330
2
100
AcDbSymbolTableRecord
100
AcDbLinetypeTableRecord
  2
DOTX2
 70
0
  3
Dot (2x) .    .    .    .    .    .    .    . 
 72
65
 73
2
 40
1.016
 49
0.0
 74
0
 49
-1.016
 74
0
  0
LTYPE
  5
3D
330
2
100
AcDbSymbolTableRecord
100
AcDbLinetypeTableRecord
  2
DOT2
 70
0
  3
Dot (.5) . . . . . . . . . . . . . . . . . . . 
 72
65
 73
2
 40
0.254
 49
0.0
 74
0
 49
-0.254
 74
0
  0
LTYPE
  5
3E
330
2
100
AcDbSymbolTableRecord
100
AcDbLinetypeTableRecord
  2
DIVIDE
 70
0
  3
Divide __ . . __ . . __ . . __ . . __ . . __
 72
65
 73
6
 40
4.064
 49
2.54
 74
0
 49
-0.508
 74
0
 49
0.0
 74
0
 49
-0.508
 74
0
 49
0.0
 74
0
 49
-0.508
 74
0
  0
LTYPE
  5
3F
330
2
100
AcDbSymbolTableRecord
100
AcDbLinetypeTableRecord
  2
DIVIDEX2
 70
0
  3
Divide (2x) ____  . .  ____  . .  ____  . .  ____
 72
65
 73
6
 40
6.604
 49
5.08
 74
0
 49
-0.508
 74
0
 49
0.0
 74
0
 49
-0.508
 74
0
 49
0.0
 74
0
 49
-0.508
 74
0
  0
LTYPE
  5
40
330
2
100
AcDbSymbolTableRecord
100
AcDbLinetypeTableRecord
  2
DIVIDE2
 70
0
  3
Divide(.5x) _ . _ . _ . _ . _ . _ . _ . _
 72
65
 73
6
 40
2.032
 49
1.27
 74
0
 49
-0.254
 74
0
 49
0.0
 74
0
 49
-0.254
 74
0
 49
0.0
 74
0
 49
-0.254
 74
0
  0
ENDTAB
  0
TABLE
  2
LAYER
  5
1
330
0
100
AcDbSymbolTable
 70
10
  0
LAYER
  5
27
330
1
100
AcDbSymbolTableRecord
100
AcDbLayerTableRecord
  2
0
 70
0
 62
7
  6
Continuous
370
-3
390
13
347
21
  0
LAYER
  5
28
330
1
100
AcDbSymbolTableRecord
100
AcDbLayerTableRecord
  2
Defpoints
 70
0
 62
7
  6
Continuous
290
0
370
-3
390
13
347
21
  0
LAYER
  5
8A
330
1
100
AcDbSymbolTableRecord
100
AcDbLayerTableRecord
  2
1
 70
0
 62
1
  6
Continuous
370
-3
390
13
347
21
  0
LAYER
  5
8B
330
1
100
AcDbSymbolTableRecord
100
AcDbLayerTableRecord
  2
4
 70
0
 62
4
  6
Continuous
370
-3
390
13
347
21
  0
LAYER
  5
8C
330
1
100
AcDbSymbolTableRecord
100
AcDbLayerTableRecord
  2
6
 70
0
 62
2
  6
Continuous
370
-3
390
13
347
21
  0
LAYER
  5
8D
330
1
100
AcDbSymbolTableRecord
100
AcDbLayerTableRecord
  2
7
 70
0
 62
3
  6
Continuous
370
-3
390
13
347
21
  0
LAYER
  5
8E
330
1
100
AcDbSymbolTableRecord
100
AcDbLayerTableRecord
  2
8
 70
0
 62
5
  6
Continuous
370
-3
390
13
347
21
  0
LAYER
  5
8F
330
1
100
AcDbSymbolTableRecord
100
AcDbLayerTableRecord
  2
11
 70
0
 62
8
  6
Continuous
370
-3
390
13
347
21
  0
LAYER
  5
90
330
1
100
AcDbSymbolTableRecord
100
AcDbLayerTableRecord
  2
13
 70
0
 62
7
  6
Continuous
370
-3
390
13
347
21
  0
LAYER
  5
91
330
1
100
AcDbSymbolTableRecord
100
AcDbLayerTableRecord
  2
15
 70
0
 62
6
  6
Continuous
370
-3
390
13
347
21
  0
ENDTAB
  0
TABLE
  2
STYLE
  5
5
330
0
100
AcDbSymbolTable
 70
26
  0
STYLE
  5
29
330
5
100
AcDbSymbolTableRecord
100
AcDbTextStyleTableRecord
  2
Standard
 70
0
 40
0.0
 41
1.0
 50
0.0
 71
0
 42
2.5
  3
txt
  4

  0
STYLE
  5
41
330
5
100
AcDbSymbolTableRecord
100
AcDbTextStyleTableRecord
  2
OpenSans-Light
 70
0
 40
0.0
 41
1.0
 50
0.0
 71
0
 42
2.5
  3
OpenSans-Light.ttf
  4

  0
STYLE
  5
42
330
5
100
AcDbSymbolTableRecord
100
AcDbTextStyleTableRecord
  2
OpenSans-Light-Italic
 70
0
 40
0.0
 41
1.0
 50
0.0
 71
0
 42
2.5
  3
OpenSans-LightItalic.ttf
  4

  0
STYLE
  5
43
330
5
100
AcDbSymbolTableRecord
100
AcDbTextStyleTableRecord
  2
OpenSans
 70
0
 40
0.0
 41
1.0
 50
0.0
 71
0
 42
2.5
  3
OpenSans-Regular.ttf
  4

  0
STYLE
  5
44
330
5
100
AcDbSymbolTableRecord
100
AcDbTextStyleTableRecord
  2
OpenSans-Italic
 70
0
 40
0.0
 41
1.0
 50
0.0
 71
0
 42
2.5
  3
OpenSans-Italic.ttf
  4

  0
STYLE
  5
45
330
5
100
AcDbSymbolTableRecord
100
AcDbTextStyleTableRecord
  2
OpenSans-SemiBold
 70
0
 40
0.0
 41
1.0
 50
0.0
 71
0
 42
2.5
  3
OpenSans-SemiBold.ttf
  4

  0
STYLE
  5
46
330
5
100
AcDbSymbolTableRecord
100
AcDbTextStyleTableRecord
  2
OpenSans-SemiBoldItalic
 70
0
 40
0.0
 41
1.0
 50
0.0
 71
0
 42
2.5
  3
OpenSans-SemiBoldItalic.ttf
  4

  0
STYLE
  5
47
330
5
100
AcDbSymbolTableRecord
100
AcDbTextStyleTableRecord
  2
OpenSans-Bold
 70
0
 40
0.0
 41
1.0
 50
0.0
 71
0
 42
2.5
  3
OpenSans-Bold.ttf
  4

  0
STYLE
  5
48
330
5
100
AcDbSymbolTableRecord
100
AcDbTextStyleTableRecord
  2
OpenSans-BoldItalic
 70
0
 40
0.0
 41
1.0
 50
0.0
 71
0
 42
2.5
  3
OpenSans-BoldItalic.ttf
  4

  0
STYLE
  5
49
330
5
100
AcDbSymbolTableRecord
100
AcDbTextStyleTableRecord
  2
OpenSans-ExtraBold
 70
0
 40
0.0
 41
1.0
 50
0.0
 71
0
 42
2.5
  3
OpenSans-ExtraBold.ttf
  4

  0
STYLE
  5
4A
330
5
100
AcDbSymbolTableRecord
100
AcDbTextStyleTableRecord
  2
OpenSans-ExtraBoldItalic
 70
0
 40
0.0
 41
1.0
 50
0.0
 71
0
 42
2.5
  3
OpenSans-ExtraBoldItalic.ttf
  4

  0
STYLE
  5
4B
330
5
100
AcDbSymbolTableRecord
100
AcDbTextStyleTableRecord
  2
OpenSansCondensed-Bold
 70
0
 40
0.0
 41
1.0
 50
0.0
 71
0
 42
2.5
  3
OpenSansCondensed-Bold.ttf
  4

  0
STYLE
  5
4C
330
5
100
AcDbSymbolTableRecord
100
AcDbTextStyleTableRecord
  2
OpenSansCondensed-Light
 70
0
 40
0.0
 41
1.0
 50
0.0
 71
0
 42
2.5
  3
OpenSansCondensed-Light.ttf
  4

  0
STYLE
  5
4D
330
5
100
AcDbSymbolTableRecord
100
AcDbTextStyleTableRecord
  2
OpenSansCondensed-Italic
 70
0
 40
0.0
 41
1.0
 50
0.0
 71
0
 42
2.5
  3
OpenSansCondensed-LightItalic.ttf
  4

  0
STYLE
  5
4E
330
5
100
AcDbSymbolTableRecord
100
AcDbTextStyleTableRecord
  2
LiberationSans
 70
0
 40
0.0
 41
1.0
 50
0.0
 71
0
 42
2.5
  3
LiberationSans-Regular.ttf
  4

  0
STYLE
  5
4F
330
5
100
AcDbSymbolTableRecord
100
AcDbTextStyleTableRecord
  2
LiberationSans-Bold
 70
0
 40
0.0
 41
1.0
 50
0.0
 71
0
 42
2.5
  3
LiberationSans-Bold.ttf
  4

  0
STYLE
  5
50
330
5
100
AcDbSymbolTableRecord
100
AcDbTextStyleTableRecord
  2
LiberationSans-BoldItalic
 70
0
 40
0.0
 41
1.0
 50
0.0
 71
0
 42
2.5
  3
LiberationSans-BoldItalic.ttf
  4

  0
STYLE
  5
51
330
5
100
AcDbSymbolTableRecord
100
AcDbTextStyleTableRecord
  2
LiberationSans-Italic
 70
0
 40
0.0
 41
1.0
 50
0.0
 71
0
 42
2.5
  3
LiberationSans-Italic.ttf
  4

  0
STYLE
  5
52
330
5
100
AcDbSymbolTableRecord
100
AcDbTextStyleTableRecord
  2
LiberationSerif
 70
0
 40
0.0
 41
1.0
 50
0.0
 71
0
 42
2.5
  3
LiberationSerif-Regular.ttf
  4

  0
STYLE
  5
53
330
5
100
AcDbSymbolTableRecord
100
AcDbTextStyleTableRecord
  2
LiberationSerif-Bold
 70
0
 40
0.0
 41
1.0
 50
0.0
 71
0
 42
2.5
  3
LiberationSerif-Bold.ttf
  4

  0
STYLE
  5
54
330
5
100
AcDbSymbolTableRecord
100
AcDbTextStyleTableRecord
  2
LiberationSerif-BoldItalic
 70
0
 40
0.0
 41
1.0
 50
0.0
 71
0
 42
2.5
  3
LiberationSerif-BoldItalic.ttf
  4

  0
STYLE
  5
55
330
5
100
AcDbSymbolTableRecord
100
AcDbTextStyleTableRecord
  2
LiberationSerif-Italic
 70
0
 40
0.0
 41
1.0
 50
0.0
 71
0
 42
2.5
  3
LiberationSerif-Italic.ttf
  4

  0
STYLE
  5
56
330
5
100
AcDbSymbolTableRecord
100
AcDbTextStyleTableRecord
  2
LiberationMono
 70
0
 40
0.0
 41
1.0
 50
0.0
 71
0
 42
2.5
  3
LiberationMono-Regular.ttf
  4

  0
STYLE
  5
57
330
5
100
AcDbSymbolTableRecord
100
AcDbTextStyleTableRecord
  2
LiberationMono-Bold
 70
0
 40
0.0
 41
1.0
 50
0.0
 71
0
 42
2.5
  3
LiberationMono-Bold.ttf
  4

  0
STYLE
  5
58
330
5
100
AcDbSymbolTableRecord
100
AcDbTextStyleTableRecord
  2
LiberationMono-BoldItalic
 70
0
 40
0.0
 41
1.0
 50
0.0
 71
0
 42
2.5
  3
LiberationMono-BoldItalic.ttf
  4

  0
STYLE
  5
59
330
5
100
AcDbSymbolTableRecord
100
AcDbTextStyleTableRecord
  2
LiberationMono-Italic
 70
0
 40
0.0
 41
1.0
 50
0.0
 71
0
 42
2.5
  3
LiberationMono-Italic.ttf
  4

  0
ENDTAB
  0
TABLE
  2
VIEW
  5
7
330
0
100
AcDbSymbolTable
 70
0
  0
ENDTAB
  0
TABLE
  2
UCS
  5
6
330
0
100
AcDbSymbolTable
 70
0
  0
ENDTAB
  0
TABLE
  2
APPID
  5
3
330
0
100
AcDbSymbolTable
 70
3
  0
APPID
  5
2A
330
3
100
AcDbSymbolTableRecord
100
AcDbRegAppTableRecord
  2
ACAD
 70
0
  0
APPID
  5
12B
330
3
100
AcDbSymbolTableRecord
100
AcDbRegAppTableRecord
  2
HATCHBACKGROUNDCOLOR
 70
0
  0
APPID
  5
12C
330
3
100
AcDbSymbolTableRecord
100
AcDbRegAppTableRecord
  2
EZDXF
 70
0
  0
ENDTAB
  0
TABLE
  2
DIMSTYLE
  5
4
330
0
100
AcDbSymbolTable
 70
12
100
AcDbDimStyleTable
  0
DIMSTYLE
105
2B
330
4
100
AcDbSymbolTableRecord
100
AcDbDimStyleTableRecord
  2
Standard
 70
0
 40
1.0
 41
2.5
 42
0.625
 43
3.75
 44
1.25
 45
0.0
 46
0.0
 47
0.0
 48
0.0
 49
2.5
140
2.5
141
2.5
142
0.0
143
0.03937007874
144
1.0
145
0.0
146
1.0
147
0.625
148
0.0
 69
0
 70
0
 71
0
 72
0
 73
0
 74
0
 75
0
 76
0
 77
1
 78
8
 79
3
170
0
171
3
172
1
173
0
174
0
175
0
176
0
177
0
178
0
179
2
271
2
272
2
273
2
274
3
275
0
276
0
277
2
278
44
279
0
280
0
281
0
282
0
283
0
284
8
285
0
286
0
288
0
289
3
290
0
371
-2
372
-2
  0
DIMSTYLE
105
73
330
4
100
AcDbSymbolTableRecord
100
AcDbDimStyleTableRecord
  2
EZDXF
 70
0
 40
1.0
 41
0.175
 42
0.125
 43
3.75
 44
0.375
 45
0.0
 46
0.0
 47
0.0
 48
0.0
 49
2.5
140
0.25
141
2.5
142
0.0
143
0.03937007874
144
100.0
145
0.0
146
0.5
147
0.1
148
0.0
 69
0
 70
0
 71
0
 72
0
 73
0
 74
0
 75
0
 76
0
 77
1
 78
12
 79
3
170
0
171
3
172
1
173
0
174
0
175
0
176
0
177
0
178
0
179
2
271
2
272
2
273
2
274
3
275
0
276
0
277
2
278
46
279
2
280
0
281
0
282
0
283
0
284
8
285
0
286
0
288
1
289
3
290
0
340
4C
342
74
371
-2
372
-2
  0
DIMSTYLE
105
7C
330
4
100
AcDbSymbolTableRecord
100
AcDbDimStyleTableRecord
  2
EZ_M_100_H25_CM
 70
0
 40
1.0
 41
0.25
 42
0.125
 43
3.75
 44
0.375
 45
0.0
 46
0.0
 47
0.0
 48
0.0
 49
2.5
140
0.25
141
2.5
142
0.125
143
0.03937007874
144
100.0
145
0.0
146
0.5
147
0.1
148
0.0
 69
0
 70
0
 71
0
 72
0
 73
0
 74
0
 75
0
 76
0
 77
1
 78
12
 79
3
170
0
171
3
172
1
173
0
174
0
175
0
176
0
177
0
178
0
179
2
271
2
272
2
273
2
274
3
275
0
276
0
277
2
278
46
279
2
280
0
281
0
282
0
283
0
284
8
285
0
286
0
288
1
289
3
290
0
340
4C
371
-2
372
-2
  0
DIMSTYLE
105
7D
330
4
100
AcDbSymbolTableRecord
100
AcDbDimStyleTableRecord
  2
EZ_M_50_H25_CM
 70
0
 40
1.0
 41
0.125
 42
0.0625
 43
3.75
 44
0.1875
 45
0.0
 46
0.0
 47
0.0
 48
0.0
 49
2.5
140
0.125
141
2.5
142
0.0625
143
0.03937007874
144
100.0
145
0.0
146
0.5
147
0.05
148
0.0
 69
0
 70
0
 71
0
 72
0
 73
0
 74
0
 75
0
 76
0
 77
1
 78
12
 79
3
170
0
171
3
172
1
173
0
174
0
175
0
176
0
177
0
178
0
179
2
271
2
272
2
273
2
274
3
275
0
276
0
277
2
278
46
279
2
280
0
281
0
282
0
283
0
284
8
285
0
286
0
288
1
289
3
290
0
340
4C
371
-2
372
-2
  0
DIMSTYLE
105
7E
330
4
100
AcDbSymbolTableRecord
100
AcDbDimStyleTableRecord
  2
EZ_M_25_H25_CM
 70
0
 40
1.0
 41
0.0625
 42
0.03125
 43
3.75
 44
0.09375
 45
0.0
 46
0.0
 47
0.0
 48
0.0
 49
2.5
140
0.0625
141
2.5
142
0.03125
143
0.03937007874
144
100.0
145
0.0
146
0.5
147
0.025
148
0.0
 69
0
 70
0
 71
0
 72
0
 73
0
 74
0
 75
0
 76
0
 77
1
 78
12
 79
3
170
0
171
3
172
1
173
0
174
0
175
0
176
0
177
0
178
0
179
2
271
2
272
2
273
2
274
3
275
0
276
0
277
2
278
46
279
2
280
0
281
0
282
0
283
0
284
8
285
0
286
0
288
1
289
3
290
0
340
4C
371
-2
372
-2
  0
DIMSTYLE
105
7F
330
4
100
AcDbSymbolTableRecord
100
AcDbDimStyleTableRecord
  2
EZ_M_20_H25_CM
 70
0
 40
1.0
 41
0.05
 42
0.025
 43
3.75
 44
0.07500000000000001
 45
0.0
 46
0.0
 47
0.0
 48
0.0
 49
2.5
140
0.05
141
2.5
142
0.025
143
0.03937007874
144
100.0
145
0.0
146
0.5
147
0.020000000000000004
148
0.0
 69
0
 70
0
 71
0
 72
0
 73
0
 74
0
 75
0
 76
0
 77
1
 78
12
 79
3
170
0
171
3
172
1
173
0
174
0
175
0
176
0
177
0
178
0
179
2
271
2
272
2
273
2
274
3
275
0
276
0
277
2
278
46
279
2
280
0
281
0
282
0
283
0
284
8
285
0
286
0
288
1
289
3
290
0
340
4C
371
-2
372
-2
  0
DIMSTYLE
105
80
330
4
100
AcDbSymbolTableRecord
100
AcDbDimStyleTableRecord
  2
EZ_M_10_H25_CM
 70
0
 40
1.0
 41
0.025
 42
0.0125
 43
3.75
 44
0.037500000000000006
 45
0.0
 46
0.0
 47
0.0
 48
0.0
 49
2.5
140
0.025
141
2.5
142
0.0125
143
0.03937007874
144
100.0
145
0.0
146
0.5
147
0.010000000000000002
148
0.0
 69
0
 70
0
 71
0
 72
0
 73
0
 74
0
 75
0
 76
0
 77
1
 78
12
 79
3
170
0
171
3
172
1
173
0
174
0
175
0
176
0
177
0
178
0
179
2
271
2
272
2
273
2
274
3
275
0
276
0
277
2
278
46
279
2
280
0
281
0
282
0
283
0
284
8
285
0
286
0
288
1
289
3
290
0
340
4C
371
-2
372
-2
  0
DIMSTYLE
105
81
330
4
100
AcDbSymbolTableRecord
100
AcDbDimStyleTableRecord
  2
EZ_M_5_H25_CM
 70
0
 40
1.0
 41
0.0125
 42
0.00625
 43
3.75
 44
0.018750000000000003
 45
0.0
 46
0.0
 47
0.0
 48
0.0
 49
2.5
140
0.0125
141
2.5
142
0.00625
143
0.03937007874
144
100.0
145
0.0
146
0.5
147
0.005000000000000001
148
0.0
 69
0
 70
0
 71
0
 72
0
 73
0
 74
0
 75
0
 76
0
 77
1
 78
12
 79
3
170
0
171
3
172
1
173
0
174
0
175
0
176
0
177
0
178
0
179
2
271
2
272
2
273
2
274
3
275
0
276
0
277
2
278
46
279
2
280
0
281
0
282
0
283
0
284
8
285
0
286
0
288
1
289
3
290
0
340
4C
371
-2
372
-2
  0
DIMSTYLE
105
82
330
4
100
AcDbSymbolTableRecord
100
AcDbDimStyleTableRecord
  2
EZ_M_1_H25_CM
 70
0
 40
1.0
 41
0.0025
 42
0.00125
 43
3.75
 44
0.00375
 45
0.0
 46
0.0
 47
0.0
 48
0.0
 49
2.5
140
0.0025
141
2.5
142
0.00125
143
0.03937007874
144
100.0
145
0.0
146
0.5
147
0.001
148
0.0
 69
0
 70
0
 71
0
 72
0
 73
0
 74
0
 75
0
 76
0
 77
1
 78
12
 79
3
170
0
171
3
172
1
173
0
174
0
175
0
176
0
177
0
178
0
179
2
271
2
272
2
273
2
274
3
275
0
276
0
277
2
278
46
279
2
280
0
281
0
282
0
283
0
284
8
285
0
286
0
288
1
289
3
290
0
340
4C
371
-2
372
-2
  0
DIMSTYLE
105
83
330
4
100
AcDbSymbolTableRecord
100
AcDbDimStyleTableRecord
  2
EZ_RADIUS
 70
0
 40
1.0
 41
0.25
 42
0.125
 43
3.75
 44
0.375
 45
0.0
 46
0.0
 47
0.0
 48
0.0
 49
2.5
140
0.25
141
0.0
142
0.0
143
0.03937007874
144
100.0
145
0.0
146
0.5
147
0.1
148
0.0
 69
0
 70
0
 71
0
 72
0
 73
0
 74
0
 75
0
 76
0
 77
1
 78
12
 79
3
170
0
171
3
172
0
173
0
174
0
175
0
176
0
177
0
178
0
179
2
271
2
272
2
273
2
274
3
275
0
276
0
277
2
278
46
279
1
280
0
281
0
282
0
283
0
284
8
285
0
286
0
288
1
289
3
290
0
340
4C
342
84
371
-2
372
-2
  0
DIMSTYLE
105
88
330
4
100
AcDbSymbolTableRecord
100
AcDbDimStyleTableRecord
  2
EZ_RADIUS_INSIDE
 70
0
 40
1.0
 41
0.25
 42
0.125
 43
3.75
 44
0.375
 45
0.0
 46
0.0
 47
0.0
 48
0.0
 49
2.5
140
0.25
141
0.0
142
0.0
143
0.03937007874
144
100.0
145
0.0
146
0.5
147
0.1
148
0.0
 69
0
 70
0
 71
0
 72
0
 73
0
 74
0
 75
0
 76
0
 77
0
 78
12
 79
3
170
0
171
3
172
0
173
0
174
1
175
0
176
0
177
0
178
0
179
2
271
2
272
2
273
2
274
3
275
0
276
0
277
2
278
46
279
0
280
0
281
0
282
0
283
0
284
8
285
0
286
0
288
1
289
0
290
0
340
4C
342
84
371
-2
372
-2
  0
DIMSTYLE
105
89
330
4
100
AcDbSymbolTableRecord
100
AcDbDimStyleTableRecord
  2
EZ_CURVED
 70
0
 40
1.0
 41
0.25
 42
0.125
 43
3.75
 44
0.375
 45
0.0
 46
0.0
 47
0.0
 48
0.0
 49
2.5
140
0.25
141
2.5
142
0.0
143
0.03937007874
144
100.0
145
0.0
146
0.5
147
0.1
148
0.0
 69
0
 70
0
 71
0
 72
0
 73
0
 74
0
 75
0
 76
0
 77
1
 78
12
 79
2
 90
2
170
0
171
3
172
1
173
0
174
0
175
0
176
0
177
0
178
0
179
2
271
2
272
2
273
2
274
3
275
0
276
0
277
2
278
46
279
2
280
0
281
0
282
0
283
0
284
8
285
0
286
0
288
1
289
3
290
0
340
4C
371
-2
372
-2
  0
ENDTAB
  0
TABLE
  2
BLOCK_RECORD
  5
9
330
0
100
AcDbSymbolTable
 70
15
  0
BLOCK_RECORD
  5
17
330
9
100
AcDbSymbolTableRecord
100
AcDbBlockTableRecord
  2
*Model_Space
340
1A
 70
0
280
1
281
0
  0
BLOCK_RECORD
  5
1B
330
9
100
AcDbSymbolTableRecord
100
AcDbBlockTableRecord
  2
*Paper_Space
340
1E
 70
0
280
1
281
0
  0
BLOCK_RECORD
  5
74
330
9
100
AcDbSymbolTableRecord
100
AcDbBlockTableRecord
  2
_ARCHTICK
340
0
 70
0
280
1
281
0
  0
BLOCK_RECORD
  5
78
330
9
100
AcDbSymbolTableRecord
100
AcDbBlockTableRecord
  2
_CLOSEDFILLED
340
0
 70
0
280
1
281
0
  0
BLOCK_RECORD
  5
84
330
9
100
AcDbSymbolTableRecord
100
AcDbBlockTableRecord
  2
_CLOSEDBLANK
340
0
 70
0
280
1
281
0
  0
BLOCK_RECORD
  5
92
330
9
100
AcDbSymbolTableRecord
100
AcDbBlockTableRecord
  2
P01_DELANTERO
340
0
 70
0
280
1
281
0
  0
BLOCK_RECORD
  5
A4
330
9
100
AcDbSymbolTableRecord
100
AcDbBlockTableRecord
  2
P02_ESPALDA
340
0
 70
0
280
1
281
0
  0
BLOCK_RECORD
  5
B3
330
9
100
AcDbSymbolTableRecord
100
AcDbBlockTableRecord
  2
P03_CANESU
340
0
 70
0
280
1
281
0
  0
BLOCK_RECORD
  5
C2
330
9
100
AcDbSymbolTableRecord
100
AcDbBlockTableRecord
  2
P04_MANGA
340
0
 70
0
280
1
281
0
  0
BLOCK_RECORD
  5
D5
330
9
100
AcDbSymbolTableRecord
100
AcDbBlockTableRecord
  2
P05_PUNO
340
0
 70
0
280
1
281
0
  0
BLOCK_RECORD
  5
E4
330
9
100
AcDbSymbolTableRecord
100
AcDbBlockTableRecord
  2
P06_TAPETA_MANGA
340
0
 70
0
280
1
281
0
  0
BLOCK_RECORD
  5
F2
330
9
100
AcDbSymbolTableRecord
100
AcDbBlockTableRecord
  2
P07_CUELLO
340
0
 70
0
280
1
281
0
  0
BLOCK_RECORD
  5
100
330
9
100
AcDbSymbolTableRecord
100
AcDbBlockTableRecord
  2
P08_PIE_DE_CUELLO
340
0
 70
0
280
1
281
0
  0
BLOCK_RECORD
  5
10E
330
9
100
AcDbSymbolTableRecord
100
AcDbBlockTableRecord
  2
P09_VISTA_DELANTERA
340
0
 70
0
280
1
281
0
  0
BLOCK_RECORD
  5
11C
330
9
100
AcDbSymbolTableRecord
100
AcDbBlockTableRecord
  2
P10_BOLSILLO
340
0
 70
0
280
1
281
0
  0
ENDTAB
  0
ENDSEC
  0
SECTION
  2
BLOCKS
  0
BLOCK
  5
18
330
17
100
AcDbEntity
  8
0
100
AcDbBlockBegin
  2
*Model_Space
 70
0
 10
0.0
 20
0.0
 30
0.0
  3
*Model_Space
  1

  0
ENDBLK
  5
19
330
17
100
AcDbEntity
  8
0
100
AcDbBlockEnd
  0
BLOCK
  5
1C
330
1B
100
AcDbEntity
  8
0
100
AcDbBlockBegin
  2
*Paper_Space
 70
0
 10
0.0
 20
0.0
 30
0.0
  3
*Paper_Space
  1

  0
ENDBLK
  5
1D
330
1B
100
AcDbEntity
  8
0
100
AcDbBlockEnd
  0
BLOCK
  5
75
330
74
100
AcDbEntity
  8
0
100
AcDbBlockBegin
  2
_ARCHTICK
 70
0
 10
0.0
 20
0.0
 30
0.0
  3
_ARCHTICK
  1

  0
LWPOLYLINE
  5
77
330
74
100
AcDbEntity
  8
0
  6
BYBLOCK
 62
0
100
AcDbPolyline
 90
2
 70
0
 43
0.15
 10
-0.5
 20
-0.5
 10
0.5
 20
0.5
  0
ENDBLK
  5
76
330
74
100
AcDbEntity
  8
0
100
AcDbBlockEnd
  0
BLOCK
  5
79
330
78
100
AcDbEntity
  8
0
100
AcDbBlockBegin
  2
_CLOSEDFILLED
 70
0
 10
0.0
 20
0.0
 30
0.0
  3
_CLOSEDFILLED
  1

  0
SOLID
  5
7B
330
78
100
AcDbEntity
  8
0
  6
BYBLOCK
 62
0
100
AcDbTrace
 10
-1.0
 20
0.16439898372402537
 30
0.0
 11
0.0
 21
0.0
 31
0.0
 12
-1.0
 22
-0.16439898372402537
 32
0.0
 13
-1.0
 23
-0.16439898372402537
 33
0.0
  0
ENDBLK
  5
7A
330
78
100
AcDbEntity
  8
0
100
AcDbBlockEnd
  0
BLOCK
  5
85
330
84
100
AcDbEntity
  8
0
100
AcDbBlockBegin
  2
_CLOSEDBLANK
 70
0
 10
0.0
 20
0.0
 30
0.0
  3
_CLOSEDBLANK
  1

  0
LWPOLYLINE
  5
87
330
84
100
AcDbEntity
  8
0
  6
BYBLOCK
 62
0
100
AcDbPolyline
 90
3
 70
1
 10
-1.0
 20
0.16439898372402537
 10
0.0
 20
0.0
 10
-1.0
 20
-0.16439898372402537
  0
ENDBLK
  5
86
330
84
100
AcDbEntity
  8
0
100
AcDbBlockEnd
  0
BLOCK
  5
93
330
92
100
AcDbEntity
  8
0
100
AcDbBlockBegin
  2
P01_DELANTERO
 70
0
 10
0.0
 20
0.0
 30
0.0
  3
P01_DELANTERO
  1

  0
LWPOLYLINE
  5
95
330
92
100
AcDbEntity
  8
1
100
AcDbPolyline
 90
78
 70
1
 10
-2.7
 20
-69.0
 10
25.0
 20
-69.0
 10
25.0
 20
-20.689402
 10
24.489125
 20
-20.034555
 10
24.188347
 20
-19.649889
 10
23.885338
 20
-19.264116
 10
23.579324
 20
-18.87713
 10
23.269532
 20
-18.488831
 10
22.955193
 20
-18.099129
 10
22.63554
 20
-17.707938
 10
22.30981
 20
-17.315179
 10
21.977242
 20
-16.92078
 10
21.637689
 20
-16.525379
 10
21.293651
 20
-16.131118
 10
20.95008
 20
-15.739332
 10
20.610848
 20
-15.349719
 10
20.279615
 20
-14.961898
 10
19.960041
 20
-14.575666
 10
19.655762
 20
-14.190994
 10
19.370347
 20
-13.808039
 10
19.107249
 20
-13.427134
 10
18.869716
 20
-13.048772
 10
18.660695
 20
-12.673544
 10
18.482715
 20
-12.302021
 10
18.337786
 20
-11.934549
 10
18.227337
 20
-11.570821
 10
18.15161
 20
-11.206208
 10
18.10886
 20
-10.831574
 10
18.096894
 20
-10.441493
 10
18.114347
 20
-10.035459
 10
18.159685
 20
-9.613976
 10
18.231026
 20
-9.178064
 10
18.326119
 20
-8.729008
 10
18.442377
 20
-8.268182
 10
18.576948
 20
-7.796935
 10
18.726775
 20
-7.316528
 10
18.888654
 20
-6.828098
 10
19.059276
 20
-6.33265
 10
19.529318
 20
-4.992848
 10
6.848414
 20
1.220528
 10
6.143099
 20
0.480375
 10
5.942945
 20
0.269875
 10
5.742503
 20
0.058145
 10
5.542009
 20
-0.155039
 10
5.341703
 20
-0.369899
 10
5.141828
 20
-0.586665
 10
4.942628
 20
-0.805564
 10
4.744354
 20
-1.026828
 10
4.547258
 20
-1.250689
 10
4.351596
 20
-1.477379
 10
4.157628
 20
-1.707133
 10
3.965619
 20
-1.940183
 10
3.775837
 20
-2.176765
 10
3.58881
 20
-2.416781
 10
3.405879
 20
-2.658619
 10
3.227577
 20
-2.899912
 10
3.053237
 20
-3.13946
 10
2.881977
 20
-3.376424
 10
2.712961
 20
-3.609982
 10
2.545398
 20
-3.839328
 10
2.378543
 20
-4.063673
 10
2.211695
 20
-4.282251
 10
2.044194
 20
-4.494324
 10
1.875414
 20
-4.699194
 10
1.704759
 20
-4.896214
 10
1.531647
 20
-5.084796
 10
1.355375
 20
-5.264551
 10
1.173572
 20
-5.436826
 10
0.983351
 20
-5.604624
 10
0.783987
 20
-5.769743
 10
0.576093
 20
-5.932817
 10
0.360393
 20
-6.094477
 10
0.137666
 20
-6.255393
 10
-0.091265
 20
-6.416279
 10
-0.698403
 20
-6.835134
 10
-0.886819
 20
-8.4
 10
-2.7
 20
-8.4
 10
-2.7
 20
-69.0
  0
LWPOLYLINE
  5
96
330
92
100
AcDbEntity
  8
8
100
AcDbPolyline
 90
77
 70
1
 10
-1.7
 20
-9.4
 10
0.0
 20
-9.4
 10
0.24053530935266393
 20
-7.402258011346288
 10
0.48016801990275393
 20
-7.236939356645195
 10
0.7179955328476918
 20
-7.069800703182668
 10
0.9531152493849036
 20
-6.89993205157799
 10
1.1846245707118153
 20
-6.726423402450446
 10
1.4116208980258491
 20
-6.54836475641932
 10
1.6332016325244307
 20
-6.364846114103895
 10
1.8484641754049862
 20
-6.174957476123453
 10
2.0565215258100866
 20
-5.977804417580404
 10
2.2571777581271126
 20
-5.773182549324599
 10
2.4511870079421247
 20
-5.561836114347283
 10
2.6393724564264347
 20
-5.344578297368386
 10
2.822557284751358
 20
-5.122222283107834
 10
3.001564674088206
 20
-4.89558125628556
 10
3.1772178056082923
 20
-4.66546840162149
 10
3.3503398604829306
 20
-4.432696903835553
 10
3.521754019883433
 20
-4.198079947647681
 10
3.6922834649811134
 20
-3.962430717777799
 10
3.862751376947286
 20
-3.7265623989458385
 10
4.033980936953261
 20
-3.4912881758717287
 10
4.206795326170355
 20
-3.2574212332753967
 10
4.382017725759674
 20
-3.025774755866801
 10
4.560293653536143
 20
-2.7969883285130757
 10
4.741566183725888
 20
-2.5710151587321346
 10
4.9256048084509665
 20
-2.347638842095301
 10
5.112179019833432
 20
-2.1266429741738984
 10
5.301058309995341
 20
-1.9078111505392532
 10
5.49201217105875
 20
-1.690926966762689
 10
5.684810095145714
 20
-1.475774018415529
 10
5.8792215743782865
 20
-1.2621359010690987
 10
6.075016100878527
 20
-1.049796210294722
 10
6.271963166768489
 20
-0.8385385416637241
 10
6.469832264170229
 20
-0.6281464907474282
 10
6.6683928852058
 20
-0.4184036531171595
 10
6.8674145219972615
 20
-0.20909362434424192
 10
7.066666666666666
 20
-0.0
 10
18.29163882698849
 20
-5.5
 10
18.114709330960984
 20
-6.004317546821408
 10
17.941257963237973
 20
-6.507981564582717
 10
17.774762852123946
 20
-7.0103385242238225
 10
17.618702125923377
 20
-7.510734896684621
 10
17.476553912940776
 20
-8.008517152905013
 10
17.351796341480625
 20
-8.503031763824898
 10
17.24790753984741
 20
-8.993625200384171
 10
17.16836563634562
 20
-9.479643933522736
 10
17.116648759279755
 20
-9.960434434180485
 10
17.096235036954294
 20
-10.435343173297321
 10
17.110602597673733
 20
-10.903716621813139
 10
17.163229569742562
 20
-11.364901250667842
 10
17.257390904975626
 20
-11.818276165465177
 10
17.39268187709759
 20
-12.263811509963842
 10
17.56549765491934
 20
-12.701991435957344
 10
17.77212673208213
 20
-13.133317229644398
 10
18.008857602227224
 20
-13.558290177223713
 10
18.271978758995886
 20
-13.977411564894004
 10
18.557778696029377
 20
-14.391182678853983
 10
18.86254590696897
 20
-14.800104805302364
 10
19.18256888545591
 20
-15.204679230437863
 10
19.514136125131476
 20
-15.605407240459183
 10
19.853536119636924
 20
-16.002790121565045
 10
20.197057362613513
 20
-16.397329159954165
 10
20.540988347702516
 20
-16.789525641825247
 10
20.881617568545188
 20
-17.179880853377014
 10
21.21565655989328
 20
-17.568860870362094
 10
21.542687571244294
 20
-17.95669283396097
 10
21.86348581153443
 20
-18.34350459326892
 10
22.178830377146294
 20
-18.729423673822307
 10
22.489500364462508
 20
-19.1145776011575
 10
22.796274869865663
 20
-19.499093900810863
 10
23.099932989738384
 20
-19.88310009831876
 10
23.40125382046327
 20
-20.26672371921756
 10
23.701016458422945
 20
-20.650092289043627
 10
24.0
 20
-21.03333333333333
 10
24.0
 20
-68.0
 10
-1.7
 20
-68.0
  0
LINE
  5
97
330
92
100
AcDbEntity
  8
7
100
AcDbLine
 10
12.0
 20
-12.4
 30
0.0
 11
12.0
 21
-65.0
 31
0.0
  0
LINE
  5
98
330
92
100
AcDbEntity
  8
7
100
AcDbLine
 10
12.0
 20
-65.0
 30
0.0
 11
11.53269798922962
 21
-63.89472680719654
 31
0.0
  0
LINE
  5
99
330
92
100
AcDbEntity
  8
7
100
AcDbLine
 10
12.0
 20
-65.0
 30
0.0
 11
12.46730201077038
 21
-63.89472680719654
 31
0.0
  0
LINE
  5
9A
330
92
100
AcDbEntity
  8
7
100
AcDbLine
 10
12.0
 20
-12.4
 30
0.0
 11
12.46730201077038
 21
-13.505273192803463
 31
0.0
  0
LINE
  5
9B
330
92
100
AcDbEntity
  8
7
100
AcDbLine
 10
12.0
 20
-12.4
 30
0.0
 11
11.53269798922962
 21
-13.505273192803463
 31
0.0
  0
LINE
  5
9C
330
92
100
AcDbEntity
  8
4
100
AcDbLine
 10
17.216294249427346
 20
-11.620400969010719
 30
0.0
 11
16.531461378968796
 21
-11.475473609483602
 31
0.0
  0
LINE
  5
9D
330
92
100
AcDbEntity
  8
4
100
AcDbLine
 10
24.0
 20
-42.7
 30
0.0
 11
23.74473092826376
 21
-42.04820424900517
 31
0.0
  0
CIRCLE
  5
9E
330
92
100
AcDbEntity
  8
6
100
AcDbCircle
 10
13.200000000000001
 20
-25.0
 30
0.0
 40
0.15
  0
LINE
  5
9F
330
92
100
AcDbEntity
  8
11
100
AcDbLine
 10
0.0
 20
-9.4
 30
0.0
 11
0.0
 21
-68.0
 31
0.0
  0
TEXT
  5
A0
330
92
100
AcDbEntity
  8
13
100
AcDbText
 10
11.34105311548767
 20
-9.377056467224692
 30
0.0
 40
0.9
  1
DELANTERO #01
 72
1
 11
11.34105311548767
 21
-9.377056467224692
 31
0.0
100
AcDbText
 73
2
  0
TEXT
  5
A1
330
92
100
AcDbEntity
  8
15
100
AcDbText
 10
11.34105311548767
 20
-10.777056467224693
 30
0.0
 40
0.6
  1
T:S  x2
 72
1
 11
11.34105311548767
 21
-10.777056467224693
 31
0.0
100
AcDbText
 73
2
  0
ENDBLK
  5
94
330
92
100
AcDbEntity
  8
0
100
AcDbBlockEnd
  0
BLOCK
  5
A5
330
A4
100
AcDbEntity
  8
0
100
AcDbBlockBegin
  2
P02_ESPALDA
 70
0
 10
0.0
 20
0.0
 30
0.0
  3
P02_ESPALDA
  1

  0
LWPOLYLINE
  5
A7
330
A4
100
AcDbEntity
  8
1
100
AcDbPolyline
 90
30
 70
1
 10
25.0
 20
-20.745551
 10
24.576683
 20
-20.070981
 10
24.305985
 20
-19.639766
 10
24.034673
 20
-19.207875
 10
23.762482
 20
-18.775037
 10
23.489147
 20
-18.340983
 10
23.214404
 20
-17.905443
 10
22.938275
 20
-17.468599
 10
22.659963
 20
-17.029341
 10
22.379282
 20
-16.587526
 10
22.097791
 20
-16.145394
 10
21.817353
 20
-15.703108
 10
21.540913
 20
-15.26145
 10
21.270819
 20
-14.820355
 10
21.009404
 20
-14.379822
 10
20.758966
 20
-13.939912
 10
20.521767
 20
-13.500742
 10
20.300011
 20
-13.06248
 10
20.095827
 20
-12.625328
 10
19.911248
 20
-12.189507
 10
19.748188
 20
-11.755222
 10
19.608427
 20
-11.322618
 10
19.493601
 20
-10.891721
 10
19.405138
 20
-10.462013
 10
19.3437
 20
-10.029725
 10
19.25981
 20
-9.0
 10
0.0
 20
-9.0
 10
0.0
 20
-69.0
 10
25.0
 20
-69.0
 10
25.0
 20
-20.745551
  0
LWPOLYLINE
  5
A8
330
A4
100
AcDbEntity
  8
8
100
AcDbPolyline
 90
29
 70
1
 10
0.0
 20
-10.0
 10
18.33796546167866
 20
-10.0
 10
18.349434484481634
 20
-10.14077830238598
 10
18.41943961127542
 20
-10.633350259591031
 10
18.5199293263452
 20
-11.121478466914345
 10
18.64885156791701
 20
-11.605269443511343
 10
18.803794464454676
 20
-12.084866396776762
 10
18.982346144422003
 20
-12.560412534105323
 10
19.182094736282814
 20
-13.032051062891755
 10
19.400628368500914
 20
-13.499925190530792
 10
19.635535169540116
 20
-13.964178124417153
 10
19.88440326786424
 20
-14.42495307194557
 10
20.144820791937093
 20
-14.882393240510767
 10
20.414375870222496
 20
-15.336641837507482
 10
20.690656631184254
 20
-15.787842070330436
 10
20.971251203286187
 20
-16.236137146374354
 10
21.25374771499211
 20
-16.681670273033973
 10
21.535737769338873
 20
-17.124584825117378
 10
21.81556674192044
 20
-17.56506049602517
 10
22.09327028224424
 20
-18.003358420660238
 10
22.3691140693425
 20
-18.43975081730669
 10
22.643363782247437
 20
-18.874509904248615
 10
22.91628509999127
 20
-19.307907899770093
 10
23.188143701606226
 20
-19.74021702215521
 10
23.45920526612452
 20
-20.17170948968807
 10
23.72973547257837
 20
-20.60265752065274
 10
24.0
 20
-21.03333333333333
 10
24.0
 20
-68.0
 10
0.0
 20
-68.0
  0
LINE
  5
A9
330
A4
100
AcDbEntity
  8
7
100
AcDbLine
 10
0.5
 20
-13.0
 30
0.0
 11
0.5
 21
-65.0
 31
0.0
  0
LINE
  5
AA
330
A4
100
AcDbEntity
  8
7
100
AcDbLine
 10
0.5
 20
-65.0
 30
0.0
 11
0.032697989229619584
 21
-63.89472680719654
 31
0.0
  0
LINE
  5
AB
330
A4
100
AcDbEntity
  8
7
100
AcDbLine
 10
0.5
 20
-65.0
 30
0.0
 11
0.9673020107703805
 21
-63.89472680719654
 31
0.0
  0
LINE
  5
AC
330
A4
100
AcDbEntity
  8
7
100
AcDbLine
 10
0.5
 20
-13.0
 30
0.0
 11
0.9673020107703805
 21
-14.105273192803462
 31
0.0
  0
LINE
  5
AD
330
A4
100
AcDbEntity
  8
7
100
AcDbLine
 10
0.5
 20
-13.0
 30
0.0
 11
0.032697989229619584
 21
-14.105273192803462
 31
0.0
  0
LINE
  5
AE
330
A4
100
AcDbEntity
  8
4
100
AcDbLine
 10
9.16898273083933
 20
-10.0
 30
0.0
 11
9.697058220273748
 21
-10.459495677301321
 31
0.0
  0
TEXT
  5
AF
330
A4
100
AcDbEntity
  8
13
100
AcDbText
 10
19.427230931026852
 20
-17.926035763785674
 30
0.0
 40
0.9
  1
ESPALDA #02
 72
1
 11
19.427230931026852
 21
-17.926035763785674
 31
0.0
100
AcDbText
 73
2
  0
TEXT
  5
B0
330
A4
100
AcDbEntity
  8
15
100
AcDbText
 10
19.427230931026852
 20
-19.326035763785672
 30
0.0
 40
0.6
  1
T:S  x1  AL DOBLEZ
 72
1
 11
19.427230931026852
 21
-19.326035763785672
 31
0.0
100
AcDbText
 73
2
  0
ENDBLK
  5
A6
330
A4
100
AcDbEntity
  8
0
100
AcDbBlockEnd
  0
BLOCK
  5
B4
330
B3
100
AcDbEntity
  8
0
100
AcDbBlockBegin
  2
P03_CANESU
 70
0
 10
0.0
 20
0.0
 30
0.0
  3
P03_CANESU
  1

  0
LWPOLYLINE
  5
B6
330
B3
100
AcDbEntity
  8
1
100
AcDbPolyline
 90
46
 70
1
 10
19.307872
 20
-9.589951
 10
19.295862
 20
-9.141007
 10
19.306055
 20
-8.682976
 10
19.336762
 20
-8.216159
 10
19.386182
 20
-7.741007
 10
19.452403
 20
-7.258058
 10
19.533398
 20
-6.767892
 10
19.627044
 20
-6.271094
 10
19.731133
 20
-5.768231
 10
19.843385
 20
-5.259836
 10
19.96146
 20
-4.746396
 10
20.290516
 20
-3.343438
 10
7.066601
 20
1.123075
 10
6.436775
 20
0.615514
 10
6.237132
 20
0.456083
 10
6.039611
 20
0.301198
 10
5.843594
 20
0.151667
 10
5.648492
 20
0.008241
 10
5.453725
 20
-0.128387
 10
5.258365
 20
-0.257827
 10
5.060519
 20
-0.380527
 10
4.859026
 20
-0.497062
 10
4.654026
 20
-0.607285
 10
4.4459
 20
-0.710913
 10
4.23503
 20
-0.80767
 10
4.021798
 20
-0.897295
 10
3.806588
 20
-0.979534
 10
3.589781
 20
-1.054149
 10
3.371755
 20
-1.120913
 10
3.152843
 20
-1.179623
 10
2.93247
 20
-1.230311
 10
2.709033
 20
-1.273533
 10
2.481604
 20
-1.309973
 10
2.250142
 20
-1.34014
 10
2.014689
 20
-1.364549
 10
1.775322
 20
-1.383736
 10
1.53215
 20
-1.398261
 10
1.285297
 20
-1.40871
 10
1.034902
 20
-1.415697
 10
0.781108
 20
-1.419862
 10
0.524058
 20
-1.421872
 10
0.263893
 20
-1.422419
 10
0.0
 20
-1.422222
 10
0.0
 20
-11.0
 10
19.422747
 20
-11.0
 10
19.307872
 20
-9.589951
  0
LWPOLYLINE
  5
B7
330
B3
100
AcDbEntity
  8
8
100
AcDbPolyline
 90
45
 70
1
 10
0.0
 20
-2.422222222222222
 10
0.2645716642470621
 20
-2.422420119032532
 10
0.5290199457893109
 20
-2.4218634326669184
 10
0.7932214619219331
 20
-2.419797579949458
 10
1.0570528299401158
 20
-2.4154679777042274
 10
1.3203906671390453
 20
-2.408120042755303
 10
1.5831115908139084
 20
-2.3969991919267613
 10
1.8450922182598923
 20
-2.381350842042679
 10
2.106209166772184
 20
-2.360420409927132
 10
2.366339053645969
 20
-2.3334533124041976
 10
2.625358496176435
 20
-2.299694966297952
 10
2.8831441116587677
 20
-2.2583907884324717
 10
3.1395725173881557
 20
-2.2087861956318333
 10
3.3945165531761514
 20
-2.1501469155311796
 10
3.647757594058095
 20
-2.082230464471804
 10
3.8989829295250575
 20
-2.0053002388725725
 10
4.147875547299724
 20
-1.9196427649428145
 10
4.394118435104779
 20
-1.8255445688918586
 10
4.637394580662906
 20
-1.7232921769290346
 10
4.87738697169679
 20
-1.613172115263671
 10
5.113778595929117
 20
-1.495470910105097
 10
5.3462524410825685
 20
-1.3704750876626408
 10
5.574491494879831
 20
-1.2384711741456331
 10
5.79817874504359
 20
-1.0997456957634013
 10
6.017134915451306
 20
-0.954671252483749
 10
6.231857804423712
 20
-0.8040435600656276
 10
6.44305291315802
 20
-0.6487881314679592
 10
6.651425797701849
 20
-0.4898305139266527
 10
6.857682014102821
 20
-0.3280962546776179
 10
7.062527118408553
 20
-0.1645109009567634
 10
7.266666666666666
 20
-5.58022930971912e-16
 10
19.109385948993676
 20
-4.0
 10
18.987384717237052
 20
-4.520162224574292
 10
18.867845245328567
 20
-5.039970713510451
 10
18.753229293116352
 20
-5.5590717311703495
 10
18.645998620448555
 20
-6.077111541915853
 10
18.548614987173316
 20
-6.593736410108833
 10
18.463540153138755
 20
-7.108592600111157
 10
18.39323587819303
 20
-7.621326376284693
 10
18.340163922184264
 20
-8.131584002991312
 10
18.306786044960607
 20
-8.639011744592882
 10
18.29556400637019
 20
-9.14325586545127
 10
18.30895956626115
 20
-9.643962629928346
 10
18.33796546167866
 20
-10.0
 10
0.0
 20
-10.0
  0
LINE
  5
B8
330
B3
100
AcDbEntity
  8
7
100
AcDbLine
 10
4.26
 20
-1.0
 30
0.0
 11
4.26
 21
-9.5
 31
0.0
  0
LINE
  5
B9
330
B3
100
AcDbEntity
  8
7
100
AcDbLine
 10
4.26
 20
-9.5
 30
0.0
 11
3.7926979892296195
 21
-8.394726807196538
 31
0.0
  0
LINE
  5
BA
330
B3
100
AcDbEntity
  8
7
100
AcDbLine
 10
4.26
 20
-9.5
 30
0.0
 11
4.72730201077038
 21
-8.394726807196538
 31
0.0
  0
LINE
  5
BB
330
B3
100
AcDbEntity
  8
7
100
AcDbLine
 10
4.26
 20
-1.0
 30
0.0
 11
4.72730201077038
 21
-2.105273192803462
 31
0.0
  0
LINE
  5
BC
330
B3
100
AcDbEntity
  8
7
100
AcDbLine
 10
4.26
 20
-1.0
 30
0.0
 11
3.7926979892296195
 21
-2.105273192803462
 31
0.0
  0
LINE
  5
BD
330
B3
100
AcDbEntity
  8
4
100
AcDbLine
 10
9.16898273083933
 20
-10.0
 30
0.0
 11
9.04446807365121
 21
-9.311163226776237
 31
0.0
  0
TEXT
  5
BE
330
B3
100
AcDbEntity
  8
13
100
AcDbText
 10
7.982951970826856
 20
-2.4386712366175827
 30
0.0
 40
0.9
  1
CANESU #03
 72
1
 11
7.982951970826856
 21
-2.4386712366175827
 31
0.0
100
AcDbText
 73
2
  0
TEXT
  5
BF
330
B3
100
AcDbEntity
  8
15
100
AcDbText
 10
7.982951970826856
 20
-3.8386712366175826
 30
0.0
 40
0.6
  1
T:S  x2  AL DOBLEZ
 72
1
 11
7.982951970826856
 21
-3.8386712366175826
 31
0.0
100
AcDbText
 73
2
  0
ENDBLK
  5
B5
330
B3
100
AcDbEntity
  8
0
100
AcDbBlockEnd
  0
BLOCK
  5
C3
330
C2
100
AcDbEntity
  8
0
100
AcDbBlockBegin
  2
P04_MANGA
 70
0
 10
0.0
 20
0.0
 30
0.0
  3
P04_MANGA
  1

  0
LWPOLYLINE
  5
C5
330
C2
100
AcDbEntity
  8
1
100
AcDbPolyline
 90
68
 70
1
 10
-12.925031
 20
-61.0
 10
12.925031
 20
-61.0
 10
17.03441
 20
-8.320071
 10
16.297846
 20
-7.57955
 10
15.878597
 20
-7.162955
 10
15.450692
 20
-6.747616
 10
15.012443
 20
-6.336986
 10
14.56466
 20
-5.935282
 10
14.109684
 20
-5.543943
 10
13.648393
 20
-5.162386
 10
13.181369
 20
-4.78977
 10
12.709182
 20
-4.42525
 10
12.23239
 20
-4.067984
 10
11.75154
 20
-3.71713
 10
11.26717
 20
-3.371849
 10
10.779784
 20
-3.031291
 10
10.288894
 20
-2.693975
 10
9.792299
 20
-2.359007
 10
9.28804
 20
-2.027954
 10
8.775328
 20
-1.703397
 10
8.253412
 20
-1.388017
 10
7.721503
 20
-1.084539
 10
7.178792
 20
-0.795758
 10
6.624465
 20
-0.524544
 10
6.057733
 20
-0.273862
 10
5.47791
 20
-0.046793
 10
4.886445
 20
0.152865
 10
4.28843
 20
0.323342
 10
3.688208
 20
0.467443
 10
3.0873
 20
0.589106
 10
2.486882
 20
0.692239
 10
1.888043
 20
0.780641
 10
1.291823
 20
0.858001
 10
0.699255
 20
0.927892
 10
0.023793
 20
1.003594
 10
-0.663041
 20
0.959437
 10
-1.266516
 20
0.917284
 10
-1.873678
 20
0.868088
 10
-2.483643
 20
0.808358
 10
-3.095526
 20
0.734498
 10
-3.708412
 20
0.642804
 10
-4.321314
 20
0.529467
 10
-4.933118
 20
0.390582
 10
-5.541092
 20
0.222595
 10
-6.139995
 20
0.024931
 10
-6.72682
 20
-0.199022
 10
-7.301749
 20
-0.446254
 10
-7.865401
 20
-0.713961
 10
-8.418444
 20
-0.999425
 10
-8.961566
 20
-1.300004
 10
-9.495458
 20
-1.613128
 10
-10.020789
 20
-1.93628
 10
-10.538204
 20
-2.26699
 10
-11.048676
 20
-2.60306
 10
-11.555038
 20
-2.944261
 10
-12.058822
 20
-3.293508
 10
-12.558703
 20
-3.653369
 10
-13.052508
 20
-4.025927
 10
-13.538006
 20
-4.413314
 10
-14.012893
 20
-4.817697
 10
-14.474765
 20
-5.241264
 10
-14.921096
 20
-5.686187
 10
-15.348908
 20
-6.154239
 10
-15.752129
 20
-6.64247
 10
-16.128698
 20
-7.14038
 10
-16.483746
 20
-7.638661
 10
-17.026349
 20
-8.423406
 10
-12.925031
 20
-61.0
  0
LWPOLYLINE
  5
C6
330
C2
100
AcDbEntity
  8
8
100
AcDbPolyline
 90
67
 70
1
 10
-16.00174502019035
 20
-8.69987610624
 10
-15.665240058055797
 20
-8.213202823999259
 10
-15.322542448097165
 20
-7.732253799980507
 10
-14.967459542490378
 20
-7.262753292405738
 10
-14.593850725133931
 20
-6.810378161716176
 10
-14.198649734445224
 20
-6.378004715647229
 10
-13.783528417011171
 20
-5.964193129369555
 10
-13.350563042839685
 20
-5.567135172556305
 10
-12.90182988193869
 20
-5.185022614880634
 10
-12.439405204316108
 20
-4.816047226015698
 10
-11.965365279979856
 20
-4.458400775634652
 10
-11.481786378937862
 20
-4.110275033410651
 10
-10.990744771198038
 20
-3.76986176901685
 10
-10.49431570721395
 20
-3.4353544166378227
 10
-9.993962450123277
 20
-3.1059455331273633
 10
-9.489501638116119
 20
-2.7835159341808375
 10
-8.980475792175733
 20
-2.4703939557416015
 10
-8.466427433285386
 20
-2.1689079337530144
 10
-7.946899082428342
 20
-1.8813862041584368
 10
-7.421433260587865
 20
-1.6101571029012254
 10
-6.889572488747215
 20
-1.3575489659247382
 10
-6.350859287889659
 20
-1.125890129172334
 10
-5.804836178998459
 20
-0.9175089285873721
 10
-5.251045683056876
 20
-0.7347337001132105
 10
-4.68913598396474
 20
-0.5794742320359603
 10
-4.119626045563708
 20
-0.4501910144727597
 10
-3.543463283324851
 20
-0.3436473723330412
 10
-2.9615981006535734
 20
-0.25659479484202175
 10
-2.374980900955279
 20
-0.1857847712249184
 10
-1.7845620876353716
 20
-0.12796879070694767
 10
-1.1912920640992533
 20
-0.07989834251332648
 10
-0.5961212337523284
 20
-0.03832491586927165
 10
0.0
 20
-0.0
 10
0.5849982921665597
 20
-0.06556378107099395
 10
1.1689167880516296
 20
-0.1344341307323622
 10
1.7506756913737198
 20
-0.2099176175744792
 10
2.3291952058513408
 20
-0.29532081018771905
 10
2.9033955352030016
 20
-0.3939502771624562
 10
3.4721968831472143
 20
-0.509112587089065
 10
4.0345194534024875
 20
-0.6441143085579197
 10
4.589283449687333
 20
-0.8022620101593947
 10
5.135472578790312
 20
-0.9866360763523107
 10
5.67296587194548
 20
-1.197127940541758
 10
6.202304555518324
 20
-1.4312704410192967
 10
6.724045399269837
 20
-1.686541053880442
 10
7.238745172961009
 20
-1.9604172552207064
 10
7.746960646352834
 20
-2.250376521135605
 10
8.249248589206303
 20
-2.553896327720651
 10
8.746165771282412
 20
-2.86845415107136
 10
9.238268962342149
 20
-3.191527467283245
 10
9.726114932146507
 20
-3.52059375245182
 10
10.21022261933155
 20
-3.8532486430193633
 10
10.690540730210891
 20
-4.188868818129761
 10
11.166576864319973
 20
-4.528208693644042
 10
11.637827150047947
 20
-4.8720585139803845
 10
12.10378771578397
 20
-5.221208523556963
 10
12.563954689917201
 20
-5.576448966791954
 10
13.017824200836799
 20
-5.9385700881035355
 10
13.46489237693192
 20
-6.308362131909882
 10
13.90465534659172
 20
-6.686615342629171
 10
14.33660923820536
 20
-7.074119964679578
 10
14.760522933636548
 20
-7.471317587164567
 10
15.177897405000822
 20
-7.8764357028397525
 10
15.590911345349491
 20
-8.28683548733489
 10
16.00174502019035
 20
-8.69987610624
 10
12.0
 20
-60.0
 10
-12.0
 20
-60.0
  0
LINE
  5
C7
330
C2
100
AcDbEntity
  8
7
100
AcDbLine
 10
0.0
 20
-3.479950442496
 30
0.0
 11
0.0
 21
-58.0
 31
0.0
  0
LINE
  5
C8
330
C2
100
AcDbEntity
  8
7
100
AcDbLine
 10
0.0
 20
-58.0
 30
0.0
 11
-0.4673020107703804
 21
-56.89472680719654
 31
0.0
  0
LINE
  5
C9
330
C2
100
AcDbEntity
  8
7
100
AcDbLine
 10
0.0
 20
-58.0
 30
0.0
 11
0.4673020107703805
 21
-56.89472680719654
 31
0.0
  0
LINE
  5
CA
330
C2
100
AcDbEntity
  8
7
100
AcDbLine
 10
0.0
 20
-3.479950442496
 30
0.0
 11
0.4673020107703805
 21
-4.585223635299462
 31
0.0
  0
LINE
  5
CB
330
C2
100
AcDbEntity
  8
7
100
AcDbLine
 10
0.0
 20
-3.479950442496
 30
0.0
 11
-0.4673020107703804
 21
-4.585223635299462
 31
0.0
  0
LINE
  5
CC
330
C2
100
AcDbEntity
  8
4
100
AcDbLine
 10
7.734585339671014
 20
-2.2433158647235056
 30
0.0
 11
7.073951787633805
 21
-2.4747533507163766
 31
0.0
  0
LINE
  5
CD
330
C2
100
AcDbEntity
  8
4
100
AcDbLine
 10
-8.077278571761084
 20
-1.9535419127251925
 30
0.0
 11
-7.422768060750572
 21
-2.2017675982953167
 31
0.0
  0
LINE
  5
CE
330
C2
100
AcDbEntity
  8
4
100
AcDbLine
 10
-9.374092530242015
 20
-2.7125232164718063
 30
0.0
 11
-8.694131805185364
 21
-2.8788163684066785
 31
0.0
  0
CIRCLE
  5
CF
330
C2
100
AcDbEntity
  8
6
100
AcDbCircle
 10
4.000436255047587
 20
-48.0
 30
0.0
 40
0.15
  0
LINE
  5
D0
330
C2
100
AcDbEntity
  8
11
100
AcDbLine
 10
4.000436255047587
 20
-60.0
 30
0.0
 11
4.000436255047587
 21
-48.0
 31
0.0
  0
TEXT
  5
D1
330
C2
100
AcDbEntity
  8
13
100
AcDbText
 10
-0.0876325043604959
 20
-3.983646608035893
 30
0.0
 40
0.9
  1
MANGA #04
 72
1
 11
-0.0876325043604959
 21
-3.983646608035893
 31
0.0
100
AcDbText
 73
2
  0
TEXT
  5
D2
330
C2
100
AcDbEntity
  8
15
100
AcDbText
 10
-0.0876325043604959
 20
-5.383646608035893
 30
0.0
 40
0.6
  1
T:S  x2
 72
1
 11
-0.0876325043604959
 21
-5.383646608035893
 31
0.0
100
AcDbText
 73
2
  0
ENDBLK
  5
C4
330
C2
100
AcDbEntity
  8
0
100
AcDbBlockEnd
  0
BLOCK
  5
D6
330
D5
100
AcDbEntity
  8
0
100
AcDbBlockBegin
  2
P05_PUNO
 70
0
 10
0.0
 20
0.0
 30
0.0
  3
P05_PUNO
  1

  0
LWPOLYLINE
  5
D8
330
D5
100
AcDbEntity
  8
1
100
AcDbPolyline
 90
37
 70
1
 10
-1.0
 20
-11.249127
 10
-0.970159
 20
-11.552107
 10
-0.867453
 20
-11.890682
 10
-0.700668
 20
-12.202715
 10
-0.476214
 20
-12.476214
 10
-0.202715
 20
-12.700668
 10
0.109318
 20
-12.867453
 10
0.447893
 20
-12.970159
 10
0.750873
 20
-13.0
 10
22.249127
 20
-13.0
 10
22.552107
 20
-12.970159
 10
22.890682
 20
-12.867453
 10
23.202715
 20
-12.700668
 10
23.476214
 20
-12.476214
 10
23.700668
 20
-12.202715
 10
23.867453
 20
-11.890682
 10
23.970159
 20
-11.552107
 10
24.0
 20
-11.249127
 10
24.0
 20
-0.750873
 10
23.970159
 20
-0.447893
 10
23.867453
 20
-0.109318
 10
23.700668
 20
0.202715
 10
23.476214
 20
0.476214
 10
23.202715
 20
0.700668
 10
22.890682
 20
0.867453
 10
22.552107
 20
0.970159
 10
22.249127
 20
1.0
 10
0.750873
 20
1.0
 10
0.447893
 20
0.970159
 10
0.109318
 20
0.867453
 10
-0.202715
 20
0.700668
 10
-0.476214
 20
0.476214
 10
-0.700668
 20
0.202715
 10
-0.867453
 20
-0.109318
 10
-0.970159
 20
-0.447893
 10
-1.0
 20
-0.750873
 10
-1.0
 20
-11.249127
  0
LWPOLYLINE
  5
D9
330
D5
100
AcDbEntity
  8
8
100
AcDbPolyline
 90
36
 70
1
 10
0.0
 20
-0.8000000000000002
 10
0.015371775677415656
 20
-0.6439277423870974
 10
0.060896373990970476
 20
-0.4938532541079283
 10
0.1348243101579636
 20
-0.35554381358431847
 10
0.23431457505076192
 20
-0.23431457505076203
 10
0.3555438135843183
 20
-0.1348243101579638
 10
0.49385325410792774
 20
-0.06089637399097081
 10
0.643927742387097
 20
-0.015371775677415767
 10
0.7999999999999999
 20
-0.0
 10
22.2
 20
-0.0
 10
22.3560722576129
 20
-0.015371775677415656
 10
22.50614674589207
 20
-0.06089637399097059
 10
22.64445618641568
 20
-0.13482431015796392
 10
22.765685424949236
 20
-0.23431457505076203
 10
22.865175689842037
 20
-0.35554381358431836
 10
22.93910362600903
 20
-0.49385325410792835
 10
22.984628224322584
 20
-0.6439277423870976
 10
23.0
 20
-0.8000000000000003
 10
23.0
 20
-11.2
 10
22.984628224322584
 20
-11.356072257612903
 10
22.93910362600903
 20
-11.506146745892071
 10
22.865175689842037
 20
-11.644456186415681
 10
22.765685424949236
 20
-11.765685424949238
 10
22.64445618641568
 20
-11.865175689842035
 10
22.50614674589207
 20
-11.939103626009029
 10
22.3560722576129
 20
-11.984628224322584
 10
22.2
 20
-12.0
 10
0.8
 20
-12.0
 10
0.6439277423870975
 20
-11.984628224322584
 10
0.49385325410792824
 20
-11.939103626009029
 10
0.35554381358431847
 20
-11.865175689842037
 10
0.23431457505076203
 20
-11.765685424949238
 10
0.1348243101579637
 20
-11.644456186415681
 10
0.06089637399097059
 20
-11.506146745892071
 10
0.015371775677415656
 20
-11.356072257612903
 10
0.0
 20
-11.2
  0
LINE
  5
DA
330
D5
100
AcDbEntity
  8
7
100
AcDbLine
 10
11.5
 20
-0.5
 30
0.0
 11
11.5
 21
-11.5
 31
0.0
  0
LINE
  5
DB
330
D5
100
AcDbEntity
  8
7
100
AcDbLine
 10
11.5
 20
-11.5
 30
0.0
 11
11.03269798922962
 21
-10.394726807196538
 31
0.0
  0
LINE
  5
DC
330
D5
100
AcDbEntity
  8
7
100
AcDbLine
 10
11.5
 20
-11.5
 30
0.0
 11
11.96730201077038
 21
-10.394726807196538
 31
0.0
  0
LINE
  5
DD
330
D5
100
AcDbEntity
  8
7
100
AcDbLine
 10
11.5
 20
-0.5
 30
0.0
 11
11.96730201077038
 21
-1.605273192803462
 31
0.0
  0
LINE
  5
DE
330
D5
100
AcDbEntity
  8
7
100
AcDbLine
 10
11.5
 20
-0.5
 30
0.0
 11
11.03269798922962
 21
-1.605273192803462
 31
0.0
  0
LINE
  5
DF
330
D5
100
AcDbEntity
  8
11
100
AcDbLine
 10
0.0
 20
-6.0
 30
0.0
 11
23.0
 21
-6.0
 31
0.0
  0
TEXT
  5
E0
330
D5
100
AcDbEntity
  8
13
100
AcDbText
 10
11.499999999999998
 20
-4.999999999999999
 30
0.0
 40
0.9
  1
PUNO #05
 72
1
 11
11.499999999999998
 21
-4.999999999999999
 31
0.0
100
AcDbText
 73
2
  0
TEXT
  5
E1
330
D5
100
AcDbEntity
  8
15
100
AcDbText
 10
11.499999999999998
 20
-6.3999999999999995
 30
0.0
 40
0.6
  1
T:S  x4
 72
1
 11
11.499999999999998
 21
-6.3999999999999995
 31
0.0
100
AcDbText
 73
2
  0
ENDBLK
  5
D7
330
D5
100
AcDbEntity
  8
0
100
AcDbBlockEnd
  0
BLOCK
  5
E5
330
E4
100
AcDbEntity
  8
0
100
AcDbBlockBegin
  2
P06_TAPETA_MANGA
 70
0
 10
0.0
 20
0.0
 30
0.0
  3
P06_TAPETA_MANGA
  1

  0
LWPOLYLINE
  5
E7
330
E4
100
AcDbEntity
  8
1
100
AcDbPolyline
 90
37
 70
1
 10
-1.0
 20
-2.649127
 10
-0.977845
 20
-2.87407
 10
-0.897902
 20
-3.137608
 10
-0.768081
 20
-3.380486
 10
-0.593371
 20
-3.593371
 10
-0.380486
 20
-3.768081
 10
-0.137608
 20
-3.897902
 10
0.12593
 20
-3.977845
 10
0.350873
 20
-4.0
 10
11.649127
 20
-4.0
 10
11.87407
 20
-3.977845
 10
12.137608
 20
-3.897902
 10
12.380486
 20
-3.768081
 10
12.593371
 20
-3.593371
 10
12.768081
 20
-3.380486
 10
12.897902
 20
-3.137608
 10
12.977845
 20
-2.87407
 10
13.0
 20
-2.649127
 10
13.0
 20
-0.350873
 10
12.977845
 20
-0.12593
 10
12.897902
 20
0.137608
 10
12.768081
 20
0.380486
 10
12.593371
 20
0.593371
 10
12.380486
 20
0.768081
 10
12.137608
 20
0.897902
 10
11.87407
 20
0.977845
 10
11.649127
 20
1.0
 10
0.350873
 20
1.0
 10
0.12593
 20
0.977845
 10
-0.137608
 20
0.897902
 10
-0.380486
 20
0.768081
 10
-0.593371
 20
0.593371
 10
-0.768081
 20
0.380486
 10
-0.897902
 20
0.137608
 10
-0.977845
 20
-0.12593
 10
-1.0
 20
-0.350873
 10
-1.0
 20
-2.649127
  0
LWPOLYLINE
  5
E8
330
E4
100
AcDbEntity
  8
8
100
AcDbPolyline
 90
36
 70
1
 10
0.0
 20
-0.4000000000000001
 10
0.007685887838707828
 20
-0.3219638711935487
 10
0.030448186995485238
 20
-0.24692662705396415
 10
0.0674121550789818
 20
-0.17777190679215923
 10
0.11715728752538096
 20
-0.11715728752538102
 10
0.17777190679215915
 20
-0.0674121550789819
 10
0.24692662705396387
 20
-0.030448186995485405
 10
0.3219638711935485
 20
-0.007685887838707883
 10
0.39999999999999997
 20
-0.0
 10
11.6
 20
-0.0
 10
11.67803612880645
 20
-0.007685887838707828
 10
11.753073372946035
 20
-0.030448186995485294
 10
11.82222809320784
 20
-0.06741215507898196
 10
11.882842712474618
 20
-0.11715728752538102
 10
11.932587844921018
 20
-0.17777190679215918
 10
11.969551813004514
 20
-0.24692662705396418
 10
11.992314112161292
 20
-0.3219638711935488
 10
12.0
 20
-0.40000000000000013
 10
12.0
 20
-2.6
 10
11.992314112161292
 20
-2.6780361288064514
 10
11.969551813004514
 20
-2.753073372946036
 10
11.932587844921018
 20
-2.822228093207841
 10
11.882842712474618
 20
-2.882842712474619
 10
11.82222809320784
 20
-2.9325878449210183
 10
11.753073372946035
 20
-2.969551813004515
 10
11.67803612880645
 20
-2.992314112161292
 10
11.6
 20
-3.0
 10
0.4
 20
-3.0
 10
0.32196387119354875
 20
-2.992314112161292
 10
0.24692662705396412
 20
-2.969551813004515
 10
0.17777190679215923
 20
-2.9325878449210183
 10
0.11715728752538102
 20
-2.882842712474619
 10
0.06741215507898185
 20
-2.822228093207841
 10
0.030448186995485294
 20
-2.753073372946036
 10
0.007685887838707828
 20
-2.6780361288064514
 10
0.0
 20
-2.6
  0
LINE
  5
E9
330
E4
100
AcDbEntity
  8
7
100
AcDbLine
 10
6.0
 20
-0.4
 30
0.0
 11
6.0
 21
-2.6
 31
0.0
  0
LINE
  5
EA
330
E4
100
AcDbEntity
  8
7
100
AcDbLine
 10
6.0
 20
-2.6
 30
0.0
 11
5.53269798922962
 21
-1.494726807196538
 31
0.0
  0
LINE
  5
EB
330
E4
100
AcDbEntity
  8
7
100
AcDbLine
 10
6.0
 20
-2.6
 30
0.0
 11
6.46730201077038
 21
-1.494726807196538
 31
0.0
  0
LINE
  5
EC
330
E4
100
AcDbEntity
  8
7
100
AcDbLine
 10
6.0
 20
-0.4
 30
0.0
 11
6.46730201077038
 21
-1.505273192803462
 31
0.0
  0
LINE
  5
ED
330
E4
100
AcDbEntity
  8
7
100
AcDbLine
 10
6.0
 20
-0.4
 30
0.0
 11
5.53269798922962
 21
-1.505273192803462
 31
0.0
  0
TEXT
  5
EE
330
E4
100
AcDbEntity
  8
13
100
AcDbText
 10
5.999999999999999
 20
-0.5
 30
0.0
 40
0.9
  1
TAPETA MANGA #06
 72
1
 11
5.999999999999999
 21
-0.5
 31
0.0
100
AcDbText
 73
2
  0
TEXT
  5
EF
330
E4
100
AcDbEntity
  8
15
100
AcDbText
 10
5.999999999999999
 20
-1.9
 30
0.0
 40
0.6
  1
T:S  x2
 72
1
 11
5.999999999999999
 21
-1.9
 31
0.0
100
AcDbText
 73
2
  0
ENDBLK
  5
E6
330
E4
100
AcDbEntity
  8
0
100
AcDbBlockEnd
  0
BLOCK
  5
F3
330
F2
100
AcDbEntity
  8
0
100
AcDbBlockBegin
  2
P07_CUELLO
 70
0
 10
0.0
 20
0.0
 30
0.0
  3
P07_CUELLO
  1

  0
LWPOLYLINE
  5
F5
330
F2
100
AcDbEntity
  8
1
100
AcDbPolyline
 90
84
 70
1
 10
0.721759
 20
-5.671202
 10
1.189524
 20
-5.760683
 10
1.65735
 20
-5.845062
 10
2.125234
 20
-5.924337
 10
2.593173
 20
-5.998506
 10
3.061164
 20
-6.067568
 10
3.529204
 20
-6.131521
 10
3.997288
 20
-6.190363
 10
4.465414
 20
-6.244093
 10
4.933579
 20
-6.29271
 10
5.401777
 20
-6.336213
 10
5.870006
 20
-6.3746
 10
6.338263
 20
-6.407871
 10
6.806542
 20
-6.436025
 10
7.274841
 20
-6.45906
 10
7.743156
 20
-6.476978
 10
8.211482
 20
-6.489776
 10
8.679816
 20
-6.497455
 10
9.148154
 20
-6.500015
 10
9.616492
 20
-6.497455
 10
10.084827
 20
-6.489776
 10
10.553153
 20
-6.476978
 10
11.021468
 20
-6.45906
 10
11.489767
 20
-6.436025
 10
11.958046
 20
-6.407871
 10
12.426302
 20
-6.3746
 10
12.894532
 20
-6.336213
 10
13.36273
 20
-6.29271
 10
13.830894
 20
-6.244093
 10
14.29902
 20
-6.190363
 10
14.767105
 20
-6.131521
 10
15.235144
 20
-6.067568
 10
15.703135
 20
-5.998506
 10
16.171075
 20
-5.924337
 10
16.638959
 20
-5.845062
 10
17.106785
 20
-5.760683
 10
17.57455
 20
-5.671202
 10
17.804891
 20
-5.624621
 10
19.85287
 20
-9.037919
 10
20.908088
 20
-8.638936
 10
19.093089
 20
1.192306
 10
17.635551
 20
0.88162
 10
17.188437
 20
0.791202
 10
16.741386
 20
0.705683
 10
16.294397
 20
0.625062
 10
15.847466
 20
0.549337
 10
15.400589
 20
0.478506
 10
14.953765
 20
0.412568
 10
14.506989
 20
0.351521
 10
14.060258
 20
0.295363
 10
13.613569
 20
0.244093
 10
13.166917
 20
0.19771
 10
12.720301
 20
0.156213
 10
12.273714
 20
0.1196
 10
11.827155
 20
0.087871
 10
11.380619
 20
0.061025
 10
10.934103
 20
0.03906
 10
10.487602
 20
0.021978
 10
10.041113
 20
0.009776
 10
9.594632
 20
0.002455
 10
9.148154
 20
1.5e-05
 10
8.701677
 20
0.002455
 10
8.255196
 20
0.009776
 10
7.808707
 20
0.021978
 10
7.362206
 20
0.03906
 10
6.915689
 20
0.061025
 10
6.469153
 20
0.087871
 10
6.022594
 20
0.1196
 10
5.576008
 20
0.156213
 10
5.129391
 20
0.19771
 10
4.68274
 20
0.244093
 10
4.236051
 20
0.295363
 10
3.78932
 20
0.351521
 10
3.342544
 20
0.412568
 10
2.895719
 20
0.478506
 10
2.448843
 20
0.549337
 10
2.001912
 20
0.625062
 10
1.554923
 20
0.705683
 10
1.107872
 20
0.791202
 10
0.660757
 20
0.88162
 10
0.0
 20
1.022466
 10
0.0
 20
-5.522466
 10
0.254058
 20
-5.57662
 10
0.721759
 20
-5.671202
  0
LWPOLYLINE
  5
F6
330
F2
100
AcDbEntity
  8
8
100
AcDbPolyline
 90
83
 70
1
 10
0.0
 20
-0.0
 10
0.45740771821288484
 20
-0.09750000000000003
 10
0.9148154364257697
 20
-0.18999999999999995
 10
1.3722231546386543
 20
-0.2775000000000001
 10
1.8296308728515394
 20
-0.3599999999999999
 10
2.287038591064424
 20
-0.4375
 10
2.7444463092773086
 20
-0.51
 10
3.201854027490193
 20
-0.5774999999999999
 10
3.6592617457030787
 20
-0.64
 10
4.116669463915963
 20
-0.6975
 10
4.574077182128848
 20
-0.75
 10
5.0314849003417335
 20
-0.7975000000000001
 10
5.488892618554617
 20
-0.84
 10
5.946300336767503
 20
-0.8775000000000001
 10
6.403708054980386
 20
-0.9099999999999999
 10
6.861115773193272
 20
-0.9375
 10
7.318523491406157
 20
-0.96
 10
7.775931209619041
 20
-0.9775
 10
8.233338927831927
 20
-0.99
 10
8.690746646044811
 20
-0.9974999999999999
 10
9.148154364257696
 20
-1.0
 10
9.60556208247058
 20
-0.9974999999999999
 10
10.062969800683467
 20
-0.99
 10
10.52037751889635
 20
-0.9775
 10
10.977785237109234
 20
-0.96
 10
11.435192955322119
 20
-0.9375
 10
11.892600673535005
 20
-0.9099999999999999
 10
12.35000839174789
 20
-0.8775
 10
12.807416109960773
 20
-0.8400000000000001
 10
13.26482382817366
 20
-0.7975000000000001
 10
13.722231546386544
 20
-0.75
 10
14.179639264599428
 20
-0.6975
 10
14.637046982812315
 20
-0.6399999999999999
 10
15.094454701025198
 20
-0.5775000000000001
 10
15.551862419238082
 20
-0.51
 10
16.00927013745097
 20
-0.4375
 10
16.466677855663853
 20
-0.3599999999999999
 10
16.924085573876738
 20
-0.27749999999999986
 10
17.381493292089623
 20
-0.19000000000000017
 10
17.838901010302507
 20
-0.09750000000000003
 10
18.296308728515392
 20
-0.0
 10
19.49630872851539
 20
-6.5
 10
18.296308728515392
 20
-4.5
 10
17.838901010302507
 20
-4.5975
 10
17.381493292089623
 20
-4.69
 10
16.924085573876738
 20
-4.7775
 10
16.466677855663853
 20
-4.859999999999999
 10
16.00927013745097
 20
-4.9375
 10
15.551862419238082
 20
-5.01
 10
15.094454701025198
 20
-5.077500000000001
 10
14.637046982812315
 20
-5.14
 10
14.179639264599428
 20
-5.1975
 10
13.722231546386544
 20
-5.25
 10
13.26482382817366
 20
-5.2975
 10
12.807416109960773
 20
-5.34
 10
12.35000839174789
 20
-5.3774999999999995
 10
11.892600673535005
 20
-5.41
 10
11.435192955322119
 20
-5.4375
 10
10.977785237109234
 20
-5.46
 10
10.52037751889635
 20
-5.4775
 10
10.062969800683467
 20
-5.49
 10
9.60556208247058
 20
-5.4975
 10
9.148154364257696
 20
-5.5
 10
8.690746646044811
 20
-5.4975
 10
8.233338927831927
 20
-5.49
 10
7.775931209619041
 20
-5.4775
 10
7.318523491406157
 20
-5.46
 10
6.861115773193272
 20
-5.4375
 10
6.403708054980386
 20
-5.41
 10
5.946300336767503
 20
-5.3775
 10
5.488892618554617
 20
-5.34
 10
5.0314849003417335
 20
-5.2975
 10
4.574077182128848
 20
-5.25
 10
4.116669463915963
 20
-5.1975
 10
3.6592617457030787
 20
-5.14
 10
3.201854027490193
 20
-5.0775
 10
2.7444463092773086
 20
-5.01
 10
2.287038591064424
 20
-4.9375
 10
1.8296308728515394
 20
-4.859999999999999
 10
1.3722231546386543
 20
-4.7775
 10
0.9148154364257697
 20
-4.6899999999999995
 10
0.45740771821288484
 20
-4.5975
 10
0.0
 20
-4.5
  0
LINE
  5
F7
330
F2
100
AcDbEntity
  8
7
100
AcDbLine
 10
0.5
 20
-0.5
 30
0.0
 11
17.796308728515392
 21
-0.5
 31
0.0
  0
LINE
  5
F8
330
F2
100
AcDbEntity
  8
7
100
AcDbLine
 10
17.796308728515392
 20
-0.5
 30
0.0
 11
16.69103553571193
 21
-0.9673020107703804
 31
0.0
  0
LINE
  5
F9
330
F2
100
AcDbEntity
  8
7
100
AcDbLine
 10
17.796308728515392
 20
-0.5
 30
0.0
 11
16.69103553571193
 21
-0.03269798922961942
 31
0.0
  0
LINE
  5
FA
330
F2
100
AcDbEntity
  8
7
100
AcDbLine
 10
0.5
 20
-0.5
 30
0.0
 11
1.605273192803462
 21
-0.03269798922961942
 31
0.0
  0
LINE
  5
FB
330
F2
100
AcDbEntity
  8
7
100
AcDbLine
 10
0.5
 20
-0.5
 30
0.0
 11
1.605273192803462
 21
-0.9673020107703806
 31
0.0
  0
TEXT
  5
FC
330
F2
100
AcDbEntity
  8
13
100
AcDbText
 10
9.272830922863209
 20
-1.9433734939759035
 30
0.0
 40
0.9
  1
CUELLO #07
 72
1
 11
9.272830922863209
 21
-1.9433734939759035
 31
0.0
100
AcDbText
 73
2
  0
TEXT
  5
FD
330
F2
100
AcDbEntity
  8
15
100
AcDbText
 10
9.272830922863209
 20
-3.3433734939759034
 30
0.0
 40
0.6
  1
T:S  x2  AL DOBLEZ
 72
1
 11
9.272830922863209
 21
-3.3433734939759034
 31
0.0
100
AcDbText
 73
2
  0
ENDBLK
  5
F4
330
F2
100
AcDbEntity
  8
0
100
AcDbBlockEnd
  0
BLOCK
  5
101
330
100
100
AcDbEntity
  8
0
100
AcDbBlockBegin
  2
P08_PIE_DE_CUELLO
 70
0
 10
0.0
 20
0.0
 30
0.0
  3
P08_PIE_DE_CUELLO
  1

  0
LWPOLYLINE
  5
103
330
100
100
AcDbEntity
  8
1
100
AcDbPolyline
 90
83
 70
1
 10
0.857261
 20
-4.141795
 10
1.36494
 20
-4.212883
 10
1.872645
 20
-4.279912
 10
2.380373
 20
-4.342882
 10
2.888123
 20
-4.401792
 10
3.395894
 20
-4.456641
 10
3.903684
 20
-4.50743
 10
4.411493
 20
-4.554157
 10
4.919318
 20
-4.596822
 10
5.427158
 20
-4.635425
 10
5.935012
 20
-4.669966
 10
6.442878
 20
-4.700443
 10
6.950755
 20
-4.726858
 10
7.458641
 20
-4.749209
 10
7.966534
 20
-4.767496
 10
8.474434
 20
-4.78172
 10
8.982338
 20
-4.79188
 10
9.490245
 20
-4.797976
 10
9.998154
 20
-4.800008
 10
10.506063
 20
-4.797976
 10
11.013971
 20
-4.79188
 10
11.521875
 20
-4.78172
 10
12.029775
 20
-4.767496
 10
12.537668
 20
-4.749209
 10
13.045554
 20
-4.726858
 10
13.553431
 20
-4.700443
 10
14.061297
 20
-4.669966
 10
14.569151
 20
-4.635425
 10
15.076991
 20
-4.596822
 10
15.584816
 20
-4.554157
 10
16.092624
 20
-4.50743
 10
16.600415
 20
-4.456641
 10
17.108186
 20
-4.401792
 10
17.615936
 20
-4.342882
 10
18.123664
 20
-4.279912
 10
18.631368
 20
-4.212883
 10
19.139048
 20
-4.141795
 10
19.646701
 20
-4.066648
 10
20.996309
 20
-3.85607
 10
20.996309
 20
1.168128
 10
19.346101
 20
0.910648
 10
18.853939
 20
0.837795
 10
18.361803
 20
0.768883
 10
17.869692
 20
0.703912
 10
17.377604
 20
0.642882
 10
16.885539
 20
0.585792
 10
16.393495
 20
0.532641
 10
15.90147
 20
0.48343
 10
15.409463
 20
0.438157
 10
14.917472
 20
0.396822
 10
14.425497
 20
0.359425
 10
13.933536
 20
0.325966
 10
13.441586
 20
0.296443
 10
12.949647
 20
0.270858
 10
12.457718
 20
0.249209
 10
11.965796
 20
0.231496
 10
11.47388
 20
0.21772
 10
10.981969
 20
0.20788
 10
10.490061
 20
0.201976
 10
9.998154
 20
0.200008
 10
9.506248
 20
0.201976
 10
9.01434
 20
0.20788
 10
8.522429
 20
0.21772
 10
8.030513
 20
0.231496
 10
7.538591
 20
0.249209
 10
7.046661
 20
0.270858
 10
6.554723
 20
0.296443
 10
6.062773
 20
0.325966
 10
5.570812
 20
0.359425
 10
5.078836
 20
0.396822
 10
4.586846
 20
0.438157
 10
4.094839
 20
0.48343
 10
3.602814
 20
0.532641
 10
3.11077
 20
0.585792
 10
2.618705
 20
0.642882
 10
2.126617
 20
0.703912
 10
1.634506
 20
0.768883
 10
1.14237
 20
0.837795
 10
0.650208
 20
0.910648
 10
0.0
 20
1.012099
 10
0.0
 20
-4.012099
 10
0.349608
 20
-4.066648
 10
0.857261
 20
-4.141795
  0
LWPOLYLINE
  5
104
330
100
100
AcDbEntity
  8
8
100
AcDbPolyline
 90
82
 70
1
 10
0.0
 20
-0.0
 10
0.4999077182128848
 20
-0.07800000000000007
 10
0.9998154364257696
 20
-0.1519999999999999
 10
1.4997231546386542
 20
-0.2220000000000001
 10
1.9996308728515393
 20
-0.2879999999999999
 10
2.499538591064424
 20
-0.35000000000000003
 10
2.9994463092773085
 20
-0.4080000000000001
 10
3.499354027490193
 20
-0.46199999999999997
 10
3.9992617457030786
 20
-0.512
 10
4.499169463915963
 20
-0.558
 10
4.999077182128848
 20
-0.6000000000000001
 10
5.498984900341733
 20
-0.6380000000000001
 10
5.998892618554617
 20
-0.672
 10
6.498800336767502
 20
-0.7020000000000001
 10
6.998708054980386
 20
-0.728
 10
7.498615773193272
 20
-0.75
 10
7.998523491406157
 20
-0.768
 10
8.49843120961904
 20
-0.782
 10
8.998338927831925
 20
-0.792
 10
9.49824664604481
 20
-0.798
 10
9.998154364257696
 20
-0.8
 10
10.49806208247058
 20
-0.798
 10
10.997969800683466
 20
-0.792
 10
11.497877518896349
 20
-0.782
 10
11.997785237109234
 20
-0.768
 10
12.497692955322119
 20
-0.75
 10
12.997600673535004
 20
-0.728
 10
13.497508391747889
 20
-0.702
 10
13.997416109960772
 20
-0.6720000000000002
 10
14.497323828173657
 20
-0.6380000000000001
 10
14.997231546386544
 20
-0.6000000000000001
 10
15.49713926459943
 20
-0.558
 10
15.997046982812314
 20
-0.512
 10
16.496954701025196
 20
-0.46200000000000013
 10
16.99686241923808
 20
-0.4080000000000001
 10
17.496770137450966
 20
-0.35000000000000003
 10
17.99667785566385
 20
-0.2879999999999999
 10
18.496585573876736
 20
-0.22199999999999986
 10
18.99649329208962
 20
-0.15200000000000014
 10
19.496401010302506
 20
-0.07800000000000007
 10
19.99630872851539
 20
-0.0
 10
19.99630872851539
 20
-3.0
 10
19.496401010302506
 20
-3.0780000000000003
 10
18.99649329208962
 20
-3.152
 10
18.496585573876736
 20
-3.222
 10
17.99667785566385
 20
-3.288
 10
17.496770137450966
 20
-3.35
 10
16.99686241923808
 20
-3.408
 10
16.496954701025196
 20
-3.462
 10
15.997046982812314
 20
-3.512
 10
15.49713926459943
 20
-3.558
 10
14.997231546386544
 20
-3.6
 10
14.497323828173657
 20
-3.638
 10
13.997416109960772
 20
-3.672
 10
13.497508391747889
 20
-3.702
 10
12.997600673535004
 20
-3.7279999999999998
 10
12.497692955322119
 20
-3.75
 10
11.997785237109234
 20
-3.768
 10
11.497877518896349
 20
-3.782
 10
10.997969800683466
 20
-3.792
 10
10.49806208247058
 20
-3.798
 10
9.998154364257696
 20
-3.8
 10
9.49824664604481
 20
-3.798
 10
8.998338927831925
 20
-3.792
 10
8.49843120961904
 20
-3.782
 10
7.998523491406157
 20
-3.768
 10
7.498615773193272
 20
-3.75
 10
6.998708054980386
 20
-3.7279999999999998
 10
6.498800336767502
 20
-3.702
 10
5.998892618554617
 20
-3.672
 10
5.498984900341733
 20
-3.638
 10
4.999077182128848
 20
-3.6
 10
4.499169463915963
 20
-3.558
 10
3.9992617457030786
 20
-3.512
 10
3.499354027490193
 20
-3.4619999999999997
 10
2.9994463092773085
 20
-3.408
 10
2.499538591064424
 20
-3.35
 10
1.9996308728515393
 20
-3.288
 10
1.4997231546386542
 20
-3.222
 10
0.9998154364257696
 20
-3.152
 10
0.4999077182128848
 20
-3.0780000000000003
 10
0.0
 20
-3.0
  0
LINE
  5
105
330
100
100
AcDbEntity
  8
7
100
AcDbLine
 10
0.5
 20
-0.4
 30
0.0
 11
19.49630872851539
 21
-0.4
 31
0.0
  0
LINE
  5
106
330
100
100
AcDbEntity
  8
7
100
AcDbLine
 10
19.49630872851539
 20
-0.4
 30
0.0
 11
18.39103553571193
 21
-0.8673020107703804
 31
0.0
  0
LINE
  5
107
330
100
100
AcDbEntity
  8
7
100
AcDbLine
 10
19.49630872851539
 20
-0.4
 30
0.0
 11
18.39103553571193
 21
0.06730201077038056
 31
0.0
  0
LINE
  5
108
330
100
100
AcDbEntity
  8
7
100
AcDbLine
 10
0.5
 20
-0.4
 30
0.0
 11
1.605273192803462
 21
0.06730201077038056
 31
0.0
  0
LINE
  5
109
330
100
100
AcDbEntity
  8
7
100
AcDbLine
 10
0.5
 20
-0.4
 30
0.0
 11
1.605273192803462
 21
-0.8673020107703806
 31
0.0
  0
TEXT
  5
10A
330
100
100
AcDbEntity
  8
13
100
AcDbText
 10
9.998154364257696
 20
-1.0199999999999996
 30
0.0
 40
0.9
  1
PIE DE CUELLO #08
 72
1
 11
9.998154364257696
 21
-1.0199999999999996
 31
0.0
100
AcDbText
 73
2
  0
TEXT
  5
10B
330
100
100
AcDbEntity
  8
15
100
AcDbText
 10
9.998154364257696
 20
-2.4199999999999995
 30
0.0
 40
0.6
  1
T:S  x2  AL DOBLEZ
 72
1
 11
9.998154364257696
 21
-2.4199999999999995
 31
0.0
100
AcDbText
 73
2
  0
ENDBLK
  5
102
330
100
100
AcDbEntity
  8
0
100
AcDbBlockEnd
  0
BLOCK
  5
10F
330
10E
100
AcDbEntity
  8
0
100
AcDbBlockBegin
  2
P09_VISTA_DELANTERA
 70
0
 10
0.0
 20
0.0
 30
0.0
  3
P09_VISTA_DELANTERA
  1

  0
LWPOLYLINE
  5
111
330
10E
100
AcDbEntity
  8
1
100
AcDbPolyline
 90
43
 70
1
 10
-2.7
 20
-69.0
 10
5.304205
 20
-69.0
 10
5.067353
 20
-12.561528
 10
9.291589
 20
0.005573
 10
6.852695
 20
1.22502
 10
6.143099
 20
0.480375
 10
5.942945
 20
0.269875
 10
5.742503
 20
0.058145
 10
5.542009
 20
-0.155039
 10
5.341703
 20
-0.369899
 10
5.141828
 20
-0.586665
 10
4.942628
 20
-0.805564
 10
4.744354
 20
-1.026828
 10
4.547258
 20
-1.250689
 10
4.351596
 20
-1.477379
 10
4.157628
 20
-1.707133
 10
3.965619
 20
-1.940183
 10
3.775837
 20
-2.176765
 10
3.58881
 20
-2.416781
 10
3.405879
 20
-2.658619
 10
3.227577
 20
-2.899912
 10
3.053237
 20
-3.13946
 10
2.881977
 20
-3.376424
 10
2.712961
 20
-3.609982
 10
2.545398
 20
-3.839328
 10
2.378543
 20
-4.063673
 10
2.211695
 20
-4.282251
 10
2.044194
 20
-4.494324
 10
1.875414
 20
-4.699194
 10
1.704759
 20
-4.896214
 10
1.531647
 20
-5.084796
 10
1.355375
 20
-5.264551
 10
1.173572
 20
-5.436826
 10
0.983351
 20
-5.604624
 10
0.783987
 20
-5.769743
 10
0.576093
 20
-5.932817
 10
0.360393
 20
-6.094477
 10
0.137666
 20
-6.255393
 10
-0.091265
 20
-6.416279
 10
-0.698403
 20
-6.835134
 10
-0.886819
 20
-8.4
 10
-2.7
 20
-8.4
 10
-2.7
 20
-69.0
  0
LWPOLYLINE
  5
112
330
10E
100
AcDbEntity
  8
8
100
AcDbPolyline
 90
42
 70
1
 10
-1.7
 20
-9.4
 10
0.0
 20
-9.4
 10
0.24053530935266393
 20
-7.402258011346288
 10
0.48016801990275393
 20
-7.236939356645195
 10
0.7179955328476918
 20
-7.069800703182668
 10
0.9531152493849036
 20
-6.89993205157799
 10
1.1846245707118153
 20
-6.726423402450446
 10
1.4116208980258491
 20
-6.54836475641932
 10
1.6332016325244307
 20
-6.364846114103895
 10
1.8484641754049862
 20
-6.174957476123453
 10
2.0565215258100866
 20
-5.977804417580404
 10
2.2571777581271126
 20
-5.773182549324599
 10
2.4511870079421247
 20
-5.561836114347283
 10
2.6393724564264347
 20
-5.344578297368386
 10
2.822557284751358
 20
-5.122222283107834
 10
3.001564674088206
 20
-4.89558125628556
 10
3.1772178056082923
 20
-4.66546840162149
 10
3.3503398604829306
 20
-4.432696903835553
 10
3.521754019883433
 20
-4.198079947647681
 10
3.6922834649811134
 20
-3.962430717777799
 10
3.862751376947286
 20
-3.7265623989458385
 10
4.033980936953261
 20
-3.4912881758717287
 10
4.206795326170355
 20
-3.2574212332753967
 10
4.382017725759674
 20
-3.025774755866801
 10
4.560293653536143
 20
-2.7969883285130757
 10
4.741566183725888
 20
-2.5710151587321346
 10
4.9256048084509665
 20
-2.347638842095301
 10
5.112179019833432
 20
-2.1266429741738984
 10
5.301058309995341
 20
-1.9078111505392532
 10
5.49201217105875
 20
-1.690926966762689
 10
5.684810095145714
 20
-1.475774018415529
 10
5.8792215743782865
 20
-1.2621359010690987
 10
6.075016100878527
 20
-1.049796210294722
 10
6.271963166768489
 20
-0.8385385416637241
 10
6.469832264170229
 20
-0.6281464907474282
 10
6.6683928852058
 20
-0.4184036531171595
 10
6.8674145219972615
 20
-0.20909362434424192
 10
7.066666666666666
 20
-0.0
 10
8.066666666666666
 20
-0.5
 10
4.066666666666666
 20
-12.4
 10
4.3
 20
-68.0
 10
-1.7
 20
-68.0
  0
LINE
  5
113
330
10E
100
AcDbEntity
  8
7
100
AcDbLine
 10
1.3
 20
-14.4
 30
0.0
 11
1.3
 21
-65.0
 31
0.0
  0
LINE
  5
114
330
10E
100
AcDbEntity
  8
7
100
AcDbLine
 10
1.3
 20
-65.0
 30
0.0
 11
0.8326979892296196
 21
-63.89472680719654
 31
0.0
  0
LINE
  5
115
330
10E
100
AcDbEntity
  8
7
100
AcDbLine
 10
1.3
 20
-65.0
 30
0.0
 11
1.7673020107703805
 21
-63.89472680719654
 31
0.0
  0
LINE
  5
116
330
10E
100
AcDbEntity
  8
7
100
AcDbLine
 10
1.3
 20
-14.4
 30
0.0
 11
1.7673020107703805
 21
-15.505273192803463
 31
0.0
  0
LINE
  5
117
330
10E
100
AcDbEntity
  8
7
100
AcDbLine
 10
1.3
 20
-14.4
 30
0.0
 11
0.8326979892296196
 21
-15.505273192803463
 31
0.0
  0
TEXT
  5
118
330
10E
100
AcDbEntity
  8
13
100
AcDbText
 10
3.5255859849340863
 20
-6.259080028218426
 30
0.0
 40
0.9
  1
VISTA DELANTERA #09
 72
1
 11
3.5255859849340863
 21
-6.259080028218426
 31
0.0
100
AcDbText
 73
2
  0
TEXT
  5
119
330
10E
100
AcDbEntity
  8
15
100
AcDbText
 10
3.5255859849340863
 20
-7.659080028218426
 30
0.0
 40
0.6
  1
T:S  x2
 72
1
 11
3.5255859849340863
 21
-7.659080028218426
 31
0.0
100
AcDbText
 73
2
  0
ENDBLK
  5
110
330
10E
100
AcDbEntity
  8
0
100
AcDbBlockEnd
  0
BLOCK
  5
11D
330
11C
100
AcDbEntity
  8
0
100
AcDbBlockBegin
  2
P10_BOLSILLO
 70
0
 10
0.0
 20
0.0
 30
0.0
  3
P10_BOLSILLO
  1

  0
LWPOLYLINE
  5
11F
330
11C
100
AcDbEntity
  8
1
100
AcDbPolyline
 90
6
 70
1
 10
-1.0
 20
-10.271905
 10
6.0
 20
-14.681905
 10
13.0
 20
-10.271905
 10
13.0
 20
1.0
 10
-1.0
 20
1.0
 10
-1.0
 20
-10.271905
  0
LWPOLYLINE
  5
120
330
11C
100
AcDbEntity
  8
8
100
AcDbPolyline
 90
5
 70
1
 10
0.0
 20
-0.0
 10
12.0
 20
-0.0
 10
12.0
 20
-9.719999999999999
 10
6.0
 20
-13.5
 10
0.0
 20
-9.719999999999999
  0
LINE
  5
121
330
11C
100
AcDbEntity
  8
7
100
AcDbLine
 10
6.0
 20
-1.0
 30
0.0
 11
6.0
 21
-9.719999999999999
 31
0.0
  0
LINE
  5
122
330
11C
100
AcDbEntity
  8
7
100
AcDbLine
 10
6.0
 20
-9.719999999999999
 30
0.0
 11
5.53269798922962
 21
-8.614726807196536
 31
0.0
  0
LINE
  5
123
330
11C
100
AcDbEntity
  8
7
100
AcDbLine
 10
6.0
 20
-9.719999999999999
 30
0.0
 11
6.46730201077038
 21
-8.614726807196536
 31
0.0
  0
LINE
  5
124
330
11C
100
AcDbEntity
  8
7
100
AcDbLine
 10
6.0
 20
-1.0
 30
0.0
 11
6.46730201077038
 21
-2.105273192803462
 31
0.0
  0
LINE
  5
125
330
11C
100
AcDbEntity
  8
7
100
AcDbLine
 10
6.0
 20
-1.0
 30
0.0
 11
5.53269798922962
 21
-2.105273192803462
 31
0.0
  0
LINE
  5
126
330
11C
100
AcDbEntity
  8
11
100
AcDbLine
 10
0.0
 20
-7.219999999999999
 30
0.0
 11
12.0
 21
-7.219999999999999
 31
0.0
  0
TEXT
  5
127
330
11C
100
AcDbEntity
  8
13
100
AcDbText
 10
6.0
 20
-5.587999999999999
 30
0.0
 40
0.9
  1
BOLSILLO #10
 72
1
 11
6.0
 21
-5.587999999999999
 31
0.0
100
AcDbText
 73
2
  0
TEXT
  5
128
330
11C
100
AcDbEntity
  8
15
100
AcDbText
 10
6.0
 20
-6.9879999999999995
 30
0.0
 40
0.6
  1
T:S  x1
 72
1
 11
6.0
 21
-6.9879999999999995
 31
0.0
100
AcDbText
 73
2
  0
ENDBLK
  5
11E
330
11C
100
AcDbEntity
  8
0
100
AcDbBlockEnd
  0
ENDSEC
  0
SECTION
  2
ENTITIES
  0
INSERT
  5
A2
330
17
100
AcDbEntity
  8
0
100
AcDbBlockReference
  2
P01_DELANTERO
 10
1.7
 20
-0.0
 30
0.0
  0
INSERT
  5
B1
330
17
100
AcDbEntity
  8
0
100
AcDbBlockReference
  2
P02_ESPALDA
 10
31.7
 20
10.0
 30
0.0
  0
INSERT
  5
C0
330
17
100
AcDbEntity
  8
0
100
AcDbBlockReference
  2
P03_CANESU
 10
61.7
 20
5.58022930971912e-16
 30
0.0
  0
INSERT
  5
D3
330
17
100
AcDbEntity
  8
0
100
AcDbBlockReference
  2
P04_MANGA
 10
102.81113096918403
 20
-0.0
 30
0.0
  0
INSERT
  5
E2
330
17
100
AcDbEntity
  8
0
100
AcDbBlockReference
  2
P05_PUNO
 10
124.81287598937438
 20
-0.0
 30
0.0
  0
INSERT
  5
F0
330
17
100
AcDbEntity
  8
0
100
AcDbBlockReference
  2
P06_TAPETA_MANGA
 10
0.0
 20
-74.0
 30
0.0
  0
INSERT
  5
FE
330
17
100
AcDbEntity
  8
0
100
AcDbBlockReference
  2
P07_CUELLO
 10
18.0
 20
-74.0
 30
0.0
  0
INSERT
  5
10C
330
17
100
AcDbEntity
  8
0
100
AcDbBlockReference
  2
P08_PIE_DE_CUELLO
 10
43.49630872851539
 20
-74.0
 30
0.0
  0
INSERT
  5
11A
330
17
100
AcDbEntity
  8
0
100
AcDbBlockReference
  2
P09_VISTA_DELANTERA
 10
71.19261745703078
 20
-74.0
 30
0.0
  0
INSERT
  5
129
330
17
100
AcDbEntity
  8
0
100
AcDbBlockReference
  2
P10_BOLSILLO
 10
85.25928412369744
 20
-74.0
 30
0.0
  0
ENDSEC
  0
SECTION
  2
OBJECTS
  0
DICTIONARY
  5
A
330
0
100
AcDbDictionary
281
1
  3
ACAD_COLOR
350
B
  3
ACAD_GROUP
350
C
  3
ACAD_LAYOUT
350
D
  3
ACAD_MATERIAL
350
E
  3
ACAD_MLEADERSTYLE
350
F
  3
ACAD_MLINESTYLE
350
10
  3
ACAD_PLOTSETTINGS
350
11
  3
ACAD_PLOTSTYLENAME
350
12
  3
ACAD_SCALELIST
350
14
  3
ACAD_TABLESTYLE
350
15
  3
ACAD_VISUALSTYLE
350
16
  3
EZDXF_META
350
2D
  0
DICTIONARY
  5
B
330
A
100
AcDbDictionary
281
1
  0
DICTIONARY
  5
C
330
A
100
AcDbDictionary
281
1
  0
DICTIONARY
  5
D
330
A
100
AcDbDictionary
281
1
  3
Model
350
1A
  3
Layout1
350
1E
  0
DICTIONARY
  5
E
330
A
100
AcDbDictionary
281
1
  3
ByBlock
350
1F
  3
ByLayer
350
20
  3
Global
350
21
  0
DICTIONARY
  5
F
330
A
100
AcDbDictionary
281
1
  3
Standard
350
2C
  0
DICTIONARY
  5
10
330
A
100
AcDbDictionary
281
1
  3
Standard
350
22
  0
DICTIONARY
  5
11
330
A
100
AcDbDictionary
281
1
  0
ACDBDICTIONARYWDFLT
  5
12
330
A
100
AcDbDictionary
281
1
  3
Normal
350
13
100
AcDbDictionaryWithDefault
340
13
  0
ACDBPLACEHOLDER
  5
13
330
12
  0
DICTIONARY
  5
14
330
A
100
AcDbDictionary
281
1
  0
DICTIONARY
  5
15
330
A
100
AcDbDictionary
281
1
  0
DICTIONARY
  5
16
330
A
100
AcDbDictionary
281
1
  3
2dWireframe
350
5A
  3
Basic
350
5B
  3
Brighten
350
5C
  3
ColorChange
350
5D
  3
Conceptual
350
5E
  3
Dim
350
5F
  3
EdgeColorOff
350
60
  3
Facepattern
350
61
  3
Flat
350
62
  3
FlatWithEdges
350
63
  3
Gouraud
350
64
  3
GouraudWithEdges
350
65
  3
Hidden
350
66
  3
JitterOff
350
67
  3
Linepattern
350
68
  3
Modeling
350
69
  3
OverhangOff
350
6A
  3
Realistic
350
6B
  3
Shaded
350
6C
  3
Shaded with edges
350
6D
  3
Shades of Gray
350
6E
  3
Sketchy
350
6F
  3
Thicken
350
70
  3
Wireframe
350
71
  3
X-Ray
350
72
  0
LAYOUT
  5
1A
330
D
100
AcDbPlotSettings
  1

  4
A3
  6

 40
7.5
 41
20.0
 42
7.5
 43
20.0
 44
420.0
 45
297.0
 46
0.0
 47
0.0
 48
0.0
 49
0.0
140
0.0
141
0.0
142
1.0
143
1.0
 70
1024
 72
1
 73
0
 74
5
  7

 75
16
 76
0
 77
2
 78
300
147
1.0
148
0.0
149
0.0
100
AcDbLayout
  1
Model
 70
1
 71
0
 10
0.0
 20
0.0
 11
420.0
 21
297.0
 12
0.0
 22
0.0
 32
0.0
 14
1e+20
 24
1e+20
 34
1e+20
 15
-1e+20
 25
-1e+20
 35
-1e+20
146
0.0
 13
0.0
 23
0.0
 33
0.0
 16
1.0
 26
0.0
 36
0.0
 17
0.0
 27
1.0
 37
0.0
 76
1
330
17
  0
LAYOUT
  5
1E
330
D
100
AcDbPlotSettings
  1

  4
A3
  6

 40
7.5
 41
20.0
 42
7.5
 43
20.0
 44
420.0
 45
297.0
 46
0.0
 47
0.0
 48
0.0
 49
0.0
140
0.0
141
0.0
142
1.0
143
1.0
 70
0
 72
1
 73
0
 74
5
  7

 75
16
 76
0
 77
2
 78
300
147
1.0
148
0.0
149
0.0
100
AcDbLayout
  1
Layout1
 70
1
 71
1
 10
0.0
 20
0.0
 11
420.0
 21
297.0
 12
0.0
 22
0.0
 32
0.0
 14
1e+20
 24
1e+20
 34
1e+20
 15
-1e+20
 25
-1e+20
 35
-1e+20
146
0.0
 13
0.0
 23
0.0
 33
0.0
 16
1.0
 26
0.0
 36
0.0
 17
0.0
 27
1.0
 37
0.0
 76
1
330
1B
  0
MATERIAL
  5
1F
102
{ACAD_REACTORS
330
E
102
}
330
E
100
AcDbMaterial
  1
ByBlock
  2

 70
0
 40
1.0
 71
1
 41
1.0
 91
-1023410177
 42
1.0
 72
1
  3

 73
1
 74
1
 75
1
 44
0.5
 73
0
 45
1.0
 46
1.0
 77
1
  4

 78
1
 79
1
170
1
 48
1.0
171
1
  6

172
1
173
1
174
1
140
1.0
141
1.0
175
1
  7

176
1
177
1
178
1
143
1.0
179
1
  8

270
1
271
1
272
1
145
1.0
146
1.0
273
1
  9

274
1
275
1
276
1
 42
1.0
 72
1
  3

 73
1
 74
1
 75
1
 94
63
  0
MATERIAL
  5
20
102
{ACAD_REACTORS
330
E
102
}
330
E
100
AcDbMaterial
  1
ByLayer
  2

 70
0
 40
1.0
 71
1
 41
1.0
 91
-1023410177
 42
1.0
 72
1
  3

 73
1
 74
1
 75
1
 44
0.5
 73
0
 45
1.0
 46
1.0
 77
1
  4

 78
1
 79
1
170
1
 48
1.0
171
1
  6

172
1
173
1
174
1
140
1.0
141
1.0
175
1
  7

176
1
177
1
178
1
143
1.0
179
1
  8

270
1
271
1
272
1
145
1.0
146
1.0
273
1
  9

274
1
275
1
276
1
 42
1.0
 72
1
  3

 73
1
 74
1
 75
1
 94
63
  0
MATERIAL
  5
21
102
{ACAD_REACTORS
330
E
102
}
330
E
100
AcDbMaterial
  1
Global
  2

 70
0
 40
1.0
 71
1
 41
1.0
 91
-1023410177
 42
1.0
 72
1
  3

 73
1
 74
1
 75
1
 44
0.5
 73
0
 45
1.0
 46
1.0
 77
1
  4

 78
1
 79
1
170
1
 48
1.0
171
1
  6

172
1
173
1
174
1
140
1.0
141
1.0
175
1
  7

176
1
177
1
178
1
143
1.0
179
1
  8

270
1
271
1
272
1
145
1.0
146
1.0
273
1
  9

274
1
275
1
276
1
 42
1.0
 72
1
  3

 73
1
 74
1
 75
1
 94
63
  0
MLINESTYLE
  5
22
102
{ACAD_REACTORS
330
10
102
}
330
10
100
AcDbMlineStyle
  2
Standard
 70
0
  3

 62
256
 51
90.0
 52
90.0
 71
2
 49
0.5
 62
256
  6
BYLAYER
 49
-0.5
 62
256
  6
BYLAYER
  0
MLEADERSTYLE
  5
2C
102
{ACAD_REACTORS
330
F
102
}
330
F
100
AcDbMLeaderStyle
179
2
170
2
171
1
172
0
 90
2
 40
0.0
 41
0.0
173
1
 91
-1056964608
 92
-2
290
1
 42
2.0
291
1
 43
8.0
  3
Standard
 44
4.0
300

342
29
174
1
175
1
176
0
178
1
 93
-1056964608
 45
4.0
292
0
297
0
 46
4.0
 94
-1056964608
 47
1.0
 49
1.0
140
1.0
294
1
141
0.0
177
0
142
1.0
295
0
296
0
143
3.75
271
0
272
9
273
9
  0
DICTIONARY
  5
2D
330
A
100
AcDbDictionary
280
1
281
1
  3
CREATED_BY_EZDXF
350
2E
  3
WRITTEN_BY_EZDXF
350
12D
  0
DICTIONARYVAR
  5
2E
330
2D
100
DictionaryVariables
280
0
  1
1.4.4 @ 2026-07-13T23:02:46.650942+00:00
  0
VISUALSTYLE
  5
5A
102
{ACAD_REACTORS
330
16
102
}
330
16
100
AcDbVisualStyle
  2
2dWireframe
 70
4
177
3
291
0
 70
58
 90
2
176
1
 90
2
176
1
 90
0
176
1
 90
0
176
1
 40
0.6
176
1
 40
30.0
176
1
 62
7
420
16777215
176
1
 90
1
176
1
 90
4
176
1
 62
7
176
1
 62
257
176
1
 90
1
176
1
 90
1
176
1
 40
1.0
176
1
 90
8
176
1
 62
7
176
1
 40
1.0
176
1
 90
1
176
1
 90
6
176
1
 90
2
176
1
 62
7
176
1
 90
5
176
1
 90
0
176
1
 90
0
176
1
290
0
176
1
 90
1
176
1
 40
0.0
176
1
 90
0
176
1
290
1
176
1
290
1
176
1
290
0
176
1
290
0
176
1
290
0
176
1
290
0
176
1
290
0
176
1
290
0
176
1
290
0
176
1
 90
50
176
1
 40
0.0
176
1
 40
1.0
176
1
 90
0
176
1
 62
18
420
0
176
1
 90
50
176
1
 90
3
176
1
 62
5
420
255
176
1
290
0
176
1
 90
50
176
1
 90
50
176
1
 90
50
176
1
290
0
176
1
 90
50
176
1
 62
256
176
0
 40
1.0
176
0
 90
2
176
1
  1
strokes_ogs.tif
176
1
290
0
176
1
 40
1.0
176
1
 40
1.0
176
1
  0
VISUALSTYLE
  5
5B
102
{ACAD_REACTORS
330
16
102
}
330
16
100
AcDbVisualStyle
  2
Basic
 70
7
177
3
291
1
 70
58
 90
2
176
1
 90
2
176
1
 90
0
176
1
 90
1
176
1
 40
0.6
176
1
 40
30.0
176
1
 62
7
420
16777215
176
1
 90
1
176
1
 90
4
176
1
 62
7
176
1
 62
257
176
1
 90
1
176
1
 90
1
176
1
 40
1.0
176
1
 90
8
176
1
 62
7
176
1
 40
1.0
176
1
 90
1
176
1
 90
6
176
1
 90
2
176
1
 62
7
176
1
 90
5
176
1
 90
0
176
1
 90
0
176
1
290
0
176
1
 90
1
176
1
 40
0.0
176
1
 90
0
176
1
290
0
176
1
290
1
176
1
290
1
176
1
290
0
176
1
290
0
176
1
290
0
176
1
290
0
176
1
290
0
176
1
290
0
176
1
 90
50
176
1
 40
0.0
176
1
 40
1.0
176
1
 90
0
176
1
 62
18
420
0
176
1
 90
50
176
1
 90
3
176
1
 62
5
420
255
176
1
290
0
176
1
 90
50
176
1
 90
50
176
1
 90
50
176
1
290
0
176
1
 90
50
176
1
 62
256
176
0
 40
1.0
176
0
 90
2
176
1
  1
strokes_ogs.tif
176
1
290
0
176
1
 40
1.0
176
1
 40
1.0
176
1
  0
VISUALSTYLE
  5
5C
102
{ACAD_REACTORS
330
16
102
}
330
16
100
AcDbVisualStyle
  2
Brighten
 70
12
177
3
291
1
 70
58
 90
2
176
1
 90
2
176
1
 90
0
176
1
 90
2
176
1
 40
0.6
176
1
 40
30.0
176
1
 62
7
420
16777215
176
1
 90
1
176
1
 90
4
176
1
 62
7
176
1
 62
257
176
1
 90
1
176
1
 90
1
176
1
 40
1.0
176
1
 90
8
176
1
 62
7
176
1
 40
1.0
176
1
 90
1
176
1
 90
6
176
1
 90
2
176
1
 62
7
176
1
 90
5
176
1
 90
0
176
1
 90
0
176
1
290
0
176
1
 90
1
176
1
 40
0.0
176
1
 90
0
176
1
290
0
176
1
290
1
176
1
290
1
176
1
290
0
176
1
290
0
176
1
290
0
176
1
290
0
176
1
290
0
176
1
290
0
176
1
 90
50
176
1
 40
0.0
176
1
 40
1.0
176
1
 90
0
176
1
 62
18
420
0
176
1
 90
50
176
1
 90
3
176
1
 62
5
420
255
176
1
290
0
176
1
 90
50
176
1
 90
50
176
1
 90
50
176
1
290
0
176
1
 90
50
176
1
 62
256
176
0
 40
1.0
176
0
 90
2
176
1
  1
strokes_ogs.tif
176
1
290
0
176
1
 40
1.0
176
1
 40
1.0
176
1
  0
VISUALSTYLE
  5
5D
102
{ACAD_REACTORS
330
16
102
}
330
16
100
AcDbVisualStyle
  2
ColorChange
 70
16
177
3
291
1
 70
58
 90
2
176
1
 90
2
176
1
 90
0
176
1
 90
2
176
1
 40
0.6
176
1
 40
30.0
176
1
 62
7
420
16777215
176
1
 90
1
176
1
 90
4
176
1
 62
7
176
1
 62
257
176
1
 90
1
176
1
 90
1
176
1
 40
1.0
176
1
 90
8
176
1
 62
7
176
1
 40
1.0
176
1
 90
1
176
1
 90
6
176
1
 90
2
176
1
 62
7
176
1
 90
5
176
1
 90
0
176
1
 90
0
176
1
290
0
176
1
 90
1
176
1
 40
0.0
176
1
 90
0
176
1
290
0
176
1
290
1
176
1
290
1
176
1
290
0
176
1
290
0
176
1
290
0
176
1
290
0
176
1
290
0
176
1
290
0
176
1
 90
50
176
1
 40
0.0
176
1
 40
1.0
176
1
 90
0
176
1
 62
18
420
0
176
1
 90
50
176
1
 90
3
176
1
 62
5
420
255
176
1
290
0
176
1
 90
50
176
1
 90
50
176
1
 90
50
176
1
290
0
176
1
 90
50
176
1
 62
256
176
0
 40
1.0
176
0
 90
2
176
1
  1
strokes_ogs.tif
176
1
290
0
176
1
 40
1.0
176
1
 40
1.0
176
1
  0
VISUALSTYLE
  5
5E
102
{ACAD_REACTORS
330
16
102
}
330
16
100
AcDbVisualStyle
  2
Conceptual
 70
9
177
3
291
0
 70
58
 90
2
176
1
 90
2
176
1
 90
0
176
1
 90
3
176
1
 40
0.6
176
1
 40
30.0
176
1
 62
7
420
16777215
176
1
 90
1
176
1
 90
4
176
1
 62
7
176
1
 62
257
176
1
 90
1
176
1
 90
1
176
1
 40
1.0
176
1
 90
8
176
1
 62
7
176
1
 40
1.0
176
1
 90
1
176
1
 90
6
176
1
 90
2
176
1
 62
7
176
1
 90
5
176
1
 90
0
176
1
 90
0
176
1
290
0
176
1
 90
1
176
1
 40
0.0
176
1
 90
0
176
1
290
0
176
1
290
1
176
1
290
1
176
1
290
0
176
1
290
0
176
1
290
0
176
1
290
0
176
1
290
0
176
1
290
0
176
1
 90
50
176
1
 40
0.0
176
1
 40
1.0
176
1
 90
0
176
1
 62
18
420
0
176
1
 90
50
176
1
 90
3
176
1
 62
5
420
255
176
1
290
0
176
1
 90
50
176
1
 90
50
176
1
 90
50
176
1
290
0
176
1
 90
50
176
1
 62
256
176
0
 40
1.0
176
0
 90
2
176
1
  1
strokes_ogs.tif
176
1
290
0
176
1
 40
1.0
176
1
 40
1.0
176
1
  0
VISUALSTYLE
  5
5F
102
{ACAD_REACTORS
330
16
102
}
330
16
100
AcDbVisualStyle
  2
Dim
 70
11
177
3
291
1
 70
58
 90
2
176
1
 90
2
176
1
 90
0
176
1
 90
2
176
1
 40
0.6
176
1
 40
30.0
176
1
 62
7
420
16777215
176
1
 90
1
176
1
 90
4
176
1
 62
7
176
1
 62
257
176
1
 90
1
176
1
 90
1
176
1
 40
1.0
176
1
 90
8
176
1
 62
7
176
1
 40
1.0
176
1
 90
1
176
1
 90
6
176
1
 90
2
176
1
 62
7
176
1
 90
5
176
1
 90
0
176
1
 90
0
176
1
290
0
176
1
 90
1
176
1
 40
0.0
176
1
 90
0
176
1
290
0
176
1
290
1
176
1
290
1
176
1
290
0
176
1
290
0
176
1
290
0
176
1
290
0
176
1
290
0
176
1
290
0
176
1
 90
50
176
1
 40
0.0
176
1
 40
1.0
176
1
 90
0
176
1
 62
18
420
0
176
1
 90
50
176
1
 90
3
176
1
 62
5
420
255
176
1
290
0
176
1
 90
50
176
1
 90
50
176
1
 90
50
176
1
290
0
176
1
 90
50
176
1
 62
256
176
0
 40
1.0
176
0
 90
2
176
1
  1
strokes_ogs.tif
176
1
290
0
176
1
 40
1.0
176
1
 40
1.0
176
1
  0
VISUALSTYLE
  5
60
102
{ACAD_REACTORS
330
16
102
}
330
16
100
AcDbVisualStyle
  2
EdgeColorOff
 70
22
177
3
291
1
 70
58
 90
2
176
1
 90
2
176
1
 90
0
176
1
 90
2
176
1
 40
0.6
176
1
 40
30.0
176
1
 62
7
420
16777215
176
1
 90
1
176
1
 90
4
176
1
 62
7
176
1
 62
257
176
1
 90
1
176
1
 90
1
176
1
 40
1.0
176
1
 90
8
176
1
 62
7
176
1
 40
1.0
176
1
 90
1
176
1
 90
6
176
1
 90
2
176
1
 62
7
176
1
 90
5
176
1
 90
0
176
1
 90
0
176
1
290
0
176
1
 90
1
176
1
 40
0.0
176
1
 90
0
176
1
290
0
176
1
290
1
176
1
290
1
176
1
290
0
176
1
290
0
176
1
290
0
176
1
290
0
176
1
290
0
176
1
290
0
176
1
 90
50
176
1
 40
0.0
176
1
 40
1.0
176
1
 90
0
176
1
 62
18
420
0
176
1
 90
50
176
1
 90
3
176
1
 62
5
420
255
176
1
290
0
176
1
 90
50
176
1
 90
50
176
1
 90
50
176
1
290
0
176
1
 90
50
176
1
 62
256
176
0
 40
1.0
176
0
 90
2
176
1
  1
strokes_ogs.tif
176
1
290
0
176
1
 40
1.0
176
1
 40
1.0
176
1
  0
VISUALSTYLE
  5
61
102
{ACAD_REACTORS
330
16
102
}
330
16
100
AcDbVisualStyle
  2
Facepattern
 70
15
177
3
291
1
 70
58
 90
2
176
1
 90
2
176
1
 90
0
176
1
 90
2
176
1
 40
0.6
176
1
 40
30.0
176
1
 62
7
420
16777215
176
1
 90
1
176
1
 90
4
176
1
 62
7
176
1
 62
257
176
1
 90
1
176
1
 90
1
176
1
 40
1.0
176
1
 90
8
176
1
 62
7
176
1
 40
1.0
176
1
 90
1
176
1
 90
6
176
1
 90
2
176
1
 62
7
176
1
 90
5
176
1
 90
0
176
1
 90
0
176
1
290
0
176
1
 90
1
176
1
 40
0.0
176
1
 90
0
176
1
290
0
176
1
290
1
176
1
290
1
176
1
290
0
176
1
290
0
176
1
290
0
176
1
290
0
176
1
290
0
176
1
290
0
176
1
 90
50
176
1
 40
0.0
176
1
 40
1.0
176
1
 90
0
176
1
 62
18
420
0
176
1
 90
50
176
1
 90
3
176
1
 62
5
420
255
176
1
290
0
176
1
 90
50
176
1
 90
50
176
1
 90
50
176
1
290
0
176
1
 90
50
176
1
 62
256
176
0
 40
1.0
176
0
 90
2
176
1
  1
strokes_ogs.tif
176
1
290
0
176
1
 40
1.0
176
1
 40
1.0
176
1
  0
VISUALSTYLE
  5
62
102
{ACAD_REACTORS
330
16
102
}
330
16
100
AcDbVisualStyle
  2
Flat
 70
0
177
3
291
1
 70
58
 90
2
176
1
 90
2
176
1
 90
0
176
1
 90
2
176
1
 40
0.6
176
1
 40
30.0
176
1
 62
7
420
16777215
176
1
 90
1
176
1
 90
4
176
1
 62
7
176
1
 62
257
176
1
 90
1
176
1
 90
1
176
1
 40
1.0
176
1
 90
8
176
1
 62
7
176
1
 40
1.0
176
1
 90
1
176
1
 90
6
176
1
 90
2
176
1
 62
7
176
1
 90
5
176
1
 90
0
176
1
 90
0
176
1
290
0
176
1
 90
1
176
1
 40
0.0
176
1
 90
0
176
1
290
0
176
1
290
1
176
1
290
1
176
1
290
0
176
1
290
0
176
1
290
0
176
1
290
0
176
1
290
0
176
1
290
0
176
1
 90
50
176
1
 40
0.0
176
1
 40
1.0
176
1
 90
0
176
1
 62
18
420
0
176
1
 90
50
176
1
 90
3
176
1
 62
5
420
255
176
1
290
0
176
1
 90
50
176
1
 90
50
176
1
 90
50
176
1
290
0
176
1
 90
50
176
1
 62
256
176
0
 40
1.0
176
0
 90
2
176
1
  1
strokes_ogs.tif
176
1
290
0
176
1
 40
1.0
176
1
 40
1.0
176
1
  0
VISUALSTYLE
  5
63
102
{ACAD_REACTORS
330
16
102
}
330
16
100
AcDbVisualStyle
  2
FlatWithEdges
 70
1
177
3
291
1
 70
58
 90
2
176
1
 90
2
176
1
 90
0
176
1
 90
2
176
1
 40
0.6
176
1
 40
30.0
176
1
 62
7
420
16777215
176
1
 90
1
176
1
 90
4
176
1
 62
7
176
1
 62
257
176
1
 90
1
176
1
 90
1
176
1
 40
1.0
176
1
 90
8
176
1
 62
7
176
1
 40
1.0
176
1
 90
1
176
1
 90
6
176
1
 90
2
176
1
 62
7
176
1
 90
5
176
1
 90
0
176
1
 90
0
176
1
290
0
176
1
 90
1
176
1
 40
0.0
176
1
 90
0
176
1
290
0
176
1
290
1
176
1
290
1
176
1
290
0
176
1
290
0
176
1
290
0
176
1
290
0
176
1
290
0
176
1
290
0
176
1
 90
50
176
1
 40
0.0
176
1
 40
1.0
176
1
 90
0
176
1
 62
18
420
0
176
1
 90
50
176
1
 90
3
176
1
 62
5
420
255
176
1
290
0
176
1
 90
50
176
1
 90
50
176
1
 90
50
176
1
290
0
176
1
 90
50
176
1
 62
256
176
0
 40
1.0
176
0
 90
2
176
1
  1
strokes_ogs.tif
176
1
290
0
176
1
 40
1.0
176
1
 40
1.0
176
1
  0
VISUALSTYLE
  5
64
102
{ACAD_REACTORS
330
16
102
}
330
16
100
AcDbVisualStyle
  2
Gouraud
 70
2
177
3
291
1
 70
58
 90
2
176
1
 90
2
176
1
 90
0
176
1
 90
2
176
1
 40
0.6
176
1
 40
30.0
176
1
 62
7
420
16777215
176
1
 90
1
176
1
 90
4
176
1
 62
7
176
1
 62
257
176
1
 90
1
176
1
 90
1
176
1
 40
1.0
176
1
 90
8
176
1
 62
7
176
1
 40
1.0
176
1
 90
1
176
1
 90
6
176
1
 90
2
176
1
 62
7
176
1
 90
5
176
1
 90
0
176
1
 90
0
176
1
290
0
176
1
 90
1
176
1
 40
0.0
176
1
 90
0
176
1
290
0
176
1
290
1
176
1
290
1
176
1
290
0
176
1
290
0
176
1
290
0
176
1
290
0
176
1
290
0
176
1
290
0
176
1
 90
50
176
1
 40
0.0
176
1
 40
1.0
176
1
 90
0
176
1
 62
18
420
0
176
1
 90
50
176
1
 90
3
176
1
 62
5
420
255
176
1
290
0
176
1
 90
50
176
1
 90
50
176
1
 90
50
176
1
290
0
176
1
 90
50
176
1
 62
256
176
0
 40
1.0
176
0
 90
2
176
1
  1
strokes_ogs.tif
176
1
290
0
176
1
 40
1.0
176
1
 40
1.0
176
1
  0
VISUALSTYLE
  5
65
102
{ACAD_REACTORS
330
16
102
}
330
16
100
AcDbVisualStyle
  2
GouraudWithEdges
 70
3
177
3
291
1
 70
58
 90
2
176
1
 90
2
176
1
 90
0
176
1
 90
2
176
1
 40
0.6
176
1
 40
30.0
176
1
 62
7
420
16777215
176
1
 90
1
176
1
 90
4
176
1
 62
7
176
1
 62
257
176
1
 90
1
176
1
 90
1
176
1
 40
1.0
176
1
 90
8
176
1
 62
7
176
1
 40
1.0
176
1
 90
1
176
1
 90
6
176
1
 90
2
176
1
 62
7
176
1
 90
5
176
1
 90
0
176
1
 90
0
176
1
290
0
176
1
 90
1
176
1
 40
0.0
176
1
 90
0
176
1
290
0
176
1
290
1
176
1
290
1
176
1
290
0
176
1
290
0
176
1
290
0
176
1
290
0
176
1
290
0
176
1
290
0
176
1
 90
50
176
1
 40
0.0
176
1
 40
1.0
176
1
 90
0
176
1
 62
18
420
0
176
1
 90
50
176
1
 90
3
176
1
 62
5
420
255
176
1
290
0
176
1
 90
50
176
1
 90
50
176
1
 90
50
176
1
290
0
176
1
 90
50
176
1
 62
256
176
0
 40
1.0
176
0
 90
2
176
1
  1
strokes_ogs.tif
176
1
290
0
176
1
 40
1.0
176
1
 40
1.0
176
1
  0
VISUALSTYLE
  5
66
102
{ACAD_REACTORS
330
16
102
}
330
16
100
AcDbVisualStyle
  2
Hidden
 70
6
177
3
291
0
 70
58
 90
2
176
1
 90
2
176
1
 90
0
176
1
 90
1
176
1
 40
0.6
176
1
 40
30.0
176
1
 62
7
420
16777215
176
1
 90
1
176
1
 90
4
176
1
 62
7
176
1
 62
257
176
1
 90
1
176
1
 90
1
176
1
 40
1.0
176
1
 90
8
176
1
 62
7
176
1
 40
1.0
176
1
 90
1
176
1
 90
6
176
1
 90
2
176
1
 62
7
176
1
 90
5
176
1
 90
0
176
1
 90
0
176
1
290
0
176
1
 90
1
176
1
 40
0.0
176
1
 90
0
176
1
290
0
176
1
290
1
176
1
290
1
176
1
290
0
176
1
290
0
176
1
290
0
176
1
290
0
176
1
290
0
176
1
290
0
176
1
 90
50
176
1
 40
0.0
176
1
 40
1.0
176
1
 90
0
176
1
 62
18
420
0
176
1
 90
50
176
1
 90
3
176
1
 62
5
420
255
176
1
290
0
176
1
 90
50
176
1
 90
50
176
1
 90
50
176
1
290
0
176
1
 90
50
176
1
 62
256
176
0
 40
1.0
176
0
 90
2
176
1
  1
strokes_ogs.tif
176
1
290
0
176
1
 40
1.0
176
1
 40
1.0
176
1
  0
VISUALSTYLE
  5
67
102
{ACAD_REACTORS
330
16
102
}
330
16
100
AcDbVisualStyle
  2
JitterOff
 70
20
177
3
291
1
 70
58
 90
2
176
1
 90
2
176
1
 90
0
176
1
 90
2
176
1
 40
0.6
176
1
 40
30.0
176
1
 62
7
420
16777215
176
1
 90
1
176
1
 90
4
176
1
 62
7
176
1
 62
257
176
1
 90
1
176
1
 90
1
176
1
 40
1.0
176
1
 90
8
176
1
 62
7
176
1
 40
1.0
176
1
 90
1
176
1
 90
6
176
1
 90
2
176
1
 62
7
176
1
 90
5
176
1
 90
0
176
1
 90
0
176
1
290
0
176
1
 90
1
176
1
 40
0.0
176
1
 90
0
176
1
290
0
176
1
290
1
176
1
290
1
176
1
290
0
176
1
290
0
176
1
290
0
176
1
290
0
176
1
290
0
176
1
290
0
176
1
 90
50
176
1
 40
0.0
176
1
 40
1.0
176
1
 90
0
176
1
 62
18
420
0
176
1
 90
50
176
1
 90
3
176
1
 62
5
420
255
176
1
290
0
176
1
 90
50
176
1
 90
50
176
1
 90
50
176
1
290
0
176
1
 90
50
176
1
 62
256
176
0
 40
1.0
176
0
 90
2
176
1
  1
strokes_ogs.tif
176
1
290
0
176
1
 40
1.0
176
1
 40
1.0
176
1
  0
VISUALSTYLE
  5
68
102
{ACAD_REACTORS
330
16
102
}
330
16
100
AcDbVisualStyle
  2
Linepattern
 70
14
177
3
291
1
 70
58
 90
2
176
1
 90
2
176
1
 90
0
176
1
 90
2
176
1
 40
0.6
176
1
 40
30.0
176
1
 62
7
420
16777215
176
1
 90
1
176
1
 90
4
176
1
 62
7
176
1
 62
257
176
1
 90
1
176
1
 90
1
176
1
 40
1.0
176
1
 90
8
176
1
 62
7
176
1
 40
1.0
176
1
 90
1
176
1
 90
6
176
1
 90
2
176
1
 62
7
176
1
 90
5
176
1
 90
0
176
1
 90
0
176
1
290
0
176
1
 90
1
176
1
 40
0.0
176
1
 90
0
176
1
290
0
176
1
290
1
176
1
290
1
176
1
290
0
176
1
290
0
176
1
290
0
176
1
290
0
176
1
290
0
176
1
290
0
176
1
 90
50
176
1
 40
0.0
176
1
 40
1.0
176
1
 90
0
176
1
 62
18
420
0
176
1
 90
50
176
1
 90
3
176
1
 62
5
420
255
176
1
290
0
176
1
 90
50
176
1
 90
50
176
1
 90
50
176
1
290
0
176
1
 90
50
176
1
 62
256
176
0
 40
1.0
176
0
 90
2
176
1
  1
strokes_ogs.tif
176
1
290
0
176
1
 40
1.0
176
1
 40
1.0
176
1
  0
VISUALSTYLE
  5
69
102
{ACAD_REACTORS
330
16
102
}
330
16
100
AcDbVisualStyle
  2
Modeling
 70
10
177
3
291
0
 70
58
 90
2
176
1
 90
2
176
1
 90
0
176
1
 90
2
176
1
 40
0.6
176
1
 40
30.0
176
1
 62
7
420
16777215
176
1
 90
1
176
1
 90
4
176
1
 62
7
176
1
 62
257
176
1
 90
1
176
1
 90
1
176
1
 40
1.0
176
1
 90
8
176
1
 62
7
176
1
 40
1.0
176
1
 90
1
176
1
 90
6
176
1
 90
2
176
1
 62
7
176
1
 90
5
176
1
 90
0
176
1
 90
0
176
1
290
0
176
1
 90
1
176
1
 40
0.0
176
1
 90
0
176
1
290
0
176
1
290
1
176
1
290
1
176
1
290
0
176
1
290
0
176
1
290
0
176
1
290
0
176
1
290
0
176
1
290
0
176
1
 90
50
176
1
 40
0.0
176
1
 40
1.0
176
1
 90
0
176
1
 62
18
420
0
176
1
 90
50
176
1
 90
3
176
1
 62
5
420
255
176
1
290
0
176
1
 90
50
176
1
 90
50
176
1
 90
50
176
1
290
0
176
1
 90
50
176
1
 62
256
176
0
 40
1.0
176
0
 90
2
176
1
  1
strokes_ogs.tif
176
1
290
0
176
1
 40
1.0
176
1
 40
1.0
176
1
  0
VISUALSTYLE
  5
6A
102
{ACAD_REACTORS
330
16
102
}
330
16
100
AcDbVisualStyle
  2
OverhangOff
 70
21
177
3
291
1
 70
58
 90
2
176
1
 90
2
176
1
 90
0
176
1
 90
2
176
1
 40
0.6
176
1
 40
30.0
176
1
 62
7
420
16777215
176
1
 90
1
176
1
 90
4
176
1
 62
7
176
1
 62
257
176
1
 90
1
176
1
 90
1
176
1
 40
1.0
176
1
 90
8
176
1
 62
7
176
1
 40
1.0
176
1
 90
1
176
1
 90
6
176
1
 90
2
176
1
 62
7
176
1
 90
5
176
1
 90
0
176
1
 90
0
176
1
290
0
176
1
 90
1
176
1
 40
0.0
176
1
 90
0
176
1
290
0
176
1
290
1
176
1
290
1
176
1
290
0
176
1
290
0
176
1
290
0
176
1
290
0
176
1
290
0
176
1
290
0
176
1
 90
50
176
1
 40
0.0
176
1
 40
1.0
176
1
 90
0
176
1
 62
18
420
0
176
1
 90
50
176
1
 90
3
176
1
 62
5
420
255
176
1
290
0
176
1
 90
50
176
1
 90
50
176
1
 90
50
176
1
290
0
176
1
 90
50
176
1
 62
256
176
0
 40
1.0
176
0
 90
2
176
1
  1
strokes_ogs.tif
176
1
290
0
176
1
 40
1.0
176
1
 40
1.0
176
1
  0
VISUALSTYLE
  5
6B
102
{ACAD_REACTORS
330
16
102
}
330
16
100
AcDbVisualStyle
  2
Realistic
 70
8
177
3
291
0
 70
58
 90
2
176
1
 90
2
176
1
 90
0
176
1
 90
2
176
1
 40
0.6
176
1
 40
30.0
176
1
 62
7
420
16777215
176
1
 90
1
176
1
 90
4
176
1
 62
7
176
1
 62
257
176
1
 90
1
176
1
 90
1
176
1
 40
1.0
176
1
 90
8
176
1
 62
7
176
1
 40
1.0
176
1
 90
1
176
1
 90
6
176
1
 90
2
176
1
 62
7
176
1
 90
5
176
1
 90
0
176
1
 90
0
176
1
290
0
176
1
 90
1
176
1
 40
0.0
176
1
 90
0
176
1
290
0
176
1
290
1
176
1
290
1
176
1
290
0
176
1
290
0
176
1
290
0
176
1
290
0
176
1
290
0
176
1
290
0
176
1
 90
50
176
1
 40
0.0
176
1
 40
1.0
176
1
 90
0
176
1
 62
18
420
0
176
1
 90
50
176
1
 90
3
176
1
 62
5
420
255
176
1
290
0
176
1
 90
50
176
1
 90
50
176
1
 90
50
176
1
290
0
176
1
 90
50
176
1
 62
256
176
0
 40
1.0
176
0
 90
2
176
1
  1
strokes_ogs.tif
176
1
290
0
176
1
 40
1.0
176
1
 40
1.0
176
1
  0
VISUALSTYLE
  5
6C
102
{ACAD_REACTORS
330
16
102
}
330
16
100
AcDbVisualStyle
  2
Shaded
 70
27
177
3
291
0
 70
58
 90
2
176
1
 90
2
176
1
 90
0
176
1
 90
2
176
1
 40
0.6
176
1
 40
30.0
176
1
 62
7
420
16777215
176
1
 90
1
176
1
 90
4
176
1
 62
7
176
1
 62
257
176
1
 90
1
176
1
 90
1
176
1
 40
1.0
176
1
 90
8
176
1
 62
7
176
1
 40
1.0
176
1
 90
1
176
1
 90
6
176
1
 90
2
176
1
 62
7
176
1
 90
5
176
1
 90
0
176
1
 90
0
176
1
290
0
176
1
 90
1
176
1
 40
0.0
176
1
 90
0
176
1
290
0
176
1
290
1
176
1
290
1
176
1
290
0
176
1
290
0
176
1
290
0
176
1
290
0
176
1
290
0
176
1
290
0
176
1
 90
50
176
1
 40
0.0
176
1
 40
1.0
176
1
 90
0
176
1
 62
18
420
0
176
1
 90
50
176
1
 90
3
176
1
 62
5
420
255
176
1
290
0
176
1
 90
50
176
1
 90
50
176
1
 90
50
176
1
290
0
176
1
 90
50
176
1
 62
256
176
0
 40
1.0
176
0
 90
2
176
1
  1
strokes_ogs.tif
176
1
290
0
176
1
 40
1.0
176
1
 40
1.0
176
1
  0
VISUALSTYLE
  5
6D
102
{ACAD_REACTORS
330
16
102
}
330
16
100
AcDbVisualStyle
  2
Shaded with edges
 70
26
177
3
291
0
 70
58
 90
2
176
1
 90
2
176
1
 90
0
176
1
 90
2
176
1
 40
0.6
176
1
 40
30.0
176
1
 62
7
420
16777215
176
1
 90
1
176
1
 90
4
176
1
 62
7
176
1
 62
257
176
1
 90
1
176
1
 90
1
176
1
 40
1.0
176
1
 90
8
176
1
 62
7
176
1
 40
1.0
176
1
 90
1
176
1
 90
6
176
1
 90
2
176
1
 62
7
176
1
 90
5
176
1
 90
0
176
1
 90
0
176
1
290
0
176
1
 90
1
176
1
 40
0.0
176
1
 90
0
176
1
290
0
176
1
290
1
176
1
290
1
176
1
290
0
176
1
290
0
176
1
290
0
176
1
290
0
176
1
290
0
176
1
290
0
176
1
 90
50
176
1
 40
0.0
176
1
 40
1.0
176
1
 90
0
176
1
 62
18
420
0
176
1
 90
50
176
1
 90
3
176
1
 62
5
420
255
176
1
290
0
176
1
 90
50
176
1
 90
50
176
1
 90
50
176
1
290
0
176
1
 90
50
176
1
 62
256
176
0
 40
1.0
176
0
 90
2
176
1
  1
strokes_ogs.tif
176
1
290
0
176
1
 40
1.0
176
1
 40
1.0
176
1
  0
VISUALSTYLE
  5
6E
102
{ACAD_REACTORS
330
16
102
}
330
16
100
AcDbVisualStyle
  2
Shades of Gray
 70
23
177
3
291
0
 70
58
 90
2
176
1
 90
2
176
1
 90
0
176
1
 90
2
176
1
 40
0.6
176
1
 40
30.0
176
1
 62
7
420
16777215
176
1
 90
1
176
1
 90
4
176
1
 62
7
176
1
 62
257
176
1
 90
1
176
1
 90
1
176
1
 40
1.0
176
1
 90
8
176
1
 62
7
176
1
 40
1.0
176
1
 90
1
176
1
 90
6
176
1
 90
2
176
1
 62
7
176
1
 90
5
176
1
 90
0
176
1
 90
0
176
1
290
0
176
1
 90
1
176
1
 40
0.0
176
1
 90
0
176
1
290
0
176
1
290
1
176
1
290
1
176
1
290
0
176
1
290
0
176
1
290
0
176
1
290
0
176
1
290
0
176
1
290
0
176
1
 90
50
176
1
 40
0.0
176
1
 40
1.0
176
1
 90
0
176
1
 62
18
420
0
176
1
 90
50
176
1
 90
3
176
1
 62
5
420
255
176
1
290
0
176
1
 90
50
176
1
 90
50
176
1
 90
50
176
1
290
0
176
1
 90
50
176
1
 62
256
176
0
 40
1.0
176
0
 90
2
176
1
  1
strokes_ogs.tif
176
1
290
0
176
1
 40
1.0
176
1
 40
1.0
176
1
  0
VISUALSTYLE
  5
6F
102
{ACAD_REACTORS
330
16
102
}
330
16
100
AcDbVisualStyle
  2
Sketchy
 70
24
177
3
291
0
 70
58
 90
2
176
1
 90
2
176
1
 90
0
176
1
 90
1
176
1
 40
0.6
176
1
 40
30.0
176
1
 62
7
420
16777215
176
1
 90
1
176
1
 90
4
176
1
 62
7
176
1
 62
257
176
1
 90
1
176
1
 90
1
176
1
 40
1.0
176
1
 90
8
176
1
 62
7
176
1
 40
1.0
176
1
 90
1
176
1
 90
6
176
1
 90
2
176
1
 62
7
176
1
 90
5
176
1
 90
0
176
1
 90
0
176
1
290
0
176
1
 90
1
176
1
 40
0.0
176
1
 90
0
176
1
290
0
176
1
290
1
176
1
290
1
176
1
290
0
176
1
290
0
176
1
290
0
176
1
290
0
176
1
290
0
176
1
290
0
176
1
 90
50
176
1
 40
0.0
176
1
 40
1.0
176
1
 90
0
176
1
 62
18
420
0
176
1
 90
50
176
1
 90
3
176
1
 62
5
420
255
176
1
290
0
176
1
 90
50
176
1
 90
50
176
1
 90
50
176
1
290
0
176
1
 90
50
176
1
 62
256
176
0
 40
1.0
176
0
 90
2
176
1
  1
strokes_ogs.tif
176
1
290
0
176
1
 40
1.0
176
1
 40
1.0
176
1
  0
VISUALSTYLE
  5
70
102
{ACAD_REACTORS
330
16
102
}
330
16
100
AcDbVisualStyle
  2
Thicken
 70
13
177
3
291
1
 70
58
 90
2
176
1
 90
2
176
1
 90
0
176
1
 90
2
176
1
 40
0.6
176
1
 40
30.0
176
1
 62
7
420
16777215
176
1
 90
1
176
1
 90
4
176
1
 62
7
176
1
 62
257
176
1
 90
1
176
1
 90
1
176
1
 40
1.0
176
1
 90
8
176
1
 62
7
176
1
 40
1.0
176
1
 90
1
176
1
 90
6
176
1
 90
2
176
1
 62
7
176
1
 90
5
176
1
 90
0
176
1
 90
0
176
1
290
0
176
1
 90
1
176
1
 40
0.0
176
1
 90
0
176
1
290
0
176
1
290
1
176
1
290
1
176
1
290
0
176
1
290
0
176
1
290
0
176
1
290
0
176
1
290
0
176
1
290
0
176
1
 90
50
176
1
 40
0.0
176
1
 40
1.0
176
1
 90
0
176
1
 62
18
420
0
176
1
 90
50
176
1
 90
3
176
1
 62
5
420
255
176
1
290
0
176
1
 90
50
176
1
 90
50
176
1
 90
50
176
1
290
0
176
1
 90
50
176
1
 62
256
176
0
 40
1.0
176
0
 90
2
176
1
  1
strokes_ogs.tif
176
1
290
0
176
1
 40
1.0
176
1
 40
1.0
176
1
  0
VISUALSTYLE
  5
71
102
{ACAD_REACTORS
330
16
102
}
330
16
100
AcDbVisualStyle
  2
Wireframe
 70
5
177
3
291
0
 70
58
 90
2
176
1
 90
2
176
1
 90
0
176
1
 90
0
176
1
 40
0.6
176
1
 40
30.0
176
1
 62
7
420
16777215
176
1
 90
1
176
1
 90
4
176
1
 62
7
176
1
 62
257
176
1
 90
1
176
1
 90
1
176
1
 40
1.0
176
1
 90
8
176
1
 62
7
176
1
 40
1.0
176
1
 90
1
176
1
 90
6
176
1
 90
2
176
1
 62
7
176
1
 90
5
176
1
 90
0
176
1
 90
0
176
1
290
0
176
1
 90
1
176
1
 40
0.0
176
1
 90
0
176
1
290
0
176
1
290
1
176
1
290
1
176
1
290
0
176
1
290
0
176
1
290
0
176
1
290
0
176
1
290
0
176
1
290
0
176
1
 90
50
176
1
 40
0.0
176
1
 40
1.0
176
1
 90
0
176
1
 62
18
420
0
176
1
 90
50
176
1
 90
3
176
1
 62
5
420
255
176
1
290
0
176
1
 90
50
176
1
 90
50
176
1
 90
50
176
1
290
0
176
1
 90
50
176
1
 62
256
176
0
 40
1.0
176
0
 90
2
176
1
  1
strokes_ogs.tif
176
1
290
0
176
1
 40
1.0
176
1
 40
1.0
176
1
  0
VISUALSTYLE
  5
72
102
{ACAD_REACTORS
330
16
102
}
330
16
100
AcDbVisualStyle
  2
X-Ray
 70
25
177
3
291
0
 70
58
 90
2
176
1
 90
2
176
1
 90
0
176
1
 90
2
176
1
 40
0.5
176
1
 40
30.0
176
1
 62
7
420
16777215
176
1
 90
1
176
1
 90
4
176
1
 62
7
176
1
 62
257
176
1
 90
1
176
1
 90
1
176
1
 40
1.0
176
1
 90
8
176
1
 62
7
176
1
 40
1.0
176
1
 90
1
176
1
 90
6
176
1
 90
2
176
1
 62
7
176
1
 90
5
176
1
 90
0
176
1
 90
0
176
1
290
0
176
1
 90
1
176
1
 40
0.0
176
1
 90
0
176
1
290
0
176
1
290
1
176
1
290
1
176
1
290
0
176
1
290
0
176
1
290
0
176
1
290
0
176
1
290
0
176
1
290
0
176
1
 90
50
176
1
 40
0.0
176
1
 40
1.0
176
1
 90
0
176
1
 62
18
420
0
176
1
 90
50
176
1
 90
3
176
1
 62
5
420
255
176
1
290
0
176
1
 90
50
176
1
 90
50
176
1
 90
50
176
1
290
0
176
1
 90
50
176
1
 62
256
176
0
 40
1.0
176
0
 90
2
176
1
  1
strokes_ogs.tif
176
1
290
0
176
1
 40
1.0
176
1
 40
1.0
176
1
  0
DICTIONARYVAR
  5
12D
330
2D
100
DictionaryVariables
280
0
  1
1.4.4 @ 2026-07-13T23:02:46.666432+00:00
  0
ENDSEC
  0
EOF
