<?xml version="1.0" encoding="utf-8" ?>
<svg baseProfile="full" height="150.416603cm" version="1.1" viewBox="0 0 156.4457246725638 150.416603" width="156.4457246725638cm" xmlns="http://www.w3.org/2000/svg" xmlns:ev="http://www.w3.org/2001/xml-events" xmlns:xlink="http://www.w3.org/1999/xlink"><defs /><g fill="none" id="CONSTRUCCION" stroke="#888888" stroke-width="0.08"><line x1="5.7" x2="5.7" y1="13.816603" y2="72.416603" /><line x1="111.07679184148637" x2="111.07679184148637" y1="64.41660300000001" y2="52.416603" /><line x1="129.4457246725638" x2="152.4457246725638" y1="10.416603" y2="10.416603" /><line x1="37.6" x2="49.6" y1="85.636603" y2="85.636603" /></g><g fill="none" id="CORTE" stroke="#d00000" stroke-width="0.08"><polygon points="3.0,73.416603 30.7,73.416603 30.7,26.040896999999998 30.100068,25.355189999999997 29.746677,24.952019 29.390684,24.547372 29.03155,24.141385 28.668433,23.733855 28.300496,23.324583999999998 27.926906,22.913380999999998 27.546843,22.500072 27.160414,22.085447 26.771075,21.671619 26.384597,21.259573 26.005541,20.848837 25.638339,20.439003 25.287416999999998,20.029882999999998 24.957145,19.621509 24.651775999999998,19.214145 24.375339999999998,18.80826 24.131521,18.404476000000003 23.923496,18.003424000000003 23.753785999999998,17.605459 23.623387,17.207824000000002 23.5304,16.802461 23.471646,16.383051000000002 23.445508,15.948132000000001 23.450623999999998,15.49745 23.485547999999998,15.031383 23.54861,14.550758 23.63787,14.056673 23.751132,13.550351000000001 23.885973,13.033047 24.039794999999998,12.505986 24.209865,11.970326 24.393345999999998,11.427143 24.587334,10.877422 24.788868,10.322057000000001 25.24783,9.074437 17.403982999999997,3.0 16.229177999999997,4.588299 15.664036999999999,5.335345 15.096414999999999,6.052375 14.52268,6.7287360000000005 13.939796999999999,7.354008 13.345283,7.918338 12.736983,8.412908 12.112454,8.830471 11.466976,9.166091000000002 10.784701,9.420415 10.049547,9.603461 9.260290000000001,9.725571 8.42385,9.796249 7.548389,9.826540000000001 6.642187,9.828863 5.706551,9.816603 3.0,9.816603 3.0,73.416603" /><polygon points="60.7,16.115291 60.244879999999995,15.428628000000002 59.956334,14.993013 59.667846999999995,14.556947 59.379368,14.120083 59.090845,13.682075 58.802226000000005,13.242575 58.513459999999995,12.801236999999999 58.224503999999996,12.357730000000002 57.935745999999995,11.912339000000001 57.648979,11.466115 57.366721,11.019655000000002 57.091082,10.572906999999999 56.824129,10.125825 56.567903,9.678408000000001 56.324413,9.230696 56.09562,8.782761 55.883430000000004,8.334699 55.689674,7.886611 55.516095,7.438585 55.364342,6.990659000000001 55.235945,6.542731 55.131893,6.092843 55.051451,5.637062 54.992833000000005,5.173192 54.954642,4.701167 54.903386,3.4166030000000003 35.7,3.4166030000000003 35.7,63.416603 60.7,63.416603 60.7,16.115291" /><polygon points="84.935489,14.221166 84.933947,13.733485 84.948537,13.238502 84.97771900000001,12.736651 85.019895,12.228398 85.073413,11.714223 85.136566,11.194607 85.207604,10.670020000000001 85.284735,10.140914 85.366134,9.607717000000001 85.574323,8.273988 72.671369,3.295102 72.032261,3.729213 71.829432,3.865702 71.629102,3.998 71.430774,4.125299 71.233968,4.246849 71.03821,4.361961 70.84236,4.470379 70.64441000000001,4.572653 70.443353,4.669292 70.239377,4.760203000000001 70.032785,4.845241 69.823881,4.924265 69.61297,4.997142 69.400361,5.0637430000000005 69.186361,5.123944 68.971278,5.177630000000001 68.75532100000001,5.224711 68.53784300000001,5.2653 68.31769200000001,5.299887 68.09443900000001,5.328962000000001 67.868087,5.352947 67.63866700000001,5.372275 67.40623400000001,5.3873940000000005 67.170855,5.3987680000000005 66.932609,5.40688 66.691581,5.412228 66.447859,5.415332 66.20153300000001,5.416724 65.95268899999999,5.416959 65.7,5.416602 65.7,15.416603 84.98318900000001,15.416603 84.935489,14.221166" /><polygon points="94.03946223112722,65.41660300000001 119.8681662311272,65.41660300000001 124.48066723112721,13.971613 123.77432423112721,13.18698 123.35351723112721,12.724838 122.9240412311272,12.263826 122.48384423112721,11.807229 122.03317023112722,11.35939 121.57424823112721,10.92205 121.10807323112721,10.494695 120.6352652311272,10.076448 120.15643323112721,9.666429 119.6721722311272,9.263757 119.18306723112721,8.867551 118.6896942311272,8.476933 118.19261423112721,8.091026 117.69172123112722,7.708456 117.18498223112721,7.327745 116.66990223112721,6.950249 116.14534323112721,6.578886 115.61032823112721,6.216782 115.06382523112721,5.867119 114.50476823112722,5.533153 113.9320732311272,5.21824 113.3446772311272,4.925847 112.74158623112722,4.65958 112.12345523112721,4.423752 111.49537423112722,4.2216059999999995 110.8630832311272,4.050581 110.22883123112722,3.906101 109.59416223112721,3.783532 108.96049523112721,3.678372 108.32917923112721,3.586262 107.70154723112721,3.502985 106.98004923112721,3.4119900000000003 106.2448882311272,3.46593 105.60414223112721,3.516952 104.95957223112721,3.576395 104.3123252311272,3.648428 103.66355223112721,3.737359 103.01445023112721,3.847633 102.36632123112722,3.98383 101.72073223112722,4.150626 101.08187023112721,4.351872 100.45560423112721,4.586795 99.8442392311272,4.851142 99.24718123112721,5.141404 98.66359923112721,5.454244 98.09261123112721,5.786437 97.53331923112721,6.134862 96.98483823112721,6.496479 96.44631723112721,6.868313 95.91694123112721,7.247441 95.3951222311272,7.63159 94.87790423112722,8.021283 94.3646762311272,8.419749 93.85727623112722,8.829174 93.35791823112721,9.251536999999999 92.86887323112721,9.688854 92.3924872311272,10.143166 91.93119923112721,10.616515 91.48755823112721,11.110914 91.0647232311272,11.627714 90.66837023112721,12.162972 90.29859923112721,12.706188000000001 89.94940123112721,13.249384000000001 89.43592523112721,14.071598 94.03946223112722,65.41660300000001" /><polygon points="128.4457246725638,15.66573 128.47556567256382,15.96871 128.5782716725638,16.307285 128.7450566725638,16.619318 128.9695106725638,16.892817 129.2430096725638,17.117271000000002 129.55504267256381,17.284056 129.8936176725638,17.386762 130.19659767256383,17.416603000000002 151.6948516725638,17.416603000000002 151.99783167256382,17.386762 152.3364066725638,17.284056 152.64843967256382,17.117271000000002 152.9219386725638,16.892817 153.14639267256382,16.619318 153.31317767256382,16.307285 153.4158836725638,15.96871 153.4457246725638,15.66573 153.4457246725638,5.167476000000001 153.4158836725638,4.864496 153.31317767256382,4.525921 153.14639267256382,4.213888 152.9219386725638,3.940389 152.64843967256382,3.715935 152.3364066725638,3.54915 151.99783167256382,3.446444 151.6948516725638,3.4166030000000003 130.19659767256383,3.4166030000000003 129.8936176725638,3.446444 129.55504267256381,3.54915 129.2430096725638,3.715935 128.9695106725638,3.940389 128.7450566725638,4.213888 128.5782716725638,4.525921 128.47556567256382,4.864496 128.4457246725638,5.167476000000001 128.4457246725638,15.66573" /><polygon points="3.0,81.06572999999999 3.022155,81.290673 3.1020980000000002,81.554211 3.2319190000000004,81.797089 3.406629,82.009974 3.619514,82.18468399999999 3.8623920000000003,82.314505 4.12593,82.394448 4.350873,82.416603 15.649127,82.416603 15.87407,82.394448 16.137608,82.314505 16.380485999999998,82.18468399999999 16.593370999999998,82.009974 16.768081000000002,81.797089 16.897902000000002,81.554211 16.977845000000002,81.290673 17.0,81.06572999999999 17.0,78.767476 16.977845000000002,78.54253299999999 16.897902000000002,78.278995 16.768081000000002,78.03611699999999 16.593370999999998,77.82323199999999 16.380485999999998,77.648522 16.137608,77.518701 15.87407,77.43875799999999 15.649127,77.416603 4.350873,77.416603 4.12593,77.43875799999999 3.8623920000000003,77.518701 3.619514,77.648522 3.406629,77.82323199999999 3.2319190000000004,78.03611699999999 3.1020980000000002,78.278995 3.022155,78.54253299999999 3.0,78.767476 3.0,81.06572999999999" /><polygon points="21.0,147.416603 29.00722,147.416603 28.601177,90.976671 32.824922,78.41103 30.300660999999998,77.148899 29.604548,78.07726699999999 29.408808999999998,78.338882 29.212994,78.60174599999999 29.017381999999998,78.86606499999999 28.822256,79.132049 28.6279,79.39991099999999 28.434603,79.66986399999999 28.242656,79.94211999999999 28.052355,80.21689599999999 27.863996,80.494407 27.677882,80.774868 27.494319,81.05849599999999 27.313615,81.34550499999999 27.136242,81.63584999999999 26.963303,81.927993 26.795078,82.21952499999999 26.63075,82.509194 26.469275,82.796212 26.309652999999997,83.079802 26.150927,83.359196 25.992183999999998,83.63363799999999 25.832553,83.90238799999999 25.671203,84.16472599999999 25.507341,84.419961 25.340206,84.66744399999999 25.169058,84.906577 24.993161,85.136842 24.810869,85.358903 24.619404,85.575745 24.41765,85.790094 24.206277999999998,86.002788 23.986212,86.21448699999999 23.758442,86.425879 23.524010999999998,86.63769099999999 23.322425,86.816603 21.0,86.816603 21.0,147.416603" /><polygon points="36.6,88.688508 43.6,93.098508 50.6,88.688508 50.6,77.416603 36.6,77.416603 36.6,88.688508" /></g><g fill="none" id="COSTURA" stroke="#00a000" stroke-width="0.08"><polygon points="4.0,10.816603 5.7,10.816603 6.636917171245265,10.828879574551593 7.566965392377786,10.826495753110475 8.483275713284822,10.794791139683936 9.378979183853627,10.71910533827926 10.247206853971463,10.584777952903742 11.081089773525585,10.377148587564665 11.87380616314496,10.081657522754293 12.622560630759658,9.692338554900394 13.331605436739954,9.218267280690839 14.005904288790148,8.670037738420088 14.650420894614543,8.058243966382594 15.270118961917436,7.393480002872816 15.869962198403128,6.686339886185212 16.454914311775916,5.947417654614235 17.02993900974011,5.187307346454347 17.6,4.416603 24.0564392373896,9.416603 23.84959802771455,9.978870580940363 23.645801650517317,10.540469169710793 23.4480949382757,11.100729774141342 23.25952272346752,11.658983402062086 23.08312983857059,12.214561061303078 22.92196111606271,12.766793759694389 22.779061388421706,13.315012505066075 22.657475488125385,13.858548305248204 22.560248247651558,14.396732168070836 22.49042449947803,14.928895101364034 22.451049076082626,15.454368112957864 22.445166809943142,15.972482210682386 22.4758225335374,16.482568402367665 22.54606107934321,16.983957695843763 22.658927279838384,17.475981098940743 22.817015777873205,17.958050620396335 23.018439554671197,18.430384637281662 23.25874127090857,18.893663994669332 23.533433110351083,19.34857502122656 23.838027256764505,19.79580404562056 24.168035893914595,20.236037396518547 24.518971205567123,20.669961402587745 24.886345375487853,21.09826239249535 25.265670587442546,21.521626694908598 25.652459025196965,21.94074063849469 26.04222287251688,22.356290551920843 26.43047431316805,22.768962763854276 26.813017247128172,23.179418540544653 27.188779993915375,23.58805071781536 27.558586779631288,23.995089247150556 27.923288455857527,24.400761792541026 28.283735874175697,24.80529601797755 28.64077988616742,25.208919587450918 28.9952713434143,25.61186016495193 29.348061097497954,26.014345414471354 29.7,26.416603 29.7,72.416603 4.0,72.416603" /><polygon points="35.7,4.416603 53.94249141613642,4.416603 53.956251337565014,4.761449270350051 53.997903441584135,5.276252994128569 54.06241306962703,5.786740386473422 54.15168501536235,6.29255175309847 54.267509273000805,6.793342492642356 54.40960019683117,7.2890408924645484 54.57586886747531,7.779812320084238 54.76416637745514,8.265830029781549 54.97234381929262,8.747267275836617 55.19825228550965,9.224297312529574 55.4397428686282,9.697093394140543 55.69466666117018,10.16582877494966 55.960874755657535,10.630676709237045 56.236218244612196,11.091810451282841 56.5185482205561,11.549403255367169 56.80571577601117,12.00362837577016 57.095572003499356,12.454659066771947 57.386030449882966,12.90267343899347 57.676130805337365,13.347937169999925 57.965889496115864,13.790791886654121 58.255355331457864,14.231581733863534 58.54457712060278,14.670650856535614 58.83360367279005,15.108343399577839 59.12248379725906,15.54500350789767 59.411266303249235,15.980975326402566 59.7,16.416603000000002 59.7,62.416603 35.7,62.416603" /><polygon points="65.7,6.416603 65.95245430921341,6.416959362819071 66.20483086291523,6.416721589548962 66.45705190559389,6.415295544100493 66.70903968173775,6.412087090384485 66.96071643583525,6.406502092311758 67.21200441237482,6.397946413793131 67.46282585584484,6.385825918739425 67.71310301073372,6.36954647106146 67.96275812152989,6.348513934670056 68.21171343272172,6.322134173476034 68.45989118879767,6.289813051390213 68.70721363424613,6.250956432323413 68.95360257343721,6.204971816906703 69.19891975774915,6.1514900319789145 69.44290645846002,6.090589948065581 69.6852895518145,6.022403968215919 69.9257959140573,5.947064495479149 70.16415242143313,5.864703932904493 70.40008595018666,5.7754546835411675 70.63332337656261,5.679449150438394 70.86359157680567,5.576819736645391 71.09061742716054,5.46769884521138 71.31412780387191,5.352218879185578 71.53389863733646,5.2305578483733255 71.75020863974197,5.103361210198594 71.96363149198662,4.971548661176142 72.17474462410257,4.836043383475511 72.384125466122,4.6977685592662475 72.5923514480771,4.557647370717897 72.8,4.416603 84.46190378969061,8.916603 84.37783951157896,9.455146546663693 84.29568002713596,9.993330399041248 84.21733013003025,10.530794862846523 84.14469461393048,11.06718024379338 84.07967827250532,11.602126847595684 84.02418589942339,12.135274979967294 83.98012228835334,12.66626494662207 83.94939223296385,13.19473705327387 83.93390052692352,13.720331605636561 83.93555196390102,14.242688909424 83.94249141613642,14.416603 65.7,14.416603" /><polygon points="90.46190378969061,14.316603 90.79412029060265,13.784633985769025 91.13265986170111,13.25801706878231 91.48384557317247,12.742104346284105 91.85399060030421,12.242239603203355 92.24707228144396,11.761804379750659 92.661734298511,11.29969962120411 93.09587934488307,10.854203797519528 93.54741011393791,10.42359537865272 94.0142292990533,10.006152834559495 94.49423959360695,9.600154635195668 94.98534369097663,9.203879250517051 95.48544428454008,8.815605150479453 95.99244406767505,8.433610805038686 96.50452008290287,8.056635052810098 97.02158256530028,7.686325097724244 97.54421667417024,7.325460693123902 98.07300909005681,6.976824145054288 98.60854649350404,6.643197759560624 99.151415565056,6.327363842688129 99.70220298525676,6.032104700482024 100.26149543465036,5.760202638987529 100.82987959378087,5.514439964249865 101.40794214319236,5.297598982314252 101.996221611122,5.112286228471964 102.59433814198778,4.957755854155839 103.2010876915075,4.8302534681425655 103.81523697130204,4.725917929246023 104.43555269299226,4.640888096280088 105.06080156819903,4.5713028280586405 105.6897503085432,4.513300983395557 106.32116562564563,4.463021421104718 106.95381423112721,4.416603 107.5732154165973,4.494721854731644 108.1912211806063,4.576721375692935 108.80643610169321,4.666482229113522 109.41746475839695,4.767885081223055 110.02291172925645,4.884810598251178 110.62138159281068,5.021139446427542 111.21147892759856,5.180752291981794 111.79180831215906,5.367529801143583 112.36116343653823,5.584748000570606 112.91969566990625,5.831342057197888 113.46814960016144,6.104350460580514 114.00727230078793,6.400803753197476 114.53781084526987,6.717732477527764 115.06051230709137,7.052167176050369 115.57612375973659,7.401138391244281 116.08539227668966,7.761676665588491 116.58906493143469,8.130812541561989 117.08788879745585,8.505576561643768 117.58249433656607,8.883344623983248 118.0726952347304,9.26391157989049 118.55795601311776,9.648106362779291 119.03773987758073,10.036761801488009 119.51151003397186,10.430710724854993 119.9787296881437,10.830785961718597 120.43886204594884,11.23782034091717 120.89137031323982,11.652646691289066 121.3357176958692,12.07609784167264 121.77136739968957,12.509006620906243 122.19818439132484,12.951725022952523 122.61794912571278,13.402312549199232 123.03301229133078,13.858146234768883 123.44572467256381,14.316603 118.95381423112721,64.41660300000001 94.95381423112721,64.41660300000001" /><polygon points="129.4457246725638,5.216603 129.46109644824122,5.0605307423870975 129.50662104655478,4.910456254107928 129.58054898272178,4.772146813584318 129.68003924761456,4.650917575050762 129.80126848614813,4.551427310157964 129.93957792667175,4.477499373990971 130.0896524149509,4.431974775677416 130.24572467256382,4.416603 151.6457246725638,4.416603 151.80179693017672,4.431974775677416 151.95187141845588,4.4774993739909705 152.0901808589795,4.551427310157964 152.21141009751304,4.650917575050762 152.31090036240585,4.772146813584318 152.38482829857284,4.910456254107928 152.4303528968864,5.0605307423870975 152.4457246725638,5.216603 152.4457246725638,15.616603 152.4303528968864,15.772675257612903 152.38482829857284,15.922749745892071 152.31090036240585,16.061059186415683 152.21141009751304,16.18228842494924 152.0901808589795,16.281778689842035 151.95187141845588,16.35570662600903 151.80179693017672,16.401231224322586 151.6457246725638,16.416603000000002 130.24572467256382,16.416603000000002 130.0896524149509,16.401231224322586 129.93957792667175,16.35570662600903 129.80126848614813,16.281778689842035 129.68003924761456,16.18228842494924 129.58054898272178,16.061059186415683 129.50662104655478,15.922749745892071 129.46109644824122,15.772675257612903 129.4457246725638,15.616603" /><polygon points="4.0,78.816603 4.007685887838708,78.73856687119354 4.030448186995486,78.66352962705396 4.067412155078982,78.59437490679215 4.117157287525381,78.53376028752538 4.1777719067921595,78.48401515507898 4.2469266270539645,78.44705118699548 4.321963871193549,78.4242888878387 4.4,78.416603 15.6,78.416603 15.67803612880645,78.4242888878387 15.753073372946035,78.44705118699548 15.82222809320784,78.48401515507898 15.882842712474618,78.53376028752538 15.932587844921018,78.59437490679215 15.969551813004514,78.66352962705396 15.992314112161292,78.73856687119354 16.0,78.816603 16.0,81.01660299999999 15.992314112161292,81.09463912880645 15.969551813004514,81.16967637294603 15.932587844921018,81.23883109320784 15.882842712474618,81.29944571247461 15.82222809320784,81.34919084492101 15.753073372946035,81.38615481300451 15.67803612880645,81.40891711216129 15.6,81.416603 4.4,81.416603 4.3219638711935495,81.40891711216129 4.2469266270539645,81.38615481300451 4.1777719067921595,81.34919084492101 4.117157287525381,81.29944571247461 4.067412155078982,81.23883109320784 4.030448186995486,81.16967637294603 4.007685887838708,81.09463912880645 4.0,81.01660299999999" /><polygon points="22.0,87.816603 23.7,87.816603 23.94613721143092,87.60009207067131 24.191123035168626,87.382661943868 24.433806083519894,87.16339342211545 24.673034968791512,86.94136730793902 24.907658303290262,86.71566440386408 25.136524699322923,86.48536551241604 25.358482769196286,86.24955143612024 25.572381125217127,86.00730297750208 25.777197617466953,85.75780319116355 25.973182834463884,85.50124211397952 26.161311146615965,85.23838243429172 26.342565282091677,84.9699934530469 26.517927969059485,84.69684447119178 26.68838193568788,84.41970478967312 26.854909910145324,84.13934370943767 27.018494620600304,83.85653053143217 27.180118795221286,83.57203455660336 27.34076516217675,83.28662508589797 27.501416449635176,83.00107142026278 27.663055385765034,82.7161428606445 27.8266646987348,82.43260870798989 27.993226961401806,82.15123814296425 28.16345393201771,81.87259061259903 28.337230036760207,81.59658483274411 28.514282265311873,81.32301759182177 28.694337607355273,81.0516856782543 28.877123052572976,80.78238588046399 29.062365590647556,80.51491498687311 29.24979221126158,80.24906978590396 29.439129904097612,79.9846470659788 29.630105658838232,79.72144361551995 29.822446465166003,79.45925622294966 30.015879312763495,79.19788167669024 30.21013119131328,78.93711676516396 30.404929090497923,78.67675827679312 30.6,78.416603 31.6,78.916603 27.6,90.816603 28.0,146.416603 22.0,146.416603" /><polygon points="37.6,78.416603 49.6,78.416603 49.6,88.136603 43.6,91.916603 37.6,88.136603" /></g><g fill="none" id="PIQUETES" stroke="#00b0b0" stroke-width="0.08"><line x1="22.219363779724596" x2="22.315767526427926" y1="16.04795494069981" y2="16.686943452037504" /><line x1="22.686639648703235" x2="22.315767526427926" y1="16.157742290928603" y2="16.686943452037504" /><line x1="29.78626385526715" x2="29.140097400912175" y1="46.89264196036488" y2="46.90094336183213" /><line x1="29.613736144732847" x2="29.140097400912175" y1="47.34056403963513" y2="46.90094336183213" /><line x1="44.582135899574205" x2="44.872875367782875" y1="4.437254863885864" y2="5.014377521235012" /><line x1="45.06035551656222" x2="44.872875367782875" y1="4.395951136114135" y2="5.014377521235012" /><line x1="75.06032306347002" x2="74.76868513978756" y1="14.39557877268774" y2="13.81890961149548" /><line x1="74.58216835266641" x2="74.76868513978756" y1="14.43762722731226" y2="13.81890961149548" /><line x1="114.81327557532029" x2="114.8721152952529" y1="6.972680563438985" y2="7.616216022724836" /><line x1="115.27332478032642" x2="114.8721152952529" y1="7.109628469495347" y2="7.616216022724836" /><line x1="98.23824420365625" x2="98.64304932039887" y1="6.801003993310714" y2="7.304722979908402" /><line x1="98.69730698523884" x2="98.64304932039887" y1="6.660785012549656" y2="7.304722979908402" /><line x1="96.91239064068058" x2="97.3436232145085" y1="7.6883740252519726" y2="8.169662366342584" /><line x1="97.36327434455767" x2="97.3436232145085" y1="7.523741447740476" y2="8.169662366342584" /></g><g fill="none" id="TEXTOS" stroke="#000000" stroke-width="0.08"><text fill="#000000" font-family="sans-serif" font-size="0.9" stroke="none" text-anchor="middle" x="16.372374710894885" y="39.28315505357485">DELANTERO (escote barco)</text><text fill="#000000" font-family="sans-serif" font-size="0.6" stroke="none" text-anchor="middle" x="16.372374710894885" y="40.68315505357485">Pieza N.01</text><text fill="#000000" font-family="sans-serif" font-size="0.6" stroke="none" text-anchor="middle" x="16.372374710894885" y="42.08315505357485">Talla: S</text><text fill="#000000" font-family="sans-serif" font-size="0.6" stroke="none" text-anchor="middle" x="16.372374710894885" y="43.483155053574855">Cortar: 2  (par: izq + der)</text><text fill="#000000" font-family="sans-serif" font-size="0.9" stroke="none" text-anchor="middle" x="47.39306647024231" y="30.593458654431576">ESPALDA</text><text fill="#000000" font-family="sans-serif" font-size="0.6" stroke="none" text-anchor="middle" x="47.39306647024231" y="31.993458654431574">Pieza N.02</text><text fill="#000000" font-family="sans-serif" font-size="0.6" stroke="none" text-anchor="middle" x="47.39306647024231" y="33.39345865443157">Talla: S</text><text fill="#000000" font-family="sans-serif" font-size="0.6" stroke="none" text-anchor="middle" x="47.39306647024231" y="34.793458654431575">Cortar: 1  (al doblez)</text><text fill="#000000" font-family="sans-serif" font-size="0.6" stroke="none" text-anchor="middle" x="47.39306647024231" y="36.19345865443158">AL DOBLEZ</text><text fill="#000000" font-family="sans-serif" font-size="0.9" stroke="none" text-anchor="middle" x="74.4579030326492" y="6.684845639616992">CANESU</text><text fill="#000000" font-family="sans-serif" font-size="0.6" stroke="none" text-anchor="middle" x="74.4579030326492" y="8.084845639616994">Pieza N.03</text><text fill="#000000" font-family="sans-serif" font-size="0.6" stroke="none" text-anchor="middle" x="74.4579030326492" y="9.484845639616992">Talla: S</text><text fill="#000000" font-family="sans-serif" font-size="0.6" stroke="none" text-anchor="middle" x="74.4579030326492" y="10.884845639616993">Cortar: 2  (al doblez x2 (exterior+interior))</text><text fill="#000000" font-family="sans-serif" font-size="0.6" stroke="none" text-anchor="middle" x="74.4579030326492" y="12.284845639616993">AL DOBLEZ</text><text fill="#000000" font-family="sans-serif" font-size="0.9" stroke="none" text-anchor="middle" x="106.90901577036908" y="31.666662315053056">MANGA</text><text fill="#000000" font-family="sans-serif" font-size="0.6" stroke="none" text-anchor="middle" x="106.90901577036908" y="33.06666231505305">Pieza N.04</text><text fill="#000000" font-family="sans-serif" font-size="0.6" stroke="none" text-anchor="middle" x="106.90901577036908" y="34.46666231505306">Talla: S</text><text fill="#000000" font-family="sans-serif" font-size="0.6" stroke="none" text-anchor="middle" x="106.90901577036908" y="35.866662315053055">Cortar: 2  (par: izq + der)</text><text fill="#000000" font-family="sans-serif" font-size="0.9" stroke="none" text-anchor="middle" x="140.9457246725638" y="7.716603000000004">PUNO</text><text fill="#000000" font-family="sans-serif" font-size="0.6" stroke="none" text-anchor="middle" x="140.9457246725638" y="9.116603000000003">Pieza N.05</text><text fill="#000000" font-family="sans-serif" font-size="0.6" stroke="none" text-anchor="middle" x="140.9457246725638" y="10.516603000000003">Talla: S</text><text fill="#000000" font-family="sans-serif" font-size="0.6" stroke="none" text-anchor="middle" x="140.9457246725638" y="11.916603000000002">Cortar: 4  (4 (2 tela + 2 entretela))</text><text fill="#000000" font-family="sans-serif" font-size="0.9" stroke="none" text-anchor="middle" x="9.999999999999996" y="77.21660299999999">TAPETA MANGA</text><text fill="#000000" font-family="sans-serif" font-size="0.6" stroke="none" text-anchor="middle" x="9.999999999999996" y="78.616603">Pieza N.06</text><text fill="#000000" font-family="sans-serif" font-size="0.6" stroke="none" text-anchor="middle" x="9.999999999999996" y="80.01660299999999">Talla: S</text><text fill="#000000" font-family="sans-serif" font-size="0.6" stroke="none" text-anchor="middle" x="9.999999999999996" y="81.416603">Cortar: 2  (par)</text><text fill="#000000" font-family="sans-serif" font-size="0.9" stroke="none" text-anchor="middle" x="25.150212866252474" y="112.2811911491815">VISTA DELANTERA</text><text fill="#000000" font-family="sans-serif" font-size="0.6" stroke="none" text-anchor="middle" x="25.150212866252474" y="113.68119114918149">Pieza N.09</text><text fill="#000000" font-family="sans-serif" font-size="0.6" stroke="none" text-anchor="middle" x="25.150212866252474" y="115.08119114918149">Talla: S</text><text fill="#000000" font-family="sans-serif" font-size="0.6" stroke="none" text-anchor="middle" x="25.150212866252474" y="116.4811911491815">Cortar: 2  (par: izq + der)</text><text fill="#000000" font-family="sans-serif" font-size="0.9" stroke="none" text-anchor="middle" x="43.6" y="81.57288206976743">BOLSILLO</text><text fill="#000000" font-family="sans-serif" font-size="0.6" stroke="none" text-anchor="middle" x="43.6" y="82.97288206976744">Pieza N.10</text><text fill="#000000" font-family="sans-serif" font-size="0.6" stroke="none" text-anchor="middle" x="43.6" y="84.37288206976744">Talla: S</text><text fill="#000000" font-family="sans-serif" font-size="0.6" stroke="none" text-anchor="middle" x="43.6" y="85.77288206976743">Cortar: 1  (1 (opcional))</text></g><g fill="none" id="CENTROS" stroke="#0050ff" stroke-width="0.08"><circle cx="18.9" cy="29.416603" fill="#0050ff" r="0.15" /><circle cx="111.07679184148637" cy="52.416603" fill="#0050ff" r="0.15" /></g><g fill="none" id="HILO" stroke="#c0a000" stroke-width="0.08"><line x1="17.7" x2="17.7" y1="16.816603" y2="69.416603" /><line x1="17.7" x2="18.167302010770378" y1="69.416603" y2="68.31132980719654" /><line x1="17.7" x2="17.232697989229617" y1="69.416603" y2="68.31132980719654" /><line x1="17.7" x2="17.23269798922962" y1="16.816603" y2="17.921876192803463" /><line x1="17.7" x2="18.167302010770378" y1="16.816603" y2="17.921876192803463" /><line x1="36.2" x2="36.2" y1="7.416603" y2="59.416603" /><line x1="36.2" x2="36.66730201077038" y1="59.416603" y2="58.31132980719654" /><line x1="36.2" x2="35.73269798922962" y1="59.416603" y2="58.31132980719654" /><line x1="36.2" x2="35.73269798922962" y1="7.416603" y2="8.521876192803463" /><line x1="36.2" x2="36.66730201077038" y1="7.416603" y2="8.521876192803463" /><line x1="69.96000000000001" x2="69.96000000000001" y1="5.416603" y2="13.916603" /><line x1="69.96000000000001" x2="70.42730201077039" y1="13.916603" y2="12.811329807196538" /><line x1="69.96000000000001" x2="69.49269798922963" y1="13.916603" y2="12.811329807196538" /><line x1="69.96000000000001" x2="69.49269798922963" y1="5.416603" y2="6.521876192803462" /><line x1="69.96000000000001" x2="70.42730201077038" y1="5.416603" y2="6.521876192803462" /><line x1="106.95381423112721" x2="106.95381423112721" y1="8.376603" y2="62.416603" /><line x1="106.95381423112721" x2="107.4211162418976" y1="62.416603" y2="61.31132980719654" /><line x1="106.95381423112721" x2="106.48651222035683" y1="62.416603" y2="61.31132980719654" /><line x1="106.95381423112721" x2="106.48651222035683" y1="8.376603" y2="9.481876192803462" /><line x1="106.95381423112721" x2="107.4211162418976" y1="8.376603" y2="9.481876192803462" /><line x1="140.9457246725638" x2="140.9457246725638" y1="4.916603" y2="15.916603" /><line x1="140.9457246725638" x2="141.41302668333418" y1="15.916603" y2="14.811329807196538" /><line x1="140.9457246725638" x2="140.47842266179345" y1="15.916603" y2="14.811329807196538" /><line x1="140.9457246725638" x2="140.47842266179345" y1="4.916603" y2="6.021876192803462" /><line x1="140.9457246725638" x2="141.41302668333418" y1="4.916603" y2="6.021876192803462" /><line x1="10.0" x2="10.0" y1="78.816603" y2="81.01660299999999" /><line x1="10.0" x2="10.467302010770382" y1="81.01660299999999" y2="79.91132980719654" /><line x1="10.0" x2="9.532697989229618" y1="81.01660299999999" y2="79.91132980719654" /><line x1="10.0" x2="9.53269798922962" y1="78.816603" y2="79.92187619280345" /><line x1="10.0" x2="10.46730201077038" y1="78.816603" y2="79.92187619280345" /><line x1="25.0" x2="25.0" y1="92.816603" y2="143.416603" /><line x1="25.0" x2="25.46730201077038" y1="143.416603" y2="142.31132980719656" /><line x1="25.0" x2="24.532697989229618" y1="143.416603" y2="142.31132980719656" /><line x1="25.0" x2="24.532697989229618" y1="92.816603" y2="93.92187619280345" /><line x1="25.0" x2="25.46730201077038" y1="92.816603" y2="93.92187619280345" /><line x1="43.6" x2="43.6" y1="79.416603" y2="88.136603" /><line x1="43.6" x2="44.06730201077038" y1="88.136603" y2="87.03132980719653" /><line x1="43.6" x2="43.13269798922962" y1="88.136603" y2="87.03132980719653" /><line x1="43.6" x2="43.13269798922962" y1="79.416603" y2="80.52187619280346" /><line x1="43.6" x2="44.06730201077038" y1="79.416603" y2="80.52187619280346" /></g><g fill="none" id="DOBLEZ" stroke="#c000c0" stroke-width="0.08"><line x1="35.7" x2="35.7" y1="4.416603" y2="62.416603" /><line x1="65.7" x2="65.7" y1="4.416603" y2="14.416603" /></g><g fill="none" id="BOTONES" stroke="#ff8000" stroke-width="0.08"><circle cx="5.7" cy="15.316603" fill="#ff8000" r="0.55" /><circle cx="5.7" cy="23.833269666666666" fill="#ff8000" r="0.55" /><circle cx="5.7" cy="32.34993633333333" fill="#ff8000" r="0.55" /><circle cx="5.7" cy="40.866603000000005" fill="#ff8000" r="0.55" /><circle cx="5.7" cy="49.38326966666667" fill="#ff8000" r="0.55" /><circle cx="5.7" cy="57.899936333333336" fill="#ff8000" r="0.55" /><circle cx="5.7" cy="66.41660300000001" fill="#ff8000" r="0.55" /><circle cx="130.6457246725638" cy="10.416603" fill="#ff8000" r="0.55" /></g><g fill="none" id="OJAL" stroke="#ff40a0" stroke-width="0.08"><line x1="4.9" x2="6.5" y1="15.316603" y2="15.316603" /><line x1="4.9" x2="6.5" y1="23.833269666666666" y2="23.833269666666666" /><line x1="4.9" x2="6.5" y1="32.34993633333333" y2="32.34993633333333" /><line x1="4.9" x2="6.5" y1="40.866603000000005" y2="40.866603000000005" /><line x1="4.9" x2="6.5" y1="49.38326966666667" y2="49.38326966666667" /><line x1="4.9" x2="6.5" y1="57.899936333333336" y2="57.899936333333336" /><line x1="4.9" x2="6.5" y1="66.41660300000001" y2="66.41660300000001" /><line x1="151.24572467256382" x2="151.24572467256382" y1="9.616603000000001" y2="11.216603" /></g><g fill="none" id="REFERENCIAS" stroke="#b0b0b0" stroke-width="0.08"><text fill="#000000" font-family="sans-serif" font-size="0.5" stroke="none" text-anchor="start" x="5.7" y="12.816603">CF</text><text fill="#000000" font-family="sans-serif" font-size="0.5" stroke="none" text-anchor="start" x="36.0" y="33.416602999999995">CB</text><text fill="#000000" font-family="sans-serif" font-size="0.5" stroke="none" text-anchor="start" x="140.9457246725638" y="9.616603000000001">DOBLEZ</text><text fill="#000000" font-family="sans-serif" font-size="0.5" stroke="none" text-anchor="start" x="43.6" y="79.916603">boca</text></g></svg>