<?xml version="1.0" encoding="utf-8" ?>
<svg baseProfile="full" height="237.30417699999998cm" version="1.1" viewBox="0 0 118.0 237.30417699999998" width="118.0cm" xmlns="http://www.w3.org/2000/svg" xmlns:ev="http://www.w3.org/2001/xml-events" xmlns:xlink="http://www.w3.org/1999/xlink"><defs /><rect fill="#f7f3ea" height="229.30417699999998" stroke="#333" stroke-width="0.15" width="110.0" x="4.0" y="4.0" /><text fill="#000" font-family="sans-serif" font-size="1.4" x="4.0" y="3.0">PLANO DE CORTE — ancho 110 cm — largo 2.29 m</text><polygon fill="#cfe3f7" fill-opacity="0.5" points="4.0,74.267704 12.00722,74.267704 11.601177,17.827772 15.824922,5.262131 13.300661,4.0 12.604548000000001,4.928368 12.408809,5.189983 12.212994,5.452847 12.017382000000001,5.717166 11.822256,5.98315 11.6279,6.251011999999999 11.434603,6.520965 11.242656,6.793221 11.052355,7.067997 10.863996,7.345508 10.677882,7.6259689999999996 10.494319,7.909597 10.313615,8.196606 10.136242,8.486951000000001 9.963303,8.779094 9.795078,9.070626 9.63075,9.360295 9.469275,9.647313 9.309653,9.930903 9.150927,10.210297 8.992184,10.484739000000001 8.832553,10.753489 8.671203,11.015827 8.507341,11.271062 8.340206,11.518545 8.169058,11.757678 7.993161000000001,11.987943000000001 7.810869,12.210004 7.619404,12.426846 7.41765,12.641195 7.206278,12.853889 6.986212,13.065588 6.7584420000000005,13.27698 6.524011,13.488792 6.322425,13.667704 4.0,13.667704 4.0,74.267704" stroke="#1f6fb2" stroke-width="0.1" /><text fill="#0a3d62" font-family="sans-serif" font-size="1.6" text-anchor="middle" x="9.912461" y="39.133852">09</text><polygon fill="#cfe3f7" fill-opacity="0.5" points="16.824922,74.267704 24.832142,74.267704 24.426099,17.827772 28.649844,5.262131 26.125583,4.0 25.429470000000002,4.928368 25.233731,5.189983 25.037916000000003,5.452847 24.842304000000002,5.717166 24.647178,5.98315 24.452822,6.251011999999999 24.259525,6.520965 24.067578,6.793221 23.877277,7.067997 23.688918,7.345508 23.502804,7.6259689999999996 23.319241,7.909597 23.138537,8.196606 22.961164,8.486951000000001 22.788225,8.779094 22.62,9.070626 22.455672,9.360295 22.294197,9.647313 22.134575,9.930903 21.975849,10.210297 21.817106000000003,10.484739000000001 21.657475,10.753489 21.496125,11.015827 21.332263,11.271062 21.165128000000003,11.518545 20.99398,11.757678 20.818083,11.987943000000001 20.635791,12.210004 20.444326,12.426846 20.242572000000003,12.641195 20.031200000000002,12.853889 19.811134000000003,13.065588 19.583364,13.27698 19.348933000000002,13.488792 19.147347,13.667704 16.824922,13.667704 16.824922,74.267704" stroke="#1f6fb2" stroke-width="0.1" /><text fill="#0a3d62" font-family="sans-serif" font-size="1.6" text-anchor="middle" x="22.737383" y="39.133852">09</text><polygon fill="#cfe3f7" fill-opacity="0.5" points="29.649844,74.233067 57.349844000000004,74.233067 57.349844000000004,30.177806999999998 57.742242000000005,30.699429 58.787898999999996,32.183516 59.804586,33.739025999999996 60.811348,35.346999 61.824383000000005,36.975901 62.860467,38.593613999999995 63.937614,40.16832 65.075248,41.668200999999996 66.294363,43.060738 67.617291,44.311391 69.062556,45.379078 70.62739400000001,46.229013 72.28785300000001,46.86685 74.02731700000001,47.312627 75.83364700000001,47.588375 77.69718,47.715893 79.609701,47.716083999999995 81.56359800000001,47.608869 83.551353,47.413354 85.565281,47.148058999999996 87.597425,46.831092999999996 89.63952900000001,46.480295999999996 92.506283,45.965483 92.506283,14.241893 50.971472000000006,9.257715000000001 38.924533000000004,4.0 38.254392,4.893731 38.058653,5.155346 37.862838,5.41821 37.667226,5.682529 37.472100000000005,5.948513 37.277744,6.216374999999999 37.084447000000004,6.486328 36.8925,6.758584 36.702199,7.03336 36.51384,7.310871 36.327726,7.5913319999999995 36.144163000000006,7.87496 35.963459,8.161969 35.786086000000005,8.452314000000001 35.613147,8.744457 35.444922000000005,9.035989 35.280594,9.325658 35.119119,9.612676 34.959497,9.896266 34.800771000000005,10.17566 34.642028,10.450102000000001 34.482397000000006,10.718852 34.321047,10.98119 34.157185,11.236425 33.990050000000004,11.483908 33.818902,11.723041 33.643005,11.953306000000001 33.460713,12.175367 33.269248000000005,12.392209 33.067494,12.606558 32.856122,12.819252 32.636056,13.030951 32.408286000000004,13.242343 32.173855,13.454155 31.972269,13.633067 29.649844,13.633067 29.649844,74.233067" stroke="#1f6fb2" stroke-width="0.1" /><text fill="#0a3d62" font-family="sans-serif" font-size="1.6" text-anchor="middle" x="61.0780635" y="39.1165335">01</text><polygon fill="#cfe3f7" fill-opacity="0.5" points="4.0,145.500771 31.7,145.500771 31.7,101.445511 32.092398,101.96713299999999 33.138054999999994,103.45121999999999 34.154742,105.00672999999999 35.161504,106.61470299999999 36.174539,108.243605 37.210623,109.86131799999998 38.28777,111.436024 39.425404,112.93590499999999 40.644519,114.328442 41.967447,115.579095 43.412712000000006,116.646782 44.97755,117.49671699999999 46.638009000000004,118.134554 48.377473,118.580331 50.183803000000005,118.856079 52.047336,118.983597 53.959857,118.98378799999999 55.913754000000004,118.876573 57.901509000000004,118.681058 59.915437000000004,118.415763 61.947581,118.09879699999999 63.989685,117.74799999999999 66.856439,117.23318699999999 66.856439,85.509597 25.321628,80.525419 13.274689,75.267704 12.604548000000001,76.161435 12.408809,76.42304999999999 12.212994,76.685914 12.017382000000001,76.950233 11.822256,77.216217 11.6279,77.484079 11.434603,77.754032 11.242656,78.026288 11.052355,78.301064 10.863996,78.578575 10.677882,78.85903599999999 10.494319,79.142664 10.313615,79.429673 10.136242,79.720018 9.963303,80.01216099999999 9.795078,80.303693 9.63075,80.593362 9.469275,80.88038 9.309653,81.16396999999999 9.150927,81.44336399999999 8.992184,81.717806 8.832553,81.986556 8.671203,82.24889399999999 8.507341,82.50412899999999 8.340206,82.751612 8.169058,82.99074499999999 7.993161000000001,83.22100999999999 7.810869,83.44307099999999 7.619404,83.65991299999999 7.41765,83.87426199999999 7.206278,84.086956 6.986212,84.298655 6.7584420000000005,84.510047 6.524011,84.721859 6.322425,84.90077099999999 4.0,84.90077099999999 4.0,145.500771" stroke="#1f6fb2" stroke-width="0.1" /><text fill="#0a3d62" font-family="sans-serif" font-size="1.6" text-anchor="middle" x="35.4282195" y="110.3842375">01</text><polygon fill="#cfe3f7" fill-opacity="0.5" points="89.561904,172.566951 89.973216,173.11408799999998 91.027723,174.61411199999998 92.053579,176.18801399999998 93.07019199999999,177.81506 94.094004,179.462134 95.142154,181.095646 96.2331,182.682337 97.38682,184.188934 98.62500399999999,185.581371 99.970722,186.823243 101.441798,187.870557 103.032088,188.690777 104.716747,189.29254899999998 106.479443,189.697069 108.308151,189.927202 110.193434,190.00543699999997 112.127295,189.953243 114.1023,189.79103199999997 116.111052,189.53837599999997 118.145948,189.21424299999998 120.199082,188.837203 122.262228,188.425559 125.123808,187.83218599999998 125.123808,156.13109799999998 83.567128,151.144296 71.533273,146.500771 70.894165,146.934882 70.69133599999999,147.071371 70.491006,147.203669 70.292678,147.33096799999998 70.095872,147.452518 69.900114,147.56762999999998 69.704264,147.67604799999998 69.506314,147.77832199999997 69.305257,147.87496099999998 69.101281,147.965872 68.894689,148.05091 68.685785,148.129934 68.474874,148.202811 68.262265,148.269412 68.048265,148.329613 67.833182,148.383299 67.61722499999999,148.43037999999999 67.39974699999999,148.470969 67.179596,148.50555599999998 66.956343,148.534631 66.729991,148.55861599999997 66.50057100000001,148.57794399999997 66.268138,148.59306299999997 66.032759,148.604437 65.794513,148.61254899999997 65.553485,148.617897 65.309763,148.62100099999998 65.063437,148.622393 64.814593,148.622628 64.561904,148.62227099999998 64.561904,216.62227199999998 89.561904,216.62227199999998 89.561904,172.566951 39.561904,172.566951 39.150592,173.11408799999998 38.096085,174.61411199999998 37.070229,176.18801399999998 36.053616,177.81506 35.029804,179.462134 33.981654,181.095646 32.890708000000004,182.682337 31.736987999999997,184.188934 30.498804,185.581371 29.153086000000002,186.823243 27.68201,187.870557 26.091719999999995,188.690777 24.407061,189.29254899999998 22.644365,189.697069 20.815657,189.927202 18.930374,190.00543699999997 16.996513,189.953243 15.021507999999997,189.79103199999997 13.012755999999996,189.53837599999997 10.97786,189.21424299999998 8.924726,188.837203 6.8615799999999965,188.425559 4.0,187.83218599999998 4.0,156.13109799999998 45.55668,151.144296 57.590534999999996,146.500771 58.229642999999996,146.934882 58.432472,147.071371 58.632802,147.203669 58.83113,147.33096799999998 59.027936,147.452518 59.223693999999995,147.56762999999998 59.419544,147.67604799999998 59.617494,147.77832199999997 59.818551,147.87496099999998 60.022527,147.965872 60.229119,148.05091 60.438023,148.129934 60.648934,148.202811 60.861543,148.269412 61.075542999999996,148.329613 61.290625999999996,148.383299 61.506583,148.43037999999999 61.724061,148.470969 61.944212,148.50555599999998 62.167465,148.534631 62.393817,148.55861599999997 62.623236999999996,148.57794399999997 62.855669999999996,148.59306299999997 63.091049,148.604437 63.329295,148.61254899999997 63.570323,148.617897 63.814045,148.62100099999998 64.060371,148.622393 64.309215,148.622628 64.561904,148.62227099999998 64.561904,216.62227199999998 39.561904,216.62227199999998 39.561904,172.566951" stroke="#1f6fb2" stroke-width="0.1" /><text fill="#0a3d62" font-family="sans-serif" font-size="1.6" text-anchor="middle" x="64.561904" y="181.56152149999997">02</text><polygon fill="#cfe3f7" fill-opacity="0.5" points="4.0,228.89417699999998 11.0,233.30417699999998 18.0,228.89417699999998 18.0,217.62227199999998 4.0,217.62227199999998 4.0,228.89417699999998" stroke="#1f6fb2" stroke-width="0.1" /><text fill="#0a3d62" font-family="sans-serif" font-size="1.6" text-anchor="middle" x="11.0" y="225.46322449999997">10</text><polygon fill="#cfe3f7" fill-opacity="0.5" points="41.65536899999999,224.47724899999997 42.146859,224.566546 42.638402,224.650749 43.129994999999994,224.72985699999998 43.621635999999995,224.803868 44.113321,224.87278099999997 44.605048,224.93659499999998 45.096813999999995,224.995308 45.588615,225.04891999999998 46.080449,225.09742899999998 46.572312999999994,225.14083499999998 47.064203,225.17913599999997 47.556116,225.21233199999998 48.048049,225.24042199999997 48.539998999999995,225.26340499999998 49.031962,225.28128199999998 49.523936,225.29405099999997 50.015916,225.30171299999998 50.507898999999995,225.30426599999998 50.999882,225.30171299999998 51.491862,225.29405099999997 51.983836,225.28128199999998 52.475798999999995,225.26340499999998 52.967749,225.24042199999997 53.459682,225.21233199999998 53.951595,225.17913599999997 54.443484999999995,225.14083499999998 54.935349,225.09742899999998 55.427183,225.04891999999998 55.918983999999995,224.995308 56.41075,224.93659499999998 56.902477,224.87278099999997 57.394161999999994,224.803868 57.885802999999996,224.72985699999998 58.377396,224.650749 58.868939,224.566546 59.360428999999996,224.47724899999997 59.644778,224.42263499999999 61.6965,227.84217199999998 62.751718,227.443189 60.938626,217.62227199999998 59.46481,217.92064499999998 58.993041,218.01125699999997 58.521327,218.09695999999997 58.049666,218.17775699999999 57.578055,218.25364899999997 57.106492,218.324638 56.634973,218.39072499999997 56.163495999999995,218.45191099999997 55.692057999999996,218.508198 55.220655,218.55958599999997 54.749285,218.60607699999997 54.277945,218.64767099999997 53.806630999999996,218.68436999999997 53.33534,218.71617399999997 52.864069,218.74308399999998 52.392815,218.765101 51.921574,218.78222399999999 51.450344,218.79445499999997 50.979119999999995,218.80179299999998 50.507898999999995,218.80424 50.036677999999995,218.80179299999998 49.565454,218.79445499999997 49.094224,218.78222399999999 48.622983,218.765101 48.151729,218.74308399999998 47.680458,218.71617399999997 47.209166999999994,218.68436999999997 46.737853,218.64767099999997 46.266512999999996,218.60607699999997 45.795142999999996,218.55958599999997 45.32374,218.508198 44.852301999999995,218.45191099999997 44.380825,218.39072499999997 43.909306,218.324638 43.437743,218.25364899999997 42.966132,218.17775699999999 42.494471,218.09695999999997 42.022757,218.01125699999997 41.550988,217.92064499999998 40.875859,217.783966 40.875859,224.32453999999998 41.163934,224.382861 41.65536899999999,224.47724899999997 40.096349000000004,224.47724899999997 39.604859,224.566546 39.113316,224.650749 38.621723,224.72985699999998 38.130082,224.803868 37.638397,224.87278099999997 37.14667,224.93659499999998 36.654904,224.995308 36.163103,225.04891999999998 35.671268999999995,225.09742899999998 35.179405,225.14083499999998 34.687515,225.17913599999997 34.195601999999994,225.21233199999998 33.703669,225.24042199999997 33.211719,225.26340499999998 32.719756,225.28128199999998 32.227782,225.29405099999997 31.735802,225.30171299999998 31.243819,225.30426599999998 30.751835999999997,225.30171299999998 30.259856,225.29405099999997 29.767882,225.28128199999998 29.275919,225.26340499999998 28.783969,225.24042199999997 28.292035999999996,225.21233199999998 27.800123,225.17913599999997 27.308232999999998,225.14083499999998 26.816368999999998,225.09742899999998 26.324534999999997,225.04891999999998 25.832734,224.995308 25.340967999999997,224.93659499999998 24.849241,224.87278099999997 24.357556,224.803868 23.865914999999998,224.72985699999998 23.374322,224.650749 22.882779,224.566546 22.391288999999997,224.47724899999997 22.106939999999998,224.42263499999999 20.055218,227.84217199999998 19.0,227.443189 20.813091999999997,217.62227199999998 22.286907999999997,217.92064499999998 22.758677,218.01125699999997 23.230390999999997,218.09695999999997 23.702052,218.17775699999999 24.173662999999998,218.25364899999997 24.645225999999997,218.324638 25.116744999999998,218.39072499999997 25.588222,218.45191099999997 26.05966,218.508198 26.531062999999996,218.55958599999997 27.002432999999996,218.60607699999997 27.473772999999998,218.64767099999997 27.945087,218.68436999999997 28.416377999999998,218.71617399999997 28.887648999999996,218.74308399999998 29.358902999999998,218.765101 29.830143999999997,218.78222399999999 30.301374,218.79445499999997 30.772598,218.80179299999998 31.243819,218.80424 31.71504,218.80179299999998 32.186263999999994,218.79445499999997 32.657494,218.78222399999999 33.128735,218.765101 33.599988999999994,218.74308399999998 34.071259999999995,218.71617399999997 34.542551,218.68436999999997 35.013864999999996,218.64767099999997 35.485205,218.60607699999997 35.956575,218.55958599999997 36.427977999999996,218.508198 36.899416,218.45191099999997 37.370892999999995,218.39072499999997 37.842411999999996,218.324638 38.313975,218.25364899999997 38.785585999999995,218.17775699999999 39.257247,218.09695999999997 39.728961,218.01125699999997 40.20073,217.92064499999998 40.875859,217.783966 40.875859,224.32453999999998 40.587784,224.382861 40.096349000000004,224.47724899999997" stroke="#1f6fb2" stroke-width="0.1" /><text fill="#0a3d62" font-family="sans-serif" font-size="1.6" text-anchor="middle" x="40.875859" y="222.73222199999998">07</text><polygon fill="#cfe3f7" fill-opacity="0.5" points="86.627903,222.92481399999997 87.159438,222.99580699999999 87.69099399999999,223.06274599999998 88.22256999999999,223.12562999999997 88.754166,223.18445899999998 89.28577999999999,223.23923299999998 89.81741099999999,223.28995199999997 90.349058,223.33661399999997 90.880719,223.37921899999998 91.412393,223.41776799999997 91.94407899999999,223.45225999999997 92.475776,223.48269499999998 93.007482,223.50907199999997 93.539196,223.53139199999998 94.070916,223.54965399999998 94.602642,223.56385699999998 95.134372,223.57400299999998 95.66610399999999,223.58008999999998 96.19783799999999,223.58211899999998 96.72957199999999,223.58008999999998 97.261304,223.57400299999998 97.79303399999999,223.56385699999998 98.32476,223.54965399999998 98.85648,223.53139199999998 99.388194,223.50907199999997 99.9199,223.48269499999998 100.45159699999999,223.45225999999997 100.983283,223.41776799999997 101.514957,223.37921899999998 102.046618,223.33661399999997 102.57826499999999,223.28995199999997 103.10989599999999,223.23923299999998 103.64151,223.18445899999998 104.17310599999999,223.12562999999997 104.70468199999999,223.06274599999998 105.236238,222.99580699999999 105.76777299999999,222.92481399999997 106.299284,222.84976799999998 107.679878,222.6443 107.679878,217.62227199999998 106.01226799999999,217.870456 105.495575,217.94340999999997 104.978906,218.01241699999997 104.46225799999999,218.07747799999999 103.94563,218.13859399999998 103.429022,218.195765 102.912432,218.248991 102.395859,218.29827199999997 101.879302,218.34360999999998 101.362759,218.38500499999998 100.846229,218.42245599999998 100.329711,218.455964 99.813204,218.48552899999999 99.296706,218.51115199999998 98.780216,218.53283199999998 98.263732,218.55057 97.747254,218.56436699999998 97.23078,218.574221 96.71430799999999,218.580134 96.19783799999999,218.58210499999998 95.68136799999999,218.580134 95.164896,218.574221 94.648422,218.56436699999998 94.131944,218.55057 93.61546,218.53283199999998 93.09897,218.51115199999998 92.582472,218.48552899999999 92.06596499999999,218.455964 91.549447,218.42245599999998 91.032917,218.38500499999998 90.516374,218.34360999999998 89.999817,218.29827199999997 89.483244,218.248991 88.96665399999999,218.195765 88.450046,218.13859399999998 87.93341799999999,218.07747799999999 87.41677,218.01241699999997 86.90010099999999,217.94340999999997 86.383408,217.870456 85.71579799999999,217.771098 85.71579799999999,222.79312599999997 86.096392,222.84976799999998 86.627903,222.92481399999997 84.803693,222.92481399999997 84.27215799999999,222.99580699999999 83.740602,223.06274599999998 83.209026,223.12562999999997 82.67742999999999,223.18445899999998 82.145816,223.23923299999998 81.61418499999999,223.28995199999997 81.082538,223.33661399999997 80.550877,223.37921899999998 80.019203,223.41776799999997 79.487517,223.45225999999997 78.95581999999999,223.48269499999998 78.424114,223.50907199999997 77.8924,223.53139199999998 77.36068,223.54965399999998 76.828954,223.56385699999998 76.297224,223.57400299999998 75.765492,223.58008999999998 75.233758,223.58211899999998 74.702024,223.58008999999998 74.17029199999999,223.57400299999998 73.638562,223.56385699999998 73.106836,223.54965399999998 72.575116,223.53139199999998 72.043402,223.50907199999997 71.511696,223.48269499999998 70.97999899999999,223.45225999999997 70.448313,223.41776799999997 69.916639,223.37921899999998 69.38497799999999,223.33661399999997 68.853331,223.28995199999997 68.32169999999999,223.23923299999998 67.790086,223.18445899999998 67.25849,223.12562999999997 66.726914,223.06274599999998 66.195358,222.99580699999999 65.663823,222.92481399999997 65.132312,222.84976799999998 63.751718,222.6443 63.751718,217.62227199999998 65.419328,217.870456 65.936021,217.94340999999997 66.45268999999999,218.01241699999997 66.969338,218.07747799999999 67.48596599999999,218.13859399999998 68.002574,218.195765 68.51916399999999,218.248991 69.035737,218.29827199999997 69.55229399999999,218.34360999999998 70.068837,218.38500499999998 70.58536699999999,218.42245599999998 71.101885,218.455964 71.618392,218.48552899999999 72.13489,218.51115199999998 72.65137999999999,218.53283199999998 73.167864,218.55057 73.684342,218.56436699999998 74.200816,218.574221 74.717288,218.580134 75.233758,218.58210499999998 75.75022799999999,218.580134 76.2667,218.574221 76.783174,218.56436699999998 77.299652,218.55057 77.816136,218.53283199999998 78.33262599999999,218.51115199999998 78.84912399999999,218.48552899999999 79.365631,218.455964 79.882149,218.42245599999998 80.39867899999999,218.38500499999998 80.915222,218.34360999999998 81.43177899999999,218.29827199999997 81.948352,218.248991 82.464942,218.195765 82.98155,218.13859399999998 83.498178,218.07747799999999 84.014826,218.01241699999997 84.53149499999999,217.94340999999997 85.048188,217.870456 85.71579799999999,217.771098 85.71579799999999,222.79312599999997 85.335204,222.84976799999998 84.803693,222.92481399999997" stroke="#1f6fb2" stroke-width="0.1" /><text fill="#0a3d62" font-family="sans-serif" font-size="1.6" text-anchor="middle" x="85.71579799999999" y="220.6021955">08</text></svg>