<?xml version="1.0" encoding="utf-8" ?>
<svg baseProfile="full" height="204.83902799999998cm" version="1.1" viewBox="0 0 118.0 204.83902799999998" width="118.0cm" xmlns="http://www.w3.org/2000/svg" xmlns:ev="http://www.w3.org/2001/xml-events" xmlns:xlink="http://www.w3.org/1999/xlink"><defs /><rect fill="#f7f3ea" height="196.83902799999998" stroke="#333" stroke-width="0.15" width="110.0" x="4.0" y="4.0" /><text fill="#000" font-family="sans-serif" font-size="1.4" x="4.0" y="3.0">PLANO DE CORTE — ancho 110 cm — largo 1.97 m</text><polygon fill="#cfe3f7" fill-opacity="0.5" points="8.603537000000001,66.004613 34.432241,66.004613 39.044742,14.559622999999998 38.338398999999995,13.774989999999999 37.917592,13.312847999999999 37.488116,12.851835999999999 37.047919,12.395239 36.597245,11.9474 36.138323,11.51006 35.672148,11.082705 35.19934,10.664458 34.720508,10.254439 34.236247,9.851766999999999 33.747142,9.455561 33.253769,9.064943 32.756689,8.679036 32.255796000000004,8.296466 31.749057,7.915755 31.233977,7.538259 30.709418,7.1668959999999995 30.174402999999998,6.804792 29.6279,6.4551289999999995 29.068843,6.121163 28.496148,5.80625 27.908752,5.513857 27.305661,5.24759 26.687530000000002,5.011762 26.059449,4.809616 25.427158,4.638591 24.792906000000002,4.494111 24.158237,4.371542 23.52457,4.266382 22.893254,4.174272 22.265622,4.0909949999999995 21.544124,4.0 20.808963,4.05394 20.168217,4.104962 19.523647,4.164405 18.8764,4.236438 18.227627,4.325369 17.578525,4.435643 16.930396000000002,4.57184 16.284807,4.738636 15.645945000000001,4.939882 15.019679,5.174805 14.408314,5.439152 13.811256,5.729414 13.227674,6.042254 12.656686,6.374447 12.097394,6.722872 11.548913,7.084489 11.010392,7.456322999999999 10.481016,7.835451 9.959197,8.2196 9.441979,8.609293000000001 8.928751,9.007759 8.421351,9.417183999999999 7.9219930000000005,9.839547 7.432948,10.276864 6.956562,10.731176 6.495274,11.204525 6.051633000000001,11.698924 5.628798,12.215724 5.232445000000002,12.750982 4.862674000000002,13.294198000000002 4.513476000000001,13.837394 4.0,14.659607999999999 8.603537000000001,66.004613" stroke="#1f6fb2" stroke-width="0.1" /><text fill="#0a3d62" font-family="sans-serif" font-size="1.6" text-anchor="middle" x="21.522371" y="35.0023065">04</text><polygon fill="#cfe3f7" fill-opacity="0.5" points="44.648279,66.004613 70.47698299999999,66.004613 75.089484,14.559622999999998 74.383141,13.774989999999999 73.962334,13.312847999999999 73.532858,12.851835999999999 73.09266099999999,12.395239 72.641987,11.9474 72.183065,11.51006 71.71689,11.082705 71.24408199999999,10.664458 70.76525000000001,10.254439 70.280989,9.851766999999999 69.791884,9.455561 69.29851099999999,9.064943 68.80143100000001,8.679036 68.300538,8.296466 67.793799,7.915755 67.278719,7.538259 66.75416,7.1668959999999995 66.219145,6.804792 65.672642,6.4551289999999995 65.113585,6.121163 64.54089,5.80625 63.953494,5.513857 63.350403,5.24759 62.732272,5.011762 62.104191,4.809616 61.4719,4.638591 60.837648,4.494111 60.202979,4.371542 59.569312,4.266382 58.937996,4.174272 58.310364,4.0909949999999995 57.588865999999996,4.0 56.853705,4.05394 56.212959,4.104962 55.568388999999996,4.164405 54.921142,4.236438 54.272369,4.325369 53.623267,4.435643 52.975138,4.57184 52.329549,4.738636 51.690687,4.939882 51.064420999999996,5.174805 50.453056000000004,5.439152 49.855998,5.729414 49.272416,6.042254 48.701428,6.374447 48.142136,6.722872 47.593655,7.084489 47.055133999999995,7.456322999999999 46.525757999999996,7.835451 46.003939,8.2196 45.486721,8.609293000000001 44.973493,9.007759 44.466093,9.417183999999999 43.966735,9.839547 43.477689999999996,10.276864 43.001304,10.731176 42.540016,11.204525 42.096375,11.698924 41.67354,12.215724 41.277187,12.750982 40.907416,13.294198000000002 40.558218,13.837394 40.044742,14.659607999999999 44.648279,66.004613" stroke="#1f6fb2" stroke-width="0.1" /><text fill="#0a3d62" font-family="sans-serif" font-size="1.6" text-anchor="middle" x="57.567113" y="35.0023065">04</text><polygon fill="#cfe3f7" fill-opacity="0.5" points="54.0,79.70330100000001 53.54488,79.016638 53.256333999999995,78.581023 52.967847,78.144957 52.679368,77.708093 52.390845,77.27008500000001 52.102226,76.83058500000001 51.81346,76.38924700000001 51.524504,75.94574 51.235746,75.500349 50.948979,75.054125 50.666720999999995,74.60766500000001 50.391082,74.16091700000001 50.124128999999996,73.713835 49.867903,73.266418 49.624413000000004,72.818706 49.39562,72.370771 49.18343,71.92270900000001 48.989674,71.47462100000001 48.816095000000004,71.026595 48.664342000000005,70.578669 48.535945,70.130741 48.431893,69.68085300000001 48.351451,69.22507200000001 48.292833,68.76120200000001 48.254642000000004,68.28917700000001 48.203385999999995,67.004613 29.0,67.004613 29.0,127.004613 54.0,127.004613 54.0,79.70330100000001 4.0,79.70330100000001 4.455120000000001,79.016638 4.743666000000001,78.581023 5.032153000000001,78.144957 5.320632,77.708093 5.609155000000001,77.27008500000001 5.897773999999998,76.83058500000001 6.186540000000001,76.38924700000001 6.475496,75.94574 6.764254000000001,75.500349 7.051020999999999,75.054125 7.333279000000001,74.60766500000001 7.608917999999999,74.16091700000001 7.875871,73.713835 8.132097000000002,73.266418 8.375587,72.818706 8.604379999999999,72.370771 8.816569999999999,71.92270900000001 9.010326,71.47462100000001 9.183905,71.026595 9.335657999999999,70.578669 9.464054999999998,70.130741 9.568107000000001,69.68085300000001 9.648549,69.22507200000001 9.707166999999998,68.76120200000001 9.745358,68.28917700000001 9.796614000000002,67.004613 29.0,67.004613 29.0,127.004613 4.0,127.004613 4.0,79.70330100000001" stroke="#1f6fb2" stroke-width="0.1" /><text fill="#0a3d62" font-family="sans-serif" font-size="1.6" text-anchor="middle" x="29.0" y="97.004613">02</text><polygon fill="#cfe3f7" fill-opacity="0.5" points="55.0,76.672317 55.0,119.79231700000001 62.881465,119.79231700000001 62.601177,80.832385 66.824922,68.266744 64.300661,67.004613 63.604548,67.93298100000001 63.408809,68.194596 63.212994,68.45746000000001 63.017382,68.72177900000001 62.822256,68.987763 62.6279,69.25562500000001 62.434603,69.52557800000001 62.242656,69.79783400000001 62.052355,70.07261000000001 61.863996,70.350121 61.677882,70.630582 61.494319000000004,70.91421000000001 61.313615,71.20121900000001 61.136242,71.49156400000001 60.963302999999996,71.783707 60.795078000000004,72.07523900000001 60.63075,72.364908 60.469274999999996,72.651926 60.309653,72.935516 60.150927,73.21491 59.992184,73.48935200000001 59.832553000000004,73.75810200000001 59.671203,74.02044000000001 59.507341,74.275675 59.340206,74.52315800000001 59.169058,74.762291 58.993161,74.99255600000001 58.810869,75.214617 58.619404,75.431459 58.41765,75.645808 58.206278,75.858502 57.986212,76.07020100000001 57.758442,76.281593 57.524011,76.49340500000001 57.322425,76.672317 55.0,76.672317" stroke="#1f6fb2" stroke-width="0.1" /><text fill="#0a3d62" font-family="sans-serif" font-size="1.6" text-anchor="middle" x="60.912461" y="93.39846500000002">09</text><polygon fill="#cfe3f7" fill-opacity="0.5" points="67.824922,76.672317 67.824922,119.79231700000001 75.706387,119.79231700000001 75.426099,80.832385 79.649844,68.266744 77.125583,67.004613 76.42947000000001,67.93298100000001 76.233731,68.194596 76.037916,68.45746000000001 75.842304,68.72177900000001 75.647178,68.987763 75.452822,69.25562500000001 75.259525,69.52557800000001 75.067578,69.79783400000001 74.877277,70.07261000000001 74.688918,70.350121 74.502804,70.630582 74.319241,70.91421000000001 74.138537,71.20121900000001 73.961164,71.49156400000001 73.788225,71.783707 73.62,72.07523900000001 73.455672,72.364908 73.294197,72.651926 73.134575,72.935516 72.975849,73.21491 72.817106,73.48935200000001 72.657475,73.75810200000001 72.496125,74.02044000000001 72.332263,74.275675 72.165128,74.52315800000001 71.99398,74.762291 71.818083,74.99255600000001 71.635791,75.214617 71.444326,75.431459 71.242572,75.645808 71.0312,75.858502 70.811134,76.07020100000001 70.583364,76.281593 70.348933,76.49340500000001 70.147347,76.672317 67.824922,76.672317" stroke="#1f6fb2" stroke-width="0.1" /><text fill="#0a3d62" font-family="sans-serif" font-size="1.6" text-anchor="middle" x="73.737383" y="93.39846500000002">09</text><polygon fill="#cfe3f7" fill-opacity="0.5" points="80.649844,76.63768 80.649844,119.75768000000001 108.349844,119.75768000000001 108.349844,89.861974 107.750516,89.176956 107.396521,88.77309600000001 107.040528,88.368449 106.681394,87.962462 106.318277,87.55493200000001 105.95034,87.145661 105.57675,86.734458 105.196687,86.321149 104.810258,85.906524 104.420919,85.49269600000001 104.034441,85.08065 103.655385,84.669914 103.288183,84.26008 102.937261,83.85096 102.606989,83.442586 102.30162,83.035222 102.025184,82.629337 101.781365,82.225553 101.57334,81.82450100000001 101.40362999999999,81.426536 101.27323100000001,81.028901 101.180244,80.62353800000001 101.12149,80.20412800000001 101.095352,79.769209 101.100468,79.318527 101.135392,78.85246000000001 101.198454,78.371835 101.287714,77.87775 101.400976,77.37142800000001 101.53581700000001,76.85412400000001 101.689639,76.32706300000001 101.85970900000001,75.791403 102.04319,75.24822 102.237178,74.69849900000001 102.43871200000001,74.143134 102.970248,72.69823000000001 89.924533,67.004613 89.254392,67.89834400000001 89.058653,68.159959 88.862838,68.42282300000001 88.667226,68.68714200000001 88.4721,68.95312600000001 88.277744,69.220988 88.084447,69.490941 87.8925,69.763197 87.70219900000001,70.03797300000001 87.51384,70.31548400000001 87.327726,70.595945 87.144163,70.87957300000001 86.963459,71.166582 86.786086,71.45692700000001 86.613147,71.74907 86.444922,72.040602 86.28059400000001,72.33027100000001 86.119119,72.617289 85.959497,72.900879 85.800771,73.180273 85.642028,73.45471500000001 85.482397,73.723465 85.32104700000001,73.985803 85.157185,74.241038 84.99005,74.488521 84.81890200000001,74.727654 84.643005,74.957919 84.460713,75.17998 84.269248,75.396822 84.067494,75.61117100000001 83.856122,75.82386500000001 83.636056,76.03556400000001 83.408286,76.24695600000001 83.173855,76.458768 82.972269,76.63768 80.649844,76.63768" stroke="#1f6fb2" stroke-width="0.1" /><text fill="#0a3d62" font-family="sans-serif" font-size="1.6" text-anchor="middle" x="94.499844" y="93.3811465">01</text><polygon fill="#cfe3f7" fill-opacity="0.5" points="4.0,137.63768000000002 4.0,180.75768 31.7,180.75768 31.7,150.861974 31.100672,150.17695600000002 30.746677,149.773096 30.390684,149.368449 30.03155,148.96246200000002 29.668433,148.554932 29.300496,148.14566100000002 28.926906,147.73445800000002 28.546843,147.321149 28.160414,146.906524 27.771075,146.492696 27.384597,146.08065 27.005541,145.669914 26.638339,145.26008000000002 26.287416999999998,144.85096000000001 25.957145,144.442586 25.651775999999998,144.035222 25.375339999999998,143.62933700000002 25.131521,143.22555300000002 24.923496,142.824501 24.753785999999998,142.426536 24.623387,142.02890100000002 24.5304,141.623538 24.471646,141.204128 24.445508,140.76920900000002 24.450623999999998,140.31852700000002 24.485547999999998,139.85246 24.54861,139.371835 24.63787,138.87775 24.751132,138.371428 24.885973,137.854124 25.039794999999998,137.327063 25.209865,136.791403 25.393345999999998,136.24822 25.587334,135.698499 25.788868,135.143134 26.320404,133.69823 13.274689,128.004613 12.604548000000001,128.898344 12.408809,129.15995900000001 12.212994,129.422823 12.017382000000001,129.687142 11.822256,129.953126 11.6279,130.220988 11.434603,130.490941 11.242656,130.76319700000002 11.052355,131.037973 10.863996,131.315484 10.677882,131.595945 10.494319,131.879573 10.313615,132.166582 10.136242,132.456927 9.963303,132.74907000000002 9.795078,133.040602 9.63075,133.330271 9.469275,133.617289 9.309653,133.900879 9.150927,134.180273 8.992184,134.454715 8.832553,134.723465 8.671203,134.985803 8.507341,135.241038 8.340206,135.48852100000002 8.169058,135.727654 7.993161000000001,135.957919 7.810869,136.17998 7.619404,136.39682200000001 7.41765,136.611171 7.206278,136.823865 6.986212,137.035564 6.7584420000000005,137.246956 6.524011,137.45876800000002 6.322425,137.63768000000002 4.0,137.63768000000002" stroke="#1f6fb2" stroke-width="0.1" /><text fill="#0a3d62" font-family="sans-serif" font-size="1.6" text-anchor="middle" x="17.85" y="154.3811465">01</text><polygon fill="#cfe3f7" fill-opacity="0.5" points="32.7,139.276518 39.7,143.686518 46.7,139.276518 46.7,128.004613 32.7,128.004613 32.7,139.276518" stroke="#1f6fb2" stroke-width="0.1" /><text fill="#0a3d62" font-family="sans-serif" font-size="1.6" text-anchor="middle" x="39.7" y="135.84556550000002">10</text><polygon fill="#cfe3f7" fill-opacity="0.5" points="47.7,140.25374 47.729841,140.55672 47.832547000000005,140.895295 47.999332,141.20732800000002 48.223786000000004,141.480827 48.497285000000005,141.705281 48.809318000000005,141.87206600000002 49.147893,141.974772 49.450873,142.004613 70.949127,142.004613 71.252107,141.974772 71.590682,141.87206600000002 71.902715,141.705281 72.176214,141.480827 72.400668,141.20732800000002 72.567453,140.895295 72.670159,140.55672 72.7,140.25374 72.7,129.75548600000002 72.670159,129.452506 72.567453,129.113931 72.400668,128.801898 72.176214,128.528399 71.902715,128.303945 71.590682,128.13716 71.252107,128.034454 70.949127,128.004613 49.450873,128.004613 49.147893,128.034454 48.809318000000005,128.13716 48.497285000000005,128.303945 48.223786000000004,128.528399 47.999332,128.801898 47.832547000000005,129.113931 47.729841,129.452506 47.7,129.75548600000002 47.7,140.25374" stroke="#1f6fb2" stroke-width="0.1" /><text fill="#0a3d62" font-family="sans-serif" font-size="1.6" text-anchor="middle" x="60.2" y="135.004613">05</text><polygon fill="#cfe3f7" fill-opacity="0.5" points="73.7,140.25374 73.72984100000001,140.55672 73.832547,140.895295 73.99933200000001,141.20732800000002 74.223786,141.480827 74.497285,141.705281 74.809318,141.87206600000002 75.147893,141.974772 75.450873,142.004613 96.949127,142.004613 97.252107,141.974772 97.590682,141.87206600000002 97.902715,141.705281 98.176214,141.480827 98.400668,141.20732800000002 98.567453,140.895295 98.670159,140.55672 98.7,140.25374 98.7,129.75548600000002 98.670159,129.452506 98.567453,129.113931 98.400668,128.801898 98.176214,128.528399 97.902715,128.303945 97.590682,128.13716 97.252107,128.034454 96.949127,128.004613 75.450873,128.004613 75.147893,128.034454 74.809318,128.13716 74.497285,128.303945 74.223786,128.528399 73.99933200000001,128.801898 73.832547,129.113931 73.72984100000001,129.452506 73.7,129.75548600000002 73.7,140.25374" stroke="#1f6fb2" stroke-width="0.1" /><text fill="#0a3d62" font-family="sans-serif" font-size="1.6" text-anchor="middle" x="86.2" y="135.004613">05</text><polygon fill="#cfe3f7" fill-opacity="0.5" points="43.109812000000005,192.683744 43.108270000000005,192.19606299999998 43.12286,191.70108 43.152042,191.199229 43.194218,190.690976 43.247736,190.17680099999998 43.310889,189.657185 43.381927000000005,189.132598 43.459058,188.603492 43.540457,188.070295 43.748646,186.73656599999998 30.845692,181.75768 30.206584,182.191791 30.003755,182.32828 29.803425,182.460578 29.605097,182.587877 29.408291,182.709427 29.212533,182.824539 29.016683,182.932957 28.818733,183.03523099999998 28.617676,183.13187 28.4137,183.222781 28.207108,183.307819 27.998204,183.386843 27.787293000000002,183.45972 27.574684,183.526321 27.360684,183.586522 27.145601,183.640208 26.929644,183.687289 26.712166,183.727878 26.492015000000002,183.762465 26.268762000000002,183.79154 26.04241,183.81552499999998 25.81299,183.83485299999998 25.580557,183.84997199999998 25.345178,183.861346 25.106932,183.86945799999998 24.865904,183.874806 24.622182000000002,183.87790999999999 24.375856,183.879302 24.127012,183.879537 23.874323,183.87918 23.874323,193.879181 43.157512,193.879181 43.109812000000005,192.683744 4.638833999999999,192.683744 4.640376,192.19606299999998 4.6257860000000015,191.70108 4.596603999999999,191.199229 4.5544280000000015,190.690976 4.500910000000001,190.17680099999998 4.437757000000001,189.657185 4.366719,189.132598 4.289588000000002,188.603492 4.208189000000001,188.070295 4.0,186.73656599999998 16.902954,181.75768 17.542062,182.191791 17.744891,182.32828 17.945221,182.460578 18.143549,182.587877 18.340355000000002,182.709427 18.536113,182.824539 18.731963,182.932957 18.929913,183.03523099999998 19.13097,183.13187 19.334946000000002,183.222781 19.541538,183.307819 19.750442,183.386843 19.961353000000003,183.45972 20.173962,183.526321 20.387962,183.586522 20.603045,183.640208 20.819002,183.687289 21.03648,183.727878 21.256631,183.762465 21.479884,183.79154 21.706236,183.81552499999998 21.935656,183.83485299999998 22.168089000000002,183.84997199999998 22.403468,183.861346 22.641714,183.86945799999998 22.882742,183.874806 23.126464,183.87790999999999 23.372790000000002,183.879302 23.621634,183.879537 23.874323,183.87918 23.874323,193.879181 4.591134,193.879181 4.638833999999999,192.683744" stroke="#1f6fb2" stroke-width="0.1" /><text fill="#0a3d62" font-family="sans-serif" font-size="1.6" text-anchor="middle" x="23.874323" y="187.8184305">03</text><polygon fill="#cfe3f7" fill-opacity="0.5" points="67.404015,188.61265699999998 67.895505,188.701954 68.387048,188.786157 68.878641,188.865265 69.370282,188.939276 69.86196699999999,189.008189 70.35369399999999,189.072003 70.84546,189.130716 71.337261,189.184328 71.829095,189.232837 72.320959,189.276243 72.812849,189.31454399999998 73.304762,189.34774 73.796695,189.37583 74.288645,189.398813 74.780608,189.41669 75.272582,189.429459 75.764562,189.437121 76.256545,189.439674 76.748528,189.437121 77.240508,189.429459 77.732482,189.41669 78.224445,189.398813 78.716395,189.37583 79.208328,189.34774 79.700241,189.31454399999998 80.19213099999999,189.276243 80.68399500000001,189.232837 81.175829,189.184328 81.66763,189.130716 82.159396,189.072003 82.651123,189.008189 83.142808,188.939276 83.63444899999999,188.865265 84.126042,188.786157 84.61758499999999,188.701954 85.10907499999999,188.61265699999998 85.39342400000001,188.558043 87.445146,191.97758 88.50036399999999,191.578597 86.68727200000001,181.75768 85.21345600000001,182.056053 84.741687,182.14666499999998 84.269973,182.23236799999998 83.79831200000001,182.313165 83.326701,182.38905699999998 82.85513800000001,182.460046 82.38361900000001,182.526133 81.91214199999999,182.58731899999998 81.440704,182.643606 80.969301,182.69499399999998 80.497931,182.74148499999998 80.026591,182.783079 79.55527699999999,182.81977799999999 79.08398600000001,182.851582 78.61271500000001,182.878492 78.14146099999999,182.900509 77.67022,182.917632 77.19899000000001,182.92986299999998 76.727766,182.937201 76.256545,182.939648 75.785324,182.937201 75.3141,182.92986299999998 74.84287,182.917632 74.371629,182.900509 73.900375,182.878492 73.429104,182.851582 72.957813,182.81977799999999 72.486499,182.783079 72.015159,182.74148499999998 71.543789,182.69499399999998 71.072386,182.643606 70.600948,182.58731899999998 70.129471,182.526133 69.657952,182.460046 69.18638899999999,182.38905699999998 68.714778,182.313165 68.243117,182.23236799999998 67.77140299999999,182.14666499999998 67.299634,182.056053 66.624505,181.919374 66.624505,188.459948 66.91257999999999,188.518269 67.404015,188.61265699999998 65.844995,188.61265699999998 65.353505,188.701954 64.861962,188.786157 64.370369,188.865265 63.878727999999995,188.939276 63.387043,189.008189 62.895316,189.072003 62.403549999999996,189.130716 61.911749,189.184328 61.419915,189.232837 60.928050999999996,189.276243 60.436161,189.31454399999998 59.944248,189.34774 59.452315,189.37583 58.960364999999996,189.398813 58.468402,189.41669 57.976428,189.429459 57.484448,189.437121 56.992464999999996,189.439674 56.500482,189.437121 56.008502,189.429459 55.516528,189.41669 55.024564999999996,189.398813 54.532615,189.37583 54.040682,189.34774 53.548769,189.31454399999998 53.056878999999995,189.276243 52.565015,189.232837 52.073181,189.184328 51.581379999999996,189.130716 51.089614,189.072003 50.597887,189.008189 50.106201999999996,188.939276 49.614560999999995,188.865265 49.122968,188.786157 48.631425,188.701954 48.139934999999994,188.61265699999998 47.855586,188.558043 45.803864000000004,191.97758 44.748646,191.578597 46.561738,181.75768 48.035554,182.056053 48.507323,182.14666499999998 48.979037,182.23236799999998 49.450698,182.313165 49.922309,182.38905699999998 50.393872,182.460046 50.865391,182.526133 51.336867999999996,182.58731899999998 51.808306,182.643606 52.279709,182.69499399999998 52.751079,182.74148499999998 53.222419,182.783079 53.693733,182.81977799999999 54.165024,182.851582 54.636295,182.878492 55.107549,182.900509 55.57879,182.917632 56.05002,182.92986299999998 56.521243999999996,182.937201 56.992464999999996,182.939648 57.463685999999996,182.937201 57.93491,182.92986299999998 58.40614,182.917632 58.877381,182.900509 59.348635,182.878492 59.819906,182.851582 60.291197,182.81977799999999 60.762511,182.783079 61.233851,182.74148499999998 61.705220999999995,182.69499399999998 62.176624000000004,182.643606 62.648061999999996,182.58731899999998 63.119539,182.526133 63.591058000000004,182.460046 64.06262100000001,182.38905699999998 64.534232,182.313165 65.005893,182.23236799999998 65.477607,182.14666499999998 65.949376,182.056053 66.624505,181.919374 66.624505,188.459948 66.33643000000001,188.518269 65.844995,188.61265699999998" stroke="#1f6fb2" stroke-width="0.1" /><text fill="#0a3d62" font-family="sans-serif" font-size="1.6" text-anchor="middle" x="66.624505" y="186.86763">07</text><polygon fill="#cfe3f7" fill-opacity="0.5" points="26.876185,200.18172299999998 27.407719999999998,200.252716 27.939276,200.31965499999998 28.470852,200.38253899999998 29.002448,200.44136799999998 29.534062,200.496142 30.065693,200.54686099999998 30.59734,200.59352299999998 31.129001,200.63612799999999 31.660674999999998,200.67467699999997 32.192361,200.70916899999997 32.724058,200.73960399999999 33.255764,200.76598099999998 33.787478,200.788301 34.319198,200.80656299999998 34.850924,200.820766 35.382654,200.83091199999998 35.914386,200.836999 36.44612,200.83902799999998 36.977854,200.836999 37.509586,200.83091199999998 38.041315999999995,200.820766 38.573042,200.80656299999998 39.104762,200.788301 39.636476,200.76598099999998 40.168182,200.73960399999999 40.699878999999996,200.70916899999997 41.231565,200.67467699999997 41.763239,200.63612799999999 42.2949,200.59352299999998 42.826547,200.54686099999998 43.358177999999995,200.496142 43.889792,200.44136799999998 44.421388,200.38253899999998 44.952963999999994,200.31965499999998 45.48452,200.252716 46.016054999999994,200.18172299999998 46.547566,200.106677 47.92816,199.901209 47.92816,194.879181 46.260549999999995,195.127365 45.743857,195.20031899999998 45.227188,195.26932599999998 44.710539999999995,195.334387 44.193912,195.395503 43.677304,195.452674 43.160714,195.5059 42.644141,195.55518099999998 42.127584,195.600519 41.611041,195.64191399999999 41.094511,195.679365 40.577993,195.712873 40.061486,195.742438 39.544988000000004,195.768061 39.028498,195.789741 38.512014,195.807479 37.995536,195.82127599999998 37.479062,195.83113 36.96259,195.837043 36.44612,195.839014 35.929649999999995,195.837043 35.413178,195.83113 34.896704,195.82127599999998 34.380226,195.807479 33.863742,195.789741 33.347252,195.768061 32.830754,195.742438 32.314246999999995,195.712873 31.797729,195.679365 31.281199,195.64191399999999 30.764656,195.600519 30.248099,195.55518099999998 29.731526,195.5059 29.214935999999998,195.452674 28.698328,195.395503 28.1817,195.334387 27.665052,195.26932599999998 27.148383,195.20031899999998 26.63169,195.127365 25.96408,195.028007 25.96408,200.05003499999998 26.344673999999998,200.106677 26.876185,200.18172299999998 25.051975,200.18172299999998 24.52044,200.252716 23.988884,200.31965499999998 23.457307999999998,200.38253899999998 22.925711999999997,200.44136799999998 22.394098,200.496142 21.862467,200.54686099999998 21.33082,200.59352299999998 20.799159,200.63612799999999 20.267485,200.67467699999997 19.735799,200.70916899999997 19.204102,200.73960399999999 18.672396,200.76598099999998 18.140681999999998,200.788301 17.608962,200.80656299999998 17.077236,200.820766 16.545506,200.83091199999998 16.013773999999998,200.836999 15.48204,200.83902799999998 14.950306,200.836999 14.418574,200.83091199999998 13.886844,200.820766 13.355118,200.80656299999998 12.823398,200.788301 12.291683999999998,200.76598099999998 11.759977999999998,200.73960399999999 11.228280999999999,200.70916899999997 10.696594999999999,200.67467699999997 10.164921,200.63612799999999 9.63326,200.59352299999998 9.101613,200.54686099999998 8.569982,200.496142 8.038367999999998,200.44136799999998 7.506771999999998,200.38253899999998 6.975196,200.31965499999998 6.4436399999999985,200.252716 5.912105,200.18172299999998 5.3805939999999985,200.106677 4.0,199.901209 4.0,194.879181 5.66761,195.127365 6.184303,195.20031899999998 6.700972,195.26932599999998 7.21762,195.334387 7.734248000000001,195.395503 8.250855999999999,195.452674 8.767446,195.5059 9.284019,195.55518099999998 9.800576,195.600519 10.317119,195.64191399999999 10.833649,195.679365 11.350166999999999,195.712873 11.866674,195.742438 12.383171999999998,195.768061 12.899662,195.789741 13.416146,195.807479 13.932623999999999,195.82127599999998 14.449098,195.83113 14.96557,195.837043 15.48204,195.839014 15.99851,195.837043 16.514982,195.83113 17.031456,195.82127599999998 17.547933999999998,195.807479 18.064418,195.789741 18.580908,195.768061 19.097406,195.742438 19.613913,195.712873 20.130430999999998,195.679365 20.646960999999997,195.64191399999999 21.163504,195.600519 21.680061,195.55518099999998 22.196634,195.5059 22.713224,195.452674 23.229832,195.395503 23.74646,195.334387 24.263108,195.26932599999998 24.779777,195.20031899999998 25.29647,195.127365 25.96408,195.028007 25.96408,200.05003499999998 25.583486,200.106677 25.051975,200.18172299999998" stroke="#1f6fb2" stroke-width="0.1" /><text fill="#0a3d62" font-family="sans-serif" font-size="1.6" text-anchor="middle" x="25.96408" y="197.8591045">08</text><polygon fill="#cfe3f7" fill-opacity="0.5" points="48.92816,198.52830799999998 48.950314999999996,198.75325099999998 49.030257999999996,199.016789 49.160078999999996,199.25966699999998 49.334789,199.47255199999998 49.547674,199.64726199999998 49.790552,199.77708299999998 50.054089999999995,199.857026 50.279033,199.879181 61.577287,199.879181 61.802229999999994,199.857026 62.065768,199.77708299999998 62.308645999999996,199.64726199999998 62.521530999999996,199.47255199999998 62.696241,199.25966699999998 62.826062,199.016789 62.906005,198.75325099999998 62.92816,198.52830799999998 62.92816,196.230054 62.906005,196.005111 62.826062,195.741573 62.696241,195.498695 62.521530999999996,195.28581 62.308645999999996,195.1111 62.065768,194.981279 61.802229999999994,194.901336 61.577287,194.879181 50.279033,194.879181 50.054089999999995,194.901336 49.790552,194.981279 49.547674,195.1111 49.334789,195.28581 49.160078999999996,195.498695 49.030257999999996,195.741573 48.950314999999996,196.005111 48.92816,196.230054 48.92816,198.52830799999998" stroke="#1f6fb2" stroke-width="0.1" /><text fill="#0a3d62" font-family="sans-serif" font-size="1.6" text-anchor="middle" x="55.92816" y="197.379181">06</text><polygon fill="#cfe3f7" fill-opacity="0.5" points="63.92816,198.52830799999998 63.950314999999996,198.75325099999998 64.030258,199.016789 64.160079,199.25966699999998 64.334789,199.47255199999998 64.547674,199.64726199999998 64.790552,199.77708299999998 65.05409,199.857026 65.279033,199.879181 76.577287,199.879181 76.80223,199.857026 77.06576799999999,199.77708299999998 77.308646,199.64726199999998 77.521531,199.47255199999998 77.696241,199.25966699999998 77.826062,199.016789 77.906005,198.75325099999998 77.92815999999999,198.52830799999998 77.92815999999999,196.230054 77.906005,196.005111 77.826062,195.741573 77.696241,195.498695 77.521531,195.28581 77.308646,195.1111 77.06576799999999,194.981279 76.80223,194.901336 76.577287,194.879181 65.279033,194.879181 65.05409,194.901336 64.790552,194.981279 64.547674,195.1111 64.334789,195.28581 64.160079,195.498695 64.030258,195.741573 63.950314999999996,196.005111 63.92816,196.230054 63.92816,198.52830799999998" stroke="#1f6fb2" stroke-width="0.1" /><text fill="#0a3d62" font-family="sans-serif" font-size="1.6" text-anchor="middle" x="70.92815999999999" y="197.379181">06</text></svg>