<?xml version="1.0" encoding="utf-8" ?>
<svg baseProfile="full" height="237.45758cm" version="1.1" viewBox="0 0 118.0 237.45758" width="118.0cm" xmlns="http://www.w3.org/2000/svg" xmlns:ev="http://www.w3.org/2001/xml-events" xmlns:xlink="http://www.w3.org/1999/xlink"><defs /><rect fill="#f7f3ea" height="229.45758" stroke="#333" stroke-width="0.15" width="110.0" x="4.0" y="4.0" /><text fill="#000" font-family="sans-serif" font-size="1.4" x="4.0" y="3.0">PLANO DE CORTE — ancho 110 cm — largo 2.29 m</text><polygon fill="#cfe3f7" fill-opacity="0.5" points="4.0,75.733067 31.7,75.733067 31.7,26.857360999999997 31.100068,26.171653999999997 30.746677,25.768483 30.390684,25.363836 30.03155,24.957849 29.668433,24.550319 29.300496,24.141047999999998 28.926906,23.729844999999997 28.546843,23.316536 28.160414,22.901911 27.771075,22.488083 27.384597,22.076037 27.005541,21.665301 26.638339,21.255467 26.287416999999998,20.846346999999998 25.957145,20.437973 25.651775999999998,20.030609 25.375339999999998,19.624724 25.131521,19.22094 24.923496,18.819888 24.753785999999998,18.421923 24.623387,18.024288 24.5304,17.618925 24.471646,17.199514999999998 24.445508,16.764596 24.450623999999998,16.313914 24.485547999999998,15.847847 24.54861,15.367222 24.63787,14.873137 24.751132,14.366815 24.885973,13.849511 25.039794999999998,13.32245 25.209865,12.78679 25.393345999999998,12.243606999999999 25.587334,11.693886 25.788868,11.138521 26.320404,9.693617 13.274689,4.0 12.604548000000001,4.893731 12.408809,5.155346 12.212994,5.41821 12.017382000000001,5.682529 11.822256,5.948513 11.6279,6.216374999999999 11.434603,6.486328 11.242656,6.758584 11.052355,7.03336 10.863996,7.310871 10.677882,7.5913319999999995 10.494319,7.87496 10.313615,8.161969 10.136242,8.452314000000001 9.963303,8.744457 9.795078,9.035989 9.63075,9.325658 9.469275,9.612676 9.309653,9.896266 9.150927,10.17566 8.992184,10.450102000000001 8.832553,10.718852 8.671203,10.98119 8.507341,11.236425 8.340206,11.483908 8.169058,11.723041 7.993161000000001,11.953306000000001 7.810869,12.175367 7.619404,12.392209 7.41765,12.606558 7.206278,12.819252 6.986212,13.030951 6.7584420000000005,13.242343 6.524011,13.454155 6.322425,13.633067 4.0,13.633067 4.0,75.733067" stroke="#1f6fb2" stroke-width="0.1" /><text fill="#0a3d62" font-family="sans-serif" font-size="1.6" text-anchor="middle" x="17.85" y="39.8665335">01</text><polygon fill="#cfe3f7" fill-opacity="0.5" points="32.7,75.733067 60.400000000000006,75.733067 60.400000000000006,26.857360999999997 59.800068,26.171653999999997 59.446677,25.768483 59.090684,25.363836 58.73155,24.957849 58.368433,24.550319 58.000496,24.141047999999998 57.626906000000005,23.729844999999997 57.246843,23.316536 56.860414000000006,22.901911 56.471075,22.488083 56.084597,22.076037 55.705541000000004,21.665301 55.338339000000005,21.255467 54.987417,20.846346999999998 54.657145,20.437973 54.351776,20.030609 54.07534,19.624724 53.831521,19.22094 53.623496,18.819888 53.453786,18.421923 53.323387000000004,18.024288 53.2304,17.618925 53.171646,17.199514999999998 53.14550800000001,16.764596 53.150624,16.313914 53.185548,15.847847 53.24861,15.367222 53.33787,14.873137 53.451132,14.366815 53.585973,13.849511 53.739795,13.32245 53.909865,12.78679 54.093346,12.243606999999999 54.287334,11.693886 54.488868000000004,11.138521 55.020404,9.693617 41.974689000000005,4.0 41.304548000000004,4.893731 41.108809,5.155346 40.912994000000005,5.41821 40.717382,5.682529 40.522256000000006,5.948513 40.3279,6.216374999999999 40.134603000000006,6.486328 39.942656,6.758584 39.752355,7.03336 39.563996,7.310871 39.377882,7.5913319999999995 39.19431900000001,7.87496 39.013615,8.161969 38.836242000000006,8.452314000000001 38.663303,8.744457 38.49507800000001,9.035989 38.33075,9.325658 38.169275,9.612676 38.009653,9.896266 37.850927000000006,10.17566 37.692184000000005,10.450102000000001 37.53255300000001,10.718852 37.371203,10.98119 37.207341,11.236425 37.040206000000005,11.483908 36.869058,11.723041 36.693161,11.953306000000001 36.510869,12.175367 36.319404000000006,12.392209 36.117650000000005,12.606558 35.906278,12.819252 35.686212000000005,13.030951 35.458442000000005,13.242343 35.224011000000004,13.454155 35.022425000000005,13.633067 32.7,13.633067 32.7,75.733067" stroke="#1f6fb2" stroke-width="0.1" /><text fill="#0a3d62" font-family="sans-serif" font-size="1.6" text-anchor="middle" x="46.550000000000004" y="39.8665335">01</text><polygon fill="#cfe3f7" fill-opacity="0.5" points="61.4,74.267704 69.40722,74.267704 69.001177,17.827772 73.22492199999999,5.262131 70.700661,4.0 70.004548,4.928368 69.808809,5.189983 69.612994,5.452847 69.417382,5.717166 69.222256,5.98315 69.0279,6.251011999999999 68.834603,6.520965 68.642656,6.793221 68.452355,7.067997 68.26399599999999,7.345508 68.077882,7.6259689999999996 67.894319,7.909597 67.713615,8.196606 67.536242,8.486951000000001 67.363303,8.779094 67.195078,9.070626 67.03075,9.360295 66.869275,9.647313 66.709653,9.930903 66.550927,10.210297 66.392184,10.484739000000001 66.232553,10.753489 66.071203,11.015827 65.907341,11.271062 65.740206,11.518545 65.569058,11.757678 65.39316099999999,11.987943000000001 65.210869,12.210004 65.019404,12.426846 64.81765,12.641195 64.606278,12.853889 64.386212,13.065588 64.158442,13.27698 63.924011,13.488792 63.722425,13.667704 61.4,13.667704 61.4,74.267704" stroke="#1f6fb2" stroke-width="0.1" /><text fill="#0a3d62" font-family="sans-serif" font-size="1.6" text-anchor="middle" x="67.312461" y="39.133852">09</text><polygon fill="#cfe3f7" fill-opacity="0.5" points="74.22492199999999,74.267704 82.232142,74.267704 81.826099,17.827772 86.049844,5.262131 83.525583,4.0 82.82946999999999,4.928368 82.633731,5.189983 82.43791599999999,5.452847 82.24230399999999,5.717166 82.04717799999999,5.98315 81.85282199999999,6.251011999999999 81.65952499999999,6.520965 81.46757799999999,6.793221 81.277277,7.067997 81.08891799999999,7.345508 80.90280399999999,7.6259689999999996 80.719241,7.909597 80.53853699999999,8.196606 80.36116399999999,8.486951000000001 80.18822499999999,8.779094 80.02,9.070626 79.855672,9.360295 79.69419699999999,9.647313 79.53457499999999,9.930903 79.37584899999999,10.210297 79.21710599999999,10.484739000000001 79.057475,10.753489 78.896125,11.015827 78.73226299999999,11.271062 78.56512799999999,11.518545 78.39398,11.757678 78.218083,11.987943000000001 78.03579099999999,12.210004 77.844326,12.426846 77.64257199999999,12.641195 77.43119999999999,12.853889 77.21113399999999,13.065588 76.983364,13.27698 76.748933,13.488792 76.54734699999999,13.667704 74.22492199999999,13.667704 74.22492199999999,74.267704" stroke="#1f6fb2" stroke-width="0.1" /><text fill="#0a3d62" font-family="sans-serif" font-size="1.6" text-anchor="middle" x="80.137383" y="39.133852">09</text><polygon fill="#cfe3f7" fill-opacity="0.5" points="8.603537000000001,138.73768 34.432241,138.73768 39.044742,87.29269000000001 38.338398999999995,86.50805700000001 37.917592,86.04591500000001 37.488116,85.584903 37.047919,85.12830600000001 36.597245,84.68046700000001 36.138323,84.243127 35.672148,83.81577200000001 35.19934,83.397525 34.720508,82.98750600000001 34.236247,82.584834 33.747142,82.18862800000001 33.253769,81.79801 32.756689,81.412103 32.255796000000004,81.029533 31.749057,80.64882200000001 31.233977,80.271326 30.709418,79.899963 30.174402999999998,79.53785900000001 29.6279,79.188196 29.068843,78.85423 28.496148,78.53931700000001 27.908752,78.246924 27.305661,77.98065700000001 26.687530000000002,77.74482900000001 26.059449,77.54268300000001 25.427158,77.37165800000001 24.792906000000002,77.22717800000001 24.158237,77.10460900000001 23.52457,76.999449 22.893254,76.90733900000001 22.265622,76.82406200000001 21.544124,76.733067 20.808963,76.787007 20.168217,76.838029 19.523647,76.89747200000001 18.8764,76.96950500000001 18.227627,77.058436 17.578525,77.16871 16.930396000000002,77.304907 16.284807,77.471703 15.645945000000001,77.672949 15.019679,77.90787200000001 14.408314,78.17221900000001 13.811256,78.46248100000001 13.227674,78.775321 12.656686,79.10751400000001 12.097394,79.455939 11.548913,79.81755600000001 11.010392,80.18939 10.481016,80.56851800000001 9.959197,80.952667 9.441979,81.34236 8.928751,81.740826 8.421351,82.15025100000001 7.9219930000000005,82.572614 7.432948,83.00993100000001 6.956562,83.46424300000001 6.495274,83.93759200000001 6.051633000000001,84.43199100000001 5.628798,84.948791 5.232445000000002,85.484049 4.862674000000002,86.027265 4.513476000000001,86.57046100000001 4.0,87.392675 8.603537000000001,138.73768" stroke="#1f6fb2" stroke-width="0.1" /><text fill="#0a3d62" font-family="sans-serif" font-size="1.6" text-anchor="middle" x="21.522371" y="107.73537350000001">04</text><polygon fill="#cfe3f7" fill-opacity="0.5" points="44.648279,138.73768 70.47698299999999,138.73768 75.089484,87.29269000000001 74.383141,86.50805700000001 73.962334,86.04591500000001 73.532858,85.584903 73.09266099999999,85.12830600000001 72.641987,84.68046700000001 72.183065,84.243127 71.71689,83.81577200000001 71.24408199999999,83.397525 70.76525000000001,82.98750600000001 70.280989,82.584834 69.791884,82.18862800000001 69.29851099999999,81.79801 68.80143100000001,81.412103 68.300538,81.029533 67.793799,80.64882200000001 67.278719,80.271326 66.75416,79.899963 66.219145,79.53785900000001 65.672642,79.188196 65.113585,78.85423 64.54089,78.53931700000001 63.953494,78.246924 63.350403,77.98065700000001 62.732272,77.74482900000001 62.104191,77.54268300000001 61.4719,77.37165800000001 60.837648,77.22717800000001 60.202979,77.10460900000001 59.569312,76.999449 58.937996,76.90733900000001 58.310364,76.82406200000001 57.588865999999996,76.733067 56.853705,76.787007 56.212959,76.838029 55.568388999999996,76.89747200000001 54.921142,76.96950500000001 54.272369,77.058436 53.623267,77.16871 52.975138,77.304907 52.329549,77.471703 51.690687,77.672949 51.064420999999996,77.90787200000001 50.453056000000004,78.17221900000001 49.855998,78.46248100000001 49.272416,78.775321 48.701428,79.10751400000001 48.142136,79.455939 47.593655,79.81755600000001 47.055133999999995,80.18939 46.525757999999996,80.56851800000001 46.003939,80.952667 45.486721,81.34236 44.973493,81.740826 44.466093,82.15025100000001 43.966735,82.572614 43.477689999999996,83.00993100000001 43.001304,83.46424300000001 42.540016,83.93759200000001 42.096375,84.43199100000001 41.67354,84.948791 41.277187,85.484049 40.907416,86.027265 40.558218,86.57046100000001 40.044742,87.392675 44.648279,138.73768" stroke="#1f6fb2" stroke-width="0.1" /><text fill="#0a3d62" font-family="sans-serif" font-size="1.6" text-anchor="middle" x="57.567113" y="107.73537350000001">04</text><polygon fill="#cfe3f7" fill-opacity="0.5" points="54.0,152.43636800000002 53.54488,151.749705 53.256333999999995,151.31409000000002 52.967847,150.878024 52.679368,150.44116000000002 52.390845,150.003152 52.102226,149.56365200000002 51.81346,149.12231400000002 51.524504,148.678807 51.235746,148.233416 50.948979,147.787192 50.666720999999995,147.340732 50.391082,146.89398400000002 50.124128999999996,146.44690200000002 49.867903,145.99948500000002 49.624413000000004,145.55177300000003 49.39562,145.10383800000002 49.18343,144.655776 48.989674,144.20768800000002 48.816095000000004,143.75966200000002 48.664342000000005,143.31173600000002 48.535945,142.863808 48.431893,142.41392000000002 48.351451,141.95813900000002 48.292833,141.494269 48.254642000000004,141.022244 48.203385999999995,139.73768 29.0,139.73768 29.0,201.23768 54.0,201.23768 54.0,152.43636800000002 4.0,152.43636800000002 4.455120000000001,151.749705 4.743666000000001,151.31409000000002 5.032153000000001,150.878024 5.320632,150.44116000000002 5.609155000000001,150.003152 5.897773999999998,149.56365200000002 6.186540000000001,149.12231400000002 6.475496,148.678807 6.764254000000001,148.233416 7.051020999999999,147.787192 7.333279000000001,147.340732 7.608917999999999,146.89398400000002 7.875871,146.44690200000002 8.132097000000002,145.99948500000002 8.375587,145.55177300000003 8.604379999999999,145.10383800000002 8.816569999999999,144.655776 9.010326,144.20768800000002 9.183905,143.75966200000002 9.335657999999999,143.31173600000002 9.464054999999998,142.863808 9.568107000000001,142.41392000000002 9.648549,141.95813900000002 9.707166999999998,141.494269 9.745358,141.022244 9.796614000000002,139.73768 29.0,139.73768 29.0,201.23768 4.0,201.23768 4.0,152.43636800000002" stroke="#1f6fb2" stroke-width="0.1" /><text fill="#0a3d62" font-family="sans-serif" font-size="1.6" text-anchor="middle" x="29.0" y="170.48768">02</text><polygon fill="#cfe3f7" fill-opacity="0.5" points="55.0,151.00958500000002 62.0,155.419585 69.0,151.00958500000002 69.0,139.73768 55.0,139.73768 55.0,151.00958500000002" stroke="#1f6fb2" stroke-width="0.1" /><text fill="#0a3d62" font-family="sans-serif" font-size="1.6" text-anchor="middle" x="62.0" y="147.57863250000003">10</text><polygon fill="#cfe3f7" fill-opacity="0.5" points="70.0,151.986807 70.029841,152.28978700000002 70.132547,152.628362 70.299332,152.94039500000002 70.523786,153.213894 70.797285,153.43834800000002 71.109318,153.60513300000002 71.447893,153.707839 71.750873,153.73768 93.249127,153.73768 93.552107,153.707839 93.890682,153.60513300000002 94.202715,153.43834800000002 94.476214,153.213894 94.70066800000001,152.94039500000002 94.867453,152.628362 94.970159,152.28978700000002 95.0,151.986807 95.0,141.48855300000002 94.970159,141.185573 94.867453,140.846998 94.70066800000001,140.534965 94.476214,140.261466 94.202715,140.037012 93.890682,139.870227 93.552107,139.76752100000002 93.249127,139.73768 71.750873,139.73768 71.447893,139.76752100000002 71.109318,139.870227 70.797285,140.037012 70.523786,140.261466 70.299332,140.534965 70.132547,140.846998 70.029841,141.185573 70.0,141.48855300000002 70.0,151.986807" stroke="#1f6fb2" stroke-width="0.1" /><text fill="#0a3d62" font-family="sans-serif" font-size="1.6" text-anchor="middle" x="82.5" y="146.73768">05</text><polygon fill="#cfe3f7" fill-opacity="0.5" points="4.0,214.486807 4.029841,214.78978700000002 4.132547,215.128362 4.299332,215.44039500000002 4.523786,215.713894 4.7972850000000005,215.93834800000002 5.109318,216.10513300000002 5.4478930000000005,216.207839 5.750873,216.23768 27.249127,216.23768 27.552107,216.207839 27.890682,216.10513300000002 28.202715,215.93834800000002 28.476214,215.713894 28.700668,215.44039500000002 28.867453,215.128362 28.970159,214.78978700000002 29.0,214.486807 29.0,203.98855300000002 28.970159,203.685573 28.867453,203.346998 28.700668,203.034965 28.476214,202.761466 28.202715,202.537012 27.890682,202.370227 27.552107,202.26752100000002 27.249127,202.23768 5.750873,202.23768 5.4478930000000005,202.26752100000002 5.109318,202.370227 4.7972850000000005,202.537012 4.523786,202.761466 4.299332,203.034965 4.132547,203.346998 4.029841,203.685573 4.0,203.98855300000002 4.0,214.486807" stroke="#1f6fb2" stroke-width="0.1" /><text fill="#0a3d62" font-family="sans-serif" font-size="1.6" text-anchor="middle" x="16.5" y="209.23768">05</text><polygon fill="#cfe3f7" fill-opacity="0.5" points="69.109812,213.163744 69.10827,212.676063 69.12286,212.18108 69.152042,211.67922900000002 69.194218,211.17097600000002 69.247736,210.656801 69.310889,210.13718500000002 69.381927,209.61259800000002 69.459058,209.083492 69.540457,208.550295 69.74864600000001,207.216566 56.845692,202.23768 56.206584,202.671791 56.003755,202.80828000000002 55.803425000000004,202.94057800000002 55.605097,203.067877 55.408291,203.18942700000002 55.212533,203.304539 55.016683,203.412957 54.818733,203.515231 54.617676,203.61187 54.4137,203.70278100000002 54.207108000000005,203.787819 53.998204,203.86684300000002 53.787293000000005,203.93972000000002 53.574684000000005,204.006321 53.360684,204.06652200000002 53.145601,204.12020800000002 52.929643999999996,204.167289 52.712165999999996,204.20787800000002 52.492015,204.242465 52.268762,204.27154000000002 52.042410000000004,204.295525 51.81299,204.314853 51.580557,204.329972 51.345178000000004,204.34134600000002 51.106932,204.349458 50.865904,204.35480600000002 50.622182,204.35791 50.375856,204.359302 50.127012,204.35953700000002 49.874323000000004,204.35918 49.874323000000004,214.359181 69.157512,214.359181 69.109812,213.163744 30.638834,213.163744 30.640376,212.676063 30.625786,212.18108 30.596604,211.67922900000002 30.554428,211.17097600000002 30.50091,210.656801 30.437757,210.13718500000002 30.366719,209.61259800000002 30.289588000000002,209.083492 30.208189,208.550295 30.0,207.216566 42.902954,202.23768 43.542062,202.671791 43.744890999999996,202.80828000000002 43.945221000000004,202.94057800000002 44.143549,203.067877 44.340355,203.18942700000002 44.536113,203.304539 44.731963,203.412957 44.929913,203.515231 45.130970000000005,203.61187 45.334946,203.70278100000002 45.541538,203.787819 45.750442,203.86684300000002 45.961353,203.93972000000002 46.173962,204.006321 46.387962,204.06652200000002 46.603045,204.12020800000002 46.819002,204.167289 47.03648,204.20787800000002 47.256631,204.242465 47.479884,204.27154000000002 47.706236000000004,204.295525 47.935656,204.314853 48.168089,204.329972 48.403468000000004,204.34134600000002 48.641714,204.349458 48.882742,204.35480600000002 49.126464,204.35791 49.37279,204.359302 49.621634,204.35953700000002 49.874323000000004,204.35918 49.874323000000004,214.359181 30.591134,214.359181 30.638834,213.163744" stroke="#1f6fb2" stroke-width="0.1" /><text fill="#0a3d62" font-family="sans-serif" font-size="1.6" text-anchor="middle" x="49.874323000000004" y="208.29843050000002">03</text><polygon fill="#cfe3f7" fill-opacity="0.5" points="26.655368999999997,224.092657 27.146859,224.18195400000002 27.638402,224.26615700000002 28.129994999999997,224.345265 28.621636,224.41927600000002 29.113321,224.488189 29.605047999999996,224.552003 30.096814,224.61071600000002 30.588614999999997,224.664328 31.080448999999998,224.712837 31.572312999999998,224.756243 32.064203,224.794544 32.556116,224.82774 33.048049,224.85583000000003 33.539998999999995,224.878813 34.031962,224.89669 34.523936,224.90945900000003 35.015916,224.917121 35.507898999999995,224.91967400000001 35.999882,224.917121 36.491862,224.90945900000003 36.983836,224.89669 37.475798999999995,224.878813 37.967749,224.85583000000003 38.459682,224.82774 38.951595,224.794544 39.443484999999995,224.756243 39.935349,224.712837 40.427183,224.664328 40.918983999999995,224.61071600000002 41.41075,224.552003 41.902477,224.488189 42.394161999999994,224.41927600000002 42.885802999999996,224.345265 43.377396,224.26615700000002 43.868939,224.18195400000002 44.360428999999996,224.092657 44.644778,224.03804300000002 46.6965,227.45758 47.751718,227.05859700000002 45.938626,217.23768 44.46481,217.536053 43.993041,217.626665 43.521327,217.712368 43.049666,217.79316500000002 42.578055,217.869057 42.106492,217.94004600000002 41.634973,218.006133 41.163495999999995,218.067319 40.692057999999996,218.12360600000002 40.220655,218.174994 39.749285,218.221485 39.277945,218.263079 38.806630999999996,218.299778 38.33534,218.33158200000003 37.864069,218.358492 37.392815,218.38050900000002 36.921574,218.39763200000002 36.450344,218.409863 35.979119999999995,218.417201 35.507898999999995,218.41964800000002 35.036677999999995,218.417201 34.565454,218.409863 34.094224,218.39763200000002 33.622983,218.38050900000002 33.151729,218.358492 32.680458,218.33158200000003 32.209166999999994,218.299778 31.737852999999998,218.263079 31.266512999999996,218.221485 30.795143,218.174994 30.323739999999997,218.12360600000002 29.852301999999998,218.067319 29.380824999999998,218.006133 28.909305999999997,217.94004600000002 28.437742999999998,217.869057 27.966131999999998,217.79316500000002 27.494470999999997,217.712368 27.022757,217.626665 26.550987999999997,217.536053 25.875859,217.39937400000002 25.875859,223.93994800000002 26.163933999999998,223.99826900000002 26.655368999999997,224.092657 25.096349,224.092657 24.604858999999998,224.18195400000002 24.113315999999998,224.26615700000002 23.621723,224.345265 23.130081999999998,224.41927600000002 22.638396999999998,224.488189 22.14667,224.552003 21.654904,224.61071600000002 21.163103,224.664328 20.671269,224.712837 20.179405,224.756243 19.687514999999998,224.794544 19.195601999999997,224.82774 18.703668999999998,224.85583000000003 18.211719,224.878813 17.719755999999997,224.89669 17.227781999999998,224.90945900000003 16.735802,224.917121 16.243819,224.91967400000001 15.751835999999999,224.917121 15.259856,224.90945900000003 14.767881999999998,224.89669 14.275918999999998,224.878813 13.783968999999999,224.85583000000003 13.292035999999998,224.82774 12.800123,224.794544 12.308232999999998,224.756243 11.816368999999998,224.712837 11.324535,224.664328 10.832733999999999,224.61071600000002 10.340967999999998,224.552003 9.849241,224.488189 9.357555999999999,224.41927600000002 8.865914999999998,224.345265 8.374322,224.26615700000002 7.882778999999999,224.18195400000002 7.391288999999997,224.092657 7.106939999999998,224.03804300000002 5.055218,227.45758 4.0,227.05859700000002 5.8130919999999975,217.23768 7.286907999999997,217.536053 7.758676999999999,217.626665 8.230390999999997,217.712368 8.702051999999998,217.79316500000002 9.173662999999998,217.869057 9.645225999999997,217.94004600000002 10.116744999999998,218.006133 10.588221999999998,218.067319 11.05966,218.12360600000002 11.531062999999998,218.174994 12.002432999999998,218.221485 12.473772999999998,218.263079 12.945087,218.299778 13.416377999999998,218.33158200000003 13.887648999999998,218.358492 14.358902999999998,218.38050900000002 14.830143999999999,218.39763200000002 15.301374,218.409863 15.772597999999999,218.417201 16.243819,218.41964800000002 16.71504,218.417201 17.186263999999998,218.409863 17.657494,218.39763200000002 18.128735,218.38050900000002 18.599988999999997,218.358492 19.07126,218.33158200000003 19.542551,218.299778 20.013865,218.263079 20.485205,218.221485 20.956574999999997,218.174994 21.427978,218.12360600000002 21.899416,218.067319 22.370893,218.006133 22.842412,217.94004600000002 23.313975,217.869057 23.785586,217.79316500000002 24.257247,217.712368 24.728960999999998,217.626665 25.20073,217.536053 25.875859,217.39937400000002 25.875859,223.93994800000002 25.587784,223.99826900000002 25.096349,224.092657" stroke="#1f6fb2" stroke-width="0.1" /><text fill="#0a3d62" font-family="sans-serif" font-size="1.6" text-anchor="middle" x="25.875859" y="222.34763">07</text><polygon fill="#cfe3f7" fill-opacity="0.5" points="71.627903,222.540222 72.159438,222.61121500000002 72.69099399999999,222.678154 73.22256999999999,222.741038 73.754166,222.799867 74.28577999999999,222.85464100000002 74.81741099999999,222.90536 75.349058,222.952022 75.880719,222.994627 76.412393,223.03317600000003 76.94407899999999,223.06766800000003 77.475776,223.098103 78.007482,223.12448 78.539196,223.1468 79.070916,223.165062 79.602642,223.17926500000002 80.134372,223.189411 80.66610399999999,223.19549800000001 81.19783799999999,223.197527 81.72957199999999,223.19549800000001 82.261304,223.189411 82.79303399999999,223.17926500000002 83.32476,223.165062 83.85648,223.1468 84.388194,223.12448 84.9199,223.098103 85.45159699999999,223.06766800000003 85.983283,223.03317600000003 86.514957,222.994627 87.046618,222.952022 87.57826499999999,222.90536 88.10989599999999,222.85464100000002 88.64151,222.799867 89.17310599999999,222.741038 89.70468199999999,222.678154 90.236238,222.61121500000002 90.76777299999999,222.540222 91.299284,222.465176 92.679878,222.25970800000002 92.679878,217.23768 91.01226799999999,217.48586400000002 90.495575,217.558818 89.978906,217.627825 89.46225799999999,217.69288600000002 88.94563,217.754002 88.429022,217.81117300000003 87.912432,217.86439900000002 87.395859,217.91368 86.879302,217.95901800000001 86.362759,218.000413 85.846229,218.037864 85.329711,218.07137200000003 84.813204,218.10093700000002 84.296706,218.12656 83.780216,218.14824000000002 83.263732,218.16597800000002 82.747254,218.179775 82.23078,218.18962900000002 81.71430799999999,218.19554200000002 81.19783799999999,218.19751300000001 80.68136799999999,218.19554200000002 80.164896,218.18962900000002 79.648422,218.179775 79.131944,218.16597800000002 78.61546,218.14824000000002 78.09897,218.12656 77.582472,218.10093700000002 77.06596499999999,218.07137200000003 76.549447,218.037864 76.032917,218.000413 75.516374,217.95901800000001 74.999817,217.91368 74.483244,217.86439900000002 73.96665399999999,217.81117300000003 73.450046,217.754002 72.93341799999999,217.69288600000002 72.41677,217.627825 71.90010099999999,217.558818 71.383408,217.48586400000002 70.71579799999999,217.38650600000003 70.71579799999999,222.408534 71.096392,222.465176 71.627903,222.540222 69.803693,222.540222 69.27215799999999,222.61121500000002 68.740602,222.678154 68.209026,222.741038 67.67742999999999,222.799867 67.145816,222.85464100000002 66.61418499999999,222.90536 66.082538,222.952022 65.550877,222.994627 65.019203,223.03317600000003 64.487517,223.06766800000003 63.955819999999996,223.098103 63.424113999999996,223.12448 62.892399999999995,223.1468 62.360679999999995,223.165062 61.828953999999996,223.17926500000002 61.297224,223.189411 60.765491999999995,223.19549800000001 60.233757999999995,223.197527 59.702023999999994,223.19549800000001 59.170291999999996,223.189411 58.63856199999999,223.17926500000002 58.106835999999994,223.165062 57.575115999999994,223.1468 57.04340199999999,223.12448 56.51169599999999,223.098103 55.97999899999999,223.06766800000003 55.448313,223.03317600000003 54.916638999999996,222.994627 54.384978,222.952022 53.853331,222.90536 53.32169999999999,222.85464100000002 52.790085999999995,222.799867 52.258489999999995,222.741038 51.726913999999994,222.678154 51.195358,222.61121500000002 50.663822999999994,222.540222 50.132312,222.465176 48.751718,222.25970800000002 48.751718,217.23768 50.41932799999999,217.48586400000002 50.936021,217.558818 51.45269,217.627825 51.96933799999999,217.69288600000002 52.485966,217.754002 53.002573999999996,217.81117300000003 53.519163999999996,217.86439900000002 54.035737,217.91368 54.552293999999996,217.95901800000001 55.068836999999995,218.000413 55.585367,218.037864 56.101884999999996,218.07137200000003 56.618392,218.10093700000002 57.13489,218.12656 57.651379999999996,218.14824000000002 58.167863999999994,218.16597800000002 58.684341999999994,218.179775 59.200815999999996,218.18962900000002 59.717287999999996,218.19554200000002 60.233757999999995,218.19751300000001 60.75022799999999,218.19554200000002 61.2667,218.18962900000002 61.783173999999995,218.179775 62.299651999999995,218.16597800000002 62.816136,218.14824000000002 63.332626,218.12656 63.849123999999996,218.10093700000002 64.365631,218.07137200000003 64.882149,218.037864 65.39867899999999,218.000413 65.915222,217.95901800000001 66.43177899999999,217.91368 66.948352,217.86439900000002 67.464942,217.81117300000003 67.98155,217.754002 68.498178,217.69288600000002 69.014826,217.627825 69.53149499999999,217.558818 70.048188,217.48586400000002 70.71579799999999,217.38650600000003 70.71579799999999,222.408534 70.335204,222.465176 69.803693,222.540222" stroke="#1f6fb2" stroke-width="0.1" /><text fill="#0a3d62" font-family="sans-serif" font-size="1.6" text-anchor="middle" x="70.71579799999999" y="220.21760350000002">08</text><polygon fill="#cfe3f7" fill-opacity="0.5" points="93.679878,220.886807 93.702033,221.11175 93.781976,221.375288 93.911797,221.618166 94.086507,221.831051 94.299392,222.005761 94.54227,222.135582 94.805808,222.215525 95.03075100000001,222.23768 106.329005,222.23768 106.553948,222.215525 106.817486,222.135582 107.060364,222.005761 107.273249,221.831051 107.447959,221.618166 107.57778,221.375288 107.657723,221.11175 107.679878,220.886807 107.679878,218.58855300000002 107.657723,218.36361000000002 107.57778,218.100072 107.447959,217.85719400000002 107.273249,217.64430900000002 107.060364,217.46959900000002 106.817486,217.33977800000002 106.553948,217.259835 106.329005,217.23768 95.03075100000001,217.23768 94.805808,217.259835 94.54227,217.33977800000002 94.299392,217.46959900000002 94.086507,217.64430900000002 93.911797,217.85719400000002 93.781976,218.100072 93.702033,218.36361000000002 93.679878,218.58855300000002 93.679878,220.886807" stroke="#1f6fb2" stroke-width="0.1" /><text fill="#0a3d62" font-family="sans-serif" font-size="1.6" text-anchor="middle" x="100.679878" y="219.73768">06</text><polygon fill="#cfe3f7" fill-opacity="0.5" points="4.0,232.106707 4.022155,232.33165 4.102098,232.595188 4.2319189999999995,232.838066 4.406629,233.050951 4.619514,233.225661 4.862392,233.355482 5.12593,233.435425 5.350873,233.45758 16.649127,233.45758 16.87407,233.435425 17.137608,233.355482 17.380485999999998,233.225661 17.593370999999998,233.050951 17.768081000000002,232.838066 17.897902000000002,232.595188 17.977845000000002,232.33165 18.0,232.106707 18.0,229.80845300000001 17.977845000000002,229.58351000000002 17.897902000000002,229.319972 17.768081000000002,229.07709400000002 17.593370999999998,228.86420900000002 17.380485999999998,228.689499 17.137608,228.55967800000002 16.87407,228.479735 16.649127,228.45758 5.350873,228.45758 5.12593,228.479735 4.862392,228.55967800000002 4.619514,228.689499 4.406629,228.86420900000002 4.2319189999999995,229.07709400000002 4.102098,229.319972 4.022155,229.58351000000002 4.0,229.80845300000001 4.0,232.106707" stroke="#1f6fb2" stroke-width="0.1" /><text fill="#0a3d62" font-family="sans-serif" font-size="1.6" text-anchor="middle" x="11.0" y="230.95758">06</text></svg>