<?xml version="1.0" encoding="utf-8" ?>
<svg baseProfile="full" height="156.80174cm" version="1.1" viewBox="0 0 158.0 156.80174" width="158.0cm" xmlns="http://www.w3.org/2000/svg" xmlns:ev="http://www.w3.org/2001/xml-events" xmlns:xlink="http://www.w3.org/1999/xlink"><defs /><rect fill="#f7f3ea" height="148.80174" stroke="#333" stroke-width="0.15" width="150.0" x="4.0" y="4.0" /><text fill="#000" font-family="sans-serif" font-size="1.4" x="4.0" y="3.0">PLANO DE CORTE — ancho 150 cm — largo 1.49 m</text><polygon fill="#cfe3f7" fill-opacity="0.5" points="8.591990000000001,74.926526 34.420694,74.926526 39.018581999999995,23.644518 38.488288,22.525283 38.07033,21.653157 37.645578,20.786869000000003 37.211698,19.931785 36.767848,19.093776000000002 36.315259,18.274297 35.854755,17.4722 35.386967,16.685968000000003 34.912525,15.914074000000001 34.432054,15.154984 33.946172000000004,14.407153000000001 33.45549,13.669027000000002 32.960608,12.939045 32.461653999999996,12.214976 31.957257,11.494969000000001 31.445361,10.782161 30.924708000000003,10.081825 30.39403,9.399404 29.851858999999997,8.740310000000001 29.296483000000002,8.109954000000002 28.72589,7.513814000000001 28.13772,6.957536000000001 27.529253,6.447118000000001 26.89949,5.990615000000001 26.254075,5.595937000000001 25.601527,5.260578000000001 24.946578,4.9771090000000004 24.292762,4.737202000000002 23.642979,4.532317000000001 22.999579,4.353958 22.364493,4.193853000000001 21.555519,4.0 20.729856,4.115103000000001 20.081164,4.213248 19.423537,4.328476 18.758499,4.469102000000001 18.087927,4.643747000000001 17.414237,4.861204000000001 16.740542,5.130187000000001 16.070819,5.458946000000001 15.41262,5.852888 14.774101,6.307974000000001 14.156813,6.815099000000001 13.55827,7.367969 12.976069,7.9609570000000005 12.40813,8.588753 11.852687,9.246205 11.308236,9.928230000000001 10.773497,10.629752 10.247369,11.345677 9.728311,12.071697 9.21417,12.80771 8.70515,13.558587000000001 8.203362,14.32789 7.711202,15.118812 7.231109,15.934506 6.765552,16.778077000000003 6.317015,17.652578000000002 5.887982000000001,18.561006 5.481134000000001,19.505801 5.099622,20.48471 4.740784999999999,21.4863 4.398005999999999,22.499404 4.0,23.710304 8.591990000000001,74.926526" stroke="#1f6fb2" stroke-width="0.1" /><text fill="#0a3d62" font-family="sans-serif" font-size="1.6" text-anchor="middle" x="21.509290999999997" y="39.463263">04</text><polygon fill="#cfe3f7" fill-opacity="0.5" points="44.610572,74.926526 70.43927599999999,74.926526 75.03716399999999,23.644518 74.50686999999999,22.525283 74.088912,21.653157 73.66416,20.786869000000003 73.23028,19.931785 72.78643,19.093776000000002 72.33384099999999,18.274297 71.87333699999999,17.4722 71.405549,16.685968000000003 70.931107,15.914074000000001 70.450636,15.154984 69.964754,14.407153000000001 69.47407199999999,13.669027000000002 68.97918999999999,12.939045 68.48023599999999,12.214976 67.975839,11.494969000000001 67.463943,10.782161 66.94328999999999,10.081825 66.412612,9.399404 65.870441,8.740310000000001 65.315065,8.109954000000002 64.744472,7.513814000000001 64.156302,6.957536000000001 63.54783499999999,6.447118000000001 62.918071999999995,5.990615000000001 62.272656999999995,5.595937000000001 61.620109,5.260578000000001 60.96516,4.9771090000000004 60.31134399999999,4.737202000000002 59.66156099999999,4.532317000000001 59.01816099999999,4.353958 58.38307499999999,4.193853000000001 57.574101,4.0 56.74843799999999,4.115103000000001 56.099745999999996,4.213248 55.44211899999999,4.328476 54.777080999999995,4.469102000000001 54.106508999999996,4.643747000000001 53.432818999999995,4.861204000000001 52.759124,5.130187000000001 52.089400999999995,5.458946000000001 51.431202,5.852888 50.792683,6.307974000000001 50.175394999999995,6.815099000000001 49.576851999999995,7.367969 48.994651,7.9609570000000005 48.426711999999995,8.588753 47.871269,9.246205 47.326817999999996,9.928230000000001 46.792078999999994,10.629752 46.265950999999994,11.345677 45.74689299999999,12.071697 45.23275199999999,12.80771 44.723732,13.558587000000001 44.22194399999999,14.32789 43.729783999999995,15.118812 43.249691,15.934506 42.784133999999995,16.778077000000003 42.33559699999999,17.652578000000002 41.906563999999996,18.561006 41.49971599999999,19.505801 41.11820399999999,20.48471 40.759367,21.4863 40.41658799999999,22.499404 40.018581999999995,23.710304 44.610572,74.926526" stroke="#1f6fb2" stroke-width="0.1" /><text fill="#0a3d62" font-family="sans-serif" font-size="1.6" text-anchor="middle" x="57.52787299999999" y="39.463263">04</text><polygon fill="#cfe3f7" fill-opacity="0.5" points="76.03716399999999,74.267704 84.044384,74.267704 83.638341,17.827772 87.86208599999999,5.262131 85.337825,4.0 84.64171199999998,4.928368 84.445973,5.189983 84.25015799999998,5.452847 84.05454599999999,5.717166 83.85941999999999,5.98315 83.66506399999999,6.251011999999999 83.47176699999999,6.520965 83.27981999999999,6.793221 83.089519,7.067997 82.90115999999999,7.345508 82.71504599999999,7.6259689999999996 82.531483,7.909597 82.35077899999999,8.196606 82.17340599999999,8.486951000000001 82.00046699999999,8.779094 81.832242,9.070626 81.667914,9.360295 81.50643899999999,9.647313 81.34681699999999,9.930903 81.18809099999999,10.210297 81.02934799999998,10.484739000000001 80.869717,10.753489 80.708367,11.015827 80.54450499999999,11.271062 80.37736999999998,11.518545 80.206222,11.757678 80.03032499999999,11.987943000000001 79.84803299999999,12.210004 79.656568,12.426846 79.45481399999998,12.641195 79.24344199999999,12.853889 79.02337599999998,13.065588 78.79560599999999,13.27698 78.56117499999999,13.488792 78.35958899999999,13.667704 76.03716399999999,13.667704 76.03716399999999,74.267704" stroke="#1f6fb2" stroke-width="0.1" /><text fill="#0a3d62" font-family="sans-serif" font-size="1.6" text-anchor="middle" x="81.949625" y="39.133852">09</text><polygon fill="#cfe3f7" fill-opacity="0.5" points="88.86208599999999,74.267704 96.869306,74.267704 96.46326299999998,17.827772 100.68700799999999,5.262131 98.162747,4.0 97.466634,4.928368 97.270895,5.189983 97.07507999999999,5.452847 96.87946799999999,5.717166 96.68434199999999,5.98315 96.48998599999999,6.251011999999999 96.29668899999999,6.520965 96.10474199999999,6.793221 95.914441,7.067997 95.72608199999999,7.345508 95.53996799999999,7.6259689999999996 95.356405,7.909597 95.17570099999999,8.196606 94.99832799999999,8.486951000000001 94.82538899999999,8.779094 94.657164,9.070626 94.492836,9.360295 94.33136099999999,9.647313 94.17173899999999,9.930903 94.01301299999999,10.210297 93.85426999999999,10.484739000000001 93.694639,10.753489 93.533289,11.015827 93.36942699999999,11.271062 93.20229199999999,11.518545 93.03114399999998,11.757678 92.85524699999999,11.987943000000001 92.67295499999999,12.210004 92.48149,12.426846 92.27973599999999,12.641195 92.06836399999999,12.853889 91.84829799999999,13.065588 91.620528,13.27698 91.38609699999999,13.488792 91.18451099999999,13.667704 88.86208599999999,13.667704 88.86208599999999,74.267704" stroke="#1f6fb2" stroke-width="0.1" /><text fill="#0a3d62" font-family="sans-serif" font-size="1.6" text-anchor="middle" x="94.77454699999998" y="39.133852">09</text><polygon fill="#cfe3f7" fill-opacity="0.5" points="151.687008,25.139058000000002 151.231888,24.452395000000003 150.94334199999997,24.01678 150.654855,23.580714 150.366376,23.14385 150.077853,22.705842 149.789234,22.266342 149.50046799999998,21.825004 149.211512,21.381497000000003 148.922754,20.936106000000002 148.635987,20.489882 148.353729,20.043422000000003 148.07808999999997,19.596674 147.81113699999997,19.149592 147.554911,18.702175 147.311421,18.254463 147.082628,17.806528 146.87043799999998,17.358466 146.676682,16.910378 146.503103,16.462352 146.264353,15.757636999999999 144.621439,14.743789 143.29382299999997,13.915478 141.97974399999998,13.077536 140.683829,12.223957 139.410655,11.348792 138.164649,10.446076 136.947925,9.508562999999999 135.75597499999998,8.533511 134.581539,7.525898 133.419195,6.492695 132.263554,5.441044 130.698443,4.0 130.17336899999998,4.147711 129.958286,4.201397 129.74232899999998,4.248478 129.52485099999998,4.289067 129.3047,4.323654 129.081447,4.352729 128.855095,4.376714 128.625675,4.396042 128.393242,4.411161 128.157863,4.422535 127.91961699999999,4.4306470000000004 127.67858899999999,4.435995 127.434867,4.439099 127.18854099999999,4.440491 126.939697,4.440726 126.68700799999999,4.4403690000000005 126.68700799999999,72.44037 151.687008,72.44037 151.687008,25.139058000000002 101.68700799999999,25.139058000000002 102.14212799999999,24.452395000000003 102.430674,24.01678 102.71916099999999,23.580714 103.00764,23.14385 103.29616299999999,22.705842 103.58478199999999,22.266342 103.873548,21.825004 104.16250399999998,21.381497000000003 104.45126199999999,20.936106000000002 104.73802899999998,20.489882 105.020287,20.043422000000003 105.295926,19.596674 105.562879,19.149592 105.819105,18.702175 106.06259499999999,18.254463 106.29138799999998,17.806528 106.50357799999999,17.358466 106.69733399999998,16.910378 106.87091299999999,16.462352 107.10966299999998,15.757636999999999 108.75257699999999,14.743789 110.080193,13.915478 111.39427199999999,13.077536 112.690187,12.223957 113.96336099999999,11.348792 115.20936699999999,10.446076 116.42609099999999,9.508562999999999 117.61804099999999,8.533511 118.79247699999999,7.525898 119.954821,6.492695 121.11046199999998,5.441044 122.67557299999999,4.0 123.20064699999999,4.147711 123.41573,4.201397 123.631687,4.248478 123.849165,4.289067 124.06931599999999,4.323654 124.29256899999999,4.352729 124.51892099999999,4.376714 124.748341,4.396042 124.980774,4.411161 125.21615299999999,4.422535 125.454399,4.4306470000000004 125.695427,4.435995 125.93914899999999,4.439099 126.185475,4.440491 126.43431899999999,4.440726 126.68700799999999,4.4403690000000005 126.68700799999999,72.44037 101.68700799999999,72.44037 101.68700799999999,25.139058000000002" stroke="#1f6fb2" stroke-width="0.1" /><text fill="#0a3d62" font-family="sans-serif" font-size="1.6" text-anchor="middle" x="126.68700799999999" y="38.220185">02</text><polygon fill="#cfe3f7" fill-opacity="0.5" points="4.0,141.58184 31.7,141.58184 31.7,94.20613399999999 31.100068,93.520427 30.746677,93.117256 30.390684,92.712609 30.03155,92.306622 29.668433,91.899092 29.300496,91.48982099999999 28.926906,91.07861799999999 28.546843,90.665309 28.160414,90.25068399999999 27.771075,89.836856 27.384597,89.42481 27.005541,89.014074 26.638339,88.60424 26.287416999999998,88.19512 25.957145,87.786746 25.651775999999998,87.37938199999999 25.375339999999998,86.973497 25.131521,86.569713 24.923496,86.168661 24.626594,85.472432 23.111670999999998,84.68927699999999 21.924601,84.067909 20.749618,83.437483 19.590453,82.792408 18.450789,82.12716 17.334198,81.43624299999999 16.242177,80.713044 15.170435999999999,79.954 14.112064,79.163386 13.062451,78.347849 12.017125,77.514286 10.051518,75.926526 9.469275,76.961449 9.309653,77.24503899999999 9.150927,77.524433 8.992184,77.798875 8.832553,78.06762499999999 8.671203,78.32996299999999 8.507341,78.58519799999999 8.340206,78.832681 8.169058,79.07181399999999 7.993161000000001,79.30207899999999 7.810869,79.52414 7.619404,79.740982 7.41765,79.955331 7.206278,80.168025 6.986212,80.379724 6.7584420000000005,80.591116 6.524011,80.802928 6.322425,80.98183999999999 4.0,80.98183999999999 4.0,141.58184" stroke="#1f6fb2" stroke-width="0.1" /><text fill="#0a3d62" font-family="sans-serif" font-size="1.6" text-anchor="middle" x="17.85" y="108.754183">01</text><polygon fill="#cfe3f7" fill-opacity="0.5" points="32.7,141.58184 60.400000000000006,141.58184 60.400000000000006,94.20613399999999 59.800068,93.520427 59.446677,93.117256 59.090684,92.712609 58.73155,92.306622 58.368433,91.899092 58.000496,91.48982099999999 57.626906000000005,91.07861799999999 57.246843,90.665309 56.860414000000006,90.25068399999999 56.471075,89.836856 56.084597,89.42481 55.705541000000004,89.014074 55.338339000000005,88.60424 54.987417,88.19512 54.657145,87.786746 54.351776,87.37938199999999 54.07534,86.973497 53.831521,86.569713 53.623496,86.168661 53.326594,85.472432 51.811671000000004,84.68927699999999 50.624601,84.067909 49.449618,83.437483 48.290453,82.792408 47.150789,82.12716 46.034198,81.43624299999999 44.942177,80.713044 43.870436,79.954 42.81206400000001,79.163386 41.762451,78.347849 40.717125,77.514286 38.751518000000004,75.926526 38.169275,76.961449 38.009653,77.24503899999999 37.850927000000006,77.524433 37.692184000000005,77.798875 37.53255300000001,78.06762499999999 37.371203,78.32996299999999 37.207341,78.58519799999999 37.040206000000005,78.832681 36.869058,79.07181399999999 36.693161,79.30207899999999 36.510869,79.52414 36.319404000000006,79.740982 36.117650000000005,79.955331 35.906278,80.168025 35.686212000000005,80.379724 35.458442000000005,80.591116 35.224011000000004,80.802928 35.022425000000005,80.98183999999999 32.7,80.98183999999999 32.7,141.58184" stroke="#1f6fb2" stroke-width="0.1" /><text fill="#0a3d62" font-family="sans-serif" font-size="1.6" text-anchor="middle" x="46.550000000000004" y="108.754183">01</text><polygon fill="#cfe3f7" fill-opacity="0.5" points="61.4,87.198431 68.4,91.608431 75.4,87.198431 75.4,75.926526 61.4,75.926526 61.4,87.198431" stroke="#1f6fb2" stroke-width="0.1" /><text fill="#0a3d62" font-family="sans-serif" font-size="1.6" text-anchor="middle" x="68.4" y="83.7674785">10</text><polygon fill="#cfe3f7" fill-opacity="0.5" points="76.4,88.175653 76.42984100000001,88.478633 76.53254700000001,88.817208 76.69933200000001,89.129241 76.923786,89.40274 77.19728500000001,89.627194 77.50931800000001,89.793979 77.847893,89.89668499999999 78.150873,89.926526 99.64912700000001,89.926526 99.95210700000001,89.89668499999999 100.290682,89.793979 100.602715,89.627194 100.876214,89.40274 101.10066800000001,89.129241 101.267453,88.817208 101.370159,88.478633 101.4,88.175653 101.4,77.677399 101.370159,77.37441899999999 101.267453,77.035844 101.10066800000001,76.723811 100.876214,76.450312 100.602715,76.225858 100.290682,76.059073 99.95210700000001,75.956367 99.64912700000001,75.926526 78.150873,75.926526 77.847893,75.956367 77.50931800000001,76.059073 77.19728500000001,76.225858 76.923786,76.450312 76.69933200000001,76.723811 76.53254700000001,77.035844 76.42984100000001,77.37441899999999 76.4,77.677399 76.4,88.175653" stroke="#1f6fb2" stroke-width="0.1" /><text fill="#0a3d62" font-family="sans-serif" font-size="1.6" text-anchor="middle" x="88.9" y="82.926526">05</text><polygon fill="#cfe3f7" fill-opacity="0.5" points="102.4,88.175653 102.42984100000001,88.478633 102.53254700000001,88.817208 102.69933200000001,89.129241 102.923786,89.40274 103.19728500000001,89.627194 103.50931800000001,89.793979 103.847893,89.89668499999999 104.150873,89.926526 125.64912700000001,89.926526 125.95210700000001,89.89668499999999 126.290682,89.793979 126.602715,89.627194 126.876214,89.40274 127.10066800000001,89.129241 127.267453,88.817208 127.370159,88.478633 127.4,88.175653 127.4,77.677399 127.370159,77.37441899999999 127.267453,77.035844 127.10066800000001,76.723811 126.876214,76.450312 126.602715,76.225858 126.290682,76.059073 125.95210700000001,75.956367 125.64912700000001,75.926526 104.150873,75.926526 103.847893,75.956367 103.50931800000001,76.059073 103.19728500000001,76.225858 102.923786,76.450312 102.69933200000001,76.723811 102.53254700000001,77.035844 102.42984100000001,77.37441899999999 102.4,77.677399 102.4,88.175653" stroke="#1f6fb2" stroke-width="0.1" /><text fill="#0a3d62" font-family="sans-serif" font-size="1.6" text-anchor="middle" x="114.9" y="82.926526">05</text><polygon fill="#cfe3f7" fill-opacity="0.5" points="26.655368999999997,149.436817 27.146859,149.526114 27.638402,149.610317 28.129994999999997,149.689425 28.621636,149.763436 29.113321,149.832349 29.605047999999996,149.896163 30.096814,149.954876 30.588614999999997,150.008488 31.080448999999998,150.056997 31.572312999999998,150.100403 32.064203,150.138704 32.556116,150.1719 33.048049,150.19999 33.539998999999995,150.222973 34.031962,150.24085 34.523936,150.25361900000001 35.015916,150.261281 35.507898999999995,150.263834 35.999882,150.261281 36.491862,150.25361900000001 36.983836,150.24085 37.475798999999995,150.222973 37.967749,150.19999 38.459682,150.1719 38.951595,150.138704 39.443484999999995,150.100403 39.935349,150.056997 40.427183,150.008488 40.918983999999995,149.954876 41.41075,149.896163 41.902477,149.832349 42.394161999999994,149.763436 42.885802999999996,149.689425 43.377396,149.610317 43.868939,149.526114 44.360428999999996,149.436817 44.644778,149.382203 46.6965,152.80174 47.751718,152.402757 45.938626,142.58184 44.46481,142.880213 43.993041,142.970825 43.521327,143.056528 43.049666,143.137325 42.578055,143.213217 42.106492,143.284206 41.634973,143.350293 41.163495999999995,143.41147899999999 40.692057999999996,143.467766 40.220655,143.519154 39.749285,143.565645 39.277945,143.607239 38.806630999999996,143.643938 38.33534,143.675742 37.864069,143.702652 37.392815,143.724669 36.921574,143.741792 36.450344,143.754023 35.979119999999995,143.761361 35.507898999999995,143.763808 35.036677999999995,143.761361 34.565454,143.754023 34.094224,143.741792 33.622983,143.724669 33.151729,143.702652 32.680458,143.675742 32.209166999999994,143.643938 31.737852999999998,143.607239 31.266512999999996,143.565645 30.795143,143.519154 30.323739999999997,143.467766 29.852301999999998,143.41147899999999 29.380824999999998,143.350293 28.909305999999997,143.284206 28.437742999999998,143.213217 27.966131999999998,143.137325 27.494470999999997,143.056528 27.022757,142.970825 26.550987999999997,142.880213 25.875859,142.743534 25.875859,149.284108 26.163933999999998,149.342429 26.655368999999997,149.436817 25.096349,149.436817 24.604858999999998,149.526114 24.113315999999998,149.610317 23.621723,149.689425 23.130081999999998,149.763436 22.638396999999998,149.832349 22.14667,149.896163 21.654904,149.954876 21.163103,150.008488 20.671269,150.056997 20.179405,150.100403 19.687514999999998,150.138704 19.195601999999997,150.1719 18.703668999999998,150.19999 18.211719,150.222973 17.719755999999997,150.24085 17.227781999999998,150.25361900000001 16.735802,150.261281 16.243819,150.263834 15.751835999999999,150.261281 15.259856,150.25361900000001 14.767881999999998,150.24085 14.275918999999998,150.222973 13.783968999999999,150.19999 13.292035999999998,150.1719 12.800123,150.138704 12.308232999999998,150.100403 11.816368999999998,150.056997 11.324535,150.008488 10.832733999999999,149.954876 10.340967999999998,149.896163 9.849241,149.832349 9.357555999999999,149.763436 8.865914999999998,149.689425 8.374322,149.610317 7.882778999999999,149.526114 7.391288999999997,149.436817 7.106939999999998,149.382203 5.055218,152.80174 4.0,152.402757 5.8130919999999975,142.58184 7.286907999999997,142.880213 7.758676999999999,142.970825 8.230390999999997,143.056528 8.702051999999998,143.137325 9.173662999999998,143.213217 9.645225999999997,143.284206 10.116744999999998,143.350293 10.588221999999998,143.41147899999999 11.05966,143.467766 11.531062999999998,143.519154 12.002432999999998,143.565645 12.473772999999998,143.607239 12.945087,143.643938 13.416377999999998,143.675742 13.887648999999998,143.702652 14.358902999999998,143.724669 14.830143999999999,143.741792 15.301374,143.754023 15.772597999999999,143.761361 16.243819,143.763808 16.71504,143.761361 17.186263999999998,143.754023 17.657494,143.741792 18.128735,143.724669 18.599988999999997,143.702652 19.07126,143.675742 19.542551,143.643938 20.013865,143.607239 20.485205,143.565645 20.956574999999997,143.519154 21.427978,143.467766 21.899416,143.41147899999999 22.370893,143.350293 22.842412,143.284206 23.313975,143.213217 23.785586,143.137325 24.257247,143.056528 24.728960999999998,142.970825 25.20073,142.880213 25.875859,142.743534 25.875859,149.284108 25.587784,149.342429 25.096349,149.436817" stroke="#1f6fb2" stroke-width="0.1" /><text fill="#0a3d62" font-family="sans-serif" font-size="1.6" text-anchor="middle" x="25.875859" y="147.69179">07</text><polygon fill="#cfe3f7" fill-opacity="0.5" points="71.627903,147.884382 72.159438,147.955375 72.69099399999999,148.022314 73.22256999999999,148.085198 73.754166,148.144027 74.28577999999999,148.198801 74.81741099999999,148.24952 75.349058,148.296182 75.880719,148.338787 76.412393,148.377336 76.94407899999999,148.411828 77.475776,148.442263 78.007482,148.46864 78.539196,148.49096 79.070916,148.509222 79.602642,148.523425 80.134372,148.533571 80.66610399999999,148.539658 81.19783799999999,148.541687 81.72957199999999,148.539658 82.261304,148.533571 82.79303399999999,148.523425 83.32476,148.509222 83.85648,148.49096 84.388194,148.46864 84.9199,148.442263 85.45159699999999,148.411828 85.983283,148.377336 86.514957,148.338787 87.046618,148.296182 87.57826499999999,148.24952 88.10989599999999,148.198801 88.64151,148.144027 89.17310599999999,148.085198 89.70468199999999,148.022314 90.236238,147.955375 90.76777299999999,147.884382 91.299284,147.809336 92.679878,147.603868 92.679878,142.58184 91.01226799999999,142.830024 90.495575,142.902978 89.978906,142.971985 89.46225799999999,143.037046 88.94563,143.098162 88.429022,143.155333 87.912432,143.208559 87.395859,143.25784 86.879302,143.303178 86.362759,143.344573 85.846229,143.382024 85.329711,143.415532 84.813204,143.445097 84.296706,143.47072 83.780216,143.4924 83.263732,143.510138 82.747254,143.523935 82.23078,143.533789 81.71430799999999,143.539702 81.19783799999999,143.541673 80.68136799999999,143.539702 80.164896,143.533789 79.648422,143.523935 79.131944,143.510138 78.61546,143.4924 78.09897,143.47072 77.582472,143.445097 77.06596499999999,143.415532 76.549447,143.382024 76.032917,143.344573 75.516374,143.303178 74.999817,143.25784 74.483244,143.208559 73.96665399999999,143.155333 73.450046,143.098162 72.93341799999999,143.037046 72.41677,142.971985 71.90010099999999,142.902978 71.383408,142.830024 70.71579799999999,142.730666 70.71579799999999,147.752694 71.096392,147.809336 71.627903,147.884382 69.803693,147.884382 69.27215799999999,147.955375 68.740602,148.022314 68.209026,148.085198 67.67742999999999,148.144027 67.145816,148.198801 66.61418499999999,148.24952 66.082538,148.296182 65.550877,148.338787 65.019203,148.377336 64.487517,148.411828 63.955819999999996,148.442263 63.424113999999996,148.46864 62.892399999999995,148.49096 62.360679999999995,148.509222 61.828953999999996,148.523425 61.297224,148.533571 60.765491999999995,148.539658 60.233757999999995,148.541687 59.702023999999994,148.539658 59.170291999999996,148.533571 58.63856199999999,148.523425 58.106835999999994,148.509222 57.575115999999994,148.49096 57.04340199999999,148.46864 56.51169599999999,148.442263 55.97999899999999,148.411828 55.448313,148.377336 54.916638999999996,148.338787 54.384978,148.296182 53.853331,148.24952 53.32169999999999,148.198801 52.790085999999995,148.144027 52.258489999999995,148.085198 51.726913999999994,148.022314 51.195358,147.955375 50.663822999999994,147.884382 50.132312,147.809336 48.751718,147.603868 48.751718,142.58184 50.41932799999999,142.830024 50.936021,142.902978 51.45269,142.971985 51.96933799999999,143.037046 52.485966,143.098162 53.002573999999996,143.155333 53.519163999999996,143.208559 54.035737,143.25784 54.552293999999996,143.303178 55.068836999999995,143.344573 55.585367,143.382024 56.101884999999996,143.415532 56.618392,143.445097 57.13489,143.47072 57.651379999999996,143.4924 58.167863999999994,143.510138 58.684341999999994,143.523935 59.200815999999996,143.533789 59.717287999999996,143.539702 60.233757999999995,143.541673 60.75022799999999,143.539702 61.2667,143.533789 61.783173999999995,143.523935 62.299651999999995,143.510138 62.816136,143.4924 63.332626,143.47072 63.849123999999996,143.445097 64.365631,143.415532 64.882149,143.382024 65.39867899999999,143.344573 65.915222,143.303178 66.43177899999999,143.25784 66.948352,143.208559 67.464942,143.155333 67.98155,143.098162 68.498178,143.037046 69.014826,142.971985 69.53149499999999,142.902978 70.048188,142.830024 70.71579799999999,142.730666 70.71579799999999,147.752694 70.335204,147.809336 69.803693,147.884382" stroke="#1f6fb2" stroke-width="0.1" /><text fill="#0a3d62" font-family="sans-serif" font-size="1.6" text-anchor="middle" x="70.71579799999999" y="145.5617635">08</text><polygon fill="#cfe3f7" fill-opacity="0.5" points="93.679878,146.230967 93.702033,146.45591 93.781976,146.719448 93.911797,146.962326 94.086507,147.175211 94.299392,147.349921 94.54227,147.479742 94.805808,147.559685 95.03075100000001,147.58184 106.329005,147.58184 106.553948,147.559685 106.817486,147.479742 107.060364,147.349921 107.273249,147.175211 107.447959,146.962326 107.57778,146.719448 107.657723,146.45591 107.679878,146.230967 107.679878,143.932713 107.657723,143.70777 107.57778,143.444232 107.447959,143.201354 107.273249,142.988469 107.060364,142.813759 106.817486,142.683938 106.553948,142.603995 106.329005,142.58184 95.03075100000001,142.58184 94.805808,142.603995 94.54227,142.683938 94.299392,142.813759 94.086507,142.988469 93.911797,143.201354 93.781976,143.444232 93.702033,143.70777 93.679878,143.932713 93.679878,146.230967" stroke="#1f6fb2" stroke-width="0.1" /><text fill="#0a3d62" font-family="sans-serif" font-size="1.6" text-anchor="middle" x="100.679878" y="145.08184">06</text><polygon fill="#cfe3f7" fill-opacity="0.5" points="108.679878,146.230967 108.702033,146.45591 108.781976,146.719448 108.911797,146.962326 109.086507,147.175211 109.299392,147.349921 109.54227,147.479742 109.805808,147.559685 110.03075100000001,147.58184 121.329005,147.58184 121.553948,147.559685 121.817486,147.479742 122.060364,147.349921 122.273249,147.175211 122.447959,146.962326 122.57778,146.719448 122.657723,146.45591 122.679878,146.230967 122.679878,143.932713 122.657723,143.70777 122.57778,143.444232 122.447959,143.201354 122.273249,142.988469 122.060364,142.813759 121.817486,142.683938 121.553948,142.603995 121.329005,142.58184 110.03075100000001,142.58184 109.805808,142.603995 109.54227,142.683938 109.299392,142.813759 109.086507,142.988469 108.911797,143.201354 108.781976,143.444232 108.702033,143.70777 108.679878,143.932713 108.679878,146.230967" stroke="#1f6fb2" stroke-width="0.1" /><text fill="#0a3d62" font-family="sans-serif" font-size="1.6" text-anchor="middle" x="115.679878" y="145.08184">06</text></svg>