<?xml version="1.0" encoding="utf-8" ?>
<svg baseProfile="full" height="152.921616cm" version="1.1" viewBox="0 0 168.0 152.921616" width="168.0cm" xmlns="http://www.w3.org/2000/svg" xmlns:ev="http://www.w3.org/2001/xml-events" xmlns:xlink="http://www.w3.org/1999/xlink"><defs /><rect fill="#f7f3ea" height="144.921616" stroke="#333" stroke-width="0.15" width="160.0" x="4.0" y="4.0" /><text fill="#000" font-family="sans-serif" font-size="1.4" x="4.0" y="3.0">PLANO DE CORTE — ancho 160 cm — largo 1.45 m</text><polygon fill="#cfe3f7" fill-opacity="0.5" points="4.0,74.267704 12.00722,74.267704 11.601177,17.827772 15.824922,5.262131 13.300661,4.0 12.604548000000001,4.928368 12.408809,5.189983 12.212994,5.452847 12.017382000000001,5.717166 11.822256,5.98315 11.6279,6.251011999999999 11.434603,6.520965 11.242656,6.793221 11.052355,7.067997 10.863996,7.345508 10.677882,7.6259689999999996 10.494319,7.909597 10.313615,8.196606 10.136242,8.486951000000001 9.963303,8.779094 9.795078,9.070626 9.63075,9.360295 9.469275,9.647313 9.309653,9.930903 9.150927,10.210297 8.992184,10.484739000000001 8.832553,10.753489 8.671203,11.015827 8.507341,11.271062 8.340206,11.518545 8.169058,11.757678 7.993161000000001,11.987943000000001 7.810869,12.210004 7.619404,12.426846 7.41765,12.641195 7.206278,12.853889 6.986212,13.065588 6.7584420000000005,13.27698 6.524011,13.488792 6.322425,13.667704 4.0,13.667704 4.0,74.267704" stroke="#1f6fb2" stroke-width="0.1" /><text fill="#0a3d62" font-family="sans-serif" font-size="1.6" text-anchor="middle" x="9.912461" y="39.133852">09</text><polygon fill="#cfe3f7" fill-opacity="0.5" points="16.824922,74.267704 24.832142,74.267704 24.426099,17.827772 28.649844,5.262131 26.125583,4.0 25.429470000000002,4.928368 25.233731,5.189983 25.037916000000003,5.452847 24.842304000000002,5.717166 24.647178,5.98315 24.452822,6.251011999999999 24.259525,6.520965 24.067578,6.793221 23.877277,7.067997 23.688918,7.345508 23.502804,7.6259689999999996 23.319241,7.909597 23.138537,8.196606 22.961164,8.486951000000001 22.788225,8.779094 22.62,9.070626 22.455672,9.360295 22.294197,9.647313 22.134575,9.930903 21.975849,10.210297 21.817106000000003,10.484739000000001 21.657475,10.753489 21.496125,11.015827 21.332263,11.271062 21.165128000000003,11.518545 20.99398,11.757678 20.818083,11.987943000000001 20.635791,12.210004 20.444326,12.426846 20.242572000000003,12.641195 20.031200000000002,12.853889 19.811134000000003,13.065588 19.583364,13.27698 19.348933000000002,13.488792 19.147347,13.667704 16.824922,13.667704 16.824922,74.267704" stroke="#1f6fb2" stroke-width="0.1" /><text fill="#0a3d62" font-family="sans-serif" font-size="1.6" text-anchor="middle" x="22.737383" y="39.133852">09</text><polygon fill="#cfe3f7" fill-opacity="0.5" points="29.649844,13.633067 29.649844,74.233067 44.454658,74.233067 44.183801,71.520223 44.02482500000001,69.908136 43.869964,68.29766000000001 43.721206,66.688998 43.580539,65.082356 43.449943000000005,63.477941 43.331395,61.875962 43.226866,60.276627 43.138324,58.680147 43.06773,57.086731 43.01704,55.496586 42.988204,53.90992 42.983169000000004,52.326934 43.003873,50.747828999999996 43.052252,49.172796999999996 43.130235,47.602027 43.239749,46.035695 43.382741,44.473583999999995 43.560069,42.91459 43.770226,41.357675 44.011352,39.802544999999995 44.281573,38.249006 44.579008,36.696869 44.901771,35.14595 45.24797100000001,33.596069 45.615709,32.047049 46.003083000000004,30.498713 46.408184000000006,28.950886999999998 46.829098,27.403394 47.263907,25.856059 47.710687,24.308705 48.167511000000005,22.761152 48.632448,21.213219 49.103561,19.664723000000002 49.578911000000005,18.115477 50.089689,16.457760999999998 50.135391999999996,15.847847 50.198454,15.367222 50.287714,14.873137 50.400976,14.366815 50.535817,13.849511 50.689639,13.32245 50.859709,12.78679 51.043189999999996,12.243606999999999 51.237178,11.693886 51.438712,11.138521 51.970248,9.693617 38.924533000000004,4.0 38.254392,4.893731 38.058653,5.155346 37.862838,5.41821 37.667226,5.682529 37.472100000000005,5.948513 37.277744,6.216374999999999 37.084447000000004,6.486328 36.8925,6.758584 36.702199,7.03336 36.51384,7.310871 36.327726,7.5913319999999995 36.144163000000006,7.87496 35.963459,8.161969 35.786086000000005,8.452314000000001 35.613147,8.744457 35.444922000000005,9.035989 35.280594,9.325658 35.119119,9.612676 34.959497,9.896266 34.800771000000005,10.17566 34.642028,10.450102000000001 34.482397000000006,10.718852 34.321047,10.98119 34.157185,11.236425 33.990050000000004,11.483908 33.818902,11.723041 33.643005,11.953306000000001 33.460713,12.175367 33.269248000000005,12.392209 33.067494,12.606558 32.856122,12.819252 32.636056,13.030951 32.408286000000004,13.242343 32.173855,13.454155 31.972269,13.633067 29.649844,13.633067" stroke="#1f6fb2" stroke-width="0.1" /><text fill="#0a3d62" font-family="sans-serif" font-size="1.6" text-anchor="middle" x="40.810046" y="39.1165335">01</text><polygon fill="#cfe3f7" fill-opacity="0.5" points="52.970248,13.633067 52.970248,74.233067 67.77506199999999,74.233067 67.504205,71.520223 67.345229,69.908136 67.190368,68.29766000000001 67.04160999999999,66.688998 66.900943,65.082356 66.770347,63.477941 66.651799,61.875962 66.54727,60.276627 66.458728,58.680147 66.388134,57.086731 66.337444,55.496586 66.30860799999999,53.90992 66.303573,52.326934 66.324277,50.747828999999996 66.372656,49.172796999999996 66.450639,47.602027 66.560153,46.035695 66.703145,44.473583999999995 66.880473,42.91459 67.09063,41.357675 67.331756,39.802544999999995 67.601977,38.249006 67.899412,36.696869 68.222175,35.14595 68.568375,33.596069 68.936113,32.047049 69.323487,30.498713 69.728588,28.950886999999998 70.149502,27.403394 70.584311,25.856059 71.031091,24.308705 71.487915,22.761152 71.952852,21.213219 72.423965,19.664723000000002 72.899315,18.115477 73.41009299999999,16.457760999999998 73.45579599999999,15.847847 73.518858,15.367222 73.60811799999999,14.873137 73.72138,14.366815 73.856221,13.849511 74.010043,13.32245 74.180113,12.78679 74.36359399999999,12.243606999999999 74.557582,11.693886 74.759116,11.138521 75.290652,9.693617 62.244937,4.0 61.574796,4.893731 61.379056999999996,5.155346 61.183242,5.41821 60.987629999999996,5.682529 60.792504,5.948513 60.598147999999995,6.216374999999999 60.404851,6.486328 60.212903999999995,6.758584 60.022603,7.03336 59.834244,7.310871 59.648129999999995,7.5913319999999995 59.464567,7.87496 59.283863,8.161969 59.10649,8.452314000000001 58.933550999999994,8.744457 58.765326,9.035989 58.600998,9.325658 58.439522999999994,9.612676 58.279900999999995,9.896266 58.121175,10.17566 57.962432,10.450102000000001 57.802801,10.718852 57.641450999999996,10.98119 57.477588999999995,11.236425 57.310454,11.483908 57.139306,11.723041 56.963409,11.953306000000001 56.781116999999995,12.175367 56.589652,12.392209 56.387898,12.606558 56.176525999999996,12.819252 55.95646,13.030951 55.72869,13.242343 55.494259,13.454155 55.292673,13.633067 52.970248,13.633067" stroke="#1f6fb2" stroke-width="0.1" /><text fill="#0a3d62" font-family="sans-serif" font-size="1.6" text-anchor="middle" x="64.13045" y="39.1165335">01</text><polygon fill="#cfe3f7" fill-opacity="0.5" points="80.894189,66.004613 106.722893,66.004613 111.335394,14.559622999999998 110.62905099999999,13.774989999999999 110.208244,13.312847999999999 109.77876799999999,12.851835999999999 109.338571,12.395239 108.887897,11.9474 108.428975,11.51006 107.96279999999999,11.082705 107.489992,10.664458 107.01115999999999,10.254439 106.52689899999999,9.851766999999999 106.03779399999999,9.455561 105.544421,9.064943 105.04734099999999,8.679036 104.546448,8.296466 104.03970899999999,7.915755 103.52462899999999,7.538259 103.00007,7.1668959999999995 102.46505499999999,6.804792 101.91855199999999,6.4551289999999995 101.359495,6.121163 100.7868,5.80625 100.19940399999999,5.513857 99.596313,5.24759 98.978182,5.011762 98.350101,4.809616 97.71780999999999,4.638591 97.083558,4.494111 96.448889,4.371542 95.81522199999999,4.266382 95.183906,4.174272 94.556274,4.0909949999999995 93.83477599999999,4.0 93.099615,4.05394 92.45886899999999,4.104962 91.81429899999999,4.164405 91.167052,4.236438 90.51827899999999,4.325369 89.869177,4.435643 89.221048,4.57184 88.575459,4.738636 87.93659699999999,4.939882 87.31033099999999,5.174805 86.698966,5.439152 86.101908,5.729414 85.518326,6.042254 84.947338,6.374447 84.38804599999999,6.722872 83.839565,7.084489 83.30104399999999,7.456322999999999 82.77166799999999,7.835451 82.249849,8.2196 81.732631,8.609293000000001 81.219403,9.007759 80.712003,9.417183999999999 80.212645,9.839547 79.72359999999999,10.276864 79.247214,10.731176 78.78592599999999,11.204525 78.34228499999999,11.698924 77.91945,12.215724 77.52309699999999,12.750982 77.15332599999999,13.294198000000002 76.80412799999999,13.837394 76.290652,14.659607999999999 80.894189,66.004613" stroke="#1f6fb2" stroke-width="0.1" /><text fill="#0a3d62" font-family="sans-serif" font-size="1.6" text-anchor="middle" x="93.81302299999999" y="35.0023065">04</text><polygon fill="#cfe3f7" fill-opacity="0.5" points="116.938931,66.004613 142.76763499999998,66.004613 147.380136,14.559622999999998 146.673793,13.774989999999999 146.252986,13.312847999999999 145.82351,12.851835999999999 145.383313,12.395239 144.932639,11.9474 144.473717,11.51006 144.007542,11.082705 143.534734,10.664458 143.055902,10.254439 142.571641,9.851766999999999 142.082536,9.455561 141.58916299999999,9.064943 141.092083,8.679036 140.59118999999998,8.296466 140.084451,7.915755 139.569371,7.538259 139.04481199999998,7.1668959999999995 138.509797,6.804792 137.963294,6.4551289999999995 137.404237,6.121163 136.83154199999998,5.80625 136.244146,5.513857 135.641055,5.24759 135.022924,5.011762 134.39484299999998,4.809616 133.762552,4.638591 133.1283,4.494111 132.493631,4.371542 131.859964,4.266382 131.228648,4.174272 130.601016,4.0909949999999995 129.879518,4.0 129.14435699999999,4.05394 128.50361099999998,4.104962 127.85904099999999,4.164405 127.211794,4.236438 126.56302099999999,4.325369 125.91391899999999,4.435643 125.26579,4.57184 124.620201,4.738636 123.98133899999999,4.939882 123.35507299999999,5.174805 122.743708,5.439152 122.14665,5.729414 121.56306799999999,6.042254 120.99207999999999,6.374447 120.43278799999999,6.722872 119.88430699999999,7.084489 119.34578599999999,7.456322999999999 118.81640999999999,7.835451 118.294591,8.2196 117.777373,8.609293000000001 117.264145,9.007759 116.756745,9.417183999999999 116.257387,9.839547 115.76834199999999,10.276864 115.291956,10.731176 114.83066799999999,11.204525 114.38702699999999,11.698924 113.964192,12.215724 113.56783899999999,12.750982 113.19806799999999,13.294198000000002 112.84886999999999,13.837394 112.335394,14.659607999999999 116.938931,66.004613" stroke="#1f6fb2" stroke-width="0.1" /><text fill="#0a3d62" font-family="sans-serif" font-size="1.6" text-anchor="middle" x="129.857765" y="35.0023065">04</text><polygon fill="#cfe3f7" fill-opacity="0.5" points="10.684109,79.09473399999999 10.207716999999999,80.647374 9.734879999999999,82.20153499999999 9.267555999999999,83.757419 8.807704,85.31522799999999 8.357289999999999,86.87516699999999 7.918282999999999,88.437444 7.492654999999999,90.00226599999999 7.082383999999999,91.569846 6.689453,93.14039199999999 6.315849999999999,94.71411699999999 5.963566999999999,96.291231 5.6346039999999995,97.87194199999999 5.330964999999999,99.456457 5.054658999999999,101.044979 4.807703999999999,102.637704 4.5921199999999995,104.234825 4.409943999999999,105.836434 4.26299,107.44182099999999 4.15057,109.049731 4.070648,110.659551 4.021148,112.27106099999999 4.0,113.884052 4.005134999999999,115.49832099999999 4.034492,117.113669 4.086013999999999,118.72990399999999 4.15765,120.346835 4.247354,121.964272 4.353087,123.58202999999999 4.472811999999999,125.19991999999999 4.604500999999999,126.81775499999999 4.7461269999999995,128.43534699999998 4.895669999999999,130.052506 5.051114,131.66904 5.2104479999999995,133.284758 5.461587999999999,135.800115 20.366717,135.800115 20.366717,88.424409 19.766785,87.73870199999999 19.413393999999997,87.335531 19.057401,86.93088399999999 18.698267,86.524897 18.33515,86.117367 17.967213,85.708096 17.593623,85.296893 17.21356,84.883584 16.827131,84.468959 16.437792,84.05513099999999 16.051313999999998,83.643085 15.672258000000001,83.232349 15.305055999999999,82.822515 14.954133999999998,82.413395 14.623862,82.005021 14.318492999999998,81.597657 14.042056999999998,81.191772 13.798238,80.787988 13.590213,80.38693599999999 13.420502999999998,79.98897099999999 13.290104000000001,79.591336 13.197117,79.18597299999999 13.138363,78.76656299999999 13.112225,78.331644 13.144734999999999,75.468093 11.8633,75.267704 10.684109,79.09473399999999" stroke="#1f6fb2" stroke-width="0.1" /><text fill="#0a3d62" font-family="sans-serif" font-size="1.6" text-anchor="middle" x="12.1833585" y="105.5339095">11</text><polygon fill="#cfe3f7" fill-opacity="0.5" points="28.050826,79.09473399999999 27.574434,80.647374 27.101596999999998,82.20153499999999 26.634273,83.757419 26.174421000000002,85.31522799999999 25.724007,86.87516699999999 25.285,88.437444 24.859372,90.00226599999999 24.449101,91.569846 24.05617,93.14039199999999 23.682567,94.71411699999999 23.330284,96.291231 23.001321,97.87194199999999 22.697682,99.456457 22.421376000000002,101.044979 22.174421000000002,102.637704 21.958837000000003,104.234825 21.776661,105.836434 21.629707000000003,107.44182099999999 21.517287000000003,109.049731 21.437365,110.659551 21.387865,112.27106099999999 21.366717,113.884052 21.371852,115.49832099999999 21.401209,117.113669 21.452731,118.72990399999999 21.524367,120.346835 21.614071000000003,121.964272 21.719804000000003,123.58202999999999 21.839529,125.19991999999999 21.971218,126.81775499999999 22.112844000000003,128.43534699999998 22.262387,130.052506 22.417831,131.66904 22.577165,133.284758 22.828305,135.800115 37.733434,135.800115 37.733434,88.424409 37.133502,87.73870199999999 36.780111,87.335531 36.424118,86.93088399999999 36.064984,86.524897 35.701867,86.117367 35.33393,85.708096 34.96034,85.296893 34.580277,84.883584 34.193848,84.468959 33.804509,84.05513099999999 33.418031,83.643085 33.038975,83.232349 32.671773,82.822515 32.320851,82.413395 31.990579000000004,82.005021 31.685209999999998,81.597657 31.408774,81.191772 31.164955,80.787988 30.95693,80.38693599999999 30.787219999999998,79.98897099999999 30.656821,79.591336 30.563834,79.18597299999999 30.50508,78.76656299999999 30.478942000000004,78.331644 30.511452,75.468093 29.230017000000004,75.267704 28.050826,79.09473399999999" stroke="#1f6fb2" stroke-width="0.1" /><text fill="#0a3d62" font-family="sans-serif" font-size="1.6" text-anchor="middle" x="29.550075500000002" y="105.5339095">11</text><polygon fill="#cfe3f7" fill-opacity="0.5" points="88.733434,87.966392 88.278314,87.279729 87.989768,86.84411399999999 87.701281,86.408048 87.412802,85.971184 87.124279,85.533176 86.83566,85.09367599999999 86.54689400000001,84.65233799999999 86.257938,84.208831 85.96918,83.76344 85.682413,83.317216 85.400155,82.870756 85.124516,82.42400799999999 84.857563,81.97692599999999 84.601337,81.52950899999999 84.357847,81.081797 84.129054,80.633862 83.916864,80.1858 83.723108,79.73771199999999 83.549529,79.28968599999999 83.39777600000001,78.84176 83.269379,78.39383199999999 83.165327,77.94394399999999 83.084885,77.488163 83.026267,77.024293 82.988076,76.552268 82.93682,75.267704 63.733434,75.267704 63.733434,135.26770399999998 88.733434,135.26770399999998 88.733434,87.966392 38.733434,87.966392 39.188554,87.279729 39.47710000000001,86.84411399999999 39.765587000000004,86.408048 40.054066000000006,85.971184 40.342589000000004,85.533176 40.631208,85.09367599999999 40.919974,84.65233799999999 41.20893,84.208831 41.497688000000004,83.76344 41.784455,83.317216 42.06671300000001,82.870756 42.342352000000005,82.42400799999999 42.609305000000006,81.97692599999999 42.865531000000004,81.52950899999999 43.109021,81.081797 43.337814,80.633862 43.550004,80.1858 43.74376,79.73771199999999 43.917339,79.28968599999999 44.069092,78.84176 44.197489000000004,78.39383199999999 44.301541,77.94394399999999 44.381983000000005,77.488163 44.440601,77.024293 44.478792,76.552268 44.53004800000001,75.267704 63.733434,75.267704 63.733434,135.26770399999998 38.733434,135.26770399999998 38.733434,87.966392" stroke="#1f6fb2" stroke-width="0.1" /><text fill="#0a3d62" font-family="sans-serif" font-size="1.6" text-anchor="middle" x="63.733434" y="105.267704">02</text><polygon fill="#cfe3f7" fill-opacity="0.5" points="89.733434,86.539609 96.733434,90.949609 103.733434,86.539609 103.733434,75.267704 89.733434,75.267704 89.733434,86.539609" stroke="#1f6fb2" stroke-width="0.1" /><text fill="#0a3d62" font-family="sans-serif" font-size="1.6" text-anchor="middle" x="96.733434" y="83.1086565">10</text><polygon fill="#cfe3f7" fill-opacity="0.5" points="104.733434,87.516831 104.76327500000001,87.81981099999999 104.865981,88.158386 105.03276600000001,88.47041899999999 105.25722,88.743918 105.530719,88.96837199999999 105.842752,89.13515699999999 106.181327,89.23786299999999 106.484307,89.267704 127.982561,89.267704 128.285541,89.23786299999999 128.62411600000001,89.13515699999999 128.936149,88.96837199999999 129.20964800000002,88.743918 129.434102,88.47041899999999 129.600887,88.158386 129.703593,87.81981099999999 129.733434,87.516831 129.733434,77.018577 129.703593,76.71559699999999 129.600887,76.377022 129.434102,76.064989 129.20964800000002,75.79149 128.936149,75.567036 128.62411600000001,75.400251 128.285541,75.297545 127.982561,75.267704 106.484307,75.267704 106.181327,75.297545 105.842752,75.400251 105.530719,75.567036 105.25722,75.79149 105.03276600000001,76.064989 104.865981,76.377022 104.76327500000001,76.71559699999999 104.733434,77.018577 104.733434,87.516831" stroke="#1f6fb2" stroke-width="0.1" /><text fill="#0a3d62" font-family="sans-serif" font-size="1.6" text-anchor="middle" x="117.233434" y="82.267704">05</text><polygon fill="#cfe3f7" fill-opacity="0.5" points="130.733434,87.516831 130.763275,87.81981099999999 130.86598099999998,88.158386 131.03276599999998,88.47041899999999 131.25722,88.743918 131.53071899999998,88.96837199999999 131.842752,89.13515699999999 132.18132699999998,89.23786299999999 132.484307,89.267704 153.98256099999998,89.267704 154.285541,89.23786299999999 154.624116,89.13515699999999 154.936149,88.96837199999999 155.209648,88.743918 155.434102,88.47041899999999 155.600887,88.158386 155.70359299999998,87.81981099999999 155.733434,87.516831 155.733434,77.018577 155.70359299999998,76.71559699999999 155.600887,76.377022 155.434102,76.064989 155.209648,75.79149 154.936149,75.567036 154.624116,75.400251 154.285541,75.297545 153.98256099999998,75.267704 132.484307,75.267704 132.18132699999998,75.297545 131.842752,75.400251 131.53071899999998,75.567036 131.25722,75.79149 131.03276599999998,76.064989 130.86598099999998,76.377022 130.763275,76.71559699999999 130.733434,77.018577 130.733434,87.516831" stroke="#1f6fb2" stroke-width="0.1" /><text fill="#0a3d62" font-family="sans-serif" font-size="1.6" text-anchor="middle" x="143.233434" y="82.267704">05</text><polygon fill="#cfe3f7" fill-opacity="0.5" points="43.109812000000005,147.726179 43.108270000000005,147.238498 43.12286,146.743515 43.152042,146.24166400000001 43.194218,145.73341100000002 43.247736,145.219236 43.310889,144.69962 43.381927000000005,144.175033 43.459058,143.645927 43.540457,143.11273 43.748646,141.779001 30.845692,136.800115 30.206584,137.234226 30.003755,137.37071500000002 29.803425,137.503013 29.605097,137.630312 29.408291,137.75186200000002 29.212533,137.866974 29.016683,137.975392 28.818733,138.077666 28.617676,138.174305 28.4137,138.265216 28.207108,138.350254 27.998204,138.429278 27.787293000000002,138.50215500000002 27.574684,138.568756 27.360684,138.628957 27.145601,138.682643 26.929644,138.729724 26.712166,138.77031300000002 26.492015000000002,138.8049 26.268762000000002,138.833975 26.04241,138.85796 25.81299,138.877288 25.580557,138.892407 25.345178,138.903781 25.106932,138.911893 24.865904,138.91724100000002 24.622182000000002,138.920345 24.375856,138.921737 24.127012,138.921972 23.874323,138.921615 23.874323,148.921616 43.157512,148.921616 43.109812000000005,147.726179 4.638833999999999,147.726179 4.640376,147.238498 4.6257860000000015,146.743515 4.596603999999999,146.24166400000001 4.5544280000000015,145.73341100000002 4.500910000000001,145.219236 4.437757000000001,144.69962 4.366719,144.175033 4.289588000000002,143.645927 4.208189000000001,143.11273 4.0,141.779001 16.902954,136.800115 17.542062,137.234226 17.744891,137.37071500000002 17.945221,137.503013 18.143549,137.630312 18.340355000000002,137.75186200000002 18.536113,137.866974 18.731963,137.975392 18.929913,138.077666 19.13097,138.174305 19.334946000000002,138.265216 19.541538,138.350254 19.750442,138.429278 19.961353000000003,138.50215500000002 20.173962,138.568756 20.387962,138.628957 20.603045,138.682643 20.819002,138.729724 21.03648,138.77031300000002 21.256631,138.8049 21.479884,138.833975 21.706236,138.85796 21.935656,138.877288 22.168089000000002,138.892407 22.403468,138.903781 22.641714,138.911893 22.882742,138.91724100000002 23.126464,138.920345 23.372790000000002,138.921737 23.621634,138.921972 23.874323,138.921615 23.874323,148.921616 4.591134,148.921616 4.638833999999999,147.726179" stroke="#1f6fb2" stroke-width="0.1" /><text fill="#0a3d62" font-family="sans-serif" font-size="1.6" text-anchor="middle" x="23.874323" y="142.86086550000002">03</text><polygon fill="#cfe3f7" fill-opacity="0.5" points="67.404015,143.655092 67.895505,143.744389 68.387048,143.82859200000001 68.878641,143.9077 69.370282,143.98171100000002 69.86196699999999,144.050624 70.35369399999999,144.114438 70.84546,144.17315100000002 71.337261,144.226763 71.829095,144.275272 72.320959,144.318678 72.812849,144.356979 73.304762,144.390175 73.796695,144.41826500000002 74.288645,144.441248 74.780608,144.459125 75.272582,144.47189400000002 75.764562,144.479556 76.256545,144.482109 76.748528,144.479556 77.240508,144.47189400000002 77.732482,144.459125 78.224445,144.441248 78.716395,144.41826500000002 79.208328,144.390175 79.700241,144.356979 80.19213099999999,144.318678 80.68399500000001,144.275272 81.175829,144.226763 81.66763,144.17315100000002 82.159396,144.114438 82.651123,144.050624 83.142808,143.98171100000002 83.63444899999999,143.9077 84.126042,143.82859200000001 84.61758499999999,143.744389 85.10907499999999,143.655092 85.39342400000001,143.600478 87.445146,147.020015 88.50036399999999,146.621032 86.68727200000001,136.800115 85.21345600000001,137.098488 84.741687,137.1891 84.269973,137.274803 83.79831200000001,137.3556 83.326701,137.431492 82.85513800000001,137.50248100000002 82.38361900000001,137.568568 81.91214199999999,137.629754 81.440704,137.68604100000002 80.969301,137.737429 80.497931,137.78392 80.026591,137.825514 79.55527699999999,137.862213 79.08398600000001,137.89401700000002 78.61271500000001,137.920927 78.14146099999999,137.942944 77.67022,137.960067 77.19899000000001,137.972298 76.727766,137.979636 76.256545,137.98208300000002 75.785324,137.979636 75.3141,137.972298 74.84287,137.960067 74.371629,137.942944 73.900375,137.920927 73.429104,137.89401700000002 72.957813,137.862213 72.486499,137.825514 72.015159,137.78392 71.543789,137.737429 71.072386,137.68604100000002 70.600948,137.629754 70.129471,137.568568 69.657952,137.50248100000002 69.18638899999999,137.431492 68.714778,137.3556 68.243117,137.274803 67.77140299999999,137.1891 67.299634,137.098488 66.624505,136.96180900000002 66.624505,143.502383 66.91257999999999,143.56070400000002 67.404015,143.655092 65.844995,143.655092 65.353505,143.744389 64.861962,143.82859200000001 64.370369,143.9077 63.878727999999995,143.98171100000002 63.387043,144.050624 62.895316,144.114438 62.403549999999996,144.17315100000002 61.911749,144.226763 61.419915,144.275272 60.928050999999996,144.318678 60.436161,144.356979 59.944248,144.390175 59.452315,144.41826500000002 58.960364999999996,144.441248 58.468402,144.459125 57.976428,144.47189400000002 57.484448,144.479556 56.992464999999996,144.482109 56.500482,144.479556 56.008502,144.47189400000002 55.516528,144.459125 55.024564999999996,144.441248 54.532615,144.41826500000002 54.040682,144.390175 53.548769,144.356979 53.056878999999995,144.318678 52.565015,144.275272 52.073181,144.226763 51.581379999999996,144.17315100000002 51.089614,144.114438 50.597887,144.050624 50.106201999999996,143.98171100000002 49.614560999999995,143.9077 49.122968,143.82859200000001 48.631425,143.744389 48.139934999999994,143.655092 47.855586,143.600478 45.803864000000004,147.020015 44.748646,146.621032 46.561738,136.800115 48.035554,137.098488 48.507323,137.1891 48.979037,137.274803 49.450698,137.3556 49.922309,137.431492 50.393872,137.50248100000002 50.865391,137.568568 51.336867999999996,137.629754 51.808306,137.68604100000002 52.279709,137.737429 52.751079,137.78392 53.222419,137.825514 53.693733,137.862213 54.165024,137.89401700000002 54.636295,137.920927 55.107549,137.942944 55.57879,137.960067 56.05002,137.972298 56.521243999999996,137.979636 56.992464999999996,137.98208300000002 57.463685999999996,137.979636 57.93491,137.972298 58.40614,137.960067 58.877381,137.942944 59.348635,137.920927 59.819906,137.89401700000002 60.291197,137.862213 60.762511,137.825514 61.233851,137.78392 61.705220999999995,137.737429 62.176624000000004,137.68604100000002 62.648061999999996,137.629754 63.119539,137.568568 63.591058000000004,137.50248100000002 64.06262100000001,137.431492 64.534232,137.3556 65.005893,137.274803 65.477607,137.1891 65.949376,137.098488 66.624505,136.96180900000002 66.624505,143.502383 66.33643000000001,143.56070400000002 65.844995,143.655092" stroke="#1f6fb2" stroke-width="0.1" /><text fill="#0a3d62" font-family="sans-serif" font-size="1.6" text-anchor="middle" x="66.624505" y="141.910065">07</text><polygon fill="#cfe3f7" fill-opacity="0.5" points="112.37654899999998,142.102657 112.90808399999999,142.17365 113.43964,142.240589 113.971216,142.303473 114.50281199999999,142.362302 115.034426,142.417076 115.56605699999999,142.467795 116.097704,142.514457 116.62936499999999,142.557062 117.16103899999999,142.59561100000002 117.692725,142.63010300000002 118.22442199999999,142.660538 118.75612799999999,142.686915 119.28784199999998,142.709235 119.81956199999999,142.727497 120.35128799999998,142.7417 120.88301799999999,142.751846 121.41475,142.757933 121.946484,142.759962 122.478218,142.757933 123.00994999999999,142.751846 123.54167999999999,142.7417 124.07340599999999,142.727497 124.60512599999998,142.709235 125.13683999999999,142.686915 125.66854599999999,142.660538 126.20024299999999,142.63010300000002 126.731929,142.59561100000002 127.26360299999999,142.557062 127.79526399999999,142.514457 128.326911,142.467795 128.858542,142.417076 129.390156,142.362302 129.921752,142.303473 130.453328,142.240589 130.984884,142.17365 131.51641899999998,142.102657 132.04793,142.027611 133.42852399999998,141.822143 133.42852399999998,136.800115 131.76091399999999,137.04829900000001 131.24422099999998,137.121253 130.727552,137.19026 130.21090399999997,137.255321 129.694276,137.316437 129.17766799999998,137.37360800000002 128.66107799999997,137.426834 128.14450499999998,137.476115 127.62794799999999,137.521453 127.11140499999999,137.562848 126.59487499999999,137.600299 126.07835699999998,137.63380700000002 125.56184999999999,137.663372 125.045352,137.688995 124.52886199999999,137.710675 124.01237799999998,137.72841300000002 123.49589999999999,137.74221 122.97942599999999,137.75206400000002 122.462954,137.757977 121.946484,137.759948 121.43001399999999,137.757977 120.91354199999999,137.75206400000002 120.39706799999999,137.74221 119.88058999999998,137.72841300000002 119.36410599999999,137.710675 118.84761599999999,137.688995 118.33111799999999,137.663372 117.81461099999999,137.63380700000002 117.298093,137.600299 116.78156299999999,137.562848 116.26501999999999,137.521453 115.74846299999999,137.476115 115.23188999999999,137.426834 114.71529999999998,137.37360800000002 114.198692,137.316437 113.682064,137.255321 113.165416,137.19026 112.64874699999999,137.121253 112.13205399999998,137.04829900000001 111.46444399999999,136.94894100000002 111.46444399999999,141.970969 111.84503799999999,142.027611 112.37654899999998,142.102657 110.55233899999999,142.102657 110.020804,142.17365 109.48924799999999,142.240589 108.95767199999999,142.303473 108.426076,142.362302 107.89446199999999,142.417076 107.36283099999999,142.467795 106.831184,142.514457 106.299523,142.557062 105.76784899999998,142.59561100000002 105.23616299999999,142.63010300000002 104.704466,142.660538 104.17275999999998,142.686915 103.64104599999999,142.709235 103.109326,142.727497 102.57759999999999,142.7417 102.04587,142.751846 101.51413799999999,142.757933 100.98240399999999,142.759962 100.45066999999999,142.757933 99.918938,142.751846 99.38720799999999,142.7417 98.855482,142.727497 98.32376199999999,142.709235 97.792048,142.686915 97.260342,142.660538 96.72864499999999,142.63010300000002 96.19695899999999,142.59561100000002 95.66528499999998,142.557062 95.133624,142.514457 94.60197699999999,142.467795 94.07034599999999,142.417076 93.53873199999998,142.362302 93.00713599999999,142.303473 92.47555999999999,142.240589 91.94400399999999,142.17365 91.41246899999999,142.102657 90.88095799999999,142.027611 89.50036399999999,141.822143 89.50036399999999,136.800115 91.16797399999999,137.04829900000001 91.68466699999999,137.121253 92.201336,137.19026 92.71798399999999,137.255321 93.234612,137.316437 93.75121999999999,137.37360800000002 94.26781,137.426834 94.78438299999999,137.476115 95.30094,137.521453 95.817483,137.562848 96.33401299999998,137.600299 96.85053099999999,137.63380700000002 97.367038,137.663372 97.88353599999999,137.688995 98.400026,137.710675 98.91650999999999,137.72841300000002 99.432988,137.74221 99.94946199999998,137.75206400000002 100.46593399999999,137.757977 100.98240399999999,137.759948 101.49887399999999,137.757977 102.015346,137.75206400000002 102.53181999999998,137.74221 103.04829799999999,137.72841300000002 103.564782,137.710675 104.08127199999998,137.688995 104.59777,137.663372 105.11427699999999,137.63380700000002 105.63079499999999,137.600299 106.147325,137.562848 106.663868,137.521453 107.18042499999999,137.476115 107.696998,137.426834 108.21358799999999,137.37360800000002 108.73019599999999,137.316437 109.24682399999999,137.255321 109.763472,137.19026 110.28014099999999,137.121253 110.79683399999999,137.04829900000001 111.46444399999999,136.94894100000002 111.46444399999999,141.970969 111.08384999999998,142.027611 110.55233899999999,142.102657" stroke="#1f6fb2" stroke-width="0.1" /><text fill="#0a3d62" font-family="sans-serif" font-size="1.6" text-anchor="middle" x="111.46444399999999" y="139.78003850000002">08</text><polygon fill="#cfe3f7" fill-opacity="0.5" points="134.42852399999998,140.449242 134.45067899999998,140.674185 134.530622,140.937723 134.660443,141.180601 134.835153,141.393486 135.048038,141.568196 135.29091599999998,141.698017 135.554454,141.77796 135.779397,141.800115 147.07765099999997,141.800115 147.30259399999997,141.77796 147.56613199999998,141.698017 147.80900999999997,141.568196 148.02189499999997,141.393486 148.19660499999998,141.180601 148.32642599999997,140.937723 148.40636899999998,140.674185 148.42852399999998,140.449242 148.42852399999998,138.150988 148.40636899999998,137.92604500000002 148.32642599999997,137.662507 148.19660499999998,137.41962900000001 148.02189499999997,137.20674400000001 147.80900999999997,137.032034 147.56613199999998,136.90221300000002 147.30259399999997,136.82227 147.07765099999997,136.800115 135.779397,136.800115 135.554454,136.82227 135.29091599999998,136.90221300000002 135.048038,137.032034 134.835153,137.20674400000001 134.660443,137.41962900000001 134.530622,137.662507 134.45067899999998,137.92604500000002 134.42852399999998,138.150988 134.42852399999998,140.449242" stroke="#1f6fb2" stroke-width="0.1" /><text fill="#0a3d62" font-family="sans-serif" font-size="1.6" text-anchor="middle" x="141.42852399999998" y="139.300115">06</text><polygon fill="#cfe3f7" fill-opacity="0.5" points="149.42852399999998,140.449242 149.45067899999998,140.674185 149.530622,140.937723 149.660443,141.180601 149.835153,141.393486 150.048038,141.568196 150.29091599999998,141.698017 150.554454,141.77796 150.779397,141.800115 162.07765099999997,141.800115 162.30259399999997,141.77796 162.56613199999998,141.698017 162.80900999999997,141.568196 163.02189499999997,141.393486 163.19660499999998,141.180601 163.32642599999997,140.937723 163.40636899999998,140.674185 163.42852399999998,140.449242 163.42852399999998,138.150988 163.40636899999998,137.92604500000002 163.32642599999997,137.662507 163.19660499999998,137.41962900000001 163.02189499999997,137.20674400000001 162.80900999999997,137.032034 162.56613199999998,136.90221300000002 162.30259399999997,136.82227 162.07765099999997,136.800115 150.779397,136.800115 150.554454,136.82227 150.29091599999998,136.90221300000002 150.048038,137.032034 149.835153,137.20674400000001 149.660443,137.41962900000001 149.530622,137.662507 149.45067899999998,137.92604500000002 149.42852399999998,138.150988 149.42852399999998,140.449242" stroke="#1f6fb2" stroke-width="0.1" /><text fill="#0a3d62" font-family="sans-serif" font-size="1.6" text-anchor="middle" x="156.42852399999998" y="139.300115">06</text></svg>