<?xml version="1.0" encoding="utf-8" ?>
<svg baseProfile="full" height="290.492217cm" version="1.1" viewBox="0 0 118.0 290.492217" width="118.0cm" xmlns="http://www.w3.org/2000/svg" xmlns:ev="http://www.w3.org/2001/xml-events" xmlns:xlink="http://www.w3.org/1999/xlink"><defs /><rect fill="#f7f3ea" height="282.492217" stroke="#333" stroke-width="0.15" width="110.0" x="4.0" y="4.0" /><text fill="#000" font-family="sans-serif" font-size="1.4" x="4.0" y="3.0">PLANO DE CORTE — ancho 110 cm — largo 2.82 m</text><polygon fill="#cfe3f7" fill-opacity="0.5" points="4.0,102.267704 14.180966999999999,102.267704 11.605001000000001,17.816398 15.824922,5.262131 13.300661,4.0 12.604548000000001,4.928368 12.408809,5.189983 12.212994,5.452847 12.017382000000001,5.717166 11.822256,5.98315 11.6279,6.251011999999999 11.434603,6.520965 11.242656,6.793221 11.052355,7.067997 10.863996,7.345508 10.677882,7.6259689999999996 10.494319,7.909597 10.313615,8.196606 10.136242,8.486951000000001 9.963303,8.779094 9.795078,9.070626 9.63075,9.360295 9.469275,9.647313 9.309653,9.930903 9.150927,10.210297 8.992184,10.484739000000001 8.832553,10.753489 8.671203,11.015827 8.507341,11.271062 8.340206,11.518545 8.169058,11.757678 7.993161000000001,11.987943000000001 7.810869,12.210004 7.619404,12.426846 7.41765,12.641195 7.206278,12.853889 6.986212,13.065588 6.7584420000000005,13.27698 6.524011,13.488792 6.322425,13.667704 4.0,13.667704 4.0,102.267704" stroke="#1f6fb2" stroke-width="0.1" /><text fill="#0a3d62" font-family="sans-serif" font-size="1.6" text-anchor="middle" x="9.912461" y="53.133852">09</text><polygon fill="#cfe3f7" fill-opacity="0.5" points="16.824922,102.267704 27.005889,102.267704 24.429923000000002,17.816398 28.649844,5.262131 26.125583,4.0 25.429470000000002,4.928368 25.233731,5.189983 25.037916000000003,5.452847 24.842304000000002,5.717166 24.647178,5.98315 24.452822,6.251011999999999 24.259525,6.520965 24.067578,6.793221 23.877277,7.067997 23.688918,7.345508 23.502804,7.6259689999999996 23.319241,7.909597 23.138537,8.196606 22.961164,8.486951000000001 22.788225,8.779094 22.62,9.070626 22.455672,9.360295 22.294197,9.647313 22.134575,9.930903 21.975849,10.210297 21.817106000000003,10.484739000000001 21.657475,10.753489 21.496125,11.015827 21.332263,11.271062 21.165128000000003,11.518545 20.99398,11.757678 20.818083,11.987943000000001 20.635791,12.210004 20.444326,12.426846 20.242572000000003,12.641195 20.031200000000002,12.853889 19.811134000000003,13.065588 19.583364,13.27698 19.348933000000002,13.488792 19.147347,13.667704 16.824922,13.667704 16.824922,102.267704" stroke="#1f6fb2" stroke-width="0.1" /><text fill="#0a3d62" font-family="sans-serif" font-size="1.6" text-anchor="middle" x="22.737383" y="53.133852">09</text><polygon fill="#cfe3f7" fill-opacity="0.5" points="29.649844,102.233067 69.525069,102.233067 57.291092000000006,26.790208999999997 56.749912,26.171653999999997 56.396521,25.768483 56.040528,25.363836 55.681394,24.957849 55.318277,24.550319 54.95034,24.141047999999998 54.576750000000004,23.729844999999997 54.196687,23.316536 53.810258000000005,22.901911 53.420919,22.488083 53.034441,22.076037 52.655385,21.665301 52.288183000000004,21.255467 51.937261,20.846346999999998 51.606989,20.437973 51.30162,20.030609 51.025183999999996,19.624724 50.781365,19.22094 50.57334,18.819888 50.40363,18.421923 50.273231,18.024288 50.180244,17.618925 50.12149,17.199514999999998 50.095352000000005,16.764596 50.100468,16.313914 50.135391999999996,15.847847 50.198454,15.367222 50.287714,14.873137 50.400976,14.366815 50.535817,13.849511 50.689639,13.32245 50.859709,12.78679 51.043189999999996,12.243606999999999 51.237178,11.693886 51.438712,11.138521 51.970248,9.693617 38.924533000000004,4.0 38.254392,4.893731 38.058653,5.155346 37.862838,5.41821 37.667226,5.682529 37.472100000000005,5.948513 37.277744,6.216374999999999 37.084447000000004,6.486328 36.8925,6.758584 36.702199,7.03336 36.51384,7.310871 36.327726,7.5913319999999995 36.144163000000006,7.87496 35.963459,8.161969 35.786086000000005,8.452314000000001 35.613147,8.744457 35.444922000000005,9.035989 35.280594,9.325658 35.119119,9.612676 34.959497,9.896266 34.800771000000005,10.17566 34.642028,10.450102000000001 34.482397000000006,10.718852 34.321047,10.98119 34.157185,11.236425 33.990050000000004,11.483908 33.818902,11.723041 33.643005,11.953306000000001 33.460713,12.175367 33.269248000000005,12.392209 33.067494,12.606558 32.856122,12.819252 32.636056,13.030951 32.408286000000004,13.242343 32.173855,13.454155 31.972269,13.633067 29.649844,13.633067 29.649844,102.233067" stroke="#1f6fb2" stroke-width="0.1" /><text fill="#0a3d62" font-family="sans-serif" font-size="1.6" text-anchor="middle" x="49.5874565" y="53.1165335">01</text><polygon fill="#cfe3f7" fill-opacity="0.5" points="70.525069,102.233067 110.400294,102.233067 98.166317,26.790208999999997 97.625137,26.171653999999997 97.27174600000001,25.768483 96.915753,25.363836 96.556619,24.957849 96.193502,24.550319 95.825565,24.141047999999998 95.451975,23.729844999999997 95.071912,23.316536 94.685483,22.901911 94.296144,22.488083 93.909666,22.076037 93.53061,21.665301 93.163408,21.255467 92.812486,20.846346999999998 92.482214,20.437973 92.176845,20.030609 91.900409,19.624724 91.65659,19.22094 91.448565,18.819888 91.278855,18.421923 91.14845600000001,18.024288 91.055469,17.618925 90.996715,17.199514999999998 90.970577,16.764596 90.975693,16.313914 91.010617,15.847847 91.073679,15.367222 91.162939,14.873137 91.276201,14.366815 91.41104200000001,13.849511 91.564864,13.32245 91.73493400000001,12.78679 91.918415,12.243606999999999 92.112403,11.693886 92.31393700000001,11.138521 92.845473,9.693617 79.799758,4.0 79.129617,4.893731 78.933878,5.155346 78.738063,5.41821 78.542451,5.682529 78.347325,5.948513 78.152969,6.216374999999999 77.959672,6.486328 77.767725,6.758584 77.57742400000001,7.03336 77.389065,7.310871 77.202951,7.5913319999999995 77.019388,7.87496 76.838684,8.161969 76.661311,8.452314000000001 76.488372,8.744457 76.320147,9.035989 76.15581900000001,9.325658 75.994344,9.612676 75.834722,9.896266 75.675996,10.17566 75.517253,10.450102000000001 75.357622,10.718852 75.19627200000001,10.98119 75.03241,11.236425 74.865275,11.483908 74.69412700000001,11.723041 74.51823,11.953306000000001 74.335938,12.175367 74.144473,12.392209 73.942719,12.606558 73.731347,12.819252 73.511281,13.030951 73.283511,13.242343 73.04908,13.454155 72.847494,13.633067 70.525069,13.633067 70.525069,102.233067" stroke="#1f6fb2" stroke-width="0.1" /><text fill="#0a3d62" font-family="sans-serif" font-size="1.6" text-anchor="middle" x="90.4626815" y="53.1165335">01</text><polygon fill="#cfe3f7" fill-opacity="0.5" points="66.127831,115.894886 65.72010499999999,115.279729 65.431559,114.84411399999999 65.14307199999999,114.408048 64.854593,113.971184 64.56607,113.533176 64.277451,113.09367599999999 63.988685,112.65233799999999 63.699729,112.208831 63.410970999999996,111.76344 63.124204,111.317216 62.84194599999999,110.870756 62.566306999999995,110.42400799999999 62.299353999999994,109.97692599999999 62.043127999999996,109.52950899999999 61.799638,109.081797 61.570845,108.633862 61.358655,108.1858 61.164899,107.73771199999999 60.99132,107.28968599999999 60.839567,106.84176 60.711169999999996,106.39383199999999 60.607118,105.94394399999999 60.526675999999995,105.488163 60.468058,105.024293 60.429867,104.552268 60.37861099999999,103.267704 41.175225,103.267704 41.175225,191.26770399999998 78.35045,191.26770399999998 66.127831,115.894886 16.222618999999998,115.894886 16.630345,115.279729 16.918891,114.84411399999999 17.207378,114.408048 17.495856999999997,113.971184 17.78438,113.533176 18.072998999999996,113.09367599999999 18.361765,112.65233799999999 18.650720999999997,112.208831 18.939479,111.76344 19.226245999999996,111.317216 19.508504,110.870756 19.784142999999997,110.42400799999999 20.051095999999998,109.97692599999999 20.307322,109.52950899999999 20.550811999999997,109.081797 20.779604999999997,108.633862 20.991794999999996,108.1858 21.185550999999997,107.73771199999999 21.359129999999997,107.28968599999999 21.510882999999996,106.84176 21.639279999999996,106.39383199999999 21.743332,105.94394399999999 21.823773999999997,105.488163 21.882391999999996,105.024293 21.920582999999997,104.552268 21.971839,103.267704 41.175225,103.267704 41.175225,191.26770399999998 4.0,191.26770399999998 16.222618999999998,115.894886" stroke="#1f6fb2" stroke-width="0.1" /><text fill="#0a3d62" font-family="sans-serif" font-size="1.6" text-anchor="middle" x="41.175225" y="147.26770399999998">02</text><polygon fill="#cfe3f7" fill-opacity="0.5" points="8.603537000000001,254.272317 34.432241,254.272317 39.044742,202.82732699999997 38.338398999999995,202.04269399999998 37.917592,201.58055199999998 37.488116,201.11953999999997 37.047919,200.66294299999998 36.597245,200.21510399999997 36.138323,199.777764 35.672148,199.35040899999998 35.19934,198.93216199999998 34.720508,198.52214299999997 34.236247,198.11947099999998 33.747142,197.72326499999997 33.253769,197.33264699999998 32.756689,196.94673999999998 32.255796000000004,196.56417 31.749057,196.18345899999997 31.233977,195.805963 30.709418,195.4346 30.174402999999998,195.07249599999997 29.6279,194.72283299999998 29.068843,194.38886699999998 28.496148,194.073954 27.908752,193.78156099999998 27.305661,193.51529399999998 26.687530000000002,193.27946599999999 26.059449,193.07732 25.427158,192.90629499999997 24.792906000000002,192.76181499999998 24.158237,192.63924599999999 23.52457,192.53408599999997 22.893254,192.44197599999998 22.265622,192.35869899999997 21.544124,192.26770399999998 20.808963,192.321644 20.168217,192.37266599999998 19.523647,192.43210899999997 18.8764,192.50414199999997 18.227627,192.59307299999998 17.578525,192.70334699999998 16.930396000000002,192.839544 16.284807,193.00634 15.645945000000001,193.207586 15.019679,193.44250899999997 14.408314,193.706856 13.811256,193.99711799999997 13.227674,194.309958 12.656686,194.64215099999998 12.097394,194.99057599999998 11.548913,195.35219299999997 11.010392,195.72402699999998 10.481016,196.103155 9.959197,196.487304 9.441979,196.876997 8.928751,197.27546299999997 8.421351,197.68488799999997 7.9219930000000005,198.107251 7.432948,198.54456799999997 6.956562,198.99887999999999 6.495274,199.47222899999997 6.051633000000001,199.966628 5.628798,200.48342799999998 5.232445000000002,201.01868599999997 4.862674000000002,201.56190199999998 4.513476000000001,202.10509799999997 4.0,202.92731199999997 8.603537000000001,254.272317" stroke="#1f6fb2" stroke-width="0.1" /><text fill="#0a3d62" font-family="sans-serif" font-size="1.6" text-anchor="middle" x="21.522371" y="223.27001049999998">04</text><polygon fill="#cfe3f7" fill-opacity="0.5" points="44.648279,254.272317 70.47698299999999,254.272317 75.089484,202.82732699999997 74.383141,202.04269399999998 73.962334,201.58055199999998 73.532858,201.11953999999997 73.09266099999999,200.66294299999998 72.641987,200.21510399999997 72.183065,199.777764 71.71689,199.35040899999998 71.24408199999999,198.93216199999998 70.76525000000001,198.52214299999997 70.280989,198.11947099999998 69.791884,197.72326499999997 69.29851099999999,197.33264699999998 68.80143100000001,196.94673999999998 68.300538,196.56417 67.793799,196.18345899999997 67.278719,195.805963 66.75416,195.4346 66.219145,195.07249599999997 65.672642,194.72283299999998 65.113585,194.38886699999998 64.54089,194.073954 63.953494,193.78156099999998 63.350403,193.51529399999998 62.732272,193.27946599999999 62.104191,193.07732 61.4719,192.90629499999997 60.837648,192.76181499999998 60.202979,192.63924599999999 59.569312,192.53408599999997 58.937996,192.44197599999998 58.310364,192.35869899999997 57.588865999999996,192.26770399999998 56.853705,192.321644 56.212959,192.37266599999998 55.568388999999996,192.43210899999997 54.921142,192.50414199999997 54.272369,192.59307299999998 53.623267,192.70334699999998 52.975138,192.839544 52.329549,193.00634 51.690687,193.207586 51.064420999999996,193.44250899999997 50.453056000000004,193.706856 49.855998,193.99711799999997 49.272416,194.309958 48.701428,194.64215099999998 48.142136,194.99057599999998 47.593655,195.35219299999997 47.055133999999995,195.72402699999998 46.525757999999996,196.103155 46.003939,196.487304 45.486721,196.876997 44.973493,197.27546299999997 44.466093,197.68488799999997 43.966735,198.107251 43.477689999999996,198.54456799999997 43.001304,198.99887999999999 42.540016,199.47222899999997 42.096375,199.966628 41.67354,200.48342799999998 41.277187,201.01868599999997 40.907416,201.56190199999998 40.558218,202.10509799999997 40.044742,202.92731199999997 44.648279,254.272317" stroke="#1f6fb2" stroke-width="0.1" /><text fill="#0a3d62" font-family="sans-serif" font-size="1.6" text-anchor="middle" x="57.567113" y="223.27001049999998">04</text><polygon fill="#cfe3f7" fill-opacity="0.5" points="76.089484,203.53960899999998 83.089484,207.94960899999998 90.089484,203.53960899999998 90.089484,192.26770399999998 76.089484,192.26770399999998 76.089484,203.53960899999998" stroke="#1f6fb2" stroke-width="0.1" /><text fill="#0a3d62" font-family="sans-serif" font-size="1.6" text-anchor="middle" x="83.089484" y="200.1086565">10</text><polygon fill="#cfe3f7" fill-opacity="0.5" points="4.0,267.521444 4.029841,267.82442399999996 4.132547,268.162999 4.299332,268.475032 4.523786,268.748531 4.7972850000000005,268.972985 5.109318,269.13977 5.4478930000000005,269.242476 5.750873,269.272317 27.249127,269.272317 27.552107,269.242476 27.890682,269.13977 28.202715,268.972985 28.476214,268.748531 28.700668,268.475032 28.867453,268.162999 28.970159,267.82442399999996 29.0,267.521444 29.0,257.02319 28.970159,256.72021 28.867453,256.38163499999996 28.700668,256.069602 28.476214,255.796103 28.202715,255.57164899999998 27.890682,255.40486399999998 27.552107,255.302158 27.249127,255.272317 5.750873,255.272317 5.4478930000000005,255.302158 5.109318,255.40486399999998 4.7972850000000005,255.57164899999998 4.523786,255.796103 4.299332,256.069602 4.132547,256.38163499999996 4.029841,256.72021 4.0,257.02319 4.0,267.521444" stroke="#1f6fb2" stroke-width="0.1" /><text fill="#0a3d62" font-family="sans-serif" font-size="1.6" text-anchor="middle" x="16.5" y="262.272317">05</text><polygon fill="#cfe3f7" fill-opacity="0.5" points="30.0,267.521444 30.029841,267.82442399999996 30.132547,268.162999 30.299332,268.475032 30.523786,268.748531 30.797285,268.972985 31.109318000000002,269.13977 31.447893,269.242476 31.750873,269.272317 53.249127,269.272317 53.552107,269.242476 53.890682,269.13977 54.202715,268.972985 54.476214,268.748531 54.700668,268.475032 54.867453,268.162999 54.970158999999995,267.82442399999996 55.0,267.521444 55.0,257.02319 54.970158999999995,256.72021 54.867453,256.38163499999996 54.700668,256.069602 54.476214,255.796103 54.202715,255.57164899999998 53.890682,255.40486399999998 53.552107,255.302158 53.249127,255.272317 31.750873,255.272317 31.447893,255.302158 31.109318000000002,255.40486399999998 30.797285,255.57164899999998 30.523786,255.796103 30.299332,256.069602 30.132547,256.38163499999996 30.029841,256.72021 30.0,257.02319 30.0,267.521444" stroke="#1f6fb2" stroke-width="0.1" /><text fill="#0a3d62" font-family="sans-serif" font-size="1.6" text-anchor="middle" x="42.5" y="262.272317">05</text><polygon fill="#cfe3f7" fill-opacity="0.5" points="95.109812,266.198381 95.10827,265.7107 95.12286,265.215717 95.152042,264.713866 95.194218,264.20561299999997 95.247736,263.691438 95.310889,263.17182199999996 95.381927,262.64723499999997 95.459058,262.118129 95.540457,261.584932 95.74864600000001,260.251203 82.845692,255.272317 82.20658399999999,255.706428 82.003755,255.842917 81.803425,255.975215 81.605097,256.102514 81.40829099999999,256.224064 81.21253300000001,256.339176 81.016683,256.447594 80.81873300000001,256.549868 80.617676,256.646507 80.4137,256.737418 80.207108,256.822456 79.998204,256.90148 79.787293,256.974357 79.574684,257.040958 79.36068399999999,257.101159 79.145601,257.15484499999997 78.929644,257.201926 78.712166,257.24251499999997 78.49201500000001,257.277102 78.26876200000001,257.306177 78.04241,257.330162 77.81299,257.34949 77.580557,257.364609 77.345178,257.37598299999996 77.106932,257.384095 76.865904,257.38944299999997 76.62218200000001,257.392547 76.375856,257.393939 76.12701200000001,257.39417399999996 75.874323,257.393817 75.874323,267.393818 95.157512,267.393818 95.109812,266.198381 56.638834,266.198381 56.640376,265.7107 56.625786000000005,265.215717 56.596604,264.713866 56.554428,264.20561299999997 56.500910000000005,263.691438 56.437757000000005,263.17182199999996 56.366719,262.64723499999997 56.289588,262.118129 56.208189000000004,261.584932 56.0,260.251203 68.902954,255.272317 69.542062,255.706428 69.744891,255.842917 69.945221,255.975215 70.14354900000001,256.102514 70.340355,256.224064 70.536113,256.339176 70.73196300000001,256.447594 70.929913,256.549868 71.13097,256.646507 71.334946,256.737418 71.541538,256.822456 71.75044199999999,256.90148 71.961353,256.974357 72.173962,257.040958 72.387962,257.101159 72.60304500000001,257.15484499999997 72.819002,257.201926 73.03648,257.24251499999997 73.256631,257.277102 73.479884,257.306177 73.706236,257.330162 73.935656,257.34949 74.16808900000001,257.364609 74.403468,257.37598299999996 74.64171400000001,257.384095 74.88274200000001,257.38944299999997 75.126464,257.392547 75.37279000000001,257.393939 75.621634,257.39417399999996 75.874323,257.393817 75.874323,267.393818 56.591134,267.393818 56.638834,266.198381" stroke="#1f6fb2" stroke-width="0.1" /><text fill="#0a3d62" font-family="sans-serif" font-size="1.6" text-anchor="middle" x="75.874323" y="261.33306749999997">03</text><polygon fill="#cfe3f7" fill-opacity="0.5" points="26.655368999999997,277.127294 27.146859,277.216591 27.638402,277.300794 28.129994999999997,277.379902 28.621636,277.453913 29.113321,277.522826 29.605047999999996,277.58664 30.096814,277.645353 30.588614999999997,277.698965 31.080448999999998,277.747474 31.572312999999998,277.79088 32.064203,277.829181 32.556116,277.862377 33.048049,277.890467 33.539998999999995,277.91345 34.031962,277.931327 34.523936,277.944096 35.015916,277.951758 35.507898999999995,277.95431099999996 35.999882,277.951758 36.491862,277.944096 36.983836,277.931327 37.475798999999995,277.91345 37.967749,277.890467 38.459682,277.862377 38.951595,277.829181 39.443484999999995,277.79088 39.935349,277.747474 40.427183,277.698965 40.918983999999995,277.645353 41.41075,277.58664 41.902477,277.522826 42.394161999999994,277.453913 42.885802999999996,277.379902 43.377396,277.300794 43.868939,277.216591 44.360428999999996,277.127294 44.644778,277.07268 46.6965,280.492217 47.751718,280.093234 45.938626,270.272317 44.46481,270.57069 43.993041,270.661302 43.521327,270.747005 43.049666,270.82780199999996 42.578055,270.903694 42.106492,270.97468299999997 41.634973,271.04077 41.163495999999995,271.101956 40.692057999999996,271.15824299999997 40.220655,271.209631 39.749285,271.256122 39.277945,271.297716 38.806630999999996,271.334415 38.33534,271.366219 37.864069,271.393129 37.392815,271.415146 36.921574,271.43226899999996 36.450344,271.4445 35.979119999999995,271.451838 35.507898999999995,271.45428499999997 35.036677999999995,271.451838 34.565454,271.4445 34.094224,271.43226899999996 33.622983,271.415146 33.151729,271.393129 32.680458,271.366219 32.209166999999994,271.334415 31.737852999999998,271.297716 31.266512999999996,271.256122 30.795143,271.209631 30.323739999999997,271.15824299999997 29.852301999999998,271.101956 29.380824999999998,271.04077 28.909305999999997,270.97468299999997 28.437742999999998,270.903694 27.966131999999998,270.82780199999996 27.494470999999997,270.747005 27.022757,270.661302 26.550987999999997,270.57069 25.875859,270.434011 25.875859,276.974585 26.163933999999998,277.03290599999997 26.655368999999997,277.127294 25.096349,277.127294 24.604858999999998,277.216591 24.113315999999998,277.300794 23.621723,277.379902 23.130081999999998,277.453913 22.638396999999998,277.522826 22.14667,277.58664 21.654904,277.645353 21.163103,277.698965 20.671269,277.747474 20.179405,277.79088 19.687514999999998,277.829181 19.195601999999997,277.862377 18.703668999999998,277.890467 18.211719,277.91345 17.719755999999997,277.931327 17.227781999999998,277.944096 16.735802,277.951758 16.243819,277.95431099999996 15.751835999999999,277.951758 15.259856,277.944096 14.767881999999998,277.931327 14.275918999999998,277.91345 13.783968999999999,277.890467 13.292035999999998,277.862377 12.800123,277.829181 12.308232999999998,277.79088 11.816368999999998,277.747474 11.324535,277.698965 10.832733999999999,277.645353 10.340967999999998,277.58664 9.849241,277.522826 9.357555999999999,277.453913 8.865914999999998,277.379902 8.374322,277.300794 7.882778999999999,277.216591 7.391288999999997,277.127294 7.106939999999998,277.07268 5.055218,280.492217 4.0,280.093234 5.8130919999999975,270.272317 7.286907999999997,270.57069 7.758676999999999,270.661302 8.230390999999997,270.747005 8.702051999999998,270.82780199999996 9.173662999999998,270.903694 9.645225999999997,270.97468299999997 10.116744999999998,271.04077 10.588221999999998,271.101956 11.05966,271.15824299999997 11.531062999999998,271.209631 12.002432999999998,271.256122 12.473772999999998,271.297716 12.945087,271.334415 13.416377999999998,271.366219 13.887648999999998,271.393129 14.358902999999998,271.415146 14.830143999999999,271.43226899999996 15.301374,271.4445 15.772597999999999,271.451838 16.243819,271.45428499999997 16.71504,271.451838 17.186263999999998,271.4445 17.657494,271.43226899999996 18.128735,271.415146 18.599988999999997,271.393129 19.07126,271.366219 19.542551,271.334415 20.013865,271.297716 20.485205,271.256122 20.956574999999997,271.209631 21.427978,271.15824299999997 21.899416,271.101956 22.370893,271.04077 22.842412,270.97468299999997 23.313975,270.903694 23.785586,270.82780199999996 24.257247,270.747005 24.728960999999998,270.661302 25.20073,270.57069 25.875859,270.434011 25.875859,276.974585 25.587784,277.03290599999997 25.096349,277.127294" stroke="#1f6fb2" stroke-width="0.1" /><text fill="#0a3d62" font-family="sans-serif" font-size="1.6" text-anchor="middle" x="25.875859" y="275.382267">07</text><polygon fill="#cfe3f7" fill-opacity="0.5" points="71.627903,275.574859 72.159438,275.645852 72.69099399999999,275.712791 73.22256999999999,275.775675 73.754166,275.834504 74.28577999999999,275.889278 74.81741099999999,275.939997 75.349058,275.986659 75.880719,276.029264 76.412393,276.067813 76.94407899999999,276.102305 77.475776,276.13274 78.007482,276.159117 78.539196,276.18143699999996 79.070916,276.199699 79.602642,276.21390199999996 80.134372,276.224048 80.66610399999999,276.23013499999996 81.19783799999999,276.232164 81.72957199999999,276.23013499999996 82.261304,276.224048 82.79303399999999,276.21390199999996 83.32476,276.199699 83.85648,276.18143699999996 84.388194,276.159117 84.9199,276.13274 85.45159699999999,276.102305 85.983283,276.067813 86.514957,276.029264 87.046618,275.986659 87.57826499999999,275.939997 88.10989599999999,275.889278 88.64151,275.834504 89.17310599999999,275.775675 89.70468199999999,275.712791 90.236238,275.645852 90.76777299999999,275.574859 91.299284,275.49981299999996 92.679878,275.29434499999996 92.679878,270.272317 91.01226799999999,270.52050099999997 90.495575,270.593455 89.978906,270.662462 89.46225799999999,270.72752299999996 88.94563,270.788639 88.429022,270.84581 87.912432,270.89903599999997 87.395859,270.948317 86.879302,270.993655 86.362759,271.03505 85.846229,271.072501 85.329711,271.106009 84.813204,271.13557399999996 84.296706,271.16119699999996 83.780216,271.18287699999996 83.263732,271.20061499999997 82.747254,271.214412 82.23078,271.224266 81.71430799999999,271.23017899999996 81.19783799999999,271.23215 80.68136799999999,271.23017899999996 80.164896,271.224266 79.648422,271.214412 79.131944,271.20061499999997 78.61546,271.18287699999996 78.09897,271.16119699999996 77.582472,271.13557399999996 77.06596499999999,271.106009 76.549447,271.072501 76.032917,271.03505 75.516374,270.993655 74.999817,270.948317 74.483244,270.89903599999997 73.96665399999999,270.84581 73.450046,270.788639 72.93341799999999,270.72752299999996 72.41677,270.662462 71.90010099999999,270.593455 71.383408,270.52050099999997 70.71579799999999,270.421143 70.71579799999999,275.443171 71.096392,275.49981299999996 71.627903,275.574859 69.803693,275.574859 69.27215799999999,275.645852 68.740602,275.712791 68.209026,275.775675 67.67742999999999,275.834504 67.145816,275.889278 66.61418499999999,275.939997 66.082538,275.986659 65.550877,276.029264 65.019203,276.067813 64.487517,276.102305 63.955819999999996,276.13274 63.424113999999996,276.159117 62.892399999999995,276.18143699999996 62.360679999999995,276.199699 61.828953999999996,276.21390199999996 61.297224,276.224048 60.765491999999995,276.23013499999996 60.233757999999995,276.232164 59.702023999999994,276.23013499999996 59.170291999999996,276.224048 58.63856199999999,276.21390199999996 58.106835999999994,276.199699 57.575115999999994,276.18143699999996 57.04340199999999,276.159117 56.51169599999999,276.13274 55.97999899999999,276.102305 55.448313,276.067813 54.916638999999996,276.029264 54.384978,275.986659 53.853331,275.939997 53.32169999999999,275.889278 52.790085999999995,275.834504 52.258489999999995,275.775675 51.726913999999994,275.712791 51.195358,275.645852 50.663822999999994,275.574859 50.132312,275.49981299999996 48.751718,275.29434499999996 48.751718,270.272317 50.41932799999999,270.52050099999997 50.936021,270.593455 51.45269,270.662462 51.96933799999999,270.72752299999996 52.485966,270.788639 53.002573999999996,270.84581 53.519163999999996,270.89903599999997 54.035737,270.948317 54.552293999999996,270.993655 55.068836999999995,271.03505 55.585367,271.072501 56.101884999999996,271.106009 56.618392,271.13557399999996 57.13489,271.16119699999996 57.651379999999996,271.18287699999996 58.167863999999994,271.20061499999997 58.684341999999994,271.214412 59.200815999999996,271.224266 59.717287999999996,271.23017899999996 60.233757999999995,271.23215 60.75022799999999,271.23017899999996 61.2667,271.224266 61.783173999999995,271.214412 62.299651999999995,271.20061499999997 62.816136,271.18287699999996 63.332626,271.16119699999996 63.849123999999996,271.13557399999996 64.365631,271.106009 64.882149,271.072501 65.39867899999999,271.03505 65.915222,270.993655 66.43177899999999,270.948317 66.948352,270.89903599999997 67.464942,270.84581 67.98155,270.788639 68.498178,270.72752299999996 69.014826,270.662462 69.53149499999999,270.593455 70.048188,270.52050099999997 70.71579799999999,270.421143 70.71579799999999,275.443171 70.335204,275.49981299999996 69.803693,275.574859" stroke="#1f6fb2" stroke-width="0.1" /><text fill="#0a3d62" font-family="sans-serif" font-size="1.6" text-anchor="middle" x="70.71579799999999" y="273.25224049999997">08</text><polygon fill="#cfe3f7" fill-opacity="0.5" points="93.679878,273.921444 93.702033,274.146387 93.781976,274.409925 93.911797,274.652803 94.086507,274.865688 94.299392,275.040398 94.54227,275.170219 94.805808,275.250162 95.03075100000001,275.272317 106.329005,275.272317 106.553948,275.250162 106.817486,275.170219 107.060364,275.040398 107.273249,274.865688 107.447959,274.652803 107.57778,274.409925 107.657723,274.146387 107.679878,273.921444 107.679878,271.62318999999997 107.657723,271.39824699999997 107.57778,271.134709 107.447959,270.89183099999997 107.273249,270.678946 107.060364,270.504236 106.817486,270.374415 106.553948,270.294472 106.329005,270.272317 95.03075100000001,270.272317 94.805808,270.294472 94.54227,270.374415 94.299392,270.504236 94.086507,270.678946 93.911797,270.89183099999997 93.781976,271.134709 93.702033,271.39824699999997 93.679878,271.62318999999997 93.679878,273.921444" stroke="#1f6fb2" stroke-width="0.1" /><text fill="#0a3d62" font-family="sans-serif" font-size="1.6" text-anchor="middle" x="100.679878" y="272.772317">06</text><polygon fill="#cfe3f7" fill-opacity="0.5" points="4.0,285.141344 4.022155,285.366287 4.102098,285.629825 4.2319189999999995,285.872703 4.406629,286.085588 4.619514,286.260298 4.862392,286.39011899999997 5.12593,286.470062 5.350873,286.492217 16.649127,286.492217 16.87407,286.470062 17.137608,286.39011899999997 17.380485999999998,286.260298 17.593370999999998,286.085588 17.768081000000002,285.872703 17.897902000000002,285.629825 17.977845000000002,285.366287 18.0,285.141344 18.0,282.84308999999996 17.977845000000002,282.61814699999996 17.897902000000002,282.354609 17.768081000000002,282.11173099999996 17.593370999999998,281.898846 17.380485999999998,281.724136 17.137608,281.594315 16.87407,281.514372 16.649127,281.492217 5.350873,281.492217 5.12593,281.514372 4.862392,281.594315 4.619514,281.724136 4.406629,281.898846 4.2319189999999995,282.11173099999996 4.102098,282.354609 4.022155,282.61814699999996 4.0,282.84308999999996 4.0,285.141344" stroke="#1f6fb2" stroke-width="0.1" /><text fill="#0a3d62" font-family="sans-serif" font-size="1.6" text-anchor="middle" x="11.0" y="283.992217">06</text></svg>