<?xml version="1.0" encoding="utf-8" ?>
<svg baseProfile="full" height="187.520671cm" version="1.1" viewBox="0 0 118.0 187.520671" width="118.0cm" xmlns="http://www.w3.org/2000/svg" xmlns:ev="http://www.w3.org/2001/xml-events" xmlns:xlink="http://www.w3.org/1999/xlink"><defs /><rect fill="#f7f3ea" height="179.520671" stroke="#333" stroke-width="0.15" width="110.0" x="4.0" y="4.0" /><text fill="#000" font-family="sans-serif" font-size="1.4" x="4.0" y="3.0">PLANO DE CORTE — ancho 110 cm — largo 1.80 m</text><polygon fill="#cfe3f7" fill-opacity="0.5" points="4.0,74.267704 12.00722,74.267704 11.601177,17.827772 15.824922,5.262131 13.300661,4.0 12.604548000000001,4.928368 12.408809,5.189983 12.212994,5.452847 12.017382000000001,5.717166 11.822256,5.98315 11.6279,6.251011999999999 11.434603,6.520965 11.242656,6.793221 11.052355,7.067997 10.863996,7.345508 10.677882,7.6259689999999996 10.494319,7.909597 10.313615,8.196606 10.136242,8.486951000000001 9.963303,8.779094 9.795078,9.070626 9.63075,9.360295 9.469275,9.647313 9.309653,9.930903 9.150927,10.210297 8.992184,10.484739000000001 8.832553,10.753489 8.671203,11.015827 8.507341,11.271062 8.340206,11.518545 8.169058,11.757678 7.993161000000001,11.987943000000001 7.810869,12.210004 7.619404,12.426846 7.41765,12.641195 7.206278,12.853889 6.986212,13.065588 6.7584420000000005,13.27698 6.524011,13.488792 6.322425,13.667704 4.0,13.667704 4.0,74.267704" stroke="#1f6fb2" stroke-width="0.1" /><text fill="#0a3d62" font-family="sans-serif" font-size="1.6" text-anchor="middle" x="9.912461" y="39.133852">09</text><polygon fill="#cfe3f7" fill-opacity="0.5" points="16.824922,74.267704 24.832142,74.267704 24.426099,17.827772 28.649844,5.262131 26.125583,4.0 25.429470000000002,4.928368 25.233731,5.189983 25.037916000000003,5.452847 24.842304000000002,5.717166 24.647178,5.98315 24.452822,6.251011999999999 24.259525,6.520965 24.067578,6.793221 23.877277,7.067997 23.688918,7.345508 23.502804,7.6259689999999996 23.319241,7.909597 23.138537,8.196606 22.961164,8.486951000000001 22.788225,8.779094 22.62,9.070626 22.455672,9.360295 22.294197,9.647313 22.134575,9.930903 21.975849,10.210297 21.817106000000003,10.484739000000001 21.657475,10.753489 21.496125,11.015827 21.332263,11.271062 21.165128000000003,11.518545 20.99398,11.757678 20.818083,11.987943000000001 20.635791,12.210004 20.444326,12.426846 20.242572000000003,12.641195 20.031200000000002,12.853889 19.811134000000003,13.065588 19.583364,13.27698 19.348933000000002,13.488792 19.147347,13.667704 16.824922,13.667704 16.824922,74.267704" stroke="#1f6fb2" stroke-width="0.1" /><text fill="#0a3d62" font-family="sans-serif" font-size="1.6" text-anchor="middle" x="22.737383" y="39.133852">09</text><polygon fill="#cfe3f7" fill-opacity="0.5" points="34.253381000000005,66.004613 60.082085,66.004613 64.694586,14.559622999999998 63.988243,13.774989999999999 63.567436,13.312847999999999 63.13796,12.851835999999999 62.697763,12.395239 62.247089,11.9474 61.788167,11.51006 61.321992,11.082705 60.849184,10.664458 60.370352000000004,10.254439 59.886091,9.851766999999999 59.396986,9.455561 58.903613,9.064943 58.406533,8.679036 57.905640000000005,8.296466 57.398901,7.915755 56.883821,7.538259 56.359262,7.1668959999999995 55.824247,6.804792 55.277744,6.4551289999999995 54.718687,6.121163 54.14599200000001,5.80625 53.558596,5.513857 52.955505,5.24759 52.337374000000004,5.011762 51.709293,4.809616 51.077002,4.638591 50.442750000000004,4.494111 49.808081,4.371542 49.174414,4.266382 48.543098,4.174272 47.915466,4.0909949999999995 47.193968,4.0 46.458807,4.05394 45.818061,4.104962 45.173491,4.164405 44.526244000000005,4.236438 43.877471,4.325369 43.228369,4.435643 42.58024,4.57184 41.934651,4.738636 41.295789,4.939882 40.669523,5.174805 40.058158000000006,5.439152 39.4611,5.729414 38.877518,6.042254 38.30653,6.374447 37.747238,6.722872 37.198757,7.084489 36.660236,7.456322999999999 36.13086,7.835451 35.609041000000005,8.2196 35.091823000000005,8.609293000000001 34.578595,9.007759 34.071195,9.417183999999999 33.571837,9.839547 33.082792,10.276864 32.606406,10.731176 32.145118000000004,11.204525 31.701477000000004,11.698924 31.278642,12.215724 30.882289000000004,12.750982 30.512518000000004,13.294198000000002 30.163320000000002,13.837394 29.649844,14.659607999999999 34.253381000000005,66.004613" stroke="#1f6fb2" stroke-width="0.1" /><text fill="#0a3d62" font-family="sans-serif" font-size="1.6" text-anchor="middle" x="47.172215" y="35.0023065">04</text><polygon fill="#cfe3f7" fill-opacity="0.5" points="70.298123,66.004613 96.12682699999999,66.004613 100.739328,14.559622999999998 100.032985,13.774989999999999 99.612178,13.312847999999999 99.182702,12.851835999999999 98.742505,12.395239 98.291831,11.9474 97.832909,11.51006 97.36673400000001,11.082705 96.893926,10.664458 96.41509400000001,10.254439 95.930833,9.851766999999999 95.441728,9.455561 94.94835499999999,9.064943 94.45127500000001,8.679036 93.950382,8.296466 93.44364300000001,7.915755 92.928563,7.538259 92.404004,7.1668959999999995 91.868989,6.804792 91.322486,6.4551289999999995 90.763429,6.121163 90.190734,5.80625 89.60333800000001,5.513857 89.000247,5.24759 88.382116,5.011762 87.754035,4.809616 87.121744,4.638591 86.487492,4.494111 85.852823,4.371542 85.219156,4.266382 84.58784,4.174272 83.960208,4.0909949999999995 83.23871,4.0 82.50354899999999,4.05394 81.862803,4.104962 81.218233,4.164405 80.570986,4.236438 79.922213,4.325369 79.273111,4.435643 78.624982,4.57184 77.979393,4.738636 77.340531,4.939882 76.714265,5.174805 76.1029,5.439152 75.505842,5.729414 74.92226,6.042254 74.351272,6.374447 73.79198,6.722872 73.243499,7.084489 72.704978,7.456322999999999 72.175602,7.835451 71.653783,8.2196 71.136565,8.609293000000001 70.623337,9.007759 70.115937,9.417183999999999 69.616579,9.839547 69.127534,10.276864 68.651148,10.731176 68.18986,11.204525 67.746219,11.698924 67.323384,12.215724 66.927031,12.750982 66.55726,13.294198000000002 66.208062,13.837394 65.694586,14.659607999999999 70.298123,66.004613" stroke="#1f6fb2" stroke-width="0.1" /><text fill="#0a3d62" font-family="sans-serif" font-size="1.6" text-anchor="middle" x="83.21695700000001" y="35.0023065">04</text><polygon fill="#cfe3f7" fill-opacity="0.5" points="4.0,84.90077099999999 4.0,113.300771 31.7,113.300771 31.7,98.12506499999999 31.100672,97.44004699999999 30.746677,97.036187 30.390684,96.63154 30.03155,96.22555299999999 29.668433,95.818023 29.300496,95.40875199999999 28.926906,94.99754899999999 28.546843,94.58424 28.160414,94.169615 27.771075,93.755787 27.384597,93.343741 27.005541,92.933005 26.638339,92.52317099999999 26.287416999999998,92.11405099999999 25.957145,91.705677 25.651775999999998,91.298313 25.375339999999998,90.892428 25.131521,90.488644 24.923496,90.087592 24.753785999999998,89.689627 24.623387,89.291992 24.5304,88.886629 24.471646,88.467219 24.445508,88.03229999999999 24.450623999999998,87.58161799999999 24.485547999999998,87.115551 24.54861,86.634926 24.63787,86.140841 24.751132,85.634519 24.885973,85.11721499999999 25.039794999999998,84.590154 25.209865,84.05449399999999 25.393345999999998,83.51131099999999 25.587334,82.96159 25.788868,82.40622499999999 26.320404,80.961321 13.274689,75.267704 12.604548000000001,76.161435 12.408809,76.42304999999999 12.212994,76.685914 12.017382000000001,76.950233 11.822256,77.216217 11.6279,77.484079 11.434603,77.754032 11.242656,78.026288 11.052355,78.301064 10.863996,78.578575 10.677882,78.85903599999999 10.494319,79.142664 10.313615,79.429673 10.136242,79.720018 9.963303,80.01216099999999 9.795078,80.303693 9.63075,80.593362 9.469275,80.88038 9.309653,81.16396999999999 9.150927,81.44336399999999 8.992184,81.717806 8.832553,81.986556 8.671203,82.24889399999999 8.507341,82.50412899999999 8.340206,82.751612 8.169058,82.99074499999999 7.993161000000001,83.22100999999999 7.810869,83.44307099999999 7.619404,83.65991299999999 7.41765,83.87426199999999 7.206278,84.086956 6.986212,84.298655 6.7584420000000005,84.510047 6.524011,84.721859 6.322425,84.90077099999999 4.0,84.90077099999999" stroke="#1f6fb2" stroke-width="0.1" /><text fill="#0a3d62" font-family="sans-serif" font-size="1.6" text-anchor="middle" x="17.85" y="94.28423749999999">01</text><polygon fill="#cfe3f7" fill-opacity="0.5" points="32.7,84.90077099999999 32.7,113.300771 60.400000000000006,113.300771 60.400000000000006,98.12506499999999 59.800672000000006,97.44004699999999 59.446677,97.036187 59.090684,96.63154 58.73155,96.22555299999999 58.368433,95.818023 58.000496,95.40875199999999 57.626906000000005,94.99754899999999 57.246843,94.58424 56.860414000000006,94.169615 56.471075,93.755787 56.084597,93.343741 55.705541000000004,92.933005 55.338339000000005,92.52317099999999 54.987417,92.11405099999999 54.657145,91.705677 54.351776,91.298313 54.07534,90.892428 53.831521,90.488644 53.623496,90.087592 53.453786,89.689627 53.323387000000004,89.291992 53.2304,88.886629 53.171646,88.467219 53.14550800000001,88.03229999999999 53.150624,87.58161799999999 53.185548,87.115551 53.24861,86.634926 53.33787,86.140841 53.451132,85.634519 53.585973,85.11721499999999 53.739795,84.590154 53.909865,84.05449399999999 54.093346,83.51131099999999 54.287334,82.96159 54.488868000000004,82.40622499999999 55.020404,80.961321 41.974689000000005,75.267704 41.304548000000004,76.161435 41.108809,76.42304999999999 40.912994000000005,76.685914 40.717382,76.950233 40.522256000000006,77.216217 40.3279,77.484079 40.134603000000006,77.754032 39.942656,78.026288 39.752355,78.301064 39.563996,78.578575 39.377882,78.85903599999999 39.19431900000001,79.142664 39.013615,79.429673 38.836242000000006,79.720018 38.663303,80.01216099999999 38.49507800000001,80.303693 38.33075,80.593362 38.169275,80.88038 38.009653,81.16396999999999 37.850927000000006,81.44336399999999 37.692184000000005,81.717806 37.53255300000001,81.986556 37.371203,82.24889399999999 37.207341,82.50412899999999 37.040206000000005,82.751612 36.869058,82.99074499999999 36.693161,83.22100999999999 36.510869,83.44307099999999 36.319404000000006,83.65991299999999 36.117650000000005,83.87426199999999 35.906278,84.086956 35.686212000000005,84.298655 35.458442000000005,84.510047 35.224011000000004,84.721859 35.022425000000005,84.90077099999999 32.7,84.90077099999999" stroke="#1f6fb2" stroke-width="0.1" /><text fill="#0a3d62" font-family="sans-serif" font-size="1.6" text-anchor="middle" x="46.550000000000004" y="94.28423749999999">01</text><polygon fill="#cfe3f7" fill-opacity="0.5" points="110.65633399999999,86.84411399999999 110.367847,86.408048 110.07936799999999,85.971184 109.79084499999999,85.533176 109.50222600000001,85.09367599999999 109.21346,84.65233799999999 108.924504,84.208831 108.635746,83.76344 108.348979,83.317216 108.066721,82.870756 107.79108199999999,82.42400799999999 107.52412899999999,81.97692599999999 107.26790299999999,81.52950899999999 107.02441300000001,81.081797 106.79562,80.633862 106.58342999999999,80.1858 106.389674,79.73771199999999 106.216095,79.28968599999999 106.06434200000001,78.84176 105.935945,78.39383199999999 105.83189300000001,77.94394399999999 105.751451,77.488163 105.69283300000001,77.024293 105.654642,76.552268 105.603386,75.267704 86.4,75.267704 86.4,103.06770399999999 111.4,103.06770399999999 111.4,87.966392 110.94488,87.279729 110.65633399999999,86.84411399999999 62.143665999999996,86.84411399999999 62.432153,86.408048 62.720631999999995,85.971184 63.009155,85.533176 63.297774,85.09367599999999 63.58654,84.65233799999999 63.875496,84.208831 64.164254,83.76344 64.451021,83.317216 64.733279,82.870756 65.008918,82.42400799999999 65.275871,81.97692599999999 65.532097,81.52950899999999 65.775587,81.081797 66.00438,80.633862 66.21656999999999,80.1858 66.410326,79.73771199999999 66.583905,79.28968599999999 66.735658,78.84176 66.864055,78.39383199999999 66.968107,77.94394399999999 67.048549,77.488163 67.107167,77.024293 67.145358,76.552268 67.196614,75.267704 86.4,75.267704 86.4,103.06770399999999 61.4,103.06770399999999 61.4,87.966392 61.85512,87.279729 62.143665999999996,86.84411399999999" stroke="#1f6fb2" stroke-width="0.1" /><text fill="#0a3d62" font-family="sans-serif" font-size="1.6" text-anchor="middle" x="86.4" y="89.16770399999999">02</text><polygon fill="#cfe3f7" fill-opacity="0.5" points="4.0,114.300771 4.0,132.300771 43.526023,132.300771 31.227887,114.300771 4.0,114.300771" stroke="#1f6fb2" stroke-width="0.1" /><text fill="#0a3d62" font-family="sans-serif" font-size="1.6" text-anchor="middle" x="23.7630115" y="123.300771">31</text><polygon fill="#cfe3f7" fill-opacity="0.5" points="44.526023,114.300771 44.526023,132.300771 84.052046,132.300771 71.75391,114.300771 44.526023,114.300771" stroke="#1f6fb2" stroke-width="0.1" /><text fill="#0a3d62" font-family="sans-serif" font-size="1.6" text-anchor="middle" x="64.2890345" y="123.300771">31</text><polygon fill="#cfe3f7" fill-opacity="0.5" points="40.826023,151.300771 77.652046,151.300771 65.35391,133.300771 40.826023,133.300771 40.826023,151.300771 40.826023,151.300771 4.0,151.300771 16.298136,133.300771 40.826023,133.300771 40.826023,151.300771" stroke="#1f6fb2" stroke-width="0.1" /><text fill="#0a3d62" font-family="sans-serif" font-size="1.6" text-anchor="middle" x="40.826023" y="142.300771">32</text><polygon fill="#cfe3f7" fill-opacity="0.5" points="78.652046,144.572676 85.652046,148.982676 92.652046,144.572676 92.652046,133.300771 78.652046,133.300771 78.652046,144.572676" stroke="#1f6fb2" stroke-width="0.1" /><text fill="#0a3d62" font-family="sans-serif" font-size="1.6" text-anchor="middle" x="85.652046" y="141.1417235">10</text><polygon fill="#cfe3f7" fill-opacity="0.5" points="4.0,164.54989799999998 4.029841,164.852878 4.132547,165.191453 4.299332,165.503486 4.523786,165.776985 4.7972850000000005,166.001439 5.109318,166.168224 5.4478930000000005,166.27093 5.750873,166.300771 27.249127,166.300771 27.552107,166.27093 27.890682,166.168224 28.202715,166.001439 28.476214,165.776985 28.700668,165.503486 28.867453,165.191453 28.970159,164.852878 29.0,164.54989799999998 29.0,154.051644 28.970159,153.748664 28.867453,153.410089 28.700668,153.09805599999999 28.476214,152.824557 28.202715,152.600103 27.890682,152.43331799999999 27.552107,152.330612 27.249127,152.300771 5.750873,152.300771 5.4478930000000005,152.330612 5.109318,152.43331799999999 4.7972850000000005,152.600103 4.523786,152.824557 4.299332,153.09805599999999 4.132547,153.410089 4.029841,153.748664 4.0,154.051644 4.0,164.54989799999998" stroke="#1f6fb2" stroke-width="0.1" /><text fill="#0a3d62" font-family="sans-serif" font-size="1.6" text-anchor="middle" x="16.5" y="159.300771">05</text><polygon fill="#cfe3f7" fill-opacity="0.5" points="30.0,164.54989799999998 30.029841,164.852878 30.132547,165.191453 30.299332,165.503486 30.523786,165.776985 30.797285,166.001439 31.109318000000002,166.168224 31.447893,166.27093 31.750873,166.300771 53.249127,166.300771 53.552107,166.27093 53.890682,166.168224 54.202715,166.001439 54.476214,165.776985 54.700668,165.503486 54.867453,165.191453 54.970158999999995,164.852878 55.0,164.54989799999998 55.0,154.051644 54.970158999999995,153.748664 54.867453,153.410089 54.700668,153.09805599999999 54.476214,152.824557 54.202715,152.600103 53.890682,152.43331799999999 53.552107,152.330612 53.249127,152.300771 31.750873,152.300771 31.447893,152.330612 31.109318000000002,152.43331799999999 30.797285,152.600103 30.523786,152.824557 30.299332,153.09805599999999 30.132547,153.410089 30.029841,153.748664 30.0,154.051644 30.0,164.54989799999998" stroke="#1f6fb2" stroke-width="0.1" /><text fill="#0a3d62" font-family="sans-serif" font-size="1.6" text-anchor="middle" x="42.5" y="159.300771">05</text><polygon fill="#cfe3f7" fill-opacity="0.5" points="95.109812,163.226835 95.10827,162.73915399999998 95.12286,162.244171 95.152042,161.74232 95.194218,161.234067 95.247736,160.719892 95.310889,160.200276 95.381927,159.675689 95.459058,159.146583 95.540457,158.613386 95.74864600000001,157.279657 82.845692,152.300771 82.20658399999999,152.734882 82.003755,152.871371 81.803425,153.003669 81.605097,153.130968 81.40829099999999,153.252518 81.21253300000001,153.36763 81.016683,153.476048 80.81873300000001,153.578322 80.617676,153.674961 80.4137,153.765872 80.207108,153.85091 79.998204,153.929934 79.787293,154.002811 79.574684,154.069412 79.36068399999999,154.129613 79.145601,154.183299 78.929644,154.23038 78.712166,154.270969 78.49201500000001,154.305556 78.26876200000001,154.334631 78.04241,154.35861599999998 77.81299,154.37794399999999 77.580557,154.39306299999998 77.345178,154.404437 77.106932,154.41254899999998 76.865904,154.417897 76.62218200000001,154.421001 76.375856,154.422393 76.12701200000001,154.422628 75.874323,154.422271 75.874323,164.422272 95.157512,164.422272 95.109812,163.226835 56.638834,163.226835 56.640376,162.73915399999998 56.625786000000005,162.244171 56.596604,161.74232 56.554428,161.234067 56.500910000000005,160.719892 56.437757000000005,160.200276 56.366719,159.675689 56.289588,159.146583 56.208189000000004,158.613386 56.0,157.279657 68.902954,152.300771 69.542062,152.734882 69.744891,152.871371 69.945221,153.003669 70.14354900000001,153.130968 70.340355,153.252518 70.536113,153.36763 70.73196300000001,153.476048 70.929913,153.578322 71.13097,153.674961 71.334946,153.765872 71.541538,153.85091 71.75044199999999,153.929934 71.961353,154.002811 72.173962,154.069412 72.387962,154.129613 72.60304500000001,154.183299 72.819002,154.23038 73.03648,154.270969 73.256631,154.305556 73.479884,154.334631 73.706236,154.35861599999998 73.935656,154.37794399999999 74.16808900000001,154.39306299999998 74.403468,154.404437 74.64171400000001,154.41254899999998 74.88274200000001,154.417897 75.126464,154.421001 75.37279000000001,154.422393 75.621634,154.422628 75.874323,154.422271 75.874323,164.422272 56.591134,164.422272 56.638834,163.226835" stroke="#1f6fb2" stroke-width="0.1" /><text fill="#0a3d62" font-family="sans-serif" font-size="1.6" text-anchor="middle" x="75.874323" y="158.3615215">03</text><polygon fill="#cfe3f7" fill-opacity="0.5" points="26.655368999999997,174.155748 27.146859,174.245045 27.638402,174.329248 28.129994999999997,174.408356 28.621636,174.482367 29.113321,174.55128 29.605047999999996,174.615094 30.096814,174.673807 30.588614999999997,174.727419 31.080448999999998,174.775928 31.572312999999998,174.819334 32.064203,174.857635 32.556116,174.890831 33.048049,174.918921 33.539998999999995,174.941904 34.031962,174.959781 34.523936,174.97255 35.015916,174.980212 35.507898999999995,174.982765 35.999882,174.980212 36.491862,174.97255 36.983836,174.959781 37.475798999999995,174.941904 37.967749,174.918921 38.459682,174.890831 38.951595,174.857635 39.443484999999995,174.819334 39.935349,174.775928 40.427183,174.727419 40.918983999999995,174.673807 41.41075,174.615094 41.902477,174.55128 42.394161999999994,174.482367 42.885802999999996,174.408356 43.377396,174.329248 43.868939,174.245045 44.360428999999996,174.155748 44.644778,174.101134 46.6965,177.520671 47.751718,177.121688 45.938626,167.300771 44.46481,167.599144 43.993041,167.689756 43.521327,167.77545899999998 43.049666,167.856256 42.578055,167.93214799999998 42.106492,168.003137 41.634973,168.069224 41.163495999999995,168.13040999999998 40.692057999999996,168.186697 40.220655,168.23808499999998 39.749285,168.284576 39.277945,168.32617 38.806630999999996,168.362869 38.33534,168.394673 37.864069,168.421583 37.392815,168.4436 36.921574,168.460723 36.450344,168.472954 35.979119999999995,168.480292 35.507898999999995,168.482739 35.036677999999995,168.480292 34.565454,168.472954 34.094224,168.460723 33.622983,168.4436 33.151729,168.421583 32.680458,168.394673 32.209166999999994,168.362869 31.737852999999998,168.32617 31.266512999999996,168.284576 30.795143,168.23808499999998 30.323739999999997,168.186697 29.852301999999998,168.13040999999998 29.380824999999998,168.069224 28.909305999999997,168.003137 28.437742999999998,167.93214799999998 27.966131999999998,167.856256 27.494470999999997,167.77545899999998 27.022757,167.689756 26.550987999999997,167.599144 25.875859,167.462465 25.875859,174.003039 26.163933999999998,174.06136 26.655368999999997,174.155748 25.096349,174.155748 24.604858999999998,174.245045 24.113315999999998,174.329248 23.621723,174.408356 23.130081999999998,174.482367 22.638396999999998,174.55128 22.14667,174.615094 21.654904,174.673807 21.163103,174.727419 20.671269,174.775928 20.179405,174.819334 19.687514999999998,174.857635 19.195601999999997,174.890831 18.703668999999998,174.918921 18.211719,174.941904 17.719755999999997,174.959781 17.227781999999998,174.97255 16.735802,174.980212 16.243819,174.982765 15.751835999999999,174.980212 15.259856,174.97255 14.767881999999998,174.959781 14.275918999999998,174.941904 13.783968999999999,174.918921 13.292035999999998,174.890831 12.800123,174.857635 12.308232999999998,174.819334 11.816368999999998,174.775928 11.324535,174.727419 10.832733999999999,174.673807 10.340967999999998,174.615094 9.849241,174.55128 9.357555999999999,174.482367 8.865914999999998,174.408356 8.374322,174.329248 7.882778999999999,174.245045 7.391288999999997,174.155748 7.106939999999998,174.101134 5.055218,177.520671 4.0,177.121688 5.8130919999999975,167.300771 7.286907999999997,167.599144 7.758676999999999,167.689756 8.230390999999997,167.77545899999998 8.702051999999998,167.856256 9.173662999999998,167.93214799999998 9.645225999999997,168.003137 10.116744999999998,168.069224 10.588221999999998,168.13040999999998 11.05966,168.186697 11.531062999999998,168.23808499999998 12.002432999999998,168.284576 12.473772999999998,168.32617 12.945087,168.362869 13.416377999999998,168.394673 13.887648999999998,168.421583 14.358902999999998,168.4436 14.830143999999999,168.460723 15.301374,168.472954 15.772597999999999,168.480292 16.243819,168.482739 16.71504,168.480292 17.186263999999998,168.472954 17.657494,168.460723 18.128735,168.4436 18.599988999999997,168.421583 19.07126,168.394673 19.542551,168.362869 20.013865,168.32617 20.485205,168.284576 20.956574999999997,168.23808499999998 21.427978,168.186697 21.899416,168.13040999999998 22.370893,168.069224 22.842412,168.003137 23.313975,167.93214799999998 23.785586,167.856256 24.257247,167.77545899999998 24.728960999999998,167.689756 25.20073,167.599144 25.875859,167.462465 25.875859,174.003039 25.587784,174.06136 25.096349,174.155748" stroke="#1f6fb2" stroke-width="0.1" /><text fill="#0a3d62" font-family="sans-serif" font-size="1.6" text-anchor="middle" x="25.875859" y="172.410721">07</text><polygon fill="#cfe3f7" fill-opacity="0.5" points="71.627903,172.60331299999999 72.159438,172.674306 72.69099399999999,172.741245 73.22256999999999,172.804129 73.754166,172.862958 74.28577999999999,172.917732 74.81741099999999,172.968451 75.349058,173.01511299999999 75.880719,173.057718 76.412393,173.096267 76.94407899999999,173.130759 77.475776,173.161194 78.007482,173.187571 78.539196,173.209891 79.070916,173.228153 79.602642,173.242356 80.134372,173.252502 80.66610399999999,173.258589 81.19783799999999,173.260618 81.72957199999999,173.258589 82.261304,173.252502 82.79303399999999,173.242356 83.32476,173.228153 83.85648,173.209891 84.388194,173.187571 84.9199,173.161194 85.45159699999999,173.130759 85.983283,173.096267 86.514957,173.057718 87.046618,173.01511299999999 87.57826499999999,172.968451 88.10989599999999,172.917732 88.64151,172.862958 89.17310599999999,172.804129 89.70468199999999,172.741245 90.236238,172.674306 90.76777299999999,172.60331299999999 91.299284,172.528267 92.679878,172.322799 92.679878,167.300771 91.01226799999999,167.548955 90.495575,167.621909 89.978906,167.690916 89.46225799999999,167.755977 88.94563,167.817093 88.429022,167.874264 87.912432,167.92749 87.395859,167.97677099999999 86.879302,168.022109 86.362759,168.063504 85.846229,168.100955 85.329711,168.134463 84.813204,168.164028 84.296706,168.189651 83.780216,168.211331 83.263732,168.229069 82.747254,168.242866 82.23078,168.25272 81.71430799999999,168.258633 81.19783799999999,168.260604 80.68136799999999,168.258633 80.164896,168.25272 79.648422,168.242866 79.131944,168.229069 78.61546,168.211331 78.09897,168.189651 77.582472,168.164028 77.06596499999999,168.134463 76.549447,168.100955 76.032917,168.063504 75.516374,168.022109 74.999817,167.97677099999999 74.483244,167.92749 73.96665399999999,167.874264 73.450046,167.817093 72.93341799999999,167.755977 72.41677,167.690916 71.90010099999999,167.621909 71.383408,167.548955 70.71579799999999,167.449597 70.71579799999999,172.471625 71.096392,172.528267 71.627903,172.60331299999999 69.803693,172.60331299999999 69.27215799999999,172.674306 68.740602,172.741245 68.209026,172.804129 67.67742999999999,172.862958 67.145816,172.917732 66.61418499999999,172.968451 66.082538,173.01511299999999 65.550877,173.057718 65.019203,173.096267 64.487517,173.130759 63.955819999999996,173.161194 63.424113999999996,173.187571 62.892399999999995,173.209891 62.360679999999995,173.228153 61.828953999999996,173.242356 61.297224,173.252502 60.765491999999995,173.258589 60.233757999999995,173.260618 59.702023999999994,173.258589 59.170291999999996,173.252502 58.63856199999999,173.242356 58.106835999999994,173.228153 57.575115999999994,173.209891 57.04340199999999,173.187571 56.51169599999999,173.161194 55.97999899999999,173.130759 55.448313,173.096267 54.916638999999996,173.057718 54.384978,173.01511299999999 53.853331,172.968451 53.32169999999999,172.917732 52.790085999999995,172.862958 52.258489999999995,172.804129 51.726913999999994,172.741245 51.195358,172.674306 50.663822999999994,172.60331299999999 50.132312,172.528267 48.751718,172.322799 48.751718,167.300771 50.41932799999999,167.548955 50.936021,167.621909 51.45269,167.690916 51.96933799999999,167.755977 52.485966,167.817093 53.002573999999996,167.874264 53.519163999999996,167.92749 54.035737,167.97677099999999 54.552293999999996,168.022109 55.068836999999995,168.063504 55.585367,168.100955 56.101884999999996,168.134463 56.618392,168.164028 57.13489,168.189651 57.651379999999996,168.211331 58.167863999999994,168.229069 58.684341999999994,168.242866 59.200815999999996,168.25272 59.717287999999996,168.258633 60.233757999999995,168.260604 60.75022799999999,168.258633 61.2667,168.25272 61.783173999999995,168.242866 62.299651999999995,168.229069 62.816136,168.211331 63.332626,168.189651 63.849123999999996,168.164028 64.365631,168.134463 64.882149,168.100955 65.39867899999999,168.063504 65.915222,168.022109 66.43177899999999,167.97677099999999 66.948352,167.92749 67.464942,167.874264 67.98155,167.817093 68.498178,167.755977 69.014826,167.690916 69.53149499999999,167.621909 70.048188,167.548955 70.71579799999999,167.449597 70.71579799999999,172.471625 70.335204,172.528267 69.803693,172.60331299999999" stroke="#1f6fb2" stroke-width="0.1" /><text fill="#0a3d62" font-family="sans-serif" font-size="1.6" text-anchor="middle" x="70.71579799999999" y="170.2806945">08</text><polygon fill="#cfe3f7" fill-opacity="0.5" points="93.679878,170.949898 93.702033,171.174841 93.781976,171.438379 93.911797,171.681257 94.086507,171.894142 94.299392,172.068852 94.54227,172.19867299999999 94.805808,172.278616 95.03075100000001,172.300771 106.329005,172.300771 106.553948,172.278616 106.817486,172.19867299999999 107.060364,172.068852 107.273249,171.894142 107.447959,171.681257 107.57778,171.438379 107.657723,171.174841 107.679878,170.949898 107.679878,168.651644 107.657723,168.426701 107.57778,168.163163 107.447959,167.920285 107.273249,167.7074 107.060364,167.53269 106.817486,167.402869 106.553948,167.322926 106.329005,167.300771 95.03075100000001,167.300771 94.805808,167.322926 94.54227,167.402869 94.299392,167.53269 94.086507,167.7074 93.911797,167.920285 93.781976,168.163163 93.702033,168.426701 93.679878,168.651644 93.679878,170.949898" stroke="#1f6fb2" stroke-width="0.1" /><text fill="#0a3d62" font-family="sans-serif" font-size="1.6" text-anchor="middle" x="100.679878" y="169.800771">06</text><polygon fill="#cfe3f7" fill-opacity="0.5" points="4.0,182.169798 4.022155,182.39474099999998 4.102098,182.658279 4.2319189999999995,182.90115699999998 4.406629,183.11404199999998 4.619514,183.288752 4.862392,183.41857299999998 5.12593,183.498516 5.350873,183.520671 16.649127,183.520671 16.87407,183.498516 17.137608,183.41857299999998 17.380485999999998,183.288752 17.593370999999998,183.11404199999998 17.768081000000002,182.90115699999998 17.897902000000002,182.658279 17.977845000000002,182.39474099999998 18.0,182.169798 18.0,179.871544 17.977845000000002,179.646601 17.897902000000002,179.383063 17.768081000000002,179.140185 17.593370999999998,178.9273 17.380485999999998,178.75259 17.137608,178.622769 16.87407,178.542826 16.649127,178.520671 5.350873,178.520671 5.12593,178.542826 4.862392,178.622769 4.619514,178.75259 4.406629,178.9273 4.2319189999999995,179.140185 4.102098,179.383063 4.022155,179.646601 4.0,179.871544 4.0,182.169798" stroke="#1f6fb2" stroke-width="0.1" /><text fill="#0a3d62" font-family="sans-serif" font-size="1.6" text-anchor="middle" x="11.0" y="181.020671">06</text></svg>