<?xml version="1.0" encoding="utf-8" ?>
<svg baseProfile="full" height="106.865712cm" version="1.1" viewBox="0 0 158.0 106.865712" width="158.0cm" xmlns="http://www.w3.org/2000/svg" xmlns:ev="http://www.w3.org/2001/xml-events" xmlns:xlink="http://www.w3.org/1999/xlink"><defs /><rect fill="#f7f3ea" height="98.865712" stroke="#333" stroke-width="0.15" width="150.0" x="4.0" y="4.0" /><text fill="#000" font-family="sans-serif" font-size="1.4" x="4.0" y="3.0">PLANO DE CORTE — ancho 150 cm — largo 0.99 m</text><polygon fill="#cfe3f7" fill-opacity="0.5" points="4.0,74.931099 31.7,74.931099 31.7,27.555393 31.100068,26.869685999999998 30.746677,26.466515 30.390684,26.061868 30.03155,25.655881 29.668433,25.248351 29.300496,24.83908 28.926906,24.427877 28.546843,24.014568 28.160414,23.599943 27.771075,23.186115 27.384597,22.774069 27.005541,22.363333 26.638339,21.953499 26.287416999999998,21.544379 25.957145,21.136005 25.651775999999998,20.728641 25.375339999999998,20.322756000000002 25.131521,19.918972 24.923496,19.51792 24.753785999999998,19.119954999999997 24.623387,18.72232 24.5304,18.316957000000002 24.471646,17.897547 24.445508,17.462628000000002 24.450623999999998,17.011946000000002 24.485547999999998,16.545879 24.54861,16.065254 24.63787,15.571169 24.751132,15.064847 24.885973,14.547543 25.039794999999998,14.020482 25.209865,13.484822 25.393345999999998,12.941639 25.587334,12.391918 25.788868,11.836552999999999 26.174112,10.789323 21.480735,4.0 20.093819,6.654343 19.470695,7.815965 18.836596,8.937567 18.184434,10.003730999999998 17.507876,10.999119 16.801433,11.90884 16.060368,12.719092 15.280134,13.418038 14.454979999999999,13.996608 13.571245000000001,14.450693 12.604883000000001,14.787023 11.548281,15.024132 10.412396000000001,15.178056999999999 9.212593,15.26674 7.964669000000001,15.310464 6.691894,15.331099 4.0,15.331099 4.0,74.931099" stroke="#1f6fb2" stroke-width="0.1" /><text fill="#0a3d62" font-family="sans-serif" font-size="1.6" text-anchor="middle" x="17.85" y="39.4655495">01</text><polygon fill="#cfe3f7" fill-opacity="0.5" points="32.7,74.931099 60.400000000000006,74.931099 60.400000000000006,27.555393 59.800068,26.869685999999998 59.446677,26.466515 59.090684,26.061868 58.73155,25.655881 58.368433,25.248351 58.000496,24.83908 57.626906000000005,24.427877 57.246843,24.014568 56.860414000000006,23.599943 56.471075,23.186115 56.084597,22.774069 55.705541000000004,22.363333 55.338339000000005,21.953499 54.987417,21.544379 54.657145,21.136005 54.351776,20.728641 54.07534,20.322756000000002 53.831521,19.918972 53.623496,19.51792 53.453786,19.119954999999997 53.323387000000004,18.72232 53.2304,18.316957000000002 53.171646,17.897547 53.14550800000001,17.462628000000002 53.150624,17.011946000000002 53.185548,16.545879 53.24861,16.065254 53.33787,15.571169 53.451132,15.064847 53.585973,14.547543 53.739795,14.020482 53.909865,13.484822 54.093346,12.941639 54.287334,12.391918 54.488868000000004,11.836552999999999 54.874112000000004,10.789323 50.180735,4.0 48.793819,6.654343 48.170695,7.815965 47.536596,8.937567 46.884434,10.003730999999998 46.207876,10.999119 45.501433000000006,11.90884 44.760368,12.719092 43.98013400000001,13.418038 43.15498,13.996608 42.27124500000001,14.450693 41.304883000000004,14.787023 40.248281000000006,15.024132 39.112396000000004,15.178056999999999 37.912593,15.26674 36.664669,15.310464 35.391894,15.331099 32.7,15.331099 32.7,74.931099" stroke="#1f6fb2" stroke-width="0.1" /><text fill="#0a3d62" font-family="sans-serif" font-size="1.6" text-anchor="middle" x="46.550000000000004" y="39.4655495">01</text><polygon fill="#cfe3f7" fill-opacity="0.5" points="61.4,74.267704 69.40722,74.267704 69.001177,17.827772 73.22492199999999,5.262131 70.700661,4.0 70.004548,4.928368 69.808809,5.189983 69.612994,5.452847 69.417382,5.717166 69.222256,5.98315 69.0279,6.251011999999999 68.834603,6.520965 68.642656,6.793221 68.452355,7.067997 68.26399599999999,7.345508 68.077882,7.6259689999999996 67.894319,7.909597 67.713615,8.196606 67.536242,8.486951000000001 67.363303,8.779094 67.195078,9.070626 67.03075,9.360295 66.869275,9.647313 66.709653,9.930903 66.550927,10.210297 66.392184,10.484739000000001 66.232553,10.753489 66.071203,11.015827 65.907341,11.271062 65.740206,11.518545 65.569058,11.757678 65.39316099999999,11.987943000000001 65.210869,12.210004 65.019404,12.426846 64.81765,12.641195 64.606278,12.853889 64.386212,13.065588 64.158442,13.27698 63.924011,13.488792 63.722425,13.667704 61.4,13.667704 61.4,74.267704" stroke="#1f6fb2" stroke-width="0.1" /><text fill="#0a3d62" font-family="sans-serif" font-size="1.6" text-anchor="middle" x="67.312461" y="39.133852">09</text><polygon fill="#cfe3f7" fill-opacity="0.5" points="74.22492199999999,74.267704 82.232142,74.267704 81.826099,17.827772 86.049844,5.262131 83.525583,4.0 82.82946999999999,4.928368 82.633731,5.189983 82.43791599999999,5.452847 82.24230399999999,5.717166 82.04717799999999,5.98315 81.85282199999999,6.251011999999999 81.65952499999999,6.520965 81.46757799999999,6.793221 81.277277,7.067997 81.08891799999999,7.345508 80.90280399999999,7.6259689999999996 80.719241,7.909597 80.53853699999999,8.196606 80.36116399999999,8.486951000000001 80.18822499999999,8.779094 80.02,9.070626 79.855672,9.360295 79.69419699999999,9.647313 79.53457499999999,9.930903 79.37584899999999,10.210297 79.21710599999999,10.484739000000001 79.057475,10.753489 78.896125,11.015827 78.73226299999999,11.271062 78.56512799999999,11.518545 78.39398,11.757678 78.218083,11.987943000000001 78.03579099999999,12.210004 77.844326,12.426846 77.64257199999999,12.641195 77.43119999999999,12.853889 77.21113399999999,13.065588 76.983364,13.27698 76.748933,13.488792 76.54734699999999,13.667704 74.22492199999999,13.667704 74.22492199999999,74.267704" stroke="#1f6fb2" stroke-width="0.1" /><text fill="#0a3d62" font-family="sans-serif" font-size="1.6" text-anchor="middle" x="80.137383" y="39.133852">09</text><polygon fill="#cfe3f7" fill-opacity="0.5" points="137.049844,16.698688 136.59472399999999,16.012025 136.306178,15.57641 136.01769099999999,15.140343999999999 135.729212,14.703479999999999 135.440689,14.265471999999999 135.15206999999998,13.825972 134.863304,13.384633999999998 134.574348,12.941127000000002 134.28558999999998,12.495736 133.998823,12.049512 133.716565,11.603052000000002 133.440926,11.156303999999999 133.173973,10.709222 132.917747,10.261805 132.674257,9.814093 132.445464,9.366158 132.233274,8.918096 132.039518,8.470008 131.865939,8.021982 131.71418599999998,7.574056000000001 131.58578899999998,7.126128 131.481737,6.67624 131.401295,6.220459 131.34267699999998,5.756589 131.304486,5.284564 131.25322999999997,4.0 112.049844,4.0 112.049844,64.0 137.049844,64.0 137.049844,16.698688 87.049844,16.698688 87.504964,16.012025 87.79351,15.57641 88.081997,15.140343999999999 88.370476,14.703479999999999 88.658999,14.265471999999999 88.94761799999999,13.825972 89.23638399999999,13.384633999999998 89.52534,12.941127000000002 89.814098,12.495736 90.100865,12.049512 90.383123,11.603052000000002 90.658762,11.156303999999999 90.925715,10.709222 91.181941,10.261805 91.42543099999999,9.814093 91.654224,9.366158 91.86641399999999,8.918096 92.06017,8.470008 92.23374899999999,8.021982 92.38550199999999,7.574056000000001 92.513899,7.126128 92.61795099999999,6.67624 92.698393,6.220459 92.75701099999999,5.756589 92.79520199999999,5.284564 92.846458,4.0 112.049844,4.0 112.049844,64.0 87.049844,64.0 87.049844,16.698688" stroke="#1f6fb2" stroke-width="0.1" /><text fill="#0a3d62" font-family="sans-serif" font-size="1.6" text-anchor="middle" x="112.049844" y="34.0">02</text><polygon fill="#cfe3f7" fill-opacity="0.5" points="38.338398999999995,85.706089 37.917592,85.243947 37.488116,84.78293500000001 37.047919,84.326338 36.597245,83.878499 36.138323,83.441159 35.672148,83.01380400000001 35.19934,82.595557 34.720508,82.18553800000001 34.236247,81.782866 33.747142,81.38666 33.253769,80.996042 32.756689,80.610135 32.255796000000004,80.227565 31.749057,79.84685400000001 31.233977,79.469358 30.709418,79.097995 30.174402999999998,78.73589100000001 29.6279,78.386228 29.068843,78.052262 28.496148,77.73734900000001 27.908752,77.444956 27.305661,77.178689 26.687530000000002,76.94286100000001 26.059449,76.74071500000001 25.427158,76.56969000000001 24.792906000000002,76.42521 24.158237,76.30264100000001 23.52457,76.197481 22.893254,76.105371 22.265622,76.02209400000001 21.544124,75.931099 20.808963,75.985039 20.168217,76.036061 19.523647,76.095504 18.8764,76.16753700000001 18.227627,76.256468 17.578525,76.366742 16.930396000000002,76.502939 16.284807,76.669735 15.645945000000001,76.870981 15.019679,77.10590400000001 14.408314,77.370251 13.811256,77.66051300000001 13.227674,77.973353 12.656686,78.305546 12.097394,78.653971 11.548913,79.01558800000001 11.010392,79.387422 10.481016,79.76655000000001 9.959197,80.150699 9.441979,80.540392 8.928751,80.93885800000001 8.421351,81.34828300000001 7.9219930000000005,81.770646 7.432948,82.207963 6.956562,82.66227500000001 6.495274,83.135624 6.051633000000001,83.63002300000001 5.628798,84.146823 5.232445000000002,84.68208100000001 4.862674000000002,85.22529700000001 4.513476000000001,85.768493 4.0,86.59070700000001 5.459199000000002,102.865712 37.576578999999995,102.865712 39.044742,86.490722 38.338398999999995,85.706089" stroke="#1f6fb2" stroke-width="0.1" /><text fill="#0a3d62" font-family="sans-serif" font-size="1.6" text-anchor="middle" x="21.522371" y="89.3984055">04</text><polygon fill="#cfe3f7" fill-opacity="0.5" points="74.383141,85.706089 73.962334,85.243947 73.532858,84.78293500000001 73.09266099999999,84.326338 72.641987,83.878499 72.183065,83.441159 71.71689,83.01380400000001 71.24408199999999,82.595557 70.76525000000001,82.18553800000001 70.280989,81.782866 69.791884,81.38666 69.29851099999999,80.996042 68.80143100000001,80.610135 68.300538,80.227565 67.793799,79.84685400000001 67.278719,79.469358 66.75416,79.097995 66.219145,78.73589100000001 65.672642,78.386228 65.113585,78.052262 64.54089,77.73734900000001 63.953494,77.444956 63.350403,77.178689 62.732272,76.94286100000001 62.104191,76.74071500000001 61.4719,76.56969000000001 60.837648,76.42521 60.202979,76.30264100000001 59.569312,76.197481 58.937996,76.105371 58.310364,76.02209400000001 57.588865999999996,75.931099 56.853705,75.985039 56.212959,76.036061 55.568388999999996,76.095504 54.921142,76.16753700000001 54.272369,76.256468 53.623267,76.366742 52.975138,76.502939 52.329549,76.669735 51.690687,76.870981 51.064420999999996,77.10590400000001 50.453056000000004,77.370251 49.855998,77.66051300000001 49.272416,77.973353 48.701428,78.305546 48.142136,78.653971 47.593655,79.01558800000001 47.055133999999995,79.387422 46.525757999999996,79.76655000000001 46.003939,80.150699 45.486721,80.540392 44.973493,80.93885800000001 44.466093,81.34828300000001 43.966735,81.770646 43.477689999999996,82.207963 43.001304,82.66227500000001 42.540016,83.135624 42.096375,83.63002300000001 41.67354,84.146823 41.277187,84.68208100000001 40.907416,85.22529700000001 40.558218,85.768493 40.044742,86.59070700000001 41.503941,102.865712 73.621321,102.865712 75.089484,86.490722 74.383141,85.706089" stroke="#1f6fb2" stroke-width="0.1" /><text fill="#0a3d62" font-family="sans-serif" font-size="1.6" text-anchor="middle" x="57.567113" y="89.3984055">04</text><polygon fill="#cfe3f7" fill-opacity="0.5" points="76.089484,87.203004 83.089484,91.613004 90.089484,87.203004 90.089484,75.931099 76.089484,75.931099 76.089484,87.203004" stroke="#1f6fb2" stroke-width="0.1" /><text fill="#0a3d62" font-family="sans-serif" font-size="1.6" text-anchor="middle" x="83.089484" y="83.7720515">10</text><polygon fill="#cfe3f7" fill-opacity="0.5" points="130.199296,86.857163 130.197754,86.369482 130.212344,85.874499 130.241526,85.372648 130.283702,84.864395 130.33722,84.35022000000001 130.400373,83.83060400000001 130.471411,83.306017 130.548542,82.776911 130.629941,82.243714 130.83813,80.909985 117.935176,75.931099 117.29606799999999,76.36521 117.093239,76.501699 116.892909,76.63399700000001 116.694581,76.761296 116.49777499999999,76.882846 116.302017,76.997958 116.106167,77.106376 115.90821700000001,77.20865 115.70716,77.305289 115.503184,77.39620000000001 115.296592,77.481238 115.087688,77.56026200000001 114.876777,77.633139 114.664168,77.69974 114.45016799999999,77.759941 114.235085,77.813627 114.019128,77.860708 113.80165,77.901297 113.58149900000001,77.935884 113.35824600000001,77.96495900000001 113.131894,77.988944 112.902474,78.008272 112.670041,78.023391 112.434662,78.03476500000001 112.196416,78.042877 111.955388,78.048225 111.71166600000001,78.05132900000001 111.46534,78.052721 111.216496,78.05295600000001 110.963807,78.052599 110.963807,88.0526 130.246996,88.0526 130.199296,86.857163 91.728318,86.857163 91.72986,86.369482 91.71527,85.874499 91.686088,85.372648 91.643912,84.864395 91.590394,84.35022000000001 91.527241,83.83060400000001 91.456203,83.306017 91.37907200000001,82.776911 91.297673,82.243714 91.089484,80.909985 103.99243799999999,75.931099 104.631546,76.36521 104.834375,76.501699 105.034705,76.63399700000001 105.233033,76.761296 105.429839,76.882846 105.625597,76.997958 105.821447,77.106376 106.019397,77.20865 106.220454,77.305289 106.42443,77.39620000000001 106.631022,77.481238 106.83992599999999,77.56026200000001 107.050837,77.633139 107.263446,77.69974 107.477446,77.759941 107.69252900000001,77.813627 107.908486,77.860708 108.125964,77.901297 108.346115,77.935884 108.569368,77.96495900000001 108.79572,77.988944 109.02514,78.008272 109.25757300000001,78.023391 109.492952,78.03476500000001 109.731198,78.042877 109.972226,78.048225 110.215948,78.05132900000001 110.46227400000001,78.052721 110.711118,78.05295600000001 110.963807,78.052599 110.963807,88.0526 91.680618,88.0526 91.728318,86.857163" stroke="#1f6fb2" stroke-width="0.1" /><text fill="#0a3d62" font-family="sans-serif" font-size="1.6" text-anchor="middle" x="110.963807" y="81.9918495">03</text></svg>