<?xml version="1.0" encoding="utf-8" ?>
<svg baseProfile="full" height="244.725284cm" version="1.1" viewBox="0 0 118.0 244.725284" width="118.0cm" xmlns="http://www.w3.org/2000/svg" xmlns:ev="http://www.w3.org/2001/xml-events" xmlns:xlink="http://www.w3.org/1999/xlink"><defs /><rect fill="#f7f3ea" height="236.725284" stroke="#333" stroke-width="0.15" width="110.0" x="4.0" y="4.0" /><text fill="#000" font-family="sans-serif" font-size="1.4" x="4.0" y="3.0">PLANO DE CORTE — ancho 110 cm — largo 2.37 m</text><polygon fill="#cfe3f7" fill-opacity="0.5" points="4.0,74.267704 12.00722,74.267704 11.601177,17.827772 15.824922,5.262131 13.300661,4.0 12.604548000000001,4.928368 12.408809,5.189983 12.212994,5.452847 12.017382000000001,5.717166 11.822256,5.98315 11.6279,6.251011999999999 11.434603,6.520965 11.242656,6.793221 11.052355,7.067997 10.863996,7.345508 10.677882,7.6259689999999996 10.494319,7.909597 10.313615,8.196606 10.136242,8.486951000000001 9.963303,8.779094 9.795078,9.070626 9.63075,9.360295 9.469275,9.647313 9.309653,9.930903 9.150927,10.210297 8.992184,10.484739000000001 8.832553,10.753489 8.671203,11.015827 8.507341,11.271062 8.340206,11.518545 8.169058,11.757678 7.993161000000001,11.987943000000001 7.810869,12.210004 7.619404,12.426846 7.41765,12.641195 7.206278,12.853889 6.986212,13.065588 6.7584420000000005,13.27698 6.524011,13.488792 6.322425,13.667704 4.0,13.667704 4.0,74.267704" stroke="#1f6fb2" stroke-width="0.1" /><text fill="#0a3d62" font-family="sans-serif" font-size="1.6" text-anchor="middle" x="9.912461" y="39.133852">09</text><polygon fill="#cfe3f7" fill-opacity="0.5" points="16.824922,74.267704 24.832142,74.267704 24.426099,17.827772 28.649844,5.262131 26.125583,4.0 25.429470000000002,4.928368 25.233731,5.189983 25.037916000000003,5.452847 24.842304000000002,5.717166 24.647178,5.98315 24.452822,6.251011999999999 24.259525,6.520965 24.067578,6.793221 23.877277,7.067997 23.688918,7.345508 23.502804,7.6259689999999996 23.319241,7.909597 23.138537,8.196606 22.961164,8.486951000000001 22.788225,8.779094 22.62,9.070626 22.455672,9.360295 22.294197,9.647313 22.134575,9.930903 21.975849,10.210297 21.817106000000003,10.484739000000001 21.657475,10.753489 21.496125,11.015827 21.332263,11.271062 21.165128000000003,11.518545 20.99398,11.757678 20.818083,11.987943000000001 20.635791,12.210004 20.444326,12.426846 20.242572000000003,12.641195 20.031200000000002,12.853889 19.811134000000003,13.065588 19.583364,13.27698 19.348933000000002,13.488792 19.147347,13.667704 16.824922,13.667704 16.824922,74.267704" stroke="#1f6fb2" stroke-width="0.1" /><text fill="#0a3d62" font-family="sans-serif" font-size="1.6" text-anchor="middle" x="22.737383" y="39.133852">09</text><polygon fill="#cfe3f7" fill-opacity="0.5" points="71.959486,74.233067 71.959486,26.857360999999997 71.359554,26.171653999999997 71.006163,25.768483 70.65017,25.363836 70.291036,24.957849 69.927919,24.550319 69.559982,24.141047999999998 69.186392,23.729844999999997 68.806329,23.316536 68.4199,22.901911 68.030561,22.488083 67.644083,22.076037 67.265027,21.665301 66.897825,21.255467 66.546903,20.846346999999998 66.216631,20.437973 65.911262,20.030609 65.634826,19.624724 65.391007,19.22094 65.18298200000001,18.819888 65.013272,18.421923 64.882873,18.024288 64.789886,17.618925 64.731132,17.199514999999998 64.704994,16.764596 64.71011,16.313914 64.745034,15.847847 64.808096,15.367222 64.897356,14.873137 65.010618,14.366815 65.145459,13.849511 65.29928100000001,13.32245 65.469351,12.78679 65.652832,12.243606999999999 65.84682000000001,11.693886 66.048354,11.138521 66.57989,9.693617 53.534175000000005,4.0 52.864034000000004,4.893731 52.668295,5.155346 52.472480000000004,5.41821 52.276868,5.682529 52.081742000000006,5.948513 51.88738600000001,6.216374999999999 51.694089000000005,6.486328 51.502142000000006,6.758584 51.311841,7.03336 51.123482,7.310871 50.937368000000006,7.5913319999999995 50.753805,7.87496 50.573101,8.161969 50.395728000000005,8.452314000000001 50.222789000000006,8.744457 50.054564,9.035989 49.890236,9.325658 49.728761000000006,9.612676 49.569139,9.896266 49.410413000000005,10.17566 49.251670000000004,10.450102000000001 49.092039,10.718852 48.930689,10.98119 48.766827000000006,11.236425 48.599692000000005,11.483908 48.428544,11.723041 48.252647,11.953306000000001 48.070355000000006,12.175367 47.87889,12.392209 47.677136000000004,12.606558 47.465764,12.819252 47.245698000000004,13.030951 47.017928,13.242343 46.783497,13.454155 46.543487,13.667169 46.073802,14.080321 29.649844,74.233067 71.959486,74.233067" stroke="#1f6fb2" stroke-width="0.1" /><text fill="#0a3d62" font-family="sans-serif" font-size="1.6" text-anchor="middle" x="50.804665" y="39.1165335">01</text><polygon fill="#cfe3f7" fill-opacity="0.5" points="46.309642,145.500771 46.309642,98.12506499999999 45.70971,97.439358 45.356319,97.036187 45.000326,96.63154 44.641192000000004,96.22555299999999 44.278075,95.818023 43.910138,95.40875199999999 43.536547999999996,94.99754899999999 43.156485,94.58424 42.770056,94.169615 42.380717000000004,93.755787 41.994239,93.343741 41.615183,92.933005 41.247980999999996,92.52317099999999 40.897059,92.11405099999999 40.566787000000005,91.705677 40.261418,91.298313 39.984982,90.892428 39.741163,90.488644 39.533138,90.087592 39.363428,89.689627 39.233029,89.291992 39.140042,88.886629 39.081288,88.467219 39.05515,88.03229999999999 39.060266,87.58161799999999 39.09519,87.115551 39.158252000000005,86.634926 39.247512,86.140841 39.360774,85.634519 39.495615,85.11721499999999 39.649437,84.590154 39.819507,84.05449399999999 40.002988,83.51131099999999 40.196976,82.96159 40.39851,82.40622499999999 40.930046000000004,80.961321 27.884331,75.267704 27.214190000000002,76.161435 27.018451,76.42304999999999 26.822636,76.685914 26.627024,76.950233 26.431898,77.216217 26.237542,77.484079 26.044245,77.754032 25.852298,78.026288 25.661997,78.301064 25.473638,78.578575 25.287524,78.85903599999999 25.103961,79.142664 24.923257,79.429673 24.745884,79.720018 24.572945,80.01216099999999 24.40472,80.303693 24.240392,80.593362 24.078917,80.88038 23.919294999999998,81.16396999999999 23.760569,81.44336399999999 23.601826,81.717806 23.442195,81.986556 23.280845,82.24889399999999 23.116983,82.50412899999999 22.949848,82.751612 22.7787,82.99074499999999 22.602803,83.22100999999999 22.420511,83.44307099999999 22.229046,83.65991299999999 22.027292,83.87426199999999 21.81592,84.086956 21.595854,84.298655 21.368084,84.510047 21.133653,84.721859 20.893643,84.934873 20.423958,85.34802499999999 4.0,145.500771 46.309642,145.500771" stroke="#1f6fb2" stroke-width="0.1" /><text fill="#0a3d62" font-family="sans-serif" font-size="1.6" text-anchor="middle" x="25.154821" y="110.3842375">01</text><polygon fill="#cfe3f7" fill-opacity="0.5" points="51.913179,137.272317 77.741883,137.272317 82.354384,85.827327 81.64804099999999,85.042694 81.227234,84.580552 80.79775799999999,84.11954 80.357561,83.662943 79.906887,83.215104 79.447965,82.77776399999999 78.98178999999999,82.350409 78.508982,81.93216199999999 78.03014999999999,81.522143 77.54588899999999,81.11947099999999 77.056784,80.723265 76.563411,80.332647 76.06633099999999,79.94673999999999 75.565438,79.56416999999999 75.05869899999999,79.183459 74.54361899999999,78.80596299999999 74.01906,78.43459999999999 73.484045,78.072496 72.937542,77.722833 72.378485,77.38886699999999 71.80579,77.073954 71.21839399999999,76.781561 70.615303,76.515294 69.997172,76.279466 69.369091,76.07732 68.73679999999999,75.906295 68.102548,75.761815 67.467879,75.639246 66.834212,75.53408599999999 66.202896,75.441976 65.575264,75.358699 64.853766,75.267704 64.118605,75.32164399999999 63.477858999999995,75.372666 62.83328899999999,75.432109 62.186042,75.504142 61.537268999999995,75.59307299999999 60.888166999999996,75.703347 60.240038,75.83954399999999 59.594449,76.00634 58.955586999999994,76.20758599999999 58.32932099999999,76.442509 57.717956,76.70685599999999 57.120898,76.997118 56.537316,77.309958 55.966328,77.642151 55.407036,77.99057599999999 54.858554999999996,78.352193 54.32003399999999,78.72402699999999 53.79065799999999,79.103155 53.268839,79.487304 52.751621,79.87699699999999 52.238392999999995,80.275463 51.730993,80.684888 51.231635,81.10725099999999 50.74258999999999,81.544568 50.266203999999995,81.99888 49.804916,82.472229 49.361275,82.966628 48.93844,83.48342799999999 48.542086999999995,84.018686 48.172315999999995,84.561902 47.823117999999994,85.105098 47.309642,85.927312 51.913179,137.272317" stroke="#1f6fb2" stroke-width="0.1" /><text fill="#0a3d62" font-family="sans-serif" font-size="1.6" text-anchor="middle" x="64.83201299999999" y="106.2700105">04</text><polygon fill="#cfe3f7" fill-opacity="0.5" points="8.603537000000001,208.505384 34.432241,208.505384 39.044742,157.06039399999997 38.338398999999995,156.275761 37.917592,155.813619 37.488116,155.35260699999998 37.047919,154.89601 36.597245,154.44817099999997 36.138323,154.010831 35.672148,153.583476 35.19934,153.16522899999998 34.720508,152.75520999999998 34.236247,152.35253799999998 33.747142,151.95633199999997 33.253769,151.56571399999999 32.756689,151.17980699999998 32.255796000000004,150.797237 31.749057,150.41652599999998 31.233977,150.03903 30.709418,149.667667 30.174402999999998,149.30556299999998 29.6279,148.95589999999999 29.068843,148.62193399999998 28.496148,148.307021 27.908752,148.014628 27.305661,147.748361 26.687530000000002,147.512533 26.059449,147.310387 25.427158,147.13936199999998 24.792906000000002,146.994882 24.158237,146.872313 23.52457,146.76715299999998 22.893254,146.675043 22.265622,146.59176599999998 21.544124,146.500771 20.808963,146.554711 20.168217,146.605733 19.523647,146.66517599999997 18.8764,146.73720899999998 18.227627,146.82613999999998 17.578525,146.93641399999998 16.930396000000002,147.072611 16.284807,147.239407 15.645945000000001,147.440653 15.019679,147.67557599999998 14.408314,147.939923 13.811256,148.23018499999998 13.227674,148.543025 12.656686,148.875218 12.097394,149.22364299999998 11.548913,149.58525999999998 11.010392,149.95709399999998 10.481016,150.336222 9.959197,150.720371 9.441979,151.110064 8.928751,151.50852999999998 8.421351,151.91795499999998 7.9219930000000005,152.340318 7.432948,152.77763499999998 6.956562,153.231947 6.495274,153.70529599999998 6.051633000000001,154.199695 5.628798,154.71649499999998 5.232445000000002,155.25175299999998 4.862674000000002,155.79496899999998 4.513476000000001,156.33816499999998 4.0,157.16037899999998 8.603537000000001,208.505384" stroke="#1f6fb2" stroke-width="0.1" /><text fill="#0a3d62" font-family="sans-serif" font-size="1.6" text-anchor="middle" x="21.522371" y="177.5030775">04</text><polygon fill="#cfe3f7" fill-opacity="0.5" points="90.044742,159.199459 89.58962199999999,158.51279599999998 89.301076,158.077181 89.01258899999999,157.64111499999999 88.72411,157.204251 88.435587,156.76624299999997 88.146968,156.326743 87.858202,155.885405 87.56924599999999,155.44189799999998 87.28048799999999,154.99650699999998 86.993721,154.55028299999998 86.711463,154.10382299999998 86.435824,153.657075 86.168871,153.209993 85.912645,152.762576 85.669155,152.314864 85.440362,151.866929 85.228172,151.41886699999998 85.034416,150.970779 84.860837,150.522753 84.709084,150.074827 84.580687,149.62689899999998 84.476635,149.177011 84.396193,148.72123 84.337575,148.25735999999998 84.299384,147.78533499999998 84.248128,146.500771 65.044742,146.500771 65.044742,206.500771 90.044742,206.500771 90.044742,159.199459 40.044742,159.199459 40.499862,158.51279599999998 40.788408000000004,158.077181 41.076895,157.64111499999999 41.365374,157.204251 41.653897,156.76624299999997 41.942516,156.326743 42.231282,155.885405 42.520238,155.44189799999998 42.808996,154.99650699999998 43.095763,154.55028299999998 43.378021000000004,154.10382299999998 43.65366,153.657075 43.920613,153.209993 44.176839,152.762576 44.420328999999995,152.314864 44.649122,151.866929 44.861312,151.41886699999998 45.055068,150.970779 45.228646999999995,150.522753 45.380399999999995,150.074827 45.508797,149.62689899999998 45.612849,149.177011 45.693291,148.72123 45.751909,148.25735999999998 45.790099999999995,147.78533499999998 45.841356000000005,146.500771 65.044742,146.500771 65.044742,206.500771 40.044742,206.500771 40.044742,159.199459" stroke="#1f6fb2" stroke-width="0.1" /><text fill="#0a3d62" font-family="sans-serif" font-size="1.6" text-anchor="middle" x="65.044742" y="176.500771">02</text><polygon fill="#cfe3f7" fill-opacity="0.5" points="91.044742,157.772676 98.044742,162.182676 105.044742,157.772676 105.044742,146.500771 91.044742,146.500771 91.044742,157.772676" stroke="#1f6fb2" stroke-width="0.1" /><text fill="#0a3d62" font-family="sans-serif" font-size="1.6" text-anchor="middle" x="98.044742" y="154.3417235">10</text><polygon fill="#cfe3f7" fill-opacity="0.5" points="4.0,221.75451099999998 4.029841,222.057491 4.132547,222.396066 4.299332,222.708099 4.523786,222.981598 4.7972850000000005,223.206052 5.109318,223.372837 5.4478930000000005,223.475543 5.750873,223.505384 27.249127,223.505384 27.552107,223.475543 27.890682,223.372837 28.202715,223.206052 28.476214,222.981598 28.700668,222.708099 28.867453,222.396066 28.970159,222.057491 29.0,221.75451099999998 29.0,211.256257 28.970159,210.95327699999999 28.867453,210.614702 28.700668,210.30266899999998 28.476214,210.02917 28.202715,209.80471599999998 27.890682,209.63793099999998 27.552107,209.535225 27.249127,209.505384 5.750873,209.505384 5.4478930000000005,209.535225 5.109318,209.63793099999998 4.7972850000000005,209.80471599999998 4.523786,210.02917 4.299332,210.30266899999998 4.132547,210.614702 4.029841,210.95327699999999 4.0,211.256257 4.0,221.75451099999998" stroke="#1f6fb2" stroke-width="0.1" /><text fill="#0a3d62" font-family="sans-serif" font-size="1.6" text-anchor="middle" x="16.5" y="216.505384">05</text><polygon fill="#cfe3f7" fill-opacity="0.5" points="30.0,221.75451099999998 30.029841,222.057491 30.132547,222.396066 30.299332,222.708099 30.523786,222.981598 30.797285,223.206052 31.109318000000002,223.372837 31.447893,223.475543 31.750873,223.505384 53.249127,223.505384 53.552107,223.475543 53.890682,223.372837 54.202715,223.206052 54.476214,222.981598 54.700668,222.708099 54.867453,222.396066 54.970158999999995,222.057491 55.0,221.75451099999998 55.0,211.256257 54.970158999999995,210.95327699999999 54.867453,210.614702 54.700668,210.30266899999998 54.476214,210.02917 54.202715,209.80471599999998 53.890682,209.63793099999998 53.552107,209.535225 53.249127,209.505384 31.750873,209.505384 31.447893,209.535225 31.109318000000002,209.63793099999998 30.797285,209.80471599999998 30.523786,210.02917 30.299332,210.30266899999998 30.132547,210.614702 30.029841,210.95327699999999 30.0,211.256257 30.0,221.75451099999998" stroke="#1f6fb2" stroke-width="0.1" /><text fill="#0a3d62" font-family="sans-serif" font-size="1.6" text-anchor="middle" x="42.5" y="216.505384">05</text><polygon fill="#cfe3f7" fill-opacity="0.5" points="95.109812,220.431448 95.10827,219.94376699999998 95.12286,219.448784 95.152042,218.946933 95.194218,218.43868 95.247736,217.92450499999998 95.310889,217.404889 95.381927,216.880302 95.459058,216.351196 95.540457,215.817999 95.74864600000001,214.48426999999998 82.845692,209.505384 82.20658399999999,209.939495 82.003755,210.075984 81.803425,210.208282 81.605097,210.335581 81.40829099999999,210.457131 81.21253300000001,210.572243 81.016683,210.680661 80.81873300000001,210.78293499999998 80.617676,210.879574 80.4137,210.970485 80.207108,211.055523 79.998204,211.134547 79.787293,211.207424 79.574684,211.274025 79.36068399999999,211.334226 79.145601,211.387912 78.929644,211.434993 78.712166,211.475582 78.49201500000001,211.510169 78.26876200000001,211.539244 78.04241,211.56322899999998 77.81299,211.58255699999998 77.580557,211.59767599999998 77.345178,211.60905 77.106932,211.61716199999998 76.865904,211.62251 76.62218200000001,211.62561399999998 76.375856,211.627006 76.12701200000001,211.627241 75.874323,211.626884 75.874323,221.626885 95.157512,221.626885 95.109812,220.431448 56.638834,220.431448 56.640376,219.94376699999998 56.625786000000005,219.448784 56.596604,218.946933 56.554428,218.43868 56.500910000000005,217.92450499999998 56.437757000000005,217.404889 56.366719,216.880302 56.289588,216.351196 56.208189000000004,215.817999 56.0,214.48426999999998 68.902954,209.505384 69.542062,209.939495 69.744891,210.075984 69.945221,210.208282 70.14354900000001,210.335581 70.340355,210.457131 70.536113,210.572243 70.73196300000001,210.680661 70.929913,210.78293499999998 71.13097,210.879574 71.334946,210.970485 71.541538,211.055523 71.75044199999999,211.134547 71.961353,211.207424 72.173962,211.274025 72.387962,211.334226 72.60304500000001,211.387912 72.819002,211.434993 73.03648,211.475582 73.256631,211.510169 73.479884,211.539244 73.706236,211.56322899999998 73.935656,211.58255699999998 74.16808900000001,211.59767599999998 74.403468,211.60905 74.64171400000001,211.61716199999998 74.88274200000001,211.62251 75.126464,211.62561399999998 75.37279000000001,211.627006 75.621634,211.627241 75.874323,211.626884 75.874323,221.626885 56.591134,221.626885 56.638834,220.431448" stroke="#1f6fb2" stroke-width="0.1" /><text fill="#0a3d62" font-family="sans-serif" font-size="1.6" text-anchor="middle" x="75.874323" y="215.5661345">03</text><polygon fill="#cfe3f7" fill-opacity="0.5" points="26.655368999999997,231.36036099999998 27.146859,231.449658 27.638402,231.533861 28.129994999999997,231.612969 28.621636,231.68698 29.113321,231.755893 29.605047999999996,231.819707 30.096814,231.87842 30.588614999999997,231.932032 31.080448999999998,231.980541 31.572312999999998,232.023947 32.064203,232.06224799999998 32.556116,232.095444 33.048049,232.123534 33.539998999999995,232.146517 34.031962,232.164394 34.523936,232.177163 35.015916,232.184825 35.507898999999995,232.187378 35.999882,232.184825 36.491862,232.177163 36.983836,232.164394 37.475798999999995,232.146517 37.967749,232.123534 38.459682,232.095444 38.951595,232.06224799999998 39.443484999999995,232.023947 39.935349,231.980541 40.427183,231.932032 40.918983999999995,231.87842 41.41075,231.819707 41.902477,231.755893 42.394161999999994,231.68698 42.885802999999996,231.612969 43.377396,231.533861 43.868939,231.449658 44.360428999999996,231.36036099999998 44.644778,231.305747 46.6965,234.725284 47.751718,234.326301 45.938626,224.505384 44.46481,224.803757 43.993041,224.89436899999998 43.521327,224.98007199999998 43.049666,225.060869 42.578055,225.13676099999998 42.106492,225.20775 41.634973,225.273837 41.163495999999995,225.33502299999998 40.692057999999996,225.39131 40.220655,225.44269799999998 39.749285,225.48918899999998 39.277945,225.53078299999999 38.806630999999996,225.56748199999998 38.33534,225.599286 37.864069,225.626196 37.392815,225.648213 36.921574,225.665336 36.450344,225.67756699999998 35.979119999999995,225.684905 35.507898999999995,225.687352 35.036677999999995,225.684905 34.565454,225.67756699999998 34.094224,225.665336 33.622983,225.648213 33.151729,225.626196 32.680458,225.599286 32.209166999999994,225.56748199999998 31.737852999999998,225.53078299999999 31.266512999999996,225.48918899999998 30.795143,225.44269799999998 30.323739999999997,225.39131 29.852301999999998,225.33502299999998 29.380824999999998,225.273837 28.909305999999997,225.20775 28.437742999999998,225.13676099999998 27.966131999999998,225.060869 27.494470999999997,224.98007199999998 27.022757,224.89436899999998 26.550987999999997,224.803757 25.875859,224.667078 25.875859,231.207652 26.163933999999998,231.265973 26.655368999999997,231.36036099999998 25.096349,231.36036099999998 24.604858999999998,231.449658 24.113315999999998,231.533861 23.621723,231.612969 23.130081999999998,231.68698 22.638396999999998,231.755893 22.14667,231.819707 21.654904,231.87842 21.163103,231.932032 20.671269,231.980541 20.179405,232.023947 19.687514999999998,232.06224799999998 19.195601999999997,232.095444 18.703668999999998,232.123534 18.211719,232.146517 17.719755999999997,232.164394 17.227781999999998,232.177163 16.735802,232.184825 16.243819,232.187378 15.751835999999999,232.184825 15.259856,232.177163 14.767881999999998,232.164394 14.275918999999998,232.146517 13.783968999999999,232.123534 13.292035999999998,232.095444 12.800123,232.06224799999998 12.308232999999998,232.023947 11.816368999999998,231.980541 11.324535,231.932032 10.832733999999999,231.87842 10.340967999999998,231.819707 9.849241,231.755893 9.357555999999999,231.68698 8.865914999999998,231.612969 8.374322,231.533861 7.882778999999999,231.449658 7.391288999999997,231.36036099999998 7.106939999999998,231.305747 5.055218,234.725284 4.0,234.326301 5.8130919999999975,224.505384 7.286907999999997,224.803757 7.758676999999999,224.89436899999998 8.230390999999997,224.98007199999998 8.702051999999998,225.060869 9.173662999999998,225.13676099999998 9.645225999999997,225.20775 10.116744999999998,225.273837 10.588221999999998,225.33502299999998 11.05966,225.39131 11.531062999999998,225.44269799999998 12.002432999999998,225.48918899999998 12.473772999999998,225.53078299999999 12.945087,225.56748199999998 13.416377999999998,225.599286 13.887648999999998,225.626196 14.358902999999998,225.648213 14.830143999999999,225.665336 15.301374,225.67756699999998 15.772597999999999,225.684905 16.243819,225.687352 16.71504,225.684905 17.186263999999998,225.67756699999998 17.657494,225.665336 18.128735,225.648213 18.599988999999997,225.626196 19.07126,225.599286 19.542551,225.56748199999998 20.013865,225.53078299999999 20.485205,225.48918899999998 20.956574999999997,225.44269799999998 21.427978,225.39131 21.899416,225.33502299999998 22.370893,225.273837 22.842412,225.20775 23.313975,225.13676099999998 23.785586,225.060869 24.257247,224.98007199999998 24.728960999999998,224.89436899999998 25.20073,224.803757 25.875859,224.667078 25.875859,231.207652 25.587784,231.265973 25.096349,231.36036099999998" stroke="#1f6fb2" stroke-width="0.1" /><text fill="#0a3d62" font-family="sans-serif" font-size="1.6" text-anchor="middle" x="25.875859" y="229.615334">07</text><polygon fill="#cfe3f7" fill-opacity="0.5" points="71.627903,229.80792599999998 72.159438,229.878919 72.69099399999999,229.945858 73.22256999999999,230.00874199999998 73.754166,230.067571 74.28577999999999,230.122345 74.81741099999999,230.17306399999998 75.349058,230.21972599999998 75.880719,230.262331 76.412393,230.30088 76.94407899999999,230.335372 77.475776,230.365807 78.007482,230.392184 78.539196,230.414504 79.070916,230.432766 79.602642,230.446969 80.134372,230.457115 80.66610399999999,230.463202 81.19783799999999,230.465231 81.72957199999999,230.463202 82.261304,230.457115 82.79303399999999,230.446969 83.32476,230.432766 83.85648,230.414504 84.388194,230.392184 84.9199,230.365807 85.45159699999999,230.335372 85.983283,230.30088 86.514957,230.262331 87.046618,230.21972599999998 87.57826499999999,230.17306399999998 88.10989599999999,230.122345 88.64151,230.067571 89.17310599999999,230.00874199999998 89.70468199999999,229.945858 90.236238,229.878919 90.76777299999999,229.80792599999998 91.299284,229.73288 92.679878,229.527412 92.679878,224.505384 91.01226799999999,224.753568 90.495575,224.82652199999998 89.978906,224.89552899999998 89.46225799999999,224.96059 88.94563,225.021706 88.429022,225.078877 87.912432,225.132103 87.395859,225.18138399999998 86.879302,225.226722 86.362759,225.268117 85.846229,225.305568 85.329711,225.339076 84.813204,225.368641 84.296706,225.394264 83.780216,225.415944 83.263732,225.433682 82.747254,225.447479 82.23078,225.457333 81.71430799999999,225.463246 81.19783799999999,225.465217 80.68136799999999,225.463246 80.164896,225.457333 79.648422,225.447479 79.131944,225.433682 78.61546,225.415944 78.09897,225.394264 77.582472,225.368641 77.06596499999999,225.339076 76.549447,225.305568 76.032917,225.268117 75.516374,225.226722 74.999817,225.18138399999998 74.483244,225.132103 73.96665399999999,225.078877 73.450046,225.021706 72.93341799999999,224.96059 72.41677,224.89552899999998 71.90010099999999,224.82652199999998 71.383408,224.753568 70.71579799999999,224.65421 70.71579799999999,229.67623799999998 71.096392,229.73288 71.627903,229.80792599999998 69.803693,229.80792599999998 69.27215799999999,229.878919 68.740602,229.945858 68.209026,230.00874199999998 67.67742999999999,230.067571 67.145816,230.122345 66.61418499999999,230.17306399999998 66.082538,230.21972599999998 65.550877,230.262331 65.019203,230.30088 64.487517,230.335372 63.955819999999996,230.365807 63.424113999999996,230.392184 62.892399999999995,230.414504 62.360679999999995,230.432766 61.828953999999996,230.446969 61.297224,230.457115 60.765491999999995,230.463202 60.233757999999995,230.465231 59.702023999999994,230.463202 59.170291999999996,230.457115 58.63856199999999,230.446969 58.106835999999994,230.432766 57.575115999999994,230.414504 57.04340199999999,230.392184 56.51169599999999,230.365807 55.97999899999999,230.335372 55.448313,230.30088 54.916638999999996,230.262331 54.384978,230.21972599999998 53.853331,230.17306399999998 53.32169999999999,230.122345 52.790085999999995,230.067571 52.258489999999995,230.00874199999998 51.726913999999994,229.945858 51.195358,229.878919 50.663822999999994,229.80792599999998 50.132312,229.73288 48.751718,229.527412 48.751718,224.505384 50.41932799999999,224.753568 50.936021,224.82652199999998 51.45269,224.89552899999998 51.96933799999999,224.96059 52.485966,225.021706 53.002573999999996,225.078877 53.519163999999996,225.132103 54.035737,225.18138399999998 54.552293999999996,225.226722 55.068836999999995,225.268117 55.585367,225.305568 56.101884999999996,225.339076 56.618392,225.368641 57.13489,225.394264 57.651379999999996,225.415944 58.167863999999994,225.433682 58.684341999999994,225.447479 59.200815999999996,225.457333 59.717287999999996,225.463246 60.233757999999995,225.465217 60.75022799999999,225.463246 61.2667,225.457333 61.783173999999995,225.447479 62.299651999999995,225.433682 62.816136,225.415944 63.332626,225.394264 63.849123999999996,225.368641 64.365631,225.339076 64.882149,225.305568 65.39867899999999,225.268117 65.915222,225.226722 66.43177899999999,225.18138399999998 66.948352,225.132103 67.464942,225.078877 67.98155,225.021706 68.498178,224.96059 69.014826,224.89552899999998 69.53149499999999,224.82652199999998 70.048188,224.753568 70.71579799999999,224.65421 70.71579799999999,229.67623799999998 70.335204,229.73288 69.803693,229.80792599999998" stroke="#1f6fb2" stroke-width="0.1" /><text fill="#0a3d62" font-family="sans-serif" font-size="1.6" text-anchor="middle" x="70.71579799999999" y="227.4853075">08</text><polygon fill="#cfe3f7" fill-opacity="0.5" points="93.679878,228.15451099999999 93.702033,228.37945399999998 93.781976,228.642992 93.911797,228.88586999999998 94.086507,229.09875499999998 94.299392,229.273465 94.54227,229.40328599999998 94.805808,229.483229 95.03075100000001,229.505384 106.329005,229.505384 106.553948,229.483229 106.817486,229.40328599999998 107.060364,229.273465 107.273249,229.09875499999998 107.447959,228.88586999999998 107.57778,228.642992 107.657723,228.37945399999998 107.679878,228.15451099999999 107.679878,225.856257 107.657723,225.631314 107.57778,225.367776 107.447959,225.124898 107.273249,224.912013 107.060364,224.737303 106.817486,224.607482 106.553948,224.527539 106.329005,224.505384 95.03075100000001,224.505384 94.805808,224.527539 94.54227,224.607482 94.299392,224.737303 94.086507,224.912013 93.911797,225.124898 93.781976,225.367776 93.702033,225.631314 93.679878,225.856257 93.679878,228.15451099999999" stroke="#1f6fb2" stroke-width="0.1" /><text fill="#0a3d62" font-family="sans-serif" font-size="1.6" text-anchor="middle" x="100.679878" y="227.005384">06</text><polygon fill="#cfe3f7" fill-opacity="0.5" points="4.0,239.37441099999998 4.022155,239.59935399999998 4.102098,239.862892 4.2319189999999995,240.10576999999998 4.406629,240.31865499999998 4.619514,240.49336499999998 4.862392,240.62318599999998 5.12593,240.703129 5.350873,240.725284 16.649127,240.725284 16.87407,240.703129 17.137608,240.62318599999998 17.380485999999998,240.49336499999998 17.593370999999998,240.31865499999998 17.768081000000002,240.10576999999998 17.897902000000002,239.862892 17.977845000000002,239.59935399999998 18.0,239.37441099999998 18.0,237.076157 17.977845000000002,236.851214 17.897902000000002,236.587676 17.768081000000002,236.344798 17.593370999999998,236.131913 17.380485999999998,235.957203 17.137608,235.827382 16.87407,235.74743899999999 16.649127,235.725284 5.350873,235.725284 5.12593,235.74743899999999 4.862392,235.827382 4.619514,235.957203 4.406629,236.131913 4.2319189999999995,236.344798 4.102098,236.587676 4.022155,236.851214 4.0,237.076157 4.0,239.37441099999998" stroke="#1f6fb2" stroke-width="0.1" /><text fill="#0a3d62" font-family="sans-serif" font-size="1.6" text-anchor="middle" x="11.0" y="238.225284">06</text></svg>