<?xml version="1.0" encoding="utf-8" ?>
<svg baseProfile="full" height="163.231231cm" version="1.1" viewBox="0 0 158.0 163.231231" width="158.0cm" xmlns="http://www.w3.org/2000/svg" xmlns:ev="http://www.w3.org/2001/xml-events" xmlns:xlink="http://www.w3.org/1999/xlink"><defs /><rect fill="#f7f3ea" height="155.231231" stroke="#333" stroke-width="0.15" width="150.0" x="4.0" y="4.0" /><text fill="#000" font-family="sans-serif" font-size="1.4" x="4.0" y="3.0">PLANO DE CORTE — ancho 150 cm — largo 1.55 m</text><polygon fill="#cfe3f7" fill-opacity="0.5" points="4.0,74.267704 12.00722,74.267704 11.601177,17.827772 15.824922,5.262131 13.300661,4.0 12.604548000000001,4.928368 12.408809,5.189983 12.212994,5.452847 12.017382000000001,5.717166 11.822256,5.98315 11.6279,6.251011999999999 11.434603,6.520965 11.242656,6.793221 11.052355,7.067997 10.863996,7.345508 10.677882,7.6259689999999996 10.494319,7.909597 10.313615,8.196606 10.136242,8.486951000000001 9.963303,8.779094 9.795078,9.070626 9.63075,9.360295 9.469275,9.647313 9.309653,9.930903 9.150927,10.210297 8.992184,10.484739000000001 8.832553,10.753489 8.671203,11.015827 8.507341,11.271062 8.340206,11.518545 8.169058,11.757678 7.993161000000001,11.987943000000001 7.810869,12.210004 7.619404,12.426846 7.41765,12.641195 7.206278,12.853889 6.986212,13.065588 6.7584420000000005,13.27698 6.524011,13.488792 6.322425,13.667704 4.0,13.667704 4.0,74.267704" stroke="#1f6fb2" stroke-width="0.1" /><text fill="#0a3d62" font-family="sans-serif" font-size="1.6" text-anchor="middle" x="9.912461" y="39.133852">09</text><polygon fill="#cfe3f7" fill-opacity="0.5" points="16.824922,74.267704 24.832142,74.267704 24.426099,17.827772 28.649844,5.262131 26.125583,4.0 25.429470000000002,4.928368 25.233731,5.189983 25.037916000000003,5.452847 24.842304000000002,5.717166 24.647178,5.98315 24.452822,6.251011999999999 24.259525,6.520965 24.067578,6.793221 23.877277,7.067997 23.688918,7.345508 23.502804,7.6259689999999996 23.319241,7.909597 23.138537,8.196606 22.961164,8.486951000000001 22.788225,8.779094 22.62,9.070626 22.455672,9.360295 22.294197,9.647313 22.134575,9.930903 21.975849,10.210297 21.817106000000003,10.484739000000001 21.657475,10.753489 21.496125,11.015827 21.332263,11.271062 21.165128000000003,11.518545 20.99398,11.757678 20.818083,11.987943000000001 20.635791,12.210004 20.444326,12.426846 20.242572000000003,12.641195 20.031200000000002,12.853889 19.811134000000003,13.065588 19.583364,13.27698 19.348933000000002,13.488792 19.147347,13.667704 16.824922,13.667704 16.824922,74.267704" stroke="#1f6fb2" stroke-width="0.1" /><text fill="#0a3d62" font-family="sans-serif" font-size="1.6" text-anchor="middle" x="22.737383" y="39.133852">09</text><polygon fill="#cfe3f7" fill-opacity="0.5" points="29.649844,74.192015 60.433844,74.192015 60.433844,26.783736 59.753274000000005,26.089206 59.357505,25.686064000000002 58.958867,25.281492 58.556741,24.87561 58.150186000000005,24.468217000000003 57.738268000000005,24.059116000000003 57.320054,23.648116 56.894628,23.235045000000003 56.462057,22.82064 56.026063,22.406873 55.593012,21.994641 55.168031,21.583481000000003 54.756143,21.173028000000002 54.362397,20.763166000000002 53.991820000000004,20.354048 53.649338,19.946126999999997 53.339669,19.540160999999998 53.067138,19.137186 52.835456,18.738381 52.647444,18.344735999999997 52.503871000000004,17.953837999999998 52.401912,17.556984999999997 52.337536,17.146682 52.308858,16.720627999999998 52.314486,16.278014 52.353015,15.818928999999999 52.422789,15.344123 52.521808,14.854749 52.647726000000006,14.352157 52.797903000000005,13.837748999999999 52.969463000000005,13.312895 53.159357,12.778875 53.364412,12.236867 53.581367,11.687932 53.806900999999996,11.133019 54.426003,9.630396 39.977042,4.0 39.29724,4.809477 39.078032,5.071071 38.858748000000006,5.333899000000001 38.639701,5.598172 38.421204,5.864102 38.203573000000006,6.131906 37.987128,6.4017990000000005 37.772189,6.674003 37.559081,6.94874 37.348134,7.226231 37.139679,7.506703 36.934053,7.790379 36.731596,8.077486 36.532833000000004,8.367985000000001 36.339017,8.660314 36.150499,8.952012 35.966382,9.24179 35.785507,9.528844 35.606758,9.81239 35.42906,10.091667 35.251378,10.365939000000001 35.072720000000004,10.634495 34.892128,10.896659 34.708673000000005,11.151796000000001 34.521448,11.399323 34.329553000000004,11.638718 34.132069,11.869542000000001 33.927083,12.092495 33.711543,12.310447 33.484358,12.525954 33.246394,12.739752 32.998783,12.952427 32.742714,13.16462 32.479417,13.377025 32.210148000000004,13.590402 32.208094,13.592015 29.649844,13.592015 29.649844,74.192015" stroke="#1f6fb2" stroke-width="0.1" /><text fill="#0a3d62" font-family="sans-serif" font-size="1.6" text-anchor="middle" x="45.041844" y="39.0960075">01</text><polygon fill="#cfe3f7" fill-opacity="0.5" points="61.433844,74.192015 92.217844,74.192015 92.217844,26.783736 91.537274,26.089206 91.141505,25.686064000000002 90.742867,25.281492 90.34074100000001,24.87561 89.934186,24.468217000000003 89.522268,24.059116000000003 89.104054,23.648116 88.678628,23.235045000000003 88.24605700000001,22.82064 87.810063,22.406873 87.37701200000001,21.994641 86.952031,21.583481000000003 86.540143,21.173028000000002 86.14639700000001,20.763166000000002 85.77582,20.354048 85.43333799999999,19.946126999999997 85.123669,19.540160999999998 84.85113799999999,19.137186 84.619456,18.738381 84.431444,18.344735999999997 84.287871,17.953837999999998 84.185912,17.556984999999997 84.12153599999999,17.146682 84.092858,16.720627999999998 84.09848600000001,16.278014 84.137015,15.818928999999999 84.206789,15.344123 84.305808,14.854749 84.431726,14.352157 84.581903,13.837748999999999 84.753463,13.312895 84.94335699999999,12.778875 85.14841200000001,12.236867 85.36536699999999,11.687932 85.590901,11.133019 86.210003,9.630396 71.761042,4.0 71.08124000000001,4.809477 70.862032,5.071071 70.642748,5.333899000000001 70.423701,5.598172 70.205204,5.864102 69.987573,6.131906 69.771128,6.4017990000000005 69.556189,6.674003 69.343081,6.94874 69.13213400000001,7.226231 68.923679,7.506703 68.718053,7.790379 68.515596,8.077486 68.316833,8.367985000000001 68.123017,8.660314 67.934499,8.952012 67.750382,9.24179 67.569507,9.528844 67.390758,9.81239 67.21306,10.091667 67.035378,10.365939000000001 66.85672,10.634495 66.676128,10.896659 66.492673,11.151796000000001 66.305448,11.399323 66.113553,11.638718 65.916069,11.869542000000001 65.711083,12.092495 65.495543,12.310447 65.268358,12.525954 65.030394,12.739752 64.782783,12.952427 64.526714,13.16462 64.263417,13.377025 63.994148,13.590402 63.992094,13.592015 61.433844,13.592015 61.433844,74.192015" stroke="#1f6fb2" stroke-width="0.1" /><text fill="#0a3d62" font-family="sans-serif" font-size="1.6" text-anchor="middle" x="76.825844" y="39.0960075">01</text><polygon fill="#cfe3f7" fill-opacity="0.5" points="98.376233,66.00368 127.065455,66.00368 132.23440399999998,14.529330999999999 131.431716,13.733208999999999 130.960733,13.271381 130.4803,12.810925 129.98816,12.355144 129.4845,11.908277 128.971675,11.47193 128.45074599999998,11.045547 127.922379,10.628229000000001 127.38722899999999,10.219084 126.845939,9.817215000000001 126.299143,9.421734 125.747466,9.031753 125.19152199999999,8.64639 124.63125600000001,8.26432 124.064656,7.884246 123.489176,7.507671 122.903636,7.137551 122.30703700000001,6.777029 121.698345,6.429303 121.076508,6.097636 120.44048000000001,5.785368 119.789244,5.495929 119.121857,5.232846 118.438889,5.0001999999999995 117.745017,4.800806 117.045623,4.631899 116.34289,4.488971 115.638403,4.367495 114.933667,4.263072 114.230155,4.171426 113.529347,4.088403 112.744293,4.0 111.944132,4.0524189999999995 111.2286,4.103292 110.510192,4.162446 109.790195,4.23399 109.069884,4.322148 108.350551,4.431259 107.633552,4.565786 106.920436,4.730288 106.215121,4.928663 105.522994,5.160474 104.846124,5.421787 104.183948,5.709215 103.535689,6.019492 102.900517,6.349434 102.277574,6.695932 101.66600199999999,7.055944 101.064956,7.426485 100.473618,7.804614 99.890375,8.187977 99.312302,8.576855 98.738981,8.974286 98.172449,9.382446 97.615104,9.803346000000001 97.06939,10.239054 96.537817,10.69168 96.02298400000001,11.163371 95.527608,11.656276 95.05508499999999,12.171928 94.611664,12.706589 94.197611,13.249685999999999 93.806459,13.792952999999999 93.217844,14.634499 98.376233,66.00368" stroke="#1f6fb2" stroke-width="0.1" /><text fill="#0a3d62" font-family="sans-serif" font-size="1.6" text-anchor="middle" x="112.726124" y="35.00184">04</text><polygon fill="#cfe3f7" fill-opacity="0.5" points="9.158389,137.271384 37.847611,137.271384 43.01656,85.797035 42.213871999999995,85.000913 41.742889000000005,84.539085 41.262456,84.07862899999999 40.770316,83.62284799999999 40.266656,83.175981 39.753831000000005,82.739634 39.232901999999996,82.313251 38.704535,81.895933 38.169385,81.48678799999999 37.628095,81.084919 37.081299,80.689438 36.529622,80.29945699999999 35.973678,79.91409399999999 35.413412,79.53202399999999 34.846812,79.15195 34.271332,78.775375 33.685792,78.405255 33.089193,78.044733 32.480501000000004,77.697007 31.858664,77.36533999999999 31.222636,77.053072 30.5714,76.763633 29.904013,76.50054999999999 29.221045,76.267904 28.527173,76.06850999999999 27.827779,75.899603 27.125046,75.756675 26.420559,75.635199 25.715823,75.53077599999999 25.012311,75.43912999999999 24.311503000000002,75.356107 23.526449,75.267704 22.726288,75.320123 22.010756,75.37099599999999 21.292348,75.43015 20.572351,75.501694 19.852040000000002,75.589852 19.132707,75.69896299999999 18.415708000000002,75.83349 17.702592,75.997992 16.997277,76.196367 16.30515,76.42817799999999 15.62828,76.68949099999999 14.966104,76.976919 14.317845,77.287196 13.682673,77.617138 13.05973,77.963636 12.448158,78.32364799999999 11.847112000000001,78.694189 11.255774,79.072318 10.672531,79.455681 10.094458,79.84455899999999 9.521137,80.24199 8.954605,80.65015 8.39726,81.07105 7.851546000000001,81.50675799999999 7.319973000000001,81.959384 6.8051400000000015,82.43107499999999 6.309764000000001,82.92398 5.837240999999999,83.43963199999999 5.393820000000002,83.97429299999999 4.979766999999999,84.51738999999999 4.588615000000001,85.06065699999999 4.0,85.902203 9.158389,137.271384" stroke="#1f6fb2" stroke-width="0.1" /><text fill="#0a3d62" font-family="sans-serif" font-size="1.6" text-anchor="middle" x="23.50828" y="106.269544">04</text><polygon fill="#cfe3f7" fill-opacity="0.5" points="99.77655999999999,87.93710399999999 99.256211,87.236142 98.93304,86.80052699999999 98.609935,86.364462 98.286839,85.92759899999999 97.963695,85.489594 97.640445,85.05009799999999 97.31703,84.608763 96.993404,84.165263 96.670005,83.71988499999999 96.348846,83.27368999999999 96.032764,82.82729699999999 95.724139,82.38067899999999 95.425309,81.93383299999999 95.138588,81.486809 94.86625699999999,81.039717 94.610542,80.59271299999999 94.373602,80.145995 94.15750399999999,79.699784 93.964196,79.254295 93.795496,78.809697 93.653048,78.365996 93.537809,77.92112399999999 93.448771,77.470689 93.383864,77.01208899999999 93.341544,76.545068 93.284459,75.267704 71.89656,75.267704 71.89656,135.26770399999998 99.77655999999999,135.26770399999998 99.77655999999999,87.93710399999999 44.01656,87.93710399999999 44.536908999999994,87.236142 44.860079999999996,86.80052699999999 45.183184999999995,86.364462 45.506281,85.92759899999999 45.829425,85.489594 46.152675,85.05009799999999 46.47609,84.608763 46.799716,84.165263 47.123115,83.71988499999999 47.44427399999999,83.27368999999999 47.760356,82.82729699999999 48.068980999999994,82.38067899999999 48.367810999999996,81.93383299999999 48.654531999999996,81.486809 48.926863,81.039717 49.18257799999999,80.59271299999999 49.419518,80.145995 49.635616,79.699784 49.828924,79.254295 49.997624,78.809697 50.140071999999996,78.365996 50.255311,77.92112399999999 50.344348999999994,77.470689 50.409256,77.01208899999999 50.451575999999996,76.545068 50.508661,75.267704 71.89656,75.267704 71.89656,135.26770399999998 44.01656,135.26770399999998 44.01656,87.93710399999999" stroke="#1f6fb2" stroke-width="0.1" /><text fill="#0a3d62" font-family="sans-serif" font-size="1.6" text-anchor="middle" x="71.89656" y="105.267704">02</text><polygon fill="#cfe3f7" fill-opacity="0.5" points="100.77655999999999,86.539609 107.77655999999999,90.949609 114.77655999999999,86.539609 114.77655999999999,75.267704 100.77655999999999,75.267704 100.77655999999999,86.539609" stroke="#1f6fb2" stroke-width="0.1" /><text fill="#0a3d62" font-family="sans-serif" font-size="1.6" text-anchor="middle" x="107.77655999999999" y="83.1086565">10</text><polygon fill="#cfe3f7" fill-opacity="0.5" points="115.77655999999999,87.516831 115.806401,87.81981099999999 115.90910699999999,88.158386 116.075892,88.47041899999999 116.30034599999999,88.743918 116.57384499999999,88.96837199999999 116.88587799999999,89.13515699999999 117.22445299999998,89.23786299999999 117.52743299999999,89.267704 139.025687,89.267704 139.328667,89.23786299999999 139.667242,89.13515699999999 139.979275,88.96837199999999 140.252774,88.743918 140.477228,88.47041899999999 140.644013,88.158386 140.74671899999998,87.81981099999999 140.77656,87.516831 140.77656,77.018577 140.74671899999998,76.71559699999999 140.644013,76.377022 140.477228,76.064989 140.252774,75.79149 139.979275,75.567036 139.667242,75.400251 139.328667,75.297545 139.025687,75.267704 117.52743299999999,75.267704 117.22445299999998,75.297545 116.88587799999999,75.400251 116.57384499999999,75.567036 116.30034599999999,75.79149 116.075892,76.064989 115.90910699999999,76.377022 115.806401,76.71559699999999 115.77655999999999,77.018577 115.77655999999999,87.516831" stroke="#1f6fb2" stroke-width="0.1" /><text fill="#0a3d62" font-family="sans-serif" font-size="1.6" text-anchor="middle" x="128.27656" y="82.267704">05</text><polygon fill="#cfe3f7" fill-opacity="0.5" points="4.0,150.520511 4.029841,150.82349100000002 4.132547,151.162066 4.299332,151.47409900000002 4.523786,151.747598 4.7972850000000005,151.97205200000002 5.109318,152.13883700000002 5.4478930000000005,152.241543 5.750873,152.271384 27.249127,152.271384 27.552107,152.241543 27.890682,152.13883700000002 28.202715,151.97205200000002 28.476214,151.747598 28.700668,151.47409900000002 28.867453,151.162066 28.970159,150.82349100000002 29.0,150.520511 29.0,140.02225700000002 28.970159,139.719277 28.867453,139.380702 28.700668,139.068669 28.476214,138.79517 28.202715,138.570716 27.890682,138.403931 27.552107,138.30122500000002 27.249127,138.271384 5.750873,138.271384 5.4478930000000005,138.30122500000002 5.109318,138.403931 4.7972850000000005,138.570716 4.523786,138.79517 4.299332,139.068669 4.132547,139.380702 4.029841,139.719277 4.0,140.02225700000002 4.0,150.520511" stroke="#1f6fb2" stroke-width="0.1" /><text fill="#0a3d62" font-family="sans-serif" font-size="1.6" text-anchor="middle" x="16.5" y="145.271384">05</text><polygon fill="#cfe3f7" fill-opacity="0.5" points="73.568973,149.17157300000002 73.567261,148.68805 73.58348,148.196728 73.615959,147.698033 73.662949,147.19244300000003 73.722633,146.68046 73.793127,146.16259100000002 73.872488,145.639331 73.95872299999999,145.11115500000002 74.049795,144.57850900000003 74.290468,143.201876 59.979625,138.271384 59.347877999999994,138.65452000000002 59.119977,138.791449 58.894356,138.924484 58.670412,139.05282400000002 58.447548999999995,139.17572 58.225156999999996,139.292481 58.001987,139.40278800000002 57.776022999999995,139.50702700000002 57.546332,139.6056 57.313142,139.698396 57.076796,139.785258 56.837633,139.866035 56.595997999999994,139.940583 56.352232,140.00876200000002 56.106682,140.07043800000002 55.859691,140.125482 55.611517,140.17379000000003 55.361644999999996,140.215428 55.109085,140.250856 54.853496,140.28057600000002 54.594916999999995,140.30504000000002 54.333411,140.32471 54.069053999999994,140.34006300000001 53.801931999999994,140.35158900000002 53.532138,140.35979 53.25977,140.36518700000002 52.984924,140.368311 52.7077,140.36971100000002 52.428191999999996,140.369946 52.145234,140.36958900000002 52.145234,150.36959000000002 73.622512,150.36959000000002 73.568973,149.17157300000002 30.721494999999997,149.17157300000002 30.723207,148.68805 30.706988,148.196728 30.674508999999997,147.698033 30.627519,147.19244300000003 30.567835,146.68046 30.497341,146.16259100000002 30.41798,145.639331 30.331744999999998,145.11115500000002 30.240672999999997,144.57850900000003 30.0,143.201876 44.310843,138.271384 44.942589999999996,138.65452000000002 45.170491,138.791449 45.396112,138.924484 45.620056,139.05282400000002 45.842918999999995,139.17572 46.065310999999994,139.292481 46.288481,139.40278800000002 46.514444999999995,139.50702700000002 46.744136,139.6056 46.977326,139.698396 47.213672,139.785258 47.452835,139.866035 47.694469999999995,139.940583 47.938236,140.00876200000002 48.183786,140.07043800000002 48.430777,140.125482 48.678951,140.17379000000003 48.928822999999994,140.215428 49.181383,140.250856 49.436972,140.28057600000002 49.695550999999995,140.30504000000002 49.957057,140.32471 50.221413999999996,140.34006300000001 50.488535999999996,140.35158900000002 50.75833,140.35979 51.030698,140.36518700000002 51.305544,140.368311 51.582768,140.36971100000002 51.862275999999994,140.369946 52.145234,140.36958900000002 52.145234,150.36959000000002 30.667956,150.36959000000002 30.721494999999997,149.17157300000002" stroke="#1f6fb2" stroke-width="0.1" /><text fill="#0a3d62" font-family="sans-serif" font-size="1.6" text-anchor="middle" x="52.145234" y="144.320487">03</text><polygon fill="#cfe3f7" fill-opacity="0.5" points="97.945837,145.126361 98.43732700000001,145.21565800000002 98.92887,145.29986100000002 99.420463,145.378969 99.912104,145.45298000000003 100.403789,145.521893 100.895516,145.585707 101.387282,145.64442000000003 101.87908300000001,145.698032 102.370917,145.746541 102.862781,145.789947 103.354671,145.828248 103.84658400000001,145.861444 104.338517,145.88953400000003 104.830467,145.912517 105.32243,145.930394 105.814404,145.94316300000003 106.30638400000001,145.950825 106.798367,145.95337800000001 107.29035,145.950825 107.78233,145.94316300000003 108.274304,145.930394 108.766267,145.912517 109.258217,145.88953400000003 109.75015,145.861444 110.242063,145.828248 110.733953,145.789947 111.225817,145.746541 111.717651,145.698032 112.209452,145.64442000000003 112.70121800000001,145.585707 113.19294500000001,145.521893 113.68463,145.45298000000003 114.176271,145.378969 114.66786400000001,145.29986100000002 115.159407,145.21565800000002 115.650897,145.126361 115.935246,145.07174700000002 117.986968,148.491284 119.042186,148.09230100000002 117.229094,138.271384 115.755278,138.569757 115.28350900000001,138.660369 114.811795,138.746072 114.340134,138.82686900000002 113.86852300000001,138.902761 113.39696,138.97375000000002 112.925441,139.039837 112.453964,139.101023 111.98252600000001,139.15731000000002 111.511123,139.208698 111.039753,139.255189 110.568413,139.296783 110.097099,139.333482 109.625808,139.36528600000003 109.154537,139.392196 108.683283,139.41421300000002 108.212042,139.43133600000002 107.740812,139.443567 107.269588,139.450905 106.798367,139.45335200000002 106.327146,139.450905 105.855922,139.443567 105.384692,139.43133600000002 104.91345100000001,139.41421300000002 104.44219700000001,139.392196 103.970926,139.36528600000003 103.499635,139.333482 103.028321,139.296783 102.55698100000001,139.255189 102.085611,139.208698 101.614208,139.15731000000002 101.14277,139.101023 100.671293,139.039837 100.199774,138.97375000000002 99.728211,138.902761 99.2566,138.82686900000002 98.78493900000001,138.746072 98.313225,138.660369 97.841456,138.569757 97.166327,138.43307800000002 97.166327,144.97365200000002 97.454402,145.03197300000002 97.945837,145.126361 96.38681700000001,145.126361 95.89532700000001,145.21565800000002 95.403784,145.29986100000002 94.912191,145.378969 94.42055,145.45298000000003 93.928865,145.521893 93.437138,145.585707 92.945372,145.64442000000003 92.45357100000001,145.698032 91.961737,145.746541 91.469873,145.789947 90.977983,145.828248 90.48607,145.861444 89.994137,145.88953400000003 89.502187,145.912517 89.01022400000001,145.930394 88.51825,145.94316300000003 88.02627,145.950825 87.534287,145.95337800000001 87.042304,145.950825 86.550324,145.94316300000003 86.05835,145.930394 85.566387,145.912517 85.074437,145.88953400000003 84.582504,145.861444 84.090591,145.828248 83.598701,145.789947 83.106837,145.746541 82.615003,145.698032 82.123202,145.64442000000003 81.63143600000001,145.585707 81.13970900000001,145.521893 80.648024,145.45298000000003 80.156383,145.378969 79.66479000000001,145.29986100000002 79.173247,145.21565800000002 78.681757,145.126361 78.397408,145.07174700000002 76.345686,148.491284 75.290468,148.09230100000002 77.10356,138.271384 78.577376,138.569757 79.04914500000001,138.660369 79.520859,138.746072 79.99252,138.82686900000002 80.46413100000001,138.902761 80.935694,138.97375000000002 81.407213,139.039837 81.87869,139.101023 82.350128,139.15731000000002 82.82153100000001,139.208698 83.292901,139.255189 83.764241,139.296783 84.235555,139.333482 84.706846,139.36528600000003 85.178117,139.392196 85.649371,139.41421300000002 86.12061200000001,139.43133600000002 86.591842,139.443567 87.063066,139.450905 87.534287,139.45335200000002 88.005508,139.450905 88.476732,139.443567 88.947962,139.43133600000002 89.41920300000001,139.41421300000002 89.890457,139.392196 90.361728,139.36528600000003 90.83301900000001,139.333482 91.304333,139.296783 91.77567300000001,139.255189 92.247043,139.208698 92.718446,139.15731000000002 93.189884,139.101023 93.661361,139.039837 94.13288,138.97375000000002 94.604443,138.902761 95.076054,138.82686900000002 95.54771500000001,138.746072 96.019429,138.660369 96.491198,138.569757 97.166327,138.43307800000002 97.166327,144.97365200000002 96.878252,145.03197300000002 96.38681700000001,145.126361" stroke="#1f6fb2" stroke-width="0.1" /><text fill="#0a3d62" font-family="sans-serif" font-size="1.6" text-anchor="middle" x="97.166327" y="143.381334">07</text><polygon fill="#cfe3f7" fill-opacity="0.5" points="26.876185,158.573926 27.407719999999998,158.64491900000002 27.939276,158.711858 28.470852,158.774742 29.002448,158.833571 29.534062,158.88834500000002 30.065693,158.939064 30.59734,158.985726 31.129001,159.028331 31.660674999999998,159.06688000000003 32.192361,159.10137200000003 32.724058,159.131807 33.255764,159.158184 33.787478,159.180504 34.319198,159.198766 34.850924,159.21296900000002 35.382654,159.223115 35.914386,159.22920200000002 36.44612,159.231231 36.977854,159.22920200000002 37.509586,159.223115 38.041315999999995,159.21296900000002 38.573042,159.198766 39.104762,159.180504 39.636476,159.158184 40.168182,159.131807 40.699878999999996,159.10137200000003 41.231565,159.06688000000003 41.763239,159.028331 42.2949,158.985726 42.826547,158.939064 43.358177999999995,158.88834500000002 43.889792,158.833571 44.421388,158.774742 44.952963999999994,158.711858 45.48452,158.64491900000002 46.016054999999994,158.573926 46.547566,158.49888 47.92816,158.29341200000002 47.92816,153.271384 46.260549999999995,153.51956800000002 45.743857,153.592522 45.227188,153.661529 44.710539999999995,153.72659000000002 44.193912,153.78770600000001 43.677304,153.84487700000003 43.160714,153.89810300000002 42.644141,153.947384 42.127584,153.99272200000001 41.611041,154.034117 41.094511,154.071568 40.577993,154.10507600000003 40.061486,154.13464100000002 39.544988000000004,154.160264 39.028498,154.18194400000002 38.512014,154.19968200000002 37.995536,154.213479 37.479062,154.22333300000003 36.96259,154.22924600000002 36.44612,154.23121700000002 35.929649999999995,154.22924600000002 35.413178,154.22333300000003 34.896704,154.213479 34.380226,154.19968200000002 33.863742,154.18194400000002 33.347252,154.160264 32.830754,154.13464100000002 32.314246999999995,154.10507600000003 31.797729,154.071568 31.281199,154.034117 30.764656,153.99272200000001 30.248099,153.947384 29.731526,153.89810300000002 29.214935999999998,153.84487700000003 28.698328,153.78770600000001 28.1817,153.72659000000002 27.665052,153.661529 27.148383,153.592522 26.63169,153.51956800000002 25.96408,153.42021000000003 25.96408,158.442238 26.344673999999998,158.49888 26.876185,158.573926 25.051975,158.573926 24.52044,158.64491900000002 23.988884,158.711858 23.457307999999998,158.774742 22.925711999999997,158.833571 22.394098,158.88834500000002 21.862467,158.939064 21.33082,158.985726 20.799159,159.028331 20.267485,159.06688000000003 19.735799,159.10137200000003 19.204102,159.131807 18.672396,159.158184 18.140681999999998,159.180504 17.608962,159.198766 17.077236,159.21296900000002 16.545506,159.223115 16.013773999999998,159.22920200000002 15.48204,159.231231 14.950306,159.22920200000002 14.418574,159.223115 13.886844,159.21296900000002 13.355118,159.198766 12.823398,159.180504 12.291683999999998,159.158184 11.759977999999998,159.131807 11.228280999999999,159.10137200000003 10.696594999999999,159.06688000000003 10.164921,159.028331 9.63326,158.985726 9.101613,158.939064 8.569982,158.88834500000002 8.038367999999998,158.833571 7.506771999999998,158.774742 6.975196,158.711858 6.4436399999999985,158.64491900000002 5.912105,158.573926 5.3805939999999985,158.49888 4.0,158.29341200000002 4.0,153.271384 5.66761,153.51956800000002 6.184303,153.592522 6.700972,153.661529 7.21762,153.72659000000002 7.734248000000001,153.78770600000001 8.250855999999999,153.84487700000003 8.767446,153.89810300000002 9.284019,153.947384 9.800576,153.99272200000001 10.317119,154.034117 10.833649,154.071568 11.350166999999999,154.10507600000003 11.866674,154.13464100000002 12.383171999999998,154.160264 12.899662,154.18194400000002 13.416146,154.19968200000002 13.932623999999999,154.213479 14.449098,154.22333300000003 14.96557,154.22924600000002 15.48204,154.23121700000002 15.99851,154.22924600000002 16.514982,154.22333300000003 17.031456,154.213479 17.547933999999998,154.19968200000002 18.064418,154.18194400000002 18.580908,154.160264 19.097406,154.13464100000002 19.613913,154.10507600000003 20.130430999999998,154.071568 20.646960999999997,154.034117 21.163504,153.99272200000001 21.680061,153.947384 22.196634,153.89810300000002 22.713224,153.84487700000003 23.229832,153.78770600000001 23.74646,153.72659000000002 24.263108,153.661529 24.779777,153.592522 25.29647,153.51956800000002 25.96408,153.42021000000003 25.96408,158.442238 25.583486,158.49888 25.051975,158.573926" stroke="#1f6fb2" stroke-width="0.1" /><text fill="#0a3d62" font-family="sans-serif" font-size="1.6" text-anchor="middle" x="25.96408" y="156.25130750000002">08</text><polygon fill="#cfe3f7" fill-opacity="0.5" points="48.92816,156.920511 48.950314999999996,157.145454 49.030257999999996,157.408992 49.160078999999996,157.65187 49.334789,157.864755 49.547674,158.039465 49.790552,158.169286 50.054089999999995,158.249229 50.279033,158.271384 61.577287,158.271384 61.802229999999994,158.249229 62.065768,158.169286 62.308645999999996,158.039465 62.521530999999996,157.864755 62.696241,157.65187 62.826062,157.408992 62.906005,157.145454 62.92816,156.920511 62.92816,154.62225700000002 62.906005,154.39731400000002 62.826062,154.133776 62.696241,153.89089800000002 62.521530999999996,153.67801300000002 62.308645999999996,153.50330300000002 62.065768,153.37348200000002 61.802229999999994,153.293539 61.577287,153.271384 50.279033,153.271384 50.054089999999995,153.293539 49.790552,153.37348200000002 49.547674,153.50330300000002 49.334789,153.67801300000002 49.160078999999996,153.89089800000002 49.030257999999996,154.133776 48.950314999999996,154.39731400000002 48.92816,154.62225700000002 48.92816,156.920511" stroke="#1f6fb2" stroke-width="0.1" /><text fill="#0a3d62" font-family="sans-serif" font-size="1.6" text-anchor="middle" x="55.92816" y="155.771384">06</text><polygon fill="#cfe3f7" fill-opacity="0.5" points="63.92816,156.920511 63.950314999999996,157.145454 64.030258,157.408992 64.160079,157.65187 64.334789,157.864755 64.547674,158.039465 64.790552,158.169286 65.05409,158.249229 65.279033,158.271384 76.577287,158.271384 76.80223,158.249229 77.06576799999999,158.169286 77.308646,158.039465 77.521531,157.864755 77.696241,157.65187 77.826062,157.408992 77.906005,157.145454 77.92815999999999,156.920511 77.92815999999999,154.62225700000002 77.906005,154.39731400000002 77.826062,154.133776 77.696241,153.89089800000002 77.521531,153.67801300000002 77.308646,153.50330300000002 77.06576799999999,153.37348200000002 76.80223,153.293539 76.577287,153.271384 65.279033,153.271384 65.05409,153.293539 64.790552,153.37348200000002 64.547674,153.50330300000002 64.334789,153.67801300000002 64.160079,153.89089800000002 64.030258,154.133776 63.950314999999996,154.39731400000002 63.92816,154.62225700000002 63.92816,156.920511" stroke="#1f6fb2" stroke-width="0.1" /><text fill="#0a3d62" font-family="sans-serif" font-size="1.6" text-anchor="middle" x="70.92815999999999" y="155.771384">06</text></svg>