  0
SECTION
  2
HEADER
  9
$ACADVER
  1
AC1027
  9
$ACADMAINTVER
 70
105
  9
$DWGCODEPAGE
  3
ANSI_1252
  9
$LASTSAVEDBY
  1
ezdxf
  9
$REQUIREDVERSIONS
160
0
  9
$INSBASE
 10
0.0
 20
0.0
 30
0.0
  9
$EXTMIN
 10
1e+20
 20
1e+20
 30
1e+20
  9
$EXTMAX
 10
-1e+20
 20
-1e+20
 30
-1e+20
  9
$LIMMIN
 10
0.0
 20
0.0
  9
$LIMMAX
 10
420.0
 20
297.0
  9
$ORTHOMODE
 70
0
  9
$REGENMODE
 70
1
  9
$FILLMODE
 70
1
  9
$QTEXTMODE
 70
0
  9
$MIRRTEXT
 70
1
  9
$LTSCALE
 40
1.0
  9
$ATTMODE
 70
1
  9
$TEXTSIZE
 40
2.5
  9
$TRACEWID
 40
1.0
  9
$TEXTSTYLE
  7
OpenSans
  9
$CLAYER
  8
0
  9
$CELTYPE
  6
ByLayer
  9
$CECOLOR
 62
256
  9
$CELTSCALE
 40
1.0
  9
$DISPSILH
 70
0
  9
$DIMSCALE
 40
1.0
  9
$DIMASZ
 40
0.175
  9
$DIMEXO
 40
0.125
  9
$DIMDLI
 40
3.75
  9
$DIMRND
 40
0.0
  9
$DIMDLE
 40
0.0
  9
$DIMEXE
 40
0.375
  9
$DIMTP
 40
0.0
  9
$DIMTM
 40
0.0
  9
$DIMTXT
 40
0.25
  9
$DIMCEN
 40
2.5
  9
$DIMTSZ
 40
0.0
  9
$DIMTOL
 70
0
  9
$DIMLIM
 70
0
  9
$DIMTIH
 70
0
  9
$DIMTOH
 70
0
  9
$DIMSE1
 70
0
  9
$DIMSE2
 70
0
  9
$DIMTAD
 70
1
  9
$DIMZIN
 70
12
  9
$DIMBLK
  1
ARCHTICK
  9
$DIMASO
 70
1
  9
$DIMSHO
 70
1
  9
$DIMPOST
  1

  9
$DIMAPOST
  1

  9
$DIMALT
 70
0
  9
$DIMALTD
 70
3
  9
$DIMALTF
 40
0.03937007874
  9
$DIMLFAC
 40
100.0
  9
$DIMTOFL
 70
1
  9
$DIMTVP
 40
0.0
  9
$DIMTIX
 70
0
  9
$DIMSOXD
 70
0
  9
$DIMSAH
 70
0
  9
$DIMBLK1
  1

  9
$DIMBLK2
  1

  9
$DIMSTYLE
  2
EZDXF
  9
$DIMCLRD
 70
0
  9
$DIMCLRE
 70
0
  9
$DIMCLRT
 70
0
  9
$DIMTFAC
 40
0.5
  9
$DIMGAP
 40
0.1
  9
$DIMJUST
 70
0
  9
$DIMSD1
 70
0
  9
$DIMSD2
 70
0
  9
$DIMTOLJ
 70
0
  9
$DIMTZIN
 70
8
  9
$DIMALTZ
 70
0
  9
$DIMALTTZ
 70
0
  9
$DIMUPT
 70
1
  9
$DIMDEC
 70
2
  9
$DIMTDEC
 70
2
  9
$DIMALTU
 70
2
  9
$DIMALTTD
 70
3
  9
$DIMTXSTY
  7
OpenSansCondensed-Light
  9
$DIMAUNIT
 70
0
  9
$DIMADEC
 70
2
  9
$DIMALTRND
 40
0.0
  9
$DIMAZIN
 70
3
  9
$DIMDSEP
 70
46
  9
$DIMATFIT
 70
3
  9
$DIMFRAC
 70
0
  9
$DIMLDRBLK
  1

  9
$DIMLUNIT
 70
2
  9
$DIMLWD
 70
-2
  9
$DIMLWE
 70
-2
  9
$DIMTMOVE
 70
2
  9
$DIMFXL
 40
1.0
  9
$DIMFXLON
 70
0
  9
$DIMJOGANG
 40
0.785398163397
  9
$DIMTFILL
 70
0
  9
$DIMTFILLCLR
 70
0
  9
$DIMARCSYM
 70
0
  9
$DIMLTYPE
  6

  9
$DIMLTEX1
  6

  9
$DIMLTEX2
  6

  9
$DIMTXTDIRECTION
 70
0
  9
$LUNITS
 70
2
  9
$LUPREC
 70
4
  9
$SKETCHINC
 40
1.0
  9
$FILLETRAD
 40
10.0
  9
$AUNITS
 70
0
  9
$AUPREC
 70
2
  9
$MENU
  1
.
  9
$ELEVATION
 40
0.0
  9
$PELEVATION
 40
0.0
  9
$THICKNESS
 40
0.0
  9
$LIMCHECK
 70
0
  9
$CHAMFERA
 40
0.0
  9
$CHAMFERB
 40
0.0
  9
$CHAMFERC
 40
0.0
  9
$CHAMFERD
 40
0.0
  9
$SKPOLY
 70
0
  9
$TDCREATE
 40
2461236.187638889
  9
$TDUCREATE
 40
2458532.153996898
  9
$TDUPDATE
 40
2461236.187638889
  9
$TDUUPDATE
 40
2458532.1544311
  9
$TDINDWG
 40
0.0
  9
$TDUSRTIMER
 40
0.0
  9
$USRTIMER
 70
1
  9
$ANGBASE
 50
0.0
  9
$ANGDIR
 70
0
  9
$PDMODE
 70
0
  9
$PDSIZE
 40
0.0
  9
$PLINEWID
 40
0.0
  9
$SPLFRAME
 70
0
  9
$SPLINETYPE
 70
6
  9
$SPLINESEGS
 70
8
  9
$HANDSEED
  5
137
  9
$SURFTAB1
 70
6
  9
$SURFTAB2
 70
6
  9
$SURFTYPE
 70
6
  9
$SURFU
 70
6
  9
$SURFV
 70
6
  9
$UCSBASE
  2

  9
$UCSNAME
  2

  9
$UCSORG
 10
0.0
 20
0.0
 30
0.0
  9
$UCSXDIR
 10
1.0
 20
0.0
 30
0.0
  9
$UCSYDIR
 10
0.0
 20
1.0
 30
0.0
  9
$UCSORTHOREF
  2

  9
$UCSORTHOVIEW
 70
0
  9
$UCSORGTOP
 10
0.0
 20
0.0
 30
0.0
  9
$UCSORGBOTTOM
 10
0.0
 20
0.0
 30
0.0
  9
$UCSORGLEFT
 10
0.0
 20
0.0
 30
0.0
  9
$UCSORGRIGHT
 10
0.0
 20
0.0
 30
0.0
  9
$UCSORGFRONT
 10
0.0
 20
0.0
 30
0.0
  9
$UCSORGBACK
 10
0.0
 20
0.0
 30
0.0
  9
$PUCSBASE
  2

  9
$PUCSNAME
  2

  9
$PUCSORG
 10
0.0
 20
0.0
 30
0.0
  9
$PUCSXDIR
 10
1.0
 20
0.0
 30
0.0
  9
$PUCSYDIR
 10
0.0
 20
1.0
 30
0.0
  9
$PUCSORTHOREF
  2

  9
$PUCSORTHOVIEW
 70
0
  9
$PUCSORGTOP
 10
0.0
 20
0.0
 30
0.0
  9
$PUCSORGBOTTOM
 10
0.0
 20
0.0
 30
0.0
  9
$PUCSORGLEFT
 10
0.0
 20
0.0
 30
0.0
  9
$PUCSORGRIGHT
 10
0.0
 20
0.0
 30
0.0
  9
$PUCSORGFRONT
 10
0.0
 20
0.0
 30
0.0
  9
$PUCSORGBACK
 10
0.0
 20
0.0
 30
0.0
  9
$USERI1
 70
0
  9
$USERI2
 70
0
  9
$USERI3
 70
0
  9
$USERI4
 70
0
  9
$USERI5
 70
0
  9
$USERR1
 40
0.0
  9
$USERR2
 40
0.0
  9
$USERR3
 40
0.0
  9
$USERR4
 40
0.0
  9
$USERR5
 40
0.0
  9
$WORLDVIEW
 70
1
  9
$SHADEDGE
 70
3
  9
$SHADEDIF
 70
70
  9
$TILEMODE
 70
1
  9
$MAXACTVP
 70
64
  9
$PINSBASE
 10
0.0
 20
0.0
 30
0.0
  9
$PLIMCHECK
 70
0
  9
$PEXTMIN
 10
1e+20
 20
1e+20
 30
1e+20
  9
$PEXTMAX
 10
-1e+20
 20
-1e+20
 30
-1e+20
  9
$PLIMMIN
 10
0.0
 20
0.0
  9
$PLIMMAX
 10
420.0
 20
297.0
  9
$UNITMODE
 70
0
  9
$VISRETAIN
 70
1
  9
$PLINEGEN
 70
0
  9
$PSLTSCALE
 70
1
  9
$TREEDEPTH
 70
3020
  9
$CMLSTYLE
  2
Standard
  9
$CMLJUST
 70
0
  9
$CMLSCALE
 40
20.0
  9
$PROXYGRAPHICS
 70
1
  9
$MEASUREMENT
 70
1
  9
$CELWEIGHT
370
-1
  9
$ENDCAPS
280
0
  9
$JOINSTYLE
280
0
  9
$LWDISPLAY
290
0
  9
$INSUNITS
 70
5
  9
$HYPERLINKBASE
  1

  9
$STYLESHEET
  1

  9
$XEDIT
290
1
  9
$CEPSNTYPE
380
0
  9
$PSTYLEMODE
290
1
  9
$FINGERPRINTGUID
  2
{C40696A9-4E7A-4C39-B84F-1329E42E111B}
  9
$VERSIONGUID
  2
{C2DB9F7C-EF87-478B-ABC9-896AC3461F6E}
  9
$EXTNAMES
290
1
  9
$PSVPSCALE
 40
0.0
  9
$OLESTARTUP
290
0
  9
$SORTENTS
280
127
  9
$INDEXCTL
280
0
  9
$HIDETEXT
280
1
  9
$XCLIPFRAME
280
1
  9
$HALOGAP
280
0
  9
$OBSCOLOR
 70
257
  9
$OBSLTYPE
280
0
  9
$INTERSECTIONDISPLAY
280
0
  9
$INTERSECTIONCOLOR
 70
257
  9
$DIMASSOC
280
2
  9
$PROJECTNAME
  1

  9
$CAMERADISPLAY
290
0
  9
$LENSLENGTH
 40
50.0
  9
$CAMERAHEIGHT
 40
0.0
  9
$STEPSPERSEC
 40
24.0
  9
$STEPSIZE
 40
100.0
  9
$3DDWFPREC
 40
2.0
  9
$PSOLWIDTH
 40
0.005
  9
$PSOLHEIGHT
 40
0.08
  9
$LOFTANG1
 40
1.570796326795
  9
$LOFTANG2
 40
1.570796326795
  9
$LOFTMAG1
 40
0.0
  9
$LOFTMAG2
 40
0.0
  9
$LOFTPARAM
 70
7
  9
$LOFTNORMALS
280
1
  9
$LATITUDE
 40
37.795
  9
$LONGITUDE
 40
-122.394
  9
$NORTHDIRECTION
 40
0.0
  9
$TIMEZONE
 70
-8000
  9
$LIGHTGLYPHDISPLAY
280
1
  9
$TILEMODELIGHTSYNCH
280
1
  9
$CMATERIAL
347
20
  9
$SOLIDHIST
280
0
  9
$SHOWHIST
280
1
  9
$DWFFRAME
280
2
  9
$DGNFRAME
280
2
  9
$REALWORLDSCALE
290
1
  9
$INTERFERECOLOR
 62
256
  9
$CSHADOW
280
0
  9
$SHADOWPLANELOCATION
 40
0.0
  0
ENDSEC
  0
SECTION
  2
CLASSES
  0
CLASS
  1
ACDBDICTIONARYWDFLT
  2
AcDbDictionaryWithDefault
  3
ObjectDBX Classes
 90
0
 91
0
280
0
281
0
  0
CLASS
  1
SUN
  2
AcDbSun
  3
SCENEOE
 90
1153
 91
0
280
0
281
0
  0
CLASS
  1
VISUALSTYLE
  2
AcDbVisualStyle
  3
ObjectDBX Classes
 90
4095
 91
0
280
0
281
0
  0
CLASS
  1
MATERIAL
  2
AcDbMaterial
  3
ObjectDBX Classes
 90
1153
 91
0
280
0
281
0
  0
CLASS
  1
SCALE
  2
AcDbScale
  3
ObjectDBX Classes
 90
1153
 91
0
280
0
281
0
  0
CLASS
  1
TABLESTYLE
  2
AcDbTableStyle
  3
ObjectDBX Classes
 90
4095
 91
0
280
0
281
0
  0
CLASS
  1
MLEADERSTYLE
  2
AcDbMLeaderStyle
  3
ACDB_MLEADERSTYLE_CLASS
 90
4095
 91
0
280
0
281
0
  0
CLASS
  1
DICTIONARYVAR
  2
AcDbDictionaryVar
  3
ObjectDBX Classes
 90
0
 91
0
280
0
281
0
  0
CLASS
  1
CELLSTYLEMAP
  2
AcDbCellStyleMap
  3
ObjectDBX Classes
 90
1152
 91
0
280
0
281
0
  0
CLASS
  1
MENTALRAYRENDERSETTINGS
  2
AcDbMentalRayRenderSettings
  3
SCENEOE
 90
1024
 91
0
280
0
281
0
  0
CLASS
  1
ACDBDETAILVIEWSTYLE
  2
AcDbDetailViewStyle
  3
ObjectDBX Classes
 90
1025
 91
0
280
0
281
0
  0
CLASS
  1
ACDBSECTIONVIEWSTYLE
  2
AcDbSectionViewStyle
  3
ObjectDBX Classes
 90
1025
 91
0
280
0
281
0
  0
CLASS
  1
RASTERVARIABLES
  2
AcDbRasterVariables
  3
ISM
 90
0
 91
0
280
0
281
0
  0
CLASS
  1
LAYOUT
  2
AcDbLayout
  3
ObjectDBX Classes
 90
0
 91
0
280
0
281
0
  0
CLASS
  1
ACDBPLACEHOLDER
  2
AcDbPlaceHolder
  3
ObjectDBX Classes
 90
0
 91
0
280
0
281
0
  0
ENDSEC
  0
SECTION
  2
TABLES
  0
TABLE
  2
VPORT
  5
8
330
0
100
AcDbSymbolTable
 70
1
  0
VPORT
  5
23
330
8
100
AcDbSymbolTableRecord
100
AcDbViewportTableRecord
  2
*Active
 70
0
 10
0.0
 20
0.0
 11
1.0
 21
1.0
 12
0.0
 22
0.0
 13
0.0
 23
0.0
 14
0.5
 24
0.5
 15
0.5
 25
0.5
 16
0.0
 26
0.0
 36
1.0
 17
0.0
 27
0.0
 37
0.0
 40
1000.0
 41
1.34
 42
50.0
 43
0.0
 44
0.0
 50
0.0
 51
0.0
 71
0
 72
1000
 73
1
 74
3
 75
0
 76
0
 77
0
 78
0
281
0
 65
0
146
0.0
  0
ENDTAB
  0
TABLE
  2
LTYPE
  5
2
330
0
100
AcDbSymbolTable
 70
21
  0
LTYPE
  5
24
330
2
100
AcDbSymbolTableRecord
100
AcDbLinetypeTableRecord
  2
ByBlock
 70
0
  3

 72
65
 73
0
 40
0.0
  0
LTYPE
  5
25
330
2
100
AcDbSymbolTableRecord
100
AcDbLinetypeTableRecord
  2
ByLayer
 70
0
  3

 72
65
 73
0
 40
0.0
  0
LTYPE
  5
26
330
2
100
AcDbSymbolTableRecord
100
AcDbLinetypeTableRecord
  2
Continuous
 70
0
  3

 72
65
 73
0
 40
0.0
  0
LTYPE
  5
2F
330
2
100
AcDbSymbolTableRecord
100
AcDbLinetypeTableRecord
  2
CENTER
 70
0
  3
Center ____ _ ____ _ ____ _ ____ _ ____ _ ____
 72
65
 73
4
 40
5.08
 49
3.175
 74
0
 49
-0.635
 74
0
 49
0.635
 74
0
 49
-0.635
 74
0
  0
LTYPE
  5
30
330
2
100
AcDbSymbolTableRecord
100
AcDbLinetypeTableRecord
  2
CENTERX2
 70
0
  3
Center (2x) ________  __  ________  __  ________
 72
65
 73
4
 40
8.89
 49
6.35
 74
0
 49
-0.635
 74
0
 49
1.27
 74
0
 49
-0.635
 74
0
  0
LTYPE
  5
31
330
2
100
AcDbSymbolTableRecord
100
AcDbLinetypeTableRecord
  2
CENTER2
 70
0
  3
Center (.5x) ____ _ ____ _ ____ _ ____ _ ____
 72
65
 73
4
 40
2.54
 49
1.587
 74
0
 49
-0.318
 74
0
 49
0.318
 74
0
 49
-0.318
 74
0
  0
LTYPE
  5
32
330
2
100
AcDbSymbolTableRecord
100
AcDbLinetypeTableRecord
  2
DASHED
 70
0
  3
Dashed __ __ __ __ __ __ __ __ __ __ __ __ __ _
 72
65
 73
2
 40
1.524
 49
1.27
 74
0
 49
-0.254
 74
0
  0
LTYPE
  5
33
330
2
100
AcDbSymbolTableRecord
100
AcDbLinetypeTableRecord
  2
DASHEDX2
 70
0
  3
Dashed (2x) ____  ____  ____  ____  ____  ____
 72
65
 73
2
 40
3.048
 49
2.54
 74
0
 49
-0.508
 74
0
  0
LTYPE
  5
34
330
2
100
AcDbSymbolTableRecord
100
AcDbLinetypeTableRecord
  2
DASHED2
 70
0
  3
Dashed (.5x) _ _ _ _ _ _ _ _ _ _ _ _ _ _
 72
65
 73
2
 40
0.762
 49
0.635
 74
0
 49
-0.127
 74
0
  0
LTYPE
  5
35
330
2
100
AcDbSymbolTableRecord
100
AcDbLinetypeTableRecord
  2
PHANTOM
 70
0
  3
Phantom ______  __  __  ______  __  __  ______
 72
65
 73
6
 40
6.35
 49
3.175
 74
0
 49
-0.635
 74
0
 49
0.635
 74
0
 49
-0.635
 74
0
 49
0.635
 74
0
 49
-0.635
 74
0
  0
LTYPE
  5
36
330
2
100
AcDbSymbolTableRecord
100
AcDbLinetypeTableRecord
  2
PHANTOMX2
 70
0
  3
Phantom (2x)____________    ____    ____    ____________
 72
65
 73
6
 40
10.795
 49
6.35
 74
0
 49
-0.635
 74
0
 49
1.27
 74
0
 49
-0.635
 74
0
 49
1.27
 74
0
 49
-0.635
 74
0
  0
LTYPE
  5
37
330
2
100
AcDbSymbolTableRecord
100
AcDbLinetypeTableRecord
  2
PHANTOM2
 70
0
  3
Phantom (.5x) ___ _ _ ___ _ _ ___ _ _ ___ _ _ ___
 72
65
 73
6
 40
3.175
 49
1.587
 74
0
 49
-0.318
 74
0
 49
0.318
 74
0
 49
-0.318
 74
0
 49
0.318
 74
0
 49
-0.318
 74
0
  0
LTYPE
  5
38
330
2
100
AcDbSymbolTableRecord
100
AcDbLinetypeTableRecord
  2
DASHDOT
 70
0
  3
Dash dot __ . __ . __ . __ . __ . __ . __ . __
 72
65
 73
4
 40
3.556
 49
2.54
 74
0
 49
-0.508
 74
0
 49
0.0
 74
0
 49
-0.508
 74
0
  0
LTYPE
  5
39
330
2
100
AcDbSymbolTableRecord
100
AcDbLinetypeTableRecord
  2
DASHDOTX2
 70
0
  3
Dash dot (2x) ____  .  ____  .  ____  .  ____
 72
65
 73
4
 40
6.096
 49
5.08
 74
0
 49
-0.508
 74
0
 49
0.0
 74
0
 49
-0.508
 74
0
  0
LTYPE
  5
3A
330
2
100
AcDbSymbolTableRecord
100
AcDbLinetypeTableRecord
  2
DASHDOT2
 70
0
  3
Dash dot (.5x) _ . _ . _ . _ . _ . _ . _ . _
 72
65
 73
4
 40
1.778
 49
1.27
 74
0
 49
-0.254
 74
0
 49
0.0
 74
0
 49
-0.254
 74
0
  0
LTYPE
  5
3B
330
2
100
AcDbSymbolTableRecord
100
AcDbLinetypeTableRecord
  2
DOT
 70
0
  3
Dot .  .  .  .  .  .  .  .  .  .  .  .  .  .  .  .
 72
65
 73
2
 40
0.508
 49
0.0
 74
0
 49
-0.508
 74
0
  0
LTYPE
  5
3C
330
2
100
AcDbSymbolTableRecord
100
AcDbLinetypeTableRecord
  2
DOTX2
 70
0
  3
Dot (2x) .    .    .    .    .    .    .    . 
 72
65
 73
2
 40
1.016
 49
0.0
 74
0
 49
-1.016
 74
0
  0
LTYPE
  5
3D
330
2
100
AcDbSymbolTableRecord
100
AcDbLinetypeTableRecord
  2
DOT2
 70
0
  3
Dot (.5) . . . . . . . . . . . . . . . . . . . 
 72
65
 73
2
 40
0.254
 49
0.0
 74
0
 49
-0.254
 74
0
  0
LTYPE
  5
3E
330
2
100
AcDbSymbolTableRecord
100
AcDbLinetypeTableRecord
  2
DIVIDE
 70
0
  3
Divide __ . . __ . . __ . . __ . . __ . . __
 72
65
 73
6
 40
4.064
 49
2.54
 74
0
 49
-0.508
 74
0
 49
0.0
 74
0
 49
-0.508
 74
0
 49
0.0
 74
0
 49
-0.508
 74
0
  0
LTYPE
  5
3F
330
2
100
AcDbSymbolTableRecord
100
AcDbLinetypeTableRecord
  2
DIVIDEX2
 70
0
  3
Divide (2x) ____  . .  ____  . .  ____  . .  ____
 72
65
 73
6
 40
6.604
 49
5.08
 74
0
 49
-0.508
 74
0
 49
0.0
 74
0
 49
-0.508
 74
0
 49
0.0
 74
0
 49
-0.508
 74
0
  0
LTYPE
  5
40
330
2
100
AcDbSymbolTableRecord
100
AcDbLinetypeTableRecord
  2
DIVIDE2
 70
0
  3
Divide(.5x) _ . _ . _ . _ . _ . _ . _ . _
 72
65
 73
6
 40
2.032
 49
1.27
 74
0
 49
-0.254
 74
0
 49
0.0
 74
0
 49
-0.254
 74
0
 49
0.0
 74
0
 49
-0.254
 74
0
  0
ENDTAB
  0
TABLE
  2
LAYER
  5
1
330
0
100
AcDbSymbolTable
 70
13
  0
LAYER
  5
27
330
1
100
AcDbSymbolTableRecord
100
AcDbLayerTableRecord
  2
0
 70
0
 62
7
  6
Continuous
370
-3
390
13
347
21
  0
LAYER
  5
28
330
1
100
AcDbSymbolTableRecord
100
AcDbLayerTableRecord
  2
Defpoints
 70
0
 62
7
  6
Continuous
290
0
370
-3
390
13
347
21
  0
LAYER
  5
8A
330
1
100
AcDbSymbolTableRecord
100
AcDbLayerTableRecord
  2
CONSTRUCCION
 70
0
 62
8
  6
Continuous
370
-3
390
13
347
21
  0
LAYER
  5
8B
330
1
100
AcDbSymbolTableRecord
100
AcDbLayerTableRecord
  2
CORTE
 70
0
 62
1
  6
Continuous
370
-3
390
13
347
21
  0
LAYER
  5
8C
330
1
100
AcDbSymbolTableRecord
100
AcDbLayerTableRecord
  2
COSTURA
 70
0
 62
3
  6
Continuous
370
-3
390
13
347
21
  0
LAYER
  5
8D
330
1
100
AcDbSymbolTableRecord
100
AcDbLayerTableRecord
  2
PIQUETES
 70
0
 62
4
  6
Continuous
370
-3
390
13
347
21
  0
LAYER
  5
8E
330
1
100
AcDbSymbolTableRecord
100
AcDbLayerTableRecord
  2
TEXTOS
 70
0
 62
7
  6
Continuous
370
-3
390
13
347
21
  0
LAYER
  5
8F
330
1
100
AcDbSymbolTableRecord
100
AcDbLayerTableRecord
  2
CENTROS
 70
0
 62
5
  6
Continuous
370
-3
390
13
347
21
  0
LAYER
  5
90
330
1
100
AcDbSymbolTableRecord
100
AcDbLayerTableRecord
  2
HILO
 70
0
 62
2
  6
Continuous
370
-3
390
13
347
21
  0
LAYER
  5
91
330
1
100
AcDbSymbolTableRecord
100
AcDbLayerTableRecord
  2
DOBLEZ
 70
0
 62
6
  6
Continuous
370
-3
390
13
347
21
  0
LAYER
  5
92
330
1
100
AcDbSymbolTableRecord
100
AcDbLayerTableRecord
  2
BOTONES
 70
0
 62
30
  6
Continuous
370
-3
390
13
347
21
  0
LAYER
  5
93
330
1
100
AcDbSymbolTableRecord
100
AcDbLayerTableRecord
  2
OJAL
 70
0
 62
200
  6
Continuous
370
-3
390
13
347
21
  0
LAYER
  5
94
330
1
100
AcDbSymbolTableRecord
100
AcDbLayerTableRecord
  2
REFERENCIAS
 70
0
 62
9
  6
Continuous
370
-3
390
13
347
21
  0
ENDTAB
  0
TABLE
  2
STYLE
  5
5
330
0
100
AcDbSymbolTable
 70
26
  0
STYLE
  5
29
330
5
100
AcDbSymbolTableRecord
100
AcDbTextStyleTableRecord
  2
Standard
 70
0
 40
0.0
 41
1.0
 50
0.0
 71
0
 42
2.5
  3
txt
  4

  0
STYLE
  5
41
330
5
100
AcDbSymbolTableRecord
100
AcDbTextStyleTableRecord
  2
OpenSans-Light
 70
0
 40
0.0
 41
1.0
 50
0.0
 71
0
 42
2.5
  3
OpenSans-Light.ttf
  4

  0
STYLE
  5
42
330
5
100
AcDbSymbolTableRecord
100
AcDbTextStyleTableRecord
  2
OpenSans-Light-Italic
 70
0
 40
0.0
 41
1.0
 50
0.0
 71
0
 42
2.5
  3
OpenSans-LightItalic.ttf
  4

  0
STYLE
  5
43
330
5
100
AcDbSymbolTableRecord
100
AcDbTextStyleTableRecord
  2
OpenSans
 70
0
 40
0.0
 41
1.0
 50
0.0
 71
0
 42
2.5
  3
OpenSans-Regular.ttf
  4

  0
STYLE
  5
44
330
5
100
AcDbSymbolTableRecord
100
AcDbTextStyleTableRecord
  2
OpenSans-Italic
 70
0
 40
0.0
 41
1.0
 50
0.0
 71
0
 42
2.5
  3
OpenSans-Italic.ttf
  4

  0
STYLE
  5
45
330
5
100
AcDbSymbolTableRecord
100
AcDbTextStyleTableRecord
  2
OpenSans-SemiBold
 70
0
 40
0.0
 41
1.0
 50
0.0
 71
0
 42
2.5
  3
OpenSans-SemiBold.ttf
  4

  0
STYLE
  5
46
330
5
100
AcDbSymbolTableRecord
100
AcDbTextStyleTableRecord
  2
OpenSans-SemiBoldItalic
 70
0
 40
0.0
 41
1.0
 50
0.0
 71
0
 42
2.5
  3
OpenSans-SemiBoldItalic.ttf
  4

  0
STYLE
  5
47
330
5
100
AcDbSymbolTableRecord
100
AcDbTextStyleTableRecord
  2
OpenSans-Bold
 70
0
 40
0.0
 41
1.0
 50
0.0
 71
0
 42
2.5
  3
OpenSans-Bold.ttf
  4

  0
STYLE
  5
48
330
5
100
AcDbSymbolTableRecord
100
AcDbTextStyleTableRecord
  2
OpenSans-BoldItalic
 70
0
 40
0.0
 41
1.0
 50
0.0
 71
0
 42
2.5
  3
OpenSans-BoldItalic.ttf
  4

  0
STYLE
  5
49
330
5
100
AcDbSymbolTableRecord
100
AcDbTextStyleTableRecord
  2
OpenSans-ExtraBold
 70
0
 40
0.0
 41
1.0
 50
0.0
 71
0
 42
2.5
  3
OpenSans-ExtraBold.ttf
  4

  0
STYLE
  5
4A
330
5
100
AcDbSymbolTableRecord
100
AcDbTextStyleTableRecord
  2
OpenSans-ExtraBoldItalic
 70
0
 40
0.0
 41
1.0
 50
0.0
 71
0
 42
2.5
  3
OpenSans-ExtraBoldItalic.ttf
  4

  0
STYLE
  5
4B
330
5
100
AcDbSymbolTableRecord
100
AcDbTextStyleTableRecord
  2
OpenSansCondensed-Bold
 70
0
 40
0.0
 41
1.0
 50
0.0
 71
0
 42
2.5
  3
OpenSansCondensed-Bold.ttf
  4

  0
STYLE
  5
4C
330
5
100
AcDbSymbolTableRecord
100
AcDbTextStyleTableRecord
  2
OpenSansCondensed-Light
 70
0
 40
0.0
 41
1.0
 50
0.0
 71
0
 42
2.5
  3
OpenSansCondensed-Light.ttf
  4

  0
STYLE
  5
4D
330
5
100
AcDbSymbolTableRecord
100
AcDbTextStyleTableRecord
  2
OpenSansCondensed-Italic
 70
0
 40
0.0
 41
1.0
 50
0.0
 71
0
 42
2.5
  3
OpenSansCondensed-LightItalic.ttf
  4

  0
STYLE
  5
4E
330
5
100
AcDbSymbolTableRecord
100
AcDbTextStyleTableRecord
  2
LiberationSans
 70
0
 40
0.0
 41
1.0
 50
0.0
 71
0
 42
2.5
  3
LiberationSans-Regular.ttf
  4

  0
STYLE
  5
4F
330
5
100
AcDbSymbolTableRecord
100
AcDbTextStyleTableRecord
  2
LiberationSans-Bold
 70
0
 40
0.0
 41
1.0
 50
0.0
 71
0
 42
2.5
  3
LiberationSans-Bold.ttf
  4

  0
STYLE
  5
50
330
5
100
AcDbSymbolTableRecord
100
AcDbTextStyleTableRecord
  2
LiberationSans-BoldItalic
 70
0
 40
0.0
 41
1.0
 50
0.0
 71
0
 42
2.5
  3
LiberationSans-BoldItalic.ttf
  4

  0
STYLE
  5
51
330
5
100
AcDbSymbolTableRecord
100
AcDbTextStyleTableRecord
  2
LiberationSans-Italic
 70
0
 40
0.0
 41
1.0
 50
0.0
 71
0
 42
2.5
  3
LiberationSans-Italic.ttf
  4

  0
STYLE
  5
52
330
5
100
AcDbSymbolTableRecord
100
AcDbTextStyleTableRecord
  2
LiberationSerif
 70
0
 40
0.0
 41
1.0
 50
0.0
 71
0
 42
2.5
  3
LiberationSerif-Regular.ttf
  4

  0
STYLE
  5
53
330
5
100
AcDbSymbolTableRecord
100
AcDbTextStyleTableRecord
  2
LiberationSerif-Bold
 70
0
 40
0.0
 41
1.0
 50
0.0
 71
0
 42
2.5
  3
LiberationSerif-Bold.ttf
  4

  0
STYLE
  5
54
330
5
100
AcDbSymbolTableRecord
100
AcDbTextStyleTableRecord
  2
LiberationSerif-BoldItalic
 70
0
 40
0.0
 41
1.0
 50
0.0
 71
0
 42
2.5
  3
LiberationSerif-BoldItalic.ttf
  4

  0
STYLE
  5
55
330
5
100
AcDbSymbolTableRecord
100
AcDbTextStyleTableRecord
  2
LiberationSerif-Italic
 70
0
 40
0.0
 41
1.0
 50
0.0
 71
0
 42
2.5
  3
LiberationSerif-Italic.ttf
  4

  0
STYLE
  5
56
330
5
100
AcDbSymbolTableRecord
100
AcDbTextStyleTableRecord
  2
LiberationMono
 70
0
 40
0.0
 41
1.0
 50
0.0
 71
0
 42
2.5
  3
LiberationMono-Regular.ttf
  4

  0
STYLE
  5
57
330
5
100
AcDbSymbolTableRecord
100
AcDbTextStyleTableRecord
  2
LiberationMono-Bold
 70
0
 40
0.0
 41
1.0
 50
0.0
 71
0
 42
2.5
  3
LiberationMono-Bold.ttf
  4

  0
STYLE
  5
58
330
5
100
AcDbSymbolTableRecord
100
AcDbTextStyleTableRecord
  2
LiberationMono-BoldItalic
 70
0
 40
0.0
 41
1.0
 50
0.0
 71
0
 42
2.5
  3
LiberationMono-BoldItalic.ttf
  4

  0
STYLE
  5
59
330
5
100
AcDbSymbolTableRecord
100
AcDbTextStyleTableRecord
  2
LiberationMono-Italic
 70
0
 40
0.0
 41
1.0
 50
0.0
 71
0
 42
2.5
  3
LiberationMono-Italic.ttf
  4

  0
ENDTAB
  0
TABLE
  2
VIEW
  5
7
330
0
100
AcDbSymbolTable
 70
0
  0
ENDTAB
  0
TABLE
  2
UCS
  5
6
330
0
100
AcDbSymbolTable
 70
0
  0
ENDTAB
  0
TABLE
  2
APPID
  5
3
330
0
100
AcDbSymbolTable
 70
3
  0
APPID
  5
2A
330
3
100
AcDbSymbolTableRecord
100
AcDbRegAppTableRecord
  2
ACAD
 70
0
  0
APPID
  5
134
330
3
100
AcDbSymbolTableRecord
100
AcDbRegAppTableRecord
  2
HATCHBACKGROUNDCOLOR
 70
0
  0
APPID
  5
135
330
3
100
AcDbSymbolTableRecord
100
AcDbRegAppTableRecord
  2
EZDXF
 70
0
  0
ENDTAB
  0
TABLE
  2
DIMSTYLE
  5
4
330
0
100
AcDbSymbolTable
 70
12
100
AcDbDimStyleTable
  0
DIMSTYLE
105
2B
330
4
100
AcDbSymbolTableRecord
100
AcDbDimStyleTableRecord
  2
Standard
 70
0
 40
1.0
 41
2.5
 42
0.625
 43
3.75
 44
1.25
 45
0.0
 46
0.0
 47
0.0
 48
0.0
 49
2.5
140
2.5
141
2.5
142
0.0
143
0.03937007874
144
1.0
145
0.0
146
1.0
147
0.625
148
0.0
 69
0
 70
0
 71
0
 72
0
 73
0
 74
0
 75
0
 76
0
 77
1
 78
8
 79
3
170
0
171
3
172
1
173
0
174
0
175
0
176
0
177
0
178
0
179
2
271
2
272
2
273
2
274
3
275
0
276
0
277
2
278
44
279
0
280
0
281
0
282
0
283
0
284
8
285
0
286
0
288
0
289
3
290
0
371
-2
372
-2
  0
DIMSTYLE
105
73
330
4
100
AcDbSymbolTableRecord
100
AcDbDimStyleTableRecord
  2
EZDXF
 70
0
 40
1.0
 41
0.175
 42
0.125
 43
3.75
 44
0.375
 45
0.0
 46
0.0
 47
0.0
 48
0.0
 49
2.5
140
0.25
141
2.5
142
0.0
143
0.03937007874
144
100.0
145
0.0
146
0.5
147
0.1
148
0.0
 69
0
 70
0
 71
0
 72
0
 73
0
 74
0
 75
0
 76
0
 77
1
 78
12
 79
3
170
0
171
3
172
1
173
0
174
0
175
0
176
0
177
0
178
0
179
2
271
2
272
2
273
2
274
3
275
0
276
0
277
2
278
46
279
2
280
0
281
0
282
0
283
0
284
8
285
0
286
0
288
1
289
3
290
0
340
4C
342
74
371
-2
372
-2
  0
DIMSTYLE
105
7C
330
4
100
AcDbSymbolTableRecord
100
AcDbDimStyleTableRecord
  2
EZ_M_100_H25_CM
 70
0
 40
1.0
 41
0.25
 42
0.125
 43
3.75
 44
0.375
 45
0.0
 46
0.0
 47
0.0
 48
0.0
 49
2.5
140
0.25
141
2.5
142
0.125
143
0.03937007874
144
100.0
145
0.0
146
0.5
147
0.1
148
0.0
 69
0
 70
0
 71
0
 72
0
 73
0
 74
0
 75
0
 76
0
 77
1
 78
12
 79
3
170
0
171
3
172
1
173
0
174
0
175
0
176
0
177
0
178
0
179
2
271
2
272
2
273
2
274
3
275
0
276
0
277
2
278
46
279
2
280
0
281
0
282
0
283
0
284
8
285
0
286
0
288
1
289
3
290
0
340
4C
371
-2
372
-2
  0
DIMSTYLE
105
7D
330
4
100
AcDbSymbolTableRecord
100
AcDbDimStyleTableRecord
  2
EZ_M_50_H25_CM
 70
0
 40
1.0
 41
0.125
 42
0.0625
 43
3.75
 44
0.1875
 45
0.0
 46
0.0
 47
0.0
 48
0.0
 49
2.5
140
0.125
141
2.5
142
0.0625
143
0.03937007874
144
100.0
145
0.0
146
0.5
147
0.05
148
0.0
 69
0
 70
0
 71
0
 72
0
 73
0
 74
0
 75
0
 76
0
 77
1
 78
12
 79
3
170
0
171
3
172
1
173
0
174
0
175
0
176
0
177
0
178
0
179
2
271
2
272
2
273
2
274
3
275
0
276
0
277
2
278
46
279
2
280
0
281
0
282
0
283
0
284
8
285
0
286
0
288
1
289
3
290
0
340
4C
371
-2
372
-2
  0
DIMSTYLE
105
7E
330
4
100
AcDbSymbolTableRecord
100
AcDbDimStyleTableRecord
  2
EZ_M_25_H25_CM
 70
0
 40
1.0
 41
0.0625
 42
0.03125
 43
3.75
 44
0.09375
 45
0.0
 46
0.0
 47
0.0
 48
0.0
 49
2.5
140
0.0625
141
2.5
142
0.03125
143
0.03937007874
144
100.0
145
0.0
146
0.5
147
0.025
148
0.0
 69
0
 70
0
 71
0
 72
0
 73
0
 74
0
 75
0
 76
0
 77
1
 78
12
 79
3
170
0
171
3
172
1
173
0
174
0
175
0
176
0
177
0
178
0
179
2
271
2
272
2
273
2
274
3
275
0
276
0
277
2
278
46
279
2
280
0
281
0
282
0
283
0
284
8
285
0
286
0
288
1
289
3
290
0
340
4C
371
-2
372
-2
  0
DIMSTYLE
105
7F
330
4
100
AcDbSymbolTableRecord
100
AcDbDimStyleTableRecord
  2
EZ_M_20_H25_CM
 70
0
 40
1.0
 41
0.05
 42
0.025
 43
3.75
 44
0.07500000000000001
 45
0.0
 46
0.0
 47
0.0
 48
0.0
 49
2.5
140
0.05
141
2.5
142
0.025
143
0.03937007874
144
100.0
145
0.0
146
0.5
147
0.020000000000000004
148
0.0
 69
0
 70
0
 71
0
 72
0
 73
0
 74
0
 75
0
 76
0
 77
1
 78
12
 79
3
170
0
171
3
172
1
173
0
174
0
175
0
176
0
177
0
178
0
179
2
271
2
272
2
273
2
274
3
275
0
276
0
277
2
278
46
279
2
280
0
281
0
282
0
283
0
284
8
285
0
286
0
288
1
289
3
290
0
340
4C
371
-2
372
-2
  0
DIMSTYLE
105
80
330
4
100
AcDbSymbolTableRecord
100
AcDbDimStyleTableRecord
  2
EZ_M_10_H25_CM
 70
0
 40
1.0
 41
0.025
 42
0.0125
 43
3.75
 44
0.037500000000000006
 45
0.0
 46
0.0
 47
0.0
 48
0.0
 49
2.5
140
0.025
141
2.5
142
0.0125
143
0.03937007874
144
100.0
145
0.0
146
0.5
147
0.010000000000000002
148
0.0
 69
0
 70
0
 71
0
 72
0
 73
0
 74
0
 75
0
 76
0
 77
1
 78
12
 79
3
170
0
171
3
172
1
173
0
174
0
175
0
176
0
177
0
178
0
179
2
271
2
272
2
273
2
274
3
275
0
276
0
277
2
278
46
279
2
280
0
281
0
282
0
283
0
284
8
285
0
286
0
288
1
289
3
290
0
340
4C
371
-2
372
-2
  0
DIMSTYLE
105
81
330
4
100
AcDbSymbolTableRecord
100
AcDbDimStyleTableRecord
  2
EZ_M_5_H25_CM
 70
0
 40
1.0
 41
0.0125
 42
0.00625
 43
3.75
 44
0.018750000000000003
 45
0.0
 46
0.0
 47
0.0
 48
0.0
 49
2.5
140
0.0125
141
2.5
142
0.00625
143
0.03937007874
144
100.0
145
0.0
146
0.5
147
0.005000000000000001
148
0.0
 69
0
 70
0
 71
0
 72
0
 73
0
 74
0
 75
0
 76
0
 77
1
 78
12
 79
3
170
0
171
3
172
1
173
0
174
0
175
0
176
0
177
0
178
0
179
2
271
2
272
2
273
2
274
3
275
0
276
0
277
2
278
46
279
2
280
0
281
0
282
0
283
0
284
8
285
0
286
0
288
1
289
3
290
0
340
4C
371
-2
372
-2
  0
DIMSTYLE
105
82
330
4
100
AcDbSymbolTableRecord
100
AcDbDimStyleTableRecord
  2
EZ_M_1_H25_CM
 70
0
 40
1.0
 41
0.0025
 42
0.00125
 43
3.75
 44
0.00375
 45
0.0
 46
0.0
 47
0.0
 48
0.0
 49
2.5
140
0.0025
141
2.5
142
0.00125
143
0.03937007874
144
100.0
145
0.0
146
0.5
147
0.001
148
0.0
 69
0
 70
0
 71
0
 72
0
 73
0
 74
0
 75
0
 76
0
 77
1
 78
12
 79
3
170
0
171
3
172
1
173
0
174
0
175
0
176
0
177
0
178
0
179
2
271
2
272
2
273
2
274
3
275
0
276
0
277
2
278
46
279
2
280
0
281
0
282
0
283
0
284
8
285
0
286
0
288
1
289
3
290
0
340
4C
371
-2
372
-2
  0
DIMSTYLE
105
83
330
4
100
AcDbSymbolTableRecord
100
AcDbDimStyleTableRecord
  2
EZ_RADIUS
 70
0
 40
1.0
 41
0.25
 42
0.125
 43
3.75
 44
0.375
 45
0.0
 46
0.0
 47
0.0
 48
0.0
 49
2.5
140
0.25
141
0.0
142
0.0
143
0.03937007874
144
100.0
145
0.0
146
0.5
147
0.1
148
0.0
 69
0
 70
0
 71
0
 72
0
 73
0
 74
0
 75
0
 76
0
 77
1
 78
12
 79
3
170
0
171
3
172
0
173
0
174
0
175
0
176
0
177
0
178
0
179
2
271
2
272
2
273
2
274
3
275
0
276
0
277
2
278
46
279
1
280
0
281
0
282
0
283
0
284
8
285
0
286
0
288
1
289
3
290
0
340
4C
342
84
371
-2
372
-2
  0
DIMSTYLE
105
88
330
4
100
AcDbSymbolTableRecord
100
AcDbDimStyleTableRecord
  2
EZ_RADIUS_INSIDE
 70
0
 40
1.0
 41
0.25
 42
0.125
 43
3.75
 44
0.375
 45
0.0
 46
0.0
 47
0.0
 48
0.0
 49
2.5
140
0.25
141
0.0
142
0.0
143
0.03937007874
144
100.0
145
0.0
146
0.5
147
0.1
148
0.0
 69
0
 70
0
 71
0
 72
0
 73
0
 74
0
 75
0
 76
0
 77
0
 78
12
 79
3
170
0
171
3
172
0
173
0
174
1
175
0
176
0
177
0
178
0
179
2
271
2
272
2
273
2
274
3
275
0
276
0
277
2
278
46
279
0
280
0
281
0
282
0
283
0
284
8
285
0
286
0
288
1
289
0
290
0
340
4C
342
84
371
-2
372
-2
  0
DIMSTYLE
105
89
330
4
100
AcDbSymbolTableRecord
100
AcDbDimStyleTableRecord
  2
EZ_CURVED
 70
0
 40
1.0
 41
0.25
 42
0.125
 43
3.75
 44
0.375
 45
0.0
 46
0.0
 47
0.0
 48
0.0
 49
2.5
140
0.25
141
2.5
142
0.0
143
0.03937007874
144
100.0
145
0.0
146
0.5
147
0.1
148
0.0
 69
0
 70
0
 71
0
 72
0
 73
0
 74
0
 75
0
 76
0
 77
1
 78
12
 79
2
 90
2
170
0
171
3
172
1
173
0
174
0
175
0
176
0
177
0
178
0
179
2
271
2
272
2
273
2
274
3
275
0
276
0
277
2
278
46
279
2
280
0
281
0
282
0
283
0
284
8
285
0
286
0
288
1
289
3
290
0
340
4C
371
-2
372
-2
  0
ENDTAB
  0
TABLE
  2
BLOCK_RECORD
  5
9
330
0
100
AcDbSymbolTable
 70
5
  0
BLOCK_RECORD
  5
17
330
9
100
AcDbSymbolTableRecord
100
AcDbBlockTableRecord
  2
*Model_Space
340
1A
 70
0
280
1
281
0
  0
BLOCK_RECORD
  5
1B
330
9
100
AcDbSymbolTableRecord
100
AcDbBlockTableRecord
  2
*Paper_Space
340
1E
 70
0
280
1
281
0
  0
BLOCK_RECORD
  5
74
330
9
100
AcDbSymbolTableRecord
100
AcDbBlockTableRecord
  2
_ARCHTICK
340
0
 70
0
280
1
281
0
  0
BLOCK_RECORD
  5
78
330
9
100
AcDbSymbolTableRecord
100
AcDbBlockTableRecord
  2
_CLOSEDFILLED
340
0
 70
0
280
1
281
0
  0
BLOCK_RECORD
  5
84
330
9
100
AcDbSymbolTableRecord
100
AcDbBlockTableRecord
  2
_CLOSEDBLANK
340
0
 70
0
280
1
281
0
  0
ENDTAB
  0
ENDSEC
  0
SECTION
  2
BLOCKS
  0
BLOCK
  5
18
330
17
100
AcDbEntity
  8
0
100
AcDbBlockBegin
  2
*Model_Space
 70
0
 10
0.0
 20
0.0
 30
0.0
  3
*Model_Space
  1

  0
ENDBLK
  5
19
330
17
100
AcDbEntity
  8
0
100
AcDbBlockEnd
  0
BLOCK
  5
1C
330
1B
100
AcDbEntity
  8
0
100
AcDbBlockBegin
  2
*Paper_Space
 70
0
 10
0.0
 20
0.0
 30
0.0
  3
*Paper_Space
  1

  0
ENDBLK
  5
1D
330
1B
100
AcDbEntity
  8
0
100
AcDbBlockEnd
  0
BLOCK
  5
75
330
74
100
AcDbEntity
  8
0
100
AcDbBlockBegin
  2
_ARCHTICK
 70
0
 10
0.0
 20
0.0
 30
0.0
  3
_ARCHTICK
  1

  0
LWPOLYLINE
  5
77
330
74
100
AcDbEntity
  8
0
  6
BYBLOCK
 62
0
100
AcDbPolyline
 90
2
 70
0
 43
0.15
 10
-0.5
 20
-0.5
 10
0.5
 20
0.5
  0
ENDBLK
  5
76
330
74
100
AcDbEntity
  8
0
100
AcDbBlockEnd
  0
BLOCK
  5
79
330
78
100
AcDbEntity
  8
0
100
AcDbBlockBegin
  2
_CLOSEDFILLED
 70
0
 10
0.0
 20
0.0
 30
0.0
  3
_CLOSEDFILLED
  1

  0
SOLID
  5
7B
330
78
100
AcDbEntity
  8
0
  6
BYBLOCK
 62
0
100
AcDbTrace
 10
-1.0
 20
0.16439898372402537
 30
0.0
 11
0.0
 21
0.0
 31
0.0
 12
-1.0
 22
-0.16439898372402537
 32
0.0
 13
-1.0
 23
-0.16439898372402537
 33
0.0
  0
ENDBLK
  5
7A
330
78
100
AcDbEntity
  8
0
100
AcDbBlockEnd
  0
BLOCK
  5
85
330
84
100
AcDbEntity
  8
0
100
AcDbBlockBegin
  2
_CLOSEDBLANK
 70
0
 10
0.0
 20
0.0
 30
0.0
  3
_CLOSEDBLANK
  1

  0
LWPOLYLINE
  5
87
330
84
100
AcDbEntity
  8
0
  6
BYBLOCK
 62
0
100
AcDbPolyline
 90
3
 70
1
 10
-1.0
 20
0.16439898372402537
 10
0.0
 20
0.0
 10
-1.0
 20
-0.16439898372402537
  0
ENDBLK
  5
86
330
84
100
AcDbEntity
  8
0
100
AcDbBlockEnd
  0
ENDSEC
  0
SECTION
  2
ENTITIES
  0
LWPOLYLINE
  5
95
330
17
100
AcDbEntity
  8
CORTE
100
AcDbPolyline
 90
77
 70
1
 10
-1.0000000000000002
 20
-97.0
 10
38.875225
 20
-97.0
 10
26.641248
 20
-21.557142
 10
26.100068
 20
-20.938587
 10
25.746677
 20
-20.535416
 10
25.390684
 20
-20.130769
 10
25.03155
 20
-19.724782
 10
24.668433
 20
-19.317252
 10
24.300496
 20
-18.907981
 10
23.926906
 20
-18.496778
 10
23.546843
 20
-18.083469
 10
23.160414
 20
-17.668844
 10
22.771075
 20
-17.255016
 10
22.384597
 20
-16.84297
 10
22.005541
 20
-16.432234
 10
21.638339
 20
-16.0224
 10
21.287416999999998
 20
-15.61328
 10
20.957145
 20
-15.204906
 10
20.651775999999998
 20
-14.797542
 10
20.375339999999998
 20
-14.391657
 10
20.131521
 20
-13.987873
 10
19.923496
 20
-13.586821
 10
19.753785999999998
 20
-13.188856
 10
19.623387
 20
-12.791221
 10
19.5304
 20
-12.385858
 10
19.471646
 20
-11.966448
 10
19.445508
 20
-11.531529
 10
19.450623999999998
 20
-11.080847
 10
19.485547999999998
 20
-10.61478
 10
19.54861
 20
-10.134155
 10
19.63787
 20
-9.64007
 10
19.751132
 20
-9.133748
 10
19.885973
 20
-8.616444
 10
20.039794999999998
 20
-8.089383
 10
20.209865
 20
-7.553723
 10
20.393345999999998
 20
-7.01054
 10
20.587334
 20
-6.460819
 10
20.788868
 20
-5.905454
 10
21.320404
 20
-4.46055
 10
8.274689
 20
1.233067
 10
7.604548
 20
0.339336
 10
7.408809
 20
0.077721
 10
7.212994
 20
-0.185143
 10
7.0173820000000005
 20
-0.449462
 10
6.822256
 20
-0.715446
 10
6.6279
 20
-0.983308
 10
6.434603
 20
-1.253261
 10
6.242656
 20
-1.525517
 10
6.052355
 20
-1.800293
 10
5.863996
 20
-2.077804
 10
5.677882
 20
-2.358265
 10
5.494319
 20
-2.641893
 10
5.3136149999999995
 20
-2.928902
 10
5.136242
 20
-3.219247
 10
4.963303
 20
-3.51139
 10
4.795078
 20
-3.802922
 10
4.63075
 20
-4.092591
 10
4.469275
 20
-4.379609
 10
4.309653
 20
-4.663199
 10
4.150927
 20
-4.942593
 10
3.992184
 20
-5.217035
 10
3.832553
 20
-5.485785
 10
3.671203
 20
-5.748123
 10
3.5073410000000003
 20
-6.003358
 10
3.3402060000000002
 20
-6.250841
 10
3.1690579999999997
 20
-6.489974
 10
2.9931609999999997
 20
-6.720239
 10
2.8108690000000003
 20
-6.9423
 10
2.619404
 20
-7.159142
 10
2.41765
 20
-7.373491
 10
2.206278
 20
-7.586185
 10
1.986212
 20
-7.797884
 10
1.758442
 20
-8.009276
 10
1.524011
 20
-8.221088
 10
1.322425
 20
-8.4
 10
-1.0000000000000002
 20
-8.4
 10
-1.0000000000000002
 20
-97.0
  0
LWPOLYLINE
  5
96
330
17
100
AcDbEntity
  8
COSTURA
100
AcDbPolyline
 90
77
 70
1
 10
0.0
 20
-9.4
 10
1.7
 20
-9.4
 10
1.9461372114309208
 20
-9.183489070671316
 10
2.1911230351686255
 20
-8.966058943868006
 10
2.433806083519894
 20
-8.746790422115449
 10
2.6730349687915127
 20
-8.524764307939018
 10
2.907658303290262
 20
-8.29906140386409
 10
3.136524699322925
 20
-8.06876251241604
 10
3.3584827691962853
 20
-7.832948436120248
 10
3.5723811252171265
 20
-7.590699977502084
 10
3.777197617466955
 20
-7.341200191163548
 10
3.973182834463885
 20
-7.084639113979522
 10
4.161311146615966
 20
-6.821779434291723
 10
4.342565282091676
 20
-6.553390453046895
 10
4.517927969059487
 20
-6.280241471191783
 10
4.68838193568788
 20
-6.003101789673127
 10
4.8549099101453255
 20
-5.722740709437676
 10
5.018494620600303
 20
-5.43992753143217
 10
5.180118795221287
 20
-5.1554315566033555
 10
5.340765162176753
 20
-4.870022085897976
 10
5.501416449635176
 20
-4.584468420262777
 10
5.663055385765033
 20
-4.299539860644501
 10
5.826664698734799
 20
-4.016005707989893
 10
5.993226961401806
 20
-3.734635142964255
 10
6.16345393201771
 20
-3.4559876125990363
 10
6.337230036760209
 20
-3.1799818327441156
 10
6.514282265311874
 20
-2.906414591821779
 10
6.694337607355274
 20
-2.63508267825431
 10
6.877123052572978
 20
-2.365782880463993
 10
7.062365590647556
 20
-2.0983119868731146
 10
7.249792211261579
 20
-1.8324667859039574
 10
7.439129904097615
 20
-1.5680440659788077
 10
7.630105658838232
 20
-1.3048406155199501
 10
7.8224464651660055
 20
-1.0426532229496683
 10
8.015879312763497
 20
-0.7812786766902476
 10
8.21013119131328
 20
-0.5205137651639731
 10
8.404929090497925
 20
-0.2601552767931289
 10
8.6
 20
-0.0
 10
20.0564392373896
 20
-5.0
 10
19.84959802771455
 20
-5.562267580940364
 10
19.645801650517317
 20
-6.123866169710792
 10
19.4480949382757
 20
-6.684126774141342
 10
19.25952272346752
 20
-7.2423804020620866
 10
19.08312983857059
 20
-7.797958061303079
 10
18.92196111606271
 20
-8.350190759694389
 10
18.779061388421706
 20
-8.898409505066075
 10
18.657475488125385
 20
-9.441945305248204
 10
18.560248247651558
 20
-9.980129168070835
 10
18.49042449947803
 20
-10.512292101364034
 10
18.451049076082626
 20
-11.037765112957864
 10
18.445166809943142
 20
-11.555879210682386
 10
18.4758225335374
 20
-12.065965402367665
 10
18.54606107934321
 20
-12.567354695843761
 10
18.658927279838384
 20
-13.05937809894074
 10
18.817015777873205
 20
-13.541447620396337
 10
19.018439554671197
 20
-14.013781637281662
 10
19.25874127090857
 20
-14.477060994669332
 10
19.533433110351083
 20
-14.931972021226558
 10
19.838027256764505
 20
-15.37920104562056
 10
20.168035893914595
 20
-15.819434396518549
 10
20.518971205567123
 20
-16.253358402587747
 10
20.886345375487853
 20
-16.68165939249535
 10
21.265670587442546
 20
-17.1050236949086
 10
21.652459025196965
 20
-17.524137638494693
 10
22.04222287251688
 20
-17.939687551920844
 10
22.43047431316805
 20
-18.352359763854277
 10
22.813017247128172
 20
-18.762815540544654
 10
23.188779993915375
 20
-19.17144771781536
 10
23.558586779631288
 20
-19.578486247150558
 10
23.923288455857527
 20
-19.984158792541027
 10
24.283735874175697
 20
-20.388693017977552
 10
24.64077988616742
 20
-20.79231658745092
 10
24.9952713434143
 20
-21.195257164951933
 10
25.348061097497954
 20
-21.597742414471355
 10
25.7
 20
-22.0
 10
37.7
 20
-96.0
 10
0.0
 20
-96.0
  0
LINE
  5
97
330
17
100
AcDbEntity
  8
HILO
100
AcDbLine
 10
13.7
 20
-12.4
 30
0.0
 11
13.7
 21
-65.0
 31
0.0
  0
LINE
  5
98
330
17
100
AcDbEntity
  8
HILO
100
AcDbLine
 10
13.7
 20
-65.0
 30
0.0
 11
14.16730201077038
 21
-63.89472680719654
 31
0.0
  0
LINE
  5
99
330
17
100
AcDbEntity
  8
HILO
100
AcDbLine
 10
13.7
 20
-65.0
 30
0.0
 11
13.232697989229617
 21
-63.89472680719654
 31
0.0
  0
LINE
  5
9A
330
17
100
AcDbEntity
  8
HILO
100
AcDbLine
 10
13.7
 20
-12.4
 30
0.0
 11
13.232697989229619
 21
-13.505273192803463
 31
0.0
  0
LINE
  5
9B
330
17
100
AcDbEntity
  8
HILO
100
AcDbLine
 10
13.7
 20
-12.4
 30
0.0
 11
14.16730201077038
 21
-13.505273192803463
 31
0.0
  0
LINE
  5
9C
330
17
100
AcDbEntity
  8
PIQUETES
100
AcDbLine
 10
18.692373523459953
 20
-11.703598913433945
 30
0.0
 11
18.409618470164567
 21
-12.284675138929295
 31
0.0
  0
LINE
  5
9D
330
17
100
AcDbEntity
  8
PIQUETES
100
AcDbLine
 10
18.213629904967878
 20
-11.668892318194464
 30
0.0
 11
18.409618470164567
 21
-12.284675138929295
 31
0.0
  0
LINE
  5
9E
330
17
100
AcDbEntity
  8
PIQUETES
100
AcDbLine
 10
25.882157535009412
 20
-42.85626462312147
 30
0.0
 11
25.309338442196328
 21
-43.15539383752353
 31
0.0
  0
LINE
  5
9F
330
17
100
AcDbEntity
  8
PIQUETES
100
AcDbLine
 10
25.517842464990586
 20
-42.54373537687854
 30
0.0
 11
25.309338442196328
 21
-43.15539383752353
 31
0.0
  0
CIRCLE
  5
A0
330
17
100
AcDbEntity
  8
CENTROS
100
AcDbCircle
 10
14.9
 20
-25.0
 30
0.0
 40
0.15
  0
LINE
  5
A1
330
17
100
AcDbEntity
  8
CONSTRUCCION
100
AcDbLine
 10
1.7
 20
-9.4
 30
0.0
 11
1.7
 21
-68.0
 31
0.0
  0
CIRCLE
  5
A2
330
17
100
AcDbEntity
  8
BOTONES
100
AcDbCircle
 10
1.7
 20
-10.9
 30
0.0
 40
0.55
  0
CIRCLE
  5
A3
330
17
100
AcDbEntity
  8
BOTONES
100
AcDbCircle
 10
1.7
 20
-19.416666666666668
 30
0.0
 40
0.55
  0
CIRCLE
  5
A4
330
17
100
AcDbEntity
  8
BOTONES
100
AcDbCircle
 10
1.7
 20
-27.933333333333337
 30
0.0
 40
0.55
  0
CIRCLE
  5
A5
330
17
100
AcDbEntity
  8
BOTONES
100
AcDbCircle
 10
1.7
 20
-36.45
 30
0.0
 40
0.55
  0
CIRCLE
  5
A6
330
17
100
AcDbEntity
  8
BOTONES
100
AcDbCircle
 10
1.7
 20
-44.96666666666667
 30
0.0
 40
0.55
  0
CIRCLE
  5
A7
330
17
100
AcDbEntity
  8
BOTONES
100
AcDbCircle
 10
1.7
 20
-53.483333333333334
 30
0.0
 40
0.55
  0
CIRCLE
  5
A8
330
17
100
AcDbEntity
  8
BOTONES
100
AcDbCircle
 10
1.7
 20
-62.0
 30
0.0
 40
0.55
  0
LINE
  5
A9
330
17
100
AcDbEntity
  8
OJAL
100
AcDbLine
 10
0.8999999999999999
 20
-10.9
 30
0.0
 11
2.5
 21
-10.9
 31
0.0
  0
LINE
  5
AA
330
17
100
AcDbEntity
  8
OJAL
100
AcDbLine
 10
0.8999999999999999
 20
-19.416666666666668
 30
0.0
 11
2.5
 21
-19.416666666666668
 31
0.0
  0
LINE
  5
AB
330
17
100
AcDbEntity
  8
OJAL
100
AcDbLine
 10
0.8999999999999999
 20
-27.933333333333337
 30
0.0
 11
2.5
 21
-27.933333333333337
 31
0.0
  0
LINE
  5
AC
330
17
100
AcDbEntity
  8
OJAL
100
AcDbLine
 10
0.8999999999999999
 20
-36.45
 30
0.0
 11
2.5
 21
-36.45
 31
0.0
  0
LINE
  5
AD
330
17
100
AcDbEntity
  8
OJAL
100
AcDbLine
 10
0.8999999999999999
 20
-44.96666666666667
 30
0.0
 11
2.5
 21
-44.96666666666667
 31
0.0
  0
LINE
  5
AE
330
17
100
AcDbEntity
  8
OJAL
100
AcDbLine
 10
0.8999999999999999
 20
-53.483333333333334
 30
0.0
 11
2.5
 21
-53.483333333333334
 31
0.0
  0
LINE
  5
AF
330
17
100
AcDbEntity
  8
OJAL
100
AcDbLine
 10
0.8999999999999999
 20
-62.0
 30
0.0
 11
2.5
 21
-62.0
 31
0.0
  0
TEXT
  5
B0
330
17
100
AcDbEntity
  8
REFERENCIAS
100
AcDbText
 10
1.7
 20
-8.4
 30
0.0
 40
0.5
  1
CF
 11
1.7
 21
-8.4
 31
0.0
100
AcDbText
  0
TEXT
  5
B1
330
17
100
AcDbEntity
  8
TEXTOS
100
AcDbText
 10
15.328155513256883
 20
-52.090450080550156
 30
0.0
 40
0.9
  1
DELANTERO (vestido)
 72
1
 11
15.328155513256883
 21
-52.090450080550156
 31
0.0
100
AcDbText
 73
2
  0
TEXT
  5
B2
330
17
100
AcDbEntity
  8
TEXTOS
100
AcDbText
 10
15.328155513256883
 20
-53.490450080550154
 30
0.0
 40
0.6
  1
Pieza N.01
 72
1
 11
15.328155513256883
 21
-53.490450080550154
 31
0.0
100
AcDbText
 73
2
  0
TEXT
  5
B3
330
17
100
AcDbEntity
  8
TEXTOS
100
AcDbText
 10
15.328155513256883
 20
-54.89045008055015
 30
0.0
 40
0.6
  1
Talla: S
 72
1
 11
15.328155513256883
 21
-54.89045008055015
 31
0.0
100
AcDbText
 73
2
  0
TEXT
  5
B4
330
17
100
AcDbEntity
  8
TEXTOS
100
AcDbText
 10
15.328155513256883
 20
-56.29045008055016
 30
0.0
 40
0.6
  1
Cortar: 2  (par: izq + der)
 72
1
 11
15.328155513256883
 21
-56.29045008055016
 31
0.0
100
AcDbText
 73
2
  0
LWPOLYLINE
  5
B5
330
17
100
AcDbEntity
  8
CORTE
100
AcDbPolyline
 90
31
 70
1
 10
68.652606
 20
-11.627182000000001
 10
68.24488
 20
-11.012025000000001
 10
67.956334
 20
-10.57641
 10
67.667847
 20
-10.140343999999999
 10
67.379368
 20
-9.703479999999999
 10
67.090845
 20
-9.265471999999999
 10
66.802226
 20
-8.825972
 10
66.51346000000001
 20
-8.384633999999998
 10
66.224504
 20
-7.941127000000002
 10
65.935746
 20
-7.495736000000001
 10
65.648979
 20
-7.049512
 10
65.366721
 20
-6.603052000000002
 10
65.091082
 20
-6.156303999999999
 10
64.824129
 20
-5.7092220000000005
 10
64.567903
 20
-5.261805000000001
 10
64.324413
 20
-4.814093
 10
64.09562
 20
-4.366158
 10
63.883430000000004
 20
-3.9180960000000002
 10
63.689674000000004
 20
-3.470008
 10
63.51609500000001
 20
-3.0219819999999995
 10
63.36434200000001
 20
-2.5740560000000006
 10
63.235945
 20
-2.1261279999999996
 10
63.131893000000005
 20
-1.67624
 10
63.051451
 20
-1.220459
 10
62.992833000000005
 20
-0.756589
 10
62.95464200000001
 20
-0.2845639999999996
 10
62.903386
 20
1.0
 10
43.7
 20
1.0
 10
43.7
 20
-87.0
 10
80.875225
 20
-87.0
 10
68.652606
 20
-11.627182000000001
  0
LWPOLYLINE
  5
B6
330
17
100
AcDbEntity
  8
COSTURA
100
AcDbPolyline
 90
30
 70
1
 10
43.7
 20
-0.0
 10
61.94249141613643
 20
-0.0
 10
61.95625133756502
 20
-0.34484627035005033
 10
61.99790344158414
 20
-0.8596499941285689
 10
62.06241306962703
 20
-1.3701373864734219
 10
62.15168501536235
 20
-1.87594875309847
 10
62.26750927300081
 20
-2.376739492642356
 10
62.40960019683118
 20
-2.872437892464548
 10
62.57586886747531
 20
-3.3632093200842377
 10
62.76416637745514
 20
-3.8492270297815487
 10
62.97234381929262
 20
-4.330664275836616
 10
63.19825228550965
 20
-4.8076943125295735
 10
63.4397428686282
 20
-5.280490394140543
 10
63.69466666117019
 20
-5.749225774949659
 10
63.96087475565754
 20
-6.214073709237045
 10
64.2362182446122
 20
-6.675207451282841
 10
64.5185482205561
 20
-7.132800255367169
 10
64.80571577601117
 20
-7.5870253757701605
 10
65.09557200349936
 20
-8.038056066771947
 10
65.38603044988297
 20
-8.486070438993469
 10
65.67613080533738
 20
-8.931334169999925
 10
65.96588949611586
 20
-9.374188886654121
 10
66.25535533145786
 20
-9.814978733863533
 10
66.54457712060278
 20
-10.254047856535614
 10
66.83360367279005
 20
-10.691740399577839
 10
67.12248379725906
 20
-11.12840050789767
 10
67.41126630324923
 20
-11.564372326402566
 10
67.7
 20
-12.0
 10
79.7
 20
-86.0
 10
43.7
 20
-86.0
  0
LINE
  5
B7
330
17
100
AcDbEntity
  8
DOBLEZ
100
AcDbLine
 10
43.7
 20
-0.0
 30
0.0
 11
43.7
 21
-86.0
 31
0.0
  0
LINE
  5
B8
330
17
100
AcDbEntity
  8
HILO
100
AcDbLine
 10
44.2
 20
-3.0
 30
0.0
 11
44.2
 21
-55.0
 31
0.0
  0
LINE
  5
B9
330
17
100
AcDbEntity
  8
HILO
100
AcDbLine
 10
44.2
 20
-55.0
 30
0.0
 11
44.667302010770385
 21
-53.89472680719654
 31
0.0
  0
LINE
  5
BA
330
17
100
AcDbEntity
  8
HILO
100
AcDbLine
 10
44.2
 20
-55.0
 30
0.0
 11
43.73269798922962
 21
-53.89472680719654
 31
0.0
  0
LINE
  5
BB
330
17
100
AcDbEntity
  8
HILO
100
AcDbLine
 10
44.2
 20
-3.0
 30
0.0
 11
43.73269798922962
 21
-4.1052731928034625
 31
0.0
  0
LINE
  5
BC
330
17
100
AcDbEntity
  8
HILO
100
AcDbLine
 10
44.2
 20
-3.0
 30
0.0
 11
44.667302010770385
 21
-4.1052731928034625
 31
0.0
  0
LINE
  5
BD
330
17
100
AcDbEntity
  8
PIQUETES
100
AcDbLine
 10
53.059562520771436
 20
0.02837422744283521
 30
0.0
 11
52.89218127667531
 21
-0.5957920317580533
 31
0.0
  0
LINE
  5
BE
330
17
100
AcDbEntity
  8
PIQUETES
100
AcDbLine
 10
52.582928895365
 20
-0.02837422744283521
 30
0.0
 11
52.89218127667531
 21
-0.5957920317580533
 31
0.0
  0
TEXT
  5
BF
330
17
100
AcDbEntity
  8
REFERENCIAS
100
AcDbText
 10
44.0
 20
-29.0
 30
0.0
 40
0.5
  1
CB
 11
44.0
 21
-29.0
 31
0.0
100
AcDbText
  0
TEXT
  5
C0
330
17
100
AcDbEntity
  8
TEXTOS
100
AcDbText
 10
58.413211764794625
 20
-43.367253295918374
 30
0.0
 40
0.9
  1
ESPALDA (vestido)
 72
1
 11
58.413211764794625
 21
-43.367253295918374
 31
0.0
100
AcDbText
 73
2
  0
TEXT
  5
C1
330
17
100
AcDbEntity
  8
TEXTOS
100
AcDbText
 10
58.413211764794625
 20
-44.76725329591837
 30
0.0
 40
0.6
  1
Pieza N.02
 72
1
 11
58.413211764794625
 21
-44.76725329591837
 31
0.0
100
AcDbText
 73
2
  0
TEXT
  5
C2
330
17
100
AcDbEntity
  8
TEXTOS
100
AcDbText
 10
58.413211764794625
 20
-46.16725329591837
 30
0.0
 40
0.6
  1
Talla: S
 72
1
 11
58.413211764794625
 21
-46.16725329591837
 31
0.0
100
AcDbText
 73
2
  0
TEXT
  5
C3
330
17
100
AcDbEntity
  8
TEXTOS
100
AcDbText
 10
58.413211764794625
 20
-47.56725329591838
 30
0.0
 40
0.6
  1
Cortar: 1  (al doblez)
 72
1
 11
58.413211764794625
 21
-47.56725329591838
 31
0.0
100
AcDbText
 73
2
  0
TEXT
  5
C4
330
17
100
AcDbEntity
  8
TEXTOS
100
AcDbText
 10
58.413211764794625
 20
-48.967253295918375
 30
0.0
 40
0.6
  1
AL DOBLEZ
 72
1
 11
58.413211764794625
 21
-48.967253295918375
 31
0.0
100
AcDbText
 73
2
  0
LWPOLYLINE
  5
C5
330
17
100
AcDbEntity
  8
CORTE
100
AcDbPolyline
 90
45
 70
1
 10
104.935489
 20
-9.804563
 10
104.933947
 20
-9.316882
 10
104.948537
 20
-8.821899
 10
104.97771900000001
 20
-8.320048
 10
105.019895
 20
-7.811795
 10
105.073413
 20
-7.29762
 10
105.136566
 20
-6.778004
 10
105.207604
 20
-6.253417
 10
105.284735
 20
-5.724311
 10
105.366134
 20
-5.191114
 10
105.574323
 20
-3.857385
 10
92.671369
 20
1.121501
 10
92.032261
 20
0.68739
 10
91.829432
 20
0.550901
 10
91.629102
 20
0.418603
 10
91.430774
 20
0.291304
 10
91.233968
 20
0.169754
 10
91.03821
 20
0.054642
 10
90.84236
 20
-0.053776
 10
90.64441000000001
 20
-0.15605
 10
90.443353
 20
-0.252689
 10
90.239377
 20
-0.3436
 10
90.032785
 20
-0.428638
 10
89.823881
 20
-0.507662
 10
89.61297
 20
-0.580539
 10
89.400361
 20
-0.64714
 10
89.186361
 20
-0.707341
 10
88.971278
 20
-0.761027
 10
88.75532100000001
 20
-0.808108
 10
88.53784300000001
 20
-0.848697
 10
88.31769200000001
 20
-0.883284
 10
88.09443900000001
 20
-0.912359
 10
87.868087
 20
-0.936344
 10
87.638667
 20
-0.955672
 10
87.406234
 20
-0.970791
 10
87.170855
 20
-0.982165
 10
86.932609
 20
-0.990277
 10
86.691581
 20
-0.995625
 10
86.44785900000001
 20
-0.998729
 10
86.201533
 20
-1.000121
 10
85.952689
 20
-1.000356
 10
85.7
 20
-0.999999
 10
85.7
 20
-11.0
 10
104.98318900000001
 20
-11.0
 10
104.935489
 20
-9.804563
  0
LWPOLYLINE
  5
C6
330
17
100
AcDbEntity
  8
COSTURA
100
AcDbPolyline
 90
44
 70
1
 10
85.7
 20
-2.0
 10
85.95245430921342
 20
-2.000356362819071
 10
86.20483086291524
 20
-2.000118589548962
 10
86.45705190559389
 20
-1.9986925441004932
 10
86.70903968173775
 20
-1.9954840903844853
 10
86.96071643583527
 20
-1.9898990923117574
 10
87.21200441237482
 20
-1.9813434137931305
 10
87.46282585584484
 20
-1.9692229187394246
 10
87.71310301073372
 20
-1.95294347106146
 10
87.96275812152987
 20
-1.931910934670056
 10
88.21171343272172
 20
-1.9055311734760334
 10
88.45989118879767
 20
-1.8732100513902123
 10
88.70721363424613
 20
-1.834353432323413
 10
88.95360257343721
 20
-1.7883688169067025
 10
89.19891975774915
 20
-1.7348870319789147
 10
89.44290645846002
 20
-1.6739869480655807
 10
89.6852895518145
 20
-1.605800968215919
 10
89.9257959140573
 20
-1.5304614954791496
 10
90.16415242143313
 20
-1.4481009329044927
 10
90.40008595018666
 20
-1.3588516835411673
 10
90.63332337656261
 20
-1.2628461504383937
 10
90.86359157680567
 20
-1.1602167366453915
 10
91.09061742716054
 20
-1.0510958452113799
 10
91.31412780387191
 20
-0.9356158791855783
 10
91.53389863733646
 20
-0.8139548483733253
 10
91.75020863974197
 20
-0.6867582101985938
 10
91.96363149198662
 20
-0.5549456611761411
 10
92.17474462410257
 20
-0.419440383475511
 10
92.384125466122
 20
-0.28116555926624787
 10
92.5923514480771
 20
-0.1410443707178966
 10
92.8
 20
-0.0
 10
104.46190378969061
 20
-4.5
 10
104.37783951157896
 20
-5.038543546663693
 10
104.29568002713596
 20
-5.576727399041247
 10
104.21733013003025
 20
-6.114191862846523
 10
104.14469461393048
 20
-6.650577243793381
 10
104.07967827250532
 20
-7.185523847595685
 10
104.02418589942339
 20
-7.718671979967294
 10
103.98012228835334
 20
-8.24966194662207
 10
103.94939223296385
 20
-8.77813405327387
 10
103.93390052692352
 20
-9.303728605636561
 10
103.93555196390102
 20
-9.826085909424
 10
103.94249141613642
 20
-10.0
 10
85.7
 20
-10.0
  0
LINE
  5
C7
330
17
100
AcDbEntity
  8
DOBLEZ
100
AcDbLine
 10
85.7
 20
-0.0
 30
0.0
 11
85.7
 21
-10.0
 31
0.0
  0
LINE
  5
C8
330
17
100
AcDbEntity
  8
HILO
100
AcDbLine
 10
89.96000000000001
 20
-1.0
 30
0.0
 11
89.96000000000001
 21
-9.5
 31
0.0
  0
LINE
  5
C9
330
17
100
AcDbEntity
  8
HILO
100
AcDbLine
 10
89.96000000000001
 20
-9.5
 30
0.0
 11
90.42730201077039
 21
-8.394726807196538
 31
0.0
  0
LINE
  5
CA
330
17
100
AcDbEntity
  8
HILO
100
AcDbLine
 10
89.96000000000001
 20
-9.5
 30
0.0
 11
89.49269798922963
 21
-8.394726807196538
 31
0.0
  0
LINE
  5
CB
330
17
100
AcDbEntity
  8
HILO
100
AcDbLine
 10
89.96000000000001
 20
-1.0
 30
0.0
 11
89.49269798922963
 21
-2.105273192803462
 31
0.0
  0
LINE
  5
CC
330
17
100
AcDbEntity
  8
HILO
100
AcDbLine
 10
89.96000000000001
 20
-1.0
 30
0.0
 11
90.42730201077038
 21
-2.105273192803462
 31
0.0
  0
LINE
  5
CD
330
17
100
AcDbEntity
  8
PIQUETES
100
AcDbLine
 10
94.58216835266641
 20
-10.02102422731226
 30
0.0
 11
94.76868513978756
 21
-9.40230661149548
 31
0.0
  0
LINE
  5
CE
330
17
100
AcDbEntity
  8
PIQUETES
100
AcDbLine
 10
95.06032306347002
 20
-9.97897577268774
 30
0.0
 11
94.76868513978756
 21
-9.40230661149548
 31
0.0
  0
TEXT
  5
CF
330
17
100
AcDbEntity
  8
TEXTOS
100
AcDbText
 10
94.4579030326492
 20
-2.2682426396169926
 30
0.0
 40
0.9
  1
CANESU
 72
1
 11
94.4579030326492
 21
-2.2682426396169926
 31
0.0
100
AcDbText
 73
2
  0
TEXT
  5
D0
330
17
100
AcDbEntity
  8
TEXTOS
100
AcDbText
 10
94.4579030326492
 20
-3.6682426396169925
 30
0.0
 40
0.6
  1
Pieza N.03
 72
1
 11
94.4579030326492
 21
-3.6682426396169925
 31
0.0
100
AcDbText
 73
2
  0
TEXT
  5
D1
330
17
100
AcDbEntity
  8
TEXTOS
100
AcDbText
 10
94.4579030326492
 20
-5.068242639616992
 30
0.0
 40
0.6
  1
Talla: S
 72
1
 11
94.4579030326492
 21
-5.068242639616992
 31
0.0
100
AcDbText
 73
2
  0
TEXT
  5
D2
330
17
100
AcDbEntity
  8
TEXTOS
100
AcDbText
 10
94.4579030326492
 20
-6.468242639616992
 30
0.0
 40
0.6
  1
Cortar: 2  (al doblez x2 (exterior+interior))
 72
1
 11
94.4579030326492
 21
-6.468242639616992
 31
0.0
100
AcDbText
 73
2
  0
TEXT
  5
D3
330
17
100
AcDbEntity
  8
TEXTOS
100
AcDbText
 10
94.4579030326492
 20
-7.868242639616993
 30
0.0
 40
0.6
  1
AL DOBLEZ
 72
1
 11
94.4579030326492
 21
-7.868242639616993
 31
0.0
100
AcDbText
 73
2
  0
LWPOLYLINE
  5
D4
330
17
100
AcDbEntity
  8
CORTE
100
AcDbPolyline
 90
68
 70
1
 10
114.03946223112722
 20
-61.0
 10
139.86816623112722
 20
-61.0
 10
144.4806672311272
 20
-9.55501
 10
143.7743242311272
 20
-8.770377
 10
143.3535172311272
 20
-8.308235
 10
142.9240412311272
 20
-7.847223
 10
142.48384423112722
 20
-7.390626
 10
142.0331702311272
 20
-6.942787
 10
141.5742482311272
 20
-6.505447
 10
141.1080732311272
 20
-6.078092
 10
140.63526523112722
 20
-5.659845
 10
140.1564332311272
 20
-5.249826
 10
139.6721722311272
 20
-4.847154
 10
139.1830672311272
 20
-4.450948
 10
138.68969423112722
 20
-4.06033
 10
138.1926142311272
 20
-3.674423
 10
137.69172123112722
 20
-3.291853
 10
137.1849822311272
 20
-2.911142
 10
136.6699022311272
 20
-2.533646
 10
136.1453432311272
 20
-2.162283
 10
135.6103282311272
 20
-1.800179
 10
135.06382523112723
 20
-1.450516
 10
134.5047682311272
 20
-1.11655
 10
133.93207323112722
 20
-0.801637
 10
133.3446772311272
 20
-0.509244
 10
132.7415862311272
 20
-0.242977
 10
132.12345523112722
 20
-0.007149
 10
131.49537423112722
 20
0.194997
 10
130.8630832311272
 20
0.366022
 10
130.2288312311272
 20
0.510502
 10
129.5941622311272
 20
0.633071
 10
128.9604952311272
 20
0.738231
 10
128.3291792311272
 20
0.830341
 10
127.70154723112721
 20
0.913618
 10
126.98004923112721
 20
1.004613
 10
126.2448882311272
 20
0.950673
 10
125.60414223112721
 20
0.899651
 10
124.95957223112721
 20
0.840208
 10
124.3123252311272
 20
0.768175
 10
123.66355223112721
 20
0.679244
 10
123.01445023112721
 20
0.56897
 10
122.36632123112722
 20
0.432773
 10
121.72073223112722
 20
0.265977
 10
121.08187023112721
 20
0.064731
 10
120.45560423112721
 20
-0.170192
 10
119.8442392311272
 20
-0.434539
 10
119.24718123112721
 20
-0.724801
 10
118.66359923112721
 20
-1.037641
 10
118.09261123112721
 20
-1.369834
 10
117.53331923112721
 20
-1.718259
 10
116.98483823112721
 20
-2.079876
 10
116.44631723112721
 20
-2.45171
 10
115.91694123112721
 20
-2.830838
 10
115.3951222311272
 20
-3.214987
 10
114.87790423112722
 20
-3.60468
 10
114.3646762311272
 20
-4.003146
 10
113.85727623112722
 20
-4.412571
 10
113.35791823112721
 20
-4.834934
 10
112.86887323112721
 20
-5.272251
 10
112.3924872311272
 20
-5.726563
 10
111.93119923112721
 20
-6.199912
 10
111.48755823112721
 20
-6.694311
 10
111.0647232311272
 20
-7.211111
 10
110.66837023112721
 20
-7.746369
 10
110.29859923112721
 20
-8.289585
 10
109.94940123112721
 20
-8.832781
 10
109.43592523112721
 20
-9.654995
 10
114.03946223112722
 20
-61.0
  0
LWPOLYLINE
  5
D5
330
17
100
AcDbEntity
  8
COSTURA
100
AcDbPolyline
 90
67
 70
1
 10
110.46190378969061
 20
-9.9
 10
110.79412029060265
 20
-9.368030985769025
 10
111.13265986170111
 20
-8.84141406878231
 10
111.48384557317247
 20
-8.325501346284105
 10
111.85399060030421
 20
-7.825636603203356
 10
112.24707228144396
 20
-7.345201379750659
 10
112.661734298511
 20
-6.883096621204111
 10
113.09587934488307
 20
-6.437600797519527
 10
113.54741011393791
 20
-6.006992378652719
 10
114.0142292990533
 20
-5.589549834559495
 10
114.49423959360695
 20
-5.183551635195668
 10
114.98534369097663
 20
-4.78727625051705
 10
115.48544428454008
 20
-4.399002150479453
 10
115.99244406767505
 20
-4.017007805038686
 10
116.50452008290287
 20
-3.6400320528100965
 10
117.02158256530028
 20
-3.269722097724244
 10
117.54421667417024
 20
-2.908857693123902
 10
118.07300909005681
 20
-2.5602211450542884
 10
118.60854649350404
 20
-2.2265947595606237
 10
119.151415565056
 20
-1.9107608426881288
 10
119.70220298525676
 20
-1.6155017004820236
 10
120.26149543465036
 20
-1.343599638987529
 10
120.82987959378087
 20
-1.0978369642498653
 10
121.40794214319236
 20
-0.8809959823142517
 10
121.996221611122
 20
-0.6956832284719642
 10
122.59433814198778
 20
-0.5411528541558391
 10
123.2010876915075
 20
-0.4136504681425659
 10
123.81523697130204
 20
-0.3093149292460229
 10
124.43555269299226
 20
-0.2242850962800881
 10
125.06080156819903
 20
-0.1546998280586402
 10
125.6897503085432
 20
-0.09669798339555731
 10
126.32116562564563
 20
-0.04641842110471781
 10
126.95381423112721
 20
-0.0
 10
127.5732154165973
 20
-0.07811885473164337
 10
128.1912211806063
 20
-0.1601183756929348
 10
128.8064361016932
 20
-0.24987922911352234
 10
129.41746475839693
 20
-0.35128208122305404
 10
130.02291172925646
 20
-0.46820759825117786
 10
130.62138159281068
 20
-0.6045364464275419
 10
131.21147892759856
 20
-0.764149291981794
 10
131.79180831215905
 20
-0.9509268011435831
 10
132.36116343653822
 20
-1.1681450005706062
 10
132.91969566990625
 20
-1.4147390571978877
 10
133.46814960016144
 20
-1.687747460580514
 10
134.00727230078795
 20
-1.9842007531974761
 10
134.53781084526986
 20
-2.301129477527764
 10
135.0605123070914
 20
-2.6355641760503685
 10
135.5761237597366
 20
-2.9845353912442807
 10
136.08539227668965
 20
-3.3450736655884907
 10
136.5890649314347
 20
-3.714209541561989
 10
137.08788879745583
 20
-4.088973561643766
 10
137.58249433656607
 20
-4.466741623983247
 10
138.0726952347304
 20
-4.847308579890489
 10
138.55795601311777
 20
-5.231503362779292
 10
139.03773987758072
 20
-5.620158801488009
 10
139.51151003397186
 20
-6.014107724854993
 10
139.97872968814372
 20
-6.414182961718596
 10
140.43886204594884
 20
-6.82121734091717
 10
140.89137031323983
 20
-7.2360436912890655
 10
141.33571769586922
 20
-7.65949484167264
 10
141.77136739968958
 20
-8.092403620906243
 10
142.19818439132484
 20
-8.535122022952523
 10
142.61794912571278
 20
-8.985709549199232
 10
143.03301229133078
 20
-9.441543234768883
 10
143.4457246725638
 20
-9.9
 10
138.9538142311272
 20
-60.0
 10
114.95381423112721
 20
-60.0
  0
LINE
  5
D6
330
17
100
AcDbEntity
  8
HILO
100
AcDbLine
 10
126.95381423112721
 20
-3.9600000000000004
 30
0.0
 11
126.95381423112721
 21
-58.0
 31
0.0
  0
LINE
  5
D7
330
17
100
AcDbEntity
  8
HILO
100
AcDbLine
 10
126.95381423112721
 20
-58.0
 30
0.0
 11
127.4211162418976
 21
-56.89472680719654
 31
0.0
  0
LINE
  5
D8
330
17
100
AcDbEntity
  8
HILO
100
AcDbLine
 10
126.95381423112721
 20
-58.0
 30
0.0
 11
126.48651222035683
 21
-56.89472680719654
 31
0.0
  0
LINE
  5
D9
330
17
100
AcDbEntity
  8
HILO
100
AcDbLine
 10
126.95381423112721
 20
-3.9600000000000004
 30
0.0
 11
126.48651222035683
 21
-5.065273192803462
 31
0.0
  0
LINE
  5
DA
330
17
100
AcDbEntity
  8
HILO
100
AcDbLine
 10
126.95381423112721
 20
-3.9600000000000004
 30
0.0
 11
127.4211162418976
 21
-5.065273192803462
 31
0.0
  0
LINE
  5
DB
330
17
100
AcDbEntity
  8
PIQUETES
100
AcDbLine
 10
135.27332478032645
 20
-2.693025469495347
 30
0.0
 11
134.8721152952529
 21
-3.1996130227248356
 31
0.0
  0
LINE
  5
DC
330
17
100
AcDbEntity
  8
PIQUETES
100
AcDbLine
 10
134.8132755753203
 20
-2.5560775634389845
 30
0.0
 11
134.8721152952529
 21
-3.1996130227248356
 31
0.0
  0
LINE
  5
DD
330
17
100
AcDbEntity
  8
PIQUETES
100
AcDbLine
 10
118.69730698523884
 20
-2.244182012549656
 30
0.0
 11
118.64304932039887
 21
-2.8881199799084025
 31
0.0
  0
LINE
  5
DE
330
17
100
AcDbEntity
  8
PIQUETES
100
AcDbLine
 10
118.23824420365625
 20
-2.384400993310714
 30
0.0
 11
118.64304932039887
 21
-2.8881199799084025
 31
0.0
  0
LINE
  5
DF
330
17
100
AcDbEntity
  8
PIQUETES
100
AcDbLine
 10
117.36327434455767
 20
-3.1071384477404758
 30
0.0
 11
117.3436232145085
 21
-3.7530593663425833
 31
0.0
  0
LINE
  5
E0
330
17
100
AcDbEntity
  8
PIQUETES
100
AcDbLine
 10
116.91239064068058
 20
-3.2717710252519723
 30
0.0
 11
117.3436232145085
 21
-3.7530593663425833
 31
0.0
  0
CIRCLE
  5
E1
330
17
100
AcDbEntity
  8
CENTROS
100
AcDbCircle
 10
131.07679184148637
 20
-48.0
 30
0.0
 40
0.15
  0
LINE
  5
E2
330
17
100
AcDbEntity
  8
CONSTRUCCION
100
AcDbLine
 10
131.07679184148637
 20
-60.0
 30
0.0
 11
131.07679184148637
 21
-48.0
 31
0.0
  0
TEXT
  5
E3
330
17
100
AcDbEntity
  8
TEXTOS
100
AcDbText
 10
126.90901577036908
 20
-27.250059315053058
 30
0.0
 40
0.9
  1
MANGA
 72
1
 11
126.90901577036908
 21
-27.250059315053058
 31
0.0
100
AcDbText
 73
2
  0
TEXT
  5
E4
330
17
100
AcDbEntity
  8
TEXTOS
100
AcDbText
 10
126.90901577036908
 20
-28.650059315053056
 30
0.0
 40
0.6
  1
Pieza N.04
 72
1
 11
126.90901577036908
 21
-28.650059315053056
 31
0.0
100
AcDbText
 73
2
  0
TEXT
  5
E5
330
17
100
AcDbEntity
  8
TEXTOS
100
AcDbText
 10
126.90901577036908
 20
-30.05005931505306
 30
0.0
 40
0.6
  1
Talla: S
 72
1
 11
126.90901577036908
 21
-30.05005931505306
 31
0.0
100
AcDbText
 73
2
  0
TEXT
  5
E6
330
17
100
AcDbEntity
  8
TEXTOS
100
AcDbText
 10
126.90901577036908
 20
-31.450059315053057
 30
0.0
 40
0.6
  1
Cortar: 2  (par: izq + der)
 72
1
 11
126.90901577036908
 21
-31.450059315053057
 31
0.0
100
AcDbText
 73
2
  0
LWPOLYLINE
  5
E7
330
17
100
AcDbEntity
  8
CORTE
100
AcDbPolyline
 90
37
 70
1
 10
-1.0
 20
-113.249127
 10
-0.970159
 20
-113.552107
 10
-0.867453
 20
-113.890682
 10
-0.700668
 20
-114.202715
 10
-0.476214
 20
-114.476214
 10
-0.202715
 20
-114.70066800000001
 10
0.109318
 20
-114.867453
 10
0.447893
 20
-114.970159
 10
0.750873
 20
-115.0
 10
22.249127
 20
-115.0
 10
22.552107
 20
-114.970159
 10
22.890682
 20
-114.867453
 10
23.202715
 20
-114.70066800000001
 10
23.476214
 20
-114.476214
 10
23.700668
 20
-114.202715
 10
23.867453
 20
-113.890682
 10
23.970159
 20
-113.552107
 10
24.0
 20
-113.249127
 10
24.0
 20
-102.750873
 10
23.970159
 20
-102.447893
 10
23.867453
 20
-102.109318
 10
23.700668
 20
-101.797285
 10
23.476214
 20
-101.523786
 10
23.202715
 20
-101.299332
 10
22.890682
 20
-101.132547
 10
22.552107
 20
-101.029841
 10
22.249127
 20
-101.0
 10
0.750873
 20
-101.0
 10
0.447893
 20
-101.029841
 10
0.109318
 20
-101.132547
 10
-0.202715
 20
-101.299332
 10
-0.476214
 20
-101.523786
 10
-0.700668
 20
-101.797285
 10
-0.867453
 20
-102.109318
 10
-0.970159
 20
-102.447893
 10
-1.0
 20
-102.750873
 10
-1.0
 20
-113.249127
  0
LWPOLYLINE
  5
E8
330
17
100
AcDbEntity
  8
COSTURA
100
AcDbPolyline
 90
36
 70
1
 10
0.0
 20
-102.8
 10
0.015371775677415656
 20
-102.64392774238709
 10
0.060896373990970476
 20
-102.49385325410793
 10
0.1348243101579636
 20
-102.35554381358432
 10
0.23431457505076192
 20
-102.23431457505076
 10
0.3555438135843183
 20
-102.13482431015797
 10
0.49385325410792774
 20
-102.06089637399097
 10
0.643927742387097
 20
-102.01537177567742
 10
0.7999999999999999
 20
-102.0
 10
22.2
 20
-102.0
 10
22.3560722576129
 20
-102.01537177567741
 10
22.50614674589207
 20
-102.06089637399097
 10
22.64445618641568
 20
-102.13482431015797
 10
22.765685424949236
 20
-102.23431457505076
 10
22.865175689842037
 20
-102.35554381358432
 10
22.93910362600903
 20
-102.49385325410793
 10
22.984628224322584
 20
-102.64392774238709
 10
23.0
 20
-102.8
 10
23.0
 20
-113.2
 10
22.984628224322584
 20
-113.35607225761291
 10
22.93910362600903
 20
-113.50614674589207
 10
22.865175689842037
 20
-113.64445618641568
 10
22.765685424949236
 20
-113.76568542494924
 10
22.64445618641568
 20
-113.86517568984203
 10
22.50614674589207
 20
-113.93910362600903
 10
22.3560722576129
 20
-113.98462822432259
 10
22.2
 20
-114.0
 10
0.8
 20
-114.0
 10
0.6439277423870975
 20
-113.98462822432259
 10
0.49385325410792824
 20
-113.93910362600903
 10
0.35554381358431847
 20
-113.86517568984203
 10
0.23431457505076203
 20
-113.76568542494924
 10
0.1348243101579637
 20
-113.64445618641568
 10
0.06089637399097059
 20
-113.50614674589207
 10
0.015371775677415656
 20
-113.35607225761291
 10
0.0
 20
-113.2
  0
LINE
  5
E9
330
17
100
AcDbEntity
  8
HILO
100
AcDbLine
 10
11.5
 20
-102.5
 30
0.0
 11
11.5
 21
-113.5
 31
0.0
  0
LINE
  5
EA
330
17
100
AcDbEntity
  8
HILO
100
AcDbLine
 10
11.5
 20
-113.5
 30
0.0
 11
11.96730201077038
 21
-112.39472680719653
 31
0.0
  0
LINE
  5
EB
330
17
100
AcDbEntity
  8
HILO
100
AcDbLine
 10
11.5
 20
-113.5
 30
0.0
 11
11.032697989229618
 21
-112.39472680719653
 31
0.0
  0
LINE
  5
EC
330
17
100
AcDbEntity
  8
HILO
100
AcDbLine
 10
11.5
 20
-102.5
 30
0.0
 11
11.03269798922962
 21
-103.60527319280347
 31
0.0
  0
LINE
  5
ED
330
17
100
AcDbEntity
  8
HILO
100
AcDbLine
 10
11.5
 20
-102.5
 30
0.0
 11
11.96730201077038
 21
-103.60527319280347
 31
0.0
  0
LINE
  5
EE
330
17
100
AcDbEntity
  8
CONSTRUCCION
100
AcDbLine
 10
0.0
 20
-108.0
 30
0.0
 11
23.0
 21
-108.0
 31
0.0
  0
CIRCLE
  5
EF
330
17
100
AcDbEntity
  8
BOTONES
100
AcDbCircle
 10
1.2
 20
-108.0
 30
0.0
 40
0.55
  0
LINE
  5
F0
330
17
100
AcDbEntity
  8
OJAL
100
AcDbLine
 10
21.8
 20
-107.2
 30
0.0
 11
21.8
 21
-108.8
 31
0.0
  0
TEXT
  5
F1
330
17
100
AcDbEntity
  8
REFERENCIAS
100
AcDbText
 10
11.5
 20
-107.2
 30
0.0
 40
0.5
  1
DOBLEZ
 11
11.5
 21
-107.2
 31
0.0
100
AcDbText
  0
TEXT
  5
F2
330
17
100
AcDbEntity
  8
TEXTOS
100
AcDbText
 10
11.500000000000004
 20
-105.3
 30
0.0
 40
0.9
  1
PUNO
 72
1
 11
11.500000000000004
 21
-105.3
 31
0.0
100
AcDbText
 73
2
  0
TEXT
  5
F3
330
17
100
AcDbEntity
  8
TEXTOS
100
AcDbText
 10
11.500000000000004
 20
-106.7
 30
0.0
 40
0.6
  1
Pieza N.05
 72
1
 11
11.500000000000004
 21
-106.7
 31
0.0
100
AcDbText
 73
2
  0
TEXT
  5
F4
330
17
100
AcDbEntity
  8
TEXTOS
100
AcDbText
 10
11.500000000000004
 20
-108.10000000000001
 30
0.0
 40
0.6
  1
Talla: S
 72
1
 11
11.500000000000004
 21
-108.10000000000001
 31
0.0
100
AcDbText
 73
2
  0
TEXT
  5
F5
330
17
100
AcDbEntity
  8
TEXTOS
100
AcDbText
 10
11.500000000000004
 20
-109.5
 30
0.0
 40
0.6
  1
Cortar: 4  (4 (2 tela + 2 entretela))
 72
1
 11
11.500000000000004
 21
-109.5
 31
0.0
100
AcDbText
 73
2
  0
LWPOLYLINE
  5
F6
330
17
100
AcDbEntity
  8
CORTE
100
AcDbPolyline
 90
37
 70
1
 10
28.0
 20
-104.649127
 10
28.022155
 20
-104.87407
 10
28.102098
 20
-105.137608
 10
28.231919
 20
-105.380486
 10
28.406629
 20
-105.593371
 10
28.619514
 20
-105.768081
 10
28.862392
 20
-105.897902
 10
29.12593
 20
-105.977845
 10
29.350873
 20
-106.0
 10
40.649127
 20
-106.0
 10
40.87407
 20
-105.977845
 10
41.137608
 20
-105.897902
 10
41.380486
 20
-105.768081
 10
41.593371
 20
-105.593371
 10
41.768081
 20
-105.380486
 10
41.897902
 20
-105.137608
 10
41.977845
 20
-104.87407
 10
42.0
 20
-104.649127
 10
42.0
 20
-102.350873
 10
41.977845
 20
-102.12593
 10
41.897902
 20
-101.862392
 10
41.768081
 20
-101.619514
 10
41.593371
 20
-101.406629
 10
41.380486
 20
-101.231919
 10
41.137608
 20
-101.102098
 10
40.87407
 20
-101.022155
 10
40.649127
 20
-101.0
 10
29.350873
 20
-101.0
 10
29.12593
 20
-101.022155
 10
28.862392
 20
-101.102098
 10
28.619514
 20
-101.231919
 10
28.406629
 20
-101.406629
 10
28.231919
 20
-101.619514
 10
28.102098
 20
-101.862392
 10
28.022155
 20
-102.12593
 10
28.0
 20
-102.350873
 10
28.0
 20
-104.649127
  0
LWPOLYLINE
  5
F7
330
17
100
AcDbEntity
  8
COSTURA
100
AcDbPolyline
 90
36
 70
1
 10
29.0
 20
-102.4
 10
29.007685887838708
 20
-102.32196387119355
 10
29.030448186995486
 20
-102.24692662705397
 10
29.067412155078983
 20
-102.17777190679216
 10
29.11715728752538
 20
-102.11715728752539
 10
29.17777190679216
 20
-102.06741215507898
 10
29.246926627053963
 20
-102.03044818699549
 10
29.32196387119355
 20
-102.0076858878387
 10
29.4
 20
-102.0
 10
40.6
 20
-102.0
 10
40.678036128806454
 20
-102.0076858878387
 10
40.753073372946034
 20
-102.03044818699549
 10
40.82222809320784
 20
-102.06741215507898
 10
40.88284271247462
 20
-102.11715728752539
 10
40.93258784492102
 20
-102.17777190679216
 10
40.969551813004514
 20
-102.24692662705397
 10
40.992314112161296
 20
-102.32196387119355
 10
41.0
 20
-102.4
 10
41.0
 20
-104.6
 10
40.992314112161296
 20
-104.67803612880645
 10
40.969551813004514
 20
-104.75307337294603
 10
40.93258784492102
 20
-104.82222809320784
 10
40.88284271247462
 20
-104.88284271247461
 10
40.82222809320784
 20
-104.93258784492102
 10
40.753073372946034
 20
-104.96955181300451
 10
40.678036128806454
 20
-104.9923141121613
 10
40.6
 20
-105.0
 10
29.4
 20
-105.0
 10
29.32196387119355
 20
-104.9923141121613
 10
29.246926627053963
 20
-104.96955181300451
 10
29.17777190679216
 20
-104.93258784492102
 10
29.11715728752538
 20
-104.88284271247461
 10
29.067412155078983
 20
-104.82222809320784
 10
29.030448186995486
 20
-104.75307337294603
 10
29.007685887838708
 20
-104.67803612880645
 10
29.0
 20
-104.6
  0
LINE
  5
F8
330
17
100
AcDbEntity
  8
HILO
100
AcDbLine
 10
35.0
 20
-102.4
 30
0.0
 11
35.0
 21
-104.6
 31
0.0
  0
LINE
  5
F9
330
17
100
AcDbEntity
  8
HILO
100
AcDbLine
 10
35.0
 20
-104.6
 30
0.0
 11
35.46730201077038
 21
-103.49472680719654
 31
0.0
  0
LINE
  5
FA
330
17
100
AcDbEntity
  8
HILO
100
AcDbLine
 10
35.0
 20
-104.6
 30
0.0
 11
34.53269798922962
 21
-103.49472680719654
 31
0.0
  0
LINE
  5
FB
330
17
100
AcDbEntity
  8
HILO
100
AcDbLine
 10
35.0
 20
-102.4
 30
0.0
 11
34.53269798922962
 21
-103.50527319280346
 31
0.0
  0
LINE
  5
FC
330
17
100
AcDbEntity
  8
HILO
100
AcDbLine
 10
35.0
 20
-102.4
 30
0.0
 11
35.46730201077038
 21
-103.50527319280346
 31
0.0
  0
TEXT
  5
FD
330
17
100
AcDbEntity
  8
TEXTOS
100
AcDbText
 10
35.0
 20
-100.8
 30
0.0
 40
0.9
  1
TAPETA MANGA
 72
1
 11
35.0
 21
-100.8
 31
0.0
100
AcDbText
 73
2
  0
TEXT
  5
FE
330
17
100
AcDbEntity
  8
TEXTOS
100
AcDbText
 10
35.0
 20
-102.2
 30
0.0
 40
0.6
  1
Pieza N.06
 72
1
 11
35.0
 21
-102.2
 31
0.0
100
AcDbText
 73
2
  0
TEXT
  5
FF
330
17
100
AcDbEntity
  8
TEXTOS
100
AcDbText
 10
35.0
 20
-103.6
 30
0.0
 40
0.6
  1
Talla: S
 72
1
 11
35.0
 21
-103.6
 31
0.0
100
AcDbText
 73
2
  0
TEXT
  5
100
330
17
100
AcDbEntity
  8
TEXTOS
100
AcDbText
 10
35.0
 20
-105.0
 30
0.0
 40
0.6
  1
Cortar: 2  (par)
 72
1
 11
35.0
 21
-105.0
 31
0.0
100
AcDbText
 73
2
  0
LWPOLYLINE
  5
101
330
17
100
AcDbEntity
  8
CORTE
100
AcDbPolyline
 90
84
 70
1
 10
47.77951
 20
-107.672996
 10
48.271
 20
-107.762293
 10
48.762543
 20
-107.846496
 10
49.254136
 20
-107.92560399999999
 10
49.745777
 20
-107.999615
 10
50.237462
 20
-108.068528
 10
50.729189
 20
-108.132342
 10
51.220955000000004
 20
-108.191055
 10
51.712756
 20
-108.24466699999999
 10
52.204589999999996
 20
-108.293176
 10
52.696454
 20
-108.33658199999999
 10
53.188344
 20
-108.374883
 10
53.680257
 20
-108.408079
 10
54.17219
 20
-108.436169
 10
54.66414
 20
-108.459152
 10
55.156103
 20
-108.477029
 10
55.648077
 20
-108.48979800000001
 10
56.140057
 20
-108.49746
 10
56.63204
 20
-108.500013
 10
57.124023
 20
-108.49746
 10
57.616003
 20
-108.48979800000001
 10
58.107977
 20
-108.477029
 10
58.599940000000004
 20
-108.459152
 10
59.09189
 20
-108.436169
 10
59.583823
 20
-108.408079
 10
60.075736
 20
-108.374883
 10
60.567626000000004
 20
-108.33658199999999
 10
61.05949
 20
-108.293176
 10
61.551324
 20
-108.24466699999999
 10
62.043125
 20
-108.191055
 10
62.534891
 20
-108.132342
 10
63.026618
 20
-108.068528
 10
63.518303
 20
-107.999615
 10
64.009944
 20
-107.92560399999999
 10
64.501537
 20
-107.846496
 10
64.99307999999999
 20
-107.762293
 10
65.48457
 20
-107.672996
 10
65.768919
 20
-107.618382
 10
67.820641
 20
-111.037919
 10
68.87585899999999
 20
-110.638936
 10
67.06276700000001
 20
-100.818019
 10
65.58895100000001
 20
-101.116392
 10
65.117182
 20
-101.207004
 10
64.645468
 20
-101.29270700000001
 10
64.173807
 20
-101.373504
 10
63.702196
 20
-101.449396
 10
63.230633
 20
-101.520385
 10
62.759114
 20
-101.586472
 10
62.287637000000004
 20
-101.647658
 10
61.816199
 20
-101.703945
 10
61.344796
 20
-101.755333
 10
60.873426
 20
-101.801824
 10
60.402086
 20
-101.843418
 10
59.930772
 20
-101.880117
 10
59.459481
 20
-101.911921
 10
58.98821
 20
-101.938831
 10
58.516956
 20
-101.960848
 10
58.045715
 20
-101.977971
 10
57.574484999999996
 20
-101.990202
 10
57.103261
 20
-101.99754
 10
56.63204
 20
-101.999987
 10
56.160819000000004
 20
-101.99754
 10
55.689595
 20
-101.990202
 10
55.218365
 20
-101.977971
 10
54.747124
 20
-101.960848
 10
54.27587
 20
-101.938831
 10
53.804598999999996
 20
-101.911921
 10
53.333308
 20
-101.880117
 10
52.861994
 20
-101.843418
 10
52.390654
 20
-101.801824
 10
51.919284
 20
-101.755333
 10
51.447881
 20
-101.703945
 10
50.976443
 20
-101.647658
 10
50.504966
 20
-101.586472
 10
50.033447
 20
-101.520385
 10
49.561884
 20
-101.449396
 10
49.090272999999996
 20
-101.373504
 10
48.618612
 20
-101.29270700000001
 10
48.146898
 20
-101.207004
 10
47.675129
 20
-101.116392
 10
47.0
 20
-100.979713
 10
47.0
 20
-107.520287
 10
47.288075
 20
-107.578608
 10
47.77951
 20
-107.672996
  0
LWPOLYLINE
  5
102
330
17
100
AcDbEntity
  8
COSTURA
100
AcDbPolyline
 90
83
 70
1
 10
47.0
 20
-102.0
 10
47.48160200005828
 20
-102.0975
 10
47.96320400011656
 20
-102.19
 10
48.44480600017484
 20
-102.2775
 10
48.926408000233124
 20
-102.36
 10
49.4080100002914
 20
-102.4375
 10
49.88961200034968
 20
-102.51
 10
50.37121400040796
 20
-102.5775
 10
50.85281600046624
 20
-102.64
 10
51.33441800052452
 20
-102.6975
 10
51.8160200005828
 20
-102.75
 10
52.297622000641084
 20
-102.7975
 10
52.77922400069936
 20
-102.84
 10
53.26082600075764
 20
-102.8775
 10
53.74242800081592
 20
-102.91
 10
54.2240300008742
 20
-102.9375
 10
54.70563200093248
 20
-102.96
 10
55.18723400099076
 20
-102.9775
 10
55.668836001049044
 20
-102.99
 10
56.15043800110732
 20
-102.9975
 10
56.632040001165606
 20
-103.0
 10
57.11364200122388
 20
-102.9975
 10
57.59524400128216
 20
-102.99
 10
58.07684600134044
 20
-102.9775
 10
58.55844800139872
 20
-102.96
 10
59.040050001457004
 20
-102.9375
 10
59.521652001515285
 20
-102.91
 10
60.003254001573566
 20
-102.8775
 10
60.48485600163184
 20
-102.84
 10
60.96645800169012
 20
-102.7975
 10
61.4480600017484
 20
-102.75
 10
61.92966200180668
 20
-102.6975
 10
62.411264001864964
 20
-102.64
 10
62.892866001923245
 20
-102.5775
 10
63.374468001981526
 20
-102.51
 10
63.8560700020398
 20
-102.4375
 10
64.33767200209809
 20
-102.36
 10
64.81927400215636
 20
-102.2775
 10
65.30087600221464
 20
-102.19
 10
65.78247800227292
 20
-102.0975
 10
66.26408000233121
 20
-102.0
 10
67.4640800023312
 20
-108.5
 10
66.26408000233121
 20
-106.5
 10
65.78247800227292
 20
-106.5975
 10
65.30087600221464
 20
-106.69
 10
64.81927400215636
 20
-106.7775
 10
64.33767200209809
 20
-106.86
 10
63.8560700020398
 20
-106.9375
 10
63.374468001981526
 20
-107.01
 10
62.892866001923245
 20
-107.0775
 10
62.411264001864964
 20
-107.14
 10
61.92966200180668
 20
-107.1975
 10
61.4480600017484
 20
-107.25
 10
60.96645800169012
 20
-107.2975
 10
60.48485600163184
 20
-107.34
 10
60.003254001573566
 20
-107.3775
 10
59.521652001515285
 20
-107.41
 10
59.040050001457004
 20
-107.4375
 10
58.55844800139872
 20
-107.46
 10
58.07684600134044
 20
-107.4775
 10
57.59524400128216
 20
-107.49
 10
57.11364200122388
 20
-107.4975
 10
56.632040001165606
 20
-107.5
 10
56.15043800110732
 20
-107.4975
 10
55.668836001049044
 20
-107.49
 10
55.18723400099076
 20
-107.4775
 10
54.70563200093248
 20
-107.46
 10
54.2240300008742
 20
-107.4375
 10
53.74242800081592
 20
-107.41
 10
53.26082600075764
 20
-107.3775
 10
52.77922400069936
 20
-107.34
 10
52.297622000641084
 20
-107.2975
 10
51.8160200005828
 20
-107.25
 10
51.33441800052452
 20
-107.1975
 10
50.85281600046624
 20
-107.14
 10
50.37121400040796
 20
-107.0775
 10
49.88961200034968
 20
-107.01
 10
49.4080100002914
 20
-106.9375
 10
48.926408000233124
 20
-106.86
 10
48.44480600017484
 20
-106.7775
 10
47.96320400011656
 20
-106.69
 10
47.48160200005828
 20
-106.5975
 10
47.0
 20
-106.5
  0
LINE
  5
103
330
17
100
AcDbEntity
  8
DOBLEZ
100
AcDbLine
 10
47.0
 20
-102.0
 30
0.0
 11
47.0
 21
-108.5
 31
0.0
  0
LINE
  5
104
330
17
100
AcDbEntity
  8
HILO
100
AcDbLine
 10
47.5
 20
-102.5
 30
0.0
 11
65.76408000233121
 21
-102.5
 31
0.0
  0
LINE
  5
105
330
17
100
AcDbEntity
  8
HILO
100
AcDbLine
 10
65.76408000233121
 20
-102.5
 30
0.0
 11
64.65880680952775
 21
-102.03269798922962
 31
0.0
  0
LINE
  5
106
330
17
100
AcDbEntity
  8
HILO
100
AcDbLine
 10
65.76408000233121
 20
-102.5
 30
0.0
 11
64.65880680952775
 21
-102.96730201077038
 31
0.0
  0
LINE
  5
107
330
17
100
AcDbEntity
  8
HILO
100
AcDbLine
 10
47.5
 20
-102.5
 30
0.0
 11
48.60527319280346
 21
-102.96730201077038
 31
0.0
  0
LINE
  5
108
330
17
100
AcDbEntity
  8
HILO
100
AcDbLine
 10
47.5
 20
-102.5
 30
0.0
 11
48.60527319280346
 21
-102.03269798922962
 31
0.0
  0
TEXT
  5
109
330
17
100
AcDbEntity
  8
TEXTOS
100
AcDbText
 10
56.935060528670164
 20
-101.33891654181554
 30
0.0
 40
0.9
  1
CUELLO
 72
1
 11
56.935060528670164
 21
-101.33891654181554
 31
0.0
100
AcDbText
 73
2
  0
TEXT
  5
10A
330
17
100
AcDbEntity
  8
TEXTOS
100
AcDbText
 10
56.935060528670164
 20
-102.73891654181554
 30
0.0
 40
0.6
  1
Pieza N.07
 72
1
 11
56.935060528670164
 21
-102.73891654181554
 31
0.0
100
AcDbText
 73
2
  0
TEXT
  5
10B
330
17
100
AcDbEntity
  8
TEXTOS
100
AcDbText
 10
56.935060528670164
 20
-104.13891654181553
 30
0.0
 40
0.6
  1
Talla: S
 72
1
 11
56.935060528670164
 21
-104.13891654181553
 31
0.0
100
AcDbText
 73
2
  0
TEXT
  5
10C
330
17
100
AcDbEntity
  8
TEXTOS
100
AcDbText
 10
56.935060528670164
 20
-105.53891654181554
 30
0.0
 40
0.6
  1
Cortar: 2  (al doblez x2 (+ entretela))
 72
1
 11
56.935060528670164
 21
-105.53891654181554
 31
0.0
100
AcDbText
 73
2
  0
TEXT
  5
10D
330
17
100
AcDbEntity
  8
TEXTOS
100
AcDbText
 10
56.935060528670164
 20
-106.93891654181553
 30
0.0
 40
0.6
  1
AL DOBLEZ
 72
1
 11
56.935060528670164
 21
-106.93891654181553
 31
0.0
100
AcDbText
 73
2
  0
LWPOLYLINE
  5
10E
330
17
100
AcDbEntity
  8
CORTE
100
AcDbPolyline
 90
83
 70
1
 10
74.3761850023312
 20
-106.142702
 10
74.9077200023312
 20
-106.213695
 10
75.4392760023312
 20
-106.280634
 10
75.9708520023312
 20
-106.343518
 10
76.5024480023312
 20
-106.402347
 10
77.0340620023312
 20
-106.457121
 10
77.5656930023312
 20
-106.50784
 10
78.09734000233121
 20
-106.554502
 10
78.6290010023312
 20
-106.597107
 10
79.1606750023312
 20
-106.635656
 10
79.6923610023312
 20
-106.670148
 10
80.2240580023312
 20
-106.700583
 10
80.7557640023312
 20
-106.72696
 10
81.2874780023312
 20
-106.74928
 10
81.8191980023312
 20
-106.767542
 10
82.3509240023312
 20
-106.781745
 10
82.88265400233121
 20
-106.79189099999999
 10
83.4143860023312
 20
-106.797978
 10
83.9461200023312
 20
-106.800007
 10
84.4778540023312
 20
-106.797978
 10
85.0095860023312
 20
-106.79189099999999
 10
85.5413160023312
 20
-106.781745
 10
86.0730420023312
 20
-106.767542
 10
86.6047620023312
 20
-106.74928
 10
87.13647600233121
 20
-106.72696
 10
87.6681820023312
 20
-106.700583
 10
88.1998790023312
 20
-106.670148
 10
88.7315650023312
 20
-106.635656
 10
89.2632390023312
 20
-106.597107
 10
89.7949000023312
 20
-106.554502
 10
90.3265470023312
 20
-106.50784
 10
90.8581780023312
 20
-106.457121
 10
91.3897920023312
 20
-106.402347
 10
91.9213880023312
 20
-106.343518
 10
92.4529640023312
 20
-106.280634
 10
92.98452000233121
 20
-106.213695
 10
93.5160550023312
 20
-106.142702
 10
94.0475660023312
 20
-106.067656
 10
95.4281600023312
 20
-105.862188
 10
95.4281600023312
 20
-100.84016
 10
93.7605500023312
 20
-101.088344
 10
93.2438570023312
 20
-101.161298
 10
92.7271880023312
 20
-101.230305
 10
92.2105400023312
 20
-101.295366
 10
91.6939120023312
 20
-101.356482
 10
91.1773040023312
 20
-101.413653
 10
90.6607140023312
 20
-101.466879
 10
90.1441410023312
 20
-101.51616
 10
89.6275840023312
 20
-101.561498
 10
89.1110410023312
 20
-101.602893
 10
88.5945110023312
 20
-101.640344
 10
88.0779930023312
 20
-101.673852
 10
87.56148600233121
 20
-101.703417
 10
87.0449880023312
 20
-101.72904
 10
86.5284980023312
 20
-101.75072
 10
86.0120140023312
 20
-101.768458
 10
85.4955360023312
 20
-101.782255
 10
84.9790620023312
 20
-101.792109
 10
84.4625900023312
 20
-101.798022
 10
83.9461200023312
 20
-101.799993
 10
83.4296500023312
 20
-101.798022
 10
82.9131780023312
 20
-101.792109
 10
82.3967040023312
 20
-101.782255
 10
81.8802260023312
 20
-101.768458
 10
81.36374200233121
 20
-101.75072
 10
80.8472520023312
 20
-101.72904
 10
80.3307540023312
 20
-101.703417
 10
79.8142470023312
 20
-101.673852
 10
79.2977290023312
 20
-101.640344
 10
78.7811990023312
 20
-101.602893
 10
78.26465600233121
 20
-101.561498
 10
77.7480990023312
 20
-101.51616
 10
77.23152600233121
 20
-101.466879
 10
76.7149360023312
 20
-101.413653
 10
76.1983280023312
 20
-101.356482
 10
75.6817000023312
 20
-101.295366
 10
75.1650520023312
 20
-101.230305
 10
74.6483830023312
 20
-101.161298
 10
74.1316900023312
 20
-101.088344
 10
73.4640800023312
 20
-100.988986
 10
73.4640800023312
 20
-106.011014
 10
73.8446740023312
 20
-106.067656
 10
74.3761850023312
 20
-106.142702
  0
LWPOLYLINE
  5
10F
330
17
100
AcDbEntity
  8
COSTURA
100
AcDbPolyline
 90
82
 70
1
 10
73.4640800023312
 20
-102.0
 10
73.98818200238948
 20
-102.078
 10
74.51228400244776
 20
-102.152
 10
75.03638600250603
 20
-102.222
 10
75.56048800256433
 20
-102.288
 10
76.0845900026226
 20
-102.35
 10
76.60869200268088
 20
-102.408
 10
77.13279400273916
 20
-102.462
 10
77.65689600279744
 20
-102.512
 10
78.18099800285572
 20
-102.558
 10
78.70510000291401
 20
-102.6
 10
79.22920200297229
 20
-102.638
 10
79.75330400303056
 20
-102.672
 10
80.27740600308884
 20
-102.702
 10
80.80150800314712
 20
-102.728
 10
81.3256100032054
 20
-102.75
 10
81.84971200326368
 20
-102.768
 10
82.37381400332197
 20
-102.782
 10
82.89791600338025
 20
-102.792
 10
83.42201800343852
 20
-102.798
 10
83.9461200034968
 20
-102.8
 10
84.47022200355508
 20
-102.798
 10
84.99432400361337
 20
-102.792
 10
85.51842600367164
 20
-102.782
 10
86.04252800372993
 20
-102.768
 10
86.5666300037882
 20
-102.75
 10
87.09073200384648
 20
-102.728
 10
87.61483400390476
 20
-102.702
 10
88.13893600396304
 20
-102.672
 10
88.66303800402133
 20
-102.638
 10
89.18714000407961
 20
-102.6
 10
89.71124200413789
 20
-102.558
 10
90.23534400419616
 20
-102.512
 10
90.75944600425444
 20
-102.462
 10
91.28354800431272
 20
-102.408
 10
91.807650004371
 20
-102.35
 10
92.33175200442929
 20
-102.288
 10
92.85585400448757
 20
-102.222
 10
93.37995600454585
 20
-102.152
 10
93.90405800460412
 20
-102.078
 10
94.4281600046624
 20
-102.0
 10
94.4281600046624
 20
-105.0
 10
93.90405800460412
 20
-105.078
 10
93.37995600454585
 20
-105.152
 10
92.85585400448757
 20
-105.222
 10
92.33175200442929
 20
-105.288
 10
91.807650004371
 20
-105.35
 10
91.28354800431272
 20
-105.408
 10
90.75944600425444
 20
-105.462
 10
90.23534400419616
 20
-105.512
 10
89.71124200413789
 20
-105.55799999999999
 10
89.18714000407961
 20
-105.6
 10
88.66303800402133
 20
-105.638
 10
88.13893600396304
 20
-105.672
 10
87.61483400390476
 20
-105.702
 10
87.09073200384648
 20
-105.728
 10
86.5666300037882
 20
-105.75
 10
86.04252800372993
 20
-105.768
 10
85.51842600367164
 20
-105.782
 10
84.99432400361337
 20
-105.792
 10
84.47022200355508
 20
-105.798
 10
83.9461200034968
 20
-105.8
 10
83.42201800343852
 20
-105.798
 10
82.89791600338025
 20
-105.792
 10
82.37381400332197
 20
-105.782
 10
81.84971200326368
 20
-105.768
 10
81.3256100032054
 20
-105.75
 10
80.80150800314712
 20
-105.728
 10
80.27740600308884
 20
-105.702
 10
79.75330400303056
 20
-105.672
 10
79.22920200297229
 20
-105.638
 10
78.70510000291401
 20
-105.6
 10
78.18099800285572
 20
-105.55799999999999
 10
77.65689600279744
 20
-105.512
 10
77.13279400273916
 20
-105.462
 10
76.60869200268088
 20
-105.408
 10
76.0845900026226
 20
-105.35
 10
75.56048800256433
 20
-105.288
 10
75.03638600250603
 20
-105.222
 10
74.51228400244776
 20
-105.152
 10
73.98818200238948
 20
-105.078
 10
73.4640800023312
 20
-105.0
  0
LINE
  5
110
330
17
100
AcDbEntity
  8
DOBLEZ
100
AcDbLine
 10
73.4640800023312
 20
-102.0
 30
0.0
 11
73.4640800023312
 21
-105.8
 31
0.0
  0
LINE
  5
111
330
17
100
AcDbEntity
  8
HILO
100
AcDbLine
 10
73.9640800023312
 20
-102.4
 30
0.0
 11
93.9281600046624
 21
-102.4
 31
0.0
  0
LINE
  5
112
330
17
100
AcDbEntity
  8
HILO
100
AcDbLine
 10
93.9281600046624
 20
-102.4
 30
0.0
 11
92.82288681185895
 21
-101.93269798922962
 31
0.0
  0
LINE
  5
113
330
17
100
AcDbEntity
  8
HILO
100
AcDbLine
 10
93.9281600046624
 20
-102.4
 30
0.0
 11
92.82288681185895
 21
-102.86730201077037
 31
0.0
  0
LINE
  5
114
330
17
100
AcDbEntity
  8
HILO
100
AcDbLine
 10
73.9640800023312
 20
-102.4
 30
0.0
 11
75.06935319513467
 21
-102.86730201077037
 31
0.0
  0
LINE
  5
115
330
17
100
AcDbEntity
  8
HILO
100
AcDbLine
 10
73.9640800023312
 20
-102.4
 30
0.0
 11
75.06935319513467
 21
-101.93269798922962
 31
0.0
  0
CIRCLE
  5
116
330
17
100
AcDbEntity
  8
BOTONES
100
AcDbCircle
 10
93.4281600046624
 20
-103.5
 30
0.0
 40
0.55
  0
TEXT
  5
117
330
17
100
AcDbEntity
  8
TEXTOS
100
AcDbText
 10
83.9461200034968
 20
-100.433
 30
0.0
 40
0.9
  1
PIE DE CUELLO
 72
1
 11
83.9461200034968
 21
-100.433
 31
0.0
100
AcDbText
 73
2
  0
TEXT
  5
118
330
17
100
AcDbEntity
  8
TEXTOS
100
AcDbText
 10
83.9461200034968
 20
-101.833
 30
0.0
 40
0.6
  1
Pieza N.08
 72
1
 11
83.9461200034968
 21
-101.833
 31
0.0
100
AcDbText
 73
2
  0
TEXT
  5
119
330
17
100
AcDbEntity
  8
TEXTOS
100
AcDbText
 10
83.9461200034968
 20
-103.233
 30
0.0
 40
0.6
  1
Talla: S
 72
1
 11
83.9461200034968
 21
-103.233
 31
0.0
100
AcDbText
 73
2
  0
TEXT
  5
11A
330
17
100
AcDbEntity
  8
TEXTOS
100
AcDbText
 10
83.9461200034968
 20
-104.633
 30
0.0
 40
0.6
  1
Cortar: 2  (al doblez x2 (+ entretela))
 72
1
 11
83.9461200034968
 21
-104.633
 31
0.0
100
AcDbText
 73
2
  0
TEXT
  5
11B
330
17
100
AcDbEntity
  8
TEXTOS
100
AcDbText
 10
83.9461200034968
 20
-106.033
 30
0.0
 40
0.6
  1
AL DOBLEZ
 72
1
 11
83.9461200034968
 21
-106.033
 31
0.0
100
AcDbText
 73
2
  0
LWPOLYLINE
  5
11C
330
17
100
AcDbEntity
  8
CORTE
100
AcDbPolyline
 90
42
 70
1
 10
99.4281600046624
 20
-199.0
 10
109.60912700466241
 20
-199.0
 10
107.0331610046624
 20
-114.548694
 10
111.2530820046624
 20
-101.994427
 10
108.72882100466241
 20
-100.732296
 10
108.03270800466241
 20
-101.660664
 10
107.83696900466241
 20
-101.922279
 10
107.64115400466241
 20
-102.185143
 10
107.4455420046624
 20
-102.449462
 10
107.25041600466241
 20
-102.715446
 10
107.0560600046624
 20
-102.983308
 10
106.86276300466241
 20
-103.253261
 10
106.6708160046624
 20
-103.525517
 10
106.48051500466241
 20
-103.800293
 10
106.2921560046624
 20
-104.077804
 10
106.1060420046624
 20
-104.358265
 10
105.9224790046624
 20
-104.641893
 10
105.7417750046624
 20
-104.928902
 10
105.56440200466241
 20
-105.219247
 10
105.3914630046624
 20
-105.51139
 10
105.2232380046624
 20
-105.802922
 10
105.05891000466241
 20
-106.092591
 10
104.8974350046624
 20
-106.379609
 10
104.7378130046624
 20
-106.663199
 10
104.5790870046624
 20
-106.942593
 10
104.42034400466241
 20
-107.217035
 10
104.2607130046624
 20
-107.48578499999999
 10
104.09936300466241
 20
-107.74812299999999
 10
103.9355010046624
 20
-108.003358
 10
103.76836600466241
 20
-108.250841
 10
103.59721800466241
 20
-108.489974
 10
103.4213210046624
 20
-108.720239
 10
103.2390290046624
 20
-108.9423
 10
103.0475640046624
 20
-109.159142
 10
102.84581000466241
 20
-109.373491
 10
102.6344380046624
 20
-109.586185
 10
102.41437200466241
 20
-109.797884
 10
102.1866020046624
 20
-110.009276
 10
101.9521710046624
 20
-110.221088
 10
101.75058500466241
 20
-110.4
 10
99.4281600046624
 20
-110.4
 10
99.4281600046624
 20
-199.0
  0
LWPOLYLINE
  5
11D
330
17
100
AcDbEntity
  8
COSTURA
100
AcDbPolyline
 90
42
 70
1
 10
100.4281600046624
 20
-111.4
 10
102.1281600046624
 20
-111.4
 10
102.37429721609332
 20
-111.18348907067131
 10
102.61928303983103
 20
-110.966058943868
 10
102.8619660881823
 20
-110.74679042211545
 10
103.10119497345391
 20
-110.52476430793902
 10
103.33581830795266
 20
-110.29906140386409
 10
103.56468470398534
 20
-110.06876251241604
 10
103.78664277385869
 20
-109.83294843612025
 10
104.00054112987954
 20
-109.59069997750208
 10
104.20535762212936
 20
-109.34120019116355
 10
104.40134283912629
 20
-109.08463911397952
 10
104.58947115127837
 20
-108.82177943429173
 10
104.77072528675409
 20
-108.5533904530469
 10
104.94608797372189
 20
-108.28024147119179
 10
105.11654194035029
 20
-108.00310178967312
 10
105.28306991480773
 20
-107.72274070943767
 10
105.44665462526271
 20
-107.43992753143218
 10
105.60827879988369
 20
-107.15543155660336
 10
105.76892516683915
 20
-106.87002208589797
 10
105.92957645429757
 20
-106.58446842026278
 10
106.09121539042744
 20
-106.2995398606445
 10
106.2548247033972
 20
-106.01600570798989
 10
106.4213869660642
 20
-105.73463514296425
 10
106.59161393668012
 20
-105.45598761259903
 10
106.76539004142262
 20
-105.17998183274412
 10
106.94244226997428
 20
-104.90641459182177
 10
107.12249761201768
 20
-104.6350826782543
 10
107.30528305723539
 20
-104.365782880464
 10
107.49052559530996
 20
-104.09831198687311
 10
107.67795221592398
 20
-103.83246678590396
 10
107.86728990876001
 20
-103.56804406597881
 10
108.05826566350063
 20
-103.30484061551995
 10
108.25060646982841
 20
-103.04265322294967
 10
108.4440393174259
 20
-102.78127867669025
 10
108.63829119597568
 20
-102.52051376516397
 10
108.83308909516033
 20
-102.26015527679313
 10
109.02816000466241
 20
-102.0
 10
110.02816000466241
 20
-102.5
 10
106.02816000466241
 20
-114.4
 10
108.57816000466241
 20
-198.0
 10
100.4281600046624
 20
-198.0
  0
LINE
  5
11E
330
17
100
AcDbEntity
  8
HILO
100
AcDbLine
 10
103.4281600046624
 20
-116.4
 30
0.0
 11
103.4281600046624
 21
-167.0
 31
0.0
  0
LINE
  5
11F
330
17
100
AcDbEntity
  8
HILO
100
AcDbLine
 10
103.4281600046624
 20
-167.0
 30
0.0
 11
103.89546201543278
 21
-165.89472680719655
 31
0.0
  0
LINE
  5
120
330
17
100
AcDbEntity
  8
HILO
100
AcDbLine
 10
103.4281600046624
 20
-167.0
 30
0.0
 11
102.96085799389202
 21
-165.89472680719655
 31
0.0
  0
LINE
  5
121
330
17
100
AcDbEntity
  8
HILO
100
AcDbLine
 10
103.4281600046624
 20
-116.4
 30
0.0
 11
102.96085799389202
 21
-117.50527319280346
 31
0.0
  0
LINE
  5
122
330
17
100
AcDbEntity
  8
HILO
100
AcDbLine
 10
103.4281600046624
 20
-116.4
 30
0.0
 11
103.89546201543278
 21
-117.50527319280346
 31
0.0
  0
TEXT
  5
123
330
17
100
AcDbEntity
  8
TEXTOS
100
AcDbText
 10
104.01140419797616
 20
-152.57567220973945
 30
0.0
 40
0.9
  1
VISTA DELANTERA (vestido)
 72
1
 11
104.01140419797616
 21
-152.57567220973945
 31
0.0
100
AcDbText
 73
2
  0
TEXT
  5
124
330
17
100
AcDbEntity
  8
TEXTOS
100
AcDbText
 10
104.01140419797616
 20
-153.97567220973946
 30
0.0
 40
0.6
  1
Pieza N.09
 72
1
 11
104.01140419797616
 21
-153.97567220973946
 31
0.0
100
AcDbText
 73
2
  0
TEXT
  5
125
330
17
100
AcDbEntity
  8
TEXTOS
100
AcDbText
 10
104.01140419797616
 20
-155.37567220973943
 30
0.0
 40
0.6
  1
Talla: S
 72
1
 11
104.01140419797616
 21
-155.37567220973943
 31
0.0
100
AcDbText
 73
2
  0
TEXT
  5
126
330
17
100
AcDbEntity
  8
TEXTOS
100
AcDbText
 10
104.01140419797616
 20
-156.77567220973944
 30
0.0
 40
0.6
  1
Cortar: 2  (par: izq + der)
 72
1
 11
104.01140419797616
 21
-156.77567220973944
 31
0.0
100
AcDbText
 73
2
  0
LWPOLYLINE
  5
127
330
17
100
AcDbEntity
  8
CORTE
100
AcDbPolyline
 90
6
 70
1
 10
115.0281600046624
 20
-112.271905
 10
122.0281600046624
 20
-116.681905
 10
129.0281600046624
 20
-112.271905
 10
129.0281600046624
 20
-101.0
 10
115.0281600046624
 20
-101.0
 10
115.0281600046624
 20
-112.271905
  0
LWPOLYLINE
  5
128
330
17
100
AcDbEntity
  8
COSTURA
100
AcDbPolyline
 90
5
 70
1
 10
116.0281600046624
 20
-102.0
 10
128.0281600046624
 20
-102.0
 10
128.0281600046624
 20
-111.72
 10
122.0281600046624
 20
-115.5
 10
116.0281600046624
 20
-111.72
  0
LINE
  5
129
330
17
100
AcDbEntity
  8
HILO
100
AcDbLine
 10
122.0281600046624
 20
-103.0
 30
0.0
 11
122.0281600046624
 21
-111.72
 31
0.0
  0
LINE
  5
12A
330
17
100
AcDbEntity
  8
HILO
100
AcDbLine
 10
122.0281600046624
 20
-111.72
 30
0.0
 11
122.49546201543278
 21
-110.61472680719653
 31
0.0
  0
LINE
  5
12B
330
17
100
AcDbEntity
  8
HILO
100
AcDbLine
 10
122.0281600046624
 20
-111.72
 30
0.0
 11
121.56085799389201
 21
-110.61472680719653
 31
0.0
  0
LINE
  5
12C
330
17
100
AcDbEntity
  8
HILO
100
AcDbLine
 10
122.0281600046624
 20
-103.0
 30
0.0
 11
121.56085799389201
 21
-104.10527319280347
 31
0.0
  0
LINE
  5
12D
330
17
100
AcDbEntity
  8
HILO
100
AcDbLine
 10
122.0281600046624
 20
-103.0
 30
0.0
 11
122.49546201543278
 21
-104.10527319280347
 31
0.0
  0
LINE
  5
12E
330
17
100
AcDbEntity
  8
CONSTRUCCION
100
AcDbLine
 10
116.0281600046624
 20
-109.22
 30
0.0
 11
128.0281600046624
 21
-109.22
 31
0.0
  0
TEXT
  5
12F
330
17
100
AcDbEntity
  8
REFERENCIAS
100
AcDbText
 10
122.0281600046624
 20
-103.5
 30
0.0
 40
0.5
  1
boca
 11
122.0281600046624
 21
-103.5
 31
0.0
100
AcDbText
  0
TEXT
  5
130
330
17
100
AcDbEntity
  8
TEXTOS
100
AcDbText
 10
122.0281600046624
 20
-105.15627906976744
 30
0.0
 40
0.9
  1
BOLSILLO
 72
1
 11
122.0281600046624
 21
-105.15627906976744
 31
0.0
100
AcDbText
 73
2
  0
TEXT
  5
131
330
17
100
AcDbEntity
  8
TEXTOS
100
AcDbText
 10
122.0281600046624
 20
-106.55627906976744
 30
0.0
 40
0.6
  1
Pieza N.10
 72
1
 11
122.0281600046624
 21
-106.55627906976744
 31
0.0
100
AcDbText
 73
2
  0
TEXT
  5
132
330
17
100
AcDbEntity
  8
TEXTOS
100
AcDbText
 10
122.0281600046624
 20
-107.95627906976745
 30
0.0
 40
0.6
  1
Talla: S
 72
1
 11
122.0281600046624
 21
-107.95627906976745
 31
0.0
100
AcDbText
 73
2
  0
TEXT
  5
133
330
17
100
AcDbEntity
  8
TEXTOS
100
AcDbText
 10
122.0281600046624
 20
-109.35627906976744
 30
0.0
 40
0.6
  1
Cortar: 1  (1 (opcional))
 72
1
 11
122.0281600046624
 21
-109.35627906976744
 31
0.0
100
AcDbText
 73
2
  0
ENDSEC
  0
SECTION
  2
OBJECTS
  0
DICTIONARY
  5
A
330
0
100
AcDbDictionary
281
1
  3
ACAD_COLOR
350
B
  3
ACAD_GROUP
350
C
  3
ACAD_LAYOUT
350
D
  3
ACAD_MATERIAL
350
E
  3
ACAD_MLEADERSTYLE
350
F
  3
ACAD_MLINESTYLE
350
10
  3
ACAD_PLOTSETTINGS
350
11
  3
ACAD_PLOTSTYLENAME
350
12
  3
ACAD_SCALELIST
350
14
  3
ACAD_TABLESTYLE
350
15
  3
ACAD_VISUALSTYLE
350
16
  3
EZDXF_META
350
2D
  0
DICTIONARY
  5
B
330
A
100
AcDbDictionary
281
1
  0
DICTIONARY
  5
C
330
A
100
AcDbDictionary
281
1
  0
DICTIONARY
  5
D
330
A
100
AcDbDictionary
281
1
  3
Model
350
1A
  3
Layout1
350
1E
  0
DICTIONARY
  5
E
330
A
100
AcDbDictionary
281
1
  3
ByBlock
350
1F
  3
ByLayer
350
20
  3
Global
350
21
  0
DICTIONARY
  5
F
330
A
100
AcDbDictionary
281
1
  3
Standard
350
2C
  0
DICTIONARY
  5
10
330
A
100
AcDbDictionary
281
1
  3
Standard
350
22
  0
DICTIONARY
  5
11
330
A
100
AcDbDictionary
281
1
  0
ACDBDICTIONARYWDFLT
  5
12
330
A
100
AcDbDictionary
281
1
  3
Normal
350
13
100
AcDbDictionaryWithDefault
340
13
  0
ACDBPLACEHOLDER
  5
13
330
12
  0
DICTIONARY
  5
14
330
A
100
AcDbDictionary
281
1
  0
DICTIONARY
  5
15
330
A
100
AcDbDictionary
281
1
  0
DICTIONARY
  5
16
330
A
100
AcDbDictionary
281
1
  3
2dWireframe
350
5A
  3
Basic
350
5B
  3
Brighten
350
5C
  3
ColorChange
350
5D
  3
Conceptual
350
5E
  3
Dim
350
5F
  3
EdgeColorOff
350
60
  3
Facepattern
350
61
  3
Flat
350
62
  3
FlatWithEdges
350
63
  3
Gouraud
350
64
  3
GouraudWithEdges
350
65
  3
Hidden
350
66
  3
JitterOff
350
67
  3
Linepattern
350
68
  3
Modeling
350
69
  3
OverhangOff
350
6A
  3
Realistic
350
6B
  3
Shaded
350
6C
  3
Shaded with edges
350
6D
  3
Shades of Gray
350
6E
  3
Sketchy
350
6F
  3
Thicken
350
70
  3
Wireframe
350
71
  3
X-Ray
350
72
  0
LAYOUT
  5
1A
330
D
100
AcDbPlotSettings
  1

  4
A3
  6

 40
7.5
 41
20.0
 42
7.5
 43
20.0
 44
420.0
 45
297.0
 46
0.0
 47
0.0
 48
0.0
 49
0.0
140
0.0
141
0.0
142
1.0
143
1.0
 70
1024
 72
1
 73
0
 74
5
  7

 75
16
 76
0
 77
2
 78
300
147
1.0
148
0.0
149
0.0
100
AcDbLayout
  1
Model
 70
1
 71
0
 10
0.0
 20
0.0
 11
420.0
 21
297.0
 12
0.0
 22
0.0
 32
0.0
 14
1e+20
 24
1e+20
 34
1e+20
 15
-1e+20
 25
-1e+20
 35
-1e+20
146
0.0
 13
0.0
 23
0.0
 33
0.0
 16
1.0
 26
0.0
 36
0.0
 17
0.0
 27
1.0
 37
0.0
 76
1
330
17
  0
LAYOUT
  5
1E
330
D
100
AcDbPlotSettings
  1

  4
A3
  6

 40
7.5
 41
20.0
 42
7.5
 43
20.0
 44
420.0
 45
297.0
 46
0.0
 47
0.0
 48
0.0
 49
0.0
140
0.0
141
0.0
142
1.0
143
1.0
 70
0
 72
1
 73
0
 74
5
  7

 75
16
 76
0
 77
2
 78
300
147
1.0
148
0.0
149
0.0
100
AcDbLayout
  1
Layout1
 70
1
 71
1
 10
0.0
 20
0.0
 11
420.0
 21
297.0
 12
0.0
 22
0.0
 32
0.0
 14
1e+20
 24
1e+20
 34
1e+20
 15
-1e+20
 25
-1e+20
 35
-1e+20
146
0.0
 13
0.0
 23
0.0
 33
0.0
 16
1.0
 26
0.0
 36
0.0
 17
0.0
 27
1.0
 37
0.0
 76
1
330
1B
  0
MATERIAL
  5
1F
102
{ACAD_REACTORS
330
E
102
}
330
E
100
AcDbMaterial
  1
ByBlock
  2

 70
0
 40
1.0
 71
1
 41
1.0
 91
-1023410177
 42
1.0
 72
1
  3

 73
1
 74
1
 75
1
 44
0.5
 73
0
 45
1.0
 46
1.0
 77
1
  4

 78
1
 79
1
170
1
 48
1.0
171
1
  6

172
1
173
1
174
1
140
1.0
141
1.0
175
1
  7

176
1
177
1
178
1
143
1.0
179
1
  8

270
1
271
1
272
1
145
1.0
146
1.0
273
1
  9

274
1
275
1
276
1
 42
1.0
 72
1
  3

 73
1
 74
1
 75
1
 94
63
  0
MATERIAL
  5
20
102
{ACAD_REACTORS
330
E
102
}
330
E
100
AcDbMaterial
  1
ByLayer
  2

 70
0
 40
1.0
 71
1
 41
1.0
 91
-1023410177
 42
1.0
 72
1
  3

 73
1
 74
1
 75
1
 44
0.5
 73
0
 45
1.0
 46
1.0
 77
1
  4

 78
1
 79
1
170
1
 48
1.0
171
1
  6

172
1
173
1
174
1
140
1.0
141
1.0
175
1
  7

176
1
177
1
178
1
143
1.0
179
1
  8

270
1
271
1
272
1
145
1.0
146
1.0
273
1
  9

274
1
275
1
276
1
 42
1.0
 72
1
  3

 73
1
 74
1
 75
1
 94
63
  0
MATERIAL
  5
21
102
{ACAD_REACTORS
330
E
102
}
330
E
100
AcDbMaterial
  1
Global
  2

 70
0
 40
1.0
 71
1
 41
1.0
 91
-1023410177
 42
1.0
 72
1
  3

 73
1
 74
1
 75
1
 44
0.5
 73
0
 45
1.0
 46
1.0
 77
1
  4

 78
1
 79
1
170
1
 48
1.0
171
1
  6

172
1
173
1
174
1
140
1.0
141
1.0
175
1
  7

176
1
177
1
178
1
143
1.0
179
1
  8

270
1
271
1
272
1
145
1.0
146
1.0
273
1
  9

274
1
275
1
276
1
 42
1.0
 72
1
  3

 73
1
 74
1
 75
1
 94
63
  0
MLINESTYLE
  5
22
102
{ACAD_REACTORS
330
10
102
}
330
10
100
AcDbMlineStyle
  2
Standard
 70
0
  3

 62
256
 51
90.0
 52
90.0
 71
2
 49
0.5
 62
256
  6
BYLAYER
 49
-0.5
 62
256
  6
BYLAYER
  0
MLEADERSTYLE
  5
2C
102
{ACAD_REACTORS
330
F
102
}
330
F
100
AcDbMLeaderStyle
179
2
170
2
171
1
172
0
 90
2
 40
0.0
 41
0.0
173
1
 91
-1056964608
 92
-2
290
1
 42
2.0
291
1
 43
8.0
  3
Standard
 44
4.0
300

342
29
174
1
175
1
176
0
178
1
 93
-1056964608
 45
4.0
292
0
297
0
 46
4.0
 94
-1056964608
 47
1.0
 49
1.0
140
1.0
294
1
141
0.0
177
0
142
1.0
295
0
296
0
143
3.75
271
0
272
9
273
9
  0
DICTIONARY
  5
2D
330
A
100
AcDbDictionary
280
1
281
1
  3
CREATED_BY_EZDXF
350
2E
  3
WRITTEN_BY_EZDXF
350
136
  0
DICTIONARYVAR
  5
2E
330
2D
100
DictionaryVariables
280
0
  1
1.4.4 @ 2026-07-14T04:30:12.455789+00:00
  0
VISUALSTYLE
  5
5A
102
{ACAD_REACTORS
330
16
102
}
330
16
100
AcDbVisualStyle
  2
2dWireframe
 70
4
177
3
291
0
 70
58
 90
2
176
1
 90
2
176
1
 90
0
176
1
 90
0
176
1
 40
0.6
176
1
 40
30.0
176
1
 62
7
420
16777215
176
1
 90
1
176
1
 90
4
176
1
 62
7
176
1
 62
257
176
1
 90
1
176
1
 90
1
176
1
 40
1.0
176
1
 90
8
176
1
 62
7
176
1
 40
1.0
176
1
 90
1
176
1
 90
6
176
1
 90
2
176
1
 62
7
176
1
 90
5
176
1
 90
0
176
1
 90
0
176
1
290
0
176
1
 90
1
176
1
 40
0.0
176
1
 90
0
176
1
290
1
176
1
290
1
176
1
290
0
176
1
290
0
176
1
290
0
176
1
290
0
176
1
290
0
176
1
290
0
176
1
290
0
176
1
 90
50
176
1
 40
0.0
176
1
 40
1.0
176
1
 90
0
176
1
 62
18
420
0
176
1
 90
50
176
1
 90
3
176
1
 62
5
420
255
176
1
290
0
176
1
 90
50
176
1
 90
50
176
1
 90
50
176
1
290
0
176
1
 90
50
176
1
 62
256
176
0
 40
1.0
176
0
 90
2
176
1
  1
strokes_ogs.tif
176
1
290
0
176
1
 40
1.0
176
1
 40
1.0
176
1
  0
VISUALSTYLE
  5
5B
102
{ACAD_REACTORS
330
16
102
}
330
16
100
AcDbVisualStyle
  2
Basic
 70
7
177
3
291
1
 70
58
 90
2
176
1
 90
2
176
1
 90
0
176
1
 90
1
176
1
 40
0.6
176
1
 40
30.0
176
1
 62
7
420
16777215
176
1
 90
1
176
1
 90
4
176
1
 62
7
176
1
 62
257
176
1
 90
1
176
1
 90
1
176
1
 40
1.0
176
1
 90
8
176
1
 62
7
176
1
 40
1.0
176
1
 90
1
176
1
 90
6
176
1
 90
2
176
1
 62
7
176
1
 90
5
176
1
 90
0
176
1
 90
0
176
1
290
0
176
1
 90
1
176
1
 40
0.0
176
1
 90
0
176
1
290
0
176
1
290
1
176
1
290
1
176
1
290
0
176
1
290
0
176
1
290
0
176
1
290
0
176
1
290
0
176
1
290
0
176
1
 90
50
176
1
 40
0.0
176
1
 40
1.0
176
1
 90
0
176
1
 62
18
420
0
176
1
 90
50
176
1
 90
3
176
1
 62
5
420
255
176
1
290
0
176
1
 90
50
176
1
 90
50
176
1
 90
50
176
1
290
0
176
1
 90
50
176
1
 62
256
176
0
 40
1.0
176
0
 90
2
176
1
  1
strokes_ogs.tif
176
1
290
0
176
1
 40
1.0
176
1
 40
1.0
176
1
  0
VISUALSTYLE
  5
5C
102
{ACAD_REACTORS
330
16
102
}
330
16
100
AcDbVisualStyle
  2
Brighten
 70
12
177
3
291
1
 70
58
 90
2
176
1
 90
2
176
1
 90
0
176
1
 90
2
176
1
 40
0.6
176
1
 40
30.0
176
1
 62
7
420
16777215
176
1
 90
1
176
1
 90
4
176
1
 62
7
176
1
 62
257
176
1
 90
1
176
1
 90
1
176
1
 40
1.0
176
1
 90
8
176
1
 62
7
176
1
 40
1.0
176
1
 90
1
176
1
 90
6
176
1
 90
2
176
1
 62
7
176
1
 90
5
176
1
 90
0
176
1
 90
0
176
1
290
0
176
1
 90
1
176
1
 40
0.0
176
1
 90
0
176
1
290
0
176
1
290
1
176
1
290
1
176
1
290
0
176
1
290
0
176
1
290
0
176
1
290
0
176
1
290
0
176
1
290
0
176
1
 90
50
176
1
 40
0.0
176
1
 40
1.0
176
1
 90
0
176
1
 62
18
420
0
176
1
 90
50
176
1
 90
3
176
1
 62
5
420
255
176
1
290
0
176
1
 90
50
176
1
 90
50
176
1
 90
50
176
1
290
0
176
1
 90
50
176
1
 62
256
176
0
 40
1.0
176
0
 90
2
176
1
  1
strokes_ogs.tif
176
1
290
0
176
1
 40
1.0
176
1
 40
1.0
176
1
  0
VISUALSTYLE
  5
5D
102
{ACAD_REACTORS
330
16
102
}
330
16
100
AcDbVisualStyle
  2
ColorChange
 70
16
177
3
291
1
 70
58
 90
2
176
1
 90
2
176
1
 90
0
176
1
 90
2
176
1
 40
0.6
176
1
 40
30.0
176
1
 62
7
420
16777215
176
1
 90
1
176
1
 90
4
176
1
 62
7
176
1
 62
257
176
1
 90
1
176
1
 90
1
176
1
 40
1.0
176
1
 90
8
176
1
 62
7
176
1
 40
1.0
176
1
 90
1
176
1
 90
6
176
1
 90
2
176
1
 62
7
176
1
 90
5
176
1
 90
0
176
1
 90
0
176
1
290
0
176
1
 90
1
176
1
 40
0.0
176
1
 90
0
176
1
290
0
176
1
290
1
176
1
290
1
176
1
290
0
176
1
290
0
176
1
290
0
176
1
290
0
176
1
290
0
176
1
290
0
176
1
 90
50
176
1
 40
0.0
176
1
 40
1.0
176
1
 90
0
176
1
 62
18
420
0
176
1
 90
50
176
1
 90
3
176
1
 62
5
420
255
176
1
290
0
176
1
 90
50
176
1
 90
50
176
1
 90
50
176
1
290
0
176
1
 90
50
176
1
 62
256
176
0
 40
1.0
176
0
 90
2
176
1
  1
strokes_ogs.tif
176
1
290
0
176
1
 40
1.0
176
1
 40
1.0
176
1
  0
VISUALSTYLE
  5
5E
102
{ACAD_REACTORS
330
16
102
}
330
16
100
AcDbVisualStyle
  2
Conceptual
 70
9
177
3
291
0
 70
58
 90
2
176
1
 90
2
176
1
 90
0
176
1
 90
3
176
1
 40
0.6
176
1
 40
30.0
176
1
 62
7
420
16777215
176
1
 90
1
176
1
 90
4
176
1
 62
7
176
1
 62
257
176
1
 90
1
176
1
 90
1
176
1
 40
1.0
176
1
 90
8
176
1
 62
7
176
1
 40
1.0
176
1
 90
1
176
1
 90
6
176
1
 90
2
176
1
 62
7
176
1
 90
5
176
1
 90
0
176
1
 90
0
176
1
290
0
176
1
 90
1
176
1
 40
0.0
176
1
 90
0
176
1
290
0
176
1
290
1
176
1
290
1
176
1
290
0
176
1
290
0
176
1
290
0
176
1
290
0
176
1
290
0
176
1
290
0
176
1
 90
50
176
1
 40
0.0
176
1
 40
1.0
176
1
 90
0
176
1
 62
18
420
0
176
1
 90
50
176
1
 90
3
176
1
 62
5
420
255
176
1
290
0
176
1
 90
50
176
1
 90
50
176
1
 90
50
176
1
290
0
176
1
 90
50
176
1
 62
256
176
0
 40
1.0
176
0
 90
2
176
1
  1
strokes_ogs.tif
176
1
290
0
176
1
 40
1.0
176
1
 40
1.0
176
1
  0
VISUALSTYLE
  5
5F
102
{ACAD_REACTORS
330
16
102
}
330
16
100
AcDbVisualStyle
  2
Dim
 70
11
177
3
291
1
 70
58
 90
2
176
1
 90
2
176
1
 90
0
176
1
 90
2
176
1
 40
0.6
176
1
 40
30.0
176
1
 62
7
420
16777215
176
1
 90
1
176
1
 90
4
176
1
 62
7
176
1
 62
257
176
1
 90
1
176
1
 90
1
176
1
 40
1.0
176
1
 90
8
176
1
 62
7
176
1
 40
1.0
176
1
 90
1
176
1
 90
6
176
1
 90
2
176
1
 62
7
176
1
 90
5
176
1
 90
0
176
1
 90
0
176
1
290
0
176
1
 90
1
176
1
 40
0.0
176
1
 90
0
176
1
290
0
176
1
290
1
176
1
290
1
176
1
290
0
176
1
290
0
176
1
290
0
176
1
290
0
176
1
290
0
176
1
290
0
176
1
 90
50
176
1
 40
0.0
176
1
 40
1.0
176
1
 90
0
176
1
 62
18
420
0
176
1
 90
50
176
1
 90
3
176
1
 62
5
420
255
176
1
290
0
176
1
 90
50
176
1
 90
50
176
1
 90
50
176
1
290
0
176
1
 90
50
176
1
 62
256
176
0
 40
1.0
176
0
 90
2
176
1
  1
strokes_ogs.tif
176
1
290
0
176
1
 40
1.0
176
1
 40
1.0
176
1
  0
VISUALSTYLE
  5
60
102
{ACAD_REACTORS
330
16
102
}
330
16
100
AcDbVisualStyle
  2
EdgeColorOff
 70
22
177
3
291
1
 70
58
 90
2
176
1
 90
2
176
1
 90
0
176
1
 90
2
176
1
 40
0.6
176
1
 40
30.0
176
1
 62
7
420
16777215
176
1
 90
1
176
1
 90
4
176
1
 62
7
176
1
 62
257
176
1
 90
1
176
1
 90
1
176
1
 40
1.0
176
1
 90
8
176
1
 62
7
176
1
 40
1.0
176
1
 90
1
176
1
 90
6
176
1
 90
2
176
1
 62
7
176
1
 90
5
176
1
 90
0
176
1
 90
0
176
1
290
0
176
1
 90
1
176
1
 40
0.0
176
1
 90
0
176
1
290
0
176
1
290
1
176
1
290
1
176
1
290
0
176
1
290
0
176
1
290
0
176
1
290
0
176
1
290
0
176
1
290
0
176
1
 90
50
176
1
 40
0.0
176
1
 40
1.0
176
1
 90
0
176
1
 62
18
420
0
176
1
 90
50
176
1
 90
3
176
1
 62
5
420
255
176
1
290
0
176
1
 90
50
176
1
 90
50
176
1
 90
50
176
1
290
0
176
1
 90
50
176
1
 62
256
176
0
 40
1.0
176
0
 90
2
176
1
  1
strokes_ogs.tif
176
1
290
0
176
1
 40
1.0
176
1
 40
1.0
176
1
  0
VISUALSTYLE
  5
61
102
{ACAD_REACTORS
330
16
102
}
330
16
100
AcDbVisualStyle
  2
Facepattern
 70
15
177
3
291
1
 70
58
 90
2
176
1
 90
2
176
1
 90
0
176
1
 90
2
176
1
 40
0.6
176
1
 40
30.0
176
1
 62
7
420
16777215
176
1
 90
1
176
1
 90
4
176
1
 62
7
176
1
 62
257
176
1
 90
1
176
1
 90
1
176
1
 40
1.0
176
1
 90
8
176
1
 62
7
176
1
 40
1.0
176
1
 90
1
176
1
 90
6
176
1
 90
2
176
1
 62
7
176
1
 90
5
176
1
 90
0
176
1
 90
0
176
1
290
0
176
1
 90
1
176
1
 40
0.0
176
1
 90
0
176
1
290
0
176
1
290
1
176
1
290
1
176
1
290
0
176
1
290
0
176
1
290
0
176
1
290
0
176
1
290
0
176
1
290
0
176
1
 90
50
176
1
 40
0.0
176
1
 40
1.0
176
1
 90
0
176
1
 62
18
420
0
176
1
 90
50
176
1
 90
3
176
1
 62
5
420
255
176
1
290
0
176
1
 90
50
176
1
 90
50
176
1
 90
50
176
1
290
0
176
1
 90
50
176
1
 62
256
176
0
 40
1.0
176
0
 90
2
176
1
  1
strokes_ogs.tif
176
1
290
0
176
1
 40
1.0
176
1
 40
1.0
176
1
  0
VISUALSTYLE
  5
62
102
{ACAD_REACTORS
330
16
102
}
330
16
100
AcDbVisualStyle
  2
Flat
 70
0
177
3
291
1
 70
58
 90
2
176
1
 90
2
176
1
 90
0
176
1
 90
2
176
1
 40
0.6
176
1
 40
30.0
176
1
 62
7
420
16777215
176
1
 90
1
176
1
 90
4
176
1
 62
7
176
1
 62
257
176
1
 90
1
176
1
 90
1
176
1
 40
1.0
176
1
 90
8
176
1
 62
7
176
1
 40
1.0
176
1
 90
1
176
1
 90
6
176
1
 90
2
176
1
 62
7
176
1
 90
5
176
1
 90
0
176
1
 90
0
176
1
290
0
176
1
 90
1
176
1
 40
0.0
176
1
 90
0
176
1
290
0
176
1
290
1
176
1
290
1
176
1
290
0
176
1
290
0
176
1
290
0
176
1
290
0
176
1
290
0
176
1
290
0
176
1
 90
50
176
1
 40
0.0
176
1
 40
1.0
176
1
 90
0
176
1
 62
18
420
0
176
1
 90
50
176
1
 90
3
176
1
 62
5
420
255
176
1
290
0
176
1
 90
50
176
1
 90
50
176
1
 90
50
176
1
290
0
176
1
 90
50
176
1
 62
256
176
0
 40
1.0
176
0
 90
2
176
1
  1
strokes_ogs.tif
176
1
290
0
176
1
 40
1.0
176
1
 40
1.0
176
1
  0
VISUALSTYLE
  5
63
102
{ACAD_REACTORS
330
16
102
}
330
16
100
AcDbVisualStyle
  2
FlatWithEdges
 70
1
177
3
291
1
 70
58
 90
2
176
1
 90
2
176
1
 90
0
176
1
 90
2
176
1
 40
0.6
176
1
 40
30.0
176
1
 62
7
420
16777215
176
1
 90
1
176
1
 90
4
176
1
 62
7
176
1
 62
257
176
1
 90
1
176
1
 90
1
176
1
 40
1.0
176
1
 90
8
176
1
 62
7
176
1
 40
1.0
176
1
 90
1
176
1
 90
6
176
1
 90
2
176
1
 62
7
176
1
 90
5
176
1
 90
0
176
1
 90
0
176
1
290
0
176
1
 90
1
176
1
 40
0.0
176
1
 90
0
176
1
290
0
176
1
290
1
176
1
290
1
176
1
290
0
176
1
290
0
176
1
290
0
176
1
290
0
176
1
290
0
176
1
290
0
176
1
 90
50
176
1
 40
0.0
176
1
 40
1.0
176
1
 90
0
176
1
 62
18
420
0
176
1
 90
50
176
1
 90
3
176
1
 62
5
420
255
176
1
290
0
176
1
 90
50
176
1
 90
50
176
1
 90
50
176
1
290
0
176
1
 90
50
176
1
 62
256
176
0
 40
1.0
176
0
 90
2
176
1
  1
strokes_ogs.tif
176
1
290
0
176
1
 40
1.0
176
1
 40
1.0
176
1
  0
VISUALSTYLE
  5
64
102
{ACAD_REACTORS
330
16
102
}
330
16
100
AcDbVisualStyle
  2
Gouraud
 70
2
177
3
291
1
 70
58
 90
2
176
1
 90
2
176
1
 90
0
176
1
 90
2
176
1
 40
0.6
176
1
 40
30.0
176
1
 62
7
420
16777215
176
1
 90
1
176
1
 90
4
176
1
 62
7
176
1
 62
257
176
1
 90
1
176
1
 90
1
176
1
 40
1.0
176
1
 90
8
176
1
 62
7
176
1
 40
1.0
176
1
 90
1
176
1
 90
6
176
1
 90
2
176
1
 62
7
176
1
 90
5
176
1
 90
0
176
1
 90
0
176
1
290
0
176
1
 90
1
176
1
 40
0.0
176
1
 90
0
176
1
290
0
176
1
290
1
176
1
290
1
176
1
290
0
176
1
290
0
176
1
290
0
176
1
290
0
176
1
290
0
176
1
290
0
176
1
 90
50
176
1
 40
0.0
176
1
 40
1.0
176
1
 90
0
176
1
 62
18
420
0
176
1
 90
50
176
1
 90
3
176
1
 62
5
420
255
176
1
290
0
176
1
 90
50
176
1
 90
50
176
1
 90
50
176
1
290
0
176
1
 90
50
176
1
 62
256
176
0
 40
1.0
176
0
 90
2
176
1
  1
strokes_ogs.tif
176
1
290
0
176
1
 40
1.0
176
1
 40
1.0
176
1
  0
VISUALSTYLE
  5
65
102
{ACAD_REACTORS
330
16
102
}
330
16
100
AcDbVisualStyle
  2
GouraudWithEdges
 70
3
177
3
291
1
 70
58
 90
2
176
1
 90
2
176
1
 90
0
176
1
 90
2
176
1
 40
0.6
176
1
 40
30.0
176
1
 62
7
420
16777215
176
1
 90
1
176
1
 90
4
176
1
 62
7
176
1
 62
257
176
1
 90
1
176
1
 90
1
176
1
 40
1.0
176
1
 90
8
176
1
 62
7
176
1
 40
1.0
176
1
 90
1
176
1
 90
6
176
1
 90
2
176
1
 62
7
176
1
 90
5
176
1
 90
0
176
1
 90
0
176
1
290
0
176
1
 90
1
176
1
 40
0.0
176
1
 90
0
176
1
290
0
176
1
290
1
176
1
290
1
176
1
290
0
176
1
290
0
176
1
290
0
176
1
290
0
176
1
290
0
176
1
290
0
176
1
 90
50
176
1
 40
0.0
176
1
 40
1.0
176
1
 90
0
176
1
 62
18
420
0
176
1
 90
50
176
1
 90
3
176
1
 62
5
420
255
176
1
290
0
176
1
 90
50
176
1
 90
50
176
1
 90
50
176
1
290
0
176
1
 90
50
176
1
 62
256
176
0
 40
1.0
176
0
 90
2
176
1
  1
strokes_ogs.tif
176
1
290
0
176
1
 40
1.0
176
1
 40
1.0
176
1
  0
VISUALSTYLE
  5
66
102
{ACAD_REACTORS
330
16
102
}
330
16
100
AcDbVisualStyle
  2
Hidden
 70
6
177
3
291
0
 70
58
 90
2
176
1
 90
2
176
1
 90
0
176
1
 90
1
176
1
 40
0.6
176
1
 40
30.0
176
1
 62
7
420
16777215
176
1
 90
1
176
1
 90
4
176
1
 62
7
176
1
 62
257
176
1
 90
1
176
1
 90
1
176
1
 40
1.0
176
1
 90
8
176
1
 62
7
176
1
 40
1.0
176
1
 90
1
176
1
 90
6
176
1
 90
2
176
1
 62
7
176
1
 90
5
176
1
 90
0
176
1
 90
0
176
1
290
0
176
1
 90
1
176
1
 40
0.0
176
1
 90
0
176
1
290
0
176
1
290
1
176
1
290
1
176
1
290
0
176
1
290
0
176
1
290
0
176
1
290
0
176
1
290
0
176
1
290
0
176
1
 90
50
176
1
 40
0.0
176
1
 40
1.0
176
1
 90
0
176
1
 62
18
420
0
176
1
 90
50
176
1
 90
3
176
1
 62
5
420
255
176
1
290
0
176
1
 90
50
176
1
 90
50
176
1
 90
50
176
1
290
0
176
1
 90
50
176
1
 62
256
176
0
 40
1.0
176
0
 90
2
176
1
  1
strokes_ogs.tif
176
1
290
0
176
1
 40
1.0
176
1
 40
1.0
176
1
  0
VISUALSTYLE
  5
67
102
{ACAD_REACTORS
330
16
102
}
330
16
100
AcDbVisualStyle
  2
JitterOff
 70
20
177
3
291
1
 70
58
 90
2
176
1
 90
2
176
1
 90
0
176
1
 90
2
176
1
 40
0.6
176
1
 40
30.0
176
1
 62
7
420
16777215
176
1
 90
1
176
1
 90
4
176
1
 62
7
176
1
 62
257
176
1
 90
1
176
1
 90
1
176
1
 40
1.0
176
1
 90
8
176
1
 62
7
176
1
 40
1.0
176
1
 90
1
176
1
 90
6
176
1
 90
2
176
1
 62
7
176
1
 90
5
176
1
 90
0
176
1
 90
0
176
1
290
0
176
1
 90
1
176
1
 40
0.0
176
1
 90
0
176
1
290
0
176
1
290
1
176
1
290
1
176
1
290
0
176
1
290
0
176
1
290
0
176
1
290
0
176
1
290
0
176
1
290
0
176
1
 90
50
176
1
 40
0.0
176
1
 40
1.0
176
1
 90
0
176
1
 62
18
420
0
176
1
 90
50
176
1
 90
3
176
1
 62
5
420
255
176
1
290
0
176
1
 90
50
176
1
 90
50
176
1
 90
50
176
1
290
0
176
1
 90
50
176
1
 62
256
176
0
 40
1.0
176
0
 90
2
176
1
  1
strokes_ogs.tif
176
1
290
0
176
1
 40
1.0
176
1
 40
1.0
176
1
  0
VISUALSTYLE
  5
68
102
{ACAD_REACTORS
330
16
102
}
330
16
100
AcDbVisualStyle
  2
Linepattern
 70
14
177
3
291
1
 70
58
 90
2
176
1
 90
2
176
1
 90
0
176
1
 90
2
176
1
 40
0.6
176
1
 40
30.0
176
1
 62
7
420
16777215
176
1
 90
1
176
1
 90
4
176
1
 62
7
176
1
 62
257
176
1
 90
1
176
1
 90
1
176
1
 40
1.0
176
1
 90
8
176
1
 62
7
176
1
 40
1.0
176
1
 90
1
176
1
 90
6
176
1
 90
2
176
1
 62
7
176
1
 90
5
176
1
 90
0
176
1
 90
0
176
1
290
0
176
1
 90
1
176
1
 40
0.0
176
1
 90
0
176
1
290
0
176
1
290
1
176
1
290
1
176
1
290
0
176
1
290
0
176
1
290
0
176
1
290
0
176
1
290
0
176
1
290
0
176
1
 90
50
176
1
 40
0.0
176
1
 40
1.0
176
1
 90
0
176
1
 62
18
420
0
176
1
 90
50
176
1
 90
3
176
1
 62
5
420
255
176
1
290
0
176
1
 90
50
176
1
 90
50
176
1
 90
50
176
1
290
0
176
1
 90
50
176
1
 62
256
176
0
 40
1.0
176
0
 90
2
176
1
  1
strokes_ogs.tif
176
1
290
0
176
1
 40
1.0
176
1
 40
1.0
176
1
  0
VISUALSTYLE
  5
69
102
{ACAD_REACTORS
330
16
102
}
330
16
100
AcDbVisualStyle
  2
Modeling
 70
10
177
3
291
0
 70
58
 90
2
176
1
 90
2
176
1
 90
0
176
1
 90
2
176
1
 40
0.6
176
1
 40
30.0
176
1
 62
7
420
16777215
176
1
 90
1
176
1
 90
4
176
1
 62
7
176
1
 62
257
176
1
 90
1
176
1
 90
1
176
1
 40
1.0
176
1
 90
8
176
1
 62
7
176
1
 40
1.0
176
1
 90
1
176
1
 90
6
176
1
 90
2
176
1
 62
7
176
1
 90
5
176
1
 90
0
176
1
 90
0
176
1
290
0
176
1
 90
1
176
1
 40
0.0
176
1
 90
0
176
1
290
0
176
1
290
1
176
1
290
1
176
1
290
0
176
1
290
0
176
1
290
0
176
1
290
0
176
1
290
0
176
1
290
0
176
1
 90
50
176
1
 40
0.0
176
1
 40
1.0
176
1
 90
0
176
1
 62
18
420
0
176
1
 90
50
176
1
 90
3
176
1
 62
5
420
255
176
1
290
0
176
1
 90
50
176
1
 90
50
176
1
 90
50
176
1
290
0
176
1
 90
50
176
1
 62
256
176
0
 40
1.0
176
0
 90
2
176
1
  1
strokes_ogs.tif
176
1
290
0
176
1
 40
1.0
176
1
 40
1.0
176
1
  0
VISUALSTYLE
  5
6A
102
{ACAD_REACTORS
330
16
102
}
330
16
100
AcDbVisualStyle
  2
OverhangOff
 70
21
177
3
291
1
 70
58
 90
2
176
1
 90
2
176
1
 90
0
176
1
 90
2
176
1
 40
0.6
176
1
 40
30.0
176
1
 62
7
420
16777215
176
1
 90
1
176
1
 90
4
176
1
 62
7
176
1
 62
257
176
1
 90
1
176
1
 90
1
176
1
 40
1.0
176
1
 90
8
176
1
 62
7
176
1
 40
1.0
176
1
 90
1
176
1
 90
6
176
1
 90
2
176
1
 62
7
176
1
 90
5
176
1
 90
0
176
1
 90
0
176
1
290
0
176
1
 90
1
176
1
 40
0.0
176
1
 90
0
176
1
290
0
176
1
290
1
176
1
290
1
176
1
290
0
176
1
290
0
176
1
290
0
176
1
290
0
176
1
290
0
176
1
290
0
176
1
 90
50
176
1
 40
0.0
176
1
 40
1.0
176
1
 90
0
176
1
 62
18
420
0
176
1
 90
50
176
1
 90
3
176
1
 62
5
420
255
176
1
290
0
176
1
 90
50
176
1
 90
50
176
1
 90
50
176
1
290
0
176
1
 90
50
176
1
 62
256
176
0
 40
1.0
176
0
 90
2
176
1
  1
strokes_ogs.tif
176
1
290
0
176
1
 40
1.0
176
1
 40
1.0
176
1
  0
VISUALSTYLE
  5
6B
102
{ACAD_REACTORS
330
16
102
}
330
16
100
AcDbVisualStyle
  2
Realistic
 70
8
177
3
291
0
 70
58
 90
2
176
1
 90
2
176
1
 90
0
176
1
 90
2
176
1
 40
0.6
176
1
 40
30.0
176
1
 62
7
420
16777215
176
1
 90
1
176
1
 90
4
176
1
 62
7
176
1
 62
257
176
1
 90
1
176
1
 90
1
176
1
 40
1.0
176
1
 90
8
176
1
 62
7
176
1
 40
1.0
176
1
 90
1
176
1
 90
6
176
1
 90
2
176
1
 62
7
176
1
 90
5
176
1
 90
0
176
1
 90
0
176
1
290
0
176
1
 90
1
176
1
 40
0.0
176
1
 90
0
176
1
290
0
176
1
290
1
176
1
290
1
176
1
290
0
176
1
290
0
176
1
290
0
176
1
290
0
176
1
290
0
176
1
290
0
176
1
 90
50
176
1
 40
0.0
176
1
 40
1.0
176
1
 90
0
176
1
 62
18
420
0
176
1
 90
50
176
1
 90
3
176
1
 62
5
420
255
176
1
290
0
176
1
 90
50
176
1
 90
50
176
1
 90
50
176
1
290
0
176
1
 90
50
176
1
 62
256
176
0
 40
1.0
176
0
 90
2
176
1
  1
strokes_ogs.tif
176
1
290
0
176
1
 40
1.0
176
1
 40
1.0
176
1
  0
VISUALSTYLE
  5
6C
102
{ACAD_REACTORS
330
16
102
}
330
16
100
AcDbVisualStyle
  2
Shaded
 70
27
177
3
291
0
 70
58
 90
2
176
1
 90
2
176
1
 90
0
176
1
 90
2
176
1
 40
0.6
176
1
 40
30.0
176
1
 62
7
420
16777215
176
1
 90
1
176
1
 90
4
176
1
 62
7
176
1
 62
257
176
1
 90
1
176
1
 90
1
176
1
 40
1.0
176
1
 90
8
176
1
 62
7
176
1
 40
1.0
176
1
 90
1
176
1
 90
6
176
1
 90
2
176
1
 62
7
176
1
 90
5
176
1
 90
0
176
1
 90
0
176
1
290
0
176
1
 90
1
176
1
 40
0.0
176
1
 90
0
176
1
290
0
176
1
290
1
176
1
290
1
176
1
290
0
176
1
290
0
176
1
290
0
176
1
290
0
176
1
290
0
176
1
290
0
176
1
 90
50
176
1
 40
0.0
176
1
 40
1.0
176
1
 90
0
176
1
 62
18
420
0
176
1
 90
50
176
1
 90
3
176
1
 62
5
420
255
176
1
290
0
176
1
 90
50
176
1
 90
50
176
1
 90
50
176
1
290
0
176
1
 90
50
176
1
 62
256
176
0
 40
1.0
176
0
 90
2
176
1
  1
strokes_ogs.tif
176
1
290
0
176
1
 40
1.0
176
1
 40
1.0
176
1
  0
VISUALSTYLE
  5
6D
102
{ACAD_REACTORS
330
16
102
}
330
16
100
AcDbVisualStyle
  2
Shaded with edges
 70
26
177
3
291
0
 70
58
 90
2
176
1
 90
2
176
1
 90
0
176
1
 90
2
176
1
 40
0.6
176
1
 40
30.0
176
1
 62
7
420
16777215
176
1
 90
1
176
1
 90
4
176
1
 62
7
176
1
 62
257
176
1
 90
1
176
1
 90
1
176
1
 40
1.0
176
1
 90
8
176
1
 62
7
176
1
 40
1.0
176
1
 90
1
176
1
 90
6
176
1
 90
2
176
1
 62
7
176
1
 90
5
176
1
 90
0
176
1
 90
0
176
1
290
0
176
1
 90
1
176
1
 40
0.0
176
1
 90
0
176
1
290
0
176
1
290
1
176
1
290
1
176
1
290
0
176
1
290
0
176
1
290
0
176
1
290
0
176
1
290
0
176
1
290
0
176
1
 90
50
176
1
 40
0.0
176
1
 40
1.0
176
1
 90
0
176
1
 62
18
420
0
176
1
 90
50
176
1
 90
3
176
1
 62
5
420
255
176
1
290
0
176
1
 90
50
176
1
 90
50
176
1
 90
50
176
1
290
0
176
1
 90
50
176
1
 62
256
176
0
 40
1.0
176
0
 90
2
176
1
  1
strokes_ogs.tif
176
1
290
0
176
1
 40
1.0
176
1
 40
1.0
176
1
  0
VISUALSTYLE
  5
6E
102
{ACAD_REACTORS
330
16
102
}
330
16
100
AcDbVisualStyle
  2
Shades of Gray
 70
23
177
3
291
0
 70
58
 90
2
176
1
 90
2
176
1
 90
0
176
1
 90
2
176
1
 40
0.6
176
1
 40
30.0
176
1
 62
7
420
16777215
176
1
 90
1
176
1
 90
4
176
1
 62
7
176
1
 62
257
176
1
 90
1
176
1
 90
1
176
1
 40
1.0
176
1
 90
8
176
1
 62
7
176
1
 40
1.0
176
1
 90
1
176
1
 90
6
176
1
 90
2
176
1
 62
7
176
1
 90
5
176
1
 90
0
176
1
 90
0
176
1
290
0
176
1
 90
1
176
1
 40
0.0
176
1
 90
0
176
1
290
0
176
1
290
1
176
1
290
1
176
1
290
0
176
1
290
0
176
1
290
0
176
1
290
0
176
1
290
0
176
1
290
0
176
1
 90
50
176
1
 40
0.0
176
1
 40
1.0
176
1
 90
0
176
1
 62
18
420
0
176
1
 90
50
176
1
 90
3
176
1
 62
5
420
255
176
1
290
0
176
1
 90
50
176
1
 90
50
176
1
 90
50
176
1
290
0
176
1
 90
50
176
1
 62
256
176
0
 40
1.0
176
0
 90
2
176
1
  1
strokes_ogs.tif
176
1
290
0
176
1
 40
1.0
176
1
 40
1.0
176
1
  0
VISUALSTYLE
  5
6F
102
{ACAD_REACTORS
330
16
102
}
330
16
100
AcDbVisualStyle
  2
Sketchy
 70
24
177
3
291
0
 70
58
 90
2
176
1
 90
2
176
1
 90
0
176
1
 90
1
176
1
 40
0.6
176
1
 40
30.0
176
1
 62
7
420
16777215
176
1
 90
1
176
1
 90
4
176
1
 62
7
176
1
 62
257
176
1
 90
1
176
1
 90
1
176
1
 40
1.0
176
1
 90
8
176
1
 62
7
176
1
 40
1.0
176
1
 90
1
176
1
 90
6
176
1
 90
2
176
1
 62
7
176
1
 90
5
176
1
 90
0
176
1
 90
0
176
1
290
0
176
1
 90
1
176
1
 40
0.0
176
1
 90
0
176
1
290
0
176
1
290
1
176
1
290
1
176
1
290
0
176
1
290
0
176
1
290
0
176
1
290
0
176
1
290
0
176
1
290
0
176
1
 90
50
176
1
 40
0.0
176
1
 40
1.0
176
1
 90
0
176
1
 62
18
420
0
176
1
 90
50
176
1
 90
3
176
1
 62
5
420
255
176
1
290
0
176
1
 90
50
176
1
 90
50
176
1
 90
50
176
1
290
0
176
1
 90
50
176
1
 62
256
176
0
 40
1.0
176
0
 90
2
176
1
  1
strokes_ogs.tif
176
1
290
0
176
1
 40
1.0
176
1
 40
1.0
176
1
  0
VISUALSTYLE
  5
70
102
{ACAD_REACTORS
330
16
102
}
330
16
100
AcDbVisualStyle
  2
Thicken
 70
13
177
3
291
1
 70
58
 90
2
176
1
 90
2
176
1
 90
0
176
1
 90
2
176
1
 40
0.6
176
1
 40
30.0
176
1
 62
7
420
16777215
176
1
 90
1
176
1
 90
4
176
1
 62
7
176
1
 62
257
176
1
 90
1
176
1
 90
1
176
1
 40
1.0
176
1
 90
8
176
1
 62
7
176
1
 40
1.0
176
1
 90
1
176
1
 90
6
176
1
 90
2
176
1
 62
7
176
1
 90
5
176
1
 90
0
176
1
 90
0
176
1
290
0
176
1
 90
1
176
1
 40
0.0
176
1
 90
0
176
1
290
0
176
1
290
1
176
1
290
1
176
1
290
0
176
1
290
0
176
1
290
0
176
1
290
0
176
1
290
0
176
1
290
0
176
1
 90
50
176
1
 40
0.0
176
1
 40
1.0
176
1
 90
0
176
1
 62
18
420
0
176
1
 90
50
176
1
 90
3
176
1
 62
5
420
255
176
1
290
0
176
1
 90
50
176
1
 90
50
176
1
 90
50
176
1
290
0
176
1
 90
50
176
1
 62
256
176
0
 40
1.0
176
0
 90
2
176
1
  1
strokes_ogs.tif
176
1
290
0
176
1
 40
1.0
176
1
 40
1.0
176
1
  0
VISUALSTYLE
  5
71
102
{ACAD_REACTORS
330
16
102
}
330
16
100
AcDbVisualStyle
  2
Wireframe
 70
5
177
3
291
0
 70
58
 90
2
176
1
 90
2
176
1
 90
0
176
1
 90
0
176
1
 40
0.6
176
1
 40
30.0
176
1
 62
7
420
16777215
176
1
 90
1
176
1
 90
4
176
1
 62
7
176
1
 62
257
176
1
 90
1
176
1
 90
1
176
1
 40
1.0
176
1
 90
8
176
1
 62
7
176
1
 40
1.0
176
1
 90
1
176
1
 90
6
176
1
 90
2
176
1
 62
7
176
1
 90
5
176
1
 90
0
176
1
 90
0
176
1
290
0
176
1
 90
1
176
1
 40
0.0
176
1
 90
0
176
1
290
0
176
1
290
1
176
1
290
1
176
1
290
0
176
1
290
0
176
1
290
0
176
1
290
0
176
1
290
0
176
1
290
0
176
1
 90
50
176
1
 40
0.0
176
1
 40
1.0
176
1
 90
0
176
1
 62
18
420
0
176
1
 90
50
176
1
 90
3
176
1
 62
5
420
255
176
1
290
0
176
1
 90
50
176
1
 90
50
176
1
 90
50
176
1
290
0
176
1
 90
50
176
1
 62
256
176
0
 40
1.0
176
0
 90
2
176
1
  1
strokes_ogs.tif
176
1
290
0
176
1
 40
1.0
176
1
 40
1.0
176
1
  0
VISUALSTYLE
  5
72
102
{ACAD_REACTORS
330
16
102
}
330
16
100
AcDbVisualStyle
  2
X-Ray
 70
25
177
3
291
0
 70
58
 90
2
176
1
 90
2
176
1
 90
0
176
1
 90
2
176
1
 40
0.5
176
1
 40
30.0
176
1
 62
7
420
16777215
176
1
 90
1
176
1
 90
4
176
1
 62
7
176
1
 62
257
176
1
 90
1
176
1
 90
1
176
1
 40
1.0
176
1
 90
8
176
1
 62
7
176
1
 40
1.0
176
1
 90
1
176
1
 90
6
176
1
 90
2
176
1
 62
7
176
1
 90
5
176
1
 90
0
176
1
 90
0
176
1
290
0
176
1
 90
1
176
1
 40
0.0
176
1
 90
0
176
1
290
0
176
1
290
1
176
1
290
1
176
1
290
0
176
1
290
0
176
1
290
0
176
1
290
0
176
1
290
0
176
1
290
0
176
1
 90
50
176
1
 40
0.0
176
1
 40
1.0
176
1
 90
0
176
1
 62
18
420
0
176
1
 90
50
176
1
 90
3
176
1
 62
5
420
255
176
1
290
0
176
1
 90
50
176
1
 90
50
176
1
 90
50
176
1
290
0
176
1
 90
50
176
1
 62
256
176
0
 40
1.0
176
0
 90
2
176
1
  1
strokes_ogs.tif
176
1
290
0
176
1
 40
1.0
176
1
 40
1.0
176
1
  0
DICTIONARYVAR
  5
136
330
2D
100
DictionaryVariables
280
0
  1
1.4.4 @ 2026-07-14T04:30:12.474940+00:00
  0
ENDSEC
  0
EOF
