<?xml version="1.0" encoding="utf-8" ?>
<svg baseProfile="full" height="150.220528cm" version="1.1" viewBox="0 0 155.8128759893744 150.220528" width="155.8128759893744cm" xmlns="http://www.w3.org/2000/svg" xmlns:ev="http://www.w3.org/2001/xml-events" xmlns:xlink="http://www.w3.org/1999/xlink"><defs /><g fill="none" id="CONSTRUCCION" stroke="#888888" stroke-width="0.08"><line x1="5.7" x2="5.7" y1="13.620528" y2="72.220528" /><line x1="110.81156722423162" x2="110.81156722423162" y1="64.220528" y2="52.220528" /><line x1="128.8128759893744" x2="151.8128759893744" y1="10.220528" y2="10.220528" /><line x1="89.25928412369744" x2="101.25928412369744" y1="85.440528" y2="85.440528" /></g><g fill="none" id="CORTE" stroke="#d00000" stroke-width="0.08"><polygon points="3.0,73.220528 30.7,73.220528 30.7,24.909930000000003 30.189125,24.255083000000003 29.888347,23.870417000000003 29.585338,23.484644000000003 29.279324,23.097658000000003 28.969532,22.709359000000003 28.655193,22.319657000000003 28.335539999999998,21.928466 28.009809999999998,21.535707000000002 27.677242,21.141308000000002 27.337689,20.745907000000003 26.993651,20.351646000000002 26.65008,19.95986 26.310848,19.570247000000002 25.979615,19.182426 25.660041,18.796194 25.355762,18.411521999999998 25.070346999999998,18.028567000000002 24.807249,17.647662 24.569716,17.2693 24.360695,16.894072 24.182714999999998,16.522548999999998 24.037786,16.155077 23.927336999999998,15.791349 23.85161,15.426736 23.80886,15.052102 23.796893999999998,14.662021 23.814346999999998,14.255987 23.859685,13.834503999999999 23.931026,13.398591999999999 24.026118999999998,12.949536 24.142377,12.48871 24.276948,12.017463000000001 24.426775,11.537056 24.588654,11.048626 24.759276,10.553177999999999 25.229318,9.213376 12.548414,3.0 11.843099,3.7401530000000003 11.642945000000001,3.950653 11.442503,4.162383 11.242009000000001,4.375567 11.041703,4.590427 10.841828,4.807193 10.642628,5.026092 10.444354,5.247356 10.247258,5.471217 10.051596,5.697907 9.857628,5.9276610000000005 9.665619,6.160711 9.475837,6.397293 9.28881,6.637309 9.105879,6.879147 8.927577,7.12044 8.753237,7.359988 8.581977,7.596952 8.412961,7.83051 8.245398,8.059856 8.078543,8.284201 7.911695,8.502779 7.744194,8.714852 7.575414,8.919722 7.404759,9.116741999999999 7.231647,9.305323999999999 7.055375,9.485078999999999 6.873572,9.657354 6.683351,9.825152 6.483987,9.990271 6.276093,10.153345 6.060393,10.315005 5.8376660000000005,10.475921 5.608735,10.636807000000001 5.001597,11.055662 4.813181,12.620528 3.0,12.620528 3.0,73.220528" /><polygon points="60.7,14.966078999999999 60.276683,14.291509 60.005984999999995,13.860294000000001 59.734673,13.428403000000001 59.462481999999994,12.995565000000001 59.189147,12.561511000000001 58.914404,12.125971000000002 58.638275,11.689127000000001 58.359963,11.249868999999999 58.079282,10.808054 57.797791000000004,10.365922 57.517353,9.923636 57.240913,9.481978 56.970819,9.040883 56.709404,8.60035 56.458966000000004,8.16044 56.221767,7.7212700000000005 56.000011,7.283008000000001 55.795827,6.8458559999999995 55.611248,6.410035000000001 55.448188,5.97575 55.308426999999995,5.543146 55.193601,5.112249 55.105138,4.6825410000000005 55.0437,4.250252999999999 54.959810000000004,3.220528 35.7,3.220528 35.7,63.220528 60.7,63.220528 60.7,14.966078999999999" /><polygon points="85.007872,13.810478999999999 84.995862,13.361535 85.006055,12.903504 85.03676200000001,12.436687 85.08618200000001,11.961535 85.152403,11.478586 85.233398,10.988419999999998 85.327044,10.491622 85.431133,9.988758999999998 85.543385,9.480363999999998 85.66146,8.966923999999999 85.990516,7.563966 72.76660100000001,3.0974529999999993 72.136775,3.6050139999999997 71.937132,3.7644449999999994 71.739611,3.9193299999999995 71.543594,4.068861 71.34849200000001,4.212287 71.15372500000001,4.348915 70.958365,4.478355 70.760519,4.601055 70.559026,4.7175899999999995 70.354026,4.827812999999999 70.1459,4.9314409999999995 69.93503,5.028198 69.721798,5.117823 69.50658800000001,5.200061999999999 69.289781,5.274677 69.071755,5.341441 68.85284300000001,5.400150999999999 68.63247,5.450838999999999 68.40903300000001,5.494060999999999 68.18160400000001,5.530500999999999 67.950142,5.560668 67.714689,5.585076999999999 67.475322,5.604264 67.23215,5.618789 66.985297,5.629237999999999 66.734902,5.636225 66.481108,5.640389999999999 66.224058,5.642399999999999 65.96389300000001,5.6429469999999995 65.7,5.6427499999999995 65.7,15.220528 85.122747,15.220528 85.007872,13.810478999999999" /><polygon points="93.88609996918403,65.220528 119.73616196918404,65.220528 123.84554096918404,12.540599 123.10897696918403,11.800078000000001 122.68972796918403,11.383483 122.26182296918404,10.968143999999999 121.82357396918404,10.557514 121.37579096918404,10.155809999999999 120.92081496918404,9.764471 120.45952396918403,9.382914 119.99249996918404,9.010297999999999 119.52031296918403,8.645778 119.04352096918403,8.288512 118.56267096918404,7.937658 118.07830096918403,7.592377 117.59091496918404,7.251819 117.10002496918403,6.914503 116.60342996918403,6.579535 116.09917096918403,6.248482 115.58645896918404,5.9239250000000006 115.06454296918403,5.608545 114.53263396918403,5.305067 113.98992296918404,5.016286 113.43559596918404,4.745072 112.86886396918403,4.49439 112.28904096918403,4.267321 111.69757596918403,4.067663 111.09956096918404,3.897186 110.49933896918404,3.753085 109.89843096918403,3.631422 109.29801296918403,3.528289 108.69917396918403,3.439887 108.10295396918403,3.362527 107.51038596918403,3.292636 106.83492396918403,3.216934 106.14808996918403,3.261091 105.54461496918404,3.3032440000000003 104.93745296918404,3.35244 104.32748796918403,3.41217 103.71560496918403,3.48603 103.10271896918404,3.577724 102.48981696918403,3.691061 101.87801296918403,3.829946 101.27003896918403,3.997933 100.67113596918404,4.195597 100.08431096918403,4.41955 99.50938196918403,4.6667819999999995 98.94572996918403,4.934489 98.39268696918404,5.219953 97.84956496918403,5.520532 97.31567296918404,5.8336559999999995 96.79034196918403,6.156808 96.27292696918403,6.487518 95.76245496918403,6.823588 95.25609296918404,7.164789 94.75230896918404,7.514036 94.25242796918404,7.873897 93.75862296918403,8.246455000000001 93.27312496918404,8.633842 92.79823796918403,9.038225 92.33636596918403,9.461791999999999 91.89003496918403,9.906715 91.46222296918404,10.374766999999999 91.05900196918404,10.862998000000001 90.68243296918403,11.360908 90.32738496918404,11.859189 89.78478196918404,12.643934 93.88609996918403,65.220528" /><polygon points="127.81287598937438,15.469655 127.84271698937438,15.772635 127.94542298937438,16.11121 128.11220798937438,16.423243 128.33666198937436,16.696742 128.61016098937438,16.921196000000002 128.92219398937436,17.087981 129.26076898937436,17.190687 129.56374898937437,17.220528 151.06200298937438,17.220528 151.36498298937437,17.190687 151.7035579893744,17.087981 152.01559098937437,16.921196000000002 152.28908998937436,16.696742 152.51354398937437,16.423243 152.68032898937437,16.11121 152.78303498937439,15.772635 152.8128759893744,15.469655 152.8128759893744,4.971401 152.78303498937439,4.668421 152.68032898937437,4.329846 152.51354398937437,4.017813 152.28908998937436,3.744314 152.01559098937437,3.51986 151.7035579893744,3.353075 151.36498298937437,3.250369 151.06200298937438,3.220528 129.56374898937437,3.220528 129.26076898937436,3.250369 128.92219398937436,3.353075 128.61016098937438,3.51986 128.33666198937436,3.744314 128.11220798937438,4.017813 127.94542298937438,4.329846 127.84271698937438,4.668421 127.81287598937438,4.971401 127.81287598937438,15.469655" /><polygon points="3.0,80.869655 3.022155,81.094598 3.1020980000000002,81.358136 3.2319190000000004,81.601014 3.406629,81.813899 3.619514,81.988609 3.8623920000000003,82.11843 4.12593,82.198373 4.350873,82.220528 15.649127,82.220528 15.87407,82.198373 16.137608,82.11843 16.380485999999998,81.988609 16.593370999999998,81.813899 16.768081000000002,81.601014 16.897902000000002,81.358136 16.977845000000002,81.094598 17.0,80.869655 17.0,78.57140100000001 16.977845000000002,78.346458 16.897902000000002,78.08292 16.768081000000002,77.840042 16.593370999999998,77.627157 16.380485999999998,77.452447 16.137608,77.322626 15.87407,77.242683 15.649127,77.220528 4.350873,77.220528 4.12593,77.242683 3.8623920000000003,77.322626 3.619514,77.452447 3.406629,77.627157 3.2319190000000004,77.840042 3.1020980000000002,78.08292 3.022155,78.346458 3.0,78.57140100000001 3.0,80.869655" /><polygon points="22.721759,83.89173 23.189524,83.981211 23.65735,84.06559 24.125234,84.144865 24.593173,84.21903400000001 25.061164,84.288096 25.529204,84.35204900000001 25.997288,84.410891 26.465414,84.46462100000001 26.933579,84.513238 27.401777,84.556741 27.870006,84.595128 28.338263,84.628399 28.806542,84.656553 29.274841000000002,84.679588 29.743156,84.697506 30.211482,84.71030400000001 30.679816000000002,84.717983 31.148153999999998,84.720543 31.616492,84.717983 32.084827000000004,84.71030400000001 32.553153,84.697506 33.021468,84.679588 33.489767,84.656553 33.958045999999996,84.628399 34.426302,84.595128 34.894532,84.556741 35.36273,84.513238 35.830894,84.46462100000001 36.29902,84.410891 36.767105,84.35204900000001 37.235144,84.288096 37.703135,84.21903400000001 38.171075,84.144865 38.638959,84.06559 39.106785,83.981211 39.57455,83.89173 39.804891,83.845149 41.852869999999996,87.258447 42.908088,86.859464 41.093089,77.028222 39.635551,77.338908 39.188437,77.429326 38.741386,77.51484500000001 38.294397000000004,77.595466 37.847466,77.67119100000001 37.400589,77.742022 36.953765000000004,77.80796000000001 36.506989000000004,77.869007 36.060258,77.925165 35.613569,77.976435 35.166917,78.022818 34.720301,78.06431500000001 34.273714,78.100928 33.827155,78.132657 33.380618999999996,78.159503 32.934103,78.181468 32.487602,78.19855 32.041112999999996,78.210752 31.594632,78.218073 31.148153999999998,78.220513 30.701677,78.218073 30.255195999999998,78.210752 29.808707,78.19855 29.362206,78.181468 28.915689,78.159503 28.469153,78.132657 28.022593999999998,78.100928 27.576008,78.06431500000001 27.129391,78.022818 26.68274,77.976435 26.236051,77.925165 25.78932,77.869007 25.342544,77.80796000000001 24.895719,77.742022 24.448843,77.67119100000001 24.001912,77.595466 23.554923,77.51484500000001 23.107872,77.429326 22.660757,77.338908 22.0,77.19806200000001 22.0,83.742994 22.254058,83.797148 22.721759,83.89173" /><polygon points="48.35356972851539,82.362323 48.861248728515385,82.433411 49.368953728515386,82.50044 49.876681728515386,82.56341 50.38443172851539,82.62232 50.892202728515386,82.677169 51.399992728515386,82.727958 51.90780172851539,82.774685 52.415626728515385,82.81735 52.923466728515386,82.855953 53.43132072851539,82.890494 53.93918672851539,82.92097100000001 54.44706372851539,82.947386 54.95494972851539,82.969737 55.46284272851539,82.988024 55.97074272851539,83.00224800000001 56.478646728515386,83.01240800000001 56.98655372851539,83.01850400000001 57.49446272851539,83.020536 58.002371728515385,83.01850400000001 58.510279728515386,83.01240800000001 59.01818372851539,83.00224800000001 59.52608372851539,82.988024 60.033976728515384,82.969737 60.54186272851538,82.947386 61.04973972851539,82.92097100000001 61.557605728515384,82.890494 62.065459728515386,82.855953 62.57329972851539,82.81735 63.08112472851539,82.774685 63.58893272851539,82.727958 64.09672372851539,82.677169 64.60449472851539,82.62232 65.11224472851539,82.56341 65.61997272851539,82.50044 66.12767672851538,82.433411 66.63535672851539,82.362323 67.1430097285154,82.287176 68.49261772851538,82.076598 68.49261772851538,77.0524 66.84240972851539,77.30988 66.35024772851538,77.382733 65.85811172851538,77.451645 65.36600072851539,77.516616 64.87391272851539,77.577646 64.3818477285154,77.634736 63.88980372851539,77.687887 63.39777872851539,77.737098 62.90577172851539,77.782371 62.41378072851539,77.823706 61.92180572851539,77.861103 61.42984472851539,77.89456200000001 60.93789472851539,77.924085 60.445955728515386,77.94967 59.95402672851539,77.97131900000001 59.462104728515385,77.989032 58.97018872851539,78.002808 58.47827772851539,78.012648 57.986369728515385,78.018552 57.49446272851539,78.02052 57.00255672851539,78.018552 56.51064872851539,78.012648 56.01873772851539,78.002808 55.52682172851539,77.989032 55.034899728515384,77.97131900000001 54.54296972851539,77.94967 54.05103172851539,77.924085 53.55908172851539,77.89456200000001 53.06712072851539,77.861103 52.57514472851539,77.823706 52.08315472851539,77.782371 51.59114772851539,77.737098 51.09912272851539,77.687887 50.60707872851539,77.634736 50.115013728515386,77.577646 49.62292572851539,77.516616 49.13081472851539,77.451645 48.63867872851539,77.382733 48.14651672851539,77.30988 47.49630872851539,77.208429 47.49630872851539,82.23262700000001 47.84591672851539,82.287176 48.35356972851539,82.362323" /><polygon points="72.49261745703078,147.220528 80.49682245703077,147.220528 80.25997045703078,90.782056 84.48420645703078,78.214955 82.04531245703078,76.995508 81.33571645703078,77.740153 81.13556245703077,77.950653 80.93512045703078,78.162383 80.73462645703077,78.375567 80.53432045703077,78.590427 80.33444545703078,78.807193 80.13524545703078,79.026092 79.93697145703078,79.247356 79.73987545703078,79.471217 79.54421345703078,79.697907 79.35024545703078,79.927661 79.15823645703078,80.160711 78.96845445703077,80.397293 78.78142745703077,80.637309 78.59849645703078,80.879147 78.42019445703077,81.12044 78.24585445703077,81.359988 78.07459445703078,81.596952 77.90557845703077,81.83051 77.73801545703078,82.059856 77.57116045703077,82.284201 77.40431245703078,82.502779 77.23681145703078,82.71485200000001 77.06803145703078,82.91972200000001 76.89737645703077,83.116742 76.72426445703078,83.305324 76.54799245703077,83.485079 76.36618945703077,83.657354 76.17596845703078,83.825152 75.97660445703077,83.990271 75.76871045703078,84.153345 75.55301045703078,84.315005 75.33028345703077,84.475921 75.10135245703077,84.636807 74.49421445703078,85.055662 74.30579845703078,86.62052800000001 72.49261745703078,86.62052800000001 72.49261745703078,147.220528" /><polygon points="88.25928412369744,88.492433 95.25928412369744,92.902433 102.25928412369744,88.492433 102.25928412369744,77.220528 88.25928412369744,77.220528 88.25928412369744,88.492433" /></g><g fill="none" id="COSTURA" stroke="#00a000" stroke-width="0.08"><polygon points="4.0,13.620528 5.7,13.620528 5.940535309352664,11.622786011346289 6.180168019902754,11.457467356645195 6.417995532847692,11.290328703182668 6.6531152493849035,11.12046005157799 6.884624570711815,10.946951402450445 7.1116208980258495,10.76889275641932 7.333201632524431,10.585374114103896 7.548464175404987,10.395485476123453 7.756521525810086,10.198332417580403 7.957177758127113,9.9937105493246 8.151187007942124,9.782364114347283 8.339372456426435,9.565106297368386 8.522557284751358,9.342750283107833 8.701564674088207,9.11610925628556 8.877217805608293,8.88599640162149 9.05033986048293,8.653224903835554 9.221754019883434,8.418607947647681 9.392283464981112,8.1829587177778 9.562751376947286,7.947090398945838 9.733980936953262,7.7118161758717285 9.906795326170355,7.477949233275397 10.082017725759673,7.246302755866801 10.260293653536143,7.017516328513076 10.441566183725888,6.791543158732135 10.625604808450966,6.568166842095301 10.812179019833433,6.347170974173898 11.001058309995342,6.1283391505392535 11.192012171058751,5.911454966762689 11.384810095145715,5.696302018415529 11.579221574378288,5.482663901069099 11.775016100878528,5.2703242102947225 11.97196316676849,5.059066541663724 12.169832264170228,4.848674490747428 12.3683928852058,4.63893165311716 12.56741452199726,4.429621624344242 12.766666666666666,4.220528 23.99163882698849,9.720528 23.814709330960984,10.224845546821408 23.641257963237972,10.728509564582716 23.474762852123945,11.230866524223822 23.318702125923377,11.73126289668462 23.176553912940776,12.229045152905012 23.051796341480625,12.723559763824898 22.94790753984741,13.214153200384171 22.86836563634562,13.700171933522736 22.816648759279754,14.180962434180485 22.796235036954293,14.65587117329732 22.810602597673732,15.124244621813139 22.86322956974256,15.585429250667842 22.957390904975625,16.038804165465177 23.09268187709759,16.484339509963842 23.26549765491934,16.922519435957344 23.472126732082128,17.3538452296444 23.708857602227223,17.778818177223712 23.971978758995885,18.197939564894003 24.257778696029376,18.61171067885398 24.562545906968968,19.020632805302366 24.88256888545591,19.425207230437863 25.214136125131475,19.825935240459184 25.553536119636924,20.223318121565047 25.897057362613513,20.617857159954166 26.240988347702515,21.010053641825248 26.581617568545187,21.400408853377016 26.91565655989328,21.789388870362096 27.242687571244293,22.177220833960973 27.56348581153443,22.564032593268923 27.878830377146294,22.94995167382231 28.189500364462507,23.3351056011575 28.496274869865662,23.719621900810864 28.799932989738384,24.10362809831876 29.10125382046327,24.48725171921756 29.401016458422944,24.87062028904363 29.7,25.253861333333333 29.7,72.220528 4.0,72.220528" /><polygon points="35.7,4.220528 54.03796546167866,4.220528 54.04943448448164,4.36130630238598 54.11943961127542,4.853878259591031 54.219929326345195,5.342006466914345 54.34885156791701,5.825797443511343 54.50379446445467,6.305394396776762 54.682346144422,6.780940534105323 54.88209473628281,7.252579062891755 55.100628368500914,7.720453190530792 55.335535169540115,8.184706124417152 55.58440326786424,8.64548107194557 55.844820791937096,9.102921240510767 56.114375870222496,9.557169837507482 56.39065663118426,10.008370070330436 56.67125120328619,10.456665146374354 56.953747714992105,10.902198273033973 57.23573776933887,11.345112825117377 57.51556674192044,11.785588496025168 57.79327028224424,12.223886420660238 58.069114069342504,12.660278817306692 58.34336378224744,13.095037904248615 58.61628509999127,13.528435899770093 58.888143701606225,13.96074502215521 59.159205266124516,14.39223748968807 59.42973547257837,14.823185520652741 59.7,15.253861333333331 59.7,62.220528 35.7,62.220528" /><polygon points="65.7,6.6427502222222214 65.96457166424707,6.642948119032532 66.2290199457893,6.642391432666918 66.49322146192193,6.640325579949458 66.75705282994012,6.635995977704227 67.02039066713905,6.6286480427553025 67.28311159081392,6.617527191926761 67.5450922182599,6.601878842042678 67.80620916677219,6.580948409927132 68.06633905364598,6.553981312404197 68.32535849617643,6.520222966297951 68.58314411165877,6.4789187884324715 68.83957251738816,6.429314195631833 69.09451655317615,6.370674915531179 69.3477575940581,6.302758464471804 69.59898292952506,6.225828238872572 69.84787554729972,6.140170764942814 70.09411843510478,6.046072568891858 70.3373945806629,5.943820176929034 70.5773869716968,5.833700115263671 70.81377859592912,5.715998910105096 71.04625244108257,5.59100308766264 71.27449149487984,5.4589991741456325 71.49817874504359,5.320273695763401 71.71713491545131,5.175199252483749 71.93185780442371,5.0245715600656276 72.14305291315802,4.869316131467959 72.35142579770185,4.710358513926652 72.55768201410282,4.548624254677618 72.76252711840856,4.385038900956763 72.96666666666667,4.220528 84.80938594899368,8.220528 84.68738471723705,8.74069022457429 84.56784524532857,9.26049871351045 84.45322929311635,9.779599731170348 84.34599862044855,10.297639541915853 84.24861498717331,10.814264410108832 84.16354015313875,11.329120600111157 84.09323587819303,11.841854376284692 84.04016392218426,12.352112002991312 84.0067860449606,12.859539744592881 83.99556400637019,13.36378386545127 84.00895956626115,13.864490629928346 84.03796546167867,14.220528 65.7,14.220528" /><polygon points="90.80938594899368,12.92040410624 91.14589091112823,12.433730823999259 91.48858852108687,11.952781799980507 91.84367142669366,11.483281292405739 92.2172802440501,11.030906161716176 92.61248123473881,10.598532715647229 93.02760255217287,10.184721129369555 93.46056792634435,9.787663172556304 93.90930108724534,9.405550614880635 94.37172576486793,9.036575226015698 94.84576568920417,8.678928775634652 95.32934459024617,8.33080303341065 95.820386197986,7.99038976901685 96.31681526197008,7.655882416637823 96.81716851906076,7.326473533127364 97.32162933106791,7.004043934180838 97.8306551770083,6.690921955741602 98.34470353589865,6.389435933753014 98.86423188675569,6.101914204158437 99.38969770859617,5.830685102901225 99.92155848043681,5.578076965924739 100.46027168129437,5.346418129172334 101.00629479018558,5.138036928587372 101.56008528612716,4.95526170011321 102.12199498521929,4.80000223203596 102.69150492362033,4.67071901447276 103.26766768585918,4.564175372333041 103.84953286853046,4.477122794842022 104.43615006822876,4.406312771224918 105.02656888154867,4.348496790706948 105.61983890508478,4.300426342513326 106.2150097354317,4.258852915869271 106.81113096918403,4.220528 107.3961292613506,4.2860917810709935 107.98004775723567,4.354962130732362 108.56180666055775,4.430445617574479 109.14032617503537,4.51584881018772 109.71452650438704,4.614478277162457 110.28332785233125,4.729640587089065 110.84565042258652,4.86464230855792 111.40041441887136,5.022790010159395 111.94660354797435,5.207164076352311 112.48409684112951,5.417655940541758 113.01343552470236,5.651798441019297 113.53517636845388,5.907069053880442 114.04987614214504,6.180945255220706 114.55809161553687,6.470904521135605 115.06037955839034,6.774424327720651 115.55729674046644,7.08898215107136 116.04939993152618,7.4120554672832455 116.53724590133054,7.74112175245182 117.02135358851558,8.073776643019364 117.50167169939493,8.40939681812976 117.97770783350401,8.748736693644041 118.44895811923197,9.092586513980384 118.914918684968,9.441736523556962 119.37508565910123,9.796976966791954 119.82895517002083,10.159098088103535 120.27602334611595,10.528890131909883 120.71578631577576,10.90714334262917 121.14774020738939,11.294647964679578 121.57165390282059,11.691845587164567 121.98902837418485,12.096963702839753 122.40204231453353,12.50736348733489 122.81287598937439,12.92040410624 118.81113096918403,64.220528 94.81113096918403,64.220528" /><polygon points="128.8128759893744,5.0205280000000005 128.8282477650518,4.864455742387097 128.87377236336533,4.714381254107929 128.94770029953236,4.576071813584319 129.04719056442514,4.454842575050762 129.16841980295868,4.355352310157964 129.30672924348232,4.281424373990971 129.45680373176145,4.2358997756774155 129.61287598937437,4.220528 151.01287598937438,4.220528 151.16894824698727,4.2358997756774155 151.31902273526646,4.281424373990971 151.45733217579004,4.355352310157964 151.57856141432362,4.454842575050762 151.67805167921642,4.576071813584319 151.7519796153834,4.714381254107929 151.79750421369695,4.864455742387097 151.8128759893744,5.0205280000000005 151.8128759893744,15.420528 151.79750421369695,15.576600257612903 151.7519796153834,15.72667474589207 151.67805167921642,15.86498418641568 151.57856141432362,15.986213424949238 151.45733217579004,16.085703689842035 151.31902273526646,16.15963162600903 151.16894824698727,16.205156224322586 151.01287598937438,16.220528 129.61287598937437,16.220528 129.45680373176145,16.205156224322586 129.30672924348232,16.15963162600903 129.16841980295868,16.085703689842035 129.04719056442514,15.986213424949238 128.94770029953236,15.86498418641568 128.87377236336533,15.72667474589207 128.8282477650518,15.576600257612903 128.8128759893744,15.420528" /><polygon points="4.0,78.62052800000001 4.007685887838708,78.54249187119355 4.030448186995486,78.46745462705397 4.067412155078982,78.39829990679216 4.117157287525381,78.33768528752539 4.1777719067921595,78.28794015507899 4.2469266270539645,78.25097618699549 4.321963871193549,78.2282138878387 4.4,78.220528 15.6,78.220528 15.67803612880645,78.2282138878387 15.753073372946035,78.25097618699549 15.82222809320784,78.28794015507899 15.882842712474618,78.33768528752539 15.932587844921018,78.39829990679216 15.969551813004514,78.46745462705397 15.992314112161292,78.54249187119355 16.0,78.62052800000001 16.0,80.820528 15.992314112161292,80.89856412880646 15.969551813004514,80.97360137294604 15.932587844921018,81.04275609320784 15.882842712474618,81.10337071247461 15.82222809320784,81.15311584492102 15.753073372946035,81.19007981300452 15.67803612880645,81.2128421121613 15.6,81.220528 4.4,81.220528 4.3219638711935495,81.2128421121613 4.2469266270539645,81.19007981300452 4.1777719067921595,81.15311584492102 4.117157287525381,81.10337071247461 4.067412155078982,81.04275609320784 4.030448186995486,80.97360137294604 4.007685887838708,80.89856412880646 4.0,80.820528" /><polygon points="22.0,78.220528 22.457407718212885,78.318028 22.91481543642577,78.410528 23.372223154638654,78.498028 23.82963087285154,78.580528 24.287038591064423,78.658028 24.744446309277308,78.730528 25.201854027490192,78.798028 25.659261745703077,78.860528 26.11666946391596,78.918028 26.574077182128846,78.970528 27.031484900341734,79.018028 27.488892618554615,79.060528 27.946300336767504,79.098028 28.403708054980385,79.130528 28.861115773193273,79.158028 29.318523491406157,79.180528 29.775931209619042,79.19802800000001 30.233338927831927,79.210528 30.69074664604481,79.218028 31.148154364257696,79.220528 31.60556208247058,79.218028 32.06296980068347,79.210528 32.52037751889635,79.19802800000001 32.97778523710923,79.180528 33.43519295532212,79.158028 33.89260067353501,79.130528 34.35000839174789,79.098028 34.80741610996077,79.060528 35.26482382817366,79.018028 35.722231546386546,78.970528 36.17963926459943,78.918028 36.637046982812315,78.860528 37.0944547010252,78.798028 37.551862419238084,78.730528 38.00927013745097,78.658028 38.46667785566385,78.580528 38.92408557387674,78.498028 39.38149329208962,78.410528 39.83890101030251,78.318028 40.29630872851539,78.220528 41.49630872851539,84.720528 40.29630872851539,82.720528 39.83890101030251,82.818028 39.38149329208962,82.910528 38.92408557387674,82.998028 38.46667785566385,83.080528 38.00927013745097,83.158028 37.551862419238084,83.230528 37.0944547010252,83.298028 36.637046982812315,83.360528 36.17963926459943,83.418028 35.722231546386546,83.470528 35.26482382817366,83.518028 34.80741610996077,83.560528 34.35000839174789,83.598028 33.89260067353501,83.630528 33.43519295532212,83.658028 32.97778523710923,83.680528 32.52037751889635,83.69802800000001 32.06296980068347,83.710528 31.60556208247058,83.718028 31.148154364257696,83.720528 30.69074664604481,83.718028 30.233338927831927,83.710528 29.775931209619042,83.69802800000001 29.318523491406157,83.680528 28.861115773193273,83.658028 28.403708054980385,83.630528 27.946300336767504,83.598028 27.488892618554615,83.560528 27.031484900341734,83.518028 26.574077182128846,83.470528 26.11666946391596,83.418028 25.659261745703077,83.360528 25.201854027490192,83.298028 24.744446309277308,83.230528 24.287038591064423,83.158028 23.82963087285154,83.080528 23.372223154638654,82.998028 22.91481543642577,82.910528 22.457407718212885,82.818028 22.0,82.720528" /><polygon points="47.49630872851539,78.220528 47.99621644672827,78.298528 48.49612416494116,78.372528 48.99603188315404,78.442528 49.49593960136693,78.508528 49.99584731957981,78.570528 50.4957550377927,78.628528 50.99566275600558,78.682528 51.49557047421847,78.732528 51.99547819243135,78.77852800000001 52.49538591064424,78.820528 52.99529362885712,78.858528 53.49520134707001,78.892528 53.99510906528289,78.922528 54.49501678349577,78.948528 54.99492450170866,78.970528 55.49483221992155,78.988528 55.99473993813443,79.002528 56.49464765634731,79.012528 56.9945553745602,79.018528 57.49446309277308,79.020528 57.99437081098597,79.018528 58.49427852919885,79.012528 58.99418624741173,79.002528 59.49409396562462,78.988528 59.99400168383751,78.970528 60.49390940205039,78.948528 60.99381712026327,78.922528 61.49372483847616,78.892528 61.99363255668904,78.858528 62.49354027490193,78.820528 62.99344799311481,78.77852800000001 63.4933557113277,78.732528 63.99326342954058,78.682528 64.49317114775347,78.628528 64.99307886596635,78.570528 65.49298658417923,78.508528 65.99289430239213,78.442528 66.49280202060501,78.372528 66.9927097388179,78.298528 67.49261745703078,78.220528 67.49261745703078,81.220528 66.9927097388179,81.298528 66.49280202060501,81.372528 65.99289430239213,81.442528 65.49298658417923,81.508528 64.99307886596635,81.570528 64.49317114775347,81.628528 63.99326342954058,81.682528 63.4933557113277,81.732528 62.99344799311481,81.778528 62.49354027490193,81.820528 61.99363255668904,81.858528 61.49372483847616,81.892528 60.99381712026327,81.922528 60.49390940205039,81.948528 59.99400168383751,81.970528 59.49409396562462,81.988528 58.99418624741173,82.002528 58.49427852919885,82.012528 57.99437081098597,82.018528 57.49446309277308,82.020528 56.9945553745602,82.018528 56.49464765634731,82.012528 55.99473993813443,82.002528 55.49483221992155,81.988528 54.99492450170866,81.970528 54.49501678349577,81.948528 53.99510906528289,81.922528 53.49520134707001,81.892528 52.99529362885712,81.858528 52.49538591064424,81.820528 51.99547819243135,81.778528 51.49557047421847,81.732528 50.99566275600558,81.682528 50.4957550377927,81.628528 49.99584731957981,81.570528 49.49593960136693,81.508528 48.99603188315404,81.442528 48.49612416494116,81.372528 47.99621644672827,81.298528 47.49630872851539,81.220528" /><polygon points="73.49261745703078,87.62052800000001 75.19261745703078,87.62052800000001 75.43315276638344,85.62278601134629 75.67278547693353,85.4574673566452 75.91061298987847,85.29032870318267 76.14573270641569,85.120460051578 76.3772420277426,84.94695140245045 76.60423835505662,84.76889275641932 76.82581908955521,84.5853741141039 77.04108163243576,84.39548547612345 77.24913898284086,84.1983324175804 77.44979521515789,83.9937105493246 77.6438044649729,83.78236411434729 77.8319899134572,83.56510629736839 78.01517474178213,83.34275028310783 78.19418213111898,83.11610925628557 78.36983526263907,82.8859964016215 78.54295731751371,82.65322490383555 78.71437147691421,82.41860794764769 78.8849009220119,82.1829587177778 79.05536883397806,81.94709039894585 79.22659839398403,81.71181617587173 79.39941278320113,81.4779492332754 79.57463518279044,81.24630275586681 79.75291111056693,81.01751632851308 79.93418364075667,80.79154315873214 80.11822226548175,80.56816684209531 80.30479647686421,80.3471709741739 80.49367576702612,80.12833915053926 80.68462962808952,79.91145496676269 80.8774275521765,79.69630201841554 81.07183903140907,79.4826639010691 81.2676335579093,79.27032421029472 81.46458062379926,79.05906654166373 81.662449721201,78.84867449074743 81.86101034223658,78.63893165311715 82.06003197902804,78.42962162434425 82.25928412369744,78.220528 83.25928412369744,78.720528 79.25928412369744,90.62052800000001 79.49261745703078,146.220528 73.49261745703078,146.220528" /><polygon points="89.25928412369744,78.220528 101.25928412369744,78.220528 101.25928412369744,87.940528 95.25928412369744,91.720528 89.25928412369744,87.940528" /></g><g fill="none" id="PIQUETES" stroke="#00b0b0" stroke-width="0.08"><line x1="22.68373827259" x2="22.768018374003603" y1="15.781618618841222" y2="16.42231891110408" /><line x1="23.148850226264692" x2="22.768018374003603" y1="15.900239319180216" y2="16.42231891110408" /><line x1="29.79146203894885" x2="29.145277685282316" y1="46.69863907411293" y2="46.69187290262788" /><line x1="29.608537961051148" x2="29.145277685282316" y1="47.142416925887076" y2="46.69187290262788" /><line x1="44.629876199951006" x2="44.92070717419976" y1="4.2412177773441755" y2="4.818294327220807" /><line x1="45.10808926172765" x2="44.92070717419976" y1="4.199838222655825" y2="4.818294327220807" /><line x1="75.10888143792896" x2="74.85155245245485" y1="14.213555888646207" y2="13.620781232275954" /><line x1="74.62908402374971" x2="74.85155245245485" y1="14.227500111353793" y2="13.620781232275954" /><line x1="114.31465585207931" x2="114.3834845048949" y1="6.3989511431394455" y2="7.041495006662856" /><line x1="114.77677676563079" x2="114.3834845048949" y1="6.5287365863075655" y2="7.041495006662856" /><line x1="98.50319582195601" x2="98.89963735214342" y1="6.240383894613377" y2="6.750711351392528" /><line x1="98.96450897288989" x2="98.89963735214342" y1="6.107755930837008" y2="6.750711351392528" /><line x1="97.21003461433766" x2="97.63180213574842" y1="7.010956695194363" y2="7.500560777982718" /><line x1="97.66404226354639" x2="97.63180213574842" y1="6.8551457377492495" y2="7.500560777982718" /></g><g fill="none" id="TEXTOS" stroke="#000000" stroke-width="0.08"><text fill="#000000" font-family="sans-serif" font-size="0.9" stroke="none" text-anchor="middle" x="16.389159622133697" y="38.73383416787104">DELANTERO</text><text fill="#000000" font-family="sans-serif" font-size="0.6" stroke="none" text-anchor="middle" x="16.389159622133697" y="40.133834167871036">Pieza N.01</text><text fill="#000000" font-family="sans-serif" font-size="0.6" stroke="none" text-anchor="middle" x="16.389159622133697" y="41.533834167871035">Talla: S</text><text fill="#000000" font-family="sans-serif" font-size="0.6" stroke="none" text-anchor="middle" x="16.389159622133697" y="42.93383416787104">Cortar: 2  (par: izq + der)</text><text fill="#000000" font-family="sans-serif" font-size="0.9" stroke="none" text-anchor="middle" x="47.436399617000575" y="30.291516468464337">ESPALDA</text><text fill="#000000" font-family="sans-serif" font-size="0.6" stroke="none" text-anchor="middle" x="47.436399617000575" y="31.691516468464336">Pieza N.02</text><text fill="#000000" font-family="sans-serif" font-size="0.6" stroke="none" text-anchor="middle" x="47.436399617000575" y="33.091516468464334">Talla: S</text><text fill="#000000" font-family="sans-serif" font-size="0.6" stroke="none" text-anchor="middle" x="47.436399617000575" y="34.49151646846434">Cortar: 1  (al doblez)</text><text fill="#000000" font-family="sans-serif" font-size="0.6" stroke="none" text-anchor="middle" x="47.436399617000575" y="35.89151646846434">AL DOBLEZ</text><text fill="#000000" font-family="sans-serif" font-size="0.9" stroke="none" text-anchor="middle" x="74.74847239382714" y="6.473968575869352">CANESU</text><text fill="#000000" font-family="sans-serif" font-size="0.6" stroke="none" text-anchor="middle" x="74.74847239382714" y="7.873968575869353">Pieza N.03</text><text fill="#000000" font-family="sans-serif" font-size="0.6" stroke="none" text-anchor="middle" x="74.74847239382714" y="9.27396857586935">Talla: S</text><text fill="#000000" font-family="sans-serif" font-size="0.6" stroke="none" text-anchor="middle" x="74.74847239382714" y="10.673968575869353">Cortar: 2  (al doblez x2 (exterior+interior))</text><text fill="#000000" font-family="sans-serif" font-size="0.6" stroke="none" text-anchor="middle" x="74.74847239382714" y="12.073968575869353">AL DOBLEZ</text><text fill="#000000" font-family="sans-serif" font-size="0.9" stroke="none" text-anchor="middle" x="106.77350540415362" y="31.437989099507895">MANGA</text><text fill="#000000" font-family="sans-serif" font-size="0.6" stroke="none" text-anchor="middle" x="106.77350540415362" y="32.837989099507894">Pieza N.04</text><text fill="#000000" font-family="sans-serif" font-size="0.6" stroke="none" text-anchor="middle" x="106.77350540415362" y="34.2379890995079">Talla: S</text><text fill="#000000" font-family="sans-serif" font-size="0.6" stroke="none" text-anchor="middle" x="106.77350540415362" y="35.63798909950789">Cortar: 2  (par: izq + der)</text><text fill="#000000" font-family="sans-serif" font-size="0.9" stroke="none" text-anchor="middle" x="140.3128759893744" y="7.520528000000003">PUNO</text><text fill="#000000" font-family="sans-serif" font-size="0.6" stroke="none" text-anchor="middle" x="140.3128759893744" y="8.920528000000003">Pieza N.05</text><text fill="#000000" font-family="sans-serif" font-size="0.6" stroke="none" text-anchor="middle" x="140.3128759893744" y="10.320528000000003">Talla: S</text><text fill="#000000" font-family="sans-serif" font-size="0.6" stroke="none" text-anchor="middle" x="140.3128759893744" y="11.720528000000003">Cortar: 4  (4 (2 tela + 2 entretela))</text><text fill="#000000" font-family="sans-serif" font-size="0.9" stroke="none" text-anchor="middle" x="9.999999999999996" y="77.020528">TAPETA MANGA</text><text fill="#000000" font-family="sans-serif" font-size="0.6" stroke="none" text-anchor="middle" x="9.999999999999996" y="78.420528">Pieza N.06</text><text fill="#000000" font-family="sans-serif" font-size="0.6" stroke="none" text-anchor="middle" x="9.999999999999996" y="79.820528">Talla: S</text><text fill="#000000" font-family="sans-serif" font-size="0.6" stroke="none" text-anchor="middle" x="9.999999999999996" y="81.220528">Cortar: 2  (par)</text><text fill="#000000" font-family="sans-serif" font-size="0.9" stroke="none" text-anchor="middle" x="31.451329587570463" y="77.56060540494288">CUELLO</text><text fill="#000000" font-family="sans-serif" font-size="0.6" stroke="none" text-anchor="middle" x="31.451329587570463" y="78.96060540494288">Pieza N.07</text><text fill="#000000" font-family="sans-serif" font-size="0.6" stroke="none" text-anchor="middle" x="31.451329587570463" y="80.36060540494289">Talla: S</text><text fill="#000000" font-family="sans-serif" font-size="0.6" stroke="none" text-anchor="middle" x="31.451329587570463" y="81.76060540494288">Cortar: 2  (al doblez x2 (+ entretela))</text><text fill="#000000" font-family="sans-serif" font-size="0.6" stroke="none" text-anchor="middle" x="31.451329587570463" y="83.16060540494288">AL DOBLEZ</text><text fill="#000000" font-family="sans-serif" font-size="0.9" stroke="none" text-anchor="middle" x="57.49446309277308" y="76.653528">PIE DE CUELLO</text><text fill="#000000" font-family="sans-serif" font-size="0.6" stroke="none" text-anchor="middle" x="57.49446309277308" y="78.053528">Pieza N.08</text><text fill="#000000" font-family="sans-serif" font-size="0.6" stroke="none" text-anchor="middle" x="57.49446309277308" y="79.453528">Talla: S</text><text fill="#000000" font-family="sans-serif" font-size="0.6" stroke="none" text-anchor="middle" x="57.49446309277308" y="80.853528">Cortar: 2  (al doblez x2 (+ entretela))</text><text fill="#000000" font-family="sans-serif" font-size="0.6" stroke="none" text-anchor="middle" x="57.49446309277308" y="82.253528">AL DOBLEZ</text><text fill="#000000" font-family="sans-serif" font-size="0.9" stroke="none" text-anchor="middle" x="76.71040483929276" y="111.38318636930273">VISTA DELANTERA</text><text fill="#000000" font-family="sans-serif" font-size="0.6" stroke="none" text-anchor="middle" x="76.71040483929276" y="112.78318636930273">Pieza N.09</text><text fill="#000000" font-family="sans-serif" font-size="0.6" stroke="none" text-anchor="middle" x="76.71040483929276" y="114.18318636930272">Talla: S</text><text fill="#000000" font-family="sans-serif" font-size="0.6" stroke="none" text-anchor="middle" x="76.71040483929276" y="115.58318636930272">Cortar: 2  (par: izq + der)</text><text fill="#000000" font-family="sans-serif" font-size="0.9" stroke="none" text-anchor="middle" x="95.25928412369744" y="81.37680706976744">BOLSILLO</text><text fill="#000000" font-family="sans-serif" font-size="0.6" stroke="none" text-anchor="middle" x="95.25928412369744" y="82.77680706976744">Pieza N.10</text><text fill="#000000" font-family="sans-serif" font-size="0.6" stroke="none" text-anchor="middle" x="95.25928412369744" y="84.17680706976745">Talla: S</text><text fill="#000000" font-family="sans-serif" font-size="0.6" stroke="none" text-anchor="middle" x="95.25928412369744" y="85.57680706976744">Cortar: 1  (1 (opcional))</text></g><g fill="none" id="CENTROS" stroke="#0050ff" stroke-width="0.08"><circle cx="18.9" cy="29.220528" fill="#0050ff" r="0.15" /><circle cx="110.81156722423162" cy="52.220528" fill="#0050ff" r="0.15" /></g><g fill="none" id="HILO" stroke="#c0a000" stroke-width="0.08"><line x1="17.7" x2="17.7" y1="16.620528" y2="69.220528" /><line x1="17.7" x2="18.167302010770378" y1="69.220528" y2="68.11525480719654" /><line x1="17.7" x2="17.232697989229617" y1="69.220528" y2="68.11525480719654" /><line x1="17.7" x2="17.23269798922962" y1="16.620528" y2="17.725801192803463" /><line x1="17.7" x2="18.167302010770378" y1="16.620528" y2="17.725801192803463" /><line x1="36.2" x2="36.2" y1="7.220528" y2="59.220528" /><line x1="36.2" x2="36.66730201077038" y1="59.220528" y2="58.11525480719654" /><line x1="36.2" x2="35.73269798922962" y1="59.220528" y2="58.11525480719654" /><line x1="36.2" x2="35.73269798922962" y1="7.220528" y2="8.325801192803462" /><line x1="36.2" x2="36.66730201077038" y1="7.220528" y2="8.325801192803462" /><line x1="69.96000000000001" x2="69.96000000000001" y1="5.220528" y2="13.720528" /><line x1="69.96000000000001" x2="70.42730201077039" y1="13.720528" y2="12.615254807196537" /><line x1="69.96000000000001" x2="69.49269798922963" y1="13.720528" y2="12.615254807196537" /><line x1="69.96000000000001" x2="69.49269798922963" y1="5.220528" y2="6.325801192803461" /><line x1="69.96000000000001" x2="70.42730201077038" y1="5.220528" y2="6.325801192803461" /><line x1="106.81113096918403" x2="106.81113096918403" y1="7.700478442496" y2="62.220528" /><line x1="106.81113096918403" x2="107.27843297995442" y1="62.220528" y2="61.11525480719654" /><line x1="106.81113096918403" x2="106.34382895841365" y1="62.220528" y2="61.11525480719654" /><line x1="106.81113096918403" x2="106.34382895841365" y1="7.700478442496" y2="8.805751635299462" /><line x1="106.81113096918403" x2="107.27843297995442" y1="7.700478442496" y2="8.805751635299462" /><line x1="140.3128759893744" x2="140.3128759893744" y1="4.720528" y2="15.720528" /><line x1="140.3128759893744" x2="140.78017800014476" y1="15.720528" y2="14.615254807196537" /><line x1="140.3128759893744" x2="139.845573978604" y1="15.720528" y2="14.615254807196537" /><line x1="140.3128759893744" x2="139.845573978604" y1="4.720528" y2="5.825801192803462" /><line x1="140.3128759893744" x2="140.78017800014476" y1="4.720528" y2="5.825801192803462" /><line x1="10.0" x2="10.0" y1="78.62052800000001" y2="80.820528" /><line x1="10.0" x2="10.467302010770382" y1="80.820528" y2="79.71525480719654" /><line x1="10.0" x2="9.532697989229618" y1="80.820528" y2="79.71525480719654" /><line x1="10.0" x2="9.53269798922962" y1="78.62052800000001" y2="79.72580119280346" /><line x1="10.0" x2="10.46730201077038" y1="78.62052800000001" y2="79.72580119280346" /><line x1="22.5" x2="39.79630872851539" y1="78.720528" y2="78.720528" /><line x1="39.79630872851539" x2="38.69103553571193" y1="78.720528" y2="78.25322598922962" /><line x1="39.79630872851539" x2="38.69103553571193" y1="78.720528" y2="79.18783001077038" /><line x1="22.5" x2="23.605273192803462" y1="78.720528" y2="79.18783001077038" /><line x1="22.5" x2="23.605273192803462" y1="78.720528" y2="78.25322598922962" /><line x1="47.99630872851539" x2="66.99261745703078" y1="78.62052800000001" y2="78.62052800000001" /><line x1="66.99261745703078" x2="65.88734426422732" y1="78.62052800000001" y2="78.15322598922963" /><line x1="66.99261745703078" x2="65.88734426422732" y1="78.62052800000001" y2="79.08783001077038" /><line x1="47.99630872851539" x2="49.10158192131885" y1="78.62052800000001" y2="79.08783001077038" /><line x1="47.99630872851539" x2="49.10158192131885" y1="78.62052800000001" y2="78.15322598922963" /><line x1="76.49261745703078" x2="76.49261745703078" y1="92.62052800000001" y2="143.220528" /><line x1="76.49261745703078" x2="76.95991946780116" y1="143.220528" y2="142.11525480719655" /><line x1="76.49261745703078" x2="76.0253154462604" y1="143.220528" y2="142.11525480719655" /><line x1="76.49261745703078" x2="76.0253154462604" y1="92.62052800000001" y2="93.72580119280346" /><line x1="76.49261745703078" x2="76.95991946780116" y1="92.62052800000001" y2="93.72580119280346" /><line x1="95.25928412369744" x2="95.25928412369744" y1="79.220528" y2="87.940528" /><line x1="95.25928412369744" x2="95.72658613446782" y1="87.940528" y2="86.83525480719653" /><line x1="95.25928412369744" x2="94.79198211292706" y1="87.940528" y2="86.83525480719653" /><line x1="95.25928412369744" x2="94.79198211292706" y1="79.220528" y2="80.32580119280347" /><line x1="95.25928412369744" x2="95.72658613446782" y1="79.220528" y2="80.32580119280347" /></g><g fill="none" id="DOBLEZ" stroke="#c000c0" stroke-width="0.08"><line x1="35.7" x2="35.7" y1="4.220528" y2="62.220528" /><line x1="65.7" x2="65.7" y1="4.220528" y2="14.220528" /><line x1="22.0" x2="22.0" y1="78.220528" y2="84.720528" /><line x1="47.49630872851539" x2="47.49630872851539" y1="78.220528" y2="82.020528" /></g><g fill="none" id="BOTONES" stroke="#ff8000" stroke-width="0.08"><circle cx="5.7" cy="15.120528" fill="#ff8000" r="0.55" /><circle cx="5.7" cy="23.63719466666667" fill="#ff8000" r="0.55" /><circle cx="5.7" cy="32.15386133333334" fill="#ff8000" r="0.55" /><circle cx="5.7" cy="40.670528000000004" fill="#ff8000" r="0.55" /><circle cx="5.7" cy="49.18719466666667" fill="#ff8000" r="0.55" /><circle cx="5.7" cy="57.703861333333336" fill="#ff8000" r="0.55" /><circle cx="5.7" cy="66.220528" fill="#ff8000" r="0.55" /><circle cx="130.01287598937438" cy="10.220528" fill="#ff8000" r="0.55" /><circle cx="66.49261745703078" cy="79.720528" fill="#ff8000" r="0.55" /></g><g fill="none" id="OJAL" stroke="#ff40a0" stroke-width="0.08"><line x1="4.9" x2="6.5" y1="15.120528" y2="15.120528" /><line x1="4.9" x2="6.5" y1="23.63719466666667" y2="23.63719466666667" /><line x1="4.9" x2="6.5" y1="32.15386133333334" y2="32.15386133333334" /><line x1="4.9" x2="6.5" y1="40.670528000000004" y2="40.670528000000004" /><line x1="4.9" x2="6.5" y1="49.18719466666667" y2="49.18719466666667" /><line x1="4.9" x2="6.5" y1="57.703861333333336" y2="57.703861333333336" /><line x1="4.9" x2="6.5" y1="66.220528" y2="66.220528" /><line x1="150.61287598937437" x2="150.61287598937437" y1="9.420528000000001" y2="11.020528" /></g><g fill="none" id="REFERENCIAS" stroke="#b0b0b0" stroke-width="0.08"><text fill="#000000" font-family="sans-serif" font-size="0.5" stroke="none" text-anchor="start" x="5.7" y="12.620528">CF</text><text fill="#000000" font-family="sans-serif" font-size="0.5" stroke="none" text-anchor="start" x="36.0" y="33.220528">CB</text><text fill="#000000" font-family="sans-serif" font-size="0.5" stroke="none" text-anchor="start" x="140.3128759893744" y="9.420528000000001">DOBLEZ</text><text fill="#000000" font-family="sans-serif" font-size="0.5" stroke="none" text-anchor="start" x="95.25928412369744" y="79.720528">boca</text></g></svg>