<?xml version="1.0" encoding="utf-8" ?>
<svg baseProfile="full" height="153.452967cm" version="1.1" viewBox="0 0 168.0 153.452967" width="168.0cm" xmlns="http://www.w3.org/2000/svg" xmlns:ev="http://www.w3.org/2001/xml-events" xmlns:xlink="http://www.w3.org/1999/xlink"><defs /><rect fill="#f7f3ea" height="145.452967" stroke="#333" stroke-width="0.15" width="160.0" x="4.0" y="4.0" /><text fill="#000" font-family="sans-serif" font-size="1.4" x="4.0" y="3.0">PLANO DE CORTE — ancho 160 cm — largo 1.45 m</text><polygon fill="#cfe3f7" fill-opacity="0.5" points="4.0,75.733067 31.7,75.733067 31.7,26.857360999999997 31.100068,26.171653999999997 30.746677,25.768483 30.390684,25.363836 30.03155,24.957849 29.668433,24.550319 29.300496,24.141047999999998 28.926906,23.729844999999997 28.546843,23.316536 28.160414,22.901911 27.771075,22.488083 27.384597,22.076037 27.005541,21.665301 26.638339,21.255467 26.287416999999998,20.846346999999998 25.957145,20.437973 25.651775999999998,20.030609 25.375339999999998,19.624724 25.131521,19.22094 24.923496,18.819888 24.753785999999998,18.421923 24.623387,18.024288 24.5304,17.618925 24.471646,17.199514999999998 24.445508,16.764596 24.450623999999998,16.313914 24.485547999999998,15.847847 24.54861,15.367222 24.63787,14.873137 24.751132,14.366815 24.885973,13.849511 25.039794999999998,13.32245 25.209865,12.78679 25.393345999999998,12.243606999999999 25.587334,11.693886 25.788868,11.138521 26.320404,9.693617 13.274689,4.0 12.604548000000001,4.893731 12.408809,5.155346 12.212994,5.41821 12.017382000000001,5.682529 11.822256,5.948513 11.6279,6.216374999999999 11.434603,6.486328 11.242656,6.758584 11.052355,7.03336 10.863996,7.310871 10.677882,7.5913319999999995 10.494319,7.87496 10.313615,8.161969 10.136242,8.452314000000001 9.963303,8.744457 9.795078,9.035989 9.63075,9.325658 9.469275,9.612676 9.309653,9.896266 9.150927,10.17566 8.992184,10.450102000000001 8.832553,10.718852 8.671203,10.98119 8.507341,11.236425 8.340206,11.483908 8.169058,11.723041 7.993161000000001,11.953306000000001 7.810869,12.175367 7.619404,12.392209 7.41765,12.606558 7.206278,12.819252 6.986212,13.030951 6.7584420000000005,13.242343 6.524011,13.454155 6.322425,13.633067 4.0,13.633067 4.0,75.733067" stroke="#1f6fb2" stroke-width="0.1" /><text fill="#0a3d62" font-family="sans-serif" font-size="1.6" text-anchor="middle" x="17.85" y="39.8665335">01</text><polygon fill="#cfe3f7" fill-opacity="0.5" points="32.7,75.733067 60.400000000000006,75.733067 60.400000000000006,26.857360999999997 59.800068,26.171653999999997 59.446677,25.768483 59.090684,25.363836 58.73155,24.957849 58.368433,24.550319 58.000496,24.141047999999998 57.626906000000005,23.729844999999997 57.246843,23.316536 56.860414000000006,22.901911 56.471075,22.488083 56.084597,22.076037 55.705541000000004,21.665301 55.338339000000005,21.255467 54.987417,20.846346999999998 54.657145,20.437973 54.351776,20.030609 54.07534,19.624724 53.831521,19.22094 53.623496,18.819888 53.453786,18.421923 53.323387000000004,18.024288 53.2304,17.618925 53.171646,17.199514999999998 53.14550800000001,16.764596 53.150624,16.313914 53.185548,15.847847 53.24861,15.367222 53.33787,14.873137 53.451132,14.366815 53.585973,13.849511 53.739795,13.32245 53.909865,12.78679 54.093346,12.243606999999999 54.287334,11.693886 54.488868000000004,11.138521 55.020404,9.693617 41.974689000000005,4.0 41.304548000000004,4.893731 41.108809,5.155346 40.912994000000005,5.41821 40.717382,5.682529 40.522256000000006,5.948513 40.3279,6.216374999999999 40.134603000000006,6.486328 39.942656,6.758584 39.752355,7.03336 39.563996,7.310871 39.377882,7.5913319999999995 39.19431900000001,7.87496 39.013615,8.161969 38.836242000000006,8.452314000000001 38.663303,8.744457 38.49507800000001,9.035989 38.33075,9.325658 38.169275,9.612676 38.009653,9.896266 37.850927000000006,10.17566 37.692184000000005,10.450102000000001 37.53255300000001,10.718852 37.371203,10.98119 37.207341,11.236425 37.040206000000005,11.483908 36.869058,11.723041 36.693161,11.953306000000001 36.510869,12.175367 36.319404000000006,12.392209 36.117650000000005,12.606558 35.906278,12.819252 35.686212000000005,13.030951 35.458442000000005,13.242343 35.224011000000004,13.454155 35.022425000000005,13.633067 32.7,13.633067 32.7,75.733067" stroke="#1f6fb2" stroke-width="0.1" /><text fill="#0a3d62" font-family="sans-serif" font-size="1.6" text-anchor="middle" x="46.550000000000004" y="39.8665335">01</text><polygon fill="#cfe3f7" fill-opacity="0.5" points="61.4,74.267704 69.40722,74.267704 69.001177,17.827772 73.22492199999999,5.262131 70.700661,4.0 70.004548,4.928368 69.808809,5.189983 69.612994,5.452847 69.417382,5.717166 69.222256,5.98315 69.0279,6.251011999999999 68.834603,6.520965 68.642656,6.793221 68.452355,7.067997 68.26399599999999,7.345508 68.077882,7.6259689999999996 67.894319,7.909597 67.713615,8.196606 67.536242,8.486951000000001 67.363303,8.779094 67.195078,9.070626 67.03075,9.360295 66.869275,9.647313 66.709653,9.930903 66.550927,10.210297 66.392184,10.484739000000001 66.232553,10.753489 66.071203,11.015827 65.907341,11.271062 65.740206,11.518545 65.569058,11.757678 65.39316099999999,11.987943000000001 65.210869,12.210004 65.019404,12.426846 64.81765,12.641195 64.606278,12.853889 64.386212,13.065588 64.158442,13.27698 63.924011,13.488792 63.722425,13.667704 61.4,13.667704 61.4,74.267704" stroke="#1f6fb2" stroke-width="0.1" /><text fill="#0a3d62" font-family="sans-serif" font-size="1.6" text-anchor="middle" x="67.312461" y="39.133852">09</text><polygon fill="#cfe3f7" fill-opacity="0.5" points="74.22492199999999,74.267704 82.232142,74.267704 81.826099,17.827772 86.049844,5.262131 83.525583,4.0 82.82946999999999,4.928368 82.633731,5.189983 82.43791599999999,5.452847 82.24230399999999,5.717166 82.04717799999999,5.98315 81.85282199999999,6.251011999999999 81.65952499999999,6.520965 81.46757799999999,6.793221 81.277277,7.067997 81.08891799999999,7.345508 80.90280399999999,7.6259689999999996 80.719241,7.909597 80.53853699999999,8.196606 80.36116399999999,8.486951000000001 80.18822499999999,8.779094 80.02,9.070626 79.855672,9.360295 79.69419699999999,9.647313 79.53457499999999,9.930903 79.37584899999999,10.210297 79.21710599999999,10.484739000000001 79.057475,10.753489 78.896125,11.015827 78.73226299999999,11.271062 78.56512799999999,11.518545 78.39398,11.757678 78.218083,11.987943000000001 78.03579099999999,12.210004 77.844326,12.426846 77.64257199999999,12.641195 77.43119999999999,12.853889 77.21113399999999,13.065588 76.983364,13.27698 76.748933,13.488792 76.54734699999999,13.667704 74.22492199999999,13.667704 74.22492199999999,74.267704" stroke="#1f6fb2" stroke-width="0.1" /><text fill="#0a3d62" font-family="sans-serif" font-size="1.6" text-anchor="middle" x="80.137383" y="39.133852">09</text><polygon fill="#cfe3f7" fill-opacity="0.5" points="91.653381,66.004613 117.48208499999998,66.004613 122.09458599999999,14.559622999999998 121.38824299999999,13.774989999999999 120.96743599999999,13.312847999999999 120.53796,12.851835999999999 120.09776299999999,12.395239 119.647089,11.9474 119.18816699999999,11.51006 118.721992,11.082705 118.24918399999999,10.664458 117.770352,10.254439 117.286091,9.851766999999999 116.79698599999999,9.455561 116.30361299999998,9.064943 115.806533,8.679036 115.30564,8.296466 114.798901,7.915755 114.28382099999999,7.538259 113.75926199999999,7.1668959999999995 113.22424699999999,6.804792 112.67774399999999,6.4551289999999995 112.118687,6.121163 111.545992,5.80625 110.958596,5.513857 110.355505,5.24759 109.73737399999999,5.011762 109.109293,4.809616 108.477002,4.638591 107.84275,4.494111 107.20808099999999,4.371542 106.57441399999999,4.266382 105.94309799999999,4.174272 105.31546599999999,4.0909949999999995 104.59396799999999,4.0 103.85880699999998,4.05394 103.21806099999999,4.104962 102.57349099999999,4.164405 101.926244,4.236438 101.27747099999999,4.325369 100.62836899999999,4.435643 99.98024,4.57184 99.334651,4.738636 98.69578899999999,4.939882 98.06952299999999,5.174805 97.458158,5.439152 96.8611,5.729414 96.27751799999999,6.042254 95.70652999999999,6.374447 95.14723799999999,6.722872 94.59875699999999,7.084489 94.06023599999999,7.456322999999999 93.53085999999999,7.835451 93.009041,8.2196 92.491823,8.609293000000001 91.978595,9.007759 91.471195,9.417183999999999 90.971837,9.839547 90.48279199999999,10.276864 90.006406,10.731176 89.54511799999999,11.204525 89.10147699999999,11.698924 88.678642,12.215724 88.28228899999999,12.750982 87.91251799999999,13.294198000000002 87.56331999999999,13.837394 87.049844,14.659607999999999 91.653381,66.004613" stroke="#1f6fb2" stroke-width="0.1" /><text fill="#0a3d62" font-family="sans-serif" font-size="1.6" text-anchor="middle" x="104.572215" y="35.0023065">04</text><polygon fill="#cfe3f7" fill-opacity="0.5" points="127.698123,66.004613 153.526827,66.004613 158.13932799999998,14.559622999999998 157.43298499999997,13.774989999999999 157.012178,13.312847999999999 156.58270199999998,12.851835999999999 156.142505,12.395239 155.69183099999998,11.9474 155.232909,11.51006 154.76673399999999,11.082705 154.293926,10.664458 153.815094,10.254439 153.33083299999998,9.851766999999999 152.841728,9.455561 152.348355,9.064943 151.851275,8.679036 151.350382,8.296466 150.843643,7.915755 150.328563,7.538259 149.804004,7.1668959999999995 149.26898899999998,6.804792 148.722486,6.4551289999999995 148.163429,6.121163 147.590734,5.80625 147.00333799999999,5.513857 146.40024699999998,5.24759 145.782116,5.011762 145.154035,4.809616 144.52174399999998,4.638591 143.887492,4.494111 143.25282299999998,4.371542 142.619156,4.266382 141.98784,4.174272 141.360208,4.0909949999999995 140.63871,4.0 139.903549,4.05394 139.262803,4.104962 138.618233,4.164405 137.97098599999998,4.236438 137.322213,4.325369 136.673111,4.435643 136.024982,4.57184 135.379393,4.738636 134.740531,4.939882 134.114265,5.174805 133.50289999999998,5.439152 132.905842,5.729414 132.32226,6.042254 131.751272,6.374447 131.19198,6.722872 130.643499,7.084489 130.104978,7.456322999999999 129.575602,7.835451 129.05378299999998,8.2196 128.536565,8.609293000000001 128.023337,9.007759 127.515937,9.417183999999999 127.016579,9.839547 126.52753399999999,10.276864 126.051148,10.731176 125.58985999999999,11.204525 125.14621899999999,11.698924 124.723384,12.215724 124.32703099999999,12.750982 123.95725999999999,13.294198000000002 123.60806199999999,13.837394 123.09458599999999,14.659607999999999 127.698123,66.004613" stroke="#1f6fb2" stroke-width="0.1" /><text fill="#0a3d62" font-family="sans-serif" font-size="1.6" text-anchor="middle" x="140.61695699999999" y="35.0023065">04</text><polygon fill="#cfe3f7" fill-opacity="0.5" points="54.0,89.43175500000001 53.54488,88.745092 53.256333999999995,88.309477 52.967847,87.873411 52.679368,87.436547 52.390845,86.99853900000001 52.102226,86.55903900000001 51.81346,86.11770100000001 51.524504,85.674194 51.235746,85.228803 50.948979,84.782579 50.666720999999995,84.33611900000001 50.391082,83.88937100000001 50.124128999999996,83.442289 49.867903,82.994872 49.624413000000004,82.54716 49.39562,82.099225 49.18343,81.65116300000001 48.989674,81.20307500000001 48.816095000000004,80.755049 48.664342000000005,80.307123 48.535945,79.859195 48.431893,79.40930700000001 48.351451,78.95352600000001 48.292833,78.48965600000001 48.254642000000004,78.01763100000001 48.203385999999995,76.733067 29.0,76.733067 29.0,138.233067 54.0,138.233067 54.0,89.43175500000001 4.0,89.43175500000001 4.455120000000001,88.745092 4.743666000000001,88.309477 5.032153000000001,87.873411 5.320632,87.436547 5.609155000000001,86.99853900000001 5.897773999999998,86.55903900000001 6.186540000000001,86.11770100000001 6.475496,85.674194 6.764254000000001,85.228803 7.051020999999999,84.782579 7.333279000000001,84.33611900000001 7.608917999999999,83.88937100000001 7.875871,83.442289 8.132097000000002,82.994872 8.375587,82.54716 8.604379999999999,82.099225 8.816569999999999,81.65116300000001 9.010326,81.20307500000001 9.183905,80.755049 9.335657999999999,80.307123 9.464054999999998,79.859195 9.568107000000001,79.40930700000001 9.648549,78.95352600000001 9.707166999999998,78.48965600000001 9.745358,78.01763100000001 9.796614000000002,76.733067 29.0,76.733067 29.0,138.233067 4.0,138.233067 4.0,89.43175500000001" stroke="#1f6fb2" stroke-width="0.1" /><text fill="#0a3d62" font-family="sans-serif" font-size="1.6" text-anchor="middle" x="29.0" y="107.483067">02</text><polygon fill="#cfe3f7" fill-opacity="0.5" points="55.0,88.00497200000001 62.0,92.414972 69.0,88.00497200000001 69.0,76.733067 55.0,76.733067 55.0,88.00497200000001" stroke="#1f6fb2" stroke-width="0.1" /><text fill="#0a3d62" font-family="sans-serif" font-size="1.6" text-anchor="middle" x="62.0" y="84.5740195">10</text><polygon fill="#cfe3f7" fill-opacity="0.5" points="70.0,88.982194 70.029841,89.28517400000001 70.132547,89.623749 70.299332,89.935782 70.523786,90.209281 70.797285,90.43373500000001 71.109318,90.60052 71.447893,90.703226 71.750873,90.733067 93.249127,90.733067 93.552107,90.703226 93.890682,90.60052 94.202715,90.43373500000001 94.476214,90.209281 94.70066800000001,89.935782 94.867453,89.623749 94.970159,89.28517400000001 95.0,88.982194 95.0,78.48394 94.970159,78.18096 94.867453,77.84238500000001 94.70066800000001,77.53035200000001 94.476214,77.256853 94.202715,77.03239900000001 93.890682,76.86561400000001 93.552107,76.76290800000001 93.249127,76.733067 71.750873,76.733067 71.447893,76.76290800000001 71.109318,76.86561400000001 70.797285,77.03239900000001 70.523786,77.256853 70.299332,77.53035200000001 70.132547,77.84238500000001 70.029841,78.18096 70.0,78.48394 70.0,88.982194" stroke="#1f6fb2" stroke-width="0.1" /><text fill="#0a3d62" font-family="sans-serif" font-size="1.6" text-anchor="middle" x="82.5" y="83.733067">05</text><polygon fill="#cfe3f7" fill-opacity="0.5" points="96.0,88.982194 96.029841,89.28517400000001 96.132547,89.623749 96.299332,89.935782 96.523786,90.209281 96.797285,90.43373500000001 97.109318,90.60052 97.447893,90.703226 97.750873,90.733067 119.249127,90.733067 119.552107,90.703226 119.890682,90.60052 120.202715,90.43373500000001 120.476214,90.209281 120.70066800000001,89.935782 120.867453,89.623749 120.970159,89.28517400000001 121.0,88.982194 121.0,78.48394 120.970159,78.18096 120.867453,77.84238500000001 120.70066800000001,77.53035200000001 120.476214,77.256853 120.202715,77.03239900000001 119.890682,76.86561400000001 119.552107,76.76290800000001 119.249127,76.733067 97.750873,76.733067 97.447893,76.76290800000001 97.109318,76.86561400000001 96.797285,77.03239900000001 96.523786,77.256853 96.299332,77.53035200000001 96.132547,77.84238500000001 96.029841,78.18096 96.0,78.48394 96.0,88.982194" stroke="#1f6fb2" stroke-width="0.1" /><text fill="#0a3d62" font-family="sans-serif" font-size="1.6" text-anchor="middle" x="108.5" y="83.733067">05</text><polygon fill="#cfe3f7" fill-opacity="0.5" points="161.109812,87.659131 161.10827,87.17145000000001 161.12286,86.676467 161.152042,86.174616 161.194218,85.666363 161.247736,85.15218800000001 161.310889,84.63257200000001 161.38192700000002,84.107985 161.459058,83.578879 161.540457,83.045682 161.748646,81.71195300000001 148.84569199999999,76.733067 148.206584,77.167178 148.003755,77.303667 147.803425,77.43596500000001 147.605097,77.563264 147.408291,77.684814 147.212533,77.799926 147.016683,77.908344 146.818733,78.01061800000001 146.617676,78.107257 146.4137,78.19816800000001 146.207108,78.283206 145.998204,78.36223000000001 145.787293,78.435107 145.574684,78.50170800000001 145.360684,78.561909 145.145601,78.615595 144.929644,78.662676 144.712166,78.703265 144.492015,78.737852 144.268762,78.76692700000001 144.04241,78.790912 143.81299,78.81024000000001 143.580557,78.825359 143.345178,78.83673300000001 143.106932,78.844845 142.865904,78.850193 142.622182,78.85329700000001 142.375856,78.85468900000001 142.127012,78.85492400000001 141.874323,78.854567 141.874323,88.854568 161.157512,88.854568 161.109812,87.659131 122.638834,87.659131 122.640376,87.17145000000001 122.625786,86.676467 122.596604,86.174616 122.554428,85.666363 122.50091,85.15218800000001 122.437757,84.63257200000001 122.366719,84.107985 122.28958800000001,83.578879 122.208189,83.045682 122.0,81.71195300000001 134.902954,76.733067 135.542062,77.167178 135.744891,77.303667 135.945221,77.43596500000001 136.143549,77.563264 136.340355,77.684814 136.536113,77.799926 136.731963,77.908344 136.929913,78.01061800000001 137.13097,78.107257 137.334946,78.19816800000001 137.541538,78.283206 137.750442,78.36223000000001 137.961353,78.435107 138.173962,78.50170800000001 138.38796200000002,78.561909 138.603045,78.615595 138.819002,78.662676 139.03648,78.703265 139.256631,78.737852 139.479884,78.76692700000001 139.706236,78.790912 139.935656,78.81024000000001 140.168089,78.825359 140.403468,78.83673300000001 140.641714,78.844845 140.882742,78.850193 141.126464,78.85329700000001 141.37279,78.85468900000001 141.621634,78.85492400000001 141.874323,78.854567 141.874323,88.854568 122.591134,88.854568 122.638834,87.659131" stroke="#1f6fb2" stroke-width="0.1" /><text fill="#0a3d62" font-family="sans-serif" font-size="1.6" text-anchor="middle" x="141.874323" y="82.7938175">03</text><polygon fill="#cfe3f7" fill-opacity="0.5" points="26.655368999999997,146.088044 27.146859,146.177341 27.638402,146.26154400000001 28.129994999999997,146.340652 28.621636,146.41466300000002 29.113321,146.483576 29.605047999999996,146.54739 30.096814,146.60610300000002 30.588614999999997,146.659715 31.080448999999998,146.708224 31.572312999999998,146.75163 32.064203,146.789931 32.556116,146.823127 33.048049,146.85121700000002 33.539998999999995,146.8742 34.031962,146.892077 34.523936,146.90484600000002 35.015916,146.912508 35.507898999999995,146.915061 35.999882,146.912508 36.491862,146.90484600000002 36.983836,146.892077 37.475798999999995,146.8742 37.967749,146.85121700000002 38.459682,146.823127 38.951595,146.789931 39.443484999999995,146.75163 39.935349,146.708224 40.427183,146.659715 40.918983999999995,146.60610300000002 41.41075,146.54739 41.902477,146.483576 42.394161999999994,146.41466300000002 42.885802999999996,146.340652 43.377396,146.26154400000001 43.868939,146.177341 44.360428999999996,146.088044 44.644778,146.03343 46.6965,149.452967 47.751718,149.053984 45.938626,139.233067 44.46481,139.53144 43.993041,139.622052 43.521327,139.707755 43.049666,139.788552 42.578055,139.864444 42.106492,139.93543300000002 41.634973,140.00152 41.163495999999995,140.062706 40.692057999999996,140.11899300000002 40.220655,140.170381 39.749285,140.216872 39.277945,140.258466 38.806630999999996,140.295165 38.33534,140.32696900000002 37.864069,140.353879 37.392815,140.375896 36.921574,140.393019 36.450344,140.40525 35.979119999999995,140.412588 35.507898999999995,140.41503500000002 35.036677999999995,140.412588 34.565454,140.40525 34.094224,140.393019 33.622983,140.375896 33.151729,140.353879 32.680458,140.32696900000002 32.209166999999994,140.295165 31.737852999999998,140.258466 31.266512999999996,140.216872 30.795143,140.170381 30.323739999999997,140.11899300000002 29.852301999999998,140.062706 29.380824999999998,140.00152 28.909305999999997,139.93543300000002 28.437742999999998,139.864444 27.966131999999998,139.788552 27.494470999999997,139.707755 27.022757,139.622052 26.550987999999997,139.53144 25.875859,139.39476100000002 25.875859,145.935335 26.163933999999998,145.99365600000002 26.655368999999997,146.088044 25.096349,146.088044 24.604858999999998,146.177341 24.113315999999998,146.26154400000001 23.621723,146.340652 23.130081999999998,146.41466300000002 22.638396999999998,146.483576 22.14667,146.54739 21.654904,146.60610300000002 21.163103,146.659715 20.671269,146.708224 20.179405,146.75163 19.687514999999998,146.789931 19.195601999999997,146.823127 18.703668999999998,146.85121700000002 18.211719,146.8742 17.719755999999997,146.892077 17.227781999999998,146.90484600000002 16.735802,146.912508 16.243819,146.915061 15.751835999999999,146.912508 15.259856,146.90484600000002 14.767881999999998,146.892077 14.275918999999998,146.8742 13.783968999999999,146.85121700000002 13.292035999999998,146.823127 12.800123,146.789931 12.308232999999998,146.75163 11.816368999999998,146.708224 11.324535,146.659715 10.832733999999999,146.60610300000002 10.340967999999998,146.54739 9.849241,146.483576 9.357555999999999,146.41466300000002 8.865914999999998,146.340652 8.374322,146.26154400000001 7.882778999999999,146.177341 7.391288999999997,146.088044 7.106939999999998,146.03343 5.055218,149.452967 4.0,149.053984 5.8130919999999975,139.233067 7.286907999999997,139.53144 7.758676999999999,139.622052 8.230390999999997,139.707755 8.702051999999998,139.788552 9.173662999999998,139.864444 9.645225999999997,139.93543300000002 10.116744999999998,140.00152 10.588221999999998,140.062706 11.05966,140.11899300000002 11.531062999999998,140.170381 12.002432999999998,140.216872 12.473772999999998,140.258466 12.945087,140.295165 13.416377999999998,140.32696900000002 13.887648999999998,140.353879 14.358902999999998,140.375896 14.830143999999999,140.393019 15.301374,140.40525 15.772597999999999,140.412588 16.243819,140.41503500000002 16.71504,140.412588 17.186263999999998,140.40525 17.657494,140.393019 18.128735,140.375896 18.599988999999997,140.353879 19.07126,140.32696900000002 19.542551,140.295165 20.013865,140.258466 20.485205,140.216872 20.956574999999997,140.170381 21.427978,140.11899300000002 21.899416,140.062706 22.370893,140.00152 22.842412,139.93543300000002 23.313975,139.864444 23.785586,139.788552 24.257247,139.707755 24.728960999999998,139.622052 25.20073,139.53144 25.875859,139.39476100000002 25.875859,145.935335 25.587784,145.99365600000002 25.096349,146.088044" stroke="#1f6fb2" stroke-width="0.1" /><text fill="#0a3d62" font-family="sans-serif" font-size="1.6" text-anchor="middle" x="25.875859" y="144.343017">07</text><polygon fill="#cfe3f7" fill-opacity="0.5" points="71.627903,144.535609 72.159438,144.606602 72.69099399999999,144.673541 73.22256999999999,144.736425 73.754166,144.795254 74.28577999999999,144.850028 74.81741099999999,144.900747 75.349058,144.947409 75.880719,144.990014 76.412393,145.02856300000002 76.94407899999999,145.06305500000002 77.475776,145.09349 78.007482,145.119867 78.539196,145.142187 79.070916,145.160449 79.602642,145.174652 80.134372,145.184798 80.66610399999999,145.190885 81.19783799999999,145.192914 81.72957199999999,145.190885 82.261304,145.184798 82.79303399999999,145.174652 83.32476,145.160449 83.85648,145.142187 84.388194,145.119867 84.9199,145.09349 85.45159699999999,145.06305500000002 85.983283,145.02856300000002 86.514957,144.990014 87.046618,144.947409 87.57826499999999,144.900747 88.10989599999999,144.850028 88.64151,144.795254 89.17310599999999,144.736425 89.70468199999999,144.673541 90.236238,144.606602 90.76777299999999,144.535609 91.299284,144.460563 92.679878,144.255095 92.679878,139.233067 91.01226799999999,139.48125100000001 90.495575,139.554205 89.978906,139.623212 89.46225799999999,139.688273 88.94563,139.749389 88.429022,139.80656000000002 87.912432,139.859786 87.395859,139.909067 86.879302,139.954405 86.362759,139.9958 85.846229,140.033251 85.329711,140.06675900000002 84.813204,140.096324 84.296706,140.121947 83.780216,140.143627 83.263732,140.16136500000002 82.747254,140.175162 82.23078,140.18501600000002 81.71430799999999,140.190929 81.19783799999999,140.1929 80.68136799999999,140.190929 80.164896,140.18501600000002 79.648422,140.175162 79.131944,140.16136500000002 78.61546,140.143627 78.09897,140.121947 77.582472,140.096324 77.06596499999999,140.06675900000002 76.549447,140.033251 76.032917,139.9958 75.516374,139.954405 74.999817,139.909067 74.483244,139.859786 73.96665399999999,139.80656000000002 73.450046,139.749389 72.93341799999999,139.688273 72.41677,139.623212 71.90010099999999,139.554205 71.383408,139.48125100000001 70.71579799999999,139.38189300000002 70.71579799999999,144.403921 71.096392,144.460563 71.627903,144.535609 69.803693,144.535609 69.27215799999999,144.606602 68.740602,144.673541 68.209026,144.736425 67.67742999999999,144.795254 67.145816,144.850028 66.61418499999999,144.900747 66.082538,144.947409 65.550877,144.990014 65.019203,145.02856300000002 64.487517,145.06305500000002 63.955819999999996,145.09349 63.424113999999996,145.119867 62.892399999999995,145.142187 62.360679999999995,145.160449 61.828953999999996,145.174652 61.297224,145.184798 60.765491999999995,145.190885 60.233757999999995,145.192914 59.702023999999994,145.190885 59.170291999999996,145.184798 58.63856199999999,145.174652 58.106835999999994,145.160449 57.575115999999994,145.142187 57.04340199999999,145.119867 56.51169599999999,145.09349 55.97999899999999,145.06305500000002 55.448313,145.02856300000002 54.916638999999996,144.990014 54.384978,144.947409 53.853331,144.900747 53.32169999999999,144.850028 52.790085999999995,144.795254 52.258489999999995,144.736425 51.726913999999994,144.673541 51.195358,144.606602 50.663822999999994,144.535609 50.132312,144.460563 48.751718,144.255095 48.751718,139.233067 50.41932799999999,139.48125100000001 50.936021,139.554205 51.45269,139.623212 51.96933799999999,139.688273 52.485966,139.749389 53.002573999999996,139.80656000000002 53.519163999999996,139.859786 54.035737,139.909067 54.552293999999996,139.954405 55.068836999999995,139.9958 55.585367,140.033251 56.101884999999996,140.06675900000002 56.618392,140.096324 57.13489,140.121947 57.651379999999996,140.143627 58.167863999999994,140.16136500000002 58.684341999999994,140.175162 59.200815999999996,140.18501600000002 59.717287999999996,140.190929 60.233757999999995,140.1929 60.75022799999999,140.190929 61.2667,140.18501600000002 61.783173999999995,140.175162 62.299651999999995,140.16136500000002 62.816136,140.143627 63.332626,140.121947 63.849123999999996,140.096324 64.365631,140.06675900000002 64.882149,140.033251 65.39867899999999,139.9958 65.915222,139.954405 66.43177899999999,139.909067 66.948352,139.859786 67.464942,139.80656000000002 67.98155,139.749389 68.498178,139.688273 69.014826,139.623212 69.53149499999999,139.554205 70.048188,139.48125100000001 70.71579799999999,139.38189300000002 70.71579799999999,144.403921 70.335204,144.460563 69.803693,144.535609" stroke="#1f6fb2" stroke-width="0.1" /><text fill="#0a3d62" font-family="sans-serif" font-size="1.6" text-anchor="middle" x="70.71579799999999" y="142.21299050000002">08</text><polygon fill="#cfe3f7" fill-opacity="0.5" points="93.679878,142.882194 93.702033,143.107137 93.781976,143.370675 93.911797,143.613553 94.086507,143.826438 94.299392,144.001148 94.54227,144.130969 94.805808,144.210912 95.03075100000001,144.233067 106.329005,144.233067 106.553948,144.210912 106.817486,144.130969 107.060364,144.001148 107.273249,143.826438 107.447959,143.613553 107.57778,143.370675 107.657723,143.107137 107.679878,142.882194 107.679878,140.58394 107.657723,140.35899700000002 107.57778,140.095459 107.447959,139.85258100000001 107.273249,139.63969600000001 107.060364,139.464986 106.817486,139.33516500000002 106.553948,139.255222 106.329005,139.233067 95.03075100000001,139.233067 94.805808,139.255222 94.54227,139.33516500000002 94.299392,139.464986 94.086507,139.63969600000001 93.911797,139.85258100000001 93.781976,140.095459 93.702033,140.35899700000002 93.679878,140.58394 93.679878,142.882194" stroke="#1f6fb2" stroke-width="0.1" /><text fill="#0a3d62" font-family="sans-serif" font-size="1.6" text-anchor="middle" x="100.679878" y="141.733067">06</text><polygon fill="#cfe3f7" fill-opacity="0.5" points="108.679878,142.882194 108.702033,143.107137 108.781976,143.370675 108.911797,143.613553 109.086507,143.826438 109.299392,144.001148 109.54227,144.130969 109.805808,144.210912 110.03075100000001,144.233067 121.329005,144.233067 121.553948,144.210912 121.817486,144.130969 122.060364,144.001148 122.273249,143.826438 122.447959,143.613553 122.57778,143.370675 122.657723,143.107137 122.679878,142.882194 122.679878,140.58394 122.657723,140.35899700000002 122.57778,140.095459 122.447959,139.85258100000001 122.273249,139.63969600000001 122.060364,139.464986 121.817486,139.33516500000002 121.553948,139.255222 121.329005,139.233067 110.03075100000001,139.233067 109.805808,139.255222 109.54227,139.33516500000002 109.299392,139.464986 109.086507,139.63969600000001 108.911797,139.85258100000001 108.781976,140.095459 108.702033,140.35899700000002 108.679878,140.58394 108.679878,142.882194" stroke="#1f6fb2" stroke-width="0.1" /><text fill="#0a3d62" font-family="sans-serif" font-size="1.6" text-anchor="middle" x="115.679878" y="141.733067">06</text></svg>