<?xml version="1.0" encoding="utf-8" ?>
<svg baseProfile="full" height="162.272317cm" version="1.1" viewBox="0 0 168.0 162.272317" width="168.0cm" xmlns="http://www.w3.org/2000/svg" xmlns:ev="http://www.w3.org/2001/xml-events" xmlns:xlink="http://www.w3.org/1999/xlink"><defs /><rect fill="#f7f3ea" height="154.272317" stroke="#333" stroke-width="0.15" width="160.0" x="4.0" y="4.0" /><text fill="#000" font-family="sans-serif" font-size="1.4" x="4.0" y="3.0">PLANO DE CORTE — ancho 160 cm — largo 1.54 m</text><polygon fill="#cfe3f7" fill-opacity="0.5" points="4.0,74.267704 12.00722,74.267704 11.601177,17.827772 15.824922,5.262131 13.300661,4.0 12.604548000000001,4.928368 12.408809,5.189983 12.212994,5.452847 12.017382000000001,5.717166 11.822256,5.98315 11.6279,6.251011999999999 11.434603,6.520965 11.242656,6.793221 11.052355,7.067997 10.863996,7.345508 10.677882,7.6259689999999996 10.494319,7.909597 10.313615,8.196606 10.136242,8.486951000000001 9.963303,8.779094 9.795078,9.070626 9.63075,9.360295 9.469275,9.647313 9.309653,9.930903 9.150927,10.210297 8.992184,10.484739000000001 8.832553,10.753489 8.671203,11.015827 8.507341,11.271062 8.340206,11.518545 8.169058,11.757678 7.993161000000001,11.987943000000001 7.810869,12.210004 7.619404,12.426846 7.41765,12.641195 7.206278,12.853889 6.986212,13.065588 6.7584420000000005,13.27698 6.524011,13.488792 6.322425,13.667704 4.0,13.667704 4.0,74.267704" stroke="#1f6fb2" stroke-width="0.1" /><text fill="#0a3d62" font-family="sans-serif" font-size="1.6" text-anchor="middle" x="9.912461" y="39.133852">09</text><polygon fill="#cfe3f7" fill-opacity="0.5" points="16.824922,74.267704 24.832142,74.267704 24.426099,17.827772 28.649844,5.262131 26.125583,4.0 25.429470000000002,4.928368 25.233731,5.189983 25.037916000000003,5.452847 24.842304000000002,5.717166 24.647178,5.98315 24.452822,6.251011999999999 24.259525,6.520965 24.067578,6.793221 23.877277,7.067997 23.688918,7.345508 23.502804,7.6259689999999996 23.319241,7.909597 23.138537,8.196606 22.961164,8.486951000000001 22.788225,8.779094 22.62,9.070626 22.455672,9.360295 22.294197,9.647313 22.134575,9.930903 21.975849,10.210297 21.817106000000003,10.484739000000001 21.657475,10.753489 21.496125,11.015827 21.332263,11.271062 21.165128000000003,11.518545 20.99398,11.757678 20.818083,11.987943000000001 20.635791,12.210004 20.444326,12.426846 20.242572000000003,12.641195 20.031200000000002,12.853889 19.811134000000003,13.065588 19.583364,13.27698 19.348933000000002,13.488792 19.147347,13.667704 16.824922,13.667704 16.824922,74.267704" stroke="#1f6fb2" stroke-width="0.1" /><text fill="#0a3d62" font-family="sans-serif" font-size="1.6" text-anchor="middle" x="22.737383" y="39.133852">09</text><polygon fill="#cfe3f7" fill-opacity="0.5" points="29.649844,74.233067 67.59059200000002,74.233067 57.272244,26.768666 56.749912,26.171653999999997 56.396521,25.768483 56.040528,25.363836 55.681394,24.957849 55.318277,24.550319 54.95034,24.141047999999998 54.576750000000004,23.729844999999997 54.196687,23.316536 53.810258000000005,22.901911 53.420919,22.488083 53.034441,22.076037 52.655385,21.665301 52.288183000000004,21.255467 51.937261,20.846346999999998 51.606989,20.437973 51.30162,20.030609 51.025183999999996,19.624724 50.781365,19.22094 50.57334,18.819888 50.40363,18.421923 50.273231,18.024288 50.180244,17.618925 50.12149,17.199514999999998 50.095352000000005,16.764596 50.100468,16.313914 50.135391999999996,15.847847 50.198454,15.367222 50.287714,14.873137 50.400976,14.366815 50.535817,13.849511 50.689639,13.32245 50.859709,12.78679 51.043189999999996,12.243606999999999 51.237178,11.693886 51.438712,11.138521 51.970248,9.693617 38.924533000000004,4.0 38.254392,4.893731 38.058653,5.155346 37.862838,5.41821 37.667226,5.682529 37.472100000000005,5.948513 37.277744,6.216374999999999 37.084447000000004,6.486328 36.8925,6.758584 36.702199,7.03336 36.51384,7.310871 36.327726,7.5913319999999995 36.144163000000006,7.87496 35.963459,8.161969 35.786086000000005,8.452314000000001 35.613147,8.744457 35.444922000000005,9.035989 35.280594,9.325658 35.119119,9.612676 34.959497,9.896266 34.800771000000005,10.17566 34.642028,10.450102000000001 34.482397000000006,10.718852 34.321047,10.98119 34.157185,11.236425 33.990050000000004,11.483908 33.818902,11.723041 33.643005,11.953306000000001 33.460713,12.175367 33.269248000000005,12.392209 33.067494,12.606558 32.856122,12.819252 32.636056,13.030951 32.408286000000004,13.242343 32.173855,13.454155 31.972269,13.633067 29.649844,13.633067 29.649844,74.233067" stroke="#1f6fb2" stroke-width="0.1" /><text fill="#0a3d62" font-family="sans-serif" font-size="1.6" text-anchor="middle" x="48.62021800000001" y="39.1165335">01</text><polygon fill="#cfe3f7" fill-opacity="0.5" points="68.59059200000002,74.233067 106.53134000000003,74.233067 96.21299200000001,26.768666 95.69066000000001,26.171653999999997 95.33726900000002,25.768483 94.98127600000001,25.363836 94.62214200000001,24.957849 94.25902500000001,24.550319 93.89108800000001,24.141047999999998 93.51749800000002,23.729844999999997 93.13743500000001,23.316536 92.75100600000002,22.901911 92.36166700000001,22.488083 91.97518900000001,22.076037 91.59613300000001,21.665301 91.22893100000002,21.255467 90.87800900000002,20.846346999999998 90.54773700000001,20.437973 90.24236800000001,20.030609 89.96593200000001,19.624724 89.72211300000001,19.22094 89.51408800000002,18.819888 89.344378,18.421923 89.21397900000002,18.024288 89.12099200000002,17.618925 89.06223800000001,17.199514999999998 89.03610000000002,16.764596 89.04121600000002,16.313914 89.07614000000001,15.847847 89.13920200000001,15.367222 89.22846200000001,14.873137 89.34172400000001,14.366815 89.47656500000002,13.849511 89.63038700000001,13.32245 89.80045700000002,12.78679 89.98393800000001,12.243606999999999 90.17792600000001,11.693886 90.37946000000002,11.138521 90.91099600000001,9.693617 77.86528100000001,4.0 77.19514000000001,4.893731 76.99940100000002,5.155346 76.80358600000001,5.41821 76.60797400000001,5.682529 76.41284800000001,5.948513 76.21849200000001,6.216374999999999 76.02519500000001,6.486328 75.83324800000001,6.758584 75.64294700000002,7.03336 75.45458800000002,7.310871 75.26847400000001,7.5913319999999995 75.08491100000002,7.87496 74.90420700000001,8.161969 74.72683400000001,8.452314000000001 74.55389500000001,8.744457 74.38567000000002,9.035989 74.22134200000002,9.325658 74.05986700000001,9.612676 73.90024500000001,9.896266 73.74151900000001,10.17566 73.58277600000001,10.450102000000001 73.42314500000002,10.718852 73.26179500000002,10.98119 73.09793300000001,11.236425 72.93079800000001,11.483908 72.75965000000002,11.723041 72.58375300000002,11.953306000000001 72.40146100000001,12.175367 72.20999600000002,12.392209 72.00824200000001,12.606558 71.79687000000001,12.819252 71.57680400000001,13.030951 71.34903400000002,13.242343 71.11460300000002,13.454155 70.91301700000001,13.633067 68.59059200000002,13.633067 68.59059200000002,74.233067" stroke="#1f6fb2" stroke-width="0.1" /><text fill="#0a3d62" font-family="sans-serif" font-size="1.6" text-anchor="middle" x="87.56096600000002" y="39.1165335">01</text><polygon fill="#cfe3f7" fill-opacity="0.5" points="112.13487700000003,66.004613 137.96358100000003,66.004613 142.57608200000004,14.559622999999998 141.86973900000004,13.774989999999999 141.448932,13.312847999999999 141.01945600000002,12.851835999999999 140.57925900000004,12.395239 140.12858500000004,11.9474 139.669663,11.51006 139.20348800000002,11.082705 138.73068000000004,10.664458 138.25184800000002,10.254439 137.76758700000002,9.851766999999999 137.27848200000003,9.455561 136.78510900000003,9.064943 136.28802900000002,8.679036 135.78713600000003,8.296466 135.28039700000002,7.915755 134.76531700000004,7.538259 134.24075800000003,7.1668959999999995 133.70574300000004,6.804792 133.15924000000004,6.4551289999999995 132.60018300000002,6.121163 132.02748800000003,5.80625 131.44009200000002,5.513857 130.83700100000004,5.24759 130.21887000000004,5.011762 129.59078900000003,4.809616 128.95849800000002,4.638591 128.32424600000002,4.494111 127.68957700000003,4.371542 127.05591000000003,4.266382 126.42459400000003,4.174272 125.79696200000004,4.0909949999999995 125.07546400000003,4.0 124.34030300000003,4.05394 123.69955700000003,4.104962 123.05498700000003,4.164405 122.40774000000003,4.236438 121.75896700000003,4.325369 121.10986500000003,4.435643 120.46173600000003,4.57184 119.81614700000003,4.738636 119.17728500000003,4.939882 118.55101900000003,5.174805 117.93965400000003,5.439152 117.34259600000003,5.729414 116.75901400000004,6.042254 116.18802600000004,6.374447 115.62873400000002,6.722872 115.08025300000003,7.084489 114.54173200000002,7.456322999999999 114.01235600000003,7.835451 113.49053700000003,8.2196 112.97331900000003,8.609293000000001 112.46009100000003,9.007759 111.95269100000003,9.417183999999999 111.45333300000003,9.839547 110.96428800000002,10.276864 110.48790200000003,10.731176 110.02661400000002,11.204525 109.58297300000002,11.698924 109.16013800000003,12.215724 108.76378500000003,12.750982 108.39401400000003,13.294198000000002 108.04481600000003,13.837394 107.53134000000003,14.659607999999999 112.13487700000003,66.004613" stroke="#1f6fb2" stroke-width="0.1" /><text fill="#0a3d62" font-family="sans-serif" font-size="1.6" text-anchor="middle" x="125.05371100000002" y="35.0023065">04</text><polygon fill="#cfe3f7" fill-opacity="0.5" points="8.603537000000001,137.272317 34.432241,137.272317 39.044742,85.827327 38.338398999999995,85.042694 37.917592,84.580552 37.488116,84.11954 37.047919,83.662943 36.597245,83.215104 36.138323,82.77776399999999 35.672148,82.350409 35.19934,81.93216199999999 34.720508,81.522143 34.236247,81.11947099999999 33.747142,80.723265 33.253769,80.332647 32.756689,79.94673999999999 32.255796000000004,79.56416999999999 31.749057,79.183459 31.233977,78.80596299999999 30.709418,78.43459999999999 30.174402999999998,78.072496 29.6279,77.722833 29.068843,77.38886699999999 28.496148,77.073954 27.908752,76.781561 27.305661,76.515294 26.687530000000002,76.279466 26.059449,76.07732 25.427158,75.906295 24.792906000000002,75.761815 24.158237,75.639246 23.52457,75.53408599999999 22.893254,75.441976 22.265622,75.358699 21.544124,75.267704 20.808963,75.32164399999999 20.168217,75.372666 19.523647,75.432109 18.8764,75.504142 18.227627,75.59307299999999 17.578525,75.703347 16.930396000000002,75.83954399999999 16.284807,76.00634 15.645945000000001,76.20758599999999 15.019679,76.442509 14.408314,76.70685599999999 13.811256,76.997118 13.227674,77.309958 12.656686,77.642151 12.097394,77.99057599999999 11.548913,78.352193 11.010392,78.72402699999999 10.481016,79.103155 9.959197,79.487304 9.441979,79.87699699999999 8.928751,80.275463 8.421351,80.684888 7.9219930000000005,81.10725099999999 7.432948,81.544568 6.956562,81.99888 6.495274,82.472229 6.051633000000001,82.966628 5.628798,83.48342799999999 5.232445000000002,84.018686 4.862674000000002,84.561902 4.513476000000001,85.105098 4.0,85.927312 8.603537000000001,137.272317" stroke="#1f6fb2" stroke-width="0.1" /><text fill="#0a3d62" font-family="sans-serif" font-size="1.6" text-anchor="middle" x="21.522371" y="106.2700105">04</text><polygon fill="#cfe3f7" fill-opacity="0.5" points="100.222774,87.871769 99.83037,87.279729 99.541824,86.84411399999999 99.253337,86.408048 98.964858,85.971184 98.676335,85.533176 98.38771600000001,85.09367599999999 98.09895,84.65233799999999 97.809994,84.208831 97.521236,83.76344 97.234469,83.317216 96.952211,82.870756 96.67657200000001,82.42400799999999 96.409619,81.97692599999999 96.153393,81.52950899999999 95.909903,81.081797 95.68111,80.633862 95.46892,80.1858 95.275164,79.73771199999999 95.101585,79.28968599999999 94.949832,78.84176 94.82143500000001,78.39383199999999 94.717383,77.94394399999999 94.63694100000001,77.488163 94.57832300000001,77.024293 94.540132,76.552268 94.488876,75.267704 75.28549000000001,75.267704 75.28549000000001,135.26770399999998 110.526238,135.26770399999998 100.222774,87.871769 50.348206000000005,87.871769 50.740610000000004,87.279729 51.029156,86.84411399999999 51.317643000000004,86.408048 51.606122,85.971184 51.894645000000004,85.533176 52.183264,85.09367599999999 52.472030000000004,84.65233799999999 52.760986,84.208831 53.049744000000004,83.76344 53.336511,83.317216 53.618769,82.870756 53.894408,82.42400799999999 54.161361,81.97692599999999 54.417587000000005,81.52950899999999 54.661077000000006,81.081797 54.88987,80.633862 55.10206,80.1858 55.295816,79.73771199999999 55.469395000000006,79.28968599999999 55.621148000000005,78.84176 55.749545,78.39383199999999 55.85359700000001,77.94394399999999 55.934039,77.488163 55.992657,77.024293 56.030848000000006,76.552268 56.082104,75.267704 75.28549000000001,75.267704 75.28549000000001,135.26770399999998 40.044742,135.26770399999998 50.348206000000005,87.871769" stroke="#1f6fb2" stroke-width="0.1" /><text fill="#0a3d62" font-family="sans-serif" font-size="1.6" text-anchor="middle" x="75.28549000000001" y="105.267704">02</text><polygon fill="#cfe3f7" fill-opacity="0.5" points="111.526238,86.539609 118.526238,90.949609 125.526238,86.539609 125.526238,75.267704 111.526238,75.267704 111.526238,86.539609" stroke="#1f6fb2" stroke-width="0.1" /><text fill="#0a3d62" font-family="sans-serif" font-size="1.6" text-anchor="middle" x="118.526238" y="83.1086565">10</text><polygon fill="#cfe3f7" fill-opacity="0.5" points="126.526238,87.516831 126.55607900000001,87.81981099999999 126.65878500000001,88.158386 126.82557000000001,88.47041899999999 127.05002400000001,88.743918 127.32352300000001,88.96837199999999 127.63555600000001,89.13515699999999 127.974131,89.23786299999999 128.27711100000002,89.267704 149.77536500000002,89.267704 150.078345,89.23786299999999 150.41692,89.13515699999999 150.72895300000002,88.96837199999999 151.002452,88.743918 151.226906,88.47041899999999 151.39369100000002,88.158386 151.496397,87.81981099999999 151.526238,87.516831 151.526238,77.018577 151.496397,76.71559699999999 151.39369100000002,76.377022 151.226906,76.064989 151.002452,75.79149 150.72895300000002,75.567036 150.41692,75.400251 150.078345,75.297545 149.77536500000002,75.267704 128.27711100000002,75.267704 127.974131,75.297545 127.63555600000001,75.400251 127.32352300000001,75.567036 127.05002400000001,75.79149 126.82557000000001,76.064989 126.65878500000001,76.377022 126.55607900000001,76.71559699999999 126.526238,77.018577 126.526238,87.516831" stroke="#1f6fb2" stroke-width="0.1" /><text fill="#0a3d62" font-family="sans-serif" font-size="1.6" text-anchor="middle" x="139.026238" y="82.267704">05</text><polygon fill="#cfe3f7" fill-opacity="0.5" points="4.0,150.52144399999997 4.029841,150.824424 4.132547,151.16299899999999 4.299332,151.475032 4.523786,151.74853099999999 4.7972850000000005,151.972985 5.109318,152.13977 5.4478930000000005,152.24247599999998 5.750873,152.272317 27.249127,152.272317 27.552107,152.24247599999998 27.890682,152.13977 28.202715,151.972985 28.476214,151.74853099999999 28.700668,151.475032 28.867453,151.16299899999999 28.970159,150.824424 29.0,150.52144399999997 29.0,140.02319 28.970159,139.72020999999998 28.867453,139.381635 28.700668,139.06960199999997 28.476214,138.796103 28.202715,138.57164899999998 27.890682,138.40486399999998 27.552107,138.302158 27.249127,138.272317 5.750873,138.272317 5.4478930000000005,138.302158 5.109318,138.40486399999998 4.7972850000000005,138.57164899999998 4.523786,138.796103 4.299332,139.06960199999997 4.132547,139.381635 4.029841,139.72020999999998 4.0,140.02319 4.0,150.52144399999997" stroke="#1f6fb2" stroke-width="0.1" /><text fill="#0a3d62" font-family="sans-serif" font-size="1.6" text-anchor="middle" x="16.5" y="145.272317">05</text><polygon fill="#cfe3f7" fill-opacity="0.5" points="69.109812,149.19838099999998 69.10827,148.71069999999997 69.12286,148.21571699999998 69.152042,147.713866 69.194218,147.205613 69.247736,146.69143799999998 69.310889,146.171822 69.381927,145.647235 69.459058,145.11812899999998 69.540457,144.58493199999998 69.74864600000001,143.25120299999998 56.845692,138.272317 56.206584,138.706428 56.003755,138.842917 55.803425000000004,138.975215 55.605097,139.10251399999999 55.408291,139.224064 55.212533,139.33917599999998 55.016683,139.44759399999998 54.818733,139.54986799999998 54.617676,139.64650699999999 54.4137,139.737418 54.207108000000005,139.822456 53.998204,139.90148 53.787293000000005,139.974357 53.574684000000005,140.040958 53.360684,140.101159 53.145601,140.154845 52.929643999999996,140.201926 52.712165999999996,140.242515 52.492015,140.27710199999999 52.268762,140.306177 52.042410000000004,140.33016199999997 51.81299,140.34948999999997 51.580557,140.36460899999997 51.345178000000004,140.375983 51.106932,140.38409499999997 50.865904,140.389443 50.622182,140.39254699999998 50.375856,140.393939 50.127012,140.394174 49.874323000000004,140.39381699999998 49.874323000000004,150.39381799999998 69.157512,150.39381799999998 69.109812,149.19838099999998 30.638834,149.19838099999998 30.640376,148.71069999999997 30.625786,148.21571699999998 30.596604,147.713866 30.554428,147.205613 30.50091,146.69143799999998 30.437757,146.171822 30.366719,145.647235 30.289588000000002,145.11812899999998 30.208189,144.58493199999998 30.0,143.25120299999998 42.902954,138.272317 43.542062,138.706428 43.744890999999996,138.842917 43.945221000000004,138.975215 44.143549,139.10251399999999 44.340355,139.224064 44.536113,139.33917599999998 44.731963,139.44759399999998 44.929913,139.54986799999998 45.130970000000005,139.64650699999999 45.334946,139.737418 45.541538,139.822456 45.750442,139.90148 45.961353,139.974357 46.173962,140.040958 46.387962,140.101159 46.603045,140.154845 46.819002,140.201926 47.03648,140.242515 47.256631,140.27710199999999 47.479884,140.306177 47.706236000000004,140.33016199999997 47.935656,140.34948999999997 48.168089,140.36460899999997 48.403468000000004,140.375983 48.641714,140.38409499999997 48.882742,140.389443 49.126464,140.39254699999998 49.37279,140.393939 49.621634,140.394174 49.874323000000004,140.39381699999998 49.874323000000004,150.39381799999998 30.591134,150.39381799999998 30.638834,149.19838099999998" stroke="#1f6fb2" stroke-width="0.1" /><text fill="#0a3d62" font-family="sans-serif" font-size="1.6" text-anchor="middle" x="49.874323000000004" y="144.3330675">03</text><polygon fill="#cfe3f7" fill-opacity="0.5" points="93.404015,145.12729399999998 93.89550500000001,145.216591 94.38704800000001,145.300794 94.878641,145.379902 95.370282,145.453913 95.861967,145.52282599999998 96.353694,145.58664 96.84546,145.645353 97.33726100000001,145.698965 97.82909500000001,145.74747399999998 98.320959,145.79088 98.812849,145.82918099999998 99.30476200000001,145.86237699999998 99.796695,145.890467 100.288645,145.91344999999998 100.780608,145.93132699999998 101.272582,145.944096 101.76456200000001,145.95175799999998 102.256545,145.954311 102.74852800000001,145.95175799999998 103.240508,145.944096 103.732482,145.93132699999998 104.224445,145.91344999999998 104.716395,145.890467 105.20832800000001,145.86237699999998 105.700241,145.82918099999998 106.192131,145.79088 106.68399500000001,145.74747399999998 107.17582900000001,145.698965 107.66763,145.645353 108.15939600000002,145.58664 108.65112300000001,145.52282599999998 109.142808,145.453913 109.634449,145.379902 110.12604200000001,145.300794 110.617585,145.216591 111.109075,145.12729399999998 111.39342400000001,145.07268 113.44514600000001,148.49221699999998 114.500364,148.093234 112.68727200000001,138.272317 111.21345600000001,138.57068999999998 110.74168700000001,138.66130199999998 110.26997300000001,138.74700499999997 109.79831200000001,138.827802 109.32670100000001,138.90369399999997 108.85513800000001,138.974683 108.38361900000001,139.04076999999998 107.912142,139.10195599999997 107.44070400000001,139.158243 106.969301,139.20963099999997 106.49793100000001,139.25612199999998 106.02659100000001,139.29771599999998 105.555277,139.33441499999998 105.08398600000001,139.366219 104.61271500000001,139.393129 104.141461,139.415146 103.67022,139.432269 103.19899000000001,139.44449999999998 102.727766,139.45183799999998 102.256545,139.454285 101.785324,139.45183799999998 101.31410000000001,139.44449999999998 100.84287,139.432269 100.37162900000001,139.415146 99.90037500000001,139.393129 99.42910400000001,139.366219 98.957813,139.33441499999998 98.48649900000001,139.29771599999998 98.01515900000001,139.25612199999998 97.543789,139.20963099999997 97.07238600000001,139.158243 96.600948,139.10195599999997 96.12947100000001,139.04076999999998 95.65795200000001,138.974683 95.186389,138.90369399999997 94.71477800000001,138.827802 94.24311700000001,138.74700499999997 93.771403,138.66130199999998 93.299634,138.57068999999998 92.624505,138.434011 92.624505,144.974585 92.91258,145.032906 93.404015,145.12729399999998 91.84499500000001,145.12729399999998 91.35350500000001,145.216591 90.861962,145.300794 90.37036900000001,145.379902 89.87872800000001,145.453913 89.387043,145.52282599999998 88.89531600000001,145.58664 88.40355000000001,145.645353 87.91174900000001,145.698965 87.419915,145.74747399999998 86.92805100000001,145.79088 86.436161,145.82918099999998 85.944248,145.86237699999998 85.452315,145.890467 84.96036500000001,145.91344999999998 84.46840200000001,145.93132699999998 83.976428,145.944096 83.484448,145.95175799999998 82.99246500000001,145.954311 82.500482,145.95175799999998 82.00850200000001,145.944096 81.51652800000001,145.93132699999998 81.02456500000001,145.91344999999998 80.532615,145.890467 80.040682,145.86237699999998 79.54876900000001,145.82918099999998 79.05687900000001,145.79088 78.565015,145.74747399999998 78.073181,145.698965 77.58138000000001,145.645353 77.08961400000001,145.58664 76.59788700000001,145.52282599999998 76.10620200000001,145.453913 75.61456100000001,145.379902 75.12296800000001,145.300794 74.63142500000001,145.216591 74.13993500000001,145.12729399999998 73.855586,145.07268 71.803864,148.49221699999998 70.74864600000001,148.093234 72.561738,138.272317 74.035554,138.57068999999998 74.50732300000001,138.66130199999998 74.979037,138.74700499999997 75.450698,138.827802 75.92230900000001,138.90369399999997 76.393872,138.974683 76.865391,139.04076999999998 77.33686800000001,139.10195599999997 77.808306,139.158243 78.27970900000001,139.20963099999997 78.751079,139.25612199999998 79.222419,139.29771599999998 79.69373300000001,139.33441499999998 80.165024,139.366219 80.636295,139.393129 81.107549,139.415146 81.57879000000001,139.432269 82.05002,139.44449999999998 82.52124400000001,139.45183799999998 82.99246500000001,139.454285 83.46368600000001,139.45183799999998 83.93491,139.44449999999998 84.40614000000001,139.432269 84.87738100000001,139.415146 85.348635,139.393129 85.819906,139.366219 86.29119700000001,139.33441499999998 86.762511,139.29771599999998 87.23385100000002,139.25612199999998 87.70522100000001,139.20963099999997 88.176624,139.158243 88.64806200000001,139.10195599999997 89.119539,139.04076999999998 89.591058,138.974683 90.06262100000001,138.90369399999997 90.534232,138.827802 91.00589300000001,138.74700499999997 91.477607,138.66130199999998 91.949376,138.57068999999998 92.624505,138.434011 92.624505,144.974585 92.33643000000001,145.032906 91.84499500000001,145.12729399999998" stroke="#1f6fb2" stroke-width="0.1" /><text fill="#0a3d62" font-family="sans-serif" font-size="1.6" text-anchor="middle" x="92.624505" y="143.38226699999998">07</text><polygon fill="#cfe3f7" fill-opacity="0.5" points="138.376549,143.57485899999998 138.908084,143.645852 139.43964,143.71279099999998 139.971216,143.77567499999998 140.502812,143.83450399999998 141.034426,143.889278 141.566057,143.93999699999998 142.097704,143.98665899999997 142.629365,144.02926399999998 143.16103900000002,144.067813 143.692725,144.102305 144.224422,144.13273999999998 144.756128,144.15911699999998 145.287842,144.181437 145.81956200000002,144.19969899999998 146.351288,144.213902 146.883018,144.22404799999998 147.41475,144.230135 147.946484,144.23216399999998 148.478218,144.230135 149.00995,144.22404799999998 149.54167999999999,144.213902 150.073406,144.19969899999998 150.605126,144.181437 151.13684,144.15911699999998 151.668546,144.13273999999998 152.200243,144.102305 152.731929,144.067813 153.263603,144.02926399999998 153.795264,143.98665899999997 154.326911,143.93999699999998 154.858542,143.889278 155.390156,143.83450399999998 155.921752,143.77567499999998 156.453328,143.71279099999998 156.98488400000002,143.645852 157.51641899999998,143.57485899999998 158.04793,143.499813 159.428524,143.294345 159.428524,138.272317 157.760914,138.520501 157.244221,138.59345499999998 156.727552,138.66246199999998 156.210904,138.727523 155.694276,138.788639 155.177668,138.84581 154.661078,138.899036 154.144505,138.94831699999997 153.627948,138.993655 153.111405,139.03504999999998 152.594875,139.072501 152.078357,139.106009 151.56185,139.135574 151.045352,139.161197 150.528862,139.182877 150.012378,139.200615 149.4959,139.21441199999998 148.979426,139.224266 148.462954,139.230179 147.946484,139.23215 147.430014,139.230179 146.913542,139.224266 146.397068,139.21441199999998 145.88059,139.200615 145.364106,139.182877 144.84761600000002,139.161197 144.331118,139.135574 143.814611,139.106009 143.298093,139.072501 142.781563,139.03504999999998 142.26502,138.993655 141.74846300000002,138.94831699999997 141.23189,138.899036 140.7153,138.84581 140.198692,138.788639 139.682064,138.727523 139.165416,138.66246199999998 138.64874700000001,138.59345499999998 138.132054,138.520501 137.46444400000001,138.421143 137.46444400000001,143.44317099999998 137.845038,143.499813 138.376549,143.57485899999998 136.55233900000002,143.57485899999998 136.020804,143.645852 135.489248,143.71279099999998 134.957672,143.77567499999998 134.426076,143.83450399999998 133.894462,143.889278 133.362831,143.93999699999998 132.831184,143.98665899999997 132.299523,144.02926399999998 131.767849,144.067813 131.236163,144.102305 130.704466,144.13273999999998 130.17276,144.15911699999998 129.64104600000002,144.181437 129.109326,144.19969899999998 128.57760000000002,144.213902 128.04587,144.22404799999998 127.514138,144.230135 126.982404,144.23216399999998 126.45067,144.230135 125.918938,144.22404799999998 125.387208,144.213902 124.85548200000001,144.19969899999998 124.323762,144.181437 123.79204800000001,144.15911699999998 123.26034200000001,144.13273999999998 122.728645,144.102305 122.196959,144.067813 121.66528500000001,144.02926399999998 121.133624,143.98665899999997 120.601977,143.93999699999998 120.070346,143.889278 119.53873200000001,143.83450399999998 119.007136,143.77567499999998 118.47556,143.71279099999998 117.944004,143.645852 117.412469,143.57485899999998 116.880958,143.499813 115.500364,143.294345 115.500364,138.272317 117.167974,138.520501 117.684667,138.59345499999998 118.201336,138.66246199999998 118.717984,138.727523 119.234612,138.788639 119.75122,138.84581 120.26781,138.899036 120.784383,138.94831699999997 121.30094,138.993655 121.81748300000001,139.03504999999998 122.334013,139.072501 122.850531,139.106009 123.36703800000001,139.135574 123.883536,139.161197 124.400026,139.182877 124.91651,139.200615 125.43298800000001,139.21441199999998 125.94946200000001,139.224266 126.465934,139.230179 126.982404,139.23215 127.498874,139.230179 128.015346,139.224266 128.53182,139.21441199999998 129.04829800000002,139.200615 129.564782,139.182877 130.081272,139.161197 130.59777,139.135574 131.11427700000002,139.106009 131.630795,139.072501 132.147325,139.03504999999998 132.663868,138.993655 133.180425,138.94831699999997 133.696998,138.899036 134.21358800000002,138.84581 134.730196,138.788639 135.246824,138.727523 135.763472,138.66246199999998 136.28014100000001,138.59345499999998 136.796834,138.520501 137.46444400000001,138.421143 137.46444400000001,143.44317099999998 137.08385,143.499813 136.55233900000002,143.57485899999998" stroke="#1f6fb2" stroke-width="0.1" /><text fill="#0a3d62" font-family="sans-serif" font-size="1.6" text-anchor="middle" x="137.46444400000001" y="141.2522405">08</text><polygon fill="#cfe3f7" fill-opacity="0.5" points="4.0,156.92144399999998 4.022155,157.14638699999998 4.102098,157.409925 4.2319189999999995,157.65280299999998 4.406629,157.86568799999998 4.619514,158.04039799999998 4.862392,158.17021899999997 5.12593,158.250162 5.350873,158.272317 16.649127,158.272317 16.87407,158.250162 17.137608,158.17021899999997 17.380485999999998,158.04039799999998 17.593370999999998,157.86568799999998 17.768081000000002,157.65280299999998 17.897902000000002,157.409925 17.977845000000002,157.14638699999998 18.0,156.92144399999998 18.0,154.62319 17.977845000000002,154.398247 17.897902000000002,154.134709 17.768081000000002,153.891831 17.593370999999998,153.678946 17.380485999999998,153.504236 17.137608,153.374415 16.87407,153.29447199999998 16.649127,153.272317 5.350873,153.272317 5.12593,153.29447199999998 4.862392,153.374415 4.619514,153.504236 4.406629,153.678946 4.2319189999999995,153.891831 4.102098,154.134709 4.022155,154.398247 4.0,154.62319 4.0,156.92144399999998" stroke="#1f6fb2" stroke-width="0.1" /><text fill="#0a3d62" font-family="sans-serif" font-size="1.6" text-anchor="middle" x="11.0" y="155.772317">06</text><polygon fill="#cfe3f7" fill-opacity="0.5" points="19.0,156.92144399999998 19.022155,157.14638699999998 19.102098,157.409925 19.231919,157.65280299999998 19.406629,157.86568799999998 19.619514,158.04039799999998 19.862392,158.17021899999997 20.12593,158.250162 20.350873,158.272317 31.649127,158.272317 31.87407,158.250162 32.137608,158.17021899999997 32.380486,158.04039799999998 32.593371,157.86568799999998 32.768081,157.65280299999998 32.897902,157.409925 32.977845,157.14638699999998 33.0,156.92144399999998 33.0,154.62319 32.977845,154.398247 32.897902,154.134709 32.768081,153.891831 32.593371,153.678946 32.380486,153.504236 32.137608,153.374415 31.87407,153.29447199999998 31.649127,153.272317 20.350873,153.272317 20.12593,153.29447199999998 19.862392,153.374415 19.619514,153.504236 19.406629,153.678946 19.231919,153.891831 19.102098,154.134709 19.022155,154.398247 19.0,154.62319 19.0,156.92144399999998" stroke="#1f6fb2" stroke-width="0.1" /><text fill="#0a3d62" font-family="sans-serif" font-size="1.6" text-anchor="middle" x="26.0" y="155.772317">06</text></svg>