<?xml version="1.0" encoding="utf-8" ?>
<svg baseProfile="full" height="162.253952cm" version="1.1" viewBox="0 0 158.0 162.253952" width="158.0cm" xmlns="http://www.w3.org/2000/svg" xmlns:ev="http://www.w3.org/2001/xml-events" xmlns:xlink="http://www.w3.org/1999/xlink"><defs /><rect fill="#f7f3ea" height="154.253952" stroke="#333" stroke-width="0.15" width="150.0" x="4.0" y="4.0" /><text fill="#000" font-family="sans-serif" font-size="1.4" x="4.0" y="3.0">PLANO DE CORTE — ancho 150 cm — largo 1.54 m</text><polygon fill="#cfe3f7" fill-opacity="0.5" points="4.0,74.249961 12.016318,74.249961 11.102651,17.805645 15.324922,5.244388 12.836147,4.0 12.148354000000001,4.831521 11.966821,5.051469 11.78508,5.272634 11.603374,5.495214 11.421947,5.719409000000001 11.241047,5.945421 11.060925000000001,6.173453 10.881836,6.403711 10.704037,6.636402 10.527788000000001,6.871732 10.353356,7.109908 10.181009,7.3511370000000005 10.011021,7.595626 9.843862,7.843293 9.680727000000001,8.092547 9.52206,8.341023 9.367178,8.58755 9.215175,8.831378 9.065190000000001,9.071772 8.916409,9.308008000000001 8.768061,9.539376 8.619417,9.765184 8.469793,9.984765 8.318541,10.197486 8.165041,10.402757000000001 8.008697999999999,10.600048000000001 7.848885,10.788939 7.683755,10.970448000000001 7.510444,11.147644 7.327877,11.322816 7.136627000000001,11.496621999999999 6.937446,11.669635 6.731152,11.842462000000001 6.518610000000001,12.015755 5.985912000000001,12.442287 5.824653,13.649961000000001 4.0,13.649961000000001 4.0,74.249961" stroke="#1f6fb2" stroke-width="0.1" /><text fill="#0a3d62" font-family="sans-serif" font-size="1.6" text-anchor="middle" x="9.662461" y="39.1249805">09</text><polygon fill="#cfe3f7" fill-opacity="0.5" points="16.324922,74.249961 24.34124,74.249961 23.427573000000002,17.805645 27.649844,5.244388 25.161069,4.0 24.473276000000002,4.831521 24.291743,5.051469 24.110002,5.272634 23.928296000000003,5.495214 23.746869,5.719409000000001 23.565969000000003,5.945421 23.385847000000002,6.173453 23.206758,6.403711 23.028959,6.636402 22.852710000000002,6.871732 22.678278,7.109908 22.505931,7.3511370000000005 22.335943,7.595626 22.168784000000002,7.843293 22.005649000000002,8.092547 21.846982,8.341023 21.6921,8.58755 21.540097000000003,8.831378 21.390112000000002,9.071772 21.241331000000002,9.308008000000001 21.092983,9.539376 20.944339,9.765184 20.794715,9.984765 20.643463,10.197486 20.489963000000003,10.402757000000001 20.33362,10.600048000000001 20.173807,10.788939 20.008677000000002,10.970448000000001 19.835366,11.147644 19.652799,11.322816 19.461549,11.496621999999999 19.262368000000002,11.669635 19.056074000000002,11.842462000000001 18.843532,12.015755 18.310834,12.442287 18.149575000000002,13.649961000000001 16.324922,13.649961000000001 16.324922,74.249961" stroke="#1f6fb2" stroke-width="0.1" /><text fill="#0a3d62" font-family="sans-serif" font-size="1.6" text-anchor="middle" x="21.987383" y="39.1249805">09</text><polygon fill="#cfe3f7" fill-opacity="0.5" points="28.649844,74.21784 56.349844000000004,74.21784 56.349844000000004,25.679382 55.846377000000004,25.020819 55.547948000000005,24.631024 55.247834,24.240163 54.945727000000005,23.848405 54.641106,23.455645999999998 54.333453000000006,23.061783 54.02225,22.666715 53.706979000000004,22.270348 53.387147999999996,21.872616999999998 53.063092,21.474411 52.737573,21.077533 52.414434,20.682646 52.09664,20.28931 51.787084,19.897123 51.488641,19.505798 51.204144,19.115155 50.936358999999996,18.72512 50.687949,18.33571 50.461427,17.947006000000002 50.259109,17.559107 50.083062,17.172049 49.935069,16.785689 49.816344,16.398586 49.726433,16.005012 49.662861,15.599468 49.623884000000004,15.180768 49.60798,14.749127000000001 49.613533000000004,14.305094 49.638774,13.849440000000001 49.68177,13.383072 49.74043,12.906955 49.812527,12.422057 49.895719,11.929324 49.987567,11.429647 50.085558000000006,10.923856 50.343958,9.623273000000001 37.459422,4.0 36.798198,4.7994 36.616665000000005,5.019348 36.434924,5.240513 36.253218000000004,5.463093 36.071791000000005,5.687288000000001 35.890891,5.9133 35.710769,6.141332 35.53168,6.37159 35.353881,6.604281 35.177632,6.839611 35.0032,7.077787 34.830853000000005,7.319016 34.660865,7.563505 34.493706,7.811172 34.330571,8.060426 34.171904,8.308902 34.017022000000004,8.555429 33.865019000000004,8.799257 33.715034,9.039651 33.566253,9.275887 33.417905000000005,9.507255 33.269261,9.733063 33.119637000000004,9.952644 32.968385,10.165365 32.814885000000004,10.370636000000001 32.658542000000004,10.567927000000001 32.498729000000004,10.756817999999999 32.333599,10.938327000000001 32.160288,11.115523 31.977721000000003,11.290695 31.786471000000002,11.464500999999998 31.587290000000003,11.637514 31.380996000000003,11.810341000000001 31.168454,11.983633999999999 30.635756,12.410166 30.474497000000003,13.617840000000001 28.649844,13.617840000000001 28.649844,74.21784" stroke="#1f6fb2" stroke-width="0.1" /><text fill="#0a3d62" font-family="sans-serif" font-size="1.6" text-anchor="middle" x="42.499844" y="39.10892">01</text><polygon fill="#cfe3f7" fill-opacity="0.5" points="57.349844000000004,74.21784 85.04984400000001,74.21784 85.04984400000001,25.679382 84.546377,25.020819 84.24794800000001,24.631024 83.947834,24.240163 83.64572700000001,23.848405 83.341106,23.455645999999998 83.03345300000001,23.061783 82.72225,22.666715 82.406979,22.270348 82.087148,21.872616999999998 81.763092,21.474411 81.437573,21.077533 81.114434,20.682646 80.79664,20.28931 80.48708400000001,19.897123 80.188641,19.505798 79.904144,19.115155 79.636359,18.72512 79.387949,18.33571 79.161427,17.947006000000002 78.95910900000001,17.559107 78.783062,17.172049 78.635069,16.785689 78.516344,16.398586 78.426433,16.005012 78.36286100000001,15.599468 78.323884,15.180768 78.30798,14.749127000000001 78.313533,14.305094 78.338774,13.849440000000001 78.38177,13.383072 78.44043,12.906955 78.512527,12.422057 78.595719,11.929324 78.687567,11.429647 78.78555800000001,10.923856 79.043958,9.623273000000001 66.159422,4.0 65.498198,4.7994 65.316665,5.019348 65.134924,5.240513 64.953218,5.463093 64.77179100000001,5.687288000000001 64.590891,5.9133 64.410769,6.141332 64.23168000000001,6.37159 64.053881,6.604281 63.877632000000006,6.839611 63.7032,7.077787 63.53085300000001,7.319016 63.360865000000004,7.563505 63.193706000000006,7.811172 63.030571,8.060426 62.871904,8.308902 62.71702200000001,8.555429 62.56501900000001,8.799257 62.415034000000006,9.039651 62.266253000000006,9.275887 62.11790500000001,9.507255 61.969261,9.733063 61.81963700000001,9.952644 61.668385,10.165365 61.51488500000001,10.370636000000001 61.35854200000001,10.567927000000001 61.19872900000001,10.756817999999999 61.033599,10.938327000000001 60.860288000000004,11.115523 60.677721000000005,11.290695 60.486471,11.464500999999998 60.287290000000006,11.637514 60.080996000000006,11.810341000000001 59.86845400000001,11.983633999999999 59.335756,12.410166 59.174497,13.617840000000001 57.349844000000004,13.617840000000001 57.349844000000004,74.21784" stroke="#1f6fb2" stroke-width="0.1" /><text fill="#0a3d62" font-family="sans-serif" font-size="1.6" text-anchor="middle" x="71.199844" y="39.10892">01</text><polygon fill="#cfe3f7" fill-opacity="0.5" points="90.278424,66.003991 116.12274000000001,66.003991 120.359592,13.779323999999999 119.63863400000001,13.02338 119.220708,12.590219000000001 118.79413300000002,12.158232 118.35707400000001,11.730794 117.91011700000001,11.312175 117.45556400000001,10.903946000000001 116.99434000000001,10.505552 116.527039,10.116143000000001 116.054247,9.734863 115.576535,9.360859999999999 115.09446400000002,8.99328 114.60858400000001,8.631273 114.119426,8.273982 113.626659,7.919969 113.12813,7.568092 112.621657,7.219842 112.106324,6.8779330000000005 111.58129400000001,6.54521 111.04568900000001,6.224572 110.49860000000001,5.918985 109.93911200000001,5.631502 109.36633400000001,5.365278 108.77945700000001,5.123591 108.17962100000001,4.910448 107.571966,4.728197 106.961402,4.574102 106.349704,4.443979000000001 105.73818800000001,4.333647 105.128061,4.239045 104.52048200000002,4.156234 103.91658900000002,4.081401 103.22537500000001,4.0 102.52193500000001,4.0478000000000005 101.90631800000001,4.093229 101.286938,4.146213 100.66477400000001,4.210494 100.040811,4.289933 99.416066,4.38851 98.79164100000001,4.510323 98.16880900000001,4.659567 97.55085400000002,4.839931 96.94331500000001,5.051494 96.348951,5.290505 95.767407,5.553771 95.197985,5.838288 94.63993900000001,6.141147 94.09250200000001,6.459529 93.554912,6.790687 93.02642900000001,7.131934 92.50635000000001,7.480633 91.99347800000001,7.834543 91.48487300000001,8.193723 90.97936800000001,8.561268 90.478526,8.939566 89.98453400000001,9.330648 89.49963100000001,9.736587 89.02613600000001,10.159491 88.566461,10.601475 88.12313700000001,11.064637000000001 87.69920900000001,11.550574000000001 87.300621,12.055903 86.928622,12.570084999999999 86.57770200000002,13.084399000000001 86.04984400000001,13.881281999999999 90.278424,66.003991" stroke="#1f6fb2" stroke-width="0.1" /><text fill="#0a3d62" font-family="sans-serif" font-size="1.6" text-anchor="middle" x="103.20471800000001" y="35.0019955">04</text><polygon fill="#cfe3f7" fill-opacity="0.5" points="8.228580000000001,137.253952 34.072896,137.253952 38.309748,85.029285 37.58879,84.273341 37.170864,83.84018 36.744289,83.408193 36.307230000000004,82.980755 35.860273,82.562136 35.40572,82.153907 34.944496,81.755513 34.477195,81.36610399999999 34.004402999999996,80.984824 33.526691,80.610821 33.04462,80.243241 32.55874,79.881234 32.069582,79.523943 31.576815,79.16993 31.078286,78.81805299999999 30.571813,78.469803 30.05648,78.127894 29.53145,77.795171 28.995845,77.474533 28.448756,77.168946 27.889268,76.881463 27.31649,76.615239 26.729613,76.373552 26.129777,76.160409 25.522122,75.978158 24.911558,75.824063 24.299860000000002,75.69394 23.688344,75.583608 23.078217000000002,75.489006 22.470638,75.406195 21.866745,75.331362 21.175531,75.249961 20.472091,75.297761 19.856474,75.34318999999999 19.237094,75.396174 18.61493,75.460455 17.990967,75.539894 17.366222,75.638471 16.741797,75.760284 16.118965,75.909528 15.50101,76.089892 14.893471000000002,76.301455 14.299107,76.540466 13.717563,76.803732 13.148141,77.088249 12.590095,77.391108 12.042658000000001,77.70949 11.505068,78.040648 10.976585,78.381895 10.456506000000001,78.730594 9.943634000000001,79.084504 9.435029,79.443684 8.929524,79.811229 8.428682,80.189527 7.93469,80.580609 7.449787000000001,80.986548 6.976292000000001,81.409452 6.516617,81.85143599999999 6.073293,82.314598 5.649365000000001,82.800535 5.250777000000001,83.305864 4.8787780000000005,83.82004599999999 4.527858000000002,84.33436 4.0,85.131243 8.228580000000001,137.253952" stroke="#1f6fb2" stroke-width="0.1" /><text fill="#0a3d62" font-family="sans-serif" font-size="1.6" text-anchor="middle" x="21.154874" y="106.2519565">04</text><polygon fill="#cfe3f7" fill-opacity="0.5" points="89.309748,86.689036 88.748958,86.013359 88.417737,85.615022 88.08377,85.214862 87.746419,84.812856 87.404759,84.40863999999999 87.057867,84.001856 86.704825,83.592152 86.344719,83.179182 85.976639,82.762607 85.600329,82.342804 85.218364,81.921609 84.836592,81.500866 84.459296,81.080354 84.090993,80.66026 83.736129,80.240872 83.399144,79.822689 83.084431,79.406444 82.79626,78.993112 82.538682,78.583918 82.315378,78.180284 82.12947199999999,77.783704 81.983346,77.395465 81.878529,77.016183 81.815706,76.644431 81.794771,76.271087 81.84634,75.249961 64.309748,75.249961 64.309748,135.24996099999998 89.309748,135.24996099999998 89.309748,86.689036 39.309748,86.689036 39.870537999999996,86.013359 40.201758999999996,85.615022 40.535726,85.214862 40.873076999999995,84.812856 41.214737,84.40863999999999 41.561628999999996,84.001856 41.914671,83.592152 42.274777,83.179182 42.642857,82.762607 43.019166999999996,82.342804 43.401132000000004,81.921609 43.782904,81.500866 44.1602,81.080354 44.528503,80.66026 44.883367,80.240872 45.220352,79.822689 45.535065,79.406444 45.823235999999994,78.993112 46.080814000000004,78.583918 46.304118,78.180284 46.490024,77.783704 46.63615,77.395465 46.740967,77.016183 46.80379,76.644431 46.824725,76.271087 46.773156,75.249961 64.309748,75.249961 64.309748,135.24996099999998 39.309748,135.24996099999998 39.309748,86.689036" stroke="#1f6fb2" stroke-width="0.1" /><text fill="#0a3d62" font-family="sans-serif" font-size="1.6" text-anchor="middle" x="64.309748" y="105.249961">02</text><polygon fill="#cfe3f7" fill-opacity="0.5" points="90.309748,86.521866 97.309748,90.931866 104.309748,86.521866 104.309748,75.249961 90.309748,75.249961 90.309748,86.521866" stroke="#1f6fb2" stroke-width="0.1" /><text fill="#0a3d62" font-family="sans-serif" font-size="1.6" text-anchor="middle" x="97.309748" y="83.0909135">10</text><polygon fill="#cfe3f7" fill-opacity="0.5" points="105.309748,87.499088 105.339589,87.80206799999999 105.442295,88.140643 105.60908,88.452676 105.833534,88.726175 106.107033,88.95062899999999 106.419066,89.117414 106.75764099999999,89.22012 107.060621,89.249961 128.558875,89.249961 128.861855,89.22012 129.20043,89.117414 129.512463,88.95062899999999 129.78596199999998,88.726175 130.010416,88.452676 130.177201,88.140643 130.279907,87.80206799999999 130.309748,87.499088 130.309748,77.000834 130.279907,76.69785399999999 130.177201,76.359279 130.010416,76.047246 129.78596199999998,75.773747 129.512463,75.549293 129.20043,75.382508 128.861855,75.279802 128.558875,75.249961 107.060621,75.249961 106.75764099999999,75.279802 106.419066,75.382508 106.107033,75.549293 105.833534,75.773747 105.60908,76.047246 105.442295,76.359279 105.339589,76.69785399999999 105.309748,77.000834 105.309748,87.499088" stroke="#1f6fb2" stroke-width="0.1" /><text fill="#0a3d62" font-family="sans-serif" font-size="1.6" text-anchor="middle" x="117.809748" y="82.249961">05</text><polygon fill="#cfe3f7" fill-opacity="0.5" points="4.0,150.50307899999999 4.029841,150.806059 4.132547,151.144634 4.299332,151.456667 4.523786,151.730166 4.7972850000000005,151.95462 5.109318,152.121405 5.4478930000000005,152.224111 5.750873,152.253952 27.249127,152.253952 27.552107,152.224111 27.890682,152.121405 28.202715,151.95462 28.476214,151.730166 28.700668,151.456667 28.867453,151.144634 28.970159,150.806059 29.0,150.50307899999999 29.0,140.004825 28.970159,139.701845 28.867453,139.36327 28.700668,139.051237 28.476214,138.777738 28.202715,138.553284 27.890682,138.386499 27.552107,138.283793 27.249127,138.253952 5.750873,138.253952 5.4478930000000005,138.283793 5.109318,138.386499 4.7972850000000005,138.553284 4.523786,138.777738 4.299332,139.051237 4.132547,139.36327 4.029841,139.701845 4.0,140.004825 4.0,150.50307899999999" stroke="#1f6fb2" stroke-width="0.1" /><text fill="#0a3d62" font-family="sans-serif" font-size="1.6" text-anchor="middle" x="16.5" y="145.253952">05</text><polygon fill="#cfe3f7" fill-opacity="0.5" points="67.497278,149.012978 67.556179,148.608506 67.653171,148.186446 67.786235,147.748064 67.95255900000001,147.295114 68.14868200000001,146.829451 68.37066300000001,146.35280699999998 68.614244,145.866695 68.874968,145.372379 69.148262,144.870874 69.98545,143.35881799999999 56.756012999999996,138.253952 56.120936,138.698014 55.925198,138.833611 55.731946,138.965005 55.54068,139.091415 55.350926,139.212117 55.162209000000004,139.326449 54.973447,139.434165 54.782648,139.535825 54.588768,139.63196299999998 54.391982,139.722481 54.192596,139.807219 53.990919,139.886023 53.78726,139.958746 53.58193,140.025246 53.375240000000005,140.085389 53.167499,140.139048 52.958929999999995,140.18612099999999 52.748875999999996,140.226714 52.536108,140.261322 52.320133,140.290439 52.100947000000005,140.314481 51.878582,140.333873 51.653092,140.349059 51.424547000000004,140.360498 51.193031000000005,140.368669 50.958633,140.374068 50.721446,140.377214 50.481563,140.378641 50.239077,140.378903 49.992725,140.37857 49.992725,150.378571 67.428312,150.378571 67.497278,149.012978 32.488172,149.012978 32.429271,148.608506 32.332279,148.186446 32.199214999999995,147.748064 32.032891,147.295114 31.836768,146.829451 31.614787,146.35280699999998 31.371206,145.866695 31.110482,145.372379 30.837188,144.870874 30.0,143.35881799999999 43.229437000000004,138.253952 43.864514,138.698014 44.060252,138.833611 44.253504,138.965005 44.44477,139.091415 44.634524,139.212117 44.823240999999996,139.326449 45.012003,139.434165 45.202802,139.535825 45.396682,139.63196299999998 45.593468,139.722481 45.792854,139.807219 45.994531,139.886023 46.19819,139.958746 46.40352,140.025246 46.610209999999995,140.085389 46.817951,140.139048 47.026520000000005,140.18612099999999 47.236574000000005,140.226714 47.449342,140.261322 47.665317,140.290439 47.884502999999995,140.314481 48.106868,140.333873 48.332358,140.349059 48.560902999999996,140.360498 48.792418999999995,140.368669 49.026817,140.374068 49.264004,140.377214 49.503887,140.378641 49.746373,140.378903 49.992725,140.37857 49.992725,150.378571 32.557137999999995,150.378571 32.488172,149.012978" stroke="#1f6fb2" stroke-width="0.1" /><text fill="#0a3d62" font-family="sans-serif" font-size="1.6" text-anchor="middle" x="49.992725" y="144.3162615">03</text><polygon fill="#cfe3f7" fill-opacity="0.5" points="91.851259,145.124406 92.30139,145.214043 92.75159,145.298572 93.201855,145.377988 93.65218200000001,145.452292 94.102567,145.52148 94.55300600000001,145.58555 95.003496,145.644502 95.45403300000001,145.698333 95.904613,145.747042 96.355231,145.790627 96.805884,145.829088 97.256568,145.862423 97.707277,145.89063 98.15800899999999,145.913711 98.608758,145.931663 99.05952,145.94448599999998 99.510291,145.95218 99.961067,145.954745 100.411843,145.95218 100.86261400000001,145.94448599999998 101.313376,145.931663 101.764125,145.913711 102.214857,145.89063 102.66556700000001,145.862423 103.11625000000001,145.829088 103.566903,145.790627 104.017521,145.747042 104.468101,145.698333 104.918638,145.644502 105.369128,145.58555 105.819567,145.52148 106.269952,145.452292 106.720279,145.377988 107.170544,145.298572 107.620744,145.214043 108.070876,145.124406 108.260658,145.084454 110.30557400000001,148.492648 111.360792,148.093665 109.54423,138.253952 108.098296,138.574797 107.669561,138.665052 107.240898,138.750415 106.812304,138.830886 106.383774,138.90646999999998 105.95530600000001,138.977166 105.526897,139.042978 105.09854200000001,139.103908 104.670237,139.159956 104.241979,139.211125 103.813764,139.257416 103.385588,139.298831 102.957446,139.33537 102.529335,139.367035 102.10125,139.39382799999998 101.673187,139.415747 101.245142,139.432795 100.817109,139.444972 100.389086,139.452278 99.961067,139.454713 99.53304800000001,139.452278 99.105025,139.444972 98.676992,139.432795 98.248947,139.415747 97.820884,139.39382799999998 97.392799,139.367035 96.964688,139.33537 96.536546,139.298831 96.10837000000001,139.257416 95.680155,139.211125 95.251897,139.159956 94.823592,139.103908 94.39523700000001,139.042978 93.966828,138.977166 93.53836,138.90646999999998 93.10983,138.830886 92.681236,138.750415 92.252573,138.665052 91.823838,138.574797 91.17312100000001,138.430406 91.17312100000001,144.979052 91.401199,145.029661 91.851259,145.124406 90.494983,145.124406 90.044852,145.214043 89.594652,145.298572 89.144387,145.377988 88.69406000000001,145.452292 88.243675,145.52148 87.79323600000001,145.58555 87.342746,145.644502 86.89220900000001,145.698333 86.441629,145.747042 85.991011,145.790627 85.540358,145.829088 85.089674,145.862423 84.638965,145.89063 84.188233,145.913711 83.737484,145.931663 83.286722,145.94448599999998 82.835951,145.95218 82.385175,145.954745 81.934399,145.95218 81.483628,145.94448599999998 81.032866,145.931663 80.582117,145.913711 80.131385,145.89063 79.68067500000001,145.862423 79.229992,145.829088 78.77933900000001,145.790627 78.328721,145.747042 77.878141,145.698333 77.427604,145.644502 76.977114,145.58555 76.526675,145.52148 76.07629,145.452292 75.625963,145.377988 75.175698,145.298572 74.725498,145.214043 74.275366,145.124406 74.085584,145.084454 72.040668,148.492648 70.98545,148.093665 72.802012,138.253952 74.247946,138.574797 74.676681,138.665052 75.105344,138.750415 75.533938,138.830886 75.962468,138.90646999999998 76.390936,138.977166 76.819345,139.042978 77.24770000000001,139.103908 77.676005,139.159956 78.104263,139.211125 78.532478,139.257416 78.960654,139.298831 79.388796,139.33537 79.816907,139.367035 80.244992,139.39382799999998 80.673055,139.415747 81.1011,139.432795 81.529133,139.444972 81.957156,139.452278 82.385175,139.454713 82.813194,139.452278 83.241217,139.444972 83.66925,139.432795 84.097295,139.415747 84.525358,139.39382799999998 84.95344300000001,139.367035 85.381554,139.33537 85.809696,139.298831 86.23787200000001,139.257416 86.666087,139.211125 87.094345,139.159956 87.52265,139.103908 87.95100500000001,139.042978 88.379414,138.977166 88.807882,138.90646999999998 89.236412,138.830886 89.665006,138.750415 90.093669,138.665052 90.522404,138.574797 91.17312100000001,138.430406 91.17312100000001,144.979052 90.945043,145.029661 90.494983,145.124406" stroke="#1f6fb2" stroke-width="0.1" /><text fill="#0a3d62" font-family="sans-serif" font-size="1.6" text-anchor="middle" x="91.17312100000001" y="143.3733">07</text><polygon fill="#cfe3f7" fill-opacity="0.5" points="133.452711,143.56985699999998 133.942652,143.641026 134.432622,143.708131 134.922618,143.771173 135.41263800000002,143.830151 135.902682,143.885064 136.392747,143.935911 136.882833,143.982693 137.372937,144.025408 137.863058,144.064057 138.353194,144.098638 138.843344,144.129152 139.333505,144.155598 139.823677,144.177975 140.313857,144.196285 140.804044,144.210526 141.294237,144.220698 141.784433,144.226801 142.27463,144.228836 142.764828,144.226801 143.255023,144.220698 143.745216,144.210526 144.235403,144.196285 144.725583,144.177975 145.215755,144.155598 145.705916,144.129152 146.196066,144.098638 146.686202,144.064057 147.176323,144.025408 147.666427,143.982693 148.15651300000002,143.935911 148.646578,143.885064 149.136622,143.830151 149.626642,143.771173 150.116638,143.708131 150.606608,143.641026 151.096549,143.56985699999998 151.58646199999998,143.494627 152.912576,143.279981 152.912576,138.253952 151.274896,138.519027 150.801013,138.59179699999999 150.327161,138.660628 149.853336,138.725523 149.379537,138.786481 148.905763,138.843503 148.432012,138.89659 147.958283,138.945743 147.484574,138.990961 147.010883,139.032246 146.53720900000002,139.069597 146.06355100000002,139.103016 145.58990599999998,139.132502 145.116273,139.158056 144.64265,139.179679 144.169036,139.197369 143.695428,139.211128 143.221826,139.220956 142.74822699999999,139.226853 142.27463,139.228818 141.80103300000002,139.226853 141.327434,139.220956 140.853832,139.211128 140.380224,139.197369 139.90661,139.179679 139.432987,139.158056 138.959354,139.132502 138.485709,139.103016 138.012051,139.069597 137.538377,139.032246 137.064686,138.990961 136.590977,138.945743 136.11724800000002,138.89659 135.643497,138.843503 135.169723,138.786481 134.695925,138.725523 134.22209900000001,138.660628 133.748247,138.59179699999999 133.274365,138.519027 132.636684,138.415812 132.636684,143.441842 132.962798,143.494627 133.452711,143.56985699999998 131.820657,143.56985699999998 131.330716,143.641026 130.840746,143.708131 130.35075,143.771173 129.86073,143.830151 129.370686,143.885064 128.880621,143.935911 128.390535,143.982693 127.900431,144.025408 127.41031000000001,144.064057 126.920174,144.098638 126.430024,144.129152 125.939863,144.155598 125.449691,144.177975 124.959511,144.196285 124.469324,144.210526 123.979131,144.220698 123.488935,144.226801 122.998738,144.228836 122.50854,144.226801 122.018345,144.220698 121.528152,144.210526 121.037965,144.196285 120.547785,144.177975 120.057613,144.155598 119.567452,144.129152 119.077302,144.098638 118.587166,144.064057 118.09704500000001,144.025408 117.606941,143.982693 117.116855,143.935911 116.62679,143.885064 116.136746,143.830151 115.646726,143.771173 115.15673000000001,143.708131 114.66676000000001,143.641026 114.176819,143.56985699999998 113.68690600000001,143.494627 112.360792,143.279981 112.360792,138.253952 113.998472,138.519027 114.47235500000001,138.59179699999999 114.946207,138.660628 115.420032,138.725523 115.893831,138.786481 116.367605,138.843503 116.841356,138.89659 117.315085,138.945743 117.788794,138.990961 118.262485,139.032246 118.736159,139.069597 119.209817,139.103016 119.683462,139.132502 120.157095,139.158056 120.630718,139.179679 121.104332,139.197369 121.57794,139.211128 122.051542,139.220956 122.525141,139.226853 122.998738,139.228818 123.472335,139.226853 123.94593400000001,139.220956 124.41953600000001,139.211128 124.893144,139.197369 125.366758,139.179679 125.84038100000001,139.158056 126.314014,139.132502 126.787659,139.103016 127.261317,139.069597 127.73499100000001,139.032246 128.208682,138.990961 128.682391,138.945743 129.15612,138.89659 129.629871,138.843503 130.103645,138.786481 130.57744300000002,138.725523 131.051269,138.660628 131.525121,138.59179699999999 131.99900300000002,138.519027 132.636684,138.415812 132.636684,143.441842 132.31057,143.494627 131.820657,143.56985699999998" stroke="#1f6fb2" stroke-width="0.1" /><text fill="#0a3d62" font-family="sans-serif" font-size="1.6" text-anchor="middle" x="132.636684" y="141.24139399999999">08</text><polygon fill="#cfe3f7" fill-opacity="0.5" points="4.0,156.903079 4.022155,157.128022 4.102098,157.39156 4.2319189999999995,157.634438 4.406629,157.847323 4.619514,158.022033 4.862392,158.151854 5.12593,158.231797 5.350873,158.253952 16.649127,158.253952 16.87407,158.231797 17.137608,158.151854 17.380485999999998,158.022033 17.593370999999998,157.847323 17.768081000000002,157.634438 17.897902000000002,157.39156 17.977845000000002,157.128022 18.0,156.903079 18.0,154.604825 17.977845000000002,154.379882 17.897902000000002,154.116344 17.768081000000002,153.873466 17.593370999999998,153.660581 17.380485999999998,153.485871 17.137608,153.35605 16.87407,153.276107 16.649127,153.253952 5.350873,153.253952 5.12593,153.276107 4.862392,153.35605 4.619514,153.485871 4.406629,153.660581 4.2319189999999995,153.873466 4.102098,154.116344 4.022155,154.379882 4.0,154.604825 4.0,156.903079" stroke="#1f6fb2" stroke-width="0.1" /><text fill="#0a3d62" font-family="sans-serif" font-size="1.6" text-anchor="middle" x="11.0" y="155.753952">06</text><polygon fill="#cfe3f7" fill-opacity="0.5" points="19.0,156.903079 19.022155,157.128022 19.102098,157.39156 19.231919,157.634438 19.406629,157.847323 19.619514,158.022033 19.862392,158.151854 20.12593,158.231797 20.350873,158.253952 31.649127,158.253952 31.87407,158.231797 32.137608,158.151854 32.380486,158.022033 32.593371,157.847323 32.768081,157.634438 32.897902,157.39156 32.977845,157.128022 33.0,156.903079 33.0,154.604825 32.977845,154.379882 32.897902,154.116344 32.768081,153.873466 32.593371,153.660581 32.380486,153.485871 32.137608,153.35605 31.87407,153.276107 31.649127,153.253952 20.350873,153.253952 20.12593,153.276107 19.862392,153.35605 19.619514,153.485871 19.406629,153.660581 19.231919,153.873466 19.102098,154.116344 19.022155,154.379882 19.0,154.604825 19.0,156.903079" stroke="#1f6fb2" stroke-width="0.1" /><text fill="#0a3d62" font-family="sans-serif" font-size="1.6" text-anchor="middle" x="26.0" y="155.753952">06</text></svg>