<?xml version="1.0" encoding="utf-8" ?>
<svg baseProfile="full" height="148.61380499999999cm" version="1.1" viewBox="0 0 168.0 148.61380499999999" width="168.0cm" xmlns="http://www.w3.org/2000/svg" xmlns:ev="http://www.w3.org/2001/xml-events" xmlns:xlink="http://www.w3.org/1999/xlink"><defs /><rect fill="#f7f3ea" height="140.61380499999999" stroke="#333" stroke-width="0.15" width="160.0" x="4.0" y="4.0" /><text fill="#000" font-family="sans-serif" font-size="1.4" x="4.0" y="3.0">PLANO DE CORTE — ancho 160 cm — largo 1.41 m</text><polygon fill="#cfe3f7" fill-opacity="0.5" points="4.0,74.267704 12.00722,74.267704 11.601177,17.827772 15.824922,5.262131 13.300661,4.0 12.604548000000001,4.928368 12.408809,5.189983 12.212994,5.452847 12.017382000000001,5.717166 11.822256,5.98315 11.6279,6.251011999999999 11.434603,6.520965 11.242656,6.793221 11.052355,7.067997 10.863996,7.345508 10.677882,7.6259689999999996 10.494319,7.909597 10.313615,8.196606 10.136242,8.486951000000001 9.963303,8.779094 9.795078,9.070626 9.63075,9.360295 9.469275,9.647313 9.309653,9.930903 9.150927,10.210297 8.992184,10.484739000000001 8.832553,10.753489 8.671203,11.015827 8.507341,11.271062 8.340206,11.518545 8.169058,11.757678 7.993161000000001,11.987943000000001 7.810869,12.210004 7.619404,12.426846 7.41765,12.641195 7.206278,12.853889 6.986212,13.065588 6.7584420000000005,13.27698 6.524011,13.488792 6.322425,13.667704 4.0,13.667704 4.0,74.267704" stroke="#1f6fb2" stroke-width="0.1" /><text fill="#0a3d62" font-family="sans-serif" font-size="1.6" text-anchor="middle" x="9.912461" y="39.133852">09</text><polygon fill="#cfe3f7" fill-opacity="0.5" points="16.824922,74.267704 24.832142,74.267704 24.426099,17.827772 28.649844,5.262131 26.125583,4.0 25.429470000000002,4.928368 25.233731,5.189983 25.037916000000003,5.452847 24.842304000000002,5.717166 24.647178,5.98315 24.452822,6.251011999999999 24.259525,6.520965 24.067578,6.793221 23.877277,7.067997 23.688918,7.345508 23.502804,7.6259689999999996 23.319241,7.909597 23.138537,8.196606 22.961164,8.486951000000001 22.788225,8.779094 22.62,9.070626 22.455672,9.360295 22.294197,9.647313 22.134575,9.930903 21.975849,10.210297 21.817106000000003,10.484739000000001 21.657475,10.753489 21.496125,11.015827 21.332263,11.271062 21.165128000000003,11.518545 20.99398,11.757678 20.818083,11.987943000000001 20.635791,12.210004 20.444326,12.426846 20.242572000000003,12.641195 20.031200000000002,12.853889 19.811134000000003,13.065588 19.583364,13.27698 19.348933000000002,13.488792 19.147347,13.667704 16.824922,13.667704 16.824922,74.267704" stroke="#1f6fb2" stroke-width="0.1" /><text fill="#0a3d62" font-family="sans-serif" font-size="1.6" text-anchor="middle" x="22.737383" y="39.133852">09</text><polygon fill="#cfe3f7" fill-opacity="0.5" points="29.649844,74.233067 57.349844000000004,74.233067 57.349844000000004,26.857360999999997 56.749912,26.171653999999997 56.396521,25.768483 56.040528,25.363836 55.681394,24.957849 55.318277,24.550319 54.95034,24.141047999999998 54.576750000000004,23.729844999999997 54.196687,23.316536 53.810258000000005,22.901911 53.420919,22.488083 53.034441,22.076037 52.655385,21.665301 52.288183000000004,21.255467 51.937261,20.846346999999998 51.606989,20.437973 51.30162,20.030609 51.025183999999996,19.624724 50.781365,19.22094 50.57334,18.819888 50.40363,18.421923 50.273231,18.024288 50.180244,17.618925 50.12149,17.199514999999998 50.095352000000005,16.764596 50.100468,16.313914 50.135391999999996,15.847847 50.198454,15.367222 50.287714,14.873137 50.400976,14.366815 50.535817,13.849511 50.689639,13.32245 50.859709,12.78679 51.043189999999996,12.243606999999999 51.237178,11.693886 51.438712,11.138521 51.970248,9.693617 38.924533000000004,4.0 38.254392,4.893731 38.058653,5.155346 37.862838,5.41821 37.667226,5.682529 37.472100000000005,5.948513 37.277744,6.216374999999999 37.084447000000004,6.486328 36.8925,6.758584 36.702199,7.03336 36.51384,7.310871 36.327726,7.5913319999999995 36.144163000000006,7.87496 35.963459,8.161969 35.786086000000005,8.452314000000001 35.613147,8.744457 35.444922000000005,9.035989 35.280594,9.325658 35.119119,9.612676 34.959497,9.896266 34.800771000000005,10.17566 34.642028,10.450102000000001 34.482397000000006,10.718852 34.321047,10.98119 34.157185,11.236425 33.990050000000004,11.483908 33.818902,11.723041 33.643005,11.953306000000001 33.460713,12.175367 33.269248000000005,12.392209 33.067494,12.606558 32.856122,12.819252 32.636056,13.030951 32.408286000000004,13.242343 32.173855,13.454155 31.972269,13.633067 29.649844,13.633067 29.649844,74.233067" stroke="#1f6fb2" stroke-width="0.1" /><text fill="#0a3d62" font-family="sans-serif" font-size="1.6" text-anchor="middle" x="43.499844" y="39.1165335">01</text><polygon fill="#cfe3f7" fill-opacity="0.5" points="58.349844000000004,74.233067 86.04984400000001,74.233067 86.04984400000001,26.857360999999997 85.44991200000001,26.171653999999997 85.096521,25.768483 84.74052800000001,25.363836 84.381394,24.957849 84.01827700000001,24.550319 83.65034,24.141047999999998 83.27675,23.729844999999997 82.896687,23.316536 82.51025800000001,22.901911 82.120919,22.488083 81.734441,22.076037 81.35538500000001,21.665301 80.988183,21.255467 80.637261,20.846346999999998 80.306989,20.437973 80.00162,20.030609 79.725184,19.624724 79.48136500000001,19.22094 79.27334,18.819888 79.10363000000001,18.421923 78.973231,18.024288 78.880244,17.618925 78.82149000000001,17.199514999999998 78.79535200000001,16.764596 78.800468,16.313914 78.835392,15.847847 78.898454,15.367222 78.98771400000001,14.873137 79.100976,14.366815 79.235817,13.849511 79.389639,13.32245 79.559709,12.78679 79.74319,12.243606999999999 79.937178,11.693886 80.138712,11.138521 80.670248,9.693617 67.624533,4.0 66.95439200000001,4.893731 66.75865300000001,5.155346 66.562838,5.41821 66.367226,5.682529 66.1721,5.948513 65.977744,6.216374999999999 65.784447,6.486328 65.5925,6.758584 65.40219900000001,7.03336 65.21384,7.310871 65.027726,7.5913319999999995 64.84416300000001,7.87496 64.663459,8.161969 64.486086,8.452314000000001 64.313147,8.744457 64.14492200000001,9.035989 63.980594,9.325658 63.819119,9.612676 63.659497,9.896266 63.50077100000001,10.17566 63.342028000000006,10.450102000000001 63.18239700000001,10.718852 63.021047,10.98119 62.857185,11.236425 62.69005000000001,11.483908 62.518902000000004,11.723041 62.343005000000005,11.953306000000001 62.160713,12.175367 61.96924800000001,12.392209 61.767494000000006,12.606558 61.556122,12.819252 61.336056000000006,13.030951 61.10828600000001,13.242343 60.873855000000006,13.454155 60.67226900000001,13.633067 58.349844000000004,13.633067 58.349844000000004,74.233067" stroke="#1f6fb2" stroke-width="0.1" /><text fill="#0a3d62" font-family="sans-serif" font-size="1.6" text-anchor="middle" x="72.199844" y="39.1165335">01</text><polygon fill="#cfe3f7" fill-opacity="0.5" points="91.65338100000001,66.004613 117.48208500000001,66.004613 122.094586,14.559622999999998 121.388243,13.774989999999999 120.967436,13.312847999999999 120.53796,12.851835999999999 120.09776300000001,12.395239 119.64708900000001,11.9474 119.188167,11.51006 118.721992,11.082705 118.24918400000001,10.664458 117.770352,10.254439 117.286091,9.851766999999999 116.796986,9.455561 116.30361300000001,9.064943 115.806533,8.679036 115.30564000000001,8.296466 114.798901,7.915755 114.283821,7.538259 113.759262,7.1668959999999995 113.224247,6.804792 112.677744,6.4551289999999995 112.11868700000001,6.121163 111.54599200000001,5.80625 110.958596,5.513857 110.35550500000001,5.24759 109.73737400000002,5.011762 109.10929300000001,4.809616 108.477002,4.638591 107.84275000000001,4.494111 107.208081,4.371542 106.574414,4.266382 105.943098,4.174272 105.31546600000001,4.0909949999999995 104.593968,4.0 103.85880700000001,4.05394 103.218061,4.104962 102.573491,4.164405 101.92624400000001,4.236438 101.277471,4.325369 100.628369,4.435643 99.98024000000001,4.57184 99.33465100000001,4.738636 98.695789,4.939882 98.069523,5.174805 97.45815800000001,5.439152 96.86110000000001,5.729414 96.27751800000001,6.042254 95.70653000000001,6.374447 95.147238,6.722872 94.598757,7.084489 94.060236,7.456322999999999 93.53086,7.835451 93.00904100000001,8.2196 92.49182300000001,8.609293000000001 91.97859500000001,9.007759 91.47119500000001,9.417183999999999 90.97183700000001,9.839547 90.482792,10.276864 90.00640600000001,10.731176 89.545118,11.204525 89.101477,11.698924 88.67864200000001,12.215724 88.282289,12.750982 87.912518,13.294198000000002 87.56332,13.837394 87.04984400000001,14.659607999999999 91.65338100000001,66.004613" stroke="#1f6fb2" stroke-width="0.1" /><text fill="#0a3d62" font-family="sans-serif" font-size="1.6" text-anchor="middle" x="104.572215" y="35.0023065">04</text><polygon fill="#cfe3f7" fill-opacity="0.5" points="127.69812300000001,66.004613 153.526827,66.004613 158.139328,14.559622999999998 157.432985,13.774989999999999 157.012178,13.312847999999999 156.582702,12.851835999999999 156.142505,12.395239 155.691831,11.9474 155.232909,11.51006 154.766734,11.082705 154.293926,10.664458 153.81509400000002,10.254439 153.330833,9.851766999999999 152.84172800000002,9.455561 152.348355,9.064943 151.85127500000002,8.679036 151.350382,8.296466 150.84364300000001,7.915755 150.328563,7.538259 149.80400400000002,7.1668959999999995 149.268989,6.804792 148.722486,6.4551289999999995 148.163429,6.121163 147.590734,5.80625 147.003338,5.513857 146.400247,5.24759 145.782116,5.011762 145.15403500000002,4.809616 144.521744,4.638591 143.887492,4.494111 143.252823,4.371542 142.619156,4.266382 141.98784,4.174272 141.360208,4.0909949999999995 140.63871,4.0 139.903549,4.05394 139.26280300000002,4.104962 138.618233,4.164405 137.970986,4.236438 137.322213,4.325369 136.673111,4.435643 136.024982,4.57184 135.379393,4.738636 134.740531,4.939882 134.11426500000002,5.174805 133.5029,5.439152 132.905842,5.729414 132.32226,6.042254 131.751272,6.374447 131.19198,6.722872 130.64349900000002,7.084489 130.10497800000002,7.456322999999999 129.575602,7.835451 129.053783,8.2196 128.536565,8.609293000000001 128.023337,9.007759 127.51593700000001,9.417183999999999 127.01657900000001,9.839547 126.527534,10.276864 126.05114800000001,10.731176 125.58986,11.204525 125.146219,11.698924 124.72338400000001,12.215724 124.327031,12.750982 123.95726,13.294198000000002 123.608062,13.837394 123.094586,14.659607999999999 127.69812300000001,66.004613" stroke="#1f6fb2" stroke-width="0.1" /><text fill="#0a3d62" font-family="sans-serif" font-size="1.6" text-anchor="middle" x="140.616957" y="35.0023065">04</text><polygon fill="#cfe3f7" fill-opacity="0.5" points="54.0,87.966392 53.54488,87.279729 53.256333999999995,86.84411399999999 52.967847,86.408048 52.679368,85.971184 52.390845,85.533176 52.102226,85.09367599999999 51.81346,84.65233799999999 51.524504,84.208831 51.235746,83.76344 50.948979,83.317216 50.666720999999995,82.870756 50.391082,82.42400799999999 50.124128999999996,81.97692599999999 49.867903,81.52950899999999 49.624413000000004,81.081797 49.39562,80.633862 49.18343,80.1858 48.989674,79.73771199999999 48.816095000000004,79.28968599999999 48.664342000000005,78.84176 48.535945,78.39383199999999 48.431893,77.94394399999999 48.351451,77.488163 48.292833,77.024293 48.254642000000004,76.552268 48.203385999999995,75.267704 29.0,75.267704 29.0,135.26770399999998 54.0,135.26770399999998 54.0,87.966392 4.0,87.966392 4.455120000000001,87.279729 4.743666000000001,86.84411399999999 5.032153000000001,86.408048 5.320632,85.971184 5.609155000000001,85.533176 5.897773999999998,85.09367599999999 6.186540000000001,84.65233799999999 6.475496,84.208831 6.764254000000001,83.76344 7.051020999999999,83.317216 7.333279000000001,82.870756 7.608917999999999,82.42400799999999 7.875871,81.97692599999999 8.132097000000002,81.52950899999999 8.375587,81.081797 8.604379999999999,80.633862 8.816569999999999,80.1858 9.010326,79.73771199999999 9.183905,79.28968599999999 9.335657999999999,78.84176 9.464054999999998,78.39383199999999 9.568107000000001,77.94394399999999 9.648549,77.488163 9.707166999999998,77.024293 9.745358,76.552268 9.796614000000002,75.267704 29.0,75.267704 29.0,135.26770399999998 4.0,135.26770399999998 4.0,87.966392" stroke="#1f6fb2" stroke-width="0.1" /><text fill="#0a3d62" font-family="sans-serif" font-size="1.6" text-anchor="middle" x="29.0" y="105.267704">02</text><polygon fill="#cfe3f7" fill-opacity="0.5" points="55.0,86.539609 62.0,90.949609 69.0,86.539609 69.0,75.267704 55.0,75.267704 55.0,86.539609" stroke="#1f6fb2" stroke-width="0.1" /><text fill="#0a3d62" font-family="sans-serif" font-size="1.6" text-anchor="middle" x="62.0" y="83.1086565">10</text><polygon fill="#cfe3f7" fill-opacity="0.5" points="70.0,87.516831 70.029841,87.81981099999999 70.132547,88.158386 70.299332,88.47041899999999 70.523786,88.743918 70.797285,88.96837199999999 71.109318,89.13515699999999 71.447893,89.23786299999999 71.750873,89.267704 93.249127,89.267704 93.552107,89.23786299999999 93.890682,89.13515699999999 94.202715,88.96837199999999 94.476214,88.743918 94.70066800000001,88.47041899999999 94.867453,88.158386 94.970159,87.81981099999999 95.0,87.516831 95.0,77.018577 94.970159,76.71559699999999 94.867453,76.377022 94.70066800000001,76.064989 94.476214,75.79149 94.202715,75.567036 93.890682,75.400251 93.552107,75.297545 93.249127,75.267704 71.750873,75.267704 71.447893,75.297545 71.109318,75.400251 70.797285,75.567036 70.523786,75.79149 70.299332,76.064989 70.132547,76.377022 70.029841,76.71559699999999 70.0,77.018577 70.0,87.516831" stroke="#1f6fb2" stroke-width="0.1" /><text fill="#0a3d62" font-family="sans-serif" font-size="1.6" text-anchor="middle" x="82.5" y="82.267704">05</text><polygon fill="#cfe3f7" fill-opacity="0.5" points="96.0,87.516831 96.029841,87.81981099999999 96.132547,88.158386 96.299332,88.47041899999999 96.523786,88.743918 96.797285,88.96837199999999 97.109318,89.13515699999999 97.447893,89.23786299999999 97.750873,89.267704 119.249127,89.267704 119.552107,89.23786299999999 119.890682,89.13515699999999 120.202715,88.96837199999999 120.476214,88.743918 120.70066800000001,88.47041899999999 120.867453,88.158386 120.970159,87.81981099999999 121.0,87.516831 121.0,77.018577 120.970159,76.71559699999999 120.867453,76.377022 120.70066800000001,76.064989 120.476214,75.79149 120.202715,75.567036 119.890682,75.400251 119.552107,75.297545 119.249127,75.267704 97.750873,75.267704 97.447893,75.297545 97.109318,75.400251 96.797285,75.567036 96.523786,75.79149 96.299332,76.064989 96.132547,76.377022 96.029841,76.71559699999999 96.0,77.018577 96.0,87.516831" stroke="#1f6fb2" stroke-width="0.1" /><text fill="#0a3d62" font-family="sans-serif" font-size="1.6" text-anchor="middle" x="108.5" y="82.267704">05</text><polygon fill="#cfe3f7" fill-opacity="0.5" points="161.109812,86.19376799999999 161.10827,85.706087 161.12286,85.21110399999999 161.152042,84.70925299999999 161.194218,84.201 161.247736,83.686825 161.310889,83.167209 161.38192700000002,82.64262199999999 161.459058,82.11351599999999 161.540457,81.58031899999999 161.748646,80.24659 148.84569199999999,75.267704 148.206584,75.701815 148.003755,75.838304 147.803425,75.970602 147.605097,76.097901 147.408291,76.21945099999999 147.212533,76.33456299999999 147.016683,76.44298099999999 146.818733,76.545255 146.617676,76.641894 146.4137,76.732805 146.207108,76.817843 145.998204,76.896867 145.787293,76.96974399999999 145.574684,77.036345 145.360684,77.09654599999999 145.145601,77.15023199999999 144.929644,77.197313 144.712166,77.23790199999999 144.492015,77.272489 144.268762,77.301564 144.04241,77.325549 143.81299,77.344877 143.580557,77.359996 143.345178,77.37137 143.106932,77.379482 142.865904,77.38483 142.622182,77.387934 142.375856,77.389326 142.127012,77.389561 141.874323,77.38920399999999 141.874323,87.38920499999999 161.157512,87.38920499999999 161.109812,86.19376799999999 122.638834,86.19376799999999 122.640376,85.706087 122.625786,85.21110399999999 122.596604,84.70925299999999 122.554428,84.201 122.50091,83.686825 122.437757,83.167209 122.366719,82.64262199999999 122.28958800000001,82.11351599999999 122.208189,81.58031899999999 122.0,80.24659 134.902954,75.267704 135.542062,75.701815 135.744891,75.838304 135.945221,75.970602 136.143549,76.097901 136.340355,76.21945099999999 136.536113,76.33456299999999 136.731963,76.44298099999999 136.929913,76.545255 137.13097,76.641894 137.334946,76.732805 137.541538,76.817843 137.750442,76.896867 137.961353,76.96974399999999 138.173962,77.036345 138.38796200000002,77.09654599999999 138.603045,77.15023199999999 138.819002,77.197313 139.03648,77.23790199999999 139.256631,77.272489 139.479884,77.301564 139.706236,77.325549 139.935656,77.344877 140.168089,77.359996 140.403468,77.37137 140.641714,77.379482 140.882742,77.38483 141.126464,77.387934 141.37279,77.389326 141.621634,77.389561 141.874323,77.38920399999999 141.874323,87.38920499999999 122.591134,87.38920499999999 122.638834,86.19376799999999" stroke="#1f6fb2" stroke-width="0.1" /><text fill="#0a3d62" font-family="sans-serif" font-size="1.6" text-anchor="middle" x="141.874323" y="81.32845449999999">03</text><polygon fill="#cfe3f7" fill-opacity="0.5" points="26.797608,143.553689 27.33313,143.668129 27.868735,143.77604699999998 28.40442,143.87743899999998 28.940181,143.97230399999998 29.476011999999997,144.06063699999999 30.011910999999998,144.14243799999997 30.547871,144.21770299999997 31.083889,144.286431 31.619958999999998,144.34861899999999 32.156078,144.40426699999998 32.692239,144.45337099999998 33.228437,144.49593099999998 33.764668,144.53194599999998 34.300926,144.56141399999998 34.837205,144.58433399999998 35.373501,144.60070699999997 35.909808,144.61052999999998 36.44612,144.61380499999999 36.982432,144.61052999999998 37.518739,144.60070699999997 38.055035,144.58433399999998 38.591314,144.56141399999998 39.127572,144.53194599999998 39.663803,144.49593099999998 40.200001,144.45337099999998 40.736162,144.40426699999998 41.272281,144.34861899999999 41.808351,144.286431 42.344369,144.21770299999997 42.880329,144.14243799999997 43.416228000000004,144.06063699999999 43.952059,143.97230399999998 44.48782,143.87743899999998 45.023505,143.77604699999998 45.559110000000004,143.668129 46.094632000000004,143.553689 46.630067,143.432729 47.92816,143.12362399999998 47.92816,136.26770399999998 46.178049,136.684443 45.665279999999996,136.80028299999998 45.152598,136.90984299999997 44.639999,137.01312499999997 44.12748,137.110133 43.615037,137.20086799999999 43.102664000000004,137.28533499999998 42.590359,137.363534 42.078115,137.43546899999998 41.565929,137.501141 41.053795,137.56055299999997 40.541709999999995,137.61370499999998 40.029667,137.66060099999999 39.517661,137.70124099999998 39.005688,137.73562599999997 38.493742,137.76375799999997 37.981817,137.78563799999998 37.469909,137.80126499999997 36.958012,137.81064199999997 36.44612,137.81376699999998 35.934228,137.81064199999997 35.422331,137.80126499999997 34.910423,137.78563799999998 34.398498000000004,137.76375799999997 33.886551999999995,137.73562599999997 33.374579,137.70124099999998 32.862573,137.66060099999999 32.35053,137.61370499999998 31.838445,137.56055299999997 31.326311,137.501141 30.814124999999997,137.43546899999998 30.301880999999998,137.363534 29.789576,137.28533499999998 29.277203,137.20086799999999 28.76476,137.110133 28.252240999999998,137.01312499999997 27.739642,136.90984299999997 27.22696,136.80028299999998 26.714191,136.684443 25.96408,136.50582599999998 25.96408,143.36174599999998 26.262173,143.432729 26.797608,143.553689 25.130551999999998,143.553689 24.595029999999998,143.668129 24.059424999999997,143.77604699999998 23.52374,143.87743899999998 22.987979,143.97230399999998 22.452148,144.06063699999999 21.916249,144.14243799999997 21.380288999999998,144.21770299999997 20.844271,144.286431 20.308201,144.34861899999999 19.772081999999997,144.40426699999998 19.235920999999998,144.45337099999998 18.699723,144.49593099999998 18.163491999999998,144.53194599999998 17.627234,144.56141399999998 17.090955,144.58433399999998 16.554659,144.60070699999997 16.018352,144.61052999999998 15.48204,144.61380499999999 14.945727999999999,144.61052999999998 14.409421,144.60070699999997 13.873125,144.58433399999998 13.336846,144.56141399999998 12.800588,144.53194599999998 12.264356999999999,144.49593099999998 11.728159,144.45337099999998 11.191998,144.40426699999998 10.655878999999999,144.34861899999999 10.119808999999998,144.286431 9.583790999999998,144.21770299999997 9.047830999999999,144.14243799999997 8.511931999999998,144.06063699999999 7.976101,143.97230399999998 7.440339999999999,143.87743899999998 6.904654999999998,143.77604699999998 6.369049999999998,143.668129 5.833527999999998,143.553689 5.298092999999998,143.432729 4.0,143.12362399999998 4.0,136.26770399999998 5.750111,136.684443 6.262879999999999,136.80028299999998 6.775562000000001,136.90984299999997 7.288160999999999,137.01312499999997 7.80068,137.110133 8.313123000000001,137.20086799999999 8.825495999999998,137.28533499999998 9.337800999999999,137.363534 9.850044999999998,137.43546899999998 10.362231,137.501141 10.874365,137.56055299999997 11.38645,137.61370499999998 11.898492999999998,137.66060099999999 12.410499,137.70124099999998 12.922471999999999,137.73562599999997 13.434417999999999,137.76375799999997 13.946342999999999,137.78563799999998 14.458250999999999,137.80126499999997 14.970148,137.81064199999997 15.48204,137.81376699999998 15.993932,137.81064199999997 16.505829,137.80126499999997 17.017736999999997,137.78563799999998 17.529662,137.76375799999997 18.041608,137.73562599999997 18.553581,137.70124099999998 19.065587,137.66060099999999 19.57763,137.61370499999998 20.089714999999998,137.56055299999997 20.601848999999998,137.501141 21.114035,137.43546899999998 21.626279,137.363534 22.138583999999998,137.28533499999998 22.650957,137.20086799999999 23.1634,137.110133 23.675919,137.01312499999997 24.188518,136.90984299999997 24.7012,136.80028299999998 25.213969,136.684443 25.96408,136.50582599999998 25.96408,143.36174599999998 25.665986999999998,143.432729 25.130551999999998,143.553689" stroke="#1f6fb2" stroke-width="0.1" /><text fill="#0a3d62" font-family="sans-serif" font-size="1.6" text-anchor="middle" x="25.96408" y="140.44075449999997">08</text><polygon fill="#cfe3f7" fill-opacity="0.5" points="48.92816,139.91683099999997 48.950314999999996,140.14177399999997 49.030257999999996,140.40531199999998 49.160078999999996,140.64818999999997 49.334789,140.86107499999997 49.547674,141.03578499999998 49.790552,141.16560599999997 50.054089999999995,141.24554899999998 50.279033,141.26770399999998 61.577287,141.26770399999998 61.802229999999994,141.24554899999998 62.065768,141.16560599999997 62.308645999999996,141.03578499999998 62.521530999999996,140.86107499999997 62.696241,140.64818999999997 62.826062,140.40531199999998 62.906005,140.14177399999997 62.92816,139.91683099999997 62.92816,137.618577 62.906005,137.393634 62.826062,137.13009599999998 62.696241,136.887218 62.521530999999996,136.674333 62.308645999999996,136.49962299999999 62.065768,136.369802 61.802229999999994,136.28985899999998 61.577287,136.26770399999998 50.279033,136.26770399999998 50.054089999999995,136.28985899999998 49.790552,136.369802 49.547674,136.49962299999999 49.334789,136.674333 49.160078999999996,136.887218 49.030257999999996,137.13009599999998 48.950314999999996,137.393634 48.92816,137.618577 48.92816,139.91683099999997" stroke="#1f6fb2" stroke-width="0.1" /><text fill="#0a3d62" font-family="sans-serif" font-size="1.6" text-anchor="middle" x="55.92816" y="138.76770399999998">06</text><polygon fill="#cfe3f7" fill-opacity="0.5" points="63.92816,139.91683099999997 63.950314999999996,140.14177399999997 64.030258,140.40531199999998 64.160079,140.64818999999997 64.334789,140.86107499999997 64.547674,141.03578499999998 64.790552,141.16560599999997 65.05409,141.24554899999998 65.279033,141.26770399999998 76.577287,141.26770399999998 76.80223,141.24554899999998 77.06576799999999,141.16560599999997 77.308646,141.03578499999998 77.521531,140.86107499999997 77.696241,140.64818999999997 77.826062,140.40531199999998 77.906005,140.14177399999997 77.92815999999999,139.91683099999997 77.92815999999999,137.618577 77.906005,137.393634 77.826062,137.13009599999998 77.696241,136.887218 77.521531,136.674333 77.308646,136.49962299999999 77.06576799999999,136.369802 76.80223,136.28985899999998 76.577287,136.26770399999998 65.279033,136.26770399999998 65.05409,136.28985899999998 64.790552,136.369802 64.547674,136.49962299999999 64.334789,136.674333 64.160079,136.887218 64.030258,137.13009599999998 63.950314999999996,137.393634 63.92816,137.618577 63.92816,139.91683099999997" stroke="#1f6fb2" stroke-width="0.1" /><text fill="#0a3d62" font-family="sans-serif" font-size="1.6" text-anchor="middle" x="70.92815999999999" y="138.76770399999998">06</text></svg>