<?xml version="1.0" encoding="utf-8" ?>
<svg baseProfile="full" height="113.940148cm" version="1.1" viewBox="0 0 168.0 113.940148" width="168.0cm" xmlns="http://www.w3.org/2000/svg" xmlns:ev="http://www.w3.org/2001/xml-events" xmlns:xlink="http://www.w3.org/1999/xlink"><defs /><rect fill="#f7f3ea" height="105.940148" stroke="#333" stroke-width="0.15" width="160.0" x="4.0" y="4.0" /><text fill="#000" font-family="sans-serif" font-size="1.4" x="4.0" y="3.0">PLANO DE CORTE — ancho 160 cm — largo 1.06 m</text><polygon fill="#cfe3f7" fill-opacity="0.5" points="8.228580000000001,66.003991 34.072896,66.003991 38.309748,13.779323999999999 37.58879,13.02338 37.170864,12.590219000000001 36.744289,12.158232 36.307230000000004,11.730794 35.860273,11.312175 35.40572,10.903946000000001 34.944496,10.505552 34.477195,10.116143000000001 34.004402999999996,9.734863 33.526691,9.360859999999999 33.04462,8.99328 32.55874,8.631273 32.069582,8.273982 31.576815,7.919969 31.078286,7.568092 30.571813,7.219842 30.05648,6.8779330000000005 29.53145,6.54521 28.995845,6.224572 28.448756,5.918985 27.889268,5.631502 27.31649,5.365278 26.729613,5.123591 26.129777,4.910448 25.522122,4.728197 24.911558,4.574102 24.299860000000002,4.443979000000001 23.688344,4.333647 23.078217000000002,4.239045 22.470638,4.156234 21.866745,4.081401 21.175531,4.0 20.472091,4.0478000000000005 19.856474,4.093229 19.237094,4.146213 18.61493,4.210494 17.990967,4.289933 17.366222,4.38851 16.741797,4.510323 16.118965,4.659567 15.50101,4.839931 14.893471000000002,5.051494 14.299107,5.290505 13.717563,5.553771 13.148141,5.838288 12.590095,6.141147 12.042658000000001,6.459529 11.505068,6.790687 10.976585,7.131934 10.456506000000001,7.480633 9.943634000000001,7.834543 9.435029,8.193723 8.929524,8.561268 8.428682,8.939566 7.93469,9.330648 7.449787000000001,9.736587 6.976292000000001,10.159491 6.516617,10.601475 6.073293,11.064637000000001 5.649365000000001,11.550574000000001 5.250777000000001,12.055903 4.8787780000000005,12.570084999999999 4.527858000000002,13.084399000000001 4.0,13.881281999999999 8.228580000000001,66.003991" stroke="#1f6fb2" stroke-width="0.1" /><text fill="#0a3d62" font-family="sans-serif" font-size="1.6" text-anchor="middle" x="21.154874" y="35.0019955">03</text><polygon fill="#cfe3f7" fill-opacity="0.5" points="43.538328,66.003991 69.382644,66.003991 73.619496,13.779323999999999 72.898538,13.02338 72.48061200000001,12.590219000000001 72.054037,12.158232 71.616978,11.730794 71.17002099999999,11.312175 70.715468,10.903946000000001 70.254244,10.505552 69.78694300000001,10.116143000000001 69.314151,9.734863 68.836439,9.360859999999999 68.354368,8.99328 67.868488,8.631273 67.37933,8.273982 66.886563,7.919969 66.388034,7.568092 65.881561,7.219842 65.366228,6.8779330000000005 64.84119799999999,6.54521 64.305593,6.224572 63.758504,5.918985 63.199016,5.631502 62.626238,5.365278 62.039361,5.123591 61.439525,4.910448 60.831869999999995,4.728197 60.221306,4.574102 59.609608,4.443979000000001 58.998092,4.333647 58.387965,4.239045 57.780386,4.156234 57.176493,4.081401 56.485279,4.0 55.781839,4.0478000000000005 55.166222,4.093229 54.546842,4.146213 53.924678,4.210494 53.300715,4.289933 52.67597,4.38851 52.051545,4.510323 51.428713,4.659567 50.810758,4.839931 50.203219000000004,5.051494 49.608855,5.290505 49.027311,5.553771 48.457889,5.838288 47.899843,6.141147 47.352406,6.459529 46.814816,6.790687 46.286333,7.131934 45.766254,7.480633 45.253382,7.834543 44.744777,8.193723 44.239272,8.561268 43.73843,8.939566 43.244438,9.330648 42.759535,9.736587 42.28604,10.159491 41.826364999999996,10.601475 41.383041,11.064637000000001 40.959113,11.550574000000001 40.560525,12.055903 40.188525999999996,12.570084999999999 39.837606,13.084399000000001 39.309748,13.881281999999999 43.538328,66.003991" stroke="#1f6fb2" stroke-width="0.1" /><text fill="#0a3d62" font-family="sans-serif" font-size="1.6" text-anchor="middle" x="56.464622" y="35.0019955">03</text><polygon fill="#cfe3f7" fill-opacity="0.5" points="110.249844,43.223919 110.82568,50.51784 123.898496,50.51784 124.03646499999999,47.901687 124.12648,46.234268 124.220568,44.568401 124.320792,42.904243 124.429209,41.241948 124.547887,39.581459 124.678259,37.921839000000006 124.819025,36.261957 124.968152,34.601456 125.123586,32.940182 125.28327,31.277983 125.537699,28.663649 119.292629,27.76784 126.280192,26.765525999999998 124.946377,25.020819 124.647948,24.631024 124.347834,24.240163 124.045727,23.848405 123.741106,23.455645999999998 123.433453,23.061783 123.12225,22.666715 122.806979,22.270348 122.48714799999999,21.872616999999998 122.163092,21.474411 121.83757299999999,21.077533 121.514434,20.682646 121.19664,20.28931 120.887084,19.897123 120.588641,19.505798 120.304144,19.115155 120.036359,18.72512 119.787949,18.33571 119.561427,17.947006000000002 119.359109,17.559107 119.183062,17.172049 119.035069,16.785689 118.916344,16.398586 118.826433,16.005012 118.762861,15.599468 118.723884,15.180768 118.70797999999999,14.749127000000001 118.713533,14.305094 118.738774,13.849440000000001 118.78177,13.383072 118.84043,12.906955 118.912527,12.422057 118.995719,11.929324 119.087567,11.429647 119.185558,10.923856 119.443958,9.623273000000001 106.559422,4.0 105.89819800000001,4.7994 105.716665,5.019348 105.53492399999999,5.240513 105.353218,5.463093 105.171791,5.687288000000001 104.990891,5.9133 104.810769,6.141332 104.63168,6.37159 104.453881,6.604281 104.277632,6.839611 104.1032,7.077787 103.930853,7.319016 103.760865,7.563505 103.593706,7.811172 103.430571,8.060426 103.271904,8.308902 103.11702199999999,8.555429 102.965019,8.799257 102.815034,9.039651 102.666253,9.275887 102.517905,9.507255 102.369261,9.733063 102.219637,9.952644 102.068385,10.165365 101.914885,10.370636000000001 101.758542,10.567927000000001 101.59872899999999,10.756817999999999 101.433599,10.938327000000001 101.260288,11.115523 101.077721,11.290695 100.886471,11.464500999999998 100.68728999999999,11.637514 100.480996,11.810341000000001 100.449844,11.83574 100.449844,50.51784 109.674008,50.51784 110.249844,43.223919 90.649844,43.223919 90.07400799999999,50.51784 77.001192,50.51784 76.863223,47.901687 76.773208,46.234268 76.67912,44.568401 76.578896,42.904243 76.470479,41.241948 76.351801,39.581459 76.221429,37.921839000000006 76.080663,36.261957 75.931536,34.601456 75.776102,32.940182 75.616418,31.277983 75.361989,28.663649 81.60705899999999,27.76784 74.619496,26.765525999999998 75.953311,25.020819 76.25174,24.631024 76.55185399999999,24.240163 76.853961,23.848405 77.158582,23.455645999999998 77.466235,23.061783 77.777438,22.666715 78.092709,22.270348 78.41254,21.872616999999998 78.73659599999999,21.474411 79.062115,21.077533 79.385254,20.682646 79.703048,20.28931 80.012604,19.897123 80.311047,19.505798 80.595544,19.115155 80.863329,18.72512 81.111739,18.33571 81.338261,17.947006000000002 81.540579,17.559107 81.71662599999999,17.172049 81.864619,16.785689 81.983344,16.398586 82.073255,16.005012 82.136827,15.599468 82.175804,15.180768 82.191708,14.749127000000001 82.186155,14.305094 82.16091399999999,13.849440000000001 82.117918,13.383072 82.059258,12.906955 81.987161,12.422057 81.903969,11.929324 81.81212099999999,11.429647 81.71413,10.923856 81.45573,9.623273000000001 94.340266,4.0 95.00148999999999,4.7994 95.18302299999999,5.019348 95.36476400000001,5.240513 95.54647,5.463093 95.727897,5.687288000000001 95.90879699999999,5.9133 96.088919,6.141332 96.268008,6.37159 96.445807,6.604281 96.622056,6.839611 96.796488,7.077787 96.968835,7.319016 97.138823,7.563505 97.305982,7.811172 97.469117,8.060426 97.62778399999999,8.308902 97.782666,8.555429 97.934669,8.799257 98.084654,9.039651 98.233435,9.275887 98.381783,9.507255 98.530427,9.733063 98.68005099999999,9.952644 98.83130299999999,10.165365 98.984803,10.370636000000001 99.14114599999999,10.567927000000001 99.300959,10.756817999999999 99.466089,10.938327000000001 99.6394,11.115523 99.821967,11.290695 100.013217,11.464500999999998 100.21239800000001,11.637514 100.418692,11.810341000000001 100.449844,11.83574 100.449844,50.51784 91.22568,50.51784 90.649844,43.223919" stroke="#1f6fb2" stroke-width="0.1" /><text fill="#0a3d62" font-family="sans-serif" font-size="1.6" text-anchor="middle" x="100.449844" y="27.25892">01</text><polygon fill="#cfe3f7" fill-opacity="0.5" points="38.485668000000004,103.869824 39.370924,109.940148 52.48432,109.940148 52.622289,107.323995 52.712304,105.656576 52.806392,103.990709 52.906616,102.326551 53.015033,100.664256 53.133711000000005,99.003767 53.264083,97.34414699999999 53.404849,95.684265 53.553976000000006,94.023764 53.709410000000005,92.36249000000001 53.869094000000004,90.70029099999999 54.071336,88.622197 53.474878000000004,87.903546 53.143657000000005,87.50520900000001 52.80969,87.10504900000001 52.472339000000005,86.70304300000001 52.130679,86.298827 51.783787000000004,85.892043 51.430745,85.482339 51.070639,85.069369 50.702559,84.652794 50.326249000000004,84.232991 49.944283999999996,83.811796 49.562512,83.391053 49.185216,82.970541 48.816913,82.550447 48.462049,82.131059 48.125064,81.712876 47.810351,81.296631 47.522180000000006,80.883299 47.264602,80.474105 47.041298,80.070471 46.855392,79.673891 46.709266,79.285652 46.604449,78.90637 46.541626,78.534618 46.520691,78.161274 46.540221,77.77455499999999 46.599122,77.370083 46.696114,76.948023 46.829178,76.509641 46.995502,76.056691 47.191625,75.591028 47.413606,75.114384 47.657187,74.628272 47.917911000000004,74.133956 48.191205,73.632451 49.011236,72.151384 41.772179,69.096042 41.605877,69.44791599999999 35.815457,67.003991 35.163879,67.459591 34.968141,67.595188 34.774889,67.726582 34.583623,67.852992 34.393869,67.973694 34.205152,68.088026 34.01639,68.195742 33.825591,68.297402 33.631711,68.39354 33.434925,68.484058 33.235539,68.568796 33.033862,68.6476 32.830203,68.720323 32.624873,68.786823 32.418183,68.846966 32.210442,68.900625 32.001873,68.947698 31.791819,68.988291 31.579051,69.022899 31.363076,69.052016 31.143890000000003,69.076058 30.921525000000003,69.09545 30.696035000000002,69.110636 30.46749,69.122075 30.235974000000002,69.130246 30.001576,69.135645 29.764389,69.138791 29.524506000000002,69.140218 29.282020000000003,69.14048 29.035668,69.140147 29.035668,109.940148 37.600412,109.940148 38.485668000000004,103.869824 19.585668000000002,103.869824 18.700412,109.940148 5.587016000000002,109.940148 5.449047,107.323995 5.359032000000003,105.656576 5.264944,103.990709 5.164720000000003,102.326551 5.056303,100.664256 4.937625000000001,99.003767 4.807253000000003,97.34414699999999 4.666487,95.684265 4.51736,94.023764 4.361926,92.36249000000001 4.202242000000002,90.70029099999999 4.0,88.622197 4.596458000000002,87.903546 4.927679000000001,87.50520900000001 5.2616460000000025,87.10504900000001 5.598997000000001,86.70304300000001 5.940657000000002,86.298827 6.287549000000002,85.892043 6.640591000000001,85.482339 7.000697000000002,85.069369 7.3687770000000015,84.652794 7.745087000000002,84.232991 8.127052000000003,83.811796 8.508824,83.391053 8.886120000000002,82.970541 9.254423000000003,82.550447 9.609287000000002,82.131059 9.946272,81.712876 10.260985000000002,81.296631 10.549156,80.883299 10.806734000000002,80.474105 11.030038000000001,80.070471 11.215944,79.673891 11.362070000000003,79.285652 11.466887,78.90637 11.529710000000001,78.534618 11.550645,78.161274 11.531115,77.77455499999999 11.472214000000001,77.370083 11.375222,76.948023 11.242158,76.509641 11.075834,76.056691 10.879711,75.591028 10.65773,75.114384 10.414149000000002,74.628272 10.153425000000002,74.133956 9.880131000000002,73.632451 9.060100000000002,72.151384 16.299157,69.096042 16.465459000000003,69.44791599999999 22.255879,67.003991 22.907457,67.459591 23.103195,67.595188 23.296447,67.726582 23.487713,67.852992 23.677467,67.973694 23.866184,68.088026 24.054946,68.195742 24.245745,68.297402 24.439625,68.39354 24.636411000000003,68.484058 24.835797,68.568796 25.037474000000003,68.6476 25.241133,68.720323 25.446463,68.786823 25.653153,68.846966 25.860894000000002,68.900625 26.069463000000002,68.947698 26.279517000000002,68.988291 26.492285000000003,69.022899 26.708260000000003,69.052016 26.927446,69.076058 27.149811,69.09545 27.375301,69.110636 27.603846,69.122075 27.835362,69.130246 28.069760000000002,69.135645 28.306947,69.138791 28.54683,69.140218 28.789316,69.14048 29.035668,69.140147 29.035668,109.940148 20.470924000000004,109.940148 19.585668000000002,103.869824" stroke="#1f6fb2" stroke-width="0.1" /><text fill="#0a3d62" font-family="sans-serif" font-size="1.6" text-anchor="middle" x="29.035668" y="88.4720695">02</text></svg>