<?xml version="1.0" encoding="utf-8" ?>
<svg baseProfile="full" height="150.49479cm" version="1.1" viewBox="0 0 168.0 150.49479" width="168.0cm" xmlns="http://www.w3.org/2000/svg" xmlns:ev="http://www.w3.org/2001/xml-events" xmlns:xlink="http://www.w3.org/1999/xlink"><defs /><rect fill="#f7f3ea" height="142.49479" stroke="#333" stroke-width="0.15" width="160.0" x="4.0" y="4.0" /><text fill="#000" font-family="sans-serif" font-size="1.4" x="4.0" y="3.0">PLANO DE CORTE — ancho 160 cm — largo 1.42 m</text><polygon fill="#cfe3f7" fill-opacity="0.5" points="4.0,74.258387 12.0151,74.258387 11.169121,17.814655 15.391589,5.252814 12.885961,4.0 12.198679,4.870719 12.01522,5.103651 11.831602,5.337806 11.648078,5.573383 11.464904,5.81058 11.282339,6.049601 11.100645,6.290647 10.920087,6.533925 10.740933,6.7796389999999995 10.563456,7.027995 10.387932,7.2792010000000005 10.21464,7.533462 10.043864,7.790984 9.876067,8.051697 9.712398,8.314032000000001 9.553241,8.575612 9.397873,8.835246999999999 9.245347,9.092185 9.09476,9.345690999999999 8.945255,9.595037 8.796016999999999,9.83951 8.646275,10.078413000000001 8.495299,10.311073 8.342397,10.536846 8.186907,10.755134 8.028192,10.965392 7.865598,11.167168 7.697407,11.361333 7.520795,11.550932 7.3346350000000005,11.738449 7.139519,11.9246 6.93625,12.109977 6.7257,12.295203 6.508787,12.480943 6.0110410000000005,12.899560000000001 5.869394,13.658387000000001 4.0,13.658387000000001 4.0,74.258387" stroke="#1f6fb2" stroke-width="0.1" /><text fill="#0a3d62" font-family="sans-serif" font-size="1.6" text-anchor="middle" x="9.6957945" y="39.1291935">09</text><polygon fill="#cfe3f7" fill-opacity="0.5" points="16.391589,74.258387 24.406689,74.258387 23.56071,17.814655 27.783178,5.252814 25.277549999999998,4.0 24.590268000000002,4.870719 24.406809,5.103651 24.223191,5.337806 24.039667,5.573383 23.856493,5.81058 23.673928,6.049601 23.492234,6.290647 23.311676,6.533925 23.132522,6.7796389999999995 22.955045,7.027995 22.779521,7.2792010000000005 22.606229,7.533462 22.435453,7.790984 22.267656000000002,8.051697 22.103987,8.314032000000001 21.94483,8.575612 21.789462,8.835246999999999 21.636936,9.092185 21.486349,9.345690999999999 21.336844,9.595037 21.187606,9.83951 21.037864,10.078413000000001 20.886888,10.311073 20.733986,10.536846 20.578496,10.755134 20.419781,10.965392 20.257187000000002,11.167168 20.088996,11.361333 19.912384,11.550932 19.726224,11.738449 19.531108,11.9246 19.327839,12.109977 19.117289,12.295203 18.900376,12.480943 18.40263,12.899560000000001 18.260983,13.658387000000001 16.391589,13.658387000000001 16.391589,74.258387" stroke="#1f6fb2" stroke-width="0.1" /><text fill="#0a3d62" font-family="sans-serif" font-size="1.6" text-anchor="middle" x="22.0873835" y="39.1291935">09</text><polygon fill="#cfe3f7" fill-opacity="0.5" points="28.783178,74.225075 56.483177999999995,74.225075 56.483177999999995,26.175006 55.946315,25.50218 55.627055,25.102854 55.305425,24.70214 54.98099,24.300291 54.653020999999995,23.897194 54.320789,23.492739 53.983568,23.086822 53.640631,22.679347 53.291287999999994,22.270251000000002 52.935856,21.860566 52.577703,21.452337 52.221599999999995,21.046302999999998 51.871275,20.641983 51.53039,20.238976 51.202591999999996,19.837046 50.89149,19.436118999999998 50.600612999999996,19.036285 50.333346,18.637787000000003 50.092858,18.240989 49.882003,17.8463 49.703227,17.454039 49.558497,17.064222 49.44892,16.674818000000002 49.373654,16.278377 49.329941,15.868069 49.316055,15.442393000000001 49.330439,15.001503 49.371347,14.546087 49.436762,14.077172000000001 49.524390999999994,13.595958 49.63169499999999,13.103698 49.755933,12.601625 49.894211,12.090901 50.043513,11.572599 50.200739999999996,11.047684 50.622811999999996,9.664922 37.642845,4.0 36.981857,4.837407 36.798398,5.070339 36.614779999999996,5.304494 36.431256,5.540071 36.248082,5.777267999999999 36.065517,6.016289 35.883823,6.257334999999999 35.703265,6.5006129999999995 35.524111,6.746327 35.346634,6.994683 35.17111,7.245889 34.997818,7.50015 34.827042,7.7576719999999995 34.659245,8.018385 34.495576,8.28072 34.336419,8.542300000000001 34.181051,8.801935 34.028525,9.058873 33.877938,9.312379 33.728432999999995,9.561725 33.579195,9.806198 33.429453,10.045101 33.278477,10.277761 33.125575,10.503534 32.970085,10.721822 32.81137,10.93208 32.648776,11.133856 32.480585,11.328021 32.303973,11.517619999999999 32.117813,11.705137 31.922697,11.891288 31.719428,12.076665 31.508878,12.261891 31.291965,12.447631 30.794219,12.866248 30.652572,13.625075 28.783178,13.625075 28.783178,74.225075" stroke="#1f6fb2" stroke-width="0.1" /><text fill="#0a3d62" font-family="sans-serif" font-size="1.6" text-anchor="middle" x="42.633178" y="39.1125375">01</text><polygon fill="#cfe3f7" fill-opacity="0.5" points="57.483177999999995,74.225075 85.183178,74.225075 85.183178,26.175006 84.64631499999999,25.50218 84.327055,25.102854 84.005425,24.70214 83.68099,24.300291 83.353021,23.897194 83.020789,23.492739 82.683568,23.086822 82.340631,22.679347 81.991288,22.270251000000002 81.63585599999999,21.860566 81.277703,21.452337 80.9216,21.046302999999998 80.57127499999999,20.641983 80.23039,20.238976 79.902592,19.837046 79.59149,19.436118999999998 79.300613,19.036285 79.033346,18.637787000000003 78.792858,18.240989 78.58200299999999,17.8463 78.40322699999999,17.454039 78.25849699999999,17.064222 78.14891999999999,16.674818000000002 78.07365399999999,16.278377 78.029941,15.868069 78.016055,15.442393000000001 78.030439,15.001503 78.071347,14.546087 78.13676199999999,14.077172000000001 78.224391,13.595958 78.331695,13.103698 78.45593299999999,12.601625 78.594211,12.090901 78.743513,11.572599 78.90074,11.047684 79.322812,9.664922 66.342845,4.0 65.681857,4.837407 65.498398,5.070339 65.31478,5.304494 65.131256,5.540071 64.948082,5.777267999999999 64.76551699999999,6.016289 64.583823,6.257334999999999 64.40326499999999,6.5006129999999995 64.224111,6.746327 64.046634,6.994683 63.871109999999994,7.245889 63.697818,7.50015 63.527041999999994,7.7576719999999995 63.359244999999994,8.018385 63.195575999999996,8.28072 63.036418999999995,8.542300000000001 62.881051,8.801935 62.728525,9.058873 62.577937999999996,9.312379 62.428433,9.561725 62.279194999999994,9.806198 62.129453,10.045101 61.978477,10.277761 61.82557499999999,10.503534 61.67008499999999,10.721822 61.51137,10.93208 61.348775999999994,11.133856 61.180584999999994,11.328021 61.003972999999995,11.517619999999999 60.817812999999994,11.705137 60.622696999999995,11.891288 60.419427999999996,12.076665 60.208878,12.261891 59.99196499999999,12.447631 59.494218999999994,12.866248 59.352571999999995,13.625075 57.483177999999995,13.625075 57.483177999999995,74.225075" stroke="#1f6fb2" stroke-width="0.1" /><text fill="#0a3d62" font-family="sans-serif" font-size="1.6" text-anchor="middle" x="71.33317799999999" y="39.1125375">01</text><polygon fill="#cfe3f7" fill-opacity="0.5" points="90.572672,66.003411 116.412756,66.003411 120.810946,13.287859 120.054587,12.543371 119.625812,12.126264 119.18829,11.710567999999999 118.740363,11.299833 118.28292400000001,10.898276 117.81832800000001,10.507265 117.347444,10.126183000000001 116.870856,9.754178 116.389138,9.390394 115.902852,9.033975 115.412549,8.684069000000001 114.91877,8.339827 114.42201399999999,8.00038 113.921726,7.664221 113.415692,7.330588 112.90205499999999,7.001126 112.38007,6.678403 111.849012,6.365069 111.308125,6.063823 110.756635,5.777426 110.193763,5.508713 109.618755,5.26061 109.030975,5.036158 108.432002,4.839095 107.826884,4.670922 107.219719,4.528758 106.61193399999999,4.408714 106.004668,4.306945 105.398972,4.219705 104.79585900000001,4.143359 104.19632899999999,4.074377 103.51602,4.0 102.82451,4.043241 102.214231,4.084713 101.600343,4.133121 100.98370800000001,4.191903 100.365183,4.2646 99.74565799999999,4.354851 99.126082,4.466398 98.50752299999999,4.603074 97.89248599999999,4.7684239999999996 97.286056,4.963269 96.691336,5.184368 96.108223,5.42875 95.536123,5.693656 94.974394,5.976411000000001 94.422375,6.274411 93.8794,6.585119 93.344819,6.906052 92.818009,7.234771 92.29808,7.56906 91.782273,7.908525 91.268912,8.255982 90.759233,8.614131 90.255443,8.985118 89.759807,9.371144000000001 89.274668,9.774448 88.802465,10.197292000000001 88.345764,10.641923 87.90755300000001,11.110237 87.49398,11.599540000000001 87.107454,12.099317000000001 86.742924,12.59985 86.183178,13.392078 90.572672,66.003411" stroke="#1f6fb2" stroke-width="0.1" /><text fill="#0a3d62" font-family="sans-serif" font-size="1.6" text-anchor="middle" x="103.497062" y="35.0017055">04</text><polygon fill="#cfe3f7" fill-opacity="0.5" points="126.20044,66.003411 152.040524,66.003411 156.438714,13.287859 155.682355,12.543371 155.25358,12.126264 154.816058,11.710567999999999 154.368131,11.299833 153.910692,10.898276 153.446096,10.507265 152.975212,10.126183000000001 152.498624,9.754178 152.016906,9.390394 151.53062,9.033975 151.04031700000002,8.684069000000001 150.546538,8.339827 150.049782,8.00038 149.549494,7.664221 149.04346,7.330588 148.529823,7.001126 148.007838,6.678403 147.47678000000002,6.365069 146.935893,6.063823 146.384403,5.777426 145.821531,5.508713 145.246523,5.26061 144.65874300000002,5.036158 144.05977000000001,4.839095 143.454652,4.670922 142.847487,4.528758 142.239702,4.408714 141.632436,4.306945 141.02674000000002,4.219705 140.423627,4.143359 139.824097,4.074377 139.143788,4.0 138.452278,4.043241 137.841999,4.084713 137.228111,4.133121 136.611476,4.191903 135.992951,4.2646 135.373426,4.354851 134.75385,4.466398 134.135291,4.603074 133.520254,4.7684239999999996 132.913824,4.963269 132.319104,5.184368 131.735991,5.42875 131.163891,5.693656 130.602162,5.976411000000001 130.050143,6.274411 129.507168,6.585119 128.972587,6.906052 128.445777,7.234771 127.925848,7.56906 127.410041,7.908525 126.89668,8.255982 126.387001,8.614131 125.883211,8.985118 125.387575,9.371144000000001 124.90243600000001,9.774448 124.430233,10.197292000000001 123.973532,10.641923 123.53532100000001,11.110237 123.121748,11.599540000000001 122.73522200000001,12.099317000000001 122.370692,12.59985 121.810946,13.392078 126.20044,66.003411" stroke="#1f6fb2" stroke-width="0.1" /><text fill="#0a3d62" font-family="sans-serif" font-size="1.6" text-anchor="middle" x="139.12483" y="35.0017055">04</text><polygon fill="#cfe3f7" fill-opacity="0.5" points="54.0,87.27494 53.588153,86.60681199999999 53.325169,86.179948 53.062312,85.752826 52.799582,85.325212 52.536975999999996,84.896874 52.274494000000004,84.467577 52.012133,84.037086 51.74989,83.60516799999999 51.487785,83.171625 51.226239,82.736837 50.966727,82.301638 50.711012,81.866348 50.460588,81.430861 50.216933,80.995088 49.981508000000005,80.558962 49.755752,80.122437 49.541083,79.685484 49.338886,79.248086 49.150509,78.810232 48.977261999999996,78.371905 48.820403999999996,77.933073 48.681145,77.49367 48.560643999999996,77.053578 48.459799000000004,76.611673 48.378361,76.16474099999999 48.251258,75.258387 29.0,75.258387 29.0,135.258387 54.0,135.258387 54.0,87.27494 4.0,87.27494 4.411847000000002,86.60681199999999 4.674831000000001,86.179948 4.937688000000001,85.752826 5.200417999999999,85.325212 5.463024000000001,84.896874 5.725505999999999,84.467577 5.987867000000001,84.037086 6.250109999999999,83.60516799999999 6.512215000000001,83.171625 6.773761,82.736837 7.033273000000001,82.301638 7.288988,81.866348 7.539411999999999,81.430861 7.783066999999999,80.995088 8.018491999999998,80.558962 8.244247999999999,80.122437 8.458917,79.685484 8.661114000000001,79.248086 8.849491,78.810232 9.022738,78.371905 9.179596,77.933073 9.318855,77.49367 9.439356,77.053578 9.540201,76.611673 9.621638999999998,76.16474099999999 9.748742,75.258387 29.0,75.258387 29.0,135.258387 4.0,135.258387 4.0,87.27494" stroke="#1f6fb2" stroke-width="0.1" /><text fill="#0a3d62" font-family="sans-serif" font-size="1.6" text-anchor="middle" x="29.0" y="105.258387">02</text><polygon fill="#cfe3f7" fill-opacity="0.5" points="55.0,86.530292 62.0,90.940292 69.0,86.530292 69.0,75.258387 55.0,75.258387 55.0,86.530292" stroke="#1f6fb2" stroke-width="0.1" /><text fill="#0a3d62" font-family="sans-serif" font-size="1.6" text-anchor="middle" x="62.0" y="83.0993395">10</text><polygon fill="#cfe3f7" fill-opacity="0.5" points="70.0,87.507514 70.029841,87.810494 70.132547,88.149069 70.299332,88.461102 70.523786,88.734601 70.797285,88.959055 71.109318,89.12584 71.447893,89.228546 71.750873,89.258387 93.249127,89.258387 93.552107,89.228546 93.890682,89.12584 94.202715,88.959055 94.476214,88.734601 94.70066800000001,88.461102 94.867453,88.149069 94.970159,87.810494 95.0,87.507514 95.0,77.00926 94.970159,76.70627999999999 94.867453,76.367705 94.70066800000001,76.055672 94.476214,75.782173 94.202715,75.557719 93.890682,75.390934 93.552107,75.288228 93.249127,75.258387 71.750873,75.258387 71.447893,75.288228 71.109318,75.390934 70.797285,75.557719 70.523786,75.782173 70.299332,76.055672 70.132547,76.367705 70.029841,76.70627999999999 70.0,77.00926 70.0,87.507514" stroke="#1f6fb2" stroke-width="0.1" /><text fill="#0a3d62" font-family="sans-serif" font-size="1.6" text-anchor="middle" x="82.5" y="82.258387">05</text><polygon fill="#cfe3f7" fill-opacity="0.5" points="96.0,87.507514 96.029841,87.810494 96.132547,88.149069 96.299332,88.461102 96.523786,88.734601 96.797285,88.959055 97.109318,89.12584 97.447893,89.228546 97.750873,89.258387 119.249127,89.258387 119.552107,89.228546 119.890682,89.12584 120.202715,88.959055 120.476214,88.734601 120.70066800000001,88.461102 120.867453,88.149069 120.970159,87.810494 121.0,87.507514 121.0,77.00926 120.970159,76.70627999999999 120.867453,76.367705 120.70066800000001,76.055672 120.476214,75.782173 120.202715,75.557719 119.890682,75.390934 119.552107,75.288228 119.249127,75.258387 97.750873,75.258387 97.447893,75.288228 97.109318,75.390934 96.797285,75.557719 96.523786,75.782173 96.299332,76.055672 96.132547,76.367705 96.029841,76.70627999999999 96.0,77.00926 96.0,87.507514" stroke="#1f6fb2" stroke-width="0.1" /><text fill="#0a3d62" font-family="sans-serif" font-size="1.6" text-anchor="middle" x="108.5" y="82.258387">05</text><polygon fill="#cfe3f7" fill-opacity="0.5" points="160.846382,85.8389 160.798972,85.377151 160.76645200000002,84.908221 160.747374,84.432459 160.740241,83.950264 160.74350900000002,83.462062 160.755584,82.968296 160.774825,82.469409 160.799551,81.965838 160.828038,81.458005 160.90199,80.216927 148.051764,75.258387 147.42145299999999,75.714779 147.23398,75.849272 147.048972,75.97955 146.86593,76.104866 146.68438,76.22452799999999 146.503853,76.337906 146.323333,76.444761 146.140859,76.545667 145.955345,76.641185 145.76694700000002,76.731214 145.575976,76.815576 145.382745,76.8941 145.187569,76.966623 144.990761,77.032987 144.792635,77.093045 144.593506,77.146657 144.393609,77.193707 144.192283,77.234295 143.988202,77.268917 143.78078299999999,77.298079 143.57001400000001,77.322186 143.35592400000002,77.341657 143.138569,77.356926 142.918023,77.368446 142.694373,77.376693 142.467716,77.382159 142.238149,77.385361 142.005773,77.386833 141.770687,77.387133 141.531728,77.386833 141.531728,87.386834 161.063456,87.386834 160.846382,85.8389 122.217074,85.8389 122.264484,85.377151 122.297004,84.908221 122.316082,84.432459 122.323215,83.950264 122.319947,83.462062 122.307872,82.968296 122.28863100000001,82.469409 122.263905,81.965838 122.23541800000001,81.458005 122.161466,80.216927 135.011692,75.258387 135.642003,75.714779 135.829476,75.849272 136.014484,75.97955 136.197526,76.104866 136.379076,76.22452799999999 136.559603,76.337906 136.740123,76.444761 136.922597,76.545667 137.108111,76.641185 137.29650900000001,76.731214 137.48748,76.815576 137.680711,76.8941 137.875887,76.966623 138.072695,77.032987 138.270821,77.093045 138.46995,77.146657 138.669847,77.193707 138.871173,77.234295 139.075254,77.268917 139.282673,77.298079 139.49344200000002,77.322186 139.70753200000001,77.341657 139.924887,77.356926 140.145433,77.368446 140.369083,77.376693 140.59574,77.382159 140.825307,77.385361 141.057683,77.386833 141.292769,77.387133 141.531728,77.386833 141.531728,87.386834 122.0,87.386834 122.217074,85.8389" stroke="#1f6fb2" stroke-width="0.1" /><text fill="#0a3d62" font-family="sans-serif" font-size="1.6" text-anchor="middle" x="141.531728" y="81.3226105">03</text><polygon fill="#cfe3f7" fill-opacity="0.5" points="25.066332,143.12696499999998 25.521088,143.21656 25.97591,143.301048 26.430795,143.380426 26.88574,143.454692 27.340742,143.523846 27.795796,143.587884 28.2509,143.646806 28.706049,143.700609 29.161239,143.749293 29.616467,143.792855 30.071728,143.831296 30.527019,143.864613 30.982335,143.892806 31.437672,143.915874 31.893027,143.933817 32.348394,143.946633 32.80377,143.954323 33.25915,143.956887 33.714529999999996,143.954323 34.169906,143.946633 34.625273,143.933817 35.080628,143.915874 35.535965,143.892806 35.991281,143.864613 36.446572,143.831296 36.901834,143.792855 37.357061,143.749293 37.812252,143.700609 38.2674,143.646806 38.722504,143.587884 39.177558,143.523846 39.63256,143.454692 40.087505,143.380426 40.54239,143.301048 40.997213,143.21656 41.451968,143.12696499999998 41.652423,143.085215 43.698167999999995,146.49479 44.753386,146.095807 42.937247,136.258387 41.488314,136.576477 41.054755,136.666777 40.621265,136.752182 40.187841,136.832694 39.754481,136.90831599999999 39.32118,136.97905 38.887935999999996,137.044896 38.454745,137.105858 38.021603,137.161936 37.588505999999995,137.213133 37.15545,137.259449 36.722432,137.300887 36.289448,137.337446 35.856493,137.369129 35.423563,137.395936 34.990655000000004,137.417868 34.557764,137.434925 34.124886000000004,137.447109 33.692015999999995,137.454419 33.25915,137.456855 32.826284,137.454419 32.393415,137.447109 31.960535999999998,137.434925 31.527645,137.417868 31.094737,137.395936 30.661807,137.369129 30.228852,137.337446 29.795868,137.300887 29.36285,137.259449 28.929795,137.213133 28.496698,137.161936 28.063555,137.105858 27.630364,137.044896 27.197119999999998,136.97905 26.763818999999998,136.90831599999999 26.330458999999998,136.832694 25.897035,136.752182 25.463545,136.666777 25.029986,136.576477 24.376693,136.433057 24.376693,142.980685 24.611646,143.032265 25.066332,143.12696499999998 23.687054,143.12696499999998 23.232298,143.21656 22.777476,143.301048 22.322591,143.380426 21.867646,143.454692 21.412644,143.523846 20.95759,143.587884 20.502485999999998,143.646806 20.047337,143.700609 19.592147,143.749293 19.136919,143.792855 18.681658,143.831296 18.226367,143.864613 17.771051,143.892806 17.315714,143.915874 16.860359,143.933817 16.404992,143.946633 15.949615999999999,143.954323 15.494235999999999,143.956887 15.038856,143.954323 14.58348,143.946633 14.128112999999999,143.933817 13.672758,143.915874 13.217421,143.892806 12.762105,143.864613 12.306814,143.831296 11.851552,143.792855 11.396325,143.749293 10.941134,143.700609 10.485985999999999,143.646806 10.030882,143.587884 9.575828,143.523846 9.120826,143.454692 8.665880999999999,143.380426 8.210995999999998,143.301048 7.756173,143.21656 7.301417999999998,143.12696499999998 7.100963,143.085215 5.055218,146.49479 4.0,146.095807 5.816139,136.258387 7.265072,136.576477 7.698630999999999,136.666777 8.132120999999998,136.752182 8.565545,136.832694 8.998904999999999,136.90831599999999 9.432205999999999,136.97905 9.86545,137.044896 10.298641,137.105858 10.731783,137.161936 11.16488,137.213133 11.597935999999999,137.259449 12.030954,137.300887 12.463937999999999,137.337446 12.896893,137.369129 13.329823,137.395936 13.762730999999999,137.417868 14.195622,137.434925 14.628499999999999,137.447109 15.06137,137.454419 15.494235999999999,137.456855 15.927102,137.454419 16.359971,137.447109 16.79285,137.434925 17.225741,137.417868 17.658649,137.395936 18.091579,137.369129 18.524534,137.337446 18.957518,137.300887 19.390535999999997,137.259449 19.823591,137.213133 20.256688,137.161936 20.689830999999998,137.105858 21.123022,137.044896 21.556266,136.97905 21.989567,136.90831599999999 22.422927,136.832694 22.856351,136.752182 23.289841,136.666777 23.723399999999998,136.576477 24.376693,136.433057 24.376693,142.980685 24.14174,143.032265 23.687054,143.12696499999998" stroke="#1f6fb2" stroke-width="0.1" /><text fill="#0a3d62" font-family="sans-serif" font-size="1.6" text-anchor="middle" x="24.376693" y="141.3765885">07</text><polygon fill="#cfe3f7" fill-opacity="0.5" points="67.045182,141.572679 67.539776,141.643826 68.034397,141.71091 68.529043,141.773933 69.023714,141.832892 69.518407,141.887787 70.013121,141.938619 70.507855,141.985385 71.002606,142.028087 71.49737400000001,142.066723 71.99215699999999,142.101293 72.486953,142.131797 72.981761,142.158234 73.476578,142.18060499999999 73.971404,142.198908 74.466236,142.213145 74.961074,142.223313 75.455915,142.229415 75.950757,142.231448 76.4456,142.229415 76.94044,142.223313 77.435278,142.213145 77.93011,142.198908 78.424936,142.18060499999999 78.919753,142.158234 79.41456099999999,142.131797 79.909357,142.101293 80.40414,142.066723 80.898908,142.028087 81.393659,141.985385 81.88839300000001,141.938619 82.383107,141.887787 82.87780000000001,141.832892 83.37247099999999,141.773933 83.86711700000001,141.71091 84.361738,141.643826 84.85633200000001,141.572679 85.350898,141.497471 86.68321399999999,141.283916 86.68321399999999,136.258387 85.04228499999999,136.521409 84.563605,136.594201 84.084953,136.663054 83.60632799999999,136.72797 83.12772899999999,136.788947 82.64915400000001,136.845988 82.170601,136.899093 81.69207,136.948261 81.21355700000001,136.993495 80.735063,137.034793 80.256586,137.072157 79.778123,137.10558699999999 79.299673,137.135083 78.821235,137.16064599999999 78.342807,137.182275 77.864387,137.199972 77.385974,137.21373499999999 76.907565,137.223567 76.42916,137.229465 75.950757,137.231432 75.472354,137.229465 74.993949,137.223567 74.515541,137.21373499999999 74.037127,137.199972 73.558707,137.182275 73.08027899999999,137.16064599999999 72.60184100000001,137.135083 72.123391,137.10558699999999 71.644928,137.072157 71.166451,137.034793 70.687957,136.993495 70.209445,136.948261 69.730913,136.899093 69.25236100000001,136.845988 68.773785,136.788947 68.295186,136.72797 67.81656100000001,136.663054 67.33791,136.594201 66.859229,136.521409 66.2183,136.418675 66.2183,141.444205 66.55061599999999,141.497471 67.045182,141.572679 65.391418,141.572679 64.896824,141.643826 64.402203,141.71091 63.907557,141.773933 63.412886,141.832892 62.918193,141.887787 62.423479,141.938619 61.928745,141.985385 61.433994,142.028087 60.939226,142.066723 60.444443,142.101293 59.949647,142.131797 59.454839,142.158234 58.960021999999995,142.18060499999999 58.465196,142.198908 57.970364000000004,142.213145 57.475526,142.223313 56.980685,142.229415 56.485843,142.231448 55.991,142.229415 55.49616,142.223313 55.001322,142.213145 54.50649,142.198908 54.011663999999996,142.18060499999999 53.516847,142.158234 53.022039,142.131797 52.527243,142.101293 52.03246,142.066723 51.537692,142.028087 51.042941,141.985385 50.548207,141.938619 50.053493,141.887787 49.5588,141.832892 49.064128999999994,141.773933 48.569483,141.71091 48.074861999999996,141.643826 47.580268000000004,141.572679 47.085702,141.497471 45.753386,141.283916 45.753386,136.258387 47.394315,136.521409 47.872995,136.594201 48.351647,136.663054 48.830272,136.72797 49.308870999999996,136.788947 49.787446,136.845988 50.265999,136.899093 50.74453,136.948261 51.223043,136.993495 51.701537,137.034793 52.180014,137.072157 52.658477,137.10558699999999 53.136927,137.135083 53.615365,137.16064599999999 54.093793,137.182275 54.572213,137.199972 55.050626,137.21373499999999 55.529035,137.223567 56.00744,137.229465 56.485843,137.231432 56.964246,137.229465 57.442651,137.223567 57.921059,137.21373499999999 58.399473,137.199972 58.877893,137.182275 59.356321,137.16064599999999 59.834759,137.135083 60.313209,137.10558699999999 60.791672,137.072157 61.270149,137.034793 61.748643,136.993495 62.227154999999996,136.948261 62.705687,136.899093 63.184239,136.845988 63.662814999999995,136.788947 64.141414,136.72797 64.62003899999999,136.663054 65.09869,136.594201 65.577371,136.521409 66.2183,136.418675 66.2183,141.444205 65.88598400000001,141.497471 65.391418,141.572679" stroke="#1f6fb2" stroke-width="0.1" /><text fill="#0a3d62" font-family="sans-serif" font-size="1.6" text-anchor="middle" x="66.2183" y="139.24491749999999">08</text><polygon fill="#cfe3f7" fill-opacity="0.5" points="87.68321399999999,139.907514 87.70536899999999,140.132457 87.78531199999999,140.395995 87.915133,140.638873 88.08984299999999,140.851758 88.30272799999999,141.026468 88.54560599999999,141.156289 88.80914399999999,141.236232 89.034087,141.258387 100.33234099999999,141.258387 100.557284,141.236232 100.82082199999999,141.156289 101.0637,141.026468 101.276585,140.851758 101.45129499999999,140.638873 101.581116,140.395995 101.661059,140.132457 101.68321399999999,139.907514 101.68321399999999,137.60926 101.661059,137.384317 101.581116,137.120779 101.45129499999999,136.877901 101.276585,136.665016 101.0637,136.490306 100.82082199999999,136.360485 100.557284,136.280542 100.33234099999999,136.258387 89.034087,136.258387 88.80914399999999,136.280542 88.54560599999999,136.360485 88.30272799999999,136.490306 88.08984299999999,136.665016 87.915133,136.877901 87.78531199999999,137.120779 87.70536899999999,137.384317 87.68321399999999,137.60926 87.68321399999999,139.907514" stroke="#1f6fb2" stroke-width="0.1" /><text fill="#0a3d62" font-family="sans-serif" font-size="1.6" text-anchor="middle" x="94.68321399999999" y="138.758387">06</text><polygon fill="#cfe3f7" fill-opacity="0.5" points="102.68321399999999,139.907514 102.70536899999999,140.132457 102.78531199999999,140.395995 102.915133,140.638873 103.08984299999999,140.851758 103.30272799999999,141.026468 103.54560599999999,141.156289 103.80914399999999,141.236232 104.034087,141.258387 115.33234099999999,141.258387 115.557284,141.236232 115.82082199999999,141.156289 116.0637,141.026468 116.276585,140.851758 116.45129499999999,140.638873 116.581116,140.395995 116.661059,140.132457 116.68321399999999,139.907514 116.68321399999999,137.60926 116.661059,137.384317 116.581116,137.120779 116.45129499999999,136.877901 116.276585,136.665016 116.0637,136.490306 115.82082199999999,136.360485 115.557284,136.280542 115.33234099999999,136.258387 104.034087,136.258387 103.80914399999999,136.280542 103.54560599999999,136.360485 103.30272799999999,136.490306 103.08984299999999,136.665016 102.915133,136.877901 102.78531199999999,137.120779 102.70536899999999,137.384317 102.68321399999999,137.60926 102.68321399999999,139.907514" stroke="#1f6fb2" stroke-width="0.1" /><text fill="#0a3d62" font-family="sans-serif" font-size="1.6" text-anchor="middle" x="109.68321399999999" y="138.758387">06</text></svg>