<?xml version="1.0" encoding="utf-8" ?>
<svg baseProfile="full" height="84.246331cm" version="1.1" viewBox="0 0 37.7 84.246331" width="37.7cm" xmlns="http://www.w3.org/2000/svg" xmlns:ev="http://www.w3.org/2001/xml-events" xmlns:xlink="http://www.w3.org/1999/xlink"><defs /><text fill="#000" font-family="sans-serif" font-size="1.0" x="3.0" y="2.4">NIDO DE GRADING — DELANTERO — tallas XS, S, M, L, XL, XXL</text><polygon fill="none" points="3.0,71.246331 29.7,71.246331 29.7,25.374542 29.118215,24.700281 28.778487,24.307292 28.436197,23.912819000000002 28.090829,23.517011 27.741567,23.119673000000002 27.387595,22.720615000000002 27.028102,22.319652 26.66229,21.916616 26.290236,21.512266 25.915247,21.108748000000002 25.542967,20.707146 25.177825,20.307043 24.824112,19.908068 24.486109,19.510068 24.168044,19.113112 23.874029999999998,18.717495999999997 23.607961,18.323725 23.373393,17.932456000000002 23.173384,17.544361000000002 23.01035,17.159863 22.885308,16.776631000000002 22.79657,16.38675 22.741,15.983488 22.717029999999998,15.565161 22.72339,15.131447999999999 22.758726,14.682677 22.821462,14.219636999999999 22.909748999999998,13.743389 23.021472,13.255131 23.154291,12.75609 23.305685,12.247462 23.472995,11.730379 23.65346,11.205886 23.844247,10.674937 24.042469,10.138395000000001 24.571693,8.725179 12.080827,3.0 11.407931000000001,3.904493 11.217832000000001,4.160579 11.027648000000001,4.4179 10.837652,4.676658 10.64812,4.937057 10.459331,5.199302 10.271567000000001,5.463599 10.085113,5.730156 9.900256,5.999182 9.717289000000001,6.270885 9.536506,6.545476000000001 9.358207,6.823163 9.182694,7.104153999999999 9.010428000000001,7.388401 8.842503,7.674367 8.679210000000001,7.9596599999999995 8.519753999999999,8.243051 8.363115,8.523774 8.208316,8.801076 8.054421999999999,9.074213 7.900543,9.342453 7.74583,9.605078 7.589475,9.861391 7.430707,10.110724 7.268787,10.352451 7.1029990000000005,10.585995 6.932628,10.810857 6.756079,11.0277 6.570588,11.239505 6.375005,11.449002 6.169968,11.657012 5.956375,11.86417 5.7351920000000005,12.071139 5.507434,12.27862 5.320019,12.446330999999999 3.0,12.446330999999999 3.0,71.246331" stroke="#8e44ad" stroke-width="0.08" /><text fill="#8e44ad" font-family="sans-serif" font-size="0.9" x="3.0" y="71.246331">XS</text><polygon fill="none" points="3.0,73.246331 30.7,73.246331 30.7,25.870625 30.100068,25.184918 29.746677,24.781747000000003 29.390684,24.377100000000002 29.03155,23.971113000000003 28.668433,23.563583 28.300496,23.154312 27.926906,22.743109 27.546843,22.329800000000002 27.160414,21.915175 26.771075,21.501347000000003 26.384597,21.089301000000003 26.005541,20.678565000000003 25.638339,20.268731000000002 25.287416999999998,19.859611 24.957145,19.451237 24.651775999999998,19.043873 24.375339999999998,18.637988 24.131521,18.234204 23.923496,17.833152 23.753785999999998,17.435187 23.623387,17.037551999999998 23.5304,16.632189 23.471646,16.212778999999998 23.445508,15.77786 23.450623999999998,15.327178 23.485547999999998,14.861111 23.54861,14.380486 23.63787,13.886401 23.751132,13.380079 23.885973,12.862775 24.039794999999998,12.335714 24.209865,11.800054 24.393345999999998,11.256871 24.587334,10.70715 24.788868,10.151785 25.320404,8.706881 12.274689,3.0132640000000004 11.604548000000001,3.906995 11.408809,4.16861 11.212994,4.431474 11.017382000000001,4.695793 10.822256,4.961777 10.6279,5.229639000000001 10.434603,5.499592 10.242656,5.771848 10.052355,6.0466239999999996 9.863996,6.324135 9.677882,6.604596 9.494319,6.888224 9.313614999999999,7.175233 9.136242,7.465578000000001 8.963303,7.757721 8.795078,8.049253 8.630749999999999,8.338922 8.469275,8.62594 8.309653,8.90953 8.150927,9.188924 7.992184,9.463366 7.832553,9.732116 7.671203,9.994454 7.507341,10.249689 7.340206,10.497172 7.169058,10.736305 6.993161,10.96657 6.810869,11.188631 6.619404,11.405473 6.41765,11.619822 6.206278,11.832516 5.986212,12.044215 5.7584420000000005,12.255607 5.524011,12.467419 5.322425,12.646331 3.0,12.646331 3.0,73.246331" stroke="#2980b9" stroke-width="0.08" /><text fill="#2980b9" font-family="sans-serif" font-size="0.9" x="3.0" y="73.246331">S</text><polygon fill="none" points="3.0,75.246331 31.7,75.246331 31.7,26.366913 31.082126,25.669891 30.715066,25.256562000000002 30.345366,24.841766 29.972462999999998,24.425624000000003 29.595492,24.007926 29.213596,23.588468000000002 28.825917,23.167051 28.431618,22.743497 28.030832999999998,22.318622 27.627161,21.894503 27.226499999999998,21.47203 26.833537,21.050676000000003 26.452846,20.629995 26.088994,20.20976 25.746491,19.789967 25.429726,19.370841000000002 25.142864,18.952818 24.889715,18.536478 24.673576,18.122408999999998 24.497071,17.710886000000002 24.361172,17.298746 24.26377,16.87784 24.201655,16.442259999999997 24.173154999999998,15.990732999999999 24.176816,15.523064999999999 24.211097,15.039685 24.274238999999998,14.541459999999999 24.364213,14.029517 24.478741,13.505108 24.615323,12.969517999999999 24.771283,12.423995 24.943814,11.869728 25.130008999999998,11.307822 25.32689,10.739294 25.531427,10.16507 26.064204999999998,8.68975 12.469243,3.025182 11.801069,3.909646 11.599692000000001,4.176791 11.398247000000001,4.445197 11.19702,4.715076 10.9963,4.986647 10.796378,5.260126 10.597549,5.535732 10.400112,5.813688 10.204367000000001,6.094213 10.010619,6.37753 9.819175000000001,6.663862 9.63035,6.953429 9.444457,7.246455 9.261977,7.542897 9.084025,7.841215 8.91087,8.138984 8.741668,8.434931 8.575355,8.728244 8.410908,9.018121 8.247347,9.303772 8.083736,9.584417 7.919182,9.859292 7.752831,10.127655 7.583869,10.388793 7.411512,10.642034 7.234998,10.886758 7.053566,11.122427 6.865524,11.349706 6.668078,11.571585 6.4601500000000005,11.790785 6.242441,12.008163 6.0159,12.224402 5.781544,12.440216999999999 5.54044,12.656362 5.324711000000001,12.846331 3.0,12.846331 3.0,75.246331" stroke="#27ae60" stroke-width="0.08" /><text fill="#27ae60" font-family="sans-serif" font-size="0.9" x="3.0" y="75.246331">M</text><polygon fill="none" points="3.0,77.246331 32.7,77.246331 32.7,26.863391 32.064377,26.155170000000002 31.68364,25.731703000000003 31.300228,25.306778 30.913552,24.880502 30.522728,24.452656 30.126874,24.023032 29.725113,23.591422 29.316587,23.157645000000002 28.90146,22.722540000000002 28.483468,22.288146 28.068632,21.855258000000003 27.661766,21.423297 27.267583,20.991777000000003 26.890788999999998,20.560431 26.536030999999998,20.129215000000002 26.207832,19.698316000000002 25.910489,19.268131 25.647939,18.839199 25.423598,18.41206 25.240191,17.986901 25.098664,17.56017 24.996703,17.123679 24.931072,16.671917999999998 24.900036999999998,16.203772999999998 24.902055,15.719111 24.935493,15.218409 24.998497999999998,14.702570999999999 25.088960999999998,14.172756 25.20452,13.630245 25.342596999999998,13.076348 25.500443999999998,12.512343 25.67518,11.939446 25.863829,11.358792 26.06334,10.771429 26.270614,10.178318 26.803774,8.673695 12.664382999999999,3.035951 11.997501,3.912436 11.790486000000001,4.185111 11.583412000000001,4.459059 11.376570000000001,4.734499 11.170257000000001,5.011655 10.964770999999999,5.29075 10.760412,5.572011 10.557485,5.855664 10.356297999999999,6.141938 10.157162,6.431061 9.960391000000001,6.723262 9.766304,7.018768 9.575223999999999,7.3178090000000005 9.387640000000001,7.620347000000001 9.204675,7.92484 9.026588,8.228845 8.852513,8.531069 8.68136,8.830676 8.512084999999999,9.12684 8.343686,9.418747 8.175203,9.705595 8.005721999999999,9.986597 7.834366,10.260986 7.660298,10.528028 7.482713,10.787027 7.300826,11.037344000000001 7.113851,11.278418 6.920053,11.510916 6.716621,11.737829 6.502514,11.96188 6.278466,12.18394 6.04545,12.40472 5.804507,12.624958 5.556732,12.845436 5.326886,13.046331 3.0,13.046331 3.0,77.246331" stroke="#f39c12" stroke-width="0.08" /><text fill="#f39c12" font-family="sans-serif" font-size="0.9" x="3.0" y="77.246331">L</text><polygon fill="none" points="3.0,79.246331 33.7,79.246331 33.7,27.360045000000003 33.046808,26.640728000000003 32.652387000000004,26.207142 32.255257,25.772104000000002 31.854803999999998,25.335710000000002 31.450122999999998,24.897734 31.040312,24.45796 30.624472,24.016174000000003 30.201726999999998,23.572192 29.772268,23.126873 29.339964,22.682214000000002 28.910957,22.238921 28.490189,21.796362000000002 28.08251,21.354008 27.69276,20.911552 27.325722,20.468909 26.986054,20.026226 26.678181,19.583858 26.406164999999998,19.142301 26.173545,18.702047 25.98314,18.263182999999998 25.835872,17.821793999999997 25.729221,17.369688 25.659937,16.90174 25.626215,16.416972 25.626423,15.915310999999999 25.658838,15.397281999999999 25.721519,14.863825 25.812271,14.31613 25.928653999999998,13.755505 26.068013999999998,13.183288 26.227529,12.600783999999999 26.404249,12.009239 26.595124,11.409817 26.797038,10.803599 27.006819999999998,10.191578 27.53967,8.658634 12.860021999999999,3.04573 12.193849,3.915356 11.981197,4.193561 11.768493000000001,4.473050000000001 11.556038000000001,4.75405 11.344134,5.036791 11.133083000000001,5.321503 10.923196,5.608417 10.714781,5.897769 10.508153,6.189791 10.30363,6.484719 10.101533,6.782787 9.902187000000001,7.084232 9.705921,7.389286 9.513233,7.697919000000001 9.325257,8.008585 9.142237999999999,8.318826 8.963288,8.627326 8.787294,8.933227 8.61319,9.235678 8.439949,9.533842 8.266591,9.826893 8.092178,10.114021 7.915813,10.394437 7.736634,10.667383000000001 7.553815,10.932142 7.366548,11.188052 7.174024,11.434533 6.974463,11.672249 6.765041,11.904197 6.544753,12.133096 6.314362,12.359839 6.07487,12.585158 5.8273410000000005,12.80982 5.572895,13.034632 5.328959,13.246331 3.0,13.246331 3.0,79.246331" stroke="#d35400" stroke-width="0.08" /><text fill="#d35400" font-family="sans-serif" font-size="0.9" x="3.0" y="79.246331">XL</text><polygon fill="none" points="3.0,81.246331 34.7,81.246331 34.7,27.856862000000003 34.029407,27.126543 33.621294,26.682852 33.210439,26.237716000000002 32.796204,25.791216000000002 32.377663999999996,25.343124000000003 31.953895,24.893214 31.523977,24.441267 31.087018,23.987093 30.643231999999998,23.531572 30.196621,23.076658000000002 29.753446999999998,22.622967000000003 29.318776,22.169815 28.897592,21.716631000000003 28.494872,21.263065 28.115531999999998,20.808991000000002 27.76436,20.354512 27.445912,19.899942 27.164374,19.445732 26.923402,18.992322 26.725914,18.539693999999997 26.572803,18.08359 26.461349,17.615848999999997 26.388286,17.131712 26.351741,16.630321000000002 26.349992,16.111663 26.381225,15.576305999999999 26.443414,15.025226 26.53428,14.459643999999999 26.651305,13.880898 26.791761,13.29035 26.952754,12.689335999999999 27.131262,12.079129 27.324168,11.460925 27.528285999999998,10.835836 27.740375999999998,10.204888 28.272363,8.644488 13.056089,3.054651 12.390118,3.918396 12.171828,4.202131 11.953497,4.487161 11.735429,4.773722 11.517933000000001,5.062048 11.301321000000002,5.352375 11.085905,5.644943 10.872003,5.939992 10.659936,6.237762 10.450028,6.538494 10.242606,6.84243 10.038002,7.149812000000001 9.836551,7.460879 9.638760999999999,7.7756050000000005 9.445774,8.092444 9.257824,8.40892 9.073997,8.723696 8.893162,9.035889000000001 8.714224999999999,9.344627000000001 8.53614,9.649047 8.357904,9.948302 8.178556,10.241556 7.997176,10.527999 7.812882,10.806851 7.624824,11.077371 7.4321720000000004,11.338875 7.234093,11.590763 7.028761,11.833698 6.813345,12.070678000000001 6.586873,12.304426 6.350139,12.535848999999999 6.104169,12.765709 5.850054,12.994795 5.588939,13.223941 5.330935,13.446330999999999 3.0,13.446330999999999 3.0,81.246331" stroke="#c0392b" stroke-width="0.08" /><text fill="#c0392b" font-family="sans-serif" font-size="0.9" x="3.0" y="81.246331">XXL</text></svg>