<?xml version="1.0" encoding="utf-8" ?>
<svg baseProfile="full" height="74.004748cm" version="1.1" viewBox="0 0 46.64192967225427 74.004748" width="46.64192967225427cm" xmlns="http://www.w3.org/2000/svg" xmlns:ev="http://www.w3.org/2001/xml-events" xmlns:xlink="http://www.w3.org/1999/xlink"><defs /><text fill="#000" font-family="sans-serif" font-size="1.0" x="3.0" y="2.4">NIDO DE GRADING — MANGA — tallas XS, S, M, L, XL, XXL</text><polygon fill="none" points="7.553102627611777,63.504748 32.379664627611774,63.504748 36.93657262761178,13.338642 36.249018627611775,12.566092 35.843477627611776,12.115575 35.42944562761178,11.66598 35.004920627611774,11.220474 34.570147627611775,10.783337 34.127331627611774,10.356355 33.67746062761178,9.939055 33.22113962761178,9.530587 32.75896262761178,9.130098 32.29150762761178,8.736730999999999 31.819344627611777,8.349633 31.343032627611777,7.967952 30.863118627611776,7.590836 30.379518627611777,7.216959 29.890224627611776,6.844773 29.392704627611778,6.475495 28.885800627611776,6.111967 28.368533627611775,5.7572589999999995 27.839868627611775,5.414497 27.298733627611774,5.0868839999999995 26.744038627611776,4.777718999999999 26.174712627611775,4.490423 25.589751627611776,4.228554 24.989735627611775,3.996371 24.379736627611777,3.7972580000000002 23.765615627611776,3.628835 23.149674627611777,3.486599 22.533456627611777,3.36597 21.918369627611778,3.2625029999999997 21.305749627611775,3.1719 20.696918627611776,3.09001 19.992914627611775,3.0 19.275455627611777,3.053453 18.653736627611778,3.103717 18.028088627611776,3.162286 17.399645627611775,3.233272 16.76954762761178,3.320925 16.138983627611776,3.429641 15.509250627611777,3.563954 14.881937627611777,3.7284889999999997 14.261381627611776,3.926973 13.653486627611777,4.1584140000000005 13.060474627611775,4.418564 12.481729627611777,4.7039539999999995 11.916411627611776,5.011285 11.363631627611776,5.337376 10.822488627611776,5.679148 10.292091627611777,6.033607 9.771586627611777,6.397827 9.260160627611777,6.768931 8.756156627611777,7.144757 8.256631627611776,7.525994 7.761017627611777,7.91583 7.271114627611777,8.316348000000001 6.789062627611777,8.729454 6.317057627611776,9.157086 5.857369627611776,9.601207 5.4123606276117755,10.063779 4.9845006276117765,10.546736 4.576894627611777,11.051307 4.195094627611777,11.573406 3.8391346276117773,12.102685 3.503161627611778,12.631516 3.005237627611777,13.438191999999999 7.553102627611777,63.504748" stroke="#8e44ad" stroke-width="0.08" /><text fill="#8e44ad" font-family="sans-serif" font-size="0.9" x="7.553102627611777" y="63.504748">XS</text><polygon fill="none" points="7.608855356927643,65.004748 33.43755935692764,65.004748 38.050060356927645,13.559757999999999 37.34371735692764,12.775125 36.922910356927645,12.312983 36.493434356927644,11.851970999999999 36.05323735692764,11.395374 35.60256335692765,10.947535 35.143641356927645,10.510195 34.67746635692764,10.082840000000001 34.20465835692764,9.664593 33.72582635692764,9.254574 33.241565356927644,8.851901999999999 32.75246035692764,8.455696 32.259087356927644,8.065078 31.76200735692764,7.679171 31.261114356927642,7.296601 30.754375356927643,6.91589 30.23929535692764,6.538394 29.71473635692764,6.167031 29.179721356927644,5.804927 28.633218356927642,5.455264 28.074161356927643,5.1212979999999995 27.501466356927644,4.806385000000001 26.914070356927642,4.513992 26.310979356927643,4.247725 25.69284835692764,4.011897 25.064767356927643,3.809751 24.432476356927644,3.638726 23.79822435692764,3.494246 23.163555356927642,3.371677 22.529888356927643,3.266517 21.89857235692764,3.174407 21.270940356927643,3.0911299999999997 20.549442356927642,3.000135 19.814281356927644,3.054075 19.173535356927644,3.1050969999999998 18.528965356927642,3.16454 17.881718356927642,3.236573 17.232945356927644,3.325504 16.583843356927645,3.435778 15.935714356927642,3.571975 15.290125356927643,3.738771 14.651263356927643,3.940017 14.024997356927642,4.174939999999999 13.413632356927643,4.439287 12.816574356927642,4.7295490000000004 12.232992356927642,5.042389 11.662004356927643,5.374582 11.102712356927642,5.723007 10.554231356927643,6.084624 10.015710356927642,6.456458 9.486334356927642,6.835586 8.964515356927642,7.219735 8.447297356927642,7.609428 7.934069356927642,8.007894 7.426669356927642,8.417318999999999 6.9273113569276425,8.839682 6.438266356927642,9.276999 5.961880356927642,9.731311 5.500592356927642,10.20466 5.056951356927643,10.699059 4.634116356927642,11.215859 4.237763356927644,11.751116999999999 3.867992356927644,12.294333 3.5187943569276428,12.837529 3.005318356927642,13.659742999999999 7.608855356927643,65.004748" stroke="#2980b9" stroke-width="0.08" /><text fill="#2980b9" font-family="sans-serif" font-size="0.9" x="7.608855356927643" y="65.004748">S</text><polygon fill="none" points="7.664705377527504,66.504748 34.495447377527505,66.504748 39.1636393775275,13.781075 38.438677377527505,12.984421999999999 38.0025963775275,12.510674 37.557671377527505,12.038262 37.1018003775275,11.57059 36.635225377527505,11.112065 36.160199377527505,10.664379 35.67772037752751,10.226981 35.1884273775275,9.798966 34.6929423775275,9.379428 34.191879377527506,8.967461 33.685837377527506,8.562156 33.175407377527506,8.16261 32.661167377527505,7.767919 32.1429883775275,7.376663 31.618817377527506,6.987438 31.086192377527503,6.60173 30.543995377527505,6.22253 29.991248377527505,5.853021 29.426922377527504,5.496441 28.849955377527504,5.156102 28.259270377527503,4.8354099999999995 27.653810377527506,4.537885 27.032588377527503,4.26718 26.396329377527504,4.027661 25.750139377527503,3.822431 25.099645377527505,3.648761 24.447048377527505,3.502003 23.793898377527505,3.377468 23.141624377527506,3.270594 22.491588377527506,3.176959 21.845136377527503,3.092281 21.106035377527505,3.000259 20.353057377527506,3.0547139999999997 19.693263377527504,3.106507 19.029745377527505,3.166837 18.363664377527506,3.239937 17.696180377527504,3.3301689999999997 17.028502377527506,3.442032 16.361937377527504,3.580155 15.698034377527504,3.749264 15.040846377527505,3.953328 14.396204377527503,4.191783 13.766487377527504,4.460373 13.151125377527505,4.755546 12.549292377527504,5.073927 11.960111377527504,5.41225 11.382690377527505,5.767347 10.816146377527504,6.136132 10.259629377527505,6.515585 9.712325377527504,6.902731 9.172704377527504,7.295196 8.637803377527504,7.693344 8.106972377527505,8.100436 7.582085377527504,8.51876 7.065432377527504,8.950369 6.559359377527505,9.397357 6.066286377527504,9.861843 5.588729377527505,10.345946999999999 5.129315377527504,10.851767 4.691261377527503,11.380766 4.280357377527505,11.929147 3.896768377527504,12.486265 3.5343323775275053,13.0438 3.0054013775275052,13.881464 7.664705377527504,66.504748" stroke="#27ae60" stroke-width="0.08" /><text fill="#27ae60" font-family="sans-serif" font-size="0.9" x="7.664705377527504" y="66.504748">M</text><polygon fill="none" points="7.720732542244752,68.004748 35.55341254224475,68.004748 40.277474542244754,14.002578999999999 39.534045542244755,13.193959999999999 39.08268154224476,12.70862 38.62230054224475,12.224824 38.15075254224475,11.746093 37.66827454224475,11.276894 37.17713954224475,10.818874000000001 36.67835554224475,10.371443 36.17257554224475,9.93367 35.66043954224475,9.504623 35.142573542244754,9.083369000000001 34.61959554224475,8.668973000000001 34.09211154224475,8.260507 33.56071254224475,7.857038 33.02525254224475,7.457104 32.48365754224475,7.059374 31.93350054224475,6.665457 31.373676542244752,6.278419 30.803208542244754,5.901497 30.221070542244753,5.537987 29.62620154224475,5.191253 29.017531542244754,4.864757 28.39400754224475,4.562068 27.75465154224475,4.286887 27.10025054224475,4.043634 26.43592354224475,3.835276 25.76719254224475,3.658924 25.096218542244753,3.5098599999999998 24.424558542244753,3.3833349999999998 23.753650542244753,3.274727 23.084871542244752,3.179552 22.41957954224475,3.093458 21.66277154224475,3.0003729999999997 20.89187254224475,3.055369 20.21300854224475,3.107941 19.530517542244752,3.169173 18.845571542244752,3.243356 18.159343542244752,3.334911 17.47305254224475,3.44839 16.78801254224475,3.588475 16.10575954224475,3.759943 15.430222542244753,3.966875 14.767195542244753,4.208907 14.119125542244753,4.4817800000000005 13.485463542244752,4.7819009999999995 12.865388542244752,5.105853 12.258026542244751,5.450329 11.662489542244751,5.812116 11.077898542244752,6.188081 10.503400542244751,6.575154 9.938184542244752,6.970316 9.380771542244752,7.371092 8.828193542244753,7.777693 8.279767542244752,8.193408 7.737401542244752,8.620623 7.203460542244752,9.061468999999999 6.680365542244752,9.518116 6.170613542244752,9.99276 5.676793542244752,10.487604000000001 5.201611542244752,11.004823 4.748343542244751,11.545995 4.322888542244751,12.107467 3.9254745422447535,12.678457 3.5497835422447537,13.250304999999999 3.0054855422447524,14.103340999999999 7.720732542244752,68.004748" stroke="#f39c12" stroke-width="0.08" /><text fill="#f39c12" font-family="sans-serif" font-size="0.9" x="7.720732542244752" y="68.004748">L</text><polygon fill="none" points="8.341697,69.504748 37.160161,69.504748 42.511902,13.347487999999998 41.675242,12.543643999999999 41.180304,12.073715 40.67596,11.606088 40.160311,11.144769 39.634155,10.694199000000001 39.099899,10.255597999999999 38.558464,9.828211 38.010504999999995,9.411069000000001 37.456663,9.003197 36.897569,8.603625000000001 36.333843,8.211381 35.766096,7.8255 35.194885,7.44499 34.619644,7.068225 34.03815,6.6946959999999995 33.448599,6.326431 32.850224,5.966292 32.242267999999996,5.61721 31.623946,5.282164 30.994453,4.964192 30.352985,4.666404 29.698762,4.391991 29.03114,4.144265 28.351773,3.92719 27.665674,3.7419409999999997 26.976792,3.585172 26.286590999999998,3.452641 25.596294,3.3401579999999997 24.907045,3.243628 24.21995,3.159061 23.536103999999998,3.0825649999999998 22.77369,3.001535 21.998896,3.0484780000000002 21.303086,3.094305 20.603984,3.147754 19.902534,3.212609 19.199682,3.2927489999999997 18.496395999999997,3.392146 17.793705,3.51487 17.092738999999998,3.665076 16.395877,3.846695 15.708094,4.061032 15.032547,4.304811 14.369166,4.574815 13.717331999999999,4.86805 13.076376999999999,5.181598 12.445608,5.512608999999999 11.824333999999999,5.858299 11.211872,6.215932 10.607565,6.582817 10.010549,6.956439 9.418133999999998,7.335978 8.828655999999999,7.724193 8.243509999999999,8.124176 7.665215,8.538401 7.0963509999999985,8.969393 6.539573999999998,9.419723000000001 5.9976400000000005,9.891983 5.473430999999998,10.388761 4.970223000000001,10.912334000000001 4.494471000000001,11.460513 4.048629999999999,12.022452 3.626954999999999,12.587181 3.0,13.452886999999999 8.341697,69.504748" stroke="#d35400" stroke-width="0.08" /><text fill="#d35400" font-family="sans-serif" font-size="0.9" x="8.341697" y="69.504748">XL</text><polygon fill="none" points="8.40587467225427,71.004748 38.22621467225427,71.004748 43.64192967225427,13.551366 42.78657267225427,12.736713 42.27580367225427,12.255987 41.75547967225427,11.777781 41.223658672254274,11.306213999999999 40.68113567225427,10.845773000000001 40.13033267225427,10.397629 39.57217767225427,9.960996999999999 39.007339672254275,9.534877999999999 38.436475672254275,9.118272000000001 37.86023167225427,8.710180000000001 37.27924267225427,8.309606 36.69413367225427,7.915559 36.10547267225427,7.527014 35.51267867225427,7.142322 34.913527672254276,6.761054 34.30624567225427,6.385324 33.690066672254275,6.018048 33.06423467225427,5.662208 32.42796267225427,5.320833 31.780447672254272,4.9970099999999995 31.12088867225427,4.6938949999999995 30.448506672254272,4.414725 29.76266467225427,4.162858 29.06505467225427,3.94229 28.360670672254273,3.754073 27.65338967225427,3.594759 26.944671672254273,3.4600489999999997 26.23574567225427,3.345693 25.527766672254273,3.247537 24.82185367225427,3.16153 24.11911567225427,3.0837149999999998 23.33861267225427,3.001604 22.54552767225427,3.049111 21.83061567225427,3.095668 21.112484672254272,3.1499639999999998 20.39209267225427,3.215841 19.67039467225427,3.297234 18.94837067225427,3.398173 18.227057672254272,3.522779 17.50758967225427,3.675258 16.79228667225427,3.859611 16.08607167225427,4.077285 15.392124672254273,4.325032 14.710397672254272,4.599594 14.040270672254271,4.897938 13.381074672254272,5.217106 12.732115672254272,5.554208 12.09270067225427,5.906416 11.462145672254271,6.27095 10.839788672254272,6.6450759999999995 10.224783672254272,7.026221 9.614469672254272,7.41345 9.007159672254271,7.809481 8.404261672254272,8.21751 7.808364672254271,8.640094000000001 7.222121672254271,9.079844000000001 6.6482606722542705,9.539413 6.089609672254273,10.02148 5.549123672254272,10.528718000000001 5.030140672254273,11.063509999999999 4.5391916722542724,11.623821 4.078812672254273,12.198753 3.643135672254271,12.776995999999999 3.000116672254272,13.656996999999999 8.40587467225427,71.004748" stroke="#c0392b" stroke-width="0.08" /><text fill="#c0392b" font-family="sans-serif" font-size="0.9" x="8.40587467225427" y="71.004748">XXL</text></svg>