<?xml version="1.0" encoding="utf-8" ?>
<svg baseProfile="full" height="74.0cm" version="1.1" viewBox="0 0 35.0 74.0" width="35.0cm" xmlns="http://www.w3.org/2000/svg" xmlns:ev="http://www.w3.org/2001/xml-events" xmlns:xlink="http://www.w3.org/1999/xlink"><defs /><text fill="#000" font-family="sans-serif" font-size="1.0" x="3.0" y="2.4">NIDO DE GRADING — ESPALDA — tallas XS, S, M, L, XL, XXL</text><polygon fill="none" points="27.0,15.204642 26.564494,14.531706 26.289561,14.106632000000001 26.014679,13.681137 25.7398,13.254893 25.464876,12.827577000000002 25.189855,12.398861 24.914688,11.968418 24.639336,11.535938999999999 24.364163,11.101711000000002 24.090873,10.666796999999999 23.821886,10.231825 23.559216,9.796755 23.304832,9.361553 23.060679,8.926226 22.82867,8.490821 22.610673,8.055416 22.4085,7.620111 22.223893,7.185013 22.058513,6.750214 21.913925,6.315761999999999 21.791591,5.881591 21.692508,5.445985 21.616116,5.005070999999999 21.560694,4.556463000000001 21.5249,4.1000239999999994 21.483436,3.0 3.0,3.0 3.0,61.0 27.0,61.0 27.0,15.204642" stroke="#8e44ad" stroke-width="0.08" /><text fill="#8e44ad" font-family="sans-serif" font-size="0.9" x="27.0" y="15.204642">XS</text><polygon fill="none" points="28.0,15.698688 27.54488,15.012025000000001 27.256334,14.57641 26.967847,14.140343999999999 26.679368,13.703479999999999 26.390845,13.265471999999999 26.102226,12.825972 25.81346,12.384633999999998 25.524504,11.941127000000002 25.235746,11.495736 24.948979,11.049512 24.666721,10.603052000000002 24.391082,10.156303999999999 24.124129,9.709222 23.867903,9.261805 23.624413,8.814093 23.39562,8.366158 23.18343,7.918096 22.989674,7.470008 22.816095,7.0219819999999995 22.664342,6.574056000000001 22.535945,6.126128 22.431893,5.67624 22.351451,5.220459 22.292833,4.756589 22.254642,4.284564 22.203386,3.0 3.0,3.0 3.0,63.0 28.0,63.0 28.0,15.698688" stroke="#2980b9" stroke-width="0.08" /><text fill="#2980b9" font-family="sans-serif" font-size="0.9" x="28.0" y="15.698688">S</text><polygon fill="none" points="29.0,16.193054 28.525513,15.492958999999999 28.223351,15.046835999999999 27.921256,14.600231999999998 27.619175,14.152781000000001 27.317053,13.704114 27.014838,13.253864 26.712473,12.801662 26.409919,12.347161 26.107582,11.890638 25.807339,11.433128 25.51181,10.975203 25.223197,10.516793 24.943662,10.057839999999999 24.675344,9.598336 24.420344,9.138312 24.180718,8.677832 23.958463,8.216985 23.755496,7.7558679999999995 23.573648,7.294560000000001 23.414646,6.833091 23.280087,6.371313000000001 23.170951,5.907038999999999 23.086323,5.4363019999999995 23.024363,4.957096999999999 22.983618,4.46941 22.921458,3.0 3.0,3.0 3.0,65.0 29.0,65.0 29.0,16.193054" stroke="#27ae60" stroke-width="0.08" /><text fill="#27ae60" font-family="sans-serif" font-size="0.9" x="29.0" y="16.193054">M</text><polygon fill="none" points="30.0,16.687717 29.506383,15.974454000000001 29.190604,15.517852999999999 28.874899,15.06074 28.559214,14.602730000000001 28.243494,14.143433000000002 27.927681,13.682459999999999 27.61172,13.219422999999999 27.295569,12.753955999999999 26.979655,12.286327 26.665939,11.817554999999999 26.357135,11.348182999999999 26.055539,10.878125 25.76341,10.407312000000001 25.482978,9.935724 25.216441,9.463383 24.965945,8.990345 24.733577,8.516691 24.521344,8.042511 24.33116,7.567874 24.164833,7.092801 24.024025,6.6170919999999995 23.909698,6.138344 23.820765,5.652578999999999 23.755334,5.157975 23.711896,4.654565 23.68894,4.142576999999999 23.680096,3.0 3.0,3.0 3.0,67.0 30.0,67.0 30.0,16.687717" stroke="#f39c12" stroke-width="0.08" /><text fill="#f39c12" font-family="sans-serif" font-size="0.9" x="30.0" y="16.687717">L</text><polygon fill="none" points="31.0,17.182656 30.487479,16.456462 30.158082,15.989408999999998 29.828767,15.521813000000002 29.499478,15.053269 29.170158,14.583366000000002 28.840748,14.111695999999998 28.511191,13.637849 28.181445,13.161439000000001 27.851955,12.682727 27.524763,12.202713 27.202679,11.721910000000001 26.888092,11.240217999999999 26.583353,10.757553000000001 26.290788,10.273885 26.012684,9.789223 25.751283,9.303616 25.508759,8.817136 25.287208,8.329863 25.088626,7.841858 24.914904,7.353128 24.767766,6.863417 24.648153,6.37012 24.554807,5.869267000000001 24.485791,5.359211 24.439538,4.840025000000001 24.414475,4.311961999999999 24.401059,3.0 3.0,3.0 3.0,69.0 31.0,69.0 31.0,17.182656" stroke="#d35400" stroke-width="0.08" /><text fill="#d35400" font-family="sans-serif" font-size="0.9" x="31.0" y="17.182656">XL</text><polygon fill="none" points="32.0,17.67785 31.468792,16.938941 31.125776,16.461457 30.78285,15.983401 30.439956,15.504345 30.097036,15.023859000000002 29.754029,14.541512999999998 29.410876,14.056875999999999 29.067534,13.569545999999999 28.724468,13.079771000000001 28.383798,12.588532 28.048428,12.096312999999999 27.720839,11.602998 27.403475,11.10849 27.098754,10.612744 26.809058,10.115761 26.536717,9.617576 26.283996,9.118254 26.053078,8.617862 25.846043,8.116453 25.664861,7.614020999999999 25.51132,7.110245000000001 25.386334,6.602335 25.288478,6.086344 25.215774,5.560791 25.166597,5.025784 25.13931,4.4816 25.120367,3.0 3.0,3.0 3.0,71.0 32.0,71.0 32.0,17.67785" stroke="#c0392b" stroke-width="0.08" /><text fill="#c0392b" font-family="sans-serif" font-size="0.9" x="32.0" y="17.67785">XXL</text></svg>