<?xml version="1.0" encoding="utf-8" ?>
<svg baseProfile="full" height="162.200601cm" version="1.1" viewBox="0 0 142.45608106254485 162.200601" width="142.45608106254485cm" xmlns="http://www.w3.org/2000/svg" xmlns:ev="http://www.w3.org/2001/xml-events" xmlns:xlink="http://www.w3.org/1999/xlink"><defs /><g fill="none" id="CONSTRUCCION" stroke="#888888" stroke-width="0.08"><line x1="5.7" x2="5.7" y1="14.200601" y2="78.200601" /><line x1="122.05661368919905" x2="122.05661368919905" y1="68.700601" y2="56.700601" /><line x1="4.0" x2="30.0" y1="90.200601" y2="90.200601" /><line x1="126.45608106254487" x2="138.45608106254485" y1="91.420601" y2="91.420601" /></g><g fill="none" id="CORTE" stroke="#d00000" stroke-width="0.08"><polygon points="3.0,79.200601 33.7,79.200601 33.7,27.314315 33.046808,26.594998 32.652387000000004,26.161412 32.255257,25.726374 31.854803999999998,25.28998 31.450122999999998,24.852003999999997 31.040312,24.412229999999997 30.624472,23.970444 30.201726999999998,23.526462 29.772268,23.081142999999997 29.339964,22.636484 28.910957,22.193191 28.490189,21.750632 28.08251,21.308277999999998 27.69276,20.865821999999998 27.325722,20.423178999999998 26.986054,19.980496 26.678181,19.538128 26.406164999999998,19.096571 26.173545,18.656317 25.98314,18.217453 25.835872,17.776063999999998 25.729221,17.323958 25.659937,16.85601 25.626215,16.371242000000002 25.626423,15.869581 25.658838,15.351552 25.721519,14.818095000000001 25.812271,14.2704 25.928653999999998,13.709775 26.068013999999998,13.137558 26.227529,12.555054 26.404249,11.963509 26.595124,11.364087 26.797038,10.757869 27.006819999999998,10.145848 27.53967,8.612904 12.860021999999999,3.0 12.193849,3.8696260000000002 11.981197,4.147831 11.768493000000001,4.42732 11.556038000000001,4.7083200000000005 11.344134,4.991061 11.133083000000001,5.275773 10.923196,5.562687 10.714781,5.8520389999999995 10.508153,6.144061 10.30363,6.438989 10.101533,6.737057 9.902187000000001,7.038502 9.705921,7.343556 9.513233,7.652189 9.325257,7.962855 9.142237999999999,8.273095999999999 8.963288,8.581596000000001 8.787294,8.887497 8.61319,9.189948000000001 8.439949,9.488112000000001 8.266591,9.781163 8.092178,10.068290999999999 7.915813,10.348707000000001 7.736634,10.621653 7.553815,10.886412 7.366548,11.142322 7.174024,11.388803000000001 6.974463,11.626519 6.765041,11.858467000000001 6.544753,12.087366 6.314362,12.314109 6.07487,12.539428000000001 5.8273410000000005,12.764090000000001 5.572895,12.988902000000001 5.328959,13.200601 3.0,13.200601 3.0,79.200601" /><polygon points="66.7,17.383257 66.187479,16.657063 65.858082,16.19001 65.528767,15.722414000000002 65.199478,15.253870000000001 64.870158,14.783967000000002 64.54074800000001,14.312297 64.211191,13.83845 63.881445,13.362040000000002 63.55195500000001,12.883328 63.224763,12.403314 62.902679000000006,11.922511000000002 62.588092,11.440819 62.283353000000005,10.958154 61.990788,10.474485999999999 61.712684,9.989823999999999 61.451283000000004,9.504217 61.208759,9.017737 60.987208,8.530463999999998 60.78862600000001,8.042459000000001 60.614904,7.553729 60.467766000000005,7.064018 60.348153,6.570721 60.254807,6.0698680000000005 60.185791,5.559812 60.139538,5.0406260000000005 60.114475,4.512562999999999 60.10105900000001,3.200601 38.7,3.200601 38.7,69.200601 66.7,69.200601 66.7,17.383257" /><polygon points="93.10898800000001,13.975992000000002 93.121408,13.431373 93.150006,12.87922 93.192988,12.320081 93.248504,11.75452 93.314651,11.183098000000001 93.389476,10.606365 93.470989,10.024852 93.55716000000001,9.439065 93.770442,8.022484 79.27199300000001,3.1011100000000003 78.64247,3.494949 78.41835400000001,3.633843 78.19675600000001,3.768589 77.97718,3.89831 77.75915,4.022175 77.54217700000001,4.139425 77.32498100000001,4.24977 77.10553300000001,4.353714 76.88293900000001,4.451702 76.657413,4.543662 76.429249,4.629487 76.19874,4.709077000000001 75.966181,4.7823340000000005 75.731871,4.849164 75.496108,4.909479 75.259191,4.963194 75.021299,5.0102530000000005 74.781827,5.050788 74.53981900000001,5.085287 74.29499200000001,5.114226 74.04736,5.138046 73.79695600000001,5.157195 73.543829,5.172135 73.288041,5.18334 73.02966,5.191302 72.768761,5.196523 72.50542,5.199524 72.239714,5.200836 71.971717,5.201009 71.7,5.2006 71.7,15.200601 93.12151,15.200601 93.10898800000001,13.975992000000002" /><polygon points="102.96747366807182,69.700601 131.78593766807182,69.700601 137.13767866807183,13.543341 136.30101866807183,12.739497 135.80608066807181,12.269568000000001 135.3017366680718,11.801941000000001 134.78608766807181,11.340622 134.25993166807183,10.890052 133.72567566807183,10.451450999999999 133.18424066807182,10.024064 132.63628166807183,9.606922 132.08243966807183,9.19905 131.52334566807184,8.799478 130.9596196680718,8.407233999999999 130.3918726680718,8.021353000000001 129.8206616680718,7.640843 129.2454206680718,7.264078 128.66392666807184,6.890549 128.0743756680718,6.522284 127.47600066807182,6.162145 126.86804466807182,5.813063 126.24972266807183,5.478017 125.62022966807183,5.160045 124.97876166807183,4.862257 124.32453866807182,4.5878440000000005 123.65691666807182,4.340118 122.97754966807182,4.123043 122.29145066807182,3.9377940000000002 121.60256866807183,3.781025 120.91236766807182,3.648494 120.22207066807182,3.5360110000000002 119.53282166807182,3.439481 118.84572666807182,3.354914 118.16188066807182,3.2784180000000003 117.39946666807182,3.197388 116.62467266807182,3.244331 115.92886266807182,3.290158 115.22976066807182,3.343607 114.52831066807182,3.408462 113.82545866807182,3.488602 113.12217266807183,3.587999 112.41948166807182,3.7107229999999998 111.71851566807182,3.860929 111.02165366807182,4.042548 110.33387066807182,4.2568850000000005 109.65832366807182,4.500664 108.99494266807181,4.770668000000001 108.34310866807182,5.063903 107.70215366807182,5.377451 107.07138466807183,5.708462 106.45011066807182,6.054152 105.83764866807182,6.411785 105.23334166807182,6.77867 104.63632566807182,7.152292 104.04391066807182,7.531831 103.45443266807182,7.920046 102.86928666807182,8.320029 102.29099166807183,8.734254 101.72212766807182,9.165246 101.16535066807182,9.615576 100.62341666807183,10.087836 100.09920766807181,10.584614 99.59599966807183,11.108187000000001 99.12024766807183,11.656366 98.67440666807182,12.218305 98.25273166807182,12.783034 97.62577666807182,13.64874 102.96747366807182,69.700601" /><polygon points="3.0,95.44972800000001 3.0298410000000002,95.75270800000001 3.132547,96.091283 3.299332,96.403316 3.5237860000000003,96.676815 3.7972850000000005,96.90126900000001 4.109318,97.068054 4.4478930000000005,97.17076 4.750873,97.200601 29.249127,97.200601 29.552107,97.17076 29.890682,97.068054 30.202715,96.90126900000001 30.476214,96.676815 30.700668,96.403316 30.867453,96.091283 30.970159,95.75270800000001 31.0,95.44972800000001 31.0,84.951474 30.970159,84.648494 30.867453,84.30991900000001 30.700668,83.99788600000001 30.476214,83.72438700000001 30.202715,83.49993300000001 29.890682,83.33314800000001 29.552107,83.23044200000001 29.249127,83.200601 4.750873,83.200601 4.4478930000000005,83.23044200000001 4.109318,83.33314800000001 3.7972850000000005,83.49993300000001 3.5237860000000003,83.72438700000001 3.299332,83.99788600000001 3.132547,84.30991900000001 3.0298410000000002,84.648494 3.0,84.951474 3.0,95.44972800000001" /><polygon points="35.0,86.849728 35.022155000000005,87.07467100000001 35.102098000000005,87.338209 35.231919000000005,87.58108700000001 35.406629,87.79397200000001 35.619514,87.968682 35.862392,88.09850300000001 36.12593,88.17844600000001 36.350873,88.200601 47.649127,88.200601 47.87407,88.17844600000001 48.137608,88.09850300000001 48.380486,87.968682 48.593371,87.79397200000001 48.768081,87.58108700000001 48.897902,87.338209 48.977845,87.07467100000001 49.0,86.849728 49.0,84.55147400000001 48.977845,84.326531 48.897902,84.062993 48.768081,83.820115 48.593371,83.60723 48.380486,83.43252000000001 48.137608,83.302699 47.87407,83.222756 47.649127,83.200601 36.350873,83.200601 36.12593,83.222756 35.862392,83.302699 35.619514,83.43252000000001 35.406629,83.60723 35.231919000000005,83.820115 35.102098000000005,84.062993 35.022155000000005,84.326531 35.0,84.55147400000001 35.0,86.849728" /><polygon points="54.862386,89.87579400000001 55.388608,89.96486300000001 55.914873,90.048849 56.441178,90.127752 56.967523,90.201569 57.493904,90.2703 58.020318,90.333944 58.546763999999996,90.39250000000001 59.07324,90.44596800000001 59.599741,90.49434500000001 60.126267,90.537632 60.652814,90.575829 61.17938,90.60893300000001 61.705962,90.63694500000001 62.232557,90.65986500000001 62.759163,90.67769200000001 63.285778,90.690426 63.812398,90.69806600000001 64.33902,90.700613 64.865643,90.69806600000001 65.392263,90.690426 65.91887700000001,90.67769200000001 66.445483,90.65986500000001 66.97207900000001,90.63694500000001 67.498661,90.60893300000001 68.025227,90.575829 68.551774,90.537632 69.078299,90.49434500000001 69.604801,90.44596800000001 70.131276,90.39250000000001 70.657722,90.333944 71.18413699999999,90.2703 71.71051800000001,90.201569 72.236862,90.127752 72.76316800000001,90.048849 73.289433,89.96486300000001 73.815654,89.87579400000001 74.178058,89.810947 76.234602,93.23852000000001 77.28981999999999,92.839537 75.479174,83.031872 73.98034799999999,83.314559 73.472623,83.40540800000001 72.96494200000001,83.49133900000001 72.457305,83.572353 71.949709,83.64845000000001 71.442151,83.719633 70.93463,83.78590200000001 70.427143,83.84725800000001 69.919687,83.90370200000001 69.41226,83.955234 68.904859,84.001857 68.397483,84.04357 67.890128,84.08037300000001 67.38279200000001,84.11226900000001 66.875472,84.139257 66.368165,84.161337 65.86087,84.17851 65.353582,84.190776 64.8463,84.198136 64.33902,84.20058900000001 63.831741,84.198136 63.324459,84.190776 62.817171,84.17851 62.309875,84.161337 61.802569,84.139257 61.295249,84.11226900000001 60.787912,84.08037300000001 60.280557,84.04357 59.773181,84.001857 59.265781,83.955234 58.758354,83.90370200000001 58.250898,83.84725800000001 57.743411,83.78590200000001 57.235889,83.719633 56.728332,83.64845000000001 56.220735,83.572353 55.713098,83.49133900000001 55.205418,83.40540800000001 54.697692,83.314559 54.0,83.18297000000001 54.0,89.718232 54.33621,89.781643 54.862386,89.87579400000001" /><polygon points="82.86929853127243,88.34442700000001 83.43573453127243,88.415301 84.00218853127244,88.482127 84.56865953127243,88.544905 85.13514653127243,88.60363500000001 85.70164853127244,88.658315 86.26816453127243,88.70894700000001 86.83469353127244,88.75552900000001 87.40123453127244,88.798061 87.96778653127244,88.836543 88.53434753127243,88.87097600000001 89.10091753127243,88.901357 89.66749553127244,88.927688 90.23407953127243,88.94996900000001 90.80066953127243,88.968199 91.36726353127243,88.982377 91.93386053127243,88.99250500000001 92.50046053127244,88.998582 93.06706053127243,89.000607 93.63366153127244,88.998582 94.20026053127243,88.99250500000001 94.76685853127243,88.982377 95.33345253127243,88.968199 95.90004253127243,88.94996900000001 96.46662653127242,88.927688 97.03320453127243,88.901357 97.59977453127243,88.87097600000001 98.16633553127244,88.836543 98.73288753127244,88.798061 99.29942753127243,88.75552900000001 99.86595653127243,88.70894700000001 100.43247253127242,88.658315 100.99897453127244,88.60363500000001 101.56546153127243,88.544905 102.13193253127244,88.482127 102.69838653127243,88.415301 103.26482353127244,88.34442700000001 103.83124053127243,88.269506 105.25608153127243,88.070851 105.25608153127243,83.051506 103.56201953127243,83.28769600000001 103.00953453127244,83.360775 102.45706953127242,83.429901 101.90462153127243,83.495075 101.35219053127244,83.556297 100.79977553127243,83.613567 100.24737553127244,83.666887 99.69498953127243,83.716255 99.14261553127244,83.761673 98.59025453127244,83.80314100000001 98.03790453127243,83.840659 97.48556353127243,83.87422600000001 96.93323153127244,83.903845 96.38090753127243,83.92951400000001 95.82858953127243,83.951233 95.27627753127243,83.969003 94.72396953127243,83.982825 94.17166453127243,83.992697 93.61936253127243,83.99862 93.06706053127243,84.000595 92.51475953127243,83.99862 91.96245653127244,83.992697 91.41015253127243,83.982825 90.85784453127243,83.969003 90.30553153127244,83.951233 89.75321453127243,83.92951400000001 89.20088953127244,83.903845 88.64855753127243,83.87422600000001 88.09621753127243,83.840659 87.54386653127243,83.80314100000001 86.99150553127244,83.761673 86.43913253127243,83.716255 85.88674653127244,83.666887 85.33434653127243,83.613567 84.78193153127243,83.556297 84.22950053127244,83.495075 83.67705253127244,83.429901 83.12458653127243,83.360775 82.57210153127244,83.28769600000001 81.87804053127243,83.190928 81.87804053127243,88.21027400000001 82.30288153127243,88.269506 82.86929853127243,88.34442700000001" /><polygon points="109.25608106254487,159.200601 117.25280806254487,159.200601 117.45556906254487,97.35830100000001 121.66963606254487,84.189344 119.16452506254487,82.936789 118.44993006254487,83.86962600000001 118.23727806254487,84.14783100000001 118.02457406254487,84.42732000000001 117.81211906254487,84.70832 117.60021506254486,84.991061 117.38916406254486,85.275773 117.17927706254487,85.56268700000001 116.97086206254487,85.852039 116.76423406254487,86.14406100000001 116.55971106254486,86.438989 116.35761406254487,86.73705700000001 116.15826806254486,87.03850200000001 115.96200206254487,87.343556 115.76931406254486,87.652189 115.58133806254487,87.962855 115.39831906254487,88.27309600000001 115.21936906254487,88.581596 115.04337506254487,88.88749700000001 114.86927106254487,89.189948 114.69603006254486,89.488112 114.52267206254487,89.781163 114.34825906254487,90.068291 114.17189406254487,90.348707 113.99271506254487,90.62165300000001 113.80989606254487,90.886412 113.62262906254487,91.14232200000001 113.43010506254487,91.38880300000001 113.23054406254487,91.626519 113.02112206254486,91.858467 112.80083406254487,92.087366 112.57044306254487,92.314109 112.33095106254487,92.539428 112.08342206254487,92.76409000000001 111.82897606254487,92.98890200000001 111.58504006254486,93.200601 109.25608106254487,93.200601 109.25608106254487,159.200601" /><polygon points="125.45608106254487,94.47250600000001 132.45608106254485,98.882506 139.45608106254485,94.47250600000001 139.45608106254485,83.200601 125.45608106254487,83.200601 125.45608106254487,94.47250600000001" /></g><g fill="none" id="COSTURA" stroke="#00a000" stroke-width="0.08"><polygon points="4.0,14.200601 5.7,14.200601 5.966455907628427,13.971419817552421 6.231687076363261,13.741240268597965 6.494468767310898,13.50906398662975 6.7535762415777425,13.273892605140903 7.007784760270197,13.034727757624546 7.255869584494667,12.790571077573796 7.496605975357553,12.540424198481778 7.728769193965255,12.283288753841614 7.951256262871314,12.018264738929135 8.164290977659935,11.745523947718501 8.368912796304867,11.465897085593138 8.566173069288537,11.18022446498681 8.757123147093363,10.889346398333291 8.94281438020177,10.594103198066351 9.124298119096178,10.295335176619758 9.302625714259008,9.993882646427288 9.478848516172683,9.690585919922706 9.654017875319624,9.386285309539783 9.829185142182252,9.081821127712288 10.005401667242992,8.778033686873997 10.183718800984263,8.475763299458674 10.365187766337147,8.175850177043525 10.550575925175462,7.8789100784295485 10.739763734964992,7.58485747511005 10.932458914863332,7.293470252062379 11.128369184028085,7.004526294263881 11.327202261616847,6.717803486691905 11.528665866787218,6.4330797143237985 11.7324677186968,6.1501328621369105 11.938315536503186,5.868740815108588 12.145917039363978,5.588681458216178 12.354979946436774,5.309732676437029 12.56521197687918,5.031672354748489 12.776320849848785,4.754278378127905 12.988014284503192,4.477328631552627 13.2,4.200601 26.27669683062202,9.200600999999999 26.061548093742914,9.819557240860085 25.849655609862342,10.4377362008285 25.64427563197882,11.054360599013563 25.4486644130909,11.668653154523605 25.266078206197097,12.279836586466951 25.099773264295937,12.887133613951923 24.953005840385963,13.489766956086852 24.829032187465696,14.086959331980065 24.731108558533666,14.677933460739881 24.66249120658841,15.26191206147463 24.626436384628448,15.83811785329264 24.626200345652318,16.405773555302233 24.665039342658545,16.964101886611736 24.746209628645666,17.512325566329476 24.872967456612198,18.049667313563777 25.048371795521792,18.57538877929568 25.271444628272715,19.089548270088233 25.537430882322454,19.59294945358619 25.841430259413332,20.086424656160084 26.178542461287698,20.570806204180435 26.54386718968788,21.046926424017787 26.932504146356216,21.515617642042667 27.33955303303504,21.9777121846256 27.76011355146668,22.434042378137114 28.189285403393487,22.88544054894775 28.622168290557784,23.332739023428026 29.053861914701912,23.77677012794848 29.47970784576319,24.218341825357363 29.898274842246916,24.65793700194372 30.310429647848995,25.09580706662766 30.71708828983823,25.532198463966683 31.119166795483427,25.967357638518273 31.51758119205339,26.40153103483991 31.91324750681694,26.834965097489086 32.307081767042874,27.267906271023282 32.7,27.700601 32.7,78.200601 4.0,78.200601" /><polygon points="38.7,4.200601 59.111232244350475,4.200601 59.11471709796919,4.541389825246822 59.14164434746853,5.10872810538982 59.19176099641321,5.671283356280909 59.26717517202554,6.228620757079004 59.36999500152782,6.780305486943024 59.50229072753629,7.325908236766366 59.66434344169669,7.865259996442918 59.85390841355888,8.398559231265693 60.0685501800716,8.926032155726201 60.30583327818357,9.447904984315961 60.56332224484354,9.964403931526494 60.83858161700023,10.475755211849311 61.129175931602376,10.982185039775935 61.4326697255987,11.483919629797873 61.74662753593795,11.981185196406651 62.068613899568845,12.474207954093776 62.396193353440125,12.963214117350772 62.72693043450053,13.448429900669145 63.058446593421294,13.930085621834783 63.389580342733275,14.408499344836683 63.720338262649406,14.88407334754608 64.05077404308335,15.357213304290477 64.38094137394884,15.828324889397384 64.71089394515957,16.297813777194285 65.0406854466292,16.76608564200869 65.37036956827144,17.233546158168096 65.7,17.700601 65.7,68.200601 38.7,68.200601" /><polygon points="71.7,6.200601 71.97128684222487,6.201008988735021 72.24250522437829,6.200834609164595 72.51358668638885,6.199495492983276 72.7844627681851,6.196409271885617 73.05506500969558,6.190993577566173 73.3253249508489,6.1826660417194965 73.59517413157357,6.170844296040141 73.8645440917982,6.1549459722226585 74.13336637145132,6.134388701961605 74.4015725104615,6.108590116951532 74.66909404875733,6.076967848886994 74.93586252626733,6.038939529462546 75.20180939230902,5.993923087553416 75.46681622670773,5.941500010953495 75.73063213963228,5.881686253356712 75.99298449056981,5.814569105016037 76.25360063900747,5.740235856184443 76.51220794443243,5.658773797114897 76.76853376633181,5.570270218060372 77.02230546419278,5.474812409273839 77.2732503975025,5.372487661008268 77.52109592574809,5.263383263516628 77.76556940841672,5.147586507051893 78.00642994983134,5.025218946931798 78.24389377150484,4.896895546290632 78.47852005864449,4.763601459914485 78.71087631815706,4.626330824950351 78.94153005694933,4.486077778545228 79.17104878192805,4.343836457846113 79.4,4.200601 92.65707358356286,8.700600999999999 92.56805383583547,9.291854426402548 92.4811422153304,9.88267303196401 92.39844684926993,10.472621995843308 92.32207586487637,11.06126649719936 92.25413738937203,11.648171715191081 92.19673954997921,12.232902828977387 92.15199047392021,12.815025017717197 92.12199828841733,13.394103460569427 92.1088711206929,13.969703336693 92.11123224435048,14.200601 71.7,14.200601" /><polygon points="98.65707358356286,13.929601000000002 99.05836764640627,13.375488917950081 99.4669057603556,12.828353279720341 99.8899319765168,12.295170529130962 100.33458866979109,11.782820824266782 100.80401660657704,11.294394864131183 101.29612982764503,10.828033722374471 101.8084901817716,10.381544952476599 102.3386595177333,9.952736107917518 102.88419968430665,9.539414742177186 103.44267253026818,9.139388408735542 104.01163990439446,8.750464661072549 104.588663655462,8.370451052668155 105.17131381788366,7.997168402204562 105.7580943938122,7.629951066283846 106.34929367124136,7.271024919239147 106.94540086719978,6.922941450198003 107.54690519871616,6.588252148287959 108.15429588281917,6.269508502636554 108.76806213653748,5.9692620023713285 109.38869317689976,5.690064136619825 110.01667822093471,5.4344663945095855 110.65250648567097,5.20502026516815 111.29666718813723,5.00427723772306 111.94949039210903,4.83413630786081 112.610337836708,4.692526552506693 113.27820706726551,4.575883933901181 113.9520949715018,4.480641718223048 114.63099843713704,4.4032331716510615 115.31391435189146,4.340091560363993 115.99983960348526,4.287650150540613 116.68777107963864,4.242342208359691 117.37670566807182,4.200601 118.05345292202887,4.272526188067285 118.72905972927083,4.348100547975701 119.40238564308258,4.430973251566381 120.07229021674907,4.524793470680456 120.73763300355516,4.633210377159058 121.39727355678578,4.759873142843318 122.05007142972582,4.9084309395743695 122.6948861756602,5.082532939193342 123.33062085359724,5.285665579775886 123.95703745254978,5.51810245973125 124.57468484561846,5.777173826559338 125.1841409677676,6.060101221453175 125.78598375396156,6.3641061856057926 126.38079113916467,6.686410260210219 126.96914105834131,7.024234986459484 127.55161144645582,7.374801905546613 128.12878023847253,7.73533255866464 128.70122536935583,8.10304848700659 129.2694999030924,8.47525067548769 129.83359871227765,8.851023102937036 130.39296606102042,9.23120852052608 130.94702285912172,9.616724278550052 131.49519001638254,10.008487727304189 132.03688844260387,10.407416217083727 132.57153904758673,10.814427098183895 133.09856274113213,11.230437720899928 133.61738043304103,11.656365435527063 134.12741303311446,12.09312759236053 134.62835096693107,12.54128571448204 135.1218272647123,12.998836608343328 135.61032671941592,13.462652543778255 136.09633775258078,13.929601000000002 130.87670566807182,68.700601 103.87670566807182,68.700601" /><polygon points="4.0,85.000601 4.015371775677416,84.8445287423871 4.060896373990971,84.69445425410794 4.134824310157963,84.55614481358432 4.234314575050762,84.43491557505077 4.355543813584319,84.33542531015797 4.493853254107928,84.26149737399098 4.643927742387097,84.21597277567743 4.800000000000001,84.200601 29.2,84.200601 29.3560722576129,84.21597277567741 29.50614674589207,84.26149737399098 29.64445618641568,84.33542531015797 29.765685424949236,84.43491557505077 29.865175689842037,84.55614481358432 29.93910362600903,84.69445425410794 29.984628224322584,84.8445287423871 30.0,85.000601 30.0,95.40060100000001 29.984628224322584,95.55667325761291 29.93910362600903,95.70674774589207 29.865175689842037,95.84505718641569 29.765685424949236,95.96628642494925 29.64445618641568,96.06577668984204 29.50614674589207,96.13970462600903 29.3560722576129,96.1852292243226 29.2,96.200601 4.800000000000001,96.200601 4.643927742387097,96.1852292243226 4.493853254107929,96.13970462600903 4.355543813584319,96.06577668984204 4.234314575050762,95.96628642494925 4.134824310157963,95.84505718641569 4.060896373990971,95.70674774589207 4.015371775677416,95.55667325761291 4.0,95.40060100000001" /><polygon points="36.0,84.60060100000001 36.007685887838704,84.52256487119355 36.030448186995486,84.44752762705397 36.06741215507898,84.37837290679217 36.11715728752538,84.3177582875254 36.17777190679216,84.26801315507899 36.246926627053966,84.23104918699549 36.321963871193546,84.20828688783871 36.4,84.200601 47.6,84.200601 47.678036128806454,84.20828688783871 47.753073372946034,84.23104918699549 47.82222809320784,84.26801315507899 47.88284271247462,84.3177582875254 47.93258784492102,84.37837290679217 47.969551813004514,84.44752762705397 47.992314112161296,84.52256487119355 48.0,84.60060100000001 48.0,86.800601 47.992314112161296,86.87863712880646 47.969551813004514,86.95367437294604 47.93258784492102,87.02282909320785 47.88284271247462,87.08344371247462 47.82222809320784,87.13318884492102 47.753073372946034,87.17015281300452 47.678036128806454,87.1929151121613 47.6,87.200601 36.4,87.200601 36.321963871193546,87.1929151121613 36.246926627053966,87.17015281300452 36.17777190679216,87.13318884492102 36.11715728752538,87.08344371247462 36.06741215507898,87.02282909320785 36.030448186995486,86.95367437294604 36.007685887838704,86.87863712880646 36.0,86.800601" /><polygon points="54.0,84.200601 54.51695101328181,84.298101 55.033902026563624,84.390601 55.550853039845435,84.47810100000001 56.06780405312724,84.560601 56.58475506640905,84.638101 57.101706079690864,84.71060100000001 57.618657092972676,84.778101 58.13560810625449,84.840601 58.6525591195363,84.89810100000001 59.169510132818104,84.950601 59.686461146099916,84.998101 60.20341215938173,85.04060100000001 60.72036317266354,85.078101 61.23731418594535,85.110601 61.75426519922716,85.138101 62.271216212508975,85.160601 62.78816722579079,85.17810100000001 63.30511823907259,85.190601 63.8220692523544,85.19810100000001 64.33902026563621,85.200601 64.85597127891802,85.19810100000001 65.37292229219983,85.190601 65.88987330548164,85.17810100000001 66.40682431876346,85.160601 66.92377533204527,85.138101 67.44072634532708,85.110601 67.95767735860889,85.078101 68.4746283718907,85.04060100000001 68.99157938517251,84.998101 69.50853039845433,84.950601 70.02548141173614,84.89810100000001 70.54243242501795,84.840601 71.05938343829976,84.778101 71.57633445158157,84.71060100000001 72.09328546486338,84.638101 72.61023647814518,84.560601 73.127187491427,84.47810100000001 73.6441385047088,84.390601 74.16108951799062,84.298101 74.67804053127243,84.200601 75.87804053127243,90.700601 74.67804053127243,88.700601 74.16108951799062,88.798101 73.6441385047088,88.890601 73.127187491427,88.97810100000001 72.61023647814518,89.060601 72.09328546486338,89.138101 71.57633445158157,89.21060100000001 71.05938343829976,89.278101 70.54243242501795,89.340601 70.02548141173614,89.39810100000001 69.50853039845433,89.450601 68.99157938517251,89.498101 68.4746283718907,89.54060100000001 67.95767735860889,89.578101 67.44072634532708,89.610601 66.92377533204527,89.638101 66.40682431876346,89.660601 65.88987330548164,89.67810100000001 65.37292229219983,89.690601 64.85597127891802,89.69810100000001 64.33902026563621,89.700601 63.8220692523544,89.69810100000001 63.30511823907259,89.690601 62.78816722579079,89.67810100000001 62.271216212508975,89.660601 61.75426519922716,89.638101 61.23731418594535,89.610601 60.72036317266354,89.578101 60.20341215938173,89.54060100000001 59.686461146099916,89.498101 59.169510132818104,89.450601 58.6525591195363,89.39810100000001 58.13560810625449,89.340601 57.618657092972676,89.278101 57.101706079690864,89.21060100000001 56.58475506640905,89.138101 56.06780405312724,89.060601 55.550853039845435,88.97810100000001 55.033902026563624,88.890601 54.51695101328181,88.798101 54.0,88.700601" /><polygon points="81.87804053127243,84.200601 82.43749154455425,84.27860100000001 82.99694255783605,84.352601 83.55639357111787,84.422601 84.11584458439968,84.488601 84.67529559768148,84.550601 85.2347466109633,84.60860100000001 85.7941976242451,84.66260100000001 86.35364863752692,84.712601 86.91309965080873,84.75860100000001 87.47255066409053,84.800601 88.03200167737235,84.83860100000001 88.59145269065417,84.872601 89.15090370393597,84.902601 89.71035471721778,84.928601 90.2698057304996,84.950601 90.8292567437814,84.968601 91.38870775706322,84.982601 91.94815877034503,84.99260100000001 92.50760978362683,84.99860100000001 93.06706079690865,85.000601 93.62651181019046,84.99860100000001 94.18596282347227,84.99260100000001 94.74541383675408,84.982601 95.30486485003588,84.968601 95.8643158633177,84.950601 96.42376687659952,84.928601 96.98321788988133,84.902601 97.54266890316313,84.872601 98.10211991644495,84.83860100000001 98.66157092972675,84.800601 99.22102194300857,84.75860100000001 99.78047295629038,84.712601 100.33992396957218,84.66260100000001 100.899374982854,84.60860100000001 101.4588259961358,84.550601 102.01827700941762,84.488601 102.57772802269943,84.422601 103.13717903598123,84.352601 103.69663004926305,84.27860100000001 104.25608106254487,84.200601 104.25608106254487,87.200601 103.69663004926305,87.27860100000001 103.13717903598123,87.352601 102.57772802269943,87.422601 102.01827700941762,87.488601 101.4588259961358,87.550601 100.899374982854,87.60860100000001 100.33992396957218,87.66260100000001 99.78047295629038,87.712601 99.22102194300857,87.758601 98.66157092972675,87.800601 98.10211991644495,87.83860100000001 97.54266890316313,87.872601 96.98321788988133,87.902601 96.42376687659952,87.928601 95.8643158633177,87.950601 95.30486485003588,87.968601 94.74541383675408,87.982601 94.18596282347227,87.99260100000001 93.62651181019046,87.99860100000001 93.06706079690865,88.000601 92.50760978362683,87.99860100000001 91.94815877034503,87.99260100000001 91.38870775706322,87.982601 90.8292567437814,87.968601 90.2698057304996,87.950601 89.71035471721778,87.928601 89.15090370393597,87.902601 88.59145269065417,87.872601 88.03200167737235,87.83860100000001 87.47255066409053,87.800601 86.91309965080873,87.758601 86.35364863752692,87.712601 85.7941976242451,87.66260100000001 85.2347466109633,87.60860100000001 84.67529559768148,87.550601 84.11584458439968,87.488601 83.55639357111787,87.422601 82.99694255783605,87.352601 82.43749154455425,87.27860100000001 81.87804053127243,87.200601" /><polygon points="110.25608106254487,94.200601 111.95608106254487,94.200601 112.2225369701733,93.97141981755243 112.48776813890812,93.74124026859798 112.75054982985577,93.50906398662976 113.00965730412261,93.2738926051409 113.26386582281506,93.03472775762455 113.51195064703954,92.7905710775738 113.75268703790242,92.54042419848179 113.98485025651013,92.28328875384162 114.20733732541618,92.01826473892913 114.4203720402048,91.74552394771851 114.62499385884973,91.46589708559314 114.8222541318334,91.18022446498682 115.01320420963823,90.8893463983333 115.19889544274663,90.59410319806636 115.38037918164105,90.29533517661976 115.55870677680387,89.9938826464273 115.73492957871755,89.69058591992271 115.91009893786449,89.38628530953979 116.08526620472712,89.08182112771229 116.26148272978786,88.778033686874 116.43979986352913,88.47576329945868 116.62126882888202,88.17585017704353 116.80665698772033,87.87891007842956 116.99584479750986,87.58485747511006 117.1885399774082,87.29347025206239 117.38445024657295,87.00452629426388 117.58328332416171,86.7178034866919 117.78474692933209,86.43307971432381 117.98854878124166,86.15013286213691 118.19439659904805,85.8687408151086 118.40199810190884,85.58868145821619 118.61106100898164,85.30973267643704 118.82129303942405,85.0316723547485 119.03240191239365,84.7542783781279 119.24409534704806,84.47732863155264 119.45608106254487,84.200601 120.45608106254487,84.700601 116.45608106254487,97.200601 116.25608106254487,158.200601 110.25608106254487,158.200601" /><polygon points="126.45608106254487,84.200601 138.45608106254485,84.200601 138.45608106254485,93.920601 132.45608106254485,97.700601 126.45608106254487,93.920601" /></g><g fill="none" id="PIQUETES" stroke="#00b0b0" stroke-width="0.08"><line x1="24.402191077384646" x2="24.494576274705825" y1="16.48280207835544" y2="17.12238395373648" /><line x1="24.868767597598104" x2="24.494576274705825" y1="16.59552452858388" y2="17.12238395373648" /><line x1="32.78480602236682" x2="32.13870719222095" y1="50.20108387688838" y2="50.21358594408295" /><line x1="32.61519397763318" x2="32.13870719222095" y1="50.65011812311162" y2="50.21358594408295" /><line x1="48.66656141777515" x2="48.95881670394997" y1="4.221881232709892" y2="4.798237761000217" /><line x1="49.14467082657533" x2="48.95881670394997" y1="4.1793207672901085" y2="4.798237761000217" /><line x1="82.14436381897518" x2="81.84440249661246" y1="14.176115549774888" y2="13.603731758000164" /><line x1="81.66686842537531" x2="81.84440249661246" y1="14.225086450225113" y2="13.603731758000164" /><line x1="126.13920915014674" x2="126.1931109317725" y1="6.6096231424030805" y2="7.253590997142407" /><line x1="126.59819436903615" x2="126.1931109317725" y1="6.750095804658241" y2="7.253590997142407" /><line x1="107.77632459088159" x2="108.18424105009322" y1="6.4191656685745055" y2="6.920368384353496" /><line x1="108.23451031464961" x2="108.18424105009322" y1="6.276106790712404" y2="6.920368384353496" /><line x1="106.26122671572078" x2="106.69605719326232" y1="7.275177122408884" y2="7.753217346449705" /><line x1="106.71086286403626" x2="106.69605719326232" y1="7.107167199701843" y2="7.753217346449705" /></g><g fill="none" id="TEXTOS" stroke="#000000" stroke-width="0.08"><text fill="#000000" font-family="sans-serif" font-size="0.9" stroke="none" text-anchor="middle" x="17.807713892877317" y="42.10039285912327">DELANTERO</text><text fill="#000000" font-family="sans-serif" font-size="0.6" stroke="none" text-anchor="middle" x="17.807713892877317" y="43.50039285912327">Pieza N.01</text><text fill="#000000" font-family="sans-serif" font-size="0.6" stroke="none" text-anchor="middle" x="17.807713892877317" y="44.900392859123265">Talla: XL</text><text fill="#000000" font-family="sans-serif" font-size="0.6" stroke="none" text-anchor="middle" x="17.807713892877317" y="46.30039285912327">Cortar: 2  (par: izq + der)</text><text fill="#000000" font-family="sans-serif" font-size="0.9" stroke="none" text-anchor="middle" x="51.835078656780965" y="33.50916030986998">ESPALDA</text><text fill="#000000" font-family="sans-serif" font-size="0.6" stroke="none" text-anchor="middle" x="51.835078656780965" y="34.90916030986998">Pieza N.02</text><text fill="#000000" font-family="sans-serif" font-size="0.6" stroke="none" text-anchor="middle" x="51.835078656780965" y="36.30916030986998">Talla: XL</text><text fill="#000000" font-family="sans-serif" font-size="0.6" stroke="none" text-anchor="middle" x="51.835078656780965" y="37.70916030986998">Cortar: 1  (al doblez)</text><text fill="#000000" font-family="sans-serif" font-size="0.6" stroke="none" text-anchor="middle" x="51.835078656780965" y="39.109160309869985">AL DOBLEZ</text><text fill="#000000" font-family="sans-serif" font-size="0.9" stroke="none" text-anchor="middle" x="81.48248774009136" y="6.4748477161335645">CANESU</text><text fill="#000000" font-family="sans-serif" font-size="0.6" stroke="none" text-anchor="middle" x="81.48248774009136" y="7.874847716133564">Pieza N.03</text><text fill="#000000" font-family="sans-serif" font-size="0.6" stroke="none" text-anchor="middle" x="81.48248774009136" y="9.274847716133564">Talla: XL</text><text fill="#000000" font-family="sans-serif" font-size="0.6" stroke="none" text-anchor="middle" x="81.48248774009136" y="10.674847716133563">Cortar: 2  (al doblez x2 (exterior+interior))</text><text fill="#000000" font-family="sans-serif" font-size="0.6" stroke="none" text-anchor="middle" x="81.48248774009136" y="12.074847716133565">AL DOBLEZ</text><text fill="#000000" font-family="sans-serif" font-size="0.9" stroke="none" text-anchor="middle" x="117.33015885346327" y="33.51270613286731">MANGA</text><text fill="#000000" font-family="sans-serif" font-size="0.6" stroke="none" text-anchor="middle" x="117.33015885346327" y="34.912706132867314">Pieza N.04</text><text fill="#000000" font-family="sans-serif" font-size="0.6" stroke="none" text-anchor="middle" x="117.33015885346327" y="36.31270613286731">Talla: XL</text><text fill="#000000" font-family="sans-serif" font-size="0.6" stroke="none" text-anchor="middle" x="117.33015885346327" y="37.71270613286731">Cortar: 2  (par: izq + der)</text><text fill="#000000" font-family="sans-serif" font-size="0.9" stroke="none" text-anchor="middle" x="17.0" y="87.500601">PUNO</text><text fill="#000000" font-family="sans-serif" font-size="0.6" stroke="none" text-anchor="middle" x="17.0" y="88.90060100000001">Pieza N.05</text><text fill="#000000" font-family="sans-serif" font-size="0.6" stroke="none" text-anchor="middle" x="17.0" y="90.300601">Talla: XL</text><text fill="#000000" font-family="sans-serif" font-size="0.6" stroke="none" text-anchor="middle" x="17.0" y="91.700601">Cortar: 4  (4 (2 tela + 2 entretela))</text><text fill="#000000" font-family="sans-serif" font-size="0.9" stroke="none" text-anchor="middle" x="42.0" y="83.000601">TAPETA MANGA</text><text fill="#000000" font-family="sans-serif" font-size="0.6" stroke="none" text-anchor="middle" x="42.0" y="84.40060100000001">Pieza N.06</text><text fill="#000000" font-family="sans-serif" font-size="0.6" stroke="none" text-anchor="middle" x="42.0" y="85.800601">Talla: XL</text><text fill="#000000" font-family="sans-serif" font-size="0.6" stroke="none" text-anchor="middle" x="42.0" y="87.200601">Cortar: 2  (par)</text><text fill="#000000" font-family="sans-serif" font-size="0.9" stroke="none" text-anchor="middle" x="64.6418400741572" y="83.53801131310958">CUELLO</text><text fill="#000000" font-family="sans-serif" font-size="0.6" stroke="none" text-anchor="middle" x="64.6418400741572" y="84.93801131310958">Pieza N.07</text><text fill="#000000" font-family="sans-serif" font-size="0.6" stroke="none" text-anchor="middle" x="64.6418400741572" y="86.33801131310959">Talla: XL</text><text fill="#000000" font-family="sans-serif" font-size="0.6" stroke="none" text-anchor="middle" x="64.6418400741572" y="87.73801131310958">Cortar: 2  (al doblez x2 (+ entretela))</text><text fill="#000000" font-family="sans-serif" font-size="0.6" stroke="none" text-anchor="middle" x="64.6418400741572" y="89.13801131310959">AL DOBLEZ</text><text fill="#000000" font-family="sans-serif" font-size="0.9" stroke="none" text-anchor="middle" x="93.06706079690865" y="82.633601">PIE DE CUELLO</text><text fill="#000000" font-family="sans-serif" font-size="0.6" stroke="none" text-anchor="middle" x="93.06706079690865" y="84.033601">Pieza N.08</text><text fill="#000000" font-family="sans-serif" font-size="0.6" stroke="none" text-anchor="middle" x="93.06706079690865" y="85.43360100000001">Talla: XL</text><text fill="#000000" font-family="sans-serif" font-size="0.6" stroke="none" text-anchor="middle" x="93.06706079690865" y="86.833601">Cortar: 2  (al doblez x2 (+ entretela))</text><text fill="#000000" font-family="sans-serif" font-size="0.6" stroke="none" text-anchor="middle" x="93.06706079690865" y="88.23360100000001">AL DOBLEZ</text><text fill="#000000" font-family="sans-serif" font-size="0.9" stroke="none" text-anchor="middle" x="113.58078756755047" y="120.65501365664079">VISTA DELANTERA</text><text fill="#000000" font-family="sans-serif" font-size="0.6" stroke="none" text-anchor="middle" x="113.58078756755047" y="122.0550136566408">Pieza N.09</text><text fill="#000000" font-family="sans-serif" font-size="0.6" stroke="none" text-anchor="middle" x="113.58078756755047" y="123.45501365664079">Talla: XL</text><text fill="#000000" font-family="sans-serif" font-size="0.6" stroke="none" text-anchor="middle" x="113.58078756755047" y="124.85501365664079">Cortar: 2  (par: izq + der)</text><text fill="#000000" font-family="sans-serif" font-size="0.9" stroke="none" text-anchor="middle" x="132.45608106254488" y="87.35688006976744">BOLSILLO</text><text fill="#000000" font-family="sans-serif" font-size="0.6" stroke="none" text-anchor="middle" x="132.45608106254488" y="88.75688006976745">Pieza N.10</text><text fill="#000000" font-family="sans-serif" font-size="0.6" stroke="none" text-anchor="middle" x="132.45608106254488" y="90.15688006976745">Talla: XL</text><text fill="#000000" font-family="sans-serif" font-size="0.6" stroke="none" text-anchor="middle" x="132.45608106254488" y="91.55688006976744">Cortar: 1  (1 (opcional))</text></g><g fill="none" id="CENTROS" stroke="#0050ff" stroke-width="0.08"><circle cx="20.55" cy="30.700601" fill="#0050ff" r="0.15" /><circle cx="122.05661368919905" cy="56.700601" fill="#0050ff" r="0.15" /></g><g fill="none" id="HILO" stroke="#c0a000" stroke-width="0.08"><line x1="19.2" x2="19.2" y1="17.200601" y2="75.200601" /><line x1="19.2" x2="19.66730201077038" y1="75.200601" y2="74.09532780719654" /><line x1="19.2" x2="18.732697989229617" y1="75.200601" y2="74.09532780719654" /><line x1="19.2" x2="18.73269798922962" y1="17.200601" y2="18.305874192803465" /><line x1="19.2" x2="19.66730201077038" y1="17.200601" y2="18.305874192803465" /><line x1="39.2" x2="39.2" y1="7.200601" y2="65.200601" /><line x1="39.2" x2="39.667302010770385" y1="65.200601" y2="64.09532780719653" /><line x1="39.2" x2="38.73269798922962" y1="65.200601" y2="64.09532780719653" /><line x1="39.2" x2="38.73269798922962" y1="7.200601" y2="8.305874192803461" /><line x1="39.2" x2="39.667302010770385" y1="7.200601" y2="8.305874192803461" /><line x1="76.32000000000001" x2="76.32000000000001" y1="5.200601" y2="13.700601" /><line x1="76.32000000000001" x2="76.78730201077039" y1="13.700601" y2="12.595327807196538" /><line x1="76.32000000000001" x2="75.85269798922963" y1="13.700601" y2="12.595327807196538" /><line x1="76.32000000000001" x2="75.85269798922963" y1="5.200601" y2="6.305874192803462" /><line x1="76.32000000000001" x2="76.78730201077039" y1="5.200601" y2="6.305874192803462" /><line x1="117.37670566807182" x2="117.37670566807182" y1="8.092201" y2="66.700601" /><line x1="117.37670566807182" x2="117.8440076788422" y1="66.700601" y2="65.59532780719654" /><line x1="117.37670566807182" x2="116.90940365730144" y1="66.700601" y2="65.59532780719654" /><line x1="117.37670566807182" x2="116.90940365730144" y1="8.092201" y2="9.197474192803462" /><line x1="117.37670566807182" x2="117.8440076788422" y1="8.092201" y2="9.197474192803462" /><line x1="17.0" x2="17.0" y1="84.700601" y2="95.700601" /><line x1="17.0" x2="17.467302010770382" y1="95.700601" y2="94.59532780719654" /><line x1="17.0" x2="16.532697989229618" y1="95.700601" y2="94.59532780719654" /><line x1="17.0" x2="16.532697989229618" y1="84.700601" y2="85.80587419280347" /><line x1="17.0" x2="17.467302010770382" y1="84.700601" y2="85.80587419280347" /><line x1="42.0" x2="42.0" y1="84.60060100000001" y2="86.800601" /><line x1="42.0" x2="42.46730201077038" y1="86.800601" y2="85.69532780719655" /><line x1="42.0" x2="41.53269798922962" y1="86.800601" y2="85.69532780719655" /><line x1="42.0" x2="41.53269798922962" y1="84.60060100000001" y2="85.70587419280346" /><line x1="42.0" x2="42.46730201077038" y1="84.60060100000001" y2="85.70587419280346" /><line x1="54.5" x2="74.17804053127243" y1="84.700601" y2="84.700601" /><line x1="74.17804053127243" x2="73.07276733846896" y1="84.700601" y2="84.23329898922962" /><line x1="74.17804053127243" x2="73.07276733846896" y1="84.700601" y2="85.16790301077039" /><line x1="54.5" x2="55.60527319280346" y1="84.700601" y2="85.16790301077039" /><line x1="54.5" x2="55.60527319280346" y1="84.700601" y2="84.23329898922962" /><line x1="82.37804053127243" x2="103.75608106254487" y1="84.60060100000001" y2="84.60060100000001" /><line x1="103.75608106254487" x2="102.6508078697414" y1="84.60060100000001" y2="84.13329898922963" /><line x1="103.75608106254487" x2="102.6508078697414" y1="84.60060100000001" y2="85.06790301077038" /><line x1="82.37804053127243" x2="83.4833137240759" y1="84.60060100000001" y2="85.06790301077038" /><line x1="82.37804053127243" x2="83.4833137240759" y1="84.60060100000001" y2="84.13329898922963" /><line x1="113.25608106254487" x2="113.25608106254487" y1="99.200601" y2="155.200601" /><line x1="113.25608106254487" x2="113.72338307331525" y1="155.200601" y2="154.09532780719655" /><line x1="113.25608106254487" x2="112.78877905177448" y1="155.200601" y2="154.09532780719655" /><line x1="113.25608106254487" x2="112.78877905177448" y1="99.200601" y2="100.30587419280347" /><line x1="113.25608106254487" x2="113.72338307331525" y1="99.200601" y2="100.30587419280347" /><line x1="132.45608106254485" x2="132.45608106254485" y1="85.200601" y2="93.920601" /><line x1="132.45608106254485" x2="132.92338307331525" y1="93.920601" y2="92.81532780719654" /><line x1="132.45608106254485" x2="131.9887790517745" y1="93.920601" y2="92.81532780719654" /><line x1="132.45608106254485" x2="131.9887790517745" y1="85.200601" y2="86.30587419280347" /><line x1="132.45608106254485" x2="132.92338307331525" y1="85.200601" y2="86.30587419280347" /></g><g fill="none" id="DOBLEZ" stroke="#c000c0" stroke-width="0.08"><line x1="38.7" x2="38.7" y1="4.200601" y2="68.200601" /><line x1="71.7" x2="71.7" y1="4.200601" y2="14.200601" /><line x1="54.0" x2="54.0" y1="84.200601" y2="90.700601" /><line x1="81.87804053127243" x2="81.87804053127243" y1="84.200601" y2="88.000601" /></g><g fill="none" id="BOTONES" stroke="#ff8000" stroke-width="0.08"><circle cx="5.7" cy="15.700601" fill="#ff8000" r="0.55" /><circle cx="5.7" cy="25.117267666666663" fill="#ff8000" r="0.55" /><circle cx="5.7" cy="34.533934333333335" fill="#ff8000" r="0.55" /><circle cx="5.7" cy="43.950601" fill="#ff8000" r="0.55" /><circle cx="5.7" cy="53.36726766666666" fill="#ff8000" r="0.55" /><circle cx="5.7" cy="62.783934333333335" fill="#ff8000" r="0.55" /><circle cx="5.7" cy="72.200601" fill="#ff8000" r="0.55" /><circle cx="5.2" cy="90.200601" fill="#ff8000" r="0.55" /><circle cx="103.25608106254487" cy="85.700601" fill="#ff8000" r="0.55" /></g><g fill="none" id="OJAL" stroke="#ff40a0" stroke-width="0.08"><line x1="4.9" x2="6.5" y1="15.700601" y2="15.700601" /><line x1="4.9" x2="6.5" y1="25.117267666666663" y2="25.117267666666663" /><line x1="4.9" x2="6.5" y1="34.533934333333335" y2="34.533934333333335" /><line x1="4.9" x2="6.5" y1="43.950601" y2="43.950601" /><line x1="4.9" x2="6.5" y1="53.36726766666666" y2="53.36726766666666" /><line x1="4.9" x2="6.5" y1="62.783934333333335" y2="62.783934333333335" /><line x1="4.9" x2="6.5" y1="72.200601" y2="72.200601" /><line x1="28.8" x2="28.8" y1="89.40060100000001" y2="91.000601" /></g><g fill="none" id="REFERENCIAS" stroke="#b0b0b0" stroke-width="0.08"><text fill="#000000" font-family="sans-serif" font-size="0.5" stroke="none" text-anchor="start" x="5.7" y="13.200601">CF</text><text fill="#000000" font-family="sans-serif" font-size="0.5" stroke="none" text-anchor="start" x="39.0" y="36.200601">CB</text><text fill="#000000" font-family="sans-serif" font-size="0.5" stroke="none" text-anchor="start" x="17.0" y="89.40060100000001">DOBLEZ</text><text fill="#000000" font-family="sans-serif" font-size="0.5" stroke="none" text-anchor="start" x="132.45608106254485" y="85.700601">boca</text></g></svg>