<?xml version="1.0" encoding="utf-8" ?>
<svg baseProfile="full" height="250.973673cm" version="1.1" viewBox="0 0 118.0 250.973673" width="118.0cm" xmlns="http://www.w3.org/2000/svg" xmlns:ev="http://www.w3.org/2001/xml-events" xmlns:xlink="http://www.w3.org/1999/xlink"><defs /><rect fill="#f7f3ea" height="242.973673" stroke="#333" stroke-width="0.15" width="110.0" x="4.0" y="4.0" /><text fill="#000" font-family="sans-serif" font-size="1.4" x="4.0" y="3.0">PLANO DE CORTE — ancho 110 cm — largo 2.43 m</text><polygon fill="#cfe3f7" fill-opacity="0.5" points="4.0,80.263812 11.996727,80.263812 12.199488,18.421512 16.413555,5.252555 13.908444,4.0 13.193849,4.932837 12.981197,5.211042 12.768493,5.490531 12.556038000000001,5.7715309999999995 12.344134,6.054272 12.133083,6.338984 11.923196,6.625897999999999 11.714781,6.91525 11.508153,7.207272 11.30363,7.5022 11.101533,7.800268 10.902187000000001,8.101713 10.705921,8.406767 10.513233,8.715399999999999 10.325257,9.026066 10.142238,9.336307 9.963288,9.644807 9.787294,9.950707999999999 9.61319,10.253159 9.439949,10.551323 9.266591,10.844373999999998 9.092178,11.131502 8.915813,11.411918 8.736634,11.684864000000001 8.553815,11.949622999999999 8.366548,12.205533 8.174024,12.452014 7.974463,12.68973 7.765041,12.921678 7.544753,13.150577 7.314362,13.37732 7.074870000000001,13.602639 6.8273410000000005,13.827301 6.572895000000001,14.052113 6.328959,14.263812 4.0,14.263812 4.0,80.263812" stroke="#1f6fb2" stroke-width="0.1" /><text fill="#0a3d62" font-family="sans-serif" font-size="1.6" text-anchor="middle" x="10.2067775" y="42.131906">09</text><polygon fill="#cfe3f7" fill-opacity="0.5" points="17.413555,80.263812 25.410282,80.263812 25.613042999999998,18.421512 29.827109999999998,5.252555 27.321998999999998,4.0 26.607404,4.932837 26.394751999999997,5.211042 26.182047999999998,5.490531 25.969593,5.7715309999999995 25.757689,6.054272 25.546637999999998,6.338984 25.336751,6.625897999999999 25.128335999999997,6.91525 24.921708,7.207272 24.717185,7.5022 24.515088,7.800268 24.315742,8.101713 24.119476,8.406767 23.926788,8.715399999999999 23.738812,9.026066 23.555793,9.336307 23.376843,9.644807 23.200848999999998,9.950707999999999 23.026745,10.253159 22.853504,10.551323 22.680146,10.844373999999998 22.505733,11.131502 22.329368,11.411918 22.150188999999997,11.684864000000001 21.96737,11.949622999999999 21.780102999999997,12.205533 21.587578999999998,12.452014 21.388018,12.68973 21.178596,12.921678 20.958308,13.150577 20.727916999999998,13.37732 20.488425,13.602639 20.240896,13.827301 19.986449999999998,14.052113 19.742514,14.263812 17.413555,14.263812 17.413555,80.263812" stroke="#1f6fb2" stroke-width="0.1" /><text fill="#0a3d62" font-family="sans-serif" font-size="1.6" text-anchor="middle" x="23.620332499999996" y="42.131906">09</text><polygon fill="#cfe3f7" fill-opacity="0.5" points="30.827109999999998,80.200601 61.52710999999999,80.200601 61.52710999999999,28.314315 60.873917999999996,27.594998 60.479496999999995,27.161412 60.082367,26.726374 59.68191399999999,26.28998 59.277232999999995,25.852003999999997 58.867422,25.412229999999997 58.451582,24.970444 58.028836999999996,24.526462 57.599378,24.081142999999997 57.167074,23.636484 56.738067,23.193191 56.317299,22.750632 55.90962,22.308277999999998 55.51987,21.865821999999998 55.152832,21.423178999999998 54.813164,20.980496 54.505291,20.538128 54.23327499999999,20.096571 54.000654999999995,19.656317 53.810249999999996,19.217453 53.662982,18.776063999999998 53.556331,18.323958 53.487047,17.85601 53.45332499999999,17.371242000000002 53.45353299999999,16.869581 53.48594799999999,16.351551999999998 53.548629,15.818095000000001 53.639381,15.2704 53.755764,14.709775 53.895123999999996,14.137558 54.054638999999995,13.555054 54.231359,12.963509 54.422233999999996,12.364087 54.624148,11.757869 54.833929999999995,11.145848 55.36678,9.612904 40.687132,4.0 40.020959,4.869626 39.808307,5.147831 39.595603,5.42732 39.383148,5.7083200000000005 39.171244,5.991061 38.960193,6.275773 38.750305999999995,6.562687 38.541891,6.8520389999999995 38.335263,7.144061 38.130739999999996,7.438989 37.928642999999994,7.737057 37.729296999999995,8.038502000000001 37.533030999999994,8.343556 37.340343,8.652189 37.152367,8.962855000000001 36.969348,9.273095999999999 36.790397999999996,9.581596000000001 36.614404,9.887497 36.4403,10.189948000000001 36.267058999999996,10.488112000000001 36.093700999999996,10.781163 35.919287999999995,11.068290999999999 35.742923,11.348707000000001 35.563744,11.621653 35.380925,11.886412 35.193658,12.142322 35.001134,12.388803000000001 34.801573,12.626519 34.592151,12.858467000000001 34.371863,13.087366 34.141472,13.314109 33.901979999999995,13.539428000000001 33.654450999999995,13.764090000000001 33.400005,13.988902000000001 33.156068999999995,14.200601 30.827109999999998,14.200601 30.827109999999998,80.200601" stroke="#1f6fb2" stroke-width="0.1" /><text fill="#0a3d62" font-family="sans-serif" font-size="1.6" text-anchor="middle" x="46.17711" y="42.1003005">01</text><polygon fill="#cfe3f7" fill-opacity="0.5" points="62.52710999999999,80.200601 93.22711,80.200601 93.22711,28.314315 92.57391799999999,27.594998 92.179497,27.161412 91.782367,26.726374 91.381914,26.28998 90.97723299999998,25.852003999999997 90.567422,25.412229999999997 90.15158199999999,24.970444 89.728837,24.526462 89.29937799999999,24.081142999999997 88.86707399999999,23.636484 88.43806699999999,23.193191 88.017299,22.750632 87.60961999999999,22.308277999999998 87.21986999999999,21.865821999999998 86.85283199999999,21.423178999999998 86.51316399999999,20.980496 86.20529099999999,20.538128 85.933275,20.096571 85.700655,19.656317 85.51024999999998,19.217453 85.36298199999999,18.776063999999998 85.25633099999999,18.323958 85.18704699999999,17.85601 85.153325,17.371242000000002 85.153533,16.869581 85.185948,16.351551999999998 85.248629,15.818095000000001 85.33938099999999,15.2704 85.45576399999999,14.709775 85.595124,14.137558 85.754639,13.555054 85.93135899999999,12.963509 86.12223399999999,12.364087 86.324148,11.757869 86.53393,11.145848 87.06678,9.612904 72.387132,4.0 71.720959,4.869626 71.50830699999999,5.147831 71.295603,5.42732 71.083148,5.7083200000000005 70.87124399999999,5.991061 70.66019299999999,6.275773 70.450306,6.562687 70.241891,6.8520389999999995 70.03526299999999,7.144061 69.83073999999999,7.438989 69.628643,7.737057 69.42929699999999,8.038502000000001 69.233031,8.343556 69.040343,8.652189 68.85236699999999,8.962855000000001 68.669348,9.273095999999999 68.490398,9.581596000000001 68.314404,9.887497 68.1403,10.189948000000001 67.96705899999999,10.488112000000001 67.793701,10.781163 67.619288,11.068290999999999 67.442923,11.348707000000001 67.26374399999999,11.621653 67.080925,11.886412 66.89365799999999,12.142322 66.701134,12.388803000000001 66.501573,12.626519 66.29215099999999,12.858467000000001 66.071863,13.087366 65.841472,13.314109 65.60198,13.539428000000001 65.354451,13.764090000000001 65.100005,13.988902000000001 64.85606899999999,14.200601 62.52710999999999,14.200601 62.52710999999999,80.200601" stroke="#1f6fb2" stroke-width="0.1" /><text fill="#0a3d62" font-family="sans-serif" font-size="1.6" text-anchor="middle" x="77.87710999999999" y="42.1003005">01</text><polygon fill="#cfe3f7" fill-opacity="0.5" points="9.341697,147.767025 38.160161,147.767025 43.511902,91.609765 42.675242,90.805921 42.180304,90.335992 41.67596,89.868365 41.160311,89.40704600000001 40.634155,88.956476 40.099899,88.517875 39.558464,88.09048800000001 39.010504999999995,87.673346 38.456663,87.265474 37.897569,86.865902 37.333843,86.473658 36.766096,86.087777 36.194885,85.707267 35.619644,85.330502 35.03815,84.956973 34.448599,84.588708 33.850224,84.22856900000001 33.242267999999996,83.879487 32.623946000000004,83.544441 31.994453,83.226469 31.352985,82.928681 30.698762,82.654268 30.03114,82.406542 29.351773,82.18946700000001 28.665674,82.004218 27.976792,81.847449 27.286590999999998,81.714918 26.596294,81.602435 25.907045,81.505905 25.21995,81.421338 24.536103999999998,81.344842 23.77369,81.263812 22.998896,81.310755 22.303086,81.356582 21.603984,81.410031 20.902534,81.474886 20.199682,81.555026 19.496395999999997,81.65442300000001 18.793705,81.777147 18.092738999999998,81.927353 17.395877,82.108972 16.708094,82.323309 16.032547,82.567088 15.369166,82.837092 14.717331999999999,83.13032700000001 14.076376999999999,83.443875 13.445608,83.774886 12.824333999999999,84.120576 12.211872,84.478209 11.607565,84.845094 11.010549,85.218716 10.418133999999998,85.598255 9.828655999999999,85.98647 9.243509999999999,86.386453 8.665215,86.800678 8.096350999999999,87.23167000000001 7.539573999999998,87.682 6.9976400000000005,88.15426000000001 6.473430999999998,88.651038 5.970223000000001,89.174611 5.494471000000001,89.72279 5.048629999999999,90.284729 4.626954999999999,90.849458 4.0,91.715164 9.341697,147.767025" stroke="#1f6fb2" stroke-width="0.1" /><text fill="#0a3d62" font-family="sans-serif" font-size="1.6" text-anchor="middle" x="23.755951" y="114.51541850000001">04</text><polygon fill="#cfe3f7" fill-opacity="0.5" points="49.853599,147.767025 78.67206300000001,147.767025 84.023804,91.609765 83.18714399999999,90.805921 82.692206,90.335992 82.187862,89.868365 81.672213,89.40704600000001 81.146057,88.956476 80.611801,88.517875 80.070366,88.09048800000001 79.52240699999999,87.673346 78.968565,87.265474 78.409471,86.865902 77.845745,86.473658 77.277998,86.087777 76.70678699999999,85.707267 76.131546,85.330502 75.550052,84.956973 74.960501,84.588708 74.36212599999999,84.22856900000001 73.75417,83.879487 73.135848,83.544441 72.506355,83.226469 71.864887,82.928681 71.210664,82.654268 70.543042,82.406542 69.863675,82.18946700000001 69.177576,82.004218 68.488694,81.847449 67.798493,81.714918 67.10819599999999,81.602435 66.418947,81.505905 65.731852,81.421338 65.048006,81.344842 64.285592,81.263812 63.510797999999994,81.310755 62.814988,81.356582 62.115886,81.410031 61.414435999999995,81.474886 60.711584,81.555026 60.008297999999996,81.65442300000001 59.305606999999995,81.777147 58.604641,81.927353 57.907779,82.108972 57.219995999999995,82.323309 56.544449,82.567088 55.881068,82.837092 55.229234,83.13032700000001 54.588279,83.443875 53.95751,83.774886 53.336236,84.120576 52.723774,84.478209 52.119467,84.845094 51.522451,85.218716 50.930036,85.598255 50.340558,85.98647 49.755412,86.386453 49.177116999999996,86.800678 48.608253,87.23167000000001 48.051475999999994,87.682 47.509541999999996,88.15426000000001 46.985333,88.651038 46.482124999999996,89.174611 46.006372999999996,89.72279 45.560531999999995,90.284729 45.138857,90.849458 44.511902,91.715164 49.853599,147.767025" stroke="#1f6fb2" stroke-width="0.1" /><text fill="#0a3d62" font-family="sans-serif" font-size="1.6" text-anchor="middle" x="64.267853" y="114.51541850000001">04</text><polygon fill="#cfe3f7" fill-opacity="0.5" points="60.0,162.949681 59.487479,162.22348699999998 59.158082,161.75643399999998 58.828767,161.288838 58.499477999999996,160.820294 58.170158,160.350391 57.840748000000005,159.87872099999998 57.511191,159.40487399999998 57.181445,158.928464 56.851955000000004,158.449752 56.524763,157.96973799999998 56.202679,157.488935 55.888092,157.007243 55.583353,156.524578 55.290788,156.04091 55.012684,155.55624799999998 54.751283,155.070641 54.508759,154.584161 54.287208,154.09688799999998 54.088626000000005,153.608883 53.914904,153.120153 53.767766,152.630442 53.648153,152.13714499999998 53.554807,151.636292 53.485791,151.12623599999998 53.439538,150.60705 53.414474999999996,150.07898699999998 53.401059000000004,148.767025 32.0,148.767025 32.0,214.767025 60.0,214.767025 60.0,162.949681 4.0,162.949681 4.512521,162.22348699999998 4.841918,161.75643399999998 5.171233000000001,161.288838 5.500522,160.820294 5.829841999999999,160.350391 6.159251999999999,159.87872099999998 6.488809,159.40487399999998 6.818555,158.928464 7.148045,158.449752 7.475237,157.96973799999998 7.797321,157.488935 8.111908,157.007243 8.416647000000001,156.524578 8.709212,156.04091 8.987316,155.55624799999998 9.248717,155.070641 9.491240999999999,154.584161 9.712792,154.09688799999998 9.911373999999999,153.608883 10.085096,153.120153 10.232233999999998,152.630442 10.351847,152.13714499999998 10.445193,151.636292 10.514209000000001,151.12623599999998 10.560462000000001,150.60705 10.585525,150.07898699999998 10.598941,148.767025 32.0,148.767025 32.0,214.767025 4.0,214.767025 4.0,162.949681" stroke="#1f6fb2" stroke-width="0.1" /><text fill="#0a3d62" font-family="sans-serif" font-size="1.6" text-anchor="middle" x="32.0" y="181.767025">02</text><polygon fill="#cfe3f7" fill-opacity="0.5" points="61.0,160.03893 68.0,164.44893 75.0,160.03893 75.0,148.767025 61.0,148.767025 61.0,160.03893" stroke="#1f6fb2" stroke-width="0.1" /><text fill="#0a3d62" font-family="sans-serif" font-size="1.6" text-anchor="middle" x="68.0" y="156.6079775">10</text><polygon fill="#cfe3f7" fill-opacity="0.5" points="76.0,161.01615199999998 76.029841,161.319132 76.132547,161.657707 76.299332,161.96974 76.523786,162.243239 76.797285,162.467693 77.109318,162.634478 77.447893,162.73718399999998 77.750873,162.767025 102.249127,162.767025 102.552107,162.73718399999998 102.890682,162.634478 103.202715,162.467693 103.476214,162.243239 103.70066800000001,161.96974 103.867453,161.657707 103.970159,161.319132 104.0,161.01615199999998 104.0,150.517898 103.970159,150.21491799999998 103.867453,149.876343 103.70066800000001,149.56430999999998 103.476214,149.290811 103.202715,149.06635699999998 102.890682,148.89957199999998 102.552107,148.796866 102.249127,148.767025 77.750873,148.767025 77.447893,148.796866 77.109318,148.89957199999998 76.797285,149.06635699999998 76.523786,149.290811 76.299332,149.56430999999998 76.132547,149.876343 76.029841,150.21491799999998 76.0,150.517898 76.0,161.01615199999998" stroke="#1f6fb2" stroke-width="0.1" /><text fill="#0a3d62" font-family="sans-serif" font-size="1.6" text-anchor="middle" x="90.0" y="155.767025">05</text><polygon fill="#cfe3f7" fill-opacity="0.5" points="4.0,228.01615199999998 4.029841,228.319132 4.132547,228.657707 4.299332,228.96974 4.523786,229.243239 4.7972850000000005,229.467693 5.109318,229.634478 5.4478930000000005,229.73718399999998 5.750873,229.767025 30.249127,229.767025 30.552107,229.73718399999998 30.890682,229.634478 31.202715,229.467693 31.476214,229.243239 31.700668,228.96974 31.867453,228.657707 31.970159,228.319132 32.0,228.01615199999998 32.0,217.517898 31.970159,217.21491799999998 31.867453,216.876343 31.700668,216.56430999999998 31.476214,216.290811 31.202715,216.06635699999998 30.890682,215.89957199999998 30.552107,215.796866 30.249127,215.767025 5.750873,215.767025 5.4478930000000005,215.796866 5.109318,215.89957199999998 4.7972850000000005,216.06635699999998 4.523786,216.290811 4.299332,216.56430999999998 4.132547,216.876343 4.029841,217.21491799999998 4.0,217.517898 4.0,228.01615199999998" stroke="#1f6fb2" stroke-width="0.1" /><text fill="#0a3d62" font-family="sans-serif" font-size="1.6" text-anchor="middle" x="18.0" y="222.767025">05</text><polygon fill="#cfe3f7" fill-opacity="0.5" points="76.47943000000001,226.641907 76.49185,226.097288 76.520448,225.545135 76.56343,224.985996 76.618946,224.420435 76.685093,223.84901299999999 76.759918,223.27228 76.841431,222.690767 76.92760200000001,222.10497999999998 77.140884,220.688399 62.642435,215.767025 62.012912,216.160864 61.788796,216.299758 61.567198000000005,216.43450399999998 61.347622,216.564225 61.129592,216.68809 60.912619,216.80534 60.695423,216.915685 60.475975,217.01962899999998 60.253381000000005,217.117617 60.027855,217.209577 59.799690999999996,217.295402 59.569182,217.374992 59.336623,217.44824899999998 59.102312999999995,217.515079 58.866550000000004,217.575394 58.629633,217.629109 58.391740999999996,217.676168 58.152269000000004,217.716703 57.910261,217.75120199999998 57.665434000000005,217.780141 57.417802,217.803961 57.167398,217.82310999999999 56.914271,217.83804999999998 56.658483000000004,217.849255 56.400102000000004,217.857217 56.139202999999995,217.862438 55.875862,217.86543899999998 55.610156,217.866751 55.342158999999995,217.86692399999998 55.070442,217.866515 55.070442,227.866516 76.491952,227.866516 76.47943000000001,226.641907 33.661454,226.641907 33.649034,226.097288 33.620436,225.545135 33.577454,224.985996 33.521938,224.420435 33.455791000000005,223.84901299999999 33.380966,223.27228 33.299453,222.690767 33.213282,222.10497999999998 33.0,220.688399 47.498449,215.767025 48.127972,216.160864 48.352088,216.299758 48.573685999999995,216.43450399999998 48.793262,216.564225 49.011292,216.68809 49.228265,216.80534 49.445461,216.915685 49.664909,217.01962899999998 49.887502999999995,217.117617 50.113029,217.209577 50.341193000000004,217.295402 50.571702,217.374992 50.804261,217.44824899999998 51.038571000000005,217.515079 51.274333999999996,217.575394 51.511251,217.629109 51.749143000000004,217.676168 51.988614999999996,217.716703 52.230623,217.75120199999998 52.475449999999995,217.780141 52.723082,217.803961 52.973486,217.82310999999999 53.226613,217.83804999999998 53.482400999999996,217.849255 53.740781999999996,217.857217 54.001681000000005,217.862438 54.265022,217.86543899999998 54.530727999999996,217.866751 54.798725000000005,217.86692399999998 55.070442,217.866515 55.070442,227.866516 33.648932,227.866516 33.661454,226.641907" stroke="#1f6fb2" stroke-width="0.1" /><text fill="#0a3d62" font-family="sans-serif" font-size="1.6" text-anchor="middle" x="55.070442" y="221.8167705">03</text><polygon fill="#cfe3f7" fill-opacity="0.5" points="28.152206,237.61094699999998 28.678428,237.70001599999998 29.204693,237.784002 29.730998,237.86290499999998 30.257343,237.936722 30.783724,238.005453 31.310138,238.069097 31.836584,238.12765299999998 32.36306,238.181121 32.889561,238.22949799999998 33.416087,238.272785 33.942634,238.310982 34.4692,238.34408599999998 34.995782,238.372098 35.522377,238.395018 36.048983,238.41284499999998 36.575598,238.425579 37.102218,238.43321899999998 37.62884,238.435766 38.155463,238.43321899999998 38.682083,238.425579 39.208697,238.41284499999998 39.735303,238.395018 40.261899,238.372098 40.788481,238.34408599999998 41.315047,238.310982 41.841594,238.272785 42.368119,238.22949799999998 42.894621,238.181121 43.421096,238.12765299999998 43.947542,238.069097 44.473957,238.005453 45.000338,237.936722 45.526681999999994,237.86290499999998 46.052988,237.784002 46.579252999999994,237.70001599999998 47.105474,237.61094699999998 47.467878,237.5461 49.524422,240.973673 50.57964,240.57468999999998 48.768994,230.767025 47.270168,231.049712 46.762443,231.140561 46.254762,231.22649199999998 45.747125,231.307506 45.239529,231.383603 44.731971,231.45478599999998 44.22445,231.521055 43.716963,231.58241099999998 43.209507,231.63885499999998 42.702079999999995,231.690387 42.194679,231.73701 41.687303,231.77872299999999 41.179947999999996,231.81552599999998 40.672612,231.847422 40.165292,231.87440999999998 39.657985,231.89649 39.15069,231.91366299999999 38.643401999999995,231.925929 38.13612,231.933289 37.62884,231.93574199999998 37.121561,231.933289 36.614278999999996,231.925929 36.106991,231.91366299999999 35.599695,231.89649 35.092389,231.87440999999998 34.585069,231.847422 34.077732,231.81552599999998 33.570377,231.77872299999999 33.063001,231.73701 32.555600999999996,231.690387 32.048174,231.63885499999998 31.540718,231.58241099999998 31.033231,231.521055 30.525709,231.45478599999998 30.018152,231.383603 29.510555,231.307506 29.002917999999998,231.22649199999998 28.495238,231.140561 27.987512,231.049712 27.28982,230.91812299999998 27.28982,237.453385 27.62603,237.516796 28.152206,237.61094699999998 26.427433999999998,237.61094699999998 25.901211999999997,237.70001599999998 25.374947,237.784002 24.848641999999998,237.86290499999998 24.322297,237.936722 23.795916,238.005453 23.269502,238.069097 22.743056,238.12765299999998 22.21658,238.181121 21.690078999999997,238.22949799999998 21.163553,238.272785 20.637006,238.310982 20.110439999999997,238.34408599999998 19.583858,238.372098 19.057263,238.395018 18.530656999999998,238.41284499999998 18.004042,238.425579 17.477421999999997,238.43321899999998 16.9508,238.435766 16.424177,238.43321899999998 15.897556999999999,238.425579 15.370942999999999,238.41284499999998 14.844337,238.395018 14.317740999999998,238.372098 13.791158999999999,238.34408599999998 13.264593,238.310982 12.738045999999999,238.272785 12.211521,238.22949799999998 11.685018999999999,238.181121 11.158544,238.12765299999998 10.632098,238.069097 10.105682999999999,238.005453 9.579301999999998,237.936722 9.052958,237.86290499999998 8.526651999999999,237.784002 8.000387,237.70001599999998 7.474166,237.61094699999998 7.111761999999999,237.5461 5.055218,240.973673 4.0,240.57468999999998 5.810645999999998,230.767025 7.3094719999999995,231.049712 7.817197,231.140561 8.324877999999998,231.22649199999998 8.832514999999997,231.307506 9.340111,231.383603 9.847669,231.45478599999998 10.35519,231.521055 10.862676999999998,231.58241099999998 11.370133,231.63885499999998 11.877559999999999,231.690387 12.384960999999999,231.73701 12.892337,231.77872299999999 13.399691999999998,231.81552599999998 13.907027999999999,231.847422 14.414347999999999,231.87440999999998 14.921655,231.89649 15.428949999999999,231.91366299999999 15.936238,231.925929 16.44352,231.933289 16.9508,231.93574199999998 17.458078999999998,231.933289 17.965361,231.925929 18.472648999999997,231.91366299999999 18.979945,231.89649 19.487251,231.87440999999998 19.994571,231.847422 20.501908,231.81552599999998 21.009262999999997,231.77872299999999 21.516638999999998,231.73701 22.024039,231.690387 22.531465999999998,231.63885499999998 23.038922,231.58241099999998 23.546408999999997,231.521055 24.053931,231.45478599999998 24.561487999999997,231.383603 25.069084999999998,231.307506 25.576722,231.22649199999998 26.084401999999997,231.140561 26.592128,231.049712 27.28982,230.91812299999998 27.28982,237.453385 26.953609999999998,237.516796 26.427433999999998,237.61094699999998" stroke="#1f6fb2" stroke-width="0.1" /><text fill="#0a3d62" font-family="sans-serif" font-size="1.6" text-anchor="middle" x="27.28982" y="235.87034899999998">07</text><polygon fill="#cfe3f7" fill-opacity="0.5" points="75.948939,236.059946 76.515375,236.13082 77.081829,236.197646 77.6483,236.260424 78.214787,236.319154 78.781289,236.373834 79.347805,236.424466 79.914334,236.471048 80.480875,236.51358 81.047427,236.55206199999998 81.613988,236.58649499999999 82.18055799999999,236.616876 82.747136,236.643207 83.31371999999999,236.66548799999998 83.88031,236.683718 84.44690399999999,236.697896 85.01350099999999,236.708024 85.580101,236.714101 86.146701,236.716126 86.713302,236.714101 87.279901,236.708024 87.846499,236.697896 88.413093,236.683718 88.979683,236.66548799999998 89.546267,236.643207 90.112845,236.616876 90.679415,236.58649499999999 91.245976,236.55206199999998 91.812528,236.51358 92.37906799999999,236.471048 92.94559699999999,236.424466 93.512113,236.373834 94.078615,236.319154 94.645102,236.260424 95.211573,236.197646 95.778027,236.13082 96.344464,236.059946 96.91088099999999,235.98502499999998 98.335722,235.78636999999998 98.335722,230.767025 96.64166,231.00321499999998 96.089175,231.076294 95.53671,231.14542 94.984262,231.210594 94.431831,231.271816 93.87941599999999,231.329086 93.327016,231.382406 92.77463,231.431774 92.222256,231.477192 91.669895,231.51865999999998 91.11754499999999,231.556178 90.565204,231.589745 90.012872,231.619364 89.46054799999999,231.64503299999998 88.90823,231.666752 88.355918,231.684522 87.80360999999999,231.698344 87.251305,231.708216 86.699003,231.714139 86.146701,231.71611399999998 85.5944,231.714139 85.042097,231.708216 84.48979299999999,231.698344 83.937485,231.684522 83.385172,231.666752 82.832855,231.64503299999998 82.28053,231.619364 81.72819799999999,231.589745 81.175858,231.556178 80.62350699999999,231.51865999999998 80.071146,231.477192 79.518773,231.431774 78.966387,231.382406 78.41398699999999,231.329086 77.861572,231.271816 77.309141,231.210594 76.756693,231.14542 76.204227,231.076294 75.651742,231.00321499999998 74.957681,230.906447 74.957681,235.925793 75.382522,235.98502499999998 75.948939,236.059946 73.96642299999999,236.059946 73.399987,236.13082 72.83353299999999,236.197646 72.267062,236.260424 71.700575,236.319154 71.134073,236.373834 70.567557,236.424466 70.00102799999999,236.471048 69.43448699999999,236.51358 68.86793499999999,236.55206199999998 68.301374,236.58649499999999 67.734804,236.616876 67.168226,236.643207 66.601642,236.66548799999998 66.035052,236.683718 65.468458,236.697896 64.901861,236.708024 64.335261,236.714101 63.768660999999994,236.716126 63.202059999999996,236.714101 62.635461,236.708024 62.06886299999999,236.697896 61.502269,236.683718 60.93567899999999,236.66548799999998 60.369095,236.643207 59.802516999999995,236.616876 59.235946999999996,236.58649499999999 58.669385999999996,236.55206199999998 58.102834,236.51358 57.536294,236.471048 56.969764999999995,236.424466 56.403249,236.373834 55.836747,236.319154 55.27025999999999,236.260424 54.703789,236.197646 54.13733499999999,236.13082 53.570898,236.059946 53.004481,235.98502499999998 51.57964,235.78636999999998 51.57964,230.767025 53.273702,231.00321499999998 53.826187,231.076294 54.378652,231.14542 54.9311,231.210594 55.483531,231.271816 56.035945999999996,231.329086 56.588346,231.382406 57.140732,231.431774 57.693106,231.477192 58.245467,231.51865999999998 58.797816999999995,231.556178 59.35015799999999,231.589745 59.90249,231.619364 60.454814,231.64503299999998 61.007132,231.666752 61.559444,231.684522 62.111751999999996,231.698344 62.664057,231.708216 63.216359,231.714139 63.768660999999994,231.71611399999998 64.320962,231.714139 64.873265,231.708216 65.425569,231.698344 65.97787699999999,231.684522 66.53019,231.666752 67.08250699999999,231.64503299999998 67.63483199999999,231.619364 68.187164,231.589745 68.739504,231.556178 69.291855,231.51865999999998 69.84421599999999,231.477192 70.396589,231.431774 70.94897499999999,231.382406 71.501375,231.329086 72.05378999999999,231.271816 72.606221,231.210594 73.158669,231.14542 73.711135,231.076294 74.26362,231.00321499999998 74.957681,230.906447 74.957681,235.925793 74.53284,235.98502499999998 73.96642299999999,236.059946" stroke="#1f6fb2" stroke-width="0.1" /><text fill="#0a3d62" font-family="sans-serif" font-size="1.6" text-anchor="middle" x="74.957681" y="233.74157549999998">08</text><polygon fill="#cfe3f7" fill-opacity="0.5" points="99.335722,234.41615199999998 99.357877,234.64109499999998 99.43782,234.904633 99.56764100000001,235.14751099999998 99.742351,235.36039599999998 99.955236,235.53510599999998 100.198114,235.66492699999998 100.461652,235.74487 100.68659500000001,235.767025 111.984849,235.767025 112.20979200000001,235.74487 112.47333,235.66492699999998 112.71620800000001,235.53510599999998 112.92909300000001,235.36039599999998 113.103803,235.14751099999998 113.233624,234.904633 113.313567,234.64109499999998 113.335722,234.41615199999998 113.335722,232.117898 113.313567,231.892955 113.233624,231.629417 113.103803,231.386539 112.92909300000001,231.173654 112.71620800000001,230.998944 112.47333,230.869123 112.20979200000001,230.78918 111.984849,230.767025 100.68659500000001,230.767025 100.461652,230.78918 100.198114,230.869123 99.955236,230.998944 99.742351,231.173654 99.56764100000001,231.386539 99.43782,231.629417 99.357877,231.892955 99.335722,232.117898 99.335722,234.41615199999998" stroke="#1f6fb2" stroke-width="0.1" /><text fill="#0a3d62" font-family="sans-serif" font-size="1.6" text-anchor="middle" x="106.335722" y="233.267025">06</text><polygon fill="#cfe3f7" fill-opacity="0.5" points="4.0,245.62279999999998 4.022155,245.84774299999998 4.102098,246.111281 4.2319189999999995,246.35415899999998 4.406629,246.56704399999998 4.619514,246.741754 4.862392,246.87157499999998 5.12593,246.951518 5.350873,246.973673 16.649127,246.973673 16.87407,246.951518 17.137608,246.87157499999998 17.380485999999998,246.741754 17.593370999999998,246.56704399999998 17.768081000000002,246.35415899999998 17.897902000000002,246.111281 17.977845000000002,245.84774299999998 18.0,245.62279999999998 18.0,243.324546 17.977845000000002,243.099603 17.897902000000002,242.836065 17.768081000000002,242.593187 17.593370999999998,242.380302 17.380485999999998,242.205592 17.137608,242.075771 16.87407,241.995828 16.649127,241.973673 5.350873,241.973673 5.12593,241.995828 4.862392,242.075771 4.619514,242.205592 4.406629,242.380302 4.2319189999999995,242.593187 4.102098,242.836065 4.022155,243.099603 4.0,243.324546 4.0,245.62279999999998" stroke="#1f6fb2" stroke-width="0.1" /><text fill="#0a3d62" font-family="sans-serif" font-size="1.6" text-anchor="middle" x="11.0" y="244.473673">06</text></svg>