<?xml version="1.0" encoding="utf-8" ?>
<svg baseProfile="full" height="173.716126cm" version="1.1" viewBox="0 0 168.0 173.716126" width="168.0cm" xmlns="http://www.w3.org/2000/svg" xmlns:ev="http://www.w3.org/2001/xml-events" xmlns:xlink="http://www.w3.org/1999/xlink"><defs /><rect fill="#f7f3ea" height="165.716126" stroke="#333" stroke-width="0.15" width="160.0" x="4.0" y="4.0" /><text fill="#000" font-family="sans-serif" font-size="1.4" x="4.0" y="3.0">PLANO DE CORTE — ancho 160 cm — largo 1.66 m</text><polygon fill="#cfe3f7" fill-opacity="0.5" points="4.0,80.263812 11.996727,80.263812 12.199488,18.421512 16.413555,5.252555 13.908444,4.0 13.193849,4.932837 12.981197,5.211042 12.768493,5.490531 12.556038000000001,5.7715309999999995 12.344134,6.054272 12.133083,6.338984 11.923196,6.625897999999999 11.714781,6.91525 11.508153,7.207272 11.30363,7.5022 11.101533,7.800268 10.902187000000001,8.101713 10.705921,8.406767 10.513233,8.715399999999999 10.325257,9.026066 10.142238,9.336307 9.963288,9.644807 9.787294,9.950707999999999 9.61319,10.253159 9.439949,10.551323 9.266591,10.844373999999998 9.092178,11.131502 8.915813,11.411918 8.736634,11.684864000000001 8.553815,11.949622999999999 8.366548,12.205533 8.174024,12.452014 7.974463,12.68973 7.765041,12.921678 7.544753,13.150577 7.314362,13.37732 7.074870000000001,13.602639 6.8273410000000005,13.827301 6.572895000000001,14.052113 6.328959,14.263812 4.0,14.263812 4.0,80.263812" stroke="#1f6fb2" stroke-width="0.1" /><text fill="#0a3d62" font-family="sans-serif" font-size="1.6" text-anchor="middle" x="10.2067775" y="42.131906">09</text><polygon fill="#cfe3f7" fill-opacity="0.5" points="17.413555,80.263812 25.410282,80.263812 25.613042999999998,18.421512 29.827109999999998,5.252555 27.321998999999998,4.0 26.607404,4.932837 26.394751999999997,5.211042 26.182047999999998,5.490531 25.969593,5.7715309999999995 25.757689,6.054272 25.546637999999998,6.338984 25.336751,6.625897999999999 25.128335999999997,6.91525 24.921708,7.207272 24.717185,7.5022 24.515088,7.800268 24.315742,8.101713 24.119476,8.406767 23.926788,8.715399999999999 23.738812,9.026066 23.555793,9.336307 23.376843,9.644807 23.200848999999998,9.950707999999999 23.026745,10.253159 22.853504,10.551323 22.680146,10.844373999999998 22.505733,11.131502 22.329368,11.411918 22.150188999999997,11.684864000000001 21.96737,11.949622999999999 21.780102999999997,12.205533 21.587578999999998,12.452014 21.388018,12.68973 21.178596,12.921678 20.958308,13.150577 20.727916999999998,13.37732 20.488425,13.602639 20.240896,13.827301 19.986449999999998,14.052113 19.742514,14.263812 17.413555,14.263812 17.413555,80.263812" stroke="#1f6fb2" stroke-width="0.1" /><text fill="#0a3d62" font-family="sans-serif" font-size="1.6" text-anchor="middle" x="23.620332499999996" y="42.131906">09</text><polygon fill="#cfe3f7" fill-opacity="0.5" points="30.827109999999998,80.200601 61.52710999999999,80.200601 61.52710999999999,28.314315 60.873917999999996,27.594998 60.479496999999995,27.161412 60.082367,26.726374 59.68191399999999,26.28998 59.277232999999995,25.852003999999997 58.867422,25.412229999999997 58.451582,24.970444 58.028836999999996,24.526462 57.599378,24.081142999999997 57.167074,23.636484 56.738067,23.193191 56.317299,22.750632 55.90962,22.308277999999998 55.51987,21.865821999999998 55.152832,21.423178999999998 54.813164,20.980496 54.505291,20.538128 54.23327499999999,20.096571 54.000654999999995,19.656317 53.810249999999996,19.217453 53.662982,18.776063999999998 53.556331,18.323958 53.487047,17.85601 53.45332499999999,17.371242000000002 53.45353299999999,16.869581 53.48594799999999,16.351551999999998 53.548629,15.818095000000001 53.639381,15.2704 53.755764,14.709775 53.895123999999996,14.137558 54.054638999999995,13.555054 54.231359,12.963509 54.422233999999996,12.364087 54.624148,11.757869 54.833929999999995,11.145848 55.36678,9.612904 40.687132,4.0 40.020959,4.869626 39.808307,5.147831 39.595603,5.42732 39.383148,5.7083200000000005 39.171244,5.991061 38.960193,6.275773 38.750305999999995,6.562687 38.541891,6.8520389999999995 38.335263,7.144061 38.130739999999996,7.438989 37.928642999999994,7.737057 37.729296999999995,8.038502000000001 37.533030999999994,8.343556 37.340343,8.652189 37.152367,8.962855000000001 36.969348,9.273095999999999 36.790397999999996,9.581596000000001 36.614404,9.887497 36.4403,10.189948000000001 36.267058999999996,10.488112000000001 36.093700999999996,10.781163 35.919287999999995,11.068290999999999 35.742923,11.348707000000001 35.563744,11.621653 35.380925,11.886412 35.193658,12.142322 35.001134,12.388803000000001 34.801573,12.626519 34.592151,12.858467000000001 34.371863,13.087366 34.141472,13.314109 33.901979999999995,13.539428000000001 33.654450999999995,13.764090000000001 33.400005,13.988902000000001 33.156068999999995,14.200601 30.827109999999998,14.200601 30.827109999999998,80.200601" stroke="#1f6fb2" stroke-width="0.1" /><text fill="#0a3d62" font-family="sans-serif" font-size="1.6" text-anchor="middle" x="46.17711" y="42.1003005">01</text><polygon fill="#cfe3f7" fill-opacity="0.5" points="62.52710999999999,80.200601 93.22711,80.200601 93.22711,28.314315 92.57391799999999,27.594998 92.179497,27.161412 91.782367,26.726374 91.381914,26.28998 90.97723299999998,25.852003999999997 90.567422,25.412229999999997 90.15158199999999,24.970444 89.728837,24.526462 89.29937799999999,24.081142999999997 88.86707399999999,23.636484 88.43806699999999,23.193191 88.017299,22.750632 87.60961999999999,22.308277999999998 87.21986999999999,21.865821999999998 86.85283199999999,21.423178999999998 86.51316399999999,20.980496 86.20529099999999,20.538128 85.933275,20.096571 85.700655,19.656317 85.51024999999998,19.217453 85.36298199999999,18.776063999999998 85.25633099999999,18.323958 85.18704699999999,17.85601 85.153325,17.371242000000002 85.153533,16.869581 85.185948,16.351551999999998 85.248629,15.818095000000001 85.33938099999999,15.2704 85.45576399999999,14.709775 85.595124,14.137558 85.754639,13.555054 85.93135899999999,12.963509 86.12223399999999,12.364087 86.324148,11.757869 86.53393,11.145848 87.06678,9.612904 72.387132,4.0 71.720959,4.869626 71.50830699999999,5.147831 71.295603,5.42732 71.083148,5.7083200000000005 70.87124399999999,5.991061 70.66019299999999,6.275773 70.450306,6.562687 70.241891,6.8520389999999995 70.03526299999999,7.144061 69.83073999999999,7.438989 69.628643,7.737057 69.42929699999999,8.038502000000001 69.233031,8.343556 69.040343,8.652189 68.85236699999999,8.962855000000001 68.669348,9.273095999999999 68.490398,9.581596000000001 68.314404,9.887497 68.1403,10.189948000000001 67.96705899999999,10.488112000000001 67.793701,10.781163 67.619288,11.068290999999999 67.442923,11.348707000000001 67.26374399999999,11.621653 67.080925,11.886412 66.89365799999999,12.142322 66.701134,12.388803000000001 66.501573,12.626519 66.29215099999999,12.858467000000001 66.071863,13.087366 65.841472,13.314109 65.60198,13.539428000000001 65.354451,13.764090000000001 65.100005,13.988902000000001 64.85606899999999,14.200601 62.52710999999999,14.200601 62.52710999999999,80.200601" stroke="#1f6fb2" stroke-width="0.1" /><text fill="#0a3d62" font-family="sans-serif" font-size="1.6" text-anchor="middle" x="77.87710999999999" y="42.1003005">01</text><polygon fill="#cfe3f7" fill-opacity="0.5" points="99.56880699999999,70.503213 128.387271,70.503213 133.739012,14.345953 132.902352,13.542109 132.407414,13.072180000000001 131.90307,12.604553000000001 131.387421,12.143234 130.861265,11.692664 130.327009,11.254062999999999 129.785574,10.826675999999999 129.237615,10.409534 128.683773,10.001662 128.124679,9.60209 127.560953,9.209845999999999 126.99320599999999,8.823965000000001 126.421995,8.443455 125.846754,8.06669 125.26526,7.693161 124.675709,7.324896 124.077334,6.964757 123.46937799999999,6.6156749999999995 122.851056,6.280629 122.221563,5.962657 121.580095,5.6648689999999995 120.925872,5.390456 120.25825,5.14273 119.57888299999999,4.925655 118.89278399999999,4.740406 118.203902,4.5836369999999995 117.513701,4.451106 116.823404,4.338623 116.13415499999999,4.242093 115.44706,4.157526 114.76321399999999,4.08103 114.0008,4.0 113.226006,4.046943 112.53019599999999,4.09277 111.831094,4.146219 111.129644,4.211074 110.42679199999999,4.291214 109.723506,4.390611 109.020815,4.513335 108.31984899999999,4.663541 107.622987,4.84516 106.935204,5.059497 106.25965699999999,5.303276 105.59627599999999,5.5732800000000005 104.944442,5.866515 104.30348699999999,6.180063 103.672718,6.511074 103.05144399999999,6.856764 102.438982,7.214397 101.83467499999999,7.581282 101.237659,7.954904 100.64524399999999,8.334443 100.05576599999999,8.722658 99.47062,9.122641 98.892325,9.536866 98.323461,9.967858 97.766684,10.418188 97.22475,10.890448 96.70054099999999,11.387226 96.197333,11.910799 95.721581,12.458978 95.27574,13.020917 94.85406499999999,13.585646 94.22711,14.451352 99.56880699999999,70.503213" stroke="#1f6fb2" stroke-width="0.1" /><text fill="#0a3d62" font-family="sans-serif" font-size="1.6" text-anchor="middle" x="113.98306099999999" y="37.2516065">04</text><polygon fill="#cfe3f7" fill-opacity="0.5" points="9.341697,147.767025 38.160161,147.767025 43.511902,91.609765 42.675242,90.805921 42.180304,90.335992 41.67596,89.868365 41.160311,89.40704600000001 40.634155,88.956476 40.099899,88.517875 39.558464,88.09048800000001 39.010504999999995,87.673346 38.456663,87.265474 37.897569,86.865902 37.333843,86.473658 36.766096,86.087777 36.194885,85.707267 35.619644,85.330502 35.03815,84.956973 34.448599,84.588708 33.850224,84.22856900000001 33.242267999999996,83.879487 32.623946000000004,83.544441 31.994453,83.226469 31.352985,82.928681 30.698762,82.654268 30.03114,82.406542 29.351773,82.18946700000001 28.665674,82.004218 27.976792,81.847449 27.286590999999998,81.714918 26.596294,81.602435 25.907045,81.505905 25.21995,81.421338 24.536103999999998,81.344842 23.77369,81.263812 22.998896,81.310755 22.303086,81.356582 21.603984,81.410031 20.902534,81.474886 20.199682,81.555026 19.496395999999997,81.65442300000001 18.793705,81.777147 18.092738999999998,81.927353 17.395877,82.108972 16.708094,82.323309 16.032547,82.567088 15.369166,82.837092 14.717331999999999,83.13032700000001 14.076376999999999,83.443875 13.445608,83.774886 12.824333999999999,84.120576 12.211872,84.478209 11.607565,84.845094 11.010549,85.218716 10.418133999999998,85.598255 9.828655999999999,85.98647 9.243509999999999,86.386453 8.665215,86.800678 8.096350999999999,87.23167000000001 7.539573999999998,87.682 6.9976400000000005,88.15426000000001 6.473430999999998,88.651038 5.970223000000001,89.174611 5.494471000000001,89.72279 5.048629999999999,90.284729 4.626954999999999,90.849458 4.0,91.715164 9.341697,147.767025" stroke="#1f6fb2" stroke-width="0.1" /><text fill="#0a3d62" font-family="sans-serif" font-size="1.6" text-anchor="middle" x="23.755951" y="114.51541850000001">04</text><polygon fill="#cfe3f7" fill-opacity="0.5" points="100.51190199999999,95.44646800000001 99.999381,94.720274 99.669984,94.253221 99.34066899999999,93.78562500000001 99.01138,93.317081 98.68206,92.847178 98.35265000000001,92.375508 98.02309299999999,91.901661 97.69334699999999,91.425251 97.363857,90.946539 97.036665,90.466525 96.71458100000001,89.98572200000001 96.39999399999999,89.50403 96.09525500000001,89.021365 95.80269,88.53769700000001 95.524586,88.053035 95.263185,87.567428 95.02066099999999,87.080948 94.79911,86.593675 94.600528,86.10567 94.426806,85.61694 94.279668,85.127229 94.160055,84.633932 94.066709,84.13307900000001 93.997693,83.623023 93.95143999999999,83.103837 93.926377,82.575774 93.912961,81.263812 72.51190199999999,81.263812 72.51190199999999,147.263812 100.51190199999999,147.263812 100.51190199999999,95.44646800000001 44.511902,95.44646800000001 45.024423,94.720274 45.35382,94.253221 45.683135,93.78562500000001 46.012423999999996,93.317081 46.341744,92.847178 46.671154,92.375508 47.000710999999995,91.901661 47.330456999999996,91.425251 47.659947,90.946539 47.987139,90.466525 48.309223,89.98572200000001 48.62381,89.50403 48.928549000000004,89.021365 49.221114,88.53769700000001 49.499218,88.053035 49.760619,87.567428 50.003142999999994,87.080948 50.224694,86.593675 50.423276,86.10567 50.596998,85.61694 50.744136,85.127229 50.863749,84.633932 50.957094999999995,84.13307900000001 51.026111,83.623023 51.072364,83.103837 51.097426999999996,82.575774 51.110843,81.263812 72.51190199999999,81.263812 72.51190199999999,147.263812 44.511902,147.263812 44.511902,95.44646800000001" stroke="#1f6fb2" stroke-width="0.1" /><text fill="#0a3d62" font-family="sans-serif" font-size="1.6" text-anchor="middle" x="72.51190199999999" y="114.263812">02</text><polygon fill="#cfe3f7" fill-opacity="0.5" points="101.51190199999999,92.535717 108.51190199999999,96.945717 115.51190199999999,92.535717 115.51190199999999,81.263812 101.51190199999999,81.263812 101.51190199999999,92.535717" stroke="#1f6fb2" stroke-width="0.1" /><text fill="#0a3d62" font-family="sans-serif" font-size="1.6" text-anchor="middle" x="108.51190199999999" y="89.1047645">10</text><polygon fill="#cfe3f7" fill-opacity="0.5" points="116.51190199999999,93.512939 116.541743,93.81591900000001 116.644449,94.154494 116.811234,94.466527 117.035688,94.740026 117.309187,94.96448000000001 117.62122,95.131265 117.95979499999999,95.233971 118.26277499999999,95.263812 142.761029,95.263812 143.064009,95.233971 143.402584,95.131265 143.714617,94.96448000000001 143.988116,94.740026 144.21257,94.466527 144.379355,94.154494 144.482061,93.81591900000001 144.511902,93.512939 144.511902,83.014685 144.482061,82.711705 144.379355,82.37313 144.21257,82.061097 143.988116,81.787598 143.714617,81.56314400000001 143.402584,81.396359 143.064009,81.293653 142.761029,81.263812 118.26277499999999,81.263812 117.95979499999999,81.293653 117.62122,81.396359 117.309187,81.56314400000001 117.035688,81.787598 116.811234,82.061097 116.644449,82.37313 116.541743,82.711705 116.51190199999999,83.014685 116.51190199999999,93.512939" stroke="#1f6fb2" stroke-width="0.1" /><text fill="#0a3d62" font-family="sans-serif" font-size="1.6" text-anchor="middle" x="130.511902" y="88.263812">05</text><polygon fill="#cfe3f7" fill-opacity="0.5" points="4.0,161.01615199999998 4.029841,161.319132 4.132547,161.657707 4.299332,161.96974 4.523786,162.243239 4.7972850000000005,162.467693 5.109318,162.634478 5.4478930000000005,162.73718399999998 5.750873,162.767025 30.249127,162.767025 30.552107,162.73718399999998 30.890682,162.634478 31.202715,162.467693 31.476214,162.243239 31.700668,161.96974 31.867453,161.657707 31.970159,161.319132 32.0,161.01615199999998 32.0,150.517898 31.970159,150.21491799999998 31.867453,149.876343 31.700668,149.56430999999998 31.476214,149.290811 31.202715,149.06635699999998 30.890682,148.89957199999998 30.552107,148.796866 30.249127,148.767025 5.750873,148.767025 5.4478930000000005,148.796866 5.109318,148.89957199999998 4.7972850000000005,149.06635699999998 4.523786,149.290811 4.299332,149.56430999999998 4.132547,149.876343 4.029841,150.21491799999998 4.0,150.517898 4.0,161.01615199999998" stroke="#1f6fb2" stroke-width="0.1" /><text fill="#0a3d62" font-family="sans-serif" font-size="1.6" text-anchor="middle" x="18.0" y="155.767025">05</text><polygon fill="#cfe3f7" fill-opacity="0.5" points="76.47943000000001,159.641907 76.49185,159.097288 76.520448,158.545135 76.56343,157.985996 76.618946,157.420435 76.685093,156.84901299999999 76.759918,156.27228 76.841431,155.690767 76.92760200000001,155.10497999999998 77.140884,153.688399 62.642435,148.767025 62.012912,149.160864 61.788796,149.299758 61.567198000000005,149.43450399999998 61.347622,149.564225 61.129592,149.68809 60.912619,149.80534 60.695423,149.915685 60.475975,150.01962899999998 60.253381000000005,150.117617 60.027855,150.209577 59.799690999999996,150.295402 59.569182,150.374992 59.336623,150.44824899999998 59.102312999999995,150.515079 58.866550000000004,150.575394 58.629633,150.629109 58.391740999999996,150.676168 58.152269000000004,150.716703 57.910261,150.75120199999998 57.665434000000005,150.780141 57.417802,150.803961 57.167398,150.82310999999999 56.914271,150.83804999999998 56.658483000000004,150.849255 56.400102000000004,150.857217 56.139202999999995,150.862438 55.875862,150.86543899999998 55.610156,150.866751 55.342158999999995,150.86692399999998 55.070442,150.866515 55.070442,160.866516 76.491952,160.866516 76.47943000000001,159.641907 33.661454,159.641907 33.649034,159.097288 33.620436,158.545135 33.577454,157.985996 33.521938,157.420435 33.455791000000005,156.84901299999999 33.380966,156.27228 33.299453,155.690767 33.213282,155.10497999999998 33.0,153.688399 47.498449,148.767025 48.127972,149.160864 48.352088,149.299758 48.573685999999995,149.43450399999998 48.793262,149.564225 49.011292,149.68809 49.228265,149.80534 49.445461,149.915685 49.664909,150.01962899999998 49.887502999999995,150.117617 50.113029,150.209577 50.341193000000004,150.295402 50.571702,150.374992 50.804261,150.44824899999998 51.038571000000005,150.515079 51.274333999999996,150.575394 51.511251,150.629109 51.749143000000004,150.676168 51.988614999999996,150.716703 52.230623,150.75120199999998 52.475449999999995,150.780141 52.723082,150.803961 52.973486,150.82310999999999 53.226613,150.83804999999998 53.482400999999996,150.849255 53.740781999999996,150.857217 54.001681000000005,150.862438 54.265022,150.86543899999998 54.530727999999996,150.866751 54.798725000000005,150.86692399999998 55.070442,150.866515 55.070442,160.866516 33.648932,160.866516 33.661454,159.641907" stroke="#1f6fb2" stroke-width="0.1" /><text fill="#0a3d62" font-family="sans-serif" font-size="1.6" text-anchor="middle" x="55.070442" y="154.8167705">03</text><polygon fill="#cfe3f7" fill-opacity="0.5" points="102.29309,155.61094699999998 102.819312,155.70001599999998 103.34557699999999,155.784002 103.871882,155.86290499999998 104.39822699999999,155.936722 104.924608,156.005453 105.451022,156.069097 105.977468,156.12765299999998 106.50394399999999,156.181121 107.030445,156.22949799999998 107.556971,156.272785 108.083518,156.310982 108.610084,156.34408599999998 109.13666599999999,156.372098 109.663261,156.395018 110.18986699999999,156.41284499999998 110.716482,156.425579 111.243102,156.43321899999998 111.769724,156.435766 112.296347,156.43321899999998 112.822967,156.425579 113.349581,156.41284499999998 113.876187,156.395018 114.402783,156.372098 114.92936499999999,156.34408599999998 115.45593099999999,156.310982 115.982478,156.272785 116.509003,156.22949799999998 117.035505,156.181121 117.56198,156.12765299999998 118.088426,156.069097 118.614841,156.005453 119.141222,155.936722 119.667566,155.86290499999998 120.193872,155.784002 120.720137,155.70001599999998 121.246358,155.61094699999998 121.608762,155.5461 123.665306,158.973673 124.720524,158.57468999999998 122.90987799999999,148.767025 121.411052,149.049712 120.90332699999999,149.140561 120.395646,149.22649199999998 119.888009,149.307506 119.380413,149.383603 118.872855,149.45478599999998 118.36533399999999,149.521055 117.85784699999999,149.58241099999998 117.350391,149.63885499999998 116.842964,149.690387 116.33556300000001,149.73701 115.828187,149.77872299999999 115.320832,149.81552599999998 114.813496,149.847422 114.306176,149.87440999999998 113.798869,149.89649 113.291574,149.91366299999999 112.784286,149.925929 112.277004,149.933289 111.769724,149.93574199999998 111.262445,149.933289 110.755163,149.925929 110.247875,149.91366299999999 109.740579,149.89649 109.233273,149.87440999999998 108.725953,149.847422 108.218616,149.81552599999998 107.71126100000001,149.77872299999999 107.203885,149.73701 106.696485,149.690387 106.189058,149.63885499999998 105.681602,149.58241099999998 105.174115,149.521055 104.666593,149.45478599999998 104.159036,149.383603 103.651439,149.307506 103.143802,149.22649199999998 102.636122,149.140561 102.128396,149.049712 101.43070399999999,148.91812299999998 101.43070399999999,155.453385 101.766914,155.516796 102.29309,155.61094699999998 100.568318,155.61094699999998 100.042096,155.70001599999998 99.51583099999999,155.784002 98.989526,155.86290499999998 98.46318099999999,155.936722 97.9368,156.005453 97.410386,156.069097 96.88394,156.12765299999998 96.357464,156.181121 95.830963,156.22949799999998 95.30443700000001,156.272785 94.77789,156.310982 94.251324,156.34408599999998 93.72474199999999,156.372098 93.198147,156.395018 92.671541,156.41284499999998 92.144926,156.425579 91.618306,156.43321899999998 91.091684,156.435766 90.565061,156.43321899999998 90.038441,156.425579 89.511827,156.41284499999998 88.985221,156.395018 88.458625,156.372098 87.932043,156.34408599999998 87.405477,156.310982 86.87893,156.272785 86.352405,156.22949799999998 85.825903,156.181121 85.299428,156.12765299999998 84.772982,156.069097 84.246567,156.005453 83.720186,155.936722 83.193842,155.86290499999998 82.667536,155.784002 82.141271,155.70001599999998 81.61505,155.61094699999998 81.252646,155.5461 79.196102,158.973673 78.140884,158.57468999999998 79.95152999999999,148.767025 81.450356,149.049712 81.95808099999999,149.140561 82.465762,149.22649199999998 82.973399,149.307506 83.48099500000001,149.383603 83.988553,149.45478599999998 84.496074,149.521055 85.00356099999999,149.58241099999998 85.511017,149.63885499999998 86.018444,149.690387 86.525845,149.73701 87.033221,149.77872299999999 87.540576,149.81552599999998 88.047912,149.847422 88.555232,149.87440999999998 89.062539,149.89649 89.569834,149.91366299999999 90.077122,149.925929 90.584404,149.933289 91.091684,149.93574199999998 91.598963,149.933289 92.106245,149.925929 92.613533,149.91366299999999 93.120829,149.89649 93.628135,149.87440999999998 94.135455,149.847422 94.642792,149.81552599999998 95.150147,149.77872299999999 95.657523,149.73701 96.164923,149.690387 96.67235,149.63885499999998 97.179806,149.58241099999998 97.687293,149.521055 98.194815,149.45478599999998 98.702372,149.383603 99.209969,149.307506 99.717606,149.22649199999998 100.225286,149.140561 100.733012,149.049712 101.43070399999999,148.91812299999998 101.43070399999999,155.453385 101.094494,155.516796 100.568318,155.61094699999998" stroke="#1f6fb2" stroke-width="0.1" /><text fill="#0a3d62" font-family="sans-serif" font-size="1.6" text-anchor="middle" x="101.43070399999999" y="153.87034899999998">07</text><polygon fill="#cfe3f7" fill-opacity="0.5" points="28.369298999999998,169.059946 28.935735,169.13082 29.502189,169.197646 30.06866,169.260424 30.635147,169.319154 31.201649,169.373834 31.768165,169.424466 32.334694,169.471048 32.901235,169.51358 33.467787,169.55206199999998 34.034348,169.58649499999999 34.600918,169.616876 35.167496,169.643207 35.73408,169.66548799999998 36.30067,169.683718 36.867264,169.697896 37.433861,169.708024 38.000461,169.714101 38.567060999999995,169.716126 39.133662,169.714101 39.700261,169.708024 40.266859,169.697896 40.833453,169.683718 41.400043,169.66548799999998 41.966627,169.643207 42.533204999999995,169.616876 43.099775,169.58649499999999 43.666336,169.55206199999998 44.232888,169.51358 44.799428,169.471048 45.365956999999995,169.424466 45.932473,169.373834 46.498975,169.319154 47.065462,169.260424 47.631933000000004,169.197646 48.198387,169.13082 48.764824000000004,169.059946 49.331241,168.98502499999998 50.756082,168.78636999999998 50.756082,163.767025 49.062020000000004,164.00321499999998 48.509535,164.076294 47.95707,164.14542 47.404622,164.210594 46.852191000000005,164.271816 46.299776,164.329086 45.747376,164.382406 45.194990000000004,164.431774 44.642616000000004,164.477192 44.090255,164.51865999999998 43.537904999999995,164.556178 42.985564,164.589745 42.433232000000004,164.619364 41.880908,164.64503299999998 41.32859,164.666752 40.776278,164.684522 40.22397,164.698344 39.671665,164.708216 39.119363,164.714139 38.567060999999995,164.71611399999998 38.014759999999995,164.714139 37.462457,164.708216 36.910153,164.698344 36.357845,164.684522 35.805532,164.666752 35.253215,164.64503299999998 34.70089,164.619364 34.148558,164.589745 33.596218,164.556178 33.043867,164.51865999999998 32.491506,164.477192 31.939132999999998,164.431774 31.386747,164.382406 30.834347,164.329086 30.281931999999998,164.271816 29.729501,164.210594 29.177053,164.14542 28.624587,164.076294 28.072102,164.00321499999998 27.378041,163.906447 27.378041,168.925793 27.802882,168.98502499999998 28.369298999999998,169.059946 26.386783,169.059946 25.820346999999998,169.13082 25.253892999999998,169.197646 24.687421999999998,169.260424 24.120935,169.319154 23.554433,169.373834 22.987917,169.424466 22.421388,169.471048 21.854847,169.51358 21.288294999999998,169.55206199999998 20.721733999999998,169.58649499999999 20.155164,169.616876 19.588586,169.643207 19.022002,169.66548799999998 18.455412,169.683718 17.888818,169.697896 17.322221,169.708024 16.755620999999998,169.714101 16.189021,169.716126 15.62242,169.714101 15.055821,169.708024 14.489222999999999,169.697896 13.922628999999999,169.683718 13.356038999999999,169.66548799999998 12.789455,169.643207 12.222877,169.616876 11.656307,169.58649499999999 11.089745999999998,169.55206199999998 10.523194,169.51358 9.956654,169.471048 9.390125000000001,169.424466 8.823609000000001,169.373834 8.257107000000001,169.319154 7.690619999999999,169.260424 7.124148999999999,169.197646 6.557694999999999,169.13082 5.991257999999998,169.059946 5.424841000000001,168.98502499999998 4.0,168.78636999999998 4.0,163.767025 5.694061999999999,164.00321499999998 6.246547,164.076294 6.799012000000001,164.14542 7.351459999999999,164.210594 7.903890999999998,164.271816 8.456305999999998,164.329086 9.008706,164.382406 9.561091999999999,164.431774 10.113465999999999,164.477192 10.665827,164.51865999999998 11.218177,164.556178 11.770518,164.589745 12.322849999999999,164.619364 12.875174,164.64503299999998 13.427491999999999,164.666752 13.979804,164.684522 14.532112,164.698344 15.084417,164.708216 15.636719,164.714139 16.189021,164.71611399999998 16.741322,164.714139 17.293625,164.708216 17.845928999999998,164.698344 18.398237,164.684522 18.95055,164.666752 19.502867,164.64503299999998 20.055191999999998,164.619364 20.607523999999998,164.589745 21.159864,164.556178 21.712215,164.51865999999998 22.264575999999998,164.477192 22.816949,164.431774 23.369335,164.382406 23.921734999999998,164.329086 24.47415,164.271816 25.026581,164.210594 25.579029,164.14542 26.131495,164.076294 26.68398,164.00321499999998 27.378041,163.906447 27.378041,168.925793 26.9532,168.98502499999998 26.386783,169.059946" stroke="#1f6fb2" stroke-width="0.1" /><text fill="#0a3d62" font-family="sans-serif" font-size="1.6" text-anchor="middle" x="27.378041" y="166.74157549999998">08</text><polygon fill="#cfe3f7" fill-opacity="0.5" points="51.756082,167.41615199999998 51.778237,167.64109499999998 51.85818,167.904633 51.988001,168.14751099999998 52.162711,168.36039599999998 52.375596,168.53510599999998 52.618474,168.66492699999998 52.882011999999996,168.74487 53.106955,168.767025 64.405209,168.767025 64.630152,168.74487 64.89368999999999,168.66492699999998 65.136568,168.53510599999998 65.349453,168.36039599999998 65.524163,168.14751099999998 65.653984,167.904633 65.733927,167.64109499999998 65.75608199999999,167.41615199999998 65.75608199999999,165.117898 65.733927,164.892955 65.653984,164.629417 65.524163,164.386539 65.349453,164.173654 65.136568,163.998944 64.89368999999999,163.869123 64.630152,163.78918 64.405209,163.767025 53.106955,163.767025 52.882011999999996,163.78918 52.618474,163.869123 52.375596,163.998944 52.162711,164.173654 51.988001,164.386539 51.85818,164.629417 51.778237,164.892955 51.756082,165.117898 51.756082,167.41615199999998" stroke="#1f6fb2" stroke-width="0.1" /><text fill="#0a3d62" font-family="sans-serif" font-size="1.6" text-anchor="middle" x="58.756082" y="166.267025">06</text><polygon fill="#cfe3f7" fill-opacity="0.5" points="66.75608199999999,167.41615199999998 66.77823699999999,167.64109499999998 66.85817999999999,167.904633 66.988001,168.14751099999998 67.16271099999999,168.36039599999998 67.37559599999999,168.53510599999998 67.61847399999999,168.66492699999998 67.88201199999999,168.74487 68.106955,168.767025 79.40520899999999,168.767025 79.630152,168.74487 79.89368999999999,168.66492699999998 80.136568,168.53510599999998 80.349453,168.36039599999998 80.52416299999999,168.14751099999998 80.653984,167.904633 80.733927,167.64109499999998 80.75608199999999,167.41615199999998 80.75608199999999,165.117898 80.733927,164.892955 80.653984,164.629417 80.52416299999999,164.386539 80.349453,164.173654 80.136568,163.998944 79.89368999999999,163.869123 79.630152,163.78918 79.40520899999999,163.767025 68.106955,163.767025 67.88201199999999,163.78918 67.61847399999999,163.869123 67.37559599999999,163.998944 67.16271099999999,164.173654 66.988001,164.386539 66.85817999999999,164.629417 66.77823699999999,164.892955 66.75608199999999,165.117898 66.75608199999999,167.41615199999998" stroke="#1f6fb2" stroke-width="0.1" /><text fill="#0a3d62" font-family="sans-serif" font-size="1.6" text-anchor="middle" x="73.75608199999999" y="166.267025">06</text></svg>