  0
SECTION
  2
HEADER
  9
$ACADVER
  1
AC1027
  9
$ACADMAINTVER
 70
105
  9
$DWGCODEPAGE
  3
ANSI_1252
  9
$LASTSAVEDBY
  1
ezdxf
  9
$REQUIREDVERSIONS
160
0
  9
$INSBASE
 10
0.0
 20
0.0
 30
0.0
  9
$EXTMIN
 10
1e+20
 20
1e+20
 30
1e+20
  9
$EXTMAX
 10
-1e+20
 20
-1e+20
 30
-1e+20
  9
$LIMMIN
 10
0.0
 20
0.0
  9
$LIMMAX
 10
420.0
 20
297.0
  9
$ORTHOMODE
 70
0
  9
$REGENMODE
 70
1
  9
$FILLMODE
 70
1
  9
$QTEXTMODE
 70
0
  9
$MIRRTEXT
 70
1
  9
$LTSCALE
 40
1.0
  9
$ATTMODE
 70
1
  9
$TEXTSIZE
 40
2.5
  9
$TRACEWID
 40
1.0
  9
$TEXTSTYLE
  7
OpenSans
  9
$CLAYER
  8
0
  9
$CELTYPE
  6
ByLayer
  9
$CECOLOR
 62
256
  9
$CELTSCALE
 40
1.0
  9
$DISPSILH
 70
0
  9
$DIMSCALE
 40
1.0
  9
$DIMASZ
 40
0.175
  9
$DIMEXO
 40
0.125
  9
$DIMDLI
 40
3.75
  9
$DIMRND
 40
0.0
  9
$DIMDLE
 40
0.0
  9
$DIMEXE
 40
0.375
  9
$DIMTP
 40
0.0
  9
$DIMTM
 40
0.0
  9
$DIMTXT
 40
0.25
  9
$DIMCEN
 40
2.5
  9
$DIMTSZ
 40
0.0
  9
$DIMTOL
 70
0
  9
$DIMLIM
 70
0
  9
$DIMTIH
 70
0
  9
$DIMTOH
 70
0
  9
$DIMSE1
 70
0
  9
$DIMSE2
 70
0
  9
$DIMTAD
 70
1
  9
$DIMZIN
 70
12
  9
$DIMBLK
  1
ARCHTICK
  9
$DIMASO
 70
1
  9
$DIMSHO
 70
1
  9
$DIMPOST
  1

  9
$DIMAPOST
  1

  9
$DIMALT
 70
0
  9
$DIMALTD
 70
3
  9
$DIMALTF
 40
0.03937007874
  9
$DIMLFAC
 40
100.0
  9
$DIMTOFL
 70
1
  9
$DIMTVP
 40
0.0
  9
$DIMTIX
 70
0
  9
$DIMSOXD
 70
0
  9
$DIMSAH
 70
0
  9
$DIMBLK1
  1

  9
$DIMBLK2
  1

  9
$DIMSTYLE
  2
EZDXF
  9
$DIMCLRD
 70
0
  9
$DIMCLRE
 70
0
  9
$DIMCLRT
 70
0
  9
$DIMTFAC
 40
0.5
  9
$DIMGAP
 40
0.1
  9
$DIMJUST
 70
0
  9
$DIMSD1
 70
0
  9
$DIMSD2
 70
0
  9
$DIMTOLJ
 70
0
  9
$DIMTZIN
 70
8
  9
$DIMALTZ
 70
0
  9
$DIMALTTZ
 70
0
  9
$DIMUPT
 70
1
  9
$DIMDEC
 70
2
  9
$DIMTDEC
 70
2
  9
$DIMALTU
 70
2
  9
$DIMALTTD
 70
3
  9
$DIMTXSTY
  7
OpenSansCondensed-Light
  9
$DIMAUNIT
 70
0
  9
$DIMADEC
 70
2
  9
$DIMALTRND
 40
0.0
  9
$DIMAZIN
 70
3
  9
$DIMDSEP
 70
46
  9
$DIMATFIT
 70
3
  9
$DIMFRAC
 70
0
  9
$DIMLDRBLK
  1

  9
$DIMLUNIT
 70
2
  9
$DIMLWD
 70
-2
  9
$DIMLWE
 70
-2
  9
$DIMTMOVE
 70
2
  9
$DIMFXL
 40
1.0
  9
$DIMFXLON
 70
0
  9
$DIMJOGANG
 40
0.785398163397
  9
$DIMTFILL
 70
0
  9
$DIMTFILLCLR
 70
0
  9
$DIMARCSYM
 70
0
  9
$DIMLTYPE
  6

  9
$DIMLTEX1
  6

  9
$DIMLTEX2
  6

  9
$DIMTXTDIRECTION
 70
0
  9
$LUNITS
 70
2
  9
$LUPREC
 70
4
  9
$SKETCHINC
 40
1.0
  9
$FILLETRAD
 40
10.0
  9
$AUNITS
 70
0
  9
$AUPREC
 70
2
  9
$MENU
  1
.
  9
$ELEVATION
 40
0.0
  9
$PELEVATION
 40
0.0
  9
$THICKNESS
 40
0.0
  9
$LIMCHECK
 70
0
  9
$CHAMFERA
 40
0.0
  9
$CHAMFERB
 40
0.0
  9
$CHAMFERC
 40
0.0
  9
$CHAMFERD
 40
0.0
  9
$SKPOLY
 70
0
  9
$TDCREATE
 40
2461235.8197569447
  9
$TDUCREATE
 40
2458532.153996898
  9
$TDUPDATE
 40
2461235.8197569447
  9
$TDUUPDATE
 40
2458532.1544311
  9
$TDINDWG
 40
0.0
  9
$TDUSRTIMER
 40
0.0
  9
$USRTIMER
 70
1
  9
$ANGBASE
 50
0.0
  9
$ANGDIR
 70
0
  9
$PDMODE
 70
0
  9
$PDSIZE
 40
0.0
  9
$PLINEWID
 40
0.0
  9
$SPLFRAME
 70
0
  9
$SPLINETYPE
 70
6
  9
$SPLINESEGS
 70
8
  9
$HANDSEED
  5
12E
  9
$SURFTAB1
 70
6
  9
$SURFTAB2
 70
6
  9
$SURFTYPE
 70
6
  9
$SURFU
 70
6
  9
$SURFV
 70
6
  9
$UCSBASE
  2

  9
$UCSNAME
  2

  9
$UCSORG
 10
0.0
 20
0.0
 30
0.0
  9
$UCSXDIR
 10
1.0
 20
0.0
 30
0.0
  9
$UCSYDIR
 10
0.0
 20
1.0
 30
0.0
  9
$UCSORTHOREF
  2

  9
$UCSORTHOVIEW
 70
0
  9
$UCSORGTOP
 10
0.0
 20
0.0
 30
0.0
  9
$UCSORGBOTTOM
 10
0.0
 20
0.0
 30
0.0
  9
$UCSORGLEFT
 10
0.0
 20
0.0
 30
0.0
  9
$UCSORGRIGHT
 10
0.0
 20
0.0
 30
0.0
  9
$UCSORGFRONT
 10
0.0
 20
0.0
 30
0.0
  9
$UCSORGBACK
 10
0.0
 20
0.0
 30
0.0
  9
$PUCSBASE
  2

  9
$PUCSNAME
  2

  9
$PUCSORG
 10
0.0
 20
0.0
 30
0.0
  9
$PUCSXDIR
 10
1.0
 20
0.0
 30
0.0
  9
$PUCSYDIR
 10
0.0
 20
1.0
 30
0.0
  9
$PUCSORTHOREF
  2

  9
$PUCSORTHOVIEW
 70
0
  9
$PUCSORGTOP
 10
0.0
 20
0.0
 30
0.0
  9
$PUCSORGBOTTOM
 10
0.0
 20
0.0
 30
0.0
  9
$PUCSORGLEFT
 10
0.0
 20
0.0
 30
0.0
  9
$PUCSORGRIGHT
 10
0.0
 20
0.0
 30
0.0
  9
$PUCSORGFRONT
 10
0.0
 20
0.0
 30
0.0
  9
$PUCSORGBACK
 10
0.0
 20
0.0
 30
0.0
  9
$USERI1
 70
0
  9
$USERI2
 70
0
  9
$USERI3
 70
0
  9
$USERI4
 70
0
  9
$USERI5
 70
0
  9
$USERR1
 40
0.0
  9
$USERR2
 40
0.0
  9
$USERR3
 40
0.0
  9
$USERR4
 40
0.0
  9
$USERR5
 40
0.0
  9
$WORLDVIEW
 70
1
  9
$SHADEDGE
 70
3
  9
$SHADEDIF
 70
70
  9
$TILEMODE
 70
1
  9
$MAXACTVP
 70
64
  9
$PINSBASE
 10
0.0
 20
0.0
 30
0.0
  9
$PLIMCHECK
 70
0
  9
$PEXTMIN
 10
1e+20
 20
1e+20
 30
1e+20
  9
$PEXTMAX
 10
-1e+20
 20
-1e+20
 30
-1e+20
  9
$PLIMMIN
 10
0.0
 20
0.0
  9
$PLIMMAX
 10
420.0
 20
297.0
  9
$UNITMODE
 70
0
  9
$VISRETAIN
 70
1
  9
$PLINEGEN
 70
0
  9
$PSLTSCALE
 70
1
  9
$TREEDEPTH
 70
3020
  9
$CMLSTYLE
  2
Standard
  9
$CMLJUST
 70
0
  9
$CMLSCALE
 40
20.0
  9
$PROXYGRAPHICS
 70
1
  9
$MEASUREMENT
 70
1
  9
$CELWEIGHT
370
-1
  9
$ENDCAPS
280
0
  9
$JOINSTYLE
280
0
  9
$LWDISPLAY
290
0
  9
$INSUNITS
 70
5
  9
$HYPERLINKBASE
  1

  9
$STYLESHEET
  1

  9
$XEDIT
290
1
  9
$CEPSNTYPE
380
0
  9
$PSTYLEMODE
290
1
  9
$FINGERPRINTGUID
  2
{4C549F60-F7A9-4659-A513-63E58B40E8DE}
  9
$VERSIONGUID
  2
{398B5A79-880A-41A3-B421-7D68858D6EF5}
  9
$EXTNAMES
290
1
  9
$PSVPSCALE
 40
0.0
  9
$OLESTARTUP
290
0
  9
$SORTENTS
280
127
  9
$INDEXCTL
280
0
  9
$HIDETEXT
280
1
  9
$XCLIPFRAME
280
1
  9
$HALOGAP
280
0
  9
$OBSCOLOR
 70
257
  9
$OBSLTYPE
280
0
  9
$INTERSECTIONDISPLAY
280
0
  9
$INTERSECTIONCOLOR
 70
257
  9
$DIMASSOC
280
2
  9
$PROJECTNAME
  1

  9
$CAMERADISPLAY
290
0
  9
$LENSLENGTH
 40
50.0
  9
$CAMERAHEIGHT
 40
0.0
  9
$STEPSPERSEC
 40
24.0
  9
$STEPSIZE
 40
100.0
  9
$3DDWFPREC
 40
2.0
  9
$PSOLWIDTH
 40
0.005
  9
$PSOLHEIGHT
 40
0.08
  9
$LOFTANG1
 40
1.570796326795
  9
$LOFTANG2
 40
1.570796326795
  9
$LOFTMAG1
 40
0.0
  9
$LOFTMAG2
 40
0.0
  9
$LOFTPARAM
 70
7
  9
$LOFTNORMALS
280
1
  9
$LATITUDE
 40
37.795
  9
$LONGITUDE
 40
-122.394
  9
$NORTHDIRECTION
 40
0.0
  9
$TIMEZONE
 70
-8000
  9
$LIGHTGLYPHDISPLAY
280
1
  9
$TILEMODELIGHTSYNCH
280
1
  9
$CMATERIAL
347
20
  9
$SOLIDHIST
280
0
  9
$SHOWHIST
280
1
  9
$DWFFRAME
280
2
  9
$DGNFRAME
280
2
  9
$REALWORLDSCALE
290
1
  9
$INTERFERECOLOR
 62
256
  9
$CSHADOW
280
0
  9
$SHADOWPLANELOCATION
 40
0.0
  0
ENDSEC
  0
SECTION
  2
CLASSES
  0
CLASS
  1
ACDBDICTIONARYWDFLT
  2
AcDbDictionaryWithDefault
  3
ObjectDBX Classes
 90
0
 91
0
280
0
281
0
  0
CLASS
  1
SUN
  2
AcDbSun
  3
SCENEOE
 90
1153
 91
0
280
0
281
0
  0
CLASS
  1
VISUALSTYLE
  2
AcDbVisualStyle
  3
ObjectDBX Classes
 90
4095
 91
0
280
0
281
0
  0
CLASS
  1
MATERIAL
  2
AcDbMaterial
  3
ObjectDBX Classes
 90
1153
 91
0
280
0
281
0
  0
CLASS
  1
SCALE
  2
AcDbScale
  3
ObjectDBX Classes
 90
1153
 91
0
280
0
281
0
  0
CLASS
  1
TABLESTYLE
  2
AcDbTableStyle
  3
ObjectDBX Classes
 90
4095
 91
0
280
0
281
0
  0
CLASS
  1
MLEADERSTYLE
  2
AcDbMLeaderStyle
  3
ACDB_MLEADERSTYLE_CLASS
 90
4095
 91
0
280
0
281
0
  0
CLASS
  1
DICTIONARYVAR
  2
AcDbDictionaryVar
  3
ObjectDBX Classes
 90
0
 91
0
280
0
281
0
  0
CLASS
  1
CELLSTYLEMAP
  2
AcDbCellStyleMap
  3
ObjectDBX Classes
 90
1152
 91
0
280
0
281
0
  0
CLASS
  1
MENTALRAYRENDERSETTINGS
  2
AcDbMentalRayRenderSettings
  3
SCENEOE
 90
1024
 91
0
280
0
281
0
  0
CLASS
  1
ACDBDETAILVIEWSTYLE
  2
AcDbDetailViewStyle
  3
ObjectDBX Classes
 90
1025
 91
0
280
0
281
0
  0
CLASS
  1
ACDBSECTIONVIEWSTYLE
  2
AcDbSectionViewStyle
  3
ObjectDBX Classes
 90
1025
 91
0
280
0
281
0
  0
CLASS
  1
RASTERVARIABLES
  2
AcDbRasterVariables
  3
ISM
 90
0
 91
0
280
0
281
0
  0
CLASS
  1
ACDBPLACEHOLDER
  2
AcDbPlaceHolder
  3
ObjectDBX Classes
 90
0
 91
0
280
0
281
0
  0
CLASS
  1
LAYOUT
  2
AcDbLayout
  3
ObjectDBX Classes
 90
0
 91
0
280
0
281
0
  0
ENDSEC
  0
SECTION
  2
TABLES
  0
TABLE
  2
VPORT
  5
8
330
0
100
AcDbSymbolTable
 70
1
  0
VPORT
  5
23
330
8
100
AcDbSymbolTableRecord
100
AcDbViewportTableRecord
  2
*Active
 70
0
 10
0.0
 20
0.0
 11
1.0
 21
1.0
 12
0.0
 22
0.0
 13
0.0
 23
0.0
 14
0.5
 24
0.5
 15
0.5
 25
0.5
 16
0.0
 26
0.0
 36
1.0
 17
0.0
 27
0.0
 37
0.0
 40
1000.0
 41
1.34
 42
50.0
 43
0.0
 44
0.0
 50
0.0
 51
0.0
 71
0
 72
1000
 73
1
 74
3
 75
0
 76
0
 77
0
 78
0
281
0
 65
0
146
0.0
  0
ENDTAB
  0
TABLE
  2
LTYPE
  5
2
330
0
100
AcDbSymbolTable
 70
21
  0
LTYPE
  5
24
330
2
100
AcDbSymbolTableRecord
100
AcDbLinetypeTableRecord
  2
ByBlock
 70
0
  3

 72
65
 73
0
 40
0.0
  0
LTYPE
  5
25
330
2
100
AcDbSymbolTableRecord
100
AcDbLinetypeTableRecord
  2
ByLayer
 70
0
  3

 72
65
 73
0
 40
0.0
  0
LTYPE
  5
26
330
2
100
AcDbSymbolTableRecord
100
AcDbLinetypeTableRecord
  2
Continuous
 70
0
  3

 72
65
 73
0
 40
0.0
  0
LTYPE
  5
2F
330
2
100
AcDbSymbolTableRecord
100
AcDbLinetypeTableRecord
  2
CENTER
 70
0
  3
Center ____ _ ____ _ ____ _ ____ _ ____ _ ____
 72
65
 73
4
 40
5.08
 49
3.175
 74
0
 49
-0.635
 74
0
 49
0.635
 74
0
 49
-0.635
 74
0
  0
LTYPE
  5
30
330
2
100
AcDbSymbolTableRecord
100
AcDbLinetypeTableRecord
  2
CENTERX2
 70
0
  3
Center (2x) ________  __  ________  __  ________
 72
65
 73
4
 40
8.89
 49
6.35
 74
0
 49
-0.635
 74
0
 49
1.27
 74
0
 49
-0.635
 74
0
  0
LTYPE
  5
31
330
2
100
AcDbSymbolTableRecord
100
AcDbLinetypeTableRecord
  2
CENTER2
 70
0
  3
Center (.5x) ____ _ ____ _ ____ _ ____ _ ____
 72
65
 73
4
 40
2.54
 49
1.587
 74
0
 49
-0.318
 74
0
 49
0.318
 74
0
 49
-0.318
 74
0
  0
LTYPE
  5
32
330
2
100
AcDbSymbolTableRecord
100
AcDbLinetypeTableRecord
  2
DASHED
 70
0
  3
Dashed __ __ __ __ __ __ __ __ __ __ __ __ __ _
 72
65
 73
2
 40
1.524
 49
1.27
 74
0
 49
-0.254
 74
0
  0
LTYPE
  5
33
330
2
100
AcDbSymbolTableRecord
100
AcDbLinetypeTableRecord
  2
DASHEDX2
 70
0
  3
Dashed (2x) ____  ____  ____  ____  ____  ____
 72
65
 73
2
 40
3.048
 49
2.54
 74
0
 49
-0.508
 74
0
  0
LTYPE
  5
34
330
2
100
AcDbSymbolTableRecord
100
AcDbLinetypeTableRecord
  2
DASHED2
 70
0
  3
Dashed (.5x) _ _ _ _ _ _ _ _ _ _ _ _ _ _
 72
65
 73
2
 40
0.762
 49
0.635
 74
0
 49
-0.127
 74
0
  0
LTYPE
  5
35
330
2
100
AcDbSymbolTableRecord
100
AcDbLinetypeTableRecord
  2
PHANTOM
 70
0
  3
Phantom ______  __  __  ______  __  __  ______
 72
65
 73
6
 40
6.35
 49
3.175
 74
0
 49
-0.635
 74
0
 49
0.635
 74
0
 49
-0.635
 74
0
 49
0.635
 74
0
 49
-0.635
 74
0
  0
LTYPE
  5
36
330
2
100
AcDbSymbolTableRecord
100
AcDbLinetypeTableRecord
  2
PHANTOMX2
 70
0
  3
Phantom (2x)____________    ____    ____    ____________
 72
65
 73
6
 40
10.795
 49
6.35
 74
0
 49
-0.635
 74
0
 49
1.27
 74
0
 49
-0.635
 74
0
 49
1.27
 74
0
 49
-0.635
 74
0
  0
LTYPE
  5
37
330
2
100
AcDbSymbolTableRecord
100
AcDbLinetypeTableRecord
  2
PHANTOM2
 70
0
  3
Phantom (.5x) ___ _ _ ___ _ _ ___ _ _ ___ _ _ ___
 72
65
 73
6
 40
3.175
 49
1.587
 74
0
 49
-0.318
 74
0
 49
0.318
 74
0
 49
-0.318
 74
0
 49
0.318
 74
0
 49
-0.318
 74
0
  0
LTYPE
  5
38
330
2
100
AcDbSymbolTableRecord
100
AcDbLinetypeTableRecord
  2
DASHDOT
 70
0
  3
Dash dot __ . __ . __ . __ . __ . __ . __ . __
 72
65
 73
4
 40
3.556
 49
2.54
 74
0
 49
-0.508
 74
0
 49
0.0
 74
0
 49
-0.508
 74
0
  0
LTYPE
  5
39
330
2
100
AcDbSymbolTableRecord
100
AcDbLinetypeTableRecord
  2
DASHDOTX2
 70
0
  3
Dash dot (2x) ____  .  ____  .  ____  .  ____
 72
65
 73
4
 40
6.096
 49
5.08
 74
0
 49
-0.508
 74
0
 49
0.0
 74
0
 49
-0.508
 74
0
  0
LTYPE
  5
3A
330
2
100
AcDbSymbolTableRecord
100
AcDbLinetypeTableRecord
  2
DASHDOT2
 70
0
  3
Dash dot (.5x) _ . _ . _ . _ . _ . _ . _ . _
 72
65
 73
4
 40
1.778
 49
1.27
 74
0
 49
-0.254
 74
0
 49
0.0
 74
0
 49
-0.254
 74
0
  0
LTYPE
  5
3B
330
2
100
AcDbSymbolTableRecord
100
AcDbLinetypeTableRecord
  2
DOT
 70
0
  3
Dot .  .  .  .  .  .  .  .  .  .  .  .  .  .  .  .
 72
65
 73
2
 40
0.508
 49
0.0
 74
0
 49
-0.508
 74
0
  0
LTYPE
  5
3C
330
2
100
AcDbSymbolTableRecord
100
AcDbLinetypeTableRecord
  2
DOTX2
 70
0
  3
Dot (2x) .    .    .    .    .    .    .    . 
 72
65
 73
2
 40
1.016
 49
0.0
 74
0
 49
-1.016
 74
0
  0
LTYPE
  5
3D
330
2
100
AcDbSymbolTableRecord
100
AcDbLinetypeTableRecord
  2
DOT2
 70
0
  3
Dot (.5) . . . . . . . . . . . . . . . . . . . 
 72
65
 73
2
 40
0.254
 49
0.0
 74
0
 49
-0.254
 74
0
  0
LTYPE
  5
3E
330
2
100
AcDbSymbolTableRecord
100
AcDbLinetypeTableRecord
  2
DIVIDE
 70
0
  3
Divide __ . . __ . . __ . . __ . . __ . . __
 72
65
 73
6
 40
4.064
 49
2.54
 74
0
 49
-0.508
 74
0
 49
0.0
 74
0
 49
-0.508
 74
0
 49
0.0
 74
0
 49
-0.508
 74
0
  0
LTYPE
  5
3F
330
2
100
AcDbSymbolTableRecord
100
AcDbLinetypeTableRecord
  2
DIVIDEX2
 70
0
  3
Divide (2x) ____  . .  ____  . .  ____  . .  ____
 72
65
 73
6
 40
6.604
 49
5.08
 74
0
 49
-0.508
 74
0
 49
0.0
 74
0
 49
-0.508
 74
0
 49
0.0
 74
0
 49
-0.508
 74
0
  0
LTYPE
  5
40
330
2
100
AcDbSymbolTableRecord
100
AcDbLinetypeTableRecord
  2
DIVIDE2
 70
0
  3
Divide(.5x) _ . _ . _ . _ . _ . _ . _ . _
 72
65
 73
6
 40
2.032
 49
1.27
 74
0
 49
-0.254
 74
0
 49
0.0
 74
0
 49
-0.254
 74
0
 49
0.0
 74
0
 49
-0.254
 74
0
  0
ENDTAB
  0
TABLE
  2
LAYER
  5
1
330
0
100
AcDbSymbolTable
 70
10
  0
LAYER
  5
27
330
1
100
AcDbSymbolTableRecord
100
AcDbLayerTableRecord
  2
0
 70
0
 62
7
  6
Continuous
370
-3
390
13
347
21
  0
LAYER
  5
28
330
1
100
AcDbSymbolTableRecord
100
AcDbLayerTableRecord
  2
Defpoints
 70
0
 62
7
  6
Continuous
290
0
370
-3
390
13
347
21
  0
LAYER
  5
8A
330
1
100
AcDbSymbolTableRecord
100
AcDbLayerTableRecord
  2
1
 70
0
 62
1
  6
Continuous
370
-3
390
13
347
21
  0
LAYER
  5
8B
330
1
100
AcDbSymbolTableRecord
100
AcDbLayerTableRecord
  2
4
 70
0
 62
4
  6
Continuous
370
-3
390
13
347
21
  0
LAYER
  5
8C
330
1
100
AcDbSymbolTableRecord
100
AcDbLayerTableRecord
  2
6
 70
0
 62
2
  6
Continuous
370
-3
390
13
347
21
  0
LAYER
  5
8D
330
1
100
AcDbSymbolTableRecord
100
AcDbLayerTableRecord
  2
7
 70
0
 62
3
  6
Continuous
370
-3
390
13
347
21
  0
LAYER
  5
8E
330
1
100
AcDbSymbolTableRecord
100
AcDbLayerTableRecord
  2
8
 70
0
 62
5
  6
Continuous
370
-3
390
13
347
21
  0
LAYER
  5
8F
330
1
100
AcDbSymbolTableRecord
100
AcDbLayerTableRecord
  2
11
 70
0
 62
8
  6
Continuous
370
-3
390
13
347
21
  0
LAYER
  5
90
330
1
100
AcDbSymbolTableRecord
100
AcDbLayerTableRecord
  2
13
 70
0
 62
7
  6
Continuous
370
-3
390
13
347
21
  0
LAYER
  5
91
330
1
100
AcDbSymbolTableRecord
100
AcDbLayerTableRecord
  2
15
 70
0
 62
6
  6
Continuous
370
-3
390
13
347
21
  0
ENDTAB
  0
TABLE
  2
STYLE
  5
5
330
0
100
AcDbSymbolTable
 70
26
  0
STYLE
  5
29
330
5
100
AcDbSymbolTableRecord
100
AcDbTextStyleTableRecord
  2
Standard
 70
0
 40
0.0
 41
1.0
 50
0.0
 71
0
 42
2.5
  3
txt
  4

  0
STYLE
  5
41
330
5
100
AcDbSymbolTableRecord
100
AcDbTextStyleTableRecord
  2
OpenSans-Light
 70
0
 40
0.0
 41
1.0
 50
0.0
 71
0
 42
2.5
  3
OpenSans-Light.ttf
  4

  0
STYLE
  5
42
330
5
100
AcDbSymbolTableRecord
100
AcDbTextStyleTableRecord
  2
OpenSans-Light-Italic
 70
0
 40
0.0
 41
1.0
 50
0.0
 71
0
 42
2.5
  3
OpenSans-LightItalic.ttf
  4

  0
STYLE
  5
43
330
5
100
AcDbSymbolTableRecord
100
AcDbTextStyleTableRecord
  2
OpenSans
 70
0
 40
0.0
 41
1.0
 50
0.0
 71
0
 42
2.5
  3
OpenSans-Regular.ttf
  4

  0
STYLE
  5
44
330
5
100
AcDbSymbolTableRecord
100
AcDbTextStyleTableRecord
  2
OpenSans-Italic
 70
0
 40
0.0
 41
1.0
 50
0.0
 71
0
 42
2.5
  3
OpenSans-Italic.ttf
  4

  0
STYLE
  5
45
330
5
100
AcDbSymbolTableRecord
100
AcDbTextStyleTableRecord
  2
OpenSans-SemiBold
 70
0
 40
0.0
 41
1.0
 50
0.0
 71
0
 42
2.5
  3
OpenSans-SemiBold.ttf
  4

  0
STYLE
  5
46
330
5
100
AcDbSymbolTableRecord
100
AcDbTextStyleTableRecord
  2
OpenSans-SemiBoldItalic
 70
0
 40
0.0
 41
1.0
 50
0.0
 71
0
 42
2.5
  3
OpenSans-SemiBoldItalic.ttf
  4

  0
STYLE
  5
47
330
5
100
AcDbSymbolTableRecord
100
AcDbTextStyleTableRecord
  2
OpenSans-Bold
 70
0
 40
0.0
 41
1.0
 50
0.0
 71
0
 42
2.5
  3
OpenSans-Bold.ttf
  4

  0
STYLE
  5
48
330
5
100
AcDbSymbolTableRecord
100
AcDbTextStyleTableRecord
  2
OpenSans-BoldItalic
 70
0
 40
0.0
 41
1.0
 50
0.0
 71
0
 42
2.5
  3
OpenSans-BoldItalic.ttf
  4

  0
STYLE
  5
49
330
5
100
AcDbSymbolTableRecord
100
AcDbTextStyleTableRecord
  2
OpenSans-ExtraBold
 70
0
 40
0.0
 41
1.0
 50
0.0
 71
0
 42
2.5
  3
OpenSans-ExtraBold.ttf
  4

  0
STYLE
  5
4A
330
5
100
AcDbSymbolTableRecord
100
AcDbTextStyleTableRecord
  2
OpenSans-ExtraBoldItalic
 70
0
 40
0.0
 41
1.0
 50
0.0
 71
0
 42
2.5
  3
OpenSans-ExtraBoldItalic.ttf
  4

  0
STYLE
  5
4B
330
5
100
AcDbSymbolTableRecord
100
AcDbTextStyleTableRecord
  2
OpenSansCondensed-Bold
 70
0
 40
0.0
 41
1.0
 50
0.0
 71
0
 42
2.5
  3
OpenSansCondensed-Bold.ttf
  4

  0
STYLE
  5
4C
330
5
100
AcDbSymbolTableRecord
100
AcDbTextStyleTableRecord
  2
OpenSansCondensed-Light
 70
0
 40
0.0
 41
1.0
 50
0.0
 71
0
 42
2.5
  3
OpenSansCondensed-Light.ttf
  4

  0
STYLE
  5
4D
330
5
100
AcDbSymbolTableRecord
100
AcDbTextStyleTableRecord
  2
OpenSansCondensed-Italic
 70
0
 40
0.0
 41
1.0
 50
0.0
 71
0
 42
2.5
  3
OpenSansCondensed-LightItalic.ttf
  4

  0
STYLE
  5
4E
330
5
100
AcDbSymbolTableRecord
100
AcDbTextStyleTableRecord
  2
LiberationSans
 70
0
 40
0.0
 41
1.0
 50
0.0
 71
0
 42
2.5
  3
LiberationSans-Regular.ttf
  4

  0
STYLE
  5
4F
330
5
100
AcDbSymbolTableRecord
100
AcDbTextStyleTableRecord
  2
LiberationSans-Bold
 70
0
 40
0.0
 41
1.0
 50
0.0
 71
0
 42
2.5
  3
LiberationSans-Bold.ttf
  4

  0
STYLE
  5
50
330
5
100
AcDbSymbolTableRecord
100
AcDbTextStyleTableRecord
  2
LiberationSans-BoldItalic
 70
0
 40
0.0
 41
1.0
 50
0.0
 71
0
 42
2.5
  3
LiberationSans-BoldItalic.ttf
  4

  0
STYLE
  5
51
330
5
100
AcDbSymbolTableRecord
100
AcDbTextStyleTableRecord
  2
LiberationSans-Italic
 70
0
 40
0.0
 41
1.0
 50
0.0
 71
0
 42
2.5
  3
LiberationSans-Italic.ttf
  4

  0
STYLE
  5
52
330
5
100
AcDbSymbolTableRecord
100
AcDbTextStyleTableRecord
  2
LiberationSerif
 70
0
 40
0.0
 41
1.0
 50
0.0
 71
0
 42
2.5
  3
LiberationSerif-Regular.ttf
  4

  0
STYLE
  5
53
330
5
100
AcDbSymbolTableRecord
100
AcDbTextStyleTableRecord
  2
LiberationSerif-Bold
 70
0
 40
0.0
 41
1.0
 50
0.0
 71
0
 42
2.5
  3
LiberationSerif-Bold.ttf
  4

  0
STYLE
  5
54
330
5
100
AcDbSymbolTableRecord
100
AcDbTextStyleTableRecord
  2
LiberationSerif-BoldItalic
 70
0
 40
0.0
 41
1.0
 50
0.0
 71
0
 42
2.5
  3
LiberationSerif-BoldItalic.ttf
  4

  0
STYLE
  5
55
330
5
100
AcDbSymbolTableRecord
100
AcDbTextStyleTableRecord
  2
LiberationSerif-Italic
 70
0
 40
0.0
 41
1.0
 50
0.0
 71
0
 42
2.5
  3
LiberationSerif-Italic.ttf
  4

  0
STYLE
  5
56
330
5
100
AcDbSymbolTableRecord
100
AcDbTextStyleTableRecord
  2
LiberationMono
 70
0
 40
0.0
 41
1.0
 50
0.0
 71
0
 42
2.5
  3
LiberationMono-Regular.ttf
  4

  0
STYLE
  5
57
330
5
100
AcDbSymbolTableRecord
100
AcDbTextStyleTableRecord
  2
LiberationMono-Bold
 70
0
 40
0.0
 41
1.0
 50
0.0
 71
0
 42
2.5
  3
LiberationMono-Bold.ttf
  4

  0
STYLE
  5
58
330
5
100
AcDbSymbolTableRecord
100
AcDbTextStyleTableRecord
  2
LiberationMono-BoldItalic
 70
0
 40
0.0
 41
1.0
 50
0.0
 71
0
 42
2.5
  3
LiberationMono-BoldItalic.ttf
  4

  0
STYLE
  5
59
330
5
100
AcDbSymbolTableRecord
100
AcDbTextStyleTableRecord
  2
LiberationMono-Italic
 70
0
 40
0.0
 41
1.0
 50
0.0
 71
0
 42
2.5
  3
LiberationMono-Italic.ttf
  4

  0
ENDTAB
  0
TABLE
  2
VIEW
  5
7
330
0
100
AcDbSymbolTable
 70
0
  0
ENDTAB
  0
TABLE
  2
UCS
  5
6
330
0
100
AcDbSymbolTable
 70
0
  0
ENDTAB
  0
TABLE
  2
APPID
  5
3
330
0
100
AcDbSymbolTable
 70
3
  0
APPID
  5
2A
330
3
100
AcDbSymbolTableRecord
100
AcDbRegAppTableRecord
  2
ACAD
 70
0
  0
APPID
  5
12B
330
3
100
AcDbSymbolTableRecord
100
AcDbRegAppTableRecord
  2
HATCHBACKGROUNDCOLOR
 70
0
  0
APPID
  5
12C
330
3
100
AcDbSymbolTableRecord
100
AcDbRegAppTableRecord
  2
EZDXF
 70
0
  0
ENDTAB
  0
TABLE
  2
DIMSTYLE
  5
4
330
0
100
AcDbSymbolTable
 70
12
100
AcDbDimStyleTable
  0
DIMSTYLE
105
2B
330
4
100
AcDbSymbolTableRecord
100
AcDbDimStyleTableRecord
  2
Standard
 70
0
 40
1.0
 41
2.5
 42
0.625
 43
3.75
 44
1.25
 45
0.0
 46
0.0
 47
0.0
 48
0.0
 49
2.5
140
2.5
141
2.5
142
0.0
143
0.03937007874
144
1.0
145
0.0
146
1.0
147
0.625
148
0.0
 69
0
 70
0
 71
0
 72
0
 73
0
 74
0
 75
0
 76
0
 77
1
 78
8
 79
3
170
0
171
3
172
1
173
0
174
0
175
0
176
0
177
0
178
0
179
2
271
2
272
2
273
2
274
3
275
0
276
0
277
2
278
44
279
0
280
0
281
0
282
0
283
0
284
8
285
0
286
0
288
0
289
3
290
0
371
-2
372
-2
  0
DIMSTYLE
105
73
330
4
100
AcDbSymbolTableRecord
100
AcDbDimStyleTableRecord
  2
EZDXF
 70
0
 40
1.0
 41
0.175
 42
0.125
 43
3.75
 44
0.375
 45
0.0
 46
0.0
 47
0.0
 48
0.0
 49
2.5
140
0.25
141
2.5
142
0.0
143
0.03937007874
144
100.0
145
0.0
146
0.5
147
0.1
148
0.0
 69
0
 70
0
 71
0
 72
0
 73
0
 74
0
 75
0
 76
0
 77
1
 78
12
 79
3
170
0
171
3
172
1
173
0
174
0
175
0
176
0
177
0
178
0
179
2
271
2
272
2
273
2
274
3
275
0
276
0
277
2
278
46
279
2
280
0
281
0
282
0
283
0
284
8
285
0
286
0
288
1
289
3
290
0
340
4C
342
74
371
-2
372
-2
  0
DIMSTYLE
105
7C
330
4
100
AcDbSymbolTableRecord
100
AcDbDimStyleTableRecord
  2
EZ_M_100_H25_CM
 70
0
 40
1.0
 41
0.25
 42
0.125
 43
3.75
 44
0.375
 45
0.0
 46
0.0
 47
0.0
 48
0.0
 49
2.5
140
0.25
141
2.5
142
0.125
143
0.03937007874
144
100.0
145
0.0
146
0.5
147
0.1
148
0.0
 69
0
 70
0
 71
0
 72
0
 73
0
 74
0
 75
0
 76
0
 77
1
 78
12
 79
3
170
0
171
3
172
1
173
0
174
0
175
0
176
0
177
0
178
0
179
2
271
2
272
2
273
2
274
3
275
0
276
0
277
2
278
46
279
2
280
0
281
0
282
0
283
0
284
8
285
0
286
0
288
1
289
3
290
0
340
4C
371
-2
372
-2
  0
DIMSTYLE
105
7D
330
4
100
AcDbSymbolTableRecord
100
AcDbDimStyleTableRecord
  2
EZ_M_50_H25_CM
 70
0
 40
1.0
 41
0.125
 42
0.0625
 43
3.75
 44
0.1875
 45
0.0
 46
0.0
 47
0.0
 48
0.0
 49
2.5
140
0.125
141
2.5
142
0.0625
143
0.03937007874
144
100.0
145
0.0
146
0.5
147
0.05
148
0.0
 69
0
 70
0
 71
0
 72
0
 73
0
 74
0
 75
0
 76
0
 77
1
 78
12
 79
3
170
0
171
3
172
1
173
0
174
0
175
0
176
0
177
0
178
0
179
2
271
2
272
2
273
2
274
3
275
0
276
0
277
2
278
46
279
2
280
0
281
0
282
0
283
0
284
8
285
0
286
0
288
1
289
3
290
0
340
4C
371
-2
372
-2
  0
DIMSTYLE
105
7E
330
4
100
AcDbSymbolTableRecord
100
AcDbDimStyleTableRecord
  2
EZ_M_25_H25_CM
 70
0
 40
1.0
 41
0.0625
 42
0.03125
 43
3.75
 44
0.09375
 45
0.0
 46
0.0
 47
0.0
 48
0.0
 49
2.5
140
0.0625
141
2.5
142
0.03125
143
0.03937007874
144
100.0
145
0.0
146
0.5
147
0.025
148
0.0
 69
0
 70
0
 71
0
 72
0
 73
0
 74
0
 75
0
 76
0
 77
1
 78
12
 79
3
170
0
171
3
172
1
173
0
174
0
175
0
176
0
177
0
178
0
179
2
271
2
272
2
273
2
274
3
275
0
276
0
277
2
278
46
279
2
280
0
281
0
282
0
283
0
284
8
285
0
286
0
288
1
289
3
290
0
340
4C
371
-2
372
-2
  0
DIMSTYLE
105
7F
330
4
100
AcDbSymbolTableRecord
100
AcDbDimStyleTableRecord
  2
EZ_M_20_H25_CM
 70
0
 40
1.0
 41
0.05
 42
0.025
 43
3.75
 44
0.07500000000000001
 45
0.0
 46
0.0
 47
0.0
 48
0.0
 49
2.5
140
0.05
141
2.5
142
0.025
143
0.03937007874
144
100.0
145
0.0
146
0.5
147
0.020000000000000004
148
0.0
 69
0
 70
0
 71
0
 72
0
 73
0
 74
0
 75
0
 76
0
 77
1
 78
12
 79
3
170
0
171
3
172
1
173
0
174
0
175
0
176
0
177
0
178
0
179
2
271
2
272
2
273
2
274
3
275
0
276
0
277
2
278
46
279
2
280
0
281
0
282
0
283
0
284
8
285
0
286
0
288
1
289
3
290
0
340
4C
371
-2
372
-2
  0
DIMSTYLE
105
80
330
4
100
AcDbSymbolTableRecord
100
AcDbDimStyleTableRecord
  2
EZ_M_10_H25_CM
 70
0
 40
1.0
 41
0.025
 42
0.0125
 43
3.75
 44
0.037500000000000006
 45
0.0
 46
0.0
 47
0.0
 48
0.0
 49
2.5
140
0.025
141
2.5
142
0.0125
143
0.03937007874
144
100.0
145
0.0
146
0.5
147
0.010000000000000002
148
0.0
 69
0
 70
0
 71
0
 72
0
 73
0
 74
0
 75
0
 76
0
 77
1
 78
12
 79
3
170
0
171
3
172
1
173
0
174
0
175
0
176
0
177
0
178
0
179
2
271
2
272
2
273
2
274
3
275
0
276
0
277
2
278
46
279
2
280
0
281
0
282
0
283
0
284
8
285
0
286
0
288
1
289
3
290
0
340
4C
371
-2
372
-2
  0
DIMSTYLE
105
81
330
4
100
AcDbSymbolTableRecord
100
AcDbDimStyleTableRecord
  2
EZ_M_5_H25_CM
 70
0
 40
1.0
 41
0.0125
 42
0.00625
 43
3.75
 44
0.018750000000000003
 45
0.0
 46
0.0
 47
0.0
 48
0.0
 49
2.5
140
0.0125
141
2.5
142
0.00625
143
0.03937007874
144
100.0
145
0.0
146
0.5
147
0.005000000000000001
148
0.0
 69
0
 70
0
 71
0
 72
0
 73
0
 74
0
 75
0
 76
0
 77
1
 78
12
 79
3
170
0
171
3
172
1
173
0
174
0
175
0
176
0
177
0
178
0
179
2
271
2
272
2
273
2
274
3
275
0
276
0
277
2
278
46
279
2
280
0
281
0
282
0
283
0
284
8
285
0
286
0
288
1
289
3
290
0
340
4C
371
-2
372
-2
  0
DIMSTYLE
105
82
330
4
100
AcDbSymbolTableRecord
100
AcDbDimStyleTableRecord
  2
EZ_M_1_H25_CM
 70
0
 40
1.0
 41
0.0025
 42
0.00125
 43
3.75
 44
0.00375
 45
0.0
 46
0.0
 47
0.0
 48
0.0
 49
2.5
140
0.0025
141
2.5
142
0.00125
143
0.03937007874
144
100.0
145
0.0
146
0.5
147
0.001
148
0.0
 69
0
 70
0
 71
0
 72
0
 73
0
 74
0
 75
0
 76
0
 77
1
 78
12
 79
3
170
0
171
3
172
1
173
0
174
0
175
0
176
0
177
0
178
0
179
2
271
2
272
2
273
2
274
3
275
0
276
0
277
2
278
46
279
2
280
0
281
0
282
0
283
0
284
8
285
0
286
0
288
1
289
3
290
0
340
4C
371
-2
372
-2
  0
DIMSTYLE
105
83
330
4
100
AcDbSymbolTableRecord
100
AcDbDimStyleTableRecord
  2
EZ_RADIUS
 70
0
 40
1.0
 41
0.25
 42
0.125
 43
3.75
 44
0.375
 45
0.0
 46
0.0
 47
0.0
 48
0.0
 49
2.5
140
0.25
141
0.0
142
0.0
143
0.03937007874
144
100.0
145
0.0
146
0.5
147
0.1
148
0.0
 69
0
 70
0
 71
0
 72
0
 73
0
 74
0
 75
0
 76
0
 77
1
 78
12
 79
3
170
0
171
3
172
0
173
0
174
0
175
0
176
0
177
0
178
0
179
2
271
2
272
2
273
2
274
3
275
0
276
0
277
2
278
46
279
1
280
0
281
0
282
0
283
0
284
8
285
0
286
0
288
1
289
3
290
0
340
4C
342
84
371
-2
372
-2
  0
DIMSTYLE
105
88
330
4
100
AcDbSymbolTableRecord
100
AcDbDimStyleTableRecord
  2
EZ_RADIUS_INSIDE
 70
0
 40
1.0
 41
0.25
 42
0.125
 43
3.75
 44
0.375
 45
0.0
 46
0.0
 47
0.0
 48
0.0
 49
2.5
140
0.25
141
0.0
142
0.0
143
0.03937007874
144
100.0
145
0.0
146
0.5
147
0.1
148
0.0
 69
0
 70
0
 71
0
 72
0
 73
0
 74
0
 75
0
 76
0
 77
0
 78
12
 79
3
170
0
171
3
172
0
173
0
174
1
175
0
176
0
177
0
178
0
179
2
271
2
272
2
273
2
274
3
275
0
276
0
277
2
278
46
279
0
280
0
281
0
282
0
283
0
284
8
285
0
286
0
288
1
289
0
290
0
340
4C
342
84
371
-2
372
-2
  0
DIMSTYLE
105
89
330
4
100
AcDbSymbolTableRecord
100
AcDbDimStyleTableRecord
  2
EZ_CURVED
 70
0
 40
1.0
 41
0.25
 42
0.125
 43
3.75
 44
0.375
 45
0.0
 46
0.0
 47
0.0
 48
0.0
 49
2.5
140
0.25
141
2.5
142
0.0
143
0.03937007874
144
100.0
145
0.0
146
0.5
147
0.1
148
0.0
 69
0
 70
0
 71
0
 72
0
 73
0
 74
0
 75
0
 76
0
 77
1
 78
12
 79
2
 90
2
170
0
171
3
172
1
173
0
174
0
175
0
176
0
177
0
178
0
179
2
271
2
272
2
273
2
274
3
275
0
276
0
277
2
278
46
279
2
280
0
281
0
282
0
283
0
284
8
285
0
286
0
288
1
289
3
290
0
340
4C
371
-2
372
-2
  0
ENDTAB
  0
TABLE
  2
BLOCK_RECORD
  5
9
330
0
100
AcDbSymbolTable
 70
15
  0
BLOCK_RECORD
  5
17
330
9
100
AcDbSymbolTableRecord
100
AcDbBlockTableRecord
  2
*Model_Space
340
1A
 70
0
280
1
281
0
  0
BLOCK_RECORD
  5
1B
330
9
100
AcDbSymbolTableRecord
100
AcDbBlockTableRecord
  2
*Paper_Space
340
1E
 70
0
280
1
281
0
  0
BLOCK_RECORD
  5
74
330
9
100
AcDbSymbolTableRecord
100
AcDbBlockTableRecord
  2
_ARCHTICK
340
0
 70
0
280
1
281
0
  0
BLOCK_RECORD
  5
78
330
9
100
AcDbSymbolTableRecord
100
AcDbBlockTableRecord
  2
_CLOSEDFILLED
340
0
 70
0
280
1
281
0
  0
BLOCK_RECORD
  5
84
330
9
100
AcDbSymbolTableRecord
100
AcDbBlockTableRecord
  2
_CLOSEDBLANK
340
0
 70
0
280
1
281
0
  0
BLOCK_RECORD
  5
92
330
9
100
AcDbSymbolTableRecord
100
AcDbBlockTableRecord
  2
P01_DELANTERO
340
0
 70
0
280
1
281
0
  0
BLOCK_RECORD
  5
A4
330
9
100
AcDbSymbolTableRecord
100
AcDbBlockTableRecord
  2
P02_ESPALDA
340
0
 70
0
280
1
281
0
  0
BLOCK_RECORD
  5
B3
330
9
100
AcDbSymbolTableRecord
100
AcDbBlockTableRecord
  2
P03_CANESU
340
0
 70
0
280
1
281
0
  0
BLOCK_RECORD
  5
C2
330
9
100
AcDbSymbolTableRecord
100
AcDbBlockTableRecord
  2
P04_MANGA
340
0
 70
0
280
1
281
0
  0
BLOCK_RECORD
  5
D5
330
9
100
AcDbSymbolTableRecord
100
AcDbBlockTableRecord
  2
P05_PUNO
340
0
 70
0
280
1
281
0
  0
BLOCK_RECORD
  5
E4
330
9
100
AcDbSymbolTableRecord
100
AcDbBlockTableRecord
  2
P06_TAPETA_MANGA
340
0
 70
0
280
1
281
0
  0
BLOCK_RECORD
  5
F2
330
9
100
AcDbSymbolTableRecord
100
AcDbBlockTableRecord
  2
P07_CUELLO
340
0
 70
0
280
1
281
0
  0
BLOCK_RECORD
  5
100
330
9
100
AcDbSymbolTableRecord
100
AcDbBlockTableRecord
  2
P08_PIE_DE_CUELLO
340
0
 70
0
280
1
281
0
  0
BLOCK_RECORD
  5
10E
330
9
100
AcDbSymbolTableRecord
100
AcDbBlockTableRecord
  2
P09_VISTA_DELANTERA
340
0
 70
0
280
1
281
0
  0
BLOCK_RECORD
  5
11C
330
9
100
AcDbSymbolTableRecord
100
AcDbBlockTableRecord
  2
P10_BOLSILLO
340
0
 70
0
280
1
281
0
  0
ENDTAB
  0
ENDSEC
  0
SECTION
  2
BLOCKS
  0
BLOCK
  5
18
330
17
100
AcDbEntity
  8
0
100
AcDbBlockBegin
  2
*Model_Space
 70
0
 10
0.0
 20
0.0
 30
0.0
  3
*Model_Space
  1

  0
ENDBLK
  5
19
330
17
100
AcDbEntity
  8
0
100
AcDbBlockEnd
  0
BLOCK
  5
1C
330
1B
100
AcDbEntity
  8
0
100
AcDbBlockBegin
  2
*Paper_Space
 70
0
 10
0.0
 20
0.0
 30
0.0
  3
*Paper_Space
  1

  0
ENDBLK
  5
1D
330
1B
100
AcDbEntity
  8
0
100
AcDbBlockEnd
  0
BLOCK
  5
75
330
74
100
AcDbEntity
  8
0
100
AcDbBlockBegin
  2
_ARCHTICK
 70
0
 10
0.0
 20
0.0
 30
0.0
  3
_ARCHTICK
  1

  0
LWPOLYLINE
  5
77
330
74
100
AcDbEntity
  8
0
  6
BYBLOCK
 62
0
100
AcDbPolyline
 90
2
 70
0
 43
0.15
 10
-0.5
 20
-0.5
 10
0.5
 20
0.5
  0
ENDBLK
  5
76
330
74
100
AcDbEntity
  8
0
100
AcDbBlockEnd
  0
BLOCK
  5
79
330
78
100
AcDbEntity
  8
0
100
AcDbBlockBegin
  2
_CLOSEDFILLED
 70
0
 10
0.0
 20
0.0
 30
0.0
  3
_CLOSEDFILLED
  1

  0
SOLID
  5
7B
330
78
100
AcDbEntity
  8
0
  6
BYBLOCK
 62
0
100
AcDbTrace
 10
-1.0
 20
0.16439898372402537
 30
0.0
 11
0.0
 21
0.0
 31
0.0
 12
-1.0
 22
-0.16439898372402537
 32
0.0
 13
-1.0
 23
-0.16439898372402537
 33
0.0
  0
ENDBLK
  5
7A
330
78
100
AcDbEntity
  8
0
100
AcDbBlockEnd
  0
BLOCK
  5
85
330
84
100
AcDbEntity
  8
0
100
AcDbBlockBegin
  2
_CLOSEDBLANK
 70
0
 10
0.0
 20
0.0
 30
0.0
  3
_CLOSEDBLANK
  1

  0
LWPOLYLINE
  5
87
330
84
100
AcDbEntity
  8
0
  6
BYBLOCK
 62
0
100
AcDbPolyline
 90
3
 70
1
 10
-1.0
 20
0.16439898372402537
 10
0.0
 20
0.0
 10
-1.0
 20
-0.16439898372402537
  0
ENDBLK
  5
86
330
84
100
AcDbEntity
  8
0
100
AcDbBlockEnd
  0
BLOCK
  5
93
330
92
100
AcDbEntity
  8
0
100
AcDbBlockBegin
  2
P01_DELANTERO
 70
0
 10
0.0
 20
0.0
 30
0.0
  3
P01_DELANTERO
  1

  0
LWPOLYLINE
  5
95
330
92
100
AcDbEntity
  8
1
100
AcDbPolyline
 90
77
 70
1
 10
-2.7
 20
-75.0
 10
28.0
 20
-75.0
 10
28.0
 20
-23.113714
 10
27.346808
 20
-22.394397
 10
26.952387
 20
-21.960811
 10
26.555257
 20
-21.525773
 10
26.154804
 20
-21.089379
 10
25.750123
 20
-20.651403
 10
25.340312
 20
-20.211629
 10
24.924472
 20
-19.769843
 10
24.501727
 20
-19.325861
 10
24.072268
 20
-18.880542
 10
23.639964
 20
-18.435883
 10
23.210957
 20
-17.99259
 10
22.790189
 20
-17.550031
 10
22.38251
 20
-17.107677
 10
21.99276
 20
-16.665221
 10
21.625722
 20
-16.222578
 10
21.286054
 20
-15.779895
 10
20.978181
 20
-15.337527
 10
20.706165
 20
-14.89597
 10
20.473545
 20
-14.455716
 10
20.28314
 20
-14.016852
 10
20.135872
 20
-13.575463
 10
20.029221
 20
-13.123357
 10
19.959937
 20
-12.655409
 10
19.926215
 20
-12.170641
 10
19.926423
 20
-11.66898
 10
19.958838
 20
-11.150951
 10
20.021519
 20
-10.617494
 10
20.112271
 20
-10.069799
 10
20.228654
 20
-9.509174
 10
20.368014
 20
-8.936957
 10
20.527529
 20
-8.354453
 10
20.704249
 20
-7.762908
 10
20.895124
 20
-7.163486
 10
21.097038
 20
-6.557268
 10
21.30682
 20
-5.945247
 10
21.83967
 20
-4.412303
 10
7.160022
 20
1.200601
 10
6.493849
 20
0.330975
 10
6.281197
 20
0.05277
 10
6.068493
 20
-0.226719
 10
5.856038
 20
-0.507719
 10
5.644134
 20
-0.79046
 10
5.433083
 20
-1.075172
 10
5.223196
 20
-1.362086
 10
5.014781
 20
-1.651438
 10
4.808153
 20
-1.94346
 10
4.60363
 20
-2.238388
 10
4.401533
 20
-2.536456
 10
4.202187
 20
-2.837901
 10
4.005921
 20
-3.142955
 10
3.813233
 20
-3.451588
 10
3.625257
 20
-3.762254
 10
3.442238
 20
-4.072495
 10
3.263288
 20
-4.380995
 10
3.087294
 20
-4.686896
 10
2.91319
 20
-4.989347
 10
2.739949
 20
-5.287511
 10
2.566591
 20
-5.580562
 10
2.392178
 20
-5.86769
 10
2.215813
 20
-6.148106
 10
2.036634
 20
-6.421052
 10
1.853815
 20
-6.685811
 10
1.666548
 20
-6.941721
 10
1.474024
 20
-7.188202
 10
1.274463
 20
-7.425918
 10
1.065041
 20
-7.657866
 10
0.844753
 20
-7.886765
 10
0.614362
 20
-8.113508
 10
0.37487
 20
-8.338827
 10
0.127341
 20
-8.563489
 10
-0.127105
 20
-8.788301
 10
-0.371041
 20
-9.0
 10
-2.7
 20
-9.0
 10
-2.7
 20
-75.0
  0
LWPOLYLINE
  5
96
330
92
100
AcDbEntity
  8
8
100
AcDbPolyline
 90
77
 70
1
 10
-1.7
 20
-10.0
 10
0.0
 20
-10.0
 10
0.2664559076284275
 20
-9.77081881755242
 10
0.5316870763632604
 20
-9.540639268597964
 10
0.7944687673108973
 20
-9.308462986629749
 10
1.0535762415777423
 20
-9.073291605140902
 10
1.3077847602701966
 20
-8.834126757624546
 10
1.5558695844946662
 20
-8.589970077573795
 10
1.7966059753575527
 20
-8.339823198481778
 10
2.0287691939652555
 20
-8.082687753841613
 10
2.251256262871314
 20
-7.817663738929134
 10
2.4642909776599335
 20
-7.544922947718502
 10
2.6689127963048676
 20
-7.265296085593137
 10
2.8661730692885365
 20
-6.97962346498681
 10
3.0571231470933626
 20
-6.6887453983332925
 10
3.24281438020177
 20
-6.393502198066352
 10
3.4242981190961777
 20
-6.094734176619759
 10
3.6026257142590072
 20
-5.793281646427288
 10
3.7788485161726824
 20
-5.489984919922706
 10
3.954017875319624
 20
-5.185684309539782
 10
4.129185142182252
 20
-4.881220127712289
 10
4.305401667242991
 20
-4.577432686873996
 10
4.483718800984262
 20
-4.275162299458675
 10
4.665187766337148
 20
-3.975249177043526
 10
4.8505759251754625
 20
-3.6783090784295487
 10
5.039763734964992
 20
-3.3842564751100506
 10
5.232458914863333
 20
-3.092869252062379
 10
5.428369184028084
 20
-2.803925294263881
 10
5.627202261616847
 20
-2.517202486691905
 10
5.828665866787218
 20
-2.2324787143237987
 10
6.0324677186967985
 20
-1.9495318621369109
 10
6.238315536503185
 20
-1.6681398151085878
 10
6.4459170393639775
 20
-1.388080458216178
 10
6.654979946436775
 20
-1.1091316764370291
 10
6.86521197687918
 20
-0.8310713547484891
 10
7.076320849848785
 20
-0.5536773781279057
 10
7.288014284503192
 20
-0.2767276315526268
 10
7.5
 20
-0.0
 10
20.57669683062202
 20
-5.0
 10
20.361548093742915
 20
-5.618956240860086
 10
20.149655609862343
 20
-6.237135200828499
 10
19.944275631978822
 20
-6.8537595990135625
 10
19.7486644130909
 20
-7.468052154523605
 10
19.566078206197098
 20
-8.07923558646695
 10
19.399773264295938
 20
-8.686532613951922
 10
19.253005840385963
 20
-9.289165956086851
 10
19.129032187465697
 20
-9.886358331980064
 10
19.031108558533667
 20
-10.47733246073988
 10
18.96249120658841
 20
-11.06131106147463
 10
18.92643638462845
 20
-11.63751685329264
 10
18.92620034565232
 20
-12.205172555302232
 10
18.965039342658546
 20
-12.763500886611736
 10
19.046209628645666
 20
-13.311724566329476
 10
19.1729674566122
 20
-13.849066313563776
 10
19.348371795521793
 20
-14.374787779295678
 10
19.571444628272715
 20
-14.888947270088234
 10
19.837430882322455
 20
-15.392348453586191
 10
20.141430259413333
 20
-15.885823656160083
 10
20.4785424612877
 20
-16.370205204180436
 10
20.84386718968788
 20
-16.846325424017788
 10
21.232504146356217
 20
-17.315016642042668
 10
21.63955303303504
 20
-17.7771111846256
 10
22.06011355146668
 20
-18.233441378137115
 10
22.489285403393488
 20
-18.68483954894775
 10
22.922168290557785
 20
-19.132138023428027
 10
23.353861914701913
 20
-19.576169127948482
 10
23.77970784576319
 20
-20.017740825357365
 10
24.198274842246917
 20
-20.45733600194372
 10
24.610429647848996
 20
-20.89520606662766
 10
25.01708828983823
 20
-21.331597463966684
 10
25.419166795483427
 20
-21.766756638518274
 10
25.817581192053392
 20
-22.20093003483991
 10
26.21324750681694
 20
-22.634364097489087
 10
26.607081767042875
 20
-23.067305271023283
 10
27.0
 20
-23.5
 10
27.0
 20
-74.0
 10
-1.7
 20
-74.0
  0
LINE
  5
97
330
92
100
AcDbEntity
  8
7
100
AcDbLine
 10
13.5
 20
-13.0
 30
0.0
 11
13.5
 21
-71.0
 31
0.0
  0
LINE
  5
98
330
92
100
AcDbEntity
  8
7
100
AcDbLine
 10
13.5
 20
-71.0
 30
0.0
 11
13.03269798922962
 21
-69.89472680719653
 31
0.0
  0
LINE
  5
99
330
92
100
AcDbEntity
  8
7
100
AcDbLine
 10
13.5
 20
-71.0
 30
0.0
 11
13.96730201077038
 21
-69.89472680719653
 31
0.0
  0
LINE
  5
9A
330
92
100
AcDbEntity
  8
7
100
AcDbLine
 10
13.5
 20
-13.0
 30
0.0
 11
13.96730201077038
 21
-14.105273192803462
 31
0.0
  0
LINE
  5
9B
330
92
100
AcDbEntity
  8
7
100
AcDbLine
 10
13.5
 20
-13.0
 30
0.0
 11
13.03269798922962
 21
-14.105273192803462
 31
0.0
  0
LINE
  5
9C
330
92
100
AcDbEntity
  8
4
100
AcDbLine
 10
18.935479337491376
 20
-12.338562303469661
 30
0.0
 11
18.238908007940115
 21
-12.269364161535172
 31
0.0
  0
LINE
  5
9D
330
92
100
AcDbEntity
  8
4
100
AcDbLine
 10
27.0
 20
-46.225
 30
0.0
 11
26.72878758688763
 21
-45.5796754096009
 31
0.0
  0
CIRCLE
  5
9E
330
92
100
AcDbEntity
  8
6
100
AcDbCircle
 10
14.850000000000001
 20
-26.5
 30
0.0
 40
0.15
  0
LINE
  5
9F
330
92
100
AcDbEntity
  8
11
100
AcDbLine
 10
0.0
 20
-10.0
 30
0.0
 11
0.0
 21
-74.0
 31
0.0
  0
TEXT
  5
A0
330
92
100
AcDbEntity
  8
13
100
AcDbText
 10
12.489320382152231
 20
-10.698193968741911
 30
0.0
 40
0.9
  1
DELANTERO #01
 72
1
 11
12.489320382152231
 21
-10.698193968741911
 31
0.0
100
AcDbText
 73
2
  0
TEXT
  5
A1
330
92
100
AcDbEntity
  8
15
100
AcDbText
 10
12.489320382152231
 20
-12.098193968741912
 30
0.0
 40
0.6
  1
T:XL  x2
 72
1
 11
12.489320382152231
 21
-12.098193968741912
 31
0.0
100
AcDbText
 73
2
  0
ENDBLK
  5
94
330
92
100
AcDbEntity
  8
0
100
AcDbBlockEnd
  0
BLOCK
  5
A5
330
A4
100
AcDbEntity
  8
0
100
AcDbBlockBegin
  2
P02_ESPALDA
 70
0
 10
0.0
 20
0.0
 30
0.0
  3
P02_ESPALDA
  1

  0
LWPOLYLINE
  5
A7
330
A4
100
AcDbEntity
  8
1
100
AcDbPolyline
 90
32
 70
1
 10
28.0
 20
-23.182656
 10
27.487479
 20
-22.456462
 10
27.158082
 20
-21.989409
 10
26.828767
 20
-21.521813
 10
26.499478
 20
-21.053269
 10
26.170158
 20
-20.583366
 10
25.840748
 20
-20.111696
 10
25.511191
 20
-19.637849
 10
25.181445
 20
-19.161439
 10
24.851955
 20
-18.682727
 10
24.524763
 20
-18.202713
 10
24.202679
 20
-17.72191
 10
23.888092
 20
-17.240218
 10
23.583353
 20
-16.757553
 10
23.290788
 20
-16.273885
 10
23.012684
 20
-15.789223
 10
22.751283
 20
-15.303616
 10
22.508759
 20
-14.817136
 10
22.287208
 20
-14.329863
 10
22.088626
 20
-13.841858
 10
21.914904
 20
-13.353128
 10
21.767766
 20
-12.863417
 10
21.648153
 20
-12.37012
 10
21.554807
 20
-11.869267
 10
21.485791
 20
-11.359211
 10
21.439538
 20
-10.840025
 10
21.414475
 20
-10.311962
 10
21.401059
 20
-9.0
 10
0.0
 20
-9.0
 10
0.0
 20
-75.0
 10
28.0
 20
-75.0
 10
28.0
 20
-23.182656
  0
LWPOLYLINE
  5
A8
330
A4
100
AcDbEntity
  8
8
100
AcDbPolyline
 90
31
 70
1
 10
0.0
 20
-10.0
 10
20.411232244350472
 20
-10.0
 10
20.41471709796919
 20
-10.340788825246822
 10
20.44164434746853
 20
-10.90812710538982
 10
20.49176099641321
 20
-11.470682356280909
 10
20.567175172025536
 20
-12.028019757079004
 10
20.669995001527816
 20
-12.579704486943024
 10
20.802290727536285
 20
-13.125307236766366
 10
20.96434344169668
 20
-13.664658996442919
 10
21.153908413558874
 20
-14.197958231265693
 10
21.36855018007159
 20
-14.725431155726202
 10
21.60583327818357
 20
-15.24730398431596
 10
21.863322244843538
 20
-15.763802931526493
 10
22.138581617000224
 20
-16.275154211849312
 10
22.42917593160237
 20
-16.781584039775936
 10
22.7326697255987
 20
-17.283318629797872
 10
23.046627535937944
 20
-17.78058419640665
 10
23.368613899568846
 20
-18.273606954093776
 10
23.696193353440126
 20
-18.76261311735077
 10
24.026930434500525
 20
-19.247828900669145
 10
24.358446593421295
 20
-19.729484621834782
 10
24.689580342733272
 20
-20.207898344836682
 10
25.0203382626494
 20
-20.68347234754608
 10
25.350774043083355
 20
-21.156612304290476
 10
25.680941373948848
 20
-21.627723889397384
 10
26.010893945159562
 20
-22.097212777194283
 10
26.340685446629195
 20
-22.56548464200869
 10
26.67036956827144
 20
-23.032945158168094
 10
27.0
 20
-23.5
 10
27.0
 20
-74.0
 10
0.0
 20
-74.0
  0
LINE
  5
A9
330
A4
100
AcDbEntity
  8
7
100
AcDbLine
 10
0.5
 20
-13.0
 30
0.0
 11
0.5
 21
-71.0
 31
0.0
  0
LINE
  5
AA
330
A4
100
AcDbEntity
  8
7
100
AcDbLine
 10
0.5
 20
-71.0
 30
0.0
 11
0.032697989229619584
 21
-69.89472680719653
 31
0.0
  0
LINE
  5
AB
330
A4
100
AcDbEntity
  8
7
100
AcDbLine
 10
0.5
 20
-71.0
 30
0.0
 11
0.9673020107703805
 21
-69.89472680719653
 31
0.0
  0
LINE
  5
AC
330
A4
100
AcDbEntity
  8
7
100
AcDbLine
 10
0.5
 20
-13.0
 30
0.0
 11
0.9673020107703805
 21
-14.105273192803462
 31
0.0
  0
LINE
  5
AD
330
A4
100
AcDbEntity
  8
7
100
AcDbLine
 10
0.5
 20
-13.0
 30
0.0
 11
0.032697989229619584
 21
-14.105273192803462
 31
0.0
  0
LINE
  5
AE
330
A4
100
AcDbEntity
  8
4
100
AcDbLine
 10
10.205616122175236
 20
-10.0
 30
0.0
 11
10.724089847102357
 21
-10.470303090102751
 31
0.0
  0
TEXT
  5
AF
330
A4
100
AcDbEntity
  8
13
100
AcDbText
 10
21.623083716748077
 20
-19.356687393619456
 30
0.0
 40
0.9
  1
ESPALDA #02
 72
1
 11
21.623083716748077
 21
-19.356687393619456
 31
0.0
100
AcDbText
 73
2
  0
TEXT
  5
B0
330
A4
100
AcDbEntity
  8
15
100
AcDbText
 10
21.623083716748077
 20
-20.756687393619455
 30
0.0
 40
0.6
  1
T:XL  x1  AL DOBLEZ
 72
1
 11
21.623083716748077
 21
-20.756687393619455
 31
0.0
100
AcDbText
 73
2
  0
ENDBLK
  5
A6
330
A4
100
AcDbEntity
  8
0
100
AcDbBlockEnd
  0
BLOCK
  5
B4
330
B3
100
AcDbEntity
  8
0
100
AcDbBlockBegin
  2
P03_CANESU
 70
0
 10
0.0
 20
0.0
 30
0.0
  3
P03_CANESU
  1

  0
LWPOLYLINE
  5
B6
330
B3
100
AcDbEntity
  8
1
100
AcDbPolyline
 90
44
 70
1
 10
21.408988
 20
-9.775391
 10
21.421408
 20
-9.230772
 10
21.450006
 20
-8.678619
 10
21.492988
 20
-8.11948
 10
21.548504
 20
-7.553919
 10
21.614651
 20
-6.982497
 10
21.689476
 20
-6.405764
 10
21.770989
 20
-5.824251
 10
21.85716
 20
-5.238464
 10
22.070442
 20
-3.821883
 10
7.571993
 20
1.099491
 10
6.94247
 20
0.705652
 10
6.718354
 20
0.566758
 10
6.496756
 20
0.432012
 10
6.27718
 20
0.302291
 10
6.05915
 20
0.178426
 10
5.842177
 20
0.061176
 10
5.624981
 20
-0.049169
 10
5.405533
 20
-0.153113
 10
5.182939
 20
-0.251101
 10
4.957413
 20
-0.343061
 10
4.729249
 20
-0.428886
 10
4.49874
 20
-0.508476
 10
4.266181
 20
-0.581733
 10
4.031871
 20
-0.648563
 10
3.796108
 20
-0.708878
 10
3.559191
 20
-0.762593
 10
3.321299
 20
-0.809652
 10
3.081827
 20
-0.850187
 10
2.839819
 20
-0.884686
 10
2.594992
 20
-0.913625
 10
2.34736
 20
-0.937445
 10
2.096956
 20
-0.956594
 10
1.843829
 20
-0.971534
 10
1.588041
 20
-0.982739
 10
1.32966
 20
-0.990701
 10
1.068761
 20
-0.995922
 10
0.80542
 20
-0.998923
 10
0.539714
 20
-1.000235
 10
0.271717
 20
-1.000408
 10
0.0
 20
-0.999999
 10
0.0
 20
-11.0
 10
21.42151
 20
-11.0
 10
21.408988
 20
-9.775391
  0
LWPOLYLINE
  5
B7
330
B3
100
AcDbEntity
  8
8
100
AcDbPolyline
 90
43
 70
1
 10
0.0
 20
-2.0
 10
0.27128684222486527
 20
-2.0004079887350206
 10
0.5425052243782933
 20
-2.000233609164595
 10
0.8135866863888466
 20
-1.9988944929832757
 10
1.0844627681850885
 20
-1.9958082718856174
 10
1.3550650096955807
 20
-1.990392577566173
 10
1.6253249508488872
 20
-1.982065041719496
 10
1.89517413157357
 20
-1.9702432960401401
 10
2.1645440917981924
 20
-1.9543449722226582
 10
2.433366371451315
 20
-1.9337877019616045
 10
2.701572510461504
 20
-1.9079891169515324
 10
2.96909404875732
 20
-1.8763668488869947
 10
3.2358625262673257
 20
-1.8383385294625458
 10
3.5018093923090094
 20
-1.7933220875534153
 10
3.7668162267077294
 20
-1.7408990109534948
 10
4.030632139632279
 20
-1.681085253356712
 10
4.29298449056981
 20
-1.6139681050160375
 10
4.553600639007476
 20
-1.5396348561844426
 10
4.812207944432424
 20
-1.4581727971148972
 10
5.068533766331808
 20
-1.369669218060372
 10
5.3223054641927785
 20
-1.274211409273839
 10
5.573250397502485
 20
-1.1718866610082677
 10
5.821095925748081
 20
-1.0627822635166284
 10
6.065569408416717
 20
-0.9469855070518932
 10
6.306429949831344
 20
-0.8246179469317978
 10
6.543893771504844
 20
-0.6962945462906319
 10
6.778520058644494
 20
-0.5630004599144844
 10
7.010876318157066
 20
-0.42572982495035083
 10
7.241530056949328
 20
-0.2854767785452278
 10
7.471048781928049
 20
-0.14323545784611236
 10
7.7
 20
-0.0
 10
20.957073583562853
 20
-4.5
 10
20.86805383583547
 20
-5.091253426402547
 10
20.781142215330394
 20
-5.682072031964011
 10
20.69844684926992
 20
-6.2720209958433095
 10
20.622075864876365
 20
-6.860665497199361
 10
20.554137389372023
 20
-7.44757071519108
 10
20.496739549979203
 20
-8.032301828977387
 10
20.451990473920205
 20
-8.614424017717196
 10
20.42199828841733
 20
-9.193502460569427
 10
20.408871120692893
 20
-9.769102336692999
 10
20.411232244350472
 20
-10.0
 10
0.0
 20
-10.0
  0
LINE
  5
B8
330
B3
100
AcDbEntity
  8
7
100
AcDbLine
 10
4.62
 20
-1.0
 30
0.0
 11
4.62
 21
-9.5
 31
0.0
  0
LINE
  5
B9
330
B3
100
AcDbEntity
  8
7
100
AcDbLine
 10
4.62
 20
-9.5
 30
0.0
 11
4.15269798922962
 21
-8.394726807196538
 31
0.0
  0
LINE
  5
BA
330
B3
100
AcDbEntity
  8
7
100
AcDbLine
 10
4.62
 20
-9.5
 30
0.0
 11
5.08730201077038
 21
-8.394726807196538
 31
0.0
  0
LINE
  5
BB
330
B3
100
AcDbEntity
  8
7
100
AcDbLine
 10
4.62
 20
-1.0
 30
0.0
 11
5.08730201077038
 21
-2.105273192803462
 31
0.0
  0
LINE
  5
BC
330
B3
100
AcDbEntity
  8
7
100
AcDbLine
 10
4.62
 20
-1.0
 30
0.0
 11
4.15269798922962
 21
-2.105273192803462
 31
0.0
  0
LINE
  5
BD
330
B3
100
AcDbEntity
  8
4
100
AcDbLine
 10
10.205616122175236
 20
-10.0
 30
0.0
 11
10.002662630842671
 21
-9.330067256841463
 31
0.0
  0
TEXT
  5
BE
330
B3
100
AcDbEntity
  8
13
100
AcDbText
 10
8.130807239755898
 20
-2.1512269288768735
 30
0.0
 40
0.9
  1
CANESU #03
 72
1
 11
8.130807239755898
 21
-2.1512269288768735
 31
0.0
100
AcDbText
 73
2
  0
TEXT
  5
BF
330
B3
100
AcDbEntity
  8
15
100
AcDbText
 10
8.130807239755898
 20
-3.5512269288768734
 30
0.0
 40
0.6
  1
T:XL  x2  AL DOBLEZ
 72
1
 11
8.130807239755898
 21
-3.5512269288768734
 31
0.0
100
AcDbText
 73
2
  0
ENDBLK
  5
B5
330
B3
100
AcDbEntity
  8
0
100
AcDbBlockEnd
  0
BLOCK
  5
C3
330
C2
100
AcDbEntity
  8
0
100
AcDbBlockBegin
  2
P04_MANGA
 70
0
 10
0.0
 20
0.0
 30
0.0
  3
P04_MANGA
  1

  0
LWPOLYLINE
  5
C5
330
C2
100
AcDbEntity
  8
1
100
AcDbPolyline
 90
68
 70
1
 10
-14.409232
 20
-65.5
 10
14.409232
 20
-65.5
 10
19.760973
 20
-9.34274
 10
18.924313
 20
-8.538896
 10
18.429375
 20
-8.068967
 10
17.925031
 20
-7.60134
 10
17.409382
 20
-7.140021
 10
16.883226
 20
-6.689451
 10
16.34897
 20
-6.25085
 10
15.807535
 20
-5.823463
 10
15.259576
 20
-5.406321
 10
14.705734
 20
-4.998449
 10
14.14664
 20
-4.598877
 10
13.582914
 20
-4.206633
 10
13.015167
 20
-3.820752
 10
12.443956
 20
-3.440242
 10
11.868715
 20
-3.063477
 10
11.287221
 20
-2.689948
 10
10.69767
 20
-2.321683
 10
10.099295
 20
-1.961544
 10
9.491339
 20
-1.612462
 10
8.873017
 20
-1.277416
 10
8.243524
 20
-0.959444
 10
7.602056
 20
-0.661656
 10
6.947833
 20
-0.387243
 10
6.280211
 20
-0.139517
 10
5.600844
 20
0.077558
 10
4.914745
 20
0.262807
 10
4.225863
 20
0.419576
 10
3.535662
 20
0.552107
 10
2.845365
 20
0.66459
 10
2.156116
 20
0.76112
 10
1.469021
 20
0.845687
 10
0.785175
 20
0.922183
 10
0.022761
 20
1.003213
 10
-0.752033
 20
0.95627
 10
-1.447843
 20
0.910443
 10
-2.146945
 20
0.856994
 10
-2.848395
 20
0.792139
 10
-3.551247
 20
0.711999
 10
-4.254533
 20
0.612602
 10
-4.957224
 20
0.489878
 10
-5.65819
 20
0.339672
 10
-6.355052
 20
0.158053
 10
-7.042835
 20
-0.056284
 10
-7.718382
 20
-0.300063
 10
-8.381763
 20
-0.570067
 10
-9.033597
 20
-0.863302
 10
-9.674552
 20
-1.17685
 10
-10.305321
 20
-1.507861
 10
-10.926595
 20
-1.853551
 10
-11.539057
 20
-2.211184
 10
-12.143364
 20
-2.578069
 10
-12.74038
 20
-2.951691
 10
-13.332795
 20
-3.33123
 10
-13.922273
 20
-3.719445
 10
-14.507419
 20
-4.119428
 10
-15.085714
 20
-4.533653
 10
-15.654578
 20
-4.964645
 10
-16.211355
 20
-5.414975
 10
-16.753289
 20
-5.887235
 10
-17.277498
 20
-6.384013
 10
-17.780706
 20
-6.907586
 10
-18.256458
 20
-7.455765
 10
-18.702299
 20
-8.017704
 10
-19.123974
 20
-8.582433
 10
-19.750929
 20
-9.448139
 10
-14.409232
 20
-65.5
  0
LWPOLYLINE
  5
C6
330
C2
100
AcDbEntity
  8
8
100
AcDbPolyline
 90
67
 70
1
 10
-18.71963208450896
 20
-9.729000000000001
 10
-18.318338021665554
 20
-9.17488791795008
 10
-17.90979990771622
 20
-8.62775227972034
 10
-17.48677369155502
 20
-8.094569529130961
 10
-17.04211699828073
 20
-7.582219824266781
 10
-16.57268906149478
 20
-7.093793864131182
 10
-16.080575840426786
 20
-6.62743272237447
 10
-15.568215486300215
 20
-6.180943952476598
 10
-15.038046150338522
 20
-5.7521351079175185
 10
-14.492505983765176
 20
-5.3388137421771855
 10
-13.934033137803635
 20
-4.938787408735543
 10
-13.365065763677366
 20
-4.54986366107255
 10
-12.788042012609829
 20
-4.169850052668155
 10
-12.205391850188168
 20
-3.7965674022045626
 10
-11.618611274259617
 20
-3.429350066283846
 10
-11.02741199683047
 20
-3.0704239192391465
 10
-10.431304800872041
 20
-2.7223404501980033
 10
-9.829800469355659
 20
-2.3876511482879583
 10
-9.222409785252651
 20
-2.068907502636554
 10
-8.608643531534339
 20
-1.7686610023713287
 10
-7.988012491172052
 20
-1.4894631366198254
 10
-7.360027447137115
 20
-1.2338653945095857
 10
-6.724199182400853
 20
-1.0044192651681503
 10
-6.0800384799345935
 20
-0.8036762377230597
 10
-5.427215275962788
 20
-0.6335353078608095
 10
-4.766367831363827
 20
-0.4919255525066925
 10
-4.098498600806312
 20
-0.3752829339011816
 10
-3.424610696570035
 20
-0.2800407182230478
 10
-2.7457072309347894
 20
-0.20263217165106132
 10
-2.0627913161803693
 20
-0.13949056036399282
 10
-1.3768660645865691
 20
-0.08704915054061273
 10
-0.6889345884331813
 20
-0.04174120835969162
 10
0.0
 20
-0.0
 10
0.6767472539570495
 20
-0.07192518806728479
 10
1.3523540611990035
 20
-0.14749954797570125
 10
2.025679975010766
 20
-0.23037225156638114
 10
2.6955845486772434
 20
-0.3241924706804562
 10
3.360927335483338
 20
-0.4326093771590581
 10
4.0205678887139555
 20
-0.5592721428433185
 10
4.673365761654002
 20
-0.7078299395743693
 10
5.318180507588378
 20
-0.8819319391933419
 10
5.953915185525413
 20
-1.085064579775886
 10
6.580331784477969
 20
-1.3175014597312504
 10
7.1979791775466415
 20
-1.5765728265593375
 10
7.807435299695778
 20
-1.859500221453175
 10
8.409278085889733
 20
-2.1635051856057927
 10
9.004085471092857
 20
-2.4858092602102193
 10
9.592435390269493
 20
-2.8236339864594835
 10
10.174905778384002
 20
-3.1742009055466136
 10
10.752074570400728
 20
-3.53473155866464
 10
11.324519701284022
 20
-3.9024474870065906
 10
11.892794235020569
 20
-4.27464967548769
 10
12.456893044205822
 20
-4.6504221029370365
 10
13.016260392948595
 20
-5.03060752052608
 10
13.570317191049892
 20
-5.416123278550053
 10
14.11848434831071
 20
-5.80788672730419
 10
14.660182774532048
 20
-6.206815217083727
 10
15.194833379514911
 20
-6.613826098183896
 10
15.721857073060294
 20
-7.029836720899928
 10
16.2406747649692
 20
-7.455764435527062
 10
16.750707365042633
 20
-7.892526592360529
 10
17.251645298859252
 20
-8.34068471448204
 10
17.745121596640473
 20
-8.798235608343328
 10
18.23362105134411
 20
-9.262051543778254
 10
18.71963208450896
 20
-9.729000000000001
 10
13.5
 20
-64.5
 10
-13.5
 20
-64.5
  0
LINE
  5
C7
330
C2
100
AcDbEntity
  8
7
100
AcDbLine
 10
0.0
 20
-3.8916000000000004
 30
0.0
 11
0.0
 21
-62.5
 31
0.0
  0
LINE
  5
C8
330
C2
100
AcDbEntity
  8
7
100
AcDbLine
 10
0.0
 20
-62.5
 30
0.0
 11
-0.4673020107703804
 21
-61.39472680719654
 31
0.0
  0
LINE
  5
C9
330
C2
100
AcDbEntity
  8
7
100
AcDbLine
 10
0.0
 20
-62.5
 30
0.0
 11
0.4673020107703805
 21
-61.39472680719654
 31
0.0
  0
LINE
  5
CA
330
C2
100
AcDbEntity
  8
7
100
AcDbLine
 10
0.0
 20
-3.8916000000000004
 30
0.0
 11
0.4673020107703805
 21
-4.996873192803463
 31
0.0
  0
LINE
  5
CB
330
C2
100
AcDbEntity
  8
7
100
AcDbLine
 10
0.0
 20
-3.8916000000000004
 30
0.0
 11
-0.4673020107703804
 21
-4.996873192803463
 31
0.0
  0
LINE
  5
CC
330
C2
100
AcDbEntity
  8
4
100
AcDbLine
 10
8.991996091519626
 20
-2.4792584735306606
 30
0.0
 11
8.327127062800031
 21
-2.6982314733490456
 31
0.0
  0
LINE
  5
CD
330
C2
100
AcDbEntity
  8
4
100
AcDbLine
 10
-9.371288215306228
 20
-2.147035229643455
 30
0.0
 11
-8.712373719496869
 21
-2.383322527677643
 31
0.0
  0
LINE
  5
CE
330
C2
100
AcDbEntity
  8
4
100
AcDbLine
 10
-10.890660878193305
 20
-2.990571161055364
 30
0.0
 11
-10.208467691130673
 21
-3.1474547342086088
 31
0.0
  0
CIRCLE
  5
CF
330
C2
100
AcDbEntity
  8
6
100
AcDbCircle
 10
4.67990802112724
 20
-52.5
 30
0.0
 40
0.15
  0
LINE
  5
D0
330
C2
100
AcDbEntity
  8
11
100
AcDbLine
 10
4.67990802112724
 20
-64.5
 30
0.0
 11
4.67990802112724
 21
-52.5
 31
0.0
  0
TEXT
  5
D1
330
C2
100
AcDbEntity
  8
13
100
AcDbText
 10
-0.09715350264269136
 20
-4.472747817235928
 30
0.0
 40
0.9
  1
MANGA #04
 72
1
 11
-0.09715350264269136
 21
-4.472747817235928
 31
0.0
100
AcDbText
 73
2
  0
TEXT
  5
D2
330
C2
100
AcDbEntity
  8
15
100
AcDbText
 10
-0.09715350264269136
 20
-5.872747817235928
 30
0.0
 40
0.6
  1
T:XL  x2
 72
1
 11
-0.09715350264269136
 21
-5.872747817235928
 31
0.0
100
AcDbText
 73
2
  0
ENDBLK
  5
C4
330
C2
100
AcDbEntity
  8
0
100
AcDbBlockEnd
  0
BLOCK
  5
D6
330
D5
100
AcDbEntity
  8
0
100
AcDbBlockBegin
  2
P05_PUNO
 70
0
 10
0.0
 20
0.0
 30
0.0
  3
P05_PUNO
  1

  0
LWPOLYLINE
  5
D8
330
D5
100
AcDbEntity
  8
1
100
AcDbPolyline
 90
37
 70
1
 10
-1.0
 20
-11.249127
 10
-0.970159
 20
-11.552107
 10
-0.867453
 20
-11.890682
 10
-0.700668
 20
-12.202715
 10
-0.476214
 20
-12.476214
 10
-0.202715
 20
-12.700668
 10
0.109318
 20
-12.867453
 10
0.447893
 20
-12.970159
 10
0.750873
 20
-13.0
 10
25.249127
 20
-13.0
 10
25.552107
 20
-12.970159
 10
25.890682
 20
-12.867453
 10
26.202715
 20
-12.700668
 10
26.476214
 20
-12.476214
 10
26.700668
 20
-12.202715
 10
26.867453
 20
-11.890682
 10
26.970159
 20
-11.552107
 10
27.0
 20
-11.249127
 10
27.0
 20
-0.750873
 10
26.970159
 20
-0.447893
 10
26.867453
 20
-0.109318
 10
26.700668
 20
0.202715
 10
26.476214
 20
0.476214
 10
26.202715
 20
0.700668
 10
25.890682
 20
0.867453
 10
25.552107
 20
0.970159
 10
25.249127
 20
1.0
 10
0.750873
 20
1.0
 10
0.447893
 20
0.970159
 10
0.109318
 20
0.867453
 10
-0.202715
 20
0.700668
 10
-0.476214
 20
0.476214
 10
-0.700668
 20
0.202715
 10
-0.867453
 20
-0.109318
 10
-0.970159
 20
-0.447893
 10
-1.0
 20
-0.750873
 10
-1.0
 20
-11.249127
  0
LWPOLYLINE
  5
D9
330
D5
100
AcDbEntity
  8
8
100
AcDbPolyline
 90
36
 70
1
 10
0.0
 20
-0.8000000000000002
 10
0.015371775677415656
 20
-0.6439277423870974
 10
0.060896373990970476
 20
-0.4938532541079283
 10
0.1348243101579636
 20
-0.35554381358431847
 10
0.23431457505076192
 20
-0.23431457505076203
 10
0.3555438135843183
 20
-0.1348243101579638
 10
0.49385325410792774
 20
-0.06089637399097081
 10
0.643927742387097
 20
-0.015371775677415767
 10
0.7999999999999999
 20
-0.0
 10
25.2
 20
-0.0
 10
25.3560722576129
 20
-0.015371775677415656
 10
25.50614674589207
 20
-0.06089637399097059
 10
25.64445618641568
 20
-0.13482431015796392
 10
25.765685424949236
 20
-0.23431457505076203
 10
25.865175689842037
 20
-0.35554381358431836
 10
25.93910362600903
 20
-0.49385325410792835
 10
25.984628224322584
 20
-0.6439277423870976
 10
26.0
 20
-0.8000000000000003
 10
26.0
 20
-11.2
 10
25.984628224322584
 20
-11.356072257612903
 10
25.93910362600903
 20
-11.506146745892071
 10
25.865175689842037
 20
-11.644456186415681
 10
25.765685424949236
 20
-11.765685424949238
 10
25.64445618641568
 20
-11.865175689842035
 10
25.50614674589207
 20
-11.939103626009029
 10
25.3560722576129
 20
-11.984628224322584
 10
25.2
 20
-12.0
 10
0.8
 20
-12.0
 10
0.6439277423870975
 20
-11.984628224322584
 10
0.49385325410792824
 20
-11.939103626009029
 10
0.35554381358431847
 20
-11.865175689842037
 10
0.23431457505076203
 20
-11.765685424949238
 10
0.1348243101579637
 20
-11.644456186415681
 10
0.06089637399097059
 20
-11.506146745892071
 10
0.015371775677415656
 20
-11.356072257612903
 10
0.0
 20
-11.2
  0
LINE
  5
DA
330
D5
100
AcDbEntity
  8
7
100
AcDbLine
 10
13.0
 20
-0.5
 30
0.0
 11
13.0
 21
-11.5
 31
0.0
  0
LINE
  5
DB
330
D5
100
AcDbEntity
  8
7
100
AcDbLine
 10
13.0
 20
-11.5
 30
0.0
 11
12.53269798922962
 21
-10.394726807196538
 31
0.0
  0
LINE
  5
DC
330
D5
100
AcDbEntity
  8
7
100
AcDbLine
 10
13.0
 20
-11.5
 30
0.0
 11
13.46730201077038
 21
-10.394726807196538
 31
0.0
  0
LINE
  5
DD
330
D5
100
AcDbEntity
  8
7
100
AcDbLine
 10
13.0
 20
-0.5
 30
0.0
 11
13.46730201077038
 21
-1.605273192803462
 31
0.0
  0
LINE
  5
DE
330
D5
100
AcDbEntity
  8
7
100
AcDbLine
 10
13.0
 20
-0.5
 30
0.0
 11
12.53269798922962
 21
-1.605273192803462
 31
0.0
  0
LINE
  5
DF
330
D5
100
AcDbEntity
  8
11
100
AcDbLine
 10
0.0
 20
-6.0
 30
0.0
 11
26.0
 21
-6.0
 31
0.0
  0
TEXT
  5
E0
330
D5
100
AcDbEntity
  8
13
100
AcDbText
 10
12.999999999999998
 20
-4.999999999999999
 30
0.0
 40
0.9
  1
PUNO #05
 72
1
 11
12.999999999999998
 21
-4.999999999999999
 31
0.0
100
AcDbText
 73
2
  0
TEXT
  5
E1
330
D5
100
AcDbEntity
  8
15
100
AcDbText
 10
12.999999999999998
 20
-6.3999999999999995
 30
0.0
 40
0.6
  1
T:XL  x4
 72
1
 11
12.999999999999998
 21
-6.3999999999999995
 31
0.0
100
AcDbText
 73
2
  0
ENDBLK
  5
D7
330
D5
100
AcDbEntity
  8
0
100
AcDbBlockEnd
  0
BLOCK
  5
E5
330
E4
100
AcDbEntity
  8
0
100
AcDbBlockBegin
  2
P06_TAPETA_MANGA
 70
0
 10
0.0
 20
0.0
 30
0.0
  3
P06_TAPETA_MANGA
  1

  0
LWPOLYLINE
  5
E7
330
E4
100
AcDbEntity
  8
1
100
AcDbPolyline
 90
37
 70
1
 10
-1.0
 20
-2.649127
 10
-0.977845
 20
-2.87407
 10
-0.897902
 20
-3.137608
 10
-0.768081
 20
-3.380486
 10
-0.593371
 20
-3.593371
 10
-0.380486
 20
-3.768081
 10
-0.137608
 20
-3.897902
 10
0.12593
 20
-3.977845
 10
0.350873
 20
-4.0
 10
11.649127
 20
-4.0
 10
11.87407
 20
-3.977845
 10
12.137608
 20
-3.897902
 10
12.380486
 20
-3.768081
 10
12.593371
 20
-3.593371
 10
12.768081
 20
-3.380486
 10
12.897902
 20
-3.137608
 10
12.977845
 20
-2.87407
 10
13.0
 20
-2.649127
 10
13.0
 20
-0.350873
 10
12.977845
 20
-0.12593
 10
12.897902
 20
0.137608
 10
12.768081
 20
0.380486
 10
12.593371
 20
0.593371
 10
12.380486
 20
0.768081
 10
12.137608
 20
0.897902
 10
11.87407
 20
0.977845
 10
11.649127
 20
1.0
 10
0.350873
 20
1.0
 10
0.12593
 20
0.977845
 10
-0.137608
 20
0.897902
 10
-0.380486
 20
0.768081
 10
-0.593371
 20
0.593371
 10
-0.768081
 20
0.380486
 10
-0.897902
 20
0.137608
 10
-0.977845
 20
-0.12593
 10
-1.0
 20
-0.350873
 10
-1.0
 20
-2.649127
  0
LWPOLYLINE
  5
E8
330
E4
100
AcDbEntity
  8
8
100
AcDbPolyline
 90
36
 70
1
 10
0.0
 20
-0.4000000000000001
 10
0.007685887838707828
 20
-0.3219638711935487
 10
0.030448186995485238
 20
-0.24692662705396415
 10
0.0674121550789818
 20
-0.17777190679215923
 10
0.11715728752538096
 20
-0.11715728752538102
 10
0.17777190679215915
 20
-0.0674121550789819
 10
0.24692662705396387
 20
-0.030448186995485405
 10
0.3219638711935485
 20
-0.007685887838707883
 10
0.39999999999999997
 20
-0.0
 10
11.6
 20
-0.0
 10
11.67803612880645
 20
-0.007685887838707828
 10
11.753073372946035
 20
-0.030448186995485294
 10
11.82222809320784
 20
-0.06741215507898196
 10
11.882842712474618
 20
-0.11715728752538102
 10
11.932587844921018
 20
-0.17777190679215918
 10
11.969551813004514
 20
-0.24692662705396418
 10
11.992314112161292
 20
-0.3219638711935488
 10
12.0
 20
-0.40000000000000013
 10
12.0
 20
-2.6
 10
11.992314112161292
 20
-2.6780361288064514
 10
11.969551813004514
 20
-2.753073372946036
 10
11.932587844921018
 20
-2.822228093207841
 10
11.882842712474618
 20
-2.882842712474619
 10
11.82222809320784
 20
-2.9325878449210183
 10
11.753073372946035
 20
-2.969551813004515
 10
11.67803612880645
 20
-2.992314112161292
 10
11.6
 20
-3.0
 10
0.4
 20
-3.0
 10
0.32196387119354875
 20
-2.992314112161292
 10
0.24692662705396412
 20
-2.969551813004515
 10
0.17777190679215923
 20
-2.9325878449210183
 10
0.11715728752538102
 20
-2.882842712474619
 10
0.06741215507898185
 20
-2.822228093207841
 10
0.030448186995485294
 20
-2.753073372946036
 10
0.007685887838707828
 20
-2.6780361288064514
 10
0.0
 20
-2.6
  0
LINE
  5
E9
330
E4
100
AcDbEntity
  8
7
100
AcDbLine
 10
6.0
 20
-0.4
 30
0.0
 11
6.0
 21
-2.6
 31
0.0
  0
LINE
  5
EA
330
E4
100
AcDbEntity
  8
7
100
AcDbLine
 10
6.0
 20
-2.6
 30
0.0
 11
5.53269798922962
 21
-1.494726807196538
 31
0.0
  0
LINE
  5
EB
330
E4
100
AcDbEntity
  8
7
100
AcDbLine
 10
6.0
 20
-2.6
 30
0.0
 11
6.46730201077038
 21
-1.494726807196538
 31
0.0
  0
LINE
  5
EC
330
E4
100
AcDbEntity
  8
7
100
AcDbLine
 10
6.0
 20
-0.4
 30
0.0
 11
6.46730201077038
 21
-1.505273192803462
 31
0.0
  0
LINE
  5
ED
330
E4
100
AcDbEntity
  8
7
100
AcDbLine
 10
6.0
 20
-0.4
 30
0.0
 11
5.53269798922962
 21
-1.505273192803462
 31
0.0
  0
TEXT
  5
EE
330
E4
100
AcDbEntity
  8
13
100
AcDbText
 10
5.999999999999999
 20
-0.5
 30
0.0
 40
0.9
  1
TAPETA MANGA #06
 72
1
 11
5.999999999999999
 21
-0.5
 31
0.0
100
AcDbText
 73
2
  0
TEXT
  5
EF
330
E4
100
AcDbEntity
  8
15
100
AcDbText
 10
5.999999999999999
 20
-1.9
 30
0.0
 40
0.6
  1
T:XL  x2
 72
1
 11
5.999999999999999
 21
-1.9
 31
0.0
100
AcDbText
 73
2
  0
ENDBLK
  5
E6
330
E4
100
AcDbEntity
  8
0
100
AcDbBlockEnd
  0
BLOCK
  5
F3
330
F2
100
AcDbEntity
  8
0
100
AcDbBlockBegin
  2
P07_CUELLO
 70
0
 10
0.0
 20
0.0
 30
0.0
  3
P07_CUELLO
  1

  0
LWPOLYLINE
  5
F5
330
F2
100
AcDbEntity
  8
1
100
AcDbPolyline
 90
84
 70
1
 10
0.862386
 20
-5.675193
 10
1.388608
 20
-5.764262
 10
1.914873
 20
-5.848248
 10
2.441178
 20
-5.927151
 10
2.967523
 20
-6.000968
 10
3.493904
 20
-6.069699
 10
4.020318
 20
-6.133343
 10
4.546764
 20
-6.191899
 10
5.07324
 20
-6.245367
 10
5.599741
 20
-6.293744
 10
6.126267
 20
-6.337031
 10
6.652814
 20
-6.375228
 10
7.17938
 20
-6.408332
 10
7.705962
 20
-6.436344
 10
8.232557
 20
-6.459264
 10
8.759163
 20
-6.477091
 10
9.285778
 20
-6.489825
 10
9.812398
 20
-6.497465
 10
10.33902
 20
-6.500012
 10
10.865643
 20
-6.497465
 10
11.392263
 20
-6.489825
 10
11.918877
 20
-6.477091
 10
12.445483
 20
-6.459264
 10
12.972079
 20
-6.436344
 10
13.498661
 20
-6.408332
 10
14.025227
 20
-6.375228
 10
14.551774
 20
-6.337031
 10
15.078299
 20
-6.293744
 10
15.604801
 20
-6.245367
 10
16.131276
 20
-6.191899
 10
16.657722
 20
-6.133343
 10
17.184137
 20
-6.069699
 10
17.710518
 20
-6.000968
 10
18.236862
 20
-5.927151
 10
18.763168
 20
-5.848248
 10
19.289433
 20
-5.764262
 10
19.815654
 20
-5.675193
 10
20.178058
 20
-5.610346
 10
22.234602
 20
-9.037919
 10
23.28982
 20
-8.638936
 10
21.479174
 20
1.168729
 10
19.980348
 20
0.886042
 10
19.472623
 20
0.795193
 10
18.964942
 20
0.709262
 10
18.457305
 20
0.628248
 10
17.949709
 20
0.552151
 10
17.442151
 20
0.480968
 10
16.93463
 20
0.414699
 10
16.427143
 20
0.353343
 10
15.919687
 20
0.296899
 10
15.41226
 20
0.245367
 10
14.904859
 20
0.198744
 10
14.397483
 20
0.157031
 10
13.890128
 20
0.120228
 10
13.382792
 20
0.088332
 10
12.875472
 20
0.061344
 10
12.368165
 20
0.039264
 10
11.86087
 20
0.022091
 10
11.353582
 20
0.009825
 10
10.8463
 20
0.002465
 10
10.33902
 20
1.2e-05
 10
9.831741
 20
0.002465
 10
9.324459
 20
0.009825
 10
8.817171
 20
0.022091
 10
8.309875
 20
0.039264
 10
7.802569
 20
0.061344
 10
7.295249
 20
0.088332
 10
6.787912
 20
0.120228
 10
6.280557
 20
0.157031
 10
5.773181
 20
0.198744
 10
5.265781
 20
0.245367
 10
4.758354
 20
0.296899
 10
4.250898
 20
0.353343
 10
3.743411
 20
0.414699
 10
3.235889
 20
0.480968
 10
2.728332
 20
0.552151
 10
2.220735
 20
0.628248
 10
1.713098
 20
0.709262
 10
1.205418
 20
0.795193
 10
0.697692
 20
0.886042
 10
0.0
 20
1.017631
 10
0.0
 20
-5.517631
 10
0.33621
 20
-5.581042
 10
0.862386
 20
-5.675193
  0
LWPOLYLINE
  5
F6
330
F2
100
AcDbEntity
  8
8
100
AcDbPolyline
 90
83
 70
1
 10
0.0
 20
-0.0
 10
0.5169510132818108
 20
-0.09750000000000003
 10
1.0339020265636216
 20
-0.18999999999999995
 10
1.550853039845432
 20
-0.2775000000000001
 10
2.0678040531272432
 20
-0.3599999999999999
 10
2.5847550664090537
 20
-0.4375
 10
3.101706079690864
 20
-0.51
 10
3.618657092972675
 20
-0.5774999999999999
 10
4.1356081062544865
 20
-0.64
 10
4.6525591195362965
 20
-0.6975
 10
5.1695101328181075
 20
-0.75
 10
5.686461146099918
 20
-0.7975000000000001
 10
6.203412159381728
 20
-0.84
 10
6.72036317266354
 20
-0.8775000000000001
 10
7.23731418594535
 20
-0.9099999999999999
 10
7.754265199227161
 20
-0.9375
 10
8.271216212508973
 20
-0.96
 10
8.788167225790783
 20
-0.9775
 10
9.305118239072593
 20
-0.99
 10
9.822069252354403
 20
-0.9974999999999999
 10
10.339020265636215
 20
-1.0
 10
10.855971278918027
 20
-0.9974999999999999
 10
11.372922292199837
 20
-0.99
 10
11.889873305481647
 20
-0.9775
 10
12.406824318763457
 20
-0.96
 10
12.923775332045269
 20
-0.9375
 10
13.44072634532708
 20
-0.9099999999999999
 10
13.95767735860889
 20
-0.8775
 10
14.4746283718907
 20
-0.8400000000000001
 10
14.99157938517251
 20
-0.7975000000000001
 10
15.508530398454322
 20
-0.75
 10
16.025481411736134
 20
-0.6975
 10
16.542432425017946
 20
-0.6399999999999999
 10
17.059383438299754
 20
-0.5775000000000001
 10
17.576334451581566
 20
-0.51
 10
18.093285464863378
 20
-0.4375
 10
18.610236478145186
 20
-0.3599999999999999
 10
19.127187491426998
 20
-0.27749999999999986
 10
19.644138504708806
 20
-0.19000000000000017
 10
20.161089517990618
 20
-0.09750000000000003
 10
20.67804053127243
 20
-0.0
 10
21.87804053127243
 20
-6.5
 10
20.67804053127243
 20
-4.5
 10
20.161089517990618
 20
-4.5975
 10
19.644138504708806
 20
-4.69
 10
19.127187491426998
 20
-4.7775
 10
18.610236478145186
 20
-4.859999999999999
 10
18.093285464863378
 20
-4.9375
 10
17.576334451581566
 20
-5.01
 10
17.059383438299754
 20
-5.077500000000001
 10
16.542432425017946
 20
-5.14
 10
16.025481411736134
 20
-5.1975
 10
15.508530398454322
 20
-5.25
 10
14.99157938517251
 20
-5.2975
 10
14.4746283718907
 20
-5.34
 10
13.95767735860889
 20
-5.3774999999999995
 10
13.44072634532708
 20
-5.41
 10
12.923775332045269
 20
-5.4375
 10
12.406824318763457
 20
-5.46
 10
11.889873305481647
 20
-5.4775
 10
11.372922292199837
 20
-5.49
 10
10.855971278918027
 20
-5.4975
 10
10.339020265636215
 20
-5.5
 10
9.822069252354403
 20
-5.4975
 10
9.305118239072593
 20
-5.49
 10
8.788167225790783
 20
-5.4775
 10
8.271216212508973
 20
-5.46
 10
7.754265199227161
 20
-5.4375
 10
7.23731418594535
 20
-5.41
 10
6.72036317266354
 20
-5.3775
 10
6.203412159381728
 20
-5.34
 10
5.686461146099918
 20
-5.2975
 10
5.1695101328181075
 20
-5.25
 10
4.6525591195362965
 20
-5.1975
 10
4.1356081062544865
 20
-5.14
 10
3.618657092972675
 20
-5.0775
 10
3.101706079690864
 20
-5.01
 10
2.5847550664090537
 20
-4.9375
 10
2.0678040531272432
 20
-4.859999999999999
 10
1.550853039845432
 20
-4.7775
 10
1.0339020265636216
 20
-4.6899999999999995
 10
0.5169510132818108
 20
-4.5975
 10
0.0
 20
-4.5
  0
LINE
  5
F7
330
F2
100
AcDbEntity
  8
7
100
AcDbLine
 10
0.5
 20
-0.5
 30
0.0
 11
20.17804053127243
 21
-0.5
 31
0.0
  0
LINE
  5
F8
330
F2
100
AcDbEntity
  8
7
100
AcDbLine
 10
20.17804053127243
 20
-0.5
 30
0.0
 11
19.072767338468967
 21
-0.9673020107703804
 31
0.0
  0
LINE
  5
F9
330
F2
100
AcDbEntity
  8
7
100
AcDbLine
 10
20.17804053127243
 20
-0.5
 30
0.0
 11
19.072767338468967
 21
-0.03269798922961942
 31
0.0
  0
LINE
  5
FA
330
F2
100
AcDbEntity
  8
7
100
AcDbLine
 10
0.5
 20
-0.5
 30
0.0
 11
1.605273192803462
 21
-0.03269798922961942
 31
0.0
  0
LINE
  5
FB
330
F2
100
AcDbEntity
  8
7
100
AcDbLine
 10
0.5
 20
-0.5
 30
0.0
 11
1.605273192803462
 21
-0.9673020107703806
 31
0.0
  0
TEXT
  5
FC
330
F2
100
AcDbEntity
  8
13
100
AcDbText
 10
10.478044606186042
 20
-1.9433734939759035
 30
0.0
 40
0.9
  1
CUELLO #07
 72
1
 11
10.478044606186042
 21
-1.9433734939759035
 31
0.0
100
AcDbText
 73
2
  0
TEXT
  5
FD
330
F2
100
AcDbEntity
  8
15
100
AcDbText
 10
10.478044606186042
 20
-3.3433734939759034
 30
0.0
 40
0.6
  1
T:XL  x2  AL DOBLEZ
 72
1
 11
10.478044606186042
 21
-3.3433734939759034
 31
0.0
100
AcDbText
 73
2
  0
ENDBLK
  5
F4
330
F2
100
AcDbEntity
  8
0
100
AcDbBlockEnd
  0
BLOCK
  5
101
330
100
100
AcDbEntity
  8
0
100
AcDbBlockBegin
  2
P08_PIE_DE_CUELLO
 70
0
 10
0.0
 20
0.0
 30
0.0
  3
P08_PIE_DE_CUELLO
  1

  0
LWPOLYLINE
  5
103
330
100
100
AcDbEntity
  8
1
100
AcDbPolyline
 90
83
 70
1
 10
0.991258
 20
-4.143826
 10
1.557694
 20
-4.2147
 10
2.124148
 20
-4.281526
 10
2.690619
 20
-4.344304
 10
3.257106
 20
-4.403034
 10
3.823608
 20
-4.457714
 10
4.390124
 20
-4.508346
 10
4.956653
 20
-4.554928
 10
5.523194
 20
-4.59746
 10
6.089746
 20
-4.635942
 10
6.656307
 20
-4.670375
 10
7.222877
 20
-4.700756
 10
7.789455
 20
-4.727087
 10
8.356039
 20
-4.749368
 10
8.922629
 20
-4.767598
 10
9.489223
 20
-4.781776
 10
10.05582
 20
-4.791904
 10
10.62242
 20
-4.797981
 10
11.18902
 20
-4.800006
 10
11.755621
 20
-4.797981
 10
12.32222
 20
-4.791904
 10
12.888818
 20
-4.781776
 10
13.455412
 20
-4.767598
 10
14.022002
 20
-4.749368
 10
14.588586
 20
-4.727087
 10
15.155164
 20
-4.700756
 10
15.721734
 20
-4.670375
 10
16.288295
 20
-4.635942
 10
16.854847
 20
-4.59746
 10
17.421387
 20
-4.554928
 10
17.987916
 20
-4.508346
 10
18.554432
 20
-4.457714
 10
19.120934
 20
-4.403034
 10
19.687421
 20
-4.344304
 10
20.253892
 20
-4.281526
 10
20.820346
 20
-4.2147
 10
21.386783
 20
-4.143826
 10
21.9532
 20
-4.068905
 10
23.378041
 20
-3.87025
 10
23.378041
 20
1.149095
 10
21.683979
 20
0.912905
 10
21.131494
 20
0.839826
 10
20.579029
 20
0.7707
 10
20.026581
 20
0.705526
 10
19.47415
 20
0.644304
 10
18.921735
 20
0.587034
 10
18.369335
 20
0.533714
 10
17.816949
 20
0.484346
 10
17.264575
 20
0.438928
 10
16.712214
 20
0.39746
 10
16.159864
 20
0.359942
 10
15.607523
 20
0.326375
 10
15.055191
 20
0.296756
 10
14.502867
 20
0.271087
 10
13.950549
 20
0.249368
 10
13.398237
 20
0.231598
 10
12.845929
 20
0.217776
 10
12.293624
 20
0.207904
 10
11.741322
 20
0.201981
 10
11.18902
 20
0.200006
 10
10.636719
 20
0.201981
 10
10.084416
 20
0.207904
 10
9.532112
 20
0.217776
 10
8.979804
 20
0.231598
 10
8.427491
 20
0.249368
 10
7.875174
 20
0.271087
 10
7.322849
 20
0.296756
 10
6.770517
 20
0.326375
 10
6.218177
 20
0.359942
 10
5.665826
 20
0.39746
 10
5.113465
 20
0.438928
 10
4.561092
 20
0.484346
 10
4.008706
 20
0.533714
 10
3.456306
 20
0.587034
 10
2.903891
 20
0.644304
 10
2.35146
 20
0.705526
 10
1.799012
 20
0.7707
 10
1.246546
 20
0.839826
 10
0.694061
 20
0.912905
 10
0.0
 20
1.009673
 10
0.0
 20
-4.009673
 10
0.424841
 20
-4.068905
 10
0.991258
 20
-4.143826
  0
LWPOLYLINE
  5
104
330
100
100
AcDbEntity
  8
8
100
AcDbPolyline
 90
82
 70
1
 10
0.0
 20
-0.0
 10
0.5594510132818108
 20
-0.07800000000000007
 10
1.1189020265636216
 20
-0.1519999999999999
 10
1.678353039845432
 20
-0.2220000000000001
 10
2.237804053127243
 20
-0.2879999999999999
 10
2.7972550664090536
 20
-0.35000000000000003
 10
3.356706079690864
 20
-0.4080000000000001
 10
3.916157092972675
 20
-0.46199999999999997
 10
4.475608106254486
 20
-0.512
 10
5.035059119536297
 20
-0.558
 10
5.594510132818107
 20
-0.6000000000000001
 10
6.153961146099919
 20
-0.6380000000000001
 10
6.713412159381728
 20
-0.672
 10
7.2728631726635395
 20
-0.7020000000000001
 10
7.83231418594535
 20
-0.728
 10
8.39176519922716
 20
-0.75
 10
8.951216212508973
 20
-0.768
 10
9.510667225790781
 20
-0.782
 10
10.070118239072594
 20
-0.792
 10
10.629569252354404
 20
-0.798
 10
11.189020265636215
 20
-0.8
 10
11.748471278918025
 20
-0.798
 10
12.307922292199837
 20
-0.792
 10
12.867373305481646
 20
-0.782
 10
13.426824318763456
 20
-0.768
 10
13.986275332045269
 20
-0.75
 10
14.545726345327079
 20
-0.728
 10
15.105177358608891
 20
-0.702
 10
15.6646283718907
 20
-0.6720000000000002
 10
16.224079385172512
 20
-0.6380000000000001
 10
16.78353039845432
 20
-0.6000000000000001
 10
17.342981411736133
 20
-0.558
 10
17.902432425017945
 20
-0.512
 10
18.461883438299754
 20
-0.46200000000000013
 10
19.021334451581563
 20
-0.4080000000000001
 10
19.580785464863375
 20
-0.35000000000000003
 10
20.140236478145187
 20
-0.2879999999999999
 10
20.699687491427
 20
-0.22199999999999986
 10
21.259138504708808
 20
-0.15200000000000014
 10
21.818589517990617
 20
-0.07800000000000007
 10
22.37804053127243
 20
-0.0
 10
22.37804053127243
 20
-3.0
 10
21.818589517990617
 20
-3.0780000000000003
 10
21.259138504708808
 20
-3.152
 10
20.699687491427
 20
-3.222
 10
20.140236478145187
 20
-3.288
 10
19.580785464863375
 20
-3.35
 10
19.021334451581563
 20
-3.408
 10
18.461883438299754
 20
-3.462
 10
17.902432425017945
 20
-3.512
 10
17.342981411736133
 20
-3.558
 10
16.78353039845432
 20
-3.6
 10
16.224079385172512
 20
-3.638
 10
15.6646283718907
 20
-3.672
 10
15.105177358608891
 20
-3.702
 10
14.545726345327079
 20
-3.7279999999999998
 10
13.986275332045269
 20
-3.75
 10
13.426824318763456
 20
-3.768
 10
12.867373305481646
 20
-3.782
 10
12.307922292199837
 20
-3.792
 10
11.748471278918025
 20
-3.798
 10
11.189020265636215
 20
-3.8
 10
10.629569252354404
 20
-3.798
 10
10.070118239072594
 20
-3.792
 10
9.510667225790781
 20
-3.782
 10
8.951216212508973
 20
-3.768
 10
8.39176519922716
 20
-3.75
 10
7.83231418594535
 20
-3.7279999999999998
 10
7.2728631726635395
 20
-3.702
 10
6.713412159381728
 20
-3.672
 10
6.153961146099919
 20
-3.638
 10
5.594510132818107
 20
-3.6
 10
5.035059119536297
 20
-3.558
 10
4.475608106254486
 20
-3.512
 10
3.916157092972675
 20
-3.4619999999999997
 10
3.356706079690864
 20
-3.408
 10
2.7972550664090536
 20
-3.35
 10
2.237804053127243
 20
-3.288
 10
1.678353039845432
 20
-3.222
 10
1.1189020265636216
 20
-3.152
 10
0.5594510132818108
 20
-3.0780000000000003
 10
0.0
 20
-3.0
  0
LINE
  5
105
330
100
100
AcDbEntity
  8
7
100
AcDbLine
 10
0.5
 20
-0.4
 30
0.0
 11
21.87804053127243
 21
-0.4
 31
0.0
  0
LINE
  5
106
330
100
100
AcDbEntity
  8
7
100
AcDbLine
 10
21.87804053127243
 20
-0.4
 30
0.0
 11
20.772767338468967
 21
-0.8673020107703804
 31
0.0
  0
LINE
  5
107
330
100
100
AcDbEntity
  8
7
100
AcDbLine
 10
21.87804053127243
 20
-0.4
 30
0.0
 11
20.772767338468967
 21
0.06730201077038056
 31
0.0
  0
LINE
  5
108
330
100
100
AcDbEntity
  8
7
100
AcDbLine
 10
0.5
 20
-0.4
 30
0.0
 11
1.605273192803462
 21
0.06730201077038056
 31
0.0
  0
LINE
  5
109
330
100
100
AcDbEntity
  8
7
100
AcDbLine
 10
0.5
 20
-0.4
 30
0.0
 11
1.605273192803462
 21
-0.8673020107703806
 31
0.0
  0
TEXT
  5
10A
330
100
100
AcDbEntity
  8
13
100
AcDbText
 10
11.189020265636216
 20
-1.0199999999999996
 30
0.0
 40
0.9
  1
PIE DE CUELLO #08
 72
1
 11
11.189020265636216
 21
-1.0199999999999996
 31
0.0
100
AcDbText
 73
2
  0
TEXT
  5
10B
330
100
100
AcDbEntity
  8
15
100
AcDbText
 10
11.189020265636216
 20
-2.4199999999999995
 30
0.0
 40
0.6
  1
T:XL  x2  AL DOBLEZ
 72
1
 11
11.189020265636216
 21
-2.4199999999999995
 31
0.0
100
AcDbText
 73
2
  0
ENDBLK
  5
102
330
100
100
AcDbEntity
  8
0
100
AcDbBlockEnd
  0
BLOCK
  5
10F
330
10E
100
AcDbEntity
  8
0
100
AcDbBlockBegin
  2
P09_VISTA_DELANTERA
 70
0
 10
0.0
 20
0.0
 30
0.0
  3
P09_VISTA_DELANTERA
  1

  0
LWPOLYLINE
  5
111
330
10E
100
AcDbEntity
  8
1
100
AcDbPolyline
 90
42
 70
1
 10
-2.7
 20
-75.0
 10
5.296727
 20
-75.0
 10
5.499488
 20
-13.1577
 10
9.713555
 20
0.011257
 10
7.208444
 20
1.263812
 10
6.493849
 20
0.330975
 10
6.281197
 20
0.05277
 10
6.068493
 20
-0.226719
 10
5.856038
 20
-0.507719
 10
5.644134
 20
-0.79046
 10
5.433083
 20
-1.075172
 10
5.223196
 20
-1.362086
 10
5.014781
 20
-1.651438
 10
4.808153
 20
-1.94346
 10
4.60363
 20
-2.238388
 10
4.401533
 20
-2.536456
 10
4.202187
 20
-2.837901
 10
4.005921
 20
-3.142955
 10
3.813233
 20
-3.451588
 10
3.625257
 20
-3.762254
 10
3.442238
 20
-4.072495
 10
3.263288
 20
-4.380995
 10
3.087294
 20
-4.686896
 10
2.91319
 20
-4.989347
 10
2.739949
 20
-5.287511
 10
2.566591
 20
-5.580562
 10
2.392178
 20
-5.86769
 10
2.215813
 20
-6.148106
 10
2.036634
 20
-6.421052
 10
1.853815
 20
-6.685811
 10
1.666548
 20
-6.941721
 10
1.474024
 20
-7.188202
 10
1.274463
 20
-7.425918
 10
1.065041
 20
-7.657866
 10
0.844753
 20
-7.886765
 10
0.614362
 20
-8.113508
 10
0.37487
 20
-8.338827
 10
0.127341
 20
-8.563489
 10
-0.127105
 20
-8.788301
 10
-0.371041
 20
-9.0
 10
-2.7
 20
-9.0
 10
-2.7
 20
-75.0
  0
LWPOLYLINE
  5
112
330
10E
100
AcDbEntity
  8
8
100
AcDbPolyline
 90
42
 70
1
 10
-1.7
 20
-10.0
 10
0.0
 20
-10.0
 10
0.2664559076284275
 20
-9.77081881755242
 10
0.5316870763632604
 20
-9.540639268597964
 10
0.7944687673108973
 20
-9.308462986629749
 10
1.0535762415777423
 20
-9.073291605140902
 10
1.3077847602701966
 20
-8.834126757624546
 10
1.5558695844946662
 20
-8.589970077573795
 10
1.7966059753575527
 20
-8.339823198481778
 10
2.0287691939652555
 20
-8.082687753841613
 10
2.251256262871314
 20
-7.817663738929134
 10
2.4642909776599335
 20
-7.544922947718502
 10
2.6689127963048676
 20
-7.265296085593137
 10
2.8661730692885365
 20
-6.97962346498681
 10
3.0571231470933626
 20
-6.6887453983332925
 10
3.24281438020177
 20
-6.393502198066352
 10
3.4242981190961777
 20
-6.094734176619759
 10
3.6026257142590072
 20
-5.793281646427288
 10
3.7788485161726824
 20
-5.489984919922706
 10
3.954017875319624
 20
-5.185684309539782
 10
4.129185142182252
 20
-4.881220127712289
 10
4.305401667242991
 20
-4.577432686873996
 10
4.483718800984262
 20
-4.275162299458675
 10
4.665187766337148
 20
-3.975249177043526
 10
4.8505759251754625
 20
-3.6783090784295487
 10
5.039763734964992
 20
-3.3842564751100506
 10
5.232458914863333
 20
-3.092869252062379
 10
5.428369184028084
 20
-2.803925294263881
 10
5.627202261616847
 20
-2.517202486691905
 10
5.828665866787218
 20
-2.2324787143237987
 10
6.0324677186967985
 20
-1.9495318621369109
 10
6.238315536503185
 20
-1.6681398151085878
 10
6.4459170393639775
 20
-1.388080458216178
 10
6.654979946436775
 20
-1.1091316764370291
 10
6.86521197687918
 20
-0.8310713547484891
 10
7.076320849848785
 20
-0.5536773781279057
 10
7.288014284503192
 20
-0.2767276315526268
 10
7.5
 20
-0.0
 10
8.5
 20
-0.5
 10
4.5
 20
-13.0
 10
4.3
 20
-74.0
 10
-1.7
 20
-74.0
  0
LINE
  5
113
330
10E
100
AcDbEntity
  8
7
100
AcDbLine
 10
1.3
 20
-15.0
 30
0.0
 11
1.3
 21
-71.0
 31
0.0
  0
LINE
  5
114
330
10E
100
AcDbEntity
  8
7
100
AcDbLine
 10
1.3
 20
-71.0
 30
0.0
 11
0.8326979892296196
 21
-69.89472680719653
 31
0.0
  0
LINE
  5
115
330
10E
100
AcDbEntity
  8
7
100
AcDbLine
 10
1.3
 20
-71.0
 30
0.0
 11
1.7673020107703805
 21
-69.89472680719653
 31
0.0
  0
LINE
  5
116
330
10E
100
AcDbEntity
  8
7
100
AcDbLine
 10
1.3
 20
-15.0
 30
0.0
 11
1.7673020107703805
 21
-16.105273192803462
 31
0.0
  0
LINE
  5
117
330
10E
100
AcDbEntity
  8
7
100
AcDbLine
 10
1.3
 20
-15.0
 30
0.0
 11
0.8326979892296196
 21
-16.105273192803462
 31
0.0
  0
TEXT
  5
118
330
10E
100
AcDbEntity
  8
13
100
AcDbText
 10
3.7675555948011854
 20
-7.6068505980923184
 30
0.0
 40
0.9
  1
VISTA DELANTERA #09
 72
1
 11
3.7675555948011854
 21
-7.6068505980923184
 31
0.0
100
AcDbText
 73
2
  0
TEXT
  5
119
330
10E
100
AcDbEntity
  8
15
100
AcDbText
 10
3.7675555948011854
 20
-9.006850598092319
 30
0.0
 40
0.6
  1
T:XL  x2
 72
1
 11
3.7675555948011854
 21
-9.006850598092319
 31
0.0
100
AcDbText
 73
2
  0
ENDBLK
  5
110
330
10E
100
AcDbEntity
  8
0
100
AcDbBlockEnd
  0
BLOCK
  5
11D
330
11C
100
AcDbEntity
  8
0
100
AcDbBlockBegin
  2
P10_BOLSILLO
 70
0
 10
0.0
 20
0.0
 30
0.0
  3
P10_BOLSILLO
  1

  0
LWPOLYLINE
  5
11F
330
11C
100
AcDbEntity
  8
1
100
AcDbPolyline
 90
6
 70
1
 10
-1.0
 20
-10.271905
 10
6.0
 20
-14.681905
 10
13.0
 20
-10.271905
 10
13.0
 20
1.0
 10
-1.0
 20
1.0
 10
-1.0
 20
-10.271905
  0
LWPOLYLINE
  5
120
330
11C
100
AcDbEntity
  8
8
100
AcDbPolyline
 90
5
 70
1
 10
0.0
 20
-0.0
 10
12.0
 20
-0.0
 10
12.0
 20
-9.719999999999999
 10
6.0
 20
-13.5
 10
0.0
 20
-9.719999999999999
  0
LINE
  5
121
330
11C
100
AcDbEntity
  8
7
100
AcDbLine
 10
6.0
 20
-1.0
 30
0.0
 11
6.0
 21
-9.719999999999999
 31
0.0
  0
LINE
  5
122
330
11C
100
AcDbEntity
  8
7
100
AcDbLine
 10
6.0
 20
-9.719999999999999
 30
0.0
 11
5.53269798922962
 21
-8.614726807196536
 31
0.0
  0
LINE
  5
123
330
11C
100
AcDbEntity
  8
7
100
AcDbLine
 10
6.0
 20
-9.719999999999999
 30
0.0
 11
6.46730201077038
 21
-8.614726807196536
 31
0.0
  0
LINE
  5
124
330
11C
100
AcDbEntity
  8
7
100
AcDbLine
 10
6.0
 20
-1.0
 30
0.0
 11
6.46730201077038
 21
-2.105273192803462
 31
0.0
  0
LINE
  5
125
330
11C
100
AcDbEntity
  8
7
100
AcDbLine
 10
6.0
 20
-1.0
 30
0.0
 11
5.53269798922962
 21
-2.105273192803462
 31
0.0
  0
LINE
  5
126
330
11C
100
AcDbEntity
  8
11
100
AcDbLine
 10
0.0
 20
-7.219999999999999
 30
0.0
 11
12.0
 21
-7.219999999999999
 31
0.0
  0
TEXT
  5
127
330
11C
100
AcDbEntity
  8
13
100
AcDbText
 10
6.0
 20
-5.587999999999999
 30
0.0
 40
0.9
  1
BOLSILLO #10
 72
1
 11
6.0
 21
-5.587999999999999
 31
0.0
100
AcDbText
 73
2
  0
TEXT
  5
128
330
11C
100
AcDbEntity
  8
15
100
AcDbText
 10
6.0
 20
-6.9879999999999995
 30
0.0
 40
0.6
  1
T:XL  x1
 72
1
 11
6.0
 21
-6.9879999999999995
 31
0.0
100
AcDbText
 73
2
  0
ENDBLK
  5
11E
330
11C
100
AcDbEntity
  8
0
100
AcDbBlockEnd
  0
ENDSEC
  0
SECTION
  2
ENTITIES
  0
INSERT
  5
A2
330
17
100
AcDbEntity
  8
0
100
AcDbBlockReference
  2
P01_DELANTERO
 10
1.7
 20
-0.0
 30
0.0
  0
INSERT
  5
B1
330
17
100
AcDbEntity
  8
0
100
AcDbBlockReference
  2
P02_ESPALDA
 10
34.7
 20
10.0
 30
0.0
  0
INSERT
  5
C0
330
17
100
AcDbEntity
  8
0
100
AcDbBlockReference
  2
P03_CANESU
 10
67.7
 20
-0.0
 30
0.0
  0
INSERT
  5
D3
330
17
100
AcDbEntity
  8
0
100
AcDbBlockReference
  2
P04_MANGA
 10
113.37670566807182
 20
-0.0
 30
0.0
  0
INSERT
  5
E2
330
17
100
AcDbEntity
  8
0
100
AcDbBlockReference
  2
P05_PUNO
 10
0.0
 20
-80.0
 30
0.0
  0
INSERT
  5
F0
330
17
100
AcDbEntity
  8
0
100
AcDbBlockReference
  2
P06_TAPETA_MANGA
 10
32.0
 20
-80.0
 30
0.0
  0
INSERT
  5
FE
330
17
100
AcDbEntity
  8
0
100
AcDbBlockReference
  2
P07_CUELLO
 10
50.0
 20
-80.0
 30
0.0
  0
INSERT
  5
10C
330
17
100
AcDbEntity
  8
0
100
AcDbBlockReference
  2
P08_PIE_DE_CUELLO
 10
77.87804053127243
 20
-80.0
 30
0.0
  0
INSERT
  5
11A
330
17
100
AcDbEntity
  8
0
100
AcDbBlockReference
  2
P09_VISTA_DELANTERA
 10
107.95608106254487
 20
-80.0
 30
0.0
  0
INSERT
  5
129
330
17
100
AcDbEntity
  8
0
100
AcDbBlockReference
  2
P10_BOLSILLO
 10
122.45608106254487
 20
-80.0
 30
0.0
  0
ENDSEC
  0
SECTION
  2
OBJECTS
  0
DICTIONARY
  5
A
330
0
100
AcDbDictionary
281
1
  3
ACAD_COLOR
350
B
  3
ACAD_GROUP
350
C
  3
ACAD_LAYOUT
350
D
  3
ACAD_MATERIAL
350
E
  3
ACAD_MLEADERSTYLE
350
F
  3
ACAD_MLINESTYLE
350
10
  3
ACAD_PLOTSETTINGS
350
11
  3
ACAD_PLOTSTYLENAME
350
12
  3
ACAD_SCALELIST
350
14
  3
ACAD_TABLESTYLE
350
15
  3
ACAD_VISUALSTYLE
350
16
  3
EZDXF_META
350
2D
  0
DICTIONARY
  5
B
330
A
100
AcDbDictionary
281
1
  0
DICTIONARY
  5
C
330
A
100
AcDbDictionary
281
1
  0
DICTIONARY
  5
D
330
A
100
AcDbDictionary
281
1
  3
Model
350
1A
  3
Layout1
350
1E
  0
DICTIONARY
  5
E
330
A
100
AcDbDictionary
281
1
  3
ByBlock
350
1F
  3
ByLayer
350
20
  3
Global
350
21
  0
DICTIONARY
  5
F
330
A
100
AcDbDictionary
281
1
  3
Standard
350
2C
  0
DICTIONARY
  5
10
330
A
100
AcDbDictionary
281
1
  3
Standard
350
22
  0
DICTIONARY
  5
11
330
A
100
AcDbDictionary
281
1
  0
ACDBDICTIONARYWDFLT
  5
12
330
A
100
AcDbDictionary
281
1
  3
Normal
350
13
100
AcDbDictionaryWithDefault
340
13
  0
ACDBPLACEHOLDER
  5
13
330
12
  0
DICTIONARY
  5
14
330
A
100
AcDbDictionary
281
1
  0
DICTIONARY
  5
15
330
A
100
AcDbDictionary
281
1
  0
DICTIONARY
  5
16
330
A
100
AcDbDictionary
281
1
  3
2dWireframe
350
5A
  3
Basic
350
5B
  3
Brighten
350
5C
  3
ColorChange
350
5D
  3
Conceptual
350
5E
  3
Dim
350
5F
  3
EdgeColorOff
350
60
  3
Facepattern
350
61
  3
Flat
350
62
  3
FlatWithEdges
350
63
  3
Gouraud
350
64
  3
GouraudWithEdges
350
65
  3
Hidden
350
66
  3
JitterOff
350
67
  3
Linepattern
350
68
  3
Modeling
350
69
  3
OverhangOff
350
6A
  3
Realistic
350
6B
  3
Shaded
350
6C
  3
Shaded with edges
350
6D
  3
Shades of Gray
350
6E
  3
Sketchy
350
6F
  3
Thicken
350
70
  3
Wireframe
350
71
  3
X-Ray
350
72
  0
LAYOUT
  5
1A
330
D
100
AcDbPlotSettings
  1

  4
A3
  6

 40
7.5
 41
20.0
 42
7.5
 43
20.0
 44
420.0
 45
297.0
 46
0.0
 47
0.0
 48
0.0
 49
0.0
140
0.0
141
0.0
142
1.0
143
1.0
 70
1024
 72
1
 73
0
 74
5
  7

 75
16
 76
0
 77
2
 78
300
147
1.0
148
0.0
149
0.0
100
AcDbLayout
  1
Model
 70
1
 71
0
 10
0.0
 20
0.0
 11
420.0
 21
297.0
 12
0.0
 22
0.0
 32
0.0
 14
1e+20
 24
1e+20
 34
1e+20
 15
-1e+20
 25
-1e+20
 35
-1e+20
146
0.0
 13
0.0
 23
0.0
 33
0.0
 16
1.0
 26
0.0
 36
0.0
 17
0.0
 27
1.0
 37
0.0
 76
1
330
17
  0
LAYOUT
  5
1E
330
D
100
AcDbPlotSettings
  1

  4
A3
  6

 40
7.5
 41
20.0
 42
7.5
 43
20.0
 44
420.0
 45
297.0
 46
0.0
 47
0.0
 48
0.0
 49
0.0
140
0.0
141
0.0
142
1.0
143
1.0
 70
0
 72
1
 73
0
 74
5
  7

 75
16
 76
0
 77
2
 78
300
147
1.0
148
0.0
149
0.0
100
AcDbLayout
  1
Layout1
 70
1
 71
1
 10
0.0
 20
0.0
 11
420.0
 21
297.0
 12
0.0
 22
0.0
 32
0.0
 14
1e+20
 24
1e+20
 34
1e+20
 15
-1e+20
 25
-1e+20
 35
-1e+20
146
0.0
 13
0.0
 23
0.0
 33
0.0
 16
1.0
 26
0.0
 36
0.0
 17
0.0
 27
1.0
 37
0.0
 76
1
330
1B
  0
MATERIAL
  5
1F
102
{ACAD_REACTORS
330
E
102
}
330
E
100
AcDbMaterial
  1
ByBlock
  2

 70
0
 40
1.0
 71
1
 41
1.0
 91
-1023410177
 42
1.0
 72
1
  3

 73
1
 74
1
 75
1
 44
0.5
 73
0
 45
1.0
 46
1.0
 77
1
  4

 78
1
 79
1
170
1
 48
1.0
171
1
  6

172
1
173
1
174
1
140
1.0
141
1.0
175
1
  7

176
1
177
1
178
1
143
1.0
179
1
  8

270
1
271
1
272
1
145
1.0
146
1.0
273
1
  9

274
1
275
1
276
1
 42
1.0
 72
1
  3

 73
1
 74
1
 75
1
 94
63
  0
MATERIAL
  5
20
102
{ACAD_REACTORS
330
E
102
}
330
E
100
AcDbMaterial
  1
ByLayer
  2

 70
0
 40
1.0
 71
1
 41
1.0
 91
-1023410177
 42
1.0
 72
1
  3

 73
1
 74
1
 75
1
 44
0.5
 73
0
 45
1.0
 46
1.0
 77
1
  4

 78
1
 79
1
170
1
 48
1.0
171
1
  6

172
1
173
1
174
1
140
1.0
141
1.0
175
1
  7

176
1
177
1
178
1
143
1.0
179
1
  8

270
1
271
1
272
1
145
1.0
146
1.0
273
1
  9

274
1
275
1
276
1
 42
1.0
 72
1
  3

 73
1
 74
1
 75
1
 94
63
  0
MATERIAL
  5
21
102
{ACAD_REACTORS
330
E
102
}
330
E
100
AcDbMaterial
  1
Global
  2

 70
0
 40
1.0
 71
1
 41
1.0
 91
-1023410177
 42
1.0
 72
1
  3

 73
1
 74
1
 75
1
 44
0.5
 73
0
 45
1.0
 46
1.0
 77
1
  4

 78
1
 79
1
170
1
 48
1.0
171
1
  6

172
1
173
1
174
1
140
1.0
141
1.0
175
1
  7

176
1
177
1
178
1
143
1.0
179
1
  8

270
1
271
1
272
1
145
1.0
146
1.0
273
1
  9

274
1
275
1
276
1
 42
1.0
 72
1
  3

 73
1
 74
1
 75
1
 94
63
  0
MLINESTYLE
  5
22
102
{ACAD_REACTORS
330
10
102
}
330
10
100
AcDbMlineStyle
  2
Standard
 70
0
  3

 62
256
 51
90.0
 52
90.0
 71
2
 49
0.5
 62
256
  6
BYLAYER
 49
-0.5
 62
256
  6
BYLAYER
  0
MLEADERSTYLE
  5
2C
102
{ACAD_REACTORS
330
F
102
}
330
F
100
AcDbMLeaderStyle
179
2
170
2
171
1
172
0
 90
2
 40
0.0
 41
0.0
173
1
 91
-1056964608
 92
-2
290
1
 42
2.0
291
1
 43
8.0
  3
Standard
 44
4.0
300

342
29
174
1
175
1
176
0
178
1
 93
-1056964608
 45
4.0
292
0
297
0
 46
4.0
 94
-1056964608
 47
1.0
 49
1.0
140
1.0
294
1
141
0.0
177
0
142
1.0
295
0
296
0
143
3.75
271
0
272
9
273
9
  0
DICTIONARY
  5
2D
330
A
100
AcDbDictionary
280
1
281
1
  3
CREATED_BY_EZDXF
350
2E
  3
WRITTEN_BY_EZDXF
350
12D
  0
DICTIONARYVAR
  5
2E
330
2D
100
DictionaryVariables
280
0
  1
1.4.4 @ 2026-07-13T19:40:27.847387+00:00
  0
VISUALSTYLE
  5
5A
102
{ACAD_REACTORS
330
16
102
}
330
16
100
AcDbVisualStyle
  2
2dWireframe
 70
4
177
3
291
0
 70
58
 90
2
176
1
 90
2
176
1
 90
0
176
1
 90
0
176
1
 40
0.6
176
1
 40
30.0
176
1
 62
7
420
16777215
176
1
 90
1
176
1
 90
4
176
1
 62
7
176
1
 62
257
176
1
 90
1
176
1
 90
1
176
1
 40
1.0
176
1
 90
8
176
1
 62
7
176
1
 40
1.0
176
1
 90
1
176
1
 90
6
176
1
 90
2
176
1
 62
7
176
1
 90
5
176
1
 90
0
176
1
 90
0
176
1
290
0
176
1
 90
1
176
1
 40
0.0
176
1
 90
0
176
1
290
1
176
1
290
1
176
1
290
0
176
1
290
0
176
1
290
0
176
1
290
0
176
1
290
0
176
1
290
0
176
1
290
0
176
1
 90
50
176
1
 40
0.0
176
1
 40
1.0
176
1
 90
0
176
1
 62
18
420
0
176
1
 90
50
176
1
 90
3
176
1
 62
5
420
255
176
1
290
0
176
1
 90
50
176
1
 90
50
176
1
 90
50
176
1
290
0
176
1
 90
50
176
1
 62
256
176
0
 40
1.0
176
0
 90
2
176
1
  1
strokes_ogs.tif
176
1
290
0
176
1
 40
1.0
176
1
 40
1.0
176
1
  0
VISUALSTYLE
  5
5B
102
{ACAD_REACTORS
330
16
102
}
330
16
100
AcDbVisualStyle
  2
Basic
 70
7
177
3
291
1
 70
58
 90
2
176
1
 90
2
176
1
 90
0
176
1
 90
1
176
1
 40
0.6
176
1
 40
30.0
176
1
 62
7
420
16777215
176
1
 90
1
176
1
 90
4
176
1
 62
7
176
1
 62
257
176
1
 90
1
176
1
 90
1
176
1
 40
1.0
176
1
 90
8
176
1
 62
7
176
1
 40
1.0
176
1
 90
1
176
1
 90
6
176
1
 90
2
176
1
 62
7
176
1
 90
5
176
1
 90
0
176
1
 90
0
176
1
290
0
176
1
 90
1
176
1
 40
0.0
176
1
 90
0
176
1
290
0
176
1
290
1
176
1
290
1
176
1
290
0
176
1
290
0
176
1
290
0
176
1
290
0
176
1
290
0
176
1
290
0
176
1
 90
50
176
1
 40
0.0
176
1
 40
1.0
176
1
 90
0
176
1
 62
18
420
0
176
1
 90
50
176
1
 90
3
176
1
 62
5
420
255
176
1
290
0
176
1
 90
50
176
1
 90
50
176
1
 90
50
176
1
290
0
176
1
 90
50
176
1
 62
256
176
0
 40
1.0
176
0
 90
2
176
1
  1
strokes_ogs.tif
176
1
290
0
176
1
 40
1.0
176
1
 40
1.0
176
1
  0
VISUALSTYLE
  5
5C
102
{ACAD_REACTORS
330
16
102
}
330
16
100
AcDbVisualStyle
  2
Brighten
 70
12
177
3
291
1
 70
58
 90
2
176
1
 90
2
176
1
 90
0
176
1
 90
2
176
1
 40
0.6
176
1
 40
30.0
176
1
 62
7
420
16777215
176
1
 90
1
176
1
 90
4
176
1
 62
7
176
1
 62
257
176
1
 90
1
176
1
 90
1
176
1
 40
1.0
176
1
 90
8
176
1
 62
7
176
1
 40
1.0
176
1
 90
1
176
1
 90
6
176
1
 90
2
176
1
 62
7
176
1
 90
5
176
1
 90
0
176
1
 90
0
176
1
290
0
176
1
 90
1
176
1
 40
0.0
176
1
 90
0
176
1
290
0
176
1
290
1
176
1
290
1
176
1
290
0
176
1
290
0
176
1
290
0
176
1
290
0
176
1
290
0
176
1
290
0
176
1
 90
50
176
1
 40
0.0
176
1
 40
1.0
176
1
 90
0
176
1
 62
18
420
0
176
1
 90
50
176
1
 90
3
176
1
 62
5
420
255
176
1
290
0
176
1
 90
50
176
1
 90
50
176
1
 90
50
176
1
290
0
176
1
 90
50
176
1
 62
256
176
0
 40
1.0
176
0
 90
2
176
1
  1
strokes_ogs.tif
176
1
290
0
176
1
 40
1.0
176
1
 40
1.0
176
1
  0
VISUALSTYLE
  5
5D
102
{ACAD_REACTORS
330
16
102
}
330
16
100
AcDbVisualStyle
  2
ColorChange
 70
16
177
3
291
1
 70
58
 90
2
176
1
 90
2
176
1
 90
0
176
1
 90
2
176
1
 40
0.6
176
1
 40
30.0
176
1
 62
7
420
16777215
176
1
 90
1
176
1
 90
4
176
1
 62
7
176
1
 62
257
176
1
 90
1
176
1
 90
1
176
1
 40
1.0
176
1
 90
8
176
1
 62
7
176
1
 40
1.0
176
1
 90
1
176
1
 90
6
176
1
 90
2
176
1
 62
7
176
1
 90
5
176
1
 90
0
176
1
 90
0
176
1
290
0
176
1
 90
1
176
1
 40
0.0
176
1
 90
0
176
1
290
0
176
1
290
1
176
1
290
1
176
1
290
0
176
1
290
0
176
1
290
0
176
1
290
0
176
1
290
0
176
1
290
0
176
1
 90
50
176
1
 40
0.0
176
1
 40
1.0
176
1
 90
0
176
1
 62
18
420
0
176
1
 90
50
176
1
 90
3
176
1
 62
5
420
255
176
1
290
0
176
1
 90
50
176
1
 90
50
176
1
 90
50
176
1
290
0
176
1
 90
50
176
1
 62
256
176
0
 40
1.0
176
0
 90
2
176
1
  1
strokes_ogs.tif
176
1
290
0
176
1
 40
1.0
176
1
 40
1.0
176
1
  0
VISUALSTYLE
  5
5E
102
{ACAD_REACTORS
330
16
102
}
330
16
100
AcDbVisualStyle
  2
Conceptual
 70
9
177
3
291
0
 70
58
 90
2
176
1
 90
2
176
1
 90
0
176
1
 90
3
176
1
 40
0.6
176
1
 40
30.0
176
1
 62
7
420
16777215
176
1
 90
1
176
1
 90
4
176
1
 62
7
176
1
 62
257
176
1
 90
1
176
1
 90
1
176
1
 40
1.0
176
1
 90
8
176
1
 62
7
176
1
 40
1.0
176
1
 90
1
176
1
 90
6
176
1
 90
2
176
1
 62
7
176
1
 90
5
176
1
 90
0
176
1
 90
0
176
1
290
0
176
1
 90
1
176
1
 40
0.0
176
1
 90
0
176
1
290
0
176
1
290
1
176
1
290
1
176
1
290
0
176
1
290
0
176
1
290
0
176
1
290
0
176
1
290
0
176
1
290
0
176
1
 90
50
176
1
 40
0.0
176
1
 40
1.0
176
1
 90
0
176
1
 62
18
420
0
176
1
 90
50
176
1
 90
3
176
1
 62
5
420
255
176
1
290
0
176
1
 90
50
176
1
 90
50
176
1
 90
50
176
1
290
0
176
1
 90
50
176
1
 62
256
176
0
 40
1.0
176
0
 90
2
176
1
  1
strokes_ogs.tif
176
1
290
0
176
1
 40
1.0
176
1
 40
1.0
176
1
  0
VISUALSTYLE
  5
5F
102
{ACAD_REACTORS
330
16
102
}
330
16
100
AcDbVisualStyle
  2
Dim
 70
11
177
3
291
1
 70
58
 90
2
176
1
 90
2
176
1
 90
0
176
1
 90
2
176
1
 40
0.6
176
1
 40
30.0
176
1
 62
7
420
16777215
176
1
 90
1
176
1
 90
4
176
1
 62
7
176
1
 62
257
176
1
 90
1
176
1
 90
1
176
1
 40
1.0
176
1
 90
8
176
1
 62
7
176
1
 40
1.0
176
1
 90
1
176
1
 90
6
176
1
 90
2
176
1
 62
7
176
1
 90
5
176
1
 90
0
176
1
 90
0
176
1
290
0
176
1
 90
1
176
1
 40
0.0
176
1
 90
0
176
1
290
0
176
1
290
1
176
1
290
1
176
1
290
0
176
1
290
0
176
1
290
0
176
1
290
0
176
1
290
0
176
1
290
0
176
1
 90
50
176
1
 40
0.0
176
1
 40
1.0
176
1
 90
0
176
1
 62
18
420
0
176
1
 90
50
176
1
 90
3
176
1
 62
5
420
255
176
1
290
0
176
1
 90
50
176
1
 90
50
176
1
 90
50
176
1
290
0
176
1
 90
50
176
1
 62
256
176
0
 40
1.0
176
0
 90
2
176
1
  1
strokes_ogs.tif
176
1
290
0
176
1
 40
1.0
176
1
 40
1.0
176
1
  0
VISUALSTYLE
  5
60
102
{ACAD_REACTORS
330
16
102
}
330
16
100
AcDbVisualStyle
  2
EdgeColorOff
 70
22
177
3
291
1
 70
58
 90
2
176
1
 90
2
176
1
 90
0
176
1
 90
2
176
1
 40
0.6
176
1
 40
30.0
176
1
 62
7
420
16777215
176
1
 90
1
176
1
 90
4
176
1
 62
7
176
1
 62
257
176
1
 90
1
176
1
 90
1
176
1
 40
1.0
176
1
 90
8
176
1
 62
7
176
1
 40
1.0
176
1
 90
1
176
1
 90
6
176
1
 90
2
176
1
 62
7
176
1
 90
5
176
1
 90
0
176
1
 90
0
176
1
290
0
176
1
 90
1
176
1
 40
0.0
176
1
 90
0
176
1
290
0
176
1
290
1
176
1
290
1
176
1
290
0
176
1
290
0
176
1
290
0
176
1
290
0
176
1
290
0
176
1
290
0
176
1
 90
50
176
1
 40
0.0
176
1
 40
1.0
176
1
 90
0
176
1
 62
18
420
0
176
1
 90
50
176
1
 90
3
176
1
 62
5
420
255
176
1
290
0
176
1
 90
50
176
1
 90
50
176
1
 90
50
176
1
290
0
176
1
 90
50
176
1
 62
256
176
0
 40
1.0
176
0
 90
2
176
1
  1
strokes_ogs.tif
176
1
290
0
176
1
 40
1.0
176
1
 40
1.0
176
1
  0
VISUALSTYLE
  5
61
102
{ACAD_REACTORS
330
16
102
}
330
16
100
AcDbVisualStyle
  2
Facepattern
 70
15
177
3
291
1
 70
58
 90
2
176
1
 90
2
176
1
 90
0
176
1
 90
2
176
1
 40
0.6
176
1
 40
30.0
176
1
 62
7
420
16777215
176
1
 90
1
176
1
 90
4
176
1
 62
7
176
1
 62
257
176
1
 90
1
176
1
 90
1
176
1
 40
1.0
176
1
 90
8
176
1
 62
7
176
1
 40
1.0
176
1
 90
1
176
1
 90
6
176
1
 90
2
176
1
 62
7
176
1
 90
5
176
1
 90
0
176
1
 90
0
176
1
290
0
176
1
 90
1
176
1
 40
0.0
176
1
 90
0
176
1
290
0
176
1
290
1
176
1
290
1
176
1
290
0
176
1
290
0
176
1
290
0
176
1
290
0
176
1
290
0
176
1
290
0
176
1
 90
50
176
1
 40
0.0
176
1
 40
1.0
176
1
 90
0
176
1
 62
18
420
0
176
1
 90
50
176
1
 90
3
176
1
 62
5
420
255
176
1
290
0
176
1
 90
50
176
1
 90
50
176
1
 90
50
176
1
290
0
176
1
 90
50
176
1
 62
256
176
0
 40
1.0
176
0
 90
2
176
1
  1
strokes_ogs.tif
176
1
290
0
176
1
 40
1.0
176
1
 40
1.0
176
1
  0
VISUALSTYLE
  5
62
102
{ACAD_REACTORS
330
16
102
}
330
16
100
AcDbVisualStyle
  2
Flat
 70
0
177
3
291
1
 70
58
 90
2
176
1
 90
2
176
1
 90
0
176
1
 90
2
176
1
 40
0.6
176
1
 40
30.0
176
1
 62
7
420
16777215
176
1
 90
1
176
1
 90
4
176
1
 62
7
176
1
 62
257
176
1
 90
1
176
1
 90
1
176
1
 40
1.0
176
1
 90
8
176
1
 62
7
176
1
 40
1.0
176
1
 90
1
176
1
 90
6
176
1
 90
2
176
1
 62
7
176
1
 90
5
176
1
 90
0
176
1
 90
0
176
1
290
0
176
1
 90
1
176
1
 40
0.0
176
1
 90
0
176
1
290
0
176
1
290
1
176
1
290
1
176
1
290
0
176
1
290
0
176
1
290
0
176
1
290
0
176
1
290
0
176
1
290
0
176
1
 90
50
176
1
 40
0.0
176
1
 40
1.0
176
1
 90
0
176
1
 62
18
420
0
176
1
 90
50
176
1
 90
3
176
1
 62
5
420
255
176
1
290
0
176
1
 90
50
176
1
 90
50
176
1
 90
50
176
1
290
0
176
1
 90
50
176
1
 62
256
176
0
 40
1.0
176
0
 90
2
176
1
  1
strokes_ogs.tif
176
1
290
0
176
1
 40
1.0
176
1
 40
1.0
176
1
  0
VISUALSTYLE
  5
63
102
{ACAD_REACTORS
330
16
102
}
330
16
100
AcDbVisualStyle
  2
FlatWithEdges
 70
1
177
3
291
1
 70
58
 90
2
176
1
 90
2
176
1
 90
0
176
1
 90
2
176
1
 40
0.6
176
1
 40
30.0
176
1
 62
7
420
16777215
176
1
 90
1
176
1
 90
4
176
1
 62
7
176
1
 62
257
176
1
 90
1
176
1
 90
1
176
1
 40
1.0
176
1
 90
8
176
1
 62
7
176
1
 40
1.0
176
1
 90
1
176
1
 90
6
176
1
 90
2
176
1
 62
7
176
1
 90
5
176
1
 90
0
176
1
 90
0
176
1
290
0
176
1
 90
1
176
1
 40
0.0
176
1
 90
0
176
1
290
0
176
1
290
1
176
1
290
1
176
1
290
0
176
1
290
0
176
1
290
0
176
1
290
0
176
1
290
0
176
1
290
0
176
1
 90
50
176
1
 40
0.0
176
1
 40
1.0
176
1
 90
0
176
1
 62
18
420
0
176
1
 90
50
176
1
 90
3
176
1
 62
5
420
255
176
1
290
0
176
1
 90
50
176
1
 90
50
176
1
 90
50
176
1
290
0
176
1
 90
50
176
1
 62
256
176
0
 40
1.0
176
0
 90
2
176
1
  1
strokes_ogs.tif
176
1
290
0
176
1
 40
1.0
176
1
 40
1.0
176
1
  0
VISUALSTYLE
  5
64
102
{ACAD_REACTORS
330
16
102
}
330
16
100
AcDbVisualStyle
  2
Gouraud
 70
2
177
3
291
1
 70
58
 90
2
176
1
 90
2
176
1
 90
0
176
1
 90
2
176
1
 40
0.6
176
1
 40
30.0
176
1
 62
7
420
16777215
176
1
 90
1
176
1
 90
4
176
1
 62
7
176
1
 62
257
176
1
 90
1
176
1
 90
1
176
1
 40
1.0
176
1
 90
8
176
1
 62
7
176
1
 40
1.0
176
1
 90
1
176
1
 90
6
176
1
 90
2
176
1
 62
7
176
1
 90
5
176
1
 90
0
176
1
 90
0
176
1
290
0
176
1
 90
1
176
1
 40
0.0
176
1
 90
0
176
1
290
0
176
1
290
1
176
1
290
1
176
1
290
0
176
1
290
0
176
1
290
0
176
1
290
0
176
1
290
0
176
1
290
0
176
1
 90
50
176
1
 40
0.0
176
1
 40
1.0
176
1
 90
0
176
1
 62
18
420
0
176
1
 90
50
176
1
 90
3
176
1
 62
5
420
255
176
1
290
0
176
1
 90
50
176
1
 90
50
176
1
 90
50
176
1
290
0
176
1
 90
50
176
1
 62
256
176
0
 40
1.0
176
0
 90
2
176
1
  1
strokes_ogs.tif
176
1
290
0
176
1
 40
1.0
176
1
 40
1.0
176
1
  0
VISUALSTYLE
  5
65
102
{ACAD_REACTORS
330
16
102
}
330
16
100
AcDbVisualStyle
  2
GouraudWithEdges
 70
3
177
3
291
1
 70
58
 90
2
176
1
 90
2
176
1
 90
0
176
1
 90
2
176
1
 40
0.6
176
1
 40
30.0
176
1
 62
7
420
16777215
176
1
 90
1
176
1
 90
4
176
1
 62
7
176
1
 62
257
176
1
 90
1
176
1
 90
1
176
1
 40
1.0
176
1
 90
8
176
1
 62
7
176
1
 40
1.0
176
1
 90
1
176
1
 90
6
176
1
 90
2
176
1
 62
7
176
1
 90
5
176
1
 90
0
176
1
 90
0
176
1
290
0
176
1
 90
1
176
1
 40
0.0
176
1
 90
0
176
1
290
0
176
1
290
1
176
1
290
1
176
1
290
0
176
1
290
0
176
1
290
0
176
1
290
0
176
1
290
0
176
1
290
0
176
1
 90
50
176
1
 40
0.0
176
1
 40
1.0
176
1
 90
0
176
1
 62
18
420
0
176
1
 90
50
176
1
 90
3
176
1
 62
5
420
255
176
1
290
0
176
1
 90
50
176
1
 90
50
176
1
 90
50
176
1
290
0
176
1
 90
50
176
1
 62
256
176
0
 40
1.0
176
0
 90
2
176
1
  1
strokes_ogs.tif
176
1
290
0
176
1
 40
1.0
176
1
 40
1.0
176
1
  0
VISUALSTYLE
  5
66
102
{ACAD_REACTORS
330
16
102
}
330
16
100
AcDbVisualStyle
  2
Hidden
 70
6
177
3
291
0
 70
58
 90
2
176
1
 90
2
176
1
 90
0
176
1
 90
1
176
1
 40
0.6
176
1
 40
30.0
176
1
 62
7
420
16777215
176
1
 90
1
176
1
 90
4
176
1
 62
7
176
1
 62
257
176
1
 90
1
176
1
 90
1
176
1
 40
1.0
176
1
 90
8
176
1
 62
7
176
1
 40
1.0
176
1
 90
1
176
1
 90
6
176
1
 90
2
176
1
 62
7
176
1
 90
5
176
1
 90
0
176
1
 90
0
176
1
290
0
176
1
 90
1
176
1
 40
0.0
176
1
 90
0
176
1
290
0
176
1
290
1
176
1
290
1
176
1
290
0
176
1
290
0
176
1
290
0
176
1
290
0
176
1
290
0
176
1
290
0
176
1
 90
50
176
1
 40
0.0
176
1
 40
1.0
176
1
 90
0
176
1
 62
18
420
0
176
1
 90
50
176
1
 90
3
176
1
 62
5
420
255
176
1
290
0
176
1
 90
50
176
1
 90
50
176
1
 90
50
176
1
290
0
176
1
 90
50
176
1
 62
256
176
0
 40
1.0
176
0
 90
2
176
1
  1
strokes_ogs.tif
176
1
290
0
176
1
 40
1.0
176
1
 40
1.0
176
1
  0
VISUALSTYLE
  5
67
102
{ACAD_REACTORS
330
16
102
}
330
16
100
AcDbVisualStyle
  2
JitterOff
 70
20
177
3
291
1
 70
58
 90
2
176
1
 90
2
176
1
 90
0
176
1
 90
2
176
1
 40
0.6
176
1
 40
30.0
176
1
 62
7
420
16777215
176
1
 90
1
176
1
 90
4
176
1
 62
7
176
1
 62
257
176
1
 90
1
176
1
 90
1
176
1
 40
1.0
176
1
 90
8
176
1
 62
7
176
1
 40
1.0
176
1
 90
1
176
1
 90
6
176
1
 90
2
176
1
 62
7
176
1
 90
5
176
1
 90
0
176
1
 90
0
176
1
290
0
176
1
 90
1
176
1
 40
0.0
176
1
 90
0
176
1
290
0
176
1
290
1
176
1
290
1
176
1
290
0
176
1
290
0
176
1
290
0
176
1
290
0
176
1
290
0
176
1
290
0
176
1
 90
50
176
1
 40
0.0
176
1
 40
1.0
176
1
 90
0
176
1
 62
18
420
0
176
1
 90
50
176
1
 90
3
176
1
 62
5
420
255
176
1
290
0
176
1
 90
50
176
1
 90
50
176
1
 90
50
176
1
290
0
176
1
 90
50
176
1
 62
256
176
0
 40
1.0
176
0
 90
2
176
1
  1
strokes_ogs.tif
176
1
290
0
176
1
 40
1.0
176
1
 40
1.0
176
1
  0
VISUALSTYLE
  5
68
102
{ACAD_REACTORS
330
16
102
}
330
16
100
AcDbVisualStyle
  2
Linepattern
 70
14
177
3
291
1
 70
58
 90
2
176
1
 90
2
176
1
 90
0
176
1
 90
2
176
1
 40
0.6
176
1
 40
30.0
176
1
 62
7
420
16777215
176
1
 90
1
176
1
 90
4
176
1
 62
7
176
1
 62
257
176
1
 90
1
176
1
 90
1
176
1
 40
1.0
176
1
 90
8
176
1
 62
7
176
1
 40
1.0
176
1
 90
1
176
1
 90
6
176
1
 90
2
176
1
 62
7
176
1
 90
5
176
1
 90
0
176
1
 90
0
176
1
290
0
176
1
 90
1
176
1
 40
0.0
176
1
 90
0
176
1
290
0
176
1
290
1
176
1
290
1
176
1
290
0
176
1
290
0
176
1
290
0
176
1
290
0
176
1
290
0
176
1
290
0
176
1
 90
50
176
1
 40
0.0
176
1
 40
1.0
176
1
 90
0
176
1
 62
18
420
0
176
1
 90
50
176
1
 90
3
176
1
 62
5
420
255
176
1
290
0
176
1
 90
50
176
1
 90
50
176
1
 90
50
176
1
290
0
176
1
 90
50
176
1
 62
256
176
0
 40
1.0
176
0
 90
2
176
1
  1
strokes_ogs.tif
176
1
290
0
176
1
 40
1.0
176
1
 40
1.0
176
1
  0
VISUALSTYLE
  5
69
102
{ACAD_REACTORS
330
16
102
}
330
16
100
AcDbVisualStyle
  2
Modeling
 70
10
177
3
291
0
 70
58
 90
2
176
1
 90
2
176
1
 90
0
176
1
 90
2
176
1
 40
0.6
176
1
 40
30.0
176
1
 62
7
420
16777215
176
1
 90
1
176
1
 90
4
176
1
 62
7
176
1
 62
257
176
1
 90
1
176
1
 90
1
176
1
 40
1.0
176
1
 90
8
176
1
 62
7
176
1
 40
1.0
176
1
 90
1
176
1
 90
6
176
1
 90
2
176
1
 62
7
176
1
 90
5
176
1
 90
0
176
1
 90
0
176
1
290
0
176
1
 90
1
176
1
 40
0.0
176
1
 90
0
176
1
290
0
176
1
290
1
176
1
290
1
176
1
290
0
176
1
290
0
176
1
290
0
176
1
290
0
176
1
290
0
176
1
290
0
176
1
 90
50
176
1
 40
0.0
176
1
 40
1.0
176
1
 90
0
176
1
 62
18
420
0
176
1
 90
50
176
1
 90
3
176
1
 62
5
420
255
176
1
290
0
176
1
 90
50
176
1
 90
50
176
1
 90
50
176
1
290
0
176
1
 90
50
176
1
 62
256
176
0
 40
1.0
176
0
 90
2
176
1
  1
strokes_ogs.tif
176
1
290
0
176
1
 40
1.0
176
1
 40
1.0
176
1
  0
VISUALSTYLE
  5
6A
102
{ACAD_REACTORS
330
16
102
}
330
16
100
AcDbVisualStyle
  2
OverhangOff
 70
21
177
3
291
1
 70
58
 90
2
176
1
 90
2
176
1
 90
0
176
1
 90
2
176
1
 40
0.6
176
1
 40
30.0
176
1
 62
7
420
16777215
176
1
 90
1
176
1
 90
4
176
1
 62
7
176
1
 62
257
176
1
 90
1
176
1
 90
1
176
1
 40
1.0
176
1
 90
8
176
1
 62
7
176
1
 40
1.0
176
1
 90
1
176
1
 90
6
176
1
 90
2
176
1
 62
7
176
1
 90
5
176
1
 90
0
176
1
 90
0
176
1
290
0
176
1
 90
1
176
1
 40
0.0
176
1
 90
0
176
1
290
0
176
1
290
1
176
1
290
1
176
1
290
0
176
1
290
0
176
1
290
0
176
1
290
0
176
1
290
0
176
1
290
0
176
1
 90
50
176
1
 40
0.0
176
1
 40
1.0
176
1
 90
0
176
1
 62
18
420
0
176
1
 90
50
176
1
 90
3
176
1
 62
5
420
255
176
1
290
0
176
1
 90
50
176
1
 90
50
176
1
 90
50
176
1
290
0
176
1
 90
50
176
1
 62
256
176
0
 40
1.0
176
0
 90
2
176
1
  1
strokes_ogs.tif
176
1
290
0
176
1
 40
1.0
176
1
 40
1.0
176
1
  0
VISUALSTYLE
  5
6B
102
{ACAD_REACTORS
330
16
102
}
330
16
100
AcDbVisualStyle
  2
Realistic
 70
8
177
3
291
0
 70
58
 90
2
176
1
 90
2
176
1
 90
0
176
1
 90
2
176
1
 40
0.6
176
1
 40
30.0
176
1
 62
7
420
16777215
176
1
 90
1
176
1
 90
4
176
1
 62
7
176
1
 62
257
176
1
 90
1
176
1
 90
1
176
1
 40
1.0
176
1
 90
8
176
1
 62
7
176
1
 40
1.0
176
1
 90
1
176
1
 90
6
176
1
 90
2
176
1
 62
7
176
1
 90
5
176
1
 90
0
176
1
 90
0
176
1
290
0
176
1
 90
1
176
1
 40
0.0
176
1
 90
0
176
1
290
0
176
1
290
1
176
1
290
1
176
1
290
0
176
1
290
0
176
1
290
0
176
1
290
0
176
1
290
0
176
1
290
0
176
1
 90
50
176
1
 40
0.0
176
1
 40
1.0
176
1
 90
0
176
1
 62
18
420
0
176
1
 90
50
176
1
 90
3
176
1
 62
5
420
255
176
1
290
0
176
1
 90
50
176
1
 90
50
176
1
 90
50
176
1
290
0
176
1
 90
50
176
1
 62
256
176
0
 40
1.0
176
0
 90
2
176
1
  1
strokes_ogs.tif
176
1
290
0
176
1
 40
1.0
176
1
 40
1.0
176
1
  0
VISUALSTYLE
  5
6C
102
{ACAD_REACTORS
330
16
102
}
330
16
100
AcDbVisualStyle
  2
Shaded
 70
27
177
3
291
0
 70
58
 90
2
176
1
 90
2
176
1
 90
0
176
1
 90
2
176
1
 40
0.6
176
1
 40
30.0
176
1
 62
7
420
16777215
176
1
 90
1
176
1
 90
4
176
1
 62
7
176
1
 62
257
176
1
 90
1
176
1
 90
1
176
1
 40
1.0
176
1
 90
8
176
1
 62
7
176
1
 40
1.0
176
1
 90
1
176
1
 90
6
176
1
 90
2
176
1
 62
7
176
1
 90
5
176
1
 90
0
176
1
 90
0
176
1
290
0
176
1
 90
1
176
1
 40
0.0
176
1
 90
0
176
1
290
0
176
1
290
1
176
1
290
1
176
1
290
0
176
1
290
0
176
1
290
0
176
1
290
0
176
1
290
0
176
1
290
0
176
1
 90
50
176
1
 40
0.0
176
1
 40
1.0
176
1
 90
0
176
1
 62
18
420
0
176
1
 90
50
176
1
 90
3
176
1
 62
5
420
255
176
1
290
0
176
1
 90
50
176
1
 90
50
176
1
 90
50
176
1
290
0
176
1
 90
50
176
1
 62
256
176
0
 40
1.0
176
0
 90
2
176
1
  1
strokes_ogs.tif
176
1
290
0
176
1
 40
1.0
176
1
 40
1.0
176
1
  0
VISUALSTYLE
  5
6D
102
{ACAD_REACTORS
330
16
102
}
330
16
100
AcDbVisualStyle
  2
Shaded with edges
 70
26
177
3
291
0
 70
58
 90
2
176
1
 90
2
176
1
 90
0
176
1
 90
2
176
1
 40
0.6
176
1
 40
30.0
176
1
 62
7
420
16777215
176
1
 90
1
176
1
 90
4
176
1
 62
7
176
1
 62
257
176
1
 90
1
176
1
 90
1
176
1
 40
1.0
176
1
 90
8
176
1
 62
7
176
1
 40
1.0
176
1
 90
1
176
1
 90
6
176
1
 90
2
176
1
 62
7
176
1
 90
5
176
1
 90
0
176
1
 90
0
176
1
290
0
176
1
 90
1
176
1
 40
0.0
176
1
 90
0
176
1
290
0
176
1
290
1
176
1
290
1
176
1
290
0
176
1
290
0
176
1
290
0
176
1
290
0
176
1
290
0
176
1
290
0
176
1
 90
50
176
1
 40
0.0
176
1
 40
1.0
176
1
 90
0
176
1
 62
18
420
0
176
1
 90
50
176
1
 90
3
176
1
 62
5
420
255
176
1
290
0
176
1
 90
50
176
1
 90
50
176
1
 90
50
176
1
290
0
176
1
 90
50
176
1
 62
256
176
0
 40
1.0
176
0
 90
2
176
1
  1
strokes_ogs.tif
176
1
290
0
176
1
 40
1.0
176
1
 40
1.0
176
1
  0
VISUALSTYLE
  5
6E
102
{ACAD_REACTORS
330
16
102
}
330
16
100
AcDbVisualStyle
  2
Shades of Gray
 70
23
177
3
291
0
 70
58
 90
2
176
1
 90
2
176
1
 90
0
176
1
 90
2
176
1
 40
0.6
176
1
 40
30.0
176
1
 62
7
420
16777215
176
1
 90
1
176
1
 90
4
176
1
 62
7
176
1
 62
257
176
1
 90
1
176
1
 90
1
176
1
 40
1.0
176
1
 90
8
176
1
 62
7
176
1
 40
1.0
176
1
 90
1
176
1
 90
6
176
1
 90
2
176
1
 62
7
176
1
 90
5
176
1
 90
0
176
1
 90
0
176
1
290
0
176
1
 90
1
176
1
 40
0.0
176
1
 90
0
176
1
290
0
176
1
290
1
176
1
290
1
176
1
290
0
176
1
290
0
176
1
290
0
176
1
290
0
176
1
290
0
176
1
290
0
176
1
 90
50
176
1
 40
0.0
176
1
 40
1.0
176
1
 90
0
176
1
 62
18
420
0
176
1
 90
50
176
1
 90
3
176
1
 62
5
420
255
176
1
290
0
176
1
 90
50
176
1
 90
50
176
1
 90
50
176
1
290
0
176
1
 90
50
176
1
 62
256
176
0
 40
1.0
176
0
 90
2
176
1
  1
strokes_ogs.tif
176
1
290
0
176
1
 40
1.0
176
1
 40
1.0
176
1
  0
VISUALSTYLE
  5
6F
102
{ACAD_REACTORS
330
16
102
}
330
16
100
AcDbVisualStyle
  2
Sketchy
 70
24
177
3
291
0
 70
58
 90
2
176
1
 90
2
176
1
 90
0
176
1
 90
1
176
1
 40
0.6
176
1
 40
30.0
176
1
 62
7
420
16777215
176
1
 90
1
176
1
 90
4
176
1
 62
7
176
1
 62
257
176
1
 90
1
176
1
 90
1
176
1
 40
1.0
176
1
 90
8
176
1
 62
7
176
1
 40
1.0
176
1
 90
1
176
1
 90
6
176
1
 90
2
176
1
 62
7
176
1
 90
5
176
1
 90
0
176
1
 90
0
176
1
290
0
176
1
 90
1
176
1
 40
0.0
176
1
 90
0
176
1
290
0
176
1
290
1
176
1
290
1
176
1
290
0
176
1
290
0
176
1
290
0
176
1
290
0
176
1
290
0
176
1
290
0
176
1
 90
50
176
1
 40
0.0
176
1
 40
1.0
176
1
 90
0
176
1
 62
18
420
0
176
1
 90
50
176
1
 90
3
176
1
 62
5
420
255
176
1
290
0
176
1
 90
50
176
1
 90
50
176
1
 90
50
176
1
290
0
176
1
 90
50
176
1
 62
256
176
0
 40
1.0
176
0
 90
2
176
1
  1
strokes_ogs.tif
176
1
290
0
176
1
 40
1.0
176
1
 40
1.0
176
1
  0
VISUALSTYLE
  5
70
102
{ACAD_REACTORS
330
16
102
}
330
16
100
AcDbVisualStyle
  2
Thicken
 70
13
177
3
291
1
 70
58
 90
2
176
1
 90
2
176
1
 90
0
176
1
 90
2
176
1
 40
0.6
176
1
 40
30.0
176
1
 62
7
420
16777215
176
1
 90
1
176
1
 90
4
176
1
 62
7
176
1
 62
257
176
1
 90
1
176
1
 90
1
176
1
 40
1.0
176
1
 90
8
176
1
 62
7
176
1
 40
1.0
176
1
 90
1
176
1
 90
6
176
1
 90
2
176
1
 62
7
176
1
 90
5
176
1
 90
0
176
1
 90
0
176
1
290
0
176
1
 90
1
176
1
 40
0.0
176
1
 90
0
176
1
290
0
176
1
290
1
176
1
290
1
176
1
290
0
176
1
290
0
176
1
290
0
176
1
290
0
176
1
290
0
176
1
290
0
176
1
 90
50
176
1
 40
0.0
176
1
 40
1.0
176
1
 90
0
176
1
 62
18
420
0
176
1
 90
50
176
1
 90
3
176
1
 62
5
420
255
176
1
290
0
176
1
 90
50
176
1
 90
50
176
1
 90
50
176
1
290
0
176
1
 90
50
176
1
 62
256
176
0
 40
1.0
176
0
 90
2
176
1
  1
strokes_ogs.tif
176
1
290
0
176
1
 40
1.0
176
1
 40
1.0
176
1
  0
VISUALSTYLE
  5
71
102
{ACAD_REACTORS
330
16
102
}
330
16
100
AcDbVisualStyle
  2
Wireframe
 70
5
177
3
291
0
 70
58
 90
2
176
1
 90
2
176
1
 90
0
176
1
 90
0
176
1
 40
0.6
176
1
 40
30.0
176
1
 62
7
420
16777215
176
1
 90
1
176
1
 90
4
176
1
 62
7
176
1
 62
257
176
1
 90
1
176
1
 90
1
176
1
 40
1.0
176
1
 90
8
176
1
 62
7
176
1
 40
1.0
176
1
 90
1
176
1
 90
6
176
1
 90
2
176
1
 62
7
176
1
 90
5
176
1
 90
0
176
1
 90
0
176
1
290
0
176
1
 90
1
176
1
 40
0.0
176
1
 90
0
176
1
290
0
176
1
290
1
176
1
290
1
176
1
290
0
176
1
290
0
176
1
290
0
176
1
290
0
176
1
290
0
176
1
290
0
176
1
 90
50
176
1
 40
0.0
176
1
 40
1.0
176
1
 90
0
176
1
 62
18
420
0
176
1
 90
50
176
1
 90
3
176
1
 62
5
420
255
176
1
290
0
176
1
 90
50
176
1
 90
50
176
1
 90
50
176
1
290
0
176
1
 90
50
176
1
 62
256
176
0
 40
1.0
176
0
 90
2
176
1
  1
strokes_ogs.tif
176
1
290
0
176
1
 40
1.0
176
1
 40
1.0
176
1
  0
VISUALSTYLE
  5
72
102
{ACAD_REACTORS
330
16
102
}
330
16
100
AcDbVisualStyle
  2
X-Ray
 70
25
177
3
291
0
 70
58
 90
2
176
1
 90
2
176
1
 90
0
176
1
 90
2
176
1
 40
0.5
176
1
 40
30.0
176
1
 62
7
420
16777215
176
1
 90
1
176
1
 90
4
176
1
 62
7
176
1
 62
257
176
1
 90
1
176
1
 90
1
176
1
 40
1.0
176
1
 90
8
176
1
 62
7
176
1
 40
1.0
176
1
 90
1
176
1
 90
6
176
1
 90
2
176
1
 62
7
176
1
 90
5
176
1
 90
0
176
1
 90
0
176
1
290
0
176
1
 90
1
176
1
 40
0.0
176
1
 90
0
176
1
290
0
176
1
290
1
176
1
290
1
176
1
290
0
176
1
290
0
176
1
290
0
176
1
290
0
176
1
290
0
176
1
290
0
176
1
 90
50
176
1
 40
0.0
176
1
 40
1.0
176
1
 90
0
176
1
 62
18
420
0
176
1
 90
50
176
1
 90
3
176
1
 62
5
420
255
176
1
290
0
176
1
 90
50
176
1
 90
50
176
1
 90
50
176
1
290
0
176
1
 90
50
176
1
 62
256
176
0
 40
1.0
176
0
 90
2
176
1
  1
strokes_ogs.tif
176
1
290
0
176
1
 40
1.0
176
1
 40
1.0
176
1
  0
DICTIONARYVAR
  5
12D
330
2D
100
DictionaryVariables
280
0
  1
1.4.4 @ 2026-07-13T19:40:27.866691+00:00
  0
ENDSEC
  0
EOF
