<?xml version="1.0" encoding="utf-8" ?>
<svg baseProfile="full" height="154.221149cm" version="1.1" viewBox="0 0 161.2938698417234 154.221149" width="161.2938698417234cm" xmlns="http://www.w3.org/2000/svg" xmlns:ev="http://www.w3.org/2001/xml-events" xmlns:xlink="http://www.w3.org/1999/xlink"><defs /><g fill="none" id="CONSTRUCCION" stroke="#888888" stroke-width="0.08"><line x1="5.7" x2="5.7" y1="13.821149" y2="74.221149" /><line x1="114.50728524519604" x2="114.50728524519604" y1="65.721149" y2="53.721149" /><line x1="133.2938698417234" x2="157.2938698417234" y1="10.221149" y2="10.221149" /><line x1="92.16959376819291" x2="104.16959376819291" y1="87.441149" y2="87.441149" /></g><g fill="none" id="CORTE" stroke="#d00000" stroke-width="0.08"><polygon points="3.0,75.221149 31.7,75.221149 31.7,26.341731 31.082126,25.644709 30.715066,25.23138 30.345366,24.816584 29.972462999999998,24.400442 29.595492,23.982744 29.213596,23.563286 28.825917,23.141869 28.431618,22.718315 28.030832999999998,22.29344 27.627161,21.869321 27.226499999999998,21.446848 26.833537,21.025494000000002 26.452846,20.604813 26.088994,20.184578 25.746491,19.764785 25.429726,19.345659 25.142864,18.927636 24.889715,18.511296 24.673576,18.097227 24.497071,17.685704 24.361172,17.273564 24.26377,16.852657999999998 24.201655,16.417078 24.173154999999998,15.965551 24.176816,15.497883 24.211097,15.014503000000001 24.274238999999998,14.516278 24.364213,14.004335000000001 24.478741,13.479926 24.615323,12.944336 24.771283,12.398813 24.943814,11.844546 25.130008999999998,11.28264 25.32689,10.714112 25.531427,10.139888000000001 26.064204999999998,8.664568 12.469243,3.0 11.801069,3.884464 11.599692000000001,4.1516090000000005 11.398247000000001,4.420015 11.19702,4.689894 10.9963,4.9614650000000005 10.796378,5.2349440000000005 10.597549,5.51055 10.400112,5.788506 10.204367000000001,6.069031 10.010619,6.352348 9.819175000000001,6.63868 9.63035,6.928247 9.444457,7.221273 9.261977,7.517715 9.084025,7.816033 8.91087,8.113802 8.741668,8.409749 8.575355,8.703062 8.410908,8.992939 8.247347,9.27859 8.083736,9.559235 7.919182,9.83411 7.752831,10.102473 7.583869,10.363611 7.411512,10.616852 7.234998,10.861576 7.053566,11.097245000000001 6.865524,11.324524 6.668078,11.546403 6.4601500000000005,11.765603 6.242441,11.982981 6.0159,12.19922 5.781544,12.415035 5.54044,12.63118 5.324711000000001,12.821149 3.0,12.821149 3.0,75.221149" /><polygon points="62.7,16.414203 62.22551300000001,15.714108 61.923351000000004,15.267985 61.621256,14.821380999999999 61.319175,14.373930000000001 61.017053000000004,13.925263000000001 60.714838,13.475013 60.412473000000006,13.022811 60.109919000000005,12.56831 59.807582000000004,12.111787 59.507339,11.654277 59.21181,11.196352000000001 58.923197,10.737942 58.643662000000006,10.278989 58.375344,9.819485 58.120344,9.359461000000001 57.880718,8.898981000000001 57.658463,8.438134 57.455496000000004,7.977017 57.273648,7.515709000000001 57.11464600000001,7.05424 56.980087000000005,6.592462000000001 56.870951000000005,6.128188 56.786323,5.657451 56.724363000000004,5.178246 56.683618,4.690559 56.621458000000004,3.221149 36.7,3.221149 36.7,65.221149 62.7,65.221149 62.7,16.414203" /><polygon points="87.662637,14.194595 87.659932,13.690675 87.673959,13.179202 87.703114,12.660637000000001 87.74573600000001,12.135473999999999 87.80010300000001,11.604222 87.864443,11.067386999999998 87.936937,10.525466999999999 88.015728,9.978938999999999 88.098919,9.428258 88.309416,8.065949 74.8713,3.1077669999999995 74.235982,3.5273159999999995 74.026058,3.6646499999999995 73.818644,3.7978059999999996 73.61324,3.9259519999999997 73.40937,4.048311 73.206553,4.164168 73.0036,4.273257999999999 72.79849,4.376116 72.590253,4.473229999999999 72.37909,4.5645109999999995 72.165298,4.6498289999999995 71.949178,4.729056999999999 71.73103400000001,4.802073999999999 71.51116900000001,4.868761999999999 71.289888,4.92901 71.06749500000001,4.9827129999999995 70.84419,5.029793999999999 70.619337,5.07037 70.391855,5.104932 70.161371,5.133963 69.927891,5.1578919999999995 69.691449,5.177156999999999 69.45209700000001,5.192213 69.2099,5.203526999999999 68.964934,5.211583999999999 68.71728,5.216886 68.467021,5.219951999999999 68.214243,5.221314 67.959028,5.221525 67.7,5.2211479999999995 67.7,15.221149 87.706063,15.221149 87.662637,14.194595" /><polygon points="96.82971937968694,66.721149 123.66046137968692,66.721149 128.32865337968693,13.997476 127.60369137968692,13.200823 127.16761037968692,12.727075000000001 126.72268537968694,12.254663 126.26681437968693,11.786991 125.80023937968693,11.328466 125.32521337968693,10.88078 124.84273437968693,10.443382 124.35344137968693,10.015367 123.85795637968693,9.595829 123.35689337968692,9.183862 122.85085137968693,8.778557 122.34042137968693,8.379011 121.82618137968693,7.98432 121.30800237968693,7.593064 120.78383137968693,7.203839 120.25120637968693,6.818131 119.70900937968693,6.438931 119.15626237968692,6.069422 118.59193637968693,5.712842 118.01496937968693,5.372503 117.42428437968692,5.051811 116.81882437968693,4.7542860000000005 116.19760237968693,4.483581 115.56134337968693,4.244062 114.91515337968693,4.038832 114.26465937968693,3.8651619999999998 113.61206237968693,3.718404 112.95891237968692,3.593869 112.30663837968693,3.4869950000000003 111.65660237968693,3.39336 111.01015037968693,3.308682 110.27104937968693,3.21666 109.51807137968693,3.271115 108.85827737968692,3.322908 108.19475937968693,3.383238 107.52867837968692,3.456338 106.86119437968694,3.54657 106.19351637968693,3.658433 105.52695137968693,3.796556 104.86304837968693,3.965665 104.20586037968692,4.169729 103.56121837968693,4.408184 102.93150137968692,4.676774 102.31613937968693,4.971947 101.71430637968693,5.290328000000001 101.12512537968692,5.628651 100.54770437968693,5.983748 99.98116037968693,6.352533 99.42464337968693,6.731986 98.87733937968693,7.1191320000000005 98.33771837968693,7.511597 97.80281737968693,7.909745 97.27198637968692,8.316837 96.74709937968693,8.735161 96.23044637968692,9.16677 95.72437337968692,9.613758 95.23130037968693,10.078244 94.75374337968692,10.562348 94.29432937968693,11.068168 93.85627537968693,11.597167 93.44537137968693,12.145548 93.06178237968693,12.702666 92.69934637968693,13.260201 92.17041537968693,14.097865 96.82971937968694,66.721149" /><polygon points="132.2938698417234,15.470276 132.3237108417234,15.773256 132.42641684172338,16.111831000000002 132.59320184172338,16.423864000000002 132.8176558417234,16.697363000000003 133.09115484172338,16.921817 133.4031878417234,17.088602 133.74176284172339,17.191308 134.0447428417234,17.221149 156.54299684172338,17.221149 156.8459768417234,17.191308 157.1845518417234,17.088602 157.4965848417234,16.921817 157.7700838417234,16.697363000000003 157.9945378417234,16.423864000000002 158.1613228417234,16.111831000000002 158.2640288417234,15.773256 158.2938698417234,15.470276 158.2938698417234,4.972022 158.2640288417234,4.669042 158.1613228417234,4.3304670000000005 157.9945378417234,4.018434 157.7700838417234,3.744935 157.4965848417234,3.520481 157.1845518417234,3.3536960000000002 156.8459768417234,3.25099 156.54299684172338,3.221149 134.0447428417234,3.221149 133.74176284172339,3.25099 133.4031878417234,3.3536960000000002 133.09115484172338,3.520481 132.8176558417234,3.744935 132.59320184172338,4.018434 132.42641684172338,4.3304670000000005 132.3237108417234,4.669042 132.2938698417234,4.972022 132.2938698417234,15.470276" /><polygon points="3.0,82.87027599999999 3.022155,83.095219 3.1020980000000002,83.358757 3.2319190000000004,83.601635 3.406629,83.81452 3.619514,83.98922999999999 3.8623920000000003,84.119051 4.12593,84.198994 4.350873,84.221149 15.649127,84.221149 15.87407,84.198994 16.137608,84.119051 16.380485999999998,83.98922999999999 16.593370999999998,83.81452 16.768081000000002,83.601635 16.897902000000002,83.358757 16.977845000000002,83.095219 17.0,82.87027599999999 17.0,80.572022 16.977845000000002,80.347079 16.897902000000002,80.083541 16.768081000000002,79.84066299999999 16.593370999999998,79.62777799999999 16.380485999999998,79.453068 16.137608,79.323247 15.87407,79.243304 15.649127,79.221149 4.350873,79.221149 4.12593,79.243304 3.8623920000000003,79.323247 3.619514,79.453068 3.406629,79.62777799999999 3.2319190000000004,79.84066299999999 3.1020980000000002,80.083541 3.022155,80.347079 3.0,80.572022 3.0,82.87027599999999" /><polygon points="22.807285,85.894927 23.310329,85.984143 23.813422,86.068269 24.316562,86.14730399999999 24.819747,86.221246 25.322973,86.290094 25.826238,86.353848 26.329539,86.412505 26.832873,86.466066 27.336238,86.514528 27.83963,86.557891 28.343047,86.596155 28.846485,86.629318 29.349942,86.65738 29.853415,86.680341 30.3569,86.6982 30.860394,86.710956 31.363895,86.71861 31.867398,86.72116199999999 32.370902,86.71861 32.874403,86.710956 33.377897000000004,86.6982 33.881382,86.680341 34.384854000000004,86.65738 34.888311,86.629318 35.39175,86.596155 35.895167,86.557891 36.398559,86.514528 36.901924,86.466066 37.405258,86.412505 37.908559,86.353848 38.411823999999996,86.290094 38.91505,86.221246 39.418234999999996,86.14730399999999 39.921375,86.068269 40.424468000000005,85.984143 40.927512,85.894927 41.237952,85.836724 43.291358,89.259068 44.346576,88.860085 42.534339,79.043803 41.052349,79.336675 40.568602,79.427371 40.084906000000004,79.513155 39.601259999999996,79.59402899999999 39.11766,79.669994 38.634105000000005,79.741052 38.150591,79.807204 37.667116,79.86845 37.183677,79.924793 36.700272,79.976232 36.216896,80.02277 35.733549000000004,80.064407 35.250226,80.101143 34.766925,80.13298 34.283642,80.15991799999999 33.800374,80.181957 33.317119,80.19909799999999 32.833874,80.211342 32.350635,80.218688 31.867398,80.221136 31.384162,80.218688 30.900923,80.211342 30.417676999999998,80.19909799999999 29.934423,80.181957 29.451155,80.15991799999999 28.967872,80.13298 28.484571,80.101143 28.001248,80.064407 27.5179,80.02277 27.034525000000002,79.976232 26.55112,79.924793 26.067681,79.86845 25.584206000000002,79.807204 25.100692,79.741052 24.617137,79.669994 24.133537,79.59402899999999 23.649891,79.513155 23.166195000000002,79.427371 22.682448,79.336675 22.0,79.201809 22.0,85.740489 22.304292,85.800623 22.807285,85.894927" /><polygon points="49.873372884096455,84.36425 50.41652088409646,84.43520099999999 50.959687884096454,84.502099 51.50287488409646,84.56494599999999 52.04607988409646,84.62374 52.58930188409646,84.67848099999999 53.13253988409646,84.729168 53.67579288409646,84.775802 54.219058884096455,84.818382 54.762336884096456,84.85690699999999 55.305626884096455,84.891378 55.84892588409646,84.92179399999999 56.392233884096456,84.948155 56.93554988409646,84.97046 57.47887088409646,84.988711 58.02219788409646,85.002905 58.565527884096454,85.01304499999999 59.10886088409646,85.019128 59.65219488409646,85.02115599999999 60.19552988409646,85.019128 60.738862884096456,85.01304499999999 61.28219288409646,85.002905 61.82551988409646,84.988711 62.36884088409646,84.97046 62.912156884096454,84.948155 63.45546488409646,84.92179399999999 63.998763884096455,84.891378 64.54205388409646,84.85690699999999 65.08533188409646,84.818382 65.62859788409645,84.775802 66.17185088409646,84.729168 66.71508888409646,84.67848099999999 67.25831088409646,84.62374 67.80151588409646,84.56494599999999 68.34470288409645,84.502099 68.88786988409646,84.43520099999999 69.43101688409646,84.36425 69.97414288409645,84.289248 71.36959388409646,84.086129 71.36959388409646,79.06505299999999 69.69330488409645,79.30905 69.16469088409646,79.382048 68.63609788409646,79.45109699999999 68.10752588409646,79.516199 67.57897288409646,79.57735199999999 67.05043788409645,79.634558 66.52191988409646,79.687817 65.99341788409646,79.73713 65.46493088409646,79.782496 64.93645688409646,79.823916 64.40799588409647,79.861391 63.87954488409646,79.89492 63.35110488409646,79.924504 62.822672884096455,79.950143 62.294248884096454,79.97183799999999 61.76583088409646,79.989587 61.237416884096454,80.003393 60.70900788409646,80.01325299999999 60.18060088409646,80.01917 59.65219488409646,80.021142 59.12378988409645,80.01917 58.59538288409646,80.01325299999999 58.06697288409646,80.003393 57.53855988409646,79.989587 57.010141884096456,79.97183799999999 56.481717884096454,79.950143 55.95328588409646,79.924504 55.42484488409646,79.89492 54.89639488409646,79.861391 54.36793388409646,79.823916 53.839459884096456,79.782496 53.31097288409646,79.73713 52.782470884096455,79.687817 52.253952884096456,79.634558 51.72541788409646,79.57735199999999 51.196864884096456,79.516199 50.66829288409646,79.45109699999999 50.13969988409646,79.382048 49.611085884096454,79.30905 48.93479688409646,79.210611 48.93479688409646,84.231687 49.33024788409646,84.289248 49.873372884096455,84.36425" /><polygon points="75.36959376819291,151.221149 83.37308376819291,151.221149 83.17015476819292,92.980456 87.39059776819292,80.213617 84.87297876819292,78.954807 84.17066276819291,79.884464 83.96928576819292,80.151609 83.76784076819291,80.42001499999999 83.56661376819292,80.689894 83.36589376819292,80.961465 83.16597176819292,81.234944 82.96714276819291,81.51055 82.76970576819292,81.788506 82.57396076819292,82.069031 82.38021276819292,82.35234799999999 82.18876876819292,82.63868 81.99994376819292,82.928247 81.81405076819291,83.221273 81.63157076819292,83.517715 81.45361876819291,83.81603299999999 81.28046376819292,84.11380199999999 81.11126176819292,84.40974899999999 80.94494876819292,84.703062 80.78050176819292,84.99293899999999 80.61694076819292,85.27859 80.45332976819292,85.559235 80.28877576819292,85.83411 80.12242476819291,86.102473 79.95346276819292,86.36361099999999 79.78110576819292,86.616852 79.60459176819292,86.861576 79.42315976819292,87.097245 79.23511776819292,87.324524 79.03767176819292,87.546403 78.82974376819291,87.765603 78.61203476819291,87.982981 78.38549376819292,88.19922 78.15113776819291,88.41503499999999 77.91003376819292,88.63118 77.69430476819292,88.82114899999999 75.36959376819291,88.82114899999999 75.36959376819291,151.221149" /><polygon points="91.16959376819291,90.493054 98.16959376819291,94.903054 105.16959376819291,90.493054 105.16959376819291,79.221149 91.16959376819291,79.221149 91.16959376819291,90.493054" /></g><g fill="none" id="COSTURA" stroke="#00a000" stroke-width="0.08"><polygon points="4.0,13.821149 5.7,13.821149 5.952913193920786,13.600416627153438 6.204650490377079,13.378738616856557 6.45403599190438,13.15516933165905 6.699893801038199,12.928763134110595 6.9410480203140414,12.698574386760876 7.176322752267408,12.463657452159584 7.40454209943381,12.223066692856397 7.62453016434875,11.975856471401004 7.835237645658011,11.7211820436073 8.036906265928831,11.459227572238456 8.230532205992677,11.190778500435236 8.417121123396413,10.916627823993455 8.597678675686897,10.63756853870893 8.773210520410998,10.35439364037747 8.94472231511558,10.06789612479489 9.113219717347505,9.778868987757008 9.279708384653635,9.488105225059632 9.445193974580839,9.196397832498576 9.610682144675977,8.904539805869657 9.77717855248591,8.613324140968688 9.94568885555751,8.323543833591483 10.11721856613174,8.035991766180441 10.292498026835972,7.75124616082547 10.471410328556217,7.469224296879853 10.653676021983555,7.189716655773635 10.839015657809064,6.912513718936869 11.027149786723813,6.637405967799603 11.217798959418882,6.36418388379189 11.410683726585345,6.092637948343777 11.60552463891428,5.822558642885314 11.802042247096761,5.553736448846553 11.999957101823862,5.285961847657541 12.19898975378666,5.01902532074833 12.398860753676233,4.75271734954897 12.599290652183655,4.48682841548951 12.799999999999999,4.2211490000000005 24.8,9.221149 24.590136093891196,9.802284738671785 24.383388532801646,10.382715551587525 24.182873661750616,10.961736512991182 23.991707825757356,11.538642697126713 23.81300736984113,12.11272917823807 23.649888639021192,12.683291030569215 23.5054679783168,13.249623328364107 23.382861732747216,13.8110211458667 23.28518624733169,14.366779557320953 23.215557867089487,14.916193636970819 23.177092937039866,15.458558459060264 23.172907802202072,15.993169097833237 23.20611880759538,16.519320627533702 23.279842298239036,17.036308122405615 23.3971946191523,17.543426656692926 23.560946442157135,18.04003555366748 23.769510200794404,18.526304186599234 24.018316328343,19.002956182369527 24.30273731815458,19.47072593694459 24.618145663580787,19.93034784629065 24.95991385797327,20.382556306373925 25.323414394683677,20.828085713160647 25.704019767063656,21.267670462617033 26.097102468464858,21.702044950709315 26.498034992238924,22.13194357340371 26.90218983173751,22.55810072666645 27.30493948031225,22.981250806463756 27.701929844029177,23.402103339772214 28.09196858945555,23.82108026712866 28.47589534450991,24.238418706553915 28.854583250673983,24.65435272775244 29.228905449429476,25.069116400428683 29.599735082258118,25.48294379428711 29.9679452906416,25.89606897903217 30.334409216061655,26.308726024368312 30.7,26.721149 30.7,74.221149 4.0,74.221149" /><polygon points="36.7,4.2211490000000005 55.66286611638456,4.2211490000000005 55.68537934821374,4.75334655549729 55.729717940338986,5.2840444527536 55.79774007593018,5.810129211219131 55.891419383609495,6.331216402661319 56.012647959394585,6.84693270542744 56.1613289849016,7.357175732869688 56.33531145280368,7.862122925210109 56.5323497639934,8.361964608204943 56.75019831936339,8.856891107610421 56.98661151980624,9.347092749182776 57.23934376621456,9.832759858678248 57.50614945948095,10.314082761853069 57.78478300049804,10.79125178446348 58.07299879015841,11.264457252265704 58.368551229354665,11.733889491015987 58.669194718979426,12.199738826470561 58.97268365992529,12.662195584385657 59.27683285317262,13.121454677594592 59.580614349562055,13.577798906125881 59.88404160473709,14.031590159364924 60.187165224585485,14.483193148067752 60.490035814995025,14.932972582990416 60.79270398185347,15.381293174888931 61.095220331048594,15.828519634519346 61.397635468468195,16.27501667263769 61.7,16.721149 61.7,64.221149 36.7,64.221149" /><polygon points="67.7,6.221149 67.95871263809138,6.221525484115061 68.21735085635254,6.221312013139125 68.4758402349533,6.219918631981195 68.73410635406341,6.216755385550274 68.9920747938527,6.211232318755366 69.24967113449094,6.202759476505472 69.50682095614792,6.190746903709597 69.76344983899342,6.174604645276742 70.01948336319727,6.1537427461159115 70.27484710892922,6.127571251136109 70.52946665635909,6.095500205246335 70.78326758565666,6.056939653355595 71.03617520108648,6.01130062029742 71.28805824057989,5.958195035903055 71.53866016788268,5.8976797626782735 71.7877076399494,5.829871355319671 72.03492731373461,5.754886368523842 72.28004584619288,5.67284135698738 72.52278989427873,5.58385287540688 72.76288611494674,5.488037478478933 73.00006116515145,5.385511720900137 73.23404170184743,5.276392157367085 73.46455438198922,5.16079534257637 73.6913682099985,5.03887935649202 73.91473999733287,4.911280615068076 74.13523915430319,4.778942063830646 74.35344020698224,4.6428116647424265 74.56991768144285,4.503837379766113 74.78524610375783,4.362967170864405 75.0,4.2211490000000005 87.19631091765046,8.721148999999999 87.11039002071297,9.277219160605597 87.02644275239763,9.83290489297863 86.9464427413266,10.387821768886534 86.87236361612207,10.941585360096742 86.80617900540621,11.493811238376692 86.74986253780114,12.044114975493814 86.70538784192905,12.59211214321555 86.67472854641211,13.13741831330933 86.65985827987247,13.679649057542589 86.6627506709323,14.218419947682765 86.66286611638456,14.221149 67.7,14.221149" /><polygon points="93.19631091765046,14.346149 93.54136284855042,13.799692197002377 93.89296184845264,13.258829366211298 94.25765498635934,12.729154479833305 94.64197630138214,12.216250471288573 95.04995130044635,11.723575071905113 95.48012840981116,11.249945887859495 95.93033318696986,10.793568118510443 96.39839118941573,10.352646963216683 96.88212797464207,9.925387621336945 97.37936910014216,9.50999529222995 97.8879401234093,9.104675175254428 98.40566660193676,8.7076324697691 98.93037409321784,8.317072375132696 99.4602039488343,7.93172809413117 99.99510495365408,7.553354833458623 100.535667827915,7.184781107029784 101.08248405832194,6.82883671028171 101.63614513157967,6.488351438651458 102.19724253439304,6.166155087576084 102.76636775346685,5.865077452492647 103.34411227550594,5.587948328838203 103.93106758721511,5.337597512049808 104.5278251752992,5.116854797564519 105.13492082276399,4.928344753860133 105.75193684745389,4.771179135019091 106.37765494011398,4.64151997602146 107.01083194817708,4.5354377826038945 107.65022471907604,4.44900306050305 108.29459010024367,4.378286315455583 108.94268493911281,4.3193580531981475 109.59326608311628,4.268288779467402 110.24509037968693,4.2211490000000005 110.88343390170353,4.30062595138365 111.52036996290065,4.384058058171768 112.15449110245878,4.475400475768821 112.78438985955846,4.578608359579277 113.40865877338017,4.697636865007603 114.02589038310445,4.836441147458267 114.6346772279118,4.9989763623357355 115.23361184698271,5.189197665044477 115.82146215521595,5.410492879793091 116.39834730761503,5.661878640340797 116.96501434407291,5.940340405955811 117.52221377565553,6.242852406844936 118.07069611342882,6.566388873214972 118.61121186845871,6.907924035272725 119.14451155181116,7.264432123224996 119.67134567455209,7.632887367278586 120.19246474774744,8.010263997640301 120.70861928246312,8.393536244516941 121.22045178034229,8.780000167502862 121.72778612872908,9.16939100354983 122.23007118959305,9.562561430879962 122.72675387476447,9.960369938431793 123.2172810960736,10.363675015143858 123.70109976535073,10.77333514995469 124.17765679442614,11.190208831802824 124.64639909513008,11.6151545496268 125.10677357929285,12.049030792365144 125.5582271587447,12.492696048956397 126.000606686573,12.946526899242416 126.43572725193393,13.408528297609463 126.8660084009219,13.875976858239087 127.29386984172339,14.346149 122.74509037968693,65.721149 97.74509037968693,65.721149" /><polygon points="133.2938698417234,5.021149 133.3092416174008,4.865076742387098 133.35476621571436,4.715002254107929 133.42869415188136,4.576692813584319 133.52818441677417,4.4554635750507625 133.6494136553077,4.355973310157964 133.78772309583132,4.282045373990971 133.93779758411048,4.236520775677416 134.0938698417234,4.2211490000000005 156.49386984172338,4.2211490000000005 156.6499420993363,4.236520775677416 156.80001658761546,4.282045373990971 156.93832602813907,4.355973310157964 157.05955526667262,4.4554635750507625 157.15904553156543,4.576692813584319 157.23297346773242,4.715002254107929 157.27849806604598,4.865076742387098 157.2938698417234,5.021149 157.2938698417234,15.421149 157.27849806604598,15.577221257612903 157.23297346773242,15.727295745892071 157.15904553156543,15.865605186415682 157.05955526667262,15.986834424949238 156.93832602813907,16.086324689842037 156.80001658761546,16.16025262600903 156.6499420993363,16.205777224322585 156.49386984172338,16.221149 134.0938698417234,16.221149 133.93779758411048,16.205777224322585 133.78772309583132,16.16025262600903 133.6494136553077,16.086324689842037 133.52818441677417,15.986834424949238 133.42869415188136,15.865605186415682 133.35476621571436,15.727295745892071 133.3092416174008,15.577221257612903 133.2938698417234,15.421149" /><polygon points="4.0,80.621149 4.007685887838708,80.54311287119354 4.030448186995486,80.46807562705396 4.067412155078982,80.39892090679216 4.117157287525381,80.33830628752538 4.1777719067921595,80.28856115507898 4.2469266270539645,80.25159718699548 4.321963871193549,80.2288348878387 4.4,80.221149 15.6,80.221149 15.67803612880645,80.2288348878387 15.753073372946035,80.25159718699548 15.82222809320784,80.28856115507898 15.882842712474618,80.33830628752538 15.932587844921018,80.39892090679216 15.969551813004514,80.46807562705396 15.992314112161292,80.54311287119354 16.0,80.621149 16.0,82.82114899999999 15.992314112161292,82.89918512880645 15.969551813004514,82.97422237294603 15.932587844921018,83.04337709320784 15.882842712474618,83.10399171247461 15.82222809320784,83.15373684492101 15.753073372946035,83.19070081300451 15.67803612880645,83.21346311216129 15.6,83.221149 4.4,83.221149 4.3219638711935495,83.21346311216129 4.2469266270539645,83.19070081300451 4.1777719067921595,83.15373684492101 4.117157287525381,83.10399171247461 4.067412155078982,83.04337709320784 4.030448186995486,82.97422237294603 4.007685887838708,82.89918512880645 4.0,82.82114899999999" /><polygon points="22.0,80.221149 22.49336992210241,80.318649 22.986739844204823,80.411149 23.480109766307233,80.498649 23.973479688409647,80.581149 24.466849610512057,80.658649 24.960219532614467,80.731149 25.45358945471688,80.798649 25.94695937681929,80.861149 26.440329298921704,80.918649 26.933699221024114,80.971149 27.427069143126523,81.018649 27.920439065228937,81.061149 28.413808987331347,81.098649 28.90717890943376,81.131149 29.40054883153617,81.158649 29.89391875363858,81.18114899999999 30.38728867574099,81.198649 30.880658597843407,81.21114899999999 31.374028519945817,81.218649 31.867398442048227,81.221149 32.36076836415064,81.218649 32.85413828625305,81.21114899999999 33.347508208355464,81.198649 33.840878130457874,81.18114899999999 34.334248052560284,81.158649 34.827617974662694,81.131149 35.32098789676511,81.098649 35.81435781886752,81.061149 36.30772774096993,81.018649 36.80109766307234,80.971149 37.29446758517475,80.918649 37.78783750727716,80.861149 38.28120742937958,80.798649 38.77457735148198,80.731149 39.2679472735844,80.658649 39.761317195686814,80.581149 40.25468711778922,80.498649 40.748057039891634,80.411149 41.24142696199404,80.318649 41.734796884096454,80.221149 42.93479688409646,86.721149 41.734796884096454,84.721149 41.24142696199404,84.818649 40.748057039891634,84.911149 40.25468711778922,84.998649 39.761317195686814,85.081149 39.2679472735844,85.158649 38.77457735148198,85.231149 38.28120742937958,85.298649 37.78783750727716,85.361149 37.29446758517475,85.418649 36.80109766307234,85.471149 36.30772774096993,85.518649 35.81435781886752,85.561149 35.32098789676511,85.598649 34.827617974662694,85.631149 34.334248052560284,85.658649 33.840878130457874,85.68114899999999 33.347508208355464,85.698649 32.85413828625305,85.71114899999999 32.36076836415064,85.718649 31.867398442048227,85.721149 31.374028519945817,85.718649 30.880658597843407,85.71114899999999 30.38728867574099,85.698649 29.89391875363858,85.68114899999999 29.40054883153617,85.658649 28.90717890943376,85.631149 28.413808987331347,85.598649 27.920439065228937,85.561149 27.427069143126523,85.518649 26.933699221024114,85.471149 26.440329298921704,85.418649 25.94695937681929,85.361149 25.45358945471688,85.298649 24.960219532614467,85.231149 24.466849610512057,85.158649 23.973479688409647,85.081149 23.480109766307233,84.998649 22.986739844204823,84.911149 22.49336992210241,84.818649 22.0,84.721149" /><polygon points="48.93479688409646,80.221149 49.47066680619887,80.299149 50.00653672830128,80.373149 50.54240665040369,80.44314899999999 51.078276572506105,80.509149 51.61414649460851,80.57114899999999 52.150016416710926,80.629149 52.68588633881333,80.683149 53.22175626091575,80.733149 53.75762618301816,80.779149 54.29349610512057,80.82114899999999 54.82936602722298,80.859149 55.365235949325395,80.893149 55.9011058714278,80.923149 56.436975793530216,80.94914899999999 56.97284571563263,80.971149 57.50871563773504,80.989149 58.04458555983745,81.003149 58.580455481939865,81.013149 59.11632540404227,81.019149 59.652195326144685,81.021149 60.1880652482471,81.019149 60.723935170349506,81.013149 61.25980509245191,81.003149 61.79567501455433,80.989149 62.33154493665674,80.971149 62.867414858759155,80.94914899999999 63.40328478086156,80.923149 63.939154702963975,80.893149 64.47502462506638,80.859149 65.01089454716879,80.82114899999999 65.54676446927121,80.779149 66.08263439137362,80.733149 66.61850431347602,80.683149 67.15437423557844,80.629149 67.69024415768085,80.57114899999999 68.22611407978326,80.509149 68.76198400188568,80.44314899999999 69.29785392398809,80.373149 69.83372384609049,80.299149 70.36959376819291,80.221149 70.36959376819291,83.221149 69.83372384609049,83.299149 69.29785392398809,83.373149 68.76198400188568,83.44314899999999 68.22611407978326,83.509149 67.69024415768085,83.57114899999999 67.15437423557844,83.629149 66.61850431347602,83.683149 66.08263439137362,83.733149 65.54676446927121,83.77914899999999 65.01089454716879,83.82114899999999 64.47502462506638,83.859149 63.939154702963975,83.893149 63.40328478086156,83.923149 62.867414858759155,83.94914899999999 62.33154493665674,83.971149 61.79567501455433,83.989149 61.25980509245191,84.003149 60.723935170349506,84.013149 60.1880652482471,84.019149 59.652195326144685,84.021149 59.11632540404227,84.019149 58.580455481939865,84.013149 58.04458555983745,84.003149 57.50871563773504,83.989149 56.97284571563263,83.971149 56.436975793530216,83.94914899999999 55.9011058714278,83.923149 55.365235949325395,83.893149 54.82936602722298,83.859149 54.29349610512057,83.82114899999999 53.75762618301816,83.77914899999999 53.22175626091575,83.733149 52.68588633881333,83.683149 52.150016416710926,83.629149 51.61414649460851,83.57114899999999 51.078276572506105,83.509149 50.54240665040369,83.44314899999999 50.00653672830128,83.373149 49.47066680619887,83.299149 48.93479688409646,83.221149" /><polygon points="76.36959376819291,89.82114899999999 78.06959376819292,89.82114899999999 78.3225069621137,89.60041662715344 78.57424425856999,89.37873861685655 78.82362976009729,89.15516933165904 79.06948756923111,88.9287631341106 79.31064178850696,88.69857438676087 79.54591652046032,88.46365745215958 79.77413586762673,88.22306669285639 79.99412393254167,87.975856471401 80.20483141385093,87.7211820436073 80.40650003412175,87.45922757223845 80.6001259741856,87.19077850043523 80.78671489158933,86.91662782399345 80.96727244387982,86.63756853870893 81.14280428860391,86.35439364037747 81.3143160833085,86.06789612479488 81.48281348554042,85.77886898775701 81.64930215284656,85.48810522505963 81.81478774277376,85.19639783249858 81.98027591286889,84.90453980586966 82.14677232067882,84.61332414096869 82.31528262375042,84.32354383359149 82.48681233432465,84.03599176618044 82.66209179502889,83.75124616082547 82.84100409674913,83.46922429687984 83.02326979017647,83.18971665577364 83.20860942600198,82.91251371893686 83.39674355491672,82.6374059677996 83.5873927276118,82.36418388379188 83.78027749477826,82.09263794834378 83.9751184071072,81.82255864288531 84.17163601528968,81.55373644884655 84.36955087001678,81.28596184765753 84.56858352197958,81.01902532074833 84.76845452186915,80.75271734954897 84.96888442037657,80.48682841548951 85.16959376819291,80.221149 86.16959376819291,80.721149 82.16959376819291,92.82114899999999 82.36959376819291,150.221149 76.36959376819291,150.221149" /><polygon points="92.16959376819291,80.221149 104.16959376819291,80.221149 104.16959376819291,89.941149 98.16959376819291,93.721149 92.16959376819291,89.941149" /></g><g fill="none" id="PIQUETES" stroke="#00b0b0" stroke-width="0.08"><line x1="22.9477283586464" x2="23.042067613936503" y1="16.06869785645913" y2="16.707994426848266" /><line x1="23.414647167270658" x2="23.042067613936503" y1="16.17999397567675" y2="16.707994426848266" /><line x1="30.787003124929427" x2="30.140812775916494" y1="47.872474110366596" y2="47.87864118767643" /><line x1="30.61299687507057" x2="30.140812775916494" y1="48.3198238896334" y2="47.87864118767643" /><line x1="45.94234361770865" x2="46.233648923191865" y1="4.242035345999834" y2="4.818872601209074" /><line x1="46.420522498675915" x2="46.233648923191865" y1="4.200262654000166" y2="4.818872601209074" /><line x1="77.42041706322675" x2="77.12628295972874" y1="14.199088960614583" y2="13.623688987413834" /><line x1="76.94244905315782" x2="77.12628295972874" y1="14.243209039385418" y2="13.623688987413834" /><line x1="118.36397542361114" x2="118.42191666186436" y1="6.828192842108907" y2="7.47180981897456" /><line x1="118.82383299062282" x2="118.42191666186436" y1="6.965782878311007" y2="7.47180981897456" /><line x1="101.26184234716654" x2="101.66729654152819" y1="6.647842642700475" y2="7.151039320227814" /><line x1="101.72072397149206" x2="101.66729654152819" y1="6.5070319369413685" y2="7.151039320227814" /><line x1="99.89021762682076" x2="100.32219674461544" y1="7.553910182003873" y2="8.034528577187954" /><line x1="100.34084524220141" x2="100.32219674461544" y1="7.388577933920386" y2="8.034528577187954" /></g><g fill="none" id="TEXTOS" stroke="#000000" stroke-width="0.08"><text fill="#000000" font-family="sans-serif" font-size="0.9" stroke="none" text-anchor="middle" x="16.84489116421248" y="40.00690854065965">DELANTERO</text><text fill="#000000" font-family="sans-serif" font-size="0.6" stroke="none" text-anchor="middle" x="16.84489116421248" y="41.40690854065965">Pieza N.01</text><text fill="#000000" font-family="sans-serif" font-size="0.6" stroke="none" text-anchor="middle" x="16.84489116421248" y="42.80690854065965">Talla: M</text><text fill="#000000" font-family="sans-serif" font-size="0.6" stroke="none" text-anchor="middle" x="16.84489116421248" y="44.206908540659654">Cortar: 2  (par: izq + der)</text><text fill="#000000" font-family="sans-serif" font-size="0.9" stroke="none" text-anchor="middle" x="48.87385971264811" y="31.44180007808607">ESPALDA</text><text fill="#000000" font-family="sans-serif" font-size="0.6" stroke="none" text-anchor="middle" x="48.87385971264811" y="32.84180007808607">Pieza N.02</text><text fill="#000000" font-family="sans-serif" font-size="0.6" stroke="none" text-anchor="middle" x="48.87385971264811" y="34.24180007808607">Talla: M</text><text fill="#000000" font-family="sans-serif" font-size="0.6" stroke="none" text-anchor="middle" x="48.87385971264811" y="35.641800078086064">Cortar: 1  (al doblez)</text><text fill="#000000" font-family="sans-serif" font-size="0.6" stroke="none" text-anchor="middle" x="48.87385971264811" y="37.04180007808607">AL DOBLEZ</text><text fill="#000000" font-family="sans-serif" font-size="0.9" stroke="none" text-anchor="middle" x="76.80023183130893" y="6.491464808009821">CANESU</text><text fill="#000000" font-family="sans-serif" font-size="0.6" stroke="none" text-anchor="middle" x="76.80023183130893" y="7.891464808009822">Pieza N.03</text><text fill="#000000" font-family="sans-serif" font-size="0.6" stroke="none" text-anchor="middle" x="76.80023183130893" y="9.29146480800982">Talla: M</text><text fill="#000000" font-family="sans-serif" font-size="0.6" stroke="none" text-anchor="middle" x="76.80023183130893" y="10.69146480800982">Cortar: 2  (al doblez x2 (exterior+interior))</text><text fill="#000000" font-family="sans-serif" font-size="0.6" stroke="none" text-anchor="middle" x="76.80023183130893" y="12.091464808009821">AL DOBLEZ</text><text fill="#000000" font-family="sans-serif" font-size="0.9" stroke="none" text-anchor="middle" x="110.19901043971173" y="32.2546548959977">MANGA</text><text fill="#000000" font-family="sans-serif" font-size="0.6" stroke="none" text-anchor="middle" x="110.19901043971173" y="33.65465489599771">Pieza N.04</text><text fill="#000000" font-family="sans-serif" font-size="0.6" stroke="none" text-anchor="middle" x="110.19901043971173" y="35.05465489599771">Talla: M</text><text fill="#000000" font-family="sans-serif" font-size="0.6" stroke="none" text-anchor="middle" x="110.19901043971173" y="36.454654895997706">Cortar: 2  (par: izq + der)</text><text fill="#000000" font-family="sans-serif" font-size="0.9" stroke="none" text-anchor="middle" x="145.2938698417234" y="7.521149000000001">PUNO</text><text fill="#000000" font-family="sans-serif" font-size="0.6" stroke="none" text-anchor="middle" x="145.2938698417234" y="8.921149000000002">Pieza N.05</text><text fill="#000000" font-family="sans-serif" font-size="0.6" stroke="none" text-anchor="middle" x="145.2938698417234" y="10.321149000000002">Talla: M</text><text fill="#000000" font-family="sans-serif" font-size="0.6" stroke="none" text-anchor="middle" x="145.2938698417234" y="11.721149">Cortar: 4  (4 (2 tela + 2 entretela))</text><text fill="#000000" font-family="sans-serif" font-size="0.9" stroke="none" text-anchor="middle" x="9.999999999999996" y="79.021149">TAPETA MANGA</text><text fill="#000000" font-family="sans-serif" font-size="0.6" stroke="none" text-anchor="middle" x="9.999999999999996" y="80.421149">Pieza N.06</text><text fill="#000000" font-family="sans-serif" font-size="0.6" stroke="none" text-anchor="middle" x="9.999999999999996" y="81.82114899999999">Talla: M</text><text fill="#000000" font-family="sans-serif" font-size="0.6" stroke="none" text-anchor="middle" x="9.999999999999996" y="83.221149">Cortar: 2  (par)</text><text fill="#000000" font-family="sans-serif" font-size="0.9" stroke="none" text-anchor="middle" x="32.17034904934182" y="79.55954084889902">CUELLO</text><text fill="#000000" font-family="sans-serif" font-size="0.6" stroke="none" text-anchor="middle" x="32.17034904934182" y="80.95954084889902">Pieza N.07</text><text fill="#000000" font-family="sans-serif" font-size="0.6" stroke="none" text-anchor="middle" x="32.17034904934182" y="82.35954084889902">Talla: M</text><text fill="#000000" font-family="sans-serif" font-size="0.6" stroke="none" text-anchor="middle" x="32.17034904934182" y="83.75954084889902">Cortar: 2  (al doblez x2 (+ entretela))</text><text fill="#000000" font-family="sans-serif" font-size="0.6" stroke="none" text-anchor="middle" x="32.17034904934182" y="85.15954084889901">AL DOBLEZ</text><text fill="#000000" font-family="sans-serif" font-size="0.9" stroke="none" text-anchor="middle" x="59.65219532614468" y="78.65414899999999">PIE DE CUELLO</text><text fill="#000000" font-family="sans-serif" font-size="0.6" stroke="none" text-anchor="middle" x="59.65219532614468" y="80.054149">Pieza N.08</text><text fill="#000000" font-family="sans-serif" font-size="0.6" stroke="none" text-anchor="middle" x="59.65219532614468" y="81.454149">Talla: M</text><text fill="#000000" font-family="sans-serif" font-size="0.6" stroke="none" text-anchor="middle" x="59.65219532614468" y="82.85414899999999">Cortar: 2  (al doblez x2 (+ entretela))</text><text fill="#000000" font-family="sans-serif" font-size="0.6" stroke="none" text-anchor="middle" x="59.65219532614468" y="84.254149">AL DOBLEZ</text><text fill="#000000" font-family="sans-serif" font-size="0.9" stroke="none" text-anchor="middle" x="79.57746669358204" y="114.95326178087706">VISTA DELANTERA</text><text fill="#000000" font-family="sans-serif" font-size="0.6" stroke="none" text-anchor="middle" x="79.57746669358204" y="116.35326178087706">Pieza N.09</text><text fill="#000000" font-family="sans-serif" font-size="0.6" stroke="none" text-anchor="middle" x="79.57746669358204" y="117.75326178087707">Talla: M</text><text fill="#000000" font-family="sans-serif" font-size="0.6" stroke="none" text-anchor="middle" x="79.57746669358204" y="119.15326178087706">Cortar: 2  (par: izq + der)</text><text fill="#000000" font-family="sans-serif" font-size="0.9" stroke="none" text-anchor="middle" x="98.16959376819291" y="83.37742806976743">BOLSILLO</text><text fill="#000000" font-family="sans-serif" font-size="0.6" stroke="none" text-anchor="middle" x="98.16959376819291" y="84.77742806976744">Pieza N.10</text><text fill="#000000" font-family="sans-serif" font-size="0.6" stroke="none" text-anchor="middle" x="98.16959376819291" y="86.17742806976744">Talla: M</text><text fill="#000000" font-family="sans-serif" font-size="0.6" stroke="none" text-anchor="middle" x="98.16959376819291" y="87.57742806976744">Cortar: 1  (1 (opcional))</text></g><g fill="none" id="CENTROS" stroke="#0050ff" stroke-width="0.08"><circle cx="19.450000000000003" cy="29.721149" fill="#0050ff" r="0.15" /><circle cx="114.50728524519604" cy="53.721149" fill="#0050ff" r="0.15" /></g><g fill="none" id="HILO" stroke="#c0a000" stroke-width="0.08"><line x1="18.2" x2="18.2" y1="16.821149" y2="71.221149" /><line x1="18.2" x2="18.667302010770378" y1="71.221149" y2="70.11587580719653" /><line x1="18.2" x2="17.732697989229617" y1="71.221149" y2="70.11587580719653" /><line x1="18.2" x2="17.73269798922962" y1="16.821149" y2="17.926422192803464" /><line x1="18.2" x2="18.667302010770378" y1="16.821149" y2="17.926422192803464" /><line x1="37.2" x2="37.2" y1="7.2211490000000005" y2="61.221149" /><line x1="37.2" x2="37.667302010770385" y1="61.221149" y2="60.11587580719653" /><line x1="37.2" x2="36.73269798922962" y1="61.221149" y2="60.11587580719653" /><line x1="37.2" x2="36.73269798922962" y1="7.2211490000000005" y2="8.326422192803463" /><line x1="37.2" x2="37.667302010770385" y1="7.2211490000000005" y2="8.326422192803463" /><line x1="72.08" x2="72.08" y1="5.221149" y2="13.721149" /><line x1="72.08" x2="72.54730201077038" y1="13.721149" y2="12.615875807196538" /><line x1="72.08" x2="71.61269798922962" y1="13.721149" y2="12.615875807196538" /><line x1="72.08" x2="71.61269798922962" y1="5.221149" y2="6.326422192803461" /><line x1="72.08" x2="72.54730201077038" y1="5.221149" y2="6.326422192803461" /><line x1="110.24509037968693" x2="110.24509037968693" y1="8.271149" y2="63.721149" /><line x1="110.24509037968693" x2="110.71239239045731" y1="63.721149" y2="62.61587580719654" /><line x1="110.24509037968693" x2="109.77778836891655" y1="63.721149" y2="62.61587580719654" /><line x1="110.24509037968693" x2="109.77778836891655" y1="8.271149" y2="9.376422192803462" /><line x1="110.24509037968693" x2="110.71239239045731" y1="8.271149" y2="9.376422192803462" /><line x1="145.2938698417234" x2="145.2938698417234" y1="4.7211490000000005" y2="15.721149" /><line x1="145.2938698417234" x2="145.76117185249376" y1="15.721149" y2="14.615875807196538" /><line x1="145.2938698417234" x2="144.82656783095302" y1="15.721149" y2="14.615875807196538" /><line x1="145.2938698417234" x2="144.82656783095302" y1="4.7211490000000005" y2="5.826422192803462" /><line x1="145.2938698417234" x2="145.76117185249376" y1="4.7211490000000005" y2="5.826422192803462" /><line x1="10.0" x2="10.0" y1="80.621149" y2="82.82114899999999" /><line x1="10.0" x2="10.467302010770382" y1="82.82114899999999" y2="81.71587580719654" /><line x1="10.0" x2="9.532697989229618" y1="82.82114899999999" y2="81.71587580719654" /><line x1="10.0" x2="9.53269798922962" y1="80.621149" y2="81.72642219280345" /><line x1="10.0" x2="10.46730201077038" y1="80.621149" y2="81.72642219280345" /><line x1="22.5" x2="41.234796884096454" y1="80.721149" y2="80.721149" /><line x1="41.234796884096454" x2="40.12952369129299" y1="80.721149" y2="80.25384698922961" /><line x1="41.234796884096454" x2="40.12952369129299" y1="80.721149" y2="81.18845101077038" /><line x1="22.5" x2="23.605273192803462" y1="80.721149" y2="81.18845101077038" /><line x1="22.5" x2="23.605273192803462" y1="80.721149" y2="80.25384698922961" /><line x1="49.43479688409646" x2="69.86959376819291" y1="80.621149" y2="80.621149" /><line x1="69.86959376819291" x2="68.76432057538945" y1="80.621149" y2="80.15384698922962" /><line x1="69.86959376819291" x2="68.76432057538945" y1="80.621149" y2="81.08845101077037" /><line x1="49.43479688409646" x2="50.540070076899916" y1="80.621149" y2="81.08845101077037" /><line x1="49.43479688409646" x2="50.540070076899916" y1="80.621149" y2="80.15384698922962" /><line x1="79.36959376819291" x2="79.36959376819291" y1="94.82114899999999" y2="147.221149" /><line x1="79.36959376819291" x2="79.8368957789633" y1="147.221149" y2="146.11587580719655" /><line x1="79.36959376819291" x2="78.90229175742253" y1="147.221149" y2="146.11587580719655" /><line x1="79.36959376819291" x2="78.90229175742253" y1="94.82114899999999" y2="95.92642219280346" /><line x1="79.36959376819291" x2="79.8368957789633" y1="94.82114899999999" y2="95.92642219280346" /><line x1="98.16959376819291" x2="98.16959376819291" y1="81.221149" y2="89.941149" /><line x1="98.16959376819291" x2="98.6368957789633" y1="89.941149" y2="88.83587580719653" /><line x1="98.16959376819291" x2="97.70229175742253" y1="89.941149" y2="88.83587580719653" /><line x1="98.16959376819291" x2="97.70229175742253" y1="81.221149" y2="82.32642219280346" /><line x1="98.16959376819291" x2="98.6368957789633" y1="81.221149" y2="82.32642219280346" /></g><g fill="none" id="DOBLEZ" stroke="#c000c0" stroke-width="0.08"><line x1="36.7" x2="36.7" y1="4.2211490000000005" y2="64.221149" /><line x1="67.7" x2="67.7" y1="4.2211490000000005" y2="14.221149" /><line x1="22.0" x2="22.0" y1="80.221149" y2="86.721149" /><line x1="48.93479688409646" x2="48.93479688409646" y1="80.221149" y2="84.021149" /></g><g fill="none" id="BOTONES" stroke="#ff8000" stroke-width="0.08"><circle cx="5.7" cy="15.321149" fill="#ff8000" r="0.55" /><circle cx="5.7" cy="24.137815666666665" fill="#ff8000" r="0.55" /><circle cx="5.7" cy="32.95448233333333" fill="#ff8000" r="0.55" /><circle cx="5.7" cy="41.771148999999994" fill="#ff8000" r="0.55" /><circle cx="5.7" cy="50.587815666666664" fill="#ff8000" r="0.55" /><circle cx="5.7" cy="59.404482333333334" fill="#ff8000" r="0.55" /><circle cx="5.7" cy="68.221149" fill="#ff8000" r="0.55" /><circle cx="134.49386984172338" cy="10.221149" fill="#ff8000" r="0.55" /><circle cx="69.36959376819291" cy="81.721149" fill="#ff8000" r="0.55" /></g><g fill="none" id="OJAL" stroke="#ff40a0" stroke-width="0.08"><line x1="4.9" x2="6.5" y1="15.321149" y2="15.321149" /><line x1="4.9" x2="6.5" y1="24.137815666666665" y2="24.137815666666665" /><line x1="4.9" x2="6.5" y1="32.95448233333333" y2="32.95448233333333" /><line x1="4.9" x2="6.5" y1="41.771148999999994" y2="41.771148999999994" /><line x1="4.9" x2="6.5" y1="50.587815666666664" y2="50.587815666666664" /><line x1="4.9" x2="6.5" y1="59.404482333333334" y2="59.404482333333334" /><line x1="4.9" x2="6.5" y1="68.221149" y2="68.221149" /><line x1="156.0938698417234" x2="156.0938698417234" y1="9.421149" y2="11.021149" /></g><g fill="none" id="REFERENCIAS" stroke="#b0b0b0" stroke-width="0.08"><text fill="#000000" font-family="sans-serif" font-size="0.5" stroke="none" text-anchor="start" x="5.7" y="12.821149">CF</text><text fill="#000000" font-family="sans-serif" font-size="0.5" stroke="none" text-anchor="start" x="37.0" y="34.221149">CB</text><text fill="#000000" font-family="sans-serif" font-size="0.5" stroke="none" text-anchor="start" x="145.2938698417234" y="9.421149">DOBLEZ</text><text fill="#000000" font-family="sans-serif" font-size="0.5" stroke="none" text-anchor="start" x="98.16959376819291" y="81.721149">boca</text></g></svg>