<?xml version="1.0" encoding="utf-8" ?>
<svg baseProfile="full" height="162.379724cm" version="1.1" viewBox="0 0 168.0 162.379724" width="168.0cm" xmlns="http://www.w3.org/2000/svg" xmlns:ev="http://www.w3.org/2001/xml-events" xmlns:xlink="http://www.w3.org/1999/xlink"><defs /><rect fill="#f7f3ea" height="154.379724" stroke="#333" stroke-width="0.15" width="160.0" x="4.0" y="4.0" /><text fill="#000" font-family="sans-serif" font-size="1.4" x="4.0" y="3.0">PLANO DE CORTE — ancho 160 cm — largo 1.54 m</text><polygon fill="#cfe3f7" fill-opacity="0.5" points="4.0,76.266342 12.00349,76.266342 11.800561,18.025649 16.021004,5.25881 13.503385,4.0 12.801069,4.929657 12.599692000000001,5.196802 12.398247000000001,5.4652080000000005 12.19702,5.735087 11.9963,6.006658 11.796378,6.280137 11.597549,6.555743 11.400112,6.833699 11.204367000000001,7.114224 11.010619,7.397541 10.819175000000001,7.683873 10.63035,7.97344 10.444457,8.266466000000001 10.261977,8.562908 10.084025,8.861226 9.91087,9.158995 9.741668,9.454941999999999 9.575355,9.748255 9.410908,10.038132000000001 9.247347,10.323782999999999 9.083736,10.604427999999999 8.919182,10.879303 8.752831,11.147666000000001 8.583869,11.408804 8.411512,11.662044999999999 8.234998000000001,11.906769 8.053566,12.142438 7.865524000000001,12.369717 7.668078,12.591596000000001 7.4601500000000005,12.810796 7.242441,13.028174 7.0159,13.244413 6.781544,13.460227999999999 6.54044,13.676373 6.324711000000001,13.866342 4.0,13.866342 4.0,76.266342" stroke="#1f6fb2" stroke-width="0.1" /><text fill="#0a3d62" font-family="sans-serif" font-size="1.6" text-anchor="middle" x="10.010502" y="40.133171">09</text><polygon fill="#cfe3f7" fill-opacity="0.5" points="17.021004,76.266342 25.024494,76.266342 24.821565,18.025649 29.042008000000003,5.25881 26.524389,4.0 25.822073000000003,4.929657 25.620696000000002,5.196802 25.419251000000003,5.4652080000000005 25.218024,5.735087 25.017304000000003,6.006658 24.817382000000002,6.280137 24.618553000000002,6.555743 24.421116,6.833699 24.225371000000003,7.114224 24.031623000000003,7.397541 23.840179000000003,7.683873 23.651354,7.97344 23.465461,8.266466000000001 23.282981,8.562908 23.105029000000002,8.861226 22.931874,9.158995 22.762672000000002,9.454941999999999 22.596359,9.748255 22.431912,10.038132000000001 22.268351000000003,10.323782999999999 22.10474,10.604427999999999 21.940186,10.879303 21.773835000000002,11.147666000000001 21.604873,11.408804 21.432516,11.662044999999999 21.256002000000002,11.906769 21.07457,12.142438 20.886528000000002,12.369717 20.689082000000003,12.591596000000001 20.481154,12.810796 20.263445,13.028174 20.036904,13.244413 19.802548,13.460227999999999 19.561444,13.676373 19.345715000000002,13.866342 17.021004,13.866342 17.021004,76.266342" stroke="#1f6fb2" stroke-width="0.1" /><text fill="#0a3d62" font-family="sans-serif" font-size="1.6" text-anchor="middle" x="23.031506" y="40.133171">09</text><polygon fill="#cfe3f7" fill-opacity="0.5" points="30.042008000000003,76.221149 58.742008,76.221149 58.742008,27.341731 58.124134,26.644709 57.757074,26.23138 57.387374,25.816584 57.014471,25.400442 56.6375,24.982744 56.255604000000005,24.563286 55.867925,24.141869 55.473626,23.718315 55.072841,23.29344 54.669169000000004,22.869321 54.268508,22.446848 53.875545,22.025494000000002 53.494854000000004,21.604813 53.131002,21.184578 52.788499,20.764785 52.471734,20.345659 52.184872,19.927636 51.931723000000005,19.511296 51.71558400000001,19.097227 51.539079,18.685704 51.403180000000006,18.273564 51.305778000000004,17.852657999999998 51.243663,17.417078 51.215163000000004,16.965550999999998 51.218824,16.497883 51.253105000000005,16.014503 51.316247000000004,15.516278 51.406221,15.004335000000001 51.520749,14.479926 51.657331,13.944336 51.81329100000001,13.398813 51.985822,12.844546 52.172017,12.28264 52.368898,11.714112 52.573435,11.139888000000001 53.106213,9.664568 39.511251,4.0 38.843077,4.884464 38.6417,5.1516090000000005 38.44025500000001,5.420015 38.239028000000005,5.689894 38.038308,5.9614650000000005 37.838386,6.2349440000000005 37.639557,6.51055 37.44212,6.788506 37.246375,7.069031 37.052627,7.352348 36.861183000000004,7.63868 36.672358,7.928247 36.486465,8.221273 36.303985000000004,8.517714999999999 36.12603300000001,8.816033000000001 35.952878000000005,9.113802 35.783676,9.409749 35.617363000000005,9.703062 35.452916,9.992939 35.289355,10.27859 35.125744000000005,10.559235 34.96119,10.83411 34.794839,11.102473 34.625877,11.363611 34.453520000000005,11.616852 34.277006,11.861576 34.095574,12.097245000000001 33.907532,12.324524 33.710086000000004,12.546403 33.502158,12.765603 33.284449,12.982981 33.057908000000005,13.19922 32.82355200000001,13.415035 32.582448,13.63118 32.366719,13.821149 30.042008000000003,13.821149 30.042008000000003,76.221149" stroke="#1f6fb2" stroke-width="0.1" /><text fill="#0a3d62" font-family="sans-serif" font-size="1.6" text-anchor="middle" x="44.392008000000004" y="40.1105745">01</text><polygon fill="#cfe3f7" fill-opacity="0.5" points="59.742008,76.221149 88.442008,76.221149 88.442008,27.341731 87.824134,26.644709 87.457074,26.23138 87.087374,25.816584 86.714471,25.400442 86.3375,24.982744 85.955604,24.563286 85.567925,24.141869 85.173626,23.718315 84.772841,23.29344 84.369169,22.869321 83.968508,22.446848 83.575545,22.025494000000002 83.19485399999999,21.604813 82.831002,21.184578 82.48849899999999,20.764785 82.171734,20.345659 81.884872,19.927636 81.631723,19.511296 81.415584,19.097227 81.239079,18.685704 81.10318,18.273564 81.00577799999999,17.852657999999998 80.943663,17.417078 80.91516299999999,16.965550999999998 80.918824,16.497883 80.953105,16.014503 81.01624699999999,15.516278 81.106221,15.004335000000001 81.220749,14.479926 81.357331,13.944336 81.513291,13.398813 81.685822,12.844546 81.872017,12.28264 82.06889799999999,11.714112 82.273435,11.139888000000001 82.806213,9.664568 69.211251,4.0 68.543077,4.884464 68.3417,5.1516090000000005 68.140255,5.420015 67.939028,5.689894 67.738308,5.9614650000000005 67.538386,6.2349440000000005 67.339557,6.51055 67.14212,6.788506 66.946375,7.069031 66.752627,7.352348 66.561183,7.63868 66.37235799999999,7.928247 66.186465,8.221273 66.003985,8.517714999999999 65.826033,8.816033000000001 65.652878,9.113802 65.483676,9.409749 65.317363,9.703062 65.152916,9.992939 64.989355,10.27859 64.825744,10.559235 64.66119,10.83411 64.494839,11.102473 64.32587699999999,11.363611 64.15352,11.616852 63.977005999999996,11.861576 63.795574,12.097245000000001 63.607532,12.324524 63.410086,12.546403 63.202158,12.765603 62.984449,12.982981 62.757908,13.19922 62.523551999999995,13.415035 62.282448,13.63118 62.066719,13.821149 59.742008,13.821149 59.742008,76.221149" stroke="#1f6fb2" stroke-width="0.1" /><text fill="#0a3d62" font-family="sans-serif" font-size="1.6" text-anchor="middle" x="74.09200799999999" y="40.1105745">01</text><polygon fill="#cfe3f7" fill-opacity="0.5" points="94.10131200000001,67.504489 120.932054,67.504489 125.600246,14.780816 124.875284,13.984162999999999 124.43920299999999,13.510415 123.99427800000001,13.038003 123.538407,12.570331 123.071832,12.111806 122.596806,11.66412 122.114327,11.226722 121.625034,10.798707 121.129549,10.379169 120.62848600000001,9.967202 120.122444,9.561897 119.612014,9.162351 119.097774,8.76766 118.579595,8.376404 118.055424,7.987178999999999 117.52279899999999,7.601471 116.980602,7.222271 116.427855,6.852762 115.863529,6.496182 115.286562,6.155843 114.695877,5.835151 114.090417,5.5376259999999995 113.469195,5.266921 112.832936,5.027402 112.186746,4.822172 111.536252,4.648502 110.883655,4.501744 110.230505,4.377209 109.578231,4.270335 108.928195,4.1767 108.281743,4.092022 107.542642,4.0 106.789664,4.054455 106.12987,4.106248 105.466352,4.166578 104.800271,4.239678 104.13278700000001,4.32991 103.465109,4.4417729999999995 102.79854399999999,4.579896 102.134641,4.749005 101.477453,4.953069 100.83281099999999,5.191524 100.203094,5.460114 99.587732,5.755287 98.985899,6.073668 98.39671799999999,6.411991 97.819297,6.767088 97.252753,7.135873 96.696236,7.515326 96.148932,7.9024719999999995 95.609311,8.294937000000001 95.07441,8.693085 94.543579,9.100177 94.018692,9.518501 93.502039,9.95011 92.995966,10.397098 92.502893,10.861584 92.025336,11.345687999999999 91.565922,11.851508 91.127868,12.380507 90.716964,12.928888 90.333375,13.486006 89.970939,14.043541 89.442008,14.881205 94.10131200000001,67.504489" stroke="#1f6fb2" stroke-width="0.1" /><text fill="#0a3d62" font-family="sans-serif" font-size="1.6" text-anchor="middle" x="107.521127" y="35.7522445">04</text><polygon fill="#cfe3f7" fill-opacity="0.5" points="131.25955,67.504489 158.090292,67.504489 162.758484,14.780816 162.033522,13.984162999999999 161.597441,13.510415 161.152516,13.038003 160.696645,12.570331 160.23007,12.111806 159.755044,11.66412 159.272565,11.226722 158.783272,10.798707 158.287787,10.379169 157.786724,9.967202 157.280682,9.561897 156.770252,9.162351 156.256012,8.76766 155.737833,8.376404 155.213662,7.987178999999999 154.681037,7.601471 154.13884,7.222271 153.586093,6.852762 153.021767,6.496182 152.4448,6.155843 151.854115,5.835151 151.24865499999999,5.5376259999999995 150.627433,5.266921 149.991174,5.027402 149.344984,4.822172 148.69449,4.648502 148.041893,4.501744 147.388743,4.377209 146.736469,4.270335 146.086433,4.1767 145.439981,4.092022 144.70087999999998,4.0 143.947902,4.054455 143.288108,4.106248 142.62459,4.166578 141.958509,4.239678 141.291025,4.32991 140.623347,4.4417729999999995 139.956782,4.579896 139.292879,4.749005 138.635691,4.953069 137.991049,5.191524 137.361332,5.460114 136.74597,5.755287 136.144137,6.073668 135.554956,6.411991 134.977535,6.767088 134.410991,7.135873 133.854474,7.515326 133.30716999999999,7.9024719999999995 132.767549,8.294937000000001 132.23264799999998,8.693085 131.701817,9.100177 131.17693,9.518501 130.660277,9.95011 130.154204,10.397098 129.661131,10.861584 129.183574,11.345687999999999 128.72415999999998,11.851508 128.286106,12.380507 127.875202,12.928888 127.491613,13.486006 127.129177,14.043541 126.600246,14.881205 131.25955,67.504489" stroke="#1f6fb2" stroke-width="0.1" /><text fill="#0a3d62" font-family="sans-serif" font-size="1.6" text-anchor="middle" x="144.679365" y="35.7522445">04</text><polygon fill="#cfe3f7" fill-opacity="0.5" points="56.0,90.459396 55.525513000000004,89.759301 55.223351,89.313178 54.921256,88.86657399999999 54.619175,88.419123 54.317053,87.970456 54.014838,87.520206 53.712473,87.068004 53.409919,86.613503 53.107582,86.15697999999999 52.807339,85.69946999999999 52.51181,85.241545 52.223197,84.78313499999999 51.943662,84.324182 51.675343999999996,83.864678 51.420344,83.404654 51.180718,82.94417399999999 50.958462999999995,82.48332699999999 50.755496,82.02221 50.573648,81.560902 50.414646000000005,81.09943299999999 50.280087,80.637655 50.170951,80.17338099999999 50.086323,79.70264399999999 50.024363,79.223439 49.983618,78.73575199999999 49.921458,77.266342 30.0,77.266342 30.0,139.266342 56.0,139.266342 56.0,90.459396 4.0,90.459396 4.474487,89.759301 4.776648999999999,89.313178 5.078744,88.86657399999999 5.3808250000000015,88.419123 5.682946999999999,87.970456 5.985161999999999,87.520206 6.287527000000001,87.068004 6.590081000000001,86.613503 6.892417999999999,86.15697999999999 7.192661000000001,85.69946999999999 7.4881899999999995,85.241545 7.776803000000001,84.78313499999999 8.056338,84.324182 8.324656000000001,83.864678 8.579656,83.404654 8.819282000000001,82.94417399999999 9.041537000000002,82.48332699999999 9.244504,82.02221 9.426352000000001,81.560902 9.585353999999999,81.09943299999999 9.719912999999998,80.637655 9.829049000000001,80.17338099999999 9.913677,79.70264399999999 9.975636999999999,79.223439 10.016382,78.73575199999999 10.078541999999999,77.266342 30.0,77.266342 30.0,139.266342 4.0,139.266342 4.0,90.459396" stroke="#1f6fb2" stroke-width="0.1" /><text fill="#0a3d62" font-family="sans-serif" font-size="1.6" text-anchor="middle" x="30.0" y="108.266342">02</text><polygon fill="#cfe3f7" fill-opacity="0.5" points="57.0,88.538247 64.0,92.948247 71.0,88.538247 71.0,77.266342 57.0,77.266342 57.0,88.538247" stroke="#1f6fb2" stroke-width="0.1" /><text fill="#0a3d62" font-family="sans-serif" font-size="1.6" text-anchor="middle" x="64.0" y="85.1072945">10</text><polygon fill="#cfe3f7" fill-opacity="0.5" points="72.0,89.515469 72.029841,89.81844899999999 72.132547,90.15702399999999 72.299332,90.46905699999999 72.523786,90.742556 72.797285,90.96700999999999 73.109318,91.13379499999999 73.447893,91.23650099999999 73.750873,91.266342 96.249127,91.266342 96.552107,91.23650099999999 96.890682,91.13379499999999 97.202715,90.96700999999999 97.476214,90.742556 97.70066800000001,90.46905699999999 97.867453,90.15702399999999 97.970159,89.81844899999999 98.0,89.515469 98.0,79.017215 97.970159,78.71423499999999 97.867453,78.37566 97.70066800000001,78.063627 97.476214,77.790128 97.202715,77.565674 96.890682,77.398889 96.552107,77.296183 96.249127,77.266342 73.750873,77.266342 73.447893,77.296183 73.109318,77.398889 72.797285,77.565674 72.523786,77.790128 72.299332,78.063627 72.132547,78.37566 72.029841,78.71423499999999 72.0,79.017215 72.0,89.515469" stroke="#1f6fb2" stroke-width="0.1" /><text fill="#0a3d62" font-family="sans-serif" font-size="1.6" text-anchor="middle" x="85.0" y="84.266342">05</text><polygon fill="#cfe3f7" fill-opacity="0.5" points="99.0,89.515469 99.029841,89.81844899999999 99.132547,90.15702399999999 99.299332,90.46905699999999 99.523786,90.742556 99.797285,90.96700999999999 100.109318,91.13379499999999 100.447893,91.23650099999999 100.750873,91.266342 123.249127,91.266342 123.552107,91.23650099999999 123.890682,91.13379499999999 124.202715,90.96700999999999 124.476214,90.742556 124.70066800000001,90.46905699999999 124.867453,90.15702399999999 124.970159,89.81844899999999 125.0,89.515469 125.0,79.017215 124.970159,78.71423499999999 124.867453,78.37566 124.70066800000001,78.063627 124.476214,77.790128 124.202715,77.565674 123.890682,77.398889 123.552107,77.296183 123.249127,77.266342 100.750873,77.266342 100.447893,77.296183 100.109318,77.398889 99.797285,77.565674 99.523786,77.790128 99.299332,78.063627 99.132547,78.37566 99.029841,78.71423499999999 99.0,79.017215 99.0,89.515469" stroke="#1f6fb2" stroke-width="0.1" /><text fill="#0a3d62" font-family="sans-serif" font-size="1.6" text-anchor="middle" x="112.0" y="84.266342">05</text><polygon fill="#cfe3f7" fill-opacity="0.5" points="44.572053,151.35317 44.569348,150.84925 44.583375000000004,150.33777700000002 44.61253,149.81921200000002 44.655152,149.294049 44.709519,148.762797 44.773859,148.225962 44.846353,147.684042 44.925144,147.137514 45.008335,146.586833 45.218832,145.224524 31.780715999999998,140.266342 31.145398,140.685891 30.935474,140.823225 30.72806,140.95638100000002 30.522655999999998,141.084527 30.318786,141.206886 30.115969,141.322743 29.913016,141.431833 29.707906,141.534691 29.499669,141.631805 29.288505999999998,141.723086 29.074714,141.808404 28.858594,141.887632 28.64045,141.96064900000002 28.420585,142.02733700000002 28.199303999999998,142.08758500000002 27.976911,142.141288 27.753605999999998,142.18836900000002 27.528753,142.228945 27.301271,142.263507 27.070787,142.292538 26.837307,142.31646700000002 26.600865,142.335732 26.361513,142.35078800000002 26.119315999999998,142.36210200000002 25.87435,142.370159 25.626696,142.375461 25.376437,142.37852700000002 25.123659,142.37988900000002 24.868444,142.3801 24.609416,142.379723 24.609416,152.379724 44.615479,152.379724 44.572053,151.35317 4.646778999999999,151.35317 4.649484000000001,150.84925 4.635456999999999,150.33777700000002 4.6063019999999995,149.81921200000002 4.563679999999998,149.294049 4.509312999999999,148.762797 4.444973000000001,148.225962 4.3724789999999985,147.684042 4.2936879999999995,147.137514 4.210497,146.586833 4.0,145.224524 17.438116,140.266342 18.073434,140.685891 18.283358,140.823225 18.490772,140.95638100000002 18.696176,141.084527 18.900046,141.206886 19.102863,141.322743 19.305816,141.431833 19.510925999999998,141.534691 19.719162999999998,141.631805 19.930326,141.723086 20.144118,141.808404 20.360238,141.887632 20.578381999999998,141.96064900000002 20.798247,142.02733700000002 21.019528,142.08758500000002 21.241920999999998,142.141288 21.465226,142.18836900000002 21.690079,142.228945 21.917561,142.263507 22.148045,142.292538 22.381525,142.31646700000002 22.617967,142.335732 22.857319,142.35078800000002 23.099516,142.36210200000002 23.344482,142.370159 23.592136,142.375461 23.842395,142.37852700000002 24.095173,142.37988900000002 24.350388,142.3801 24.609416,142.379723 24.609416,152.379724 4.6033529999999985,152.379724 4.646778999999999,151.35317" stroke="#1f6fb2" stroke-width="0.1" /><text fill="#0a3d62" font-family="sans-serif" font-size="1.6" text-anchor="middle" x="24.609416" y="146.323033">03</text><polygon fill="#cfe3f7" fill-opacity="0.5" points="69.372693,147.117466 69.875737,147.206682 70.37883,147.290808 70.88197,147.369843 71.385155,147.44378500000002 71.888381,147.51263300000002 72.391646,147.576387 72.894947,147.63504400000002 73.398281,147.688605 73.901646,147.737067 74.40503799999999,147.78043 74.908455,147.81869400000002 75.41189299999999,147.851857 75.91534999999999,147.879919 76.418823,147.90288 76.922308,147.920739 77.425802,147.93349500000002 77.929303,147.941149 78.432806,147.943701 78.93630999999999,147.941149 79.43981099999999,147.93349500000002 79.94330500000001,147.920739 80.44679,147.90288 80.95026200000001,147.879919 81.453719,147.851857 81.95715799999999,147.81869400000002 82.460575,147.78043 82.963967,147.737067 83.467332,147.688605 83.970666,147.63504400000002 84.47396699999999,147.576387 84.97723199999999,147.51263300000002 85.480458,147.44378500000002 85.983643,147.369843 86.486783,147.290808 86.98987600000001,147.206682 87.49292,147.117466 87.80336,147.05926300000002 89.856766,150.481607 90.91198399999999,150.082624 89.09974700000001,140.266342 87.617757,140.559214 87.13400999999999,140.64991 86.65031400000001,140.735694 86.16666799999999,140.81656800000002 85.68306799999999,140.89253300000001 85.199513,140.963591 84.715999,141.029743 84.232524,141.090989 83.74908500000001,141.147332 83.26568,141.19877100000002 82.782304,141.24530900000002 82.298957,141.286946 81.81563399999999,141.32368200000002 81.332333,141.35551900000002 80.84905,141.38245700000002 80.365782,141.404496 79.882527,141.421637 79.399282,141.433881 78.916043,141.441227 78.432806,141.443675 77.94957,141.441227 77.466331,141.433881 76.98308499999999,141.421637 76.499831,141.404496 76.01656299999999,141.38245700000002 75.53327999999999,141.35551900000002 75.049979,141.32368200000002 74.566656,141.286946 74.083308,141.24530900000002 73.599933,141.19877100000002 73.116528,141.147332 72.633089,141.090989 72.149614,141.029743 71.6661,140.963591 71.182545,140.89253300000001 70.698945,140.81656800000002 70.215299,140.735694 69.731603,140.64991 69.247856,140.559214 68.56540799999999,140.424348 68.56540799999999,146.963028 68.8697,147.023162 69.372693,147.117466 67.758123,147.117466 67.255079,147.206682 66.751986,147.290808 66.248846,147.369843 65.745661,147.44378500000002 65.242435,147.51263300000002 64.73917,147.576387 64.235869,147.63504400000002 63.732535,147.688605 63.229169999999996,147.737067 62.725778,147.78043 62.222361,147.81869400000002 61.718923,147.851857 61.215466,147.879919 60.711993,147.90288 60.208507999999995,147.920739 59.705014,147.93349500000002 59.201513,147.941149 58.69801,147.943701 58.194506,147.941149 57.691005,147.93349500000002 57.187511,147.920739 56.684025999999996,147.90288 56.180554,147.879919 55.677096999999996,147.851857 55.173657999999996,147.81869400000002 54.670241,147.78043 54.166849,147.737067 53.663484,147.688605 53.16015,147.63504400000002 52.656848999999994,147.576387 52.153583999999995,147.51263300000002 51.650358,147.44378500000002 51.147172999999995,147.369843 50.64403299999999,147.290808 50.14094,147.206682 49.637896,147.117466 49.327456,147.05926300000002 47.27405,150.481607 46.218832,150.082624 48.031069,140.266342 49.513059,140.559214 49.996806,140.64991 50.480502,140.735694 50.964147999999994,140.81656800000002 51.447748,140.89253300000001 51.931303,140.963591 52.414817,141.029743 52.898292,141.090989 53.381731,141.147332 53.865136,141.19877100000002 54.348512,141.24530900000002 54.831858999999994,141.286946 55.315182,141.32368200000002 55.798483,141.35551900000002 56.281766,141.38245700000002 56.765034,141.404496 57.248289,141.421637 57.731533999999996,141.433881 58.214772999999994,141.441227 58.69801,141.443675 59.181246,141.441227 59.664485,141.433881 60.147731,141.421637 60.630984999999995,141.404496 61.114253,141.38245700000002 61.597536,141.35551900000002 62.080837,141.32368200000002 62.56416,141.286946 63.04750799999999,141.24530900000002 63.530882999999996,141.19877100000002 64.014288,141.147332 64.497727,141.090989 64.981202,141.029743 65.464716,140.963591 65.948271,140.89253300000001 66.431871,140.81656800000002 66.915517,140.735694 67.399213,140.64991 67.88296,140.559214 68.56540799999999,140.424348 68.56540799999999,146.963028 68.261116,147.023162 67.758123,147.117466" stroke="#1f6fb2" stroke-width="0.1" /><text fill="#0a3d62" font-family="sans-serif" font-size="1.6" text-anchor="middle" x="68.56540799999999" y="145.3739745">07</text><polygon fill="#cfe3f7" fill-opacity="0.5" points="115.28535699999999,145.565539 115.82850499999999,145.63649 116.37167199999999,145.70338800000002 116.91485899999999,145.766235 117.458064,145.825029 118.001286,145.87977 118.544524,145.93045700000002 119.08777699999999,145.977091 119.63104299999999,146.01967100000002 120.17432099999999,146.058196 120.71761099999999,146.092667 121.26091,146.123083 121.80421799999999,146.14944400000002 122.347534,146.171749 122.89085499999999,146.19 123.43418199999999,146.204194 123.97751199999999,146.214334 124.52084499999998,146.220417 125.064179,146.22244500000002 125.60751399999998,146.220417 126.150847,146.214334 126.694177,146.204194 127.23750399999999,146.19 127.780825,146.171749 128.324141,146.14944400000002 128.867449,146.123083 129.41074799999998,146.092667 129.954038,146.058196 130.49731599999998,146.01967100000002 131.04058199999997,145.977091 131.583835,145.93045700000002 132.127073,145.87977 132.67029499999998,145.825029 133.21349999999998,145.766235 133.756687,145.70338800000002 134.29985399999998,145.63649 134.843001,145.565539 135.386127,145.49053700000002 136.781578,145.287418 136.781578,140.266342 135.10528899999997,140.51033900000002 134.576675,140.583337 134.048082,140.652386 133.51951,140.717488 132.99095699999998,140.77864100000002 132.462422,140.835847 131.93390399999998,140.889106 131.40540199999998,140.938419 130.876915,140.983785 130.34844099999998,141.025205 129.81998,141.06268 129.291529,141.09620900000002 128.76308899999998,141.12579300000002 128.234657,141.151432 127.706233,141.17312700000002 127.17781499999998,141.190876 126.64940099999998,141.20468200000002 126.12099199999999,141.21454200000002 125.59258499999999,141.220459 125.064179,141.222431 124.53577399999999,141.220459 124.00736699999999,141.21454200000002 123.47895699999998,141.20468200000002 122.950544,141.190876 122.42212599999999,141.17312700000002 121.89370199999999,141.151432 121.36526999999998,141.12579300000002 120.836829,141.09620900000002 120.30837899999999,141.06268 119.77991799999998,141.025205 119.25144399999999,140.983785 118.722957,140.938419 118.19445499999999,140.889106 117.66593699999999,140.835847 117.13740199999998,140.77864100000002 116.60884899999999,140.717488 116.080277,140.652386 115.551684,140.583337 115.02306999999999,140.51033900000002 114.346781,140.4119 114.346781,145.432976 114.74223199999999,145.49053700000002 115.28535699999999,145.565539 113.40820499999998,145.565539 112.865057,145.63649 112.32189,145.70338800000002 111.778703,145.766235 111.23549799999999,145.825029 110.69227599999999,145.87977 110.14903799999999,145.93045700000002 109.605785,145.977091 109.06251899999998,146.01967100000002 108.519241,146.058196 107.97595099999998,146.092667 107.43265199999999,146.123083 106.889344,146.14944400000002 106.34602799999999,146.171749 105.80270699999998,146.19 105.25938,146.204194 104.71605,146.214334 104.17271699999999,146.220417 103.62938299999999,146.22244500000002 103.08604799999999,146.220417 102.54271499999999,146.214334 101.99938499999999,146.204194 101.45605799999998,146.19 100.91273699999999,146.171749 100.36942099999999,146.14944400000002 99.82611299999999,146.123083 99.28281399999999,146.092667 98.73952399999999,146.058196 98.19624599999999,146.01967100000002 97.65297999999999,145.977091 97.10972699999999,145.93045700000002 96.56648899999999,145.87977 96.02326699999999,145.825029 95.48006199999999,145.766235 94.93687499999999,145.70338800000002 94.39370799999999,145.63649 93.85056099999998,145.565539 93.307435,145.49053700000002 91.91198399999999,145.287418 91.91198399999999,140.266342 93.58827299999999,140.51033900000002 94.11688699999999,140.583337 94.64547999999999,140.652386 95.17405199999999,140.717488 95.70260499999999,140.77864100000002 96.23113999999998,140.835847 96.75965799999999,140.889106 97.28815999999999,140.938419 97.81664699999999,140.983785 98.34512099999999,141.025205 98.87358199999998,141.06268 99.40203299999999,141.09620900000002 99.93047299999999,141.12579300000002 100.45890499999999,141.151432 100.98732899999999,141.17312700000002 101.51574699999999,141.190876 102.04416099999999,141.20468200000002 102.57256999999998,141.21454200000002 103.10097699999999,141.220459 103.62938299999999,141.222431 104.15778799999998,141.220459 104.68619499999998,141.21454200000002 105.21460499999999,141.20468200000002 105.74301799999999,141.190876 106.271436,141.17312700000002 106.79986,141.151432 107.32829199999999,141.12579300000002 107.85673299999999,141.09620900000002 108.38518299999998,141.06268 108.91364399999999,141.025205 109.442118,140.983785 109.97060499999999,140.938419 110.49910699999998,140.889106 111.02762499999999,140.835847 111.55615999999999,140.77864100000002 112.084713,140.717488 112.61328499999999,140.652386 113.14187799999999,140.583337 113.670492,140.51033900000002 114.346781,140.4119 114.346781,145.432976 113.95132999999998,145.49053700000002 113.40820499999998,145.565539" stroke="#1f6fb2" stroke-width="0.1" /><text fill="#0a3d62" font-family="sans-serif" font-size="1.6" text-anchor="middle" x="114.346781" y="143.2443935">08</text><polygon fill="#cfe3f7" fill-opacity="0.5" points="137.781578,143.915469 137.803733,144.140412 137.883676,144.40395 138.013497,144.646828 138.188207,144.859713 138.401092,145.034423 138.64397,145.164244 138.907508,145.244187 139.132451,145.266342 150.430705,145.266342 150.65564799999999,145.244187 150.919186,145.164244 151.162064,145.034423 151.374949,144.859713 151.549659,144.646828 151.67947999999998,144.40395 151.759423,144.140412 151.781578,143.915469 151.781578,141.61721500000002 151.759423,141.39227200000002 151.67947999999998,141.128734 151.549659,140.88585600000002 151.374949,140.67297100000002 151.162064,140.498261 150.919186,140.36844000000002 150.65564799999999,140.288497 150.430705,140.266342 139.132451,140.266342 138.907508,140.288497 138.64397,140.36844000000002 138.401092,140.498261 138.188207,140.67297100000002 138.013497,140.88585600000002 137.883676,141.128734 137.803733,141.39227200000002 137.781578,141.61721500000002 137.781578,143.915469" stroke="#1f6fb2" stroke-width="0.1" /><text fill="#0a3d62" font-family="sans-serif" font-size="1.6" text-anchor="middle" x="144.781578" y="142.766342">06</text><polygon fill="#cfe3f7" fill-opacity="0.5" points="4.0,157.028851 4.022155,157.253794 4.102098,157.517332 4.2319189999999995,157.76021 4.406629,157.973095 4.619514,158.147805 4.862392,158.277626 5.12593,158.357569 5.350873,158.379724 16.649127,158.379724 16.87407,158.357569 17.137608,158.277626 17.380485999999998,158.147805 17.593370999999998,157.973095 17.768081000000002,157.76021 17.897902000000002,157.517332 17.977845000000002,157.253794 18.0,157.028851 18.0,154.73059700000002 17.977845000000002,154.50565400000002 17.897902000000002,154.242116 17.768081000000002,153.99923800000002 17.593370999999998,153.78635300000002 17.380485999999998,153.61164300000002 17.137608,153.48182200000002 16.87407,153.401879 16.649127,153.379724 5.350873,153.379724 5.12593,153.401879 4.862392,153.48182200000002 4.619514,153.61164300000002 4.406629,153.78635300000002 4.2319189999999995,153.99923800000002 4.102098,154.242116 4.022155,154.50565400000002 4.0,154.73059700000002 4.0,157.028851" stroke="#1f6fb2" stroke-width="0.1" /><text fill="#0a3d62" font-family="sans-serif" font-size="1.6" text-anchor="middle" x="11.0" y="155.879724">06</text></svg>