<?xml version="1.0" encoding="utf-8" ?>
<svg baseProfile="full" height="166.726934cm" version="1.1" viewBox="0 0 158.0 166.726934" width="158.0cm" xmlns="http://www.w3.org/2000/svg" xmlns:ev="http://www.w3.org/2001/xml-events" xmlns:xlink="http://www.w3.org/1999/xlink"><defs /><rect fill="#f7f3ea" height="158.726934" stroke="#333" stroke-width="0.15" width="150.0" x="4.0" y="4.0" /><text fill="#000" font-family="sans-serif" font-size="1.4" x="4.0" y="3.0">PLANO DE CORTE — ancho 150 cm — largo 1.59 m</text><polygon fill="#cfe3f7" fill-opacity="0.5" points="4.0,76.266342 12.00349,76.266342 11.800561,18.025649 16.021004,5.25881 13.503385,4.0 12.801069,4.929657 12.599692000000001,5.196802 12.398247000000001,5.4652080000000005 12.19702,5.735087 11.9963,6.006658 11.796378,6.280137 11.597549,6.555743 11.400112,6.833699 11.204367000000001,7.114224 11.010619,7.397541 10.819175000000001,7.683873 10.63035,7.97344 10.444457,8.266466000000001 10.261977,8.562908 10.084025,8.861226 9.91087,9.158995 9.741668,9.454941999999999 9.575355,9.748255 9.410908,10.038132000000001 9.247347,10.323782999999999 9.083736,10.604427999999999 8.919182,10.879303 8.752831,11.147666000000001 8.583869,11.408804 8.411512,11.662044999999999 8.234998000000001,11.906769 8.053566,12.142438 7.865524000000001,12.369717 7.668078,12.591596000000001 7.4601500000000005,12.810796 7.242441,13.028174 7.0159,13.244413 6.781544,13.460227999999999 6.54044,13.676373 6.324711000000001,13.866342 4.0,13.866342 4.0,76.266342" stroke="#1f6fb2" stroke-width="0.1" /><text fill="#0a3d62" font-family="sans-serif" font-size="1.6" text-anchor="middle" x="10.010502" y="40.133171">09</text><polygon fill="#cfe3f7" fill-opacity="0.5" points="17.021004,76.266342 25.024494,76.266342 24.821565,18.025649 29.042008000000003,5.25881 26.524389,4.0 25.822073000000003,4.929657 25.620696000000002,5.196802 25.419251000000003,5.4652080000000005 25.218024,5.735087 25.017304000000003,6.006658 24.817382000000002,6.280137 24.618553000000002,6.555743 24.421116,6.833699 24.225371000000003,7.114224 24.031623000000003,7.397541 23.840179000000003,7.683873 23.651354,7.97344 23.465461,8.266466000000001 23.282981,8.562908 23.105029000000002,8.861226 22.931874,9.158995 22.762672000000002,9.454941999999999 22.596359,9.748255 22.431912,10.038132000000001 22.268351000000003,10.323782999999999 22.10474,10.604427999999999 21.940186,10.879303 21.773835000000002,11.147666000000001 21.604873,11.408804 21.432516,11.662044999999999 21.256002000000002,11.906769 21.07457,12.142438 20.886528000000002,12.369717 20.689082000000003,12.591596000000001 20.481154,12.810796 20.263445,13.028174 20.036904,13.244413 19.802548,13.460227999999999 19.561444,13.676373 19.345715000000002,13.866342 17.021004,13.866342 17.021004,76.266342" stroke="#1f6fb2" stroke-width="0.1" /><text fill="#0a3d62" font-family="sans-serif" font-size="1.6" text-anchor="middle" x="23.031506" y="40.133171">09</text><polygon fill="#cfe3f7" fill-opacity="0.5" points="30.042008000000003,76.221149 58.742008,76.221149 58.742008,27.341731 58.124134,26.644709 57.757074,26.23138 57.387374,25.816584 57.014471,25.400442 56.6375,24.982744 56.255604000000005,24.563286 55.867925,24.141869 55.473626,23.718315 55.072841,23.29344 54.669169000000004,22.869321 54.268508,22.446848 53.875545,22.025494000000002 53.494854000000004,21.604813 53.131002,21.184578 52.788499,20.764785 52.471734,20.345659 52.184872,19.927636 51.931723000000005,19.511296 51.71558400000001,19.097227 51.539079,18.685704 51.403180000000006,18.273564 51.305778000000004,17.852657999999998 51.243663,17.417078 51.215163000000004,16.965550999999998 51.218824,16.497883 51.253105000000005,16.014503 51.316247000000004,15.516278 51.406221,15.004335000000001 51.520749,14.479926 51.657331,13.944336 51.81329100000001,13.398813 51.985822,12.844546 52.172017,12.28264 52.368898,11.714112 52.573435,11.139888000000001 53.106213,9.664568 39.511251,4.0 38.843077,4.884464 38.6417,5.1516090000000005 38.44025500000001,5.420015 38.239028000000005,5.689894 38.038308,5.9614650000000005 37.838386,6.2349440000000005 37.639557,6.51055 37.44212,6.788506 37.246375,7.069031 37.052627,7.352348 36.861183000000004,7.63868 36.672358,7.928247 36.486465,8.221273 36.303985000000004,8.517714999999999 36.12603300000001,8.816033000000001 35.952878000000005,9.113802 35.783676,9.409749 35.617363000000005,9.703062 35.452916,9.992939 35.289355,10.27859 35.125744000000005,10.559235 34.96119,10.83411 34.794839,11.102473 34.625877,11.363611 34.453520000000005,11.616852 34.277006,11.861576 34.095574,12.097245000000001 33.907532,12.324524 33.710086000000004,12.546403 33.502158,12.765603 33.284449,12.982981 33.057908000000005,13.19922 32.82355200000001,13.415035 32.582448,13.63118 32.366719,13.821149 30.042008000000003,13.821149 30.042008000000003,76.221149" stroke="#1f6fb2" stroke-width="0.1" /><text fill="#0a3d62" font-family="sans-serif" font-size="1.6" text-anchor="middle" x="44.392008000000004" y="40.1105745">01</text><polygon fill="#cfe3f7" fill-opacity="0.5" points="59.742008,76.221149 88.442008,76.221149 88.442008,27.341731 87.824134,26.644709 87.457074,26.23138 87.087374,25.816584 86.714471,25.400442 86.3375,24.982744 85.955604,24.563286 85.567925,24.141869 85.173626,23.718315 84.772841,23.29344 84.369169,22.869321 83.968508,22.446848 83.575545,22.025494000000002 83.19485399999999,21.604813 82.831002,21.184578 82.48849899999999,20.764785 82.171734,20.345659 81.884872,19.927636 81.631723,19.511296 81.415584,19.097227 81.239079,18.685704 81.10318,18.273564 81.00577799999999,17.852657999999998 80.943663,17.417078 80.91516299999999,16.965550999999998 80.918824,16.497883 80.953105,16.014503 81.01624699999999,15.516278 81.106221,15.004335000000001 81.220749,14.479926 81.357331,13.944336 81.513291,13.398813 81.685822,12.844546 81.872017,12.28264 82.06889799999999,11.714112 82.273435,11.139888000000001 82.806213,9.664568 69.211251,4.0 68.543077,4.884464 68.3417,5.1516090000000005 68.140255,5.420015 67.939028,5.689894 67.738308,5.9614650000000005 67.538386,6.2349440000000005 67.339557,6.51055 67.14212,6.788506 66.946375,7.069031 66.752627,7.352348 66.561183,7.63868 66.37235799999999,7.928247 66.186465,8.221273 66.003985,8.517714999999999 65.826033,8.816033000000001 65.652878,9.113802 65.483676,9.409749 65.317363,9.703062 65.152916,9.992939 64.989355,10.27859 64.825744,10.559235 64.66119,10.83411 64.494839,11.102473 64.32587699999999,11.363611 64.15352,11.616852 63.977005999999996,11.861576 63.795574,12.097245000000001 63.607532,12.324524 63.410086,12.546403 63.202158,12.765603 62.984449,12.982981 62.757908,13.19922 62.523551999999995,13.415035 62.282448,13.63118 62.066719,13.821149 59.742008,13.821149 59.742008,76.221149" stroke="#1f6fb2" stroke-width="0.1" /><text fill="#0a3d62" font-family="sans-serif" font-size="1.6" text-anchor="middle" x="74.09200799999999" y="40.1105745">01</text><polygon fill="#cfe3f7" fill-opacity="0.5" points="94.10131200000001,67.504489 120.932054,67.504489 125.600246,14.780816 124.875284,13.984162999999999 124.43920299999999,13.510415 123.99427800000001,13.038003 123.538407,12.570331 123.071832,12.111806 122.596806,11.66412 122.114327,11.226722 121.625034,10.798707 121.129549,10.379169 120.62848600000001,9.967202 120.122444,9.561897 119.612014,9.162351 119.097774,8.76766 118.579595,8.376404 118.055424,7.987178999999999 117.52279899999999,7.601471 116.980602,7.222271 116.427855,6.852762 115.863529,6.496182 115.286562,6.155843 114.695877,5.835151 114.090417,5.5376259999999995 113.469195,5.266921 112.832936,5.027402 112.186746,4.822172 111.536252,4.648502 110.883655,4.501744 110.230505,4.377209 109.578231,4.270335 108.928195,4.1767 108.281743,4.092022 107.542642,4.0 106.789664,4.054455 106.12987,4.106248 105.466352,4.166578 104.800271,4.239678 104.13278700000001,4.32991 103.465109,4.4417729999999995 102.79854399999999,4.579896 102.134641,4.749005 101.477453,4.953069 100.83281099999999,5.191524 100.203094,5.460114 99.587732,5.755287 98.985899,6.073668 98.39671799999999,6.411991 97.819297,6.767088 97.252753,7.135873 96.696236,7.515326 96.148932,7.9024719999999995 95.609311,8.294937000000001 95.07441,8.693085 94.543579,9.100177 94.018692,9.518501 93.502039,9.95011 92.995966,10.397098 92.502893,10.861584 92.025336,11.345687999999999 91.565922,11.851508 91.127868,12.380507 90.716964,12.928888 90.333375,13.486006 89.970939,14.043541 89.442008,14.881205 94.10131200000001,67.504489" stroke="#1f6fb2" stroke-width="0.1" /><text fill="#0a3d62" font-family="sans-serif" font-size="1.6" text-anchor="middle" x="107.521127" y="35.7522445">04</text><polygon fill="#cfe3f7" fill-opacity="0.5" points="8.659303999999999,140.770831 35.490046,140.770831 40.158238,88.047158 39.433276,87.25050499999999 38.997195,86.77675699999999 38.55227,86.304345 38.096399,85.83667299999999 37.629824,85.378148 37.154798,84.93046199999999 36.672319,84.49306399999999 36.183026,84.06504899999999 35.687540999999996,83.645511 35.186478,83.233544 34.680436,82.828239 34.170006,82.428693 33.655766,82.03400199999999 33.137586999999996,81.64274599999999 32.613416,81.25352099999999 32.080791,80.867813 31.538594,80.488613 30.985847,80.119104 30.421521,79.762524 29.844554,79.422185 29.253868999999998,79.10149299999999 28.648409,78.803968 28.027186999999998,78.53326299999999 27.390928,78.29374399999999 26.744737999999998,78.08851399999999 26.094244,77.91484399999999 25.441647,77.768086 24.788497,77.64355099999999 24.136223,77.536677 23.486187,77.44304199999999 22.839734999999997,77.358364 22.100634,77.266342 21.347656,77.320797 20.687862,77.37258999999999 20.024344,77.43292 19.358263,77.50601999999999 18.690779,77.59625199999999 18.023101,77.70811499999999 17.356536,77.846238 16.692633,78.01534699999999 16.035445,78.219411 15.390802999999998,78.457866 14.761085999999999,78.726456 14.145724,79.02162899999999 13.543890999999999,79.34000999999999 12.954709999999999,79.678333 12.377289,80.03343 11.810744999999999,80.402215 11.254228,80.781668 10.706923999999999,81.168814 10.167302999999999,81.561279 9.632401999999999,81.95942699999999 9.101571,82.366519 8.576683999999998,82.784843 8.060030999999999,83.21645199999999 7.553958,83.66344 7.060884999999999,84.127926 6.583328,84.61202999999999 6.123913999999999,85.11784999999999 5.685859999999998,85.64684899999999 5.2749559999999995,86.19523 4.891366999999999,86.752348 4.528931,87.309883 4.0,88.14754699999999 8.659303999999999,140.770831" stroke="#1f6fb2" stroke-width="0.1" /><text fill="#0a3d62" font-family="sans-serif" font-size="1.6" text-anchor="middle" x="22.079119" y="109.0185865">04</text><polygon fill="#cfe3f7" fill-opacity="0.5" points="93.158238,90.459396 92.683751,89.759301 92.38158899999999,89.313178 92.079494,88.86657399999999 91.777413,88.419123 91.475291,87.970456 91.173076,87.520206 90.870711,87.068004 90.568157,86.613503 90.26581999999999,86.15697999999999 89.965577,85.69946999999999 89.670048,85.241545 89.381435,84.78313499999999 89.1019,84.324182 88.83358199999999,83.864678 88.578582,83.404654 88.338956,82.94417399999999 88.11670099999999,82.48332699999999 87.913734,82.02221 87.731886,81.560902 87.572884,81.09943299999999 87.43832499999999,80.637655 87.329189,80.17338099999999 87.244561,79.70264399999999 87.182601,79.223439 87.14185599999999,78.73575199999999 87.079696,77.266342 67.158238,77.266342 67.158238,139.266342 93.158238,139.266342 93.158238,90.459396 41.158238,90.459396 41.63272499999999,89.759301 41.934886999999996,89.313178 42.236982,88.86657399999999 42.539063,88.419123 42.841184999999996,87.970456 43.1434,87.520206 43.445764999999994,87.068004 43.748318999999995,86.613503 44.050656,86.15697999999999 44.350899,85.69946999999999 44.646428,85.241545 44.935041,84.78313499999999 45.214575999999994,84.324182 45.482894,83.864678 45.737894,83.404654 45.97752,82.94417399999999 46.199775,82.48332699999999 46.402741999999996,82.02221 46.58459,81.560902 46.74359199999999,81.09943299999999 46.878150999999995,80.637655 46.987286999999995,80.17338099999999 47.071915,79.70264399999999 47.133874999999996,79.223439 47.17462,78.73575199999999 47.236779999999996,77.266342 67.158238,77.266342 67.158238,139.266342 41.158238,139.266342 41.158238,90.459396" stroke="#1f6fb2" stroke-width="0.1" /><text fill="#0a3d62" font-family="sans-serif" font-size="1.6" text-anchor="middle" x="67.158238" y="108.266342">02</text><polygon fill="#cfe3f7" fill-opacity="0.5" points="94.158238,88.538247 101.158238,92.948247 108.158238,88.538247 108.158238,77.266342 94.158238,77.266342 94.158238,88.538247" stroke="#1f6fb2" stroke-width="0.1" /><text fill="#0a3d62" font-family="sans-serif" font-size="1.6" text-anchor="middle" x="101.158238" y="85.1072945">10</text><polygon fill="#cfe3f7" fill-opacity="0.5" points="109.158238,89.515469 109.188079,89.81844899999999 109.290785,90.15702399999999 109.45757,90.46905699999999 109.682024,90.742556 109.955523,90.96700999999999 110.267556,91.13379499999999 110.60613099999999,91.23650099999999 110.909111,91.266342 133.407365,91.266342 133.710345,91.23650099999999 134.04892,91.13379499999999 134.360953,90.96700999999999 134.634452,90.742556 134.858906,90.46905699999999 135.025691,90.15702399999999 135.128397,89.81844899999999 135.15823799999998,89.515469 135.15823799999998,79.017215 135.128397,78.71423499999999 135.025691,78.37566 134.858906,78.063627 134.634452,77.790128 134.360953,77.565674 134.04892,77.398889 133.710345,77.296183 133.407365,77.266342 110.909111,77.266342 110.60613099999999,77.296183 110.267556,77.398889 109.955523,77.565674 109.682024,77.790128 109.45757,78.063627 109.290785,78.37566 109.188079,78.71423499999999 109.158238,79.017215 109.158238,89.515469" stroke="#1f6fb2" stroke-width="0.1" /><text fill="#0a3d62" font-family="sans-serif" font-size="1.6" text-anchor="middle" x="122.158238" y="84.266342">05</text><polygon fill="#cfe3f7" fill-opacity="0.5" points="4.0,154.01995799999997 4.029841,154.322938 4.132547,154.66151299999999 4.299332,154.973546 4.523786,155.24704499999999 4.7972850000000005,155.471499 5.109318,155.638284 5.4478930000000005,155.74098999999998 5.750873,155.770831 28.249127,155.770831 28.552107,155.74098999999998 28.890682,155.638284 29.202715,155.471499 29.476214,155.24704499999999 29.700668,154.973546 29.867453,154.66151299999999 29.970159,154.322938 30.0,154.01995799999997 30.0,143.521704 29.970159,143.21872399999998 29.867453,142.880149 29.700668,142.56811599999997 29.476214,142.294617 29.202715,142.07016299999998 28.890682,141.90337799999998 28.552107,141.800672 28.249127,141.770831 5.750873,141.770831 5.4478930000000005,141.800672 5.109318,141.90337799999998 4.7972850000000005,142.07016299999998 4.523786,142.294617 4.299332,142.56811599999997 4.132547,142.880149 4.029841,143.21872399999998 4.0,143.521704 4.0,154.01995799999997" stroke="#1f6fb2" stroke-width="0.1" /><text fill="#0a3d62" font-family="sans-serif" font-size="1.6" text-anchor="middle" x="17.0" y="148.770831">05</text><polygon fill="#cfe3f7" fill-opacity="0.5" points="71.572053,152.85765899999998 71.56934799999999,152.353739 71.583375,151.842266 71.61252999999999,151.323701 71.655152,150.79853799999998 71.709519,150.26728599999998 71.773859,149.730451 71.846353,149.18853099999998 71.925144,148.642003 72.008335,148.091322 72.21883199999999,146.72901299999998 58.780716,141.770831 58.145398,142.19037999999998 57.935474,142.327714 57.72806,142.46087 57.522656,142.589016 57.318786,142.71137499999998 57.115969,142.82723199999998 56.913016,142.936322 56.707906,143.03918 56.499669,143.136294 56.288506,143.22757499999997 56.074714,143.31289299999997 55.858594,143.39212099999997 55.64045,143.465138 55.420585,143.531826 55.199304,143.592074 54.976911,143.64577699999998 54.753606,143.692858 54.528752999999995,143.733434 54.301271,143.76799599999998 54.070786999999996,143.79702699999999 53.837306999999996,143.820956 53.600865,143.84022099999999 53.361513,143.855277 53.119316,143.866591 52.87435,143.87464799999998 52.626695999999995,143.87994999999998 52.376436999999996,143.883016 52.123659,143.884378 51.868444,143.88458899999998 51.609415999999996,143.884212 51.609415999999996,153.884213 71.615479,153.884213 71.572053,152.85765899999998 31.646779,152.85765899999998 31.649484,152.353739 31.635457,151.842266 31.606302,151.323701 31.563679999999998,150.79853799999998 31.509313,150.26728599999998 31.444973,149.730451 31.372479,149.18853099999998 31.293688,148.642003 31.210497,148.091322 31.0,146.72901299999998 44.438116,141.770831 45.073434,142.19037999999998 45.283358,142.327714 45.490772,142.46087 45.696176,142.589016 45.900046,142.71137499999998 46.102863,142.82723199999998 46.305816,142.936322 46.510926,143.03918 46.719162999999995,143.136294 46.930326,143.22757499999997 47.144118,143.31289299999997 47.360237999999995,143.39212099999997 47.578382,143.465138 47.798247,143.531826 48.019528,143.592074 48.241921,143.64577699999998 48.465226,143.692858 48.690079,143.733434 48.917561,143.76799599999998 49.148044999999996,143.79702699999999 49.381524999999996,143.820956 49.617967,143.84022099999999 49.857319000000004,143.855277 50.099516,143.866591 50.344482,143.87464799999998 50.592135999999996,143.87994999999998 50.842394999999996,143.883016 51.095173,143.884378 51.350387999999995,143.88458899999998 51.609415999999996,143.884212 51.609415999999996,153.884213 31.603353,153.884213 31.646779,152.85765899999998" stroke="#1f6fb2" stroke-width="0.1" /><text fill="#0a3d62" font-family="sans-serif" font-size="1.6" text-anchor="middle" x="51.609415999999996" y="147.827522">03</text><polygon fill="#cfe3f7" fill-opacity="0.5" points="96.372693,148.62195499999999 96.87573699999999,148.71117099999998 97.37883,148.79529699999998 97.88197,148.87433199999998 98.385155,148.948274 98.888381,149.017122 99.391646,149.080876 99.89494699999999,149.139533 100.398281,149.19309399999997 100.901646,149.24155599999997 101.40503799999999,149.28491899999997 101.90845499999999,149.323183 102.41189299999999,149.35634599999997 102.91534999999999,149.38440799999998 103.41882299999999,149.407369 103.92230799999999,149.42522799999998 104.42580199999999,149.437984 104.92930299999999,149.44563799999997 105.432806,149.44818999999998 105.93630999999999,149.44563799999997 106.43981099999999,149.437984 106.943305,149.42522799999998 107.44679,149.407369 107.950262,149.38440799999998 108.45371899999999,149.35634599999997 108.95715799999999,149.323183 109.46057499999999,149.28491899999997 109.963967,149.24155599999997 110.467332,149.19309399999997 110.970666,149.139533 111.47396699999999,149.080876 111.97723199999999,149.017122 112.480458,148.948274 112.98364299999999,148.87433199999998 113.48678299999999,148.79529699999998 113.989876,148.71117099999998 114.49292,148.62195499999999 114.80336,148.563752 116.856766,151.98609599999997 117.91198399999999,151.587113 116.099747,141.770831 114.61775699999998,142.06370299999998 114.13400999999999,142.15439899999998 113.650314,142.24018299999997 113.16666799999999,142.321057 112.68306799999999,142.397022 112.199513,142.46808 111.71599899999998,142.53423199999997 111.23252399999998,142.59547799999999 110.749085,142.65182099999998 110.26567999999999,142.70326 109.78230399999998,142.749798 109.29895699999999,142.79143499999998 108.81563399999999,142.828171 108.33233299999999,142.860008 107.84904999999999,142.886946 107.365782,142.90898499999997 106.88252699999998,142.92612599999998 106.399282,142.93837 105.91604299999999,142.94571599999998 105.432806,142.948164 104.94957,142.94571599999998 104.466331,142.93837 103.98308499999999,142.92612599999998 103.49983099999999,142.90898499999997 103.01656299999999,142.886946 102.53327999999999,142.860008 102.049979,142.828171 101.566656,142.79143499999998 101.08330799999999,142.749798 100.599933,142.70326 100.11652799999999,142.65182099999998 99.63308899999998,142.59547799999999 99.14961399999999,142.53423199999997 98.66609999999999,142.46808 98.18254499999999,142.397022 97.698945,142.321057 97.21529899999999,142.24018299999997 96.73160299999999,142.15439899999998 96.24785599999998,142.06370299999998 95.56540799999999,141.928837 95.56540799999999,148.467517 95.8697,148.527651 96.372693,148.62195499999999 94.75812299999998,148.62195499999999 94.255079,148.71117099999998 93.75198599999999,148.79529699999998 93.24884599999999,148.87433199999998 92.74566099999998,148.948274 92.24243499999999,149.017122 91.73916999999999,149.080876 91.235869,149.139533 90.73253499999998,149.19309399999997 90.22916999999998,149.24155599999997 89.72577799999999,149.28491899999997 89.22236099999999,149.323183 88.71892299999999,149.35634599999997 88.21546599999999,149.38440799999998 87.71199299999999,149.407369 87.208508,149.42522799999998 86.70501399999999,149.437984 86.20151299999999,149.44563799999997 85.69801,149.44818999999998 85.19450599999999,149.44563799999997 84.69100499999999,149.437984 84.18751099999999,149.42522799999998 83.68402599999999,149.407369 83.18055399999999,149.38440799999998 82.67709699999999,149.35634599999997 82.17365799999999,149.323183 81.67024099999999,149.28491899999997 81.16684899999998,149.24155599999997 80.663484,149.19309399999997 80.16014999999999,149.139533 79.656849,149.080876 79.153584,149.017122 78.65035799999998,148.948274 78.147173,148.87433199999998 77.644033,148.79529699999998 77.14093999999999,148.71117099999998 76.63789599999998,148.62195499999999 76.32745599999998,148.563752 74.27404999999999,151.98609599999997 73.21883199999999,151.587113 75.03106899999999,141.770831 76.513059,142.06370299999998 76.99680599999999,142.15439899999998 77.48050199999999,142.24018299999997 77.964148,142.321057 78.44774799999999,142.397022 78.93130299999999,142.46808 79.414817,142.53423199999997 79.898292,142.59547799999999 80.38173099999999,142.65182099999998 80.86513599999999,142.70326 81.34851199999999,142.749798 81.831859,142.79143499999998 82.315182,142.828171 82.79848299999999,142.860008 83.28176599999999,142.886946 83.76503399999999,142.90898499999997 84.24828899999999,142.92612599999998 84.731534,142.93837 85.214773,142.94571599999998 85.69801,142.948164 86.18124599999999,142.94571599999998 86.66448499999998,142.93837 87.147731,142.92612599999998 87.630985,142.90898499999997 88.11425299999999,142.886946 88.59753599999999,142.860008 89.08083699999999,142.828171 89.56415999999999,142.79143499999998 90.047508,142.749798 90.53088299999999,142.70326 91.014288,142.65182099999998 91.497727,142.59547799999999 91.981202,142.53423199999997 92.464716,142.46808 92.94827099999999,142.397022 93.43187099999999,142.321057 93.915517,142.24018299999997 94.39921299999999,142.15439899999998 94.88296,142.06370299999998 95.56540799999999,141.928837 95.56540799999999,148.467517 95.26111599999999,148.527651 94.75812299999998,148.62195499999999" stroke="#1f6fb2" stroke-width="0.1" /><text fill="#0a3d62" font-family="sans-serif" font-size="1.6" text-anchor="middle" x="95.56540799999999" y="146.87846349999998">07</text><polygon fill="#cfe3f7" fill-opacity="0.5" points="27.373373,162.07002799999998 27.916521,162.140979 28.459688,162.207877 29.002875,162.27072399999997 29.54608,162.32951799999998 30.089302,162.384259 30.63254,162.434946 31.175793,162.48157999999998 31.719059,162.52416 32.262337,162.562685 32.805627,162.59715599999998 33.348926,162.627572 33.892234,162.653933 34.43555,162.67623799999998 34.978871,162.69448899999998 35.522198,162.70868299999998 36.065528,162.718823 36.608861,162.72490599999998 37.152195,162.726934 37.69553,162.72490599999998 38.238863,162.718823 38.782193,162.70868299999998 39.32552,162.69448899999998 39.868841,162.67623799999998 40.412157,162.653933 40.955465000000004,162.627572 41.498764,162.59715599999998 42.042054,162.562685 42.585332,162.52416 43.128598,162.48157999999998 43.671851000000004,162.434946 44.215089,162.384259 44.758311,162.32951799999998 45.301516,162.27072399999997 45.844702999999996,162.207877 46.38787,162.140979 46.931017,162.07002799999998 47.474143,161.995026 48.869594,161.79190699999998 48.869594,156.770831 47.193304999999995,157.014828 46.664691000000005,157.08782599999998 46.136098000000004,157.15687499999999 45.607526,157.22197699999998 45.078973000000005,157.28313 44.550438,157.34033599999998 44.021919999999994,157.39359499999998 43.493418,157.442908 42.964931,157.488274 42.436457000000004,157.52969399999998 41.907996,157.56716899999998 41.379545,157.600698 40.851105000000004,157.630282 40.322673,157.65592099999998 39.794249,157.677616 39.265831,157.69536499999998 38.737417,157.709171 38.209008,157.719031 37.680600999999996,157.72494799999998 37.152195,157.72691999999998 36.62379,157.72494799999998 36.095383,157.719031 35.566973,157.709171 35.038560000000004,157.69536499999998 34.510142,157.677616 33.981718,157.65592099999998 33.453286,157.630282 32.924845,157.600698 32.396395,157.56716899999998 31.867933999999998,157.52969399999998 31.33946,157.488274 30.810973,157.442908 30.282471,157.39359499999998 29.753953,157.34033599999998 29.225417999999998,157.28313 28.696865,157.22197699999998 28.168293,157.15687499999999 27.6397,157.08782599999998 27.111086,157.014828 26.434797,156.91638899999998 26.434797,161.93746499999997 26.830248,161.995026 27.373373,162.07002799999998 25.496221,162.07002799999998 24.953073,162.140979 24.409906,162.207877 23.866719,162.27072399999997 23.323514,162.32951799999998 22.780292,162.384259 22.237054,162.434946 21.693801,162.48157999999998 21.150534999999998,162.52416 20.607257,162.562685 20.063966999999998,162.59715599999998 19.520668,162.627572 18.97736,162.653933 18.434044,162.67623799999998 17.890723,162.69448899999998 17.347396,162.70868299999998 16.804066,162.718823 16.260733000000002,162.72490599999998 15.717399,162.726934 15.174064,162.72490599999998 14.630730999999999,162.718823 14.087401,162.70868299999998 13.544074,162.69448899999998 13.000753,162.67623799999998 12.457437,162.653933 11.914128999999999,162.627572 11.37083,162.59715599999998 10.827539999999999,162.562685 10.284261999999998,162.52416 9.740995999999999,162.48157999999998 9.197743,162.434946 8.654505,162.384259 8.111283,162.32951799999998 7.568078,162.27072399999997 7.024891,162.207877 6.481724,162.140979 5.938576999999999,162.07002799999998 5.395451000000001,161.995026 4.0,161.79190699999998 4.0,156.770831 5.676289000000001,157.014828 6.204902999999998,157.08782599999998 6.733495999999999,157.15687499999999 7.262067999999999,157.22197699999998 7.790620999999998,157.28313 8.319156,157.34033599999998 8.847674000000001,157.39359499999998 9.376176000000001,157.442908 9.904663,157.488274 10.433136999999999,157.52969399999998 10.961598,157.56716899999998 11.490048999999999,157.600698 12.018488999999999,157.630282 12.546921,157.65592099999998 13.075345,157.677616 13.603762999999999,157.69536499999998 14.132177,157.709171 14.660586,157.719031 15.188993,157.72494799999998 15.717399,157.72691999999998 16.245804,157.72494799999998 16.774211,157.719031 17.302621000000002,157.709171 17.831034,157.69536499999998 18.359451999999997,157.677616 18.887876,157.65592099999998 19.416308,157.630282 19.944749,157.600698 20.473199,157.56716899999998 21.00166,157.52969399999998 21.530134,157.488274 22.058621,157.442908 22.587123,157.39359499999998 23.115641,157.34033599999998 23.644176,157.28313 24.172729,157.22197699999998 24.701301,157.15687499999999 25.229893999999998,157.08782599999998 25.758508,157.014828 26.434797,156.91638899999998 26.434797,161.93746499999997 26.039346,161.995026 25.496221,162.07002799999998" stroke="#1f6fb2" stroke-width="0.1" /><text fill="#0a3d62" font-family="sans-serif" font-size="1.6" text-anchor="middle" x="26.434797" y="159.74888249999998">08</text><polygon fill="#cfe3f7" fill-opacity="0.5" points="49.869594,160.41995799999998 49.891749,160.64490099999998 49.971692,160.908439 50.101513,161.15131699999998 50.276223,161.36420199999998 50.489108,161.53891199999998 50.731986,161.66873299999997 50.995523999999996,161.748676 51.220467,161.770831 62.518721,161.770831 62.743663999999995,161.748676 63.007202,161.66873299999997 63.25008,161.53891199999998 63.462965,161.36420199999998 63.637675,161.15131699999998 63.767496,160.908439 63.847439,160.64490099999998 63.869594,160.41995799999998 63.869594,158.121704 63.847439,157.896761 63.767496,157.633223 63.637675,157.390345 63.462965,157.17746 63.25008,157.00275 63.007202,156.872929 62.743663999999995,156.79298599999998 62.518721,156.770831 51.220467,156.770831 50.995523999999996,156.79298599999998 50.731986,156.872929 50.489108,157.00275 50.276223,157.17746 50.101513,157.390345 49.971692,157.633223 49.891749,157.896761 49.869594,158.121704 49.869594,160.41995799999998" stroke="#1f6fb2" stroke-width="0.1" /><text fill="#0a3d62" font-family="sans-serif" font-size="1.6" text-anchor="middle" x="56.869594" y="159.270831">06</text><polygon fill="#cfe3f7" fill-opacity="0.5" points="64.869594,160.41995799999998 64.891749,160.64490099999998 64.971692,160.908439 65.10151300000001,161.15131699999998 65.276223,161.36420199999998 65.489108,161.53891199999998 65.731986,161.66873299999997 65.995524,161.748676 66.22046700000001,161.770831 77.518721,161.770831 77.74366400000001,161.748676 78.007202,161.66873299999997 78.25008000000001,161.53891199999998 78.46296500000001,161.36420199999998 78.637675,161.15131699999998 78.76749600000001,160.908439 78.84743900000001,160.64490099999998 78.869594,160.41995799999998 78.869594,158.121704 78.84743900000001,157.896761 78.76749600000001,157.633223 78.637675,157.390345 78.46296500000001,157.17746 78.25008000000001,157.00275 78.007202,156.872929 77.74366400000001,156.79298599999998 77.518721,156.770831 66.22046700000001,156.770831 65.995524,156.79298599999998 65.731986,156.872929 65.489108,157.00275 65.276223,157.17746 65.10151300000001,157.390345 64.971692,157.633223 64.891749,157.896761 64.869594,158.121704 64.869594,160.41995799999998" stroke="#1f6fb2" stroke-width="0.1" /><text fill="#0a3d62" font-family="sans-serif" font-size="1.6" text-anchor="middle" x="71.869594" y="159.270831">06</text></svg>