  0
SECTION
  2
HEADER
  9
$ACADVER
  1
AC1027
  9
$ACADMAINTVER
 70
105
  9
$DWGCODEPAGE
  3
ANSI_1252
  9
$LASTSAVEDBY
  1
ezdxf
  9
$REQUIREDVERSIONS
160
0
  9
$INSBASE
 10
0.0
 20
0.0
 30
0.0
  9
$EXTMIN
 10
1e+20
 20
1e+20
 30
1e+20
  9
$EXTMAX
 10
-1e+20
 20
-1e+20
 30
-1e+20
  9
$LIMMIN
 10
0.0
 20
0.0
  9
$LIMMAX
 10
420.0
 20
297.0
  9
$ORTHOMODE
 70
0
  9
$REGENMODE
 70
1
  9
$FILLMODE
 70
1
  9
$QTEXTMODE
 70
0
  9
$MIRRTEXT
 70
1
  9
$LTSCALE
 40
1.0
  9
$ATTMODE
 70
1
  9
$TEXTSIZE
 40
2.5
  9
$TRACEWID
 40
1.0
  9
$TEXTSTYLE
  7
OpenSans
  9
$CLAYER
  8
0
  9
$CELTYPE
  6
ByLayer
  9
$CECOLOR
 62
256
  9
$CELTSCALE
 40
1.0
  9
$DISPSILH
 70
0
  9
$DIMSCALE
 40
1.0
  9
$DIMASZ
 40
0.175
  9
$DIMEXO
 40
0.125
  9
$DIMDLI
 40
3.75
  9
$DIMRND
 40
0.0
  9
$DIMDLE
 40
0.0
  9
$DIMEXE
 40
0.375
  9
$DIMTP
 40
0.0
  9
$DIMTM
 40
0.0
  9
$DIMTXT
 40
0.25
  9
$DIMCEN
 40
2.5
  9
$DIMTSZ
 40
0.0
  9
$DIMTOL
 70
0
  9
$DIMLIM
 70
0
  9
$DIMTIH
 70
0
  9
$DIMTOH
 70
0
  9
$DIMSE1
 70
0
  9
$DIMSE2
 70
0
  9
$DIMTAD
 70
1
  9
$DIMZIN
 70
12
  9
$DIMBLK
  1
ARCHTICK
  9
$DIMASO
 70
1
  9
$DIMSHO
 70
1
  9
$DIMPOST
  1

  9
$DIMAPOST
  1

  9
$DIMALT
 70
0
  9
$DIMALTD
 70
3
  9
$DIMALTF
 40
0.03937007874
  9
$DIMLFAC
 40
100.0
  9
$DIMTOFL
 70
1
  9
$DIMTVP
 40
0.0
  9
$DIMTIX
 70
0
  9
$DIMSOXD
 70
0
  9
$DIMSAH
 70
0
  9
$DIMBLK1
  1

  9
$DIMBLK2
  1

  9
$DIMSTYLE
  2
EZDXF
  9
$DIMCLRD
 70
0
  9
$DIMCLRE
 70
0
  9
$DIMCLRT
 70
0
  9
$DIMTFAC
 40
0.5
  9
$DIMGAP
 40
0.1
  9
$DIMJUST
 70
0
  9
$DIMSD1
 70
0
  9
$DIMSD2
 70
0
  9
$DIMTOLJ
 70
0
  9
$DIMTZIN
 70
8
  9
$DIMALTZ
 70
0
  9
$DIMALTTZ
 70
0
  9
$DIMUPT
 70
1
  9
$DIMDEC
 70
2
  9
$DIMTDEC
 70
2
  9
$DIMALTU
 70
2
  9
$DIMALTTD
 70
3
  9
$DIMTXSTY
  7
OpenSansCondensed-Light
  9
$DIMAUNIT
 70
0
  9
$DIMADEC
 70
2
  9
$DIMALTRND
 40
0.0
  9
$DIMAZIN
 70
3
  9
$DIMDSEP
 70
46
  9
$DIMATFIT
 70
3
  9
$DIMFRAC
 70
0
  9
$DIMLDRBLK
  1

  9
$DIMLUNIT
 70
2
  9
$DIMLWD
 70
-2
  9
$DIMLWE
 70
-2
  9
$DIMTMOVE
 70
2
  9
$DIMFXL
 40
1.0
  9
$DIMFXLON
 70
0
  9
$DIMJOGANG
 40
0.785398163397
  9
$DIMTFILL
 70
0
  9
$DIMTFILLCLR
 70
0
  9
$DIMARCSYM
 70
0
  9
$DIMLTYPE
  6

  9
$DIMLTEX1
  6

  9
$DIMLTEX2
  6

  9
$DIMTXTDIRECTION
 70
0
  9
$LUNITS
 70
2
  9
$LUPREC
 70
4
  9
$SKETCHINC
 40
1.0
  9
$FILLETRAD
 40
10.0
  9
$AUNITS
 70
0
  9
$AUPREC
 70
2
  9
$MENU
  1
.
  9
$ELEVATION
 40
0.0
  9
$PELEVATION
 40
0.0
  9
$THICKNESS
 40
0.0
  9
$LIMCHECK
 70
0
  9
$CHAMFERA
 40
0.0
  9
$CHAMFERB
 40
0.0
  9
$CHAMFERC
 40
0.0
  9
$CHAMFERD
 40
0.0
  9
$SKPOLY
 70
0
  9
$TDCREATE
 40
2461235.8056828706
  9
$TDUCREATE
 40
2458532.153996898
  9
$TDUPDATE
 40
2461235.8056828706
  9
$TDUUPDATE
 40
2458532.1544311
  9
$TDINDWG
 40
0.0
  9
$TDUSRTIMER
 40
0.0
  9
$USRTIMER
 70
1
  9
$ANGBASE
 50
0.0
  9
$ANGDIR
 70
0
  9
$PDMODE
 70
0
  9
$PDSIZE
 40
0.0
  9
$PLINEWID
 40
0.0
  9
$SPLFRAME
 70
0
  9
$SPLINETYPE
 70
6
  9
$SPLINESEGS
 70
8
  9
$HANDSEED
  5
137
  9
$SURFTAB1
 70
6
  9
$SURFTAB2
 70
6
  9
$SURFTYPE
 70
6
  9
$SURFU
 70
6
  9
$SURFV
 70
6
  9
$UCSBASE
  2

  9
$UCSNAME
  2

  9
$UCSORG
 10
0.0
 20
0.0
 30
0.0
  9
$UCSXDIR
 10
1.0
 20
0.0
 30
0.0
  9
$UCSYDIR
 10
0.0
 20
1.0
 30
0.0
  9
$UCSORTHOREF
  2

  9
$UCSORTHOVIEW
 70
0
  9
$UCSORGTOP
 10
0.0
 20
0.0
 30
0.0
  9
$UCSORGBOTTOM
 10
0.0
 20
0.0
 30
0.0
  9
$UCSORGLEFT
 10
0.0
 20
0.0
 30
0.0
  9
$UCSORGRIGHT
 10
0.0
 20
0.0
 30
0.0
  9
$UCSORGFRONT
 10
0.0
 20
0.0
 30
0.0
  9
$UCSORGBACK
 10
0.0
 20
0.0
 30
0.0
  9
$PUCSBASE
  2

  9
$PUCSNAME
  2

  9
$PUCSORG
 10
0.0
 20
0.0
 30
0.0
  9
$PUCSXDIR
 10
1.0
 20
0.0
 30
0.0
  9
$PUCSYDIR
 10
0.0
 20
1.0
 30
0.0
  9
$PUCSORTHOREF
  2

  9
$PUCSORTHOVIEW
 70
0
  9
$PUCSORGTOP
 10
0.0
 20
0.0
 30
0.0
  9
$PUCSORGBOTTOM
 10
0.0
 20
0.0
 30
0.0
  9
$PUCSORGLEFT
 10
0.0
 20
0.0
 30
0.0
  9
$PUCSORGRIGHT
 10
0.0
 20
0.0
 30
0.0
  9
$PUCSORGFRONT
 10
0.0
 20
0.0
 30
0.0
  9
$PUCSORGBACK
 10
0.0
 20
0.0
 30
0.0
  9
$USERI1
 70
0
  9
$USERI2
 70
0
  9
$USERI3
 70
0
  9
$USERI4
 70
0
  9
$USERI5
 70
0
  9
$USERR1
 40
0.0
  9
$USERR2
 40
0.0
  9
$USERR3
 40
0.0
  9
$USERR4
 40
0.0
  9
$USERR5
 40
0.0
  9
$WORLDVIEW
 70
1
  9
$SHADEDGE
 70
3
  9
$SHADEDIF
 70
70
  9
$TILEMODE
 70
1
  9
$MAXACTVP
 70
64
  9
$PINSBASE
 10
0.0
 20
0.0
 30
0.0
  9
$PLIMCHECK
 70
0
  9
$PEXTMIN
 10
1e+20
 20
1e+20
 30
1e+20
  9
$PEXTMAX
 10
-1e+20
 20
-1e+20
 30
-1e+20
  9
$PLIMMIN
 10
0.0
 20
0.0
  9
$PLIMMAX
 10
420.0
 20
297.0
  9
$UNITMODE
 70
0
  9
$VISRETAIN
 70
1
  9
$PLINEGEN
 70
0
  9
$PSLTSCALE
 70
1
  9
$TREEDEPTH
 70
3020
  9
$CMLSTYLE
  2
Standard
  9
$CMLJUST
 70
0
  9
$CMLSCALE
 40
20.0
  9
$PROXYGRAPHICS
 70
1
  9
$MEASUREMENT
 70
1
  9
$CELWEIGHT
370
-1
  9
$ENDCAPS
280
0
  9
$JOINSTYLE
280
0
  9
$LWDISPLAY
290
0
  9
$INSUNITS
 70
5
  9
$HYPERLINKBASE
  1

  9
$STYLESHEET
  1

  9
$XEDIT
290
1
  9
$CEPSNTYPE
380
0
  9
$PSTYLEMODE
290
1
  9
$FINGERPRINTGUID
  2
{1594E35C-6A98-4F3D-8925-1A67AAA4335B}
  9
$VERSIONGUID
  2
{10125CDD-1F88-47BC-AA7F-9F4CEF0FD466}
  9
$EXTNAMES
290
1
  9
$PSVPSCALE
 40
0.0
  9
$OLESTARTUP
290
0
  9
$SORTENTS
280
127
  9
$INDEXCTL
280
0
  9
$HIDETEXT
280
1
  9
$XCLIPFRAME
280
1
  9
$HALOGAP
280
0
  9
$OBSCOLOR
 70
257
  9
$OBSLTYPE
280
0
  9
$INTERSECTIONDISPLAY
280
0
  9
$INTERSECTIONCOLOR
 70
257
  9
$DIMASSOC
280
2
  9
$PROJECTNAME
  1

  9
$CAMERADISPLAY
290
0
  9
$LENSLENGTH
 40
50.0
  9
$CAMERAHEIGHT
 40
0.0
  9
$STEPSPERSEC
 40
24.0
  9
$STEPSIZE
 40
100.0
  9
$3DDWFPREC
 40
2.0
  9
$PSOLWIDTH
 40
0.005
  9
$PSOLHEIGHT
 40
0.08
  9
$LOFTANG1
 40
1.570796326795
  9
$LOFTANG2
 40
1.570796326795
  9
$LOFTMAG1
 40
0.0
  9
$LOFTMAG2
 40
0.0
  9
$LOFTPARAM
 70
7
  9
$LOFTNORMALS
280
1
  9
$LATITUDE
 40
37.795
  9
$LONGITUDE
 40
-122.394
  9
$NORTHDIRECTION
 40
0.0
  9
$TIMEZONE
 70
-8000
  9
$LIGHTGLYPHDISPLAY
280
1
  9
$TILEMODELIGHTSYNCH
280
1
  9
$CMATERIAL
347
20
  9
$SOLIDHIST
280
0
  9
$SHOWHIST
280
1
  9
$DWFFRAME
280
2
  9
$DGNFRAME
280
2
  9
$REALWORLDSCALE
290
1
  9
$INTERFERECOLOR
 62
256
  9
$CSHADOW
280
0
  9
$SHADOWPLANELOCATION
 40
0.0
  0
ENDSEC
  0
SECTION
  2
CLASSES
  0
CLASS
  1
ACDBDICTIONARYWDFLT
  2
AcDbDictionaryWithDefault
  3
ObjectDBX Classes
 90
0
 91
0
280
0
281
0
  0
CLASS
  1
SUN
  2
AcDbSun
  3
SCENEOE
 90
1153
 91
0
280
0
281
0
  0
CLASS
  1
VISUALSTYLE
  2
AcDbVisualStyle
  3
ObjectDBX Classes
 90
4095
 91
0
280
0
281
0
  0
CLASS
  1
MATERIAL
  2
AcDbMaterial
  3
ObjectDBX Classes
 90
1153
 91
0
280
0
281
0
  0
CLASS
  1
SCALE
  2
AcDbScale
  3
ObjectDBX Classes
 90
1153
 91
0
280
0
281
0
  0
CLASS
  1
TABLESTYLE
  2
AcDbTableStyle
  3
ObjectDBX Classes
 90
4095
 91
0
280
0
281
0
  0
CLASS
  1
MLEADERSTYLE
  2
AcDbMLeaderStyle
  3
ACDB_MLEADERSTYLE_CLASS
 90
4095
 91
0
280
0
281
0
  0
CLASS
  1
DICTIONARYVAR
  2
AcDbDictionaryVar
  3
ObjectDBX Classes
 90
0
 91
0
280
0
281
0
  0
CLASS
  1
CELLSTYLEMAP
  2
AcDbCellStyleMap
  3
ObjectDBX Classes
 90
1152
 91
0
280
0
281
0
  0
CLASS
  1
MENTALRAYRENDERSETTINGS
  2
AcDbMentalRayRenderSettings
  3
SCENEOE
 90
1024
 91
0
280
0
281
0
  0
CLASS
  1
ACDBDETAILVIEWSTYLE
  2
AcDbDetailViewStyle
  3
ObjectDBX Classes
 90
1025
 91
0
280
0
281
0
  0
CLASS
  1
ACDBSECTIONVIEWSTYLE
  2
AcDbSectionViewStyle
  3
ObjectDBX Classes
 90
1025
 91
0
280
0
281
0
  0
CLASS
  1
RASTERVARIABLES
  2
AcDbRasterVariables
  3
ISM
 90
0
 91
0
280
0
281
0
  0
CLASS
  1
LAYOUT
  2
AcDbLayout
  3
ObjectDBX Classes
 90
0
 91
0
280
0
281
0
  0
CLASS
  1
ACDBPLACEHOLDER
  2
AcDbPlaceHolder
  3
ObjectDBX Classes
 90
0
 91
0
280
0
281
0
  0
ENDSEC
  0
SECTION
  2
TABLES
  0
TABLE
  2
VPORT
  5
8
330
0
100
AcDbSymbolTable
 70
1
  0
VPORT
  5
23
330
8
100
AcDbSymbolTableRecord
100
AcDbViewportTableRecord
  2
*Active
 70
0
 10
0.0
 20
0.0
 11
1.0
 21
1.0
 12
0.0
 22
0.0
 13
0.0
 23
0.0
 14
0.5
 24
0.5
 15
0.5
 25
0.5
 16
0.0
 26
0.0
 36
1.0
 17
0.0
 27
0.0
 37
0.0
 40
1000.0
 41
1.34
 42
50.0
 43
0.0
 44
0.0
 50
0.0
 51
0.0
 71
0
 72
1000
 73
1
 74
3
 75
0
 76
0
 77
0
 78
0
281
0
 65
0
146
0.0
  0
ENDTAB
  0
TABLE
  2
LTYPE
  5
2
330
0
100
AcDbSymbolTable
 70
21
  0
LTYPE
  5
24
330
2
100
AcDbSymbolTableRecord
100
AcDbLinetypeTableRecord
  2
ByBlock
 70
0
  3

 72
65
 73
0
 40
0.0
  0
LTYPE
  5
25
330
2
100
AcDbSymbolTableRecord
100
AcDbLinetypeTableRecord
  2
ByLayer
 70
0
  3

 72
65
 73
0
 40
0.0
  0
LTYPE
  5
26
330
2
100
AcDbSymbolTableRecord
100
AcDbLinetypeTableRecord
  2
Continuous
 70
0
  3

 72
65
 73
0
 40
0.0
  0
LTYPE
  5
2F
330
2
100
AcDbSymbolTableRecord
100
AcDbLinetypeTableRecord
  2
CENTER
 70
0
  3
Center ____ _ ____ _ ____ _ ____ _ ____ _ ____
 72
65
 73
4
 40
5.08
 49
3.175
 74
0
 49
-0.635
 74
0
 49
0.635
 74
0
 49
-0.635
 74
0
  0
LTYPE
  5
30
330
2
100
AcDbSymbolTableRecord
100
AcDbLinetypeTableRecord
  2
CENTERX2
 70
0
  3
Center (2x) ________  __  ________  __  ________
 72
65
 73
4
 40
8.89
 49
6.35
 74
0
 49
-0.635
 74
0
 49
1.27
 74
0
 49
-0.635
 74
0
  0
LTYPE
  5
31
330
2
100
AcDbSymbolTableRecord
100
AcDbLinetypeTableRecord
  2
CENTER2
 70
0
  3
Center (.5x) ____ _ ____ _ ____ _ ____ _ ____
 72
65
 73
4
 40
2.54
 49
1.587
 74
0
 49
-0.318
 74
0
 49
0.318
 74
0
 49
-0.318
 74
0
  0
LTYPE
  5
32
330
2
100
AcDbSymbolTableRecord
100
AcDbLinetypeTableRecord
  2
DASHED
 70
0
  3
Dashed __ __ __ __ __ __ __ __ __ __ __ __ __ _
 72
65
 73
2
 40
1.524
 49
1.27
 74
0
 49
-0.254
 74
0
  0
LTYPE
  5
33
330
2
100
AcDbSymbolTableRecord
100
AcDbLinetypeTableRecord
  2
DASHEDX2
 70
0
  3
Dashed (2x) ____  ____  ____  ____  ____  ____
 72
65
 73
2
 40
3.048
 49
2.54
 74
0
 49
-0.508
 74
0
  0
LTYPE
  5
34
330
2
100
AcDbSymbolTableRecord
100
AcDbLinetypeTableRecord
  2
DASHED2
 70
0
  3
Dashed (.5x) _ _ _ _ _ _ _ _ _ _ _ _ _ _
 72
65
 73
2
 40
0.762
 49
0.635
 74
0
 49
-0.127
 74
0
  0
LTYPE
  5
35
330
2
100
AcDbSymbolTableRecord
100
AcDbLinetypeTableRecord
  2
PHANTOM
 70
0
  3
Phantom ______  __  __  ______  __  __  ______
 72
65
 73
6
 40
6.35
 49
3.175
 74
0
 49
-0.635
 74
0
 49
0.635
 74
0
 49
-0.635
 74
0
 49
0.635
 74
0
 49
-0.635
 74
0
  0
LTYPE
  5
36
330
2
100
AcDbSymbolTableRecord
100
AcDbLinetypeTableRecord
  2
PHANTOMX2
 70
0
  3
Phantom (2x)____________    ____    ____    ____________
 72
65
 73
6
 40
10.795
 49
6.35
 74
0
 49
-0.635
 74
0
 49
1.27
 74
0
 49
-0.635
 74
0
 49
1.27
 74
0
 49
-0.635
 74
0
  0
LTYPE
  5
37
330
2
100
AcDbSymbolTableRecord
100
AcDbLinetypeTableRecord
  2
PHANTOM2
 70
0
  3
Phantom (.5x) ___ _ _ ___ _ _ ___ _ _ ___ _ _ ___
 72
65
 73
6
 40
3.175
 49
1.587
 74
0
 49
-0.318
 74
0
 49
0.318
 74
0
 49
-0.318
 74
0
 49
0.318
 74
0
 49
-0.318
 74
0
  0
LTYPE
  5
38
330
2
100
AcDbSymbolTableRecord
100
AcDbLinetypeTableRecord
  2
DASHDOT
 70
0
  3
Dash dot __ . __ . __ . __ . __ . __ . __ . __
 72
65
 73
4
 40
3.556
 49
2.54
 74
0
 49
-0.508
 74
0
 49
0.0
 74
0
 49
-0.508
 74
0
  0
LTYPE
  5
39
330
2
100
AcDbSymbolTableRecord
100
AcDbLinetypeTableRecord
  2
DASHDOTX2
 70
0
  3
Dash dot (2x) ____  .  ____  .  ____  .  ____
 72
65
 73
4
 40
6.096
 49
5.08
 74
0
 49
-0.508
 74
0
 49
0.0
 74
0
 49
-0.508
 74
0
  0
LTYPE
  5
3A
330
2
100
AcDbSymbolTableRecord
100
AcDbLinetypeTableRecord
  2
DASHDOT2
 70
0
  3
Dash dot (.5x) _ . _ . _ . _ . _ . _ . _ . _
 72
65
 73
4
 40
1.778
 49
1.27
 74
0
 49
-0.254
 74
0
 49
0.0
 74
0
 49
-0.254
 74
0
  0
LTYPE
  5
3B
330
2
100
AcDbSymbolTableRecord
100
AcDbLinetypeTableRecord
  2
DOT
 70
0
  3
Dot .  .  .  .  .  .  .  .  .  .  .  .  .  .  .  .
 72
65
 73
2
 40
0.508
 49
0.0
 74
0
 49
-0.508
 74
0
  0
LTYPE
  5
3C
330
2
100
AcDbSymbolTableRecord
100
AcDbLinetypeTableRecord
  2
DOTX2
 70
0
  3
Dot (2x) .    .    .    .    .    .    .    . 
 72
65
 73
2
 40
1.016
 49
0.0
 74
0
 49
-1.016
 74
0
  0
LTYPE
  5
3D
330
2
100
AcDbSymbolTableRecord
100
AcDbLinetypeTableRecord
  2
DOT2
 70
0
  3
Dot (.5) . . . . . . . . . . . . . . . . . . . 
 72
65
 73
2
 40
0.254
 49
0.0
 74
0
 49
-0.254
 74
0
  0
LTYPE
  5
3E
330
2
100
AcDbSymbolTableRecord
100
AcDbLinetypeTableRecord
  2
DIVIDE
 70
0
  3
Divide __ . . __ . . __ . . __ . . __ . . __
 72
65
 73
6
 40
4.064
 49
2.54
 74
0
 49
-0.508
 74
0
 49
0.0
 74
0
 49
-0.508
 74
0
 49
0.0
 74
0
 49
-0.508
 74
0
  0
LTYPE
  5
3F
330
2
100
AcDbSymbolTableRecord
100
AcDbLinetypeTableRecord
  2
DIVIDEX2
 70
0
  3
Divide (2x) ____  . .  ____  . .  ____  . .  ____
 72
65
 73
6
 40
6.604
 49
5.08
 74
0
 49
-0.508
 74
0
 49
0.0
 74
0
 49
-0.508
 74
0
 49
0.0
 74
0
 49
-0.508
 74
0
  0
LTYPE
  5
40
330
2
100
AcDbSymbolTableRecord
100
AcDbLinetypeTableRecord
  2
DIVIDE2
 70
0
  3
Divide(.5x) _ . _ . _ . _ . _ . _ . _ . _
 72
65
 73
6
 40
2.032
 49
1.27
 74
0
 49
-0.254
 74
0
 49
0.0
 74
0
 49
-0.254
 74
0
 49
0.0
 74
0
 49
-0.254
 74
0
  0
ENDTAB
  0
TABLE
  2
LAYER
  5
1
330
0
100
AcDbSymbolTable
 70
13
  0
LAYER
  5
27
330
1
100
AcDbSymbolTableRecord
100
AcDbLayerTableRecord
  2
0
 70
0
 62
7
  6
Continuous
370
-3
390
13
347
21
  0
LAYER
  5
28
330
1
100
AcDbSymbolTableRecord
100
AcDbLayerTableRecord
  2
Defpoints
 70
0
 62
7
  6
Continuous
290
0
370
-3
390
13
347
21
  0
LAYER
  5
8A
330
1
100
AcDbSymbolTableRecord
100
AcDbLayerTableRecord
  2
CONSTRUCCION
 70
0
 62
8
  6
Continuous
370
-3
390
13
347
21
  0
LAYER
  5
8B
330
1
100
AcDbSymbolTableRecord
100
AcDbLayerTableRecord
  2
CORTE
 70
0
 62
1
  6
Continuous
370
-3
390
13
347
21
  0
LAYER
  5
8C
330
1
100
AcDbSymbolTableRecord
100
AcDbLayerTableRecord
  2
COSTURA
 70
0
 62
3
  6
Continuous
370
-3
390
13
347
21
  0
LAYER
  5
8D
330
1
100
AcDbSymbolTableRecord
100
AcDbLayerTableRecord
  2
PIQUETES
 70
0
 62
4
  6
Continuous
370
-3
390
13
347
21
  0
LAYER
  5
8E
330
1
100
AcDbSymbolTableRecord
100
AcDbLayerTableRecord
  2
TEXTOS
 70
0
 62
7
  6
Continuous
370
-3
390
13
347
21
  0
LAYER
  5
8F
330
1
100
AcDbSymbolTableRecord
100
AcDbLayerTableRecord
  2
CENTROS
 70
0
 62
5
  6
Continuous
370
-3
390
13
347
21
  0
LAYER
  5
90
330
1
100
AcDbSymbolTableRecord
100
AcDbLayerTableRecord
  2
HILO
 70
0
 62
2
  6
Continuous
370
-3
390
13
347
21
  0
LAYER
  5
91
330
1
100
AcDbSymbolTableRecord
100
AcDbLayerTableRecord
  2
DOBLEZ
 70
0
 62
6
  6
Continuous
370
-3
390
13
347
21
  0
LAYER
  5
92
330
1
100
AcDbSymbolTableRecord
100
AcDbLayerTableRecord
  2
BOTONES
 70
0
 62
30
  6
Continuous
370
-3
390
13
347
21
  0
LAYER
  5
93
330
1
100
AcDbSymbolTableRecord
100
AcDbLayerTableRecord
  2
OJAL
 70
0
 62
200
  6
Continuous
370
-3
390
13
347
21
  0
LAYER
  5
94
330
1
100
AcDbSymbolTableRecord
100
AcDbLayerTableRecord
  2
REFERENCIAS
 70
0
 62
9
  6
Continuous
370
-3
390
13
347
21
  0
ENDTAB
  0
TABLE
  2
STYLE
  5
5
330
0
100
AcDbSymbolTable
 70
26
  0
STYLE
  5
29
330
5
100
AcDbSymbolTableRecord
100
AcDbTextStyleTableRecord
  2
Standard
 70
0
 40
0.0
 41
1.0
 50
0.0
 71
0
 42
2.5
  3
txt
  4

  0
STYLE
  5
41
330
5
100
AcDbSymbolTableRecord
100
AcDbTextStyleTableRecord
  2
OpenSans-Light
 70
0
 40
0.0
 41
1.0
 50
0.0
 71
0
 42
2.5
  3
OpenSans-Light.ttf
  4

  0
STYLE
  5
42
330
5
100
AcDbSymbolTableRecord
100
AcDbTextStyleTableRecord
  2
OpenSans-Light-Italic
 70
0
 40
0.0
 41
1.0
 50
0.0
 71
0
 42
2.5
  3
OpenSans-LightItalic.ttf
  4

  0
STYLE
  5
43
330
5
100
AcDbSymbolTableRecord
100
AcDbTextStyleTableRecord
  2
OpenSans
 70
0
 40
0.0
 41
1.0
 50
0.0
 71
0
 42
2.5
  3
OpenSans-Regular.ttf
  4

  0
STYLE
  5
44
330
5
100
AcDbSymbolTableRecord
100
AcDbTextStyleTableRecord
  2
OpenSans-Italic
 70
0
 40
0.0
 41
1.0
 50
0.0
 71
0
 42
2.5
  3
OpenSans-Italic.ttf
  4

  0
STYLE
  5
45
330
5
100
AcDbSymbolTableRecord
100
AcDbTextStyleTableRecord
  2
OpenSans-SemiBold
 70
0
 40
0.0
 41
1.0
 50
0.0
 71
0
 42
2.5
  3
OpenSans-SemiBold.ttf
  4

  0
STYLE
  5
46
330
5
100
AcDbSymbolTableRecord
100
AcDbTextStyleTableRecord
  2
OpenSans-SemiBoldItalic
 70
0
 40
0.0
 41
1.0
 50
0.0
 71
0
 42
2.5
  3
OpenSans-SemiBoldItalic.ttf
  4

  0
STYLE
  5
47
330
5
100
AcDbSymbolTableRecord
100
AcDbTextStyleTableRecord
  2
OpenSans-Bold
 70
0
 40
0.0
 41
1.0
 50
0.0
 71
0
 42
2.5
  3
OpenSans-Bold.ttf
  4

  0
STYLE
  5
48
330
5
100
AcDbSymbolTableRecord
100
AcDbTextStyleTableRecord
  2
OpenSans-BoldItalic
 70
0
 40
0.0
 41
1.0
 50
0.0
 71
0
 42
2.5
  3
OpenSans-BoldItalic.ttf
  4

  0
STYLE
  5
49
330
5
100
AcDbSymbolTableRecord
100
AcDbTextStyleTableRecord
  2
OpenSans-ExtraBold
 70
0
 40
0.0
 41
1.0
 50
0.0
 71
0
 42
2.5
  3
OpenSans-ExtraBold.ttf
  4

  0
STYLE
  5
4A
330
5
100
AcDbSymbolTableRecord
100
AcDbTextStyleTableRecord
  2
OpenSans-ExtraBoldItalic
 70
0
 40
0.0
 41
1.0
 50
0.0
 71
0
 42
2.5
  3
OpenSans-ExtraBoldItalic.ttf
  4

  0
STYLE
  5
4B
330
5
100
AcDbSymbolTableRecord
100
AcDbTextStyleTableRecord
  2
OpenSansCondensed-Bold
 70
0
 40
0.0
 41
1.0
 50
0.0
 71
0
 42
2.5
  3
OpenSansCondensed-Bold.ttf
  4

  0
STYLE
  5
4C
330
5
100
AcDbSymbolTableRecord
100
AcDbTextStyleTableRecord
  2
OpenSansCondensed-Light
 70
0
 40
0.0
 41
1.0
 50
0.0
 71
0
 42
2.5
  3
OpenSansCondensed-Light.ttf
  4

  0
STYLE
  5
4D
330
5
100
AcDbSymbolTableRecord
100
AcDbTextStyleTableRecord
  2
OpenSansCondensed-Italic
 70
0
 40
0.0
 41
1.0
 50
0.0
 71
0
 42
2.5
  3
OpenSansCondensed-LightItalic.ttf
  4

  0
STYLE
  5
4E
330
5
100
AcDbSymbolTableRecord
100
AcDbTextStyleTableRecord
  2
LiberationSans
 70
0
 40
0.0
 41
1.0
 50
0.0
 71
0
 42
2.5
  3
LiberationSans-Regular.ttf
  4

  0
STYLE
  5
4F
330
5
100
AcDbSymbolTableRecord
100
AcDbTextStyleTableRecord
  2
LiberationSans-Bold
 70
0
 40
0.0
 41
1.0
 50
0.0
 71
0
 42
2.5
  3
LiberationSans-Bold.ttf
  4

  0
STYLE
  5
50
330
5
100
AcDbSymbolTableRecord
100
AcDbTextStyleTableRecord
  2
LiberationSans-BoldItalic
 70
0
 40
0.0
 41
1.0
 50
0.0
 71
0
 42
2.5
  3
LiberationSans-BoldItalic.ttf
  4

  0
STYLE
  5
51
330
5
100
AcDbSymbolTableRecord
100
AcDbTextStyleTableRecord
  2
LiberationSans-Italic
 70
0
 40
0.0
 41
1.0
 50
0.0
 71
0
 42
2.5
  3
LiberationSans-Italic.ttf
  4

  0
STYLE
  5
52
330
5
100
AcDbSymbolTableRecord
100
AcDbTextStyleTableRecord
  2
LiberationSerif
 70
0
 40
0.0
 41
1.0
 50
0.0
 71
0
 42
2.5
  3
LiberationSerif-Regular.ttf
  4

  0
STYLE
  5
53
330
5
100
AcDbSymbolTableRecord
100
AcDbTextStyleTableRecord
  2
LiberationSerif-Bold
 70
0
 40
0.0
 41
1.0
 50
0.0
 71
0
 42
2.5
  3
LiberationSerif-Bold.ttf
  4

  0
STYLE
  5
54
330
5
100
AcDbSymbolTableRecord
100
AcDbTextStyleTableRecord
  2
LiberationSerif-BoldItalic
 70
0
 40
0.0
 41
1.0
 50
0.0
 71
0
 42
2.5
  3
LiberationSerif-BoldItalic.ttf
  4

  0
STYLE
  5
55
330
5
100
AcDbSymbolTableRecord
100
AcDbTextStyleTableRecord
  2
LiberationSerif-Italic
 70
0
 40
0.0
 41
1.0
 50
0.0
 71
0
 42
2.5
  3
LiberationSerif-Italic.ttf
  4

  0
STYLE
  5
56
330
5
100
AcDbSymbolTableRecord
100
AcDbTextStyleTableRecord
  2
LiberationMono
 70
0
 40
0.0
 41
1.0
 50
0.0
 71
0
 42
2.5
  3
LiberationMono-Regular.ttf
  4

  0
STYLE
  5
57
330
5
100
AcDbSymbolTableRecord
100
AcDbTextStyleTableRecord
  2
LiberationMono-Bold
 70
0
 40
0.0
 41
1.0
 50
0.0
 71
0
 42
2.5
  3
LiberationMono-Bold.ttf
  4

  0
STYLE
  5
58
330
5
100
AcDbSymbolTableRecord
100
AcDbTextStyleTableRecord
  2
LiberationMono-BoldItalic
 70
0
 40
0.0
 41
1.0
 50
0.0
 71
0
 42
2.5
  3
LiberationMono-BoldItalic.ttf
  4

  0
STYLE
  5
59
330
5
100
AcDbSymbolTableRecord
100
AcDbTextStyleTableRecord
  2
LiberationMono-Italic
 70
0
 40
0.0
 41
1.0
 50
0.0
 71
0
 42
2.5
  3
LiberationMono-Italic.ttf
  4

  0
ENDTAB
  0
TABLE
  2
VIEW
  5
7
330
0
100
AcDbSymbolTable
 70
0
  0
ENDTAB
  0
TABLE
  2
UCS
  5
6
330
0
100
AcDbSymbolTable
 70
0
  0
ENDTAB
  0
TABLE
  2
APPID
  5
3
330
0
100
AcDbSymbolTable
 70
3
  0
APPID
  5
2A
330
3
100
AcDbSymbolTableRecord
100
AcDbRegAppTableRecord
  2
ACAD
 70
0
  0
APPID
  5
134
330
3
100
AcDbSymbolTableRecord
100
AcDbRegAppTableRecord
  2
HATCHBACKGROUNDCOLOR
 70
0
  0
APPID
  5
135
330
3
100
AcDbSymbolTableRecord
100
AcDbRegAppTableRecord
  2
EZDXF
 70
0
  0
ENDTAB
  0
TABLE
  2
DIMSTYLE
  5
4
330
0
100
AcDbSymbolTable
 70
12
100
AcDbDimStyleTable
  0
DIMSTYLE
105
2B
330
4
100
AcDbSymbolTableRecord
100
AcDbDimStyleTableRecord
  2
Standard
 70
0
 40
1.0
 41
2.5
 42
0.625
 43
3.75
 44
1.25
 45
0.0
 46
0.0
 47
0.0
 48
0.0
 49
2.5
140
2.5
141
2.5
142
0.0
143
0.03937007874
144
1.0
145
0.0
146
1.0
147
0.625
148
0.0
 69
0
 70
0
 71
0
 72
0
 73
0
 74
0
 75
0
 76
0
 77
1
 78
8
 79
3
170
0
171
3
172
1
173
0
174
0
175
0
176
0
177
0
178
0
179
2
271
2
272
2
273
2
274
3
275
0
276
0
277
2
278
44
279
0
280
0
281
0
282
0
283
0
284
8
285
0
286
0
288
0
289
3
290
0
371
-2
372
-2
  0
DIMSTYLE
105
73
330
4
100
AcDbSymbolTableRecord
100
AcDbDimStyleTableRecord
  2
EZDXF
 70
0
 40
1.0
 41
0.175
 42
0.125
 43
3.75
 44
0.375
 45
0.0
 46
0.0
 47
0.0
 48
0.0
 49
2.5
140
0.25
141
2.5
142
0.0
143
0.03937007874
144
100.0
145
0.0
146
0.5
147
0.1
148
0.0
 69
0
 70
0
 71
0
 72
0
 73
0
 74
0
 75
0
 76
0
 77
1
 78
12
 79
3
170
0
171
3
172
1
173
0
174
0
175
0
176
0
177
0
178
0
179
2
271
2
272
2
273
2
274
3
275
0
276
0
277
2
278
46
279
2
280
0
281
0
282
0
283
0
284
8
285
0
286
0
288
1
289
3
290
0
340
4C
342
74
371
-2
372
-2
  0
DIMSTYLE
105
7C
330
4
100
AcDbSymbolTableRecord
100
AcDbDimStyleTableRecord
  2
EZ_M_100_H25_CM
 70
0
 40
1.0
 41
0.25
 42
0.125
 43
3.75
 44
0.375
 45
0.0
 46
0.0
 47
0.0
 48
0.0
 49
2.5
140
0.25
141
2.5
142
0.125
143
0.03937007874
144
100.0
145
0.0
146
0.5
147
0.1
148
0.0
 69
0
 70
0
 71
0
 72
0
 73
0
 74
0
 75
0
 76
0
 77
1
 78
12
 79
3
170
0
171
3
172
1
173
0
174
0
175
0
176
0
177
0
178
0
179
2
271
2
272
2
273
2
274
3
275
0
276
0
277
2
278
46
279
2
280
0
281
0
282
0
283
0
284
8
285
0
286
0
288
1
289
3
290
0
340
4C
371
-2
372
-2
  0
DIMSTYLE
105
7D
330
4
100
AcDbSymbolTableRecord
100
AcDbDimStyleTableRecord
  2
EZ_M_50_H25_CM
 70
0
 40
1.0
 41
0.125
 42
0.0625
 43
3.75
 44
0.1875
 45
0.0
 46
0.0
 47
0.0
 48
0.0
 49
2.5
140
0.125
141
2.5
142
0.0625
143
0.03937007874
144
100.0
145
0.0
146
0.5
147
0.05
148
0.0
 69
0
 70
0
 71
0
 72
0
 73
0
 74
0
 75
0
 76
0
 77
1
 78
12
 79
3
170
0
171
3
172
1
173
0
174
0
175
0
176
0
177
0
178
0
179
2
271
2
272
2
273
2
274
3
275
0
276
0
277
2
278
46
279
2
280
0
281
0
282
0
283
0
284
8
285
0
286
0
288
1
289
3
290
0
340
4C
371
-2
372
-2
  0
DIMSTYLE
105
7E
330
4
100
AcDbSymbolTableRecord
100
AcDbDimStyleTableRecord
  2
EZ_M_25_H25_CM
 70
0
 40
1.0
 41
0.0625
 42
0.03125
 43
3.75
 44
0.09375
 45
0.0
 46
0.0
 47
0.0
 48
0.0
 49
2.5
140
0.0625
141
2.5
142
0.03125
143
0.03937007874
144
100.0
145
0.0
146
0.5
147
0.025
148
0.0
 69
0
 70
0
 71
0
 72
0
 73
0
 74
0
 75
0
 76
0
 77
1
 78
12
 79
3
170
0
171
3
172
1
173
0
174
0
175
0
176
0
177
0
178
0
179
2
271
2
272
2
273
2
274
3
275
0
276
0
277
2
278
46
279
2
280
0
281
0
282
0
283
0
284
8
285
0
286
0
288
1
289
3
290
0
340
4C
371
-2
372
-2
  0
DIMSTYLE
105
7F
330
4
100
AcDbSymbolTableRecord
100
AcDbDimStyleTableRecord
  2
EZ_M_20_H25_CM
 70
0
 40
1.0
 41
0.05
 42
0.025
 43
3.75
 44
0.07500000000000001
 45
0.0
 46
0.0
 47
0.0
 48
0.0
 49
2.5
140
0.05
141
2.5
142
0.025
143
0.03937007874
144
100.0
145
0.0
146
0.5
147
0.020000000000000004
148
0.0
 69
0
 70
0
 71
0
 72
0
 73
0
 74
0
 75
0
 76
0
 77
1
 78
12
 79
3
170
0
171
3
172
1
173
0
174
0
175
0
176
0
177
0
178
0
179
2
271
2
272
2
273
2
274
3
275
0
276
0
277
2
278
46
279
2
280
0
281
0
282
0
283
0
284
8
285
0
286
0
288
1
289
3
290
0
340
4C
371
-2
372
-2
  0
DIMSTYLE
105
80
330
4
100
AcDbSymbolTableRecord
100
AcDbDimStyleTableRecord
  2
EZ_M_10_H25_CM
 70
0
 40
1.0
 41
0.025
 42
0.0125
 43
3.75
 44
0.037500000000000006
 45
0.0
 46
0.0
 47
0.0
 48
0.0
 49
2.5
140
0.025
141
2.5
142
0.0125
143
0.03937007874
144
100.0
145
0.0
146
0.5
147
0.010000000000000002
148
0.0
 69
0
 70
0
 71
0
 72
0
 73
0
 74
0
 75
0
 76
0
 77
1
 78
12
 79
3
170
0
171
3
172
1
173
0
174
0
175
0
176
0
177
0
178
0
179
2
271
2
272
2
273
2
274
3
275
0
276
0
277
2
278
46
279
2
280
0
281
0
282
0
283
0
284
8
285
0
286
0
288
1
289
3
290
0
340
4C
371
-2
372
-2
  0
DIMSTYLE
105
81
330
4
100
AcDbSymbolTableRecord
100
AcDbDimStyleTableRecord
  2
EZ_M_5_H25_CM
 70
0
 40
1.0
 41
0.0125
 42
0.00625
 43
3.75
 44
0.018750000000000003
 45
0.0
 46
0.0
 47
0.0
 48
0.0
 49
2.5
140
0.0125
141
2.5
142
0.00625
143
0.03937007874
144
100.0
145
0.0
146
0.5
147
0.005000000000000001
148
0.0
 69
0
 70
0
 71
0
 72
0
 73
0
 74
0
 75
0
 76
0
 77
1
 78
12
 79
3
170
0
171
3
172
1
173
0
174
0
175
0
176
0
177
0
178
0
179
2
271
2
272
2
273
2
274
3
275
0
276
0
277
2
278
46
279
2
280
0
281
0
282
0
283
0
284
8
285
0
286
0
288
1
289
3
290
0
340
4C
371
-2
372
-2
  0
DIMSTYLE
105
82
330
4
100
AcDbSymbolTableRecord
100
AcDbDimStyleTableRecord
  2
EZ_M_1_H25_CM
 70
0
 40
1.0
 41
0.0025
 42
0.00125
 43
3.75
 44
0.00375
 45
0.0
 46
0.0
 47
0.0
 48
0.0
 49
2.5
140
0.0025
141
2.5
142
0.00125
143
0.03937007874
144
100.0
145
0.0
146
0.5
147
0.001
148
0.0
 69
0
 70
0
 71
0
 72
0
 73
0
 74
0
 75
0
 76
0
 77
1
 78
12
 79
3
170
0
171
3
172
1
173
0
174
0
175
0
176
0
177
0
178
0
179
2
271
2
272
2
273
2
274
3
275
0
276
0
277
2
278
46
279
2
280
0
281
0
282
0
283
0
284
8
285
0
286
0
288
1
289
3
290
0
340
4C
371
-2
372
-2
  0
DIMSTYLE
105
83
330
4
100
AcDbSymbolTableRecord
100
AcDbDimStyleTableRecord
  2
EZ_RADIUS
 70
0
 40
1.0
 41
0.25
 42
0.125
 43
3.75
 44
0.375
 45
0.0
 46
0.0
 47
0.0
 48
0.0
 49
2.5
140
0.25
141
0.0
142
0.0
143
0.03937007874
144
100.0
145
0.0
146
0.5
147
0.1
148
0.0
 69
0
 70
0
 71
0
 72
0
 73
0
 74
0
 75
0
 76
0
 77
1
 78
12
 79
3
170
0
171
3
172
0
173
0
174
0
175
0
176
0
177
0
178
0
179
2
271
2
272
2
273
2
274
3
275
0
276
0
277
2
278
46
279
1
280
0
281
0
282
0
283
0
284
8
285
0
286
0
288
1
289
3
290
0
340
4C
342
84
371
-2
372
-2
  0
DIMSTYLE
105
88
330
4
100
AcDbSymbolTableRecord
100
AcDbDimStyleTableRecord
  2
EZ_RADIUS_INSIDE
 70
0
 40
1.0
 41
0.25
 42
0.125
 43
3.75
 44
0.375
 45
0.0
 46
0.0
 47
0.0
 48
0.0
 49
2.5
140
0.25
141
0.0
142
0.0
143
0.03937007874
144
100.0
145
0.0
146
0.5
147
0.1
148
0.0
 69
0
 70
0
 71
0
 72
0
 73
0
 74
0
 75
0
 76
0
 77
0
 78
12
 79
3
170
0
171
3
172
0
173
0
174
1
175
0
176
0
177
0
178
0
179
2
271
2
272
2
273
2
274
3
275
0
276
0
277
2
278
46
279
0
280
0
281
0
282
0
283
0
284
8
285
0
286
0
288
1
289
0
290
0
340
4C
342
84
371
-2
372
-2
  0
DIMSTYLE
105
89
330
4
100
AcDbSymbolTableRecord
100
AcDbDimStyleTableRecord
  2
EZ_CURVED
 70
0
 40
1.0
 41
0.25
 42
0.125
 43
3.75
 44
0.375
 45
0.0
 46
0.0
 47
0.0
 48
0.0
 49
2.5
140
0.25
141
2.5
142
0.0
143
0.03937007874
144
100.0
145
0.0
146
0.5
147
0.1
148
0.0
 69
0
 70
0
 71
0
 72
0
 73
0
 74
0
 75
0
 76
0
 77
1
 78
12
 79
2
 90
2
170
0
171
3
172
1
173
0
174
0
175
0
176
0
177
0
178
0
179
2
271
2
272
2
273
2
274
3
275
0
276
0
277
2
278
46
279
2
280
0
281
0
282
0
283
0
284
8
285
0
286
0
288
1
289
3
290
0
340
4C
371
-2
372
-2
  0
ENDTAB
  0
TABLE
  2
BLOCK_RECORD
  5
9
330
0
100
AcDbSymbolTable
 70
5
  0
BLOCK_RECORD
  5
17
330
9
100
AcDbSymbolTableRecord
100
AcDbBlockTableRecord
  2
*Model_Space
340
1A
 70
0
280
1
281
0
  0
BLOCK_RECORD
  5
1B
330
9
100
AcDbSymbolTableRecord
100
AcDbBlockTableRecord
  2
*Paper_Space
340
1E
 70
0
280
1
281
0
  0
BLOCK_RECORD
  5
74
330
9
100
AcDbSymbolTableRecord
100
AcDbBlockTableRecord
  2
_ARCHTICK
340
0
 70
0
280
1
281
0
  0
BLOCK_RECORD
  5
78
330
9
100
AcDbSymbolTableRecord
100
AcDbBlockTableRecord
  2
_CLOSEDFILLED
340
0
 70
0
280
1
281
0
  0
BLOCK_RECORD
  5
84
330
9
100
AcDbSymbolTableRecord
100
AcDbBlockTableRecord
  2
_CLOSEDBLANK
340
0
 70
0
280
1
281
0
  0
ENDTAB
  0
ENDSEC
  0
SECTION
  2
BLOCKS
  0
BLOCK
  5
18
330
17
100
AcDbEntity
  8
0
100
AcDbBlockBegin
  2
*Model_Space
 70
0
 10
0.0
 20
0.0
 30
0.0
  3
*Model_Space
  1

  0
ENDBLK
  5
19
330
17
100
AcDbEntity
  8
0
100
AcDbBlockEnd
  0
BLOCK
  5
1C
330
1B
100
AcDbEntity
  8
0
100
AcDbBlockBegin
  2
*Paper_Space
 70
0
 10
0.0
 20
0.0
 30
0.0
  3
*Paper_Space
  1

  0
ENDBLK
  5
1D
330
1B
100
AcDbEntity
  8
0
100
AcDbBlockEnd
  0
BLOCK
  5
75
330
74
100
AcDbEntity
  8
0
100
AcDbBlockBegin
  2
_ARCHTICK
 70
0
 10
0.0
 20
0.0
 30
0.0
  3
_ARCHTICK
  1

  0
LWPOLYLINE
  5
77
330
74
100
AcDbEntity
  8
0
  6
BYBLOCK
 62
0
100
AcDbPolyline
 90
2
 70
0
 43
0.15
 10
-0.5
 20
-0.5
 10
0.5
 20
0.5
  0
ENDBLK
  5
76
330
74
100
AcDbEntity
  8
0
100
AcDbBlockEnd
  0
BLOCK
  5
79
330
78
100
AcDbEntity
  8
0
100
AcDbBlockBegin
  2
_CLOSEDFILLED
 70
0
 10
0.0
 20
0.0
 30
0.0
  3
_CLOSEDFILLED
  1

  0
SOLID
  5
7B
330
78
100
AcDbEntity
  8
0
  6
BYBLOCK
 62
0
100
AcDbTrace
 10
-1.0
 20
0.16439898372402537
 30
0.0
 11
0.0
 21
0.0
 31
0.0
 12
-1.0
 22
-0.16439898372402537
 32
0.0
 13
-1.0
 23
-0.16439898372402537
 33
0.0
  0
ENDBLK
  5
7A
330
78
100
AcDbEntity
  8
0
100
AcDbBlockEnd
  0
BLOCK
  5
85
330
84
100
AcDbEntity
  8
0
100
AcDbBlockBegin
  2
_CLOSEDBLANK
 70
0
 10
0.0
 20
0.0
 30
0.0
  3
_CLOSEDBLANK
  1

  0
LWPOLYLINE
  5
87
330
84
100
AcDbEntity
  8
0
  6
BYBLOCK
 62
0
100
AcDbPolyline
 90
3
 70
1
 10
-1.0
 20
0.16439898372402537
 10
0.0
 20
0.0
 10
-1.0
 20
-0.16439898372402537
  0
ENDBLK
  5
86
330
84
100
AcDbEntity
  8
0
100
AcDbBlockEnd
  0
ENDSEC
  0
SECTION
  2
ENTITIES
  0
LWPOLYLINE
  5
95
330
17
100
AcDbEntity
  8
CORTE
100
AcDbPolyline
 90
77
 70
1
 10
-1.0000000000000002
 20
-71.0
 10
27.7
 20
-71.0
 10
27.7
 20
-22.120582
 10
27.082126
 20
-21.42356
 10
26.715066
 20
-21.010231
 10
26.345366
 20
-20.595435
 10
25.972462999999998
 20
-20.179293
 10
25.595492
 20
-19.761595
 10
25.213596
 20
-19.342137
 10
24.825917
 20
-18.92072
 10
24.431618
 20
-18.497166
 10
24.030832999999998
 20
-18.072291
 10
23.627161
 20
-17.648172
 10
23.226499999999998
 20
-17.225699
 10
22.833537
 20
-16.804345
 10
22.452846
 20
-16.383664
 10
22.088994
 20
-15.963429
 10
21.746491
 20
-15.543636
 10
21.429726
 20
-15.12451
 10
21.142864
 20
-14.706487
 10
20.889715
 20
-14.290147
 10
20.673576
 20
-13.876078
 10
20.497071
 20
-13.464555
 10
20.361172
 20
-13.052415
 10
20.26377
 20
-12.631509
 10
20.201655
 20
-12.195929
 10
20.173154999999998
 20
-11.744402
 10
20.176816
 20
-11.276734
 10
20.211097
 20
-10.793354
 10
20.274238999999998
 20
-10.295129
 10
20.364213
 20
-9.783186
 10
20.478741
 20
-9.258777
 10
20.615323
 20
-8.723187
 10
20.771283
 20
-8.177664
 10
20.943814
 20
-7.623397
 10
21.130008999999998
 20
-7.061491
 10
21.32689
 20
-6.492963
 10
21.531427
 20
-5.918739
 10
22.064204999999998
 20
-4.443419
 10
8.469243
 20
1.221149
 10
7.801069
 20
0.336685
 10
7.599692
 20
0.06954
 10
7.3982470000000005
 20
-0.198866
 10
7.19702
 20
-0.468745
 10
6.9963
 20
-0.740316
 10
6.796378
 20
-1.013795
 10
6.597549
 20
-1.289401
 10
6.400112
 20
-1.567357
 10
6.204367
 20
-1.847882
 10
6.010619
 20
-2.131199
 10
5.819175
 20
-2.417531
 10
5.63035
 20
-2.707098
 10
5.444457
 20
-3.000124
 10
5.261977
 20
-3.296566
 10
5.084025
 20
-3.594884
 10
4.91087
 20
-3.892653
 10
4.741668
 20
-4.1886
 10
4.575355
 20
-4.481913
 10
4.410908
 20
-4.77179
 10
4.2473469999999995
 20
-5.057441
 10
4.083736
 20
-5.338086
 10
3.919182
 20
-5.612961
 10
3.7528309999999996
 20
-5.881324
 10
3.583869
 20
-6.142462
 10
3.411512
 20
-6.395703
 10
3.234998
 20
-6.640427
 10
3.053566
 20
-6.876096
 10
2.8655239999999997
 20
-7.103375
 10
2.668078
 20
-7.325254
 10
2.46015
 20
-7.544454
 10
2.242441
 20
-7.761832
 10
2.0159
 20
-7.978071
 10
1.781544
 20
-8.193886
 10
1.54044
 20
-8.410031
 10
1.324711
 20
-8.6
 10
-1.0000000000000002
 20
-8.6
 10
-1.0000000000000002
 20
-71.0
  0
LWPOLYLINE
  5
96
330
17
100
AcDbEntity
  8
COSTURA
100
AcDbPolyline
 90
77
 70
1
 10
0.0
 20
-9.6
 10
1.7
 20
-9.6
 10
1.952913193920786
 20
-9.379267627153437
 10
2.204650490377079
 20
-9.157589616856557
 10
2.45403599190438
 20
-8.934020331659049
 10
2.6998938010381988
 20
-8.707614134110594
 10
2.9410480203140414
 20
-8.477425386760876
 10
3.1763227522674082
 20
-8.242508452159583
 10
3.4045420994338094
 20
-8.001917692856397
 10
3.6245301643487498
 20
-7.754707471401003
 10
3.835237645658011
 20
-7.5000330436073
 10
4.036906265928832
 20
-7.2380785722384555
 10
4.230532205992678
 20
-6.969629500435236
 10
4.417121123396412
 20
-6.695478823993454
 10
4.597678675686898
 20
-6.41641953870893
 10
4.773210520410999
 20
-6.13324464037747
 10
4.944722315115581
 20
-5.846747124794891
 10
5.113219717347505
 20
-5.557719987757008
 10
5.2797083846536355
 20
-5.266956225059632
 10
5.445193974580839
 20
-4.9752488324985755
 10
5.610682144675976
 20
-4.683390805869657
 10
5.777178552485911
 20
-4.392175140968688
 10
5.94568885555751
 20
-4.102394833591482
 10
6.117218566131741
 20
-3.814842766180441
 10
6.292498026835971
 20
-3.5300971608254708
 10
6.4714103285562175
 20
-3.2480752968798523
 10
6.653676021983555
 20
-2.9685676557736347
 10
6.839015657809063
 20
-2.691364718936869
 10
7.027149786723813
 20
-2.4162569677996037
 10
7.217798959418881
 20
-2.14303488379189
 10
7.410683726585345
 20
-1.8714889483437762
 10
7.60552463891428
 20
-1.6014096428853142
 10
7.80204224709676
 20
-1.3325874488465526
 10
7.999957101823861
 20
-1.0648128476575414
 10
8.19898975378666
 20
-0.7978763207483306
 10
8.398860753676233
 20
-0.5315683495489703
 10
8.599290652183655
 20
-0.2656794154895101
 10
8.799999999999999
 20
-0.0
 10
20.8
 20
-5.0
 10
20.590136093891196
 20
-5.581135738671785
 10
20.383388532801646
 20
-6.1615665515875255
 10
20.182873661750616
 20
-6.7405875129911825
 10
19.991707825757356
 20
-7.317493697126713
 10
19.81300736984113
 20
-7.89158017823807
 10
19.649888639021192
 20
-8.462142030569215
 10
19.5054679783168
 20
-9.028474328364107
 10
19.382861732747216
 20
-9.5898721458667
 10
19.28518624733169
 20
-10.145630557320953
 10
19.215557867089487
 20
-10.695044636970819
 10
19.177092937039866
 20
-11.237409459060263
 10
19.172907802202072
 20
-11.772020097833236
 10
19.20611880759538
 20
-12.298171627533703
 10
19.279842298239036
 20
-12.815159122405614
 10
19.3971946191523
 20
-13.322277656692926
 10
19.560946442157135
 20
-13.818886553667479
 10
19.769510200794404
 20
-14.305155186599231
 10
20.018316328343
 20
-14.781807182369528
 10
20.30273731815458
 20
-15.24957693694459
 10
20.618145663580787
 20
-15.70919884629065
 10
20.95991385797327
 20
-16.161407306373924
 10
21.323414394683677
 20
-16.606936713160646
 10
21.704019767063656
 20
-17.046521462617033
 10
22.097102468464858
 20
-17.480895950709314
 10
22.498034992238924
 20
-17.91079457340371
 10
22.90218983173751
 20
-18.33695172666645
 10
23.30493948031225
 20
-18.760101806463755
 10
23.701929844029177
 20
-19.180954339772214
 10
24.09196858945555
 20
-19.59993126712866
 10
24.47589534450991
 20
-20.017269706553915
 10
24.854583250673983
 20
-20.43320372775244
 10
25.228905449429476
 20
-20.847967400428683
 10
25.599735082258118
 20
-21.26179479428711
 10
25.9679452906416
 20
-21.67491997903217
 10
26.334409216061655
 20
-22.08757702436831
 10
26.7
 20
-22.5
 10
26.7
 20
-70.0
 10
0.0
 20
-70.0
  0
LINE
  5
97
330
17
100
AcDbEntity
  8
HILO
100
AcDbLine
 10
14.2
 20
-12.6
 30
0.0
 11
14.2
 21
-67.0
 31
0.0
  0
LINE
  5
98
330
17
100
AcDbEntity
  8
HILO
100
AcDbLine
 10
14.2
 20
-67.0
 30
0.0
 11
14.66730201077038
 21
-65.89472680719653
 31
0.0
  0
LINE
  5
99
330
17
100
AcDbEntity
  8
HILO
100
AcDbLine
 10
14.2
 20
-67.0
 30
0.0
 11
13.732697989229617
 21
-65.89472680719653
 31
0.0
  0
LINE
  5
9A
330
17
100
AcDbEntity
  8
HILO
100
AcDbLine
 10
14.2
 20
-12.6
 30
0.0
 11
13.732697989229619
 21
-13.705273192803462
 31
0.0
  0
LINE
  5
9B
330
17
100
AcDbEntity
  8
HILO
100
AcDbLine
 10
14.2
 20
-12.6
 30
0.0
 11
14.66730201077038
 21
-13.705273192803462
 31
0.0
  0
LINE
  5
9C
330
17
100
AcDbEntity
  8
PIQUETES
100
AcDbLine
 10
19.414647167270658
 20
-11.958844975676753
 30
0.0
 11
19.042067613936503
 21
-12.486845426848266
 31
0.0
  0
LINE
  5
9D
330
17
100
AcDbEntity
  8
PIQUETES
100
AcDbLine
 10
18.9477283586464
 20
-11.847548856459133
 30
0.0
 11
19.042067613936503
 21
-12.486845426848266
 31
0.0
  0
LINE
  5
9E
330
17
100
AcDbEntity
  8
PIQUETES
100
AcDbLine
 10
26.61299687507057
 20
-44.0986748896334
 30
0.0
 11
26.140812775916494
 21
-43.65749218767643
 31
0.0
  0
LINE
  5
9F
330
17
100
AcDbEntity
  8
PIQUETES
100
AcDbLine
 10
26.787003124929427
 20
-43.6513251103666
 30
0.0
 11
26.140812775916494
 21
-43.65749218767643
 31
0.0
  0
CIRCLE
  5
A0
330
17
100
AcDbEntity
  8
CENTROS
100
AcDbCircle
 10
15.450000000000001
 20
-25.5
 30
0.0
 40
0.15
  0
LINE
  5
A1
330
17
100
AcDbEntity
  8
CONSTRUCCION
100
AcDbLine
 10
1.7
 20
-9.6
 30
0.0
 11
1.7
 21
-70.0
 31
0.0
  0
CIRCLE
  5
A2
330
17
100
AcDbEntity
  8
BOTONES
100
AcDbCircle
 10
1.7
 20
-11.1
 30
0.0
 40
0.55
  0
CIRCLE
  5
A3
330
17
100
AcDbEntity
  8
BOTONES
100
AcDbCircle
 10
1.7
 20
-19.916666666666664
 30
0.0
 40
0.55
  0
CIRCLE
  5
A4
330
17
100
AcDbEntity
  8
BOTONES
100
AcDbCircle
 10
1.7
 20
-28.733333333333334
 30
0.0
 40
0.55
  0
CIRCLE
  5
A5
330
17
100
AcDbEntity
  8
BOTONES
100
AcDbCircle
 10
1.7
 20
-37.55
 30
0.0
 40
0.55
  0
CIRCLE
  5
A6
330
17
100
AcDbEntity
  8
BOTONES
100
AcDbCircle
 10
1.7
 20
-46.36666666666667
 30
0.0
 40
0.55
  0
CIRCLE
  5
A7
330
17
100
AcDbEntity
  8
BOTONES
100
AcDbCircle
 10
1.7
 20
-55.18333333333334
 30
0.0
 40
0.55
  0
CIRCLE
  5
A8
330
17
100
AcDbEntity
  8
BOTONES
100
AcDbCircle
 10
1.7
 20
-64.0
 30
0.0
 40
0.55
  0
LINE
  5
A9
330
17
100
AcDbEntity
  8
OJAL
100
AcDbLine
 10
0.8999999999999999
 20
-11.1
 30
0.0
 11
2.5
 21
-11.1
 31
0.0
  0
LINE
  5
AA
330
17
100
AcDbEntity
  8
OJAL
100
AcDbLine
 10
0.8999999999999999
 20
-19.916666666666664
 30
0.0
 11
2.5
 21
-19.916666666666664
 31
0.0
  0
LINE
  5
AB
330
17
100
AcDbEntity
  8
OJAL
100
AcDbLine
 10
0.8999999999999999
 20
-28.733333333333334
 30
0.0
 11
2.5
 21
-28.733333333333334
 31
0.0
  0
LINE
  5
AC
330
17
100
AcDbEntity
  8
OJAL
100
AcDbLine
 10
0.8999999999999999
 20
-37.55
 30
0.0
 11
2.5
 21
-37.55
 31
0.0
  0
LINE
  5
AD
330
17
100
AcDbEntity
  8
OJAL
100
AcDbLine
 10
0.8999999999999999
 20
-46.36666666666667
 30
0.0
 11
2.5
 21
-46.36666666666667
 31
0.0
  0
LINE
  5
AE
330
17
100
AcDbEntity
  8
OJAL
100
AcDbLine
 10
0.8999999999999999
 20
-55.18333333333334
 30
0.0
 11
2.5
 21
-55.18333333333334
 31
0.0
  0
LINE
  5
AF
330
17
100
AcDbEntity
  8
OJAL
100
AcDbLine
 10
0.8999999999999999
 20
-64.0
 30
0.0
 11
2.5
 21
-64.0
 31
0.0
  0
TEXT
  5
B0
330
17
100
AcDbEntity
  8
REFERENCIAS
100
AcDbText
 10
1.7
 20
-8.6
 30
0.0
 40
0.5
  1
CF
 11
1.7
 21
-8.6
 31
0.0
100
AcDbText
  0
TEXT
  5
B1
330
17
100
AcDbEntity
  8
TEXTOS
100
AcDbText
 10
12.84489116421248
 20
-35.785759540659654
 30
0.0
 40
0.9
  1
DELANTERO
 72
1
 11
12.84489116421248
 21
-35.785759540659654
 31
0.0
100
AcDbText
 73
2
  0
TEXT
  5
B2
330
17
100
AcDbEntity
  8
TEXTOS
100
AcDbText
 10
12.84489116421248
 20
-37.18575954065965
 30
0.0
 40
0.6
  1
Pieza N.01
 72
1
 11
12.84489116421248
 21
-37.18575954065965
 31
0.0
100
AcDbText
 73
2
  0
TEXT
  5
B3
330
17
100
AcDbEntity
  8
TEXTOS
100
AcDbText
 10
12.84489116421248
 20
-38.58575954065965
 30
0.0
 40
0.6
  1
Talla: M
 72
1
 11
12.84489116421248
 21
-38.58575954065965
 31
0.0
100
AcDbText
 73
2
  0
TEXT
  5
B4
330
17
100
AcDbEntity
  8
TEXTOS
100
AcDbText
 10
12.84489116421248
 20
-39.98575954065966
 30
0.0
 40
0.6
  1
Cortar: 2  (par: izq + der)
 72
1
 11
12.84489116421248
 21
-39.98575954065966
 31
0.0
100
AcDbText
 73
2
  0
LWPOLYLINE
  5
B5
330
17
100
AcDbEntity
  8
CORTE
100
AcDbPolyline
 90
31
 70
1
 10
58.7
 20
-12.193054
 10
58.22551300000001
 20
-11.492958999999999
 10
57.923351000000004
 20
-11.046835999999999
 10
57.621256
 20
-10.600231999999998
 10
57.319175
 20
-10.152781000000001
 10
57.017053000000004
 20
-9.704114
 10
56.714838
 20
-9.253864
 10
56.412473000000006
 20
-8.801662
 10
56.109919000000005
 20
-8.347161
 10
55.807582000000004
 20
-7.890637999999999
 10
55.507339
 20
-7.433128
 10
55.21181
 20
-6.9752030000000005
 10
54.923197
 20
-6.516793
 10
54.643662000000006
 20
-6.057839999999999
 10
54.375344
 20
-5.598336
 10
54.120344
 20
-5.138312000000001
 10
53.880718
 20
-4.677832
 10
53.658463
 20
-4.216984999999999
 10
53.455496000000004
 20
-3.7558679999999995
 10
53.273648
 20
-3.2945600000000006
 10
53.11464600000001
 20
-2.8330909999999996
 10
52.980087000000005
 20
-2.3713130000000007
 10
52.870951000000005
 20
-1.9070389999999993
 10
52.786323
 20
-1.4363019999999995
 10
52.724363000000004
 20
-0.9570969999999992
 10
52.683618
 20
-0.4694099999999999
 10
52.621458000000004
 20
1.0
 10
32.7
 20
1.0
 10
32.7
 20
-61.0
 10
58.7
 20
-61.0
 10
58.7
 20
-12.193054
  0
LWPOLYLINE
  5
B6
330
17
100
AcDbEntity
  8
COSTURA
100
AcDbPolyline
 90
30
 70
1
 10
32.7
 20
-0.0
 10
51.66286611638456
 20
-0.0
 10
51.68537934821374
 20
-0.5321975554972891
 10
51.729717940338986
 20
-1.0628954527535992
 10
51.79774007593018
 20
-1.5889802112191305
 10
51.891419383609495
 20
-2.1100674026613184
 10
52.012647959394585
 20
-2.6257837054274393
 10
52.1613289849016
 20
-3.136026732869688
 10
52.33531145280368
 20
-3.6409739252101083
 10
52.5323497639934
 20
-4.140815608204942
 10
52.75019831936339
 20
-4.635742107610421
 10
52.98661151980624
 20
-5.125943749182776
 10
53.23934376621456
 20
-5.611610858678247
 10
53.50614945948095
 20
-6.092933761853068
 10
53.78478300049804
 20
-6.570102784463479
 10
54.07299879015841
 20
-7.043308252265703
 10
54.368551229354665
 20
-7.512740491015986
 10
54.669194718979426
 20
-7.978589826470561
 10
54.97268365992529
 20
-8.441046584385656
 10
55.27683285317262
 20
-8.900305677594591
 10
55.580614349562055
 20
-9.356649906125881
 10
55.88404160473709
 20
-9.810441159364924
 10
56.187165224585485
 20
-10.262044148067751
 10
56.490035814995025
 20
-10.711823582990416
 10
56.79270398185347
 20
-11.16014417488893
 10
57.095220331048594
 20
-11.607370634519345
 10
57.397635468468195
 20
-12.05386767263769
 10
57.7
 20
-12.5
 10
57.7
 20
-60.0
 10
32.7
 20
-60.0
  0
LINE
  5
B7
330
17
100
AcDbEntity
  8
DOBLEZ
100
AcDbLine
 10
32.7
 20
-0.0
 30
0.0
 11
32.7
 21
-60.0
 31
0.0
  0
LINE
  5
B8
330
17
100
AcDbEntity
  8
HILO
100
AcDbLine
 10
33.2
 20
-3.0
 30
0.0
 11
33.2
 21
-57.0
 31
0.0
  0
LINE
  5
B9
330
17
100
AcDbEntity
  8
HILO
100
AcDbLine
 10
33.2
 20
-57.0
 30
0.0
 11
33.667302010770385
 21
-55.894726807196534
 31
0.0
  0
LINE
  5
BA
330
17
100
AcDbEntity
  8
HILO
100
AcDbLine
 10
33.2
 20
-57.0
 30
0.0
 11
32.73269798922962
 21
-55.894726807196534
 31
0.0
  0
LINE
  5
BB
330
17
100
AcDbEntity
  8
HILO
100
AcDbLine
 10
33.2
 20
-3.0
 30
0.0
 11
32.73269798922962
 21
-4.1052731928034625
 31
0.0
  0
LINE
  5
BC
330
17
100
AcDbEntity
  8
HILO
100
AcDbLine
 10
33.2
 20
-3.0
 30
0.0
 11
33.667302010770385
 21
-4.1052731928034625
 31
0.0
  0
LINE
  5
BD
330
17
100
AcDbEntity
  8
PIQUETES
100
AcDbLine
 10
42.420522498675915
 20
0.0208863459998338
 30
0.0
 11
42.233648923191865
 21
-0.5977236012090749
 31
0.0
  0
LINE
  5
BE
330
17
100
AcDbEntity
  8
PIQUETES
100
AcDbLine
 10
41.94234361770865
 20
-0.0208863459998338
 30
0.0
 11
42.233648923191865
 21
-0.5977236012090749
 31
0.0
  0
TEXT
  5
BF
330
17
100
AcDbEntity
  8
REFERENCIAS
100
AcDbText
 10
33.0
 20
-30.0
 30
0.0
 40
0.5
  1
CB
 11
33.0
 21
-30.0
 31
0.0
100
AcDbText
  0
TEXT
  5
C0
330
17
100
AcDbEntity
  8
TEXTOS
100
AcDbText
 10
44.87385971264811
 20
-27.22065107808607
 30
0.0
 40
0.9
  1
ESPALDA
 72
1
 11
44.87385971264811
 21
-27.22065107808607
 31
0.0
100
AcDbText
 73
2
  0
TEXT
  5
C1
330
17
100
AcDbEntity
  8
TEXTOS
100
AcDbText
 10
44.87385971264811
 20
-28.62065107808607
 30
0.0
 40
0.6
  1
Pieza N.02
 72
1
 11
44.87385971264811
 21
-28.62065107808607
 31
0.0
100
AcDbText
 73
2
  0
TEXT
  5
C2
330
17
100
AcDbEntity
  8
TEXTOS
100
AcDbText
 10
44.87385971264811
 20
-30.02065107808607
 30
0.0
 40
0.6
  1
Talla: M
 72
1
 11
44.87385971264811
 21
-30.02065107808607
 31
0.0
100
AcDbText
 73
2
  0
TEXT
  5
C3
330
17
100
AcDbEntity
  8
TEXTOS
100
AcDbText
 10
44.87385971264811
 20
-31.420651078086067
 30
0.0
 40
0.6
  1
Cortar: 1  (al doblez)
 72
1
 11
44.87385971264811
 21
-31.420651078086067
 31
0.0
100
AcDbText
 73
2
  0
TEXT
  5
C4
330
17
100
AcDbEntity
  8
TEXTOS
100
AcDbText
 10
44.87385971264811
 20
-32.82065107808607
 30
0.0
 40
0.6
  1
AL DOBLEZ
 72
1
 11
44.87385971264811
 21
-32.82065107808607
 31
0.0
100
AcDbText
 73
2
  0
LWPOLYLINE
  5
C5
330
17
100
AcDbEntity
  8
CORTE
100
AcDbPolyline
 90
45
 70
1
 10
83.662637
 20
-9.973446
 10
83.659932
 20
-9.469526
 10
83.673959
 20
-8.958053
 10
83.703114
 20
-8.439488
 10
83.74573600000001
 20
-7.914324999999999
 10
83.80010300000001
 20
-7.3830729999999996
 10
83.864443
 20
-6.846237999999999
 10
83.936937
 20
-6.304317999999999
 10
84.015728
 20
-5.757789999999999
 10
84.098919
 20
-5.207108999999999
 10
84.309416
 20
-3.8447999999999998
 10
70.8713
 20
1.1133820000000005
 10
70.235982
 20
0.6938330000000005
 10
70.026058
 20
0.5564990000000004
 10
69.818644
 20
0.4233430000000005
 10
69.61324
 20
0.2951970000000005
 10
69.40937
 20
0.1728380000000005
 10
69.206553
 20
0.05698100000000049
 10
69.0036
 20
-0.05210899999999951
 10
68.79849
 20
-0.1549669999999995
 10
68.590253
 20
-0.2520809999999995
 10
68.37909
 20
-0.3433619999999995
 10
68.165298
 20
-0.4286799999999995
 10
67.949178
 20
-0.5079079999999996
 10
67.73103400000001
 20
-0.5809249999999996
 10
67.51116900000001
 20
-0.6476129999999996
 10
67.289888
 20
-0.7078609999999995
 10
67.06749500000001
 20
-0.7615639999999996
 10
66.84419
 20
-0.8086449999999995
 10
66.619337
 20
-0.8492209999999996
 10
66.391855
 20
-0.8837829999999995
 10
66.161371
 20
-0.9128139999999996
 10
65.927891
 20
-0.9367429999999995
 10
65.691449
 20
-0.9560079999999995
 10
65.45209700000001
 20
-0.9710639999999996
 10
65.2099
 20
-0.9823779999999995
 10
64.964934
 20
-0.9904349999999995
 10
64.71728
 20
-0.9957369999999995
 10
64.467021
 20
-0.9988029999999996
 10
64.214243
 20
-1.0001649999999995
 10
63.959028
 20
-1.0003759999999995
 10
63.7
 20
-0.9999989999999995
 10
63.7
 20
-11.0
 10
83.706063
 20
-11.0
 10
83.662637
 20
-9.973446
  0
LWPOLYLINE
  5
C6
330
17
100
AcDbEntity
  8
COSTURA
100
AcDbPolyline
 90
44
 70
1
 10
63.7
 20
-1.9999999999999996
 10
63.95871263809138
 20
-2.0003764841150606
 10
64.21735085635254
 20
-2.0001630131391246
 10
64.4758402349533
 20
-1.9987696319811952
 10
64.73410635406341
 20
-1.9956063855502746
 10
64.9920747938527
 20
-1.9900833187553657
 10
65.24967113449094
 20
-1.9816104765054723
 10
65.50682095614792
 20
-1.9695979037095965
 10
65.76344983899342
 20
-1.953455645276742
 10
66.01948336319727
 20
-1.9325937461159117
 10
66.27484710892922
 20
-1.9064222511361086
 10
66.52946665635909
 20
-1.8743512052463354
 10
66.78326758565666
 20
-1.8357906533555954
 10
67.03617520108648
 20
-1.79015162029742
 10
67.28805824057989
 20
-1.7370460359030546
 10
67.53866016788268
 20
-1.6765307626782737
 10
67.7877076399494
 20
-1.6087223553196714
 10
68.03492731373461
 20
-1.533737368523842
 10
68.28004584619288
 20
-1.4516923569873796
 10
68.52278989427873
 20
-1.3627038754068792
 10
68.76288611494674
 20
-1.2668884784789334
 10
69.00006116515145
 20
-1.164362720900137
 10
69.23404170184743
 20
-1.0552431573670848
 10
69.46455438198922
 20
-0.9396463425763704
 10
69.6913682099985
 20
-0.8177303564920192
 10
69.91473999733287
 20
-0.6901316150680765
 10
70.13523915430319
 20
-0.557793063830646
 10
70.35344020698224
 20
-0.42166266474242603
 10
70.56991768144285
 20
-0.28268837976611283
 10
70.78524610375783
 20
-0.1418181708644047
 10
71.0
 20
-0.0
 10
83.19631091765046
 20
-4.499999999999999
 10
83.11039002071297
 20
-5.056070160605597
 10
83.02644275239763
 20
-5.61175589297863
 10
82.9464427413266
 20
-6.166672768886533
 10
82.87236361612207
 20
-6.720436360096742
 10
82.80617900540621
 20
-7.272662238376691
 10
82.74986253780114
 20
-7.822965975493815
 10
82.70538784192905
 20
-8.37096314321555
 10
82.67472854641211
 20
-8.91626931330933
 10
82.65985827987247
 20
-9.458500057542588
 10
82.6627506709323
 20
-9.997270947682765
 10
82.66286611638456
 20
-10.0
 10
63.7
 20
-10.0
  0
LINE
  5
C7
330
17
100
AcDbEntity
  8
DOBLEZ
100
AcDbLine
 10
63.7
 20
-0.0
 30
0.0
 11
63.7
 21
-10.0
 31
0.0
  0
LINE
  5
C8
330
17
100
AcDbEntity
  8
HILO
100
AcDbLine
 10
68.08
 20
-0.9999999999999996
 30
0.0
 11
68.08
 21
-9.5
 31
0.0
  0
LINE
  5
C9
330
17
100
AcDbEntity
  8
HILO
100
AcDbLine
 10
68.08
 20
-9.5
 30
0.0
 11
68.54730201077038
 21
-8.394726807196538
 31
0.0
  0
LINE
  5
CA
330
17
100
AcDbEntity
  8
HILO
100
AcDbLine
 10
68.08
 20
-9.5
 30
0.0
 11
67.61269798922962
 21
-8.394726807196538
 31
0.0
  0
LINE
  5
CB
330
17
100
AcDbEntity
  8
HILO
100
AcDbLine
 10
68.08
 20
-0.9999999999999996
 30
0.0
 11
67.61269798922962
 21
-2.1052731928034616
 31
0.0
  0
LINE
  5
CC
330
17
100
AcDbEntity
  8
HILO
100
AcDbLine
 10
68.08
 20
-0.9999999999999996
 30
0.0
 11
68.54730201077038
 21
-2.1052731928034616
 31
0.0
  0
LINE
  5
CD
330
17
100
AcDbEntity
  8
PIQUETES
100
AcDbLine
 10
72.94244905315782
 20
-10.022060039385417
 30
0.0
 11
73.12628295972874
 21
-9.402539987413833
 31
0.0
  0
LINE
  5
CE
330
17
100
AcDbEntity
  8
PIQUETES
100
AcDbLine
 10
73.42041706322675
 20
-9.977939960614583
 30
0.0
 11
73.12628295972874
 21
-9.402539987413833
 31
0.0
  0
TEXT
  5
CF
330
17
100
AcDbEntity
  8
TEXTOS
100
AcDbText
 10
72.80023183130893
 20
-2.270315808009822
 30
0.0
 40
0.9
  1
CANESU
 72
1
 11
72.80023183130893
 21
-2.270315808009822
 31
0.0
100
AcDbText
 73
2
  0
TEXT
  5
D0
330
17
100
AcDbEntity
  8
TEXTOS
100
AcDbText
 10
72.80023183130893
 20
-3.6703158080098217
 30
0.0
 40
0.6
  1
Pieza N.03
 72
1
 11
72.80023183130893
 21
-3.6703158080098217
 31
0.0
100
AcDbText
 73
2
  0
TEXT
  5
D1
330
17
100
AcDbEntity
  8
TEXTOS
100
AcDbText
 10
72.80023183130893
 20
-5.070315808009821
 30
0.0
 40
0.6
  1
Talla: M
 72
1
 11
72.80023183130893
 21
-5.070315808009821
 31
0.0
100
AcDbText
 73
2
  0
TEXT
  5
D2
330
17
100
AcDbEntity
  8
TEXTOS
100
AcDbText
 10
72.80023183130893
 20
-6.470315808009821
 30
0.0
 40
0.6
  1
Cortar: 2  (al doblez x2 (exterior+interior))
 72
1
 11
72.80023183130893
 21
-6.470315808009821
 31
0.0
100
AcDbText
 73
2
  0
TEXT
  5
D3
330
17
100
AcDbEntity
  8
TEXTOS
100
AcDbText
 10
72.80023183130893
 20
-7.8703158080098214
 30
0.0
 40
0.6
  1
AL DOBLEZ
 72
1
 11
72.80023183130893
 21
-7.8703158080098214
 31
0.0
100
AcDbText
 73
2
  0
LWPOLYLINE
  5
D4
330
17
100
AcDbEntity
  8
CORTE
100
AcDbPolyline
 90
68
 70
1
 10
92.82971937968694
 20
-62.5
 10
119.66046137968692
 20
-62.5
 10
124.32865337968693
 20
-9.776327
 10
123.60369137968692
 20
-8.979674
 10
123.16761037968692
 20
-8.505926
 10
122.72268537968694
 20
-8.033514
 10
122.26681437968693
 20
-7.565842
 10
121.80023937968693
 20
-7.107317
 10
121.32521337968693
 20
-6.659631
 10
120.84273437968693
 20
-6.222233
 10
120.35344137968693
 20
-5.794218
 10
119.85795637968693
 20
-5.37468
 10
119.35689337968692
 20
-4.962713
 10
118.85085137968693
 20
-4.557408
 10
118.34042137968693
 20
-4.157862
 10
117.82618137968693
 20
-3.763171
 10
117.30800237968693
 20
-3.371915
 10
116.78383137968693
 20
-2.98269
 10
116.25120637968693
 20
-2.596982
 10
115.70900937968693
 20
-2.217782
 10
115.15626237968692
 20
-1.848273
 10
114.59193637968693
 20
-1.491693
 10
114.01496937968693
 20
-1.151354
 10
113.42428437968692
 20
-0.830662
 10
112.81882437968693
 20
-0.533137
 10
112.19760237968693
 20
-0.262432
 10
111.56134337968693
 20
-0.022913
 10
110.91515337968693
 20
0.182317
 10
110.26465937968693
 20
0.355987
 10
109.61206237968693
 20
0.502745
 10
108.95891237968692
 20
0.62728
 10
108.30663837968693
 20
0.734154
 10
107.65660237968693
 20
0.827789
 10
107.01015037968693
 20
0.912467
 10
106.27104937968693
 20
1.004489
 10
105.51807137968693
 20
0.950034
 10
104.85827737968692
 20
0.898241
 10
104.19475937968693
 20
0.837911
 10
103.52867837968692
 20
0.764811
 10
102.86119437968694
 20
0.674579
 10
102.19351637968693
 20
0.562716
 10
101.52695137968693
 20
0.424593
 10
100.86304837968693
 20
0.255484
 10
100.20586037968692
 20
0.05142
 10
99.56121837968693
 20
-0.187035
 10
98.93150137968692
 20
-0.455625
 10
98.31613937968693
 20
-0.750798
 10
97.71430637968693
 20
-1.069179
 10
97.12512537968692
 20
-1.407502
 10
96.54770437968693
 20
-1.762599
 10
95.98116037968693
 20
-2.131384
 10
95.42464337968693
 20
-2.510837
 10
94.87733937968693
 20
-2.897983
 10
94.33771837968693
 20
-3.290448
 10
93.80281737968693
 20
-3.688596
 10
93.27198637968692
 20
-4.095688
 10
92.74709937968693
 20
-4.514012
 10
92.23044637968692
 20
-4.945621
 10
91.72437337968692
 20
-5.392609
 10
91.23130037968693
 20
-5.857095
 10
90.75374337968692
 20
-6.341199
 10
90.29432937968693
 20
-6.847019
 10
89.85627537968693
 20
-7.376018
 10
89.44537137968693
 20
-7.924399
 10
89.06178237968693
 20
-8.481517
 10
88.69934637968693
 20
-9.039052
 10
88.17041537968693
 20
-9.876716
 10
92.82971937968694
 20
-62.5
  0
LWPOLYLINE
  5
D5
330
17
100
AcDbEntity
  8
COSTURA
100
AcDbPolyline
 90
67
 70
1
 10
89.19631091765046
 20
-10.125
 10
89.54136284855042
 20
-9.578543197002377
 10
89.89296184845264
 20
-9.037680366211298
 10
90.25765498635934
 20
-8.508005479833304
 10
90.64197630138214
 20
-7.9951014712885735
 10
91.04995130044635
 20
-7.502426071905113
 10
91.48012840981116
 20
-7.028796887859494
 10
91.93033318696986
 20
-6.572419118510442
 10
92.39839118941573
 20
-6.131497963216684
 10
92.88212797464207
 20
-5.704238621336946
 10
93.37936910014216
 20
-5.288846292229951
 10
93.8879401234093
 20
-4.883526175254428
 10
94.40566660193676
 20
-4.486483469769101
 10
94.93037409321784
 20
-4.0959233751326956
 10
95.4602039488343
 20
-3.7105790941311696
 10
95.99510495365408
 20
-3.3322058334586226
 10
96.535667827915
 20
-2.963632107029784
 10
97.08248405832194
 20
-2.60768771028171
 10
97.63614513157967
 20
-2.2672024386514575
 10
98.19724253439304
 20
-1.9450060875760842
 10
98.76636775346685
 20
-1.643928452492647
 10
99.34411227550594
 20
-1.3667993288382025
 10
99.93106758721511
 20
-1.1164485120498076
 10
100.5278251752992
 20
-0.8957057975645197
 10
101.13492082276399
 20
-0.7071957538601324
 10
101.75193684745389
 20
-0.5500301350190911
 10
102.37765494011398
 20
-0.4203709760214598
 10
103.01083194817708
 20
-0.31428878260389415
 10
103.65022471907604
 20
-0.22785406050304968
 10
104.29459010024367
 20
-0.1571373154555823
 10
104.94268493911281
 20
-0.09820905319814777
 10
105.59326608311628
 20
-0.04713977946740175
 10
106.24509037968693
 20
-0.0
 10
106.88343390170353
 20
-0.07947695138365025
 10
107.52036996290065
 20
-0.1629090581717681
 10
108.15449110245878
 20
-0.25425147576882107
 10
108.78438985955846
 20
-0.35745935957927666
 10
109.40865877338017
 20
-0.47648786500760254
 10
110.02589038310445
 20
-0.6152921474582663
 10
110.6346772279118
 20
-0.7778273623357354
 10
111.23361184698271
 20
-0.9680486650444775
 10
111.82146215521595
 20
-1.189343879793091
 10
112.39834730761503
 20
-1.440729640340797
 10
112.96501434407291
 20
-1.719191405955811
 10
113.52221377565553
 20
-2.0217034068449355
 10
114.07069611342882
 20
-2.3452398732149726
 10
114.61121186845871
 20
-2.6867750352727247
 10
115.14451155181116
 20
-3.0432831232249953
 10
115.67134567455209
 20
-3.411738367278587
 10
116.19246474774744
 20
-3.789114997640301
 10
116.70861928246312
 20
-4.172387244516941
 10
117.22045178034229
 20
-4.558851167502862
 10
117.72778612872908
 20
-4.948242003549829
 10
118.23007118959305
 20
-5.341412430879961
 10
118.72675387476447
 20
-5.739220938431792
 10
119.2172810960736
 20
-6.142526015143859
 10
119.70109976535073
 20
-6.552186149954689
 10
120.17765679442614
 20
-6.9690598318028245
 10
120.64639909513008
 20
-7.3940055496268
 10
121.10677357929285
 20
-7.827881792365144
 10
121.5582271587447
 20
-8.271547048956396
 10
122.000606686573
 20
-8.725377899242416
 10
122.43572725193393
 20
-9.187379297609462
 10
122.8660084009219
 20
-9.654827858239086
 10
123.29386984172339
 20
-10.125
 10
118.74509037968693
 20
-61.5
 10
93.74509037968693
 20
-61.5
  0
LINE
  5
D6
330
17
100
AcDbEntity
  8
HILO
100
AcDbLine
 10
106.24509037968693
 20
-4.05
 30
0.0
 11
106.24509037968693
 21
-59.5
 31
0.0
  0
LINE
  5
D7
330
17
100
AcDbEntity
  8
HILO
100
AcDbLine
 10
106.24509037968693
 20
-59.5
 30
0.0
 11
106.71239239045731
 21
-58.39472680719654
 31
0.0
  0
LINE
  5
D8
330
17
100
AcDbEntity
  8
HILO
100
AcDbLine
 10
106.24509037968693
 20
-59.5
 30
0.0
 11
105.77778836891655
 21
-58.39472680719654
 31
0.0
  0
LINE
  5
D9
330
17
100
AcDbEntity
  8
HILO
100
AcDbLine
 10
106.24509037968693
 20
-4.05
 30
0.0
 11
105.77778836891655
 21
-5.155273192803461
 31
0.0
  0
LINE
  5
DA
330
17
100
AcDbEntity
  8
HILO
100
AcDbLine
 10
106.24509037968693
 20
-4.05
 30
0.0
 11
106.71239239045731
 21
-5.155273192803461
 31
0.0
  0
LINE
  5
DB
330
17
100
AcDbEntity
  8
PIQUETES
100
AcDbLine
 10
114.82383299062282
 20
-2.7446338783110065
 30
0.0
 11
114.42191666186436
 21
-3.25066081897456
 31
0.0
  0
LINE
  5
DC
330
17
100
AcDbEntity
  8
PIQUETES
100
AcDbLine
 10
114.36397542361114
 20
-2.607043842108906
 30
0.0
 11
114.42191666186436
 21
-3.25066081897456
 31
0.0
  0
LINE
  5
DD
330
17
100
AcDbEntity
  8
PIQUETES
100
AcDbLine
 10
97.72072397149206
 20
-2.285882936941368
 30
0.0
 11
97.66729654152819
 21
-2.929890320227814
 31
0.0
  0
LINE
  5
DE
330
17
100
AcDbEntity
  8
PIQUETES
100
AcDbLine
 10
97.26184234716654
 20
-2.4266936427004744
 30
0.0
 11
97.66729654152819
 21
-2.929890320227814
 31
0.0
  0
LINE
  5
DF
330
17
100
AcDbEntity
  8
PIQUETES
100
AcDbLine
 10
96.34084524220141
 20
-3.1674289339203856
 30
0.0
 11
96.32219674461544
 21
-3.8133795771879546
 31
0.0
  0
LINE
  5
E0
330
17
100
AcDbEntity
  8
PIQUETES
100
AcDbLine
 10
95.89021762682076
 20
-3.332761182003874
 30
0.0
 11
96.32219674461544
 21
-3.8133795771879546
 31
0.0
  0
CIRCLE
  5
E1
330
17
100
AcDbEntity
  8
CENTROS
100
AcDbCircle
 10
110.50728524519604
 20
-49.5
 30
0.0
 40
0.15
  0
LINE
  5
E2
330
17
100
AcDbEntity
  8
CONSTRUCCION
100
AcDbLine
 10
110.50728524519604
 20
-61.5
 30
0.0
 11
110.50728524519604
 21
-49.5
 31
0.0
  0
TEXT
  5
E3
330
17
100
AcDbEntity
  8
TEXTOS
100
AcDbText
 10
106.19901043971173
 20
-28.033505895997706
 30
0.0
 40
0.9
  1
MANGA
 72
1
 11
106.19901043971173
 21
-28.033505895997706
 31
0.0
100
AcDbText
 73
2
  0
TEXT
  5
E4
330
17
100
AcDbEntity
  8
TEXTOS
100
AcDbText
 10
106.19901043971173
 20
-29.433505895997705
 30
0.0
 40
0.6
  1
Pieza N.04
 72
1
 11
106.19901043971173
 21
-29.433505895997705
 31
0.0
100
AcDbText
 73
2
  0
TEXT
  5
E5
330
17
100
AcDbEntity
  8
TEXTOS
100
AcDbText
 10
106.19901043971173
 20
-30.833505895997707
 30
0.0
 40
0.6
  1
Talla: M
 72
1
 11
106.19901043971173
 21
-30.833505895997707
 31
0.0
100
AcDbText
 73
2
  0
TEXT
  5
E6
330
17
100
AcDbEntity
  8
TEXTOS
100
AcDbText
 10
106.19901043971173
 20
-32.23350589599771
 30
0.0
 40
0.6
  1
Cortar: 2  (par: izq + der)
 72
1
 11
106.19901043971173
 21
-32.23350589599771
 31
0.0
100
AcDbText
 73
2
  0
LWPOLYLINE
  5
E7
330
17
100
AcDbEntity
  8
CORTE
100
AcDbPolyline
 90
37
 70
1
 10
128.2938698417234
 20
-11.249127
 10
128.3237108417234
 20
-11.552107
 10
128.42641684172338
 20
-11.890682
 10
128.59320184172338
 20
-12.202715
 10
128.8176558417234
 20
-12.476214
 10
129.09115484172338
 20
-12.700668
 10
129.4031878417234
 20
-12.867453
 10
129.74176284172339
 20
-12.970159
 10
130.0447428417234
 20
-13.0
 10
152.54299684172338
 20
-13.0
 10
152.8459768417234
 20
-12.970159
 10
153.1845518417234
 20
-12.867453
 10
153.4965848417234
 20
-12.700668
 10
153.7700838417234
 20
-12.476214
 10
153.9945378417234
 20
-12.202715
 10
154.1613228417234
 20
-11.890682
 10
154.2640288417234
 20
-11.552107
 10
154.2938698417234
 20
-11.249127
 10
154.2938698417234
 20
-0.750873
 10
154.2640288417234
 20
-0.447893
 10
154.1613228417234
 20
-0.109318
 10
153.9945378417234
 20
0.202715
 10
153.7700838417234
 20
0.476214
 10
153.4965848417234
 20
0.700668
 10
153.1845518417234
 20
0.867453
 10
152.8459768417234
 20
0.970159
 10
152.54299684172338
 20
1.0
 10
130.0447428417234
 20
1.0
 10
129.74176284172339
 20
0.970159
 10
129.4031878417234
 20
0.867453
 10
129.09115484172338
 20
0.700668
 10
128.8176558417234
 20
0.476214
 10
128.59320184172338
 20
0.202715
 10
128.42641684172338
 20
-0.109318
 10
128.3237108417234
 20
-0.447893
 10
128.2938698417234
 20
-0.750873
 10
128.2938698417234
 20
-11.249127
  0
LWPOLYLINE
  5
E8
330
17
100
AcDbEntity
  8
COSTURA
100
AcDbPolyline
 90
36
 70
1
 10
129.2938698417234
 20
-0.8000000000000002
 10
129.3092416174008
 20
-0.6439277423870974
 10
129.35476621571436
 20
-0.4938532541079283
 10
129.42869415188136
 20
-0.35554381358431847
 10
129.52818441677417
 20
-0.23431457505076203
 10
129.6494136553077
 20
-0.1348243101579638
 10
129.78772309583132
 20
-0.06089637399097081
 10
129.93779758411048
 20
-0.015371775677415767
 10
130.0938698417234
 20
-0.0
 10
152.49386984172338
 20
-0.0
 10
152.6499420993363
 20
-0.015371775677415656
 10
152.80001658761546
 20
-0.06089637399097059
 10
152.93832602813907
 20
-0.13482431015796392
 10
153.05955526667262
 20
-0.23431457505076203
 10
153.15904553156543
 20
-0.35554381358431836
 10
153.23297346773242
 20
-0.49385325410792835
 10
153.27849806604598
 20
-0.6439277423870976
 10
153.2938698417234
 20
-0.8000000000000003
 10
153.2938698417234
 20
-11.2
 10
153.27849806604598
 20
-11.356072257612903
 10
153.23297346773242
 20
-11.506146745892071
 10
153.15904553156543
 20
-11.644456186415681
 10
153.05955526667262
 20
-11.765685424949238
 10
152.93832602813907
 20
-11.865175689842035
 10
152.80001658761546
 20
-11.939103626009029
 10
152.6499420993363
 20
-11.984628224322584
 10
152.49386984172338
 20
-12.0
 10
130.0938698417234
 20
-12.0
 10
129.93779758411048
 20
-11.984628224322584
 10
129.78772309583132
 20
-11.939103626009029
 10
129.6494136553077
 20
-11.865175689842037
 10
129.52818441677417
 20
-11.765685424949238
 10
129.42869415188136
 20
-11.644456186415681
 10
129.35476621571436
 20
-11.506146745892071
 10
129.3092416174008
 20
-11.356072257612903
 10
129.2938698417234
 20
-11.2
  0
LINE
  5
E9
330
17
100
AcDbEntity
  8
HILO
100
AcDbLine
 10
141.2938698417234
 20
-0.5
 30
0.0
 11
141.2938698417234
 21
-11.5
 31
0.0
  0
LINE
  5
EA
330
17
100
AcDbEntity
  8
HILO
100
AcDbLine
 10
141.2938698417234
 20
-11.5
 30
0.0
 11
141.76117185249376
 21
-10.394726807196538
 31
0.0
  0
LINE
  5
EB
330
17
100
AcDbEntity
  8
HILO
100
AcDbLine
 10
141.2938698417234
 20
-11.5
 30
0.0
 11
140.82656783095302
 21
-10.394726807196538
 31
0.0
  0
LINE
  5
EC
330
17
100
AcDbEntity
  8
HILO
100
AcDbLine
 10
141.2938698417234
 20
-0.5
 30
0.0
 11
140.82656783095302
 21
-1.605273192803462
 31
0.0
  0
LINE
  5
ED
330
17
100
AcDbEntity
  8
HILO
100
AcDbLine
 10
141.2938698417234
 20
-0.5
 30
0.0
 11
141.76117185249376
 21
-1.605273192803462
 31
0.0
  0
LINE
  5
EE
330
17
100
AcDbEntity
  8
CONSTRUCCION
100
AcDbLine
 10
129.2938698417234
 20
-6.0
 30
0.0
 11
153.2938698417234
 21
-6.0
 31
0.0
  0
CIRCLE
  5
EF
330
17
100
AcDbEntity
  8
BOTONES
100
AcDbCircle
 10
130.49386984172338
 20
-6.0
 30
0.0
 40
0.55
  0
LINE
  5
F0
330
17
100
AcDbEntity
  8
OJAL
100
AcDbLine
 10
152.0938698417234
 20
-5.2
 30
0.0
 11
152.0938698417234
 21
-6.8
 31
0.0
  0
TEXT
  5
F1
330
17
100
AcDbEntity
  8
REFERENCIAS
100
AcDbText
 10
141.2938698417234
 20
-5.2
 30
0.0
 40
0.5
  1
DOBLEZ
 11
141.2938698417234
 21
-5.2
 31
0.0
100
AcDbText
  0
TEXT
  5
F2
330
17
100
AcDbEntity
  8
TEXTOS
100
AcDbText
 10
141.2938698417234
 20
-3.3000000000000016
 30
0.0
 40
0.9
  1
PUNO
 72
1
 11
141.2938698417234
 21
-3.3000000000000016
 31
0.0
100
AcDbText
 73
2
  0
TEXT
  5
F3
330
17
100
AcDbEntity
  8
TEXTOS
100
AcDbText
 10
141.2938698417234
 20
-4.700000000000001
 30
0.0
 40
0.6
  1
Pieza N.05
 72
1
 11
141.2938698417234
 21
-4.700000000000001
 31
0.0
100
AcDbText
 73
2
  0
TEXT
  5
F4
330
17
100
AcDbEntity
  8
TEXTOS
100
AcDbText
 10
141.2938698417234
 20
-6.100000000000001
 30
0.0
 40
0.6
  1
Talla: M
 72
1
 11
141.2938698417234
 21
-6.100000000000001
 31
0.0
100
AcDbText
 73
2
  0
TEXT
  5
F5
330
17
100
AcDbEntity
  8
TEXTOS
100
AcDbText
 10
141.2938698417234
 20
-7.500000000000001
 30
0.0
 40
0.6
  1
Cortar: 4  (4 (2 tela + 2 entretela))
 72
1
 11
141.2938698417234
 21
-7.500000000000001
 31
0.0
100
AcDbText
 73
2
  0
LWPOLYLINE
  5
F6
330
17
100
AcDbEntity
  8
CORTE
100
AcDbPolyline
 90
37
 70
1
 10
-1.0
 20
-78.649127
 10
-0.977845
 20
-78.87407
 10
-0.897902
 20
-79.137608
 10
-0.768081
 20
-79.380486
 10
-0.593371
 20
-79.593371
 10
-0.380486
 20
-79.768081
 10
-0.137608
 20
-79.897902
 10
0.12593
 20
-79.977845
 10
0.350873
 20
-80.0
 10
11.649127
 20
-80.0
 10
11.87407
 20
-79.977845
 10
12.137608
 20
-79.897902
 10
12.380486
 20
-79.768081
 10
12.593371
 20
-79.593371
 10
12.768081
 20
-79.380486
 10
12.897902
 20
-79.137608
 10
12.977845
 20
-78.87407
 10
13.0
 20
-78.649127
 10
13.0
 20
-76.350873
 10
12.977845
 20
-76.12593
 10
12.897902
 20
-75.862392
 10
12.768081
 20
-75.619514
 10
12.593371
 20
-75.406629
 10
12.380486
 20
-75.231919
 10
12.137608
 20
-75.102098
 10
11.87407
 20
-75.022155
 10
11.649127
 20
-75.0
 10
0.350873
 20
-75.0
 10
0.12593
 20
-75.022155
 10
-0.137608
 20
-75.102098
 10
-0.380486
 20
-75.231919
 10
-0.593371
 20
-75.406629
 10
-0.768081
 20
-75.619514
 10
-0.897902
 20
-75.862392
 10
-0.977845
 20
-76.12593
 10
-1.0
 20
-76.350873
 10
-1.0
 20
-78.649127
  0
LWPOLYLINE
  5
F7
330
17
100
AcDbEntity
  8
COSTURA
100
AcDbPolyline
 90
36
 70
1
 10
0.0
 20
-76.4
 10
0.007685887838707828
 20
-76.32196387119355
 10
0.030448186995485238
 20
-76.24692662705397
 10
0.0674121550789818
 20
-76.17777190679216
 10
0.11715728752538096
 20
-76.11715728752539
 10
0.17777190679215915
 20
-76.06741215507898
 10
0.24692662705396387
 20
-76.03044818699549
 10
0.3219638711935485
 20
-76.0076858878387
 10
0.39999999999999997
 20
-76.0
 10
11.6
 20
-76.0
 10
11.67803612880645
 20
-76.0076858878387
 10
11.753073372946035
 20
-76.03044818699549
 10
11.82222809320784
 20
-76.06741215507898
 10
11.882842712474618
 20
-76.11715728752539
 10
11.932587844921018
 20
-76.17777190679216
 10
11.969551813004514
 20
-76.24692662705397
 10
11.992314112161292
 20
-76.32196387119355
 10
12.0
 20
-76.4
 10
12.0
 20
-78.6
 10
11.992314112161292
 20
-78.67803612880645
 10
11.969551813004514
 20
-78.75307337294603
 10
11.932587844921018
 20
-78.82222809320784
 10
11.882842712474618
 20
-78.88284271247461
 10
11.82222809320784
 20
-78.93258784492102
 10
11.753073372946035
 20
-78.96955181300451
 10
11.67803612880645
 20
-78.9923141121613
 10
11.6
 20
-79.0
 10
0.4
 20
-79.0
 10
0.32196387119354875
 20
-78.9923141121613
 10
0.24692662705396412
 20
-78.96955181300451
 10
0.17777190679215923
 20
-78.93258784492102
 10
0.11715728752538102
 20
-78.88284271247461
 10
0.06741215507898185
 20
-78.82222809320784
 10
0.030448186995485294
 20
-78.75307337294603
 10
0.007685887838707828
 20
-78.67803612880645
 10
0.0
 20
-78.6
  0
LINE
  5
F8
330
17
100
AcDbEntity
  8
HILO
100
AcDbLine
 10
6.0
 20
-76.4
 30
0.0
 11
6.0
 21
-78.6
 31
0.0
  0
LINE
  5
F9
330
17
100
AcDbEntity
  8
HILO
100
AcDbLine
 10
6.0
 20
-78.6
 30
0.0
 11
6.467302010770381
 21
-77.49472680719654
 31
0.0
  0
LINE
  5
FA
330
17
100
AcDbEntity
  8
HILO
100
AcDbLine
 10
6.0
 20
-78.6
 30
0.0
 11
5.532697989229619
 21
-77.49472680719654
 31
0.0
  0
LINE
  5
FB
330
17
100
AcDbEntity
  8
HILO
100
AcDbLine
 10
6.0
 20
-76.4
 30
0.0
 11
5.53269798922962
 21
-77.50527319280346
 31
0.0
  0
LINE
  5
FC
330
17
100
AcDbEntity
  8
HILO
100
AcDbLine
 10
6.0
 20
-76.4
 30
0.0
 11
6.46730201077038
 21
-77.50527319280346
 31
0.0
  0
TEXT
  5
FD
330
17
100
AcDbEntity
  8
TEXTOS
100
AcDbText
 10
5.9999999999999964
 20
-74.8
 30
0.0
 40
0.9
  1
TAPETA MANGA
 72
1
 11
5.9999999999999964
 21
-74.8
 31
0.0
100
AcDbText
 73
2
  0
TEXT
  5
FE
330
17
100
AcDbEntity
  8
TEXTOS
100
AcDbText
 10
5.9999999999999964
 20
-76.2
 30
0.0
 40
0.6
  1
Pieza N.06
 72
1
 11
5.9999999999999964
 21
-76.2
 31
0.0
100
AcDbText
 73
2
  0
TEXT
  5
FF
330
17
100
AcDbEntity
  8
TEXTOS
100
AcDbText
 10
5.9999999999999964
 20
-77.6
 30
0.0
 40
0.6
  1
Talla: M
 72
1
 11
5.9999999999999964
 21
-77.6
 31
0.0
100
AcDbText
 73
2
  0
TEXT
  5
100
330
17
100
AcDbEntity
  8
TEXTOS
100
AcDbText
 10
5.9999999999999964
 20
-79.0
 30
0.0
 40
0.6
  1
Cortar: 2  (par)
 72
1
 11
5.9999999999999964
 21
-79.0
 31
0.0
100
AcDbText
 73
2
  0
LWPOLYLINE
  5
101
330
17
100
AcDbEntity
  8
CORTE
100
AcDbPolyline
 90
84
 70
1
 10
18.807285
 20
-81.673778
 10
19.310329
 20
-81.762994
 10
19.813422
 20
-81.84712
 10
20.316562
 20
-81.926155
 10
20.819747
 20
-82.000097
 10
21.322973
 20
-82.068945
 10
21.826238
 20
-82.132699
 10
22.329539
 20
-82.191356
 10
22.832873
 20
-82.244917
 10
23.336238
 20
-82.293379
 10
23.83963
 20
-82.336742
 10
24.343047
 20
-82.375006
 10
24.846485
 20
-82.408169
 10
25.349942
 20
-82.436231
 10
25.853415
 20
-82.459192
 10
26.3569
 20
-82.477051
 10
26.860394
 20
-82.489807
 10
27.363895
 20
-82.497461
 10
27.867398
 20
-82.500013
 10
28.370902
 20
-82.497461
 10
28.874403
 20
-82.489807
 10
29.377897
 20
-82.477051
 10
29.881382000000002
 20
-82.459192
 10
30.384854
 20
-82.436231
 10
30.888311
 20
-82.408169
 10
31.391750000000002
 20
-82.375006
 10
31.895167
 20
-82.336742
 10
32.398559
 20
-82.293379
 10
32.901924
 20
-82.244917
 10
33.405258
 20
-82.191356
 10
33.908559
 20
-82.132699
 10
34.411823999999996
 20
-82.068945
 10
34.91505
 20
-82.000097
 10
35.418234999999996
 20
-81.926155
 10
35.921375
 20
-81.84712
 10
36.424468000000005
 20
-81.762994
 10
36.927512
 20
-81.673778
 10
37.237952
 20
-81.615575
 10
39.291358
 20
-85.037919
 10
40.346576
 20
-84.638936
 10
38.534339
 20
-74.822654
 10
37.052349
 20
-75.115526
 10
36.568602
 20
-75.206222
 10
36.084906000000004
 20
-75.292006
 10
35.601259999999996
 20
-75.37288
 10
35.11766
 20
-75.448845
 10
34.634105000000005
 20
-75.519903
 10
34.150591
 20
-75.586055
 10
33.667116
 20
-75.647301
 10
33.183677
 20
-75.703644
 10
32.700272
 20
-75.755083
 10
32.216896
 20
-75.801621
 10
31.733549
 20
-75.843258
 10
31.250225999999998
 20
-75.879994
 10
30.766925
 20
-75.911831
 10
30.283642
 20
-75.938769
 10
29.800373999999998
 20
-75.960808
 10
29.317118999999998
 20
-75.977949
 10
28.833874
 20
-75.990193
 10
28.350635
 20
-75.997539
 10
27.867398
 20
-75.999987
 10
27.384162
 20
-75.997539
 10
26.900923
 20
-75.990193
 10
26.417676999999998
 20
-75.977949
 10
25.934423
 20
-75.960808
 10
25.451155
 20
-75.938769
 10
24.967872
 20
-75.911831
 10
24.484571
 20
-75.879994
 10
24.001248
 20
-75.843258
 10
23.5179
 20
-75.801621
 10
23.034525000000002
 20
-75.755083
 10
22.55112
 20
-75.703644
 10
22.067681
 20
-75.647301
 10
21.584206000000002
 20
-75.586055
 10
21.100692
 20
-75.519903
 10
20.617137
 20
-75.448845
 10
20.133537
 20
-75.37288
 10
19.649891
 20
-75.292006
 10
19.166195000000002
 20
-75.206222
 10
18.682448
 20
-75.115526
 10
18.0
 20
-74.98066
 10
18.0
 20
-81.51934
 10
18.304292
 20
-81.579474
 10
18.807285
 20
-81.673778
  0
LWPOLYLINE
  5
102
330
17
100
AcDbEntity
  8
COSTURA
100
AcDbPolyline
 90
83
 70
1
 10
18.0
 20
-76.0
 10
18.49336992210241
 20
-76.0975
 10
18.986739844204823
 20
-76.19
 10
19.480109766307233
 20
-76.2775
 10
19.973479688409647
 20
-76.36
 10
20.466849610512057
 20
-76.4375
 10
20.960219532614467
 20
-76.51
 10
21.45358945471688
 20
-76.5775
 10
21.94695937681929
 20
-76.64
 10
22.440329298921704
 20
-76.6975
 10
22.933699221024114
 20
-76.75
 10
23.427069143126523
 20
-76.7975
 10
23.920439065228937
 20
-76.84
 10
24.413808987331347
 20
-76.8775
 10
24.90717890943376
 20
-76.91
 10
25.40054883153617
 20
-76.9375
 10
25.89391875363858
 20
-76.96
 10
26.38728867574099
 20
-76.9775
 10
26.880658597843407
 20
-76.99
 10
27.374028519945817
 20
-76.9975
 10
27.867398442048227
 20
-77.0
 10
28.360768364150637
 20
-76.9975
 10
28.85413828625305
 20
-76.99
 10
29.34750820835546
 20
-76.9775
 10
29.840878130457874
 20
-76.96
 10
30.334248052560284
 20
-76.9375
 10
30.827617974662694
 20
-76.91
 10
31.320987896765107
 20
-76.8775
 10
31.814357818867517
 20
-76.84
 10
32.30772774096993
 20
-76.7975
 10
32.80109766307234
 20
-76.75
 10
33.29446758517475
 20
-76.6975
 10
33.78783750727716
 20
-76.64
 10
34.28120742937958
 20
-76.5775
 10
34.77457735148198
 20
-76.51
 10
35.2679472735844
 20
-76.4375
 10
35.761317195686814
 20
-76.36
 10
36.25468711778922
 20
-76.2775
 10
36.748057039891634
 20
-76.19
 10
37.24142696199404
 20
-76.0975
 10
37.734796884096454
 20
-76.0
 10
38.93479688409646
 20
-82.5
 10
37.734796884096454
 20
-80.5
 10
37.24142696199404
 20
-80.5975
 10
36.748057039891634
 20
-80.69
 10
36.25468711778922
 20
-80.7775
 10
35.761317195686814
 20
-80.86
 10
35.2679472735844
 20
-80.9375
 10
34.77457735148198
 20
-81.01
 10
34.28120742937958
 20
-81.0775
 10
33.78783750727716
 20
-81.14
 10
33.29446758517475
 20
-81.1975
 10
32.80109766307234
 20
-81.25
 10
32.30772774096993
 20
-81.2975
 10
31.814357818867517
 20
-81.34
 10
31.320987896765107
 20
-81.3775
 10
30.827617974662694
 20
-81.41
 10
30.334248052560284
 20
-81.4375
 10
29.840878130457874
 20
-81.46
 10
29.34750820835546
 20
-81.4775
 10
28.85413828625305
 20
-81.49
 10
28.360768364150637
 20
-81.4975
 10
27.867398442048227
 20
-81.5
 10
27.374028519945817
 20
-81.4975
 10
26.880658597843407
 20
-81.49
 10
26.38728867574099
 20
-81.4775
 10
25.89391875363858
 20
-81.46
 10
25.40054883153617
 20
-81.4375
 10
24.90717890943376
 20
-81.41
 10
24.413808987331347
 20
-81.3775
 10
23.920439065228937
 20
-81.34
 10
23.427069143126523
 20
-81.2975
 10
22.933699221024114
 20
-81.25
 10
22.440329298921704
 20
-81.1975
 10
21.94695937681929
 20
-81.14
 10
21.45358945471688
 20
-81.0775
 10
20.960219532614467
 20
-81.01
 10
20.466849610512057
 20
-80.9375
 10
19.973479688409647
 20
-80.86
 10
19.480109766307233
 20
-80.7775
 10
18.986739844204823
 20
-80.69
 10
18.49336992210241
 20
-80.5975
 10
18.0
 20
-80.5
  0
LINE
  5
103
330
17
100
AcDbEntity
  8
DOBLEZ
100
AcDbLine
 10
18.0
 20
-76.0
 30
0.0
 11
18.0
 21
-82.5
 31
0.0
  0
LINE
  5
104
330
17
100
AcDbEntity
  8
HILO
100
AcDbLine
 10
18.5
 20
-76.5
 30
0.0
 11
37.234796884096454
 21
-76.5
 31
0.0
  0
LINE
  5
105
330
17
100
AcDbEntity
  8
HILO
100
AcDbLine
 10
37.234796884096454
 20
-76.5
 30
0.0
 11
36.12952369129299
 21
-76.03269798922962
 31
0.0
  0
LINE
  5
106
330
17
100
AcDbEntity
  8
HILO
100
AcDbLine
 10
37.234796884096454
 20
-76.5
 30
0.0
 11
36.12952369129299
 21
-76.96730201077038
 31
0.0
  0
LINE
  5
107
330
17
100
AcDbEntity
  8
HILO
100
AcDbLine
 10
18.5
 20
-76.5
 30
0.0
 11
19.605273192803462
 21
-76.96730201077038
 31
0.0
  0
LINE
  5
108
330
17
100
AcDbEntity
  8
HILO
100
AcDbLine
 10
18.5
 20
-76.5
 30
0.0
 11
19.605273192803462
 21
-76.03269798922962
 31
0.0
  0
TEXT
  5
109
330
17
100
AcDbEntity
  8
TEXTOS
100
AcDbText
 10
28.170349049341823
 20
-75.33839184889902
 30
0.0
 40
0.9
  1
CUELLO
 72
1
 11
28.170349049341823
 21
-75.33839184889902
 31
0.0
100
AcDbText
 73
2
  0
TEXT
  5
10A
330
17
100
AcDbEntity
  8
TEXTOS
100
AcDbText
 10
28.170349049341823
 20
-76.73839184889903
 30
0.0
 40
0.6
  1
Pieza N.07
 72
1
 11
28.170349049341823
 21
-76.73839184889903
 31
0.0
100
AcDbText
 73
2
  0
TEXT
  5
10B
330
17
100
AcDbEntity
  8
TEXTOS
100
AcDbText
 10
28.170349049341823
 20
-78.13839184889902
 30
0.0
 40
0.6
  1
Talla: M
 72
1
 11
28.170349049341823
 21
-78.13839184889902
 31
0.0
100
AcDbText
 73
2
  0
TEXT
  5
10C
330
17
100
AcDbEntity
  8
TEXTOS
100
AcDbText
 10
28.170349049341823
 20
-79.53839184889902
 30
0.0
 40
0.6
  1
Cortar: 2  (al doblez x2 (+ entretela))
 72
1
 11
28.170349049341823
 21
-79.53839184889902
 31
0.0
100
AcDbText
 73
2
  0
TEXT
  5
10D
330
17
100
AcDbEntity
  8
TEXTOS
100
AcDbText
 10
28.170349049341823
 20
-80.93839184889902
 30
0.0
 40
0.6
  1
AL DOBLEZ
 72
1
 11
28.170349049341823
 21
-80.93839184889902
 31
0.0
100
AcDbText
 73
2
  0
LWPOLYLINE
  5
10E
330
17
100
AcDbEntity
  8
CORTE
100
AcDbPolyline
 90
83
 70
1
 10
45.873372884096455
 20
-80.143101
 10
46.41652088409646
 20
-80.214052
 10
46.959687884096454
 20
-80.28095
 10
47.50287488409646
 20
-80.343797
 10
48.04607988409646
 20
-80.402591
 10
48.58930188409646
 20
-80.457332
 10
49.13253988409646
 20
-80.508019
 10
49.67579288409646
 20
-80.554653
 10
50.219058884096455
 20
-80.597233
 10
50.762336884096456
 20
-80.635758
 10
51.305626884096455
 20
-80.670229
 10
51.84892588409646
 20
-80.700645
 10
52.392233884096456
 20
-80.727006
 10
52.93554988409646
 20
-80.749311
 10
53.47887088409646
 20
-80.767562
 10
54.02219788409646
 20
-80.781756
 10
54.565527884096454
 20
-80.791896
 10
55.10886088409646
 20
-80.797979
 10
55.65219488409646
 20
-80.800007
 10
56.19552988409646
 20
-80.797979
 10
56.738862884096456
 20
-80.791896
 10
57.28219288409646
 20
-80.781756
 10
57.82551988409646
 20
-80.767562
 10
58.36884088409646
 20
-80.749311
 10
58.912156884096454
 20
-80.727006
 10
59.45546488409646
 20
-80.700645
 10
59.998763884096455
 20
-80.670229
 10
60.54205388409646
 20
-80.635758
 10
61.08533188409646
 20
-80.597233
 10
61.62859788409646
 20
-80.554653
 10
62.17185088409646
 20
-80.508019
 10
62.71508888409646
 20
-80.457332
 10
63.25831088409646
 20
-80.402591
 10
63.80151588409646
 20
-80.343797
 10
64.34470288409645
 20
-80.28095
 10
64.88786988409646
 20
-80.214052
 10
65.43101688409646
 20
-80.143101
 10
65.97414288409645
 20
-80.068099
 10
67.36959388409646
 20
-79.86498
 10
67.36959388409646
 20
-74.843904
 10
65.69330488409645
 20
-75.087901
 10
65.16469088409646
 20
-75.160899
 10
64.63609788409646
 20
-75.229948
 10
64.10752588409646
 20
-75.29505
 10
63.57897288409646
 20
-75.356203
 10
63.05043788409645
 20
-75.413409
 10
62.521919884096455
 20
-75.466668
 10
61.99341788409646
 20
-75.515981
 10
61.46493088409646
 20
-75.561347
 10
60.93645688409646
 20
-75.602767
 10
60.40799588409646
 20
-75.640242
 10
59.87954488409646
 20
-75.673771
 10
59.35110488409646
 20
-75.703355
 10
58.822672884096455
 20
-75.728994
 10
58.294248884096454
 20
-75.750689
 10
57.76583088409646
 20
-75.768438
 10
57.237416884096454
 20
-75.782244
 10
56.70900788409646
 20
-75.792104
 10
56.18060088409646
 20
-75.798021
 10
55.65219488409646
 20
-75.799993
 10
55.12378988409645
 20
-75.798021
 10
54.59538288409646
 20
-75.792104
 10
54.06697288409646
 20
-75.782244
 10
53.53855988409646
 20
-75.768438
 10
53.010141884096456
 20
-75.750689
 10
52.481717884096454
 20
-75.728994
 10
51.95328588409646
 20
-75.703355
 10
51.42484488409646
 20
-75.673771
 10
50.89639488409646
 20
-75.640242
 10
50.36793388409646
 20
-75.602767
 10
49.839459884096456
 20
-75.561347
 10
49.31097288409646
 20
-75.515981
 10
48.782470884096455
 20
-75.466668
 10
48.253952884096456
 20
-75.413409
 10
47.72541788409646
 20
-75.356203
 10
47.196864884096456
 20
-75.29505
 10
46.66829288409646
 20
-75.229948
 10
46.13969988409646
 20
-75.160899
 10
45.611085884096454
 20
-75.087901
 10
44.93479688409646
 20
-74.989462
 10
44.93479688409646
 20
-80.010538
 10
45.33024788409646
 20
-80.068099
 10
45.873372884096455
 20
-80.143101
  0
LWPOLYLINE
  5
10F
330
17
100
AcDbEntity
  8
COSTURA
100
AcDbPolyline
 90
82
 70
1
 10
44.93479688409646
 20
-76.0
 10
45.47066680619887
 20
-76.078
 10
46.00653672830128
 20
-76.152
 10
46.54240665040369
 20
-76.222
 10
47.078276572506105
 20
-76.288
 10
47.61414649460851
 20
-76.35
 10
48.150016416710926
 20
-76.408
 10
48.68588633881333
 20
-76.462
 10
49.22175626091575
 20
-76.512
 10
49.75762618301816
 20
-76.558
 10
50.29349610512057
 20
-76.6
 10
50.82936602722298
 20
-76.638
 10
51.365235949325395
 20
-76.672
 10
51.9011058714278
 20
-76.702
 10
52.436975793530216
 20
-76.728
 10
52.97284571563263
 20
-76.75
 10
53.50871563773504
 20
-76.768
 10
54.04458555983745
 20
-76.782
 10
54.580455481939865
 20
-76.792
 10
55.11632540404227
 20
-76.798
 10
55.652195326144685
 20
-76.8
 10
56.1880652482471
 20
-76.798
 10
56.723935170349506
 20
-76.792
 10
57.25980509245191
 20
-76.782
 10
57.79567501455433
 20
-76.768
 10
58.33154493665674
 20
-76.75
 10
58.867414858759155
 20
-76.728
 10
59.40328478086156
 20
-76.702
 10
59.939154702963975
 20
-76.672
 10
60.47502462506638
 20
-76.638
 10
61.010894547168796
 20
-76.6
 10
61.54676446927121
 20
-76.558
 10
62.08263439137362
 20
-76.512
 10
62.61850431347603
 20
-76.462
 10
63.154374235578445
 20
-76.408
 10
63.69024415768085
 20
-76.35
 10
64.22611407978326
 20
-76.288
 10
64.76198400188568
 20
-76.222
 10
65.29785392398809
 20
-76.152
 10
65.83372384609049
 20
-76.078
 10
66.36959376819291
 20
-76.0
 10
66.36959376819291
 20
-79.0
 10
65.83372384609049
 20
-79.078
 10
65.29785392398809
 20
-79.152
 10
64.76198400188568
 20
-79.222
 10
64.22611407978326
 20
-79.288
 10
63.69024415768085
 20
-79.35
 10
63.154374235578445
 20
-79.408
 10
62.61850431347603
 20
-79.462
 10
62.08263439137362
 20
-79.512
 10
61.54676446927121
 20
-79.55799999999999
 10
61.010894547168796
 20
-79.6
 10
60.47502462506638
 20
-79.638
 10
59.939154702963975
 20
-79.672
 10
59.40328478086156
 20
-79.702
 10
58.867414858759155
 20
-79.728
 10
58.33154493665674
 20
-79.75
 10
57.79567501455433
 20
-79.768
 10
57.25980509245191
 20
-79.782
 10
56.723935170349506
 20
-79.792
 10
56.1880652482471
 20
-79.798
 10
55.652195326144685
 20
-79.8
 10
55.11632540404227
 20
-79.798
 10
54.580455481939865
 20
-79.792
 10
54.04458555983745
 20
-79.782
 10
53.50871563773504
 20
-79.768
 10
52.97284571563263
 20
-79.75
 10
52.436975793530216
 20
-79.728
 10
51.9011058714278
 20
-79.702
 10
51.365235949325395
 20
-79.672
 10
50.82936602722298
 20
-79.638
 10
50.29349610512057
 20
-79.6
 10
49.75762618301816
 20
-79.55799999999999
 10
49.22175626091575
 20
-79.512
 10
48.68588633881333
 20
-79.462
 10
48.150016416710926
 20
-79.408
 10
47.61414649460851
 20
-79.35
 10
47.078276572506105
 20
-79.288
 10
46.54240665040369
 20
-79.222
 10
46.00653672830128
 20
-79.152
 10
45.47066680619887
 20
-79.078
 10
44.93479688409646
 20
-79.0
  0
LINE
  5
110
330
17
100
AcDbEntity
  8
DOBLEZ
100
AcDbLine
 10
44.93479688409646
 20
-76.0
 30
0.0
 11
44.93479688409646
 21
-79.8
 31
0.0
  0
LINE
  5
111
330
17
100
AcDbEntity
  8
HILO
100
AcDbLine
 10
45.43479688409646
 20
-76.4
 30
0.0
 11
65.86959376819291
 21
-76.4
 31
0.0
  0
LINE
  5
112
330
17
100
AcDbEntity
  8
HILO
100
AcDbLine
 10
65.86959376819291
 20
-76.4
 30
0.0
 11
64.76432057538945
 21
-75.93269798922962
 31
0.0
  0
LINE
  5
113
330
17
100
AcDbEntity
  8
HILO
100
AcDbLine
 10
65.86959376819291
 20
-76.4
 30
0.0
 11
64.76432057538945
 21
-76.86730201077037
 31
0.0
  0
LINE
  5
114
330
17
100
AcDbEntity
  8
HILO
100
AcDbLine
 10
45.43479688409646
 20
-76.4
 30
0.0
 11
46.540070076899916
 21
-76.86730201077037
 31
0.0
  0
LINE
  5
115
330
17
100
AcDbEntity
  8
HILO
100
AcDbLine
 10
45.43479688409646
 20
-76.4
 30
0.0
 11
46.540070076899916
 21
-75.93269798922962
 31
0.0
  0
CIRCLE
  5
116
330
17
100
AcDbEntity
  8
BOTONES
100
AcDbCircle
 10
65.36959376819291
 20
-77.5
 30
0.0
 40
0.55
  0
TEXT
  5
117
330
17
100
AcDbEntity
  8
TEXTOS
100
AcDbText
 10
55.65219532614468
 20
-74.43299999999999
 30
0.0
 40
0.9
  1
PIE DE CUELLO
 72
1
 11
55.65219532614468
 21
-74.43299999999999
 31
0.0
100
AcDbText
 73
2
  0
TEXT
  5
118
330
17
100
AcDbEntity
  8
TEXTOS
100
AcDbText
 10
55.65219532614468
 20
-75.833
 30
0.0
 40
0.6
  1
Pieza N.08
 72
1
 11
55.65219532614468
 21
-75.833
 31
0.0
100
AcDbText
 73
2
  0
TEXT
  5
119
330
17
100
AcDbEntity
  8
TEXTOS
100
AcDbText
 10
55.65219532614468
 20
-77.233
 30
0.0
 40
0.6
  1
Talla: M
 72
1
 11
55.65219532614468
 21
-77.233
 31
0.0
100
AcDbText
 73
2
  0
TEXT
  5
11A
330
17
100
AcDbEntity
  8
TEXTOS
100
AcDbText
 10
55.65219532614468
 20
-78.633
 30
0.0
 40
0.6
  1
Cortar: 2  (al doblez x2 (+ entretela))
 72
1
 11
55.65219532614468
 21
-78.633
 31
0.0
100
AcDbText
 73
2
  0
TEXT
  5
11B
330
17
100
AcDbEntity
  8
TEXTOS
100
AcDbText
 10
55.65219532614468
 20
-80.033
 30
0.0
 40
0.6
  1
AL DOBLEZ
 72
1
 11
55.65219532614468
 21
-80.033
 31
0.0
100
AcDbText
 73
2
  0
LWPOLYLINE
  5
11C
330
17
100
AcDbEntity
  8
CORTE
100
AcDbPolyline
 90
42
 70
1
 10
71.36959376819291
 20
-147.0
 10
79.37308376819291
 20
-147.0
 10
79.17015476819292
 20
-88.759307
 10
83.39059776819292
 20
-75.992468
 10
80.87297876819292
 20
-74.733658
 10
80.17066276819291
 20
-75.663315
 10
79.96928576819292
 20
-75.93046
 10
79.76784076819291
 20
-76.198866
 10
79.56661376819292
 20
-76.468745
 10
79.36589376819292
 20
-76.740316
 10
79.16597176819292
 20
-77.013795
 10
78.96714276819291
 20
-77.289401
 10
78.76970576819292
 20
-77.567357
 10
78.57396076819292
 20
-77.847882
 10
78.38021276819292
 20
-78.131199
 10
78.18876876819292
 20
-78.417531
 10
77.99994376819292
 20
-78.707098
 10
77.81405076819291
 20
-79.000124
 10
77.63157076819292
 20
-79.296566
 10
77.45361876819291
 20
-79.594884
 10
77.28046376819292
 20
-79.892653
 10
77.11126176819292
 20
-80.1886
 10
76.94494876819292
 20
-80.481913
 10
76.78050176819292
 20
-80.77179
 10
76.61694076819292
 20
-81.057441
 10
76.45332976819292
 20
-81.338086
 10
76.28877576819292
 20
-81.612961
 10
76.12242476819291
 20
-81.881324
 10
75.95346276819292
 20
-82.142462
 10
75.78110576819292
 20
-82.395703
 10
75.60459176819292
 20
-82.640427
 10
75.42315976819292
 20
-82.876096
 10
75.23511776819292
 20
-83.103375
 10
75.03767176819292
 20
-83.325254
 10
74.82974376819291
 20
-83.544454
 10
74.61203476819291
 20
-83.761832
 10
74.38549376819292
 20
-83.978071
 10
74.15113776819291
 20
-84.19388599999999
 10
73.91003376819292
 20
-84.410031
 10
73.69430476819292
 20
-84.6
 10
71.36959376819291
 20
-84.6
 10
71.36959376819291
 20
-147.0
  0
LWPOLYLINE
  5
11D
330
17
100
AcDbEntity
  8
COSTURA
100
AcDbPolyline
 90
42
 70
1
 10
72.36959376819291
 20
-85.6
 10
74.06959376819292
 20
-85.6
 10
74.3225069621137
 20
-85.37926762715344
 10
74.57424425856999
 20
-85.15758961685655
 10
74.82362976009729
 20
-84.93402033165904
 10
75.06948756923111
 20
-84.7076141341106
 10
75.31064178850696
 20
-84.47742538676087
 10
75.54591652046032
 20
-84.24250845215958
 10
75.77413586762673
 20
-84.0019176928564
 10
75.99412393254167
 20
-83.754707471401
 10
76.20483141385093
 20
-83.5000330436073
 10
76.40650003412175
 20
-83.23807857223845
 10
76.6001259741856
 20
-82.96962950043523
 10
76.78671489158933
 20
-82.69547882399345
 10
76.96727244387982
 20
-82.41641953870894
 10
77.14280428860391
 20
-82.13324464037747
 10
77.3143160833085
 20
-81.84674712479489
 10
77.48281348554042
 20
-81.55771998775701
 10
77.64930215284656
 20
-81.26695622505963
 10
77.81478774277376
 20
-80.97524883249858
 10
77.98027591286889
 20
-80.68339080586966
 10
78.14677232067882
 20
-80.39217514096869
 10
78.31528262375042
 20
-80.10239483359149
 10
78.48681233432465
 20
-79.81484276618045
 10
78.66209179502889
 20
-79.53009716082548
 10
78.84100409674913
 20
-79.24807529687985
 10
79.02326979017647
 20
-78.96856765577364
 10
79.20860942600198
 20
-78.69136471893687
 10
79.39674355491672
 20
-78.4162569677996
 10
79.5873927276118
 20
-78.14303488379188
 10
79.78027749477826
 20
-77.87148894834378
 10
79.9751184071072
 20
-77.60140964288532
 10
80.17163601528968
 20
-77.33258744884655
 10
80.36955087001678
 20
-77.06481284765754
 10
80.56858352197958
 20
-76.79787632074833
 10
80.76845452186915
 20
-76.53156834954898
 10
80.96888442037657
 20
-76.26567941548952
 10
81.16959376819291
 20
-76.0
 10
82.16959376819291
 20
-76.5
 10
78.16959376819291
 20
-88.6
 10
78.36959376819291
 20
-146.0
 10
72.36959376819291
 20
-146.0
  0
LINE
  5
11E
330
17
100
AcDbEntity
  8
HILO
100
AcDbLine
 10
75.36959376819291
 20
-90.6
 30
0.0
 11
75.36959376819291
 21
-143.0
 31
0.0
  0
LINE
  5
11F
330
17
100
AcDbEntity
  8
HILO
100
AcDbLine
 10
75.36959376819291
 20
-143.0
 30
0.0
 11
75.8368957789633
 21
-141.89472680719655
 31
0.0
  0
LINE
  5
120
330
17
100
AcDbEntity
  8
HILO
100
AcDbLine
 10
75.36959376819291
 20
-143.0
 30
0.0
 11
74.90229175742253
 21
-141.89472680719655
 31
0.0
  0
LINE
  5
121
330
17
100
AcDbEntity
  8
HILO
100
AcDbLine
 10
75.36959376819291
 20
-90.6
 30
0.0
 11
74.90229175742253
 21
-91.70527319280346
 31
0.0
  0
LINE
  5
122
330
17
100
AcDbEntity
  8
HILO
100
AcDbLine
 10
75.36959376819291
 20
-90.6
 30
0.0
 11
75.8368957789633
 21
-91.70527319280346
 31
0.0
  0
TEXT
  5
123
330
17
100
AcDbEntity
  8
TEXTOS
100
AcDbText
 10
75.57746669358204
 20
-110.73211278087706
 30
0.0
 40
0.9
  1
VISTA DELANTERA
 72
1
 11
75.57746669358204
 21
-110.73211278087706
 31
0.0
100
AcDbText
 73
2
  0
TEXT
  5
124
330
17
100
AcDbEntity
  8
TEXTOS
100
AcDbText
 10
75.57746669358204
 20
-112.13211278087707
 30
0.0
 40
0.6
  1
Pieza N.09
 72
1
 11
75.57746669358204
 21
-112.13211278087707
 31
0.0
100
AcDbText
 73
2
  0
TEXT
  5
125
330
17
100
AcDbEntity
  8
TEXTOS
100
AcDbText
 10
75.57746669358204
 20
-113.53211278087707
 30
0.0
 40
0.6
  1
Talla: M
 72
1
 11
75.57746669358204
 21
-113.53211278087707
 31
0.0
100
AcDbText
 73
2
  0
TEXT
  5
126
330
17
100
AcDbEntity
  8
TEXTOS
100
AcDbText
 10
75.57746669358204
 20
-114.93211278087706
 30
0.0
 40
0.6
  1
Cortar: 2  (par: izq + der)
 72
1
 11
75.57746669358204
 21
-114.93211278087706
 31
0.0
100
AcDbText
 73
2
  0
LWPOLYLINE
  5
127
330
17
100
AcDbEntity
  8
CORTE
100
AcDbPolyline
 90
6
 70
1
 10
87.16959376819291
 20
-86.271905
 10
94.16959376819291
 20
-90.681905
 10
101.16959376819291
 20
-86.271905
 10
101.16959376819291
 20
-75.0
 10
87.16959376819291
 20
-75.0
 10
87.16959376819291
 20
-86.271905
  0
LWPOLYLINE
  5
128
330
17
100
AcDbEntity
  8
COSTURA
100
AcDbPolyline
 90
5
 70
1
 10
88.16959376819291
 20
-76.0
 10
100.16959376819291
 20
-76.0
 10
100.16959376819291
 20
-85.72
 10
94.16959376819291
 20
-89.5
 10
88.16959376819291
 20
-85.72
  0
LINE
  5
129
330
17
100
AcDbEntity
  8
HILO
100
AcDbLine
 10
94.16959376819291
 20
-77.0
 30
0.0
 11
94.16959376819291
 21
-85.72
 31
0.0
  0
LINE
  5
12A
330
17
100
AcDbEntity
  8
HILO
100
AcDbLine
 10
94.16959376819291
 20
-85.72
 30
0.0
 11
94.6368957789633
 21
-84.61472680719653
 31
0.0
  0
LINE
  5
12B
330
17
100
AcDbEntity
  8
HILO
100
AcDbLine
 10
94.16959376819291
 20
-85.72
 30
0.0
 11
93.70229175742253
 21
-84.61472680719653
 31
0.0
  0
LINE
  5
12C
330
17
100
AcDbEntity
  8
HILO
100
AcDbLine
 10
94.16959376819291
 20
-77.0
 30
0.0
 11
93.70229175742253
 21
-78.10527319280347
 31
0.0
  0
LINE
  5
12D
330
17
100
AcDbEntity
  8
HILO
100
AcDbLine
 10
94.16959376819291
 20
-77.0
 30
0.0
 11
94.6368957789633
 21
-78.10527319280347
 31
0.0
  0
LINE
  5
12E
330
17
100
AcDbEntity
  8
CONSTRUCCION
100
AcDbLine
 10
88.16959376819291
 20
-83.22
 30
0.0
 11
100.16959376819291
 21
-83.22
 31
0.0
  0
TEXT
  5
12F
330
17
100
AcDbEntity
  8
REFERENCIAS
100
AcDbText
 10
94.16959376819291
 20
-77.5
 30
0.0
 40
0.5
  1
boca
 11
94.16959376819291
 21
-77.5
 31
0.0
100
AcDbText
  0
TEXT
  5
130
330
17
100
AcDbEntity
  8
TEXTOS
100
AcDbText
 10
94.16959376819291
 20
-79.15627906976744
 30
0.0
 40
0.9
  1
BOLSILLO
 72
1
 11
94.16959376819291
 21
-79.15627906976744
 31
0.0
100
AcDbText
 73
2
  0
TEXT
  5
131
330
17
100
AcDbEntity
  8
TEXTOS
100
AcDbText
 10
94.16959376819291
 20
-80.55627906976744
 30
0.0
 40
0.6
  1
Pieza N.10
 72
1
 11
94.16959376819291
 21
-80.55627906976744
 31
0.0
100
AcDbText
 73
2
  0
TEXT
  5
132
330
17
100
AcDbEntity
  8
TEXTOS
100
AcDbText
 10
94.16959376819291
 20
-81.95627906976745
 30
0.0
 40
0.6
  1
Talla: M
 72
1
 11
94.16959376819291
 21
-81.95627906976745
 31
0.0
100
AcDbText
 73
2
  0
TEXT
  5
133
330
17
100
AcDbEntity
  8
TEXTOS
100
AcDbText
 10
94.16959376819291
 20
-83.35627906976744
 30
0.0
 40
0.6
  1
Cortar: 1  (1 (opcional))
 72
1
 11
94.16959376819291
 21
-83.35627906976744
 31
0.0
100
AcDbText
 73
2
  0
ENDSEC
  0
SECTION
  2
OBJECTS
  0
DICTIONARY
  5
A
330
0
100
AcDbDictionary
281
1
  3
ACAD_COLOR
350
B
  3
ACAD_GROUP
350
C
  3
ACAD_LAYOUT
350
D
  3
ACAD_MATERIAL
350
E
  3
ACAD_MLEADERSTYLE
350
F
  3
ACAD_MLINESTYLE
350
10
  3
ACAD_PLOTSETTINGS
350
11
  3
ACAD_PLOTSTYLENAME
350
12
  3
ACAD_SCALELIST
350
14
  3
ACAD_TABLESTYLE
350
15
  3
ACAD_VISUALSTYLE
350
16
  3
EZDXF_META
350
2D
  0
DICTIONARY
  5
B
330
A
100
AcDbDictionary
281
1
  0
DICTIONARY
  5
C
330
A
100
AcDbDictionary
281
1
  0
DICTIONARY
  5
D
330
A
100
AcDbDictionary
281
1
  3
Model
350
1A
  3
Layout1
350
1E
  0
DICTIONARY
  5
E
330
A
100
AcDbDictionary
281
1
  3
ByBlock
350
1F
  3
ByLayer
350
20
  3
Global
350
21
  0
DICTIONARY
  5
F
330
A
100
AcDbDictionary
281
1
  3
Standard
350
2C
  0
DICTIONARY
  5
10
330
A
100
AcDbDictionary
281
1
  3
Standard
350
22
  0
DICTIONARY
  5
11
330
A
100
AcDbDictionary
281
1
  0
ACDBDICTIONARYWDFLT
  5
12
330
A
100
AcDbDictionary
281
1
  3
Normal
350
13
100
AcDbDictionaryWithDefault
340
13
  0
ACDBPLACEHOLDER
  5
13
330
12
  0
DICTIONARY
  5
14
330
A
100
AcDbDictionary
281
1
  0
DICTIONARY
  5
15
330
A
100
AcDbDictionary
281
1
  0
DICTIONARY
  5
16
330
A
100
AcDbDictionary
281
1
  3
2dWireframe
350
5A
  3
Basic
350
5B
  3
Brighten
350
5C
  3
ColorChange
350
5D
  3
Conceptual
350
5E
  3
Dim
350
5F
  3
EdgeColorOff
350
60
  3
Facepattern
350
61
  3
Flat
350
62
  3
FlatWithEdges
350
63
  3
Gouraud
350
64
  3
GouraudWithEdges
350
65
  3
Hidden
350
66
  3
JitterOff
350
67
  3
Linepattern
350
68
  3
Modeling
350
69
  3
OverhangOff
350
6A
  3
Realistic
350
6B
  3
Shaded
350
6C
  3
Shaded with edges
350
6D
  3
Shades of Gray
350
6E
  3
Sketchy
350
6F
  3
Thicken
350
70
  3
Wireframe
350
71
  3
X-Ray
350
72
  0
LAYOUT
  5
1A
330
D
100
AcDbPlotSettings
  1

  4
A3
  6

 40
7.5
 41
20.0
 42
7.5
 43
20.0
 44
420.0
 45
297.0
 46
0.0
 47
0.0
 48
0.0
 49
0.0
140
0.0
141
0.0
142
1.0
143
1.0
 70
1024
 72
1
 73
0
 74
5
  7

 75
16
 76
0
 77
2
 78
300
147
1.0
148
0.0
149
0.0
100
AcDbLayout
  1
Model
 70
1
 71
0
 10
0.0
 20
0.0
 11
420.0
 21
297.0
 12
0.0
 22
0.0
 32
0.0
 14
1e+20
 24
1e+20
 34
1e+20
 15
-1e+20
 25
-1e+20
 35
-1e+20
146
0.0
 13
0.0
 23
0.0
 33
0.0
 16
1.0
 26
0.0
 36
0.0
 17
0.0
 27
1.0
 37
0.0
 76
1
330
17
  0
LAYOUT
  5
1E
330
D
100
AcDbPlotSettings
  1

  4
A3
  6

 40
7.5
 41
20.0
 42
7.5
 43
20.0
 44
420.0
 45
297.0
 46
0.0
 47
0.0
 48
0.0
 49
0.0
140
0.0
141
0.0
142
1.0
143
1.0
 70
0
 72
1
 73
0
 74
5
  7

 75
16
 76
0
 77
2
 78
300
147
1.0
148
0.0
149
0.0
100
AcDbLayout
  1
Layout1
 70
1
 71
1
 10
0.0
 20
0.0
 11
420.0
 21
297.0
 12
0.0
 22
0.0
 32
0.0
 14
1e+20
 24
1e+20
 34
1e+20
 15
-1e+20
 25
-1e+20
 35
-1e+20
146
0.0
 13
0.0
 23
0.0
 33
0.0
 16
1.0
 26
0.0
 36
0.0
 17
0.0
 27
1.0
 37
0.0
 76
1
330
1B
  0
MATERIAL
  5
1F
102
{ACAD_REACTORS
330
E
102
}
330
E
100
AcDbMaterial
  1
ByBlock
  2

 70
0
 40
1.0
 71
1
 41
1.0
 91
-1023410177
 42
1.0
 72
1
  3

 73
1
 74
1
 75
1
 44
0.5
 73
0
 45
1.0
 46
1.0
 77
1
  4

 78
1
 79
1
170
1
 48
1.0
171
1
  6

172
1
173
1
174
1
140
1.0
141
1.0
175
1
  7

176
1
177
1
178
1
143
1.0
179
1
  8

270
1
271
1
272
1
145
1.0
146
1.0
273
1
  9

274
1
275
1
276
1
 42
1.0
 72
1
  3

 73
1
 74
1
 75
1
 94
63
  0
MATERIAL
  5
20
102
{ACAD_REACTORS
330
E
102
}
330
E
100
AcDbMaterial
  1
ByLayer
  2

 70
0
 40
1.0
 71
1
 41
1.0
 91
-1023410177
 42
1.0
 72
1
  3

 73
1
 74
1
 75
1
 44
0.5
 73
0
 45
1.0
 46
1.0
 77
1
  4

 78
1
 79
1
170
1
 48
1.0
171
1
  6

172
1
173
1
174
1
140
1.0
141
1.0
175
1
  7

176
1
177
1
178
1
143
1.0
179
1
  8

270
1
271
1
272
1
145
1.0
146
1.0
273
1
  9

274
1
275
1
276
1
 42
1.0
 72
1
  3

 73
1
 74
1
 75
1
 94
63
  0
MATERIAL
  5
21
102
{ACAD_REACTORS
330
E
102
}
330
E
100
AcDbMaterial
  1
Global
  2

 70
0
 40
1.0
 71
1
 41
1.0
 91
-1023410177
 42
1.0
 72
1
  3

 73
1
 74
1
 75
1
 44
0.5
 73
0
 45
1.0
 46
1.0
 77
1
  4

 78
1
 79
1
170
1
 48
1.0
171
1
  6

172
1
173
1
174
1
140
1.0
141
1.0
175
1
  7

176
1
177
1
178
1
143
1.0
179
1
  8

270
1
271
1
272
1
145
1.0
146
1.0
273
1
  9

274
1
275
1
276
1
 42
1.0
 72
1
  3

 73
1
 74
1
 75
1
 94
63
  0
MLINESTYLE
  5
22
102
{ACAD_REACTORS
330
10
102
}
330
10
100
AcDbMlineStyle
  2
Standard
 70
0
  3

 62
256
 51
90.0
 52
90.0
 71
2
 49
0.5
 62
256
  6
BYLAYER
 49
-0.5
 62
256
  6
BYLAYER
  0
MLEADERSTYLE
  5
2C
102
{ACAD_REACTORS
330
F
102
}
330
F
100
AcDbMLeaderStyle
179
2
170
2
171
1
172
0
 90
2
 40
0.0
 41
0.0
173
1
 91
-1056964608
 92
-2
290
1
 42
2.0
291
1
 43
8.0
  3
Standard
 44
4.0
300

342
29
174
1
175
1
176
0
178
1
 93
-1056964608
 45
4.0
292
0
297
0
 46
4.0
 94
-1056964608
 47
1.0
 49
1.0
140
1.0
294
1
141
0.0
177
0
142
1.0
295
0
296
0
143
3.75
271
0
272
9
273
9
  0
DICTIONARY
  5
2D
330
A
100
AcDbDictionary
280
1
281
1
  3
CREATED_BY_EZDXF
350
2E
  3
WRITTEN_BY_EZDXF
350
136
  0
DICTIONARYVAR
  5
2E
330
2D
100
DictionaryVariables
280
0
  1
1.4.4 @ 2026-07-13T19:20:11.531002+00:00
  0
VISUALSTYLE
  5
5A
102
{ACAD_REACTORS
330
16
102
}
330
16
100
AcDbVisualStyle
  2
2dWireframe
 70
4
177
3
291
0
 70
58
 90
2
176
1
 90
2
176
1
 90
0
176
1
 90
0
176
1
 40
0.6
176
1
 40
30.0
176
1
 62
7
420
16777215
176
1
 90
1
176
1
 90
4
176
1
 62
7
176
1
 62
257
176
1
 90
1
176
1
 90
1
176
1
 40
1.0
176
1
 90
8
176
1
 62
7
176
1
 40
1.0
176
1
 90
1
176
1
 90
6
176
1
 90
2
176
1
 62
7
176
1
 90
5
176
1
 90
0
176
1
 90
0
176
1
290
0
176
1
 90
1
176
1
 40
0.0
176
1
 90
0
176
1
290
1
176
1
290
1
176
1
290
0
176
1
290
0
176
1
290
0
176
1
290
0
176
1
290
0
176
1
290
0
176
1
290
0
176
1
 90
50
176
1
 40
0.0
176
1
 40
1.0
176
1
 90
0
176
1
 62
18
420
0
176
1
 90
50
176
1
 90
3
176
1
 62
5
420
255
176
1
290
0
176
1
 90
50
176
1
 90
50
176
1
 90
50
176
1
290
0
176
1
 90
50
176
1
 62
256
176
0
 40
1.0
176
0
 90
2
176
1
  1
strokes_ogs.tif
176
1
290
0
176
1
 40
1.0
176
1
 40
1.0
176
1
  0
VISUALSTYLE
  5
5B
102
{ACAD_REACTORS
330
16
102
}
330
16
100
AcDbVisualStyle
  2
Basic
 70
7
177
3
291
1
 70
58
 90
2
176
1
 90
2
176
1
 90
0
176
1
 90
1
176
1
 40
0.6
176
1
 40
30.0
176
1
 62
7
420
16777215
176
1
 90
1
176
1
 90
4
176
1
 62
7
176
1
 62
257
176
1
 90
1
176
1
 90
1
176
1
 40
1.0
176
1
 90
8
176
1
 62
7
176
1
 40
1.0
176
1
 90
1
176
1
 90
6
176
1
 90
2
176
1
 62
7
176
1
 90
5
176
1
 90
0
176
1
 90
0
176
1
290
0
176
1
 90
1
176
1
 40
0.0
176
1
 90
0
176
1
290
0
176
1
290
1
176
1
290
1
176
1
290
0
176
1
290
0
176
1
290
0
176
1
290
0
176
1
290
0
176
1
290
0
176
1
 90
50
176
1
 40
0.0
176
1
 40
1.0
176
1
 90
0
176
1
 62
18
420
0
176
1
 90
50
176
1
 90
3
176
1
 62
5
420
255
176
1
290
0
176
1
 90
50
176
1
 90
50
176
1
 90
50
176
1
290
0
176
1
 90
50
176
1
 62
256
176
0
 40
1.0
176
0
 90
2
176
1
  1
strokes_ogs.tif
176
1
290
0
176
1
 40
1.0
176
1
 40
1.0
176
1
  0
VISUALSTYLE
  5
5C
102
{ACAD_REACTORS
330
16
102
}
330
16
100
AcDbVisualStyle
  2
Brighten
 70
12
177
3
291
1
 70
58
 90
2
176
1
 90
2
176
1
 90
0
176
1
 90
2
176
1
 40
0.6
176
1
 40
30.0
176
1
 62
7
420
16777215
176
1
 90
1
176
1
 90
4
176
1
 62
7
176
1
 62
257
176
1
 90
1
176
1
 90
1
176
1
 40
1.0
176
1
 90
8
176
1
 62
7
176
1
 40
1.0
176
1
 90
1
176
1
 90
6
176
1
 90
2
176
1
 62
7
176
1
 90
5
176
1
 90
0
176
1
 90
0
176
1
290
0
176
1
 90
1
176
1
 40
0.0
176
1
 90
0
176
1
290
0
176
1
290
1
176
1
290
1
176
1
290
0
176
1
290
0
176
1
290
0
176
1
290
0
176
1
290
0
176
1
290
0
176
1
 90
50
176
1
 40
0.0
176
1
 40
1.0
176
1
 90
0
176
1
 62
18
420
0
176
1
 90
50
176
1
 90
3
176
1
 62
5
420
255
176
1
290
0
176
1
 90
50
176
1
 90
50
176
1
 90
50
176
1
290
0
176
1
 90
50
176
1
 62
256
176
0
 40
1.0
176
0
 90
2
176
1
  1
strokes_ogs.tif
176
1
290
0
176
1
 40
1.0
176
1
 40
1.0
176
1
  0
VISUALSTYLE
  5
5D
102
{ACAD_REACTORS
330
16
102
}
330
16
100
AcDbVisualStyle
  2
ColorChange
 70
16
177
3
291
1
 70
58
 90
2
176
1
 90
2
176
1
 90
0
176
1
 90
2
176
1
 40
0.6
176
1
 40
30.0
176
1
 62
7
420
16777215
176
1
 90
1
176
1
 90
4
176
1
 62
7
176
1
 62
257
176
1
 90
1
176
1
 90
1
176
1
 40
1.0
176
1
 90
8
176
1
 62
7
176
1
 40
1.0
176
1
 90
1
176
1
 90
6
176
1
 90
2
176
1
 62
7
176
1
 90
5
176
1
 90
0
176
1
 90
0
176
1
290
0
176
1
 90
1
176
1
 40
0.0
176
1
 90
0
176
1
290
0
176
1
290
1
176
1
290
1
176
1
290
0
176
1
290
0
176
1
290
0
176
1
290
0
176
1
290
0
176
1
290
0
176
1
 90
50
176
1
 40
0.0
176
1
 40
1.0
176
1
 90
0
176
1
 62
18
420
0
176
1
 90
50
176
1
 90
3
176
1
 62
5
420
255
176
1
290
0
176
1
 90
50
176
1
 90
50
176
1
 90
50
176
1
290
0
176
1
 90
50
176
1
 62
256
176
0
 40
1.0
176
0
 90
2
176
1
  1
strokes_ogs.tif
176
1
290
0
176
1
 40
1.0
176
1
 40
1.0
176
1
  0
VISUALSTYLE
  5
5E
102
{ACAD_REACTORS
330
16
102
}
330
16
100
AcDbVisualStyle
  2
Conceptual
 70
9
177
3
291
0
 70
58
 90
2
176
1
 90
2
176
1
 90
0
176
1
 90
3
176
1
 40
0.6
176
1
 40
30.0
176
1
 62
7
420
16777215
176
1
 90
1
176
1
 90
4
176
1
 62
7
176
1
 62
257
176
1
 90
1
176
1
 90
1
176
1
 40
1.0
176
1
 90
8
176
1
 62
7
176
1
 40
1.0
176
1
 90
1
176
1
 90
6
176
1
 90
2
176
1
 62
7
176
1
 90
5
176
1
 90
0
176
1
 90
0
176
1
290
0
176
1
 90
1
176
1
 40
0.0
176
1
 90
0
176
1
290
0
176
1
290
1
176
1
290
1
176
1
290
0
176
1
290
0
176
1
290
0
176
1
290
0
176
1
290
0
176
1
290
0
176
1
 90
50
176
1
 40
0.0
176
1
 40
1.0
176
1
 90
0
176
1
 62
18
420
0
176
1
 90
50
176
1
 90
3
176
1
 62
5
420
255
176
1
290
0
176
1
 90
50
176
1
 90
50
176
1
 90
50
176
1
290
0
176
1
 90
50
176
1
 62
256
176
0
 40
1.0
176
0
 90
2
176
1
  1
strokes_ogs.tif
176
1
290
0
176
1
 40
1.0
176
1
 40
1.0
176
1
  0
VISUALSTYLE
  5
5F
102
{ACAD_REACTORS
330
16
102
}
330
16
100
AcDbVisualStyle
  2
Dim
 70
11
177
3
291
1
 70
58
 90
2
176
1
 90
2
176
1
 90
0
176
1
 90
2
176
1
 40
0.6
176
1
 40
30.0
176
1
 62
7
420
16777215
176
1
 90
1
176
1
 90
4
176
1
 62
7
176
1
 62
257
176
1
 90
1
176
1
 90
1
176
1
 40
1.0
176
1
 90
8
176
1
 62
7
176
1
 40
1.0
176
1
 90
1
176
1
 90
6
176
1
 90
2
176
1
 62
7
176
1
 90
5
176
1
 90
0
176
1
 90
0
176
1
290
0
176
1
 90
1
176
1
 40
0.0
176
1
 90
0
176
1
290
0
176
1
290
1
176
1
290
1
176
1
290
0
176
1
290
0
176
1
290
0
176
1
290
0
176
1
290
0
176
1
290
0
176
1
 90
50
176
1
 40
0.0
176
1
 40
1.0
176
1
 90
0
176
1
 62
18
420
0
176
1
 90
50
176
1
 90
3
176
1
 62
5
420
255
176
1
290
0
176
1
 90
50
176
1
 90
50
176
1
 90
50
176
1
290
0
176
1
 90
50
176
1
 62
256
176
0
 40
1.0
176
0
 90
2
176
1
  1
strokes_ogs.tif
176
1
290
0
176
1
 40
1.0
176
1
 40
1.0
176
1
  0
VISUALSTYLE
  5
60
102
{ACAD_REACTORS
330
16
102
}
330
16
100
AcDbVisualStyle
  2
EdgeColorOff
 70
22
177
3
291
1
 70
58
 90
2
176
1
 90
2
176
1
 90
0
176
1
 90
2
176
1
 40
0.6
176
1
 40
30.0
176
1
 62
7
420
16777215
176
1
 90
1
176
1
 90
4
176
1
 62
7
176
1
 62
257
176
1
 90
1
176
1
 90
1
176
1
 40
1.0
176
1
 90
8
176
1
 62
7
176
1
 40
1.0
176
1
 90
1
176
1
 90
6
176
1
 90
2
176
1
 62
7
176
1
 90
5
176
1
 90
0
176
1
 90
0
176
1
290
0
176
1
 90
1
176
1
 40
0.0
176
1
 90
0
176
1
290
0
176
1
290
1
176
1
290
1
176
1
290
0
176
1
290
0
176
1
290
0
176
1
290
0
176
1
290
0
176
1
290
0
176
1
 90
50
176
1
 40
0.0
176
1
 40
1.0
176
1
 90
0
176
1
 62
18
420
0
176
1
 90
50
176
1
 90
3
176
1
 62
5
420
255
176
1
290
0
176
1
 90
50
176
1
 90
50
176
1
 90
50
176
1
290
0
176
1
 90
50
176
1
 62
256
176
0
 40
1.0
176
0
 90
2
176
1
  1
strokes_ogs.tif
176
1
290
0
176
1
 40
1.0
176
1
 40
1.0
176
1
  0
VISUALSTYLE
  5
61
102
{ACAD_REACTORS
330
16
102
}
330
16
100
AcDbVisualStyle
  2
Facepattern
 70
15
177
3
291
1
 70
58
 90
2
176
1
 90
2
176
1
 90
0
176
1
 90
2
176
1
 40
0.6
176
1
 40
30.0
176
1
 62
7
420
16777215
176
1
 90
1
176
1
 90
4
176
1
 62
7
176
1
 62
257
176
1
 90
1
176
1
 90
1
176
1
 40
1.0
176
1
 90
8
176
1
 62
7
176
1
 40
1.0
176
1
 90
1
176
1
 90
6
176
1
 90
2
176
1
 62
7
176
1
 90
5
176
1
 90
0
176
1
 90
0
176
1
290
0
176
1
 90
1
176
1
 40
0.0
176
1
 90
0
176
1
290
0
176
1
290
1
176
1
290
1
176
1
290
0
176
1
290
0
176
1
290
0
176
1
290
0
176
1
290
0
176
1
290
0
176
1
 90
50
176
1
 40
0.0
176
1
 40
1.0
176
1
 90
0
176
1
 62
18
420
0
176
1
 90
50
176
1
 90
3
176
1
 62
5
420
255
176
1
290
0
176
1
 90
50
176
1
 90
50
176
1
 90
50
176
1
290
0
176
1
 90
50
176
1
 62
256
176
0
 40
1.0
176
0
 90
2
176
1
  1
strokes_ogs.tif
176
1
290
0
176
1
 40
1.0
176
1
 40
1.0
176
1
  0
VISUALSTYLE
  5
62
102
{ACAD_REACTORS
330
16
102
}
330
16
100
AcDbVisualStyle
  2
Flat
 70
0
177
3
291
1
 70
58
 90
2
176
1
 90
2
176
1
 90
0
176
1
 90
2
176
1
 40
0.6
176
1
 40
30.0
176
1
 62
7
420
16777215
176
1
 90
1
176
1
 90
4
176
1
 62
7
176
1
 62
257
176
1
 90
1
176
1
 90
1
176
1
 40
1.0
176
1
 90
8
176
1
 62
7
176
1
 40
1.0
176
1
 90
1
176
1
 90
6
176
1
 90
2
176
1
 62
7
176
1
 90
5
176
1
 90
0
176
1
 90
0
176
1
290
0
176
1
 90
1
176
1
 40
0.0
176
1
 90
0
176
1
290
0
176
1
290
1
176
1
290
1
176
1
290
0
176
1
290
0
176
1
290
0
176
1
290
0
176
1
290
0
176
1
290
0
176
1
 90
50
176
1
 40
0.0
176
1
 40
1.0
176
1
 90
0
176
1
 62
18
420
0
176
1
 90
50
176
1
 90
3
176
1
 62
5
420
255
176
1
290
0
176
1
 90
50
176
1
 90
50
176
1
 90
50
176
1
290
0
176
1
 90
50
176
1
 62
256
176
0
 40
1.0
176
0
 90
2
176
1
  1
strokes_ogs.tif
176
1
290
0
176
1
 40
1.0
176
1
 40
1.0
176
1
  0
VISUALSTYLE
  5
63
102
{ACAD_REACTORS
330
16
102
}
330
16
100
AcDbVisualStyle
  2
FlatWithEdges
 70
1
177
3
291
1
 70
58
 90
2
176
1
 90
2
176
1
 90
0
176
1
 90
2
176
1
 40
0.6
176
1
 40
30.0
176
1
 62
7
420
16777215
176
1
 90
1
176
1
 90
4
176
1
 62
7
176
1
 62
257
176
1
 90
1
176
1
 90
1
176
1
 40
1.0
176
1
 90
8
176
1
 62
7
176
1
 40
1.0
176
1
 90
1
176
1
 90
6
176
1
 90
2
176
1
 62
7
176
1
 90
5
176
1
 90
0
176
1
 90
0
176
1
290
0
176
1
 90
1
176
1
 40
0.0
176
1
 90
0
176
1
290
0
176
1
290
1
176
1
290
1
176
1
290
0
176
1
290
0
176
1
290
0
176
1
290
0
176
1
290
0
176
1
290
0
176
1
 90
50
176
1
 40
0.0
176
1
 40
1.0
176
1
 90
0
176
1
 62
18
420
0
176
1
 90
50
176
1
 90
3
176
1
 62
5
420
255
176
1
290
0
176
1
 90
50
176
1
 90
50
176
1
 90
50
176
1
290
0
176
1
 90
50
176
1
 62
256
176
0
 40
1.0
176
0
 90
2
176
1
  1
strokes_ogs.tif
176
1
290
0
176
1
 40
1.0
176
1
 40
1.0
176
1
  0
VISUALSTYLE
  5
64
102
{ACAD_REACTORS
330
16
102
}
330
16
100
AcDbVisualStyle
  2
Gouraud
 70
2
177
3
291
1
 70
58
 90
2
176
1
 90
2
176
1
 90
0
176
1
 90
2
176
1
 40
0.6
176
1
 40
30.0
176
1
 62
7
420
16777215
176
1
 90
1
176
1
 90
4
176
1
 62
7
176
1
 62
257
176
1
 90
1
176
1
 90
1
176
1
 40
1.0
176
1
 90
8
176
1
 62
7
176
1
 40
1.0
176
1
 90
1
176
1
 90
6
176
1
 90
2
176
1
 62
7
176
1
 90
5
176
1
 90
0
176
1
 90
0
176
1
290
0
176
1
 90
1
176
1
 40
0.0
176
1
 90
0
176
1
290
0
176
1
290
1
176
1
290
1
176
1
290
0
176
1
290
0
176
1
290
0
176
1
290
0
176
1
290
0
176
1
290
0
176
1
 90
50
176
1
 40
0.0
176
1
 40
1.0
176
1
 90
0
176
1
 62
18
420
0
176
1
 90
50
176
1
 90
3
176
1
 62
5
420
255
176
1
290
0
176
1
 90
50
176
1
 90
50
176
1
 90
50
176
1
290
0
176
1
 90
50
176
1
 62
256
176
0
 40
1.0
176
0
 90
2
176
1
  1
strokes_ogs.tif
176
1
290
0
176
1
 40
1.0
176
1
 40
1.0
176
1
  0
VISUALSTYLE
  5
65
102
{ACAD_REACTORS
330
16
102
}
330
16
100
AcDbVisualStyle
  2
GouraudWithEdges
 70
3
177
3
291
1
 70
58
 90
2
176
1
 90
2
176
1
 90
0
176
1
 90
2
176
1
 40
0.6
176
1
 40
30.0
176
1
 62
7
420
16777215
176
1
 90
1
176
1
 90
4
176
1
 62
7
176
1
 62
257
176
1
 90
1
176
1
 90
1
176
1
 40
1.0
176
1
 90
8
176
1
 62
7
176
1
 40
1.0
176
1
 90
1
176
1
 90
6
176
1
 90
2
176
1
 62
7
176
1
 90
5
176
1
 90
0
176
1
 90
0
176
1
290
0
176
1
 90
1
176
1
 40
0.0
176
1
 90
0
176
1
290
0
176
1
290
1
176
1
290
1
176
1
290
0
176
1
290
0
176
1
290
0
176
1
290
0
176
1
290
0
176
1
290
0
176
1
 90
50
176
1
 40
0.0
176
1
 40
1.0
176
1
 90
0
176
1
 62
18
420
0
176
1
 90
50
176
1
 90
3
176
1
 62
5
420
255
176
1
290
0
176
1
 90
50
176
1
 90
50
176
1
 90
50
176
1
290
0
176
1
 90
50
176
1
 62
256
176
0
 40
1.0
176
0
 90
2
176
1
  1
strokes_ogs.tif
176
1
290
0
176
1
 40
1.0
176
1
 40
1.0
176
1
  0
VISUALSTYLE
  5
66
102
{ACAD_REACTORS
330
16
102
}
330
16
100
AcDbVisualStyle
  2
Hidden
 70
6
177
3
291
0
 70
58
 90
2
176
1
 90
2
176
1
 90
0
176
1
 90
1
176
1
 40
0.6
176
1
 40
30.0
176
1
 62
7
420
16777215
176
1
 90
1
176
1
 90
4
176
1
 62
7
176
1
 62
257
176
1
 90
1
176
1
 90
1
176
1
 40
1.0
176
1
 90
8
176
1
 62
7
176
1
 40
1.0
176
1
 90
1
176
1
 90
6
176
1
 90
2
176
1
 62
7
176
1
 90
5
176
1
 90
0
176
1
 90
0
176
1
290
0
176
1
 90
1
176
1
 40
0.0
176
1
 90
0
176
1
290
0
176
1
290
1
176
1
290
1
176
1
290
0
176
1
290
0
176
1
290
0
176
1
290
0
176
1
290
0
176
1
290
0
176
1
 90
50
176
1
 40
0.0
176
1
 40
1.0
176
1
 90
0
176
1
 62
18
420
0
176
1
 90
50
176
1
 90
3
176
1
 62
5
420
255
176
1
290
0
176
1
 90
50
176
1
 90
50
176
1
 90
50
176
1
290
0
176
1
 90
50
176
1
 62
256
176
0
 40
1.0
176
0
 90
2
176
1
  1
strokes_ogs.tif
176
1
290
0
176
1
 40
1.0
176
1
 40
1.0
176
1
  0
VISUALSTYLE
  5
67
102
{ACAD_REACTORS
330
16
102
}
330
16
100
AcDbVisualStyle
  2
JitterOff
 70
20
177
3
291
1
 70
58
 90
2
176
1
 90
2
176
1
 90
0
176
1
 90
2
176
1
 40
0.6
176
1
 40
30.0
176
1
 62
7
420
16777215
176
1
 90
1
176
1
 90
4
176
1
 62
7
176
1
 62
257
176
1
 90
1
176
1
 90
1
176
1
 40
1.0
176
1
 90
8
176
1
 62
7
176
1
 40
1.0
176
1
 90
1
176
1
 90
6
176
1
 90
2
176
1
 62
7
176
1
 90
5
176
1
 90
0
176
1
 90
0
176
1
290
0
176
1
 90
1
176
1
 40
0.0
176
1
 90
0
176
1
290
0
176
1
290
1
176
1
290
1
176
1
290
0
176
1
290
0
176
1
290
0
176
1
290
0
176
1
290
0
176
1
290
0
176
1
 90
50
176
1
 40
0.0
176
1
 40
1.0
176
1
 90
0
176
1
 62
18
420
0
176
1
 90
50
176
1
 90
3
176
1
 62
5
420
255
176
1
290
0
176
1
 90
50
176
1
 90
50
176
1
 90
50
176
1
290
0
176
1
 90
50
176
1
 62
256
176
0
 40
1.0
176
0
 90
2
176
1
  1
strokes_ogs.tif
176
1
290
0
176
1
 40
1.0
176
1
 40
1.0
176
1
  0
VISUALSTYLE
  5
68
102
{ACAD_REACTORS
330
16
102
}
330
16
100
AcDbVisualStyle
  2
Linepattern
 70
14
177
3
291
1
 70
58
 90
2
176
1
 90
2
176
1
 90
0
176
1
 90
2
176
1
 40
0.6
176
1
 40
30.0
176
1
 62
7
420
16777215
176
1
 90
1
176
1
 90
4
176
1
 62
7
176
1
 62
257
176
1
 90
1
176
1
 90
1
176
1
 40
1.0
176
1
 90
8
176
1
 62
7
176
1
 40
1.0
176
1
 90
1
176
1
 90
6
176
1
 90
2
176
1
 62
7
176
1
 90
5
176
1
 90
0
176
1
 90
0
176
1
290
0
176
1
 90
1
176
1
 40
0.0
176
1
 90
0
176
1
290
0
176
1
290
1
176
1
290
1
176
1
290
0
176
1
290
0
176
1
290
0
176
1
290
0
176
1
290
0
176
1
290
0
176
1
 90
50
176
1
 40
0.0
176
1
 40
1.0
176
1
 90
0
176
1
 62
18
420
0
176
1
 90
50
176
1
 90
3
176
1
 62
5
420
255
176
1
290
0
176
1
 90
50
176
1
 90
50
176
1
 90
50
176
1
290
0
176
1
 90
50
176
1
 62
256
176
0
 40
1.0
176
0
 90
2
176
1
  1
strokes_ogs.tif
176
1
290
0
176
1
 40
1.0
176
1
 40
1.0
176
1
  0
VISUALSTYLE
  5
69
102
{ACAD_REACTORS
330
16
102
}
330
16
100
AcDbVisualStyle
  2
Modeling
 70
10
177
3
291
0
 70
58
 90
2
176
1
 90
2
176
1
 90
0
176
1
 90
2
176
1
 40
0.6
176
1
 40
30.0
176
1
 62
7
420
16777215
176
1
 90
1
176
1
 90
4
176
1
 62
7
176
1
 62
257
176
1
 90
1
176
1
 90
1
176
1
 40
1.0
176
1
 90
8
176
1
 62
7
176
1
 40
1.0
176
1
 90
1
176
1
 90
6
176
1
 90
2
176
1
 62
7
176
1
 90
5
176
1
 90
0
176
1
 90
0
176
1
290
0
176
1
 90
1
176
1
 40
0.0
176
1
 90
0
176
1
290
0
176
1
290
1
176
1
290
1
176
1
290
0
176
1
290
0
176
1
290
0
176
1
290
0
176
1
290
0
176
1
290
0
176
1
 90
50
176
1
 40
0.0
176
1
 40
1.0
176
1
 90
0
176
1
 62
18
420
0
176
1
 90
50
176
1
 90
3
176
1
 62
5
420
255
176
1
290
0
176
1
 90
50
176
1
 90
50
176
1
 90
50
176
1
290
0
176
1
 90
50
176
1
 62
256
176
0
 40
1.0
176
0
 90
2
176
1
  1
strokes_ogs.tif
176
1
290
0
176
1
 40
1.0
176
1
 40
1.0
176
1
  0
VISUALSTYLE
  5
6A
102
{ACAD_REACTORS
330
16
102
}
330
16
100
AcDbVisualStyle
  2
OverhangOff
 70
21
177
3
291
1
 70
58
 90
2
176
1
 90
2
176
1
 90
0
176
1
 90
2
176
1
 40
0.6
176
1
 40
30.0
176
1
 62
7
420
16777215
176
1
 90
1
176
1
 90
4
176
1
 62
7
176
1
 62
257
176
1
 90
1
176
1
 90
1
176
1
 40
1.0
176
1
 90
8
176
1
 62
7
176
1
 40
1.0
176
1
 90
1
176
1
 90
6
176
1
 90
2
176
1
 62
7
176
1
 90
5
176
1
 90
0
176
1
 90
0
176
1
290
0
176
1
 90
1
176
1
 40
0.0
176
1
 90
0
176
1
290
0
176
1
290
1
176
1
290
1
176
1
290
0
176
1
290
0
176
1
290
0
176
1
290
0
176
1
290
0
176
1
290
0
176
1
 90
50
176
1
 40
0.0
176
1
 40
1.0
176
1
 90
0
176
1
 62
18
420
0
176
1
 90
50
176
1
 90
3
176
1
 62
5
420
255
176
1
290
0
176
1
 90
50
176
1
 90
50
176
1
 90
50
176
1
290
0
176
1
 90
50
176
1
 62
256
176
0
 40
1.0
176
0
 90
2
176
1
  1
strokes_ogs.tif
176
1
290
0
176
1
 40
1.0
176
1
 40
1.0
176
1
  0
VISUALSTYLE
  5
6B
102
{ACAD_REACTORS
330
16
102
}
330
16
100
AcDbVisualStyle
  2
Realistic
 70
8
177
3
291
0
 70
58
 90
2
176
1
 90
2
176
1
 90
0
176
1
 90
2
176
1
 40
0.6
176
1
 40
30.0
176
1
 62
7
420
16777215
176
1
 90
1
176
1
 90
4
176
1
 62
7
176
1
 62
257
176
1
 90
1
176
1
 90
1
176
1
 40
1.0
176
1
 90
8
176
1
 62
7
176
1
 40
1.0
176
1
 90
1
176
1
 90
6
176
1
 90
2
176
1
 62
7
176
1
 90
5
176
1
 90
0
176
1
 90
0
176
1
290
0
176
1
 90
1
176
1
 40
0.0
176
1
 90
0
176
1
290
0
176
1
290
1
176
1
290
1
176
1
290
0
176
1
290
0
176
1
290
0
176
1
290
0
176
1
290
0
176
1
290
0
176
1
 90
50
176
1
 40
0.0
176
1
 40
1.0
176
1
 90
0
176
1
 62
18
420
0
176
1
 90
50
176
1
 90
3
176
1
 62
5
420
255
176
1
290
0
176
1
 90
50
176
1
 90
50
176
1
 90
50
176
1
290
0
176
1
 90
50
176
1
 62
256
176
0
 40
1.0
176
0
 90
2
176
1
  1
strokes_ogs.tif
176
1
290
0
176
1
 40
1.0
176
1
 40
1.0
176
1
  0
VISUALSTYLE
  5
6C
102
{ACAD_REACTORS
330
16
102
}
330
16
100
AcDbVisualStyle
  2
Shaded
 70
27
177
3
291
0
 70
58
 90
2
176
1
 90
2
176
1
 90
0
176
1
 90
2
176
1
 40
0.6
176
1
 40
30.0
176
1
 62
7
420
16777215
176
1
 90
1
176
1
 90
4
176
1
 62
7
176
1
 62
257
176
1
 90
1
176
1
 90
1
176
1
 40
1.0
176
1
 90
8
176
1
 62
7
176
1
 40
1.0
176
1
 90
1
176
1
 90
6
176
1
 90
2
176
1
 62
7
176
1
 90
5
176
1
 90
0
176
1
 90
0
176
1
290
0
176
1
 90
1
176
1
 40
0.0
176
1
 90
0
176
1
290
0
176
1
290
1
176
1
290
1
176
1
290
0
176
1
290
0
176
1
290
0
176
1
290
0
176
1
290
0
176
1
290
0
176
1
 90
50
176
1
 40
0.0
176
1
 40
1.0
176
1
 90
0
176
1
 62
18
420
0
176
1
 90
50
176
1
 90
3
176
1
 62
5
420
255
176
1
290
0
176
1
 90
50
176
1
 90
50
176
1
 90
50
176
1
290
0
176
1
 90
50
176
1
 62
256
176
0
 40
1.0
176
0
 90
2
176
1
  1
strokes_ogs.tif
176
1
290
0
176
1
 40
1.0
176
1
 40
1.0
176
1
  0
VISUALSTYLE
  5
6D
102
{ACAD_REACTORS
330
16
102
}
330
16
100
AcDbVisualStyle
  2
Shaded with edges
 70
26
177
3
291
0
 70
58
 90
2
176
1
 90
2
176
1
 90
0
176
1
 90
2
176
1
 40
0.6
176
1
 40
30.0
176
1
 62
7
420
16777215
176
1
 90
1
176
1
 90
4
176
1
 62
7
176
1
 62
257
176
1
 90
1
176
1
 90
1
176
1
 40
1.0
176
1
 90
8
176
1
 62
7
176
1
 40
1.0
176
1
 90
1
176
1
 90
6
176
1
 90
2
176
1
 62
7
176
1
 90
5
176
1
 90
0
176
1
 90
0
176
1
290
0
176
1
 90
1
176
1
 40
0.0
176
1
 90
0
176
1
290
0
176
1
290
1
176
1
290
1
176
1
290
0
176
1
290
0
176
1
290
0
176
1
290
0
176
1
290
0
176
1
290
0
176
1
 90
50
176
1
 40
0.0
176
1
 40
1.0
176
1
 90
0
176
1
 62
18
420
0
176
1
 90
50
176
1
 90
3
176
1
 62
5
420
255
176
1
290
0
176
1
 90
50
176
1
 90
50
176
1
 90
50
176
1
290
0
176
1
 90
50
176
1
 62
256
176
0
 40
1.0
176
0
 90
2
176
1
  1
strokes_ogs.tif
176
1
290
0
176
1
 40
1.0
176
1
 40
1.0
176
1
  0
VISUALSTYLE
  5
6E
102
{ACAD_REACTORS
330
16
102
}
330
16
100
AcDbVisualStyle
  2
Shades of Gray
 70
23
177
3
291
0
 70
58
 90
2
176
1
 90
2
176
1
 90
0
176
1
 90
2
176
1
 40
0.6
176
1
 40
30.0
176
1
 62
7
420
16777215
176
1
 90
1
176
1
 90
4
176
1
 62
7
176
1
 62
257
176
1
 90
1
176
1
 90
1
176
1
 40
1.0
176
1
 90
8
176
1
 62
7
176
1
 40
1.0
176
1
 90
1
176
1
 90
6
176
1
 90
2
176
1
 62
7
176
1
 90
5
176
1
 90
0
176
1
 90
0
176
1
290
0
176
1
 90
1
176
1
 40
0.0
176
1
 90
0
176
1
290
0
176
1
290
1
176
1
290
1
176
1
290
0
176
1
290
0
176
1
290
0
176
1
290
0
176
1
290
0
176
1
290
0
176
1
 90
50
176
1
 40
0.0
176
1
 40
1.0
176
1
 90
0
176
1
 62
18
420
0
176
1
 90
50
176
1
 90
3
176
1
 62
5
420
255
176
1
290
0
176
1
 90
50
176
1
 90
50
176
1
 90
50
176
1
290
0
176
1
 90
50
176
1
 62
256
176
0
 40
1.0
176
0
 90
2
176
1
  1
strokes_ogs.tif
176
1
290
0
176
1
 40
1.0
176
1
 40
1.0
176
1
  0
VISUALSTYLE
  5
6F
102
{ACAD_REACTORS
330
16
102
}
330
16
100
AcDbVisualStyle
  2
Sketchy
 70
24
177
3
291
0
 70
58
 90
2
176
1
 90
2
176
1
 90
0
176
1
 90
1
176
1
 40
0.6
176
1
 40
30.0
176
1
 62
7
420
16777215
176
1
 90
1
176
1
 90
4
176
1
 62
7
176
1
 62
257
176
1
 90
1
176
1
 90
1
176
1
 40
1.0
176
1
 90
8
176
1
 62
7
176
1
 40
1.0
176
1
 90
1
176
1
 90
6
176
1
 90
2
176
1
 62
7
176
1
 90
5
176
1
 90
0
176
1
 90
0
176
1
290
0
176
1
 90
1
176
1
 40
0.0
176
1
 90
0
176
1
290
0
176
1
290
1
176
1
290
1
176
1
290
0
176
1
290
0
176
1
290
0
176
1
290
0
176
1
290
0
176
1
290
0
176
1
 90
50
176
1
 40
0.0
176
1
 40
1.0
176
1
 90
0
176
1
 62
18
420
0
176
1
 90
50
176
1
 90
3
176
1
 62
5
420
255
176
1
290
0
176
1
 90
50
176
1
 90
50
176
1
 90
50
176
1
290
0
176
1
 90
50
176
1
 62
256
176
0
 40
1.0
176
0
 90
2
176
1
  1
strokes_ogs.tif
176
1
290
0
176
1
 40
1.0
176
1
 40
1.0
176
1
  0
VISUALSTYLE
  5
70
102
{ACAD_REACTORS
330
16
102
}
330
16
100
AcDbVisualStyle
  2
Thicken
 70
13
177
3
291
1
 70
58
 90
2
176
1
 90
2
176
1
 90
0
176
1
 90
2
176
1
 40
0.6
176
1
 40
30.0
176
1
 62
7
420
16777215
176
1
 90
1
176
1
 90
4
176
1
 62
7
176
1
 62
257
176
1
 90
1
176
1
 90
1
176
1
 40
1.0
176
1
 90
8
176
1
 62
7
176
1
 40
1.0
176
1
 90
1
176
1
 90
6
176
1
 90
2
176
1
 62
7
176
1
 90
5
176
1
 90
0
176
1
 90
0
176
1
290
0
176
1
 90
1
176
1
 40
0.0
176
1
 90
0
176
1
290
0
176
1
290
1
176
1
290
1
176
1
290
0
176
1
290
0
176
1
290
0
176
1
290
0
176
1
290
0
176
1
290
0
176
1
 90
50
176
1
 40
0.0
176
1
 40
1.0
176
1
 90
0
176
1
 62
18
420
0
176
1
 90
50
176
1
 90
3
176
1
 62
5
420
255
176
1
290
0
176
1
 90
50
176
1
 90
50
176
1
 90
50
176
1
290
0
176
1
 90
50
176
1
 62
256
176
0
 40
1.0
176
0
 90
2
176
1
  1
strokes_ogs.tif
176
1
290
0
176
1
 40
1.0
176
1
 40
1.0
176
1
  0
VISUALSTYLE
  5
71
102
{ACAD_REACTORS
330
16
102
}
330
16
100
AcDbVisualStyle
  2
Wireframe
 70
5
177
3
291
0
 70
58
 90
2
176
1
 90
2
176
1
 90
0
176
1
 90
0
176
1
 40
0.6
176
1
 40
30.0
176
1
 62
7
420
16777215
176
1
 90
1
176
1
 90
4
176
1
 62
7
176
1
 62
257
176
1
 90
1
176
1
 90
1
176
1
 40
1.0
176
1
 90
8
176
1
 62
7
176
1
 40
1.0
176
1
 90
1
176
1
 90
6
176
1
 90
2
176
1
 62
7
176
1
 90
5
176
1
 90
0
176
1
 90
0
176
1
290
0
176
1
 90
1
176
1
 40
0.0
176
1
 90
0
176
1
290
0
176
1
290
1
176
1
290
1
176
1
290
0
176
1
290
0
176
1
290
0
176
1
290
0
176
1
290
0
176
1
290
0
176
1
 90
50
176
1
 40
0.0
176
1
 40
1.0
176
1
 90
0
176
1
 62
18
420
0
176
1
 90
50
176
1
 90
3
176
1
 62
5
420
255
176
1
290
0
176
1
 90
50
176
1
 90
50
176
1
 90
50
176
1
290
0
176
1
 90
50
176
1
 62
256
176
0
 40
1.0
176
0
 90
2
176
1
  1
strokes_ogs.tif
176
1
290
0
176
1
 40
1.0
176
1
 40
1.0
176
1
  0
VISUALSTYLE
  5
72
102
{ACAD_REACTORS
330
16
102
}
330
16
100
AcDbVisualStyle
  2
X-Ray
 70
25
177
3
291
0
 70
58
 90
2
176
1
 90
2
176
1
 90
0
176
1
 90
2
176
1
 40
0.5
176
1
 40
30.0
176
1
 62
7
420
16777215
176
1
 90
1
176
1
 90
4
176
1
 62
7
176
1
 62
257
176
1
 90
1
176
1
 90
1
176
1
 40
1.0
176
1
 90
8
176
1
 62
7
176
1
 40
1.0
176
1
 90
1
176
1
 90
6
176
1
 90
2
176
1
 62
7
176
1
 90
5
176
1
 90
0
176
1
 90
0
176
1
290
0
176
1
 90
1
176
1
 40
0.0
176
1
 90
0
176
1
290
0
176
1
290
1
176
1
290
1
176
1
290
0
176
1
290
0
176
1
290
0
176
1
290
0
176
1
290
0
176
1
290
0
176
1
 90
50
176
1
 40
0.0
176
1
 40
1.0
176
1
 90
0
176
1
 62
18
420
0
176
1
 90
50
176
1
 90
3
176
1
 62
5
420
255
176
1
290
0
176
1
 90
50
176
1
 90
50
176
1
 90
50
176
1
290
0
176
1
 90
50
176
1
 62
256
176
0
 40
1.0
176
0
 90
2
176
1
  1
strokes_ogs.tif
176
1
290
0
176
1
 40
1.0
176
1
 40
1.0
176
1
  0
DICTIONARYVAR
  5
136
330
2D
100
DictionaryVariables
280
0
  1
1.4.4 @ 2026-07-13T19:20:11.553203+00:00
  0
ENDSEC
  0
EOF
