<?xml version="1.0" encoding="utf-8" ?>
<svg baseProfile="full" height="239.98609599999997cm" version="1.1" viewBox="0 0 118.0 239.98609599999997" width="118.0cm" xmlns="http://www.w3.org/2000/svg" xmlns:ev="http://www.w3.org/2001/xml-events" xmlns:xlink="http://www.w3.org/1999/xlink"><defs /><rect fill="#f7f3ea" height="231.98609599999997" stroke="#333" stroke-width="0.15" width="110.0" x="4.0" y="4.0" /><text fill="#000" font-family="sans-serif" font-size="1.4" x="4.0" y="3.0">PLANO DE CORTE — ancho 110 cm — largo 2.32 m</text><polygon fill="#cfe3f7" fill-opacity="0.5" points="4.0,76.266342 12.00349,76.266342 11.800561,18.025649 16.021004,5.25881 13.503385,4.0 12.801069,4.929657 12.599692000000001,5.196802 12.398247000000001,5.4652080000000005 12.19702,5.735087 11.9963,6.006658 11.796378,6.280137 11.597549,6.555743 11.400112,6.833699 11.204367000000001,7.114224 11.010619,7.397541 10.819175000000001,7.683873 10.63035,7.97344 10.444457,8.266466000000001 10.261977,8.562908 10.084025,8.861226 9.91087,9.158995 9.741668,9.454941999999999 9.575355,9.748255 9.410908,10.038132000000001 9.247347,10.323782999999999 9.083736,10.604427999999999 8.919182,10.879303 8.752831,11.147666000000001 8.583869,11.408804 8.411512,11.662044999999999 8.234998000000001,11.906769 8.053566,12.142438 7.865524000000001,12.369717 7.668078,12.591596000000001 7.4601500000000005,12.810796 7.242441,13.028174 7.0159,13.244413 6.781544,13.460227999999999 6.54044,13.676373 6.324711000000001,13.866342 4.0,13.866342 4.0,76.266342" stroke="#1f6fb2" stroke-width="0.1" /><text fill="#0a3d62" font-family="sans-serif" font-size="1.6" text-anchor="middle" x="10.010502" y="40.133171">09</text><polygon fill="#cfe3f7" fill-opacity="0.5" points="17.021004,76.266342 25.024494,76.266342 24.821565,18.025649 29.042008000000003,5.25881 26.524389,4.0 25.822073000000003,4.929657 25.620696000000002,5.196802 25.419251000000003,5.4652080000000005 25.218024,5.735087 25.017304000000003,6.006658 24.817382000000002,6.280137 24.618553000000002,6.555743 24.421116,6.833699 24.225371000000003,7.114224 24.031623000000003,7.397541 23.840179000000003,7.683873 23.651354,7.97344 23.465461,8.266466000000001 23.282981,8.562908 23.105029000000002,8.861226 22.931874,9.158995 22.762672000000002,9.454941999999999 22.596359,9.748255 22.431912,10.038132000000001 22.268351000000003,10.323782999999999 22.10474,10.604427999999999 21.940186,10.879303 21.773835000000002,11.147666000000001 21.604873,11.408804 21.432516,11.662044999999999 21.256002000000002,11.906769 21.07457,12.142438 20.886528000000002,12.369717 20.689082000000003,12.591596000000001 20.481154,12.810796 20.263445,13.028174 20.036904,13.244413 19.802548,13.460227999999999 19.561444,13.676373 19.345715000000002,13.866342 17.021004,13.866342 17.021004,76.266342" stroke="#1f6fb2" stroke-width="0.1" /><text fill="#0a3d62" font-family="sans-serif" font-size="1.6" text-anchor="middle" x="23.031506" y="40.133171">09</text><polygon fill="#cfe3f7" fill-opacity="0.5" points="30.042008000000003,76.221149 58.742008,76.221149 58.742008,27.341731 58.124134,26.644709 57.757074,26.23138 57.387374,25.816584 57.014471,25.400442 56.6375,24.982744 56.255604000000005,24.563286 55.867925,24.141869 55.473626,23.718315 55.072841,23.29344 54.669169000000004,22.869321 54.268508,22.446848 53.875545,22.025494000000002 53.494854000000004,21.604813 53.131002,21.184578 52.788499,20.764785 52.471734,20.345659 52.184872,19.927636 51.931723000000005,19.511296 51.71558400000001,19.097227 51.539079,18.685704 51.403180000000006,18.273564 51.305778000000004,17.852657999999998 51.243663,17.417078 51.215163000000004,16.965550999999998 51.218824,16.497883 51.253105000000005,16.014503 51.316247000000004,15.516278 51.406221,15.004335000000001 51.520749,14.479926 51.657331,13.944336 51.81329100000001,13.398813 51.985822,12.844546 52.172017,12.28264 52.368898,11.714112 52.573435,11.139888000000001 53.106213,9.664568 39.511251,4.0 38.843077,4.884464 38.6417,5.1516090000000005 38.44025500000001,5.420015 38.239028000000005,5.689894 38.038308,5.9614650000000005 37.838386,6.2349440000000005 37.639557,6.51055 37.44212,6.788506 37.246375,7.069031 37.052627,7.352348 36.861183000000004,7.63868 36.672358,7.928247 36.486465,8.221273 36.303985000000004,8.517714999999999 36.12603300000001,8.816033000000001 35.952878000000005,9.113802 35.783676,9.409749 35.617363000000005,9.703062 35.452916,9.992939 35.289355,10.27859 35.125744000000005,10.559235 34.96119,10.83411 34.794839,11.102473 34.625877,11.363611 34.453520000000005,11.616852 34.277006,11.861576 34.095574,12.097245000000001 33.907532,12.324524 33.710086000000004,12.546403 33.502158,12.765603 33.284449,12.982981 33.057908000000005,13.19922 32.82355200000001,13.415035 32.582448,13.63118 32.366719,13.821149 30.042008000000003,13.821149 30.042008000000003,76.221149" stroke="#1f6fb2" stroke-width="0.1" /><text fill="#0a3d62" font-family="sans-serif" font-size="1.6" text-anchor="middle" x="44.392008000000004" y="40.1105745">01</text><polygon fill="#cfe3f7" fill-opacity="0.5" points="59.742008,76.221149 88.442008,76.221149 88.442008,27.341731 87.824134,26.644709 87.457074,26.23138 87.087374,25.816584 86.714471,25.400442 86.3375,24.982744 85.955604,24.563286 85.567925,24.141869 85.173626,23.718315 84.772841,23.29344 84.369169,22.869321 83.968508,22.446848 83.575545,22.025494000000002 83.19485399999999,21.604813 82.831002,21.184578 82.48849899999999,20.764785 82.171734,20.345659 81.884872,19.927636 81.631723,19.511296 81.415584,19.097227 81.239079,18.685704 81.10318,18.273564 81.00577799999999,17.852657999999998 80.943663,17.417078 80.91516299999999,16.965550999999998 80.918824,16.497883 80.953105,16.014503 81.01624699999999,15.516278 81.106221,15.004335000000001 81.220749,14.479926 81.357331,13.944336 81.513291,13.398813 81.685822,12.844546 81.872017,12.28264 82.06889799999999,11.714112 82.273435,11.139888000000001 82.806213,9.664568 69.211251,4.0 68.543077,4.884464 68.3417,5.1516090000000005 68.140255,5.420015 67.939028,5.689894 67.738308,5.9614650000000005 67.538386,6.2349440000000005 67.339557,6.51055 67.14212,6.788506 66.946375,7.069031 66.752627,7.352348 66.561183,7.63868 66.37235799999999,7.928247 66.186465,8.221273 66.003985,8.517714999999999 65.826033,8.816033000000001 65.652878,9.113802 65.483676,9.409749 65.317363,9.703062 65.152916,9.992939 64.989355,10.27859 64.825744,10.559235 64.66119,10.83411 64.494839,11.102473 64.32587699999999,11.363611 64.15352,11.616852 63.977005999999996,11.861576 63.795574,12.097245000000001 63.607532,12.324524 63.410086,12.546403 63.202158,12.765603 62.984449,12.982981 62.757908,13.19922 62.523551999999995,13.415035 62.282448,13.63118 62.066719,13.821149 59.742008,13.821149 59.742008,76.221149" stroke="#1f6fb2" stroke-width="0.1" /><text fill="#0a3d62" font-family="sans-serif" font-size="1.6" text-anchor="middle" x="74.09200799999999" y="40.1105745">01</text><polygon fill="#cfe3f7" fill-opacity="0.5" points="8.659303999999999,140.770831 35.490046,140.770831 40.158238,88.047158 39.433276,87.25050499999999 38.997195,86.77675699999999 38.55227,86.304345 38.096399,85.83667299999999 37.629824,85.378148 37.154798,84.93046199999999 36.672319,84.49306399999999 36.183026,84.06504899999999 35.687540999999996,83.645511 35.186478,83.233544 34.680436,82.828239 34.170006,82.428693 33.655766,82.03400199999999 33.137586999999996,81.64274599999999 32.613416,81.25352099999999 32.080791,80.867813 31.538594,80.488613 30.985847,80.119104 30.421521,79.762524 29.844554,79.422185 29.253868999999998,79.10149299999999 28.648409,78.803968 28.027186999999998,78.53326299999999 27.390928,78.29374399999999 26.744737999999998,78.08851399999999 26.094244,77.91484399999999 25.441647,77.768086 24.788497,77.64355099999999 24.136223,77.536677 23.486187,77.44304199999999 22.839734999999997,77.358364 22.100634,77.266342 21.347656,77.320797 20.687862,77.37258999999999 20.024344,77.43292 19.358263,77.50601999999999 18.690779,77.59625199999999 18.023101,77.70811499999999 17.356536,77.846238 16.692633,78.01534699999999 16.035445,78.219411 15.390802999999998,78.457866 14.761085999999999,78.726456 14.145724,79.02162899999999 13.543890999999999,79.34000999999999 12.954709999999999,79.678333 12.377289,80.03343 11.810744999999999,80.402215 11.254228,80.781668 10.706923999999999,81.168814 10.167302999999999,81.561279 9.632401999999999,81.95942699999999 9.101571,82.366519 8.576683999999998,82.784843 8.060030999999999,83.21645199999999 7.553958,83.66344 7.060884999999999,84.127926 6.583328,84.61202999999999 6.123913999999999,85.11784999999999 5.685859999999998,85.64684899999999 5.2749559999999995,86.19523 4.891366999999999,86.752348 4.528931,87.309883 4.0,88.14754699999999 8.659303999999999,140.770831" stroke="#1f6fb2" stroke-width="0.1" /><text fill="#0a3d62" font-family="sans-serif" font-size="1.6" text-anchor="middle" x="22.079119" y="109.0185865">04</text><polygon fill="#cfe3f7" fill-opacity="0.5" points="45.817541999999996,140.770831 72.64828399999999,140.770831 77.316476,88.047158 76.59151399999999,87.25050499999999 76.15543299999999,86.77675699999999 75.710508,86.304345 75.254637,85.83667299999999 74.788062,85.378148 74.313036,84.93046199999999 73.830557,84.49306399999999 73.341264,84.06504899999999 72.845779,83.645511 72.344716,83.233544 71.838674,82.828239 71.328244,82.428693 70.814004,82.03400199999999 70.295825,81.64274599999999 69.771654,81.25352099999999 69.23902899999999,80.867813 68.696832,80.488613 68.14408499999999,80.119104 67.579759,79.762524 67.002792,79.422185 66.41210699999999,79.10149299999999 65.806647,78.803968 65.185425,78.53326299999999 64.549166,78.29374399999999 63.902975999999995,78.08851399999999 63.252482,77.91484399999999 62.599885,77.768086 61.946735,77.64355099999999 61.294461,77.536677 60.644425,77.44304199999999 59.997972999999995,77.358364 59.258872,77.266342 58.505894,77.320797 57.84609999999999,77.37258999999999 57.182582,77.43292 56.516501,77.50601999999999 55.849016999999996,77.59625199999999 55.181338999999994,77.70811499999999 54.514773999999996,77.846238 53.850871,78.01534699999999 53.19368299999999,78.219411 52.549040999999995,78.457866 51.919323999999996,78.726456 51.303962,79.02162899999999 50.702129,79.34000999999999 50.112947999999996,79.678333 49.535526999999995,80.03343 48.968982999999994,80.402215 48.412465999999995,80.781668 47.865162,81.168814 47.325540999999994,81.561279 46.790639999999996,81.95942699999999 46.259809,82.366519 45.734922,82.784843 45.21826899999999,83.21645199999999 44.712196,83.66344 44.219122999999996,84.127926 43.741566,84.61202999999999 43.282151999999996,85.11784999999999 42.844097999999995,85.64684899999999 42.433194,86.19523 42.049605,86.752348 41.687169,87.309883 41.158238,88.14754699999999 45.817541999999996,140.770831" stroke="#1f6fb2" stroke-width="0.1" /><text fill="#0a3d62" font-family="sans-serif" font-size="1.6" text-anchor="middle" x="59.237356999999996" y="109.0185865">04</text><polygon fill="#cfe3f7" fill-opacity="0.5" points="56.0,154.96388499999998 55.525513000000004,154.26378999999997 55.223351,153.81766699999997 54.921256,153.371063 54.619175,152.923612 54.317053,152.474945 54.014838,152.02469499999998 53.712473,151.57249299999998 53.409919,151.117992 53.107582,150.66146899999998 52.807339,150.203959 52.51181,149.74603399999998 52.223197,149.287624 51.943662,148.82867099999999 51.675343999999996,148.36916699999998 51.420344,147.909143 51.180718,147.44866299999998 50.958462999999995,146.98781599999998 50.755496,146.52669899999998 50.573648,146.06539099999998 50.414646000000005,145.60392199999998 50.280087,145.14214399999997 50.170951,144.67786999999998 50.086323,144.207133 50.024363,143.727928 49.983618,143.240241 49.921458,141.770831 30.0,141.770831 30.0,203.770831 56.0,203.770831 56.0,154.96388499999998 4.0,154.96388499999998 4.474487,154.26378999999997 4.776648999999999,153.81766699999997 5.078744,153.371063 5.3808250000000015,152.923612 5.682946999999999,152.474945 5.985161999999999,152.02469499999998 6.287527000000001,151.57249299999998 6.590081000000001,151.117992 6.892417999999999,150.66146899999998 7.192661000000001,150.203959 7.4881899999999995,149.74603399999998 7.776803000000001,149.287624 8.056338,148.82867099999999 8.324656000000001,148.36916699999998 8.579656,147.909143 8.819282000000001,147.44866299999998 9.041537000000002,146.98781599999998 9.244504,146.52669899999998 9.426352000000001,146.06539099999998 9.585353999999999,145.60392199999998 9.719912999999998,145.14214399999997 9.829049000000001,144.67786999999998 9.913677,144.207133 9.975636999999999,143.727928 10.016382,143.240241 10.078541999999999,141.770831 30.0,141.770831 30.0,203.770831 4.0,203.770831 4.0,154.96388499999998" stroke="#1f6fb2" stroke-width="0.1" /><text fill="#0a3d62" font-family="sans-serif" font-size="1.6" text-anchor="middle" x="30.0" y="172.770831">02</text><polygon fill="#cfe3f7" fill-opacity="0.5" points="57.0,153.042736 64.0,157.452736 71.0,153.042736 71.0,141.770831 57.0,141.770831 57.0,153.042736" stroke="#1f6fb2" stroke-width="0.1" /><text fill="#0a3d62" font-family="sans-serif" font-size="1.6" text-anchor="middle" x="64.0" y="149.6117835">10</text><polygon fill="#cfe3f7" fill-opacity="0.5" points="72.0,154.01995799999997 72.029841,154.322938 72.132547,154.66151299999999 72.299332,154.973546 72.523786,155.24704499999999 72.797285,155.471499 73.109318,155.638284 73.447893,155.74098999999998 73.750873,155.770831 96.249127,155.770831 96.552107,155.74098999999998 96.890682,155.638284 97.202715,155.471499 97.476214,155.24704499999999 97.70066800000001,154.973546 97.867453,154.66151299999999 97.970159,154.322938 98.0,154.01995799999997 98.0,143.521704 97.970159,143.21872399999998 97.867453,142.880149 97.70066800000001,142.56811599999997 97.476214,142.294617 97.202715,142.07016299999998 96.890682,141.90337799999998 96.552107,141.800672 96.249127,141.770831 73.750873,141.770831 73.447893,141.800672 73.109318,141.90337799999998 72.797285,142.07016299999998 72.523786,142.294617 72.299332,142.56811599999997 72.132547,142.880149 72.029841,143.21872399999998 72.0,143.521704 72.0,154.01995799999997" stroke="#1f6fb2" stroke-width="0.1" /><text fill="#0a3d62" font-family="sans-serif" font-size="1.6" text-anchor="middle" x="85.0" y="148.770831">05</text><polygon fill="#cfe3f7" fill-opacity="0.5" points="4.0,217.01995799999997 4.029841,217.322938 4.132547,217.66151299999999 4.299332,217.973546 4.523786,218.24704499999999 4.7972850000000005,218.471499 5.109318,218.638284 5.4478930000000005,218.74098999999998 5.750873,218.770831 28.249127,218.770831 28.552107,218.74098999999998 28.890682,218.638284 29.202715,218.471499 29.476214,218.24704499999999 29.700668,217.973546 29.867453,217.66151299999999 29.970159,217.322938 30.0,217.01995799999997 30.0,206.521704 29.970159,206.21872399999998 29.867453,205.880149 29.700668,205.56811599999997 29.476214,205.294617 29.202715,205.07016299999998 28.890682,204.90337799999998 28.552107,204.800672 28.249127,204.770831 5.750873,204.770831 5.4478930000000005,204.800672 5.109318,204.90337799999998 4.7972850000000005,205.07016299999998 4.523786,205.294617 4.299332,205.56811599999997 4.132547,205.880149 4.029841,206.21872399999998 4.0,206.521704 4.0,217.01995799999997" stroke="#1f6fb2" stroke-width="0.1" /><text fill="#0a3d62" font-family="sans-serif" font-size="1.6" text-anchor="middle" x="17.0" y="211.770831">05</text><polygon fill="#cfe3f7" fill-opacity="0.5" points="71.572053,215.85765899999998 71.56934799999999,215.353739 71.583375,214.842266 71.61252999999999,214.323701 71.655152,213.79853799999998 71.709519,213.26728599999998 71.773859,212.730451 71.846353,212.18853099999998 71.925144,211.642003 72.008335,211.091322 72.21883199999999,209.72901299999998 58.780716,204.770831 58.145398,205.19037999999998 57.935474,205.327714 57.72806,205.46087 57.522656,205.589016 57.318786,205.71137499999998 57.115969,205.82723199999998 56.913016,205.936322 56.707906,206.03918 56.499669,206.136294 56.288506,206.22757499999997 56.074714,206.31289299999997 55.858594,206.39212099999997 55.64045,206.465138 55.420585,206.531826 55.199304,206.592074 54.976911,206.64577699999998 54.753606,206.692858 54.528752999999995,206.733434 54.301271,206.76799599999998 54.070786999999996,206.79702699999999 53.837306999999996,206.820956 53.600865,206.84022099999999 53.361513,206.855277 53.119316,206.866591 52.87435,206.87464799999998 52.626695999999995,206.87994999999998 52.376436999999996,206.883016 52.123659,206.884378 51.868444,206.88458899999998 51.609415999999996,206.884212 51.609415999999996,216.884213 71.615479,216.884213 71.572053,215.85765899999998 31.646779,215.85765899999998 31.649484,215.353739 31.635457,214.842266 31.606302,214.323701 31.563679999999998,213.79853799999998 31.509313,213.26728599999998 31.444973,212.730451 31.372479,212.18853099999998 31.293688,211.642003 31.210497,211.091322 31.0,209.72901299999998 44.438116,204.770831 45.073434,205.19037999999998 45.283358,205.327714 45.490772,205.46087 45.696176,205.589016 45.900046,205.71137499999998 46.102863,205.82723199999998 46.305816,205.936322 46.510926,206.03918 46.719162999999995,206.136294 46.930326,206.22757499999997 47.144118,206.31289299999997 47.360237999999995,206.39212099999997 47.578382,206.465138 47.798247,206.531826 48.019528,206.592074 48.241921,206.64577699999998 48.465226,206.692858 48.690079,206.733434 48.917561,206.76799599999998 49.148044999999996,206.79702699999999 49.381524999999996,206.820956 49.617967,206.84022099999999 49.857319000000004,206.855277 50.099516,206.866591 50.344482,206.87464799999998 50.592135999999996,206.87994999999998 50.842394999999996,206.883016 51.095173,206.884378 51.350387999999995,206.88458899999998 51.609415999999996,206.884212 51.609415999999996,216.884213 31.603353,216.884213 31.646779,215.85765899999998" stroke="#1f6fb2" stroke-width="0.1" /><text fill="#0a3d62" font-family="sans-serif" font-size="1.6" text-anchor="middle" x="51.609415999999996" y="210.827522">03</text><polygon fill="#cfe3f7" fill-opacity="0.5" points="27.153861,226.62195499999999 27.656905,226.71117099999998 28.159997999999998,226.79529699999998 28.663138,226.87433199999998 29.166323,226.948274 29.669549,227.017122 30.172814,227.080876 30.676115,227.139533 31.179448999999998,227.19309399999997 31.682814,227.24155599999997 32.186206,227.28491899999997 32.689623,227.323183 33.193061,227.35634599999997 33.696518,227.38440799999998 34.199991,227.407369 34.703475999999995,227.42522799999998 35.20697,227.437984 35.710471,227.44563799999997 36.213974,227.44818999999998 36.717478,227.44563799999997 37.220979,227.437984 37.724473,227.42522799999998 38.227958,227.407369 38.73143,227.38440799999998 39.234887,227.35634599999997 39.738326,227.323183 40.241743,227.28491899999997 40.745135,227.24155599999997 41.2485,227.19309399999997 41.751834,227.139533 42.255134999999996,227.080876 42.758399999999995,227.017122 43.261626,226.948274 43.764810999999995,226.87433199999998 44.267951,226.79529699999998 44.771044,226.71117099999998 45.274088,226.62195499999999 45.584528,226.563752 47.637934,229.98609599999997 48.693152,229.587113 46.880915,219.770831 45.398925,220.06370299999998 44.915178,220.15439899999998 44.431482,220.24018299999997 43.947835999999995,220.321057 43.464236,220.397022 42.980681000000004,220.46808 42.497167,220.53423199999997 42.013692,220.59547799999999 41.530253,220.65182099999998 41.046848,220.70326 40.563472,220.749798 40.080124999999995,220.79143499999998 39.596802,220.828171 39.113501,220.860008 38.630218,220.886946 38.14695,220.90898499999997 37.663695,220.92612599999998 37.18045,220.93837 36.697210999999996,220.94571599999998 36.213974,220.948164 35.730738,220.94571599999998 35.247499,220.93837 34.764253,220.92612599999998 34.280998999999994,220.90898499999997 33.797731,220.886946 33.314448,220.860008 32.831147,220.828171 32.347824,220.79143499999998 31.864476,220.749798 31.381101,220.70326 30.897696,220.65182099999998 30.414257,220.59547799999999 29.930782,220.53423199999997 29.447267999999998,220.46808 28.963713,220.397022 28.480113,220.321057 27.996467,220.24018299999997 27.512771,220.15439899999998 27.029024,220.06370299999998 26.346576,219.928837 26.346576,226.467517 26.650868,226.527651 27.153861,226.62195499999999 25.539291,226.62195499999999 25.036247,226.71117099999998 24.533154,226.79529699999998 24.030013999999998,226.87433199999998 23.526829,226.948274 23.023602999999998,227.017122 22.520338,227.080876 22.017037,227.139533 21.513703,227.19309399999997 21.010337999999997,227.24155599999997 20.506946,227.28491899999997 20.003529,227.323183 19.500090999999998,227.35634599999997 18.996634,227.38440799999998 18.493161,227.407369 17.989676,227.42522799999998 17.486182,227.437984 16.982681,227.44563799999997 16.479177999999997,227.44818999999998 15.975674,227.44563799999997 15.472173,227.437984 14.968678999999998,227.42522799999998 14.465193999999999,227.407369 13.961721999999998,227.38440799999998 13.458264999999999,227.35634599999997 12.954825999999999,227.323183 12.451408999999998,227.28491899999997 11.948016999999998,227.24155599999997 11.444652,227.19309399999997 10.941317999999999,227.139533 10.438016999999999,227.080876 9.934752,227.017122 9.431525999999998,226.948274 8.928341,226.87433199999998 8.425200999999998,226.79529699999998 7.922107999999998,226.71117099999998 7.419063999999999,226.62195499999999 7.108623999999999,226.563752 5.055218,229.98609599999997 4.0,229.587113 5.812237,219.770831 7.294226999999999,220.06370299999998 7.777974,220.15439899999998 8.261669999999999,220.24018299999997 8.745315999999999,220.321057 9.228915999999998,220.397022 9.712470999999997,220.46808 10.195985,220.53423199999997 10.679459999999999,220.59547799999999 11.162899,220.65182099999998 11.646303999999999,220.70326 12.129679999999999,220.749798 12.613026999999999,220.79143499999998 13.09635,220.828171 13.579650999999998,220.860008 14.062933999999998,220.886946 14.546202,220.90898499999997 15.029456999999999,220.92612599999998 15.512701999999999,220.93837 15.995940999999998,220.94571599999998 16.479177999999997,220.948164 16.962414,220.94571599999998 17.445653,220.93837 17.928899,220.92612599999998 18.412153,220.90898499999997 18.895421,220.886946 19.378704,220.860008 19.862005,220.828171 20.345328,220.79143499999998 20.828675999999998,220.749798 21.312050999999997,220.70326 21.795455999999998,220.65182099999998 22.278895,220.59547799999999 22.762369999999997,220.53423199999997 23.245884,220.46808 23.729439,220.397022 24.213039,220.321057 24.696685,220.24018299999997 25.180380999999997,220.15439899999998 25.664127999999998,220.06370299999998 26.346576,219.928837 26.346576,226.467517 26.042284,226.527651 25.539291,226.62195499999999" stroke="#1f6fb2" stroke-width="0.1" /><text fill="#0a3d62" font-family="sans-serif" font-size="1.6" text-anchor="middle" x="26.346576" y="224.87846349999998">07</text><polygon fill="#cfe3f7" fill-opacity="0.5" points="73.066525,225.07002799999998 73.609673,225.140979 74.15284,225.207877 74.696027,225.27072399999997 75.239232,225.32951799999998 75.782454,225.384259 76.325692,225.434946 76.868945,225.48157999999998 77.412211,225.52416 77.955489,225.562685 78.498779,225.59715599999998 79.042078,225.627572 79.585386,225.653933 80.128702,225.67623799999998 80.672023,225.69448899999998 81.21535,225.70868299999998 81.75868,225.718823 82.30201299999999,225.72490599999998 82.845347,225.726934 83.38868199999999,225.72490599999998 83.932015,225.718823 84.475345,225.70868299999998 85.018672,225.69448899999998 85.561993,225.67623799999998 86.105309,225.653933 86.648617,225.627572 87.19191599999999,225.59715599999998 87.735206,225.562685 88.27848399999999,225.52416 88.82175,225.48157999999998 89.365003,225.434946 89.908241,225.384259 90.45146299999999,225.32951799999998 90.99466799999999,225.27072399999997 91.537855,225.207877 92.08102199999999,225.140979 92.624169,225.07002799999998 93.167295,224.995026 94.562746,224.79190699999998 94.562746,219.770831 92.886457,220.014828 92.357843,220.08782599999998 91.82925,220.15687499999999 91.300678,220.22197699999998 90.772125,220.28313 90.24359,220.34033599999998 89.71507199999999,220.39359499999998 89.18656999999999,220.442908 88.658083,220.488274 88.129609,220.52969399999998 87.601148,220.56716899999998 87.072697,220.600698 86.544257,220.630282 86.015825,220.65592099999998 85.487401,220.677616 84.95898299999999,220.69536499999998 84.43056899999999,220.709171 83.90216,220.719031 83.373753,220.72494799999998 82.845347,220.72691999999998 82.316942,220.72494799999998 81.788535,220.719031 81.26012499999999,220.709171 80.731712,220.69536499999998 80.203294,220.677616 79.67487,220.65592099999998 79.14643799999999,220.630282 78.617997,220.600698 78.089547,220.56716899999998 77.56108599999999,220.52969399999998 77.032612,220.488274 76.504125,220.442908 75.975623,220.39359499999998 75.447105,220.34033599999998 74.91856999999999,220.28313 74.390017,220.22197699999998 73.861445,220.15687499999999 73.332852,220.08782599999998 72.804238,220.014828 72.127949,219.91638899999998 72.127949,224.93746499999997 72.5234,224.995026 73.066525,225.07002799999998 71.18937299999999,225.07002799999998 70.646225,225.140979 70.103058,225.207877 69.559871,225.27072399999997 69.016666,225.32951799999998 68.473444,225.384259 67.930206,225.434946 67.386953,225.48157999999998 66.84368699999999,225.52416 66.300409,225.562685 65.75711899999999,225.59715599999998 65.21382,225.627572 64.670512,225.653933 64.127196,225.67623799999998 63.583875,225.69448899999998 63.040548,225.70868299999998 62.497218,225.718823 61.953885,225.72490599999998 61.410551,225.726934 60.867216,225.72490599999998 60.323882999999995,225.718823 59.780553,225.70868299999998 59.237226,225.69448899999998 58.693905,225.67623799999998 58.150589,225.653933 57.607281,225.627572 57.063981999999996,225.59715599999998 56.520692,225.562685 55.977413999999996,225.52416 55.43414799999999,225.48157999999998 54.890895,225.434946 54.347657,225.384259 53.804435,225.32951799999998 53.26123,225.27072399999997 52.718042999999994,225.207877 52.174876,225.140979 51.63172899999999,225.07002799999998 51.088603,224.995026 49.693152,224.79190699999998 49.693152,219.770831 51.369440999999995,220.014828 51.898055,220.08782599999998 52.426648,220.15687499999999 52.95522,220.22197699999998 53.483773,220.28313 54.012308,220.34033599999998 54.540825999999996,220.39359499999998 55.069328,220.442908 55.597815,220.488274 56.126289,220.52969399999998 56.65475,220.56716899999998 57.183201,220.600698 57.711641,220.630282 58.240072999999995,220.65592099999998 58.768496999999996,220.677616 59.296915,220.69536499999998 59.825328999999996,220.709171 60.353738,220.719031 60.882144999999994,220.72494799999998 61.410551,220.72691999999998 61.938956,220.72494799999998 62.467363,220.719031 62.995773,220.709171 63.524186,220.69536499999998 64.052604,220.677616 64.581028,220.65592099999998 65.10946,220.630282 65.637901,220.600698 66.16635099999999,220.56716899999998 66.694812,220.52969399999998 67.223286,220.488274 67.751773,220.442908 68.28027499999999,220.39359499999998 68.808793,220.34033599999998 69.337328,220.28313 69.865881,220.22197699999998 70.394453,220.15687499999999 70.923046,220.08782599999998 71.45166,220.014828 72.127949,219.91638899999998 72.127949,224.93746499999997 71.73249799999999,224.995026 71.18937299999999,225.07002799999998" stroke="#1f6fb2" stroke-width="0.1" /><text fill="#0a3d62" font-family="sans-serif" font-size="1.6" text-anchor="middle" x="72.127949" y="222.74888249999998">08</text><polygon fill="#cfe3f7" fill-opacity="0.5" points="95.562746,223.41995799999998 95.584901,223.64490099999998 95.664844,223.908439 95.79466500000001,224.15131699999998 95.969375,224.36420199999998 96.18226,224.53891199999998 96.425138,224.66873299999997 96.688676,224.748676 96.91361900000001,224.770831 108.211873,224.770831 108.43681600000001,224.748676 108.700354,224.66873299999997 108.94323200000001,224.53891199999998 109.15611700000001,224.36420199999998 109.330827,224.15131699999998 109.460648,223.908439 109.540591,223.64490099999998 109.562746,223.41995799999998 109.562746,221.121704 109.540591,220.896761 109.460648,220.633223 109.330827,220.390345 109.15611700000001,220.17746 108.94323200000001,220.00275 108.700354,219.872929 108.43681600000001,219.79298599999998 108.211873,219.770831 96.91361900000001,219.770831 96.688676,219.79298599999998 96.425138,219.872929 96.18226,220.00275 95.969375,220.17746 95.79466500000001,220.390345 95.664844,220.633223 95.584901,220.896761 95.562746,221.121704 95.562746,223.41995799999998" stroke="#1f6fb2" stroke-width="0.1" /><text fill="#0a3d62" font-family="sans-serif" font-size="1.6" text-anchor="middle" x="102.562746" y="222.270831">06</text><polygon fill="#cfe3f7" fill-opacity="0.5" points="4.0,234.63522299999997 4.022155,234.86016599999996 4.102098,235.12370399999998 4.2319189999999995,235.36658199999997 4.406629,235.57946699999997 4.619514,235.75417699999997 4.862392,235.88399799999996 5.12593,235.96394099999998 5.350873,235.98609599999997 16.649127,235.98609599999997 16.87407,235.96394099999998 17.137608,235.88399799999996 17.380485999999998,235.75417699999997 17.593370999999998,235.57946699999997 17.768081000000002,235.36658199999997 17.897902000000002,235.12370399999998 17.977845000000002,234.86016599999996 18.0,234.63522299999997 18.0,232.33696899999998 17.977845000000002,232.112026 17.897902000000002,231.84848799999997 17.768081000000002,231.60560999999998 17.593370999999998,231.39272499999998 17.380485999999998,231.21801499999998 17.137608,231.088194 16.87407,231.00825099999997 16.649127,230.98609599999997 5.350873,230.98609599999997 5.12593,231.00825099999997 4.862392,231.088194 4.619514,231.21801499999998 4.406629,231.39272499999998 4.2319189999999995,231.60560999999998 4.102098,231.84848799999997 4.022155,232.112026 4.0,232.33696899999998 4.0,234.63522299999997" stroke="#1f6fb2" stroke-width="0.1" /><text fill="#0a3d62" font-family="sans-serif" font-size="1.6" text-anchor="middle" x="11.0" y="233.48609599999997">06</text></svg>