<?xml version="1.0" encoding="utf-8" ?>
<svg baseProfile="full" height="158.21038cm" version="1.1" viewBox="0 0 166.13947331486528 158.21038" width="166.13947331486528cm" xmlns="http://www.w3.org/2000/svg" xmlns:ev="http://www.w3.org/2001/xml-events" xmlns:xlink="http://www.w3.org/1999/xlink"><defs /><g fill="none" id="CONSTRUCCION" stroke="#888888" stroke-width="0.08"><line x1="5.7" x2="5.7" y1="14.010380000000001" y2="76.21038" /><line x1="117.9351415948" x2="117.9351415948" y1="67.21038" y2="55.21038" /><line x1="137.13947331486528" x2="162.13947331486528" y1="10.21038" y2="10.21038" /><line x1="93.31226020012011" x2="105.31226020012011" y1="89.43038" y2="89.43038" /></g><g fill="none" id="CORTE" stroke="#d00000" stroke-width="0.08"><polygon points="3.0,77.21038 32.7,77.21038 32.7,26.82744 32.064377,26.119219 31.68364,25.695752000000002 31.300228,25.270827 30.913552,24.844551 30.522728,24.416705 30.126874,23.987081 29.725113,23.555471 29.316587,23.121694 28.90146,22.686589 28.483468,22.252195 28.068632,21.819307000000002 27.661766,21.387346 27.267583,20.955826000000002 26.890788999999998,20.52448 26.536030999999998,20.093264 26.207832,19.662365 25.910489,19.23218 25.647939,18.803248 25.423598,18.376109 25.240191,17.95095 25.098664,17.524219000000002 24.996703,17.087728 24.931072,16.635967 24.900036999999998,16.167822 24.902055,15.68316 24.935493,15.182458 24.998497999999998,14.66662 25.088960999999998,14.136805 25.20452,13.594294000000001 25.342596999999998,13.040397 25.500443999999998,12.476392 25.67518,11.903495 25.863829,11.322841 26.06334,10.735478 26.270614,10.142367 26.803774,8.637744 12.664382999999999,3.0 11.997501,3.8764849999999997 11.790486000000001,4.14916 11.583412000000001,4.423108 11.376570000000001,4.698548 11.170257000000001,4.975704 10.964770999999999,5.254799 10.760412,5.53606 10.557485,5.819713 10.356297999999999,6.105987 10.157162,6.39511 9.960391000000001,6.687311 9.766304,6.982817 9.575223999999999,7.281858 9.387640000000001,7.584396 9.204675,7.888889 9.026588,8.192893999999999 8.852513,8.495118 8.68136,8.794725 8.512084999999999,9.090889 8.343686,9.382795999999999 8.175203,9.669644 8.005721999999999,9.950645999999999 7.834366,10.225035 7.660298,10.492077 7.482713,10.751076 7.300826,11.001393 7.113851,11.242467 6.920053,11.474965000000001 6.716621,11.701878 6.502514,11.925929 6.278466,12.147989 6.04545,12.368769 5.804507,12.589007 5.556732,12.809485 5.326886,13.010380000000001 3.0,13.010380000000001 3.0,77.21038" /><polygon points="64.7,16.898097 64.206383,16.184834000000002 63.890604,15.728233 63.574899,15.27112 63.259214,14.813110000000002 62.943494,14.353813000000002 62.627681,13.89284 62.31172,13.429803 61.995569,12.964336 61.679655000000004,12.496707 61.365939000000004,12.027935 61.057135,11.558563 60.755539,11.088505000000001 60.46341,10.617692000000002 60.182978000000006,10.146104000000001 59.916441000000006,9.673763000000001 59.66594500000001,9.200724999999998 59.433577,8.727070999999999 59.221344,8.252890999999998 59.03116,7.778254 58.864833000000004,7.3031809999999995 58.724025000000005,6.827471999999999 58.609698,6.348724 58.520765000000004,5.862958999999999 58.45533400000001,5.368355 58.411896,4.864945 58.388940000000005,4.352956999999999 58.380096,3.21038 37.7,3.21038 37.7,67.21038 64.7,67.21038 64.7,16.898097" /><polygon points="90.38491300000001,13.832737 90.39821,13.304716 90.427164,12.769381000000001 90.470046,12.227255000000001 90.525071,11.678871000000001 90.5904,11.124766000000001 90.66414800000001,10.565460999999999 90.74439000000001,10.001463000000001 90.829163,9.433250000000001 91.04132100000001,8.043365999999999 77.071527,3.104298 76.43938200000001,3.510468 76.222362,3.648602 76.007857,3.782574 75.795371,3.911527 75.58442500000001,4.034656 75.374536,4.151226 75.164466,4.2609580000000005 74.952188,4.3643719999999995 74.736773,4.461935 74.51842500000001,4.553566 74.297442,4.639146 74.074121,4.718562 73.848761,4.791704 73.621663,4.858468 73.393127,4.918754 73.163458,4.972467 72.932841,5.01954 72.700658,5.060098 72.465892,5.094628999999999 72.228218,5.123615 71.987646,5.147489 71.74421000000001,5.166695 71.497961,5.18169 71.248962,5.1929479999999995 70.99728400000001,5.200956 70.743007,5.2062159999999995 70.486208,5.2092469999999995 70.22697000000001,5.210583 69.96537000000001,5.210773 69.7,5.210379 69.7,15.21038 90.395576,15.21038 90.38491300000001,13.832737" /><polygon points="99.61735768811157,68.21038 127.45003768811158,68.21038 132.17409968811157,14.208211 131.43067068811158,13.399592 130.9793066881116,12.914252000000001 130.51892568811158,12.430456000000001 130.04737768811157,11.951725 129.56489968811158,11.482526 129.07376468811157,11.024506 128.57498068811157,10.577075 128.06920068811158,10.139302 127.55706468811158,9.710255 127.03919868811157,9.289000999999999 126.51622068811157,8.874604999999999 125.98873668811157,8.466139 125.45733768811158,8.06267 124.92187768811158,7.662736 124.38028268811158,7.265006 123.83012568811158,6.8710890000000004 123.27030168811157,6.484051 122.69983368811157,6.1071290000000005 122.11769568811157,5.743619 121.52282668811158,5.396885 120.91415668811158,5.0703890000000005 120.29063268811157,4.7677 119.65127668811158,4.492519 118.99687568811157,4.249266 118.33254868811157,4.040908 117.66381768811158,3.864556 116.99284368811158,3.7154920000000002 116.32118368811157,3.5889670000000002 115.65027568811158,3.480359 114.98149668811158,3.3851839999999997 114.31620468811157,3.29909 113.55939668811158,3.206005 112.78849768811158,3.2610010000000003 112.10963368811157,3.313573 111.42714268811157,3.3748050000000003 110.74219668811158,3.448988 110.05596868811158,3.540543 109.36967768811158,3.654022 108.68463768811158,3.794107 108.00238468811158,3.9655750000000003 107.32684768811157,4.1725069999999995 106.66382068811157,4.4145389999999995 106.01575068811157,4.687412 105.38208868811157,4.987533 104.76201368811158,5.311485 104.15465168811157,5.655961 103.55911468811158,6.017748 102.97452368811157,6.393713 102.40002568811157,6.780786 101.83480968811158,7.175948 101.27739668811157,7.576724 100.72481868811157,7.983325 100.17639268811158,8.39904 99.63402668811158,8.826255 99.10008568811158,9.267101 98.57699068811158,9.723748 98.06723868811157,10.198392 97.57341868811157,10.693235999999999 97.09823668811157,11.210455 96.64496868811158,11.751627000000001 96.21951368811158,12.313099000000001 95.82209968811158,12.884089000000001 95.44640868811157,13.455937 94.90211068811158,14.308973 99.61735768811157,68.21038" /><polygon points="136.13947331486528,15.459507 136.1693143148653,15.762487 136.27202031486527,16.101062 136.43880531486528,16.413095 136.6632593148653,16.686594 136.93675831486527,16.911048 137.2487913148653,17.077833 137.58736631486528,17.180539000000003 137.8903463148653,17.21038 161.3886003148653,17.21038 161.6915803148653,17.180539000000003 162.03015531486528,17.077833 162.3421883148653,16.911048 162.61568731486528,16.686594 162.8401413148653,16.413095 163.0069263148653,16.101062 163.10963231486528,15.762487 163.13947331486528,15.459507 163.13947331486528,4.961253 163.10963231486528,4.658272999999999 163.0069263148653,4.319698 162.8401413148653,4.007665 162.61568731486528,3.734166 162.3421883148653,3.509712 162.03015531486528,3.342927 161.6915803148653,3.240221 161.3886003148653,3.21038 137.8903463148653,3.21038 137.58736631486528,3.240221 137.2487913148653,3.342927 136.93675831486527,3.509712 136.6632593148653,3.734166 136.43880531486528,4.007665 136.27202031486527,4.319698 136.1693143148653,4.658272999999999 136.13947331486528,4.961253 136.13947331486528,15.459507" /><polygon points="3.0,84.859507 3.022155,85.08445 3.1020980000000002,85.347988 3.2319190000000004,85.590866 3.406629,85.803751 3.619514,85.978461 3.8623920000000003,86.108282 4.12593,86.188225 4.350873,86.21038 15.649127,86.21038 15.87407,86.188225 16.137608,86.108282 16.380485999999998,85.978461 16.593370999999998,85.803751 16.768081000000002,85.590866 16.897902000000002,85.347988 16.977845000000002,85.08445 17.0,84.859507 17.0,82.56125300000001 16.977845000000002,82.33631 16.897902000000002,82.072772 16.768081000000002,81.829894 16.593370999999998,81.617009 16.380485999999998,81.442299 16.137608,81.312478 15.87407,81.232535 15.649127,81.21038 4.350873,81.21038 4.12593,81.232535 3.8623920000000003,81.312478 3.619514,81.442299 3.406629,81.617009 3.2319190000000004,81.829894 3.1020980000000002,82.072772 3.022155,82.33631 3.0,82.56125300000001 3.0,84.859507" /><polygon points="22.834907,87.884889 23.349529,87.974029 23.864196,88.058083 24.378908,88.137049 24.893661,88.210927 25.408453,88.279715 25.923281,88.343412 26.438142,88.402017 26.953035,88.455529 27.467956,88.503948 27.982903,88.547272 28.497873,88.58550100000001 29.012863,88.618633 29.52787,88.64667 30.042892000000002,88.669609 30.557924999999997,88.687452 31.072967,88.700196 31.588014,88.707843 32.103065,88.710392 32.618116,88.707843 33.133162999999996,88.700196 33.648205000000004,88.687452 34.163239000000004,88.669609 34.67826,88.64667 35.193267,88.618633 35.708257,88.58550100000001 36.223227,88.547272 36.738174,88.503948 37.253095,88.455529 37.767988,88.402017 38.282849,88.343412 38.797677,88.279715 39.312469,88.210927 39.827222,88.137049 40.341933999999995,88.058083 40.856601999999995,87.974029 41.371223,87.884889 41.707679,87.82328 43.762691000000004,91.248299 44.817909,90.849316 43.006487,81.037446 41.516157,81.325096 41.020424,81.415871 40.524739,81.501731 40.0291,81.582677 39.533506,81.658711 39.037952000000004,81.729833 38.542437,81.796045 38.046959,81.857348 37.551514,81.913743 37.0561,81.965231 36.560715,82.011812 36.065355,82.053488 35.570018,82.090259 35.074702,82.122127 34.579402,82.14909 34.084118000000004,82.171151 33.588844,82.188308 33.09358,82.200564 32.598321,82.207917 32.103065,82.210368 31.607809,82.207917 31.11255,82.200564 30.617286,82.188308 30.122013000000003,82.171151 29.626728,82.14909 29.131428,82.122127 28.636112,82.090259 28.140774999999998,82.053488 27.645415,82.011812 27.15003,81.965231 26.654616,81.913743 26.159171,81.857348 25.663693,81.796045 25.168178,81.729833 24.672625,81.658711 24.17703,81.582677 23.681391,81.501731 23.185706,81.415871 22.689973,81.325096 22.0,81.191924 22.0,87.728836 22.320334,87.790664 22.834907,87.884889" /><polygon points="50.371089100060054,86.353855 50.92587110006006,86.424766 51.48067110006005,86.491627 52.03549010006005,86.554439 52.590326100060054,86.613199 53.14517810006005,86.667909 53.70004510006005,86.718568 54.254925100060056,86.765175 54.809818100060056,86.80773 55.364723100060054,86.846233 55.919638100060055,86.880684 56.474562100060055,86.91108200000001 57.029494100060056,86.937428 57.58443410006005,86.95972 58.139379100060054,86.97796 58.69432910006005,86.992147 59.24928210006006,87.00228 59.804238100060054,87.00836 60.359195100060056,87.010387 60.91415210006005,87.00836 61.469108100060055,87.00228 62.02406110006005,86.992147 62.57901110006006,86.97796 63.133956100060054,86.95972 63.688896100060056,86.937428 64.24382810006006,86.91108200000001 64.79875210006006,86.880684 65.35366710006005,86.846233 65.90857210006006,86.80773 66.46346510006005,86.765175 67.01834510006006,86.718568 67.57321210006006,86.667909 68.12806410006006,86.613199 68.68290010006005,86.554439 69.23771910006005,86.491627 69.79251910006005,86.424766 70.34730110006005,86.353855 70.90206310006005,86.278894 72.31226010006006,86.078046 72.31226010006006,81.057862 70.62715110006005,81.297866 70.08660610006005,81.37090500000001 69.54608110006005,81.439994 69.00557510006006,81.505133 68.46508810006006,81.566321 67.92461710006006,81.623561 67.38416310006005,81.676851 66.84372310006006,81.726192 66.30329710006005,81.771585 65.76288310006005,81.81303 65.22248110006005,81.850527 64.68209010006005,81.88407600000001 64.14170810006006,81.913678 63.60133410006006,81.93933200000001 63.06096610006006,81.96104 62.52060510006005,81.9788 61.98024910006005,81.992613 61.439895100060056,82.00248 60.89954510006005,82.0084 60.359195100060056,82.010373 59.81884510006005,82.0084 59.278495100060056,82.00248 58.73814210006005,81.992613 58.19778510006005,81.9788 57.657424100060055,81.96104 57.11705710006005,81.93933200000001 56.576682100060054,81.913678 56.03630010006005,81.88407600000001 55.495909100060054,81.850527 54.95550710006005,81.81303 54.415093100060055,81.771585 53.87466710006005,81.726192 53.33422810006005,81.676851 52.79377310006005,81.623561 52.253302100060054,81.566321 51.712815100060055,81.505133 51.172309100060055,81.439994 50.63178410006005,81.37090500000001 50.09123910006005,81.297866 49.406130100060054,81.200288 49.406130100060054,86.220472 49.81632710006005,86.278894 50.371089100060054,86.353855" /><polygon points="76.31226020012011,155.21038 84.31226020012011,155.21038 84.31226020012011,95.168896 88.52947720012011,82.200954 86.01823620012011,80.945334 85.3097612001201,81.876485 85.10274620012011,82.14916 84.89567220012012,82.423108 84.68883020012011,82.698548 84.48251720012011,82.97570400000001 84.2770312001201,83.254799 84.07267220012011,83.53606 83.86974520012011,83.81971300000001 83.66855820012012,84.105987 83.4694222001201,84.39511 83.27265120012011,84.687311 83.07856420012011,84.982817 82.88748420012011,85.281858 82.69990020012011,85.584396 82.51693520012012,85.888889 82.33884820012011,86.192894 82.16477320012011,86.495118 81.9936202001201,86.794725 81.8243452001201,87.090889 81.65594620012011,87.382796 81.4874632001201,87.669644 81.31798220012011,87.950646 81.14662620012011,88.225035 80.9725582001201,88.492077 80.79497320012011,88.751076 80.61308620012011,89.00139300000001 80.4261112001201,89.242467 80.2323132001201,89.474965 80.02888120012011,89.70187800000001 79.81477420012011,89.925929 79.59072620012012,90.147989 79.35771020012011,90.368769 79.11676720012011,90.589007 78.8689922001201,90.809485 78.63914620012011,91.01038 76.31226020012011,91.01038 76.31226020012011,155.21038" /><polygon points="92.31226020012011,92.482285 99.31226020012011,96.892285 106.31226020012011,92.482285 106.31226020012011,81.21038 92.31226020012011,81.21038 92.31226020012011,92.482285" /></g><g fill="none" id="COSTURA" stroke="#00a000" stroke-width="0.08"><polygon points="4.0,14.010380000000001 5.7,14.010380000000001 5.959686013285333,13.78542417259776 6.21817168034306,13.559496319122402 6.474256654945569,13.331624413500807 6.726740590865257,13.100836429659854 6.974423141874514,12.866160341526424 7.216103961745732,12.626624123027401 7.450582704251306,12.381255748089659 7.676659023163626,12.129083190640088 7.893256679979926,11.86923402208864 8.10060846235799,11.601886318244102 8.299732244818408,11.327848193662902 8.491656557657326,11.047936314250125 8.677409931170875,10.762967345910846 8.858020895655198,10.47375795455015 9.034517981406433,10.181124806073111 9.207929718720717,9.88588456638481 9.379284637894191,9.588853901390323 9.549611269222991,9.290849476994733 9.719938143003258,8.99268795910312 9.891293789531128,8.695186013620562 10.06470673910274,8.399160306452135 10.241205385937755,8.105427396612553 10.42153860615614,7.814584276931247 10.605588168136507,7.5265468124709844 10.793068199435623,7.2410991835993785 10.983692827610266,6.95802557068404 11.177176180217204,6.6771101540925795 11.373232384813203,6.39813711419261 11.57157556895504,6.120890631351745 11.77191986019948,5.845154885937595 11.973979386103299,5.570714058317774 12.177468274223262,5.297352328859891 12.382100652116142,5.024853877931561 12.587590647338713,4.753002885900393 12.79365238744774,4.481583533134003 13.0,4.21038 25.539936203984453,9.21038 25.327315354905185,9.810414150204211 25.117881265850635,10.409707260467226 24.91482069684553,11.007518290847852 24.721320407914583,11.603106201404891 24.54056715908252,12.195729952197153 24.37574771037406,12.784648503283437 24.230048821813924,13.36912081472255 24.106657253426828,13.9484058465733 24.008759765237503,14.521762558894487 23.93954311727066,15.088449911744918 23.90219406955102,15.6477268651834 23.89989938210331,16.198852379268732 23.935845814952245,16.741085414059725 24.013220128122544,17.273684929615182 24.13520908163894,17.795909885993908 24.30473667700515,18.307069607644713 24.520519727002117,18.807279834324518 24.77788936527409,19.29730525777791 25.072080703372077,19.777928974839206 25.398328852847115,20.24993408234271 25.75186892525023,20.714103677122722 26.127936032132443,21.17122085601356 26.52176528504479,21.622068715849522 26.928591795538285,22.067430353464918 27.343650675163964,22.50808886569406 27.762177035472856,22.944827349371252 28.17940598801598,23.3784289013308 28.590829520898872,23.8096519834878 28.995135449639918,24.23894857221509 29.393177530839598,24.66656292627707 29.785850599860968,25.092735364911647 30.174049492067084,25.517706207356724 30.558669042820995,25.941715772850195 30.94060408748575,26.365004380629962 31.3207494614244,26.787812349933933 31.7,27.21038 31.7,76.21038 4.0,76.21038" /><polygon points="37.7,4.21038 57.38780624180664,4.21038 57.38911320237722,4.3792327371295015 57.41382416716241,4.930352936057527 57.46098994642854,5.476968827904147 57.532651886946596,6.018670930207414 57.63085133548756,6.555049760505384 57.75757318171434,7.085703791117235 57.91291028070036,7.610498081184503 58.09465973249684,8.129621160698377 58.300480487953564,8.643281024810374 58.52803149792031,9.15168566867202 58.77497171324685,9.655043087434827 59.03896008478296,10.153561276250318 59.31765556337842,10.647448230270015 59.608717099883,11.13691194464543 59.90980364514649,11.622160414528082 60.218574150018654,12.103401635069503 60.53268756534927,12.5808436014212 60.84980284198812,13.054694308734692 61.16763749149865,13.525166088721395 61.48509651236086,13.99255920931839 61.80219005030325,14.457255777240519 62.118970317171524,14.919641014298477 62.435489524811345,15.380100142302954 62.75179988506842,15.839018383064648 63.06795360978843,16.29678095839426 63.38400291081706,16.753773090102474 63.7,17.21038 63.7,66.21038 37.7,66.21038" /><polygon points="69.7,6.21038 69.96499058120865,6.210773549448451 70.22990983322396,6.210581059384141 70.49468642685257,6.20921649029431 70.75924903290111,6.206093802666196 71.02352632217624,6.2006269569870405 71.28744696548462,6.192229913744081 71.5509396336329,6.1803166334245585 71.81393299742768,6.164301076515711 72.07635572767568,6.143597203504779 72.3381364951835,6.117618974879001 72.5992039707578,6.085780351125617 72.85948682520524,6.047495292731865 73.11891356547004,6.00217831839817 73.37735954370581,5.949425023773202 73.63457086337108,5.8892713027173595 73.89027435977954,5.821818687894861 74.14419686824482,5.7471687119699215 74.3960652240806,5.665422907606759 74.64560626260054,5.576682807469591 74.89254681911828,5.481049944222633 75.13661372894751,5.378625850530103 75.37753382740185,5.269512059056217 75.61503394979499,5.153810102465192 75.8488775603201,5.031659257186595 76.07930062540717,4.903685683600203 76.3068676949631,4.770854126771243 76.53214996809412,4.63413618334823 76.75571864390646,4.494503449979676 76.97814492150634,4.3529275233140945 77.2,4.21038 89.92792206135786,8.71038 89.84035895373839,9.28402173433506 89.75483719288992,9.857253986208175 89.67339812558345,10.429667273157396 89.59808309858994,11.000852112720779 89.53093345868042,11.57039902243638 89.47399055262588,12.137898519842247 89.42929572719729,12.702941122476442 89.39889032916564,13.26511734787701 89.38481570530196,13.824017713582013 89.38780624180664,14.21038 69.7,14.21038" /><polygon points="95.92792206135786,14.56038 96.28583431647343,13.999451815219802 96.65051695232222,13.444360301920783 97.02874034963747,12.900942131584141 97.42725826420663,12.375019776881969 97.85014190909439,11.870124640643489 98.29584590174667,11.38499117960155 98.76211891414904,10.917750926128765 99.24670961828706,10.466535412597754 99.74736668614631,10.029476171381129 100.26183878971236,9.604704734851504 100.78787460097077,9.190352635381501 101.3232227919071,8.78455140534373 101.86563203450694,8.385432577110809 102.41321049699991,7.991726777264219 102.96594370157209,7.605293209949143 103.52442798288445,7.229008987626809 104.08926000432618,6.865751770578264 104.66103642928647,6.518399219084552 105.24035392115448,6.189828993426721 105.8278091433194,5.882918753885814 106.4239987591704,5.60054616074288 107.02951943209669,5.345588874278963 107.64496782548741,5.12092455477511 108.27087703410875,4.929194616916718 108.90679318644672,4.769372526868571 109.55148391054963,4.637538541993847 110.20369569616538,4.529694361553486 110.8621750330418,4.441841684808427 111.52566841092677,4.369982211019609 112.19292231956814,4.310117639447972 112.8626832487138,4.258249669354456 113.53369768811157,4.21038 114.19099676936975,4.291225662459232 114.84687587978333,4.376101242349863 115.49991504850775,4.469036657103292 116.1486943046984,4.574061824150917 116.7917936775107,4.695206660924136 117.42779319610007,4.836501084854349 118.05527288962192,5.001975013372953 118.67281278723166,5.195658363911349 119.27915610424687,5.421047264716279 119.87439085733713,5.677238939079859 120.45926673442679,5.961166254230541 121.03453803741996,6.2697469848639 121.60095906822079,6.599898905675511 122.15928412873338,6.9485397913609495 122.71026752086185,7.312587416615792 123.25466354651036,7.688959556135613 123.793226507583,8.074573984615988 124.32671070598393,8.466348476752492 124.85577010258876,8.861501490630623 125.38023867689989,9.259708652482303 125.89954980182617,9.661846052102362 126.4131341326192,10.068797923057005 126.92042232453059,10.481448498912428 127.42084503281194,10.900682013234826 127.91383291271487,11.327382699590407 128.39881661949096,11.762434791545365 128.87522680839186,12.206722522665899 129.3424941346691,12.661130126518215 129.80044766732559,13.126058638137676 130.2509366567004,13.599459004803505 130.6964491178413,14.078507476215268 131.13947331486528,14.56038 126.53369768811157,67.21038 100.53369768811157,67.21038" /><polygon points="137.13947331486528,5.01038 137.1548450905427,4.854307742387098 137.20036968885626,4.704233254107928 137.27429762502325,4.565923813584319 137.37378788991606,4.444694575050762 137.4950171284496,4.345204310157964 137.63332656897322,4.271276373990971 137.78340105725238,4.225751775677416 137.9394733148653,4.21038 161.33947331486527,4.21038 161.4955455724782,4.2257517756774154 161.64562006075735,4.27127637399097 161.78392950128097,4.345204310157964 161.9051587398145,4.444694575050762 162.00464900470732,4.565923813584318 162.0785769408743,4.704233254107928 162.12410153918788,4.854307742387098 162.13947331486528,5.0103800000000005 162.13947331486528,15.41038 162.12410153918788,15.566452257612903 162.0785769408743,15.716526745892072 162.00464900470732,15.854836186415682 161.9051587398145,15.976065424949239 161.78392950128097,16.075555689842034 161.64562006075735,16.14948362600903 161.4955455724782,16.195008224322585 161.33947331486527,16.21038 137.9394733148653,16.21038 137.78340105725238,16.195008224322585 137.63332656897322,16.14948362600903 137.4950171284496,16.075555689842037 137.37378788991606,15.976065424949239 137.27429762502325,15.854836186415682 137.20036968885626,15.716526745892072 137.1548450905427,15.566452257612903 137.13947331486528,15.41038" /><polygon points="4.0,82.61038 4.007685887838708,82.53234387119355 4.030448186995486,82.45730662705397 4.067412155078982,82.38815190679216 4.117157287525381,82.32753728752539 4.1777719067921595,82.27779215507898 4.2469266270539645,82.24082818699549 4.321963871193549,82.2180658878387 4.4,82.21038 15.6,82.21038 15.67803612880645,82.2180658878387 15.753073372946035,82.24082818699549 15.82222809320784,82.27779215507898 15.882842712474618,82.32753728752539 15.932587844921018,82.38815190679216 15.969551813004514,82.45730662705397 15.992314112161292,82.53234387119355 16.0,82.61038 16.0,84.81038 15.992314112161292,84.88841612880645 15.969551813004514,84.96345337294603 15.932587844921018,85.03260809320784 15.882842712474618,85.09322271247461 15.82222809320784,85.14296784492102 15.753073372946035,85.17993181300452 15.67803612880645,85.2026941121613 15.6,85.21038 4.4,85.21038 4.3219638711935495,85.2026941121613 4.2469266270539645,85.17993181300452 4.1777719067921595,85.14296784492102 4.117157287525381,85.09322271247461 4.067412155078982,85.03260809320784 4.030448186995486,84.96345337294603 4.007685887838708,84.88841612880645 4.0,84.81038" /><polygon points="22.0,82.21038 22.5051532525015,82.30788 23.010306505003,82.40038 23.515459757504505,82.48788 24.020613010006006,82.57038 24.525766262507506,82.64788 25.03091951500901,82.72038 25.53607276751051,82.78788 26.04122602001201,82.85038 26.546379272513512,82.90788 27.051532525015013,82.96038 27.556685777516517,83.00788 28.061839030018017,83.05038 28.566992282519518,83.08788 29.07214553502102,83.12038 29.577298787522523,83.14788 30.082452040024023,83.17038 30.587605292525524,83.18788 31.092758545027024,83.20038 31.597911797528525,83.20788 32.103065050030025,83.21038 32.60821830253153,83.20788 33.113371555033034,83.20038 33.618524807534534,83.18788 34.123678060036035,83.17038 34.628831312537535,83.14788 35.133984565039036,83.12038 35.63913781754054,83.08788 36.14429107004204,83.05038 36.649444322543545,83.00788 37.154597575045045,82.96038 37.659750827546546,82.90788 38.164904080048046,82.85038 38.67005733254955,82.78788 39.17521058505105,82.72038 39.68036383755255,82.64788 40.18551709005405,82.57038 40.690670342555556,82.48788 41.19582359505705,82.40038 41.70097684755856,82.30788 42.20613010006006,82.21038 43.406130100060054,88.71038 42.20613010006006,86.71038 41.70097684755856,86.80788 41.19582359505705,86.90038 40.690670342555556,86.98788 40.18551709005405,87.07038 39.68036383755255,87.14788 39.17521058505105,87.22038 38.67005733254955,87.28788 38.164904080048046,87.35038 37.659750827546546,87.40788 37.154597575045045,87.46038 36.649444322543545,87.50788 36.14429107004204,87.55038 35.63913781754054,87.58788 35.133984565039036,87.62038 34.628831312537535,87.64788 34.123678060036035,87.67038 33.618524807534534,87.68788 33.113371555033034,87.70038 32.60821830253153,87.70788 32.103065050030025,87.71038 31.597911797528525,87.70788 31.092758545027024,87.70038 30.587605292525524,87.68788 30.082452040024023,87.67038 29.577298787522523,87.64788 29.07214553502102,87.62038 28.566992282519518,87.58788 28.061839030018017,87.55038 27.556685777516517,87.50788 27.051532525015013,87.46038 26.546379272513512,87.40788 26.04122602001201,87.35038 25.53607276751051,87.28788 25.03091951500901,87.22038 24.525766262507506,87.14788 24.020613010006006,87.07038 23.515459757504505,86.98788 23.010306505003,86.90038 22.5051532525015,86.80788 22.0,86.71038" /><polygon points="49.406130100060054,82.21038 49.95378335256156,82.28838 50.501436605063056,82.36238 51.04908985756456,82.43238 51.59674311006606,82.49838 52.14439636256756,82.56038 52.69204961506906,82.61838 53.239702867570564,82.67238 53.78735612007206,82.72238 54.335009372573566,82.76838000000001 54.88266262507507,82.81038 55.43031587757657,82.84838 55.97796913007807,82.88238 56.52562238257957,82.91238 57.073275635081075,82.93838 57.62092888758258,82.96038 58.16858214008408,82.97838 58.716235392585574,82.99238 59.26388864508708,83.00238 59.81154189758858,83.00838 60.35919515009008,83.01038 60.906848402591585,83.00838 61.45450165509308,83.00238 62.00215490759459,82.99238 62.54980816009609,82.97838 63.09746141259759,82.96038 63.64511466509909,82.93838 64.19276791760059,82.91238 64.7404211701021,82.88238 65.28807442260359,82.84838 65.83572767510509,82.81038 66.3833809276066,82.76838000000001 66.9310341801081,82.72238 67.4786874326096,82.67238 68.02634068511111,82.61838 68.5739939376126,82.56038 69.1216471901141,82.49838 69.66930044261561,82.43238 70.2169536951171,82.36238 70.7646069476186,82.28838 71.31226020012011,82.21038 71.31226020012011,85.21038 70.7646069476186,85.28838 70.2169536951171,85.36238 69.66930044261561,85.43238 69.1216471901141,85.49838 68.5739939376126,85.56038 68.02634068511111,85.61838 67.4786874326096,85.67238 66.9310341801081,85.72238 66.3833809276066,85.76838 65.83572767510509,85.81038 65.28807442260359,85.84838 64.7404211701021,85.88238 64.19276791760059,85.91238 63.64511466509909,85.93838 63.09746141259759,85.96038 62.54980816009609,85.97838 62.00215490759459,85.99238 61.45450165509308,86.00238 60.906848402591585,86.00838 60.35919515009008,86.01038 59.81154189758858,86.00838 59.26388864508708,86.00238 58.716235392585574,85.99238 58.16858214008408,85.97838 57.62092888758258,85.96038 57.073275635081075,85.93838 56.52562238257957,85.91238 55.97796913007807,85.88238 55.43031587757657,85.84838 54.88266262507507,85.81038 54.335009372573566,85.76838 53.78735612007206,85.72238 53.239702867570564,85.67238 52.69204961506906,85.61838 52.14439636256756,85.56038 51.59674311006606,85.49838 51.04908985756456,85.43238 50.501436605063056,85.36238 49.95378335256156,85.28838 49.406130100060054,85.21038" /><polygon points="77.31226020012011,92.01038 79.01226020012011,92.01038 79.27194621340544,91.78542417259776 79.53043188046317,91.5594963191224 79.78651685506568,91.3316244135008 80.03900079098537,91.10083642965985 80.28668334199462,90.86616034152642 80.52836416186584,90.6266241230274 80.76284290437141,90.38125574808966 80.98891922328373,90.12908319064009 81.20551688010003,89.86923402208865 81.4128686624781,89.6018863182441 81.61199244493852,89.3278481936629 81.80391675777743,89.04793631425012 81.98967013129098,88.76296734591085 82.17028109577531,88.47375795455015 82.34677818152655,88.18112480607311 82.52018991884083,87.8858845663848 82.6915448380143,87.58885390139032 82.8618714693431,87.29084947699474 83.03219834312337,86.99268795910312 83.20355398965124,86.69518601362056 83.37696693922285,86.39916030645213 83.55346558605787,86.10542739661255 83.73379880627625,85.81458427693124 83.91784836825661,85.52654681247098 84.10532839955573,85.24109918359937 84.29595302773038,84.95802557068404 84.48943638033731,84.67711015409257 84.68549258493331,84.39813711419261 84.88383576907515,84.12089063135174 85.0841800603196,83.84515488593759 85.2862395862234,83.57071405831778 85.48972847434337,83.29735232885989 85.69436085223626,83.02485387793156 85.89985084745882,82.7530028859004 86.10591258756784,82.481583533134 86.31226020012011,82.21038 87.31226020012011,82.71038 83.31226020012011,95.01038 83.31226020012011,154.21038 77.31226020012011,154.21038" /><polygon points="93.31226020012011,82.21038 105.31226020012011,82.21038 105.31226020012011,91.93038 99.31226020012011,95.71038 93.31226020012011,91.93038" /></g><g fill="none" id="PIQUETES" stroke="#00b0b0" stroke-width="0.08"><line x1="23.675292092701095" x2="23.76861671667802" y1="16.27502687690384" y2="16.914472351170073" /><line x1="24.142033695361096" x2="23.76861671667802" y1="16.387063818786302" y2="16.914472351170073" /><line x1="31.78587057961874" x2="31.139719693167223" y1="49.03626787726689" y2="49.04570355095314" /><line x1="31.614129420381257" x2="31.139719693167223" y1="49.48449212273311" y2="49.04570355095314" /><line x1="47.304831329739194" x2="47.59662163458537" y1="4.231467405472817" y2="4.808059477910323" /><line x1="47.78297491206745" x2="47.59662163458537" y1="4.189292594527183" y2="4.808059477910323" /><line x1="79.78277205225166" x2="79.48572056141889" y1="14.187106976206223" y2="13.61320767162917" /><line x1="79.30503418955499" x2="79.48572056141889" y1="14.233653023793778" y2="13.61320767162917" /><line x1="121.91205287256143" x2="121.96913464594067" y1="6.868575955981499" y2="7.5122697272329235" /><line x1="122.37172630746012" x2="121.96913464594067" y1="7.0067799112375875" y2="7.5122697272329235" /><line x1="104.28274961478894" x2="104.68882413461739" y1="6.679563888678484" y2="7.182260103450486" /><line x1="104.74145721665334" x2="104.68882413461739" y1="6.5381873135614885" y2="7.182260103450486" /><line x1="102.86537169684568" x2="103.2980631626972" y1="7.604330183542679" y2="8.084307365687067" /><line x1="103.31575360614569" x2="103.2980631626972" y1="7.438329774581466" y2="8.084307365687067" /></g><g fill="none" id="TEXTOS" stroke="#000000" stroke-width="0.08"><text fill="#000000" font-family="sans-serif" font-size="0.9" stroke="none" text-anchor="middle" x="17.32628887522693" y="41.05296304055908">DELANTERO</text><text fill="#000000" font-family="sans-serif" font-size="0.6" stroke="none" text-anchor="middle" x="17.32628887522693" y="42.45296304055908">Pieza N.01</text><text fill="#000000" font-family="sans-serif" font-size="0.6" stroke="none" text-anchor="middle" x="17.32628887522693" y="43.852963040559075">Talla: L</text><text fill="#000000" font-family="sans-serif" font-size="0.6" stroke="none" text-anchor="middle" x="17.32628887522693" y="45.25296304055908">Cortar: 2  (par: izq + der)</text><text fill="#000000" font-family="sans-serif" font-size="0.9" stroke="none" text-anchor="middle" x="50.35452671476293" y="32.474936203386015">ESPALDA</text><text fill="#000000" font-family="sans-serif" font-size="0.6" stroke="none" text-anchor="middle" x="50.35452671476293" y="33.874936203386014">Pieza N.02</text><text fill="#000000" font-family="sans-serif" font-size="0.6" stroke="none" text-anchor="middle" x="50.35452671476293" y="35.27493620338601">Talla: L</text><text fill="#000000" font-family="sans-serif" font-size="0.6" stroke="none" text-anchor="middle" x="50.35452671476293" y="36.67493620338601">Cortar: 1  (al doblez)</text><text fill="#000000" font-family="sans-serif" font-size="0.6" stroke="none" text-anchor="middle" x="50.35452671476293" y="38.07493620338602">AL DOBLEZ</text><text fill="#000000" font-family="sans-serif" font-size="0.9" stroke="none" text-anchor="middle" x="79.14174305490228" y="6.48270213364861">CANESU</text><text fill="#000000" font-family="sans-serif" font-size="0.6" stroke="none" text-anchor="middle" x="79.14174305490228" y="7.88270213364861">Pieza N.03</text><text fill="#000000" font-family="sans-serif" font-size="0.6" stroke="none" text-anchor="middle" x="79.14174305490228" y="9.282702133648609">Talla: L</text><text fill="#000000" font-family="sans-serif" font-size="0.6" stroke="none" text-anchor="middle" x="79.14174305490228" y="10.682702133648608">Cortar: 2  (al doblez x2 (exterior+interior))</text><text fill="#000000" font-family="sans-serif" font-size="0.6" stroke="none" text-anchor="middle" x="79.14174305490228" y="12.08270213364861">AL DOBLEZ</text><text fill="#000000" font-family="sans-serif" font-size="0.9" stroke="none" text-anchor="middle" x="113.48633627461871" y="33.02649165505949">MANGA</text><text fill="#000000" font-family="sans-serif" font-size="0.6" stroke="none" text-anchor="middle" x="113.48633627461871" y="34.426491655059486">Pieza N.04</text><text fill="#000000" font-family="sans-serif" font-size="0.6" stroke="none" text-anchor="middle" x="113.48633627461871" y="35.826491655059485">Talla: L</text><text fill="#000000" font-family="sans-serif" font-size="0.6" stroke="none" text-anchor="middle" x="113.48633627461871" y="37.22649165505949">Cortar: 2  (par: izq + der)</text><text fill="#000000" font-family="sans-serif" font-size="0.9" stroke="none" text-anchor="middle" x="149.63947331486528" y="7.510380000000001">PUNO</text><text fill="#000000" font-family="sans-serif" font-size="0.6" stroke="none" text-anchor="middle" x="149.63947331486528" y="8.91038">Pieza N.05</text><text fill="#000000" font-family="sans-serif" font-size="0.6" stroke="none" text-anchor="middle" x="149.63947331486528" y="10.310380000000002">Talla: L</text><text fill="#000000" font-family="sans-serif" font-size="0.6" stroke="none" text-anchor="middle" x="149.63947331486528" y="11.71038">Cortar: 4  (4 (2 tela + 2 entretela))</text><text fill="#000000" font-family="sans-serif" font-size="0.9" stroke="none" text-anchor="middle" x="9.999999999999996" y="81.01038">TAPETA MANGA</text><text fill="#000000" font-family="sans-serif" font-size="0.6" stroke="none" text-anchor="middle" x="9.999999999999996" y="82.41038">Pieza N.06</text><text fill="#000000" font-family="sans-serif" font-size="0.6" stroke="none" text-anchor="middle" x="9.999999999999996" y="83.81038">Talla: L</text><text fill="#000000" font-family="sans-serif" font-size="0.6" stroke="none" text-anchor="middle" x="9.999999999999996" y="85.21038">Cortar: 2  (par)</text><text fill="#000000" font-family="sans-serif" font-size="0.9" stroke="none" text-anchor="middle" x="32.40594881552181" y="81.54827025687788">CUELLO</text><text fill="#000000" font-family="sans-serif" font-size="0.6" stroke="none" text-anchor="middle" x="32.40594881552181" y="82.94827025687789">Pieza N.07</text><text fill="#000000" font-family="sans-serif" font-size="0.6" stroke="none" text-anchor="middle" x="32.40594881552181" y="84.34827025687788">Talla: L</text><text fill="#000000" font-family="sans-serif" font-size="0.6" stroke="none" text-anchor="middle" x="32.40594881552181" y="85.74827025687789">Cortar: 2  (al doblez x2 (+ entretela))</text><text fill="#000000" font-family="sans-serif" font-size="0.6" stroke="none" text-anchor="middle" x="32.40594881552181" y="87.14827025687788">AL DOBLEZ</text><text fill="#000000" font-family="sans-serif" font-size="0.9" stroke="none" text-anchor="middle" x="60.35919515009009" y="80.64338000000001">PIE DE CUELLO</text><text fill="#000000" font-family="sans-serif" font-size="0.6" stroke="none" text-anchor="middle" x="60.35919515009009" y="82.04338">Pieza N.08</text><text fill="#000000" font-family="sans-serif" font-size="0.6" stroke="none" text-anchor="middle" x="60.35919515009009" y="83.44338">Talla: L</text><text fill="#000000" font-family="sans-serif" font-size="0.6" stroke="none" text-anchor="middle" x="60.35919515009009" y="84.84338">Cortar: 2  (al doblez x2 (+ entretela))</text><text fill="#000000" font-family="sans-serif" font-size="0.6" stroke="none" text-anchor="middle" x="60.35919515009009" y="86.24338">AL DOBLEZ</text><text fill="#000000" font-family="sans-serif" font-size="0.9" stroke="none" text-anchor="middle" x="80.57830584504285" y="117.80569650133562">VISTA DELANTERA</text><text fill="#000000" font-family="sans-serif" font-size="0.6" stroke="none" text-anchor="middle" x="80.57830584504285" y="119.20569650133562">Pieza N.09</text><text fill="#000000" font-family="sans-serif" font-size="0.6" stroke="none" text-anchor="middle" x="80.57830584504285" y="120.60569650133561">Talla: L</text><text fill="#000000" font-family="sans-serif" font-size="0.6" stroke="none" text-anchor="middle" x="80.57830584504285" y="122.00569650133562">Cortar: 2  (par: izq + der)</text><text fill="#000000" font-family="sans-serif" font-size="0.9" stroke="none" text-anchor="middle" x="99.31226020012011" y="85.36665906976744">BOLSILLO</text><text fill="#000000" font-family="sans-serif" font-size="0.6" stroke="none" text-anchor="middle" x="99.31226020012011" y="86.76665906976744">Pieza N.10</text><text fill="#000000" font-family="sans-serif" font-size="0.6" stroke="none" text-anchor="middle" x="99.31226020012011" y="88.16665906976745">Talla: L</text><text fill="#000000" font-family="sans-serif" font-size="0.6" stroke="none" text-anchor="middle" x="99.31226020012011" y="89.56665906976744">Cortar: 1  (1 (opcional))</text></g><g fill="none" id="CENTROS" stroke="#0050ff" stroke-width="0.08"><circle cx="20.0" cy="30.21038" fill="#0050ff" r="0.15" /><circle cx="117.9351415948" cy="55.21038" fill="#0050ff" r="0.15" /></g><g fill="none" id="HILO" stroke="#c0a000" stroke-width="0.08"><line x1="18.7" x2="18.7" y1="17.01038" y2="73.21038" /><line x1="18.7" x2="19.16730201077038" y1="73.21038" y2="72.10510680719653" /><line x1="18.7" x2="18.232697989229617" y1="73.21038" y2="72.10510680719653" /><line x1="18.7" x2="18.23269798922962" y1="17.01038" y2="18.115653192803464" /><line x1="18.7" x2="19.16730201077038" y1="17.01038" y2="18.115653192803464" /><line x1="38.2" x2="38.2" y1="7.21038" y2="63.21038" /><line x1="38.2" x2="38.667302010770385" y1="63.21038" y2="62.105106807196535" /><line x1="38.2" x2="37.73269798922962" y1="63.21038" y2="62.105106807196535" /><line x1="38.2" x2="37.73269798922962" y1="7.21038" y2="8.315653192803463" /><line x1="38.2" x2="38.667302010770385" y1="7.21038" y2="8.315653192803463" /><line x1="74.2" x2="74.2" y1="5.21038" y2="13.71038" /><line x1="74.2" x2="74.66730201077038" y1="13.71038" y2="12.605106807196538" /><line x1="74.2" x2="73.73269798922962" y1="13.71038" y2="12.605106807196538" /><line x1="74.2" x2="73.73269798922962" y1="5.21038" y2="6.315653192803462" /><line x1="74.2" x2="74.66730201077038" y1="5.21038" y2="6.315653192803462" /><line x1="113.53369768811157" x2="113.53369768811157" y1="8.35038" y2="65.21038" /><line x1="113.53369768811157" x2="114.00099969888196" y1="65.21038" y2="64.10510680719653" /><line x1="113.53369768811157" x2="113.06639567734119" y1="65.21038" y2="64.10510680719653" /><line x1="113.53369768811157" x2="113.06639567734119" y1="8.35038" y2="9.45565319280346" /><line x1="113.53369768811157" x2="114.00099969888196" y1="8.35038" y2="9.45565319280346" /><line x1="149.63947331486528" x2="149.63947331486528" y1="4.71038" y2="15.71038" /><line x1="149.63947331486528" x2="150.10677532563565" y1="15.71038" y2="14.605106807196538" /><line x1="149.63947331486528" x2="149.1721713040949" y1="15.71038" y2="14.605106807196538" /><line x1="149.63947331486528" x2="149.17217130409492" y1="4.71038" y2="5.815653192803462" /><line x1="149.63947331486528" x2="150.10677532563565" y1="4.71038" y2="5.815653192803462" /><line x1="10.0" x2="10.0" y1="82.61038" y2="84.81038" /><line x1="10.0" x2="10.467302010770382" y1="84.81038" y2="83.70510680719654" /><line x1="10.0" x2="9.532697989229618" y1="84.81038" y2="83.70510680719654" /><line x1="10.0" x2="9.53269798922962" y1="82.61038" y2="83.71565319280346" /><line x1="10.0" x2="10.46730201077038" y1="82.61038" y2="83.71565319280346" /><line x1="22.5" x2="41.70613010006006" y1="82.71038" y2="82.71038" /><line x1="41.70613010006006" x2="40.6008569072566" y1="82.71038" y2="82.24307798922962" /><line x1="41.70613010006006" x2="40.6008569072566" y1="82.71038" y2="83.17768201077038" /><line x1="22.5" x2="23.605273192803462" y1="82.71038" y2="83.17768201077038" /><line x1="22.5" x2="23.605273192803462" y1="82.71038" y2="82.24307798922962" /><line x1="49.906130100060054" x2="70.81226020012011" y1="82.61038" y2="82.61038" /><line x1="70.81226020012011" x2="69.70698700731666" y1="82.61038" y2="82.14307798922962" /><line x1="70.81226020012011" x2="69.70698700731666" y1="82.61038" y2="83.07768201077037" /><line x1="49.906130100060054" x2="51.01140329286351" y1="82.61038" y2="83.07768201077037" /><line x1="49.906130100060054" x2="51.01140329286351" y1="82.61038" y2="82.14307798922962" /><line x1="80.31226020012011" x2="80.31226020012011" y1="97.01038" y2="151.21038" /><line x1="80.31226020012011" x2="80.77956221089049" y1="151.21038" y2="150.10510680719653" /><line x1="80.31226020012011" x2="79.84495818934973" y1="151.21038" y2="150.10510680719653" /><line x1="80.31226020012011" x2="79.84495818934973" y1="97.01038" y2="98.11565319280346" /><line x1="80.31226020012011" x2="80.77956221089049" y1="97.01038" y2="98.11565319280346" /><line x1="99.31226020012011" x2="99.31226020012011" y1="83.21038" y2="91.93038" /><line x1="99.31226020012011" x2="99.77956221089049" y1="91.93038" y2="90.82510680719653" /><line x1="99.31226020012011" x2="98.84495818934973" y1="91.93038" y2="90.82510680719653" /><line x1="99.31226020012011" x2="98.84495818934973" y1="83.21038" y2="84.31565319280347" /><line x1="99.31226020012011" x2="99.77956221089049" y1="83.21038" y2="84.31565319280347" /></g><g fill="none" id="DOBLEZ" stroke="#c000c0" stroke-width="0.08"><line x1="37.7" x2="37.7" y1="4.21038" y2="66.21038" /><line x1="69.7" x2="69.7" y1="4.21038" y2="14.21038" /><line x1="22.0" x2="22.0" y1="82.21038" y2="88.71038" /><line x1="49.406130100060054" x2="49.406130100060054" y1="82.21038" y2="86.01038" /></g><g fill="none" id="BOTONES" stroke="#ff8000" stroke-width="0.08"><circle cx="5.7" cy="15.510380000000001" fill="#ff8000" r="0.55" /><circle cx="5.7" cy="24.62704666666667" fill="#ff8000" r="0.55" /><circle cx="5.7" cy="33.74371333333333" fill="#ff8000" r="0.55" /><circle cx="5.7" cy="42.860380000000006" fill="#ff8000" r="0.55" /><circle cx="5.7" cy="51.977046666666666" fill="#ff8000" r="0.55" /><circle cx="5.7" cy="61.09371333333334" fill="#ff8000" r="0.55" /><circle cx="5.7" cy="70.21038000000001" fill="#ff8000" r="0.55" /><circle cx="138.33947331486527" cy="10.21038" fill="#ff8000" r="0.55" /><circle cx="70.31226020012011" cy="83.71038" fill="#ff8000" r="0.55" /></g><g fill="none" id="OJAL" stroke="#ff40a0" stroke-width="0.08"><line x1="4.9" x2="6.5" y1="15.510380000000001" y2="15.510380000000001" /><line x1="4.9" x2="6.5" y1="24.62704666666667" y2="24.62704666666667" /><line x1="4.9" x2="6.5" y1="33.74371333333333" y2="33.74371333333333" /><line x1="4.9" x2="6.5" y1="42.860380000000006" y2="42.860380000000006" /><line x1="4.9" x2="6.5" y1="51.977046666666666" y2="51.977046666666666" /><line x1="4.9" x2="6.5" y1="61.09371333333334" y2="61.09371333333334" /><line x1="4.9" x2="6.5" y1="70.21038000000001" y2="70.21038000000001" /><line x1="160.9394733148653" x2="160.9394733148653" y1="9.41038" y2="11.01038" /></g><g fill="none" id="REFERENCIAS" stroke="#b0b0b0" stroke-width="0.08"><text fill="#000000" font-family="sans-serif" font-size="0.5" stroke="none" text-anchor="start" x="5.7" y="13.010380000000001">CF</text><text fill="#000000" font-family="sans-serif" font-size="0.5" stroke="none" text-anchor="start" x="38.0" y="35.21038">CB</text><text fill="#000000" font-family="sans-serif" font-size="0.5" stroke="none" text-anchor="start" x="149.63947331486528" y="9.41038">DOBLEZ</text><text fill="#000000" font-family="sans-serif" font-size="0.5" stroke="none" text-anchor="start" x="99.31226020012011" y="83.71038">boca</text></g></svg>