<?xml version="1.0" encoding="utf-8" ?>
<svg baseProfile="full" height="170.221946cm" version="1.1" viewBox="0 0 158.0 170.221946" width="158.0cm" xmlns="http://www.w3.org/2000/svg" xmlns:ev="http://www.w3.org/2001/xml-events" xmlns:xlink="http://www.w3.org/1999/xlink"><defs /><rect fill="#f7f3ea" height="162.221946" stroke="#333" stroke-width="0.15" width="150.0" x="4.0" y="4.0" /><text fill="#000" font-family="sans-serif" font-size="1.4" x="4.0" y="3.0">PLANO DE CORTE — ancho 150 cm — largo 1.62 m</text><polygon fill="#cfe3f7" fill-opacity="0.5" points="4.0,78.265046 12.0,78.265046 12.0,18.223562 16.217217,5.25562 13.705976,4.0 12.997501,4.931151 12.790486000000001,5.203825999999999 12.583412,5.477774 12.376570000000001,5.753214 12.170257,6.03037 11.964770999999999,6.309464999999999 11.760412,6.590726 11.557485,6.874378999999999 11.356297999999999,7.160653 11.157162,7.449776 10.960391000000001,7.741977 10.766304,8.037483 10.575224,8.336524 10.387640000000001,8.639062 10.204675,8.943555 10.026588,9.24756 9.852513,9.549783999999999 9.68136,9.849391 9.512085,10.145555 9.343686,10.437462 9.175203,10.72431 9.005722,11.005312 8.834366,11.279701 8.660298000000001,11.546743 8.482713,11.805741999999999 8.300826,12.056059000000001 8.113851,12.297132999999999 7.920053,12.529631 7.716621,12.756544 7.502514,12.980595000000001 7.278466,13.202655 7.045450000000001,13.423435 6.804507,13.643673 6.556732,13.864151 6.326886,14.065046 4.0,14.065046 4.0,78.265046" stroke="#1f6fb2" stroke-width="0.1" /><text fill="#0a3d62" font-family="sans-serif" font-size="1.6" text-anchor="middle" x="10.1086085" y="41.132523">09</text><polygon fill="#cfe3f7" fill-opacity="0.5" points="17.217217,78.265046 25.217217,78.265046 25.217217,18.223562 29.434434000000003,5.25562 26.923193,4.0 26.214718,4.931151 26.007703000000003,5.203825999999999 25.800629,5.477774 25.593787000000003,5.753214 25.387474,6.03037 25.181988,6.309464999999999 24.977629,6.590726 24.774702,6.874378999999999 24.573515,7.160653 24.374379,7.449776 24.177608000000003,7.741977 23.983521000000003,8.037483 23.792441000000004,8.336524 23.604857000000003,8.639062 23.421892,8.943555 23.243805000000002,9.24756 23.06973,9.549783999999999 22.898577000000003,9.849391 22.729302000000004,10.145555 22.560903000000003,10.437462 22.39242,10.72431 22.222939000000004,11.005312 22.051583,11.279701 21.877515000000002,11.546743 21.699930000000002,11.805741999999999 21.518043000000002,12.056059000000001 21.331068000000002,12.297132999999999 21.13727,12.529631 20.933838,12.756544 20.719731000000003,12.980595000000001 20.495683000000003,13.202655 20.262667,13.423435 20.021724000000003,13.643673 19.773949,13.864151 19.544103,14.065046 17.217217,14.065046 17.217217,78.265046" stroke="#1f6fb2" stroke-width="0.1" /><text fill="#0a3d62" font-family="sans-serif" font-size="1.6" text-anchor="middle" x="23.3258255" y="41.132523">09</text><polygon fill="#cfe3f7" fill-opacity="0.5" points="30.434434000000003,78.21038 60.134434,78.21038 60.134434,27.82744 59.498811,27.119219 59.11807400000001,26.695752000000002 58.734662,26.270827 58.347986000000006,25.844551 57.957162000000004,25.416705 57.561308000000004,24.987081 57.159547,24.555471 56.751021,24.121694 56.335894,23.686589 55.917902,23.252195 55.503066000000004,22.819307000000002 55.0962,22.387346 54.702017,21.955826000000002 54.325223,21.52448 53.970465000000004,21.093264 53.642266000000006,20.662365 53.344923,20.23218 53.082373000000004,19.803248 52.858032,19.376109 52.674625000000006,18.95095 52.533098,18.524219000000002 52.43113700000001,18.087728 52.365506,17.635967 52.334471,17.167822 52.336489,16.68316 52.369927000000004,16.182458 52.432932,15.66662 52.523395,15.136805 52.638954,14.594294000000001 52.777031,14.040397 52.934878,13.476392 53.10961400000001,12.903495 53.298263000000006,12.322841 53.49777400000001,11.735478 53.705048000000005,11.142367 54.238208,9.637744 40.098817000000004,4.0 39.431935,4.876485 39.224920000000004,5.14916 39.017846000000006,5.423108 38.811004000000004,5.698548 38.604691,5.975704 38.399205,6.254799 38.194846000000005,6.53606 37.991919,6.819713 37.790732000000006,7.105987 37.591596,7.39511 37.394825000000004,7.687311 37.200738,7.982817 37.009658,8.281858 36.822074,8.584396 36.639109000000005,8.888888999999999 36.461022,9.192893999999999 36.286947000000005,9.495118 36.115794,9.794725 35.946519,10.090889 35.77812,10.382795999999999 35.609637000000006,10.669644 35.440156,10.950645999999999 35.268800000000006,11.225035 35.094732,11.492077 34.917147,11.751076 34.735260000000004,12.001393 34.54828500000001,12.242467 34.354487000000006,12.474965000000001 34.151055,12.701878 33.936948,12.925929 33.712900000000005,13.147989 33.479884000000006,13.368769 33.238941000000004,13.589007 32.99116600000001,13.809485 32.761320000000005,14.010380000000001 30.434434000000003,14.010380000000001 30.434434000000003,78.21038" stroke="#1f6fb2" stroke-width="0.1" /><text fill="#0a3d62" font-family="sans-serif" font-size="1.6" text-anchor="middle" x="45.284434000000005" y="41.10519">01</text><polygon fill="#cfe3f7" fill-opacity="0.5" points="61.134434,78.21038 90.834434,78.21038 90.834434,27.82744 90.198811,27.119219 89.818074,26.695752000000002 89.434662,26.270827 89.047986,25.844551 88.657162,25.416705 88.261308,24.987081 87.85954699999999,24.555471 87.451021,24.121694 87.035894,23.686589 86.617902,23.252195 86.203066,22.819307000000002 85.7962,22.387346 85.402017,21.955826000000002 85.025223,21.52448 84.670465,21.093264 84.342266,20.662365 84.044923,20.23218 83.782373,19.803248 83.558032,19.376109 83.374625,18.95095 83.233098,18.524219000000002 83.131137,18.087728 83.065506,17.635967 83.034471,17.167822 83.036489,16.68316 83.069927,16.182458 83.132932,15.66662 83.223395,15.136805 83.338954,14.594294000000001 83.477031,14.040397 83.634878,13.476392 83.809614,12.903495 83.998263,12.322841 84.197774,11.735478 84.405048,11.142367 84.938208,9.637744 70.798817,4.0 70.131935,4.876485 69.92492,5.14916 69.717846,5.423108 69.511004,5.698548 69.30469099999999,5.975704 69.099205,6.254799 68.894846,6.53606 68.691919,6.819713 68.490732,7.105987 68.291596,7.39511 68.094825,7.687311 67.900738,7.982817 67.709658,8.281858 67.522074,8.584396 67.339109,8.888888999999999 67.161022,9.192893999999999 66.986947,9.495118 66.815794,9.794725 66.646519,10.090889 66.47812,10.382795999999999 66.309637,10.669644 66.140156,10.950645999999999 65.9688,11.225035 65.794732,11.492077 65.617147,11.751076 65.43526,12.001393 65.248285,12.242467 65.054487,12.474965000000001 64.851055,12.701878 64.636948,12.925929 64.4129,13.147989 64.179884,13.368769 63.938941,13.589007 63.691165999999996,13.809485 63.46132,14.010380000000001 61.134434,14.010380000000001 61.134434,78.21038" stroke="#1f6fb2" stroke-width="0.1" /><text fill="#0a3d62" font-family="sans-serif" font-size="1.6" text-anchor="middle" x="75.984434" y="41.10519">01</text><polygon fill="#cfe3f7" fill-opacity="0.5" points="96.549681,69.004375 124.382361,69.004375 129.106423,15.002206 128.36299400000001,14.193586999999999 127.91163,13.708247 127.451249,13.224451 126.979701,12.74572 126.497223,12.276521 126.006088,11.818501 125.507304,11.37107 125.001524,10.933297 124.489388,10.50425 123.971522,10.082996 123.448544,9.6686 122.92106,9.260134 122.389661,8.856665 121.854201,8.456731 121.312606,8.059001 120.762449,7.665084 120.202625,7.278046 119.632157,6.901124 119.05001899999999,6.537614 118.45515,6.19088 117.84648,5.864384 117.22295600000001,5.561695 116.5836,5.286514 115.929199,5.043261 115.264872,4.834903 114.596141,4.658551 113.925167,4.509487 113.253507,4.382962 112.582599,4.274354 111.91382,4.1791789999999995 111.248528,4.093085 110.49172,4.0 109.720821,4.054996 109.041957,4.107568 108.359466,4.1688 107.67452,4.242983 106.988292,4.334538 106.302001,4.448017 105.616961,4.588102 104.934708,4.75957 104.25917100000001,4.966502 103.59614400000001,5.208534 102.948074,5.481407 102.314412,5.781528 101.694337,6.10548 101.086975,6.449956 100.491438,6.811743 99.906847,7.187708000000001 99.332349,7.574781 98.767133,7.969943000000001 98.20972,8.370719 97.65714200000001,8.77732 97.108716,9.193035 96.56635,9.62025 96.032409,10.061096 95.509314,10.517743 94.999562,10.992387 94.505742,11.487231 94.03056000000001,12.00445 93.577292,12.545622 93.151837,13.107094 92.754423,13.678084 92.378732,14.249932 91.834434,15.102967999999999 96.549681,69.004375" stroke="#1f6fb2" stroke-width="0.1" /><text fill="#0a3d62" font-family="sans-serif" font-size="1.6" text-anchor="middle" x="110.4704285" y="36.5021875">04</text><polygon fill="#cfe3f7" fill-opacity="0.5" points="8.715247,144.269421 36.547927,144.269421 41.271989000000005,90.267252 40.52856,89.45863299999999 40.077196,88.973293 39.616815,88.489497 39.145267000000004,88.010766 38.662789000000004,87.541567 38.171654000000004,87.083547 37.67287,86.636116 37.16709,86.198343 36.654954000000004,85.769296 36.137088,85.34804199999999 35.61411,84.933646 35.086625999999995,84.52518 34.555227,84.121711 34.019767,83.721777 33.478172,83.324047 32.928015,82.93012999999999 32.368190999999996,82.543092 31.797722999999998,82.16617 31.215584999999997,81.80266 30.620716,81.455926 30.012045999999998,81.12943 29.388522000000002,80.826741 28.749166,80.55156 28.094765,80.308307 27.430438,80.099949 26.761707,79.923597 26.090733,79.77453299999999 25.419073,79.648008 24.748165,79.5394 24.079386,79.444225 23.414094,79.358131 22.657286,79.265046 21.886387,79.320042 21.207523,79.372614 20.525032,79.433846 19.840086,79.508029 19.153858,79.599584 18.467567,79.71306299999999 17.782527,79.853148 17.100274,80.024616 16.424737,80.231548 15.76171,80.47358 15.11364,80.746453 14.479978,81.04657399999999 13.859903,81.370526 13.252540999999999,81.715002 12.657003999999999,82.07678899999999 12.072413,82.452754 11.497914999999999,82.839827 10.932699,83.234989 10.375286,83.63576499999999 9.822708,84.042366 9.274282,84.45808099999999 8.731916,84.885296 8.197975,85.326142 7.67488,85.782789 7.165127999999999,86.25743299999999 6.671308,86.75227699999999 6.196126,87.269496 5.742857999999998,87.81066799999999 5.317402999999999,88.37214 4.919989000000001,88.94313 4.544298000000001,89.514978 4.0,90.368014 8.715247,144.269421" stroke="#1f6fb2" stroke-width="0.1" /><text fill="#0a3d62" font-family="sans-serif" font-size="1.6" text-anchor="middle" x="22.635994500000002" y="111.7672335">04</text><polygon fill="#cfe3f7" fill-opacity="0.5" points="96.271989,92.952763 95.778372,92.23949999999999 95.462593,91.782899 95.146888,91.325786 94.831203,90.86777599999999 94.515483,90.408479 94.19967,89.947506 93.88370900000001,89.48446899999999 93.567558,89.019002 93.251644,88.551373 92.937928,88.082601 92.629124,87.61322899999999 92.327528,87.143171 92.03539900000001,86.672358 91.75496700000001,86.20077 91.48843000000001,85.728429 91.23793400000001,85.255391 91.005566,84.78173699999999 90.793333,84.307557 90.603149,83.83292 90.436822,83.35784699999999 90.29601400000001,82.882138 90.18168700000001,82.40339 90.09275400000001,81.917625 90.02732300000001,81.423021 89.983885,80.919611 89.96092900000001,80.407623 89.95208500000001,79.265046 69.271989,79.265046 69.271989,143.26504599999998 96.271989,143.26504599999998 96.271989,92.952763 42.271989000000005,92.952763 42.765606000000005,92.23949999999999 43.081385000000004,91.782899 43.397090000000006,91.325786 43.71277500000001,90.86777599999999 44.02849500000001,90.408479 44.344308000000005,89.947506 44.66026900000001,89.48446899999999 44.976420000000005,89.019002 45.292334000000004,88.551373 45.60605,88.082601 45.914854000000005,87.61322899999999 46.21645000000001,87.143171 46.508579000000005,86.672358 46.789011,86.20077 47.055548,85.728429 47.306044,85.255391 47.53841200000001,84.78173699999999 47.750645000000006,84.307557 47.94082900000001,83.83292 48.107156,83.35784699999999 48.247964,82.882138 48.362291000000006,82.40339 48.451224,81.917625 48.516655,81.423021 48.56009300000001,80.919611 48.583049,80.407623 48.591893000000006,79.265046 69.271989,79.265046 69.271989,143.26504599999998 42.271989000000005,143.26504599999998 42.271989000000005,92.952763" stroke="#1f6fb2" stroke-width="0.1" /><text fill="#0a3d62" font-family="sans-serif" font-size="1.6" text-anchor="middle" x="69.271989" y="111.265046">02</text><polygon fill="#cfe3f7" fill-opacity="0.5" points="97.271989,90.536951 104.271989,94.946951 111.271989,90.536951 111.271989,79.265046 97.271989,79.265046 97.271989,90.536951" stroke="#1f6fb2" stroke-width="0.1" /><text fill="#0a3d62" font-family="sans-serif" font-size="1.6" text-anchor="middle" x="104.271989" y="87.1059985">10</text><polygon fill="#cfe3f7" fill-opacity="0.5" points="112.271989,91.514173 112.30183000000001,91.81715299999999 112.40453600000001,92.155728 112.57132100000001,92.467761 112.795775,92.74126 113.06927400000001,92.96571399999999 113.381307,93.132499 113.719882,93.235205 114.022862,93.265046 137.521116,93.265046 137.824096,93.235205 138.16267100000002,93.132499 138.474704,92.96571399999999 138.748203,92.74126 138.972657,92.467761 139.139442,92.155728 139.24214800000001,91.81715299999999 139.27198900000002,91.514173 139.27198900000002,81.015919 139.24214800000001,80.71293899999999 139.139442,80.374364 138.972657,80.062331 138.748203,79.788832 138.474704,79.564378 138.16267100000002,79.397593 137.824096,79.294887 137.521116,79.265046 114.022862,79.265046 113.719882,79.294887 113.381307,79.397593 113.06927400000001,79.564378 112.795775,79.788832 112.57132100000001,80.062331 112.40453600000001,80.374364 112.30183000000001,80.71293899999999 112.271989,81.015919 112.271989,91.514173" stroke="#1f6fb2" stroke-width="0.1" /><text fill="#0a3d62" font-family="sans-serif" font-size="1.6" text-anchor="middle" x="125.771989" y="86.265046">05</text><polygon fill="#cfe3f7" fill-opacity="0.5" points="4.0,157.51854799999998 4.029841,157.821528 4.132547,158.160103 4.299332,158.472136 4.523786,158.745635 4.7972850000000005,158.970089 5.109318,159.136874 5.4478930000000005,159.23958 5.750873,159.269421 29.249127,159.269421 29.552107,159.23958 29.890682,159.136874 30.202715,158.970089 30.476214,158.745635 30.700668,158.472136 30.867453,158.160103 30.970159,157.821528 31.0,157.51854799999998 31.0,147.020294 30.970159,146.717314 30.867453,146.378739 30.700668,146.06670599999998 30.476214,145.793207 30.202715,145.568753 29.890682,145.40196799999998 29.552107,145.299262 29.249127,145.269421 5.750873,145.269421 5.4478930000000005,145.299262 5.109318,145.40196799999998 4.7972850000000005,145.568753 4.523786,145.793207 4.299332,146.06670599999998 4.132547,146.378739 4.029841,146.717314 4.0,147.020294 4.0,157.51854799999998" stroke="#1f6fb2" stroke-width="0.1" /><text fill="#0a3d62" font-family="sans-serif" font-size="1.6" text-anchor="middle" x="17.5" y="152.269421">05</text><polygon fill="#cfe3f7" fill-opacity="0.5" points="74.026234,155.99786 74.039531,155.469839 74.068485,154.934504 74.111367,154.392378 74.166392,153.843994 74.231721,153.289889 74.305469,152.730584 74.385711,152.166586 74.470484,151.59837299999998 74.682642,150.208489 60.712848,145.269421 60.080703,145.675591 59.863683,145.813725 59.649178,145.947697 59.436692,146.07665 59.225746,146.199779 59.015857,146.316349 58.805787,146.42608099999998 58.593509,146.529495 58.378094000000004,146.627058 58.159746,146.71868899999998 57.938763,146.804269 57.715441999999996,146.88368499999999 57.490082,146.956827 57.262984,147.02359099999998 57.034448,147.083877 56.804778999999996,147.13759 56.574162,147.184663 56.341979,147.225221 56.107213,147.259752 55.869539,147.288738 55.628967,147.312612 55.385531,147.331818 55.139282,147.346813 54.890283,147.358071 54.638605,147.36607899999998 54.384328,147.371339 54.127528999999996,147.37437 53.868291,147.37570599999998 53.606691,147.37589599999998 53.341321,147.37550199999998 53.341321,157.37550299999998 74.036897,157.37550299999998 74.026234,155.99786 32.656408,155.99786 32.643111000000005,155.469839 32.614157000000006,154.934504 32.571275,154.392378 32.51625,153.843994 32.450921,153.289889 32.377173,152.730584 32.296931,152.166586 32.212158,151.59837299999998 32.0,150.208489 45.969794,145.269421 46.601939,145.675591 46.818959,145.813725 47.033464,145.947697 47.24595,146.07665 47.456896,146.199779 47.666785000000004,146.316349 47.876855,146.42608099999998 48.089133000000004,146.529495 48.304548,146.627058 48.522896,146.71868899999998 48.743879,146.804269 48.967200000000005,146.88368499999999 49.19256,146.956827 49.419658,147.02359099999998 49.648194000000004,147.083877 49.877863000000005,147.13759 50.10848,147.184663 50.340663,147.225221 50.575429,147.259752 50.813103,147.288738 51.053675,147.312612 51.297111,147.331818 51.54336,147.346813 51.792359000000005,147.358071 52.044037,147.36607899999998 52.298314000000005,147.371339 52.555113000000006,147.37437 52.814351,147.37570599999998 53.075951,147.37589599999998 53.341321,147.37550199999998 53.341321,157.37550299999998 32.645745000000005,157.37550299999998 32.656408,155.99786" stroke="#1f6fb2" stroke-width="0.1" /><text fill="#0a3d62" font-family="sans-serif" font-size="1.6" text-anchor="middle" x="53.341321" y="151.322462">03</text><polygon fill="#cfe3f7" fill-opacity="0.5" points="99.335458,152.116864 99.85008,152.206004 100.364747,152.290058 100.879459,152.369024 101.39421200000001,152.442902 101.90900400000001,152.51169 102.423832,152.575387 102.938693,152.633992 103.453586,152.687504 103.968507,152.73592299999999 104.483454,152.779247 104.998424,152.817476 105.513414,152.850608 106.02842100000001,152.878645 106.543443,152.90158399999999 107.058476,152.91942699999998 107.573518,152.93217099999998 108.088565,152.939818 108.603616,152.942367 109.118667,152.939818 109.633714,152.93217099999998 110.148756,152.91942699999998 110.66379,152.90158399999999 111.178811,152.878645 111.693818,152.850608 112.208808,152.817476 112.72377800000001,152.779247 113.238725,152.73592299999999 113.753646,152.687504 114.268539,152.633992 114.7834,152.575387 115.298228,152.51169 115.81302,152.442902 116.32777300000001,152.369024 116.842485,152.290058 117.357153,152.206004 117.871774,152.116864 118.20823,152.055255 120.263242,155.480274 121.31846,155.081291 119.507038,145.269421 118.016708,145.557071 117.52097499999999,145.647846 117.02529,145.73370599999998 116.529651,145.814652 116.034057,145.890686 115.538503,145.961808 115.04298800000001,146.02802 114.54751,146.089323 114.052065,146.145718 113.556651,146.197206 113.061266,146.243787 112.565906,146.285463 112.070569,146.32223399999998 111.575253,146.35410199999998 111.079953,146.381065 110.584669,146.403126 110.089395,146.42028299999998 109.594131,146.432539 109.098872,146.439892 108.603616,146.442343 108.10836,146.439892 107.613101,146.432539 107.11783700000001,146.42028299999998 106.62256400000001,146.403126 106.127279,146.381065 105.631979,146.35410199999998 105.136663,146.32223399999998 104.64132599999999,146.285463 104.145966,146.243787 103.650581,146.197206 103.155167,146.145718 102.659722,146.089323 102.164244,146.02802 101.668729,145.961808 101.173176,145.890686 100.677581,145.814652 100.181942,145.73370599999998 99.686257,145.647846 99.190524,145.557071 98.500551,145.423899 98.500551,151.960811 98.820885,152.022639 99.335458,152.116864 97.665644,152.116864 97.151022,152.206004 96.63635500000001,152.290058 96.121643,152.369024 95.60688999999999,152.442902 95.092098,152.51169 94.57727,152.575387 94.062409,152.633992 93.547516,152.687504 93.032595,152.73592299999999 92.51764800000001,152.779247 92.002678,152.817476 91.487688,152.850608 90.972681,152.878645 90.457659,152.90158399999999 89.942626,152.91942699999998 89.427584,152.93217099999998 88.912537,152.939818 88.397486,152.942367 87.882435,152.939818 87.367388,152.93217099999998 86.852346,152.91942699999998 86.337312,152.90158399999999 85.822291,152.878645 85.307284,152.850608 84.792294,152.817476 84.27732400000001,152.779247 83.762377,152.73592299999999 83.247456,152.687504 82.732563,152.633992 82.217702,152.575387 81.70287400000001,152.51169 81.18808200000001,152.442902 80.673329,152.369024 80.158617,152.290058 79.643949,152.206004 79.129328,152.116864 78.792872,152.055255 76.73786,155.480274 75.682642,155.081291 77.49406400000001,145.269421 78.98439400000001,145.557071 79.48012700000001,145.647846 79.975812,145.73370599999998 80.471451,145.814652 80.967045,145.890686 81.462599,145.961808 81.958114,146.02802 82.453592,146.089323 82.949037,146.145718 83.444451,146.197206 83.939836,146.243787 84.435196,146.285463 84.930533,146.32223399999998 85.425849,146.35410199999998 85.921149,146.381065 86.416433,146.403126 86.911707,146.42028299999998 87.406971,146.432539 87.90223,146.439892 88.397486,146.442343 88.892742,146.439892 89.388001,146.432539 89.883265,146.42028299999998 90.378538,146.403126 90.873823,146.381065 91.369123,146.35410199999998 91.864439,146.32223399999998 92.35977600000001,146.285463 92.855136,146.243787 93.350521,146.197206 93.845935,146.145718 94.34138,146.089323 94.836858,146.02802 95.332373,145.961808 95.827926,145.890686 96.323521,145.814652 96.81916,145.73370599999998 97.314845,145.647846 97.810578,145.557071 98.500551,145.423899 98.500551,151.960811 98.180217,152.022639 97.665644,152.116864" stroke="#1f6fb2" stroke-width="0.1" /><text fill="#0a3d62" font-family="sans-serif" font-size="1.6" text-anchor="middle" x="98.500551" y="150.3748475">07</text><polygon fill="#cfe3f7" fill-opacity="0.5" points="27.871089,165.565414 28.425871,165.636325 28.980671,165.703186 29.535490000000003,165.765998 30.090326,165.824758 30.645178,165.879468 31.200045000000003,165.930127 31.754925,165.976734 32.309818,166.019289 32.864723,166.057792 33.419638,166.092243 33.974562,166.122641 34.529494,166.148987 35.084434,166.171279 35.639379000000005,166.189519 36.194329,166.20370599999998 36.749282,166.213839 37.304238,166.219919 37.859195,166.221946 38.414152,166.219919 38.969108,166.213839 39.524061,166.20370599999998 40.079011,166.189519 40.633956,166.171279 41.188896,166.148987 41.743828,166.122641 42.298752,166.092243 42.853667,166.057792 43.408572,166.019289 43.963465,165.976734 44.518345,165.930127 45.073212,165.879468 45.628064,165.824758 46.182900000000004,165.765998 46.737719,165.703186 47.292519,165.636325 47.847301,165.565414 48.402063,165.490453 49.81226,165.289605 49.81226,160.269421 48.127151,160.509425 47.586606,160.582464 47.046081,160.651553 46.505575,160.716692 45.965088,160.77787999999998 45.424617,160.83512 44.884163,160.88841 44.343723,160.937751 43.803297,160.98314399999998 43.262883,161.024589 42.722481,161.062086 42.18209,161.095635 41.641708,161.125237 41.101334,161.150891 40.560966,161.172599 40.020605,161.190359 39.480249,161.204172 38.939895,161.21403899999999 38.399545,161.219959 37.859195,161.22193199999998 37.318845,161.219959 36.778495,161.21403899999999 36.238142,161.204172 35.697785,161.190359 35.157424,161.172599 34.617057,161.150891 34.076682000000005,161.125237 33.5363,161.095635 32.995909,161.062086 32.455507,161.024589 31.915093,160.98314399999998 31.374667000000002,160.937751 30.834228,160.88841 30.293773,160.83512 29.753302,160.77787999999998 29.212815,160.716692 28.672309000000002,160.651553 28.131784,160.582464 27.591239,160.509425 26.90613,160.411847 26.90613,165.432031 27.316327,165.490453 27.871089,165.565414 25.941171,165.565414 25.386389,165.636325 24.831589,165.703186 24.27677,165.765998 23.721934,165.824758 23.167082,165.879468 22.612215,165.930127 22.057335000000002,165.976734 21.502442000000002,166.019289 20.947537,166.057792 20.392622000000003,166.092243 19.837698000000003,166.122641 19.282766000000002,166.148987 18.727826,166.171279 18.172881,166.189519 17.617931,166.20370599999998 17.062978,166.213839 16.508022,166.219919 15.953065,166.221946 15.398108,166.219919 14.843152000000002,166.213839 14.288199,166.20370599999998 13.733249,166.189519 13.178304,166.171279 12.623364,166.148987 12.068432000000001,166.122641 11.513508000000002,166.092243 10.958593,166.057792 10.403688000000002,166.019289 9.848795000000003,165.976734 9.293915000000002,165.930127 8.739048,165.879468 8.184196,165.824758 7.629360000000002,165.765998 7.074541,165.703186 6.519741,165.636325 5.964959,165.565414 5.410197,165.490453 4.0,165.289605 4.0,160.269421 5.685109000000001,160.509425 6.225654000000002,160.582464 6.766179000000001,160.651553 7.306685000000002,160.716692 7.8471720000000005,160.77787999999998 8.387643,160.83512 8.928097000000001,160.88841 9.468537000000001,160.937751 10.008963000000001,160.98314399999998 10.549377,161.024589 11.089779000000002,161.062086 11.630170000000001,161.095635 12.170552,161.125237 12.710926,161.150891 13.251294000000001,161.172599 13.791655,161.190359 14.332011000000001,161.204172 14.872365,161.21403899999999 15.412715,161.219959 15.953065,161.22193199999998 16.493415,161.219959 17.033765000000002,161.21403899999999 17.574118,161.204172 18.114475,161.190359 18.654836000000003,161.172599 19.195203,161.150891 19.735578,161.125237 20.27596,161.095635 20.816351,161.062086 21.356753,161.024589 21.897167000000003,160.98314399999998 22.437593,160.937751 22.978032000000002,160.88841 23.518487,160.83512 24.058958,160.77787999999998 24.599445000000003,160.716692 25.139951,160.651553 25.680476000000002,160.582464 26.221021,160.509425 26.90613,160.411847 26.90613,165.432031 26.495933,165.490453 25.941171,165.565414" stroke="#1f6fb2" stroke-width="0.1" /><text fill="#0a3d62" font-family="sans-serif" font-size="1.6" text-anchor="middle" x="26.90613" y="163.24568349999998">08</text><polygon fill="#cfe3f7" fill-opacity="0.5" points="50.81226,163.918548 50.834415,164.14349099999998 50.914358,164.407029 51.044179,164.64990699999998 51.218889000000004,164.86279199999998 51.431774000000004,165.037502 51.674652,165.16732299999998 51.93819,165.247266 52.163133,165.269421 63.461387,165.269421 63.68633,165.247266 63.949868,165.16732299999998 64.192746,165.037502 64.405631,164.86279199999998 64.580341,164.64990699999998 64.710162,164.407029 64.790105,164.14349099999998 64.81226000000001,163.918548 64.81226000000001,161.620294 64.790105,161.395351 64.710162,161.131813 64.580341,160.888935 64.405631,160.67605 64.192746,160.50134 63.949868,160.371519 63.68633,160.291576 63.461387,160.269421 52.163133,160.269421 51.93819,160.291576 51.674652,160.371519 51.431774000000004,160.50134 51.218889000000004,160.67605 51.044179,160.888935 50.914358,161.131813 50.834415,161.395351 50.81226,161.620294 50.81226,163.918548" stroke="#1f6fb2" stroke-width="0.1" /><text fill="#0a3d62" font-family="sans-serif" font-size="1.6" text-anchor="middle" x="57.81226" y="162.769421">06</text><polygon fill="#cfe3f7" fill-opacity="0.5" points="65.81226000000001,163.918548 65.834415,164.14349099999998 65.91435800000001,164.407029 66.04417900000001,164.64990699999998 66.218889,164.86279199999998 66.431774,165.037502 66.67465200000001,165.16732299999998 66.93819,165.247266 67.16313300000002,165.269421 78.461387,165.269421 78.68633000000001,165.247266 78.94986800000001,165.16732299999998 79.19274600000001,165.037502 79.40563100000001,164.86279199999998 79.580341,164.64990699999998 79.71016200000001,164.407029 79.79010500000001,164.14349099999998 79.81226000000001,163.918548 79.81226000000001,161.620294 79.79010500000001,161.395351 79.71016200000001,161.131813 79.580341,160.888935 79.40563100000001,160.67605 79.19274600000001,160.50134 78.94986800000001,160.371519 78.68633000000001,160.291576 78.461387,160.269421 67.16313300000002,160.269421 66.93819,160.291576 66.67465200000001,160.371519 66.431774,160.50134 66.218889,160.67605 66.04417900000001,160.888935 65.91435800000001,161.131813 65.834415,161.395351 65.81226000000001,161.620294 65.81226000000001,163.918548" stroke="#1f6fb2" stroke-width="0.1" /><text fill="#0a3d62" font-family="sans-serif" font-size="1.6" text-anchor="middle" x="72.81226000000001" y="162.769421">06</text></svg>