<?xml version="1.0" encoding="utf-8" ?>
<svg baseProfile="full" height="245.480274cm" version="1.1" viewBox="0 0 118.0 245.480274" width="118.0cm" xmlns="http://www.w3.org/2000/svg" xmlns:ev="http://www.w3.org/2001/xml-events" xmlns:xlink="http://www.w3.org/1999/xlink"><defs /><rect fill="#f7f3ea" height="237.480274" stroke="#333" stroke-width="0.15" width="110.0" x="4.0" y="4.0" /><text fill="#000" font-family="sans-serif" font-size="1.4" x="4.0" y="3.0">PLANO DE CORTE — ancho 110 cm — largo 2.37 m</text><polygon fill="#cfe3f7" fill-opacity="0.5" points="4.0,78.265046 12.0,78.265046 12.0,18.223562 16.217217,5.25562 13.705976,4.0 12.997501,4.931151 12.790486000000001,5.203825999999999 12.583412,5.477774 12.376570000000001,5.753214 12.170257,6.03037 11.964770999999999,6.309464999999999 11.760412,6.590726 11.557485,6.874378999999999 11.356297999999999,7.160653 11.157162,7.449776 10.960391000000001,7.741977 10.766304,8.037483 10.575224,8.336524 10.387640000000001,8.639062 10.204675,8.943555 10.026588,9.24756 9.852513,9.549783999999999 9.68136,9.849391 9.512085,10.145555 9.343686,10.437462 9.175203,10.72431 9.005722,11.005312 8.834366,11.279701 8.660298000000001,11.546743 8.482713,11.805741999999999 8.300826,12.056059000000001 8.113851,12.297132999999999 7.920053,12.529631 7.716621,12.756544 7.502514,12.980595000000001 7.278466,13.202655 7.045450000000001,13.423435 6.804507,13.643673 6.556732,13.864151 6.326886,14.065046 4.0,14.065046 4.0,78.265046" stroke="#1f6fb2" stroke-width="0.1" /><text fill="#0a3d62" font-family="sans-serif" font-size="1.6" text-anchor="middle" x="10.1086085" y="41.132523">09</text><polygon fill="#cfe3f7" fill-opacity="0.5" points="17.217217,78.265046 25.217217,78.265046 25.217217,18.223562 29.434434000000003,5.25562 26.923193,4.0 26.214718,4.931151 26.007703000000003,5.203825999999999 25.800629,5.477774 25.593787000000003,5.753214 25.387474,6.03037 25.181988,6.309464999999999 24.977629,6.590726 24.774702,6.874378999999999 24.573515,7.160653 24.374379,7.449776 24.177608000000003,7.741977 23.983521000000003,8.037483 23.792441000000004,8.336524 23.604857000000003,8.639062 23.421892,8.943555 23.243805000000002,9.24756 23.06973,9.549783999999999 22.898577000000003,9.849391 22.729302000000004,10.145555 22.560903000000003,10.437462 22.39242,10.72431 22.222939000000004,11.005312 22.051583,11.279701 21.877515000000002,11.546743 21.699930000000002,11.805741999999999 21.518043000000002,12.056059000000001 21.331068000000002,12.297132999999999 21.13727,12.529631 20.933838,12.756544 20.719731000000003,12.980595000000001 20.495683000000003,13.202655 20.262667,13.423435 20.021724000000003,13.643673 19.773949,13.864151 19.544103,14.065046 17.217217,14.065046 17.217217,78.265046" stroke="#1f6fb2" stroke-width="0.1" /><text fill="#0a3d62" font-family="sans-serif" font-size="1.6" text-anchor="middle" x="23.3258255" y="41.132523">09</text><polygon fill="#cfe3f7" fill-opacity="0.5" points="30.434434000000003,78.21038 60.134434,78.21038 60.134434,27.82744 59.498811,27.119219 59.11807400000001,26.695752000000002 58.734662,26.270827 58.347986000000006,25.844551 57.957162000000004,25.416705 57.561308000000004,24.987081 57.159547,24.555471 56.751021,24.121694 56.335894,23.686589 55.917902,23.252195 55.503066000000004,22.819307000000002 55.0962,22.387346 54.702017,21.955826000000002 54.325223,21.52448 53.970465000000004,21.093264 53.642266000000006,20.662365 53.344923,20.23218 53.082373000000004,19.803248 52.858032,19.376109 52.674625000000006,18.95095 52.533098,18.524219000000002 52.43113700000001,18.087728 52.365506,17.635967 52.334471,17.167822 52.336489,16.68316 52.369927000000004,16.182458 52.432932,15.66662 52.523395,15.136805 52.638954,14.594294000000001 52.777031,14.040397 52.934878,13.476392 53.10961400000001,12.903495 53.298263000000006,12.322841 53.49777400000001,11.735478 53.705048000000005,11.142367 54.238208,9.637744 40.098817000000004,4.0 39.431935,4.876485 39.224920000000004,5.14916 39.017846000000006,5.423108 38.811004000000004,5.698548 38.604691,5.975704 38.399205,6.254799 38.194846000000005,6.53606 37.991919,6.819713 37.790732000000006,7.105987 37.591596,7.39511 37.394825000000004,7.687311 37.200738,7.982817 37.009658,8.281858 36.822074,8.584396 36.639109000000005,8.888888999999999 36.461022,9.192893999999999 36.286947000000005,9.495118 36.115794,9.794725 35.946519,10.090889 35.77812,10.382795999999999 35.609637000000006,10.669644 35.440156,10.950645999999999 35.268800000000006,11.225035 35.094732,11.492077 34.917147,11.751076 34.735260000000004,12.001393 34.54828500000001,12.242467 34.354487000000006,12.474965000000001 34.151055,12.701878 33.936948,12.925929 33.712900000000005,13.147989 33.479884000000006,13.368769 33.238941000000004,13.589007 32.99116600000001,13.809485 32.761320000000005,14.010380000000001 30.434434000000003,14.010380000000001 30.434434000000003,78.21038" stroke="#1f6fb2" stroke-width="0.1" /><text fill="#0a3d62" font-family="sans-serif" font-size="1.6" text-anchor="middle" x="45.284434000000005" y="41.10519">01</text><polygon fill="#cfe3f7" fill-opacity="0.5" points="61.134434,78.21038 90.834434,78.21038 90.834434,27.82744 90.198811,27.119219 89.818074,26.695752000000002 89.434662,26.270827 89.047986,25.844551 88.657162,25.416705 88.261308,24.987081 87.85954699999999,24.555471 87.451021,24.121694 87.035894,23.686589 86.617902,23.252195 86.203066,22.819307000000002 85.7962,22.387346 85.402017,21.955826000000002 85.025223,21.52448 84.670465,21.093264 84.342266,20.662365 84.044923,20.23218 83.782373,19.803248 83.558032,19.376109 83.374625,18.95095 83.233098,18.524219000000002 83.131137,18.087728 83.065506,17.635967 83.034471,17.167822 83.036489,16.68316 83.069927,16.182458 83.132932,15.66662 83.223395,15.136805 83.338954,14.594294000000001 83.477031,14.040397 83.634878,13.476392 83.809614,12.903495 83.998263,12.322841 84.197774,11.735478 84.405048,11.142367 84.938208,9.637744 70.798817,4.0 70.131935,4.876485 69.92492,5.14916 69.717846,5.423108 69.511004,5.698548 69.30469099999999,5.975704 69.099205,6.254799 68.894846,6.53606 68.691919,6.819713 68.490732,7.105987 68.291596,7.39511 68.094825,7.687311 67.900738,7.982817 67.709658,8.281858 67.522074,8.584396 67.339109,8.888888999999999 67.161022,9.192893999999999 66.986947,9.495118 66.815794,9.794725 66.646519,10.090889 66.47812,10.382795999999999 66.309637,10.669644 66.140156,10.950645999999999 65.9688,11.225035 65.794732,11.492077 65.617147,11.751076 65.43526,12.001393 65.248285,12.242467 65.054487,12.474965000000001 64.851055,12.701878 64.636948,12.925929 64.4129,13.147989 64.179884,13.368769 63.938941,13.589007 63.691165999999996,13.809485 63.46132,14.010380000000001 61.134434,14.010380000000001 61.134434,78.21038" stroke="#1f6fb2" stroke-width="0.1" /><text fill="#0a3d62" font-family="sans-serif" font-size="1.6" text-anchor="middle" x="75.984434" y="41.10519">01</text><polygon fill="#cfe3f7" fill-opacity="0.5" points="8.715247,144.269421 36.547927,144.269421 41.271989000000005,90.267252 40.52856,89.45863299999999 40.077196,88.973293 39.616815,88.489497 39.145267000000004,88.010766 38.662789000000004,87.541567 38.171654000000004,87.083547 37.67287,86.636116 37.16709,86.198343 36.654954000000004,85.769296 36.137088,85.34804199999999 35.61411,84.933646 35.086625999999995,84.52518 34.555227,84.121711 34.019767,83.721777 33.478172,83.324047 32.928015,82.93012999999999 32.368190999999996,82.543092 31.797722999999998,82.16617 31.215584999999997,81.80266 30.620716,81.455926 30.012045999999998,81.12943 29.388522000000002,80.826741 28.749166,80.55156 28.094765,80.308307 27.430438,80.099949 26.761707,79.923597 26.090733,79.77453299999999 25.419073,79.648008 24.748165,79.5394 24.079386,79.444225 23.414094,79.358131 22.657286,79.265046 21.886387,79.320042 21.207523,79.372614 20.525032,79.433846 19.840086,79.508029 19.153858,79.599584 18.467567,79.71306299999999 17.782527,79.853148 17.100274,80.024616 16.424737,80.231548 15.76171,80.47358 15.11364,80.746453 14.479978,81.04657399999999 13.859903,81.370526 13.252540999999999,81.715002 12.657003999999999,82.07678899999999 12.072413,82.452754 11.497914999999999,82.839827 10.932699,83.234989 10.375286,83.63576499999999 9.822708,84.042366 9.274282,84.45808099999999 8.731916,84.885296 8.197975,85.326142 7.67488,85.782789 7.165127999999999,86.25743299999999 6.671308,86.75227699999999 6.196126,87.269496 5.742857999999998,87.81066799999999 5.317402999999999,88.37214 4.919989000000001,88.94313 4.544298000000001,89.514978 4.0,90.368014 8.715247,144.269421" stroke="#1f6fb2" stroke-width="0.1" /><text fill="#0a3d62" font-family="sans-serif" font-size="1.6" text-anchor="middle" x="22.635994500000002" y="111.7672335">04</text><polygon fill="#cfe3f7" fill-opacity="0.5" points="46.987236,144.269421 74.819916,144.269421 79.54397800000001,90.267252 78.800549,89.45863299999999 78.349185,88.973293 77.88880400000001,88.489497 77.41725600000001,88.010766 76.93477800000001,87.541567 76.44364300000001,87.083547 75.94485900000001,86.636116 75.439079,86.198343 74.92694300000001,85.769296 74.409077,85.34804199999999 73.886099,84.933646 73.358615,84.52518 72.827216,84.121711 72.291756,83.721777 71.750161,83.324047 71.200004,82.93012999999999 70.64018,82.543092 70.06971200000001,82.16617 69.487574,81.80266 68.892705,81.455926 68.284035,81.12943 67.66051100000001,80.826741 67.02115500000001,80.55156 66.366754,80.308307 65.702427,80.099949 65.033696,79.923597 64.362722,79.77453299999999 63.691062,79.648008 63.020154000000005,79.5394 62.351375000000004,79.444225 61.686083,79.358131 60.929275000000004,79.265046 60.158376000000004,79.320042 59.479512,79.372614 58.797021,79.433846 58.112075000000004,79.508029 57.425847000000005,79.599584 56.73955600000001,79.71306299999999 56.05451600000001,79.853148 55.372263000000004,80.024616 54.696726000000005,80.231548 54.033699000000006,80.47358 53.38562900000001,80.746453 52.75196700000001,81.04657399999999 52.13189200000001,81.370526 51.524530000000006,81.715002 50.928993000000006,82.07678899999999 50.344402,82.452754 49.769904000000004,82.839827 49.204688000000004,83.234989 48.64727500000001,83.63576499999999 48.094697000000004,84.042366 47.546271000000004,84.45808099999999 47.003905,84.885296 46.469964000000004,85.326142 45.94686900000001,85.782789 45.437117,86.25743299999999 44.943297,86.75227699999999 44.468115000000004,87.269496 44.014847,87.81066799999999 43.589392000000004,88.37214 43.191978000000006,88.94313 42.816287,89.514978 42.271989000000005,90.368014 46.987236,144.269421" stroke="#1f6fb2" stroke-width="0.1" /><text fill="#0a3d62" font-family="sans-serif" font-size="1.6" text-anchor="middle" x="60.90798350000001" y="111.7672335">04</text><polygon fill="#cfe3f7" fill-opacity="0.5" points="58.0,158.957138 57.506383,158.243875 57.190604,157.787274 56.874899,157.330161 56.559214,156.872151 56.243494,156.41285399999998 55.927681,155.951881 55.61172,155.488844 55.295569,155.02337699999998 54.979655,154.555748 54.665939,154.086976 54.357135,153.617604 54.055538999999996,153.147546 53.76341,152.67673299999998 53.482978,152.205145 53.216441,151.732804 52.965945000000005,151.25976599999998 52.733577,150.786112 52.521344,150.31193199999998 52.33116,149.83729499999998 52.164833,149.362222 52.024025,148.88651299999998 51.909698,148.40776499999998 51.820765,147.922 51.755334000000005,147.427396 51.711895999999996,146.92398599999999 51.68894,146.41199799999998 51.680096,145.269421 31.0,145.269421 31.0,209.269421 58.0,209.269421 58.0,158.957138 4.0,158.957138 4.493617,158.243875 4.809396,157.787274 5.125101000000001,157.330161 5.440785999999999,156.872151 5.756506000000002,156.41285399999998 6.072319,155.951881 6.388280000000002,155.488844 6.704431,155.02337699999998 7.020344999999999,154.555748 7.334060999999998,154.086976 7.6428650000000005,153.617604 7.944461,153.147546 8.23659,152.67673299999998 8.517022,152.205145 8.783559,151.732804 9.034054999999999,151.25976599999998 9.266423,150.786112 9.478656,150.31193199999998 9.66884,149.83729499999998 9.835166999999998,149.362222 9.975974999999998,148.88651299999998 10.090302000000001,148.40776499999998 10.179234999999998,147.922 10.244665999999999,147.427396 10.288104,146.92398599999999 10.311060000000001,146.41199799999998 10.319904000000001,145.269421 31.0,145.269421 31.0,209.269421 4.0,209.269421 4.0,158.957138" stroke="#1f6fb2" stroke-width="0.1" /><text fill="#0a3d62" font-family="sans-serif" font-size="1.6" text-anchor="middle" x="31.0" y="177.269421">02</text><polygon fill="#cfe3f7" fill-opacity="0.5" points="59.0,156.541326 66.0,160.951326 73.0,156.541326 73.0,145.269421 59.0,145.269421 59.0,156.541326" stroke="#1f6fb2" stroke-width="0.1" /><text fill="#0a3d62" font-family="sans-serif" font-size="1.6" text-anchor="middle" x="66.0" y="153.11037349999998">10</text><polygon fill="#cfe3f7" fill-opacity="0.5" points="74.0,157.51854799999998 74.029841,157.821528 74.132547,158.160103 74.299332,158.472136 74.523786,158.745635 74.797285,158.970089 75.109318,159.136874 75.447893,159.23958 75.750873,159.269421 99.249127,159.269421 99.552107,159.23958 99.890682,159.136874 100.202715,158.970089 100.476214,158.745635 100.70066800000001,158.472136 100.867453,158.160103 100.970159,157.821528 101.0,157.51854799999998 101.0,147.020294 100.970159,146.717314 100.867453,146.378739 100.70066800000001,146.06670599999998 100.476214,145.793207 100.202715,145.568753 99.890682,145.40196799999998 99.552107,145.299262 99.249127,145.269421 75.750873,145.269421 75.447893,145.299262 75.109318,145.40196799999998 74.797285,145.568753 74.523786,145.793207 74.299332,146.06670599999998 74.132547,146.378739 74.029841,146.717314 74.0,147.020294 74.0,157.51854799999998" stroke="#1f6fb2" stroke-width="0.1" /><text fill="#0a3d62" font-family="sans-serif" font-size="1.6" text-anchor="middle" x="87.5" y="152.269421">05</text><polygon fill="#cfe3f7" fill-opacity="0.5" points="4.0,222.51854799999998 4.029841,222.821528 4.132547,223.160103 4.299332,223.472136 4.523786,223.745635 4.7972850000000005,223.970089 5.109318,224.136874 5.4478930000000005,224.23958 5.750873,224.269421 29.249127,224.269421 29.552107,224.23958 29.890682,224.136874 30.202715,223.970089 30.476214,223.745635 30.700668,223.472136 30.867453,223.160103 30.970159,222.821528 31.0,222.51854799999998 31.0,212.020294 30.970159,211.717314 30.867453,211.378739 30.700668,211.06670599999998 30.476214,210.793207 30.202715,210.568753 29.890682,210.40196799999998 29.552107,210.299262 29.249127,210.269421 5.750873,210.269421 5.4478930000000005,210.299262 5.109318,210.40196799999998 4.7972850000000005,210.568753 4.523786,210.793207 4.299332,211.06670599999998 4.132547,211.378739 4.029841,211.717314 4.0,212.020294 4.0,222.51854799999998" stroke="#1f6fb2" stroke-width="0.1" /><text fill="#0a3d62" font-family="sans-serif" font-size="1.6" text-anchor="middle" x="17.5" y="217.269421">05</text><polygon fill="#cfe3f7" fill-opacity="0.5" points="74.026234,220.99786 74.039531,220.469839 74.068485,219.934504 74.111367,219.392378 74.166392,218.843994 74.231721,218.289889 74.305469,217.730584 74.385711,217.166586 74.470484,216.59837299999998 74.682642,215.208489 60.712848,210.269421 60.080703,210.675591 59.863683,210.813725 59.649178,210.947697 59.436692,211.07665 59.225746,211.199779 59.015857,211.316349 58.805787,211.42608099999998 58.593509,211.529495 58.378094000000004,211.627058 58.159746,211.71868899999998 57.938763,211.804269 57.715441999999996,211.88368499999999 57.490082,211.956827 57.262984,212.02359099999998 57.034448,212.083877 56.804778999999996,212.13759 56.574162,212.184663 56.341979,212.225221 56.107213,212.259752 55.869539,212.288738 55.628967,212.312612 55.385531,212.331818 55.139282,212.346813 54.890283,212.358071 54.638605,212.36607899999998 54.384328,212.371339 54.127528999999996,212.37437 53.868291,212.37570599999998 53.606691,212.37589599999998 53.341321,212.37550199999998 53.341321,222.37550299999998 74.036897,222.37550299999998 74.026234,220.99786 32.656408,220.99786 32.643111000000005,220.469839 32.614157000000006,219.934504 32.571275,219.392378 32.51625,218.843994 32.450921,218.289889 32.377173,217.730584 32.296931,217.166586 32.212158,216.59837299999998 32.0,215.208489 45.969794,210.269421 46.601939,210.675591 46.818959,210.813725 47.033464,210.947697 47.24595,211.07665 47.456896,211.199779 47.666785000000004,211.316349 47.876855,211.42608099999998 48.089133000000004,211.529495 48.304548,211.627058 48.522896,211.71868899999998 48.743879,211.804269 48.967200000000005,211.88368499999999 49.19256,211.956827 49.419658,212.02359099999998 49.648194000000004,212.083877 49.877863000000005,212.13759 50.10848,212.184663 50.340663,212.225221 50.575429,212.259752 50.813103,212.288738 51.053675,212.312612 51.297111,212.331818 51.54336,212.346813 51.792359000000005,212.358071 52.044037,212.36607899999998 52.298314000000005,212.371339 52.555113000000006,212.37437 52.814351,212.37570599999998 53.075951,212.37589599999998 53.341321,212.37550199999998 53.341321,222.37550299999998 32.645745000000005,222.37550299999998 32.656408,220.99786" stroke="#1f6fb2" stroke-width="0.1" /><text fill="#0a3d62" font-family="sans-serif" font-size="1.6" text-anchor="middle" x="53.341321" y="216.322462">03</text><polygon fill="#cfe3f7" fill-opacity="0.5" points="27.652816,232.116864 28.167438,232.206004 28.682105,232.290058 29.196817,232.369024 29.711570000000002,232.442902 30.226362,232.51169 30.74119,232.575387 31.256051,232.633992 31.770944,232.687504 32.285865,232.73592299999999 32.800812,232.779247 33.315782,232.817476 33.830771999999996,232.850608 34.345779,232.878645 34.860801,232.90158399999999 35.375834,232.91942699999998 35.890876,232.93217099999998 36.405923,232.939818 36.920974,232.942367 37.436025,232.939818 37.951071999999996,232.93217099999998 38.466114000000005,232.91942699999998 38.981148000000005,232.90158399999999 39.496169,232.878645 40.011176,232.850608 40.526166,232.817476 41.041136,232.779247 41.556083,232.73592299999999 42.071004,232.687504 42.585897,232.633992 43.100758,232.575387 43.615586,232.51169 44.130378,232.442902 44.645131,232.369024 45.159842999999995,232.290058 45.674510999999995,232.206004 46.189132,232.116864 46.525588,232.055255 48.580600000000004,235.480274 49.635818,235.081291 47.824396,225.269421 46.334066,225.557071 45.838333,225.647846 45.342648,225.73370599999998 44.847009,225.814652 44.351415,225.890686 43.855861000000004,225.961808 43.360346,226.02802 42.864868,226.089323 42.369423,226.145718 41.874009,226.197206 41.378624,226.243787 40.883264,226.285463 40.387927,226.32223399999998 39.892611,226.35410199999998 39.397311,226.381065 38.902027000000004,226.403126 38.406753,226.42028299999998 37.911489,226.432539 37.41623,226.439892 36.920974,226.442343 36.425718,226.439892 35.930459,226.432539 35.435195,226.42028299999998 34.939922,226.403126 34.444637,226.381065 33.949337,226.35410199999998 33.454021,226.32223399999998 32.958684,226.285463 32.463324,226.243787 31.967939,226.197206 31.472525,226.145718 30.97708,226.089323 30.481602,226.02802 29.986087,225.961808 29.490534,225.890686 28.994939,225.814652 28.4993,225.73370599999998 28.003615,225.647846 27.507882,225.557071 26.817909,225.423899 26.817909,231.960811 27.138243,232.022639 27.652816,232.116864 25.983002,232.116864 25.46838,232.206004 24.953713,232.290058 24.439001,232.369024 23.924248,232.442902 23.409456,232.51169 22.894628,232.575387 22.379767,232.633992 21.864874,232.687504 21.349953,232.73592299999999 20.835006,232.779247 20.320036,232.817476 19.805046,232.850608 19.290039,232.878645 18.775017,232.90158399999999 18.259984000000003,232.91942699999998 17.744942,232.93217099999998 17.229895,232.939818 16.714844,232.942367 16.199793,232.939818 15.684746,232.93217099999998 15.169704,232.91942699999998 14.65467,232.90158399999999 14.139649,232.878645 13.624642,232.850608 13.109652,232.817476 12.594682,232.779247 12.079735,232.73592299999999 11.564814,232.687504 11.049921,232.633992 10.535060000000001,232.575387 10.020232,232.51169 9.50544,232.442902 8.990687000000001,232.369024 8.475975000000002,232.290058 7.9613070000000015,232.206004 7.446686,232.116864 7.110230000000001,232.055255 5.055218,235.480274 4.0,235.081291 5.811422,225.269421 7.3017520000000005,225.557071 7.797485000000002,225.647846 8.29317,225.73370599999998 8.788809,225.814652 9.284403000000001,225.890686 9.779957,225.961808 10.275472,226.02802 10.77095,226.089323 11.266395000000001,226.145718 11.761809,226.197206 12.257194,226.243787 12.752554,226.285463 13.247891000000001,226.32223399999998 13.743207,226.35410199999998 14.238507,226.381065 14.733791,226.403126 15.229065,226.42028299999998 15.724329000000001,226.432539 16.219588,226.439892 16.714844,226.442343 17.2101,226.439892 17.705359,226.432539 18.200623,226.42028299999998 18.695895999999998,226.403126 19.191181,226.381065 19.686481,226.35410199999998 20.181797,226.32223399999998 20.677134000000002,226.285463 21.172494,226.243787 21.667879,226.197206 22.163293,226.145718 22.658738,226.089323 23.154216,226.02802 23.649731,225.961808 24.145284,225.890686 24.640879,225.814652 25.136518,225.73370599999998 25.632203,225.647846 26.127936000000002,225.557071 26.817909,225.423899 26.817909,231.960811 26.497575,232.022639 25.983002,232.116864" stroke="#1f6fb2" stroke-width="0.1" /><text fill="#0a3d62" font-family="sans-serif" font-size="1.6" text-anchor="middle" x="26.817909" y="230.3748475">07</text><polygon fill="#cfe3f7" fill-opacity="0.5" points="74.506907,230.565414 75.061689,230.636325 75.616489,230.703186 76.17130800000001,230.765998 76.726144,230.824758 77.280996,230.879468 77.835863,230.930127 78.390743,230.976734 78.94563600000001,231.019289 79.500541,231.057792 80.05545599999999,231.092243 80.61037999999999,231.122641 81.165312,231.148987 81.720252,231.171279 82.275197,231.189519 82.83014700000001,231.20370599999998 83.3851,231.213839 83.940056,231.219919 84.495013,231.221946 85.04997,231.219919 85.604926,231.213839 86.159879,231.20370599999998 86.71482900000001,231.189519 87.269774,231.171279 87.824714,231.148987 88.37964600000001,231.122641 88.93457000000001,231.092243 89.489485,231.057792 90.04438999999999,231.019289 90.599283,230.976734 91.154163,230.930127 91.70903,230.879468 92.263882,230.824758 92.818718,230.765998 93.373537,230.703186 93.928337,230.636325 94.483119,230.565414 95.037881,230.490453 96.44807800000001,230.289605 96.44807800000001,225.269421 94.762969,225.509425 94.222424,225.582464 93.681899,225.651553 93.141393,225.716692 92.60090600000001,225.77787999999998 92.060435,225.83512 91.519981,225.88841 90.979541,225.937751 90.439115,225.98314399999998 89.898701,226.024589 89.358299,226.062086 88.817908,226.095635 88.277526,226.125237 87.73715200000001,226.150891 87.19678400000001,226.172599 86.656423,226.190359 86.116067,226.204172 85.57571300000001,226.21403899999999 85.035363,226.219959 84.495013,226.22193199999998 83.95466300000001,226.219959 83.41431299999999,226.21403899999999 82.87396000000001,226.204172 82.33360300000001,226.190359 81.79324199999999,226.172599 81.252875,226.150891 80.7125,226.125237 80.172118,226.095635 79.631727,226.062086 79.091325,226.024589 78.550911,225.98314399999998 78.010485,225.937751 77.470046,225.88841 76.929591,225.83512 76.38912,225.77787999999998 75.848633,225.716692 75.308127,225.651553 74.767602,225.582464 74.227057,225.509425 73.541948,225.411847 73.541948,230.432031 73.952145,230.490453 74.506907,230.565414 72.576989,230.565414 72.02220700000001,230.636325 71.46740700000001,230.703186 70.912588,230.765998 70.357752,230.824758 69.8029,230.879468 69.24803299999999,230.930127 68.693153,230.976734 68.13826,231.019289 67.583355,231.057792 67.02844,231.092243 66.473516,231.122641 65.91858400000001,231.148987 65.363644,231.171279 64.808699,231.189519 64.253749,231.20370599999998 63.698796,231.213839 63.14384,231.219919 62.588883,231.221946 62.033926,231.219919 61.478970000000004,231.213839 60.924017,231.20370599999998 60.369067,231.189519 59.814122,231.171279 59.259182,231.148987 58.70425,231.122641 58.149326,231.092243 57.594411,231.057792 57.039506,231.019289 56.484613,230.976734 55.929733,230.930127 55.374866,230.879468 54.820014,230.824758 54.265178000000006,230.765998 53.710359,230.703186 53.155559,230.636325 52.600777,230.565414 52.046015,230.490453 50.635818,230.289605 50.635818,225.269421 52.320927,225.509425 52.861472000000006,225.582464 53.401997,225.651553 53.942503,225.716692 54.48299,225.77787999999998 55.023461,225.83512 55.563915,225.88841 56.104355,225.937751 56.644781,225.98314399999998 57.185195,226.024589 57.725597,226.062086 58.265988,226.095635 58.80637,226.125237 59.346744,226.150891 59.887112,226.172599 60.427473,226.190359 60.967829,226.204172 61.508183,226.21403899999999 62.048533,226.219959 62.588883,226.22193199999998 63.129233,226.219959 63.669583,226.21403899999999 64.209936,226.204172 64.750293,226.190359 65.290654,226.172599 65.831021,226.150891 66.371396,226.125237 66.911778,226.095635 67.452169,226.062086 67.992571,226.024589 68.532985,225.98314399999998 69.073411,225.937751 69.61385,225.88841 70.154305,225.83512 70.694776,225.77787999999998 71.235263,225.716692 71.775769,225.651553 72.316294,225.582464 72.85683900000001,225.509425 73.541948,225.411847 73.541948,230.432031 73.13175100000001,230.490453 72.576989,230.565414" stroke="#1f6fb2" stroke-width="0.1" /><text fill="#0a3d62" font-family="sans-serif" font-size="1.6" text-anchor="middle" x="73.541948" y="228.24568349999998">08</text><polygon fill="#cfe3f7" fill-opacity="0.5" points="97.44807800000001,228.918548 97.47023300000001,229.14349099999998 97.55017600000001,229.407029 97.67999700000001,229.64990699999998 97.854707,229.86279199999998 98.067592,230.037502 98.31047000000001,230.16732299999998 98.574008,230.247266 98.79895100000002,230.269421 110.097205,230.269421 110.32214800000001,230.247266 110.58568600000001,230.16732299999998 110.82856400000001,230.037502 111.04144900000001,229.86279199999998 111.216159,229.64990699999998 111.34598000000001,229.407029 111.42592300000001,229.14349099999998 111.44807800000001,228.918548 111.44807800000001,226.620294 111.42592300000001,226.395351 111.34598000000001,226.131813 111.216159,225.888935 111.04144900000001,225.67605 110.82856400000001,225.50134 110.58568600000001,225.371519 110.32214800000001,225.291576 110.097205,225.269421 98.79895100000002,225.269421 98.574008,225.291576 98.31047000000001,225.371519 98.067592,225.50134 97.854707,225.67605 97.67999700000001,225.888935 97.55017600000001,226.131813 97.47023300000001,226.395351 97.44807800000001,226.620294 97.44807800000001,228.918548" stroke="#1f6fb2" stroke-width="0.1" /><text fill="#0a3d62" font-family="sans-serif" font-size="1.6" text-anchor="middle" x="104.44807800000001" y="227.769421">06</text><polygon fill="#cfe3f7" fill-opacity="0.5" points="4.0,240.129401 4.022155,240.354344 4.102098,240.617882 4.2319189999999995,240.86076 4.406629,241.073645 4.619514,241.248355 4.862392,241.378176 5.12593,241.458119 5.350873,241.480274 16.649127,241.480274 16.87407,241.458119 17.137608,241.378176 17.380485999999998,241.248355 17.593370999999998,241.073645 17.768081000000002,240.86076 17.897902000000002,240.617882 17.977845000000002,240.354344 18.0,240.129401 18.0,237.83114700000002 17.977845000000002,237.60620400000002 17.897902000000002,237.342666 17.768081000000002,237.09978800000002 17.593370999999998,236.88690300000002 17.380485999999998,236.712193 17.137608,236.58237200000002 16.87407,236.502429 16.649127,236.480274 5.350873,236.480274 5.12593,236.502429 4.862392,236.58237200000002 4.619514,236.712193 4.406629,236.88690300000002 4.2319189999999995,237.09978800000002 4.102098,237.342666 4.022155,237.60620400000002 4.0,237.83114700000002 4.0,240.129401" stroke="#1f6fb2" stroke-width="0.1" /><text fill="#0a3d62" font-family="sans-serif" font-size="1.6" text-anchor="middle" x="11.0" y="238.980274">06</text></svg>