<?xml version="1.0" encoding="utf-8" ?>
<svg baseProfile="full" height="146.246331cm" version="1.1" viewBox="0 0 169.59447115488496 146.246331" width="169.59447115488496cm" xmlns="http://www.w3.org/2000/svg" xmlns:ev="http://www.w3.org/2001/xml-events" xmlns:xlink="http://www.w3.org/1999/xlink"><defs /><g fill="none" id="CONSTRUCCION" stroke="#888888" stroke-width="0.08"><line x1="5.7" x2="5.7" y1="13.446330999999999" y2="70.246331" /><line x1="107.64315612079442" x2="107.64315612079442" y1="62.746331" y2="50.746331" /><line x1="125.59447115488497" x2="147.59447115488496" y1="10.246331" y2="10.246331" /><line x1="71.88804408135978" x2="83.88804408135978" y1="83.466331" y2="83.466331" /></g><g fill="none" id="CORTE" stroke="#d00000" stroke-width="0.08"><polygon points="3.0,71.246331 29.7,71.246331 29.7,25.374542 29.118215,24.700281 28.778487,24.307292 28.436197,23.912819000000002 28.090829,23.517011 27.741567,23.119673000000002 27.387595,22.720615000000002 27.028102,22.319652 26.66229,21.916616 26.290236,21.512266 25.915247,21.108748000000002 25.542967,20.707146 25.177825,20.307043 24.824112,19.908068 24.486109,19.510068 24.168044,19.113112 23.874029999999998,18.717495999999997 23.607961,18.323725 23.373393,17.932456000000002 23.173384,17.544361000000002 23.01035,17.159863 22.885308,16.776631000000002 22.79657,16.38675 22.741,15.983488 22.717029999999998,15.565161 22.72339,15.131447999999999 22.758726,14.682677 22.821462,14.219636999999999 22.909748999999998,13.743389 23.021472,13.255131 23.154291,12.75609 23.305685,12.247462 23.472995,11.730379 23.65346,11.205886 23.844247,10.674937 24.042469,10.138395000000001 24.571693,8.725179 12.080827,3.0 11.407931000000001,3.904493 11.217832000000001,4.160579 11.027648000000001,4.4179 10.837652,4.676658 10.64812,4.937057 10.459331,5.199302 10.271567000000001,5.463599 10.085113,5.730156 9.900256,5.999182 9.717289000000001,6.270885 9.536506,6.545476000000001 9.358207,6.823163 9.182694,7.104153999999999 9.010428000000001,7.388401 8.842503,7.674367 8.679210000000001,7.9596599999999995 8.519753999999999,8.243051 8.363115,8.523774 8.208316,8.801076 8.054421999999999,9.074213 7.900543,9.342453 7.74583,9.605078 7.589475,9.861391 7.430707,10.110724 7.268787,10.352451 7.1029990000000005,10.585995 6.932628,10.810857 6.756079,11.0277 6.570588,11.239505 6.375005,11.449002 6.169968,11.657012 5.956375,11.86417 5.7351920000000005,12.071139 5.507434,12.27862 5.320019,12.446330999999999 3.0,12.446330999999999 3.0,71.246331" /><polygon points="58.7,15.450973 58.264494,14.778037 57.989560999999995,14.352963 57.714679000000004,13.927468 57.4398,13.501223999999999 57.164876,13.073908000000001 56.889855,12.645192 56.614688,12.214749 56.339336,11.782269999999999 56.064163,11.348042000000001 55.790873,10.913127999999999 55.521885999999995,10.478156 55.259215999999995,10.043085999999999 55.004832,9.607884 54.760678999999996,9.172557 54.52867,8.737152 54.310672999999994,8.301746999999999 54.1085,7.866441999999999 53.923893,7.431343999999999 53.758513,6.996544999999999 53.613924999999995,6.562092999999999 53.491591,6.127922 53.392508,5.692316 53.316116,5.251401999999999 53.260694,4.8027940000000005 53.2249,4.346354999999999 53.183436,3.246331 34.7,3.246331 34.7,61.246331 58.7,61.246331 58.7,15.450973" /><polygon points="82.207406,13.882245 82.20684700000001,13.410734 82.22180800000001,12.932172999999999 82.250814,12.44697 82.29233400000001,11.955562 82.344781,11.458403 82.406519,10.955946 82.475864,10.448635 82.551095,9.936894 82.630454,9.421127 82.835557,8.117138 70.471807,3.115755 69.82821100000001,3.565774 69.632473,3.701371 69.439221,3.832765 69.247955,3.959175 69.058201,4.079877 68.869484,4.194209 68.680722,4.301925 68.489923,4.403585 68.296043,4.499723 68.09925700000001,4.590241 67.899871,4.674979 67.698194,4.753783 67.49453500000001,4.826506 67.28920500000001,4.893006 67.082515,4.953149 66.874774,5.0068079999999995 66.666205,5.0538810000000005 66.456151,5.094474 66.243383,5.129082 66.02740800000001,5.158199 65.808222,5.182241 65.585857,5.201633 65.360367,5.216819 65.131822,5.228258 64.900306,5.236429 64.665908,5.241828 64.428721,5.244974 64.188838,5.2464010000000005 63.946352000000005,5.246663 63.7,5.24633 63.7,15.246331 82.258824,15.246331 82.207406,13.882245" /><polygon points="91.24610344276424,63.746331 116.07266544276423,63.746331 120.62957344276424,13.580225 119.94201944276423,12.807675 119.53647844276423,12.357158 119.12244644276424,11.907563 118.69792144276424,11.462057 118.26314844276423,11.02492 117.82033244276424,10.597938 117.37046144276424,10.180638 116.91414044276424,9.772170000000001 116.45196344276424,9.371681 115.98450844276424,8.978314 115.51234544276423,8.591216 115.03603344276424,8.209535 114.55611944276424,7.832419 114.07251944276423,7.458542 113.58322544276423,7.086356 113.08570544276424,6.717078 112.57880144276423,6.35355 112.06153444276424,5.998842 111.53286944276424,5.65608 110.99173444276424,5.328467 110.43703944276423,5.019302 109.86771344276424,4.732006 109.28275244276423,4.470137 108.68273644276424,4.237954 108.07273744276424,4.038841 107.45861644276424,3.870418 106.84267544276423,3.7281820000000003 106.22645744276423,3.6075530000000002 105.61137044276424,3.504086 104.99875044276423,3.4134830000000003 104.38991944276424,3.331593 103.68591544276424,3.2415830000000003 102.96845644276424,3.295036 102.34673744276424,3.3453 101.72108944276424,3.4038690000000003 101.09264644276423,3.474855 100.46254844276423,3.5625080000000002 99.83198444276424,3.671224 99.20225144276424,3.805537 98.57493844276424,3.970072 97.95438244276423,4.168556000000001 97.34648744276423,4.399997 96.75347544276424,4.660147 96.17473044276423,4.945537 95.60941244276424,5.252868 95.05663244276424,5.578959 94.51548944276423,5.920731 93.98509244276424,6.27519 93.46458744276424,6.63941 92.95316144276424,7.010514000000001 92.44915744276423,7.386340000000001 91.94963244276424,7.767577 91.45401844276424,8.157413 90.96411544276424,8.557931 90.48206344276423,8.971037 90.01005844276423,9.398669 89.55037044276423,9.84279 89.10536144276423,10.305362 88.67750144276424,10.788319 88.26989544276424,11.29289 87.88809544276424,11.814989 87.53213544276423,12.344268 87.19616244276423,12.873099 86.69823844276424,13.679775 91.24610344276424,63.746331" /><polygon points="124.59447115488497,15.495458 124.62431215488498,15.798437999999999 124.72701815488497,16.137013 124.89380315488498,16.449046 125.11825715488497,16.722545 125.39175615488497,16.946998999999998 125.70378915488497,17.113784 126.04236415488496,17.21649 126.34534415488497,17.246330999999998 146.84359815488497,17.246330999999998 147.14657815488496,17.21649 147.48515315488498,17.113784 147.79718615488497,16.946998999999998 148.07068515488498,16.722545 148.29513915488496,16.449046 148.46192415488497,16.137013 148.56463015488498,15.798437999999999 148.59447115488496,15.495458 148.59447115488496,4.997204 148.56463015488498,4.694224 148.46192415488497,4.355649 148.29513915488496,4.043616 148.07068515488498,3.770117 147.79718615488497,3.5456630000000002 147.48515315488498,3.3788780000000003 147.14657815488496,3.276172 146.84359815488497,3.246331 126.34534415488497,3.246331 126.04236415488496,3.276172 125.70378915488497,3.3788780000000003 125.39175615488497,3.5456630000000002 125.11825715488497,3.770117 124.89380315488498,4.043616 124.72701815488497,4.355649 124.62431215488498,4.694224 124.59447115488497,4.997204 124.59447115488497,15.495458" /><polygon points="152.59447115488496,6.895458 152.61662615488495,7.120401 152.69656915488497,7.383939 152.82639015488496,7.626817 153.00110015488497,7.839702 153.21398515488497,8.014412 153.45686315488496,8.144233 153.72040115488497,8.224176 153.94534415488496,8.246331 165.24359815488495,8.246331 165.46854115488495,8.224176 165.73207915488496,8.144233 165.97495715488495,8.014412 166.18784215488495,7.839702 166.36255215488495,7.626817 166.49237315488494,7.383939 166.57231615488496,7.120401 166.59447115488496,6.895458 166.59447115488496,4.597204 166.57231615488496,4.372261 166.49237315488494,4.108723 166.36255215488495,3.865845 166.18784215488495,3.65296 165.97495715488495,3.47825 165.73207915488496,3.3484290000000003 165.46854115488495,3.2684860000000002 165.24359815488495,3.246331 153.94534415488496,3.246331 153.72040115488497,3.2684860000000002 153.45686315488496,3.3484290000000003 153.21398515488497,3.47825 153.00110015488497,3.65296 152.82639015488496,3.865845 152.69656915488497,4.108723 152.61662615488495,4.372261 152.59447115488496,4.597204 152.59447115488496,6.895458" /><polygon points="4.751574,81.918489 5.231535,82.00787199999999 5.711553,82.092157 6.191625,82.171343 6.671748,82.245428 7.151919,82.31441099999999 7.632135,82.37828999999999 8.112392,82.437063 8.592687999999999,82.49073 9.073019,82.53929 9.553381,82.582741 10.033771999999999,82.621082 10.514188,82.654313 10.994626,82.682433 11.475081000000001,82.70544 11.955551,82.723336 12.436032,82.736119 12.91652,82.74378899999999 13.397011,82.74634499999999 13.877502,82.74378899999999 14.35799,82.736119 14.838471,82.723336 15.318941,82.70544 15.799396,82.682433 16.279834,82.654313 16.76025,82.621082 17.240641,82.582741 17.721004,82.53929 18.201334,82.49073 18.68163,82.437063 19.161887,82.37828999999999 19.642103000000002,82.31441099999999 20.122274,82.245428 20.602397,82.171343 21.082469,82.092157 21.562487,82.00787199999999 22.042448,81.918489 22.300629,81.867661 24.350583,85.28425 25.405801,84.885267 23.591809,75.059476 22.125993,75.363652 21.666193,75.454173 21.206454,75.53979 20.746771,75.620505 20.287142,75.696319 19.827564000000002,75.767234 19.368033,75.833251 18.908548,75.894372 18.449104,75.950599 17.989699,76.001932 17.530328,76.048372 17.070990000000002,76.089921 16.61168,76.12658 16.152395,76.158349 15.693131,76.18522899999999 15.233886,76.207222 14.774654,76.224326 14.315434,76.236543 13.856221,76.243873 13.397011,76.246317 12.937801,76.243873 12.478588,76.236543 12.019368,76.224326 11.560136,76.207222 11.100891,76.18522899999999 10.641627,76.158349 10.182342,76.12658 9.723032,76.089921 9.263694000000001,76.048372 8.804323,76.001932 8.344918,75.950599 7.885474,75.894372 7.425989,75.833251 6.966458,75.767234 6.506880000000001,75.696319 6.047251,75.620505 5.587568,75.53979 5.127829,75.454173 4.66803,75.363652 4.0,75.225027 4.0,81.767635 4.271672000000001,81.82401 4.751574,81.918489" /><polygon points="30.87956304067989,80.388608 31.39950704067989,80.45964599999999 31.91947404067989,80.52662699999999 32.43946304067989,80.589551 32.95947304067989,80.64841799999999 33.47950204067989,80.703228 33.99955004067989,80.753979 34.51961404067989,80.800671 35.03969304067989,80.843305 35.55978704067989,80.881879 36.07989304067989,80.916394 36.60001104067989,80.946849 37.12013804067989,80.973243 37.64027404067989,80.995578 38.16041804067989,81.013851 38.68056704067989,81.028064 39.20072004067989,81.038217 39.72087604067989,81.044308 40.241033040679895,81.046339 40.76119004067989,81.044308 41.28134604067989,81.038217 41.80150004067989,81.028064 42.32164804067989,81.013851 42.84179204067989,80.995578 43.36192804067989,80.973243 43.88205504067989,80.946849 44.40217304067989,80.916394 44.92227904067989,80.881879 45.44237304067989,80.843305 45.96245204067989,80.800671 46.48251604067989,80.753979 47.002564040679886,80.703228 47.522593040679894,80.64841799999999 48.04260304067989,80.589551 48.56259204067989,80.52662699999999 49.08255904067989,80.45964599999999 49.60250304067989,80.388608 50.12242304067989,80.313515 51.488044040679895,80.105614 51.488044040679895,75.08256899999999 49.82896404067989,75.33514699999999 49.32418304067989,75.40805399999999 48.81942504067989,75.47701599999999 48.31469204067989,75.542035 47.80998004067989,75.603111 47.30528804067989,75.66024399999999 46.800617040679896,75.71343399999999 46.295963040679894,75.762683 45.79132604067989,75.807991 45.28670404067989,75.849357 44.782097040679886,75.886783 44.27750204067989,75.920268 43.772919040679895,75.94981299999999 43.26834504067989,75.975419 42.76378004067989,75.997084 42.25922204067989,76.014811 41.75467004067989,76.028598 41.25012204067989,76.038445 40.74557704067989,76.044354 40.241033040679895,76.046323 39.73648904067989,76.044354 39.23194404067989,76.038445 38.72739604067989,76.028598 38.22284404067989,76.014811 37.71828604067989,75.997084 37.21372104067989,75.975419 36.70914704067989,75.94981299999999 36.20456404067989,75.920268 35.69996904067989,75.886783 35.19536204067989,75.849357 34.69074004067989,75.807991 34.18610304067989,75.762683 33.681449040679894,75.71343399999999 33.17677804067989,75.66024399999999 32.672086040679886,75.603111 32.16737404067989,75.542035 31.66264104067989,75.47701599999999 31.15788304067989,75.40805399999999 30.65310204067989,75.33514699999999 29.99402204067989,75.234809 29.99402204067989,80.257853 30.35964304067989,80.313515 30.87956304067989,80.388608" /><polygon points="55.48804408135978,143.246331 63.49925908135978,143.246331 62.889899081359786,88.60712099999999 67.11702308135979,76.242786 64.58583808135978,74.977194 63.895975081359786,75.904493 63.70587608135978,76.160579 63.51569208135979,76.4179 63.32569608135979,76.676658 63.13616408135979,76.937057 62.94737508135979,77.199302 62.759611081359786,77.463599 62.57315708135978,77.730156 62.38830008135979,77.999182 62.20533308135978,78.27088499999999 62.024550081359784,78.545476 61.84625108135978,78.823163 61.67073808135979,79.104154 61.498472081359786,79.388401 61.33054708135978,79.674367 61.167254081359786,79.95966 61.00779808135979,80.243051 60.85115908135978,80.523774 60.696360081359785,80.801076 60.542466081359784,81.074213 60.38858708135979,81.34245299999999 60.23387408135979,81.60507799999999 60.07751908135978,81.861391 59.91875108135979,82.110724 59.756831081359785,82.352451 59.591043081359786,82.585995 59.42067208135978,82.810857 59.24412308135978,83.0277 59.05863208135978,83.239505 58.86304908135978,83.449002 58.658012081359786,83.657012 58.44441908135978,83.86417 58.22323608135979,84.071139 57.995478081359785,84.27862 57.80806308135978,84.446331 55.48804408135978,84.446331 55.48804408135978,143.246331" /><polygon points="70.88804408135978,86.518236 77.88804408135978,90.928236 84.88804408135978,86.518236 84.88804408135978,75.246331 70.88804408135978,75.246331 70.88804408135978,86.518236" /></g><g fill="none" id="COSTURA" stroke="#00a000" stroke-width="0.08"><polygon points="4.0,13.446330999999999 5.7,13.446330999999999 5.939357801871338,13.234039384861866 6.177588792308713,13.020855067008739 6.413566159878161,12.805885343725619 6.646163093145719,12.588237512297512 6.874252780677424,12.367018870009424 7.0967084110393115,12.14133671414636 7.3124031727974215,11.910298341993318 7.520210254517788,11.673011050835308 7.719134889729374,11.428685814884242 7.909436450246279,11.177518312353135 8.0920673723731,10.920248390614754 8.267987393783162,10.657621629812384 8.438156252149785,10.390383610089316 8.603533685146292,10.11927991158883 8.765079430446008,9.84505611445422 8.923753225722255,9.568457798828772 9.080514808648353,9.290230544855774 9.236323916897627,9.011119932678511 9.392140288143398,8.731871542440272 9.548923660058989,8.453230954284344 9.707633770317726,8.175943748354015 9.869230190420502,7.900755377079145 10.034406039949921,7.628206508684699 10.20304709449787,7.358217319344906 10.374886799832161,7.090590910670946 10.549658601720594,6.825130384273999 10.72709594593098,6.561638841765247 10.906932278231118,6.299919384755869 11.088901044388818,6.039775114857045 11.272735690171881,5.781009133679959 11.458169661348114,5.523424542835787 11.644936403685323,5.266824443935714 11.832769362951309,5.011011938590917 12.021401984913881,4.755790128412579 12.210567715340844,4.50096211501188 12.4,4.246331 23.308712114635714,9.246331 23.10520424108314,9.789768963032905 22.904668370458456,10.332573617299081 22.71007650568955,10.874111654031795 22.524400649704305,11.41374976446432 22.35061280543061,11.950854639829924 22.191684975796353,12.484792971361879 22.050589163729434,13.014931450293451 21.93029737215772,13.540636767857913 21.833781604009122,14.061275615288535 21.764013862211502,14.576214683818586 21.723966149692767,15.084820664681335 21.716610469380804,15.586460249110054 21.74491882420349,16.08050012833801 21.811863217088725,16.566306993598477 21.920415650964387,17.04324753612472 22.072966579443282,17.510789565532917 22.267340019625145,17.969194892332798 22.49920333199428,18.419100321250014 22.764211112273202,18.861144876516008 23.05801795618444,19.29596758236222 23.376278459450507,19.72420746302008 23.714647217793917,20.146503542721025 24.068778826937205,20.563494845696507 24.43432788260288,20.97582039617795 24.806948980513464,21.3841192183968 25.18229671639148,21.789030336584496 25.55602568595945,22.191192774972468 25.924102563272175,22.59122034408173 26.28557710229759,22.989477763496446 26.641256697549235,23.38618774794119 26.991969198137642,23.781571359554526 27.33854245317335,24.175849660475027 27.681804311766896,24.569243712841256 28.02258262302883,24.961974578791782 28.361705236069685,25.354263320465176 28.7,25.746331 28.7,70.246331 4.0,70.246331" /><polygon points="34.7,4.246331 52.22041984056074,4.246331 52.22637438662826,4.404302392021187 52.265501026557786,4.9032385750975305 52.3266430747855,5.398150883592496 52.41163514866959,5.888703994624304 52.52215355529829,6.374582638557293 52.65772771326411,6.855743493263837 52.816340974894565,7.332339077652701 52.99594262155813,7.8045262264191475 53.19448193462327,8.27246177425845 53.40990819545848,8.736302555865874 53.640170685432224,9.196205405936691 53.88321868591298,9.652327159166171 54.13700147826924,10.104824650249583 54.39946834386947,10.553854713882197 54.66856856408216,10.999574184759274 54.942251420275774,11.442139897576096 55.2184661938188,11.881708687027922 55.49522691292847,12.318442533536691 55.77164150059585,12.752590354319254 56.047728907549846,13.184473470111959 56.32353587389238,13.614415410199063 56.59910913972537,14.042739703864845 56.874495445150714,14.469769880393565 57.149741530270326,14.895829469069485 57.42489413518612,15.321241999176875 57.7,15.746331 57.7,60.246331 34.7,60.246331" /><polygon points="63.7,6.246331 63.94621700359556,6.2466636809306095 64.19235264431173,6.246397756105576 64.43832555926915,6.244934619769256 64.68405438558841,6.241675666166006 64.92945776039018,6.236022289540182 65.17445432079505,6.2273758841361415 65.41896270392364,6.2151378441982414 65.66290154689659,6.198709563970838 65.9061894868345,6.177492437698287 66.148745160858,6.150887859624947 66.39048720608771,6.118297223995173 66.63133425964426,6.079121925053322 66.8712042859385,6.032765989412654 67.10995170850691,5.978882084383181 67.34731614405462,5.917572125901057 67.58302514452467,5.8489852403142235 67.81680626186017,5.77327055397062 68.04838704800416,5.690577193218186 68.27749505489973,5.601054284404863 68.50385783448993,5.504850953878591 68.72720293871787,5.40211632798731 68.94725791952656,5.292999533078959 69.16375032885912,5.177649695501481 69.37646465034544,5.056265911948519 69.5857024683,4.929501151138325 69.79204105370248,4.798250358774735 69.99606025306332,4.663410741168429 70.1983399128929,4.525879504630083 70.39945987970165,4.386553855470382 70.60000000000001,4.246331 81.7242977306435,8.746331 81.64233962493302,9.267398493273918 81.56221613658073,9.788130663666056 81.48576188294479,10.30819218829463 81.4148114813834,10.82724774427786 81.35119954925474,11.344962008733965 81.29676070391699,11.86099965878116 81.25332956272834,12.375025371537669 81.22274074304694,12.886703824121707 81.20682886223102,13.395699693651494 81.20742853763873,13.901677657245248 81.22041984056074,14.246331 63.7,14.246331" /><polygon points="87.7242977306435,13.921331 88.04370323351667,13.403868406672618 88.36920705539116,12.8915168950262 88.70690751526831,12.389387546741716 89.06289571129138,11.902585430937213 89.44109806237012,11.43441316195715 89.84025509936458,10.983855241547264 90.25834692128039,10.549262985711547 90.69335362712313,10.128987710453991 91.14325531589836,9.721380731778588 91.6060320866117,9.32479336568933 92.07966403826873,8.937576928190206 92.56213126987504,8.558082735285213 93.05141388043621,8.18466210297834 93.54572725744373,7.816062737817665 94.04494124909377,7.453819616524928 94.54963542832522,7.100663389192174 95.06039208800136,6.759329288168443 95.57779352098547,6.4325525458027775 96.10242202014084,6.123068394444218 96.63485987833073,5.833612066441805 97.17568938841842,5.566918794144582 97.7254928432672,5.325723809901588 98.28485253574037,5.112762346061863 98.85430980651698,4.9306216190365415 99.4335244430381,4.778702594444384 100.02130695676313,4.6533366487372625 100.61643336523437,4.5507304849315995 101.21767968599413,4.46709080604382 101.82382193658471,4.398624315090347 102.43363613454838,4.341537715087604 103.04589829742746,4.292037709052014 103.65938444276424,4.246331 104.25985511272643,4.323103727363205 104.85894186923288,4.403682937177569 105.45526079882785,4.491875111894253 106.04742798805559,4.591486733964416 106.63405952346037,4.706324285839218 107.21377149158644,4.840194249969818 107.78517997897806,4.996903108807375 108.34690107217949,5.18025734480305 108.8977555294775,5.393417112974239 109.43792807609802,5.63523533353957 109.96816108016415,5.9028039610941345 110.4891985746602,6.1932096928121965 111.00178459257043,6.503539225868016 111.50666316687915,6.830879257435853 112.00457833057067,7.17231648468997 112.49627411662925,7.524937604804627 112.9824945580392,7.885829314954089 113.46398368778483,8.252078312312612 113.94135922928525,8.621142938688333 114.41442458865066,8.992877527497516 114.88266011767575,9.368086945100183 115.34554535446988,9.747578451988623 115.80255983714235,10.132159308655126 116.2531831038025,10.52263677559198 116.69689469255965,10.919818113291475 117.13317414152314,11.324510582245898 117.5615009888023,11.737521442947537 117.98135477250645,12.159657955888683 118.39261893727405,12.591247379720944 118.79703877459757,13.030404357422412 119.19689569417724,13.474606409993743 119.59447115488497,13.921331 115.15938444276424,62.746331 92.15938444276424,62.746331" /><polygon points="125.59447115488497,5.046331 125.6098429305624,4.890258742387097 125.65536752887594,4.740184254107929 125.72929546504294,4.601874813584319 125.82878572993573,4.480645575050762 125.95001496846929,4.381155310157964 126.0883244089929,4.307227373990971 126.23839889727206,4.261702775677415 126.39447115488497,4.246331 146.79447115488497,4.246331 146.95054341249786,4.261702775677415 147.10061790077705,4.307227373990971 147.23892734130067,4.381155310157964 147.3601565798342,4.480645575050762 147.45964684472702,4.601874813584319 147.533574780894,4.740184254107929 147.57909937920755,4.890258742387098 147.59447115488496,5.046331 147.59447115488496,15.446330999999999 147.57909937920755,15.602403257612902 147.533574780894,15.75247774589207 147.45964684472702,15.89078718641568 147.3601565798342,16.012016424949238 147.23892734130067,16.111506689842034 147.10061790077705,16.185434626009027 146.95054341249786,16.230959224322582 146.79447115488497,16.246330999999998 126.39447115488497,16.246330999999998 126.23839889727206,16.230959224322582 126.0883244089929,16.185434626009027 125.95001496846929,16.111506689842038 125.82878572993573,16.012016424949238 125.72929546504294,15.89078718641568 125.65536752887594,15.75247774589207 125.6098429305624,15.602403257612902 125.59447115488497,15.446330999999999" /><polygon points="153.59447115488496,4.646331 153.60215704272366,4.568294871193549 153.62491934188043,4.493257627053964 153.66188330996394,4.424102906792159 153.71162844241033,4.3634882875253815 153.7722430616771,4.313743155078982 153.84139778193892,4.276779186995485 153.91643502607852,4.2540168878387075 153.99447115488496,4.246331 165.19447115488495,4.246331 165.2725072836914,4.2540168878387075 165.347544527831,4.276779186995485 165.4166992480928,4.313743155078982 165.47731386735958,4.3634882875253815 165.52705899980597,4.424102906792159 165.56402296788946,4.493257627053964 165.58678526704625,4.568294871193549 165.59447115488496,4.646331 165.59447115488496,6.846331 165.58678526704625,6.924367128806452 165.56402296788946,6.999404372946036 165.52705899980597,7.068559093207841 165.47731386735958,7.1291737124746195 165.4166992480928,7.178918844921018 165.347544527831,7.215882813004515 165.2725072836914,7.238645112161292 165.19447115488495,7.246331 153.99447115488496,7.246331 153.91643502607852,7.238645112161292 153.84139778193892,7.215882813004515 153.7722430616771,7.178918844921018 153.71162844241033,7.1291737124746195 153.66188330996394,7.068559093207841 153.62491934188043,6.999404372946036 153.60215704272366,6.924367128806452 153.59447115488496,6.846331" /><polygon points="4.0,76.246331 4.4698505510169975,76.343831 4.939701102033995,76.436331 5.4095516530509915,76.523831 5.87940220406799,76.606331 6.349252755084986,76.683831 6.819103306101984,76.756331 7.288953857118981,76.823831 7.758804408135979,76.886331 8.228654959152976,76.943831 8.698505510169973,76.996331 9.16835606118697,77.043831 9.638206612203966,77.086331 10.108057163220966,77.123831 10.577907714237963,77.156331 11.04775826525496,77.183831 11.517608816271958,77.20633099999999 11.987459367288954,77.223831 12.45730991830595,77.23633099999999 12.927160469322947,77.243831 13.397011020339946,77.246331 13.866861571356944,77.243831 14.33671212237394,77.23633099999999 14.806562673390937,77.223831 15.276413224407934,77.20633099999999 15.746263775424932,77.183831 16.216114326441932,77.156331 16.68596487745893,77.123831 17.155815428475925,77.086331 17.625665979492922,77.043831 18.09551653050992,76.996331 18.565367081526915,76.943831 19.035217632543915,76.886331 19.505068183560912,76.823831 19.97491873457791,76.756331 20.444769285594905,76.683831 20.9146198366119,76.606331 21.3844703876289,76.523831 21.854320938645895,76.436331 22.324171489662895,76.343831 22.79402204067989,76.246331 23.99402204067989,82.746331 22.79402204067989,80.746331 22.324171489662895,80.843831 21.854320938645895,80.936331 21.3844703876289,81.023831 20.9146198366119,81.106331 20.444769285594905,81.183831 19.97491873457791,81.256331 19.505068183560912,81.323831 19.035217632543915,81.386331 18.565367081526915,81.443831 18.09551653050992,81.496331 17.625665979492922,81.543831 17.155815428475925,81.586331 16.68596487745893,81.623831 16.216114326441932,81.656331 15.746263775424932,81.683831 15.276413224407934,81.70633099999999 14.806562673390937,81.723831 14.33671212237394,81.73633099999999 13.866861571356944,81.743831 13.397011020339946,81.746331 12.927160469322947,81.743831 12.45730991830595,81.73633099999999 11.987459367288954,81.723831 11.517608816271958,81.70633099999999 11.04775826525496,81.683831 10.577907714237963,81.656331 10.108057163220966,81.623831 9.638206612203966,81.586331 9.16835606118697,81.543831 8.698505510169973,81.496331 8.228654959152976,81.443831 7.758804408135979,81.386331 7.288953857118981,81.323831 6.819103306101984,81.256331 6.349252755084986,81.183831 5.87940220406799,81.106331 5.4095516530509915,81.023831 4.939701102033995,80.936331 4.4698505510169975,80.843831 4.0,80.746331" /><polygon points="29.99402204067989,76.246331 30.506372591696888,76.324331 31.018723142713885,76.398331 31.53107369373088,76.46833099999999 32.04342424474788,76.534331 32.555774795764876,76.59633099999999 33.06812534678187,76.654331 33.58047589779887,76.708331 34.09282644881587,76.758331 34.605176999832864,76.804331 35.117527550849864,76.84633099999999 35.629878101866865,76.884331 36.14222865288386,76.918331 36.65457920390085,76.948331 37.16692975491785,76.97433099999999 37.67928030593485,76.996331 38.191630856951846,77.014331 38.70398140796884,77.028331 39.21633195898584,77.038331 39.72868251000284,77.044331 40.241033061019834,77.046331 40.753383612036835,77.044331 41.265734163053835,77.038331 41.77808471407083,77.028331 42.29043526508782,77.014331 42.80278581610482,76.996331 43.31513636712182,76.97433099999999 43.82748691813882,76.948331 44.33983746915581,76.918331 44.85218802017281,76.884331 45.36453857118981,76.84633099999999 45.876889122206805,76.804331 46.389239673223805,76.758331 46.9015902242408,76.708331 47.4139407752578,76.654331 47.92629132627479,76.59633099999999 48.43864187729179,76.534331 48.950992428308794,76.46833099999999 49.46334297932579,76.398331 49.97569353034278,76.324331 50.48804408135978,76.246331 50.48804408135978,79.246331 49.97569353034278,79.324331 49.46334297932579,79.398331 48.950992428308794,79.46833099999999 48.43864187729179,79.534331 47.92629132627479,79.59633099999999 47.4139407752578,79.654331 46.9015902242408,79.708331 46.389239673223805,79.758331 45.876889122206805,79.80433099999999 45.36453857118981,79.84633099999999 44.85218802017281,79.884331 44.33983746915581,79.918331 43.82748691813882,79.948331 43.31513636712182,79.97433099999999 42.80278581610482,79.996331 42.29043526508782,80.014331 41.77808471407083,80.028331 41.265734163053835,80.038331 40.753383612036835,80.044331 40.241033061019834,80.046331 39.72868251000284,80.044331 39.21633195898584,80.038331 38.70398140796884,80.028331 38.191630856951846,80.014331 37.67928030593485,79.996331 37.16692975491785,79.97433099999999 36.65457920390085,79.948331 36.14222865288386,79.918331 35.629878101866865,79.884331 35.117527550849864,79.84633099999999 34.605176999832864,79.80433099999999 34.09282644881587,79.758331 33.58047589779887,79.708331 33.06812534678187,79.654331 32.555774795764876,79.59633099999999 32.04342424474788,79.534331 31.53107369373088,79.46833099999999 31.018723142713885,79.398331 30.506372591696888,79.324331 29.99402204067989,79.246331" /><polygon points="56.48804408135978,85.446331 58.188044081359784,85.446331 58.42740188323112,85.23403938486186 58.6656328736685,85.02085506700874 58.90161024123795,84.80588534372562 59.134207174505505,84.58823751229751 59.36229686203721,84.36701887000942 59.5847524923991,84.14133671414636 59.800447254157206,83.91029834199331 60.008254335877574,83.6730110508353 60.20717897108916,83.42868581488423 60.397480531606064,83.17751831235313 60.58011145373288,82.92024839061474 60.75603147514295,82.65762162981238 60.92620033350957,82.39038361008932 61.09157776650608,82.11927991158883 61.253123511805796,81.84505611445422 61.41179730708204,81.56845779882877 61.568558890008134,81.29023054485577 61.724367998257414,81.01111993267851 61.88018436950318,80.73187154244027 62.03696774141878,80.45323095428434 62.19567785167751,80.17594374835402 62.357274271780284,79.90075537707914 62.5224501213097,79.6282065086847 62.69109117585766,79.3582173193449 62.86293088119194,79.09059091067094 63.03770268308038,78.82513038427399 63.215140027290765,78.56163884176524 63.3949763595909,78.29991938475587 63.5769451257486,78.03977511485704 63.760779771531666,77.78100913367996 63.9462137427079,77.52342454283578 64.13298048504511,77.26682444393572 64.32081344431109,77.01101193859091 64.50944606627367,76.75579012841257 64.69861179670062,76.50096211501187 64.8880440813598,76.246331 65.8880440813598,76.746331 61.88804408135979,88.446331 62.48804408135978,142.246331 56.48804408135978,142.246331" /><polygon points="71.88804408135978,76.246331 83.88804408135978,76.246331 83.88804408135978,85.966331 77.88804408135978,89.746331 71.88804408135978,85.966331" /></g><g fill="none" id="PIQUETES" stroke="#00b0b0" stroke-width="0.08"><line x1="21.490390163667435" x2="21.587019570583173" y1="15.661440272026473" y2="16.3003946974115" /><line x1="21.957704776185587" x2="21.587019570583173" y1="15.771062591501144" y2="16.3003946974115" /><line x1="28.789497258805653" x2="28.143278342289246" y1="45.548642336915705" y2="45.54758785298586" /><line x1="28.610502741194345" x2="28.143278342289246" y1="45.9940196630843" y2="45.54758785298586" /><line x1="43.22107900894309" x2="43.5112250677247" y1="4.266737058977733" y2="4.844158278343196" /><line x1="43.69934083161765" x2="43.5112250677247" y1="4.225924941022267" y2="4.844158278343196" /><line x1="72.69937596575159" x2="72.4102347580954" y1="14.22634093512601" y2="13.648415886321992" /><line x1="72.22104387480917" x2="72.4102347580954" y1="14.266321064873988" y2="13.648415886321992" /><line x1="111.25943135466645" x2="111.31921217261872" y1="6.751650190368546" y2="7.3950989092303985" /><line x1="111.71968035193731" x2="111.31921217261872" y1="6.88792513491508" y2="7.3950989092303985" /><line x1="95.21151033819075" x2="95.61563490619041" y1="6.58866110443631" y2="7.092926246538248" /><line x1="95.6707620411575" x2="95.61563490619041" y1="6.449062131223286" y2="7.092926246538248" /><line x1="93.93145556785039" x2="94.36190409395412" y1="7.457334700021965" y2="7.939324395321693" /><line x1="94.38260667525812" x2="94.36190409395412" y1="7.293436322102075" y2="7.939324395321693" /></g><g fill="none" id="TEXTOS" stroke="#000000" stroke-width="0.08"><text fill="#000000" font-family="sans-serif" font-size="0.9" stroke="none" text-anchor="middle" x="15.882163558247216" y="37.91991821828227">DELANTERO</text><text fill="#000000" font-family="sans-serif" font-size="0.6" stroke="none" text-anchor="middle" x="15.882163558247216" y="39.31991821828227">Pieza N.01</text><text fill="#000000" font-family="sans-serif" font-size="0.6" stroke="none" text-anchor="middle" x="15.882163558247216" y="40.71991821828227">Talla: XS</text><text fill="#000000" font-family="sans-serif" font-size="0.6" stroke="none" text-anchor="middle" x="15.882163558247216" y="42.119918218282265">Cortar: 2  (par: izq + der)</text><text fill="#000000" font-family="sans-serif" font-size="0.9" stroke="none" text-anchor="middle" x="45.91213468439846" y="29.379512846323532">ESPALDA</text><text fill="#000000" font-family="sans-serif" font-size="0.6" stroke="none" text-anchor="middle" x="45.91213468439846" y="30.77951284632353">Pieza N.02</text><text fill="#000000" font-family="sans-serif" font-size="0.6" stroke="none" text-anchor="middle" x="45.91213468439846" y="32.17951284632353">Talla: XS</text><text fill="#000000" font-family="sans-serif" font-size="0.6" stroke="none" text-anchor="middle" x="45.91213468439846" y="33.579512846323524">Cortar: 1  (al doblez)</text><text fill="#000000" font-family="sans-serif" font-size="0.6" stroke="none" text-anchor="middle" x="45.91213468439846" y="34.97951284632353">AL DOBLEZ</text><text fill="#000000" font-family="sans-serif" font-size="0.9" stroke="none" text-anchor="middle" x="72.11469054527578" y="6.512452342054403">CANESU</text><text fill="#000000" font-family="sans-serif" font-size="0.6" stroke="none" text-anchor="middle" x="72.11469054527578" y="7.912452342054403">Pieza N.03</text><text fill="#000000" font-family="sans-serif" font-size="0.6" stroke="none" text-anchor="middle" x="72.11469054527578" y="9.312452342054403">Talla: XS</text><text fill="#000000" font-family="sans-serif" font-size="0.6" stroke="none" text-anchor="middle" x="72.11469054527578" y="10.712452342054402">Cortar: 2  (al doblez x2 (exterior+interior))</text><text fill="#000000" font-family="sans-serif" font-size="0.6" stroke="none" text-anchor="middle" x="72.11469054527578" y="12.112452342054402">AL DOBLEZ</text><text fill="#000000" font-family="sans-serif" font-size="0.9" stroke="none" text-anchor="middle" x="103.615867775658" y="30.712035082869196">MANGA</text><text fill="#000000" font-family="sans-serif" font-size="0.6" stroke="none" text-anchor="middle" x="103.615867775658" y="32.1120350828692">Pieza N.04</text><text fill="#000000" font-family="sans-serif" font-size="0.6" stroke="none" text-anchor="middle" x="103.615867775658" y="33.5120350828692">Talla: XS</text><text fill="#000000" font-family="sans-serif" font-size="0.6" stroke="none" text-anchor="middle" x="103.615867775658" y="34.912035082869195">Cortar: 2  (par: izq + der)</text><text fill="#000000" font-family="sans-serif" font-size="0.9" stroke="none" text-anchor="middle" x="136.59447115488496" y="7.546331000000002">PUNO</text><text fill="#000000" font-family="sans-serif" font-size="0.6" stroke="none" text-anchor="middle" x="136.59447115488496" y="8.946331">Pieza N.05</text><text fill="#000000" font-family="sans-serif" font-size="0.6" stroke="none" text-anchor="middle" x="136.59447115488496" y="10.346331000000001">Talla: XS</text><text fill="#000000" font-family="sans-serif" font-size="0.6" stroke="none" text-anchor="middle" x="136.59447115488496" y="11.746331000000001">Cortar: 4  (4 (2 tela + 2 entretela))</text><text fill="#000000" font-family="sans-serif" font-size="0.9" stroke="none" text-anchor="middle" x="159.59447115488496" y="3.0463309999999986">TAPETA MANGA</text><text fill="#000000" font-family="sans-serif" font-size="0.6" stroke="none" text-anchor="middle" x="159.59447115488496" y="4.446330999999999">Pieza N.06</text><text fill="#000000" font-family="sans-serif" font-size="0.6" stroke="none" text-anchor="middle" x="159.59447115488496" y="5.846330999999998">Talla: XS</text><text fill="#000000" font-family="sans-serif" font-size="0.6" stroke="none" text-anchor="middle" x="159.59447115488496" y="7.246330999999998">Cortar: 2  (par)</text><text fill="#000000" font-family="sans-serif" font-size="0.9" stroke="none" text-anchor="middle" x="13.70010475715607" y="75.58579691669101">CUELLO</text><text fill="#000000" font-family="sans-serif" font-size="0.6" stroke="none" text-anchor="middle" x="13.70010475715607" y="76.985796916691">Pieza N.07</text><text fill="#000000" font-family="sans-serif" font-size="0.6" stroke="none" text-anchor="middle" x="13.70010475715607" y="78.385796916691">Talla: XS</text><text fill="#000000" font-family="sans-serif" font-size="0.6" stroke="none" text-anchor="middle" x="13.70010475715607" y="79.78579691669101">Cortar: 2  (al doblez x2 (+ entretela))</text><text fill="#000000" font-family="sans-serif" font-size="0.6" stroke="none" text-anchor="middle" x="13.70010475715607" y="81.185796916691">AL DOBLEZ</text><text fill="#000000" font-family="sans-serif" font-size="0.9" stroke="none" text-anchor="middle" x="40.241033061019834" y="74.67933099999999">PIE DE CUELLO</text><text fill="#000000" font-family="sans-serif" font-size="0.6" stroke="none" text-anchor="middle" x="40.241033061019834" y="76.079331">Pieza N.08</text><text fill="#000000" font-family="sans-serif" font-size="0.6" stroke="none" text-anchor="middle" x="40.241033061019834" y="77.479331">Talla: XS</text><text fill="#000000" font-family="sans-serif" font-size="0.6" stroke="none" text-anchor="middle" x="40.241033061019834" y="78.879331">Cortar: 2  (al doblez x2 (+ entretela))</text><text fill="#000000" font-family="sans-serif" font-size="0.6" stroke="none" text-anchor="middle" x="40.241033061019834" y="80.279331">AL DOBLEZ</text><text fill="#000000" font-family="sans-serif" font-size="0.9" stroke="none" text-anchor="middle" x="59.58113571406313" y="109.23884499013124">VISTA DELANTERA</text><text fill="#000000" font-family="sans-serif" font-size="0.6" stroke="none" text-anchor="middle" x="59.58113571406313" y="110.63884499013125">Pieza N.09</text><text fill="#000000" font-family="sans-serif" font-size="0.6" stroke="none" text-anchor="middle" x="59.58113571406313" y="112.03884499013124">Talla: XS</text><text fill="#000000" font-family="sans-serif" font-size="0.6" stroke="none" text-anchor="middle" x="59.58113571406313" y="113.43884499013124">Cortar: 2  (par: izq + der)</text><text fill="#000000" font-family="sans-serif" font-size="0.9" stroke="none" text-anchor="middle" x="77.88804408135978" y="79.40261006976743">BOLSILLO</text><text fill="#000000" font-family="sans-serif" font-size="0.6" stroke="none" text-anchor="middle" x="77.88804408135978" y="80.80261006976744">Pieza N.10</text><text fill="#000000" font-family="sans-serif" font-size="0.6" stroke="none" text-anchor="middle" x="77.88804408135978" y="82.20261006976745">Talla: XS</text><text fill="#000000" font-family="sans-serif" font-size="0.6" stroke="none" text-anchor="middle" x="77.88804408135978" y="83.60261006976744">Cortar: 1  (1 (opcional))</text></g><g fill="none" id="CENTROS" stroke="#0050ff" stroke-width="0.08"><circle cx="18.35" cy="28.746331" fill="#0050ff" r="0.15" /><circle cx="107.64315612079442" cy="50.746331" fill="#0050ff" r="0.15" /></g><g fill="none" id="HILO" stroke="#c0a000" stroke-width="0.08"><line x1="17.2" x2="17.2" y1="16.446331" y2="67.246331" /><line x1="17.2" x2="17.667302010770378" y1="67.246331" y2="66.14105780719655" /><line x1="17.2" x2="16.732697989229617" y1="67.246331" y2="66.14105780719655" /><line x1="17.2" x2="16.73269798922962" y1="16.446331" y2="17.55160419280346" /><line x1="17.2" x2="17.667302010770378" y1="16.446331" y2="17.55160419280346" /><line x1="35.2" x2="35.2" y1="7.246331" y2="57.246331" /><line x1="35.2" x2="35.667302010770385" y1="57.246331" y2="56.14105780719654" /><line x1="35.2" x2="34.73269798922962" y1="57.246331" y2="56.14105780719654" /><line x1="35.2" x2="34.73269798922962" y1="7.246331" y2="8.351604192803462" /><line x1="35.2" x2="35.667302010770385" y1="7.246331" y2="8.351604192803462" /><line x1="67.84" x2="67.84" y1="5.246331" y2="13.746331" /><line x1="67.84" x2="68.30730201077039" y1="13.746331" y2="12.641057807196537" /><line x1="67.84" x2="67.37269798922962" y1="13.746331" y2="12.641057807196537" /><line x1="67.84" x2="67.37269798922962" y1="5.246331" y2="6.351604192803462" /><line x1="67.84" x2="68.30730201077039" y1="5.246331" y2="6.351604192803462" /><line x1="103.65938444276424" x2="103.65938444276424" y1="8.116331" y2="60.746331" /><line x1="103.65938444276424" x2="104.12668645353462" y1="60.746331" y2="59.64105780719654" /><line x1="103.65938444276424" x2="103.19208243199385" y1="60.746331" y2="59.64105780719654" /><line x1="103.65938444276424" x2="103.19208243199385" y1="8.116331" y2="9.221604192803463" /><line x1="103.65938444276424" x2="104.12668645353462" y1="8.116331" y2="9.221604192803463" /><line x1="136.59447115488496" x2="136.59447115488496" y1="4.746331" y2="15.746331" /><line x1="136.59447115488496" x2="137.06177316565535" y1="15.746331" y2="14.641057807196537" /><line x1="136.59447115488496" x2="136.1271691441146" y1="15.746331" y2="14.641057807196537" /><line x1="136.59447115488496" x2="136.1271691441146" y1="4.746331" y2="5.851604192803462" /><line x1="136.59447115488496" x2="137.06177316565535" y1="4.746331" y2="5.851604192803462" /><line x1="159.59447115488496" x2="159.59447115488496" y1="4.646331" y2="6.846331" /><line x1="159.59447115488496" x2="160.06177316565532" y1="6.846331" y2="5.741057807196539" /><line x1="159.59447115488496" x2="159.1271691441146" y1="6.846331" y2="5.741057807196539" /><line x1="159.59447115488496" x2="159.1271691441146" y1="4.646331" y2="5.7516041928034625" /><line x1="159.59447115488496" x2="160.06177316565532" y1="4.646331" y2="5.7516041928034625" /><line x1="4.5" x2="22.29402204067989" y1="76.746331" y2="76.746331" /><line x1="22.29402204067989" x2="21.18874884787643" y1="76.746331" y2="76.27902898922962" /><line x1="22.29402204067989" x2="21.18874884787643" y1="76.746331" y2="77.21363301077038" /><line x1="4.5" x2="5.6052731928034625" y1="76.746331" y2="77.21363301077038" /><line x1="4.5" x2="5.6052731928034625" y1="76.746331" y2="76.27902898922962" /><line x1="30.49402204067989" x2="49.98804408135978" y1="76.646331" y2="76.646331" /><line x1="49.98804408135978" x2="48.88277088855632" y1="76.646331" y2="76.17902898922962" /><line x1="49.98804408135978" x2="48.88277088855632" y1="76.646331" y2="77.11363301077037" /><line x1="30.49402204067989" x2="31.599295233483353" y1="76.646331" y2="77.11363301077037" /><line x1="30.49402204067989" x2="31.599295233483353" y1="76.646331" y2="76.17902898922962" /><line x1="59.48804408135978" x2="59.48804408135978" y1="90.446331" y2="139.246331" /><line x1="59.48804408135978" x2="59.95534609213016" y1="139.246331" y2="138.14105780719655" /><line x1="59.48804408135978" x2="59.02074207058941" y1="139.246331" y2="138.14105780719655" /><line x1="59.48804408135978" x2="59.02074207058941" y1="90.446331" y2="91.55160419280347" /><line x1="59.48804408135978" x2="59.95534609213016" y1="90.446331" y2="91.55160419280347" /><line x1="77.88804408135978" x2="77.88804408135978" y1="77.246331" y2="85.966331" /><line x1="77.88804408135978" x2="78.35534609213016" y1="85.966331" y2="84.86105780719653" /><line x1="77.88804408135978" x2="77.4207420705894" y1="85.966331" y2="84.86105780719653" /><line x1="77.88804408135978" x2="77.4207420705894" y1="77.246331" y2="78.35160419280346" /><line x1="77.88804408135978" x2="78.35534609213016" y1="77.246331" y2="78.35160419280346" /></g><g fill="none" id="DOBLEZ" stroke="#c000c0" stroke-width="0.08"><line x1="34.7" x2="34.7" y1="4.246331" y2="60.246331" /><line x1="63.7" x2="63.7" y1="4.246331" y2="14.246331" /><line x1="4.0" x2="4.0" y1="76.246331" y2="82.746331" /><line x1="29.99402204067989" x2="29.99402204067989" y1="76.246331" y2="80.046331" /></g><g fill="none" id="BOTONES" stroke="#ff8000" stroke-width="0.08"><circle cx="5.7" cy="14.946330999999999" fill="#ff8000" r="0.55" /><circle cx="5.7" cy="23.162997666666666" fill="#ff8000" r="0.55" /><circle cx="5.7" cy="31.379664333333334" fill="#ff8000" r="0.55" /><circle cx="5.7" cy="39.59633099999999" fill="#ff8000" r="0.55" /><circle cx="5.7" cy="47.81299766666666" fill="#ff8000" r="0.55" /><circle cx="5.7" cy="56.02966433333333" fill="#ff8000" r="0.55" /><circle cx="5.7" cy="64.24633099999998" fill="#ff8000" r="0.55" /><circle cx="126.79447115488497" cy="10.246331" fill="#ff8000" r="0.55" /><circle cx="49.48804408135978" cy="77.746331" fill="#ff8000" r="0.55" /></g><g fill="none" id="OJAL" stroke="#ff40a0" stroke-width="0.08"><line x1="4.9" x2="6.5" y1="14.946330999999999" y2="14.946330999999999" /><line x1="4.9" x2="6.5" y1="23.162997666666666" y2="23.162997666666666" /><line x1="4.9" x2="6.5" y1="31.379664333333334" y2="31.379664333333334" /><line x1="4.9" x2="6.5" y1="39.59633099999999" y2="39.59633099999999" /><line x1="4.9" x2="6.5" y1="47.81299766666666" y2="47.81299766666666" /><line x1="4.9" x2="6.5" y1="56.02966433333333" y2="56.02966433333333" /><line x1="4.9" x2="6.5" y1="64.24633099999998" y2="64.24633099999998" /><line x1="146.39447115488497" x2="146.39447115488497" y1="9.446331" y2="11.046331" /></g><g fill="none" id="REFERENCIAS" stroke="#b0b0b0" stroke-width="0.08"><text fill="#000000" font-family="sans-serif" font-size="0.5" stroke="none" text-anchor="start" x="5.7" y="12.446330999999999">CF</text><text fill="#000000" font-family="sans-serif" font-size="0.5" stroke="none" text-anchor="start" x="35.0" y="32.246331">CB</text><text fill="#000000" font-family="sans-serif" font-size="0.5" stroke="none" text-anchor="start" x="136.59447115488496" y="9.446331">DOBLEZ</text><text fill="#000000" font-family="sans-serif" font-size="0.5" stroke="none" text-anchor="start" x="77.88804408135978" y="77.746331">boca</text></g></svg>