<?xml version="1.0" encoding="utf-8" ?>
<svg baseProfile="full" height="154.399713cm" version="1.1" viewBox="0 0 158.0 154.399713" width="158.0cm" xmlns="http://www.w3.org/2000/svg" xmlns:ev="http://www.w3.org/2001/xml-events" xmlns:xlink="http://www.w3.org/1999/xlink"><defs /><rect fill="#f7f3ea" height="146.399713" stroke="#333" stroke-width="0.15" width="150.0" x="4.0" y="4.0" /><text fill="#000" font-family="sans-serif" font-size="1.4" x="4.0" y="3.0">PLANO DE CORTE — ancho 150 cm — largo 1.46 m</text><polygon fill="#cfe3f7" fill-opacity="0.5" points="4.0,72.269137 12.011215,72.269137 11.401855000000001,17.629927000000002 15.628979000000001,5.265592 13.097794,4.0 12.407931000000001,4.927299 12.217832000000001,5.1833849999999995 12.027648,5.4407060000000005 11.837652,5.699464 11.64812,5.959863 11.459331,6.222108 11.271567000000001,6.4864049999999995 11.085113,6.752962 10.900256,7.021988 10.717289000000001,7.293691 10.536506,7.568282 10.358207,7.845969 10.182694,8.12696 10.010428000000001,8.411207000000001 9.842503,8.697173 9.679210000000001,8.982465999999999 9.519754,9.265857 9.363115,9.546579999999999 9.208316,9.823882 9.054422,10.097019 8.900543,10.365259 8.74583,10.627884 8.589475,10.884197 8.430707,11.13353 8.268787,11.375257 8.102999,11.608801 7.932628,11.833663 7.756079,12.050506 7.570588000000001,12.262311 7.375005,12.471808 7.169968000000001,12.679818000000001 6.956375,12.886976 6.735192,13.093945 6.507434,13.301426000000001 6.320019,13.469137 4.0,13.469137 4.0,72.269137" stroke="#1f6fb2" stroke-width="0.1" /><text fill="#0a3d62" font-family="sans-serif" font-size="1.6" text-anchor="middle" x="9.8144895" y="38.1345685">09</text><polygon fill="#cfe3f7" fill-opacity="0.5" points="16.628979,72.269137 24.640194,72.269137 24.030834000000002,17.629927000000002 28.257958000000002,5.265592 25.726773,4.0 25.036910000000002,4.927299 24.846811000000002,5.1833849999999995 24.656627,5.4407060000000005 24.466631,5.699464 24.277099,5.959863 24.08831,6.222108 23.900546000000002,6.4864049999999995 23.714092,6.752962 23.529235,7.021988 23.346268000000002,7.293691 23.165485,7.568282 22.987186,7.845969 22.811673,8.12696 22.639407000000002,8.411207000000001 22.471482,8.697173 22.308189000000002,8.982465999999999 22.148733,9.265857 21.992094,9.546579999999999 21.837295,9.823882 21.683401000000003,10.097019 21.529522,10.365259 21.374809,10.627884 21.218454,10.884197 21.059686,11.13353 20.897766,11.375257 20.731978,11.608801 20.561607000000002,11.833663 20.385058,12.050506 20.199567000000002,12.262311 20.003984000000003,12.471808 19.798947000000002,12.679818000000001 19.585354000000002,12.886976 19.364171000000002,13.093945 19.136413,13.301426000000001 18.948998000000003,13.469137 16.628979,13.469137 16.628979,72.269137" stroke="#1f6fb2" stroke-width="0.1" /><text fill="#0a3d62" font-family="sans-serif" font-size="1.6" text-anchor="middle" x="22.4434685" y="38.1345685">09</text><polygon fill="#cfe3f7" fill-opacity="0.5" points="29.257958000000002,72.246331 55.957958000000005,72.246331 55.957958000000005,26.374542 55.376173,25.700281 55.036445,25.307292 54.694155,24.912819000000002 54.348787,24.517011 53.999525000000006,24.119673000000002 53.64555300000001,23.720615000000002 53.286060000000006,23.319652 52.920248,22.916616 52.548194,22.512266 52.173205,22.108748000000002 51.80092500000001,21.707146 51.435783,21.307043 51.08207,20.908068 50.744067,20.510068 50.426002,20.113112 50.131988,19.717495999999997 49.865919000000005,19.323725 49.631351,18.932456000000002 49.431342,18.544361000000002 49.268308000000005,18.159863 49.143266,17.776631000000002 49.054528000000005,17.38675 48.998958,16.983488 48.974987999999996,16.565161 48.981348,16.131448 49.016684,15.682677 49.07942,15.219636999999999 49.167707,14.743389 49.279430000000005,14.255131 49.412249,13.75609 49.563643,13.247462 49.730953,12.730379 49.911418,12.205886 50.102205,11.674937 50.300427,11.138395000000001 50.829651,9.725179 38.338785,4.0 37.66588900000001,4.904493 37.47579,5.160579 37.285606,5.4179 37.09561,5.676658 36.906078,5.937057 36.717289,6.199302 36.529525,6.463599 36.343071,6.730156 36.158214,6.999182 35.975247,7.270885 35.794464000000005,7.545476000000001 35.616165,7.823163 35.440652,8.104154 35.268386,8.388401 35.100461,8.674367 34.937168,8.95966 34.777712,9.243051 34.621073,9.523774 34.466274,9.801076 34.312380000000005,10.074213 34.158501,10.342453 34.003788,10.605078 33.847433,10.861391 33.688665,11.110724 33.526745000000005,11.352451 33.360957,11.585995 33.190586,11.810857 33.014037,12.0277 32.828546,12.239505 32.632963000000004,12.449002 32.427926,12.657012 32.214333,12.86417 31.993150000000004,13.071139 31.765392000000002,13.27862 31.577977000000004,13.446330999999999 29.257958000000002,13.446330999999999 29.257958000000002,72.246331" stroke="#1f6fb2" stroke-width="0.1" /><text fill="#0a3d62" font-family="sans-serif" font-size="1.6" text-anchor="middle" x="42.607958" y="38.1231655">01</text><polygon fill="#cfe3f7" fill-opacity="0.5" points="56.957958000000005,72.246331 83.65795800000001,72.246331 83.65795800000001,26.374542 83.07617300000001,25.700281 82.736445,25.307292 82.39415500000001,24.912819000000002 82.048787,24.517011 81.69952500000001,24.119673000000002 81.34555300000001,23.720615000000002 80.98606000000001,23.319652 80.620248,22.916616 80.24819400000001,22.512266 79.87320500000001,22.108748000000002 79.50092500000001,21.707146 79.135783,21.307043 78.78207,20.908068 78.444067,20.510068 78.126002,20.113112 77.831988,19.717495999999997 77.56591900000001,19.323725 77.33135100000001,18.932456000000002 77.131342,18.544361000000002 76.96830800000001,18.159863 76.843266,17.776631000000002 76.75452800000001,17.38675 76.698958,16.983488 76.674988,16.565161 76.681348,16.131448 76.716684,15.682677 76.77942,15.219636999999999 76.867707,14.743389 76.97943000000001,14.255131 77.112249,13.75609 77.263643,13.247462 77.430953,12.730379 77.611418,12.205886 77.802205,11.674937 78.000427,11.138395000000001 78.529651,9.725179 66.038785,4.0 65.36588900000001,4.904493 65.17579,5.160579 64.985606,5.4179 64.79561000000001,5.676658 64.60607800000001,5.937057 64.41728900000001,6.199302 64.22952500000001,6.463599 64.043071,6.730156 63.858214000000004,6.999182 63.675247000000006,7.270885 63.49446400000001,7.545476000000001 63.316165000000005,7.823163 63.140652,8.104154 62.968386,8.388401 62.800461000000006,8.674367 62.637168,8.95966 62.477712000000004,9.243051 62.321073000000005,9.523774 62.166274,9.801076 62.01238000000001,10.074213 61.858501000000004,10.342453 61.703788,10.605078 61.547433000000005,10.861391 61.388665,11.110724 61.22674500000001,11.352451 61.060957,11.585995 60.890586000000006,11.810857 60.714037000000005,12.0277 60.528546000000006,12.239505 60.33296300000001,12.449002 60.127926,12.657012 59.914333000000006,12.86417 59.69315,13.071139 59.46539200000001,13.27862 59.27797700000001,13.446330999999999 56.957958000000005,13.446330999999999 56.957958000000005,72.246331" stroke="#1f6fb2" stroke-width="0.1" /><text fill="#0a3d62" font-family="sans-serif" font-size="1.6" text-anchor="middle" x="70.307958" y="38.1231655">01</text><polygon fill="#cfe3f7" fill-opacity="0.5" points="89.20582300000001,64.504748 114.032385,64.504748 118.58929300000001,14.338642 117.901739,13.566092 117.496198,13.115575 117.082166,12.66598 116.65764100000001,12.220474 116.222868,11.783337 115.78005200000001,11.356355 115.33018100000001,10.939055 114.87386000000001,10.530587 114.41168300000001,10.130098 113.94422800000001,9.736730999999999 113.47206500000001,9.349633 112.99575300000001,8.967952 112.515839,8.590836 112.032239,8.216959 111.542945,7.844773 111.04542500000001,7.475495 110.538521,7.111967 110.021254,6.7572589999999995 109.49258900000001,6.414497 108.95145400000001,6.0868839999999995 108.396759,5.777718999999999 107.82743300000001,5.490423 107.242472,5.228554 106.64245600000001,4.996371 106.03245700000001,4.797258 105.41833600000001,4.6288350000000005 104.802395,4.486599 104.18617700000001,4.36597 103.57109000000001,4.262503 102.95847,4.1719 102.34963900000001,4.0900099999999995 101.645635,4.0 100.92817600000001,4.053453 100.30645700000001,4.103717 99.68080900000001,4.162286 99.052366,4.2332719999999995 98.422268,4.320925 97.79170400000001,4.429641 97.16197100000001,4.563954 96.53465800000001,4.728489 95.91410200000001,4.926973 95.306207,5.1584140000000005 94.71319500000001,5.418564 94.13445000000002,5.7039539999999995 93.56913200000001,6.011285 93.01635200000001,6.337376 92.475209,6.679148 91.94481200000001,7.033607 91.42430700000001,7.397827 90.91288100000001,7.768931 90.408877,8.144757 89.90935200000001,8.525994 89.41373800000001,8.91583 88.92383500000001,9.316348000000001 88.44178300000002,9.729454 87.969778,10.157086 87.51009,10.601207 87.065081,11.063779 86.63722100000001,11.546736 86.22961500000001,12.051307 85.84781500000001,12.573406 85.49185500000002,13.102685 85.155882,13.631516 84.65795800000001,14.438191999999999 89.20582300000001,64.504748" stroke="#1f6fb2" stroke-width="0.1" /><text fill="#0a3d62" font-family="sans-serif" font-size="1.6" text-anchor="middle" x="101.6236255" y="34.252374">04</text><polygon fill="#cfe3f7" fill-opacity="0.5" points="124.13715800000001,64.504748 148.96372000000002,64.504748 153.52062800000002,14.338642 152.833074,13.566092 152.427533,13.115575 152.01350100000002,12.66598 151.588976,12.220474 151.154203,11.783337 150.711387,11.356355 150.261516,10.939055 149.80519500000003,10.530587 149.343018,10.130098 148.875563,9.736730999999999 148.4034,9.349633 147.92708800000003,8.967952 147.44717400000002,8.590836 146.96357400000002,8.216959 146.47428000000002,7.844773 145.97676,7.475495 145.46985600000002,7.111967 144.95258900000002,6.7572589999999995 144.423924,6.414497 143.882789,6.0868839999999995 143.32809400000002,5.777718999999999 142.758768,5.490423 142.173807,5.228554 141.573791,4.996371 140.963792,4.797258 140.349671,4.6288350000000005 139.73373,4.486599 139.117512,4.36597 138.50242500000002,4.262503 137.88980500000002,4.1719 137.28097400000001,4.0900099999999995 136.57697000000002,4.0 135.859511,4.053453 135.237792,4.103717 134.612144,4.162286 133.983701,4.2332719999999995 133.35360300000002,4.320925 132.723039,4.429641 132.093306,4.563954 131.46599300000003,4.728489 130.845437,4.926973 130.23754200000002,5.1584140000000005 129.64453,5.418564 129.065785,5.7039539999999995 128.50046700000001,6.011285 127.94768700000002,6.337376 127.40654400000001,6.679148 126.87614700000002,7.033607 126.35564200000002,7.397827 125.84421600000002,7.768931 125.34021200000001,8.144757 124.84068700000002,8.525994 124.34507300000001,8.91583 123.85517000000002,9.316348000000001 123.373118,9.729454 122.90111300000001,10.157086 122.44142500000001,10.601207 121.99641600000001,11.063779 121.56855600000002,11.546736 121.16095000000001,12.051307 120.77915000000002,12.573406 120.42319,13.102685 120.08721700000001,13.631516 119.58929300000001,14.438191999999999 124.13715800000001,64.504748" stroke="#1f6fb2" stroke-width="0.1" /><text fill="#0a3d62" font-family="sans-serif" font-size="1.6" text-anchor="middle" x="136.55496050000002" y="34.252374">04</text><polygon fill="#cfe3f7" fill-opacity="0.5" points="52.0,85.47377900000001 51.564493999999996,84.800843 51.289561,84.375769 51.014679,83.95027400000001 50.7398,83.52403 50.464876000000004,83.096714 50.189855,82.667998 49.914688,82.237555 49.639336,81.805076 49.364163000000005,81.370848 49.090873,80.935934 48.821886,80.500962 48.559216,80.065892 48.304832000000005,79.63069 48.060679,79.195363 47.82867,78.759958 47.610673,78.324553 47.408500000000004,77.889248 47.223893000000004,77.45415 47.058513000000005,77.019351 46.913925,76.58489900000001 46.791591,76.150728 46.692508000000004,75.71512200000001 46.616116000000005,75.274208 46.560694,74.82560000000001 46.5249,74.369161 46.483436,73.269137 28.0,73.269137 28.0,131.269137 52.0,131.269137 52.0,85.47377900000001 4.0,85.47377900000001 4.435506,84.800843 4.710439000000001,84.375769 4.985320999999999,83.95027400000001 5.260200000000001,83.52403 5.535124,83.096714 5.810144999999999,82.667998 6.085311999999998,82.237555 6.360664,81.805076 6.635836999999999,81.370848 6.909127000000002,80.935934 7.178114000000001,80.500962 7.440784000000001,80.065892 7.695167999999999,79.63069 7.939321,79.195363 8.171330000000001,78.759958 8.389327000000002,78.324553 8.5915,77.889248 8.776107,77.45415 8.941486999999999,77.019351 9.086075000000001,76.58489900000001 9.208409,76.150728 9.307492,75.71512200000001 9.383883999999998,75.274208 9.439305999999998,74.82560000000001 9.475100000000001,74.369161 9.516563999999999,73.269137 28.0,73.269137 28.0,131.269137 4.0,131.269137 4.0,85.47377900000001" stroke="#1f6fb2" stroke-width="0.1" /><text fill="#0a3d62" font-family="sans-serif" font-size="1.6" text-anchor="middle" x="28.0" y="102.269137">02</text><polygon fill="#cfe3f7" fill-opacity="0.5" points="53.0,84.541042 60.0,88.951042 67.0,84.541042 67.0,73.269137 53.0,73.269137 53.0,84.541042" stroke="#1f6fb2" stroke-width="0.1" /><text fill="#0a3d62" font-family="sans-serif" font-size="1.6" text-anchor="middle" x="60.0" y="81.1100895">10</text><polygon fill="#cfe3f7" fill-opacity="0.5" points="68.0,85.518264 68.029841,85.82124400000001 68.132547,86.159819 68.299332,86.471852 68.523786,86.745351 68.797285,86.96980500000001 69.109318,87.13659 69.447893,87.239296 69.750873,87.269137 90.249127,87.269137 90.552107,87.239296 90.890682,87.13659 91.202715,86.96980500000001 91.476214,86.745351 91.70066800000001,86.471852 91.867453,86.159819 91.970159,85.82124400000001 92.0,85.518264 92.0,75.02001 91.970159,74.71703 91.867453,74.378455 91.70066800000001,74.066422 91.476214,73.792923 91.202715,73.56846900000001 90.890682,73.401684 90.552107,73.298978 90.249127,73.269137 69.750873,73.269137 69.447893,73.298978 69.109318,73.401684 68.797285,73.56846900000001 68.523786,73.792923 68.299332,74.066422 68.132547,74.378455 68.029841,74.71703 68.0,75.02001 68.0,85.518264" stroke="#1f6fb2" stroke-width="0.1" /><text fill="#0a3d62" font-family="sans-serif" font-size="1.6" text-anchor="middle" x="80.0" y="80.269137">05</text><polygon fill="#cfe3f7" fill-opacity="0.5" points="93.0,85.518264 93.029841,85.82124400000001 93.132547,86.159819 93.299332,86.471852 93.523786,86.745351 93.797285,86.96980500000001 94.109318,87.13659 94.447893,87.239296 94.750873,87.269137 115.249127,87.269137 115.552107,87.239296 115.890682,87.13659 116.202715,86.96980500000001 116.476214,86.745351 116.70066800000001,86.471852 116.867453,86.159819 116.970159,85.82124400000001 117.0,85.518264 117.0,75.02001 116.970159,74.71703 116.867453,74.378455 116.70066800000001,74.066422 116.476214,73.792923 116.202715,73.56846900000001 115.890682,73.401684 115.552107,73.298978 115.249127,73.269137 94.750873,73.269137 94.447893,73.298978 94.109318,73.401684 93.797285,73.56846900000001 93.523786,73.792923 93.299332,74.066422 93.132547,74.378455 93.029841,74.71703 93.0,75.02001 93.0,85.518264" stroke="#1f6fb2" stroke-width="0.1" /><text fill="#0a3d62" font-family="sans-serif" font-size="1.6" text-anchor="middle" x="105.0" y="80.269137">05</text><polygon fill="#cfe3f7" fill-opacity="0.5" points="41.642962999999995,143.035627 41.642404,142.564116 41.657365,142.085555 41.686370999999994,141.600352 41.727891,141.108944 41.780338,140.611785 41.842076,140.109328 41.911421,139.602017 41.986652,139.090276 42.066011,138.574509 42.271114,137.27052 29.907363999999998,132.269137 29.263768,132.719156 29.06803,132.854753 28.874778,132.986147 28.683512,133.112557 28.493758,133.233259 28.305041,133.347591 28.116279,133.455307 27.92548,133.55696700000001 27.7316,133.653105 27.534813999999997,133.743623 27.335428,133.828361 27.133750999999997,133.907165 26.930092,133.979888 26.724762,134.046388 26.518072,134.106531 26.310330999999998,134.16019 26.101761999999997,134.207263 25.891707999999998,134.247856 25.678939999999997,134.282464 25.462964999999997,134.311581 25.243779,134.335623 25.021414,134.355015 24.795924,134.370201 24.567379,134.38164 24.335863,134.389811 24.101464999999997,134.39521 23.864278,134.398356 23.624395,134.399783 23.381909,134.400045 23.135557,134.399712 23.135557,144.399713 41.694381,144.399713 41.642962999999995,143.035627 4.628150999999999,143.035627 4.628709999999998,142.564116 4.6137489999999985,142.085555 4.584743,141.600352 4.543222999999998,141.108944 4.490776,140.611785 4.4290379999999985,140.109328 4.359693,139.602017 4.284461999999998,139.090276 4.205102999999998,138.574509 4.0,137.27052 16.36375,132.269137 17.007346,132.719156 17.203083999999997,132.854753 17.396335999999998,132.986147 17.587601999999997,133.112557 17.777355999999997,133.233259 17.966072999999998,133.347591 18.154835,133.455307 18.345633999999997,133.55696700000001 18.539513999999997,133.653105 18.7363,133.743623 18.935685999999997,133.828361 19.137363,133.907165 19.341022,133.979888 19.546352,134.046388 19.753042,134.106531 19.960783,134.16019 20.169352,134.207263 20.379406,134.247856 20.592174,134.282464 20.808149,134.311581 21.027334999999997,134.335623 21.249699999999997,134.355015 21.475189999999998,134.370201 21.703734999999998,134.38164 21.935250999999997,134.389811 22.169649,134.39521 22.406836,134.398356 22.646718999999997,134.399783 22.889204999999997,134.400045 23.135557,134.399712 23.135557,144.399713 4.576732999999997,144.399713 4.628150999999999,143.035627" stroke="#1f6fb2" stroke-width="0.1" /><text fill="#0a3d62" font-family="sans-serif" font-size="1.6" text-anchor="middle" x="23.135557" y="138.334425">03</text><polygon fill="#cfe3f7" fill-opacity="0.5" points="65.428489,139.12815 65.90845,139.217533 66.38846799999999,139.301818 66.86854,139.381004 67.348663,139.455089 67.828834,139.524072 68.30905,139.587951 68.789307,139.646724 69.26960299999999,139.700391 69.749934,139.748951 70.230296,139.792402 70.710687,139.830743 71.191103,139.863974 71.67154099999999,139.892094 72.151996,139.915101 72.632466,139.932997 73.11294699999999,139.94578 73.593435,139.95345 74.073926,139.956006 74.554417,139.95345 75.034905,139.94578 75.515386,139.932997 75.995856,139.915101 76.476311,139.892094 76.956749,139.863974 77.437165,139.830743 77.91755599999999,139.792402 78.397919,139.748951 78.878249,139.700391 79.35854499999999,139.646724 79.838802,139.587951 80.319018,139.524072 80.799189,139.455089 81.279312,139.381004 81.759384,139.301818 82.239402,139.217533 82.719363,139.12815 82.977544,139.077322 85.027498,142.493911 86.082716,142.094928 84.26872399999999,132.269137 82.802908,132.573313 82.343108,132.663834 81.883369,132.749451 81.423686,132.830166 80.964057,132.90598 80.504479,132.976895 80.044948,133.042912 79.585463,133.104033 79.126019,133.16026 78.666614,133.211593 78.207243,133.258033 77.747905,133.299582 77.288595,133.336241 76.82930999999999,133.36801 76.370046,133.39489 75.91080099999999,133.416883 75.451569,133.433987 74.99234899999999,133.446204 74.533136,133.453534 74.073926,133.455978 73.614716,133.453534 73.155503,133.446204 72.696283,133.433987 72.237051,133.416883 71.777806,133.39489 71.318542,133.36801 70.859257,133.336241 70.399947,133.299582 69.940609,133.258033 69.48123799999999,133.211593 69.021833,133.16026 68.562389,133.104033 68.102904,133.042912 67.643373,132.976895 67.183795,132.90598 66.724166,132.830166 66.264483,132.749451 65.804744,132.663834 65.344945,132.573313 64.676915,132.434688 64.676915,138.977296 64.948587,139.033671 65.428489,139.12815 63.925340999999996,139.12815 63.44538,139.217533 62.965362,139.301818 62.48529,139.381004 62.005167,139.455089 61.524996,139.524072 61.044779999999996,139.587951 60.564522999999994,139.646724 60.084227,139.700391 59.603896,139.748951 59.123534,139.792402 58.643142999999995,139.830743 58.162727,139.863974 57.682289,139.892094 57.201834,139.915101 56.721363999999994,139.932997 56.240883,139.94578 55.760394999999995,139.95345 55.279904,139.956006 54.799413,139.95345 54.318925,139.94578 53.838443999999996,139.932997 53.357974,139.915101 52.877519,139.892094 52.397081,139.863974 51.916664999999995,139.830743 51.436274,139.792402 50.955911,139.748951 50.475581,139.700391 49.995284999999996,139.646724 49.515028,139.587951 49.034811999999995,139.524072 48.554641,139.455089 48.074518,139.381004 47.594446,139.301818 47.114428,139.217533 46.634467,139.12815 46.37628599999999,139.077322 44.326331999999994,142.493911 43.271114,142.094928 45.085105999999996,132.269137 46.550922,132.573313 47.010722,132.663834 47.470461,132.749451 47.930144,132.830166 48.389773,132.90598 48.849351,132.976895 49.308882,133.042912 49.768367,133.104033 50.227810999999996,133.16026 50.687216,133.211593 51.146587,133.258033 51.605925,133.299582 52.065235,133.336241 52.524519999999995,133.36801 52.983784,133.39489 53.443028999999996,133.416883 53.902260999999996,133.433987 54.361481,133.446204 54.820693999999996,133.453534 55.279904,133.455978 55.739114,133.453534 56.198327,133.446204 56.657546999999994,133.433987 57.116778999999994,133.416883 57.576024,133.39489 58.035287999999994,133.36801 58.494572999999995,133.336241 58.953883,133.299582 59.41322099999999,133.258033 59.872592,133.211593 60.331997,133.16026 60.791441,133.104033 61.25092599999999,133.042912 61.710457,132.976895 62.170035,132.90598 62.629664,132.830166 63.089347,132.749451 63.549086,132.663834 64.00888499999999,132.573313 64.676915,132.434688 64.676915,138.977296 64.405243,139.033671 63.925340999999996,139.12815" stroke="#1f6fb2" stroke-width="0.1" /><text fill="#0a3d62" font-family="sans-serif" font-size="1.6" text-anchor="middle" x="64.676915" y="137.381524">07</text><polygon fill="#cfe3f7" fill-opacity="0.5" points="109.46227900000001,137.575176 109.982223,137.646214 110.50219000000001,137.713195 111.02217900000001,137.776119 111.54218900000001,137.83498600000001 112.062218,137.889796 112.582266,137.940547 113.10233000000001,137.987239 113.622409,138.029873 114.142503,138.068447 114.662609,138.102962 115.182727,138.133417 115.702854,138.159811 116.22299000000001,138.182146 116.743134,138.200419 117.263283,138.214632 117.78343600000001,138.224785 118.30359200000001,138.230876 118.823749,138.232907 119.343906,138.230876 119.864062,138.224785 120.38421600000001,138.214632 120.90436400000002,138.200419 121.424508,138.182146 121.94464400000001,138.159811 122.46477100000001,138.133417 122.98488900000001,138.102962 123.50499500000001,138.068447 124.02508900000001,138.029873 124.545168,137.987239 125.06523200000001,137.940547 125.58528000000001,137.889796 126.105309,137.83498600000001 126.625319,137.776119 127.145308,137.713195 127.66527500000001,137.646214 128.18521900000002,137.575176 128.705139,137.500083 130.07076,137.292182 130.07076,132.269137 128.41168,132.521715 127.90689900000001,132.594622 127.402141,132.66358400000001 126.89740800000001,132.728603 126.392696,132.789679 125.88800400000001,132.846812 125.38333300000001,132.900002 124.878679,132.949251 124.374042,132.994559 123.86942,133.035925 123.364813,133.073351 122.860218,133.106836 122.355635,133.136381 121.85106100000002,133.161987 121.346496,133.183652 120.841938,133.201379 120.33738600000001,133.215166 119.83283800000001,133.225013 119.328293,133.230922 118.823749,133.232891 118.31920500000001,133.230922 117.81466,133.225013 117.310112,133.215166 116.80556000000001,133.201379 116.30100200000001,133.183652 115.796437,133.161987 115.291863,133.136381 114.78728000000001,133.106836 114.28268500000001,133.073351 113.77807800000001,133.035925 113.27345600000001,132.994559 112.76881900000001,132.949251 112.264165,132.900002 111.759494,132.846812 111.25480200000001,132.789679 110.75009,132.728603 110.24535700000001,132.66358400000001 109.740599,132.594622 109.23581800000001,132.521715 108.576738,132.421377 108.576738,137.444421 108.94235900000001,137.500083 109.46227900000001,137.575176 107.691197,137.575176 107.17125300000001,137.646214 106.651286,137.713195 106.131297,137.776119 105.611287,137.83498600000001 105.09125800000001,137.889796 104.57121000000001,137.940547 104.051146,137.987239 103.53106700000001,138.029873 103.010973,138.068447 102.49086700000001,138.102962 101.97074900000001,138.133417 101.45062200000001,138.159811 100.930486,138.182146 100.410342,138.200419 99.89019300000001,138.214632 99.37004,138.224785 98.849884,138.230876 98.329727,138.232907 97.80957000000001,138.230876 97.28941400000001,138.224785 96.76926,138.214632 96.24911200000001,138.200419 95.72896800000001,138.182146 95.208832,138.159811 94.688705,138.133417 94.168587,138.102962 93.648481,138.068447 93.128387,138.029873 92.60830800000001,137.987239 92.088244,137.940547 91.568196,137.889796 91.048167,137.83498600000001 90.52815700000001,137.776119 90.00816800000001,137.713195 89.488201,137.646214 88.96825700000001,137.575176 88.44833700000001,137.500083 87.082716,137.292182 87.082716,132.269137 88.74179600000001,132.521715 89.246577,132.594622 89.75133500000001,132.66358400000001 90.256068,132.728603 90.76078000000001,132.789679 91.265472,132.846812 91.770143,132.900002 92.274797,132.949251 92.77943400000001,132.994559 93.284056,133.035925 93.78866300000001,133.073351 94.29325800000001,133.106836 94.797841,133.136381 95.30241500000001,133.161987 95.80698000000001,133.183652 96.31153800000001,133.201379 96.81609,133.215166 97.320638,133.225013 97.82518300000001,133.230922 98.329727,133.232891 98.834271,133.230922 99.33881600000001,133.225013 99.84336400000001,133.215166 100.34791600000001,133.201379 100.852474,133.183652 101.357039,133.161987 101.861613,133.136381 102.366196,133.106836 102.87079100000001,133.073351 103.375398,133.035925 103.88002,132.994559 104.384657,132.949251 104.889311,132.900002 105.39398200000001,132.846812 105.898674,132.789679 106.40338600000001,132.728603 106.908119,132.66358400000001 107.41287700000001,132.594622 107.917658,132.521715 108.576738,132.421377 108.576738,137.444421 108.211117,137.500083 107.691197,137.575176" stroke="#1f6fb2" stroke-width="0.1" /><text fill="#0a3d62" font-family="sans-serif" font-size="1.6" text-anchor="middle" x="108.576738" y="135.251022">08</text><polygon fill="#cfe3f7" fill-opacity="0.5" points="131.07076,135.918264 131.092915,136.143207 131.17285800000002,136.406745 131.302679,136.649623 131.47738900000002,136.862508 131.69027400000002,137.037218 131.933152,137.167039 132.19669000000002,137.246982 132.421633,137.269137 143.719887,137.269137 143.94483,137.246982 144.208368,137.167039 144.451246,137.037218 144.664131,136.862508 144.838841,136.649623 144.968662,136.406745 145.048605,136.143207 145.07076,135.918264 145.07076,133.62001 145.048605,133.395067 144.968662,133.131529 144.838841,132.888651 144.664131,132.675766 144.451246,132.501056 144.208368,132.371235 143.94483,132.291292 143.719887,132.269137 132.421633,132.269137 132.19669000000002,132.291292 131.933152,132.371235 131.69027400000002,132.501056 131.47738900000002,132.675766 131.302679,132.888651 131.17285800000002,133.131529 131.092915,133.395067 131.07076,133.62001 131.07076,135.918264" stroke="#1f6fb2" stroke-width="0.1" /><text fill="#0a3d62" font-family="sans-serif" font-size="1.6" text-anchor="middle" x="138.07076" y="134.769137">06</text><polygon fill="#cfe3f7" fill-opacity="0.5" points="4.0,149.04883999999998 4.022155,149.27378299999998 4.102098,149.537321 4.2319189999999995,149.78019899999998 4.406629,149.99308399999998 4.619514,150.167794 4.862392,150.29761499999998 5.12593,150.377558 5.350873,150.399713 16.649127,150.399713 16.87407,150.377558 17.137608,150.29761499999998 17.380485999999998,150.167794 17.593370999999998,149.99308399999998 17.768081000000002,149.78019899999998 17.897902000000002,149.537321 17.977845000000002,149.27378299999998 18.0,149.04883999999998 18.0,146.750586 17.977845000000002,146.525643 17.897902000000002,146.262105 17.768081000000002,146.019227 17.593370999999998,145.806342 17.380485999999998,145.631632 17.137608,145.501811 16.87407,145.421868 16.649127,145.399713 5.350873,145.399713 5.12593,145.421868 4.862392,145.501811 4.619514,145.631632 4.406629,145.806342 4.2319189999999995,146.019227 4.102098,146.262105 4.022155,146.525643 4.0,146.750586 4.0,149.04883999999998" stroke="#1f6fb2" stroke-width="0.1" /><text fill="#0a3d62" font-family="sans-serif" font-size="1.6" text-anchor="middle" x="11.0" y="147.899713">06</text></svg>