<?xml version="1.0" encoding="utf-8" ?>
<svg baseProfile="full" height="146.493911cm" version="1.1" viewBox="0 0 168.0 146.493911" width="168.0cm" xmlns="http://www.w3.org/2000/svg" xmlns:ev="http://www.w3.org/2001/xml-events" xmlns:xlink="http://www.w3.org/1999/xlink"><defs /><rect fill="#f7f3ea" height="138.493911" stroke="#333" stroke-width="0.15" width="160.0" x="4.0" y="4.0" /><text fill="#000" font-family="sans-serif" font-size="1.4" x="4.0" y="3.0">PLANO DE CORTE — ancho 160 cm — largo 1.38 m</text><polygon fill="#cfe3f7" fill-opacity="0.5" points="4.0,72.269137 12.011215,72.269137 11.401855000000001,17.629927000000002 15.628979000000001,5.265592 13.097794,4.0 12.407931000000001,4.927299 12.217832000000001,5.1833849999999995 12.027648,5.4407060000000005 11.837652,5.699464 11.64812,5.959863 11.459331,6.222108 11.271567000000001,6.4864049999999995 11.085113,6.752962 10.900256,7.021988 10.717289000000001,7.293691 10.536506,7.568282 10.358207,7.845969 10.182694,8.12696 10.010428000000001,8.411207000000001 9.842503,8.697173 9.679210000000001,8.982465999999999 9.519754,9.265857 9.363115,9.546579999999999 9.208316,9.823882 9.054422,10.097019 8.900543,10.365259 8.74583,10.627884 8.589475,10.884197 8.430707,11.13353 8.268787,11.375257 8.102999,11.608801 7.932628,11.833663 7.756079,12.050506 7.570588000000001,12.262311 7.375005,12.471808 7.169968000000001,12.679818000000001 6.956375,12.886976 6.735192,13.093945 6.507434,13.301426000000001 6.320019,13.469137 4.0,13.469137 4.0,72.269137" stroke="#1f6fb2" stroke-width="0.1" /><text fill="#0a3d62" font-family="sans-serif" font-size="1.6" text-anchor="middle" x="9.8144895" y="38.1345685">09</text><polygon fill="#cfe3f7" fill-opacity="0.5" points="16.628979,72.269137 24.640194,72.269137 24.030834000000002,17.629927000000002 28.257958000000002,5.265592 25.726773,4.0 25.036910000000002,4.927299 24.846811000000002,5.1833849999999995 24.656627,5.4407060000000005 24.466631,5.699464 24.277099,5.959863 24.08831,6.222108 23.900546000000002,6.4864049999999995 23.714092,6.752962 23.529235,7.021988 23.346268000000002,7.293691 23.165485,7.568282 22.987186,7.845969 22.811673,8.12696 22.639407000000002,8.411207000000001 22.471482,8.697173 22.308189000000002,8.982465999999999 22.148733,9.265857 21.992094,9.546579999999999 21.837295,9.823882 21.683401000000003,10.097019 21.529522,10.365259 21.374809,10.627884 21.218454,10.884197 21.059686,11.13353 20.897766,11.375257 20.731978,11.608801 20.561607000000002,11.833663 20.385058,12.050506 20.199567000000002,12.262311 20.003984000000003,12.471808 19.798947000000002,12.679818000000001 19.585354000000002,12.886976 19.364171000000002,13.093945 19.136413,13.301426000000001 18.948998000000003,13.469137 16.628979,13.469137 16.628979,72.269137" stroke="#1f6fb2" stroke-width="0.1" /><text fill="#0a3d62" font-family="sans-serif" font-size="1.6" text-anchor="middle" x="22.4434685" y="38.1345685">09</text><polygon fill="#cfe3f7" fill-opacity="0.5" points="29.257958000000002,72.246331 55.957958000000005,72.246331 55.957958000000005,26.374542 55.376173,25.700281 55.036445,25.307292 54.694155,24.912819000000002 54.348787,24.517011 53.999525000000006,24.119673000000002 53.64555300000001,23.720615000000002 53.286060000000006,23.319652 52.920248,22.916616 52.548194,22.512266 52.173205,22.108748000000002 51.80092500000001,21.707146 51.435783,21.307043 51.08207,20.908068 50.744067,20.510068 50.426002,20.113112 50.131988,19.717495999999997 49.865919000000005,19.323725 49.631351,18.932456000000002 49.431342,18.544361000000002 49.268308000000005,18.159863 49.143266,17.776631000000002 49.054528000000005,17.38675 48.998958,16.983488 48.974987999999996,16.565161 48.981348,16.131448 49.016684,15.682677 49.07942,15.219636999999999 49.167707,14.743389 49.279430000000005,14.255131 49.412249,13.75609 49.563643,13.247462 49.730953,12.730379 49.911418,12.205886 50.102205,11.674937 50.300427,11.138395000000001 50.829651,9.725179 38.338785,4.0 37.66588900000001,4.904493 37.47579,5.160579 37.285606,5.4179 37.09561,5.676658 36.906078,5.937057 36.717289,6.199302 36.529525,6.463599 36.343071,6.730156 36.158214,6.999182 35.975247,7.270885 35.794464000000005,7.545476000000001 35.616165,7.823163 35.440652,8.104154 35.268386,8.388401 35.100461,8.674367 34.937168,8.95966 34.777712,9.243051 34.621073,9.523774 34.466274,9.801076 34.312380000000005,10.074213 34.158501,10.342453 34.003788,10.605078 33.847433,10.861391 33.688665,11.110724 33.526745000000005,11.352451 33.360957,11.585995 33.190586,11.810857 33.014037,12.0277 32.828546,12.239505 32.632963000000004,12.449002 32.427926,12.657012 32.214333,12.86417 31.993150000000004,13.071139 31.765392000000002,13.27862 31.577977000000004,13.446330999999999 29.257958000000002,13.446330999999999 29.257958000000002,72.246331" stroke="#1f6fb2" stroke-width="0.1" /><text fill="#0a3d62" font-family="sans-serif" font-size="1.6" text-anchor="middle" x="42.607958" y="38.1231655">01</text><polygon fill="#cfe3f7" fill-opacity="0.5" points="56.957958000000005,72.246331 83.65795800000001,72.246331 83.65795800000001,26.374542 83.07617300000001,25.700281 82.736445,25.307292 82.39415500000001,24.912819000000002 82.048787,24.517011 81.69952500000001,24.119673000000002 81.34555300000001,23.720615000000002 80.98606000000001,23.319652 80.620248,22.916616 80.24819400000001,22.512266 79.87320500000001,22.108748000000002 79.50092500000001,21.707146 79.135783,21.307043 78.78207,20.908068 78.444067,20.510068 78.126002,20.113112 77.831988,19.717495999999997 77.56591900000001,19.323725 77.33135100000001,18.932456000000002 77.131342,18.544361000000002 76.96830800000001,18.159863 76.843266,17.776631000000002 76.75452800000001,17.38675 76.698958,16.983488 76.674988,16.565161 76.681348,16.131448 76.716684,15.682677 76.77942,15.219636999999999 76.867707,14.743389 76.97943000000001,14.255131 77.112249,13.75609 77.263643,13.247462 77.430953,12.730379 77.611418,12.205886 77.802205,11.674937 78.000427,11.138395000000001 78.529651,9.725179 66.038785,4.0 65.36588900000001,4.904493 65.17579,5.160579 64.985606,5.4179 64.79561000000001,5.676658 64.60607800000001,5.937057 64.41728900000001,6.199302 64.22952500000001,6.463599 64.043071,6.730156 63.858214000000004,6.999182 63.675247000000006,7.270885 63.49446400000001,7.545476000000001 63.316165000000005,7.823163 63.140652,8.104154 62.968386,8.388401 62.800461000000006,8.674367 62.637168,8.95966 62.477712000000004,9.243051 62.321073000000005,9.523774 62.166274,9.801076 62.01238000000001,10.074213 61.858501000000004,10.342453 61.703788,10.605078 61.547433000000005,10.861391 61.388665,11.110724 61.22674500000001,11.352451 61.060957,11.585995 60.890586000000006,11.810857 60.714037000000005,12.0277 60.528546000000006,12.239505 60.33296300000001,12.449002 60.127926,12.657012 59.914333000000006,12.86417 59.69315,13.071139 59.46539200000001,13.27862 59.27797700000001,13.446330999999999 56.957958000000005,13.446330999999999 56.957958000000005,72.246331" stroke="#1f6fb2" stroke-width="0.1" /><text fill="#0a3d62" font-family="sans-serif" font-size="1.6" text-anchor="middle" x="70.307958" y="38.1231655">01</text><polygon fill="#cfe3f7" fill-opacity="0.5" points="89.20582300000001,64.504748 114.032385,64.504748 118.58929300000001,14.338642 117.901739,13.566092 117.496198,13.115575 117.082166,12.66598 116.65764100000001,12.220474 116.222868,11.783337 115.78005200000001,11.356355 115.33018100000001,10.939055 114.87386000000001,10.530587 114.41168300000001,10.130098 113.94422800000001,9.736730999999999 113.47206500000001,9.349633 112.99575300000001,8.967952 112.515839,8.590836 112.032239,8.216959 111.542945,7.844773 111.04542500000001,7.475495 110.538521,7.111967 110.021254,6.7572589999999995 109.49258900000001,6.414497 108.95145400000001,6.0868839999999995 108.396759,5.777718999999999 107.82743300000001,5.490423 107.242472,5.228554 106.64245600000001,4.996371 106.03245700000001,4.797258 105.41833600000001,4.6288350000000005 104.802395,4.486599 104.18617700000001,4.36597 103.57109000000001,4.262503 102.95847,4.1719 102.34963900000001,4.0900099999999995 101.645635,4.0 100.92817600000001,4.053453 100.30645700000001,4.103717 99.68080900000001,4.162286 99.052366,4.2332719999999995 98.422268,4.320925 97.79170400000001,4.429641 97.16197100000001,4.563954 96.53465800000001,4.728489 95.91410200000001,4.926973 95.306207,5.1584140000000005 94.71319500000001,5.418564 94.13445000000002,5.7039539999999995 93.56913200000001,6.011285 93.01635200000001,6.337376 92.475209,6.679148 91.94481200000001,7.033607 91.42430700000001,7.397827 90.91288100000001,7.768931 90.408877,8.144757 89.90935200000001,8.525994 89.41373800000001,8.91583 88.92383500000001,9.316348000000001 88.44178300000002,9.729454 87.969778,10.157086 87.51009,10.601207 87.065081,11.063779 86.63722100000001,11.546736 86.22961500000001,12.051307 85.84781500000001,12.573406 85.49185500000002,13.102685 85.155882,13.631516 84.65795800000001,14.438191999999999 89.20582300000001,64.504748" stroke="#1f6fb2" stroke-width="0.1" /><text fill="#0a3d62" font-family="sans-serif" font-size="1.6" text-anchor="middle" x="101.6236255" y="34.252374">04</text><polygon fill="#cfe3f7" fill-opacity="0.5" points="124.13715800000001,64.504748 148.96372000000002,64.504748 153.52062800000002,14.338642 152.833074,13.566092 152.427533,13.115575 152.01350100000002,12.66598 151.588976,12.220474 151.154203,11.783337 150.711387,11.356355 150.261516,10.939055 149.80519500000003,10.530587 149.343018,10.130098 148.875563,9.736730999999999 148.4034,9.349633 147.92708800000003,8.967952 147.44717400000002,8.590836 146.96357400000002,8.216959 146.47428000000002,7.844773 145.97676,7.475495 145.46985600000002,7.111967 144.95258900000002,6.7572589999999995 144.423924,6.414497 143.882789,6.0868839999999995 143.32809400000002,5.777718999999999 142.758768,5.490423 142.173807,5.228554 141.573791,4.996371 140.963792,4.797258 140.349671,4.6288350000000005 139.73373,4.486599 139.117512,4.36597 138.50242500000002,4.262503 137.88980500000002,4.1719 137.28097400000001,4.0900099999999995 136.57697000000002,4.0 135.859511,4.053453 135.237792,4.103717 134.612144,4.162286 133.983701,4.2332719999999995 133.35360300000002,4.320925 132.723039,4.429641 132.093306,4.563954 131.46599300000003,4.728489 130.845437,4.926973 130.23754200000002,5.1584140000000005 129.64453,5.418564 129.065785,5.7039539999999995 128.50046700000001,6.011285 127.94768700000002,6.337376 127.40654400000001,6.679148 126.87614700000002,7.033607 126.35564200000002,7.397827 125.84421600000002,7.768931 125.34021200000001,8.144757 124.84068700000002,8.525994 124.34507300000001,8.91583 123.85517000000002,9.316348000000001 123.373118,9.729454 122.90111300000001,10.157086 122.44142500000001,10.601207 121.99641600000001,11.063779 121.56855600000002,11.546736 121.16095000000001,12.051307 120.77915000000002,12.573406 120.42319,13.102685 120.08721700000001,13.631516 119.58929300000001,14.438191999999999 124.13715800000001,64.504748" stroke="#1f6fb2" stroke-width="0.1" /><text fill="#0a3d62" font-family="sans-serif" font-size="1.6" text-anchor="middle" x="136.55496050000002" y="34.252374">04</text><polygon fill="#cfe3f7" fill-opacity="0.5" points="52.0,85.47377900000001 51.564493999999996,84.800843 51.289561,84.375769 51.014679,83.95027400000001 50.7398,83.52403 50.464876000000004,83.096714 50.189855,82.667998 49.914688,82.237555 49.639336,81.805076 49.364163000000005,81.370848 49.090873,80.935934 48.821886,80.500962 48.559216,80.065892 48.304832000000005,79.63069 48.060679,79.195363 47.82867,78.759958 47.610673,78.324553 47.408500000000004,77.889248 47.223893000000004,77.45415 47.058513000000005,77.019351 46.913925,76.58489900000001 46.791591,76.150728 46.692508000000004,75.71512200000001 46.616116000000005,75.274208 46.560694,74.82560000000001 46.5249,74.369161 46.483436,73.269137 28.0,73.269137 28.0,131.269137 52.0,131.269137 52.0,85.47377900000001 4.0,85.47377900000001 4.435506,84.800843 4.710439000000001,84.375769 4.985320999999999,83.95027400000001 5.260200000000001,83.52403 5.535124,83.096714 5.810144999999999,82.667998 6.085311999999998,82.237555 6.360664,81.805076 6.635836999999999,81.370848 6.909127000000002,80.935934 7.178114000000001,80.500962 7.440784000000001,80.065892 7.695167999999999,79.63069 7.939321,79.195363 8.171330000000001,78.759958 8.389327000000002,78.324553 8.5915,77.889248 8.776107,77.45415 8.941486999999999,77.019351 9.086075000000001,76.58489900000001 9.208409,76.150728 9.307492,75.71512200000001 9.383883999999998,75.274208 9.439305999999998,74.82560000000001 9.475100000000001,74.369161 9.516563999999999,73.269137 28.0,73.269137 28.0,131.269137 4.0,131.269137 4.0,85.47377900000001" stroke="#1f6fb2" stroke-width="0.1" /><text fill="#0a3d62" font-family="sans-serif" font-size="1.6" text-anchor="middle" x="28.0" y="102.269137">02</text><polygon fill="#cfe3f7" fill-opacity="0.5" points="53.0,84.541042 60.0,88.951042 67.0,84.541042 67.0,73.269137 53.0,73.269137 53.0,84.541042" stroke="#1f6fb2" stroke-width="0.1" /><text fill="#0a3d62" font-family="sans-serif" font-size="1.6" text-anchor="middle" x="60.0" y="81.1100895">10</text><polygon fill="#cfe3f7" fill-opacity="0.5" points="68.0,85.518264 68.029841,85.82124400000001 68.132547,86.159819 68.299332,86.471852 68.523786,86.745351 68.797285,86.96980500000001 69.109318,87.13659 69.447893,87.239296 69.750873,87.269137 90.249127,87.269137 90.552107,87.239296 90.890682,87.13659 91.202715,86.96980500000001 91.476214,86.745351 91.70066800000001,86.471852 91.867453,86.159819 91.970159,85.82124400000001 92.0,85.518264 92.0,75.02001 91.970159,74.71703 91.867453,74.378455 91.70066800000001,74.066422 91.476214,73.792923 91.202715,73.56846900000001 90.890682,73.401684 90.552107,73.298978 90.249127,73.269137 69.750873,73.269137 69.447893,73.298978 69.109318,73.401684 68.797285,73.56846900000001 68.523786,73.792923 68.299332,74.066422 68.132547,74.378455 68.029841,74.71703 68.0,75.02001 68.0,85.518264" stroke="#1f6fb2" stroke-width="0.1" /><text fill="#0a3d62" font-family="sans-serif" font-size="1.6" text-anchor="middle" x="80.0" y="80.269137">05</text><polygon fill="#cfe3f7" fill-opacity="0.5" points="93.0,85.518264 93.029841,85.82124400000001 93.132547,86.159819 93.299332,86.471852 93.523786,86.745351 93.797285,86.96980500000001 94.109318,87.13659 94.447893,87.239296 94.750873,87.269137 115.249127,87.269137 115.552107,87.239296 115.890682,87.13659 116.202715,86.96980500000001 116.476214,86.745351 116.70066800000001,86.471852 116.867453,86.159819 116.970159,85.82124400000001 117.0,85.518264 117.0,75.02001 116.970159,74.71703 116.867453,74.378455 116.70066800000001,74.066422 116.476214,73.792923 116.202715,73.56846900000001 115.890682,73.401684 115.552107,73.298978 115.249127,73.269137 94.750873,73.269137 94.447893,73.298978 94.109318,73.401684 93.797285,73.56846900000001 93.523786,73.792923 93.299332,74.066422 93.132547,74.378455 93.029841,74.71703 93.0,75.02001 93.0,85.518264" stroke="#1f6fb2" stroke-width="0.1" /><text fill="#0a3d62" font-family="sans-serif" font-size="1.6" text-anchor="middle" x="105.0" y="80.269137">05</text><polygon fill="#cfe3f7" fill-opacity="0.5" points="155.642963,84.035627 155.642404,83.564116 155.657365,83.085555 155.686371,82.600352 155.727891,82.10894400000001 155.780338,81.611785 155.842076,81.109328 155.911421,80.602017 155.986652,80.090276 156.066011,79.574509 156.271114,78.27052 143.907364,73.269137 143.263768,73.719156 143.06803,73.854753 142.874778,73.986147 142.683512,74.112557 142.493758,74.233259 142.305041,74.347591 142.116279,74.455307 141.92548,74.556967 141.73160000000001,74.653105 141.53481399999998,74.743623 141.335428,74.828361 141.133751,74.907165 140.930092,74.979888 140.724762,75.04638800000001 140.518072,75.106531 140.310331,75.16019 140.101762,75.207263 139.891708,75.247856 139.67894,75.282464 139.462965,75.311581 139.243779,75.335623 139.021414,75.355015 138.795924,75.370201 138.567379,75.38164 138.335863,75.389811 138.101465,75.39521 137.864278,75.398356 137.624395,75.399783 137.381909,75.400045 137.135557,75.399712 137.135557,85.399713 155.694381,85.399713 155.642963,84.035627 118.628151,84.035627 118.62871,83.564116 118.613749,83.085555 118.584743,82.600352 118.543223,82.10894400000001 118.490776,81.611785 118.42903799999999,81.109328 118.359693,80.602017 118.28446199999999,80.090276 118.205103,79.574509 118.0,78.27052 130.36375,73.269137 131.00734599999998,73.719156 131.203084,73.854753 131.396336,73.986147 131.587602,74.112557 131.777356,74.233259 131.966073,74.347591 132.154835,74.455307 132.345634,74.556967 132.539514,74.653105 132.7363,74.743623 132.935686,74.828361 133.137363,74.907165 133.341022,74.979888 133.546352,75.04638800000001 133.753042,75.106531 133.960783,75.16019 134.169352,75.207263 134.379406,75.247856 134.592174,75.282464 134.80814900000001,75.311581 135.027335,75.335623 135.2497,75.355015 135.47519,75.370201 135.703735,75.38164 135.935251,75.389811 136.169649,75.39521 136.406836,75.398356 136.646719,75.399783 136.889205,75.400045 137.135557,75.399712 137.135557,85.399713 118.57673299999999,85.399713 118.628151,84.035627" stroke="#1f6fb2" stroke-width="0.1" /><text fill="#0a3d62" font-family="sans-serif" font-size="1.6" text-anchor="middle" x="137.135557" y="79.334425">03</text><polygon fill="#cfe3f7" fill-opacity="0.5" points="26.157375000000002,139.12815 26.637336,139.217533 27.117354,139.301818 27.597426,139.381004 28.077549,139.455089 28.55772,139.524072 29.037936000000002,139.587951 29.518193,139.646724 29.998489,139.700391 30.47882,139.748951 30.959182,139.792402 31.439573,139.830743 31.919989,139.863974 32.400427,139.892094 32.880882,139.915101 33.361352,139.932997 33.841833,139.94578 34.322321,139.95345 34.802812,139.956006 35.283303000000004,139.95345 35.763791,139.94578 36.244272,139.932997 36.724742,139.915101 37.205197,139.892094 37.685635,139.863974 38.166050999999996,139.830743 38.646442,139.792402 39.126805000000004,139.748951 39.607135,139.700391 40.087431,139.646724 40.567688000000004,139.587951 41.047904,139.524072 41.528075,139.455089 42.008198,139.381004 42.48827,139.301818 42.968288,139.217533 43.448249000000004,139.12815 43.70643,139.077322 45.756384,142.493911 46.811602,142.094928 44.99761,132.269137 43.531794000000005,132.573313 43.071994000000004,132.663834 42.612255000000005,132.749451 42.152572,132.830166 41.692943,132.90598 41.233365,132.976895 40.773834,133.042912 40.314349,133.104033 39.854905,133.16026 39.3955,133.211593 38.936129,133.258033 38.476791,133.299582 38.017481000000004,133.336241 37.558196,133.36801 37.098932,133.39489 36.639687,133.416883 36.180455,133.433987 35.721235,133.446204 35.262022,133.453534 34.802812,133.455978 34.343602000000004,133.453534 33.884389,133.446204 33.425169,133.433987 32.965937,133.416883 32.506692,133.39489 32.047428,133.36801 31.588143000000002,133.336241 31.128833,133.299582 30.669495,133.258033 30.210124,133.211593 29.750719,133.16026 29.291275,133.104033 28.83179,133.042912 28.372259,132.976895 27.912681,132.90598 27.453052,132.830166 26.993369,132.749451 26.53363,132.663834 26.073831000000002,132.573313 25.405801,132.434688 25.405801,138.977296 25.677473,139.033671 26.157375000000002,139.12815 24.654227,139.12815 24.174266,139.217533 23.694248,139.301818 23.214176000000002,139.381004 22.734053,139.455089 22.253882,139.524072 21.773666,139.587951 21.293409,139.646724 20.813113,139.700391 20.332782,139.748951 19.852420000000002,139.792402 19.372029,139.830743 18.891613,139.863974 18.411175,139.892094 17.93072,139.915101 17.45025,139.932997 16.969769,139.94578 16.489281,139.95345 16.00879,139.956006 15.528299,139.95345 15.047811000000001,139.94578 14.56733,139.932997 14.08686,139.915101 13.606405,139.892094 13.125967000000001,139.863974 12.645551000000001,139.830743 12.16516,139.792402 11.684797,139.748951 11.204467000000001,139.700391 10.724171,139.646724 10.243914,139.587951 9.763698,139.524072 9.283527,139.455089 8.803404,139.381004 8.323332,139.301818 7.8433139999999995,139.217533 7.363353,139.12815 7.105172,139.077322 5.055218,142.493911 4.0,142.094928 5.813991999999999,132.269137 7.279807999999999,132.573313 7.7396080000000005,132.663834 8.199347,132.749451 8.659030000000001,132.830166 9.118659000000001,132.90598 9.578237,132.976895 10.037768,133.042912 10.497253,133.104033 10.956697,133.16026 11.416102,133.211593 11.875473,133.258033 12.334811,133.299582 12.794121,133.336241 13.253406,133.36801 13.712670000000001,133.39489 14.171915,133.416883 14.631147,133.433987 15.090367,133.446204 15.54958,133.453534 16.00879,133.455978 16.468,133.453534 16.927213000000002,133.446204 17.386433,133.433987 17.845665,133.416883 18.30491,133.39489 18.764174,133.36801 19.223459,133.336241 19.682769,133.299582 20.142107,133.258033 20.601478,133.211593 21.060883,133.16026 21.520327,133.104033 21.979812,133.042912 22.439343,132.976895 22.898921,132.90598 23.35855,132.830166 23.818233,132.749451 24.277972000000002,132.663834 24.737771,132.573313 25.405801,132.434688 25.405801,138.977296 25.134129,139.033671 24.654227,139.12815" stroke="#1f6fb2" stroke-width="0.1" /><text fill="#0a3d62" font-family="sans-serif" font-size="1.6" text-anchor="middle" x="25.405801" y="137.381524">07</text><polygon fill="#cfe3f7" fill-opacity="0.5" points="70.191165,137.575176 70.711109,137.646214 71.231076,137.713195 71.751065,137.776119 72.271075,137.83498600000001 72.791104,137.889796 73.31115199999999,137.940547 73.831216,137.987239 74.351295,138.029873 74.871389,138.068447 75.391495,138.102962 75.911613,138.133417 76.43174,138.159811 76.951876,138.182146 77.47202,138.200419 77.992169,138.214632 78.512322,138.224785 79.032478,138.230876 79.55263500000001,138.232907 80.07279199999999,138.230876 80.592948,138.224785 81.113102,138.214632 81.63325,138.200419 82.15339399999999,138.182146 82.67353,138.159811 83.193657,138.133417 83.713775,138.102962 84.233881,138.068447 84.753975,138.029873 85.274054,137.987239 85.794118,137.940547 86.314166,137.889796 86.834195,137.83498600000001 87.35420500000001,137.776119 87.874194,137.713195 88.394161,137.646214 88.914105,137.575176 89.43402499999999,137.500083 90.799646,137.292182 90.799646,132.269137 89.140566,132.521715 88.635785,132.594622 88.131027,132.66358400000001 87.626294,132.728603 87.12158199999999,132.789679 86.61689000000001,132.846812 86.11221900000001,132.900002 85.607565,132.949251 85.10292799999999,132.994559 84.59830600000001,133.035925 84.093699,133.073351 83.58910399999999,133.106836 83.084521,133.136381 82.579947,133.161987 82.07538199999999,133.183652 81.570824,133.201379 81.066272,133.215166 80.561724,133.225013 80.05717899999999,133.230922 79.55263500000001,133.232891 79.048091,133.230922 78.54354599999999,133.225013 78.03899799999999,133.215166 77.534446,133.201379 77.029888,133.183652 76.525323,133.161987 76.020749,133.136381 75.516166,133.106836 75.011571,133.073351 74.50696400000001,133.035925 74.002342,132.994559 73.497705,132.949251 72.99305100000001,132.900002 72.48838,132.846812 71.983688,132.789679 71.478976,132.728603 70.974243,132.66358400000001 70.469485,132.594622 69.964704,132.521715 69.305624,132.421377 69.305624,137.444421 69.671245,137.500083 70.191165,137.575176 68.420083,137.575176 67.900139,137.646214 67.380172,137.713195 66.860183,137.776119 66.340173,137.83498600000001 65.820144,137.889796 65.300096,137.940547 64.780032,137.987239 64.259953,138.029873 63.739859,138.068447 63.219753,138.102962 62.699635,138.133417 62.179508,138.159811 61.659372000000005,138.182146 61.139228,138.200419 60.619079,138.214632 60.098926000000006,138.224785 59.578770000000006,138.230876 59.058613,138.232907 58.538456000000004,138.230876 58.0183,138.224785 57.498146000000006,138.214632 56.977998,138.200419 56.457854,138.182146 55.937718000000004,138.159811 55.417591,138.133417 54.897473000000005,138.102962 54.377367,138.068447 53.857273,138.029873 53.337194000000004,137.987239 52.817130000000006,137.940547 52.297082,137.889796 51.777053,137.83498600000001 51.257043,137.776119 50.737054,137.713195 50.21708700000001,137.646214 49.697143,137.575176 49.177223,137.500083 47.811602,137.292182 47.811602,132.269137 49.470682,132.521715 49.975463000000005,132.594622 50.480221,132.66358400000001 50.984954,132.728603 51.489666,132.789679 51.994358000000005,132.846812 52.499029,132.900002 53.003683,132.949251 53.50832,132.994559 54.012942,133.035925 54.517549,133.073351 55.022144,133.106836 55.526727,133.136381 56.031301,133.161987 56.535866,133.183652 57.040424,133.201379 57.544976000000005,133.215166 58.049524000000005,133.225013 58.554069,133.230922 59.058613,133.232891 59.563157000000004,133.230922 60.067702000000004,133.225013 60.572250000000004,133.215166 61.076802,133.201379 61.581360000000004,133.183652 62.085925,133.161987 62.590499,133.136381 63.095082000000005,133.106836 63.599677,133.073351 64.104284,133.035925 64.608906,132.994559 65.11354299999999,132.949251 65.61819700000001,132.900002 66.122868,132.846812 66.62756,132.789679 67.132272,132.728603 67.637005,132.66358400000001 68.141763,132.594622 68.646544,132.521715 69.305624,132.421377 69.305624,137.444421 68.940003,137.500083 68.420083,137.575176" stroke="#1f6fb2" stroke-width="0.1" /><text fill="#0a3d62" font-family="sans-serif" font-size="1.6" text-anchor="middle" x="69.305624" y="135.251022">08</text><polygon fill="#cfe3f7" fill-opacity="0.5" points="91.799646,135.918264 91.821801,136.143207 91.901744,136.406745 92.031565,136.649623 92.20627499999999,136.862508 92.41915999999999,137.037218 92.662038,137.167039 92.92557599999999,137.246982 93.150519,137.269137 104.44877299999999,137.269137 104.673716,137.246982 104.937254,137.167039 105.180132,137.037218 105.393017,136.862508 105.56772699999999,136.649623 105.697548,136.406745 105.777491,136.143207 105.799646,135.918264 105.799646,133.62001 105.777491,133.395067 105.697548,133.131529 105.56772699999999,132.888651 105.393017,132.675766 105.180132,132.501056 104.937254,132.371235 104.673716,132.291292 104.44877299999999,132.269137 93.150519,132.269137 92.92557599999999,132.291292 92.662038,132.371235 92.41915999999999,132.501056 92.20627499999999,132.675766 92.031565,132.888651 91.901744,133.131529 91.821801,133.395067 91.799646,133.62001 91.799646,135.918264" stroke="#1f6fb2" stroke-width="0.1" /><text fill="#0a3d62" font-family="sans-serif" font-size="1.6" text-anchor="middle" x="98.799646" y="134.769137">06</text><polygon fill="#cfe3f7" fill-opacity="0.5" points="106.799646,135.918264 106.821801,136.143207 106.901744,136.406745 107.031565,136.649623 107.20627499999999,136.862508 107.41915999999999,137.037218 107.662038,137.167039 107.92557599999999,137.246982 108.150519,137.269137 119.44877299999999,137.269137 119.673716,137.246982 119.937254,137.167039 120.180132,137.037218 120.393017,136.862508 120.56772699999999,136.649623 120.697548,136.406745 120.777491,136.143207 120.799646,135.918264 120.799646,133.62001 120.777491,133.395067 120.697548,133.131529 120.56772699999999,132.888651 120.393017,132.675766 120.180132,132.501056 119.937254,132.371235 119.673716,132.291292 119.44877299999999,132.269137 108.150519,132.269137 107.92557599999999,132.291292 107.662038,132.371235 107.41915999999999,132.501056 107.20627499999999,132.675766 107.031565,132.888651 106.901744,133.131529 106.821801,133.395067 106.799646,133.62001 106.799646,135.918264" stroke="#1f6fb2" stroke-width="0.1" /><text fill="#0a3d62" font-family="sans-serif" font-size="1.6" text-anchor="middle" x="113.799646" y="134.769137">06</text></svg>