  0
SECTION
  2
HEADER
  9
$ACADVER
  1
AC1027
  9
$ACADMAINTVER
 70
105
  9
$DWGCODEPAGE
  3
ANSI_1252
  9
$LASTSAVEDBY
  1
ezdxf
  9
$REQUIREDVERSIONS
160
0
  9
$INSBASE
 10
0.0
 20
0.0
 30
0.0
  9
$EXTMIN
 10
1e+20
 20
1e+20
 30
1e+20
  9
$EXTMAX
 10
-1e+20
 20
-1e+20
 30
-1e+20
  9
$LIMMIN
 10
0.0
 20
0.0
  9
$LIMMAX
 10
420.0
 20
297.0
  9
$ORTHOMODE
 70
0
  9
$REGENMODE
 70
1
  9
$FILLMODE
 70
1
  9
$QTEXTMODE
 70
0
  9
$MIRRTEXT
 70
1
  9
$LTSCALE
 40
1.0
  9
$ATTMODE
 70
1
  9
$TEXTSIZE
 40
2.5
  9
$TRACEWID
 40
1.0
  9
$TEXTSTYLE
  7
OpenSans
  9
$CLAYER
  8
0
  9
$CELTYPE
  6
ByLayer
  9
$CECOLOR
 62
256
  9
$CELTSCALE
 40
1.0
  9
$DISPSILH
 70
0
  9
$DIMSCALE
 40
1.0
  9
$DIMASZ
 40
0.175
  9
$DIMEXO
 40
0.125
  9
$DIMDLI
 40
3.75
  9
$DIMRND
 40
0.0
  9
$DIMDLE
 40
0.0
  9
$DIMEXE
 40
0.375
  9
$DIMTP
 40
0.0
  9
$DIMTM
 40
0.0
  9
$DIMTXT
 40
0.25
  9
$DIMCEN
 40
2.5
  9
$DIMTSZ
 40
0.0
  9
$DIMTOL
 70
0
  9
$DIMLIM
 70
0
  9
$DIMTIH
 70
0
  9
$DIMTOH
 70
0
  9
$DIMSE1
 70
0
  9
$DIMSE2
 70
0
  9
$DIMTAD
 70
1
  9
$DIMZIN
 70
12
  9
$DIMBLK
  1
ARCHTICK
  9
$DIMASO
 70
1
  9
$DIMSHO
 70
1
  9
$DIMPOST
  1

  9
$DIMAPOST
  1

  9
$DIMALT
 70
0
  9
$DIMALTD
 70
3
  9
$DIMALTF
 40
0.03937007874
  9
$DIMLFAC
 40
100.0
  9
$DIMTOFL
 70
1
  9
$DIMTVP
 40
0.0
  9
$DIMTIX
 70
0
  9
$DIMSOXD
 70
0
  9
$DIMSAH
 70
0
  9
$DIMBLK1
  1

  9
$DIMBLK2
  1

  9
$DIMSTYLE
  2
EZDXF
  9
$DIMCLRD
 70
0
  9
$DIMCLRE
 70
0
  9
$DIMCLRT
 70
0
  9
$DIMTFAC
 40
0.5
  9
$DIMGAP
 40
0.1
  9
$DIMJUST
 70
0
  9
$DIMSD1
 70
0
  9
$DIMSD2
 70
0
  9
$DIMTOLJ
 70
0
  9
$DIMTZIN
 70
8
  9
$DIMALTZ
 70
0
  9
$DIMALTTZ
 70
0
  9
$DIMUPT
 70
1
  9
$DIMDEC
 70
2
  9
$DIMTDEC
 70
2
  9
$DIMALTU
 70
2
  9
$DIMALTTD
 70
3
  9
$DIMTXSTY
  7
OpenSansCondensed-Light
  9
$DIMAUNIT
 70
0
  9
$DIMADEC
 70
2
  9
$DIMALTRND
 40
0.0
  9
$DIMAZIN
 70
3
  9
$DIMDSEP
 70
46
  9
$DIMATFIT
 70
3
  9
$DIMFRAC
 70
0
  9
$DIMLDRBLK
  1

  9
$DIMLUNIT
 70
2
  9
$DIMLWD
 70
-2
  9
$DIMLWE
 70
-2
  9
$DIMTMOVE
 70
2
  9
$DIMFXL
 40
1.0
  9
$DIMFXLON
 70
0
  9
$DIMJOGANG
 40
0.785398163397
  9
$DIMTFILL
 70
0
  9
$DIMTFILLCLR
 70
0
  9
$DIMARCSYM
 70
0
  9
$DIMLTYPE
  6

  9
$DIMLTEX1
  6

  9
$DIMLTEX2
  6

  9
$DIMTXTDIRECTION
 70
0
  9
$LUNITS
 70
2
  9
$LUPREC
 70
4
  9
$SKETCHINC
 40
1.0
  9
$FILLETRAD
 40
10.0
  9
$AUNITS
 70
0
  9
$AUPREC
 70
2
  9
$MENU
  1
.
  9
$ELEVATION
 40
0.0
  9
$PELEVATION
 40
0.0
  9
$THICKNESS
 40
0.0
  9
$LIMCHECK
 70
0
  9
$CHAMFERA
 40
0.0
  9
$CHAMFERB
 40
0.0
  9
$CHAMFERC
 40
0.0
  9
$CHAMFERD
 40
0.0
  9
$SKPOLY
 70
0
  9
$TDCREATE
 40
2461235.819710648
  9
$TDUCREATE
 40
2458532.153996898
  9
$TDUPDATE
 40
2461235.819710648
  9
$TDUUPDATE
 40
2458532.1544311
  9
$TDINDWG
 40
0.0
  9
$TDUSRTIMER
 40
0.0
  9
$USRTIMER
 70
1
  9
$ANGBASE
 50
0.0
  9
$ANGDIR
 70
0
  9
$PDMODE
 70
0
  9
$PDSIZE
 40
0.0
  9
$PLINEWID
 40
0.0
  9
$SPLFRAME
 70
0
  9
$SPLINETYPE
 70
6
  9
$SPLINESEGS
 70
8
  9
$HANDSEED
  5
12E
  9
$SURFTAB1
 70
6
  9
$SURFTAB2
 70
6
  9
$SURFTYPE
 70
6
  9
$SURFU
 70
6
  9
$SURFV
 70
6
  9
$UCSBASE
  2

  9
$UCSNAME
  2

  9
$UCSORG
 10
0.0
 20
0.0
 30
0.0
  9
$UCSXDIR
 10
1.0
 20
0.0
 30
0.0
  9
$UCSYDIR
 10
0.0
 20
1.0
 30
0.0
  9
$UCSORTHOREF
  2

  9
$UCSORTHOVIEW
 70
0
  9
$UCSORGTOP
 10
0.0
 20
0.0
 30
0.0
  9
$UCSORGBOTTOM
 10
0.0
 20
0.0
 30
0.0
  9
$UCSORGLEFT
 10
0.0
 20
0.0
 30
0.0
  9
$UCSORGRIGHT
 10
0.0
 20
0.0
 30
0.0
  9
$UCSORGFRONT
 10
0.0
 20
0.0
 30
0.0
  9
$UCSORGBACK
 10
0.0
 20
0.0
 30
0.0
  9
$PUCSBASE
  2

  9
$PUCSNAME
  2

  9
$PUCSORG
 10
0.0
 20
0.0
 30
0.0
  9
$PUCSXDIR
 10
1.0
 20
0.0
 30
0.0
  9
$PUCSYDIR
 10
0.0
 20
1.0
 30
0.0
  9
$PUCSORTHOREF
  2

  9
$PUCSORTHOVIEW
 70
0
  9
$PUCSORGTOP
 10
0.0
 20
0.0
 30
0.0
  9
$PUCSORGBOTTOM
 10
0.0
 20
0.0
 30
0.0
  9
$PUCSORGLEFT
 10
0.0
 20
0.0
 30
0.0
  9
$PUCSORGRIGHT
 10
0.0
 20
0.0
 30
0.0
  9
$PUCSORGFRONT
 10
0.0
 20
0.0
 30
0.0
  9
$PUCSORGBACK
 10
0.0
 20
0.0
 30
0.0
  9
$USERI1
 70
0
  9
$USERI2
 70
0
  9
$USERI3
 70
0
  9
$USERI4
 70
0
  9
$USERI5
 70
0
  9
$USERR1
 40
0.0
  9
$USERR2
 40
0.0
  9
$USERR3
 40
0.0
  9
$USERR4
 40
0.0
  9
$USERR5
 40
0.0
  9
$WORLDVIEW
 70
1
  9
$SHADEDGE
 70
3
  9
$SHADEDIF
 70
70
  9
$TILEMODE
 70
1
  9
$MAXACTVP
 70
64
  9
$PINSBASE
 10
0.0
 20
0.0
 30
0.0
  9
$PLIMCHECK
 70
0
  9
$PEXTMIN
 10
1e+20
 20
1e+20
 30
1e+20
  9
$PEXTMAX
 10
-1e+20
 20
-1e+20
 30
-1e+20
  9
$PLIMMIN
 10
0.0
 20
0.0
  9
$PLIMMAX
 10
420.0
 20
297.0
  9
$UNITMODE
 70
0
  9
$VISRETAIN
 70
1
  9
$PLINEGEN
 70
0
  9
$PSLTSCALE
 70
1
  9
$TREEDEPTH
 70
3020
  9
$CMLSTYLE
  2
Standard
  9
$CMLJUST
 70
0
  9
$CMLSCALE
 40
20.0
  9
$PROXYGRAPHICS
 70
1
  9
$MEASUREMENT
 70
1
  9
$CELWEIGHT
370
-1
  9
$ENDCAPS
280
0
  9
$JOINSTYLE
280
0
  9
$LWDISPLAY
290
0
  9
$INSUNITS
 70
5
  9
$HYPERLINKBASE
  1

  9
$STYLESHEET
  1

  9
$XEDIT
290
1
  9
$CEPSNTYPE
380
0
  9
$PSTYLEMODE
290
1
  9
$FINGERPRINTGUID
  2
{DDE26451-87D4-4CF4-ABCA-9D5DFFC9AFB7}
  9
$VERSIONGUID
  2
{67B00EF9-0DB2-42BD-9EC6-64E20DF999DA}
  9
$EXTNAMES
290
1
  9
$PSVPSCALE
 40
0.0
  9
$OLESTARTUP
290
0
  9
$SORTENTS
280
127
  9
$INDEXCTL
280
0
  9
$HIDETEXT
280
1
  9
$XCLIPFRAME
280
1
  9
$HALOGAP
280
0
  9
$OBSCOLOR
 70
257
  9
$OBSLTYPE
280
0
  9
$INTERSECTIONDISPLAY
280
0
  9
$INTERSECTIONCOLOR
 70
257
  9
$DIMASSOC
280
2
  9
$PROJECTNAME
  1

  9
$CAMERADISPLAY
290
0
  9
$LENSLENGTH
 40
50.0
  9
$CAMERAHEIGHT
 40
0.0
  9
$STEPSPERSEC
 40
24.0
  9
$STEPSIZE
 40
100.0
  9
$3DDWFPREC
 40
2.0
  9
$PSOLWIDTH
 40
0.005
  9
$PSOLHEIGHT
 40
0.08
  9
$LOFTANG1
 40
1.570796326795
  9
$LOFTANG2
 40
1.570796326795
  9
$LOFTMAG1
 40
0.0
  9
$LOFTMAG2
 40
0.0
  9
$LOFTPARAM
 70
7
  9
$LOFTNORMALS
280
1
  9
$LATITUDE
 40
37.795
  9
$LONGITUDE
 40
-122.394
  9
$NORTHDIRECTION
 40
0.0
  9
$TIMEZONE
 70
-8000
  9
$LIGHTGLYPHDISPLAY
280
1
  9
$TILEMODELIGHTSYNCH
280
1
  9
$CMATERIAL
347
20
  9
$SOLIDHIST
280
0
  9
$SHOWHIST
280
1
  9
$DWFFRAME
280
2
  9
$DGNFRAME
280
2
  9
$REALWORLDSCALE
290
1
  9
$INTERFERECOLOR
 62
256
  9
$CSHADOW
280
0
  9
$SHADOWPLANELOCATION
 40
0.0
  0
ENDSEC
  0
SECTION
  2
CLASSES
  0
CLASS
  1
ACDBDICTIONARYWDFLT
  2
AcDbDictionaryWithDefault
  3
ObjectDBX Classes
 90
0
 91
0
280
0
281
0
  0
CLASS
  1
SUN
  2
AcDbSun
  3
SCENEOE
 90
1153
 91
0
280
0
281
0
  0
CLASS
  1
VISUALSTYLE
  2
AcDbVisualStyle
  3
ObjectDBX Classes
 90
4095
 91
0
280
0
281
0
  0
CLASS
  1
MATERIAL
  2
AcDbMaterial
  3
ObjectDBX Classes
 90
1153
 91
0
280
0
281
0
  0
CLASS
  1
SCALE
  2
AcDbScale
  3
ObjectDBX Classes
 90
1153
 91
0
280
0
281
0
  0
CLASS
  1
TABLESTYLE
  2
AcDbTableStyle
  3
ObjectDBX Classes
 90
4095
 91
0
280
0
281
0
  0
CLASS
  1
MLEADERSTYLE
  2
AcDbMLeaderStyle
  3
ACDB_MLEADERSTYLE_CLASS
 90
4095
 91
0
280
0
281
0
  0
CLASS
  1
DICTIONARYVAR
  2
AcDbDictionaryVar
  3
ObjectDBX Classes
 90
0
 91
0
280
0
281
0
  0
CLASS
  1
CELLSTYLEMAP
  2
AcDbCellStyleMap
  3
ObjectDBX Classes
 90
1152
 91
0
280
0
281
0
  0
CLASS
  1
MENTALRAYRENDERSETTINGS
  2
AcDbMentalRayRenderSettings
  3
SCENEOE
 90
1024
 91
0
280
0
281
0
  0
CLASS
  1
ACDBDETAILVIEWSTYLE
  2
AcDbDetailViewStyle
  3
ObjectDBX Classes
 90
1025
 91
0
280
0
281
0
  0
CLASS
  1
ACDBSECTIONVIEWSTYLE
  2
AcDbSectionViewStyle
  3
ObjectDBX Classes
 90
1025
 91
0
280
0
281
0
  0
CLASS
  1
RASTERVARIABLES
  2
AcDbRasterVariables
  3
ISM
 90
0
 91
0
280
0
281
0
  0
CLASS
  1
ACDBPLACEHOLDER
  2
AcDbPlaceHolder
  3
ObjectDBX Classes
 90
0
 91
0
280
0
281
0
  0
CLASS
  1
LAYOUT
  2
AcDbLayout
  3
ObjectDBX Classes
 90
0
 91
0
280
0
281
0
  0
ENDSEC
  0
SECTION
  2
TABLES
  0
TABLE
  2
VPORT
  5
8
330
0
100
AcDbSymbolTable
 70
1
  0
VPORT
  5
23
330
8
100
AcDbSymbolTableRecord
100
AcDbViewportTableRecord
  2
*Active
 70
0
 10
0.0
 20
0.0
 11
1.0
 21
1.0
 12
0.0
 22
0.0
 13
0.0
 23
0.0
 14
0.5
 24
0.5
 15
0.5
 25
0.5
 16
0.0
 26
0.0
 36
1.0
 17
0.0
 27
0.0
 37
0.0
 40
1000.0
 41
1.34
 42
50.0
 43
0.0
 44
0.0
 50
0.0
 51
0.0
 71
0
 72
1000
 73
1
 74
3
 75
0
 76
0
 77
0
 78
0
281
0
 65
0
146
0.0
  0
ENDTAB
  0
TABLE
  2
LTYPE
  5
2
330
0
100
AcDbSymbolTable
 70
21
  0
LTYPE
  5
24
330
2
100
AcDbSymbolTableRecord
100
AcDbLinetypeTableRecord
  2
ByBlock
 70
0
  3

 72
65
 73
0
 40
0.0
  0
LTYPE
  5
25
330
2
100
AcDbSymbolTableRecord
100
AcDbLinetypeTableRecord
  2
ByLayer
 70
0
  3

 72
65
 73
0
 40
0.0
  0
LTYPE
  5
26
330
2
100
AcDbSymbolTableRecord
100
AcDbLinetypeTableRecord
  2
Continuous
 70
0
  3

 72
65
 73
0
 40
0.0
  0
LTYPE
  5
2F
330
2
100
AcDbSymbolTableRecord
100
AcDbLinetypeTableRecord
  2
CENTER
 70
0
  3
Center ____ _ ____ _ ____ _ ____ _ ____ _ ____
 72
65
 73
4
 40
5.08
 49
3.175
 74
0
 49
-0.635
 74
0
 49
0.635
 74
0
 49
-0.635
 74
0
  0
LTYPE
  5
30
330
2
100
AcDbSymbolTableRecord
100
AcDbLinetypeTableRecord
  2
CENTERX2
 70
0
  3
Center (2x) ________  __  ________  __  ________
 72
65
 73
4
 40
8.89
 49
6.35
 74
0
 49
-0.635
 74
0
 49
1.27
 74
0
 49
-0.635
 74
0
  0
LTYPE
  5
31
330
2
100
AcDbSymbolTableRecord
100
AcDbLinetypeTableRecord
  2
CENTER2
 70
0
  3
Center (.5x) ____ _ ____ _ ____ _ ____ _ ____
 72
65
 73
4
 40
2.54
 49
1.587
 74
0
 49
-0.318
 74
0
 49
0.318
 74
0
 49
-0.318
 74
0
  0
LTYPE
  5
32
330
2
100
AcDbSymbolTableRecord
100
AcDbLinetypeTableRecord
  2
DASHED
 70
0
  3
Dashed __ __ __ __ __ __ __ __ __ __ __ __ __ _
 72
65
 73
2
 40
1.524
 49
1.27
 74
0
 49
-0.254
 74
0
  0
LTYPE
  5
33
330
2
100
AcDbSymbolTableRecord
100
AcDbLinetypeTableRecord
  2
DASHEDX2
 70
0
  3
Dashed (2x) ____  ____  ____  ____  ____  ____
 72
65
 73
2
 40
3.048
 49
2.54
 74
0
 49
-0.508
 74
0
  0
LTYPE
  5
34
330
2
100
AcDbSymbolTableRecord
100
AcDbLinetypeTableRecord
  2
DASHED2
 70
0
  3
Dashed (.5x) _ _ _ _ _ _ _ _ _ _ _ _ _ _
 72
65
 73
2
 40
0.762
 49
0.635
 74
0
 49
-0.127
 74
0
  0
LTYPE
  5
35
330
2
100
AcDbSymbolTableRecord
100
AcDbLinetypeTableRecord
  2
PHANTOM
 70
0
  3
Phantom ______  __  __  ______  __  __  ______
 72
65
 73
6
 40
6.35
 49
3.175
 74
0
 49
-0.635
 74
0
 49
0.635
 74
0
 49
-0.635
 74
0
 49
0.635
 74
0
 49
-0.635
 74
0
  0
LTYPE
  5
36
330
2
100
AcDbSymbolTableRecord
100
AcDbLinetypeTableRecord
  2
PHANTOMX2
 70
0
  3
Phantom (2x)____________    ____    ____    ____________
 72
65
 73
6
 40
10.795
 49
6.35
 74
0
 49
-0.635
 74
0
 49
1.27
 74
0
 49
-0.635
 74
0
 49
1.27
 74
0
 49
-0.635
 74
0
  0
LTYPE
  5
37
330
2
100
AcDbSymbolTableRecord
100
AcDbLinetypeTableRecord
  2
PHANTOM2
 70
0
  3
Phantom (.5x) ___ _ _ ___ _ _ ___ _ _ ___ _ _ ___
 72
65
 73
6
 40
3.175
 49
1.587
 74
0
 49
-0.318
 74
0
 49
0.318
 74
0
 49
-0.318
 74
0
 49
0.318
 74
0
 49
-0.318
 74
0
  0
LTYPE
  5
38
330
2
100
AcDbSymbolTableRecord
100
AcDbLinetypeTableRecord
  2
DASHDOT
 70
0
  3
Dash dot __ . __ . __ . __ . __ . __ . __ . __
 72
65
 73
4
 40
3.556
 49
2.54
 74
0
 49
-0.508
 74
0
 49
0.0
 74
0
 49
-0.508
 74
0
  0
LTYPE
  5
39
330
2
100
AcDbSymbolTableRecord
100
AcDbLinetypeTableRecord
  2
DASHDOTX2
 70
0
  3
Dash dot (2x) ____  .  ____  .  ____  .  ____
 72
65
 73
4
 40
6.096
 49
5.08
 74
0
 49
-0.508
 74
0
 49
0.0
 74
0
 49
-0.508
 74
0
  0
LTYPE
  5
3A
330
2
100
AcDbSymbolTableRecord
100
AcDbLinetypeTableRecord
  2
DASHDOT2
 70
0
  3
Dash dot (.5x) _ . _ . _ . _ . _ . _ . _ . _
 72
65
 73
4
 40
1.778
 49
1.27
 74
0
 49
-0.254
 74
0
 49
0.0
 74
0
 49
-0.254
 74
0
  0
LTYPE
  5
3B
330
2
100
AcDbSymbolTableRecord
100
AcDbLinetypeTableRecord
  2
DOT
 70
0
  3
Dot .  .  .  .  .  .  .  .  .  .  .  .  .  .  .  .
 72
65
 73
2
 40
0.508
 49
0.0
 74
0
 49
-0.508
 74
0
  0
LTYPE
  5
3C
330
2
100
AcDbSymbolTableRecord
100
AcDbLinetypeTableRecord
  2
DOTX2
 70
0
  3
Dot (2x) .    .    .    .    .    .    .    . 
 72
65
 73
2
 40
1.016
 49
0.0
 74
0
 49
-1.016
 74
0
  0
LTYPE
  5
3D
330
2
100
AcDbSymbolTableRecord
100
AcDbLinetypeTableRecord
  2
DOT2
 70
0
  3
Dot (.5) . . . . . . . . . . . . . . . . . . . 
 72
65
 73
2
 40
0.254
 49
0.0
 74
0
 49
-0.254
 74
0
  0
LTYPE
  5
3E
330
2
100
AcDbSymbolTableRecord
100
AcDbLinetypeTableRecord
  2
DIVIDE
 70
0
  3
Divide __ . . __ . . __ . . __ . . __ . . __
 72
65
 73
6
 40
4.064
 49
2.54
 74
0
 49
-0.508
 74
0
 49
0.0
 74
0
 49
-0.508
 74
0
 49
0.0
 74
0
 49
-0.508
 74
0
  0
LTYPE
  5
3F
330
2
100
AcDbSymbolTableRecord
100
AcDbLinetypeTableRecord
  2
DIVIDEX2
 70
0
  3
Divide (2x) ____  . .  ____  . .  ____  . .  ____
 72
65
 73
6
 40
6.604
 49
5.08
 74
0
 49
-0.508
 74
0
 49
0.0
 74
0
 49
-0.508
 74
0
 49
0.0
 74
0
 49
-0.508
 74
0
  0
LTYPE
  5
40
330
2
100
AcDbSymbolTableRecord
100
AcDbLinetypeTableRecord
  2
DIVIDE2
 70
0
  3
Divide(.5x) _ . _ . _ . _ . _ . _ . _ . _
 72
65
 73
6
 40
2.032
 49
1.27
 74
0
 49
-0.254
 74
0
 49
0.0
 74
0
 49
-0.254
 74
0
 49
0.0
 74
0
 49
-0.254
 74
0
  0
ENDTAB
  0
TABLE
  2
LAYER
  5
1
330
0
100
AcDbSymbolTable
 70
10
  0
LAYER
  5
27
330
1
100
AcDbSymbolTableRecord
100
AcDbLayerTableRecord
  2
0
 70
0
 62
7
  6
Continuous
370
-3
390
13
347
21
  0
LAYER
  5
28
330
1
100
AcDbSymbolTableRecord
100
AcDbLayerTableRecord
  2
Defpoints
 70
0
 62
7
  6
Continuous
290
0
370
-3
390
13
347
21
  0
LAYER
  5
8A
330
1
100
AcDbSymbolTableRecord
100
AcDbLayerTableRecord
  2
1
 70
0
 62
1
  6
Continuous
370
-3
390
13
347
21
  0
LAYER
  5
8B
330
1
100
AcDbSymbolTableRecord
100
AcDbLayerTableRecord
  2
4
 70
0
 62
4
  6
Continuous
370
-3
390
13
347
21
  0
LAYER
  5
8C
330
1
100
AcDbSymbolTableRecord
100
AcDbLayerTableRecord
  2
6
 70
0
 62
2
  6
Continuous
370
-3
390
13
347
21
  0
LAYER
  5
8D
330
1
100
AcDbSymbolTableRecord
100
AcDbLayerTableRecord
  2
7
 70
0
 62
3
  6
Continuous
370
-3
390
13
347
21
  0
LAYER
  5
8E
330
1
100
AcDbSymbolTableRecord
100
AcDbLayerTableRecord
  2
8
 70
0
 62
5
  6
Continuous
370
-3
390
13
347
21
  0
LAYER
  5
8F
330
1
100
AcDbSymbolTableRecord
100
AcDbLayerTableRecord
  2
11
 70
0
 62
8
  6
Continuous
370
-3
390
13
347
21
  0
LAYER
  5
90
330
1
100
AcDbSymbolTableRecord
100
AcDbLayerTableRecord
  2
13
 70
0
 62
7
  6
Continuous
370
-3
390
13
347
21
  0
LAYER
  5
91
330
1
100
AcDbSymbolTableRecord
100
AcDbLayerTableRecord
  2
15
 70
0
 62
6
  6
Continuous
370
-3
390
13
347
21
  0
ENDTAB
  0
TABLE
  2
STYLE
  5
5
330
0
100
AcDbSymbolTable
 70
26
  0
STYLE
  5
29
330
5
100
AcDbSymbolTableRecord
100
AcDbTextStyleTableRecord
  2
Standard
 70
0
 40
0.0
 41
1.0
 50
0.0
 71
0
 42
2.5
  3
txt
  4

  0
STYLE
  5
41
330
5
100
AcDbSymbolTableRecord
100
AcDbTextStyleTableRecord
  2
OpenSans-Light
 70
0
 40
0.0
 41
1.0
 50
0.0
 71
0
 42
2.5
  3
OpenSans-Light.ttf
  4

  0
STYLE
  5
42
330
5
100
AcDbSymbolTableRecord
100
AcDbTextStyleTableRecord
  2
OpenSans-Light-Italic
 70
0
 40
0.0
 41
1.0
 50
0.0
 71
0
 42
2.5
  3
OpenSans-LightItalic.ttf
  4

  0
STYLE
  5
43
330
5
100
AcDbSymbolTableRecord
100
AcDbTextStyleTableRecord
  2
OpenSans
 70
0
 40
0.0
 41
1.0
 50
0.0
 71
0
 42
2.5
  3
OpenSans-Regular.ttf
  4

  0
STYLE
  5
44
330
5
100
AcDbSymbolTableRecord
100
AcDbTextStyleTableRecord
  2
OpenSans-Italic
 70
0
 40
0.0
 41
1.0
 50
0.0
 71
0
 42
2.5
  3
OpenSans-Italic.ttf
  4

  0
STYLE
  5
45
330
5
100
AcDbSymbolTableRecord
100
AcDbTextStyleTableRecord
  2
OpenSans-SemiBold
 70
0
 40
0.0
 41
1.0
 50
0.0
 71
0
 42
2.5
  3
OpenSans-SemiBold.ttf
  4

  0
STYLE
  5
46
330
5
100
AcDbSymbolTableRecord
100
AcDbTextStyleTableRecord
  2
OpenSans-SemiBoldItalic
 70
0
 40
0.0
 41
1.0
 50
0.0
 71
0
 42
2.5
  3
OpenSans-SemiBoldItalic.ttf
  4

  0
STYLE
  5
47
330
5
100
AcDbSymbolTableRecord
100
AcDbTextStyleTableRecord
  2
OpenSans-Bold
 70
0
 40
0.0
 41
1.0
 50
0.0
 71
0
 42
2.5
  3
OpenSans-Bold.ttf
  4

  0
STYLE
  5
48
330
5
100
AcDbSymbolTableRecord
100
AcDbTextStyleTableRecord
  2
OpenSans-BoldItalic
 70
0
 40
0.0
 41
1.0
 50
0.0
 71
0
 42
2.5
  3
OpenSans-BoldItalic.ttf
  4

  0
STYLE
  5
49
330
5
100
AcDbSymbolTableRecord
100
AcDbTextStyleTableRecord
  2
OpenSans-ExtraBold
 70
0
 40
0.0
 41
1.0
 50
0.0
 71
0
 42
2.5
  3
OpenSans-ExtraBold.ttf
  4

  0
STYLE
  5
4A
330
5
100
AcDbSymbolTableRecord
100
AcDbTextStyleTableRecord
  2
OpenSans-ExtraBoldItalic
 70
0
 40
0.0
 41
1.0
 50
0.0
 71
0
 42
2.5
  3
OpenSans-ExtraBoldItalic.ttf
  4

  0
STYLE
  5
4B
330
5
100
AcDbSymbolTableRecord
100
AcDbTextStyleTableRecord
  2
OpenSansCondensed-Bold
 70
0
 40
0.0
 41
1.0
 50
0.0
 71
0
 42
2.5
  3
OpenSansCondensed-Bold.ttf
  4

  0
STYLE
  5
4C
330
5
100
AcDbSymbolTableRecord
100
AcDbTextStyleTableRecord
  2
OpenSansCondensed-Light
 70
0
 40
0.0
 41
1.0
 50
0.0
 71
0
 42
2.5
  3
OpenSansCondensed-Light.ttf
  4

  0
STYLE
  5
4D
330
5
100
AcDbSymbolTableRecord
100
AcDbTextStyleTableRecord
  2
OpenSansCondensed-Italic
 70
0
 40
0.0
 41
1.0
 50
0.0
 71
0
 42
2.5
  3
OpenSansCondensed-LightItalic.ttf
  4

  0
STYLE
  5
4E
330
5
100
AcDbSymbolTableRecord
100
AcDbTextStyleTableRecord
  2
LiberationSans
 70
0
 40
0.0
 41
1.0
 50
0.0
 71
0
 42
2.5
  3
LiberationSans-Regular.ttf
  4

  0
STYLE
  5
4F
330
5
100
AcDbSymbolTableRecord
100
AcDbTextStyleTableRecord
  2
LiberationSans-Bold
 70
0
 40
0.0
 41
1.0
 50
0.0
 71
0
 42
2.5
  3
LiberationSans-Bold.ttf
  4

  0
STYLE
  5
50
330
5
100
AcDbSymbolTableRecord
100
AcDbTextStyleTableRecord
  2
LiberationSans-BoldItalic
 70
0
 40
0.0
 41
1.0
 50
0.0
 71
0
 42
2.5
  3
LiberationSans-BoldItalic.ttf
  4

  0
STYLE
  5
51
330
5
100
AcDbSymbolTableRecord
100
AcDbTextStyleTableRecord
  2
LiberationSans-Italic
 70
0
 40
0.0
 41
1.0
 50
0.0
 71
0
 42
2.5
  3
LiberationSans-Italic.ttf
  4

  0
STYLE
  5
52
330
5
100
AcDbSymbolTableRecord
100
AcDbTextStyleTableRecord
  2
LiberationSerif
 70
0
 40
0.0
 41
1.0
 50
0.0
 71
0
 42
2.5
  3
LiberationSerif-Regular.ttf
  4

  0
STYLE
  5
53
330
5
100
AcDbSymbolTableRecord
100
AcDbTextStyleTableRecord
  2
LiberationSerif-Bold
 70
0
 40
0.0
 41
1.0
 50
0.0
 71
0
 42
2.5
  3
LiberationSerif-Bold.ttf
  4

  0
STYLE
  5
54
330
5
100
AcDbSymbolTableRecord
100
AcDbTextStyleTableRecord
  2
LiberationSerif-BoldItalic
 70
0
 40
0.0
 41
1.0
 50
0.0
 71
0
 42
2.5
  3
LiberationSerif-BoldItalic.ttf
  4

  0
STYLE
  5
55
330
5
100
AcDbSymbolTableRecord
100
AcDbTextStyleTableRecord
  2
LiberationSerif-Italic
 70
0
 40
0.0
 41
1.0
 50
0.0
 71
0
 42
2.5
  3
LiberationSerif-Italic.ttf
  4

  0
STYLE
  5
56
330
5
100
AcDbSymbolTableRecord
100
AcDbTextStyleTableRecord
  2
LiberationMono
 70
0
 40
0.0
 41
1.0
 50
0.0
 71
0
 42
2.5
  3
LiberationMono-Regular.ttf
  4

  0
STYLE
  5
57
330
5
100
AcDbSymbolTableRecord
100
AcDbTextStyleTableRecord
  2
LiberationMono-Bold
 70
0
 40
0.0
 41
1.0
 50
0.0
 71
0
 42
2.5
  3
LiberationMono-Bold.ttf
  4

  0
STYLE
  5
58
330
5
100
AcDbSymbolTableRecord
100
AcDbTextStyleTableRecord
  2
LiberationMono-BoldItalic
 70
0
 40
0.0
 41
1.0
 50
0.0
 71
0
 42
2.5
  3
LiberationMono-BoldItalic.ttf
  4

  0
STYLE
  5
59
330
5
100
AcDbSymbolTableRecord
100
AcDbTextStyleTableRecord
  2
LiberationMono-Italic
 70
0
 40
0.0
 41
1.0
 50
0.0
 71
0
 42
2.5
  3
LiberationMono-Italic.ttf
  4

  0
ENDTAB
  0
TABLE
  2
VIEW
  5
7
330
0
100
AcDbSymbolTable
 70
0
  0
ENDTAB
  0
TABLE
  2
UCS
  5
6
330
0
100
AcDbSymbolTable
 70
0
  0
ENDTAB
  0
TABLE
  2
APPID
  5
3
330
0
100
AcDbSymbolTable
 70
3
  0
APPID
  5
2A
330
3
100
AcDbSymbolTableRecord
100
AcDbRegAppTableRecord
  2
ACAD
 70
0
  0
APPID
  5
12B
330
3
100
AcDbSymbolTableRecord
100
AcDbRegAppTableRecord
  2
HATCHBACKGROUNDCOLOR
 70
0
  0
APPID
  5
12C
330
3
100
AcDbSymbolTableRecord
100
AcDbRegAppTableRecord
  2
EZDXF
 70
0
  0
ENDTAB
  0
TABLE
  2
DIMSTYLE
  5
4
330
0
100
AcDbSymbolTable
 70
12
100
AcDbDimStyleTable
  0
DIMSTYLE
105
2B
330
4
100
AcDbSymbolTableRecord
100
AcDbDimStyleTableRecord
  2
Standard
 70
0
 40
1.0
 41
2.5
 42
0.625
 43
3.75
 44
1.25
 45
0.0
 46
0.0
 47
0.0
 48
0.0
 49
2.5
140
2.5
141
2.5
142
0.0
143
0.03937007874
144
1.0
145
0.0
146
1.0
147
0.625
148
0.0
 69
0
 70
0
 71
0
 72
0
 73
0
 74
0
 75
0
 76
0
 77
1
 78
8
 79
3
170
0
171
3
172
1
173
0
174
0
175
0
176
0
177
0
178
0
179
2
271
2
272
2
273
2
274
3
275
0
276
0
277
2
278
44
279
0
280
0
281
0
282
0
283
0
284
8
285
0
286
0
288
0
289
3
290
0
371
-2
372
-2
  0
DIMSTYLE
105
73
330
4
100
AcDbSymbolTableRecord
100
AcDbDimStyleTableRecord
  2
EZDXF
 70
0
 40
1.0
 41
0.175
 42
0.125
 43
3.75
 44
0.375
 45
0.0
 46
0.0
 47
0.0
 48
0.0
 49
2.5
140
0.25
141
2.5
142
0.0
143
0.03937007874
144
100.0
145
0.0
146
0.5
147
0.1
148
0.0
 69
0
 70
0
 71
0
 72
0
 73
0
 74
0
 75
0
 76
0
 77
1
 78
12
 79
3
170
0
171
3
172
1
173
0
174
0
175
0
176
0
177
0
178
0
179
2
271
2
272
2
273
2
274
3
275
0
276
0
277
2
278
46
279
2
280
0
281
0
282
0
283
0
284
8
285
0
286
0
288
1
289
3
290
0
340
4C
342
74
371
-2
372
-2
  0
DIMSTYLE
105
7C
330
4
100
AcDbSymbolTableRecord
100
AcDbDimStyleTableRecord
  2
EZ_M_100_H25_CM
 70
0
 40
1.0
 41
0.25
 42
0.125
 43
3.75
 44
0.375
 45
0.0
 46
0.0
 47
0.0
 48
0.0
 49
2.5
140
0.25
141
2.5
142
0.125
143
0.03937007874
144
100.0
145
0.0
146
0.5
147
0.1
148
0.0
 69
0
 70
0
 71
0
 72
0
 73
0
 74
0
 75
0
 76
0
 77
1
 78
12
 79
3
170
0
171
3
172
1
173
0
174
0
175
0
176
0
177
0
178
0
179
2
271
2
272
2
273
2
274
3
275
0
276
0
277
2
278
46
279
2
280
0
281
0
282
0
283
0
284
8
285
0
286
0
288
1
289
3
290
0
340
4C
371
-2
372
-2
  0
DIMSTYLE
105
7D
330
4
100
AcDbSymbolTableRecord
100
AcDbDimStyleTableRecord
  2
EZ_M_50_H25_CM
 70
0
 40
1.0
 41
0.125
 42
0.0625
 43
3.75
 44
0.1875
 45
0.0
 46
0.0
 47
0.0
 48
0.0
 49
2.5
140
0.125
141
2.5
142
0.0625
143
0.03937007874
144
100.0
145
0.0
146
0.5
147
0.05
148
0.0
 69
0
 70
0
 71
0
 72
0
 73
0
 74
0
 75
0
 76
0
 77
1
 78
12
 79
3
170
0
171
3
172
1
173
0
174
0
175
0
176
0
177
0
178
0
179
2
271
2
272
2
273
2
274
3
275
0
276
0
277
2
278
46
279
2
280
0
281
0
282
0
283
0
284
8
285
0
286
0
288
1
289
3
290
0
340
4C
371
-2
372
-2
  0
DIMSTYLE
105
7E
330
4
100
AcDbSymbolTableRecord
100
AcDbDimStyleTableRecord
  2
EZ_M_25_H25_CM
 70
0
 40
1.0
 41
0.0625
 42
0.03125
 43
3.75
 44
0.09375
 45
0.0
 46
0.0
 47
0.0
 48
0.0
 49
2.5
140
0.0625
141
2.5
142
0.03125
143
0.03937007874
144
100.0
145
0.0
146
0.5
147
0.025
148
0.0
 69
0
 70
0
 71
0
 72
0
 73
0
 74
0
 75
0
 76
0
 77
1
 78
12
 79
3
170
0
171
3
172
1
173
0
174
0
175
0
176
0
177
0
178
0
179
2
271
2
272
2
273
2
274
3
275
0
276
0
277
2
278
46
279
2
280
0
281
0
282
0
283
0
284
8
285
0
286
0
288
1
289
3
290
0
340
4C
371
-2
372
-2
  0
DIMSTYLE
105
7F
330
4
100
AcDbSymbolTableRecord
100
AcDbDimStyleTableRecord
  2
EZ_M_20_H25_CM
 70
0
 40
1.0
 41
0.05
 42
0.025
 43
3.75
 44
0.07500000000000001
 45
0.0
 46
0.0
 47
0.0
 48
0.0
 49
2.5
140
0.05
141
2.5
142
0.025
143
0.03937007874
144
100.0
145
0.0
146
0.5
147
0.020000000000000004
148
0.0
 69
0
 70
0
 71
0
 72
0
 73
0
 74
0
 75
0
 76
0
 77
1
 78
12
 79
3
170
0
171
3
172
1
173
0
174
0
175
0
176
0
177
0
178
0
179
2
271
2
272
2
273
2
274
3
275
0
276
0
277
2
278
46
279
2
280
0
281
0
282
0
283
0
284
8
285
0
286
0
288
1
289
3
290
0
340
4C
371
-2
372
-2
  0
DIMSTYLE
105
80
330
4
100
AcDbSymbolTableRecord
100
AcDbDimStyleTableRecord
  2
EZ_M_10_H25_CM
 70
0
 40
1.0
 41
0.025
 42
0.0125
 43
3.75
 44
0.037500000000000006
 45
0.0
 46
0.0
 47
0.0
 48
0.0
 49
2.5
140
0.025
141
2.5
142
0.0125
143
0.03937007874
144
100.0
145
0.0
146
0.5
147
0.010000000000000002
148
0.0
 69
0
 70
0
 71
0
 72
0
 73
0
 74
0
 75
0
 76
0
 77
1
 78
12
 79
3
170
0
171
3
172
1
173
0
174
0
175
0
176
0
177
0
178
0
179
2
271
2
272
2
273
2
274
3
275
0
276
0
277
2
278
46
279
2
280
0
281
0
282
0
283
0
284
8
285
0
286
0
288
1
289
3
290
0
340
4C
371
-2
372
-2
  0
DIMSTYLE
105
81
330
4
100
AcDbSymbolTableRecord
100
AcDbDimStyleTableRecord
  2
EZ_M_5_H25_CM
 70
0
 40
1.0
 41
0.0125
 42
0.00625
 43
3.75
 44
0.018750000000000003
 45
0.0
 46
0.0
 47
0.0
 48
0.0
 49
2.5
140
0.0125
141
2.5
142
0.00625
143
0.03937007874
144
100.0
145
0.0
146
0.5
147
0.005000000000000001
148
0.0
 69
0
 70
0
 71
0
 72
0
 73
0
 74
0
 75
0
 76
0
 77
1
 78
12
 79
3
170
0
171
3
172
1
173
0
174
0
175
0
176
0
177
0
178
0
179
2
271
2
272
2
273
2
274
3
275
0
276
0
277
2
278
46
279
2
280
0
281
0
282
0
283
0
284
8
285
0
286
0
288
1
289
3
290
0
340
4C
371
-2
372
-2
  0
DIMSTYLE
105
82
330
4
100
AcDbSymbolTableRecord
100
AcDbDimStyleTableRecord
  2
EZ_M_1_H25_CM
 70
0
 40
1.0
 41
0.0025
 42
0.00125
 43
3.75
 44
0.00375
 45
0.0
 46
0.0
 47
0.0
 48
0.0
 49
2.5
140
0.0025
141
2.5
142
0.00125
143
0.03937007874
144
100.0
145
0.0
146
0.5
147
0.001
148
0.0
 69
0
 70
0
 71
0
 72
0
 73
0
 74
0
 75
0
 76
0
 77
1
 78
12
 79
3
170
0
171
3
172
1
173
0
174
0
175
0
176
0
177
0
178
0
179
2
271
2
272
2
273
2
274
3
275
0
276
0
277
2
278
46
279
2
280
0
281
0
282
0
283
0
284
8
285
0
286
0
288
1
289
3
290
0
340
4C
371
-2
372
-2
  0
DIMSTYLE
105
83
330
4
100
AcDbSymbolTableRecord
100
AcDbDimStyleTableRecord
  2
EZ_RADIUS
 70
0
 40
1.0
 41
0.25
 42
0.125
 43
3.75
 44
0.375
 45
0.0
 46
0.0
 47
0.0
 48
0.0
 49
2.5
140
0.25
141
0.0
142
0.0
143
0.03937007874
144
100.0
145
0.0
146
0.5
147
0.1
148
0.0
 69
0
 70
0
 71
0
 72
0
 73
0
 74
0
 75
0
 76
0
 77
1
 78
12
 79
3
170
0
171
3
172
0
173
0
174
0
175
0
176
0
177
0
178
0
179
2
271
2
272
2
273
2
274
3
275
0
276
0
277
2
278
46
279
1
280
0
281
0
282
0
283
0
284
8
285
0
286
0
288
1
289
3
290
0
340
4C
342
84
371
-2
372
-2
  0
DIMSTYLE
105
88
330
4
100
AcDbSymbolTableRecord
100
AcDbDimStyleTableRecord
  2
EZ_RADIUS_INSIDE
 70
0
 40
1.0
 41
0.25
 42
0.125
 43
3.75
 44
0.375
 45
0.0
 46
0.0
 47
0.0
 48
0.0
 49
2.5
140
0.25
141
0.0
142
0.0
143
0.03937007874
144
100.0
145
0.0
146
0.5
147
0.1
148
0.0
 69
0
 70
0
 71
0
 72
0
 73
0
 74
0
 75
0
 76
0
 77
0
 78
12
 79
3
170
0
171
3
172
0
173
0
174
1
175
0
176
0
177
0
178
0
179
2
271
2
272
2
273
2
274
3
275
0
276
0
277
2
278
46
279
0
280
0
281
0
282
0
283
0
284
8
285
0
286
0
288
1
289
0
290
0
340
4C
342
84
371
-2
372
-2
  0
DIMSTYLE
105
89
330
4
100
AcDbSymbolTableRecord
100
AcDbDimStyleTableRecord
  2
EZ_CURVED
 70
0
 40
1.0
 41
0.25
 42
0.125
 43
3.75
 44
0.375
 45
0.0
 46
0.0
 47
0.0
 48
0.0
 49
2.5
140
0.25
141
2.5
142
0.0
143
0.03937007874
144
100.0
145
0.0
146
0.5
147
0.1
148
0.0
 69
0
 70
0
 71
0
 72
0
 73
0
 74
0
 75
0
 76
0
 77
1
 78
12
 79
2
 90
2
170
0
171
3
172
1
173
0
174
0
175
0
176
0
177
0
178
0
179
2
271
2
272
2
273
2
274
3
275
0
276
0
277
2
278
46
279
2
280
0
281
0
282
0
283
0
284
8
285
0
286
0
288
1
289
3
290
0
340
4C
371
-2
372
-2
  0
ENDTAB
  0
TABLE
  2
BLOCK_RECORD
  5
9
330
0
100
AcDbSymbolTable
 70
15
  0
BLOCK_RECORD
  5
17
330
9
100
AcDbSymbolTableRecord
100
AcDbBlockTableRecord
  2
*Model_Space
340
1A
 70
0
280
1
281
0
  0
BLOCK_RECORD
  5
1B
330
9
100
AcDbSymbolTableRecord
100
AcDbBlockTableRecord
  2
*Paper_Space
340
1E
 70
0
280
1
281
0
  0
BLOCK_RECORD
  5
74
330
9
100
AcDbSymbolTableRecord
100
AcDbBlockTableRecord
  2
_ARCHTICK
340
0
 70
0
280
1
281
0
  0
BLOCK_RECORD
  5
78
330
9
100
AcDbSymbolTableRecord
100
AcDbBlockTableRecord
  2
_CLOSEDFILLED
340
0
 70
0
280
1
281
0
  0
BLOCK_RECORD
  5
84
330
9
100
AcDbSymbolTableRecord
100
AcDbBlockTableRecord
  2
_CLOSEDBLANK
340
0
 70
0
280
1
281
0
  0
BLOCK_RECORD
  5
92
330
9
100
AcDbSymbolTableRecord
100
AcDbBlockTableRecord
  2
P01_DELANTERO
340
0
 70
0
280
1
281
0
  0
BLOCK_RECORD
  5
A4
330
9
100
AcDbSymbolTableRecord
100
AcDbBlockTableRecord
  2
P02_ESPALDA
340
0
 70
0
280
1
281
0
  0
BLOCK_RECORD
  5
B3
330
9
100
AcDbSymbolTableRecord
100
AcDbBlockTableRecord
  2
P03_CANESU
340
0
 70
0
280
1
281
0
  0
BLOCK_RECORD
  5
C2
330
9
100
AcDbSymbolTableRecord
100
AcDbBlockTableRecord
  2
P04_MANGA
340
0
 70
0
280
1
281
0
  0
BLOCK_RECORD
  5
D5
330
9
100
AcDbSymbolTableRecord
100
AcDbBlockTableRecord
  2
P05_PUNO
340
0
 70
0
280
1
281
0
  0
BLOCK_RECORD
  5
E4
330
9
100
AcDbSymbolTableRecord
100
AcDbBlockTableRecord
  2
P06_TAPETA_MANGA
340
0
 70
0
280
1
281
0
  0
BLOCK_RECORD
  5
F2
330
9
100
AcDbSymbolTableRecord
100
AcDbBlockTableRecord
  2
P07_CUELLO
340
0
 70
0
280
1
281
0
  0
BLOCK_RECORD
  5
100
330
9
100
AcDbSymbolTableRecord
100
AcDbBlockTableRecord
  2
P08_PIE_DE_CUELLO
340
0
 70
0
280
1
281
0
  0
BLOCK_RECORD
  5
10E
330
9
100
AcDbSymbolTableRecord
100
AcDbBlockTableRecord
  2
P09_VISTA_DELANTERA
340
0
 70
0
280
1
281
0
  0
BLOCK_RECORD
  5
11C
330
9
100
AcDbSymbolTableRecord
100
AcDbBlockTableRecord
  2
P10_BOLSILLO
340
0
 70
0
280
1
281
0
  0
ENDTAB
  0
ENDSEC
  0
SECTION
  2
BLOCKS
  0
BLOCK
  5
18
330
17
100
AcDbEntity
  8
0
100
AcDbBlockBegin
  2
*Model_Space
 70
0
 10
0.0
 20
0.0
 30
0.0
  3
*Model_Space
  1

  0
ENDBLK
  5
19
330
17
100
AcDbEntity
  8
0
100
AcDbBlockEnd
  0
BLOCK
  5
1C
330
1B
100
AcDbEntity
  8
0
100
AcDbBlockBegin
  2
*Paper_Space
 70
0
 10
0.0
 20
0.0
 30
0.0
  3
*Paper_Space
  1

  0
ENDBLK
  5
1D
330
1B
100
AcDbEntity
  8
0
100
AcDbBlockEnd
  0
BLOCK
  5
75
330
74
100
AcDbEntity
  8
0
100
AcDbBlockBegin
  2
_ARCHTICK
 70
0
 10
0.0
 20
0.0
 30
0.0
  3
_ARCHTICK
  1

  0
LWPOLYLINE
  5
77
330
74
100
AcDbEntity
  8
0
  6
BYBLOCK
 62
0
100
AcDbPolyline
 90
2
 70
0
 43
0.15
 10
-0.5
 20
-0.5
 10
0.5
 20
0.5
  0
ENDBLK
  5
76
330
74
100
AcDbEntity
  8
0
100
AcDbBlockEnd
  0
BLOCK
  5
79
330
78
100
AcDbEntity
  8
0
100
AcDbBlockBegin
  2
_CLOSEDFILLED
 70
0
 10
0.0
 20
0.0
 30
0.0
  3
_CLOSEDFILLED
  1

  0
SOLID
  5
7B
330
78
100
AcDbEntity
  8
0
  6
BYBLOCK
 62
0
100
AcDbTrace
 10
-1.0
 20
0.16439898372402537
 30
0.0
 11
0.0
 21
0.0
 31
0.0
 12
-1.0
 22
-0.16439898372402537
 32
0.0
 13
-1.0
 23
-0.16439898372402537
 33
0.0
  0
ENDBLK
  5
7A
330
78
100
AcDbEntity
  8
0
100
AcDbBlockEnd
  0
BLOCK
  5
85
330
84
100
AcDbEntity
  8
0
100
AcDbBlockBegin
  2
_CLOSEDBLANK
 70
0
 10
0.0
 20
0.0
 30
0.0
  3
_CLOSEDBLANK
  1

  0
LWPOLYLINE
  5
87
330
84
100
AcDbEntity
  8
0
  6
BYBLOCK
 62
0
100
AcDbPolyline
 90
3
 70
1
 10
-1.0
 20
0.16439898372402537
 10
0.0
 20
0.0
 10
-1.0
 20
-0.16439898372402537
  0
ENDBLK
  5
86
330
84
100
AcDbEntity
  8
0
100
AcDbBlockEnd
  0
BLOCK
  5
93
330
92
100
AcDbEntity
  8
0
100
AcDbBlockBegin
  2
P01_DELANTERO
 70
0
 10
0.0
 20
0.0
 30
0.0
  3
P01_DELANTERO
  1

  0
LWPOLYLINE
  5
95
330
92
100
AcDbEntity
  8
1
100
AcDbPolyline
 90
77
 70
1
 10
-2.7
 20
-67.0
 10
24.0
 20
-67.0
 10
24.0
 20
-21.128211
 10
23.418215
 20
-20.45395
 10
23.078487
 20
-20.060961
 10
22.736197
 20
-19.666488
 10
22.390829
 20
-19.27068
 10
22.041567
 20
-18.873342
 10
21.687595
 20
-18.474284
 10
21.328102
 20
-18.073321
 10
20.96229
 20
-17.670285
 10
20.590236
 20
-17.265935
 10
20.215247
 20
-16.862417
 10
19.842967
 20
-16.460815
 10
19.477825
 20
-16.060712
 10
19.124112
 20
-15.661737
 10
18.786109
 20
-15.263737
 10
18.468044
 20
-14.866781
 10
18.17403
 20
-14.471165
 10
17.907961
 20
-14.077394
 10
17.673393
 20
-13.686125
 10
17.473384
 20
-13.29803
 10
17.31035
 20
-12.913532
 10
17.185308
 20
-12.5303
 10
17.09657
 20
-12.140419
 10
17.041
 20
-11.737157
 10
17.01703
 20
-11.31883
 10
17.02339
 20
-10.885117
 10
17.058726
 20
-10.436346
 10
17.121462
 20
-9.973306
 10
17.209749
 20
-9.497058
 10
17.321472
 20
-9.0088
 10
17.454291
 20
-8.509759
 10
17.605685
 20
-8.001131
 10
17.772995
 20
-7.484048
 10
17.95346
 20
-6.959555
 10
18.144247
 20
-6.428606
 10
18.342469
 20
-5.892064
 10
18.871693
 20
-4.478848
 10
6.380827
 20
1.246331
 10
5.707931
 20
0.341838
 10
5.517832
 20
0.085752
 10
5.327648
 20
-0.171569
 10
5.137652
 20
-0.430327
 10
4.94812
 20
-0.690726
 10
4.759331
 20
-0.952971
 10
4.571567
 20
-1.217268
 10
4.385113
 20
-1.483825
 10
4.200256
 20
-1.752851
 10
4.017289
 20
-2.024554
 10
3.836506
 20
-2.299145
 10
3.658207
 20
-2.576832
 10
3.482694
 20
-2.857823
 10
3.310428
 20
-3.14207
 10
3.142503
 20
-3.428036
 10
2.97921
 20
-3.713329
 10
2.819754
 20
-3.99672
 10
2.663115
 20
-4.277443
 10
2.508316
 20
-4.554745
 10
2.354422
 20
-4.827882
 10
2.200543
 20
-5.096122
 10
2.04583
 20
-5.358747
 10
1.889475
 20
-5.61506
 10
1.730707
 20
-5.864393
 10
1.568787
 20
-6.10612
 10
1.402999
 20
-6.339664
 10
1.232628
 20
-6.564526
 10
1.056079
 20
-6.781369
 10
0.870588
 20
-6.993174
 10
0.675005
 20
-7.202671
 10
0.469968
 20
-7.410681
 10
0.256375
 20
-7.617839
 10
0.035192
 20
-7.824808
 10
-0.192566
 20
-8.032289
 10
-0.379981
 20
-8.2
 10
-2.7
 20
-8.2
 10
-2.7
 20
-67.0
  0
LWPOLYLINE
  5
96
330
92
100
AcDbEntity
  8
8
100
AcDbPolyline
 90
77
 70
1
 10
-1.7
 20
-9.2
 10
0.0
 20
-9.2
 10
0.23935780187133787
 20
-8.987708384861866
 10
0.47758879230871243
 20
-8.77452406700874
 10
0.7135661598781604
 20
-8.559554343725619
 10
0.9461630931457188
 20
-8.341906512297513
 10
1.1742527806774241
 20
-8.120687870009425
 10
1.3967084110393118
 20
-7.89500571414636
 10
1.612403172797421
 20
-7.6639673419933185
 10
1.8202102545177876
 20
-7.426680050835309
 10
2.0191348897293744
 20
-7.182354814884241
 10
2.2094364502462787
 20
-6.931187312353135
 10
2.3920673723731
 20
-6.673917390614753
 10
2.567987393783161
 20
-6.411290629812384
 10
2.7381562521497838
 20
-6.144052610089315
 10
2.903533685146293
 20
-5.87294891158883
 10
3.0650794304460085
 20
-5.59872511445422
 10
3.2237532257222545
 20
-5.322126798828773
 10
3.3805148086483525
 20
-5.0438995448557735
 10
3.5363239168976266
 20
-4.764788932678511
 10
3.6921402881433987
 20
-4.485540542440272
 10
3.8489236600589902
 20
-4.206899954284343
 10
4.007633770317725
 20
-3.9296127483540144
 10
4.169230190420503
 20
-3.6544243770791445
 10
4.33440603994992
 20
-3.381875508684699
 10
4.50304709449787
 20
-3.1118863193449062
 10
4.674886799832161
 20
-2.8442599106709463
 10
4.849658601720595
 20
-2.5787993842739994
 10
5.02709594593098
 20
-2.315307841765247
 10
5.206932278231118
 20
-2.0535883847558685
 10
5.388901044388817
 20
-1.7934441148570457
 10
5.57273569017188
 20
-1.5346781336799582
 10
5.758169661348113
 20
-1.2770935428357872
 10
5.944936403685322
 20
-1.0204934439357134
 10
6.132769362951308
 20
-0.7646809385909172
 10
6.321401984913881
 20
-0.5094591284125791
 10
6.510567715340843
 20
-0.25463111501187985
 10
6.7
 20
-0.0
 10
17.608712114635715
 20
-5.0
 10
17.40520424108314
 20
-5.543437963032905
 10
17.204668370458457
 20
-6.086242617299082
 10
17.01007650568955
 20
-6.627780654031795
 10
16.824400649704305
 20
-7.16741876446432
 10
16.65061280543061
 20
-7.704523639829924
 10
16.491684975796353
 20
-8.238461971361879
 10
16.350589163729435
 20
-8.768600450293452
 10
16.23029737215772
 20
-9.294305767857914
 10
16.133781604009123
 20
-9.814944615288535
 10
16.064013862211503
 20
-10.329883683818586
 10
16.023966149692768
 20
-10.838489664681335
 10
16.016610469380804
 20
-11.340129249110054
 10
16.044918824203492
 20
-11.834169128338011
 10
16.111863217088725
 20
-12.319975993598478
 10
16.220415650964387
 20
-12.796916536124721
 10
16.372966579443283
 20
-13.26445856553292
 10
16.567340019625146
 20
-13.722863892332798
 10
16.79920333199428
 20
-14.172769321250016
 10
17.064211112273203
 20
-14.614813876516008
 10
17.35801795618444
 20
-15.049636582362218
 10
17.676278459450508
 20
-15.47787646302008
 10
18.014647217793918
 20
-15.900172542721025
 10
18.368778826937206
 20
-16.317163845696506
 10
18.73432788260288
 20
-16.72948939617795
 10
19.106948980513465
 20
-17.1377882183968
 10
19.48229671639148
 20
-17.542699336584494
 10
19.85602568595945
 20
-17.944861774972466
 10
20.224102563272176
 20
-18.34488934408173
 10
20.58557710229759
 20
-18.743146763496444
 10
20.941256697549235
 20
-19.139856747941188
 10
21.291969198137643
 20
-19.535240359554525
 10
21.63854245317335
 20
-19.929518660475026
 10
21.981804311766897
 20
-20.322912712841255
 10
22.32258262302883
 20
-20.71564357879178
 10
22.661705236069686
 20
-21.107932320465174
 10
23.0
 20
-21.5
 10
23.0
 20
-66.0
 10
-1.7
 20
-66.0
  0
LINE
  5
97
330
92
100
AcDbEntity
  8
7
100
AcDbLine
 10
11.5
 20
-12.2
 30
0.0
 11
11.5
 21
-63.0
 31
0.0
  0
LINE
  5
98
330
92
100
AcDbEntity
  8
7
100
AcDbLine
 10
11.5
 20
-63.0
 30
0.0
 11
11.03269798922962
 21
-61.89472680719654
 31
0.0
  0
LINE
  5
99
330
92
100
AcDbEntity
  8
7
100
AcDbLine
 10
11.5
 20
-63.0
 30
0.0
 11
11.96730201077038
 21
-61.89472680719654
 31
0.0
  0
LINE
  5
9A
330
92
100
AcDbEntity
  8
7
100
AcDbLine
 10
11.5
 20
-12.2
 30
0.0
 11
11.96730201077038
 21
-13.305273192803462
 31
0.0
  0
LINE
  5
9B
330
92
100
AcDbEntity
  8
7
100
AcDbLine
 10
11.5
 20
-12.2
 30
0.0
 11
11.03269798922962
 21
-13.305273192803462
 31
0.0
  0
LINE
  5
9C
330
92
100
AcDbEntity
  8
4
100
AcDbLine
 10
16.02404746992651
 20
-11.469920431763809
 30
0.0
 11
15.330561922681637
 21
-11.37464296453006
 31
0.0
  0
LINE
  5
9D
330
92
100
AcDbEntity
  8
4
100
AcDbLine
 10
23.0
 20
-41.525000000000006
 30
0.0
 11
22.740113901017367
 21
-40.8750313734067
 31
0.0
  0
CIRCLE
  5
9E
330
92
100
AcDbEntity
  8
6
100
AcDbCircle
 10
12.65
 20
-24.5
 30
0.0
 40
0.15
  0
LINE
  5
9F
330
92
100
AcDbEntity
  8
11
100
AcDbLine
 10
0.0
 20
-9.2
 30
0.0
 11
0.0
 21
-66.0
 31
0.0
  0
TEXT
  5
A0
330
92
100
AcDbEntity
  8
13
100
AcDbText
 10
10.68961134225951
 20
-9.737026191381256
 30
0.0
 40
0.9
  1
DELANTERO #01
 72
1
 11
10.68961134225951
 21
-9.737026191381256
 31
0.0
100
AcDbText
 73
2
  0
TEXT
  5
A1
330
92
100
AcDbEntity
  8
15
100
AcDbText
 10
10.68961134225951
 20
-11.137026191381256
 30
0.0
 40
0.6
  1
T:XS  x2
 72
1
 11
10.68961134225951
 21
-11.137026191381256
 31
0.0
100
AcDbText
 73
2
  0
ENDBLK
  5
94
330
92
100
AcDbEntity
  8
0
100
AcDbBlockEnd
  0
BLOCK
  5
A5
330
A4
100
AcDbEntity
  8
0
100
AcDbBlockBegin
  2
P02_ESPALDA
 70
0
 10
0.0
 20
0.0
 30
0.0
  3
P02_ESPALDA
  1

  0
LWPOLYLINE
  5
A7
330
A4
100
AcDbEntity
  8
1
100
AcDbPolyline
 90
31
 70
1
 10
24.0
 20
-21.204642
 10
23.564494
 20
-20.531706
 10
23.289561
 20
-20.106632
 10
23.014679
 20
-19.681137
 10
22.7398
 20
-19.254893
 10
22.464876
 20
-18.827577
 10
22.189855
 20
-18.398861
 10
21.914688
 20
-17.968418
 10
21.639336
 20
-17.535939
 10
21.364163
 20
-17.101711
 10
21.090873
 20
-16.666797
 10
20.821886
 20
-16.231825
 10
20.559216
 20
-15.796755
 10
20.304832
 20
-15.361553
 10
20.060679
 20
-14.926226
 10
19.82867
 20
-14.490821
 10
19.610673
 20
-14.055416
 10
19.4085
 20
-13.620111
 10
19.223893
 20
-13.185013
 10
19.058513
 20
-12.750214
 10
18.913925
 20
-12.315762
 10
18.791591
 20
-11.881591
 10
18.692508
 20
-11.445985
 10
18.616116
 20
-11.005071
 10
18.560694
 20
-10.556463
 10
18.5249
 20
-10.100024
 10
18.483436
 20
-9.0
 10
0.0
 20
-9.0
 10
0.0
 20
-67.0
 10
24.0
 20
-67.0
 10
24.0
 20
-21.204642
  0
LWPOLYLINE
  5
A8
330
A4
100
AcDbEntity
  8
8
100
AcDbPolyline
 90
30
 70
1
 10
0.0
 20
-10.0
 10
17.520419840560738
 20
-10.0
 10
17.52637438662826
 20
-10.157971392021187
 10
17.56550102655779
 20
-10.65690757509753
 10
17.626643074785502
 20
-11.151819883592497
 10
17.711635148669586
 20
-11.642372994624305
 10
17.822153555298286
 20
-12.128251638557293
 10
17.957727713264113
 20
-12.609412493263838
 10
18.116340974894566
 20
-13.086008077652702
 10
18.295942621558126
 20
-13.558195226419148
 10
18.49448193462327
 20
-14.02613077425845
 10
18.70990819545848
 20
-14.489971555865875
 10
18.94017068543222
 20
-14.949874405936692
 10
19.18321868591298
 20
-15.405996159166172
 10
19.43700147826924
 20
-15.858493650249583
 10
19.699468343869476
 20
-16.307523713882198
 10
19.968568564082158
 20
-16.753243184759274
 10
20.242251420275775
 20
-17.195808897576097
 10
20.518466193818803
 20
-17.635377687027923
 10
20.79522691292847
 20
-18.07211153353669
 10
21.071641500595845
 20
-18.506259354319255
 10
21.347728907549847
 20
-18.93814247011196
 10
21.623535873892386
 20
-19.368084410199064
 10
21.899109139725372
 20
-19.796408703864845
 10
22.174495445150715
 20
-20.223438880393566
 10
22.449741530270327
 20
-20.649498469069485
 10
22.72489413518612
 20
-21.074910999176875
 10
23.0
 20
-21.5
 10
23.0
 20
-66.0
 10
0.0
 20
-66.0
  0
LINE
  5
A9
330
A4
100
AcDbEntity
  8
7
100
AcDbLine
 10
0.5
 20
-13.0
 30
0.0
 11
0.5
 21
-63.0
 31
0.0
  0
LINE
  5
AA
330
A4
100
AcDbEntity
  8
7
100
AcDbLine
 10
0.5
 20
-63.0
 30
0.0
 11
0.032697989229619584
 21
-61.89472680719654
 31
0.0
  0
LINE
  5
AB
330
A4
100
AcDbEntity
  8
7
100
AcDbLine
 10
0.5
 20
-63.0
 30
0.0
 11
0.9673020107703805
 21
-61.89472680719654
 31
0.0
  0
LINE
  5
AC
330
A4
100
AcDbEntity
  8
7
100
AcDbLine
 10
0.5
 20
-13.0
 30
0.0
 11
0.9673020107703805
 21
-14.105273192803462
 31
0.0
  0
LINE
  5
AD
330
A4
100
AcDbEntity
  8
7
100
AcDbLine
 10
0.5
 20
-13.0
 30
0.0
 11
0.032697989229619584
 21
-14.105273192803462
 31
0.0
  0
LINE
  5
AE
330
A4
100
AcDbEntity
  8
4
100
AcDbLine
 10
8.760209920280369
 20
-10.0
 30
0.0
 11
9.276647880665523
 21
-10.47253765254551
 31
0.0
  0
TEXT
  5
AF
330
A4
100
AcDbEntity
  8
13
100
AcDbText
 10
18.514088242975276
 20
-17.924740471020755
 30
0.0
 40
0.9
  1
ESPALDA #02
 72
1
 11
18.514088242975276
 21
-17.924740471020755
 31
0.0
100
AcDbText
 73
2
  0
TEXT
  5
B0
330
A4
100
AcDbEntity
  8
15
100
AcDbText
 10
18.514088242975276
 20
-19.324740471020753
 30
0.0
 40
0.6
  1
T:XS  x1  AL DOBLEZ
 72
1
 11
18.514088242975276
 21
-19.324740471020753
 31
0.0
100
AcDbText
 73
2
  0
ENDBLK
  5
A6
330
A4
100
AcDbEntity
  8
0
100
AcDbBlockEnd
  0
BLOCK
  5
B4
330
B3
100
AcDbEntity
  8
0
100
AcDbBlockBegin
  2
P03_CANESU
 70
0
 10
0.0
 20
0.0
 30
0.0
  3
P03_CANESU
  1

  0
LWPOLYLINE
  5
B6
330
B3
100
AcDbEntity
  8
1
100
AcDbPolyline
 90
45
 70
1
 10
18.507406
 20
-9.635914
 10
18.506847
 20
-9.164403
 10
18.521808
 20
-8.685842
 10
18.550814
 20
-8.200639
 10
18.592334
 20
-7.709231
 10
18.644781
 20
-7.212072
 10
18.706519
 20
-6.709615
 10
18.775864
 20
-6.202304
 10
18.851095
 20
-5.690563
 10
18.930454
 20
-5.174796
 10
19.135557
 20
-3.870807
 10
6.771807
 20
1.130576
 10
6.128211
 20
0.680557
 10
5.932473
 20
0.54496
 10
5.739221
 20
0.413566
 10
5.547955
 20
0.287156
 10
5.358201
 20
0.166454
 10
5.169484
 20
0.052122
 10
4.980722
 20
-0.055594
 10
4.789923
 20
-0.157254
 10
4.596043
 20
-0.253392
 10
4.399257
 20
-0.34391
 10
4.199871
 20
-0.428648
 10
3.998194
 20
-0.507452
 10
3.794535
 20
-0.580175
 10
3.589205
 20
-0.646675
 10
3.382515
 20
-0.706818
 10
3.174774
 20
-0.760477
 10
2.966205
 20
-0.80755
 10
2.756151
 20
-0.848143
 10
2.543383
 20
-0.882751
 10
2.327408
 20
-0.911868
 10
2.108222
 20
-0.93591
 10
1.885857
 20
-0.955302
 10
1.660367
 20
-0.970488
 10
1.431822
 20
-0.981927
 10
1.200306
 20
-0.990098
 10
0.965908
 20
-0.995497
 10
0.728721
 20
-0.998643
 10
0.488838
 20
-1.00007
 10
0.246352
 20
-1.000332
 10
0.0
 20
-0.999999
 10
0.0
 20
-11.0
 10
18.558824
 20
-11.0
 10
18.507406
 20
-9.635914
  0
LWPOLYLINE
  5
B7
330
B3
100
AcDbEntity
  8
8
100
AcDbPolyline
 90
44
 70
1
 10
0.0
 20
-2.0
 10
0.2462170035955507
 20
-2.00033268093061
 10
0.4923526443117226
 20
-2.0000667561055763
 10
0.7383255592691368
 20
-1.998603619769256
 10
0.9840543855884144
 20
-1.995344666166006
 10
1.2294577603901764
 20
-1.9896912895401822
 10
1.4744543207950445
 20
-1.9810448841361417
 10
1.7189627039236397
 20
-1.9688068441982416
 10
1.9629015468965822
 20
-1.9523785639708378
 10
2.2061894868344942
 20
-1.9311614376982873
 10
2.4487451608579964
 20
-1.904556859624947
 10
2.6904872060877105
 20
-1.8719662239951727
 10
2.931334259644257
 20
-1.8327909250533219
 10
3.171204285938503
 20
-1.7864349894126546
 10
3.4099517085069087
 20
-1.7325510843831808
 10
3.647316144054607
 20
-1.6712411259010571
 10
3.8830251445246686
 20
-1.6026542403142232
 10
4.116806261860163
 20
-1.5269395539706194
 10
4.3483870480041595
 20
-1.444246193218186
 10
4.577495054899728
 20
-1.3547232844048627
 10
4.803857834489938
 20
-1.2585199538785905
 10
5.02720293871786
 20
-1.1557853279873096
 10
5.247257919526563
 20
-1.0466685330789587
 10
5.463750328859115
 20
-0.9313186955014804
 10
5.676464650345434
 20
-0.8099349119485193
 10
5.885702468299992
 20
-0.6831701511383248
 10
6.09204105370248
 20
-0.5519193587747347
 10
6.2960602530633105
 20
-0.4170797411684284
 10
6.498339912892898
 20
-0.2795485046300837
 10
6.699459879701656
 20
-0.14022285547038166
 10
6.9
 20
-0.0
 10
18.024297730643497
 20
-4.5
 10
17.94233962493302
 20
-5.021067493273918
 10
17.86221613658072
 20
-5.541799663666056
 10
17.785761882944783
 20
-6.06186118829463
 10
17.714811481383396
 20
-6.58091674427786
 10
17.651199549254738
 20
-7.098631008733965
 10
17.596760703916985
 20
-7.61466865878116
 10
17.553329562728333
 20
-8.12869437153767
 10
17.522740743046942
 20
-8.640372824121707
 10
17.506828862231014
 20
-9.149368693651494
 10
17.507428537638727
 20
-9.655346657245248
 10
17.520419840560738
 20
-10.0
 10
0.0
 20
-10.0
  0
LINE
  5
B8
330
B3
100
AcDbEntity
  8
7
100
AcDbLine
 10
4.14
 20
-1.0
 30
0.0
 11
4.14
 21
-9.5
 31
0.0
  0
LINE
  5
B9
330
B3
100
AcDbEntity
  8
7
100
AcDbLine
 10
4.14
 20
-9.5
 30
0.0
 11
3.6726979892296194
 21
-8.394726807196538
 31
0.0
  0
LINE
  5
BA
330
B3
100
AcDbEntity
  8
7
100
AcDbLine
 10
4.14
 20
-9.5
 30
0.0
 11
4.60730201077038
 21
-8.394726807196538
 31
0.0
  0
LINE
  5
BB
330
B3
100
AcDbEntity
  8
7
100
AcDbLine
 10
4.14
 20
-1.0
 30
0.0
 11
4.60730201077038
 21
-2.105273192803462
 31
0.0
  0
LINE
  5
BC
330
B3
100
AcDbEntity
  8
7
100
AcDbLine
 10
4.14
 20
-1.0
 30
0.0
 11
3.6726979892296194
 21
-2.105273192803462
 31
0.0
  0
LINE
  5
BD
330
B3
100
AcDbEntity
  8
4
100
AcDbLine
 10
8.760209920280369
 20
-10.0
 30
0.0
 11
8.616845457099446
 21
-9.314838244867063
 31
0.0
  0
TEXT
  5
BE
330
B3
100
AcDbEntity
  8
13
100
AcDbText
 10
7.342180445032855
 20
-2.2230097854534976
 30
0.0
 40
0.9
  1
CANESU #03
 72
1
 11
7.342180445032855
 21
-2.2230097854534976
 31
0.0
100
AcDbText
 73
2
  0
TEXT
  5
BF
330
B3
100
AcDbEntity
  8
15
100
AcDbText
 10
7.342180445032855
 20
-3.6230097854534975
 30
0.0
 40
0.6
  1
T:XS  x2  AL DOBLEZ
 72
1
 11
7.342180445032855
 21
-3.6230097854534975
 31
0.0
100
AcDbText
 73
2
  0
ENDBLK
  5
B5
330
B3
100
AcDbEntity
  8
0
100
AcDbBlockEnd
  0
BLOCK
  5
C3
330
C2
100
AcDbEntity
  8
0
100
AcDbBlockBegin
  2
P04_MANGA
 70
0
 10
0.0
 20
0.0
 30
0.0
  3
P04_MANGA
  1

  0
LWPOLYLINE
  5
C5
330
C2
100
AcDbEntity
  8
1
100
AcDbPolyline
 90
68
 70
1
 10
-12.413281
 20
-59.5
 10
12.413281
 20
-59.5
 10
16.970189
 20
-9.333894
 10
16.282635
 20
-8.561344
 10
15.877094
 20
-8.110827
 10
15.463062
 20
-7.661232
 10
15.038537
 20
-7.215726
 10
14.603764
 20
-6.778589
 10
14.160948
 20
-6.351607
 10
13.711077
 20
-5.934307
 10
13.254756
 20
-5.525839
 10
12.792579
 20
-5.12535
 10
12.325124
 20
-4.731983
 10
11.852961
 20
-4.344885
 10
11.376649
 20
-3.963204
 10
10.896735
 20
-3.586088
 10
10.413135
 20
-3.212211
 10
9.923841
 20
-2.840025
 10
9.426321
 20
-2.470747
 10
8.919417
 20
-2.107219
 10
8.40215
 20
-1.752511
 10
7.873485
 20
-1.409749
 10
7.33235
 20
-1.082136
 10
6.777655
 20
-0.772971
 10
6.208329
 20
-0.485675
 10
5.623368
 20
-0.223806
 10
5.023352
 20
0.008377
 10
4.413353
 20
0.20749
 10
3.799232
 20
0.375913
 10
3.183291
 20
0.518149
 10
2.567073
 20
0.638778
 10
1.951986
 20
0.742245
 10
1.339366
 20
0.832848
 10
0.730535
 20
0.914738
 10
0.026531
 20
1.004748
 10
-0.690928
 20
0.951295
 10
-1.312647
 20
0.901031
 10
-1.938295
 20
0.842462
 10
-2.566738
 20
0.771476
 10
-3.196836
 20
0.683823
 10
-3.8274
 20
0.575107
 10
-4.457133
 20
0.440794
 10
-5.084446
 20
0.276259
 10
-5.705002
 20
0.077775
 10
-6.312897
 20
-0.153666
 10
-6.905909
 20
-0.413816
 10
-7.484654
 20
-0.699206
 10
-8.049972
 20
-1.006537
 10
-8.602752
 20
-1.332628
 10
-9.143895
 20
-1.6744
 10
-9.674292
 20
-2.028859
 10
-10.194797
 20
-2.393079
 10
-10.706223
 20
-2.764183
 10
-11.210227
 20
-3.140009
 10
-11.709752
 20
-3.521246
 10
-12.205366
 20
-3.911082
 10
-12.695269
 20
-4.3116
 10
-13.177321
 20
-4.724706
 10
-13.649326
 20
-5.152338
 10
-14.109014
 20
-5.596459
 10
-14.554023
 20
-6.059031
 10
-14.981883
 20
-6.541988
 10
-15.389489
 20
-7.046559
 10
-15.771289
 20
-7.568658
 10
-16.127249
 20
-8.097937
 10
-16.463222
 20
-8.626768
 10
-16.961146
 20
-9.433444
 10
-12.413281
 20
-59.5
  0
LWPOLYLINE
  5
C6
330
C2
100
AcDbEntity
  8
8
100
AcDbPolyline
 90
67
 70
1
 10
-15.935086712120736
 20
-9.675
 10
-15.615681209247567
 20
-9.157537406672619
 10
-15.290177387373072
 20
-8.6451858950262
 10
-14.952476927495917
 20
-8.143056546741716
 10
-14.596488731472856
 20
-7.656254430937213
 10
-14.218286380394119
 20
-7.1880821619571496
 10
-13.819129343399645
 20
-6.7375242415472645
 10
-13.40103752148384
 20
-6.302931985711547
 10
-12.96603081564111
 20
-5.8826567104539915
 10
-12.51612912686587
 20
-5.475049731778587
 10
-12.053352356152532
 20
-5.078462365689329
 10
-11.579720404495502
 20
-4.691245928190206
 10
-11.097253172889193
 20
-4.311751735285212
 10
-10.60797056232802
 20
-3.9383311029783394
 10
-10.113657185320504
 20
-3.569731737817665
 10
-9.614443193670464
 20
-3.2074886165249286
 10
-9.109749014439014
 20
-2.854332389192174
 10
-8.598992354762874
 20
-2.512998288168443
 10
-8.081590921778762
 20
-2.1862215458027774
 10
-7.5569624226234025
 20
-1.876737394444218
 10
-7.024524564433513
 20
-1.5872810664418058
 10
-6.483695054345815
 20
-1.320587794144582
 10
-5.933891599497026
 20
-1.079392809901587
 10
-5.3745319070238695
 20
-0.8664313460618628
 10
-4.805074636247261
 20
-0.6842906190365419
 10
-4.225859999726143
 20
-0.5323715944443838
 10
-3.6380774860011083
 20
-0.40700564873726186
 10
-3.0429510775298607
 20
-0.3043994849315994
 10
-2.441704756770102
 20
-0.22075980604381992
 10
-1.835562506179534
 20
-0.15229331509034688
 10
-1.2257483082158598
 20
-0.09520671508760359
 10
-0.6134861453367809
 20
-0.04570670905201349
 10
0.0
 20
-0.0
 10
0.6004706699621927
 20
-0.0767727273632049
 10
1.199557426468644
 20
-0.1573519371775694
 10
1.7958763560636122
 20
-0.24554411189425324
 10
2.3880435452913567
 20
-0.3451557339644161
 10
2.9746750806961355
 20
-0.4599932858392176
 10
3.5543870488222065
 20
-0.5938632499698172
 10
4.125795536213829
 20
-0.7505721088073748
 10
4.6875166294152635
 20
-0.93392634480305
 10
5.238371086713254
 20
-1.1470861129742391
 10
5.7785436333337845
 20
-1.3889043335395697
 10
6.308776637399921
 20
-1.6564729610941347
 10
6.829814131895961
 20
-1.946878692812196
 10
7.342400149806196
 20
-2.2572082258680153
 10
7.847278724114921
 20
-2.5845482574358525
 10
8.34519388780643
 20
-2.9259854846899698
 10
8.836889673865015
 20
-3.2786066048046276
 10
9.323110115274973
 20
-3.6394983149540883
 10
9.804599245020597
 20
-4.005747312312613
 10
10.281974786521024
 20
-4.374811938688333
 10
10.75504014588643
 20
-4.746546527497515
 10
11.223275674911527
 20
-5.121755945100182
 10
11.686160911705645
 20
-5.501247451988623
 10
12.143175394378115
 20
-5.885828308655126
 10
12.593798661038262
 20
-6.27630577559198
 10
13.037510249795416
 20
-6.673487113291475
 10
13.473789698758907
 20
-7.078179582245898
 10
13.90211654603806
 20
-7.491190442947537
 10
14.321970329742209
 20
-7.9133269558886825
 10
14.733234494509814
 20
-8.344916379720944
 10
15.137654331833337
 20
-8.784073357422413
 10
15.537511251413001
 20
-9.228275409993744
 10
15.935086712120736
 20
-9.675
 10
11.5
 20
-58.5
 10
-11.5
 20
-58.5
  0
LINE
  5
C7
330
C2
100
AcDbEntity
  8
7
100
AcDbLine
 10
0.0
 20
-3.8700000000000006
 30
0.0
 11
0.0
 21
-56.5
 31
0.0
  0
LINE
  5
C8
330
C2
100
AcDbEntity
  8
7
100
AcDbLine
 10
0.0
 20
-56.5
 30
0.0
 11
-0.4673020107703804
 21
-55.39472680719654
 31
0.0
  0
LINE
  5
C9
330
C2
100
AcDbEntity
  8
7
100
AcDbLine
 10
0.0
 20
-56.5
 30
0.0
 11
0.4673020107703805
 21
-55.39472680719654
 31
0.0
  0
LINE
  5
CA
330
C2
100
AcDbEntity
  8
7
100
AcDbLine
 10
0.0
 20
-3.8700000000000006
 30
0.0
 11
0.4673020107703805
 21
-4.975273192803463
 31
0.0
  0
LINE
  5
CB
330
C2
100
AcDbEntity
  8
7
100
AcDbLine
 10
0.0
 20
-3.8700000000000006
 30
0.0
 11
-0.4673020107703804
 21
-4.975273192803463
 31
0.0
  0
LINE
  5
CC
330
C2
100
AcDbEntity
  8
4
100
AcDbLine
 10
7.830171410537651
 20
-2.573456662641813
 30
0.0
 11
7.169671329178258
 21
-2.805274786446306
 31
0.0
  0
LINE
  5
CD
330
C2
100
AcDbEntity
  8
4
100
AcDbLine
 10
-8.218248253090115
 20
-2.2725306178297977
 30
0.0
 11
-7.563858610553469
 21
-2.5210747703274183
 31
0.0
  0
LINE
  5
CE
330
C2
100
AcDbEntity
  8
4
100
AcDbLine
 10
-9.502353321209975
 20
-3.1290545110620194
 30
0.0
 11
-8.821199695708732
 21
-3.2903918547444766
 31
0.0
  0
CIRCLE
  5
CF
330
C2
100
AcDbEntity
  8
6
100
AcDbCircle
 10
3.983771678030184
 20
-46.5
 30
0.0
 40
0.15
  0
LINE
  5
D0
330
C2
100
AcDbEntity
  8
11
100
AcDbLine
 10
3.983771678030184
 20
-58.5
 30
0.0
 11
3.983771678030184
 21
-46.5
 31
0.0
  0
TEXT
  5
D1
330
C2
100
AcDbEntity
  8
13
100
AcDbText
 10
-0.09889141818574727
 20
-4.356348777809399
 30
0.0
 40
0.9
  1
MANGA #04
 72
1
 11
-0.09889141818574727
 21
-4.356348777809399
 31
0.0
100
AcDbText
 73
2
  0
TEXT
  5
D2
330
C2
100
AcDbEntity
  8
15
100
AcDbText
 10
-0.09889141818574727
 20
-5.756348777809399
 30
0.0
 40
0.6
  1
T:XS  x2
 72
1
 11
-0.09889141818574727
 21
-5.756348777809399
 31
0.0
100
AcDbText
 73
2
  0
ENDBLK
  5
C4
330
C2
100
AcDbEntity
  8
0
100
AcDbBlockEnd
  0
BLOCK
  5
D6
330
D5
100
AcDbEntity
  8
0
100
AcDbBlockBegin
  2
P05_PUNO
 70
0
 10
0.0
 20
0.0
 30
0.0
  3
P05_PUNO
  1

  0
LWPOLYLINE
  5
D8
330
D5
100
AcDbEntity
  8
1
100
AcDbPolyline
 90
37
 70
1
 10
-1.0
 20
-11.249127
 10
-0.970159
 20
-11.552107
 10
-0.867453
 20
-11.890682
 10
-0.700668
 20
-12.202715
 10
-0.476214
 20
-12.476214
 10
-0.202715
 20
-12.700668
 10
0.109318
 20
-12.867453
 10
0.447893
 20
-12.970159
 10
0.750873
 20
-13.0
 10
21.249127
 20
-13.0
 10
21.552107
 20
-12.970159
 10
21.890682
 20
-12.867453
 10
22.202715
 20
-12.700668
 10
22.476214
 20
-12.476214
 10
22.700668
 20
-12.202715
 10
22.867453
 20
-11.890682
 10
22.970159
 20
-11.552107
 10
23.0
 20
-11.249127
 10
23.0
 20
-0.750873
 10
22.970159
 20
-0.447893
 10
22.867453
 20
-0.109318
 10
22.700668
 20
0.202715
 10
22.476214
 20
0.476214
 10
22.202715
 20
0.700668
 10
21.890682
 20
0.867453
 10
21.552107
 20
0.970159
 10
21.249127
 20
1.0
 10
0.750873
 20
1.0
 10
0.447893
 20
0.970159
 10
0.109318
 20
0.867453
 10
-0.202715
 20
0.700668
 10
-0.476214
 20
0.476214
 10
-0.700668
 20
0.202715
 10
-0.867453
 20
-0.109318
 10
-0.970159
 20
-0.447893
 10
-1.0
 20
-0.750873
 10
-1.0
 20
-11.249127
  0
LWPOLYLINE
  5
D9
330
D5
100
AcDbEntity
  8
8
100
AcDbPolyline
 90
36
 70
1
 10
0.0
 20
-0.8000000000000002
 10
0.015371775677415656
 20
-0.6439277423870974
 10
0.060896373990970476
 20
-0.4938532541079283
 10
0.1348243101579636
 20
-0.35554381358431847
 10
0.23431457505076192
 20
-0.23431457505076203
 10
0.3555438135843183
 20
-0.1348243101579638
 10
0.49385325410792774
 20
-0.06089637399097081
 10
0.643927742387097
 20
-0.015371775677415767
 10
0.7999999999999999
 20
-0.0
 10
21.2
 20
-0.0
 10
21.3560722576129
 20
-0.015371775677415656
 10
21.50614674589207
 20
-0.06089637399097059
 10
21.64445618641568
 20
-0.13482431015796392
 10
21.765685424949236
 20
-0.23431457505076203
 10
21.865175689842037
 20
-0.35554381358431836
 10
21.93910362600903
 20
-0.49385325410792835
 10
21.984628224322584
 20
-0.6439277423870976
 10
22.0
 20
-0.8000000000000003
 10
22.0
 20
-11.2
 10
21.984628224322584
 20
-11.356072257612903
 10
21.93910362600903
 20
-11.506146745892071
 10
21.865175689842037
 20
-11.644456186415681
 10
21.765685424949236
 20
-11.765685424949238
 10
21.64445618641568
 20
-11.865175689842035
 10
21.50614674589207
 20
-11.939103626009029
 10
21.3560722576129
 20
-11.984628224322584
 10
21.2
 20
-12.0
 10
0.8
 20
-12.0
 10
0.6439277423870975
 20
-11.984628224322584
 10
0.49385325410792824
 20
-11.939103626009029
 10
0.35554381358431847
 20
-11.865175689842037
 10
0.23431457505076203
 20
-11.765685424949238
 10
0.1348243101579637
 20
-11.644456186415681
 10
0.06089637399097059
 20
-11.506146745892071
 10
0.015371775677415656
 20
-11.356072257612903
 10
0.0
 20
-11.2
  0
LINE
  5
DA
330
D5
100
AcDbEntity
  8
7
100
AcDbLine
 10
11.0
 20
-0.5
 30
0.0
 11
11.0
 21
-11.5
 31
0.0
  0
LINE
  5
DB
330
D5
100
AcDbEntity
  8
7
100
AcDbLine
 10
11.0
 20
-11.5
 30
0.0
 11
10.53269798922962
 21
-10.394726807196538
 31
0.0
  0
LINE
  5
DC
330
D5
100
AcDbEntity
  8
7
100
AcDbLine
 10
11.0
 20
-11.5
 30
0.0
 11
11.46730201077038
 21
-10.394726807196538
 31
0.0
  0
LINE
  5
DD
330
D5
100
AcDbEntity
  8
7
100
AcDbLine
 10
11.0
 20
-0.5
 30
0.0
 11
11.46730201077038
 21
-1.605273192803462
 31
0.0
  0
LINE
  5
DE
330
D5
100
AcDbEntity
  8
7
100
AcDbLine
 10
11.0
 20
-0.5
 30
0.0
 11
10.53269798922962
 21
-1.605273192803462
 31
0.0
  0
LINE
  5
DF
330
D5
100
AcDbEntity
  8
11
100
AcDbLine
 10
0.0
 20
-6.0
 30
0.0
 11
22.0
 21
-6.0
 31
0.0
  0
TEXT
  5
E0
330
D5
100
AcDbEntity
  8
13
100
AcDbText
 10
10.999999999999998
 20
-4.999999999999999
 30
0.0
 40
0.9
  1
PUNO #05
 72
1
 11
10.999999999999998
 21
-4.999999999999999
 31
0.0
100
AcDbText
 73
2
  0
TEXT
  5
E1
330
D5
100
AcDbEntity
  8
15
100
AcDbText
 10
10.999999999999998
 20
-6.3999999999999995
 30
0.0
 40
0.6
  1
T:XS  x4
 72
1
 11
10.999999999999998
 21
-6.3999999999999995
 31
0.0
100
AcDbText
 73
2
  0
ENDBLK
  5
D7
330
D5
100
AcDbEntity
  8
0
100
AcDbBlockEnd
  0
BLOCK
  5
E5
330
E4
100
AcDbEntity
  8
0
100
AcDbBlockBegin
  2
P06_TAPETA_MANGA
 70
0
 10
0.0
 20
0.0
 30
0.0
  3
P06_TAPETA_MANGA
  1

  0
LWPOLYLINE
  5
E7
330
E4
100
AcDbEntity
  8
1
100
AcDbPolyline
 90
37
 70
1
 10
-1.0
 20
-2.649127
 10
-0.977845
 20
-2.87407
 10
-0.897902
 20
-3.137608
 10
-0.768081
 20
-3.380486
 10
-0.593371
 20
-3.593371
 10
-0.380486
 20
-3.768081
 10
-0.137608
 20
-3.897902
 10
0.12593
 20
-3.977845
 10
0.350873
 20
-4.0
 10
11.649127
 20
-4.0
 10
11.87407
 20
-3.977845
 10
12.137608
 20
-3.897902
 10
12.380486
 20
-3.768081
 10
12.593371
 20
-3.593371
 10
12.768081
 20
-3.380486
 10
12.897902
 20
-3.137608
 10
12.977845
 20
-2.87407
 10
13.0
 20
-2.649127
 10
13.0
 20
-0.350873
 10
12.977845
 20
-0.12593
 10
12.897902
 20
0.137608
 10
12.768081
 20
0.380486
 10
12.593371
 20
0.593371
 10
12.380486
 20
0.768081
 10
12.137608
 20
0.897902
 10
11.87407
 20
0.977845
 10
11.649127
 20
1.0
 10
0.350873
 20
1.0
 10
0.12593
 20
0.977845
 10
-0.137608
 20
0.897902
 10
-0.380486
 20
0.768081
 10
-0.593371
 20
0.593371
 10
-0.768081
 20
0.380486
 10
-0.897902
 20
0.137608
 10
-0.977845
 20
-0.12593
 10
-1.0
 20
-0.350873
 10
-1.0
 20
-2.649127
  0
LWPOLYLINE
  5
E8
330
E4
100
AcDbEntity
  8
8
100
AcDbPolyline
 90
36
 70
1
 10
0.0
 20
-0.4000000000000001
 10
0.007685887838707828
 20
-0.3219638711935487
 10
0.030448186995485238
 20
-0.24692662705396415
 10
0.0674121550789818
 20
-0.17777190679215923
 10
0.11715728752538096
 20
-0.11715728752538102
 10
0.17777190679215915
 20
-0.0674121550789819
 10
0.24692662705396387
 20
-0.030448186995485405
 10
0.3219638711935485
 20
-0.007685887838707883
 10
0.39999999999999997
 20
-0.0
 10
11.6
 20
-0.0
 10
11.67803612880645
 20
-0.007685887838707828
 10
11.753073372946035
 20
-0.030448186995485294
 10
11.82222809320784
 20
-0.06741215507898196
 10
11.882842712474618
 20
-0.11715728752538102
 10
11.932587844921018
 20
-0.17777190679215918
 10
11.969551813004514
 20
-0.24692662705396418
 10
11.992314112161292
 20
-0.3219638711935488
 10
12.0
 20
-0.40000000000000013
 10
12.0
 20
-2.6
 10
11.992314112161292
 20
-2.6780361288064514
 10
11.969551813004514
 20
-2.753073372946036
 10
11.932587844921018
 20
-2.822228093207841
 10
11.882842712474618
 20
-2.882842712474619
 10
11.82222809320784
 20
-2.9325878449210183
 10
11.753073372946035
 20
-2.969551813004515
 10
11.67803612880645
 20
-2.992314112161292
 10
11.6
 20
-3.0
 10
0.4
 20
-3.0
 10
0.32196387119354875
 20
-2.992314112161292
 10
0.24692662705396412
 20
-2.969551813004515
 10
0.17777190679215923
 20
-2.9325878449210183
 10
0.11715728752538102
 20
-2.882842712474619
 10
0.06741215507898185
 20
-2.822228093207841
 10
0.030448186995485294
 20
-2.753073372946036
 10
0.007685887838707828
 20
-2.6780361288064514
 10
0.0
 20
-2.6
  0
LINE
  5
E9
330
E4
100
AcDbEntity
  8
7
100
AcDbLine
 10
6.0
 20
-0.4
 30
0.0
 11
6.0
 21
-2.6
 31
0.0
  0
LINE
  5
EA
330
E4
100
AcDbEntity
  8
7
100
AcDbLine
 10
6.0
 20
-2.6
 30
0.0
 11
5.53269798922962
 21
-1.494726807196538
 31
0.0
  0
LINE
  5
EB
330
E4
100
AcDbEntity
  8
7
100
AcDbLine
 10
6.0
 20
-2.6
 30
0.0
 11
6.46730201077038
 21
-1.494726807196538
 31
0.0
  0
LINE
  5
EC
330
E4
100
AcDbEntity
  8
7
100
AcDbLine
 10
6.0
 20
-0.4
 30
0.0
 11
6.46730201077038
 21
-1.505273192803462
 31
0.0
  0
LINE
  5
ED
330
E4
100
AcDbEntity
  8
7
100
AcDbLine
 10
6.0
 20
-0.4
 30
0.0
 11
5.53269798922962
 21
-1.505273192803462
 31
0.0
  0
TEXT
  5
EE
330
E4
100
AcDbEntity
  8
13
100
AcDbText
 10
5.999999999999999
 20
-0.5
 30
0.0
 40
0.9
  1
TAPETA MANGA #06
 72
1
 11
5.999999999999999
 21
-0.5
 31
0.0
100
AcDbText
 73
2
  0
TEXT
  5
EF
330
E4
100
AcDbEntity
  8
15
100
AcDbText
 10
5.999999999999999
 20
-1.9
 30
0.0
 40
0.6
  1
T:XS  x2
 72
1
 11
5.999999999999999
 21
-1.9
 31
0.0
100
AcDbText
 73
2
  0
ENDBLK
  5
E6
330
E4
100
AcDbEntity
  8
0
100
AcDbBlockEnd
  0
BLOCK
  5
F3
330
F2
100
AcDbEntity
  8
0
100
AcDbBlockBegin
  2
P07_CUELLO
 70
0
 10
0.0
 20
0.0
 30
0.0
  3
P07_CUELLO
  1

  0
LWPOLYLINE
  5
F5
330
F2
100
AcDbEntity
  8
1
100
AcDbPolyline
 90
84
 70
1
 10
0.751574
 20
-5.672158
 10
1.231535
 20
-5.761541
 10
1.711553
 20
-5.845826
 10
2.191625
 20
-5.925012
 10
2.671748
 20
-5.999097
 10
3.151919
 20
-6.06808
 10
3.632135
 20
-6.131959
 10
4.112392
 20
-6.190732
 10
4.592688
 20
-6.244399
 10
5.073019
 20
-6.292959
 10
5.553381
 20
-6.33641
 10
6.033772
 20
-6.374751
 10
6.514188
 20
-6.407982
 10
6.994626
 20
-6.436102
 10
7.475081
 20
-6.459109
 10
7.955551
 20
-6.477005
 10
8.436032
 20
-6.489788
 10
8.91652
 20
-6.497458
 10
9.397011
 20
-6.500014
 10
9.877502
 20
-6.497458
 10
10.35799
 20
-6.489788
 10
10.838471
 20
-6.477005
 10
11.318941
 20
-6.459109
 10
11.799396
 20
-6.436102
 10
12.279834
 20
-6.407982
 10
12.76025
 20
-6.374751
 10
13.240641
 20
-6.33641
 10
13.721004
 20
-6.292959
 10
14.201334
 20
-6.244399
 10
14.68163
 20
-6.190732
 10
15.161887
 20
-6.131959
 10
15.642103
 20
-6.06808
 10
16.122274
 20
-5.999097
 10
16.602397
 20
-5.925012
 10
17.082469
 20
-5.845826
 10
17.562487
 20
-5.761541
 10
18.042448
 20
-5.672158
 10
18.300629
 20
-5.62133
 10
20.350583
 20
-9.037919
 10
21.405801
 20
-8.638936
 10
19.591809
 20
1.186855
 10
18.125993
 20
0.882679
 10
17.666193
 20
0.792158
 10
17.206454
 20
0.706541
 10
16.746771
 20
0.625826
 10
16.287142
 20
0.550012
 10
15.827564
 20
0.479097
 10
15.368033
 20
0.41308
 10
14.908548
 20
0.351959
 10
14.449104
 20
0.295732
 10
13.989699
 20
0.244399
 10
13.530328
 20
0.197959
 10
13.07099
 20
0.15641
 10
12.61168
 20
0.119751
 10
12.152395
 20
0.087982
 10
11.693131
 20
0.061102
 10
11.233886
 20
0.039109
 10
10.774654
 20
0.022005
 10
10.315434
 20
0.009788
 10
9.856221
 20
0.002458
 10
9.397011
 20
1.4e-05
 10
8.937801
 20
0.002458
 10
8.478588
 20
0.009788
 10
8.019368
 20
0.022005
 10
7.560136
 20
0.039109
 10
7.100891
 20
0.061102
 10
6.641627
 20
0.087982
 10
6.182342
 20
0.119751
 10
5.723032
 20
0.15641
 10
5.263694
 20
0.197959
 10
4.804323
 20
0.244399
 10
4.344918
 20
0.295732
 10
3.885474
 20
0.351959
 10
3.425989
 20
0.41308
 10
2.966458
 20
0.479097
 10
2.50688
 20
0.550012
 10
2.047251
 20
0.625826
 10
1.587568
 20
0.706541
 10
1.127829
 20
0.792158
 10
0.66803
 20
0.882679
 10
0.0
 20
1.021304
 10
0.0
 20
-5.521304
 10
0.271672
 20
-5.577679
 10
0.751574
 20
-5.672158
  0
LWPOLYLINE
  5
F6
330
F2
100
AcDbEntity
  8
8
100
AcDbPolyline
 90
83
 70
1
 10
0.0
 20
-0.0
 10
0.4698505510169973
 20
-0.09750000000000003
 10
0.9397011020339946
 20
-0.18999999999999995
 10
1.4095516530509917
 20
-0.2775000000000001
 10
1.8794022040679892
 20
-0.3599999999999999
 10
2.3492527550849864
 20
-0.4375
 10
2.8191033061019835
 20
-0.51
 10
3.288953857118981
 20
-0.5774999999999999
 10
3.7588044081359784
 20
-0.64
 10
4.228654959152975
 20
-0.6975
 10
4.698505510169973
 20
-0.75
 10
5.16835606118697
 20
-0.7975000000000001
 10
5.638206612203967
 20
-0.84
 10
6.108057163220965
 20
-0.8775000000000001
 10
6.577907714237962
 20
-0.9099999999999999
 10
7.047758265254959
 20
-0.9375
 10
7.517608816271957
 20
-0.96
 10
7.987459367288953
 20
-0.9775
 10
8.45730991830595
 20
-0.99
 10
8.927160469322947
 20
-0.9974999999999999
 10
9.397011020339946
 20
-1.0
 10
9.866861571356944
 20
-0.9974999999999999
 10
10.33671212237394
 20
-0.99
 10
10.806562673390937
 20
-0.9775
 10
11.276413224407934
 20
-0.96
 10
11.746263775424932
 20
-0.9375
 10
12.21611432644193
 20
-0.9099999999999999
 10
12.685964877458927
 20
-0.8775
 10
13.155815428475924
 20
-0.8400000000000001
 10
13.62566597949292
 20
-0.7975000000000001
 10
14.095516530509919
 20
-0.75
 10
14.565367081526917
 20
-0.6975
 10
15.035217632543914
 20
-0.6399999999999999
 10
15.50506818356091
 20
-0.5775000000000001
 10
15.974918734577907
 20
-0.51
 10
16.444769285594905
 20
-0.4375
 10
16.9146198366119
 20
-0.3599999999999999
 10
17.3844703876289
 20
-0.27749999999999986
 10
17.854320938645895
 20
-0.19000000000000017
 10
18.324171489662895
 20
-0.09750000000000003
 10
18.79402204067989
 20
-0.0
 10
19.99402204067989
 20
-6.5
 10
18.79402204067989
 20
-4.5
 10
18.324171489662895
 20
-4.5975
 10
17.854320938645895
 20
-4.69
 10
17.3844703876289
 20
-4.7775
 10
16.9146198366119
 20
-4.859999999999999
 10
16.444769285594905
 20
-4.9375
 10
15.974918734577907
 20
-5.01
 10
15.50506818356091
 20
-5.077500000000001
 10
15.035217632543914
 20
-5.14
 10
14.565367081526917
 20
-5.1975
 10
14.095516530509919
 20
-5.25
 10
13.62566597949292
 20
-5.2975
 10
13.155815428475924
 20
-5.34
 10
12.685964877458927
 20
-5.3774999999999995
 10
12.21611432644193
 20
-5.41
 10
11.746263775424932
 20
-5.4375
 10
11.276413224407934
 20
-5.46
 10
10.806562673390937
 20
-5.4775
 10
10.33671212237394
 20
-5.49
 10
9.866861571356944
 20
-5.4975
 10
9.397011020339946
 20
-5.5
 10
8.927160469322947
 20
-5.4975
 10
8.45730991830595
 20
-5.49
 10
7.987459367288953
 20
-5.4775
 10
7.517608816271957
 20
-5.46
 10
7.047758265254959
 20
-5.4375
 10
6.577907714237962
 20
-5.41
 10
6.108057163220965
 20
-5.3775
 10
5.638206612203967
 20
-5.34
 10
5.16835606118697
 20
-5.2975
 10
4.698505510169973
 20
-5.25
 10
4.228654959152975
 20
-5.1975
 10
3.7588044081359784
 20
-5.14
 10
3.288953857118981
 20
-5.0775
 10
2.8191033061019835
 20
-5.01
 10
2.3492527550849864
 20
-4.9375
 10
1.8794022040679892
 20
-4.859999999999999
 10
1.4095516530509917
 20
-4.7775
 10
0.9397011020339946
 20
-4.6899999999999995
 10
0.4698505510169973
 20
-4.5975
 10
0.0
 20
-4.5
  0
LINE
  5
F7
330
F2
100
AcDbEntity
  8
7
100
AcDbLine
 10
0.5
 20
-0.5
 30
0.0
 11
18.29402204067989
 21
-0.5
 31
0.0
  0
LINE
  5
F8
330
F2
100
AcDbEntity
  8
7
100
AcDbLine
 10
18.29402204067989
 20
-0.5
 30
0.0
 11
17.18874884787643
 21
-0.9673020107703804
 31
0.0
  0
LINE
  5
F9
330
F2
100
AcDbEntity
  8
7
100
AcDbLine
 10
18.29402204067989
 20
-0.5
 30
0.0
 11
17.18874884787643
 21
-0.03269798922961942
 31
0.0
  0
LINE
  5
FA
330
F2
100
AcDbEntity
  8
7
100
AcDbLine
 10
0.5
 20
-0.5
 30
0.0
 11
1.605273192803462
 21
-0.03269798922961942
 31
0.0
  0
LINE
  5
FB
330
F2
100
AcDbEntity
  8
7
100
AcDbLine
 10
0.5
 20
-0.5
 30
0.0
 11
1.605273192803462
 21
-0.9673020107703806
 31
0.0
  0
TEXT
  5
FC
330
F2
100
AcDbEntity
  8
13
100
AcDbText
 10
9.524685851910306
 20
-1.9433734939759035
 30
0.0
 40
0.9
  1
CUELLO #07
 72
1
 11
9.524685851910306
 21
-1.9433734939759035
 31
0.0
100
AcDbText
 73
2
  0
TEXT
  5
FD
330
F2
100
AcDbEntity
  8
15
100
AcDbText
 10
9.524685851910306
 20
-3.3433734939759034
 30
0.0
 40
0.6
  1
T:XS  x2  AL DOBLEZ
 72
1
 11
9.524685851910306
 21
-3.3433734939759034
 31
0.0
100
AcDbText
 73
2
  0
ENDBLK
  5
F4
330
F2
100
AcDbEntity
  8
0
100
AcDbBlockEnd
  0
BLOCK
  5
101
330
100
100
AcDbEntity
  8
0
100
AcDbBlockBegin
  2
P08_PIE_DE_CUELLO
 70
0
 10
0.0
 20
0.0
 30
0.0
  3
P08_PIE_DE_CUELLO
  1

  0
LWPOLYLINE
  5
103
330
100
100
AcDbEntity
  8
1
100
AcDbPolyline
 90
83
 70
1
 10
0.885541
 20
-4.142277
 10
1.405485
 20
-4.213315
 10
1.925452
 20
-4.280296
 10
2.445441
 20
-4.34322
 10
2.965451
 20
-4.402087
 10
3.48548
 20
-4.456897
 10
4.005528
 20
-4.507648
 10
4.525592
 20
-4.55434
 10
5.045671
 20
-4.596974
 10
5.565765
 20
-4.635548
 10
6.085871
 20
-4.670063
 10
6.605989
 20
-4.700518
 10
7.126116
 20
-4.726912
 10
7.646252
 20
-4.749247
 10
8.166396
 20
-4.76752
 10
8.686545
 20
-4.781733
 10
9.206698
 20
-4.791886
 10
9.726854
 20
-4.797977
 10
10.247011
 20
-4.800008
 10
10.767168
 20
-4.797977
 10
11.287324
 20
-4.791886
 10
11.807478
 20
-4.781733
 10
12.327626
 20
-4.76752
 10
12.84777
 20
-4.749247
 10
13.367906
 20
-4.726912
 10
13.888033
 20
-4.700518
 10
14.408151
 20
-4.670063
 10
14.928257
 20
-4.635548
 10
15.448351
 20
-4.596974
 10
15.96843
 20
-4.55434
 10
16.488494
 20
-4.507648
 10
17.008542
 20
-4.456897
 10
17.528571
 20
-4.402087
 10
18.048581
 20
-4.34322
 10
18.56857
 20
-4.280296
 10
19.088537
 20
-4.213315
 10
19.608481
 20
-4.142277
 10
20.128401
 20
-4.067184
 10
21.494022
 20
-3.859283
 10
21.494022
 20
1.163762
 10
19.834942
 20
0.911184
 10
19.330161
 20
0.838277
 10
18.825403
 20
0.769315
 10
18.32067
 20
0.704296
 10
17.815958
 20
0.64322
 10
17.311266
 20
0.586087
 10
16.806595
 20
0.532897
 10
16.301941
 20
0.483648
 10
15.797304
 20
0.43834
 10
15.292682
 20
0.396974
 10
14.788075
 20
0.359548
 10
14.28348
 20
0.326063
 10
13.778897
 20
0.296518
 10
13.274323
 20
0.270912
 10
12.769758
 20
0.249247
 10
12.2652
 20
0.23152
 10
11.760648
 20
0.217733
 10
11.2561
 20
0.207886
 10
10.751555
 20
0.201977
 10
10.247011
 20
0.200008
 10
9.742467
 20
0.201977
 10
9.237922
 20
0.207886
 10
8.733374
 20
0.217733
 10
8.228822
 20
0.23152
 10
7.724264
 20
0.249247
 10
7.219699
 20
0.270912
 10
6.715125
 20
0.296518
 10
6.210542
 20
0.326063
 10
5.705947
 20
0.359548
 10
5.20134
 20
0.396974
 10
4.696718
 20
0.43834
 10
4.192081
 20
0.483648
 10
3.687427
 20
0.532897
 10
3.182756
 20
0.586087
 10
2.678064
 20
0.64322
 10
2.173352
 20
0.704296
 10
1.668619
 20
0.769315
 10
1.163861
 20
0.838277
 10
0.65908
 20
0.911184
 10
0.0
 20
1.011522
 10
0.0
 20
-4.011522
 10
0.365621
 20
-4.067184
 10
0.885541
 20
-4.142277
  0
LWPOLYLINE
  5
104
330
100
100
AcDbEntity
  8
8
100
AcDbPolyline
 90
82
 70
1
 10
0.0
 20
-0.0
 10
0.5123505510169973
 20
-0.07800000000000007
 10
1.0247011020339947
 20
-0.1519999999999999
 10
1.5370516530509917
 20
-0.2220000000000001
 10
2.0494022040679893
 20
-0.2879999999999999
 10
2.5617527550849863
 20
-0.35000000000000003
 10
3.0741033061019833
 20
-0.4080000000000001
 10
3.586453857118981
 20
-0.46199999999999997
 10
4.098804408135979
 20
-0.512
 10
4.611154959152976
 20
-0.558
 10
5.123505510169973
 20
-0.6000000000000001
 10
5.635856061186971
 20
-0.6380000000000001
 10
6.148206612203967
 20
-0.672
 10
6.660557163220965
 20
-0.7020000000000001
 10
7.172907714237962
 20
-0.728
 10
7.685258265254959
 20
-0.75
 10
8.197608816271957
 20
-0.768
 10
8.709959367288953
 20
-0.782
 10
9.222309918305951
 20
-0.792
 10
9.734660469322948
 20
-0.798
 10
10.247011020339945
 20
-0.8
 10
10.759361571356942
 20
-0.798
 10
11.271712122373941
 20
-0.792
 10
11.784062673390936
 20
-0.782
 10
12.296413224407933
 20
-0.768
 10
12.808763775424932
 20
-0.75
 10
13.32111432644193
 20
-0.728
 10
13.833464877458928
 20
-0.702
 10
14.345815428475923
 20
-0.6720000000000002
 10
14.85816597949292
 20
-0.6380000000000001
 10
15.370516530509917
 20
-0.6000000000000001
 10
15.882867081526916
 20
-0.558
 10
16.395217632543915
 20
-0.512
 10
16.907568183560908
 20
-0.46200000000000013
 10
17.419918734577905
 20
-0.4080000000000001
 10
17.932269285594906
 20
-0.35000000000000003
 10
18.444619836611903
 20
-0.2879999999999999
 10
18.9569703876289
 20
-0.22199999999999986
 10
19.469320938645897
 20
-0.15200000000000014
 10
19.981671489662894
 20
-0.07800000000000007
 10
20.49402204067989
 20
-0.0
 10
20.49402204067989
 20
-3.0
 10
19.981671489662894
 20
-3.0780000000000003
 10
19.469320938645897
 20
-3.152
 10
18.9569703876289
 20
-3.222
 10
18.444619836611903
 20
-3.288
 10
17.932269285594906
 20
-3.35
 10
17.419918734577905
 20
-3.408
 10
16.907568183560908
 20
-3.462
 10
16.395217632543915
 20
-3.512
 10
15.882867081526916
 20
-3.558
 10
15.370516530509917
 20
-3.6
 10
14.85816597949292
 20
-3.638
 10
14.345815428475923
 20
-3.672
 10
13.833464877458928
 20
-3.702
 10
13.32111432644193
 20
-3.7279999999999998
 10
12.808763775424932
 20
-3.75
 10
12.296413224407933
 20
-3.768
 10
11.784062673390936
 20
-3.782
 10
11.271712122373941
 20
-3.792
 10
10.759361571356942
 20
-3.798
 10
10.247011020339945
 20
-3.8
 10
9.734660469322948
 20
-3.798
 10
9.222309918305951
 20
-3.792
 10
8.709959367288953
 20
-3.782
 10
8.197608816271957
 20
-3.768
 10
7.685258265254959
 20
-3.75
 10
7.172907714237962
 20
-3.7279999999999998
 10
6.660557163220965
 20
-3.702
 10
6.148206612203967
 20
-3.672
 10
5.635856061186971
 20
-3.638
 10
5.123505510169973
 20
-3.6
 10
4.611154959152976
 20
-3.558
 10
4.098804408135979
 20
-3.512
 10
3.586453857118981
 20
-3.4619999999999997
 10
3.0741033061019833
 20
-3.408
 10
2.5617527550849863
 20
-3.35
 10
2.0494022040679893
 20
-3.288
 10
1.5370516530509917
 20
-3.222
 10
1.0247011020339947
 20
-3.152
 10
0.5123505510169973
 20
-3.0780000000000003
 10
0.0
 20
-3.0
  0
LINE
  5
105
330
100
100
AcDbEntity
  8
7
100
AcDbLine
 10
0.5
 20
-0.4
 30
0.0
 11
19.99402204067989
 21
-0.4
 31
0.0
  0
LINE
  5
106
330
100
100
AcDbEntity
  8
7
100
AcDbLine
 10
19.99402204067989
 20
-0.4
 30
0.0
 11
18.88874884787643
 21
-0.8673020107703804
 31
0.0
  0
LINE
  5
107
330
100
100
AcDbEntity
  8
7
100
AcDbLine
 10
19.99402204067989
 20
-0.4
 30
0.0
 11
18.88874884787643
 21
0.06730201077038056
 31
0.0
  0
LINE
  5
108
330
100
100
AcDbEntity
  8
7
100
AcDbLine
 10
0.5
 20
-0.4
 30
0.0
 11
1.605273192803462
 21
0.06730201077038056
 31
0.0
  0
LINE
  5
109
330
100
100
AcDbEntity
  8
7
100
AcDbLine
 10
0.5
 20
-0.4
 30
0.0
 11
1.605273192803462
 21
-0.8673020107703806
 31
0.0
  0
TEXT
  5
10A
330
100
100
AcDbEntity
  8
13
100
AcDbText
 10
10.247011020339945
 20
-1.0199999999999996
 30
0.0
 40
0.9
  1
PIE DE CUELLO #08
 72
1
 11
10.247011020339945
 21
-1.0199999999999996
 31
0.0
100
AcDbText
 73
2
  0
TEXT
  5
10B
330
100
100
AcDbEntity
  8
15
100
AcDbText
 10
10.247011020339945
 20
-2.4199999999999995
 30
0.0
 40
0.6
  1
T:XS  x2  AL DOBLEZ
 72
1
 11
10.247011020339945
 21
-2.4199999999999995
 31
0.0
100
AcDbText
 73
2
  0
ENDBLK
  5
102
330
100
100
AcDbEntity
  8
0
100
AcDbBlockEnd
  0
BLOCK
  5
10F
330
10E
100
AcDbEntity
  8
0
100
AcDbBlockBegin
  2
P09_VISTA_DELANTERA
 70
0
 10
0.0
 20
0.0
 30
0.0
  3
P09_VISTA_DELANTERA
  1

  0
LWPOLYLINE
  5
111
330
10E
100
AcDbEntity
  8
1
100
AcDbPolyline
 90
42
 70
1
 10
-2.7
 20
-67.0
 10
5.311215
 20
-67.0
 10
4.701855
 20
-12.36079
 10
8.928979
 20
0.003545
 10
6.397794
 20
1.269137
 10
5.707931
 20
0.341838
 10
5.517832
 20
0.085752
 10
5.327648
 20
-0.171569
 10
5.137652
 20
-0.430327
 10
4.94812
 20
-0.690726
 10
4.759331
 20
-0.952971
 10
4.571567
 20
-1.217268
 10
4.385113
 20
-1.483825
 10
4.200256
 20
-1.752851
 10
4.017289
 20
-2.024554
 10
3.836506
 20
-2.299145
 10
3.658207
 20
-2.576832
 10
3.482694
 20
-2.857823
 10
3.310428
 20
-3.14207
 10
3.142503
 20
-3.428036
 10
2.97921
 20
-3.713329
 10
2.819754
 20
-3.99672
 10
2.663115
 20
-4.277443
 10
2.508316
 20
-4.554745
 10
2.354422
 20
-4.827882
 10
2.200543
 20
-5.096122
 10
2.04583
 20
-5.358747
 10
1.889475
 20
-5.61506
 10
1.730707
 20
-5.864393
 10
1.568787
 20
-6.10612
 10
1.402999
 20
-6.339664
 10
1.232628
 20
-6.564526
 10
1.056079
 20
-6.781369
 10
0.870588
 20
-6.993174
 10
0.675005
 20
-7.202671
 10
0.469968
 20
-7.410681
 10
0.256375
 20
-7.617839
 10
0.035192
 20
-7.824808
 10
-0.192566
 20
-8.032289
 10
-0.379981
 20
-8.2
 10
-2.7
 20
-8.2
 10
-2.7
 20
-67.0
  0
LWPOLYLINE
  5
112
330
10E
100
AcDbEntity
  8
8
100
AcDbPolyline
 90
42
 70
1
 10
-1.7
 20
-9.2
 10
0.0
 20
-9.2
 10
0.23935780187133787
 20
-8.987708384861866
 10
0.47758879230871243
 20
-8.77452406700874
 10
0.7135661598781604
 20
-8.559554343725619
 10
0.9461630931457188
 20
-8.341906512297513
 10
1.1742527806774241
 20
-8.120687870009425
 10
1.3967084110393118
 20
-7.89500571414636
 10
1.612403172797421
 20
-7.6639673419933185
 10
1.8202102545177876
 20
-7.426680050835309
 10
2.0191348897293744
 20
-7.182354814884241
 10
2.2094364502462787
 20
-6.931187312353135
 10
2.3920673723731
 20
-6.673917390614753
 10
2.567987393783161
 20
-6.411290629812384
 10
2.7381562521497838
 20
-6.144052610089315
 10
2.903533685146293
 20
-5.87294891158883
 10
3.0650794304460085
 20
-5.59872511445422
 10
3.2237532257222545
 20
-5.322126798828773
 10
3.3805148086483525
 20
-5.0438995448557735
 10
3.5363239168976266
 20
-4.764788932678511
 10
3.6921402881433987
 20
-4.485540542440272
 10
3.8489236600589902
 20
-4.206899954284343
 10
4.007633770317725
 20
-3.9296127483540144
 10
4.169230190420503
 20
-3.6544243770791445
 10
4.33440603994992
 20
-3.381875508684699
 10
4.50304709449787
 20
-3.1118863193449062
 10
4.674886799832161
 20
-2.8442599106709463
 10
4.849658601720595
 20
-2.5787993842739994
 10
5.02709594593098
 20
-2.315307841765247
 10
5.206932278231118
 20
-2.0535883847558685
 10
5.388901044388817
 20
-1.7934441148570457
 10
5.57273569017188
 20
-1.5346781336799582
 10
5.758169661348113
 20
-1.2770935428357872
 10
5.944936403685322
 20
-1.0204934439357134
 10
6.132769362951308
 20
-0.7646809385909172
 10
6.321401984913881
 20
-0.5094591284125791
 10
6.510567715340843
 20
-0.25463111501187985
 10
6.7
 20
-0.0
 10
7.7
 20
-0.5
 10
3.7
 20
-12.2
 10
4.3
 20
-66.0
 10
-1.7
 20
-66.0
  0
LINE
  5
113
330
10E
100
AcDbEntity
  8
7
100
AcDbLine
 10
1.3
 20
-14.2
 30
0.0
 11
1.3
 21
-63.0
 31
0.0
  0
LINE
  5
114
330
10E
100
AcDbEntity
  8
7
100
AcDbLine
 10
1.3
 20
-63.0
 30
0.0
 11
0.8326979892296196
 21
-61.89472680719654
 31
0.0
  0
LINE
  5
115
330
10E
100
AcDbEntity
  8
7
100
AcDbLine
 10
1.3
 20
-63.0
 30
0.0
 11
1.7673020107703805
 21
-61.89472680719654
 31
0.0
  0
LINE
  5
116
330
10E
100
AcDbEntity
  8
7
100
AcDbLine
 10
1.3
 20
-14.2
 30
0.0
 11
1.7673020107703805
 21
-15.305273192803462
 31
0.0
  0
LINE
  5
117
330
10E
100
AcDbEntity
  8
7
100
AcDbLine
 10
1.3
 20
-14.2
 30
0.0
 11
0.8326979892296196
 21
-15.305273192803462
 31
0.0
  0
TEXT
  5
118
330
10E
100
AcDbEntity
  8
13
100
AcDbText
 10
3.3657065338876557
 20
-6.822190517476556
 30
0.0
 40
0.9
  1
VISTA DELANTERA #09
 72
1
 11
3.3657065338876557
 21
-6.822190517476556
 31
0.0
100
AcDbText
 73
2
  0
TEXT
  5
119
330
10E
100
AcDbEntity
  8
15
100
AcDbText
 10
3.3657065338876557
 20
-8.222190517476555
 30
0.0
 40
0.6
  1
T:XS  x2
 72
1
 11
3.3657065338876557
 21
-8.222190517476555
 31
0.0
100
AcDbText
 73
2
  0
ENDBLK
  5
110
330
10E
100
AcDbEntity
  8
0
100
AcDbBlockEnd
  0
BLOCK
  5
11D
330
11C
100
AcDbEntity
  8
0
100
AcDbBlockBegin
  2
P10_BOLSILLO
 70
0
 10
0.0
 20
0.0
 30
0.0
  3
P10_BOLSILLO
  1

  0
LWPOLYLINE
  5
11F
330
11C
100
AcDbEntity
  8
1
100
AcDbPolyline
 90
6
 70
1
 10
-1.0
 20
-10.271905
 10
6.0
 20
-14.681905
 10
13.0
 20
-10.271905
 10
13.0
 20
1.0
 10
-1.0
 20
1.0
 10
-1.0
 20
-10.271905
  0
LWPOLYLINE
  5
120
330
11C
100
AcDbEntity
  8
8
100
AcDbPolyline
 90
5
 70
1
 10
0.0
 20
-0.0
 10
12.0
 20
-0.0
 10
12.0
 20
-9.719999999999999
 10
6.0
 20
-13.5
 10
0.0
 20
-9.719999999999999
  0
LINE
  5
121
330
11C
100
AcDbEntity
  8
7
100
AcDbLine
 10
6.0
 20
-1.0
 30
0.0
 11
6.0
 21
-9.719999999999999
 31
0.0
  0
LINE
  5
122
330
11C
100
AcDbEntity
  8
7
100
AcDbLine
 10
6.0
 20
-9.719999999999999
 30
0.0
 11
5.53269798922962
 21
-8.614726807196536
 31
0.0
  0
LINE
  5
123
330
11C
100
AcDbEntity
  8
7
100
AcDbLine
 10
6.0
 20
-9.719999999999999
 30
0.0
 11
6.46730201077038
 21
-8.614726807196536
 31
0.0
  0
LINE
  5
124
330
11C
100
AcDbEntity
  8
7
100
AcDbLine
 10
6.0
 20
-1.0
 30
0.0
 11
6.46730201077038
 21
-2.105273192803462
 31
0.0
  0
LINE
  5
125
330
11C
100
AcDbEntity
  8
7
100
AcDbLine
 10
6.0
 20
-1.0
 30
0.0
 11
5.53269798922962
 21
-2.105273192803462
 31
0.0
  0
LINE
  5
126
330
11C
100
AcDbEntity
  8
11
100
AcDbLine
 10
0.0
 20
-7.219999999999999
 30
0.0
 11
12.0
 21
-7.219999999999999
 31
0.0
  0
TEXT
  5
127
330
11C
100
AcDbEntity
  8
13
100
AcDbText
 10
6.0
 20
-5.587999999999999
 30
0.0
 40
0.9
  1
BOLSILLO #10
 72
1
 11
6.0
 21
-5.587999999999999
 31
0.0
100
AcDbText
 73
2
  0
TEXT
  5
128
330
11C
100
AcDbEntity
  8
15
100
AcDbText
 10
6.0
 20
-6.9879999999999995
 30
0.0
 40
0.6
  1
T:XS  x1
 72
1
 11
6.0
 21
-6.9879999999999995
 31
0.0
100
AcDbText
 73
2
  0
ENDBLK
  5
11E
330
11C
100
AcDbEntity
  8
0
100
AcDbBlockEnd
  0
ENDSEC
  0
SECTION
  2
ENTITIES
  0
INSERT
  5
A2
330
17
100
AcDbEntity
  8
0
100
AcDbBlockReference
  2
P01_DELANTERO
 10
1.7
 20
-0.0
 30
0.0
  0
INSERT
  5
B1
330
17
100
AcDbEntity
  8
0
100
AcDbBlockReference
  2
P02_ESPALDA
 10
30.7
 20
10.0
 30
0.0
  0
INSERT
  5
C0
330
17
100
AcDbEntity
  8
0
100
AcDbBlockReference
  2
P03_CANESU
 10
59.7
 20
-0.0
 30
0.0
  0
INSERT
  5
D3
330
17
100
AcDbEntity
  8
0
100
AcDbBlockReference
  2
P04_MANGA
 10
99.65938444276424
 20
-0.0
 30
0.0
  0
INSERT
  5
E2
330
17
100
AcDbEntity
  8
0
100
AcDbBlockReference
  2
P05_PUNO
 10
121.59447115488497
 20
-0.0
 30
0.0
  0
INSERT
  5
F0
330
17
100
AcDbEntity
  8
0
100
AcDbBlockReference
  2
P06_TAPETA_MANGA
 10
149.59447115488496
 20
-0.0
 30
0.0
  0
INSERT
  5
FE
330
17
100
AcDbEntity
  8
0
100
AcDbBlockReference
  2
P07_CUELLO
 10
0.0
 20
-72.0
 30
0.0
  0
INSERT
  5
10C
330
17
100
AcDbEntity
  8
0
100
AcDbBlockReference
  2
P08_PIE_DE_CUELLO
 10
25.99402204067989
 20
-72.0
 30
0.0
  0
INSERT
  5
11A
330
17
100
AcDbEntity
  8
0
100
AcDbBlockReference
  2
P09_VISTA_DELANTERA
 10
54.188044081359784
 20
-72.0
 30
0.0
  0
INSERT
  5
129
330
17
100
AcDbEntity
  8
0
100
AcDbBlockReference
  2
P10_BOLSILLO
 10
67.88804408135978
 20
-72.0
 30
0.0
  0
ENDSEC
  0
SECTION
  2
OBJECTS
  0
DICTIONARY
  5
A
330
0
100
AcDbDictionary
281
1
  3
ACAD_COLOR
350
B
  3
ACAD_GROUP
350
C
  3
ACAD_LAYOUT
350
D
  3
ACAD_MATERIAL
350
E
  3
ACAD_MLEADERSTYLE
350
F
  3
ACAD_MLINESTYLE
350
10
  3
ACAD_PLOTSETTINGS
350
11
  3
ACAD_PLOTSTYLENAME
350
12
  3
ACAD_SCALELIST
350
14
  3
ACAD_TABLESTYLE
350
15
  3
ACAD_VISUALSTYLE
350
16
  3
EZDXF_META
350
2D
  0
DICTIONARY
  5
B
330
A
100
AcDbDictionary
281
1
  0
DICTIONARY
  5
C
330
A
100
AcDbDictionary
281
1
  0
DICTIONARY
  5
D
330
A
100
AcDbDictionary
281
1
  3
Model
350
1A
  3
Layout1
350
1E
  0
DICTIONARY
  5
E
330
A
100
AcDbDictionary
281
1
  3
ByBlock
350
1F
  3
ByLayer
350
20
  3
Global
350
21
  0
DICTIONARY
  5
F
330
A
100
AcDbDictionary
281
1
  3
Standard
350
2C
  0
DICTIONARY
  5
10
330
A
100
AcDbDictionary
281
1
  3
Standard
350
22
  0
DICTIONARY
  5
11
330
A
100
AcDbDictionary
281
1
  0
ACDBDICTIONARYWDFLT
  5
12
330
A
100
AcDbDictionary
281
1
  3
Normal
350
13
100
AcDbDictionaryWithDefault
340
13
  0
ACDBPLACEHOLDER
  5
13
330
12
  0
DICTIONARY
  5
14
330
A
100
AcDbDictionary
281
1
  0
DICTIONARY
  5
15
330
A
100
AcDbDictionary
281
1
  0
DICTIONARY
  5
16
330
A
100
AcDbDictionary
281
1
  3
2dWireframe
350
5A
  3
Basic
350
5B
  3
Brighten
350
5C
  3
ColorChange
350
5D
  3
Conceptual
350
5E
  3
Dim
350
5F
  3
EdgeColorOff
350
60
  3
Facepattern
350
61
  3
Flat
350
62
  3
FlatWithEdges
350
63
  3
Gouraud
350
64
  3
GouraudWithEdges
350
65
  3
Hidden
350
66
  3
JitterOff
350
67
  3
Linepattern
350
68
  3
Modeling
350
69
  3
OverhangOff
350
6A
  3
Realistic
350
6B
  3
Shaded
350
6C
  3
Shaded with edges
350
6D
  3
Shades of Gray
350
6E
  3
Sketchy
350
6F
  3
Thicken
350
70
  3
Wireframe
350
71
  3
X-Ray
350
72
  0
LAYOUT
  5
1A
330
D
100
AcDbPlotSettings
  1

  4
A3
  6

 40
7.5
 41
20.0
 42
7.5
 43
20.0
 44
420.0
 45
297.0
 46
0.0
 47
0.0
 48
0.0
 49
0.0
140
0.0
141
0.0
142
1.0
143
1.0
 70
1024
 72
1
 73
0
 74
5
  7

 75
16
 76
0
 77
2
 78
300
147
1.0
148
0.0
149
0.0
100
AcDbLayout
  1
Model
 70
1
 71
0
 10
0.0
 20
0.0
 11
420.0
 21
297.0
 12
0.0
 22
0.0
 32
0.0
 14
1e+20
 24
1e+20
 34
1e+20
 15
-1e+20
 25
-1e+20
 35
-1e+20
146
0.0
 13
0.0
 23
0.0
 33
0.0
 16
1.0
 26
0.0
 36
0.0
 17
0.0
 27
1.0
 37
0.0
 76
1
330
17
  0
LAYOUT
  5
1E
330
D
100
AcDbPlotSettings
  1

  4
A3
  6

 40
7.5
 41
20.0
 42
7.5
 43
20.0
 44
420.0
 45
297.0
 46
0.0
 47
0.0
 48
0.0
 49
0.0
140
0.0
141
0.0
142
1.0
143
1.0
 70
0
 72
1
 73
0
 74
5
  7

 75
16
 76
0
 77
2
 78
300
147
1.0
148
0.0
149
0.0
100
AcDbLayout
  1
Layout1
 70
1
 71
1
 10
0.0
 20
0.0
 11
420.0
 21
297.0
 12
0.0
 22
0.0
 32
0.0
 14
1e+20
 24
1e+20
 34
1e+20
 15
-1e+20
 25
-1e+20
 35
-1e+20
146
0.0
 13
0.0
 23
0.0
 33
0.0
 16
1.0
 26
0.0
 36
0.0
 17
0.0
 27
1.0
 37
0.0
 76
1
330
1B
  0
MATERIAL
  5
1F
102
{ACAD_REACTORS
330
E
102
}
330
E
100
AcDbMaterial
  1
ByBlock
  2

 70
0
 40
1.0
 71
1
 41
1.0
 91
-1023410177
 42
1.0
 72
1
  3

 73
1
 74
1
 75
1
 44
0.5
 73
0
 45
1.0
 46
1.0
 77
1
  4

 78
1
 79
1
170
1
 48
1.0
171
1
  6

172
1
173
1
174
1
140
1.0
141
1.0
175
1
  7

176
1
177
1
178
1
143
1.0
179
1
  8

270
1
271
1
272
1
145
1.0
146
1.0
273
1
  9

274
1
275
1
276
1
 42
1.0
 72
1
  3

 73
1
 74
1
 75
1
 94
63
  0
MATERIAL
  5
20
102
{ACAD_REACTORS
330
E
102
}
330
E
100
AcDbMaterial
  1
ByLayer
  2

 70
0
 40
1.0
 71
1
 41
1.0
 91
-1023410177
 42
1.0
 72
1
  3

 73
1
 74
1
 75
1
 44
0.5
 73
0
 45
1.0
 46
1.0
 77
1
  4

 78
1
 79
1
170
1
 48
1.0
171
1
  6

172
1
173
1
174
1
140
1.0
141
1.0
175
1
  7

176
1
177
1
178
1
143
1.0
179
1
  8

270
1
271
1
272
1
145
1.0
146
1.0
273
1
  9

274
1
275
1
276
1
 42
1.0
 72
1
  3

 73
1
 74
1
 75
1
 94
63
  0
MATERIAL
  5
21
102
{ACAD_REACTORS
330
E
102
}
330
E
100
AcDbMaterial
  1
Global
  2

 70
0
 40
1.0
 71
1
 41
1.0
 91
-1023410177
 42
1.0
 72
1
  3

 73
1
 74
1
 75
1
 44
0.5
 73
0
 45
1.0
 46
1.0
 77
1
  4

 78
1
 79
1
170
1
 48
1.0
171
1
  6

172
1
173
1
174
1
140
1.0
141
1.0
175
1
  7

176
1
177
1
178
1
143
1.0
179
1
  8

270
1
271
1
272
1
145
1.0
146
1.0
273
1
  9

274
1
275
1
276
1
 42
1.0
 72
1
  3

 73
1
 74
1
 75
1
 94
63
  0
MLINESTYLE
  5
22
102
{ACAD_REACTORS
330
10
102
}
330
10
100
AcDbMlineStyle
  2
Standard
 70
0
  3

 62
256
 51
90.0
 52
90.0
 71
2
 49
0.5
 62
256
  6
BYLAYER
 49
-0.5
 62
256
  6
BYLAYER
  0
MLEADERSTYLE
  5
2C
102
{ACAD_REACTORS
330
F
102
}
330
F
100
AcDbMLeaderStyle
179
2
170
2
171
1
172
0
 90
2
 40
0.0
 41
0.0
173
1
 91
-1056964608
 92
-2
290
1
 42
2.0
291
1
 43
8.0
  3
Standard
 44
4.0
300

342
29
174
1
175
1
176
0
178
1
 93
-1056964608
 45
4.0
292
0
297
0
 46
4.0
 94
-1056964608
 47
1.0
 49
1.0
140
1.0
294
1
141
0.0
177
0
142
1.0
295
0
296
0
143
3.75
271
0
272
9
273
9
  0
DICTIONARY
  5
2D
330
A
100
AcDbDictionary
280
1
281
1
  3
CREATED_BY_EZDXF
350
2E
  3
WRITTEN_BY_EZDXF
350
12D
  0
DICTIONARYVAR
  5
2E
330
2D
100
DictionaryVariables
280
0
  1
1.4.4 @ 2026-07-13T19:40:23.347712+00:00
  0
VISUALSTYLE
  5
5A
102
{ACAD_REACTORS
330
16
102
}
330
16
100
AcDbVisualStyle
  2
2dWireframe
 70
4
177
3
291
0
 70
58
 90
2
176
1
 90
2
176
1
 90
0
176
1
 90
0
176
1
 40
0.6
176
1
 40
30.0
176
1
 62
7
420
16777215
176
1
 90
1
176
1
 90
4
176
1
 62
7
176
1
 62
257
176
1
 90
1
176
1
 90
1
176
1
 40
1.0
176
1
 90
8
176
1
 62
7
176
1
 40
1.0
176
1
 90
1
176
1
 90
6
176
1
 90
2
176
1
 62
7
176
1
 90
5
176
1
 90
0
176
1
 90
0
176
1
290
0
176
1
 90
1
176
1
 40
0.0
176
1
 90
0
176
1
290
1
176
1
290
1
176
1
290
0
176
1
290
0
176
1
290
0
176
1
290
0
176
1
290
0
176
1
290
0
176
1
290
0
176
1
 90
50
176
1
 40
0.0
176
1
 40
1.0
176
1
 90
0
176
1
 62
18
420
0
176
1
 90
50
176
1
 90
3
176
1
 62
5
420
255
176
1
290
0
176
1
 90
50
176
1
 90
50
176
1
 90
50
176
1
290
0
176
1
 90
50
176
1
 62
256
176
0
 40
1.0
176
0
 90
2
176
1
  1
strokes_ogs.tif
176
1
290
0
176
1
 40
1.0
176
1
 40
1.0
176
1
  0
VISUALSTYLE
  5
5B
102
{ACAD_REACTORS
330
16
102
}
330
16
100
AcDbVisualStyle
  2
Basic
 70
7
177
3
291
1
 70
58
 90
2
176
1
 90
2
176
1
 90
0
176
1
 90
1
176
1
 40
0.6
176
1
 40
30.0
176
1
 62
7
420
16777215
176
1
 90
1
176
1
 90
4
176
1
 62
7
176
1
 62
257
176
1
 90
1
176
1
 90
1
176
1
 40
1.0
176
1
 90
8
176
1
 62
7
176
1
 40
1.0
176
1
 90
1
176
1
 90
6
176
1
 90
2
176
1
 62
7
176
1
 90
5
176
1
 90
0
176
1
 90
0
176
1
290
0
176
1
 90
1
176
1
 40
0.0
176
1
 90
0
176
1
290
0
176
1
290
1
176
1
290
1
176
1
290
0
176
1
290
0
176
1
290
0
176
1
290
0
176
1
290
0
176
1
290
0
176
1
 90
50
176
1
 40
0.0
176
1
 40
1.0
176
1
 90
0
176
1
 62
18
420
0
176
1
 90
50
176
1
 90
3
176
1
 62
5
420
255
176
1
290
0
176
1
 90
50
176
1
 90
50
176
1
 90
50
176
1
290
0
176
1
 90
50
176
1
 62
256
176
0
 40
1.0
176
0
 90
2
176
1
  1
strokes_ogs.tif
176
1
290
0
176
1
 40
1.0
176
1
 40
1.0
176
1
  0
VISUALSTYLE
  5
5C
102
{ACAD_REACTORS
330
16
102
}
330
16
100
AcDbVisualStyle
  2
Brighten
 70
12
177
3
291
1
 70
58
 90
2
176
1
 90
2
176
1
 90
0
176
1
 90
2
176
1
 40
0.6
176
1
 40
30.0
176
1
 62
7
420
16777215
176
1
 90
1
176
1
 90
4
176
1
 62
7
176
1
 62
257
176
1
 90
1
176
1
 90
1
176
1
 40
1.0
176
1
 90
8
176
1
 62
7
176
1
 40
1.0
176
1
 90
1
176
1
 90
6
176
1
 90
2
176
1
 62
7
176
1
 90
5
176
1
 90
0
176
1
 90
0
176
1
290
0
176
1
 90
1
176
1
 40
0.0
176
1
 90
0
176
1
290
0
176
1
290
1
176
1
290
1
176
1
290
0
176
1
290
0
176
1
290
0
176
1
290
0
176
1
290
0
176
1
290
0
176
1
 90
50
176
1
 40
0.0
176
1
 40
1.0
176
1
 90
0
176
1
 62
18
420
0
176
1
 90
50
176
1
 90
3
176
1
 62
5
420
255
176
1
290
0
176
1
 90
50
176
1
 90
50
176
1
 90
50
176
1
290
0
176
1
 90
50
176
1
 62
256
176
0
 40
1.0
176
0
 90
2
176
1
  1
strokes_ogs.tif
176
1
290
0
176
1
 40
1.0
176
1
 40
1.0
176
1
  0
VISUALSTYLE
  5
5D
102
{ACAD_REACTORS
330
16
102
}
330
16
100
AcDbVisualStyle
  2
ColorChange
 70
16
177
3
291
1
 70
58
 90
2
176
1
 90
2
176
1
 90
0
176
1
 90
2
176
1
 40
0.6
176
1
 40
30.0
176
1
 62
7
420
16777215
176
1
 90
1
176
1
 90
4
176
1
 62
7
176
1
 62
257
176
1
 90
1
176
1
 90
1
176
1
 40
1.0
176
1
 90
8
176
1
 62
7
176
1
 40
1.0
176
1
 90
1
176
1
 90
6
176
1
 90
2
176
1
 62
7
176
1
 90
5
176
1
 90
0
176
1
 90
0
176
1
290
0
176
1
 90
1
176
1
 40
0.0
176
1
 90
0
176
1
290
0
176
1
290
1
176
1
290
1
176
1
290
0
176
1
290
0
176
1
290
0
176
1
290
0
176
1
290
0
176
1
290
0
176
1
 90
50
176
1
 40
0.0
176
1
 40
1.0
176
1
 90
0
176
1
 62
18
420
0
176
1
 90
50
176
1
 90
3
176
1
 62
5
420
255
176
1
290
0
176
1
 90
50
176
1
 90
50
176
1
 90
50
176
1
290
0
176
1
 90
50
176
1
 62
256
176
0
 40
1.0
176
0
 90
2
176
1
  1
strokes_ogs.tif
176
1
290
0
176
1
 40
1.0
176
1
 40
1.0
176
1
  0
VISUALSTYLE
  5
5E
102
{ACAD_REACTORS
330
16
102
}
330
16
100
AcDbVisualStyle
  2
Conceptual
 70
9
177
3
291
0
 70
58
 90
2
176
1
 90
2
176
1
 90
0
176
1
 90
3
176
1
 40
0.6
176
1
 40
30.0
176
1
 62
7
420
16777215
176
1
 90
1
176
1
 90
4
176
1
 62
7
176
1
 62
257
176
1
 90
1
176
1
 90
1
176
1
 40
1.0
176
1
 90
8
176
1
 62
7
176
1
 40
1.0
176
1
 90
1
176
1
 90
6
176
1
 90
2
176
1
 62
7
176
1
 90
5
176
1
 90
0
176
1
 90
0
176
1
290
0
176
1
 90
1
176
1
 40
0.0
176
1
 90
0
176
1
290
0
176
1
290
1
176
1
290
1
176
1
290
0
176
1
290
0
176
1
290
0
176
1
290
0
176
1
290
0
176
1
290
0
176
1
 90
50
176
1
 40
0.0
176
1
 40
1.0
176
1
 90
0
176
1
 62
18
420
0
176
1
 90
50
176
1
 90
3
176
1
 62
5
420
255
176
1
290
0
176
1
 90
50
176
1
 90
50
176
1
 90
50
176
1
290
0
176
1
 90
50
176
1
 62
256
176
0
 40
1.0
176
0
 90
2
176
1
  1
strokes_ogs.tif
176
1
290
0
176
1
 40
1.0
176
1
 40
1.0
176
1
  0
VISUALSTYLE
  5
5F
102
{ACAD_REACTORS
330
16
102
}
330
16
100
AcDbVisualStyle
  2
Dim
 70
11
177
3
291
1
 70
58
 90
2
176
1
 90
2
176
1
 90
0
176
1
 90
2
176
1
 40
0.6
176
1
 40
30.0
176
1
 62
7
420
16777215
176
1
 90
1
176
1
 90
4
176
1
 62
7
176
1
 62
257
176
1
 90
1
176
1
 90
1
176
1
 40
1.0
176
1
 90
8
176
1
 62
7
176
1
 40
1.0
176
1
 90
1
176
1
 90
6
176
1
 90
2
176
1
 62
7
176
1
 90
5
176
1
 90
0
176
1
 90
0
176
1
290
0
176
1
 90
1
176
1
 40
0.0
176
1
 90
0
176
1
290
0
176
1
290
1
176
1
290
1
176
1
290
0
176
1
290
0
176
1
290
0
176
1
290
0
176
1
290
0
176
1
290
0
176
1
 90
50
176
1
 40
0.0
176
1
 40
1.0
176
1
 90
0
176
1
 62
18
420
0
176
1
 90
50
176
1
 90
3
176
1
 62
5
420
255
176
1
290
0
176
1
 90
50
176
1
 90
50
176
1
 90
50
176
1
290
0
176
1
 90
50
176
1
 62
256
176
0
 40
1.0
176
0
 90
2
176
1
  1
strokes_ogs.tif
176
1
290
0
176
1
 40
1.0
176
1
 40
1.0
176
1
  0
VISUALSTYLE
  5
60
102
{ACAD_REACTORS
330
16
102
}
330
16
100
AcDbVisualStyle
  2
EdgeColorOff
 70
22
177
3
291
1
 70
58
 90
2
176
1
 90
2
176
1
 90
0
176
1
 90
2
176
1
 40
0.6
176
1
 40
30.0
176
1
 62
7
420
16777215
176
1
 90
1
176
1
 90
4
176
1
 62
7
176
1
 62
257
176
1
 90
1
176
1
 90
1
176
1
 40
1.0
176
1
 90
8
176
1
 62
7
176
1
 40
1.0
176
1
 90
1
176
1
 90
6
176
1
 90
2
176
1
 62
7
176
1
 90
5
176
1
 90
0
176
1
 90
0
176
1
290
0
176
1
 90
1
176
1
 40
0.0
176
1
 90
0
176
1
290
0
176
1
290
1
176
1
290
1
176
1
290
0
176
1
290
0
176
1
290
0
176
1
290
0
176
1
290
0
176
1
290
0
176
1
 90
50
176
1
 40
0.0
176
1
 40
1.0
176
1
 90
0
176
1
 62
18
420
0
176
1
 90
50
176
1
 90
3
176
1
 62
5
420
255
176
1
290
0
176
1
 90
50
176
1
 90
50
176
1
 90
50
176
1
290
0
176
1
 90
50
176
1
 62
256
176
0
 40
1.0
176
0
 90
2
176
1
  1
strokes_ogs.tif
176
1
290
0
176
1
 40
1.0
176
1
 40
1.0
176
1
  0
VISUALSTYLE
  5
61
102
{ACAD_REACTORS
330
16
102
}
330
16
100
AcDbVisualStyle
  2
Facepattern
 70
15
177
3
291
1
 70
58
 90
2
176
1
 90
2
176
1
 90
0
176
1
 90
2
176
1
 40
0.6
176
1
 40
30.0
176
1
 62
7
420
16777215
176
1
 90
1
176
1
 90
4
176
1
 62
7
176
1
 62
257
176
1
 90
1
176
1
 90
1
176
1
 40
1.0
176
1
 90
8
176
1
 62
7
176
1
 40
1.0
176
1
 90
1
176
1
 90
6
176
1
 90
2
176
1
 62
7
176
1
 90
5
176
1
 90
0
176
1
 90
0
176
1
290
0
176
1
 90
1
176
1
 40
0.0
176
1
 90
0
176
1
290
0
176
1
290
1
176
1
290
1
176
1
290
0
176
1
290
0
176
1
290
0
176
1
290
0
176
1
290
0
176
1
290
0
176
1
 90
50
176
1
 40
0.0
176
1
 40
1.0
176
1
 90
0
176
1
 62
18
420
0
176
1
 90
50
176
1
 90
3
176
1
 62
5
420
255
176
1
290
0
176
1
 90
50
176
1
 90
50
176
1
 90
50
176
1
290
0
176
1
 90
50
176
1
 62
256
176
0
 40
1.0
176
0
 90
2
176
1
  1
strokes_ogs.tif
176
1
290
0
176
1
 40
1.0
176
1
 40
1.0
176
1
  0
VISUALSTYLE
  5
62
102
{ACAD_REACTORS
330
16
102
}
330
16
100
AcDbVisualStyle
  2
Flat
 70
0
177
3
291
1
 70
58
 90
2
176
1
 90
2
176
1
 90
0
176
1
 90
2
176
1
 40
0.6
176
1
 40
30.0
176
1
 62
7
420
16777215
176
1
 90
1
176
1
 90
4
176
1
 62
7
176
1
 62
257
176
1
 90
1
176
1
 90
1
176
1
 40
1.0
176
1
 90
8
176
1
 62
7
176
1
 40
1.0
176
1
 90
1
176
1
 90
6
176
1
 90
2
176
1
 62
7
176
1
 90
5
176
1
 90
0
176
1
 90
0
176
1
290
0
176
1
 90
1
176
1
 40
0.0
176
1
 90
0
176
1
290
0
176
1
290
1
176
1
290
1
176
1
290
0
176
1
290
0
176
1
290
0
176
1
290
0
176
1
290
0
176
1
290
0
176
1
 90
50
176
1
 40
0.0
176
1
 40
1.0
176
1
 90
0
176
1
 62
18
420
0
176
1
 90
50
176
1
 90
3
176
1
 62
5
420
255
176
1
290
0
176
1
 90
50
176
1
 90
50
176
1
 90
50
176
1
290
0
176
1
 90
50
176
1
 62
256
176
0
 40
1.0
176
0
 90
2
176
1
  1
strokes_ogs.tif
176
1
290
0
176
1
 40
1.0
176
1
 40
1.0
176
1
  0
VISUALSTYLE
  5
63
102
{ACAD_REACTORS
330
16
102
}
330
16
100
AcDbVisualStyle
  2
FlatWithEdges
 70
1
177
3
291
1
 70
58
 90
2
176
1
 90
2
176
1
 90
0
176
1
 90
2
176
1
 40
0.6
176
1
 40
30.0
176
1
 62
7
420
16777215
176
1
 90
1
176
1
 90
4
176
1
 62
7
176
1
 62
257
176
1
 90
1
176
1
 90
1
176
1
 40
1.0
176
1
 90
8
176
1
 62
7
176
1
 40
1.0
176
1
 90
1
176
1
 90
6
176
1
 90
2
176
1
 62
7
176
1
 90
5
176
1
 90
0
176
1
 90
0
176
1
290
0
176
1
 90
1
176
1
 40
0.0
176
1
 90
0
176
1
290
0
176
1
290
1
176
1
290
1
176
1
290
0
176
1
290
0
176
1
290
0
176
1
290
0
176
1
290
0
176
1
290
0
176
1
 90
50
176
1
 40
0.0
176
1
 40
1.0
176
1
 90
0
176
1
 62
18
420
0
176
1
 90
50
176
1
 90
3
176
1
 62
5
420
255
176
1
290
0
176
1
 90
50
176
1
 90
50
176
1
 90
50
176
1
290
0
176
1
 90
50
176
1
 62
256
176
0
 40
1.0
176
0
 90
2
176
1
  1
strokes_ogs.tif
176
1
290
0
176
1
 40
1.0
176
1
 40
1.0
176
1
  0
VISUALSTYLE
  5
64
102
{ACAD_REACTORS
330
16
102
}
330
16
100
AcDbVisualStyle
  2
Gouraud
 70
2
177
3
291
1
 70
58
 90
2
176
1
 90
2
176
1
 90
0
176
1
 90
2
176
1
 40
0.6
176
1
 40
30.0
176
1
 62
7
420
16777215
176
1
 90
1
176
1
 90
4
176
1
 62
7
176
1
 62
257
176
1
 90
1
176
1
 90
1
176
1
 40
1.0
176
1
 90
8
176
1
 62
7
176
1
 40
1.0
176
1
 90
1
176
1
 90
6
176
1
 90
2
176
1
 62
7
176
1
 90
5
176
1
 90
0
176
1
 90
0
176
1
290
0
176
1
 90
1
176
1
 40
0.0
176
1
 90
0
176
1
290
0
176
1
290
1
176
1
290
1
176
1
290
0
176
1
290
0
176
1
290
0
176
1
290
0
176
1
290
0
176
1
290
0
176
1
 90
50
176
1
 40
0.0
176
1
 40
1.0
176
1
 90
0
176
1
 62
18
420
0
176
1
 90
50
176
1
 90
3
176
1
 62
5
420
255
176
1
290
0
176
1
 90
50
176
1
 90
50
176
1
 90
50
176
1
290
0
176
1
 90
50
176
1
 62
256
176
0
 40
1.0
176
0
 90
2
176
1
  1
strokes_ogs.tif
176
1
290
0
176
1
 40
1.0
176
1
 40
1.0
176
1
  0
VISUALSTYLE
  5
65
102
{ACAD_REACTORS
330
16
102
}
330
16
100
AcDbVisualStyle
  2
GouraudWithEdges
 70
3
177
3
291
1
 70
58
 90
2
176
1
 90
2
176
1
 90
0
176
1
 90
2
176
1
 40
0.6
176
1
 40
30.0
176
1
 62
7
420
16777215
176
1
 90
1
176
1
 90
4
176
1
 62
7
176
1
 62
257
176
1
 90
1
176
1
 90
1
176
1
 40
1.0
176
1
 90
8
176
1
 62
7
176
1
 40
1.0
176
1
 90
1
176
1
 90
6
176
1
 90
2
176
1
 62
7
176
1
 90
5
176
1
 90
0
176
1
 90
0
176
1
290
0
176
1
 90
1
176
1
 40
0.0
176
1
 90
0
176
1
290
0
176
1
290
1
176
1
290
1
176
1
290
0
176
1
290
0
176
1
290
0
176
1
290
0
176
1
290
0
176
1
290
0
176
1
 90
50
176
1
 40
0.0
176
1
 40
1.0
176
1
 90
0
176
1
 62
18
420
0
176
1
 90
50
176
1
 90
3
176
1
 62
5
420
255
176
1
290
0
176
1
 90
50
176
1
 90
50
176
1
 90
50
176
1
290
0
176
1
 90
50
176
1
 62
256
176
0
 40
1.0
176
0
 90
2
176
1
  1
strokes_ogs.tif
176
1
290
0
176
1
 40
1.0
176
1
 40
1.0
176
1
  0
VISUALSTYLE
  5
66
102
{ACAD_REACTORS
330
16
102
}
330
16
100
AcDbVisualStyle
  2
Hidden
 70
6
177
3
291
0
 70
58
 90
2
176
1
 90
2
176
1
 90
0
176
1
 90
1
176
1
 40
0.6
176
1
 40
30.0
176
1
 62
7
420
16777215
176
1
 90
1
176
1
 90
4
176
1
 62
7
176
1
 62
257
176
1
 90
1
176
1
 90
1
176
1
 40
1.0
176
1
 90
8
176
1
 62
7
176
1
 40
1.0
176
1
 90
1
176
1
 90
6
176
1
 90
2
176
1
 62
7
176
1
 90
5
176
1
 90
0
176
1
 90
0
176
1
290
0
176
1
 90
1
176
1
 40
0.0
176
1
 90
0
176
1
290
0
176
1
290
1
176
1
290
1
176
1
290
0
176
1
290
0
176
1
290
0
176
1
290
0
176
1
290
0
176
1
290
0
176
1
 90
50
176
1
 40
0.0
176
1
 40
1.0
176
1
 90
0
176
1
 62
18
420
0
176
1
 90
50
176
1
 90
3
176
1
 62
5
420
255
176
1
290
0
176
1
 90
50
176
1
 90
50
176
1
 90
50
176
1
290
0
176
1
 90
50
176
1
 62
256
176
0
 40
1.0
176
0
 90
2
176
1
  1
strokes_ogs.tif
176
1
290
0
176
1
 40
1.0
176
1
 40
1.0
176
1
  0
VISUALSTYLE
  5
67
102
{ACAD_REACTORS
330
16
102
}
330
16
100
AcDbVisualStyle
  2
JitterOff
 70
20
177
3
291
1
 70
58
 90
2
176
1
 90
2
176
1
 90
0
176
1
 90
2
176
1
 40
0.6
176
1
 40
30.0
176
1
 62
7
420
16777215
176
1
 90
1
176
1
 90
4
176
1
 62
7
176
1
 62
257
176
1
 90
1
176
1
 90
1
176
1
 40
1.0
176
1
 90
8
176
1
 62
7
176
1
 40
1.0
176
1
 90
1
176
1
 90
6
176
1
 90
2
176
1
 62
7
176
1
 90
5
176
1
 90
0
176
1
 90
0
176
1
290
0
176
1
 90
1
176
1
 40
0.0
176
1
 90
0
176
1
290
0
176
1
290
1
176
1
290
1
176
1
290
0
176
1
290
0
176
1
290
0
176
1
290
0
176
1
290
0
176
1
290
0
176
1
 90
50
176
1
 40
0.0
176
1
 40
1.0
176
1
 90
0
176
1
 62
18
420
0
176
1
 90
50
176
1
 90
3
176
1
 62
5
420
255
176
1
290
0
176
1
 90
50
176
1
 90
50
176
1
 90
50
176
1
290
0
176
1
 90
50
176
1
 62
256
176
0
 40
1.0
176
0
 90
2
176
1
  1
strokes_ogs.tif
176
1
290
0
176
1
 40
1.0
176
1
 40
1.0
176
1
  0
VISUALSTYLE
  5
68
102
{ACAD_REACTORS
330
16
102
}
330
16
100
AcDbVisualStyle
  2
Linepattern
 70
14
177
3
291
1
 70
58
 90
2
176
1
 90
2
176
1
 90
0
176
1
 90
2
176
1
 40
0.6
176
1
 40
30.0
176
1
 62
7
420
16777215
176
1
 90
1
176
1
 90
4
176
1
 62
7
176
1
 62
257
176
1
 90
1
176
1
 90
1
176
1
 40
1.0
176
1
 90
8
176
1
 62
7
176
1
 40
1.0
176
1
 90
1
176
1
 90
6
176
1
 90
2
176
1
 62
7
176
1
 90
5
176
1
 90
0
176
1
 90
0
176
1
290
0
176
1
 90
1
176
1
 40
0.0
176
1
 90
0
176
1
290
0
176
1
290
1
176
1
290
1
176
1
290
0
176
1
290
0
176
1
290
0
176
1
290
0
176
1
290
0
176
1
290
0
176
1
 90
50
176
1
 40
0.0
176
1
 40
1.0
176
1
 90
0
176
1
 62
18
420
0
176
1
 90
50
176
1
 90
3
176
1
 62
5
420
255
176
1
290
0
176
1
 90
50
176
1
 90
50
176
1
 90
50
176
1
290
0
176
1
 90
50
176
1
 62
256
176
0
 40
1.0
176
0
 90
2
176
1
  1
strokes_ogs.tif
176
1
290
0
176
1
 40
1.0
176
1
 40
1.0
176
1
  0
VISUALSTYLE
  5
69
102
{ACAD_REACTORS
330
16
102
}
330
16
100
AcDbVisualStyle
  2
Modeling
 70
10
177
3
291
0
 70
58
 90
2
176
1
 90
2
176
1
 90
0
176
1
 90
2
176
1
 40
0.6
176
1
 40
30.0
176
1
 62
7
420
16777215
176
1
 90
1
176
1
 90
4
176
1
 62
7
176
1
 62
257
176
1
 90
1
176
1
 90
1
176
1
 40
1.0
176
1
 90
8
176
1
 62
7
176
1
 40
1.0
176
1
 90
1
176
1
 90
6
176
1
 90
2
176
1
 62
7
176
1
 90
5
176
1
 90
0
176
1
 90
0
176
1
290
0
176
1
 90
1
176
1
 40
0.0
176
1
 90
0
176
1
290
0
176
1
290
1
176
1
290
1
176
1
290
0
176
1
290
0
176
1
290
0
176
1
290
0
176
1
290
0
176
1
290
0
176
1
 90
50
176
1
 40
0.0
176
1
 40
1.0
176
1
 90
0
176
1
 62
18
420
0
176
1
 90
50
176
1
 90
3
176
1
 62
5
420
255
176
1
290
0
176
1
 90
50
176
1
 90
50
176
1
 90
50
176
1
290
0
176
1
 90
50
176
1
 62
256
176
0
 40
1.0
176
0
 90
2
176
1
  1
strokes_ogs.tif
176
1
290
0
176
1
 40
1.0
176
1
 40
1.0
176
1
  0
VISUALSTYLE
  5
6A
102
{ACAD_REACTORS
330
16
102
}
330
16
100
AcDbVisualStyle
  2
OverhangOff
 70
21
177
3
291
1
 70
58
 90
2
176
1
 90
2
176
1
 90
0
176
1
 90
2
176
1
 40
0.6
176
1
 40
30.0
176
1
 62
7
420
16777215
176
1
 90
1
176
1
 90
4
176
1
 62
7
176
1
 62
257
176
1
 90
1
176
1
 90
1
176
1
 40
1.0
176
1
 90
8
176
1
 62
7
176
1
 40
1.0
176
1
 90
1
176
1
 90
6
176
1
 90
2
176
1
 62
7
176
1
 90
5
176
1
 90
0
176
1
 90
0
176
1
290
0
176
1
 90
1
176
1
 40
0.0
176
1
 90
0
176
1
290
0
176
1
290
1
176
1
290
1
176
1
290
0
176
1
290
0
176
1
290
0
176
1
290
0
176
1
290
0
176
1
290
0
176
1
 90
50
176
1
 40
0.0
176
1
 40
1.0
176
1
 90
0
176
1
 62
18
420
0
176
1
 90
50
176
1
 90
3
176
1
 62
5
420
255
176
1
290
0
176
1
 90
50
176
1
 90
50
176
1
 90
50
176
1
290
0
176
1
 90
50
176
1
 62
256
176
0
 40
1.0
176
0
 90
2
176
1
  1
strokes_ogs.tif
176
1
290
0
176
1
 40
1.0
176
1
 40
1.0
176
1
  0
VISUALSTYLE
  5
6B
102
{ACAD_REACTORS
330
16
102
}
330
16
100
AcDbVisualStyle
  2
Realistic
 70
8
177
3
291
0
 70
58
 90
2
176
1
 90
2
176
1
 90
0
176
1
 90
2
176
1
 40
0.6
176
1
 40
30.0
176
1
 62
7
420
16777215
176
1
 90
1
176
1
 90
4
176
1
 62
7
176
1
 62
257
176
1
 90
1
176
1
 90
1
176
1
 40
1.0
176
1
 90
8
176
1
 62
7
176
1
 40
1.0
176
1
 90
1
176
1
 90
6
176
1
 90
2
176
1
 62
7
176
1
 90
5
176
1
 90
0
176
1
 90
0
176
1
290
0
176
1
 90
1
176
1
 40
0.0
176
1
 90
0
176
1
290
0
176
1
290
1
176
1
290
1
176
1
290
0
176
1
290
0
176
1
290
0
176
1
290
0
176
1
290
0
176
1
290
0
176
1
 90
50
176
1
 40
0.0
176
1
 40
1.0
176
1
 90
0
176
1
 62
18
420
0
176
1
 90
50
176
1
 90
3
176
1
 62
5
420
255
176
1
290
0
176
1
 90
50
176
1
 90
50
176
1
 90
50
176
1
290
0
176
1
 90
50
176
1
 62
256
176
0
 40
1.0
176
0
 90
2
176
1
  1
strokes_ogs.tif
176
1
290
0
176
1
 40
1.0
176
1
 40
1.0
176
1
  0
VISUALSTYLE
  5
6C
102
{ACAD_REACTORS
330
16
102
}
330
16
100
AcDbVisualStyle
  2
Shaded
 70
27
177
3
291
0
 70
58
 90
2
176
1
 90
2
176
1
 90
0
176
1
 90
2
176
1
 40
0.6
176
1
 40
30.0
176
1
 62
7
420
16777215
176
1
 90
1
176
1
 90
4
176
1
 62
7
176
1
 62
257
176
1
 90
1
176
1
 90
1
176
1
 40
1.0
176
1
 90
8
176
1
 62
7
176
1
 40
1.0
176
1
 90
1
176
1
 90
6
176
1
 90
2
176
1
 62
7
176
1
 90
5
176
1
 90
0
176
1
 90
0
176
1
290
0
176
1
 90
1
176
1
 40
0.0
176
1
 90
0
176
1
290
0
176
1
290
1
176
1
290
1
176
1
290
0
176
1
290
0
176
1
290
0
176
1
290
0
176
1
290
0
176
1
290
0
176
1
 90
50
176
1
 40
0.0
176
1
 40
1.0
176
1
 90
0
176
1
 62
18
420
0
176
1
 90
50
176
1
 90
3
176
1
 62
5
420
255
176
1
290
0
176
1
 90
50
176
1
 90
50
176
1
 90
50
176
1
290
0
176
1
 90
50
176
1
 62
256
176
0
 40
1.0
176
0
 90
2
176
1
  1
strokes_ogs.tif
176
1
290
0
176
1
 40
1.0
176
1
 40
1.0
176
1
  0
VISUALSTYLE
  5
6D
102
{ACAD_REACTORS
330
16
102
}
330
16
100
AcDbVisualStyle
  2
Shaded with edges
 70
26
177
3
291
0
 70
58
 90
2
176
1
 90
2
176
1
 90
0
176
1
 90
2
176
1
 40
0.6
176
1
 40
30.0
176
1
 62
7
420
16777215
176
1
 90
1
176
1
 90
4
176
1
 62
7
176
1
 62
257
176
1
 90
1
176
1
 90
1
176
1
 40
1.0
176
1
 90
8
176
1
 62
7
176
1
 40
1.0
176
1
 90
1
176
1
 90
6
176
1
 90
2
176
1
 62
7
176
1
 90
5
176
1
 90
0
176
1
 90
0
176
1
290
0
176
1
 90
1
176
1
 40
0.0
176
1
 90
0
176
1
290
0
176
1
290
1
176
1
290
1
176
1
290
0
176
1
290
0
176
1
290
0
176
1
290
0
176
1
290
0
176
1
290
0
176
1
 90
50
176
1
 40
0.0
176
1
 40
1.0
176
1
 90
0
176
1
 62
18
420
0
176
1
 90
50
176
1
 90
3
176
1
 62
5
420
255
176
1
290
0
176
1
 90
50
176
1
 90
50
176
1
 90
50
176
1
290
0
176
1
 90
50
176
1
 62
256
176
0
 40
1.0
176
0
 90
2
176
1
  1
strokes_ogs.tif
176
1
290
0
176
1
 40
1.0
176
1
 40
1.0
176
1
  0
VISUALSTYLE
  5
6E
102
{ACAD_REACTORS
330
16
102
}
330
16
100
AcDbVisualStyle
  2
Shades of Gray
 70
23
177
3
291
0
 70
58
 90
2
176
1
 90
2
176
1
 90
0
176
1
 90
2
176
1
 40
0.6
176
1
 40
30.0
176
1
 62
7
420
16777215
176
1
 90
1
176
1
 90
4
176
1
 62
7
176
1
 62
257
176
1
 90
1
176
1
 90
1
176
1
 40
1.0
176
1
 90
8
176
1
 62
7
176
1
 40
1.0
176
1
 90
1
176
1
 90
6
176
1
 90
2
176
1
 62
7
176
1
 90
5
176
1
 90
0
176
1
 90
0
176
1
290
0
176
1
 90
1
176
1
 40
0.0
176
1
 90
0
176
1
290
0
176
1
290
1
176
1
290
1
176
1
290
0
176
1
290
0
176
1
290
0
176
1
290
0
176
1
290
0
176
1
290
0
176
1
 90
50
176
1
 40
0.0
176
1
 40
1.0
176
1
 90
0
176
1
 62
18
420
0
176
1
 90
50
176
1
 90
3
176
1
 62
5
420
255
176
1
290
0
176
1
 90
50
176
1
 90
50
176
1
 90
50
176
1
290
0
176
1
 90
50
176
1
 62
256
176
0
 40
1.0
176
0
 90
2
176
1
  1
strokes_ogs.tif
176
1
290
0
176
1
 40
1.0
176
1
 40
1.0
176
1
  0
VISUALSTYLE
  5
6F
102
{ACAD_REACTORS
330
16
102
}
330
16
100
AcDbVisualStyle
  2
Sketchy
 70
24
177
3
291
0
 70
58
 90
2
176
1
 90
2
176
1
 90
0
176
1
 90
1
176
1
 40
0.6
176
1
 40
30.0
176
1
 62
7
420
16777215
176
1
 90
1
176
1
 90
4
176
1
 62
7
176
1
 62
257
176
1
 90
1
176
1
 90
1
176
1
 40
1.0
176
1
 90
8
176
1
 62
7
176
1
 40
1.0
176
1
 90
1
176
1
 90
6
176
1
 90
2
176
1
 62
7
176
1
 90
5
176
1
 90
0
176
1
 90
0
176
1
290
0
176
1
 90
1
176
1
 40
0.0
176
1
 90
0
176
1
290
0
176
1
290
1
176
1
290
1
176
1
290
0
176
1
290
0
176
1
290
0
176
1
290
0
176
1
290
0
176
1
290
0
176
1
 90
50
176
1
 40
0.0
176
1
 40
1.0
176
1
 90
0
176
1
 62
18
420
0
176
1
 90
50
176
1
 90
3
176
1
 62
5
420
255
176
1
290
0
176
1
 90
50
176
1
 90
50
176
1
 90
50
176
1
290
0
176
1
 90
50
176
1
 62
256
176
0
 40
1.0
176
0
 90
2
176
1
  1
strokes_ogs.tif
176
1
290
0
176
1
 40
1.0
176
1
 40
1.0
176
1
  0
VISUALSTYLE
  5
70
102
{ACAD_REACTORS
330
16
102
}
330
16
100
AcDbVisualStyle
  2
Thicken
 70
13
177
3
291
1
 70
58
 90
2
176
1
 90
2
176
1
 90
0
176
1
 90
2
176
1
 40
0.6
176
1
 40
30.0
176
1
 62
7
420
16777215
176
1
 90
1
176
1
 90
4
176
1
 62
7
176
1
 62
257
176
1
 90
1
176
1
 90
1
176
1
 40
1.0
176
1
 90
8
176
1
 62
7
176
1
 40
1.0
176
1
 90
1
176
1
 90
6
176
1
 90
2
176
1
 62
7
176
1
 90
5
176
1
 90
0
176
1
 90
0
176
1
290
0
176
1
 90
1
176
1
 40
0.0
176
1
 90
0
176
1
290
0
176
1
290
1
176
1
290
1
176
1
290
0
176
1
290
0
176
1
290
0
176
1
290
0
176
1
290
0
176
1
290
0
176
1
 90
50
176
1
 40
0.0
176
1
 40
1.0
176
1
 90
0
176
1
 62
18
420
0
176
1
 90
50
176
1
 90
3
176
1
 62
5
420
255
176
1
290
0
176
1
 90
50
176
1
 90
50
176
1
 90
50
176
1
290
0
176
1
 90
50
176
1
 62
256
176
0
 40
1.0
176
0
 90
2
176
1
  1
strokes_ogs.tif
176
1
290
0
176
1
 40
1.0
176
1
 40
1.0
176
1
  0
VISUALSTYLE
  5
71
102
{ACAD_REACTORS
330
16
102
}
330
16
100
AcDbVisualStyle
  2
Wireframe
 70
5
177
3
291
0
 70
58
 90
2
176
1
 90
2
176
1
 90
0
176
1
 90
0
176
1
 40
0.6
176
1
 40
30.0
176
1
 62
7
420
16777215
176
1
 90
1
176
1
 90
4
176
1
 62
7
176
1
 62
257
176
1
 90
1
176
1
 90
1
176
1
 40
1.0
176
1
 90
8
176
1
 62
7
176
1
 40
1.0
176
1
 90
1
176
1
 90
6
176
1
 90
2
176
1
 62
7
176
1
 90
5
176
1
 90
0
176
1
 90
0
176
1
290
0
176
1
 90
1
176
1
 40
0.0
176
1
 90
0
176
1
290
0
176
1
290
1
176
1
290
1
176
1
290
0
176
1
290
0
176
1
290
0
176
1
290
0
176
1
290
0
176
1
290
0
176
1
 90
50
176
1
 40
0.0
176
1
 40
1.0
176
1
 90
0
176
1
 62
18
420
0
176
1
 90
50
176
1
 90
3
176
1
 62
5
420
255
176
1
290
0
176
1
 90
50
176
1
 90
50
176
1
 90
50
176
1
290
0
176
1
 90
50
176
1
 62
256
176
0
 40
1.0
176
0
 90
2
176
1
  1
strokes_ogs.tif
176
1
290
0
176
1
 40
1.0
176
1
 40
1.0
176
1
  0
VISUALSTYLE
  5
72
102
{ACAD_REACTORS
330
16
102
}
330
16
100
AcDbVisualStyle
  2
X-Ray
 70
25
177
3
291
0
 70
58
 90
2
176
1
 90
2
176
1
 90
0
176
1
 90
2
176
1
 40
0.5
176
1
 40
30.0
176
1
 62
7
420
16777215
176
1
 90
1
176
1
 90
4
176
1
 62
7
176
1
 62
257
176
1
 90
1
176
1
 90
1
176
1
 40
1.0
176
1
 90
8
176
1
 62
7
176
1
 40
1.0
176
1
 90
1
176
1
 90
6
176
1
 90
2
176
1
 62
7
176
1
 90
5
176
1
 90
0
176
1
 90
0
176
1
290
0
176
1
 90
1
176
1
 40
0.0
176
1
 90
0
176
1
290
0
176
1
290
1
176
1
290
1
176
1
290
0
176
1
290
0
176
1
290
0
176
1
290
0
176
1
290
0
176
1
290
0
176
1
 90
50
176
1
 40
0.0
176
1
 40
1.0
176
1
 90
0
176
1
 62
18
420
0
176
1
 90
50
176
1
 90
3
176
1
 62
5
420
255
176
1
290
0
176
1
 90
50
176
1
 90
50
176
1
 90
50
176
1
290
0
176
1
 90
50
176
1
 62
256
176
0
 40
1.0
176
0
 90
2
176
1
  1
strokes_ogs.tif
176
1
290
0
176
1
 40
1.0
176
1
 40
1.0
176
1
  0
DICTIONARYVAR
  5
12D
330
2D
100
DictionaryVariables
280
0
  1
1.4.4 @ 2026-07-13T19:40:23.367432+00:00
  0
ENDSEC
  0
EOF
