<?xml version="1.0" encoding="utf-8" ?>
<svg baseProfile="full" height="218.73765500000002cm" version="1.1" viewBox="0 0 118.0 218.73765500000002" width="118.0cm" xmlns="http://www.w3.org/2000/svg" xmlns:ev="http://www.w3.org/2001/xml-events" xmlns:xlink="http://www.w3.org/1999/xlink"><defs /><rect fill="#f7f3ea" height="210.73765500000002" stroke="#333" stroke-width="0.15" width="110.0" x="4.0" y="4.0" /><text fill="#000" font-family="sans-serif" font-size="1.4" x="4.0" y="3.0">PLANO DE CORTE — ancho 110 cm — largo 2.11 m</text><polygon fill="#cfe3f7" fill-opacity="0.5" points="4.0,72.269137 12.011215,72.269137 11.401855000000001,17.629927000000002 15.628979000000001,5.265592 13.097794,4.0 12.407931000000001,4.927299 12.217832000000001,5.1833849999999995 12.027648,5.4407060000000005 11.837652,5.699464 11.64812,5.959863 11.459331,6.222108 11.271567000000001,6.4864049999999995 11.085113,6.752962 10.900256,7.021988 10.717289000000001,7.293691 10.536506,7.568282 10.358207,7.845969 10.182694,8.12696 10.010428000000001,8.411207000000001 9.842503,8.697173 9.679210000000001,8.982465999999999 9.519754,9.265857 9.363115,9.546579999999999 9.208316,9.823882 9.054422,10.097019 8.900543,10.365259 8.74583,10.627884 8.589475,10.884197 8.430707,11.13353 8.268787,11.375257 8.102999,11.608801 7.932628,11.833663 7.756079,12.050506 7.570588000000001,12.262311 7.375005,12.471808 7.169968000000001,12.679818000000001 6.956375,12.886976 6.735192,13.093945 6.507434,13.301426000000001 6.320019,13.469137 4.0,13.469137 4.0,72.269137" stroke="#1f6fb2" stroke-width="0.1" /><text fill="#0a3d62" font-family="sans-serif" font-size="1.6" text-anchor="middle" x="9.8144895" y="38.1345685">09</text><polygon fill="#cfe3f7" fill-opacity="0.5" points="16.628979,72.269137 24.640194,72.269137 24.030834000000002,17.629927000000002 28.257958000000002,5.265592 25.726773,4.0 25.036910000000002,4.927299 24.846811000000002,5.1833849999999995 24.656627,5.4407060000000005 24.466631,5.699464 24.277099,5.959863 24.08831,6.222108 23.900546000000002,6.4864049999999995 23.714092,6.752962 23.529235,7.021988 23.346268000000002,7.293691 23.165485,7.568282 22.987186,7.845969 22.811673,8.12696 22.639407000000002,8.411207000000001 22.471482,8.697173 22.308189000000002,8.982465999999999 22.148733,9.265857 21.992094,9.546579999999999 21.837295,9.823882 21.683401000000003,10.097019 21.529522,10.365259 21.374809,10.627884 21.218454,10.884197 21.059686,11.13353 20.897766,11.375257 20.731978,11.608801 20.561607000000002,11.833663 20.385058,12.050506 20.199567000000002,12.262311 20.003984000000003,12.471808 19.798947000000002,12.679818000000001 19.585354000000002,12.886976 19.364171000000002,13.093945 19.136413,13.301426000000001 18.948998000000003,13.469137 16.628979,13.469137 16.628979,72.269137" stroke="#1f6fb2" stroke-width="0.1" /><text fill="#0a3d62" font-family="sans-serif" font-size="1.6" text-anchor="middle" x="22.4434685" y="38.1345685">09</text><polygon fill="#cfe3f7" fill-opacity="0.5" points="29.257958000000002,72.246331 55.957958000000005,72.246331 55.957958000000005,26.374542 55.376173,25.700281 55.036445,25.307292 54.694155,24.912819000000002 54.348787,24.517011 53.999525000000006,24.119673000000002 53.64555300000001,23.720615000000002 53.286060000000006,23.319652 52.920248,22.916616 52.548194,22.512266 52.173205,22.108748000000002 51.80092500000001,21.707146 51.435783,21.307043 51.08207,20.908068 50.744067,20.510068 50.426002,20.113112 50.131988,19.717495999999997 49.865919000000005,19.323725 49.631351,18.932456000000002 49.431342,18.544361000000002 49.268308000000005,18.159863 49.143266,17.776631000000002 49.054528000000005,17.38675 48.998958,16.983488 48.974987999999996,16.565161 48.981348,16.131448 49.016684,15.682677 49.07942,15.219636999999999 49.167707,14.743389 49.279430000000005,14.255131 49.412249,13.75609 49.563643,13.247462 49.730953,12.730379 49.911418,12.205886 50.102205,11.674937 50.300427,11.138395000000001 50.829651,9.725179 38.338785,4.0 37.66588900000001,4.904493 37.47579,5.160579 37.285606,5.4179 37.09561,5.676658 36.906078,5.937057 36.717289,6.199302 36.529525,6.463599 36.343071,6.730156 36.158214,6.999182 35.975247,7.270885 35.794464000000005,7.545476000000001 35.616165,7.823163 35.440652,8.104154 35.268386,8.388401 35.100461,8.674367 34.937168,8.95966 34.777712,9.243051 34.621073,9.523774 34.466274,9.801076 34.312380000000005,10.074213 34.158501,10.342453 34.003788,10.605078 33.847433,10.861391 33.688665,11.110724 33.526745000000005,11.352451 33.360957,11.585995 33.190586,11.810857 33.014037,12.0277 32.828546,12.239505 32.632963000000004,12.449002 32.427926,12.657012 32.214333,12.86417 31.993150000000004,13.071139 31.765392000000002,13.27862 31.577977000000004,13.446330999999999 29.257958000000002,13.446330999999999 29.257958000000002,72.246331" stroke="#1f6fb2" stroke-width="0.1" /><text fill="#0a3d62" font-family="sans-serif" font-size="1.6" text-anchor="middle" x="42.607958" y="38.1231655">01</text><polygon fill="#cfe3f7" fill-opacity="0.5" points="56.957958000000005,72.246331 83.65795800000001,72.246331 83.65795800000001,26.374542 83.07617300000001,25.700281 82.736445,25.307292 82.39415500000001,24.912819000000002 82.048787,24.517011 81.69952500000001,24.119673000000002 81.34555300000001,23.720615000000002 80.98606000000001,23.319652 80.620248,22.916616 80.24819400000001,22.512266 79.87320500000001,22.108748000000002 79.50092500000001,21.707146 79.135783,21.307043 78.78207,20.908068 78.444067,20.510068 78.126002,20.113112 77.831988,19.717495999999997 77.56591900000001,19.323725 77.33135100000001,18.932456000000002 77.131342,18.544361000000002 76.96830800000001,18.159863 76.843266,17.776631000000002 76.75452800000001,17.38675 76.698958,16.983488 76.674988,16.565161 76.681348,16.131448 76.716684,15.682677 76.77942,15.219636999999999 76.867707,14.743389 76.97943000000001,14.255131 77.112249,13.75609 77.263643,13.247462 77.430953,12.730379 77.611418,12.205886 77.802205,11.674937 78.000427,11.138395000000001 78.529651,9.725179 66.038785,4.0 65.36588900000001,4.904493 65.17579,5.160579 64.985606,5.4179 64.79561000000001,5.676658 64.60607800000001,5.937057 64.41728900000001,6.199302 64.22952500000001,6.463599 64.043071,6.730156 63.858214000000004,6.999182 63.675247000000006,7.270885 63.49446400000001,7.545476000000001 63.316165000000005,7.823163 63.140652,8.104154 62.968386,8.388401 62.800461000000006,8.674367 62.637168,8.95966 62.477712000000004,9.243051 62.321073000000005,9.523774 62.166274,9.801076 62.01238000000001,10.074213 61.858501000000004,10.342453 61.703788,10.605078 61.547433000000005,10.861391 61.388665,11.110724 61.22674500000001,11.352451 61.060957,11.585995 60.890586000000006,11.810857 60.714037000000005,12.0277 60.528546000000006,12.239505 60.33296300000001,12.449002 60.127926,12.657012 59.914333000000006,12.86417 59.69315,13.071139 59.46539200000001,13.27862 59.27797700000001,13.446330999999999 56.957958000000005,13.446330999999999 56.957958000000005,72.246331" stroke="#1f6fb2" stroke-width="0.1" /><text fill="#0a3d62" font-family="sans-serif" font-size="1.6" text-anchor="middle" x="70.307958" y="38.1231655">01</text><polygon fill="#cfe3f7" fill-opacity="0.5" points="8.547865,133.773885 33.374427,133.773885 37.931335000000004,83.607779 37.243781,82.835229 36.83824,82.38471200000001 36.424208,81.935117 35.999683,81.489611 35.56491,81.052474 35.122094,80.625492 34.672223,80.208192 34.215902,79.799724 33.753725,79.399235 33.28627,79.005868 32.814107,78.61877 32.337795,78.237089 31.857881,77.859973 31.374281,77.486096 30.884987,77.11391 30.387467,76.744632 29.880563,76.381104 29.363296,76.026396 28.834630999999998,75.683634 28.293495999999998,75.356021 27.738801,75.046856 27.169475,74.75956000000001 26.584514,74.497691 25.984498,74.265508 25.374499,74.066395 24.760378,73.897972 24.144437,73.755736 23.528219,73.635107 22.913132,73.53164 22.300511999999998,73.441037 21.691681,73.35914700000001 20.987676999999998,73.269137 20.270218,73.32259 19.648499,73.372854 19.022851,73.431423 18.394408,73.502409 17.764310000000002,73.590062 17.133746,73.698778 16.504013,73.833091 15.8767,73.997626 15.256143999999999,74.19611 14.648249,74.427551 14.055236999999998,74.687701 13.476492,74.973091 12.911173999999999,75.280422 12.358393999999999,75.606513 11.817250999999999,75.948285 11.286854,76.302744 10.766349,76.66696400000001 10.254923,77.038068 9.750919,77.413894 9.251394,77.795131 8.75578,78.184967 8.265877,78.585485 7.783825,78.998591 7.311819999999999,79.42622300000001 6.852131999999999,79.870344 6.407122999999999,80.332916 5.9792629999999996,80.815873 5.571657,81.320444 5.189857,81.842543 4.833897,82.371822 4.497924000000001,82.900653 4.0,83.707329 8.547865,133.773885" stroke="#1f6fb2" stroke-width="0.1" /><text fill="#0a3d62" font-family="sans-serif" font-size="1.6" text-anchor="middle" x="20.965667500000002" y="103.521511">04</text><polygon fill="#cfe3f7" fill-opacity="0.5" points="43.479200000000006,133.773885 68.305762,133.773885 72.86267000000001,83.607779 72.175116,82.835229 71.769575,82.38471200000001 71.35554300000001,81.935117 70.931018,81.489611 70.496245,81.052474 70.053429,80.625492 69.603558,80.208192 69.147237,79.799724 68.68506000000001,79.399235 68.217605,79.005868 67.745442,78.61877 67.26913,78.237089 66.78921600000001,77.859973 66.305616,77.486096 65.816322,77.11391 65.318802,76.744632 64.811898,76.381104 64.29463100000001,76.026396 63.765966000000006,75.683634 63.224831,75.356021 62.670136,75.046856 62.10081,74.75956000000001 61.515849,74.497691 60.915833000000006,74.265508 60.305834000000004,74.066395 59.69171300000001,73.897972 59.075772,73.755736 58.459554000000004,73.635107 57.84446700000001,73.53164 57.231847,73.441037 56.62301600000001,73.35914700000001 55.919012,73.269137 55.201553000000004,73.32259 54.579834000000005,73.372854 53.95418600000001,73.431423 53.325743,73.502409 52.695645000000006,73.590062 52.065081000000006,73.698778 51.435348000000005,73.833091 50.808035000000004,73.997626 50.187479,74.19611 49.579584000000004,74.427551 48.986572,74.687701 48.407827000000005,74.973091 47.84250900000001,75.280422 47.289729,75.606513 46.748586,75.948285 46.218189,76.302744 45.697684,76.66696400000001 45.186258,77.038068 44.682254,77.413894 44.182729,77.795131 43.687115000000006,78.184967 43.19721200000001,78.585485 42.715160000000004,78.998591 42.243155,79.42622300000001 41.783467,79.870344 41.338458,80.332916 40.91059800000001,80.815873 40.502992000000006,81.320444 40.12119200000001,81.842543 39.765232000000005,82.371822 39.429259,82.900653 38.931335000000004,83.707329 43.479200000000006,133.773885" stroke="#1f6fb2" stroke-width="0.1" /><text fill="#0a3d62" font-family="sans-serif" font-size="1.6" text-anchor="middle" x="55.897002500000006" y="103.521511">04</text><polygon fill="#cfe3f7" fill-opacity="0.5" points="52.0,146.978527 51.564493999999996,146.305591 51.289561,145.880517 51.014679,145.455022 50.7398,145.02877800000002 50.464876000000004,144.601462 50.189855,144.17274600000002 49.914688,143.742303 49.639336,143.309824 49.364163000000005,142.875596 49.090873,142.440682 48.821886,142.00571000000002 48.559216,141.57064 48.304832000000005,141.13543800000002 48.060679,140.700111 47.82867,140.26470600000002 47.610673,139.82930100000002 47.408500000000004,139.39399600000002 47.223893000000004,138.958898 47.058513000000005,138.524099 46.913925,138.089647 46.791591,137.65547600000002 46.692508000000004,137.21987000000001 46.616116000000005,136.778956 46.560694,136.33034800000001 46.5249,135.873909 46.483436,134.773885 28.0,134.773885 28.0,192.773885 52.0,192.773885 52.0,146.978527 4.0,146.978527 4.435506,146.305591 4.710439000000001,145.880517 4.985320999999999,145.455022 5.260200000000001,145.02877800000002 5.535124,144.601462 5.810144999999999,144.17274600000002 6.085311999999998,143.742303 6.360664,143.309824 6.635836999999999,142.875596 6.909127000000002,142.440682 7.178114000000001,142.00571000000002 7.440784000000001,141.57064 7.695167999999999,141.13543800000002 7.939321,140.700111 8.171330000000001,140.26470600000002 8.389327000000002,139.82930100000002 8.5915,139.39399600000002 8.776107,138.958898 8.941486999999999,138.524099 9.086075000000001,138.089647 9.208409,137.65547600000002 9.307492,137.21987000000001 9.383883999999998,136.778956 9.439305999999998,136.33034800000001 9.475100000000001,135.873909 9.516563999999999,134.773885 28.0,134.773885 28.0,192.773885 4.0,192.773885 4.0,146.978527" stroke="#1f6fb2" stroke-width="0.1" /><text fill="#0a3d62" font-family="sans-serif" font-size="1.6" text-anchor="middle" x="28.0" y="163.773885">02</text><polygon fill="#cfe3f7" fill-opacity="0.5" points="53.0,146.04579 60.0,150.45579 67.0,146.04579 67.0,134.773885 53.0,134.773885 53.0,146.04579" stroke="#1f6fb2" stroke-width="0.1" /><text fill="#0a3d62" font-family="sans-serif" font-size="1.6" text-anchor="middle" x="60.0" y="142.61483750000002">10</text><polygon fill="#cfe3f7" fill-opacity="0.5" points="68.0,147.023012 68.029841,147.325992 68.132547,147.664567 68.299332,147.97660000000002 68.523786,148.250099 68.797285,148.47455300000001 69.109318,148.64133800000002 69.447893,148.744044 69.750873,148.773885 90.249127,148.773885 90.552107,148.744044 90.890682,148.64133800000002 91.202715,148.47455300000001 91.476214,148.250099 91.70066800000001,147.97660000000002 91.867453,147.664567 91.970159,147.325992 92.0,147.023012 92.0,136.52475800000002 91.970159,136.221778 91.867453,135.883203 91.70066800000001,135.57117 91.476214,135.297671 91.202715,135.073217 90.890682,134.906432 90.552107,134.803726 90.249127,134.773885 69.750873,134.773885 69.447893,134.803726 69.109318,134.906432 68.797285,135.073217 68.523786,135.297671 68.299332,135.57117 68.132547,135.883203 68.029841,136.221778 68.0,136.52475800000002 68.0,147.023012" stroke="#1f6fb2" stroke-width="0.1" /><text fill="#0a3d62" font-family="sans-serif" font-size="1.6" text-anchor="middle" x="80.0" y="141.773885">05</text><polygon fill="#cfe3f7" fill-opacity="0.5" points="4.0,206.023012 4.029841,206.325992 4.132547,206.664567 4.299332,206.97660000000002 4.523786,207.250099 4.7972850000000005,207.47455300000001 5.109318,207.64133800000002 5.4478930000000005,207.744044 5.750873,207.773885 26.249127,207.773885 26.552107,207.744044 26.890682,207.64133800000002 27.202715,207.47455300000001 27.476214,207.250099 27.700668,206.97660000000002 27.867453,206.664567 27.970159,206.325992 28.0,206.023012 28.0,195.52475800000002 27.970159,195.221778 27.867453,194.883203 27.700668,194.57117 27.476214,194.297671 27.202715,194.073217 26.890682,193.906432 26.552107,193.803726 26.249127,193.773885 5.750873,193.773885 5.4478930000000005,193.803726 5.109318,193.906432 4.7972850000000005,194.073217 4.523786,194.297671 4.299332,194.57117 4.132547,194.883203 4.029841,195.221778 4.0,195.52475800000002 4.0,206.023012" stroke="#1f6fb2" stroke-width="0.1" /><text fill="#0a3d62" font-family="sans-serif" font-size="1.6" text-anchor="middle" x="16.0" y="200.773885">05</text><polygon fill="#cfe3f7" fill-opacity="0.5" points="66.642963,204.540375 66.642404,204.06886400000002 66.657365,203.590303 66.686371,203.1051 66.727891,202.61369200000001 66.780338,202.116533 66.84207599999999,201.614076 66.91142099999999,201.106765 66.98665199999999,200.595024 67.066011,200.079257 67.271114,198.775268 54.907364,193.773885 54.263768,194.223904 54.06803,194.359501 53.874778,194.490895 53.683512,194.61730500000002 53.493758,194.738007 53.305041,194.852339 53.116279,194.960055 52.92548,195.06171500000002 52.7316,195.15785300000002 52.534814,195.24837100000002 52.335428,195.333109 52.133751,195.411913 51.930092,195.484636 51.724762,195.551136 51.518072000000004,195.611279 51.310331,195.664938 51.101761999999994,195.71201100000002 50.891707999999994,195.75260400000002 50.67894,195.787212 50.462965,195.816329 50.243779,195.840371 50.021414,195.85976300000002 49.795924,195.87494900000002 49.567379,195.886388 49.335863,195.89455900000002 49.101465,195.899958 48.864278,195.903104 48.624395,195.90453100000002 48.381909,195.904793 48.135557,195.90446 48.135557,205.904461 66.69438099999999,205.904461 66.642963,204.540375 29.628151,204.540375 29.628709999999998,204.06886400000002 29.613749,203.590303 29.584743,203.1051 29.543222999999998,202.61369200000001 29.490776,202.116533 29.429038,201.614076 29.359693,201.106765 29.284461999999998,200.595024 29.205102999999998,200.079257 29.0,198.775268 41.363749999999996,193.773885 42.007346,194.223904 42.203084,194.359501 42.396336,194.490895 42.587602,194.61730500000002 42.777356,194.738007 42.966072999999994,194.852339 43.154835,194.960055 43.345634,195.06171500000002 43.539514,195.15785300000002 43.7363,195.24837100000002 43.935686,195.333109 44.137363,195.411913 44.341021999999995,195.484636 44.546352,195.551136 44.753042,195.611279 44.960783,195.664938 45.169352,195.71201100000002 45.379406,195.75260400000002 45.592174,195.787212 45.808149,195.816329 46.027334999999994,195.840371 46.2497,195.85976300000002 46.47519,195.87494900000002 46.703734999999995,195.886388 46.935250999999994,195.89455900000002 47.169649,195.899958 47.406836,195.903104 47.646719,195.90453100000002 47.889205,195.904793 48.135557,195.90446 48.135557,205.904461 29.576732999999997,205.904461 29.628151,204.540375" stroke="#1f6fb2" stroke-width="0.1" /><text fill="#0a3d62" font-family="sans-serif" font-size="1.6" text-anchor="middle" x="48.135557" y="199.83917300000002">03</text><polygon fill="#cfe3f7" fill-opacity="0.5" points="90.428489,200.632898 90.90845,200.722281 91.38846799999999,200.806566 91.86854,200.885752 92.348663,200.959837 92.828834,201.02882 93.30905,201.092699 93.789307,201.151472 94.26960299999999,201.205139 94.749934,201.253699 95.230296,201.29715000000002 95.710687,201.33549100000002 96.191103,201.36872200000002 96.67154099999999,201.396842 97.151996,201.419849 97.632466,201.437745 98.11294699999999,201.45052800000002 98.593435,201.458198 99.073926,201.460754 99.554417,201.458198 100.034905,201.45052800000002 100.515386,201.437745 100.995856,201.419849 101.476311,201.396842 101.956749,201.36872200000002 102.437165,201.33549100000002 102.91755599999999,201.29715000000002 103.397919,201.253699 103.878249,201.205139 104.35854499999999,201.151472 104.838802,201.092699 105.319018,201.02882 105.799189,200.959837 106.279312,200.885752 106.759384,200.806566 107.239402,200.722281 107.719363,200.632898 107.977544,200.58207000000002 110.027498,203.998659 111.082716,203.59967600000002 109.26872399999999,193.773885 107.802908,194.07806100000002 107.343108,194.16858200000001 106.883369,194.254199 106.423686,194.334914 105.964057,194.410728 105.504479,194.48164300000002 105.044948,194.54766 104.585463,194.608781 104.126019,194.665008 103.666614,194.716341 103.207243,194.76278100000002 102.747905,194.80433 102.288595,194.840989 101.82930999999999,194.872758 101.370046,194.899638 100.91080099999999,194.92163100000002 100.451569,194.938735 99.99234899999999,194.950952 99.533136,194.958282 99.073926,194.960726 98.614716,194.958282 98.155503,194.950952 97.696283,194.938735 97.237051,194.92163100000002 96.777806,194.899638 96.318542,194.872758 95.859257,194.840989 95.399947,194.80433 94.940609,194.76278100000002 94.48123799999999,194.716341 94.021833,194.665008 93.562389,194.608781 93.102904,194.54766 92.643373,194.48164300000002 92.183795,194.410728 91.724166,194.334914 91.264483,194.254199 90.804744,194.16858200000001 90.344945,194.07806100000002 89.676915,193.939436 89.676915,200.482044 89.948587,200.538419 90.428489,200.632898 88.925341,200.632898 88.44538,200.722281 87.965362,200.806566 87.48528999999999,200.885752 87.005167,200.959837 86.524996,201.02882 86.04478,201.092699 85.564523,201.151472 85.084227,201.205139 84.60389599999999,201.253699 84.12353399999999,201.29715000000002 83.643143,201.33549100000002 83.16272699999999,201.36872200000002 82.682289,201.396842 82.20183399999999,201.419849 81.721364,201.437745 81.240883,201.45052800000002 80.760395,201.458198 80.279904,201.460754 79.799413,201.458198 79.318925,201.45052800000002 78.838444,201.437745 78.357974,201.419849 77.87751899999999,201.396842 77.397081,201.36872200000002 76.916665,201.33549100000002 76.436274,201.29715000000002 75.955911,201.253699 75.475581,201.205139 74.995285,201.151472 74.515028,201.092699 74.034812,201.02882 73.554641,200.959837 73.074518,200.885752 72.594446,200.806566 72.114428,200.722281 71.634467,200.632898 71.376286,200.58207000000002 69.326332,203.998659 68.271114,203.59967600000002 70.085106,193.773885 71.550922,194.07806100000002 72.010722,194.16858200000001 72.470461,194.254199 72.930144,194.334914 73.38977299999999,194.410728 73.849351,194.48164300000002 74.308882,194.54766 74.768367,194.608781 75.227811,194.665008 75.68721599999999,194.716341 76.146587,194.76278100000002 76.605925,194.80433 77.065235,194.840989 77.52452,194.872758 77.983784,194.899638 78.443029,194.92163100000002 78.902261,194.938735 79.361481,194.950952 79.820694,194.958282 80.279904,194.960726 80.739114,194.958282 81.19832699999999,194.950952 81.657547,194.938735 82.116779,194.92163100000002 82.57602399999999,194.899638 83.035288,194.872758 83.494573,194.840989 83.95388299999999,194.80433 84.413221,194.76278100000002 84.872592,194.716341 85.331997,194.665008 85.79144099999999,194.608781 86.25092599999999,194.54766 86.71045699999999,194.48164300000002 87.170035,194.410728 87.62966399999999,194.334914 88.089347,194.254199 88.549086,194.16858200000001 89.00888499999999,194.07806100000002 89.676915,193.939436 89.676915,200.482044 89.405243,200.538419 88.925341,200.632898" stroke="#1f6fb2" stroke-width="0.1" /><text fill="#0a3d62" font-family="sans-serif" font-size="1.6" text-anchor="middle" x="89.676915" y="198.88627200000002">07</text><polygon fill="#cfe3f7" fill-opacity="0.5" points="26.379563,214.079924 26.899507,214.150962 27.419474,214.21794300000002 27.939463,214.280867 28.459473000000003,214.33973400000002 28.979502,214.394544 29.49955,214.44529500000002 30.019614,214.491987 30.539693,214.53462100000002 31.059787,214.573195 31.579893000000002,214.60771 32.100011,214.63816500000001 32.620138,214.664559 33.140274000000005,214.686894 33.660418,214.70516700000002 34.180567,214.71938 34.700720000000004,214.729533 35.220876000000004,214.735624 35.741033,214.73765500000002 36.26119,214.735624 36.781346,214.729533 37.301500000000004,214.71938 37.821648,214.70516700000002 38.341792,214.686894 38.861928,214.664559 39.382055,214.63816500000001 39.902173000000005,214.60771 40.422279,214.573195 40.942373,214.53462100000002 41.462452,214.491987 41.982516000000004,214.44529500000002 42.502564,214.394544 43.022593,214.33973400000002 43.542603,214.280867 44.062592,214.21794300000002 44.582559,214.150962 45.102503,214.079924 45.622423,214.004831 46.988044,213.79693 46.988044,208.773885 45.328964,209.026463 44.824183000000005,209.09937 44.319425,209.16833200000002 43.814692,209.233351 43.309979999999996,209.294427 42.805288000000004,209.35156 42.300617,209.40475 41.795963,209.453999 41.291326,209.49930700000002 40.786704,209.540673 40.282097,209.578099 39.777502,209.611584 39.272919,209.641129 38.768345000000004,209.66673500000002 38.26378,209.6884 37.759222,209.706127 37.254670000000004,209.71991400000002 36.750122000000005,209.729761 36.245577,209.73567 35.741033,209.737639 35.236489,209.73567 34.731944,209.729761 34.227396,209.71991400000002 33.722844,209.706127 33.218286,209.6884 32.713721,209.66673500000002 32.209147,209.641129 31.704564,209.611584 31.199969000000003,209.578099 30.695362000000003,209.540673 30.19074,209.49930700000002 29.686103000000003,209.453999 29.181449,209.40475 28.676778000000002,209.35156 28.172086,209.294427 27.667374000000002,209.233351 27.162641,209.16833200000002 26.657883,209.09937 26.153102,209.026463 25.494022,208.926125 25.494022,213.949169 25.859643000000002,214.004831 26.379563,214.079924 24.608481,214.079924 24.088537000000002,214.150962 23.56857,214.21794300000002 23.048581000000002,214.280867 22.528571,214.33973400000002 22.008542000000002,214.394544 21.488494000000003,214.44529500000002 20.96843,214.491987 20.448351000000002,214.53462100000002 19.928257000000002,214.573195 19.408151,214.60771 18.888033,214.63816500000001 18.367906,214.664559 17.84777,214.686894 17.327626000000002,214.70516700000002 16.807477,214.71938 16.287324,214.729533 15.767168000000002,214.735624 15.247011,214.73765500000002 14.726854000000001,214.735624 14.206698000000001,214.729533 13.686544000000001,214.71938 13.166396,214.70516700000002 12.646252,214.686894 12.126116000000001,214.664559 11.605989000000001,214.63816500000001 11.085871000000001,214.60771 10.565765,214.573195 10.045671,214.53462100000002 9.525592000000001,214.491987 9.005528000000002,214.44529500000002 8.485480000000003,214.394544 7.965451000000002,214.33973400000002 7.445441000000002,214.280867 6.925452,214.21794300000002 6.405485000000002,214.150962 5.885541,214.079924 5.365621000000001,214.004831 4.0,213.79693 4.0,208.773885 5.659079999999999,209.026463 6.163861000000001,209.09937 6.668619,209.16833200000002 7.173352000000001,209.233351 7.678064000000003,209.294427 8.182756000000001,209.35156 8.687427,209.40475 9.192081000000002,209.453999 9.696718,209.49930700000002 10.201340000000002,209.540673 10.705947000000002,209.578099 11.210542,209.611584 11.715125,209.641129 12.219699,209.66673500000002 12.724264000000002,209.6884 13.228822000000001,209.706127 13.733374000000001,209.71991400000002 14.237922000000001,209.729761 14.742467000000001,209.73567 15.247011,209.737639 15.751555000000002,209.73567 16.256100000000004,209.729761 16.760648000000003,209.71991400000002 17.2652,209.706127 17.769758000000003,209.6884 18.274323000000003,209.66673500000002 18.778897,209.641129 19.28348,209.611584 19.788075,209.578099 20.292682,209.540673 20.797304,209.49930700000002 21.301941,209.453999 21.806595,209.40475 22.311266,209.35156 22.815958000000002,209.294427 23.32067,209.233351 23.825403,209.16833200000002 24.330161,209.09937 24.834942,209.026463 25.494022,208.926125 25.494022,213.949169 25.128401,214.004831 24.608481,214.079924" stroke="#1f6fb2" stroke-width="0.1" /><text fill="#0a3d62" font-family="sans-serif" font-size="1.6" text-anchor="middle" x="25.494022" y="211.75577">08</text><polygon fill="#cfe3f7" fill-opacity="0.5" points="47.988044,212.423012 48.010199,212.647955 48.090142,212.911493 48.219963,213.154371 48.394673000000004,213.367256 48.607558000000004,213.541966 48.850436,213.671787 49.113974,213.75173 49.338917,213.773885 60.637171,213.773885 60.862114000000005,213.75173 61.125652,213.671787 61.36853,213.541966 61.581415,213.367256 61.756125000000004,213.154371 61.885946000000004,212.911493 61.965889000000004,212.647955 61.988044,212.423012 61.988044,210.124758 61.965889000000004,209.89981500000002 61.885946000000004,209.636277 61.756125000000004,209.39339900000002 61.581415,209.18051400000002 61.36853,209.005804 61.125652,208.87598300000002 60.862114000000005,208.79604 60.637171,208.773885 49.338917,208.773885 49.113974,208.79604 48.850436,208.87598300000002 48.607558000000004,209.005804 48.394673000000004,209.18051400000002 48.219963,209.39339900000002 48.090142,209.636277 48.010199,209.89981500000002 47.988044,210.124758 47.988044,212.423012" stroke="#1f6fb2" stroke-width="0.1" /><text fill="#0a3d62" font-family="sans-serif" font-size="1.6" text-anchor="middle" x="54.988044" y="211.273885">06</text><polygon fill="#cfe3f7" fill-opacity="0.5" points="62.988044,212.423012 63.010199,212.647955 63.090142,212.911493 63.219963,213.154371 63.394673000000004,213.367256 63.607558000000004,213.541966 63.850436,213.671787 64.113974,213.75173 64.33891700000001,213.773885 75.637171,213.773885 75.862114,213.75173 76.125652,213.671787 76.36853,213.541966 76.581415,213.367256 76.756125,213.154371 76.885946,212.911493 76.965889,212.647955 76.988044,212.423012 76.988044,210.124758 76.965889,209.89981500000002 76.885946,209.636277 76.756125,209.39339900000002 76.581415,209.18051400000002 76.36853,209.005804 76.125652,208.87598300000002 75.862114,208.79604 75.637171,208.773885 64.33891700000001,208.773885 64.113974,208.79604 63.850436,208.87598300000002 63.607558000000004,209.005804 63.394673000000004,209.18051400000002 63.219963,209.39339900000002 63.090142,209.636277 63.010199,209.89981500000002 62.988044,210.124758 62.988044,212.423012" stroke="#1f6fb2" stroke-width="0.1" /><text fill="#0a3d62" font-family="sans-serif" font-size="1.6" text-anchor="middle" x="69.988044" y="211.273885">06</text></svg>